<svg width="600" height="312" viewBox="0 0 600 312" fill="none" xmlns="http://www.w3.org/2000/svg">
<rect width="600" height="312" fill="black" fill-opacity="0.04"/>
<path fill-rule="evenodd" clip-rule="evenodd" d="M118.4 113.242L112 120.247L105.6 113.242L105.597 113.239C104.357 111.879 104.468 109.784 105.844 108.56C107.169 107.38 109.198 107.432 110.459 108.679C110.462 108.682 110.466 108.685 110.469 108.688L111.448 109.608L112 110.133L112.552 109.608L113.531 108.688C113.534 108.685 113.538 108.682 113.541 108.679C114.169 108.055 115.022 107.706 115.912 107.708C117.763 107.708 119.265 109.191 119.265 111.021C119.265 111.84 118.958 112.63 118.403 113.239L118.4 113.242ZM119.864 107.117C117.694 104.974 114.186 104.961 112 107.079C109.815 104.961 106.306 104.974 104.137 107.117C101.99 109.238 101.955 112.656 104.032 114.819L112 123.5L119.968 114.819C122.045 112.656 122.01 109.238 119.864 107.117Z" fill="black"/>
<path d="M137.216 108.576H139.216V118.272H145.024V120H137.216V108.576ZM153.276 118.16C153.276 118.384 153.302 118.544 153.356 118.64C153.42 118.736 153.537 118.784 153.708 118.784C153.761 118.784 153.825 118.784 153.899 118.784C153.974 118.784 154.06 118.773 154.156 118.752V120.016C154.092 120.037 154.006 120.059 153.899 120.08C153.803 120.112 153.702 120.139 153.595 120.16C153.489 120.181 153.382 120.197 153.276 120.208C153.169 120.219 153.078 120.224 153.003 120.224C152.63 120.224 152.321 120.149 152.076 120C151.83 119.851 151.67 119.589 151.595 119.216C151.233 119.568 150.785 119.824 150.252 119.984C149.729 120.144 149.222 120.224 148.731 120.224C148.358 120.224 148.001 120.171 147.659 120.064C147.318 119.968 147.014 119.824 146.747 119.632C146.491 119.429 146.283 119.179 146.123 118.88C145.974 118.571 145.899 118.213 145.899 117.808C145.899 117.296 145.99 116.88 146.171 116.56C146.363 116.24 146.609 115.989 146.907 115.808C147.217 115.627 147.558 115.499 147.931 115.424C148.315 115.339 148.699 115.275 149.083 115.232C149.414 115.168 149.729 115.125 150.028 115.104C150.326 115.072 150.588 115.024 150.812 114.96C151.046 114.896 151.228 114.8 151.356 114.672C151.494 114.533 151.563 114.331 151.563 114.064C151.563 113.829 151.505 113.637 151.388 113.488C151.281 113.339 151.142 113.227 150.971 113.152C150.812 113.067 150.63 113.013 150.428 112.992C150.225 112.96 150.033 112.944 149.852 112.944C149.339 112.944 148.918 113.051 148.587 113.264C148.257 113.477 148.07 113.808 148.027 114.256H146.203C146.235 113.723 146.363 113.28 146.587 112.928C146.811 112.576 147.094 112.293 147.435 112.08C147.787 111.867 148.182 111.717 148.619 111.632C149.057 111.547 149.505 111.504 149.964 111.504C150.369 111.504 150.769 111.547 151.164 111.632C151.558 111.717 151.91 111.856 152.22 112.048C152.54 112.24 152.796 112.491 152.988 112.8C153.18 113.099 153.276 113.467 153.276 113.904V118.16ZM151.451 115.856C151.174 116.037 150.833 116.149 150.428 116.192C150.022 116.224 149.617 116.277 149.211 116.352C149.02 116.384 148.833 116.432 148.651 116.496C148.47 116.549 148.31 116.629 148.171 116.736C148.033 116.832 147.921 116.965 147.836 117.136C147.761 117.296 147.724 117.493 147.724 117.728C147.724 117.931 147.782 118.101 147.899 118.24C148.017 118.379 148.156 118.491 148.316 118.576C148.486 118.651 148.668 118.704 148.859 118.736C149.062 118.768 149.244 118.784 149.404 118.784C149.606 118.784 149.825 118.757 150.06 118.704C150.294 118.651 150.513 118.56 150.715 118.432C150.929 118.304 151.105 118.144 151.244 117.952C151.382 117.749 151.451 117.504 151.451 117.216V115.856ZM155.486 108.576H157.31V112.8H157.342C157.47 112.597 157.625 112.416 157.806 112.256C157.987 112.096 158.185 111.963 158.398 111.856C158.622 111.739 158.851 111.653 159.086 111.6C159.331 111.536 159.571 111.504 159.806 111.504C160.457 111.504 161.022 111.621 161.502 111.856C161.993 112.08 162.398 112.395 162.718 112.8C163.038 113.195 163.278 113.659 163.438 114.192C163.598 114.725 163.678 115.296 163.678 115.904C163.678 116.459 163.603 116.997 163.454 117.52C163.315 118.043 163.097 118.507 162.798 118.912C162.51 119.307 162.142 119.627 161.694 119.872C161.246 120.107 160.718 120.224 160.11 120.224C159.833 120.224 159.55 120.203 159.262 120.16C158.985 120.128 158.718 120.059 158.462 119.952C158.206 119.845 157.971 119.707 157.758 119.536C157.555 119.365 157.385 119.141 157.246 118.864H157.214V120H155.486V108.576ZM161.854 115.872C161.854 115.499 161.806 115.136 161.71 114.784C161.614 114.432 161.47 114.123 161.278 113.856C161.086 113.579 160.846 113.36 160.558 113.2C160.27 113.029 159.939 112.944 159.566 112.944C158.798 112.944 158.217 113.211 157.822 113.744C157.438 114.277 157.246 114.987 157.246 115.872C157.246 116.288 157.294 116.677 157.39 117.04C157.497 117.392 157.651 117.696 157.854 117.952C158.057 118.208 158.297 118.411 158.574 118.56C158.862 118.709 159.193 118.784 159.566 118.784C159.982 118.784 160.334 118.699 160.622 118.528C160.91 118.357 161.145 118.139 161.326 117.872C161.518 117.595 161.651 117.285 161.726 116.944C161.811 116.592 161.854 116.235 161.854 115.872ZM171.099 115.136C171.078 114.848 171.014 114.571 170.907 114.304C170.811 114.037 170.673 113.808 170.491 113.616C170.321 113.413 170.107 113.253 169.851 113.136C169.606 113.008 169.329 112.944 169.019 112.944C168.699 112.944 168.406 113.003 168.139 113.12C167.883 113.227 167.659 113.381 167.467 113.584C167.286 113.776 167.137 114.005 167.019 114.272C166.913 114.539 166.854 114.827 166.843 115.136H171.099ZM166.843 116.336C166.843 116.656 166.886 116.965 166.971 117.264C167.067 117.563 167.206 117.824 167.387 118.048C167.569 118.272 167.798 118.453 168.075 118.592C168.353 118.72 168.683 118.784 169.067 118.784C169.601 118.784 170.027 118.672 170.347 118.448C170.678 118.213 170.923 117.867 171.083 117.408H172.811C172.715 117.856 172.55 118.256 172.315 118.608C172.081 118.96 171.798 119.259 171.467 119.504C171.137 119.739 170.763 119.915 170.347 120.032C169.942 120.16 169.515 120.224 169.067 120.224C168.417 120.224 167.841 120.117 167.339 119.904C166.838 119.691 166.411 119.392 166.059 119.008C165.718 118.624 165.457 118.165 165.275 117.632C165.105 117.099 165.019 116.512 165.019 115.872C165.019 115.285 165.11 114.731 165.291 114.208C165.483 113.675 165.75 113.211 166.091 112.816C166.443 112.411 166.865 112.091 167.355 111.856C167.846 111.621 168.401 111.504 169.019 111.504C169.67 111.504 170.251 111.643 170.763 111.92C171.286 112.187 171.718 112.544 172.059 112.992C172.401 113.44 172.646 113.957 172.795 114.544C172.955 115.12 172.998 115.717 172.923 116.336H166.843ZM174.558 108.576H176.382V120H174.558V108.576Z" fill="black"/>
<g clip-path="url(#clip0_82210_18111)">
<rect width="400" height="16" transform="translate(100 190)" fill="black" fill-opacity="0.04"/>
</g>
<defs>
<clipPath id="clip0_82210_18111">
<rect width="400" height="24" fill="white" transform="translate(100 186)"/>
</clipPath>
</defs>
</svg>
