<svg width="600" height="342" viewBox="0 0 600 342" fill="none" xmlns="http://www.w3.org/2000/svg">
<rect width="600" height="342" fill="black" fill-opacity="0.04"/>
<path fill-rule="evenodd" clip-rule="evenodd" d="M117.639 115.8C117.623 115.613 117.585 115.429 117.524 115.252V116.218L117.651 116.27C117.658 116.113 117.654 115.956 117.639 115.8ZM117.615 116.7L117.524 116.662V117.186C117.563 117.025 117.593 116.863 117.615 116.7ZM118.882 116.782C118.729 116.191 118.406 115.658 117.954 115.248C118.331 116.678 117.521 116.228 118.882 116.782ZM109.46 121.728C108.449 121.764 107.254 121.783 106.839 120.713C106.627 120.803 106.389 120.809 106.173 120.73C105.956 120.65 105.779 120.491 105.675 120.286L103.705 115.522L106.719 114.271V111.672L101.684 113.762L105.81 123.737C105.87 123.882 105.957 124.014 106.068 124.126C106.179 124.237 106.311 124.325 106.456 124.386C106.601 124.446 106.757 124.477 106.914 124.478C107.071 124.478 107.227 124.447 107.372 124.387C107.375 124.39 111.375 122.726 111.378 122.726L110.113 122.203C109.881 122.065 109.663 121.906 109.46 121.728ZM118.066 119.75C118.31 119.509 118.512 119.228 118.664 118.92L117.524 118.45V119.785L117.87 119.928C117.937 119.873 118.004 119.813 118.066 119.75ZM118.822 118.538C118.962 118.129 119.013 117.694 118.971 117.264L118.004 116.863C117.761 118.466 117.218 117.828 118.822 118.538ZM121.582 113.326L117.524 111.645V114.452C118.089 114.75 118.561 115.196 118.891 115.742C119.221 116.288 119.395 116.914 119.395 117.552C119.395 118.19 119.221 118.816 118.891 119.362C118.561 119.908 118.089 120.354 117.524 120.651V121.128C117.524 121.287 117.461 121.44 117.348 121.552C117.236 121.665 117.083 121.728 116.924 121.728H110.517L118.1 124.872L122.233 114.895C122.468 114.288 122.187 113.578 121.582 113.326ZM105.164 117.192L106.724 117.608V116.53L104.66 115.992L105.164 117.192ZM108.524 121.128C109.123 121.119 116.117 121.135 116.924 121.128C116.924 121.128 116.921 112.745 116.924 111.396C116.899 110.931 117.039 109.977 116.68 109.603C116.568 109.455 116.424 109.335 116.258 109.253C116.092 109.171 115.909 109.128 115.724 109.128H107.324C107.353 109.284 107.297 119.888 107.329 120.037C107.357 120.335 107.494 120.612 107.715 120.814C107.936 121.016 108.225 121.128 108.524 121.128ZM111.374 114.378V112.503C111.397 112.011 111.943 112.144 112.271 112.128C112.531 112.115 112.793 112.124 112.866 112.425C112.871 112.45 112.874 112.477 112.874 112.503V114.378H114.411C114.725 114.374 115.093 114.328 115.124 114.753C115.117 114.927 115.129 115.333 115.124 115.503C115.124 115.552 115.114 115.601 115.096 115.646C115.077 115.692 115.049 115.733 115.014 115.768C114.979 115.803 114.938 115.831 114.893 115.849C114.847 115.868 114.798 115.878 114.749 115.878H112.874C112.873 116.342 112.875 117.292 112.874 117.753C112.874 117.852 112.834 117.948 112.764 118.018C112.694 118.088 112.598 118.128 112.499 118.128H111.749C111.7 118.128 111.651 118.118 111.606 118.099C111.56 118.081 111.519 118.053 111.484 118.018C111.449 117.983 111.421 117.942 111.403 117.896C111.384 117.851 111.374 117.802 111.374 117.753V115.878C111.026 115.875 109.828 115.88 109.499 115.878C109.45 115.878 109.401 115.868 109.356 115.849C109.31 115.831 109.269 115.803 109.234 115.768C109.199 115.733 109.171 115.692 109.153 115.646C109.134 115.601 109.124 115.552 109.124 115.503V114.753C109.124 114.654 109.164 114.558 109.234 114.488C109.305 114.418 109.4 114.378 109.499 114.378C109.975 114.379 110.902 114.377 111.374 114.378Z" fill="black"/>
<path d="M140.192 118.52L135.904 111.576H138.224L141.248 116.696L144.224 111.576H146.464L142.192 118.52V123H140.192V118.52ZM149.858 123.224C149.197 123.224 148.605 123.117 148.082 122.904C147.57 122.68 147.133 122.376 146.77 121.992C146.418 121.608 146.146 121.149 145.954 120.616C145.773 120.083 145.682 119.496 145.682 118.856C145.682 118.227 145.773 117.645 145.954 117.112C146.146 116.579 146.418 116.12 146.77 115.736C147.133 115.352 147.57 115.053 148.082 114.84C148.605 114.616 149.197 114.504 149.858 114.504C150.52 114.504 151.106 114.616 151.618 114.84C152.141 115.053 152.578 115.352 152.93 115.736C153.293 116.12 153.565 116.579 153.746 117.112C153.938 117.645 154.034 118.227 154.034 118.856C154.034 119.496 153.938 120.083 153.746 120.616C153.565 121.149 153.293 121.608 152.93 121.992C152.578 122.376 152.141 122.68 151.618 122.904C151.106 123.117 150.52 123.224 149.858 123.224ZM149.858 121.784C150.264 121.784 150.616 121.699 150.914 121.528C151.213 121.357 151.458 121.133 151.65 120.856C151.842 120.579 151.981 120.269 152.066 119.928C152.162 119.576 152.21 119.219 152.21 118.856C152.21 118.504 152.162 118.152 152.066 117.8C151.981 117.448 151.842 117.139 151.65 116.872C151.458 116.595 151.213 116.371 150.914 116.2C150.616 116.029 150.264 115.944 149.858 115.944C149.453 115.944 149.101 116.029 148.802 116.2C148.504 116.371 148.258 116.595 148.066 116.872C147.874 117.139 147.73 117.448 147.634 117.8C147.549 118.152 147.506 118.504 147.506 118.856C147.506 119.219 147.549 119.576 147.634 119.928C147.73 120.269 147.874 120.579 148.066 120.856C148.258 121.133 148.504 121.357 148.802 121.528C149.101 121.699 149.453 121.784 149.858 121.784ZM163.015 123H161.223V121.848H161.191C160.967 122.264 160.631 122.6 160.183 122.856C159.745 123.101 159.297 123.224 158.839 123.224C157.751 123.224 156.961 122.957 156.471 122.424C155.991 121.88 155.751 121.064 155.751 119.976V114.728H157.575V119.8C157.575 120.525 157.713 121.037 157.991 121.336C158.268 121.635 158.657 121.784 159.159 121.784C159.543 121.784 159.863 121.725 160.119 121.608C160.375 121.491 160.583 121.336 160.743 121.144C160.903 120.941 161.015 120.701 161.079 120.424C161.153 120.147 161.191 119.848 161.191 119.528V114.728H163.015V123ZM165.138 114.728H166.85V116.328H166.882C166.935 116.104 167.037 115.885 167.186 115.672C167.346 115.459 167.533 115.267 167.746 115.096C167.97 114.915 168.215 114.771 168.482 114.664C168.749 114.557 169.021 114.504 169.298 114.504C169.511 114.504 169.655 114.509 169.73 114.52C169.815 114.531 169.901 114.541 169.986 114.552V116.312C169.858 116.291 169.725 116.275 169.586 116.264C169.458 116.243 169.33 116.232 169.202 116.232C168.893 116.232 168.599 116.296 168.322 116.424C168.055 116.541 167.821 116.723 167.618 116.968C167.415 117.203 167.255 117.496 167.138 117.848C167.021 118.2 166.962 118.605 166.962 119.064V123H165.138V114.728ZM175.664 114.728H177.392V115.848H177.424C177.68 115.368 178.038 115.027 178.496 114.824C178.955 114.611 179.451 114.504 179.984 114.504C180.635 114.504 181.2 114.621 181.68 114.856C182.171 115.08 182.576 115.395 182.896 115.8C183.216 116.195 183.456 116.659 183.616 117.192C183.776 117.725 183.856 118.296 183.856 118.904C183.856 119.459 183.782 119.997 183.632 120.52C183.494 121.043 183.275 121.507 182.976 121.912C182.688 122.307 182.32 122.627 181.872 122.872C181.424 123.107 180.896 123.224 180.288 123.224C180.022 123.224 179.755 123.197 179.488 123.144C179.222 123.101 178.966 123.027 178.72 122.92C178.475 122.813 178.246 122.68 178.032 122.52C177.83 122.349 177.659 122.152 177.52 121.928H177.488V126.056H175.664V114.728ZM182.032 118.872C182.032 118.499 181.984 118.136 181.888 117.784C181.792 117.432 181.648 117.123 181.456 116.856C181.264 116.579 181.024 116.36 180.736 116.2C180.448 116.029 180.118 115.944 179.744 115.944C178.976 115.944 178.395 116.211 178 116.744C177.616 117.277 177.424 117.987 177.424 118.872C177.424 119.288 177.472 119.677 177.568 120.04C177.675 120.392 177.83 120.696 178.032 120.952C178.235 121.208 178.475 121.411 178.752 121.56C179.04 121.709 179.371 121.784 179.744 121.784C180.16 121.784 180.512 121.699 180.8 121.528C181.088 121.357 181.323 121.139 181.504 120.872C181.696 120.595 181.83 120.285 181.904 119.944C181.99 119.592 182.032 119.235 182.032 118.872ZM185.646 111.576H187.47V123H185.646V111.576ZM196.585 121.16C196.585 121.384 196.612 121.544 196.665 121.64C196.729 121.736 196.846 121.784 197.017 121.784C197.07 121.784 197.134 121.784 197.209 121.784C197.284 121.784 197.369 121.773 197.465 121.752V123.016C197.401 123.037 197.316 123.059 197.209 123.08C197.113 123.112 197.012 123.139 196.905 123.16C196.798 123.181 196.692 123.197 196.585 123.208C196.478 123.219 196.388 123.224 196.313 123.224C195.94 123.224 195.63 123.149 195.385 123C195.14 122.851 194.98 122.589 194.905 122.216C194.542 122.568 194.094 122.824 193.561 122.984C193.038 123.144 192.532 123.224 192.041 123.224C191.668 123.224 191.31 123.171 190.969 123.064C190.628 122.968 190.324 122.824 190.057 122.632C189.801 122.429 189.593 122.179 189.433 121.88C189.284 121.571 189.209 121.213 189.209 120.808C189.209 120.296 189.3 119.88 189.481 119.56C189.673 119.24 189.918 118.989 190.217 118.808C190.526 118.627 190.868 118.499 191.241 118.424C191.625 118.339 192.009 118.275 192.393 118.232C192.724 118.168 193.038 118.125 193.337 118.104C193.636 118.072 193.897 118.024 194.121 117.96C194.356 117.896 194.537 117.8 194.665 117.672C194.804 117.533 194.873 117.331 194.873 117.064C194.873 116.829 194.814 116.637 194.697 116.488C194.59 116.339 194.452 116.227 194.281 116.152C194.121 116.067 193.94 116.013 193.737 115.992C193.534 115.96 193.342 115.944 193.161 115.944C192.649 115.944 192.228 116.051 191.897 116.264C191.566 116.477 191.38 116.808 191.337 117.256H189.513C189.545 116.723 189.673 116.28 189.897 115.928C190.121 115.576 190.404 115.293 190.745 115.08C191.097 114.867 191.492 114.717 191.929 114.632C192.366 114.547 192.814 114.504 193.273 114.504C193.678 114.504 194.078 114.547 194.473 114.632C194.868 114.717 195.22 114.856 195.529 115.048C195.849 115.24 196.105 115.491 196.297 115.8C196.489 116.099 196.585 116.467 196.585 116.904V121.16ZM194.761 118.856C194.484 119.037 194.142 119.149 193.737 119.192C193.332 119.224 192.926 119.277 192.521 119.352C192.329 119.384 192.142 119.432 191.961 119.496C191.78 119.549 191.62 119.629 191.481 119.736C191.342 119.832 191.23 119.965 191.145 120.136C191.07 120.296 191.033 120.493 191.033 120.728C191.033 120.931 191.092 121.101 191.209 121.24C191.326 121.379 191.465 121.491 191.625 121.576C191.796 121.651 191.977 121.704 192.169 121.736C192.372 121.768 192.553 121.784 192.713 121.784C192.916 121.784 193.134 121.757 193.369 121.704C193.604 121.651 193.822 121.56 194.025 121.432C194.238 121.304 194.414 121.144 194.553 120.952C194.692 120.749 194.761 120.504 194.761 120.216V118.856ZM198.747 114.728H200.475V115.944L200.507 115.976C200.785 115.517 201.147 115.16 201.595 114.904C202.043 114.637 202.539 114.504 203.083 114.504C203.99 114.504 204.705 114.739 205.227 115.208C205.75 115.677 206.011 116.381 206.011 117.32V123H204.187V117.8C204.166 117.149 204.027 116.68 203.771 116.392C203.515 116.093 203.115 115.944 202.571 115.944C202.262 115.944 201.985 116.003 201.739 116.12C201.494 116.227 201.286 116.381 201.115 116.584C200.945 116.776 200.811 117.005 200.715 117.272C200.619 117.539 200.571 117.821 200.571 118.12V123H198.747V114.728ZM220.58 123H218.852V121.88H218.82C218.575 122.36 218.217 122.707 217.748 122.92C217.279 123.123 216.783 123.224 216.26 123.224C215.609 123.224 215.039 123.112 214.548 122.888C214.068 122.653 213.668 122.339 213.348 121.944C213.028 121.549 212.788 121.085 212.628 120.552C212.468 120.008 212.388 119.427 212.388 118.808C212.388 118.061 212.489 117.416 212.692 116.872C212.895 116.328 213.161 115.88 213.492 115.528C213.833 115.176 214.217 114.92 214.644 114.76C215.081 114.589 215.524 114.504 215.972 114.504C216.228 114.504 216.489 114.531 216.756 114.584C217.023 114.627 217.279 114.701 217.524 114.808C217.769 114.915 217.993 115.053 218.196 115.224C218.409 115.384 218.585 115.576 218.724 115.8H218.756V111.576H220.58V123ZM214.212 118.952C214.212 119.304 214.255 119.651 214.34 119.992C214.436 120.333 214.575 120.637 214.756 120.904C214.948 121.171 215.188 121.384 215.476 121.544C215.764 121.704 216.105 121.784 216.5 121.784C216.905 121.784 217.252 121.699 217.54 121.528C217.839 121.357 218.079 121.133 218.26 120.856C218.452 120.579 218.591 120.269 218.676 119.928C218.772 119.576 218.82 119.219 218.82 118.856C218.82 117.939 218.612 117.224 218.196 116.712C217.791 116.2 217.236 115.944 216.532 115.944C216.105 115.944 215.743 116.035 215.444 116.216C215.156 116.387 214.916 116.616 214.724 116.904C214.543 117.181 214.409 117.501 214.324 117.864C214.249 118.216 214.212 118.579 214.212 118.952ZM228.449 118.136C228.428 117.848 228.364 117.571 228.257 117.304C228.161 117.037 228.023 116.808 227.841 116.616C227.671 116.413 227.457 116.253 227.201 116.136C226.956 116.008 226.679 115.944 226.369 115.944C226.049 115.944 225.756 116.003 225.489 116.12C225.233 116.227 225.009 116.381 224.817 116.584C224.636 116.776 224.487 117.005 224.369 117.272C224.263 117.539 224.204 117.827 224.193 118.136H228.449ZM224.193 119.336C224.193 119.656 224.236 119.965 224.321 120.264C224.417 120.563 224.556 120.824 224.737 121.048C224.919 121.272 225.148 121.453 225.425 121.592C225.703 121.72 226.033 121.784 226.417 121.784C226.951 121.784 227.377 121.672 227.697 121.448C228.028 121.213 228.273 120.867 228.433 120.408H230.161C230.065 120.856 229.9 121.256 229.665 121.608C229.431 121.96 229.148 122.259 228.817 122.504C228.487 122.739 228.113 122.915 227.697 123.032C227.292 123.16 226.865 123.224 226.417 123.224C225.767 123.224 225.191 123.117 224.689 122.904C224.188 122.691 223.761 122.392 223.409 122.008C223.068 121.624 222.807 121.165 222.625 120.632C222.455 120.099 222.369 119.512 222.369 118.872C222.369 118.285 222.46 117.731 222.641 117.208C222.833 116.675 223.1 116.211 223.441 115.816C223.793 115.411 224.215 115.091 224.705 114.856C225.196 114.621 225.751 114.504 226.369 114.504C227.02 114.504 227.601 114.643 228.113 114.92C228.636 115.187 229.068 115.544 229.409 115.992C229.751 116.44 229.996 116.957 230.145 117.544C230.305 118.12 230.348 118.717 230.273 119.336H224.193ZM231.028 114.728H232.404V112.248H234.228V114.728H235.876V116.088H234.228V120.504C234.228 120.696 234.233 120.861 234.244 121C234.265 121.139 234.303 121.256 234.356 121.352C234.42 121.448 234.511 121.523 234.628 121.576C234.745 121.619 234.905 121.64 235.108 121.64C235.236 121.64 235.364 121.64 235.492 121.64C235.62 121.629 235.748 121.608 235.876 121.576V122.984C235.673 123.005 235.476 123.027 235.284 123.048C235.092 123.069 234.895 123.08 234.692 123.08C234.212 123.08 233.823 123.037 233.524 122.952C233.236 122.856 233.007 122.723 232.836 122.552C232.676 122.371 232.564 122.147 232.5 121.88C232.447 121.613 232.415 121.309 232.404 120.968V116.088H231.028V114.728ZM244.316 121.16C244.316 121.384 244.343 121.544 244.396 121.64C244.46 121.736 244.577 121.784 244.748 121.784C244.801 121.784 244.865 121.784 244.94 121.784C245.015 121.784 245.1 121.773 245.196 121.752V123.016C245.132 123.037 245.047 123.059 244.94 123.08C244.844 123.112 244.743 123.139 244.636 123.16C244.529 123.181 244.423 123.197 244.316 123.208C244.209 123.219 244.119 123.224 244.044 123.224C243.671 123.224 243.361 123.149 243.116 123C242.871 122.851 242.711 122.589 242.636 122.216C242.273 122.568 241.825 122.824 241.292 122.984C240.769 123.144 240.263 123.224 239.772 123.224C239.399 123.224 239.041 123.171 238.7 123.064C238.359 122.968 238.055 122.824 237.788 122.632C237.532 122.429 237.324 122.179 237.164 121.88C237.015 121.571 236.94 121.213 236.94 120.808C236.94 120.296 237.031 119.88 237.212 119.56C237.404 119.24 237.649 118.989 237.948 118.808C238.257 118.627 238.599 118.499 238.972 118.424C239.356 118.339 239.74 118.275 240.124 118.232C240.455 118.168 240.769 118.125 241.068 118.104C241.367 118.072 241.628 118.024 241.852 117.96C242.087 117.896 242.268 117.8 242.396 117.672C242.535 117.533 242.604 117.331 242.604 117.064C242.604 116.829 242.545 116.637 242.428 116.488C242.321 116.339 242.183 116.227 242.012 116.152C241.852 116.067 241.671 116.013 241.468 115.992C241.265 115.96 241.073 115.944 240.892 115.944C240.38 115.944 239.959 116.051 239.628 116.264C239.297 116.477 239.111 116.808 239.068 117.256H237.244C237.276 116.723 237.404 116.28 237.628 115.928C237.852 115.576 238.135 115.293 238.476 115.08C238.828 114.867 239.223 114.717 239.66 114.632C240.097 114.547 240.545 114.504 241.004 114.504C241.409 114.504 241.809 114.547 242.204 114.632C242.599 114.717 242.951 114.856 243.26 115.048C243.58 115.24 243.836 115.491 244.028 115.8C244.22 116.099 244.316 116.467 244.316 116.904V121.16ZM242.492 118.856C242.215 119.037 241.873 119.149 241.468 119.192C241.063 119.224 240.657 119.277 240.252 119.352C240.06 119.384 239.873 119.432 239.692 119.496C239.511 119.549 239.351 119.629 239.212 119.736C239.073 119.832 238.961 119.965 238.876 120.136C238.801 120.296 238.764 120.493 238.764 120.728C238.764 120.931 238.823 121.101 238.94 121.24C239.057 121.379 239.196 121.491 239.356 121.576C239.527 121.651 239.708 121.704 239.9 121.736C240.103 121.768 240.284 121.784 240.444 121.784C240.647 121.784 240.865 121.757 241.1 121.704C241.335 121.651 241.553 121.56 241.756 121.432C241.969 121.304 242.145 121.144 242.284 120.952C242.423 120.749 242.492 120.504 242.492 120.216V118.856ZM246.527 111.576H248.351V113.304H246.527V111.576ZM246.527 114.728H248.351V123H246.527V114.728ZM250.586 111.576H252.41V123H250.586V111.576ZM255.973 120.344C256.027 120.877 256.229 121.251 256.581 121.464C256.933 121.677 257.355 121.784 257.845 121.784C258.016 121.784 258.208 121.773 258.421 121.752C258.645 121.72 258.853 121.667 259.045 121.592C259.237 121.517 259.392 121.411 259.509 121.272C259.637 121.123 259.696 120.931 259.685 120.696C259.675 120.461 259.589 120.269 259.429 120.12C259.269 119.971 259.061 119.853 258.805 119.768C258.56 119.672 258.277 119.592 257.957 119.528C257.637 119.464 257.312 119.395 256.981 119.32C256.64 119.245 256.309 119.155 255.989 119.048C255.68 118.941 255.397 118.797 255.141 118.616C254.896 118.435 254.699 118.205 254.549 117.928C254.4 117.64 254.325 117.288 254.325 116.872C254.325 116.424 254.432 116.051 254.645 115.752C254.869 115.443 255.147 115.197 255.477 115.016C255.819 114.824 256.192 114.691 256.597 114.616C257.013 114.541 257.408 114.504 257.781 114.504C258.208 114.504 258.613 114.552 258.997 114.648C259.392 114.733 259.744 114.877 260.053 115.08C260.373 115.283 260.635 115.549 260.837 115.88C261.051 116.2 261.184 116.589 261.237 117.048H259.333C259.248 116.611 259.045 116.317 258.725 116.168C258.416 116.019 258.059 115.944 257.653 115.944C257.525 115.944 257.371 115.955 257.189 115.976C257.019 115.997 256.853 116.04 256.693 116.104C256.544 116.157 256.416 116.243 256.309 116.36C256.203 116.467 256.149 116.611 256.149 116.792C256.149 117.016 256.224 117.197 256.373 117.336C256.533 117.475 256.736 117.592 256.981 117.688C257.237 117.773 257.525 117.848 257.845 117.912C258.165 117.976 258.496 118.045 258.837 118.12C259.168 118.195 259.493 118.285 259.813 118.392C260.133 118.499 260.416 118.643 260.661 118.824C260.917 119.005 261.12 119.235 261.269 119.512C261.429 119.789 261.509 120.131 261.509 120.536C261.509 121.027 261.397 121.443 261.173 121.784C260.949 122.125 260.656 122.403 260.293 122.616C259.941 122.829 259.547 122.984 259.109 123.08C258.672 123.176 258.24 123.224 257.813 123.224C257.291 123.224 256.805 123.165 256.357 123.048C255.92 122.931 255.536 122.755 255.205 122.52C254.885 122.275 254.629 121.976 254.437 121.624C254.256 121.261 254.16 120.835 254.149 120.344H255.973ZM274.676 121.16C274.676 121.384 274.702 121.544 274.756 121.64C274.82 121.736 274.937 121.784 275.108 121.784C275.161 121.784 275.225 121.784 275.3 121.784C275.374 121.784 275.46 121.773 275.556 121.752V123.016C275.492 123.037 275.406 123.059 275.3 123.08C275.204 123.112 275.102 123.139 274.996 123.16C274.889 123.181 274.782 123.197 274.676 123.208C274.569 123.219 274.478 123.224 274.404 123.224C274.03 123.224 273.721 123.149 273.476 123C273.23 122.851 273.07 122.589 272.996 122.216C272.633 122.568 272.185 122.824 271.652 122.984C271.129 123.144 270.622 123.224 270.132 123.224C269.758 123.224 269.401 123.171 269.06 123.064C268.718 122.968 268.414 122.824 268.148 122.632C267.892 122.429 267.684 122.179 267.524 121.88C267.374 121.571 267.3 121.213 267.3 120.808C267.3 120.296 267.39 119.88 267.572 119.56C267.764 119.24 268.009 118.989 268.308 118.808C268.617 118.627 268.958 118.499 269.332 118.424C269.716 118.339 270.1 118.275 270.484 118.232C270.814 118.168 271.129 118.125 271.428 118.104C271.726 118.072 271.988 118.024 272.212 117.96C272.446 117.896 272.628 117.8 272.756 117.672C272.894 117.533 272.964 117.331 272.964 117.064C272.964 116.829 272.905 116.637 272.788 116.488C272.681 116.339 272.542 116.227 272.372 116.152C272.212 116.067 272.03 116.013 271.828 115.992C271.625 115.96 271.433 115.944 271.252 115.944C270.74 115.944 270.318 116.051 269.988 116.264C269.657 116.477 269.47 116.808 269.428 117.256H267.604C267.636 116.723 267.764 116.28 267.988 115.928C268.212 115.576 268.494 115.293 268.836 115.08C269.188 114.867 269.582 114.717 270.02 114.632C270.457 114.547 270.905 114.504 271.364 114.504C271.769 114.504 272.169 114.547 272.564 114.632C272.958 114.717 273.31 114.856 273.62 115.048C273.94 115.24 274.196 115.491 274.388 115.8C274.58 116.099 274.676 116.467 274.676 116.904V121.16ZM272.852 118.856C272.574 119.037 272.233 119.149 271.828 119.192C271.422 119.224 271.017 119.277 270.612 119.352C270.42 119.384 270.233 119.432 270.052 119.496C269.87 119.549 269.71 119.629 269.572 119.736C269.433 119.832 269.321 119.965 269.236 120.136C269.161 120.296 269.124 120.493 269.124 120.728C269.124 120.931 269.182 121.101 269.3 121.24C269.417 121.379 269.556 121.491 269.716 121.576C269.886 121.651 270.068 121.704 270.26 121.736C270.462 121.768 270.644 121.784 270.804 121.784C271.006 121.784 271.225 121.757 271.46 121.704C271.694 121.651 271.913 121.56 272.116 121.432C272.329 121.304 272.505 121.144 272.644 120.952C272.782 120.749 272.852 120.504 272.852 120.216V118.856ZM276.838 114.728H278.55V116.328H278.582C278.635 116.104 278.737 115.885 278.886 115.672C279.046 115.459 279.233 115.267 279.446 115.096C279.67 114.915 279.915 114.771 280.182 114.664C280.449 114.557 280.721 114.504 280.998 114.504C281.211 114.504 281.355 114.509 281.43 114.52C281.515 114.531 281.601 114.541 281.686 114.552V116.312C281.558 116.291 281.425 116.275 281.286 116.264C281.158 116.243 281.03 116.232 280.902 116.232C280.593 116.232 280.299 116.296 280.022 116.424C279.755 116.541 279.521 116.723 279.318 116.968C279.115 117.203 278.955 117.496 278.838 117.848C278.721 118.2 278.662 118.605 278.662 119.064V123H276.838V114.728ZM288.062 118.136C288.041 117.848 287.977 117.571 287.87 117.304C287.774 117.037 287.635 116.808 287.454 116.616C287.283 116.413 287.07 116.253 286.814 116.136C286.569 116.008 286.291 115.944 285.982 115.944C285.662 115.944 285.369 116.003 285.102 116.12C284.846 116.227 284.622 116.381 284.43 116.584C284.249 116.776 284.099 117.005 283.982 117.272C283.875 117.539 283.817 117.827 283.806 118.136H288.062ZM283.806 119.336C283.806 119.656 283.849 119.965 283.934 120.264C284.03 120.563 284.169 120.824 284.35 121.048C284.531 121.272 284.761 121.453 285.038 121.592C285.315 121.72 285.646 121.784 286.03 121.784C286.563 121.784 286.99 121.672 287.31 121.448C287.641 121.213 287.886 120.867 288.046 120.408H289.774C289.678 120.856 289.513 121.256 289.278 121.608C289.043 121.96 288.761 122.259 288.43 122.504C288.099 122.739 287.726 122.915 287.31 123.032C286.905 123.16 286.478 123.224 286.03 123.224C285.379 123.224 284.803 123.117 284.302 122.904C283.801 122.691 283.374 122.392 283.022 122.008C282.681 121.624 282.419 121.165 282.238 120.632C282.067 120.099 281.982 119.512 281.982 118.872C281.982 118.285 282.073 117.731 282.254 117.208C282.446 116.675 282.713 116.211 283.054 115.816C283.406 115.411 283.827 115.091 284.318 114.856C284.809 114.621 285.363 114.504 285.982 114.504C286.633 114.504 287.214 114.643 287.726 114.92C288.249 115.187 288.681 115.544 289.022 115.992C289.363 116.44 289.609 116.957 289.758 117.544C289.918 118.12 289.961 118.717 289.886 119.336H283.806ZM296.126 114.728H297.854V115.944L297.886 115.976C298.163 115.517 298.526 115.16 298.974 114.904C299.422 114.637 299.918 114.504 300.462 114.504C301.368 114.504 302.083 114.739 302.606 115.208C303.128 115.677 303.39 116.381 303.39 117.32V123H301.566V117.8C301.544 117.149 301.406 116.68 301.15 116.392C300.894 116.093 300.494 115.944 299.95 115.944C299.64 115.944 299.363 116.003 299.118 116.12C298.872 116.227 298.664 116.381 298.494 116.584C298.323 116.776 298.19 117.005 298.094 117.272C297.998 117.539 297.95 117.821 297.95 118.12V123H296.126V114.728ZM309.305 123.224C308.644 123.224 308.052 123.117 307.529 122.904C307.017 122.68 306.58 122.376 306.217 121.992C305.865 121.608 305.593 121.149 305.401 120.616C305.22 120.083 305.129 119.496 305.129 118.856C305.129 118.227 305.22 117.645 305.401 117.112C305.593 116.579 305.865 116.12 306.217 115.736C306.58 115.352 307.017 115.053 307.529 114.84C308.052 114.616 308.644 114.504 309.305 114.504C309.966 114.504 310.553 114.616 311.065 114.84C311.588 115.053 312.025 115.352 312.377 115.736C312.74 116.12 313.012 116.579 313.193 117.112C313.385 117.645 313.481 118.227 313.481 118.856C313.481 119.496 313.385 120.083 313.193 120.616C313.012 121.149 312.74 121.608 312.377 121.992C312.025 122.376 311.588 122.68 311.065 122.904C310.553 123.117 309.966 123.224 309.305 123.224ZM309.305 121.784C309.71 121.784 310.062 121.699 310.361 121.528C310.66 121.357 310.905 121.133 311.097 120.856C311.289 120.579 311.428 120.269 311.513 119.928C311.609 119.576 311.657 119.219 311.657 118.856C311.657 118.504 311.609 118.152 311.513 117.8C311.428 117.448 311.289 117.139 311.097 116.872C310.905 116.595 310.66 116.371 310.361 116.2C310.062 116.029 309.71 115.944 309.305 115.944C308.9 115.944 308.548 116.029 308.249 116.2C307.95 116.371 307.705 116.595 307.513 116.872C307.321 117.139 307.177 117.448 307.081 117.8C306.996 118.152 306.953 118.504 306.953 118.856C306.953 119.219 306.996 119.576 307.081 119.928C307.177 120.269 307.321 120.579 307.513 120.856C307.705 121.133 307.95 121.357 308.249 121.528C308.548 121.699 308.9 121.784 309.305 121.784ZM314.446 114.728H316.382L317.998 120.904H318.03L319.582 114.728H321.422L322.91 120.904H322.942L324.622 114.728H326.478L323.886 123H322.014L320.478 116.856H320.446L318.926 123H317.006L314.446 114.728ZM340.296 123H338.568V121.88H338.536C338.29 122.36 337.933 122.707 337.464 122.92C336.994 123.123 336.498 123.224 335.976 123.224C335.325 123.224 334.754 123.112 334.264 122.888C333.784 122.653 333.384 122.339 333.064 121.944C332.744 121.549 332.504 121.085 332.344 120.552C332.184 120.008 332.104 119.427 332.104 118.808C332.104 118.061 332.205 117.416 332.408 116.872C332.61 116.328 332.877 115.88 333.208 115.528C333.549 115.176 333.933 114.92 334.36 114.76C334.797 114.589 335.24 114.504 335.688 114.504C335.944 114.504 336.205 114.531 336.472 114.584C336.738 114.627 336.994 114.701 337.24 114.808C337.485 114.915 337.709 115.053 337.912 115.224C338.125 115.384 338.301 115.576 338.44 115.8H338.472V111.576H340.296V123ZM333.928 118.952C333.928 119.304 333.97 119.651 334.056 119.992C334.152 120.333 334.29 120.637 334.472 120.904C334.664 121.171 334.904 121.384 335.192 121.544C335.48 121.704 335.821 121.784 336.216 121.784C336.621 121.784 336.968 121.699 337.256 121.528C337.554 121.357 337.794 121.133 337.976 120.856C338.168 120.579 338.306 120.269 338.392 119.928C338.488 119.576 338.536 119.219 338.536 118.856C338.536 117.939 338.328 117.224 337.912 116.712C337.506 116.2 336.952 115.944 336.248 115.944C335.821 115.944 335.458 116.035 335.16 116.216C334.872 116.387 334.632 116.616 334.44 116.904C334.258 117.181 334.125 117.501 334.04 117.864C333.965 118.216 333.928 118.579 333.928 118.952ZM342.533 111.576H344.357V113.304H342.533V111.576ZM342.533 114.728H344.357V123H342.533V114.728ZM347.92 120.344C347.974 120.877 348.176 121.251 348.528 121.464C348.88 121.677 349.302 121.784 349.792 121.784C349.963 121.784 350.155 121.773 350.368 121.752C350.592 121.72 350.8 121.667 350.992 121.592C351.184 121.517 351.339 121.411 351.456 121.272C351.584 121.123 351.643 120.931 351.632 120.696C351.622 120.461 351.536 120.269 351.376 120.12C351.216 119.971 351.008 119.853 350.752 119.768C350.507 119.672 350.224 119.592 349.904 119.528C349.584 119.464 349.259 119.395 348.928 119.32C348.587 119.245 348.256 119.155 347.936 119.048C347.627 118.941 347.344 118.797 347.088 118.616C346.843 118.435 346.646 118.205 346.496 117.928C346.347 117.64 346.272 117.288 346.272 116.872C346.272 116.424 346.379 116.051 346.592 115.752C346.816 115.443 347.094 115.197 347.424 115.016C347.766 114.824 348.139 114.691 348.544 114.616C348.96 114.541 349.355 114.504 349.728 114.504C350.155 114.504 350.56 114.552 350.944 114.648C351.339 114.733 351.691 114.877 352 115.08C352.32 115.283 352.582 115.549 352.784 115.88C352.998 116.2 353.131 116.589 353.184 117.048H351.28C351.195 116.611 350.992 116.317 350.672 116.168C350.363 116.019 350.006 115.944 349.6 115.944C349.472 115.944 349.318 115.955 349.136 115.976C348.966 115.997 348.8 116.04 348.64 116.104C348.491 116.157 348.363 116.243 348.256 116.36C348.15 116.467 348.096 116.611 348.096 116.792C348.096 117.016 348.171 117.197 348.32 117.336C348.48 117.475 348.683 117.592 348.928 117.688C349.184 117.773 349.472 117.848 349.792 117.912C350.112 117.976 350.443 118.045 350.784 118.12C351.115 118.195 351.44 118.285 351.76 118.392C352.08 118.499 352.363 118.643 352.608 118.824C352.864 119.005 353.067 119.235 353.216 119.512C353.376 119.789 353.456 120.131 353.456 120.536C353.456 121.027 353.344 121.443 353.12 121.784C352.896 122.125 352.603 122.403 352.24 122.616C351.888 122.829 351.494 122.984 351.056 123.08C350.619 123.176 350.187 123.224 349.76 123.224C349.238 123.224 348.752 123.165 348.304 123.048C347.867 122.931 347.483 122.755 347.152 122.52C346.832 122.275 346.576 121.976 346.384 121.624C346.203 121.261 346.107 120.835 346.096 120.344H347.92ZM355.089 114.728H356.817V115.848H356.849C357.105 115.368 357.463 115.027 357.921 114.824C358.38 114.611 358.876 114.504 359.409 114.504C360.06 114.504 360.625 114.621 361.105 114.856C361.596 115.08 362.001 115.395 362.321 115.8C362.641 116.195 362.881 116.659 363.041 117.192C363.201 117.725 363.281 118.296 363.281 118.904C363.281 119.459 363.207 119.997 363.057 120.52C362.919 121.043 362.7 121.507 362.401 121.912C362.113 122.307 361.745 122.627 361.297 122.872C360.849 123.107 360.321 123.224 359.713 123.224C359.447 123.224 359.18 123.197 358.913 123.144C358.647 123.101 358.391 123.027 358.145 122.92C357.9 122.813 357.671 122.68 357.457 122.52C357.255 122.349 357.084 122.152 356.945 121.928H356.913V126.056H355.089V114.728ZM361.457 118.872C361.457 118.499 361.409 118.136 361.313 117.784C361.217 117.432 361.073 117.123 360.881 116.856C360.689 116.579 360.449 116.36 360.161 116.2C359.873 116.029 359.543 115.944 359.169 115.944C358.401 115.944 357.82 116.211 357.425 116.744C357.041 117.277 356.849 117.987 356.849 118.872C356.849 119.288 356.897 119.677 356.993 120.04C357.1 120.392 357.255 120.696 357.457 120.952C357.66 121.208 357.9 121.411 358.177 121.56C358.465 121.709 358.796 121.784 359.169 121.784C359.585 121.784 359.937 121.699 360.225 121.528C360.513 121.357 360.748 121.139 360.929 120.872C361.121 120.595 361.255 120.285 361.329 119.944C361.415 119.592 361.457 119.235 361.457 118.872ZM365.071 111.576H366.895V123H365.071V111.576ZM376.01 121.16C376.01 121.384 376.037 121.544 376.09 121.64C376.154 121.736 376.271 121.784 376.442 121.784C376.495 121.784 376.559 121.784 376.634 121.784C376.709 121.784 376.794 121.773 376.89 121.752V123.016C376.826 123.037 376.741 123.059 376.634 123.08C376.538 123.112 376.437 123.139 376.33 123.16C376.223 123.181 376.117 123.197 376.01 123.208C375.903 123.219 375.813 123.224 375.738 123.224C375.365 123.224 375.055 123.149 374.81 123C374.565 122.851 374.405 122.589 374.33 122.216C373.967 122.568 373.519 122.824 372.986 122.984C372.463 123.144 371.957 123.224 371.466 123.224C371.093 123.224 370.735 123.171 370.394 123.064C370.053 122.968 369.749 122.824 369.482 122.632C369.226 122.429 369.018 122.179 368.858 121.88C368.709 121.571 368.634 121.213 368.634 120.808C368.634 120.296 368.725 119.88 368.906 119.56C369.098 119.24 369.343 118.989 369.642 118.808C369.951 118.627 370.293 118.499 370.666 118.424C371.05 118.339 371.434 118.275 371.818 118.232C372.149 118.168 372.463 118.125 372.762 118.104C373.061 118.072 373.322 118.024 373.546 117.96C373.781 117.896 373.962 117.8 374.09 117.672C374.229 117.533 374.298 117.331 374.298 117.064C374.298 116.829 374.239 116.637 374.122 116.488C374.015 116.339 373.877 116.227 373.706 116.152C373.546 116.067 373.365 116.013 373.162 115.992C372.959 115.96 372.767 115.944 372.586 115.944C372.074 115.944 371.653 116.051 371.322 116.264C370.991 116.477 370.805 116.808 370.762 117.256H368.938C368.97 116.723 369.098 116.28 369.322 115.928C369.546 115.576 369.829 115.293 370.17 115.08C370.522 114.867 370.917 114.717 371.354 114.632C371.791 114.547 372.239 114.504 372.698 114.504C373.103 114.504 373.503 114.547 373.898 114.632C374.293 114.717 374.645 114.856 374.954 115.048C375.274 115.24 375.53 115.491 375.722 115.8C375.914 116.099 376.01 116.467 376.01 116.904V121.16ZM374.186 118.856C373.909 119.037 373.567 119.149 373.162 119.192C372.757 119.224 372.351 119.277 371.946 119.352C371.754 119.384 371.567 119.432 371.386 119.496C371.205 119.549 371.045 119.629 370.906 119.736C370.767 119.832 370.655 119.965 370.57 120.136C370.495 120.296 370.458 120.493 370.458 120.728C370.458 120.931 370.517 121.101 370.634 121.24C370.751 121.379 370.89 121.491 371.05 121.576C371.221 121.651 371.402 121.704 371.594 121.736C371.797 121.768 371.978 121.784 372.138 121.784C372.341 121.784 372.559 121.757 372.794 121.704C373.029 121.651 373.247 121.56 373.45 121.432C373.663 121.304 373.839 121.144 373.978 120.952C374.117 120.749 374.186 120.504 374.186 120.216V118.856ZM377.26 114.728H379.26L381.42 120.904H381.452L383.548 114.728H385.452L382.236 123.448C382.087 123.821 381.938 124.179 381.788 124.52C381.65 124.861 381.474 125.16 381.26 125.416C381.058 125.683 380.802 125.891 380.492 126.04C380.183 126.2 379.788 126.28 379.308 126.28C378.882 126.28 378.46 126.248 378.044 126.184V124.648C378.194 124.669 378.338 124.691 378.476 124.712C378.615 124.744 378.759 124.76 378.908 124.76C379.122 124.76 379.298 124.733 379.436 124.68C379.575 124.627 379.687 124.547 379.772 124.44C379.868 124.344 379.948 124.227 380.012 124.088C380.076 123.949 380.135 123.789 380.188 123.608L380.396 122.968L377.26 114.728ZM392.349 118.136C392.328 117.848 392.264 117.571 392.157 117.304C392.061 117.037 391.923 116.808 391.741 116.616C391.571 116.413 391.357 116.253 391.101 116.136C390.856 116.008 390.579 115.944 390.269 115.944C389.949 115.944 389.656 116.003 389.389 116.12C389.133 116.227 388.909 116.381 388.717 116.584C388.536 116.776 388.387 117.005 388.269 117.272C388.163 117.539 388.104 117.827 388.093 118.136H392.349ZM388.093 119.336C388.093 119.656 388.136 119.965 388.221 120.264C388.317 120.563 388.456 120.824 388.637 121.048C388.819 121.272 389.048 121.453 389.325 121.592C389.603 121.72 389.933 121.784 390.317 121.784C390.851 121.784 391.277 121.672 391.597 121.448C391.928 121.213 392.173 120.867 392.333 120.408H394.061C393.965 120.856 393.8 121.256 393.565 121.608C393.331 121.96 393.048 122.259 392.717 122.504C392.387 122.739 392.013 122.915 391.597 123.032C391.192 123.16 390.765 123.224 390.317 123.224C389.667 123.224 389.091 123.117 388.589 122.904C388.088 122.691 387.661 122.392 387.309 122.008C386.968 121.624 386.707 121.165 386.525 120.632C386.355 120.099 386.269 119.512 386.269 118.872C386.269 118.285 386.36 117.731 386.541 117.208C386.733 116.675 387 116.211 387.341 115.816C387.693 115.411 388.115 115.091 388.605 114.856C389.096 114.621 389.651 114.504 390.269 114.504C390.92 114.504 391.501 114.643 392.013 114.92C392.536 115.187 392.968 115.544 393.309 115.992C393.651 116.44 393.896 116.957 394.045 117.544C394.205 118.12 394.248 118.717 394.173 119.336H388.093ZM403.552 123H401.824V121.88H401.792C401.547 122.36 401.189 122.707 400.72 122.92C400.251 123.123 399.755 123.224 399.232 123.224C398.581 123.224 398.011 123.112 397.52 122.888C397.04 122.653 396.64 122.339 396.32 121.944C396 121.549 395.76 121.085 395.6 120.552C395.44 120.008 395.36 119.427 395.36 118.808C395.36 118.061 395.461 117.416 395.664 116.872C395.867 116.328 396.133 115.88 396.464 115.528C396.805 115.176 397.189 114.92 397.616 114.76C398.053 114.589 398.496 114.504 398.944 114.504C399.2 114.504 399.461 114.531 399.728 114.584C399.995 114.627 400.251 114.701 400.496 114.808C400.741 114.915 400.965 115.053 401.168 115.224C401.381 115.384 401.557 115.576 401.696 115.8H401.728V111.576H403.552V123ZM397.184 118.952C397.184 119.304 397.227 119.651 397.312 119.992C397.408 120.333 397.547 120.637 397.728 120.904C397.92 121.171 398.16 121.384 398.448 121.544C398.736 121.704 399.077 121.784 399.472 121.784C399.877 121.784 400.224 121.699 400.512 121.528C400.811 121.357 401.051 121.133 401.232 120.856C401.424 120.579 401.563 120.269 401.648 119.928C401.744 119.576 401.792 119.219 401.792 118.856C401.792 117.939 401.584 117.224 401.168 116.712C400.763 116.2 400.208 115.944 399.504 115.944C399.077 115.944 398.715 116.035 398.416 116.216C398.128 116.387 397.888 116.616 397.696 116.904C397.515 117.181 397.381 117.501 397.296 117.864C397.221 118.216 397.184 118.579 397.184 118.952ZM410.442 111.576H412.266V115.8H412.298C412.426 115.597 412.581 115.416 412.762 115.256C412.944 115.096 413.141 114.963 413.354 114.856C413.578 114.739 413.808 114.653 414.042 114.6C414.288 114.536 414.528 114.504 414.762 114.504C415.413 114.504 415.978 114.621 416.458 114.856C416.949 115.08 417.354 115.395 417.674 115.8C417.994 116.195 418.234 116.659 418.394 117.192C418.554 117.725 418.634 118.296 418.634 118.904C418.634 119.459 418.56 119.997 418.41 120.52C418.272 121.043 418.053 121.507 417.754 121.912C417.466 122.307 417.098 122.627 416.65 122.872C416.202 123.107 415.674 123.224 415.066 123.224C414.789 123.224 414.506 123.203 414.218 123.16C413.941 123.128 413.674 123.059 413.418 122.952C413.162 122.845 412.928 122.707 412.714 122.536C412.512 122.365 412.341 122.141 412.202 121.864H412.17V123H410.442V111.576ZM416.81 118.872C416.81 118.499 416.762 118.136 416.666 117.784C416.57 117.432 416.426 117.123 416.234 116.856C416.042 116.579 415.802 116.36 415.514 116.2C415.226 116.029 414.896 115.944 414.522 115.944C413.754 115.944 413.173 116.211 412.778 116.744C412.394 117.277 412.202 117.987 412.202 118.872C412.202 119.288 412.25 119.677 412.346 120.04C412.453 120.392 412.608 120.696 412.81 120.952C413.013 121.208 413.253 121.411 413.53 121.56C413.818 121.709 414.149 121.784 414.522 121.784C414.938 121.784 415.29 121.699 415.578 121.528C415.866 121.357 416.101 121.139 416.282 120.872C416.474 120.595 416.608 120.285 416.682 119.944C416.768 119.592 416.81 119.235 416.81 118.872ZM426.056 118.136C426.034 117.848 425.97 117.571 425.864 117.304C425.768 117.037 425.629 116.808 425.448 116.616C425.277 116.413 425.064 116.253 424.808 116.136C424.562 116.008 424.285 115.944 423.976 115.944C423.656 115.944 423.362 116.003 423.096 116.12C422.84 116.227 422.616 116.381 422.424 116.584C422.242 116.776 422.093 117.005 421.976 117.272C421.869 117.539 421.81 117.827 421.8 118.136H426.056ZM421.8 119.336C421.8 119.656 421.842 119.965 421.928 120.264C422.024 120.563 422.162 120.824 422.344 121.048C422.525 121.272 422.754 121.453 423.032 121.592C423.309 121.72 423.64 121.784 424.024 121.784C424.557 121.784 424.984 121.672 425.304 121.448C425.634 121.213 425.88 120.867 426.04 120.408H427.768C427.672 120.856 427.506 121.256 427.272 121.608C427.037 121.96 426.754 122.259 426.424 122.504C426.093 122.739 425.72 122.915 425.304 123.032C424.898 123.16 424.472 123.224 424.024 123.224C423.373 123.224 422.797 123.117 422.296 122.904C421.794 122.691 421.368 122.392 421.016 122.008C420.674 121.624 420.413 121.165 420.232 120.632C420.061 120.099 419.976 119.512 419.976 118.872C419.976 118.285 420.066 117.731 420.248 117.208C420.44 116.675 420.706 116.211 421.048 115.816C421.4 115.411 421.821 115.091 422.312 114.856C422.802 114.621 423.357 114.504 423.976 114.504C424.626 114.504 425.208 114.643 425.72 114.92C426.242 115.187 426.674 115.544 427.016 115.992C427.357 116.44 427.602 116.957 427.752 117.544C427.912 118.12 427.954 118.717 427.88 119.336H421.8ZM429.514 111.576H431.338V123H429.514V111.576ZM437.318 123.224C436.656 123.224 436.064 123.117 435.542 122.904C435.03 122.68 434.592 122.376 434.23 121.992C433.878 121.608 433.606 121.149 433.414 120.616C433.232 120.083 433.142 119.496 433.142 118.856C433.142 118.227 433.232 117.645 433.414 117.112C433.606 116.579 433.878 116.12 434.23 115.736C434.592 115.352 435.03 115.053 435.542 114.84C436.064 114.616 436.656 114.504 437.318 114.504C437.979 114.504 438.566 114.616 439.078 114.84C439.6 115.053 440.038 115.352 440.39 115.736C440.752 116.12 441.024 116.579 441.206 117.112C441.398 117.645 441.494 118.227 441.494 118.856C441.494 119.496 441.398 120.083 441.206 120.616C441.024 121.149 440.752 121.608 440.39 121.992C440.038 122.376 439.6 122.68 439.078 122.904C438.566 123.117 437.979 123.224 437.318 123.224ZM437.318 121.784C437.723 121.784 438.075 121.699 438.374 121.528C438.672 121.357 438.918 121.133 439.11 120.856C439.302 120.579 439.44 120.269 439.526 119.928C439.622 119.576 439.67 119.219 439.67 118.856C439.67 118.504 439.622 118.152 439.526 117.8C439.44 117.448 439.302 117.139 439.11 116.872C438.918 116.595 438.672 116.371 438.374 116.2C438.075 116.029 437.723 115.944 437.318 115.944C436.912 115.944 436.56 116.029 436.262 116.2C435.963 116.371 435.718 116.595 435.526 116.872C435.334 117.139 435.19 117.448 435.094 117.8C435.008 118.152 434.966 118.504 434.966 118.856C434.966 119.219 435.008 119.576 435.094 119.928C435.19 120.269 435.334 120.579 435.526 120.856C435.718 121.133 435.963 121.357 436.262 121.528C436.56 121.699 436.912 121.784 437.318 121.784ZM442.458 114.728H444.394L446.01 120.904H446.042L447.594 114.728H449.434L450.922 120.904H450.954L452.634 114.728H454.49L451.898 123H450.026L448.49 116.856H448.458L446.938 123H445.018L442.458 114.728ZM455.132 120.84H457.356V123H455.132V120.84Z" fill="black"/>
<path fill-rule="evenodd" clip-rule="evenodd" d="M113.793 191.304C113.352 190.809 112.726 190.518 112.063 190.501C111.4 190.484 110.759 190.742 110.293 191.213L110.291 191.215C110.264 191.243 110.237 191.271 110.211 191.3L104.2 197.7V209.1C104.2 210.425 105.275 211.5 106.6 211.5H117.4C118.726 211.5 119.8 210.425 119.8 209.1V197.7L113.793 191.304ZM112 193.2C112.829 193.2 113.5 193.872 113.5 194.7C113.5 195.528 112.829 196.2 112 196.2C111.172 196.2 110.5 195.528 110.5 194.7C110.5 193.872 111.172 193.2 112 193.2ZM117.4 200.873C117.403 200.499 117.182 200.159 116.839 200.01C116.497 199.86 116.098 199.93 115.826 200.187L110.293 205.577L108.47 203.545C108.1 203.225 107.545 203.247 107.2 203.594L106.826 203.971C106.489 204.311 106.46 204.849 106.757 205.224L109.75 208.987C109.926 209.21 110.195 209.34 110.48 209.34C110.764 209.34 111.033 209.21 111.21 208.987L117.195 201.46C117.328 201.294 117.401 201.086 117.4 200.873Z" fill="black"/>
<path d="M147.184 207H145.904L145.6 205.656C145.067 206.264 144.533 206.685 144 206.92C143.467 207.155 142.853 207.272 142.16 207.272C141.307 207.272 140.539 207.117 139.856 206.808C139.184 206.488 138.613 206.056 138.144 205.512C137.675 204.968 137.312 204.333 137.056 203.608C136.811 202.883 136.688 202.109 136.688 201.288C136.688 200.477 136.811 199.709 137.056 198.984C137.312 198.259 137.675 197.624 138.144 197.08C138.613 196.536 139.184 196.104 139.856 195.784C140.539 195.464 141.307 195.304 142.16 195.304C142.779 195.304 143.365 195.389 143.92 195.56C144.485 195.72 144.987 195.965 145.424 196.296C145.861 196.616 146.224 197.021 146.512 197.512C146.8 198.003 146.981 198.568 147.056 199.208H145.104C145.051 198.835 144.933 198.509 144.752 198.232C144.581 197.944 144.363 197.704 144.096 197.512C143.829 197.32 143.531 197.176 143.2 197.08C142.869 196.984 142.523 196.936 142.16 196.936C141.552 196.936 141.024 197.059 140.576 197.304C140.139 197.549 139.781 197.88 139.504 198.296C139.227 198.701 139.019 199.165 138.88 199.688C138.752 200.211 138.688 200.744 138.688 201.288C138.688 201.832 138.752 202.365 138.88 202.888C139.019 203.411 139.227 203.88 139.504 204.296C139.781 204.701 140.139 205.027 140.576 205.272C141.024 205.517 141.552 205.64 142.16 205.64C142.672 205.651 143.125 205.587 143.52 205.448C143.915 205.299 144.245 205.091 144.512 204.824C144.789 204.547 144.997 204.211 145.136 203.816C145.275 203.421 145.349 202.984 145.36 202.504H142.32V200.984H147.184V207ZM154.981 202.136C154.959 201.848 154.895 201.571 154.789 201.304C154.693 201.037 154.554 200.808 154.373 200.616C154.202 200.413 153.989 200.253 153.733 200.136C153.487 200.008 153.21 199.944 152.901 199.944C152.581 199.944 152.287 200.003 152.021 200.12C151.765 200.227 151.541 200.381 151.349 200.584C151.167 200.776 151.018 201.005 150.901 201.272C150.794 201.539 150.735 201.827 150.725 202.136H154.981ZM150.725 203.336C150.725 203.656 150.767 203.965 150.853 204.264C150.949 204.563 151.087 204.824 151.269 205.048C151.45 205.272 151.679 205.453 151.957 205.592C152.234 205.72 152.565 205.784 152.949 205.784C153.482 205.784 153.909 205.672 154.229 205.448C154.559 205.213 154.805 204.867 154.965 204.408H156.693C156.597 204.856 156.431 205.256 156.197 205.608C155.962 205.96 155.679 206.259 155.349 206.504C155.018 206.739 154.645 206.915 154.229 207.032C153.823 207.16 153.397 207.224 152.949 207.224C152.298 207.224 151.722 207.117 151.221 206.904C150.719 206.691 150.293 206.392 149.941 206.008C149.599 205.624 149.338 205.165 149.157 204.632C148.986 204.099 148.901 203.512 148.901 202.872C148.901 202.285 148.991 201.731 149.173 201.208C149.365 200.675 149.631 200.211 149.973 199.816C150.325 199.411 150.746 199.091 151.237 198.856C151.727 198.621 152.282 198.504 152.901 198.504C153.551 198.504 154.133 198.643 154.645 198.92C155.167 199.187 155.599 199.544 155.941 199.992C156.282 200.44 156.527 200.957 156.677 201.544C156.837 202.12 156.879 202.717 156.805 203.336H150.725ZM157.559 198.728H158.935V196.248H160.759V198.728H162.407V200.088H160.759V204.504C160.759 204.696 160.765 204.861 160.775 205C160.797 205.139 160.834 205.256 160.887 205.352C160.951 205.448 161.042 205.523 161.159 205.576C161.277 205.619 161.437 205.64 161.639 205.64C161.767 205.64 161.895 205.64 162.023 205.64C162.151 205.629 162.279 205.608 162.407 205.576V206.984C162.205 207.005 162.007 207.027 161.815 207.048C161.623 207.069 161.426 207.08 161.223 207.08C160.743 207.08 160.354 207.037 160.055 206.952C159.767 206.856 159.538 206.723 159.367 206.552C159.207 206.371 159.095 206.147 159.031 205.88C158.978 205.613 158.946 205.309 158.935 204.968V200.088H157.559V198.728ZM168.46 197.656C168.844 197.656 169.218 197.624 169.58 197.56C169.943 197.496 170.268 197.389 170.556 197.24C170.855 197.091 171.106 196.899 171.308 196.664C171.522 196.429 171.66 196.141 171.724 195.8H173.212V207H171.212V199.096H168.46V197.656ZM181.151 195.576C181.951 195.576 182.602 195.763 183.103 196.136C183.615 196.499 184.01 196.968 184.287 197.544C184.575 198.109 184.767 198.733 184.863 199.416C184.97 200.099 185.023 200.76 185.023 201.4C185.023 202.04 184.97 202.701 184.863 203.384C184.767 204.067 184.575 204.696 184.287 205.272C184.01 205.837 183.615 206.307 183.103 206.68C182.602 207.043 181.951 207.224 181.151 207.224C180.351 207.224 179.695 207.043 179.183 206.68C178.682 206.307 178.287 205.837 177.999 205.272C177.722 204.696 177.53 204.067 177.423 203.384C177.327 202.701 177.279 202.04 177.279 201.4C177.279 200.76 177.327 200.099 177.423 199.416C177.53 198.733 177.722 198.109 177.999 197.544C178.287 196.968 178.682 196.499 179.183 196.136C179.695 195.763 180.351 195.576 181.151 195.576ZM181.151 205.704C181.546 205.704 181.876 205.592 182.143 205.368C182.41 205.133 182.618 204.824 182.767 204.44C182.927 204.045 183.039 203.587 183.103 203.064C183.167 202.541 183.199 201.987 183.199 201.4C183.199 200.813 183.167 200.264 183.103 199.752C183.039 199.229 182.927 198.771 182.767 198.376C182.618 197.981 182.41 197.672 182.143 197.448C181.876 197.213 181.546 197.096 181.151 197.096C180.746 197.096 180.41 197.213 180.143 197.448C179.887 197.672 179.679 197.981 179.519 198.376C179.37 198.771 179.263 199.229 179.199 199.752C179.135 200.264 179.103 200.813 179.103 201.4C179.103 201.987 179.135 202.541 179.199 203.064C179.263 203.587 179.37 204.045 179.519 204.44C179.679 204.824 179.887 205.133 180.143 205.368C180.41 205.592 180.746 205.704 181.151 205.704ZM201.631 207H200.351L200.047 205.656C199.514 206.264 198.98 206.685 198.447 206.92C197.914 207.155 197.3 207.272 196.607 207.272C195.754 207.272 194.986 207.117 194.303 206.808C193.631 206.488 193.06 206.056 192.591 205.512C192.122 204.968 191.759 204.333 191.503 203.608C191.258 202.883 191.135 202.109 191.135 201.288C191.135 200.477 191.258 199.709 191.503 198.984C191.759 198.259 192.122 197.624 192.591 197.08C193.06 196.536 193.631 196.104 194.303 195.784C194.986 195.464 195.754 195.304 196.607 195.304C197.226 195.304 197.812 195.389 198.367 195.56C198.932 195.72 199.434 195.965 199.871 196.296C200.308 196.616 200.671 197.021 200.959 197.512C201.247 198.003 201.428 198.568 201.503 199.208H199.551C199.498 198.835 199.38 198.509 199.199 198.232C199.028 197.944 198.81 197.704 198.543 197.512C198.276 197.32 197.978 197.176 197.647 197.08C197.316 196.984 196.97 196.936 196.607 196.936C195.999 196.936 195.471 197.059 195.023 197.304C194.586 197.549 194.228 197.88 193.951 198.296C193.674 198.701 193.466 199.165 193.327 199.688C193.199 200.211 193.135 200.744 193.135 201.288C193.135 201.832 193.199 202.365 193.327 202.888C193.466 203.411 193.674 203.88 193.951 204.296C194.228 204.701 194.586 205.027 195.023 205.272C195.471 205.517 195.999 205.64 196.607 205.64C197.119 205.651 197.572 205.587 197.967 205.448C198.362 205.299 198.692 205.091 198.959 204.824C199.236 204.547 199.444 204.211 199.583 203.816C199.722 203.421 199.796 202.984 199.807 202.504H196.767V200.984H201.631V207ZM206.003 200.36H209.267C209.747 200.36 210.147 200.227 210.467 199.96C210.787 199.683 210.947 199.288 210.947 198.776C210.947 198.2 210.803 197.795 210.515 197.56C210.227 197.325 209.811 197.208 209.267 197.208H206.003V200.36ZM204.003 195.576H209.555C210.579 195.576 211.401 195.811 212.019 196.28C212.638 196.749 212.947 197.459 212.947 198.408C212.947 198.984 212.803 199.48 212.515 199.896C212.238 200.301 211.838 200.616 211.315 200.84V200.872C212.019 201.021 212.553 201.357 212.915 201.88C213.278 202.392 213.459 203.037 213.459 203.816C213.459 204.264 213.379 204.685 213.219 205.08C213.059 205.464 212.809 205.8 212.467 206.088C212.126 206.365 211.689 206.589 211.155 206.76C210.622 206.92 209.987 207 209.251 207H204.003V195.576ZM206.003 205.368H209.539C210.147 205.368 210.617 205.213 210.947 204.904C211.289 204.584 211.459 204.136 211.459 203.56C211.459 202.995 211.289 202.563 210.947 202.264C210.617 201.955 210.147 201.8 209.539 201.8H206.003V205.368ZM225.546 202.136C225.525 201.848 225.461 201.571 225.354 201.304C225.258 201.037 225.12 200.808 224.938 200.616C224.768 200.413 224.554 200.253 224.298 200.136C224.053 200.008 223.776 199.944 223.466 199.944C223.146 199.944 222.853 200.003 222.586 200.12C222.33 200.227 222.106 200.381 221.914 200.584C221.733 200.776 221.584 201.005 221.466 201.272C221.36 201.539 221.301 201.827 221.29 202.136H225.546ZM221.29 203.336C221.29 203.656 221.333 203.965 221.418 204.264C221.514 204.563 221.653 204.824 221.834 205.048C222.016 205.272 222.245 205.453 222.522 205.592C222.8 205.72 223.13 205.784 223.514 205.784C224.048 205.784 224.474 205.672 224.794 205.448C225.125 205.213 225.37 204.867 225.53 204.408H227.258C227.162 204.856 226.997 205.256 226.762 205.608C226.528 205.96 226.245 206.259 225.914 206.504C225.584 206.739 225.21 206.915 224.794 207.032C224.389 207.16 223.962 207.224 223.514 207.224C222.864 207.224 222.288 207.117 221.786 206.904C221.285 206.691 220.858 206.392 220.506 206.008C220.165 205.624 219.904 205.165 219.722 204.632C219.552 204.099 219.466 203.512 219.466 202.872C219.466 202.285 219.557 201.731 219.738 201.208C219.93 200.675 220.197 200.211 220.538 199.816C220.89 199.411 221.312 199.091 221.802 198.856C222.293 198.621 222.848 198.504 223.466 198.504C224.117 198.504 224.698 198.643 225.21 198.92C225.733 199.187 226.165 199.544 226.506 199.992C226.848 200.44 227.093 200.957 227.242 201.544C227.402 202.12 227.445 202.717 227.37 203.336H221.29ZM231.181 202.648L228.317 198.728H230.525L232.253 201.272L234.061 198.728H236.173L233.357 202.552L236.525 207H234.333L232.237 203.944L230.205 207H228.061L231.181 202.648ZM236.919 198.728H238.295V196.248H240.119V198.728H241.767V200.088H240.119V204.504C240.119 204.696 240.124 204.861 240.135 205C240.156 205.139 240.193 205.256 240.247 205.352C240.311 205.448 240.401 205.523 240.519 205.576C240.636 205.619 240.796 205.64 240.999 205.64C241.127 205.64 241.255 205.64 241.383 205.64C241.511 205.629 241.639 205.608 241.767 205.576V206.984C241.564 207.005 241.367 207.027 241.175 207.048C240.983 207.069 240.785 207.08 240.583 207.08C240.103 207.08 239.713 207.037 239.415 206.952C239.127 206.856 238.897 206.723 238.727 206.552C238.567 206.371 238.455 206.147 238.391 205.88C238.337 205.613 238.305 205.309 238.295 204.968V200.088H236.919V198.728ZM243.279 198.728H244.991V200.328H245.023C245.076 200.104 245.177 199.885 245.327 199.672C245.487 199.459 245.673 199.267 245.887 199.096C246.111 198.915 246.356 198.771 246.623 198.664C246.889 198.557 247.161 198.504 247.439 198.504C247.652 198.504 247.796 198.509 247.871 198.52C247.956 198.531 248.041 198.541 248.127 198.552V200.312C247.999 200.291 247.865 200.275 247.727 200.264C247.599 200.243 247.471 200.232 247.343 200.232C247.033 200.232 246.74 200.296 246.463 200.424C246.196 200.541 245.961 200.723 245.759 200.968C245.556 201.203 245.396 201.496 245.279 201.848C245.161 202.2 245.103 202.605 245.103 203.064V207H243.279V198.728ZM256.032 205.16C256.032 205.384 256.058 205.544 256.112 205.64C256.176 205.736 256.293 205.784 256.464 205.784C256.517 205.784 256.581 205.784 256.656 205.784C256.73 205.784 256.816 205.773 256.912 205.752V207.016C256.848 207.037 256.762 207.059 256.656 207.08C256.56 207.112 256.458 207.139 256.352 207.16C256.245 207.181 256.138 207.197 256.032 207.208C255.925 207.219 255.834 207.224 255.76 207.224C255.386 207.224 255.077 207.149 254.832 207C254.586 206.851 254.426 206.589 254.352 206.216C253.989 206.568 253.541 206.824 253.008 206.984C252.485 207.144 251.978 207.224 251.488 207.224C251.114 207.224 250.757 207.171 250.416 207.064C250.074 206.968 249.77 206.824 249.504 206.632C249.248 206.429 249.04 206.179 248.88 205.88C248.73 205.571 248.656 205.213 248.656 204.808C248.656 204.296 248.746 203.88 248.928 203.56C249.12 203.24 249.365 202.989 249.664 202.808C249.973 202.627 250.314 202.499 250.688 202.424C251.072 202.339 251.456 202.275 251.84 202.232C252.17 202.168 252.485 202.125 252.784 202.104C253.082 202.072 253.344 202.024 253.568 201.96C253.802 201.896 253.984 201.8 254.112 201.672C254.25 201.533 254.32 201.331 254.32 201.064C254.32 200.829 254.261 200.637 254.144 200.488C254.037 200.339 253.898 200.227 253.728 200.152C253.568 200.067 253.386 200.013 253.184 199.992C252.981 199.96 252.789 199.944 252.608 199.944C252.096 199.944 251.674 200.051 251.344 200.264C251.013 200.477 250.826 200.808 250.784 201.256H248.96C248.992 200.723 249.12 200.28 249.344 199.928C249.568 199.576 249.85 199.293 250.192 199.08C250.544 198.867 250.938 198.717 251.376 198.632C251.813 198.547 252.261 198.504 252.72 198.504C253.125 198.504 253.525 198.547 253.92 198.632C254.314 198.717 254.666 198.856 254.976 199.048C255.296 199.24 255.552 199.491 255.744 199.8C255.936 200.099 256.032 200.467 256.032 200.904V205.16ZM254.208 202.856C253.93 203.037 253.589 203.149 253.184 203.192C252.778 203.224 252.373 203.277 251.968 203.352C251.776 203.384 251.589 203.432 251.408 203.496C251.226 203.549 251.066 203.629 250.928 203.736C250.789 203.832 250.677 203.965 250.592 204.136C250.517 204.296 250.48 204.493 250.48 204.728C250.48 204.931 250.538 205.101 250.656 205.24C250.773 205.379 250.912 205.491 251.072 205.576C251.242 205.651 251.424 205.704 251.616 205.736C251.818 205.768 252 205.784 252.16 205.784C252.362 205.784 252.581 205.757 252.816 205.704C253.05 205.651 253.269 205.56 253.472 205.432C253.685 205.304 253.861 205.144 254 204.952C254.138 204.749 254.208 204.504 254.208 204.216V202.856ZM270.639 207H268.911V205.88H268.879C268.634 206.36 268.277 206.707 267.807 206.92C267.338 207.123 266.842 207.224 266.319 207.224C265.669 207.224 265.098 207.112 264.607 206.888C264.127 206.653 263.727 206.339 263.407 205.944C263.087 205.549 262.847 205.085 262.687 204.552C262.527 204.008 262.447 203.427 262.447 202.808C262.447 202.061 262.549 201.416 262.751 200.872C262.954 200.328 263.221 199.88 263.551 199.528C263.893 199.176 264.277 198.92 264.703 198.76C265.141 198.589 265.583 198.504 266.031 198.504C266.287 198.504 266.549 198.531 266.815 198.584C267.082 198.627 267.338 198.701 267.583 198.808C267.829 198.915 268.053 199.053 268.255 199.224C268.469 199.384 268.645 199.576 268.783 199.8H268.815V195.576H270.639V207ZM264.271 202.952C264.271 203.304 264.314 203.651 264.399 203.992C264.495 204.333 264.634 204.637 264.815 204.904C265.007 205.171 265.247 205.384 265.535 205.544C265.823 205.704 266.165 205.784 266.559 205.784C266.965 205.784 267.311 205.699 267.599 205.528C267.898 205.357 268.138 205.133 268.319 204.856C268.511 204.579 268.65 204.269 268.735 203.928C268.831 203.576 268.879 203.219 268.879 202.856C268.879 201.939 268.671 201.224 268.255 200.712C267.85 200.2 267.295 199.944 266.591 199.944C266.165 199.944 265.802 200.035 265.503 200.216C265.215 200.387 264.975 200.616 264.783 200.904C264.602 201.181 264.469 201.501 264.383 201.864C264.309 202.216 264.271 202.579 264.271 202.952ZM279.757 205.16C279.757 205.384 279.783 205.544 279.837 205.64C279.901 205.736 280.018 205.784 280.189 205.784C280.242 205.784 280.306 205.784 280.381 205.784C280.455 205.784 280.541 205.773 280.637 205.752V207.016C280.573 207.037 280.487 207.059 280.381 207.08C280.285 207.112 280.183 207.139 280.077 207.16C279.97 207.181 279.863 207.197 279.757 207.208C279.65 207.219 279.559 207.224 279.485 207.224C279.111 207.224 278.802 207.149 278.557 207C278.311 206.851 278.151 206.589 278.077 206.216C277.714 206.568 277.266 206.824 276.733 206.984C276.21 207.144 275.703 207.224 275.213 207.224C274.839 207.224 274.482 207.171 274.141 207.064C273.799 206.968 273.495 206.824 273.229 206.632C272.973 206.429 272.765 206.179 272.605 205.88C272.455 205.571 272.381 205.213 272.381 204.808C272.381 204.296 272.471 203.88 272.653 203.56C272.845 203.24 273.09 202.989 273.389 202.808C273.698 202.627 274.039 202.499 274.413 202.424C274.797 202.339 275.181 202.275 275.565 202.232C275.895 202.168 276.21 202.125 276.509 202.104C276.807 202.072 277.069 202.024 277.293 201.96C277.527 201.896 277.709 201.8 277.837 201.672C277.975 201.533 278.045 201.331 278.045 201.064C278.045 200.829 277.986 200.637 277.869 200.488C277.762 200.339 277.623 200.227 277.453 200.152C277.293 200.067 277.111 200.013 276.909 199.992C276.706 199.96 276.514 199.944 276.333 199.944C275.821 199.944 275.399 200.051 275.069 200.264C274.738 200.477 274.551 200.808 274.509 201.256H272.685C272.717 200.723 272.845 200.28 273.069 199.928C273.293 199.576 273.575 199.293 273.917 199.08C274.269 198.867 274.663 198.717 275.101 198.632C275.538 198.547 275.986 198.504 276.445 198.504C276.85 198.504 277.25 198.547 277.645 198.632C278.039 198.717 278.391 198.856 278.701 199.048C279.021 199.24 279.277 199.491 279.469 199.8C279.661 200.099 279.757 200.467 279.757 200.904V205.16ZM277.933 202.856C277.655 203.037 277.314 203.149 276.909 203.192C276.503 203.224 276.098 203.277 275.693 203.352C275.501 203.384 275.314 203.432 275.133 203.496C274.951 203.549 274.791 203.629 274.653 203.736C274.514 203.832 274.402 203.965 274.317 204.136C274.242 204.296 274.205 204.493 274.205 204.728C274.205 204.931 274.263 205.101 274.381 205.24C274.498 205.379 274.637 205.491 274.797 205.576C274.967 205.651 275.149 205.704 275.341 205.736C275.543 205.768 275.725 205.784 275.885 205.784C276.087 205.784 276.306 205.757 276.541 205.704C276.775 205.651 276.994 205.56 277.197 205.432C277.41 205.304 277.586 205.144 277.725 204.952C277.863 204.749 277.933 204.504 277.933 204.216V202.856ZM281.087 198.728H282.463V196.248H284.287V198.728H285.935V200.088H284.287V204.504C284.287 204.696 284.293 204.861 284.303 205C284.325 205.139 284.362 205.256 284.415 205.352C284.479 205.448 284.57 205.523 284.687 205.576C284.805 205.619 284.965 205.64 285.167 205.64C285.295 205.64 285.423 205.64 285.551 205.64C285.679 205.629 285.807 205.608 285.935 205.576V206.984C285.733 207.005 285.535 207.027 285.343 207.048C285.151 207.069 284.954 207.08 284.751 207.08C284.271 207.08 283.882 207.037 283.583 206.952C283.295 206.856 283.066 206.723 282.895 206.552C282.735 206.371 282.623 206.147 282.559 205.88C282.506 205.613 282.474 205.309 282.463 204.968V200.088H281.087V198.728ZM294.376 205.16C294.376 205.384 294.402 205.544 294.456 205.64C294.52 205.736 294.637 205.784 294.808 205.784C294.861 205.784 294.925 205.784 295 205.784C295.074 205.784 295.16 205.773 295.256 205.752V207.016C295.192 207.037 295.106 207.059 295 207.08C294.904 207.112 294.802 207.139 294.696 207.16C294.589 207.181 294.482 207.197 294.376 207.208C294.269 207.219 294.178 207.224 294.104 207.224C293.73 207.224 293.421 207.149 293.176 207C292.93 206.851 292.77 206.589 292.696 206.216C292.333 206.568 291.885 206.824 291.352 206.984C290.829 207.144 290.322 207.224 289.832 207.224C289.458 207.224 289.101 207.171 288.76 207.064C288.418 206.968 288.114 206.824 287.848 206.632C287.592 206.429 287.384 206.179 287.224 205.88C287.074 205.571 287 205.213 287 204.808C287 204.296 287.09 203.88 287.272 203.56C287.464 203.24 287.709 202.989 288.008 202.808C288.317 202.627 288.658 202.499 289.032 202.424C289.416 202.339 289.8 202.275 290.184 202.232C290.514 202.168 290.829 202.125 291.128 202.104C291.426 202.072 291.688 202.024 291.912 201.96C292.146 201.896 292.328 201.8 292.456 201.672C292.594 201.533 292.664 201.331 292.664 201.064C292.664 200.829 292.605 200.637 292.488 200.488C292.381 200.339 292.242 200.227 292.072 200.152C291.912 200.067 291.73 200.013 291.528 199.992C291.325 199.96 291.133 199.944 290.952 199.944C290.44 199.944 290.018 200.051 289.688 200.264C289.357 200.477 289.17 200.808 289.128 201.256H287.304C287.336 200.723 287.464 200.28 287.688 199.928C287.912 199.576 288.194 199.293 288.536 199.08C288.888 198.867 289.282 198.717 289.72 198.632C290.157 198.547 290.605 198.504 291.064 198.504C291.469 198.504 291.869 198.547 292.264 198.632C292.658 198.717 293.01 198.856 293.32 199.048C293.64 199.24 293.896 199.491 294.088 199.8C294.28 200.099 294.376 200.467 294.376 200.904V205.16ZM292.552 202.856C292.274 203.037 291.933 203.149 291.528 203.192C291.122 203.224 290.717 203.277 290.312 203.352C290.12 203.384 289.933 203.432 289.752 203.496C289.57 203.549 289.41 203.629 289.272 203.736C289.133 203.832 289.021 203.965 288.936 204.136C288.861 204.296 288.824 204.493 288.824 204.728C288.824 204.931 288.882 205.101 289 205.24C289.117 205.379 289.256 205.491 289.416 205.576C289.586 205.651 289.768 205.704 289.96 205.736C290.162 205.768 290.344 205.784 290.504 205.784C290.706 205.784 290.925 205.757 291.16 205.704C291.394 205.651 291.613 205.56 291.816 205.432C292.029 205.304 292.205 205.144 292.344 204.952C292.482 204.749 292.552 204.504 292.552 204.216V202.856ZM300.439 198.728H302.375L303.991 204.904H304.023L305.575 198.728H307.415L308.903 204.904H308.935L310.615 198.728H312.471L309.879 207H308.007L306.471 200.856H306.439L304.919 207H302.999L300.439 198.728ZM313.844 195.576H315.668V199.816H315.7C315.924 199.443 316.255 199.133 316.692 198.888C317.14 198.632 317.636 198.504 318.18 198.504C319.087 198.504 319.802 198.739 320.324 199.208C320.847 199.677 321.108 200.381 321.108 201.32V207H319.284V201.8C319.263 201.149 319.124 200.68 318.868 200.392C318.612 200.093 318.212 199.944 317.668 199.944C317.359 199.944 317.082 200.003 316.836 200.12C316.591 200.227 316.383 200.381 316.212 200.584C316.042 200.776 315.908 201.005 315.812 201.272C315.716 201.539 315.668 201.821 315.668 202.12V207H313.844V195.576ZM328.912 202.136C328.891 201.848 328.827 201.571 328.72 201.304C328.624 201.037 328.485 200.808 328.304 200.616C328.133 200.413 327.92 200.253 327.664 200.136C327.419 200.008 327.141 199.944 326.832 199.944C326.512 199.944 326.219 200.003 325.952 200.12C325.696 200.227 325.472 200.381 325.28 200.584C325.099 200.776 324.949 201.005 324.832 201.272C324.725 201.539 324.667 201.827 324.656 202.136H328.912ZM324.656 203.336C324.656 203.656 324.699 203.965 324.784 204.264C324.88 204.563 325.019 204.824 325.2 205.048C325.381 205.272 325.611 205.453 325.888 205.592C326.165 205.72 326.496 205.784 326.88 205.784C327.413 205.784 327.84 205.672 328.16 205.448C328.491 205.213 328.736 204.867 328.896 204.408H330.624C330.528 204.856 330.363 205.256 330.128 205.608C329.893 205.96 329.611 206.259 329.28 206.504C328.949 206.739 328.576 206.915 328.16 207.032C327.755 207.16 327.328 207.224 326.88 207.224C326.229 207.224 325.653 207.117 325.152 206.904C324.651 206.691 324.224 206.392 323.872 206.008C323.531 205.624 323.269 205.165 323.088 204.632C322.917 204.099 322.832 203.512 322.832 202.872C322.832 202.285 322.923 201.731 323.104 201.208C323.296 200.675 323.563 200.211 323.904 199.816C324.256 199.411 324.677 199.091 325.168 198.856C325.659 198.621 326.213 198.504 326.832 198.504C327.483 198.504 328.064 198.643 328.576 198.92C329.099 199.187 329.531 199.544 329.872 199.992C330.213 200.44 330.459 200.957 330.608 201.544C330.768 202.12 330.811 202.717 330.736 203.336H324.656ZM332.323 198.728H334.051V199.944L334.083 199.976C334.36 199.517 334.723 199.16 335.171 198.904C335.619 198.637 336.115 198.504 336.659 198.504C337.565 198.504 338.28 198.739 338.803 199.208C339.325 199.677 339.587 200.381 339.587 201.32V207H337.763V201.8C337.741 201.149 337.603 200.68 337.347 200.392C337.091 200.093 336.691 199.944 336.147 199.944C335.837 199.944 335.56 200.003 335.315 200.12C335.069 200.227 334.861 200.381 334.691 200.584C334.52 200.776 334.387 201.005 334.291 201.272C334.195 201.539 334.147 201.821 334.147 202.12V207H332.323V198.728ZM345.451 198.728H347.451L349.611 204.904H349.643L351.739 198.728H353.643L350.427 207.448C350.278 207.821 350.128 208.179 349.979 208.52C349.84 208.861 349.664 209.16 349.451 209.416C349.248 209.683 348.992 209.891 348.683 210.04C348.374 210.2 347.979 210.28 347.499 210.28C347.072 210.28 346.651 210.248 346.235 210.184V208.648C346.384 208.669 346.528 208.691 346.667 208.712C346.806 208.744 346.95 208.76 347.099 208.76C347.312 208.76 347.488 208.733 347.627 208.68C347.766 208.627 347.878 208.547 347.963 208.44C348.059 208.344 348.139 208.227 348.203 208.088C348.267 207.949 348.326 207.789 348.379 207.608L348.587 206.968L345.451 198.728ZM358.652 207.224C357.991 207.224 357.399 207.117 356.876 206.904C356.364 206.68 355.927 206.376 355.564 205.992C355.212 205.608 354.94 205.149 354.748 204.616C354.567 204.083 354.476 203.496 354.476 202.856C354.476 202.227 354.567 201.645 354.748 201.112C354.94 200.579 355.212 200.12 355.564 199.736C355.927 199.352 356.364 199.053 356.876 198.84C357.399 198.616 357.991 198.504 358.652 198.504C359.313 198.504 359.9 198.616 360.412 198.84C360.935 199.053 361.372 199.352 361.724 199.736C362.087 200.12 362.359 200.579 362.54 201.112C362.732 201.645 362.828 202.227 362.828 202.856C362.828 203.496 362.732 204.083 362.54 204.616C362.359 205.149 362.087 205.608 361.724 205.992C361.372 206.376 360.935 206.68 360.412 206.904C359.9 207.117 359.313 207.224 358.652 207.224ZM358.652 205.784C359.057 205.784 359.409 205.699 359.708 205.528C360.007 205.357 360.252 205.133 360.444 204.856C360.636 204.579 360.775 204.269 360.86 203.928C360.956 203.576 361.004 203.219 361.004 202.856C361.004 202.504 360.956 202.152 360.86 201.8C360.775 201.448 360.636 201.139 360.444 200.872C360.252 200.595 360.007 200.371 359.708 200.2C359.409 200.029 359.057 199.944 358.652 199.944C358.247 199.944 357.895 200.029 357.596 200.2C357.297 200.371 357.052 200.595 356.86 200.872C356.668 201.139 356.524 201.448 356.428 201.8C356.343 202.152 356.3 202.504 356.3 202.856C356.3 203.219 356.343 203.576 356.428 203.928C356.524 204.269 356.668 204.579 356.86 204.856C357.052 205.133 357.297 205.357 357.596 205.528C357.895 205.699 358.247 205.784 358.652 205.784ZM371.808 207H370.016V205.848H369.984C369.76 206.264 369.424 206.6 368.976 206.856C368.539 207.101 368.091 207.224 367.632 207.224C366.544 207.224 365.755 206.957 365.264 206.424C364.784 205.88 364.544 205.064 364.544 203.976V198.728H366.368V203.8C366.368 204.525 366.507 205.037 366.784 205.336C367.062 205.635 367.451 205.784 367.952 205.784C368.336 205.784 368.656 205.725 368.912 205.608C369.168 205.491 369.376 205.336 369.536 205.144C369.696 204.941 369.808 204.701 369.872 204.424C369.947 204.147 369.984 203.848 369.984 203.528V198.728H371.808V207ZM385.849 207H384.057V205.848H384.025C383.801 206.264 383.465 206.6 383.017 206.856C382.58 207.101 382.132 207.224 381.673 207.224C380.585 207.224 379.796 206.957 379.305 206.424C378.825 205.88 378.585 205.064 378.585 203.976V198.728H380.409V203.8C380.409 204.525 380.548 205.037 380.825 205.336C381.102 205.635 381.492 205.784 381.993 205.784C382.377 205.784 382.697 205.725 382.953 205.608C383.209 205.491 383.417 205.336 383.577 205.144C383.737 204.941 383.849 204.701 383.913 204.424C383.988 204.147 384.025 203.848 384.025 203.528V198.728H385.849V207ZM388.02 198.728H389.748V199.848H389.78C390.036 199.368 390.394 199.027 390.852 198.824C391.311 198.611 391.807 198.504 392.34 198.504C392.991 198.504 393.556 198.621 394.036 198.856C394.527 199.08 394.932 199.395 395.252 199.8C395.572 200.195 395.812 200.659 395.972 201.192C396.132 201.725 396.212 202.296 396.212 202.904C396.212 203.459 396.138 203.997 395.988 204.52C395.85 205.043 395.631 205.507 395.332 205.912C395.044 206.307 394.676 206.627 394.228 206.872C393.78 207.107 393.252 207.224 392.644 207.224C392.378 207.224 392.111 207.197 391.844 207.144C391.578 207.101 391.322 207.027 391.076 206.92C390.831 206.813 390.602 206.68 390.388 206.52C390.186 206.349 390.015 206.152 389.876 205.928H389.844V210.056H388.02V198.728ZM394.388 202.872C394.388 202.499 394.34 202.136 394.244 201.784C394.148 201.432 394.004 201.123 393.812 200.856C393.62 200.579 393.38 200.36 393.092 200.2C392.804 200.029 392.474 199.944 392.1 199.944C391.332 199.944 390.751 200.211 390.356 200.744C389.972 201.277 389.78 201.987 389.78 202.872C389.78 203.288 389.828 203.677 389.924 204.04C390.031 204.392 390.186 204.696 390.388 204.952C390.591 205.208 390.831 205.411 391.108 205.56C391.396 205.709 391.727 205.784 392.1 205.784C392.516 205.784 392.868 205.699 393.156 205.528C393.444 205.357 393.679 205.139 393.86 204.872C394.052 204.595 394.186 204.285 394.26 203.944C394.346 203.592 394.388 203.235 394.388 202.872ZM405.602 206.568C405.602 207.816 405.25 208.744 404.546 209.352C403.852 209.971 402.85 210.28 401.538 210.28C401.122 210.28 400.7 210.237 400.274 210.152C399.858 210.067 399.474 209.923 399.122 209.72C398.78 209.517 398.492 209.251 398.258 208.92C398.023 208.589 397.884 208.184 397.842 207.704H399.666C399.719 207.96 399.81 208.168 399.938 208.328C400.066 208.488 400.215 208.611 400.386 208.696C400.567 208.792 400.764 208.851 400.978 208.872C401.191 208.904 401.415 208.92 401.65 208.92C402.386 208.92 402.924 208.739 403.266 208.376C403.607 208.013 403.778 207.491 403.778 206.808V205.544H403.746C403.49 206.003 403.138 206.36 402.69 206.616C402.252 206.872 401.778 207 401.266 207C400.604 207 400.039 206.888 399.57 206.664C399.111 206.429 398.727 206.115 398.418 205.72C398.119 205.315 397.9 204.851 397.762 204.328C397.623 203.805 397.554 203.245 397.554 202.648C397.554 202.093 397.639 201.565 397.81 201.064C397.98 200.563 398.226 200.125 398.546 199.752C398.866 199.368 399.255 199.064 399.714 198.84C400.183 198.616 400.711 198.504 401.298 198.504C401.82 198.504 402.3 198.616 402.738 198.84C403.175 199.053 403.511 199.395 403.746 199.864H403.778V198.728H405.602V206.568ZM401.554 205.56C401.959 205.56 402.3 205.48 402.578 205.32C402.866 205.149 403.095 204.931 403.266 204.664C403.447 204.387 403.575 204.077 403.65 203.736C403.735 203.384 403.778 203.032 403.778 202.68C403.778 202.328 403.735 201.987 403.65 201.656C403.564 201.325 403.431 201.032 403.25 200.776C403.079 200.52 402.85 200.317 402.562 200.168C402.284 200.019 401.948 199.944 401.554 199.944C401.148 199.944 400.807 200.029 400.53 200.2C400.252 200.371 400.028 200.595 399.858 200.872C399.687 201.139 399.564 201.448 399.49 201.8C399.415 202.141 399.378 202.483 399.378 202.824C399.378 203.165 399.42 203.501 399.506 203.832C399.591 204.152 399.719 204.44 399.89 204.696C400.071 204.952 400.295 205.16 400.562 205.32C400.839 205.48 401.17 205.56 401.554 205.56ZM407.638 198.728H409.35V200.328H409.382C409.435 200.104 409.537 199.885 409.686 199.672C409.846 199.459 410.033 199.267 410.246 199.096C410.47 198.915 410.715 198.771 410.982 198.664C411.249 198.557 411.521 198.504 411.798 198.504C412.011 198.504 412.155 198.509 412.23 198.52C412.315 198.531 412.401 198.541 412.486 198.552V200.312C412.358 200.291 412.225 200.275 412.086 200.264C411.958 200.243 411.83 200.232 411.702 200.232C411.393 200.232 411.099 200.296 410.822 200.424C410.555 200.541 410.321 200.723 410.118 200.968C409.915 201.203 409.755 201.496 409.638 201.848C409.521 202.2 409.462 202.605 409.462 203.064V207H407.638V198.728ZM420.391 205.16C420.391 205.384 420.418 205.544 420.471 205.64C420.535 205.736 420.652 205.784 420.823 205.784C420.876 205.784 420.94 205.784 421.015 205.784C421.09 205.784 421.175 205.773 421.271 205.752V207.016C421.207 207.037 421.122 207.059 421.015 207.08C420.919 207.112 420.818 207.139 420.711 207.16C420.604 207.181 420.498 207.197 420.391 207.208C420.284 207.219 420.194 207.224 420.119 207.224C419.746 207.224 419.436 207.149 419.191 207C418.946 206.851 418.786 206.589 418.711 206.216C418.348 206.568 417.9 206.824 417.367 206.984C416.844 207.144 416.338 207.224 415.847 207.224C415.474 207.224 415.116 207.171 414.775 207.064C414.434 206.968 414.13 206.824 413.863 206.632C413.607 206.429 413.399 206.179 413.239 205.88C413.09 205.571 413.015 205.213 413.015 204.808C413.015 204.296 413.106 203.88 413.287 203.56C413.479 203.24 413.724 202.989 414.023 202.808C414.332 202.627 414.674 202.499 415.047 202.424C415.431 202.339 415.815 202.275 416.199 202.232C416.53 202.168 416.844 202.125 417.143 202.104C417.442 202.072 417.703 202.024 417.927 201.96C418.162 201.896 418.343 201.8 418.471 201.672C418.61 201.533 418.679 201.331 418.679 201.064C418.679 200.829 418.62 200.637 418.503 200.488C418.396 200.339 418.258 200.227 418.087 200.152C417.927 200.067 417.746 200.013 417.543 199.992C417.34 199.96 417.148 199.944 416.967 199.944C416.455 199.944 416.034 200.051 415.703 200.264C415.372 200.477 415.186 200.808 415.143 201.256H413.319C413.351 200.723 413.479 200.28 413.703 199.928C413.927 199.576 414.21 199.293 414.551 199.08C414.903 198.867 415.298 198.717 415.735 198.632C416.172 198.547 416.62 198.504 417.079 198.504C417.484 198.504 417.884 198.547 418.279 198.632C418.674 198.717 419.026 198.856 419.335 199.048C419.655 199.24 419.911 199.491 420.103 199.8C420.295 200.099 420.391 200.467 420.391 200.904V205.16ZM418.567 202.856C418.29 203.037 417.948 203.149 417.543 203.192C417.138 203.224 416.732 203.277 416.327 203.352C416.135 203.384 415.948 203.432 415.767 203.496C415.586 203.549 415.426 203.629 415.287 203.736C415.148 203.832 415.036 203.965 414.951 204.136C414.876 204.296 414.839 204.493 414.839 204.728C414.839 204.931 414.898 205.101 415.015 205.24C415.132 205.379 415.271 205.491 415.431 205.576C415.602 205.651 415.783 205.704 415.975 205.736C416.178 205.768 416.359 205.784 416.519 205.784C416.722 205.784 416.94 205.757 417.175 205.704C417.41 205.651 417.628 205.56 417.831 205.432C418.044 205.304 418.22 205.144 418.359 204.952C418.498 204.749 418.567 204.504 418.567 204.216V202.856ZM430.346 207H428.618V205.88H428.586C428.34 206.36 427.983 206.707 427.514 206.92C427.044 207.123 426.548 207.224 426.026 207.224C425.375 207.224 424.804 207.112 424.314 206.888C423.834 206.653 423.434 206.339 423.114 205.944C422.794 205.549 422.554 205.085 422.394 204.552C422.234 204.008 422.154 203.427 422.154 202.808C422.154 202.061 422.255 201.416 422.458 200.872C422.66 200.328 422.927 199.88 423.258 199.528C423.599 199.176 423.983 198.92 424.41 198.76C424.847 198.589 425.29 198.504 425.738 198.504C425.994 198.504 426.255 198.531 426.522 198.584C426.788 198.627 427.044 198.701 427.29 198.808C427.535 198.915 427.759 199.053 427.962 199.224C428.175 199.384 428.351 199.576 428.49 199.8H428.522V195.576H430.346V207ZM423.978 202.952C423.978 203.304 424.02 203.651 424.106 203.992C424.202 204.333 424.34 204.637 424.522 204.904C424.714 205.171 424.954 205.384 425.242 205.544C425.53 205.704 425.871 205.784 426.266 205.784C426.671 205.784 427.018 205.699 427.306 205.528C427.604 205.357 427.844 205.133 428.026 204.856C428.218 204.579 428.356 204.269 428.442 203.928C428.538 203.576 428.586 203.219 428.586 202.856C428.586 201.939 428.378 201.224 427.962 200.712C427.556 200.2 427.002 199.944 426.298 199.944C425.871 199.944 425.508 200.035 425.21 200.216C424.922 200.387 424.682 200.616 424.49 200.904C424.308 201.181 424.175 201.501 424.09 201.864C424.015 202.216 423.978 202.579 423.978 202.952ZM438.215 202.136C438.194 201.848 438.13 201.571 438.023 201.304C437.927 201.037 437.788 200.808 437.607 200.616C437.436 200.413 437.223 200.253 436.967 200.136C436.722 200.008 436.444 199.944 436.135 199.944C435.815 199.944 435.522 200.003 435.255 200.12C434.999 200.227 434.775 200.381 434.583 200.584C434.402 200.776 434.252 201.005 434.135 201.272C434.028 201.539 433.97 201.827 433.959 202.136H438.215ZM433.959 203.336C433.959 203.656 434.002 203.965 434.087 204.264C434.183 204.563 434.322 204.824 434.503 205.048C434.684 205.272 434.914 205.453 435.191 205.592C435.468 205.72 435.799 205.784 436.183 205.784C436.716 205.784 437.143 205.672 437.463 205.448C437.794 205.213 438.039 204.867 438.199 204.408H439.927C439.831 204.856 439.666 205.256 439.431 205.608C439.196 205.96 438.914 206.259 438.583 206.504C438.252 206.739 437.879 206.915 437.463 207.032C437.058 207.16 436.631 207.224 436.183 207.224C435.532 207.224 434.956 207.117 434.455 206.904C433.954 206.691 433.527 206.392 433.175 206.008C432.834 205.624 432.572 205.165 432.391 204.632C432.22 204.099 432.135 203.512 432.135 202.872C432.135 202.285 432.226 201.731 432.407 201.208C432.599 200.675 432.866 200.211 433.207 199.816C433.559 199.411 433.98 199.091 434.471 198.856C434.962 198.621 435.516 198.504 436.135 198.504C436.786 198.504 437.367 198.643 437.879 198.92C438.402 199.187 438.834 199.544 439.175 199.992C439.516 200.44 439.762 200.957 439.911 201.544C440.071 202.12 440.114 202.717 440.039 203.336H433.959ZM445.367 198.728H447.367L449.527 204.904H449.559L451.655 198.728H453.559L450.343 207.448C450.193 207.821 450.044 208.179 449.895 208.52C449.756 208.861 449.58 209.16 449.367 209.416C449.164 209.683 448.908 209.891 448.599 210.04C448.289 210.2 447.895 210.28 447.415 210.28C446.988 210.28 446.567 210.248 446.151 210.184V208.648C446.3 208.669 446.444 208.691 446.583 208.712C446.721 208.744 446.865 208.76 447.015 208.76C447.228 208.76 447.404 208.733 447.543 208.68C447.681 208.627 447.793 208.547 447.879 208.44C447.975 208.344 448.055 208.227 448.119 208.088C448.183 207.949 448.241 207.789 448.295 207.608L448.503 206.968L445.367 198.728ZM458.568 207.224C457.906 207.224 457.314 207.117 456.792 206.904C456.28 206.68 455.842 206.376 455.48 205.992C455.128 205.608 454.856 205.149 454.664 204.616C454.482 204.083 454.392 203.496 454.392 202.856C454.392 202.227 454.482 201.645 454.664 201.112C454.856 200.579 455.128 200.12 455.48 199.736C455.842 199.352 456.28 199.053 456.792 198.84C457.314 198.616 457.906 198.504 458.568 198.504C459.229 198.504 459.816 198.616 460.328 198.84C460.85 199.053 461.288 199.352 461.64 199.736C462.002 200.12 462.274 200.579 462.456 201.112C462.648 201.645 462.744 202.227 462.744 202.856C462.744 203.496 462.648 204.083 462.456 204.616C462.274 205.149 462.002 205.608 461.64 205.992C461.288 206.376 460.85 206.68 460.328 206.904C459.816 207.117 459.229 207.224 458.568 207.224ZM458.568 205.784C458.973 205.784 459.325 205.699 459.624 205.528C459.922 205.357 460.168 205.133 460.36 204.856C460.552 204.579 460.69 204.269 460.776 203.928C460.872 203.576 460.92 203.219 460.92 202.856C460.92 202.504 460.872 202.152 460.776 201.8C460.69 201.448 460.552 201.139 460.36 200.872C460.168 200.595 459.922 200.371 459.624 200.2C459.325 200.029 458.973 199.944 458.568 199.944C458.162 199.944 457.81 200.029 457.512 200.2C457.213 200.371 456.968 200.595 456.776 200.872C456.584 201.139 456.44 201.448 456.344 201.8C456.258 202.152 456.216 202.504 456.216 202.856C456.216 203.219 456.258 203.576 456.344 203.928C456.44 204.269 456.584 204.579 456.776 204.856C456.968 205.133 457.213 205.357 457.512 205.528C457.81 205.699 458.162 205.784 458.568 205.784ZM471.724 207H469.932V205.848H469.9C469.676 206.264 469.34 206.6 468.892 206.856C468.455 207.101 468.007 207.224 467.548 207.224C466.46 207.224 465.671 206.957 465.18 206.424C464.7 205.88 464.46 205.064 464.46 203.976V198.728H466.284V203.8C466.284 204.525 466.423 205.037 466.7 205.336C466.977 205.635 467.367 205.784 467.868 205.784C468.252 205.784 468.572 205.725 468.828 205.608C469.084 205.491 469.292 205.336 469.452 205.144C469.612 204.941 469.724 204.701 469.788 204.424C469.863 204.147 469.9 203.848 469.9 203.528V198.728H471.724V207ZM473.848 198.728H475.56V200.328H475.592C475.645 200.104 475.746 199.885 475.896 199.672C476.056 199.459 476.242 199.267 476.456 199.096C476.68 198.915 476.925 198.771 477.192 198.664C477.458 198.557 477.73 198.504 478.008 198.504C478.221 198.504 478.365 198.509 478.44 198.52C478.525 198.531 478.61 198.541 478.696 198.552V200.312C478.568 200.291 478.434 200.275 478.296 200.264C478.168 200.243 478.04 200.232 477.912 200.232C477.602 200.232 477.309 200.296 477.032 200.424C476.765 200.541 476.53 200.723 476.328 200.968C476.125 201.203 475.965 201.496 475.848 201.848C475.73 202.2 475.672 202.605 475.672 203.064V207H473.848V198.728ZM137.008 222.728H138.736V223.848H138.768C139.024 223.368 139.381 223.027 139.84 222.824C140.299 222.611 140.795 222.504 141.328 222.504C141.979 222.504 142.544 222.621 143.024 222.856C143.515 223.08 143.92 223.395 144.24 223.8C144.56 224.195 144.8 224.659 144.96 225.192C145.12 225.725 145.2 226.296 145.2 226.904C145.2 227.459 145.125 227.997 144.976 228.52C144.837 229.043 144.619 229.507 144.32 229.912C144.032 230.307 143.664 230.627 143.216 230.872C142.768 231.107 142.24 231.224 141.632 231.224C141.365 231.224 141.099 231.197 140.832 231.144C140.565 231.101 140.309 231.027 140.064 230.92C139.819 230.813 139.589 230.68 139.376 230.52C139.173 230.349 139.003 230.152 138.864 229.928H138.832V234.056H137.008V222.728ZM143.376 226.872C143.376 226.499 143.328 226.136 143.232 225.784C143.136 225.432 142.992 225.123 142.8 224.856C142.608 224.579 142.368 224.36 142.08 224.2C141.792 224.029 141.461 223.944 141.088 223.944C140.32 223.944 139.739 224.211 139.344 224.744C138.96 225.277 138.768 225.987 138.768 226.872C138.768 227.288 138.816 227.677 138.912 228.04C139.019 228.392 139.173 228.696 139.376 228.952C139.579 229.208 139.819 229.411 140.096 229.56C140.384 229.709 140.715 229.784 141.088 229.784C141.504 229.784 141.856 229.699 142.144 229.528C142.432 229.357 142.667 229.139 142.848 228.872C143.04 228.595 143.173 228.285 143.248 227.944C143.333 227.592 143.376 227.235 143.376 226.872ZM146.989 219.576H148.813V231H146.989V219.576ZM157.929 229.16C157.929 229.384 157.955 229.544 158.009 229.64C158.073 229.736 158.19 229.784 158.361 229.784C158.414 229.784 158.478 229.784 158.553 229.784C158.627 229.784 158.713 229.773 158.809 229.752V231.016C158.745 231.037 158.659 231.059 158.553 231.08C158.457 231.112 158.355 231.139 158.249 231.16C158.142 231.181 158.035 231.197 157.929 231.208C157.822 231.219 157.731 231.224 157.657 231.224C157.283 231.224 156.974 231.149 156.729 231C156.483 230.851 156.323 230.589 156.249 230.216C155.886 230.568 155.438 230.824 154.905 230.984C154.382 231.144 153.875 231.224 153.385 231.224C153.011 231.224 152.654 231.171 152.313 231.064C151.971 230.968 151.667 230.824 151.401 230.632C151.145 230.429 150.937 230.179 150.777 229.88C150.627 229.571 150.553 229.213 150.553 228.808C150.553 228.296 150.643 227.88 150.825 227.56C151.017 227.24 151.262 226.989 151.561 226.808C151.87 226.627 152.211 226.499 152.585 226.424C152.969 226.339 153.353 226.275 153.737 226.232C154.067 226.168 154.382 226.125 154.681 226.104C154.979 226.072 155.241 226.024 155.465 225.96C155.699 225.896 155.881 225.8 156.009 225.672C156.147 225.533 156.217 225.331 156.217 225.064C156.217 224.829 156.158 224.637 156.041 224.488C155.934 224.339 155.795 224.227 155.625 224.152C155.465 224.067 155.283 224.013 155.081 223.992C154.878 223.96 154.686 223.944 154.505 223.944C153.993 223.944 153.571 224.051 153.241 224.264C152.91 224.477 152.723 224.808 152.681 225.256H150.857C150.889 224.723 151.017 224.28 151.241 223.928C151.465 223.576 151.747 223.293 152.089 223.08C152.441 222.867 152.835 222.717 153.273 222.632C153.71 222.547 154.158 222.504 154.617 222.504C155.022 222.504 155.422 222.547 155.817 222.632C156.211 222.717 156.563 222.856 156.873 223.048C157.193 223.24 157.449 223.491 157.641 223.8C157.833 224.099 157.929 224.467 157.929 224.904V229.16ZM156.105 226.856C155.827 227.037 155.486 227.149 155.081 227.192C154.675 227.224 154.27 227.277 153.865 227.352C153.673 227.384 153.486 227.432 153.305 227.496C153.123 227.549 152.963 227.629 152.825 227.736C152.686 227.832 152.574 227.965 152.489 228.136C152.414 228.296 152.377 228.493 152.377 228.728C152.377 228.931 152.435 229.101 152.553 229.24C152.67 229.379 152.809 229.491 152.969 229.576C153.139 229.651 153.321 229.704 153.513 229.736C153.715 229.768 153.897 229.784 154.057 229.784C154.259 229.784 154.478 229.757 154.713 229.704C154.947 229.651 155.166 229.56 155.369 229.432C155.582 229.304 155.758 229.144 155.897 228.952C156.035 228.749 156.105 228.504 156.105 228.216V226.856ZM160.091 222.728H161.819V223.944L161.851 223.976C162.129 223.517 162.491 223.16 162.939 222.904C163.387 222.637 163.883 222.504 164.427 222.504C165.334 222.504 166.049 222.739 166.571 223.208C167.094 223.677 167.355 224.381 167.355 225.32V231H165.531V225.8C165.51 225.149 165.371 224.68 165.115 224.392C164.859 224.093 164.459 223.944 163.915 223.944C163.606 223.944 163.329 224.003 163.083 224.12C162.838 224.227 162.63 224.381 162.459 224.584C162.289 224.776 162.155 225.005 162.059 225.272C161.963 225.539 161.915 225.821 161.915 226.12V231H160.091V222.728ZM173.3 222.728H174.676V220.248H176.5V222.728H178.148V224.088H176.5V228.504C176.5 228.696 176.505 228.861 176.516 229C176.537 229.139 176.575 229.256 176.628 229.352C176.692 229.448 176.783 229.523 176.9 229.576C177.017 229.619 177.177 229.64 177.38 229.64C177.508 229.64 177.636 229.64 177.764 229.64C177.892 229.629 178.02 229.608 178.148 229.576V230.984C177.945 231.005 177.748 231.027 177.556 231.048C177.364 231.069 177.167 231.08 176.964 231.08C176.484 231.08 176.095 231.037 175.796 230.952C175.508 230.856 175.279 230.723 175.108 230.552C174.948 230.371 174.836 230.147 174.772 229.88C174.719 229.613 174.687 229.309 174.676 228.968V224.088H173.3V222.728ZM183.452 231.224C182.791 231.224 182.199 231.117 181.676 230.904C181.164 230.68 180.727 230.376 180.364 229.992C180.012 229.608 179.74 229.149 179.548 228.616C179.367 228.083 179.276 227.496 179.276 226.856C179.276 226.227 179.367 225.645 179.548 225.112C179.74 224.579 180.012 224.12 180.364 223.736C180.727 223.352 181.164 223.053 181.676 222.84C182.199 222.616 182.791 222.504 183.452 222.504C184.113 222.504 184.7 222.616 185.212 222.84C185.735 223.053 186.172 223.352 186.524 223.736C186.887 224.12 187.159 224.579 187.34 225.112C187.532 225.645 187.628 226.227 187.628 226.856C187.628 227.496 187.532 228.083 187.34 228.616C187.159 229.149 186.887 229.608 186.524 229.992C186.172 230.376 185.735 230.68 185.212 230.904C184.7 231.117 184.113 231.224 183.452 231.224ZM183.452 229.784C183.857 229.784 184.209 229.699 184.508 229.528C184.807 229.357 185.052 229.133 185.244 228.856C185.436 228.579 185.575 228.269 185.66 227.928C185.756 227.576 185.804 227.219 185.804 226.856C185.804 226.504 185.756 226.152 185.66 225.8C185.575 225.448 185.436 225.139 185.244 224.872C185.052 224.595 184.807 224.371 184.508 224.2C184.209 224.029 183.857 223.944 183.452 223.944C183.047 223.944 182.695 224.029 182.396 224.2C182.097 224.371 181.852 224.595 181.66 224.872C181.468 225.139 181.324 225.448 181.228 225.8C181.143 226.152 181.1 226.504 181.1 226.856C181.1 227.219 181.143 227.576 181.228 227.928C181.324 228.269 181.468 228.579 181.66 228.856C181.852 229.133 182.097 229.357 182.396 229.528C182.695 229.699 183.047 229.784 183.452 229.784ZM197.136 231H195.408V229.88H195.376C195.131 230.36 194.774 230.707 194.304 230.92C193.835 231.123 193.339 231.224 192.816 231.224C192.166 231.224 191.595 231.112 191.104 230.888C190.624 230.653 190.224 230.339 189.904 229.944C189.584 229.549 189.344 229.085 189.184 228.552C189.024 228.008 188.944 227.427 188.944 226.808C188.944 226.061 189.046 225.416 189.248 224.872C189.451 224.328 189.718 223.88 190.048 223.528C190.39 223.176 190.774 222.92 191.2 222.76C191.638 222.589 192.08 222.504 192.528 222.504C192.784 222.504 193.046 222.531 193.312 222.584C193.579 222.627 193.835 222.701 194.08 222.808C194.326 222.915 194.55 223.053 194.752 223.224C194.966 223.384 195.142 223.576 195.28 223.8H195.312V219.576H197.136V231ZM190.768 226.952C190.768 227.304 190.811 227.651 190.896 227.992C190.992 228.333 191.131 228.637 191.312 228.904C191.504 229.171 191.744 229.384 192.032 229.544C192.32 229.704 192.662 229.784 193.056 229.784C193.462 229.784 193.808 229.699 194.096 229.528C194.395 229.357 194.635 229.133 194.816 228.856C195.008 228.579 195.147 228.269 195.232 227.928C195.328 227.576 195.376 227.219 195.376 226.856C195.376 225.939 195.168 225.224 194.752 224.712C194.347 224.2 193.792 223.944 193.088 223.944C192.662 223.944 192.299 224.035 192 224.216C191.712 224.387 191.472 224.616 191.28 224.904C191.099 225.181 190.966 225.501 190.88 225.864C190.806 226.216 190.768 226.579 190.768 226.952ZM206.254 229.16C206.254 229.384 206.28 229.544 206.334 229.64C206.398 229.736 206.515 229.784 206.686 229.784C206.739 229.784 206.803 229.784 206.878 229.784C206.952 229.784 207.038 229.773 207.134 229.752V231.016C207.07 231.037 206.984 231.059 206.878 231.08C206.782 231.112 206.68 231.139 206.574 231.16C206.467 231.181 206.36 231.197 206.254 231.208C206.147 231.219 206.056 231.224 205.982 231.224C205.608 231.224 205.299 231.149 205.054 231C204.808 230.851 204.648 230.589 204.574 230.216C204.211 230.568 203.763 230.824 203.23 230.984C202.707 231.144 202.2 231.224 201.71 231.224C201.336 231.224 200.979 231.171 200.638 231.064C200.296 230.968 199.992 230.824 199.726 230.632C199.47 230.429 199.262 230.179 199.102 229.88C198.952 229.571 198.878 229.213 198.878 228.808C198.878 228.296 198.968 227.88 199.15 227.56C199.342 227.24 199.587 226.989 199.886 226.808C200.195 226.627 200.536 226.499 200.91 226.424C201.294 226.339 201.678 226.275 202.062 226.232C202.392 226.168 202.707 226.125 203.006 226.104C203.304 226.072 203.566 226.024 203.79 225.96C204.024 225.896 204.206 225.8 204.334 225.672C204.472 225.533 204.542 225.331 204.542 225.064C204.542 224.829 204.483 224.637 204.366 224.488C204.259 224.339 204.12 224.227 203.95 224.152C203.79 224.067 203.608 224.013 203.406 223.992C203.203 223.96 203.011 223.944 202.83 223.944C202.318 223.944 201.896 224.051 201.566 224.264C201.235 224.477 201.048 224.808 201.006 225.256H199.182C199.214 224.723 199.342 224.28 199.566 223.928C199.79 223.576 200.072 223.293 200.414 223.08C200.766 222.867 201.16 222.717 201.598 222.632C202.035 222.547 202.483 222.504 202.942 222.504C203.347 222.504 203.747 222.547 204.142 222.632C204.536 222.717 204.888 222.856 205.198 223.048C205.518 223.24 205.774 223.491 205.966 223.8C206.158 224.099 206.254 224.467 206.254 224.904V229.16ZM204.43 226.856C204.152 227.037 203.811 227.149 203.406 227.192C203 227.224 202.595 227.277 202.19 227.352C201.998 227.384 201.811 227.432 201.63 227.496C201.448 227.549 201.288 227.629 201.15 227.736C201.011 227.832 200.899 227.965 200.814 228.136C200.739 228.296 200.702 228.493 200.702 228.728C200.702 228.931 200.76 229.101 200.878 229.24C200.995 229.379 201.134 229.491 201.294 229.576C201.464 229.651 201.646 229.704 201.838 229.736C202.04 229.768 202.222 229.784 202.382 229.784C202.584 229.784 202.803 229.757 203.038 229.704C203.272 229.651 203.491 229.56 203.694 229.432C203.907 229.304 204.083 229.144 204.222 228.952C204.36 228.749 204.43 228.504 204.43 228.216V226.856ZM207.504 222.728H209.504L211.664 228.904H211.696L213.792 222.728H215.696L212.48 231.448C212.331 231.821 212.182 232.179 212.032 232.52C211.894 232.861 211.718 233.16 211.504 233.416C211.302 233.683 211.046 233.891 210.736 234.04C210.427 234.2 210.032 234.28 209.552 234.28C209.126 234.28 208.704 234.248 208.288 234.184V232.648C208.438 232.669 208.582 232.691 208.72 232.712C208.859 232.744 209.003 232.76 209.152 232.76C209.366 232.76 209.542 232.733 209.68 232.68C209.819 232.627 209.931 232.547 210.016 232.44C210.112 232.344 210.192 232.227 210.256 232.088C210.32 231.949 210.379 231.789 210.432 231.608L210.64 230.968L207.504 222.728ZM215.588 228.84H217.812V231H215.588V228.84Z" fill="black"/>
</svg>
