<svg width="600" height="372" viewBox="0 0 600 372" fill="none" xmlns="http://www.w3.org/2000/svg">
<rect width="600" height="372" fill="black" fill-opacity="0.04"/>
<path d="M91.248 125.076H98.752V126.356H92.768V129.988H98.016V131.268H92.768V136.5H91.248V125.076ZM107.54 136.468C107.305 136.607 106.98 136.676 106.564 136.676C106.212 136.676 105.929 136.58 105.716 136.388C105.513 136.185 105.412 135.86 105.412 135.412C105.038 135.86 104.601 136.185 104.1 136.388C103.609 136.58 103.076 136.676 102.5 136.676C102.126 136.676 101.769 136.633 101.428 136.548C101.097 136.463 100.809 136.329 100.564 136.148C100.318 135.967 100.121 135.732 99.9715 135.444C99.8328 135.145 99.7635 134.788 99.7635 134.372C99.7635 133.903 99.8435 133.519 100.004 133.22C100.164 132.921 100.372 132.681 100.628 132.5C100.894 132.308 101.193 132.164 101.524 132.068C101.865 131.972 102.212 131.892 102.564 131.828C102.937 131.753 103.289 131.7 103.62 131.668C103.961 131.625 104.26 131.572 104.516 131.508C104.772 131.433 104.974 131.332 105.124 131.204C105.273 131.065 105.348 130.868 105.348 130.612C105.348 130.313 105.289 130.073 105.172 129.892C105.065 129.711 104.921 129.572 104.74 129.476C104.569 129.38 104.372 129.316 104.148 129.284C103.934 129.252 103.721 129.236 103.508 129.236C102.932 129.236 102.452 129.348 102.068 129.572C101.684 129.785 101.476 130.196 101.444 130.804H100.084C100.105 130.292 100.212 129.86 100.404 129.508C100.596 129.156 100.852 128.873 101.172 128.66C101.492 128.436 101.854 128.276 102.26 128.18C102.676 128.084 103.118 128.036 103.588 128.036C103.961 128.036 104.329 128.063 104.692 128.116C105.065 128.169 105.401 128.281 105.7 128.452C105.998 128.612 106.238 128.841 106.42 129.14C106.601 129.439 106.692 129.828 106.692 130.308V134.564C106.692 134.884 106.708 135.119 106.74 135.268C106.782 135.417 106.91 135.492 107.124 135.492C107.241 135.492 107.38 135.465 107.54 135.412V136.468ZM105.332 132.228C105.161 132.356 104.937 132.452 104.66 132.516C104.382 132.569 104.089 132.617 103.78 132.66C103.481 132.692 103.177 132.735 102.868 132.788C102.558 132.831 102.281 132.905 102.036 133.012C101.79 133.119 101.588 133.273 101.428 133.476C101.278 133.668 101.204 133.935 101.204 134.276C101.204 134.5 101.246 134.692 101.332 134.852C101.428 135.001 101.545 135.124 101.684 135.22C101.833 135.316 102.004 135.385 102.196 135.428C102.388 135.471 102.59 135.492 102.804 135.492C103.252 135.492 103.636 135.433 103.956 135.316C104.276 135.188 104.537 135.033 104.74 134.852C104.942 134.66 105.092 134.457 105.188 134.244C105.284 134.02 105.332 133.812 105.332 133.62V132.228ZM108.885 125.076H110.245V136.5H108.885V125.076ZM113.184 133.892C113.195 134.191 113.264 134.447 113.392 134.66C113.52 134.863 113.685 135.028 113.888 135.156C114.101 135.273 114.336 135.359 114.592 135.412C114.859 135.465 115.131 135.492 115.408 135.492C115.621 135.492 115.845 135.476 116.08 135.444C116.315 135.412 116.528 135.353 116.72 135.268C116.923 135.183 117.088 135.06 117.216 134.9C117.344 134.729 117.408 134.516 117.408 134.26C117.408 133.908 117.275 133.641 117.008 133.46C116.741 133.279 116.405 133.135 116 133.028C115.605 132.911 115.173 132.809 114.704 132.724C114.235 132.628 113.797 132.5 113.392 132.34C112.997 132.169 112.667 131.935 112.4 131.636C112.133 131.337 112 130.921 112 130.388C112 129.972 112.091 129.615 112.272 129.316C112.464 129.017 112.704 128.777 112.992 128.596C113.291 128.404 113.621 128.265 113.984 128.18C114.357 128.084 114.725 128.036 115.088 128.036C115.557 128.036 115.989 128.079 116.384 128.164C116.779 128.239 117.125 128.377 117.424 128.58C117.733 128.772 117.979 129.039 118.16 129.38C118.341 129.711 118.448 130.127 118.48 130.628H117.12C117.099 130.361 117.029 130.143 116.912 129.972C116.795 129.791 116.645 129.647 116.464 129.54C116.283 129.433 116.08 129.359 115.856 129.316C115.643 129.263 115.424 129.236 115.2 129.236C114.997 129.236 114.789 129.252 114.576 129.284C114.373 129.316 114.187 129.375 114.016 129.46C113.845 129.535 113.707 129.641 113.6 129.78C113.493 129.908 113.44 130.079 113.44 130.292C113.44 130.527 113.52 130.724 113.68 130.884C113.851 131.033 114.064 131.161 114.32 131.268C114.576 131.364 114.864 131.449 115.184 131.524C115.504 131.588 115.824 131.657 116.144 131.732C116.485 131.807 116.816 131.897 117.136 132.004C117.467 132.111 117.755 132.255 118 132.436C118.256 132.607 118.459 132.825 118.608 133.092C118.768 133.359 118.848 133.689 118.848 134.084C118.848 134.585 118.741 135.001 118.528 135.332C118.325 135.663 118.053 135.929 117.712 136.132C117.381 136.335 117.003 136.473 116.576 136.548C116.16 136.633 115.744 136.676 115.328 136.676C114.869 136.676 114.432 136.628 114.016 136.532C113.6 136.436 113.232 136.281 112.912 136.068C112.592 135.844 112.336 135.556 112.144 135.204C111.952 134.841 111.845 134.404 111.824 133.892H113.184ZM126.096 131.572C126.075 131.252 126 130.948 125.872 130.66C125.755 130.372 125.589 130.127 125.376 129.924C125.173 129.711 124.928 129.545 124.64 129.428C124.363 129.3 124.053 129.236 123.712 129.236C123.36 129.236 123.04 129.3 122.752 129.428C122.475 129.545 122.235 129.711 122.032 129.924C121.829 130.137 121.669 130.388 121.552 130.676C121.435 130.953 121.365 131.252 121.344 131.572H126.096ZM127.408 133.876C127.227 134.804 126.827 135.503 126.208 135.972C125.589 136.441 124.811 136.676 123.872 136.676C123.211 136.676 122.635 136.569 122.144 136.356C121.664 136.143 121.259 135.844 120.928 135.46C120.597 135.076 120.347 134.617 120.176 134.084C120.016 133.551 119.925 132.969 119.904 132.34C119.904 131.711 120 131.135 120.192 130.612C120.384 130.089 120.651 129.636 120.992 129.252C121.344 128.868 121.755 128.569 122.224 128.356C122.704 128.143 123.227 128.036 123.792 128.036C124.528 128.036 125.136 128.191 125.616 128.5C126.107 128.799 126.496 129.183 126.784 129.652C127.083 130.121 127.285 130.633 127.392 131.188C127.509 131.743 127.557 132.271 127.536 132.772H121.344C121.333 133.135 121.376 133.481 121.472 133.812C121.568 134.132 121.723 134.42 121.936 134.676C122.149 134.921 122.421 135.119 122.752 135.268C123.083 135.417 123.472 135.492 123.92 135.492C124.496 135.492 124.965 135.359 125.328 135.092C125.701 134.825 125.947 134.42 126.064 133.876H127.408Z" fill="black" fill-opacity="0.68"/>
<mask id="path-2-inside-1_68467_35760" fill="white">
<path d="M270 101H321V161H270V101Z"/>
</mask>
<path d="M270 101H321V161H270V101Z" fill="black" fill-opacity="0.04"/>
<path d="M321 161V160H270V161V162H321V161Z" fill="black" fill-opacity="0.2" mask="url(#path-2-inside-1_68467_35760)"/>
<path d="M292.132 131.576C292.132 131.096 292.223 130.653 292.404 130.248C292.585 129.832 292.831 129.469 293.14 129.16C293.449 128.851 293.807 128.611 294.212 128.44C294.628 128.259 295.071 128.168 295.54 128.168C296.02 128.168 296.463 128.259 296.868 128.44C297.284 128.611 297.647 128.851 297.956 129.16C298.265 129.469 298.505 129.832 298.676 130.248C298.857 130.653 298.948 131.096 298.948 131.576C298.948 132.045 298.857 132.488 298.676 132.904C298.505 133.309 298.265 133.667 297.956 133.976C297.647 134.285 297.284 134.531 296.868 134.712C296.463 134.893 296.02 134.984 295.54 134.984C295.071 134.984 294.628 134.893 294.212 134.712C293.807 134.531 293.449 134.285 293.14 133.976C292.831 133.667 292.585 133.309 292.404 132.904C292.223 132.488 292.132 132.045 292.132 131.576Z" fill="black"/>
<mask id="path-5-inside-2_68467_35760" fill="white">
<path d="M333 101H384V161H333V101Z"/>
</mask>
<path d="M333 101H384V161H333V101Z" fill="black" fill-opacity="0.04"/>
<path d="M384 161V160H333V161V162H384V161Z" fill="black" fill-opacity="0.2" mask="url(#path-5-inside-2_68467_35760)"/>
<path d="M355.132 131.576C355.132 131.096 355.223 130.653 355.404 130.248C355.585 129.832 355.831 129.469 356.14 129.16C356.449 128.851 356.807 128.611 357.212 128.44C357.628 128.259 358.071 128.168 358.54 128.168C359.02 128.168 359.463 128.259 359.868 128.44C360.284 128.611 360.647 128.851 360.956 129.16C361.265 129.469 361.505 129.832 361.676 130.248C361.857 130.653 361.948 131.096 361.948 131.576C361.948 132.045 361.857 132.488 361.676 132.904C361.505 133.309 361.265 133.667 360.956 133.976C360.647 134.285 360.284 134.531 359.868 134.712C359.463 134.893 359.02 134.984 358.54 134.984C358.071 134.984 357.628 134.893 357.212 134.712C356.807 134.531 356.449 134.285 356.14 133.976C355.831 133.667 355.585 133.309 355.404 132.904C355.223 132.488 355.132 132.045 355.132 131.576Z" fill="black"/>
<mask id="path-8-inside-3_68467_35760" fill="white">
<path d="M396 101H447V161H396V101Z"/>
</mask>
<path d="M396 101H447V161H396V101Z" fill="black" fill-opacity="0.12"/>
<path d="M447 161V159H396V161V163H447V161Z" fill="black" mask="url(#path-8-inside-3_68467_35760)"/>
<path d="M420.959 124.424H422.047V140.408H420.959V124.424Z" fill="black"/>
<mask id="path-11-inside-4_68467_35760" fill="white">
<path d="M459 101H510V161H459V101Z"/>
</mask>
<path d="M459 101H510V161H459V101Z" fill="black" fill-opacity="0.04"/>
<path d="M510 161V160H459V161V162H510V161Z" fill="black" fill-opacity="0.2" mask="url(#path-11-inside-4_68467_35760)"/>
<path d="M482.191 131.912H486.815V133.192H482.191V131.912Z" fill="black" fill-opacity="0.68"/>
<path d="M93.84 236.356H90.032V235.076H99.168V236.356H95.36V246.5H93.84V236.356ZM98.6948 238.228H99.9748V239.972H100.007C100.337 239.3 100.743 238.804 101.223 238.484C101.703 238.164 102.311 238.015 103.047 238.036V239.476C102.503 239.476 102.039 239.551 101.655 239.7C101.271 239.849 100.961 240.068 100.727 240.356C100.492 240.644 100.321 240.996 100.215 241.412C100.108 241.817 100.055 242.287 100.055 242.82V246.5H98.6948V238.228ZM110.919 246.5H109.639V245.188H109.607C109.319 245.7 108.951 246.079 108.503 246.324C108.055 246.559 107.527 246.676 106.919 246.676C106.375 246.676 105.922 246.607 105.559 246.468C105.196 246.319 104.903 246.111 104.679 245.844C104.455 245.577 104.295 245.263 104.199 244.9C104.114 244.527 104.071 244.116 104.071 243.668V238.228H105.431V243.828C105.431 244.34 105.58 244.745 105.879 245.044C106.178 245.343 106.588 245.492 107.111 245.492C107.527 245.492 107.884 245.428 108.183 245.3C108.492 245.172 108.748 244.991 108.951 244.756C109.154 244.521 109.303 244.249 109.399 243.94C109.506 243.62 109.559 243.273 109.559 242.9V238.228H110.919V246.5ZM118.706 241.572C118.684 241.252 118.61 240.948 118.482 240.66C118.364 240.372 118.199 240.127 117.986 239.924C117.783 239.711 117.538 239.545 117.25 239.428C116.972 239.3 116.663 239.236 116.322 239.236C115.97 239.236 115.65 239.3 115.362 239.428C115.084 239.545 114.844 239.711 114.642 239.924C114.439 240.137 114.279 240.388 114.162 240.676C114.044 240.953 113.975 241.252 113.954 241.572H118.706ZM120.017 243.876C119.836 244.804 119.436 245.503 118.818 245.972C118.199 246.441 117.42 246.676 116.482 246.676C115.82 246.676 115.244 246.569 114.754 246.356C114.274 246.143 113.868 245.844 113.538 245.46C113.207 245.076 112.956 244.617 112.786 244.084C112.626 243.551 112.535 242.969 112.514 242.34C112.514 241.711 112.61 241.135 112.802 240.612C112.994 240.089 113.26 239.636 113.602 239.252C113.954 238.868 114.364 238.569 114.834 238.356C115.314 238.143 115.836 238.036 116.402 238.036C117.138 238.036 117.746 238.191 118.226 238.5C118.716 238.799 119.106 239.183 119.394 239.652C119.692 240.121 119.895 240.633 120.002 241.188C120.119 241.743 120.167 242.271 120.146 242.772H113.954C113.943 243.135 113.986 243.481 114.082 243.812C114.178 244.132 114.332 244.42 114.546 244.676C114.759 244.921 115.031 245.119 115.362 245.268C115.692 245.417 116.082 245.492 116.53 245.492C117.106 245.492 117.575 245.359 117.938 245.092C118.311 244.825 118.556 244.42 118.674 243.876H120.017Z" fill="black" fill-opacity="0.68"/>
<path d="M320.5 211.5V270.5H270.5V211.5H320.5Z" stroke="black" stroke-opacity="0.2"/>
<path d="M292.132 241.576C292.132 241.096 292.223 240.653 292.404 240.248C292.585 239.832 292.831 239.469 293.14 239.16C293.449 238.851 293.807 238.611 294.212 238.44C294.628 238.259 295.071 238.168 295.54 238.168C296.02 238.168 296.463 238.259 296.868 238.44C297.284 238.611 297.647 238.851 297.956 239.16C298.265 239.469 298.505 239.832 298.676 240.248C298.857 240.653 298.948 241.096 298.948 241.576C298.948 242.045 298.857 242.488 298.676 242.904C298.505 243.309 298.265 243.667 297.956 243.976C297.647 244.285 297.284 244.531 296.868 244.712C296.463 244.893 296.02 244.984 295.54 244.984C295.071 244.984 294.628 244.893 294.212 244.712C293.807 244.531 293.449 244.285 293.14 243.976C292.831 243.667 292.585 243.309 292.404 242.904C292.223 242.488 292.132 242.045 292.132 241.576Z" fill="black"/>
<path d="M383.5 211.5V270.5H333.5V211.5H383.5Z" stroke="black" stroke-opacity="0.2"/>
<path d="M355.132 241.576C355.132 241.096 355.223 240.653 355.404 240.248C355.585 239.832 355.831 239.469 356.14 239.16C356.449 238.851 356.807 238.611 357.212 238.44C357.628 238.259 358.071 238.168 358.54 238.168C359.02 238.168 359.463 238.259 359.868 238.44C360.284 238.611 360.647 238.851 360.956 239.16C361.265 239.469 361.505 239.832 361.676 240.248C361.857 240.653 361.948 241.096 361.948 241.576C361.948 242.045 361.857 242.488 361.676 242.904C361.505 243.309 361.265 243.667 360.956 243.976C360.647 244.285 360.284 244.531 359.868 244.712C359.463 244.893 359.02 244.984 358.54 244.984C358.071 244.984 357.628 244.893 357.212 244.712C356.807 244.531 356.449 244.285 356.14 243.976C355.831 243.667 355.585 243.309 355.404 242.904C355.223 242.488 355.132 242.045 355.132 241.576Z" fill="black"/>
<path d="M446 212V270H397V212H446Z" stroke="black" stroke-width="2"/>
<path d="M420.959 234.424H422.047V250.408H420.959V234.424Z" fill="black"/>
<path d="M509.5 211.5V270.5H459.5V211.5H509.5Z" stroke="black" stroke-opacity="0.2"/>
<path d="M482.191 241.912H486.815V243.192H482.191V241.912Z" fill="black" fill-opacity="0.68"/>
</svg>
