<svg width="600" height="282" viewBox="0 0 600 282" fill="none" xmlns="http://www.w3.org/2000/svg">
<rect width="600" height="282" fill="black" fill-opacity="0.04"/>
<path d="M91.248 80.076H98.752V81.356H92.768V84.988H98.016V86.268H92.768V91.5H91.248V80.076ZM107.54 91.468C107.305 91.6067 106.98 91.676 106.564 91.676C106.212 91.676 105.929 91.58 105.716 91.388C105.513 91.1853 105.412 90.86 105.412 90.412C105.038 90.86 104.601 91.1853 104.1 91.388C103.609 91.58 103.076 91.676 102.5 91.676C102.126 91.676 101.769 91.6333 101.428 91.548C101.097 91.4627 100.809 91.3293 100.564 91.148C100.318 90.9667 100.121 90.732 99.9715 90.444C99.8328 90.1453 99.7635 89.788 99.7635 89.372C99.7635 88.9027 99.8435 88.5187 100.004 88.22C100.164 87.9213 100.372 87.6813 100.628 87.5C100.894 87.308 101.193 87.164 101.524 87.068C101.865 86.972 102.212 86.892 102.564 86.828C102.937 86.7533 103.289 86.7 103.62 86.668C103.961 86.6253 104.26 86.572 104.516 86.508C104.772 86.4333 104.974 86.332 105.124 86.204C105.273 86.0653 105.348 85.868 105.348 85.612C105.348 85.3133 105.289 85.0733 105.172 84.892C105.065 84.7107 104.921 84.572 104.74 84.476C104.569 84.38 104.372 84.316 104.148 84.284C103.934 84.252 103.721 84.236 103.508 84.236C102.932 84.236 102.452 84.348 102.068 84.572C101.684 84.7853 101.476 85.196 101.444 85.804H100.084C100.105 85.292 100.212 84.86 100.404 84.508C100.596 84.156 100.852 83.8733 101.172 83.66C101.492 83.436 101.854 83.276 102.26 83.18C102.676 83.084 103.118 83.036 103.588 83.036C103.961 83.036 104.329 83.0627 104.692 83.116C105.065 83.1693 105.401 83.2813 105.7 83.452C105.998 83.612 106.238 83.8413 106.42 84.14C106.601 84.4387 106.692 84.828 106.692 85.308V89.564C106.692 89.884 106.708 90.1187 106.74 90.268C106.782 90.4173 106.91 90.492 107.124 90.492C107.241 90.492 107.38 90.4653 107.54 90.412V91.468ZM105.332 87.228C105.161 87.356 104.937 87.452 104.66 87.516C104.382 87.5693 104.089 87.6173 103.78 87.66C103.481 87.692 103.177 87.7347 102.868 87.788C102.558 87.8307 102.281 87.9053 102.036 88.012C101.79 88.1187 101.588 88.2733 101.428 88.476C101.278 88.668 101.204 88.9347 101.204 89.276C101.204 89.5 101.246 89.692 101.332 89.852C101.428 90.0013 101.545 90.124 101.684 90.22C101.833 90.316 102.004 90.3853 102.196 90.428C102.388 90.4707 102.59 90.492 102.804 90.492C103.252 90.492 103.636 90.4333 103.956 90.316C104.276 90.188 104.537 90.0333 104.74 89.852C104.942 89.66 105.092 89.4573 105.188 89.244C105.284 89.02 105.332 88.812 105.332 88.62V87.228ZM108.885 80.076H110.245V91.5H108.885V80.076ZM113.184 88.892C113.195 89.1907 113.264 89.4467 113.392 89.66C113.52 89.8627 113.685 90.028 113.888 90.156C114.101 90.2733 114.336 90.3587 114.592 90.412C114.859 90.4653 115.131 90.492 115.408 90.492C115.621 90.492 115.845 90.476 116.08 90.444C116.315 90.412 116.528 90.3533 116.72 90.268C116.923 90.1827 117.088 90.06 117.216 89.9C117.344 89.7293 117.408 89.516 117.408 89.26C117.408 88.908 117.275 88.6413 117.008 88.46C116.741 88.2787 116.405 88.1347 116 88.028C115.605 87.9107 115.173 87.8093 114.704 87.724C114.235 87.628 113.797 87.5 113.392 87.34C112.997 87.1693 112.667 86.9347 112.4 86.636C112.133 86.3373 112 85.9213 112 85.388C112 84.972 112.091 84.6147 112.272 84.316C112.464 84.0173 112.704 83.7773 112.992 83.596C113.291 83.404 113.621 83.2653 113.984 83.18C114.357 83.084 114.725 83.036 115.088 83.036C115.557 83.036 115.989 83.0787 116.384 83.164C116.779 83.2387 117.125 83.3773 117.424 83.58C117.733 83.772 117.979 84.0387 118.16 84.38C118.341 84.7107 118.448 85.1267 118.48 85.628H117.12C117.099 85.3613 117.029 85.1427 116.912 84.972C116.795 84.7907 116.645 84.6467 116.464 84.54C116.283 84.4333 116.08 84.3587 115.856 84.316C115.643 84.2627 115.424 84.236 115.2 84.236C114.997 84.236 114.789 84.252 114.576 84.284C114.373 84.316 114.187 84.3747 114.016 84.46C113.845 84.5347 113.707 84.6413 113.6 84.78C113.493 84.908 113.44 85.0787 113.44 85.292C113.44 85.5267 113.52 85.724 113.68 85.884C113.851 86.0333 114.064 86.1613 114.32 86.268C114.576 86.364 114.864 86.4493 115.184 86.524C115.504 86.588 115.824 86.6573 116.144 86.732C116.485 86.8067 116.816 86.8973 117.136 87.004C117.467 87.1107 117.755 87.2547 118 87.436C118.256 87.6067 118.459 87.8253 118.608 88.092C118.768 88.3587 118.848 88.6893 118.848 89.084C118.848 89.5853 118.741 90.0013 118.528 90.332C118.325 90.6627 118.053 90.9293 117.712 91.132C117.381 91.3347 117.003 91.4733 116.576 91.548C116.16 91.6333 115.744 91.676 115.328 91.676C114.869 91.676 114.432 91.628 114.016 91.532C113.6 91.436 113.232 91.2813 112.912 91.068C112.592 90.844 112.336 90.556 112.144 90.204C111.952 89.8413 111.845 89.404 111.824 88.892H113.184ZM126.096 86.572C126.075 86.252 126 85.948 125.872 85.66C125.755 85.372 125.589 85.1267 125.376 84.924C125.173 84.7107 124.928 84.5453 124.64 84.428C124.363 84.3 124.053 84.236 123.712 84.236C123.36 84.236 123.04 84.3 122.752 84.428C122.475 84.5453 122.235 84.7107 122.032 84.924C121.829 85.1373 121.669 85.388 121.552 85.676C121.435 85.9533 121.365 86.252 121.344 86.572H126.096ZM127.408 88.876C127.227 89.804 126.827 90.5027 126.208 90.972C125.589 91.4413 124.811 91.676 123.872 91.676C123.211 91.676 122.635 91.5693 122.144 91.356C121.664 91.1427 121.259 90.844 120.928 90.46C120.597 90.076 120.347 89.6173 120.176 89.084C120.016 88.5507 119.925 87.9693 119.904 87.34C119.904 86.7107 120 86.1347 120.192 85.612C120.384 85.0893 120.651 84.636 120.992 84.252C121.344 83.868 121.755 83.5693 122.224 83.356C122.704 83.1427 123.227 83.036 123.792 83.036C124.528 83.036 125.136 83.1907 125.616 83.5C126.107 83.7987 126.496 84.1827 126.784 84.652C127.083 85.1213 127.285 85.6333 127.392 86.188C127.509 86.7427 127.557 87.2707 127.536 87.772H121.344C121.333 88.1347 121.376 88.4813 121.472 88.812C121.568 89.132 121.723 89.42 121.936 89.676C122.149 89.9213 122.421 90.1187 122.752 90.268C123.083 90.4173 123.472 90.492 123.92 90.492C124.496 90.492 124.965 90.3587 125.328 90.092C125.701 89.8253 125.947 89.42 126.064 88.876H127.408Z" fill="black" fill-opacity="0.68"/>
<mask id="path-2-inside-1_68467_35775" fill="white">
<path d="M270 56H321V116H270V56Z"/>
</mask>
<path d="M270 56H321V116H270V56Z" fill="black" fill-opacity="0.04"/>
<path d="M321 116V115H270V116V117H321V116Z" fill="black" fill-opacity="0.2" mask="url(#path-2-inside-1_68467_35775)"/>
<path d="M292.132 86.576C292.132 86.096 292.223 85.6533 292.404 85.248C292.585 84.832 292.831 84.4693 293.14 84.16C293.449 83.8507 293.807 83.6107 294.212 83.44C294.628 83.2587 295.071 83.168 295.54 83.168C296.02 83.168 296.463 83.2587 296.868 83.44C297.284 83.6107 297.647 83.8507 297.956 84.16C298.265 84.4693 298.505 84.832 298.676 85.248C298.857 85.6533 298.948 86.096 298.948 86.576C298.948 87.0453 298.857 87.488 298.676 87.904C298.505 88.3093 298.265 88.6667 297.956 88.976C297.647 89.2853 297.284 89.5307 296.868 89.712C296.463 89.8933 296.02 89.984 295.54 89.984C295.071 89.984 294.628 89.8933 294.212 89.712C293.807 89.5307 293.449 89.2853 293.14 88.976C292.831 88.6667 292.585 88.3093 292.404 87.904C292.223 87.488 292.132 87.0453 292.132 86.576Z" fill="black"/>
<mask id="path-5-inside-2_68467_35775" fill="white">
<path d="M333 56H384V116H333V56Z"/>
</mask>
<path d="M333 56H384V116H333V56Z" fill="black" fill-opacity="0.04"/>
<path d="M384 116V115H333V116V117H384V116Z" fill="black" fill-opacity="0.2" mask="url(#path-5-inside-2_68467_35775)"/>
<path d="M355.132 86.576C355.132 86.096 355.223 85.6533 355.404 85.248C355.585 84.832 355.831 84.4693 356.14 84.16C356.449 83.8507 356.807 83.6107 357.212 83.44C357.628 83.2587 358.071 83.168 358.54 83.168C359.02 83.168 359.463 83.2587 359.868 83.44C360.284 83.6107 360.647 83.8507 360.956 84.16C361.265 84.4693 361.505 84.832 361.676 85.248C361.857 85.6533 361.948 86.096 361.948 86.576C361.948 87.0453 361.857 87.488 361.676 87.904C361.505 88.3093 361.265 88.6667 360.956 88.976C360.647 89.2853 360.284 89.5307 359.868 89.712C359.463 89.8933 359.02 89.984 358.54 89.984C358.071 89.984 357.628 89.8933 357.212 89.712C356.807 89.5307 356.449 89.2853 356.14 88.976C355.831 88.6667 355.585 88.3093 355.404 87.904C355.223 87.488 355.132 87.0453 355.132 86.576Z" fill="black"/>
<mask id="path-8-inside-3_68467_35775" fill="white">
<path d="M396 56H447V116H396V56Z"/>
</mask>
<path d="M396 56H447V116H396V56Z" fill="black" fill-opacity="0.12"/>
<path d="M447 116V114H396V116V118H447V116Z" fill="black" mask="url(#path-8-inside-3_68467_35775)"/>
<path d="M420.959 79.424H422.047V95.408H420.959V79.424Z" fill="black"/>
<mask id="path-11-inside-4_68467_35775" fill="white">
<path d="M459 56H510V116H459V56Z"/>
</mask>
<path d="M459 56H510V116H459V56Z" fill="black" fill-opacity="0.04"/>
<path d="M510 116V115H459V116V117H510V116Z" fill="black" fill-opacity="0.2" mask="url(#path-11-inside-4_68467_35775)"/>
<path d="M482.191 86.912H486.815V88.192H482.191V86.912Z" fill="black" fill-opacity="0.68"/>
<path d="M93.84 191.356H90.032V190.076H99.168V191.356H95.36V201.5H93.84V191.356ZM98.6948 193.228H99.9748V194.972H100.007C100.337 194.3 100.743 193.804 101.223 193.484C101.703 193.164 102.311 193.015 103.047 193.036V194.476C102.503 194.476 102.039 194.551 101.655 194.7C101.271 194.849 100.961 195.068 100.727 195.356C100.492 195.644 100.321 195.996 100.215 196.412C100.108 196.817 100.055 197.287 100.055 197.82V201.5H98.6948V193.228ZM110.919 201.5H109.639V200.188H109.607C109.319 200.7 108.951 201.079 108.503 201.324C108.055 201.559 107.527 201.676 106.919 201.676C106.375 201.676 105.922 201.607 105.559 201.468C105.196 201.319 104.903 201.111 104.679 200.844C104.455 200.577 104.295 200.263 104.199 199.9C104.114 199.527 104.071 199.116 104.071 198.668V193.228H105.431V198.828C105.431 199.34 105.58 199.745 105.879 200.044C106.178 200.343 106.588 200.492 107.111 200.492C107.527 200.492 107.884 200.428 108.183 200.3C108.492 200.172 108.748 199.991 108.951 199.756C109.154 199.521 109.303 199.249 109.399 198.94C109.506 198.62 109.559 198.273 109.559 197.9V193.228H110.919V201.5ZM118.706 196.572C118.684 196.252 118.61 195.948 118.482 195.66C118.364 195.372 118.199 195.127 117.986 194.924C117.783 194.711 117.538 194.545 117.25 194.428C116.972 194.3 116.663 194.236 116.322 194.236C115.97 194.236 115.65 194.3 115.362 194.428C115.084 194.545 114.844 194.711 114.642 194.924C114.439 195.137 114.279 195.388 114.162 195.676C114.044 195.953 113.975 196.252 113.954 196.572H118.706ZM120.017 198.876C119.836 199.804 119.436 200.503 118.818 200.972C118.199 201.441 117.42 201.676 116.482 201.676C115.82 201.676 115.244 201.569 114.754 201.356C114.274 201.143 113.868 200.844 113.538 200.46C113.207 200.076 112.956 199.617 112.786 199.084C112.626 198.551 112.535 197.969 112.514 197.34C112.514 196.711 112.61 196.135 112.802 195.612C112.994 195.089 113.26 194.636 113.602 194.252C113.954 193.868 114.364 193.569 114.834 193.356C115.314 193.143 115.836 193.036 116.402 193.036C117.138 193.036 117.746 193.191 118.226 193.5C118.716 193.799 119.106 194.183 119.394 194.652C119.692 195.121 119.895 195.633 120.002 196.188C120.119 196.743 120.167 197.271 120.146 197.772H113.954C113.943 198.135 113.986 198.481 114.082 198.812C114.178 199.132 114.332 199.42 114.546 199.676C114.759 199.921 115.031 200.119 115.362 200.268C115.692 200.417 116.082 200.492 116.53 200.492C117.106 200.492 117.575 200.359 117.938 200.092C118.311 199.825 118.556 199.42 118.674 198.876H120.017Z" fill="black" fill-opacity="0.68"/>
<mask id="path-15-inside-5_68467_35775" fill="white">
<path d="M270 170C270 167.791 271.791 166 274 166H317C319.209 166 321 167.791 321 170V222C321 224.209 319.209 226 317 226H274C271.791 226 270 224.209 270 222V170Z"/>
</mask>
<path d="M270 170C270 167.791 271.791 166 274 166H317C319.209 166 321 167.791 321 170V222C321 224.209 319.209 226 317 226H274C271.791 226 270 224.209 270 222V170Z" fill="black" fill-opacity="0.04"/>
<path d="M270 166H321H270ZM321 222C321 224.761 318.761 227 316 227H275C272.239 227 270 224.761 270 222C270 223.657 271.791 225 274 225H317C319.209 225 321 223.657 321 222ZM270 226V166V226ZM321 166V226V166Z" fill="black" fill-opacity="0.2" mask="url(#path-15-inside-5_68467_35775)"/>
<path d="M292.132 196.576C292.132 196.096 292.223 195.653 292.404 195.248C292.585 194.832 292.831 194.469 293.14 194.16C293.449 193.851 293.807 193.611 294.212 193.44C294.628 193.259 295.071 193.168 295.54 193.168C296.02 193.168 296.463 193.259 296.868 193.44C297.284 193.611 297.647 193.851 297.956 194.16C298.265 194.469 298.505 194.832 298.676 195.248C298.857 195.653 298.948 196.096 298.948 196.576C298.948 197.045 298.857 197.488 298.676 197.904C298.505 198.309 298.265 198.667 297.956 198.976C297.647 199.285 297.284 199.531 296.868 199.712C296.463 199.893 296.02 199.984 295.54 199.984C295.071 199.984 294.628 199.893 294.212 199.712C293.807 199.531 293.449 199.285 293.14 198.976C292.831 198.667 292.585 198.309 292.404 197.904C292.223 197.488 292.132 197.045 292.132 196.576Z" fill="black"/>
<mask id="path-18-inside-6_68467_35775" fill="white">
<path d="M333 170C333 167.791 334.791 166 337 166H380C382.209 166 384 167.791 384 170V222C384 224.209 382.209 226 380 226H337C334.791 226 333 224.209 333 222V170Z"/>
</mask>
<path d="M333 170C333 167.791 334.791 166 337 166H380C382.209 166 384 167.791 384 170V222C384 224.209 382.209 226 380 226H337C334.791 226 333 224.209 333 222V170Z" fill="black" fill-opacity="0.04"/>
<path d="M333 166H384H333ZM384 222C384 224.761 381.761 227 379 227H338C335.239 227 333 224.761 333 222C333 223.657 334.791 225 337 225H380C382.209 225 384 223.657 384 222ZM333 226V166V226ZM384 166V226V166Z" fill="black" fill-opacity="0.2" mask="url(#path-18-inside-6_68467_35775)"/>
<path d="M355.132 196.576C355.132 196.096 355.223 195.653 355.404 195.248C355.585 194.832 355.831 194.469 356.14 194.16C356.449 193.851 356.807 193.611 357.212 193.44C357.628 193.259 358.071 193.168 358.54 193.168C359.02 193.168 359.463 193.259 359.868 193.44C360.284 193.611 360.647 193.851 360.956 194.16C361.265 194.469 361.505 194.832 361.676 195.248C361.857 195.653 361.948 196.096 361.948 196.576C361.948 197.045 361.857 197.488 361.676 197.904C361.505 198.309 361.265 198.667 360.956 198.976C360.647 199.285 360.284 199.531 359.868 199.712C359.463 199.893 359.02 199.984 358.54 199.984C358.071 199.984 357.628 199.893 357.212 199.712C356.807 199.531 356.449 199.285 356.14 198.976C355.831 198.667 355.585 198.309 355.404 197.904C355.223 197.488 355.132 197.045 355.132 196.576Z" fill="black"/>
<mask id="path-21-inside-7_68467_35775" fill="white">
<path d="M396 170C396 167.791 397.791 166 400 166H443C445.209 166 447 167.791 447 170V222C447 224.209 445.209 226 443 226H400C397.791 226 396 224.209 396 222V170Z"/>
</mask>
<path d="M396 170C396 167.791 397.791 166 400 166H443C445.209 166 447 167.791 447 170V222C447 224.209 445.209 226 443 226H400C397.791 226 396 224.209 396 222V170Z" fill="black" fill-opacity="0.12"/>
<path d="M396 166H447H396ZM447 222C447 225.314 444.314 228 441 228H402C398.686 228 396 225.314 396 222C396 223.105 397.791 224 400 224H443C445.209 224 447 223.105 447 222ZM396 226V166V226ZM447 166V226V166Z" fill="black" mask="url(#path-21-inside-7_68467_35775)"/>
<path d="M420.959 189.424H422.047V205.408H420.959V189.424Z" fill="black"/>
<mask id="path-24-inside-8_68467_35775" fill="white">
<path d="M459 170C459 167.791 460.791 166 463 166H506C508.209 166 510 167.791 510 170V222C510 224.209 508.209 226 506 226H463C460.791 226 459 224.209 459 222V170Z"/>
</mask>
<path d="M459 170C459 167.791 460.791 166 463 166H506C508.209 166 510 167.791 510 170V222C510 224.209 508.209 226 506 226H463C460.791 226 459 224.209 459 222V170Z" fill="black" fill-opacity="0.04"/>
<path d="M459 166H510H459ZM510 222C510 224.761 507.761 227 505 227H464C461.239 227 459 224.761 459 222C459 223.657 460.791 225 463 225H506C508.209 225 510 223.657 510 222ZM459 226V166V226ZM510 166V226V166Z" fill="black" fill-opacity="0.2" mask="url(#path-24-inside-8_68467_35775)"/>
<path d="M482.191 196.912H486.815V198.192H482.191V196.912Z" fill="black" fill-opacity="0.68"/>
</svg>
