<svg width="960" height="260" viewBox="0 0 960 260" fill="none" xmlns="http://www.w3.org/2000/svg">
<rect width="960" height="260" fill="#F6F7FC"/>
<g clip-path="url(#clip0_397_12294)">
<path d="M237.5 72.5L294.5 72.5L294.5 74.5L237.5 74.5L237.5 72.5Z" fill="#3A6CE9" stroke="white"/>
<rect x="238" y="86" width="24" height="24" rx="12" transform="rotate(-90 238 86)" fill="black"/>
<path d="M251.569 70.2727V79H249.724V72.0241H249.672L247.674 73.277V71.6406L249.834 70.2727H251.569Z" fill="white"/>
</g>
<g clip-path="url(#clip1_397_12294)">
<path d="M491.5 26.5V70.5H489.5V26.5H491.5Z" fill="#3A6CE9" stroke="white"/>
<rect x="478" y="27" width="24" height="24" rx="12" fill="black"/>
<path d="M486.928 44V42.6705L490.035 39.794C490.299 39.5384 490.52 39.3082 490.699 39.1037C490.881 38.8991 491.019 38.6989 491.113 38.5028C491.206 38.304 491.253 38.0895 491.253 37.8594C491.253 37.6037 491.195 37.3835 491.079 37.1989C490.962 37.0114 490.803 36.8679 490.601 36.7685C490.4 36.6662 490.171 36.6151 489.915 36.6151C489.648 36.6151 489.415 36.669 489.216 36.777C489.018 36.8849 488.864 37.0398 488.756 37.2415C488.648 37.4432 488.594 37.6832 488.594 37.9616H486.843C486.843 37.3906 486.972 36.8949 487.231 36.4744C487.489 36.054 487.851 35.7287 488.317 35.4986C488.783 35.2685 489.32 35.1534 489.928 35.1534C490.553 35.1534 491.097 35.2642 491.56 35.4858C492.026 35.7045 492.388 36.0085 492.647 36.3977C492.905 36.7869 493.035 37.233 493.035 37.7358C493.035 38.0653 492.969 38.3906 492.839 38.7116C492.711 39.0327 492.482 39.3892 492.153 39.7812C491.823 40.1705 491.358 40.6378 490.759 41.1832L489.485 42.4318V42.4915H493.15V44H486.928Z" fill="white"/>
</g>
<g clip-path="url(#clip2_397_12294)">
<path d="M730.5 95.5L445.764 95.5L445.764 93.5L730.5 93.5L730.5 95.5Z" fill="#3A6CE9" stroke="white"/>
<rect x="706" y="106" width="24" height="24" rx="12" transform="rotate(-90 706 106)" fill="black"/>
<path d="M717.978 99.1193C717.342 99.1193 716.775 99.0099 716.278 98.7912C715.784 98.5696 715.393 98.2656 715.106 97.8793C714.822 97.4901 714.676 97.0412 714.667 96.5327H716.525C716.536 96.7457 716.606 96.9332 716.734 97.0952C716.865 97.2543 717.038 97.3778 717.254 97.4659C717.47 97.554 717.713 97.598 717.982 97.598C718.264 97.598 718.512 97.5483 718.728 97.4489C718.944 97.3494 719.113 97.2116 719.235 97.0355C719.357 96.8594 719.419 96.6562 719.419 96.4261C719.419 96.1932 719.353 95.9872 719.222 95.8082C719.095 95.6264 718.91 95.4844 718.669 95.3821C718.43 95.2798 718.146 95.2287 717.816 95.2287H717.002V93.8736H717.816C718.095 93.8736 718.34 93.8253 718.553 93.7287C718.769 93.6321 718.937 93.4986 719.056 93.3281C719.176 93.1548 719.235 92.9531 719.235 92.723C719.235 92.5043 719.183 92.3125 719.078 92.1477C718.975 91.9801 718.83 91.8494 718.643 91.7557C718.458 91.6619 718.242 91.6151 717.995 91.6151C717.745 91.6151 717.517 91.6605 717.309 91.7514C717.102 91.8395 716.936 91.9659 716.811 92.1307C716.686 92.2955 716.619 92.4886 716.61 92.7102H714.842C714.85 92.2074 714.994 91.7642 715.272 91.3807C715.551 90.9972 715.926 90.6974 716.397 90.4815C716.872 90.2628 717.407 90.1534 718.004 90.1534C718.606 90.1534 719.133 90.2628 719.585 90.4815C720.036 90.7003 720.387 90.9957 720.637 91.3679C720.89 91.7372 721.015 92.152 721.012 92.6122C721.015 93.1009 720.863 93.5085 720.556 93.8352C720.252 94.1619 719.856 94.3693 719.367 94.4574V94.5256C720.009 94.608 720.498 94.831 720.833 95.1946C721.171 95.5554 721.339 96.0071 721.336 96.5497C721.339 97.0469 721.195 97.4886 720.906 97.875C720.619 98.2614 720.222 98.5653 719.717 98.7869C719.211 99.0085 718.632 99.1193 717.978 99.1193Z" fill="white"/>
</g>
<g clip-path="url(#clip3_397_12294)">
<path d="M316.5 235.5L316.5 195.5L318.5 195.5L318.5 235.5L316.5 235.5Z" fill="#3A6CE9" stroke="white"/>
<rect x="306" y="211" width="24" height="24" rx="12" fill="black"/>
<path d="M315.009 226.466V225.013L318.652 219.273H319.905V221.284H319.164L316.867 224.919V224.987H322.044V226.466H315.009ZM319.198 228V226.023L319.232 225.379V219.273H320.962V228H319.198Z" fill="white"/>
</g>
<mask id="path-13-inside-1_397_12294" fill="white">
<path d="M286 56H674V164H286V56Z"/>
</mask>
<path d="M286 56H674V164H286V56Z" fill="black" fill-opacity="0.04"/>
<path d="M674 164V163H286V164V165H674V164Z" fill="black" fill-opacity="0.2" mask="url(#path-13-inside-1_397_12294)"/>
<path d="M304.412 74.46H307.316L305.888 70.464H305.864L304.412 74.46ZM305.264 69.432H306.524L309.872 78H308.612L307.676 75.42H304.052L303.092 78H301.928L305.264 69.432ZM311.473 74.952C311.473 75.24 311.509 75.524 311.581 75.804C311.661 76.076 311.777 76.32 311.929 76.536C312.089 76.752 312.289 76.924 312.529 77.052C312.777 77.18 313.065 77.244 313.393 77.244C313.737 77.244 314.029 77.176 314.269 77.04C314.509 76.904 314.705 76.728 314.857 76.512C315.009 76.288 315.117 76.036 315.181 75.756C315.253 75.476 315.289 75.192 315.289 74.904C315.289 74.6 315.253 74.308 315.181 74.028C315.109 73.74 314.993 73.488 314.833 73.272C314.681 73.056 314.481 72.884 314.233 72.756C313.985 72.62 313.685 72.552 313.333 72.552C312.989 72.552 312.697 72.62 312.457 72.756C312.217 72.892 312.025 73.072 311.881 73.296C311.737 73.52 311.633 73.776 311.569 74.064C311.505 74.352 311.473 74.648 311.473 74.952ZM316.273 78H315.253V77.16H315.229C315.061 77.504 314.797 77.752 314.437 77.904C314.077 78.056 313.681 78.132 313.249 78.132C312.769 78.132 312.349 78.044 311.989 77.868C311.637 77.692 311.341 77.456 311.101 77.16C310.869 76.864 310.693 76.52 310.573 76.128C310.453 75.736 310.393 75.32 310.393 74.88C310.393 74.44 310.449 74.024 310.561 73.632C310.681 73.24 310.857 72.9 311.089 72.612C311.329 72.316 311.625 72.084 311.977 71.916C312.337 71.74 312.753 71.652 313.225 71.652C313.385 71.652 313.557 71.668 313.741 71.7C313.925 71.732 314.109 71.788 314.293 71.868C314.477 71.94 314.649 72.04 314.809 72.168C314.977 72.288 315.117 72.44 315.229 72.624H315.253V69.432H316.273V78ZM318.767 74.952C318.767 75.24 318.803 75.524 318.875 75.804C318.955 76.076 319.071 76.32 319.223 76.536C319.383 76.752 319.583 76.924 319.823 77.052C320.071 77.18 320.359 77.244 320.687 77.244C321.031 77.244 321.323 77.176 321.563 77.04C321.803 76.904 321.999 76.728 322.151 76.512C322.303 76.288 322.411 76.036 322.475 75.756C322.547 75.476 322.583 75.192 322.583 74.904C322.583 74.6 322.547 74.308 322.475 74.028C322.403 73.74 322.287 73.488 322.127 73.272C321.975 73.056 321.775 72.884 321.527 72.756C321.279 72.62 320.979 72.552 320.627 72.552C320.283 72.552 319.991 72.62 319.751 72.756C319.511 72.892 319.319 73.072 319.175 73.296C319.031 73.52 318.927 73.776 318.863 74.064C318.799 74.352 318.767 74.648 318.767 74.952ZM323.567 78H322.547V77.16H322.523C322.355 77.504 322.091 77.752 321.731 77.904C321.371 78.056 320.975 78.132 320.543 78.132C320.063 78.132 319.643 78.044 319.283 77.868C318.931 77.692 318.635 77.456 318.395 77.16C318.163 76.864 317.987 76.52 317.867 76.128C317.747 75.736 317.687 75.32 317.687 74.88C317.687 74.44 317.743 74.024 317.855 73.632C317.975 73.24 318.151 72.9 318.383 72.612C318.623 72.316 318.919 72.084 319.271 71.916C319.631 71.74 320.047 71.652 320.519 71.652C320.679 71.652 320.851 71.668 321.035 71.7C321.219 71.732 321.403 71.788 321.587 71.868C321.771 71.94 321.943 72.04 322.103 72.168C322.271 72.288 322.411 72.44 322.523 72.624H322.547V69.432H323.567V78ZM326.396 70.68H325.376V69.432H326.396V70.68ZM325.376 71.796H326.396V78H325.376V71.796ZM329.572 71.796H330.808V72.696H329.572V76.548C329.572 76.668 329.58 76.764 329.596 76.836C329.62 76.908 329.66 76.964 329.716 77.004C329.772 77.044 329.848 77.072 329.944 77.088C330.048 77.096 330.18 77.1 330.34 77.1H330.808V78H330.028C329.764 78 329.536 77.984 329.344 77.952C329.16 77.912 329.008 77.844 328.888 77.748C328.776 77.652 328.692 77.516 328.636 77.34C328.58 77.164 328.552 76.932 328.552 76.644V72.696H327.496V71.796H328.552V69.936H329.572V71.796ZM333.201 70.68H332.181V69.432H333.201V70.68ZM332.181 71.796H333.201V78H332.181V71.796ZM335.705 74.904C335.705 75.28 335.753 75.616 335.849 75.912C335.953 76.2 336.093 76.444 336.269 76.644C336.445 76.836 336.649 76.984 336.881 77.088C337.121 77.192 337.373 77.244 337.637 77.244C337.901 77.244 338.149 77.192 338.381 77.088C338.621 76.984 338.829 76.836 339.005 76.644C339.181 76.444 339.317 76.2 339.413 75.912C339.517 75.616 339.569 75.28 339.569 74.904C339.569 74.528 339.517 74.196 339.413 73.908C339.317 73.612 339.181 73.364 339.005 73.164C338.829 72.964 338.621 72.812 338.381 72.708C338.149 72.604 337.901 72.552 337.637 72.552C337.373 72.552 337.121 72.604 336.881 72.708C336.649 72.812 336.445 72.964 336.269 73.164C336.093 73.364 335.953 73.612 335.849 73.908C335.753 74.196 335.705 74.528 335.705 74.904ZM334.625 74.904C334.625 74.448 334.689 74.024 334.817 73.632C334.945 73.232 335.137 72.888 335.393 72.6C335.649 72.304 335.965 72.072 336.341 71.904C336.717 71.736 337.149 71.652 337.637 71.652C338.133 71.652 338.565 71.736 338.933 71.904C339.309 72.072 339.625 72.304 339.881 72.6C340.137 72.888 340.329 73.232 340.457 73.632C340.585 74.024 340.649 74.448 340.649 74.904C340.649 75.36 340.585 75.784 340.457 76.176C340.329 76.568 340.137 76.912 339.881 77.208C339.625 77.496 339.309 77.724 338.933 77.892C338.565 78.052 338.133 78.132 337.637 78.132C337.149 78.132 336.717 78.052 336.341 77.892C335.965 77.724 335.649 77.496 335.393 77.208C335.137 76.912 334.945 76.568 334.817 76.176C334.689 75.784 334.625 75.36 334.625 74.904ZM342.032 71.796H342.992V72.78H343.016C343.44 72.028 344.112 71.652 345.032 71.652C345.44 71.652 345.78 71.708 346.052 71.82C346.324 71.932 346.544 72.088 346.712 72.288C346.88 72.488 346.996 72.728 347.06 73.008C347.132 73.28 347.168 73.584 347.168 73.92V78H346.148V73.8C346.148 73.416 346.036 73.112 345.812 72.888C345.588 72.664 345.28 72.552 344.888 72.552C344.576 72.552 344.304 72.6 344.072 72.696C343.848 72.792 343.66 72.928 343.508 73.104C343.356 73.28 343.24 73.488 343.16 73.728C343.088 73.96 343.052 74.216 343.052 74.496V78H342.032V71.796ZM354.376 77.976C354.2 78.08 353.956 78.132 353.644 78.132C353.38 78.132 353.168 78.06 353.008 77.916C352.856 77.764 352.78 77.52 352.78 77.184C352.5 77.52 352.172 77.764 351.796 77.916C351.428 78.06 351.028 78.132 350.596 78.132C350.316 78.132 350.048 78.1 349.792 78.036C349.544 77.972 349.328 77.872 349.144 77.736C348.96 77.6 348.812 77.424 348.7 77.208C348.596 76.984 348.544 76.716 348.544 76.404C348.544 76.052 348.604 75.764 348.724 75.54C348.844 75.316 349 75.136 349.192 75C349.392 74.856 349.616 74.748 349.864 74.676C350.12 74.604 350.38 74.544 350.644 74.496C350.924 74.44 351.188 74.4 351.436 74.376C351.692 74.344 351.916 74.304 352.108 74.256C352.3 74.2 352.452 74.124 352.564 74.028C352.676 73.924 352.732 73.776 352.732 73.584C352.732 73.36 352.688 73.18 352.6 73.044C352.52 72.908 352.412 72.804 352.276 72.732C352.148 72.66 352 72.612 351.832 72.588C351.672 72.564 351.512 72.552 351.352 72.552C350.92 72.552 350.56 72.636 350.272 72.804C349.984 72.964 349.828 73.272 349.804 73.728H348.784C348.8 73.344 348.88 73.02 349.024 72.756C349.168 72.492 349.36 72.28 349.6 72.12C349.84 71.952 350.112 71.832 350.416 71.76C350.728 71.688 351.06 71.652 351.412 71.652C351.692 71.652 351.968 71.672 352.24 71.712C352.52 71.752 352.772 71.836 352.996 71.964C353.22 72.084 353.4 72.256 353.536 72.48C353.672 72.704 353.74 72.996 353.74 73.356V76.548C353.74 76.788 353.752 76.964 353.776 77.076C353.808 77.188 353.904 77.244 354.064 77.244C354.152 77.244 354.256 77.224 354.376 77.184V77.976ZM352.72 74.796C352.592 74.892 352.424 74.964 352.216 75.012C352.008 75.052 351.788 75.088 351.556 75.12C351.332 75.144 351.104 75.176 350.872 75.216C350.64 75.248 350.432 75.304 350.248 75.384C350.064 75.464 349.912 75.58 349.792 75.732C349.68 75.876 349.624 76.076 349.624 76.332C349.624 76.5 349.656 76.644 349.72 76.764C349.792 76.876 349.88 76.968 349.984 77.04C350.096 77.112 350.224 77.164 350.368 77.196C350.512 77.228 350.664 77.244 350.824 77.244C351.16 77.244 351.448 77.2 351.688 77.112C351.928 77.016 352.124 76.9 352.276 76.764C352.428 76.62 352.54 76.468 352.612 76.308C352.684 76.14 352.72 75.984 352.72 75.84V74.796ZM355.565 69.432H356.585V78H355.565V69.432ZM366.077 73.788C365.997 73.396 365.829 73.092 365.573 72.876C365.317 72.66 364.973 72.552 364.541 72.552C364.173 72.552 363.865 72.62 363.617 72.756C363.369 72.892 363.169 73.072 363.017 73.296C362.873 73.52 362.769 73.78 362.705 74.076C362.641 74.364 362.609 74.664 362.609 74.976C362.609 75.264 362.641 75.544 362.705 75.816C362.777 76.088 362.885 76.332 363.029 76.548C363.173 76.756 363.361 76.924 363.593 77.052C363.825 77.18 364.101 77.244 364.421 77.244C364.925 77.244 365.317 77.112 365.597 76.848C365.885 76.584 366.061 76.212 366.125 75.732H367.169C367.057 76.5 366.769 77.092 366.305 77.508C365.849 77.924 365.225 78.132 364.433 78.132C363.961 78.132 363.541 78.056 363.173 77.904C362.813 77.752 362.509 77.536 362.261 77.256C362.021 76.976 361.837 76.644 361.709 76.26C361.589 75.868 361.529 75.44 361.529 74.976C361.529 74.512 361.589 74.08 361.709 73.68C361.829 73.272 362.009 72.92 362.249 72.624C362.497 72.32 362.805 72.084 363.173 71.916C363.541 71.74 363.969 71.652 364.457 71.652C364.809 71.652 365.137 71.696 365.441 71.784C365.753 71.864 366.025 71.992 366.257 72.168C366.497 72.344 366.693 72.568 366.845 72.84C366.997 73.104 367.093 73.42 367.133 73.788H366.077ZM369.235 74.904C369.235 75.28 369.283 75.616 369.379 75.912C369.483 76.2 369.623 76.444 369.799 76.644C369.975 76.836 370.179 76.984 370.411 77.088C370.651 77.192 370.903 77.244 371.167 77.244C371.431 77.244 371.679 77.192 371.911 77.088C372.151 76.984 372.359 76.836 372.535 76.644C372.711 76.444 372.847 76.2 372.943 75.912C373.047 75.616 373.099 75.28 373.099 74.904C373.099 74.528 373.047 74.196 372.943 73.908C372.847 73.612 372.711 73.364 372.535 73.164C372.359 72.964 372.151 72.812 371.911 72.708C371.679 72.604 371.431 72.552 371.167 72.552C370.903 72.552 370.651 72.604 370.411 72.708C370.179 72.812 369.975 72.964 369.799 73.164C369.623 73.364 369.483 73.612 369.379 73.908C369.283 74.196 369.235 74.528 369.235 74.904ZM368.155 74.904C368.155 74.448 368.219 74.024 368.347 73.632C368.475 73.232 368.667 72.888 368.923 72.6C369.179 72.304 369.495 72.072 369.871 71.904C370.247 71.736 370.679 71.652 371.167 71.652C371.663 71.652 372.095 71.736 372.463 71.904C372.839 72.072 373.155 72.304 373.411 72.6C373.667 72.888 373.859 73.232 373.987 73.632C374.115 74.024 374.179 74.448 374.179 74.904C374.179 75.36 374.115 75.784 373.987 76.176C373.859 76.568 373.667 76.912 373.411 77.208C373.155 77.496 372.839 77.724 372.463 77.892C372.095 78.052 371.663 78.132 371.167 78.132C370.679 78.132 370.247 78.052 369.871 77.892C369.495 77.724 369.179 77.496 368.923 77.208C368.667 76.912 368.475 76.568 368.347 76.176C368.219 75.784 368.155 75.36 368.155 74.904ZM375.561 71.796H376.521V72.708H376.545C377.009 72.004 377.677 71.652 378.549 71.652C378.933 71.652 379.281 71.732 379.593 71.892C379.905 72.052 380.125 72.324 380.253 72.708C380.461 72.372 380.733 72.112 381.069 71.928C381.413 71.744 381.789 71.652 382.197 71.652C382.509 71.652 382.789 71.688 383.037 71.76C383.293 71.824 383.509 71.928 383.685 72.072C383.869 72.216 384.009 72.404 384.105 72.636C384.209 72.86 384.261 73.132 384.261 73.452V78H383.241V73.932C383.241 73.74 383.225 73.56 383.193 73.392C383.161 73.224 383.101 73.08 383.013 72.96C382.925 72.832 382.801 72.732 382.641 72.66C382.489 72.588 382.289 72.552 382.041 72.552C381.537 72.552 381.141 72.696 380.853 72.984C380.565 73.272 380.421 73.656 380.421 74.136V78H379.401V73.932C379.401 73.732 379.381 73.548 379.341 73.38C379.309 73.212 379.249 73.068 379.161 72.948C379.073 72.82 378.953 72.724 378.801 72.66C378.657 72.588 378.469 72.552 378.237 72.552C377.941 72.552 377.685 72.612 377.469 72.732C377.261 72.852 377.089 72.996 376.953 73.164C376.825 73.332 376.729 73.508 376.665 73.692C376.609 73.868 376.581 74.016 376.581 74.136V78H375.561V71.796ZM385.972 71.796H386.932V72.708H386.956C387.42 72.004 388.088 71.652 388.96 71.652C389.344 71.652 389.692 71.732 390.004 71.892C390.316 72.052 390.536 72.324 390.664 72.708C390.872 72.372 391.144 72.112 391.48 71.928C391.824 71.744 392.2 71.652 392.608 71.652C392.92 71.652 393.2 71.688 393.448 71.76C393.704 71.824 393.92 71.928 394.096 72.072C394.28 72.216 394.42 72.404 394.516 72.636C394.62 72.86 394.672 73.132 394.672 73.452V78H393.652V73.932C393.652 73.74 393.636 73.56 393.604 73.392C393.572 73.224 393.512 73.08 393.424 72.96C393.336 72.832 393.212 72.732 393.052 72.66C392.9 72.588 392.7 72.552 392.452 72.552C391.948 72.552 391.552 72.696 391.264 72.984C390.976 73.272 390.832 73.656 390.832 74.136V78H389.812V73.932C389.812 73.732 389.792 73.548 389.752 73.38C389.72 73.212 389.66 73.068 389.572 72.948C389.484 72.82 389.364 72.724 389.212 72.66C389.068 72.588 388.88 72.552 388.648 72.552C388.352 72.552 388.096 72.612 387.88 72.732C387.672 72.852 387.5 72.996 387.364 73.164C387.236 73.332 387.14 73.508 387.076 73.692C387.02 73.868 386.992 74.016 386.992 74.136V78H385.972V71.796ZM400.69 74.304C400.674 74.064 400.618 73.836 400.522 73.62C400.434 73.404 400.31 73.22 400.15 73.068C399.998 72.908 399.814 72.784 399.598 72.696C399.39 72.6 399.158 72.552 398.902 72.552C398.638 72.552 398.398 72.6 398.182 72.696C397.974 72.784 397.794 72.908 397.642 73.068C397.49 73.228 397.37 73.416 397.282 73.632C397.194 73.84 397.142 74.064 397.126 74.304H400.69ZM401.674 76.032C401.538 76.728 401.238 77.252 400.774 77.604C400.31 77.956 399.726 78.132 399.022 78.132C398.526 78.132 398.094 78.052 397.726 77.892C397.366 77.732 397.062 77.508 396.814 77.22C396.566 76.932 396.378 76.588 396.25 76.188C396.13 75.788 396.062 75.352 396.046 74.88C396.046 74.408 396.118 73.976 396.262 73.584C396.406 73.192 396.606 72.852 396.862 72.564C397.126 72.276 397.434 72.052 397.786 71.892C398.146 71.732 398.538 71.652 398.962 71.652C399.514 71.652 399.97 71.768 400.33 72C400.698 72.224 400.99 72.512 401.206 72.864C401.43 73.216 401.582 73.6 401.662 74.016C401.75 74.432 401.786 74.828 401.77 75.204H397.126C397.118 75.476 397.15 75.736 397.222 75.984C397.294 76.224 397.41 76.44 397.57 76.632C397.73 76.816 397.934 76.964 398.182 77.076C398.43 77.188 398.722 77.244 399.058 77.244C399.49 77.244 399.842 77.144 400.114 76.944C400.394 76.744 400.578 76.44 400.666 76.032H401.674ZM403.007 71.796H403.967V72.78H403.991C404.415 72.028 405.087 71.652 406.007 71.652C406.415 71.652 406.755 71.708 407.027 71.82C407.299 71.932 407.519 72.088 407.687 72.288C407.855 72.488 407.971 72.728 408.035 73.008C408.107 73.28 408.143 73.584 408.143 73.92V78H407.123V73.8C407.123 73.416 407.011 73.112 406.787 72.888C406.563 72.664 406.255 72.552 405.863 72.552C405.551 72.552 405.279 72.6 405.047 72.696C404.823 72.792 404.635 72.928 404.483 73.104C404.331 73.28 404.215 73.488 404.135 73.728C404.063 73.96 404.027 74.216 404.027 74.496V78H403.007V71.796ZM411.271 71.796H412.507V72.696H411.271V76.548C411.271 76.668 411.279 76.764 411.295 76.836C411.319 76.908 411.359 76.964 411.415 77.004C411.471 77.044 411.547 77.072 411.643 77.088C411.747 77.096 411.879 77.1 412.039 77.1H412.507V78H411.727C411.463 78 411.235 77.984 411.043 77.952C410.859 77.912 410.707 77.844 410.587 77.748C410.475 77.652 410.391 77.516 410.335 77.34C410.279 77.164 410.251 76.932 410.251 76.644V72.696H409.195V71.796H410.251V69.936H411.271V71.796ZM414.444 76.044C414.452 76.268 414.504 76.46 414.6 76.62C414.696 76.772 414.82 76.896 414.972 76.992C415.132 77.08 415.308 77.144 415.5 77.184C415.7 77.224 415.904 77.244 416.112 77.244C416.272 77.244 416.44 77.232 416.616 77.208C416.792 77.184 416.952 77.14 417.096 77.076C417.248 77.012 417.372 76.92 417.468 76.8C417.564 76.672 417.612 76.512 417.612 76.32C417.612 76.056 417.512 75.856 417.312 75.72C417.112 75.584 416.86 75.476 416.556 75.396C416.26 75.308 415.936 75.232 415.584 75.168C415.232 75.096 414.904 75 414.6 74.88C414.304 74.752 414.056 74.576 413.856 74.352C413.656 74.128 413.556 73.816 413.556 73.416C413.556 73.104 413.624 72.836 413.76 72.612C413.904 72.388 414.084 72.208 414.3 72.072C414.524 71.928 414.772 71.824 415.044 71.76C415.324 71.688 415.6 71.652 415.872 71.652C416.224 71.652 416.548 71.684 416.844 71.748C417.14 71.804 417.4 71.908 417.624 72.06C417.856 72.204 418.04 72.404 418.176 72.66C418.312 72.908 418.392 73.22 418.416 73.596H417.396C417.38 73.396 417.328 73.232 417.24 73.104C417.152 72.968 417.04 72.86 416.904 72.78C416.768 72.7 416.616 72.644 416.448 72.612C416.288 72.572 416.124 72.552 415.956 72.552C415.804 72.552 415.648 72.564 415.488 72.588C415.336 72.612 415.196 72.656 415.068 72.72C414.94 72.776 414.836 72.856 414.756 72.96C414.676 73.056 414.636 73.184 414.636 73.344C414.636 73.52 414.696 73.668 414.816 73.788C414.944 73.9 415.104 73.996 415.296 74.076C415.488 74.148 415.704 74.212 415.944 74.268C416.184 74.316 416.424 74.368 416.664 74.424C416.92 74.48 417.168 74.548 417.408 74.628C417.656 74.708 417.872 74.816 418.056 74.952C418.248 75.08 418.4 75.244 418.512 75.444C418.632 75.644 418.692 75.892 418.692 76.188C418.692 76.564 418.612 76.876 418.452 77.124C418.3 77.372 418.096 77.572 417.84 77.724C417.592 77.876 417.308 77.98 416.988 78.036C416.676 78.1 416.364 78.132 416.052 78.132C415.708 78.132 415.38 78.096 415.068 78.024C414.756 77.952 414.48 77.836 414.24 77.676C414 77.508 413.808 77.292 413.664 77.028C413.52 76.756 413.44 76.428 413.424 76.044H414.444Z" fill="black" fill-opacity="0.68"/>
<path d="M304.768 98.72H307.296C307.467 98.72 307.68 98.7093 307.936 98.688C308.192 98.656 308.464 98.592 308.752 98.496C309.04 98.3893 309.323 98.24 309.6 98.048C309.888 97.856 310.144 97.5947 310.368 97.264C310.592 96.9333 310.773 96.5227 310.912 96.032C311.061 95.5307 311.136 94.928 311.136 94.224C311.136 93.5413 311.067 92.9333 310.928 92.4C310.8 91.856 310.581 91.3973 310.272 91.024C309.973 90.64 309.584 90.352 309.104 90.16C308.624 89.9573 308.032 89.856 307.328 89.856H304.768V98.72ZM303.248 88.576H307.168C308.928 88.576 310.283 89.024 311.232 89.92C312.181 90.816 312.656 92.1813 312.656 94.016C312.656 94.976 312.549 95.8293 312.336 96.576C312.123 97.312 311.792 97.936 311.344 98.448C310.896 98.9493 310.325 99.3333 309.632 99.6C308.939 99.8667 308.117 100 307.168 100H303.248V88.576ZM320.234 95.072C320.212 94.752 320.138 94.448 320.01 94.16C319.892 93.872 319.727 93.6267 319.514 93.424C319.311 93.2107 319.066 93.0453 318.778 92.928C318.5 92.8 318.191 92.736 317.85 92.736C317.498 92.736 317.178 92.8 316.89 92.928C316.612 93.0453 316.372 93.2107 316.17 93.424C315.967 93.6373 315.807 93.888 315.69 94.176C315.572 94.4533 315.503 94.752 315.482 95.072H320.234ZM321.546 97.376C321.364 98.304 320.964 99.0027 320.346 99.472C319.727 99.9413 318.948 100.176 318.01 100.176C317.348 100.176 316.772 100.069 316.282 99.856C315.802 99.6427 315.396 99.344 315.066 98.96C314.735 98.576 314.484 98.1173 314.314 97.584C314.154 97.0507 314.063 96.4693 314.042 95.84C314.042 95.2107 314.138 94.6347 314.33 94.112C314.522 93.5893 314.788 93.136 315.13 92.752C315.482 92.368 315.892 92.0693 316.362 91.856C316.842 91.6427 317.364 91.536 317.93 91.536C318.666 91.536 319.274 91.6907 319.754 92C320.244 92.2987 320.634 92.6827 320.922 93.152C321.22 93.6213 321.423 94.1333 321.53 94.688C321.647 95.2427 321.695 95.7707 321.674 96.272H315.482C315.471 96.6347 315.514 96.9813 315.61 97.312C315.706 97.632 315.86 97.92 316.074 98.176C316.287 98.4213 316.559 98.6187 316.89 98.768C317.22 98.9173 317.61 98.992 318.058 98.992C318.634 98.992 319.103 98.8587 319.466 98.592C319.839 98.3253 320.084 97.92 320.202 97.376H321.546ZM324.115 97.392C324.126 97.6907 324.195 97.9467 324.323 98.16C324.451 98.3627 324.617 98.528 324.819 98.656C325.033 98.7733 325.267 98.8587 325.523 98.912C325.79 98.9653 326.062 98.992 326.339 98.992C326.553 98.992 326.777 98.976 327.011 98.944C327.246 98.912 327.459 98.8533 327.651 98.768C327.854 98.6827 328.019 98.56 328.147 98.4C328.275 98.2293 328.339 98.016 328.339 97.76C328.339 97.408 328.206 97.1413 327.939 96.96C327.673 96.7787 327.337 96.6347 326.931 96.528C326.537 96.4107 326.105 96.3093 325.635 96.224C325.166 96.128 324.729 96 324.323 95.84C323.929 95.6693 323.598 95.4347 323.331 95.136C323.065 94.8373 322.931 94.4213 322.931 93.888C322.931 93.472 323.022 93.1147 323.203 92.816C323.395 92.5173 323.635 92.2773 323.923 92.096C324.222 91.904 324.553 91.7653 324.915 91.68C325.289 91.584 325.657 91.536 326.019 91.536C326.489 91.536 326.921 91.5787 327.315 91.664C327.71 91.7387 328.057 91.8773 328.355 92.08C328.665 92.272 328.91 92.5387 329.091 92.88C329.273 93.2107 329.379 93.6267 329.411 94.128H328.051C328.03 93.8613 327.961 93.6427 327.843 93.472C327.726 93.2907 327.577 93.1467 327.395 93.04C327.214 92.9333 327.011 92.8587 326.787 92.816C326.574 92.7627 326.355 92.736 326.131 92.736C325.929 92.736 325.721 92.752 325.507 92.784C325.305 92.816 325.118 92.8747 324.947 92.96C324.777 93.0347 324.638 93.1413 324.531 93.28C324.425 93.408 324.371 93.5787 324.371 93.792C324.371 94.0267 324.451 94.224 324.611 94.384C324.782 94.5333 324.995 94.6613 325.251 94.768C325.507 94.864 325.795 94.9493 326.115 95.024C326.435 95.088 326.755 95.1573 327.075 95.232C327.417 95.3067 327.747 95.3973 328.067 95.504C328.398 95.6107 328.686 95.7547 328.931 95.936C329.187 96.1067 329.39 96.3253 329.539 96.592C329.699 96.8587 329.779 97.1893 329.779 97.584C329.779 98.0853 329.673 98.5013 329.459 98.832C329.257 99.1627 328.985 99.4293 328.643 99.632C328.313 99.8347 327.934 99.9733 327.507 100.048C327.091 100.133 326.675 100.176 326.259 100.176C325.801 100.176 325.363 100.128 324.947 100.032C324.531 99.936 324.163 99.7813 323.843 99.568C323.523 99.344 323.267 99.056 323.075 98.704C322.883 98.3413 322.777 97.904 322.755 97.392H324.115ZM337.099 94.384C336.993 93.8613 336.769 93.456 336.427 93.168C336.086 92.88 335.627 92.736 335.051 92.736C334.561 92.736 334.15 92.8267 333.819 93.008C333.489 93.1893 333.222 93.4293 333.019 93.728C332.827 94.0267 332.689 94.3733 332.603 94.768C332.518 95.152 332.475 95.552 332.475 95.968C332.475 96.352 332.518 96.7253 332.603 97.088C332.699 97.4507 332.843 97.776 333.035 98.064C333.227 98.3413 333.478 98.5653 333.787 98.736C334.097 98.9067 334.465 98.992 334.891 98.992C335.563 98.992 336.086 98.816 336.459 98.464C336.843 98.112 337.078 97.616 337.163 96.976H338.555C338.406 98 338.022 98.7893 337.403 99.344C336.795 99.8987 335.963 100.176 334.907 100.176C334.278 100.176 333.718 100.075 333.227 99.872C332.747 99.6693 332.342 99.3813 332.011 99.008C331.691 98.6347 331.446 98.192 331.275 97.68C331.115 97.1573 331.035 96.5867 331.035 95.968C331.035 95.3493 331.115 94.7733 331.275 94.24C331.435 93.696 331.675 93.2267 331.995 92.832C332.326 92.4267 332.737 92.112 333.227 91.888C333.718 91.6533 334.289 91.536 334.939 91.536C335.409 91.536 335.846 91.5947 336.251 91.712C336.667 91.8187 337.03 91.9893 337.339 92.224C337.659 92.4587 337.921 92.7573 338.123 93.12C338.326 93.472 338.454 93.8933 338.507 94.384H337.099ZM340.229 91.728H341.509V93.472H341.541C341.872 92.8 342.277 92.304 342.757 91.984C343.237 91.664 343.845 91.5147 344.581 91.536V92.976C344.037 92.976 343.573 93.0507 343.189 93.2C342.805 93.3493 342.496 93.568 342.261 93.856C342.026 94.144 341.856 94.496 341.749 94.912C341.642 95.3173 341.589 95.7867 341.589 96.32V100H340.229V91.728ZM347.245 90.24H345.885V88.576H347.245V90.24ZM345.885 91.728H347.245V100H345.885V91.728ZM349.6 88.576H350.96V92.848H350.992C351.216 92.3893 351.568 92.0587 352.048 91.856C352.528 91.6427 353.056 91.536 353.632 91.536C354.272 91.536 354.827 91.6533 355.296 91.888C355.776 92.1227 356.171 92.4427 356.48 92.848C356.8 93.2427 357.04 93.7013 357.2 94.224C357.36 94.7467 357.44 95.3013 357.44 95.888C357.44 96.4747 357.36 97.0293 357.2 97.552C357.051 98.0747 356.816 98.5333 356.496 98.928C356.187 99.312 355.792 99.616 355.312 99.84C354.843 100.064 354.293 100.176 353.664 100.176C353.461 100.176 353.232 100.155 352.976 100.112C352.731 100.069 352.485 100 352.24 99.904C351.995 99.808 351.76 99.68 351.536 99.52C351.323 99.3493 351.141 99.1413 350.992 98.896H350.96V100H349.6V88.576ZM356 95.792C356 95.408 355.947 95.0347 355.84 94.672C355.744 94.2987 355.589 93.968 355.376 93.68C355.173 93.392 354.907 93.1627 354.576 92.992C354.256 92.8213 353.877 92.736 353.44 92.736C352.981 92.736 352.592 92.8267 352.272 93.008C351.952 93.1893 351.691 93.4293 351.488 93.728C351.285 94.016 351.136 94.3467 351.04 94.72C350.955 95.0933 350.912 95.472 350.912 95.856C350.912 96.2613 350.96 96.656 351.056 97.04C351.152 97.4133 351.301 97.744 351.504 98.032C351.717 98.32 351.989 98.5547 352.32 98.736C352.651 98.9067 353.051 98.992 353.52 98.992C353.989 98.992 354.379 98.9013 354.688 98.72C355.008 98.5387 355.264 98.2987 355.456 98C355.648 97.7013 355.787 97.36 355.872 96.976C355.957 96.592 356 96.1973 356 95.792ZM364.981 95.072C364.959 94.752 364.885 94.448 364.757 94.16C364.639 93.872 364.474 93.6267 364.261 93.424C364.058 93.2107 363.813 93.0453 363.525 92.928C363.247 92.8 362.938 92.736 362.597 92.736C362.245 92.736 361.925 92.8 361.637 92.928C361.359 93.0453 361.119 93.2107 360.917 93.424C360.714 93.6373 360.554 93.888 360.437 94.176C360.319 94.4533 360.25 94.752 360.229 95.072H364.981ZM366.293 97.376C366.111 98.304 365.711 99.0027 365.093 99.472C364.474 99.9413 363.695 100.176 362.757 100.176C362.095 100.176 361.519 100.069 361.029 99.856C360.549 99.6427 360.143 99.344 359.813 98.96C359.482 98.576 359.231 98.1173 359.061 97.584C358.901 97.0507 358.81 96.4693 358.789 95.84C358.789 95.2107 358.885 94.6347 359.077 94.112C359.269 93.5893 359.535 93.136 359.877 92.752C360.229 92.368 360.639 92.0693 361.109 91.856C361.589 91.6427 362.111 91.536 362.677 91.536C363.413 91.536 364.021 91.6907 364.501 92C364.991 92.2987 365.381 92.6827 365.669 93.152C365.967 93.6213 366.17 94.1333 366.277 94.688C366.394 95.2427 366.442 95.7707 366.421 96.272H360.229C360.218 96.6347 360.261 96.9813 360.357 97.312C360.453 97.632 360.607 97.92 360.821 98.176C361.034 98.4213 361.306 98.6187 361.637 98.768C361.967 98.9173 362.357 98.992 362.805 98.992C363.381 98.992 363.85 98.8587 364.213 98.592C364.586 98.3253 364.831 97.92 364.949 97.376H366.293ZM375.931 101.104C375.771 101.509 375.611 101.851 375.451 102.128C375.302 102.405 375.131 102.629 374.939 102.8C374.758 102.981 374.55 103.109 374.315 103.184C374.091 103.269 373.83 103.312 373.531 103.312C373.371 103.312 373.211 103.301 373.051 103.28C372.891 103.259 372.737 103.221 372.587 103.168V101.92C372.705 101.973 372.838 102.016 372.987 102.048C373.147 102.091 373.281 102.112 373.387 102.112C373.665 102.112 373.894 102.043 374.075 101.904C374.267 101.776 374.411 101.589 374.507 101.344L375.067 99.952L371.787 91.728H373.323L375.739 98.496H375.771L378.091 91.728H379.531L375.931 101.104ZM381.875 95.872C381.875 96.3733 381.939 96.8213 382.067 97.216C382.206 97.6 382.393 97.9253 382.627 98.192C382.862 98.448 383.134 98.6453 383.443 98.784C383.763 98.9227 384.099 98.992 384.451 98.992C384.803 98.992 385.134 98.9227 385.443 98.784C385.763 98.6453 386.041 98.448 386.275 98.192C386.51 97.9253 386.691 97.6 386.819 97.216C386.958 96.8213 387.027 96.3733 387.027 95.872C387.027 95.3707 386.958 94.928 386.819 94.544C386.691 94.1493 386.51 93.8187 386.275 93.552C386.041 93.2853 385.763 93.0827 385.443 92.944C385.134 92.8053 384.803 92.736 384.451 92.736C384.099 92.736 383.763 92.8053 383.443 92.944C383.134 93.0827 382.862 93.2853 382.627 93.552C382.393 93.8187 382.206 94.1493 382.067 94.544C381.939 94.928 381.875 95.3707 381.875 95.872ZM380.435 95.872C380.435 95.264 380.521 94.6987 380.691 94.176C380.862 93.6427 381.118 93.184 381.459 92.8C381.801 92.4053 382.222 92.096 382.723 91.872C383.225 91.648 383.801 91.536 384.451 91.536C385.113 91.536 385.689 91.648 386.179 91.872C386.681 92.096 387.102 92.4053 387.443 92.8C387.785 93.184 388.041 93.6427 388.211 94.176C388.382 94.6987 388.467 95.264 388.467 95.872C388.467 96.48 388.382 97.0453 388.211 97.568C388.041 98.0907 387.785 98.5493 387.443 98.944C387.102 99.328 386.681 99.632 386.179 99.856C385.689 100.069 385.113 100.176 384.451 100.176C383.801 100.176 383.225 100.069 382.723 99.856C382.222 99.632 381.801 99.328 381.459 98.944C381.118 98.5493 380.862 98.0907 380.691 97.568C380.521 97.0453 380.435 96.48 380.435 95.872ZM397.119 100H395.839V98.688H395.807C395.519 99.2 395.151 99.5787 394.703 99.824C394.255 100.059 393.727 100.176 393.119 100.176C392.575 100.176 392.122 100.107 391.759 99.968C391.396 99.8187 391.103 99.6107 390.879 99.344C390.655 99.0773 390.495 98.7627 390.399 98.4C390.314 98.0267 390.271 97.616 390.271 97.168V91.728H391.631V97.328C391.631 97.84 391.78 98.2453 392.079 98.544C392.378 98.8427 392.788 98.992 393.311 98.992C393.727 98.992 394.084 98.928 394.383 98.8C394.692 98.672 394.948 98.4907 395.151 98.256C395.354 98.0213 395.503 97.7493 395.599 97.44C395.706 97.12 395.759 96.7733 395.759 96.4V91.728H397.119V100ZM399.314 91.728H400.594V93.472H400.626C400.956 92.8 401.362 92.304 401.842 91.984C402.322 91.664 402.93 91.5147 403.666 91.536V92.976C403.122 92.976 402.658 93.0507 402.274 93.2C401.89 93.3493 401.58 93.568 401.346 93.856C401.111 94.144 400.94 94.496 400.834 94.912C400.727 95.3173 400.674 95.7867 400.674 96.32V100H399.314V91.728ZM410.983 90.24H409.623V88.576H410.983V90.24ZM409.623 91.728H410.983V100H409.623V91.728ZM414.122 97.392C414.132 97.6907 414.202 97.9467 414.33 98.16C414.458 98.3627 414.623 98.528 414.826 98.656C415.039 98.7733 415.274 98.8587 415.53 98.912C415.796 98.9653 416.068 98.992 416.346 98.992C416.559 98.992 416.783 98.976 417.018 98.944C417.252 98.912 417.466 98.8533 417.658 98.768C417.86 98.6827 418.026 98.56 418.154 98.4C418.282 98.2293 418.346 98.016 418.346 97.76C418.346 97.408 418.212 97.1413 417.946 96.96C417.679 96.7787 417.343 96.6347 416.938 96.528C416.543 96.4107 416.111 96.3093 415.642 96.224C415.172 96.128 414.735 96 414.33 95.84C413.935 95.6693 413.604 95.4347 413.338 95.136C413.071 94.8373 412.938 94.4213 412.938 93.888C412.938 93.472 413.028 93.1147 413.21 92.816C413.402 92.5173 413.642 92.2773 413.93 92.096C414.228 91.904 414.559 91.7653 414.922 91.68C415.295 91.584 415.663 91.536 416.026 91.536C416.495 91.536 416.927 91.5787 417.322 91.664C417.716 91.7387 418.063 91.8773 418.362 92.08C418.671 92.272 418.916 92.5387 419.098 92.88C419.279 93.2107 419.386 93.6267 419.418 94.128H418.058C418.036 93.8613 417.967 93.6427 417.85 93.472C417.732 93.2907 417.583 93.1467 417.402 93.04C417.22 92.9333 417.018 92.8587 416.794 92.816C416.58 92.7627 416.362 92.736 416.138 92.736C415.935 92.736 415.727 92.752 415.514 92.784C415.311 92.816 415.124 92.8747 414.954 92.96C414.783 93.0347 414.644 93.1413 414.538 93.28C414.431 93.408 414.378 93.5787 414.378 93.792C414.378 94.0267 414.458 94.224 414.618 94.384C414.788 94.5333 415.002 94.6613 415.258 94.768C415.514 94.864 415.802 94.9493 416.122 95.024C416.442 95.088 416.762 95.1573 417.082 95.232C417.423 95.3067 417.754 95.3973 418.074 95.504C418.404 95.6107 418.692 95.7547 418.938 95.936C419.194 96.1067 419.396 96.3253 419.546 96.592C419.706 96.8587 419.786 97.1893 419.786 97.584C419.786 98.0853 419.679 98.5013 419.466 98.832C419.263 99.1627 418.991 99.4293 418.65 99.632C418.319 99.8347 417.94 99.9733 417.514 100.048C417.098 100.133 416.682 100.176 416.266 100.176C415.807 100.176 415.37 100.128 414.954 100.032C414.538 99.936 414.17 99.7813 413.85 99.568C413.53 99.344 413.274 99.056 413.082 98.704C412.89 98.3413 412.783 97.904 412.762 97.392H414.122ZM422.322 97.392C422.332 97.6907 422.402 97.9467 422.53 98.16C422.658 98.3627 422.823 98.528 423.026 98.656C423.239 98.7733 423.474 98.8587 423.73 98.912C423.996 98.9653 424.268 98.992 424.546 98.992C424.759 98.992 424.983 98.976 425.218 98.944C425.452 98.912 425.666 98.8533 425.858 98.768C426.06 98.6827 426.226 98.56 426.354 98.4C426.482 98.2293 426.546 98.016 426.546 97.76C426.546 97.408 426.412 97.1413 426.146 96.96C425.879 96.7787 425.543 96.6347 425.138 96.528C424.743 96.4107 424.311 96.3093 423.842 96.224C423.372 96.128 422.935 96 422.53 95.84C422.135 95.6693 421.804 95.4347 421.538 95.136C421.271 94.8373 421.138 94.4213 421.138 93.888C421.138 93.472 421.228 93.1147 421.41 92.816C421.602 92.5173 421.842 92.2773 422.13 92.096C422.428 91.904 422.759 91.7653 423.122 91.68C423.495 91.584 423.863 91.536 424.226 91.536C424.695 91.536 425.127 91.5787 425.522 91.664C425.916 91.7387 426.263 91.8773 426.562 92.08C426.871 92.272 427.116 92.5387 427.298 92.88C427.479 93.2107 427.586 93.6267 427.618 94.128H426.258C426.236 93.8613 426.167 93.6427 426.05 93.472C425.932 93.2907 425.783 93.1467 425.602 93.04C425.42 92.9333 425.218 92.8587 424.994 92.816C424.78 92.7627 424.562 92.736 424.338 92.736C424.135 92.736 423.927 92.752 423.714 92.784C423.511 92.816 423.324 92.8747 423.154 92.96C422.983 93.0347 422.844 93.1413 422.738 93.28C422.631 93.408 422.578 93.5787 422.578 93.792C422.578 94.0267 422.658 94.224 422.818 94.384C422.988 94.5333 423.202 94.6613 423.458 94.768C423.714 94.864 424.002 94.9493 424.322 95.024C424.642 95.088 424.962 95.1573 425.282 95.232C425.623 95.3067 425.954 95.3973 426.274 95.504C426.604 95.6107 426.892 95.7547 427.138 95.936C427.394 96.1067 427.596 96.3253 427.746 96.592C427.906 96.8587 427.986 97.1893 427.986 97.584C427.986 98.0853 427.879 98.5013 427.666 98.832C427.463 99.1627 427.191 99.4293 426.85 99.632C426.519 99.8347 426.14 99.9733 425.714 100.048C425.298 100.133 424.882 100.176 424.466 100.176C424.007 100.176 423.57 100.128 423.154 100.032C422.738 99.936 422.37 99.7813 422.05 99.568C421.73 99.344 421.474 99.056 421.282 98.704C421.09 98.3413 420.983 97.904 420.962 97.392H422.322ZM436.538 100H435.258V98.688H435.226C434.938 99.2 434.57 99.5787 434.122 99.824C433.674 100.059 433.146 100.176 432.538 100.176C431.994 100.176 431.54 100.107 431.178 99.968C430.815 99.8187 430.522 99.6107 430.298 99.344C430.074 99.0773 429.914 98.7627 429.818 98.4C429.732 98.0267 429.69 97.616 429.69 97.168V91.728H431.05V97.328C431.05 97.84 431.199 98.2453 431.498 98.544C431.796 98.8427 432.207 98.992 432.73 98.992C433.146 98.992 433.503 98.928 433.802 98.8C434.111 98.672 434.367 98.4907 434.57 98.256C434.772 98.0213 434.922 97.7493 435.018 97.44C435.124 97.12 435.178 96.7733 435.178 96.4V91.728H436.538V100ZM444.524 95.072C444.503 94.752 444.428 94.448 444.3 94.16C444.183 93.872 444.018 93.6267 443.804 93.424C443.602 93.2107 443.356 93.0453 443.068 92.928C442.791 92.8 442.482 92.736 442.14 92.736C441.788 92.736 441.468 92.8 441.18 92.928C440.903 93.0453 440.663 93.2107 440.46 93.424C440.258 93.6373 440.098 93.888 439.98 94.176C439.863 94.4533 439.794 94.752 439.772 95.072H444.524ZM445.836 97.376C445.655 98.304 445.255 99.0027 444.636 99.472C444.018 99.9413 443.239 100.176 442.3 100.176C441.639 100.176 441.063 100.069 440.572 99.856C440.092 99.6427 439.687 99.344 439.356 98.96C439.026 98.576 438.775 98.1173 438.604 97.584C438.444 97.0507 438.354 96.4693 438.332 95.84C438.332 95.2107 438.428 94.6347 438.62 94.112C438.812 93.5893 439.079 93.136 439.42 92.752C439.772 92.368 440.183 92.0693 440.652 91.856C441.132 91.6427 441.655 91.536 442.22 91.536C442.956 91.536 443.564 91.6907 444.044 92C444.535 92.2987 444.924 92.6827 445.212 93.152C445.511 93.6213 445.714 94.1333 445.82 94.688C445.938 95.2427 445.986 95.7707 445.964 96.272H439.772C439.762 96.6347 439.804 96.9813 439.9 97.312C439.996 97.632 440.151 97.92 440.364 98.176C440.578 98.4213 440.85 98.6187 441.18 98.768C441.511 98.9173 441.9 98.992 442.348 98.992C442.924 98.992 443.394 98.8587 443.756 98.592C444.13 98.3253 444.375 97.92 444.492 97.376H445.836ZM453.667 90.24H452.307V88.576H453.667V90.24ZM452.307 91.728H453.667V100H452.307V91.728ZM455.974 91.728H457.254V93.04H457.286C457.851 92.0373 458.747 91.536 459.974 91.536C460.518 91.536 460.971 91.6107 461.334 91.76C461.697 91.9093 461.99 92.1173 462.214 92.384C462.438 92.6507 462.593 92.9707 462.678 93.344C462.774 93.7067 462.822 94.112 462.822 94.56V100H461.462V94.4C461.462 93.888 461.313 93.4827 461.014 93.184C460.715 92.8853 460.305 92.736 459.782 92.736C459.366 92.736 459.003 92.8 458.694 92.928C458.395 93.056 458.145 93.2373 457.942 93.472C457.739 93.7067 457.585 93.984 457.478 94.304C457.382 94.6133 457.334 94.9547 457.334 95.328V100H455.974V91.728ZM470.71 95.936C470.71 96.32 470.758 96.6987 470.854 97.072C470.96 97.4347 471.115 97.76 471.318 98.048C471.531 98.336 471.798 98.5653 472.118 98.736C472.448 98.9067 472.832 98.992 473.27 98.992C473.728 98.992 474.118 98.9013 474.438 98.72C474.758 98.5387 475.019 98.304 475.222 98.016C475.424 97.7173 475.568 97.3813 475.654 97.008C475.75 96.6347 475.798 96.256 475.798 95.872C475.798 95.4667 475.75 95.0773 475.654 94.704C475.558 94.32 475.403 93.984 475.19 93.696C474.987 93.408 474.72 93.1787 474.39 93.008C474.059 92.8267 473.659 92.736 473.19 92.736C472.731 92.736 472.342 92.8267 472.022 93.008C471.702 93.1893 471.446 93.4293 471.254 93.728C471.062 94.0267 470.923 94.368 470.838 94.752C470.752 95.136 470.71 95.5307 470.71 95.936ZM477.11 100H475.75V98.88H475.718C475.494 99.3387 475.142 99.6693 474.662 99.872C474.182 100.075 473.654 100.176 473.078 100.176C472.438 100.176 471.878 100.059 471.398 99.824C470.928 99.5893 470.534 99.2747 470.214 98.88C469.904 98.4853 469.67 98.0267 469.51 97.504C469.35 96.9813 469.27 96.4267 469.27 95.84C469.27 95.2533 469.344 94.6987 469.494 94.176C469.654 93.6533 469.888 93.2 470.198 92.816C470.518 92.4213 470.912 92.112 471.382 91.888C471.862 91.6533 472.416 91.536 473.046 91.536C473.259 91.536 473.488 91.5573 473.734 91.6C473.979 91.6427 474.224 91.7173 474.47 91.824C474.715 91.92 474.944 92.0533 475.158 92.224C475.382 92.384 475.568 92.5867 475.718 92.832H475.75V88.576H477.11V100ZM485.146 95.072C485.125 94.752 485.05 94.448 484.922 94.16C484.805 93.872 484.639 93.6267 484.426 93.424C484.223 93.2107 483.978 93.0453 483.69 92.928C483.413 92.8 483.103 92.736 482.762 92.736C482.41 92.736 482.09 92.8 481.802 92.928C481.525 93.0453 481.285 93.2107 481.082 93.424C480.879 93.6373 480.719 93.888 480.602 94.176C480.485 94.4533 480.415 94.752 480.394 95.072H485.146ZM486.458 97.376C486.277 98.304 485.877 99.0027 485.258 99.472C484.639 99.9413 483.861 100.176 482.922 100.176C482.261 100.176 481.685 100.069 481.194 99.856C480.714 99.6427 480.309 99.344 479.978 98.96C479.647 98.576 479.397 98.1173 479.226 97.584C479.066 97.0507 478.975 96.4693 478.954 95.84C478.954 95.2107 479.05 94.6347 479.242 94.112C479.434 93.5893 479.701 93.136 480.042 92.752C480.394 92.368 480.805 92.0693 481.274 91.856C481.754 91.6427 482.277 91.536 482.842 91.536C483.578 91.536 484.186 91.6907 484.666 92C485.157 92.2987 485.546 92.6827 485.834 93.152C486.133 93.6213 486.335 94.1333 486.442 94.688C486.559 95.2427 486.607 95.7707 486.586 96.272H480.394C480.383 96.6347 480.426 96.9813 480.522 97.312C480.618 97.632 480.773 97.92 480.986 98.176C481.199 98.4213 481.471 98.6187 481.802 98.768C482.133 98.9173 482.522 98.992 482.97 98.992C483.546 98.992 484.015 98.8587 484.378 98.592C484.751 98.3253 484.997 97.92 485.114 97.376H486.458ZM490.084 91.728H491.732V92.928H490.084V98.064C490.084 98.224 490.095 98.352 490.116 98.448C490.148 98.544 490.201 98.6187 490.276 98.672C490.351 98.7253 490.452 98.7627 490.58 98.784C490.719 98.7947 490.895 98.8 491.108 98.8H491.732V100H490.692C490.34 100 490.036 99.9787 489.78 99.936C489.535 99.8827 489.332 99.792 489.172 99.664C489.023 99.536 488.911 99.3547 488.836 99.12C488.761 98.8853 488.724 98.576 488.724 98.192V92.928H487.316V91.728H488.724V89.248H490.084V91.728ZM500.771 99.968C500.536 100.107 500.211 100.176 499.795 100.176C499.443 100.176 499.16 100.08 498.947 99.888C498.744 99.6853 498.643 99.36 498.643 98.912C498.269 99.36 497.832 99.6853 497.331 99.888C496.84 100.08 496.307 100.176 495.731 100.176C495.357 100.176 495 100.133 494.659 100.048C494.328 99.9627 494.04 99.8293 493.795 99.648C493.549 99.4667 493.352 99.232 493.203 98.944C493.064 98.6453 492.995 98.288 492.995 97.872C492.995 97.4027 493.075 97.0187 493.235 96.72C493.395 96.4213 493.603 96.1813 493.859 96C494.125 95.808 494.424 95.664 494.755 95.568C495.096 95.472 495.443 95.392 495.795 95.328C496.168 95.2533 496.52 95.2 496.851 95.168C497.192 95.1253 497.491 95.072 497.747 95.008C498.003 94.9333 498.205 94.832 498.355 94.704C498.504 94.5653 498.579 94.368 498.579 94.112C498.579 93.8133 498.52 93.5733 498.403 93.392C498.296 93.2107 498.152 93.072 497.971 92.976C497.8 92.88 497.603 92.816 497.379 92.784C497.165 92.752 496.952 92.736 496.739 92.736C496.163 92.736 495.683 92.848 495.299 93.072C494.915 93.2853 494.707 93.696 494.675 94.304H493.315C493.336 93.792 493.443 93.36 493.635 93.008C493.827 92.656 494.083 92.3733 494.403 92.16C494.723 91.936 495.085 91.776 495.491 91.68C495.907 91.584 496.349 91.536 496.819 91.536C497.192 91.536 497.56 91.5627 497.923 91.616C498.296 91.6693 498.632 91.7813 498.931 91.952C499.229 92.112 499.469 92.3413 499.651 92.64C499.832 92.9387 499.923 93.328 499.923 93.808V98.064C499.923 98.384 499.939 98.6187 499.971 98.768C500.013 98.9173 500.141 98.992 500.355 98.992C500.472 98.992 500.611 98.9653 500.771 98.912V99.968ZM498.563 95.728C498.392 95.856 498.168 95.952 497.891 96.016C497.613 96.0693 497.32 96.1173 497.011 96.16C496.712 96.192 496.408 96.2347 496.099 96.288C495.789 96.3307 495.512 96.4053 495.267 96.512C495.021 96.6187 494.819 96.7733 494.659 96.976C494.509 97.168 494.435 97.4347 494.435 97.776C494.435 98 494.477 98.192 494.563 98.352C494.659 98.5013 494.776 98.624 494.915 98.72C495.064 98.816 495.235 98.8853 495.427 98.928C495.619 98.9707 495.821 98.992 496.035 98.992C496.483 98.992 496.867 98.9333 497.187 98.816C497.507 98.688 497.768 98.5333 497.971 98.352C498.173 98.16 498.323 97.9573 498.419 97.744C498.515 97.52 498.563 97.312 498.563 97.12V95.728ZM503.676 90.24H502.316V88.576H503.676V90.24ZM502.316 91.728H503.676V100H502.316V91.728ZM506.063 88.576H507.423V100H506.063V88.576Z" fill="black" fill-opacity="0.68"/>
<path d="M307.222 182.912V187H305.892V182.912L302.028 177.004H303.61L306.606 181.764L309.532 177.004H311.044L307.222 182.912ZM311.459 183.388C311.459 183.827 311.515 184.219 311.627 184.564C311.748 184.9 311.911 185.185 312.117 185.418C312.322 185.642 312.56 185.815 312.831 185.936C313.111 186.057 313.405 186.118 313.713 186.118C314.021 186.118 314.31 186.057 314.581 185.936C314.861 185.815 315.103 185.642 315.309 185.418C315.514 185.185 315.673 184.9 315.785 184.564C315.906 184.219 315.967 183.827 315.967 183.388C315.967 182.949 315.906 182.562 315.785 182.226C315.673 181.881 315.514 181.591 315.309 181.358C315.103 181.125 314.861 180.947 314.581 180.826C314.31 180.705 314.021 180.644 313.713 180.644C313.405 180.644 313.111 180.705 312.831 180.826C312.56 180.947 312.322 181.125 312.117 181.358C311.911 181.591 311.748 181.881 311.627 182.226C311.515 182.562 311.459 182.949 311.459 183.388ZM310.199 183.388C310.199 182.856 310.273 182.361 310.423 181.904C310.572 181.437 310.796 181.036 311.095 180.7C311.393 180.355 311.762 180.084 312.201 179.888C312.639 179.692 313.143 179.594 313.713 179.594C314.291 179.594 314.795 179.692 315.225 179.888C315.663 180.084 316.032 180.355 316.331 180.7C316.629 181.036 316.853 181.437 317.003 181.904C317.152 182.361 317.227 182.856 317.227 183.388C317.227 183.92 317.152 184.415 317.003 184.872C316.853 185.329 316.629 185.731 316.331 186.076C316.032 186.412 315.663 186.678 315.225 186.874C314.795 187.061 314.291 187.154 313.713 187.154C313.143 187.154 312.639 187.061 312.201 186.874C311.762 186.678 311.393 186.412 311.095 186.076C310.796 185.731 310.572 185.329 310.423 184.872C310.273 184.415 310.199 183.92 310.199 183.388ZM324.797 187H323.677V185.852H323.649C323.397 186.3 323.075 186.631 322.683 186.846C322.291 187.051 321.829 187.154 321.297 187.154C320.821 187.154 320.424 187.093 320.107 186.972C319.789 186.841 319.533 186.659 319.337 186.426C319.141 186.193 319.001 185.917 318.917 185.6C318.842 185.273 318.805 184.914 318.805 184.522V179.762H319.995V184.662C319.995 185.11 320.125 185.465 320.387 185.726C320.648 185.987 321.007 186.118 321.465 186.118C321.829 186.118 322.141 186.062 322.403 185.95C322.673 185.838 322.897 185.679 323.075 185.474C323.252 185.269 323.383 185.031 323.467 184.76C323.56 184.48 323.607 184.177 323.607 183.85V179.762H324.797V187ZM330.83 177.004H332.02V180.826H332.048C332.142 180.602 332.272 180.415 332.44 180.266C332.608 180.107 332.795 179.981 333 179.888C333.215 179.785 333.434 179.711 333.658 179.664C333.892 179.617 334.116 179.594 334.33 179.594C334.806 179.594 335.203 179.659 335.52 179.79C335.838 179.921 336.094 180.103 336.29 180.336C336.486 180.569 336.622 180.849 336.696 181.176C336.78 181.493 336.822 181.848 336.822 182.24V187H335.632V182.1C335.632 181.652 335.502 181.297 335.24 181.036C334.979 180.775 334.62 180.644 334.162 180.644C333.798 180.644 333.481 180.7 333.21 180.812C332.949 180.924 332.73 181.083 332.552 181.288C332.375 181.493 332.24 181.736 332.146 182.016C332.062 182.287 332.02 182.585 332.02 182.912V187H330.83V177.004ZM345.197 186.972C344.991 187.093 344.707 187.154 344.343 187.154C344.035 187.154 343.787 187.07 343.601 186.902C343.423 186.725 343.335 186.44 343.335 186.048C343.008 186.44 342.625 186.725 342.187 186.902C341.757 187.07 341.291 187.154 340.787 187.154C340.46 187.154 340.147 187.117 339.849 187.042C339.559 186.967 339.307 186.851 339.093 186.692C338.878 186.533 338.705 186.328 338.575 186.076C338.453 185.815 338.393 185.502 338.393 185.138C338.393 184.727 338.463 184.391 338.603 184.13C338.743 183.869 338.925 183.659 339.149 183.5C339.382 183.332 339.643 183.206 339.933 183.122C340.231 183.038 340.535 182.968 340.843 182.912C341.169 182.847 341.477 182.8 341.767 182.772C342.065 182.735 342.327 182.688 342.551 182.632C342.775 182.567 342.952 182.478 343.083 182.366C343.213 182.245 343.279 182.072 343.279 181.848C343.279 181.587 343.227 181.377 343.125 181.218C343.031 181.059 342.905 180.938 342.747 180.854C342.597 180.77 342.425 180.714 342.229 180.686C342.042 180.658 341.855 180.644 341.669 180.644C341.165 180.644 340.745 180.742 340.409 180.938C340.073 181.125 339.891 181.484 339.863 182.016H338.673C338.691 181.568 338.785 181.19 338.953 180.882C339.121 180.574 339.345 180.327 339.625 180.14C339.905 179.944 340.222 179.804 340.577 179.72C340.941 179.636 341.328 179.594 341.739 179.594C342.065 179.594 342.387 179.617 342.705 179.664C343.031 179.711 343.325 179.809 343.587 179.958C343.848 180.098 344.058 180.299 344.217 180.56C344.375 180.821 344.455 181.162 344.455 181.582V185.306C344.455 185.586 344.469 185.791 344.497 185.922C344.534 186.053 344.646 186.118 344.833 186.118C344.935 186.118 345.057 186.095 345.197 186.048V186.972ZM343.265 183.262C343.115 183.374 342.919 183.458 342.677 183.514C342.434 183.561 342.177 183.603 341.907 183.64C341.645 183.668 341.379 183.705 341.109 183.752C340.838 183.789 340.595 183.855 340.381 183.948C340.166 184.041 339.989 184.177 339.849 184.354C339.718 184.522 339.653 184.755 339.653 185.054C339.653 185.25 339.69 185.418 339.765 185.558C339.849 185.689 339.951 185.796 340.073 185.88C340.203 185.964 340.353 186.025 340.521 186.062C340.689 186.099 340.866 186.118 341.053 186.118C341.445 186.118 341.781 186.067 342.061 185.964C342.341 185.852 342.569 185.717 342.747 185.558C342.924 185.39 343.055 185.213 343.139 185.026C343.223 184.83 343.265 184.648 343.265 184.48V183.262ZM349.741 187H348.467L345.779 179.762H347.109L349.139 185.796H349.167L351.141 179.762H352.387L349.741 187ZM358.68 182.688C358.662 182.408 358.596 182.142 358.484 181.89C358.382 181.638 358.237 181.423 358.05 181.246C357.873 181.059 357.658 180.915 357.406 180.812C357.164 180.7 356.893 180.644 356.594 180.644C356.286 180.644 356.006 180.7 355.754 180.812C355.512 180.915 355.302 181.059 355.124 181.246C354.947 181.433 354.807 181.652 354.704 181.904C354.602 182.147 354.541 182.408 354.522 182.688H358.68ZM359.828 184.704C359.67 185.516 359.32 186.127 358.778 186.538C358.237 186.949 357.556 187.154 356.734 187.154C356.156 187.154 355.652 187.061 355.222 186.874C354.802 186.687 354.448 186.426 354.158 186.09C353.869 185.754 353.65 185.353 353.5 184.886C353.36 184.419 353.281 183.911 353.262 183.36C353.262 182.809 353.346 182.305 353.514 181.848C353.682 181.391 353.916 180.994 354.214 180.658C354.522 180.322 354.882 180.061 355.292 179.874C355.712 179.687 356.17 179.594 356.664 179.594C357.308 179.594 357.84 179.729 358.26 180C358.69 180.261 359.03 180.597 359.282 181.008C359.544 181.419 359.721 181.867 359.814 182.352C359.917 182.837 359.959 183.299 359.94 183.738H354.522C354.513 184.055 354.55 184.359 354.634 184.648C354.718 184.928 354.854 185.18 355.04 185.404C355.227 185.619 355.465 185.791 355.754 185.922C356.044 186.053 356.384 186.118 356.776 186.118C357.28 186.118 357.691 186.001 358.008 185.768C358.335 185.535 358.55 185.18 358.652 184.704H359.828ZM370.012 187H368.024V180.644H365.56V179.146C365.906 179.155 366.237 179.132 366.554 179.076C366.881 179.011 367.17 178.903 367.422 178.754C367.684 178.595 367.903 178.39 368.08 178.138C368.258 177.886 368.374 177.573 368.43 177.2H370.012V187ZM374.887 179.86C374.887 180.28 375.036 180.602 375.335 180.826C375.633 181.041 375.983 181.148 376.385 181.148C376.805 181.148 377.155 181.041 377.435 180.826C377.715 180.602 377.855 180.28 377.855 179.86C377.855 179.729 377.836 179.589 377.799 179.44C377.761 179.281 377.687 179.132 377.575 178.992C377.472 178.852 377.323 178.735 377.127 178.642C376.94 178.549 376.693 178.502 376.385 178.502C376.189 178.502 375.997 178.535 375.811 178.6C375.633 178.656 375.475 178.74 375.335 178.852C375.195 178.964 375.083 179.104 374.999 179.272C374.924 179.44 374.887 179.636 374.887 179.86ZM373.081 179.678C373.081 179.239 373.179 178.852 373.375 178.516C373.571 178.18 373.823 177.9 374.131 177.676C374.448 177.452 374.803 177.284 375.195 177.172C375.587 177.06 375.983 177.004 376.385 177.004C376.991 177.004 377.505 177.097 377.925 177.284C378.345 177.471 378.681 177.699 378.933 177.97C379.194 178.231 379.381 178.516 379.493 178.824C379.605 179.123 379.661 179.393 379.661 179.636C379.661 180.121 379.539 180.546 379.297 180.91C379.063 181.274 378.709 181.535 378.233 181.694V181.722C378.821 181.853 379.273 182.133 379.591 182.562C379.908 182.982 380.067 183.5 380.067 184.116C380.067 184.639 379.959 185.091 379.745 185.474C379.539 185.857 379.264 186.174 378.919 186.426C378.573 186.678 378.181 186.869 377.743 187C377.304 187.121 376.856 187.182 376.399 187.182C375.923 187.182 375.461 187.121 375.013 187C374.574 186.888 374.177 186.706 373.823 186.454C373.477 186.202 373.197 185.885 372.983 185.502C372.777 185.119 372.675 184.662 372.675 184.13C372.675 183.505 372.833 182.982 373.151 182.562C373.477 182.142 373.935 181.862 374.523 181.722V181.694C374.047 181.563 373.687 181.316 373.445 180.952C373.202 180.588 373.081 180.163 373.081 179.678ZM374.663 184.032C374.663 184.284 374.709 184.513 374.803 184.718C374.896 184.923 375.017 185.101 375.167 185.25C375.325 185.39 375.512 185.502 375.727 185.586C375.941 185.661 376.165 185.698 376.399 185.698C376.641 185.698 376.861 185.661 377.057 185.586C377.262 185.502 377.439 185.39 377.589 185.25C377.747 185.101 377.869 184.923 377.953 184.718C378.037 184.513 378.079 184.289 378.079 184.046C378.079 183.813 378.032 183.603 377.939 183.416C377.855 183.22 377.733 183.052 377.575 182.912C377.425 182.772 377.248 182.665 377.043 182.59C376.847 182.515 376.632 182.478 376.399 182.478C375.913 182.478 375.503 182.613 375.167 182.884C374.831 183.145 374.663 183.528 374.663 184.032ZM382.715 182.058C382.715 182.338 382.724 182.679 382.743 183.08C382.761 183.472 382.817 183.855 382.911 184.228C383.013 184.592 383.172 184.905 383.387 185.166C383.601 185.427 383.909 185.558 384.311 185.558C384.721 185.558 385.034 185.427 385.249 185.166C385.473 184.905 385.631 184.592 385.725 184.228C385.827 183.855 385.888 183.472 385.907 183.08C385.925 182.679 385.935 182.338 385.935 182.058C385.935 181.89 385.93 181.689 385.921 181.456C385.921 181.213 385.902 180.966 385.865 180.714C385.837 180.462 385.79 180.215 385.725 179.972C385.669 179.72 385.58 179.496 385.459 179.3C385.337 179.104 385.183 178.945 384.997 178.824C384.81 178.703 384.581 178.642 384.311 178.642C384.04 178.642 383.811 178.703 383.625 178.824C383.447 178.945 383.298 179.104 383.177 179.3C383.065 179.496 382.976 179.72 382.911 179.972C382.845 180.215 382.799 180.462 382.771 180.714C382.743 180.966 382.724 181.213 382.715 181.456C382.715 181.689 382.715 181.89 382.715 182.058ZM380.727 182.058C380.727 181.106 380.82 180.308 381.007 179.664C381.203 179.011 381.464 178.488 381.791 178.096C382.117 177.704 382.495 177.424 382.925 177.256C383.363 177.088 383.825 177.004 384.311 177.004C384.805 177.004 385.267 177.088 385.697 177.256C386.135 177.424 386.518 177.704 386.845 178.096C387.181 178.488 387.442 179.011 387.629 179.664C387.825 180.308 387.923 181.106 387.923 182.058C387.923 183.038 387.825 183.859 387.629 184.522C387.442 185.175 387.181 185.698 386.845 186.09C386.518 186.482 386.135 186.762 385.697 186.93C385.267 187.098 384.805 187.182 384.311 187.182C383.825 187.182 383.363 187.098 382.925 186.93C382.495 186.762 382.117 186.482 381.791 186.09C381.464 185.698 381.203 185.175 381.007 184.522C380.82 183.859 380.727 183.038 380.727 182.058ZM398.269 182.086C398.175 181.629 397.979 181.274 397.681 181.022C397.382 180.77 396.981 180.644 396.477 180.644C396.047 180.644 395.688 180.723 395.399 180.882C395.109 181.041 394.876 181.251 394.699 181.512C394.531 181.773 394.409 182.077 394.335 182.422C394.26 182.758 394.223 183.108 394.223 183.472C394.223 183.808 394.26 184.135 394.335 184.452C394.419 184.769 394.545 185.054 394.713 185.306C394.881 185.549 395.1 185.745 395.371 185.894C395.641 186.043 395.963 186.118 396.337 186.118C396.925 186.118 397.382 185.964 397.709 185.656C398.045 185.348 398.25 184.914 398.325 184.354H399.543C399.412 185.25 399.076 185.941 398.535 186.426C398.003 186.911 397.275 187.154 396.351 187.154C395.8 187.154 395.31 187.065 394.881 186.888C394.461 186.711 394.106 186.459 393.817 186.132C393.537 185.805 393.322 185.418 393.173 184.97C393.033 184.513 392.963 184.013 392.963 183.472C392.963 182.931 393.033 182.427 393.173 181.96C393.313 181.484 393.523 181.073 393.803 180.728C394.092 180.373 394.451 180.098 394.881 179.902C395.31 179.697 395.809 179.594 396.379 179.594C396.789 179.594 397.172 179.645 397.527 179.748C397.891 179.841 398.208 179.991 398.479 180.196C398.759 180.401 398.987 180.663 399.165 180.98C399.342 181.288 399.454 181.657 399.501 182.086H398.269ZM401.049 177.004H402.239V180.826H402.267C402.36 180.602 402.491 180.415 402.659 180.266C402.827 180.107 403.014 179.981 403.219 179.888C403.434 179.785 403.653 179.711 403.877 179.664C404.11 179.617 404.334 179.594 404.549 179.594C405.025 179.594 405.422 179.659 405.739 179.79C406.056 179.921 406.313 180.103 406.509 180.336C406.705 180.569 406.84 180.849 406.915 181.176C406.999 181.493 407.041 181.848 407.041 182.24V187H405.851V182.1C405.851 181.652 405.72 181.297 405.459 181.036C405.198 180.775 404.838 180.644 404.381 180.644C404.017 180.644 403.7 180.7 403.429 180.812C403.168 180.924 402.948 181.083 402.771 181.288C402.594 181.493 402.458 181.736 402.365 182.016C402.281 182.287 402.239 182.585 402.239 182.912V187H401.049V177.004ZM415.415 186.972C415.21 187.093 414.925 187.154 414.561 187.154C414.253 187.154 414.006 187.07 413.819 186.902C413.642 186.725 413.553 186.44 413.553 186.048C413.227 186.44 412.844 186.725 412.405 186.902C411.976 187.07 411.509 187.154 411.005 187.154C410.679 187.154 410.366 187.117 410.067 187.042C409.778 186.967 409.526 186.851 409.311 186.692C409.097 186.533 408.924 186.328 408.793 186.076C408.672 185.815 408.611 185.502 408.611 185.138C408.611 184.727 408.681 184.391 408.821 184.13C408.961 183.869 409.143 183.659 409.367 183.5C409.601 183.332 409.862 183.206 410.151 183.122C410.45 183.038 410.753 182.968 411.061 182.912C411.388 182.847 411.696 182.8 411.985 182.772C412.284 182.735 412.545 182.688 412.769 182.632C412.993 182.567 413.171 182.478 413.301 182.366C413.432 182.245 413.497 182.072 413.497 181.848C413.497 181.587 413.446 181.377 413.343 181.218C413.25 181.059 413.124 180.938 412.965 180.854C412.816 180.77 412.643 180.714 412.447 180.686C412.261 180.658 412.074 180.644 411.887 180.644C411.383 180.644 410.963 180.742 410.627 180.938C410.291 181.125 410.109 181.484 410.081 182.016H408.891C408.91 181.568 409.003 181.19 409.171 180.882C409.339 180.574 409.563 180.327 409.843 180.14C410.123 179.944 410.441 179.804 410.795 179.72C411.159 179.636 411.547 179.594 411.957 179.594C412.284 179.594 412.606 179.617 412.923 179.664C413.25 179.711 413.544 179.809 413.805 179.958C414.067 180.098 414.277 180.299 414.435 180.56C414.594 180.821 414.673 181.162 414.673 181.582V185.306C414.673 185.586 414.687 185.791 414.715 185.922C414.753 186.053 414.865 186.118 415.051 186.118C415.154 186.118 415.275 186.095 415.415 186.048V186.972ZM413.483 183.262C413.334 183.374 413.138 183.458 412.895 183.514C412.653 183.561 412.396 183.603 412.125 183.64C411.864 183.668 411.598 183.705 411.327 183.752C411.057 183.789 410.814 183.855 410.599 183.948C410.385 184.041 410.207 184.177 410.067 184.354C409.937 184.522 409.871 184.755 409.871 185.054C409.871 185.25 409.909 185.418 409.983 185.558C410.067 185.689 410.17 185.796 410.291 185.88C410.422 185.964 410.571 186.025 410.739 186.062C410.907 186.099 411.085 186.118 411.271 186.118C411.663 186.118 411.999 186.067 412.279 185.964C412.559 185.852 412.788 185.717 412.965 185.558C413.143 185.39 413.273 185.213 413.357 185.026C413.441 184.83 413.483 184.648 413.483 184.48V183.262ZM416.656 179.762H417.776V181.288H417.804C418.093 180.7 418.448 180.266 418.868 179.986C419.288 179.706 419.82 179.575 420.464 179.594V180.854C419.988 180.854 419.582 180.919 419.246 181.05C418.91 181.181 418.639 181.372 418.434 181.624C418.229 181.876 418.079 182.184 417.986 182.548C417.893 182.903 417.846 183.313 417.846 183.78V187H416.656V179.762ZM427.947 186.972C427.742 187.093 427.457 187.154 427.093 187.154C426.785 187.154 426.538 187.07 426.351 186.902C426.174 186.725 426.085 186.44 426.085 186.048C425.758 186.44 425.376 186.725 424.937 186.902C424.508 187.07 424.041 187.154 423.537 187.154C423.21 187.154 422.898 187.117 422.599 187.042C422.31 186.967 422.058 186.851 421.843 186.692C421.628 186.533 421.456 186.328 421.325 186.076C421.204 185.815 421.143 185.502 421.143 185.138C421.143 184.727 421.213 184.391 421.353 184.13C421.493 183.869 421.675 183.659 421.899 183.5C422.132 183.332 422.394 183.206 422.683 183.122C422.982 183.038 423.285 182.968 423.593 182.912C423.92 182.847 424.228 182.8 424.517 182.772C424.816 182.735 425.077 182.688 425.301 182.632C425.525 182.567 425.702 182.478 425.833 182.366C425.964 182.245 426.029 182.072 426.029 181.848C426.029 181.587 425.978 181.377 425.875 181.218C425.782 181.059 425.656 180.938 425.497 180.854C425.348 180.77 425.175 180.714 424.979 180.686C424.792 180.658 424.606 180.644 424.419 180.644C423.915 180.644 423.495 180.742 423.159 180.938C422.823 181.125 422.641 181.484 422.613 182.016H421.423C421.442 181.568 421.535 181.19 421.703 180.882C421.871 180.574 422.095 180.327 422.375 180.14C422.655 179.944 422.972 179.804 423.327 179.72C423.691 179.636 424.078 179.594 424.489 179.594C424.816 179.594 425.138 179.617 425.455 179.664C425.782 179.711 426.076 179.809 426.337 179.958C426.598 180.098 426.808 180.299 426.967 180.56C427.126 180.821 427.205 181.162 427.205 181.582V185.306C427.205 185.586 427.219 185.791 427.247 185.922C427.284 186.053 427.396 186.118 427.583 186.118C427.686 186.118 427.807 186.095 427.947 186.048V186.972ZM426.015 183.262C425.866 183.374 425.67 183.458 425.427 183.514C425.184 183.561 424.928 183.603 424.657 183.64C424.396 183.668 424.13 183.705 423.859 183.752C423.588 183.789 423.346 183.855 423.131 183.948C422.916 184.041 422.739 184.177 422.599 184.354C422.468 184.522 422.403 184.755 422.403 185.054C422.403 185.25 422.44 185.418 422.515 185.558C422.599 185.689 422.702 185.796 422.823 185.88C422.954 185.964 423.103 186.025 423.271 186.062C423.439 186.099 423.616 186.118 423.803 186.118C424.195 186.118 424.531 186.067 424.811 185.964C425.091 185.852 425.32 185.717 425.497 185.558C425.674 185.39 425.805 185.213 425.889 185.026C425.973 184.83 426.015 184.648 426.015 184.48V183.262ZM434.144 182.086C434.05 181.629 433.854 181.274 433.556 181.022C433.257 180.77 432.856 180.644 432.352 180.644C431.922 180.644 431.563 180.723 431.274 180.882C430.984 181.041 430.751 181.251 430.574 181.512C430.406 181.773 430.284 182.077 430.21 182.422C430.135 182.758 430.098 183.108 430.098 183.472C430.098 183.808 430.135 184.135 430.21 184.452C430.294 184.769 430.42 185.054 430.588 185.306C430.756 185.549 430.975 185.745 431.246 185.894C431.516 186.043 431.838 186.118 432.212 186.118C432.8 186.118 433.257 185.964 433.584 185.656C433.92 185.348 434.125 184.914 434.2 184.354H435.418C435.287 185.25 434.951 185.941 434.41 186.426C433.878 186.911 433.15 187.154 432.226 187.154C431.675 187.154 431.185 187.065 430.756 186.888C430.336 186.711 429.981 186.459 429.692 186.132C429.412 185.805 429.197 185.418 429.048 184.97C428.908 184.513 428.838 184.013 428.838 183.472C428.838 182.931 428.908 182.427 429.048 181.96C429.188 181.484 429.398 181.073 429.678 180.728C429.967 180.373 430.326 180.098 430.756 179.902C431.185 179.697 431.684 179.594 432.254 179.594C432.664 179.594 433.047 179.645 433.402 179.748C433.766 179.841 434.083 179.991 434.354 180.196C434.634 180.401 434.862 180.663 435.04 180.98C435.217 181.288 435.329 181.657 435.376 182.086H434.144ZM438.576 179.762H440.018V180.812H438.576V185.306C438.576 185.446 438.585 185.558 438.604 185.642C438.632 185.726 438.679 185.791 438.744 185.838C438.809 185.885 438.898 185.917 439.01 185.936C439.131 185.945 439.285 185.95 439.472 185.95H440.018V187H439.108C438.8 187 438.534 186.981 438.31 186.944C438.095 186.897 437.918 186.818 437.778 186.706C437.647 186.594 437.549 186.435 437.484 186.23C437.419 186.025 437.386 185.754 437.386 185.418V180.812H436.154V179.762H437.386V177.592H438.576V179.762ZM446.541 182.688C446.522 182.408 446.457 182.142 446.345 181.89C446.242 181.638 446.098 181.423 445.911 181.246C445.734 181.059 445.519 180.915 445.267 180.812C445.024 180.7 444.754 180.644 444.455 180.644C444.147 180.644 443.867 180.7 443.615 180.812C443.372 180.915 443.162 181.059 442.985 181.246C442.808 181.433 442.668 181.652 442.565 181.904C442.462 182.147 442.402 182.408 442.383 182.688H446.541ZM447.689 184.704C447.53 185.516 447.18 186.127 446.639 186.538C446.098 186.949 445.416 187.154 444.595 187.154C444.016 187.154 443.512 187.061 443.083 186.874C442.663 186.687 442.308 186.426 442.019 186.09C441.73 185.754 441.51 185.353 441.361 184.886C441.221 184.419 441.142 183.911 441.123 183.36C441.123 182.809 441.207 182.305 441.375 181.848C441.543 181.391 441.776 180.994 442.075 180.658C442.383 180.322 442.742 180.061 443.153 179.874C443.573 179.687 444.03 179.594 444.525 179.594C445.169 179.594 445.701 179.729 446.121 180C446.55 180.261 446.891 180.597 447.143 181.008C447.404 181.419 447.582 181.867 447.675 182.352C447.778 182.837 447.82 183.299 447.801 183.738H442.383C442.374 184.055 442.411 184.359 442.495 184.648C442.579 184.928 442.714 185.18 442.901 185.404C443.088 185.619 443.326 185.791 443.615 185.922C443.904 186.053 444.245 186.118 444.637 186.118C445.141 186.118 445.552 186.001 445.869 185.768C446.196 185.535 446.41 185.18 446.513 184.704H447.689ZM449.168 179.762H450.288V181.288H450.316C450.605 180.7 450.96 180.266 451.38 179.986C451.8 179.706 452.332 179.575 452.976 179.594V180.854C452.5 180.854 452.094 180.919 451.758 181.05C451.422 181.181 451.151 181.372 450.946 181.624C450.74 181.876 450.591 182.184 450.498 182.548C450.404 182.903 450.358 183.313 450.358 183.78V187H449.168V179.762ZM454.775 184.718C454.784 184.979 454.845 185.203 454.957 185.39C455.069 185.567 455.213 185.712 455.391 185.824C455.577 185.927 455.783 186.001 456.007 186.048C456.24 186.095 456.478 186.118 456.721 186.118C456.907 186.118 457.103 186.104 457.309 186.076C457.514 186.048 457.701 185.997 457.869 185.922C458.046 185.847 458.191 185.74 458.303 185.6C458.415 185.451 458.471 185.264 458.471 185.04C458.471 184.732 458.354 184.499 458.121 184.34C457.887 184.181 457.593 184.055 457.239 183.962C456.893 183.859 456.515 183.771 456.105 183.696C455.694 183.612 455.311 183.5 454.957 183.36C454.611 183.211 454.322 183.005 454.089 182.744C453.855 182.483 453.739 182.119 453.739 181.652C453.739 181.288 453.818 180.975 453.977 180.714C454.145 180.453 454.355 180.243 454.607 180.084C454.868 179.916 455.157 179.795 455.475 179.72C455.801 179.636 456.123 179.594 456.441 179.594C456.851 179.594 457.229 179.631 457.575 179.706C457.92 179.771 458.223 179.893 458.485 180.07C458.755 180.238 458.97 180.471 459.129 180.77C459.287 181.059 459.381 181.423 459.409 181.862H458.219C458.2 181.629 458.139 181.437 458.037 181.288C457.934 181.129 457.803 181.003 457.645 180.91C457.486 180.817 457.309 180.751 457.113 180.714C456.926 180.667 456.735 180.644 456.539 180.644C456.361 180.644 456.179 180.658 455.993 180.686C455.815 180.714 455.652 180.765 455.503 180.84C455.353 180.905 455.232 180.999 455.139 181.12C455.045 181.232 454.999 181.381 454.999 181.568C454.999 181.773 455.069 181.946 455.209 182.086C455.358 182.217 455.545 182.329 455.769 182.422C455.993 182.506 456.245 182.581 456.525 182.646C456.805 182.702 457.085 182.763 457.365 182.828C457.663 182.893 457.953 182.973 458.233 183.066C458.522 183.159 458.774 183.285 458.989 183.444C459.213 183.593 459.39 183.785 459.521 184.018C459.661 184.251 459.731 184.541 459.731 184.886C459.731 185.325 459.637 185.689 459.451 185.978C459.273 186.267 459.035 186.501 458.737 186.678C458.447 186.855 458.116 186.977 457.743 187.042C457.379 187.117 457.015 187.154 456.651 187.154C456.249 187.154 455.867 187.112 455.503 187.028C455.139 186.944 454.817 186.809 454.537 186.622C454.257 186.426 454.033 186.174 453.865 185.866C453.697 185.549 453.603 185.166 453.585 184.718H454.775ZM465.251 179.762H466.371V181.288H466.399C466.689 180.7 467.043 180.266 467.463 179.986C467.883 179.706 468.415 179.575 469.059 179.594V180.854C468.583 180.854 468.177 180.919 467.841 181.05C467.505 181.181 467.235 181.372 467.029 181.624C466.824 181.876 466.675 182.184 466.581 182.548C466.488 182.903 466.441 183.313 466.441 183.78V187H465.251V179.762ZM474.91 182.688C474.892 182.408 474.826 182.142 474.714 181.89C474.612 181.638 474.467 181.423 474.28 181.246C474.103 181.059 473.888 180.915 473.636 180.812C473.394 180.7 473.123 180.644 472.824 180.644C472.516 180.644 472.236 180.7 471.984 180.812C471.742 180.915 471.532 181.059 471.354 181.246C471.177 181.433 471.037 181.652 470.934 181.904C470.832 182.147 470.771 182.408 470.752 182.688H474.91ZM476.058 184.704C475.9 185.516 475.55 186.127 475.008 186.538C474.467 186.949 473.786 187.154 472.964 187.154C472.386 187.154 471.882 187.061 471.452 186.874C471.032 186.687 470.678 186.426 470.388 186.09C470.099 185.754 469.88 185.353 469.73 184.886C469.59 184.419 469.511 183.911 469.492 183.36C469.492 182.809 469.576 182.305 469.744 181.848C469.912 181.391 470.146 180.994 470.444 180.658C470.752 180.322 471.112 180.061 471.522 179.874C471.942 179.687 472.4 179.594 472.894 179.594C473.538 179.594 474.07 179.729 474.49 180C474.92 180.261 475.26 180.597 475.512 181.008C475.774 181.419 475.951 181.867 476.044 182.352C476.147 182.837 476.189 183.299 476.17 183.738H470.752C470.743 184.055 470.78 184.359 470.864 184.648C470.948 184.928 471.084 185.18 471.27 185.404C471.457 185.619 471.695 185.791 471.984 185.922C472.274 186.053 472.614 186.118 473.006 186.118C473.51 186.118 473.921 186.001 474.238 185.768C474.565 185.535 474.78 185.18 474.882 184.704H476.058ZM477.579 179.762H478.699V180.826H478.727C479.268 180.005 480.047 179.594 481.065 179.594C481.513 179.594 481.919 179.687 482.283 179.874C482.647 180.061 482.903 180.378 483.053 180.826C483.295 180.434 483.613 180.131 484.005 179.916C484.406 179.701 484.845 179.594 485.321 179.594C485.685 179.594 486.011 179.636 486.301 179.72C486.599 179.795 486.851 179.916 487.057 180.084C487.271 180.252 487.435 180.471 487.547 180.742C487.668 181.003 487.729 181.321 487.729 181.694V187H486.539V182.254C486.539 182.03 486.52 181.82 486.483 181.624C486.445 181.428 486.375 181.26 486.273 181.12C486.17 180.971 486.025 180.854 485.839 180.77C485.661 180.686 485.428 180.644 485.139 180.644C484.551 180.644 484.089 180.812 483.753 181.148C483.417 181.484 483.249 181.932 483.249 182.492V187H482.059V182.254C482.059 182.021 482.035 181.806 481.989 181.61C481.951 181.414 481.881 181.246 481.779 181.106C481.676 180.957 481.536 180.845 481.359 180.77C481.191 180.686 480.971 180.644 480.701 180.644C480.355 180.644 480.057 180.714 479.805 180.854C479.562 180.994 479.361 181.162 479.203 181.358C479.053 181.554 478.941 181.759 478.867 181.974C478.801 182.179 478.769 182.352 478.769 182.492V187H477.579V179.762ZM496.101 186.972C495.896 187.093 495.611 187.154 495.247 187.154C494.939 187.154 494.692 187.07 494.505 186.902C494.328 186.725 494.239 186.44 494.239 186.048C493.913 186.44 493.53 186.725 493.091 186.902C492.662 187.07 492.195 187.154 491.691 187.154C491.365 187.154 491.052 187.117 490.753 187.042C490.464 186.967 490.212 186.851 489.997 186.692C489.783 186.533 489.61 186.328 489.479 186.076C489.358 185.815 489.297 185.502 489.297 185.138C489.297 184.727 489.367 184.391 489.507 184.13C489.647 183.869 489.829 183.659 490.053 183.5C490.287 183.332 490.548 183.206 490.837 183.122C491.136 183.038 491.439 182.968 491.747 182.912C492.074 182.847 492.382 182.8 492.671 182.772C492.97 182.735 493.231 182.688 493.455 182.632C493.679 182.567 493.857 182.478 493.987 182.366C494.118 182.245 494.183 182.072 494.183 181.848C494.183 181.587 494.132 181.377 494.029 181.218C493.936 181.059 493.81 180.938 493.651 180.854C493.502 180.77 493.329 180.714 493.133 180.686C492.947 180.658 492.76 180.644 492.573 180.644C492.069 180.644 491.649 180.742 491.313 180.938C490.977 181.125 490.795 181.484 490.767 182.016H489.577C489.596 181.568 489.689 181.19 489.857 180.882C490.025 180.574 490.249 180.327 490.529 180.14C490.809 179.944 491.127 179.804 491.481 179.72C491.845 179.636 492.233 179.594 492.643 179.594C492.97 179.594 493.292 179.617 493.609 179.664C493.936 179.711 494.23 179.809 494.491 179.958C494.753 180.098 494.963 180.299 495.121 180.56C495.28 180.821 495.359 181.162 495.359 181.582V185.306C495.359 185.586 495.373 185.791 495.401 185.922C495.439 186.053 495.551 186.118 495.737 186.118C495.84 186.118 495.961 186.095 496.101 186.048V186.972ZM494.169 183.262C494.02 183.374 493.824 183.458 493.581 183.514C493.339 183.561 493.082 183.603 492.811 183.64C492.55 183.668 492.284 183.705 492.013 183.752C491.743 183.789 491.5 183.855 491.285 183.948C491.071 184.041 490.893 184.177 490.753 184.354C490.623 184.522 490.557 184.755 490.557 185.054C490.557 185.25 490.595 185.418 490.669 185.558C490.753 185.689 490.856 185.796 490.977 185.88C491.108 185.964 491.257 186.025 491.425 186.062C491.593 186.099 491.771 186.118 491.957 186.118C492.349 186.118 492.685 186.067 492.965 185.964C493.245 185.852 493.474 185.717 493.651 185.558C493.829 185.39 493.959 185.213 494.043 185.026C494.127 184.83 494.169 184.648 494.169 184.48V183.262ZM498.644 178.46H497.454V177.004H498.644V178.46ZM497.454 179.762H498.644V187H497.454V179.762ZM500.662 179.762H501.782V180.91H501.81C502.305 180.033 503.089 179.594 504.162 179.594C504.638 179.594 505.035 179.659 505.352 179.79C505.67 179.921 505.926 180.103 506.122 180.336C506.318 180.569 506.454 180.849 506.528 181.176C506.612 181.493 506.654 181.848 506.654 182.24V187H505.464V182.1C505.464 181.652 505.334 181.297 505.072 181.036C504.811 180.775 504.452 180.644 503.994 180.644C503.63 180.644 503.313 180.7 503.042 180.812C502.781 180.924 502.562 181.083 502.384 181.288C502.207 181.493 502.072 181.736 501.978 182.016C501.894 182.287 501.852 182.585 501.852 182.912V187H500.662V179.762ZM509.877 178.46H508.687V177.004H509.877V178.46ZM508.687 179.762H509.877V187H508.687V179.762ZM511.895 179.762H513.015V180.91H513.043C513.538 180.033 514.322 179.594 515.395 179.594C515.871 179.594 516.268 179.659 516.585 179.79C516.903 179.921 517.159 180.103 517.355 180.336C517.551 180.569 517.687 180.849 517.761 181.176C517.845 181.493 517.887 181.848 517.887 182.24V187H516.697V182.1C516.697 181.652 516.567 181.297 516.305 181.036C516.044 180.775 515.685 180.644 515.227 180.644C514.863 180.644 514.546 180.7 514.275 180.812C514.014 180.924 513.795 181.083 513.617 181.288C513.44 181.493 513.305 181.736 513.211 182.016C513.127 182.287 513.085 182.585 513.085 182.912V187H511.895V179.762ZM526.094 186.384C526.094 187.569 525.823 188.456 525.282 189.044C524.74 189.632 523.891 189.926 522.734 189.926C522.398 189.926 522.052 189.889 521.698 189.814C521.352 189.739 521.035 189.618 520.746 189.45C520.466 189.282 520.232 189.063 520.046 188.792C519.859 188.521 519.756 188.19 519.738 187.798H520.928C520.937 188.013 521.002 188.195 521.124 188.344C521.254 188.493 521.408 188.615 521.586 188.708C521.772 188.801 521.973 188.867 522.188 188.904C522.402 188.951 522.608 188.974 522.804 188.974C523.196 188.974 523.527 188.904 523.798 188.764C524.068 188.633 524.292 188.447 524.47 188.204C524.647 187.971 524.773 187.686 524.848 187.35C524.932 187.014 524.974 186.645 524.974 186.244V185.768H524.946C524.74 186.216 524.428 186.547 524.008 186.762C523.597 186.967 523.158 187.07 522.692 187.07C522.15 187.07 521.679 186.972 521.278 186.776C520.876 186.58 520.54 186.319 520.27 185.992C519.999 185.656 519.794 185.269 519.654 184.83C519.523 184.382 519.458 183.911 519.458 183.416C519.458 182.987 519.514 182.548 519.626 182.1C519.738 181.643 519.924 181.232 520.186 180.868C520.447 180.495 520.792 180.191 521.222 179.958C521.651 179.715 522.178 179.594 522.804 179.594C523.261 179.594 523.681 179.697 524.064 179.902C524.446 180.098 524.745 180.397 524.96 180.798H524.974V179.762H526.094V186.384ZM522.762 186.034C523.154 186.034 523.485 185.955 523.756 185.796C524.036 185.628 524.26 185.413 524.428 185.152C524.596 184.881 524.717 184.578 524.792 184.242C524.876 183.906 524.918 183.57 524.918 183.234C524.918 182.917 524.88 182.604 524.806 182.296C524.731 181.988 524.61 181.713 524.442 181.47C524.283 181.218 524.073 181.017 523.812 180.868C523.55 180.719 523.233 180.644 522.86 180.644C522.477 180.644 522.15 180.719 521.88 180.868C521.609 181.008 521.385 181.199 521.208 181.442C521.04 181.685 520.914 181.965 520.83 182.282C520.755 182.599 520.718 182.931 520.718 183.276C520.718 183.603 520.75 183.929 520.816 184.256C520.881 184.583 520.993 184.881 521.152 185.152C521.31 185.413 521.52 185.628 521.782 185.796C522.043 185.955 522.37 186.034 522.762 186.034ZM528.33 185.446H529.884V187H528.33V185.446Z" fill="black" fill-opacity="0.68"/>
<defs>
<clipPath id="clip0_397_12294">
<rect width="24" height="56" fill="white" transform="translate(238 86) rotate(-90)"/>
</clipPath>
<clipPath id="clip1_397_12294">
<rect width="24" height="43" fill="white" transform="translate(478 27)"/>
</clipPath>
<clipPath id="clip2_397_12294">
<rect width="24" height="176" fill="white" transform="translate(730 82) rotate(90)"/>
</clipPath>
<clipPath id="clip3_397_12294">
<rect width="24" height="39" fill="white" transform="translate(330 235) rotate(-180)"/>
</clipPath>
</defs>
</svg>
