<svg width="800" height="248" viewBox="0 0 800 248" fill="none" xmlns="http://www.w3.org/2000/svg">
<rect width="800" height="248" fill="#F6F7FC"/>
<g clip-path="url(#clip0_378_9672)">
<path d="M157.5 72.5L214.5 72.5L214.5 74.5L157.5 74.5L157.5 72.5Z" fill="#3A6CE9" stroke="white"/>
<rect x="158" y="86" width="24" height="24" rx="12" transform="rotate(-90 158 86)" fill="black"/>
<path d="M171.569 70.2727V79H169.724V72.0241H169.672L167.674 73.277V71.6406L169.834 70.2727H171.569Z" fill="white"/>
</g>
<g clip-path="url(#clip1_378_9672)">
<path d="M411.5 26.5V70.5H409.5V26.5H411.5Z" fill="#3A6CE9" stroke="white"/>
<rect x="398" y="27" width="24" height="24" rx="12" fill="black"/>
<path d="M406.928 44V42.6705L410.035 39.794C410.299 39.5384 410.52 39.3082 410.699 39.1037C410.881 38.8991 411.019 38.6989 411.113 38.5028C411.206 38.304 411.253 38.0895 411.253 37.8594C411.253 37.6037 411.195 37.3835 411.079 37.1989C410.962 37.0114 410.803 36.8679 410.601 36.7685C410.4 36.6662 410.171 36.6151 409.915 36.6151C409.648 36.6151 409.415 36.669 409.216 36.777C409.018 36.8849 408.864 37.0398 408.756 37.2415C408.648 37.4432 408.594 37.6832 408.594 37.9616H406.843C406.843 37.3906 406.972 36.8949 407.231 36.4744C407.489 36.054 407.851 35.7287 408.317 35.4986C408.783 35.2685 409.32 35.1534 409.928 35.1534C410.553 35.1534 411.097 35.2642 411.56 35.4858C412.026 35.7045 412.388 36.0085 412.647 36.3977C412.905 36.7869 413.035 37.233 413.035 37.7358C413.035 38.0653 412.969 38.3906 412.839 38.7116C412.711 39.0327 412.482 39.3892 412.153 39.7812C411.823 40.1705 411.358 40.6378 410.759 41.1832L409.485 42.4318V42.4915H413.15V44H406.928Z" fill="white"/>
</g>
<g clip-path="url(#clip2_378_9672)">
<path d="M650.5 95.5L365.764 95.5L365.764 93.5L650.5 93.5L650.5 95.5Z" fill="#3A6CE9" stroke="white"/>
<rect x="626" y="106" width="24" height="24" rx="12" transform="rotate(-90 626 106)" fill="black"/>
<path d="M637.978 99.1193C637.342 99.1193 636.775 99.0099 636.278 98.7912C635.784 98.5696 635.393 98.2656 635.106 97.8793C634.822 97.4901 634.676 97.0412 634.667 96.5327H636.525C636.536 96.7457 636.606 96.9332 636.734 97.0952C636.865 97.2543 637.038 97.3778 637.254 97.4659C637.47 97.554 637.713 97.598 637.982 97.598C638.264 97.598 638.512 97.5483 638.728 97.4489C638.944 97.3494 639.113 97.2116 639.235 97.0355C639.357 96.8594 639.419 96.6562 639.419 96.4261C639.419 96.1932 639.353 95.9872 639.222 95.8082C639.095 95.6264 638.91 95.4844 638.669 95.3821C638.43 95.2798 638.146 95.2287 637.816 95.2287H637.002V93.8736H637.816C638.095 93.8736 638.34 93.8253 638.553 93.7287C638.769 93.6321 638.937 93.4986 639.056 93.3281C639.176 93.1548 639.235 92.9531 639.235 92.723C639.235 92.5043 639.183 92.3125 639.078 92.1477C638.975 91.9801 638.83 91.8494 638.643 91.7557C638.458 91.6619 638.242 91.6151 637.995 91.6151C637.745 91.6151 637.517 91.6605 637.309 91.7514C637.102 91.8395 636.936 91.9659 636.811 92.1307C636.686 92.2955 636.619 92.4886 636.61 92.7102H634.842C634.85 92.2074 634.994 91.7642 635.272 91.3807C635.551 90.9972 635.926 90.6974 636.397 90.4815C636.872 90.2628 637.407 90.1534 638.004 90.1534C638.606 90.1534 639.133 90.2628 639.585 90.4815C640.036 90.7003 640.387 90.9957 640.637 91.3679C640.89 91.7372 641.015 92.152 641.012 92.6122C641.015 93.1009 640.863 93.5085 640.556 93.8352C640.252 94.1619 639.856 94.3693 639.367 94.4574V94.5256C640.009 94.608 640.498 94.831 640.833 95.1946C641.171 95.5554 641.339 96.0071 641.336 96.5497C641.339 97.0469 641.195 97.4886 640.906 97.875C640.619 98.2614 640.222 98.5653 639.717 98.7869C639.211 99.0085 638.632 99.1193 637.978 99.1193Z" fill="white"/>
</g>
<g clip-path="url(#clip3_378_9672)">
<path d="M236.5 235.5L236.5 195.5L238.5 195.5L238.5 235.5L236.5 235.5Z" fill="#3A6CE9" stroke="white"/>
<rect x="226" y="211" width="24" height="24" rx="12" fill="black"/>
<path d="M235.009 226.466V225.013L238.652 219.273H239.905V221.284H239.164L236.867 224.919V224.987H242.044V226.466H235.009ZM239.198 228V226.023L239.232 225.379V219.273H240.962V228H239.198Z" fill="white"/>
</g>
<mask id="path-13-inside-1_378_9672" fill="white">
<path d="M206 56H594V164H206V56Z"/>
</mask>
<path d="M206 56H594V164H206V56Z" fill="black" fill-opacity="0.04"/>
<path d="M594 164V163H206V164V165H594V164Z" fill="black" fill-opacity="0.2" mask="url(#path-13-inside-1_378_9672)"/>
<path d="M224.412 74.46H227.316L225.888 70.464H225.864L224.412 74.46ZM225.264 69.432H226.524L229.872 78H228.612L227.676 75.42H224.052L223.092 78H221.928L225.264 69.432ZM231.473 74.952C231.473 75.24 231.509 75.524 231.581 75.804C231.661 76.076 231.777 76.32 231.929 76.536C232.089 76.752 232.289 76.924 232.529 77.052C232.777 77.18 233.065 77.244 233.393 77.244C233.737 77.244 234.029 77.176 234.269 77.04C234.509 76.904 234.705 76.728 234.857 76.512C235.009 76.288 235.117 76.036 235.181 75.756C235.253 75.476 235.289 75.192 235.289 74.904C235.289 74.6 235.253 74.308 235.181 74.028C235.109 73.74 234.993 73.488 234.833 73.272C234.681 73.056 234.481 72.884 234.233 72.756C233.985 72.62 233.685 72.552 233.333 72.552C232.989 72.552 232.697 72.62 232.457 72.756C232.217 72.892 232.025 73.072 231.881 73.296C231.737 73.52 231.633 73.776 231.569 74.064C231.505 74.352 231.473 74.648 231.473 74.952ZM236.273 78H235.253V77.16H235.229C235.061 77.504 234.797 77.752 234.437 77.904C234.077 78.056 233.681 78.132 233.249 78.132C232.769 78.132 232.349 78.044 231.989 77.868C231.637 77.692 231.341 77.456 231.101 77.16C230.869 76.864 230.693 76.52 230.573 76.128C230.453 75.736 230.393 75.32 230.393 74.88C230.393 74.44 230.449 74.024 230.561 73.632C230.681 73.24 230.857 72.9 231.089 72.612C231.329 72.316 231.625 72.084 231.977 71.916C232.337 71.74 232.753 71.652 233.225 71.652C233.385 71.652 233.557 71.668 233.741 71.7C233.925 71.732 234.109 71.788 234.293 71.868C234.477 71.94 234.649 72.04 234.809 72.168C234.977 72.288 235.117 72.44 235.229 72.624H235.253V69.432H236.273V78ZM238.767 74.952C238.767 75.24 238.803 75.524 238.875 75.804C238.955 76.076 239.071 76.32 239.223 76.536C239.383 76.752 239.583 76.924 239.823 77.052C240.071 77.18 240.359 77.244 240.687 77.244C241.031 77.244 241.323 77.176 241.563 77.04C241.803 76.904 241.999 76.728 242.151 76.512C242.303 76.288 242.411 76.036 242.475 75.756C242.547 75.476 242.583 75.192 242.583 74.904C242.583 74.6 242.547 74.308 242.475 74.028C242.403 73.74 242.287 73.488 242.127 73.272C241.975 73.056 241.775 72.884 241.527 72.756C241.279 72.62 240.979 72.552 240.627 72.552C240.283 72.552 239.991 72.62 239.751 72.756C239.511 72.892 239.319 73.072 239.175 73.296C239.031 73.52 238.927 73.776 238.863 74.064C238.799 74.352 238.767 74.648 238.767 74.952ZM243.567 78H242.547V77.16H242.523C242.355 77.504 242.091 77.752 241.731 77.904C241.371 78.056 240.975 78.132 240.543 78.132C240.063 78.132 239.643 78.044 239.283 77.868C238.931 77.692 238.635 77.456 238.395 77.16C238.163 76.864 237.987 76.52 237.867 76.128C237.747 75.736 237.687 75.32 237.687 74.88C237.687 74.44 237.743 74.024 237.855 73.632C237.975 73.24 238.151 72.9 238.383 72.612C238.623 72.316 238.919 72.084 239.271 71.916C239.631 71.74 240.047 71.652 240.519 71.652C240.679 71.652 240.851 71.668 241.035 71.7C241.219 71.732 241.403 71.788 241.587 71.868C241.771 71.94 241.943 72.04 242.103 72.168C242.271 72.288 242.411 72.44 242.523 72.624H242.547V69.432H243.567V78ZM246.396 70.68H245.376V69.432H246.396V70.68ZM245.376 71.796H246.396V78H245.376V71.796ZM249.572 71.796H250.808V72.696H249.572V76.548C249.572 76.668 249.58 76.764 249.596 76.836C249.62 76.908 249.66 76.964 249.716 77.004C249.772 77.044 249.848 77.072 249.944 77.088C250.048 77.096 250.18 77.1 250.34 77.1H250.808V78H250.028C249.764 78 249.536 77.984 249.344 77.952C249.16 77.912 249.008 77.844 248.888 77.748C248.776 77.652 248.692 77.516 248.636 77.34C248.58 77.164 248.552 76.932 248.552 76.644V72.696H247.496V71.796H248.552V69.936H249.572V71.796ZM253.201 70.68H252.181V69.432H253.201V70.68ZM252.181 71.796H253.201V78H252.181V71.796ZM255.705 74.904C255.705 75.28 255.753 75.616 255.849 75.912C255.953 76.2 256.093 76.444 256.269 76.644C256.445 76.836 256.649 76.984 256.881 77.088C257.121 77.192 257.373 77.244 257.637 77.244C257.901 77.244 258.149 77.192 258.381 77.088C258.621 76.984 258.829 76.836 259.005 76.644C259.181 76.444 259.317 76.2 259.413 75.912C259.517 75.616 259.569 75.28 259.569 74.904C259.569 74.528 259.517 74.196 259.413 73.908C259.317 73.612 259.181 73.364 259.005 73.164C258.829 72.964 258.621 72.812 258.381 72.708C258.149 72.604 257.901 72.552 257.637 72.552C257.373 72.552 257.121 72.604 256.881 72.708C256.649 72.812 256.445 72.964 256.269 73.164C256.093 73.364 255.953 73.612 255.849 73.908C255.753 74.196 255.705 74.528 255.705 74.904ZM254.625 74.904C254.625 74.448 254.689 74.024 254.817 73.632C254.945 73.232 255.137 72.888 255.393 72.6C255.649 72.304 255.965 72.072 256.341 71.904C256.717 71.736 257.149 71.652 257.637 71.652C258.133 71.652 258.565 71.736 258.933 71.904C259.309 72.072 259.625 72.304 259.881 72.6C260.137 72.888 260.329 73.232 260.457 73.632C260.585 74.024 260.649 74.448 260.649 74.904C260.649 75.36 260.585 75.784 260.457 76.176C260.329 76.568 260.137 76.912 259.881 77.208C259.625 77.496 259.309 77.724 258.933 77.892C258.565 78.052 258.133 78.132 257.637 78.132C257.149 78.132 256.717 78.052 256.341 77.892C255.965 77.724 255.649 77.496 255.393 77.208C255.137 76.912 254.945 76.568 254.817 76.176C254.689 75.784 254.625 75.36 254.625 74.904ZM262.032 71.796H262.992V72.78H263.016C263.44 72.028 264.112 71.652 265.032 71.652C265.44 71.652 265.78 71.708 266.052 71.82C266.324 71.932 266.544 72.088 266.712 72.288C266.88 72.488 266.996 72.728 267.06 73.008C267.132 73.28 267.168 73.584 267.168 73.92V78H266.148V73.8C266.148 73.416 266.036 73.112 265.812 72.888C265.588 72.664 265.28 72.552 264.888 72.552C264.576 72.552 264.304 72.6 264.072 72.696C263.848 72.792 263.66 72.928 263.508 73.104C263.356 73.28 263.24 73.488 263.16 73.728C263.088 73.96 263.052 74.216 263.052 74.496V78H262.032V71.796ZM274.376 77.976C274.2 78.08 273.956 78.132 273.644 78.132C273.38 78.132 273.168 78.06 273.008 77.916C272.856 77.764 272.78 77.52 272.78 77.184C272.5 77.52 272.172 77.764 271.796 77.916C271.428 78.06 271.028 78.132 270.596 78.132C270.316 78.132 270.048 78.1 269.792 78.036C269.544 77.972 269.328 77.872 269.144 77.736C268.96 77.6 268.812 77.424 268.7 77.208C268.596 76.984 268.544 76.716 268.544 76.404C268.544 76.052 268.604 75.764 268.724 75.54C268.844 75.316 269 75.136 269.192 75C269.392 74.856 269.616 74.748 269.864 74.676C270.12 74.604 270.38 74.544 270.644 74.496C270.924 74.44 271.188 74.4 271.436 74.376C271.692 74.344 271.916 74.304 272.108 74.256C272.3 74.2 272.452 74.124 272.564 74.028C272.676 73.924 272.732 73.776 272.732 73.584C272.732 73.36 272.688 73.18 272.6 73.044C272.52 72.908 272.412 72.804 272.276 72.732C272.148 72.66 272 72.612 271.832 72.588C271.672 72.564 271.512 72.552 271.352 72.552C270.92 72.552 270.56 72.636 270.272 72.804C269.984 72.964 269.828 73.272 269.804 73.728H268.784C268.8 73.344 268.88 73.02 269.024 72.756C269.168 72.492 269.36 72.28 269.6 72.12C269.84 71.952 270.112 71.832 270.416 71.76C270.728 71.688 271.06 71.652 271.412 71.652C271.692 71.652 271.968 71.672 272.24 71.712C272.52 71.752 272.772 71.836 272.996 71.964C273.22 72.084 273.4 72.256 273.536 72.48C273.672 72.704 273.74 72.996 273.74 73.356V76.548C273.74 76.788 273.752 76.964 273.776 77.076C273.808 77.188 273.904 77.244 274.064 77.244C274.152 77.244 274.256 77.224 274.376 77.184V77.976ZM272.72 74.796C272.592 74.892 272.424 74.964 272.216 75.012C272.008 75.052 271.788 75.088 271.556 75.12C271.332 75.144 271.104 75.176 270.872 75.216C270.64 75.248 270.432 75.304 270.248 75.384C270.064 75.464 269.912 75.58 269.792 75.732C269.68 75.876 269.624 76.076 269.624 76.332C269.624 76.5 269.656 76.644 269.72 76.764C269.792 76.876 269.88 76.968 269.984 77.04C270.096 77.112 270.224 77.164 270.368 77.196C270.512 77.228 270.664 77.244 270.824 77.244C271.16 77.244 271.448 77.2 271.688 77.112C271.928 77.016 272.124 76.9 272.276 76.764C272.428 76.62 272.54 76.468 272.612 76.308C272.684 76.14 272.72 75.984 272.72 75.84V74.796ZM275.565 69.432H276.585V78H275.565V69.432ZM286.077 73.788C285.997 73.396 285.829 73.092 285.573 72.876C285.317 72.66 284.973 72.552 284.541 72.552C284.173 72.552 283.865 72.62 283.617 72.756C283.369 72.892 283.169 73.072 283.017 73.296C282.873 73.52 282.769 73.78 282.705 74.076C282.641 74.364 282.609 74.664 282.609 74.976C282.609 75.264 282.641 75.544 282.705 75.816C282.777 76.088 282.885 76.332 283.029 76.548C283.173 76.756 283.361 76.924 283.593 77.052C283.825 77.18 284.101 77.244 284.421 77.244C284.925 77.244 285.317 77.112 285.597 76.848C285.885 76.584 286.061 76.212 286.125 75.732H287.169C287.057 76.5 286.769 77.092 286.305 77.508C285.849 77.924 285.225 78.132 284.433 78.132C283.961 78.132 283.541 78.056 283.173 77.904C282.813 77.752 282.509 77.536 282.261 77.256C282.021 76.976 281.837 76.644 281.709 76.26C281.589 75.868 281.529 75.44 281.529 74.976C281.529 74.512 281.589 74.08 281.709 73.68C281.829 73.272 282.009 72.92 282.249 72.624C282.497 72.32 282.805 72.084 283.173 71.916C283.541 71.74 283.969 71.652 284.457 71.652C284.809 71.652 285.137 71.696 285.441 71.784C285.753 71.864 286.025 71.992 286.257 72.168C286.497 72.344 286.693 72.568 286.845 72.84C286.997 73.104 287.093 73.42 287.133 73.788H286.077ZM289.235 74.904C289.235 75.28 289.283 75.616 289.379 75.912C289.483 76.2 289.623 76.444 289.799 76.644C289.975 76.836 290.179 76.984 290.411 77.088C290.651 77.192 290.903 77.244 291.167 77.244C291.431 77.244 291.679 77.192 291.911 77.088C292.151 76.984 292.359 76.836 292.535 76.644C292.711 76.444 292.847 76.2 292.943 75.912C293.047 75.616 293.099 75.28 293.099 74.904C293.099 74.528 293.047 74.196 292.943 73.908C292.847 73.612 292.711 73.364 292.535 73.164C292.359 72.964 292.151 72.812 291.911 72.708C291.679 72.604 291.431 72.552 291.167 72.552C290.903 72.552 290.651 72.604 290.411 72.708C290.179 72.812 289.975 72.964 289.799 73.164C289.623 73.364 289.483 73.612 289.379 73.908C289.283 74.196 289.235 74.528 289.235 74.904ZM288.155 74.904C288.155 74.448 288.219 74.024 288.347 73.632C288.475 73.232 288.667 72.888 288.923 72.6C289.179 72.304 289.495 72.072 289.871 71.904C290.247 71.736 290.679 71.652 291.167 71.652C291.663 71.652 292.095 71.736 292.463 71.904C292.839 72.072 293.155 72.304 293.411 72.6C293.667 72.888 293.859 73.232 293.987 73.632C294.115 74.024 294.179 74.448 294.179 74.904C294.179 75.36 294.115 75.784 293.987 76.176C293.859 76.568 293.667 76.912 293.411 77.208C293.155 77.496 292.839 77.724 292.463 77.892C292.095 78.052 291.663 78.132 291.167 78.132C290.679 78.132 290.247 78.052 289.871 77.892C289.495 77.724 289.179 77.496 288.923 77.208C288.667 76.912 288.475 76.568 288.347 76.176C288.219 75.784 288.155 75.36 288.155 74.904ZM295.561 71.796H296.521V72.708H296.545C297.009 72.004 297.677 71.652 298.549 71.652C298.933 71.652 299.281 71.732 299.593 71.892C299.905 72.052 300.125 72.324 300.253 72.708C300.461 72.372 300.733 72.112 301.069 71.928C301.413 71.744 301.789 71.652 302.197 71.652C302.509 71.652 302.789 71.688 303.037 71.76C303.293 71.824 303.509 71.928 303.685 72.072C303.869 72.216 304.009 72.404 304.105 72.636C304.209 72.86 304.261 73.132 304.261 73.452V78H303.241V73.932C303.241 73.74 303.225 73.56 303.193 73.392C303.161 73.224 303.101 73.08 303.013 72.96C302.925 72.832 302.801 72.732 302.641 72.66C302.489 72.588 302.289 72.552 302.041 72.552C301.537 72.552 301.141 72.696 300.853 72.984C300.565 73.272 300.421 73.656 300.421 74.136V78H299.401V73.932C299.401 73.732 299.381 73.548 299.341 73.38C299.309 73.212 299.249 73.068 299.161 72.948C299.073 72.82 298.953 72.724 298.801 72.66C298.657 72.588 298.469 72.552 298.237 72.552C297.941 72.552 297.685 72.612 297.469 72.732C297.261 72.852 297.089 72.996 296.953 73.164C296.825 73.332 296.729 73.508 296.665 73.692C296.609 73.868 296.581 74.016 296.581 74.136V78H295.561V71.796ZM305.972 71.796H306.932V72.708H306.956C307.42 72.004 308.088 71.652 308.96 71.652C309.344 71.652 309.692 71.732 310.004 71.892C310.316 72.052 310.536 72.324 310.664 72.708C310.872 72.372 311.144 72.112 311.48 71.928C311.824 71.744 312.2 71.652 312.608 71.652C312.92 71.652 313.2 71.688 313.448 71.76C313.704 71.824 313.92 71.928 314.096 72.072C314.28 72.216 314.42 72.404 314.516 72.636C314.62 72.86 314.672 73.132 314.672 73.452V78H313.652V73.932C313.652 73.74 313.636 73.56 313.604 73.392C313.572 73.224 313.512 73.08 313.424 72.96C313.336 72.832 313.212 72.732 313.052 72.66C312.9 72.588 312.7 72.552 312.452 72.552C311.948 72.552 311.552 72.696 311.264 72.984C310.976 73.272 310.832 73.656 310.832 74.136V78H309.812V73.932C309.812 73.732 309.792 73.548 309.752 73.38C309.72 73.212 309.66 73.068 309.572 72.948C309.484 72.82 309.364 72.724 309.212 72.66C309.068 72.588 308.88 72.552 308.648 72.552C308.352 72.552 308.096 72.612 307.88 72.732C307.672 72.852 307.5 72.996 307.364 73.164C307.236 73.332 307.14 73.508 307.076 73.692C307.02 73.868 306.992 74.016 306.992 74.136V78H305.972V71.796ZM320.69 74.304C320.674 74.064 320.618 73.836 320.522 73.62C320.434 73.404 320.31 73.22 320.15 73.068C319.998 72.908 319.814 72.784 319.598 72.696C319.39 72.6 319.158 72.552 318.902 72.552C318.638 72.552 318.398 72.6 318.182 72.696C317.974 72.784 317.794 72.908 317.642 73.068C317.49 73.228 317.37 73.416 317.282 73.632C317.194 73.84 317.142 74.064 317.126 74.304H320.69ZM321.674 76.032C321.538 76.728 321.238 77.252 320.774 77.604C320.31 77.956 319.726 78.132 319.022 78.132C318.526 78.132 318.094 78.052 317.726 77.892C317.366 77.732 317.062 77.508 316.814 77.22C316.566 76.932 316.378 76.588 316.25 76.188C316.13 75.788 316.062 75.352 316.046 74.88C316.046 74.408 316.118 73.976 316.262 73.584C316.406 73.192 316.606 72.852 316.862 72.564C317.126 72.276 317.434 72.052 317.786 71.892C318.146 71.732 318.538 71.652 318.962 71.652C319.514 71.652 319.97 71.768 320.33 72C320.698 72.224 320.99 72.512 321.206 72.864C321.43 73.216 321.582 73.6 321.662 74.016C321.75 74.432 321.786 74.828 321.77 75.204H317.126C317.118 75.476 317.15 75.736 317.222 75.984C317.294 76.224 317.41 76.44 317.57 76.632C317.73 76.816 317.934 76.964 318.182 77.076C318.43 77.188 318.722 77.244 319.058 77.244C319.49 77.244 319.842 77.144 320.114 76.944C320.394 76.744 320.578 76.44 320.666 76.032H321.674ZM323.007 71.796H323.967V72.78H323.991C324.415 72.028 325.087 71.652 326.007 71.652C326.415 71.652 326.755 71.708 327.027 71.82C327.299 71.932 327.519 72.088 327.687 72.288C327.855 72.488 327.971 72.728 328.035 73.008C328.107 73.28 328.143 73.584 328.143 73.92V78H327.123V73.8C327.123 73.416 327.011 73.112 326.787 72.888C326.563 72.664 326.255 72.552 325.863 72.552C325.551 72.552 325.279 72.6 325.047 72.696C324.823 72.792 324.635 72.928 324.483 73.104C324.331 73.28 324.215 73.488 324.135 73.728C324.063 73.96 324.027 74.216 324.027 74.496V78H323.007V71.796ZM331.271 71.796H332.507V72.696H331.271V76.548C331.271 76.668 331.279 76.764 331.295 76.836C331.319 76.908 331.359 76.964 331.415 77.004C331.471 77.044 331.547 77.072 331.643 77.088C331.747 77.096 331.879 77.1 332.039 77.1H332.507V78H331.727C331.463 78 331.235 77.984 331.043 77.952C330.859 77.912 330.707 77.844 330.587 77.748C330.475 77.652 330.391 77.516 330.335 77.34C330.279 77.164 330.251 76.932 330.251 76.644V72.696H329.195V71.796H330.251V69.936H331.271V71.796ZM334.444 76.044C334.452 76.268 334.504 76.46 334.6 76.62C334.696 76.772 334.82 76.896 334.972 76.992C335.132 77.08 335.308 77.144 335.5 77.184C335.7 77.224 335.904 77.244 336.112 77.244C336.272 77.244 336.44 77.232 336.616 77.208C336.792 77.184 336.952 77.14 337.096 77.076C337.248 77.012 337.372 76.92 337.468 76.8C337.564 76.672 337.612 76.512 337.612 76.32C337.612 76.056 337.512 75.856 337.312 75.72C337.112 75.584 336.86 75.476 336.556 75.396C336.26 75.308 335.936 75.232 335.584 75.168C335.232 75.096 334.904 75 334.6 74.88C334.304 74.752 334.056 74.576 333.856 74.352C333.656 74.128 333.556 73.816 333.556 73.416C333.556 73.104 333.624 72.836 333.76 72.612C333.904 72.388 334.084 72.208 334.3 72.072C334.524 71.928 334.772 71.824 335.044 71.76C335.324 71.688 335.6 71.652 335.872 71.652C336.224 71.652 336.548 71.684 336.844 71.748C337.14 71.804 337.4 71.908 337.624 72.06C337.856 72.204 338.04 72.404 338.176 72.66C338.312 72.908 338.392 73.22 338.416 73.596H337.396C337.38 73.396 337.328 73.232 337.24 73.104C337.152 72.968 337.04 72.86 336.904 72.78C336.768 72.7 336.616 72.644 336.448 72.612C336.288 72.572 336.124 72.552 335.956 72.552C335.804 72.552 335.648 72.564 335.488 72.588C335.336 72.612 335.196 72.656 335.068 72.72C334.94 72.776 334.836 72.856 334.756 72.96C334.676 73.056 334.636 73.184 334.636 73.344C334.636 73.52 334.696 73.668 334.816 73.788C334.944 73.9 335.104 73.996 335.296 74.076C335.488 74.148 335.704 74.212 335.944 74.268C336.184 74.316 336.424 74.368 336.664 74.424C336.92 74.48 337.168 74.548 337.408 74.628C337.656 74.708 337.872 74.816 338.056 74.952C338.248 75.08 338.4 75.244 338.512 75.444C338.632 75.644 338.692 75.892 338.692 76.188C338.692 76.564 338.612 76.876 338.452 77.124C338.3 77.372 338.096 77.572 337.84 77.724C337.592 77.876 337.308 77.98 336.988 78.036C336.676 78.1 336.364 78.132 336.052 78.132C335.708 78.132 335.38 78.096 335.068 78.024C334.756 77.952 334.48 77.836 334.24 77.676C334 77.508 333.808 77.292 333.664 77.028C333.52 76.756 333.44 76.428 333.424 76.044H334.444Z" fill="black" fill-opacity="0.68"/>
<path d="M224.768 98.72H227.296C227.467 98.72 227.68 98.7093 227.936 98.688C228.192 98.656 228.464 98.592 228.752 98.496C229.04 98.3893 229.323 98.24 229.6 98.048C229.888 97.856 230.144 97.5947 230.368 97.264C230.592 96.9333 230.773 96.5227 230.912 96.032C231.061 95.5307 231.136 94.928 231.136 94.224C231.136 93.5413 231.067 92.9333 230.928 92.4C230.8 91.856 230.581 91.3973 230.272 91.024C229.973 90.64 229.584 90.352 229.104 90.16C228.624 89.9573 228.032 89.856 227.328 89.856H224.768V98.72ZM223.248 88.576H227.168C228.928 88.576 230.283 89.024 231.232 89.92C232.181 90.816 232.656 92.1813 232.656 94.016C232.656 94.976 232.549 95.8293 232.336 96.576C232.123 97.312 231.792 97.936 231.344 98.448C230.896 98.9493 230.325 99.3333 229.632 99.6C228.939 99.8667 228.117 100 227.168 100H223.248V88.576ZM240.234 95.072C240.212 94.752 240.138 94.448 240.01 94.16C239.892 93.872 239.727 93.6267 239.514 93.424C239.311 93.2107 239.066 93.0453 238.778 92.928C238.5 92.8 238.191 92.736 237.85 92.736C237.498 92.736 237.178 92.8 236.89 92.928C236.612 93.0453 236.372 93.2107 236.17 93.424C235.967 93.6373 235.807 93.888 235.69 94.176C235.572 94.4533 235.503 94.752 235.482 95.072H240.234ZM241.546 97.376C241.364 98.304 240.964 99.0027 240.346 99.472C239.727 99.9413 238.948 100.176 238.01 100.176C237.348 100.176 236.772 100.069 236.282 99.856C235.802 99.6427 235.396 99.344 235.066 98.96C234.735 98.576 234.484 98.1173 234.314 97.584C234.154 97.0507 234.063 96.4693 234.042 95.84C234.042 95.2107 234.138 94.6347 234.33 94.112C234.522 93.5893 234.788 93.136 235.13 92.752C235.482 92.368 235.892 92.0693 236.362 91.856C236.842 91.6427 237.364 91.536 237.93 91.536C238.666 91.536 239.274 91.6907 239.754 92C240.244 92.2987 240.634 92.6827 240.922 93.152C241.22 93.6213 241.423 94.1333 241.53 94.688C241.647 95.2427 241.695 95.7707 241.674 96.272H235.482C235.471 96.6347 235.514 96.9813 235.61 97.312C235.706 97.632 235.86 97.92 236.074 98.176C236.287 98.4213 236.559 98.6187 236.89 98.768C237.22 98.9173 237.61 98.992 238.058 98.992C238.634 98.992 239.103 98.8587 239.466 98.592C239.839 98.3253 240.084 97.92 240.202 97.376H241.546ZM244.115 97.392C244.126 97.6907 244.195 97.9467 244.323 98.16C244.451 98.3627 244.617 98.528 244.819 98.656C245.033 98.7733 245.267 98.8587 245.523 98.912C245.79 98.9653 246.062 98.992 246.339 98.992C246.553 98.992 246.777 98.976 247.011 98.944C247.246 98.912 247.459 98.8533 247.651 98.768C247.854 98.6827 248.019 98.56 248.147 98.4C248.275 98.2293 248.339 98.016 248.339 97.76C248.339 97.408 248.206 97.1413 247.939 96.96C247.673 96.7787 247.337 96.6347 246.931 96.528C246.537 96.4107 246.105 96.3093 245.635 96.224C245.166 96.128 244.729 96 244.323 95.84C243.929 95.6693 243.598 95.4347 243.331 95.136C243.065 94.8373 242.931 94.4213 242.931 93.888C242.931 93.472 243.022 93.1147 243.203 92.816C243.395 92.5173 243.635 92.2773 243.923 92.096C244.222 91.904 244.553 91.7653 244.915 91.68C245.289 91.584 245.657 91.536 246.019 91.536C246.489 91.536 246.921 91.5787 247.315 91.664C247.71 91.7387 248.057 91.8773 248.355 92.08C248.665 92.272 248.91 92.5387 249.091 92.88C249.273 93.2107 249.379 93.6267 249.411 94.128H248.051C248.03 93.8613 247.961 93.6427 247.843 93.472C247.726 93.2907 247.577 93.1467 247.395 93.04C247.214 92.9333 247.011 92.8587 246.787 92.816C246.574 92.7627 246.355 92.736 246.131 92.736C245.929 92.736 245.721 92.752 245.507 92.784C245.305 92.816 245.118 92.8747 244.947 92.96C244.777 93.0347 244.638 93.1413 244.531 93.28C244.425 93.408 244.371 93.5787 244.371 93.792C244.371 94.0267 244.451 94.224 244.611 94.384C244.782 94.5333 244.995 94.6613 245.251 94.768C245.507 94.864 245.795 94.9493 246.115 95.024C246.435 95.088 246.755 95.1573 247.075 95.232C247.417 95.3067 247.747 95.3973 248.067 95.504C248.398 95.6107 248.686 95.7547 248.931 95.936C249.187 96.1067 249.39 96.3253 249.539 96.592C249.699 96.8587 249.779 97.1893 249.779 97.584C249.779 98.0853 249.673 98.5013 249.459 98.832C249.257 99.1627 248.985 99.4293 248.643 99.632C248.313 99.8347 247.934 99.9733 247.507 100.048C247.091 100.133 246.675 100.176 246.259 100.176C245.801 100.176 245.363 100.128 244.947 100.032C244.531 99.936 244.163 99.7813 243.843 99.568C243.523 99.344 243.267 99.056 243.075 98.704C242.883 98.3413 242.777 97.904 242.755 97.392H244.115ZM257.099 94.384C256.993 93.8613 256.769 93.456 256.427 93.168C256.086 92.88 255.627 92.736 255.051 92.736C254.561 92.736 254.15 92.8267 253.819 93.008C253.489 93.1893 253.222 93.4293 253.019 93.728C252.827 94.0267 252.689 94.3733 252.603 94.768C252.518 95.152 252.475 95.552 252.475 95.968C252.475 96.352 252.518 96.7253 252.603 97.088C252.699 97.4507 252.843 97.776 253.035 98.064C253.227 98.3413 253.478 98.5653 253.787 98.736C254.097 98.9067 254.465 98.992 254.891 98.992C255.563 98.992 256.086 98.816 256.459 98.464C256.843 98.112 257.078 97.616 257.163 96.976H258.555C258.406 98 258.022 98.7893 257.403 99.344C256.795 99.8987 255.963 100.176 254.907 100.176C254.278 100.176 253.718 100.075 253.227 99.872C252.747 99.6693 252.342 99.3813 252.011 99.008C251.691 98.6347 251.446 98.192 251.275 97.68C251.115 97.1573 251.035 96.5867 251.035 95.968C251.035 95.3493 251.115 94.7733 251.275 94.24C251.435 93.696 251.675 93.2267 251.995 92.832C252.326 92.4267 252.737 92.112 253.227 91.888C253.718 91.6533 254.289 91.536 254.939 91.536C255.409 91.536 255.846 91.5947 256.251 91.712C256.667 91.8187 257.03 91.9893 257.339 92.224C257.659 92.4587 257.921 92.7573 258.123 93.12C258.326 93.472 258.454 93.8933 258.507 94.384H257.099ZM260.229 91.728H261.509V93.472H261.541C261.872 92.8 262.277 92.304 262.757 91.984C263.237 91.664 263.845 91.5147 264.581 91.536V92.976C264.037 92.976 263.573 93.0507 263.189 93.2C262.805 93.3493 262.496 93.568 262.261 93.856C262.026 94.144 261.856 94.496 261.749 94.912C261.642 95.3173 261.589 95.7867 261.589 96.32V100H260.229V91.728ZM267.245 90.24H265.885V88.576H267.245V90.24ZM265.885 91.728H267.245V100H265.885V91.728ZM269.6 88.576H270.96V92.848H270.992C271.216 92.3893 271.568 92.0587 272.048 91.856C272.528 91.6427 273.056 91.536 273.632 91.536C274.272 91.536 274.827 91.6533 275.296 91.888C275.776 92.1227 276.171 92.4427 276.48 92.848C276.8 93.2427 277.04 93.7013 277.2 94.224C277.36 94.7467 277.44 95.3013 277.44 95.888C277.44 96.4747 277.36 97.0293 277.2 97.552C277.051 98.0747 276.816 98.5333 276.496 98.928C276.187 99.312 275.792 99.616 275.312 99.84C274.843 100.064 274.293 100.176 273.664 100.176C273.461 100.176 273.232 100.155 272.976 100.112C272.731 100.069 272.485 100 272.24 99.904C271.995 99.808 271.76 99.68 271.536 99.52C271.323 99.3493 271.141 99.1413 270.992 98.896H270.96V100H269.6V88.576ZM276 95.792C276 95.408 275.947 95.0347 275.84 94.672C275.744 94.2987 275.589 93.968 275.376 93.68C275.173 93.392 274.907 93.1627 274.576 92.992C274.256 92.8213 273.877 92.736 273.44 92.736C272.981 92.736 272.592 92.8267 272.272 93.008C271.952 93.1893 271.691 93.4293 271.488 93.728C271.285 94.016 271.136 94.3467 271.04 94.72C270.955 95.0933 270.912 95.472 270.912 95.856C270.912 96.2613 270.96 96.656 271.056 97.04C271.152 97.4133 271.301 97.744 271.504 98.032C271.717 98.32 271.989 98.5547 272.32 98.736C272.651 98.9067 273.051 98.992 273.52 98.992C273.989 98.992 274.379 98.9013 274.688 98.72C275.008 98.5387 275.264 98.2987 275.456 98C275.648 97.7013 275.787 97.36 275.872 96.976C275.957 96.592 276 96.1973 276 95.792ZM284.981 95.072C284.959 94.752 284.885 94.448 284.757 94.16C284.639 93.872 284.474 93.6267 284.261 93.424C284.058 93.2107 283.813 93.0453 283.525 92.928C283.247 92.8 282.938 92.736 282.597 92.736C282.245 92.736 281.925 92.8 281.637 92.928C281.359 93.0453 281.119 93.2107 280.917 93.424C280.714 93.6373 280.554 93.888 280.437 94.176C280.319 94.4533 280.25 94.752 280.229 95.072H284.981ZM286.293 97.376C286.111 98.304 285.711 99.0027 285.093 99.472C284.474 99.9413 283.695 100.176 282.757 100.176C282.095 100.176 281.519 100.069 281.029 99.856C280.549 99.6427 280.143 99.344 279.813 98.96C279.482 98.576 279.231 98.1173 279.061 97.584C278.901 97.0507 278.81 96.4693 278.789 95.84C278.789 95.2107 278.885 94.6347 279.077 94.112C279.269 93.5893 279.535 93.136 279.877 92.752C280.229 92.368 280.639 92.0693 281.109 91.856C281.589 91.6427 282.111 91.536 282.677 91.536C283.413 91.536 284.021 91.6907 284.501 92C284.991 92.2987 285.381 92.6827 285.669 93.152C285.967 93.6213 286.17 94.1333 286.277 94.688C286.394 95.2427 286.442 95.7707 286.421 96.272H280.229C280.218 96.6347 280.261 96.9813 280.357 97.312C280.453 97.632 280.607 97.92 280.821 98.176C281.034 98.4213 281.306 98.6187 281.637 98.768C281.967 98.9173 282.357 98.992 282.805 98.992C283.381 98.992 283.85 98.8587 284.213 98.592C284.586 98.3253 284.831 97.92 284.949 97.376H286.293ZM295.931 101.104C295.771 101.509 295.611 101.851 295.451 102.128C295.302 102.405 295.131 102.629 294.939 102.8C294.758 102.981 294.55 103.109 294.315 103.184C294.091 103.269 293.83 103.312 293.531 103.312C293.371 103.312 293.211 103.301 293.051 103.28C292.891 103.259 292.737 103.221 292.587 103.168V101.92C292.705 101.973 292.838 102.016 292.987 102.048C293.147 102.091 293.281 102.112 293.387 102.112C293.665 102.112 293.894 102.043 294.075 101.904C294.267 101.776 294.411 101.589 294.507 101.344L295.067 99.952L291.787 91.728H293.323L295.739 98.496H295.771L298.091 91.728H299.531L295.931 101.104ZM301.875 95.872C301.875 96.3733 301.939 96.8213 302.067 97.216C302.206 97.6 302.393 97.9253 302.627 98.192C302.862 98.448 303.134 98.6453 303.443 98.784C303.763 98.9227 304.099 98.992 304.451 98.992C304.803 98.992 305.134 98.9227 305.443 98.784C305.763 98.6453 306.041 98.448 306.275 98.192C306.51 97.9253 306.691 97.6 306.819 97.216C306.958 96.8213 307.027 96.3733 307.027 95.872C307.027 95.3707 306.958 94.928 306.819 94.544C306.691 94.1493 306.51 93.8187 306.275 93.552C306.041 93.2853 305.763 93.0827 305.443 92.944C305.134 92.8053 304.803 92.736 304.451 92.736C304.099 92.736 303.763 92.8053 303.443 92.944C303.134 93.0827 302.862 93.2853 302.627 93.552C302.393 93.8187 302.206 94.1493 302.067 94.544C301.939 94.928 301.875 95.3707 301.875 95.872ZM300.435 95.872C300.435 95.264 300.521 94.6987 300.691 94.176C300.862 93.6427 301.118 93.184 301.459 92.8C301.801 92.4053 302.222 92.096 302.723 91.872C303.225 91.648 303.801 91.536 304.451 91.536C305.113 91.536 305.689 91.648 306.179 91.872C306.681 92.096 307.102 92.4053 307.443 92.8C307.785 93.184 308.041 93.6427 308.211 94.176C308.382 94.6987 308.467 95.264 308.467 95.872C308.467 96.48 308.382 97.0453 308.211 97.568C308.041 98.0907 307.785 98.5493 307.443 98.944C307.102 99.328 306.681 99.632 306.179 99.856C305.689 100.069 305.113 100.176 304.451 100.176C303.801 100.176 303.225 100.069 302.723 99.856C302.222 99.632 301.801 99.328 301.459 98.944C301.118 98.5493 300.862 98.0907 300.691 97.568C300.521 97.0453 300.435 96.48 300.435 95.872ZM317.119 100H315.839V98.688H315.807C315.519 99.2 315.151 99.5787 314.703 99.824C314.255 100.059 313.727 100.176 313.119 100.176C312.575 100.176 312.122 100.107 311.759 99.968C311.396 99.8187 311.103 99.6107 310.879 99.344C310.655 99.0773 310.495 98.7627 310.399 98.4C310.314 98.0267 310.271 97.616 310.271 97.168V91.728H311.631V97.328C311.631 97.84 311.78 98.2453 312.079 98.544C312.378 98.8427 312.788 98.992 313.311 98.992C313.727 98.992 314.084 98.928 314.383 98.8C314.692 98.672 314.948 98.4907 315.151 98.256C315.354 98.0213 315.503 97.7493 315.599 97.44C315.706 97.12 315.759 96.7733 315.759 96.4V91.728H317.119V100ZM319.314 91.728H320.594V93.472H320.626C320.956 92.8 321.362 92.304 321.842 91.984C322.322 91.664 322.93 91.5147 323.666 91.536V92.976C323.122 92.976 322.658 93.0507 322.274 93.2C321.89 93.3493 321.58 93.568 321.346 93.856C321.111 94.144 320.94 94.496 320.834 94.912C320.727 95.3173 320.674 95.7867 320.674 96.32V100H319.314V91.728ZM330.983 90.24H329.623V88.576H330.983V90.24ZM329.623 91.728H330.983V100H329.623V91.728ZM334.122 97.392C334.132 97.6907 334.202 97.9467 334.33 98.16C334.458 98.3627 334.623 98.528 334.826 98.656C335.039 98.7733 335.274 98.8587 335.53 98.912C335.796 98.9653 336.068 98.992 336.346 98.992C336.559 98.992 336.783 98.976 337.018 98.944C337.252 98.912 337.466 98.8533 337.658 98.768C337.86 98.6827 338.026 98.56 338.154 98.4C338.282 98.2293 338.346 98.016 338.346 97.76C338.346 97.408 338.212 97.1413 337.946 96.96C337.679 96.7787 337.343 96.6347 336.938 96.528C336.543 96.4107 336.111 96.3093 335.642 96.224C335.172 96.128 334.735 96 334.33 95.84C333.935 95.6693 333.604 95.4347 333.338 95.136C333.071 94.8373 332.938 94.4213 332.938 93.888C332.938 93.472 333.028 93.1147 333.21 92.816C333.402 92.5173 333.642 92.2773 333.93 92.096C334.228 91.904 334.559 91.7653 334.922 91.68C335.295 91.584 335.663 91.536 336.026 91.536C336.495 91.536 336.927 91.5787 337.322 91.664C337.716 91.7387 338.063 91.8773 338.362 92.08C338.671 92.272 338.916 92.5387 339.098 92.88C339.279 93.2107 339.386 93.6267 339.418 94.128H338.058C338.036 93.8613 337.967 93.6427 337.85 93.472C337.732 93.2907 337.583 93.1467 337.402 93.04C337.22 92.9333 337.018 92.8587 336.794 92.816C336.58 92.7627 336.362 92.736 336.138 92.736C335.935 92.736 335.727 92.752 335.514 92.784C335.311 92.816 335.124 92.8747 334.954 92.96C334.783 93.0347 334.644 93.1413 334.538 93.28C334.431 93.408 334.378 93.5787 334.378 93.792C334.378 94.0267 334.458 94.224 334.618 94.384C334.788 94.5333 335.002 94.6613 335.258 94.768C335.514 94.864 335.802 94.9493 336.122 95.024C336.442 95.088 336.762 95.1573 337.082 95.232C337.423 95.3067 337.754 95.3973 338.074 95.504C338.404 95.6107 338.692 95.7547 338.938 95.936C339.194 96.1067 339.396 96.3253 339.546 96.592C339.706 96.8587 339.786 97.1893 339.786 97.584C339.786 98.0853 339.679 98.5013 339.466 98.832C339.263 99.1627 338.991 99.4293 338.65 99.632C338.319 99.8347 337.94 99.9733 337.514 100.048C337.098 100.133 336.682 100.176 336.266 100.176C335.807 100.176 335.37 100.128 334.954 100.032C334.538 99.936 334.17 99.7813 333.85 99.568C333.53 99.344 333.274 99.056 333.082 98.704C332.89 98.3413 332.783 97.904 332.762 97.392H334.122ZM342.322 97.392C342.332 97.6907 342.402 97.9467 342.53 98.16C342.658 98.3627 342.823 98.528 343.026 98.656C343.239 98.7733 343.474 98.8587 343.73 98.912C343.996 98.9653 344.268 98.992 344.546 98.992C344.759 98.992 344.983 98.976 345.218 98.944C345.452 98.912 345.666 98.8533 345.858 98.768C346.06 98.6827 346.226 98.56 346.354 98.4C346.482 98.2293 346.546 98.016 346.546 97.76C346.546 97.408 346.412 97.1413 346.146 96.96C345.879 96.7787 345.543 96.6347 345.138 96.528C344.743 96.4107 344.311 96.3093 343.842 96.224C343.372 96.128 342.935 96 342.53 95.84C342.135 95.6693 341.804 95.4347 341.538 95.136C341.271 94.8373 341.138 94.4213 341.138 93.888C341.138 93.472 341.228 93.1147 341.41 92.816C341.602 92.5173 341.842 92.2773 342.13 92.096C342.428 91.904 342.759 91.7653 343.122 91.68C343.495 91.584 343.863 91.536 344.226 91.536C344.695 91.536 345.127 91.5787 345.522 91.664C345.916 91.7387 346.263 91.8773 346.562 92.08C346.871 92.272 347.116 92.5387 347.298 92.88C347.479 93.2107 347.586 93.6267 347.618 94.128H346.258C346.236 93.8613 346.167 93.6427 346.05 93.472C345.932 93.2907 345.783 93.1467 345.602 93.04C345.42 92.9333 345.218 92.8587 344.994 92.816C344.78 92.7627 344.562 92.736 344.338 92.736C344.135 92.736 343.927 92.752 343.714 92.784C343.511 92.816 343.324 92.8747 343.154 92.96C342.983 93.0347 342.844 93.1413 342.738 93.28C342.631 93.408 342.578 93.5787 342.578 93.792C342.578 94.0267 342.658 94.224 342.818 94.384C342.988 94.5333 343.202 94.6613 343.458 94.768C343.714 94.864 344.002 94.9493 344.322 95.024C344.642 95.088 344.962 95.1573 345.282 95.232C345.623 95.3067 345.954 95.3973 346.274 95.504C346.604 95.6107 346.892 95.7547 347.138 95.936C347.394 96.1067 347.596 96.3253 347.746 96.592C347.906 96.8587 347.986 97.1893 347.986 97.584C347.986 98.0853 347.879 98.5013 347.666 98.832C347.463 99.1627 347.191 99.4293 346.85 99.632C346.519 99.8347 346.14 99.9733 345.714 100.048C345.298 100.133 344.882 100.176 344.466 100.176C344.007 100.176 343.57 100.128 343.154 100.032C342.738 99.936 342.37 99.7813 342.05 99.568C341.73 99.344 341.474 99.056 341.282 98.704C341.09 98.3413 340.983 97.904 340.962 97.392H342.322ZM356.538 100H355.258V98.688H355.226C354.938 99.2 354.57 99.5787 354.122 99.824C353.674 100.059 353.146 100.176 352.538 100.176C351.994 100.176 351.54 100.107 351.178 99.968C350.815 99.8187 350.522 99.6107 350.298 99.344C350.074 99.0773 349.914 98.7627 349.818 98.4C349.732 98.0267 349.69 97.616 349.69 97.168V91.728H351.05V97.328C351.05 97.84 351.199 98.2453 351.498 98.544C351.796 98.8427 352.207 98.992 352.73 98.992C353.146 98.992 353.503 98.928 353.802 98.8C354.111 98.672 354.367 98.4907 354.57 98.256C354.772 98.0213 354.922 97.7493 355.018 97.44C355.124 97.12 355.178 96.7733 355.178 96.4V91.728H356.538V100ZM364.524 95.072C364.503 94.752 364.428 94.448 364.3 94.16C364.183 93.872 364.018 93.6267 363.804 93.424C363.602 93.2107 363.356 93.0453 363.068 92.928C362.791 92.8 362.482 92.736 362.14 92.736C361.788 92.736 361.468 92.8 361.18 92.928C360.903 93.0453 360.663 93.2107 360.46 93.424C360.258 93.6373 360.098 93.888 359.98 94.176C359.863 94.4533 359.794 94.752 359.772 95.072H364.524ZM365.836 97.376C365.655 98.304 365.255 99.0027 364.636 99.472C364.018 99.9413 363.239 100.176 362.3 100.176C361.639 100.176 361.063 100.069 360.572 99.856C360.092 99.6427 359.687 99.344 359.356 98.96C359.026 98.576 358.775 98.1173 358.604 97.584C358.444 97.0507 358.354 96.4693 358.332 95.84C358.332 95.2107 358.428 94.6347 358.62 94.112C358.812 93.5893 359.079 93.136 359.42 92.752C359.772 92.368 360.183 92.0693 360.652 91.856C361.132 91.6427 361.655 91.536 362.22 91.536C362.956 91.536 363.564 91.6907 364.044 92C364.535 92.2987 364.924 92.6827 365.212 93.152C365.511 93.6213 365.714 94.1333 365.82 94.688C365.938 95.2427 365.986 95.7707 365.964 96.272H359.772C359.762 96.6347 359.804 96.9813 359.9 97.312C359.996 97.632 360.151 97.92 360.364 98.176C360.578 98.4213 360.85 98.6187 361.18 98.768C361.511 98.9173 361.9 98.992 362.348 98.992C362.924 98.992 363.394 98.8587 363.756 98.592C364.13 98.3253 364.375 97.92 364.492 97.376H365.836ZM373.667 90.24H372.307V88.576H373.667V90.24ZM372.307 91.728H373.667V100H372.307V91.728ZM375.974 91.728H377.254V93.04H377.286C377.851 92.0373 378.747 91.536 379.974 91.536C380.518 91.536 380.971 91.6107 381.334 91.76C381.697 91.9093 381.99 92.1173 382.214 92.384C382.438 92.6507 382.593 92.9707 382.678 93.344C382.774 93.7067 382.822 94.112 382.822 94.56V100H381.462V94.4C381.462 93.888 381.313 93.4827 381.014 93.184C380.715 92.8853 380.305 92.736 379.782 92.736C379.366 92.736 379.003 92.8 378.694 92.928C378.395 93.056 378.145 93.2373 377.942 93.472C377.739 93.7067 377.585 93.984 377.478 94.304C377.382 94.6133 377.334 94.9547 377.334 95.328V100H375.974V91.728ZM390.71 95.936C390.71 96.32 390.758 96.6987 390.854 97.072C390.96 97.4347 391.115 97.76 391.318 98.048C391.531 98.336 391.798 98.5653 392.118 98.736C392.448 98.9067 392.832 98.992 393.27 98.992C393.728 98.992 394.118 98.9013 394.438 98.72C394.758 98.5387 395.019 98.304 395.222 98.016C395.424 97.7173 395.568 97.3813 395.654 97.008C395.75 96.6347 395.798 96.256 395.798 95.872C395.798 95.4667 395.75 95.0773 395.654 94.704C395.558 94.32 395.403 93.984 395.19 93.696C394.987 93.408 394.72 93.1787 394.39 93.008C394.059 92.8267 393.659 92.736 393.19 92.736C392.731 92.736 392.342 92.8267 392.022 93.008C391.702 93.1893 391.446 93.4293 391.254 93.728C391.062 94.0267 390.923 94.368 390.838 94.752C390.752 95.136 390.71 95.5307 390.71 95.936ZM397.11 100H395.75V98.88H395.718C395.494 99.3387 395.142 99.6693 394.662 99.872C394.182 100.075 393.654 100.176 393.078 100.176C392.438 100.176 391.878 100.059 391.398 99.824C390.928 99.5893 390.534 99.2747 390.214 98.88C389.904 98.4853 389.67 98.0267 389.51 97.504C389.35 96.9813 389.27 96.4267 389.27 95.84C389.27 95.2533 389.344 94.6987 389.494 94.176C389.654 93.6533 389.888 93.2 390.198 92.816C390.518 92.4213 390.912 92.112 391.382 91.888C391.862 91.6533 392.416 91.536 393.046 91.536C393.259 91.536 393.488 91.5573 393.734 91.6C393.979 91.6427 394.224 91.7173 394.47 91.824C394.715 91.92 394.944 92.0533 395.158 92.224C395.382 92.384 395.568 92.5867 395.718 92.832H395.75V88.576H397.11V100ZM405.146 95.072C405.125 94.752 405.05 94.448 404.922 94.16C404.805 93.872 404.639 93.6267 404.426 93.424C404.223 93.2107 403.978 93.0453 403.69 92.928C403.413 92.8 403.103 92.736 402.762 92.736C402.41 92.736 402.09 92.8 401.802 92.928C401.525 93.0453 401.285 93.2107 401.082 93.424C400.879 93.6373 400.719 93.888 400.602 94.176C400.485 94.4533 400.415 94.752 400.394 95.072H405.146ZM406.458 97.376C406.277 98.304 405.877 99.0027 405.258 99.472C404.639 99.9413 403.861 100.176 402.922 100.176C402.261 100.176 401.685 100.069 401.194 99.856C400.714 99.6427 400.309 99.344 399.978 98.96C399.647 98.576 399.397 98.1173 399.226 97.584C399.066 97.0507 398.975 96.4693 398.954 95.84C398.954 95.2107 399.05 94.6347 399.242 94.112C399.434 93.5893 399.701 93.136 400.042 92.752C400.394 92.368 400.805 92.0693 401.274 91.856C401.754 91.6427 402.277 91.536 402.842 91.536C403.578 91.536 404.186 91.6907 404.666 92C405.157 92.2987 405.546 92.6827 405.834 93.152C406.133 93.6213 406.335 94.1333 406.442 94.688C406.559 95.2427 406.607 95.7707 406.586 96.272H400.394C400.383 96.6347 400.426 96.9813 400.522 97.312C400.618 97.632 400.773 97.92 400.986 98.176C401.199 98.4213 401.471 98.6187 401.802 98.768C402.133 98.9173 402.522 98.992 402.97 98.992C403.546 98.992 404.015 98.8587 404.378 98.592C404.751 98.3253 404.997 97.92 405.114 97.376H406.458ZM410.084 91.728H411.732V92.928H410.084V98.064C410.084 98.224 410.095 98.352 410.116 98.448C410.148 98.544 410.201 98.6187 410.276 98.672C410.351 98.7253 410.452 98.7627 410.58 98.784C410.719 98.7947 410.895 98.8 411.108 98.8H411.732V100H410.692C410.34 100 410.036 99.9787 409.78 99.936C409.535 99.8827 409.332 99.792 409.172 99.664C409.023 99.536 408.911 99.3547 408.836 99.12C408.761 98.8853 408.724 98.576 408.724 98.192V92.928H407.316V91.728H408.724V89.248H410.084V91.728ZM420.771 99.968C420.536 100.107 420.211 100.176 419.795 100.176C419.443 100.176 419.16 100.08 418.947 99.888C418.744 99.6853 418.643 99.36 418.643 98.912C418.269 99.36 417.832 99.6853 417.331 99.888C416.84 100.08 416.307 100.176 415.731 100.176C415.357 100.176 415 100.133 414.659 100.048C414.328 99.9627 414.04 99.8293 413.795 99.648C413.549 99.4667 413.352 99.232 413.203 98.944C413.064 98.6453 412.995 98.288 412.995 97.872C412.995 97.4027 413.075 97.0187 413.235 96.72C413.395 96.4213 413.603 96.1813 413.859 96C414.125 95.808 414.424 95.664 414.755 95.568C415.096 95.472 415.443 95.392 415.795 95.328C416.168 95.2533 416.52 95.2 416.851 95.168C417.192 95.1253 417.491 95.072 417.747 95.008C418.003 94.9333 418.205 94.832 418.355 94.704C418.504 94.5653 418.579 94.368 418.579 94.112C418.579 93.8133 418.52 93.5733 418.403 93.392C418.296 93.2107 418.152 93.072 417.971 92.976C417.8 92.88 417.603 92.816 417.379 92.784C417.165 92.752 416.952 92.736 416.739 92.736C416.163 92.736 415.683 92.848 415.299 93.072C414.915 93.2853 414.707 93.696 414.675 94.304H413.315C413.336 93.792 413.443 93.36 413.635 93.008C413.827 92.656 414.083 92.3733 414.403 92.16C414.723 91.936 415.085 91.776 415.491 91.68C415.907 91.584 416.349 91.536 416.819 91.536C417.192 91.536 417.56 91.5627 417.923 91.616C418.296 91.6693 418.632 91.7813 418.931 91.952C419.229 92.112 419.469 92.3413 419.651 92.64C419.832 92.9387 419.923 93.328 419.923 93.808V98.064C419.923 98.384 419.939 98.6187 419.971 98.768C420.013 98.9173 420.141 98.992 420.355 98.992C420.472 98.992 420.611 98.9653 420.771 98.912V99.968ZM418.563 95.728C418.392 95.856 418.168 95.952 417.891 96.016C417.613 96.0693 417.32 96.1173 417.011 96.16C416.712 96.192 416.408 96.2347 416.099 96.288C415.789 96.3307 415.512 96.4053 415.267 96.512C415.021 96.6187 414.819 96.7733 414.659 96.976C414.509 97.168 414.435 97.4347 414.435 97.776C414.435 98 414.477 98.192 414.563 98.352C414.659 98.5013 414.776 98.624 414.915 98.72C415.064 98.816 415.235 98.8853 415.427 98.928C415.619 98.9707 415.821 98.992 416.035 98.992C416.483 98.992 416.867 98.9333 417.187 98.816C417.507 98.688 417.768 98.5333 417.971 98.352C418.173 98.16 418.323 97.9573 418.419 97.744C418.515 97.52 418.563 97.312 418.563 97.12V95.728ZM423.676 90.24H422.316V88.576H423.676V90.24ZM422.316 91.728H423.676V100H422.316V91.728ZM426.063 88.576H427.423V100H426.063V88.576Z" fill="black" fill-opacity="0.68"/>
<path d="M227.222 182.912V187H225.892V182.912L222.028 177.004H223.61L226.606 181.764L229.532 177.004H231.044L227.222 182.912ZM231.459 183.388C231.459 183.827 231.515 184.219 231.627 184.564C231.748 184.9 231.911 185.185 232.117 185.418C232.322 185.642 232.56 185.815 232.831 185.936C233.111 186.057 233.405 186.118 233.713 186.118C234.021 186.118 234.31 186.057 234.581 185.936C234.861 185.815 235.103 185.642 235.309 185.418C235.514 185.185 235.673 184.9 235.785 184.564C235.906 184.219 235.967 183.827 235.967 183.388C235.967 182.949 235.906 182.562 235.785 182.226C235.673 181.881 235.514 181.591 235.309 181.358C235.103 181.125 234.861 180.947 234.581 180.826C234.31 180.705 234.021 180.644 233.713 180.644C233.405 180.644 233.111 180.705 232.831 180.826C232.56 180.947 232.322 181.125 232.117 181.358C231.911 181.591 231.748 181.881 231.627 182.226C231.515 182.562 231.459 182.949 231.459 183.388ZM230.199 183.388C230.199 182.856 230.273 182.361 230.423 181.904C230.572 181.437 230.796 181.036 231.095 180.7C231.393 180.355 231.762 180.084 232.201 179.888C232.639 179.692 233.143 179.594 233.713 179.594C234.291 179.594 234.795 179.692 235.225 179.888C235.663 180.084 236.032 180.355 236.331 180.7C236.629 181.036 236.853 181.437 237.003 181.904C237.152 182.361 237.227 182.856 237.227 183.388C237.227 183.92 237.152 184.415 237.003 184.872C236.853 185.329 236.629 185.731 236.331 186.076C236.032 186.412 235.663 186.678 235.225 186.874C234.795 187.061 234.291 187.154 233.713 187.154C233.143 187.154 232.639 187.061 232.201 186.874C231.762 186.678 231.393 186.412 231.095 186.076C230.796 185.731 230.572 185.329 230.423 184.872C230.273 184.415 230.199 183.92 230.199 183.388ZM244.797 187H243.677V185.852H243.649C243.397 186.3 243.075 186.631 242.683 186.846C242.291 187.051 241.829 187.154 241.297 187.154C240.821 187.154 240.424 187.093 240.107 186.972C239.789 186.841 239.533 186.659 239.337 186.426C239.141 186.193 239.001 185.917 238.917 185.6C238.842 185.273 238.805 184.914 238.805 184.522V179.762H239.995V184.662C239.995 185.11 240.125 185.465 240.387 185.726C240.648 185.987 241.007 186.118 241.465 186.118C241.829 186.118 242.141 186.062 242.403 185.95C242.673 185.838 242.897 185.679 243.075 185.474C243.252 185.269 243.383 185.031 243.467 184.76C243.56 184.48 243.607 184.177 243.607 183.85V179.762H244.797V187ZM250.83 177.004H252.02V180.826H252.048C252.142 180.602 252.272 180.415 252.44 180.266C252.608 180.107 252.795 179.981 253 179.888C253.215 179.785 253.434 179.711 253.658 179.664C253.892 179.617 254.116 179.594 254.33 179.594C254.806 179.594 255.203 179.659 255.52 179.79C255.838 179.921 256.094 180.103 256.29 180.336C256.486 180.569 256.622 180.849 256.696 181.176C256.78 181.493 256.822 181.848 256.822 182.24V187H255.632V182.1C255.632 181.652 255.502 181.297 255.24 181.036C254.979 180.775 254.62 180.644 254.162 180.644C253.798 180.644 253.481 180.7 253.21 180.812C252.949 180.924 252.73 181.083 252.552 181.288C252.375 181.493 252.24 181.736 252.146 182.016C252.062 182.287 252.02 182.585 252.02 182.912V187H250.83V177.004ZM265.197 186.972C264.991 187.093 264.707 187.154 264.343 187.154C264.035 187.154 263.787 187.07 263.601 186.902C263.423 186.725 263.335 186.44 263.335 186.048C263.008 186.44 262.625 186.725 262.187 186.902C261.757 187.07 261.291 187.154 260.787 187.154C260.46 187.154 260.147 187.117 259.849 187.042C259.559 186.967 259.307 186.851 259.093 186.692C258.878 186.533 258.705 186.328 258.575 186.076C258.453 185.815 258.393 185.502 258.393 185.138C258.393 184.727 258.463 184.391 258.603 184.13C258.743 183.869 258.925 183.659 259.149 183.5C259.382 183.332 259.643 183.206 259.933 183.122C260.231 183.038 260.535 182.968 260.843 182.912C261.169 182.847 261.477 182.8 261.767 182.772C262.065 182.735 262.327 182.688 262.551 182.632C262.775 182.567 262.952 182.478 263.083 182.366C263.213 182.245 263.279 182.072 263.279 181.848C263.279 181.587 263.227 181.377 263.125 181.218C263.031 181.059 262.905 180.938 262.747 180.854C262.597 180.77 262.425 180.714 262.229 180.686C262.042 180.658 261.855 180.644 261.669 180.644C261.165 180.644 260.745 180.742 260.409 180.938C260.073 181.125 259.891 181.484 259.863 182.016H258.673C258.691 181.568 258.785 181.19 258.953 180.882C259.121 180.574 259.345 180.327 259.625 180.14C259.905 179.944 260.222 179.804 260.577 179.72C260.941 179.636 261.328 179.594 261.739 179.594C262.065 179.594 262.387 179.617 262.705 179.664C263.031 179.711 263.325 179.809 263.587 179.958C263.848 180.098 264.058 180.299 264.217 180.56C264.375 180.821 264.455 181.162 264.455 181.582V185.306C264.455 185.586 264.469 185.791 264.497 185.922C264.534 186.053 264.646 186.118 264.833 186.118C264.935 186.118 265.057 186.095 265.197 186.048V186.972ZM263.265 183.262C263.115 183.374 262.919 183.458 262.677 183.514C262.434 183.561 262.177 183.603 261.907 183.64C261.645 183.668 261.379 183.705 261.109 183.752C260.838 183.789 260.595 183.855 260.381 183.948C260.166 184.041 259.989 184.177 259.849 184.354C259.718 184.522 259.653 184.755 259.653 185.054C259.653 185.25 259.69 185.418 259.765 185.558C259.849 185.689 259.951 185.796 260.073 185.88C260.203 185.964 260.353 186.025 260.521 186.062C260.689 186.099 260.866 186.118 261.053 186.118C261.445 186.118 261.781 186.067 262.061 185.964C262.341 185.852 262.569 185.717 262.747 185.558C262.924 185.39 263.055 185.213 263.139 185.026C263.223 184.83 263.265 184.648 263.265 184.48V183.262ZM269.741 187H268.467L265.779 179.762H267.109L269.139 185.796H269.167L271.141 179.762H272.387L269.741 187ZM278.68 182.688C278.662 182.408 278.596 182.142 278.484 181.89C278.382 181.638 278.237 181.423 278.05 181.246C277.873 181.059 277.658 180.915 277.406 180.812C277.164 180.7 276.893 180.644 276.594 180.644C276.286 180.644 276.006 180.7 275.754 180.812C275.512 180.915 275.302 181.059 275.124 181.246C274.947 181.433 274.807 181.652 274.704 181.904C274.602 182.147 274.541 182.408 274.522 182.688H278.68ZM279.828 184.704C279.67 185.516 279.32 186.127 278.778 186.538C278.237 186.949 277.556 187.154 276.734 187.154C276.156 187.154 275.652 187.061 275.222 186.874C274.802 186.687 274.448 186.426 274.158 186.09C273.869 185.754 273.65 185.353 273.5 184.886C273.36 184.419 273.281 183.911 273.262 183.36C273.262 182.809 273.346 182.305 273.514 181.848C273.682 181.391 273.916 180.994 274.214 180.658C274.522 180.322 274.882 180.061 275.292 179.874C275.712 179.687 276.17 179.594 276.664 179.594C277.308 179.594 277.84 179.729 278.26 180C278.69 180.261 279.03 180.597 279.282 181.008C279.544 181.419 279.721 181.867 279.814 182.352C279.917 182.837 279.959 183.299 279.94 183.738H274.522C274.513 184.055 274.55 184.359 274.634 184.648C274.718 184.928 274.854 185.18 275.04 185.404C275.227 185.619 275.465 185.791 275.754 185.922C276.044 186.053 276.384 186.118 276.776 186.118C277.28 186.118 277.691 186.001 278.008 185.768C278.335 185.535 278.55 185.18 278.652 184.704H279.828ZM290.012 187H288.024V180.644H285.56V179.146C285.906 179.155 286.237 179.132 286.554 179.076C286.881 179.011 287.17 178.903 287.422 178.754C287.684 178.595 287.903 178.39 288.08 178.138C288.258 177.886 288.374 177.573 288.43 177.2H290.012V187ZM294.887 179.86C294.887 180.28 295.036 180.602 295.335 180.826C295.633 181.041 295.983 181.148 296.385 181.148C296.805 181.148 297.155 181.041 297.435 180.826C297.715 180.602 297.855 180.28 297.855 179.86C297.855 179.729 297.836 179.589 297.799 179.44C297.761 179.281 297.687 179.132 297.575 178.992C297.472 178.852 297.323 178.735 297.127 178.642C296.94 178.549 296.693 178.502 296.385 178.502C296.189 178.502 295.997 178.535 295.811 178.6C295.633 178.656 295.475 178.74 295.335 178.852C295.195 178.964 295.083 179.104 294.999 179.272C294.924 179.44 294.887 179.636 294.887 179.86ZM293.081 179.678C293.081 179.239 293.179 178.852 293.375 178.516C293.571 178.18 293.823 177.9 294.131 177.676C294.448 177.452 294.803 177.284 295.195 177.172C295.587 177.06 295.983 177.004 296.385 177.004C296.991 177.004 297.505 177.097 297.925 177.284C298.345 177.471 298.681 177.699 298.933 177.97C299.194 178.231 299.381 178.516 299.493 178.824C299.605 179.123 299.661 179.393 299.661 179.636C299.661 180.121 299.539 180.546 299.297 180.91C299.063 181.274 298.709 181.535 298.233 181.694V181.722C298.821 181.853 299.273 182.133 299.591 182.562C299.908 182.982 300.067 183.5 300.067 184.116C300.067 184.639 299.959 185.091 299.745 185.474C299.539 185.857 299.264 186.174 298.919 186.426C298.573 186.678 298.181 186.869 297.743 187C297.304 187.121 296.856 187.182 296.399 187.182C295.923 187.182 295.461 187.121 295.013 187C294.574 186.888 294.177 186.706 293.823 186.454C293.477 186.202 293.197 185.885 292.983 185.502C292.777 185.119 292.675 184.662 292.675 184.13C292.675 183.505 292.833 182.982 293.151 182.562C293.477 182.142 293.935 181.862 294.523 181.722V181.694C294.047 181.563 293.687 181.316 293.445 180.952C293.202 180.588 293.081 180.163 293.081 179.678ZM294.663 184.032C294.663 184.284 294.709 184.513 294.803 184.718C294.896 184.923 295.017 185.101 295.167 185.25C295.325 185.39 295.512 185.502 295.727 185.586C295.941 185.661 296.165 185.698 296.399 185.698C296.641 185.698 296.861 185.661 297.057 185.586C297.262 185.502 297.439 185.39 297.589 185.25C297.747 185.101 297.869 184.923 297.953 184.718C298.037 184.513 298.079 184.289 298.079 184.046C298.079 183.813 298.032 183.603 297.939 183.416C297.855 183.22 297.733 183.052 297.575 182.912C297.425 182.772 297.248 182.665 297.043 182.59C296.847 182.515 296.632 182.478 296.399 182.478C295.913 182.478 295.503 182.613 295.167 182.884C294.831 183.145 294.663 183.528 294.663 184.032ZM302.715 182.058C302.715 182.338 302.724 182.679 302.743 183.08C302.761 183.472 302.817 183.855 302.911 184.228C303.013 184.592 303.172 184.905 303.387 185.166C303.601 185.427 303.909 185.558 304.311 185.558C304.721 185.558 305.034 185.427 305.249 185.166C305.473 184.905 305.631 184.592 305.725 184.228C305.827 183.855 305.888 183.472 305.907 183.08C305.925 182.679 305.935 182.338 305.935 182.058C305.935 181.89 305.93 181.689 305.921 181.456C305.921 181.213 305.902 180.966 305.865 180.714C305.837 180.462 305.79 180.215 305.725 179.972C305.669 179.72 305.58 179.496 305.459 179.3C305.337 179.104 305.183 178.945 304.997 178.824C304.81 178.703 304.581 178.642 304.311 178.642C304.04 178.642 303.811 178.703 303.625 178.824C303.447 178.945 303.298 179.104 303.177 179.3C303.065 179.496 302.976 179.72 302.911 179.972C302.845 180.215 302.799 180.462 302.771 180.714C302.743 180.966 302.724 181.213 302.715 181.456C302.715 181.689 302.715 181.89 302.715 182.058ZM300.727 182.058C300.727 181.106 300.82 180.308 301.007 179.664C301.203 179.011 301.464 178.488 301.791 178.096C302.117 177.704 302.495 177.424 302.925 177.256C303.363 177.088 303.825 177.004 304.311 177.004C304.805 177.004 305.267 177.088 305.697 177.256C306.135 177.424 306.518 177.704 306.845 178.096C307.181 178.488 307.442 179.011 307.629 179.664C307.825 180.308 307.923 181.106 307.923 182.058C307.923 183.038 307.825 183.859 307.629 184.522C307.442 185.175 307.181 185.698 306.845 186.09C306.518 186.482 306.135 186.762 305.697 186.93C305.267 187.098 304.805 187.182 304.311 187.182C303.825 187.182 303.363 187.098 302.925 186.93C302.495 186.762 302.117 186.482 301.791 186.09C301.464 185.698 301.203 185.175 301.007 184.522C300.82 183.859 300.727 183.038 300.727 182.058ZM318.269 182.086C318.175 181.629 317.979 181.274 317.681 181.022C317.382 180.77 316.981 180.644 316.477 180.644C316.047 180.644 315.688 180.723 315.399 180.882C315.109 181.041 314.876 181.251 314.699 181.512C314.531 181.773 314.409 182.077 314.335 182.422C314.26 182.758 314.223 183.108 314.223 183.472C314.223 183.808 314.26 184.135 314.335 184.452C314.419 184.769 314.545 185.054 314.713 185.306C314.881 185.549 315.1 185.745 315.371 185.894C315.641 186.043 315.963 186.118 316.337 186.118C316.925 186.118 317.382 185.964 317.709 185.656C318.045 185.348 318.25 184.914 318.325 184.354H319.543C319.412 185.25 319.076 185.941 318.535 186.426C318.003 186.911 317.275 187.154 316.351 187.154C315.8 187.154 315.31 187.065 314.881 186.888C314.461 186.711 314.106 186.459 313.817 186.132C313.537 185.805 313.322 185.418 313.173 184.97C313.033 184.513 312.963 184.013 312.963 183.472C312.963 182.931 313.033 182.427 313.173 181.96C313.313 181.484 313.523 181.073 313.803 180.728C314.092 180.373 314.451 180.098 314.881 179.902C315.31 179.697 315.809 179.594 316.379 179.594C316.789 179.594 317.172 179.645 317.527 179.748C317.891 179.841 318.208 179.991 318.479 180.196C318.759 180.401 318.987 180.663 319.165 180.98C319.342 181.288 319.454 181.657 319.501 182.086H318.269ZM321.049 177.004H322.239V180.826H322.267C322.36 180.602 322.491 180.415 322.659 180.266C322.827 180.107 323.014 179.981 323.219 179.888C323.434 179.785 323.653 179.711 323.877 179.664C324.11 179.617 324.334 179.594 324.549 179.594C325.025 179.594 325.422 179.659 325.739 179.79C326.056 179.921 326.313 180.103 326.509 180.336C326.705 180.569 326.84 180.849 326.915 181.176C326.999 181.493 327.041 181.848 327.041 182.24V187H325.851V182.1C325.851 181.652 325.72 181.297 325.459 181.036C325.198 180.775 324.838 180.644 324.381 180.644C324.017 180.644 323.7 180.7 323.429 180.812C323.168 180.924 322.948 181.083 322.771 181.288C322.594 181.493 322.458 181.736 322.365 182.016C322.281 182.287 322.239 182.585 322.239 182.912V187H321.049V177.004ZM335.415 186.972C335.21 187.093 334.925 187.154 334.561 187.154C334.253 187.154 334.006 187.07 333.819 186.902C333.642 186.725 333.553 186.44 333.553 186.048C333.227 186.44 332.844 186.725 332.405 186.902C331.976 187.07 331.509 187.154 331.005 187.154C330.679 187.154 330.366 187.117 330.067 187.042C329.778 186.967 329.526 186.851 329.311 186.692C329.097 186.533 328.924 186.328 328.793 186.076C328.672 185.815 328.611 185.502 328.611 185.138C328.611 184.727 328.681 184.391 328.821 184.13C328.961 183.869 329.143 183.659 329.367 183.5C329.601 183.332 329.862 183.206 330.151 183.122C330.45 183.038 330.753 182.968 331.061 182.912C331.388 182.847 331.696 182.8 331.985 182.772C332.284 182.735 332.545 182.688 332.769 182.632C332.993 182.567 333.171 182.478 333.301 182.366C333.432 182.245 333.497 182.072 333.497 181.848C333.497 181.587 333.446 181.377 333.343 181.218C333.25 181.059 333.124 180.938 332.965 180.854C332.816 180.77 332.643 180.714 332.447 180.686C332.261 180.658 332.074 180.644 331.887 180.644C331.383 180.644 330.963 180.742 330.627 180.938C330.291 181.125 330.109 181.484 330.081 182.016H328.891C328.91 181.568 329.003 181.19 329.171 180.882C329.339 180.574 329.563 180.327 329.843 180.14C330.123 179.944 330.441 179.804 330.795 179.72C331.159 179.636 331.547 179.594 331.957 179.594C332.284 179.594 332.606 179.617 332.923 179.664C333.25 179.711 333.544 179.809 333.805 179.958C334.067 180.098 334.277 180.299 334.435 180.56C334.594 180.821 334.673 181.162 334.673 181.582V185.306C334.673 185.586 334.687 185.791 334.715 185.922C334.753 186.053 334.865 186.118 335.051 186.118C335.154 186.118 335.275 186.095 335.415 186.048V186.972ZM333.483 183.262C333.334 183.374 333.138 183.458 332.895 183.514C332.653 183.561 332.396 183.603 332.125 183.64C331.864 183.668 331.598 183.705 331.327 183.752C331.057 183.789 330.814 183.855 330.599 183.948C330.385 184.041 330.207 184.177 330.067 184.354C329.937 184.522 329.871 184.755 329.871 185.054C329.871 185.25 329.909 185.418 329.983 185.558C330.067 185.689 330.17 185.796 330.291 185.88C330.422 185.964 330.571 186.025 330.739 186.062C330.907 186.099 331.085 186.118 331.271 186.118C331.663 186.118 331.999 186.067 332.279 185.964C332.559 185.852 332.788 185.717 332.965 185.558C333.143 185.39 333.273 185.213 333.357 185.026C333.441 184.83 333.483 184.648 333.483 184.48V183.262ZM336.656 179.762H337.776V181.288H337.804C338.093 180.7 338.448 180.266 338.868 179.986C339.288 179.706 339.82 179.575 340.464 179.594V180.854C339.988 180.854 339.582 180.919 339.246 181.05C338.91 181.181 338.639 181.372 338.434 181.624C338.229 181.876 338.079 182.184 337.986 182.548C337.893 182.903 337.846 183.313 337.846 183.78V187H336.656V179.762ZM347.947 186.972C347.742 187.093 347.457 187.154 347.093 187.154C346.785 187.154 346.538 187.07 346.351 186.902C346.174 186.725 346.085 186.44 346.085 186.048C345.758 186.44 345.376 186.725 344.937 186.902C344.508 187.07 344.041 187.154 343.537 187.154C343.21 187.154 342.898 187.117 342.599 187.042C342.31 186.967 342.058 186.851 341.843 186.692C341.628 186.533 341.456 186.328 341.325 186.076C341.204 185.815 341.143 185.502 341.143 185.138C341.143 184.727 341.213 184.391 341.353 184.13C341.493 183.869 341.675 183.659 341.899 183.5C342.132 183.332 342.394 183.206 342.683 183.122C342.982 183.038 343.285 182.968 343.593 182.912C343.92 182.847 344.228 182.8 344.517 182.772C344.816 182.735 345.077 182.688 345.301 182.632C345.525 182.567 345.702 182.478 345.833 182.366C345.964 182.245 346.029 182.072 346.029 181.848C346.029 181.587 345.978 181.377 345.875 181.218C345.782 181.059 345.656 180.938 345.497 180.854C345.348 180.77 345.175 180.714 344.979 180.686C344.792 180.658 344.606 180.644 344.419 180.644C343.915 180.644 343.495 180.742 343.159 180.938C342.823 181.125 342.641 181.484 342.613 182.016H341.423C341.442 181.568 341.535 181.19 341.703 180.882C341.871 180.574 342.095 180.327 342.375 180.14C342.655 179.944 342.972 179.804 343.327 179.72C343.691 179.636 344.078 179.594 344.489 179.594C344.816 179.594 345.138 179.617 345.455 179.664C345.782 179.711 346.076 179.809 346.337 179.958C346.598 180.098 346.808 180.299 346.967 180.56C347.126 180.821 347.205 181.162 347.205 181.582V185.306C347.205 185.586 347.219 185.791 347.247 185.922C347.284 186.053 347.396 186.118 347.583 186.118C347.686 186.118 347.807 186.095 347.947 186.048V186.972ZM346.015 183.262C345.866 183.374 345.67 183.458 345.427 183.514C345.184 183.561 344.928 183.603 344.657 183.64C344.396 183.668 344.13 183.705 343.859 183.752C343.588 183.789 343.346 183.855 343.131 183.948C342.916 184.041 342.739 184.177 342.599 184.354C342.468 184.522 342.403 184.755 342.403 185.054C342.403 185.25 342.44 185.418 342.515 185.558C342.599 185.689 342.702 185.796 342.823 185.88C342.954 185.964 343.103 186.025 343.271 186.062C343.439 186.099 343.616 186.118 343.803 186.118C344.195 186.118 344.531 186.067 344.811 185.964C345.091 185.852 345.32 185.717 345.497 185.558C345.674 185.39 345.805 185.213 345.889 185.026C345.973 184.83 346.015 184.648 346.015 184.48V183.262ZM354.144 182.086C354.05 181.629 353.854 181.274 353.556 181.022C353.257 180.77 352.856 180.644 352.352 180.644C351.922 180.644 351.563 180.723 351.274 180.882C350.984 181.041 350.751 181.251 350.574 181.512C350.406 181.773 350.284 182.077 350.21 182.422C350.135 182.758 350.098 183.108 350.098 183.472C350.098 183.808 350.135 184.135 350.21 184.452C350.294 184.769 350.42 185.054 350.588 185.306C350.756 185.549 350.975 185.745 351.246 185.894C351.516 186.043 351.838 186.118 352.212 186.118C352.8 186.118 353.257 185.964 353.584 185.656C353.92 185.348 354.125 184.914 354.2 184.354H355.418C355.287 185.25 354.951 185.941 354.41 186.426C353.878 186.911 353.15 187.154 352.226 187.154C351.675 187.154 351.185 187.065 350.756 186.888C350.336 186.711 349.981 186.459 349.692 186.132C349.412 185.805 349.197 185.418 349.048 184.97C348.908 184.513 348.838 184.013 348.838 183.472C348.838 182.931 348.908 182.427 349.048 181.96C349.188 181.484 349.398 181.073 349.678 180.728C349.967 180.373 350.326 180.098 350.756 179.902C351.185 179.697 351.684 179.594 352.254 179.594C352.664 179.594 353.047 179.645 353.402 179.748C353.766 179.841 354.083 179.991 354.354 180.196C354.634 180.401 354.862 180.663 355.04 180.98C355.217 181.288 355.329 181.657 355.376 182.086H354.144ZM358.576 179.762H360.018V180.812H358.576V185.306C358.576 185.446 358.585 185.558 358.604 185.642C358.632 185.726 358.679 185.791 358.744 185.838C358.809 185.885 358.898 185.917 359.01 185.936C359.131 185.945 359.285 185.95 359.472 185.95H360.018V187H359.108C358.8 187 358.534 186.981 358.31 186.944C358.095 186.897 357.918 186.818 357.778 186.706C357.647 186.594 357.549 186.435 357.484 186.23C357.419 186.025 357.386 185.754 357.386 185.418V180.812H356.154V179.762H357.386V177.592H358.576V179.762ZM366.541 182.688C366.522 182.408 366.457 182.142 366.345 181.89C366.242 181.638 366.098 181.423 365.911 181.246C365.734 181.059 365.519 180.915 365.267 180.812C365.024 180.7 364.754 180.644 364.455 180.644C364.147 180.644 363.867 180.7 363.615 180.812C363.372 180.915 363.162 181.059 362.985 181.246C362.808 181.433 362.668 181.652 362.565 181.904C362.462 182.147 362.402 182.408 362.383 182.688H366.541ZM367.689 184.704C367.53 185.516 367.18 186.127 366.639 186.538C366.098 186.949 365.416 187.154 364.595 187.154C364.016 187.154 363.512 187.061 363.083 186.874C362.663 186.687 362.308 186.426 362.019 186.09C361.73 185.754 361.51 185.353 361.361 184.886C361.221 184.419 361.142 183.911 361.123 183.36C361.123 182.809 361.207 182.305 361.375 181.848C361.543 181.391 361.776 180.994 362.075 180.658C362.383 180.322 362.742 180.061 363.153 179.874C363.573 179.687 364.03 179.594 364.525 179.594C365.169 179.594 365.701 179.729 366.121 180C366.55 180.261 366.891 180.597 367.143 181.008C367.404 181.419 367.582 181.867 367.675 182.352C367.778 182.837 367.82 183.299 367.801 183.738H362.383C362.374 184.055 362.411 184.359 362.495 184.648C362.579 184.928 362.714 185.18 362.901 185.404C363.088 185.619 363.326 185.791 363.615 185.922C363.904 186.053 364.245 186.118 364.637 186.118C365.141 186.118 365.552 186.001 365.869 185.768C366.196 185.535 366.41 185.18 366.513 184.704H367.689ZM369.168 179.762H370.288V181.288H370.316C370.605 180.7 370.96 180.266 371.38 179.986C371.8 179.706 372.332 179.575 372.976 179.594V180.854C372.5 180.854 372.094 180.919 371.758 181.05C371.422 181.181 371.151 181.372 370.946 181.624C370.74 181.876 370.591 182.184 370.498 182.548C370.404 182.903 370.358 183.313 370.358 183.78V187H369.168V179.762ZM374.775 184.718C374.784 184.979 374.845 185.203 374.957 185.39C375.069 185.567 375.213 185.712 375.391 185.824C375.577 185.927 375.783 186.001 376.007 186.048C376.24 186.095 376.478 186.118 376.721 186.118C376.907 186.118 377.103 186.104 377.309 186.076C377.514 186.048 377.701 185.997 377.869 185.922C378.046 185.847 378.191 185.74 378.303 185.6C378.415 185.451 378.471 185.264 378.471 185.04C378.471 184.732 378.354 184.499 378.121 184.34C377.887 184.181 377.593 184.055 377.239 183.962C376.893 183.859 376.515 183.771 376.105 183.696C375.694 183.612 375.311 183.5 374.957 183.36C374.611 183.211 374.322 183.005 374.089 182.744C373.855 182.483 373.739 182.119 373.739 181.652C373.739 181.288 373.818 180.975 373.977 180.714C374.145 180.453 374.355 180.243 374.607 180.084C374.868 179.916 375.157 179.795 375.475 179.72C375.801 179.636 376.123 179.594 376.441 179.594C376.851 179.594 377.229 179.631 377.575 179.706C377.92 179.771 378.223 179.893 378.485 180.07C378.755 180.238 378.97 180.471 379.129 180.77C379.287 181.059 379.381 181.423 379.409 181.862H378.219C378.2 181.629 378.139 181.437 378.037 181.288C377.934 181.129 377.803 181.003 377.645 180.91C377.486 180.817 377.309 180.751 377.113 180.714C376.926 180.667 376.735 180.644 376.539 180.644C376.361 180.644 376.179 180.658 375.993 180.686C375.815 180.714 375.652 180.765 375.503 180.84C375.353 180.905 375.232 180.999 375.139 181.12C375.045 181.232 374.999 181.381 374.999 181.568C374.999 181.773 375.069 181.946 375.209 182.086C375.358 182.217 375.545 182.329 375.769 182.422C375.993 182.506 376.245 182.581 376.525 182.646C376.805 182.702 377.085 182.763 377.365 182.828C377.663 182.893 377.953 182.973 378.233 183.066C378.522 183.159 378.774 183.285 378.989 183.444C379.213 183.593 379.39 183.785 379.521 184.018C379.661 184.251 379.731 184.541 379.731 184.886C379.731 185.325 379.637 185.689 379.451 185.978C379.273 186.267 379.035 186.501 378.737 186.678C378.447 186.855 378.116 186.977 377.743 187.042C377.379 187.117 377.015 187.154 376.651 187.154C376.249 187.154 375.867 187.112 375.503 187.028C375.139 186.944 374.817 186.809 374.537 186.622C374.257 186.426 374.033 186.174 373.865 185.866C373.697 185.549 373.603 185.166 373.585 184.718H374.775ZM385.251 179.762H386.371V181.288H386.399C386.689 180.7 387.043 180.266 387.463 179.986C387.883 179.706 388.415 179.575 389.059 179.594V180.854C388.583 180.854 388.177 180.919 387.841 181.05C387.505 181.181 387.235 181.372 387.029 181.624C386.824 181.876 386.675 182.184 386.581 182.548C386.488 182.903 386.441 183.313 386.441 183.78V187H385.251V179.762ZM394.91 182.688C394.892 182.408 394.826 182.142 394.714 181.89C394.612 181.638 394.467 181.423 394.28 181.246C394.103 181.059 393.888 180.915 393.636 180.812C393.394 180.7 393.123 180.644 392.824 180.644C392.516 180.644 392.236 180.7 391.984 180.812C391.742 180.915 391.532 181.059 391.354 181.246C391.177 181.433 391.037 181.652 390.934 181.904C390.832 182.147 390.771 182.408 390.752 182.688H394.91ZM396.058 184.704C395.9 185.516 395.55 186.127 395.008 186.538C394.467 186.949 393.786 187.154 392.964 187.154C392.386 187.154 391.882 187.061 391.452 186.874C391.032 186.687 390.678 186.426 390.388 186.09C390.099 185.754 389.88 185.353 389.73 184.886C389.59 184.419 389.511 183.911 389.492 183.36C389.492 182.809 389.576 182.305 389.744 181.848C389.912 181.391 390.146 180.994 390.444 180.658C390.752 180.322 391.112 180.061 391.522 179.874C391.942 179.687 392.4 179.594 392.894 179.594C393.538 179.594 394.07 179.729 394.49 180C394.92 180.261 395.26 180.597 395.512 181.008C395.774 181.419 395.951 181.867 396.044 182.352C396.147 182.837 396.189 183.299 396.17 183.738H390.752C390.743 184.055 390.78 184.359 390.864 184.648C390.948 184.928 391.084 185.18 391.27 185.404C391.457 185.619 391.695 185.791 391.984 185.922C392.274 186.053 392.614 186.118 393.006 186.118C393.51 186.118 393.921 186.001 394.238 185.768C394.565 185.535 394.78 185.18 394.882 184.704H396.058ZM397.579 179.762H398.699V180.826H398.727C399.268 180.005 400.047 179.594 401.065 179.594C401.513 179.594 401.919 179.687 402.283 179.874C402.647 180.061 402.903 180.378 403.053 180.826C403.295 180.434 403.613 180.131 404.005 179.916C404.406 179.701 404.845 179.594 405.321 179.594C405.685 179.594 406.011 179.636 406.301 179.72C406.599 179.795 406.851 179.916 407.057 180.084C407.271 180.252 407.435 180.471 407.547 180.742C407.668 181.003 407.729 181.321 407.729 181.694V187H406.539V182.254C406.539 182.03 406.52 181.82 406.483 181.624C406.445 181.428 406.375 181.26 406.273 181.12C406.17 180.971 406.025 180.854 405.839 180.77C405.661 180.686 405.428 180.644 405.139 180.644C404.551 180.644 404.089 180.812 403.753 181.148C403.417 181.484 403.249 181.932 403.249 182.492V187H402.059V182.254C402.059 182.021 402.035 181.806 401.989 181.61C401.951 181.414 401.881 181.246 401.779 181.106C401.676 180.957 401.536 180.845 401.359 180.77C401.191 180.686 400.971 180.644 400.701 180.644C400.355 180.644 400.057 180.714 399.805 180.854C399.562 180.994 399.361 181.162 399.203 181.358C399.053 181.554 398.941 181.759 398.867 181.974C398.801 182.179 398.769 182.352 398.769 182.492V187H397.579V179.762ZM416.101 186.972C415.896 187.093 415.611 187.154 415.247 187.154C414.939 187.154 414.692 187.07 414.505 186.902C414.328 186.725 414.239 186.44 414.239 186.048C413.913 186.44 413.53 186.725 413.091 186.902C412.662 187.07 412.195 187.154 411.691 187.154C411.365 187.154 411.052 187.117 410.753 187.042C410.464 186.967 410.212 186.851 409.997 186.692C409.783 186.533 409.61 186.328 409.479 186.076C409.358 185.815 409.297 185.502 409.297 185.138C409.297 184.727 409.367 184.391 409.507 184.13C409.647 183.869 409.829 183.659 410.053 183.5C410.287 183.332 410.548 183.206 410.837 183.122C411.136 183.038 411.439 182.968 411.747 182.912C412.074 182.847 412.382 182.8 412.671 182.772C412.97 182.735 413.231 182.688 413.455 182.632C413.679 182.567 413.857 182.478 413.987 182.366C414.118 182.245 414.183 182.072 414.183 181.848C414.183 181.587 414.132 181.377 414.029 181.218C413.936 181.059 413.81 180.938 413.651 180.854C413.502 180.77 413.329 180.714 413.133 180.686C412.947 180.658 412.76 180.644 412.573 180.644C412.069 180.644 411.649 180.742 411.313 180.938C410.977 181.125 410.795 181.484 410.767 182.016H409.577C409.596 181.568 409.689 181.19 409.857 180.882C410.025 180.574 410.249 180.327 410.529 180.14C410.809 179.944 411.127 179.804 411.481 179.72C411.845 179.636 412.233 179.594 412.643 179.594C412.97 179.594 413.292 179.617 413.609 179.664C413.936 179.711 414.23 179.809 414.491 179.958C414.753 180.098 414.963 180.299 415.121 180.56C415.28 180.821 415.359 181.162 415.359 181.582V185.306C415.359 185.586 415.373 185.791 415.401 185.922C415.439 186.053 415.551 186.118 415.737 186.118C415.84 186.118 415.961 186.095 416.101 186.048V186.972ZM414.169 183.262C414.02 183.374 413.824 183.458 413.581 183.514C413.339 183.561 413.082 183.603 412.811 183.64C412.55 183.668 412.284 183.705 412.013 183.752C411.743 183.789 411.5 183.855 411.285 183.948C411.071 184.041 410.893 184.177 410.753 184.354C410.623 184.522 410.557 184.755 410.557 185.054C410.557 185.25 410.595 185.418 410.669 185.558C410.753 185.689 410.856 185.796 410.977 185.88C411.108 185.964 411.257 186.025 411.425 186.062C411.593 186.099 411.771 186.118 411.957 186.118C412.349 186.118 412.685 186.067 412.965 185.964C413.245 185.852 413.474 185.717 413.651 185.558C413.829 185.39 413.959 185.213 414.043 185.026C414.127 184.83 414.169 184.648 414.169 184.48V183.262ZM418.644 178.46H417.454V177.004H418.644V178.46ZM417.454 179.762H418.644V187H417.454V179.762ZM420.662 179.762H421.782V180.91H421.81C422.305 180.033 423.089 179.594 424.162 179.594C424.638 179.594 425.035 179.659 425.352 179.79C425.67 179.921 425.926 180.103 426.122 180.336C426.318 180.569 426.454 180.849 426.528 181.176C426.612 181.493 426.654 181.848 426.654 182.24V187H425.464V182.1C425.464 181.652 425.334 181.297 425.072 181.036C424.811 180.775 424.452 180.644 423.994 180.644C423.63 180.644 423.313 180.7 423.042 180.812C422.781 180.924 422.562 181.083 422.384 181.288C422.207 181.493 422.072 181.736 421.978 182.016C421.894 182.287 421.852 182.585 421.852 182.912V187H420.662V179.762ZM429.877 178.46H428.687V177.004H429.877V178.46ZM428.687 179.762H429.877V187H428.687V179.762ZM431.895 179.762H433.015V180.91H433.043C433.538 180.033 434.322 179.594 435.395 179.594C435.871 179.594 436.268 179.659 436.585 179.79C436.903 179.921 437.159 180.103 437.355 180.336C437.551 180.569 437.687 180.849 437.761 181.176C437.845 181.493 437.887 181.848 437.887 182.24V187H436.697V182.1C436.697 181.652 436.567 181.297 436.305 181.036C436.044 180.775 435.685 180.644 435.227 180.644C434.863 180.644 434.546 180.7 434.275 180.812C434.014 180.924 433.795 181.083 433.617 181.288C433.44 181.493 433.305 181.736 433.211 182.016C433.127 182.287 433.085 182.585 433.085 182.912V187H431.895V179.762ZM446.094 186.384C446.094 187.569 445.823 188.456 445.282 189.044C444.74 189.632 443.891 189.926 442.734 189.926C442.398 189.926 442.052 189.889 441.698 189.814C441.352 189.739 441.035 189.618 440.746 189.45C440.466 189.282 440.232 189.063 440.046 188.792C439.859 188.521 439.756 188.19 439.738 187.798H440.928C440.937 188.013 441.002 188.195 441.124 188.344C441.254 188.493 441.408 188.615 441.586 188.708C441.772 188.801 441.973 188.867 442.188 188.904C442.402 188.951 442.608 188.974 442.804 188.974C443.196 188.974 443.527 188.904 443.798 188.764C444.068 188.633 444.292 188.447 444.47 188.204C444.647 187.971 444.773 187.686 444.848 187.35C444.932 187.014 444.974 186.645 444.974 186.244V185.768H444.946C444.74 186.216 444.428 186.547 444.008 186.762C443.597 186.967 443.158 187.07 442.692 187.07C442.15 187.07 441.679 186.972 441.278 186.776C440.876 186.58 440.54 186.319 440.27 185.992C439.999 185.656 439.794 185.269 439.654 184.83C439.523 184.382 439.458 183.911 439.458 183.416C439.458 182.987 439.514 182.548 439.626 182.1C439.738 181.643 439.924 181.232 440.186 180.868C440.447 180.495 440.792 180.191 441.222 179.958C441.651 179.715 442.178 179.594 442.804 179.594C443.261 179.594 443.681 179.697 444.064 179.902C444.446 180.098 444.745 180.397 444.96 180.798H444.974V179.762H446.094V186.384ZM442.762 186.034C443.154 186.034 443.485 185.955 443.756 185.796C444.036 185.628 444.26 185.413 444.428 185.152C444.596 184.881 444.717 184.578 444.792 184.242C444.876 183.906 444.918 183.57 444.918 183.234C444.918 182.917 444.88 182.604 444.806 182.296C444.731 181.988 444.61 181.713 444.442 181.47C444.283 181.218 444.073 181.017 443.812 180.868C443.55 180.719 443.233 180.644 442.86 180.644C442.477 180.644 442.15 180.719 441.88 180.868C441.609 181.008 441.385 181.199 441.208 181.442C441.04 181.685 440.914 181.965 440.83 182.282C440.755 182.599 440.718 182.931 440.718 183.276C440.718 183.603 440.75 183.929 440.816 184.256C440.881 184.583 440.993 184.881 441.152 185.152C441.31 185.413 441.52 185.628 441.782 185.796C442.043 185.955 442.37 186.034 442.762 186.034ZM448.33 185.446H449.884V187H448.33V185.446Z" fill="black" fill-opacity="0.68"/>
<defs>
<clipPath id="clip0_378_9672">
<rect width="24" height="56" fill="white" transform="translate(158 86) rotate(-90)"/>
</clipPath>
<clipPath id="clip1_378_9672">
<rect width="24" height="43" fill="white" transform="translate(398 27)"/>
</clipPath>
<clipPath id="clip2_378_9672">
<rect width="24" height="176" fill="white" transform="translate(650 82) rotate(90)"/>
</clipPath>
<clipPath id="clip3_378_9672">
<rect width="24" height="39" fill="white" transform="translate(250 235) rotate(-180)"/>
</clipPath>
</defs>
</svg>
