<svg width="468" height="438" viewBox="0 0 468 438" fill="none" xmlns="http://www.w3.org/2000/svg">
<rect width="468" height="438" fill="#F6F7FC"/>
<path d="M41.248 59.576H48.752V60.856H42.768V64.488H48.016V65.768H42.768V71H41.248V59.576ZM57.5395 70.968C57.3048 71.1067 56.9795 71.176 56.5635 71.176C56.2115 71.176 55.9288 71.08 55.7155 70.888C55.5128 70.6853 55.4115 70.36 55.4115 69.912C55.0382 70.36 54.6008 70.6853 54.0995 70.888C53.6088 71.08 53.0755 71.176 52.4995 71.176C52.1262 71.176 51.7688 71.1333 51.4275 71.048C51.0968 70.9627 50.8088 70.8293 50.5635 70.648C50.3182 70.4667 50.1208 70.232 49.9715 69.944C49.8328 69.6453 49.7635 69.288 49.7635 68.872C49.7635 68.4027 49.8435 68.0187 50.0035 67.72C50.1635 67.4213 50.3715 67.1813 50.6275 67C50.8942 66.808 51.1928 66.664 51.5235 66.568C51.8648 66.472 52.2115 66.392 52.5635 66.328C52.9368 66.2533 53.2888 66.2 53.6195 66.168C53.9608 66.1253 54.2595 66.072 54.5155 66.008C54.7715 65.9333 54.9742 65.832 55.1235 65.704C55.2728 65.5653 55.3475 65.368 55.3475 65.112C55.3475 64.8133 55.2888 64.5733 55.1715 64.392C55.0648 64.2107 54.9208 64.072 54.7395 63.976C54.5688 63.88 54.3715 63.816 54.1475 63.784C53.9342 63.752 53.7208 63.736 53.5075 63.736C52.9315 63.736 52.4515 63.848 52.0675 64.072C51.6835 64.2853 51.4755 64.696 51.4435 65.304H50.0835C50.1048 64.792 50.2115 64.36 50.4035 64.008C50.5955 63.656 50.8515 63.3733 51.1715 63.16C51.4915 62.936 51.8542 62.776 52.2595 62.68C52.6755 62.584 53.1182 62.536 53.5875 62.536C53.9608 62.536 54.3288 62.5627 54.6915 62.616C55.0648 62.6693 55.4008 62.7813 55.6995 62.952C55.9982 63.112 56.2382 63.3413 56.4195 63.64C56.6008 63.9387 56.6915 64.328 56.6915 64.808V69.064C56.6915 69.384 56.7075 69.6187 56.7395 69.768C56.7822 69.9173 56.9102 69.992 57.1235 69.992C57.2408 69.992 57.3795 69.9653 57.5395 69.912V70.968ZM55.3315 66.728C55.1608 66.856 54.9368 66.952 54.6595 67.016C54.3822 67.0693 54.0888 67.1173 53.7795 67.16C53.4808 67.192 53.1768 67.2347 52.8675 67.288C52.5582 67.3307 52.2808 67.4053 52.0355 67.512C51.7902 67.6187 51.5875 67.7733 51.4275 67.976C51.2782 68.168 51.2035 68.4347 51.2035 68.776C51.2035 69 51.2462 69.192 51.3315 69.352C51.4275 69.5013 51.5448 69.624 51.6835 69.72C51.8328 69.816 52.0035 69.8853 52.1955 69.928C52.3875 69.9707 52.5902 69.992 52.8035 69.992C53.2515 69.992 53.6355 69.9333 53.9555 69.816C54.2755 69.688 54.5368 69.5333 54.7395 69.352C54.9422 69.16 55.0915 68.9573 55.1875 68.744C55.2835 68.52 55.3315 68.312 55.3315 68.12V66.728ZM58.8853 59.576H60.2453V71H58.8853V59.576ZM63.1841 68.392C63.1948 68.6907 63.2641 68.9467 63.3921 69.16C63.5201 69.3627 63.6855 69.528 63.8881 69.656C64.1015 69.7733 64.3361 69.8587 64.5921 69.912C64.8588 69.9653 65.1308 69.992 65.4081 69.992C65.6215 69.992 65.8455 69.976 66.0801 69.944C66.3148 69.912 66.5281 69.8533 66.7201 69.768C66.9228 69.6827 67.0881 69.56 67.2161 69.4C67.3441 69.2293 67.4081 69.016 67.4081 68.76C67.4081 68.408 67.2748 68.1413 67.0081 67.96C66.7415 67.7787 66.4055 67.6347 66.0001 67.528C65.6055 67.4107 65.1735 67.3093 64.7041 67.224C64.2348 67.128 63.7975 67 63.3921 66.84C62.9975 66.6693 62.6668 66.4347 62.4001 66.136C62.1335 65.8373 62.0001 65.4213 62.0001 64.888C62.0001 64.472 62.0908 64.1147 62.2721 63.816C62.4641 63.5173 62.7041 63.2773 62.9921 63.096C63.2908 62.904 63.6215 62.7653 63.9841 62.68C64.3575 62.584 64.7255 62.536 65.0881 62.536C65.5575 62.536 65.9895 62.5787 66.3841 62.664C66.7788 62.7387 67.1255 62.8773 67.4241 63.08C67.7335 63.272 67.9788 63.5387 68.1601 63.88C68.3415 64.2107 68.4481 64.6267 68.4801 65.128H67.1201C67.0988 64.8613 67.0295 64.6427 66.9121 64.472C66.7948 64.2907 66.6455 64.1467 66.4641 64.04C66.2828 63.9333 66.0801 63.8587 65.8561 63.816C65.6428 63.7627 65.4241 63.736 65.2001 63.736C64.9975 63.736 64.7895 63.752 64.5761 63.784C64.3735 63.816 64.1868 63.8747 64.0161 63.96C63.8455 64.0347 63.7068 64.1413 63.6001 64.28C63.4935 64.408 63.4401 64.5787 63.4401 64.792C63.4401 65.0267 63.5201 65.224 63.6801 65.384C63.8508 65.5333 64.0641 65.6613 64.3201 65.768C64.5761 65.864 64.8641 65.9493 65.1841 66.024C65.5041 66.088 65.8241 66.1573 66.1441 66.232C66.4855 66.3067 66.8161 66.3973 67.1361 66.504C67.4668 66.6107 67.7548 66.7547 68.0001 66.936C68.2561 67.1067 68.4588 67.3253 68.6081 67.592C68.7681 67.8587 68.8481 68.1893 68.8481 68.584C68.8481 69.0853 68.7415 69.5013 68.5281 69.832C68.3255 70.1627 68.0535 70.4293 67.7121 70.632C67.3815 70.8347 67.0028 70.9733 66.5761 71.048C66.1601 71.1333 65.7441 71.176 65.3281 71.176C64.8695 71.176 64.4321 71.128 64.0161 71.032C63.6001 70.936 63.2321 70.7813 62.9121 70.568C62.5921 70.344 62.3361 70.056 62.1441 69.704C61.9521 69.3413 61.8455 68.904 61.8241 68.392H63.1841ZM76.0961 66.072C76.0748 65.752 76.0001 65.448 75.8721 65.16C75.7548 64.872 75.5895 64.6267 75.3761 64.424C75.1735 64.2107 74.9281 64.0453 74.6401 63.928C74.3628 63.8 74.0535 63.736 73.7121 63.736C73.3601 63.736 73.0401 63.8 72.7521 63.928C72.4748 64.0453 72.2348 64.2107 72.0321 64.424C71.8295 64.6373 71.6695 64.888 71.5521 65.176C71.4348 65.4533 71.3655 65.752 71.3441 66.072H76.0961ZM77.4081 68.376C77.2268 69.304 76.8268 70.0027 76.2081 70.472C75.5895 70.9413 74.8108 71.176 73.8721 71.176C73.2108 71.176 72.6348 71.0693 72.1441 70.856C71.6641 70.6427 71.2588 70.344 70.9281 69.96C70.5975 69.576 70.3468 69.1173 70.1761 68.584C70.0161 68.0507 69.9255 67.4693 69.9041 66.84C69.9041 66.2107 70.0001 65.6347 70.1921 65.112C70.3841 64.5893 70.6508 64.136 70.9921 63.752C71.3441 63.368 71.7548 63.0693 72.2241 62.856C72.7041 62.6427 73.2268 62.536 73.7921 62.536C74.5281 62.536 75.1361 62.6907 75.6161 63C76.1068 63.2987 76.4961 63.6827 76.7841 64.152C77.0828 64.6213 77.2855 65.1333 77.3921 65.688C77.5095 66.2427 77.5575 66.7707 77.5361 67.272H71.3441C71.3335 67.6347 71.3761 67.9813 71.4721 68.312C71.5681 68.632 71.7228 68.92 71.9361 69.176C72.1495 69.4213 72.4215 69.6187 72.7521 69.768C73.0828 69.9173 73.4721 69.992 73.9201 69.992C74.4961 69.992 74.9655 69.8587 75.3281 69.592C75.7015 69.3253 75.9468 68.92 76.0641 68.376H77.4081Z" fill="black" fill-opacity="0.68"/>
<mask id="path-2-inside-1_123_15925" fill="white">
<path d="M40 91H428V199H40V91Z"/>
</mask>
<path d="M40 91H428V199H40V91Z" fill="black" fill-opacity="0.04"/>
<path d="M428 199V198H40V199V200H428V199Z" fill="black" fill-opacity="0.2" mask="url(#path-2-inside-1_123_15925)"/>
<path d="M58.412 109.46H61.316L59.888 105.464H59.864L58.412 109.46ZM59.264 104.432H60.524L63.872 113H62.612L61.676 110.42H58.052L57.092 113H55.928L59.264 104.432ZM65.4732 109.952C65.4732 110.24 65.5092 110.524 65.5812 110.804C65.6612 111.076 65.7772 111.32 65.9292 111.536C66.0892 111.752 66.2893 111.924 66.5293 112.052C66.7772 112.18 67.0652 112.244 67.3932 112.244C67.7373 112.244 68.0293 112.176 68.2693 112.04C68.5093 111.904 68.7053 111.728 68.8573 111.512C69.0093 111.288 69.1173 111.036 69.1813 110.756C69.2533 110.476 69.2893 110.192 69.2893 109.904C69.2893 109.6 69.2533 109.308 69.1813 109.028C69.1093 108.74 68.9933 108.488 68.8333 108.272C68.6813 108.056 68.4813 107.884 68.2332 107.756C67.9852 107.62 67.6853 107.552 67.3333 107.552C66.9892 107.552 66.6972 107.62 66.4572 107.756C66.2172 107.892 66.0252 108.072 65.8812 108.296C65.7372 108.52 65.6332 108.776 65.5692 109.064C65.5052 109.352 65.4732 109.648 65.4732 109.952ZM70.2733 113H69.2533V112.16H69.2292C69.0612 112.504 68.7973 112.752 68.4373 112.904C68.0773 113.056 67.6812 113.132 67.2493 113.132C66.7693 113.132 66.3493 113.044 65.9893 112.868C65.6372 112.692 65.3412 112.456 65.1012 112.16C64.8692 111.864 64.6932 111.52 64.5732 111.128C64.4532 110.736 64.3932 110.32 64.3932 109.88C64.3932 109.44 64.4492 109.024 64.5612 108.632C64.6812 108.24 64.8572 107.9 65.0892 107.612C65.3292 107.316 65.6252 107.084 65.9772 106.916C66.3372 106.74 66.7533 106.652 67.2253 106.652C67.3853 106.652 67.5573 106.668 67.7413 106.7C67.9253 106.732 68.1093 106.788 68.2933 106.868C68.4772 106.94 68.6492 107.04 68.8092 107.168C68.9772 107.288 69.1172 107.44 69.2292 107.624H69.2533V104.432H70.2733V113ZM72.7665 109.952C72.7665 110.24 72.8025 110.524 72.8745 110.804C72.9545 111.076 73.0705 111.32 73.2225 111.536C73.3825 111.752 73.5825 111.924 73.8225 112.052C74.0705 112.18 74.3585 112.244 74.6865 112.244C75.0305 112.244 75.3225 112.176 75.5625 112.04C75.8025 111.904 75.9985 111.728 76.1505 111.512C76.3025 111.288 76.4105 111.036 76.4745 110.756C76.5465 110.476 76.5825 110.192 76.5825 109.904C76.5825 109.6 76.5465 109.308 76.4745 109.028C76.4025 108.74 76.2865 108.488 76.1265 108.272C75.9745 108.056 75.7745 107.884 75.5265 107.756C75.2785 107.62 74.9785 107.552 74.6265 107.552C74.2825 107.552 73.9905 107.62 73.7505 107.756C73.5105 107.892 73.3185 108.072 73.1745 108.296C73.0305 108.52 72.9265 108.776 72.8625 109.064C72.7985 109.352 72.7665 109.648 72.7665 109.952ZM77.5665 113H76.5465V112.16H76.5225C76.3545 112.504 76.0905 112.752 75.7305 112.904C75.3705 113.056 74.9745 113.132 74.5425 113.132C74.0625 113.132 73.6425 113.044 73.2825 112.868C72.9305 112.692 72.6345 112.456 72.3945 112.16C72.1625 111.864 71.9865 111.52 71.8665 111.128C71.7465 110.736 71.6865 110.32 71.6865 109.88C71.6865 109.44 71.7425 109.024 71.8545 108.632C71.9745 108.24 72.1505 107.9 72.3825 107.612C72.6225 107.316 72.9185 107.084 73.2705 106.916C73.6305 106.74 74.0465 106.652 74.5185 106.652C74.6785 106.652 74.8505 106.668 75.0345 106.7C75.2185 106.732 75.4025 106.788 75.5865 106.868C75.7705 106.94 75.9425 107.04 76.1025 107.168C76.2705 107.288 76.4105 107.44 76.5225 107.624H76.5465V104.432H77.5665V113ZM80.3958 105.68H79.3758V104.432H80.3958V105.68ZM79.3758 106.796H80.3958V113H79.3758V106.796ZM83.572 106.796H84.808V107.696H83.572V111.548C83.572 111.668 83.58 111.764 83.596 111.836C83.62 111.908 83.66 111.964 83.716 112.004C83.772 112.044 83.848 112.072 83.944 112.088C84.048 112.096 84.18 112.1 84.34 112.1H84.808V113H84.028C83.764 113 83.536 112.984 83.344 112.952C83.16 112.912 83.008 112.844 82.888 112.748C82.776 112.652 82.692 112.516 82.636 112.34C82.58 112.164 82.552 111.932 82.552 111.644V107.696H81.496V106.796H82.552V104.936H83.572V106.796ZM87.2011 105.68H86.1811V104.432H87.2011V105.68ZM86.1811 106.796H87.2011V113H86.1811V106.796ZM89.7053 109.904C89.7053 110.28 89.7533 110.616 89.8493 110.912C89.9533 111.2 90.0933 111.444 90.2693 111.644C90.4453 111.836 90.6493 111.984 90.8813 112.088C91.1213 112.192 91.3733 112.244 91.6373 112.244C91.9013 112.244 92.1493 112.192 92.3813 112.088C92.6213 111.984 92.8293 111.836 93.0053 111.644C93.1813 111.444 93.3173 111.2 93.4133 110.912C93.5173 110.616 93.5693 110.28 93.5693 109.904C93.5693 109.528 93.5173 109.196 93.4133 108.908C93.3173 108.612 93.1813 108.364 93.0053 108.164C92.8293 107.964 92.6213 107.812 92.3813 107.708C92.1493 107.604 91.9013 107.552 91.6373 107.552C91.3733 107.552 91.1213 107.604 90.8813 107.708C90.6493 107.812 90.4453 107.964 90.2693 108.164C90.0933 108.364 89.9533 108.612 89.8493 108.908C89.7533 109.196 89.7053 109.528 89.7053 109.904ZM88.6253 109.904C88.6253 109.448 88.6893 109.024 88.8173 108.632C88.9453 108.232 89.1373 107.888 89.3933 107.6C89.6493 107.304 89.9653 107.072 90.3413 106.904C90.7173 106.736 91.1493 106.652 91.6373 106.652C92.1333 106.652 92.5653 106.736 92.9333 106.904C93.3093 107.072 93.6253 107.304 93.8813 107.6C94.1373 107.888 94.3293 108.232 94.4573 108.632C94.5853 109.024 94.6493 109.448 94.6493 109.904C94.6493 110.36 94.5853 110.784 94.4573 111.176C94.3293 111.568 94.1373 111.912 93.8813 112.208C93.6253 112.496 93.3093 112.724 92.9333 112.892C92.5653 113.052 92.1333 113.132 91.6373 113.132C91.1493 113.132 90.7173 113.052 90.3413 112.892C89.9653 112.724 89.6493 112.496 89.3933 112.208C89.1373 111.912 88.9453 111.568 88.8173 111.176C88.6893 110.784 88.6253 110.36 88.6253 109.904ZM96.0319 106.796H96.9919V107.78H97.0159C97.4399 107.028 98.1119 106.652 99.0319 106.652C99.4399 106.652 99.7799 106.708 100.052 106.82C100.324 106.932 100.544 107.088 100.712 107.288C100.88 107.488 100.996 107.728 101.06 108.008C101.132 108.28 101.168 108.584 101.168 108.92V113H100.148V108.8C100.148 108.416 100.036 108.112 99.8119 107.888C99.5879 107.664 99.2799 107.552 98.8879 107.552C98.5759 107.552 98.3039 107.6 98.0719 107.696C97.8479 107.792 97.6599 107.928 97.5079 108.104C97.3559 108.28 97.2399 108.488 97.1599 108.728C97.0879 108.96 97.0519 109.216 97.0519 109.496V113H96.0319V106.796ZM108.376 112.976C108.2 113.08 107.956 113.132 107.644 113.132C107.38 113.132 107.168 113.06 107.008 112.916C106.856 112.764 106.78 112.52 106.78 112.184C106.5 112.52 106.172 112.764 105.796 112.916C105.428 113.06 105.028 113.132 104.596 113.132C104.316 113.132 104.048 113.1 103.792 113.036C103.544 112.972 103.328 112.872 103.144 112.736C102.96 112.6 102.812 112.424 102.7 112.208C102.596 111.984 102.544 111.716 102.544 111.404C102.544 111.052 102.604 110.764 102.724 110.54C102.844 110.316 103 110.136 103.192 110C103.392 109.856 103.616 109.748 103.864 109.676C104.12 109.604 104.38 109.544 104.644 109.496C104.924 109.44 105.188 109.4 105.436 109.376C105.692 109.344 105.916 109.304 106.108 109.256C106.3 109.2 106.452 109.124 106.564 109.028C106.676 108.924 106.732 108.776 106.732 108.584C106.732 108.36 106.688 108.18 106.6 108.044C106.52 107.908 106.412 107.804 106.276 107.732C106.148 107.66 106 107.612 105.832 107.588C105.672 107.564 105.512 107.552 105.352 107.552C104.92 107.552 104.56 107.636 104.272 107.804C103.984 107.964 103.828 108.272 103.804 108.728H102.784C102.8 108.344 102.88 108.02 103.024 107.756C103.168 107.492 103.36 107.28 103.6 107.12C103.84 106.952 104.112 106.832 104.416 106.76C104.728 106.688 105.06 106.652 105.412 106.652C105.692 106.652 105.968 106.672 106.24 106.712C106.52 106.752 106.772 106.836 106.996 106.964C107.22 107.084 107.4 107.256 107.536 107.48C107.672 107.704 107.74 107.996 107.74 108.356V111.548C107.74 111.788 107.752 111.964 107.776 112.076C107.808 112.188 107.904 112.244 108.064 112.244C108.152 112.244 108.256 112.224 108.376 112.184V112.976ZM106.72 109.796C106.592 109.892 106.424 109.964 106.216 110.012C106.008 110.052 105.788 110.088 105.556 110.12C105.332 110.144 105.104 110.176 104.872 110.216C104.64 110.248 104.432 110.304 104.248 110.384C104.064 110.464 103.912 110.58 103.792 110.732C103.68 110.876 103.624 111.076 103.624 111.332C103.624 111.5 103.656 111.644 103.72 111.764C103.792 111.876 103.88 111.968 103.984 112.04C104.096 112.112 104.224 112.164 104.368 112.196C104.512 112.228 104.664 112.244 104.824 112.244C105.16 112.244 105.448 112.2 105.688 112.112C105.928 112.016 106.124 111.9 106.276 111.764C106.428 111.62 106.54 111.468 106.612 111.308C106.684 111.14 106.72 110.984 106.72 110.84V109.796ZM109.565 104.432H110.585V113H109.565V104.432ZM120.077 108.788C119.997 108.396 119.829 108.092 119.573 107.876C119.317 107.66 118.973 107.552 118.541 107.552C118.173 107.552 117.865 107.62 117.617 107.756C117.369 107.892 117.169 108.072 117.017 108.296C116.873 108.52 116.769 108.78 116.705 109.076C116.641 109.364 116.609 109.664 116.609 109.976C116.609 110.264 116.641 110.544 116.705 110.816C116.777 111.088 116.885 111.332 117.029 111.548C117.173 111.756 117.361 111.924 117.593 112.052C117.825 112.18 118.101 112.244 118.421 112.244C118.925 112.244 119.317 112.112 119.597 111.848C119.885 111.584 120.061 111.212 120.125 110.732H121.169C121.057 111.5 120.769 112.092 120.305 112.508C119.849 112.924 119.225 113.132 118.433 113.132C117.961 113.132 117.541 113.056 117.173 112.904C116.813 112.752 116.509 112.536 116.261 112.256C116.021 111.976 115.837 111.644 115.709 111.26C115.589 110.868 115.529 110.44 115.529 109.976C115.529 109.512 115.589 109.08 115.709 108.68C115.829 108.272 116.009 107.92 116.249 107.624C116.497 107.32 116.805 107.084 117.173 106.916C117.541 106.74 117.969 106.652 118.457 106.652C118.809 106.652 119.137 106.696 119.441 106.784C119.753 106.864 120.025 106.992 120.257 107.168C120.497 107.344 120.693 107.568 120.845 107.84C120.997 108.104 121.093 108.42 121.133 108.788H120.077ZM123.235 109.904C123.235 110.28 123.283 110.616 123.379 110.912C123.483 111.2 123.623 111.444 123.799 111.644C123.975 111.836 124.179 111.984 124.411 112.088C124.651 112.192 124.903 112.244 125.167 112.244C125.431 112.244 125.679 112.192 125.911 112.088C126.151 111.984 126.359 111.836 126.535 111.644C126.711 111.444 126.847 111.2 126.943 110.912C127.047 110.616 127.099 110.28 127.099 109.904C127.099 109.528 127.047 109.196 126.943 108.908C126.847 108.612 126.711 108.364 126.535 108.164C126.359 107.964 126.151 107.812 125.911 107.708C125.679 107.604 125.431 107.552 125.167 107.552C124.903 107.552 124.651 107.604 124.411 107.708C124.179 107.812 123.975 107.964 123.799 108.164C123.623 108.364 123.483 108.612 123.379 108.908C123.283 109.196 123.235 109.528 123.235 109.904ZM122.155 109.904C122.155 109.448 122.219 109.024 122.347 108.632C122.475 108.232 122.667 107.888 122.923 107.6C123.179 107.304 123.495 107.072 123.871 106.904C124.247 106.736 124.679 106.652 125.167 106.652C125.663 106.652 126.095 106.736 126.463 106.904C126.839 107.072 127.155 107.304 127.411 107.6C127.667 107.888 127.859 108.232 127.987 108.632C128.115 109.024 128.179 109.448 128.179 109.904C128.179 110.36 128.115 110.784 127.987 111.176C127.859 111.568 127.667 111.912 127.411 112.208C127.155 112.496 126.839 112.724 126.463 112.892C126.095 113.052 125.663 113.132 125.167 113.132C124.679 113.132 124.247 113.052 123.871 112.892C123.495 112.724 123.179 112.496 122.923 112.208C122.667 111.912 122.475 111.568 122.347 111.176C122.219 110.784 122.155 110.36 122.155 109.904ZM129.561 106.796H130.521V107.708H130.545C131.009 107.004 131.677 106.652 132.549 106.652C132.933 106.652 133.281 106.732 133.593 106.892C133.905 107.052 134.125 107.324 134.253 107.708C134.461 107.372 134.733 107.112 135.069 106.928C135.413 106.744 135.789 106.652 136.197 106.652C136.509 106.652 136.789 106.688 137.037 106.76C137.293 106.824 137.509 106.928 137.685 107.072C137.869 107.216 138.009 107.404 138.105 107.636C138.209 107.86 138.261 108.132 138.261 108.452V113H137.241V108.932C137.241 108.74 137.225 108.56 137.193 108.392C137.161 108.224 137.101 108.08 137.013 107.96C136.925 107.832 136.801 107.732 136.641 107.66C136.489 107.588 136.289 107.552 136.041 107.552C135.537 107.552 135.141 107.696 134.853 107.984C134.565 108.272 134.421 108.656 134.421 109.136V113H133.401V108.932C133.401 108.732 133.381 108.548 133.341 108.38C133.309 108.212 133.249 108.068 133.161 107.948C133.073 107.82 132.953 107.724 132.801 107.66C132.657 107.588 132.469 107.552 132.237 107.552C131.941 107.552 131.685 107.612 131.469 107.732C131.261 107.852 131.089 107.996 130.953 108.164C130.825 108.332 130.729 108.508 130.665 108.692C130.609 108.868 130.581 109.016 130.581 109.136V113H129.561V106.796ZM139.972 106.796H140.932V107.708H140.956C141.42 107.004 142.088 106.652 142.96 106.652C143.344 106.652 143.692 106.732 144.004 106.892C144.316 107.052 144.536 107.324 144.664 107.708C144.872 107.372 145.144 107.112 145.48 106.928C145.824 106.744 146.2 106.652 146.608 106.652C146.92 106.652 147.2 106.688 147.448 106.76C147.704 106.824 147.92 106.928 148.096 107.072C148.28 107.216 148.42 107.404 148.516 107.636C148.62 107.86 148.672 108.132 148.672 108.452V113H147.652V108.932C147.652 108.74 147.636 108.56 147.604 108.392C147.572 108.224 147.512 108.08 147.424 107.96C147.336 107.832 147.212 107.732 147.052 107.66C146.9 107.588 146.7 107.552 146.452 107.552C145.948 107.552 145.552 107.696 145.264 107.984C144.976 108.272 144.832 108.656 144.832 109.136V113H143.812V108.932C143.812 108.732 143.792 108.548 143.752 108.38C143.72 108.212 143.66 108.068 143.572 107.948C143.484 107.82 143.364 107.724 143.212 107.66C143.068 107.588 142.88 107.552 142.648 107.552C142.352 107.552 142.096 107.612 141.88 107.732C141.672 107.852 141.5 107.996 141.364 108.164C141.236 108.332 141.14 108.508 141.076 108.692C141.02 108.868 140.992 109.016 140.992 109.136V113H139.972V106.796ZM154.69 109.304C154.674 109.064 154.618 108.836 154.522 108.62C154.434 108.404 154.31 108.22 154.15 108.068C153.998 107.908 153.814 107.784 153.598 107.696C153.39 107.6 153.158 107.552 152.902 107.552C152.638 107.552 152.398 107.6 152.182 107.696C151.974 107.784 151.794 107.908 151.642 108.068C151.49 108.228 151.37 108.416 151.282 108.632C151.194 108.84 151.142 109.064 151.126 109.304H154.69ZM155.674 111.032C155.538 111.728 155.238 112.252 154.774 112.604C154.31 112.956 153.726 113.132 153.022 113.132C152.526 113.132 152.094 113.052 151.726 112.892C151.366 112.732 151.062 112.508 150.814 112.22C150.566 111.932 150.378 111.588 150.25 111.188C150.13 110.788 150.062 110.352 150.046 109.88C150.046 109.408 150.118 108.976 150.262 108.584C150.406 108.192 150.606 107.852 150.862 107.564C151.126 107.276 151.434 107.052 151.786 106.892C152.146 106.732 152.538 106.652 152.962 106.652C153.514 106.652 153.97 106.768 154.33 107C154.698 107.224 154.99 107.512 155.206 107.864C155.43 108.216 155.582 108.6 155.662 109.016C155.75 109.432 155.786 109.828 155.77 110.204H151.126C151.118 110.476 151.15 110.736 151.222 110.984C151.294 111.224 151.41 111.44 151.57 111.632C151.73 111.816 151.934 111.964 152.182 112.076C152.43 112.188 152.722 112.244 153.058 112.244C153.49 112.244 153.842 112.144 154.114 111.944C154.394 111.744 154.578 111.44 154.666 111.032H155.674ZM157.007 106.796H157.967V107.78H157.991C158.415 107.028 159.087 106.652 160.007 106.652C160.415 106.652 160.755 106.708 161.027 106.82C161.299 106.932 161.519 107.088 161.687 107.288C161.855 107.488 161.971 107.728 162.035 108.008C162.107 108.28 162.143 108.584 162.143 108.92V113H161.123V108.8C161.123 108.416 161.011 108.112 160.787 107.888C160.563 107.664 160.255 107.552 159.863 107.552C159.551 107.552 159.279 107.6 159.047 107.696C158.823 107.792 158.635 107.928 158.483 108.104C158.331 108.28 158.215 108.488 158.135 108.728C158.063 108.96 158.027 109.216 158.027 109.496V113H157.007V106.796ZM165.271 106.796H166.507V107.696H165.271V111.548C165.271 111.668 165.279 111.764 165.295 111.836C165.319 111.908 165.359 111.964 165.415 112.004C165.471 112.044 165.547 112.072 165.643 112.088C165.747 112.096 165.879 112.1 166.039 112.1H166.507V113H165.727C165.463 113 165.235 112.984 165.043 112.952C164.859 112.912 164.707 112.844 164.587 112.748C164.475 112.652 164.391 112.516 164.335 112.34C164.279 112.164 164.251 111.932 164.251 111.644V107.696H163.195V106.796H164.251V104.936H165.271V106.796ZM168.444 111.044C168.452 111.268 168.504 111.46 168.6 111.62C168.696 111.772 168.82 111.896 168.972 111.992C169.132 112.08 169.308 112.144 169.5 112.184C169.7 112.224 169.904 112.244 170.112 112.244C170.272 112.244 170.44 112.232 170.616 112.208C170.792 112.184 170.952 112.14 171.096 112.076C171.248 112.012 171.372 111.92 171.468 111.8C171.564 111.672 171.612 111.512 171.612 111.32C171.612 111.056 171.512 110.856 171.312 110.72C171.112 110.584 170.86 110.476 170.556 110.396C170.26 110.308 169.936 110.232 169.584 110.168C169.232 110.096 168.904 110 168.6 109.88C168.304 109.752 168.056 109.576 167.856 109.352C167.656 109.128 167.556 108.816 167.556 108.416C167.556 108.104 167.624 107.836 167.76 107.612C167.904 107.388 168.084 107.208 168.3 107.072C168.524 106.928 168.772 106.824 169.044 106.76C169.324 106.688 169.6 106.652 169.872 106.652C170.224 106.652 170.548 106.684 170.844 106.748C171.14 106.804 171.4 106.908 171.624 107.06C171.856 107.204 172.04 107.404 172.176 107.66C172.312 107.908 172.392 108.22 172.416 108.596H171.396C171.38 108.396 171.328 108.232 171.24 108.104C171.152 107.968 171.04 107.86 170.904 107.78C170.768 107.7 170.616 107.644 170.448 107.612C170.288 107.572 170.124 107.552 169.956 107.552C169.804 107.552 169.648 107.564 169.488 107.588C169.336 107.612 169.196 107.656 169.068 107.72C168.94 107.776 168.836 107.856 168.756 107.96C168.676 108.056 168.636 108.184 168.636 108.344C168.636 108.52 168.696 108.668 168.816 108.788C168.944 108.9 169.104 108.996 169.296 109.076C169.488 109.148 169.704 109.212 169.944 109.268C170.184 109.316 170.424 109.368 170.664 109.424C170.92 109.48 171.168 109.548 171.408 109.628C171.656 109.708 171.872 109.816 172.056 109.952C172.248 110.08 172.4 110.244 172.512 110.444C172.632 110.644 172.692 110.892 172.692 111.188C172.692 111.564 172.612 111.876 172.452 112.124C172.3 112.372 172.096 112.572 171.84 112.724C171.592 112.876 171.308 112.98 170.988 113.036C170.676 113.1 170.364 113.132 170.052 113.132C169.708 113.132 169.38 113.096 169.068 113.024C168.756 112.952 168.48 112.836 168.24 112.676C168 112.508 167.808 112.292 167.664 112.028C167.52 111.756 167.44 111.428 167.424 111.044H168.444Z" fill="black" fill-opacity="0.68"/>
<path d="M43.84 243.856H40.032V242.576H49.168V243.856H45.36V254H43.84V243.856ZM48.6948 245.728H49.9748V247.472H50.0068C50.3374 246.8 50.7428 246.304 51.2228 245.984C51.7028 245.664 52.3108 245.515 53.0468 245.536V246.976C52.5028 246.976 52.0388 247.051 51.6548 247.2C51.2708 247.349 50.9614 247.568 50.7268 247.856C50.4921 248.144 50.3214 248.496 50.2148 248.912C50.1081 249.317 50.0548 249.787 50.0548 250.32V254H48.6948V245.728ZM60.9189 254H59.6389V252.688H59.6069C59.3189 253.2 58.9509 253.579 58.5029 253.824C58.0549 254.059 57.5269 254.176 56.9189 254.176C56.3749 254.176 55.9215 254.107 55.5589 253.968C55.1962 253.819 54.9029 253.611 54.6789 253.344C54.4549 253.077 54.2949 252.763 54.1989 252.4C54.1135 252.027 54.0709 251.616 54.0709 251.168V245.728H55.4309V251.328C55.4309 251.84 55.5802 252.245 55.8789 252.544C56.1775 252.843 56.5882 252.992 57.1109 252.992C57.5269 252.992 57.8842 252.928 58.1829 252.8C58.4922 252.672 58.7482 252.491 58.9509 252.256C59.1535 252.021 59.3029 251.749 59.3989 251.44C59.5055 251.12 59.5589 250.773 59.5589 250.4V245.728H60.9189V254ZM68.7055 249.072C68.6842 248.752 68.6095 248.448 68.4815 248.16C68.3642 247.872 68.1988 247.627 67.9855 247.424C67.7828 247.211 67.5375 247.045 67.2495 246.928C66.9722 246.8 66.6628 246.736 66.3215 246.736C65.9695 246.736 65.6495 246.8 65.3615 246.928C65.0842 247.045 64.8442 247.211 64.6415 247.424C64.4388 247.637 64.2788 247.888 64.1615 248.176C64.0442 248.453 63.9748 248.752 63.9535 249.072H68.7055ZM70.0175 251.376C69.8362 252.304 69.4362 253.003 68.8175 253.472C68.1988 253.941 67.4202 254.176 66.4815 254.176C65.8202 254.176 65.2442 254.069 64.7535 253.856C64.2735 253.643 63.8682 253.344 63.5375 252.96C63.2068 252.576 62.9562 252.117 62.7855 251.584C62.6255 251.051 62.5348 250.469 62.5135 249.84C62.5135 249.211 62.6095 248.635 62.8015 248.112C62.9935 247.589 63.2602 247.136 63.6015 246.752C63.9535 246.368 64.3642 246.069 64.8335 245.856C65.3135 245.643 65.8362 245.536 66.4015 245.536C67.1375 245.536 67.7455 245.691 68.2255 246C68.7162 246.299 69.1055 246.683 69.3935 247.152C69.6922 247.621 69.8948 248.133 70.0015 248.688C70.1188 249.243 70.1668 249.771 70.1455 250.272H63.9535C63.9428 250.635 63.9855 250.981 64.0815 251.312C64.1775 251.632 64.3322 251.92 64.5455 252.176C64.7588 252.421 65.0308 252.619 65.3615 252.768C65.6922 252.917 66.0815 252.992 66.5295 252.992C67.1055 252.992 67.5748 252.859 67.9375 252.592C68.3108 252.325 68.5562 251.92 68.6735 251.376H70.0175Z" fill="black" fill-opacity="0.68"/>
<mask id="path-6-inside-2_123_15925" fill="white">
<path d="M40 274H428V382H40V274Z"/>
</mask>
<path d="M40 274V273H39V274H40ZM428 274H429V273H428V274ZM428 382V383H429V382H428ZM40 382H39V383H40V382ZM40 274V275H428V274V273H40V274ZM428 274H427V382H428H429V274H428ZM428 382V381H40V382V383H428V382ZM40 382H41V274H40H39V382H40Z" fill="black" fill-opacity="0.2" mask="url(#path-6-inside-2_123_15925)"/>
<path d="M58.412 292.46H61.316L59.888 288.464H59.864L58.412 292.46ZM59.264 287.432H60.524L63.872 296H62.612L61.676 293.42H58.052L57.092 296H55.928L59.264 287.432ZM65.4732 292.952C65.4732 293.24 65.5092 293.524 65.5812 293.804C65.6612 294.076 65.7772 294.32 65.9292 294.536C66.0892 294.752 66.2893 294.924 66.5293 295.052C66.7772 295.18 67.0652 295.244 67.3932 295.244C67.7373 295.244 68.0293 295.176 68.2693 295.04C68.5093 294.904 68.7053 294.728 68.8573 294.512C69.0093 294.288 69.1173 294.036 69.1813 293.756C69.2533 293.476 69.2893 293.192 69.2893 292.904C69.2893 292.6 69.2533 292.308 69.1813 292.028C69.1093 291.74 68.9933 291.488 68.8333 291.272C68.6813 291.056 68.4813 290.884 68.2332 290.756C67.9852 290.62 67.6853 290.552 67.3333 290.552C66.9892 290.552 66.6972 290.62 66.4572 290.756C66.2172 290.892 66.0252 291.072 65.8812 291.296C65.7372 291.52 65.6332 291.776 65.5692 292.064C65.5052 292.352 65.4732 292.648 65.4732 292.952ZM70.2733 296H69.2533V295.16H69.2292C69.0612 295.504 68.7973 295.752 68.4373 295.904C68.0773 296.056 67.6812 296.132 67.2493 296.132C66.7693 296.132 66.3493 296.044 65.9893 295.868C65.6372 295.692 65.3412 295.456 65.1012 295.16C64.8692 294.864 64.6932 294.52 64.5732 294.128C64.4532 293.736 64.3932 293.32 64.3932 292.88C64.3932 292.44 64.4492 292.024 64.5612 291.632C64.6812 291.24 64.8572 290.9 65.0892 290.612C65.3292 290.316 65.6252 290.084 65.9772 289.916C66.3372 289.74 66.7533 289.652 67.2253 289.652C67.3853 289.652 67.5573 289.668 67.7413 289.7C67.9253 289.732 68.1093 289.788 68.2933 289.868C68.4772 289.94 68.6492 290.04 68.8092 290.168C68.9772 290.288 69.1172 290.44 69.2292 290.624H69.2533V287.432H70.2733V296ZM72.7665 292.952C72.7665 293.24 72.8025 293.524 72.8745 293.804C72.9545 294.076 73.0705 294.32 73.2225 294.536C73.3825 294.752 73.5825 294.924 73.8225 295.052C74.0705 295.18 74.3585 295.244 74.6865 295.244C75.0305 295.244 75.3225 295.176 75.5625 295.04C75.8025 294.904 75.9985 294.728 76.1505 294.512C76.3025 294.288 76.4105 294.036 76.4745 293.756C76.5465 293.476 76.5825 293.192 76.5825 292.904C76.5825 292.6 76.5465 292.308 76.4745 292.028C76.4025 291.74 76.2865 291.488 76.1265 291.272C75.9745 291.056 75.7745 290.884 75.5265 290.756C75.2785 290.62 74.9785 290.552 74.6265 290.552C74.2825 290.552 73.9905 290.62 73.7505 290.756C73.5105 290.892 73.3185 291.072 73.1745 291.296C73.0305 291.52 72.9265 291.776 72.8625 292.064C72.7985 292.352 72.7665 292.648 72.7665 292.952ZM77.5665 296H76.5465V295.16H76.5225C76.3545 295.504 76.0905 295.752 75.7305 295.904C75.3705 296.056 74.9745 296.132 74.5425 296.132C74.0625 296.132 73.6425 296.044 73.2825 295.868C72.9305 295.692 72.6345 295.456 72.3945 295.16C72.1625 294.864 71.9865 294.52 71.8665 294.128C71.7465 293.736 71.6865 293.32 71.6865 292.88C71.6865 292.44 71.7425 292.024 71.8545 291.632C71.9745 291.24 72.1505 290.9 72.3825 290.612C72.6225 290.316 72.9185 290.084 73.2705 289.916C73.6305 289.74 74.0465 289.652 74.5185 289.652C74.6785 289.652 74.8505 289.668 75.0345 289.7C75.2185 289.732 75.4025 289.788 75.5865 289.868C75.7705 289.94 75.9425 290.04 76.1025 290.168C76.2705 290.288 76.4105 290.44 76.5225 290.624H76.5465V287.432H77.5665V296ZM80.3958 288.68H79.3758V287.432H80.3958V288.68ZM79.3758 289.796H80.3958V296H79.3758V289.796ZM83.572 289.796H84.808V290.696H83.572V294.548C83.572 294.668 83.58 294.764 83.596 294.836C83.62 294.908 83.66 294.964 83.716 295.004C83.772 295.044 83.848 295.072 83.944 295.088C84.048 295.096 84.18 295.1 84.34 295.1H84.808V296H84.028C83.764 296 83.536 295.984 83.344 295.952C83.16 295.912 83.008 295.844 82.888 295.748C82.776 295.652 82.692 295.516 82.636 295.34C82.58 295.164 82.552 294.932 82.552 294.644V290.696H81.496V289.796H82.552V287.936H83.572V289.796ZM87.2011 288.68H86.1811V287.432H87.2011V288.68ZM86.1811 289.796H87.2011V296H86.1811V289.796ZM89.7053 292.904C89.7053 293.28 89.7533 293.616 89.8493 293.912C89.9533 294.2 90.0933 294.444 90.2693 294.644C90.4453 294.836 90.6493 294.984 90.8813 295.088C91.1213 295.192 91.3733 295.244 91.6373 295.244C91.9013 295.244 92.1493 295.192 92.3813 295.088C92.6213 294.984 92.8293 294.836 93.0053 294.644C93.1813 294.444 93.3173 294.2 93.4133 293.912C93.5173 293.616 93.5693 293.28 93.5693 292.904C93.5693 292.528 93.5173 292.196 93.4133 291.908C93.3173 291.612 93.1813 291.364 93.0053 291.164C92.8293 290.964 92.6213 290.812 92.3813 290.708C92.1493 290.604 91.9013 290.552 91.6373 290.552C91.3733 290.552 91.1213 290.604 90.8813 290.708C90.6493 290.812 90.4453 290.964 90.2693 291.164C90.0933 291.364 89.9533 291.612 89.8493 291.908C89.7533 292.196 89.7053 292.528 89.7053 292.904ZM88.6253 292.904C88.6253 292.448 88.6893 292.024 88.8173 291.632C88.9453 291.232 89.1373 290.888 89.3933 290.6C89.6493 290.304 89.9653 290.072 90.3413 289.904C90.7173 289.736 91.1493 289.652 91.6373 289.652C92.1333 289.652 92.5653 289.736 92.9333 289.904C93.3093 290.072 93.6253 290.304 93.8813 290.6C94.1373 290.888 94.3293 291.232 94.4573 291.632C94.5853 292.024 94.6493 292.448 94.6493 292.904C94.6493 293.36 94.5853 293.784 94.4573 294.176C94.3293 294.568 94.1373 294.912 93.8813 295.208C93.6253 295.496 93.3093 295.724 92.9333 295.892C92.5653 296.052 92.1333 296.132 91.6373 296.132C91.1493 296.132 90.7173 296.052 90.3413 295.892C89.9653 295.724 89.6493 295.496 89.3933 295.208C89.1373 294.912 88.9453 294.568 88.8173 294.176C88.6893 293.784 88.6253 293.36 88.6253 292.904ZM96.0319 289.796H96.9919V290.78H97.0159C97.4399 290.028 98.1119 289.652 99.0319 289.652C99.4399 289.652 99.7799 289.708 100.052 289.82C100.324 289.932 100.544 290.088 100.712 290.288C100.88 290.488 100.996 290.728 101.06 291.008C101.132 291.28 101.168 291.584 101.168 291.92V296H100.148V291.8C100.148 291.416 100.036 291.112 99.8119 290.888C99.5879 290.664 99.2799 290.552 98.8879 290.552C98.5759 290.552 98.3039 290.6 98.0719 290.696C97.8479 290.792 97.6599 290.928 97.5079 291.104C97.3559 291.28 97.2399 291.488 97.1599 291.728C97.0879 291.96 97.0519 292.216 97.0519 292.496V296H96.0319V289.796ZM108.376 295.976C108.2 296.08 107.956 296.132 107.644 296.132C107.38 296.132 107.168 296.06 107.008 295.916C106.856 295.764 106.78 295.52 106.78 295.184C106.5 295.52 106.172 295.764 105.796 295.916C105.428 296.06 105.028 296.132 104.596 296.132C104.316 296.132 104.048 296.1 103.792 296.036C103.544 295.972 103.328 295.872 103.144 295.736C102.96 295.6 102.812 295.424 102.7 295.208C102.596 294.984 102.544 294.716 102.544 294.404C102.544 294.052 102.604 293.764 102.724 293.54C102.844 293.316 103 293.136 103.192 293C103.392 292.856 103.616 292.748 103.864 292.676C104.12 292.604 104.38 292.544 104.644 292.496C104.924 292.44 105.188 292.4 105.436 292.376C105.692 292.344 105.916 292.304 106.108 292.256C106.3 292.2 106.452 292.124 106.564 292.028C106.676 291.924 106.732 291.776 106.732 291.584C106.732 291.36 106.688 291.18 106.6 291.044C106.52 290.908 106.412 290.804 106.276 290.732C106.148 290.66 106 290.612 105.832 290.588C105.672 290.564 105.512 290.552 105.352 290.552C104.92 290.552 104.56 290.636 104.272 290.804C103.984 290.964 103.828 291.272 103.804 291.728H102.784C102.8 291.344 102.88 291.02 103.024 290.756C103.168 290.492 103.36 290.28 103.6 290.12C103.84 289.952 104.112 289.832 104.416 289.76C104.728 289.688 105.06 289.652 105.412 289.652C105.692 289.652 105.968 289.672 106.24 289.712C106.52 289.752 106.772 289.836 106.996 289.964C107.22 290.084 107.4 290.256 107.536 290.48C107.672 290.704 107.74 290.996 107.74 291.356V294.548C107.74 294.788 107.752 294.964 107.776 295.076C107.808 295.188 107.904 295.244 108.064 295.244C108.152 295.244 108.256 295.224 108.376 295.184V295.976ZM106.72 292.796C106.592 292.892 106.424 292.964 106.216 293.012C106.008 293.052 105.788 293.088 105.556 293.12C105.332 293.144 105.104 293.176 104.872 293.216C104.64 293.248 104.432 293.304 104.248 293.384C104.064 293.464 103.912 293.58 103.792 293.732C103.68 293.876 103.624 294.076 103.624 294.332C103.624 294.5 103.656 294.644 103.72 294.764C103.792 294.876 103.88 294.968 103.984 295.04C104.096 295.112 104.224 295.164 104.368 295.196C104.512 295.228 104.664 295.244 104.824 295.244C105.16 295.244 105.448 295.2 105.688 295.112C105.928 295.016 106.124 294.9 106.276 294.764C106.428 294.62 106.54 294.468 106.612 294.308C106.684 294.14 106.72 293.984 106.72 293.84V292.796ZM109.565 287.432H110.585V296H109.565V287.432ZM120.077 291.788C119.997 291.396 119.829 291.092 119.573 290.876C119.317 290.66 118.973 290.552 118.541 290.552C118.173 290.552 117.865 290.62 117.617 290.756C117.369 290.892 117.169 291.072 117.017 291.296C116.873 291.52 116.769 291.78 116.705 292.076C116.641 292.364 116.609 292.664 116.609 292.976C116.609 293.264 116.641 293.544 116.705 293.816C116.777 294.088 116.885 294.332 117.029 294.548C117.173 294.756 117.361 294.924 117.593 295.052C117.825 295.18 118.101 295.244 118.421 295.244C118.925 295.244 119.317 295.112 119.597 294.848C119.885 294.584 120.061 294.212 120.125 293.732H121.169C121.057 294.5 120.769 295.092 120.305 295.508C119.849 295.924 119.225 296.132 118.433 296.132C117.961 296.132 117.541 296.056 117.173 295.904C116.813 295.752 116.509 295.536 116.261 295.256C116.021 294.976 115.837 294.644 115.709 294.26C115.589 293.868 115.529 293.44 115.529 292.976C115.529 292.512 115.589 292.08 115.709 291.68C115.829 291.272 116.009 290.92 116.249 290.624C116.497 290.32 116.805 290.084 117.173 289.916C117.541 289.74 117.969 289.652 118.457 289.652C118.809 289.652 119.137 289.696 119.441 289.784C119.753 289.864 120.025 289.992 120.257 290.168C120.497 290.344 120.693 290.568 120.845 290.84C120.997 291.104 121.093 291.42 121.133 291.788H120.077ZM123.235 292.904C123.235 293.28 123.283 293.616 123.379 293.912C123.483 294.2 123.623 294.444 123.799 294.644C123.975 294.836 124.179 294.984 124.411 295.088C124.651 295.192 124.903 295.244 125.167 295.244C125.431 295.244 125.679 295.192 125.911 295.088C126.151 294.984 126.359 294.836 126.535 294.644C126.711 294.444 126.847 294.2 126.943 293.912C127.047 293.616 127.099 293.28 127.099 292.904C127.099 292.528 127.047 292.196 126.943 291.908C126.847 291.612 126.711 291.364 126.535 291.164C126.359 290.964 126.151 290.812 125.911 290.708C125.679 290.604 125.431 290.552 125.167 290.552C124.903 290.552 124.651 290.604 124.411 290.708C124.179 290.812 123.975 290.964 123.799 291.164C123.623 291.364 123.483 291.612 123.379 291.908C123.283 292.196 123.235 292.528 123.235 292.904ZM122.155 292.904C122.155 292.448 122.219 292.024 122.347 291.632C122.475 291.232 122.667 290.888 122.923 290.6C123.179 290.304 123.495 290.072 123.871 289.904C124.247 289.736 124.679 289.652 125.167 289.652C125.663 289.652 126.095 289.736 126.463 289.904C126.839 290.072 127.155 290.304 127.411 290.6C127.667 290.888 127.859 291.232 127.987 291.632C128.115 292.024 128.179 292.448 128.179 292.904C128.179 293.36 128.115 293.784 127.987 294.176C127.859 294.568 127.667 294.912 127.411 295.208C127.155 295.496 126.839 295.724 126.463 295.892C126.095 296.052 125.663 296.132 125.167 296.132C124.679 296.132 124.247 296.052 123.871 295.892C123.495 295.724 123.179 295.496 122.923 295.208C122.667 294.912 122.475 294.568 122.347 294.176C122.219 293.784 122.155 293.36 122.155 292.904ZM129.561 289.796H130.521V290.708H130.545C131.009 290.004 131.677 289.652 132.549 289.652C132.933 289.652 133.281 289.732 133.593 289.892C133.905 290.052 134.125 290.324 134.253 290.708C134.461 290.372 134.733 290.112 135.069 289.928C135.413 289.744 135.789 289.652 136.197 289.652C136.509 289.652 136.789 289.688 137.037 289.76C137.293 289.824 137.509 289.928 137.685 290.072C137.869 290.216 138.009 290.404 138.105 290.636C138.209 290.86 138.261 291.132 138.261 291.452V296H137.241V291.932C137.241 291.74 137.225 291.56 137.193 291.392C137.161 291.224 137.101 291.08 137.013 290.96C136.925 290.832 136.801 290.732 136.641 290.66C136.489 290.588 136.289 290.552 136.041 290.552C135.537 290.552 135.141 290.696 134.853 290.984C134.565 291.272 134.421 291.656 134.421 292.136V296H133.401V291.932C133.401 291.732 133.381 291.548 133.341 291.38C133.309 291.212 133.249 291.068 133.161 290.948C133.073 290.82 132.953 290.724 132.801 290.66C132.657 290.588 132.469 290.552 132.237 290.552C131.941 290.552 131.685 290.612 131.469 290.732C131.261 290.852 131.089 290.996 130.953 291.164C130.825 291.332 130.729 291.508 130.665 291.692C130.609 291.868 130.581 292.016 130.581 292.136V296H129.561V289.796ZM139.972 289.796H140.932V290.708H140.956C141.42 290.004 142.088 289.652 142.96 289.652C143.344 289.652 143.692 289.732 144.004 289.892C144.316 290.052 144.536 290.324 144.664 290.708C144.872 290.372 145.144 290.112 145.48 289.928C145.824 289.744 146.2 289.652 146.608 289.652C146.92 289.652 147.2 289.688 147.448 289.76C147.704 289.824 147.92 289.928 148.096 290.072C148.28 290.216 148.42 290.404 148.516 290.636C148.62 290.86 148.672 291.132 148.672 291.452V296H147.652V291.932C147.652 291.74 147.636 291.56 147.604 291.392C147.572 291.224 147.512 291.08 147.424 290.96C147.336 290.832 147.212 290.732 147.052 290.66C146.9 290.588 146.7 290.552 146.452 290.552C145.948 290.552 145.552 290.696 145.264 290.984C144.976 291.272 144.832 291.656 144.832 292.136V296H143.812V291.932C143.812 291.732 143.792 291.548 143.752 291.38C143.72 291.212 143.66 291.068 143.572 290.948C143.484 290.82 143.364 290.724 143.212 290.66C143.068 290.588 142.88 290.552 142.648 290.552C142.352 290.552 142.096 290.612 141.88 290.732C141.672 290.852 141.5 290.996 141.364 291.164C141.236 291.332 141.14 291.508 141.076 291.692C141.02 291.868 140.992 292.016 140.992 292.136V296H139.972V289.796ZM154.69 292.304C154.674 292.064 154.618 291.836 154.522 291.62C154.434 291.404 154.31 291.22 154.15 291.068C153.998 290.908 153.814 290.784 153.598 290.696C153.39 290.6 153.158 290.552 152.902 290.552C152.638 290.552 152.398 290.6 152.182 290.696C151.974 290.784 151.794 290.908 151.642 291.068C151.49 291.228 151.37 291.416 151.282 291.632C151.194 291.84 151.142 292.064 151.126 292.304H154.69ZM155.674 294.032C155.538 294.728 155.238 295.252 154.774 295.604C154.31 295.956 153.726 296.132 153.022 296.132C152.526 296.132 152.094 296.052 151.726 295.892C151.366 295.732 151.062 295.508 150.814 295.22C150.566 294.932 150.378 294.588 150.25 294.188C150.13 293.788 150.062 293.352 150.046 292.88C150.046 292.408 150.118 291.976 150.262 291.584C150.406 291.192 150.606 290.852 150.862 290.564C151.126 290.276 151.434 290.052 151.786 289.892C152.146 289.732 152.538 289.652 152.962 289.652C153.514 289.652 153.97 289.768 154.33 290C154.698 290.224 154.99 290.512 155.206 290.864C155.43 291.216 155.582 291.6 155.662 292.016C155.75 292.432 155.786 292.828 155.77 293.204H151.126C151.118 293.476 151.15 293.736 151.222 293.984C151.294 294.224 151.41 294.44 151.57 294.632C151.73 294.816 151.934 294.964 152.182 295.076C152.43 295.188 152.722 295.244 153.058 295.244C153.49 295.244 153.842 295.144 154.114 294.944C154.394 294.744 154.578 294.44 154.666 294.032H155.674ZM157.007 289.796H157.967V290.78H157.991C158.415 290.028 159.087 289.652 160.007 289.652C160.415 289.652 160.755 289.708 161.027 289.82C161.299 289.932 161.519 290.088 161.687 290.288C161.855 290.488 161.971 290.728 162.035 291.008C162.107 291.28 162.143 291.584 162.143 291.92V296H161.123V291.8C161.123 291.416 161.011 291.112 160.787 290.888C160.563 290.664 160.255 290.552 159.863 290.552C159.551 290.552 159.279 290.6 159.047 290.696C158.823 290.792 158.635 290.928 158.483 291.104C158.331 291.28 158.215 291.488 158.135 291.728C158.063 291.96 158.027 292.216 158.027 292.496V296H157.007V289.796ZM165.271 289.796H166.507V290.696H165.271V294.548C165.271 294.668 165.279 294.764 165.295 294.836C165.319 294.908 165.359 294.964 165.415 295.004C165.471 295.044 165.547 295.072 165.643 295.088C165.747 295.096 165.879 295.1 166.039 295.1H166.507V296H165.727C165.463 296 165.235 295.984 165.043 295.952C164.859 295.912 164.707 295.844 164.587 295.748C164.475 295.652 164.391 295.516 164.335 295.34C164.279 295.164 164.251 294.932 164.251 294.644V290.696H163.195V289.796H164.251V287.936H165.271V289.796ZM168.444 294.044C168.452 294.268 168.504 294.46 168.6 294.62C168.696 294.772 168.82 294.896 168.972 294.992C169.132 295.08 169.308 295.144 169.5 295.184C169.7 295.224 169.904 295.244 170.112 295.244C170.272 295.244 170.44 295.232 170.616 295.208C170.792 295.184 170.952 295.14 171.096 295.076C171.248 295.012 171.372 294.92 171.468 294.8C171.564 294.672 171.612 294.512 171.612 294.32C171.612 294.056 171.512 293.856 171.312 293.72C171.112 293.584 170.86 293.476 170.556 293.396C170.26 293.308 169.936 293.232 169.584 293.168C169.232 293.096 168.904 293 168.6 292.88C168.304 292.752 168.056 292.576 167.856 292.352C167.656 292.128 167.556 291.816 167.556 291.416C167.556 291.104 167.624 290.836 167.76 290.612C167.904 290.388 168.084 290.208 168.3 290.072C168.524 289.928 168.772 289.824 169.044 289.76C169.324 289.688 169.6 289.652 169.872 289.652C170.224 289.652 170.548 289.684 170.844 289.748C171.14 289.804 171.4 289.908 171.624 290.06C171.856 290.204 172.04 290.404 172.176 290.66C172.312 290.908 172.392 291.22 172.416 291.596H171.396C171.38 291.396 171.328 291.232 171.24 291.104C171.152 290.968 171.04 290.86 170.904 290.78C170.768 290.7 170.616 290.644 170.448 290.612C170.288 290.572 170.124 290.552 169.956 290.552C169.804 290.552 169.648 290.564 169.488 290.588C169.336 290.612 169.196 290.656 169.068 290.72C168.94 290.776 168.836 290.856 168.756 290.96C168.676 291.056 168.636 291.184 168.636 291.344C168.636 291.52 168.696 291.668 168.816 291.788C168.944 291.9 169.104 291.996 169.296 292.076C169.488 292.148 169.704 292.212 169.944 292.268C170.184 292.316 170.424 292.368 170.664 292.424C170.92 292.48 171.168 292.548 171.408 292.628C171.656 292.708 171.872 292.816 172.056 292.952C172.248 293.08 172.4 293.244 172.512 293.444C172.632 293.644 172.692 293.892 172.692 294.188C172.692 294.564 172.612 294.876 172.452 295.124C172.3 295.372 172.096 295.572 171.84 295.724C171.592 295.876 171.308 295.98 170.988 296.036C170.676 296.1 170.364 296.132 170.052 296.132C169.708 296.132 169.38 296.096 169.068 296.024C168.756 295.952 168.48 295.836 168.24 295.676C168 295.508 167.808 295.292 167.664 295.028C167.52 294.756 167.44 294.428 167.424 294.044H168.444Z" fill="black" fill-opacity="0.68"/>
</svg>
