<svg width="600" height="492" viewBox="0 0 600 492" fill="none" xmlns="http://www.w3.org/2000/svg">
<rect width="600" height="492" fill="black" fill-opacity="0.04"/>
<path d="M101.248 186.076H108.752V187.356H102.768V190.988H108.016V192.268H102.768V197.5H101.248V186.076ZM117.54 197.468C117.305 197.607 116.98 197.676 116.564 197.676C116.212 197.676 115.929 197.58 115.716 197.388C115.513 197.185 115.412 196.86 115.412 196.412C115.038 196.86 114.601 197.185 114.1 197.388C113.609 197.58 113.076 197.676 112.5 197.676C112.126 197.676 111.769 197.633 111.428 197.548C111.097 197.463 110.809 197.329 110.564 197.148C110.318 196.967 110.121 196.732 109.972 196.444C109.833 196.145 109.764 195.788 109.764 195.372C109.764 194.903 109.844 194.519 110.004 194.22C110.164 193.921 110.372 193.681 110.628 193.5C110.894 193.308 111.193 193.164 111.524 193.068C111.865 192.972 112.212 192.892 112.564 192.828C112.937 192.753 113.289 192.7 113.62 192.668C113.961 192.625 114.26 192.572 114.516 192.508C114.772 192.433 114.974 192.332 115.124 192.204C115.273 192.065 115.348 191.868 115.348 191.612C115.348 191.313 115.289 191.073 115.172 190.892C115.065 190.711 114.921 190.572 114.74 190.476C114.569 190.38 114.372 190.316 114.148 190.284C113.934 190.252 113.721 190.236 113.508 190.236C112.932 190.236 112.452 190.348 112.068 190.572C111.684 190.785 111.476 191.196 111.444 191.804H110.084C110.105 191.292 110.212 190.86 110.404 190.508C110.596 190.156 110.852 189.873 111.172 189.66C111.492 189.436 111.854 189.276 112.26 189.18C112.676 189.084 113.118 189.036 113.588 189.036C113.961 189.036 114.329 189.063 114.692 189.116C115.065 189.169 115.401 189.281 115.7 189.452C115.998 189.612 116.238 189.841 116.42 190.14C116.601 190.439 116.692 190.828 116.692 191.308V195.564C116.692 195.884 116.708 196.119 116.74 196.268C116.782 196.417 116.91 196.492 117.124 196.492C117.241 196.492 117.38 196.465 117.54 196.412V197.468ZM115.332 193.228C115.161 193.356 114.937 193.452 114.66 193.516C114.382 193.569 114.089 193.617 113.78 193.66C113.481 193.692 113.177 193.735 112.868 193.788C112.558 193.831 112.281 193.905 112.036 194.012C111.79 194.119 111.588 194.273 111.428 194.476C111.278 194.668 111.204 194.935 111.204 195.276C111.204 195.5 111.246 195.692 111.332 195.852C111.428 196.001 111.545 196.124 111.684 196.22C111.833 196.316 112.004 196.385 112.196 196.428C112.388 196.471 112.59 196.492 112.804 196.492C113.252 196.492 113.636 196.433 113.956 196.316C114.276 196.188 114.537 196.033 114.74 195.852C114.942 195.66 115.092 195.457 115.188 195.244C115.284 195.02 115.332 194.812 115.332 194.62V193.228ZM118.885 186.076H120.245V197.5H118.885V186.076ZM123.184 194.892C123.195 195.191 123.264 195.447 123.392 195.66C123.52 195.863 123.685 196.028 123.888 196.156C124.101 196.273 124.336 196.359 124.592 196.412C124.859 196.465 125.131 196.492 125.408 196.492C125.621 196.492 125.845 196.476 126.08 196.444C126.315 196.412 126.528 196.353 126.72 196.268C126.923 196.183 127.088 196.06 127.216 195.9C127.344 195.729 127.408 195.516 127.408 195.26C127.408 194.908 127.275 194.641 127.008 194.46C126.741 194.279 126.405 194.135 126 194.028C125.605 193.911 125.173 193.809 124.704 193.724C124.235 193.628 123.797 193.5 123.392 193.34C122.997 193.169 122.667 192.935 122.4 192.636C122.133 192.337 122 191.921 122 191.388C122 190.972 122.091 190.615 122.272 190.316C122.464 190.017 122.704 189.777 122.992 189.596C123.291 189.404 123.621 189.265 123.984 189.18C124.357 189.084 124.725 189.036 125.088 189.036C125.557 189.036 125.989 189.079 126.384 189.164C126.779 189.239 127.125 189.377 127.424 189.58C127.733 189.772 127.979 190.039 128.16 190.38C128.341 190.711 128.448 191.127 128.48 191.628H127.12C127.099 191.361 127.029 191.143 126.912 190.972C126.795 190.791 126.645 190.647 126.464 190.54C126.283 190.433 126.08 190.359 125.856 190.316C125.643 190.263 125.424 190.236 125.2 190.236C124.997 190.236 124.789 190.252 124.576 190.284C124.373 190.316 124.187 190.375 124.016 190.46C123.845 190.535 123.707 190.641 123.6 190.78C123.493 190.908 123.44 191.079 123.44 191.292C123.44 191.527 123.52 191.724 123.68 191.884C123.851 192.033 124.064 192.161 124.32 192.268C124.576 192.364 124.864 192.449 125.184 192.524C125.504 192.588 125.824 192.657 126.144 192.732C126.485 192.807 126.816 192.897 127.136 193.004C127.467 193.111 127.755 193.255 128 193.436C128.256 193.607 128.459 193.825 128.608 194.092C128.768 194.359 128.848 194.689 128.848 195.084C128.848 195.585 128.741 196.001 128.528 196.332C128.325 196.663 128.053 196.929 127.712 197.132C127.381 197.335 127.003 197.473 126.576 197.548C126.16 197.633 125.744 197.676 125.328 197.676C124.869 197.676 124.432 197.628 124.016 197.532C123.6 197.436 123.232 197.281 122.912 197.068C122.592 196.844 122.336 196.556 122.144 196.204C121.952 195.841 121.845 195.404 121.824 194.892H123.184ZM136.096 192.572C136.075 192.252 136 191.948 135.872 191.66C135.755 191.372 135.589 191.127 135.376 190.924C135.173 190.711 134.928 190.545 134.64 190.428C134.363 190.3 134.053 190.236 133.712 190.236C133.36 190.236 133.04 190.3 132.752 190.428C132.475 190.545 132.235 190.711 132.032 190.924C131.829 191.137 131.669 191.388 131.552 191.676C131.435 191.953 131.365 192.252 131.344 192.572H136.096ZM137.408 194.876C137.227 195.804 136.827 196.503 136.208 196.972C135.589 197.441 134.811 197.676 133.872 197.676C133.211 197.676 132.635 197.569 132.144 197.356C131.664 197.143 131.259 196.844 130.928 196.46C130.597 196.076 130.347 195.617 130.176 195.084C130.016 194.551 129.925 193.969 129.904 193.34C129.904 192.711 130 192.135 130.192 191.612C130.384 191.089 130.651 190.636 130.992 190.252C131.344 189.868 131.755 189.569 132.224 189.356C132.704 189.143 133.227 189.036 133.792 189.036C134.528 189.036 135.136 189.191 135.616 189.5C136.107 189.799 136.496 190.183 136.784 190.652C137.083 191.121 137.285 191.633 137.392 192.188C137.509 192.743 137.557 193.271 137.536 193.772H131.344C131.333 194.135 131.376 194.481 131.472 194.812C131.568 195.132 131.723 195.42 131.936 195.676C132.149 195.921 132.421 196.119 132.752 196.268C133.083 196.417 133.472 196.492 133.92 196.492C134.496 196.492 134.965 196.359 135.328 196.092C135.701 195.825 135.947 195.42 136.064 194.876H137.408Z" fill="black" fill-opacity="0.68"/>
<mask id="mask0_75488_5258" style="mask-type:alpha" maskUnits="userSpaceOnUse" x="290" y="168" width="48" height="48">
<path d="M314 168C327.255 168 338 178.745 338 192C338 205.255 327.255 216 314 216C300.745 216 290 205.255 290 192C290 178.745 300.745 168 314 168ZM314 175C304.611 175 297 182.611 297 192C297 201.389 304.611 209 314 209C323.389 209 331 201.389 331 192C331 182.611 323.389 175 314 175Z" fill="#FF0000"/>
</mask>
<g mask="url(#mask0_75488_5258)">
<path d="M338 192C338 188.848 337.379 185.727 336.173 182.816C334.967 179.904 333.199 177.258 330.971 175.029C328.742 172.801 326.096 171.033 323.184 169.827C320.273 168.621 317.152 168 314 168L314 192L338 192Z" fill="#F15E00"/>
<path d="M314 216C317.152 216 320.273 215.379 323.184 214.173C326.096 212.967 328.742 211.199 330.971 208.971C333.199 206.742 334.967 204.096 336.173 201.184C337.379 198.273 338 195.152 338 192L314 192L314 216Z" fill="#F15E00"/>
<path d="M314 216C317.152 216 320.273 215.379 323.184 214.173C326.096 212.967 328.742 211.199 330.971 208.971C333.199 206.742 334.967 204.096 336.173 201.184C337.379 198.273 338 195.152 338 192L314 192L314 216Z" fill="#F15E00"/>
<path d="M314 216C317.152 216 320.273 215.379 323.184 214.173C326.096 212.967 328.742 211.199 330.971 208.971C333.199 206.742 334.967 204.096 336.173 201.184C337.379 198.273 338 195.152 338 192L314 192L314 216Z" fill="#F15E00"/>
</g>
<path d="M103.84 295.356H100.032V294.076H109.168V295.356H105.36V305.5H103.84V295.356ZM108.695 297.228H109.975V298.972H110.007C110.337 298.3 110.743 297.804 111.223 297.484C111.703 297.164 112.311 297.015 113.047 297.036V298.476C112.503 298.476 112.039 298.551 111.655 298.7C111.271 298.849 110.961 299.068 110.727 299.356C110.492 299.644 110.321 299.996 110.215 300.412C110.108 300.817 110.055 301.287 110.055 301.82V305.5H108.695V297.228ZM120.919 305.5H119.639V304.188H119.607C119.319 304.7 118.951 305.079 118.503 305.324C118.055 305.559 117.527 305.676 116.919 305.676C116.375 305.676 115.922 305.607 115.559 305.468C115.196 305.319 114.903 305.111 114.679 304.844C114.455 304.577 114.295 304.263 114.199 303.9C114.114 303.527 114.071 303.116 114.071 302.668V297.228H115.431V302.828C115.431 303.34 115.58 303.745 115.879 304.044C116.178 304.343 116.588 304.492 117.111 304.492C117.527 304.492 117.884 304.428 118.183 304.3C118.492 304.172 118.748 303.991 118.951 303.756C119.154 303.521 119.303 303.249 119.399 302.94C119.506 302.62 119.559 302.273 119.559 301.9V297.228H120.919V305.5ZM128.706 300.572C128.684 300.252 128.61 299.948 128.482 299.66C128.364 299.372 128.199 299.127 127.986 298.924C127.783 298.711 127.538 298.545 127.25 298.428C126.972 298.3 126.663 298.236 126.322 298.236C125.97 298.236 125.65 298.3 125.362 298.428C125.084 298.545 124.844 298.711 124.642 298.924C124.439 299.137 124.279 299.388 124.162 299.676C124.044 299.953 123.975 300.252 123.954 300.572H128.706ZM130.017 302.876C129.836 303.804 129.436 304.503 128.818 304.972C128.199 305.441 127.42 305.676 126.482 305.676C125.82 305.676 125.244 305.569 124.754 305.356C124.274 305.143 123.868 304.844 123.538 304.46C123.207 304.076 122.956 303.617 122.786 303.084C122.626 302.551 122.535 301.969 122.514 301.34C122.514 300.711 122.61 300.135 122.802 299.612C122.994 299.089 123.26 298.636 123.602 298.252C123.954 297.868 124.364 297.569 124.834 297.356C125.314 297.143 125.836 297.036 126.402 297.036C127.138 297.036 127.746 297.191 128.226 297.5C128.716 297.799 129.106 298.183 129.394 298.652C129.692 299.121 129.895 299.633 130.002 300.188C130.119 300.743 130.167 301.271 130.146 301.772H123.954C123.943 302.135 123.986 302.481 124.082 302.812C124.178 303.132 124.332 303.42 124.546 303.676C124.759 303.921 125.031 304.119 125.362 304.268C125.692 304.417 126.082 304.492 126.53 304.492C127.106 304.492 127.575 304.359 127.938 304.092C128.311 303.825 128.556 303.42 128.674 302.876H130.017Z" fill="black" fill-opacity="0.68"/>
<mask id="mask1_75488_5258" style="mask-type:alpha" maskUnits="userSpaceOnUse" x="290" y="276" width="48" height="48">
<path d="M314 276C327.255 276 338 286.745 338 300C338 313.255 327.255 324 314 324C300.745 324 290 313.255 290 300C290 286.745 300.745 276 314 276ZM314 283C304.611 283 297 290.611 297 300C297 309.389 304.611 317 314 317C323.389 317 331 309.389 331 300C331 290.611 323.389 283 314 283Z" fill="#FF0000"/>
</mask>
<g mask="url(#mask1_75488_5258)">
<circle cx="314" cy="300" r="24" fill="black" fill-opacity="0.2"/>
<path d="M338 300C338 296.848 337.379 293.727 336.173 290.816C334.967 287.904 333.199 285.258 330.971 283.029C328.742 280.801 326.096 279.033 323.184 277.827C320.273 276.621 317.152 276 314 276L314 300L338 300Z" fill="#F15E00"/>
<path d="M314 324C317.152 324 320.273 323.379 323.184 322.173C326.096 320.967 328.742 319.199 330.971 316.971C333.199 314.742 334.967 312.096 336.173 309.184C337.379 306.273 338 303.152 338 300L314 300L314 324Z" fill="#F15E00"/>
<path d="M314 324C317.152 324 320.273 323.379 323.184 322.173C326.096 320.967 328.742 319.199 330.971 316.971C333.199 314.742 334.967 312.096 336.173 309.184C337.379 306.273 338 303.152 338 300L314 300L314 324Z" fill="#F15E00"/>
<path d="M314 324C317.152 324 320.273 323.379 323.184 322.173C326.096 320.967 328.742 319.199 330.971 316.971C333.199 314.742 334.967 312.096 336.173 309.184C337.379 306.273 338 303.152 338 300L314 300L314 324Z" fill="#F15E00"/>
</g>
</svg>
