<svg width="600" height="342" viewBox="0 0 600 342" fill="none" xmlns="http://www.w3.org/2000/svg">
<rect width="600" height="342" fill="black" fill-opacity="0.04"/>
<path d="M101.248 111.076H108.752V112.356H102.768V115.988H108.016V117.268H102.768V122.5H101.248V111.076ZM117.54 122.468C117.305 122.607 116.98 122.676 116.564 122.676C116.212 122.676 115.929 122.58 115.716 122.388C115.513 122.185 115.412 121.86 115.412 121.412C115.038 121.86 114.601 122.185 114.1 122.388C113.609 122.58 113.076 122.676 112.5 122.676C112.126 122.676 111.769 122.633 111.428 122.548C111.097 122.463 110.809 122.329 110.564 122.148C110.318 121.967 110.121 121.732 109.972 121.444C109.833 121.145 109.764 120.788 109.764 120.372C109.764 119.903 109.844 119.519 110.004 119.22C110.164 118.921 110.372 118.681 110.628 118.5C110.894 118.308 111.193 118.164 111.524 118.068C111.865 117.972 112.212 117.892 112.564 117.828C112.937 117.753 113.289 117.7 113.62 117.668C113.961 117.625 114.26 117.572 114.516 117.508C114.772 117.433 114.974 117.332 115.124 117.204C115.273 117.065 115.348 116.868 115.348 116.612C115.348 116.313 115.289 116.073 115.172 115.892C115.065 115.711 114.921 115.572 114.74 115.476C114.569 115.38 114.372 115.316 114.148 115.284C113.934 115.252 113.721 115.236 113.508 115.236C112.932 115.236 112.452 115.348 112.068 115.572C111.684 115.785 111.476 116.196 111.444 116.804H110.084C110.105 116.292 110.212 115.86 110.404 115.508C110.596 115.156 110.852 114.873 111.172 114.66C111.492 114.436 111.854 114.276 112.26 114.18C112.676 114.084 113.118 114.036 113.588 114.036C113.961 114.036 114.329 114.063 114.692 114.116C115.065 114.169 115.401 114.281 115.7 114.452C115.998 114.612 116.238 114.841 116.42 115.14C116.601 115.439 116.692 115.828 116.692 116.308V120.564C116.692 120.884 116.708 121.119 116.74 121.268C116.782 121.417 116.91 121.492 117.124 121.492C117.241 121.492 117.38 121.465 117.54 121.412V122.468ZM115.332 118.228C115.161 118.356 114.937 118.452 114.66 118.516C114.382 118.569 114.089 118.617 113.78 118.66C113.481 118.692 113.177 118.735 112.868 118.788C112.558 118.831 112.281 118.905 112.036 119.012C111.79 119.119 111.588 119.273 111.428 119.476C111.278 119.668 111.204 119.935 111.204 120.276C111.204 120.5 111.246 120.692 111.332 120.852C111.428 121.001 111.545 121.124 111.684 121.22C111.833 121.316 112.004 121.385 112.196 121.428C112.388 121.471 112.59 121.492 112.804 121.492C113.252 121.492 113.636 121.433 113.956 121.316C114.276 121.188 114.537 121.033 114.74 120.852C114.942 120.66 115.092 120.457 115.188 120.244C115.284 120.02 115.332 119.812 115.332 119.62V118.228ZM118.885 111.076H120.245V122.5H118.885V111.076ZM123.184 119.892C123.195 120.191 123.264 120.447 123.392 120.66C123.52 120.863 123.685 121.028 123.888 121.156C124.101 121.273 124.336 121.359 124.592 121.412C124.859 121.465 125.131 121.492 125.408 121.492C125.621 121.492 125.845 121.476 126.08 121.444C126.315 121.412 126.528 121.353 126.72 121.268C126.923 121.183 127.088 121.06 127.216 120.9C127.344 120.729 127.408 120.516 127.408 120.26C127.408 119.908 127.275 119.641 127.008 119.46C126.741 119.279 126.405 119.135 126 119.028C125.605 118.911 125.173 118.809 124.704 118.724C124.235 118.628 123.797 118.5 123.392 118.34C122.997 118.169 122.667 117.935 122.4 117.636C122.133 117.337 122 116.921 122 116.388C122 115.972 122.091 115.615 122.272 115.316C122.464 115.017 122.704 114.777 122.992 114.596C123.291 114.404 123.621 114.265 123.984 114.18C124.357 114.084 124.725 114.036 125.088 114.036C125.557 114.036 125.989 114.079 126.384 114.164C126.779 114.239 127.125 114.377 127.424 114.58C127.733 114.772 127.979 115.039 128.16 115.38C128.341 115.711 128.448 116.127 128.48 116.628H127.12C127.099 116.361 127.029 116.143 126.912 115.972C126.795 115.791 126.645 115.647 126.464 115.54C126.283 115.433 126.08 115.359 125.856 115.316C125.643 115.263 125.424 115.236 125.2 115.236C124.997 115.236 124.789 115.252 124.576 115.284C124.373 115.316 124.187 115.375 124.016 115.46C123.845 115.535 123.707 115.641 123.6 115.78C123.493 115.908 123.44 116.079 123.44 116.292C123.44 116.527 123.52 116.724 123.68 116.884C123.851 117.033 124.064 117.161 124.32 117.268C124.576 117.364 124.864 117.449 125.184 117.524C125.504 117.588 125.824 117.657 126.144 117.732C126.485 117.807 126.816 117.897 127.136 118.004C127.467 118.111 127.755 118.255 128 118.436C128.256 118.607 128.459 118.825 128.608 119.092C128.768 119.359 128.848 119.689 128.848 120.084C128.848 120.585 128.741 121.001 128.528 121.332C128.325 121.663 128.053 121.929 127.712 122.132C127.381 122.335 127.003 122.473 126.576 122.548C126.16 122.633 125.744 122.676 125.328 122.676C124.869 122.676 124.432 122.628 124.016 122.532C123.6 122.436 123.232 122.281 122.912 122.068C122.592 121.844 122.336 121.556 122.144 121.204C121.952 120.841 121.845 120.404 121.824 119.892H123.184ZM136.096 117.572C136.075 117.252 136 116.948 135.872 116.66C135.755 116.372 135.589 116.127 135.376 115.924C135.173 115.711 134.928 115.545 134.64 115.428C134.363 115.3 134.053 115.236 133.712 115.236C133.36 115.236 133.04 115.3 132.752 115.428C132.475 115.545 132.235 115.711 132.032 115.924C131.829 116.137 131.669 116.388 131.552 116.676C131.435 116.953 131.365 117.252 131.344 117.572H136.096ZM137.408 119.876C137.227 120.804 136.827 121.503 136.208 121.972C135.589 122.441 134.811 122.676 133.872 122.676C133.211 122.676 132.635 122.569 132.144 122.356C131.664 122.143 131.259 121.844 130.928 121.46C130.597 121.076 130.347 120.617 130.176 120.084C130.016 119.551 129.925 118.969 129.904 118.34C129.904 117.711 130 117.135 130.192 116.612C130.384 116.089 130.651 115.636 130.992 115.252C131.344 114.868 131.755 114.569 132.224 114.356C132.704 114.143 133.227 114.036 133.792 114.036C134.528 114.036 135.136 114.191 135.616 114.5C136.107 114.799 136.496 115.183 136.784 115.652C137.083 116.121 137.285 116.633 137.392 117.188C137.509 117.743 137.557 118.271 137.536 118.772H131.344C131.333 119.135 131.376 119.481 131.472 119.812C131.568 120.132 131.723 120.42 131.936 120.676C132.149 120.921 132.421 121.119 132.752 121.268C133.083 121.417 133.472 121.492 133.92 121.492C134.496 121.492 134.965 121.359 135.328 121.092C135.701 120.825 135.947 120.42 136.064 119.876H137.408Z" fill="black" fill-opacity="0.68"/>
<mask id="mask0_75488_6054" style="mask-type:alpha" maskUnits="userSpaceOnUse" x="290" y="93" width="48" height="48">
<path d="M314 93C327.255 93 338 103.745 338 117C338 130.255 327.255 141 314 141C300.745 141 290 130.255 290 117C290 103.745 300.745 93 314 93ZM314 100C304.611 100 297 107.611 297 117C297 126.389 304.611 134 314 134C323.389 134 331 126.389 331 117C331 107.611 323.389 100 314 100Z" fill="#FF0000"/>
</mask>
<g mask="url(#mask0_75488_6054)">
<circle cx="314" cy="117" r="24" fill="black" fill-opacity="0.2"/>
<mask id="mask1_75488_6054" style="mask-type:alpha" maskUnits="userSpaceOnUse" x="314" y="93" width="24" height="48">
<path d="M314 93C317.152 93 320.273 93.6208 323.184 94.8269C326.096 96.033 328.742 97.8008 330.971 100.029C333.199 102.258 334.967 104.904 336.173 107.816C337.379 110.727 338 113.848 338 117C338 120.152 337.379 123.273 336.173 126.184C334.967 129.096 333.199 131.742 330.971 133.971C328.742 136.199 326.096 137.967 323.184 139.173C320.273 140.379 317.152 141 314 141L314 117L314 93Z" fill="#FF0000"/>
</mask>
<g mask="url(#mask1_75488_6054)">
<path d="M338 117C338 113.848 337.379 110.727 336.173 107.816C334.967 104.904 333.199 102.258 330.971 100.029C328.742 97.8008 326.096 96.033 323.184 94.8269C320.273 93.6208 317.152 93 314 93L314 117L338 117Z" fill="#F15E00"/>
<path d="M338 117C338 113.848 337.379 110.727 336.173 107.816C334.967 104.904 333.199 102.258 330.971 100.029C328.742 97.8008 326.096 96.033 323.184 94.8269C320.273 93.6208 317.152 93 314 93L314 117L338 117Z" fill="#F15E00"/>
<path d="M338 117C338 113.848 337.379 110.727 336.173 107.816C334.967 104.904 333.199 102.258 330.971 100.029C328.742 97.8008 326.096 96.033 323.184 94.8269C320.273 93.6208 317.152 93 314 93L314 117L338 117Z" fill="#F15E00"/>
<path d="M338 117C338 113.848 337.379 110.727 336.173 107.816C334.967 104.904 333.199 102.258 330.971 100.029C328.742 97.8008 326.096 96.033 323.184 94.8269C320.273 93.6208 317.152 93 314 93L314 117L338 117Z" fill="#F15E00"/>
</g>
</g>
<path d="M103.84 220.356H100.032V219.076H109.168V220.356H105.36V230.5H103.84V220.356ZM108.695 222.228H109.975V223.972H110.007C110.337 223.3 110.743 222.804 111.223 222.484C111.703 222.164 112.311 222.015 113.047 222.036V223.476C112.503 223.476 112.039 223.551 111.655 223.7C111.271 223.849 110.961 224.068 110.727 224.356C110.492 224.644 110.321 224.996 110.215 225.412C110.108 225.817 110.055 226.287 110.055 226.82V230.5H108.695V222.228ZM120.919 230.5H119.639V229.188H119.607C119.319 229.7 118.951 230.079 118.503 230.324C118.055 230.559 117.527 230.676 116.919 230.676C116.375 230.676 115.922 230.607 115.559 230.468C115.196 230.319 114.903 230.111 114.679 229.844C114.455 229.577 114.295 229.263 114.199 228.9C114.114 228.527 114.071 228.116 114.071 227.668V222.228H115.431V227.828C115.431 228.34 115.58 228.745 115.879 229.044C116.178 229.343 116.588 229.492 117.111 229.492C117.527 229.492 117.884 229.428 118.183 229.3C118.492 229.172 118.748 228.991 118.951 228.756C119.154 228.521 119.303 228.249 119.399 227.94C119.506 227.62 119.559 227.273 119.559 226.9V222.228H120.919V230.5ZM128.706 225.572C128.684 225.252 128.61 224.948 128.482 224.66C128.364 224.372 128.199 224.127 127.986 223.924C127.783 223.711 127.538 223.545 127.25 223.428C126.972 223.3 126.663 223.236 126.322 223.236C125.97 223.236 125.65 223.3 125.362 223.428C125.084 223.545 124.844 223.711 124.642 223.924C124.439 224.137 124.279 224.388 124.162 224.676C124.044 224.953 123.975 225.252 123.954 225.572H128.706ZM130.017 227.876C129.836 228.804 129.436 229.503 128.818 229.972C128.199 230.441 127.42 230.676 126.482 230.676C125.82 230.676 125.244 230.569 124.754 230.356C124.274 230.143 123.868 229.844 123.538 229.46C123.207 229.076 122.956 228.617 122.786 228.084C122.626 227.551 122.535 226.969 122.514 226.34C122.514 225.711 122.61 225.135 122.802 224.612C122.994 224.089 123.26 223.636 123.602 223.252C123.954 222.868 124.364 222.569 124.834 222.356C125.314 222.143 125.836 222.036 126.402 222.036C127.138 222.036 127.746 222.191 128.226 222.5C128.716 222.799 129.106 223.183 129.394 223.652C129.692 224.121 129.895 224.633 130.002 225.188C130.119 225.743 130.167 226.271 130.146 226.772H123.954C123.943 227.135 123.986 227.481 124.082 227.812C124.178 228.132 124.332 228.42 124.546 228.676C124.759 228.921 125.031 229.119 125.362 229.268C125.692 229.417 126.082 229.492 126.53 229.492C127.106 229.492 127.575 229.359 127.938 229.092C128.311 228.825 128.556 228.42 128.674 227.876H130.017Z" fill="black" fill-opacity="0.68"/>
<mask id="mask2_75488_6054" style="mask-type:alpha" maskUnits="userSpaceOnUse" x="290" y="201" width="48" height="48">
<path d="M314 201C327.255 201 338 211.745 338 225C338 238.255 327.255 249 314 249C300.745 249 290 238.255 290 225C290 211.745 300.745 201 314 201ZM314 208C304.611 208 297 215.611 297 225C297 234.389 304.611 242 314 242C323.389 242 331 234.389 331 225C331 215.611 323.389 208 314 208Z" fill="#FF0000"/>
</mask>
<g mask="url(#mask2_75488_6054)">
<circle cx="314" cy="225" r="24" fill="black" fill-opacity="0.2"/>
</g>
</svg>
