<svg width="600" height="864" viewBox="0 0 600 864" fill="none" xmlns="http://www.w3.org/2000/svg">
<rect width="600" height="864" fill="black" fill-opacity="0.04"/>
<path d="M101.248 120.076H109.136V121.356H102.768V124.988H108.704V126.268H102.768V130.22H109.184V131.5H101.248V120.076ZM110.805 123.228H112.085V124.54H112.117C112.683 123.537 113.579 123.036 114.805 123.036C115.349 123.036 115.803 123.111 116.165 123.26C116.528 123.409 116.821 123.617 117.045 123.884C117.269 124.151 117.424 124.471 117.509 124.844C117.605 125.207 117.653 125.612 117.653 126.06V131.5H116.293V125.9C116.293 125.388 116.144 124.983 115.845 124.684C115.547 124.385 115.136 124.236 114.613 124.236C114.197 124.236 113.835 124.3 113.525 124.428C113.227 124.556 112.976 124.737 112.773 124.972C112.571 125.207 112.416 125.484 112.309 125.804C112.213 126.113 112.165 126.455 112.165 126.828V131.5H110.805V123.228ZM127.024 131.468C126.789 131.607 126.464 131.676 126.048 131.676C125.696 131.676 125.413 131.58 125.2 131.388C124.997 131.185 124.896 130.86 124.896 130.412C124.523 130.86 124.085 131.185 123.584 131.388C123.093 131.58 122.56 131.676 121.984 131.676C121.611 131.676 121.253 131.633 120.912 131.548C120.581 131.463 120.293 131.329 120.048 131.148C119.803 130.967 119.605 130.732 119.456 130.444C119.317 130.145 119.248 129.788 119.248 129.372C119.248 128.903 119.328 128.519 119.488 128.22C119.648 127.921 119.856 127.681 120.112 127.5C120.379 127.308 120.677 127.164 121.008 127.068C121.349 126.972 121.696 126.892 122.048 126.828C122.421 126.753 122.773 126.7 123.104 126.668C123.445 126.625 123.744 126.572 124 126.508C124.256 126.433 124.459 126.332 124.608 126.204C124.757 126.065 124.832 125.868 124.832 125.612C124.832 125.313 124.773 125.073 124.656 124.892C124.549 124.711 124.405 124.572 124.224 124.476C124.053 124.38 123.856 124.316 123.632 124.284C123.419 124.252 123.205 124.236 122.992 124.236C122.416 124.236 121.936 124.348 121.552 124.572C121.168 124.785 120.96 125.196 120.928 125.804H119.568C119.589 125.292 119.696 124.86 119.888 124.508C120.08 124.156 120.336 123.873 120.656 123.66C120.976 123.436 121.339 123.276 121.744 123.18C122.16 123.084 122.603 123.036 123.072 123.036C123.445 123.036 123.813 123.063 124.176 123.116C124.549 123.169 124.885 123.281 125.184 123.452C125.483 123.612 125.723 123.841 125.904 124.14C126.085 124.439 126.176 124.828 126.176 125.308V129.564C126.176 129.884 126.192 130.119 126.224 130.268C126.267 130.417 126.395 130.492 126.608 130.492C126.725 130.492 126.864 130.465 127.024 130.412V131.468ZM124.816 127.228C124.645 127.356 124.421 127.452 124.144 127.516C123.867 127.569 123.573 127.617 123.264 127.66C122.965 127.692 122.661 127.735 122.352 127.788C122.043 127.831 121.765 127.905 121.52 128.012C121.275 128.119 121.072 128.273 120.912 128.476C120.763 128.668 120.688 128.935 120.688 129.276C120.688 129.5 120.731 129.692 120.816 129.852C120.912 130.001 121.029 130.124 121.168 130.22C121.317 130.316 121.488 130.385 121.68 130.428C121.872 130.471 122.075 130.492 122.288 130.492C122.736 130.492 123.12 130.433 123.44 130.316C123.76 130.188 124.021 130.033 124.224 129.852C124.427 129.66 124.576 129.457 124.672 129.244C124.768 129.02 124.816 128.812 124.816 128.62V127.228ZM128.338 120.076H129.698V124.348H129.73C129.954 123.889 130.306 123.559 130.786 123.356C131.266 123.143 131.794 123.036 132.37 123.036C133.01 123.036 133.564 123.153 134.034 123.388C134.514 123.623 134.908 123.943 135.218 124.348C135.538 124.743 135.778 125.201 135.938 125.724C136.098 126.247 136.178 126.801 136.178 127.388C136.178 127.975 136.098 128.529 135.938 129.052C135.788 129.575 135.554 130.033 135.234 130.428C134.924 130.812 134.53 131.116 134.05 131.34C133.58 131.564 133.031 131.676 132.402 131.676C132.199 131.676 131.97 131.655 131.714 131.612C131.468 131.569 131.223 131.5 130.978 131.404C130.732 131.308 130.498 131.18 130.274 131.02C130.06 130.849 129.879 130.641 129.73 130.396H129.698V131.5H128.338V120.076ZM134.738 127.292C134.738 126.908 134.684 126.535 134.578 126.172C134.482 125.799 134.327 125.468 134.114 125.18C133.911 124.892 133.644 124.663 133.314 124.492C132.994 124.321 132.615 124.236 132.178 124.236C131.719 124.236 131.33 124.327 131.01 124.508C130.69 124.689 130.428 124.929 130.226 125.228C130.023 125.516 129.874 125.847 129.778 126.22C129.692 126.593 129.65 126.972 129.65 127.356C129.65 127.761 129.698 128.156 129.794 128.54C129.89 128.913 130.039 129.244 130.242 129.532C130.455 129.82 130.727 130.055 131.058 130.236C131.388 130.407 131.788 130.492 132.258 130.492C132.727 130.492 133.116 130.401 133.426 130.22C133.746 130.039 134.002 129.799 134.194 129.5C134.386 129.201 134.524 128.86 134.61 128.476C134.695 128.092 134.738 127.697 134.738 127.292ZM137.854 120.076H139.214V131.5H137.854V120.076ZM147.065 126.572C147.044 126.252 146.969 125.948 146.841 125.66C146.724 125.372 146.558 125.127 146.345 124.924C146.142 124.711 145.897 124.545 145.609 124.428C145.332 124.3 145.022 124.236 144.681 124.236C144.329 124.236 144.009 124.3 143.721 124.428C143.444 124.545 143.204 124.711 143.001 124.924C142.798 125.137 142.638 125.388 142.521 125.676C142.404 125.953 142.334 126.252 142.313 126.572H147.065ZM148.377 128.876C148.196 129.804 147.796 130.503 147.177 130.972C146.558 131.441 145.78 131.676 144.841 131.676C144.18 131.676 143.604 131.569 143.113 131.356C142.633 131.143 142.228 130.844 141.897 130.46C141.566 130.076 141.316 129.617 141.145 129.084C140.985 128.551 140.894 127.969 140.873 127.34C140.873 126.711 140.969 126.135 141.161 125.612C141.353 125.089 141.62 124.636 141.961 124.252C142.313 123.868 142.724 123.569 143.193 123.356C143.673 123.143 144.196 123.036 144.761 123.036C145.497 123.036 146.105 123.191 146.585 123.5C147.076 123.799 147.465 124.183 147.753 124.652C148.052 125.121 148.254 125.633 148.361 126.188C148.478 126.743 148.526 127.271 148.505 127.772H142.313C142.302 128.135 142.345 128.481 142.441 128.812C142.537 129.132 142.692 129.42 142.905 129.676C143.118 129.921 143.39 130.119 143.721 130.268C144.052 130.417 144.441 130.492 144.889 130.492C145.465 130.492 145.934 130.359 146.297 130.092C146.67 129.825 146.916 129.42 147.033 128.876H148.377ZM150.907 127.436C150.907 127.82 150.955 128.199 151.051 128.572C151.157 128.935 151.312 129.26 151.515 129.548C151.728 129.836 151.995 130.065 152.315 130.236C152.645 130.407 153.029 130.492 153.467 130.492C153.925 130.492 154.315 130.401 154.635 130.22C154.955 130.039 155.216 129.804 155.419 129.516C155.621 129.217 155.765 128.881 155.851 128.508C155.947 128.135 155.995 127.756 155.995 127.372C155.995 126.967 155.947 126.577 155.851 126.204C155.755 125.82 155.6 125.484 155.387 125.196C155.184 124.908 154.917 124.679 154.587 124.508C154.256 124.327 153.856 124.236 153.387 124.236C152.928 124.236 152.539 124.327 152.219 124.508C151.899 124.689 151.643 124.929 151.451 125.228C151.259 125.527 151.12 125.868 151.035 126.252C150.949 126.636 150.907 127.031 150.907 127.436ZM157.307 131.5H155.947V130.38H155.915C155.691 130.839 155.339 131.169 154.859 131.372C154.379 131.575 153.851 131.676 153.275 131.676C152.635 131.676 152.075 131.559 151.595 131.324C151.125 131.089 150.731 130.775 150.411 130.38C150.101 129.985 149.867 129.527 149.707 129.004C149.547 128.481 149.467 127.927 149.467 127.34C149.467 126.753 149.541 126.199 149.691 125.676C149.851 125.153 150.085 124.7 150.395 124.316C150.715 123.921 151.109 123.612 151.579 123.388C152.059 123.153 152.613 123.036 153.243 123.036C153.456 123.036 153.685 123.057 153.931 123.1C154.176 123.143 154.421 123.217 154.667 123.324C154.912 123.42 155.141 123.553 155.355 123.724C155.579 123.884 155.765 124.087 155.915 124.332H155.947V120.076H157.307V131.5Z" fill="black" fill-opacity="0.68"/>
<mask id="path-2-inside-1_57321_91880" fill="white">
<path d="M292 116H312V136H292V116Z"/>
</mask>
<path d="M292 116V115H291V116H292ZM312 116H313V115H312V116ZM312 136V137H313V136H312ZM292 136H291V137H292V136ZM292 116V117H312V116V115H292V116ZM312 116H311V136H312H313V116H312ZM312 136V135H292V136V137H312V136ZM292 136H293V116H292H291V136H292Z" fill="black" mask="url(#path-2-inside-1_57321_91880)"/>
<path d="M325.248 120.576H326.768V130.72H332.816V132H325.248V120.576ZM341.443 131.968C341.208 132.107 340.883 132.176 340.467 132.176C340.115 132.176 339.832 132.08 339.619 131.888C339.416 131.685 339.315 131.36 339.315 130.912C338.941 131.36 338.504 131.685 338.003 131.888C337.512 132.08 336.979 132.176 336.403 132.176C336.029 132.176 335.672 132.133 335.331 132.048C335 131.963 334.712 131.829 334.467 131.648C334.221 131.467 334.024 131.232 333.875 130.944C333.736 130.645 333.667 130.288 333.667 129.872C333.667 129.403 333.747 129.019 333.907 128.72C334.067 128.421 334.275 128.181 334.531 128C334.797 127.808 335.096 127.664 335.427 127.568C335.768 127.472 336.115 127.392 336.467 127.328C336.84 127.253 337.192 127.2 337.523 127.168C337.864 127.125 338.163 127.072 338.419 127.008C338.675 126.933 338.877 126.832 339.027 126.704C339.176 126.565 339.251 126.368 339.251 126.112C339.251 125.813 339.192 125.573 339.075 125.392C338.968 125.211 338.824 125.072 338.643 124.976C338.472 124.88 338.275 124.816 338.051 124.784C337.837 124.752 337.624 124.736 337.411 124.736C336.835 124.736 336.355 124.848 335.971 125.072C335.587 125.285 335.379 125.696 335.347 126.304H333.987C334.008 125.792 334.115 125.36 334.307 125.008C334.499 124.656 334.755 124.373 335.075 124.16C335.395 123.936 335.757 123.776 336.163 123.68C336.579 123.584 337.021 123.536 337.491 123.536C337.864 123.536 338.232 123.563 338.595 123.616C338.968 123.669 339.304 123.781 339.603 123.952C339.901 124.112 340.141 124.341 340.323 124.64C340.504 124.939 340.595 125.328 340.595 125.808V130.064C340.595 130.384 340.611 130.619 340.643 130.768C340.685 130.917 340.813 130.992 341.027 130.992C341.144 130.992 341.283 130.965 341.443 130.912V131.968ZM339.235 127.728C339.064 127.856 338.84 127.952 338.563 128.016C338.285 128.069 337.992 128.117 337.683 128.16C337.384 128.192 337.08 128.235 336.771 128.288C336.461 128.331 336.184 128.405 335.939 128.512C335.693 128.619 335.491 128.773 335.331 128.976C335.181 129.168 335.107 129.435 335.107 129.776C335.107 130 335.149 130.192 335.235 130.352C335.331 130.501 335.448 130.624 335.587 130.72C335.736 130.816 335.907 130.885 336.099 130.928C336.291 130.971 336.493 130.992 336.707 130.992C337.155 130.992 337.539 130.933 337.859 130.816C338.179 130.688 338.44 130.533 338.643 130.352C338.845 130.16 338.995 129.957 339.091 129.744C339.187 129.52 339.235 129.312 339.235 129.12V127.728ZM342.956 120.576H344.316V124.848H344.348C344.572 124.389 344.924 124.059 345.404 123.856C345.884 123.643 346.412 123.536 346.988 123.536C347.628 123.536 348.183 123.653 348.652 123.888C349.132 124.123 349.527 124.443 349.836 124.848C350.156 125.243 350.396 125.701 350.556 126.224C350.716 126.747 350.796 127.301 350.796 127.888C350.796 128.475 350.716 129.029 350.556 129.552C350.407 130.075 350.172 130.533 349.852 130.928C349.543 131.312 349.148 131.616 348.668 131.84C348.199 132.064 347.65 132.176 347.02 132.176C346.818 132.176 346.588 132.155 346.332 132.112C346.087 132.069 345.842 132 345.596 131.904C345.351 131.808 345.116 131.68 344.892 131.52C344.679 131.349 344.498 131.141 344.348 130.896H344.316V132H342.956V120.576ZM349.356 127.792C349.356 127.408 349.303 127.035 349.196 126.672C349.1 126.299 348.946 125.968 348.732 125.68C348.53 125.392 348.263 125.163 347.932 124.992C347.612 124.821 347.234 124.736 346.796 124.736C346.338 124.736 345.948 124.827 345.628 125.008C345.308 125.189 345.047 125.429 344.844 125.728C344.642 126.016 344.492 126.347 344.396 126.72C344.311 127.093 344.268 127.472 344.268 127.856C344.268 128.261 344.316 128.656 344.412 129.04C344.508 129.413 344.658 129.744 344.86 130.032C345.074 130.32 345.346 130.555 345.676 130.736C346.007 130.907 346.407 130.992 346.876 130.992C347.346 130.992 347.735 130.901 348.044 130.72C348.364 130.539 348.62 130.299 348.812 130C349.004 129.701 349.143 129.36 349.228 128.976C349.314 128.592 349.356 128.197 349.356 127.792ZM358.337 127.072C358.315 126.752 358.241 126.448 358.113 126.16C357.995 125.872 357.83 125.627 357.617 125.424C357.414 125.211 357.169 125.045 356.881 124.928C356.603 124.8 356.294 124.736 355.953 124.736C355.601 124.736 355.281 124.8 354.993 124.928C354.715 125.045 354.475 125.211 354.273 125.424C354.07 125.637 353.91 125.888 353.793 126.176C353.675 126.453 353.606 126.752 353.585 127.072H358.337ZM359.649 129.376C359.467 130.304 359.067 131.003 358.449 131.472C357.83 131.941 357.051 132.176 356.113 132.176C355.451 132.176 354.875 132.069 354.385 131.856C353.905 131.643 353.499 131.344 353.169 130.96C352.838 130.576 352.587 130.117 352.417 129.584C352.257 129.051 352.166 128.469 352.145 127.84C352.145 127.211 352.241 126.635 352.433 126.112C352.625 125.589 352.891 125.136 353.233 124.752C353.585 124.368 353.995 124.069 354.465 123.856C354.945 123.643 355.467 123.536 356.033 123.536C356.769 123.536 357.377 123.691 357.857 124C358.347 124.299 358.737 124.683 359.025 125.152C359.323 125.621 359.526 126.133 359.633 126.688C359.75 127.243 359.798 127.771 359.777 128.272H353.585C353.574 128.635 353.617 128.981 353.713 129.312C353.809 129.632 353.963 129.92 354.177 130.176C354.39 130.421 354.662 130.619 354.993 130.768C355.323 130.917 355.713 130.992 356.161 130.992C356.737 130.992 357.206 130.859 357.569 130.592C357.942 130.325 358.187 129.92 358.305 129.376H359.649ZM361.466 120.576H362.826V132H361.466V120.576Z" fill="black"/>
<path d="M101.248 222.076H102.768V226.988H108.784V222.076H110.304V233.5H108.784V228.268H102.768V233.5H101.248V222.076ZM113.563 229.372C113.563 229.873 113.627 230.321 113.755 230.716C113.894 231.1 114.08 231.425 114.315 231.692C114.55 231.948 114.822 232.145 115.131 232.284C115.451 232.423 115.787 232.492 116.139 232.492C116.491 232.492 116.822 232.423 117.131 232.284C117.451 232.145 117.728 231.948 117.963 231.692C118.198 231.425 118.379 231.1 118.507 230.716C118.646 230.321 118.715 229.873 118.715 229.372C118.715 228.871 118.646 228.428 118.507 228.044C118.379 227.649 118.198 227.319 117.963 227.052C117.728 226.785 117.451 226.583 117.131 226.444C116.822 226.305 116.491 226.236 116.139 226.236C115.787 226.236 115.451 226.305 115.131 226.444C114.822 226.583 114.55 226.785 114.315 227.052C114.08 227.319 113.894 227.649 113.755 228.044C113.627 228.428 113.563 228.871 113.563 229.372ZM112.123 229.372C112.123 228.764 112.208 228.199 112.379 227.676C112.55 227.143 112.806 226.684 113.147 226.3C113.488 225.905 113.91 225.596 114.411 225.372C114.912 225.148 115.488 225.036 116.139 225.036C116.8 225.036 117.376 225.148 117.867 225.372C118.368 225.596 118.79 225.905 119.131 226.3C119.472 226.684 119.728 227.143 119.899 227.676C120.07 228.199 120.155 228.764 120.155 229.372C120.155 229.98 120.07 230.545 119.899 231.068C119.728 231.591 119.472 232.049 119.131 232.444C118.79 232.828 118.368 233.132 117.867 233.356C117.376 233.569 116.8 233.676 116.139 233.676C115.488 233.676 114.912 233.569 114.411 233.356C113.91 233.132 113.488 232.828 113.147 232.444C112.806 232.049 112.55 231.591 112.379 231.068C112.208 230.545 112.123 229.98 112.123 229.372ZM125.486 233.5H124.03L120.958 225.228H122.478L124.798 232.124H124.83L127.086 225.228H128.51L125.486 233.5ZM135.502 228.572C135.481 228.252 135.406 227.948 135.278 227.66C135.161 227.372 134.996 227.127 134.782 226.924C134.58 226.711 134.334 226.545 134.046 226.428C133.769 226.3 133.46 226.236 133.118 226.236C132.766 226.236 132.446 226.3 132.158 226.428C131.881 226.545 131.641 226.711 131.438 226.924C131.236 227.137 131.076 227.388 130.958 227.676C130.841 227.953 130.772 228.252 130.75 228.572H135.502ZM136.814 230.876C136.633 231.804 136.233 232.503 135.614 232.972C134.996 233.441 134.217 233.676 133.278 233.676C132.617 233.676 132.041 233.569 131.55 233.356C131.07 233.143 130.665 232.844 130.334 232.46C130.004 232.076 129.753 231.617 129.582 231.084C129.422 230.551 129.332 229.969 129.31 229.34C129.31 228.711 129.406 228.135 129.598 227.612C129.79 227.089 130.057 226.636 130.398 226.252C130.75 225.868 131.161 225.569 131.63 225.356C132.11 225.143 132.633 225.036 133.198 225.036C133.934 225.036 134.542 225.191 135.022 225.5C135.513 225.799 135.902 226.183 136.19 226.652C136.489 227.121 136.692 227.633 136.798 228.188C136.916 228.743 136.964 229.271 136.942 229.772H130.75C130.74 230.135 130.782 230.481 130.878 230.812C130.974 231.132 131.129 231.42 131.342 231.676C131.556 231.921 131.828 232.119 132.158 232.268C132.489 232.417 132.878 232.492 133.326 232.492C133.902 232.492 134.372 232.359 134.734 232.092C135.108 231.825 135.353 231.42 135.47 230.876H136.814ZM138.304 225.228H139.584V226.972H139.616C139.947 226.3 140.352 225.804 140.832 225.484C141.312 225.164 141.92 225.015 142.656 225.036V226.476C142.112 226.476 141.648 226.551 141.264 226.7C140.88 226.849 140.571 227.068 140.336 227.356C140.101 227.644 139.931 227.996 139.824 228.412C139.717 228.817 139.664 229.287 139.664 229.82V233.5H138.304V225.228Z" fill="black" fill-opacity="0.68"/>
<rect width="224" height="52" transform="translate(276 202)" fill="black" fill-opacity="0.08"/>
<mask id="path-6-inside-2_57321_91880" fill="white">
<path d="M292 218H312V238H292V218Z"/>
</mask>
<path d="M292 218V216H290V218H292ZM312 218H314V216H312V218ZM312 238V240H314V238H312ZM292 238H290V240H292V238ZM292 218V220H312V218V216H292V218ZM312 218H310V238H312H314V218H312ZM312 238V236H292V238V240H312V238ZM292 238H294V218H292H290V238H292Z" fill="black" fill-opacity="0.68" mask="url(#path-6-inside-2_57321_91880)"/>
<path d="M325.248 222.576H326.768V232.72H332.816V234H325.248V222.576ZM341.443 233.968C341.208 234.107 340.883 234.176 340.467 234.176C340.115 234.176 339.832 234.08 339.619 233.888C339.416 233.685 339.315 233.36 339.315 232.912C338.941 233.36 338.504 233.685 338.003 233.888C337.512 234.08 336.979 234.176 336.403 234.176C336.029 234.176 335.672 234.133 335.331 234.048C335 233.963 334.712 233.829 334.467 233.648C334.221 233.467 334.024 233.232 333.875 232.944C333.736 232.645 333.667 232.288 333.667 231.872C333.667 231.403 333.747 231.019 333.907 230.72C334.067 230.421 334.275 230.181 334.531 230C334.797 229.808 335.096 229.664 335.427 229.568C335.768 229.472 336.115 229.392 336.467 229.328C336.84 229.253 337.192 229.2 337.523 229.168C337.864 229.125 338.163 229.072 338.419 229.008C338.675 228.933 338.877 228.832 339.027 228.704C339.176 228.565 339.251 228.368 339.251 228.112C339.251 227.813 339.192 227.573 339.075 227.392C338.968 227.211 338.824 227.072 338.643 226.976C338.472 226.88 338.275 226.816 338.051 226.784C337.837 226.752 337.624 226.736 337.411 226.736C336.835 226.736 336.355 226.848 335.971 227.072C335.587 227.285 335.379 227.696 335.347 228.304H333.987C334.008 227.792 334.115 227.36 334.307 227.008C334.499 226.656 334.755 226.373 335.075 226.16C335.395 225.936 335.757 225.776 336.163 225.68C336.579 225.584 337.021 225.536 337.491 225.536C337.864 225.536 338.232 225.563 338.595 225.616C338.968 225.669 339.304 225.781 339.603 225.952C339.901 226.112 340.141 226.341 340.323 226.64C340.504 226.939 340.595 227.328 340.595 227.808V232.064C340.595 232.384 340.611 232.619 340.643 232.768C340.685 232.917 340.813 232.992 341.027 232.992C341.144 232.992 341.283 232.965 341.443 232.912V233.968ZM339.235 229.728C339.064 229.856 338.84 229.952 338.563 230.016C338.285 230.069 337.992 230.117 337.683 230.16C337.384 230.192 337.08 230.235 336.771 230.288C336.461 230.331 336.184 230.405 335.939 230.512C335.693 230.619 335.491 230.773 335.331 230.976C335.181 231.168 335.107 231.435 335.107 231.776C335.107 232 335.149 232.192 335.235 232.352C335.331 232.501 335.448 232.624 335.587 232.72C335.736 232.816 335.907 232.885 336.099 232.928C336.291 232.971 336.493 232.992 336.707 232.992C337.155 232.992 337.539 232.933 337.859 232.816C338.179 232.688 338.44 232.533 338.643 232.352C338.845 232.16 338.995 231.957 339.091 231.744C339.187 231.52 339.235 231.312 339.235 231.12V229.728ZM342.956 222.576H344.316V226.848H344.348C344.572 226.389 344.924 226.059 345.404 225.856C345.884 225.643 346.412 225.536 346.988 225.536C347.628 225.536 348.183 225.653 348.652 225.888C349.132 226.123 349.527 226.443 349.836 226.848C350.156 227.243 350.396 227.701 350.556 228.224C350.716 228.747 350.796 229.301 350.796 229.888C350.796 230.475 350.716 231.029 350.556 231.552C350.407 232.075 350.172 232.533 349.852 232.928C349.543 233.312 349.148 233.616 348.668 233.84C348.199 234.064 347.65 234.176 347.02 234.176C346.818 234.176 346.588 234.155 346.332 234.112C346.087 234.069 345.842 234 345.596 233.904C345.351 233.808 345.116 233.68 344.892 233.52C344.679 233.349 344.498 233.141 344.348 232.896H344.316V234H342.956V222.576ZM349.356 229.792C349.356 229.408 349.303 229.035 349.196 228.672C349.1 228.299 348.946 227.968 348.732 227.68C348.53 227.392 348.263 227.163 347.932 226.992C347.612 226.821 347.234 226.736 346.796 226.736C346.338 226.736 345.948 226.827 345.628 227.008C345.308 227.189 345.047 227.429 344.844 227.728C344.642 228.016 344.492 228.347 344.396 228.72C344.311 229.093 344.268 229.472 344.268 229.856C344.268 230.261 344.316 230.656 344.412 231.04C344.508 231.413 344.658 231.744 344.86 232.032C345.074 232.32 345.346 232.555 345.676 232.736C346.007 232.907 346.407 232.992 346.876 232.992C347.346 232.992 347.735 232.901 348.044 232.72C348.364 232.539 348.62 232.299 348.812 232C349.004 231.701 349.143 231.36 349.228 230.976C349.314 230.592 349.356 230.197 349.356 229.792ZM358.337 229.072C358.315 228.752 358.241 228.448 358.113 228.16C357.995 227.872 357.83 227.627 357.617 227.424C357.414 227.211 357.169 227.045 356.881 226.928C356.603 226.8 356.294 226.736 355.953 226.736C355.601 226.736 355.281 226.8 354.993 226.928C354.715 227.045 354.475 227.211 354.273 227.424C354.07 227.637 353.91 227.888 353.793 228.176C353.675 228.453 353.606 228.752 353.585 229.072H358.337ZM359.649 231.376C359.467 232.304 359.067 233.003 358.449 233.472C357.83 233.941 357.051 234.176 356.113 234.176C355.451 234.176 354.875 234.069 354.385 233.856C353.905 233.643 353.499 233.344 353.169 232.96C352.838 232.576 352.587 232.117 352.417 231.584C352.257 231.051 352.166 230.469 352.145 229.84C352.145 229.211 352.241 228.635 352.433 228.112C352.625 227.589 352.891 227.136 353.233 226.752C353.585 226.368 353.995 226.069 354.465 225.856C354.945 225.643 355.467 225.536 356.033 225.536C356.769 225.536 357.377 225.691 357.857 226C358.347 226.299 358.737 226.683 359.025 227.152C359.323 227.621 359.526 228.133 359.633 228.688C359.75 229.243 359.798 229.771 359.777 230.272H353.585C353.574 230.635 353.617 230.981 353.713 231.312C353.809 231.632 353.963 231.92 354.177 232.176C354.39 232.421 354.662 232.619 354.993 232.768C355.323 232.917 355.713 232.992 356.161 232.992C356.737 232.992 357.206 232.859 357.569 232.592C357.942 232.325 358.187 231.92 358.305 231.376H359.649ZM361.466 222.576H362.826V234H361.466V222.576Z" fill="black"/>
<path d="M101.248 324.076H108.752V325.356H102.768V328.988H108.016V330.268H102.768V335.5H101.248V324.076ZM111.204 331.372C111.204 331.873 111.268 332.321 111.396 332.716C111.534 333.1 111.721 333.425 111.956 333.692C112.19 333.948 112.462 334.145 112.772 334.284C113.092 334.423 113.428 334.492 113.78 334.492C114.132 334.492 114.462 334.423 114.772 334.284C115.092 334.145 115.369 333.948 115.604 333.692C115.838 333.425 116.02 333.1 116.148 332.716C116.286 332.321 116.356 331.873 116.356 331.372C116.356 330.871 116.286 330.428 116.148 330.044C116.02 329.649 115.838 329.319 115.604 329.052C115.369 328.785 115.092 328.583 114.772 328.444C114.462 328.305 114.132 328.236 113.78 328.236C113.428 328.236 113.092 328.305 112.772 328.444C112.462 328.583 112.19 328.785 111.956 329.052C111.721 329.319 111.534 329.649 111.396 330.044C111.268 330.428 111.204 330.871 111.204 331.372ZM109.764 331.372C109.764 330.764 109.849 330.199 110.02 329.676C110.19 329.143 110.446 328.684 110.788 328.3C111.129 327.905 111.55 327.596 112.052 327.372C112.553 327.148 113.129 327.036 113.78 327.036C114.441 327.036 115.017 327.148 115.508 327.372C116.009 327.596 116.43 327.905 116.772 328.3C117.113 328.684 117.369 329.143 117.54 329.676C117.71 330.199 117.796 330.764 117.796 331.372C117.796 331.98 117.71 332.545 117.54 333.068C117.369 333.591 117.113 334.049 116.772 334.444C116.43 334.828 116.009 335.132 115.508 335.356C115.017 335.569 114.441 335.676 113.78 335.676C113.129 335.676 112.553 335.569 112.052 335.356C111.55 335.132 111.129 334.828 110.788 334.444C110.446 334.049 110.19 333.591 110.02 333.068C109.849 332.545 109.764 331.98 109.764 331.372ZM125.015 329.884C124.908 329.361 124.684 328.956 124.343 328.668C124.002 328.38 123.543 328.236 122.967 328.236C122.476 328.236 122.066 328.327 121.735 328.508C121.404 328.689 121.138 328.929 120.935 329.228C120.743 329.527 120.604 329.873 120.519 330.268C120.434 330.652 120.391 331.052 120.391 331.468C120.391 331.852 120.434 332.225 120.519 332.588C120.615 332.951 120.759 333.276 120.951 333.564C121.143 333.841 121.394 334.065 121.703 334.236C122.012 334.407 122.38 334.492 122.807 334.492C123.479 334.492 124.002 334.316 124.375 333.964C124.759 333.612 124.994 333.116 125.079 332.476H126.471C126.322 333.5 125.938 334.289 125.319 334.844C124.711 335.399 123.879 335.676 122.823 335.676C122.194 335.676 121.634 335.575 121.143 335.372C120.663 335.169 120.258 334.881 119.927 334.508C119.607 334.135 119.362 333.692 119.191 333.18C119.031 332.657 118.951 332.087 118.951 331.468C118.951 330.849 119.031 330.273 119.191 329.74C119.351 329.196 119.591 328.727 119.911 328.332C120.242 327.927 120.652 327.612 121.143 327.388C121.634 327.153 122.204 327.036 122.855 327.036C123.324 327.036 123.762 327.095 124.167 327.212C124.583 327.319 124.946 327.489 125.255 327.724C125.575 327.959 125.836 328.257 126.039 328.62C126.242 328.972 126.37 329.393 126.423 329.884H125.015ZM134.841 335.5H133.561V334.188H133.529C133.241 334.7 132.873 335.079 132.425 335.324C131.977 335.559 131.449 335.676 130.841 335.676C130.297 335.676 129.843 335.607 129.481 335.468C129.118 335.319 128.825 335.111 128.601 334.844C128.377 334.577 128.217 334.263 128.121 333.9C128.035 333.527 127.993 333.116 127.993 332.668V327.228H129.353V332.828C129.353 333.34 129.502 333.745 129.801 334.044C130.099 334.343 130.51 334.492 131.033 334.492C131.449 334.492 131.806 334.428 132.105 334.3C132.414 334.172 132.67 333.991 132.873 333.756C133.075 333.521 133.225 333.249 133.321 332.94C133.427 332.62 133.481 332.273 133.481 331.9V327.228H134.841V335.5ZM137.715 332.892C137.726 333.191 137.795 333.447 137.923 333.66C138.051 333.863 138.217 334.028 138.419 334.156C138.633 334.273 138.867 334.359 139.123 334.412C139.39 334.465 139.662 334.492 139.939 334.492C140.153 334.492 140.377 334.476 140.611 334.444C140.846 334.412 141.059 334.353 141.251 334.268C141.454 334.183 141.619 334.06 141.747 333.9C141.875 333.729 141.939 333.516 141.939 333.26C141.939 332.908 141.806 332.641 141.539 332.46C141.273 332.279 140.937 332.135 140.531 332.028C140.137 331.911 139.705 331.809 139.235 331.724C138.766 331.628 138.329 331.5 137.923 331.34C137.529 331.169 137.198 330.935 136.931 330.636C136.665 330.337 136.531 329.921 136.531 329.388C136.531 328.972 136.622 328.615 136.803 328.316C136.995 328.017 137.235 327.777 137.523 327.596C137.822 327.404 138.153 327.265 138.515 327.18C138.889 327.084 139.257 327.036 139.619 327.036C140.089 327.036 140.521 327.079 140.915 327.164C141.31 327.239 141.657 327.377 141.955 327.58C142.265 327.772 142.51 328.039 142.691 328.38C142.873 328.711 142.979 329.127 143.011 329.628H141.651C141.63 329.361 141.561 329.143 141.443 328.972C141.326 328.791 141.177 328.647 140.995 328.54C140.814 328.433 140.611 328.359 140.387 328.316C140.174 328.263 139.955 328.236 139.731 328.236C139.529 328.236 139.321 328.252 139.107 328.284C138.905 328.316 138.718 328.375 138.547 328.46C138.377 328.535 138.238 328.641 138.131 328.78C138.025 328.908 137.971 329.079 137.971 329.292C137.971 329.527 138.051 329.724 138.211 329.884C138.382 330.033 138.595 330.161 138.851 330.268C139.107 330.364 139.395 330.449 139.715 330.524C140.035 330.588 140.355 330.657 140.675 330.732C141.017 330.807 141.347 330.897 141.667 331.004C141.998 331.111 142.286 331.255 142.531 331.436C142.787 331.607 142.99 331.825 143.139 332.092C143.299 332.359 143.379 332.689 143.379 333.084C143.379 333.585 143.273 334.001 143.059 334.332C142.857 334.663 142.585 334.929 142.243 335.132C141.913 335.335 141.534 335.473 141.107 335.548C140.691 335.633 140.275 335.676 139.859 335.676C139.401 335.676 138.963 335.628 138.547 335.532C138.131 335.436 137.763 335.281 137.443 335.068C137.123 334.844 136.867 334.556 136.675 334.204C136.483 333.841 136.377 333.404 136.355 332.892H137.715Z" fill="black" fill-opacity="0.68"/>
<mask id="path-10-outside-3_57321_91880" maskUnits="userSpaceOnUse" x="271" y="299" width="234" height="62" fill="black">
<rect fill="white" x="271" y="299" width="234" height="62"/>
<path d="M276 304H500V356H276V304Z"/>
</mask>
<path d="M276 304V299H271V304H276ZM500 304H505V299H500V304ZM500 356V361H505V356H500ZM276 356H271V361H276V356ZM276 304V309H500V304V299H276V304ZM500 304H495V356H500H505V304H500ZM500 356V351H276V356V361H500V356ZM276 356H281V304H276H271V356H276Z" fill="black" mask="url(#path-10-outside-3_57321_91880)"/>
<mask id="path-12-outside-4_57321_91880" maskUnits="userSpaceOnUse" x="274" y="302" width="228" height="56" fill="black">
<rect fill="white" x="274" y="302" width="228" height="56"/>
<path d="M276 304H500V356H276V304Z"/>
</mask>
<path d="M276 304H500V356H276V304Z" fill="black" fill-opacity="0.08"/>
<path d="M276 304V302H274V304H276ZM500 304H502V302H500V304ZM500 356V358H502V356H500ZM276 356H274V358H276V356ZM276 304V306H500V304V302H276V304ZM500 304H498V356H500H502V304H500ZM500 356V354H276V356V358H500V356ZM276 356H278V304H276H274V356H276Z" fill="white" mask="url(#path-12-outside-4_57321_91880)"/>
<mask id="path-14-inside-5_57321_91880" fill="white">
<path d="M292 320H312V340H292V320Z"/>
</mask>
<path d="M292 320V318H290V320H292ZM312 320H314V318H312V320ZM312 340V342H314V340H312ZM292 340H290V342H292V340ZM292 320V322H312V320V318H292V320ZM312 320H310V340H312H314V320H312ZM312 340V338H292V340V342H312V340ZM292 340H294V320H292H290V340H292Z" fill="black" fill-opacity="0.68" mask="url(#path-14-inside-5_57321_91880)"/>
<path d="M325.248 324.576H326.768V334.72H332.816V336H325.248V324.576ZM341.443 335.968C341.208 336.107 340.883 336.176 340.467 336.176C340.115 336.176 339.832 336.08 339.619 335.888C339.416 335.685 339.315 335.36 339.315 334.912C338.941 335.36 338.504 335.685 338.003 335.888C337.512 336.08 336.979 336.176 336.403 336.176C336.029 336.176 335.672 336.133 335.331 336.048C335 335.963 334.712 335.829 334.467 335.648C334.221 335.467 334.024 335.232 333.875 334.944C333.736 334.645 333.667 334.288 333.667 333.872C333.667 333.403 333.747 333.019 333.907 332.72C334.067 332.421 334.275 332.181 334.531 332C334.797 331.808 335.096 331.664 335.427 331.568C335.768 331.472 336.115 331.392 336.467 331.328C336.84 331.253 337.192 331.2 337.523 331.168C337.864 331.125 338.163 331.072 338.419 331.008C338.675 330.933 338.877 330.832 339.027 330.704C339.176 330.565 339.251 330.368 339.251 330.112C339.251 329.813 339.192 329.573 339.075 329.392C338.968 329.211 338.824 329.072 338.643 328.976C338.472 328.88 338.275 328.816 338.051 328.784C337.837 328.752 337.624 328.736 337.411 328.736C336.835 328.736 336.355 328.848 335.971 329.072C335.587 329.285 335.379 329.696 335.347 330.304H333.987C334.008 329.792 334.115 329.36 334.307 329.008C334.499 328.656 334.755 328.373 335.075 328.16C335.395 327.936 335.757 327.776 336.163 327.68C336.579 327.584 337.021 327.536 337.491 327.536C337.864 327.536 338.232 327.563 338.595 327.616C338.968 327.669 339.304 327.781 339.603 327.952C339.901 328.112 340.141 328.341 340.323 328.64C340.504 328.939 340.595 329.328 340.595 329.808V334.064C340.595 334.384 340.611 334.619 340.643 334.768C340.685 334.917 340.813 334.992 341.027 334.992C341.144 334.992 341.283 334.965 341.443 334.912V335.968ZM339.235 331.728C339.064 331.856 338.84 331.952 338.563 332.016C338.285 332.069 337.992 332.117 337.683 332.16C337.384 332.192 337.08 332.235 336.771 332.288C336.461 332.331 336.184 332.405 335.939 332.512C335.693 332.619 335.491 332.773 335.331 332.976C335.181 333.168 335.107 333.435 335.107 333.776C335.107 334 335.149 334.192 335.235 334.352C335.331 334.501 335.448 334.624 335.587 334.72C335.736 334.816 335.907 334.885 336.099 334.928C336.291 334.971 336.493 334.992 336.707 334.992C337.155 334.992 337.539 334.933 337.859 334.816C338.179 334.688 338.44 334.533 338.643 334.352C338.845 334.16 338.995 333.957 339.091 333.744C339.187 333.52 339.235 333.312 339.235 333.12V331.728ZM342.956 324.576H344.316V328.848H344.348C344.572 328.389 344.924 328.059 345.404 327.856C345.884 327.643 346.412 327.536 346.988 327.536C347.628 327.536 348.183 327.653 348.652 327.888C349.132 328.123 349.527 328.443 349.836 328.848C350.156 329.243 350.396 329.701 350.556 330.224C350.716 330.747 350.796 331.301 350.796 331.888C350.796 332.475 350.716 333.029 350.556 333.552C350.407 334.075 350.172 334.533 349.852 334.928C349.543 335.312 349.148 335.616 348.668 335.84C348.199 336.064 347.65 336.176 347.02 336.176C346.818 336.176 346.588 336.155 346.332 336.112C346.087 336.069 345.842 336 345.596 335.904C345.351 335.808 345.116 335.68 344.892 335.52C344.679 335.349 344.498 335.141 344.348 334.896H344.316V336H342.956V324.576ZM349.356 331.792C349.356 331.408 349.303 331.035 349.196 330.672C349.1 330.299 348.946 329.968 348.732 329.68C348.53 329.392 348.263 329.163 347.932 328.992C347.612 328.821 347.234 328.736 346.796 328.736C346.338 328.736 345.948 328.827 345.628 329.008C345.308 329.189 345.047 329.429 344.844 329.728C344.642 330.016 344.492 330.347 344.396 330.72C344.311 331.093 344.268 331.472 344.268 331.856C344.268 332.261 344.316 332.656 344.412 333.04C344.508 333.413 344.658 333.744 344.86 334.032C345.074 334.32 345.346 334.555 345.676 334.736C346.007 334.907 346.407 334.992 346.876 334.992C347.346 334.992 347.735 334.901 348.044 334.72C348.364 334.539 348.62 334.299 348.812 334C349.004 333.701 349.143 333.36 349.228 332.976C349.314 332.592 349.356 332.197 349.356 331.792ZM358.337 331.072C358.315 330.752 358.241 330.448 358.113 330.16C357.995 329.872 357.83 329.627 357.617 329.424C357.414 329.211 357.169 329.045 356.881 328.928C356.603 328.8 356.294 328.736 355.953 328.736C355.601 328.736 355.281 328.8 354.993 328.928C354.715 329.045 354.475 329.211 354.273 329.424C354.07 329.637 353.91 329.888 353.793 330.176C353.675 330.453 353.606 330.752 353.585 331.072H358.337ZM359.649 333.376C359.467 334.304 359.067 335.003 358.449 335.472C357.83 335.941 357.051 336.176 356.113 336.176C355.451 336.176 354.875 336.069 354.385 335.856C353.905 335.643 353.499 335.344 353.169 334.96C352.838 334.576 352.587 334.117 352.417 333.584C352.257 333.051 352.166 332.469 352.145 331.84C352.145 331.211 352.241 330.635 352.433 330.112C352.625 329.589 352.891 329.136 353.233 328.752C353.585 328.368 353.995 328.069 354.465 327.856C354.945 327.643 355.467 327.536 356.033 327.536C356.769 327.536 357.377 327.691 357.857 328C358.347 328.299 358.737 328.683 359.025 329.152C359.323 329.621 359.526 330.133 359.633 330.688C359.75 331.243 359.798 331.771 359.777 332.272H353.585C353.574 332.635 353.617 332.981 353.713 333.312C353.809 333.632 353.963 333.92 354.177 334.176C354.39 334.421 354.662 334.619 354.993 334.768C355.323 334.917 355.713 334.992 356.161 334.992C356.737 334.992 357.206 334.859 357.569 334.592C357.942 334.325 358.187 333.92 358.305 333.376H359.649ZM361.466 324.576H362.826V336H361.466V324.576Z" fill="black"/>
<path d="M102.768 431.548H105.744C106.608 431.559 107.237 431.383 107.632 431.02C108.037 430.657 108.24 430.135 108.24 429.452C108.24 428.769 108.037 428.252 107.632 427.9C107.237 427.537 106.608 427.356 105.744 427.356H102.768V431.548ZM101.248 426.076H106.256C107.408 426.076 108.277 426.375 108.864 426.972C109.461 427.559 109.76 428.385 109.76 429.452C109.76 430.519 109.461 431.351 108.864 431.948C108.277 432.545 107.408 432.839 106.256 432.828H102.768V437.5H101.248V426.076ZM111.351 429.228H112.631V430.972H112.663C112.994 430.3 113.399 429.804 113.879 429.484C114.359 429.164 114.967 429.015 115.703 429.036V430.476C115.159 430.476 114.695 430.551 114.311 430.7C113.927 430.849 113.618 431.068 113.383 431.356C113.148 431.644 112.978 431.996 112.871 432.412C112.764 432.817 112.711 433.287 112.711 433.82V437.5H111.351V429.228ZM122.19 432.572C122.169 432.252 122.094 431.948 121.966 431.66C121.849 431.372 121.683 431.127 121.47 430.924C121.267 430.711 121.022 430.545 120.734 430.428C120.457 430.3 120.147 430.236 119.806 430.236C119.454 430.236 119.134 430.3 118.846 430.428C118.569 430.545 118.329 430.711 118.126 430.924C117.923 431.137 117.763 431.388 117.646 431.676C117.529 431.953 117.459 432.252 117.438 432.572H122.19ZM123.502 434.876C123.321 435.804 122.921 436.503 122.302 436.972C121.683 437.441 120.905 437.676 119.966 437.676C119.305 437.676 118.729 437.569 118.238 437.356C117.758 437.143 117.353 436.844 117.022 436.46C116.691 436.076 116.441 435.617 116.27 435.084C116.11 434.551 116.019 433.969 115.998 433.34C115.998 432.711 116.094 432.135 116.286 431.612C116.478 431.089 116.745 430.636 117.086 430.252C117.438 429.868 117.849 429.569 118.318 429.356C118.798 429.143 119.321 429.036 119.886 429.036C120.622 429.036 121.23 429.191 121.71 429.5C122.201 429.799 122.59 430.183 122.878 430.652C123.177 431.121 123.379 431.633 123.486 432.188C123.603 432.743 123.651 433.271 123.63 433.772H117.438C117.427 434.135 117.47 434.481 117.566 434.812C117.662 435.132 117.817 435.42 118.03 435.676C118.243 435.921 118.515 436.119 118.846 436.268C119.177 436.417 119.566 436.492 120.014 436.492C120.59 436.492 121.059 436.359 121.422 436.092C121.795 435.825 122.041 435.42 122.158 434.876H123.502ZM125.872 434.892C125.882 435.191 125.952 435.447 126.08 435.66C126.208 435.863 126.373 436.028 126.576 436.156C126.789 436.273 127.024 436.359 127.28 436.412C127.546 436.465 127.818 436.492 128.096 436.492C128.309 436.492 128.533 436.476 128.768 436.444C129.002 436.412 129.216 436.353 129.408 436.268C129.61 436.183 129.776 436.06 129.904 435.9C130.032 435.729 130.096 435.516 130.096 435.26C130.096 434.908 129.962 434.641 129.696 434.46C129.429 434.279 129.093 434.135 128.688 434.028C128.293 433.911 127.861 433.809 127.392 433.724C126.922 433.628 126.485 433.5 126.08 433.34C125.685 433.169 125.354 432.935 125.088 432.636C124.821 432.337 124.688 431.921 124.688 431.388C124.688 430.972 124.778 430.615 124.96 430.316C125.152 430.017 125.392 429.777 125.68 429.596C125.978 429.404 126.309 429.265 126.672 429.18C127.045 429.084 127.413 429.036 127.776 429.036C128.245 429.036 128.677 429.079 129.072 429.164C129.466 429.239 129.813 429.377 130.112 429.58C130.421 429.772 130.666 430.039 130.848 430.38C131.029 430.711 131.136 431.127 131.168 431.628H129.808C129.786 431.361 129.717 431.143 129.6 430.972C129.482 430.791 129.333 430.647 129.152 430.54C128.97 430.433 128.768 430.359 128.544 430.316C128.33 430.263 128.112 430.236 127.888 430.236C127.685 430.236 127.477 430.252 127.264 430.284C127.061 430.316 126.874 430.375 126.704 430.46C126.533 430.535 126.394 430.641 126.288 430.78C126.181 430.908 126.128 431.079 126.128 431.292C126.128 431.527 126.208 431.724 126.368 431.884C126.538 432.033 126.752 432.161 127.008 432.268C127.264 432.364 127.552 432.449 127.872 432.524C128.192 432.588 128.512 432.657 128.832 432.732C129.173 432.807 129.504 432.897 129.824 433.004C130.154 433.111 130.442 433.255 130.688 433.436C130.944 433.607 131.146 433.825 131.296 434.092C131.456 434.359 131.536 434.689 131.536 435.084C131.536 435.585 131.429 436.001 131.216 436.332C131.013 436.663 130.741 436.929 130.4 437.132C130.069 437.335 129.69 437.473 129.264 437.548C128.848 437.633 128.432 437.676 128.016 437.676C127.557 437.676 127.12 437.628 126.704 437.532C126.288 437.436 125.92 437.281 125.6 437.068C125.28 436.844 125.024 436.556 124.832 436.204C124.64 435.841 124.533 435.404 124.512 434.892H125.872ZM133.872 434.892C133.882 435.191 133.952 435.447 134.08 435.66C134.208 435.863 134.373 436.028 134.576 436.156C134.789 436.273 135.024 436.359 135.28 436.412C135.546 436.465 135.818 436.492 136.096 436.492C136.309 436.492 136.533 436.476 136.768 436.444C137.002 436.412 137.216 436.353 137.408 436.268C137.61 436.183 137.776 436.06 137.904 435.9C138.032 435.729 138.096 435.516 138.096 435.26C138.096 434.908 137.962 434.641 137.696 434.46C137.429 434.279 137.093 434.135 136.688 434.028C136.293 433.911 135.861 433.809 135.392 433.724C134.922 433.628 134.485 433.5 134.08 433.34C133.685 433.169 133.354 432.935 133.088 432.636C132.821 432.337 132.688 431.921 132.688 431.388C132.688 430.972 132.778 430.615 132.96 430.316C133.152 430.017 133.392 429.777 133.68 429.596C133.978 429.404 134.309 429.265 134.672 429.18C135.045 429.084 135.413 429.036 135.776 429.036C136.245 429.036 136.677 429.079 137.072 429.164C137.466 429.239 137.813 429.377 138.112 429.58C138.421 429.772 138.666 430.039 138.848 430.38C139.029 430.711 139.136 431.127 139.168 431.628H137.808C137.786 431.361 137.717 431.143 137.6 430.972C137.482 430.791 137.333 430.647 137.152 430.54C136.97 430.433 136.768 430.359 136.544 430.316C136.33 430.263 136.112 430.236 135.888 430.236C135.685 430.236 135.477 430.252 135.264 430.284C135.061 430.316 134.874 430.375 134.704 430.46C134.533 430.535 134.394 430.641 134.288 430.78C134.181 430.908 134.128 431.079 134.128 431.292C134.128 431.527 134.208 431.724 134.368 431.884C134.538 432.033 134.752 432.161 135.008 432.268C135.264 432.364 135.552 432.449 135.872 432.524C136.192 432.588 136.512 432.657 136.832 432.732C137.173 432.807 137.504 432.897 137.824 433.004C138.154 433.111 138.442 433.255 138.688 433.436C138.944 433.607 139.146 433.825 139.296 434.092C139.456 434.359 139.536 434.689 139.536 435.084C139.536 435.585 139.429 436.001 139.216 436.332C139.013 436.663 138.741 436.929 138.4 437.132C138.069 437.335 137.69 437.473 137.264 437.548C136.848 437.633 136.432 437.676 136.016 437.676C135.557 437.676 135.12 437.628 134.704 437.532C134.288 437.436 133.92 437.281 133.6 437.068C133.28 436.844 133.024 436.556 132.832 436.204C132.64 435.841 132.533 435.404 132.512 434.892H133.872ZM146.784 432.572C146.762 432.252 146.688 431.948 146.56 431.66C146.442 431.372 146.277 431.127 146.064 430.924C145.861 430.711 145.616 430.545 145.328 430.428C145.05 430.3 144.741 430.236 144.4 430.236C144.048 430.236 143.728 430.3 143.44 430.428C143.162 430.545 142.922 430.711 142.72 430.924C142.517 431.137 142.357 431.388 142.24 431.676C142.122 431.953 142.053 432.252 142.032 432.572H146.784ZM148.096 434.876C147.914 435.804 147.514 436.503 146.896 436.972C146.277 437.441 145.498 437.676 144.56 437.676C143.898 437.676 143.322 437.569 142.832 437.356C142.352 437.143 141.946 436.844 141.616 436.46C141.285 436.076 141.034 435.617 140.864 435.084C140.704 434.551 140.613 433.969 140.592 433.34C140.592 432.711 140.688 432.135 140.88 431.612C141.072 431.089 141.338 430.636 141.68 430.252C142.032 429.868 142.442 429.569 142.912 429.356C143.392 429.143 143.914 429.036 144.48 429.036C145.216 429.036 145.824 429.191 146.304 429.5C146.794 429.799 147.184 430.183 147.472 430.652C147.77 431.121 147.973 431.633 148.08 432.188C148.197 432.743 148.245 433.271 148.224 433.772H142.032C142.021 434.135 142.064 434.481 142.16 434.812C142.256 435.132 142.41 435.42 142.624 435.676C142.837 435.921 143.109 436.119 143.44 436.268C143.77 436.417 144.16 436.492 144.608 436.492C145.184 436.492 145.653 436.359 146.016 436.092C146.389 435.825 146.634 435.42 146.752 434.876H148.096ZM150.625 433.436C150.625 433.82 150.673 434.199 150.769 434.572C150.876 434.935 151.031 435.26 151.233 435.548C151.447 435.836 151.713 436.065 152.033 436.236C152.364 436.407 152.748 436.492 153.185 436.492C153.644 436.492 154.033 436.401 154.353 436.22C154.673 436.039 154.935 435.804 155.137 435.516C155.34 435.217 155.484 434.881 155.569 434.508C155.665 434.135 155.713 433.756 155.713 433.372C155.713 432.967 155.665 432.577 155.569 432.204C155.473 431.82 155.319 431.484 155.105 431.196C154.903 430.908 154.636 430.679 154.305 430.508C153.975 430.327 153.575 430.236 153.105 430.236C152.647 430.236 152.257 430.327 151.937 430.508C151.617 430.689 151.361 430.929 151.169 431.228C150.977 431.527 150.839 431.868 150.753 432.252C150.668 432.636 150.625 433.031 150.625 433.436ZM157.025 437.5H155.665V436.38H155.633C155.409 436.839 155.057 437.169 154.577 437.372C154.097 437.575 153.569 437.676 152.993 437.676C152.353 437.676 151.793 437.559 151.313 437.324C150.844 437.089 150.449 436.775 150.129 436.38C149.82 435.985 149.585 435.527 149.425 435.004C149.265 434.481 149.185 433.927 149.185 433.34C149.185 432.753 149.26 432.199 149.409 431.676C149.569 431.153 149.804 430.7 150.113 430.316C150.433 429.921 150.828 429.612 151.297 429.388C151.777 429.153 152.332 429.036 152.961 429.036C153.175 429.036 153.404 429.057 153.649 429.1C153.895 429.143 154.14 429.217 154.385 429.324C154.631 429.42 154.86 429.553 155.073 429.724C155.297 429.884 155.484 430.087 155.633 430.332H155.665V426.076H157.025V437.5Z" fill="black" fill-opacity="0.68"/>
<rect width="224" height="52" transform="translate(276 406)" fill="black" fill-opacity="0.12"/>
<mask id="path-18-inside-6_57321_91880" fill="white">
<path d="M292 422H312V442H292V422Z"/>
</mask>
<path d="M292 422V420H290V422H292ZM312 422H314V420H312V422ZM312 442V444H314V442H312ZM292 442H290V444H292V442ZM292 422V424H312V422V420H292V422ZM312 422H310V442H312H314V422H312ZM312 442V440H292V442V444H312V442ZM292 442H294V422H292H290V442H292Z" fill="#F15E00" mask="url(#path-18-inside-6_57321_91880)"/>
<path d="M325.248 426.576H326.768V436.72H332.816V438H325.248V426.576ZM341.443 437.968C341.208 438.107 340.883 438.176 340.467 438.176C340.115 438.176 339.832 438.08 339.619 437.888C339.416 437.685 339.315 437.36 339.315 436.912C338.941 437.36 338.504 437.685 338.003 437.888C337.512 438.08 336.979 438.176 336.403 438.176C336.029 438.176 335.672 438.133 335.331 438.048C335 437.963 334.712 437.829 334.467 437.648C334.221 437.467 334.024 437.232 333.875 436.944C333.736 436.645 333.667 436.288 333.667 435.872C333.667 435.403 333.747 435.019 333.907 434.72C334.067 434.421 334.275 434.181 334.531 434C334.797 433.808 335.096 433.664 335.427 433.568C335.768 433.472 336.115 433.392 336.467 433.328C336.84 433.253 337.192 433.2 337.523 433.168C337.864 433.125 338.163 433.072 338.419 433.008C338.675 432.933 338.877 432.832 339.027 432.704C339.176 432.565 339.251 432.368 339.251 432.112C339.251 431.813 339.192 431.573 339.075 431.392C338.968 431.211 338.824 431.072 338.643 430.976C338.472 430.88 338.275 430.816 338.051 430.784C337.837 430.752 337.624 430.736 337.411 430.736C336.835 430.736 336.355 430.848 335.971 431.072C335.587 431.285 335.379 431.696 335.347 432.304H333.987C334.008 431.792 334.115 431.36 334.307 431.008C334.499 430.656 334.755 430.373 335.075 430.16C335.395 429.936 335.757 429.776 336.163 429.68C336.579 429.584 337.021 429.536 337.491 429.536C337.864 429.536 338.232 429.563 338.595 429.616C338.968 429.669 339.304 429.781 339.603 429.952C339.901 430.112 340.141 430.341 340.323 430.64C340.504 430.939 340.595 431.328 340.595 431.808V436.064C340.595 436.384 340.611 436.619 340.643 436.768C340.685 436.917 340.813 436.992 341.027 436.992C341.144 436.992 341.283 436.965 341.443 436.912V437.968ZM339.235 433.728C339.064 433.856 338.84 433.952 338.563 434.016C338.285 434.069 337.992 434.117 337.683 434.16C337.384 434.192 337.08 434.235 336.771 434.288C336.461 434.331 336.184 434.405 335.939 434.512C335.693 434.619 335.491 434.773 335.331 434.976C335.181 435.168 335.107 435.435 335.107 435.776C335.107 436 335.149 436.192 335.235 436.352C335.331 436.501 335.448 436.624 335.587 436.72C335.736 436.816 335.907 436.885 336.099 436.928C336.291 436.971 336.493 436.992 336.707 436.992C337.155 436.992 337.539 436.933 337.859 436.816C338.179 436.688 338.44 436.533 338.643 436.352C338.845 436.16 338.995 435.957 339.091 435.744C339.187 435.52 339.235 435.312 339.235 435.12V433.728ZM342.956 426.576H344.316V430.848H344.348C344.572 430.389 344.924 430.059 345.404 429.856C345.884 429.643 346.412 429.536 346.988 429.536C347.628 429.536 348.183 429.653 348.652 429.888C349.132 430.123 349.527 430.443 349.836 430.848C350.156 431.243 350.396 431.701 350.556 432.224C350.716 432.747 350.796 433.301 350.796 433.888C350.796 434.475 350.716 435.029 350.556 435.552C350.407 436.075 350.172 436.533 349.852 436.928C349.543 437.312 349.148 437.616 348.668 437.84C348.199 438.064 347.65 438.176 347.02 438.176C346.818 438.176 346.588 438.155 346.332 438.112C346.087 438.069 345.842 438 345.596 437.904C345.351 437.808 345.116 437.68 344.892 437.52C344.679 437.349 344.498 437.141 344.348 436.896H344.316V438H342.956V426.576ZM349.356 433.792C349.356 433.408 349.303 433.035 349.196 432.672C349.1 432.299 348.946 431.968 348.732 431.68C348.53 431.392 348.263 431.163 347.932 430.992C347.612 430.821 347.234 430.736 346.796 430.736C346.338 430.736 345.948 430.827 345.628 431.008C345.308 431.189 345.047 431.429 344.844 431.728C344.642 432.016 344.492 432.347 344.396 432.72C344.311 433.093 344.268 433.472 344.268 433.856C344.268 434.261 344.316 434.656 344.412 435.04C344.508 435.413 344.658 435.744 344.86 436.032C345.074 436.32 345.346 436.555 345.676 436.736C346.007 436.907 346.407 436.992 346.876 436.992C347.346 436.992 347.735 436.901 348.044 436.72C348.364 436.539 348.62 436.299 348.812 436C349.004 435.701 349.143 435.36 349.228 434.976C349.314 434.592 349.356 434.197 349.356 433.792ZM358.337 433.072C358.315 432.752 358.241 432.448 358.113 432.16C357.995 431.872 357.83 431.627 357.617 431.424C357.414 431.211 357.169 431.045 356.881 430.928C356.603 430.8 356.294 430.736 355.953 430.736C355.601 430.736 355.281 430.8 354.993 430.928C354.715 431.045 354.475 431.211 354.273 431.424C354.07 431.637 353.91 431.888 353.793 432.176C353.675 432.453 353.606 432.752 353.585 433.072H358.337ZM359.649 435.376C359.467 436.304 359.067 437.003 358.449 437.472C357.83 437.941 357.051 438.176 356.113 438.176C355.451 438.176 354.875 438.069 354.385 437.856C353.905 437.643 353.499 437.344 353.169 436.96C352.838 436.576 352.587 436.117 352.417 435.584C352.257 435.051 352.166 434.469 352.145 433.84C352.145 433.211 352.241 432.635 352.433 432.112C352.625 431.589 352.891 431.136 353.233 430.752C353.585 430.368 353.995 430.069 354.465 429.856C354.945 429.643 355.467 429.536 356.033 429.536C356.769 429.536 357.377 429.691 357.857 430C358.347 430.299 358.737 430.683 359.025 431.152C359.323 431.621 359.526 432.133 359.633 432.688C359.75 433.243 359.798 433.771 359.777 434.272H353.585C353.574 434.635 353.617 434.981 353.713 435.312C353.809 435.632 353.963 435.92 354.177 436.176C354.39 436.421 354.662 436.619 354.993 436.768C355.323 436.917 355.713 436.992 356.161 436.992C356.737 436.992 357.206 436.859 357.569 436.592C357.942 436.325 358.187 435.92 358.305 435.376H359.649ZM361.466 426.576H362.826V438H361.466V426.576Z" fill="black"/>
<path d="M101.248 528.076H106.624C107.712 528.076 108.56 528.343 109.168 528.876C109.787 529.409 110.096 530.14 110.096 531.068C110.096 531.761 109.936 532.369 109.616 532.892C109.307 533.415 108.805 533.772 108.112 533.964V533.996C108.443 534.06 108.709 534.167 108.912 534.316C109.125 534.465 109.291 534.647 109.408 534.86C109.536 535.063 109.627 535.292 109.68 535.548C109.744 535.804 109.792 536.071 109.824 536.348C109.845 536.625 109.861 536.908 109.872 537.196C109.883 537.484 109.909 537.767 109.952 538.044C109.995 538.321 110.053 538.588 110.128 538.844C110.213 539.089 110.336 539.308 110.496 539.5H108.8C108.693 539.383 108.619 539.223 108.576 539.02C108.544 538.817 108.523 538.593 108.512 538.348C108.501 538.092 108.491 537.82 108.48 537.532C108.469 537.244 108.437 536.961 108.384 536.684C108.341 536.407 108.288 536.145 108.224 535.9C108.16 535.644 108.059 535.425 107.92 535.244C107.781 535.052 107.6 534.903 107.376 534.796C107.152 534.679 106.853 534.62 106.48 534.62H102.768V539.5H101.248V528.076ZM105.936 533.34C106.288 533.34 106.624 533.313 106.944 533.26C107.264 533.207 107.541 533.105 107.776 532.956C108.021 532.796 108.213 532.588 108.352 532.332C108.501 532.065 108.576 531.724 108.576 531.308C108.576 530.732 108.416 530.263 108.096 529.9C107.776 529.537 107.259 529.356 106.544 529.356H102.768V533.34H105.936ZM117.721 534.572C117.7 534.252 117.625 533.948 117.497 533.66C117.38 533.372 117.214 533.127 117.001 532.924C116.798 532.711 116.553 532.545 116.265 532.428C115.988 532.3 115.678 532.236 115.337 532.236C114.985 532.236 114.665 532.3 114.377 532.428C114.1 532.545 113.86 532.711 113.657 532.924C113.454 533.137 113.294 533.388 113.177 533.676C113.06 533.953 112.99 534.252 112.969 534.572H117.721ZM119.033 536.876C118.852 537.804 118.452 538.503 117.833 538.972C117.214 539.441 116.436 539.676 115.497 539.676C114.836 539.676 114.26 539.569 113.769 539.356C113.289 539.143 112.884 538.844 112.553 538.46C112.222 538.076 111.972 537.617 111.801 537.084C111.641 536.551 111.55 535.969 111.529 535.34C111.529 534.711 111.625 534.135 111.817 533.612C112.009 533.089 112.276 532.636 112.617 532.252C112.969 531.868 113.38 531.569 113.849 531.356C114.329 531.143 114.852 531.036 115.417 531.036C116.153 531.036 116.761 531.191 117.241 531.5C117.732 531.799 118.121 532.183 118.409 532.652C118.708 533.121 118.91 533.633 119.017 534.188C119.134 534.743 119.182 535.271 119.161 535.772H112.969C112.958 536.135 113.001 536.481 113.097 536.812C113.193 537.132 113.348 537.42 113.561 537.676C113.774 537.921 114.046 538.119 114.377 538.268C114.708 538.417 115.097 538.492 115.545 538.492C116.121 538.492 116.59 538.359 116.953 538.092C117.326 537.825 117.572 537.42 117.689 536.876H119.033ZM127.899 539.468C127.664 539.607 127.339 539.676 126.923 539.676C126.571 539.676 126.288 539.58 126.075 539.388C125.872 539.185 125.771 538.86 125.771 538.412C125.398 538.86 124.96 539.185 124.459 539.388C123.968 539.58 123.435 539.676 122.859 539.676C122.486 539.676 122.128 539.633 121.787 539.548C121.456 539.463 121.168 539.329 120.923 539.148C120.678 538.967 120.48 538.732 120.331 538.444C120.192 538.145 120.123 537.788 120.123 537.372C120.123 536.903 120.203 536.519 120.363 536.22C120.523 535.921 120.731 535.681 120.987 535.5C121.254 535.308 121.552 535.164 121.883 535.068C122.224 534.972 122.571 534.892 122.923 534.828C123.296 534.753 123.648 534.7 123.979 534.668C124.32 534.625 124.619 534.572 124.875 534.508C125.131 534.433 125.334 534.332 125.483 534.204C125.632 534.065 125.707 533.868 125.707 533.612C125.707 533.313 125.648 533.073 125.531 532.892C125.424 532.711 125.28 532.572 125.099 532.476C124.928 532.38 124.731 532.316 124.507 532.284C124.294 532.252 124.08 532.236 123.867 532.236C123.291 532.236 122.811 532.348 122.427 532.572C122.043 532.785 121.835 533.196 121.803 533.804H120.443C120.464 533.292 120.571 532.86 120.763 532.508C120.955 532.156 121.211 531.873 121.531 531.66C121.851 531.436 122.214 531.276 122.619 531.18C123.035 531.084 123.478 531.036 123.947 531.036C124.32 531.036 124.688 531.063 125.051 531.116C125.424 531.169 125.76 531.281 126.059 531.452C126.358 531.612 126.598 531.841 126.779 532.14C126.96 532.439 127.051 532.828 127.051 533.308V537.564C127.051 537.884 127.067 538.119 127.099 538.268C127.142 538.417 127.27 538.492 127.483 538.492C127.6 538.492 127.739 538.465 127.899 538.412V539.468ZM125.691 535.228C125.52 535.356 125.296 535.452 125.019 535.516C124.742 535.569 124.448 535.617 124.139 535.66C123.84 535.692 123.536 535.735 123.227 535.788C122.918 535.831 122.64 535.905 122.395 536.012C122.15 536.119 121.947 536.273 121.787 536.476C121.638 536.668 121.563 536.935 121.563 537.276C121.563 537.5 121.606 537.692 121.691 537.852C121.787 538.001 121.904 538.124 122.043 538.22C122.192 538.316 122.363 538.385 122.555 538.428C122.747 538.471 122.95 538.492 123.163 538.492C123.611 538.492 123.995 538.433 124.315 538.316C124.635 538.188 124.896 538.033 125.099 537.852C125.302 537.66 125.451 537.457 125.547 537.244C125.643 537.02 125.691 536.812 125.691 536.62V535.228ZM130.157 535.436C130.157 535.82 130.205 536.199 130.301 536.572C130.407 536.935 130.562 537.26 130.765 537.548C130.978 537.836 131.245 538.065 131.565 538.236C131.895 538.407 132.279 538.492 132.717 538.492C133.175 538.492 133.565 538.401 133.885 538.22C134.205 538.039 134.466 537.804 134.669 537.516C134.871 537.217 135.015 536.881 135.101 536.508C135.197 536.135 135.245 535.756 135.245 535.372C135.245 534.967 135.197 534.577 135.101 534.204C135.005 533.82 134.85 533.484 134.637 533.196C134.434 532.908 134.167 532.679 133.837 532.508C133.506 532.327 133.106 532.236 132.637 532.236C132.178 532.236 131.789 532.327 131.469 532.508C131.149 532.689 130.893 532.929 130.701 533.228C130.509 533.527 130.37 533.868 130.285 534.252C130.199 534.636 130.157 535.031 130.157 535.436ZM136.557 539.5H135.197V538.38H135.165C134.941 538.839 134.589 539.169 134.109 539.372C133.629 539.575 133.101 539.676 132.525 539.676C131.885 539.676 131.325 539.559 130.845 539.324C130.375 539.089 129.981 538.775 129.661 538.38C129.351 537.985 129.117 537.527 128.957 537.004C128.797 536.481 128.717 535.927 128.717 535.34C128.717 534.753 128.791 534.199 128.941 533.676C129.101 533.153 129.335 532.7 129.645 532.316C129.965 531.921 130.359 531.612 130.829 531.388C131.309 531.153 131.863 531.036 132.493 531.036C132.706 531.036 132.935 531.057 133.181 531.1C133.426 531.143 133.671 531.217 133.917 531.324C134.162 531.42 134.391 531.553 134.605 531.724C134.829 531.884 135.015 532.087 135.165 532.332H135.197V528.076H136.557V539.5ZM144.094 535.372C144.094 535.873 144.158 536.321 144.286 536.716C144.425 537.1 144.611 537.425 144.846 537.692C145.081 537.948 145.353 538.145 145.662 538.284C145.982 538.423 146.318 538.492 146.67 538.492C147.022 538.492 147.353 538.423 147.662 538.284C147.982 538.145 148.259 537.948 148.494 537.692C148.729 537.425 148.91 537.1 149.038 536.716C149.177 536.321 149.246 535.873 149.246 535.372C149.246 534.871 149.177 534.428 149.038 534.044C148.91 533.649 148.729 533.319 148.494 533.052C148.259 532.785 147.982 532.583 147.662 532.444C147.353 532.305 147.022 532.236 146.67 532.236C146.318 532.236 145.982 532.305 145.662 532.444C145.353 532.583 145.081 532.785 144.846 533.052C144.611 533.319 144.425 533.649 144.286 534.044C144.158 534.428 144.094 534.871 144.094 535.372ZM142.654 535.372C142.654 534.764 142.739 534.199 142.91 533.676C143.081 533.143 143.337 532.684 143.678 532.3C144.019 531.905 144.441 531.596 144.942 531.372C145.443 531.148 146.019 531.036 146.67 531.036C147.331 531.036 147.907 531.148 148.398 531.372C148.899 531.596 149.321 531.905 149.662 532.3C150.003 532.684 150.259 533.143 150.43 533.676C150.601 534.199 150.686 534.764 150.686 535.372C150.686 535.98 150.601 536.545 150.43 537.068C150.259 537.591 150.003 538.049 149.662 538.444C149.321 538.828 148.899 539.132 148.398 539.356C147.907 539.569 147.331 539.676 146.67 539.676C146.019 539.676 145.443 539.569 144.942 539.356C144.441 539.132 144.019 538.828 143.678 538.444C143.337 538.049 143.081 537.591 142.91 537.068C142.739 536.545 142.654 535.98 142.654 535.372ZM152.29 531.228H153.57V532.54H153.602C154.167 531.537 155.063 531.036 156.29 531.036C156.834 531.036 157.287 531.111 157.65 531.26C158.012 531.409 158.306 531.617 158.53 531.884C158.754 532.151 158.908 532.471 158.994 532.844C159.09 533.207 159.138 533.612 159.138 534.06V539.5H157.778V533.9C157.778 533.388 157.628 532.983 157.33 532.684C157.031 532.385 156.62 532.236 156.098 532.236C155.682 532.236 155.319 532.3 155.01 532.428C154.711 532.556 154.46 532.737 154.258 532.972C154.055 533.207 153.9 533.484 153.794 533.804C153.698 534.113 153.65 534.455 153.65 534.828V539.5H152.29V531.228ZM161.26 528.076H162.62V539.5H161.26V528.076ZM167.975 540.604C167.815 541.009 167.655 541.351 167.495 541.628C167.346 541.905 167.175 542.129 166.983 542.3C166.802 542.481 166.594 542.609 166.359 542.684C166.135 542.769 165.874 542.812 165.575 542.812C165.415 542.812 165.255 542.801 165.095 542.78C164.935 542.759 164.78 542.721 164.631 542.668V541.42C164.748 541.473 164.882 541.516 165.031 541.548C165.191 541.591 165.324 541.612 165.431 541.612C165.708 541.612 165.938 541.543 166.119 541.404C166.311 541.276 166.455 541.089 166.551 540.844L167.111 539.452L163.831 531.228H165.367L167.783 537.996H167.815L170.135 531.228H171.575L167.975 540.604Z" fill="black" fill-opacity="0.68"/>
<mask id="path-22-inside-7_57321_91880" fill="white">
<path d="M292 524H312V544H292V524Z"/>
</mask>
<path d="M292 524V523H291V524H292ZM312 524H313V523H312V524ZM312 544V545H313V544H312ZM292 544H291V545H292V544ZM292 524V525H312V524V523H292V524ZM312 524H311V544H312H313V524H312ZM312 544V543H292V544V545H312V544ZM292 544H293V524H292H291V544H292Z" fill="black" fill-opacity="0.2" mask="url(#path-22-inside-7_57321_91880)"/>
<path d="M325.248 528.576H326.768V538.72H332.816V540H325.248V528.576ZM341.443 539.968C341.208 540.107 340.883 540.176 340.467 540.176C340.115 540.176 339.832 540.08 339.619 539.888C339.416 539.685 339.315 539.36 339.315 538.912C338.941 539.36 338.504 539.685 338.003 539.888C337.512 540.08 336.979 540.176 336.403 540.176C336.029 540.176 335.672 540.133 335.331 540.048C335 539.963 334.712 539.829 334.467 539.648C334.221 539.467 334.024 539.232 333.875 538.944C333.736 538.645 333.667 538.288 333.667 537.872C333.667 537.403 333.747 537.019 333.907 536.72C334.067 536.421 334.275 536.181 334.531 536C334.797 535.808 335.096 535.664 335.427 535.568C335.768 535.472 336.115 535.392 336.467 535.328C336.84 535.253 337.192 535.2 337.523 535.168C337.864 535.125 338.163 535.072 338.419 535.008C338.675 534.933 338.877 534.832 339.027 534.704C339.176 534.565 339.251 534.368 339.251 534.112C339.251 533.813 339.192 533.573 339.075 533.392C338.968 533.211 338.824 533.072 338.643 532.976C338.472 532.88 338.275 532.816 338.051 532.784C337.837 532.752 337.624 532.736 337.411 532.736C336.835 532.736 336.355 532.848 335.971 533.072C335.587 533.285 335.379 533.696 335.347 534.304H333.987C334.008 533.792 334.115 533.36 334.307 533.008C334.499 532.656 334.755 532.373 335.075 532.16C335.395 531.936 335.757 531.776 336.163 531.68C336.579 531.584 337.021 531.536 337.491 531.536C337.864 531.536 338.232 531.563 338.595 531.616C338.968 531.669 339.304 531.781 339.603 531.952C339.901 532.112 340.141 532.341 340.323 532.64C340.504 532.939 340.595 533.328 340.595 533.808V538.064C340.595 538.384 340.611 538.619 340.643 538.768C340.685 538.917 340.813 538.992 341.027 538.992C341.144 538.992 341.283 538.965 341.443 538.912V539.968ZM339.235 535.728C339.064 535.856 338.84 535.952 338.563 536.016C338.285 536.069 337.992 536.117 337.683 536.16C337.384 536.192 337.08 536.235 336.771 536.288C336.461 536.331 336.184 536.405 335.939 536.512C335.693 536.619 335.491 536.773 335.331 536.976C335.181 537.168 335.107 537.435 335.107 537.776C335.107 538 335.149 538.192 335.235 538.352C335.331 538.501 335.448 538.624 335.587 538.72C335.736 538.816 335.907 538.885 336.099 538.928C336.291 538.971 336.493 538.992 336.707 538.992C337.155 538.992 337.539 538.933 337.859 538.816C338.179 538.688 338.44 538.533 338.643 538.352C338.845 538.16 338.995 537.957 339.091 537.744C339.187 537.52 339.235 537.312 339.235 537.12V535.728ZM342.956 528.576H344.316V532.848H344.348C344.572 532.389 344.924 532.059 345.404 531.856C345.884 531.643 346.412 531.536 346.988 531.536C347.628 531.536 348.183 531.653 348.652 531.888C349.132 532.123 349.527 532.443 349.836 532.848C350.156 533.243 350.396 533.701 350.556 534.224C350.716 534.747 350.796 535.301 350.796 535.888C350.796 536.475 350.716 537.029 350.556 537.552C350.407 538.075 350.172 538.533 349.852 538.928C349.543 539.312 349.148 539.616 348.668 539.84C348.199 540.064 347.65 540.176 347.02 540.176C346.818 540.176 346.588 540.155 346.332 540.112C346.087 540.069 345.842 540 345.596 539.904C345.351 539.808 345.116 539.68 344.892 539.52C344.679 539.349 344.498 539.141 344.348 538.896H344.316V540H342.956V528.576ZM349.356 535.792C349.356 535.408 349.303 535.035 349.196 534.672C349.1 534.299 348.946 533.968 348.732 533.68C348.53 533.392 348.263 533.163 347.932 532.992C347.612 532.821 347.234 532.736 346.796 532.736C346.338 532.736 345.948 532.827 345.628 533.008C345.308 533.189 345.047 533.429 344.844 533.728C344.642 534.016 344.492 534.347 344.396 534.72C344.311 535.093 344.268 535.472 344.268 535.856C344.268 536.261 344.316 536.656 344.412 537.04C344.508 537.413 344.658 537.744 344.86 538.032C345.074 538.32 345.346 538.555 345.676 538.736C346.007 538.907 346.407 538.992 346.876 538.992C347.346 538.992 347.735 538.901 348.044 538.72C348.364 538.539 348.62 538.299 348.812 538C349.004 537.701 349.143 537.36 349.228 536.976C349.314 536.592 349.356 536.197 349.356 535.792ZM358.337 535.072C358.315 534.752 358.241 534.448 358.113 534.16C357.995 533.872 357.83 533.627 357.617 533.424C357.414 533.211 357.169 533.045 356.881 532.928C356.603 532.8 356.294 532.736 355.953 532.736C355.601 532.736 355.281 532.8 354.993 532.928C354.715 533.045 354.475 533.211 354.273 533.424C354.07 533.637 353.91 533.888 353.793 534.176C353.675 534.453 353.606 534.752 353.585 535.072H358.337ZM359.649 537.376C359.467 538.304 359.067 539.003 358.449 539.472C357.83 539.941 357.051 540.176 356.113 540.176C355.451 540.176 354.875 540.069 354.385 539.856C353.905 539.643 353.499 539.344 353.169 538.96C352.838 538.576 352.587 538.117 352.417 537.584C352.257 537.051 352.166 536.469 352.145 535.84C352.145 535.211 352.241 534.635 352.433 534.112C352.625 533.589 352.891 533.136 353.233 532.752C353.585 532.368 353.995 532.069 354.465 531.856C354.945 531.643 355.467 531.536 356.033 531.536C356.769 531.536 357.377 531.691 357.857 532C358.347 532.299 358.737 532.683 359.025 533.152C359.323 533.621 359.526 534.133 359.633 534.688C359.75 535.243 359.798 535.771 359.777 536.272H353.585C353.574 536.635 353.617 536.981 353.713 537.312C353.809 537.632 353.963 537.92 354.177 538.176C354.39 538.421 354.662 538.619 354.993 538.768C355.323 538.917 355.713 538.992 356.161 538.992C356.737 538.992 357.206 538.859 357.569 538.592C357.942 538.325 358.187 537.92 358.305 537.376H359.649ZM361.466 528.576H362.826V540H361.466V528.576Z" fill="black"/>
<path d="M102.768 640.22H105.296C105.467 640.22 105.68 640.209 105.936 640.188C106.192 640.156 106.464 640.092 106.752 639.996C107.04 639.889 107.323 639.74 107.6 639.548C107.888 639.356 108.144 639.095 108.368 638.764C108.592 638.433 108.773 638.023 108.912 637.532C109.061 637.031 109.136 636.428 109.136 635.724C109.136 635.041 109.067 634.433 108.928 633.9C108.8 633.356 108.581 632.897 108.272 632.524C107.973 632.14 107.584 631.852 107.104 631.66C106.624 631.457 106.032 631.356 105.328 631.356H102.768V640.22ZM101.248 630.076H105.168C106.928 630.076 108.283 630.524 109.232 631.42C110.181 632.316 110.656 633.681 110.656 635.516C110.656 636.476 110.549 637.329 110.336 638.076C110.123 638.812 109.792 639.436 109.344 639.948C108.896 640.449 108.325 640.833 107.632 641.1C106.939 641.367 106.117 641.5 105.168 641.5H101.248V630.076ZM113.73 631.74H112.37V630.076H113.73V631.74ZM112.37 633.228H113.73V641.5H112.37V633.228ZM116.669 638.892C116.679 639.191 116.749 639.447 116.877 639.66C117.005 639.863 117.17 640.028 117.373 640.156C117.586 640.273 117.821 640.359 118.077 640.412C118.343 640.465 118.615 640.492 118.893 640.492C119.106 640.492 119.33 640.476 119.565 640.444C119.799 640.412 120.013 640.353 120.205 640.268C120.407 640.183 120.573 640.06 120.701 639.9C120.829 639.729 120.893 639.516 120.893 639.26C120.893 638.908 120.759 638.641 120.493 638.46C120.226 638.279 119.89 638.135 119.485 638.028C119.09 637.911 118.658 637.809 118.189 637.724C117.719 637.628 117.282 637.5 116.877 637.34C116.482 637.169 116.151 636.935 115.885 636.636C115.618 636.337 115.485 635.921 115.485 635.388C115.485 634.972 115.575 634.615 115.757 634.316C115.949 634.017 116.189 633.777 116.477 633.596C116.775 633.404 117.106 633.265 117.469 633.18C117.842 633.084 118.21 633.036 118.573 633.036C119.042 633.036 119.474 633.079 119.869 633.164C120.263 633.239 120.61 633.377 120.909 633.58C121.218 633.772 121.463 634.039 121.645 634.38C121.826 634.711 121.933 635.127 121.965 635.628H120.605C120.583 635.361 120.514 635.143 120.397 634.972C120.279 634.791 120.13 634.647 119.949 634.54C119.767 634.433 119.565 634.359 119.341 634.316C119.127 634.263 118.909 634.236 118.685 634.236C118.482 634.236 118.274 634.252 118.061 634.284C117.858 634.316 117.671 634.375 117.501 634.46C117.33 634.535 117.191 634.641 117.085 634.78C116.978 634.908 116.924 635.079 116.924 635.292C116.924 635.527 117.004 635.724 117.164 635.884C117.335 636.033 117.549 636.161 117.805 636.268C118.061 636.364 118.349 636.449 118.669 636.524C118.989 636.588 119.309 636.657 119.629 636.732C119.97 636.807 120.301 636.897 120.621 637.004C120.951 637.111 121.239 637.255 121.485 637.436C121.741 637.607 121.943 637.825 122.093 638.092C122.253 638.359 122.333 638.689 122.333 639.084C122.333 639.585 122.226 640.001 122.013 640.332C121.81 640.663 121.538 640.929 121.197 641.132C120.866 641.335 120.487 641.473 120.061 641.548C119.645 641.633 119.229 641.676 118.812 641.676C118.354 641.676 117.917 641.628 117.501 641.532C117.085 641.436 116.717 641.281 116.397 641.068C116.077 640.844 115.821 640.556 115.629 640.204C115.437 639.841 115.33 639.404 115.309 638.892H116.669ZM131.165 641.468C130.93 641.607 130.605 641.676 130.189 641.676C129.837 641.676 129.554 641.58 129.341 641.388C129.138 641.185 129.037 640.86 129.037 640.412C128.663 640.86 128.226 641.185 127.725 641.388C127.234 641.58 126.701 641.676 126.125 641.676C125.751 641.676 125.394 641.633 125.053 641.548C124.722 641.463 124.434 641.329 124.189 641.148C123.943 640.967 123.746 640.732 123.597 640.444C123.458 640.145 123.389 639.788 123.389 639.372C123.389 638.903 123.469 638.519 123.629 638.22C123.789 637.921 123.997 637.681 124.253 637.5C124.519 637.308 124.818 637.164 125.149 637.068C125.49 636.972 125.837 636.892 126.189 636.828C126.562 636.753 126.914 636.7 127.245 636.668C127.586 636.625 127.885 636.572 128.141 636.508C128.397 636.433 128.599 636.332 128.749 636.204C128.898 636.065 128.973 635.868 128.973 635.612C128.973 635.313 128.914 635.073 128.797 634.892C128.69 634.711 128.546 634.572 128.365 634.476C128.194 634.38 127.997 634.316 127.773 634.284C127.559 634.252 127.346 634.236 127.133 634.236C126.557 634.236 126.077 634.348 125.693 634.572C125.309 634.785 125.101 635.196 125.069 635.804H123.709C123.73 635.292 123.837 634.86 124.029 634.508C124.221 634.156 124.477 633.873 124.797 633.66C125.117 633.436 125.479 633.276 125.885 633.18C126.301 633.084 126.743 633.036 127.213 633.036C127.586 633.036 127.954 633.063 128.317 633.116C128.69 633.169 129.026 633.281 129.325 633.452C129.623 633.612 129.863 633.841 130.045 634.14C130.226 634.439 130.317 634.828 130.317 635.308V639.564C130.317 639.884 130.333 640.119 130.365 640.268C130.407 640.417 130.535 640.492 130.749 640.492C130.866 640.492 131.005 640.465 131.165 640.412V641.468ZM128.957 637.228C128.786 637.356 128.562 637.452 128.285 637.516C128.007 637.569 127.714 637.617 127.405 637.66C127.106 637.692 126.802 637.735 126.493 637.788C126.183 637.831 125.906 637.905 125.661 638.012C125.415 638.119 125.213 638.273 125.053 638.476C124.903 638.668 124.829 638.935 124.829 639.276C124.829 639.5 124.871 639.692 124.957 639.852C125.053 640.001 125.17 640.124 125.309 640.22C125.458 640.316 125.629 640.385 125.821 640.428C126.013 640.471 126.215 640.492 126.429 640.492C126.877 640.492 127.261 640.433 127.581 640.316C127.901 640.188 128.162 640.033 128.365 639.852C128.567 639.66 128.717 639.457 128.813 639.244C128.909 639.02 128.957 638.812 128.957 638.62V637.228ZM132.478 630.076H133.838V634.348H133.87C134.094 633.889 134.446 633.559 134.926 633.356C135.406 633.143 135.934 633.036 136.51 633.036C137.15 633.036 137.705 633.153 138.174 633.388C138.654 633.623 139.049 633.943 139.358 634.348C139.678 634.743 139.918 635.201 140.078 635.724C140.238 636.247 140.318 636.801 140.318 637.388C140.318 637.975 140.238 638.529 140.078 639.052C139.929 639.575 139.694 640.033 139.374 640.428C139.065 640.812 138.67 641.116 138.19 641.34C137.721 641.564 137.172 641.676 136.542 641.676C136.34 641.676 136.11 641.655 135.854 641.612C135.609 641.569 135.364 641.5 135.118 641.404C134.873 641.308 134.638 641.18 134.414 641.02C134.201 640.849 134.02 640.641 133.87 640.396H133.838V641.5H132.478V630.076ZM138.878 637.292C138.878 636.908 138.825 636.535 138.718 636.172C138.622 635.799 138.468 635.468 138.254 635.18C138.052 634.892 137.785 634.663 137.454 634.492C137.134 634.321 136.756 634.236 136.318 634.236C135.86 634.236 135.47 634.327 135.15 634.508C134.83 634.689 134.569 634.929 134.366 635.228C134.164 635.516 134.014 635.847 133.918 636.22C133.833 636.593 133.79 636.972 133.79 637.356C133.79 637.761 133.838 638.156 133.934 638.54C134.03 638.913 134.18 639.244 134.382 639.532C134.596 639.82 134.868 640.055 135.198 640.236C135.529 640.407 135.929 640.492 136.398 640.492C136.868 640.492 137.257 640.401 137.566 640.22C137.886 640.039 138.142 639.799 138.334 639.5C138.526 639.201 138.665 638.86 138.75 638.476C138.836 638.092 138.878 637.697 138.878 637.292ZM141.995 630.076H143.355V641.5H141.995V630.076ZM151.206 636.572C151.184 636.252 151.11 635.948 150.982 635.66C150.864 635.372 150.699 635.127 150.486 634.924C150.283 634.711 150.038 634.545 149.75 634.428C149.472 634.3 149.163 634.236 148.822 634.236C148.47 634.236 148.15 634.3 147.862 634.428C147.584 634.545 147.344 634.711 147.142 634.924C146.939 635.137 146.779 635.388 146.662 635.676C146.544 635.953 146.475 636.252 146.454 636.572H151.206ZM152.517 638.876C152.336 639.804 151.936 640.503 151.318 640.972C150.699 641.441 149.92 641.676 148.982 641.676C148.32 641.676 147.744 641.569 147.254 641.356C146.774 641.143 146.368 640.844 146.038 640.46C145.707 640.076 145.456 639.617 145.286 639.084C145.126 638.551 145.035 637.969 145.014 637.34C145.014 636.711 145.11 636.135 145.302 635.612C145.494 635.089 145.76 634.636 146.102 634.252C146.454 633.868 146.864 633.569 147.334 633.356C147.814 633.143 148.336 633.036 148.902 633.036C149.638 633.036 150.246 633.191 150.726 633.5C151.216 633.799 151.606 634.183 151.894 634.652C152.192 635.121 152.395 635.633 152.502 636.188C152.619 636.743 152.667 637.271 152.646 637.772H146.454C146.443 638.135 146.486 638.481 146.582 638.812C146.678 639.132 146.832 639.42 147.046 639.676C147.259 639.921 147.531 640.119 147.862 640.268C148.192 640.417 148.582 640.492 149.03 640.492C149.606 640.492 150.075 640.359 150.438 640.092C150.811 639.825 151.056 639.42 151.174 638.876H152.517ZM155.047 637.436C155.047 637.82 155.095 638.199 155.191 638.572C155.298 638.935 155.453 639.26 155.655 639.548C155.869 639.836 156.135 640.065 156.455 640.236C156.786 640.407 157.17 640.492 157.607 640.492C158.066 640.492 158.455 640.401 158.775 640.22C159.095 640.039 159.357 639.804 159.559 639.516C159.762 639.217 159.906 638.881 159.991 638.508C160.087 638.135 160.135 637.756 160.135 637.372C160.135 636.967 160.087 636.577 159.991 636.204C159.895 635.82 159.741 635.484 159.527 635.196C159.325 634.908 159.058 634.679 158.727 634.508C158.397 634.327 157.997 634.236 157.527 634.236C157.069 634.236 156.679 634.327 156.359 634.508C156.039 634.689 155.783 634.929 155.591 635.228C155.399 635.527 155.261 635.868 155.175 636.252C155.09 636.636 155.047 637.031 155.047 637.436ZM161.447 641.5H160.087V640.38H160.055C159.831 640.839 159.479 641.169 158.999 641.372C158.519 641.575 157.991 641.676 157.415 641.676C156.775 641.676 156.215 641.559 155.735 641.324C155.266 641.089 154.871 640.775 154.551 640.38C154.242 639.985 154.007 639.527 153.847 639.004C153.687 638.481 153.607 637.927 153.607 637.34C153.607 636.753 153.682 636.199 153.831 635.676C153.991 635.153 154.226 634.7 154.535 634.316C154.855 633.921 155.25 633.612 155.719 633.388C156.199 633.153 156.754 633.036 157.383 633.036C157.597 633.036 157.826 633.057 158.071 633.1C158.317 633.143 158.562 633.217 158.807 633.324C159.053 633.42 159.282 633.553 159.495 633.724C159.719 633.884 159.906 634.087 160.055 634.332H160.087V630.076H161.447V641.5Z" fill="black" fill-opacity="0.68"/>
<mask id="path-26-inside-8_57321_91880" fill="white">
<path d="M292 626H312V646H292V626Z"/>
</mask>
<path d="M292 626V625H291V626H292ZM312 626H313V625H312V626ZM312 646V647H313V646H312ZM292 646H291V647H292V646ZM292 626V627H312V626V625H292V626ZM312 626H311V646H312H313V626H312ZM312 646V645H292V646V647H312V646ZM292 646H293V626H292H291V646H292Z" fill="black" fill-opacity="0.2" mask="url(#path-26-inside-8_57321_91880)"/>
<path d="M325.248 630.576H326.768V640.72H332.816V642H325.248V630.576ZM341.443 641.968C341.208 642.107 340.883 642.176 340.467 642.176C340.115 642.176 339.832 642.08 339.619 641.888C339.416 641.685 339.315 641.36 339.315 640.912C338.941 641.36 338.504 641.685 338.003 641.888C337.512 642.08 336.979 642.176 336.403 642.176C336.029 642.176 335.672 642.133 335.331 642.048C335 641.963 334.712 641.829 334.467 641.648C334.221 641.467 334.024 641.232 333.875 640.944C333.736 640.645 333.667 640.288 333.667 639.872C333.667 639.403 333.747 639.019 333.907 638.72C334.067 638.421 334.275 638.181 334.531 638C334.797 637.808 335.096 637.664 335.427 637.568C335.768 637.472 336.115 637.392 336.467 637.328C336.84 637.253 337.192 637.2 337.523 637.168C337.864 637.125 338.163 637.072 338.419 637.008C338.675 636.933 338.877 636.832 339.027 636.704C339.176 636.565 339.251 636.368 339.251 636.112C339.251 635.813 339.192 635.573 339.075 635.392C338.968 635.211 338.824 635.072 338.643 634.976C338.472 634.88 338.275 634.816 338.051 634.784C337.837 634.752 337.624 634.736 337.411 634.736C336.835 634.736 336.355 634.848 335.971 635.072C335.587 635.285 335.379 635.696 335.347 636.304H333.987C334.008 635.792 334.115 635.36 334.307 635.008C334.499 634.656 334.755 634.373 335.075 634.16C335.395 633.936 335.757 633.776 336.163 633.68C336.579 633.584 337.021 633.536 337.491 633.536C337.864 633.536 338.232 633.563 338.595 633.616C338.968 633.669 339.304 633.781 339.603 633.952C339.901 634.112 340.141 634.341 340.323 634.64C340.504 634.939 340.595 635.328 340.595 635.808V640.064C340.595 640.384 340.611 640.619 340.643 640.768C340.685 640.917 340.813 640.992 341.027 640.992C341.144 640.992 341.283 640.965 341.443 640.912V641.968ZM339.235 637.728C339.064 637.856 338.84 637.952 338.563 638.016C338.285 638.069 337.992 638.117 337.683 638.16C337.384 638.192 337.08 638.235 336.771 638.288C336.461 638.331 336.184 638.405 335.939 638.512C335.693 638.619 335.491 638.773 335.331 638.976C335.181 639.168 335.107 639.435 335.107 639.776C335.107 640 335.149 640.192 335.235 640.352C335.331 640.501 335.448 640.624 335.587 640.72C335.736 640.816 335.907 640.885 336.099 640.928C336.291 640.971 336.493 640.992 336.707 640.992C337.155 640.992 337.539 640.933 337.859 640.816C338.179 640.688 338.44 640.533 338.643 640.352C338.845 640.16 338.995 639.957 339.091 639.744C339.187 639.52 339.235 639.312 339.235 639.12V637.728ZM342.956 630.576H344.316V634.848H344.348C344.572 634.389 344.924 634.059 345.404 633.856C345.884 633.643 346.412 633.536 346.988 633.536C347.628 633.536 348.183 633.653 348.652 633.888C349.132 634.123 349.527 634.443 349.836 634.848C350.156 635.243 350.396 635.701 350.556 636.224C350.716 636.747 350.796 637.301 350.796 637.888C350.796 638.475 350.716 639.029 350.556 639.552C350.407 640.075 350.172 640.533 349.852 640.928C349.543 641.312 349.148 641.616 348.668 641.84C348.199 642.064 347.65 642.176 347.02 642.176C346.818 642.176 346.588 642.155 346.332 642.112C346.087 642.069 345.842 642 345.596 641.904C345.351 641.808 345.116 641.68 344.892 641.52C344.679 641.349 344.498 641.141 344.348 640.896H344.316V642H342.956V630.576ZM349.356 637.792C349.356 637.408 349.303 637.035 349.196 636.672C349.1 636.299 348.946 635.968 348.732 635.68C348.53 635.392 348.263 635.163 347.932 634.992C347.612 634.821 347.234 634.736 346.796 634.736C346.338 634.736 345.948 634.827 345.628 635.008C345.308 635.189 345.047 635.429 344.844 635.728C344.642 636.016 344.492 636.347 344.396 636.72C344.311 637.093 344.268 637.472 344.268 637.856C344.268 638.261 344.316 638.656 344.412 639.04C344.508 639.413 344.658 639.744 344.86 640.032C345.074 640.32 345.346 640.555 345.676 640.736C346.007 640.907 346.407 640.992 346.876 640.992C347.346 640.992 347.735 640.901 348.044 640.72C348.364 640.539 348.62 640.299 348.812 640C349.004 639.701 349.143 639.36 349.228 638.976C349.314 638.592 349.356 638.197 349.356 637.792ZM358.337 637.072C358.315 636.752 358.241 636.448 358.113 636.16C357.995 635.872 357.83 635.627 357.617 635.424C357.414 635.211 357.169 635.045 356.881 634.928C356.603 634.8 356.294 634.736 355.953 634.736C355.601 634.736 355.281 634.8 354.993 634.928C354.715 635.045 354.475 635.211 354.273 635.424C354.07 635.637 353.91 635.888 353.793 636.176C353.675 636.453 353.606 636.752 353.585 637.072H358.337ZM359.649 639.376C359.467 640.304 359.067 641.003 358.449 641.472C357.83 641.941 357.051 642.176 356.113 642.176C355.451 642.176 354.875 642.069 354.385 641.856C353.905 641.643 353.499 641.344 353.169 640.96C352.838 640.576 352.587 640.117 352.417 639.584C352.257 639.051 352.166 638.469 352.145 637.84C352.145 637.211 352.241 636.635 352.433 636.112C352.625 635.589 352.891 635.136 353.233 634.752C353.585 634.368 353.995 634.069 354.465 633.856C354.945 633.643 355.467 633.536 356.033 633.536C356.769 633.536 357.377 633.691 357.857 634C358.347 634.299 358.737 634.683 359.025 635.152C359.323 635.621 359.526 636.133 359.633 636.688C359.75 637.243 359.798 637.771 359.777 638.272H353.585C353.574 638.635 353.617 638.981 353.713 639.312C353.809 639.632 353.963 639.92 354.177 640.176C354.39 640.421 354.662 640.619 354.993 640.768C355.323 640.917 355.713 640.992 356.161 640.992C356.737 640.992 357.206 640.859 357.569 640.592C357.942 640.325 358.187 639.92 358.305 639.376H359.649ZM361.466 630.576H362.826V642H361.466V630.576Z" fill="black" fill-opacity="0.2"/>
<path d="M107.856 735.42C107.771 734.599 107.472 734.007 106.96 733.644C106.459 733.271 105.813 733.084 105.024 733.084C104.704 733.084 104.389 733.116 104.08 733.18C103.771 733.244 103.493 733.351 103.248 733.5C103.013 733.649 102.821 733.852 102.672 734.108C102.533 734.353 102.464 734.663 102.464 735.036C102.464 735.388 102.565 735.676 102.768 735.9C102.981 736.113 103.259 736.289 103.6 736.428C103.952 736.567 104.347 736.684 104.784 736.78C105.221 736.865 105.664 736.961 106.112 737.068C106.571 737.175 107.019 737.303 107.456 737.452C107.893 737.591 108.283 737.783 108.624 738.028C108.976 738.273 109.253 738.583 109.456 738.956C109.669 739.329 109.776 739.799 109.776 740.364C109.776 740.972 109.637 741.495 109.36 741.932C109.093 742.359 108.747 742.711 108.32 742.988C107.893 743.255 107.413 743.447 106.88 743.564C106.357 743.692 105.835 743.756 105.312 743.756C104.672 743.756 104.064 743.676 103.488 743.516C102.923 743.356 102.421 743.116 101.984 742.796C101.557 742.465 101.216 742.049 100.96 741.548C100.715 741.036 100.592 740.433 100.592 739.74H102.032C102.032 740.22 102.123 740.636 102.304 740.988C102.496 741.329 102.741 741.612 103.04 741.836C103.349 742.06 103.707 742.225 104.112 742.332C104.517 742.439 104.933 742.492 105.36 742.492C105.701 742.492 106.043 742.46 106.384 742.396C106.736 742.332 107.051 742.225 107.328 742.076C107.605 741.916 107.829 741.703 108 741.436C108.171 741.169 108.256 740.828 108.256 740.412C108.256 740.017 108.149 739.697 107.936 739.452C107.733 739.207 107.456 739.009 107.104 738.86C106.763 738.7 106.373 738.572 105.936 738.476C105.499 738.38 105.051 738.284 104.592 738.188C104.144 738.081 103.701 737.964 103.264 737.836C102.827 737.697 102.432 737.521 102.08 737.308C101.739 737.084 101.461 736.801 101.248 736.46C101.045 736.108 100.944 735.671 100.944 735.148C100.944 734.572 101.061 734.076 101.296 733.66C101.531 733.233 101.84 732.887 102.224 732.62C102.619 732.343 103.061 732.14 103.552 732.012C104.053 731.873 104.565 731.804 105.088 731.804C105.675 731.804 106.219 731.873 106.72 732.012C107.221 732.151 107.659 732.369 108.032 732.668C108.416 732.967 108.715 733.345 108.928 733.804C109.152 734.252 109.275 734.791 109.296 735.42H107.856ZM111.479 732.076H112.839V738.844L116.615 735.228H118.439L115.159 738.236L118.679 743.5H116.951L114.119 739.18L112.839 740.364V743.5H111.479V732.076ZM125.44 738.572C125.419 738.252 125.344 737.948 125.216 737.66C125.099 737.372 124.933 737.127 124.72 736.924C124.517 736.711 124.272 736.545 123.984 736.428C123.707 736.3 123.397 736.236 123.056 736.236C122.704 736.236 122.384 736.3 122.096 736.428C121.819 736.545 121.579 736.711 121.376 736.924C121.173 737.137 121.013 737.388 120.896 737.676C120.779 737.953 120.709 738.252 120.688 738.572H125.44ZM126.752 740.876C126.571 741.804 126.171 742.503 125.552 742.972C124.933 743.441 124.155 743.676 123.216 743.676C122.555 743.676 121.979 743.569 121.488 743.356C121.008 743.143 120.603 742.844 120.272 742.46C119.941 742.076 119.691 741.617 119.52 741.084C119.36 740.551 119.269 739.969 119.248 739.34C119.248 738.711 119.344 738.135 119.536 737.612C119.728 737.089 119.995 736.636 120.336 736.252C120.688 735.868 121.099 735.569 121.568 735.356C122.048 735.143 122.571 735.036 123.136 735.036C123.872 735.036 124.48 735.191 124.96 735.5C125.451 735.799 125.84 736.183 126.128 736.652C126.427 737.121 126.629 737.633 126.736 738.188C126.853 738.743 126.901 739.271 126.88 739.772H120.688C120.677 740.135 120.72 740.481 120.816 740.812C120.912 741.132 121.067 741.42 121.28 741.676C121.493 741.921 121.765 742.119 122.096 742.268C122.427 742.417 122.816 742.492 123.264 742.492C123.84 742.492 124.309 742.359 124.672 742.092C125.045 741.825 125.291 741.42 125.408 740.876H126.752ZM128.37 732.076H129.73V743.5H128.37V732.076ZM137.581 738.572C137.559 738.252 137.485 737.948 137.357 737.66C137.239 737.372 137.074 737.127 136.861 736.924C136.658 736.711 136.413 736.545 136.125 736.428C135.847 736.3 135.538 736.236 135.197 736.236C134.845 736.236 134.525 736.3 134.237 736.428C133.959 736.545 133.719 736.711 133.517 736.924C133.314 737.137 133.154 737.388 133.037 737.676C132.919 737.953 132.85 738.252 132.829 738.572H137.581ZM138.892 740.876C138.711 741.804 138.311 742.503 137.693 742.972C137.074 743.441 136.295 743.676 135.357 743.676C134.695 743.676 134.119 743.569 133.629 743.356C133.149 743.143 132.743 742.844 132.413 742.46C132.082 742.076 131.831 741.617 131.661 741.084C131.501 740.551 131.41 739.969 131.389 739.34C131.389 738.711 131.485 738.135 131.677 737.612C131.869 737.089 132.135 736.636 132.477 736.252C132.829 735.868 133.239 735.569 133.709 735.356C134.189 735.143 134.711 735.036 135.277 735.036C136.013 735.036 136.621 735.191 137.101 735.5C137.591 735.799 137.981 736.183 138.269 736.652C138.567 737.121 138.77 737.633 138.877 738.188C138.994 738.743 139.042 739.271 139.021 739.772H132.829C132.818 740.135 132.861 740.481 132.957 740.812C133.053 741.132 133.207 741.42 133.421 741.676C133.634 741.921 133.906 742.119 134.237 742.268C134.567 742.417 134.957 742.492 135.405 742.492C135.981 742.492 136.45 742.359 136.813 742.092C137.186 741.825 137.431 741.42 137.549 740.876H138.892ZM142.318 735.228H143.966V736.428H142.318V741.564C142.318 741.724 142.329 741.852 142.35 741.948C142.382 742.044 142.436 742.119 142.51 742.172C142.585 742.225 142.686 742.263 142.814 742.284C142.953 742.295 143.129 742.3 143.342 742.3H143.966V743.5H142.926C142.574 743.5 142.27 743.479 142.014 743.436C141.769 743.383 141.566 743.292 141.406 743.164C141.257 743.036 141.145 742.855 141.07 742.62C140.996 742.385 140.958 742.076 140.958 741.692V736.428H139.55V735.228H140.958V732.748H142.318V735.228ZM146.469 739.372C146.469 739.873 146.533 740.321 146.661 740.716C146.8 741.1 146.986 741.425 147.221 741.692C147.456 741.948 147.728 742.145 148.037 742.284C148.357 742.423 148.693 742.492 149.045 742.492C149.397 742.492 149.728 742.423 150.037 742.284C150.357 742.145 150.634 741.948 150.869 741.692C151.104 741.425 151.285 741.1 151.413 740.716C151.552 740.321 151.621 739.873 151.621 739.372C151.621 738.871 151.552 738.428 151.413 738.044C151.285 737.649 151.104 737.319 150.869 737.052C150.634 736.785 150.357 736.583 150.037 736.444C149.728 736.305 149.397 736.236 149.045 736.236C148.693 736.236 148.357 736.305 148.037 736.444C147.728 736.583 147.456 736.785 147.221 737.052C146.986 737.319 146.8 737.649 146.661 738.044C146.533 738.428 146.469 738.871 146.469 739.372ZM145.029 739.372C145.029 738.764 145.114 738.199 145.285 737.676C145.456 737.143 145.712 736.684 146.053 736.3C146.394 735.905 146.816 735.596 147.317 735.372C147.818 735.148 148.394 735.036 149.045 735.036C149.706 735.036 150.282 735.148 150.773 735.372C151.274 735.596 151.696 735.905 152.037 736.3C152.378 736.684 152.634 737.143 152.805 737.676C152.976 738.199 153.061 738.764 153.061 739.372C153.061 739.98 152.976 740.545 152.805 741.068C152.634 741.591 152.378 742.049 152.037 742.444C151.696 742.828 151.274 743.132 150.773 743.356C150.282 743.569 149.706 743.676 149.045 743.676C148.394 743.676 147.818 743.569 147.317 743.356C146.816 743.132 146.394 742.828 146.053 742.444C145.712 742.049 145.456 741.591 145.285 741.068C145.114 740.545 145.029 739.98 145.029 739.372ZM154.665 735.228H155.945V736.54H155.977C156.542 735.537 157.438 735.036 158.665 735.036C159.209 735.036 159.662 735.111 160.025 735.26C160.387 735.409 160.681 735.617 160.905 735.884C161.129 736.151 161.283 736.471 161.369 736.844C161.465 737.207 161.513 737.612 161.513 738.06V743.5H160.153V737.9C160.153 737.388 160.003 736.983 159.705 736.684C159.406 736.385 158.995 736.236 158.473 736.236C158.057 736.236 157.694 736.3 157.385 736.428C157.086 736.556 156.835 736.737 156.633 736.972C156.43 737.207 156.275 737.484 156.169 737.804C156.073 738.113 156.025 738.455 156.025 738.828V743.5H154.665V735.228Z" fill="black" fill-opacity="0.68"/>
<g clip-path="url(#clip0_57321_91880)">
<g clip-path="url(#clip1_57321_91880)">
<rect width="224" height="44" transform="translate(276 716)" fill="black" fill-opacity="0.04"/>
</g>
</g>
<defs>
<clipPath id="clip0_57321_91880">
<rect width="224" height="52" fill="white" transform="translate(276 712)"/>
</clipPath>
<clipPath id="clip1_57321_91880">
<rect width="224" height="52" fill="white" transform="translate(276 712)"/>
</clipPath>
</defs>
</svg>
