<svg width="600" height="476" viewBox="0 0 600 476" fill="none" xmlns="http://www.w3.org/2000/svg">
<rect width="600" height="476" fill="black" fill-opacity="0.04"/>
<path d="M107.856 123.42C107.771 122.599 107.472 122.007 106.96 121.644C106.459 121.271 105.813 121.084 105.024 121.084C104.704 121.084 104.389 121.116 104.08 121.18C103.771 121.244 103.493 121.351 103.248 121.5C103.013 121.649 102.821 121.852 102.672 122.108C102.533 122.353 102.464 122.663 102.464 123.036C102.464 123.388 102.565 123.676 102.768 123.9C102.981 124.113 103.259 124.289 103.6 124.428C103.952 124.567 104.347 124.684 104.784 124.78C105.221 124.865 105.664 124.961 106.112 125.068C106.571 125.175 107.019 125.303 107.456 125.452C107.893 125.591 108.283 125.783 108.624 126.028C108.976 126.273 109.253 126.583 109.456 126.956C109.669 127.329 109.776 127.799 109.776 128.364C109.776 128.972 109.637 129.495 109.36 129.932C109.093 130.359 108.747 130.711 108.32 130.988C107.893 131.255 107.413 131.447 106.88 131.564C106.357 131.692 105.835 131.756 105.312 131.756C104.672 131.756 104.064 131.676 103.488 131.516C102.923 131.356 102.421 131.116 101.984 130.796C101.557 130.465 101.216 130.049 100.96 129.548C100.715 129.036 100.592 128.433 100.592 127.74H102.032C102.032 128.22 102.123 128.636 102.304 128.988C102.496 129.329 102.741 129.612 103.04 129.836C103.349 130.06 103.707 130.225 104.112 130.332C104.517 130.439 104.933 130.492 105.36 130.492C105.701 130.492 106.043 130.46 106.384 130.396C106.736 130.332 107.051 130.225 107.328 130.076C107.605 129.916 107.829 129.703 108 129.436C108.171 129.169 108.256 128.828 108.256 128.412C108.256 128.017 108.149 127.697 107.936 127.452C107.733 127.207 107.456 127.009 107.104 126.86C106.763 126.7 106.373 126.572 105.936 126.476C105.499 126.38 105.051 126.284 104.592 126.188C104.144 126.081 103.701 125.964 103.264 125.836C102.827 125.697 102.432 125.521 102.08 125.308C101.739 125.084 101.461 124.801 101.248 124.46C101.045 124.108 100.944 123.671 100.944 123.148C100.944 122.572 101.061 122.076 101.296 121.66C101.531 121.233 101.84 120.887 102.224 120.62C102.619 120.343 103.061 120.14 103.552 120.012C104.053 119.873 104.565 119.804 105.088 119.804C105.675 119.804 106.219 119.873 106.72 120.012C107.221 120.151 107.659 120.369 108.032 120.668C108.416 120.967 108.715 121.345 108.928 121.804C109.152 122.252 109.275 122.791 109.296 123.42H107.856ZM117.143 126.572C117.122 126.252 117.047 125.948 116.919 125.66C116.802 125.372 116.636 125.127 116.423 124.924C116.22 124.711 115.975 124.545 115.687 124.428C115.41 124.3 115.1 124.236 114.759 124.236C114.407 124.236 114.087 124.3 113.799 124.428C113.522 124.545 113.282 124.711 113.079 124.924C112.876 125.137 112.716 125.388 112.599 125.676C112.482 125.953 112.412 126.252 112.391 126.572H117.143ZM118.455 128.876C118.274 129.804 117.874 130.503 117.255 130.972C116.636 131.441 115.858 131.676 114.919 131.676C114.258 131.676 113.682 131.569 113.191 131.356C112.711 131.143 112.306 130.844 111.975 130.46C111.644 130.076 111.394 129.617 111.223 129.084C111.063 128.551 110.972 127.969 110.951 127.34C110.951 126.711 111.047 126.135 111.239 125.612C111.431 125.089 111.698 124.636 112.039 124.252C112.391 123.868 112.802 123.569 113.271 123.356C113.751 123.143 114.274 123.036 114.839 123.036C115.575 123.036 116.183 123.191 116.663 123.5C117.154 123.799 117.543 124.183 117.831 124.652C118.13 125.121 118.332 125.633 118.439 126.188C118.556 126.743 118.604 127.271 118.583 127.772H112.391C112.38 128.135 112.423 128.481 112.519 128.812C112.615 129.132 112.77 129.42 112.983 129.676C113.196 129.921 113.468 130.119 113.799 130.268C114.13 130.417 114.519 130.492 114.967 130.492C115.543 130.492 116.012 130.359 116.375 130.092C116.748 129.825 116.994 129.42 117.111 128.876H118.455ZM120.073 120.076H121.433V131.5H120.073V120.076ZM129.284 126.572C129.262 126.252 129.188 125.948 129.06 125.66C128.942 125.372 128.777 125.127 128.564 124.924C128.361 124.711 128.116 124.545 127.828 124.428C127.55 124.3 127.241 124.236 126.9 124.236C126.548 124.236 126.228 124.3 125.94 124.428C125.662 124.545 125.422 124.711 125.22 124.924C125.017 125.137 124.857 125.388 124.74 125.676C124.622 125.953 124.553 126.252 124.532 126.572H129.284ZM130.596 128.876C130.414 129.804 130.014 130.503 129.396 130.972C128.777 131.441 127.998 131.676 127.06 131.676C126.398 131.676 125.822 131.569 125.332 131.356C124.852 131.143 124.446 130.844 124.116 130.46C123.785 130.076 123.534 129.617 123.364 129.084C123.204 128.551 123.113 127.969 123.092 127.34C123.092 126.711 123.188 126.135 123.38 125.612C123.572 125.089 123.838 124.636 124.18 124.252C124.532 123.868 124.942 123.569 125.412 123.356C125.892 123.143 126.414 123.036 126.98 123.036C127.716 123.036 128.324 123.191 128.804 123.5C129.294 123.799 129.684 124.183 129.972 124.652C130.27 125.121 130.473 125.633 130.58 126.188C130.697 126.743 130.745 127.271 130.724 127.772H124.532C124.521 128.135 124.564 128.481 124.66 128.812C124.756 129.132 124.91 129.42 125.124 129.676C125.337 129.921 125.609 130.119 125.94 130.268C126.27 130.417 126.66 130.492 127.108 130.492C127.684 130.492 128.153 130.359 128.516 130.092C128.889 129.825 129.134 129.42 129.252 128.876H130.596ZM137.749 125.884C137.643 125.361 137.419 124.956 137.077 124.668C136.736 124.38 136.277 124.236 135.701 124.236C135.211 124.236 134.8 124.327 134.469 124.508C134.139 124.689 133.872 124.929 133.669 125.228C133.477 125.527 133.339 125.873 133.253 126.268C133.168 126.652 133.125 127.052 133.125 127.468C133.125 127.852 133.168 128.225 133.253 128.588C133.349 128.951 133.493 129.276 133.685 129.564C133.877 129.841 134.128 130.065 134.437 130.236C134.747 130.407 135.115 130.492 135.541 130.492C136.213 130.492 136.736 130.316 137.109 129.964C137.493 129.612 137.728 129.116 137.813 128.476H139.205C139.056 129.5 138.672 130.289 138.053 130.844C137.445 131.399 136.613 131.676 135.557 131.676C134.928 131.676 134.368 131.575 133.877 131.372C133.397 131.169 132.992 130.881 132.661 130.508C132.341 130.135 132.096 129.692 131.925 129.18C131.765 128.657 131.685 128.087 131.685 127.468C131.685 126.849 131.765 126.273 131.925 125.74C132.085 125.196 132.325 124.727 132.645 124.332C132.976 123.927 133.387 123.612 133.877 123.388C134.368 123.153 134.939 123.036 135.589 123.036C136.059 123.036 136.496 123.095 136.901 123.212C137.317 123.319 137.68 123.489 137.989 123.724C138.309 123.959 138.571 124.257 138.773 124.62C138.976 124.972 139.104 125.393 139.157 125.884H137.749ZM142.615 123.228H144.263V124.428H142.615V129.564C142.615 129.724 142.626 129.852 142.647 129.948C142.679 130.044 142.732 130.119 142.807 130.172C142.882 130.225 142.983 130.263 143.111 130.284C143.25 130.295 143.426 130.3 143.639 130.3H144.263V131.5H143.223C142.871 131.5 142.567 131.479 142.311 131.436C142.066 131.383 141.863 131.292 141.703 131.164C141.554 131.036 141.442 130.855 141.367 130.62C141.292 130.385 141.255 130.076 141.255 129.692V124.428H139.847V123.228H141.255V120.748H142.615V123.228ZM151.518 126.572C151.497 126.252 151.422 125.948 151.294 125.66C151.177 125.372 151.011 125.127 150.798 124.924C150.595 124.711 150.35 124.545 150.062 124.428C149.785 124.3 149.475 124.236 149.134 124.236C148.782 124.236 148.462 124.3 148.174 124.428C147.897 124.545 147.657 124.711 147.454 124.924C147.251 125.137 147.091 125.388 146.974 125.676C146.857 125.953 146.787 126.252 146.766 126.572H151.518ZM152.83 128.876C152.649 129.804 152.249 130.503 151.63 130.972C151.011 131.441 150.233 131.676 149.294 131.676C148.633 131.676 148.057 131.569 147.566 131.356C147.086 131.143 146.681 130.844 146.35 130.46C146.019 130.076 145.769 129.617 145.598 129.084C145.438 128.551 145.347 127.969 145.326 127.34C145.326 126.711 145.422 126.135 145.614 125.612C145.806 125.089 146.073 124.636 146.414 124.252C146.766 123.868 147.177 123.569 147.646 123.356C148.126 123.143 148.649 123.036 149.214 123.036C149.95 123.036 150.558 123.191 151.038 123.5C151.529 123.799 151.918 124.183 152.206 124.652C152.505 125.121 152.707 125.633 152.814 126.188C152.931 126.743 152.979 127.271 152.958 127.772H146.766C146.755 128.135 146.798 128.481 146.894 128.812C146.99 129.132 147.145 129.42 147.358 129.676C147.571 129.921 147.843 130.119 148.174 130.268C148.505 130.417 148.894 130.492 149.342 130.492C149.918 130.492 150.387 130.359 150.75 130.092C151.123 129.825 151.369 129.42 151.486 128.876H152.83ZM155.36 127.436C155.36 127.82 155.408 128.199 155.504 128.572C155.61 128.935 155.765 129.26 155.968 129.548C156.181 129.836 156.448 130.065 156.768 130.236C157.098 130.407 157.482 130.492 157.92 130.492C158.378 130.492 158.768 130.401 159.088 130.22C159.408 130.039 159.669 129.804 159.872 129.516C160.074 129.217 160.218 128.881 160.304 128.508C160.4 128.135 160.448 127.756 160.448 127.372C160.448 126.967 160.4 126.577 160.304 126.204C160.208 125.82 160.053 125.484 159.84 125.196C159.637 124.908 159.37 124.679 159.04 124.508C158.709 124.327 158.309 124.236 157.84 124.236C157.381 124.236 156.992 124.327 156.672 124.508C156.352 124.689 156.096 124.929 155.904 125.228C155.712 125.527 155.573 125.868 155.488 126.252C155.402 126.636 155.36 127.031 155.36 127.436ZM161.76 131.5H160.4V130.38H160.368C160.144 130.839 159.792 131.169 159.312 131.372C158.832 131.575 158.304 131.676 157.728 131.676C157.088 131.676 156.528 131.559 156.048 131.324C155.578 131.089 155.184 130.775 154.864 130.38C154.554 129.985 154.32 129.527 154.16 129.004C154 128.481 153.92 127.927 153.92 127.34C153.92 126.753 153.994 126.199 154.144 125.676C154.304 125.153 154.538 124.7 154.848 124.316C155.168 123.921 155.562 123.612 156.032 123.388C156.512 123.153 157.066 123.036 157.696 123.036C157.909 123.036 158.138 123.057 158.384 123.1C158.629 123.143 158.874 123.217 159.12 123.324C159.365 123.42 159.594 123.553 159.808 123.724C160.032 123.884 160.218 124.087 160.368 124.332H160.4V120.076H161.76V131.5Z" fill="black" fill-opacity="0.68"/>
<g clip-path="url(#clip0_82204_59264)">
<mask id="path-2-inside-1_82204_59264" fill="white">
<path d="M292 116H312V136H292V116Z"/>
</mask>
<g clip-path="url(#clip1_82204_59264)">
<g clip-path="url(#clip2_82204_59264)">
<path d="M306.528 121.625C307.049 121.625 307.471 122.017 307.471 122.5C307.471 122.707 307.394 122.897 307.264 123.047L301.227 130.047C301.054 130.247 300.789 130.375 300.491 130.375C300.193 130.375 299.927 130.247 299.754 130.047L296.736 126.547C296.607 126.397 296.529 126.207 296.529 126C296.529 125.758 296.635 125.54 296.805 125.381L297.183 125.032C297.353 124.873 297.589 124.775 297.85 124.775C298.084 124.775 298.298 124.854 298.463 124.985L300.302 126.875L305.882 121.862C306.051 121.715 306.278 121.625 306.528 121.625Z" fill="#F15E00"/>
</g>
</g>
</g>
<path d="M292 116V114H290V116H292ZM312 116H314V114H312V116ZM312 136V138H314V136H312ZM292 136H290V138H292V136ZM292 116V118H312V116V114H292V116ZM312 116H310V136H312H314V116H312ZM312 136V134H292V136V138H312V136ZM292 136H294V116H292H290V136H292Z" fill="#F15E00" mask="url(#path-2-inside-1_82204_59264)"/>
<path d="M325.248 120.576H326.768V130.72H332.816V132H325.248V120.576ZM341.443 131.968C341.208 132.107 340.883 132.176 340.467 132.176C340.115 132.176 339.832 132.08 339.619 131.888C339.416 131.685 339.315 131.36 339.315 130.912C338.941 131.36 338.504 131.685 338.003 131.888C337.512 132.08 336.979 132.176 336.403 132.176C336.029 132.176 335.672 132.133 335.331 132.048C335 131.963 334.712 131.829 334.467 131.648C334.221 131.467 334.024 131.232 333.875 130.944C333.736 130.645 333.667 130.288 333.667 129.872C333.667 129.403 333.747 129.019 333.907 128.72C334.067 128.421 334.275 128.181 334.531 128C334.797 127.808 335.096 127.664 335.427 127.568C335.768 127.472 336.115 127.392 336.467 127.328C336.84 127.253 337.192 127.2 337.523 127.168C337.864 127.125 338.163 127.072 338.419 127.008C338.675 126.933 338.877 126.832 339.027 126.704C339.176 126.565 339.251 126.368 339.251 126.112C339.251 125.813 339.192 125.573 339.075 125.392C338.968 125.211 338.824 125.072 338.643 124.976C338.472 124.88 338.275 124.816 338.051 124.784C337.837 124.752 337.624 124.736 337.411 124.736C336.835 124.736 336.355 124.848 335.971 125.072C335.587 125.285 335.379 125.696 335.347 126.304H333.987C334.008 125.792 334.115 125.36 334.307 125.008C334.499 124.656 334.755 124.373 335.075 124.16C335.395 123.936 335.757 123.776 336.163 123.68C336.579 123.584 337.021 123.536 337.491 123.536C337.864 123.536 338.232 123.563 338.595 123.616C338.968 123.669 339.304 123.781 339.603 123.952C339.901 124.112 340.141 124.341 340.323 124.64C340.504 124.939 340.595 125.328 340.595 125.808V130.064C340.595 130.384 340.611 130.619 340.643 130.768C340.685 130.917 340.813 130.992 341.027 130.992C341.144 130.992 341.283 130.965 341.443 130.912V131.968ZM339.235 127.728C339.064 127.856 338.84 127.952 338.563 128.016C338.285 128.069 337.992 128.117 337.683 128.16C337.384 128.192 337.08 128.235 336.771 128.288C336.461 128.331 336.184 128.405 335.939 128.512C335.693 128.619 335.491 128.773 335.331 128.976C335.181 129.168 335.107 129.435 335.107 129.776C335.107 130 335.149 130.192 335.235 130.352C335.331 130.501 335.448 130.624 335.587 130.72C335.736 130.816 335.907 130.885 336.099 130.928C336.291 130.971 336.493 130.992 336.707 130.992C337.155 130.992 337.539 130.933 337.859 130.816C338.179 130.688 338.44 130.533 338.643 130.352C338.845 130.16 338.995 129.957 339.091 129.744C339.187 129.52 339.235 129.312 339.235 129.12V127.728ZM342.956 120.576H344.316V124.848H344.348C344.572 124.389 344.924 124.059 345.404 123.856C345.884 123.643 346.412 123.536 346.988 123.536C347.628 123.536 348.183 123.653 348.652 123.888C349.132 124.123 349.527 124.443 349.836 124.848C350.156 125.243 350.396 125.701 350.556 126.224C350.716 126.747 350.796 127.301 350.796 127.888C350.796 128.475 350.716 129.029 350.556 129.552C350.407 130.075 350.172 130.533 349.852 130.928C349.543 131.312 349.148 131.616 348.668 131.84C348.199 132.064 347.65 132.176 347.02 132.176C346.818 132.176 346.588 132.155 346.332 132.112C346.087 132.069 345.842 132 345.596 131.904C345.351 131.808 345.116 131.68 344.892 131.52C344.679 131.349 344.498 131.141 344.348 130.896H344.316V132H342.956V120.576ZM349.356 127.792C349.356 127.408 349.303 127.035 349.196 126.672C349.1 126.299 348.946 125.968 348.732 125.68C348.53 125.392 348.263 125.163 347.932 124.992C347.612 124.821 347.234 124.736 346.796 124.736C346.338 124.736 345.948 124.827 345.628 125.008C345.308 125.189 345.047 125.429 344.844 125.728C344.642 126.016 344.492 126.347 344.396 126.72C344.311 127.093 344.268 127.472 344.268 127.856C344.268 128.261 344.316 128.656 344.412 129.04C344.508 129.413 344.658 129.744 344.86 130.032C345.074 130.32 345.346 130.555 345.676 130.736C346.007 130.907 346.407 130.992 346.876 130.992C347.346 130.992 347.735 130.901 348.044 130.72C348.364 130.539 348.62 130.299 348.812 130C349.004 129.701 349.143 129.36 349.228 128.976C349.314 128.592 349.356 128.197 349.356 127.792ZM358.337 127.072C358.315 126.752 358.241 126.448 358.113 126.16C357.995 125.872 357.83 125.627 357.617 125.424C357.414 125.211 357.169 125.045 356.881 124.928C356.603 124.8 356.294 124.736 355.953 124.736C355.601 124.736 355.281 124.8 354.993 124.928C354.715 125.045 354.475 125.211 354.273 125.424C354.07 125.637 353.91 125.888 353.793 126.176C353.675 126.453 353.606 126.752 353.585 127.072H358.337ZM359.649 129.376C359.467 130.304 359.067 131.003 358.449 131.472C357.83 131.941 357.051 132.176 356.113 132.176C355.451 132.176 354.875 132.069 354.385 131.856C353.905 131.643 353.499 131.344 353.169 130.96C352.838 130.576 352.587 130.117 352.417 129.584C352.257 129.051 352.166 128.469 352.145 127.84C352.145 127.211 352.241 126.635 352.433 126.112C352.625 125.589 352.891 125.136 353.233 124.752C353.585 124.368 353.995 124.069 354.465 123.856C354.945 123.643 355.467 123.536 356.033 123.536C356.769 123.536 357.377 123.691 357.857 124C358.347 124.299 358.737 124.683 359.025 125.152C359.323 125.621 359.526 126.133 359.633 126.688C359.75 127.243 359.798 127.771 359.777 128.272H353.585C353.574 128.635 353.617 128.981 353.713 129.312C353.809 129.632 353.963 129.92 354.177 130.176C354.39 130.421 354.662 130.619 354.993 130.768C355.323 130.917 355.713 130.992 356.161 130.992C356.737 130.992 357.206 130.859 357.569 130.592C357.942 130.325 358.187 129.92 358.305 129.376H359.649ZM361.466 120.576H362.826V132H361.466V120.576Z" fill="black"/>
<path d="M110.368 239.372C110.368 240.833 109.979 241.932 109.2 242.668C108.421 243.393 107.312 243.756 105.872 243.756C104.4 243.756 103.248 243.409 102.416 242.716C101.595 242.012 101.184 240.897 101.184 239.372V232.076H102.704V239.372C102.704 240.396 102.976 241.175 103.52 241.708C104.064 242.231 104.848 242.492 105.872 242.492C106.843 242.492 107.579 242.231 108.08 241.708C108.592 241.175 108.848 240.396 108.848 239.372V232.076H110.368V239.372ZM112.571 235.228H113.851V236.54H113.883C114.448 235.537 115.344 235.036 116.571 235.036C117.115 235.036 117.568 235.111 117.931 235.26C118.294 235.409 118.587 235.617 118.811 235.884C119.035 236.151 119.19 236.471 119.275 236.844C119.371 237.207 119.419 237.612 119.419 238.06V243.5H118.059V237.9C118.059 237.388 117.91 236.983 117.611 236.684C117.312 236.385 116.902 236.236 116.379 236.236C115.963 236.236 115.6 236.3 115.291 236.428C114.992 236.556 114.742 236.737 114.539 236.972C114.336 237.207 114.182 237.484 114.075 237.804C113.979 238.113 113.931 238.455 113.931 238.828V243.5H112.571V235.228ZM122.294 240.892C122.304 241.191 122.374 241.447 122.502 241.66C122.63 241.863 122.795 242.028 122.998 242.156C123.211 242.273 123.446 242.359 123.702 242.412C123.968 242.465 124.24 242.492 124.518 242.492C124.731 242.492 124.955 242.476 125.19 242.444C125.424 242.412 125.638 242.353 125.83 242.268C126.032 242.183 126.198 242.06 126.326 241.9C126.454 241.729 126.518 241.516 126.518 241.26C126.518 240.908 126.384 240.641 126.118 240.46C125.851 240.279 125.515 240.135 125.11 240.028C124.715 239.911 124.283 239.809 123.814 239.724C123.344 239.628 122.907 239.5 122.502 239.34C122.107 239.169 121.776 238.935 121.51 238.636C121.243 238.337 121.11 237.921 121.11 237.388C121.11 236.972 121.2 236.615 121.382 236.316C121.574 236.017 121.814 235.777 122.102 235.596C122.4 235.404 122.731 235.265 123.094 235.18C123.467 235.084 123.835 235.036 124.198 235.036C124.667 235.036 125.099 235.079 125.494 235.164C125.888 235.239 126.235 235.377 126.534 235.58C126.843 235.772 127.088 236.039 127.27 236.38C127.451 236.711 127.558 237.127 127.59 237.628H126.23C126.208 237.361 126.139 237.143 126.022 236.972C125.904 236.791 125.755 236.647 125.574 236.54C125.392 236.433 125.19 236.359 124.966 236.316C124.752 236.263 124.534 236.236 124.31 236.236C124.107 236.236 123.899 236.252 123.686 236.284C123.483 236.316 123.296 236.375 123.126 236.46C122.955 236.535 122.816 236.641 122.71 236.78C122.603 236.908 122.549 237.079 122.549 237.292C122.549 237.527 122.629 237.724 122.789 237.884C122.96 238.033 123.174 238.161 123.43 238.268C123.686 238.364 123.974 238.449 124.294 238.524C124.614 238.588 124.934 238.657 125.254 238.732C125.595 238.807 125.926 238.897 126.246 239.004C126.576 239.111 126.864 239.255 127.11 239.436C127.366 239.607 127.568 239.825 127.718 240.092C127.878 240.359 127.958 240.689 127.958 241.084C127.958 241.585 127.851 242.001 127.638 242.332C127.435 242.663 127.163 242.929 126.822 243.132C126.491 243.335 126.112 243.473 125.686 243.548C125.27 243.633 124.854 243.676 124.438 243.676C123.979 243.676 123.542 243.628 123.126 243.532C122.71 243.436 122.342 243.281 122.022 243.068C121.702 242.844 121.446 242.556 121.254 242.204C121.062 241.841 120.955 241.404 120.934 240.892H122.294ZM135.206 238.572C135.184 238.252 135.11 237.948 134.982 237.66C134.864 237.372 134.699 237.127 134.486 236.924C134.283 236.711 134.038 236.545 133.75 236.428C133.472 236.3 133.163 236.236 132.822 236.236C132.47 236.236 132.15 236.3 131.862 236.428C131.584 236.545 131.344 236.711 131.142 236.924C130.939 237.137 130.779 237.388 130.662 237.676C130.544 237.953 130.475 238.252 130.454 238.572H135.206ZM136.517 240.876C136.336 241.804 135.936 242.503 135.318 242.972C134.699 243.441 133.92 243.676 132.982 243.676C132.32 243.676 131.744 243.569 131.254 243.356C130.774 243.143 130.368 242.844 130.038 242.46C129.707 242.076 129.456 241.617 129.286 241.084C129.126 240.551 129.035 239.969 129.014 239.34C129.014 238.711 129.11 238.135 129.302 237.612C129.494 237.089 129.76 236.636 130.102 236.252C130.454 235.868 130.864 235.569 131.334 235.356C131.814 235.143 132.336 235.036 132.902 235.036C133.638 235.036 134.246 235.191 134.726 235.5C135.216 235.799 135.606 236.183 135.894 236.652C136.192 237.121 136.395 237.633 136.502 238.188C136.619 238.743 136.667 239.271 136.646 239.772H130.454C130.443 240.135 130.486 240.481 130.582 240.812C130.678 241.132 130.832 241.42 131.046 241.676C131.259 241.921 131.531 242.119 131.862 242.268C132.192 242.417 132.582 242.492 133.03 242.492C133.606 242.492 134.075 242.359 134.438 242.092C134.811 241.825 135.056 241.42 135.174 240.876H136.517ZM138.135 232.076H139.495V243.5H138.135V232.076ZM147.346 238.572C147.325 238.252 147.25 237.948 147.122 237.66C147.005 237.372 146.839 237.127 146.626 236.924C146.423 236.711 146.178 236.545 145.89 236.428C145.613 236.3 145.303 236.236 144.962 236.236C144.61 236.236 144.29 236.3 144.002 236.428C143.725 236.545 143.485 236.711 143.282 236.924C143.079 237.137 142.919 237.388 142.802 237.676C142.685 237.953 142.615 238.252 142.594 238.572H147.346ZM148.658 240.876C148.477 241.804 148.077 242.503 147.458 242.972C146.839 243.441 146.061 243.676 145.122 243.676C144.461 243.676 143.885 243.569 143.394 243.356C142.914 243.143 142.509 242.844 142.178 242.46C141.847 242.076 141.597 241.617 141.426 241.084C141.266 240.551 141.175 239.969 141.154 239.34C141.154 238.711 141.25 238.135 141.442 237.612C141.634 237.089 141.901 236.636 142.242 236.252C142.594 235.868 143.005 235.569 143.474 235.356C143.954 235.143 144.477 235.036 145.042 235.036C145.778 235.036 146.386 235.191 146.866 235.5C147.357 235.799 147.746 236.183 148.034 236.652C148.333 237.121 148.535 237.633 148.642 238.188C148.759 238.743 148.807 239.271 148.786 239.772H142.594C142.583 240.135 142.626 240.481 142.722 240.812C142.818 241.132 142.973 241.42 143.186 241.676C143.399 241.921 143.671 242.119 144.002 242.268C144.333 242.417 144.722 242.492 145.17 242.492C145.746 242.492 146.215 242.359 146.578 242.092C146.951 241.825 147.197 241.42 147.314 240.876H148.658ZM155.812 237.884C155.705 237.361 155.481 236.956 155.14 236.668C154.799 236.38 154.34 236.236 153.764 236.236C153.273 236.236 152.863 236.327 152.532 236.508C152.201 236.689 151.935 236.929 151.732 237.228C151.54 237.527 151.401 237.873 151.316 238.268C151.231 238.652 151.188 239.052 151.188 239.468C151.188 239.852 151.231 240.225 151.316 240.588C151.412 240.951 151.556 241.276 151.748 241.564C151.94 241.841 152.191 242.065 152.5 242.236C152.809 242.407 153.177 242.492 153.604 242.492C154.276 242.492 154.799 242.316 155.172 241.964C155.556 241.612 155.791 241.116 155.876 240.476H157.268C157.119 241.5 156.735 242.289 156.116 242.844C155.508 243.399 154.676 243.676 153.62 243.676C152.991 243.676 152.431 243.575 151.94 243.372C151.46 243.169 151.055 242.881 150.724 242.508C150.404 242.135 150.159 241.692 149.988 241.18C149.828 240.657 149.748 240.087 149.748 239.468C149.748 238.849 149.828 238.273 149.988 237.74C150.148 237.196 150.388 236.727 150.708 236.332C151.039 235.927 151.449 235.612 151.94 235.388C152.431 235.153 153.001 235.036 153.652 235.036C154.121 235.036 154.559 235.095 154.964 235.212C155.38 235.319 155.743 235.489 156.052 235.724C156.372 235.959 156.633 236.257 156.836 236.62C157.039 236.972 157.167 237.393 157.22 237.884H155.812ZM160.678 235.228H162.326V236.428H160.678V241.564C160.678 241.724 160.688 241.852 160.71 241.948C160.742 242.044 160.795 242.119 160.87 242.172C160.944 242.225 161.046 242.263 161.174 242.284C161.312 242.295 161.488 242.3 161.702 242.3H162.326V243.5H161.286C160.934 243.5 160.63 243.479 160.374 243.436C160.128 243.383 159.926 243.292 159.766 243.164C159.616 243.036 159.504 242.855 159.43 242.62C159.355 242.385 159.318 242.076 159.318 241.692V236.428H157.91V235.228H159.318V232.748H160.678V235.228ZM169.581 238.572C169.559 238.252 169.485 237.948 169.357 237.66C169.239 237.372 169.074 237.127 168.861 236.924C168.658 236.711 168.413 236.545 168.125 236.428C167.847 236.3 167.538 236.236 167.197 236.236C166.845 236.236 166.525 236.3 166.237 236.428C165.959 236.545 165.719 236.711 165.517 236.924C165.314 237.137 165.154 237.388 165.037 237.676C164.919 237.953 164.85 238.252 164.829 238.572H169.581ZM170.892 240.876C170.711 241.804 170.311 242.503 169.693 242.972C169.074 243.441 168.295 243.676 167.357 243.676C166.695 243.676 166.119 243.569 165.629 243.356C165.149 243.143 164.743 242.844 164.413 242.46C164.082 242.076 163.831 241.617 163.661 241.084C163.501 240.551 163.41 239.969 163.389 239.34C163.389 238.711 163.485 238.135 163.677 237.612C163.869 237.089 164.135 236.636 164.477 236.252C164.829 235.868 165.239 235.569 165.709 235.356C166.189 235.143 166.711 235.036 167.277 235.036C168.013 235.036 168.621 235.191 169.101 235.5C169.591 235.799 169.981 236.183 170.269 236.652C170.567 237.121 170.77 237.633 170.877 238.188C170.994 238.743 171.042 239.271 171.021 239.772H164.829C164.818 240.135 164.861 240.481 164.957 240.812C165.053 241.132 165.207 241.42 165.421 241.676C165.634 241.921 165.906 242.119 166.237 242.268C166.567 242.417 166.957 242.492 167.405 242.492C167.981 242.492 168.45 242.359 168.813 242.092C169.186 241.825 169.431 241.42 169.549 240.876H170.892ZM173.422 239.436C173.422 239.82 173.47 240.199 173.566 240.572C173.673 240.935 173.828 241.26 174.03 241.548C174.244 241.836 174.51 242.065 174.83 242.236C175.161 242.407 175.545 242.492 175.982 242.492C176.441 242.492 176.83 242.401 177.15 242.22C177.47 242.039 177.732 241.804 177.934 241.516C178.137 241.217 178.281 240.881 178.366 240.508C178.462 240.135 178.51 239.756 178.51 239.372C178.51 238.967 178.462 238.577 178.366 238.204C178.27 237.82 178.116 237.484 177.902 237.196C177.7 236.908 177.433 236.679 177.102 236.508C176.772 236.327 176.372 236.236 175.902 236.236C175.444 236.236 175.054 236.327 174.734 236.508C174.414 236.689 174.158 236.929 173.966 237.228C173.774 237.527 173.636 237.868 173.55 238.252C173.465 238.636 173.422 239.031 173.422 239.436ZM179.822 243.5H178.462V242.38H178.43C178.206 242.839 177.854 243.169 177.374 243.372C176.894 243.575 176.366 243.676 175.79 243.676C175.15 243.676 174.59 243.559 174.11 243.324C173.641 243.089 173.246 242.775 172.926 242.38C172.617 241.985 172.382 241.527 172.222 241.004C172.062 240.481 171.982 239.927 171.982 239.34C171.982 238.753 172.057 238.199 172.206 237.676C172.366 237.153 172.601 236.7 172.91 236.316C173.23 235.921 173.625 235.612 174.094 235.388C174.574 235.153 175.129 235.036 175.758 235.036C175.972 235.036 176.201 235.057 176.446 235.1C176.692 235.143 176.937 235.217 177.182 235.324C177.428 235.42 177.657 235.553 177.87 235.724C178.094 235.884 178.281 236.087 178.43 236.332H178.462V232.076H179.822V243.5Z" fill="black" fill-opacity="0.68"/>
<mask id="path-8-inside-2_82204_59264" fill="white">
<path d="M292 228H312V248H292V228Z"/>
</mask>
<path d="M292 228V227H291V228H292ZM312 228H313V227H312V228ZM312 248V249H313V248H312ZM292 248H291V249H292V248ZM292 228V229H312V228V227H292V228ZM312 228H311V248H312H313V228H312ZM312 248V247H292V248V249H312V248ZM292 248H293V228H292H291V248H292Z" fill="black" mask="url(#path-8-inside-2_82204_59264)"/>
<path d="M325.248 232.576H326.768V242.72H332.816V244H325.248V232.576ZM341.443 243.968C341.208 244.107 340.883 244.176 340.467 244.176C340.115 244.176 339.832 244.08 339.619 243.888C339.416 243.685 339.315 243.36 339.315 242.912C338.941 243.36 338.504 243.685 338.003 243.888C337.512 244.08 336.979 244.176 336.403 244.176C336.029 244.176 335.672 244.133 335.331 244.048C335 243.963 334.712 243.829 334.467 243.648C334.221 243.467 334.024 243.232 333.875 242.944C333.736 242.645 333.667 242.288 333.667 241.872C333.667 241.403 333.747 241.019 333.907 240.72C334.067 240.421 334.275 240.181 334.531 240C334.797 239.808 335.096 239.664 335.427 239.568C335.768 239.472 336.115 239.392 336.467 239.328C336.84 239.253 337.192 239.2 337.523 239.168C337.864 239.125 338.163 239.072 338.419 239.008C338.675 238.933 338.877 238.832 339.027 238.704C339.176 238.565 339.251 238.368 339.251 238.112C339.251 237.813 339.192 237.573 339.075 237.392C338.968 237.211 338.824 237.072 338.643 236.976C338.472 236.88 338.275 236.816 338.051 236.784C337.837 236.752 337.624 236.736 337.411 236.736C336.835 236.736 336.355 236.848 335.971 237.072C335.587 237.285 335.379 237.696 335.347 238.304H333.987C334.008 237.792 334.115 237.36 334.307 237.008C334.499 236.656 334.755 236.373 335.075 236.16C335.395 235.936 335.757 235.776 336.163 235.68C336.579 235.584 337.021 235.536 337.491 235.536C337.864 235.536 338.232 235.563 338.595 235.616C338.968 235.669 339.304 235.781 339.603 235.952C339.901 236.112 340.141 236.341 340.323 236.64C340.504 236.939 340.595 237.328 340.595 237.808V242.064C340.595 242.384 340.611 242.619 340.643 242.768C340.685 242.917 340.813 242.992 341.027 242.992C341.144 242.992 341.283 242.965 341.443 242.912V243.968ZM339.235 239.728C339.064 239.856 338.84 239.952 338.563 240.016C338.285 240.069 337.992 240.117 337.683 240.16C337.384 240.192 337.08 240.235 336.771 240.288C336.461 240.331 336.184 240.405 335.939 240.512C335.693 240.619 335.491 240.773 335.331 240.976C335.181 241.168 335.107 241.435 335.107 241.776C335.107 242 335.149 242.192 335.235 242.352C335.331 242.501 335.448 242.624 335.587 242.72C335.736 242.816 335.907 242.885 336.099 242.928C336.291 242.971 336.493 242.992 336.707 242.992C337.155 242.992 337.539 242.933 337.859 242.816C338.179 242.688 338.44 242.533 338.643 242.352C338.845 242.16 338.995 241.957 339.091 241.744C339.187 241.52 339.235 241.312 339.235 241.12V239.728ZM342.956 232.576H344.316V236.848H344.348C344.572 236.389 344.924 236.059 345.404 235.856C345.884 235.643 346.412 235.536 346.988 235.536C347.628 235.536 348.183 235.653 348.652 235.888C349.132 236.123 349.527 236.443 349.836 236.848C350.156 237.243 350.396 237.701 350.556 238.224C350.716 238.747 350.796 239.301 350.796 239.888C350.796 240.475 350.716 241.029 350.556 241.552C350.407 242.075 350.172 242.533 349.852 242.928C349.543 243.312 349.148 243.616 348.668 243.84C348.199 244.064 347.65 244.176 347.02 244.176C346.818 244.176 346.588 244.155 346.332 244.112C346.087 244.069 345.842 244 345.596 243.904C345.351 243.808 345.116 243.68 344.892 243.52C344.679 243.349 344.498 243.141 344.348 242.896H344.316V244H342.956V232.576ZM349.356 239.792C349.356 239.408 349.303 239.035 349.196 238.672C349.1 238.299 348.946 237.968 348.732 237.68C348.53 237.392 348.263 237.163 347.932 236.992C347.612 236.821 347.234 236.736 346.796 236.736C346.338 236.736 345.948 236.827 345.628 237.008C345.308 237.189 345.047 237.429 344.844 237.728C344.642 238.016 344.492 238.347 344.396 238.72C344.311 239.093 344.268 239.472 344.268 239.856C344.268 240.261 344.316 240.656 344.412 241.04C344.508 241.413 344.658 241.744 344.86 242.032C345.074 242.32 345.346 242.555 345.676 242.736C346.007 242.907 346.407 242.992 346.876 242.992C347.346 242.992 347.735 242.901 348.044 242.72C348.364 242.539 348.62 242.299 348.812 242C349.004 241.701 349.143 241.36 349.228 240.976C349.314 240.592 349.356 240.197 349.356 239.792ZM358.337 239.072C358.315 238.752 358.241 238.448 358.113 238.16C357.995 237.872 357.83 237.627 357.617 237.424C357.414 237.211 357.169 237.045 356.881 236.928C356.603 236.8 356.294 236.736 355.953 236.736C355.601 236.736 355.281 236.8 354.993 236.928C354.715 237.045 354.475 237.211 354.273 237.424C354.07 237.637 353.91 237.888 353.793 238.176C353.675 238.453 353.606 238.752 353.585 239.072H358.337ZM359.649 241.376C359.467 242.304 359.067 243.003 358.449 243.472C357.83 243.941 357.051 244.176 356.113 244.176C355.451 244.176 354.875 244.069 354.385 243.856C353.905 243.643 353.499 243.344 353.169 242.96C352.838 242.576 352.587 242.117 352.417 241.584C352.257 241.051 352.166 240.469 352.145 239.84C352.145 239.211 352.241 238.635 352.433 238.112C352.625 237.589 352.891 237.136 353.233 236.752C353.585 236.368 353.995 236.069 354.465 235.856C354.945 235.643 355.467 235.536 356.033 235.536C356.769 235.536 357.377 235.691 357.857 236C358.347 236.299 358.737 236.683 359.025 237.152C359.323 237.621 359.526 238.133 359.633 238.688C359.75 239.243 359.798 239.771 359.777 240.272H353.585C353.574 240.635 353.617 240.981 353.713 241.312C353.809 241.632 353.963 241.92 354.177 242.176C354.39 242.421 354.662 242.619 354.993 242.768C355.323 242.917 355.713 242.992 356.161 242.992C356.737 242.992 357.206 242.859 357.569 242.592C357.942 242.325 358.187 241.92 358.305 241.376H359.649ZM361.466 232.576H362.826V244H361.466V232.576Z" fill="black"/>
<path d="M101.312 344.076H102.832V355.5H101.312V344.076ZM105.165 347.228H106.445V348.54H106.477C107.042 347.537 107.938 347.036 109.165 347.036C109.709 347.036 110.162 347.111 110.525 347.26C110.887 347.409 111.181 347.617 111.405 347.884C111.629 348.151 111.783 348.471 111.869 348.844C111.965 349.207 112.013 349.612 112.013 350.06V355.5H110.653V349.9C110.653 349.388 110.503 348.983 110.205 348.684C109.906 348.385 109.495 348.236 108.973 348.236C108.557 348.236 108.194 348.3 107.885 348.428C107.586 348.556 107.335 348.737 107.133 348.972C106.93 349.207 106.775 349.484 106.669 349.804C106.573 350.113 106.525 350.455 106.525 350.828V355.5H105.165V347.228ZM115.047 351.436C115.047 351.82 115.095 352.199 115.191 352.572C115.298 352.935 115.453 353.26 115.655 353.548C115.869 353.836 116.135 354.065 116.455 354.236C116.786 354.407 117.17 354.492 117.607 354.492C118.066 354.492 118.455 354.401 118.775 354.22C119.095 354.039 119.357 353.804 119.559 353.516C119.762 353.217 119.906 352.881 119.991 352.508C120.087 352.135 120.135 351.756 120.135 351.372C120.135 350.967 120.087 350.577 119.991 350.204C119.895 349.82 119.741 349.484 119.527 349.196C119.325 348.908 119.058 348.679 118.727 348.508C118.397 348.327 117.997 348.236 117.527 348.236C117.069 348.236 116.679 348.327 116.359 348.508C116.039 348.689 115.783 348.929 115.591 349.228C115.399 349.527 115.261 349.868 115.175 350.252C115.09 350.636 115.047 351.031 115.047 351.436ZM121.447 355.5H120.087V354.38H120.055C119.831 354.839 119.479 355.169 118.999 355.372C118.519 355.575 117.991 355.676 117.415 355.676C116.775 355.676 116.215 355.559 115.735 355.324C115.266 355.089 114.871 354.775 114.551 354.38C114.242 353.985 114.007 353.527 113.847 353.004C113.687 352.481 113.607 351.927 113.607 351.34C113.607 350.753 113.682 350.199 113.831 349.676C113.991 349.153 114.226 348.7 114.535 348.316C114.855 347.921 115.25 347.612 115.719 347.388C116.199 347.153 116.754 347.036 117.383 347.036C117.597 347.036 117.826 347.057 118.071 347.1C118.317 347.143 118.562 347.217 118.807 347.324C119.053 347.42 119.282 347.553 119.495 347.724C119.719 347.884 119.906 348.087 120.055 348.332H120.087V344.076H121.447V355.5ZM129.284 350.572C129.262 350.252 129.188 349.948 129.06 349.66C128.942 349.372 128.777 349.127 128.564 348.924C128.361 348.711 128.116 348.545 127.828 348.428C127.55 348.3 127.241 348.236 126.9 348.236C126.548 348.236 126.228 348.3 125.94 348.428C125.662 348.545 125.422 348.711 125.22 348.924C125.017 349.137 124.857 349.388 124.74 349.676C124.622 349.953 124.553 350.252 124.532 350.572H129.284ZM130.596 352.876C130.414 353.804 130.014 354.503 129.396 354.972C128.777 355.441 127.998 355.676 127.06 355.676C126.398 355.676 125.822 355.569 125.332 355.356C124.852 355.143 124.446 354.844 124.116 354.46C123.785 354.076 123.534 353.617 123.364 353.084C123.204 352.551 123.113 351.969 123.092 351.34C123.092 350.711 123.188 350.135 123.38 349.612C123.572 349.089 123.838 348.636 124.18 348.252C124.532 347.868 124.942 347.569 125.412 347.356C125.892 347.143 126.414 347.036 126.98 347.036C127.716 347.036 128.324 347.191 128.804 347.5C129.294 347.799 129.684 348.183 129.972 348.652C130.27 349.121 130.473 349.633 130.58 350.188C130.697 350.743 130.745 351.271 130.724 351.772H124.532C124.521 352.135 124.564 352.481 124.66 352.812C124.756 353.132 124.91 353.42 125.124 353.676C125.337 353.921 125.609 354.119 125.94 354.268C126.27 354.417 126.66 354.492 127.108 354.492C127.684 354.492 128.153 354.359 128.516 354.092C128.889 353.825 129.134 353.42 129.252 352.876H130.596ZM134.021 347.228H135.669V348.428H134.021V353.564C134.021 353.724 134.032 353.852 134.053 353.948C134.085 354.044 134.139 354.119 134.213 354.172C134.288 354.225 134.389 354.263 134.517 354.284C134.656 354.295 134.832 354.3 135.045 354.3H135.669V355.5H134.629C134.277 355.5 133.973 355.479 133.717 355.436C133.472 355.383 133.269 355.292 133.109 355.164C132.96 355.036 132.848 354.855 132.773 354.62C132.699 354.385 132.661 354.076 132.661 353.692V348.428H131.253V347.228H132.661V344.748H134.021V347.228ZM142.924 350.572C142.903 350.252 142.828 349.948 142.7 349.66C142.583 349.372 142.418 349.127 142.204 348.924C142.002 348.711 141.756 348.545 141.468 348.428C141.191 348.3 140.882 348.236 140.54 348.236C140.188 348.236 139.868 348.3 139.58 348.428C139.303 348.545 139.063 348.711 138.86 348.924C138.658 349.137 138.498 349.388 138.38 349.676C138.263 349.953 138.194 350.252 138.172 350.572H142.924ZM144.236 352.876C144.055 353.804 143.655 354.503 143.036 354.972C142.418 355.441 141.639 355.676 140.7 355.676C140.039 355.676 139.463 355.569 138.972 355.356C138.492 355.143 138.087 354.844 137.756 354.46C137.426 354.076 137.175 353.617 137.004 353.084C136.844 352.551 136.754 351.969 136.732 351.34C136.732 350.711 136.828 350.135 137.02 349.612C137.212 349.089 137.479 348.636 137.82 348.252C138.172 347.868 138.583 347.569 139.052 347.356C139.532 347.143 140.055 347.036 140.62 347.036C141.356 347.036 141.964 347.191 142.444 347.5C142.935 347.799 143.324 348.183 143.612 348.652C143.911 349.121 144.114 349.633 144.22 350.188C144.338 350.743 144.386 351.271 144.364 351.772H138.172C138.162 352.135 138.204 352.481 138.3 352.812C138.396 353.132 138.551 353.42 138.764 353.676C138.978 353.921 139.25 354.119 139.58 354.268C139.911 354.417 140.3 354.492 140.748 354.492C141.324 354.492 141.794 354.359 142.156 354.092C142.53 353.825 142.775 353.42 142.892 352.876H144.236ZM145.726 347.228H147.006V348.972H147.038C147.369 348.3 147.774 347.804 148.254 347.484C148.734 347.164 149.342 347.015 150.078 347.036V348.476C149.534 348.476 149.07 348.551 148.686 348.7C148.302 348.849 147.993 349.068 147.758 349.356C147.523 349.644 147.353 349.996 147.246 350.412C147.139 350.817 147.086 351.287 147.086 351.82V355.5H145.726V347.228ZM151.102 347.228H152.382V348.444H152.414C153.033 347.505 153.923 347.036 155.086 347.036C155.598 347.036 156.062 347.143 156.478 347.356C156.894 347.569 157.187 347.932 157.358 348.444C157.635 347.996 157.998 347.649 158.446 347.404C158.905 347.159 159.406 347.036 159.95 347.036C160.366 347.036 160.739 347.084 161.07 347.18C161.411 347.265 161.699 347.404 161.934 347.596C162.179 347.788 162.366 348.039 162.494 348.348C162.633 348.647 162.702 349.009 162.702 349.436V355.5H161.342V350.076C161.342 349.82 161.321 349.58 161.278 349.356C161.235 349.132 161.155 348.94 161.038 348.78C160.921 348.609 160.755 348.476 160.542 348.38C160.339 348.284 160.073 348.236 159.742 348.236C159.07 348.236 158.542 348.428 158.158 348.812C157.774 349.196 157.582 349.708 157.582 350.348V355.5H156.222V350.076C156.222 349.809 156.195 349.564 156.142 349.34C156.099 349.116 156.019 348.924 155.902 348.764C155.785 348.593 155.625 348.465 155.422 348.38C155.23 348.284 154.979 348.236 154.67 348.236C154.275 348.236 153.934 348.316 153.646 348.476C153.369 348.636 153.139 348.828 152.958 349.052C152.787 349.276 152.659 349.511 152.574 349.756C152.499 349.991 152.462 350.188 152.462 350.348V355.5H151.102V347.228ZM166.183 345.74H164.823V344.076H166.183V345.74ZM164.823 347.228H166.183V355.5H164.823V347.228ZM168.29 347.228H169.57V348.54H169.602C170.167 347.537 171.063 347.036 172.29 347.036C172.834 347.036 173.287 347.111 173.65 347.26C174.012 347.409 174.306 347.617 174.53 347.884C174.754 348.151 174.908 348.471 174.994 348.844C175.09 349.207 175.138 349.612 175.138 350.06V355.5H173.778V349.9C173.778 349.388 173.628 348.983 173.33 348.684C173.031 348.385 172.62 348.236 172.098 348.236C171.682 348.236 171.319 348.3 171.01 348.428C170.711 348.556 170.46 348.737 170.258 348.972C170.055 349.207 169.9 349.484 169.794 349.804C169.698 350.113 169.65 350.455 169.65 350.828V355.5H168.29V347.228ZM184.508 355.468C184.274 355.607 183.948 355.676 183.532 355.676C183.18 355.676 182.898 355.58 182.684 355.388C182.482 355.185 182.38 354.86 182.38 354.412C182.007 354.86 181.57 355.185 181.068 355.388C180.578 355.58 180.044 355.676 179.468 355.676C179.095 355.676 178.738 355.633 178.396 355.548C178.066 355.463 177.778 355.329 177.532 355.148C177.287 354.967 177.09 354.732 176.94 354.444C176.802 354.145 176.732 353.788 176.732 353.372C176.732 352.903 176.812 352.519 176.972 352.22C177.132 351.921 177.34 351.681 177.596 351.5C177.863 351.308 178.162 351.164 178.492 351.068C178.834 350.972 179.18 350.892 179.532 350.828C179.906 350.753 180.258 350.7 180.588 350.668C180.93 350.625 181.228 350.572 181.484 350.508C181.74 350.433 181.943 350.332 182.092 350.204C182.242 350.065 182.316 349.868 182.316 349.612C182.316 349.313 182.258 349.073 182.14 348.892C182.034 348.711 181.89 348.572 181.708 348.476C181.538 348.38 181.34 348.316 181.116 348.284C180.903 348.252 180.69 348.236 180.476 348.236C179.9 348.236 179.42 348.348 179.036 348.572C178.652 348.785 178.444 349.196 178.412 349.804H177.052C177.074 349.292 177.18 348.86 177.372 348.508C177.564 348.156 177.82 347.873 178.14 347.66C178.46 347.436 178.823 347.276 179.228 347.18C179.644 347.084 180.087 347.036 180.556 347.036C180.93 347.036 181.298 347.063 181.66 347.116C182.034 347.169 182.37 347.281 182.668 347.452C182.967 347.612 183.207 347.841 183.388 348.14C183.57 348.439 183.66 348.828 183.66 349.308V353.564C183.66 353.884 183.676 354.119 183.708 354.268C183.751 354.417 183.879 354.492 184.092 354.492C184.21 354.492 184.348 354.465 184.508 354.412V355.468ZM182.3 351.228C182.13 351.356 181.906 351.452 181.628 351.516C181.351 351.569 181.058 351.617 180.748 351.66C180.45 351.692 180.146 351.735 179.836 351.788C179.527 351.831 179.25 351.905 179.004 352.012C178.759 352.119 178.556 352.273 178.396 352.476C178.247 352.668 178.172 352.935 178.172 353.276C178.172 353.5 178.215 353.692 178.3 353.852C178.396 354.001 178.514 354.124 178.652 354.22C178.802 354.316 178.972 354.385 179.164 354.428C179.356 354.471 179.559 354.492 179.772 354.492C180.22 354.492 180.604 354.433 180.924 354.316C181.244 354.188 181.506 354.033 181.708 353.852C181.911 353.66 182.06 353.457 182.156 353.244C182.252 353.02 182.3 352.812 182.3 352.62V351.228ZM187.662 347.228H189.31V348.428H187.662V353.564C187.662 353.724 187.673 353.852 187.694 353.948C187.726 354.044 187.779 354.119 187.854 354.172C187.929 354.225 188.03 354.263 188.158 354.284C188.297 354.295 188.473 354.3 188.686 354.3H189.31V355.5H188.27C187.918 355.5 187.614 355.479 187.358 355.436C187.113 355.383 186.91 355.292 186.75 355.164C186.601 355.036 186.489 354.855 186.414 354.62C186.339 354.385 186.302 354.076 186.302 353.692V348.428H184.894V347.228H186.302V344.748H187.662V347.228ZM196.565 350.572C196.544 350.252 196.469 349.948 196.341 349.66C196.224 349.372 196.058 349.127 195.845 348.924C195.642 348.711 195.397 348.545 195.109 348.428C194.832 348.3 194.522 348.236 194.181 348.236C193.829 348.236 193.509 348.3 193.221 348.428C192.944 348.545 192.704 348.711 192.501 348.924C192.298 349.137 192.138 349.388 192.021 349.676C191.904 349.953 191.834 350.252 191.813 350.572H196.565ZM197.877 352.876C197.696 353.804 197.296 354.503 196.677 354.972C196.058 355.441 195.28 355.676 194.341 355.676C193.68 355.676 193.104 355.569 192.613 355.356C192.133 355.143 191.728 354.844 191.397 354.46C191.066 354.076 190.816 353.617 190.645 353.084C190.485 352.551 190.394 351.969 190.373 351.34C190.373 350.711 190.469 350.135 190.661 349.612C190.853 349.089 191.12 348.636 191.461 348.252C191.813 347.868 192.224 347.569 192.693 347.356C193.173 347.143 193.696 347.036 194.261 347.036C194.997 347.036 195.605 347.191 196.085 347.5C196.576 347.799 196.965 348.183 197.253 348.652C197.552 349.121 197.754 349.633 197.861 350.188C197.978 350.743 198.026 351.271 198.005 351.772H191.813C191.802 352.135 191.845 352.481 191.941 352.812C192.037 353.132 192.192 353.42 192.405 353.676C192.618 353.921 192.89 354.119 193.221 354.268C193.552 354.417 193.941 354.492 194.389 354.492C194.965 354.492 195.434 354.359 195.797 354.092C196.17 353.825 196.416 353.42 196.533 352.876H197.877Z" fill="black" fill-opacity="0.68"/>
<g clip-path="url(#clip3_82204_59264)">
<mask id="path-12-inside-3_82204_59264" fill="white">
<path d="M292 340H312V360H292V340Z"/>
</mask>
<g clip-path="url(#clip4_82204_59264)">
<path d="M296.583 349.25C296.583 348.974 296.807 348.75 297.083 348.75H306.917C307.193 348.75 307.417 348.974 307.417 349.25V350.75C307.417 351.026 307.193 351.25 306.917 351.25H297.083C296.807 351.25 296.583 351.026 296.583 350.75V349.25Z" fill="#F15E00"/>
</g>
</g>
<path d="M292 340V338H290V340H292ZM312 340H314V338H312V340ZM312 360V362H314V360H312ZM292 360H290V362H292V360ZM292 340V342H312V340V338H292V340ZM312 340H310V360H312H314V340H312ZM312 360V358H292V360V362H312V360ZM292 360H294V340H292H290V360H292Z" fill="#F15E00" mask="url(#path-12-inside-3_82204_59264)"/>
<path d="M325.248 344.576H326.768V354.72H332.816V356H325.248V344.576ZM341.443 355.968C341.208 356.107 340.883 356.176 340.467 356.176C340.115 356.176 339.832 356.08 339.619 355.888C339.416 355.685 339.315 355.36 339.315 354.912C338.941 355.36 338.504 355.685 338.003 355.888C337.512 356.08 336.979 356.176 336.403 356.176C336.029 356.176 335.672 356.133 335.331 356.048C335 355.963 334.712 355.829 334.467 355.648C334.221 355.467 334.024 355.232 333.875 354.944C333.736 354.645 333.667 354.288 333.667 353.872C333.667 353.403 333.747 353.019 333.907 352.72C334.067 352.421 334.275 352.181 334.531 352C334.797 351.808 335.096 351.664 335.427 351.568C335.768 351.472 336.115 351.392 336.467 351.328C336.84 351.253 337.192 351.2 337.523 351.168C337.864 351.125 338.163 351.072 338.419 351.008C338.675 350.933 338.877 350.832 339.027 350.704C339.176 350.565 339.251 350.368 339.251 350.112C339.251 349.813 339.192 349.573 339.075 349.392C338.968 349.211 338.824 349.072 338.643 348.976C338.472 348.88 338.275 348.816 338.051 348.784C337.837 348.752 337.624 348.736 337.411 348.736C336.835 348.736 336.355 348.848 335.971 349.072C335.587 349.285 335.379 349.696 335.347 350.304H333.987C334.008 349.792 334.115 349.36 334.307 349.008C334.499 348.656 334.755 348.373 335.075 348.16C335.395 347.936 335.757 347.776 336.163 347.68C336.579 347.584 337.021 347.536 337.491 347.536C337.864 347.536 338.232 347.563 338.595 347.616C338.968 347.669 339.304 347.781 339.603 347.952C339.901 348.112 340.141 348.341 340.323 348.64C340.504 348.939 340.595 349.328 340.595 349.808V354.064C340.595 354.384 340.611 354.619 340.643 354.768C340.685 354.917 340.813 354.992 341.027 354.992C341.144 354.992 341.283 354.965 341.443 354.912V355.968ZM339.235 351.728C339.064 351.856 338.84 351.952 338.563 352.016C338.285 352.069 337.992 352.117 337.683 352.16C337.384 352.192 337.08 352.235 336.771 352.288C336.461 352.331 336.184 352.405 335.939 352.512C335.693 352.619 335.491 352.773 335.331 352.976C335.181 353.168 335.107 353.435 335.107 353.776C335.107 354 335.149 354.192 335.235 354.352C335.331 354.501 335.448 354.624 335.587 354.72C335.736 354.816 335.907 354.885 336.099 354.928C336.291 354.971 336.493 354.992 336.707 354.992C337.155 354.992 337.539 354.933 337.859 354.816C338.179 354.688 338.44 354.533 338.643 354.352C338.845 354.16 338.995 353.957 339.091 353.744C339.187 353.52 339.235 353.312 339.235 353.12V351.728ZM342.956 344.576H344.316V348.848H344.348C344.572 348.389 344.924 348.059 345.404 347.856C345.884 347.643 346.412 347.536 346.988 347.536C347.628 347.536 348.183 347.653 348.652 347.888C349.132 348.123 349.527 348.443 349.836 348.848C350.156 349.243 350.396 349.701 350.556 350.224C350.716 350.747 350.796 351.301 350.796 351.888C350.796 352.475 350.716 353.029 350.556 353.552C350.407 354.075 350.172 354.533 349.852 354.928C349.543 355.312 349.148 355.616 348.668 355.84C348.199 356.064 347.65 356.176 347.02 356.176C346.818 356.176 346.588 356.155 346.332 356.112C346.087 356.069 345.842 356 345.596 355.904C345.351 355.808 345.116 355.68 344.892 355.52C344.679 355.349 344.498 355.141 344.348 354.896H344.316V356H342.956V344.576ZM349.356 351.792C349.356 351.408 349.303 351.035 349.196 350.672C349.1 350.299 348.946 349.968 348.732 349.68C348.53 349.392 348.263 349.163 347.932 348.992C347.612 348.821 347.234 348.736 346.796 348.736C346.338 348.736 345.948 348.827 345.628 349.008C345.308 349.189 345.047 349.429 344.844 349.728C344.642 350.016 344.492 350.347 344.396 350.72C344.311 351.093 344.268 351.472 344.268 351.856C344.268 352.261 344.316 352.656 344.412 353.04C344.508 353.413 344.658 353.744 344.86 354.032C345.074 354.32 345.346 354.555 345.676 354.736C346.007 354.907 346.407 354.992 346.876 354.992C347.346 354.992 347.735 354.901 348.044 354.72C348.364 354.539 348.62 354.299 348.812 354C349.004 353.701 349.143 353.36 349.228 352.976C349.314 352.592 349.356 352.197 349.356 351.792ZM358.337 351.072C358.315 350.752 358.241 350.448 358.113 350.16C357.995 349.872 357.83 349.627 357.617 349.424C357.414 349.211 357.169 349.045 356.881 348.928C356.603 348.8 356.294 348.736 355.953 348.736C355.601 348.736 355.281 348.8 354.993 348.928C354.715 349.045 354.475 349.211 354.273 349.424C354.07 349.637 353.91 349.888 353.793 350.176C353.675 350.453 353.606 350.752 353.585 351.072H358.337ZM359.649 353.376C359.467 354.304 359.067 355.003 358.449 355.472C357.83 355.941 357.051 356.176 356.113 356.176C355.451 356.176 354.875 356.069 354.385 355.856C353.905 355.643 353.499 355.344 353.169 354.96C352.838 354.576 352.587 354.117 352.417 353.584C352.257 353.051 352.166 352.469 352.145 351.84C352.145 351.211 352.241 350.635 352.433 350.112C352.625 349.589 352.891 349.136 353.233 348.752C353.585 348.368 353.995 348.069 354.465 347.856C354.945 347.643 355.467 347.536 356.033 347.536C356.769 347.536 357.377 347.691 357.857 348C358.347 348.299 358.737 348.683 359.025 349.152C359.323 349.621 359.526 350.133 359.633 350.688C359.75 351.243 359.798 351.771 359.777 352.272H353.585C353.574 352.635 353.617 352.981 353.713 353.312C353.809 353.632 353.963 353.92 354.177 354.176C354.39 354.421 354.662 354.619 354.993 354.768C355.323 354.917 355.713 354.992 356.161 354.992C356.737 354.992 357.206 354.859 357.569 354.592C357.942 354.325 358.187 353.92 358.305 353.376H359.649ZM361.466 344.576H362.826V356H361.466V344.576Z" fill="black"/>
<defs>
<clipPath id="clip0_82204_59264">
<path d="M292 116H312V136H292V116Z" fill="white"/>
</clipPath>
<clipPath id="clip1_82204_59264">
<rect width="20" height="20" fill="white" transform="translate(292 116)"/>
</clipPath>
<clipPath id="clip2_82204_59264">
<rect width="20" height="20" fill="white" transform="translate(292 116)"/>
</clipPath>
<clipPath id="clip3_82204_59264">
<path d="M292 340H312V360H292V340Z" fill="white"/>
</clipPath>
<clipPath id="clip4_82204_59264">
<rect width="20" height="20" fill="white" transform="translate(292 340)"/>
</clipPath>
</defs>
</svg>
