<svg width="600" height="412" viewBox="0 0 600 412" fill="none" xmlns="http://www.w3.org/2000/svg">
<rect width="600" height="412" fill="black" fill-opacity="0.04"/>
<path d="M101.248 120.076H108.752V121.356H102.768V124.988H108.016V126.268H102.768V131.5H101.248V120.076ZM117.54 131.468C117.305 131.607 116.98 131.676 116.564 131.676C116.212 131.676 115.929 131.58 115.716 131.388C115.513 131.185 115.412 130.86 115.412 130.412C115.038 130.86 114.601 131.185 114.1 131.388C113.609 131.58 113.076 131.676 112.5 131.676C112.126 131.676 111.769 131.633 111.428 131.548C111.097 131.463 110.809 131.329 110.564 131.148C110.318 130.967 110.121 130.732 109.972 130.444C109.833 130.145 109.764 129.788 109.764 129.372C109.764 128.903 109.844 128.519 110.004 128.22C110.164 127.921 110.372 127.681 110.628 127.5C110.894 127.308 111.193 127.164 111.524 127.068C111.865 126.972 112.212 126.892 112.564 126.828C112.937 126.753 113.289 126.7 113.62 126.668C113.961 126.625 114.26 126.572 114.516 126.508C114.772 126.433 114.974 126.332 115.124 126.204C115.273 126.065 115.348 125.868 115.348 125.612C115.348 125.313 115.289 125.073 115.172 124.892C115.065 124.711 114.921 124.572 114.74 124.476C114.569 124.38 114.372 124.316 114.148 124.284C113.934 124.252 113.721 124.236 113.508 124.236C112.932 124.236 112.452 124.348 112.068 124.572C111.684 124.785 111.476 125.196 111.444 125.804H110.084C110.105 125.292 110.212 124.86 110.404 124.508C110.596 124.156 110.852 123.873 111.172 123.66C111.492 123.436 111.854 123.276 112.26 123.18C112.676 123.084 113.118 123.036 113.588 123.036C113.961 123.036 114.329 123.063 114.692 123.116C115.065 123.169 115.401 123.281 115.7 123.452C115.998 123.612 116.238 123.841 116.42 124.14C116.601 124.439 116.692 124.828 116.692 125.308V129.564C116.692 129.884 116.708 130.119 116.74 130.268C116.782 130.417 116.91 130.492 117.124 130.492C117.241 130.492 117.38 130.465 117.54 130.412V131.468ZM115.332 127.228C115.161 127.356 114.937 127.452 114.66 127.516C114.382 127.569 114.089 127.617 113.78 127.66C113.481 127.692 113.177 127.735 112.868 127.788C112.558 127.831 112.281 127.905 112.036 128.012C111.79 128.119 111.588 128.273 111.428 128.476C111.278 128.668 111.204 128.935 111.204 129.276C111.204 129.5 111.246 129.692 111.332 129.852C111.428 130.001 111.545 130.124 111.684 130.22C111.833 130.316 112.004 130.385 112.196 130.428C112.388 130.471 112.59 130.492 112.804 130.492C113.252 130.492 113.636 130.433 113.956 130.316C114.276 130.188 114.537 130.033 114.74 129.852C114.942 129.66 115.092 129.457 115.188 129.244C115.284 129.02 115.332 128.812 115.332 128.62V127.228ZM118.885 120.076H120.245V131.5H118.885V120.076ZM123.184 128.892C123.195 129.191 123.264 129.447 123.392 129.66C123.52 129.863 123.685 130.028 123.888 130.156C124.101 130.273 124.336 130.359 124.592 130.412C124.859 130.465 125.131 130.492 125.408 130.492C125.621 130.492 125.845 130.476 126.08 130.444C126.315 130.412 126.528 130.353 126.72 130.268C126.923 130.183 127.088 130.06 127.216 129.9C127.344 129.729 127.408 129.516 127.408 129.26C127.408 128.908 127.275 128.641 127.008 128.46C126.741 128.279 126.405 128.135 126 128.028C125.605 127.911 125.173 127.809 124.704 127.724C124.235 127.628 123.797 127.5 123.392 127.34C122.997 127.169 122.667 126.935 122.4 126.636C122.133 126.337 122 125.921 122 125.388C122 124.972 122.091 124.615 122.272 124.316C122.464 124.017 122.704 123.777 122.992 123.596C123.291 123.404 123.621 123.265 123.984 123.18C124.357 123.084 124.725 123.036 125.088 123.036C125.557 123.036 125.989 123.079 126.384 123.164C126.779 123.239 127.125 123.377 127.424 123.58C127.733 123.772 127.979 124.039 128.16 124.38C128.341 124.711 128.448 125.127 128.48 125.628H127.12C127.099 125.361 127.029 125.143 126.912 124.972C126.795 124.791 126.645 124.647 126.464 124.54C126.283 124.433 126.08 124.359 125.856 124.316C125.643 124.263 125.424 124.236 125.2 124.236C124.997 124.236 124.789 124.252 124.576 124.284C124.373 124.316 124.187 124.375 124.016 124.46C123.845 124.535 123.707 124.641 123.6 124.78C123.493 124.908 123.44 125.079 123.44 125.292C123.44 125.527 123.52 125.724 123.68 125.884C123.851 126.033 124.064 126.161 124.32 126.268C124.576 126.364 124.864 126.449 125.184 126.524C125.504 126.588 125.824 126.657 126.144 126.732C126.485 126.807 126.816 126.897 127.136 127.004C127.467 127.111 127.755 127.255 128 127.436C128.256 127.607 128.459 127.825 128.608 128.092C128.768 128.359 128.848 128.689 128.848 129.084C128.848 129.585 128.741 130.001 128.528 130.332C128.325 130.663 128.053 130.929 127.712 131.132C127.381 131.335 127.003 131.473 126.576 131.548C126.16 131.633 125.744 131.676 125.328 131.676C124.869 131.676 124.432 131.628 124.016 131.532C123.6 131.436 123.232 131.281 122.912 131.068C122.592 130.844 122.336 130.556 122.144 130.204C121.952 129.841 121.845 129.404 121.824 128.892H123.184ZM136.096 126.572C136.075 126.252 136 125.948 135.872 125.66C135.755 125.372 135.589 125.127 135.376 124.924C135.173 124.711 134.928 124.545 134.64 124.428C134.363 124.3 134.053 124.236 133.712 124.236C133.36 124.236 133.04 124.3 132.752 124.428C132.475 124.545 132.235 124.711 132.032 124.924C131.829 125.137 131.669 125.388 131.552 125.676C131.435 125.953 131.365 126.252 131.344 126.572H136.096ZM137.408 128.876C137.227 129.804 136.827 130.503 136.208 130.972C135.589 131.441 134.811 131.676 133.872 131.676C133.211 131.676 132.635 131.569 132.144 131.356C131.664 131.143 131.259 130.844 130.928 130.46C130.597 130.076 130.347 129.617 130.176 129.084C130.016 128.551 129.925 127.969 129.904 127.34C129.904 126.711 130 126.135 130.192 125.612C130.384 125.089 130.651 124.636 130.992 124.252C131.344 123.868 131.755 123.569 132.224 123.356C132.704 123.143 133.227 123.036 133.792 123.036C134.528 123.036 135.136 123.191 135.616 123.5C136.107 123.799 136.496 124.183 136.784 124.652C137.083 125.121 137.285 125.633 137.392 126.188C137.509 126.743 137.557 127.271 137.536 127.772H131.344C131.333 128.135 131.376 128.481 131.472 128.812C131.568 129.132 131.723 129.42 131.936 129.676C132.149 129.921 132.421 130.119 132.752 130.268C133.083 130.417 133.472 130.492 133.92 130.492C134.496 130.492 134.965 130.359 135.328 130.092C135.701 129.825 135.947 129.42 136.064 128.876H137.408Z" fill="black" fill-opacity="0.68"/>
<mask id="path-2-inside-1_82204_59282" fill="white">
<path d="M292 116H312V136H292V116Z"/>
</mask>
<path d="M292 116V115H291V116H292ZM312 116H313V115H312V116ZM312 136V137H313V136H312ZM292 136H291V137H292V136ZM292 116V117H312V116V115H292V116ZM312 116H311V136H312H313V116H312ZM312 136V135H292V136V137H312V136ZM292 136H293V116H292H291V136H292Z" fill="black" mask="url(#path-2-inside-1_82204_59282)"/>
<path d="M325.248 120.576H326.768V130.72H332.816V132H325.248V120.576ZM341.443 131.968C341.208 132.107 340.883 132.176 340.467 132.176C340.115 132.176 339.832 132.08 339.619 131.888C339.416 131.685 339.315 131.36 339.315 130.912C338.941 131.36 338.504 131.685 338.003 131.888C337.512 132.08 336.979 132.176 336.403 132.176C336.029 132.176 335.672 132.133 335.331 132.048C335 131.963 334.712 131.829 334.467 131.648C334.221 131.467 334.024 131.232 333.875 130.944C333.736 130.645 333.667 130.288 333.667 129.872C333.667 129.403 333.747 129.019 333.907 128.72C334.067 128.421 334.275 128.181 334.531 128C334.797 127.808 335.096 127.664 335.427 127.568C335.768 127.472 336.115 127.392 336.467 127.328C336.84 127.253 337.192 127.2 337.523 127.168C337.864 127.125 338.163 127.072 338.419 127.008C338.675 126.933 338.877 126.832 339.027 126.704C339.176 126.565 339.251 126.368 339.251 126.112C339.251 125.813 339.192 125.573 339.075 125.392C338.968 125.211 338.824 125.072 338.643 124.976C338.472 124.88 338.275 124.816 338.051 124.784C337.837 124.752 337.624 124.736 337.411 124.736C336.835 124.736 336.355 124.848 335.971 125.072C335.587 125.285 335.379 125.696 335.347 126.304H333.987C334.008 125.792 334.115 125.36 334.307 125.008C334.499 124.656 334.755 124.373 335.075 124.16C335.395 123.936 335.757 123.776 336.163 123.68C336.579 123.584 337.021 123.536 337.491 123.536C337.864 123.536 338.232 123.563 338.595 123.616C338.968 123.669 339.304 123.781 339.603 123.952C339.901 124.112 340.141 124.341 340.323 124.64C340.504 124.939 340.595 125.328 340.595 125.808V130.064C340.595 130.384 340.611 130.619 340.643 130.768C340.685 130.917 340.813 130.992 341.027 130.992C341.144 130.992 341.283 130.965 341.443 130.912V131.968ZM339.235 127.728C339.064 127.856 338.84 127.952 338.563 128.016C338.285 128.069 337.992 128.117 337.683 128.16C337.384 128.192 337.08 128.235 336.771 128.288C336.461 128.331 336.184 128.405 335.939 128.512C335.693 128.619 335.491 128.773 335.331 128.976C335.181 129.168 335.107 129.435 335.107 129.776C335.107 130 335.149 130.192 335.235 130.352C335.331 130.501 335.448 130.624 335.587 130.72C335.736 130.816 335.907 130.885 336.099 130.928C336.291 130.971 336.493 130.992 336.707 130.992C337.155 130.992 337.539 130.933 337.859 130.816C338.179 130.688 338.44 130.533 338.643 130.352C338.845 130.16 338.995 129.957 339.091 129.744C339.187 129.52 339.235 129.312 339.235 129.12V127.728ZM342.956 120.576H344.316V124.848H344.348C344.572 124.389 344.924 124.059 345.404 123.856C345.884 123.643 346.412 123.536 346.988 123.536C347.628 123.536 348.183 123.653 348.652 123.888C349.132 124.123 349.527 124.443 349.836 124.848C350.156 125.243 350.396 125.701 350.556 126.224C350.716 126.747 350.796 127.301 350.796 127.888C350.796 128.475 350.716 129.029 350.556 129.552C350.407 130.075 350.172 130.533 349.852 130.928C349.543 131.312 349.148 131.616 348.668 131.84C348.199 132.064 347.65 132.176 347.02 132.176C346.818 132.176 346.588 132.155 346.332 132.112C346.087 132.069 345.842 132 345.596 131.904C345.351 131.808 345.116 131.68 344.892 131.52C344.679 131.349 344.498 131.141 344.348 130.896H344.316V132H342.956V120.576ZM349.356 127.792C349.356 127.408 349.303 127.035 349.196 126.672C349.1 126.299 348.946 125.968 348.732 125.68C348.53 125.392 348.263 125.163 347.932 124.992C347.612 124.821 347.234 124.736 346.796 124.736C346.338 124.736 345.948 124.827 345.628 125.008C345.308 125.189 345.047 125.429 344.844 125.728C344.642 126.016 344.492 126.347 344.396 126.72C344.311 127.093 344.268 127.472 344.268 127.856C344.268 128.261 344.316 128.656 344.412 129.04C344.508 129.413 344.658 129.744 344.86 130.032C345.074 130.32 345.346 130.555 345.676 130.736C346.007 130.907 346.407 130.992 346.876 130.992C347.346 130.992 347.735 130.901 348.044 130.72C348.364 130.539 348.62 130.299 348.812 130C349.004 129.701 349.143 129.36 349.228 128.976C349.314 128.592 349.356 128.197 349.356 127.792ZM358.337 127.072C358.315 126.752 358.241 126.448 358.113 126.16C357.995 125.872 357.83 125.627 357.617 125.424C357.414 125.211 357.169 125.045 356.881 124.928C356.603 124.8 356.294 124.736 355.953 124.736C355.601 124.736 355.281 124.8 354.993 124.928C354.715 125.045 354.475 125.211 354.273 125.424C354.07 125.637 353.91 125.888 353.793 126.176C353.675 126.453 353.606 126.752 353.585 127.072H358.337ZM359.649 129.376C359.467 130.304 359.067 131.003 358.449 131.472C357.83 131.941 357.051 132.176 356.113 132.176C355.451 132.176 354.875 132.069 354.385 131.856C353.905 131.643 353.499 131.344 353.169 130.96C352.838 130.576 352.587 130.117 352.417 129.584C352.257 129.051 352.166 128.469 352.145 127.84C352.145 127.211 352.241 126.635 352.433 126.112C352.625 125.589 352.891 125.136 353.233 124.752C353.585 124.368 353.995 124.069 354.465 123.856C354.945 123.643 355.467 123.536 356.033 123.536C356.769 123.536 357.377 123.691 357.857 124C358.347 124.299 358.737 124.683 359.025 125.152C359.323 125.621 359.526 126.133 359.633 126.688C359.75 127.243 359.798 127.771 359.777 128.272H353.585C353.574 128.635 353.617 128.981 353.713 129.312C353.809 129.632 353.963 129.92 354.177 130.176C354.39 130.421 354.662 130.619 354.993 130.768C355.323 130.917 355.713 130.992 356.161 130.992C356.737 130.992 357.206 130.859 357.569 130.592C357.942 130.325 358.187 129.92 358.305 129.376H359.649ZM361.466 120.576H362.826V132H361.466V120.576Z" fill="black"/>
<path d="M103.84 257.356H100.032V256.076H109.168V257.356H105.36V267.5H103.84V257.356ZM108.695 259.228H109.975V260.972H110.007C110.337 260.3 110.743 259.804 111.223 259.484C111.703 259.164 112.311 259.015 113.047 259.036V260.476C112.503 260.476 112.039 260.551 111.655 260.7C111.271 260.849 110.961 261.068 110.727 261.356C110.492 261.644 110.321 261.996 110.215 262.412C110.108 262.817 110.055 263.287 110.055 263.82V267.5H108.695V259.228ZM120.919 267.5H119.639V266.188H119.607C119.319 266.7 118.951 267.079 118.503 267.324C118.055 267.559 117.527 267.676 116.919 267.676C116.375 267.676 115.922 267.607 115.559 267.468C115.196 267.319 114.903 267.111 114.679 266.844C114.455 266.577 114.295 266.263 114.199 265.9C114.114 265.527 114.071 265.116 114.071 264.668V259.228H115.431V264.828C115.431 265.34 115.58 265.745 115.879 266.044C116.178 266.343 116.588 266.492 117.111 266.492C117.527 266.492 117.884 266.428 118.183 266.3C118.492 266.172 118.748 265.991 118.951 265.756C119.154 265.521 119.303 265.249 119.399 264.94C119.506 264.62 119.559 264.273 119.559 263.9V259.228H120.919V267.5ZM128.706 262.572C128.684 262.252 128.61 261.948 128.482 261.66C128.364 261.372 128.199 261.127 127.986 260.924C127.783 260.711 127.538 260.545 127.25 260.428C126.972 260.3 126.663 260.236 126.322 260.236C125.97 260.236 125.65 260.3 125.362 260.428C125.084 260.545 124.844 260.711 124.642 260.924C124.439 261.137 124.279 261.388 124.162 261.676C124.044 261.953 123.975 262.252 123.954 262.572H128.706ZM130.017 264.876C129.836 265.804 129.436 266.503 128.818 266.972C128.199 267.441 127.42 267.676 126.482 267.676C125.82 267.676 125.244 267.569 124.754 267.356C124.274 267.143 123.868 266.844 123.538 266.46C123.207 266.076 122.956 265.617 122.786 265.084C122.626 264.551 122.535 263.969 122.514 263.34C122.514 262.711 122.61 262.135 122.802 261.612C122.994 261.089 123.26 260.636 123.602 260.252C123.954 259.868 124.364 259.569 124.834 259.356C125.314 259.143 125.836 259.036 126.402 259.036C127.138 259.036 127.746 259.191 128.226 259.5C128.716 259.799 129.106 260.183 129.394 260.652C129.692 261.121 129.895 261.633 130.002 262.188C130.119 262.743 130.167 263.271 130.146 263.772H123.954C123.943 264.135 123.986 264.481 124.082 264.812C124.178 265.132 124.332 265.42 124.546 265.676C124.759 265.921 125.031 266.119 125.362 266.268C125.692 266.417 126.082 266.492 126.53 266.492C127.106 266.492 127.575 266.359 127.938 266.092C128.311 265.825 128.556 265.42 128.674 264.876H130.017Z" fill="black" fill-opacity="0.68"/>
<mask id="path-6-inside-2_82204_59282" fill="white">
<path d="M292 228H312V248H292V228Z"/>
</mask>
<path d="M292 228V227H291V228H292ZM312 228H313V227H312V228ZM312 248V249H313V248H312ZM292 248H291V249H292V248ZM292 228V229H312V228V227H292V228ZM312 228H311V248H312H313V228H312ZM312 248V247H292V248V249H312V248ZM292 248H293V228H292H291V248H292Z" fill="#DB0002" mask="url(#path-6-inside-2_82204_59282)"/>
<path d="M325.248 232.576H326.768V242.72H332.816V244H325.248V232.576ZM341.443 243.968C341.208 244.107 340.883 244.176 340.467 244.176C340.115 244.176 339.832 244.08 339.619 243.888C339.416 243.685 339.315 243.36 339.315 242.912C338.941 243.36 338.504 243.685 338.003 243.888C337.512 244.08 336.979 244.176 336.403 244.176C336.029 244.176 335.672 244.133 335.331 244.048C335 243.963 334.712 243.829 334.467 243.648C334.221 243.467 334.024 243.232 333.875 242.944C333.736 242.645 333.667 242.288 333.667 241.872C333.667 241.403 333.747 241.019 333.907 240.72C334.067 240.421 334.275 240.181 334.531 240C334.797 239.808 335.096 239.664 335.427 239.568C335.768 239.472 336.115 239.392 336.467 239.328C336.84 239.253 337.192 239.2 337.523 239.168C337.864 239.125 338.163 239.072 338.419 239.008C338.675 238.933 338.877 238.832 339.027 238.704C339.176 238.565 339.251 238.368 339.251 238.112C339.251 237.813 339.192 237.573 339.075 237.392C338.968 237.211 338.824 237.072 338.643 236.976C338.472 236.88 338.275 236.816 338.051 236.784C337.837 236.752 337.624 236.736 337.411 236.736C336.835 236.736 336.355 236.848 335.971 237.072C335.587 237.285 335.379 237.696 335.347 238.304H333.987C334.008 237.792 334.115 237.36 334.307 237.008C334.499 236.656 334.755 236.373 335.075 236.16C335.395 235.936 335.757 235.776 336.163 235.68C336.579 235.584 337.021 235.536 337.491 235.536C337.864 235.536 338.232 235.563 338.595 235.616C338.968 235.669 339.304 235.781 339.603 235.952C339.901 236.112 340.141 236.341 340.323 236.64C340.504 236.939 340.595 237.328 340.595 237.808V242.064C340.595 242.384 340.611 242.619 340.643 242.768C340.685 242.917 340.813 242.992 341.027 242.992C341.144 242.992 341.283 242.965 341.443 242.912V243.968ZM339.235 239.728C339.064 239.856 338.84 239.952 338.563 240.016C338.285 240.069 337.992 240.117 337.683 240.16C337.384 240.192 337.08 240.235 336.771 240.288C336.461 240.331 336.184 240.405 335.939 240.512C335.693 240.619 335.491 240.773 335.331 240.976C335.181 241.168 335.107 241.435 335.107 241.776C335.107 242 335.149 242.192 335.235 242.352C335.331 242.501 335.448 242.624 335.587 242.72C335.736 242.816 335.907 242.885 336.099 242.928C336.291 242.971 336.493 242.992 336.707 242.992C337.155 242.992 337.539 242.933 337.859 242.816C338.179 242.688 338.44 242.533 338.643 242.352C338.845 242.16 338.995 241.957 339.091 241.744C339.187 241.52 339.235 241.312 339.235 241.12V239.728ZM342.956 232.576H344.316V236.848H344.348C344.572 236.389 344.924 236.059 345.404 235.856C345.884 235.643 346.412 235.536 346.988 235.536C347.628 235.536 348.183 235.653 348.652 235.888C349.132 236.123 349.527 236.443 349.836 236.848C350.156 237.243 350.396 237.701 350.556 238.224C350.716 238.747 350.796 239.301 350.796 239.888C350.796 240.475 350.716 241.029 350.556 241.552C350.407 242.075 350.172 242.533 349.852 242.928C349.543 243.312 349.148 243.616 348.668 243.84C348.199 244.064 347.65 244.176 347.02 244.176C346.818 244.176 346.588 244.155 346.332 244.112C346.087 244.069 345.842 244 345.596 243.904C345.351 243.808 345.116 243.68 344.892 243.52C344.679 243.349 344.498 243.141 344.348 242.896H344.316V244H342.956V232.576ZM349.356 239.792C349.356 239.408 349.303 239.035 349.196 238.672C349.1 238.299 348.946 237.968 348.732 237.68C348.53 237.392 348.263 237.163 347.932 236.992C347.612 236.821 347.234 236.736 346.796 236.736C346.338 236.736 345.948 236.827 345.628 237.008C345.308 237.189 345.047 237.429 344.844 237.728C344.642 238.016 344.492 238.347 344.396 238.72C344.311 239.093 344.268 239.472 344.268 239.856C344.268 240.261 344.316 240.656 344.412 241.04C344.508 241.413 344.658 241.744 344.86 242.032C345.074 242.32 345.346 242.555 345.676 242.736C346.007 242.907 346.407 242.992 346.876 242.992C347.346 242.992 347.735 242.901 348.044 242.72C348.364 242.539 348.62 242.299 348.812 242C349.004 241.701 349.143 241.36 349.228 240.976C349.314 240.592 349.356 240.197 349.356 239.792ZM358.337 239.072C358.315 238.752 358.241 238.448 358.113 238.16C357.995 237.872 357.83 237.627 357.617 237.424C357.414 237.211 357.169 237.045 356.881 236.928C356.603 236.8 356.294 236.736 355.953 236.736C355.601 236.736 355.281 236.8 354.993 236.928C354.715 237.045 354.475 237.211 354.273 237.424C354.07 237.637 353.91 237.888 353.793 238.176C353.675 238.453 353.606 238.752 353.585 239.072H358.337ZM359.649 241.376C359.467 242.304 359.067 243.003 358.449 243.472C357.83 243.941 357.051 244.176 356.113 244.176C355.451 244.176 354.875 244.069 354.385 243.856C353.905 243.643 353.499 243.344 353.169 242.96C352.838 242.576 352.587 242.117 352.417 241.584C352.257 241.051 352.166 240.469 352.145 239.84C352.145 239.211 352.241 238.635 352.433 238.112C352.625 237.589 352.891 237.136 353.233 236.752C353.585 236.368 353.995 236.069 354.465 235.856C354.945 235.643 355.467 235.536 356.033 235.536C356.769 235.536 357.377 235.691 357.857 236C358.347 236.299 358.737 236.683 359.025 237.152C359.323 237.621 359.526 238.133 359.633 238.688C359.75 239.243 359.798 239.771 359.777 240.272H353.585C353.574 240.635 353.617 240.981 353.713 241.312C353.809 241.632 353.963 241.92 354.177 242.176C354.39 242.421 354.662 242.619 354.993 242.768C355.323 242.917 355.713 242.992 356.161 242.992C356.737 242.992 357.206 242.859 357.569 242.592C357.942 242.325 358.187 241.92 358.305 241.376H359.649ZM361.466 232.576H362.826V244H361.466V232.576Z" fill="#DB0002"/>
<path fill-rule="evenodd" clip-rule="evenodd" d="M470 227.77C464.35 227.77 459.77 232.35 459.77 238C459.77 243.65 464.35 248.23 470 248.23C475.65 248.23 480.23 243.65 480.23 238C480.23 232.35 475.65 227.77 470 227.77ZM469.042 231.666C469.287 231.405 469.608 231.271 470 231.257C470.392 231.271 470.713 231.405 470.958 231.666C471.216 231.943 471.345 232.327 471.345 232.82C471.345 233.182 470.837 239.843 470.713 240.114C470.588 240.384 470.365 240.519 470.044 240.519C470.028 240.519 470.015 240.514 470 240.513C469.984 240.514 469.971 240.519 469.955 240.519C469.635 240.519 469.412 240.384 469.287 240.114C469.162 239.843 468.655 233.182 468.655 232.82C468.655 232.327 468.784 231.943 469.042 231.666ZM470.944 244.386C470.689 244.619 470.354 244.746 470.009 244.743C469.66 244.747 469.321 244.622 469.06 244.39C468.79 244.156 468.655 243.828 468.655 243.406C468.655 243.038 468.784 242.724 469.042 242.466C469.3 242.207 469.616 242.078 469.991 242.078C470.365 242.078 470.684 242.207 470.949 242.466C471.207 242.71 471.351 243.051 471.345 243.406C471.345 243.822 471.212 244.148 470.944 244.386Z" fill="#DB0002"/>
<path d="M297.222 282.912V287H295.892V282.912L292.028 277.004H293.61L296.606 281.764L299.532 277.004H301.044L297.222 282.912ZM301.459 283.388C301.459 283.827 301.515 284.219 301.627 284.564C301.748 284.9 301.911 285.185 302.117 285.418C302.322 285.642 302.56 285.815 302.831 285.936C303.111 286.057 303.405 286.118 303.713 286.118C304.021 286.118 304.31 286.057 304.581 285.936C304.861 285.815 305.103 285.642 305.309 285.418C305.514 285.185 305.673 284.9 305.785 284.564C305.906 284.219 305.967 283.827 305.967 283.388C305.967 282.949 305.906 282.562 305.785 282.226C305.673 281.881 305.514 281.591 305.309 281.358C305.103 281.125 304.861 280.947 304.581 280.826C304.31 280.705 304.021 280.644 303.713 280.644C303.405 280.644 303.111 280.705 302.831 280.826C302.56 280.947 302.322 281.125 302.117 281.358C301.911 281.591 301.748 281.881 301.627 282.226C301.515 282.562 301.459 282.949 301.459 283.388ZM300.199 283.388C300.199 282.856 300.273 282.361 300.423 281.904C300.572 281.437 300.796 281.036 301.095 280.7C301.393 280.355 301.762 280.084 302.201 279.888C302.639 279.692 303.143 279.594 303.713 279.594C304.291 279.594 304.795 279.692 305.225 279.888C305.663 280.084 306.032 280.355 306.331 280.7C306.629 281.036 306.853 281.437 307.003 281.904C307.152 282.361 307.227 282.856 307.227 283.388C307.227 283.92 307.152 284.415 307.003 284.872C306.853 285.329 306.629 285.731 306.331 286.076C306.032 286.412 305.663 286.678 305.225 286.874C304.795 287.061 304.291 287.154 303.713 287.154C303.143 287.154 302.639 287.061 302.201 286.874C301.762 286.678 301.393 286.412 301.095 286.076C300.796 285.731 300.572 285.329 300.423 284.872C300.273 284.415 300.199 283.92 300.199 283.388ZM314.797 287H313.677V285.852H313.649C313.397 286.3 313.075 286.631 312.683 286.846C312.291 287.051 311.829 287.154 311.297 287.154C310.821 287.154 310.424 287.093 310.107 286.972C309.789 286.841 309.533 286.659 309.337 286.426C309.141 286.193 309.001 285.917 308.917 285.6C308.842 285.273 308.805 284.914 308.805 284.522V279.762H309.995V284.662C309.995 285.11 310.125 285.465 310.387 285.726C310.648 285.987 311.007 286.118 311.465 286.118C311.829 286.118 312.141 286.062 312.403 285.95C312.673 285.838 312.897 285.679 313.075 285.474C313.252 285.269 313.383 285.031 313.467 284.76C313.56 284.48 313.607 284.177 313.607 283.85V279.762H314.797V287ZM320.83 279.762H321.95V280.91H321.978C322.473 280.033 323.257 279.594 324.33 279.594C324.806 279.594 325.203 279.659 325.52 279.79C325.838 279.921 326.094 280.103 326.29 280.336C326.486 280.569 326.622 280.849 326.696 281.176C326.78 281.493 326.822 281.848 326.822 282.24V287H325.632V282.1C325.632 281.652 325.502 281.297 325.24 281.036C324.979 280.775 324.62 280.644 324.162 280.644C323.798 280.644 323.481 280.7 323.21 280.812C322.949 280.924 322.73 281.083 322.552 281.288C322.375 281.493 322.24 281.736 322.146 282.016C322.062 282.287 322.02 282.585 322.02 282.912V287H320.83V279.762ZM333.811 282.688C333.792 282.408 333.727 282.142 333.615 281.89C333.512 281.638 333.367 281.423 333.181 281.246C333.003 281.059 332.789 280.915 332.537 280.812C332.294 280.7 332.023 280.644 331.725 280.644C331.417 280.644 331.137 280.7 330.885 280.812C330.642 280.915 330.432 281.059 330.255 281.246C330.077 281.433 329.937 281.652 329.835 281.904C329.732 282.147 329.671 282.408 329.653 282.688H333.811ZM334.959 284.704C334.8 285.516 334.45 286.127 333.909 286.538C333.367 286.949 332.686 287.154 331.865 287.154C331.286 287.154 330.782 287.061 330.353 286.874C329.933 286.687 329.578 286.426 329.289 286.09C328.999 285.754 328.78 285.353 328.631 284.886C328.491 284.419 328.411 283.911 328.393 283.36C328.393 282.809 328.477 282.305 328.645 281.848C328.813 281.391 329.046 280.994 329.345 280.658C329.653 280.322 330.012 280.061 330.423 279.874C330.843 279.687 331.3 279.594 331.795 279.594C332.439 279.594 332.971 279.729 333.391 280C333.82 280.261 334.161 280.597 334.413 281.008C334.674 281.419 334.851 281.867 334.945 282.352C335.047 282.837 335.089 283.299 335.071 283.738H329.653C329.643 284.055 329.681 284.359 329.765 284.648C329.849 284.928 329.984 285.18 330.171 285.404C330.357 285.619 330.595 285.791 330.885 285.922C331.174 286.053 331.515 286.118 331.907 286.118C332.411 286.118 332.821 286.001 333.139 285.768C333.465 285.535 333.68 285.18 333.783 284.704H334.959ZM341.505 282.688C341.487 282.408 341.421 282.142 341.309 281.89C341.207 281.638 341.062 281.423 340.875 281.246C340.698 281.059 340.483 280.915 340.231 280.812C339.989 280.7 339.718 280.644 339.419 280.644C339.111 280.644 338.831 280.7 338.579 280.812C338.337 280.915 338.127 281.059 337.949 281.246C337.772 281.433 337.632 281.652 337.529 281.904C337.427 282.147 337.366 282.408 337.347 282.688H341.505ZM342.653 284.704C342.495 285.516 342.145 286.127 341.603 286.538C341.062 286.949 340.381 287.154 339.559 287.154C338.981 287.154 338.477 287.061 338.047 286.874C337.627 286.687 337.273 286.426 336.983 286.09C336.694 285.754 336.475 285.353 336.325 284.886C336.185 284.419 336.106 283.911 336.087 283.36C336.087 282.809 336.171 282.305 336.339 281.848C336.507 281.391 336.741 280.994 337.039 280.658C337.347 280.322 337.707 280.061 338.117 279.874C338.537 279.687 338.995 279.594 339.489 279.594C340.133 279.594 340.665 279.729 341.085 280C341.515 280.261 341.855 280.597 342.107 281.008C342.369 281.419 342.546 281.867 342.639 282.352C342.742 282.837 342.784 283.299 342.765 283.738H337.347C337.338 284.055 337.375 284.359 337.459 284.648C337.543 284.928 337.679 285.18 337.865 285.404C338.052 285.619 338.29 285.791 338.579 285.922C338.869 286.053 339.209 286.118 339.601 286.118C340.105 286.118 340.516 286.001 340.833 285.768C341.16 285.535 341.375 285.18 341.477 284.704H342.653ZM345.042 283.444C345.042 283.78 345.084 284.111 345.168 284.438C345.261 284.755 345.396 285.04 345.574 285.292C345.76 285.544 345.994 285.745 346.274 285.894C346.563 286.043 346.899 286.118 347.282 286.118C347.683 286.118 348.024 286.039 348.304 285.88C348.584 285.721 348.812 285.516 348.99 285.264C349.167 285.003 349.293 284.709 349.368 284.382C349.452 284.055 349.494 283.724 349.494 283.388C349.494 283.033 349.452 282.693 349.368 282.366C349.284 282.03 349.148 281.736 348.962 281.484C348.784 281.232 348.551 281.031 348.262 280.882C347.972 280.723 347.622 280.644 347.212 280.644C346.81 280.644 346.47 280.723 346.19 280.882C345.91 281.041 345.686 281.251 345.518 281.512C345.35 281.773 345.228 282.072 345.154 282.408C345.079 282.744 345.042 283.089 345.042 283.444ZM350.642 287H349.452V286.02H349.424C349.228 286.421 348.92 286.711 348.5 286.888C348.08 287.065 347.618 287.154 347.114 287.154C346.554 287.154 346.064 287.051 345.644 286.846C345.233 286.641 344.888 286.365 344.608 286.02C344.337 285.675 344.132 285.273 343.992 284.816C343.852 284.359 343.782 283.873 343.782 283.36C343.782 282.847 343.847 282.361 343.978 281.904C344.118 281.447 344.323 281.05 344.594 280.714C344.874 280.369 345.219 280.098 345.63 279.902C346.05 279.697 346.535 279.594 347.086 279.594C347.272 279.594 347.473 279.613 347.688 279.65C347.902 279.687 348.117 279.753 348.332 279.846C348.546 279.93 348.747 280.047 348.934 280.196C349.13 280.336 349.293 280.513 349.424 280.728H349.452V277.004H350.642V287ZM358.371 279.762H359.813V280.812H358.371V285.306C358.371 285.446 358.38 285.558 358.399 285.642C358.427 285.726 358.474 285.791 358.539 285.838C358.604 285.885 358.693 285.917 358.805 285.936C358.926 285.945 359.08 285.95 359.267 285.95H359.813V287H358.903C358.595 287 358.329 286.981 358.105 286.944C357.89 286.897 357.713 286.818 357.573 286.706C357.442 286.594 357.344 286.435 357.279 286.23C357.214 286.025 357.181 285.754 357.181 285.418V280.812H355.949V279.762H357.181V277.592H358.371V279.762ZM362.178 283.388C362.178 283.827 362.234 284.219 362.346 284.564C362.467 284.9 362.631 285.185 362.836 285.418C363.041 285.642 363.279 285.815 363.55 285.936C363.83 286.057 364.124 286.118 364.432 286.118C364.74 286.118 365.029 286.057 365.3 285.936C365.58 285.815 365.823 285.642 366.028 285.418C366.233 285.185 366.392 284.9 366.504 284.564C366.625 284.219 366.686 283.827 366.686 283.388C366.686 282.949 366.625 282.562 366.504 282.226C366.392 281.881 366.233 281.591 366.028 281.358C365.823 281.125 365.58 280.947 365.3 280.826C365.029 280.705 364.74 280.644 364.432 280.644C364.124 280.644 363.83 280.705 363.55 280.826C363.279 280.947 363.041 281.125 362.836 281.358C362.631 281.591 362.467 281.881 362.346 282.226C362.234 282.562 362.178 282.949 362.178 283.388ZM360.918 283.388C360.918 282.856 360.993 282.361 361.142 281.904C361.291 281.437 361.515 281.036 361.814 280.7C362.113 280.355 362.481 280.084 362.92 279.888C363.359 279.692 363.863 279.594 364.432 279.594C365.011 279.594 365.515 279.692 365.944 279.888C366.383 280.084 366.751 280.355 367.05 280.7C367.349 281.036 367.573 281.437 367.722 281.904C367.871 282.361 367.946 282.856 367.946 283.388C367.946 283.92 367.871 284.415 367.722 284.872C367.573 285.329 367.349 285.731 367.05 286.076C366.751 286.412 366.383 286.678 365.944 286.874C365.515 287.061 365.011 287.154 364.432 287.154C363.863 287.154 363.359 287.061 362.92 286.874C362.481 286.678 362.113 286.412 361.814 286.076C361.515 285.731 361.291 285.329 361.142 284.872C360.993 284.415 360.918 283.92 360.918 283.388ZM374.324 284.718C374.333 284.979 374.394 285.203 374.506 285.39C374.618 285.567 374.762 285.712 374.94 285.824C375.126 285.927 375.332 286.001 375.556 286.048C375.789 286.095 376.027 286.118 376.27 286.118C376.456 286.118 376.652 286.104 376.858 286.076C377.063 286.048 377.25 285.997 377.418 285.922C377.595 285.847 377.74 285.74 377.852 285.6C377.964 285.451 378.02 285.264 378.02 285.04C378.02 284.732 377.903 284.499 377.67 284.34C377.436 284.181 377.142 284.055 376.788 283.962C376.442 283.859 376.064 283.771 375.654 283.696C375.243 283.612 374.86 283.5 374.506 283.36C374.16 283.211 373.871 283.005 373.638 282.744C373.404 282.483 373.288 282.119 373.288 281.652C373.288 281.288 373.367 280.975 373.526 280.714C373.694 280.453 373.904 280.243 374.156 280.084C374.417 279.916 374.706 279.795 375.024 279.72C375.35 279.636 375.672 279.594 375.99 279.594C376.4 279.594 376.778 279.631 377.124 279.706C377.469 279.771 377.772 279.893 378.034 280.07C378.304 280.238 378.519 280.471 378.678 280.77C378.836 281.059 378.93 281.423 378.958 281.862H377.768C377.749 281.629 377.688 281.437 377.586 281.288C377.483 281.129 377.352 281.003 377.194 280.91C377.035 280.817 376.858 280.751 376.662 280.714C376.475 280.667 376.284 280.644 376.088 280.644C375.91 280.644 375.728 280.658 375.542 280.686C375.364 280.714 375.201 280.765 375.052 280.84C374.902 280.905 374.781 280.999 374.688 281.12C374.594 281.232 374.548 281.381 374.548 281.568C374.548 281.773 374.618 281.946 374.758 282.086C374.907 282.217 375.094 282.329 375.318 282.422C375.542 282.506 375.794 282.581 376.074 282.646C376.354 282.702 376.634 282.763 376.914 282.828C377.212 282.893 377.502 282.973 377.782 283.066C378.071 283.159 378.323 283.285 378.538 283.444C378.762 283.593 378.939 283.785 379.07 284.018C379.21 284.251 379.28 284.541 379.28 284.886C379.28 285.325 379.186 285.689 379 285.978C378.822 286.267 378.584 286.501 378.286 286.678C377.996 286.855 377.665 286.977 377.292 287.042C376.928 287.117 376.564 287.154 376.2 287.154C375.798 287.154 375.416 287.112 375.052 287.028C374.688 286.944 374.366 286.809 374.086 286.622C373.806 286.426 373.582 286.174 373.414 285.866C373.246 285.549 373.152 285.166 373.134 284.718H374.324ZM385.797 282.688C385.778 282.408 385.713 282.142 385.601 281.89C385.498 281.638 385.353 281.423 385.167 281.246C384.989 281.059 384.775 280.915 384.523 280.812C384.28 280.7 384.009 280.644 383.711 280.644C383.403 280.644 383.123 280.7 382.871 280.812C382.628 280.915 382.418 281.059 382.241 281.246C382.063 281.433 381.923 281.652 381.821 281.904C381.718 282.147 381.657 282.408 381.639 282.688H385.797ZM386.945 284.704C386.786 285.516 386.436 286.127 385.895 286.538C385.353 286.949 384.672 287.154 383.851 287.154C383.272 287.154 382.768 287.061 382.339 286.874C381.919 286.687 381.564 286.426 381.275 286.09C380.985 285.754 380.766 285.353 380.617 284.886C380.477 284.419 380.397 283.911 380.379 283.36C380.379 282.809 380.463 282.305 380.631 281.848C380.799 281.391 381.032 280.994 381.331 280.658C381.639 280.322 381.998 280.061 382.409 279.874C382.829 279.687 383.286 279.594 383.781 279.594C384.425 279.594 384.957 279.729 385.377 280C385.806 280.261 386.147 280.597 386.399 281.008C386.66 281.419 386.837 281.867 386.931 282.352C387.033 282.837 387.075 283.299 387.057 283.738H381.639C381.629 284.055 381.667 284.359 381.751 284.648C381.835 284.928 381.97 285.18 382.157 285.404C382.343 285.619 382.581 285.791 382.871 285.922C383.16 286.053 383.501 286.118 383.893 286.118C384.397 286.118 384.807 286.001 385.125 285.768C385.451 285.535 385.666 285.18 385.769 284.704H386.945ZM388.535 277.004H389.725V287H388.535V277.004ZM396.77 282.688C396.751 282.408 396.686 282.142 396.574 281.89C396.471 281.638 396.326 281.423 396.14 281.246C395.962 281.059 395.748 280.915 395.496 280.812C395.253 280.7 394.982 280.644 394.684 280.644C394.376 280.644 394.096 280.7 393.844 280.812C393.601 280.915 393.391 281.059 393.214 281.246C393.036 281.433 392.896 281.652 392.794 281.904C392.691 282.147 392.63 282.408 392.612 282.688H396.77ZM397.918 284.704C397.759 285.516 397.409 286.127 396.868 286.538C396.326 286.949 395.645 287.154 394.824 287.154C394.245 287.154 393.741 287.061 393.312 286.874C392.892 286.687 392.537 286.426 392.248 286.09C391.958 285.754 391.739 285.353 391.59 284.886C391.45 284.419 391.37 283.911 391.352 283.36C391.352 282.809 391.436 282.305 391.604 281.848C391.772 281.391 392.005 280.994 392.304 280.658C392.612 280.322 392.971 280.061 393.382 279.874C393.802 279.687 394.259 279.594 394.754 279.594C395.398 279.594 395.93 279.729 396.35 280C396.779 280.261 397.12 280.597 397.372 281.008C397.633 281.419 397.81 281.867 397.904 282.352C398.006 282.837 398.048 283.299 398.03 283.738H392.612C392.602 284.055 392.64 284.359 392.724 284.648C392.808 284.928 392.943 285.18 393.13 285.404C393.316 285.619 393.554 285.791 393.844 285.922C394.133 286.053 394.474 286.118 394.866 286.118C395.37 286.118 395.78 286.001 396.098 285.768C396.424 285.535 396.639 285.18 396.742 284.704H397.918ZM404.352 282.086C404.259 281.629 404.063 281.274 403.764 281.022C403.466 280.77 403.064 280.644 402.56 280.644C402.131 280.644 401.772 280.723 401.482 280.882C401.193 281.041 400.96 281.251 400.782 281.512C400.614 281.773 400.493 282.077 400.418 282.422C400.344 282.758 400.306 283.108 400.306 283.472C400.306 283.808 400.344 284.135 400.418 284.452C400.502 284.769 400.628 285.054 400.796 285.306C400.964 285.549 401.184 285.745 401.454 285.894C401.725 286.043 402.047 286.118 402.42 286.118C403.008 286.118 403.466 285.964 403.792 285.656C404.128 285.348 404.334 284.914 404.408 284.354H405.626C405.496 285.25 405.16 285.941 404.618 286.426C404.086 286.911 403.358 287.154 402.434 287.154C401.884 287.154 401.394 287.065 400.964 286.888C400.544 286.711 400.19 286.459 399.9 286.132C399.62 285.805 399.406 285.418 399.256 284.97C399.116 284.513 399.046 284.013 399.046 283.472C399.046 282.931 399.116 282.427 399.256 281.96C399.396 281.484 399.606 281.073 399.886 280.728C400.176 280.373 400.535 280.098 400.964 279.902C401.394 279.697 401.893 279.594 402.462 279.594C402.873 279.594 403.256 279.645 403.61 279.748C403.974 279.841 404.292 279.991 404.562 280.196C404.842 280.401 405.071 280.663 405.248 280.98C405.426 281.288 405.538 281.657 405.584 282.086H404.352ZM408.785 279.762H410.227V280.812H408.785V285.306C408.785 285.446 408.794 285.558 408.813 285.642C408.841 285.726 408.887 285.791 408.953 285.838C409.018 285.885 409.107 285.917 409.219 285.936C409.34 285.945 409.494 285.95 409.681 285.95H410.227V287H409.317C409.009 287 408.743 286.981 408.519 286.944C408.304 286.897 408.127 286.818 407.987 286.706C407.856 286.594 407.758 286.435 407.693 286.23C407.627 286.025 407.595 285.754 407.595 285.418V280.812H406.363V279.762H407.595V277.592H408.785V279.762ZM422.207 286.972C422.002 287.093 421.717 287.154 421.353 287.154C421.045 287.154 420.798 287.07 420.611 286.902C420.434 286.725 420.345 286.44 420.345 286.048C420.019 286.44 419.636 286.725 419.197 286.902C418.768 287.07 418.301 287.154 417.797 287.154C417.471 287.154 417.158 287.117 416.859 287.042C416.57 286.967 416.318 286.851 416.103 286.692C415.889 286.533 415.716 286.328 415.585 286.076C415.464 285.815 415.403 285.502 415.403 285.138C415.403 284.727 415.473 284.391 415.613 284.13C415.753 283.869 415.935 283.659 416.159 283.5C416.393 283.332 416.654 283.206 416.943 283.122C417.242 283.038 417.545 282.968 417.853 282.912C418.18 282.847 418.488 282.8 418.777 282.772C419.076 282.735 419.337 282.688 419.561 282.632C419.785 282.567 419.963 282.478 420.093 282.366C420.224 282.245 420.289 282.072 420.289 281.848C420.289 281.587 420.238 281.377 420.135 281.218C420.042 281.059 419.916 280.938 419.757 280.854C419.608 280.77 419.435 280.714 419.239 280.686C419.053 280.658 418.866 280.644 418.679 280.644C418.175 280.644 417.755 280.742 417.419 280.938C417.083 281.125 416.901 281.484 416.873 282.016H415.683C415.702 281.568 415.795 281.19 415.963 280.882C416.131 280.574 416.355 280.327 416.635 280.14C416.915 279.944 417.233 279.804 417.587 279.72C417.951 279.636 418.339 279.594 418.749 279.594C419.076 279.594 419.398 279.617 419.715 279.664C420.042 279.711 420.336 279.809 420.597 279.958C420.859 280.098 421.069 280.299 421.227 280.56C421.386 280.821 421.465 281.162 421.465 281.582V285.306C421.465 285.586 421.479 285.791 421.507 285.922C421.545 286.053 421.657 286.118 421.843 286.118C421.946 286.118 422.067 286.095 422.207 286.048V286.972ZM420.275 283.262C420.126 283.374 419.93 283.458 419.687 283.514C419.445 283.561 419.188 283.603 418.917 283.64C418.656 283.668 418.39 283.705 418.119 283.752C417.849 283.789 417.606 283.855 417.391 283.948C417.177 284.041 416.999 284.177 416.859 284.354C416.729 284.522 416.663 284.755 416.663 285.054C416.663 285.25 416.701 285.418 416.775 285.558C416.859 285.689 416.962 285.796 417.083 285.88C417.214 285.964 417.363 286.025 417.531 286.062C417.699 286.099 417.877 286.118 418.063 286.118C418.455 286.118 418.791 286.067 419.071 285.964C419.351 285.852 419.58 285.717 419.757 285.558C419.935 285.39 420.065 285.213 420.149 285.026C420.233 284.83 420.275 284.648 420.275 284.48V283.262ZM425.142 279.762H426.584V280.812H425.142V285.306C425.142 285.446 425.151 285.558 425.17 285.642C425.198 285.726 425.244 285.791 425.31 285.838C425.375 285.885 425.464 285.917 425.576 285.936C425.697 285.945 425.851 285.95 426.038 285.95H426.584V287H425.674C425.366 287 425.1 286.981 424.876 286.944C424.661 286.897 424.484 286.818 424.344 286.706C424.213 286.594 424.115 286.435 424.05 286.23C423.984 286.025 423.952 285.754 423.952 285.418V280.812H422.72V279.762H423.952V277.592H425.142V279.762ZM432.222 277.004H433.412V287H432.222V277.004ZM440.457 282.688C440.438 282.408 440.373 282.142 440.261 281.89C440.158 281.638 440.013 281.423 439.827 281.246C439.649 281.059 439.435 280.915 439.183 280.812C438.94 280.7 438.669 280.644 438.371 280.644C438.063 280.644 437.783 280.7 437.531 280.812C437.288 280.915 437.078 281.059 436.901 281.246C436.723 281.433 436.583 281.652 436.481 281.904C436.378 282.147 436.317 282.408 436.299 282.688H440.457ZM441.605 284.704C441.446 285.516 441.096 286.127 440.555 286.538C440.013 286.949 439.332 287.154 438.511 287.154C437.932 287.154 437.428 287.061 436.999 286.874C436.579 286.687 436.224 286.426 435.935 286.09C435.645 285.754 435.426 285.353 435.277 284.886C435.137 284.419 435.057 283.911 435.039 283.36C435.039 282.809 435.123 282.305 435.291 281.848C435.459 281.391 435.692 280.994 435.991 280.658C436.299 280.322 436.658 280.061 437.069 279.874C437.489 279.687 437.946 279.594 438.441 279.594C439.085 279.594 439.617 279.729 440.037 280C440.466 280.261 440.807 280.597 441.059 281.008C441.32 281.419 441.497 281.867 441.591 282.352C441.693 282.837 441.735 283.299 441.717 283.738H436.299C436.289 284.055 436.327 284.359 436.411 284.648C436.495 284.928 436.63 285.18 436.817 285.404C437.003 285.619 437.241 285.791 437.531 285.922C437.82 286.053 438.161 286.118 438.553 286.118C439.057 286.118 439.467 286.001 439.785 285.768C440.111 285.535 440.326 285.18 440.429 284.704H441.605ZM449.537 286.972C449.332 287.093 449.047 287.154 448.683 287.154C448.375 287.154 448.128 287.07 447.941 286.902C447.764 286.725 447.675 286.44 447.675 286.048C447.349 286.44 446.966 286.725 446.527 286.902C446.098 287.07 445.631 287.154 445.127 287.154C444.801 287.154 444.488 287.117 444.189 287.042C443.9 286.967 443.648 286.851 443.433 286.692C443.219 286.533 443.046 286.328 442.915 286.076C442.794 285.815 442.733 285.502 442.733 285.138C442.733 284.727 442.803 284.391 442.943 284.13C443.083 283.869 443.265 283.659 443.489 283.5C443.723 283.332 443.984 283.206 444.273 283.122C444.572 283.038 444.875 282.968 445.183 282.912C445.51 282.847 445.818 282.8 446.107 282.772C446.406 282.735 446.667 282.688 446.891 282.632C447.115 282.567 447.293 282.478 447.423 282.366C447.554 282.245 447.619 282.072 447.619 281.848C447.619 281.587 447.568 281.377 447.465 281.218C447.372 281.059 447.246 280.938 447.087 280.854C446.938 280.77 446.765 280.714 446.569 280.686C446.383 280.658 446.196 280.644 446.009 280.644C445.505 280.644 445.085 280.742 444.749 280.938C444.413 281.125 444.231 281.484 444.203 282.016H443.013C443.032 281.568 443.125 281.19 443.293 280.882C443.461 280.574 443.685 280.327 443.965 280.14C444.245 279.944 444.563 279.804 444.917 279.72C445.281 279.636 445.669 279.594 446.079 279.594C446.406 279.594 446.728 279.617 447.045 279.664C447.372 279.711 447.666 279.809 447.927 279.958C448.189 280.098 448.399 280.299 448.557 280.56C448.716 280.821 448.795 281.162 448.795 281.582V285.306C448.795 285.586 448.809 285.791 448.837 285.922C448.875 286.053 448.987 286.118 449.173 286.118C449.276 286.118 449.397 286.095 449.537 286.048V286.972ZM447.605 283.262C447.456 283.374 447.26 283.458 447.017 283.514C446.775 283.561 446.518 283.603 446.247 283.64C445.986 283.668 445.72 283.705 445.449 283.752C445.179 283.789 444.936 283.855 444.721 283.948C444.507 284.041 444.329 284.177 444.189 284.354C444.059 284.522 443.993 284.755 443.993 285.054C443.993 285.25 444.031 285.418 444.105 285.558C444.189 285.689 444.292 285.796 444.413 285.88C444.544 285.964 444.693 286.025 444.861 286.062C445.029 286.099 445.207 286.118 445.393 286.118C445.785 286.118 446.121 286.067 446.401 285.964C446.681 285.852 446.91 285.717 447.087 285.558C447.265 285.39 447.395 285.213 447.479 285.026C447.563 284.83 447.605 284.648 447.605 284.48V283.262ZM451.548 284.718C451.557 284.979 451.618 285.203 451.73 285.39C451.842 285.567 451.986 285.712 452.164 285.824C452.35 285.927 452.556 286.001 452.78 286.048C453.013 286.095 453.251 286.118 453.494 286.118C453.68 286.118 453.876 286.104 454.082 286.076C454.287 286.048 454.474 285.997 454.642 285.922C454.819 285.847 454.964 285.74 455.076 285.6C455.188 285.451 455.244 285.264 455.244 285.04C455.244 284.732 455.127 284.499 454.894 284.34C454.66 284.181 454.366 284.055 454.012 283.962C453.666 283.859 453.288 283.771 452.878 283.696C452.467 283.612 452.084 283.5 451.73 283.36C451.384 283.211 451.095 283.005 450.862 282.744C450.628 282.483 450.512 282.119 450.512 281.652C450.512 281.288 450.591 280.975 450.75 280.714C450.918 280.453 451.128 280.243 451.38 280.084C451.641 279.916 451.93 279.795 452.248 279.72C452.574 279.636 452.896 279.594 453.214 279.594C453.624 279.594 454.002 279.631 454.348 279.706C454.693 279.771 454.996 279.893 455.258 280.07C455.528 280.238 455.743 280.471 455.902 280.77C456.06 281.059 456.154 281.423 456.182 281.862H454.992C454.973 281.629 454.912 281.437 454.81 281.288C454.707 281.129 454.576 281.003 454.418 280.91C454.259 280.817 454.082 280.751 453.886 280.714C453.699 280.667 453.508 280.644 453.312 280.644C453.134 280.644 452.952 280.658 452.766 280.686C452.588 280.714 452.425 280.765 452.276 280.84C452.126 280.905 452.005 280.999 451.912 281.12C451.818 281.232 451.772 281.381 451.772 281.568C451.772 281.773 451.842 281.946 451.982 282.086C452.131 282.217 452.318 282.329 452.542 282.422C452.766 282.506 453.018 282.581 453.298 282.646C453.578 282.702 453.858 282.763 454.138 282.828C454.436 282.893 454.726 282.973 455.006 283.066C455.295 283.159 455.547 283.285 455.762 283.444C455.986 283.593 456.163 283.785 456.294 284.018C456.434 284.251 456.504 284.541 456.504 284.886C456.504 285.325 456.41 285.689 456.224 285.978C456.046 286.267 455.808 286.501 455.51 286.678C455.22 286.855 454.889 286.977 454.516 287.042C454.152 287.117 453.788 287.154 453.424 287.154C453.022 287.154 452.64 287.112 452.276 287.028C451.912 286.944 451.59 286.809 451.31 286.622C451.03 286.426 450.806 286.174 450.638 285.866C450.47 285.549 450.376 285.166 450.358 284.718H451.548ZM459.647 279.762H461.089V280.812H459.647V285.306C459.647 285.446 459.656 285.558 459.675 285.642C459.703 285.726 459.749 285.791 459.815 285.838C459.88 285.885 459.969 285.917 460.081 285.936C460.202 285.945 460.356 285.95 460.543 285.95H461.089V287H460.179C459.871 287 459.605 286.981 459.381 286.944C459.166 286.897 458.989 286.818 458.849 286.706C458.718 286.594 458.62 286.435 458.555 286.23C458.489 286.025 458.457 285.754 458.457 285.418V280.812H457.225V279.762H458.457V277.592H459.647V279.762ZM293.764 303.388C293.764 303.827 293.82 304.219 293.932 304.564C294.053 304.9 294.217 305.185 294.422 305.418C294.627 305.642 294.865 305.815 295.136 305.936C295.416 306.057 295.71 306.118 296.018 306.118C296.326 306.118 296.615 306.057 296.886 305.936C297.166 305.815 297.409 305.642 297.614 305.418C297.819 305.185 297.978 304.9 298.09 304.564C298.211 304.219 298.272 303.827 298.272 303.388C298.272 302.949 298.211 302.562 298.09 302.226C297.978 301.881 297.819 301.591 297.614 301.358C297.409 301.125 297.166 300.947 296.886 300.826C296.615 300.705 296.326 300.644 296.018 300.644C295.71 300.644 295.416 300.705 295.136 300.826C294.865 300.947 294.627 301.125 294.422 301.358C294.217 301.591 294.053 301.881 293.932 302.226C293.82 302.562 293.764 302.949 293.764 303.388ZM292.504 303.388C292.504 302.856 292.579 302.361 292.728 301.904C292.877 301.437 293.101 301.036 293.4 300.7C293.699 300.355 294.067 300.084 294.506 299.888C294.945 299.692 295.449 299.594 296.018 299.594C296.597 299.594 297.101 299.692 297.53 299.888C297.969 300.084 298.337 300.355 298.636 300.7C298.935 301.036 299.159 301.437 299.308 301.904C299.457 302.361 299.532 302.856 299.532 303.388C299.532 303.92 299.457 304.415 299.308 304.872C299.159 305.329 298.935 305.731 298.636 306.076C298.337 306.412 297.969 306.678 297.53 306.874C297.101 307.061 296.597 307.154 296.018 307.154C295.449 307.154 294.945 307.061 294.506 306.874C294.067 306.678 293.699 306.412 293.4 306.076C293.101 305.731 292.877 305.329 292.728 304.872C292.579 304.415 292.504 303.92 292.504 303.388ZM301.11 299.762H302.23V300.91H302.258C302.753 300.033 303.537 299.594 304.61 299.594C305.086 299.594 305.483 299.659 305.8 299.79C306.117 299.921 306.374 300.103 306.57 300.336C306.766 300.569 306.901 300.849 306.976 301.176C307.06 301.493 307.102 301.848 307.102 302.24V307H305.912V302.1C305.912 301.652 305.781 301.297 305.52 301.036C305.259 300.775 304.899 300.644 304.442 300.644C304.078 300.644 303.761 300.7 303.49 300.812C303.229 300.924 303.009 301.083 302.832 301.288C302.655 301.493 302.519 301.736 302.426 302.016C302.342 302.287 302.3 302.585 302.3 302.912V307H301.11V299.762ZM314.09 302.688C314.072 302.408 314.006 302.142 313.894 301.89C313.792 301.638 313.647 301.423 313.46 301.246C313.283 301.059 313.068 300.915 312.816 300.812C312.574 300.7 312.303 300.644 312.004 300.644C311.696 300.644 311.416 300.7 311.164 300.812C310.922 300.915 310.712 301.059 310.534 301.246C310.357 301.433 310.217 301.652 310.114 301.904C310.012 302.147 309.951 302.408 309.932 302.688H314.09ZM315.238 304.704C315.08 305.516 314.73 306.127 314.188 306.538C313.647 306.949 312.966 307.154 312.144 307.154C311.566 307.154 311.062 307.061 310.632 306.874C310.212 306.687 309.858 306.426 309.568 306.09C309.279 305.754 309.06 305.353 308.91 304.886C308.77 304.419 308.691 303.911 308.672 303.36C308.672 302.809 308.756 302.305 308.924 301.848C309.092 301.391 309.326 300.994 309.624 300.658C309.932 300.322 310.292 300.061 310.702 299.874C311.122 299.687 311.58 299.594 312.074 299.594C312.718 299.594 313.25 299.729 313.67 300C314.1 300.261 314.44 300.597 314.692 301.008C314.954 301.419 315.131 301.867 315.224 302.352C315.327 302.837 315.369 303.299 315.35 303.738H309.932C309.923 304.055 309.96 304.359 310.044 304.648C310.128 304.928 310.264 305.18 310.45 305.404C310.637 305.619 310.875 305.791 311.164 305.922C311.454 306.053 311.794 306.118 312.186 306.118C312.69 306.118 313.101 306.001 313.418 305.768C313.745 305.535 313.96 305.18 314.062 304.704H315.238ZM321.698 303.388C321.698 303.827 321.754 304.219 321.866 304.564C321.988 304.9 322.151 305.185 322.356 305.418C322.562 305.642 322.8 305.815 323.07 305.936C323.35 306.057 323.644 306.118 323.952 306.118C324.26 306.118 324.55 306.057 324.82 305.936C325.1 305.815 325.343 305.642 325.548 305.418C325.754 305.185 325.912 304.9 326.024 304.564C326.146 304.219 326.206 303.827 326.206 303.388C326.206 302.949 326.146 302.562 326.024 302.226C325.912 301.881 325.754 301.591 325.548 301.358C325.343 301.125 325.1 300.947 324.82 300.826C324.55 300.705 324.26 300.644 323.952 300.644C323.644 300.644 323.35 300.705 323.07 300.826C322.8 300.947 322.562 301.125 322.356 301.358C322.151 301.591 321.988 301.881 321.866 302.226C321.754 302.562 321.698 302.949 321.698 303.388ZM320.438 303.388C320.438 302.856 320.513 302.361 320.662 301.904C320.812 301.437 321.036 301.036 321.334 300.7C321.633 300.355 322.002 300.084 322.44 299.888C322.879 299.692 323.383 299.594 323.952 299.594C324.531 299.594 325.035 299.692 325.464 299.888C325.903 300.084 326.272 300.355 326.57 300.7C326.869 301.036 327.093 301.437 327.242 301.904C327.392 302.361 327.466 302.856 327.466 303.388C327.466 303.92 327.392 304.415 327.242 304.872C327.093 305.329 326.869 305.731 326.57 306.076C326.272 306.412 325.903 306.678 325.464 306.874C325.035 307.061 324.531 307.154 323.952 307.154C323.383 307.154 322.879 307.061 322.44 306.874C322.002 306.678 321.633 306.412 321.334 306.076C321.036 305.731 320.812 305.329 320.662 304.872C320.513 304.415 320.438 303.92 320.438 303.388ZM329.086 299.762H330.276V300.742H330.304C330.5 300.341 330.808 300.051 331.228 299.874C331.648 299.687 332.11 299.594 332.614 299.594C333.174 299.594 333.66 299.697 334.07 299.902C334.49 300.107 334.836 300.387 335.106 300.742C335.386 301.087 335.596 301.489 335.736 301.946C335.876 302.403 335.946 302.889 335.946 303.402C335.946 303.915 335.876 304.401 335.736 304.858C335.606 305.315 335.4 305.717 335.12 306.062C334.85 306.398 334.504 306.664 334.084 306.86C333.674 307.056 333.193 307.154 332.642 307.154C332.465 307.154 332.264 307.135 332.04 307.098C331.826 307.061 331.611 307 331.396 306.916C331.182 306.832 330.976 306.72 330.78 306.58C330.594 306.431 330.435 306.249 330.304 306.034H330.276V309.758H329.086V299.762ZM334.686 303.318C334.686 302.982 334.64 302.655 334.546 302.338C334.462 302.011 334.327 301.722 334.14 301.47C333.963 301.218 333.73 301.017 333.44 300.868C333.16 300.719 332.829 300.644 332.446 300.644C332.045 300.644 331.704 300.723 331.424 300.882C331.144 301.041 330.916 301.251 330.738 301.512C330.561 301.764 330.43 302.053 330.346 302.38C330.272 302.707 330.234 303.038 330.234 303.374C330.234 303.729 330.276 304.074 330.36 304.41C330.444 304.737 330.575 305.026 330.752 305.278C330.939 305.53 331.177 305.735 331.466 305.894C331.756 306.043 332.106 306.118 332.516 306.118C332.927 306.118 333.268 306.039 333.538 305.88C333.818 305.721 334.042 305.511 334.21 305.25C334.378 304.989 334.5 304.69 334.574 304.354C334.649 304.018 334.686 303.673 334.686 303.318ZM339.17 299.762H340.612V300.812H339.17V305.306C339.17 305.446 339.18 305.558 339.198 305.642C339.226 305.726 339.273 305.791 339.338 305.838C339.404 305.885 339.492 305.917 339.604 305.936C339.726 305.945 339.88 305.95 340.066 305.95H340.612V307H339.702C339.394 307 339.128 306.981 338.904 306.944C338.69 306.897 338.512 306.818 338.372 306.706C338.242 306.594 338.144 306.435 338.078 306.23C338.013 306.025 337.98 305.754 337.98 305.418V300.812H336.748V299.762H337.98V297.592H339.17V299.762ZM343.369 298.46H342.179V297.004H343.369V298.46ZM342.179 299.762H343.369V307H342.179V299.762ZM346.256 303.388C346.256 303.827 346.312 304.219 346.424 304.564C346.545 304.9 346.708 305.185 346.914 305.418C347.119 305.642 347.357 305.815 347.628 305.936C347.908 306.057 348.202 306.118 348.51 306.118C348.818 306.118 349.107 306.057 349.378 305.936C349.658 305.815 349.9 305.642 350.106 305.418C350.311 305.185 350.47 304.9 350.582 304.564C350.703 304.219 350.764 303.827 350.764 303.388C350.764 302.949 350.703 302.562 350.582 302.226C350.47 301.881 350.311 301.591 350.106 301.358C349.9 301.125 349.658 300.947 349.378 300.826C349.107 300.705 348.818 300.644 348.51 300.644C348.202 300.644 347.908 300.705 347.628 300.826C347.357 300.947 347.119 301.125 346.914 301.358C346.708 301.591 346.545 301.881 346.424 302.226C346.312 302.562 346.256 302.949 346.256 303.388ZM344.996 303.388C344.996 302.856 345.07 302.361 345.22 301.904C345.369 301.437 345.593 301.036 345.892 300.7C346.19 300.355 346.559 300.084 346.998 299.888C347.436 299.692 347.94 299.594 348.51 299.594C349.088 299.594 349.592 299.692 350.022 299.888C350.46 300.084 350.829 300.355 351.128 300.7C351.426 301.036 351.65 301.437 351.8 301.904C351.949 302.361 352.024 302.856 352.024 303.388C352.024 303.92 351.949 304.415 351.8 304.872C351.65 305.329 351.426 305.731 351.128 306.076C350.829 306.412 350.46 306.678 350.022 306.874C349.592 307.061 349.088 307.154 348.51 307.154C347.94 307.154 347.436 307.061 346.998 306.874C346.559 306.678 346.19 306.412 345.892 306.076C345.593 305.731 345.369 305.329 345.22 304.872C345.07 304.415 344.996 303.92 344.996 303.388ZM353.602 299.762H354.722V300.91H354.75C355.245 300.033 356.029 299.594 357.102 299.594C357.578 299.594 357.975 299.659 358.292 299.79C358.609 299.921 358.866 300.103 359.062 300.336C359.258 300.569 359.393 300.849 359.468 301.176C359.552 301.493 359.594 301.848 359.594 302.24V307H358.404V302.1C358.404 301.652 358.273 301.297 358.012 301.036C357.751 300.775 357.391 300.644 356.934 300.644C356.57 300.644 356.253 300.7 355.982 300.812C355.721 300.924 355.501 301.083 355.324 301.288C355.147 301.493 355.011 301.736 354.918 302.016C354.834 302.287 354.792 302.585 354.792 302.912V307H353.602V299.762ZM361.822 305.446H363.376V307H361.822V305.446Z" fill="#DB0002"/>
</svg>
