<svg width="600" height="400" viewBox="0 0 600 400" fill="none" xmlns="http://www.w3.org/2000/svg">
<rect width="600" height="400" fill="black" fill-opacity="0.04"/>
<path d="M101.568 134.5H99.984L97.376 124.9H97.344L94.704 134.5H93.12L90.192 123.076H91.744L93.984 132.58H94.016L96.576 123.076H98.224L100.752 132.58H100.784L103.104 123.076H104.624L101.568 134.5ZM107.277 124.74H105.917V123.076H107.277V124.74ZM105.917 126.228H107.277V134.5H105.917V126.228ZM111.271 126.228H112.919V127.428H111.271V132.564C111.271 132.724 111.282 132.852 111.303 132.948C111.335 133.044 111.389 133.119 111.463 133.172C111.538 133.225 111.639 133.263 111.767 133.284C111.906 133.295 112.082 133.3 112.295 133.3H112.919V134.5H111.879C111.527 134.5 111.223 134.479 110.967 134.436C110.722 134.383 110.519 134.292 110.359 134.164C110.21 134.036 110.098 133.855 110.023 133.62C109.949 133.385 109.911 133.076 109.911 132.692V127.428H108.503V126.228H109.911V123.748H111.271V126.228ZM114.43 123.076H115.79V127.444H115.822C115.929 127.188 116.078 126.975 116.27 126.804C116.462 126.623 116.676 126.479 116.91 126.372C117.156 126.255 117.406 126.169 117.662 126.116C117.929 126.063 118.185 126.036 118.43 126.036C118.974 126.036 119.428 126.111 119.79 126.26C120.153 126.409 120.446 126.617 120.67 126.884C120.894 127.151 121.049 127.471 121.134 127.844C121.23 128.207 121.278 128.612 121.278 129.06V134.5H119.918V128.9C119.918 128.388 119.769 127.983 119.47 127.684C119.172 127.385 118.761 127.236 118.238 127.236C117.822 127.236 117.46 127.3 117.15 127.428C116.852 127.556 116.601 127.737 116.398 127.972C116.196 128.207 116.041 128.484 115.934 128.804C115.838 129.113 115.79 129.455 115.79 129.828V134.5H114.43V123.076ZM127.854 123.076H129.214V134.5H127.854V123.076ZM138.649 134.468C138.414 134.607 138.089 134.676 137.673 134.676C137.321 134.676 137.038 134.58 136.825 134.388C136.622 134.185 136.521 133.86 136.521 133.412C136.148 133.86 135.71 134.185 135.209 134.388C134.718 134.58 134.185 134.676 133.609 134.676C133.236 134.676 132.878 134.633 132.537 134.548C132.206 134.463 131.918 134.329 131.673 134.148C131.428 133.967 131.23 133.732 131.081 133.444C130.942 133.145 130.873 132.788 130.873 132.372C130.873 131.903 130.953 131.519 131.113 131.22C131.273 130.921 131.481 130.681 131.737 130.5C132.004 130.308 132.302 130.164 132.633 130.068C132.974 129.972 133.321 129.892 133.673 129.828C134.046 129.753 134.398 129.7 134.729 129.668C135.07 129.625 135.369 129.572 135.625 129.508C135.881 129.433 136.084 129.332 136.233 129.204C136.382 129.065 136.457 128.868 136.457 128.612C136.457 128.313 136.398 128.073 136.281 127.892C136.174 127.711 136.03 127.572 135.849 127.476C135.678 127.38 135.481 127.316 135.257 127.284C135.044 127.252 134.83 127.236 134.617 127.236C134.041 127.236 133.561 127.348 133.177 127.572C132.793 127.785 132.585 128.196 132.553 128.804H131.193C131.214 128.292 131.321 127.86 131.513 127.508C131.705 127.156 131.961 126.873 132.281 126.66C132.601 126.436 132.964 126.276 133.369 126.18C133.785 126.084 134.228 126.036 134.697 126.036C135.07 126.036 135.438 126.063 135.801 126.116C136.174 126.169 136.51 126.281 136.809 126.452C137.108 126.612 137.348 126.841 137.529 127.14C137.71 127.439 137.801 127.828 137.801 128.308V132.564C137.801 132.884 137.817 133.119 137.849 133.268C137.892 133.417 138.02 133.492 138.233 133.492C138.35 133.492 138.489 133.465 138.649 133.412V134.468ZM136.441 130.228C136.27 130.356 136.046 130.452 135.769 130.516C135.492 130.569 135.198 130.617 134.889 130.66C134.59 130.692 134.286 130.735 133.977 130.788C133.668 130.831 133.39 130.905 133.145 131.012C132.9 131.119 132.697 131.273 132.537 131.476C132.388 131.668 132.313 131.935 132.313 132.276C132.313 132.5 132.356 132.692 132.441 132.852C132.537 133.001 132.654 133.124 132.793 133.22C132.942 133.316 133.113 133.385 133.305 133.428C133.497 133.471 133.7 133.492 133.913 133.492C134.361 133.492 134.745 133.433 135.065 133.316C135.385 133.188 135.646 133.033 135.849 132.852C136.052 132.66 136.201 132.457 136.297 132.244C136.393 132.02 136.441 131.812 136.441 131.62V130.228ZM139.963 123.076H141.323V127.348H141.355C141.579 126.889 141.931 126.559 142.411 126.356C142.891 126.143 143.419 126.036 143.995 126.036C144.635 126.036 145.189 126.153 145.659 126.388C146.139 126.623 146.533 126.943 146.843 127.348C147.163 127.743 147.403 128.201 147.563 128.724C147.723 129.247 147.803 129.801 147.803 130.388C147.803 130.975 147.723 131.529 147.563 132.052C147.413 132.575 147.179 133.033 146.859 133.428C146.549 133.812 146.155 134.116 145.675 134.34C145.205 134.564 144.656 134.676 144.027 134.676C143.824 134.676 143.595 134.655 143.339 134.612C143.093 134.569 142.848 134.5 142.603 134.404C142.357 134.308 142.123 134.18 141.899 134.02C141.685 133.849 141.504 133.641 141.355 133.396H141.323V134.5H139.963V123.076ZM146.363 130.292C146.363 129.908 146.309 129.535 146.203 129.172C146.107 128.799 145.952 128.468 145.739 128.18C145.536 127.892 145.269 127.663 144.939 127.492C144.619 127.321 144.24 127.236 143.803 127.236C143.344 127.236 142.955 127.327 142.635 127.508C142.315 127.689 142.053 127.929 141.851 128.228C141.648 128.516 141.499 128.847 141.403 129.22C141.317 129.593 141.275 129.972 141.275 130.356C141.275 130.761 141.323 131.156 141.419 131.54C141.515 131.913 141.664 132.244 141.867 132.532C142.08 132.82 142.352 133.055 142.683 133.236C143.013 133.407 143.413 133.492 143.883 133.492C144.352 133.492 144.741 133.401 145.051 133.22C145.371 133.039 145.627 132.799 145.819 132.5C146.011 132.201 146.149 131.86 146.235 131.476C146.32 131.092 146.363 130.697 146.363 130.292ZM155.143 129.572C155.122 129.252 155.047 128.948 154.919 128.66C154.802 128.372 154.636 128.127 154.423 127.924C154.22 127.711 153.975 127.545 153.687 127.428C153.41 127.3 153.1 127.236 152.759 127.236C152.407 127.236 152.087 127.3 151.799 127.428C151.522 127.545 151.282 127.711 151.079 127.924C150.876 128.137 150.716 128.388 150.599 128.676C150.482 128.953 150.412 129.252 150.391 129.572H155.143ZM156.455 131.876C156.274 132.804 155.874 133.503 155.255 133.972C154.636 134.441 153.858 134.676 152.919 134.676C152.258 134.676 151.682 134.569 151.191 134.356C150.711 134.143 150.306 133.844 149.975 133.46C149.644 133.076 149.394 132.617 149.223 132.084C149.063 131.551 148.972 130.969 148.951 130.34C148.951 129.711 149.047 129.135 149.239 128.612C149.431 128.089 149.698 127.636 150.039 127.252C150.391 126.868 150.802 126.569 151.271 126.356C151.751 126.143 152.274 126.036 152.839 126.036C153.575 126.036 154.183 126.191 154.663 126.5C155.154 126.799 155.543 127.183 155.831 127.652C156.13 128.121 156.332 128.633 156.439 129.188C156.556 129.743 156.604 130.271 156.583 130.772H150.391C150.38 131.135 150.423 131.481 150.519 131.812C150.615 132.132 150.77 132.42 150.983 132.676C151.196 132.921 151.468 133.119 151.799 133.268C152.13 133.417 152.519 133.492 152.967 133.492C153.543 133.492 154.012 133.359 154.375 133.092C154.748 132.825 154.994 132.42 155.111 131.876H156.455ZM158.073 123.076H159.433V134.5H158.073V123.076Z" fill="black" fill-opacity="0.68"/>
<mask id="path-2-inside-1_68467_48657" fill="white">
<path d="M270 75H510V183H270V75Z"/>
</mask>
<path d="M270 75H510V183H270V75Z" fill="black" fill-opacity="0.04"/>
<path d="M510 183V182H270V183V184H510V183Z" fill="black" fill-opacity="0.2" mask="url(#path-2-inside-1_68467_48657)"/>
<path d="M288.412 93.46H291.316L289.888 89.464H289.864L288.412 93.46ZM289.264 88.432H290.524L293.872 97H292.612L291.676 94.42H288.052L287.092 97H285.928L289.264 88.432ZM295.473 93.952C295.473 94.24 295.509 94.524 295.581 94.804C295.661 95.076 295.777 95.32 295.929 95.536C296.089 95.752 296.289 95.924 296.529 96.052C296.777 96.18 297.065 96.244 297.393 96.244C297.737 96.244 298.029 96.176 298.269 96.04C298.509 95.904 298.705 95.728 298.857 95.512C299.009 95.288 299.117 95.036 299.181 94.756C299.253 94.476 299.289 94.192 299.289 93.904C299.289 93.6 299.253 93.308 299.181 93.028C299.109 92.74 298.993 92.488 298.833 92.272C298.681 92.056 298.481 91.884 298.233 91.756C297.985 91.62 297.685 91.552 297.333 91.552C296.989 91.552 296.697 91.62 296.457 91.756C296.217 91.892 296.025 92.072 295.881 92.296C295.737 92.52 295.633 92.776 295.569 93.064C295.505 93.352 295.473 93.648 295.473 93.952ZM300.273 97H299.253V96.16H299.229C299.061 96.504 298.797 96.752 298.437 96.904C298.077 97.056 297.681 97.132 297.249 97.132C296.769 97.132 296.349 97.044 295.989 96.868C295.637 96.692 295.341 96.456 295.101 96.16C294.869 95.864 294.693 95.52 294.573 95.128C294.453 94.736 294.393 94.32 294.393 93.88C294.393 93.44 294.449 93.024 294.561 92.632C294.681 92.24 294.857 91.9 295.089 91.612C295.329 91.316 295.625 91.084 295.977 90.916C296.337 90.74 296.753 90.652 297.225 90.652C297.385 90.652 297.557 90.668 297.741 90.7C297.925 90.732 298.109 90.788 298.293 90.868C298.477 90.94 298.649 91.04 298.809 91.168C298.977 91.288 299.117 91.44 299.229 91.624H299.253V88.432H300.273V97ZM302.767 93.952C302.767 94.24 302.803 94.524 302.875 94.804C302.955 95.076 303.071 95.32 303.223 95.536C303.383 95.752 303.583 95.924 303.823 96.052C304.071 96.18 304.359 96.244 304.687 96.244C305.031 96.244 305.323 96.176 305.563 96.04C305.803 95.904 305.999 95.728 306.151 95.512C306.303 95.288 306.411 95.036 306.475 94.756C306.547 94.476 306.583 94.192 306.583 93.904C306.583 93.6 306.547 93.308 306.475 93.028C306.403 92.74 306.287 92.488 306.127 92.272C305.975 92.056 305.775 91.884 305.527 91.756C305.279 91.62 304.979 91.552 304.627 91.552C304.283 91.552 303.991 91.62 303.751 91.756C303.511 91.892 303.319 92.072 303.175 92.296C303.031 92.52 302.927 92.776 302.863 93.064C302.799 93.352 302.767 93.648 302.767 93.952ZM307.567 97H306.547V96.16H306.523C306.355 96.504 306.091 96.752 305.731 96.904C305.371 97.056 304.975 97.132 304.543 97.132C304.063 97.132 303.643 97.044 303.283 96.868C302.931 96.692 302.635 96.456 302.395 96.16C302.163 95.864 301.987 95.52 301.867 95.128C301.747 94.736 301.687 94.32 301.687 93.88C301.687 93.44 301.743 93.024 301.855 92.632C301.975 92.24 302.151 91.9 302.383 91.612C302.623 91.316 302.919 91.084 303.271 90.916C303.631 90.74 304.047 90.652 304.519 90.652C304.679 90.652 304.851 90.668 305.035 90.7C305.219 90.732 305.403 90.788 305.587 90.868C305.771 90.94 305.943 91.04 306.103 91.168C306.271 91.288 306.411 91.44 306.523 91.624H306.547V88.432H307.567V97ZM310.396 89.68H309.376V88.432H310.396V89.68ZM309.376 90.796H310.396V97H309.376V90.796ZM313.572 90.796H314.808V91.696H313.572V95.548C313.572 95.668 313.58 95.764 313.596 95.836C313.62 95.908 313.66 95.964 313.716 96.004C313.772 96.044 313.848 96.072 313.944 96.088C314.048 96.096 314.18 96.1 314.34 96.1H314.808V97H314.028C313.764 97 313.536 96.984 313.344 96.952C313.16 96.912 313.008 96.844 312.888 96.748C312.776 96.652 312.692 96.516 312.636 96.34C312.58 96.164 312.552 95.932 312.552 95.644V91.696H311.496V90.796H312.552V88.936H313.572V90.796ZM317.201 89.68H316.181V88.432H317.201V89.68ZM316.181 90.796H317.201V97H316.181V90.796ZM319.705 93.904C319.705 94.28 319.753 94.616 319.849 94.912C319.953 95.2 320.093 95.444 320.269 95.644C320.445 95.836 320.649 95.984 320.881 96.088C321.121 96.192 321.373 96.244 321.637 96.244C321.901 96.244 322.149 96.192 322.381 96.088C322.621 95.984 322.829 95.836 323.005 95.644C323.181 95.444 323.317 95.2 323.413 94.912C323.517 94.616 323.569 94.28 323.569 93.904C323.569 93.528 323.517 93.196 323.413 92.908C323.317 92.612 323.181 92.364 323.005 92.164C322.829 91.964 322.621 91.812 322.381 91.708C322.149 91.604 321.901 91.552 321.637 91.552C321.373 91.552 321.121 91.604 320.881 91.708C320.649 91.812 320.445 91.964 320.269 92.164C320.093 92.364 319.953 92.612 319.849 92.908C319.753 93.196 319.705 93.528 319.705 93.904ZM318.625 93.904C318.625 93.448 318.689 93.024 318.817 92.632C318.945 92.232 319.137 91.888 319.393 91.6C319.649 91.304 319.965 91.072 320.341 90.904C320.717 90.736 321.149 90.652 321.637 90.652C322.133 90.652 322.565 90.736 322.933 90.904C323.309 91.072 323.625 91.304 323.881 91.6C324.137 91.888 324.329 92.232 324.457 92.632C324.585 93.024 324.649 93.448 324.649 93.904C324.649 94.36 324.585 94.784 324.457 95.176C324.329 95.568 324.137 95.912 323.881 96.208C323.625 96.496 323.309 96.724 322.933 96.892C322.565 97.052 322.133 97.132 321.637 97.132C321.149 97.132 320.717 97.052 320.341 96.892C319.965 96.724 319.649 96.496 319.393 96.208C319.137 95.912 318.945 95.568 318.817 95.176C318.689 94.784 318.625 94.36 318.625 93.904ZM326.032 90.796H326.992V91.78H327.016C327.44 91.028 328.112 90.652 329.032 90.652C329.44 90.652 329.78 90.708 330.052 90.82C330.324 90.932 330.544 91.088 330.712 91.288C330.88 91.488 330.996 91.728 331.06 92.008C331.132 92.28 331.168 92.584 331.168 92.92V97H330.148V92.8C330.148 92.416 330.036 92.112 329.812 91.888C329.588 91.664 329.28 91.552 328.888 91.552C328.576 91.552 328.304 91.6 328.072 91.696C327.848 91.792 327.66 91.928 327.508 92.104C327.356 92.28 327.24 92.488 327.16 92.728C327.088 92.96 327.052 93.216 327.052 93.496V97H326.032V90.796ZM338.376 96.976C338.2 97.08 337.956 97.132 337.644 97.132C337.38 97.132 337.168 97.06 337.008 96.916C336.856 96.764 336.78 96.52 336.78 96.184C336.5 96.52 336.172 96.764 335.796 96.916C335.428 97.06 335.028 97.132 334.596 97.132C334.316 97.132 334.048 97.1 333.792 97.036C333.544 96.972 333.328 96.872 333.144 96.736C332.96 96.6 332.812 96.424 332.7 96.208C332.596 95.984 332.544 95.716 332.544 95.404C332.544 95.052 332.604 94.764 332.724 94.54C332.844 94.316 333 94.136 333.192 94C333.392 93.856 333.616 93.748 333.864 93.676C334.12 93.604 334.38 93.544 334.644 93.496C334.924 93.44 335.188 93.4 335.436 93.376C335.692 93.344 335.916 93.304 336.108 93.256C336.3 93.2 336.452 93.124 336.564 93.028C336.676 92.924 336.732 92.776 336.732 92.584C336.732 92.36 336.688 92.18 336.6 92.044C336.52 91.908 336.412 91.804 336.276 91.732C336.148 91.66 336 91.612 335.832 91.588C335.672 91.564 335.512 91.552 335.352 91.552C334.92 91.552 334.56 91.636 334.272 91.804C333.984 91.964 333.828 92.272 333.804 92.728H332.784C332.8 92.344 332.88 92.02 333.024 91.756C333.168 91.492 333.36 91.28 333.6 91.12C333.84 90.952 334.112 90.832 334.416 90.76C334.728 90.688 335.06 90.652 335.412 90.652C335.692 90.652 335.968 90.672 336.24 90.712C336.52 90.752 336.772 90.836 336.996 90.964C337.22 91.084 337.4 91.256 337.536 91.48C337.672 91.704 337.74 91.996 337.74 92.356V95.548C337.74 95.788 337.752 95.964 337.776 96.076C337.808 96.188 337.904 96.244 338.064 96.244C338.152 96.244 338.256 96.224 338.376 96.184V96.976ZM336.72 93.796C336.592 93.892 336.424 93.964 336.216 94.012C336.008 94.052 335.788 94.088 335.556 94.12C335.332 94.144 335.104 94.176 334.872 94.216C334.64 94.248 334.432 94.304 334.248 94.384C334.064 94.464 333.912 94.58 333.792 94.732C333.68 94.876 333.624 95.076 333.624 95.332C333.624 95.5 333.656 95.644 333.72 95.764C333.792 95.876 333.88 95.968 333.984 96.04C334.096 96.112 334.224 96.164 334.368 96.196C334.512 96.228 334.664 96.244 334.824 96.244C335.16 96.244 335.448 96.2 335.688 96.112C335.928 96.016 336.124 95.9 336.276 95.764C336.428 95.62 336.54 95.468 336.612 95.308C336.684 95.14 336.72 94.984 336.72 94.84V93.796ZM339.565 88.432H340.585V97H339.565V88.432ZM350.077 92.788C349.997 92.396 349.829 92.092 349.573 91.876C349.317 91.66 348.973 91.552 348.541 91.552C348.173 91.552 347.865 91.62 347.617 91.756C347.369 91.892 347.169 92.072 347.017 92.296C346.873 92.52 346.769 92.78 346.705 93.076C346.641 93.364 346.609 93.664 346.609 93.976C346.609 94.264 346.641 94.544 346.705 94.816C346.777 95.088 346.885 95.332 347.029 95.548C347.173 95.756 347.361 95.924 347.593 96.052C347.825 96.18 348.101 96.244 348.421 96.244C348.925 96.244 349.317 96.112 349.597 95.848C349.885 95.584 350.061 95.212 350.125 94.732H351.169C351.057 95.5 350.769 96.092 350.305 96.508C349.849 96.924 349.225 97.132 348.433 97.132C347.961 97.132 347.541 97.056 347.173 96.904C346.813 96.752 346.509 96.536 346.261 96.256C346.021 95.976 345.837 95.644 345.709 95.26C345.589 94.868 345.529 94.44 345.529 93.976C345.529 93.512 345.589 93.08 345.709 92.68C345.829 92.272 346.009 91.92 346.249 91.624C346.497 91.32 346.805 91.084 347.173 90.916C347.541 90.74 347.969 90.652 348.457 90.652C348.809 90.652 349.137 90.696 349.441 90.784C349.753 90.864 350.025 90.992 350.257 91.168C350.497 91.344 350.693 91.568 350.845 91.84C350.997 92.104 351.093 92.42 351.133 92.788H350.077ZM353.235 93.904C353.235 94.28 353.283 94.616 353.379 94.912C353.483 95.2 353.623 95.444 353.799 95.644C353.975 95.836 354.179 95.984 354.411 96.088C354.651 96.192 354.903 96.244 355.167 96.244C355.431 96.244 355.679 96.192 355.911 96.088C356.151 95.984 356.359 95.836 356.535 95.644C356.711 95.444 356.847 95.2 356.943 94.912C357.047 94.616 357.099 94.28 357.099 93.904C357.099 93.528 357.047 93.196 356.943 92.908C356.847 92.612 356.711 92.364 356.535 92.164C356.359 91.964 356.151 91.812 355.911 91.708C355.679 91.604 355.431 91.552 355.167 91.552C354.903 91.552 354.651 91.604 354.411 91.708C354.179 91.812 353.975 91.964 353.799 92.164C353.623 92.364 353.483 92.612 353.379 92.908C353.283 93.196 353.235 93.528 353.235 93.904ZM352.155 93.904C352.155 93.448 352.219 93.024 352.347 92.632C352.475 92.232 352.667 91.888 352.923 91.6C353.179 91.304 353.495 91.072 353.871 90.904C354.247 90.736 354.679 90.652 355.167 90.652C355.663 90.652 356.095 90.736 356.463 90.904C356.839 91.072 357.155 91.304 357.411 91.6C357.667 91.888 357.859 92.232 357.987 92.632C358.115 93.024 358.179 93.448 358.179 93.904C358.179 94.36 358.115 94.784 357.987 95.176C357.859 95.568 357.667 95.912 357.411 96.208C357.155 96.496 356.839 96.724 356.463 96.892C356.095 97.052 355.663 97.132 355.167 97.132C354.679 97.132 354.247 97.052 353.871 96.892C353.495 96.724 353.179 96.496 352.923 96.208C352.667 95.912 352.475 95.568 352.347 95.176C352.219 94.784 352.155 94.36 352.155 93.904ZM359.561 90.796H360.521V91.708H360.545C361.009 91.004 361.677 90.652 362.549 90.652C362.933 90.652 363.281 90.732 363.593 90.892C363.905 91.052 364.125 91.324 364.253 91.708C364.461 91.372 364.733 91.112 365.069 90.928C365.413 90.744 365.789 90.652 366.197 90.652C366.509 90.652 366.789 90.688 367.037 90.76C367.293 90.824 367.509 90.928 367.685 91.072C367.869 91.216 368.009 91.404 368.105 91.636C368.209 91.86 368.261 92.132 368.261 92.452V97H367.241V92.932C367.241 92.74 367.225 92.56 367.193 92.392C367.161 92.224 367.101 92.08 367.013 91.96C366.925 91.832 366.801 91.732 366.641 91.66C366.489 91.588 366.289 91.552 366.041 91.552C365.537 91.552 365.141 91.696 364.853 91.984C364.565 92.272 364.421 92.656 364.421 93.136V97H363.401V92.932C363.401 92.732 363.381 92.548 363.341 92.38C363.309 92.212 363.249 92.068 363.161 91.948C363.073 91.82 362.953 91.724 362.801 91.66C362.657 91.588 362.469 91.552 362.237 91.552C361.941 91.552 361.685 91.612 361.469 91.732C361.261 91.852 361.089 91.996 360.953 92.164C360.825 92.332 360.729 92.508 360.665 92.692C360.609 92.868 360.581 93.016 360.581 93.136V97H359.561V90.796ZM369.972 90.796H370.932V91.708H370.956C371.42 91.004 372.088 90.652 372.96 90.652C373.344 90.652 373.692 90.732 374.004 90.892C374.316 91.052 374.536 91.324 374.664 91.708C374.872 91.372 375.144 91.112 375.48 90.928C375.824 90.744 376.2 90.652 376.608 90.652C376.92 90.652 377.2 90.688 377.448 90.76C377.704 90.824 377.92 90.928 378.096 91.072C378.28 91.216 378.42 91.404 378.516 91.636C378.62 91.86 378.672 92.132 378.672 92.452V97H377.652V92.932C377.652 92.74 377.636 92.56 377.604 92.392C377.572 92.224 377.512 92.08 377.424 91.96C377.336 91.832 377.212 91.732 377.052 91.66C376.9 91.588 376.7 91.552 376.452 91.552C375.948 91.552 375.552 91.696 375.264 91.984C374.976 92.272 374.832 92.656 374.832 93.136V97H373.812V92.932C373.812 92.732 373.792 92.548 373.752 92.38C373.72 92.212 373.66 92.068 373.572 91.948C373.484 91.82 373.364 91.724 373.212 91.66C373.068 91.588 372.88 91.552 372.648 91.552C372.352 91.552 372.096 91.612 371.88 91.732C371.672 91.852 371.5 91.996 371.364 92.164C371.236 92.332 371.14 92.508 371.076 92.692C371.02 92.868 370.992 93.016 370.992 93.136V97H369.972V90.796ZM384.69 93.304C384.674 93.064 384.618 92.836 384.522 92.62C384.434 92.404 384.31 92.22 384.15 92.068C383.998 91.908 383.814 91.784 383.598 91.696C383.39 91.6 383.158 91.552 382.902 91.552C382.638 91.552 382.398 91.6 382.182 91.696C381.974 91.784 381.794 91.908 381.642 92.068C381.49 92.228 381.37 92.416 381.282 92.632C381.194 92.84 381.142 93.064 381.126 93.304H384.69ZM385.674 95.032C385.538 95.728 385.238 96.252 384.774 96.604C384.31 96.956 383.726 97.132 383.022 97.132C382.526 97.132 382.094 97.052 381.726 96.892C381.366 96.732 381.062 96.508 380.814 96.22C380.566 95.932 380.378 95.588 380.25 95.188C380.13 94.788 380.062 94.352 380.046 93.88C380.046 93.408 380.118 92.976 380.262 92.584C380.406 92.192 380.606 91.852 380.862 91.564C381.126 91.276 381.434 91.052 381.786 90.892C382.146 90.732 382.538 90.652 382.962 90.652C383.514 90.652 383.97 90.768 384.33 91C384.698 91.224 384.99 91.512 385.206 91.864C385.43 92.216 385.582 92.6 385.662 93.016C385.75 93.432 385.786 93.828 385.77 94.204H381.126C381.118 94.476 381.15 94.736 381.222 94.984C381.294 95.224 381.41 95.44 381.57 95.632C381.73 95.816 381.934 95.964 382.182 96.076C382.43 96.188 382.722 96.244 383.058 96.244C383.49 96.244 383.842 96.144 384.114 95.944C384.394 95.744 384.578 95.44 384.666 95.032H385.674ZM387.007 90.796H387.967V91.78H387.991C388.415 91.028 389.087 90.652 390.007 90.652C390.415 90.652 390.755 90.708 391.027 90.82C391.299 90.932 391.519 91.088 391.687 91.288C391.855 91.488 391.971 91.728 392.035 92.008C392.107 92.28 392.143 92.584 392.143 92.92V97H391.123V92.8C391.123 92.416 391.011 92.112 390.787 91.888C390.563 91.664 390.255 91.552 389.863 91.552C389.551 91.552 389.279 91.6 389.047 91.696C388.823 91.792 388.635 91.928 388.483 92.104C388.331 92.28 388.215 92.488 388.135 92.728C388.063 92.96 388.027 93.216 388.027 93.496V97H387.007V90.796ZM395.271 90.796H396.507V91.696H395.271V95.548C395.271 95.668 395.279 95.764 395.295 95.836C395.319 95.908 395.359 95.964 395.415 96.004C395.471 96.044 395.547 96.072 395.643 96.088C395.747 96.096 395.879 96.1 396.039 96.1H396.507V97H395.727C395.463 97 395.235 96.984 395.043 96.952C394.859 96.912 394.707 96.844 394.587 96.748C394.475 96.652 394.391 96.516 394.335 96.34C394.279 96.164 394.251 95.932 394.251 95.644V91.696H393.195V90.796H394.251V88.936H395.271V90.796ZM398.444 95.044C398.452 95.268 398.504 95.46 398.6 95.62C398.696 95.772 398.82 95.896 398.972 95.992C399.132 96.08 399.308 96.144 399.5 96.184C399.7 96.224 399.904 96.244 400.112 96.244C400.272 96.244 400.44 96.232 400.616 96.208C400.792 96.184 400.952 96.14 401.096 96.076C401.248 96.012 401.372 95.92 401.468 95.8C401.564 95.672 401.612 95.512 401.612 95.32C401.612 95.056 401.512 94.856 401.312 94.72C401.112 94.584 400.86 94.476 400.556 94.396C400.26 94.308 399.936 94.232 399.584 94.168C399.232 94.096 398.904 94 398.6 93.88C398.304 93.752 398.056 93.576 397.856 93.352C397.656 93.128 397.556 92.816 397.556 92.416C397.556 92.104 397.624 91.836 397.76 91.612C397.904 91.388 398.084 91.208 398.3 91.072C398.524 90.928 398.772 90.824 399.044 90.76C399.324 90.688 399.6 90.652 399.872 90.652C400.224 90.652 400.548 90.684 400.844 90.748C401.14 90.804 401.4 90.908 401.624 91.06C401.856 91.204 402.04 91.404 402.176 91.66C402.312 91.908 402.392 92.22 402.416 92.596H401.396C401.38 92.396 401.328 92.232 401.24 92.104C401.152 91.968 401.04 91.86 400.904 91.78C400.768 91.7 400.616 91.644 400.448 91.612C400.288 91.572 400.124 91.552 399.956 91.552C399.804 91.552 399.648 91.564 399.488 91.588C399.336 91.612 399.196 91.656 399.068 91.72C398.94 91.776 398.836 91.856 398.756 91.96C398.676 92.056 398.636 92.184 398.636 92.344C398.636 92.52 398.696 92.668 398.816 92.788C398.944 92.9 399.104 92.996 399.296 93.076C399.488 93.148 399.704 93.212 399.944 93.268C400.184 93.316 400.424 93.368 400.664 93.424C400.92 93.48 401.168 93.548 401.408 93.628C401.656 93.708 401.872 93.816 402.056 93.952C402.248 94.08 402.4 94.244 402.512 94.444C402.632 94.644 402.692 94.892 402.692 95.188C402.692 95.564 402.612 95.876 402.452 96.124C402.3 96.372 402.096 96.572 401.84 96.724C401.592 96.876 401.308 96.98 400.988 97.036C400.676 97.1 400.364 97.132 400.052 97.132C399.708 97.132 399.38 97.096 399.068 97.024C398.756 96.952 398.48 96.836 398.24 96.676C398 96.508 397.808 96.292 397.664 96.028C397.52 95.756 397.44 95.428 397.424 95.044H398.444Z" fill="black" fill-opacity="0.68"/>
<path d="M101.568 284.5H99.984L97.376 274.9H97.344L94.704 284.5H93.12L90.192 273.076H91.744L93.984 282.58H94.016L96.576 273.076H98.224L100.752 282.58H100.784L103.104 273.076H104.624L101.568 284.5ZM107.277 274.74H105.917V273.076H107.277V274.74ZM105.917 276.228H107.277V284.5H105.917V276.228ZM111.271 276.228H112.919V277.428H111.271V282.564C111.271 282.724 111.282 282.852 111.303 282.948C111.335 283.044 111.389 283.119 111.463 283.172C111.538 283.225 111.639 283.263 111.767 283.284C111.906 283.295 112.082 283.3 112.295 283.3H112.919V284.5H111.879C111.527 284.5 111.223 284.479 110.967 284.436C110.722 284.383 110.519 284.292 110.359 284.164C110.21 284.036 110.098 283.855 110.023 283.62C109.949 283.385 109.911 283.076 109.911 282.692V277.428H108.503V276.228H109.911V273.748H111.271V276.228ZM114.43 273.076H115.79V277.444H115.822C115.929 277.188 116.078 276.975 116.27 276.804C116.462 276.623 116.676 276.479 116.91 276.372C117.156 276.255 117.406 276.169 117.662 276.116C117.929 276.063 118.185 276.036 118.43 276.036C118.974 276.036 119.428 276.111 119.79 276.26C120.153 276.409 120.446 276.617 120.67 276.884C120.894 277.151 121.049 277.471 121.134 277.844C121.23 278.207 121.278 278.612 121.278 279.06V284.5H119.918V278.9C119.918 278.388 119.769 277.983 119.47 277.684C119.172 277.385 118.761 277.236 118.238 277.236C117.822 277.236 117.46 277.3 117.15 277.428C116.852 277.556 116.601 277.737 116.398 277.972C116.196 278.207 116.041 278.484 115.934 278.804C115.838 279.113 115.79 279.455 115.79 279.828V284.5H114.43V273.076ZM124.313 280.372C124.313 280.873 124.377 281.321 124.505 281.716C124.644 282.1 124.83 282.425 125.065 282.692C125.3 282.948 125.572 283.145 125.881 283.284C126.201 283.423 126.537 283.492 126.889 283.492C127.241 283.492 127.572 283.423 127.881 283.284C128.201 283.145 128.478 282.948 128.713 282.692C128.948 282.425 129.129 282.1 129.257 281.716C129.396 281.321 129.465 280.873 129.465 280.372C129.465 279.871 129.396 279.428 129.257 279.044C129.129 278.649 128.948 278.319 128.713 278.052C128.478 277.785 128.201 277.583 127.881 277.444C127.572 277.305 127.241 277.236 126.889 277.236C126.537 277.236 126.201 277.305 125.881 277.444C125.572 277.583 125.3 277.785 125.065 278.052C124.83 278.319 124.644 278.649 124.505 279.044C124.377 279.428 124.313 279.871 124.313 280.372ZM122.873 280.372C122.873 279.764 122.958 279.199 123.129 278.676C123.3 278.143 123.556 277.684 123.897 277.3C124.238 276.905 124.66 276.596 125.161 276.372C125.662 276.148 126.238 276.036 126.889 276.036C127.55 276.036 128.126 276.148 128.617 276.372C129.118 276.596 129.54 276.905 129.881 277.3C130.222 277.684 130.478 278.143 130.649 278.676C130.82 279.199 130.905 279.764 130.905 280.372C130.905 280.98 130.82 281.545 130.649 282.068C130.478 282.591 130.222 283.049 129.881 283.444C129.54 283.828 129.118 284.132 128.617 284.356C128.126 284.569 127.55 284.676 126.889 284.676C126.238 284.676 125.662 284.569 125.161 284.356C124.66 284.132 124.238 283.828 123.897 283.444C123.556 283.049 123.3 282.591 123.129 282.068C122.958 281.545 122.873 280.98 122.873 280.372ZM139.356 284.5H138.076V283.188H138.044C137.756 283.7 137.388 284.079 136.94 284.324C136.492 284.559 135.964 284.676 135.356 284.676C134.812 284.676 134.359 284.607 133.996 284.468C133.634 284.319 133.34 284.111 133.116 283.844C132.892 283.577 132.732 283.263 132.636 282.9C132.551 282.527 132.508 282.116 132.508 281.668V276.228H133.868V281.828C133.868 282.34 134.018 282.745 134.316 283.044C134.615 283.343 135.026 283.492 135.548 283.492C135.964 283.492 136.322 283.428 136.62 283.3C136.93 283.172 137.186 282.991 137.388 282.756C137.591 282.521 137.74 282.249 137.836 281.94C137.943 281.62 137.996 281.273 137.996 280.9V276.228H139.356V284.5ZM143.287 276.228H144.935V277.428H143.287V282.564C143.287 282.724 143.298 282.852 143.319 282.948C143.351 283.044 143.404 283.119 143.479 283.172C143.554 283.225 143.655 283.263 143.783 283.284C143.922 283.295 144.098 283.3 144.311 283.3H144.935V284.5H143.895C143.543 284.5 143.239 284.479 142.983 284.436C142.738 284.383 142.535 284.292 142.375 284.164C142.226 284.036 142.114 283.855 142.039 283.62C141.964 283.385 141.927 283.076 141.927 282.692V277.428H140.519V276.228H141.927V273.748H143.287V276.228ZM150.979 273.076H152.339V284.5H150.979V273.076ZM161.774 284.468C161.539 284.607 161.214 284.676 160.798 284.676C160.446 284.676 160.163 284.58 159.95 284.388C159.747 284.185 159.646 283.86 159.646 283.412C159.273 283.86 158.835 284.185 158.334 284.388C157.843 284.58 157.31 284.676 156.734 284.676C156.361 284.676 156.003 284.633 155.662 284.548C155.331 284.463 155.043 284.329 154.798 284.148C154.553 283.967 154.355 283.732 154.206 283.444C154.067 283.145 153.998 282.788 153.998 282.372C153.998 281.903 154.078 281.519 154.238 281.22C154.398 280.921 154.606 280.681 154.862 280.5C155.129 280.308 155.427 280.164 155.758 280.068C156.099 279.972 156.446 279.892 156.798 279.828C157.171 279.753 157.523 279.7 157.854 279.668C158.195 279.625 158.494 279.572 158.75 279.508C159.006 279.433 159.209 279.332 159.358 279.204C159.507 279.065 159.582 278.868 159.582 278.612C159.582 278.313 159.523 278.073 159.406 277.892C159.299 277.711 159.155 277.572 158.974 277.476C158.803 277.38 158.606 277.316 158.382 277.284C158.169 277.252 157.955 277.236 157.742 277.236C157.166 277.236 156.686 277.348 156.302 277.572C155.918 277.785 155.71 278.196 155.678 278.804H154.318C154.339 278.292 154.446 277.86 154.638 277.508C154.83 277.156 155.086 276.873 155.406 276.66C155.726 276.436 156.089 276.276 156.494 276.18C156.91 276.084 157.353 276.036 157.822 276.036C158.195 276.036 158.563 276.063 158.926 276.116C159.299 276.169 159.635 276.281 159.934 276.452C160.233 276.612 160.473 276.841 160.654 277.14C160.835 277.439 160.926 277.828 160.926 278.308V282.564C160.926 282.884 160.942 283.119 160.974 283.268C161.017 283.417 161.145 283.492 161.358 283.492C161.475 283.492 161.614 283.465 161.774 283.412V284.468ZM159.566 280.228C159.395 280.356 159.171 280.452 158.894 280.516C158.617 280.569 158.323 280.617 158.014 280.66C157.715 280.692 157.411 280.735 157.102 280.788C156.793 280.831 156.515 280.905 156.27 281.012C156.025 281.119 155.822 281.273 155.662 281.476C155.513 281.668 155.438 281.935 155.438 282.276C155.438 282.5 155.481 282.692 155.566 282.852C155.662 283.001 155.779 283.124 155.918 283.22C156.067 283.316 156.238 283.385 156.43 283.428C156.622 283.471 156.825 283.492 157.038 283.492C157.486 283.492 157.87 283.433 158.19 283.316C158.51 283.188 158.771 283.033 158.974 282.852C159.177 282.66 159.326 282.457 159.422 282.244C159.518 282.02 159.566 281.812 159.566 281.62V280.228ZM163.088 273.076H164.448V277.348H164.48C164.704 276.889 165.056 276.559 165.536 276.356C166.016 276.143 166.544 276.036 167.12 276.036C167.76 276.036 168.314 276.153 168.784 276.388C169.264 276.623 169.658 276.943 169.968 277.348C170.288 277.743 170.528 278.201 170.688 278.724C170.848 279.247 170.928 279.801 170.928 280.388C170.928 280.975 170.848 281.529 170.688 282.052C170.538 282.575 170.304 283.033 169.984 283.428C169.674 283.812 169.28 284.116 168.8 284.34C168.33 284.564 167.781 284.676 167.152 284.676C166.949 284.676 166.72 284.655 166.464 284.612C166.218 284.569 165.973 284.5 165.728 284.404C165.482 284.308 165.248 284.18 165.024 284.02C164.81 283.849 164.629 283.641 164.48 283.396H164.448V284.5H163.088V273.076ZM169.488 280.292C169.488 279.908 169.434 279.535 169.328 279.172C169.232 278.799 169.077 278.468 168.864 278.18C168.661 277.892 168.394 277.663 168.064 277.492C167.744 277.321 167.365 277.236 166.928 277.236C166.469 277.236 166.08 277.327 165.76 277.508C165.44 277.689 165.178 277.929 164.976 278.228C164.773 278.516 164.624 278.847 164.528 279.22C164.442 279.593 164.4 279.972 164.4 280.356C164.4 280.761 164.448 281.156 164.544 281.54C164.64 281.913 164.789 282.244 164.992 282.532C165.205 282.82 165.477 283.055 165.808 283.236C166.138 283.407 166.538 283.492 167.008 283.492C167.477 283.492 167.866 283.401 168.176 283.22C168.496 283.039 168.752 282.799 168.944 282.5C169.136 282.201 169.274 281.86 169.36 281.476C169.445 281.092 169.488 280.697 169.488 280.292ZM178.268 279.572C178.247 279.252 178.172 278.948 178.044 278.66C177.927 278.372 177.761 278.127 177.548 277.924C177.345 277.711 177.1 277.545 176.812 277.428C176.535 277.3 176.225 277.236 175.884 277.236C175.532 277.236 175.212 277.3 174.924 277.428C174.647 277.545 174.407 277.711 174.204 277.924C174.001 278.137 173.841 278.388 173.724 278.676C173.607 278.953 173.537 279.252 173.516 279.572H178.268ZM179.58 281.876C179.399 282.804 178.999 283.503 178.38 283.972C177.761 284.441 176.983 284.676 176.044 284.676C175.383 284.676 174.807 284.569 174.316 284.356C173.836 284.143 173.431 283.844 173.1 283.46C172.769 283.076 172.519 282.617 172.348 282.084C172.188 281.551 172.097 280.969 172.076 280.34C172.076 279.711 172.172 279.135 172.364 278.612C172.556 278.089 172.823 277.636 173.164 277.252C173.516 276.868 173.927 276.569 174.396 276.356C174.876 276.143 175.399 276.036 175.964 276.036C176.7 276.036 177.308 276.191 177.788 276.5C178.279 276.799 178.668 277.183 178.956 277.652C179.255 278.121 179.457 278.633 179.564 279.188C179.681 279.743 179.729 280.271 179.708 280.772H173.516C173.505 281.135 173.548 281.481 173.644 281.812C173.74 282.132 173.895 282.42 174.108 282.676C174.321 282.921 174.593 283.119 174.924 283.268C175.255 283.417 175.644 283.492 176.092 283.492C176.668 283.492 177.137 283.359 177.5 283.092C177.873 282.825 178.119 282.42 178.236 281.876H179.58ZM181.198 273.076H182.558V284.5H181.198V273.076Z" fill="black" fill-opacity="0.68"/>
<mask id="path-6-inside-2_68467_48657" fill="white">
<path d="M270 233H510V325H270V233Z"/>
</mask>
<path d="M270 233H510V325H270V233Z" fill="black" fill-opacity="0.04"/>
<path d="M510 325V324H270V325V326H510V325Z" fill="black" fill-opacity="0.2" mask="url(#path-6-inside-2_68467_48657)"/>
<path d="M289.84 250.856H286.032V249.576H295.168V250.856H291.36V261H289.84V250.856ZM300.374 256.072C300.353 255.752 300.278 255.448 300.15 255.16C300.033 254.872 299.868 254.627 299.654 254.424C299.452 254.211 299.206 254.045 298.918 253.928C298.641 253.8 298.332 253.736 297.99 253.736C297.638 253.736 297.318 253.8 297.03 253.928C296.753 254.045 296.513 254.211 296.31 254.424C296.108 254.637 295.948 254.888 295.83 255.176C295.713 255.453 295.644 255.752 295.622 256.072H300.374ZM301.686 258.376C301.505 259.304 301.105 260.003 300.486 260.472C299.868 260.941 299.089 261.176 298.15 261.176C297.489 261.176 296.913 261.069 296.422 260.856C295.942 260.643 295.537 260.344 295.206 259.96C294.876 259.576 294.625 259.117 294.454 258.584C294.294 258.051 294.204 257.469 294.182 256.84C294.182 256.211 294.278 255.635 294.47 255.112C294.662 254.589 294.929 254.136 295.27 253.752C295.622 253.368 296.033 253.069 296.502 252.856C296.982 252.643 297.505 252.536 298.07 252.536C298.806 252.536 299.414 252.691 299.894 253C300.385 253.299 300.774 253.683 301.062 254.152C301.361 254.621 301.564 255.133 301.67 255.688C301.788 256.243 301.836 256.771 301.814 257.272H295.622C295.612 257.635 295.654 257.981 295.75 258.312C295.846 258.632 296.001 258.92 296.214 259.176C296.428 259.421 296.7 259.619 297.03 259.768C297.361 259.917 297.75 259.992 298.198 259.992C298.774 259.992 299.244 259.859 299.606 259.592C299.98 259.325 300.225 258.92 300.342 258.376H301.686ZM303.504 249.576H304.864V261H303.504V249.576ZM307.251 249.576H308.611V261H307.251V249.576ZM322.419 261H321.139V259.688H321.107C320.819 260.2 320.451 260.579 320.003 260.824C319.555 261.059 319.027 261.176 318.419 261.176C317.875 261.176 317.422 261.107 317.059 260.968C316.696 260.819 316.403 260.611 316.179 260.344C315.955 260.077 315.795 259.763 315.699 259.4C315.614 259.027 315.571 258.616 315.571 258.168V252.728H316.931V258.328C316.931 258.84 317.08 259.245 317.379 259.544C317.678 259.843 318.088 259.992 318.611 259.992C319.027 259.992 319.384 259.928 319.683 259.8C319.992 259.672 320.248 259.491 320.451 259.256C320.654 259.021 320.803 258.749 320.899 258.44C321.006 258.12 321.059 257.773 321.059 257.4V252.728H322.419V261ZM325.494 258.392C325.504 258.691 325.574 258.947 325.702 259.16C325.83 259.363 325.995 259.528 326.198 259.656C326.411 259.773 326.646 259.859 326.902 259.912C327.168 259.965 327.44 259.992 327.718 259.992C327.931 259.992 328.155 259.976 328.39 259.944C328.624 259.912 328.838 259.853 329.03 259.768C329.232 259.683 329.398 259.56 329.526 259.4C329.654 259.229 329.718 259.016 329.718 258.76C329.718 258.408 329.584 258.141 329.318 257.96C329.051 257.779 328.715 257.635 328.31 257.528C327.915 257.411 327.483 257.309 327.014 257.224C326.544 257.128 326.107 257 325.702 256.84C325.307 256.669 324.976 256.435 324.71 256.136C324.443 255.837 324.31 255.421 324.31 254.888C324.31 254.472 324.4 254.115 324.582 253.816C324.774 253.517 325.014 253.277 325.302 253.096C325.6 252.904 325.931 252.765 326.294 252.68C326.667 252.584 327.035 252.536 327.398 252.536C327.867 252.536 328.299 252.579 328.694 252.664C329.088 252.739 329.435 252.877 329.734 253.08C330.043 253.272 330.288 253.539 330.47 253.88C330.651 254.211 330.758 254.627 330.79 255.128H329.43C329.408 254.861 329.339 254.643 329.222 254.472C329.104 254.291 328.955 254.147 328.774 254.04C328.592 253.933 328.39 253.859 328.166 253.816C327.952 253.763 327.734 253.736 327.51 253.736C327.307 253.736 327.099 253.752 326.886 253.784C326.683 253.816 326.496 253.875 326.326 253.96C326.155 254.035 326.016 254.141 325.91 254.28C325.803 254.408 325.75 254.579 325.75 254.792C325.75 255.027 325.83 255.224 325.99 255.384C326.16 255.533 326.374 255.661 326.63 255.768C326.886 255.864 327.174 255.949 327.494 256.024C327.814 256.088 328.134 256.157 328.454 256.232C328.795 256.307 329.126 256.397 329.446 256.504C329.776 256.611 330.064 256.755 330.31 256.936C330.566 257.107 330.768 257.325 330.918 257.592C331.078 257.859 331.158 258.189 331.158 258.584C331.158 259.085 331.051 259.501 330.838 259.832C330.635 260.163 330.363 260.429 330.022 260.632C329.691 260.835 329.312 260.973 328.886 261.048C328.47 261.133 328.054 261.176 327.638 261.176C327.179 261.176 326.742 261.128 326.326 261.032C325.91 260.936 325.542 260.781 325.222 260.568C324.902 260.344 324.646 260.056 324.454 259.704C324.262 259.341 324.155 258.904 324.134 258.392H325.494ZM344.843 260.968C344.608 261.107 344.283 261.176 343.867 261.176C343.515 261.176 343.232 261.08 343.019 260.888C342.816 260.685 342.715 260.36 342.715 259.912C342.341 260.36 341.904 260.685 341.403 260.888C340.912 261.08 340.379 261.176 339.803 261.176C339.429 261.176 339.072 261.133 338.731 261.048C338.4 260.963 338.112 260.829 337.867 260.648C337.621 260.467 337.424 260.232 337.275 259.944C337.136 259.645 337.067 259.288 337.067 258.872C337.067 258.403 337.147 258.019 337.307 257.72C337.467 257.421 337.675 257.181 337.931 257C338.197 256.808 338.496 256.664 338.827 256.568C339.168 256.472 339.515 256.392 339.867 256.328C340.24 256.253 340.592 256.2 340.923 256.168C341.264 256.125 341.563 256.072 341.819 256.008C342.075 255.933 342.277 255.832 342.427 255.704C342.576 255.565 342.651 255.368 342.651 255.112C342.651 254.813 342.592 254.573 342.475 254.392C342.368 254.211 342.224 254.072 342.043 253.976C341.872 253.88 341.675 253.816 341.451 253.784C341.237 253.752 341.024 253.736 340.811 253.736C340.235 253.736 339.755 253.848 339.371 254.072C338.987 254.285 338.779 254.696 338.747 255.304H337.387C337.408 254.792 337.515 254.36 337.707 254.008C337.899 253.656 338.155 253.373 338.475 253.16C338.795 252.936 339.157 252.776 339.563 252.68C339.979 252.584 340.421 252.536 340.891 252.536C341.264 252.536 341.632 252.563 341.995 252.616C342.368 252.669 342.704 252.781 343.003 252.952C343.301 253.112 343.541 253.341 343.723 253.64C343.904 253.939 343.995 254.328 343.995 254.808V259.064C343.995 259.384 344.011 259.619 344.043 259.768C344.085 259.917 344.213 259.992 344.427 259.992C344.544 259.992 344.683 259.965 344.843 259.912V260.968ZM342.635 256.728C342.464 256.856 342.24 256.952 341.963 257.016C341.685 257.069 341.392 257.117 341.083 257.16C340.784 257.192 340.48 257.235 340.171 257.288C339.861 257.331 339.584 257.405 339.339 257.512C339.093 257.619 338.891 257.773 338.731 257.976C338.581 258.168 338.507 258.435 338.507 258.776C338.507 259 338.549 259.192 338.635 259.352C338.731 259.501 338.848 259.624 338.987 259.72C339.136 259.816 339.307 259.885 339.499 259.928C339.691 259.971 339.893 259.992 340.107 259.992C340.555 259.992 340.939 259.933 341.259 259.816C341.579 259.688 341.84 259.533 342.043 259.352C342.245 259.16 342.395 258.957 342.491 258.744C342.587 258.52 342.635 258.312 342.635 258.12V256.728ZM346.356 249.576H347.716V253.848H347.748C347.972 253.389 348.324 253.059 348.804 252.856C349.284 252.643 349.812 252.536 350.388 252.536C351.028 252.536 351.583 252.653 352.052 252.888C352.532 253.123 352.927 253.443 353.236 253.848C353.556 254.243 353.796 254.701 353.956 255.224C354.116 255.747 354.196 256.301 354.196 256.888C354.196 257.475 354.116 258.029 353.956 258.552C353.807 259.075 353.572 259.533 353.252 259.928C352.943 260.312 352.548 260.616 352.068 260.84C351.599 261.064 351.05 261.176 350.42 261.176C350.218 261.176 349.988 261.155 349.732 261.112C349.487 261.069 349.242 261 348.996 260.904C348.751 260.808 348.516 260.68 348.292 260.52C348.079 260.349 347.898 260.141 347.748 259.896H347.716V261H346.356V249.576ZM352.756 256.792C352.756 256.408 352.703 256.035 352.596 255.672C352.5 255.299 352.346 254.968 352.132 254.68C351.93 254.392 351.663 254.163 351.332 253.992C351.012 253.821 350.634 253.736 350.196 253.736C349.738 253.736 349.348 253.827 349.028 254.008C348.708 254.189 348.447 254.429 348.244 254.728C348.042 255.016 347.892 255.347 347.796 255.72C347.711 256.093 347.668 256.472 347.668 256.856C347.668 257.261 347.716 257.656 347.812 258.04C347.908 258.413 348.058 258.744 348.26 259.032C348.474 259.32 348.746 259.555 349.076 259.736C349.407 259.907 349.807 259.992 350.276 259.992C350.746 259.992 351.135 259.901 351.444 259.72C351.764 259.539 352.02 259.299 352.212 259C352.404 258.701 352.543 258.36 352.628 257.976C352.714 257.592 352.756 257.197 352.756 256.792ZM356.985 256.872C356.985 257.373 357.049 257.821 357.177 258.216C357.315 258.6 357.502 258.925 357.737 259.192C357.971 259.448 358.243 259.645 358.553 259.784C358.873 259.923 359.209 259.992 359.561 259.992C359.913 259.992 360.243 259.923 360.553 259.784C360.873 259.645 361.15 259.448 361.385 259.192C361.619 258.925 361.801 258.6 361.929 258.216C362.067 257.821 362.137 257.373 362.137 256.872C362.137 256.371 362.067 255.928 361.929 255.544C361.801 255.149 361.619 254.819 361.385 254.552C361.15 254.285 360.873 254.083 360.553 253.944C360.243 253.805 359.913 253.736 359.561 253.736C359.209 253.736 358.873 253.805 358.553 253.944C358.243 254.083 357.971 254.285 357.737 254.552C357.502 254.819 357.315 255.149 357.177 255.544C357.049 255.928 356.985 256.371 356.985 256.872ZM355.545 256.872C355.545 256.264 355.63 255.699 355.801 255.176C355.971 254.643 356.227 254.184 356.569 253.8C356.91 253.405 357.331 253.096 357.833 252.872C358.334 252.648 358.91 252.536 359.561 252.536C360.222 252.536 360.798 252.648 361.289 252.872C361.79 253.096 362.211 253.405 362.553 253.8C362.894 254.184 363.15 254.643 363.321 255.176C363.491 255.699 363.577 256.264 363.577 256.872C363.577 257.48 363.491 258.045 363.321 258.568C363.15 259.091 362.894 259.549 362.553 259.944C362.211 260.328 361.79 260.632 361.289 260.856C360.798 261.069 360.222 261.176 359.561 261.176C358.91 261.176 358.334 261.069 357.833 260.856C357.331 260.632 356.91 260.328 356.569 259.944C356.227 259.549 355.971 259.091 355.801 258.568C355.63 258.045 355.545 257.48 355.545 256.872ZM372.228 261H370.948V259.688H370.916C370.628 260.2 370.26 260.579 369.812 260.824C369.364 261.059 368.836 261.176 368.228 261.176C367.684 261.176 367.231 261.107 366.868 260.968C366.506 260.819 366.212 260.611 365.988 260.344C365.764 260.077 365.604 259.763 365.508 259.4C365.423 259.027 365.38 258.616 365.38 258.168V252.728H366.74V258.328C366.74 258.84 366.89 259.245 367.188 259.544C367.487 259.843 367.898 259.992 368.42 259.992C368.836 259.992 369.194 259.928 369.492 259.8C369.802 259.672 370.058 259.491 370.26 259.256C370.463 259.021 370.612 258.749 370.708 258.44C370.815 258.12 370.868 257.773 370.868 257.4V252.728H372.228V261ZM376.359 252.728H378.007V253.928H376.359V259.064C376.359 259.224 376.37 259.352 376.391 259.448C376.423 259.544 376.476 259.619 376.551 259.672C376.626 259.725 376.727 259.763 376.855 259.784C376.994 259.795 377.17 259.8 377.383 259.8H378.007V261H376.967C376.615 261 376.311 260.979 376.055 260.936C375.81 260.883 375.607 260.792 375.447 260.664C375.298 260.536 375.186 260.355 375.111 260.12C375.036 259.885 374.999 259.576 374.999 259.192V253.928H373.591V252.728H374.999V250.248H376.359V252.728ZM387.619 262.104C387.459 262.509 387.299 262.851 387.139 263.128C386.99 263.405 386.819 263.629 386.627 263.8C386.446 263.981 386.238 264.109 386.003 264.184C385.779 264.269 385.518 264.312 385.219 264.312C385.059 264.312 384.899 264.301 384.739 264.28C384.579 264.259 384.424 264.221 384.275 264.168V262.92C384.392 262.973 384.526 263.016 384.675 263.048C384.835 263.091 384.968 263.112 385.075 263.112C385.352 263.112 385.582 263.043 385.763 262.904C385.955 262.776 386.099 262.589 386.195 262.344L386.755 260.952L383.475 252.728H385.011L387.427 259.496H387.459L389.779 252.728H391.219L387.619 262.104ZM393.563 256.872C393.563 257.373 393.627 257.821 393.755 258.216C393.894 258.6 394.08 258.925 394.315 259.192C394.55 259.448 394.822 259.645 395.131 259.784C395.451 259.923 395.787 259.992 396.139 259.992C396.491 259.992 396.822 259.923 397.131 259.784C397.451 259.645 397.728 259.448 397.963 259.192C398.198 258.925 398.379 258.6 398.507 258.216C398.646 257.821 398.715 257.373 398.715 256.872C398.715 256.371 398.646 255.928 398.507 255.544C398.379 255.149 398.198 254.819 397.963 254.552C397.728 254.285 397.451 254.083 397.131 253.944C396.822 253.805 396.491 253.736 396.139 253.736C395.787 253.736 395.451 253.805 395.131 253.944C394.822 254.083 394.55 254.285 394.315 254.552C394.08 254.819 393.894 255.149 393.755 255.544C393.627 255.928 393.563 256.371 393.563 256.872ZM392.123 256.872C392.123 256.264 392.208 255.699 392.379 255.176C392.55 254.643 392.806 254.184 393.147 253.8C393.488 253.405 393.91 253.096 394.411 252.872C394.912 252.648 395.488 252.536 396.139 252.536C396.8 252.536 397.376 252.648 397.867 252.872C398.368 253.096 398.79 253.405 399.131 253.8C399.472 254.184 399.728 254.643 399.899 255.176C400.07 255.699 400.155 256.264 400.155 256.872C400.155 257.48 400.07 258.045 399.899 258.568C399.728 259.091 399.472 259.549 399.131 259.944C398.79 260.328 398.368 260.632 397.867 260.856C397.376 261.069 396.8 261.176 396.139 261.176C395.488 261.176 394.912 261.069 394.411 260.856C393.91 260.632 393.488 260.328 393.147 259.944C392.806 259.549 392.55 259.091 392.379 258.568C392.208 258.045 392.123 257.48 392.123 256.872ZM408.806 261H407.526V259.688H407.494C407.206 260.2 406.838 260.579 406.39 260.824C405.942 261.059 405.414 261.176 404.806 261.176C404.262 261.176 403.809 261.107 403.446 260.968C403.084 260.819 402.79 260.611 402.566 260.344C402.342 260.077 402.182 259.763 402.086 259.4C402.001 259.027 401.958 258.616 401.958 258.168V252.728H403.318V258.328C403.318 258.84 403.468 259.245 403.766 259.544C404.065 259.843 404.476 259.992 404.998 259.992C405.414 259.992 405.772 259.928 406.07 259.8C406.38 259.672 406.636 259.491 406.838 259.256C407.041 259.021 407.19 258.749 407.286 258.44C407.393 258.12 407.446 257.773 407.446 257.4V252.728H408.806V261ZM411.001 252.728H412.281V254.472H412.313C412.644 253.8 413.049 253.304 413.529 252.984C414.009 252.664 414.617 252.515 415.353 252.536V253.976C414.809 253.976 414.345 254.051 413.961 254.2C413.577 254.349 413.268 254.568 413.033 254.856C412.798 255.144 412.628 255.496 412.521 255.912C412.414 256.317 412.361 256.787 412.361 257.32V261H411.001V252.728ZM292.768 280.072C292.747 279.752 292.672 279.448 292.544 279.16C292.427 278.872 292.261 278.627 292.048 278.424C291.845 278.211 291.6 278.045 291.312 277.928C291.035 277.8 290.725 277.736 290.384 277.736C290.032 277.736 289.712 277.8 289.424 277.928C289.147 278.045 288.907 278.211 288.704 278.424C288.501 278.637 288.341 278.888 288.224 279.176C288.107 279.453 288.037 279.752 288.016 280.072H292.768ZM294.08 282.376C293.899 283.304 293.499 284.003 292.88 284.472C292.261 284.941 291.483 285.176 290.544 285.176C289.883 285.176 289.307 285.069 288.816 284.856C288.336 284.643 287.931 284.344 287.6 283.96C287.269 283.576 287.019 283.117 286.848 282.584C286.688 282.051 286.597 281.469 286.576 280.84C286.576 280.211 286.672 279.635 286.864 279.112C287.056 278.589 287.323 278.136 287.664 277.752C288.016 277.368 288.427 277.069 288.896 276.856C289.376 276.643 289.899 276.536 290.464 276.536C291.2 276.536 291.808 276.691 292.288 277C292.779 277.299 293.168 277.683 293.456 278.152C293.755 278.621 293.957 279.133 294.064 279.688C294.181 280.243 294.229 280.771 294.208 281.272H288.016C288.005 281.635 288.048 281.981 288.144 282.312C288.24 282.632 288.395 282.92 288.608 283.176C288.821 283.421 289.093 283.619 289.424 283.768C289.755 283.917 290.144 283.992 290.592 283.992C291.168 283.992 291.637 283.859 292 283.592C292.373 283.325 292.619 282.92 292.736 282.376H294.08ZM298.042 280.648L295.162 276.728H296.906L298.89 279.624L300.954 276.728H302.586L299.738 280.536L302.938 285H301.194L298.89 281.576L296.586 285H294.938L298.042 280.648ZM304.347 276.728H305.707V277.848H305.739C305.963 277.389 306.315 277.059 306.795 276.856C307.275 276.643 307.803 276.536 308.379 276.536C309.019 276.536 309.574 276.653 310.043 276.888C310.523 277.123 310.918 277.443 311.227 277.848C311.547 278.243 311.787 278.701 311.947 279.224C312.107 279.747 312.187 280.301 312.187 280.888C312.187 281.475 312.107 282.029 311.947 282.552C311.798 283.075 311.563 283.533 311.243 283.928C310.934 284.312 310.539 284.616 310.059 284.84C309.59 285.064 309.04 285.176 308.411 285.176C308.208 285.176 307.979 285.155 307.723 285.112C307.478 285.069 307.232 285 306.987 284.904C306.742 284.808 306.507 284.68 306.283 284.52C306.07 284.349 305.888 284.141 305.739 283.896H305.707V288.152H304.347V276.728ZM310.747 280.792C310.747 280.408 310.694 280.035 310.587 279.672C310.491 279.299 310.336 278.968 310.123 278.68C309.92 278.392 309.654 278.163 309.323 277.992C309.003 277.821 308.624 277.736 308.187 277.736C307.728 277.736 307.339 277.827 307.019 278.008C306.699 278.189 306.438 278.429 306.235 278.728C306.032 279.016 305.883 279.347 305.787 279.72C305.702 280.093 305.659 280.472 305.659 280.856C305.659 281.261 305.707 281.656 305.803 282.04C305.899 282.413 306.048 282.744 306.251 283.032C306.464 283.32 306.736 283.555 307.067 283.736C307.398 283.907 307.798 283.992 308.267 283.992C308.736 283.992 309.126 283.901 309.435 283.72C309.755 283.539 310.011 283.299 310.203 283C310.395 282.701 310.534 282.36 310.619 281.976C310.704 281.592 310.747 281.197 310.747 280.792ZM319.727 280.072C319.706 279.752 319.631 279.448 319.503 279.16C319.386 278.872 319.221 278.627 319.007 278.424C318.805 278.211 318.559 278.045 318.271 277.928C317.994 277.8 317.685 277.736 317.343 277.736C316.991 277.736 316.671 277.8 316.383 277.928C316.106 278.045 315.866 278.211 315.663 278.424C315.461 278.637 315.301 278.888 315.183 279.176C315.066 279.453 314.997 279.752 314.975 280.072H319.727ZM321.039 282.376C320.858 283.304 320.458 284.003 319.839 284.472C319.221 284.941 318.442 285.176 317.503 285.176C316.842 285.176 316.266 285.069 315.775 284.856C315.295 284.643 314.89 284.344 314.559 283.96C314.229 283.576 313.978 283.117 313.807 282.584C313.647 282.051 313.557 281.469 313.535 280.84C313.535 280.211 313.631 279.635 313.823 279.112C314.015 278.589 314.282 278.136 314.623 277.752C314.975 277.368 315.386 277.069 315.855 276.856C316.335 276.643 316.858 276.536 317.423 276.536C318.159 276.536 318.767 276.691 319.247 277C319.738 277.299 320.127 277.683 320.415 278.152C320.714 278.621 320.917 279.133 321.023 279.688C321.141 280.243 321.189 280.771 321.167 281.272H314.975C314.965 281.635 315.007 281.981 315.103 282.312C315.199 282.632 315.354 282.92 315.567 283.176C315.781 283.421 316.053 283.619 316.383 283.768C316.714 283.917 317.103 283.992 317.551 283.992C318.127 283.992 318.597 283.859 318.959 283.592C319.333 283.325 319.578 282.92 319.695 282.376H321.039ZM322.729 276.728H324.009V278.472H324.041C324.372 277.8 324.777 277.304 325.257 276.984C325.737 276.664 326.345 276.515 327.081 276.536V277.976C326.537 277.976 326.073 278.051 325.689 278.2C325.305 278.349 324.996 278.568 324.761 278.856C324.526 279.144 324.356 279.496 324.249 279.912C324.142 280.317 324.089 280.787 324.089 281.32V285H322.729V276.728ZM329.745 275.24H328.385V273.576H329.745V275.24ZM328.385 276.728H329.745V285H328.385V276.728ZM337.796 280.072C337.775 279.752 337.7 279.448 337.572 279.16C337.455 278.872 337.289 278.627 337.076 278.424C336.873 278.211 336.628 278.045 336.34 277.928C336.063 277.8 335.753 277.736 335.412 277.736C335.06 277.736 334.74 277.8 334.452 277.928C334.175 278.045 333.935 278.211 333.732 278.424C333.529 278.637 333.369 278.888 333.252 279.176C333.135 279.453 333.065 279.752 333.044 280.072H337.796ZM339.108 282.376C338.927 283.304 338.527 284.003 337.908 284.472C337.289 284.941 336.511 285.176 335.572 285.176C334.911 285.176 334.335 285.069 333.844 284.856C333.364 284.643 332.959 284.344 332.628 283.96C332.297 283.576 332.047 283.117 331.876 282.584C331.716 282.051 331.625 281.469 331.604 280.84C331.604 280.211 331.7 279.635 331.892 279.112C332.084 278.589 332.351 278.136 332.692 277.752C333.044 277.368 333.455 277.069 333.924 276.856C334.404 276.643 334.927 276.536 335.492 276.536C336.228 276.536 336.836 276.691 337.316 277C337.807 277.299 338.196 277.683 338.484 278.152C338.783 278.621 338.985 279.133 339.092 279.688C339.209 280.243 339.257 280.771 339.236 281.272H333.044C333.033 281.635 333.076 281.981 333.172 282.312C333.268 282.632 333.423 282.92 333.636 283.176C333.849 283.421 334.121 283.619 334.452 283.768C334.783 283.917 335.172 283.992 335.62 283.992C336.196 283.992 336.665 283.859 337.028 283.592C337.401 283.325 337.647 282.92 337.764 282.376H339.108ZM340.846 276.728H342.126V278.04H342.158C342.723 277.037 343.619 276.536 344.846 276.536C345.39 276.536 345.843 276.611 346.206 276.76C346.569 276.909 346.862 277.117 347.086 277.384C347.31 277.651 347.465 277.971 347.55 278.344C347.646 278.707 347.694 279.112 347.694 279.56V285H346.334V279.4C346.334 278.888 346.185 278.483 345.886 278.184C345.587 277.885 345.177 277.736 344.654 277.736C344.238 277.736 343.875 277.8 343.566 277.928C343.267 278.056 343.017 278.237 342.814 278.472C342.611 278.707 342.457 278.984 342.35 279.304C342.254 279.613 342.206 279.955 342.206 280.328V285H340.846V276.728ZM355.552 279.384C355.446 278.861 355.222 278.456 354.88 278.168C354.539 277.88 354.08 277.736 353.504 277.736C353.014 277.736 352.603 277.827 352.272 278.008C351.942 278.189 351.675 278.429 351.472 278.728C351.28 279.027 351.142 279.373 351.056 279.768C350.971 280.152 350.928 280.552 350.928 280.968C350.928 281.352 350.971 281.725 351.056 282.088C351.152 282.451 351.296 282.776 351.488 283.064C351.68 283.341 351.931 283.565 352.24 283.736C352.55 283.907 352.918 283.992 353.344 283.992C354.016 283.992 354.539 283.816 354.912 283.464C355.296 283.112 355.531 282.616 355.616 281.976H357.008C356.859 283 356.475 283.789 355.856 284.344C355.248 284.899 354.416 285.176 353.36 285.176C352.731 285.176 352.171 285.075 351.68 284.872C351.2 284.669 350.795 284.381 350.464 284.008C350.144 283.635 349.899 283.192 349.728 282.68C349.568 282.157 349.488 281.587 349.488 280.968C349.488 280.349 349.568 279.773 349.728 279.24C349.888 278.696 350.128 278.227 350.448 277.832C350.779 277.427 351.19 277.112 351.68 276.888C352.171 276.653 352.742 276.536 353.392 276.536C353.862 276.536 354.299 276.595 354.704 276.712C355.12 276.819 355.483 276.989 355.792 277.224C356.112 277.459 356.374 277.757 356.576 278.12C356.779 278.472 356.907 278.893 356.96 279.384H355.552ZM364.474 280.072C364.453 279.752 364.378 279.448 364.25 279.16C364.133 278.872 363.968 278.627 363.754 278.424C363.552 278.211 363.306 278.045 363.018 277.928C362.741 277.8 362.432 277.736 362.09 277.736C361.738 277.736 361.418 277.8 361.13 277.928C360.853 278.045 360.613 278.211 360.41 278.424C360.208 278.637 360.048 278.888 359.93 279.176C359.813 279.453 359.744 279.752 359.722 280.072H364.474ZM365.786 282.376C365.605 283.304 365.205 284.003 364.586 284.472C363.968 284.941 363.189 285.176 362.25 285.176C361.589 285.176 361.013 285.069 360.522 284.856C360.042 284.643 359.637 284.344 359.306 283.96C358.976 283.576 358.725 283.117 358.554 282.584C358.394 282.051 358.304 281.469 358.282 280.84C358.282 280.211 358.378 279.635 358.57 279.112C358.762 278.589 359.029 278.136 359.37 277.752C359.722 277.368 360.133 277.069 360.602 276.856C361.082 276.643 361.605 276.536 362.17 276.536C362.906 276.536 363.514 276.691 363.994 277C364.485 277.299 364.874 277.683 365.162 278.152C365.461 278.621 365.664 279.133 365.77 279.688C365.888 280.243 365.936 280.771 365.914 281.272H359.722C359.712 281.635 359.754 281.981 359.85 282.312C359.946 282.632 360.101 282.92 360.314 283.176C360.528 283.421 360.8 283.619 361.13 283.768C361.461 283.917 361.85 283.992 362.298 283.992C362.874 283.992 363.344 283.859 363.706 283.592C364.08 283.325 364.325 282.92 364.442 282.376H365.786Z" fill="black" fill-opacity="0.68"/>
</svg>
