<svg width="600" height="356" viewBox="0 0 600 356" fill="none" xmlns="http://www.w3.org/2000/svg">
<rect width="600" height="356" fill="black" fill-opacity="0.04"/>
<path d="M91.248 98.076H98.752V99.356H92.768V102.988H98.016V104.268H92.768V109.5H91.248V98.076ZM107.54 109.468C107.305 109.607 106.98 109.676 106.564 109.676C106.212 109.676 105.929 109.58 105.716 109.388C105.513 109.185 105.412 108.86 105.412 108.412C105.038 108.86 104.601 109.185 104.1 109.388C103.609 109.58 103.076 109.676 102.5 109.676C102.126 109.676 101.769 109.633 101.428 109.548C101.097 109.463 100.809 109.329 100.564 109.148C100.318 108.967 100.121 108.732 99.9715 108.444C99.8328 108.145 99.7635 107.788 99.7635 107.372C99.7635 106.903 99.8435 106.519 100.004 106.22C100.164 105.921 100.372 105.681 100.628 105.5C100.894 105.308 101.193 105.164 101.524 105.068C101.865 104.972 102.212 104.892 102.564 104.828C102.937 104.753 103.289 104.7 103.62 104.668C103.961 104.625 104.26 104.572 104.516 104.508C104.772 104.433 104.974 104.332 105.124 104.204C105.273 104.065 105.348 103.868 105.348 103.612C105.348 103.313 105.289 103.073 105.172 102.892C105.065 102.711 104.921 102.572 104.74 102.476C104.569 102.38 104.372 102.316 104.148 102.284C103.934 102.252 103.721 102.236 103.508 102.236C102.932 102.236 102.452 102.348 102.068 102.572C101.684 102.785 101.476 103.196 101.444 103.804H100.084C100.105 103.292 100.212 102.86 100.404 102.508C100.596 102.156 100.852 101.873 101.172 101.66C101.492 101.436 101.854 101.276 102.26 101.18C102.676 101.084 103.118 101.036 103.588 101.036C103.961 101.036 104.329 101.063 104.692 101.116C105.065 101.169 105.401 101.281 105.7 101.452C105.998 101.612 106.238 101.841 106.42 102.14C106.601 102.439 106.692 102.828 106.692 103.308V107.564C106.692 107.884 106.708 108.119 106.74 108.268C106.782 108.417 106.91 108.492 107.124 108.492C107.241 108.492 107.38 108.465 107.54 108.412V109.468ZM105.332 105.228C105.161 105.356 104.937 105.452 104.66 105.516C104.382 105.569 104.089 105.617 103.78 105.66C103.481 105.692 103.177 105.735 102.868 105.788C102.558 105.831 102.281 105.905 102.036 106.012C101.79 106.119 101.588 106.273 101.428 106.476C101.278 106.668 101.204 106.935 101.204 107.276C101.204 107.5 101.246 107.692 101.332 107.852C101.428 108.001 101.545 108.124 101.684 108.22C101.833 108.316 102.004 108.385 102.196 108.428C102.388 108.471 102.59 108.492 102.804 108.492C103.252 108.492 103.636 108.433 103.956 108.316C104.276 108.188 104.537 108.033 104.74 107.852C104.942 107.66 105.092 107.457 105.188 107.244C105.284 107.02 105.332 106.812 105.332 106.62V105.228ZM108.885 98.076H110.245V109.5H108.885V98.076ZM113.184 106.892C113.195 107.191 113.264 107.447 113.392 107.66C113.52 107.863 113.685 108.028 113.888 108.156C114.101 108.273 114.336 108.359 114.592 108.412C114.859 108.465 115.131 108.492 115.408 108.492C115.621 108.492 115.845 108.476 116.08 108.444C116.315 108.412 116.528 108.353 116.72 108.268C116.923 108.183 117.088 108.06 117.216 107.9C117.344 107.729 117.408 107.516 117.408 107.26C117.408 106.908 117.275 106.641 117.008 106.46C116.741 106.279 116.405 106.135 116 106.028C115.605 105.911 115.173 105.809 114.704 105.724C114.235 105.628 113.797 105.5 113.392 105.34C112.997 105.169 112.667 104.935 112.4 104.636C112.133 104.337 112 103.921 112 103.388C112 102.972 112.091 102.615 112.272 102.316C112.464 102.017 112.704 101.777 112.992 101.596C113.291 101.404 113.621 101.265 113.984 101.18C114.357 101.084 114.725 101.036 115.088 101.036C115.557 101.036 115.989 101.079 116.384 101.164C116.779 101.239 117.125 101.377 117.424 101.58C117.733 101.772 117.979 102.039 118.16 102.38C118.341 102.711 118.448 103.127 118.48 103.628H117.12C117.099 103.361 117.029 103.143 116.912 102.972C116.795 102.791 116.645 102.647 116.464 102.54C116.283 102.433 116.08 102.359 115.856 102.316C115.643 102.263 115.424 102.236 115.2 102.236C114.997 102.236 114.789 102.252 114.576 102.284C114.373 102.316 114.187 102.375 114.016 102.46C113.845 102.535 113.707 102.641 113.6 102.78C113.493 102.908 113.44 103.079 113.44 103.292C113.44 103.527 113.52 103.724 113.68 103.884C113.851 104.033 114.064 104.161 114.32 104.268C114.576 104.364 114.864 104.449 115.184 104.524C115.504 104.588 115.824 104.657 116.144 104.732C116.485 104.807 116.816 104.897 117.136 105.004C117.467 105.111 117.755 105.255 118 105.436C118.256 105.607 118.459 105.825 118.608 106.092C118.768 106.359 118.848 106.689 118.848 107.084C118.848 107.585 118.741 108.001 118.528 108.332C118.325 108.663 118.053 108.929 117.712 109.132C117.381 109.335 117.003 109.473 116.576 109.548C116.16 109.633 115.744 109.676 115.328 109.676C114.869 109.676 114.432 109.628 114.016 109.532C113.6 109.436 113.232 109.281 112.912 109.068C112.592 108.844 112.336 108.556 112.144 108.204C111.952 107.841 111.845 107.404 111.824 106.892H113.184ZM126.096 104.572C126.075 104.252 126 103.948 125.872 103.66C125.755 103.372 125.589 103.127 125.376 102.924C125.173 102.711 124.928 102.545 124.64 102.428C124.363 102.3 124.053 102.236 123.712 102.236C123.36 102.236 123.04 102.3 122.752 102.428C122.475 102.545 122.235 102.711 122.032 102.924C121.829 103.137 121.669 103.388 121.552 103.676C121.435 103.953 121.365 104.252 121.344 104.572H126.096ZM127.408 106.876C127.227 107.804 126.827 108.503 126.208 108.972C125.589 109.441 124.811 109.676 123.872 109.676C123.211 109.676 122.635 109.569 122.144 109.356C121.664 109.143 121.259 108.844 120.928 108.46C120.597 108.076 120.347 107.617 120.176 107.084C120.016 106.551 119.925 105.969 119.904 105.34C119.904 104.711 120 104.135 120.192 103.612C120.384 103.089 120.651 102.636 120.992 102.252C121.344 101.868 121.755 101.569 122.224 101.356C122.704 101.143 123.227 101.036 123.792 101.036C124.528 101.036 125.136 101.191 125.616 101.5C126.107 101.799 126.496 102.183 126.784 102.652C127.083 103.121 127.285 103.633 127.392 104.188C127.509 104.743 127.557 105.271 127.536 105.772H121.344C121.333 106.135 121.376 106.481 121.472 106.812C121.568 107.132 121.723 107.42 121.936 107.676C122.149 107.921 122.421 108.119 122.752 108.268C123.083 108.417 123.472 108.492 123.92 108.492C124.496 108.492 124.965 108.359 125.328 108.092C125.701 107.825 125.947 107.42 126.064 106.876H127.408Z" fill="black" fill-opacity="0.68"/>
<mask id="path-2-inside-1_68467_48552" fill="white">
<path d="M270 50H510V158H270V50Z"/>
</mask>
<path d="M270 50H510V158H270V50Z" fill="black" fill-opacity="0.04"/>
<path d="M510 158V157H270V158V159H510V158Z" fill="black" fill-opacity="0.2" mask="url(#path-2-inside-1_68467_48552)"/>
<path d="M288.412 68.46H291.316L289.888 64.464H289.864L288.412 68.46ZM289.264 63.432H290.524L293.872 72H292.612L291.676 69.42H288.052L287.092 72H285.928L289.264 63.432ZM295.473 68.952C295.473 69.24 295.509 69.524 295.581 69.804C295.661 70.076 295.777 70.32 295.929 70.536C296.089 70.752 296.289 70.924 296.529 71.052C296.777 71.18 297.065 71.244 297.393 71.244C297.737 71.244 298.029 71.176 298.269 71.04C298.509 70.904 298.705 70.728 298.857 70.512C299.009 70.288 299.117 70.036 299.181 69.756C299.253 69.476 299.289 69.192 299.289 68.904C299.289 68.6 299.253 68.308 299.181 68.028C299.109 67.74 298.993 67.488 298.833 67.272C298.681 67.056 298.481 66.884 298.233 66.756C297.985 66.62 297.685 66.552 297.333 66.552C296.989 66.552 296.697 66.62 296.457 66.756C296.217 66.892 296.025 67.072 295.881 67.296C295.737 67.52 295.633 67.776 295.569 68.064C295.505 68.352 295.473 68.648 295.473 68.952ZM300.273 72H299.253V71.16H299.229C299.061 71.504 298.797 71.752 298.437 71.904C298.077 72.056 297.681 72.132 297.249 72.132C296.769 72.132 296.349 72.044 295.989 71.868C295.637 71.692 295.341 71.456 295.101 71.16C294.869 70.864 294.693 70.52 294.573 70.128C294.453 69.736 294.393 69.32 294.393 68.88C294.393 68.44 294.449 68.024 294.561 67.632C294.681 67.24 294.857 66.9 295.089 66.612C295.329 66.316 295.625 66.084 295.977 65.916C296.337 65.74 296.753 65.652 297.225 65.652C297.385 65.652 297.557 65.668 297.741 65.7C297.925 65.732 298.109 65.788 298.293 65.868C298.477 65.94 298.649 66.04 298.809 66.168C298.977 66.288 299.117 66.44 299.229 66.624H299.253V63.432H300.273V72ZM302.767 68.952C302.767 69.24 302.803 69.524 302.875 69.804C302.955 70.076 303.071 70.32 303.223 70.536C303.383 70.752 303.583 70.924 303.823 71.052C304.071 71.18 304.359 71.244 304.687 71.244C305.031 71.244 305.323 71.176 305.563 71.04C305.803 70.904 305.999 70.728 306.151 70.512C306.303 70.288 306.411 70.036 306.475 69.756C306.547 69.476 306.583 69.192 306.583 68.904C306.583 68.6 306.547 68.308 306.475 68.028C306.403 67.74 306.287 67.488 306.127 67.272C305.975 67.056 305.775 66.884 305.527 66.756C305.279 66.62 304.979 66.552 304.627 66.552C304.283 66.552 303.991 66.62 303.751 66.756C303.511 66.892 303.319 67.072 303.175 67.296C303.031 67.52 302.927 67.776 302.863 68.064C302.799 68.352 302.767 68.648 302.767 68.952ZM307.567 72H306.547V71.16H306.523C306.355 71.504 306.091 71.752 305.731 71.904C305.371 72.056 304.975 72.132 304.543 72.132C304.063 72.132 303.643 72.044 303.283 71.868C302.931 71.692 302.635 71.456 302.395 71.16C302.163 70.864 301.987 70.52 301.867 70.128C301.747 69.736 301.687 69.32 301.687 68.88C301.687 68.44 301.743 68.024 301.855 67.632C301.975 67.24 302.151 66.9 302.383 66.612C302.623 66.316 302.919 66.084 303.271 65.916C303.631 65.74 304.047 65.652 304.519 65.652C304.679 65.652 304.851 65.668 305.035 65.7C305.219 65.732 305.403 65.788 305.587 65.868C305.771 65.94 305.943 66.04 306.103 66.168C306.271 66.288 306.411 66.44 306.523 66.624H306.547V63.432H307.567V72ZM310.396 64.68H309.376V63.432H310.396V64.68ZM309.376 65.796H310.396V72H309.376V65.796ZM313.572 65.796H314.808V66.696H313.572V70.548C313.572 70.668 313.58 70.764 313.596 70.836C313.62 70.908 313.66 70.964 313.716 71.004C313.772 71.044 313.848 71.072 313.944 71.088C314.048 71.096 314.18 71.1 314.34 71.1H314.808V72H314.028C313.764 72 313.536 71.984 313.344 71.952C313.16 71.912 313.008 71.844 312.888 71.748C312.776 71.652 312.692 71.516 312.636 71.34C312.58 71.164 312.552 70.932 312.552 70.644V66.696H311.496V65.796H312.552V63.936H313.572V65.796ZM317.201 64.68H316.181V63.432H317.201V64.68ZM316.181 65.796H317.201V72H316.181V65.796ZM319.705 68.904C319.705 69.28 319.753 69.616 319.849 69.912C319.953 70.2 320.093 70.444 320.269 70.644C320.445 70.836 320.649 70.984 320.881 71.088C321.121 71.192 321.373 71.244 321.637 71.244C321.901 71.244 322.149 71.192 322.381 71.088C322.621 70.984 322.829 70.836 323.005 70.644C323.181 70.444 323.317 70.2 323.413 69.912C323.517 69.616 323.569 69.28 323.569 68.904C323.569 68.528 323.517 68.196 323.413 67.908C323.317 67.612 323.181 67.364 323.005 67.164C322.829 66.964 322.621 66.812 322.381 66.708C322.149 66.604 321.901 66.552 321.637 66.552C321.373 66.552 321.121 66.604 320.881 66.708C320.649 66.812 320.445 66.964 320.269 67.164C320.093 67.364 319.953 67.612 319.849 67.908C319.753 68.196 319.705 68.528 319.705 68.904ZM318.625 68.904C318.625 68.448 318.689 68.024 318.817 67.632C318.945 67.232 319.137 66.888 319.393 66.6C319.649 66.304 319.965 66.072 320.341 65.904C320.717 65.736 321.149 65.652 321.637 65.652C322.133 65.652 322.565 65.736 322.933 65.904C323.309 66.072 323.625 66.304 323.881 66.6C324.137 66.888 324.329 67.232 324.457 67.632C324.585 68.024 324.649 68.448 324.649 68.904C324.649 69.36 324.585 69.784 324.457 70.176C324.329 70.568 324.137 70.912 323.881 71.208C323.625 71.496 323.309 71.724 322.933 71.892C322.565 72.052 322.133 72.132 321.637 72.132C321.149 72.132 320.717 72.052 320.341 71.892C319.965 71.724 319.649 71.496 319.393 71.208C319.137 70.912 318.945 70.568 318.817 70.176C318.689 69.784 318.625 69.36 318.625 68.904ZM326.032 65.796H326.992V66.78H327.016C327.44 66.028 328.112 65.652 329.032 65.652C329.44 65.652 329.78 65.708 330.052 65.82C330.324 65.932 330.544 66.088 330.712 66.288C330.88 66.488 330.996 66.728 331.06 67.008C331.132 67.28 331.168 67.584 331.168 67.92V72H330.148V67.8C330.148 67.416 330.036 67.112 329.812 66.888C329.588 66.664 329.28 66.552 328.888 66.552C328.576 66.552 328.304 66.6 328.072 66.696C327.848 66.792 327.66 66.928 327.508 67.104C327.356 67.28 327.24 67.488 327.16 67.728C327.088 67.96 327.052 68.216 327.052 68.496V72H326.032V65.796ZM338.376 71.976C338.2 72.08 337.956 72.132 337.644 72.132C337.38 72.132 337.168 72.06 337.008 71.916C336.856 71.764 336.78 71.52 336.78 71.184C336.5 71.52 336.172 71.764 335.796 71.916C335.428 72.06 335.028 72.132 334.596 72.132C334.316 72.132 334.048 72.1 333.792 72.036C333.544 71.972 333.328 71.872 333.144 71.736C332.96 71.6 332.812 71.424 332.7 71.208C332.596 70.984 332.544 70.716 332.544 70.404C332.544 70.052 332.604 69.764 332.724 69.54C332.844 69.316 333 69.136 333.192 69C333.392 68.856 333.616 68.748 333.864 68.676C334.12 68.604 334.38 68.544 334.644 68.496C334.924 68.44 335.188 68.4 335.436 68.376C335.692 68.344 335.916 68.304 336.108 68.256C336.3 68.2 336.452 68.124 336.564 68.028C336.676 67.924 336.732 67.776 336.732 67.584C336.732 67.36 336.688 67.18 336.6 67.044C336.52 66.908 336.412 66.804 336.276 66.732C336.148 66.66 336 66.612 335.832 66.588C335.672 66.564 335.512 66.552 335.352 66.552C334.92 66.552 334.56 66.636 334.272 66.804C333.984 66.964 333.828 67.272 333.804 67.728H332.784C332.8 67.344 332.88 67.02 333.024 66.756C333.168 66.492 333.36 66.28 333.6 66.12C333.84 65.952 334.112 65.832 334.416 65.76C334.728 65.688 335.06 65.652 335.412 65.652C335.692 65.652 335.968 65.672 336.24 65.712C336.52 65.752 336.772 65.836 336.996 65.964C337.22 66.084 337.4 66.256 337.536 66.48C337.672 66.704 337.74 66.996 337.74 67.356V70.548C337.74 70.788 337.752 70.964 337.776 71.076C337.808 71.188 337.904 71.244 338.064 71.244C338.152 71.244 338.256 71.224 338.376 71.184V71.976ZM336.72 68.796C336.592 68.892 336.424 68.964 336.216 69.012C336.008 69.052 335.788 69.088 335.556 69.12C335.332 69.144 335.104 69.176 334.872 69.216C334.64 69.248 334.432 69.304 334.248 69.384C334.064 69.464 333.912 69.58 333.792 69.732C333.68 69.876 333.624 70.076 333.624 70.332C333.624 70.5 333.656 70.644 333.72 70.764C333.792 70.876 333.88 70.968 333.984 71.04C334.096 71.112 334.224 71.164 334.368 71.196C334.512 71.228 334.664 71.244 334.824 71.244C335.16 71.244 335.448 71.2 335.688 71.112C335.928 71.016 336.124 70.9 336.276 70.764C336.428 70.62 336.54 70.468 336.612 70.308C336.684 70.14 336.72 69.984 336.72 69.84V68.796ZM339.565 63.432H340.585V72H339.565V63.432ZM350.077 67.788C349.997 67.396 349.829 67.092 349.573 66.876C349.317 66.66 348.973 66.552 348.541 66.552C348.173 66.552 347.865 66.62 347.617 66.756C347.369 66.892 347.169 67.072 347.017 67.296C346.873 67.52 346.769 67.78 346.705 68.076C346.641 68.364 346.609 68.664 346.609 68.976C346.609 69.264 346.641 69.544 346.705 69.816C346.777 70.088 346.885 70.332 347.029 70.548C347.173 70.756 347.361 70.924 347.593 71.052C347.825 71.18 348.101 71.244 348.421 71.244C348.925 71.244 349.317 71.112 349.597 70.848C349.885 70.584 350.061 70.212 350.125 69.732H351.169C351.057 70.5 350.769 71.092 350.305 71.508C349.849 71.924 349.225 72.132 348.433 72.132C347.961 72.132 347.541 72.056 347.173 71.904C346.813 71.752 346.509 71.536 346.261 71.256C346.021 70.976 345.837 70.644 345.709 70.26C345.589 69.868 345.529 69.44 345.529 68.976C345.529 68.512 345.589 68.08 345.709 67.68C345.829 67.272 346.009 66.92 346.249 66.624C346.497 66.32 346.805 66.084 347.173 65.916C347.541 65.74 347.969 65.652 348.457 65.652C348.809 65.652 349.137 65.696 349.441 65.784C349.753 65.864 350.025 65.992 350.257 66.168C350.497 66.344 350.693 66.568 350.845 66.84C350.997 67.104 351.093 67.42 351.133 67.788H350.077ZM353.235 68.904C353.235 69.28 353.283 69.616 353.379 69.912C353.483 70.2 353.623 70.444 353.799 70.644C353.975 70.836 354.179 70.984 354.411 71.088C354.651 71.192 354.903 71.244 355.167 71.244C355.431 71.244 355.679 71.192 355.911 71.088C356.151 70.984 356.359 70.836 356.535 70.644C356.711 70.444 356.847 70.2 356.943 69.912C357.047 69.616 357.099 69.28 357.099 68.904C357.099 68.528 357.047 68.196 356.943 67.908C356.847 67.612 356.711 67.364 356.535 67.164C356.359 66.964 356.151 66.812 355.911 66.708C355.679 66.604 355.431 66.552 355.167 66.552C354.903 66.552 354.651 66.604 354.411 66.708C354.179 66.812 353.975 66.964 353.799 67.164C353.623 67.364 353.483 67.612 353.379 67.908C353.283 68.196 353.235 68.528 353.235 68.904ZM352.155 68.904C352.155 68.448 352.219 68.024 352.347 67.632C352.475 67.232 352.667 66.888 352.923 66.6C353.179 66.304 353.495 66.072 353.871 65.904C354.247 65.736 354.679 65.652 355.167 65.652C355.663 65.652 356.095 65.736 356.463 65.904C356.839 66.072 357.155 66.304 357.411 66.6C357.667 66.888 357.859 67.232 357.987 67.632C358.115 68.024 358.179 68.448 358.179 68.904C358.179 69.36 358.115 69.784 357.987 70.176C357.859 70.568 357.667 70.912 357.411 71.208C357.155 71.496 356.839 71.724 356.463 71.892C356.095 72.052 355.663 72.132 355.167 72.132C354.679 72.132 354.247 72.052 353.871 71.892C353.495 71.724 353.179 71.496 352.923 71.208C352.667 70.912 352.475 70.568 352.347 70.176C352.219 69.784 352.155 69.36 352.155 68.904ZM359.561 65.796H360.521V66.708H360.545C361.009 66.004 361.677 65.652 362.549 65.652C362.933 65.652 363.281 65.732 363.593 65.892C363.905 66.052 364.125 66.324 364.253 66.708C364.461 66.372 364.733 66.112 365.069 65.928C365.413 65.744 365.789 65.652 366.197 65.652C366.509 65.652 366.789 65.688 367.037 65.76C367.293 65.824 367.509 65.928 367.685 66.072C367.869 66.216 368.009 66.404 368.105 66.636C368.209 66.86 368.261 67.132 368.261 67.452V72H367.241V67.932C367.241 67.74 367.225 67.56 367.193 67.392C367.161 67.224 367.101 67.08 367.013 66.96C366.925 66.832 366.801 66.732 366.641 66.66C366.489 66.588 366.289 66.552 366.041 66.552C365.537 66.552 365.141 66.696 364.853 66.984C364.565 67.272 364.421 67.656 364.421 68.136V72H363.401V67.932C363.401 67.732 363.381 67.548 363.341 67.38C363.309 67.212 363.249 67.068 363.161 66.948C363.073 66.82 362.953 66.724 362.801 66.66C362.657 66.588 362.469 66.552 362.237 66.552C361.941 66.552 361.685 66.612 361.469 66.732C361.261 66.852 361.089 66.996 360.953 67.164C360.825 67.332 360.729 67.508 360.665 67.692C360.609 67.868 360.581 68.016 360.581 68.136V72H359.561V65.796ZM369.972 65.796H370.932V66.708H370.956C371.42 66.004 372.088 65.652 372.96 65.652C373.344 65.652 373.692 65.732 374.004 65.892C374.316 66.052 374.536 66.324 374.664 66.708C374.872 66.372 375.144 66.112 375.48 65.928C375.824 65.744 376.2 65.652 376.608 65.652C376.92 65.652 377.2 65.688 377.448 65.76C377.704 65.824 377.92 65.928 378.096 66.072C378.28 66.216 378.42 66.404 378.516 66.636C378.62 66.86 378.672 67.132 378.672 67.452V72H377.652V67.932C377.652 67.74 377.636 67.56 377.604 67.392C377.572 67.224 377.512 67.08 377.424 66.96C377.336 66.832 377.212 66.732 377.052 66.66C376.9 66.588 376.7 66.552 376.452 66.552C375.948 66.552 375.552 66.696 375.264 66.984C374.976 67.272 374.832 67.656 374.832 68.136V72H373.812V67.932C373.812 67.732 373.792 67.548 373.752 67.38C373.72 67.212 373.66 67.068 373.572 66.948C373.484 66.82 373.364 66.724 373.212 66.66C373.068 66.588 372.88 66.552 372.648 66.552C372.352 66.552 372.096 66.612 371.88 66.732C371.672 66.852 371.5 66.996 371.364 67.164C371.236 67.332 371.14 67.508 371.076 67.692C371.02 67.868 370.992 68.016 370.992 68.136V72H369.972V65.796ZM384.69 68.304C384.674 68.064 384.618 67.836 384.522 67.62C384.434 67.404 384.31 67.22 384.15 67.068C383.998 66.908 383.814 66.784 383.598 66.696C383.39 66.6 383.158 66.552 382.902 66.552C382.638 66.552 382.398 66.6 382.182 66.696C381.974 66.784 381.794 66.908 381.642 67.068C381.49 67.228 381.37 67.416 381.282 67.632C381.194 67.84 381.142 68.064 381.126 68.304H384.69ZM385.674 70.032C385.538 70.728 385.238 71.252 384.774 71.604C384.31 71.956 383.726 72.132 383.022 72.132C382.526 72.132 382.094 72.052 381.726 71.892C381.366 71.732 381.062 71.508 380.814 71.22C380.566 70.932 380.378 70.588 380.25 70.188C380.13 69.788 380.062 69.352 380.046 68.88C380.046 68.408 380.118 67.976 380.262 67.584C380.406 67.192 380.606 66.852 380.862 66.564C381.126 66.276 381.434 66.052 381.786 65.892C382.146 65.732 382.538 65.652 382.962 65.652C383.514 65.652 383.97 65.768 384.33 66C384.698 66.224 384.99 66.512 385.206 66.864C385.43 67.216 385.582 67.6 385.662 68.016C385.75 68.432 385.786 68.828 385.77 69.204H381.126C381.118 69.476 381.15 69.736 381.222 69.984C381.294 70.224 381.41 70.44 381.57 70.632C381.73 70.816 381.934 70.964 382.182 71.076C382.43 71.188 382.722 71.244 383.058 71.244C383.49 71.244 383.842 71.144 384.114 70.944C384.394 70.744 384.578 70.44 384.666 70.032H385.674ZM387.007 65.796H387.967V66.78H387.991C388.415 66.028 389.087 65.652 390.007 65.652C390.415 65.652 390.755 65.708 391.027 65.82C391.299 65.932 391.519 66.088 391.687 66.288C391.855 66.488 391.971 66.728 392.035 67.008C392.107 67.28 392.143 67.584 392.143 67.92V72H391.123V67.8C391.123 67.416 391.011 67.112 390.787 66.888C390.563 66.664 390.255 66.552 389.863 66.552C389.551 66.552 389.279 66.6 389.047 66.696C388.823 66.792 388.635 66.928 388.483 67.104C388.331 67.28 388.215 67.488 388.135 67.728C388.063 67.96 388.027 68.216 388.027 68.496V72H387.007V65.796ZM395.271 65.796H396.507V66.696H395.271V70.548C395.271 70.668 395.279 70.764 395.295 70.836C395.319 70.908 395.359 70.964 395.415 71.004C395.471 71.044 395.547 71.072 395.643 71.088C395.747 71.096 395.879 71.1 396.039 71.1H396.507V72H395.727C395.463 72 395.235 71.984 395.043 71.952C394.859 71.912 394.707 71.844 394.587 71.748C394.475 71.652 394.391 71.516 394.335 71.34C394.279 71.164 394.251 70.932 394.251 70.644V66.696H393.195V65.796H394.251V63.936H395.271V65.796ZM398.444 70.044C398.452 70.268 398.504 70.46 398.6 70.62C398.696 70.772 398.82 70.896 398.972 70.992C399.132 71.08 399.308 71.144 399.5 71.184C399.7 71.224 399.904 71.244 400.112 71.244C400.272 71.244 400.44 71.232 400.616 71.208C400.792 71.184 400.952 71.14 401.096 71.076C401.248 71.012 401.372 70.92 401.468 70.8C401.564 70.672 401.612 70.512 401.612 70.32C401.612 70.056 401.512 69.856 401.312 69.72C401.112 69.584 400.86 69.476 400.556 69.396C400.26 69.308 399.936 69.232 399.584 69.168C399.232 69.096 398.904 69 398.6 68.88C398.304 68.752 398.056 68.576 397.856 68.352C397.656 68.128 397.556 67.816 397.556 67.416C397.556 67.104 397.624 66.836 397.76 66.612C397.904 66.388 398.084 66.208 398.3 66.072C398.524 65.928 398.772 65.824 399.044 65.76C399.324 65.688 399.6 65.652 399.872 65.652C400.224 65.652 400.548 65.684 400.844 65.748C401.14 65.804 401.4 65.908 401.624 66.06C401.856 66.204 402.04 66.404 402.176 66.66C402.312 66.908 402.392 67.22 402.416 67.596H401.396C401.38 67.396 401.328 67.232 401.24 67.104C401.152 66.968 401.04 66.86 400.904 66.78C400.768 66.7 400.616 66.644 400.448 66.612C400.288 66.572 400.124 66.552 399.956 66.552C399.804 66.552 399.648 66.564 399.488 66.588C399.336 66.612 399.196 66.656 399.068 66.72C398.94 66.776 398.836 66.856 398.756 66.96C398.676 67.056 398.636 67.184 398.636 67.344C398.636 67.52 398.696 67.668 398.816 67.788C398.944 67.9 399.104 67.996 399.296 68.076C399.488 68.148 399.704 68.212 399.944 68.268C400.184 68.316 400.424 68.368 400.664 68.424C400.92 68.48 401.168 68.548 401.408 68.628C401.656 68.708 401.872 68.816 402.056 68.952C402.248 69.08 402.4 69.244 402.512 69.444C402.632 69.644 402.692 69.892 402.692 70.188C402.692 70.564 402.612 70.876 402.452 71.124C402.3 71.372 402.096 71.572 401.84 71.724C401.592 71.876 401.308 71.98 400.988 72.036C400.676 72.1 400.364 72.132 400.052 72.132C399.708 72.132 399.38 72.096 399.068 72.024C398.756 71.952 398.48 71.836 398.24 71.676C398 71.508 397.808 71.292 397.664 71.028C397.52 70.756 397.44 70.428 397.424 70.044H398.444Z" fill="black" fill-opacity="0.68"/>
<path d="M93.84 247.356H90.032V246.076H99.168V247.356H95.36V257.5H93.84V247.356ZM98.6948 249.228H99.9748V250.972H100.007C100.337 250.3 100.743 249.804 101.223 249.484C101.703 249.164 102.311 249.015 103.047 249.036V250.476C102.503 250.476 102.039 250.551 101.655 250.7C101.271 250.849 100.961 251.068 100.727 251.356C100.492 251.644 100.321 251.996 100.215 252.412C100.108 252.817 100.055 253.287 100.055 253.82V257.5H98.6948V249.228ZM110.919 257.5H109.639V256.188H109.607C109.319 256.7 108.951 257.079 108.503 257.324C108.055 257.559 107.527 257.676 106.919 257.676C106.375 257.676 105.922 257.607 105.559 257.468C105.196 257.319 104.903 257.111 104.679 256.844C104.455 256.577 104.295 256.263 104.199 255.9C104.114 255.527 104.071 255.116 104.071 254.668V249.228H105.431V254.828C105.431 255.34 105.58 255.745 105.879 256.044C106.178 256.343 106.588 256.492 107.111 256.492C107.527 256.492 107.884 256.428 108.183 256.3C108.492 256.172 108.748 255.991 108.951 255.756C109.154 255.521 109.303 255.249 109.399 254.94C109.506 254.62 109.559 254.273 109.559 253.9V249.228H110.919V257.5ZM118.706 252.572C118.684 252.252 118.61 251.948 118.482 251.66C118.364 251.372 118.199 251.127 117.986 250.924C117.783 250.711 117.538 250.545 117.25 250.428C116.972 250.3 116.663 250.236 116.322 250.236C115.97 250.236 115.65 250.3 115.362 250.428C115.084 250.545 114.844 250.711 114.642 250.924C114.439 251.137 114.279 251.388 114.162 251.676C114.044 251.953 113.975 252.252 113.954 252.572H118.706ZM120.017 254.876C119.836 255.804 119.436 256.503 118.818 256.972C118.199 257.441 117.42 257.676 116.482 257.676C115.82 257.676 115.244 257.569 114.754 257.356C114.274 257.143 113.868 256.844 113.538 256.46C113.207 256.076 112.956 255.617 112.786 255.084C112.626 254.551 112.535 253.969 112.514 253.34C112.514 252.711 112.61 252.135 112.802 251.612C112.994 251.089 113.26 250.636 113.602 250.252C113.954 249.868 114.364 249.569 114.834 249.356C115.314 249.143 115.836 249.036 116.402 249.036C117.138 249.036 117.746 249.191 118.226 249.5C118.716 249.799 119.106 250.183 119.394 250.652C119.692 251.121 119.895 251.633 120.002 252.188C120.119 252.743 120.167 253.271 120.146 253.772H113.954C113.943 254.135 113.986 254.481 114.082 254.812C114.178 255.132 114.332 255.42 114.546 255.676C114.759 255.921 115.031 256.119 115.362 256.268C115.692 256.417 116.082 256.492 116.53 256.492C117.106 256.492 117.575 256.359 117.938 256.092C118.311 255.825 118.556 255.42 118.674 254.876H120.017Z" fill="black" fill-opacity="0.68"/>
<mask id="path-6-inside-2_68467_48552" fill="white">
<path d="M270 202C270 199.791 271.791 198 274 198H506C508.209 198 510 199.791 510 202V302C510 304.209 508.209 306 506 306H274C271.791 306 270 304.209 270 302V202Z"/>
</mask>
<path d="M270 202C270 199.791 271.791 198 274 198H506C508.209 198 510 199.791 510 202V302C510 304.209 508.209 306 506 306H274C271.791 306 270 304.209 270 302V202Z" fill="black" fill-opacity="0.04"/>
<path d="M270 198H510H270ZM510 302C510 304.761 507.761 307 505 307H275C272.239 307 270 304.761 270 302C270 303.657 271.791 305 274 305H506C508.209 305 510 303.657 510 302ZM270 306V198V306ZM510 198V306V198Z" fill="black" fill-opacity="0.2" mask="url(#path-6-inside-2_68467_48552)"/>
<path d="M288.412 216.46H291.316L289.888 212.464H289.864L288.412 216.46ZM289.264 211.432H290.524L293.872 220H292.612L291.676 217.42H288.052L287.092 220H285.928L289.264 211.432ZM295.473 216.952C295.473 217.24 295.509 217.524 295.581 217.804C295.661 218.076 295.777 218.32 295.929 218.536C296.089 218.752 296.289 218.924 296.529 219.052C296.777 219.18 297.065 219.244 297.393 219.244C297.737 219.244 298.029 219.176 298.269 219.04C298.509 218.904 298.705 218.728 298.857 218.512C299.009 218.288 299.117 218.036 299.181 217.756C299.253 217.476 299.289 217.192 299.289 216.904C299.289 216.6 299.253 216.308 299.181 216.028C299.109 215.74 298.993 215.488 298.833 215.272C298.681 215.056 298.481 214.884 298.233 214.756C297.985 214.62 297.685 214.552 297.333 214.552C296.989 214.552 296.697 214.62 296.457 214.756C296.217 214.892 296.025 215.072 295.881 215.296C295.737 215.52 295.633 215.776 295.569 216.064C295.505 216.352 295.473 216.648 295.473 216.952ZM300.273 220H299.253V219.16H299.229C299.061 219.504 298.797 219.752 298.437 219.904C298.077 220.056 297.681 220.132 297.249 220.132C296.769 220.132 296.349 220.044 295.989 219.868C295.637 219.692 295.341 219.456 295.101 219.16C294.869 218.864 294.693 218.52 294.573 218.128C294.453 217.736 294.393 217.32 294.393 216.88C294.393 216.44 294.449 216.024 294.561 215.632C294.681 215.24 294.857 214.9 295.089 214.612C295.329 214.316 295.625 214.084 295.977 213.916C296.337 213.74 296.753 213.652 297.225 213.652C297.385 213.652 297.557 213.668 297.741 213.7C297.925 213.732 298.109 213.788 298.293 213.868C298.477 213.94 298.649 214.04 298.809 214.168C298.977 214.288 299.117 214.44 299.229 214.624H299.253V211.432H300.273V220ZM302.767 216.952C302.767 217.24 302.803 217.524 302.875 217.804C302.955 218.076 303.071 218.32 303.223 218.536C303.383 218.752 303.583 218.924 303.823 219.052C304.071 219.18 304.359 219.244 304.687 219.244C305.031 219.244 305.323 219.176 305.563 219.04C305.803 218.904 305.999 218.728 306.151 218.512C306.303 218.288 306.411 218.036 306.475 217.756C306.547 217.476 306.583 217.192 306.583 216.904C306.583 216.6 306.547 216.308 306.475 216.028C306.403 215.74 306.287 215.488 306.127 215.272C305.975 215.056 305.775 214.884 305.527 214.756C305.279 214.62 304.979 214.552 304.627 214.552C304.283 214.552 303.991 214.62 303.751 214.756C303.511 214.892 303.319 215.072 303.175 215.296C303.031 215.52 302.927 215.776 302.863 216.064C302.799 216.352 302.767 216.648 302.767 216.952ZM307.567 220H306.547V219.16H306.523C306.355 219.504 306.091 219.752 305.731 219.904C305.371 220.056 304.975 220.132 304.543 220.132C304.063 220.132 303.643 220.044 303.283 219.868C302.931 219.692 302.635 219.456 302.395 219.16C302.163 218.864 301.987 218.52 301.867 218.128C301.747 217.736 301.687 217.32 301.687 216.88C301.687 216.44 301.743 216.024 301.855 215.632C301.975 215.24 302.151 214.9 302.383 214.612C302.623 214.316 302.919 214.084 303.271 213.916C303.631 213.74 304.047 213.652 304.519 213.652C304.679 213.652 304.851 213.668 305.035 213.7C305.219 213.732 305.403 213.788 305.587 213.868C305.771 213.94 305.943 214.04 306.103 214.168C306.271 214.288 306.411 214.44 306.523 214.624H306.547V211.432H307.567V220ZM310.396 212.68H309.376V211.432H310.396V212.68ZM309.376 213.796H310.396V220H309.376V213.796ZM313.572 213.796H314.808V214.696H313.572V218.548C313.572 218.668 313.58 218.764 313.596 218.836C313.62 218.908 313.66 218.964 313.716 219.004C313.772 219.044 313.848 219.072 313.944 219.088C314.048 219.096 314.18 219.1 314.34 219.1H314.808V220H314.028C313.764 220 313.536 219.984 313.344 219.952C313.16 219.912 313.008 219.844 312.888 219.748C312.776 219.652 312.692 219.516 312.636 219.34C312.58 219.164 312.552 218.932 312.552 218.644V214.696H311.496V213.796H312.552V211.936H313.572V213.796ZM317.201 212.68H316.181V211.432H317.201V212.68ZM316.181 213.796H317.201V220H316.181V213.796ZM319.705 216.904C319.705 217.28 319.753 217.616 319.849 217.912C319.953 218.2 320.093 218.444 320.269 218.644C320.445 218.836 320.649 218.984 320.881 219.088C321.121 219.192 321.373 219.244 321.637 219.244C321.901 219.244 322.149 219.192 322.381 219.088C322.621 218.984 322.829 218.836 323.005 218.644C323.181 218.444 323.317 218.2 323.413 217.912C323.517 217.616 323.569 217.28 323.569 216.904C323.569 216.528 323.517 216.196 323.413 215.908C323.317 215.612 323.181 215.364 323.005 215.164C322.829 214.964 322.621 214.812 322.381 214.708C322.149 214.604 321.901 214.552 321.637 214.552C321.373 214.552 321.121 214.604 320.881 214.708C320.649 214.812 320.445 214.964 320.269 215.164C320.093 215.364 319.953 215.612 319.849 215.908C319.753 216.196 319.705 216.528 319.705 216.904ZM318.625 216.904C318.625 216.448 318.689 216.024 318.817 215.632C318.945 215.232 319.137 214.888 319.393 214.6C319.649 214.304 319.965 214.072 320.341 213.904C320.717 213.736 321.149 213.652 321.637 213.652C322.133 213.652 322.565 213.736 322.933 213.904C323.309 214.072 323.625 214.304 323.881 214.6C324.137 214.888 324.329 215.232 324.457 215.632C324.585 216.024 324.649 216.448 324.649 216.904C324.649 217.36 324.585 217.784 324.457 218.176C324.329 218.568 324.137 218.912 323.881 219.208C323.625 219.496 323.309 219.724 322.933 219.892C322.565 220.052 322.133 220.132 321.637 220.132C321.149 220.132 320.717 220.052 320.341 219.892C319.965 219.724 319.649 219.496 319.393 219.208C319.137 218.912 318.945 218.568 318.817 218.176C318.689 217.784 318.625 217.36 318.625 216.904ZM326.032 213.796H326.992V214.78H327.016C327.44 214.028 328.112 213.652 329.032 213.652C329.44 213.652 329.78 213.708 330.052 213.82C330.324 213.932 330.544 214.088 330.712 214.288C330.88 214.488 330.996 214.728 331.06 215.008C331.132 215.28 331.168 215.584 331.168 215.92V220H330.148V215.8C330.148 215.416 330.036 215.112 329.812 214.888C329.588 214.664 329.28 214.552 328.888 214.552C328.576 214.552 328.304 214.6 328.072 214.696C327.848 214.792 327.66 214.928 327.508 215.104C327.356 215.28 327.24 215.488 327.16 215.728C327.088 215.96 327.052 216.216 327.052 216.496V220H326.032V213.796ZM338.376 219.976C338.2 220.08 337.956 220.132 337.644 220.132C337.38 220.132 337.168 220.06 337.008 219.916C336.856 219.764 336.78 219.52 336.78 219.184C336.5 219.52 336.172 219.764 335.796 219.916C335.428 220.06 335.028 220.132 334.596 220.132C334.316 220.132 334.048 220.1 333.792 220.036C333.544 219.972 333.328 219.872 333.144 219.736C332.96 219.6 332.812 219.424 332.7 219.208C332.596 218.984 332.544 218.716 332.544 218.404C332.544 218.052 332.604 217.764 332.724 217.54C332.844 217.316 333 217.136 333.192 217C333.392 216.856 333.616 216.748 333.864 216.676C334.12 216.604 334.38 216.544 334.644 216.496C334.924 216.44 335.188 216.4 335.436 216.376C335.692 216.344 335.916 216.304 336.108 216.256C336.3 216.2 336.452 216.124 336.564 216.028C336.676 215.924 336.732 215.776 336.732 215.584C336.732 215.36 336.688 215.18 336.6 215.044C336.52 214.908 336.412 214.804 336.276 214.732C336.148 214.66 336 214.612 335.832 214.588C335.672 214.564 335.512 214.552 335.352 214.552C334.92 214.552 334.56 214.636 334.272 214.804C333.984 214.964 333.828 215.272 333.804 215.728H332.784C332.8 215.344 332.88 215.02 333.024 214.756C333.168 214.492 333.36 214.28 333.6 214.12C333.84 213.952 334.112 213.832 334.416 213.76C334.728 213.688 335.06 213.652 335.412 213.652C335.692 213.652 335.968 213.672 336.24 213.712C336.52 213.752 336.772 213.836 336.996 213.964C337.22 214.084 337.4 214.256 337.536 214.48C337.672 214.704 337.74 214.996 337.74 215.356V218.548C337.74 218.788 337.752 218.964 337.776 219.076C337.808 219.188 337.904 219.244 338.064 219.244C338.152 219.244 338.256 219.224 338.376 219.184V219.976ZM336.72 216.796C336.592 216.892 336.424 216.964 336.216 217.012C336.008 217.052 335.788 217.088 335.556 217.12C335.332 217.144 335.104 217.176 334.872 217.216C334.64 217.248 334.432 217.304 334.248 217.384C334.064 217.464 333.912 217.58 333.792 217.732C333.68 217.876 333.624 218.076 333.624 218.332C333.624 218.5 333.656 218.644 333.72 218.764C333.792 218.876 333.88 218.968 333.984 219.04C334.096 219.112 334.224 219.164 334.368 219.196C334.512 219.228 334.664 219.244 334.824 219.244C335.16 219.244 335.448 219.2 335.688 219.112C335.928 219.016 336.124 218.9 336.276 218.764C336.428 218.62 336.54 218.468 336.612 218.308C336.684 218.14 336.72 217.984 336.72 217.84V216.796ZM339.565 211.432H340.585V220H339.565V211.432ZM350.077 215.788C349.997 215.396 349.829 215.092 349.573 214.876C349.317 214.66 348.973 214.552 348.541 214.552C348.173 214.552 347.865 214.62 347.617 214.756C347.369 214.892 347.169 215.072 347.017 215.296C346.873 215.52 346.769 215.78 346.705 216.076C346.641 216.364 346.609 216.664 346.609 216.976C346.609 217.264 346.641 217.544 346.705 217.816C346.777 218.088 346.885 218.332 347.029 218.548C347.173 218.756 347.361 218.924 347.593 219.052C347.825 219.18 348.101 219.244 348.421 219.244C348.925 219.244 349.317 219.112 349.597 218.848C349.885 218.584 350.061 218.212 350.125 217.732H351.169C351.057 218.5 350.769 219.092 350.305 219.508C349.849 219.924 349.225 220.132 348.433 220.132C347.961 220.132 347.541 220.056 347.173 219.904C346.813 219.752 346.509 219.536 346.261 219.256C346.021 218.976 345.837 218.644 345.709 218.26C345.589 217.868 345.529 217.44 345.529 216.976C345.529 216.512 345.589 216.08 345.709 215.68C345.829 215.272 346.009 214.92 346.249 214.624C346.497 214.32 346.805 214.084 347.173 213.916C347.541 213.74 347.969 213.652 348.457 213.652C348.809 213.652 349.137 213.696 349.441 213.784C349.753 213.864 350.025 213.992 350.257 214.168C350.497 214.344 350.693 214.568 350.845 214.84C350.997 215.104 351.093 215.42 351.133 215.788H350.077ZM353.235 216.904C353.235 217.28 353.283 217.616 353.379 217.912C353.483 218.2 353.623 218.444 353.799 218.644C353.975 218.836 354.179 218.984 354.411 219.088C354.651 219.192 354.903 219.244 355.167 219.244C355.431 219.244 355.679 219.192 355.911 219.088C356.151 218.984 356.359 218.836 356.535 218.644C356.711 218.444 356.847 218.2 356.943 217.912C357.047 217.616 357.099 217.28 357.099 216.904C357.099 216.528 357.047 216.196 356.943 215.908C356.847 215.612 356.711 215.364 356.535 215.164C356.359 214.964 356.151 214.812 355.911 214.708C355.679 214.604 355.431 214.552 355.167 214.552C354.903 214.552 354.651 214.604 354.411 214.708C354.179 214.812 353.975 214.964 353.799 215.164C353.623 215.364 353.483 215.612 353.379 215.908C353.283 216.196 353.235 216.528 353.235 216.904ZM352.155 216.904C352.155 216.448 352.219 216.024 352.347 215.632C352.475 215.232 352.667 214.888 352.923 214.6C353.179 214.304 353.495 214.072 353.871 213.904C354.247 213.736 354.679 213.652 355.167 213.652C355.663 213.652 356.095 213.736 356.463 213.904C356.839 214.072 357.155 214.304 357.411 214.6C357.667 214.888 357.859 215.232 357.987 215.632C358.115 216.024 358.179 216.448 358.179 216.904C358.179 217.36 358.115 217.784 357.987 218.176C357.859 218.568 357.667 218.912 357.411 219.208C357.155 219.496 356.839 219.724 356.463 219.892C356.095 220.052 355.663 220.132 355.167 220.132C354.679 220.132 354.247 220.052 353.871 219.892C353.495 219.724 353.179 219.496 352.923 219.208C352.667 218.912 352.475 218.568 352.347 218.176C352.219 217.784 352.155 217.36 352.155 216.904ZM359.561 213.796H360.521V214.708H360.545C361.009 214.004 361.677 213.652 362.549 213.652C362.933 213.652 363.281 213.732 363.593 213.892C363.905 214.052 364.125 214.324 364.253 214.708C364.461 214.372 364.733 214.112 365.069 213.928C365.413 213.744 365.789 213.652 366.197 213.652C366.509 213.652 366.789 213.688 367.037 213.76C367.293 213.824 367.509 213.928 367.685 214.072C367.869 214.216 368.009 214.404 368.105 214.636C368.209 214.86 368.261 215.132 368.261 215.452V220H367.241V215.932C367.241 215.74 367.225 215.56 367.193 215.392C367.161 215.224 367.101 215.08 367.013 214.96C366.925 214.832 366.801 214.732 366.641 214.66C366.489 214.588 366.289 214.552 366.041 214.552C365.537 214.552 365.141 214.696 364.853 214.984C364.565 215.272 364.421 215.656 364.421 216.136V220H363.401V215.932C363.401 215.732 363.381 215.548 363.341 215.38C363.309 215.212 363.249 215.068 363.161 214.948C363.073 214.82 362.953 214.724 362.801 214.66C362.657 214.588 362.469 214.552 362.237 214.552C361.941 214.552 361.685 214.612 361.469 214.732C361.261 214.852 361.089 214.996 360.953 215.164C360.825 215.332 360.729 215.508 360.665 215.692C360.609 215.868 360.581 216.016 360.581 216.136V220H359.561V213.796ZM369.972 213.796H370.932V214.708H370.956C371.42 214.004 372.088 213.652 372.96 213.652C373.344 213.652 373.692 213.732 374.004 213.892C374.316 214.052 374.536 214.324 374.664 214.708C374.872 214.372 375.144 214.112 375.48 213.928C375.824 213.744 376.2 213.652 376.608 213.652C376.92 213.652 377.2 213.688 377.448 213.76C377.704 213.824 377.92 213.928 378.096 214.072C378.28 214.216 378.42 214.404 378.516 214.636C378.62 214.86 378.672 215.132 378.672 215.452V220H377.652V215.932C377.652 215.74 377.636 215.56 377.604 215.392C377.572 215.224 377.512 215.08 377.424 214.96C377.336 214.832 377.212 214.732 377.052 214.66C376.9 214.588 376.7 214.552 376.452 214.552C375.948 214.552 375.552 214.696 375.264 214.984C374.976 215.272 374.832 215.656 374.832 216.136V220H373.812V215.932C373.812 215.732 373.792 215.548 373.752 215.38C373.72 215.212 373.66 215.068 373.572 214.948C373.484 214.82 373.364 214.724 373.212 214.66C373.068 214.588 372.88 214.552 372.648 214.552C372.352 214.552 372.096 214.612 371.88 214.732C371.672 214.852 371.5 214.996 371.364 215.164C371.236 215.332 371.14 215.508 371.076 215.692C371.02 215.868 370.992 216.016 370.992 216.136V220H369.972V213.796ZM384.69 216.304C384.674 216.064 384.618 215.836 384.522 215.62C384.434 215.404 384.31 215.22 384.15 215.068C383.998 214.908 383.814 214.784 383.598 214.696C383.39 214.6 383.158 214.552 382.902 214.552C382.638 214.552 382.398 214.6 382.182 214.696C381.974 214.784 381.794 214.908 381.642 215.068C381.49 215.228 381.37 215.416 381.282 215.632C381.194 215.84 381.142 216.064 381.126 216.304H384.69ZM385.674 218.032C385.538 218.728 385.238 219.252 384.774 219.604C384.31 219.956 383.726 220.132 383.022 220.132C382.526 220.132 382.094 220.052 381.726 219.892C381.366 219.732 381.062 219.508 380.814 219.22C380.566 218.932 380.378 218.588 380.25 218.188C380.13 217.788 380.062 217.352 380.046 216.88C380.046 216.408 380.118 215.976 380.262 215.584C380.406 215.192 380.606 214.852 380.862 214.564C381.126 214.276 381.434 214.052 381.786 213.892C382.146 213.732 382.538 213.652 382.962 213.652C383.514 213.652 383.97 213.768 384.33 214C384.698 214.224 384.99 214.512 385.206 214.864C385.43 215.216 385.582 215.6 385.662 216.016C385.75 216.432 385.786 216.828 385.77 217.204H381.126C381.118 217.476 381.15 217.736 381.222 217.984C381.294 218.224 381.41 218.44 381.57 218.632C381.73 218.816 381.934 218.964 382.182 219.076C382.43 219.188 382.722 219.244 383.058 219.244C383.49 219.244 383.842 219.144 384.114 218.944C384.394 218.744 384.578 218.44 384.666 218.032H385.674ZM387.007 213.796H387.967V214.78H387.991C388.415 214.028 389.087 213.652 390.007 213.652C390.415 213.652 390.755 213.708 391.027 213.82C391.299 213.932 391.519 214.088 391.687 214.288C391.855 214.488 391.971 214.728 392.035 215.008C392.107 215.28 392.143 215.584 392.143 215.92V220H391.123V215.8C391.123 215.416 391.011 215.112 390.787 214.888C390.563 214.664 390.255 214.552 389.863 214.552C389.551 214.552 389.279 214.6 389.047 214.696C388.823 214.792 388.635 214.928 388.483 215.104C388.331 215.28 388.215 215.488 388.135 215.728C388.063 215.96 388.027 216.216 388.027 216.496V220H387.007V213.796ZM395.271 213.796H396.507V214.696H395.271V218.548C395.271 218.668 395.279 218.764 395.295 218.836C395.319 218.908 395.359 218.964 395.415 219.004C395.471 219.044 395.547 219.072 395.643 219.088C395.747 219.096 395.879 219.1 396.039 219.1H396.507V220H395.727C395.463 220 395.235 219.984 395.043 219.952C394.859 219.912 394.707 219.844 394.587 219.748C394.475 219.652 394.391 219.516 394.335 219.34C394.279 219.164 394.251 218.932 394.251 218.644V214.696H393.195V213.796H394.251V211.936H395.271V213.796ZM398.444 218.044C398.452 218.268 398.504 218.46 398.6 218.62C398.696 218.772 398.82 218.896 398.972 218.992C399.132 219.08 399.308 219.144 399.5 219.184C399.7 219.224 399.904 219.244 400.112 219.244C400.272 219.244 400.44 219.232 400.616 219.208C400.792 219.184 400.952 219.14 401.096 219.076C401.248 219.012 401.372 218.92 401.468 218.8C401.564 218.672 401.612 218.512 401.612 218.32C401.612 218.056 401.512 217.856 401.312 217.72C401.112 217.584 400.86 217.476 400.556 217.396C400.26 217.308 399.936 217.232 399.584 217.168C399.232 217.096 398.904 217 398.6 216.88C398.304 216.752 398.056 216.576 397.856 216.352C397.656 216.128 397.556 215.816 397.556 215.416C397.556 215.104 397.624 214.836 397.76 214.612C397.904 214.388 398.084 214.208 398.3 214.072C398.524 213.928 398.772 213.824 399.044 213.76C399.324 213.688 399.6 213.652 399.872 213.652C400.224 213.652 400.548 213.684 400.844 213.748C401.14 213.804 401.4 213.908 401.624 214.06C401.856 214.204 402.04 214.404 402.176 214.66C402.312 214.908 402.392 215.22 402.416 215.596H401.396C401.38 215.396 401.328 215.232 401.24 215.104C401.152 214.968 401.04 214.86 400.904 214.78C400.768 214.7 400.616 214.644 400.448 214.612C400.288 214.572 400.124 214.552 399.956 214.552C399.804 214.552 399.648 214.564 399.488 214.588C399.336 214.612 399.196 214.656 399.068 214.72C398.94 214.776 398.836 214.856 398.756 214.96C398.676 215.056 398.636 215.184 398.636 215.344C398.636 215.52 398.696 215.668 398.816 215.788C398.944 215.9 399.104 215.996 399.296 216.076C399.488 216.148 399.704 216.212 399.944 216.268C400.184 216.316 400.424 216.368 400.664 216.424C400.92 216.48 401.168 216.548 401.408 216.628C401.656 216.708 401.872 216.816 402.056 216.952C402.248 217.08 402.4 217.244 402.512 217.444C402.632 217.644 402.692 217.892 402.692 218.188C402.692 218.564 402.612 218.876 402.452 219.124C402.3 219.372 402.096 219.572 401.84 219.724C401.592 219.876 401.308 219.98 400.988 220.036C400.676 220.1 400.364 220.132 400.052 220.132C399.708 220.132 399.38 220.096 399.068 220.024C398.756 219.952 398.48 219.836 398.24 219.676C398 219.508 397.808 219.292 397.664 219.028C397.52 218.756 397.44 218.428 397.424 218.044H398.444Z" fill="black" fill-opacity="0.68"/>
</svg>
