<svg width="600" height="372" viewBox="0 0 600 372" fill="none" xmlns="http://www.w3.org/2000/svg">
<rect width="600" height="372" fill="black" fill-opacity="0.04"/>
<path d="M91.248 106.076H98.752V107.356H92.768V110.988H98.016V112.268H92.768V117.5H91.248V106.076ZM107.54 117.468C107.305 117.607 106.98 117.676 106.564 117.676C106.212 117.676 105.929 117.58 105.716 117.388C105.513 117.185 105.412 116.86 105.412 116.412C105.038 116.86 104.601 117.185 104.1 117.388C103.609 117.58 103.076 117.676 102.5 117.676C102.126 117.676 101.769 117.633 101.428 117.548C101.097 117.463 100.809 117.329 100.564 117.148C100.318 116.967 100.121 116.732 99.9715 116.444C99.8328 116.145 99.7635 115.788 99.7635 115.372C99.7635 114.903 99.8435 114.519 100.004 114.22C100.164 113.921 100.372 113.681 100.628 113.5C100.894 113.308 101.193 113.164 101.524 113.068C101.865 112.972 102.212 112.892 102.564 112.828C102.937 112.753 103.289 112.7 103.62 112.668C103.961 112.625 104.26 112.572 104.516 112.508C104.772 112.433 104.974 112.332 105.124 112.204C105.273 112.065 105.348 111.868 105.348 111.612C105.348 111.313 105.289 111.073 105.172 110.892C105.065 110.711 104.921 110.572 104.74 110.476C104.569 110.38 104.372 110.316 104.148 110.284C103.934 110.252 103.721 110.236 103.508 110.236C102.932 110.236 102.452 110.348 102.068 110.572C101.684 110.785 101.476 111.196 101.444 111.804H100.084C100.105 111.292 100.212 110.86 100.404 110.508C100.596 110.156 100.852 109.873 101.172 109.66C101.492 109.436 101.854 109.276 102.26 109.18C102.676 109.084 103.118 109.036 103.588 109.036C103.961 109.036 104.329 109.063 104.692 109.116C105.065 109.169 105.401 109.281 105.7 109.452C105.998 109.612 106.238 109.841 106.42 110.14C106.601 110.439 106.692 110.828 106.692 111.308V115.564C106.692 115.884 106.708 116.119 106.74 116.268C106.782 116.417 106.91 116.492 107.124 116.492C107.241 116.492 107.38 116.465 107.54 116.412V117.468ZM105.332 113.228C105.161 113.356 104.937 113.452 104.66 113.516C104.382 113.569 104.089 113.617 103.78 113.66C103.481 113.692 103.177 113.735 102.868 113.788C102.558 113.831 102.281 113.905 102.036 114.012C101.79 114.119 101.588 114.273 101.428 114.476C101.278 114.668 101.204 114.935 101.204 115.276C101.204 115.5 101.246 115.692 101.332 115.852C101.428 116.001 101.545 116.124 101.684 116.22C101.833 116.316 102.004 116.385 102.196 116.428C102.388 116.471 102.59 116.492 102.804 116.492C103.252 116.492 103.636 116.433 103.956 116.316C104.276 116.188 104.537 116.033 104.74 115.852C104.942 115.66 105.092 115.457 105.188 115.244C105.284 115.02 105.332 114.812 105.332 114.62V113.228ZM108.885 106.076H110.245V117.5H108.885V106.076ZM113.184 114.892C113.195 115.191 113.264 115.447 113.392 115.66C113.52 115.863 113.685 116.028 113.888 116.156C114.101 116.273 114.336 116.359 114.592 116.412C114.859 116.465 115.131 116.492 115.408 116.492C115.621 116.492 115.845 116.476 116.08 116.444C116.315 116.412 116.528 116.353 116.72 116.268C116.923 116.183 117.088 116.06 117.216 115.9C117.344 115.729 117.408 115.516 117.408 115.26C117.408 114.908 117.275 114.641 117.008 114.46C116.741 114.279 116.405 114.135 116 114.028C115.605 113.911 115.173 113.809 114.704 113.724C114.235 113.628 113.797 113.5 113.392 113.34C112.997 113.169 112.667 112.935 112.4 112.636C112.133 112.337 112 111.921 112 111.388C112 110.972 112.091 110.615 112.272 110.316C112.464 110.017 112.704 109.777 112.992 109.596C113.291 109.404 113.621 109.265 113.984 109.18C114.357 109.084 114.725 109.036 115.088 109.036C115.557 109.036 115.989 109.079 116.384 109.164C116.779 109.239 117.125 109.377 117.424 109.58C117.733 109.772 117.979 110.039 118.16 110.38C118.341 110.711 118.448 111.127 118.48 111.628H117.12C117.099 111.361 117.029 111.143 116.912 110.972C116.795 110.791 116.645 110.647 116.464 110.54C116.283 110.433 116.08 110.359 115.856 110.316C115.643 110.263 115.424 110.236 115.2 110.236C114.997 110.236 114.789 110.252 114.576 110.284C114.373 110.316 114.187 110.375 114.016 110.46C113.845 110.535 113.707 110.641 113.6 110.78C113.493 110.908 113.44 111.079 113.44 111.292C113.44 111.527 113.52 111.724 113.68 111.884C113.851 112.033 114.064 112.161 114.32 112.268C114.576 112.364 114.864 112.449 115.184 112.524C115.504 112.588 115.824 112.657 116.144 112.732C116.485 112.807 116.816 112.897 117.136 113.004C117.467 113.111 117.755 113.255 118 113.436C118.256 113.607 118.459 113.825 118.608 114.092C118.768 114.359 118.848 114.689 118.848 115.084C118.848 115.585 118.741 116.001 118.528 116.332C118.325 116.663 118.053 116.929 117.712 117.132C117.381 117.335 117.003 117.473 116.576 117.548C116.16 117.633 115.744 117.676 115.328 117.676C114.869 117.676 114.432 117.628 114.016 117.532C113.6 117.436 113.232 117.281 112.912 117.068C112.592 116.844 112.336 116.556 112.144 116.204C111.952 115.841 111.845 115.404 111.824 114.892H113.184ZM126.096 112.572C126.075 112.252 126 111.948 125.872 111.66C125.755 111.372 125.589 111.127 125.376 110.924C125.173 110.711 124.928 110.545 124.64 110.428C124.363 110.3 124.053 110.236 123.712 110.236C123.36 110.236 123.04 110.3 122.752 110.428C122.475 110.545 122.235 110.711 122.032 110.924C121.829 111.137 121.669 111.388 121.552 111.676C121.435 111.953 121.365 112.252 121.344 112.572H126.096ZM127.408 114.876C127.227 115.804 126.827 116.503 126.208 116.972C125.589 117.441 124.811 117.676 123.872 117.676C123.211 117.676 122.635 117.569 122.144 117.356C121.664 117.143 121.259 116.844 120.928 116.46C120.597 116.076 120.347 115.617 120.176 115.084C120.016 114.551 119.925 113.969 119.904 113.34C119.904 112.711 120 112.135 120.192 111.612C120.384 111.089 120.651 110.636 120.992 110.252C121.344 109.868 121.755 109.569 122.224 109.356C122.704 109.143 123.227 109.036 123.792 109.036C124.528 109.036 125.136 109.191 125.616 109.5C126.107 109.799 126.496 110.183 126.784 110.652C127.083 111.121 127.285 111.633 127.392 112.188C127.509 112.743 127.557 113.271 127.536 113.772H121.344C121.333 114.135 121.376 114.481 121.472 114.812C121.568 115.132 121.723 115.42 121.936 115.676C122.149 115.921 122.421 116.119 122.752 116.268C123.083 116.417 123.472 116.492 123.92 116.492C124.496 116.492 124.965 116.359 125.328 116.092C125.701 115.825 125.947 115.42 126.064 114.876H127.408Z" fill="black" fill-opacity="0.68"/>
<mask id="path-2-inside-1_68467_48537" fill="white">
<path d="M270 58H510V166H270V58Z"/>
</mask>
<path d="M270 58H510V166H270V58Z" fill="black" fill-opacity="0.04"/>
<path d="M510 166V165H270V166V167H510V166Z" fill="black" fill-opacity="0.2" mask="url(#path-2-inside-1_68467_48537)"/>
<path d="M288.412 76.46H291.316L289.888 72.464H289.864L288.412 76.46ZM289.264 71.432H290.524L293.872 80H292.612L291.676 77.42H288.052L287.092 80H285.928L289.264 71.432ZM295.473 76.952C295.473 77.24 295.509 77.524 295.581 77.804C295.661 78.076 295.777 78.32 295.929 78.536C296.089 78.752 296.289 78.924 296.529 79.052C296.777 79.18 297.065 79.244 297.393 79.244C297.737 79.244 298.029 79.176 298.269 79.04C298.509 78.904 298.705 78.728 298.857 78.512C299.009 78.288 299.117 78.036 299.181 77.756C299.253 77.476 299.289 77.192 299.289 76.904C299.289 76.6 299.253 76.308 299.181 76.028C299.109 75.74 298.993 75.488 298.833 75.272C298.681 75.056 298.481 74.884 298.233 74.756C297.985 74.62 297.685 74.552 297.333 74.552C296.989 74.552 296.697 74.62 296.457 74.756C296.217 74.892 296.025 75.072 295.881 75.296C295.737 75.52 295.633 75.776 295.569 76.064C295.505 76.352 295.473 76.648 295.473 76.952ZM300.273 80H299.253V79.16H299.229C299.061 79.504 298.797 79.752 298.437 79.904C298.077 80.056 297.681 80.132 297.249 80.132C296.769 80.132 296.349 80.044 295.989 79.868C295.637 79.692 295.341 79.456 295.101 79.16C294.869 78.864 294.693 78.52 294.573 78.128C294.453 77.736 294.393 77.32 294.393 76.88C294.393 76.44 294.449 76.024 294.561 75.632C294.681 75.24 294.857 74.9 295.089 74.612C295.329 74.316 295.625 74.084 295.977 73.916C296.337 73.74 296.753 73.652 297.225 73.652C297.385 73.652 297.557 73.668 297.741 73.7C297.925 73.732 298.109 73.788 298.293 73.868C298.477 73.94 298.649 74.04 298.809 74.168C298.977 74.288 299.117 74.44 299.229 74.624H299.253V71.432H300.273V80ZM302.767 76.952C302.767 77.24 302.803 77.524 302.875 77.804C302.955 78.076 303.071 78.32 303.223 78.536C303.383 78.752 303.583 78.924 303.823 79.052C304.071 79.18 304.359 79.244 304.687 79.244C305.031 79.244 305.323 79.176 305.563 79.04C305.803 78.904 305.999 78.728 306.151 78.512C306.303 78.288 306.411 78.036 306.475 77.756C306.547 77.476 306.583 77.192 306.583 76.904C306.583 76.6 306.547 76.308 306.475 76.028C306.403 75.74 306.287 75.488 306.127 75.272C305.975 75.056 305.775 74.884 305.527 74.756C305.279 74.62 304.979 74.552 304.627 74.552C304.283 74.552 303.991 74.62 303.751 74.756C303.511 74.892 303.319 75.072 303.175 75.296C303.031 75.52 302.927 75.776 302.863 76.064C302.799 76.352 302.767 76.648 302.767 76.952ZM307.567 80H306.547V79.16H306.523C306.355 79.504 306.091 79.752 305.731 79.904C305.371 80.056 304.975 80.132 304.543 80.132C304.063 80.132 303.643 80.044 303.283 79.868C302.931 79.692 302.635 79.456 302.395 79.16C302.163 78.864 301.987 78.52 301.867 78.128C301.747 77.736 301.687 77.32 301.687 76.88C301.687 76.44 301.743 76.024 301.855 75.632C301.975 75.24 302.151 74.9 302.383 74.612C302.623 74.316 302.919 74.084 303.271 73.916C303.631 73.74 304.047 73.652 304.519 73.652C304.679 73.652 304.851 73.668 305.035 73.7C305.219 73.732 305.403 73.788 305.587 73.868C305.771 73.94 305.943 74.04 306.103 74.168C306.271 74.288 306.411 74.44 306.523 74.624H306.547V71.432H307.567V80ZM310.396 72.68H309.376V71.432H310.396V72.68ZM309.376 73.796H310.396V80H309.376V73.796ZM313.572 73.796H314.808V74.696H313.572V78.548C313.572 78.668 313.58 78.764 313.596 78.836C313.62 78.908 313.66 78.964 313.716 79.004C313.772 79.044 313.848 79.072 313.944 79.088C314.048 79.096 314.18 79.1 314.34 79.1H314.808V80H314.028C313.764 80 313.536 79.984 313.344 79.952C313.16 79.912 313.008 79.844 312.888 79.748C312.776 79.652 312.692 79.516 312.636 79.34C312.58 79.164 312.552 78.932 312.552 78.644V74.696H311.496V73.796H312.552V71.936H313.572V73.796ZM317.201 72.68H316.181V71.432H317.201V72.68ZM316.181 73.796H317.201V80H316.181V73.796ZM319.705 76.904C319.705 77.28 319.753 77.616 319.849 77.912C319.953 78.2 320.093 78.444 320.269 78.644C320.445 78.836 320.649 78.984 320.881 79.088C321.121 79.192 321.373 79.244 321.637 79.244C321.901 79.244 322.149 79.192 322.381 79.088C322.621 78.984 322.829 78.836 323.005 78.644C323.181 78.444 323.317 78.2 323.413 77.912C323.517 77.616 323.569 77.28 323.569 76.904C323.569 76.528 323.517 76.196 323.413 75.908C323.317 75.612 323.181 75.364 323.005 75.164C322.829 74.964 322.621 74.812 322.381 74.708C322.149 74.604 321.901 74.552 321.637 74.552C321.373 74.552 321.121 74.604 320.881 74.708C320.649 74.812 320.445 74.964 320.269 75.164C320.093 75.364 319.953 75.612 319.849 75.908C319.753 76.196 319.705 76.528 319.705 76.904ZM318.625 76.904C318.625 76.448 318.689 76.024 318.817 75.632C318.945 75.232 319.137 74.888 319.393 74.6C319.649 74.304 319.965 74.072 320.341 73.904C320.717 73.736 321.149 73.652 321.637 73.652C322.133 73.652 322.565 73.736 322.933 73.904C323.309 74.072 323.625 74.304 323.881 74.6C324.137 74.888 324.329 75.232 324.457 75.632C324.585 76.024 324.649 76.448 324.649 76.904C324.649 77.36 324.585 77.784 324.457 78.176C324.329 78.568 324.137 78.912 323.881 79.208C323.625 79.496 323.309 79.724 322.933 79.892C322.565 80.052 322.133 80.132 321.637 80.132C321.149 80.132 320.717 80.052 320.341 79.892C319.965 79.724 319.649 79.496 319.393 79.208C319.137 78.912 318.945 78.568 318.817 78.176C318.689 77.784 318.625 77.36 318.625 76.904ZM326.032 73.796H326.992V74.78H327.016C327.44 74.028 328.112 73.652 329.032 73.652C329.44 73.652 329.78 73.708 330.052 73.82C330.324 73.932 330.544 74.088 330.712 74.288C330.88 74.488 330.996 74.728 331.06 75.008C331.132 75.28 331.168 75.584 331.168 75.92V80H330.148V75.8C330.148 75.416 330.036 75.112 329.812 74.888C329.588 74.664 329.28 74.552 328.888 74.552C328.576 74.552 328.304 74.6 328.072 74.696C327.848 74.792 327.66 74.928 327.508 75.104C327.356 75.28 327.24 75.488 327.16 75.728C327.088 75.96 327.052 76.216 327.052 76.496V80H326.032V73.796ZM338.376 79.976C338.2 80.08 337.956 80.132 337.644 80.132C337.38 80.132 337.168 80.06 337.008 79.916C336.856 79.764 336.78 79.52 336.78 79.184C336.5 79.52 336.172 79.764 335.796 79.916C335.428 80.06 335.028 80.132 334.596 80.132C334.316 80.132 334.048 80.1 333.792 80.036C333.544 79.972 333.328 79.872 333.144 79.736C332.96 79.6 332.812 79.424 332.7 79.208C332.596 78.984 332.544 78.716 332.544 78.404C332.544 78.052 332.604 77.764 332.724 77.54C332.844 77.316 333 77.136 333.192 77C333.392 76.856 333.616 76.748 333.864 76.676C334.12 76.604 334.38 76.544 334.644 76.496C334.924 76.44 335.188 76.4 335.436 76.376C335.692 76.344 335.916 76.304 336.108 76.256C336.3 76.2 336.452 76.124 336.564 76.028C336.676 75.924 336.732 75.776 336.732 75.584C336.732 75.36 336.688 75.18 336.6 75.044C336.52 74.908 336.412 74.804 336.276 74.732C336.148 74.66 336 74.612 335.832 74.588C335.672 74.564 335.512 74.552 335.352 74.552C334.92 74.552 334.56 74.636 334.272 74.804C333.984 74.964 333.828 75.272 333.804 75.728H332.784C332.8 75.344 332.88 75.02 333.024 74.756C333.168 74.492 333.36 74.28 333.6 74.12C333.84 73.952 334.112 73.832 334.416 73.76C334.728 73.688 335.06 73.652 335.412 73.652C335.692 73.652 335.968 73.672 336.24 73.712C336.52 73.752 336.772 73.836 336.996 73.964C337.22 74.084 337.4 74.256 337.536 74.48C337.672 74.704 337.74 74.996 337.74 75.356V78.548C337.74 78.788 337.752 78.964 337.776 79.076C337.808 79.188 337.904 79.244 338.064 79.244C338.152 79.244 338.256 79.224 338.376 79.184V79.976ZM336.72 76.796C336.592 76.892 336.424 76.964 336.216 77.012C336.008 77.052 335.788 77.088 335.556 77.12C335.332 77.144 335.104 77.176 334.872 77.216C334.64 77.248 334.432 77.304 334.248 77.384C334.064 77.464 333.912 77.58 333.792 77.732C333.68 77.876 333.624 78.076 333.624 78.332C333.624 78.5 333.656 78.644 333.72 78.764C333.792 78.876 333.88 78.968 333.984 79.04C334.096 79.112 334.224 79.164 334.368 79.196C334.512 79.228 334.664 79.244 334.824 79.244C335.16 79.244 335.448 79.2 335.688 79.112C335.928 79.016 336.124 78.9 336.276 78.764C336.428 78.62 336.54 78.468 336.612 78.308C336.684 78.14 336.72 77.984 336.72 77.84V76.796ZM339.565 71.432H340.585V80H339.565V71.432ZM350.077 75.788C349.997 75.396 349.829 75.092 349.573 74.876C349.317 74.66 348.973 74.552 348.541 74.552C348.173 74.552 347.865 74.62 347.617 74.756C347.369 74.892 347.169 75.072 347.017 75.296C346.873 75.52 346.769 75.78 346.705 76.076C346.641 76.364 346.609 76.664 346.609 76.976C346.609 77.264 346.641 77.544 346.705 77.816C346.777 78.088 346.885 78.332 347.029 78.548C347.173 78.756 347.361 78.924 347.593 79.052C347.825 79.18 348.101 79.244 348.421 79.244C348.925 79.244 349.317 79.112 349.597 78.848C349.885 78.584 350.061 78.212 350.125 77.732H351.169C351.057 78.5 350.769 79.092 350.305 79.508C349.849 79.924 349.225 80.132 348.433 80.132C347.961 80.132 347.541 80.056 347.173 79.904C346.813 79.752 346.509 79.536 346.261 79.256C346.021 78.976 345.837 78.644 345.709 78.26C345.589 77.868 345.529 77.44 345.529 76.976C345.529 76.512 345.589 76.08 345.709 75.68C345.829 75.272 346.009 74.92 346.249 74.624C346.497 74.32 346.805 74.084 347.173 73.916C347.541 73.74 347.969 73.652 348.457 73.652C348.809 73.652 349.137 73.696 349.441 73.784C349.753 73.864 350.025 73.992 350.257 74.168C350.497 74.344 350.693 74.568 350.845 74.84C350.997 75.104 351.093 75.42 351.133 75.788H350.077ZM353.235 76.904C353.235 77.28 353.283 77.616 353.379 77.912C353.483 78.2 353.623 78.444 353.799 78.644C353.975 78.836 354.179 78.984 354.411 79.088C354.651 79.192 354.903 79.244 355.167 79.244C355.431 79.244 355.679 79.192 355.911 79.088C356.151 78.984 356.359 78.836 356.535 78.644C356.711 78.444 356.847 78.2 356.943 77.912C357.047 77.616 357.099 77.28 357.099 76.904C357.099 76.528 357.047 76.196 356.943 75.908C356.847 75.612 356.711 75.364 356.535 75.164C356.359 74.964 356.151 74.812 355.911 74.708C355.679 74.604 355.431 74.552 355.167 74.552C354.903 74.552 354.651 74.604 354.411 74.708C354.179 74.812 353.975 74.964 353.799 75.164C353.623 75.364 353.483 75.612 353.379 75.908C353.283 76.196 353.235 76.528 353.235 76.904ZM352.155 76.904C352.155 76.448 352.219 76.024 352.347 75.632C352.475 75.232 352.667 74.888 352.923 74.6C353.179 74.304 353.495 74.072 353.871 73.904C354.247 73.736 354.679 73.652 355.167 73.652C355.663 73.652 356.095 73.736 356.463 73.904C356.839 74.072 357.155 74.304 357.411 74.6C357.667 74.888 357.859 75.232 357.987 75.632C358.115 76.024 358.179 76.448 358.179 76.904C358.179 77.36 358.115 77.784 357.987 78.176C357.859 78.568 357.667 78.912 357.411 79.208C357.155 79.496 356.839 79.724 356.463 79.892C356.095 80.052 355.663 80.132 355.167 80.132C354.679 80.132 354.247 80.052 353.871 79.892C353.495 79.724 353.179 79.496 352.923 79.208C352.667 78.912 352.475 78.568 352.347 78.176C352.219 77.784 352.155 77.36 352.155 76.904ZM359.561 73.796H360.521V74.708H360.545C361.009 74.004 361.677 73.652 362.549 73.652C362.933 73.652 363.281 73.732 363.593 73.892C363.905 74.052 364.125 74.324 364.253 74.708C364.461 74.372 364.733 74.112 365.069 73.928C365.413 73.744 365.789 73.652 366.197 73.652C366.509 73.652 366.789 73.688 367.037 73.76C367.293 73.824 367.509 73.928 367.685 74.072C367.869 74.216 368.009 74.404 368.105 74.636C368.209 74.86 368.261 75.132 368.261 75.452V80H367.241V75.932C367.241 75.74 367.225 75.56 367.193 75.392C367.161 75.224 367.101 75.08 367.013 74.96C366.925 74.832 366.801 74.732 366.641 74.66C366.489 74.588 366.289 74.552 366.041 74.552C365.537 74.552 365.141 74.696 364.853 74.984C364.565 75.272 364.421 75.656 364.421 76.136V80H363.401V75.932C363.401 75.732 363.381 75.548 363.341 75.38C363.309 75.212 363.249 75.068 363.161 74.948C363.073 74.82 362.953 74.724 362.801 74.66C362.657 74.588 362.469 74.552 362.237 74.552C361.941 74.552 361.685 74.612 361.469 74.732C361.261 74.852 361.089 74.996 360.953 75.164C360.825 75.332 360.729 75.508 360.665 75.692C360.609 75.868 360.581 76.016 360.581 76.136V80H359.561V73.796ZM369.972 73.796H370.932V74.708H370.956C371.42 74.004 372.088 73.652 372.96 73.652C373.344 73.652 373.692 73.732 374.004 73.892C374.316 74.052 374.536 74.324 374.664 74.708C374.872 74.372 375.144 74.112 375.48 73.928C375.824 73.744 376.2 73.652 376.608 73.652C376.92 73.652 377.2 73.688 377.448 73.76C377.704 73.824 377.92 73.928 378.096 74.072C378.28 74.216 378.42 74.404 378.516 74.636C378.62 74.86 378.672 75.132 378.672 75.452V80H377.652V75.932C377.652 75.74 377.636 75.56 377.604 75.392C377.572 75.224 377.512 75.08 377.424 74.96C377.336 74.832 377.212 74.732 377.052 74.66C376.9 74.588 376.7 74.552 376.452 74.552C375.948 74.552 375.552 74.696 375.264 74.984C374.976 75.272 374.832 75.656 374.832 76.136V80H373.812V75.932C373.812 75.732 373.792 75.548 373.752 75.38C373.72 75.212 373.66 75.068 373.572 74.948C373.484 74.82 373.364 74.724 373.212 74.66C373.068 74.588 372.88 74.552 372.648 74.552C372.352 74.552 372.096 74.612 371.88 74.732C371.672 74.852 371.5 74.996 371.364 75.164C371.236 75.332 371.14 75.508 371.076 75.692C371.02 75.868 370.992 76.016 370.992 76.136V80H369.972V73.796ZM384.69 76.304C384.674 76.064 384.618 75.836 384.522 75.62C384.434 75.404 384.31 75.22 384.15 75.068C383.998 74.908 383.814 74.784 383.598 74.696C383.39 74.6 383.158 74.552 382.902 74.552C382.638 74.552 382.398 74.6 382.182 74.696C381.974 74.784 381.794 74.908 381.642 75.068C381.49 75.228 381.37 75.416 381.282 75.632C381.194 75.84 381.142 76.064 381.126 76.304H384.69ZM385.674 78.032C385.538 78.728 385.238 79.252 384.774 79.604C384.31 79.956 383.726 80.132 383.022 80.132C382.526 80.132 382.094 80.052 381.726 79.892C381.366 79.732 381.062 79.508 380.814 79.22C380.566 78.932 380.378 78.588 380.25 78.188C380.13 77.788 380.062 77.352 380.046 76.88C380.046 76.408 380.118 75.976 380.262 75.584C380.406 75.192 380.606 74.852 380.862 74.564C381.126 74.276 381.434 74.052 381.786 73.892C382.146 73.732 382.538 73.652 382.962 73.652C383.514 73.652 383.97 73.768 384.33 74C384.698 74.224 384.99 74.512 385.206 74.864C385.43 75.216 385.582 75.6 385.662 76.016C385.75 76.432 385.786 76.828 385.77 77.204H381.126C381.118 77.476 381.15 77.736 381.222 77.984C381.294 78.224 381.41 78.44 381.57 78.632C381.73 78.816 381.934 78.964 382.182 79.076C382.43 79.188 382.722 79.244 383.058 79.244C383.49 79.244 383.842 79.144 384.114 78.944C384.394 78.744 384.578 78.44 384.666 78.032H385.674ZM387.007 73.796H387.967V74.78H387.991C388.415 74.028 389.087 73.652 390.007 73.652C390.415 73.652 390.755 73.708 391.027 73.82C391.299 73.932 391.519 74.088 391.687 74.288C391.855 74.488 391.971 74.728 392.035 75.008C392.107 75.28 392.143 75.584 392.143 75.92V80H391.123V75.8C391.123 75.416 391.011 75.112 390.787 74.888C390.563 74.664 390.255 74.552 389.863 74.552C389.551 74.552 389.279 74.6 389.047 74.696C388.823 74.792 388.635 74.928 388.483 75.104C388.331 75.28 388.215 75.488 388.135 75.728C388.063 75.96 388.027 76.216 388.027 76.496V80H387.007V73.796ZM395.271 73.796H396.507V74.696H395.271V78.548C395.271 78.668 395.279 78.764 395.295 78.836C395.319 78.908 395.359 78.964 395.415 79.004C395.471 79.044 395.547 79.072 395.643 79.088C395.747 79.096 395.879 79.1 396.039 79.1H396.507V80H395.727C395.463 80 395.235 79.984 395.043 79.952C394.859 79.912 394.707 79.844 394.587 79.748C394.475 79.652 394.391 79.516 394.335 79.34C394.279 79.164 394.251 78.932 394.251 78.644V74.696H393.195V73.796H394.251V71.936H395.271V73.796ZM398.444 78.044C398.452 78.268 398.504 78.46 398.6 78.62C398.696 78.772 398.82 78.896 398.972 78.992C399.132 79.08 399.308 79.144 399.5 79.184C399.7 79.224 399.904 79.244 400.112 79.244C400.272 79.244 400.44 79.232 400.616 79.208C400.792 79.184 400.952 79.14 401.096 79.076C401.248 79.012 401.372 78.92 401.468 78.8C401.564 78.672 401.612 78.512 401.612 78.32C401.612 78.056 401.512 77.856 401.312 77.72C401.112 77.584 400.86 77.476 400.556 77.396C400.26 77.308 399.936 77.232 399.584 77.168C399.232 77.096 398.904 77 398.6 76.88C398.304 76.752 398.056 76.576 397.856 76.352C397.656 76.128 397.556 75.816 397.556 75.416C397.556 75.104 397.624 74.836 397.76 74.612C397.904 74.388 398.084 74.208 398.3 74.072C398.524 73.928 398.772 73.824 399.044 73.76C399.324 73.688 399.6 73.652 399.872 73.652C400.224 73.652 400.548 73.684 400.844 73.748C401.14 73.804 401.4 73.908 401.624 74.06C401.856 74.204 402.04 74.404 402.176 74.66C402.312 74.908 402.392 75.22 402.416 75.596H401.396C401.38 75.396 401.328 75.232 401.24 75.104C401.152 74.968 401.04 74.86 400.904 74.78C400.768 74.7 400.616 74.644 400.448 74.612C400.288 74.572 400.124 74.552 399.956 74.552C399.804 74.552 399.648 74.564 399.488 74.588C399.336 74.612 399.196 74.656 399.068 74.72C398.94 74.776 398.836 74.856 398.756 74.96C398.676 75.056 398.636 75.184 398.636 75.344C398.636 75.52 398.696 75.668 398.816 75.788C398.944 75.9 399.104 75.996 399.296 76.076C399.488 76.148 399.704 76.212 399.944 76.268C400.184 76.316 400.424 76.368 400.664 76.424C400.92 76.48 401.168 76.548 401.408 76.628C401.656 76.708 401.872 76.816 402.056 76.952C402.248 77.08 402.4 77.244 402.512 77.444C402.632 77.644 402.692 77.892 402.692 78.188C402.692 78.564 402.612 78.876 402.452 79.124C402.3 79.372 402.096 79.572 401.84 79.724C401.592 79.876 401.308 79.98 400.988 80.036C400.676 80.1 400.364 80.132 400.052 80.132C399.708 80.132 399.38 80.096 399.068 80.024C398.756 79.952 398.48 79.836 398.24 79.676C398 79.508 397.808 79.292 397.664 79.028C397.52 78.756 397.44 78.428 397.424 78.044H398.444Z" fill="black" fill-opacity="0.68"/>
<path d="M93.84 255.356H90.032V254.076H99.168V255.356H95.36V265.5H93.84V255.356ZM98.6948 257.228H99.9748V258.972H100.007C100.337 258.3 100.743 257.804 101.223 257.484C101.703 257.164 102.311 257.015 103.047 257.036V258.476C102.503 258.476 102.039 258.551 101.655 258.7C101.271 258.849 100.961 259.068 100.727 259.356C100.492 259.644 100.321 259.996 100.215 260.412C100.108 260.817 100.055 261.287 100.055 261.82V265.5H98.6948V257.228ZM110.919 265.5H109.639V264.188H109.607C109.319 264.7 108.951 265.079 108.503 265.324C108.055 265.559 107.527 265.676 106.919 265.676C106.375 265.676 105.922 265.607 105.559 265.468C105.196 265.319 104.903 265.111 104.679 264.844C104.455 264.577 104.295 264.263 104.199 263.9C104.114 263.527 104.071 263.116 104.071 262.668V257.228H105.431V262.828C105.431 263.34 105.58 263.745 105.879 264.044C106.178 264.343 106.588 264.492 107.111 264.492C107.527 264.492 107.884 264.428 108.183 264.3C108.492 264.172 108.748 263.991 108.951 263.756C109.154 263.521 109.303 263.249 109.399 262.94C109.506 262.62 109.559 262.273 109.559 261.9V257.228H110.919V265.5ZM118.706 260.572C118.684 260.252 118.61 259.948 118.482 259.66C118.364 259.372 118.199 259.127 117.986 258.924C117.783 258.711 117.538 258.545 117.25 258.428C116.972 258.3 116.663 258.236 116.322 258.236C115.97 258.236 115.65 258.3 115.362 258.428C115.084 258.545 114.844 258.711 114.642 258.924C114.439 259.137 114.279 259.388 114.162 259.676C114.044 259.953 113.975 260.252 113.954 260.572H118.706ZM120.017 262.876C119.836 263.804 119.436 264.503 118.818 264.972C118.199 265.441 117.42 265.676 116.482 265.676C115.82 265.676 115.244 265.569 114.754 265.356C114.274 265.143 113.868 264.844 113.538 264.46C113.207 264.076 112.956 263.617 112.786 263.084C112.626 262.551 112.535 261.969 112.514 261.34C112.514 260.711 112.61 260.135 112.802 259.612C112.994 259.089 113.26 258.636 113.602 258.252C113.954 257.868 114.364 257.569 114.834 257.356C115.314 257.143 115.836 257.036 116.402 257.036C117.138 257.036 117.746 257.191 118.226 257.5C118.716 257.799 119.106 258.183 119.394 258.652C119.692 259.121 119.895 259.633 120.002 260.188C120.119 260.743 120.167 261.271 120.146 261.772H113.954C113.943 262.135 113.986 262.481 114.082 262.812C114.178 263.132 114.332 263.42 114.546 263.676C114.759 263.921 115.031 264.119 115.362 264.268C115.692 264.417 116.082 264.492 116.53 264.492C117.106 264.492 117.575 264.359 117.938 264.092C118.311 263.825 118.556 263.42 118.674 262.876H120.017Z" fill="black" fill-opacity="0.68"/>
<mask id="path-6-inside-2_68467_48537" fill="white">
<path d="M270 206H510V314H270V206Z"/>
</mask>
<path d="M270 206V205H269V206H270ZM510 206H511V205H510V206ZM510 314V315H511V314H510ZM270 314H269V315H270V314ZM270 206V207H510V206V205H270V206ZM510 206H509V314H510H511V206H510ZM510 314V313H270V314V315H510V314ZM270 314H271V206H270H269V314H270Z" fill="black" fill-opacity="0.2" mask="url(#path-6-inside-2_68467_48537)"/>
<path d="M288.412 224.46H291.316L289.888 220.464H289.864L288.412 224.46ZM289.264 219.432H290.524L293.872 228H292.612L291.676 225.42H288.052L287.092 228H285.928L289.264 219.432ZM295.473 224.952C295.473 225.24 295.509 225.524 295.581 225.804C295.661 226.076 295.777 226.32 295.929 226.536C296.089 226.752 296.289 226.924 296.529 227.052C296.777 227.18 297.065 227.244 297.393 227.244C297.737 227.244 298.029 227.176 298.269 227.04C298.509 226.904 298.705 226.728 298.857 226.512C299.009 226.288 299.117 226.036 299.181 225.756C299.253 225.476 299.289 225.192 299.289 224.904C299.289 224.6 299.253 224.308 299.181 224.028C299.109 223.74 298.993 223.488 298.833 223.272C298.681 223.056 298.481 222.884 298.233 222.756C297.985 222.62 297.685 222.552 297.333 222.552C296.989 222.552 296.697 222.62 296.457 222.756C296.217 222.892 296.025 223.072 295.881 223.296C295.737 223.52 295.633 223.776 295.569 224.064C295.505 224.352 295.473 224.648 295.473 224.952ZM300.273 228H299.253V227.16H299.229C299.061 227.504 298.797 227.752 298.437 227.904C298.077 228.056 297.681 228.132 297.249 228.132C296.769 228.132 296.349 228.044 295.989 227.868C295.637 227.692 295.341 227.456 295.101 227.16C294.869 226.864 294.693 226.52 294.573 226.128C294.453 225.736 294.393 225.32 294.393 224.88C294.393 224.44 294.449 224.024 294.561 223.632C294.681 223.24 294.857 222.9 295.089 222.612C295.329 222.316 295.625 222.084 295.977 221.916C296.337 221.74 296.753 221.652 297.225 221.652C297.385 221.652 297.557 221.668 297.741 221.7C297.925 221.732 298.109 221.788 298.293 221.868C298.477 221.94 298.649 222.04 298.809 222.168C298.977 222.288 299.117 222.44 299.229 222.624H299.253V219.432H300.273V228ZM302.767 224.952C302.767 225.24 302.803 225.524 302.875 225.804C302.955 226.076 303.071 226.32 303.223 226.536C303.383 226.752 303.583 226.924 303.823 227.052C304.071 227.18 304.359 227.244 304.687 227.244C305.031 227.244 305.323 227.176 305.563 227.04C305.803 226.904 305.999 226.728 306.151 226.512C306.303 226.288 306.411 226.036 306.475 225.756C306.547 225.476 306.583 225.192 306.583 224.904C306.583 224.6 306.547 224.308 306.475 224.028C306.403 223.74 306.287 223.488 306.127 223.272C305.975 223.056 305.775 222.884 305.527 222.756C305.279 222.62 304.979 222.552 304.627 222.552C304.283 222.552 303.991 222.62 303.751 222.756C303.511 222.892 303.319 223.072 303.175 223.296C303.031 223.52 302.927 223.776 302.863 224.064C302.799 224.352 302.767 224.648 302.767 224.952ZM307.567 228H306.547V227.16H306.523C306.355 227.504 306.091 227.752 305.731 227.904C305.371 228.056 304.975 228.132 304.543 228.132C304.063 228.132 303.643 228.044 303.283 227.868C302.931 227.692 302.635 227.456 302.395 227.16C302.163 226.864 301.987 226.52 301.867 226.128C301.747 225.736 301.687 225.32 301.687 224.88C301.687 224.44 301.743 224.024 301.855 223.632C301.975 223.24 302.151 222.9 302.383 222.612C302.623 222.316 302.919 222.084 303.271 221.916C303.631 221.74 304.047 221.652 304.519 221.652C304.679 221.652 304.851 221.668 305.035 221.7C305.219 221.732 305.403 221.788 305.587 221.868C305.771 221.94 305.943 222.04 306.103 222.168C306.271 222.288 306.411 222.44 306.523 222.624H306.547V219.432H307.567V228ZM310.396 220.68H309.376V219.432H310.396V220.68ZM309.376 221.796H310.396V228H309.376V221.796ZM313.572 221.796H314.808V222.696H313.572V226.548C313.572 226.668 313.58 226.764 313.596 226.836C313.62 226.908 313.66 226.964 313.716 227.004C313.772 227.044 313.848 227.072 313.944 227.088C314.048 227.096 314.18 227.1 314.34 227.1H314.808V228H314.028C313.764 228 313.536 227.984 313.344 227.952C313.16 227.912 313.008 227.844 312.888 227.748C312.776 227.652 312.692 227.516 312.636 227.34C312.58 227.164 312.552 226.932 312.552 226.644V222.696H311.496V221.796H312.552V219.936H313.572V221.796ZM317.201 220.68H316.181V219.432H317.201V220.68ZM316.181 221.796H317.201V228H316.181V221.796ZM319.705 224.904C319.705 225.28 319.753 225.616 319.849 225.912C319.953 226.2 320.093 226.444 320.269 226.644C320.445 226.836 320.649 226.984 320.881 227.088C321.121 227.192 321.373 227.244 321.637 227.244C321.901 227.244 322.149 227.192 322.381 227.088C322.621 226.984 322.829 226.836 323.005 226.644C323.181 226.444 323.317 226.2 323.413 225.912C323.517 225.616 323.569 225.28 323.569 224.904C323.569 224.528 323.517 224.196 323.413 223.908C323.317 223.612 323.181 223.364 323.005 223.164C322.829 222.964 322.621 222.812 322.381 222.708C322.149 222.604 321.901 222.552 321.637 222.552C321.373 222.552 321.121 222.604 320.881 222.708C320.649 222.812 320.445 222.964 320.269 223.164C320.093 223.364 319.953 223.612 319.849 223.908C319.753 224.196 319.705 224.528 319.705 224.904ZM318.625 224.904C318.625 224.448 318.689 224.024 318.817 223.632C318.945 223.232 319.137 222.888 319.393 222.6C319.649 222.304 319.965 222.072 320.341 221.904C320.717 221.736 321.149 221.652 321.637 221.652C322.133 221.652 322.565 221.736 322.933 221.904C323.309 222.072 323.625 222.304 323.881 222.6C324.137 222.888 324.329 223.232 324.457 223.632C324.585 224.024 324.649 224.448 324.649 224.904C324.649 225.36 324.585 225.784 324.457 226.176C324.329 226.568 324.137 226.912 323.881 227.208C323.625 227.496 323.309 227.724 322.933 227.892C322.565 228.052 322.133 228.132 321.637 228.132C321.149 228.132 320.717 228.052 320.341 227.892C319.965 227.724 319.649 227.496 319.393 227.208C319.137 226.912 318.945 226.568 318.817 226.176C318.689 225.784 318.625 225.36 318.625 224.904ZM326.032 221.796H326.992V222.78H327.016C327.44 222.028 328.112 221.652 329.032 221.652C329.44 221.652 329.78 221.708 330.052 221.82C330.324 221.932 330.544 222.088 330.712 222.288C330.88 222.488 330.996 222.728 331.06 223.008C331.132 223.28 331.168 223.584 331.168 223.92V228H330.148V223.8C330.148 223.416 330.036 223.112 329.812 222.888C329.588 222.664 329.28 222.552 328.888 222.552C328.576 222.552 328.304 222.6 328.072 222.696C327.848 222.792 327.66 222.928 327.508 223.104C327.356 223.28 327.24 223.488 327.16 223.728C327.088 223.96 327.052 224.216 327.052 224.496V228H326.032V221.796ZM338.376 227.976C338.2 228.08 337.956 228.132 337.644 228.132C337.38 228.132 337.168 228.06 337.008 227.916C336.856 227.764 336.78 227.52 336.78 227.184C336.5 227.52 336.172 227.764 335.796 227.916C335.428 228.06 335.028 228.132 334.596 228.132C334.316 228.132 334.048 228.1 333.792 228.036C333.544 227.972 333.328 227.872 333.144 227.736C332.96 227.6 332.812 227.424 332.7 227.208C332.596 226.984 332.544 226.716 332.544 226.404C332.544 226.052 332.604 225.764 332.724 225.54C332.844 225.316 333 225.136 333.192 225C333.392 224.856 333.616 224.748 333.864 224.676C334.12 224.604 334.38 224.544 334.644 224.496C334.924 224.44 335.188 224.4 335.436 224.376C335.692 224.344 335.916 224.304 336.108 224.256C336.3 224.2 336.452 224.124 336.564 224.028C336.676 223.924 336.732 223.776 336.732 223.584C336.732 223.36 336.688 223.18 336.6 223.044C336.52 222.908 336.412 222.804 336.276 222.732C336.148 222.66 336 222.612 335.832 222.588C335.672 222.564 335.512 222.552 335.352 222.552C334.92 222.552 334.56 222.636 334.272 222.804C333.984 222.964 333.828 223.272 333.804 223.728H332.784C332.8 223.344 332.88 223.02 333.024 222.756C333.168 222.492 333.36 222.28 333.6 222.12C333.84 221.952 334.112 221.832 334.416 221.76C334.728 221.688 335.06 221.652 335.412 221.652C335.692 221.652 335.968 221.672 336.24 221.712C336.52 221.752 336.772 221.836 336.996 221.964C337.22 222.084 337.4 222.256 337.536 222.48C337.672 222.704 337.74 222.996 337.74 223.356V226.548C337.74 226.788 337.752 226.964 337.776 227.076C337.808 227.188 337.904 227.244 338.064 227.244C338.152 227.244 338.256 227.224 338.376 227.184V227.976ZM336.72 224.796C336.592 224.892 336.424 224.964 336.216 225.012C336.008 225.052 335.788 225.088 335.556 225.12C335.332 225.144 335.104 225.176 334.872 225.216C334.64 225.248 334.432 225.304 334.248 225.384C334.064 225.464 333.912 225.58 333.792 225.732C333.68 225.876 333.624 226.076 333.624 226.332C333.624 226.5 333.656 226.644 333.72 226.764C333.792 226.876 333.88 226.968 333.984 227.04C334.096 227.112 334.224 227.164 334.368 227.196C334.512 227.228 334.664 227.244 334.824 227.244C335.16 227.244 335.448 227.2 335.688 227.112C335.928 227.016 336.124 226.9 336.276 226.764C336.428 226.62 336.54 226.468 336.612 226.308C336.684 226.14 336.72 225.984 336.72 225.84V224.796ZM339.565 219.432H340.585V228H339.565V219.432ZM350.077 223.788C349.997 223.396 349.829 223.092 349.573 222.876C349.317 222.66 348.973 222.552 348.541 222.552C348.173 222.552 347.865 222.62 347.617 222.756C347.369 222.892 347.169 223.072 347.017 223.296C346.873 223.52 346.769 223.78 346.705 224.076C346.641 224.364 346.609 224.664 346.609 224.976C346.609 225.264 346.641 225.544 346.705 225.816C346.777 226.088 346.885 226.332 347.029 226.548C347.173 226.756 347.361 226.924 347.593 227.052C347.825 227.18 348.101 227.244 348.421 227.244C348.925 227.244 349.317 227.112 349.597 226.848C349.885 226.584 350.061 226.212 350.125 225.732H351.169C351.057 226.5 350.769 227.092 350.305 227.508C349.849 227.924 349.225 228.132 348.433 228.132C347.961 228.132 347.541 228.056 347.173 227.904C346.813 227.752 346.509 227.536 346.261 227.256C346.021 226.976 345.837 226.644 345.709 226.26C345.589 225.868 345.529 225.44 345.529 224.976C345.529 224.512 345.589 224.08 345.709 223.68C345.829 223.272 346.009 222.92 346.249 222.624C346.497 222.32 346.805 222.084 347.173 221.916C347.541 221.74 347.969 221.652 348.457 221.652C348.809 221.652 349.137 221.696 349.441 221.784C349.753 221.864 350.025 221.992 350.257 222.168C350.497 222.344 350.693 222.568 350.845 222.84C350.997 223.104 351.093 223.42 351.133 223.788H350.077ZM353.235 224.904C353.235 225.28 353.283 225.616 353.379 225.912C353.483 226.2 353.623 226.444 353.799 226.644C353.975 226.836 354.179 226.984 354.411 227.088C354.651 227.192 354.903 227.244 355.167 227.244C355.431 227.244 355.679 227.192 355.911 227.088C356.151 226.984 356.359 226.836 356.535 226.644C356.711 226.444 356.847 226.2 356.943 225.912C357.047 225.616 357.099 225.28 357.099 224.904C357.099 224.528 357.047 224.196 356.943 223.908C356.847 223.612 356.711 223.364 356.535 223.164C356.359 222.964 356.151 222.812 355.911 222.708C355.679 222.604 355.431 222.552 355.167 222.552C354.903 222.552 354.651 222.604 354.411 222.708C354.179 222.812 353.975 222.964 353.799 223.164C353.623 223.364 353.483 223.612 353.379 223.908C353.283 224.196 353.235 224.528 353.235 224.904ZM352.155 224.904C352.155 224.448 352.219 224.024 352.347 223.632C352.475 223.232 352.667 222.888 352.923 222.6C353.179 222.304 353.495 222.072 353.871 221.904C354.247 221.736 354.679 221.652 355.167 221.652C355.663 221.652 356.095 221.736 356.463 221.904C356.839 222.072 357.155 222.304 357.411 222.6C357.667 222.888 357.859 223.232 357.987 223.632C358.115 224.024 358.179 224.448 358.179 224.904C358.179 225.36 358.115 225.784 357.987 226.176C357.859 226.568 357.667 226.912 357.411 227.208C357.155 227.496 356.839 227.724 356.463 227.892C356.095 228.052 355.663 228.132 355.167 228.132C354.679 228.132 354.247 228.052 353.871 227.892C353.495 227.724 353.179 227.496 352.923 227.208C352.667 226.912 352.475 226.568 352.347 226.176C352.219 225.784 352.155 225.36 352.155 224.904ZM359.561 221.796H360.521V222.708H360.545C361.009 222.004 361.677 221.652 362.549 221.652C362.933 221.652 363.281 221.732 363.593 221.892C363.905 222.052 364.125 222.324 364.253 222.708C364.461 222.372 364.733 222.112 365.069 221.928C365.413 221.744 365.789 221.652 366.197 221.652C366.509 221.652 366.789 221.688 367.037 221.76C367.293 221.824 367.509 221.928 367.685 222.072C367.869 222.216 368.009 222.404 368.105 222.636C368.209 222.86 368.261 223.132 368.261 223.452V228H367.241V223.932C367.241 223.74 367.225 223.56 367.193 223.392C367.161 223.224 367.101 223.08 367.013 222.96C366.925 222.832 366.801 222.732 366.641 222.66C366.489 222.588 366.289 222.552 366.041 222.552C365.537 222.552 365.141 222.696 364.853 222.984C364.565 223.272 364.421 223.656 364.421 224.136V228H363.401V223.932C363.401 223.732 363.381 223.548 363.341 223.38C363.309 223.212 363.249 223.068 363.161 222.948C363.073 222.82 362.953 222.724 362.801 222.66C362.657 222.588 362.469 222.552 362.237 222.552C361.941 222.552 361.685 222.612 361.469 222.732C361.261 222.852 361.089 222.996 360.953 223.164C360.825 223.332 360.729 223.508 360.665 223.692C360.609 223.868 360.581 224.016 360.581 224.136V228H359.561V221.796ZM369.972 221.796H370.932V222.708H370.956C371.42 222.004 372.088 221.652 372.96 221.652C373.344 221.652 373.692 221.732 374.004 221.892C374.316 222.052 374.536 222.324 374.664 222.708C374.872 222.372 375.144 222.112 375.48 221.928C375.824 221.744 376.2 221.652 376.608 221.652C376.92 221.652 377.2 221.688 377.448 221.76C377.704 221.824 377.92 221.928 378.096 222.072C378.28 222.216 378.42 222.404 378.516 222.636C378.62 222.86 378.672 223.132 378.672 223.452V228H377.652V223.932C377.652 223.74 377.636 223.56 377.604 223.392C377.572 223.224 377.512 223.08 377.424 222.96C377.336 222.832 377.212 222.732 377.052 222.66C376.9 222.588 376.7 222.552 376.452 222.552C375.948 222.552 375.552 222.696 375.264 222.984C374.976 223.272 374.832 223.656 374.832 224.136V228H373.812V223.932C373.812 223.732 373.792 223.548 373.752 223.38C373.72 223.212 373.66 223.068 373.572 222.948C373.484 222.82 373.364 222.724 373.212 222.66C373.068 222.588 372.88 222.552 372.648 222.552C372.352 222.552 372.096 222.612 371.88 222.732C371.672 222.852 371.5 222.996 371.364 223.164C371.236 223.332 371.14 223.508 371.076 223.692C371.02 223.868 370.992 224.016 370.992 224.136V228H369.972V221.796ZM384.69 224.304C384.674 224.064 384.618 223.836 384.522 223.62C384.434 223.404 384.31 223.22 384.15 223.068C383.998 222.908 383.814 222.784 383.598 222.696C383.39 222.6 383.158 222.552 382.902 222.552C382.638 222.552 382.398 222.6 382.182 222.696C381.974 222.784 381.794 222.908 381.642 223.068C381.49 223.228 381.37 223.416 381.282 223.632C381.194 223.84 381.142 224.064 381.126 224.304H384.69ZM385.674 226.032C385.538 226.728 385.238 227.252 384.774 227.604C384.31 227.956 383.726 228.132 383.022 228.132C382.526 228.132 382.094 228.052 381.726 227.892C381.366 227.732 381.062 227.508 380.814 227.22C380.566 226.932 380.378 226.588 380.25 226.188C380.13 225.788 380.062 225.352 380.046 224.88C380.046 224.408 380.118 223.976 380.262 223.584C380.406 223.192 380.606 222.852 380.862 222.564C381.126 222.276 381.434 222.052 381.786 221.892C382.146 221.732 382.538 221.652 382.962 221.652C383.514 221.652 383.97 221.768 384.33 222C384.698 222.224 384.99 222.512 385.206 222.864C385.43 223.216 385.582 223.6 385.662 224.016C385.75 224.432 385.786 224.828 385.77 225.204H381.126C381.118 225.476 381.15 225.736 381.222 225.984C381.294 226.224 381.41 226.44 381.57 226.632C381.73 226.816 381.934 226.964 382.182 227.076C382.43 227.188 382.722 227.244 383.058 227.244C383.49 227.244 383.842 227.144 384.114 226.944C384.394 226.744 384.578 226.44 384.666 226.032H385.674ZM387.007 221.796H387.967V222.78H387.991C388.415 222.028 389.087 221.652 390.007 221.652C390.415 221.652 390.755 221.708 391.027 221.82C391.299 221.932 391.519 222.088 391.687 222.288C391.855 222.488 391.971 222.728 392.035 223.008C392.107 223.28 392.143 223.584 392.143 223.92V228H391.123V223.8C391.123 223.416 391.011 223.112 390.787 222.888C390.563 222.664 390.255 222.552 389.863 222.552C389.551 222.552 389.279 222.6 389.047 222.696C388.823 222.792 388.635 222.928 388.483 223.104C388.331 223.28 388.215 223.488 388.135 223.728C388.063 223.96 388.027 224.216 388.027 224.496V228H387.007V221.796ZM395.271 221.796H396.507V222.696H395.271V226.548C395.271 226.668 395.279 226.764 395.295 226.836C395.319 226.908 395.359 226.964 395.415 227.004C395.471 227.044 395.547 227.072 395.643 227.088C395.747 227.096 395.879 227.1 396.039 227.1H396.507V228H395.727C395.463 228 395.235 227.984 395.043 227.952C394.859 227.912 394.707 227.844 394.587 227.748C394.475 227.652 394.391 227.516 394.335 227.34C394.279 227.164 394.251 226.932 394.251 226.644V222.696H393.195V221.796H394.251V219.936H395.271V221.796ZM398.444 226.044C398.452 226.268 398.504 226.46 398.6 226.62C398.696 226.772 398.82 226.896 398.972 226.992C399.132 227.08 399.308 227.144 399.5 227.184C399.7 227.224 399.904 227.244 400.112 227.244C400.272 227.244 400.44 227.232 400.616 227.208C400.792 227.184 400.952 227.14 401.096 227.076C401.248 227.012 401.372 226.92 401.468 226.8C401.564 226.672 401.612 226.512 401.612 226.32C401.612 226.056 401.512 225.856 401.312 225.72C401.112 225.584 400.86 225.476 400.556 225.396C400.26 225.308 399.936 225.232 399.584 225.168C399.232 225.096 398.904 225 398.6 224.88C398.304 224.752 398.056 224.576 397.856 224.352C397.656 224.128 397.556 223.816 397.556 223.416C397.556 223.104 397.624 222.836 397.76 222.612C397.904 222.388 398.084 222.208 398.3 222.072C398.524 221.928 398.772 221.824 399.044 221.76C399.324 221.688 399.6 221.652 399.872 221.652C400.224 221.652 400.548 221.684 400.844 221.748C401.14 221.804 401.4 221.908 401.624 222.06C401.856 222.204 402.04 222.404 402.176 222.66C402.312 222.908 402.392 223.22 402.416 223.596H401.396C401.38 223.396 401.328 223.232 401.24 223.104C401.152 222.968 401.04 222.86 400.904 222.78C400.768 222.7 400.616 222.644 400.448 222.612C400.288 222.572 400.124 222.552 399.956 222.552C399.804 222.552 399.648 222.564 399.488 222.588C399.336 222.612 399.196 222.656 399.068 222.72C398.94 222.776 398.836 222.856 398.756 222.96C398.676 223.056 398.636 223.184 398.636 223.344C398.636 223.52 398.696 223.668 398.816 223.788C398.944 223.9 399.104 223.996 399.296 224.076C399.488 224.148 399.704 224.212 399.944 224.268C400.184 224.316 400.424 224.368 400.664 224.424C400.92 224.48 401.168 224.548 401.408 224.628C401.656 224.708 401.872 224.816 402.056 224.952C402.248 225.08 402.4 225.244 402.512 225.444C402.632 225.644 402.692 225.892 402.692 226.188C402.692 226.564 402.612 226.876 402.452 227.124C402.3 227.372 402.096 227.572 401.84 227.724C401.592 227.876 401.308 227.98 400.988 228.036C400.676 228.1 400.364 228.132 400.052 228.132C399.708 228.132 399.38 228.096 399.068 228.024C398.756 227.952 398.48 227.836 398.24 227.676C398 227.508 397.808 227.292 397.664 227.028C397.52 226.756 397.44 226.428 397.424 226.044H398.444Z" fill="black" fill-opacity="0.68"/>
</svg>
