<svg width="600" height="385" viewBox="0 0 600 385" fill="none" xmlns="http://www.w3.org/2000/svg">
<rect width="600" height="385" fill="black" fill-opacity="0.04"/>
<path d="M179.34 79.856H175.532V78.576H184.668V79.856H180.86V90H179.34V79.856ZM189.674 85.072C189.653 84.752 189.578 84.448 189.45 84.16C189.333 83.872 189.168 83.6267 188.954 83.424C188.752 83.2107 188.506 83.0453 188.218 82.928C187.941 82.8 187.632 82.736 187.29 82.736C186.938 82.736 186.618 82.8 186.33 82.928C186.053 83.0453 185.813 83.2107 185.61 83.424C185.408 83.6373 185.248 83.888 185.13 84.176C185.013 84.4533 184.944 84.752 184.922 85.072H189.674ZM190.986 87.376C190.805 88.304 190.405 89.0027 189.786 89.472C189.168 89.9413 188.389 90.176 187.45 90.176C186.789 90.176 186.213 90.0693 185.722 89.856C185.242 89.6427 184.837 89.344 184.506 88.96C184.176 88.576 183.925 88.1173 183.754 87.584C183.594 87.0507 183.504 86.4693 183.482 85.84C183.482 85.2107 183.578 84.6347 183.77 84.112C183.962 83.5893 184.229 83.136 184.57 82.752C184.922 82.368 185.333 82.0693 185.802 81.856C186.282 81.6427 186.805 81.536 187.37 81.536C188.106 81.536 188.714 81.6907 189.194 82C189.685 82.2987 190.074 82.6827 190.362 83.152C190.661 83.6213 190.864 84.1333 190.97 84.688C191.088 85.2427 191.136 85.7707 191.114 86.272H184.922C184.912 86.6347 184.954 86.9813 185.05 87.312C185.146 87.632 185.301 87.92 185.514 88.176C185.728 88.4213 186 88.6187 186.33 88.768C186.661 88.9173 187.05 88.992 187.498 88.992C188.074 88.992 188.544 88.8587 188.906 88.592C189.28 88.3253 189.525 87.92 189.642 87.376H190.986ZM194.748 85.648L191.868 81.728H193.612L195.596 84.624L197.66 81.728H199.292L196.444 85.536L199.644 90H197.9L195.596 86.576L193.292 90H191.644L194.748 85.648ZM202.693 81.728H204.341V82.928H202.693V88.064C202.693 88.224 202.704 88.352 202.725 88.448C202.757 88.544 202.811 88.6187 202.885 88.672C202.96 88.7253 203.061 88.7627 203.189 88.784C203.328 88.7947 203.504 88.8 203.717 88.8H204.341V90H203.301C202.949 90 202.645 89.9787 202.389 89.936C202.144 89.8827 201.941 89.792 201.781 89.664C201.632 89.536 201.52 89.3547 201.445 89.12C201.371 88.8853 201.333 88.576 201.333 88.192V82.928H199.925V81.728H201.333V79.248H202.693V81.728ZM214.625 85.408H218.113V86.496H214.625V90H213.537V86.496H210.049V85.408H213.537V81.904H214.625V85.408ZM224.64 78.576H226.16V90H224.64V78.576ZM234.109 84.384C234.002 83.8613 233.778 83.456 233.437 83.168C233.095 82.88 232.637 82.736 232.061 82.736C231.57 82.736 231.159 82.8267 230.829 83.008C230.498 83.1893 230.231 83.4293 230.029 83.728C229.837 84.0267 229.698 84.3733 229.613 84.768C229.527 85.152 229.485 85.552 229.485 85.968C229.485 86.352 229.527 86.7253 229.613 87.088C229.709 87.4507 229.853 87.776 230.045 88.064C230.237 88.3413 230.487 88.5653 230.797 88.736C231.106 88.9067 231.474 88.992 231.901 88.992C232.573 88.992 233.095 88.816 233.469 88.464C233.853 88.112 234.087 87.616 234.173 86.976H235.565C235.415 88 235.031 88.7893 234.413 89.344C233.805 89.8987 232.973 90.176 231.917 90.176C231.287 90.176 230.727 90.0747 230.237 89.872C229.757 89.6693 229.351 89.3813 229.021 89.008C228.701 88.6347 228.455 88.192 228.285 87.68C228.125 87.1573 228.045 86.5867 228.045 85.968C228.045 85.3493 228.125 84.7733 228.285 84.24C228.445 83.696 228.685 83.2267 229.005 82.832C229.335 82.4267 229.746 82.112 230.237 81.888C230.727 81.6533 231.298 81.536 231.949 81.536C232.418 81.536 232.855 81.5947 233.261 81.712C233.677 81.8187 234.039 81.9893 234.349 82.224C234.669 82.4587 234.93 82.7573 235.133 83.12C235.335 83.472 235.463 83.8933 235.517 84.384H234.109ZM238.079 85.872C238.079 86.3733 238.143 86.8213 238.271 87.216C238.409 87.6 238.596 87.9253 238.831 88.192C239.065 88.448 239.337 88.6453 239.647 88.784C239.967 88.9227 240.303 88.992 240.655 88.992C241.007 88.992 241.337 88.9227 241.647 88.784C241.967 88.6453 242.244 88.448 242.479 88.192C242.713 87.9253 242.895 87.6 243.023 87.216C243.161 86.8213 243.231 86.3733 243.231 85.872C243.231 85.3707 243.161 84.928 243.023 84.544C242.895 84.1493 242.713 83.8187 242.479 83.552C242.244 83.2853 241.967 83.0827 241.647 82.944C241.337 82.8053 241.007 82.736 240.655 82.736C240.303 82.736 239.967 82.8053 239.647 82.944C239.337 83.0827 239.065 83.2853 238.831 83.552C238.596 83.8187 238.409 84.1493 238.271 84.544C238.143 84.928 238.079 85.3707 238.079 85.872ZM236.639 85.872C236.639 85.264 236.724 84.6987 236.895 84.176C237.065 83.6427 237.321 83.184 237.663 82.8C238.004 82.4053 238.425 82.096 238.927 81.872C239.428 81.648 240.004 81.536 240.655 81.536C241.316 81.536 241.892 81.648 242.383 81.872C242.884 82.096 243.305 82.4053 243.647 82.8C243.988 83.184 244.244 83.6427 244.415 84.176C244.585 84.6987 244.671 85.264 244.671 85.872C244.671 86.48 244.585 87.0453 244.415 87.568C244.244 88.0907 243.988 88.5493 243.647 88.944C243.305 89.328 242.884 89.632 242.383 89.856C241.892 90.0693 241.316 90.176 240.655 90.176C240.004 90.176 239.428 90.0693 238.927 89.856C238.425 89.632 238.004 89.328 237.663 88.944C237.321 88.5493 237.065 88.0907 236.895 87.568C236.724 87.0453 236.639 86.48 236.639 85.872ZM246.274 81.728H247.554V83.04H247.586C248.151 82.0373 249.047 81.536 250.274 81.536C250.818 81.536 251.271 81.6107 251.634 81.76C251.997 81.9093 252.29 82.1173 252.514 82.384C252.738 82.6507 252.893 82.9707 252.978 83.344C253.074 83.7067 253.122 84.112 253.122 84.56V90H251.762V84.4C251.762 83.888 251.613 83.4827 251.314 83.184C251.015 82.8853 250.605 82.736 250.082 82.736C249.666 82.736 249.303 82.8 248.994 82.928C248.695 83.056 248.445 83.2373 248.242 83.472C248.039 83.7067 247.885 83.984 247.778 84.304C247.682 84.6133 247.634 84.9547 247.634 85.328V90H246.274V81.728Z" fill="black" fill-opacity="0.68"/>
<mask id="path-2-inside-1_60056_7295" fill="white">
<path d="M311.5 84.5C311.5 75.6634 318.663 68.5 327.5 68.5H396.5C405.337 68.5 412.5 75.6634 412.5 84.5C412.5 93.3366 405.337 100.5 396.5 100.5H327.5C318.663 100.5 311.5 93.3366 311.5 84.5Z"/>
</mask>
<path d="M327.5 68.5V70.5H396.5V68.5V66.5H327.5V68.5ZM396.5 100.5V98.5H327.5V100.5V102.5H396.5V100.5ZM327.5 100.5V98.5C319.768 98.5 313.5 92.232 313.5 84.5H311.5H309.5C309.5 94.4411 317.559 102.5 327.5 102.5V100.5ZM412.5 84.5H410.5C410.5 92.232 404.232 98.5 396.5 98.5V100.5V102.5C406.441 102.5 414.5 94.4411 414.5 84.5H412.5ZM396.5 68.5V70.5C404.232 70.5 410.5 76.768 410.5 84.5H412.5H414.5C414.5 74.5589 406.441 66.5 396.5 66.5V68.5ZM327.5 68.5V66.5C317.559 66.5 309.5 74.5589 309.5 84.5H311.5H313.5C313.5 76.768 319.768 70.5 327.5 70.5V68.5Z" fill="#F15E00" mask="url(#path-2-inside-1_60056_7295)"/>
<path fill-rule="evenodd" clip-rule="evenodd" d="M334.792 81.5466L328.723 88.5466C328.549 88.7468 328.282 88.875 327.983 88.875C327.683 88.875 327.416 88.7467 327.242 88.5465L324.208 85.0466C324.078 84.8968 324 84.7068 324 84.5C324 84.2584 324.106 84.0396 324.278 83.8813L324.657 83.5313C324.829 83.3729 325.066 83.275 325.328 83.275C325.563 83.275 325.779 83.3545 325.945 83.4858L327.793 85.375L333.403 80.3617C333.573 80.2149 333.801 80.125 334.052 80.125C334.575 80.125 335 80.5168 335 81C335 81.2068 334.922 81.3968 334.792 81.5466Z" fill="#F15E00"/>
<path d="M344.947 79.504H346.697V87.988H351.779V89.5H344.947V79.504ZM358.999 87.89C358.999 88.086 359.023 88.226 359.069 88.31C359.125 88.394 359.228 88.436 359.377 88.436C359.424 88.436 359.48 88.436 359.545 88.436C359.611 88.436 359.685 88.4267 359.769 88.408V89.514C359.713 89.5327 359.639 89.5513 359.545 89.57C359.461 89.598 359.373 89.6213 359.279 89.64C359.186 89.6587 359.093 89.6727 358.999 89.682C358.906 89.6913 358.827 89.696 358.761 89.696C358.435 89.696 358.164 89.6307 357.949 89.5C357.735 89.3693 357.595 89.1407 357.529 88.814C357.212 89.122 356.82 89.346 356.353 89.486C355.896 89.626 355.453 89.696 355.023 89.696C354.697 89.696 354.384 89.6493 354.085 89.556C353.787 89.472 353.521 89.346 353.287 89.178C353.063 89.0007 352.881 88.7813 352.741 88.52C352.611 88.2493 352.545 87.9367 352.545 87.582C352.545 87.134 352.625 86.77 352.783 86.49C352.951 86.21 353.166 85.9907 353.427 85.832C353.698 85.6733 353.997 85.5613 354.323 85.496C354.659 85.4213 354.995 85.3653 355.331 85.328C355.621 85.272 355.896 85.2347 356.157 85.216C356.419 85.188 356.647 85.146 356.843 85.09C357.049 85.034 357.207 84.95 357.319 84.838C357.441 84.7167 357.501 84.5393 357.501 84.306C357.501 84.1007 357.45 83.9327 357.347 83.802C357.254 83.6713 357.133 83.5733 356.983 83.508C356.843 83.4333 356.685 83.3867 356.507 83.368C356.33 83.34 356.162 83.326 356.003 83.326C355.555 83.326 355.187 83.4193 354.897 83.606C354.608 83.7927 354.445 84.082 354.407 84.474H352.811C352.839 84.0073 352.951 83.62 353.147 83.312C353.343 83.004 353.591 82.7567 353.889 82.57C354.197 82.3833 354.543 82.2527 354.925 82.178C355.308 82.1033 355.7 82.066 356.101 82.066C356.456 82.066 356.806 82.1033 357.151 82.178C357.497 82.2527 357.805 82.374 358.075 82.542C358.355 82.71 358.579 82.9293 358.747 83.2C358.915 83.4613 358.999 83.7833 358.999 84.166V87.89ZM357.403 85.874C357.161 86.0327 356.862 86.1307 356.507 86.168C356.153 86.196 355.798 86.2427 355.443 86.308C355.275 86.336 355.112 86.378 354.953 86.434C354.795 86.4807 354.655 86.5507 354.533 86.644C354.412 86.728 354.314 86.8447 354.239 86.994C354.174 87.134 354.141 87.3067 354.141 87.512C354.141 87.6893 354.193 87.8387 354.295 87.96C354.398 88.0813 354.519 88.1793 354.659 88.254C354.809 88.3193 354.967 88.366 355.135 88.394C355.313 88.422 355.471 88.436 355.611 88.436C355.789 88.436 355.98 88.4127 356.185 88.366C356.391 88.3193 356.582 88.24 356.759 88.128C356.946 88.016 357.1 87.876 357.221 87.708C357.343 87.5307 357.403 87.316 357.403 87.064V85.874ZM360.934 79.504H362.53V83.2H362.558C362.67 83.0227 362.805 82.864 362.964 82.724C363.122 82.584 363.295 82.4673 363.482 82.374C363.678 82.2713 363.878 82.1967 364.084 82.15C364.298 82.094 364.508 82.066 364.714 82.066C365.283 82.066 365.778 82.1687 366.198 82.374C366.627 82.57 366.982 82.8453 367.262 83.2C367.542 83.5453 367.752 83.9513 367.892 84.418C368.032 84.8847 368.102 85.384 368.102 85.916C368.102 86.4013 368.036 86.8727 367.906 87.33C367.784 87.7873 367.593 88.1933 367.332 88.548C367.08 88.8933 366.758 89.1733 366.366 89.388C365.974 89.5933 365.512 89.696 364.98 89.696C364.737 89.696 364.49 89.6773 364.238 89.64C363.995 89.612 363.762 89.5513 363.538 89.458C363.314 89.3647 363.108 89.2433 362.922 89.094C362.744 88.9447 362.595 88.7487 362.474 88.506H362.446V89.5H360.934V79.504ZM366.506 85.888C366.506 85.5613 366.464 85.244 366.38 84.936C366.296 84.628 366.17 84.3573 366.002 84.124C365.834 83.8813 365.624 83.69 365.372 83.55C365.12 83.4007 364.83 83.326 364.504 83.326C363.832 83.326 363.323 83.5593 362.978 84.026C362.642 84.4927 362.474 85.1133 362.474 85.888C362.474 86.252 362.516 86.5927 362.6 86.91C362.693 87.218 362.828 87.484 363.006 87.708C363.183 87.932 363.393 88.1093 363.636 88.24C363.888 88.3707 364.177 88.436 364.504 88.436C364.868 88.436 365.176 88.3613 365.428 88.212C365.68 88.0627 365.885 87.8713 366.044 87.638C366.212 87.3953 366.328 87.1247 366.394 86.826C366.468 86.518 366.506 86.2053 366.506 85.888ZM374.595 85.244C374.577 84.992 374.521 84.7493 374.427 84.516C374.343 84.2827 374.222 84.082 374.063 83.914C373.914 83.7367 373.727 83.5967 373.503 83.494C373.289 83.382 373.046 83.326 372.775 83.326C372.495 83.326 372.239 83.3773 372.005 83.48C371.781 83.5733 371.585 83.7087 371.417 83.886C371.259 84.054 371.128 84.2547 371.025 84.488C370.932 84.7213 370.881 84.9733 370.871 85.244H374.595ZM370.871 86.294C370.871 86.574 370.909 86.8447 370.983 87.106C371.067 87.3673 371.189 87.596 371.347 87.792C371.506 87.988 371.707 88.1467 371.949 88.268C372.192 88.38 372.481 88.436 372.817 88.436C373.284 88.436 373.657 88.338 373.937 88.142C374.227 87.9367 374.441 87.6333 374.581 87.232H376.093C376.009 87.624 375.865 87.974 375.659 88.282C375.454 88.59 375.207 88.8513 374.917 89.066C374.628 89.2713 374.301 89.4253 373.937 89.528C373.583 89.64 373.209 89.696 372.817 89.696C372.248 89.696 371.744 89.6027 371.305 89.416C370.867 89.2293 370.493 88.968 370.185 88.632C369.887 88.296 369.658 87.8947 369.499 87.428C369.35 86.9613 369.275 86.448 369.275 85.888C369.275 85.3747 369.355 84.8893 369.513 84.432C369.681 83.9653 369.915 83.5593 370.213 83.214C370.521 82.8593 370.89 82.5793 371.319 82.374C371.749 82.1687 372.234 82.066 372.775 82.066C373.345 82.066 373.853 82.1873 374.301 82.43C374.759 82.6633 375.137 82.976 375.435 83.368C375.734 83.76 375.949 84.2127 376.079 84.726C376.219 85.23 376.257 85.7527 376.191 86.294H370.871ZM377.622 79.504H379.218V89.5H377.622V79.504Z" fill="black"/>
<path fill-rule="evenodd" clip-rule="evenodd" d="M398.767 83.9946L394.5 88.6643L390.233 83.9946L390.231 83.9923C389.405 83.086 389.479 81.6895 390.396 80.8731C391.28 80.0867 392.632 80.1213 393.473 80.9523C393.475 80.9546 393.477 80.9568 393.479 80.9589L394.132 81.5718L394.5 81.9219L394.868 81.572L395.521 80.9589C395.523 80.9568 395.525 80.9546 395.527 80.9523C395.946 80.5367 396.515 80.304 397.108 80.3055C398.342 80.3055 399.343 81.2941 399.343 82.514C399.343 83.06 399.139 83.5867 398.769 83.9923L398.767 83.9946ZM399.742 79.9113C398.296 78.4823 395.957 78.4741 394.5 79.8857C393.043 78.4741 390.704 78.4823 389.258 79.9113C387.827 81.3254 387.803 83.6037 389.188 85.046L394.5 90.8333L399.812 85.046C401.197 83.6037 401.173 81.3254 399.742 79.9113Z" fill="black"/>
<path d="M179.34 187.856H175.532V186.576H184.668V187.856H180.86V198H179.34V187.856ZM189.674 193.072C189.653 192.752 189.578 192.448 189.45 192.16C189.333 191.872 189.168 191.627 188.954 191.424C188.752 191.211 188.506 191.045 188.218 190.928C187.941 190.8 187.632 190.736 187.29 190.736C186.938 190.736 186.618 190.8 186.33 190.928C186.053 191.045 185.813 191.211 185.61 191.424C185.408 191.637 185.248 191.888 185.13 192.176C185.013 192.453 184.944 192.752 184.922 193.072H189.674ZM190.986 195.376C190.805 196.304 190.405 197.003 189.786 197.472C189.168 197.941 188.389 198.176 187.45 198.176C186.789 198.176 186.213 198.069 185.722 197.856C185.242 197.643 184.837 197.344 184.506 196.96C184.176 196.576 183.925 196.117 183.754 195.584C183.594 195.051 183.504 194.469 183.482 193.84C183.482 193.211 183.578 192.635 183.77 192.112C183.962 191.589 184.229 191.136 184.57 190.752C184.922 190.368 185.333 190.069 185.802 189.856C186.282 189.643 186.805 189.536 187.37 189.536C188.106 189.536 188.714 189.691 189.194 190C189.685 190.299 190.074 190.683 190.362 191.152C190.661 191.621 190.864 192.133 190.97 192.688C191.088 193.243 191.136 193.771 191.114 194.272H184.922C184.912 194.635 184.954 194.981 185.05 195.312C185.146 195.632 185.301 195.92 185.514 196.176C185.728 196.421 186 196.619 186.33 196.768C186.661 196.917 187.05 196.992 187.498 196.992C188.074 196.992 188.544 196.859 188.906 196.592C189.28 196.325 189.525 195.92 189.642 195.376H190.986ZM194.748 193.648L191.868 189.728H193.612L195.596 192.624L197.66 189.728H199.292L196.444 193.536L199.644 198H197.9L195.596 194.576L193.292 198H191.644L194.748 193.648ZM202.693 189.728H204.341V190.928H202.693V196.064C202.693 196.224 202.704 196.352 202.725 196.448C202.757 196.544 202.811 196.619 202.885 196.672C202.96 196.725 203.061 196.763 203.189 196.784C203.328 196.795 203.504 196.8 203.717 196.8H204.341V198H203.301C202.949 198 202.645 197.979 202.389 197.936C202.144 197.883 201.941 197.792 201.781 197.664C201.632 197.536 201.52 197.355 201.445 197.12C201.371 196.885 201.333 196.576 201.333 196.192V190.928H199.925V189.728H201.333V187.248H202.693V189.728ZM211.297 193.872C211.297 194.373 211.361 194.821 211.489 195.216C211.628 195.6 211.815 195.925 212.049 196.192C212.284 196.448 212.556 196.645 212.865 196.784C213.185 196.923 213.521 196.992 213.873 196.992C214.225 196.992 214.556 196.923 214.865 196.784C215.185 196.645 215.463 196.448 215.697 196.192C215.932 195.925 216.113 195.6 216.241 195.216C216.38 194.821 216.449 194.373 216.449 193.872C216.449 193.371 216.38 192.928 216.241 192.544C216.113 192.149 215.932 191.819 215.697 191.552C215.463 191.285 215.185 191.083 214.865 190.944C214.556 190.805 214.225 190.736 213.873 190.736C213.521 190.736 213.185 190.805 212.865 190.944C212.556 191.083 212.284 191.285 212.049 191.552C211.815 191.819 211.628 192.149 211.489 192.544C211.361 192.928 211.297 193.371 211.297 193.872ZM209.857 193.872C209.857 193.264 209.943 192.699 210.113 192.176C210.284 191.643 210.54 191.184 210.881 190.8C211.223 190.405 211.644 190.096 212.145 189.872C212.647 189.648 213.223 189.536 213.873 189.536C214.535 189.536 215.111 189.648 215.601 189.872C216.103 190.096 216.524 190.405 216.865 190.8C217.207 191.184 217.463 191.643 217.633 192.176C217.804 192.699 217.889 193.264 217.889 193.872C217.889 194.48 217.804 195.045 217.633 195.568C217.463 196.091 217.207 196.549 216.865 196.944C216.524 197.328 216.103 197.632 215.601 197.856C215.111 198.069 214.535 198.176 213.873 198.176C213.223 198.176 212.647 198.069 212.145 197.856C211.644 197.632 211.223 197.328 210.881 196.944C210.54 196.549 210.284 196.091 210.113 195.568C209.943 195.045 209.857 194.48 209.857 193.872ZM219.493 189.728H220.773V191.04H220.805C221.37 190.037 222.266 189.536 223.493 189.536C224.037 189.536 224.49 189.611 224.853 189.76C225.215 189.909 225.509 190.117 225.733 190.384C225.957 190.651 226.111 190.971 226.197 191.344C226.293 191.707 226.341 192.112 226.341 192.56V198H224.981V192.4C224.981 191.888 224.831 191.483 224.533 191.184C224.234 190.885 223.823 190.736 223.301 190.736C222.885 190.736 222.522 190.8 222.213 190.928C221.914 191.056 221.663 191.237 221.461 191.472C221.258 191.707 221.103 191.984 220.997 192.304C220.901 192.613 220.853 192.955 220.853 193.328V198H219.493V189.728ZM228.463 186.576H229.823V198H228.463V186.576ZM235.178 199.104C235.018 199.509 234.858 199.851 234.698 200.128C234.549 200.405 234.378 200.629 234.186 200.8C234.005 200.981 233.797 201.109 233.562 201.184C233.338 201.269 233.077 201.312 232.778 201.312C232.618 201.312 232.458 201.301 232.298 201.28C232.138 201.259 231.984 201.221 231.834 201.168V199.92C231.952 199.973 232.085 200.016 232.234 200.048C232.394 200.091 232.528 200.112 232.634 200.112C232.912 200.112 233.141 200.043 233.322 199.904C233.514 199.776 233.658 199.589 233.754 199.344L234.314 197.952L231.034 189.728H232.57L234.986 196.496H235.018L237.338 189.728H238.778L235.178 199.104Z" fill="black" fill-opacity="0.68"/>
<mask id="path-9-inside-2_60056_7295" fill="white">
<path d="M311.5 192.5C311.5 183.663 318.663 176.5 327.5 176.5H380.5C389.337 176.5 396.5 183.663 396.5 192.5C396.5 201.337 389.337 208.5 380.5 208.5H327.5C318.663 208.5 311.5 201.337 311.5 192.5Z"/>
</mask>
<path d="M327.5 176.5V178.5H380.5V176.5V174.5H327.5V176.5ZM380.5 208.5V206.5H327.5V208.5V210.5H380.5V208.5ZM327.5 208.5V206.5C319.768 206.5 313.5 200.232 313.5 192.5H311.5H309.5C309.5 202.441 317.559 210.5 327.5 210.5V208.5ZM396.5 192.5H394.5C394.5 200.232 388.232 206.5 380.5 206.5V208.5V210.5C390.441 210.5 398.5 202.441 398.5 192.5H396.5ZM380.5 176.5V178.5C388.232 178.5 394.5 184.768 394.5 192.5H396.5H398.5C398.5 182.559 390.441 174.5 380.5 174.5V176.5ZM327.5 176.5V174.5C317.559 174.5 309.5 182.559 309.5 192.5H311.5H313.5C313.5 184.768 319.768 178.5 327.5 178.5V176.5Z" fill="#F15E00" mask="url(#path-9-inside-2_60056_7295)"/>
<path fill-rule="evenodd" clip-rule="evenodd" d="M334.792 189.547L328.723 196.547C328.549 196.747 328.282 196.875 327.983 196.875C327.683 196.875 327.416 196.747 327.242 196.547L324.208 193.047C324.078 192.897 324 192.707 324 192.5C324 192.258 324.106 192.04 324.278 191.881L324.657 191.531C324.829 191.373 325.066 191.275 325.328 191.275C325.563 191.275 325.779 191.355 325.945 191.486L327.793 193.375L333.403 188.362C333.573 188.215 333.801 188.125 334.052 188.125C334.575 188.125 335 188.517 335 189C335 189.207 334.922 189.397 334.792 189.547Z" fill="#F15E00"/>
<path d="M344.947 187.504H346.697V195.988H351.779V197.5H344.947V187.504ZM358.999 195.89C358.999 196.086 359.023 196.226 359.069 196.31C359.125 196.394 359.228 196.436 359.377 196.436C359.424 196.436 359.48 196.436 359.545 196.436C359.611 196.436 359.685 196.427 359.769 196.408V197.514C359.713 197.533 359.639 197.551 359.545 197.57C359.461 197.598 359.373 197.621 359.279 197.64C359.186 197.659 359.093 197.673 358.999 197.682C358.906 197.691 358.827 197.696 358.761 197.696C358.435 197.696 358.164 197.631 357.949 197.5C357.735 197.369 357.595 197.141 357.529 196.814C357.212 197.122 356.82 197.346 356.353 197.486C355.896 197.626 355.453 197.696 355.023 197.696C354.697 197.696 354.384 197.649 354.085 197.556C353.787 197.472 353.521 197.346 353.287 197.178C353.063 197.001 352.881 196.781 352.741 196.52C352.611 196.249 352.545 195.937 352.545 195.582C352.545 195.134 352.625 194.77 352.783 194.49C352.951 194.21 353.166 193.991 353.427 193.832C353.698 193.673 353.997 193.561 354.323 193.496C354.659 193.421 354.995 193.365 355.331 193.328C355.621 193.272 355.896 193.235 356.157 193.216C356.419 193.188 356.647 193.146 356.843 193.09C357.049 193.034 357.207 192.95 357.319 192.838C357.441 192.717 357.501 192.539 357.501 192.306C357.501 192.101 357.45 191.933 357.347 191.802C357.254 191.671 357.133 191.573 356.983 191.508C356.843 191.433 356.685 191.387 356.507 191.368C356.33 191.34 356.162 191.326 356.003 191.326C355.555 191.326 355.187 191.419 354.897 191.606C354.608 191.793 354.445 192.082 354.407 192.474H352.811C352.839 192.007 352.951 191.62 353.147 191.312C353.343 191.004 353.591 190.757 353.889 190.57C354.197 190.383 354.543 190.253 354.925 190.178C355.308 190.103 355.7 190.066 356.101 190.066C356.456 190.066 356.806 190.103 357.151 190.178C357.497 190.253 357.805 190.374 358.075 190.542C358.355 190.71 358.579 190.929 358.747 191.2C358.915 191.461 358.999 191.783 358.999 192.166V195.89ZM357.403 193.874C357.161 194.033 356.862 194.131 356.507 194.168C356.153 194.196 355.798 194.243 355.443 194.308C355.275 194.336 355.112 194.378 354.953 194.434C354.795 194.481 354.655 194.551 354.533 194.644C354.412 194.728 354.314 194.845 354.239 194.994C354.174 195.134 354.141 195.307 354.141 195.512C354.141 195.689 354.193 195.839 354.295 195.96C354.398 196.081 354.519 196.179 354.659 196.254C354.809 196.319 354.967 196.366 355.135 196.394C355.313 196.422 355.471 196.436 355.611 196.436C355.789 196.436 355.98 196.413 356.185 196.366C356.391 196.319 356.582 196.24 356.759 196.128C356.946 196.016 357.1 195.876 357.221 195.708C357.343 195.531 357.403 195.316 357.403 195.064V193.874ZM360.934 187.504H362.53V191.2H362.558C362.67 191.023 362.805 190.864 362.964 190.724C363.122 190.584 363.295 190.467 363.482 190.374C363.678 190.271 363.878 190.197 364.084 190.15C364.298 190.094 364.508 190.066 364.714 190.066C365.283 190.066 365.778 190.169 366.198 190.374C366.627 190.57 366.982 190.845 367.262 191.2C367.542 191.545 367.752 191.951 367.892 192.418C368.032 192.885 368.102 193.384 368.102 193.916C368.102 194.401 368.036 194.873 367.906 195.33C367.784 195.787 367.593 196.193 367.332 196.548C367.08 196.893 366.758 197.173 366.366 197.388C365.974 197.593 365.512 197.696 364.98 197.696C364.737 197.696 364.49 197.677 364.238 197.64C363.995 197.612 363.762 197.551 363.538 197.458C363.314 197.365 363.108 197.243 362.922 197.094C362.744 196.945 362.595 196.749 362.474 196.506H362.446V197.5H360.934V187.504ZM366.506 193.888C366.506 193.561 366.464 193.244 366.38 192.936C366.296 192.628 366.17 192.357 366.002 192.124C365.834 191.881 365.624 191.69 365.372 191.55C365.12 191.401 364.83 191.326 364.504 191.326C363.832 191.326 363.323 191.559 362.978 192.026C362.642 192.493 362.474 193.113 362.474 193.888C362.474 194.252 362.516 194.593 362.6 194.91C362.693 195.218 362.828 195.484 363.006 195.708C363.183 195.932 363.393 196.109 363.636 196.24C363.888 196.371 364.177 196.436 364.504 196.436C364.868 196.436 365.176 196.361 365.428 196.212C365.68 196.063 365.885 195.871 366.044 195.638C366.212 195.395 366.328 195.125 366.394 194.826C366.468 194.518 366.506 194.205 366.506 193.888ZM374.595 193.244C374.577 192.992 374.521 192.749 374.427 192.516C374.343 192.283 374.222 192.082 374.063 191.914C373.914 191.737 373.727 191.597 373.503 191.494C373.289 191.382 373.046 191.326 372.775 191.326C372.495 191.326 372.239 191.377 372.005 191.48C371.781 191.573 371.585 191.709 371.417 191.886C371.259 192.054 371.128 192.255 371.025 192.488C370.932 192.721 370.881 192.973 370.871 193.244H374.595ZM370.871 194.294C370.871 194.574 370.909 194.845 370.983 195.106C371.067 195.367 371.189 195.596 371.347 195.792C371.506 195.988 371.707 196.147 371.949 196.268C372.192 196.38 372.481 196.436 372.817 196.436C373.284 196.436 373.657 196.338 373.937 196.142C374.227 195.937 374.441 195.633 374.581 195.232H376.093C376.009 195.624 375.865 195.974 375.659 196.282C375.454 196.59 375.207 196.851 374.917 197.066C374.628 197.271 374.301 197.425 373.937 197.528C373.583 197.64 373.209 197.696 372.817 197.696C372.248 197.696 371.744 197.603 371.305 197.416C370.867 197.229 370.493 196.968 370.185 196.632C369.887 196.296 369.658 195.895 369.499 195.428C369.35 194.961 369.275 194.448 369.275 193.888C369.275 193.375 369.355 192.889 369.513 192.432C369.681 191.965 369.915 191.559 370.213 191.214C370.521 190.859 370.89 190.579 371.319 190.374C371.749 190.169 372.234 190.066 372.775 190.066C373.345 190.066 373.853 190.187 374.301 190.43C374.759 190.663 375.137 190.976 375.435 191.368C375.734 191.76 375.949 192.213 376.079 192.726C376.219 193.23 376.257 193.753 376.191 194.294H370.871ZM377.622 187.504H379.218V197.5H377.622V187.504Z" fill="black"/>
<path d="M176.812 294.576H178.332V306H176.812V294.576ZM186.281 300.384C186.174 299.861 185.95 299.456 185.609 299.168C185.267 298.88 184.809 298.736 184.233 298.736C183.742 298.736 183.331 298.827 183.001 299.008C182.67 299.189 182.403 299.429 182.201 299.728C182.009 300.027 181.87 300.373 181.785 300.768C181.699 301.152 181.657 301.552 181.657 301.968C181.657 302.352 181.699 302.725 181.785 303.088C181.881 303.451 182.025 303.776 182.217 304.064C182.409 304.341 182.659 304.565 182.969 304.736C183.278 304.907 183.646 304.992 184.073 304.992C184.745 304.992 185.267 304.816 185.641 304.464C186.025 304.112 186.259 303.616 186.345 302.976H187.737C187.587 304 187.203 304.789 186.585 305.344C185.977 305.899 185.145 306.176 184.089 306.176C183.459 306.176 182.899 306.075 182.409 305.872C181.929 305.669 181.523 305.381 181.193 305.008C180.873 304.635 180.627 304.192 180.457 303.68C180.297 303.157 180.217 302.587 180.217 301.968C180.217 301.349 180.297 300.773 180.457 300.24C180.617 299.696 180.857 299.227 181.177 298.832C181.507 298.427 181.918 298.112 182.409 297.888C182.899 297.653 183.47 297.536 184.121 297.536C184.59 297.536 185.027 297.595 185.433 297.712C185.849 297.819 186.211 297.989 186.521 298.224C186.841 298.459 187.102 298.757 187.305 299.12C187.507 299.472 187.635 299.893 187.689 300.384H186.281ZM190.25 301.872C190.25 302.373 190.314 302.821 190.442 303.216C190.581 303.6 190.768 303.925 191.002 304.192C191.237 304.448 191.509 304.645 191.818 304.784C192.138 304.923 192.474 304.992 192.826 304.992C193.178 304.992 193.509 304.923 193.818 304.784C194.138 304.645 194.416 304.448 194.65 304.192C194.885 303.925 195.066 303.6 195.194 303.216C195.333 302.821 195.402 302.373 195.402 301.872C195.402 301.371 195.333 300.928 195.194 300.544C195.066 300.149 194.885 299.819 194.65 299.552C194.416 299.285 194.138 299.083 193.818 298.944C193.509 298.805 193.178 298.736 192.826 298.736C192.474 298.736 192.138 298.805 191.818 298.944C191.509 299.083 191.237 299.285 191.002 299.552C190.768 299.819 190.581 300.149 190.442 300.544C190.314 300.928 190.25 301.371 190.25 301.872ZM188.81 301.872C188.81 301.264 188.896 300.699 189.066 300.176C189.237 299.643 189.493 299.184 189.834 298.8C190.176 298.405 190.597 298.096 191.098 297.872C191.6 297.648 192.176 297.536 192.826 297.536C193.488 297.536 194.064 297.648 194.554 297.872C195.056 298.096 195.477 298.405 195.818 298.8C196.16 299.184 196.416 299.643 196.586 300.176C196.757 300.699 196.842 301.264 196.842 301.872C196.842 302.48 196.757 303.045 196.586 303.568C196.416 304.091 196.16 304.549 195.818 304.944C195.477 305.328 195.056 305.632 194.554 305.856C194.064 306.069 193.488 306.176 192.826 306.176C192.176 306.176 191.6 306.069 191.098 305.856C190.597 305.632 190.176 305.328 189.834 304.944C189.493 304.549 189.237 304.091 189.066 303.568C188.896 303.045 188.81 302.48 188.81 301.872ZM198.446 297.728H199.726V299.04H199.758C200.323 298.037 201.219 297.536 202.446 297.536C202.99 297.536 203.443 297.611 203.806 297.76C204.169 297.909 204.462 298.117 204.686 298.384C204.91 298.651 205.065 298.971 205.15 299.344C205.246 299.707 205.294 300.112 205.294 300.56V306H203.934V300.4C203.934 299.888 203.785 299.483 203.486 299.184C203.187 298.885 202.777 298.736 202.254 298.736C201.838 298.736 201.475 298.8 201.166 298.928C200.867 299.056 200.617 299.237 200.414 299.472C200.211 299.707 200.057 299.984 199.95 300.304C199.854 300.613 199.806 300.955 199.806 301.328V306H198.446V297.728ZM212.782 301.872C212.782 302.373 212.846 302.821 212.974 303.216C213.112 303.6 213.299 303.925 213.534 304.192C213.768 304.448 214.04 304.645 214.35 304.784C214.67 304.923 215.006 304.992 215.358 304.992C215.71 304.992 216.04 304.923 216.35 304.784C216.67 304.645 216.947 304.448 217.182 304.192C217.416 303.925 217.598 303.6 217.726 303.216C217.864 302.821 217.934 302.373 217.934 301.872C217.934 301.371 217.864 300.928 217.726 300.544C217.598 300.149 217.416 299.819 217.182 299.552C216.947 299.285 216.67 299.083 216.35 298.944C216.04 298.805 215.71 298.736 215.358 298.736C215.006 298.736 214.67 298.805 214.35 298.944C214.04 299.083 213.768 299.285 213.534 299.552C213.299 299.819 213.112 300.149 212.974 300.544C212.846 300.928 212.782 301.371 212.782 301.872ZM211.342 301.872C211.342 301.264 211.427 300.699 211.598 300.176C211.768 299.643 212.024 299.184 212.366 298.8C212.707 298.405 213.128 298.096 213.63 297.872C214.131 297.648 214.707 297.536 215.358 297.536C216.019 297.536 216.595 297.648 217.086 297.872C217.587 298.096 218.008 298.405 218.35 298.8C218.691 299.184 218.947 299.643 219.118 300.176C219.288 300.699 219.374 301.264 219.374 301.872C219.374 302.48 219.288 303.045 219.118 303.568C218.947 304.091 218.691 304.549 218.35 304.944C218.008 305.328 217.587 305.632 217.086 305.856C216.595 306.069 216.019 306.176 215.358 306.176C214.707 306.176 214.131 306.069 213.63 305.856C213.128 305.632 212.707 305.328 212.366 304.944C212.024 304.549 211.768 304.091 211.598 303.568C211.427 303.045 211.342 302.48 211.342 301.872ZM220.977 297.728H222.257V299.04H222.289C222.854 298.037 223.75 297.536 224.977 297.536C225.521 297.536 225.974 297.611 226.337 297.76C226.7 297.909 226.993 298.117 227.217 298.384C227.441 298.651 227.596 298.971 227.681 299.344C227.777 299.707 227.825 300.112 227.825 300.56V306H226.465V300.4C226.465 299.888 226.316 299.483 226.017 299.184C225.718 298.885 225.308 298.736 224.785 298.736C224.369 298.736 224.006 298.8 223.697 298.928C223.398 299.056 223.148 299.237 222.945 299.472C222.742 299.707 222.588 299.984 222.481 300.304C222.385 300.613 222.337 300.955 222.337 301.328V306H220.977V297.728ZM229.948 294.576H231.308V306H229.948V294.576ZM236.663 307.104C236.503 307.509 236.343 307.851 236.183 308.128C236.033 308.405 235.863 308.629 235.671 308.8C235.489 308.981 235.281 309.109 235.047 309.184C234.823 309.269 234.561 309.312 234.263 309.312C234.103 309.312 233.943 309.301 233.783 309.28C233.623 309.259 233.468 309.221 233.319 309.168V307.92C233.436 307.973 233.569 308.016 233.719 308.048C233.879 308.091 234.012 308.112 234.119 308.112C234.396 308.112 234.625 308.043 234.807 307.904C234.999 307.776 235.143 307.589 235.239 307.344L235.799 305.952L232.519 297.728H234.055L236.471 304.496H236.503L238.823 297.728H240.263L236.663 307.104Z" fill="black" fill-opacity="0.68"/>
<mask id="path-15-inside-3_60056_7295" fill="white">
<path d="M311.5 300.5C311.5 291.663 318.663 284.5 327.5 284.5H353.5C362.337 284.5 369.5 291.663 369.5 300.5C369.5 309.337 362.337 316.5 353.5 316.5H327.5C318.663 316.5 311.5 309.337 311.5 300.5Z"/>
</mask>
<path d="M327.5 284.5V286.5H353.5V284.5V282.5H327.5V284.5ZM353.5 316.5V314.5H327.5V316.5V318.5H353.5V316.5ZM327.5 316.5V314.5C319.768 314.5 313.5 308.232 313.5 300.5H311.5H309.5C309.5 310.441 317.559 318.5 327.5 318.5V316.5ZM369.5 300.5H367.5C367.5 308.232 361.232 314.5 353.5 314.5V316.5V318.5C363.441 318.5 371.5 310.441 371.5 300.5H369.5ZM353.5 284.5V286.5C361.232 286.5 367.5 292.768 367.5 300.5H369.5H371.5C371.5 290.559 363.441 282.5 353.5 282.5V284.5ZM327.5 284.5V282.5C317.559 282.5 309.5 290.559 309.5 300.5H311.5H313.5C313.5 292.768 319.768 286.5 327.5 286.5V284.5Z" fill="#F15E00" mask="url(#path-15-inside-3_60056_7295)"/>
<path fill-rule="evenodd" clip-rule="evenodd" d="M334.792 297.547L328.723 304.547C328.549 304.747 328.282 304.875 327.983 304.875C327.683 304.875 327.416 304.747 327.242 304.547L324.208 301.047C324.078 300.897 324 300.707 324 300.5C324 300.258 324.106 300.04 324.278 299.881L324.657 299.531C324.829 299.373 325.066 299.275 325.328 299.275C325.563 299.275 325.779 299.355 325.945 299.486L327.793 301.375L333.403 296.362C333.573 296.215 333.801 296.125 334.052 296.125C334.575 296.125 335 296.517 335 297C335 297.207 334.922 297.397 334.792 297.547Z" fill="#F15E00"/>
<path fill-rule="evenodd" clip-rule="evenodd" d="M355.767 299.995L351.5 304.664L347.233 299.995L347.231 299.992C346.405 299.086 346.479 297.69 347.396 296.873C348.28 296.087 349.632 296.121 350.473 296.952C350.475 296.955 350.477 296.957 350.479 296.959L351.132 297.572L351.5 297.922L351.868 297.572L352.521 296.959C352.523 296.957 352.525 296.955 352.527 296.952C352.946 296.537 353.515 296.304 354.108 296.306C355.342 296.306 356.343 297.294 356.343 298.514C356.343 299.06 356.139 299.587 355.769 299.992L355.767 299.995ZM356.742 295.911C355.296 294.482 352.957 294.474 351.5 295.886C350.043 294.474 347.704 294.482 346.258 295.911C344.827 297.325 344.803 299.604 346.188 301.046L351.5 306.833L356.812 301.046C358.197 299.604 358.173 297.325 356.742 295.911Z" fill="black"/>
</svg>
