<svg width="600" height="754" viewBox="0 0 600 754" fill="none" xmlns="http://www.w3.org/2000/svg">
<rect width="600" height="754" fill="black" fill-opacity="0.04"/>
<path d="M191.248 126.076H199.136V127.356H192.768V130.988H198.704V132.268H192.768V136.22H199.184V137.5H191.248V126.076ZM200.805 129.228H202.085V130.54H202.117C202.683 129.537 203.579 129.036 204.805 129.036C205.349 129.036 205.803 129.111 206.165 129.26C206.528 129.409 206.821 129.617 207.045 129.884C207.269 130.151 207.424 130.471 207.509 130.844C207.605 131.207 207.653 131.612 207.653 132.06V137.5H206.293V131.9C206.293 131.388 206.144 130.983 205.845 130.684C205.547 130.385 205.136 130.236 204.613 130.236C204.197 130.236 203.835 130.3 203.525 130.428C203.227 130.556 202.976 130.737 202.773 130.972C202.571 131.207 202.416 131.484 202.309 131.804C202.213 132.113 202.165 132.455 202.165 132.828V137.5H200.805V129.228ZM217.024 137.468C216.789 137.607 216.464 137.676 216.048 137.676C215.696 137.676 215.413 137.58 215.2 137.388C214.997 137.185 214.896 136.86 214.896 136.412C214.523 136.86 214.085 137.185 213.584 137.388C213.093 137.58 212.56 137.676 211.984 137.676C211.611 137.676 211.253 137.633 210.912 137.548C210.581 137.463 210.293 137.329 210.048 137.148C209.803 136.967 209.605 136.732 209.456 136.444C209.317 136.145 209.248 135.788 209.248 135.372C209.248 134.903 209.328 134.519 209.488 134.22C209.648 133.921 209.856 133.681 210.112 133.5C210.379 133.308 210.677 133.164 211.008 133.068C211.349 132.972 211.696 132.892 212.048 132.828C212.421 132.753 212.773 132.7 213.104 132.668C213.445 132.625 213.744 132.572 214 132.508C214.256 132.433 214.459 132.332 214.608 132.204C214.757 132.065 214.832 131.868 214.832 131.612C214.832 131.313 214.773 131.073 214.656 130.892C214.549 130.711 214.405 130.572 214.224 130.476C214.053 130.38 213.856 130.316 213.632 130.284C213.419 130.252 213.205 130.236 212.992 130.236C212.416 130.236 211.936 130.348 211.552 130.572C211.168 130.785 210.96 131.196 210.928 131.804H209.568C209.589 131.292 209.696 130.86 209.888 130.508C210.08 130.156 210.336 129.873 210.656 129.66C210.976 129.436 211.339 129.276 211.744 129.18C212.16 129.084 212.603 129.036 213.072 129.036C213.445 129.036 213.813 129.063 214.176 129.116C214.549 129.169 214.885 129.281 215.184 129.452C215.483 129.612 215.723 129.841 215.904 130.14C216.085 130.439 216.176 130.828 216.176 131.308V135.564C216.176 135.884 216.192 136.119 216.224 136.268C216.267 136.417 216.395 136.492 216.608 136.492C216.725 136.492 216.864 136.465 217.024 136.412V137.468ZM214.816 133.228C214.645 133.356 214.421 133.452 214.144 133.516C213.867 133.569 213.573 133.617 213.264 133.66C212.965 133.692 212.661 133.735 212.352 133.788C212.043 133.831 211.765 133.905 211.52 134.012C211.275 134.119 211.072 134.273 210.912 134.476C210.763 134.668 210.688 134.935 210.688 135.276C210.688 135.5 210.731 135.692 210.816 135.852C210.912 136.001 211.029 136.124 211.168 136.22C211.317 136.316 211.488 136.385 211.68 136.428C211.872 136.471 212.075 136.492 212.288 136.492C212.736 136.492 213.12 136.433 213.44 136.316C213.76 136.188 214.021 136.033 214.224 135.852C214.427 135.66 214.576 135.457 214.672 135.244C214.768 135.02 214.816 134.812 214.816 134.62V133.228ZM218.338 126.076H219.698V130.348H219.73C219.954 129.889 220.306 129.559 220.786 129.356C221.266 129.143 221.794 129.036 222.37 129.036C223.01 129.036 223.564 129.153 224.034 129.388C224.514 129.623 224.908 129.943 225.218 130.348C225.538 130.743 225.778 131.201 225.938 131.724C226.098 132.247 226.178 132.801 226.178 133.388C226.178 133.975 226.098 134.529 225.938 135.052C225.788 135.575 225.554 136.033 225.234 136.428C224.924 136.812 224.53 137.116 224.05 137.34C223.58 137.564 223.031 137.676 222.402 137.676C222.199 137.676 221.97 137.655 221.714 137.612C221.468 137.569 221.223 137.5 220.978 137.404C220.732 137.308 220.498 137.18 220.274 137.02C220.06 136.849 219.879 136.641 219.73 136.396H219.698V137.5H218.338V126.076ZM224.738 133.292C224.738 132.908 224.684 132.535 224.578 132.172C224.482 131.799 224.327 131.468 224.114 131.18C223.911 130.892 223.644 130.663 223.314 130.492C222.994 130.321 222.615 130.236 222.178 130.236C221.719 130.236 221.33 130.327 221.01 130.508C220.69 130.689 220.428 130.929 220.226 131.228C220.023 131.516 219.874 131.847 219.778 132.22C219.692 132.593 219.65 132.972 219.65 133.356C219.65 133.761 219.698 134.156 219.794 134.54C219.89 134.913 220.039 135.244 220.242 135.532C220.455 135.82 220.727 136.055 221.058 136.236C221.388 136.407 221.788 136.492 222.258 136.492C222.727 136.492 223.116 136.401 223.426 136.22C223.746 136.039 224.002 135.799 224.194 135.5C224.386 135.201 224.524 134.86 224.61 134.476C224.695 134.092 224.738 133.697 224.738 133.292ZM227.854 126.076H229.214V137.5H227.854V126.076ZM237.065 132.572C237.044 132.252 236.969 131.948 236.841 131.66C236.724 131.372 236.558 131.127 236.345 130.924C236.142 130.711 235.897 130.545 235.609 130.428C235.332 130.3 235.022 130.236 234.681 130.236C234.329 130.236 234.009 130.3 233.721 130.428C233.444 130.545 233.204 130.711 233.001 130.924C232.798 131.137 232.638 131.388 232.521 131.676C232.404 131.953 232.334 132.252 232.313 132.572H237.065ZM238.377 134.876C238.196 135.804 237.796 136.503 237.177 136.972C236.558 137.441 235.78 137.676 234.841 137.676C234.18 137.676 233.604 137.569 233.113 137.356C232.633 137.143 232.228 136.844 231.897 136.46C231.566 136.076 231.316 135.617 231.145 135.084C230.985 134.551 230.894 133.969 230.873 133.34C230.873 132.711 230.969 132.135 231.161 131.612C231.353 131.089 231.62 130.636 231.961 130.252C232.313 129.868 232.724 129.569 233.193 129.356C233.673 129.143 234.196 129.036 234.761 129.036C235.497 129.036 236.105 129.191 236.585 129.5C237.076 129.799 237.465 130.183 237.753 130.652C238.052 131.121 238.254 131.633 238.361 132.188C238.478 132.743 238.526 133.271 238.505 133.772H232.313C232.302 134.135 232.345 134.481 232.441 134.812C232.537 135.132 232.692 135.42 232.905 135.676C233.118 135.921 233.39 136.119 233.721 136.268C234.052 136.417 234.441 136.492 234.889 136.492C235.465 136.492 235.934 136.359 236.297 136.092C236.67 135.825 236.916 135.42 237.033 134.876H238.377ZM240.907 133.436C240.907 133.82 240.955 134.199 241.051 134.572C241.157 134.935 241.312 135.26 241.515 135.548C241.728 135.836 241.995 136.065 242.315 136.236C242.645 136.407 243.029 136.492 243.467 136.492C243.925 136.492 244.315 136.401 244.635 136.22C244.955 136.039 245.216 135.804 245.419 135.516C245.621 135.217 245.765 134.881 245.851 134.508C245.947 134.135 245.995 133.756 245.995 133.372C245.995 132.967 245.947 132.577 245.851 132.204C245.755 131.82 245.6 131.484 245.387 131.196C245.184 130.908 244.917 130.679 244.587 130.508C244.256 130.327 243.856 130.236 243.387 130.236C242.928 130.236 242.539 130.327 242.219 130.508C241.899 130.689 241.643 130.929 241.451 131.228C241.259 131.527 241.12 131.868 241.035 132.252C240.949 132.636 240.907 133.031 240.907 133.436ZM247.307 137.5H245.947V136.38H245.915C245.691 136.839 245.339 137.169 244.859 137.372C244.379 137.575 243.851 137.676 243.275 137.676C242.635 137.676 242.075 137.559 241.595 137.324C241.125 137.089 240.731 136.775 240.411 136.38C240.101 135.985 239.867 135.527 239.707 135.004C239.547 134.481 239.467 133.927 239.467 133.34C239.467 132.753 239.541 132.199 239.691 131.676C239.851 131.153 240.085 130.7 240.395 130.316C240.715 129.921 241.109 129.612 241.579 129.388C242.059 129.153 242.613 129.036 243.243 129.036C243.456 129.036 243.685 129.057 243.931 129.1C244.176 129.143 244.421 129.217 244.667 129.324C244.912 129.42 245.141 129.553 245.355 129.724C245.579 129.884 245.765 130.087 245.915 130.332H245.947V126.076H247.307V137.5Z" fill="black" fill-opacity="0.68"/>
<mask id="path-2-inside-1_60936_50060" fill="white">
<path d="M326 132C326 123.163 333.163 116 342 116H387C395.837 116 403 123.163 403 132C403 140.837 395.837 148 387 148H342C333.163 148 326 140.837 326 132Z"/>
</mask>
<path d="M326 132C326 123.163 333.163 116 342 116H387C395.837 116 403 123.163 403 132C403 140.837 395.837 148 387 148H342C333.163 148 326 140.837 326 132Z" fill="black" fill-opacity="0.04"/>
<path d="M342 116V117H387V116V115H342V116ZM387 148V147H342V148V149H387V148ZM342 148V147C333.716 147 327 140.284 327 132H326H325C325 141.389 332.611 149 342 149V148ZM403 132H402C402 140.284 395.284 147 387 147V148V149C396.389 149 404 141.389 404 132H403ZM387 116V117C395.284 117 402 123.716 402 132H403H404C404 122.611 396.389 115 387 115V116ZM342 116V115C332.611 115 325 122.611 325 132H326H327C327 123.716 333.716 117 342 117V116Z" fill="black" fill-opacity="0.2" mask="url(#path-2-inside-1_60936_50060)"/>
<path d="M339.064 127.004H340.814V135.488H345.896V137H339.064V127.004ZM353.116 135.39C353.116 135.586 353.139 135.726 353.186 135.81C353.242 135.894 353.345 135.936 353.494 135.936C353.541 135.936 353.597 135.936 353.662 135.936C353.727 135.936 353.802 135.927 353.886 135.908V137.014C353.83 137.033 353.755 137.051 353.662 137.07C353.578 137.098 353.489 137.121 353.396 137.14C353.303 137.159 353.209 137.173 353.116 137.182C353.023 137.191 352.943 137.196 352.878 137.196C352.551 137.196 352.281 137.131 352.066 137C351.851 136.869 351.711 136.641 351.646 136.314C351.329 136.622 350.937 136.846 350.47 136.986C350.013 137.126 349.569 137.196 349.14 137.196C348.813 137.196 348.501 137.149 348.202 137.056C347.903 136.972 347.637 136.846 347.404 136.678C347.18 136.501 346.998 136.281 346.858 136.02C346.727 135.749 346.662 135.437 346.662 135.082C346.662 134.634 346.741 134.27 346.9 133.99C347.068 133.71 347.283 133.491 347.544 133.332C347.815 133.173 348.113 133.061 348.44 132.996C348.776 132.921 349.112 132.865 349.448 132.828C349.737 132.772 350.013 132.735 350.274 132.716C350.535 132.688 350.764 132.646 350.96 132.59C351.165 132.534 351.324 132.45 351.436 132.338C351.557 132.217 351.618 132.039 351.618 131.806C351.618 131.601 351.567 131.433 351.464 131.302C351.371 131.171 351.249 131.073 351.1 131.008C350.96 130.933 350.801 130.887 350.624 130.868C350.447 130.84 350.279 130.826 350.12 130.826C349.672 130.826 349.303 130.919 349.014 131.106C348.725 131.293 348.561 131.582 348.524 131.974H346.928C346.956 131.507 347.068 131.12 347.264 130.812C347.46 130.504 347.707 130.257 348.006 130.07C348.314 129.883 348.659 129.753 349.042 129.678C349.425 129.603 349.817 129.566 350.218 129.566C350.573 129.566 350.923 129.603 351.268 129.678C351.613 129.753 351.921 129.874 352.192 130.042C352.472 130.21 352.696 130.429 352.864 130.7C353.032 130.961 353.116 131.283 353.116 131.666V135.39ZM351.52 133.374C351.277 133.533 350.979 133.631 350.624 133.668C350.269 133.696 349.915 133.743 349.56 133.808C349.392 133.836 349.229 133.878 349.07 133.934C348.911 133.981 348.771 134.051 348.65 134.144C348.529 134.228 348.431 134.345 348.356 134.494C348.291 134.634 348.258 134.807 348.258 135.012C348.258 135.189 348.309 135.339 348.412 135.46C348.515 135.581 348.636 135.679 348.776 135.754C348.925 135.819 349.084 135.866 349.252 135.894C349.429 135.922 349.588 135.936 349.728 135.936C349.905 135.936 350.097 135.913 350.302 135.866C350.507 135.819 350.699 135.74 350.876 135.628C351.063 135.516 351.217 135.376 351.338 135.208C351.459 135.031 351.52 134.816 351.52 134.564V133.374ZM355.05 127.004H356.646V130.7H356.674C356.786 130.523 356.922 130.364 357.08 130.224C357.239 130.084 357.412 129.967 357.598 129.874C357.794 129.771 357.995 129.697 358.2 129.65C358.415 129.594 358.625 129.566 358.83 129.566C359.4 129.566 359.894 129.669 360.314 129.874C360.744 130.07 361.098 130.345 361.378 130.7C361.658 131.045 361.868 131.451 362.008 131.918C362.148 132.385 362.218 132.884 362.218 133.416C362.218 133.901 362.153 134.373 362.022 134.83C361.901 135.287 361.71 135.693 361.448 136.048C361.196 136.393 360.874 136.673 360.482 136.888C360.09 137.093 359.628 137.196 359.096 137.196C358.854 137.196 358.606 137.177 358.354 137.14C358.112 137.112 357.878 137.051 357.654 136.958C357.43 136.865 357.225 136.743 357.038 136.594C356.861 136.445 356.712 136.249 356.59 136.006H356.562V137H355.05V127.004ZM360.622 133.388C360.622 133.061 360.58 132.744 360.496 132.436C360.412 132.128 360.286 131.857 360.118 131.624C359.95 131.381 359.74 131.19 359.488 131.05C359.236 130.901 358.947 130.826 358.62 130.826C357.948 130.826 357.44 131.059 357.094 131.526C356.758 131.993 356.59 132.613 356.59 133.388C356.59 133.752 356.632 134.093 356.716 134.41C356.81 134.718 356.945 134.984 357.122 135.208C357.3 135.432 357.51 135.609 357.752 135.74C358.004 135.871 358.294 135.936 358.62 135.936C358.984 135.936 359.292 135.861 359.544 135.712C359.796 135.563 360.002 135.371 360.16 135.138C360.328 134.895 360.445 134.625 360.51 134.326C360.585 134.018 360.622 133.705 360.622 133.388ZM368.712 132.744C368.693 132.492 368.637 132.249 368.544 132.016C368.46 131.783 368.339 131.582 368.18 131.414C368.031 131.237 367.844 131.097 367.62 130.994C367.405 130.882 367.163 130.826 366.892 130.826C366.612 130.826 366.355 130.877 366.122 130.98C365.898 131.073 365.702 131.209 365.534 131.386C365.375 131.554 365.245 131.755 365.142 131.988C365.049 132.221 364.997 132.473 364.988 132.744H368.712ZM364.988 133.794C364.988 134.074 365.025 134.345 365.1 134.606C365.184 134.867 365.305 135.096 365.464 135.292C365.623 135.488 365.823 135.647 366.066 135.768C366.309 135.88 366.598 135.936 366.934 135.936C367.401 135.936 367.774 135.838 368.054 135.642C368.343 135.437 368.558 135.133 368.698 134.732H370.21C370.126 135.124 369.981 135.474 369.776 135.782C369.571 136.09 369.323 136.351 369.034 136.566C368.745 136.771 368.418 136.925 368.054 137.028C367.699 137.14 367.326 137.196 366.934 137.196C366.365 137.196 365.861 137.103 365.422 136.916C364.983 136.729 364.61 136.468 364.302 136.132C364.003 135.796 363.775 135.395 363.616 134.928C363.467 134.461 363.392 133.948 363.392 133.388C363.392 132.875 363.471 132.389 363.63 131.932C363.798 131.465 364.031 131.059 364.33 130.714C364.638 130.359 365.007 130.079 365.436 129.874C365.865 129.669 366.351 129.566 366.892 129.566C367.461 129.566 367.97 129.687 368.418 129.93C368.875 130.163 369.253 130.476 369.552 130.868C369.851 131.26 370.065 131.713 370.196 132.226C370.336 132.73 370.373 133.253 370.308 133.794H364.988ZM371.738 127.004H373.334V137H371.738V127.004Z" fill="black"/>
<path d="M394.626 129.982L393.018 128.375L389 132.393L384.982 128.375L383.374 129.982L387.393 134L383.374 138.018L384.982 139.626L389 135.607L393.018 139.626L394.626 138.018L390.607 134L394.626 129.982Z" fill="black"/>
<path d="M191.248 224.076H192.768V228.988H198.784V224.076H200.304V235.5H198.784V230.268H192.768V235.5H191.248V224.076ZM203.563 231.372C203.563 231.873 203.627 232.321 203.755 232.716C203.894 233.1 204.08 233.425 204.315 233.692C204.55 233.948 204.822 234.145 205.131 234.284C205.451 234.423 205.787 234.492 206.139 234.492C206.491 234.492 206.822 234.423 207.131 234.284C207.451 234.145 207.728 233.948 207.963 233.692C208.198 233.425 208.379 233.1 208.507 232.716C208.646 232.321 208.715 231.873 208.715 231.372C208.715 230.871 208.646 230.428 208.507 230.044C208.379 229.649 208.198 229.319 207.963 229.052C207.728 228.785 207.451 228.583 207.131 228.444C206.822 228.305 206.491 228.236 206.139 228.236C205.787 228.236 205.451 228.305 205.131 228.444C204.822 228.583 204.55 228.785 204.315 229.052C204.08 229.319 203.894 229.649 203.755 230.044C203.627 230.428 203.563 230.871 203.563 231.372ZM202.123 231.372C202.123 230.764 202.208 230.199 202.379 229.676C202.55 229.143 202.806 228.684 203.147 228.3C203.488 227.905 203.91 227.596 204.411 227.372C204.912 227.148 205.488 227.036 206.139 227.036C206.8 227.036 207.376 227.148 207.867 227.372C208.368 227.596 208.79 227.905 209.131 228.3C209.472 228.684 209.728 229.143 209.899 229.676C210.07 230.199 210.155 230.764 210.155 231.372C210.155 231.98 210.07 232.545 209.899 233.068C209.728 233.591 209.472 234.049 209.131 234.444C208.79 234.828 208.368 235.132 207.867 235.356C207.376 235.569 206.8 235.676 206.139 235.676C205.488 235.676 204.912 235.569 204.411 235.356C203.91 235.132 203.488 234.828 203.147 234.444C202.806 234.049 202.55 233.591 202.379 233.068C202.208 232.545 202.123 231.98 202.123 231.372ZM215.486 235.5H214.03L210.958 227.228H212.478L214.798 234.124H214.83L217.086 227.228H218.51L215.486 235.5ZM225.502 230.572C225.481 230.252 225.406 229.948 225.278 229.66C225.161 229.372 224.996 229.127 224.782 228.924C224.58 228.711 224.334 228.545 224.046 228.428C223.769 228.3 223.46 228.236 223.118 228.236C222.766 228.236 222.446 228.3 222.158 228.428C221.881 228.545 221.641 228.711 221.438 228.924C221.236 229.137 221.076 229.388 220.958 229.676C220.841 229.953 220.772 230.252 220.75 230.572H225.502ZM226.814 232.876C226.633 233.804 226.233 234.503 225.614 234.972C224.996 235.441 224.217 235.676 223.278 235.676C222.617 235.676 222.041 235.569 221.55 235.356C221.07 235.143 220.665 234.844 220.334 234.46C220.004 234.076 219.753 233.617 219.582 233.084C219.422 232.551 219.332 231.969 219.31 231.34C219.31 230.711 219.406 230.135 219.598 229.612C219.79 229.089 220.057 228.636 220.398 228.252C220.75 227.868 221.161 227.569 221.63 227.356C222.11 227.143 222.633 227.036 223.198 227.036C223.934 227.036 224.542 227.191 225.022 227.5C225.513 227.799 225.902 228.183 226.19 228.652C226.489 229.121 226.692 229.633 226.798 230.188C226.916 230.743 226.964 231.271 226.942 231.772H220.75C220.74 232.135 220.782 232.481 220.878 232.812C220.974 233.132 221.129 233.42 221.342 233.676C221.556 233.921 221.828 234.119 222.158 234.268C222.489 234.417 222.878 234.492 223.326 234.492C223.902 234.492 224.372 234.359 224.734 234.092C225.108 233.825 225.353 233.42 225.47 232.876H226.814ZM228.304 227.228H229.584V228.972H229.616C229.947 228.3 230.352 227.804 230.832 227.484C231.312 227.164 231.92 227.015 232.656 227.036V228.476C232.112 228.476 231.648 228.551 231.264 228.7C230.88 228.849 230.571 229.068 230.336 229.356C230.101 229.644 229.931 229.996 229.824 230.412C229.717 230.817 229.664 231.287 229.664 231.82V235.5H228.304V227.228Z" fill="black" fill-opacity="0.68"/>
<mask id="path-7-inside-2_60936_50060" fill="white">
<path d="M326 230C326 221.163 333.163 214 342 214H387C395.837 214 403 221.163 403 230C403 238.837 395.837 246 387 246H342C333.163 246 326 238.837 326 230Z"/>
</mask>
<path d="M326 230C326 221.163 333.163 214 342 214H387C395.837 214 403 221.163 403 230C403 238.837 395.837 246 387 246H342C333.163 246 326 238.837 326 230Z" fill="black" fill-opacity="0.08"/>
<path d="M342 214V216H387V214V212H342V214ZM387 246V244H342V246V248H387V246ZM342 246V244C334.268 244 328 237.732 328 230H326H324C324 239.941 332.059 248 342 248V246ZM403 230H401C401 237.732 394.732 244 387 244V246V248C396.941 248 405 239.941 405 230H403ZM387 214V216C394.732 216 401 222.268 401 230H403H405C405 220.059 396.941 212 387 212V214ZM342 214V212C332.059 212 324 220.059 324 230H326H328C328 222.268 334.268 216 342 216V214Z" fill="black" fill-opacity="0.68" mask="url(#path-7-inside-2_60936_50060)"/>
<path d="M339.064 225.004H340.814V233.488H345.896V235H339.064V225.004ZM353.116 233.39C353.116 233.586 353.139 233.726 353.186 233.81C353.242 233.894 353.345 233.936 353.494 233.936C353.541 233.936 353.597 233.936 353.662 233.936C353.727 233.936 353.802 233.927 353.886 233.908V235.014C353.83 235.033 353.755 235.051 353.662 235.07C353.578 235.098 353.489 235.121 353.396 235.14C353.303 235.159 353.209 235.173 353.116 235.182C353.023 235.191 352.943 235.196 352.878 235.196C352.551 235.196 352.281 235.131 352.066 235C351.851 234.869 351.711 234.641 351.646 234.314C351.329 234.622 350.937 234.846 350.47 234.986C350.013 235.126 349.569 235.196 349.14 235.196C348.813 235.196 348.501 235.149 348.202 235.056C347.903 234.972 347.637 234.846 347.404 234.678C347.18 234.501 346.998 234.281 346.858 234.02C346.727 233.749 346.662 233.437 346.662 233.082C346.662 232.634 346.741 232.27 346.9 231.99C347.068 231.71 347.283 231.491 347.544 231.332C347.815 231.173 348.113 231.061 348.44 230.996C348.776 230.921 349.112 230.865 349.448 230.828C349.737 230.772 350.013 230.735 350.274 230.716C350.535 230.688 350.764 230.646 350.96 230.59C351.165 230.534 351.324 230.45 351.436 230.338C351.557 230.217 351.618 230.039 351.618 229.806C351.618 229.601 351.567 229.433 351.464 229.302C351.371 229.171 351.249 229.073 351.1 229.008C350.96 228.933 350.801 228.887 350.624 228.868C350.447 228.84 350.279 228.826 350.12 228.826C349.672 228.826 349.303 228.919 349.014 229.106C348.725 229.293 348.561 229.582 348.524 229.974H346.928C346.956 229.507 347.068 229.12 347.264 228.812C347.46 228.504 347.707 228.257 348.006 228.07C348.314 227.883 348.659 227.753 349.042 227.678C349.425 227.603 349.817 227.566 350.218 227.566C350.573 227.566 350.923 227.603 351.268 227.678C351.613 227.753 351.921 227.874 352.192 228.042C352.472 228.21 352.696 228.429 352.864 228.7C353.032 228.961 353.116 229.283 353.116 229.666V233.39ZM351.52 231.374C351.277 231.533 350.979 231.631 350.624 231.668C350.269 231.696 349.915 231.743 349.56 231.808C349.392 231.836 349.229 231.878 349.07 231.934C348.911 231.981 348.771 232.051 348.65 232.144C348.529 232.228 348.431 232.345 348.356 232.494C348.291 232.634 348.258 232.807 348.258 233.012C348.258 233.189 348.309 233.339 348.412 233.46C348.515 233.581 348.636 233.679 348.776 233.754C348.925 233.819 349.084 233.866 349.252 233.894C349.429 233.922 349.588 233.936 349.728 233.936C349.905 233.936 350.097 233.913 350.302 233.866C350.507 233.819 350.699 233.74 350.876 233.628C351.063 233.516 351.217 233.376 351.338 233.208C351.459 233.031 351.52 232.816 351.52 232.564V231.374ZM355.05 225.004H356.646V228.7H356.674C356.786 228.523 356.922 228.364 357.08 228.224C357.239 228.084 357.412 227.967 357.598 227.874C357.794 227.771 357.995 227.697 358.2 227.65C358.415 227.594 358.625 227.566 358.83 227.566C359.4 227.566 359.894 227.669 360.314 227.874C360.744 228.07 361.098 228.345 361.378 228.7C361.658 229.045 361.868 229.451 362.008 229.918C362.148 230.385 362.218 230.884 362.218 231.416C362.218 231.901 362.153 232.373 362.022 232.83C361.901 233.287 361.71 233.693 361.448 234.048C361.196 234.393 360.874 234.673 360.482 234.888C360.09 235.093 359.628 235.196 359.096 235.196C358.854 235.196 358.606 235.177 358.354 235.14C358.112 235.112 357.878 235.051 357.654 234.958C357.43 234.865 357.225 234.743 357.038 234.594C356.861 234.445 356.712 234.249 356.59 234.006H356.562V235H355.05V225.004ZM360.622 231.388C360.622 231.061 360.58 230.744 360.496 230.436C360.412 230.128 360.286 229.857 360.118 229.624C359.95 229.381 359.74 229.19 359.488 229.05C359.236 228.901 358.947 228.826 358.62 228.826C357.948 228.826 357.44 229.059 357.094 229.526C356.758 229.993 356.59 230.613 356.59 231.388C356.59 231.752 356.632 232.093 356.716 232.41C356.81 232.718 356.945 232.984 357.122 233.208C357.3 233.432 357.51 233.609 357.752 233.74C358.004 233.871 358.294 233.936 358.62 233.936C358.984 233.936 359.292 233.861 359.544 233.712C359.796 233.563 360.002 233.371 360.16 233.138C360.328 232.895 360.445 232.625 360.51 232.326C360.585 232.018 360.622 231.705 360.622 231.388ZM368.712 230.744C368.693 230.492 368.637 230.249 368.544 230.016C368.46 229.783 368.339 229.582 368.18 229.414C368.031 229.237 367.844 229.097 367.62 228.994C367.405 228.882 367.163 228.826 366.892 228.826C366.612 228.826 366.355 228.877 366.122 228.98C365.898 229.073 365.702 229.209 365.534 229.386C365.375 229.554 365.245 229.755 365.142 229.988C365.049 230.221 364.997 230.473 364.988 230.744H368.712ZM364.988 231.794C364.988 232.074 365.025 232.345 365.1 232.606C365.184 232.867 365.305 233.096 365.464 233.292C365.623 233.488 365.823 233.647 366.066 233.768C366.309 233.88 366.598 233.936 366.934 233.936C367.401 233.936 367.774 233.838 368.054 233.642C368.343 233.437 368.558 233.133 368.698 232.732H370.21C370.126 233.124 369.981 233.474 369.776 233.782C369.571 234.09 369.323 234.351 369.034 234.566C368.745 234.771 368.418 234.925 368.054 235.028C367.699 235.14 367.326 235.196 366.934 235.196C366.365 235.196 365.861 235.103 365.422 234.916C364.983 234.729 364.61 234.468 364.302 234.132C364.003 233.796 363.775 233.395 363.616 232.928C363.467 232.461 363.392 231.948 363.392 231.388C363.392 230.875 363.471 230.389 363.63 229.932C363.798 229.465 364.031 229.059 364.33 228.714C364.638 228.359 365.007 228.079 365.436 227.874C365.865 227.669 366.351 227.566 366.892 227.566C367.461 227.566 367.97 227.687 368.418 227.93C368.875 228.163 369.253 228.476 369.552 228.868C369.851 229.26 370.065 229.713 370.196 230.226C370.336 230.73 370.373 231.253 370.308 231.794H364.988ZM371.738 225.004H373.334V235H371.738V225.004Z" fill="black" fill-opacity="0.68"/>
<path d="M394.626 227.982L393.018 226.375L389 230.393L384.982 226.375L383.374 227.982L387.393 232L383.374 236.018L384.982 237.626L389 233.607L393.018 237.626L394.626 236.018L390.607 232L394.626 227.982Z" fill="black" fill-opacity="0.68"/>
<path d="M192.768 327.548H195.744C196.608 327.559 197.237 327.383 197.632 327.02C198.037 326.657 198.24 326.135 198.24 325.452C198.24 324.769 198.037 324.252 197.632 323.9C197.237 323.537 196.608 323.356 195.744 323.356H192.768V327.548ZM191.248 322.076H196.256C197.408 322.076 198.277 322.375 198.864 322.972C199.461 323.559 199.76 324.385 199.76 325.452C199.76 326.519 199.461 327.351 198.864 327.948C198.277 328.545 197.408 328.839 196.256 328.828H192.768V333.5H191.248V322.076ZM201.351 325.228H202.631V326.972H202.663C202.994 326.3 203.399 325.804 203.879 325.484C204.359 325.164 204.967 325.015 205.703 325.036V326.476C205.159 326.476 204.695 326.551 204.311 326.7C203.927 326.849 203.618 327.068 203.383 327.356C203.148 327.644 202.978 327.996 202.871 328.412C202.764 328.817 202.711 329.287 202.711 329.82V333.5H201.351V325.228ZM212.19 328.572C212.169 328.252 212.094 327.948 211.966 327.66C211.849 327.372 211.683 327.127 211.47 326.924C211.267 326.711 211.022 326.545 210.734 326.428C210.457 326.3 210.147 326.236 209.806 326.236C209.454 326.236 209.134 326.3 208.846 326.428C208.569 326.545 208.329 326.711 208.126 326.924C207.923 327.137 207.763 327.388 207.646 327.676C207.529 327.953 207.459 328.252 207.438 328.572H212.19ZM213.502 330.876C213.321 331.804 212.921 332.503 212.302 332.972C211.683 333.441 210.905 333.676 209.966 333.676C209.305 333.676 208.729 333.569 208.238 333.356C207.758 333.143 207.353 332.844 207.022 332.46C206.691 332.076 206.441 331.617 206.27 331.084C206.11 330.551 206.019 329.969 205.998 329.34C205.998 328.711 206.094 328.135 206.286 327.612C206.478 327.089 206.745 326.636 207.086 326.252C207.438 325.868 207.849 325.569 208.318 325.356C208.798 325.143 209.321 325.036 209.886 325.036C210.622 325.036 211.23 325.191 211.71 325.5C212.201 325.799 212.59 326.183 212.878 326.652C213.177 327.121 213.379 327.633 213.486 328.188C213.603 328.743 213.651 329.271 213.63 329.772H207.438C207.427 330.135 207.47 330.481 207.566 330.812C207.662 331.132 207.817 331.42 208.03 331.676C208.243 331.921 208.515 332.119 208.846 332.268C209.177 332.417 209.566 332.492 210.014 332.492C210.59 332.492 211.059 332.359 211.422 332.092C211.795 331.825 212.041 331.42 212.158 330.876H213.502ZM215.872 330.892C215.882 331.191 215.952 331.447 216.08 331.66C216.208 331.863 216.373 332.028 216.576 332.156C216.789 332.273 217.024 332.359 217.28 332.412C217.546 332.465 217.818 332.492 218.096 332.492C218.309 332.492 218.533 332.476 218.768 332.444C219.002 332.412 219.216 332.353 219.408 332.268C219.61 332.183 219.776 332.06 219.904 331.9C220.032 331.729 220.096 331.516 220.096 331.26C220.096 330.908 219.962 330.641 219.696 330.46C219.429 330.279 219.093 330.135 218.688 330.028C218.293 329.911 217.861 329.809 217.392 329.724C216.922 329.628 216.485 329.5 216.08 329.34C215.685 329.169 215.354 328.935 215.088 328.636C214.821 328.337 214.688 327.921 214.688 327.388C214.688 326.972 214.778 326.615 214.96 326.316C215.152 326.017 215.392 325.777 215.68 325.596C215.978 325.404 216.309 325.265 216.672 325.18C217.045 325.084 217.413 325.036 217.776 325.036C218.245 325.036 218.677 325.079 219.072 325.164C219.466 325.239 219.813 325.377 220.112 325.58C220.421 325.772 220.666 326.039 220.848 326.38C221.029 326.711 221.136 327.127 221.168 327.628H219.808C219.786 327.361 219.717 327.143 219.6 326.972C219.482 326.791 219.333 326.647 219.152 326.54C218.97 326.433 218.768 326.359 218.544 326.316C218.33 326.263 218.112 326.236 217.888 326.236C217.685 326.236 217.477 326.252 217.264 326.284C217.061 326.316 216.874 326.375 216.704 326.46C216.533 326.535 216.394 326.641 216.288 326.78C216.181 326.908 216.128 327.079 216.128 327.292C216.128 327.527 216.208 327.724 216.368 327.884C216.538 328.033 216.752 328.161 217.008 328.268C217.264 328.364 217.552 328.449 217.872 328.524C218.192 328.588 218.512 328.657 218.832 328.732C219.173 328.807 219.504 328.897 219.824 329.004C220.154 329.111 220.442 329.255 220.688 329.436C220.944 329.607 221.146 329.825 221.296 330.092C221.456 330.359 221.536 330.689 221.536 331.084C221.536 331.585 221.429 332.001 221.216 332.332C221.013 332.663 220.741 332.929 220.4 333.132C220.069 333.335 219.69 333.473 219.264 333.548C218.848 333.633 218.432 333.676 218.016 333.676C217.557 333.676 217.12 333.628 216.704 333.532C216.288 333.436 215.92 333.281 215.6 333.068C215.28 332.844 215.024 332.556 214.832 332.204C214.64 331.841 214.533 331.404 214.512 330.892H215.872ZM223.872 330.892C223.882 331.191 223.952 331.447 224.08 331.66C224.208 331.863 224.373 332.028 224.576 332.156C224.789 332.273 225.024 332.359 225.28 332.412C225.546 332.465 225.818 332.492 226.096 332.492C226.309 332.492 226.533 332.476 226.768 332.444C227.002 332.412 227.216 332.353 227.408 332.268C227.61 332.183 227.776 332.06 227.904 331.9C228.032 331.729 228.096 331.516 228.096 331.26C228.096 330.908 227.962 330.641 227.696 330.46C227.429 330.279 227.093 330.135 226.688 330.028C226.293 329.911 225.861 329.809 225.392 329.724C224.922 329.628 224.485 329.5 224.08 329.34C223.685 329.169 223.354 328.935 223.088 328.636C222.821 328.337 222.688 327.921 222.688 327.388C222.688 326.972 222.778 326.615 222.96 326.316C223.152 326.017 223.392 325.777 223.68 325.596C223.978 325.404 224.309 325.265 224.672 325.18C225.045 325.084 225.413 325.036 225.776 325.036C226.245 325.036 226.677 325.079 227.072 325.164C227.466 325.239 227.813 325.377 228.112 325.58C228.421 325.772 228.666 326.039 228.848 326.38C229.029 326.711 229.136 327.127 229.168 327.628H227.808C227.786 327.361 227.717 327.143 227.6 326.972C227.482 326.791 227.333 326.647 227.152 326.54C226.97 326.433 226.768 326.359 226.544 326.316C226.33 326.263 226.112 326.236 225.888 326.236C225.685 326.236 225.477 326.252 225.264 326.284C225.061 326.316 224.874 326.375 224.704 326.46C224.533 326.535 224.394 326.641 224.288 326.78C224.181 326.908 224.128 327.079 224.128 327.292C224.128 327.527 224.208 327.724 224.368 327.884C224.538 328.033 224.752 328.161 225.008 328.268C225.264 328.364 225.552 328.449 225.872 328.524C226.192 328.588 226.512 328.657 226.832 328.732C227.173 328.807 227.504 328.897 227.824 329.004C228.154 329.111 228.442 329.255 228.688 329.436C228.944 329.607 229.146 329.825 229.296 330.092C229.456 330.359 229.536 330.689 229.536 331.084C229.536 331.585 229.429 332.001 229.216 332.332C229.013 332.663 228.741 332.929 228.4 333.132C228.069 333.335 227.69 333.473 227.264 333.548C226.848 333.633 226.432 333.676 226.016 333.676C225.557 333.676 225.12 333.628 224.704 333.532C224.288 333.436 223.92 333.281 223.6 333.068C223.28 332.844 223.024 332.556 222.832 332.204C222.64 331.841 222.533 331.404 222.512 330.892H223.872ZM236.784 328.572C236.762 328.252 236.688 327.948 236.56 327.66C236.442 327.372 236.277 327.127 236.064 326.924C235.861 326.711 235.616 326.545 235.328 326.428C235.05 326.3 234.741 326.236 234.4 326.236C234.048 326.236 233.728 326.3 233.44 326.428C233.162 326.545 232.922 326.711 232.72 326.924C232.517 327.137 232.357 327.388 232.24 327.676C232.122 327.953 232.053 328.252 232.032 328.572H236.784ZM238.096 330.876C237.914 331.804 237.514 332.503 236.896 332.972C236.277 333.441 235.498 333.676 234.56 333.676C233.898 333.676 233.322 333.569 232.832 333.356C232.352 333.143 231.946 332.844 231.616 332.46C231.285 332.076 231.034 331.617 230.864 331.084C230.704 330.551 230.613 329.969 230.592 329.34C230.592 328.711 230.688 328.135 230.88 327.612C231.072 327.089 231.338 326.636 231.68 326.252C232.032 325.868 232.442 325.569 232.912 325.356C233.392 325.143 233.914 325.036 234.48 325.036C235.216 325.036 235.824 325.191 236.304 325.5C236.794 325.799 237.184 326.183 237.472 326.652C237.77 327.121 237.973 327.633 238.08 328.188C238.197 328.743 238.245 329.271 238.224 329.772H232.032C232.021 330.135 232.064 330.481 232.16 330.812C232.256 331.132 232.41 331.42 232.624 331.676C232.837 331.921 233.109 332.119 233.44 332.268C233.77 332.417 234.16 332.492 234.608 332.492C235.184 332.492 235.653 332.359 236.016 332.092C236.389 331.825 236.634 331.42 236.752 330.876H238.096ZM240.625 329.436C240.625 329.82 240.673 330.199 240.769 330.572C240.876 330.935 241.031 331.26 241.233 331.548C241.447 331.836 241.713 332.065 242.033 332.236C242.364 332.407 242.748 332.492 243.185 332.492C243.644 332.492 244.033 332.401 244.353 332.22C244.673 332.039 244.935 331.804 245.137 331.516C245.34 331.217 245.484 330.881 245.569 330.508C245.665 330.135 245.713 329.756 245.713 329.372C245.713 328.967 245.665 328.577 245.569 328.204C245.473 327.82 245.319 327.484 245.105 327.196C244.903 326.908 244.636 326.679 244.305 326.508C243.975 326.327 243.575 326.236 243.105 326.236C242.647 326.236 242.257 326.327 241.937 326.508C241.617 326.689 241.361 326.929 241.169 327.228C240.977 327.527 240.839 327.868 240.753 328.252C240.668 328.636 240.625 329.031 240.625 329.436ZM247.025 333.5H245.665V332.38H245.633C245.409 332.839 245.057 333.169 244.577 333.372C244.097 333.575 243.569 333.676 242.993 333.676C242.353 333.676 241.793 333.559 241.313 333.324C240.844 333.089 240.449 332.775 240.129 332.38C239.82 331.985 239.585 331.527 239.425 331.004C239.265 330.481 239.185 329.927 239.185 329.34C239.185 328.753 239.26 328.199 239.409 327.676C239.569 327.153 239.804 326.7 240.113 326.316C240.433 325.921 240.828 325.612 241.297 325.388C241.777 325.153 242.332 325.036 242.961 325.036C243.175 325.036 243.404 325.057 243.649 325.1C243.895 325.143 244.14 325.217 244.385 325.324C244.631 325.42 244.86 325.553 245.073 325.724C245.297 325.884 245.484 326.087 245.633 326.332H245.665V322.076H247.025V333.5Z" fill="black" fill-opacity="0.68"/>
<mask id="path-12-inside-3_60936_50060" fill="white">
<path d="M326 328C326 319.163 333.163 312 342 312H387C395.837 312 403 319.163 403 328C403 336.837 395.837 344 387 344H342C333.163 344 326 336.837 326 328Z"/>
</mask>
<path d="M326 328C326 319.163 333.163 312 342 312H387C395.837 312 403 319.163 403 328C403 336.837 395.837 344 387 344H342C333.163 344 326 336.837 326 328Z" fill="black" fill-opacity="0.12"/>
<path d="M342 312V314H387V312V310H342V312ZM387 344V342H342V344V346H387V344ZM342 344V342C334.268 342 328 335.732 328 328H326H324C324 337.941 332.059 346 342 346V344ZM403 328H401C401 335.732 394.732 342 387 342V344V346C396.941 346 405 337.941 405 328H403ZM387 312V314C394.732 314 401 320.268 401 328H403H405C405 318.059 396.941 310 387 310V312ZM342 312V310C332.059 310 324 318.059 324 328H326H328C328 320.268 334.268 314 342 314V312Z" fill="#F15E00" mask="url(#path-12-inside-3_60936_50060)"/>
<path d="M339.064 323.004H340.814V331.488H345.896V333H339.064V323.004ZM353.116 331.39C353.116 331.586 353.139 331.726 353.186 331.81C353.242 331.894 353.345 331.936 353.494 331.936C353.541 331.936 353.597 331.936 353.662 331.936C353.727 331.936 353.802 331.927 353.886 331.908V333.014C353.83 333.033 353.755 333.051 353.662 333.07C353.578 333.098 353.489 333.121 353.396 333.14C353.303 333.159 353.209 333.173 353.116 333.182C353.023 333.191 352.943 333.196 352.878 333.196C352.551 333.196 352.281 333.131 352.066 333C351.851 332.869 351.711 332.641 351.646 332.314C351.329 332.622 350.937 332.846 350.47 332.986C350.013 333.126 349.569 333.196 349.14 333.196C348.813 333.196 348.501 333.149 348.202 333.056C347.903 332.972 347.637 332.846 347.404 332.678C347.18 332.501 346.998 332.281 346.858 332.02C346.727 331.749 346.662 331.437 346.662 331.082C346.662 330.634 346.741 330.27 346.9 329.99C347.068 329.71 347.283 329.491 347.544 329.332C347.815 329.173 348.113 329.061 348.44 328.996C348.776 328.921 349.112 328.865 349.448 328.828C349.737 328.772 350.013 328.735 350.274 328.716C350.535 328.688 350.764 328.646 350.96 328.59C351.165 328.534 351.324 328.45 351.436 328.338C351.557 328.217 351.618 328.039 351.618 327.806C351.618 327.601 351.567 327.433 351.464 327.302C351.371 327.171 351.249 327.073 351.1 327.008C350.96 326.933 350.801 326.887 350.624 326.868C350.447 326.84 350.279 326.826 350.12 326.826C349.672 326.826 349.303 326.919 349.014 327.106C348.725 327.293 348.561 327.582 348.524 327.974H346.928C346.956 327.507 347.068 327.12 347.264 326.812C347.46 326.504 347.707 326.257 348.006 326.07C348.314 325.883 348.659 325.753 349.042 325.678C349.425 325.603 349.817 325.566 350.218 325.566C350.573 325.566 350.923 325.603 351.268 325.678C351.613 325.753 351.921 325.874 352.192 326.042C352.472 326.21 352.696 326.429 352.864 326.7C353.032 326.961 353.116 327.283 353.116 327.666V331.39ZM351.52 329.374C351.277 329.533 350.979 329.631 350.624 329.668C350.269 329.696 349.915 329.743 349.56 329.808C349.392 329.836 349.229 329.878 349.07 329.934C348.911 329.981 348.771 330.051 348.65 330.144C348.529 330.228 348.431 330.345 348.356 330.494C348.291 330.634 348.258 330.807 348.258 331.012C348.258 331.189 348.309 331.339 348.412 331.46C348.515 331.581 348.636 331.679 348.776 331.754C348.925 331.819 349.084 331.866 349.252 331.894C349.429 331.922 349.588 331.936 349.728 331.936C349.905 331.936 350.097 331.913 350.302 331.866C350.507 331.819 350.699 331.74 350.876 331.628C351.063 331.516 351.217 331.376 351.338 331.208C351.459 331.031 351.52 330.816 351.52 330.564V329.374ZM355.05 323.004H356.646V326.7H356.674C356.786 326.523 356.922 326.364 357.08 326.224C357.239 326.084 357.412 325.967 357.598 325.874C357.794 325.771 357.995 325.697 358.2 325.65C358.415 325.594 358.625 325.566 358.83 325.566C359.4 325.566 359.894 325.669 360.314 325.874C360.744 326.07 361.098 326.345 361.378 326.7C361.658 327.045 361.868 327.451 362.008 327.918C362.148 328.385 362.218 328.884 362.218 329.416C362.218 329.901 362.153 330.373 362.022 330.83C361.901 331.287 361.71 331.693 361.448 332.048C361.196 332.393 360.874 332.673 360.482 332.888C360.09 333.093 359.628 333.196 359.096 333.196C358.854 333.196 358.606 333.177 358.354 333.14C358.112 333.112 357.878 333.051 357.654 332.958C357.43 332.865 357.225 332.743 357.038 332.594C356.861 332.445 356.712 332.249 356.59 332.006H356.562V333H355.05V323.004ZM360.622 329.388C360.622 329.061 360.58 328.744 360.496 328.436C360.412 328.128 360.286 327.857 360.118 327.624C359.95 327.381 359.74 327.19 359.488 327.05C359.236 326.901 358.947 326.826 358.62 326.826C357.948 326.826 357.44 327.059 357.094 327.526C356.758 327.993 356.59 328.613 356.59 329.388C356.59 329.752 356.632 330.093 356.716 330.41C356.81 330.718 356.945 330.984 357.122 331.208C357.3 331.432 357.51 331.609 357.752 331.74C358.004 331.871 358.294 331.936 358.62 331.936C358.984 331.936 359.292 331.861 359.544 331.712C359.796 331.563 360.002 331.371 360.16 331.138C360.328 330.895 360.445 330.625 360.51 330.326C360.585 330.018 360.622 329.705 360.622 329.388ZM368.712 328.744C368.693 328.492 368.637 328.249 368.544 328.016C368.46 327.783 368.339 327.582 368.18 327.414C368.031 327.237 367.844 327.097 367.62 326.994C367.405 326.882 367.163 326.826 366.892 326.826C366.612 326.826 366.355 326.877 366.122 326.98C365.898 327.073 365.702 327.209 365.534 327.386C365.375 327.554 365.245 327.755 365.142 327.988C365.049 328.221 364.997 328.473 364.988 328.744H368.712ZM364.988 329.794C364.988 330.074 365.025 330.345 365.1 330.606C365.184 330.867 365.305 331.096 365.464 331.292C365.623 331.488 365.823 331.647 366.066 331.768C366.309 331.88 366.598 331.936 366.934 331.936C367.401 331.936 367.774 331.838 368.054 331.642C368.343 331.437 368.558 331.133 368.698 330.732H370.21C370.126 331.124 369.981 331.474 369.776 331.782C369.571 332.09 369.323 332.351 369.034 332.566C368.745 332.771 368.418 332.925 368.054 333.028C367.699 333.14 367.326 333.196 366.934 333.196C366.365 333.196 365.861 333.103 365.422 332.916C364.983 332.729 364.61 332.468 364.302 332.132C364.003 331.796 363.775 331.395 363.616 330.928C363.467 330.461 363.392 329.948 363.392 329.388C363.392 328.875 363.471 328.389 363.63 327.932C363.798 327.465 364.031 327.059 364.33 326.714C364.638 326.359 365.007 326.079 365.436 325.874C365.865 325.669 366.351 325.566 366.892 325.566C367.461 325.566 367.97 325.687 368.418 325.93C368.875 326.163 369.253 326.476 369.552 326.868C369.851 327.26 370.065 327.713 370.196 328.226C370.336 328.73 370.373 329.253 370.308 329.794H364.988ZM371.738 323.004H373.334V333H371.738V323.004Z" fill="#F15E00"/>
<path d="M394.626 325.982L393.018 324.375L389 328.393L384.982 324.375L383.374 325.982L387.393 330L383.374 334.018L384.982 335.626L389 331.607L393.018 335.626L394.626 334.018L390.607 330L394.626 325.982Z" fill="#F15E00"/>
<path d="M192.768 430.22H195.296C195.467 430.22 195.68 430.209 195.936 430.188C196.192 430.156 196.464 430.092 196.752 429.996C197.04 429.889 197.323 429.74 197.6 429.548C197.888 429.356 198.144 429.095 198.368 428.764C198.592 428.433 198.773 428.023 198.912 427.532C199.061 427.031 199.136 426.428 199.136 425.724C199.136 425.041 199.067 424.433 198.928 423.9C198.8 423.356 198.581 422.897 198.272 422.524C197.973 422.14 197.584 421.852 197.104 421.66C196.624 421.457 196.032 421.356 195.328 421.356H192.768V430.22ZM191.248 420.076H195.168C196.928 420.076 198.283 420.524 199.232 421.42C200.181 422.316 200.656 423.681 200.656 425.516C200.656 426.476 200.549 427.329 200.336 428.076C200.123 428.812 199.792 429.436 199.344 429.948C198.896 430.449 198.325 430.833 197.632 431.1C196.939 431.367 196.117 431.5 195.168 431.5H191.248V420.076ZM203.73 421.74H202.37V420.076H203.73V421.74ZM202.37 423.228H203.73V431.5H202.37V423.228ZM206.669 428.892C206.679 429.191 206.749 429.447 206.877 429.66C207.005 429.863 207.17 430.028 207.373 430.156C207.586 430.273 207.821 430.359 208.077 430.412C208.343 430.465 208.615 430.492 208.893 430.492C209.106 430.492 209.33 430.476 209.565 430.444C209.799 430.412 210.013 430.353 210.205 430.268C210.407 430.183 210.573 430.06 210.701 429.9C210.829 429.729 210.893 429.516 210.893 429.26C210.893 428.908 210.759 428.641 210.493 428.46C210.226 428.279 209.89 428.135 209.485 428.028C209.09 427.911 208.658 427.809 208.189 427.724C207.719 427.628 207.282 427.5 206.877 427.34C206.482 427.169 206.151 426.935 205.885 426.636C205.618 426.337 205.485 425.921 205.485 425.388C205.485 424.972 205.575 424.615 205.757 424.316C205.949 424.017 206.189 423.777 206.477 423.596C206.775 423.404 207.106 423.265 207.469 423.18C207.842 423.084 208.21 423.036 208.573 423.036C209.042 423.036 209.474 423.079 209.869 423.164C210.263 423.239 210.61 423.377 210.909 423.58C211.218 423.772 211.463 424.039 211.645 424.38C211.826 424.711 211.933 425.127 211.965 425.628H210.605C210.583 425.361 210.514 425.143 210.397 424.972C210.279 424.791 210.13 424.647 209.949 424.54C209.767 424.433 209.565 424.359 209.341 424.316C209.127 424.263 208.909 424.236 208.685 424.236C208.482 424.236 208.274 424.252 208.061 424.284C207.858 424.316 207.671 424.375 207.501 424.46C207.33 424.535 207.191 424.641 207.085 424.78C206.978 424.908 206.924 425.079 206.924 425.292C206.924 425.527 207.004 425.724 207.164 425.884C207.335 426.033 207.549 426.161 207.805 426.268C208.061 426.364 208.349 426.449 208.669 426.524C208.989 426.588 209.309 426.657 209.629 426.732C209.97 426.807 210.301 426.897 210.621 427.004C210.951 427.111 211.239 427.255 211.485 427.436C211.741 427.607 211.943 427.825 212.093 428.092C212.253 428.359 212.333 428.689 212.333 429.084C212.333 429.585 212.226 430.001 212.013 430.332C211.81 430.663 211.538 430.929 211.197 431.132C210.866 431.335 210.487 431.473 210.061 431.548C209.645 431.633 209.229 431.676 208.812 431.676C208.354 431.676 207.917 431.628 207.501 431.532C207.085 431.436 206.717 431.281 206.397 431.068C206.077 430.844 205.821 430.556 205.629 430.204C205.437 429.841 205.33 429.404 205.309 428.892H206.669ZM221.165 431.468C220.93 431.607 220.605 431.676 220.189 431.676C219.837 431.676 219.554 431.58 219.341 431.388C219.138 431.185 219.037 430.86 219.037 430.412C218.663 430.86 218.226 431.185 217.725 431.388C217.234 431.58 216.701 431.676 216.125 431.676C215.751 431.676 215.394 431.633 215.053 431.548C214.722 431.463 214.434 431.329 214.189 431.148C213.943 430.967 213.746 430.732 213.597 430.444C213.458 430.145 213.389 429.788 213.389 429.372C213.389 428.903 213.469 428.519 213.629 428.22C213.789 427.921 213.997 427.681 214.253 427.5C214.519 427.308 214.818 427.164 215.149 427.068C215.49 426.972 215.837 426.892 216.189 426.828C216.562 426.753 216.914 426.7 217.245 426.668C217.586 426.625 217.885 426.572 218.141 426.508C218.397 426.433 218.599 426.332 218.749 426.204C218.898 426.065 218.973 425.868 218.973 425.612C218.973 425.313 218.914 425.073 218.797 424.892C218.69 424.711 218.546 424.572 218.365 424.476C218.194 424.38 217.997 424.316 217.773 424.284C217.559 424.252 217.346 424.236 217.133 424.236C216.557 424.236 216.077 424.348 215.693 424.572C215.309 424.785 215.101 425.196 215.069 425.804H213.709C213.73 425.292 213.837 424.86 214.029 424.508C214.221 424.156 214.477 423.873 214.797 423.66C215.117 423.436 215.479 423.276 215.885 423.18C216.301 423.084 216.743 423.036 217.213 423.036C217.586 423.036 217.954 423.063 218.317 423.116C218.69 423.169 219.026 423.281 219.325 423.452C219.623 423.612 219.863 423.841 220.045 424.14C220.226 424.439 220.317 424.828 220.317 425.308V429.564C220.317 429.884 220.333 430.119 220.365 430.268C220.407 430.417 220.535 430.492 220.749 430.492C220.866 430.492 221.005 430.465 221.165 430.412V431.468ZM218.957 427.228C218.786 427.356 218.562 427.452 218.285 427.516C218.007 427.569 217.714 427.617 217.405 427.66C217.106 427.692 216.802 427.735 216.493 427.788C216.183 427.831 215.906 427.905 215.661 428.012C215.415 428.119 215.213 428.273 215.053 428.476C214.903 428.668 214.829 428.935 214.829 429.276C214.829 429.5 214.871 429.692 214.957 429.852C215.053 430.001 215.17 430.124 215.309 430.22C215.458 430.316 215.629 430.385 215.821 430.428C216.013 430.471 216.215 430.492 216.429 430.492C216.877 430.492 217.261 430.433 217.581 430.316C217.901 430.188 218.162 430.033 218.365 429.852C218.567 429.66 218.717 429.457 218.813 429.244C218.909 429.02 218.957 428.812 218.957 428.62V427.228ZM222.478 420.076H223.838V424.348H223.87C224.094 423.889 224.446 423.559 224.926 423.356C225.406 423.143 225.934 423.036 226.51 423.036C227.15 423.036 227.705 423.153 228.174 423.388C228.654 423.623 229.049 423.943 229.358 424.348C229.678 424.743 229.918 425.201 230.078 425.724C230.238 426.247 230.318 426.801 230.318 427.388C230.318 427.975 230.238 428.529 230.078 429.052C229.929 429.575 229.694 430.033 229.374 430.428C229.065 430.812 228.67 431.116 228.19 431.34C227.721 431.564 227.172 431.676 226.542 431.676C226.34 431.676 226.11 431.655 225.854 431.612C225.609 431.569 225.364 431.5 225.118 431.404C224.873 431.308 224.638 431.18 224.414 431.02C224.201 430.849 224.02 430.641 223.87 430.396H223.838V431.5H222.478V420.076ZM228.878 427.292C228.878 426.908 228.825 426.535 228.718 426.172C228.622 425.799 228.468 425.468 228.254 425.18C228.052 424.892 227.785 424.663 227.454 424.492C227.134 424.321 226.756 424.236 226.318 424.236C225.86 424.236 225.47 424.327 225.15 424.508C224.83 424.689 224.569 424.929 224.366 425.228C224.164 425.516 224.014 425.847 223.918 426.22C223.833 426.593 223.79 426.972 223.79 427.356C223.79 427.761 223.838 428.156 223.934 428.54C224.03 428.913 224.18 429.244 224.382 429.532C224.596 429.82 224.868 430.055 225.198 430.236C225.529 430.407 225.929 430.492 226.398 430.492C226.868 430.492 227.257 430.401 227.566 430.22C227.886 430.039 228.142 429.799 228.334 429.5C228.526 429.201 228.665 428.86 228.75 428.476C228.836 428.092 228.878 427.697 228.878 427.292ZM231.995 420.076H233.355V431.5H231.995V420.076ZM241.206 426.572C241.184 426.252 241.11 425.948 240.982 425.66C240.864 425.372 240.699 425.127 240.486 424.924C240.283 424.711 240.038 424.545 239.75 424.428C239.472 424.3 239.163 424.236 238.822 424.236C238.47 424.236 238.15 424.3 237.862 424.428C237.584 424.545 237.344 424.711 237.142 424.924C236.939 425.137 236.779 425.388 236.662 425.676C236.544 425.953 236.475 426.252 236.454 426.572H241.206ZM242.517 428.876C242.336 429.804 241.936 430.503 241.318 430.972C240.699 431.441 239.92 431.676 238.982 431.676C238.32 431.676 237.744 431.569 237.254 431.356C236.774 431.143 236.368 430.844 236.038 430.46C235.707 430.076 235.456 429.617 235.286 429.084C235.126 428.551 235.035 427.969 235.014 427.34C235.014 426.711 235.11 426.135 235.302 425.612C235.494 425.089 235.76 424.636 236.102 424.252C236.454 423.868 236.864 423.569 237.334 423.356C237.814 423.143 238.336 423.036 238.902 423.036C239.638 423.036 240.246 423.191 240.726 423.5C241.216 423.799 241.606 424.183 241.894 424.652C242.192 425.121 242.395 425.633 242.502 426.188C242.619 426.743 242.667 427.271 242.646 427.772H236.454C236.443 428.135 236.486 428.481 236.582 428.812C236.678 429.132 236.832 429.42 237.046 429.676C237.259 429.921 237.531 430.119 237.862 430.268C238.192 430.417 238.582 430.492 239.03 430.492C239.606 430.492 240.075 430.359 240.438 430.092C240.811 429.825 241.056 429.42 241.174 428.876H242.517ZM245.047 427.436C245.047 427.82 245.095 428.199 245.191 428.572C245.298 428.935 245.453 429.26 245.655 429.548C245.869 429.836 246.135 430.065 246.455 430.236C246.786 430.407 247.17 430.492 247.607 430.492C248.066 430.492 248.455 430.401 248.775 430.22C249.095 430.039 249.357 429.804 249.559 429.516C249.762 429.217 249.906 428.881 249.991 428.508C250.087 428.135 250.135 427.756 250.135 427.372C250.135 426.967 250.087 426.577 249.991 426.204C249.895 425.82 249.741 425.484 249.527 425.196C249.325 424.908 249.058 424.679 248.727 424.508C248.397 424.327 247.997 424.236 247.527 424.236C247.069 424.236 246.679 424.327 246.359 424.508C246.039 424.689 245.783 424.929 245.591 425.228C245.399 425.527 245.261 425.868 245.175 426.252C245.09 426.636 245.047 427.031 245.047 427.436ZM251.447 431.5H250.087V430.38H250.055C249.831 430.839 249.479 431.169 248.999 431.372C248.519 431.575 247.991 431.676 247.415 431.676C246.775 431.676 246.215 431.559 245.735 431.324C245.266 431.089 244.871 430.775 244.551 430.38C244.242 429.985 244.007 429.527 243.847 429.004C243.687 428.481 243.607 427.927 243.607 427.34C243.607 426.753 243.682 426.199 243.831 425.676C243.991 425.153 244.226 424.7 244.535 424.316C244.855 423.921 245.25 423.612 245.719 423.388C246.199 423.153 246.754 423.036 247.383 423.036C247.597 423.036 247.826 423.057 248.071 423.1C248.317 423.143 248.562 423.217 248.807 423.324C249.053 423.42 249.282 423.553 249.495 423.724C249.719 423.884 249.906 424.087 250.055 424.332H250.087V420.076H251.447V431.5Z" fill="black" fill-opacity="0.68"/>
<mask id="path-17-inside-4_60936_50060" fill="white">
<path d="M326 426C326 417.163 333.163 410 342 410H387C395.837 410 403 417.163 403 426C403 434.837 395.837 442 387 442H342C333.163 442 326 434.837 326 426Z"/>
</mask>
<path d="M342 410V411H387V410V409H342V410ZM387 442V441H342V442V443H387V442ZM342 442V441C333.716 441 327 434.284 327 426H326H325C325 435.389 332.611 443 342 443V442ZM403 426H402C402 434.284 395.284 441 387 441V442V443C396.389 443 404 435.389 404 426H403ZM387 410V411C395.284 411 402 417.716 402 426H403H404C404 416.611 396.389 409 387 409V410ZM342 410V409C332.611 409 325 416.611 325 426H326H327C327 417.716 333.716 411 342 411V410Z" fill="black" fill-opacity="0.2" mask="url(#path-17-inside-4_60936_50060)"/>
<path d="M339.064 421.004H340.814V429.488H345.896V431H339.064V421.004ZM353.116 429.39C353.116 429.586 353.139 429.726 353.186 429.81C353.242 429.894 353.345 429.936 353.494 429.936C353.541 429.936 353.597 429.936 353.662 429.936C353.727 429.936 353.802 429.927 353.886 429.908V431.014C353.83 431.033 353.755 431.051 353.662 431.07C353.578 431.098 353.489 431.121 353.396 431.14C353.303 431.159 353.209 431.173 353.116 431.182C353.023 431.191 352.943 431.196 352.878 431.196C352.551 431.196 352.281 431.131 352.066 431C351.851 430.869 351.711 430.641 351.646 430.314C351.329 430.622 350.937 430.846 350.47 430.986C350.013 431.126 349.569 431.196 349.14 431.196C348.813 431.196 348.501 431.149 348.202 431.056C347.903 430.972 347.637 430.846 347.404 430.678C347.18 430.501 346.998 430.281 346.858 430.02C346.727 429.749 346.662 429.437 346.662 429.082C346.662 428.634 346.741 428.27 346.9 427.99C347.068 427.71 347.283 427.491 347.544 427.332C347.815 427.173 348.113 427.061 348.44 426.996C348.776 426.921 349.112 426.865 349.448 426.828C349.737 426.772 350.013 426.735 350.274 426.716C350.535 426.688 350.764 426.646 350.96 426.59C351.165 426.534 351.324 426.45 351.436 426.338C351.557 426.217 351.618 426.039 351.618 425.806C351.618 425.601 351.567 425.433 351.464 425.302C351.371 425.171 351.249 425.073 351.1 425.008C350.96 424.933 350.801 424.887 350.624 424.868C350.447 424.84 350.279 424.826 350.12 424.826C349.672 424.826 349.303 424.919 349.014 425.106C348.725 425.293 348.561 425.582 348.524 425.974H346.928C346.956 425.507 347.068 425.12 347.264 424.812C347.46 424.504 347.707 424.257 348.006 424.07C348.314 423.883 348.659 423.753 349.042 423.678C349.425 423.603 349.817 423.566 350.218 423.566C350.573 423.566 350.923 423.603 351.268 423.678C351.613 423.753 351.921 423.874 352.192 424.042C352.472 424.21 352.696 424.429 352.864 424.7C353.032 424.961 353.116 425.283 353.116 425.666V429.39ZM351.52 427.374C351.277 427.533 350.979 427.631 350.624 427.668C350.269 427.696 349.915 427.743 349.56 427.808C349.392 427.836 349.229 427.878 349.07 427.934C348.911 427.981 348.771 428.051 348.65 428.144C348.529 428.228 348.431 428.345 348.356 428.494C348.291 428.634 348.258 428.807 348.258 429.012C348.258 429.189 348.309 429.339 348.412 429.46C348.515 429.581 348.636 429.679 348.776 429.754C348.925 429.819 349.084 429.866 349.252 429.894C349.429 429.922 349.588 429.936 349.728 429.936C349.905 429.936 350.097 429.913 350.302 429.866C350.507 429.819 350.699 429.74 350.876 429.628C351.063 429.516 351.217 429.376 351.338 429.208C351.459 429.031 351.52 428.816 351.52 428.564V427.374ZM355.05 421.004H356.646V424.7H356.674C356.786 424.523 356.922 424.364 357.08 424.224C357.239 424.084 357.412 423.967 357.598 423.874C357.794 423.771 357.995 423.697 358.2 423.65C358.415 423.594 358.625 423.566 358.83 423.566C359.4 423.566 359.894 423.669 360.314 423.874C360.744 424.07 361.098 424.345 361.378 424.7C361.658 425.045 361.868 425.451 362.008 425.918C362.148 426.385 362.218 426.884 362.218 427.416C362.218 427.901 362.153 428.373 362.022 428.83C361.901 429.287 361.71 429.693 361.448 430.048C361.196 430.393 360.874 430.673 360.482 430.888C360.09 431.093 359.628 431.196 359.096 431.196C358.854 431.196 358.606 431.177 358.354 431.14C358.112 431.112 357.878 431.051 357.654 430.958C357.43 430.865 357.225 430.743 357.038 430.594C356.861 430.445 356.712 430.249 356.59 430.006H356.562V431H355.05V421.004ZM360.622 427.388C360.622 427.061 360.58 426.744 360.496 426.436C360.412 426.128 360.286 425.857 360.118 425.624C359.95 425.381 359.74 425.19 359.488 425.05C359.236 424.901 358.947 424.826 358.62 424.826C357.948 424.826 357.44 425.059 357.094 425.526C356.758 425.993 356.59 426.613 356.59 427.388C356.59 427.752 356.632 428.093 356.716 428.41C356.81 428.718 356.945 428.984 357.122 429.208C357.3 429.432 357.51 429.609 357.752 429.74C358.004 429.871 358.294 429.936 358.62 429.936C358.984 429.936 359.292 429.861 359.544 429.712C359.796 429.563 360.002 429.371 360.16 429.138C360.328 428.895 360.445 428.625 360.51 428.326C360.585 428.018 360.622 427.705 360.622 427.388ZM368.712 426.744C368.693 426.492 368.637 426.249 368.544 426.016C368.46 425.783 368.339 425.582 368.18 425.414C368.031 425.237 367.844 425.097 367.62 424.994C367.405 424.882 367.163 424.826 366.892 424.826C366.612 424.826 366.355 424.877 366.122 424.98C365.898 425.073 365.702 425.209 365.534 425.386C365.375 425.554 365.245 425.755 365.142 425.988C365.049 426.221 364.997 426.473 364.988 426.744H368.712ZM364.988 427.794C364.988 428.074 365.025 428.345 365.1 428.606C365.184 428.867 365.305 429.096 365.464 429.292C365.623 429.488 365.823 429.647 366.066 429.768C366.309 429.88 366.598 429.936 366.934 429.936C367.401 429.936 367.774 429.838 368.054 429.642C368.343 429.437 368.558 429.133 368.698 428.732H370.21C370.126 429.124 369.981 429.474 369.776 429.782C369.571 430.09 369.323 430.351 369.034 430.566C368.745 430.771 368.418 430.925 368.054 431.028C367.699 431.14 367.326 431.196 366.934 431.196C366.365 431.196 365.861 431.103 365.422 430.916C364.983 430.729 364.61 430.468 364.302 430.132C364.003 429.796 363.775 429.395 363.616 428.928C363.467 428.461 363.392 427.948 363.392 427.388C363.392 426.875 363.471 426.389 363.63 425.932C363.798 425.465 364.031 425.059 364.33 424.714C364.638 424.359 365.007 424.079 365.436 423.874C365.865 423.669 366.351 423.566 366.892 423.566C367.461 423.566 367.97 423.687 368.418 423.93C368.875 424.163 369.253 424.476 369.552 424.868C369.851 425.26 370.065 425.713 370.196 426.226C370.336 426.73 370.373 427.253 370.308 427.794H364.988ZM371.738 421.004H373.334V431H371.738V421.004Z" fill="black" fill-opacity="0.2"/>
<path d="M394.626 423.982L393.018 422.375L389 426.393L384.982 422.375L383.374 423.982L387.393 428L383.374 432.018L384.982 433.626L389 429.607L393.018 433.626L394.626 432.018L390.607 428L394.626 423.982Z" fill="black" fill-opacity="0.2"/>
<path d="M191.248 518.076H198.752V519.356H192.768V522.988H198.016V524.268H192.768V529.5H191.248V518.076ZM201.204 525.372C201.204 525.873 201.268 526.321 201.396 526.716C201.534 527.1 201.721 527.425 201.956 527.692C202.19 527.948 202.462 528.145 202.772 528.284C203.092 528.423 203.428 528.492 203.78 528.492C204.132 528.492 204.462 528.423 204.772 528.284C205.092 528.145 205.369 527.948 205.604 527.692C205.838 527.425 206.02 527.1 206.148 526.716C206.286 526.321 206.356 525.873 206.356 525.372C206.356 524.871 206.286 524.428 206.148 524.044C206.02 523.649 205.838 523.319 205.604 523.052C205.369 522.785 205.092 522.583 204.772 522.444C204.462 522.305 204.132 522.236 203.78 522.236C203.428 522.236 203.092 522.305 202.772 522.444C202.462 522.583 202.19 522.785 201.956 523.052C201.721 523.319 201.534 523.649 201.396 524.044C201.268 524.428 201.204 524.871 201.204 525.372ZM199.764 525.372C199.764 524.764 199.849 524.199 200.02 523.676C200.19 523.143 200.446 522.684 200.788 522.3C201.129 521.905 201.55 521.596 202.052 521.372C202.553 521.148 203.129 521.036 203.78 521.036C204.441 521.036 205.017 521.148 205.508 521.372C206.009 521.596 206.43 521.905 206.772 522.3C207.113 522.684 207.369 523.143 207.54 523.676C207.71 524.199 207.796 524.764 207.796 525.372C207.796 525.98 207.71 526.545 207.54 527.068C207.369 527.591 207.113 528.049 206.772 528.444C206.43 528.828 206.009 529.132 205.508 529.356C205.017 529.569 204.441 529.676 203.78 529.676C203.129 529.676 202.553 529.569 202.052 529.356C201.55 529.132 201.129 528.828 200.788 528.444C200.446 528.049 200.19 527.591 200.02 527.068C199.849 526.545 199.764 525.98 199.764 525.372ZM215.015 523.884C214.908 523.361 214.684 522.956 214.343 522.668C214.002 522.38 213.543 522.236 212.967 522.236C212.476 522.236 212.066 522.327 211.735 522.508C211.404 522.689 211.138 522.929 210.935 523.228C210.743 523.527 210.604 523.873 210.519 524.268C210.434 524.652 210.391 525.052 210.391 525.468C210.391 525.852 210.434 526.225 210.519 526.588C210.615 526.951 210.759 527.276 210.951 527.564C211.143 527.841 211.394 528.065 211.703 528.236C212.012 528.407 212.38 528.492 212.807 528.492C213.479 528.492 214.002 528.316 214.375 527.964C214.759 527.612 214.994 527.116 215.079 526.476H216.471C216.322 527.5 215.938 528.289 215.319 528.844C214.711 529.399 213.879 529.676 212.823 529.676C212.194 529.676 211.634 529.575 211.143 529.372C210.663 529.169 210.258 528.881 209.927 528.508C209.607 528.135 209.362 527.692 209.191 527.18C209.031 526.657 208.951 526.087 208.951 525.468C208.951 524.849 209.031 524.273 209.191 523.74C209.351 523.196 209.591 522.727 209.911 522.332C210.242 521.927 210.652 521.612 211.143 521.388C211.634 521.153 212.204 521.036 212.855 521.036C213.324 521.036 213.762 521.095 214.167 521.212C214.583 521.319 214.946 521.489 215.255 521.724C215.575 521.959 215.836 522.257 216.039 522.62C216.242 522.972 216.37 523.393 216.423 523.884H215.015ZM224.841 529.5H223.561V528.188H223.529C223.241 528.7 222.873 529.079 222.425 529.324C221.977 529.559 221.449 529.676 220.841 529.676C220.297 529.676 219.843 529.607 219.481 529.468C219.118 529.319 218.825 529.111 218.601 528.844C218.377 528.577 218.217 528.263 218.121 527.9C218.035 527.527 217.993 527.116 217.993 526.668V521.228H219.353V526.828C219.353 527.34 219.502 527.745 219.801 528.044C220.099 528.343 220.51 528.492 221.033 528.492C221.449 528.492 221.806 528.428 222.105 528.3C222.414 528.172 222.67 527.991 222.873 527.756C223.075 527.521 223.225 527.249 223.321 526.94C223.427 526.62 223.481 526.273 223.481 525.9V521.228H224.841V529.5ZM227.715 526.892C227.726 527.191 227.795 527.447 227.923 527.66C228.051 527.863 228.217 528.028 228.419 528.156C228.633 528.273 228.867 528.359 229.123 528.412C229.39 528.465 229.662 528.492 229.939 528.492C230.153 528.492 230.377 528.476 230.611 528.444C230.846 528.412 231.059 528.353 231.251 528.268C231.454 528.183 231.619 528.06 231.747 527.9C231.875 527.729 231.939 527.516 231.939 527.26C231.939 526.908 231.806 526.641 231.539 526.46C231.273 526.279 230.937 526.135 230.531 526.028C230.137 525.911 229.705 525.809 229.235 525.724C228.766 525.628 228.329 525.5 227.923 525.34C227.529 525.169 227.198 524.935 226.931 524.636C226.665 524.337 226.531 523.921 226.531 523.388C226.531 522.972 226.622 522.615 226.803 522.316C226.995 522.017 227.235 521.777 227.523 521.596C227.822 521.404 228.153 521.265 228.515 521.18C228.889 521.084 229.257 521.036 229.619 521.036C230.089 521.036 230.521 521.079 230.915 521.164C231.31 521.239 231.657 521.377 231.955 521.58C232.265 521.772 232.51 522.039 232.691 522.38C232.873 522.711 232.979 523.127 233.011 523.628H231.651C231.63 523.361 231.561 523.143 231.443 522.972C231.326 522.791 231.177 522.647 230.995 522.54C230.814 522.433 230.611 522.359 230.387 522.316C230.174 522.263 229.955 522.236 229.731 522.236C229.529 522.236 229.321 522.252 229.107 522.284C228.905 522.316 228.718 522.375 228.547 522.46C228.377 522.535 228.238 522.641 228.131 522.78C228.025 522.908 227.971 523.079 227.971 523.292C227.971 523.527 228.051 523.724 228.211 523.884C228.382 524.033 228.595 524.161 228.851 524.268C229.107 524.364 229.395 524.449 229.715 524.524C230.035 524.588 230.355 524.657 230.675 524.732C231.017 524.807 231.347 524.897 231.667 525.004C231.998 525.111 232.286 525.255 232.531 525.436C232.787 525.607 232.99 525.825 233.139 526.092C233.299 526.359 233.379 526.689 233.379 527.084C233.379 527.585 233.273 528.001 233.059 528.332C232.857 528.663 232.585 528.929 232.243 529.132C231.913 529.335 231.534 529.473 231.107 529.548C230.691 529.633 230.275 529.676 229.859 529.676C229.401 529.676 228.963 529.628 228.547 529.532C228.131 529.436 227.763 529.281 227.443 529.068C227.123 528.844 226.867 528.556 226.675 528.204C226.483 527.841 226.377 527.404 226.355 526.892H227.715Z" fill="black" fill-opacity="0.68"/>
<mask id="path-22-outside-5_60936_50060" maskUnits="userSpaceOnUse" x="321" y="503" width="87" height="42" fill="black">
<rect fill="white" x="321" y="503" width="87" height="42"/>
<path d="M326 524C326 515.163 333.163 508 342 508H387C395.837 508 403 515.163 403 524C403 532.837 395.837 540 387 540H342C333.163 540 326 532.837 326 524Z"/>
</mask>
<path d="M342 508V513H387V508V503H342V508ZM387 540V535H342V540V545H387V540ZM342 540V535C335.925 535 331 530.075 331 524H326H321C321 535.598 330.402 545 342 545V540ZM403 524H398C398 530.075 393.075 535 387 535V540V545C398.598 545 408 535.598 408 524H403ZM387 508V513C393.075 513 398 517.925 398 524H403H408C408 512.402 398.598 503 387 503V508ZM342 508V503C330.402 503 321 512.402 321 524H326H331C331 517.925 335.925 513 342 513V508Z" fill="black" mask="url(#path-22-outside-5_60936_50060)"/>
<mask id="path-24-outside-6_60936_50060" maskUnits="userSpaceOnUse" x="324" y="506" width="81" height="36" fill="black">
<rect fill="white" x="324" y="506" width="81" height="36"/>
<path d="M326 524C326 515.163 333.163 508 342 508H387C395.837 508 403 515.163 403 524C403 532.837 395.837 540 387 540H342C333.163 540 326 532.837 326 524Z"/>
</mask>
<path d="M342 508V510H387V508V506H342V508ZM387 540V538H342V540V542H387V540ZM342 540V538C334.268 538 328 531.732 328 524H326H324C324 533.941 332.059 542 342 542V540ZM403 524H401C401 531.732 394.732 538 387 538V540V542C396.941 542 405 533.941 405 524H403ZM387 508V510C394.732 510 401 516.268 401 524H403H405C405 514.059 396.941 506 387 506V508ZM342 508V506C332.059 506 324 514.059 324 524H326H328C328 516.268 334.268 510 342 510V508Z" fill="white" mask="url(#path-24-outside-6_60936_50060)"/>
<mask id="path-26-inside-7_60936_50060" fill="white">
<path d="M326 524C326 515.163 333.163 508 342 508H387C395.837 508 403 515.163 403 524C403 532.837 395.837 540 387 540H342C333.163 540 326 532.837 326 524Z"/>
</mask>
<path d="M326 524C326 515.163 333.163 508 342 508H387C395.837 508 403 515.163 403 524C403 532.837 395.837 540 387 540H342C333.163 540 326 532.837 326 524Z" fill="black" fill-opacity="0.08"/>
<path d="M342 508V510H387V508V506H342V508ZM387 540V538H342V540V542H387V540ZM342 540V538C334.268 538 328 531.732 328 524H326H324C324 533.941 332.059 542 342 542V540ZM403 524H401C401 531.732 394.732 538 387 538V540V542C396.941 542 405 533.941 405 524H403ZM387 508V510C394.732 510 401 516.268 401 524H403H405C405 514.059 396.941 506 387 506V508ZM342 508V506C332.059 506 324 514.059 324 524H326H328C328 516.268 334.268 510 342 510V508Z" fill="black" fill-opacity="0.68" mask="url(#path-26-inside-7_60936_50060)"/>
<path d="M339.064 519.004H340.814V527.488H345.896V529H339.064V519.004ZM353.116 527.39C353.116 527.586 353.139 527.726 353.186 527.81C353.242 527.894 353.345 527.936 353.494 527.936C353.541 527.936 353.597 527.936 353.662 527.936C353.727 527.936 353.802 527.927 353.886 527.908V529.014C353.83 529.033 353.755 529.051 353.662 529.07C353.578 529.098 353.489 529.121 353.396 529.14C353.303 529.159 353.209 529.173 353.116 529.182C353.023 529.191 352.943 529.196 352.878 529.196C352.551 529.196 352.281 529.131 352.066 529C351.851 528.869 351.711 528.641 351.646 528.314C351.329 528.622 350.937 528.846 350.47 528.986C350.013 529.126 349.569 529.196 349.14 529.196C348.813 529.196 348.501 529.149 348.202 529.056C347.903 528.972 347.637 528.846 347.404 528.678C347.18 528.501 346.998 528.281 346.858 528.02C346.727 527.749 346.662 527.437 346.662 527.082C346.662 526.634 346.741 526.27 346.9 525.99C347.068 525.71 347.283 525.491 347.544 525.332C347.815 525.173 348.113 525.061 348.44 524.996C348.776 524.921 349.112 524.865 349.448 524.828C349.737 524.772 350.013 524.735 350.274 524.716C350.535 524.688 350.764 524.646 350.96 524.59C351.165 524.534 351.324 524.45 351.436 524.338C351.557 524.217 351.618 524.039 351.618 523.806C351.618 523.601 351.567 523.433 351.464 523.302C351.371 523.171 351.249 523.073 351.1 523.008C350.96 522.933 350.801 522.887 350.624 522.868C350.447 522.84 350.279 522.826 350.12 522.826C349.672 522.826 349.303 522.919 349.014 523.106C348.725 523.293 348.561 523.582 348.524 523.974H346.928C346.956 523.507 347.068 523.12 347.264 522.812C347.46 522.504 347.707 522.257 348.006 522.07C348.314 521.883 348.659 521.753 349.042 521.678C349.425 521.603 349.817 521.566 350.218 521.566C350.573 521.566 350.923 521.603 351.268 521.678C351.613 521.753 351.921 521.874 352.192 522.042C352.472 522.21 352.696 522.429 352.864 522.7C353.032 522.961 353.116 523.283 353.116 523.666V527.39ZM351.52 525.374C351.277 525.533 350.979 525.631 350.624 525.668C350.269 525.696 349.915 525.743 349.56 525.808C349.392 525.836 349.229 525.878 349.07 525.934C348.911 525.981 348.771 526.051 348.65 526.144C348.529 526.228 348.431 526.345 348.356 526.494C348.291 526.634 348.258 526.807 348.258 527.012C348.258 527.189 348.309 527.339 348.412 527.46C348.515 527.581 348.636 527.679 348.776 527.754C348.925 527.819 349.084 527.866 349.252 527.894C349.429 527.922 349.588 527.936 349.728 527.936C349.905 527.936 350.097 527.913 350.302 527.866C350.507 527.819 350.699 527.74 350.876 527.628C351.063 527.516 351.217 527.376 351.338 527.208C351.459 527.031 351.52 526.816 351.52 526.564V525.374ZM355.05 519.004H356.646V522.7H356.674C356.786 522.523 356.922 522.364 357.08 522.224C357.239 522.084 357.412 521.967 357.598 521.874C357.794 521.771 357.995 521.697 358.2 521.65C358.415 521.594 358.625 521.566 358.83 521.566C359.4 521.566 359.894 521.669 360.314 521.874C360.744 522.07 361.098 522.345 361.378 522.7C361.658 523.045 361.868 523.451 362.008 523.918C362.148 524.385 362.218 524.884 362.218 525.416C362.218 525.901 362.153 526.373 362.022 526.83C361.901 527.287 361.71 527.693 361.448 528.048C361.196 528.393 360.874 528.673 360.482 528.888C360.09 529.093 359.628 529.196 359.096 529.196C358.854 529.196 358.606 529.177 358.354 529.14C358.112 529.112 357.878 529.051 357.654 528.958C357.43 528.865 357.225 528.743 357.038 528.594C356.861 528.445 356.712 528.249 356.59 528.006H356.562V529H355.05V519.004ZM360.622 525.388C360.622 525.061 360.58 524.744 360.496 524.436C360.412 524.128 360.286 523.857 360.118 523.624C359.95 523.381 359.74 523.19 359.488 523.05C359.236 522.901 358.947 522.826 358.62 522.826C357.948 522.826 357.44 523.059 357.094 523.526C356.758 523.993 356.59 524.613 356.59 525.388C356.59 525.752 356.632 526.093 356.716 526.41C356.81 526.718 356.945 526.984 357.122 527.208C357.3 527.432 357.51 527.609 357.752 527.74C358.004 527.871 358.294 527.936 358.62 527.936C358.984 527.936 359.292 527.861 359.544 527.712C359.796 527.563 360.002 527.371 360.16 527.138C360.328 526.895 360.445 526.625 360.51 526.326C360.585 526.018 360.622 525.705 360.622 525.388ZM368.712 524.744C368.693 524.492 368.637 524.249 368.544 524.016C368.46 523.783 368.339 523.582 368.18 523.414C368.031 523.237 367.844 523.097 367.62 522.994C367.405 522.882 367.163 522.826 366.892 522.826C366.612 522.826 366.355 522.877 366.122 522.98C365.898 523.073 365.702 523.209 365.534 523.386C365.375 523.554 365.245 523.755 365.142 523.988C365.049 524.221 364.997 524.473 364.988 524.744H368.712ZM364.988 525.794C364.988 526.074 365.025 526.345 365.1 526.606C365.184 526.867 365.305 527.096 365.464 527.292C365.623 527.488 365.823 527.647 366.066 527.768C366.309 527.88 366.598 527.936 366.934 527.936C367.401 527.936 367.774 527.838 368.054 527.642C368.343 527.437 368.558 527.133 368.698 526.732H370.21C370.126 527.124 369.981 527.474 369.776 527.782C369.571 528.09 369.323 528.351 369.034 528.566C368.745 528.771 368.418 528.925 368.054 529.028C367.699 529.14 367.326 529.196 366.934 529.196C366.365 529.196 365.861 529.103 365.422 528.916C364.983 528.729 364.61 528.468 364.302 528.132C364.003 527.796 363.775 527.395 363.616 526.928C363.467 526.461 363.392 525.948 363.392 525.388C363.392 524.875 363.471 524.389 363.63 523.932C363.798 523.465 364.031 523.059 364.33 522.714C364.638 522.359 365.007 522.079 365.436 521.874C365.865 521.669 366.351 521.566 366.892 521.566C367.461 521.566 367.97 521.687 368.418 521.93C368.875 522.163 369.253 522.476 369.552 522.868C369.851 523.26 370.065 523.713 370.196 524.226C370.336 524.73 370.373 525.253 370.308 525.794H364.988ZM371.738 519.004H373.334V529H371.738V519.004Z" fill="black" fill-opacity="0.68"/>
<path d="M394.626 521.982L393.018 520.375L389 524.393L384.982 520.375L383.374 521.982L387.393 526L383.374 530.018L384.982 531.626L389 527.607L393.018 531.626L394.626 530.018L390.607 526L394.626 521.982Z" fill="black" fill-opacity="0.68"/>
<path d="M197.856 619.42C197.771 618.599 197.472 618.007 196.96 617.644C196.459 617.271 195.813 617.084 195.024 617.084C194.704 617.084 194.389 617.116 194.08 617.18C193.771 617.244 193.493 617.351 193.248 617.5C193.013 617.649 192.821 617.852 192.672 618.108C192.533 618.353 192.464 618.663 192.464 619.036C192.464 619.388 192.565 619.676 192.768 619.9C192.981 620.113 193.259 620.289 193.6 620.428C193.952 620.567 194.347 620.684 194.784 620.78C195.221 620.865 195.664 620.961 196.112 621.068C196.571 621.175 197.019 621.303 197.456 621.452C197.893 621.591 198.283 621.783 198.624 622.028C198.976 622.273 199.253 622.583 199.456 622.956C199.669 623.329 199.776 623.799 199.776 624.364C199.776 624.972 199.637 625.495 199.36 625.932C199.093 626.359 198.747 626.711 198.32 626.988C197.893 627.255 197.413 627.447 196.88 627.564C196.357 627.692 195.835 627.756 195.312 627.756C194.672 627.756 194.064 627.676 193.488 627.516C192.923 627.356 192.421 627.116 191.984 626.796C191.557 626.465 191.216 626.049 190.96 625.548C190.715 625.036 190.592 624.433 190.592 623.74H192.032C192.032 624.22 192.123 624.636 192.304 624.988C192.496 625.329 192.741 625.612 193.04 625.836C193.349 626.06 193.707 626.225 194.112 626.332C194.517 626.439 194.933 626.492 195.36 626.492C195.701 626.492 196.043 626.46 196.384 626.396C196.736 626.332 197.051 626.225 197.328 626.076C197.605 625.916 197.829 625.703 198 625.436C198.171 625.169 198.256 624.828 198.256 624.412C198.256 624.017 198.149 623.697 197.936 623.452C197.733 623.207 197.456 623.009 197.104 622.86C196.763 622.7 196.373 622.572 195.936 622.476C195.499 622.38 195.051 622.284 194.592 622.188C194.144 622.081 193.701 621.964 193.264 621.836C192.827 621.697 192.432 621.521 192.08 621.308C191.739 621.084 191.461 620.801 191.248 620.46C191.045 620.108 190.944 619.671 190.944 619.148C190.944 618.572 191.061 618.076 191.296 617.66C191.531 617.233 191.84 616.887 192.224 616.62C192.619 616.343 193.061 616.14 193.552 616.012C194.053 615.873 194.565 615.804 195.088 615.804C195.675 615.804 196.219 615.873 196.72 616.012C197.221 616.151 197.659 616.369 198.032 616.668C198.416 616.967 198.715 617.345 198.928 617.804C199.152 618.252 199.275 618.791 199.296 619.42H197.856ZM201.479 616.076H202.839V622.844L206.615 619.228H208.439L205.159 622.236L208.679 627.5H206.951L204.119 623.18L202.839 624.364V627.5H201.479V616.076ZM215.44 622.572C215.419 622.252 215.344 621.948 215.216 621.66C215.099 621.372 214.933 621.127 214.72 620.924C214.517 620.711 214.272 620.545 213.984 620.428C213.707 620.3 213.397 620.236 213.056 620.236C212.704 620.236 212.384 620.3 212.096 620.428C211.819 620.545 211.579 620.711 211.376 620.924C211.173 621.137 211.013 621.388 210.896 621.676C210.779 621.953 210.709 622.252 210.688 622.572H215.44ZM216.752 624.876C216.571 625.804 216.171 626.503 215.552 626.972C214.933 627.441 214.155 627.676 213.216 627.676C212.555 627.676 211.979 627.569 211.488 627.356C211.008 627.143 210.603 626.844 210.272 626.46C209.941 626.076 209.691 625.617 209.52 625.084C209.36 624.551 209.269 623.969 209.248 623.34C209.248 622.711 209.344 622.135 209.536 621.612C209.728 621.089 209.995 620.636 210.336 620.252C210.688 619.868 211.099 619.569 211.568 619.356C212.048 619.143 212.571 619.036 213.136 619.036C213.872 619.036 214.48 619.191 214.96 619.5C215.451 619.799 215.84 620.183 216.128 620.652C216.427 621.121 216.629 621.633 216.736 622.188C216.853 622.743 216.901 623.271 216.88 623.772H210.688C210.677 624.135 210.72 624.481 210.816 624.812C210.912 625.132 211.067 625.42 211.28 625.676C211.493 625.921 211.765 626.119 212.096 626.268C212.427 626.417 212.816 626.492 213.264 626.492C213.84 626.492 214.309 626.359 214.672 626.092C215.045 625.825 215.291 625.42 215.408 624.876H216.752ZM218.37 616.076H219.73V627.5H218.37V616.076ZM227.581 622.572C227.559 622.252 227.485 621.948 227.357 621.66C227.239 621.372 227.074 621.127 226.861 620.924C226.658 620.711 226.413 620.545 226.125 620.428C225.847 620.3 225.538 620.236 225.197 620.236C224.845 620.236 224.525 620.3 224.237 620.428C223.959 620.545 223.719 620.711 223.517 620.924C223.314 621.137 223.154 621.388 223.037 621.676C222.919 621.953 222.85 622.252 222.829 622.572H227.581ZM228.892 624.876C228.711 625.804 228.311 626.503 227.693 626.972C227.074 627.441 226.295 627.676 225.357 627.676C224.695 627.676 224.119 627.569 223.629 627.356C223.149 627.143 222.743 626.844 222.413 626.46C222.082 626.076 221.831 625.617 221.661 625.084C221.501 624.551 221.41 623.969 221.389 623.34C221.389 622.711 221.485 622.135 221.677 621.612C221.869 621.089 222.135 620.636 222.477 620.252C222.829 619.868 223.239 619.569 223.709 619.356C224.189 619.143 224.711 619.036 225.277 619.036C226.013 619.036 226.621 619.191 227.101 619.5C227.591 619.799 227.981 620.183 228.269 620.652C228.567 621.121 228.77 621.633 228.877 622.188C228.994 622.743 229.042 623.271 229.021 623.772H222.829C222.818 624.135 222.861 624.481 222.957 624.812C223.053 625.132 223.207 625.42 223.421 625.676C223.634 625.921 223.906 626.119 224.237 626.268C224.567 626.417 224.957 626.492 225.405 626.492C225.981 626.492 226.45 626.359 226.813 626.092C227.186 625.825 227.431 625.42 227.549 624.876H228.892ZM232.318 619.228H233.966V620.428H232.318V625.564C232.318 625.724 232.329 625.852 232.35 625.948C232.382 626.044 232.436 626.119 232.51 626.172C232.585 626.225 232.686 626.263 232.814 626.284C232.953 626.295 233.129 626.3 233.342 626.3H233.966V627.5H232.926C232.574 627.5 232.27 627.479 232.014 627.436C231.769 627.383 231.566 627.292 231.406 627.164C231.257 627.036 231.145 626.855 231.07 626.62C230.996 626.385 230.958 626.076 230.958 625.692V620.428H229.55V619.228H230.958V616.748H232.318V619.228ZM236.469 623.372C236.469 623.873 236.533 624.321 236.661 624.716C236.8 625.1 236.986 625.425 237.221 625.692C237.456 625.948 237.728 626.145 238.037 626.284C238.357 626.423 238.693 626.492 239.045 626.492C239.397 626.492 239.728 626.423 240.037 626.284C240.357 626.145 240.634 625.948 240.869 625.692C241.104 625.425 241.285 625.1 241.413 624.716C241.552 624.321 241.621 623.873 241.621 623.372C241.621 622.871 241.552 622.428 241.413 622.044C241.285 621.649 241.104 621.319 240.869 621.052C240.634 620.785 240.357 620.583 240.037 620.444C239.728 620.305 239.397 620.236 239.045 620.236C238.693 620.236 238.357 620.305 238.037 620.444C237.728 620.583 237.456 620.785 237.221 621.052C236.986 621.319 236.8 621.649 236.661 622.044C236.533 622.428 236.469 622.871 236.469 623.372ZM235.029 623.372C235.029 622.764 235.114 622.199 235.285 621.676C235.456 621.143 235.712 620.684 236.053 620.3C236.394 619.905 236.816 619.596 237.317 619.372C237.818 619.148 238.394 619.036 239.045 619.036C239.706 619.036 240.282 619.148 240.773 619.372C241.274 619.596 241.696 619.905 242.037 620.3C242.378 620.684 242.634 621.143 242.805 621.676C242.976 622.199 243.061 622.764 243.061 623.372C243.061 623.98 242.976 624.545 242.805 625.068C242.634 625.591 242.378 626.049 242.037 626.444C241.696 626.828 241.274 627.132 240.773 627.356C240.282 627.569 239.706 627.676 239.045 627.676C238.394 627.676 237.818 627.569 237.317 627.356C236.816 627.132 236.394 626.828 236.053 626.444C235.712 626.049 235.456 625.591 235.285 625.068C235.114 624.545 235.029 623.98 235.029 623.372ZM244.665 619.228H245.945V620.54H245.977C246.542 619.537 247.438 619.036 248.665 619.036C249.209 619.036 249.662 619.111 250.025 619.26C250.387 619.409 250.681 619.617 250.905 619.884C251.129 620.151 251.283 620.471 251.369 620.844C251.465 621.207 251.513 621.612 251.513 622.06V627.5H250.153V621.9C250.153 621.388 250.003 620.983 249.705 620.684C249.406 620.385 248.995 620.236 248.473 620.236C248.057 620.236 247.694 620.3 247.385 620.428C247.086 620.556 246.835 620.737 246.633 620.972C246.43 621.207 246.275 621.484 246.169 621.804C246.073 622.113 246.025 622.455 246.025 622.828V627.5H244.665V619.228Z" fill="black" fill-opacity="0.68"/>
<g clip-path="url(#clip0_60936_50060)">
<g clip-path="url(#clip1_60936_50060)">
<g clip-path="url(#clip2_60936_50060)">
<rect width="78" height="32" transform="translate(326 606)" fill="black" fill-opacity="0.04"/>
</g>
</g>
</g>
<defs>
<clipPath id="clip0_60936_50060">
<path d="M326 622C326 613.163 333.163 606 342 606H388C396.837 606 404 613.163 404 622C404 630.837 396.837 638 388 638H342C333.163 638 326 630.837 326 622Z" fill="white"/>
</clipPath>
<clipPath id="clip1_60936_50060">
<path d="M326 622C326 613.163 333.163 606 342 606H388C396.837 606 404 613.163 404 622C404 630.837 396.837 638 388 638H342C333.163 638 326 630.837 326 622Z" fill="white"/>
</clipPath>
<clipPath id="clip2_60936_50060">
<rect width="78" height="32" fill="white" transform="translate(326 606)"/>
</clipPath>
</defs>
</svg>
