<svg width="600" height="400" viewBox="0 0 600 400" fill="none" xmlns="http://www.w3.org/2000/svg">
<rect width="600" height="400" fill="black" fill-opacity="0.04"/>
<path d="M101.568 160.5H99.984L97.376 150.9H97.344L94.704 160.5H93.12L90.192 149.076H91.744L93.984 158.58H94.016L96.576 149.076H98.224L100.752 158.58H100.784L103.104 149.076H104.624L101.568 160.5ZM107.277 150.74H105.917V149.076H107.277V150.74ZM105.917 152.228H107.277V160.5H105.917V152.228ZM111.271 152.228H112.919V153.428H111.271V158.564C111.271 158.724 111.282 158.852 111.303 158.948C111.335 159.044 111.389 159.119 111.463 159.172C111.538 159.225 111.639 159.263 111.767 159.284C111.906 159.295 112.082 159.3 112.295 159.3H112.919V160.5H111.879C111.527 160.5 111.223 160.479 110.967 160.436C110.722 160.383 110.519 160.292 110.359 160.164C110.21 160.036 110.098 159.855 110.023 159.62C109.949 159.385 109.911 159.076 109.911 158.692V153.428H108.503V152.228H109.911V149.748H111.271V152.228ZM114.43 149.076H115.79V153.444H115.822C115.929 153.188 116.078 152.975 116.27 152.804C116.462 152.623 116.676 152.479 116.91 152.372C117.156 152.255 117.406 152.169 117.662 152.116C117.929 152.063 118.185 152.036 118.43 152.036C118.974 152.036 119.428 152.111 119.79 152.26C120.153 152.409 120.446 152.617 120.67 152.884C120.894 153.151 121.049 153.471 121.134 153.844C121.23 154.207 121.278 154.612 121.278 155.06V160.5H119.918V154.9C119.918 154.388 119.769 153.983 119.47 153.684C119.172 153.385 118.761 153.236 118.238 153.236C117.822 153.236 117.46 153.3 117.15 153.428C116.852 153.556 116.601 153.737 116.398 153.972C116.196 154.207 116.041 154.484 115.934 154.804C115.838 155.113 115.79 155.455 115.79 155.828V160.5H114.43V149.076ZM127.854 149.076H129.214V160.5H127.854V149.076ZM138.649 160.468C138.414 160.607 138.089 160.676 137.673 160.676C137.321 160.676 137.038 160.58 136.825 160.388C136.622 160.185 136.521 159.86 136.521 159.412C136.148 159.86 135.71 160.185 135.209 160.388C134.718 160.58 134.185 160.676 133.609 160.676C133.236 160.676 132.878 160.633 132.537 160.548C132.206 160.463 131.918 160.329 131.673 160.148C131.428 159.967 131.23 159.732 131.081 159.444C130.942 159.145 130.873 158.788 130.873 158.372C130.873 157.903 130.953 157.519 131.113 157.22C131.273 156.921 131.481 156.681 131.737 156.5C132.004 156.308 132.302 156.164 132.633 156.068C132.974 155.972 133.321 155.892 133.673 155.828C134.046 155.753 134.398 155.7 134.729 155.668C135.07 155.625 135.369 155.572 135.625 155.508C135.881 155.433 136.084 155.332 136.233 155.204C136.382 155.065 136.457 154.868 136.457 154.612C136.457 154.313 136.398 154.073 136.281 153.892C136.174 153.711 136.03 153.572 135.849 153.476C135.678 153.38 135.481 153.316 135.257 153.284C135.044 153.252 134.83 153.236 134.617 153.236C134.041 153.236 133.561 153.348 133.177 153.572C132.793 153.785 132.585 154.196 132.553 154.804H131.193C131.214 154.292 131.321 153.86 131.513 153.508C131.705 153.156 131.961 152.873 132.281 152.66C132.601 152.436 132.964 152.276 133.369 152.18C133.785 152.084 134.228 152.036 134.697 152.036C135.07 152.036 135.438 152.063 135.801 152.116C136.174 152.169 136.51 152.281 136.809 152.452C137.108 152.612 137.348 152.841 137.529 153.14C137.71 153.439 137.801 153.828 137.801 154.308V158.564C137.801 158.884 137.817 159.119 137.849 159.268C137.892 159.417 138.02 159.492 138.233 159.492C138.35 159.492 138.489 159.465 138.649 159.412V160.468ZM136.441 156.228C136.27 156.356 136.046 156.452 135.769 156.516C135.492 156.569 135.198 156.617 134.889 156.66C134.59 156.692 134.286 156.735 133.977 156.788C133.668 156.831 133.39 156.905 133.145 157.012C132.9 157.119 132.697 157.273 132.537 157.476C132.388 157.668 132.313 157.935 132.313 158.276C132.313 158.5 132.356 158.692 132.441 158.852C132.537 159.001 132.654 159.124 132.793 159.22C132.942 159.316 133.113 159.385 133.305 159.428C133.497 159.471 133.7 159.492 133.913 159.492C134.361 159.492 134.745 159.433 135.065 159.316C135.385 159.188 135.646 159.033 135.849 158.852C136.052 158.66 136.201 158.457 136.297 158.244C136.393 158.02 136.441 157.812 136.441 157.62V156.228ZM139.963 149.076H141.323V153.348H141.355C141.579 152.889 141.931 152.559 142.411 152.356C142.891 152.143 143.419 152.036 143.995 152.036C144.635 152.036 145.189 152.153 145.659 152.388C146.139 152.623 146.533 152.943 146.843 153.348C147.163 153.743 147.403 154.201 147.563 154.724C147.723 155.247 147.803 155.801 147.803 156.388C147.803 156.975 147.723 157.529 147.563 158.052C147.413 158.575 147.179 159.033 146.859 159.428C146.549 159.812 146.155 160.116 145.675 160.34C145.205 160.564 144.656 160.676 144.027 160.676C143.824 160.676 143.595 160.655 143.339 160.612C143.093 160.569 142.848 160.5 142.603 160.404C142.357 160.308 142.123 160.18 141.899 160.02C141.685 159.849 141.504 159.641 141.355 159.396H141.323V160.5H139.963V149.076ZM146.363 156.292C146.363 155.908 146.309 155.535 146.203 155.172C146.107 154.799 145.952 154.468 145.739 154.18C145.536 153.892 145.269 153.663 144.939 153.492C144.619 153.321 144.24 153.236 143.803 153.236C143.344 153.236 142.955 153.327 142.635 153.508C142.315 153.689 142.053 153.929 141.851 154.228C141.648 154.516 141.499 154.847 141.403 155.22C141.317 155.593 141.275 155.972 141.275 156.356C141.275 156.761 141.323 157.156 141.419 157.54C141.515 157.913 141.664 158.244 141.867 158.532C142.08 158.82 142.352 159.055 142.683 159.236C143.013 159.407 143.413 159.492 143.883 159.492C144.352 159.492 144.741 159.401 145.051 159.22C145.371 159.039 145.627 158.799 145.819 158.5C146.011 158.201 146.149 157.86 146.235 157.476C146.32 157.092 146.363 156.697 146.363 156.292ZM155.143 155.572C155.122 155.252 155.047 154.948 154.919 154.66C154.802 154.372 154.636 154.127 154.423 153.924C154.22 153.711 153.975 153.545 153.687 153.428C153.41 153.3 153.1 153.236 152.759 153.236C152.407 153.236 152.087 153.3 151.799 153.428C151.522 153.545 151.282 153.711 151.079 153.924C150.876 154.137 150.716 154.388 150.599 154.676C150.482 154.953 150.412 155.252 150.391 155.572H155.143ZM156.455 157.876C156.274 158.804 155.874 159.503 155.255 159.972C154.636 160.441 153.858 160.676 152.919 160.676C152.258 160.676 151.682 160.569 151.191 160.356C150.711 160.143 150.306 159.844 149.975 159.46C149.644 159.076 149.394 158.617 149.223 158.084C149.063 157.551 148.972 156.969 148.951 156.34C148.951 155.711 149.047 155.135 149.239 154.612C149.431 154.089 149.698 153.636 150.039 153.252C150.391 152.868 150.802 152.569 151.271 152.356C151.751 152.143 152.274 152.036 152.839 152.036C153.575 152.036 154.183 152.191 154.663 152.5C155.154 152.799 155.543 153.183 155.831 153.652C156.13 154.121 156.332 154.633 156.439 155.188C156.556 155.743 156.604 156.271 156.583 156.772H150.391C150.38 157.135 150.423 157.481 150.519 157.812C150.615 158.132 150.77 158.42 150.983 158.676C151.196 158.921 151.468 159.119 151.799 159.268C152.13 159.417 152.519 159.492 152.967 159.492C153.543 159.492 154.012 159.359 154.375 159.092C154.748 158.825 154.994 158.42 155.111 157.876H156.455ZM158.073 149.076H159.433V160.5H158.073V149.076Z" fill="black" fill-opacity="0.68"/>
<mask id="path-2-inside-1_68467_31793" fill="white">
<path d="M270 125H510V185H270V125Z"/>
</mask>
<path d="M270 125H510V185H270V125Z" fill="black" fill-opacity="0.04"/>
<path d="M510 185V184H270V185V186H510V185Z" fill="black" fill-opacity="0.2" mask="url(#path-2-inside-1_68467_31793)"/>
<path d="M288.076 142.536H290.308C290.956 142.544 291.428 142.412 291.724 142.14C292.028 141.868 292.18 141.476 292.18 140.964C292.18 140.452 292.028 140.064 291.724 139.8C291.428 139.528 290.956 139.392 290.308 139.392H288.076V142.536ZM286.936 138.432H290.692C291.556 138.432 292.208 138.656 292.648 139.104C293.096 139.544 293.32 140.164 293.32 140.964C293.32 141.764 293.096 142.388 292.648 142.836C292.208 143.284 291.556 143.504 290.692 143.496H288.076V147H286.936V138.432ZM300.225 146.976C300.049 147.08 299.805 147.132 299.493 147.132C299.229 147.132 299.017 147.06 298.857 146.916C298.705 146.764 298.629 146.52 298.629 146.184C298.349 146.52 298.021 146.764 297.645 146.916C297.277 147.06 296.877 147.132 296.445 147.132C296.165 147.132 295.897 147.1 295.641 147.036C295.393 146.972 295.177 146.872 294.993 146.736C294.809 146.6 294.661 146.424 294.549 146.208C294.445 145.984 294.393 145.716 294.393 145.404C294.393 145.052 294.453 144.764 294.573 144.54C294.693 144.316 294.849 144.136 295.041 144C295.241 143.856 295.465 143.748 295.713 143.676C295.969 143.604 296.229 143.544 296.493 143.496C296.773 143.44 297.037 143.4 297.285 143.376C297.541 143.344 297.765 143.304 297.957 143.256C298.149 143.2 298.301 143.124 298.413 143.028C298.525 142.924 298.581 142.776 298.581 142.584C298.581 142.36 298.537 142.18 298.449 142.044C298.369 141.908 298.261 141.804 298.125 141.732C297.997 141.66 297.849 141.612 297.681 141.588C297.521 141.564 297.361 141.552 297.201 141.552C296.769 141.552 296.409 141.636 296.121 141.804C295.833 141.964 295.677 142.272 295.653 142.728H294.633C294.649 142.344 294.729 142.02 294.873 141.756C295.017 141.492 295.209 141.28 295.449 141.12C295.689 140.952 295.961 140.832 296.265 140.76C296.577 140.688 296.909 140.652 297.261 140.652C297.541 140.652 297.817 140.672 298.089 140.712C298.369 140.752 298.621 140.836 298.845 140.964C299.069 141.084 299.249 141.256 299.385 141.48C299.521 141.704 299.589 141.996 299.589 142.356V145.548C299.589 145.788 299.601 145.964 299.625 146.076C299.657 146.188 299.753 146.244 299.913 146.244C300.001 146.244 300.105 146.224 300.225 146.184V146.976ZM298.569 143.796C298.441 143.892 298.273 143.964 298.065 144.012C297.857 144.052 297.637 144.088 297.405 144.12C297.181 144.144 296.953 144.176 296.721 144.216C296.489 144.248 296.281 144.304 296.097 144.384C295.913 144.464 295.761 144.58 295.641 144.732C295.529 144.876 295.473 145.076 295.473 145.332C295.473 145.5 295.505 145.644 295.569 145.764C295.641 145.876 295.729 145.968 295.833 146.04C295.945 146.112 296.073 146.164 296.217 146.196C296.361 146.228 296.513 146.244 296.673 146.244C297.009 146.244 297.297 146.2 297.537 146.112C297.777 146.016 297.973 145.9 298.125 145.764C298.277 145.62 298.389 145.468 298.461 145.308C298.533 145.14 298.569 144.984 298.569 144.84V143.796ZM301.979 145.044C301.987 145.268 302.039 145.46 302.135 145.62C302.231 145.772 302.355 145.896 302.507 145.992C302.667 146.08 302.843 146.144 303.035 146.184C303.235 146.224 303.439 146.244 303.647 146.244C303.807 146.244 303.975 146.232 304.151 146.208C304.327 146.184 304.487 146.14 304.631 146.076C304.783 146.012 304.907 145.92 305.003 145.8C305.099 145.672 305.147 145.512 305.147 145.32C305.147 145.056 305.047 144.856 304.847 144.72C304.647 144.584 304.395 144.476 304.091 144.396C303.795 144.308 303.471 144.232 303.119 144.168C302.767 144.096 302.439 144 302.135 143.88C301.839 143.752 301.591 143.576 301.391 143.352C301.191 143.128 301.091 142.816 301.091 142.416C301.091 142.104 301.159 141.836 301.295 141.612C301.439 141.388 301.619 141.208 301.835 141.072C302.059 140.928 302.307 140.824 302.579 140.76C302.859 140.688 303.135 140.652 303.407 140.652C303.759 140.652 304.083 140.684 304.379 140.748C304.675 140.804 304.935 140.908 305.159 141.06C305.391 141.204 305.575 141.404 305.711 141.66C305.847 141.908 305.927 142.22 305.951 142.596H304.931C304.915 142.396 304.863 142.232 304.775 142.104C304.687 141.968 304.575 141.86 304.439 141.78C304.303 141.7 304.151 141.644 303.983 141.612C303.823 141.572 303.659 141.552 303.491 141.552C303.339 141.552 303.183 141.564 303.023 141.588C302.871 141.612 302.731 141.656 302.603 141.72C302.475 141.776 302.371 141.856 302.291 141.96C302.211 142.056 302.171 142.184 302.171 142.344C302.171 142.52 302.231 142.668 302.351 142.788C302.479 142.9 302.639 142.996 302.831 143.076C303.023 143.148 303.239 143.212 303.479 143.268C303.719 143.316 303.959 143.368 304.199 143.424C304.455 143.48 304.703 143.548 304.943 143.628C305.191 143.708 305.407 143.816 305.591 143.952C305.783 144.08 305.935 144.244 306.047 144.444C306.167 144.644 306.227 144.892 306.227 145.188C306.227 145.564 306.147 145.876 305.987 146.124C305.835 146.372 305.631 146.572 305.375 146.724C305.127 146.876 304.843 146.98 304.523 147.036C304.211 147.1 303.899 147.132 303.587 147.132C303.243 147.132 302.915 147.096 302.603 147.024C302.291 146.952 302.015 146.836 301.775 146.676C301.535 146.508 301.343 146.292 301.199 146.028C301.055 145.756 300.975 145.428 300.959 145.044H301.979ZM308.159 145.044C308.167 145.268 308.219 145.46 308.315 145.62C308.411 145.772 308.535 145.896 308.687 145.992C308.847 146.08 309.023 146.144 309.215 146.184C309.415 146.224 309.619 146.244 309.827 146.244C309.987 146.244 310.155 146.232 310.331 146.208C310.507 146.184 310.667 146.14 310.811 146.076C310.963 146.012 311.087 145.92 311.183 145.8C311.279 145.672 311.327 145.512 311.327 145.32C311.327 145.056 311.227 144.856 311.027 144.72C310.827 144.584 310.575 144.476 310.271 144.396C309.975 144.308 309.651 144.232 309.299 144.168C308.947 144.096 308.619 144 308.315 143.88C308.019 143.752 307.771 143.576 307.571 143.352C307.371 143.128 307.271 142.816 307.271 142.416C307.271 142.104 307.339 141.836 307.475 141.612C307.619 141.388 307.799 141.208 308.015 141.072C308.239 140.928 308.487 140.824 308.759 140.76C309.039 140.688 309.315 140.652 309.587 140.652C309.939 140.652 310.263 140.684 310.559 140.748C310.855 140.804 311.115 140.908 311.339 141.06C311.571 141.204 311.755 141.404 311.891 141.66C312.027 141.908 312.107 142.22 312.131 142.596H311.111C311.095 142.396 311.043 142.232 310.955 142.104C310.867 141.968 310.755 141.86 310.619 141.78C310.483 141.7 310.331 141.644 310.163 141.612C310.003 141.572 309.839 141.552 309.671 141.552C309.519 141.552 309.363 141.564 309.203 141.588C309.051 141.612 308.911 141.656 308.783 141.72C308.655 141.776 308.551 141.856 308.471 141.96C308.391 142.056 308.351 142.184 308.351 142.344C308.351 142.52 308.411 142.668 308.531 142.788C308.659 142.9 308.819 142.996 309.011 143.076C309.203 143.148 309.419 143.212 309.659 143.268C309.899 143.316 310.139 143.368 310.379 143.424C310.635 143.48 310.883 143.548 311.123 143.628C311.371 143.708 311.587 143.816 311.771 143.952C311.963 144.08 312.115 144.244 312.227 144.444C312.347 144.644 312.407 144.892 312.407 145.188C312.407 145.564 312.327 145.876 312.167 146.124C312.015 146.372 311.811 146.572 311.555 146.724C311.307 146.876 311.023 146.98 310.703 147.036C310.391 147.1 310.079 147.132 309.767 147.132C309.423 147.132 309.095 147.096 308.783 147.024C308.471 146.952 308.195 146.836 307.955 146.676C307.715 146.508 307.523 146.292 307.379 146.028C307.235 145.756 307.155 145.428 307.139 145.044H308.159ZM319.859 147H318.779L317.519 142.068H317.495L316.247 147H315.143L313.151 140.796H314.279L315.683 145.872H315.707L316.955 140.796H318.071L319.367 145.872H319.391L320.783 140.796H321.839L319.859 147ZM323.732 143.904C323.732 144.28 323.78 144.616 323.876 144.912C323.98 145.2 324.12 145.444 324.296 145.644C324.472 145.836 324.676 145.984 324.908 146.088C325.148 146.192 325.4 146.244 325.664 146.244C325.928 146.244 326.176 146.192 326.408 146.088C326.648 145.984 326.856 145.836 327.032 145.644C327.208 145.444 327.344 145.2 327.44 144.912C327.544 144.616 327.596 144.28 327.596 143.904C327.596 143.528 327.544 143.196 327.44 142.908C327.344 142.612 327.208 142.364 327.032 142.164C326.856 141.964 326.648 141.812 326.408 141.708C326.176 141.604 325.928 141.552 325.664 141.552C325.4 141.552 325.148 141.604 324.908 141.708C324.676 141.812 324.472 141.964 324.296 142.164C324.12 142.364 323.98 142.612 323.876 142.908C323.78 143.196 323.732 143.528 323.732 143.904ZM322.652 143.904C322.652 143.448 322.716 143.024 322.844 142.632C322.972 142.232 323.164 141.888 323.42 141.6C323.676 141.304 323.992 141.072 324.368 140.904C324.744 140.736 325.176 140.652 325.664 140.652C326.16 140.652 326.592 140.736 326.96 140.904C327.336 141.072 327.652 141.304 327.908 141.6C328.164 141.888 328.356 142.232 328.484 142.632C328.612 143.024 328.676 143.448 328.676 143.904C328.676 144.36 328.612 144.784 328.484 145.176C328.356 145.568 328.164 145.912 327.908 146.208C327.652 146.496 327.336 146.724 326.96 146.892C326.592 147.052 326.16 147.132 325.664 147.132C325.176 147.132 324.744 147.052 324.368 146.892C323.992 146.724 323.676 146.496 323.42 146.208C323.164 145.912 322.972 145.568 322.844 145.176C322.716 144.784 322.652 144.36 322.652 143.904ZM330.023 140.796H330.983V142.104H331.007C331.255 141.6 331.559 141.228 331.919 140.988C332.279 140.748 332.735 140.636 333.287 140.652V141.732C332.879 141.732 332.531 141.788 332.243 141.9C331.955 142.012 331.723 142.176 331.547 142.392C331.371 142.608 331.243 142.872 331.163 143.184C331.083 143.488 331.043 143.84 331.043 144.24V147H330.023V140.796ZM334.768 143.952C334.768 144.24 334.804 144.524 334.876 144.804C334.956 145.076 335.072 145.32 335.224 145.536C335.384 145.752 335.584 145.924 335.824 146.052C336.072 146.18 336.36 146.244 336.688 146.244C337.032 146.244 337.324 146.176 337.564 146.04C337.804 145.904 338 145.728 338.152 145.512C338.304 145.288 338.412 145.036 338.476 144.756C338.548 144.476 338.584 144.192 338.584 143.904C338.584 143.6 338.548 143.308 338.476 143.028C338.404 142.74 338.288 142.488 338.128 142.272C337.976 142.056 337.776 141.884 337.528 141.756C337.28 141.62 336.98 141.552 336.628 141.552C336.284 141.552 335.992 141.62 335.752 141.756C335.512 141.892 335.32 142.072 335.176 142.296C335.032 142.52 334.928 142.776 334.864 143.064C334.8 143.352 334.768 143.648 334.768 143.952ZM339.568 147H338.548V146.16H338.524C338.356 146.504 338.092 146.752 337.732 146.904C337.372 147.056 336.976 147.132 336.544 147.132C336.064 147.132 335.644 147.044 335.284 146.868C334.932 146.692 334.636 146.456 334.396 146.16C334.164 145.864 333.988 145.52 333.868 145.128C333.748 144.736 333.688 144.32 333.688 143.88C333.688 143.44 333.744 143.024 333.856 142.632C333.976 142.24 334.152 141.9 334.384 141.612C334.624 141.316 334.92 141.084 335.272 140.916C335.632 140.74 336.048 140.652 336.52 140.652C336.68 140.652 336.852 140.668 337.036 140.7C337.22 140.732 337.404 140.788 337.588 140.868C337.772 140.94 337.944 141.04 338.104 141.168C338.272 141.288 338.412 141.44 338.524 141.624H338.548V138.432H339.568V147Z" fill="black" fill-opacity="0.68"/>
<path d="M287.28 157.576H289.36L292.96 167.176L296.576 157.576H298.656V169H297.216V159.496H297.184L293.616 169H292.32L288.752 159.496H288.72V169H287.28V157.576ZM302.602 159.24H301.241V157.576H302.602V159.24ZM301.241 160.728H302.602V169H301.241V160.728ZM304.908 160.728H306.188V162.04H306.22C306.786 161.037 307.682 160.536 308.908 160.536C309.452 160.536 309.906 160.611 310.268 160.76C310.631 160.909 310.924 161.117 311.148 161.384C311.372 161.651 311.527 161.971 311.612 162.344C311.708 162.707 311.756 163.112 311.756 163.56V169H310.396V163.4C310.396 162.888 310.247 162.483 309.948 162.184C309.65 161.885 309.239 161.736 308.716 161.736C308.3 161.736 307.938 161.8 307.628 161.928C307.33 162.056 307.079 162.237 306.876 162.472C306.674 162.707 306.519 162.984 306.412 163.304C306.316 163.613 306.268 163.955 306.268 164.328V169H304.908V160.728ZM315.439 159.24H314.079V157.576H315.439V159.24ZM314.079 160.728H315.439V169H314.079V160.728ZM317.746 160.728H319.026V161.944H319.058C319.677 161.005 320.567 160.536 321.73 160.536C322.242 160.536 322.706 160.643 323.122 160.856C323.538 161.069 323.831 161.432 324.002 161.944C324.279 161.496 324.642 161.149 325.09 160.904C325.549 160.659 326.05 160.536 326.594 160.536C327.01 160.536 327.383 160.584 327.714 160.68C328.055 160.765 328.343 160.904 328.578 161.096C328.823 161.288 329.01 161.539 329.138 161.848C329.277 162.147 329.346 162.509 329.346 162.936V169H327.986V163.576C327.986 163.32 327.965 163.08 327.922 162.856C327.879 162.632 327.799 162.44 327.682 162.28C327.565 162.109 327.399 161.976 327.186 161.88C326.983 161.784 326.717 161.736 326.386 161.736C325.714 161.736 325.186 161.928 324.802 162.312C324.418 162.696 324.226 163.208 324.226 163.848V169H322.866V163.576C322.866 163.309 322.839 163.064 322.786 162.84C322.743 162.616 322.663 162.424 322.546 162.264C322.429 162.093 322.269 161.965 322.066 161.88C321.874 161.784 321.623 161.736 321.314 161.736C320.919 161.736 320.578 161.816 320.29 161.976C320.013 162.136 319.783 162.328 319.602 162.552C319.431 162.776 319.303 163.011 319.218 163.256C319.143 163.491 319.106 163.688 319.106 163.848V169H317.746V160.728ZM338.435 169H337.155V167.688H337.123C336.835 168.2 336.467 168.579 336.019 168.824C335.571 169.059 335.043 169.176 334.435 169.176C333.891 169.176 333.437 169.107 333.075 168.968C332.712 168.819 332.419 168.611 332.195 168.344C331.971 168.077 331.811 167.763 331.715 167.4C331.629 167.027 331.587 166.616 331.587 166.168V160.728H332.947V166.328C332.947 166.84 333.096 167.245 333.395 167.544C333.693 167.843 334.104 167.992 334.627 167.992C335.043 167.992 335.4 167.928 335.699 167.8C336.008 167.672 336.264 167.491 336.467 167.256C336.669 167.021 336.819 166.749 336.915 166.44C337.021 166.12 337.075 165.773 337.075 165.4V160.728H338.435V169ZM340.677 160.728H341.957V161.944H341.989C342.608 161.005 343.498 160.536 344.661 160.536C345.173 160.536 345.637 160.643 346.053 160.856C346.469 161.069 346.762 161.432 346.933 161.944C347.21 161.496 347.573 161.149 348.021 160.904C348.48 160.659 348.981 160.536 349.525 160.536C349.941 160.536 350.314 160.584 350.645 160.68C350.986 160.765 351.274 160.904 351.509 161.096C351.754 161.288 351.941 161.539 352.069 161.848C352.208 162.147 352.277 162.509 352.277 162.936V169H350.917V163.576C350.917 163.32 350.896 163.08 350.853 162.856C350.81 162.632 350.73 162.44 350.613 162.28C350.496 162.109 350.33 161.976 350.117 161.88C349.914 161.784 349.648 161.736 349.317 161.736C348.645 161.736 348.117 161.928 347.733 162.312C347.349 162.696 347.157 163.208 347.157 163.848V169H345.797V163.576C345.797 163.309 345.77 163.064 345.717 162.84C345.674 162.616 345.594 162.424 345.477 162.264C345.36 162.093 345.2 161.965 344.997 161.88C344.805 161.784 344.554 161.736 344.245 161.736C343.85 161.736 343.509 161.816 343.221 161.976C342.944 162.136 342.714 162.328 342.533 162.552C342.362 162.776 342.234 163.011 342.149 163.256C342.074 163.491 342.037 163.688 342.037 163.848V169H340.677V160.728ZM360.627 160.6C360.627 160.909 360.68 161.181 360.787 161.416C360.894 161.64 361.038 161.827 361.219 161.976C361.4 162.125 361.614 162.237 361.859 162.312C362.104 162.387 362.366 162.424 362.643 162.424C363.187 162.424 363.635 162.264 363.987 161.944C364.339 161.624 364.515 161.176 364.515 160.6C364.515 160.024 364.334 159.592 363.971 159.304C363.619 159.005 363.166 158.856 362.611 158.856C362.344 158.856 362.088 158.893 361.843 158.968C361.598 159.043 361.384 159.155 361.203 159.304C361.032 159.453 360.894 159.635 360.787 159.848C360.68 160.061 360.627 160.312 360.627 160.6ZM359.187 160.552C359.187 160.083 359.278 159.672 359.459 159.32C359.64 158.957 359.886 158.653 360.195 158.408C360.504 158.163 360.856 157.976 361.251 157.848C361.656 157.72 362.078 157.656 362.515 157.656C363.134 157.656 363.662 157.741 364.099 157.912C364.536 158.072 364.888 158.291 365.155 158.568C365.432 158.835 365.635 159.144 365.763 159.496C365.891 159.837 365.955 160.189 365.955 160.552C365.955 161.064 365.811 161.533 365.523 161.96C365.246 162.376 364.867 162.691 364.387 162.904C365.07 163.117 365.576 163.469 365.907 163.96C366.238 164.44 366.403 165.032 366.403 165.736C366.403 166.291 366.302 166.781 366.099 167.208C365.907 167.635 365.64 167.997 365.299 168.296C364.968 168.584 364.574 168.803 364.115 168.952C363.656 169.101 363.166 169.176 362.643 169.176C362.099 169.176 361.592 169.107 361.123 168.968C360.654 168.829 360.243 168.616 359.891 168.328C359.55 168.04 359.278 167.683 359.075 167.256C358.883 166.819 358.787 166.312 358.787 165.736C358.787 165.064 358.958 164.483 359.299 163.992C359.64 163.491 360.131 163.128 360.771 162.904C360.291 162.712 359.907 162.403 359.619 161.976C359.331 161.539 359.187 161.064 359.187 160.552ZM360.227 165.8C360.227 166.483 360.451 167.021 360.899 167.416C361.358 167.8 361.939 167.992 362.643 167.992C362.984 167.992 363.294 167.939 363.571 167.832C363.859 167.715 364.104 167.56 364.307 167.368C364.52 167.165 364.68 166.931 364.787 166.664C364.904 166.397 364.963 166.104 364.963 165.784C364.963 165.475 364.899 165.192 364.771 164.936C364.654 164.669 364.488 164.44 364.275 164.248C364.062 164.056 363.811 163.907 363.523 163.8C363.246 163.683 362.947 163.624 362.627 163.624C362.296 163.624 361.982 163.677 361.683 163.784C361.395 163.88 361.139 164.024 360.915 164.216C360.702 164.408 360.531 164.637 360.403 164.904C360.286 165.171 360.227 165.469 360.227 165.8ZM378.531 163.384C378.424 162.861 378.2 162.456 377.859 162.168C377.517 161.88 377.059 161.736 376.483 161.736C375.992 161.736 375.581 161.827 375.251 162.008C374.92 162.189 374.653 162.429 374.451 162.728C374.259 163.027 374.12 163.373 374.035 163.768C373.949 164.152 373.907 164.552 373.907 164.968C373.907 165.352 373.949 165.725 374.035 166.088C374.131 166.451 374.275 166.776 374.467 167.064C374.659 167.341 374.909 167.565 375.219 167.736C375.528 167.907 375.896 167.992 376.323 167.992C376.995 167.992 377.517 167.816 377.891 167.464C378.275 167.112 378.509 166.616 378.595 165.976H379.987C379.837 167 379.453 167.789 378.835 168.344C378.227 168.899 377.395 169.176 376.339 169.176C375.709 169.176 375.149 169.075 374.659 168.872C374.179 168.669 373.773 168.381 373.443 168.008C373.123 167.635 372.877 167.192 372.707 166.68C372.547 166.157 372.467 165.587 372.467 164.968C372.467 164.349 372.547 163.773 372.707 163.24C372.867 162.696 373.107 162.227 373.427 161.832C373.757 161.427 374.168 161.112 374.659 160.888C375.149 160.653 375.72 160.536 376.371 160.536C376.84 160.536 377.277 160.595 377.683 160.712C378.099 160.819 378.461 160.989 378.771 161.224C379.091 161.459 379.352 161.757 379.555 162.12C379.757 162.472 379.885 162.893 379.939 163.384H378.531ZM381.708 157.576H383.068V161.944H383.1C383.207 161.688 383.356 161.475 383.548 161.304C383.74 161.123 383.954 160.979 384.188 160.872C384.434 160.755 384.684 160.669 384.94 160.616C385.207 160.563 385.463 160.536 385.708 160.536C386.252 160.536 386.706 160.611 387.068 160.76C387.431 160.909 387.724 161.117 387.948 161.384C388.172 161.651 388.327 161.971 388.412 162.344C388.508 162.707 388.556 163.112 388.556 163.56V169H387.196V163.4C387.196 162.888 387.047 162.483 386.748 162.184C386.45 161.885 386.039 161.736 385.516 161.736C385.1 161.736 384.738 161.8 384.428 161.928C384.13 162.056 383.879 162.237 383.676 162.472C383.474 162.707 383.319 162.984 383.212 163.304C383.116 163.613 383.068 163.955 383.068 164.328V169H381.708V157.576ZM398.127 168.968C397.892 169.107 397.567 169.176 397.151 169.176C396.799 169.176 396.516 169.08 396.303 168.888C396.1 168.685 395.999 168.36 395.999 167.912C395.626 168.36 395.188 168.685 394.687 168.888C394.196 169.08 393.663 169.176 393.087 169.176C392.714 169.176 392.356 169.133 392.015 169.048C391.684 168.963 391.396 168.829 391.151 168.648C390.906 168.467 390.708 168.232 390.559 167.944C390.42 167.645 390.351 167.288 390.351 166.872C390.351 166.403 390.431 166.019 390.591 165.72C390.751 165.421 390.959 165.181 391.215 165C391.482 164.808 391.78 164.664 392.111 164.568C392.452 164.472 392.799 164.392 393.151 164.328C393.524 164.253 393.876 164.2 394.207 164.168C394.548 164.125 394.847 164.072 395.103 164.008C395.359 163.933 395.562 163.832 395.711 163.704C395.86 163.565 395.935 163.368 395.935 163.112C395.935 162.813 395.876 162.573 395.759 162.392C395.652 162.211 395.508 162.072 395.327 161.976C395.156 161.88 394.959 161.816 394.735 161.784C394.522 161.752 394.308 161.736 394.095 161.736C393.519 161.736 393.039 161.848 392.655 162.072C392.271 162.285 392.063 162.696 392.031 163.304H390.671C390.692 162.792 390.799 162.36 390.991 162.008C391.183 161.656 391.439 161.373 391.759 161.16C392.079 160.936 392.442 160.776 392.847 160.68C393.263 160.584 393.706 160.536 394.175 160.536C394.548 160.536 394.916 160.563 395.279 160.616C395.652 160.669 395.988 160.781 396.287 160.952C396.586 161.112 396.826 161.341 397.007 161.64C397.188 161.939 397.279 162.328 397.279 162.808V167.064C397.279 167.384 397.295 167.619 397.327 167.768C397.37 167.917 397.498 167.992 397.711 167.992C397.828 167.992 397.967 167.965 398.127 167.912V168.968ZM395.919 164.728C395.748 164.856 395.524 164.952 395.247 165.016C394.97 165.069 394.676 165.117 394.367 165.16C394.068 165.192 393.764 165.235 393.455 165.288C393.146 165.331 392.868 165.405 392.623 165.512C392.378 165.619 392.175 165.773 392.015 165.976C391.866 166.168 391.791 166.435 391.791 166.776C391.791 167 391.834 167.192 391.919 167.352C392.015 167.501 392.132 167.624 392.271 167.72C392.42 167.816 392.591 167.885 392.783 167.928C392.975 167.971 393.178 167.992 393.391 167.992C393.839 167.992 394.223 167.933 394.543 167.816C394.863 167.688 395.124 167.533 395.327 167.352C395.53 167.16 395.679 166.957 395.775 166.744C395.871 166.52 395.919 166.312 395.919 166.12V164.728ZM399.545 160.728H400.825V162.472H400.857C401.187 161.8 401.593 161.304 402.073 160.984C402.553 160.664 403.161 160.515 403.897 160.536V161.976C403.353 161.976 402.889 162.051 402.505 162.2C402.121 162.349 401.811 162.568 401.577 162.856C401.342 163.144 401.171 163.496 401.065 163.912C400.958 164.317 400.905 164.787 400.905 165.32V169H399.545V160.728ZM412.449 168.968C412.214 169.107 411.889 169.176 411.473 169.176C411.121 169.176 410.838 169.08 410.625 168.888C410.422 168.685 410.321 168.36 410.321 167.912C409.948 168.36 409.51 168.685 409.009 168.888C408.518 169.08 407.985 169.176 407.409 169.176C407.036 169.176 406.678 169.133 406.337 169.048C406.006 168.963 405.718 168.829 405.473 168.648C405.228 168.467 405.03 168.232 404.881 167.944C404.742 167.645 404.673 167.288 404.673 166.872C404.673 166.403 404.753 166.019 404.913 165.72C405.073 165.421 405.281 165.181 405.537 165C405.804 164.808 406.102 164.664 406.433 164.568C406.774 164.472 407.121 164.392 407.473 164.328C407.846 164.253 408.198 164.2 408.529 164.168C408.87 164.125 409.169 164.072 409.425 164.008C409.681 163.933 409.884 163.832 410.033 163.704C410.182 163.565 410.257 163.368 410.257 163.112C410.257 162.813 410.198 162.573 410.081 162.392C409.974 162.211 409.83 162.072 409.649 161.976C409.478 161.88 409.281 161.816 409.057 161.784C408.844 161.752 408.63 161.736 408.417 161.736C407.841 161.736 407.361 161.848 406.977 162.072C406.593 162.285 406.385 162.696 406.353 163.304H404.993C405.014 162.792 405.121 162.36 405.313 162.008C405.505 161.656 405.761 161.373 406.081 161.16C406.401 160.936 406.764 160.776 407.169 160.68C407.585 160.584 408.028 160.536 408.497 160.536C408.87 160.536 409.238 160.563 409.601 160.616C409.974 160.669 410.31 160.781 410.609 160.952C410.908 161.112 411.148 161.341 411.329 161.64C411.51 161.939 411.601 162.328 411.601 162.808V167.064C411.601 167.384 411.617 167.619 411.649 167.768C411.692 167.917 411.82 167.992 412.033 167.992C412.15 167.992 412.289 167.965 412.449 167.912V168.968ZM410.241 164.728C410.07 164.856 409.846 164.952 409.569 165.016C409.292 165.069 408.998 165.117 408.689 165.16C408.39 165.192 408.086 165.235 407.777 165.288C407.468 165.331 407.19 165.405 406.945 165.512C406.7 165.619 406.497 165.773 406.337 165.976C406.188 166.168 406.113 166.435 406.113 166.776C406.113 167 406.156 167.192 406.241 167.352C406.337 167.501 406.454 167.624 406.593 167.72C406.742 167.816 406.913 167.885 407.105 167.928C407.297 167.971 407.5 167.992 407.713 167.992C408.161 167.992 408.545 167.933 408.865 167.816C409.185 167.688 409.446 167.533 409.649 167.352C409.852 167.16 410.001 166.957 410.097 166.744C410.193 166.52 410.241 166.312 410.241 166.12V164.728ZM419.531 163.384C419.424 162.861 419.2 162.456 418.859 162.168C418.517 161.88 418.059 161.736 417.483 161.736C416.992 161.736 416.581 161.827 416.251 162.008C415.92 162.189 415.653 162.429 415.451 162.728C415.259 163.027 415.12 163.373 415.035 163.768C414.949 164.152 414.907 164.552 414.907 164.968C414.907 165.352 414.949 165.725 415.035 166.088C415.131 166.451 415.275 166.776 415.467 167.064C415.659 167.341 415.909 167.565 416.219 167.736C416.528 167.907 416.896 167.992 417.323 167.992C417.995 167.992 418.517 167.816 418.891 167.464C419.275 167.112 419.509 166.616 419.595 165.976H420.987C420.837 167 420.453 167.789 419.835 168.344C419.227 168.899 418.395 169.176 417.339 169.176C416.709 169.176 416.149 169.075 415.659 168.872C415.179 168.669 414.773 168.381 414.443 168.008C414.123 167.635 413.877 167.192 413.707 166.68C413.547 166.157 413.467 165.587 413.467 164.968C413.467 164.349 413.547 163.773 413.707 163.24C413.867 162.696 414.107 162.227 414.427 161.832C414.757 161.427 415.168 161.112 415.659 160.888C416.149 160.653 416.72 160.536 417.371 160.536C417.84 160.536 418.277 160.595 418.683 160.712C419.099 160.819 419.461 160.989 419.771 161.224C420.091 161.459 420.352 161.757 420.555 162.12C420.757 162.472 420.885 162.893 420.939 163.384H419.531ZM424.596 160.728H426.244V161.928H424.596V167.064C424.596 167.224 424.607 167.352 424.628 167.448C424.66 167.544 424.714 167.619 424.788 167.672C424.863 167.725 424.964 167.763 425.092 167.784C425.231 167.795 425.407 167.8 425.62 167.8H426.244V169H425.204C424.852 169 424.548 168.979 424.292 168.936C424.047 168.883 423.844 168.792 423.684 168.664C423.535 168.536 423.423 168.355 423.348 168.12C423.274 167.885 423.236 167.576 423.236 167.192V161.928H421.828V160.728H423.236V158.248H424.596V160.728ZM439.363 167.224H441.139V169H439.363V167.224ZM434.035 167.224H435.811V169H434.035V167.224ZM428.707 167.224H430.483V169H428.707V167.224Z" fill="black" fill-opacity="0.68"/>
<path fill-rule="evenodd" clip-rule="evenodd" d="M480.314 149.003C480.217 149.003 480.121 149 480.024 149C479.927 149 479.83 149.003 479.734 149.003C475.232 149.003 470.676 152.176 469.2 155C470.676 157.824 475.184 160.997 479.686 160.997C479.782 160.997 479.879 161 479.976 161C480.073 161 480.169 160.997 480.266 160.997C484.768 160.997 489.324 157.824 490.8 155C489.324 152.176 484.816 149.003 480.314 149.003ZM479.967 159.32C479.112 159.32 478.277 159.067 477.567 158.592C476.856 158.117 476.303 157.443 475.976 156.653C475.649 155.864 475.563 154.995 475.73 154.157C475.897 153.319 476.308 152.549 476.912 151.945C477.516 151.341 478.286 150.93 479.124 150.763C479.962 150.596 480.831 150.682 481.62 151.009C482.409 151.336 483.084 151.89 483.559 152.6C484.033 153.31 484.287 154.146 484.287 155C484.287 156.146 483.832 157.245 483.022 158.055C482.211 158.865 481.113 159.32 479.967 159.32ZM470.89 155.001C471.605 154.003 472.748 152.983 474.08 152.173C474.513 151.91 474.961 151.672 475.422 151.461C474.63 152.476 474.202 153.728 474.205 155.015C474.209 156.303 474.644 157.552 475.441 158.563C474.966 158.347 474.505 158.101 474.059 157.829C472.739 157.021 471.604 156.002 470.89 155.001ZM485.92 157.827C485.454 158.11 484.972 158.364 484.474 158.587C485.29 157.564 485.732 156.293 485.729 154.985C485.725 153.677 485.276 152.41 484.456 151.391C484.967 151.618 485.463 151.879 485.941 152.171C487.261 152.979 488.396 153.998 489.11 154.999C488.395 155.998 487.252 157.017 485.92 157.827ZM482.35 153.876C482.305 154.072 482.208 154.253 482.071 154.401C481.934 154.549 481.761 154.658 481.568 154.718C481.376 154.778 481.171 154.787 480.974 154.744C480.777 154.7 480.595 154.606 480.446 154.471C480.296 154.336 480.185 154.164 480.123 153.972C480.06 153.78 480.049 153.576 480.09 153.378C480.131 153.181 480.222 152.998 480.356 152.847C480.489 152.696 480.66 152.582 480.851 152.517C480.277 152.313 479.651 152.314 479.078 152.52C478.504 152.726 478.02 153.124 477.708 153.647C477.395 154.169 477.274 154.784 477.363 155.386C477.453 155.989 477.749 156.541 478.2 156.95C478.651 157.359 479.23 157.599 479.838 157.629C480.447 157.659 481.046 157.477 481.536 157.115C482.025 156.752 482.374 156.231 482.522 155.641C482.671 155.05 482.61 154.426 482.35 153.876Z" fill="black"/>
<path d="M101.568 270.5H99.984L97.376 260.9H97.344L94.704 270.5H93.12L90.192 259.076H91.744L93.984 268.58H94.016L96.576 259.076H98.224L100.752 268.58H100.784L103.104 259.076H104.624L101.568 270.5ZM107.277 260.74H105.917V259.076H107.277V260.74ZM105.917 262.228H107.277V270.5H105.917V262.228ZM111.271 262.228H112.919V263.428H111.271V268.564C111.271 268.724 111.282 268.852 111.303 268.948C111.335 269.044 111.389 269.119 111.463 269.172C111.538 269.225 111.639 269.263 111.767 269.284C111.906 269.295 112.082 269.3 112.295 269.3H112.919V270.5H111.879C111.527 270.5 111.223 270.479 110.967 270.436C110.722 270.383 110.519 270.292 110.359 270.164C110.21 270.036 110.098 269.855 110.023 269.62C109.949 269.385 109.911 269.076 109.911 268.692V263.428H108.503V262.228H109.911V259.748H111.271V262.228ZM114.43 259.076H115.79V263.444H115.822C115.929 263.188 116.078 262.975 116.27 262.804C116.462 262.623 116.676 262.479 116.91 262.372C117.156 262.255 117.406 262.169 117.662 262.116C117.929 262.063 118.185 262.036 118.43 262.036C118.974 262.036 119.428 262.111 119.79 262.26C120.153 262.409 120.446 262.617 120.67 262.884C120.894 263.151 121.049 263.471 121.134 263.844C121.23 264.207 121.278 264.612 121.278 265.06V270.5H119.918V264.9C119.918 264.388 119.769 263.983 119.47 263.684C119.172 263.385 118.761 263.236 118.238 263.236C117.822 263.236 117.46 263.3 117.15 263.428C116.852 263.556 116.601 263.737 116.398 263.972C116.196 264.207 116.041 264.484 115.934 264.804C115.838 265.113 115.79 265.455 115.79 265.828V270.5H114.43V259.076ZM124.313 266.372C124.313 266.873 124.377 267.321 124.505 267.716C124.644 268.1 124.83 268.425 125.065 268.692C125.3 268.948 125.572 269.145 125.881 269.284C126.201 269.423 126.537 269.492 126.889 269.492C127.241 269.492 127.572 269.423 127.881 269.284C128.201 269.145 128.478 268.948 128.713 268.692C128.948 268.425 129.129 268.1 129.257 267.716C129.396 267.321 129.465 266.873 129.465 266.372C129.465 265.871 129.396 265.428 129.257 265.044C129.129 264.649 128.948 264.319 128.713 264.052C128.478 263.785 128.201 263.583 127.881 263.444C127.572 263.305 127.241 263.236 126.889 263.236C126.537 263.236 126.201 263.305 125.881 263.444C125.572 263.583 125.3 263.785 125.065 264.052C124.83 264.319 124.644 264.649 124.505 265.044C124.377 265.428 124.313 265.871 124.313 266.372ZM122.873 266.372C122.873 265.764 122.958 265.199 123.129 264.676C123.3 264.143 123.556 263.684 123.897 263.3C124.238 262.905 124.66 262.596 125.161 262.372C125.662 262.148 126.238 262.036 126.889 262.036C127.55 262.036 128.126 262.148 128.617 262.372C129.118 262.596 129.54 262.905 129.881 263.3C130.222 263.684 130.478 264.143 130.649 264.676C130.82 265.199 130.905 265.764 130.905 266.372C130.905 266.98 130.82 267.545 130.649 268.068C130.478 268.591 130.222 269.049 129.881 269.444C129.54 269.828 129.118 270.132 128.617 270.356C128.126 270.569 127.55 270.676 126.889 270.676C126.238 270.676 125.662 270.569 125.161 270.356C124.66 270.132 124.238 269.828 123.897 269.444C123.556 269.049 123.3 268.591 123.129 268.068C122.958 267.545 122.873 266.98 122.873 266.372ZM139.356 270.5H138.076V269.188H138.044C137.756 269.7 137.388 270.079 136.94 270.324C136.492 270.559 135.964 270.676 135.356 270.676C134.812 270.676 134.359 270.607 133.996 270.468C133.634 270.319 133.34 270.111 133.116 269.844C132.892 269.577 132.732 269.263 132.636 268.9C132.551 268.527 132.508 268.116 132.508 267.668V262.228H133.868V267.828C133.868 268.34 134.018 268.745 134.316 269.044C134.615 269.343 135.026 269.492 135.548 269.492C135.964 269.492 136.322 269.428 136.62 269.3C136.93 269.172 137.186 268.991 137.388 268.756C137.591 268.521 137.74 268.249 137.836 267.94C137.943 267.62 137.996 267.273 137.996 266.9V262.228H139.356V270.5ZM143.287 262.228H144.935V263.428H143.287V268.564C143.287 268.724 143.298 268.852 143.319 268.948C143.351 269.044 143.404 269.119 143.479 269.172C143.554 269.225 143.655 269.263 143.783 269.284C143.922 269.295 144.098 269.3 144.311 269.3H144.935V270.5H143.895C143.543 270.5 143.239 270.479 142.983 270.436C142.738 270.383 142.535 270.292 142.375 270.164C142.226 270.036 142.114 269.855 142.039 269.62C141.964 269.385 141.927 269.076 141.927 268.692V263.428H140.519V262.228H141.927V259.748H143.287V262.228ZM150.979 259.076H152.339V270.5H150.979V259.076ZM161.774 270.468C161.539 270.607 161.214 270.676 160.798 270.676C160.446 270.676 160.163 270.58 159.95 270.388C159.747 270.185 159.646 269.86 159.646 269.412C159.273 269.86 158.835 270.185 158.334 270.388C157.843 270.58 157.31 270.676 156.734 270.676C156.361 270.676 156.003 270.633 155.662 270.548C155.331 270.463 155.043 270.329 154.798 270.148C154.553 269.967 154.355 269.732 154.206 269.444C154.067 269.145 153.998 268.788 153.998 268.372C153.998 267.903 154.078 267.519 154.238 267.22C154.398 266.921 154.606 266.681 154.862 266.5C155.129 266.308 155.427 266.164 155.758 266.068C156.099 265.972 156.446 265.892 156.798 265.828C157.171 265.753 157.523 265.7 157.854 265.668C158.195 265.625 158.494 265.572 158.75 265.508C159.006 265.433 159.209 265.332 159.358 265.204C159.507 265.065 159.582 264.868 159.582 264.612C159.582 264.313 159.523 264.073 159.406 263.892C159.299 263.711 159.155 263.572 158.974 263.476C158.803 263.38 158.606 263.316 158.382 263.284C158.169 263.252 157.955 263.236 157.742 263.236C157.166 263.236 156.686 263.348 156.302 263.572C155.918 263.785 155.71 264.196 155.678 264.804H154.318C154.339 264.292 154.446 263.86 154.638 263.508C154.83 263.156 155.086 262.873 155.406 262.66C155.726 262.436 156.089 262.276 156.494 262.18C156.91 262.084 157.353 262.036 157.822 262.036C158.195 262.036 158.563 262.063 158.926 262.116C159.299 262.169 159.635 262.281 159.934 262.452C160.233 262.612 160.473 262.841 160.654 263.14C160.835 263.439 160.926 263.828 160.926 264.308V268.564C160.926 268.884 160.942 269.119 160.974 269.268C161.017 269.417 161.145 269.492 161.358 269.492C161.475 269.492 161.614 269.465 161.774 269.412V270.468ZM159.566 266.228C159.395 266.356 159.171 266.452 158.894 266.516C158.617 266.569 158.323 266.617 158.014 266.66C157.715 266.692 157.411 266.735 157.102 266.788C156.793 266.831 156.515 266.905 156.27 267.012C156.025 267.119 155.822 267.273 155.662 267.476C155.513 267.668 155.438 267.935 155.438 268.276C155.438 268.5 155.481 268.692 155.566 268.852C155.662 269.001 155.779 269.124 155.918 269.22C156.067 269.316 156.238 269.385 156.43 269.428C156.622 269.471 156.825 269.492 157.038 269.492C157.486 269.492 157.87 269.433 158.19 269.316C158.51 269.188 158.771 269.033 158.974 268.852C159.177 268.66 159.326 268.457 159.422 268.244C159.518 268.02 159.566 267.812 159.566 267.62V266.228ZM163.088 259.076H164.448V263.348H164.48C164.704 262.889 165.056 262.559 165.536 262.356C166.016 262.143 166.544 262.036 167.12 262.036C167.76 262.036 168.314 262.153 168.784 262.388C169.264 262.623 169.658 262.943 169.968 263.348C170.288 263.743 170.528 264.201 170.688 264.724C170.848 265.247 170.928 265.801 170.928 266.388C170.928 266.975 170.848 267.529 170.688 268.052C170.538 268.575 170.304 269.033 169.984 269.428C169.674 269.812 169.28 270.116 168.8 270.34C168.33 270.564 167.781 270.676 167.152 270.676C166.949 270.676 166.72 270.655 166.464 270.612C166.218 270.569 165.973 270.5 165.728 270.404C165.482 270.308 165.248 270.18 165.024 270.02C164.81 269.849 164.629 269.641 164.48 269.396H164.448V270.5H163.088V259.076ZM169.488 266.292C169.488 265.908 169.434 265.535 169.328 265.172C169.232 264.799 169.077 264.468 168.864 264.18C168.661 263.892 168.394 263.663 168.064 263.492C167.744 263.321 167.365 263.236 166.928 263.236C166.469 263.236 166.08 263.327 165.76 263.508C165.44 263.689 165.178 263.929 164.976 264.228C164.773 264.516 164.624 264.847 164.528 265.22C164.442 265.593 164.4 265.972 164.4 266.356C164.4 266.761 164.448 267.156 164.544 267.54C164.64 267.913 164.789 268.244 164.992 268.532C165.205 268.82 165.477 269.055 165.808 269.236C166.138 269.407 166.538 269.492 167.008 269.492C167.477 269.492 167.866 269.401 168.176 269.22C168.496 269.039 168.752 268.799 168.944 268.5C169.136 268.201 169.274 267.86 169.36 267.476C169.445 267.092 169.488 266.697 169.488 266.292ZM178.268 265.572C178.247 265.252 178.172 264.948 178.044 264.66C177.927 264.372 177.761 264.127 177.548 263.924C177.345 263.711 177.1 263.545 176.812 263.428C176.535 263.3 176.225 263.236 175.884 263.236C175.532 263.236 175.212 263.3 174.924 263.428C174.647 263.545 174.407 263.711 174.204 263.924C174.001 264.137 173.841 264.388 173.724 264.676C173.607 264.953 173.537 265.252 173.516 265.572H178.268ZM179.58 267.876C179.399 268.804 178.999 269.503 178.38 269.972C177.761 270.441 176.983 270.676 176.044 270.676C175.383 270.676 174.807 270.569 174.316 270.356C173.836 270.143 173.431 269.844 173.1 269.46C172.769 269.076 172.519 268.617 172.348 268.084C172.188 267.551 172.097 266.969 172.076 266.34C172.076 265.711 172.172 265.135 172.364 264.612C172.556 264.089 172.823 263.636 173.164 263.252C173.516 262.868 173.927 262.569 174.396 262.356C174.876 262.143 175.399 262.036 175.964 262.036C176.7 262.036 177.308 262.191 177.788 262.5C178.279 262.799 178.668 263.183 178.956 263.652C179.255 264.121 179.457 264.633 179.564 265.188C179.681 265.743 179.729 266.271 179.708 266.772H173.516C173.505 267.135 173.548 267.481 173.644 267.812C173.74 268.132 173.895 268.42 174.108 268.676C174.321 268.921 174.593 269.119 174.924 269.268C175.255 269.417 175.644 269.492 176.092 269.492C176.668 269.492 177.137 269.359 177.5 269.092C177.873 268.825 178.119 268.42 178.236 267.876H179.58ZM181.198 259.076H182.558V270.5H181.198V259.076Z" fill="black" fill-opacity="0.68"/>
<mask id="path-8-inside-2_68467_31793" fill="white">
<path d="M270 235H510V295H270V235Z"/>
</mask>
<path d="M270 235H510V295H270V235Z" fill="black" fill-opacity="0.04"/>
<path d="M510 295V294H270V295V296H510V295Z" fill="black" fill-opacity="0.2" mask="url(#path-8-inside-2_68467_31793)"/>
<path d="M303.4 262.6H302.8V262C302.8 259.36 300.64 257.2 298 257.2C295.36 257.2 293.2 259.36 293.2 262V262.6H290.8V273.4C290.8 274.394 291.606 275.2 292.6 275.2H305.2V264.4C305.2 263.406 304.394 262.6 303.4 262.6ZM295 262C295 260.343 296.343 259 298 259C299.657 259 301 260.343 301 262V262.6H295V262ZM299.572 268.277C299.409 268.569 299.169 268.809 298.877 268.972L299.2 272.2H296.8L297.123 268.972C296.255 268.487 295.944 267.391 296.429 266.523C296.913 265.655 298.009 265.344 298.877 265.828C299.746 266.313 300.057 267.409 299.572 268.277Z" fill="black" fill-opacity="0.68"/>
<path d="M323.28 259.576H325.36L328.96 269.176L332.576 259.576H334.656V271H333.216V261.496H333.184L329.616 271H328.32L324.752 261.496H324.72V271H323.28V259.576ZM338.602 261.24H337.241V259.576H338.602V261.24ZM337.241 262.728H338.602V271H337.241V262.728ZM340.908 262.728H342.188V264.04H342.22C342.786 263.037 343.682 262.536 344.908 262.536C345.452 262.536 345.906 262.611 346.268 262.76C346.631 262.909 346.924 263.117 347.148 263.384C347.372 263.651 347.527 263.971 347.612 264.344C347.708 264.707 347.756 265.112 347.756 265.56V271H346.396V265.4C346.396 264.888 346.247 264.483 345.948 264.184C345.65 263.885 345.239 263.736 344.716 263.736C344.3 263.736 343.938 263.8 343.628 263.928C343.33 264.056 343.079 264.237 342.876 264.472C342.674 264.707 342.519 264.984 342.412 265.304C342.316 265.613 342.268 265.955 342.268 266.328V271H340.908V262.728ZM351.439 261.24H350.079V259.576H351.439V261.24ZM350.079 262.728H351.439V271H350.079V262.728ZM353.746 262.728H355.026V263.944H355.058C355.677 263.005 356.567 262.536 357.73 262.536C358.242 262.536 358.706 262.643 359.122 262.856C359.538 263.069 359.831 263.432 360.002 263.944C360.279 263.496 360.642 263.149 361.09 262.904C361.549 262.659 362.05 262.536 362.594 262.536C363.01 262.536 363.383 262.584 363.714 262.68C364.055 262.765 364.343 262.904 364.578 263.096C364.823 263.288 365.01 263.539 365.138 263.848C365.277 264.147 365.346 264.509 365.346 264.936V271H363.986V265.576C363.986 265.32 363.965 265.08 363.922 264.856C363.879 264.632 363.799 264.44 363.682 264.28C363.565 264.109 363.399 263.976 363.186 263.88C362.983 263.784 362.717 263.736 362.386 263.736C361.714 263.736 361.186 263.928 360.802 264.312C360.418 264.696 360.226 265.208 360.226 265.848V271H358.866V265.576C358.866 265.309 358.839 265.064 358.786 264.84C358.743 264.616 358.663 264.424 358.546 264.264C358.429 264.093 358.269 263.965 358.066 263.88C357.874 263.784 357.623 263.736 357.314 263.736C356.919 263.736 356.578 263.816 356.29 263.976C356.013 264.136 355.783 264.328 355.602 264.552C355.431 264.776 355.303 265.011 355.218 265.256C355.143 265.491 355.106 265.688 355.106 265.848V271H353.746V262.728ZM374.435 271H373.155V269.688H373.123C372.835 270.2 372.467 270.579 372.019 270.824C371.571 271.059 371.043 271.176 370.435 271.176C369.891 271.176 369.437 271.107 369.075 270.968C368.712 270.819 368.419 270.611 368.195 270.344C367.971 270.077 367.811 269.763 367.715 269.4C367.629 269.027 367.587 268.616 367.587 268.168V262.728H368.947V268.328C368.947 268.84 369.096 269.245 369.395 269.544C369.693 269.843 370.104 269.992 370.627 269.992C371.043 269.992 371.4 269.928 371.699 269.8C372.008 269.672 372.264 269.491 372.467 269.256C372.669 269.021 372.819 268.749 372.915 268.44C373.021 268.12 373.075 267.773 373.075 267.4V262.728H374.435V271ZM376.677 262.728H377.957V263.944H377.989C378.608 263.005 379.498 262.536 380.661 262.536C381.173 262.536 381.637 262.643 382.053 262.856C382.469 263.069 382.762 263.432 382.933 263.944C383.21 263.496 383.573 263.149 384.021 262.904C384.48 262.659 384.981 262.536 385.525 262.536C385.941 262.536 386.314 262.584 386.645 262.68C386.986 262.765 387.274 262.904 387.509 263.096C387.754 263.288 387.941 263.539 388.069 263.848C388.208 264.147 388.277 264.509 388.277 264.936V271H386.917V265.576C386.917 265.32 386.896 265.08 386.853 264.856C386.81 264.632 386.73 264.44 386.613 264.28C386.496 264.109 386.33 263.976 386.117 263.88C385.914 263.784 385.648 263.736 385.317 263.736C384.645 263.736 384.117 263.928 383.733 264.312C383.349 264.696 383.157 265.208 383.157 265.848V271H381.797V265.576C381.797 265.309 381.77 265.064 381.717 264.84C381.674 264.616 381.594 264.424 381.477 264.264C381.36 264.093 381.2 263.965 380.997 263.88C380.805 263.784 380.554 263.736 380.245 263.736C379.85 263.736 379.509 263.816 379.221 263.976C378.944 264.136 378.714 264.328 378.533 264.552C378.362 264.776 378.234 265.011 378.149 265.256C378.074 265.491 378.037 265.688 378.037 265.848V271H376.677V262.728ZM396.627 262.6C396.627 262.909 396.68 263.181 396.787 263.416C396.894 263.64 397.038 263.827 397.219 263.976C397.4 264.125 397.614 264.237 397.859 264.312C398.104 264.387 398.366 264.424 398.643 264.424C399.187 264.424 399.635 264.264 399.987 263.944C400.339 263.624 400.515 263.176 400.515 262.6C400.515 262.024 400.334 261.592 399.971 261.304C399.619 261.005 399.166 260.856 398.611 260.856C398.344 260.856 398.088 260.893 397.843 260.968C397.598 261.043 397.384 261.155 397.203 261.304C397.032 261.453 396.894 261.635 396.787 261.848C396.68 262.061 396.627 262.312 396.627 262.6ZM395.187 262.552C395.187 262.083 395.278 261.672 395.459 261.32C395.64 260.957 395.886 260.653 396.195 260.408C396.504 260.163 396.856 259.976 397.251 259.848C397.656 259.72 398.078 259.656 398.515 259.656C399.134 259.656 399.662 259.741 400.099 259.912C400.536 260.072 400.888 260.291 401.155 260.568C401.432 260.835 401.635 261.144 401.763 261.496C401.891 261.837 401.955 262.189 401.955 262.552C401.955 263.064 401.811 263.533 401.523 263.96C401.246 264.376 400.867 264.691 400.387 264.904C401.07 265.117 401.576 265.469 401.907 265.96C402.238 266.44 402.403 267.032 402.403 267.736C402.403 268.291 402.302 268.781 402.099 269.208C401.907 269.635 401.64 269.997 401.299 270.296C400.968 270.584 400.574 270.803 400.115 270.952C399.656 271.101 399.166 271.176 398.643 271.176C398.099 271.176 397.592 271.107 397.123 270.968C396.654 270.829 396.243 270.616 395.891 270.328C395.55 270.04 395.278 269.683 395.075 269.256C394.883 268.819 394.787 268.312 394.787 267.736C394.787 267.064 394.958 266.483 395.299 265.992C395.64 265.491 396.131 265.128 396.771 264.904C396.291 264.712 395.907 264.403 395.619 263.976C395.331 263.539 395.187 263.064 395.187 262.552ZM396.227 267.8C396.227 268.483 396.451 269.021 396.899 269.416C397.358 269.8 397.939 269.992 398.643 269.992C398.984 269.992 399.294 269.939 399.571 269.832C399.859 269.715 400.104 269.56 400.307 269.368C400.52 269.165 400.68 268.931 400.787 268.664C400.904 268.397 400.963 268.104 400.963 267.784C400.963 267.475 400.899 267.192 400.771 266.936C400.654 266.669 400.488 266.44 400.275 266.248C400.062 266.056 399.811 265.907 399.523 265.8C399.246 265.683 398.947 265.624 398.627 265.624C398.296 265.624 397.982 265.677 397.683 265.784C397.395 265.88 397.139 266.024 396.915 266.216C396.702 266.408 396.531 266.637 396.403 266.904C396.286 267.171 396.227 267.469 396.227 267.8ZM414.531 265.384C414.424 264.861 414.2 264.456 413.859 264.168C413.517 263.88 413.059 263.736 412.483 263.736C411.992 263.736 411.581 263.827 411.251 264.008C410.92 264.189 410.653 264.429 410.451 264.728C410.259 265.027 410.12 265.373 410.035 265.768C409.949 266.152 409.907 266.552 409.907 266.968C409.907 267.352 409.949 267.725 410.035 268.088C410.131 268.451 410.275 268.776 410.467 269.064C410.659 269.341 410.909 269.565 411.219 269.736C411.528 269.907 411.896 269.992 412.323 269.992C412.995 269.992 413.517 269.816 413.891 269.464C414.275 269.112 414.509 268.616 414.595 267.976H415.987C415.837 269 415.453 269.789 414.835 270.344C414.227 270.899 413.395 271.176 412.339 271.176C411.709 271.176 411.149 271.075 410.659 270.872C410.179 270.669 409.773 270.381 409.443 270.008C409.123 269.635 408.877 269.192 408.707 268.68C408.547 268.157 408.467 267.587 408.467 266.968C408.467 266.349 408.547 265.773 408.707 265.24C408.867 264.696 409.107 264.227 409.427 263.832C409.757 263.427 410.168 263.112 410.659 262.888C411.149 262.653 411.72 262.536 412.371 262.536C412.84 262.536 413.277 262.595 413.683 262.712C414.099 262.819 414.461 262.989 414.771 263.224C415.091 263.459 415.352 263.757 415.555 264.12C415.757 264.472 415.885 264.893 415.939 265.384H414.531ZM417.708 259.576H419.068V263.944H419.1C419.207 263.688 419.356 263.475 419.548 263.304C419.74 263.123 419.954 262.979 420.188 262.872C420.434 262.755 420.684 262.669 420.94 262.616C421.207 262.563 421.463 262.536 421.708 262.536C422.252 262.536 422.706 262.611 423.068 262.76C423.431 262.909 423.724 263.117 423.948 263.384C424.172 263.651 424.327 263.971 424.412 264.344C424.508 264.707 424.556 265.112 424.556 265.56V271H423.196V265.4C423.196 264.888 423.047 264.483 422.748 264.184C422.45 263.885 422.039 263.736 421.516 263.736C421.1 263.736 420.738 263.8 420.428 263.928C420.13 264.056 419.879 264.237 419.676 264.472C419.474 264.707 419.319 264.984 419.212 265.304C419.116 265.613 419.068 265.955 419.068 266.328V271H417.708V259.576ZM438.207 269.224H439.983V271H438.207V269.224ZM432.879 269.224H434.655V271H432.879V269.224ZM427.551 269.224H429.327V271H427.551V269.224Z" fill="black" fill-opacity="0.68"/>
<path fill-rule="evenodd" clip-rule="evenodd" d="M480.314 259.003C480.217 259.003 480.121 259 480.024 259C479.927 259 479.83 259.003 479.734 259.003C475.232 259.003 470.676 262.176 469.2 265C470.676 267.824 475.184 270.997 479.686 270.997C479.782 270.997 479.879 271 479.976 271C480.073 271 480.169 270.997 480.266 270.997C484.768 270.997 489.324 267.824 490.8 265C489.324 262.176 484.816 259.003 480.314 259.003ZM479.967 269.32C479.112 269.32 478.277 269.067 477.567 268.592C476.856 268.117 476.303 267.443 475.976 266.653C475.649 265.864 475.563 264.995 475.73 264.157C475.897 263.319 476.308 262.549 476.912 261.945C477.516 261.341 478.286 260.93 479.124 260.763C479.962 260.596 480.831 260.682 481.62 261.009C482.409 261.336 483.084 261.89 483.559 262.6C484.033 263.31 484.287 264.146 484.287 265C484.287 266.146 483.832 267.245 483.022 268.055C482.211 268.865 481.113 269.32 479.967 269.32ZM470.89 265.001C471.605 264.003 472.748 262.983 474.08 262.173C474.513 261.91 474.961 261.672 475.422 261.461C474.63 262.476 474.202 263.728 474.205 265.015C474.209 266.303 474.644 267.552 475.441 268.563C474.966 268.347 474.505 268.101 474.059 267.829C472.739 267.021 471.604 266.002 470.89 265.001ZM485.92 267.827C485.454 268.11 484.972 268.364 484.474 268.587C485.29 267.564 485.732 266.293 485.729 264.985C485.725 263.677 485.276 262.41 484.456 261.391C484.967 261.618 485.463 261.879 485.941 262.171C487.261 262.979 488.396 263.998 489.11 264.999C488.395 265.998 487.252 267.017 485.92 267.827ZM482.35 263.876C482.305 264.072 482.208 264.253 482.071 264.401C481.934 264.549 481.761 264.658 481.568 264.718C481.376 264.778 481.171 264.787 480.974 264.744C480.777 264.7 480.595 264.606 480.446 264.471C480.296 264.336 480.185 264.164 480.123 263.972C480.06 263.78 480.049 263.576 480.09 263.378C480.131 263.181 480.222 262.998 480.356 262.847C480.489 262.696 480.66 262.582 480.851 262.517C480.277 262.313 479.651 262.314 479.078 262.52C478.504 262.726 478.02 263.124 477.708 263.647C477.395 264.169 477.274 264.784 477.363 265.386C477.453 265.989 477.749 266.541 478.2 266.95C478.651 267.359 479.23 267.599 479.838 267.629C480.447 267.659 481.046 267.477 481.536 267.115C482.025 266.752 482.374 266.231 482.522 265.641C482.671 265.05 482.61 264.426 482.35 263.876Z" fill="black"/>
</svg>
