<svg width="600" height="372" viewBox="0 0 600 372" fill="none" xmlns="http://www.w3.org/2000/svg">
<rect width="600" height="372" fill="black" fill-opacity="0.04"/>
<path d="M91.248 125.076H98.752V126.356H92.768V129.988H98.016V131.268H92.768V136.5H91.248V125.076ZM107.54 136.468C107.305 136.607 106.98 136.676 106.564 136.676C106.212 136.676 105.929 136.58 105.716 136.388C105.513 136.185 105.412 135.86 105.412 135.412C105.038 135.86 104.601 136.185 104.1 136.388C103.609 136.58 103.076 136.676 102.5 136.676C102.126 136.676 101.769 136.633 101.428 136.548C101.097 136.463 100.809 136.329 100.564 136.148C100.318 135.967 100.121 135.732 99.9715 135.444C99.8328 135.145 99.7635 134.788 99.7635 134.372C99.7635 133.903 99.8435 133.519 100.004 133.22C100.164 132.921 100.372 132.681 100.628 132.5C100.894 132.308 101.193 132.164 101.524 132.068C101.865 131.972 102.212 131.892 102.564 131.828C102.937 131.753 103.289 131.7 103.62 131.668C103.961 131.625 104.26 131.572 104.516 131.508C104.772 131.433 104.974 131.332 105.124 131.204C105.273 131.065 105.348 130.868 105.348 130.612C105.348 130.313 105.289 130.073 105.172 129.892C105.065 129.711 104.921 129.572 104.74 129.476C104.569 129.38 104.372 129.316 104.148 129.284C103.934 129.252 103.721 129.236 103.508 129.236C102.932 129.236 102.452 129.348 102.068 129.572C101.684 129.785 101.476 130.196 101.444 130.804H100.084C100.105 130.292 100.212 129.86 100.404 129.508C100.596 129.156 100.852 128.873 101.172 128.66C101.492 128.436 101.854 128.276 102.26 128.18C102.676 128.084 103.118 128.036 103.588 128.036C103.961 128.036 104.329 128.063 104.692 128.116C105.065 128.169 105.401 128.281 105.7 128.452C105.998 128.612 106.238 128.841 106.42 129.14C106.601 129.439 106.692 129.828 106.692 130.308V134.564C106.692 134.884 106.708 135.119 106.74 135.268C106.782 135.417 106.91 135.492 107.124 135.492C107.241 135.492 107.38 135.465 107.54 135.412V136.468ZM105.332 132.228C105.161 132.356 104.937 132.452 104.66 132.516C104.382 132.569 104.089 132.617 103.78 132.66C103.481 132.692 103.177 132.735 102.868 132.788C102.558 132.831 102.281 132.905 102.036 133.012C101.79 133.119 101.588 133.273 101.428 133.476C101.278 133.668 101.204 133.935 101.204 134.276C101.204 134.5 101.246 134.692 101.332 134.852C101.428 135.001 101.545 135.124 101.684 135.22C101.833 135.316 102.004 135.385 102.196 135.428C102.388 135.471 102.59 135.492 102.804 135.492C103.252 135.492 103.636 135.433 103.956 135.316C104.276 135.188 104.537 135.033 104.74 134.852C104.942 134.66 105.092 134.457 105.188 134.244C105.284 134.02 105.332 133.812 105.332 133.62V132.228ZM108.885 125.076H110.245V136.5H108.885V125.076ZM113.184 133.892C113.195 134.191 113.264 134.447 113.392 134.66C113.52 134.863 113.685 135.028 113.888 135.156C114.101 135.273 114.336 135.359 114.592 135.412C114.859 135.465 115.131 135.492 115.408 135.492C115.621 135.492 115.845 135.476 116.08 135.444C116.315 135.412 116.528 135.353 116.72 135.268C116.923 135.183 117.088 135.06 117.216 134.9C117.344 134.729 117.408 134.516 117.408 134.26C117.408 133.908 117.275 133.641 117.008 133.46C116.741 133.279 116.405 133.135 116 133.028C115.605 132.911 115.173 132.809 114.704 132.724C114.235 132.628 113.797 132.5 113.392 132.34C112.997 132.169 112.667 131.935 112.4 131.636C112.133 131.337 112 130.921 112 130.388C112 129.972 112.091 129.615 112.272 129.316C112.464 129.017 112.704 128.777 112.992 128.596C113.291 128.404 113.621 128.265 113.984 128.18C114.357 128.084 114.725 128.036 115.088 128.036C115.557 128.036 115.989 128.079 116.384 128.164C116.779 128.239 117.125 128.377 117.424 128.58C117.733 128.772 117.979 129.039 118.16 129.38C118.341 129.711 118.448 130.127 118.48 130.628H117.12C117.099 130.361 117.029 130.143 116.912 129.972C116.795 129.791 116.645 129.647 116.464 129.54C116.283 129.433 116.08 129.359 115.856 129.316C115.643 129.263 115.424 129.236 115.2 129.236C114.997 129.236 114.789 129.252 114.576 129.284C114.373 129.316 114.187 129.375 114.016 129.46C113.845 129.535 113.707 129.641 113.6 129.78C113.493 129.908 113.44 130.079 113.44 130.292C113.44 130.527 113.52 130.724 113.68 130.884C113.851 131.033 114.064 131.161 114.32 131.268C114.576 131.364 114.864 131.449 115.184 131.524C115.504 131.588 115.824 131.657 116.144 131.732C116.485 131.807 116.816 131.897 117.136 132.004C117.467 132.111 117.755 132.255 118 132.436C118.256 132.607 118.459 132.825 118.608 133.092C118.768 133.359 118.848 133.689 118.848 134.084C118.848 134.585 118.741 135.001 118.528 135.332C118.325 135.663 118.053 135.929 117.712 136.132C117.381 136.335 117.003 136.473 116.576 136.548C116.16 136.633 115.744 136.676 115.328 136.676C114.869 136.676 114.432 136.628 114.016 136.532C113.6 136.436 113.232 136.281 112.912 136.068C112.592 135.844 112.336 135.556 112.144 135.204C111.952 134.841 111.845 134.404 111.824 133.892H113.184ZM126.096 131.572C126.075 131.252 126 130.948 125.872 130.66C125.755 130.372 125.589 130.127 125.376 129.924C125.173 129.711 124.928 129.545 124.64 129.428C124.363 129.3 124.053 129.236 123.712 129.236C123.36 129.236 123.04 129.3 122.752 129.428C122.475 129.545 122.235 129.711 122.032 129.924C121.829 130.137 121.669 130.388 121.552 130.676C121.435 130.953 121.365 131.252 121.344 131.572H126.096ZM127.408 133.876C127.227 134.804 126.827 135.503 126.208 135.972C125.589 136.441 124.811 136.676 123.872 136.676C123.211 136.676 122.635 136.569 122.144 136.356C121.664 136.143 121.259 135.844 120.928 135.46C120.597 135.076 120.347 134.617 120.176 134.084C120.016 133.551 119.925 132.969 119.904 132.34C119.904 131.711 120 131.135 120.192 130.612C120.384 130.089 120.651 129.636 120.992 129.252C121.344 128.868 121.755 128.569 122.224 128.356C122.704 128.143 123.227 128.036 123.792 128.036C124.528 128.036 125.136 128.191 125.616 128.5C126.107 128.799 126.496 129.183 126.784 129.652C127.083 130.121 127.285 130.633 127.392 131.188C127.509 131.743 127.557 132.271 127.536 132.772H121.344C121.333 133.135 121.376 133.481 121.472 133.812C121.568 134.132 121.723 134.42 121.936 134.676C122.149 134.921 122.421 135.119 122.752 135.268C123.083 135.417 123.472 135.492 123.92 135.492C124.496 135.492 124.965 135.359 125.328 135.092C125.701 134.825 125.947 134.42 126.064 133.876H127.408Z" fill="black" fill-opacity="0.68"/>
<mask id="path-2-inside-1_68467_31673" fill="white">
<path d="M270 101H510V161H270V101Z"/>
</mask>
<path d="M270 101H510V161H270V101Z" fill="black" fill-opacity="0.04"/>
<path d="M510 161V160H270V161V162H510V161Z" fill="black" fill-opacity="0.2" mask="url(#path-2-inside-1_68467_31673)"/>
<path d="M288.768 131.048H291.744C292.608 131.059 293.237 130.883 293.632 130.52C294.037 130.157 294.24 129.635 294.24 128.952C294.24 128.269 294.037 127.752 293.632 127.4C293.237 127.037 292.608 126.856 291.744 126.856H288.768V131.048ZM287.248 125.576H292.256C293.408 125.576 294.277 125.875 294.864 126.472C295.461 127.059 295.76 127.885 295.76 128.952C295.76 130.019 295.461 130.851 294.864 131.448C294.277 132.045 293.408 132.339 292.256 132.328H288.768V137H287.248V125.576ZM304.927 136.968C304.692 137.107 304.367 137.176 303.951 137.176C303.599 137.176 303.316 137.08 303.103 136.888C302.9 136.685 302.799 136.36 302.799 135.912C302.426 136.36 301.988 136.685 301.487 136.888C300.996 137.08 300.463 137.176 299.887 137.176C299.514 137.176 299.156 137.133 298.815 137.048C298.484 136.963 298.196 136.829 297.951 136.648C297.706 136.467 297.508 136.232 297.359 135.944C297.22 135.645 297.151 135.288 297.151 134.872C297.151 134.403 297.231 134.019 297.391 133.72C297.551 133.421 297.759 133.181 298.015 133C298.282 132.808 298.58 132.664 298.911 132.568C299.252 132.472 299.599 132.392 299.951 132.328C300.324 132.253 300.676 132.2 301.007 132.168C301.348 132.125 301.647 132.072 301.903 132.008C302.159 131.933 302.362 131.832 302.511 131.704C302.66 131.565 302.735 131.368 302.735 131.112C302.735 130.813 302.676 130.573 302.559 130.392C302.452 130.211 302.308 130.072 302.127 129.976C301.956 129.88 301.759 129.816 301.535 129.784C301.322 129.752 301.108 129.736 300.895 129.736C300.319 129.736 299.839 129.848 299.455 130.072C299.071 130.285 298.863 130.696 298.831 131.304H297.471C297.492 130.792 297.599 130.36 297.791 130.008C297.983 129.656 298.239 129.373 298.559 129.16C298.879 128.936 299.242 128.776 299.647 128.68C300.063 128.584 300.506 128.536 300.975 128.536C301.348 128.536 301.716 128.563 302.079 128.616C302.452 128.669 302.788 128.781 303.087 128.952C303.386 129.112 303.626 129.341 303.807 129.64C303.988 129.939 304.079 130.328 304.079 130.808V135.064C304.079 135.384 304.095 135.619 304.127 135.768C304.17 135.917 304.298 135.992 304.511 135.992C304.628 135.992 304.767 135.965 304.927 135.912V136.968ZM302.719 132.728C302.548 132.856 302.324 132.952 302.047 133.016C301.77 133.069 301.476 133.117 301.167 133.16C300.868 133.192 300.564 133.235 300.255 133.288C299.946 133.331 299.668 133.405 299.423 133.512C299.178 133.619 298.975 133.773 298.815 133.976C298.666 134.168 298.591 134.435 298.591 134.776C298.591 135 298.634 135.192 298.719 135.352C298.815 135.501 298.932 135.624 299.071 135.72C299.22 135.816 299.391 135.885 299.583 135.928C299.775 135.971 299.978 135.992 300.191 135.992C300.639 135.992 301.023 135.933 301.343 135.816C301.663 135.688 301.924 135.533 302.127 135.352C302.33 135.16 302.479 134.957 302.575 134.744C302.671 134.52 302.719 134.312 302.719 134.12V132.728ZM307.225 134.392C307.235 134.691 307.305 134.947 307.433 135.16C307.561 135.363 307.726 135.528 307.929 135.656C308.142 135.773 308.377 135.859 308.633 135.912C308.899 135.965 309.171 135.992 309.449 135.992C309.662 135.992 309.886 135.976 310.121 135.944C310.355 135.912 310.569 135.853 310.761 135.768C310.963 135.683 311.129 135.56 311.257 135.4C311.385 135.229 311.449 135.016 311.449 134.76C311.449 134.408 311.315 134.141 311.049 133.96C310.782 133.779 310.446 133.635 310.041 133.528C309.646 133.411 309.214 133.309 308.745 133.224C308.275 133.128 307.838 133 307.433 132.84C307.038 132.669 306.707 132.435 306.441 132.136C306.174 131.837 306.041 131.421 306.041 130.888C306.041 130.472 306.131 130.115 306.313 129.816C306.505 129.517 306.745 129.277 307.033 129.096C307.331 128.904 307.662 128.765 308.025 128.68C308.398 128.584 308.766 128.536 309.129 128.536C309.598 128.536 310.03 128.579 310.425 128.664C310.819 128.739 311.166 128.877 311.465 129.08C311.774 129.272 312.019 129.539 312.201 129.88C312.382 130.211 312.489 130.627 312.521 131.128H311.161C311.139 130.861 311.07 130.643 310.953 130.472C310.835 130.291 310.686 130.147 310.505 130.04C310.323 129.933 310.121 129.859 309.897 129.816C309.683 129.763 309.465 129.736 309.241 129.736C309.038 129.736 308.83 129.752 308.617 129.784C308.414 129.816 308.227 129.875 308.057 129.96C307.886 130.035 307.747 130.141 307.641 130.28C307.534 130.408 307.481 130.579 307.481 130.792C307.481 131.027 307.561 131.224 307.721 131.384C307.891 131.533 308.105 131.661 308.361 131.768C308.617 131.864 308.905 131.949 309.225 132.024C309.545 132.088 309.865 132.157 310.185 132.232C310.526 132.307 310.857 132.397 311.177 132.504C311.507 132.611 311.795 132.755 312.041 132.936C312.297 133.107 312.499 133.325 312.649 133.592C312.809 133.859 312.889 134.189 312.889 134.584C312.889 135.085 312.782 135.501 312.569 135.832C312.366 136.163 312.094 136.429 311.753 136.632C311.422 136.835 311.043 136.973 310.617 137.048C310.201 137.133 309.785 137.176 309.369 137.176C308.91 137.176 308.473 137.128 308.057 137.032C307.641 136.936 307.273 136.781 306.953 136.568C306.633 136.344 306.377 136.056 306.185 135.704C305.993 135.341 305.886 134.904 305.865 134.392H307.225ZM315.425 134.392C315.435 134.691 315.505 134.947 315.633 135.16C315.761 135.363 315.926 135.528 316.129 135.656C316.342 135.773 316.577 135.859 316.833 135.912C317.099 135.965 317.371 135.992 317.649 135.992C317.862 135.992 318.086 135.976 318.321 135.944C318.555 135.912 318.769 135.853 318.961 135.768C319.163 135.683 319.329 135.56 319.457 135.4C319.585 135.229 319.649 135.016 319.649 134.76C319.649 134.408 319.515 134.141 319.249 133.96C318.982 133.779 318.646 133.635 318.241 133.528C317.846 133.411 317.414 133.309 316.945 133.224C316.475 133.128 316.038 133 315.633 132.84C315.238 132.669 314.907 132.435 314.641 132.136C314.374 131.837 314.241 131.421 314.241 130.888C314.241 130.472 314.331 130.115 314.513 129.816C314.705 129.517 314.945 129.277 315.233 129.096C315.531 128.904 315.862 128.765 316.225 128.68C316.598 128.584 316.966 128.536 317.329 128.536C317.798 128.536 318.23 128.579 318.625 128.664C319.019 128.739 319.366 128.877 319.665 129.08C319.974 129.272 320.219 129.539 320.401 129.88C320.582 130.211 320.689 130.627 320.721 131.128H319.361C319.339 130.861 319.27 130.643 319.153 130.472C319.035 130.291 318.886 130.147 318.705 130.04C318.523 129.933 318.321 129.859 318.097 129.816C317.883 129.763 317.665 129.736 317.441 129.736C317.238 129.736 317.03 129.752 316.817 129.784C316.614 129.816 316.427 129.875 316.257 129.96C316.086 130.035 315.947 130.141 315.841 130.28C315.734 130.408 315.681 130.579 315.681 130.792C315.681 131.027 315.761 131.224 315.921 131.384C316.091 131.533 316.305 131.661 316.561 131.768C316.817 131.864 317.105 131.949 317.425 132.024C317.745 132.088 318.065 132.157 318.385 132.232C318.726 132.307 319.057 132.397 319.377 132.504C319.707 132.611 319.995 132.755 320.241 132.936C320.497 133.107 320.699 133.325 320.849 133.592C321.009 133.859 321.089 134.189 321.089 134.584C321.089 135.085 320.982 135.501 320.769 135.832C320.566 136.163 320.294 136.429 319.953 136.632C319.622 136.835 319.243 136.973 318.817 137.048C318.401 137.133 317.985 137.176 317.569 137.176C317.11 137.176 316.673 137.128 316.257 137.032C315.841 136.936 315.473 136.781 315.153 136.568C314.833 136.344 314.577 136.056 314.385 135.704C314.193 135.341 314.086 134.904 314.065 134.392H315.425ZM330.985 137H329.545L327.865 130.424H327.833L326.169 137H324.697L322.041 128.728H323.545L325.417 135.496H325.449L327.113 128.728H328.601L330.329 135.496H330.361L332.217 128.728H333.625L330.985 137ZM336.11 132.872C336.11 133.373 336.174 133.821 336.302 134.216C336.44 134.6 336.627 134.925 336.862 135.192C337.096 135.448 337.368 135.645 337.678 135.784C337.998 135.923 338.334 135.992 338.686 135.992C339.038 135.992 339.368 135.923 339.678 135.784C339.998 135.645 340.275 135.448 340.51 135.192C340.744 134.925 340.926 134.6 341.054 134.216C341.192 133.821 341.262 133.373 341.262 132.872C341.262 132.371 341.192 131.928 341.054 131.544C340.926 131.149 340.744 130.819 340.51 130.552C340.275 130.285 339.998 130.083 339.678 129.944C339.368 129.805 339.038 129.736 338.686 129.736C338.334 129.736 337.998 129.805 337.678 129.944C337.368 130.083 337.096 130.285 336.862 130.552C336.627 130.819 336.44 131.149 336.302 131.544C336.174 131.928 336.11 132.371 336.11 132.872ZM334.67 132.872C334.67 132.264 334.755 131.699 334.926 131.176C335.096 130.643 335.352 130.184 335.694 129.8C336.035 129.405 336.456 129.096 336.958 128.872C337.459 128.648 338.035 128.536 338.686 128.536C339.347 128.536 339.923 128.648 340.414 128.872C340.915 129.096 341.336 129.405 341.678 129.8C342.019 130.184 342.275 130.643 342.446 131.176C342.616 131.699 342.702 132.264 342.702 132.872C342.702 133.48 342.616 134.045 342.446 134.568C342.275 135.091 342.019 135.549 341.678 135.944C341.336 136.328 340.915 136.632 340.414 136.856C339.923 137.069 339.347 137.176 338.686 137.176C338.035 137.176 337.459 137.069 336.958 136.856C336.456 136.632 336.035 136.328 335.694 135.944C335.352 135.549 335.096 135.091 334.926 134.568C334.755 134.045 334.67 133.48 334.67 132.872ZM344.457 128.728H345.737V130.472H345.769C346.1 129.8 346.505 129.304 346.985 128.984C347.465 128.664 348.073 128.515 348.809 128.536V129.976C348.265 129.976 347.801 130.051 347.417 130.2C347.033 130.349 346.724 130.568 346.489 130.856C346.255 131.144 346.084 131.496 345.977 131.912C345.871 132.317 345.817 132.787 345.817 133.32V137H344.457V128.728ZM350.744 132.936C350.744 133.32 350.792 133.699 350.888 134.072C350.995 134.435 351.149 134.76 351.352 135.048C351.565 135.336 351.832 135.565 352.152 135.736C352.483 135.907 352.867 135.992 353.304 135.992C353.763 135.992 354.152 135.901 354.472 135.72C354.792 135.539 355.053 135.304 355.256 135.016C355.459 134.717 355.603 134.381 355.688 134.008C355.784 133.635 355.832 133.256 355.832 132.872C355.832 132.467 355.784 132.077 355.688 131.704C355.592 131.32 355.437 130.984 355.224 130.696C355.021 130.408 354.755 130.179 354.424 130.008C354.093 129.827 353.693 129.736 353.224 129.736C352.765 129.736 352.376 129.827 352.056 130.008C351.736 130.189 351.48 130.429 351.288 130.728C351.096 131.027 350.957 131.368 350.872 131.752C350.787 132.136 350.744 132.531 350.744 132.936ZM357.144 137H355.784V135.88H355.752C355.528 136.339 355.176 136.669 354.696 136.872C354.216 137.075 353.688 137.176 353.112 137.176C352.472 137.176 351.912 137.059 351.432 136.824C350.963 136.589 350.568 136.275 350.248 135.88C349.939 135.485 349.704 135.027 349.544 134.504C349.384 133.981 349.304 133.427 349.304 132.84C349.304 132.253 349.379 131.699 349.528 131.176C349.688 130.653 349.923 130.2 350.232 129.816C350.552 129.421 350.947 129.112 351.416 128.888C351.896 128.653 352.451 128.536 353.08 128.536C353.293 128.536 353.523 128.557 353.768 128.6C354.013 128.643 354.259 128.717 354.504 128.824C354.749 128.92 354.979 129.053 355.192 129.224C355.416 129.384 355.603 129.587 355.752 129.832H355.784V125.576H357.144V137Z" fill="black" fill-opacity="0.68"/>
<path fill-rule="evenodd" clip-rule="evenodd" d="M480.314 125.003C480.217 125.003 480.121 125 480.024 125C479.927 125 479.83 125.003 479.734 125.003C475.232 125.003 470.676 128.176 469.2 131C470.676 133.824 475.184 136.997 479.686 136.997C479.782 136.997 479.879 137 479.976 137C480.073 137 480.169 136.997 480.266 136.997C484.768 136.997 489.324 133.824 490.8 131C489.324 128.176 484.816 125.003 480.314 125.003ZM479.967 135.32C479.112 135.32 478.277 135.067 477.567 134.592C476.856 134.117 476.303 133.443 475.976 132.653C475.649 131.864 475.563 130.995 475.73 130.157C475.897 129.319 476.308 128.549 476.912 127.945C477.516 127.341 478.286 126.93 479.124 126.763C479.962 126.596 480.831 126.682 481.62 127.009C482.409 127.336 483.084 127.89 483.559 128.6C484.033 129.31 484.287 130.146 484.287 131C484.287 132.146 483.832 133.245 483.022 134.055C482.211 134.865 481.113 135.32 479.967 135.32ZM470.89 131.001C471.605 130.003 472.748 128.983 474.08 128.173C474.513 127.91 474.961 127.672 475.422 127.461C474.63 128.476 474.202 129.728 474.205 131.015C474.209 132.303 474.644 133.552 475.441 134.563C474.966 134.347 474.505 134.101 474.059 133.829C472.739 133.021 471.604 132.002 470.89 131.001ZM485.92 133.827C485.454 134.11 484.972 134.364 484.474 134.587C485.29 133.564 485.732 132.293 485.729 130.985C485.725 129.677 485.276 128.41 484.456 127.391C484.967 127.618 485.463 127.879 485.941 128.171C487.261 128.979 488.396 129.998 489.11 130.999C488.395 131.998 487.252 133.017 485.92 133.827ZM482.35 129.876C482.305 130.072 482.208 130.253 482.071 130.401C481.934 130.549 481.761 130.658 481.568 130.718C481.376 130.778 481.171 130.787 480.974 130.744C480.777 130.7 480.595 130.606 480.446 130.471C480.296 130.336 480.185 130.164 480.123 129.972C480.06 129.78 480.049 129.576 480.09 129.378C480.131 129.181 480.222 128.998 480.356 128.847C480.489 128.696 480.66 128.582 480.851 128.517C480.277 128.313 479.651 128.314 479.078 128.52C478.504 128.726 478.02 129.124 477.708 129.647C477.395 130.169 477.274 130.784 477.363 131.386C477.453 131.989 477.749 132.541 478.2 132.95C478.651 133.359 479.23 133.599 479.838 133.629C480.447 133.659 481.046 133.477 481.536 133.115C482.025 132.752 482.374 132.231 482.522 131.641C482.671 131.05 482.61 130.426 482.35 129.876Z" fill="black"/>
<path d="M93.84 236.356H90.032V235.076H99.168V236.356H95.36V246.5H93.84V236.356ZM98.6948 238.228H99.9748V239.972H100.007C100.337 239.3 100.743 238.804 101.223 238.484C101.703 238.164 102.311 238.015 103.047 238.036V239.476C102.503 239.476 102.039 239.551 101.655 239.7C101.271 239.849 100.961 240.068 100.727 240.356C100.492 240.644 100.321 240.996 100.215 241.412C100.108 241.817 100.055 242.287 100.055 242.82V246.5H98.6948V238.228ZM110.919 246.5H109.639V245.188H109.607C109.319 245.7 108.951 246.079 108.503 246.324C108.055 246.559 107.527 246.676 106.919 246.676C106.375 246.676 105.922 246.607 105.559 246.468C105.196 246.319 104.903 246.111 104.679 245.844C104.455 245.577 104.295 245.263 104.199 244.9C104.114 244.527 104.071 244.116 104.071 243.668V238.228H105.431V243.828C105.431 244.34 105.58 244.745 105.879 245.044C106.178 245.343 106.588 245.492 107.111 245.492C107.527 245.492 107.884 245.428 108.183 245.3C108.492 245.172 108.748 244.991 108.951 244.756C109.154 244.521 109.303 244.249 109.399 243.94C109.506 243.62 109.559 243.273 109.559 242.9V238.228H110.919V246.5ZM118.706 241.572C118.684 241.252 118.61 240.948 118.482 240.66C118.364 240.372 118.199 240.127 117.986 239.924C117.783 239.711 117.538 239.545 117.25 239.428C116.972 239.3 116.663 239.236 116.322 239.236C115.97 239.236 115.65 239.3 115.362 239.428C115.084 239.545 114.844 239.711 114.642 239.924C114.439 240.137 114.279 240.388 114.162 240.676C114.044 240.953 113.975 241.252 113.954 241.572H118.706ZM120.017 243.876C119.836 244.804 119.436 245.503 118.818 245.972C118.199 246.441 117.42 246.676 116.482 246.676C115.82 246.676 115.244 246.569 114.754 246.356C114.274 246.143 113.868 245.844 113.538 245.46C113.207 245.076 112.956 244.617 112.786 244.084C112.626 243.551 112.535 242.969 112.514 242.34C112.514 241.711 112.61 241.135 112.802 240.612C112.994 240.089 113.26 239.636 113.602 239.252C113.954 238.868 114.364 238.569 114.834 238.356C115.314 238.143 115.836 238.036 116.402 238.036C117.138 238.036 117.746 238.191 118.226 238.5C118.716 238.799 119.106 239.183 119.394 239.652C119.692 240.121 119.895 240.633 120.002 241.188C120.119 241.743 120.167 242.271 120.146 242.772H113.954C113.943 243.135 113.986 243.481 114.082 243.812C114.178 244.132 114.332 244.42 114.546 244.676C114.759 244.921 115.031 245.119 115.362 245.268C115.692 245.417 116.082 245.492 116.53 245.492C117.106 245.492 117.575 245.359 117.938 245.092C118.311 244.825 118.556 244.42 118.674 243.876H120.017Z" fill="black" fill-opacity="0.68"/>
<mask id="path-7-inside-2_68467_31673" fill="white">
<path d="M270 211H510V271H270V211Z"/>
</mask>
<path d="M270 211V210H269V211H270ZM510 211H511V210H510V211ZM510 271V272H511V271H510ZM270 271H269V272H270V271ZM270 211V212H510V211V210H270V211ZM510 211H509V271H510H511V211H510ZM510 271V270H270V271V272H510V271ZM270 271H271V211H270H269V271H270Z" fill="black" fill-opacity="0.2" mask="url(#path-7-inside-2_68467_31673)"/>
<path d="M288.768 241.048H291.744C292.608 241.059 293.237 240.883 293.632 240.52C294.037 240.157 294.24 239.635 294.24 238.952C294.24 238.269 294.037 237.752 293.632 237.4C293.237 237.037 292.608 236.856 291.744 236.856H288.768V241.048ZM287.248 235.576H292.256C293.408 235.576 294.277 235.875 294.864 236.472C295.461 237.059 295.76 237.885 295.76 238.952C295.76 240.019 295.461 240.851 294.864 241.448C294.277 242.045 293.408 242.339 292.256 242.328H288.768V247H287.248V235.576ZM304.927 246.968C304.692 247.107 304.367 247.176 303.951 247.176C303.599 247.176 303.316 247.08 303.103 246.888C302.9 246.685 302.799 246.36 302.799 245.912C302.426 246.36 301.988 246.685 301.487 246.888C300.996 247.08 300.463 247.176 299.887 247.176C299.514 247.176 299.156 247.133 298.815 247.048C298.484 246.963 298.196 246.829 297.951 246.648C297.706 246.467 297.508 246.232 297.359 245.944C297.22 245.645 297.151 245.288 297.151 244.872C297.151 244.403 297.231 244.019 297.391 243.72C297.551 243.421 297.759 243.181 298.015 243C298.282 242.808 298.58 242.664 298.911 242.568C299.252 242.472 299.599 242.392 299.951 242.328C300.324 242.253 300.676 242.2 301.007 242.168C301.348 242.125 301.647 242.072 301.903 242.008C302.159 241.933 302.362 241.832 302.511 241.704C302.66 241.565 302.735 241.368 302.735 241.112C302.735 240.813 302.676 240.573 302.559 240.392C302.452 240.211 302.308 240.072 302.127 239.976C301.956 239.88 301.759 239.816 301.535 239.784C301.322 239.752 301.108 239.736 300.895 239.736C300.319 239.736 299.839 239.848 299.455 240.072C299.071 240.285 298.863 240.696 298.831 241.304H297.471C297.492 240.792 297.599 240.36 297.791 240.008C297.983 239.656 298.239 239.373 298.559 239.16C298.879 238.936 299.242 238.776 299.647 238.68C300.063 238.584 300.506 238.536 300.975 238.536C301.348 238.536 301.716 238.563 302.079 238.616C302.452 238.669 302.788 238.781 303.087 238.952C303.386 239.112 303.626 239.341 303.807 239.64C303.988 239.939 304.079 240.328 304.079 240.808V245.064C304.079 245.384 304.095 245.619 304.127 245.768C304.17 245.917 304.298 245.992 304.511 245.992C304.628 245.992 304.767 245.965 304.927 245.912V246.968ZM302.719 242.728C302.548 242.856 302.324 242.952 302.047 243.016C301.77 243.069 301.476 243.117 301.167 243.16C300.868 243.192 300.564 243.235 300.255 243.288C299.946 243.331 299.668 243.405 299.423 243.512C299.178 243.619 298.975 243.773 298.815 243.976C298.666 244.168 298.591 244.435 298.591 244.776C298.591 245 298.634 245.192 298.719 245.352C298.815 245.501 298.932 245.624 299.071 245.72C299.22 245.816 299.391 245.885 299.583 245.928C299.775 245.971 299.978 245.992 300.191 245.992C300.639 245.992 301.023 245.933 301.343 245.816C301.663 245.688 301.924 245.533 302.127 245.352C302.33 245.16 302.479 244.957 302.575 244.744C302.671 244.52 302.719 244.312 302.719 244.12V242.728ZM307.225 244.392C307.235 244.691 307.305 244.947 307.433 245.16C307.561 245.363 307.726 245.528 307.929 245.656C308.142 245.773 308.377 245.859 308.633 245.912C308.899 245.965 309.171 245.992 309.449 245.992C309.662 245.992 309.886 245.976 310.121 245.944C310.355 245.912 310.569 245.853 310.761 245.768C310.963 245.683 311.129 245.56 311.257 245.4C311.385 245.229 311.449 245.016 311.449 244.76C311.449 244.408 311.315 244.141 311.049 243.96C310.782 243.779 310.446 243.635 310.041 243.528C309.646 243.411 309.214 243.309 308.745 243.224C308.275 243.128 307.838 243 307.433 242.84C307.038 242.669 306.707 242.435 306.441 242.136C306.174 241.837 306.041 241.421 306.041 240.888C306.041 240.472 306.131 240.115 306.313 239.816C306.505 239.517 306.745 239.277 307.033 239.096C307.331 238.904 307.662 238.765 308.025 238.68C308.398 238.584 308.766 238.536 309.129 238.536C309.598 238.536 310.03 238.579 310.425 238.664C310.819 238.739 311.166 238.877 311.465 239.08C311.774 239.272 312.019 239.539 312.201 239.88C312.382 240.211 312.489 240.627 312.521 241.128H311.161C311.139 240.861 311.07 240.643 310.953 240.472C310.835 240.291 310.686 240.147 310.505 240.04C310.323 239.933 310.121 239.859 309.897 239.816C309.683 239.763 309.465 239.736 309.241 239.736C309.038 239.736 308.83 239.752 308.617 239.784C308.414 239.816 308.227 239.875 308.057 239.96C307.886 240.035 307.747 240.141 307.641 240.28C307.534 240.408 307.481 240.579 307.481 240.792C307.481 241.027 307.561 241.224 307.721 241.384C307.891 241.533 308.105 241.661 308.361 241.768C308.617 241.864 308.905 241.949 309.225 242.024C309.545 242.088 309.865 242.157 310.185 242.232C310.526 242.307 310.857 242.397 311.177 242.504C311.507 242.611 311.795 242.755 312.041 242.936C312.297 243.107 312.499 243.325 312.649 243.592C312.809 243.859 312.889 244.189 312.889 244.584C312.889 245.085 312.782 245.501 312.569 245.832C312.366 246.163 312.094 246.429 311.753 246.632C311.422 246.835 311.043 246.973 310.617 247.048C310.201 247.133 309.785 247.176 309.369 247.176C308.91 247.176 308.473 247.128 308.057 247.032C307.641 246.936 307.273 246.781 306.953 246.568C306.633 246.344 306.377 246.056 306.185 245.704C305.993 245.341 305.886 244.904 305.865 244.392H307.225ZM315.425 244.392C315.435 244.691 315.505 244.947 315.633 245.16C315.761 245.363 315.926 245.528 316.129 245.656C316.342 245.773 316.577 245.859 316.833 245.912C317.099 245.965 317.371 245.992 317.649 245.992C317.862 245.992 318.086 245.976 318.321 245.944C318.555 245.912 318.769 245.853 318.961 245.768C319.163 245.683 319.329 245.56 319.457 245.4C319.585 245.229 319.649 245.016 319.649 244.76C319.649 244.408 319.515 244.141 319.249 243.96C318.982 243.779 318.646 243.635 318.241 243.528C317.846 243.411 317.414 243.309 316.945 243.224C316.475 243.128 316.038 243 315.633 242.84C315.238 242.669 314.907 242.435 314.641 242.136C314.374 241.837 314.241 241.421 314.241 240.888C314.241 240.472 314.331 240.115 314.513 239.816C314.705 239.517 314.945 239.277 315.233 239.096C315.531 238.904 315.862 238.765 316.225 238.68C316.598 238.584 316.966 238.536 317.329 238.536C317.798 238.536 318.23 238.579 318.625 238.664C319.019 238.739 319.366 238.877 319.665 239.08C319.974 239.272 320.219 239.539 320.401 239.88C320.582 240.211 320.689 240.627 320.721 241.128H319.361C319.339 240.861 319.27 240.643 319.153 240.472C319.035 240.291 318.886 240.147 318.705 240.04C318.523 239.933 318.321 239.859 318.097 239.816C317.883 239.763 317.665 239.736 317.441 239.736C317.238 239.736 317.03 239.752 316.817 239.784C316.614 239.816 316.427 239.875 316.257 239.96C316.086 240.035 315.947 240.141 315.841 240.28C315.734 240.408 315.681 240.579 315.681 240.792C315.681 241.027 315.761 241.224 315.921 241.384C316.091 241.533 316.305 241.661 316.561 241.768C316.817 241.864 317.105 241.949 317.425 242.024C317.745 242.088 318.065 242.157 318.385 242.232C318.726 242.307 319.057 242.397 319.377 242.504C319.707 242.611 319.995 242.755 320.241 242.936C320.497 243.107 320.699 243.325 320.849 243.592C321.009 243.859 321.089 244.189 321.089 244.584C321.089 245.085 320.982 245.501 320.769 245.832C320.566 246.163 320.294 246.429 319.953 246.632C319.622 246.835 319.243 246.973 318.817 247.048C318.401 247.133 317.985 247.176 317.569 247.176C317.11 247.176 316.673 247.128 316.257 247.032C315.841 246.936 315.473 246.781 315.153 246.568C314.833 246.344 314.577 246.056 314.385 245.704C314.193 245.341 314.086 244.904 314.065 244.392H315.425ZM330.985 247H329.545L327.865 240.424H327.833L326.169 247H324.697L322.041 238.728H323.545L325.417 245.496H325.449L327.113 238.728H328.601L330.329 245.496H330.361L332.217 238.728H333.625L330.985 247ZM336.11 242.872C336.11 243.373 336.174 243.821 336.302 244.216C336.44 244.6 336.627 244.925 336.862 245.192C337.096 245.448 337.368 245.645 337.678 245.784C337.998 245.923 338.334 245.992 338.686 245.992C339.038 245.992 339.368 245.923 339.678 245.784C339.998 245.645 340.275 245.448 340.51 245.192C340.744 244.925 340.926 244.6 341.054 244.216C341.192 243.821 341.262 243.373 341.262 242.872C341.262 242.371 341.192 241.928 341.054 241.544C340.926 241.149 340.744 240.819 340.51 240.552C340.275 240.285 339.998 240.083 339.678 239.944C339.368 239.805 339.038 239.736 338.686 239.736C338.334 239.736 337.998 239.805 337.678 239.944C337.368 240.083 337.096 240.285 336.862 240.552C336.627 240.819 336.44 241.149 336.302 241.544C336.174 241.928 336.11 242.371 336.11 242.872ZM334.67 242.872C334.67 242.264 334.755 241.699 334.926 241.176C335.096 240.643 335.352 240.184 335.694 239.8C336.035 239.405 336.456 239.096 336.958 238.872C337.459 238.648 338.035 238.536 338.686 238.536C339.347 238.536 339.923 238.648 340.414 238.872C340.915 239.096 341.336 239.405 341.678 239.8C342.019 240.184 342.275 240.643 342.446 241.176C342.616 241.699 342.702 242.264 342.702 242.872C342.702 243.48 342.616 244.045 342.446 244.568C342.275 245.091 342.019 245.549 341.678 245.944C341.336 246.328 340.915 246.632 340.414 246.856C339.923 247.069 339.347 247.176 338.686 247.176C338.035 247.176 337.459 247.069 336.958 246.856C336.456 246.632 336.035 246.328 335.694 245.944C335.352 245.549 335.096 245.091 334.926 244.568C334.755 244.045 334.67 243.48 334.67 242.872ZM344.457 238.728H345.737V240.472H345.769C346.1 239.8 346.505 239.304 346.985 238.984C347.465 238.664 348.073 238.515 348.809 238.536V239.976C348.265 239.976 347.801 240.051 347.417 240.2C347.033 240.349 346.724 240.568 346.489 240.856C346.255 241.144 346.084 241.496 345.977 241.912C345.871 242.317 345.817 242.787 345.817 243.32V247H344.457V238.728ZM350.744 242.936C350.744 243.32 350.792 243.699 350.888 244.072C350.995 244.435 351.149 244.76 351.352 245.048C351.565 245.336 351.832 245.565 352.152 245.736C352.483 245.907 352.867 245.992 353.304 245.992C353.763 245.992 354.152 245.901 354.472 245.72C354.792 245.539 355.053 245.304 355.256 245.016C355.459 244.717 355.603 244.381 355.688 244.008C355.784 243.635 355.832 243.256 355.832 242.872C355.832 242.467 355.784 242.077 355.688 241.704C355.592 241.32 355.437 240.984 355.224 240.696C355.021 240.408 354.755 240.179 354.424 240.008C354.093 239.827 353.693 239.736 353.224 239.736C352.765 239.736 352.376 239.827 352.056 240.008C351.736 240.189 351.48 240.429 351.288 240.728C351.096 241.027 350.957 241.368 350.872 241.752C350.787 242.136 350.744 242.531 350.744 242.936ZM357.144 247H355.784V245.88H355.752C355.528 246.339 355.176 246.669 354.696 246.872C354.216 247.075 353.688 247.176 353.112 247.176C352.472 247.176 351.912 247.059 351.432 246.824C350.963 246.589 350.568 246.275 350.248 245.88C349.939 245.485 349.704 245.027 349.544 244.504C349.384 243.981 349.304 243.427 349.304 242.84C349.304 242.253 349.379 241.699 349.528 241.176C349.688 240.653 349.923 240.2 350.232 239.816C350.552 239.421 350.947 239.112 351.416 238.888C351.896 238.653 352.451 238.536 353.08 238.536C353.293 238.536 353.523 238.557 353.768 238.6C354.013 238.643 354.259 238.717 354.504 238.824C354.749 238.92 354.979 239.053 355.192 239.224C355.416 239.384 355.603 239.587 355.752 239.832H355.784V235.576H357.144V247Z" fill="black" fill-opacity="0.68"/>
<path fill-rule="evenodd" clip-rule="evenodd" d="M480.314 235.003C480.217 235.003 480.121 235 480.024 235C479.927 235 479.83 235.003 479.734 235.003C475.232 235.003 470.676 238.176 469.2 241C470.676 243.824 475.184 246.997 479.686 246.997C479.782 246.997 479.879 247 479.976 247C480.073 247 480.169 246.997 480.266 246.997C484.768 246.997 489.324 243.824 490.8 241C489.324 238.176 484.816 235.003 480.314 235.003ZM479.967 245.32C479.112 245.32 478.277 245.067 477.567 244.592C476.856 244.117 476.303 243.443 475.976 242.653C475.649 241.864 475.563 240.995 475.73 240.157C475.897 239.319 476.308 238.549 476.912 237.945C477.516 237.341 478.286 236.93 479.124 236.763C479.962 236.596 480.831 236.682 481.62 237.009C482.409 237.336 483.084 237.89 483.559 238.6C484.033 239.31 484.287 240.146 484.287 241C484.287 242.146 483.832 243.245 483.022 244.055C482.211 244.865 481.113 245.32 479.967 245.32ZM470.89 241.001C471.605 240.003 472.748 238.983 474.08 238.173C474.513 237.91 474.961 237.672 475.422 237.461C474.63 238.476 474.202 239.728 474.205 241.015C474.209 242.303 474.644 243.552 475.441 244.563C474.966 244.347 474.505 244.101 474.059 243.829C472.739 243.021 471.604 242.002 470.89 241.001ZM485.92 243.827C485.454 244.11 484.972 244.364 484.474 244.587C485.29 243.564 485.732 242.293 485.729 240.985C485.725 239.677 485.276 238.41 484.456 237.391C484.967 237.618 485.463 237.879 485.941 238.171C487.261 238.979 488.396 239.998 489.11 240.999C488.395 241.998 487.252 243.017 485.92 243.827ZM482.35 239.876C482.305 240.072 482.208 240.253 482.071 240.401C481.934 240.549 481.761 240.658 481.568 240.718C481.376 240.778 481.171 240.787 480.974 240.744C480.777 240.7 480.595 240.606 480.446 240.471C480.296 240.336 480.185 240.164 480.123 239.972C480.06 239.78 480.049 239.576 480.09 239.378C480.131 239.181 480.222 238.998 480.356 238.847C480.489 238.696 480.66 238.582 480.851 238.517C480.277 238.313 479.651 238.314 479.078 238.52C478.504 238.726 478.02 239.124 477.708 239.647C477.395 240.169 477.274 240.784 477.363 241.386C477.453 241.989 477.749 242.541 478.2 242.95C478.651 243.359 479.23 243.599 479.838 243.629C480.447 243.659 481.046 243.477 481.536 243.115C482.025 242.752 482.374 242.231 482.522 241.641C482.671 241.05 482.61 240.426 482.35 239.876Z" fill="black"/>
</svg>
