<svg width="600" height="478" viewBox="0 0 600 478" fill="none" xmlns="http://www.w3.org/2000/svg">
<rect width="600" height="478" fill="black" fill-opacity="0.04"/>
<path d="M91.248 154.076H98.752V155.356H92.768V158.988H98.016V160.268H92.768V165.5H91.248V154.076ZM107.54 165.468C107.305 165.607 106.98 165.676 106.564 165.676C106.212 165.676 105.929 165.58 105.716 165.388C105.513 165.185 105.412 164.86 105.412 164.412C105.038 164.86 104.601 165.185 104.1 165.388C103.609 165.58 103.076 165.676 102.5 165.676C102.126 165.676 101.769 165.633 101.428 165.548C101.097 165.463 100.809 165.329 100.564 165.148C100.318 164.967 100.121 164.732 99.9715 164.444C99.8328 164.145 99.7635 163.788 99.7635 163.372C99.7635 162.903 99.8435 162.519 100.004 162.22C100.164 161.921 100.372 161.681 100.628 161.5C100.894 161.308 101.193 161.164 101.524 161.068C101.865 160.972 102.212 160.892 102.564 160.828C102.937 160.753 103.289 160.7 103.62 160.668C103.961 160.625 104.26 160.572 104.516 160.508C104.772 160.433 104.974 160.332 105.124 160.204C105.273 160.065 105.348 159.868 105.348 159.612C105.348 159.313 105.289 159.073 105.172 158.892C105.065 158.711 104.921 158.572 104.74 158.476C104.569 158.38 104.372 158.316 104.148 158.284C103.934 158.252 103.721 158.236 103.508 158.236C102.932 158.236 102.452 158.348 102.068 158.572C101.684 158.785 101.476 159.196 101.444 159.804H100.084C100.105 159.292 100.212 158.86 100.404 158.508C100.596 158.156 100.852 157.873 101.172 157.66C101.492 157.436 101.854 157.276 102.26 157.18C102.676 157.084 103.118 157.036 103.588 157.036C103.961 157.036 104.329 157.063 104.692 157.116C105.065 157.169 105.401 157.281 105.7 157.452C105.998 157.612 106.238 157.841 106.42 158.14C106.601 158.439 106.692 158.828 106.692 159.308V163.564C106.692 163.884 106.708 164.119 106.74 164.268C106.782 164.417 106.91 164.492 107.124 164.492C107.241 164.492 107.38 164.465 107.54 164.412V165.468ZM105.332 161.228C105.161 161.356 104.937 161.452 104.66 161.516C104.382 161.569 104.089 161.617 103.78 161.66C103.481 161.692 103.177 161.735 102.868 161.788C102.558 161.831 102.281 161.905 102.036 162.012C101.79 162.119 101.588 162.273 101.428 162.476C101.278 162.668 101.204 162.935 101.204 163.276C101.204 163.5 101.246 163.692 101.332 163.852C101.428 164.001 101.545 164.124 101.684 164.22C101.833 164.316 102.004 164.385 102.196 164.428C102.388 164.471 102.59 164.492 102.804 164.492C103.252 164.492 103.636 164.433 103.956 164.316C104.276 164.188 104.537 164.033 104.74 163.852C104.942 163.66 105.092 163.457 105.188 163.244C105.284 163.02 105.332 162.812 105.332 162.62V161.228ZM108.885 154.076H110.245V165.5H108.885V154.076ZM113.184 162.892C113.195 163.191 113.264 163.447 113.392 163.66C113.52 163.863 113.685 164.028 113.888 164.156C114.101 164.273 114.336 164.359 114.592 164.412C114.859 164.465 115.131 164.492 115.408 164.492C115.621 164.492 115.845 164.476 116.08 164.444C116.315 164.412 116.528 164.353 116.72 164.268C116.923 164.183 117.088 164.06 117.216 163.9C117.344 163.729 117.408 163.516 117.408 163.26C117.408 162.908 117.275 162.641 117.008 162.46C116.741 162.279 116.405 162.135 116 162.028C115.605 161.911 115.173 161.809 114.704 161.724C114.235 161.628 113.797 161.5 113.392 161.34C112.997 161.169 112.667 160.935 112.4 160.636C112.133 160.337 112 159.921 112 159.388C112 158.972 112.091 158.615 112.272 158.316C112.464 158.017 112.704 157.777 112.992 157.596C113.291 157.404 113.621 157.265 113.984 157.18C114.357 157.084 114.725 157.036 115.088 157.036C115.557 157.036 115.989 157.079 116.384 157.164C116.779 157.239 117.125 157.377 117.424 157.58C117.733 157.772 117.979 158.039 118.16 158.38C118.341 158.711 118.448 159.127 118.48 159.628H117.12C117.099 159.361 117.029 159.143 116.912 158.972C116.795 158.791 116.645 158.647 116.464 158.54C116.283 158.433 116.08 158.359 115.856 158.316C115.643 158.263 115.424 158.236 115.2 158.236C114.997 158.236 114.789 158.252 114.576 158.284C114.373 158.316 114.187 158.375 114.016 158.46C113.845 158.535 113.707 158.641 113.6 158.78C113.493 158.908 113.44 159.079 113.44 159.292C113.44 159.527 113.52 159.724 113.68 159.884C113.851 160.033 114.064 160.161 114.32 160.268C114.576 160.364 114.864 160.449 115.184 160.524C115.504 160.588 115.824 160.657 116.144 160.732C116.485 160.807 116.816 160.897 117.136 161.004C117.467 161.111 117.755 161.255 118 161.436C118.256 161.607 118.459 161.825 118.608 162.092C118.768 162.359 118.848 162.689 118.848 163.084C118.848 163.585 118.741 164.001 118.528 164.332C118.325 164.663 118.053 164.929 117.712 165.132C117.381 165.335 117.003 165.473 116.576 165.548C116.16 165.633 115.744 165.676 115.328 165.676C114.869 165.676 114.432 165.628 114.016 165.532C113.6 165.436 113.232 165.281 112.912 165.068C112.592 164.844 112.336 164.556 112.144 164.204C111.952 163.841 111.845 163.404 111.824 162.892H113.184ZM126.096 160.572C126.075 160.252 126 159.948 125.872 159.66C125.755 159.372 125.589 159.127 125.376 158.924C125.173 158.711 124.928 158.545 124.64 158.428C124.363 158.3 124.053 158.236 123.712 158.236C123.36 158.236 123.04 158.3 122.752 158.428C122.475 158.545 122.235 158.711 122.032 158.924C121.829 159.137 121.669 159.388 121.552 159.676C121.435 159.953 121.365 160.252 121.344 160.572H126.096ZM127.408 162.876C127.227 163.804 126.827 164.503 126.208 164.972C125.589 165.441 124.811 165.676 123.872 165.676C123.211 165.676 122.635 165.569 122.144 165.356C121.664 165.143 121.259 164.844 120.928 164.46C120.597 164.076 120.347 163.617 120.176 163.084C120.016 162.551 119.925 161.969 119.904 161.34C119.904 160.711 120 160.135 120.192 159.612C120.384 159.089 120.651 158.636 120.992 158.252C121.344 157.868 121.755 157.569 122.224 157.356C122.704 157.143 123.227 157.036 123.792 157.036C124.528 157.036 125.136 157.191 125.616 157.5C126.107 157.799 126.496 158.183 126.784 158.652C127.083 159.121 127.285 159.633 127.392 160.188C127.509 160.743 127.557 161.271 127.536 161.772H121.344C121.333 162.135 121.376 162.481 121.472 162.812C121.568 163.132 121.723 163.42 121.936 163.676C122.149 163.921 122.421 164.119 122.752 164.268C123.083 164.417 123.472 164.492 123.92 164.492C124.496 164.492 124.965 164.359 125.328 164.092C125.701 163.825 125.947 163.42 126.064 162.876H127.408Z" fill="black" fill-opacity="0.68"/>
<mask id="path-2-inside-1_68467_31756" fill="white">
<path d="M270 130H510V190H270V130Z"/>
</mask>
<path d="M270 130H510V190H270V130Z" fill="black" fill-opacity="0.04"/>
<path d="M510 190V189H270V190V191H510V190Z" fill="black" fill-opacity="0.2" mask="url(#path-2-inside-1_68467_31756)"/>
<path d="M288.076 147.536H290.308C290.956 147.544 291.428 147.412 291.724 147.14C292.028 146.868 292.18 146.476 292.18 145.964C292.18 145.452 292.028 145.064 291.724 144.8C291.428 144.528 290.956 144.392 290.308 144.392H288.076V147.536ZM286.936 143.432H290.692C291.556 143.432 292.208 143.656 292.648 144.104C293.096 144.544 293.32 145.164 293.32 145.964C293.32 146.764 293.096 147.388 292.648 147.836C292.208 148.284 291.556 148.504 290.692 148.496H288.076V152H286.936V143.432ZM300.225 151.976C300.049 152.08 299.805 152.132 299.493 152.132C299.229 152.132 299.017 152.06 298.857 151.916C298.705 151.764 298.629 151.52 298.629 151.184C298.349 151.52 298.021 151.764 297.645 151.916C297.277 152.06 296.877 152.132 296.445 152.132C296.165 152.132 295.897 152.1 295.641 152.036C295.393 151.972 295.177 151.872 294.993 151.736C294.809 151.6 294.661 151.424 294.549 151.208C294.445 150.984 294.393 150.716 294.393 150.404C294.393 150.052 294.453 149.764 294.573 149.54C294.693 149.316 294.849 149.136 295.041 149C295.241 148.856 295.465 148.748 295.713 148.676C295.969 148.604 296.229 148.544 296.493 148.496C296.773 148.44 297.037 148.4 297.285 148.376C297.541 148.344 297.765 148.304 297.957 148.256C298.149 148.2 298.301 148.124 298.413 148.028C298.525 147.924 298.581 147.776 298.581 147.584C298.581 147.36 298.537 147.18 298.449 147.044C298.369 146.908 298.261 146.804 298.125 146.732C297.997 146.66 297.849 146.612 297.681 146.588C297.521 146.564 297.361 146.552 297.201 146.552C296.769 146.552 296.409 146.636 296.121 146.804C295.833 146.964 295.677 147.272 295.653 147.728H294.633C294.649 147.344 294.729 147.02 294.873 146.756C295.017 146.492 295.209 146.28 295.449 146.12C295.689 145.952 295.961 145.832 296.265 145.76C296.577 145.688 296.909 145.652 297.261 145.652C297.541 145.652 297.817 145.672 298.089 145.712C298.369 145.752 298.621 145.836 298.845 145.964C299.069 146.084 299.249 146.256 299.385 146.48C299.521 146.704 299.589 146.996 299.589 147.356V150.548C299.589 150.788 299.601 150.964 299.625 151.076C299.657 151.188 299.753 151.244 299.913 151.244C300.001 151.244 300.105 151.224 300.225 151.184V151.976ZM298.569 148.796C298.441 148.892 298.273 148.964 298.065 149.012C297.857 149.052 297.637 149.088 297.405 149.12C297.181 149.144 296.953 149.176 296.721 149.216C296.489 149.248 296.281 149.304 296.097 149.384C295.913 149.464 295.761 149.58 295.641 149.732C295.529 149.876 295.473 150.076 295.473 150.332C295.473 150.5 295.505 150.644 295.569 150.764C295.641 150.876 295.729 150.968 295.833 151.04C295.945 151.112 296.073 151.164 296.217 151.196C296.361 151.228 296.513 151.244 296.673 151.244C297.009 151.244 297.297 151.2 297.537 151.112C297.777 151.016 297.973 150.9 298.125 150.764C298.277 150.62 298.389 150.468 298.461 150.308C298.533 150.14 298.569 149.984 298.569 149.84V148.796ZM301.979 150.044C301.987 150.268 302.039 150.46 302.135 150.62C302.231 150.772 302.355 150.896 302.507 150.992C302.667 151.08 302.843 151.144 303.035 151.184C303.235 151.224 303.439 151.244 303.647 151.244C303.807 151.244 303.975 151.232 304.151 151.208C304.327 151.184 304.487 151.14 304.631 151.076C304.783 151.012 304.907 150.92 305.003 150.8C305.099 150.672 305.147 150.512 305.147 150.32C305.147 150.056 305.047 149.856 304.847 149.72C304.647 149.584 304.395 149.476 304.091 149.396C303.795 149.308 303.471 149.232 303.119 149.168C302.767 149.096 302.439 149 302.135 148.88C301.839 148.752 301.591 148.576 301.391 148.352C301.191 148.128 301.091 147.816 301.091 147.416C301.091 147.104 301.159 146.836 301.295 146.612C301.439 146.388 301.619 146.208 301.835 146.072C302.059 145.928 302.307 145.824 302.579 145.76C302.859 145.688 303.135 145.652 303.407 145.652C303.759 145.652 304.083 145.684 304.379 145.748C304.675 145.804 304.935 145.908 305.159 146.06C305.391 146.204 305.575 146.404 305.711 146.66C305.847 146.908 305.927 147.22 305.951 147.596H304.931C304.915 147.396 304.863 147.232 304.775 147.104C304.687 146.968 304.575 146.86 304.439 146.78C304.303 146.7 304.151 146.644 303.983 146.612C303.823 146.572 303.659 146.552 303.491 146.552C303.339 146.552 303.183 146.564 303.023 146.588C302.871 146.612 302.731 146.656 302.603 146.72C302.475 146.776 302.371 146.856 302.291 146.96C302.211 147.056 302.171 147.184 302.171 147.344C302.171 147.52 302.231 147.668 302.351 147.788C302.479 147.9 302.639 147.996 302.831 148.076C303.023 148.148 303.239 148.212 303.479 148.268C303.719 148.316 303.959 148.368 304.199 148.424C304.455 148.48 304.703 148.548 304.943 148.628C305.191 148.708 305.407 148.816 305.591 148.952C305.783 149.08 305.935 149.244 306.047 149.444C306.167 149.644 306.227 149.892 306.227 150.188C306.227 150.564 306.147 150.876 305.987 151.124C305.835 151.372 305.631 151.572 305.375 151.724C305.127 151.876 304.843 151.98 304.523 152.036C304.211 152.1 303.899 152.132 303.587 152.132C303.243 152.132 302.915 152.096 302.603 152.024C302.291 151.952 302.015 151.836 301.775 151.676C301.535 151.508 301.343 151.292 301.199 151.028C301.055 150.756 300.975 150.428 300.959 150.044H301.979ZM308.159 150.044C308.167 150.268 308.219 150.46 308.315 150.62C308.411 150.772 308.535 150.896 308.687 150.992C308.847 151.08 309.023 151.144 309.215 151.184C309.415 151.224 309.619 151.244 309.827 151.244C309.987 151.244 310.155 151.232 310.331 151.208C310.507 151.184 310.667 151.14 310.811 151.076C310.963 151.012 311.087 150.92 311.183 150.8C311.279 150.672 311.327 150.512 311.327 150.32C311.327 150.056 311.227 149.856 311.027 149.72C310.827 149.584 310.575 149.476 310.271 149.396C309.975 149.308 309.651 149.232 309.299 149.168C308.947 149.096 308.619 149 308.315 148.88C308.019 148.752 307.771 148.576 307.571 148.352C307.371 148.128 307.271 147.816 307.271 147.416C307.271 147.104 307.339 146.836 307.475 146.612C307.619 146.388 307.799 146.208 308.015 146.072C308.239 145.928 308.487 145.824 308.759 145.76C309.039 145.688 309.315 145.652 309.587 145.652C309.939 145.652 310.263 145.684 310.559 145.748C310.855 145.804 311.115 145.908 311.339 146.06C311.571 146.204 311.755 146.404 311.891 146.66C312.027 146.908 312.107 147.22 312.131 147.596H311.111C311.095 147.396 311.043 147.232 310.955 147.104C310.867 146.968 310.755 146.86 310.619 146.78C310.483 146.7 310.331 146.644 310.163 146.612C310.003 146.572 309.839 146.552 309.671 146.552C309.519 146.552 309.363 146.564 309.203 146.588C309.051 146.612 308.911 146.656 308.783 146.72C308.655 146.776 308.551 146.856 308.471 146.96C308.391 147.056 308.351 147.184 308.351 147.344C308.351 147.52 308.411 147.668 308.531 147.788C308.659 147.9 308.819 147.996 309.011 148.076C309.203 148.148 309.419 148.212 309.659 148.268C309.899 148.316 310.139 148.368 310.379 148.424C310.635 148.48 310.883 148.548 311.123 148.628C311.371 148.708 311.587 148.816 311.771 148.952C311.963 149.08 312.115 149.244 312.227 149.444C312.347 149.644 312.407 149.892 312.407 150.188C312.407 150.564 312.327 150.876 312.167 151.124C312.015 151.372 311.811 151.572 311.555 151.724C311.307 151.876 311.023 151.98 310.703 152.036C310.391 152.1 310.079 152.132 309.767 152.132C309.423 152.132 309.095 152.096 308.783 152.024C308.471 151.952 308.195 151.836 307.955 151.676C307.715 151.508 307.523 151.292 307.379 151.028C307.235 150.756 307.155 150.428 307.139 150.044H308.159ZM319.859 152H318.779L317.519 147.068H317.495L316.247 152H315.143L313.151 145.796H314.279L315.683 150.872H315.707L316.955 145.796H318.071L319.367 150.872H319.391L320.783 145.796H321.839L319.859 152ZM323.732 148.904C323.732 149.28 323.78 149.616 323.876 149.912C323.98 150.2 324.12 150.444 324.296 150.644C324.472 150.836 324.676 150.984 324.908 151.088C325.148 151.192 325.4 151.244 325.664 151.244C325.928 151.244 326.176 151.192 326.408 151.088C326.648 150.984 326.856 150.836 327.032 150.644C327.208 150.444 327.344 150.2 327.44 149.912C327.544 149.616 327.596 149.28 327.596 148.904C327.596 148.528 327.544 148.196 327.44 147.908C327.344 147.612 327.208 147.364 327.032 147.164C326.856 146.964 326.648 146.812 326.408 146.708C326.176 146.604 325.928 146.552 325.664 146.552C325.4 146.552 325.148 146.604 324.908 146.708C324.676 146.812 324.472 146.964 324.296 147.164C324.12 147.364 323.98 147.612 323.876 147.908C323.78 148.196 323.732 148.528 323.732 148.904ZM322.652 148.904C322.652 148.448 322.716 148.024 322.844 147.632C322.972 147.232 323.164 146.888 323.42 146.6C323.676 146.304 323.992 146.072 324.368 145.904C324.744 145.736 325.176 145.652 325.664 145.652C326.16 145.652 326.592 145.736 326.96 145.904C327.336 146.072 327.652 146.304 327.908 146.6C328.164 146.888 328.356 147.232 328.484 147.632C328.612 148.024 328.676 148.448 328.676 148.904C328.676 149.36 328.612 149.784 328.484 150.176C328.356 150.568 328.164 150.912 327.908 151.208C327.652 151.496 327.336 151.724 326.96 151.892C326.592 152.052 326.16 152.132 325.664 152.132C325.176 152.132 324.744 152.052 324.368 151.892C323.992 151.724 323.676 151.496 323.42 151.208C323.164 150.912 322.972 150.568 322.844 150.176C322.716 149.784 322.652 149.36 322.652 148.904ZM330.023 145.796H330.983V147.104H331.007C331.255 146.6 331.559 146.228 331.919 145.988C332.279 145.748 332.735 145.636 333.287 145.652V146.732C332.879 146.732 332.531 146.788 332.243 146.9C331.955 147.012 331.723 147.176 331.547 147.392C331.371 147.608 331.243 147.872 331.163 148.184C331.083 148.488 331.043 148.84 331.043 149.24V152H330.023V145.796ZM334.768 148.952C334.768 149.24 334.804 149.524 334.876 149.804C334.956 150.076 335.072 150.32 335.224 150.536C335.384 150.752 335.584 150.924 335.824 151.052C336.072 151.18 336.36 151.244 336.688 151.244C337.032 151.244 337.324 151.176 337.564 151.04C337.804 150.904 338 150.728 338.152 150.512C338.304 150.288 338.412 150.036 338.476 149.756C338.548 149.476 338.584 149.192 338.584 148.904C338.584 148.6 338.548 148.308 338.476 148.028C338.404 147.74 338.288 147.488 338.128 147.272C337.976 147.056 337.776 146.884 337.528 146.756C337.28 146.62 336.98 146.552 336.628 146.552C336.284 146.552 335.992 146.62 335.752 146.756C335.512 146.892 335.32 147.072 335.176 147.296C335.032 147.52 334.928 147.776 334.864 148.064C334.8 148.352 334.768 148.648 334.768 148.952ZM339.568 152H338.548V151.16H338.524C338.356 151.504 338.092 151.752 337.732 151.904C337.372 152.056 336.976 152.132 336.544 152.132C336.064 152.132 335.644 152.044 335.284 151.868C334.932 151.692 334.636 151.456 334.396 151.16C334.164 150.864 333.988 150.52 333.868 150.128C333.748 149.736 333.688 149.32 333.688 148.88C333.688 148.44 333.744 148.024 333.856 147.632C333.976 147.24 334.152 146.9 334.384 146.612C334.624 146.316 334.92 146.084 335.272 145.916C335.632 145.74 336.048 145.652 336.52 145.652C336.68 145.652 336.852 145.668 337.036 145.7C337.22 145.732 337.404 145.788 337.588 145.868C337.772 145.94 337.944 146.04 338.104 146.168C338.272 146.288 338.412 146.44 338.524 146.624H338.548V143.432H339.568V152Z" fill="black" fill-opacity="0.68"/>
<path d="M287.632 168.576C287.632 168.096 287.723 167.653 287.904 167.248C288.085 166.832 288.331 166.469 288.64 166.16C288.949 165.851 289.307 165.611 289.712 165.44C290.128 165.259 290.571 165.168 291.04 165.168C291.52 165.168 291.963 165.259 292.368 165.44C292.784 165.611 293.147 165.851 293.456 166.16C293.765 166.469 294.005 166.832 294.176 167.248C294.357 167.653 294.448 168.096 294.448 168.576C294.448 169.045 294.357 169.488 294.176 169.904C294.005 170.309 293.765 170.667 293.456 170.976C293.147 171.285 292.784 171.531 292.368 171.712C291.963 171.893 291.52 171.984 291.04 171.984C290.571 171.984 290.128 171.893 289.712 171.712C289.307 171.531 288.949 171.285 288.64 170.976C288.331 170.667 288.085 170.309 287.904 169.904C287.723 169.488 287.632 169.045 287.632 168.576ZM297.832 168.576C297.832 168.096 297.923 167.653 298.104 167.248C298.285 166.832 298.531 166.469 298.84 166.16C299.149 165.851 299.507 165.611 299.912 165.44C300.328 165.259 300.771 165.168 301.24 165.168C301.72 165.168 302.163 165.259 302.568 165.44C302.984 165.611 303.347 165.851 303.656 166.16C303.965 166.469 304.205 166.832 304.376 167.248C304.557 167.653 304.648 168.096 304.648 168.576C304.648 169.045 304.557 169.488 304.376 169.904C304.205 170.309 303.965 170.667 303.656 170.976C303.347 171.285 302.984 171.531 302.568 171.712C302.163 171.893 301.72 171.984 301.24 171.984C300.771 171.984 300.328 171.893 299.912 171.712C299.507 171.531 299.149 171.285 298.84 170.976C298.531 170.667 298.285 170.309 298.104 169.904C297.923 169.488 297.832 169.045 297.832 168.576ZM308.032 168.576C308.032 168.096 308.123 167.653 308.304 167.248C308.485 166.832 308.731 166.469 309.04 166.16C309.349 165.851 309.707 165.611 310.112 165.44C310.528 165.259 310.971 165.168 311.44 165.168C311.92 165.168 312.363 165.259 312.768 165.44C313.184 165.611 313.547 165.851 313.856 166.16C314.165 166.469 314.405 166.832 314.576 167.248C314.757 167.653 314.848 168.096 314.848 168.576C314.848 169.045 314.757 169.488 314.576 169.904C314.405 170.309 314.165 170.667 313.856 170.976C313.547 171.285 313.184 171.531 312.768 171.712C312.363 171.893 311.92 171.984 311.44 171.984C310.971 171.984 310.528 171.893 310.112 171.712C309.707 171.531 309.349 171.285 309.04 170.976C308.731 170.667 308.485 170.309 308.304 169.904C308.123 169.488 308.032 169.045 308.032 168.576ZM318.232 168.576C318.232 168.096 318.323 167.653 318.504 167.248C318.685 166.832 318.931 166.469 319.24 166.16C319.549 165.851 319.907 165.611 320.312 165.44C320.728 165.259 321.171 165.168 321.64 165.168C322.12 165.168 322.563 165.259 322.968 165.44C323.384 165.611 323.747 165.851 324.056 166.16C324.365 166.469 324.605 166.832 324.776 167.248C324.957 167.653 325.048 168.096 325.048 168.576C325.048 169.045 324.957 169.488 324.776 169.904C324.605 170.309 324.365 170.667 324.056 170.976C323.747 171.285 323.384 171.531 322.968 171.712C322.563 171.893 322.12 171.984 321.64 171.984C321.171 171.984 320.728 171.893 320.312 171.712C319.907 171.531 319.549 171.285 319.24 170.976C318.931 170.667 318.685 170.309 318.504 169.904C318.323 169.488 318.232 169.045 318.232 168.576ZM328.432 168.576C328.432 168.096 328.523 167.653 328.704 167.248C328.885 166.832 329.131 166.469 329.44 166.16C329.749 165.851 330.107 165.611 330.512 165.44C330.928 165.259 331.371 165.168 331.84 165.168C332.32 165.168 332.763 165.259 333.168 165.44C333.584 165.611 333.947 165.851 334.256 166.16C334.565 166.469 334.805 166.832 334.976 167.248C335.157 167.653 335.248 168.096 335.248 168.576C335.248 169.045 335.157 169.488 334.976 169.904C334.805 170.309 334.565 170.667 334.256 170.976C333.947 171.285 333.584 171.531 333.168 171.712C332.763 171.893 332.32 171.984 331.84 171.984C331.371 171.984 330.928 171.893 330.512 171.712C330.107 171.531 329.749 171.285 329.44 170.976C329.131 170.667 328.885 170.309 328.704 169.904C328.523 169.488 328.432 169.045 328.432 168.576ZM338.632 168.576C338.632 168.096 338.723 167.653 338.904 167.248C339.085 166.832 339.331 166.469 339.64 166.16C339.949 165.851 340.307 165.611 340.712 165.44C341.128 165.259 341.571 165.168 342.04 165.168C342.52 165.168 342.963 165.259 343.368 165.44C343.784 165.611 344.147 165.851 344.456 166.16C344.765 166.469 345.005 166.832 345.176 167.248C345.357 167.653 345.448 168.096 345.448 168.576C345.448 169.045 345.357 169.488 345.176 169.904C345.005 170.309 344.765 170.667 344.456 170.976C344.147 171.285 343.784 171.531 343.368 171.712C342.963 171.893 342.52 171.984 342.04 171.984C341.571 171.984 341.128 171.893 340.712 171.712C340.307 171.531 339.949 171.285 339.64 170.976C339.331 170.667 339.085 170.309 338.904 169.904C338.723 169.488 338.632 169.045 338.632 168.576ZM348.832 168.576C348.832 168.096 348.923 167.653 349.104 167.248C349.285 166.832 349.531 166.469 349.84 166.16C350.149 165.851 350.507 165.611 350.912 165.44C351.328 165.259 351.771 165.168 352.24 165.168C352.72 165.168 353.163 165.259 353.568 165.44C353.984 165.611 354.347 165.851 354.656 166.16C354.965 166.469 355.205 166.832 355.376 167.248C355.557 167.653 355.648 168.096 355.648 168.576C355.648 169.045 355.557 169.488 355.376 169.904C355.205 170.309 354.965 170.667 354.656 170.976C354.347 171.285 353.984 171.531 353.568 171.712C353.163 171.893 352.72 171.984 352.24 171.984C351.771 171.984 351.328 171.893 350.912 171.712C350.507 171.531 350.149 171.285 349.84 170.976C349.531 170.667 349.285 170.309 349.104 169.904C348.923 169.488 348.832 169.045 348.832 168.576Z" fill="black"/>
<path fill-rule="evenodd" clip-rule="evenodd" d="M480.314 154.003C480.217 154.003 480.121 154 480.024 154C479.927 154 479.83 154.003 479.734 154.003C475.232 154.003 470.676 157.176 469.2 160C470.676 162.824 475.184 165.997 479.686 165.997C479.782 165.997 479.879 166 479.976 166C480.073 166 480.169 165.997 480.266 165.997C484.768 165.997 489.324 162.824 490.8 160C489.324 157.176 484.816 154.003 480.314 154.003ZM479.967 164.32C479.112 164.32 478.277 164.067 477.567 163.592C476.856 163.117 476.303 162.443 475.976 161.653C475.649 160.864 475.563 159.995 475.73 159.157C475.897 158.319 476.308 157.549 476.912 156.945C477.516 156.341 478.286 155.93 479.124 155.763C479.962 155.596 480.831 155.682 481.62 156.009C482.409 156.336 483.084 156.89 483.559 157.6C484.033 158.31 484.287 159.146 484.287 160C484.287 161.146 483.832 162.245 483.022 163.055C482.211 163.865 481.113 164.32 479.967 164.32ZM470.89 160.001C471.605 159.003 472.748 157.983 474.08 157.173C474.513 156.91 474.961 156.672 475.422 156.461C474.63 157.476 474.202 158.728 474.205 160.015C474.209 161.303 474.644 162.552 475.441 163.563C474.966 163.347 474.505 163.101 474.059 162.829C472.739 162.021 471.604 161.002 470.89 160.001ZM485.92 162.827C485.454 163.11 484.972 163.364 484.474 163.587C485.29 162.564 485.732 161.293 485.729 159.985C485.725 158.677 485.276 157.41 484.456 156.391C484.967 156.618 485.463 156.879 485.941 157.171C487.261 157.979 488.396 158.998 489.11 159.999C488.395 160.998 487.252 162.017 485.92 162.827ZM482.35 158.876C482.305 159.072 482.208 159.253 482.071 159.401C481.934 159.549 481.761 159.658 481.568 159.718C481.376 159.778 481.171 159.787 480.974 159.744C480.777 159.7 480.595 159.606 480.446 159.471C480.296 159.336 480.185 159.164 480.123 158.972C480.06 158.78 480.049 158.576 480.09 158.378C480.131 158.181 480.222 157.998 480.356 157.847C480.489 157.696 480.66 157.582 480.851 157.517C480.277 157.313 479.651 157.314 479.078 157.52C478.504 157.726 478.02 158.124 477.708 158.647C477.395 159.169 477.274 159.784 477.363 160.386C477.453 160.989 477.749 161.541 478.2 161.95C478.651 162.359 479.23 162.599 479.838 162.629C480.447 162.659 481.046 162.477 481.536 162.115C482.025 161.752 482.374 161.231 482.522 160.641C482.671 160.05 482.61 159.426 482.35 158.876Z" fill="black"/>
<path d="M93.84 289.356H90.032V288.076H99.168V289.356H95.36V299.5H93.84V289.356ZM98.6948 291.228H99.9748V292.972H100.007C100.337 292.3 100.743 291.804 101.223 291.484C101.703 291.164 102.311 291.015 103.047 291.036V292.476C102.503 292.476 102.039 292.551 101.655 292.7C101.271 292.849 100.961 293.068 100.727 293.356C100.492 293.644 100.321 293.996 100.215 294.412C100.108 294.817 100.055 295.287 100.055 295.82V299.5H98.6948V291.228ZM110.919 299.5H109.639V298.188H109.607C109.319 298.7 108.951 299.079 108.503 299.324C108.055 299.559 107.527 299.676 106.919 299.676C106.375 299.676 105.922 299.607 105.559 299.468C105.196 299.319 104.903 299.111 104.679 298.844C104.455 298.577 104.295 298.263 104.199 297.9C104.114 297.527 104.071 297.116 104.071 296.668V291.228H105.431V296.828C105.431 297.34 105.58 297.745 105.879 298.044C106.178 298.343 106.588 298.492 107.111 298.492C107.527 298.492 107.884 298.428 108.183 298.3C108.492 298.172 108.748 297.991 108.951 297.756C109.154 297.521 109.303 297.249 109.399 296.94C109.506 296.62 109.559 296.273 109.559 295.9V291.228H110.919V299.5ZM118.706 294.572C118.684 294.252 118.61 293.948 118.482 293.66C118.364 293.372 118.199 293.127 117.986 292.924C117.783 292.711 117.538 292.545 117.25 292.428C116.972 292.3 116.663 292.236 116.322 292.236C115.97 292.236 115.65 292.3 115.362 292.428C115.084 292.545 114.844 292.711 114.642 292.924C114.439 293.137 114.279 293.388 114.162 293.676C114.044 293.953 113.975 294.252 113.954 294.572H118.706ZM120.017 296.876C119.836 297.804 119.436 298.503 118.818 298.972C118.199 299.441 117.42 299.676 116.482 299.676C115.82 299.676 115.244 299.569 114.754 299.356C114.274 299.143 113.868 298.844 113.538 298.46C113.207 298.076 112.956 297.617 112.786 297.084C112.626 296.551 112.535 295.969 112.514 295.34C112.514 294.711 112.61 294.135 112.802 293.612C112.994 293.089 113.26 292.636 113.602 292.252C113.954 291.868 114.364 291.569 114.834 291.356C115.314 291.143 115.836 291.036 116.402 291.036C117.138 291.036 117.746 291.191 118.226 291.5C118.716 291.799 119.106 292.183 119.394 292.652C119.692 293.121 119.895 293.633 120.002 294.188C120.119 294.743 120.167 295.271 120.146 295.772H113.954C113.943 296.135 113.986 296.481 114.082 296.812C114.178 297.132 114.332 297.42 114.546 297.676C114.759 297.921 115.031 298.119 115.362 298.268C115.692 298.417 116.082 298.492 116.53 298.492C117.106 298.492 117.575 298.359 117.938 298.092C118.311 297.825 118.556 297.42 118.674 296.876H120.017Z" fill="black" fill-opacity="0.68"/>
<mask id="path-8-inside-2_68467_31756" fill="white">
<path d="M270 240H510V300H270V240Z"/>
</mask>
<path d="M270 240H510V300H270V240Z" fill="#DB0002" fill-opacity="0.08"/>
<path d="M510 300V299H270V300V301H510V300Z" fill="#DB0002" mask="url(#path-8-inside-2_68467_31756)"/>
<path d="M288.076 257.536H290.308C290.956 257.544 291.428 257.412 291.724 257.14C292.028 256.868 292.18 256.476 292.18 255.964C292.18 255.452 292.028 255.064 291.724 254.8C291.428 254.528 290.956 254.392 290.308 254.392H288.076V257.536ZM286.936 253.432H290.692C291.556 253.432 292.208 253.656 292.648 254.104C293.096 254.544 293.32 255.164 293.32 255.964C293.32 256.764 293.096 257.388 292.648 257.836C292.208 258.284 291.556 258.504 290.692 258.496H288.076V262H286.936V253.432ZM300.225 261.976C300.049 262.08 299.805 262.132 299.493 262.132C299.229 262.132 299.017 262.06 298.857 261.916C298.705 261.764 298.629 261.52 298.629 261.184C298.349 261.52 298.021 261.764 297.645 261.916C297.277 262.06 296.877 262.132 296.445 262.132C296.165 262.132 295.897 262.1 295.641 262.036C295.393 261.972 295.177 261.872 294.993 261.736C294.809 261.6 294.661 261.424 294.549 261.208C294.445 260.984 294.393 260.716 294.393 260.404C294.393 260.052 294.453 259.764 294.573 259.54C294.693 259.316 294.849 259.136 295.041 259C295.241 258.856 295.465 258.748 295.713 258.676C295.969 258.604 296.229 258.544 296.493 258.496C296.773 258.44 297.037 258.4 297.285 258.376C297.541 258.344 297.765 258.304 297.957 258.256C298.149 258.2 298.301 258.124 298.413 258.028C298.525 257.924 298.581 257.776 298.581 257.584C298.581 257.36 298.537 257.18 298.449 257.044C298.369 256.908 298.261 256.804 298.125 256.732C297.997 256.66 297.849 256.612 297.681 256.588C297.521 256.564 297.361 256.552 297.201 256.552C296.769 256.552 296.409 256.636 296.121 256.804C295.833 256.964 295.677 257.272 295.653 257.728H294.633C294.649 257.344 294.729 257.02 294.873 256.756C295.017 256.492 295.209 256.28 295.449 256.12C295.689 255.952 295.961 255.832 296.265 255.76C296.577 255.688 296.909 255.652 297.261 255.652C297.541 255.652 297.817 255.672 298.089 255.712C298.369 255.752 298.621 255.836 298.845 255.964C299.069 256.084 299.249 256.256 299.385 256.48C299.521 256.704 299.589 256.996 299.589 257.356V260.548C299.589 260.788 299.601 260.964 299.625 261.076C299.657 261.188 299.753 261.244 299.913 261.244C300.001 261.244 300.105 261.224 300.225 261.184V261.976ZM298.569 258.796C298.441 258.892 298.273 258.964 298.065 259.012C297.857 259.052 297.637 259.088 297.405 259.12C297.181 259.144 296.953 259.176 296.721 259.216C296.489 259.248 296.281 259.304 296.097 259.384C295.913 259.464 295.761 259.58 295.641 259.732C295.529 259.876 295.473 260.076 295.473 260.332C295.473 260.5 295.505 260.644 295.569 260.764C295.641 260.876 295.729 260.968 295.833 261.04C295.945 261.112 296.073 261.164 296.217 261.196C296.361 261.228 296.513 261.244 296.673 261.244C297.009 261.244 297.297 261.2 297.537 261.112C297.777 261.016 297.973 260.9 298.125 260.764C298.277 260.62 298.389 260.468 298.461 260.308C298.533 260.14 298.569 259.984 298.569 259.84V258.796ZM301.979 260.044C301.987 260.268 302.039 260.46 302.135 260.62C302.231 260.772 302.355 260.896 302.507 260.992C302.667 261.08 302.843 261.144 303.035 261.184C303.235 261.224 303.439 261.244 303.647 261.244C303.807 261.244 303.975 261.232 304.151 261.208C304.327 261.184 304.487 261.14 304.631 261.076C304.783 261.012 304.907 260.92 305.003 260.8C305.099 260.672 305.147 260.512 305.147 260.32C305.147 260.056 305.047 259.856 304.847 259.72C304.647 259.584 304.395 259.476 304.091 259.396C303.795 259.308 303.471 259.232 303.119 259.168C302.767 259.096 302.439 259 302.135 258.88C301.839 258.752 301.591 258.576 301.391 258.352C301.191 258.128 301.091 257.816 301.091 257.416C301.091 257.104 301.159 256.836 301.295 256.612C301.439 256.388 301.619 256.208 301.835 256.072C302.059 255.928 302.307 255.824 302.579 255.76C302.859 255.688 303.135 255.652 303.407 255.652C303.759 255.652 304.083 255.684 304.379 255.748C304.675 255.804 304.935 255.908 305.159 256.06C305.391 256.204 305.575 256.404 305.711 256.66C305.847 256.908 305.927 257.22 305.951 257.596H304.931C304.915 257.396 304.863 257.232 304.775 257.104C304.687 256.968 304.575 256.86 304.439 256.78C304.303 256.7 304.151 256.644 303.983 256.612C303.823 256.572 303.659 256.552 303.491 256.552C303.339 256.552 303.183 256.564 303.023 256.588C302.871 256.612 302.731 256.656 302.603 256.72C302.475 256.776 302.371 256.856 302.291 256.96C302.211 257.056 302.171 257.184 302.171 257.344C302.171 257.52 302.231 257.668 302.351 257.788C302.479 257.9 302.639 257.996 302.831 258.076C303.023 258.148 303.239 258.212 303.479 258.268C303.719 258.316 303.959 258.368 304.199 258.424C304.455 258.48 304.703 258.548 304.943 258.628C305.191 258.708 305.407 258.816 305.591 258.952C305.783 259.08 305.935 259.244 306.047 259.444C306.167 259.644 306.227 259.892 306.227 260.188C306.227 260.564 306.147 260.876 305.987 261.124C305.835 261.372 305.631 261.572 305.375 261.724C305.127 261.876 304.843 261.98 304.523 262.036C304.211 262.1 303.899 262.132 303.587 262.132C303.243 262.132 302.915 262.096 302.603 262.024C302.291 261.952 302.015 261.836 301.775 261.676C301.535 261.508 301.343 261.292 301.199 261.028C301.055 260.756 300.975 260.428 300.959 260.044H301.979ZM308.159 260.044C308.167 260.268 308.219 260.46 308.315 260.62C308.411 260.772 308.535 260.896 308.687 260.992C308.847 261.08 309.023 261.144 309.215 261.184C309.415 261.224 309.619 261.244 309.827 261.244C309.987 261.244 310.155 261.232 310.331 261.208C310.507 261.184 310.667 261.14 310.811 261.076C310.963 261.012 311.087 260.92 311.183 260.8C311.279 260.672 311.327 260.512 311.327 260.32C311.327 260.056 311.227 259.856 311.027 259.72C310.827 259.584 310.575 259.476 310.271 259.396C309.975 259.308 309.651 259.232 309.299 259.168C308.947 259.096 308.619 259 308.315 258.88C308.019 258.752 307.771 258.576 307.571 258.352C307.371 258.128 307.271 257.816 307.271 257.416C307.271 257.104 307.339 256.836 307.475 256.612C307.619 256.388 307.799 256.208 308.015 256.072C308.239 255.928 308.487 255.824 308.759 255.76C309.039 255.688 309.315 255.652 309.587 255.652C309.939 255.652 310.263 255.684 310.559 255.748C310.855 255.804 311.115 255.908 311.339 256.06C311.571 256.204 311.755 256.404 311.891 256.66C312.027 256.908 312.107 257.22 312.131 257.596H311.111C311.095 257.396 311.043 257.232 310.955 257.104C310.867 256.968 310.755 256.86 310.619 256.78C310.483 256.7 310.331 256.644 310.163 256.612C310.003 256.572 309.839 256.552 309.671 256.552C309.519 256.552 309.363 256.564 309.203 256.588C309.051 256.612 308.911 256.656 308.783 256.72C308.655 256.776 308.551 256.856 308.471 256.96C308.391 257.056 308.351 257.184 308.351 257.344C308.351 257.52 308.411 257.668 308.531 257.788C308.659 257.9 308.819 257.996 309.011 258.076C309.203 258.148 309.419 258.212 309.659 258.268C309.899 258.316 310.139 258.368 310.379 258.424C310.635 258.48 310.883 258.548 311.123 258.628C311.371 258.708 311.587 258.816 311.771 258.952C311.963 259.08 312.115 259.244 312.227 259.444C312.347 259.644 312.407 259.892 312.407 260.188C312.407 260.564 312.327 260.876 312.167 261.124C312.015 261.372 311.811 261.572 311.555 261.724C311.307 261.876 311.023 261.98 310.703 262.036C310.391 262.1 310.079 262.132 309.767 262.132C309.423 262.132 309.095 262.096 308.783 262.024C308.471 261.952 308.195 261.836 307.955 261.676C307.715 261.508 307.523 261.292 307.379 261.028C307.235 260.756 307.155 260.428 307.139 260.044H308.159ZM319.859 262H318.779L317.519 257.068H317.495L316.247 262H315.143L313.151 255.796H314.279L315.683 260.872H315.707L316.955 255.796H318.071L319.367 260.872H319.391L320.783 255.796H321.839L319.859 262ZM323.732 258.904C323.732 259.28 323.78 259.616 323.876 259.912C323.98 260.2 324.12 260.444 324.296 260.644C324.472 260.836 324.676 260.984 324.908 261.088C325.148 261.192 325.4 261.244 325.664 261.244C325.928 261.244 326.176 261.192 326.408 261.088C326.648 260.984 326.856 260.836 327.032 260.644C327.208 260.444 327.344 260.2 327.44 259.912C327.544 259.616 327.596 259.28 327.596 258.904C327.596 258.528 327.544 258.196 327.44 257.908C327.344 257.612 327.208 257.364 327.032 257.164C326.856 256.964 326.648 256.812 326.408 256.708C326.176 256.604 325.928 256.552 325.664 256.552C325.4 256.552 325.148 256.604 324.908 256.708C324.676 256.812 324.472 256.964 324.296 257.164C324.12 257.364 323.98 257.612 323.876 257.908C323.78 258.196 323.732 258.528 323.732 258.904ZM322.652 258.904C322.652 258.448 322.716 258.024 322.844 257.632C322.972 257.232 323.164 256.888 323.42 256.6C323.676 256.304 323.992 256.072 324.368 255.904C324.744 255.736 325.176 255.652 325.664 255.652C326.16 255.652 326.592 255.736 326.96 255.904C327.336 256.072 327.652 256.304 327.908 256.6C328.164 256.888 328.356 257.232 328.484 257.632C328.612 258.024 328.676 258.448 328.676 258.904C328.676 259.36 328.612 259.784 328.484 260.176C328.356 260.568 328.164 260.912 327.908 261.208C327.652 261.496 327.336 261.724 326.96 261.892C326.592 262.052 326.16 262.132 325.664 262.132C325.176 262.132 324.744 262.052 324.368 261.892C323.992 261.724 323.676 261.496 323.42 261.208C323.164 260.912 322.972 260.568 322.844 260.176C322.716 259.784 322.652 259.36 322.652 258.904ZM330.023 255.796H330.983V257.104H331.007C331.255 256.6 331.559 256.228 331.919 255.988C332.279 255.748 332.735 255.636 333.287 255.652V256.732C332.879 256.732 332.531 256.788 332.243 256.9C331.955 257.012 331.723 257.176 331.547 257.392C331.371 257.608 331.243 257.872 331.163 258.184C331.083 258.488 331.043 258.84 331.043 259.24V262H330.023V255.796ZM334.768 258.952C334.768 259.24 334.804 259.524 334.876 259.804C334.956 260.076 335.072 260.32 335.224 260.536C335.384 260.752 335.584 260.924 335.824 261.052C336.072 261.18 336.36 261.244 336.688 261.244C337.032 261.244 337.324 261.176 337.564 261.04C337.804 260.904 338 260.728 338.152 260.512C338.304 260.288 338.412 260.036 338.476 259.756C338.548 259.476 338.584 259.192 338.584 258.904C338.584 258.6 338.548 258.308 338.476 258.028C338.404 257.74 338.288 257.488 338.128 257.272C337.976 257.056 337.776 256.884 337.528 256.756C337.28 256.62 336.98 256.552 336.628 256.552C336.284 256.552 335.992 256.62 335.752 256.756C335.512 256.892 335.32 257.072 335.176 257.296C335.032 257.52 334.928 257.776 334.864 258.064C334.8 258.352 334.768 258.648 334.768 258.952ZM339.568 262H338.548V261.16H338.524C338.356 261.504 338.092 261.752 337.732 261.904C337.372 262.056 336.976 262.132 336.544 262.132C336.064 262.132 335.644 262.044 335.284 261.868C334.932 261.692 334.636 261.456 334.396 261.16C334.164 260.864 333.988 260.52 333.868 260.128C333.748 259.736 333.688 259.32 333.688 258.88C333.688 258.44 333.744 258.024 333.856 257.632C333.976 257.24 334.152 256.9 334.384 256.612C334.624 256.316 334.92 256.084 335.272 255.916C335.632 255.74 336.048 255.652 336.52 255.652C336.68 255.652 336.852 255.668 337.036 255.7C337.22 255.732 337.404 255.788 337.588 255.868C337.772 255.94 337.944 256.04 338.104 256.168C338.272 256.288 338.412 256.44 338.524 256.624H338.548V253.432H339.568V262Z" fill="#DB0002"/>
<path d="M287.632 278.576C287.632 278.096 287.723 277.653 287.904 277.248C288.085 276.832 288.331 276.469 288.64 276.16C288.949 275.851 289.307 275.611 289.712 275.44C290.128 275.259 290.571 275.168 291.04 275.168C291.52 275.168 291.963 275.259 292.368 275.44C292.784 275.611 293.147 275.851 293.456 276.16C293.765 276.469 294.005 276.832 294.176 277.248C294.357 277.653 294.448 278.096 294.448 278.576C294.448 279.045 294.357 279.488 294.176 279.904C294.005 280.309 293.765 280.667 293.456 280.976C293.147 281.285 292.784 281.531 292.368 281.712C291.963 281.893 291.52 281.984 291.04 281.984C290.571 281.984 290.128 281.893 289.712 281.712C289.307 281.531 288.949 281.285 288.64 280.976C288.331 280.667 288.085 280.309 287.904 279.904C287.723 279.488 287.632 279.045 287.632 278.576ZM297.832 278.576C297.832 278.096 297.923 277.653 298.104 277.248C298.285 276.832 298.531 276.469 298.84 276.16C299.149 275.851 299.507 275.611 299.912 275.44C300.328 275.259 300.771 275.168 301.24 275.168C301.72 275.168 302.163 275.259 302.568 275.44C302.984 275.611 303.347 275.851 303.656 276.16C303.965 276.469 304.205 276.832 304.376 277.248C304.557 277.653 304.648 278.096 304.648 278.576C304.648 279.045 304.557 279.488 304.376 279.904C304.205 280.309 303.965 280.667 303.656 280.976C303.347 281.285 302.984 281.531 302.568 281.712C302.163 281.893 301.72 281.984 301.24 281.984C300.771 281.984 300.328 281.893 299.912 281.712C299.507 281.531 299.149 281.285 298.84 280.976C298.531 280.667 298.285 280.309 298.104 279.904C297.923 279.488 297.832 279.045 297.832 278.576ZM308.032 278.576C308.032 278.096 308.123 277.653 308.304 277.248C308.485 276.832 308.731 276.469 309.04 276.16C309.349 275.851 309.707 275.611 310.112 275.44C310.528 275.259 310.971 275.168 311.44 275.168C311.92 275.168 312.363 275.259 312.768 275.44C313.184 275.611 313.547 275.851 313.856 276.16C314.165 276.469 314.405 276.832 314.576 277.248C314.757 277.653 314.848 278.096 314.848 278.576C314.848 279.045 314.757 279.488 314.576 279.904C314.405 280.309 314.165 280.667 313.856 280.976C313.547 281.285 313.184 281.531 312.768 281.712C312.363 281.893 311.92 281.984 311.44 281.984C310.971 281.984 310.528 281.893 310.112 281.712C309.707 281.531 309.349 281.285 309.04 280.976C308.731 280.667 308.485 280.309 308.304 279.904C308.123 279.488 308.032 279.045 308.032 278.576ZM318.232 278.576C318.232 278.096 318.323 277.653 318.504 277.248C318.685 276.832 318.931 276.469 319.24 276.16C319.549 275.851 319.907 275.611 320.312 275.44C320.728 275.259 321.171 275.168 321.64 275.168C322.12 275.168 322.563 275.259 322.968 275.44C323.384 275.611 323.747 275.851 324.056 276.16C324.365 276.469 324.605 276.832 324.776 277.248C324.957 277.653 325.048 278.096 325.048 278.576C325.048 279.045 324.957 279.488 324.776 279.904C324.605 280.309 324.365 280.667 324.056 280.976C323.747 281.285 323.384 281.531 322.968 281.712C322.563 281.893 322.12 281.984 321.64 281.984C321.171 281.984 320.728 281.893 320.312 281.712C319.907 281.531 319.549 281.285 319.24 280.976C318.931 280.667 318.685 280.309 318.504 279.904C318.323 279.488 318.232 279.045 318.232 278.576ZM328.432 278.576C328.432 278.096 328.523 277.653 328.704 277.248C328.885 276.832 329.131 276.469 329.44 276.16C329.749 275.851 330.107 275.611 330.512 275.44C330.928 275.259 331.371 275.168 331.84 275.168C332.32 275.168 332.763 275.259 333.168 275.44C333.584 275.611 333.947 275.851 334.256 276.16C334.565 276.469 334.805 276.832 334.976 277.248C335.157 277.653 335.248 278.096 335.248 278.576C335.248 279.045 335.157 279.488 334.976 279.904C334.805 280.309 334.565 280.667 334.256 280.976C333.947 281.285 333.584 281.531 333.168 281.712C332.763 281.893 332.32 281.984 331.84 281.984C331.371 281.984 330.928 281.893 330.512 281.712C330.107 281.531 329.749 281.285 329.44 280.976C329.131 280.667 328.885 280.309 328.704 279.904C328.523 279.488 328.432 279.045 328.432 278.576ZM338.632 278.576C338.632 278.096 338.723 277.653 338.904 277.248C339.085 276.832 339.331 276.469 339.64 276.16C339.949 275.851 340.307 275.611 340.712 275.44C341.128 275.259 341.571 275.168 342.04 275.168C342.52 275.168 342.963 275.259 343.368 275.44C343.784 275.611 344.147 275.851 344.456 276.16C344.765 276.469 345.005 276.832 345.176 277.248C345.357 277.653 345.448 278.096 345.448 278.576C345.448 279.045 345.357 279.488 345.176 279.904C345.005 280.309 344.765 280.667 344.456 280.976C344.147 281.285 343.784 281.531 343.368 281.712C342.963 281.893 342.52 281.984 342.04 281.984C341.571 281.984 341.128 281.893 340.712 281.712C340.307 281.531 339.949 281.285 339.64 280.976C339.331 280.667 339.085 280.309 338.904 279.904C338.723 279.488 338.632 279.045 338.632 278.576ZM348.832 278.576C348.832 278.096 348.923 277.653 349.104 277.248C349.285 276.832 349.531 276.469 349.84 276.16C350.149 275.851 350.507 275.611 350.912 275.44C351.328 275.259 351.771 275.168 352.24 275.168C352.72 275.168 353.163 275.259 353.568 275.44C353.984 275.611 354.347 275.851 354.656 276.16C354.965 276.469 355.205 276.832 355.376 277.248C355.557 277.653 355.648 278.096 355.648 278.576C355.648 279.045 355.557 279.488 355.376 279.904C355.205 280.309 354.965 280.667 354.656 280.976C354.347 281.285 353.984 281.531 353.568 281.712C353.163 281.893 352.72 281.984 352.24 281.984C351.771 281.984 351.328 281.893 350.912 281.712C350.507 281.531 350.149 281.285 349.84 280.976C349.531 280.667 349.285 280.309 349.104 279.904C348.923 279.488 348.832 279.045 348.832 278.576Z" fill="black"/>
<path d="M438 260.4C432.698 260.4 428.4 264.698 428.4 270C428.4 275.302 432.698 279.6 438 279.6C443.302 279.6 447.6 275.302 447.6 270C447.6 264.698 443.302 260.4 438 260.4ZM436.8 266.031C436.8 264.843 437.2 264.273 438 264.273C438.8 264.273 439.2 264.843 439.2 266.031V270.566C439.2 271.754 438.815 272.34 438 272.34C437.2 272.34 436.8 271.754 436.8 270.566V266.031ZM437.987 276.15C437.222 276.15 436.6 275.526 436.6 274.743C436.6 273.959 437.222 273.351 437.987 273.351C438.753 273.351 439.375 273.975 439.375 274.743C439.375 275.51 438.753 276.15 437.987 276.15Z" fill="#DB0002"/>
<path fill-rule="evenodd" clip-rule="evenodd" d="M480.314 264.003C480.217 264.003 480.121 264 480.024 264C479.927 264 479.83 264.003 479.734 264.003C475.232 264.003 470.676 267.176 469.2 270C470.676 272.824 475.184 275.997 479.686 275.997C479.782 275.997 479.879 276 479.976 276C480.073 276 480.169 275.997 480.266 275.997C484.768 275.997 489.324 272.824 490.8 270C489.324 267.176 484.816 264.003 480.314 264.003ZM479.967 274.32C479.112 274.32 478.277 274.067 477.567 273.592C476.856 273.117 476.303 272.443 475.976 271.653C475.649 270.864 475.563 269.995 475.73 269.157C475.897 268.319 476.308 267.549 476.912 266.945C477.516 266.341 478.286 265.93 479.124 265.763C479.962 265.596 480.831 265.682 481.62 266.009C482.409 266.336 483.084 266.89 483.559 267.6C484.033 268.31 484.287 269.146 484.287 270C484.287 271.146 483.832 272.245 483.022 273.055C482.211 273.865 481.113 274.32 479.967 274.32ZM470.89 270.001C471.605 269.003 472.748 267.983 474.08 267.173C474.513 266.91 474.961 266.672 475.422 266.461C474.63 267.476 474.202 268.728 474.205 270.015C474.209 271.303 474.644 272.552 475.441 273.563C474.966 273.347 474.505 273.101 474.059 272.829C472.739 272.021 471.604 271.002 470.89 270.001ZM485.92 272.827C485.454 273.11 484.972 273.364 484.474 273.587C485.29 272.564 485.732 271.293 485.729 269.985C485.725 268.677 485.276 267.41 484.456 266.391C484.967 266.618 485.463 266.879 485.941 267.171C487.261 267.979 488.396 268.998 489.11 269.999C488.395 270.998 487.252 272.017 485.92 272.827ZM482.35 268.876C482.305 269.072 482.208 269.253 482.071 269.401C481.934 269.549 481.761 269.658 481.568 269.718C481.376 269.778 481.171 269.787 480.974 269.744C480.777 269.7 480.595 269.606 480.446 269.471C480.296 269.336 480.185 269.164 480.123 268.972C480.06 268.78 480.049 268.576 480.09 268.378C480.131 268.181 480.222 267.998 480.356 267.847C480.489 267.696 480.66 267.582 480.851 267.517C480.277 267.313 479.651 267.314 479.078 267.52C478.504 267.726 478.02 268.124 477.708 268.647C477.395 269.169 477.274 269.784 477.363 270.386C477.453 270.989 477.749 271.541 478.2 271.95C478.651 272.359 479.23 272.599 479.838 272.629C480.447 272.659 481.046 272.477 481.536 272.115C482.025 271.752 482.374 271.231 482.522 270.641C482.671 270.05 482.61 269.426 482.35 268.876Z" fill="black"/>
<path d="M288.422 317.792H291.026C291.782 317.801 292.333 317.647 292.678 317.33C293.033 317.013 293.21 316.555 293.21 315.958C293.21 315.361 293.033 314.908 292.678 314.6C292.333 314.283 291.782 314.124 291.026 314.124H288.422V317.792ZM287.092 313.004H291.474C292.482 313.004 293.243 313.265 293.756 313.788C294.279 314.301 294.54 315.025 294.54 315.958C294.54 316.891 294.279 317.619 293.756 318.142C293.243 318.665 292.482 318.921 291.474 318.912H288.422V323H287.092V313.004ZM302.561 322.972C302.356 323.093 302.071 323.154 301.707 323.154C301.399 323.154 301.152 323.07 300.965 322.902C300.788 322.725 300.699 322.44 300.699 322.048C300.372 322.44 299.99 322.725 299.551 322.902C299.122 323.07 298.655 323.154 298.151 323.154C297.824 323.154 297.512 323.117 297.213 323.042C296.924 322.967 296.672 322.851 296.457 322.692C296.242 322.533 296.07 322.328 295.939 322.076C295.818 321.815 295.757 321.502 295.757 321.138C295.757 320.727 295.827 320.391 295.967 320.13C296.107 319.869 296.289 319.659 296.513 319.5C296.746 319.332 297.008 319.206 297.297 319.122C297.596 319.038 297.899 318.968 298.207 318.912C298.534 318.847 298.842 318.8 299.131 318.772C299.43 318.735 299.691 318.688 299.915 318.632C300.139 318.567 300.316 318.478 300.447 318.366C300.578 318.245 300.643 318.072 300.643 317.848C300.643 317.587 300.592 317.377 300.489 317.218C300.396 317.059 300.27 316.938 300.111 316.854C299.962 316.77 299.789 316.714 299.593 316.686C299.406 316.658 299.22 316.644 299.033 316.644C298.529 316.644 298.109 316.742 297.773 316.938C297.437 317.125 297.255 317.484 297.227 318.016H296.037C296.056 317.568 296.149 317.19 296.317 316.882C296.485 316.574 296.709 316.327 296.989 316.14C297.269 315.944 297.586 315.804 297.941 315.72C298.305 315.636 298.692 315.594 299.103 315.594C299.43 315.594 299.752 315.617 300.069 315.664C300.396 315.711 300.69 315.809 300.951 315.958C301.212 316.098 301.422 316.299 301.581 316.56C301.74 316.821 301.819 317.162 301.819 317.582V321.306C301.819 321.586 301.833 321.791 301.861 321.922C301.898 322.053 302.01 322.118 302.197 322.118C302.3 322.118 302.421 322.095 302.561 322.048V322.972ZM300.629 319.262C300.48 319.374 300.284 319.458 300.041 319.514C299.798 319.561 299.542 319.603 299.271 319.64C299.01 319.668 298.744 319.705 298.473 319.752C298.202 319.789 297.96 319.855 297.745 319.948C297.53 320.041 297.353 320.177 297.213 320.354C297.082 320.522 297.017 320.755 297.017 321.054C297.017 321.25 297.054 321.418 297.129 321.558C297.213 321.689 297.316 321.796 297.437 321.88C297.568 321.964 297.717 322.025 297.885 322.062C298.053 322.099 298.23 322.118 298.417 322.118C298.809 322.118 299.145 322.067 299.425 321.964C299.705 321.852 299.934 321.717 300.111 321.558C300.288 321.39 300.419 321.213 300.503 321.026C300.587 320.83 300.629 320.648 300.629 320.48V319.262ZM304.572 320.718C304.581 320.979 304.642 321.203 304.754 321.39C304.866 321.567 305.01 321.712 305.188 321.824C305.374 321.927 305.58 322.001 305.804 322.048C306.037 322.095 306.275 322.118 306.518 322.118C306.704 322.118 306.9 322.104 307.106 322.076C307.311 322.048 307.498 321.997 307.666 321.922C307.843 321.847 307.988 321.74 308.1 321.6C308.212 321.451 308.268 321.264 308.268 321.04C308.268 320.732 308.151 320.499 307.918 320.34C307.684 320.181 307.39 320.055 307.036 319.962C306.69 319.859 306.312 319.771 305.902 319.696C305.491 319.612 305.108 319.5 304.754 319.36C304.408 319.211 304.119 319.005 303.886 318.744C303.652 318.483 303.536 318.119 303.536 317.652C303.536 317.288 303.615 316.975 303.774 316.714C303.942 316.453 304.152 316.243 304.404 316.084C304.665 315.916 304.954 315.795 305.272 315.72C305.598 315.636 305.92 315.594 306.238 315.594C306.648 315.594 307.026 315.631 307.372 315.706C307.717 315.771 308.02 315.893 308.282 316.07C308.552 316.238 308.767 316.471 308.926 316.77C309.084 317.059 309.178 317.423 309.206 317.862H308.016C307.997 317.629 307.936 317.437 307.834 317.288C307.731 317.129 307.6 317.003 307.442 316.91C307.283 316.817 307.106 316.751 306.91 316.714C306.723 316.667 306.532 316.644 306.336 316.644C306.158 316.644 305.976 316.658 305.79 316.686C305.612 316.714 305.449 316.765 305.3 316.84C305.15 316.905 305.029 316.999 304.936 317.12C304.842 317.232 304.796 317.381 304.796 317.568C304.796 317.773 304.866 317.946 305.006 318.086C305.155 318.217 305.342 318.329 305.566 318.422C305.79 318.506 306.042 318.581 306.322 318.646C306.602 318.702 306.882 318.763 307.162 318.828C307.46 318.893 307.75 318.973 308.03 319.066C308.319 319.159 308.571 319.285 308.786 319.444C309.01 319.593 309.187 319.785 309.318 320.018C309.458 320.251 309.528 320.541 309.528 320.886C309.528 321.325 309.434 321.689 309.248 321.978C309.07 322.267 308.832 322.501 308.534 322.678C308.244 322.855 307.913 322.977 307.54 323.042C307.176 323.117 306.812 323.154 306.448 323.154C306.046 323.154 305.664 323.112 305.3 323.028C304.936 322.944 304.614 322.809 304.334 322.622C304.054 322.426 303.83 322.174 303.662 321.866C303.494 321.549 303.4 321.166 303.382 320.718H304.572ZM311.747 320.718C311.756 320.979 311.817 321.203 311.929 321.39C312.041 321.567 312.185 321.712 312.363 321.824C312.549 321.927 312.755 322.001 312.979 322.048C313.212 322.095 313.45 322.118 313.693 322.118C313.879 322.118 314.075 322.104 314.281 322.076C314.486 322.048 314.673 321.997 314.841 321.922C315.018 321.847 315.163 321.74 315.275 321.6C315.387 321.451 315.443 321.264 315.443 321.04C315.443 320.732 315.326 320.499 315.093 320.34C314.859 320.181 314.565 320.055 314.211 319.962C313.865 319.859 313.487 319.771 313.077 319.696C312.666 319.612 312.283 319.5 311.929 319.36C311.583 319.211 311.294 319.005 311.061 318.744C310.827 318.483 310.711 318.119 310.711 317.652C310.711 317.288 310.79 316.975 310.949 316.714C311.117 316.453 311.327 316.243 311.579 316.084C311.84 315.916 312.129 315.795 312.447 315.72C312.773 315.636 313.095 315.594 313.413 315.594C313.823 315.594 314.201 315.631 314.547 315.706C314.892 315.771 315.195 315.893 315.457 316.07C315.727 316.238 315.942 316.471 316.101 316.77C316.259 317.059 316.353 317.423 316.381 317.862H315.191C315.172 317.629 315.111 317.437 315.009 317.288C314.906 317.129 314.775 317.003 314.617 316.91C314.458 316.817 314.281 316.751 314.085 316.714C313.898 316.667 313.707 316.644 313.511 316.644C313.333 316.644 313.151 316.658 312.965 316.686C312.787 316.714 312.624 316.765 312.475 316.84C312.325 316.905 312.204 316.999 312.111 317.12C312.017 317.232 311.971 317.381 311.971 317.568C311.971 317.773 312.041 317.946 312.181 318.086C312.33 318.217 312.517 318.329 312.741 318.422C312.965 318.506 313.217 318.581 313.497 318.646C313.777 318.702 314.057 318.763 314.337 318.828C314.635 318.893 314.925 318.973 315.205 319.066C315.494 319.159 315.746 319.285 315.961 319.444C316.185 319.593 316.362 319.785 316.493 320.018C316.633 320.251 316.703 320.541 316.703 320.886C316.703 321.325 316.609 321.689 316.423 321.978C316.245 322.267 316.007 322.501 315.709 322.678C315.419 322.855 315.088 322.977 314.715 323.042C314.351 323.117 313.987 323.154 313.623 323.154C313.221 323.154 312.839 323.112 312.475 323.028C312.111 322.944 311.789 322.809 311.509 322.622C311.229 322.426 311.005 322.174 310.837 321.866C310.669 321.549 310.575 321.166 310.557 320.718H311.747ZM325.362 323H324.102L322.632 317.246H322.604L321.148 323H319.86L317.536 315.762H318.852L320.49 321.684H320.518L321.974 315.762H323.276L324.788 321.684H324.816L326.44 315.762H327.672L325.362 323ZM329.846 319.388C329.846 319.827 329.902 320.219 330.014 320.564C330.135 320.9 330.299 321.185 330.504 321.418C330.709 321.642 330.947 321.815 331.218 321.936C331.498 322.057 331.792 322.118 332.1 322.118C332.408 322.118 332.697 322.057 332.968 321.936C333.248 321.815 333.491 321.642 333.696 321.418C333.901 321.185 334.06 320.9 334.172 320.564C334.293 320.219 334.354 319.827 334.354 319.388C334.354 318.949 334.293 318.562 334.172 318.226C334.06 317.881 333.901 317.591 333.696 317.358C333.491 317.125 333.248 316.947 332.968 316.826C332.697 316.705 332.408 316.644 332.1 316.644C331.792 316.644 331.498 316.705 331.218 316.826C330.947 316.947 330.709 317.125 330.504 317.358C330.299 317.591 330.135 317.881 330.014 318.226C329.902 318.562 329.846 318.949 329.846 319.388ZM328.586 319.388C328.586 318.856 328.661 318.361 328.81 317.904C328.959 317.437 329.183 317.036 329.482 316.7C329.781 316.355 330.149 316.084 330.588 315.888C331.027 315.692 331.531 315.594 332.1 315.594C332.679 315.594 333.183 315.692 333.612 315.888C334.051 316.084 334.419 316.355 334.718 316.7C335.017 317.036 335.241 317.437 335.39 317.904C335.539 318.361 335.614 318.856 335.614 319.388C335.614 319.92 335.539 320.415 335.39 320.872C335.241 321.329 335.017 321.731 334.718 322.076C334.419 322.412 334.051 322.678 333.612 322.874C333.183 323.061 332.679 323.154 332.1 323.154C331.531 323.154 331.027 323.061 330.588 322.874C330.149 322.678 329.781 322.412 329.482 322.076C329.183 321.731 328.959 321.329 328.81 320.872C328.661 320.415 328.586 319.92 328.586 319.388ZM337.15 315.762H338.27V317.288H338.298C338.587 316.7 338.942 316.266 339.362 315.986C339.782 315.706 340.314 315.575 340.958 315.594V316.854C340.482 316.854 340.076 316.919 339.74 317.05C339.404 317.181 339.133 317.372 338.928 317.624C338.723 317.876 338.573 318.184 338.48 318.548C338.387 318.903 338.34 319.313 338.34 319.78V323H337.15V315.762ZM342.651 319.444C342.651 319.78 342.693 320.111 342.777 320.438C342.87 320.755 343.006 321.04 343.183 321.292C343.37 321.544 343.603 321.745 343.883 321.894C344.172 322.043 344.508 322.118 344.891 322.118C345.292 322.118 345.633 322.039 345.913 321.88C346.193 321.721 346.422 321.516 346.599 321.264C346.776 321.003 346.902 320.709 346.977 320.382C347.061 320.055 347.103 319.724 347.103 319.388C347.103 319.033 347.061 318.693 346.977 318.366C346.893 318.03 346.758 317.736 346.571 317.484C346.394 317.232 346.16 317.031 345.871 316.882C345.582 316.723 345.232 316.644 344.821 316.644C344.42 316.644 344.079 316.723 343.799 316.882C343.519 317.041 343.295 317.251 343.127 317.512C342.959 317.773 342.838 318.072 342.763 318.408C342.688 318.744 342.651 319.089 342.651 319.444ZM348.251 323H347.061V322.02H347.033C346.837 322.421 346.529 322.711 346.109 322.888C345.689 323.065 345.227 323.154 344.723 323.154C344.163 323.154 343.673 323.051 343.253 322.846C342.842 322.641 342.497 322.365 342.217 322.02C341.946 321.675 341.741 321.273 341.601 320.816C341.461 320.359 341.391 319.873 341.391 319.36C341.391 318.847 341.456 318.361 341.587 317.904C341.727 317.447 341.932 317.05 342.203 316.714C342.483 316.369 342.828 316.098 343.239 315.902C343.659 315.697 344.144 315.594 344.695 315.594C344.882 315.594 345.082 315.613 345.297 315.65C345.512 315.687 345.726 315.753 345.941 315.846C346.156 315.93 346.356 316.047 346.543 316.196C346.739 316.336 346.902 316.513 347.033 316.728H347.061V313.004H348.251V323ZM354.328 315.762H355.448V316.826H355.476C356.018 316.005 356.797 315.594 357.814 315.594C358.262 315.594 358.668 315.687 359.032 315.874C359.396 316.061 359.653 316.378 359.802 316.826C360.045 316.434 360.362 316.131 360.754 315.916C361.156 315.701 361.594 315.594 362.07 315.594C362.434 315.594 362.761 315.636 363.05 315.72C363.349 315.795 363.601 315.916 363.806 316.084C364.021 316.252 364.184 316.471 364.296 316.742C364.418 317.003 364.478 317.321 364.478 317.694V323H363.288V318.254C363.288 318.03 363.27 317.82 363.232 317.624C363.195 317.428 363.125 317.26 363.022 317.12C362.92 316.971 362.775 316.854 362.588 316.77C362.411 316.686 362.178 316.644 361.888 316.644C361.3 316.644 360.838 316.812 360.502 317.148C360.166 317.484 359.998 317.932 359.998 318.492V323H358.808V318.254C358.808 318.021 358.785 317.806 358.738 317.61C358.701 317.414 358.631 317.246 358.528 317.106C358.426 316.957 358.286 316.845 358.108 316.77C357.94 316.686 357.721 316.644 357.45 316.644C357.105 316.644 356.806 316.714 356.554 316.854C356.312 316.994 356.111 317.162 355.952 317.358C355.803 317.554 355.691 317.759 355.616 317.974C355.551 318.179 355.518 318.352 355.518 318.492V323H354.328V315.762ZM372.431 323H371.311V321.852H371.283C371.031 322.3 370.709 322.631 370.317 322.846C369.925 323.051 369.463 323.154 368.931 323.154C368.455 323.154 368.058 323.093 367.741 322.972C367.424 322.841 367.167 322.659 366.971 322.426C366.775 322.193 366.635 321.917 366.551 321.6C366.476 321.273 366.439 320.914 366.439 320.522V315.762H367.629V320.662C367.629 321.11 367.76 321.465 368.021 321.726C368.282 321.987 368.642 322.118 369.099 322.118C369.463 322.118 369.776 322.062 370.037 321.95C370.308 321.838 370.532 321.679 370.709 321.474C370.886 321.269 371.017 321.031 371.101 320.76C371.194 320.48 371.241 320.177 371.241 319.85V315.762H372.431V323ZM375.121 320.718C375.131 320.979 375.191 321.203 375.303 321.39C375.415 321.567 375.56 321.712 375.737 321.824C375.924 321.927 376.129 322.001 376.353 322.048C376.587 322.095 376.825 322.118 377.067 322.118C377.254 322.118 377.45 322.104 377.655 322.076C377.861 322.048 378.047 321.997 378.215 321.922C378.393 321.847 378.537 321.74 378.649 321.6C378.761 321.451 378.817 321.264 378.817 321.04C378.817 320.732 378.701 320.499 378.467 320.34C378.234 320.181 377.94 320.055 377.585 319.962C377.24 319.859 376.862 319.771 376.451 319.696C376.041 319.612 375.658 319.5 375.303 319.36C374.958 319.211 374.669 319.005 374.435 318.744C374.202 318.483 374.085 318.119 374.085 317.652C374.085 317.288 374.165 316.975 374.323 316.714C374.491 316.453 374.701 316.243 374.953 316.084C375.215 315.916 375.504 315.795 375.821 315.72C376.148 315.636 376.47 315.594 376.787 315.594C377.198 315.594 377.576 315.631 377.921 315.706C378.267 315.771 378.57 315.893 378.831 316.07C379.102 316.238 379.317 316.471 379.475 316.77C379.634 317.059 379.727 317.423 379.755 317.862H378.565C378.547 317.629 378.486 317.437 378.383 317.288C378.281 317.129 378.15 317.003 377.991 316.91C377.833 316.817 377.655 316.751 377.459 316.714C377.273 316.667 377.081 316.644 376.885 316.644C376.708 316.644 376.526 316.658 376.339 316.686C376.162 316.714 375.999 316.765 375.849 316.84C375.7 316.905 375.579 316.999 375.485 317.12C375.392 317.232 375.345 317.381 375.345 317.568C375.345 317.773 375.415 317.946 375.555 318.086C375.705 318.217 375.891 318.329 376.115 318.422C376.339 318.506 376.591 318.581 376.871 318.646C377.151 318.702 377.431 318.763 377.711 318.828C378.01 318.893 378.299 318.973 378.579 319.066C378.869 319.159 379.121 319.285 379.335 319.444C379.559 319.593 379.737 319.785 379.867 320.018C380.007 320.251 380.077 320.541 380.077 320.886C380.077 321.325 379.984 321.689 379.797 321.978C379.62 322.267 379.382 322.501 379.083 322.678C378.794 322.855 378.463 322.977 378.089 323.042C377.725 323.117 377.361 323.154 376.997 323.154C376.596 323.154 376.213 323.112 375.849 323.028C375.485 322.944 375.163 322.809 374.883 322.622C374.603 322.426 374.379 322.174 374.211 321.866C374.043 321.549 373.95 321.166 373.931 320.718H375.121ZM383.22 315.762H384.662V316.812H383.22V321.306C383.22 321.446 383.23 321.558 383.248 321.642C383.276 321.726 383.323 321.791 383.388 321.838C383.454 321.885 383.542 321.917 383.654 321.936C383.776 321.945 383.93 321.95 384.116 321.95H384.662V323H383.752C383.444 323 383.178 322.981 382.954 322.944C382.74 322.897 382.562 322.818 382.422 322.706C382.292 322.594 382.194 322.435 382.128 322.23C382.063 322.025 382.03 321.754 382.03 321.418V316.812H380.798V315.762H382.03V313.592H383.22V315.762ZM390.273 313.004H391.463V316.742H391.491C391.687 316.341 391.995 316.051 392.415 315.874C392.835 315.687 393.297 315.594 393.801 315.594C394.361 315.594 394.846 315.697 395.257 315.902C395.677 316.107 396.022 316.387 396.293 316.742C396.573 317.087 396.783 317.489 396.923 317.946C397.063 318.403 397.133 318.889 397.133 319.402C397.133 319.915 397.063 320.401 396.923 320.858C396.792 321.315 396.587 321.717 396.307 322.062C396.036 322.398 395.691 322.664 395.271 322.86C394.86 323.056 394.379 323.154 393.829 323.154C393.651 323.154 393.451 323.135 393.227 323.098C393.012 323.061 392.797 323 392.583 322.916C392.368 322.832 392.163 322.72 391.967 322.58C391.78 322.431 391.621 322.249 391.491 322.034H391.463V323H390.273V313.004ZM395.873 319.318C395.873 318.982 395.826 318.655 395.733 318.338C395.649 318.011 395.513 317.722 395.327 317.47C395.149 317.218 394.916 317.017 394.627 316.868C394.347 316.719 394.015 316.644 393.633 316.644C393.231 316.644 392.891 316.723 392.611 316.882C392.331 317.041 392.102 317.251 391.925 317.512C391.747 317.764 391.617 318.053 391.533 318.38C391.458 318.707 391.421 319.038 391.421 319.374C391.421 319.729 391.463 320.074 391.547 320.41C391.631 320.737 391.761 321.026 391.939 321.278C392.125 321.53 392.363 321.735 392.653 321.894C392.942 322.043 393.292 322.118 393.703 322.118C394.113 322.118 394.454 322.039 394.725 321.88C395.005 321.721 395.229 321.511 395.397 321.25C395.565 320.989 395.686 320.69 395.761 320.354C395.835 320.018 395.873 319.673 395.873 319.318ZM403.731 318.688C403.712 318.408 403.647 318.142 403.535 317.89C403.432 317.638 403.287 317.423 403.101 317.246C402.923 317.059 402.709 316.915 402.457 316.812C402.214 316.7 401.943 316.644 401.645 316.644C401.337 316.644 401.057 316.7 400.805 316.812C400.562 316.915 400.352 317.059 400.175 317.246C399.997 317.433 399.857 317.652 399.755 317.904C399.652 318.147 399.591 318.408 399.573 318.688H403.731ZM404.879 320.704C404.72 321.516 404.37 322.127 403.829 322.538C403.287 322.949 402.606 323.154 401.785 323.154C401.206 323.154 400.702 323.061 400.273 322.874C399.853 322.687 399.498 322.426 399.209 322.09C398.919 321.754 398.7 321.353 398.551 320.886C398.411 320.419 398.331 319.911 398.313 319.36C398.313 318.809 398.397 318.305 398.565 317.848C398.733 317.391 398.966 316.994 399.265 316.658C399.573 316.322 399.932 316.061 400.343 315.874C400.763 315.687 401.22 315.594 401.715 315.594C402.359 315.594 402.891 315.729 403.311 316C403.74 316.261 404.081 316.597 404.333 317.008C404.594 317.419 404.771 317.867 404.865 318.352C404.967 318.837 405.009 319.299 404.991 319.738H399.573C399.563 320.055 399.601 320.359 399.685 320.648C399.769 320.928 399.904 321.18 400.091 321.404C400.277 321.619 400.515 321.791 400.805 321.922C401.094 322.053 401.435 322.118 401.827 322.118C402.331 322.118 402.741 322.001 403.059 321.768C403.385 321.535 403.6 321.18 403.703 320.704H404.879ZM416.883 322.972C416.677 323.093 416.393 323.154 416.029 323.154C415.721 323.154 415.473 323.07 415.287 322.902C415.109 322.725 415.021 322.44 415.021 322.048C414.694 322.44 414.311 322.725 413.873 322.902C413.443 323.07 412.977 323.154 412.473 323.154C412.146 323.154 411.833 323.117 411.535 323.042C411.245 322.967 410.993 322.851 410.779 322.692C410.564 322.533 410.391 322.328 410.261 322.076C410.139 321.815 410.079 321.502 410.079 321.138C410.079 320.727 410.149 320.391 410.289 320.13C410.429 319.869 410.611 319.659 410.835 319.5C411.068 319.332 411.329 319.206 411.619 319.122C411.917 319.038 412.221 318.968 412.529 318.912C412.855 318.847 413.163 318.8 413.453 318.772C413.751 318.735 414.013 318.688 414.237 318.632C414.461 318.567 414.638 318.478 414.769 318.366C414.899 318.245 414.965 318.072 414.965 317.848C414.965 317.587 414.913 317.377 414.811 317.218C414.717 317.059 414.591 316.938 414.433 316.854C414.283 316.77 414.111 316.714 413.915 316.686C413.728 316.658 413.541 316.644 413.355 316.644C412.851 316.644 412.431 316.742 412.095 316.938C411.759 317.125 411.577 317.484 411.549 318.016H410.359C410.377 317.568 410.471 317.19 410.639 316.882C410.807 316.574 411.031 316.327 411.311 316.14C411.591 315.944 411.908 315.804 412.263 315.72C412.627 315.636 413.014 315.594 413.425 315.594C413.751 315.594 414.073 315.617 414.391 315.664C414.717 315.711 415.011 315.809 415.273 315.958C415.534 316.098 415.744 316.299 415.903 316.56C416.061 316.821 416.141 317.162 416.141 317.582V321.306C416.141 321.586 416.155 321.791 416.183 321.922C416.22 322.053 416.332 322.118 416.519 322.118C416.621 322.118 416.743 322.095 416.883 322.048V322.972ZM414.951 319.262C414.801 319.374 414.605 319.458 414.363 319.514C414.12 319.561 413.863 319.603 413.593 319.64C413.331 319.668 413.065 319.705 412.795 319.752C412.524 319.789 412.281 319.855 412.067 319.948C411.852 320.041 411.675 320.177 411.535 320.354C411.404 320.522 411.339 320.755 411.339 321.054C411.339 321.25 411.376 321.418 411.451 321.558C411.535 321.689 411.637 321.796 411.759 321.88C411.889 321.964 412.039 322.025 412.207 322.062C412.375 322.099 412.552 322.118 412.739 322.118C413.131 322.118 413.467 322.067 413.747 321.964C414.027 321.852 414.255 321.717 414.433 321.558C414.61 321.39 414.741 321.213 414.825 321.026C414.909 320.83 414.951 320.648 414.951 320.48V319.262ZM419.817 315.762H421.259V316.812H419.817V321.306C419.817 321.446 419.826 321.558 419.845 321.642C419.873 321.726 419.92 321.791 419.985 321.838C420.05 321.885 420.139 321.917 420.251 321.936C420.372 321.945 420.526 321.95 420.713 321.95H421.259V323H420.349C420.041 323 419.775 322.981 419.551 322.944C419.336 322.897 419.159 322.818 419.019 322.706C418.888 322.594 418.79 322.435 418.725 322.23C418.66 322.025 418.627 321.754 418.627 321.418V316.812H417.395V315.762H418.627V313.592H419.817V315.762ZM426.898 313.004H428.088V323H426.898V313.004ZM435.132 318.688C435.113 318.408 435.048 318.142 434.936 317.89C434.833 317.638 434.689 317.423 434.502 317.246C434.325 317.059 434.11 316.915 433.858 316.812C433.615 316.7 433.345 316.644 433.046 316.644C432.738 316.644 432.458 316.7 432.206 316.812C431.963 316.915 431.753 317.059 431.576 317.246C431.399 317.433 431.259 317.652 431.156 317.904C431.053 318.147 430.993 318.408 430.974 318.688H435.132ZM436.28 320.704C436.121 321.516 435.771 322.127 435.23 322.538C434.689 322.949 434.007 323.154 433.186 323.154C432.607 323.154 432.103 323.061 431.674 322.874C431.254 322.687 430.899 322.426 430.61 322.09C430.321 321.754 430.101 321.353 429.952 320.886C429.812 320.419 429.733 319.911 429.714 319.36C429.714 318.809 429.798 318.305 429.966 317.848C430.134 317.391 430.367 316.994 430.666 316.658C430.974 316.322 431.333 316.061 431.744 315.874C432.164 315.687 432.621 315.594 433.116 315.594C433.76 315.594 434.292 315.729 434.712 316C435.141 316.261 435.482 316.597 435.734 317.008C435.995 317.419 436.173 317.867 436.266 318.352C436.369 318.837 436.411 319.299 436.392 319.738H430.974C430.965 320.055 431.002 320.359 431.086 320.648C431.17 320.928 431.305 321.18 431.492 321.404C431.679 321.619 431.917 321.791 432.206 321.922C432.495 322.053 432.836 322.118 433.228 322.118C433.732 322.118 434.143 322.001 434.46 321.768C434.787 321.535 435.001 321.18 435.104 320.704H436.28ZM444.213 322.972C444.007 323.093 443.723 323.154 443.359 323.154C443.051 323.154 442.803 323.07 442.617 322.902C442.439 322.725 442.351 322.44 442.351 322.048C442.024 322.44 441.641 322.725 441.203 322.902C440.773 323.07 440.307 323.154 439.803 323.154C439.476 323.154 439.163 323.117 438.865 323.042C438.575 322.967 438.323 322.851 438.109 322.692C437.894 322.533 437.721 322.328 437.591 322.076C437.469 321.815 437.409 321.502 437.409 321.138C437.409 320.727 437.479 320.391 437.619 320.13C437.759 319.869 437.941 319.659 438.165 319.5C438.398 319.332 438.659 319.206 438.949 319.122C439.247 319.038 439.551 318.968 439.859 318.912C440.185 318.847 440.493 318.8 440.783 318.772C441.081 318.735 441.343 318.688 441.567 318.632C441.791 318.567 441.968 318.478 442.099 318.366C442.229 318.245 442.295 318.072 442.295 317.848C442.295 317.587 442.243 317.377 442.141 317.218C442.047 317.059 441.921 316.938 441.763 316.854C441.613 316.77 441.441 316.714 441.245 316.686C441.058 316.658 440.871 316.644 440.685 316.644C440.181 316.644 439.761 316.742 439.425 316.938C439.089 317.125 438.907 317.484 438.879 318.016H437.689C437.707 317.568 437.801 317.19 437.969 316.882C438.137 316.574 438.361 316.327 438.641 316.14C438.921 315.944 439.238 315.804 439.593 315.72C439.957 315.636 440.344 315.594 440.755 315.594C441.081 315.594 441.403 315.617 441.721 315.664C442.047 315.711 442.341 315.809 442.603 315.958C442.864 316.098 443.074 316.299 443.233 316.56C443.391 316.821 443.471 317.162 443.471 317.582V321.306C443.471 321.586 443.485 321.791 443.513 321.922C443.55 322.053 443.662 322.118 443.849 322.118C443.951 322.118 444.073 322.095 444.213 322.048V322.972ZM442.281 319.262C442.131 319.374 441.935 319.458 441.693 319.514C441.45 319.561 441.193 319.603 440.923 319.64C440.661 319.668 440.395 319.705 440.125 319.752C439.854 319.789 439.611 319.855 439.397 319.948C439.182 320.041 439.005 320.177 438.865 320.354C438.734 320.522 438.669 320.755 438.669 321.054C438.669 321.25 438.706 321.418 438.781 321.558C438.865 321.689 438.967 321.796 439.089 321.88C439.219 321.964 439.369 322.025 439.537 322.062C439.705 322.099 439.882 322.118 440.069 322.118C440.461 322.118 440.797 322.067 441.077 321.964C441.357 321.852 441.585 321.717 441.763 321.558C441.94 321.39 442.071 321.213 442.155 321.026C442.239 320.83 442.281 320.648 442.281 320.48V319.262ZM446.223 320.718C446.233 320.979 446.293 321.203 446.405 321.39C446.517 321.567 446.662 321.712 446.839 321.824C447.026 321.927 447.231 322.001 447.455 322.048C447.689 322.095 447.927 322.118 448.169 322.118C448.356 322.118 448.552 322.104 448.757 322.076C448.963 322.048 449.149 321.997 449.317 321.922C449.495 321.847 449.639 321.74 449.751 321.6C449.863 321.451 449.919 321.264 449.919 321.04C449.919 320.732 449.803 320.499 449.569 320.34C449.336 320.181 449.042 320.055 448.687 319.962C448.342 319.859 447.964 319.771 447.553 319.696C447.143 319.612 446.76 319.5 446.405 319.36C446.06 319.211 445.771 319.005 445.537 318.744C445.304 318.483 445.187 318.119 445.187 317.652C445.187 317.288 445.267 316.975 445.425 316.714C445.593 316.453 445.803 316.243 446.055 316.084C446.317 315.916 446.606 315.795 446.923 315.72C447.25 315.636 447.572 315.594 447.889 315.594C448.3 315.594 448.678 315.631 449.023 315.706C449.369 315.771 449.672 315.893 449.933 316.07C450.204 316.238 450.419 316.471 450.577 316.77C450.736 317.059 450.829 317.423 450.857 317.862H449.667C449.649 317.629 449.588 317.437 449.485 317.288C449.383 317.129 449.252 317.003 449.093 316.91C448.935 316.817 448.757 316.751 448.561 316.714C448.375 316.667 448.183 316.644 447.987 316.644C447.81 316.644 447.628 316.658 447.441 316.686C447.264 316.714 447.101 316.765 446.951 316.84C446.802 316.905 446.681 316.999 446.587 317.12C446.494 317.232 446.447 317.381 446.447 317.568C446.447 317.773 446.517 317.946 446.657 318.086C446.807 318.217 446.993 318.329 447.217 318.422C447.441 318.506 447.693 318.581 447.973 318.646C448.253 318.702 448.533 318.763 448.813 318.828C449.112 318.893 449.401 318.973 449.681 319.066C449.971 319.159 450.223 319.285 450.437 319.444C450.661 319.593 450.839 319.785 450.969 320.018C451.109 320.251 451.179 320.541 451.179 320.886C451.179 321.325 451.086 321.689 450.899 321.978C450.722 322.267 450.484 322.501 450.185 322.678C449.896 322.855 449.565 322.977 449.191 323.042C448.827 323.117 448.463 323.154 448.099 323.154C447.698 323.154 447.315 323.112 446.951 323.028C446.587 322.944 446.265 322.809 445.985 322.622C445.705 322.426 445.481 322.174 445.313 321.866C445.145 321.549 445.052 321.166 445.033 320.718H446.223ZM454.322 315.762H455.764V316.812H454.322V321.306C454.322 321.446 454.332 321.558 454.35 321.642C454.378 321.726 454.425 321.791 454.49 321.838C454.556 321.885 454.644 321.917 454.756 321.936C454.878 321.945 455.032 321.95 455.218 321.95H455.764V323H454.854C454.546 323 454.28 322.981 454.056 322.944C453.842 322.897 453.664 322.818 453.524 322.706C453.394 322.594 453.296 322.435 453.23 322.23C453.165 322.025 453.132 321.754 453.132 321.418V316.812H451.9V315.762H453.132V313.592H454.322V315.762ZM462.607 315.65C462.607 315.921 462.653 316.159 462.747 316.364C462.84 316.56 462.966 316.723 463.125 316.854C463.283 316.985 463.47 317.083 463.685 317.148C463.899 317.213 464.128 317.246 464.371 317.246C464.847 317.246 465.239 317.106 465.547 316.826C465.855 316.546 466.009 316.154 466.009 315.65C466.009 315.146 465.85 314.768 465.533 314.516C465.225 314.255 464.828 314.124 464.343 314.124C464.109 314.124 463.885 314.157 463.671 314.222C463.456 314.287 463.269 314.385 463.111 314.516C462.961 314.647 462.84 314.805 462.747 314.992C462.653 315.179 462.607 315.398 462.607 315.65ZM461.347 315.608C461.347 315.197 461.426 314.838 461.585 314.53C461.743 314.213 461.958 313.947 462.229 313.732C462.499 313.517 462.807 313.354 463.153 313.242C463.507 313.13 463.876 313.074 464.259 313.074C464.8 313.074 465.262 313.149 465.645 313.298C466.027 313.438 466.335 313.629 466.569 313.872C466.811 314.105 466.989 314.376 467.101 314.684C467.213 314.983 467.269 315.291 467.269 315.608C467.269 316.056 467.143 316.467 466.891 316.84C466.648 317.204 466.317 317.479 465.897 317.666C466.494 317.853 466.937 318.161 467.227 318.59C467.516 319.01 467.661 319.528 467.661 320.144C467.661 320.629 467.572 321.059 467.395 321.432C467.227 321.805 466.993 322.123 466.695 322.384C466.405 322.636 466.06 322.827 465.659 322.958C465.257 323.089 464.828 323.154 464.371 323.154C463.895 323.154 463.451 323.093 463.041 322.972C462.63 322.851 462.271 322.664 461.963 322.412C461.664 322.16 461.426 321.847 461.249 321.474C461.081 321.091 460.997 320.648 460.997 320.144C460.997 319.556 461.146 319.047 461.445 318.618C461.743 318.179 462.173 317.862 462.733 317.666C462.313 317.498 461.977 317.227 461.725 316.854C461.473 316.471 461.347 316.056 461.347 315.608ZM462.257 320.2C462.257 320.797 462.453 321.269 462.845 321.614C463.246 321.95 463.755 322.118 464.371 322.118C464.669 322.118 464.94 322.071 465.183 321.978C465.435 321.875 465.649 321.74 465.827 321.572C466.013 321.395 466.153 321.189 466.247 320.956C466.349 320.723 466.401 320.466 466.401 320.186C466.401 319.915 466.345 319.668 466.233 319.444C466.13 319.211 465.985 319.01 465.799 318.842C465.612 318.674 465.393 318.543 465.141 318.45C464.898 318.347 464.637 318.296 464.357 318.296C464.067 318.296 463.792 318.343 463.531 318.436C463.279 318.52 463.055 318.646 462.859 318.814C462.672 318.982 462.523 319.183 462.411 319.416C462.308 319.649 462.257 319.911 462.257 320.2ZM291.81 338.086C291.717 337.629 291.521 337.274 291.222 337.022C290.923 336.77 290.522 336.644 290.018 336.644C289.589 336.644 289.229 336.723 288.94 336.882C288.651 337.041 288.417 337.251 288.24 337.512C288.072 337.773 287.951 338.077 287.876 338.422C287.801 338.758 287.764 339.108 287.764 339.472C287.764 339.808 287.801 340.135 287.876 340.452C287.96 340.769 288.086 341.054 288.254 341.306C288.422 341.549 288.641 341.745 288.912 341.894C289.183 342.043 289.505 342.118 289.878 342.118C290.466 342.118 290.923 341.964 291.25 341.656C291.586 341.348 291.791 340.914 291.866 340.354H293.084C292.953 341.25 292.617 341.941 292.076 342.426C291.544 342.911 290.816 343.154 289.892 343.154C289.341 343.154 288.851 343.065 288.422 342.888C288.002 342.711 287.647 342.459 287.358 342.132C287.078 341.805 286.863 341.418 286.714 340.97C286.574 340.513 286.504 340.013 286.504 339.472C286.504 338.931 286.574 338.427 286.714 337.96C286.854 337.484 287.064 337.073 287.344 336.728C287.633 336.373 287.993 336.098 288.422 335.902C288.851 335.697 289.351 335.594 289.92 335.594C290.331 335.594 290.713 335.645 291.068 335.748C291.432 335.841 291.749 335.991 292.02 336.196C292.3 336.401 292.529 336.663 292.706 336.98C292.883 337.288 292.995 337.657 293.042 338.086H291.81ZM294.591 333.004H295.781V336.826H295.809C295.902 336.602 296.033 336.415 296.201 336.266C296.369 336.107 296.555 335.981 296.761 335.888C296.975 335.785 297.195 335.711 297.419 335.664C297.652 335.617 297.876 335.594 298.091 335.594C298.567 335.594 298.963 335.659 299.281 335.79C299.598 335.921 299.855 336.103 300.051 336.336C300.247 336.569 300.382 336.849 300.457 337.176C300.541 337.493 300.583 337.848 300.583 338.24V343H299.393V338.1C299.393 337.652 299.262 337.297 299.001 337.036C298.739 336.775 298.38 336.644 297.923 336.644C297.559 336.644 297.241 336.7 296.971 336.812C296.709 336.924 296.49 337.083 296.313 337.288C296.135 337.493 296 337.736 295.907 338.016C295.823 338.287 295.781 338.585 295.781 338.912V343H294.591V333.004ZM308.957 342.972C308.751 343.093 308.467 343.154 308.103 343.154C307.795 343.154 307.547 343.07 307.361 342.902C307.183 342.725 307.095 342.44 307.095 342.048C306.768 342.44 306.385 342.725 305.947 342.902C305.517 343.07 305.051 343.154 304.547 343.154C304.22 343.154 303.907 343.117 303.609 343.042C303.319 342.967 303.067 342.851 302.853 342.692C302.638 342.533 302.465 342.328 302.335 342.076C302.213 341.815 302.153 341.502 302.153 341.138C302.153 340.727 302.223 340.391 302.363 340.13C302.503 339.869 302.685 339.659 302.909 339.5C303.142 339.332 303.403 339.206 303.693 339.122C303.991 339.038 304.295 338.968 304.603 338.912C304.929 338.847 305.237 338.8 305.527 338.772C305.825 338.735 306.087 338.688 306.311 338.632C306.535 338.567 306.712 338.478 306.843 338.366C306.973 338.245 307.039 338.072 307.039 337.848C307.039 337.587 306.987 337.377 306.885 337.218C306.791 337.059 306.665 336.938 306.507 336.854C306.357 336.77 306.185 336.714 305.989 336.686C305.802 336.658 305.615 336.644 305.429 336.644C304.925 336.644 304.505 336.742 304.169 336.938C303.833 337.125 303.651 337.484 303.623 338.016H302.433C302.451 337.568 302.545 337.19 302.713 336.882C302.881 336.574 303.105 336.327 303.385 336.14C303.665 335.944 303.982 335.804 304.337 335.72C304.701 335.636 305.088 335.594 305.499 335.594C305.825 335.594 306.147 335.617 306.465 335.664C306.791 335.711 307.085 335.809 307.347 335.958C307.608 336.098 307.818 336.299 307.977 336.56C308.135 336.821 308.215 337.162 308.215 337.582V341.306C308.215 341.586 308.229 341.791 308.257 341.922C308.294 342.053 308.406 342.118 308.593 342.118C308.695 342.118 308.817 342.095 308.957 342.048V342.972ZM307.025 339.262C306.875 339.374 306.679 339.458 306.437 339.514C306.194 339.561 305.937 339.603 305.667 339.64C305.405 339.668 305.139 339.705 304.869 339.752C304.598 339.789 304.355 339.855 304.141 339.948C303.926 340.041 303.749 340.177 303.609 340.354C303.478 340.522 303.413 340.755 303.413 341.054C303.413 341.25 303.45 341.418 303.525 341.558C303.609 341.689 303.711 341.796 303.833 341.88C303.963 341.964 304.113 342.025 304.281 342.062C304.449 342.099 304.626 342.118 304.813 342.118C305.205 342.118 305.541 342.067 305.821 341.964C306.101 341.852 306.329 341.717 306.507 341.558C306.684 341.39 306.815 341.213 306.899 341.026C306.983 340.83 307.025 340.648 307.025 340.48V339.262ZM310.197 335.762H311.317V337.288H311.345C311.635 336.7 311.989 336.266 312.409 335.986C312.829 335.706 313.361 335.575 314.005 335.594V336.854C313.529 336.854 313.123 336.919 312.787 337.05C312.451 337.181 312.181 337.372 311.975 337.624C311.77 337.876 311.621 338.184 311.527 338.548C311.434 338.903 311.387 339.313 311.387 339.78V343H310.197V335.762ZM321.488 342.972C321.283 343.093 320.998 343.154 320.634 343.154C320.326 343.154 320.079 343.07 319.892 342.902C319.715 342.725 319.626 342.44 319.626 342.048C319.3 342.44 318.917 342.725 318.478 342.902C318.049 343.07 317.582 343.154 317.078 343.154C316.752 343.154 316.439 343.117 316.14 343.042C315.851 342.967 315.599 342.851 315.384 342.692C315.17 342.533 314.997 342.328 314.866 342.076C314.745 341.815 314.684 341.502 314.684 341.138C314.684 340.727 314.754 340.391 314.894 340.13C315.034 339.869 315.216 339.659 315.44 339.5C315.674 339.332 315.935 339.206 316.224 339.122C316.523 339.038 316.826 338.968 317.134 338.912C317.461 338.847 317.769 338.8 318.058 338.772C318.357 338.735 318.618 338.688 318.842 338.632C319.066 338.567 319.244 338.478 319.374 338.366C319.505 338.245 319.57 338.072 319.57 337.848C319.57 337.587 319.519 337.377 319.416 337.218C319.323 337.059 319.197 336.938 319.038 336.854C318.889 336.77 318.716 336.714 318.52 336.686C318.334 336.658 318.147 336.644 317.96 336.644C317.456 336.644 317.036 336.742 316.7 336.938C316.364 337.125 316.182 337.484 316.154 338.016H314.964C314.983 337.568 315.076 337.19 315.244 336.882C315.412 336.574 315.636 336.327 315.916 336.14C316.196 335.944 316.514 335.804 316.868 335.72C317.232 335.636 317.62 335.594 318.03 335.594C318.357 335.594 318.679 335.617 318.996 335.664C319.323 335.711 319.617 335.809 319.878 335.958C320.14 336.098 320.35 336.299 320.508 336.56C320.667 336.821 320.746 337.162 320.746 337.582V341.306C320.746 341.586 320.76 341.791 320.788 341.922C320.826 342.053 320.938 342.118 321.124 342.118C321.227 342.118 321.348 342.095 321.488 342.048V342.972ZM319.556 339.262C319.407 339.374 319.211 339.458 318.968 339.514C318.726 339.561 318.469 339.603 318.198 339.64C317.937 339.668 317.671 339.705 317.4 339.752C317.13 339.789 316.887 339.855 316.672 339.948C316.458 340.041 316.28 340.177 316.14 340.354C316.01 340.522 315.944 340.755 315.944 341.054C315.944 341.25 315.982 341.418 316.056 341.558C316.14 341.689 316.243 341.796 316.364 341.88C316.495 341.964 316.644 342.025 316.812 342.062C316.98 342.099 317.158 342.118 317.344 342.118C317.736 342.118 318.072 342.067 318.352 341.964C318.632 341.852 318.861 341.717 319.038 341.558C319.216 341.39 319.346 341.213 319.43 341.026C319.514 340.83 319.556 340.648 319.556 340.48V339.262ZM327.685 338.086C327.592 337.629 327.396 337.274 327.097 337.022C326.798 336.77 326.397 336.644 325.893 336.644C325.464 336.644 325.104 336.723 324.815 336.882C324.526 337.041 324.292 337.251 324.115 337.512C323.947 337.773 323.826 338.077 323.751 338.422C323.676 338.758 323.639 339.108 323.639 339.472C323.639 339.808 323.676 340.135 323.751 340.452C323.835 340.769 323.961 341.054 324.129 341.306C324.297 341.549 324.516 341.745 324.787 341.894C325.058 342.043 325.38 342.118 325.753 342.118C326.341 342.118 326.798 341.964 327.125 341.656C327.461 341.348 327.666 340.914 327.741 340.354H328.959C328.828 341.25 328.492 341.941 327.951 342.426C327.419 342.911 326.691 343.154 325.767 343.154C325.216 343.154 324.726 343.065 324.297 342.888C323.877 342.711 323.522 342.459 323.233 342.132C322.953 341.805 322.738 341.418 322.589 340.97C322.449 340.513 322.379 340.013 322.379 339.472C322.379 338.931 322.449 338.427 322.589 337.96C322.729 337.484 322.939 337.073 323.219 336.728C323.508 336.373 323.868 336.098 324.297 335.902C324.726 335.697 325.226 335.594 325.795 335.594C326.206 335.594 326.588 335.645 326.943 335.748C327.307 335.841 327.624 335.991 327.895 336.196C328.175 336.401 328.404 336.663 328.581 336.98C328.758 337.288 328.87 337.657 328.917 338.086H327.685ZM332.118 335.762H333.56V336.812H332.118V341.306C332.118 341.446 332.127 341.558 332.146 341.642C332.174 341.726 332.22 341.791 332.286 341.838C332.351 341.885 332.44 341.917 332.552 341.936C332.673 341.945 332.827 341.95 333.014 341.95H333.56V343H332.65C332.342 343 332.076 342.981 331.852 342.944C331.637 342.897 331.46 342.818 331.32 342.706C331.189 342.594 331.091 342.435 331.026 342.23C330.96 342.025 330.928 341.754 330.928 341.418V336.812H329.696V335.762H330.928V333.592H332.118V335.762ZM340.083 338.688C340.064 338.408 339.999 338.142 339.887 337.89C339.784 337.638 339.639 337.423 339.453 337.246C339.275 337.059 339.061 336.915 338.809 336.812C338.566 336.7 338.295 336.644 337.997 336.644C337.689 336.644 337.409 336.7 337.157 336.812C336.914 336.915 336.704 337.059 336.527 337.246C336.349 337.433 336.209 337.652 336.107 337.904C336.004 338.147 335.943 338.408 335.925 338.688H340.083ZM341.231 340.704C341.072 341.516 340.722 342.127 340.181 342.538C339.639 342.949 338.958 343.154 338.137 343.154C337.558 343.154 337.054 343.061 336.625 342.874C336.205 342.687 335.85 342.426 335.561 342.09C335.271 341.754 335.052 341.353 334.903 340.886C334.763 340.419 334.683 339.911 334.665 339.36C334.665 338.809 334.749 338.305 334.917 337.848C335.085 337.391 335.318 336.994 335.617 336.658C335.925 336.322 336.284 336.061 336.695 335.874C337.115 335.687 337.572 335.594 338.067 335.594C338.711 335.594 339.243 335.729 339.663 336C340.092 336.261 340.433 336.597 340.685 337.008C340.946 337.419 341.123 337.867 341.217 338.352C341.319 338.837 341.361 339.299 341.343 339.738H335.925C335.915 340.055 335.953 340.359 336.037 340.648C336.121 340.928 336.256 341.18 336.443 341.404C336.629 341.619 336.867 341.791 337.157 341.922C337.446 342.053 337.787 342.118 338.179 342.118C338.683 342.118 339.093 342.001 339.411 341.768C339.737 341.535 339.952 341.18 340.055 340.704H341.231ZM342.709 335.762H343.829V337.288H343.857C344.146 336.7 344.501 336.266 344.921 335.986C345.341 335.706 345.873 335.575 346.517 335.594V336.854C346.041 336.854 345.635 336.919 345.299 337.05C344.963 337.181 344.692 337.372 344.487 337.624C344.282 337.876 344.132 338.184 344.039 338.548C343.946 338.903 343.899 339.313 343.899 339.78V343H342.709V335.762ZM348.316 340.718C348.326 340.979 348.386 341.203 348.498 341.39C348.61 341.567 348.755 341.712 348.932 341.824C349.119 341.927 349.324 342.001 349.548 342.048C349.782 342.095 350.02 342.118 350.262 342.118C350.449 342.118 350.645 342.104 350.85 342.076C351.056 342.048 351.242 341.997 351.41 341.922C351.588 341.847 351.732 341.74 351.844 341.6C351.956 341.451 352.012 341.264 352.012 341.04C352.012 340.732 351.896 340.499 351.662 340.34C351.429 340.181 351.135 340.055 350.78 339.962C350.435 339.859 350.057 339.771 349.646 339.696C349.236 339.612 348.853 339.5 348.498 339.36C348.153 339.211 347.864 339.005 347.63 338.744C347.397 338.483 347.28 338.119 347.28 337.652C347.28 337.288 347.36 336.975 347.518 336.714C347.686 336.453 347.896 336.243 348.148 336.084C348.41 335.916 348.699 335.795 349.016 335.72C349.343 335.636 349.665 335.594 349.982 335.594C350.393 335.594 350.771 335.631 351.116 335.706C351.462 335.771 351.765 335.893 352.026 336.07C352.297 336.238 352.512 336.471 352.67 336.77C352.829 337.059 352.922 337.423 352.95 337.862H351.76C351.742 337.629 351.681 337.437 351.578 337.288C351.476 337.129 351.345 337.003 351.186 336.91C351.028 336.817 350.85 336.751 350.654 336.714C350.468 336.667 350.276 336.644 350.08 336.644C349.903 336.644 349.721 336.658 349.534 336.686C349.357 336.714 349.194 336.765 349.044 336.84C348.895 336.905 348.774 336.999 348.68 337.12C348.587 337.232 348.54 337.381 348.54 337.568C348.54 337.773 348.61 337.946 348.75 338.086C348.9 338.217 349.086 338.329 349.31 338.422C349.534 338.506 349.786 338.581 350.066 338.646C350.346 338.702 350.626 338.763 350.906 338.828C351.205 338.893 351.494 338.973 351.774 339.066C352.064 339.159 352.316 339.285 352.53 339.444C352.754 339.593 352.932 339.785 353.062 340.018C353.202 340.251 353.272 340.541 353.272 340.886C353.272 341.325 353.179 341.689 352.992 341.978C352.815 342.267 352.577 342.501 352.278 342.678C351.989 342.855 351.658 342.977 351.284 343.042C350.92 343.117 350.556 343.154 350.192 343.154C349.791 343.154 349.408 343.112 349.044 343.028C348.68 342.944 348.358 342.809 348.078 342.622C347.798 342.426 347.574 342.174 347.406 341.866C347.238 341.549 347.145 341.166 347.126 340.718H348.316ZM355.029 341.446H356.583V343H355.029V341.446Z" fill="#DB0002"/>
</svg>
