<svg width="600" height="118" viewBox="0 0 600 118" fill="none" xmlns="http://www.w3.org/2000/svg">
<rect width="600" height="118" fill="black" fill-opacity="0.04"/>
<path d="M91.248 53.076H92.768V63.22H98.816V64.5H91.248V53.076ZM105.659 59.572C105.637 59.252 105.563 58.948 105.435 58.66C105.317 58.372 105.152 58.1267 104.939 57.924C104.736 57.7107 104.491 57.5453 104.203 57.428C103.925 57.3 103.616 57.236 103.275 57.236C102.923 57.236 102.603 57.3 102.315 57.428C102.037 57.5453 101.797 57.7107 101.595 57.924C101.392 58.1373 101.232 58.388 101.115 58.676C100.997 58.9533 100.928 59.252 100.907 59.572H105.659ZM106.971 61.876C106.789 62.804 106.389 63.5027 105.771 63.972C105.152 64.4413 104.373 64.676 103.435 64.676C102.773 64.676 102.197 64.5693 101.707 64.356C101.227 64.1427 100.821 63.844 100.491 63.46C100.16 63.076 99.9093 62.6173 99.7386 62.084C99.5786 61.5507 99.488 60.9693 99.4666 60.34C99.4666 59.7107 99.5626 59.1347 99.7546 58.612C99.9466 58.0893 100.213 57.636 100.555 57.252C100.907 56.868 101.317 56.5693 101.787 56.356C102.267 56.1427 102.789 56.036 103.355 56.036C104.091 56.036 104.699 56.1907 105.179 56.5C105.669 56.7987 106.059 57.1827 106.347 57.652C106.645 58.1213 106.848 58.6333 106.955 59.188C107.072 59.7427 107.12 60.2707 107.099 60.772H100.907C100.896 61.1347 100.939 61.4813 101.035 61.812C101.131 62.132 101.285 62.42 101.499 62.676C101.712 62.9213 101.984 63.1187 102.315 63.268C102.645 63.4173 103.035 63.492 103.483 63.492C104.059 63.492 104.528 63.3587 104.891 63.092C105.264 62.8253 105.509 62.42 105.627 61.876H106.971ZM115.836 64.468C115.602 64.6067 115.276 64.676 114.86 64.676C114.508 64.676 114.226 64.58 114.012 64.388C113.81 64.1853 113.708 63.86 113.708 63.412C113.335 63.86 112.898 64.1853 112.396 64.388C111.906 64.58 111.372 64.676 110.796 64.676C110.423 64.676 110.066 64.6333 109.724 64.548C109.394 64.4627 109.106 64.3293 108.86 64.148C108.615 63.9667 108.418 63.732 108.268 63.444C108.13 63.1453 108.06 62.788 108.06 62.372C108.06 61.9027 108.14 61.5187 108.3 61.22C108.46 60.9213 108.668 60.6813 108.924 60.5C109.191 60.308 109.49 60.164 109.82 60.068C110.162 59.972 110.508 59.892 110.86 59.828C111.234 59.7533 111.586 59.7 111.916 59.668C112.258 59.6253 112.556 59.572 112.812 59.508C113.068 59.4333 113.271 59.332 113.42 59.204C113.57 59.0653 113.644 58.868 113.644 58.612C113.644 58.3133 113.586 58.0733 113.468 57.892C113.362 57.7107 113.218 57.572 113.036 57.476C112.866 57.38 112.668 57.316 112.444 57.284C112.231 57.252 112.018 57.236 111.804 57.236C111.228 57.236 110.748 57.348 110.364 57.572C109.98 57.7853 109.772 58.196 109.74 58.804H108.38C108.402 58.292 108.508 57.86 108.7 57.508C108.892 57.156 109.148 56.8733 109.468 56.66C109.788 56.436 110.151 56.276 110.556 56.18C110.972 56.084 111.415 56.036 111.884 56.036C112.258 56.036 112.626 56.0627 112.988 56.116C113.362 56.1693 113.698 56.2813 113.996 56.452C114.295 56.612 114.535 56.8413 114.716 57.14C114.898 57.4387 114.988 57.828 114.988 58.308V62.564C114.988 62.884 115.004 63.1187 115.036 63.268C115.079 63.4173 115.207 63.492 115.42 63.492C115.538 63.492 115.676 63.4653 115.836 63.412V64.468ZM113.628 60.228C113.458 60.356 113.234 60.452 112.956 60.516C112.679 60.5693 112.386 60.6173 112.076 60.66C111.778 60.692 111.474 60.7347 111.164 60.788C110.855 60.8307 110.578 60.9053 110.332 61.012C110.087 61.1187 109.884 61.2733 109.724 61.476C109.575 61.668 109.5 61.9347 109.5 62.276C109.5 62.5 109.543 62.692 109.628 62.852C109.724 63.0013 109.842 63.124 109.98 63.22C110.13 63.316 110.3 63.3853 110.492 63.428C110.684 63.4707 110.887 63.492 111.1 63.492C111.548 63.492 111.932 63.4333 112.252 63.316C112.572 63.188 112.834 63.0333 113.036 62.852C113.239 62.66 113.388 62.4573 113.484 62.244C113.58 62.02 113.628 61.812 113.628 61.62V60.228ZM118.094 60.436C118.094 60.82 118.142 61.1987 118.238 61.572C118.345 61.9347 118.499 62.26 118.702 62.548C118.915 62.836 119.182 63.0653 119.502 63.236C119.833 63.4067 120.217 63.492 120.654 63.492C121.113 63.492 121.502 63.4013 121.822 63.22C122.142 63.0387 122.403 62.804 122.606 62.516C122.809 62.2173 122.953 61.8813 123.038 61.508C123.134 61.1347 123.182 60.756 123.182 60.372C123.182 59.9667 123.134 59.5773 123.038 59.204C122.942 58.82 122.787 58.484 122.574 58.196C122.371 57.908 122.105 57.6787 121.774 57.508C121.443 57.3267 121.043 57.236 120.574 57.236C120.115 57.236 119.726 57.3267 119.406 57.508C119.086 57.6893 118.83 57.9293 118.638 58.228C118.446 58.5267 118.307 58.868 118.222 59.252C118.137 59.636 118.094 60.0307 118.094 60.436ZM124.494 64.5H123.134V63.38H123.102C122.878 63.8387 122.526 64.1693 122.046 64.372C121.566 64.5747 121.038 64.676 120.462 64.676C119.822 64.676 119.262 64.5587 118.782 64.324C118.313 64.0893 117.918 63.7747 117.598 63.38C117.289 62.9853 117.054 62.5267 116.894 62.004C116.734 61.4813 116.654 60.9267 116.654 60.34C116.654 59.7533 116.729 59.1987 116.878 58.676C117.038 58.1533 117.273 57.7 117.582 57.316C117.902 56.9213 118.297 56.612 118.766 56.388C119.246 56.1533 119.801 56.036 120.43 56.036C120.643 56.036 120.873 56.0573 121.118 56.1C121.363 56.1427 121.609 56.2173 121.854 56.324C122.099 56.42 122.329 56.5533 122.542 56.724C122.766 56.884 122.953 57.0867 123.102 57.332H123.134V53.076H124.494V64.5ZM128.027 54.74H126.667V53.076H128.027V54.74ZM126.667 56.228H128.027V64.5H126.667V56.228ZM130.133 56.228H131.413V57.54H131.445C132.011 56.5373 132.907 56.036 134.133 56.036C134.677 56.036 135.131 56.1107 135.493 56.26C135.856 56.4093 136.149 56.6173 136.373 56.884C136.597 57.1507 136.752 57.4707 136.837 57.844C136.933 58.2067 136.981 58.612 136.981 59.06V64.5H135.621V58.9C135.621 58.388 135.472 57.9827 135.173 57.684C134.875 57.3853 134.464 57.236 133.941 57.236C133.525 57.236 133.163 57.3 132.853 57.428C132.555 57.556 132.304 57.7373 132.101 57.972C131.899 58.2067 131.744 58.484 131.637 58.804C131.541 59.1133 131.493 59.4547 131.493 59.828V64.5H130.133V56.228ZM146.16 63.796C146.16 65.1507 145.851 66.164 145.232 66.836C144.613 67.508 143.643 67.844 142.32 67.844C141.936 67.844 141.541 67.8013 141.136 67.716C140.741 67.6307 140.379 67.492 140.048 67.3C139.728 67.108 139.461 66.8573 139.248 66.548C139.035 66.2387 138.917 65.86 138.896 65.412H140.256C140.267 65.6573 140.341 65.8653 140.48 66.036C140.629 66.2067 140.805 66.3453 141.008 66.452C141.221 66.5587 141.451 66.6333 141.696 66.676C141.941 66.7293 142.176 66.756 142.4 66.756C142.848 66.756 143.227 66.676 143.536 66.516C143.845 66.3667 144.101 66.1533 144.304 65.876C144.507 65.6093 144.651 65.284 144.736 64.9C144.832 64.516 144.88 64.0947 144.88 63.636V63.092H144.848C144.613 63.604 144.256 63.9827 143.776 64.228C143.307 64.4627 142.805 64.58 142.272 64.58C141.653 64.58 141.115 64.468 140.656 64.244C140.197 64.02 139.813 63.7213 139.504 63.348C139.195 62.964 138.96 62.5213 138.8 62.02C138.651 61.508 138.576 60.9693 138.576 60.404C138.576 59.9133 138.64 59.412 138.768 58.9C138.896 58.3773 139.109 57.908 139.408 57.492C139.707 57.0653 140.101 56.7187 140.592 56.452C141.083 56.1747 141.685 56.036 142.4 56.036C142.923 56.036 143.403 56.1533 143.84 56.388C144.277 56.612 144.619 56.9533 144.864 57.412H144.88V56.228H146.16V63.796ZM142.352 63.396C142.8 63.396 143.179 63.3053 143.488 63.124C143.808 62.932 144.064 62.6867 144.256 62.388C144.448 62.0787 144.587 61.732 144.672 61.348C144.768 60.964 144.816 60.58 144.816 60.196C144.816 59.8333 144.773 59.476 144.688 59.124C144.603 58.772 144.464 58.4573 144.272 58.18C144.091 57.892 143.851 57.6627 143.552 57.492C143.253 57.3213 142.891 57.236 142.464 57.236C142.027 57.236 141.653 57.3213 141.344 57.492C141.035 57.652 140.779 57.8707 140.576 58.148C140.384 58.4253 140.24 58.7453 140.144 59.108C140.059 59.4707 140.016 59.8493 140.016 60.244C140.016 60.6173 140.053 60.9907 140.128 61.364C140.203 61.7373 140.331 62.0787 140.512 62.388C140.693 62.6867 140.933 62.932 141.232 63.124C141.531 63.3053 141.904 63.396 142.352 63.396ZM154.105 54.74H152.745V53.076H154.105V54.74ZM152.745 56.228H154.105V64.5H152.745V56.228ZM161.828 58.884C161.721 58.3613 161.497 57.956 161.156 57.668C160.814 57.38 160.356 57.236 159.78 57.236C159.289 57.236 158.878 57.3267 158.548 57.508C158.217 57.6893 157.95 57.9293 157.748 58.228C157.556 58.5267 157.417 58.8733 157.332 59.268C157.246 59.652 157.204 60.052 157.204 60.468C157.204 60.852 157.246 61.2253 157.332 61.588C157.428 61.9507 157.572 62.276 157.764 62.564C157.956 62.8413 158.206 63.0653 158.516 63.236C158.825 63.4067 159.193 63.492 159.62 63.492C160.292 63.492 160.814 63.316 161.188 62.964C161.572 62.612 161.806 62.116 161.892 61.476H163.284C163.134 62.5 162.75 63.2893 162.132 63.844C161.524 64.3987 160.692 64.676 159.636 64.676C159.006 64.676 158.446 64.5747 157.956 64.372C157.476 64.1693 157.07 63.8813 156.74 63.508C156.42 63.1347 156.174 62.692 156.004 62.18C155.844 61.6573 155.764 61.0867 155.764 60.468C155.764 59.8493 155.844 59.2733 156.004 58.74C156.164 58.196 156.404 57.7267 156.724 57.332C157.054 56.9267 157.465 56.612 157.956 56.388C158.446 56.1533 159.017 56.036 159.668 56.036C160.137 56.036 160.574 56.0947 160.98 56.212C161.396 56.3187 161.758 56.4893 162.068 56.724C162.388 56.9587 162.649 57.2573 162.852 57.62C163.054 57.972 163.182 58.3933 163.236 58.884H161.828ZM165.797 60.372C165.797 60.8733 165.861 61.3213 165.989 61.716C166.128 62.1 166.315 62.4253 166.549 62.692C166.784 62.948 167.056 63.1453 167.365 63.284C167.685 63.4227 168.021 63.492 168.373 63.492C168.725 63.492 169.056 63.4227 169.365 63.284C169.685 63.1453 169.963 62.948 170.197 62.692C170.432 62.4253 170.613 62.1 170.741 61.716C170.88 61.3213 170.949 60.8733 170.949 60.372C170.949 59.8707 170.88 59.428 170.741 59.044C170.613 58.6493 170.432 58.3187 170.197 58.052C169.963 57.7853 169.685 57.5827 169.365 57.444C169.056 57.3053 168.725 57.236 168.373 57.236C168.021 57.236 167.685 57.3053 167.365 57.444C167.056 57.5827 166.784 57.7853 166.549 58.052C166.315 58.3187 166.128 58.6493 165.989 59.044C165.861 59.428 165.797 59.8707 165.797 60.372ZM164.357 60.372C164.357 59.764 164.443 59.1987 164.613 58.676C164.784 58.1427 165.04 57.684 165.381 57.3C165.723 56.9053 166.144 56.596 166.645 56.372C167.147 56.148 167.723 56.036 168.373 56.036C169.035 56.036 169.611 56.148 170.101 56.372C170.603 56.596 171.024 56.9053 171.365 57.3C171.707 57.684 171.963 58.1427 172.133 58.676C172.304 59.1987 172.389 59.764 172.389 60.372C172.389 60.98 172.304 61.5453 172.133 62.068C171.963 62.5907 171.707 63.0493 171.365 63.444C171.024 63.828 170.603 64.132 170.101 64.356C169.611 64.5693 169.035 64.676 168.373 64.676C167.723 64.676 167.147 64.5693 166.645 64.356C166.144 64.132 165.723 63.828 165.381 63.444C165.04 63.0493 164.784 62.5907 164.613 62.068C164.443 61.5453 164.357 60.98 164.357 60.372ZM173.993 56.228H175.273V57.54H175.305C175.87 56.5373 176.766 56.036 177.993 56.036C178.537 56.036 178.99 56.1107 179.353 56.26C179.715 56.4093 180.009 56.6173 180.233 56.884C180.457 57.1507 180.611 57.4707 180.697 57.844C180.793 58.2067 180.841 58.612 180.841 59.06V64.5H179.481V58.9C179.481 58.388 179.331 57.9827 179.033 57.684C178.734 57.3853 178.323 57.236 177.801 57.236C177.385 57.236 177.022 57.3 176.713 57.428C176.414 57.556 176.163 57.7373 175.961 57.972C175.758 58.2067 175.603 58.484 175.497 58.804C175.401 59.1133 175.353 59.4547 175.353 59.828V64.5H173.993V56.228Z" fill="black" fill-opacity="0.68"/>
<mask id="path-2-inside-1_68467_31770" fill="white">
<path d="M270 29H510V89H270V29Z"/>
</mask>
<path d="M270 29H510V89H270V29Z" fill="black" fill-opacity="0.04"/>
<path d="M510 89V88H270V89V90H510V89Z" fill="black" fill-opacity="0.2" mask="url(#path-2-inside-1_68467_31770)"/>
<path d="M303.4 56.6H302.8V56C302.8 53.36 300.64 51.2 298 51.2C295.36 51.2 293.2 53.36 293.2 56V56.6H290.8V67.4C290.8 68.394 291.606 69.2 292.6 69.2H305.2V58.4C305.2 57.4059 304.394 56.6 303.4 56.6ZM295 56C295 54.343 296.343 53 298 53C299.657 53 301 54.343 301 56V56.6H295V56ZM299.572 62.2772C299.409 62.5685 299.169 62.809 298.877 62.9717L299.2 66.2H296.8L297.123 62.9717C296.255 62.4872 295.944 61.3908 296.429 60.5228C296.913 59.6547 298.009 59.3436 298.877 59.8282C299.746 60.3128 300.057 61.4091 299.572 62.2772Z" fill="black" fill-opacity="0.68"/>
<path d="M324.768 59.048H327.744C328.608 59.0587 329.237 58.8827 329.632 58.52C330.037 58.1573 330.24 57.6347 330.24 56.952C330.24 56.2693 330.037 55.752 329.632 55.4C329.237 55.0373 328.608 54.856 327.744 54.856H324.768V59.048ZM323.248 53.576H328.256C329.408 53.576 330.277 53.8747 330.864 54.472C331.461 55.0587 331.76 55.8853 331.76 56.952C331.76 58.0187 331.461 58.8507 330.864 59.448C330.277 60.0453 329.408 60.3387 328.256 60.328H324.768V65H323.248V53.576ZM340.927 64.968C340.692 65.1067 340.367 65.176 339.951 65.176C339.599 65.176 339.316 65.08 339.103 64.888C338.9 64.6853 338.799 64.36 338.799 63.912C338.426 64.36 337.988 64.6853 337.487 64.888C336.996 65.08 336.463 65.176 335.887 65.176C335.514 65.176 335.156 65.1333 334.815 65.048C334.484 64.9627 334.196 64.8293 333.951 64.648C333.706 64.4667 333.508 64.232 333.359 63.944C333.22 63.6453 333.151 63.288 333.151 62.872C333.151 62.4027 333.231 62.0187 333.391 61.72C333.551 61.4213 333.759 61.1813 334.015 61C334.282 60.808 334.58 60.664 334.911 60.568C335.252 60.472 335.599 60.392 335.951 60.328C336.324 60.2533 336.676 60.2 337.007 60.168C337.348 60.1253 337.647 60.072 337.903 60.008C338.159 59.9333 338.362 59.832 338.511 59.704C338.66 59.5653 338.735 59.368 338.735 59.112C338.735 58.8133 338.676 58.5733 338.559 58.392C338.452 58.2107 338.308 58.072 338.127 57.976C337.956 57.88 337.759 57.816 337.535 57.784C337.322 57.752 337.108 57.736 336.895 57.736C336.319 57.736 335.839 57.848 335.455 58.072C335.071 58.2853 334.863 58.696 334.831 59.304H333.471C333.492 58.792 333.599 58.36 333.791 58.008C333.983 57.656 334.239 57.3733 334.559 57.16C334.879 56.936 335.242 56.776 335.647 56.68C336.063 56.584 336.506 56.536 336.975 56.536C337.348 56.536 337.716 56.5627 338.079 56.616C338.452 56.6693 338.788 56.7813 339.087 56.952C339.386 57.112 339.626 57.3413 339.807 57.64C339.988 57.9387 340.079 58.328 340.079 58.808V63.064C340.079 63.384 340.095 63.6187 340.127 63.768C340.17 63.9173 340.298 63.992 340.511 63.992C340.628 63.992 340.767 63.9653 340.927 63.912V64.968ZM338.719 60.728C338.548 60.856 338.324 60.952 338.047 61.016C337.77 61.0693 337.476 61.1173 337.167 61.16C336.868 61.192 336.564 61.2347 336.255 61.288C335.946 61.3307 335.668 61.4053 335.423 61.512C335.178 61.6187 334.975 61.7733 334.815 61.976C334.666 62.168 334.591 62.4347 334.591 62.776C334.591 63 334.634 63.192 334.719 63.352C334.815 63.5013 334.932 63.624 335.071 63.72C335.22 63.816 335.391 63.8853 335.583 63.928C335.775 63.9707 335.978 63.992 336.191 63.992C336.639 63.992 337.023 63.9333 337.343 63.816C337.663 63.688 337.924 63.5333 338.127 63.352C338.33 63.16 338.479 62.9573 338.575 62.744C338.671 62.52 338.719 62.312 338.719 62.12V60.728ZM343.225 62.392C343.235 62.6907 343.305 62.9467 343.433 63.16C343.561 63.3627 343.726 63.528 343.929 63.656C344.142 63.7733 344.377 63.8587 344.633 63.912C344.899 63.9653 345.171 63.992 345.449 63.992C345.662 63.992 345.886 63.976 346.121 63.944C346.355 63.912 346.569 63.8533 346.761 63.768C346.963 63.6827 347.129 63.56 347.257 63.4C347.385 63.2293 347.449 63.016 347.449 62.76C347.449 62.408 347.315 62.1413 347.049 61.96C346.782 61.7787 346.446 61.6347 346.041 61.528C345.646 61.4107 345.214 61.3093 344.745 61.224C344.275 61.128 343.838 61 343.433 60.84C343.038 60.6693 342.707 60.4347 342.441 60.136C342.174 59.8373 342.041 59.4213 342.041 58.888C342.041 58.472 342.131 58.1147 342.313 57.816C342.505 57.5173 342.745 57.2773 343.033 57.096C343.331 56.904 343.662 56.7653 344.025 56.68C344.398 56.584 344.766 56.536 345.129 56.536C345.598 56.536 346.03 56.5787 346.425 56.664C346.819 56.7387 347.166 56.8773 347.465 57.08C347.774 57.272 348.019 57.5387 348.201 57.88C348.382 58.2107 348.489 58.6267 348.521 59.128H347.161C347.139 58.8613 347.07 58.6427 346.953 58.472C346.835 58.2907 346.686 58.1467 346.505 58.04C346.323 57.9333 346.121 57.8587 345.897 57.816C345.683 57.7627 345.465 57.736 345.241 57.736C345.038 57.736 344.83 57.752 344.617 57.784C344.414 57.816 344.227 57.8747 344.057 57.96C343.886 58.0347 343.747 58.1413 343.641 58.28C343.534 58.408 343.481 58.5787 343.481 58.792C343.481 59.0267 343.561 59.224 343.721 59.384C343.891 59.5333 344.105 59.6613 344.361 59.768C344.617 59.864 344.905 59.9493 345.225 60.024C345.545 60.088 345.865 60.1573 346.185 60.232C346.526 60.3067 346.857 60.3973 347.177 60.504C347.507 60.6107 347.795 60.7547 348.041 60.936C348.297 61.1067 348.499 61.3253 348.649 61.592C348.809 61.8587 348.889 62.1893 348.889 62.584C348.889 63.0853 348.782 63.5013 348.569 63.832C348.366 64.1627 348.094 64.4293 347.753 64.632C347.422 64.8347 347.043 64.9733 346.617 65.048C346.201 65.1333 345.785 65.176 345.369 65.176C344.91 65.176 344.473 65.128 344.057 65.032C343.641 64.936 343.273 64.7813 342.953 64.568C342.633 64.344 342.377 64.056 342.185 63.704C341.993 63.3413 341.886 62.904 341.865 62.392H343.225ZM351.425 62.392C351.435 62.6907 351.505 62.9467 351.633 63.16C351.761 63.3627 351.926 63.528 352.129 63.656C352.342 63.7733 352.577 63.8587 352.833 63.912C353.099 63.9653 353.371 63.992 353.649 63.992C353.862 63.992 354.086 63.976 354.321 63.944C354.555 63.912 354.769 63.8533 354.961 63.768C355.163 63.6827 355.329 63.56 355.457 63.4C355.585 63.2293 355.649 63.016 355.649 62.76C355.649 62.408 355.515 62.1413 355.249 61.96C354.982 61.7787 354.646 61.6347 354.241 61.528C353.846 61.4107 353.414 61.3093 352.945 61.224C352.475 61.128 352.038 61 351.633 60.84C351.238 60.6693 350.907 60.4347 350.641 60.136C350.374 59.8373 350.241 59.4213 350.241 58.888C350.241 58.472 350.331 58.1147 350.513 57.816C350.705 57.5173 350.945 57.2773 351.233 57.096C351.531 56.904 351.862 56.7653 352.225 56.68C352.598 56.584 352.966 56.536 353.329 56.536C353.798 56.536 354.23 56.5787 354.625 56.664C355.019 56.7387 355.366 56.8773 355.665 57.08C355.974 57.272 356.219 57.5387 356.401 57.88C356.582 58.2107 356.689 58.6267 356.721 59.128H355.361C355.339 58.8613 355.27 58.6427 355.153 58.472C355.035 58.2907 354.886 58.1467 354.705 58.04C354.523 57.9333 354.321 57.8587 354.097 57.816C353.883 57.7627 353.665 57.736 353.441 57.736C353.238 57.736 353.03 57.752 352.817 57.784C352.614 57.816 352.427 57.8747 352.257 57.96C352.086 58.0347 351.947 58.1413 351.841 58.28C351.734 58.408 351.681 58.5787 351.681 58.792C351.681 59.0267 351.761 59.224 351.921 59.384C352.091 59.5333 352.305 59.6613 352.561 59.768C352.817 59.864 353.105 59.9493 353.425 60.024C353.745 60.088 354.065 60.1573 354.385 60.232C354.726 60.3067 355.057 60.3973 355.377 60.504C355.707 60.6107 355.995 60.7547 356.241 60.936C356.497 61.1067 356.699 61.3253 356.849 61.592C357.009 61.8587 357.089 62.1893 357.089 62.584C357.089 63.0853 356.982 63.5013 356.769 63.832C356.566 64.1627 356.294 64.4293 355.953 64.632C355.622 64.8347 355.243 64.9733 354.817 65.048C354.401 65.1333 353.985 65.176 353.569 65.176C353.11 65.176 352.673 65.128 352.257 65.032C351.841 64.936 351.473 64.7813 351.153 64.568C350.833 64.344 350.577 64.056 350.385 63.704C350.193 63.3413 350.086 62.904 350.065 62.392H351.425ZM366.985 65H365.545L363.865 58.424H363.833L362.169 65H360.697L358.041 56.728H359.545L361.417 63.496H361.449L363.113 56.728H364.601L366.329 63.496H366.361L368.217 56.728H369.625L366.985 65ZM372.11 60.872C372.11 61.3733 372.174 61.8213 372.302 62.216C372.44 62.6 372.627 62.9253 372.862 63.192C373.096 63.448 373.368 63.6453 373.678 63.784C373.998 63.9227 374.334 63.992 374.686 63.992C375.038 63.992 375.368 63.9227 375.678 63.784C375.998 63.6453 376.275 63.448 376.51 63.192C376.744 62.9253 376.926 62.6 377.054 62.216C377.192 61.8213 377.262 61.3733 377.262 60.872C377.262 60.3707 377.192 59.928 377.054 59.544C376.926 59.1493 376.744 58.8187 376.51 58.552C376.275 58.2853 375.998 58.0827 375.678 57.944C375.368 57.8053 375.038 57.736 374.686 57.736C374.334 57.736 373.998 57.8053 373.678 57.944C373.368 58.0827 373.096 58.2853 372.862 58.552C372.627 58.8187 372.44 59.1493 372.302 59.544C372.174 59.928 372.11 60.3707 372.11 60.872ZM370.67 60.872C370.67 60.264 370.755 59.6987 370.926 59.176C371.096 58.6427 371.352 58.184 371.694 57.8C372.035 57.4053 372.456 57.096 372.958 56.872C373.459 56.648 374.035 56.536 374.686 56.536C375.347 56.536 375.923 56.648 376.414 56.872C376.915 57.096 377.336 57.4053 377.678 57.8C378.019 58.184 378.275 58.6427 378.446 59.176C378.616 59.6987 378.702 60.264 378.702 60.872C378.702 61.48 378.616 62.0453 378.446 62.568C378.275 63.0907 378.019 63.5493 377.678 63.944C377.336 64.328 376.915 64.632 376.414 64.856C375.923 65.0693 375.347 65.176 374.686 65.176C374.035 65.176 373.459 65.0693 372.958 64.856C372.456 64.632 372.035 64.328 371.694 63.944C371.352 63.5493 371.096 63.0907 370.926 62.568C370.755 62.0453 370.67 61.48 370.67 60.872ZM380.457 56.728H381.737V58.472H381.769C382.1 57.8 382.505 57.304 382.985 56.984C383.465 56.664 384.073 56.5147 384.809 56.536V57.976C384.265 57.976 383.801 58.0507 383.417 58.2C383.033 58.3493 382.724 58.568 382.489 58.856C382.255 59.144 382.084 59.496 381.977 59.912C381.871 60.3173 381.817 60.7867 381.817 61.32V65H380.457V56.728ZM386.744 60.936C386.744 61.32 386.792 61.6987 386.888 62.072C386.995 62.4347 387.149 62.76 387.352 63.048C387.565 63.336 387.832 63.5653 388.152 63.736C388.483 63.9067 388.867 63.992 389.304 63.992C389.763 63.992 390.152 63.9013 390.472 63.72C390.792 63.5387 391.053 63.304 391.256 63.016C391.459 62.7173 391.603 62.3813 391.688 62.008C391.784 61.6347 391.832 61.256 391.832 60.872C391.832 60.4667 391.784 60.0773 391.688 59.704C391.592 59.32 391.437 58.984 391.224 58.696C391.021 58.408 390.755 58.1787 390.424 58.008C390.093 57.8267 389.693 57.736 389.224 57.736C388.765 57.736 388.376 57.8267 388.056 58.008C387.736 58.1893 387.48 58.4293 387.288 58.728C387.096 59.0267 386.957 59.368 386.872 59.752C386.787 60.136 386.744 60.5307 386.744 60.936ZM393.144 65H391.784V63.88H391.752C391.528 64.3387 391.176 64.6693 390.696 64.872C390.216 65.0747 389.688 65.176 389.112 65.176C388.472 65.176 387.912 65.0587 387.432 64.824C386.963 64.5893 386.568 64.2747 386.248 63.88C385.939 63.4853 385.704 63.0267 385.544 62.504C385.384 61.9813 385.304 61.4267 385.304 60.84C385.304 60.2533 385.379 59.6987 385.528 59.176C385.688 58.6533 385.923 58.2 386.232 57.816C386.552 57.4213 386.947 57.112 387.416 56.888C387.896 56.6533 388.451 56.536 389.08 56.536C389.293 56.536 389.523 56.5573 389.768 56.6C390.013 56.6427 390.259 56.7173 390.504 56.824C390.749 56.92 390.979 57.0533 391.192 57.224C391.416 57.384 391.603 57.5867 391.752 57.832H391.784V53.576H393.144V65Z" fill="black" fill-opacity="0.68"/>
<path fill-rule="evenodd" clip-rule="evenodd" d="M480.314 53.0031C480.217 53.0031 480.121 53 480.024 53C479.927 53 479.83 53.0031 479.734 53.0031C475.232 53.0031 470.676 56.1762 469.2 59C470.676 61.8237 475.184 64.9969 479.686 64.9969C479.782 64.9969 479.879 65 479.976 65C480.073 65 480.169 64.9969 480.266 64.9969C484.768 64.9969 489.324 61.8237 490.8 59C489.324 56.1762 484.816 53.0031 480.314 53.0031ZM479.967 63.32C479.112 63.32 478.277 63.0666 477.567 62.5919C476.856 62.1173 476.303 61.4426 475.976 60.6532C475.649 59.8638 475.563 58.9952 475.73 58.1572C475.897 57.3192 476.308 56.5495 476.912 55.9453C477.516 55.3411 478.286 54.9297 479.124 54.763C479.962 54.5963 480.831 54.6819 481.62 55.0088C482.409 55.3358 483.084 55.8895 483.559 56.5999C484.033 57.3104 484.287 58.1456 484.287 59C484.287 60.1457 483.832 61.2445 483.022 62.0547C482.211 62.8649 481.113 63.32 479.967 63.32ZM470.89 59.0009C471.605 58.0026 472.748 56.9829 474.08 56.1733C474.513 55.91 474.961 55.672 475.422 55.4606C474.63 56.4761 474.202 57.7276 474.205 59.0152C474.209 60.3027 474.644 61.552 475.441 62.5632C474.966 62.3466 474.505 62.1014 474.059 61.8288C472.739 61.0214 471.604 60.0017 470.89 59.0009ZM485.92 61.8268C485.454 62.11 484.972 62.3637 484.474 62.5865C485.29 61.5636 485.732 60.2935 485.729 58.9855C485.725 57.6774 485.276 56.4096 484.456 55.3908C484.967 55.6184 485.463 55.879 485.941 56.1712C487.261 56.9786 488.396 57.9985 489.11 58.9993C488.395 59.9975 487.252 61.0172 485.92 61.8268ZM482.35 57.8757C482.305 58.072 482.208 58.253 482.071 58.4008C481.934 58.5485 481.761 58.6579 481.568 58.718C481.376 58.7782 481.171 58.787 480.974 58.7437C480.777 58.7004 480.595 58.6064 480.446 58.4711C480.296 58.3357 480.185 58.1637 480.123 57.972C480.06 57.7804 480.049 57.5757 480.09 57.3783C480.131 57.1809 480.222 56.9976 480.356 56.8466C480.489 56.6956 480.66 56.5821 480.851 56.5173C480.277 56.3131 479.651 56.3141 479.078 56.52C478.504 56.7259 478.02 57.1241 477.708 57.6467C477.395 58.1693 477.274 58.784 477.363 59.3863C477.453 59.9886 477.749 60.5412 478.2 60.9501C478.651 61.3589 479.23 61.5988 479.838 61.6288C480.447 61.6588 481.046 61.4771 481.536 61.1146C482.025 60.7522 482.374 60.2313 482.522 59.6408C482.671 59.0503 482.61 58.4265 482.35 57.8757Z" fill="black"/>
</svg>
