<svg width="600" height="282" viewBox="0 0 600 282" fill="none" xmlns="http://www.w3.org/2000/svg">
<rect width="600" height="282" fill="black" fill-opacity="0.04"/>
<path d="M91.248 80.076H98.752V81.356H92.768V84.988H98.016V86.268H92.768V91.5H91.248V80.076ZM107.54 91.468C107.305 91.6067 106.98 91.676 106.564 91.676C106.212 91.676 105.929 91.58 105.716 91.388C105.513 91.1853 105.412 90.86 105.412 90.412C105.038 90.86 104.601 91.1853 104.1 91.388C103.609 91.58 103.076 91.676 102.5 91.676C102.126 91.676 101.769 91.6333 101.428 91.548C101.097 91.4627 100.809 91.3293 100.564 91.148C100.318 90.9667 100.121 90.732 99.9715 90.444C99.8328 90.1453 99.7635 89.788 99.7635 89.372C99.7635 88.9027 99.8435 88.5187 100.004 88.22C100.164 87.9213 100.372 87.6813 100.628 87.5C100.894 87.308 101.193 87.164 101.524 87.068C101.865 86.972 102.212 86.892 102.564 86.828C102.937 86.7533 103.289 86.7 103.62 86.668C103.961 86.6253 104.26 86.572 104.516 86.508C104.772 86.4333 104.974 86.332 105.124 86.204C105.273 86.0653 105.348 85.868 105.348 85.612C105.348 85.3133 105.289 85.0733 105.172 84.892C105.065 84.7107 104.921 84.572 104.74 84.476C104.569 84.38 104.372 84.316 104.148 84.284C103.934 84.252 103.721 84.236 103.508 84.236C102.932 84.236 102.452 84.348 102.068 84.572C101.684 84.7853 101.476 85.196 101.444 85.804H100.084C100.105 85.292 100.212 84.86 100.404 84.508C100.596 84.156 100.852 83.8733 101.172 83.66C101.492 83.436 101.854 83.276 102.26 83.18C102.676 83.084 103.118 83.036 103.588 83.036C103.961 83.036 104.329 83.0627 104.692 83.116C105.065 83.1693 105.401 83.2813 105.7 83.452C105.998 83.612 106.238 83.8413 106.42 84.14C106.601 84.4387 106.692 84.828 106.692 85.308V89.564C106.692 89.884 106.708 90.1187 106.74 90.268C106.782 90.4173 106.91 90.492 107.124 90.492C107.241 90.492 107.38 90.4653 107.54 90.412V91.468ZM105.332 87.228C105.161 87.356 104.937 87.452 104.66 87.516C104.382 87.5693 104.089 87.6173 103.78 87.66C103.481 87.692 103.177 87.7347 102.868 87.788C102.558 87.8307 102.281 87.9053 102.036 88.012C101.79 88.1187 101.588 88.2733 101.428 88.476C101.278 88.668 101.204 88.9347 101.204 89.276C101.204 89.5 101.246 89.692 101.332 89.852C101.428 90.0013 101.545 90.124 101.684 90.22C101.833 90.316 102.004 90.3853 102.196 90.428C102.388 90.4707 102.59 90.492 102.804 90.492C103.252 90.492 103.636 90.4333 103.956 90.316C104.276 90.188 104.537 90.0333 104.74 89.852C104.942 89.66 105.092 89.4573 105.188 89.244C105.284 89.02 105.332 88.812 105.332 88.62V87.228ZM108.885 80.076H110.245V91.5H108.885V80.076ZM113.184 88.892C113.195 89.1907 113.264 89.4467 113.392 89.66C113.52 89.8627 113.685 90.028 113.888 90.156C114.101 90.2733 114.336 90.3587 114.592 90.412C114.859 90.4653 115.131 90.492 115.408 90.492C115.621 90.492 115.845 90.476 116.08 90.444C116.315 90.412 116.528 90.3533 116.72 90.268C116.923 90.1827 117.088 90.06 117.216 89.9C117.344 89.7293 117.408 89.516 117.408 89.26C117.408 88.908 117.275 88.6413 117.008 88.46C116.741 88.2787 116.405 88.1347 116 88.028C115.605 87.9107 115.173 87.8093 114.704 87.724C114.235 87.628 113.797 87.5 113.392 87.34C112.997 87.1693 112.667 86.9347 112.4 86.636C112.133 86.3373 112 85.9213 112 85.388C112 84.972 112.091 84.6147 112.272 84.316C112.464 84.0173 112.704 83.7773 112.992 83.596C113.291 83.404 113.621 83.2653 113.984 83.18C114.357 83.084 114.725 83.036 115.088 83.036C115.557 83.036 115.989 83.0787 116.384 83.164C116.779 83.2387 117.125 83.3773 117.424 83.58C117.733 83.772 117.979 84.0387 118.16 84.38C118.341 84.7107 118.448 85.1267 118.48 85.628H117.12C117.099 85.3613 117.029 85.1427 116.912 84.972C116.795 84.7907 116.645 84.6467 116.464 84.54C116.283 84.4333 116.08 84.3587 115.856 84.316C115.643 84.2627 115.424 84.236 115.2 84.236C114.997 84.236 114.789 84.252 114.576 84.284C114.373 84.316 114.187 84.3747 114.016 84.46C113.845 84.5347 113.707 84.6413 113.6 84.78C113.493 84.908 113.44 85.0787 113.44 85.292C113.44 85.5267 113.52 85.724 113.68 85.884C113.851 86.0333 114.064 86.1613 114.32 86.268C114.576 86.364 114.864 86.4493 115.184 86.524C115.504 86.588 115.824 86.6573 116.144 86.732C116.485 86.8067 116.816 86.8973 117.136 87.004C117.467 87.1107 117.755 87.2547 118 87.436C118.256 87.6067 118.459 87.8253 118.608 88.092C118.768 88.3587 118.848 88.6893 118.848 89.084C118.848 89.5853 118.741 90.0013 118.528 90.332C118.325 90.6627 118.053 90.9293 117.712 91.132C117.381 91.3347 117.003 91.4733 116.576 91.548C116.16 91.6333 115.744 91.676 115.328 91.676C114.869 91.676 114.432 91.628 114.016 91.532C113.6 91.436 113.232 91.2813 112.912 91.068C112.592 90.844 112.336 90.556 112.144 90.204C111.952 89.8413 111.845 89.404 111.824 88.892H113.184ZM126.096 86.572C126.075 86.252 126 85.948 125.872 85.66C125.755 85.372 125.589 85.1267 125.376 84.924C125.173 84.7107 124.928 84.5453 124.64 84.428C124.363 84.3 124.053 84.236 123.712 84.236C123.36 84.236 123.04 84.3 122.752 84.428C122.475 84.5453 122.235 84.7107 122.032 84.924C121.829 85.1373 121.669 85.388 121.552 85.676C121.435 85.9533 121.365 86.252 121.344 86.572H126.096ZM127.408 88.876C127.227 89.804 126.827 90.5027 126.208 90.972C125.589 91.4413 124.811 91.676 123.872 91.676C123.211 91.676 122.635 91.5693 122.144 91.356C121.664 91.1427 121.259 90.844 120.928 90.46C120.597 90.076 120.347 89.6173 120.176 89.084C120.016 88.5507 119.925 87.9693 119.904 87.34C119.904 86.7107 120 86.1347 120.192 85.612C120.384 85.0893 120.651 84.636 120.992 84.252C121.344 83.868 121.755 83.5693 122.224 83.356C122.704 83.1427 123.227 83.036 123.792 83.036C124.528 83.036 125.136 83.1907 125.616 83.5C126.107 83.7987 126.496 84.1827 126.784 84.652C127.083 85.1213 127.285 85.6333 127.392 86.188C127.509 86.7427 127.557 87.2707 127.536 87.772H121.344C121.333 88.1347 121.376 88.4813 121.472 88.812C121.568 89.132 121.723 89.42 121.936 89.676C122.149 89.9213 122.421 90.1187 122.752 90.268C123.083 90.4173 123.472 90.492 123.92 90.492C124.496 90.492 124.965 90.3587 125.328 90.092C125.701 89.8253 125.947 89.42 126.064 88.876H127.408Z" fill="black" fill-opacity="0.68"/>
<mask id="path-2-inside-1_68467_31688" fill="white">
<path d="M270 56H510V116H270V56Z"/>
</mask>
<path d="M270 56H510V116H270V56Z" fill="black" fill-opacity="0.04"/>
<path d="M510 116V115H270V116V117H510V116Z" fill="black" fill-opacity="0.2" mask="url(#path-2-inside-1_68467_31688)"/>
<path d="M288.768 86.048H291.744C292.608 86.0587 293.237 85.8827 293.632 85.52C294.037 85.1573 294.24 84.6347 294.24 83.952C294.24 83.2693 294.037 82.752 293.632 82.4C293.237 82.0373 292.608 81.856 291.744 81.856H288.768V86.048ZM287.248 80.576H292.256C293.408 80.576 294.277 80.8747 294.864 81.472C295.461 82.0587 295.76 82.8853 295.76 83.952C295.76 85.0187 295.461 85.8507 294.864 86.448C294.277 87.0453 293.408 87.3387 292.256 87.328H288.768V92H287.248V80.576ZM304.927 91.968C304.692 92.1067 304.367 92.176 303.951 92.176C303.599 92.176 303.316 92.08 303.103 91.888C302.9 91.6853 302.799 91.36 302.799 90.912C302.426 91.36 301.988 91.6853 301.487 91.888C300.996 92.08 300.463 92.176 299.887 92.176C299.514 92.176 299.156 92.1333 298.815 92.048C298.484 91.9627 298.196 91.8293 297.951 91.648C297.706 91.4667 297.508 91.232 297.359 90.944C297.22 90.6453 297.151 90.288 297.151 89.872C297.151 89.4027 297.231 89.0187 297.391 88.72C297.551 88.4213 297.759 88.1813 298.015 88C298.282 87.808 298.58 87.664 298.911 87.568C299.252 87.472 299.599 87.392 299.951 87.328C300.324 87.2533 300.676 87.2 301.007 87.168C301.348 87.1253 301.647 87.072 301.903 87.008C302.159 86.9333 302.362 86.832 302.511 86.704C302.66 86.5653 302.735 86.368 302.735 86.112C302.735 85.8133 302.676 85.5733 302.559 85.392C302.452 85.2107 302.308 85.072 302.127 84.976C301.956 84.88 301.759 84.816 301.535 84.784C301.322 84.752 301.108 84.736 300.895 84.736C300.319 84.736 299.839 84.848 299.455 85.072C299.071 85.2853 298.863 85.696 298.831 86.304H297.471C297.492 85.792 297.599 85.36 297.791 85.008C297.983 84.656 298.239 84.3733 298.559 84.16C298.879 83.936 299.242 83.776 299.647 83.68C300.063 83.584 300.506 83.536 300.975 83.536C301.348 83.536 301.716 83.5627 302.079 83.616C302.452 83.6693 302.788 83.7813 303.087 83.952C303.386 84.112 303.626 84.3413 303.807 84.64C303.988 84.9387 304.079 85.328 304.079 85.808V90.064C304.079 90.384 304.095 90.6187 304.127 90.768C304.17 90.9173 304.298 90.992 304.511 90.992C304.628 90.992 304.767 90.9653 304.927 90.912V91.968ZM302.719 87.728C302.548 87.856 302.324 87.952 302.047 88.016C301.77 88.0693 301.476 88.1173 301.167 88.16C300.868 88.192 300.564 88.2347 300.255 88.288C299.946 88.3307 299.668 88.4053 299.423 88.512C299.178 88.6187 298.975 88.7733 298.815 88.976C298.666 89.168 298.591 89.4347 298.591 89.776C298.591 90 298.634 90.192 298.719 90.352C298.815 90.5013 298.932 90.624 299.071 90.72C299.22 90.816 299.391 90.8853 299.583 90.928C299.775 90.9707 299.978 90.992 300.191 90.992C300.639 90.992 301.023 90.9333 301.343 90.816C301.663 90.688 301.924 90.5333 302.127 90.352C302.33 90.16 302.479 89.9573 302.575 89.744C302.671 89.52 302.719 89.312 302.719 89.12V87.728ZM307.225 89.392C307.235 89.6907 307.305 89.9467 307.433 90.16C307.561 90.3627 307.726 90.528 307.929 90.656C308.142 90.7733 308.377 90.8587 308.633 90.912C308.899 90.9653 309.171 90.992 309.449 90.992C309.662 90.992 309.886 90.976 310.121 90.944C310.355 90.912 310.569 90.8533 310.761 90.768C310.963 90.6827 311.129 90.56 311.257 90.4C311.385 90.2293 311.449 90.016 311.449 89.76C311.449 89.408 311.315 89.1413 311.049 88.96C310.782 88.7787 310.446 88.6347 310.041 88.528C309.646 88.4107 309.214 88.3093 308.745 88.224C308.275 88.128 307.838 88 307.433 87.84C307.038 87.6693 306.707 87.4347 306.441 87.136C306.174 86.8373 306.041 86.4213 306.041 85.888C306.041 85.472 306.131 85.1147 306.313 84.816C306.505 84.5173 306.745 84.2773 307.033 84.096C307.331 83.904 307.662 83.7653 308.025 83.68C308.398 83.584 308.766 83.536 309.129 83.536C309.598 83.536 310.03 83.5787 310.425 83.664C310.819 83.7387 311.166 83.8773 311.465 84.08C311.774 84.272 312.019 84.5387 312.201 84.88C312.382 85.2107 312.489 85.6267 312.521 86.128H311.161C311.139 85.8613 311.07 85.6427 310.953 85.472C310.835 85.2907 310.686 85.1467 310.505 85.04C310.323 84.9333 310.121 84.8587 309.897 84.816C309.683 84.7627 309.465 84.736 309.241 84.736C309.038 84.736 308.83 84.752 308.617 84.784C308.414 84.816 308.227 84.8747 308.057 84.96C307.886 85.0347 307.747 85.1413 307.641 85.28C307.534 85.408 307.481 85.5787 307.481 85.792C307.481 86.0267 307.561 86.224 307.721 86.384C307.891 86.5333 308.105 86.6613 308.361 86.768C308.617 86.864 308.905 86.9493 309.225 87.024C309.545 87.088 309.865 87.1573 310.185 87.232C310.526 87.3067 310.857 87.3973 311.177 87.504C311.507 87.6107 311.795 87.7547 312.041 87.936C312.297 88.1067 312.499 88.3253 312.649 88.592C312.809 88.8587 312.889 89.1893 312.889 89.584C312.889 90.0853 312.782 90.5013 312.569 90.832C312.366 91.1627 312.094 91.4293 311.753 91.632C311.422 91.8347 311.043 91.9733 310.617 92.048C310.201 92.1333 309.785 92.176 309.369 92.176C308.91 92.176 308.473 92.128 308.057 92.032C307.641 91.936 307.273 91.7813 306.953 91.568C306.633 91.344 306.377 91.056 306.185 90.704C305.993 90.3413 305.886 89.904 305.865 89.392H307.225ZM315.425 89.392C315.435 89.6907 315.505 89.9467 315.633 90.16C315.761 90.3627 315.926 90.528 316.129 90.656C316.342 90.7733 316.577 90.8587 316.833 90.912C317.099 90.9653 317.371 90.992 317.649 90.992C317.862 90.992 318.086 90.976 318.321 90.944C318.555 90.912 318.769 90.8533 318.961 90.768C319.163 90.6827 319.329 90.56 319.457 90.4C319.585 90.2293 319.649 90.016 319.649 89.76C319.649 89.408 319.515 89.1413 319.249 88.96C318.982 88.7787 318.646 88.6347 318.241 88.528C317.846 88.4107 317.414 88.3093 316.945 88.224C316.475 88.128 316.038 88 315.633 87.84C315.238 87.6693 314.907 87.4347 314.641 87.136C314.374 86.8373 314.241 86.4213 314.241 85.888C314.241 85.472 314.331 85.1147 314.513 84.816C314.705 84.5173 314.945 84.2773 315.233 84.096C315.531 83.904 315.862 83.7653 316.225 83.68C316.598 83.584 316.966 83.536 317.329 83.536C317.798 83.536 318.23 83.5787 318.625 83.664C319.019 83.7387 319.366 83.8773 319.665 84.08C319.974 84.272 320.219 84.5387 320.401 84.88C320.582 85.2107 320.689 85.6267 320.721 86.128H319.361C319.339 85.8613 319.27 85.6427 319.153 85.472C319.035 85.2907 318.886 85.1467 318.705 85.04C318.523 84.9333 318.321 84.8587 318.097 84.816C317.883 84.7627 317.665 84.736 317.441 84.736C317.238 84.736 317.03 84.752 316.817 84.784C316.614 84.816 316.427 84.8747 316.257 84.96C316.086 85.0347 315.947 85.1413 315.841 85.28C315.734 85.408 315.681 85.5787 315.681 85.792C315.681 86.0267 315.761 86.224 315.921 86.384C316.091 86.5333 316.305 86.6613 316.561 86.768C316.817 86.864 317.105 86.9493 317.425 87.024C317.745 87.088 318.065 87.1573 318.385 87.232C318.726 87.3067 319.057 87.3973 319.377 87.504C319.707 87.6107 319.995 87.7547 320.241 87.936C320.497 88.1067 320.699 88.3253 320.849 88.592C321.009 88.8587 321.089 89.1893 321.089 89.584C321.089 90.0853 320.982 90.5013 320.769 90.832C320.566 91.1627 320.294 91.4293 319.953 91.632C319.622 91.8347 319.243 91.9733 318.817 92.048C318.401 92.1333 317.985 92.176 317.569 92.176C317.11 92.176 316.673 92.128 316.257 92.032C315.841 91.936 315.473 91.7813 315.153 91.568C314.833 91.344 314.577 91.056 314.385 90.704C314.193 90.3413 314.086 89.904 314.065 89.392H315.425ZM330.985 92H329.545L327.865 85.424H327.833L326.169 92H324.697L322.041 83.728H323.545L325.417 90.496H325.449L327.113 83.728H328.601L330.329 90.496H330.361L332.217 83.728H333.625L330.985 92ZM336.11 87.872C336.11 88.3733 336.174 88.8213 336.302 89.216C336.44 89.6 336.627 89.9253 336.862 90.192C337.096 90.448 337.368 90.6453 337.678 90.784C337.998 90.9227 338.334 90.992 338.686 90.992C339.038 90.992 339.368 90.9227 339.678 90.784C339.998 90.6453 340.275 90.448 340.51 90.192C340.744 89.9253 340.926 89.6 341.054 89.216C341.192 88.8213 341.262 88.3733 341.262 87.872C341.262 87.3707 341.192 86.928 341.054 86.544C340.926 86.1493 340.744 85.8187 340.51 85.552C340.275 85.2853 339.998 85.0827 339.678 84.944C339.368 84.8053 339.038 84.736 338.686 84.736C338.334 84.736 337.998 84.8053 337.678 84.944C337.368 85.0827 337.096 85.2853 336.862 85.552C336.627 85.8187 336.44 86.1493 336.302 86.544C336.174 86.928 336.11 87.3707 336.11 87.872ZM334.67 87.872C334.67 87.264 334.755 86.6987 334.926 86.176C335.096 85.6427 335.352 85.184 335.694 84.8C336.035 84.4053 336.456 84.096 336.958 83.872C337.459 83.648 338.035 83.536 338.686 83.536C339.347 83.536 339.923 83.648 340.414 83.872C340.915 84.096 341.336 84.4053 341.678 84.8C342.019 85.184 342.275 85.6427 342.446 86.176C342.616 86.6987 342.702 87.264 342.702 87.872C342.702 88.48 342.616 89.0453 342.446 89.568C342.275 90.0907 342.019 90.5493 341.678 90.944C341.336 91.328 340.915 91.632 340.414 91.856C339.923 92.0693 339.347 92.176 338.686 92.176C338.035 92.176 337.459 92.0693 336.958 91.856C336.456 91.632 336.035 91.328 335.694 90.944C335.352 90.5493 335.096 90.0907 334.926 89.568C334.755 89.0453 334.67 88.48 334.67 87.872ZM344.457 83.728H345.737V85.472H345.769C346.1 84.8 346.505 84.304 346.985 83.984C347.465 83.664 348.073 83.5147 348.809 83.536V84.976C348.265 84.976 347.801 85.0507 347.417 85.2C347.033 85.3493 346.724 85.568 346.489 85.856C346.255 86.144 346.084 86.496 345.977 86.912C345.871 87.3173 345.817 87.7867 345.817 88.32V92H344.457V83.728ZM350.744 87.936C350.744 88.32 350.792 88.6987 350.888 89.072C350.995 89.4347 351.149 89.76 351.352 90.048C351.565 90.336 351.832 90.5653 352.152 90.736C352.483 90.9067 352.867 90.992 353.304 90.992C353.763 90.992 354.152 90.9013 354.472 90.72C354.792 90.5387 355.053 90.304 355.256 90.016C355.459 89.7173 355.603 89.3813 355.688 89.008C355.784 88.6347 355.832 88.256 355.832 87.872C355.832 87.4667 355.784 87.0773 355.688 86.704C355.592 86.32 355.437 85.984 355.224 85.696C355.021 85.408 354.755 85.1787 354.424 85.008C354.093 84.8267 353.693 84.736 353.224 84.736C352.765 84.736 352.376 84.8267 352.056 85.008C351.736 85.1893 351.48 85.4293 351.288 85.728C351.096 86.0267 350.957 86.368 350.872 86.752C350.787 87.136 350.744 87.5307 350.744 87.936ZM357.144 92H355.784V90.88H355.752C355.528 91.3387 355.176 91.6693 354.696 91.872C354.216 92.0747 353.688 92.176 353.112 92.176C352.472 92.176 351.912 92.0587 351.432 91.824C350.963 91.5893 350.568 91.2747 350.248 90.88C349.939 90.4853 349.704 90.0267 349.544 89.504C349.384 88.9813 349.304 88.4267 349.304 87.84C349.304 87.2533 349.379 86.6987 349.528 86.176C349.688 85.6533 349.923 85.2 350.232 84.816C350.552 84.4213 350.947 84.112 351.416 83.888C351.896 83.6533 352.451 83.536 353.08 83.536C353.293 83.536 353.523 83.5573 353.768 83.6C354.013 83.6427 354.259 83.7173 354.504 83.824C354.749 83.92 354.979 84.0533 355.192 84.224C355.416 84.384 355.603 84.5867 355.752 84.832H355.784V80.576H357.144V92Z" fill="black" fill-opacity="0.68"/>
<path fill-rule="evenodd" clip-rule="evenodd" d="M480.314 80.0031C480.217 80.0031 480.121 80 480.024 80C479.927 80 479.83 80.0031 479.734 80.0031C475.232 80.0031 470.676 83.1762 469.2 86C470.676 88.8237 475.184 91.9969 479.686 91.9969C479.782 91.9969 479.879 92 479.976 92C480.073 92 480.169 91.9969 480.266 91.9969C484.768 91.9969 489.324 88.8237 490.8 86C489.324 83.1762 484.816 80.0031 480.314 80.0031ZM479.967 90.32C479.112 90.32 478.277 90.0666 477.567 89.5919C476.856 89.1173 476.303 88.4426 475.976 87.6532C475.649 86.8638 475.563 85.9952 475.73 85.1572C475.897 84.3192 476.308 83.5495 476.912 82.9453C477.516 82.3411 478.286 81.9297 479.124 81.763C479.962 81.5963 480.831 81.6819 481.62 82.0088C482.409 82.3358 483.084 82.8895 483.559 83.5999C484.033 84.3104 484.287 85.1456 484.287 86C484.287 87.1457 483.832 88.2445 483.022 89.0547C482.211 89.8649 481.113 90.32 479.967 90.32ZM470.89 86.0009C471.605 85.0026 472.748 83.9829 474.08 83.1733C474.513 82.91 474.961 82.672 475.422 82.4606C474.63 83.4761 474.202 84.7276 474.205 86.0152C474.209 87.3027 474.644 88.552 475.441 89.5632C474.966 89.3466 474.505 89.1014 474.059 88.8288C472.739 88.0214 471.604 87.0017 470.89 86.0009ZM485.92 88.8268C485.454 89.11 484.972 89.3637 484.474 89.5865C485.29 88.5636 485.732 87.2935 485.729 85.9855C485.725 84.6774 485.276 83.4096 484.456 82.3908C484.967 82.6184 485.463 82.879 485.941 83.1712C487.261 83.9786 488.396 84.9985 489.11 85.9993C488.395 86.9975 487.252 88.0172 485.92 88.8268ZM482.35 84.8757C482.305 85.072 482.208 85.253 482.071 85.4008C481.934 85.5485 481.761 85.6579 481.568 85.718C481.376 85.7782 481.171 85.787 480.974 85.7437C480.777 85.7004 480.595 85.6064 480.446 85.4711C480.296 85.3357 480.185 85.1637 480.123 84.972C480.06 84.7804 480.049 84.5757 480.09 84.3783C480.131 84.1809 480.222 83.9976 480.356 83.8466C480.489 83.6956 480.66 83.5821 480.851 83.5173C480.277 83.3131 479.651 83.3141 479.078 83.52C478.504 83.7259 478.02 84.1241 477.708 84.6467C477.395 85.1693 477.274 85.784 477.363 86.3863C477.453 86.9886 477.749 87.5412 478.2 87.9501C478.651 88.3589 479.23 88.5988 479.838 88.6288C480.447 88.6588 481.046 88.4771 481.536 88.1146C482.025 87.7522 482.374 87.2313 482.522 86.6408C482.671 86.0503 482.61 85.4265 482.35 84.8757Z" fill="black"/>
<path d="M93.84 191.356H90.032V190.076H99.168V191.356H95.36V201.5H93.84V191.356ZM98.6948 193.228H99.9748V194.972H100.007C100.337 194.3 100.743 193.804 101.223 193.484C101.703 193.164 102.311 193.015 103.047 193.036V194.476C102.503 194.476 102.039 194.551 101.655 194.7C101.271 194.849 100.961 195.068 100.727 195.356C100.492 195.644 100.321 195.996 100.215 196.412C100.108 196.817 100.055 197.287 100.055 197.82V201.5H98.6948V193.228ZM110.919 201.5H109.639V200.188H109.607C109.319 200.7 108.951 201.079 108.503 201.324C108.055 201.559 107.527 201.676 106.919 201.676C106.375 201.676 105.922 201.607 105.559 201.468C105.196 201.319 104.903 201.111 104.679 200.844C104.455 200.577 104.295 200.263 104.199 199.9C104.114 199.527 104.071 199.116 104.071 198.668V193.228H105.431V198.828C105.431 199.34 105.58 199.745 105.879 200.044C106.178 200.343 106.588 200.492 107.111 200.492C107.527 200.492 107.884 200.428 108.183 200.3C108.492 200.172 108.748 199.991 108.951 199.756C109.154 199.521 109.303 199.249 109.399 198.94C109.506 198.62 109.559 198.273 109.559 197.9V193.228H110.919V201.5ZM118.706 196.572C118.684 196.252 118.61 195.948 118.482 195.66C118.364 195.372 118.199 195.127 117.986 194.924C117.783 194.711 117.538 194.545 117.25 194.428C116.972 194.3 116.663 194.236 116.322 194.236C115.97 194.236 115.65 194.3 115.362 194.428C115.084 194.545 114.844 194.711 114.642 194.924C114.439 195.137 114.279 195.388 114.162 195.676C114.044 195.953 113.975 196.252 113.954 196.572H118.706ZM120.017 198.876C119.836 199.804 119.436 200.503 118.818 200.972C118.199 201.441 117.42 201.676 116.482 201.676C115.82 201.676 115.244 201.569 114.754 201.356C114.274 201.143 113.868 200.844 113.538 200.46C113.207 200.076 112.956 199.617 112.786 199.084C112.626 198.551 112.535 197.969 112.514 197.34C112.514 196.711 112.61 196.135 112.802 195.612C112.994 195.089 113.26 194.636 113.602 194.252C113.954 193.868 114.364 193.569 114.834 193.356C115.314 193.143 115.836 193.036 116.402 193.036C117.138 193.036 117.746 193.191 118.226 193.5C118.716 193.799 119.106 194.183 119.394 194.652C119.692 195.121 119.895 195.633 120.002 196.188C120.119 196.743 120.167 197.271 120.146 197.772H113.954C113.943 198.135 113.986 198.481 114.082 198.812C114.178 199.132 114.332 199.42 114.546 199.676C114.759 199.921 115.031 200.119 115.362 200.268C115.692 200.417 116.082 200.492 116.53 200.492C117.106 200.492 117.575 200.359 117.938 200.092C118.311 199.825 118.556 199.42 118.674 198.876H120.017Z" fill="black" fill-opacity="0.68"/>
<mask id="path-7-inside-2_68467_31688" fill="white">
<path d="M270 170C270 167.791 271.791 166 274 166H506C508.209 166 510 167.791 510 170V222C510 224.209 508.209 226 506 226H274C271.791 226 270 224.209 270 222V170Z"/>
</mask>
<path d="M270 170C270 167.791 271.791 166 274 166H506C508.209 166 510 167.791 510 170V222C510 224.209 508.209 226 506 226H274C271.791 226 270 224.209 270 222V170Z" fill="black" fill-opacity="0.04"/>
<path d="M270 166H510H270ZM510 222C510 224.761 507.761 227 505 227H275C272.239 227 270 224.761 270 222C270 223.657 271.791 225 274 225H506C508.209 225 510 223.657 510 222ZM270 226V166V226ZM510 166V226V166Z" fill="black" fill-opacity="0.2" mask="url(#path-7-inside-2_68467_31688)"/>
<path d="M288.768 196.048H291.744C292.608 196.059 293.237 195.883 293.632 195.52C294.037 195.157 294.24 194.635 294.24 193.952C294.24 193.269 294.037 192.752 293.632 192.4C293.237 192.037 292.608 191.856 291.744 191.856H288.768V196.048ZM287.248 190.576H292.256C293.408 190.576 294.277 190.875 294.864 191.472C295.461 192.059 295.76 192.885 295.76 193.952C295.76 195.019 295.461 195.851 294.864 196.448C294.277 197.045 293.408 197.339 292.256 197.328H288.768V202H287.248V190.576ZM304.927 201.968C304.692 202.107 304.367 202.176 303.951 202.176C303.599 202.176 303.316 202.08 303.103 201.888C302.9 201.685 302.799 201.36 302.799 200.912C302.426 201.36 301.988 201.685 301.487 201.888C300.996 202.08 300.463 202.176 299.887 202.176C299.514 202.176 299.156 202.133 298.815 202.048C298.484 201.963 298.196 201.829 297.951 201.648C297.706 201.467 297.508 201.232 297.359 200.944C297.22 200.645 297.151 200.288 297.151 199.872C297.151 199.403 297.231 199.019 297.391 198.72C297.551 198.421 297.759 198.181 298.015 198C298.282 197.808 298.58 197.664 298.911 197.568C299.252 197.472 299.599 197.392 299.951 197.328C300.324 197.253 300.676 197.2 301.007 197.168C301.348 197.125 301.647 197.072 301.903 197.008C302.159 196.933 302.362 196.832 302.511 196.704C302.66 196.565 302.735 196.368 302.735 196.112C302.735 195.813 302.676 195.573 302.559 195.392C302.452 195.211 302.308 195.072 302.127 194.976C301.956 194.88 301.759 194.816 301.535 194.784C301.322 194.752 301.108 194.736 300.895 194.736C300.319 194.736 299.839 194.848 299.455 195.072C299.071 195.285 298.863 195.696 298.831 196.304H297.471C297.492 195.792 297.599 195.36 297.791 195.008C297.983 194.656 298.239 194.373 298.559 194.16C298.879 193.936 299.242 193.776 299.647 193.68C300.063 193.584 300.506 193.536 300.975 193.536C301.348 193.536 301.716 193.563 302.079 193.616C302.452 193.669 302.788 193.781 303.087 193.952C303.386 194.112 303.626 194.341 303.807 194.64C303.988 194.939 304.079 195.328 304.079 195.808V200.064C304.079 200.384 304.095 200.619 304.127 200.768C304.17 200.917 304.298 200.992 304.511 200.992C304.628 200.992 304.767 200.965 304.927 200.912V201.968ZM302.719 197.728C302.548 197.856 302.324 197.952 302.047 198.016C301.77 198.069 301.476 198.117 301.167 198.16C300.868 198.192 300.564 198.235 300.255 198.288C299.946 198.331 299.668 198.405 299.423 198.512C299.178 198.619 298.975 198.773 298.815 198.976C298.666 199.168 298.591 199.435 298.591 199.776C298.591 200 298.634 200.192 298.719 200.352C298.815 200.501 298.932 200.624 299.071 200.72C299.22 200.816 299.391 200.885 299.583 200.928C299.775 200.971 299.978 200.992 300.191 200.992C300.639 200.992 301.023 200.933 301.343 200.816C301.663 200.688 301.924 200.533 302.127 200.352C302.33 200.16 302.479 199.957 302.575 199.744C302.671 199.52 302.719 199.312 302.719 199.12V197.728ZM307.225 199.392C307.235 199.691 307.305 199.947 307.433 200.16C307.561 200.363 307.726 200.528 307.929 200.656C308.142 200.773 308.377 200.859 308.633 200.912C308.899 200.965 309.171 200.992 309.449 200.992C309.662 200.992 309.886 200.976 310.121 200.944C310.355 200.912 310.569 200.853 310.761 200.768C310.963 200.683 311.129 200.56 311.257 200.4C311.385 200.229 311.449 200.016 311.449 199.76C311.449 199.408 311.315 199.141 311.049 198.96C310.782 198.779 310.446 198.635 310.041 198.528C309.646 198.411 309.214 198.309 308.745 198.224C308.275 198.128 307.838 198 307.433 197.84C307.038 197.669 306.707 197.435 306.441 197.136C306.174 196.837 306.041 196.421 306.041 195.888C306.041 195.472 306.131 195.115 306.313 194.816C306.505 194.517 306.745 194.277 307.033 194.096C307.331 193.904 307.662 193.765 308.025 193.68C308.398 193.584 308.766 193.536 309.129 193.536C309.598 193.536 310.03 193.579 310.425 193.664C310.819 193.739 311.166 193.877 311.465 194.08C311.774 194.272 312.019 194.539 312.201 194.88C312.382 195.211 312.489 195.627 312.521 196.128H311.161C311.139 195.861 311.07 195.643 310.953 195.472C310.835 195.291 310.686 195.147 310.505 195.04C310.323 194.933 310.121 194.859 309.897 194.816C309.683 194.763 309.465 194.736 309.241 194.736C309.038 194.736 308.83 194.752 308.617 194.784C308.414 194.816 308.227 194.875 308.057 194.96C307.886 195.035 307.747 195.141 307.641 195.28C307.534 195.408 307.481 195.579 307.481 195.792C307.481 196.027 307.561 196.224 307.721 196.384C307.891 196.533 308.105 196.661 308.361 196.768C308.617 196.864 308.905 196.949 309.225 197.024C309.545 197.088 309.865 197.157 310.185 197.232C310.526 197.307 310.857 197.397 311.177 197.504C311.507 197.611 311.795 197.755 312.041 197.936C312.297 198.107 312.499 198.325 312.649 198.592C312.809 198.859 312.889 199.189 312.889 199.584C312.889 200.085 312.782 200.501 312.569 200.832C312.366 201.163 312.094 201.429 311.753 201.632C311.422 201.835 311.043 201.973 310.617 202.048C310.201 202.133 309.785 202.176 309.369 202.176C308.91 202.176 308.473 202.128 308.057 202.032C307.641 201.936 307.273 201.781 306.953 201.568C306.633 201.344 306.377 201.056 306.185 200.704C305.993 200.341 305.886 199.904 305.865 199.392H307.225ZM315.425 199.392C315.435 199.691 315.505 199.947 315.633 200.16C315.761 200.363 315.926 200.528 316.129 200.656C316.342 200.773 316.577 200.859 316.833 200.912C317.099 200.965 317.371 200.992 317.649 200.992C317.862 200.992 318.086 200.976 318.321 200.944C318.555 200.912 318.769 200.853 318.961 200.768C319.163 200.683 319.329 200.56 319.457 200.4C319.585 200.229 319.649 200.016 319.649 199.76C319.649 199.408 319.515 199.141 319.249 198.96C318.982 198.779 318.646 198.635 318.241 198.528C317.846 198.411 317.414 198.309 316.945 198.224C316.475 198.128 316.038 198 315.633 197.84C315.238 197.669 314.907 197.435 314.641 197.136C314.374 196.837 314.241 196.421 314.241 195.888C314.241 195.472 314.331 195.115 314.513 194.816C314.705 194.517 314.945 194.277 315.233 194.096C315.531 193.904 315.862 193.765 316.225 193.68C316.598 193.584 316.966 193.536 317.329 193.536C317.798 193.536 318.23 193.579 318.625 193.664C319.019 193.739 319.366 193.877 319.665 194.08C319.974 194.272 320.219 194.539 320.401 194.88C320.582 195.211 320.689 195.627 320.721 196.128H319.361C319.339 195.861 319.27 195.643 319.153 195.472C319.035 195.291 318.886 195.147 318.705 195.04C318.523 194.933 318.321 194.859 318.097 194.816C317.883 194.763 317.665 194.736 317.441 194.736C317.238 194.736 317.03 194.752 316.817 194.784C316.614 194.816 316.427 194.875 316.257 194.96C316.086 195.035 315.947 195.141 315.841 195.28C315.734 195.408 315.681 195.579 315.681 195.792C315.681 196.027 315.761 196.224 315.921 196.384C316.091 196.533 316.305 196.661 316.561 196.768C316.817 196.864 317.105 196.949 317.425 197.024C317.745 197.088 318.065 197.157 318.385 197.232C318.726 197.307 319.057 197.397 319.377 197.504C319.707 197.611 319.995 197.755 320.241 197.936C320.497 198.107 320.699 198.325 320.849 198.592C321.009 198.859 321.089 199.189 321.089 199.584C321.089 200.085 320.982 200.501 320.769 200.832C320.566 201.163 320.294 201.429 319.953 201.632C319.622 201.835 319.243 201.973 318.817 202.048C318.401 202.133 317.985 202.176 317.569 202.176C317.11 202.176 316.673 202.128 316.257 202.032C315.841 201.936 315.473 201.781 315.153 201.568C314.833 201.344 314.577 201.056 314.385 200.704C314.193 200.341 314.086 199.904 314.065 199.392H315.425ZM330.985 202H329.545L327.865 195.424H327.833L326.169 202H324.697L322.041 193.728H323.545L325.417 200.496H325.449L327.113 193.728H328.601L330.329 200.496H330.361L332.217 193.728H333.625L330.985 202ZM336.11 197.872C336.11 198.373 336.174 198.821 336.302 199.216C336.44 199.6 336.627 199.925 336.862 200.192C337.096 200.448 337.368 200.645 337.678 200.784C337.998 200.923 338.334 200.992 338.686 200.992C339.038 200.992 339.368 200.923 339.678 200.784C339.998 200.645 340.275 200.448 340.51 200.192C340.744 199.925 340.926 199.6 341.054 199.216C341.192 198.821 341.262 198.373 341.262 197.872C341.262 197.371 341.192 196.928 341.054 196.544C340.926 196.149 340.744 195.819 340.51 195.552C340.275 195.285 339.998 195.083 339.678 194.944C339.368 194.805 339.038 194.736 338.686 194.736C338.334 194.736 337.998 194.805 337.678 194.944C337.368 195.083 337.096 195.285 336.862 195.552C336.627 195.819 336.44 196.149 336.302 196.544C336.174 196.928 336.11 197.371 336.11 197.872ZM334.67 197.872C334.67 197.264 334.755 196.699 334.926 196.176C335.096 195.643 335.352 195.184 335.694 194.8C336.035 194.405 336.456 194.096 336.958 193.872C337.459 193.648 338.035 193.536 338.686 193.536C339.347 193.536 339.923 193.648 340.414 193.872C340.915 194.096 341.336 194.405 341.678 194.8C342.019 195.184 342.275 195.643 342.446 196.176C342.616 196.699 342.702 197.264 342.702 197.872C342.702 198.48 342.616 199.045 342.446 199.568C342.275 200.091 342.019 200.549 341.678 200.944C341.336 201.328 340.915 201.632 340.414 201.856C339.923 202.069 339.347 202.176 338.686 202.176C338.035 202.176 337.459 202.069 336.958 201.856C336.456 201.632 336.035 201.328 335.694 200.944C335.352 200.549 335.096 200.091 334.926 199.568C334.755 199.045 334.67 198.48 334.67 197.872ZM344.457 193.728H345.737V195.472H345.769C346.1 194.8 346.505 194.304 346.985 193.984C347.465 193.664 348.073 193.515 348.809 193.536V194.976C348.265 194.976 347.801 195.051 347.417 195.2C347.033 195.349 346.724 195.568 346.489 195.856C346.255 196.144 346.084 196.496 345.977 196.912C345.871 197.317 345.817 197.787 345.817 198.32V202H344.457V193.728ZM350.744 197.936C350.744 198.32 350.792 198.699 350.888 199.072C350.995 199.435 351.149 199.76 351.352 200.048C351.565 200.336 351.832 200.565 352.152 200.736C352.483 200.907 352.867 200.992 353.304 200.992C353.763 200.992 354.152 200.901 354.472 200.72C354.792 200.539 355.053 200.304 355.256 200.016C355.459 199.717 355.603 199.381 355.688 199.008C355.784 198.635 355.832 198.256 355.832 197.872C355.832 197.467 355.784 197.077 355.688 196.704C355.592 196.32 355.437 195.984 355.224 195.696C355.021 195.408 354.755 195.179 354.424 195.008C354.093 194.827 353.693 194.736 353.224 194.736C352.765 194.736 352.376 194.827 352.056 195.008C351.736 195.189 351.48 195.429 351.288 195.728C351.096 196.027 350.957 196.368 350.872 196.752C350.787 197.136 350.744 197.531 350.744 197.936ZM357.144 202H355.784V200.88H355.752C355.528 201.339 355.176 201.669 354.696 201.872C354.216 202.075 353.688 202.176 353.112 202.176C352.472 202.176 351.912 202.059 351.432 201.824C350.963 201.589 350.568 201.275 350.248 200.88C349.939 200.485 349.704 200.027 349.544 199.504C349.384 198.981 349.304 198.427 349.304 197.84C349.304 197.253 349.379 196.699 349.528 196.176C349.688 195.653 349.923 195.2 350.232 194.816C350.552 194.421 350.947 194.112 351.416 193.888C351.896 193.653 352.451 193.536 353.08 193.536C353.293 193.536 353.523 193.557 353.768 193.6C354.013 193.643 354.259 193.717 354.504 193.824C354.749 193.92 354.979 194.053 355.192 194.224C355.416 194.384 355.603 194.587 355.752 194.832H355.784V190.576H357.144V202Z" fill="black" fill-opacity="0.68"/>
<path fill-rule="evenodd" clip-rule="evenodd" d="M480.314 190.003C480.217 190.003 480.121 190 480.024 190C479.927 190 479.83 190.003 479.734 190.003C475.232 190.003 470.676 193.176 469.2 196C470.676 198.824 475.184 201.997 479.686 201.997C479.782 201.997 479.879 202 479.976 202C480.073 202 480.169 201.997 480.266 201.997C484.768 201.997 489.324 198.824 490.8 196C489.324 193.176 484.816 190.003 480.314 190.003ZM479.967 200.32C479.112 200.32 478.277 200.067 477.567 199.592C476.856 199.117 476.303 198.443 475.976 197.653C475.649 196.864 475.563 195.995 475.73 195.157C475.897 194.319 476.308 193.549 476.912 192.945C477.516 192.341 478.286 191.93 479.124 191.763C479.962 191.596 480.831 191.682 481.62 192.009C482.409 192.336 483.084 192.89 483.559 193.6C484.033 194.31 484.287 195.146 484.287 196C484.287 197.146 483.832 198.245 483.022 199.055C482.211 199.865 481.113 200.32 479.967 200.32ZM470.89 196.001C471.605 195.003 472.748 193.983 474.08 193.173C474.513 192.91 474.961 192.672 475.422 192.461C474.63 193.476 474.202 194.728 474.205 196.015C474.209 197.303 474.644 198.552 475.441 199.563C474.966 199.347 474.505 199.101 474.059 198.829C472.739 198.021 471.604 197.002 470.89 196.001ZM485.92 198.827C485.454 199.11 484.972 199.364 484.474 199.587C485.29 198.564 485.732 197.293 485.729 195.985C485.725 194.677 485.276 193.41 484.456 192.391C484.967 192.618 485.463 192.879 485.941 193.171C487.261 193.979 488.396 194.998 489.11 195.999C488.395 196.998 487.252 198.017 485.92 198.827ZM482.35 194.876C482.305 195.072 482.208 195.253 482.071 195.401C481.934 195.549 481.761 195.658 481.568 195.718C481.376 195.778 481.171 195.787 480.974 195.744C480.777 195.7 480.595 195.606 480.446 195.471C480.296 195.336 480.185 195.164 480.123 194.972C480.06 194.78 480.049 194.576 480.09 194.378C480.131 194.181 480.222 193.998 480.356 193.847C480.489 193.696 480.66 193.582 480.851 193.517C480.277 193.313 479.651 193.314 479.078 193.52C478.504 193.726 478.02 194.124 477.708 194.647C477.395 195.169 477.274 195.784 477.363 196.386C477.453 196.989 477.749 197.541 478.2 197.95C478.651 198.359 479.23 198.599 479.838 198.629C480.447 198.659 481.046 198.477 481.536 198.115C482.025 197.752 482.374 197.231 482.522 196.641C482.671 196.05 482.61 195.426 482.35 194.876Z" fill="black"/>
</svg>
