<svg width="600" height="380" viewBox="0 0 600 380" fill="none" xmlns="http://www.w3.org/2000/svg">
<rect width="600" height="380" fill="black" fill-opacity="0.04"/>
<path d="M91.248 74.076H99.136V75.356H92.768V78.988H98.704V80.268H92.768V84.22H99.184V85.5H91.248V74.076ZM100.805 77.228H102.085V78.444H102.117C102.736 77.5053 103.627 77.036 104.789 77.036C105.301 77.036 105.765 77.1427 106.181 77.356C106.597 77.5693 106.891 77.932 107.061 78.444C107.339 77.996 107.701 77.6493 108.149 77.404C108.608 77.1587 109.109 77.036 109.653 77.036C110.069 77.036 110.443 77.084 110.773 77.18C111.115 77.2653 111.403 77.404 111.637 77.596C111.883 77.788 112.069 78.0387 112.197 78.348C112.336 78.6467 112.405 79.0093 112.405 79.436V85.5H111.045V80.076C111.045 79.82 111.024 79.58 110.981 79.356C110.939 79.132 110.859 78.94 110.741 78.78C110.624 78.6093 110.459 78.476 110.245 78.38C110.043 78.284 109.776 78.236 109.445 78.236C108.773 78.236 108.245 78.428 107.861 78.812C107.477 79.196 107.285 79.708 107.285 80.348V85.5H105.925V80.076C105.925 79.8093 105.899 79.564 105.845 79.34C105.803 79.116 105.723 78.924 105.605 78.764C105.488 78.5933 105.328 78.4653 105.125 78.38C104.933 78.284 104.683 78.236 104.373 78.236C103.979 78.236 103.637 78.316 103.349 78.476C103.072 78.636 102.843 78.828 102.661 79.052C102.491 79.276 102.363 79.5107 102.277 79.756C102.203 79.9907 102.165 80.188 102.165 80.348V85.5H100.805V77.228ZM114.494 77.228H115.854V78.348H115.886C116.11 77.8893 116.462 77.5587 116.942 77.356C117.422 77.1427 117.95 77.036 118.526 77.036C119.166 77.036 119.721 77.1533 120.19 77.388C120.67 77.6227 121.065 77.9427 121.374 78.348C121.694 78.7427 121.934 79.2013 122.094 79.724C122.254 80.2467 122.334 80.8013 122.334 81.388C122.334 81.9747 122.254 82.5293 122.094 83.052C121.945 83.5747 121.71 84.0333 121.39 84.428C121.081 84.812 120.686 85.116 120.206 85.34C119.737 85.564 119.187 85.676 118.558 85.676C118.355 85.676 118.126 85.6547 117.87 85.612C117.625 85.5693 117.379 85.5 117.134 85.404C116.889 85.308 116.654 85.18 116.43 85.02C116.217 84.8493 116.035 84.6413 115.886 84.396H115.854V88.652H114.494V77.228ZM120.894 81.292C120.894 80.908 120.841 80.5347 120.734 80.172C120.638 79.7987 120.483 79.468 120.27 79.18C120.067 78.892 119.801 78.6627 119.47 78.492C119.15 78.3213 118.771 78.236 118.334 78.236C117.875 78.236 117.486 78.3267 117.166 78.508C116.846 78.6893 116.585 78.9293 116.382 79.228C116.179 79.516 116.03 79.8467 115.934 80.22C115.849 80.5933 115.806 80.972 115.806 81.356C115.806 81.7613 115.854 82.156 115.95 82.54C116.046 82.9133 116.195 83.244 116.398 83.532C116.611 83.82 116.883 84.0547 117.214 84.236C117.545 84.4067 117.945 84.492 118.414 84.492C118.883 84.492 119.273 84.4013 119.582 84.22C119.902 84.0387 120.158 83.7987 120.35 83.5C120.542 83.2013 120.681 82.86 120.766 82.476C120.851 82.092 120.894 81.6973 120.894 81.292ZM125.818 77.228H127.466V78.428H125.818V83.564C125.818 83.724 125.829 83.852 125.85 83.948C125.882 84.044 125.936 84.1187 126.01 84.172C126.085 84.2253 126.186 84.2627 126.314 84.284C126.453 84.2947 126.629 84.3 126.842 84.3H127.466V85.5H126.426C126.074 85.5 125.77 85.4787 125.514 85.436C125.269 85.3827 125.066 85.292 124.906 85.164C124.757 85.036 124.645 84.8547 124.57 84.62C124.496 84.3853 124.458 84.076 124.458 83.692V78.428H123.05V77.228H124.458V74.748H125.818V77.228ZM132.225 86.604C132.065 87.0093 131.905 87.3507 131.745 87.628C131.596 87.9053 131.425 88.1293 131.233 88.3C131.052 88.4813 130.844 88.6093 130.609 88.684C130.385 88.7693 130.124 88.812 129.825 88.812C129.665 88.812 129.505 88.8013 129.345 88.78C129.185 88.7587 129.03 88.7213 128.881 88.668V87.42C128.998 87.4733 129.132 87.516 129.281 87.548C129.441 87.5907 129.574 87.612 129.681 87.612C129.958 87.612 130.188 87.5427 130.369 87.404C130.561 87.276 130.705 87.0893 130.801 86.844L131.361 85.452L128.081 77.228H129.617L132.033 83.996H132.065L134.385 77.228H135.825L132.225 86.604Z" fill="black" fill-opacity="0.68"/>
<mask id="path-2-inside-1_68467_31704" fill="white">
<path d="M270 50H510V110H270V50Z"/>
</mask>
<path d="M270 50H510V110H270V50Z" fill="black" fill-opacity="0.04"/>
<path d="M510 110V109H270V110V111H510V110Z" fill="black" fill-opacity="0.2" mask="url(#path-2-inside-1_68467_31704)"/>
<path d="M288.768 80.048H291.744C292.608 80.0587 293.237 79.8827 293.632 79.52C294.037 79.1573 294.24 78.6347 294.24 77.952C294.24 77.2693 294.037 76.752 293.632 76.4C293.237 76.0373 292.608 75.856 291.744 75.856H288.768V80.048ZM287.248 74.576H292.256C293.408 74.576 294.277 74.8747 294.864 75.472C295.461 76.0587 295.76 76.8853 295.76 77.952C295.76 79.0187 295.461 79.8507 294.864 80.448C294.277 81.0453 293.408 81.3387 292.256 81.328H288.768V86H287.248V74.576ZM304.927 85.968C304.692 86.1067 304.367 86.176 303.951 86.176C303.599 86.176 303.316 86.08 303.103 85.888C302.9 85.6853 302.799 85.36 302.799 84.912C302.426 85.36 301.988 85.6853 301.487 85.888C300.996 86.08 300.463 86.176 299.887 86.176C299.514 86.176 299.156 86.1333 298.815 86.048C298.484 85.9627 298.196 85.8293 297.951 85.648C297.706 85.4667 297.508 85.232 297.359 84.944C297.22 84.6453 297.151 84.288 297.151 83.872C297.151 83.4027 297.231 83.0187 297.391 82.72C297.551 82.4213 297.759 82.1813 298.015 82C298.282 81.808 298.58 81.664 298.911 81.568C299.252 81.472 299.599 81.392 299.951 81.328C300.324 81.2533 300.676 81.2 301.007 81.168C301.348 81.1253 301.647 81.072 301.903 81.008C302.159 80.9333 302.362 80.832 302.511 80.704C302.66 80.5653 302.735 80.368 302.735 80.112C302.735 79.8133 302.676 79.5733 302.559 79.392C302.452 79.2107 302.308 79.072 302.127 78.976C301.956 78.88 301.759 78.816 301.535 78.784C301.322 78.752 301.108 78.736 300.895 78.736C300.319 78.736 299.839 78.848 299.455 79.072C299.071 79.2853 298.863 79.696 298.831 80.304H297.471C297.492 79.792 297.599 79.36 297.791 79.008C297.983 78.656 298.239 78.3733 298.559 78.16C298.879 77.936 299.242 77.776 299.647 77.68C300.063 77.584 300.506 77.536 300.975 77.536C301.348 77.536 301.716 77.5627 302.079 77.616C302.452 77.6693 302.788 77.7813 303.087 77.952C303.386 78.112 303.626 78.3413 303.807 78.64C303.988 78.9387 304.079 79.328 304.079 79.808V84.064C304.079 84.384 304.095 84.6187 304.127 84.768C304.17 84.9173 304.298 84.992 304.511 84.992C304.628 84.992 304.767 84.9653 304.927 84.912V85.968ZM302.719 81.728C302.548 81.856 302.324 81.952 302.047 82.016C301.77 82.0693 301.476 82.1173 301.167 82.16C300.868 82.192 300.564 82.2347 300.255 82.288C299.946 82.3307 299.668 82.4053 299.423 82.512C299.178 82.6187 298.975 82.7733 298.815 82.976C298.666 83.168 298.591 83.4347 298.591 83.776C298.591 84 298.634 84.192 298.719 84.352C298.815 84.5013 298.932 84.624 299.071 84.72C299.22 84.816 299.391 84.8853 299.583 84.928C299.775 84.9707 299.978 84.992 300.191 84.992C300.639 84.992 301.023 84.9333 301.343 84.816C301.663 84.688 301.924 84.5333 302.127 84.352C302.33 84.16 302.479 83.9573 302.575 83.744C302.671 83.52 302.719 83.312 302.719 83.12V81.728ZM307.225 83.392C307.235 83.6907 307.305 83.9467 307.433 84.16C307.561 84.3627 307.726 84.528 307.929 84.656C308.142 84.7733 308.377 84.8587 308.633 84.912C308.899 84.9653 309.171 84.992 309.449 84.992C309.662 84.992 309.886 84.976 310.121 84.944C310.355 84.912 310.569 84.8533 310.761 84.768C310.963 84.6827 311.129 84.56 311.257 84.4C311.385 84.2293 311.449 84.016 311.449 83.76C311.449 83.408 311.315 83.1413 311.049 82.96C310.782 82.7787 310.446 82.6347 310.041 82.528C309.646 82.4107 309.214 82.3093 308.745 82.224C308.275 82.128 307.838 82 307.433 81.84C307.038 81.6693 306.707 81.4347 306.441 81.136C306.174 80.8373 306.041 80.4213 306.041 79.888C306.041 79.472 306.131 79.1147 306.313 78.816C306.505 78.5173 306.745 78.2773 307.033 78.096C307.331 77.904 307.662 77.7653 308.025 77.68C308.398 77.584 308.766 77.536 309.129 77.536C309.598 77.536 310.03 77.5787 310.425 77.664C310.819 77.7387 311.166 77.8773 311.465 78.08C311.774 78.272 312.019 78.5387 312.201 78.88C312.382 79.2107 312.489 79.6267 312.521 80.128H311.161C311.139 79.8613 311.07 79.6427 310.953 79.472C310.835 79.2907 310.686 79.1467 310.505 79.04C310.323 78.9333 310.121 78.8587 309.897 78.816C309.683 78.7627 309.465 78.736 309.241 78.736C309.038 78.736 308.83 78.752 308.617 78.784C308.414 78.816 308.227 78.8747 308.057 78.96C307.886 79.0347 307.747 79.1413 307.641 79.28C307.534 79.408 307.481 79.5787 307.481 79.792C307.481 80.0267 307.561 80.224 307.721 80.384C307.891 80.5333 308.105 80.6613 308.361 80.768C308.617 80.864 308.905 80.9493 309.225 81.024C309.545 81.088 309.865 81.1573 310.185 81.232C310.526 81.3067 310.857 81.3973 311.177 81.504C311.507 81.6107 311.795 81.7547 312.041 81.936C312.297 82.1067 312.499 82.3253 312.649 82.592C312.809 82.8587 312.889 83.1893 312.889 83.584C312.889 84.0853 312.782 84.5013 312.569 84.832C312.366 85.1627 312.094 85.4293 311.753 85.632C311.422 85.8347 311.043 85.9733 310.617 86.048C310.201 86.1333 309.785 86.176 309.369 86.176C308.91 86.176 308.473 86.128 308.057 86.032C307.641 85.936 307.273 85.7813 306.953 85.568C306.633 85.344 306.377 85.056 306.185 84.704C305.993 84.3413 305.886 83.904 305.865 83.392H307.225ZM315.425 83.392C315.435 83.6907 315.505 83.9467 315.633 84.16C315.761 84.3627 315.926 84.528 316.129 84.656C316.342 84.7733 316.577 84.8587 316.833 84.912C317.099 84.9653 317.371 84.992 317.649 84.992C317.862 84.992 318.086 84.976 318.321 84.944C318.555 84.912 318.769 84.8533 318.961 84.768C319.163 84.6827 319.329 84.56 319.457 84.4C319.585 84.2293 319.649 84.016 319.649 83.76C319.649 83.408 319.515 83.1413 319.249 82.96C318.982 82.7787 318.646 82.6347 318.241 82.528C317.846 82.4107 317.414 82.3093 316.945 82.224C316.475 82.128 316.038 82 315.633 81.84C315.238 81.6693 314.907 81.4347 314.641 81.136C314.374 80.8373 314.241 80.4213 314.241 79.888C314.241 79.472 314.331 79.1147 314.513 78.816C314.705 78.5173 314.945 78.2773 315.233 78.096C315.531 77.904 315.862 77.7653 316.225 77.68C316.598 77.584 316.966 77.536 317.329 77.536C317.798 77.536 318.23 77.5787 318.625 77.664C319.019 77.7387 319.366 77.8773 319.665 78.08C319.974 78.272 320.219 78.5387 320.401 78.88C320.582 79.2107 320.689 79.6267 320.721 80.128H319.361C319.339 79.8613 319.27 79.6427 319.153 79.472C319.035 79.2907 318.886 79.1467 318.705 79.04C318.523 78.9333 318.321 78.8587 318.097 78.816C317.883 78.7627 317.665 78.736 317.441 78.736C317.238 78.736 317.03 78.752 316.817 78.784C316.614 78.816 316.427 78.8747 316.257 78.96C316.086 79.0347 315.947 79.1413 315.841 79.28C315.734 79.408 315.681 79.5787 315.681 79.792C315.681 80.0267 315.761 80.224 315.921 80.384C316.091 80.5333 316.305 80.6613 316.561 80.768C316.817 80.864 317.105 80.9493 317.425 81.024C317.745 81.088 318.065 81.1573 318.385 81.232C318.726 81.3067 319.057 81.3973 319.377 81.504C319.707 81.6107 319.995 81.7547 320.241 81.936C320.497 82.1067 320.699 82.3253 320.849 82.592C321.009 82.8587 321.089 83.1893 321.089 83.584C321.089 84.0853 320.982 84.5013 320.769 84.832C320.566 85.1627 320.294 85.4293 319.953 85.632C319.622 85.8347 319.243 85.9733 318.817 86.048C318.401 86.1333 317.985 86.176 317.569 86.176C317.11 86.176 316.673 86.128 316.257 86.032C315.841 85.936 315.473 85.7813 315.153 85.568C314.833 85.344 314.577 85.056 314.385 84.704C314.193 84.3413 314.086 83.904 314.065 83.392H315.425ZM330.985 86H329.545L327.865 79.424H327.833L326.169 86H324.697L322.041 77.728H323.545L325.417 84.496H325.449L327.113 77.728H328.601L330.329 84.496H330.361L332.217 77.728H333.625L330.985 86ZM336.11 81.872C336.11 82.3733 336.174 82.8213 336.302 83.216C336.44 83.6 336.627 83.9253 336.862 84.192C337.096 84.448 337.368 84.6453 337.678 84.784C337.998 84.9227 338.334 84.992 338.686 84.992C339.038 84.992 339.368 84.9227 339.678 84.784C339.998 84.6453 340.275 84.448 340.51 84.192C340.744 83.9253 340.926 83.6 341.054 83.216C341.192 82.8213 341.262 82.3733 341.262 81.872C341.262 81.3707 341.192 80.928 341.054 80.544C340.926 80.1493 340.744 79.8187 340.51 79.552C340.275 79.2853 339.998 79.0827 339.678 78.944C339.368 78.8053 339.038 78.736 338.686 78.736C338.334 78.736 337.998 78.8053 337.678 78.944C337.368 79.0827 337.096 79.2853 336.862 79.552C336.627 79.8187 336.44 80.1493 336.302 80.544C336.174 80.928 336.11 81.3707 336.11 81.872ZM334.67 81.872C334.67 81.264 334.755 80.6987 334.926 80.176C335.096 79.6427 335.352 79.184 335.694 78.8C336.035 78.4053 336.456 78.096 336.958 77.872C337.459 77.648 338.035 77.536 338.686 77.536C339.347 77.536 339.923 77.648 340.414 77.872C340.915 78.096 341.336 78.4053 341.678 78.8C342.019 79.184 342.275 79.6427 342.446 80.176C342.616 80.6987 342.702 81.264 342.702 81.872C342.702 82.48 342.616 83.0453 342.446 83.568C342.275 84.0907 342.019 84.5493 341.678 84.944C341.336 85.328 340.915 85.632 340.414 85.856C339.923 86.0693 339.347 86.176 338.686 86.176C338.035 86.176 337.459 86.0693 336.958 85.856C336.456 85.632 336.035 85.328 335.694 84.944C335.352 84.5493 335.096 84.0907 334.926 83.568C334.755 83.0453 334.67 82.48 334.67 81.872ZM344.457 77.728H345.737V79.472H345.769C346.1 78.8 346.505 78.304 346.985 77.984C347.465 77.664 348.073 77.5147 348.809 77.536V78.976C348.265 78.976 347.801 79.0507 347.417 79.2C347.033 79.3493 346.724 79.568 346.489 79.856C346.255 80.144 346.084 80.496 345.977 80.912C345.871 81.3173 345.817 81.7867 345.817 82.32V86H344.457V77.728ZM350.744 81.936C350.744 82.32 350.792 82.6987 350.888 83.072C350.995 83.4347 351.149 83.76 351.352 84.048C351.565 84.336 351.832 84.5653 352.152 84.736C352.483 84.9067 352.867 84.992 353.304 84.992C353.763 84.992 354.152 84.9013 354.472 84.72C354.792 84.5387 355.053 84.304 355.256 84.016C355.459 83.7173 355.603 83.3813 355.688 83.008C355.784 82.6347 355.832 82.256 355.832 81.872C355.832 81.4667 355.784 81.0773 355.688 80.704C355.592 80.32 355.437 79.984 355.224 79.696C355.021 79.408 354.755 79.1787 354.424 79.008C354.093 78.8267 353.693 78.736 353.224 78.736C352.765 78.736 352.376 78.8267 352.056 79.008C351.736 79.1893 351.48 79.4293 351.288 79.728C351.096 80.0267 350.957 80.368 350.872 80.752C350.787 81.136 350.744 81.5307 350.744 81.936ZM357.144 86H355.784V84.88H355.752C355.528 85.3387 355.176 85.6693 354.696 85.872C354.216 86.0747 353.688 86.176 353.112 86.176C352.472 86.176 351.912 86.0587 351.432 85.824C350.963 85.5893 350.568 85.2747 350.248 84.88C349.939 84.4853 349.704 84.0267 349.544 83.504C349.384 82.9813 349.304 82.4267 349.304 81.84C349.304 81.2533 349.379 80.6987 349.528 80.176C349.688 79.6533 349.923 79.2 350.232 78.816C350.552 78.4213 350.947 78.112 351.416 77.888C351.896 77.6533 352.451 77.536 353.08 77.536C353.293 77.536 353.523 77.5573 353.768 77.6C354.013 77.6427 354.259 77.7173 354.504 77.824C354.749 77.92 354.979 78.0533 355.192 78.224C355.416 78.384 355.603 78.5867 355.752 78.832H355.784V74.576H357.144V86Z" fill="black" fill-opacity="0.68"/>
<path fill-rule="evenodd" clip-rule="evenodd" d="M480.314 74.0031C480.217 74.0031 480.121 74 480.024 74C479.927 74 479.83 74.0031 479.734 74.0031C475.232 74.0031 470.676 77.1762 469.2 80C470.676 82.8237 475.184 85.9969 479.686 85.9969C479.782 85.9969 479.879 86 479.976 86C480.073 86 480.169 85.9969 480.266 85.9969C484.768 85.9969 489.324 82.8237 490.8 80C489.324 77.1762 484.816 74.0031 480.314 74.0031ZM479.967 84.32C479.112 84.32 478.277 84.0666 477.567 83.5919C476.856 83.1173 476.303 82.4426 475.976 81.6532C475.649 80.8638 475.563 79.9952 475.73 79.1572C475.897 78.3192 476.308 77.5495 476.912 76.9453C477.516 76.3411 478.286 75.9297 479.124 75.763C479.962 75.5963 480.831 75.6819 481.62 76.0088C482.409 76.3358 483.084 76.8895 483.559 77.5999C484.033 78.3104 484.287 79.1456 484.287 80C484.287 81.1457 483.832 82.2445 483.022 83.0547C482.211 83.8649 481.113 84.32 479.967 84.32ZM470.89 80.0009C471.605 79.0026 472.748 77.9829 474.08 77.1733C474.513 76.91 474.961 76.672 475.422 76.4606C474.63 77.4761 474.202 78.7276 474.205 80.0152C474.209 81.3027 474.644 82.552 475.441 83.5632C474.966 83.3466 474.505 83.1014 474.059 82.8288C472.739 82.0214 471.604 81.0017 470.89 80.0009ZM485.92 82.8268C485.454 83.11 484.972 83.3637 484.474 83.5865C485.29 82.5636 485.732 81.2935 485.729 79.9855C485.725 78.6774 485.276 77.4096 484.456 76.3908C484.967 76.6184 485.463 76.879 485.941 77.1712C487.261 77.9786 488.396 78.9985 489.11 79.9993C488.395 80.9975 487.252 82.0172 485.92 82.8268ZM482.35 78.8757C482.305 79.072 482.208 79.253 482.071 79.4008C481.934 79.5485 481.761 79.6579 481.568 79.718C481.376 79.7782 481.171 79.787 480.974 79.7437C480.777 79.7004 480.595 79.6064 480.446 79.4711C480.296 79.3357 480.185 79.1637 480.123 78.972C480.06 78.7804 480.049 78.5757 480.09 78.3783C480.131 78.1809 480.222 77.9976 480.356 77.8466C480.489 77.6956 480.66 77.5821 480.851 77.5173C480.277 77.3131 479.651 77.3141 479.078 77.52C478.504 77.7259 478.02 78.1241 477.708 78.6467C477.395 79.1693 477.274 79.784 477.363 80.3863C477.453 80.9886 477.749 81.5412 478.2 81.9501C478.651 82.3589 479.23 82.5988 479.838 82.6288C480.447 82.6588 481.046 82.4771 481.536 82.1146C482.025 81.7522 482.374 81.2313 482.522 80.6408C482.671 80.0503 482.61 79.4265 482.35 78.8757Z" fill="black"/>
<path d="M91.248 184.076H99.136V185.356H92.768V188.988H98.704V190.268H92.768V194.22H99.184V195.5H91.248V184.076ZM100.805 187.228H102.085V188.444H102.117C102.736 187.505 103.627 187.036 104.789 187.036C105.301 187.036 105.765 187.143 106.181 187.356C106.597 187.569 106.891 187.932 107.061 188.444C107.339 187.996 107.701 187.649 108.149 187.404C108.608 187.159 109.109 187.036 109.653 187.036C110.069 187.036 110.443 187.084 110.773 187.18C111.115 187.265 111.403 187.404 111.637 187.596C111.883 187.788 112.069 188.039 112.197 188.348C112.336 188.647 112.405 189.009 112.405 189.436V195.5H111.045V190.076C111.045 189.82 111.024 189.58 110.981 189.356C110.939 189.132 110.859 188.94 110.741 188.78C110.624 188.609 110.459 188.476 110.245 188.38C110.043 188.284 109.776 188.236 109.445 188.236C108.773 188.236 108.245 188.428 107.861 188.812C107.477 189.196 107.285 189.708 107.285 190.348V195.5H105.925V190.076C105.925 189.809 105.899 189.564 105.845 189.34C105.803 189.116 105.723 188.924 105.605 188.764C105.488 188.593 105.328 188.465 105.125 188.38C104.933 188.284 104.683 188.236 104.373 188.236C103.979 188.236 103.637 188.316 103.349 188.476C103.072 188.636 102.843 188.828 102.661 189.052C102.491 189.276 102.363 189.511 102.277 189.756C102.203 189.991 102.165 190.188 102.165 190.348V195.5H100.805V187.228ZM114.494 187.228H115.854V188.348H115.886C116.11 187.889 116.462 187.559 116.942 187.356C117.422 187.143 117.95 187.036 118.526 187.036C119.166 187.036 119.721 187.153 120.19 187.388C120.67 187.623 121.065 187.943 121.374 188.348C121.694 188.743 121.934 189.201 122.094 189.724C122.254 190.247 122.334 190.801 122.334 191.388C122.334 191.975 122.254 192.529 122.094 193.052C121.945 193.575 121.71 194.033 121.39 194.428C121.081 194.812 120.686 195.116 120.206 195.34C119.737 195.564 119.187 195.676 118.558 195.676C118.355 195.676 118.126 195.655 117.87 195.612C117.625 195.569 117.379 195.5 117.134 195.404C116.889 195.308 116.654 195.18 116.43 195.02C116.217 194.849 116.035 194.641 115.886 194.396H115.854V198.652H114.494V187.228ZM120.894 191.292C120.894 190.908 120.841 190.535 120.734 190.172C120.638 189.799 120.483 189.468 120.27 189.18C120.067 188.892 119.801 188.663 119.47 188.492C119.15 188.321 118.771 188.236 118.334 188.236C117.875 188.236 117.486 188.327 117.166 188.508C116.846 188.689 116.585 188.929 116.382 189.228C116.179 189.516 116.03 189.847 115.934 190.22C115.849 190.593 115.806 190.972 115.806 191.356C115.806 191.761 115.854 192.156 115.95 192.54C116.046 192.913 116.195 193.244 116.398 193.532C116.611 193.82 116.883 194.055 117.214 194.236C117.545 194.407 117.945 194.492 118.414 194.492C118.883 194.492 119.273 194.401 119.582 194.22C119.902 194.039 120.158 193.799 120.35 193.5C120.542 193.201 120.681 192.86 120.766 192.476C120.851 192.092 120.894 191.697 120.894 191.292ZM125.818 187.228H127.466V188.428H125.818V193.564C125.818 193.724 125.829 193.852 125.85 193.948C125.882 194.044 125.936 194.119 126.01 194.172C126.085 194.225 126.186 194.263 126.314 194.284C126.453 194.295 126.629 194.3 126.842 194.3H127.466V195.5H126.426C126.074 195.5 125.77 195.479 125.514 195.436C125.269 195.383 125.066 195.292 124.906 195.164C124.757 195.036 124.645 194.855 124.57 194.62C124.496 194.385 124.458 194.076 124.458 193.692V188.428H123.05V187.228H124.458V184.748H125.818V187.228ZM132.225 196.604C132.065 197.009 131.905 197.351 131.745 197.628C131.596 197.905 131.425 198.129 131.233 198.3C131.052 198.481 130.844 198.609 130.609 198.684C130.385 198.769 130.124 198.812 129.825 198.812C129.665 198.812 129.505 198.801 129.345 198.78C129.185 198.759 129.03 198.721 128.881 198.668V197.42C128.998 197.473 129.132 197.516 129.281 197.548C129.441 197.591 129.574 197.612 129.681 197.612C129.958 197.612 130.188 197.543 130.369 197.404C130.561 197.276 130.705 197.089 130.801 196.844L131.361 195.452L128.081 187.228H129.617L132.033 193.996H132.065L134.385 187.228H135.825L132.225 196.604ZM143.67 198.652C143.286 198.055 142.94 197.457 142.63 196.86C142.321 196.273 142.054 195.676 141.83 195.068C141.617 194.46 141.452 193.836 141.334 193.196C141.217 192.556 141.158 191.884 141.158 191.18C141.158 189.921 141.366 188.652 141.782 187.372C142.209 186.092 142.838 184.903 143.67 183.804H144.71C143.942 185.02 143.398 186.225 143.078 187.42C142.758 188.615 142.598 189.868 142.598 191.18C142.598 192.524 142.758 193.799 143.078 195.004C143.409 196.209 143.953 197.425 144.71 198.652H143.67ZM147.315 189.548H150.291C151.155 189.559 151.784 189.383 152.179 189.02C152.584 188.657 152.787 188.135 152.787 187.452C152.787 186.769 152.584 186.252 152.179 185.9C151.784 185.537 151.155 185.356 150.291 185.356H147.315V189.548ZM145.795 184.076H150.803C151.955 184.076 152.824 184.375 153.411 184.972C154.008 185.559 154.307 186.385 154.307 187.452C154.307 188.519 154.008 189.351 153.411 189.948C152.824 190.545 151.955 190.839 150.803 190.828H147.315V195.5H145.795V184.076ZM156.026 184.076H157.386V195.5H156.026V184.076ZM166.821 195.468C166.586 195.607 166.261 195.676 165.845 195.676C165.493 195.676 165.21 195.58 164.997 195.388C164.794 195.185 164.693 194.86 164.693 194.412C164.319 194.86 163.882 195.185 163.381 195.388C162.89 195.58 162.357 195.676 161.781 195.676C161.407 195.676 161.05 195.633 160.709 195.548C160.378 195.463 160.09 195.329 159.845 195.148C159.599 194.967 159.402 194.732 159.253 194.444C159.114 194.145 159.045 193.788 159.045 193.372C159.045 192.903 159.125 192.519 159.285 192.22C159.445 191.921 159.653 191.681 159.909 191.5C160.175 191.308 160.474 191.164 160.805 191.068C161.146 190.972 161.493 190.892 161.845 190.828C162.218 190.753 162.57 190.7 162.901 190.668C163.242 190.625 163.541 190.572 163.797 190.508C164.053 190.433 164.255 190.332 164.405 190.204C164.554 190.065 164.629 189.868 164.629 189.612C164.629 189.313 164.57 189.073 164.453 188.892C164.346 188.711 164.202 188.572 164.021 188.476C163.85 188.38 163.653 188.316 163.429 188.284C163.215 188.252 163.002 188.236 162.789 188.236C162.213 188.236 161.733 188.348 161.349 188.572C160.965 188.785 160.757 189.196 160.725 189.804H159.365C159.386 189.292 159.493 188.86 159.685 188.508C159.877 188.156 160.133 187.873 160.453 187.66C160.773 187.436 161.135 187.276 161.541 187.18C161.957 187.084 162.399 187.036 162.869 187.036C163.242 187.036 163.61 187.063 163.973 187.116C164.346 187.169 164.682 187.281 164.981 187.452C165.279 187.612 165.519 187.841 165.701 188.14C165.882 188.439 165.973 188.828 165.973 189.308V193.564C165.973 193.884 165.989 194.119 166.021 194.268C166.063 194.417 166.191 194.492 166.405 194.492C166.522 194.492 166.661 194.465 166.821 194.412V195.468ZM164.613 191.228C164.442 191.356 164.218 191.452 163.941 191.516C163.663 191.569 163.37 191.617 163.061 191.66C162.762 191.692 162.458 191.735 162.149 191.788C161.839 191.831 161.562 191.905 161.317 192.012C161.071 192.119 160.869 192.273 160.709 192.476C160.559 192.668 160.485 192.935 160.485 193.276C160.485 193.5 160.527 193.692 160.613 193.852C160.709 194.001 160.826 194.124 160.965 194.22C161.114 194.316 161.285 194.385 161.477 194.428C161.669 194.471 161.871 194.492 162.085 194.492C162.533 194.492 162.917 194.433 163.237 194.316C163.557 194.188 163.818 194.033 164.021 193.852C164.223 193.66 164.373 193.457 164.469 193.244C164.565 193.02 164.613 192.812 164.613 192.62V191.228ZM173.703 189.884C173.596 189.361 173.372 188.956 173.031 188.668C172.689 188.38 172.231 188.236 171.655 188.236C171.164 188.236 170.753 188.327 170.423 188.508C170.092 188.689 169.825 188.929 169.623 189.228C169.431 189.527 169.292 189.873 169.207 190.268C169.121 190.652 169.079 191.052 169.079 191.468C169.079 191.852 169.121 192.225 169.207 192.588C169.303 192.951 169.447 193.276 169.639 193.564C169.831 193.841 170.081 194.065 170.391 194.236C170.7 194.407 171.068 194.492 171.495 194.492C172.167 194.492 172.689 194.316 173.063 193.964C173.447 193.612 173.681 193.116 173.767 192.476H175.159C175.009 193.5 174.625 194.289 174.007 194.844C173.399 195.399 172.567 195.676 171.511 195.676C170.881 195.676 170.321 195.575 169.831 195.372C169.351 195.169 168.945 194.881 168.615 194.508C168.295 194.135 168.049 193.692 167.879 193.18C167.719 192.657 167.639 192.087 167.639 191.468C167.639 190.849 167.719 190.273 167.879 189.74C168.039 189.196 168.279 188.727 168.599 188.332C168.929 187.927 169.34 187.612 169.831 187.388C170.321 187.153 170.892 187.036 171.543 187.036C172.012 187.036 172.449 187.095 172.855 187.212C173.271 187.319 173.633 187.489 173.943 187.724C174.263 187.959 174.524 188.257 174.727 188.62C174.929 188.972 175.057 189.393 175.111 189.884H173.703ZM182.424 190.572C182.403 190.252 182.328 189.948 182.2 189.66C182.083 189.372 181.918 189.127 181.704 188.924C181.502 188.711 181.256 188.545 180.968 188.428C180.691 188.3 180.382 188.236 180.04 188.236C179.688 188.236 179.368 188.3 179.08 188.428C178.803 188.545 178.563 188.711 178.36 188.924C178.158 189.137 177.998 189.388 177.88 189.676C177.763 189.953 177.694 190.252 177.672 190.572H182.424ZM183.736 192.876C183.555 193.804 183.155 194.503 182.536 194.972C181.918 195.441 181.139 195.676 180.2 195.676C179.539 195.676 178.963 195.569 178.472 195.356C177.992 195.143 177.587 194.844 177.256 194.46C176.926 194.076 176.675 193.617 176.504 193.084C176.344 192.551 176.254 191.969 176.232 191.34C176.232 190.711 176.328 190.135 176.52 189.612C176.712 189.089 176.979 188.636 177.32 188.252C177.672 187.868 178.083 187.569 178.552 187.356C179.032 187.143 179.555 187.036 180.12 187.036C180.856 187.036 181.464 187.191 181.944 187.5C182.435 187.799 182.824 188.183 183.112 188.652C183.411 189.121 183.614 189.633 183.72 190.188C183.838 190.743 183.886 191.271 183.864 191.772H177.672C177.662 192.135 177.704 192.481 177.8 192.812C177.896 193.132 178.051 193.42 178.264 193.676C178.478 193.921 178.75 194.119 179.08 194.268C179.411 194.417 179.8 194.492 180.248 194.492C180.824 194.492 181.294 194.359 181.656 194.092C182.03 193.825 182.275 193.42 182.392 192.876H183.736ZM185.274 184.076H186.634V188.444H186.666C186.773 188.188 186.922 187.975 187.114 187.804C187.306 187.623 187.519 187.479 187.754 187.372C187.999 187.255 188.25 187.169 188.506 187.116C188.773 187.063 189.029 187.036 189.274 187.036C189.818 187.036 190.271 187.111 190.634 187.26C190.997 187.409 191.29 187.617 191.514 187.884C191.738 188.151 191.893 188.471 191.978 188.844C192.074 189.207 192.122 189.612 192.122 190.06V195.5H190.762V189.9C190.762 189.388 190.613 188.983 190.314 188.684C190.015 188.385 189.605 188.236 189.082 188.236C188.666 188.236 188.303 188.3 187.994 188.428C187.695 188.556 187.445 188.737 187.242 188.972C187.039 189.207 186.885 189.484 186.778 189.804C186.682 190.113 186.634 190.455 186.634 190.828V195.5H185.274V184.076ZM195.157 191.372C195.157 191.873 195.221 192.321 195.349 192.716C195.487 193.1 195.674 193.425 195.909 193.692C196.143 193.948 196.415 194.145 196.725 194.284C197.045 194.423 197.381 194.492 197.733 194.492C198.085 194.492 198.415 194.423 198.725 194.284C199.045 194.145 199.322 193.948 199.557 193.692C199.791 193.425 199.973 193.1 200.101 192.716C200.239 192.321 200.309 191.873 200.309 191.372C200.309 190.871 200.239 190.428 200.101 190.044C199.973 189.649 199.791 189.319 199.557 189.052C199.322 188.785 199.045 188.583 198.725 188.444C198.415 188.305 198.085 188.236 197.733 188.236C197.381 188.236 197.045 188.305 196.725 188.444C196.415 188.583 196.143 188.785 195.909 189.052C195.674 189.319 195.487 189.649 195.349 190.044C195.221 190.428 195.157 190.871 195.157 191.372ZM193.717 191.372C193.717 190.764 193.802 190.199 193.973 189.676C194.143 189.143 194.399 188.684 194.741 188.3C195.082 187.905 195.503 187.596 196.005 187.372C196.506 187.148 197.082 187.036 197.733 187.036C198.394 187.036 198.97 187.148 199.461 187.372C199.962 187.596 200.383 187.905 200.725 188.3C201.066 188.684 201.322 189.143 201.493 189.676C201.663 190.199 201.749 190.764 201.749 191.372C201.749 191.98 201.663 192.545 201.493 193.068C201.322 193.591 201.066 194.049 200.725 194.444C200.383 194.828 199.962 195.132 199.461 195.356C198.97 195.569 198.394 195.676 197.733 195.676C197.082 195.676 196.506 195.569 196.005 195.356C195.503 195.132 195.082 194.828 194.741 194.444C194.399 194.049 194.143 193.591 193.973 193.068C193.802 192.545 193.717 191.98 193.717 191.372ZM203.432 184.076H204.792V195.5H203.432V184.076ZM207.891 191.436C207.891 191.82 207.939 192.199 208.035 192.572C208.142 192.935 208.296 193.26 208.499 193.548C208.712 193.836 208.979 194.065 209.299 194.236C209.63 194.407 210.014 194.492 210.451 194.492C210.91 194.492 211.299 194.401 211.619 194.22C211.939 194.039 212.2 193.804 212.403 193.516C212.606 193.217 212.75 192.881 212.835 192.508C212.931 192.135 212.979 191.756 212.979 191.372C212.979 190.967 212.931 190.577 212.835 190.204C212.739 189.82 212.584 189.484 212.371 189.196C212.168 188.908 211.902 188.679 211.571 188.508C211.24 188.327 210.84 188.236 210.371 188.236C209.912 188.236 209.523 188.327 209.203 188.508C208.883 188.689 208.627 188.929 208.435 189.228C208.243 189.527 208.104 189.868 208.019 190.252C207.934 190.636 207.891 191.031 207.891 191.436ZM214.291 195.5H212.931V194.38H212.899C212.675 194.839 212.323 195.169 211.843 195.372C211.363 195.575 210.835 195.676 210.259 195.676C209.619 195.676 209.059 195.559 208.579 195.324C208.11 195.089 207.715 194.775 207.395 194.38C207.086 193.985 206.851 193.527 206.691 193.004C206.531 192.481 206.451 191.927 206.451 191.34C206.451 190.753 206.526 190.199 206.675 189.676C206.835 189.153 207.07 188.7 207.379 188.316C207.699 187.921 208.094 187.612 208.563 187.388C209.043 187.153 209.598 187.036 210.227 187.036C210.44 187.036 210.67 187.057 210.915 187.1C211.16 187.143 211.406 187.217 211.651 187.324C211.896 187.42 212.126 187.553 212.339 187.724C212.563 187.884 212.75 188.087 212.899 188.332H212.931V184.076H214.291V195.5ZM222.127 190.572C222.106 190.252 222.031 189.948 221.903 189.66C221.786 189.372 221.621 189.127 221.407 188.924C221.205 188.711 220.959 188.545 220.671 188.428C220.394 188.3 220.085 188.236 219.743 188.236C219.391 188.236 219.071 188.3 218.783 188.428C218.506 188.545 218.266 188.711 218.063 188.924C217.861 189.137 217.701 189.388 217.583 189.676C217.466 189.953 217.397 190.252 217.375 190.572H222.127ZM223.439 192.876C223.258 193.804 222.858 194.503 222.239 194.972C221.621 195.441 220.842 195.676 219.903 195.676C219.242 195.676 218.666 195.569 218.175 195.356C217.695 195.143 217.29 194.844 216.959 194.46C216.629 194.076 216.378 193.617 216.207 193.084C216.047 192.551 215.957 191.969 215.935 191.34C215.935 190.711 216.031 190.135 216.223 189.612C216.415 189.089 216.682 188.636 217.023 188.252C217.375 187.868 217.786 187.569 218.255 187.356C218.735 187.143 219.258 187.036 219.823 187.036C220.559 187.036 221.167 187.191 221.647 187.5C222.138 187.799 222.527 188.183 222.815 188.652C223.114 189.121 223.317 189.633 223.423 190.188C223.541 190.743 223.589 191.271 223.567 191.772H217.375C217.365 192.135 217.407 192.481 217.503 192.812C217.599 193.132 217.754 193.42 217.967 193.676C218.181 193.921 218.453 194.119 218.783 194.268C219.114 194.417 219.503 194.492 219.951 194.492C220.527 194.492 220.997 194.359 221.359 194.092C221.733 193.825 221.978 193.42 222.095 192.876H223.439ZM224.929 187.228H226.209V188.972H226.241C226.572 188.3 226.977 187.804 227.457 187.484C227.937 187.164 228.545 187.015 229.281 187.036V188.476C228.737 188.476 228.273 188.551 227.889 188.7C227.505 188.849 227.196 189.068 226.961 189.356C226.726 189.644 226.556 189.996 226.449 190.412C226.342 190.817 226.289 191.287 226.289 191.82V195.5H224.929V187.228ZM229.137 198.652C229.895 197.447 230.433 196.247 230.753 195.052C231.073 193.847 231.233 192.593 231.233 191.292C231.233 189.948 231.068 188.673 230.737 187.468C230.417 186.252 229.884 185.031 229.137 183.804H230.161C230.545 184.401 230.892 184.999 231.201 185.596C231.511 186.183 231.772 186.785 231.985 187.404C232.209 188.012 232.38 188.636 232.497 189.276C232.615 189.916 232.673 190.588 232.673 191.292C232.673 192.551 232.46 193.82 232.033 195.1C231.617 196.369 230.993 197.553 230.161 198.652H229.137Z" fill="black" fill-opacity="0.68"/>
<mask id="path-7-inside-2_68467_31704" fill="white">
<path d="M270 160H510V220H270V160Z"/>
</mask>
<path d="M270 160H510V220H270V160Z" fill="black" fill-opacity="0.04"/>
<path d="M510 220V219H270V220V221H510V220Z" fill="black" fill-opacity="0.2" mask="url(#path-7-inside-2_68467_31704)"/>
<path d="M288.076 177.536H290.308C290.956 177.544 291.428 177.412 291.724 177.14C292.028 176.868 292.18 176.476 292.18 175.964C292.18 175.452 292.028 175.064 291.724 174.8C291.428 174.528 290.956 174.392 290.308 174.392H288.076V177.536ZM286.936 173.432H290.692C291.556 173.432 292.208 173.656 292.648 174.104C293.096 174.544 293.32 175.164 293.32 175.964C293.32 176.764 293.096 177.388 292.648 177.836C292.208 178.284 291.556 178.504 290.692 178.496H288.076V182H286.936V173.432ZM300.225 181.976C300.049 182.08 299.805 182.132 299.493 182.132C299.229 182.132 299.017 182.06 298.857 181.916C298.705 181.764 298.629 181.52 298.629 181.184C298.349 181.52 298.021 181.764 297.645 181.916C297.277 182.06 296.877 182.132 296.445 182.132C296.165 182.132 295.897 182.1 295.641 182.036C295.393 181.972 295.177 181.872 294.993 181.736C294.809 181.6 294.661 181.424 294.549 181.208C294.445 180.984 294.393 180.716 294.393 180.404C294.393 180.052 294.453 179.764 294.573 179.54C294.693 179.316 294.849 179.136 295.041 179C295.241 178.856 295.465 178.748 295.713 178.676C295.969 178.604 296.229 178.544 296.493 178.496C296.773 178.44 297.037 178.4 297.285 178.376C297.541 178.344 297.765 178.304 297.957 178.256C298.149 178.2 298.301 178.124 298.413 178.028C298.525 177.924 298.581 177.776 298.581 177.584C298.581 177.36 298.537 177.18 298.449 177.044C298.369 176.908 298.261 176.804 298.125 176.732C297.997 176.66 297.849 176.612 297.681 176.588C297.521 176.564 297.361 176.552 297.201 176.552C296.769 176.552 296.409 176.636 296.121 176.804C295.833 176.964 295.677 177.272 295.653 177.728H294.633C294.649 177.344 294.729 177.02 294.873 176.756C295.017 176.492 295.209 176.28 295.449 176.12C295.689 175.952 295.961 175.832 296.265 175.76C296.577 175.688 296.909 175.652 297.261 175.652C297.541 175.652 297.817 175.672 298.089 175.712C298.369 175.752 298.621 175.836 298.845 175.964C299.069 176.084 299.249 176.256 299.385 176.48C299.521 176.704 299.589 176.996 299.589 177.356V180.548C299.589 180.788 299.601 180.964 299.625 181.076C299.657 181.188 299.753 181.244 299.913 181.244C300.001 181.244 300.105 181.224 300.225 181.184V181.976ZM298.569 178.796C298.441 178.892 298.273 178.964 298.065 179.012C297.857 179.052 297.637 179.088 297.405 179.12C297.181 179.144 296.953 179.176 296.721 179.216C296.489 179.248 296.281 179.304 296.097 179.384C295.913 179.464 295.761 179.58 295.641 179.732C295.529 179.876 295.473 180.076 295.473 180.332C295.473 180.5 295.505 180.644 295.569 180.764C295.641 180.876 295.729 180.968 295.833 181.04C295.945 181.112 296.073 181.164 296.217 181.196C296.361 181.228 296.513 181.244 296.673 181.244C297.009 181.244 297.297 181.2 297.537 181.112C297.777 181.016 297.973 180.9 298.125 180.764C298.277 180.62 298.389 180.468 298.461 180.308C298.533 180.14 298.569 179.984 298.569 179.84V178.796ZM301.979 180.044C301.987 180.268 302.039 180.46 302.135 180.62C302.231 180.772 302.355 180.896 302.507 180.992C302.667 181.08 302.843 181.144 303.035 181.184C303.235 181.224 303.439 181.244 303.647 181.244C303.807 181.244 303.975 181.232 304.151 181.208C304.327 181.184 304.487 181.14 304.631 181.076C304.783 181.012 304.907 180.92 305.003 180.8C305.099 180.672 305.147 180.512 305.147 180.32C305.147 180.056 305.047 179.856 304.847 179.72C304.647 179.584 304.395 179.476 304.091 179.396C303.795 179.308 303.471 179.232 303.119 179.168C302.767 179.096 302.439 179 302.135 178.88C301.839 178.752 301.591 178.576 301.391 178.352C301.191 178.128 301.091 177.816 301.091 177.416C301.091 177.104 301.159 176.836 301.295 176.612C301.439 176.388 301.619 176.208 301.835 176.072C302.059 175.928 302.307 175.824 302.579 175.76C302.859 175.688 303.135 175.652 303.407 175.652C303.759 175.652 304.083 175.684 304.379 175.748C304.675 175.804 304.935 175.908 305.159 176.06C305.391 176.204 305.575 176.404 305.711 176.66C305.847 176.908 305.927 177.22 305.951 177.596H304.931C304.915 177.396 304.863 177.232 304.775 177.104C304.687 176.968 304.575 176.86 304.439 176.78C304.303 176.7 304.151 176.644 303.983 176.612C303.823 176.572 303.659 176.552 303.491 176.552C303.339 176.552 303.183 176.564 303.023 176.588C302.871 176.612 302.731 176.656 302.603 176.72C302.475 176.776 302.371 176.856 302.291 176.96C302.211 177.056 302.171 177.184 302.171 177.344C302.171 177.52 302.231 177.668 302.351 177.788C302.479 177.9 302.639 177.996 302.831 178.076C303.023 178.148 303.239 178.212 303.479 178.268C303.719 178.316 303.959 178.368 304.199 178.424C304.455 178.48 304.703 178.548 304.943 178.628C305.191 178.708 305.407 178.816 305.591 178.952C305.783 179.08 305.935 179.244 306.047 179.444C306.167 179.644 306.227 179.892 306.227 180.188C306.227 180.564 306.147 180.876 305.987 181.124C305.835 181.372 305.631 181.572 305.375 181.724C305.127 181.876 304.843 181.98 304.523 182.036C304.211 182.1 303.899 182.132 303.587 182.132C303.243 182.132 302.915 182.096 302.603 182.024C302.291 181.952 302.015 181.836 301.775 181.676C301.535 181.508 301.343 181.292 301.199 181.028C301.055 180.756 300.975 180.428 300.959 180.044H301.979ZM308.159 180.044C308.167 180.268 308.219 180.46 308.315 180.62C308.411 180.772 308.535 180.896 308.687 180.992C308.847 181.08 309.023 181.144 309.215 181.184C309.415 181.224 309.619 181.244 309.827 181.244C309.987 181.244 310.155 181.232 310.331 181.208C310.507 181.184 310.667 181.14 310.811 181.076C310.963 181.012 311.087 180.92 311.183 180.8C311.279 180.672 311.327 180.512 311.327 180.32C311.327 180.056 311.227 179.856 311.027 179.72C310.827 179.584 310.575 179.476 310.271 179.396C309.975 179.308 309.651 179.232 309.299 179.168C308.947 179.096 308.619 179 308.315 178.88C308.019 178.752 307.771 178.576 307.571 178.352C307.371 178.128 307.271 177.816 307.271 177.416C307.271 177.104 307.339 176.836 307.475 176.612C307.619 176.388 307.799 176.208 308.015 176.072C308.239 175.928 308.487 175.824 308.759 175.76C309.039 175.688 309.315 175.652 309.587 175.652C309.939 175.652 310.263 175.684 310.559 175.748C310.855 175.804 311.115 175.908 311.339 176.06C311.571 176.204 311.755 176.404 311.891 176.66C312.027 176.908 312.107 177.22 312.131 177.596H311.111C311.095 177.396 311.043 177.232 310.955 177.104C310.867 176.968 310.755 176.86 310.619 176.78C310.483 176.7 310.331 176.644 310.163 176.612C310.003 176.572 309.839 176.552 309.671 176.552C309.519 176.552 309.363 176.564 309.203 176.588C309.051 176.612 308.911 176.656 308.783 176.72C308.655 176.776 308.551 176.856 308.471 176.96C308.391 177.056 308.351 177.184 308.351 177.344C308.351 177.52 308.411 177.668 308.531 177.788C308.659 177.9 308.819 177.996 309.011 178.076C309.203 178.148 309.419 178.212 309.659 178.268C309.899 178.316 310.139 178.368 310.379 178.424C310.635 178.48 310.883 178.548 311.123 178.628C311.371 178.708 311.587 178.816 311.771 178.952C311.963 179.08 312.115 179.244 312.227 179.444C312.347 179.644 312.407 179.892 312.407 180.188C312.407 180.564 312.327 180.876 312.167 181.124C312.015 181.372 311.811 181.572 311.555 181.724C311.307 181.876 311.023 181.98 310.703 182.036C310.391 182.1 310.079 182.132 309.767 182.132C309.423 182.132 309.095 182.096 308.783 182.024C308.471 181.952 308.195 181.836 307.955 181.676C307.715 181.508 307.523 181.292 307.379 181.028C307.235 180.756 307.155 180.428 307.139 180.044H308.159ZM319.859 182H318.779L317.519 177.068H317.495L316.247 182H315.143L313.151 175.796H314.279L315.683 180.872H315.707L316.955 175.796H318.071L319.367 180.872H319.391L320.783 175.796H321.839L319.859 182ZM323.732 178.904C323.732 179.28 323.78 179.616 323.876 179.912C323.98 180.2 324.12 180.444 324.296 180.644C324.472 180.836 324.676 180.984 324.908 181.088C325.148 181.192 325.4 181.244 325.664 181.244C325.928 181.244 326.176 181.192 326.408 181.088C326.648 180.984 326.856 180.836 327.032 180.644C327.208 180.444 327.344 180.2 327.44 179.912C327.544 179.616 327.596 179.28 327.596 178.904C327.596 178.528 327.544 178.196 327.44 177.908C327.344 177.612 327.208 177.364 327.032 177.164C326.856 176.964 326.648 176.812 326.408 176.708C326.176 176.604 325.928 176.552 325.664 176.552C325.4 176.552 325.148 176.604 324.908 176.708C324.676 176.812 324.472 176.964 324.296 177.164C324.12 177.364 323.98 177.612 323.876 177.908C323.78 178.196 323.732 178.528 323.732 178.904ZM322.652 178.904C322.652 178.448 322.716 178.024 322.844 177.632C322.972 177.232 323.164 176.888 323.42 176.6C323.676 176.304 323.992 176.072 324.368 175.904C324.744 175.736 325.176 175.652 325.664 175.652C326.16 175.652 326.592 175.736 326.96 175.904C327.336 176.072 327.652 176.304 327.908 176.6C328.164 176.888 328.356 177.232 328.484 177.632C328.612 178.024 328.676 178.448 328.676 178.904C328.676 179.36 328.612 179.784 328.484 180.176C328.356 180.568 328.164 180.912 327.908 181.208C327.652 181.496 327.336 181.724 326.96 181.892C326.592 182.052 326.16 182.132 325.664 182.132C325.176 182.132 324.744 182.052 324.368 181.892C323.992 181.724 323.676 181.496 323.42 181.208C323.164 180.912 322.972 180.568 322.844 180.176C322.716 179.784 322.652 179.36 322.652 178.904ZM330.023 175.796H330.983V177.104H331.007C331.255 176.6 331.559 176.228 331.919 175.988C332.279 175.748 332.735 175.636 333.287 175.652V176.732C332.879 176.732 332.531 176.788 332.243 176.9C331.955 177.012 331.723 177.176 331.547 177.392C331.371 177.608 331.243 177.872 331.163 178.184C331.083 178.488 331.043 178.84 331.043 179.24V182H330.023V175.796ZM334.768 178.952C334.768 179.24 334.804 179.524 334.876 179.804C334.956 180.076 335.072 180.32 335.224 180.536C335.384 180.752 335.584 180.924 335.824 181.052C336.072 181.18 336.36 181.244 336.688 181.244C337.032 181.244 337.324 181.176 337.564 181.04C337.804 180.904 338 180.728 338.152 180.512C338.304 180.288 338.412 180.036 338.476 179.756C338.548 179.476 338.584 179.192 338.584 178.904C338.584 178.6 338.548 178.308 338.476 178.028C338.404 177.74 338.288 177.488 338.128 177.272C337.976 177.056 337.776 176.884 337.528 176.756C337.28 176.62 336.98 176.552 336.628 176.552C336.284 176.552 335.992 176.62 335.752 176.756C335.512 176.892 335.32 177.072 335.176 177.296C335.032 177.52 334.928 177.776 334.864 178.064C334.8 178.352 334.768 178.648 334.768 178.952ZM339.568 182H338.548V181.16H338.524C338.356 181.504 338.092 181.752 337.732 181.904C337.372 182.056 336.976 182.132 336.544 182.132C336.064 182.132 335.644 182.044 335.284 181.868C334.932 181.692 334.636 181.456 334.396 181.16C334.164 180.864 333.988 180.52 333.868 180.128C333.748 179.736 333.688 179.32 333.688 178.88C333.688 178.44 333.744 178.024 333.856 177.632C333.976 177.24 334.152 176.9 334.384 176.612C334.624 176.316 334.92 176.084 335.272 175.916C335.632 175.74 336.048 175.652 336.52 175.652C336.68 175.652 336.852 175.668 337.036 175.7C337.22 175.732 337.404 175.788 337.588 175.868C337.772 175.94 337.944 176.04 338.104 176.168C338.272 176.288 338.412 176.44 338.524 176.624H338.548V173.432H339.568V182Z" fill="black" fill-opacity="0.68"/>
<path d="M287.28 192.576H289.36L292.96 202.176L296.576 192.576H298.656V204H297.216V194.496H297.184L293.616 204H292.32L288.752 194.496H288.72V204H287.28V192.576ZM302.602 194.24H301.241V192.576H302.602V194.24ZM301.241 195.728H302.602V204H301.241V195.728ZM304.908 195.728H306.188V197.04H306.22C306.786 196.037 307.682 195.536 308.908 195.536C309.452 195.536 309.906 195.611 310.268 195.76C310.631 195.909 310.924 196.117 311.148 196.384C311.372 196.651 311.527 196.971 311.612 197.344C311.708 197.707 311.756 198.112 311.756 198.56V204H310.396V198.4C310.396 197.888 310.247 197.483 309.948 197.184C309.65 196.885 309.239 196.736 308.716 196.736C308.3 196.736 307.938 196.8 307.628 196.928C307.33 197.056 307.079 197.237 306.876 197.472C306.674 197.707 306.519 197.984 306.412 198.304C306.316 198.613 306.268 198.955 306.268 199.328V204H304.908V195.728ZM315.439 194.24H314.079V192.576H315.439V194.24ZM314.079 195.728H315.439V204H314.079V195.728ZM317.746 195.728H319.026V196.944H319.058C319.677 196.005 320.567 195.536 321.73 195.536C322.242 195.536 322.706 195.643 323.122 195.856C323.538 196.069 323.831 196.432 324.002 196.944C324.279 196.496 324.642 196.149 325.09 195.904C325.549 195.659 326.05 195.536 326.594 195.536C327.01 195.536 327.383 195.584 327.714 195.68C328.055 195.765 328.343 195.904 328.578 196.096C328.823 196.288 329.01 196.539 329.138 196.848C329.277 197.147 329.346 197.509 329.346 197.936V204H327.986V198.576C327.986 198.32 327.965 198.08 327.922 197.856C327.879 197.632 327.799 197.44 327.682 197.28C327.565 197.109 327.399 196.976 327.186 196.88C326.983 196.784 326.717 196.736 326.386 196.736C325.714 196.736 325.186 196.928 324.802 197.312C324.418 197.696 324.226 198.208 324.226 198.848V204H322.866V198.576C322.866 198.309 322.839 198.064 322.786 197.84C322.743 197.616 322.663 197.424 322.546 197.264C322.429 197.093 322.269 196.965 322.066 196.88C321.874 196.784 321.623 196.736 321.314 196.736C320.919 196.736 320.578 196.816 320.29 196.976C320.013 197.136 319.783 197.328 319.602 197.552C319.431 197.776 319.303 198.011 319.218 198.256C319.143 198.491 319.106 198.688 319.106 198.848V204H317.746V195.728ZM338.435 204H337.155V202.688H337.123C336.835 203.2 336.467 203.579 336.019 203.824C335.571 204.059 335.043 204.176 334.435 204.176C333.891 204.176 333.437 204.107 333.075 203.968C332.712 203.819 332.419 203.611 332.195 203.344C331.971 203.077 331.811 202.763 331.715 202.4C331.629 202.027 331.587 201.616 331.587 201.168V195.728H332.947V201.328C332.947 201.84 333.096 202.245 333.395 202.544C333.693 202.843 334.104 202.992 334.627 202.992C335.043 202.992 335.4 202.928 335.699 202.8C336.008 202.672 336.264 202.491 336.467 202.256C336.669 202.021 336.819 201.749 336.915 201.44C337.021 201.12 337.075 200.773 337.075 200.4V195.728H338.435V204ZM340.677 195.728H341.957V196.944H341.989C342.608 196.005 343.498 195.536 344.661 195.536C345.173 195.536 345.637 195.643 346.053 195.856C346.469 196.069 346.762 196.432 346.933 196.944C347.21 196.496 347.573 196.149 348.021 195.904C348.48 195.659 348.981 195.536 349.525 195.536C349.941 195.536 350.314 195.584 350.645 195.68C350.986 195.765 351.274 195.904 351.509 196.096C351.754 196.288 351.941 196.539 352.069 196.848C352.208 197.147 352.277 197.509 352.277 197.936V204H350.917V198.576C350.917 198.32 350.896 198.08 350.853 197.856C350.81 197.632 350.73 197.44 350.613 197.28C350.496 197.109 350.33 196.976 350.117 196.88C349.914 196.784 349.648 196.736 349.317 196.736C348.645 196.736 348.117 196.928 347.733 197.312C347.349 197.696 347.157 198.208 347.157 198.848V204H345.797V198.576C345.797 198.309 345.77 198.064 345.717 197.84C345.674 197.616 345.594 197.424 345.477 197.264C345.36 197.093 345.2 196.965 344.997 196.88C344.805 196.784 344.554 196.736 344.245 196.736C343.85 196.736 343.509 196.816 343.221 196.976C342.944 197.136 342.714 197.328 342.533 197.552C342.362 197.776 342.234 198.011 342.149 198.256C342.074 198.491 342.037 198.688 342.037 198.848V204H340.677V195.728ZM360.627 195.6C360.627 195.909 360.68 196.181 360.787 196.416C360.894 196.64 361.038 196.827 361.219 196.976C361.4 197.125 361.614 197.237 361.859 197.312C362.104 197.387 362.366 197.424 362.643 197.424C363.187 197.424 363.635 197.264 363.987 196.944C364.339 196.624 364.515 196.176 364.515 195.6C364.515 195.024 364.334 194.592 363.971 194.304C363.619 194.005 363.166 193.856 362.611 193.856C362.344 193.856 362.088 193.893 361.843 193.968C361.598 194.043 361.384 194.155 361.203 194.304C361.032 194.453 360.894 194.635 360.787 194.848C360.68 195.061 360.627 195.312 360.627 195.6ZM359.187 195.552C359.187 195.083 359.278 194.672 359.459 194.32C359.64 193.957 359.886 193.653 360.195 193.408C360.504 193.163 360.856 192.976 361.251 192.848C361.656 192.72 362.078 192.656 362.515 192.656C363.134 192.656 363.662 192.741 364.099 192.912C364.536 193.072 364.888 193.291 365.155 193.568C365.432 193.835 365.635 194.144 365.763 194.496C365.891 194.837 365.955 195.189 365.955 195.552C365.955 196.064 365.811 196.533 365.523 196.96C365.246 197.376 364.867 197.691 364.387 197.904C365.07 198.117 365.576 198.469 365.907 198.96C366.238 199.44 366.403 200.032 366.403 200.736C366.403 201.291 366.302 201.781 366.099 202.208C365.907 202.635 365.64 202.997 365.299 203.296C364.968 203.584 364.574 203.803 364.115 203.952C363.656 204.101 363.166 204.176 362.643 204.176C362.099 204.176 361.592 204.107 361.123 203.968C360.654 203.829 360.243 203.616 359.891 203.328C359.55 203.04 359.278 202.683 359.075 202.256C358.883 201.819 358.787 201.312 358.787 200.736C358.787 200.064 358.958 199.483 359.299 198.992C359.64 198.491 360.131 198.128 360.771 197.904C360.291 197.712 359.907 197.403 359.619 196.976C359.331 196.539 359.187 196.064 359.187 195.552ZM360.227 200.8C360.227 201.483 360.451 202.021 360.899 202.416C361.358 202.8 361.939 202.992 362.643 202.992C362.984 202.992 363.294 202.939 363.571 202.832C363.859 202.715 364.104 202.56 364.307 202.368C364.52 202.165 364.68 201.931 364.787 201.664C364.904 201.397 364.963 201.104 364.963 200.784C364.963 200.475 364.899 200.192 364.771 199.936C364.654 199.669 364.488 199.44 364.275 199.248C364.062 199.056 363.811 198.907 363.523 198.8C363.246 198.683 362.947 198.624 362.627 198.624C362.296 198.624 361.982 198.677 361.683 198.784C361.395 198.88 361.139 199.024 360.915 199.216C360.702 199.408 360.531 199.637 360.403 199.904C360.286 200.171 360.227 200.469 360.227 200.8ZM378.531 198.384C378.424 197.861 378.2 197.456 377.859 197.168C377.517 196.88 377.059 196.736 376.483 196.736C375.992 196.736 375.581 196.827 375.251 197.008C374.92 197.189 374.653 197.429 374.451 197.728C374.259 198.027 374.12 198.373 374.035 198.768C373.949 199.152 373.907 199.552 373.907 199.968C373.907 200.352 373.949 200.725 374.035 201.088C374.131 201.451 374.275 201.776 374.467 202.064C374.659 202.341 374.909 202.565 375.219 202.736C375.528 202.907 375.896 202.992 376.323 202.992C376.995 202.992 377.517 202.816 377.891 202.464C378.275 202.112 378.509 201.616 378.595 200.976H379.987C379.837 202 379.453 202.789 378.835 203.344C378.227 203.899 377.395 204.176 376.339 204.176C375.709 204.176 375.149 204.075 374.659 203.872C374.179 203.669 373.773 203.381 373.443 203.008C373.123 202.635 372.877 202.192 372.707 201.68C372.547 201.157 372.467 200.587 372.467 199.968C372.467 199.349 372.547 198.773 372.707 198.24C372.867 197.696 373.107 197.227 373.427 196.832C373.757 196.427 374.168 196.112 374.659 195.888C375.149 195.653 375.72 195.536 376.371 195.536C376.84 195.536 377.277 195.595 377.683 195.712C378.099 195.819 378.461 195.989 378.771 196.224C379.091 196.459 379.352 196.757 379.555 197.12C379.757 197.472 379.885 197.893 379.939 198.384H378.531ZM381.708 192.576H383.068V196.944H383.1C383.207 196.688 383.356 196.475 383.548 196.304C383.74 196.123 383.954 195.979 384.188 195.872C384.434 195.755 384.684 195.669 384.94 195.616C385.207 195.563 385.463 195.536 385.708 195.536C386.252 195.536 386.706 195.611 387.068 195.76C387.431 195.909 387.724 196.117 387.948 196.384C388.172 196.651 388.327 196.971 388.412 197.344C388.508 197.707 388.556 198.112 388.556 198.56V204H387.196V198.4C387.196 197.888 387.047 197.483 386.748 197.184C386.45 196.885 386.039 196.736 385.516 196.736C385.1 196.736 384.738 196.8 384.428 196.928C384.13 197.056 383.879 197.237 383.676 197.472C383.474 197.707 383.319 197.984 383.212 198.304C383.116 198.613 383.068 198.955 383.068 199.328V204H381.708V192.576ZM398.127 203.968C397.892 204.107 397.567 204.176 397.151 204.176C396.799 204.176 396.516 204.08 396.303 203.888C396.1 203.685 395.999 203.36 395.999 202.912C395.626 203.36 395.188 203.685 394.687 203.888C394.196 204.08 393.663 204.176 393.087 204.176C392.714 204.176 392.356 204.133 392.015 204.048C391.684 203.963 391.396 203.829 391.151 203.648C390.906 203.467 390.708 203.232 390.559 202.944C390.42 202.645 390.351 202.288 390.351 201.872C390.351 201.403 390.431 201.019 390.591 200.72C390.751 200.421 390.959 200.181 391.215 200C391.482 199.808 391.78 199.664 392.111 199.568C392.452 199.472 392.799 199.392 393.151 199.328C393.524 199.253 393.876 199.2 394.207 199.168C394.548 199.125 394.847 199.072 395.103 199.008C395.359 198.933 395.562 198.832 395.711 198.704C395.86 198.565 395.935 198.368 395.935 198.112C395.935 197.813 395.876 197.573 395.759 197.392C395.652 197.211 395.508 197.072 395.327 196.976C395.156 196.88 394.959 196.816 394.735 196.784C394.522 196.752 394.308 196.736 394.095 196.736C393.519 196.736 393.039 196.848 392.655 197.072C392.271 197.285 392.063 197.696 392.031 198.304H390.671C390.692 197.792 390.799 197.36 390.991 197.008C391.183 196.656 391.439 196.373 391.759 196.16C392.079 195.936 392.442 195.776 392.847 195.68C393.263 195.584 393.706 195.536 394.175 195.536C394.548 195.536 394.916 195.563 395.279 195.616C395.652 195.669 395.988 195.781 396.287 195.952C396.586 196.112 396.826 196.341 397.007 196.64C397.188 196.939 397.279 197.328 397.279 197.808V202.064C397.279 202.384 397.295 202.619 397.327 202.768C397.37 202.917 397.498 202.992 397.711 202.992C397.828 202.992 397.967 202.965 398.127 202.912V203.968ZM395.919 199.728C395.748 199.856 395.524 199.952 395.247 200.016C394.97 200.069 394.676 200.117 394.367 200.16C394.068 200.192 393.764 200.235 393.455 200.288C393.146 200.331 392.868 200.405 392.623 200.512C392.378 200.619 392.175 200.773 392.015 200.976C391.866 201.168 391.791 201.435 391.791 201.776C391.791 202 391.834 202.192 391.919 202.352C392.015 202.501 392.132 202.624 392.271 202.72C392.42 202.816 392.591 202.885 392.783 202.928C392.975 202.971 393.178 202.992 393.391 202.992C393.839 202.992 394.223 202.933 394.543 202.816C394.863 202.688 395.124 202.533 395.327 202.352C395.53 202.16 395.679 201.957 395.775 201.744C395.871 201.52 395.919 201.312 395.919 201.12V199.728ZM399.545 195.728H400.825V197.472H400.857C401.187 196.8 401.593 196.304 402.073 195.984C402.553 195.664 403.161 195.515 403.897 195.536V196.976C403.353 196.976 402.889 197.051 402.505 197.2C402.121 197.349 401.811 197.568 401.577 197.856C401.342 198.144 401.171 198.496 401.065 198.912C400.958 199.317 400.905 199.787 400.905 200.32V204H399.545V195.728ZM412.449 203.968C412.214 204.107 411.889 204.176 411.473 204.176C411.121 204.176 410.838 204.08 410.625 203.888C410.422 203.685 410.321 203.36 410.321 202.912C409.948 203.36 409.51 203.685 409.009 203.888C408.518 204.08 407.985 204.176 407.409 204.176C407.036 204.176 406.678 204.133 406.337 204.048C406.006 203.963 405.718 203.829 405.473 203.648C405.228 203.467 405.03 203.232 404.881 202.944C404.742 202.645 404.673 202.288 404.673 201.872C404.673 201.403 404.753 201.019 404.913 200.72C405.073 200.421 405.281 200.181 405.537 200C405.804 199.808 406.102 199.664 406.433 199.568C406.774 199.472 407.121 199.392 407.473 199.328C407.846 199.253 408.198 199.2 408.529 199.168C408.87 199.125 409.169 199.072 409.425 199.008C409.681 198.933 409.884 198.832 410.033 198.704C410.182 198.565 410.257 198.368 410.257 198.112C410.257 197.813 410.198 197.573 410.081 197.392C409.974 197.211 409.83 197.072 409.649 196.976C409.478 196.88 409.281 196.816 409.057 196.784C408.844 196.752 408.63 196.736 408.417 196.736C407.841 196.736 407.361 196.848 406.977 197.072C406.593 197.285 406.385 197.696 406.353 198.304H404.993C405.014 197.792 405.121 197.36 405.313 197.008C405.505 196.656 405.761 196.373 406.081 196.16C406.401 195.936 406.764 195.776 407.169 195.68C407.585 195.584 408.028 195.536 408.497 195.536C408.87 195.536 409.238 195.563 409.601 195.616C409.974 195.669 410.31 195.781 410.609 195.952C410.908 196.112 411.148 196.341 411.329 196.64C411.51 196.939 411.601 197.328 411.601 197.808V202.064C411.601 202.384 411.617 202.619 411.649 202.768C411.692 202.917 411.82 202.992 412.033 202.992C412.15 202.992 412.289 202.965 412.449 202.912V203.968ZM410.241 199.728C410.07 199.856 409.846 199.952 409.569 200.016C409.292 200.069 408.998 200.117 408.689 200.16C408.39 200.192 408.086 200.235 407.777 200.288C407.468 200.331 407.19 200.405 406.945 200.512C406.7 200.619 406.497 200.773 406.337 200.976C406.188 201.168 406.113 201.435 406.113 201.776C406.113 202 406.156 202.192 406.241 202.352C406.337 202.501 406.454 202.624 406.593 202.72C406.742 202.816 406.913 202.885 407.105 202.928C407.297 202.971 407.5 202.992 407.713 202.992C408.161 202.992 408.545 202.933 408.865 202.816C409.185 202.688 409.446 202.533 409.649 202.352C409.852 202.16 410.001 201.957 410.097 201.744C410.193 201.52 410.241 201.312 410.241 201.12V199.728ZM419.531 198.384C419.424 197.861 419.2 197.456 418.859 197.168C418.517 196.88 418.059 196.736 417.483 196.736C416.992 196.736 416.581 196.827 416.251 197.008C415.92 197.189 415.653 197.429 415.451 197.728C415.259 198.027 415.12 198.373 415.035 198.768C414.949 199.152 414.907 199.552 414.907 199.968C414.907 200.352 414.949 200.725 415.035 201.088C415.131 201.451 415.275 201.776 415.467 202.064C415.659 202.341 415.909 202.565 416.219 202.736C416.528 202.907 416.896 202.992 417.323 202.992C417.995 202.992 418.517 202.816 418.891 202.464C419.275 202.112 419.509 201.616 419.595 200.976H420.987C420.837 202 420.453 202.789 419.835 203.344C419.227 203.899 418.395 204.176 417.339 204.176C416.709 204.176 416.149 204.075 415.659 203.872C415.179 203.669 414.773 203.381 414.443 203.008C414.123 202.635 413.877 202.192 413.707 201.68C413.547 201.157 413.467 200.587 413.467 199.968C413.467 199.349 413.547 198.773 413.707 198.24C413.867 197.696 414.107 197.227 414.427 196.832C414.757 196.427 415.168 196.112 415.659 195.888C416.149 195.653 416.72 195.536 417.371 195.536C417.84 195.536 418.277 195.595 418.683 195.712C419.099 195.819 419.461 195.989 419.771 196.224C420.091 196.459 420.352 196.757 420.555 197.12C420.757 197.472 420.885 197.893 420.939 198.384H419.531ZM424.596 195.728H426.244V196.928H424.596V202.064C424.596 202.224 424.607 202.352 424.628 202.448C424.66 202.544 424.714 202.619 424.788 202.672C424.863 202.725 424.964 202.763 425.092 202.784C425.231 202.795 425.407 202.8 425.62 202.8H426.244V204H425.204C424.852 204 424.548 203.979 424.292 203.936C424.047 203.883 423.844 203.792 423.684 203.664C423.535 203.536 423.423 203.355 423.348 203.12C423.274 202.885 423.236 202.576 423.236 202.192V196.928H421.828V195.728H423.236V193.248H424.596V195.728ZM439.363 202.224H441.139V204H439.363V202.224ZM434.035 202.224H435.811V204H434.035V202.224ZM428.707 202.224H430.483V204H428.707V202.224Z" fill="black" fill-opacity="0.68"/>
<path fill-rule="evenodd" clip-rule="evenodd" d="M480.314 184.003C480.217 184.003 480.121 184 480.024 184C479.927 184 479.83 184.003 479.734 184.003C475.232 184.003 470.676 187.176 469.2 190C470.676 192.824 475.184 195.997 479.686 195.997C479.782 195.997 479.879 196 479.976 196C480.073 196 480.169 195.997 480.266 195.997C484.768 195.997 489.324 192.824 490.8 190C489.324 187.176 484.816 184.003 480.314 184.003ZM479.967 194.32C479.112 194.32 478.277 194.067 477.567 193.592C476.856 193.117 476.303 192.443 475.976 191.653C475.649 190.864 475.563 189.995 475.73 189.157C475.897 188.319 476.308 187.549 476.912 186.945C477.516 186.341 478.286 185.93 479.124 185.763C479.962 185.596 480.831 185.682 481.62 186.009C482.409 186.336 483.084 186.89 483.559 187.6C484.033 188.31 484.287 189.146 484.287 190C484.287 191.146 483.832 192.245 483.022 193.055C482.211 193.865 481.113 194.32 479.967 194.32ZM470.89 190.001C471.605 189.003 472.748 187.983 474.08 187.173C474.513 186.91 474.961 186.672 475.422 186.461C474.63 187.476 474.202 188.728 474.205 190.015C474.209 191.303 474.644 192.552 475.441 193.563C474.966 193.347 474.505 193.101 474.059 192.829C472.739 192.021 471.604 191.002 470.89 190.001ZM485.92 192.827C485.454 193.11 484.972 193.364 484.474 193.587C485.29 192.564 485.732 191.293 485.729 189.985C485.725 188.677 485.276 187.41 484.456 186.391C484.967 186.618 485.463 186.879 485.941 187.171C487.261 187.979 488.396 188.998 489.11 189.999C488.395 190.998 487.252 192.017 485.92 192.827ZM482.35 188.876C482.305 189.072 482.208 189.253 482.071 189.401C481.934 189.549 481.761 189.658 481.568 189.718C481.376 189.778 481.171 189.787 480.974 189.744C480.777 189.7 480.595 189.606 480.446 189.471C480.296 189.336 480.185 189.164 480.123 188.972C480.06 188.78 480.049 188.576 480.09 188.378C480.131 188.181 480.222 187.998 480.356 187.847C480.489 187.696 480.66 187.582 480.851 187.517C480.277 187.313 479.651 187.314 479.078 187.52C478.504 187.726 478.02 188.124 477.708 188.647C477.395 189.169 477.274 189.784 477.363 190.386C477.453 190.989 477.749 191.541 478.2 191.95C478.651 192.359 479.23 192.599 479.838 192.629C480.447 192.659 481.046 192.477 481.536 192.115C482.025 191.752 482.374 191.231 482.522 190.641C482.671 190.05 482.61 189.426 482.35 188.876Z" fill="black"/>
<path d="M91.248 294.076H98.752V295.356H92.768V298.988H98.016V300.268H92.768V305.5H91.248V294.076ZM101.652 295.74H100.292V294.076H101.652V295.74ZM100.292 297.228H101.652V305.5H100.292V297.228ZM103.838 294.076H105.198V305.5H103.838V294.076ZM107.385 294.076H108.745V305.5H107.385V294.076ZM116.596 300.572C116.575 300.252 116.5 299.948 116.372 299.66C116.255 299.372 116.089 299.127 115.876 298.924C115.673 298.711 115.428 298.545 115.14 298.428C114.863 298.3 114.553 298.236 114.212 298.236C113.86 298.236 113.54 298.3 113.252 298.428C112.975 298.545 112.735 298.711 112.532 298.924C112.329 299.137 112.169 299.388 112.052 299.676C111.935 299.953 111.865 300.252 111.844 300.572H116.596ZM117.908 302.876C117.727 303.804 117.327 304.503 116.708 304.972C116.089 305.441 115.311 305.676 114.372 305.676C113.711 305.676 113.135 305.569 112.644 305.356C112.164 305.143 111.759 304.844 111.428 304.46C111.097 304.076 110.847 303.617 110.676 303.084C110.516 302.551 110.425 301.969 110.404 301.34C110.404 300.711 110.5 300.135 110.692 299.612C110.884 299.089 111.151 298.636 111.492 298.252C111.844 297.868 112.255 297.569 112.724 297.356C113.204 297.143 113.727 297.036 114.292 297.036C115.028 297.036 115.636 297.191 116.116 297.5C116.607 297.799 116.996 298.183 117.284 298.652C117.583 299.121 117.785 299.633 117.892 300.188C118.009 300.743 118.057 301.271 118.036 301.772H111.844C111.833 302.135 111.876 302.481 111.972 302.812C112.068 303.132 112.223 303.42 112.436 303.676C112.649 303.921 112.921 304.119 113.252 304.268C113.583 304.417 113.972 304.492 114.42 304.492C114.996 304.492 115.465 304.359 115.828 304.092C116.201 303.825 116.447 303.42 116.564 302.876H117.908ZM120.438 301.436C120.438 301.82 120.486 302.199 120.582 302.572C120.689 302.935 120.843 303.26 121.046 303.548C121.259 303.836 121.526 304.065 121.846 304.236C122.177 304.407 122.561 304.492 122.998 304.492C123.457 304.492 123.846 304.401 124.166 304.22C124.486 304.039 124.747 303.804 124.95 303.516C125.153 303.217 125.297 302.881 125.382 302.508C125.478 302.135 125.526 301.756 125.526 301.372C125.526 300.967 125.478 300.577 125.382 300.204C125.286 299.82 125.131 299.484 124.918 299.196C124.715 298.908 124.449 298.679 124.118 298.508C123.787 298.327 123.387 298.236 122.918 298.236C122.459 298.236 122.07 298.327 121.75 298.508C121.43 298.689 121.174 298.929 120.982 299.228C120.79 299.527 120.651 299.868 120.566 300.252C120.481 300.636 120.438 301.031 120.438 301.436ZM126.838 305.5H125.478V304.38H125.446C125.222 304.839 124.87 305.169 124.39 305.372C123.91 305.575 123.382 305.676 122.806 305.676C122.166 305.676 121.606 305.559 121.126 305.324C120.657 305.089 120.262 304.775 119.942 304.38C119.633 303.985 119.398 303.527 119.238 303.004C119.078 302.481 118.998 301.927 118.998 301.34C118.998 300.753 119.073 300.199 119.222 299.676C119.382 299.153 119.617 298.7 119.926 298.316C120.246 297.921 120.641 297.612 121.11 297.388C121.59 297.153 122.145 297.036 122.774 297.036C122.987 297.036 123.217 297.057 123.462 297.1C123.707 297.143 123.953 297.217 124.198 297.324C124.443 297.42 124.673 297.553 124.886 297.724C125.11 297.884 125.297 298.087 125.446 298.332H125.478V294.076H126.838V305.5Z" fill="black" fill-opacity="0.68"/>
<mask id="path-13-inside-3_68467_31704" fill="white">
<path d="M270 270H510V330H270V270Z"/>
</mask>
<path d="M270 270H510V330H270V270Z" fill="black" fill-opacity="0.04"/>
<path d="M510 330V329H270V330V331H510V330Z" fill="black" fill-opacity="0.2" mask="url(#path-13-inside-3_68467_31704)"/>
<path d="M288.076 287.536H290.308C290.956 287.544 291.428 287.412 291.724 287.14C292.028 286.868 292.18 286.476 292.18 285.964C292.18 285.452 292.028 285.064 291.724 284.8C291.428 284.528 290.956 284.392 290.308 284.392H288.076V287.536ZM286.936 283.432H290.692C291.556 283.432 292.208 283.656 292.648 284.104C293.096 284.544 293.32 285.164 293.32 285.964C293.32 286.764 293.096 287.388 292.648 287.836C292.208 288.284 291.556 288.504 290.692 288.496H288.076V292H286.936V283.432ZM300.225 291.976C300.049 292.08 299.805 292.132 299.493 292.132C299.229 292.132 299.017 292.06 298.857 291.916C298.705 291.764 298.629 291.52 298.629 291.184C298.349 291.52 298.021 291.764 297.645 291.916C297.277 292.06 296.877 292.132 296.445 292.132C296.165 292.132 295.897 292.1 295.641 292.036C295.393 291.972 295.177 291.872 294.993 291.736C294.809 291.6 294.661 291.424 294.549 291.208C294.445 290.984 294.393 290.716 294.393 290.404C294.393 290.052 294.453 289.764 294.573 289.54C294.693 289.316 294.849 289.136 295.041 289C295.241 288.856 295.465 288.748 295.713 288.676C295.969 288.604 296.229 288.544 296.493 288.496C296.773 288.44 297.037 288.4 297.285 288.376C297.541 288.344 297.765 288.304 297.957 288.256C298.149 288.2 298.301 288.124 298.413 288.028C298.525 287.924 298.581 287.776 298.581 287.584C298.581 287.36 298.537 287.18 298.449 287.044C298.369 286.908 298.261 286.804 298.125 286.732C297.997 286.66 297.849 286.612 297.681 286.588C297.521 286.564 297.361 286.552 297.201 286.552C296.769 286.552 296.409 286.636 296.121 286.804C295.833 286.964 295.677 287.272 295.653 287.728H294.633C294.649 287.344 294.729 287.02 294.873 286.756C295.017 286.492 295.209 286.28 295.449 286.12C295.689 285.952 295.961 285.832 296.265 285.76C296.577 285.688 296.909 285.652 297.261 285.652C297.541 285.652 297.817 285.672 298.089 285.712C298.369 285.752 298.621 285.836 298.845 285.964C299.069 286.084 299.249 286.256 299.385 286.48C299.521 286.704 299.589 286.996 299.589 287.356V290.548C299.589 290.788 299.601 290.964 299.625 291.076C299.657 291.188 299.753 291.244 299.913 291.244C300.001 291.244 300.105 291.224 300.225 291.184V291.976ZM298.569 288.796C298.441 288.892 298.273 288.964 298.065 289.012C297.857 289.052 297.637 289.088 297.405 289.12C297.181 289.144 296.953 289.176 296.721 289.216C296.489 289.248 296.281 289.304 296.097 289.384C295.913 289.464 295.761 289.58 295.641 289.732C295.529 289.876 295.473 290.076 295.473 290.332C295.473 290.5 295.505 290.644 295.569 290.764C295.641 290.876 295.729 290.968 295.833 291.04C295.945 291.112 296.073 291.164 296.217 291.196C296.361 291.228 296.513 291.244 296.673 291.244C297.009 291.244 297.297 291.2 297.537 291.112C297.777 291.016 297.973 290.9 298.125 290.764C298.277 290.62 298.389 290.468 298.461 290.308C298.533 290.14 298.569 289.984 298.569 289.84V288.796ZM301.979 290.044C301.987 290.268 302.039 290.46 302.135 290.62C302.231 290.772 302.355 290.896 302.507 290.992C302.667 291.08 302.843 291.144 303.035 291.184C303.235 291.224 303.439 291.244 303.647 291.244C303.807 291.244 303.975 291.232 304.151 291.208C304.327 291.184 304.487 291.14 304.631 291.076C304.783 291.012 304.907 290.92 305.003 290.8C305.099 290.672 305.147 290.512 305.147 290.32C305.147 290.056 305.047 289.856 304.847 289.72C304.647 289.584 304.395 289.476 304.091 289.396C303.795 289.308 303.471 289.232 303.119 289.168C302.767 289.096 302.439 289 302.135 288.88C301.839 288.752 301.591 288.576 301.391 288.352C301.191 288.128 301.091 287.816 301.091 287.416C301.091 287.104 301.159 286.836 301.295 286.612C301.439 286.388 301.619 286.208 301.835 286.072C302.059 285.928 302.307 285.824 302.579 285.76C302.859 285.688 303.135 285.652 303.407 285.652C303.759 285.652 304.083 285.684 304.379 285.748C304.675 285.804 304.935 285.908 305.159 286.06C305.391 286.204 305.575 286.404 305.711 286.66C305.847 286.908 305.927 287.22 305.951 287.596H304.931C304.915 287.396 304.863 287.232 304.775 287.104C304.687 286.968 304.575 286.86 304.439 286.78C304.303 286.7 304.151 286.644 303.983 286.612C303.823 286.572 303.659 286.552 303.491 286.552C303.339 286.552 303.183 286.564 303.023 286.588C302.871 286.612 302.731 286.656 302.603 286.72C302.475 286.776 302.371 286.856 302.291 286.96C302.211 287.056 302.171 287.184 302.171 287.344C302.171 287.52 302.231 287.668 302.351 287.788C302.479 287.9 302.639 287.996 302.831 288.076C303.023 288.148 303.239 288.212 303.479 288.268C303.719 288.316 303.959 288.368 304.199 288.424C304.455 288.48 304.703 288.548 304.943 288.628C305.191 288.708 305.407 288.816 305.591 288.952C305.783 289.08 305.935 289.244 306.047 289.444C306.167 289.644 306.227 289.892 306.227 290.188C306.227 290.564 306.147 290.876 305.987 291.124C305.835 291.372 305.631 291.572 305.375 291.724C305.127 291.876 304.843 291.98 304.523 292.036C304.211 292.1 303.899 292.132 303.587 292.132C303.243 292.132 302.915 292.096 302.603 292.024C302.291 291.952 302.015 291.836 301.775 291.676C301.535 291.508 301.343 291.292 301.199 291.028C301.055 290.756 300.975 290.428 300.959 290.044H301.979ZM308.159 290.044C308.167 290.268 308.219 290.46 308.315 290.62C308.411 290.772 308.535 290.896 308.687 290.992C308.847 291.08 309.023 291.144 309.215 291.184C309.415 291.224 309.619 291.244 309.827 291.244C309.987 291.244 310.155 291.232 310.331 291.208C310.507 291.184 310.667 291.14 310.811 291.076C310.963 291.012 311.087 290.92 311.183 290.8C311.279 290.672 311.327 290.512 311.327 290.32C311.327 290.056 311.227 289.856 311.027 289.72C310.827 289.584 310.575 289.476 310.271 289.396C309.975 289.308 309.651 289.232 309.299 289.168C308.947 289.096 308.619 289 308.315 288.88C308.019 288.752 307.771 288.576 307.571 288.352C307.371 288.128 307.271 287.816 307.271 287.416C307.271 287.104 307.339 286.836 307.475 286.612C307.619 286.388 307.799 286.208 308.015 286.072C308.239 285.928 308.487 285.824 308.759 285.76C309.039 285.688 309.315 285.652 309.587 285.652C309.939 285.652 310.263 285.684 310.559 285.748C310.855 285.804 311.115 285.908 311.339 286.06C311.571 286.204 311.755 286.404 311.891 286.66C312.027 286.908 312.107 287.22 312.131 287.596H311.111C311.095 287.396 311.043 287.232 310.955 287.104C310.867 286.968 310.755 286.86 310.619 286.78C310.483 286.7 310.331 286.644 310.163 286.612C310.003 286.572 309.839 286.552 309.671 286.552C309.519 286.552 309.363 286.564 309.203 286.588C309.051 286.612 308.911 286.656 308.783 286.72C308.655 286.776 308.551 286.856 308.471 286.96C308.391 287.056 308.351 287.184 308.351 287.344C308.351 287.52 308.411 287.668 308.531 287.788C308.659 287.9 308.819 287.996 309.011 288.076C309.203 288.148 309.419 288.212 309.659 288.268C309.899 288.316 310.139 288.368 310.379 288.424C310.635 288.48 310.883 288.548 311.123 288.628C311.371 288.708 311.587 288.816 311.771 288.952C311.963 289.08 312.115 289.244 312.227 289.444C312.347 289.644 312.407 289.892 312.407 290.188C312.407 290.564 312.327 290.876 312.167 291.124C312.015 291.372 311.811 291.572 311.555 291.724C311.307 291.876 311.023 291.98 310.703 292.036C310.391 292.1 310.079 292.132 309.767 292.132C309.423 292.132 309.095 292.096 308.783 292.024C308.471 291.952 308.195 291.836 307.955 291.676C307.715 291.508 307.523 291.292 307.379 291.028C307.235 290.756 307.155 290.428 307.139 290.044H308.159ZM319.859 292H318.779L317.519 287.068H317.495L316.247 292H315.143L313.151 285.796H314.279L315.683 290.872H315.707L316.955 285.796H318.071L319.367 290.872H319.391L320.783 285.796H321.839L319.859 292ZM323.732 288.904C323.732 289.28 323.78 289.616 323.876 289.912C323.98 290.2 324.12 290.444 324.296 290.644C324.472 290.836 324.676 290.984 324.908 291.088C325.148 291.192 325.4 291.244 325.664 291.244C325.928 291.244 326.176 291.192 326.408 291.088C326.648 290.984 326.856 290.836 327.032 290.644C327.208 290.444 327.344 290.2 327.44 289.912C327.544 289.616 327.596 289.28 327.596 288.904C327.596 288.528 327.544 288.196 327.44 287.908C327.344 287.612 327.208 287.364 327.032 287.164C326.856 286.964 326.648 286.812 326.408 286.708C326.176 286.604 325.928 286.552 325.664 286.552C325.4 286.552 325.148 286.604 324.908 286.708C324.676 286.812 324.472 286.964 324.296 287.164C324.12 287.364 323.98 287.612 323.876 287.908C323.78 288.196 323.732 288.528 323.732 288.904ZM322.652 288.904C322.652 288.448 322.716 288.024 322.844 287.632C322.972 287.232 323.164 286.888 323.42 286.6C323.676 286.304 323.992 286.072 324.368 285.904C324.744 285.736 325.176 285.652 325.664 285.652C326.16 285.652 326.592 285.736 326.96 285.904C327.336 286.072 327.652 286.304 327.908 286.6C328.164 286.888 328.356 287.232 328.484 287.632C328.612 288.024 328.676 288.448 328.676 288.904C328.676 289.36 328.612 289.784 328.484 290.176C328.356 290.568 328.164 290.912 327.908 291.208C327.652 291.496 327.336 291.724 326.96 291.892C326.592 292.052 326.16 292.132 325.664 292.132C325.176 292.132 324.744 292.052 324.368 291.892C323.992 291.724 323.676 291.496 323.42 291.208C323.164 290.912 322.972 290.568 322.844 290.176C322.716 289.784 322.652 289.36 322.652 288.904ZM330.023 285.796H330.983V287.104H331.007C331.255 286.6 331.559 286.228 331.919 285.988C332.279 285.748 332.735 285.636 333.287 285.652V286.732C332.879 286.732 332.531 286.788 332.243 286.9C331.955 287.012 331.723 287.176 331.547 287.392C331.371 287.608 331.243 287.872 331.163 288.184C331.083 288.488 331.043 288.84 331.043 289.24V292H330.023V285.796ZM334.768 288.952C334.768 289.24 334.804 289.524 334.876 289.804C334.956 290.076 335.072 290.32 335.224 290.536C335.384 290.752 335.584 290.924 335.824 291.052C336.072 291.18 336.36 291.244 336.688 291.244C337.032 291.244 337.324 291.176 337.564 291.04C337.804 290.904 338 290.728 338.152 290.512C338.304 290.288 338.412 290.036 338.476 289.756C338.548 289.476 338.584 289.192 338.584 288.904C338.584 288.6 338.548 288.308 338.476 288.028C338.404 287.74 338.288 287.488 338.128 287.272C337.976 287.056 337.776 286.884 337.528 286.756C337.28 286.62 336.98 286.552 336.628 286.552C336.284 286.552 335.992 286.62 335.752 286.756C335.512 286.892 335.32 287.072 335.176 287.296C335.032 287.52 334.928 287.776 334.864 288.064C334.8 288.352 334.768 288.648 334.768 288.952ZM339.568 292H338.548V291.16H338.524C338.356 291.504 338.092 291.752 337.732 291.904C337.372 292.056 336.976 292.132 336.544 292.132C336.064 292.132 335.644 292.044 335.284 291.868C334.932 291.692 334.636 291.456 334.396 291.16C334.164 290.864 333.988 290.52 333.868 290.128C333.748 289.736 333.688 289.32 333.688 288.88C333.688 288.44 333.744 288.024 333.856 287.632C333.976 287.24 334.152 286.9 334.384 286.612C334.624 286.316 334.92 286.084 335.272 285.916C335.632 285.74 336.048 285.652 336.52 285.652C336.68 285.652 336.852 285.668 337.036 285.7C337.22 285.732 337.404 285.788 337.588 285.868C337.772 285.94 337.944 286.04 338.104 286.168C338.272 286.288 338.412 286.44 338.524 286.624H338.548V283.432H339.568V292Z" fill="black" fill-opacity="0.68"/>
<path d="M287.632 308.576C287.632 308.096 287.723 307.653 287.904 307.248C288.085 306.832 288.331 306.469 288.64 306.16C288.949 305.851 289.307 305.611 289.712 305.44C290.128 305.259 290.571 305.168 291.04 305.168C291.52 305.168 291.963 305.259 292.368 305.44C292.784 305.611 293.147 305.851 293.456 306.16C293.765 306.469 294.005 306.832 294.176 307.248C294.357 307.653 294.448 308.096 294.448 308.576C294.448 309.045 294.357 309.488 294.176 309.904C294.005 310.309 293.765 310.667 293.456 310.976C293.147 311.285 292.784 311.531 292.368 311.712C291.963 311.893 291.52 311.984 291.04 311.984C290.571 311.984 290.128 311.893 289.712 311.712C289.307 311.531 288.949 311.285 288.64 310.976C288.331 310.667 288.085 310.309 287.904 309.904C287.723 309.488 287.632 309.045 287.632 308.576ZM297.832 308.576C297.832 308.096 297.923 307.653 298.104 307.248C298.285 306.832 298.531 306.469 298.84 306.16C299.149 305.851 299.507 305.611 299.912 305.44C300.328 305.259 300.771 305.168 301.24 305.168C301.72 305.168 302.163 305.259 302.568 305.44C302.984 305.611 303.347 305.851 303.656 306.16C303.965 306.469 304.205 306.832 304.376 307.248C304.557 307.653 304.648 308.096 304.648 308.576C304.648 309.045 304.557 309.488 304.376 309.904C304.205 310.309 303.965 310.667 303.656 310.976C303.347 311.285 302.984 311.531 302.568 311.712C302.163 311.893 301.72 311.984 301.24 311.984C300.771 311.984 300.328 311.893 299.912 311.712C299.507 311.531 299.149 311.285 298.84 310.976C298.531 310.667 298.285 310.309 298.104 309.904C297.923 309.488 297.832 309.045 297.832 308.576ZM308.032 308.576C308.032 308.096 308.123 307.653 308.304 307.248C308.485 306.832 308.731 306.469 309.04 306.16C309.349 305.851 309.707 305.611 310.112 305.44C310.528 305.259 310.971 305.168 311.44 305.168C311.92 305.168 312.363 305.259 312.768 305.44C313.184 305.611 313.547 305.851 313.856 306.16C314.165 306.469 314.405 306.832 314.576 307.248C314.757 307.653 314.848 308.096 314.848 308.576C314.848 309.045 314.757 309.488 314.576 309.904C314.405 310.309 314.165 310.667 313.856 310.976C313.547 311.285 313.184 311.531 312.768 311.712C312.363 311.893 311.92 311.984 311.44 311.984C310.971 311.984 310.528 311.893 310.112 311.712C309.707 311.531 309.349 311.285 309.04 310.976C308.731 310.667 308.485 310.309 308.304 309.904C308.123 309.488 308.032 309.045 308.032 308.576ZM318.232 308.576C318.232 308.096 318.323 307.653 318.504 307.248C318.685 306.832 318.931 306.469 319.24 306.16C319.549 305.851 319.907 305.611 320.312 305.44C320.728 305.259 321.171 305.168 321.64 305.168C322.12 305.168 322.563 305.259 322.968 305.44C323.384 305.611 323.747 305.851 324.056 306.16C324.365 306.469 324.605 306.832 324.776 307.248C324.957 307.653 325.048 308.096 325.048 308.576C325.048 309.045 324.957 309.488 324.776 309.904C324.605 310.309 324.365 310.667 324.056 310.976C323.747 311.285 323.384 311.531 322.968 311.712C322.563 311.893 322.12 311.984 321.64 311.984C321.171 311.984 320.728 311.893 320.312 311.712C319.907 311.531 319.549 311.285 319.24 310.976C318.931 310.667 318.685 310.309 318.504 309.904C318.323 309.488 318.232 309.045 318.232 308.576ZM328.432 308.576C328.432 308.096 328.523 307.653 328.704 307.248C328.885 306.832 329.131 306.469 329.44 306.16C329.749 305.851 330.107 305.611 330.512 305.44C330.928 305.259 331.371 305.168 331.84 305.168C332.32 305.168 332.763 305.259 333.168 305.44C333.584 305.611 333.947 305.851 334.256 306.16C334.565 306.469 334.805 306.832 334.976 307.248C335.157 307.653 335.248 308.096 335.248 308.576C335.248 309.045 335.157 309.488 334.976 309.904C334.805 310.309 334.565 310.667 334.256 310.976C333.947 311.285 333.584 311.531 333.168 311.712C332.763 311.893 332.32 311.984 331.84 311.984C331.371 311.984 330.928 311.893 330.512 311.712C330.107 311.531 329.749 311.285 329.44 310.976C329.131 310.667 328.885 310.309 328.704 309.904C328.523 309.488 328.432 309.045 328.432 308.576ZM338.632 308.576C338.632 308.096 338.723 307.653 338.904 307.248C339.085 306.832 339.331 306.469 339.64 306.16C339.949 305.851 340.307 305.611 340.712 305.44C341.128 305.259 341.571 305.168 342.04 305.168C342.52 305.168 342.963 305.259 343.368 305.44C343.784 305.611 344.147 305.851 344.456 306.16C344.765 306.469 345.005 306.832 345.176 307.248C345.357 307.653 345.448 308.096 345.448 308.576C345.448 309.045 345.357 309.488 345.176 309.904C345.005 310.309 344.765 310.667 344.456 310.976C344.147 311.285 343.784 311.531 343.368 311.712C342.963 311.893 342.52 311.984 342.04 311.984C341.571 311.984 341.128 311.893 340.712 311.712C340.307 311.531 339.949 311.285 339.64 310.976C339.331 310.667 339.085 310.309 338.904 309.904C338.723 309.488 338.632 309.045 338.632 308.576ZM348.832 308.576C348.832 308.096 348.923 307.653 349.104 307.248C349.285 306.832 349.531 306.469 349.84 306.16C350.149 305.851 350.507 305.611 350.912 305.44C351.328 305.259 351.771 305.168 352.24 305.168C352.72 305.168 353.163 305.259 353.568 305.44C353.984 305.611 354.347 305.851 354.656 306.16C354.965 306.469 355.205 306.832 355.376 307.248C355.557 307.653 355.648 308.096 355.648 308.576C355.648 309.045 355.557 309.488 355.376 309.904C355.205 310.309 354.965 310.667 354.656 310.976C354.347 311.285 353.984 311.531 353.568 311.712C353.163 311.893 352.72 311.984 352.24 311.984C351.771 311.984 351.328 311.893 350.912 311.712C350.507 311.531 350.149 311.285 349.84 310.976C349.531 310.667 349.285 310.309 349.104 309.904C348.923 309.488 348.832 309.045 348.832 308.576Z" fill="black"/>
<path fill-rule="evenodd" clip-rule="evenodd" d="M480.314 294.003C480.217 294.003 480.121 294 480.024 294C479.927 294 479.83 294.003 479.734 294.003C475.232 294.003 470.676 297.176 469.2 300C470.676 302.824 475.184 305.997 479.686 305.997C479.782 305.997 479.879 306 479.976 306C480.073 306 480.169 305.997 480.266 305.997C484.768 305.997 489.324 302.824 490.8 300C489.324 297.176 484.816 294.003 480.314 294.003ZM479.967 304.32C479.112 304.32 478.277 304.067 477.567 303.592C476.856 303.117 476.303 302.443 475.976 301.653C475.649 300.864 475.563 299.995 475.73 299.157C475.897 298.319 476.308 297.549 476.912 296.945C477.516 296.341 478.286 295.93 479.124 295.763C479.962 295.596 480.831 295.682 481.62 296.009C482.409 296.336 483.084 296.89 483.559 297.6C484.033 298.31 484.287 299.146 484.287 300C484.287 301.146 483.832 302.245 483.022 303.055C482.211 303.865 481.113 304.32 479.967 304.32ZM470.89 300.001C471.605 299.003 472.748 297.983 474.08 297.173C474.513 296.91 474.961 296.672 475.422 296.461C474.63 297.476 474.202 298.728 474.205 300.015C474.209 301.303 474.644 302.552 475.441 303.563C474.966 303.347 474.505 303.101 474.059 302.829C472.739 302.021 471.604 301.002 470.89 300.001ZM485.92 302.827C485.454 303.11 484.972 303.364 484.474 303.587C485.29 302.564 485.732 301.293 485.729 299.985C485.725 298.677 485.276 297.41 484.456 296.391C484.967 296.618 485.463 296.879 485.941 297.171C487.261 297.979 488.396 298.998 489.11 299.999C488.395 300.998 487.252 302.017 485.92 302.827ZM482.35 298.876C482.305 299.072 482.208 299.253 482.071 299.401C481.934 299.549 481.761 299.658 481.568 299.718C481.376 299.778 481.171 299.787 480.974 299.744C480.777 299.7 480.595 299.606 480.446 299.471C480.296 299.336 480.185 299.164 480.123 298.972C480.06 298.78 480.049 298.576 480.09 298.378C480.131 298.181 480.222 297.998 480.356 297.847C480.489 297.696 480.66 297.582 480.851 297.517C480.277 297.313 479.651 297.314 479.078 297.52C478.504 297.726 478.02 298.124 477.708 298.647C477.395 299.169 477.274 299.784 477.363 300.386C477.453 300.989 477.749 301.541 478.2 301.95C478.651 302.359 479.23 302.599 479.838 302.629C480.447 302.659 481.046 302.477 481.536 302.115C482.025 301.752 482.374 301.231 482.522 300.641C482.671 300.05 482.61 299.426 482.35 298.876Z" fill="black"/>
</svg>
