<svg width="600" height="282" viewBox="0 0 600 282" fill="none" xmlns="http://www.w3.org/2000/svg">
<rect width="600" height="282" fill="black" fill-opacity="0.04"/>
<path d="M179.748 86.076H187.252V87.356H181.268V90.988H186.516V92.268H181.268V97.5H179.748V86.076ZM196.04 97.468C195.805 97.6067 195.48 97.676 195.064 97.676C194.712 97.676 194.429 97.58 194.216 97.388C194.013 97.1853 193.912 96.86 193.912 96.412C193.538 96.86 193.101 97.1853 192.6 97.388C192.109 97.58 191.576 97.676 191 97.676C190.626 97.676 190.269 97.6333 189.928 97.548C189.597 97.4627 189.309 97.3293 189.064 97.148C188.818 96.9667 188.621 96.732 188.472 96.444C188.333 96.1453 188.264 95.788 188.264 95.372C188.264 94.9027 188.344 94.5187 188.504 94.22C188.664 93.9213 188.872 93.6813 189.128 93.5C189.394 93.308 189.693 93.164 190.024 93.068C190.365 92.972 190.712 92.892 191.064 92.828C191.437 92.7533 191.789 92.7 192.12 92.668C192.461 92.6253 192.76 92.572 193.016 92.508C193.272 92.4333 193.474 92.332 193.624 92.204C193.773 92.0653 193.848 91.868 193.848 91.612C193.848 91.3133 193.789 91.0733 193.672 90.892C193.565 90.7107 193.421 90.572 193.24 90.476C193.069 90.38 192.872 90.316 192.648 90.284C192.434 90.252 192.221 90.236 192.008 90.236C191.432 90.236 190.952 90.348 190.568 90.572C190.184 90.7853 189.976 91.196 189.944 91.804H188.584C188.605 91.292 188.712 90.86 188.904 90.508C189.096 90.156 189.352 89.8733 189.672 89.66C189.992 89.436 190.354 89.276 190.76 89.18C191.176 89.084 191.618 89.036 192.088 89.036C192.461 89.036 192.829 89.0627 193.192 89.116C193.565 89.1693 193.901 89.2813 194.2 89.452C194.498 89.612 194.738 89.8413 194.92 90.14C195.101 90.4387 195.192 90.828 195.192 91.308V95.564C195.192 95.884 195.208 96.1187 195.24 96.268C195.282 96.4173 195.41 96.492 195.624 96.492C195.741 96.492 195.88 96.4653 196.04 96.412V97.468ZM193.832 93.228C193.661 93.356 193.437 93.452 193.16 93.516C192.882 93.5693 192.589 93.6173 192.28 93.66C191.981 93.692 191.677 93.7347 191.368 93.788C191.058 93.8307 190.781 93.9053 190.536 94.012C190.29 94.1187 190.088 94.2733 189.928 94.476C189.778 94.668 189.704 94.9347 189.704 95.276C189.704 95.5 189.746 95.692 189.832 95.852C189.928 96.0013 190.045 96.124 190.184 96.22C190.333 96.316 190.504 96.3853 190.696 96.428C190.888 96.4707 191.09 96.492 191.304 96.492C191.752 96.492 192.136 96.4333 192.456 96.316C192.776 96.188 193.037 96.0333 193.24 95.852C193.442 95.66 193.592 95.4573 193.688 95.244C193.784 95.02 193.832 94.812 193.832 94.62V93.228ZM197.385 86.076H198.745V97.5H197.385V86.076ZM201.684 94.892C201.695 95.1907 201.764 95.4467 201.892 95.66C202.02 95.8627 202.185 96.028 202.388 96.156C202.601 96.2733 202.836 96.3587 203.092 96.412C203.359 96.4653 203.631 96.492 203.908 96.492C204.121 96.492 204.345 96.476 204.58 96.444C204.815 96.412 205.028 96.3533 205.22 96.268C205.423 96.1827 205.588 96.06 205.716 95.9C205.844 95.7293 205.908 95.516 205.908 95.26C205.908 94.908 205.775 94.6413 205.508 94.46C205.241 94.2787 204.905 94.1347 204.5 94.028C204.105 93.9107 203.673 93.8093 203.204 93.724C202.735 93.628 202.297 93.5 201.892 93.34C201.497 93.1693 201.167 92.9347 200.9 92.636C200.633 92.3373 200.5 91.9213 200.5 91.388C200.5 90.972 200.591 90.6147 200.772 90.316C200.964 90.0173 201.204 89.7773 201.492 89.596C201.791 89.404 202.121 89.2653 202.484 89.18C202.857 89.084 203.225 89.036 203.588 89.036C204.057 89.036 204.489 89.0787 204.884 89.164C205.279 89.2387 205.625 89.3773 205.924 89.58C206.233 89.772 206.479 90.0387 206.66 90.38C206.841 90.7107 206.948 91.1267 206.98 91.628H205.62C205.599 91.3613 205.529 91.1427 205.412 90.972C205.295 90.7907 205.145 90.6467 204.964 90.54C204.783 90.4333 204.58 90.3587 204.356 90.316C204.143 90.2627 203.924 90.236 203.7 90.236C203.497 90.236 203.289 90.252 203.076 90.284C202.873 90.316 202.687 90.3747 202.516 90.46C202.345 90.5347 202.207 90.6413 202.1 90.78C201.993 90.908 201.94 91.0787 201.94 91.292C201.94 91.5267 202.02 91.724 202.18 91.884C202.351 92.0333 202.564 92.1613 202.82 92.268C203.076 92.364 203.364 92.4493 203.684 92.524C204.004 92.588 204.324 92.6573 204.644 92.732C204.985 92.8067 205.316 92.8973 205.636 93.004C205.967 93.1107 206.255 93.2547 206.5 93.436C206.756 93.6067 206.959 93.8253 207.108 94.092C207.268 94.3587 207.348 94.6893 207.348 95.084C207.348 95.5853 207.241 96.0013 207.028 96.332C206.825 96.6627 206.553 96.9293 206.212 97.132C205.881 97.3347 205.503 97.4733 205.076 97.548C204.66 97.6333 204.244 97.676 203.828 97.676C203.369 97.676 202.932 97.628 202.516 97.532C202.1 97.436 201.732 97.2813 201.412 97.068C201.092 96.844 200.836 96.556 200.644 96.204C200.452 95.8413 200.345 95.404 200.324 94.892H201.684ZM214.596 92.572C214.575 92.252 214.5 91.948 214.372 91.66C214.255 91.372 214.089 91.1267 213.876 90.924C213.673 90.7107 213.428 90.5453 213.14 90.428C212.863 90.3 212.553 90.236 212.212 90.236C211.86 90.236 211.54 90.3 211.252 90.428C210.975 90.5453 210.735 90.7107 210.532 90.924C210.329 91.1373 210.169 91.388 210.052 91.676C209.935 91.9533 209.865 92.252 209.844 92.572H214.596ZM215.908 94.876C215.727 95.804 215.327 96.5027 214.708 96.972C214.089 97.4413 213.311 97.676 212.372 97.676C211.711 97.676 211.135 97.5693 210.644 97.356C210.164 97.1427 209.759 96.844 209.428 96.46C209.097 96.076 208.847 95.6173 208.676 95.084C208.516 94.5507 208.425 93.9693 208.404 93.34C208.404 92.7107 208.5 92.1347 208.692 91.612C208.884 91.0893 209.151 90.636 209.492 90.252C209.844 89.868 210.255 89.5693 210.724 89.356C211.204 89.1427 211.727 89.036 212.292 89.036C213.028 89.036 213.636 89.1907 214.116 89.5C214.607 89.7987 214.996 90.1827 215.284 90.652C215.583 91.1213 215.785 91.6333 215.892 92.188C216.009 92.7427 216.057 93.2707 216.036 93.772H209.844C209.833 94.1347 209.876 94.4813 209.972 94.812C210.068 95.132 210.223 95.42 210.436 95.676C210.649 95.9213 210.921 96.1187 211.252 96.268C211.583 96.4173 211.972 96.492 212.42 96.492C212.996 96.492 213.465 96.3587 213.828 96.092C214.201 95.8253 214.447 95.42 214.564 94.876H215.908Z" fill="black" fill-opacity="0.68"/>
<path d="M355.604 86.576H358.116V95.888H363.684V98H355.604V86.576ZM364.952 92.272C364.984 91.7387 365.118 91.296 365.352 90.944C365.587 90.592 365.886 90.3093 366.248 90.096C366.611 89.8827 367.016 89.7333 367.464 89.648C367.923 89.552 368.382 89.504 368.84 89.504C369.256 89.504 369.678 89.536 370.104 89.6C370.531 89.6533 370.92 89.7653 371.272 89.936C371.624 90.1067 371.912 90.3467 372.136 90.656C372.36 90.9547 372.472 91.3547 372.472 91.856V96.16C372.472 96.5333 372.494 96.8907 372.536 97.232C372.579 97.5733 372.654 97.8293 372.76 98H370.456C370.414 97.872 370.376 97.744 370.344 97.616C370.323 97.4773 370.307 97.3387 370.296 97.2C369.934 97.5733 369.507 97.8347 369.016 97.984C368.526 98.1333 368.024 98.208 367.512 98.208C367.118 98.208 366.75 98.16 366.408 98.064C366.067 97.968 365.768 97.8187 365.512 97.616C365.256 97.4133 365.054 97.1573 364.904 96.848C364.766 96.5387 364.696 96.1707 364.696 95.744C364.696 95.2747 364.776 94.8907 364.936 94.592C365.107 94.2827 365.32 94.0373 365.576 93.856C365.843 93.6747 366.142 93.5413 366.472 93.456C366.814 93.36 367.155 93.2853 367.496 93.232C367.838 93.1787 368.174 93.136 368.504 93.104C368.835 93.072 369.128 93.024 369.384 92.96C369.64 92.896 369.843 92.8053 369.992 92.688C370.142 92.56 370.211 92.3787 370.2 92.144C370.2 91.8987 370.158 91.7067 370.072 91.568C369.998 91.4187 369.891 91.3067 369.752 91.232C369.624 91.1467 369.47 91.0933 369.288 91.072C369.118 91.04 368.931 91.024 368.728 91.024C368.28 91.024 367.928 91.12 367.672 91.312C367.416 91.504 367.267 91.824 367.224 92.272H364.952ZM370.2 93.952C370.104 94.0373 369.982 94.1067 369.832 94.16C369.694 94.2027 369.539 94.24 369.368 94.272C369.208 94.304 369.038 94.3307 368.856 94.352C368.675 94.3733 368.494 94.4 368.312 94.432C368.142 94.464 367.971 94.5067 367.8 94.56C367.64 94.6133 367.496 94.688 367.368 94.784C367.251 94.8693 367.155 94.9813 367.08 95.12C367.006 95.2587 366.968 95.4347 366.968 95.648C366.968 95.8507 367.006 96.0213 367.08 96.16C367.155 96.2987 367.256 96.4107 367.384 96.496C367.512 96.5707 367.662 96.624 367.832 96.656C368.003 96.688 368.179 96.704 368.36 96.704C368.808 96.704 369.155 96.6293 369.4 96.48C369.646 96.3307 369.827 96.1547 369.944 95.952C370.062 95.7387 370.131 95.5253 370.152 95.312C370.184 95.0987 370.2 94.928 370.2 94.8V93.952ZM380.5 93.872C380.5 93.52 380.463 93.184 380.388 92.864C380.313 92.544 380.196 92.2613 380.036 92.016C379.876 91.7707 379.673 91.5787 379.428 91.44C379.193 91.2907 378.905 91.216 378.564 91.216C378.233 91.216 377.945 91.2907 377.7 91.44C377.455 91.5787 377.252 91.7707 377.092 92.016C376.932 92.2613 376.815 92.544 376.74 92.864C376.665 93.184 376.628 93.52 376.628 93.872C376.628 94.2133 376.665 94.544 376.74 94.864C376.815 95.184 376.932 95.4667 377.092 95.712C377.252 95.9573 377.455 96.1547 377.7 96.304C377.945 96.4427 378.233 96.512 378.564 96.512C378.905 96.512 379.193 96.4427 379.428 96.304C379.673 96.1547 379.876 95.9573 380.036 95.712C380.196 95.4667 380.313 95.184 380.388 94.864C380.463 94.544 380.5 94.2133 380.5 93.872ZM374.436 86.576H376.708V90.736H376.74C377.017 90.3093 377.391 90 377.86 89.808C378.34 89.6053 378.836 89.504 379.348 89.504C379.764 89.504 380.175 89.5893 380.58 89.76C380.985 89.9307 381.348 90.192 381.668 90.544C381.999 90.896 382.265 91.3493 382.468 91.904C382.671 92.448 382.772 93.0987 382.772 93.856C382.772 94.6133 382.671 95.2693 382.468 95.824C382.265 96.368 381.999 96.816 381.668 97.168C381.348 97.52 380.985 97.7813 380.58 97.952C380.175 98.1227 379.764 98.208 379.348 98.208C378.74 98.208 378.196 98.112 377.716 97.92C377.236 97.728 376.873 97.4027 376.628 96.944H376.596V98H374.436V86.576ZM389.985 92.976C389.878 92.4 389.686 91.9627 389.409 91.664C389.142 91.3653 388.732 91.216 388.177 91.216C387.814 91.216 387.51 91.28 387.265 91.408C387.03 91.5253 386.838 91.6747 386.689 91.856C386.55 92.0373 386.449 92.2293 386.385 92.432C386.332 92.6347 386.3 92.816 386.289 92.976H389.985ZM386.289 94.416C386.321 95.152 386.508 95.6853 386.849 96.016C387.19 96.3467 387.681 96.512 388.321 96.512C388.78 96.512 389.174 96.4 389.505 96.176C389.836 95.9413 390.038 95.696 390.113 95.44H392.113C391.793 96.432 391.302 97.1413 390.641 97.568C389.98 97.9947 389.18 98.208 388.241 98.208C387.59 98.208 387.004 98.1067 386.481 97.904C385.958 97.6907 385.516 97.392 385.153 97.008C384.79 96.624 384.508 96.1653 384.305 95.632C384.113 95.0987 384.017 94.512 384.017 93.872C384.017 93.2533 384.118 92.6773 384.321 92.144C384.524 91.6107 384.812 91.152 385.185 90.768C385.558 90.3733 386.001 90.064 386.513 89.84C387.036 89.616 387.612 89.504 388.241 89.504C388.945 89.504 389.558 89.6427 390.081 89.92C390.604 90.1867 391.03 90.5493 391.361 91.008C391.702 91.4667 391.948 91.9893 392.097 92.576C392.246 93.1627 392.3 93.776 392.257 94.416H386.289ZM393.869 86.576H396.141V98H393.869V86.576Z" fill="black"/>
<g clip-path="url(#clip0_75142_26289)">
<path d="M405.562 90.3138L411.499 96.375L417.437 90.3138L415.741 88.582L411.499 92.9123L407.259 88.582L405.562 90.3138Z" fill="#F15E00"/>
</g>
<path d="M182.34 185.356H178.532V184.076H187.668V185.356H183.86V195.5H182.34V185.356ZM187.195 187.228H188.475V188.972H188.507C188.837 188.3 189.243 187.804 189.723 187.484C190.203 187.164 190.811 187.015 191.547 187.036V188.476C191.003 188.476 190.539 188.551 190.155 188.7C189.771 188.849 189.461 189.068 189.227 189.356C188.992 189.644 188.821 189.996 188.715 190.412C188.608 190.817 188.555 191.287 188.555 191.82V195.5H187.195V187.228ZM199.419 195.5H198.139V194.188H198.107C197.819 194.7 197.451 195.079 197.003 195.324C196.555 195.559 196.027 195.676 195.419 195.676C194.875 195.676 194.422 195.607 194.059 195.468C193.696 195.319 193.403 195.111 193.179 194.844C192.955 194.577 192.795 194.263 192.699 193.9C192.614 193.527 192.571 193.116 192.571 192.668V187.228H193.931V192.828C193.931 193.34 194.08 193.745 194.379 194.044C194.678 194.343 195.088 194.492 195.611 194.492C196.027 194.492 196.384 194.428 196.683 194.3C196.992 194.172 197.248 193.991 197.451 193.756C197.654 193.521 197.803 193.249 197.899 192.94C198.006 192.62 198.059 192.273 198.059 191.9V187.228H199.419V195.5ZM207.206 190.572C207.184 190.252 207.11 189.948 206.982 189.66C206.864 189.372 206.699 189.127 206.486 188.924C206.283 188.711 206.038 188.545 205.75 188.428C205.472 188.3 205.163 188.236 204.822 188.236C204.47 188.236 204.15 188.3 203.862 188.428C203.584 188.545 203.344 188.711 203.142 188.924C202.939 189.137 202.779 189.388 202.662 189.676C202.544 189.953 202.475 190.252 202.454 190.572H207.206ZM208.517 192.876C208.336 193.804 207.936 194.503 207.318 194.972C206.699 195.441 205.92 195.676 204.982 195.676C204.32 195.676 203.744 195.569 203.254 195.356C202.774 195.143 202.368 194.844 202.038 194.46C201.707 194.076 201.456 193.617 201.286 193.084C201.126 192.551 201.035 191.969 201.014 191.34C201.014 190.711 201.11 190.135 201.302 189.612C201.494 189.089 201.76 188.636 202.102 188.252C202.454 187.868 202.864 187.569 203.334 187.356C203.814 187.143 204.336 187.036 204.902 187.036C205.638 187.036 206.246 187.191 206.726 187.5C207.216 187.799 207.606 188.183 207.894 188.652C208.192 189.121 208.395 189.633 208.502 190.188C208.619 190.743 208.667 191.271 208.646 191.772H202.454C202.443 192.135 202.486 192.481 202.582 192.812C202.678 193.132 202.832 193.42 203.046 193.676C203.259 193.921 203.531 194.119 203.862 194.268C204.192 194.417 204.582 194.492 205.03 194.492C205.606 194.492 206.075 194.359 206.438 194.092C206.811 193.825 207.056 193.42 207.174 192.876H208.517Z" fill="black" fill-opacity="0.68"/>
<path d="M355.604 184.576H358.116V193.888H363.684V196H355.604V184.576ZM364.952 190.272C364.984 189.739 365.118 189.296 365.352 188.944C365.587 188.592 365.886 188.309 366.248 188.096C366.611 187.883 367.016 187.733 367.464 187.648C367.923 187.552 368.382 187.504 368.84 187.504C369.256 187.504 369.678 187.536 370.104 187.6C370.531 187.653 370.92 187.765 371.272 187.936C371.624 188.107 371.912 188.347 372.136 188.656C372.36 188.955 372.472 189.355 372.472 189.856V194.16C372.472 194.533 372.494 194.891 372.536 195.232C372.579 195.573 372.654 195.829 372.76 196H370.456C370.414 195.872 370.376 195.744 370.344 195.616C370.323 195.477 370.307 195.339 370.296 195.2C369.934 195.573 369.507 195.835 369.016 195.984C368.526 196.133 368.024 196.208 367.512 196.208C367.118 196.208 366.75 196.16 366.408 196.064C366.067 195.968 365.768 195.819 365.512 195.616C365.256 195.413 365.054 195.157 364.904 194.848C364.766 194.539 364.696 194.171 364.696 193.744C364.696 193.275 364.776 192.891 364.936 192.592C365.107 192.283 365.32 192.037 365.576 191.856C365.843 191.675 366.142 191.541 366.472 191.456C366.814 191.36 367.155 191.285 367.496 191.232C367.838 191.179 368.174 191.136 368.504 191.104C368.835 191.072 369.128 191.024 369.384 190.96C369.64 190.896 369.843 190.805 369.992 190.688C370.142 190.56 370.211 190.379 370.2 190.144C370.2 189.899 370.158 189.707 370.072 189.568C369.998 189.419 369.891 189.307 369.752 189.232C369.624 189.147 369.47 189.093 369.288 189.072C369.118 189.04 368.931 189.024 368.728 189.024C368.28 189.024 367.928 189.12 367.672 189.312C367.416 189.504 367.267 189.824 367.224 190.272H364.952ZM370.2 191.952C370.104 192.037 369.982 192.107 369.832 192.16C369.694 192.203 369.539 192.24 369.368 192.272C369.208 192.304 369.038 192.331 368.856 192.352C368.675 192.373 368.494 192.4 368.312 192.432C368.142 192.464 367.971 192.507 367.8 192.56C367.64 192.613 367.496 192.688 367.368 192.784C367.251 192.869 367.155 192.981 367.08 193.12C367.006 193.259 366.968 193.435 366.968 193.648C366.968 193.851 367.006 194.021 367.08 194.16C367.155 194.299 367.256 194.411 367.384 194.496C367.512 194.571 367.662 194.624 367.832 194.656C368.003 194.688 368.179 194.704 368.36 194.704C368.808 194.704 369.155 194.629 369.4 194.48C369.646 194.331 369.827 194.155 369.944 193.952C370.062 193.739 370.131 193.525 370.152 193.312C370.184 193.099 370.2 192.928 370.2 192.8V191.952ZM380.5 191.872C380.5 191.52 380.463 191.184 380.388 190.864C380.313 190.544 380.196 190.261 380.036 190.016C379.876 189.771 379.673 189.579 379.428 189.44C379.193 189.291 378.905 189.216 378.564 189.216C378.233 189.216 377.945 189.291 377.7 189.44C377.455 189.579 377.252 189.771 377.092 190.016C376.932 190.261 376.815 190.544 376.74 190.864C376.665 191.184 376.628 191.52 376.628 191.872C376.628 192.213 376.665 192.544 376.74 192.864C376.815 193.184 376.932 193.467 377.092 193.712C377.252 193.957 377.455 194.155 377.7 194.304C377.945 194.443 378.233 194.512 378.564 194.512C378.905 194.512 379.193 194.443 379.428 194.304C379.673 194.155 379.876 193.957 380.036 193.712C380.196 193.467 380.313 193.184 380.388 192.864C380.463 192.544 380.5 192.213 380.5 191.872ZM374.436 184.576H376.708V188.736H376.74C377.017 188.309 377.391 188 377.86 187.808C378.34 187.605 378.836 187.504 379.348 187.504C379.764 187.504 380.175 187.589 380.58 187.76C380.985 187.931 381.348 188.192 381.668 188.544C381.999 188.896 382.265 189.349 382.468 189.904C382.671 190.448 382.772 191.099 382.772 191.856C382.772 192.613 382.671 193.269 382.468 193.824C382.265 194.368 381.999 194.816 381.668 195.168C381.348 195.52 380.985 195.781 380.58 195.952C380.175 196.123 379.764 196.208 379.348 196.208C378.74 196.208 378.196 196.112 377.716 195.92C377.236 195.728 376.873 195.403 376.628 194.944H376.596V196H374.436V184.576ZM389.985 190.976C389.878 190.4 389.686 189.963 389.409 189.664C389.142 189.365 388.732 189.216 388.177 189.216C387.814 189.216 387.51 189.28 387.265 189.408C387.03 189.525 386.838 189.675 386.689 189.856C386.55 190.037 386.449 190.229 386.385 190.432C386.332 190.635 386.3 190.816 386.289 190.976H389.985ZM386.289 192.416C386.321 193.152 386.508 193.685 386.849 194.016C387.19 194.347 387.681 194.512 388.321 194.512C388.78 194.512 389.174 194.4 389.505 194.176C389.836 193.941 390.038 193.696 390.113 193.44H392.113C391.793 194.432 391.302 195.141 390.641 195.568C389.98 195.995 389.18 196.208 388.241 196.208C387.59 196.208 387.004 196.107 386.481 195.904C385.958 195.691 385.516 195.392 385.153 195.008C384.79 194.624 384.508 194.165 384.305 193.632C384.113 193.099 384.017 192.512 384.017 191.872C384.017 191.253 384.118 190.677 384.321 190.144C384.524 189.611 384.812 189.152 385.185 188.768C385.558 188.373 386.001 188.064 386.513 187.84C387.036 187.616 387.612 187.504 388.241 187.504C388.945 187.504 389.558 187.643 390.081 187.92C390.604 188.187 391.03 188.549 391.361 189.008C391.702 189.467 391.948 189.989 392.097 190.576C392.246 191.163 392.3 191.776 392.257 192.416H386.289ZM393.869 184.576H396.141V196H393.869V184.576Z" fill="black"/>
<g clip-path="url(#clip1_75142_26289)">
<path d="M417.437 191.686L411.5 185.625L405.562 191.686L407.258 193.418L411.5 189.088L415.74 193.418L417.437 191.686Z" fill="#F15E00"/>
</g>
<defs>
<clipPath id="clip0_75142_26289">
<rect width="20" height="20" fill="white" transform="translate(401.5 82)"/>
</clipPath>
<clipPath id="clip1_75142_26289">
<rect width="20" height="20" fill="white" transform="translate(401.5 180)"/>
</clipPath>
</defs>
</svg>
