<svg width="600" height="788" viewBox="0 0 600 788" fill="none" xmlns="http://www.w3.org/2000/svg">
<rect width="600" height="788" fill="black" fill-opacity="0.04"/>
<path d="M179.748 118.076H187.636V119.356H181.268V122.988H187.204V124.268H181.268V128.22H187.684V129.5H179.748V118.076ZM189.305 121.228H190.585V122.54H190.617C191.183 121.537 192.079 121.036 193.305 121.036C193.849 121.036 194.303 121.111 194.665 121.26C195.028 121.409 195.321 121.617 195.545 121.884C195.769 122.151 195.924 122.471 196.009 122.844C196.105 123.207 196.153 123.612 196.153 124.06V129.5H194.793V123.9C194.793 123.388 194.644 122.983 194.345 122.684C194.047 122.385 193.636 122.236 193.113 122.236C192.697 122.236 192.335 122.3 192.025 122.428C191.727 122.556 191.476 122.737 191.273 122.972C191.071 123.207 190.916 123.484 190.809 123.804C190.713 124.113 190.665 124.455 190.665 124.828V129.5H189.305V121.228ZM205.524 129.468C205.289 129.607 204.964 129.676 204.548 129.676C204.196 129.676 203.913 129.58 203.7 129.388C203.497 129.185 203.396 128.86 203.396 128.412C203.023 128.86 202.585 129.185 202.084 129.388C201.593 129.58 201.06 129.676 200.484 129.676C200.111 129.676 199.753 129.633 199.412 129.548C199.081 129.463 198.793 129.329 198.548 129.148C198.303 128.967 198.105 128.732 197.956 128.444C197.817 128.145 197.748 127.788 197.748 127.372C197.748 126.903 197.828 126.519 197.988 126.22C198.148 125.921 198.356 125.681 198.612 125.5C198.879 125.308 199.177 125.164 199.508 125.068C199.849 124.972 200.196 124.892 200.548 124.828C200.921 124.753 201.273 124.7 201.604 124.668C201.945 124.625 202.244 124.572 202.5 124.508C202.756 124.433 202.959 124.332 203.108 124.204C203.257 124.065 203.332 123.868 203.332 123.612C203.332 123.313 203.273 123.073 203.156 122.892C203.049 122.711 202.905 122.572 202.724 122.476C202.553 122.38 202.356 122.316 202.132 122.284C201.919 122.252 201.705 122.236 201.492 122.236C200.916 122.236 200.436 122.348 200.052 122.572C199.668 122.785 199.46 123.196 199.428 123.804H198.068C198.089 123.292 198.196 122.86 198.388 122.508C198.58 122.156 198.836 121.873 199.156 121.66C199.476 121.436 199.839 121.276 200.244 121.18C200.66 121.084 201.103 121.036 201.572 121.036C201.945 121.036 202.313 121.063 202.676 121.116C203.049 121.169 203.385 121.281 203.684 121.452C203.983 121.612 204.223 121.841 204.404 122.14C204.585 122.439 204.676 122.828 204.676 123.308V127.564C204.676 127.884 204.692 128.119 204.724 128.268C204.767 128.417 204.895 128.492 205.108 128.492C205.225 128.492 205.364 128.465 205.524 128.412V129.468ZM203.316 125.228C203.145 125.356 202.921 125.452 202.644 125.516C202.367 125.569 202.073 125.617 201.764 125.66C201.465 125.692 201.161 125.735 200.852 125.788C200.543 125.831 200.265 125.905 200.02 126.012C199.775 126.119 199.572 126.273 199.412 126.476C199.263 126.668 199.188 126.935 199.188 127.276C199.188 127.5 199.231 127.692 199.316 127.852C199.412 128.001 199.529 128.124 199.668 128.22C199.817 128.316 199.988 128.385 200.18 128.428C200.372 128.471 200.575 128.492 200.788 128.492C201.236 128.492 201.62 128.433 201.94 128.316C202.26 128.188 202.521 128.033 202.724 127.852C202.927 127.66 203.076 127.457 203.172 127.244C203.268 127.02 203.316 126.812 203.316 126.62V125.228ZM206.838 118.076H208.198V122.348H208.23C208.454 121.889 208.806 121.559 209.286 121.356C209.766 121.143 210.294 121.036 210.87 121.036C211.51 121.036 212.064 121.153 212.534 121.388C213.014 121.623 213.408 121.943 213.718 122.348C214.038 122.743 214.278 123.201 214.438 123.724C214.598 124.247 214.678 124.801 214.678 125.388C214.678 125.975 214.598 126.529 214.438 127.052C214.288 127.575 214.054 128.033 213.734 128.428C213.424 128.812 213.03 129.116 212.55 129.34C212.08 129.564 211.531 129.676 210.902 129.676C210.699 129.676 210.47 129.655 210.214 129.612C209.968 129.569 209.723 129.5 209.478 129.404C209.232 129.308 208.998 129.18 208.774 129.02C208.56 128.849 208.379 128.641 208.23 128.396H208.198V129.5H206.838V118.076ZM213.238 125.292C213.238 124.908 213.184 124.535 213.078 124.172C212.982 123.799 212.827 123.468 212.614 123.18C212.411 122.892 212.144 122.663 211.814 122.492C211.494 122.321 211.115 122.236 210.678 122.236C210.219 122.236 209.83 122.327 209.51 122.508C209.19 122.689 208.928 122.929 208.726 123.228C208.523 123.516 208.374 123.847 208.278 124.22C208.192 124.593 208.15 124.972 208.15 125.356C208.15 125.761 208.198 126.156 208.294 126.54C208.39 126.913 208.539 127.244 208.742 127.532C208.955 127.82 209.227 128.055 209.558 128.236C209.888 128.407 210.288 128.492 210.758 128.492C211.227 128.492 211.616 128.401 211.926 128.22C212.246 128.039 212.502 127.799 212.694 127.5C212.886 127.201 213.024 126.86 213.11 126.476C213.195 126.092 213.238 125.697 213.238 125.292ZM216.354 118.076H217.714V129.5H216.354V118.076ZM225.565 124.572C225.544 124.252 225.469 123.948 225.341 123.66C225.224 123.372 225.058 123.127 224.845 122.924C224.642 122.711 224.397 122.545 224.109 122.428C223.832 122.3 223.522 122.236 223.181 122.236C222.829 122.236 222.509 122.3 222.221 122.428C221.944 122.545 221.704 122.711 221.501 122.924C221.298 123.137 221.138 123.388 221.021 123.676C220.904 123.953 220.834 124.252 220.813 124.572H225.565ZM226.877 126.876C226.696 127.804 226.296 128.503 225.677 128.972C225.058 129.441 224.28 129.676 223.341 129.676C222.68 129.676 222.104 129.569 221.613 129.356C221.133 129.143 220.728 128.844 220.397 128.46C220.066 128.076 219.816 127.617 219.645 127.084C219.485 126.551 219.394 125.969 219.373 125.34C219.373 124.711 219.469 124.135 219.661 123.612C219.853 123.089 220.12 122.636 220.461 122.252C220.813 121.868 221.224 121.569 221.693 121.356C222.173 121.143 222.696 121.036 223.261 121.036C223.997 121.036 224.605 121.191 225.085 121.5C225.576 121.799 225.965 122.183 226.253 122.652C226.552 123.121 226.754 123.633 226.861 124.188C226.978 124.743 227.026 125.271 227.005 125.772H220.813C220.802 126.135 220.845 126.481 220.941 126.812C221.037 127.132 221.192 127.42 221.405 127.676C221.618 127.921 221.89 128.119 222.221 128.268C222.552 128.417 222.941 128.492 223.389 128.492C223.965 128.492 224.434 128.359 224.797 128.092C225.17 127.825 225.416 127.42 225.533 126.876H226.877ZM229.407 125.436C229.407 125.82 229.455 126.199 229.551 126.572C229.657 126.935 229.812 127.26 230.015 127.548C230.228 127.836 230.495 128.065 230.815 128.236C231.145 128.407 231.529 128.492 231.967 128.492C232.425 128.492 232.815 128.401 233.135 128.22C233.455 128.039 233.716 127.804 233.919 127.516C234.121 127.217 234.265 126.881 234.351 126.508C234.447 126.135 234.495 125.756 234.495 125.372C234.495 124.967 234.447 124.577 234.351 124.204C234.255 123.82 234.1 123.484 233.887 123.196C233.684 122.908 233.417 122.679 233.087 122.508C232.756 122.327 232.356 122.236 231.887 122.236C231.428 122.236 231.039 122.327 230.719 122.508C230.399 122.689 230.143 122.929 229.951 123.228C229.759 123.527 229.62 123.868 229.535 124.252C229.449 124.636 229.407 125.031 229.407 125.436ZM235.807 129.5H234.447V128.38H234.415C234.191 128.839 233.839 129.169 233.359 129.372C232.879 129.575 232.351 129.676 231.775 129.676C231.135 129.676 230.575 129.559 230.095 129.324C229.625 129.089 229.231 128.775 228.911 128.38C228.601 127.985 228.367 127.527 228.207 127.004C228.047 126.481 227.967 125.927 227.967 125.34C227.967 124.753 228.041 124.199 228.191 123.676C228.351 123.153 228.585 122.7 228.895 122.316C229.215 121.921 229.609 121.612 230.079 121.388C230.559 121.153 231.113 121.036 231.743 121.036C231.956 121.036 232.185 121.057 232.431 121.1C232.676 121.143 232.921 121.217 233.167 121.324C233.412 121.42 233.641 121.553 233.855 121.724C234.079 121.884 234.265 122.087 234.415 122.332H234.447V118.076H235.807V129.5Z" fill="black" fill-opacity="0.68"/>
<path d="M355.604 118.576H358.116V127.888H363.684V130H355.604V118.576ZM364.952 124.272C364.984 123.739 365.118 123.296 365.352 122.944C365.587 122.592 365.886 122.309 366.248 122.096C366.611 121.883 367.016 121.733 367.464 121.648C367.923 121.552 368.382 121.504 368.84 121.504C369.256 121.504 369.678 121.536 370.104 121.6C370.531 121.653 370.92 121.765 371.272 121.936C371.624 122.107 371.912 122.347 372.136 122.656C372.36 122.955 372.472 123.355 372.472 123.856V128.16C372.472 128.533 372.494 128.891 372.536 129.232C372.579 129.573 372.654 129.829 372.76 130H370.456C370.414 129.872 370.376 129.744 370.344 129.616C370.323 129.477 370.307 129.339 370.296 129.2C369.934 129.573 369.507 129.835 369.016 129.984C368.526 130.133 368.024 130.208 367.512 130.208C367.118 130.208 366.75 130.16 366.408 130.064C366.067 129.968 365.768 129.819 365.512 129.616C365.256 129.413 365.054 129.157 364.904 128.848C364.766 128.539 364.696 128.171 364.696 127.744C364.696 127.275 364.776 126.891 364.936 126.592C365.107 126.283 365.32 126.037 365.576 125.856C365.843 125.675 366.142 125.541 366.472 125.456C366.814 125.36 367.155 125.285 367.496 125.232C367.838 125.179 368.174 125.136 368.504 125.104C368.835 125.072 369.128 125.024 369.384 124.96C369.64 124.896 369.843 124.805 369.992 124.688C370.142 124.56 370.211 124.379 370.2 124.144C370.2 123.899 370.158 123.707 370.072 123.568C369.998 123.419 369.891 123.307 369.752 123.232C369.624 123.147 369.47 123.093 369.288 123.072C369.118 123.04 368.931 123.024 368.728 123.024C368.28 123.024 367.928 123.12 367.672 123.312C367.416 123.504 367.267 123.824 367.224 124.272H364.952ZM370.2 125.952C370.104 126.037 369.982 126.107 369.832 126.16C369.694 126.203 369.539 126.24 369.368 126.272C369.208 126.304 369.038 126.331 368.856 126.352C368.675 126.373 368.494 126.4 368.312 126.432C368.142 126.464 367.971 126.507 367.8 126.56C367.64 126.613 367.496 126.688 367.368 126.784C367.251 126.869 367.155 126.981 367.08 127.12C367.006 127.259 366.968 127.435 366.968 127.648C366.968 127.851 367.006 128.021 367.08 128.16C367.155 128.299 367.256 128.411 367.384 128.496C367.512 128.571 367.662 128.624 367.832 128.656C368.003 128.688 368.179 128.704 368.36 128.704C368.808 128.704 369.155 128.629 369.4 128.48C369.646 128.331 369.827 128.155 369.944 127.952C370.062 127.739 370.131 127.525 370.152 127.312C370.184 127.099 370.2 126.928 370.2 126.8V125.952ZM380.5 125.872C380.5 125.52 380.463 125.184 380.388 124.864C380.313 124.544 380.196 124.261 380.036 124.016C379.876 123.771 379.673 123.579 379.428 123.44C379.193 123.291 378.905 123.216 378.564 123.216C378.233 123.216 377.945 123.291 377.7 123.44C377.455 123.579 377.252 123.771 377.092 124.016C376.932 124.261 376.815 124.544 376.74 124.864C376.665 125.184 376.628 125.52 376.628 125.872C376.628 126.213 376.665 126.544 376.74 126.864C376.815 127.184 376.932 127.467 377.092 127.712C377.252 127.957 377.455 128.155 377.7 128.304C377.945 128.443 378.233 128.512 378.564 128.512C378.905 128.512 379.193 128.443 379.428 128.304C379.673 128.155 379.876 127.957 380.036 127.712C380.196 127.467 380.313 127.184 380.388 126.864C380.463 126.544 380.5 126.213 380.5 125.872ZM374.436 118.576H376.708V122.736H376.74C377.017 122.309 377.391 122 377.86 121.808C378.34 121.605 378.836 121.504 379.348 121.504C379.764 121.504 380.175 121.589 380.58 121.76C380.985 121.931 381.348 122.192 381.668 122.544C381.999 122.896 382.265 123.349 382.468 123.904C382.671 124.448 382.772 125.099 382.772 125.856C382.772 126.613 382.671 127.269 382.468 127.824C382.265 128.368 381.999 128.816 381.668 129.168C381.348 129.52 380.985 129.781 380.58 129.952C380.175 130.123 379.764 130.208 379.348 130.208C378.74 130.208 378.196 130.112 377.716 129.92C377.236 129.728 376.873 129.403 376.628 128.944H376.596V130H374.436V118.576ZM389.985 124.976C389.878 124.4 389.686 123.963 389.409 123.664C389.142 123.365 388.732 123.216 388.177 123.216C387.814 123.216 387.51 123.28 387.265 123.408C387.03 123.525 386.838 123.675 386.689 123.856C386.55 124.037 386.449 124.229 386.385 124.432C386.332 124.635 386.3 124.816 386.289 124.976H389.985ZM386.289 126.416C386.321 127.152 386.508 127.685 386.849 128.016C387.19 128.347 387.681 128.512 388.321 128.512C388.78 128.512 389.174 128.4 389.505 128.176C389.836 127.941 390.038 127.696 390.113 127.44H392.113C391.793 128.432 391.302 129.141 390.641 129.568C389.98 129.995 389.18 130.208 388.241 130.208C387.59 130.208 387.004 130.107 386.481 129.904C385.958 129.691 385.516 129.392 385.153 129.008C384.79 128.624 384.508 128.165 384.305 127.632C384.113 127.099 384.017 126.512 384.017 125.872C384.017 125.253 384.118 124.677 384.321 124.144C384.524 123.611 384.812 123.152 385.185 122.768C385.558 122.373 386.001 122.064 386.513 121.84C387.036 121.616 387.612 121.504 388.241 121.504C388.945 121.504 389.558 121.643 390.081 121.92C390.604 122.187 391.03 122.549 391.361 123.008C391.702 123.467 391.948 123.989 392.097 124.576C392.246 125.163 392.3 125.776 392.257 126.416H386.289ZM393.869 118.576H396.141V130H393.869V118.576Z" fill="black"/>
<g clip-path="url(#clip0_75142_13463)">
<path d="M405.562 122.314L411.499 128.375L417.437 122.314L415.741 120.582L411.499 124.912L407.259 120.582L405.562 122.314Z" fill="#F15E00"/>
</g>
<path d="M179.748 226.076H181.268V230.988H187.284V226.076H188.804V237.5H187.284V232.268H181.268V237.5H179.748V226.076ZM192.063 233.372C192.063 233.873 192.127 234.321 192.255 234.716C192.394 235.1 192.58 235.425 192.815 235.692C193.05 235.948 193.322 236.145 193.631 236.284C193.951 236.423 194.287 236.492 194.639 236.492C194.991 236.492 195.322 236.423 195.631 236.284C195.951 236.145 196.228 235.948 196.463 235.692C196.698 235.425 196.879 235.1 197.007 234.716C197.146 234.321 197.215 233.873 197.215 233.372C197.215 232.871 197.146 232.428 197.007 232.044C196.879 231.649 196.698 231.319 196.463 231.052C196.228 230.785 195.951 230.583 195.631 230.444C195.322 230.305 194.991 230.236 194.639 230.236C194.287 230.236 193.951 230.305 193.631 230.444C193.322 230.583 193.05 230.785 192.815 231.052C192.58 231.319 192.394 231.649 192.255 232.044C192.127 232.428 192.063 232.871 192.063 233.372ZM190.623 233.372C190.623 232.764 190.708 232.199 190.879 231.676C191.05 231.143 191.306 230.684 191.647 230.3C191.988 229.905 192.41 229.596 192.911 229.372C193.412 229.148 193.988 229.036 194.639 229.036C195.3 229.036 195.876 229.148 196.367 229.372C196.868 229.596 197.29 229.905 197.631 230.3C197.972 230.684 198.228 231.143 198.399 231.676C198.57 232.199 198.655 232.764 198.655 233.372C198.655 233.98 198.57 234.545 198.399 235.068C198.228 235.591 197.972 236.049 197.631 236.444C197.29 236.828 196.868 237.132 196.367 237.356C195.876 237.569 195.3 237.676 194.639 237.676C193.988 237.676 193.412 237.569 192.911 237.356C192.41 237.132 191.988 236.828 191.647 236.444C191.306 236.049 191.05 235.591 190.879 235.068C190.708 234.545 190.623 233.98 190.623 233.372ZM203.986 237.5H202.53L199.458 229.228H200.978L203.298 236.124H203.33L205.586 229.228H207.01L203.986 237.5ZM214.002 232.572C213.981 232.252 213.906 231.948 213.778 231.66C213.661 231.372 213.496 231.127 213.282 230.924C213.08 230.711 212.834 230.545 212.546 230.428C212.269 230.3 211.96 230.236 211.618 230.236C211.266 230.236 210.946 230.3 210.658 230.428C210.381 230.545 210.141 230.711 209.938 230.924C209.736 231.137 209.576 231.388 209.458 231.676C209.341 231.953 209.272 232.252 209.25 232.572H214.002ZM215.314 234.876C215.133 235.804 214.733 236.503 214.114 236.972C213.496 237.441 212.717 237.676 211.778 237.676C211.117 237.676 210.541 237.569 210.05 237.356C209.57 237.143 209.165 236.844 208.834 236.46C208.504 236.076 208.253 235.617 208.082 235.084C207.922 234.551 207.832 233.969 207.81 233.34C207.81 232.711 207.906 232.135 208.098 231.612C208.29 231.089 208.557 230.636 208.898 230.252C209.25 229.868 209.661 229.569 210.13 229.356C210.61 229.143 211.133 229.036 211.698 229.036C212.434 229.036 213.042 229.191 213.522 229.5C214.013 229.799 214.402 230.183 214.69 230.652C214.989 231.121 215.192 231.633 215.298 232.188C215.416 232.743 215.464 233.271 215.442 233.772H209.25C209.24 234.135 209.282 234.481 209.378 234.812C209.474 235.132 209.629 235.42 209.842 235.676C210.056 235.921 210.328 236.119 210.658 236.268C210.989 236.417 211.378 236.492 211.826 236.492C212.402 236.492 212.872 236.359 213.234 236.092C213.608 235.825 213.853 235.42 213.97 234.876H215.314ZM216.804 229.228H218.084V230.972H218.116C218.447 230.3 218.852 229.804 219.332 229.484C219.812 229.164 220.42 229.015 221.156 229.036V230.476C220.612 230.476 220.148 230.551 219.764 230.7C219.38 230.849 219.071 231.068 218.836 231.356C218.601 231.644 218.431 231.996 218.324 232.412C218.217 232.817 218.164 233.287 218.164 233.82V237.5H216.804V229.228Z" fill="black" fill-opacity="0.68"/>
<path d="M355.604 226.576H358.116V235.888H363.684V238H355.604V226.576ZM364.952 232.272C364.984 231.739 365.118 231.296 365.352 230.944C365.587 230.592 365.886 230.309 366.248 230.096C366.611 229.883 367.016 229.733 367.464 229.648C367.923 229.552 368.382 229.504 368.84 229.504C369.256 229.504 369.678 229.536 370.104 229.6C370.531 229.653 370.92 229.765 371.272 229.936C371.624 230.107 371.912 230.347 372.136 230.656C372.36 230.955 372.472 231.355 372.472 231.856V236.16C372.472 236.533 372.494 236.891 372.536 237.232C372.579 237.573 372.654 237.829 372.76 238H370.456C370.414 237.872 370.376 237.744 370.344 237.616C370.323 237.477 370.307 237.339 370.296 237.2C369.934 237.573 369.507 237.835 369.016 237.984C368.526 238.133 368.024 238.208 367.512 238.208C367.118 238.208 366.75 238.16 366.408 238.064C366.067 237.968 365.768 237.819 365.512 237.616C365.256 237.413 365.054 237.157 364.904 236.848C364.766 236.539 364.696 236.171 364.696 235.744C364.696 235.275 364.776 234.891 364.936 234.592C365.107 234.283 365.32 234.037 365.576 233.856C365.843 233.675 366.142 233.541 366.472 233.456C366.814 233.36 367.155 233.285 367.496 233.232C367.838 233.179 368.174 233.136 368.504 233.104C368.835 233.072 369.128 233.024 369.384 232.96C369.64 232.896 369.843 232.805 369.992 232.688C370.142 232.56 370.211 232.379 370.2 232.144C370.2 231.899 370.158 231.707 370.072 231.568C369.998 231.419 369.891 231.307 369.752 231.232C369.624 231.147 369.47 231.093 369.288 231.072C369.118 231.04 368.931 231.024 368.728 231.024C368.28 231.024 367.928 231.12 367.672 231.312C367.416 231.504 367.267 231.824 367.224 232.272H364.952ZM370.2 233.952C370.104 234.037 369.982 234.107 369.832 234.16C369.694 234.203 369.539 234.24 369.368 234.272C369.208 234.304 369.038 234.331 368.856 234.352C368.675 234.373 368.494 234.4 368.312 234.432C368.142 234.464 367.971 234.507 367.8 234.56C367.64 234.613 367.496 234.688 367.368 234.784C367.251 234.869 367.155 234.981 367.08 235.12C367.006 235.259 366.968 235.435 366.968 235.648C366.968 235.851 367.006 236.021 367.08 236.16C367.155 236.299 367.256 236.411 367.384 236.496C367.512 236.571 367.662 236.624 367.832 236.656C368.003 236.688 368.179 236.704 368.36 236.704C368.808 236.704 369.155 236.629 369.4 236.48C369.646 236.331 369.827 236.155 369.944 235.952C370.062 235.739 370.131 235.525 370.152 235.312C370.184 235.099 370.2 234.928 370.2 234.8V233.952ZM380.5 233.872C380.5 233.52 380.463 233.184 380.388 232.864C380.313 232.544 380.196 232.261 380.036 232.016C379.876 231.771 379.673 231.579 379.428 231.44C379.193 231.291 378.905 231.216 378.564 231.216C378.233 231.216 377.945 231.291 377.7 231.44C377.455 231.579 377.252 231.771 377.092 232.016C376.932 232.261 376.815 232.544 376.74 232.864C376.665 233.184 376.628 233.52 376.628 233.872C376.628 234.213 376.665 234.544 376.74 234.864C376.815 235.184 376.932 235.467 377.092 235.712C377.252 235.957 377.455 236.155 377.7 236.304C377.945 236.443 378.233 236.512 378.564 236.512C378.905 236.512 379.193 236.443 379.428 236.304C379.673 236.155 379.876 235.957 380.036 235.712C380.196 235.467 380.313 235.184 380.388 234.864C380.463 234.544 380.5 234.213 380.5 233.872ZM374.436 226.576H376.708V230.736H376.74C377.017 230.309 377.391 230 377.86 229.808C378.34 229.605 378.836 229.504 379.348 229.504C379.764 229.504 380.175 229.589 380.58 229.76C380.985 229.931 381.348 230.192 381.668 230.544C381.999 230.896 382.265 231.349 382.468 231.904C382.671 232.448 382.772 233.099 382.772 233.856C382.772 234.613 382.671 235.269 382.468 235.824C382.265 236.368 381.999 236.816 381.668 237.168C381.348 237.52 380.985 237.781 380.58 237.952C380.175 238.123 379.764 238.208 379.348 238.208C378.74 238.208 378.196 238.112 377.716 237.92C377.236 237.728 376.873 237.403 376.628 236.944H376.596V238H374.436V226.576ZM389.985 232.976C389.878 232.4 389.686 231.963 389.409 231.664C389.142 231.365 388.732 231.216 388.177 231.216C387.814 231.216 387.51 231.28 387.265 231.408C387.03 231.525 386.838 231.675 386.689 231.856C386.55 232.037 386.449 232.229 386.385 232.432C386.332 232.635 386.3 232.816 386.289 232.976H389.985ZM386.289 234.416C386.321 235.152 386.508 235.685 386.849 236.016C387.19 236.347 387.681 236.512 388.321 236.512C388.78 236.512 389.174 236.4 389.505 236.176C389.836 235.941 390.038 235.696 390.113 235.44H392.113C391.793 236.432 391.302 237.141 390.641 237.568C389.98 237.995 389.18 238.208 388.241 238.208C387.59 238.208 387.004 238.107 386.481 237.904C385.958 237.691 385.516 237.392 385.153 237.008C384.79 236.624 384.508 236.165 384.305 235.632C384.113 235.099 384.017 234.512 384.017 233.872C384.017 233.253 384.118 232.677 384.321 232.144C384.524 231.611 384.812 231.152 385.185 230.768C385.558 230.373 386.001 230.064 386.513 229.84C387.036 229.616 387.612 229.504 388.241 229.504C388.945 229.504 389.558 229.643 390.081 229.92C390.604 230.187 391.03 230.549 391.361 231.008C391.702 231.467 391.948 231.989 392.097 232.576C392.246 233.163 392.3 233.776 392.257 234.416H386.289ZM393.869 226.576H396.141V238H393.869V226.576Z" fill="black" fill-opacity="0.68"/>
<path d="M354.5 240H397.069V240.8H354.5V240Z" fill="black" fill-opacity="0.68"/>
<g clip-path="url(#clip1_75142_13463)">
<path d="M405.562 230.314L411.499 236.375L417.437 230.314L415.741 228.582L411.499 232.912L407.259 228.582L405.562 230.314Z" fill="#F15E00"/>
</g>
<path d="M179.748 334.076H187.252V335.356H181.268V338.988H186.516V340.268H181.268V345.5H179.748V334.076ZM189.704 341.372C189.704 341.873 189.768 342.321 189.896 342.716C190.034 343.1 190.221 343.425 190.456 343.692C190.69 343.948 190.962 344.145 191.272 344.284C191.592 344.423 191.928 344.492 192.28 344.492C192.632 344.492 192.962 344.423 193.272 344.284C193.592 344.145 193.869 343.948 194.104 343.692C194.338 343.425 194.52 343.1 194.648 342.716C194.786 342.321 194.856 341.873 194.856 341.372C194.856 340.871 194.786 340.428 194.648 340.044C194.52 339.649 194.338 339.319 194.104 339.052C193.869 338.785 193.592 338.583 193.272 338.444C192.962 338.305 192.632 338.236 192.28 338.236C191.928 338.236 191.592 338.305 191.272 338.444C190.962 338.583 190.69 338.785 190.456 339.052C190.221 339.319 190.034 339.649 189.896 340.044C189.768 340.428 189.704 340.871 189.704 341.372ZM188.264 341.372C188.264 340.764 188.349 340.199 188.52 339.676C188.69 339.143 188.946 338.684 189.288 338.3C189.629 337.905 190.05 337.596 190.552 337.372C191.053 337.148 191.629 337.036 192.28 337.036C192.941 337.036 193.517 337.148 194.008 337.372C194.509 337.596 194.93 337.905 195.272 338.3C195.613 338.684 195.869 339.143 196.04 339.676C196.21 340.199 196.296 340.764 196.296 341.372C196.296 341.98 196.21 342.545 196.04 343.068C195.869 343.591 195.613 344.049 195.272 344.444C194.93 344.828 194.509 345.132 194.008 345.356C193.517 345.569 192.941 345.676 192.28 345.676C191.629 345.676 191.053 345.569 190.552 345.356C190.05 345.132 189.629 344.828 189.288 344.444C188.946 344.049 188.69 343.591 188.52 343.068C188.349 342.545 188.264 341.98 188.264 341.372ZM203.515 339.884C203.408 339.361 203.184 338.956 202.843 338.668C202.502 338.38 202.043 338.236 201.467 338.236C200.976 338.236 200.566 338.327 200.235 338.508C199.904 338.689 199.638 338.929 199.435 339.228C199.243 339.527 199.104 339.873 199.019 340.268C198.934 340.652 198.891 341.052 198.891 341.468C198.891 341.852 198.934 342.225 199.019 342.588C199.115 342.951 199.259 343.276 199.451 343.564C199.643 343.841 199.894 344.065 200.203 344.236C200.512 344.407 200.88 344.492 201.307 344.492C201.979 344.492 202.502 344.316 202.875 343.964C203.259 343.612 203.494 343.116 203.579 342.476H204.971C204.822 343.5 204.438 344.289 203.819 344.844C203.211 345.399 202.379 345.676 201.323 345.676C200.694 345.676 200.134 345.575 199.643 345.372C199.163 345.169 198.758 344.881 198.427 344.508C198.107 344.135 197.862 343.692 197.691 343.18C197.531 342.657 197.451 342.087 197.451 341.468C197.451 340.849 197.531 340.273 197.691 339.74C197.851 339.196 198.091 338.727 198.411 338.332C198.742 337.927 199.152 337.612 199.643 337.388C200.134 337.153 200.704 337.036 201.355 337.036C201.824 337.036 202.262 337.095 202.667 337.212C203.083 337.319 203.446 337.489 203.755 337.724C204.075 337.959 204.336 338.257 204.539 338.62C204.742 338.972 204.87 339.393 204.923 339.884H203.515ZM213.341 345.5H212.061V344.188H212.029C211.741 344.7 211.373 345.079 210.925 345.324C210.477 345.559 209.949 345.676 209.341 345.676C208.797 345.676 208.343 345.607 207.981 345.468C207.618 345.319 207.325 345.111 207.101 344.844C206.877 344.577 206.717 344.263 206.621 343.9C206.535 343.527 206.493 343.116 206.493 342.668V337.228H207.853V342.828C207.853 343.34 208.002 343.745 208.301 344.044C208.599 344.343 209.01 344.492 209.533 344.492C209.949 344.492 210.306 344.428 210.605 344.3C210.914 344.172 211.17 343.991 211.373 343.756C211.575 343.521 211.725 343.249 211.821 342.94C211.927 342.62 211.981 342.273 211.981 341.9V337.228H213.341V345.5ZM216.215 342.892C216.226 343.191 216.295 343.447 216.423 343.66C216.551 343.863 216.717 344.028 216.919 344.156C217.133 344.273 217.367 344.359 217.623 344.412C217.89 344.465 218.162 344.492 218.439 344.492C218.653 344.492 218.877 344.476 219.111 344.444C219.346 344.412 219.559 344.353 219.751 344.268C219.954 344.183 220.119 344.06 220.247 343.9C220.375 343.729 220.439 343.516 220.439 343.26C220.439 342.908 220.306 342.641 220.039 342.46C219.773 342.279 219.437 342.135 219.031 342.028C218.637 341.911 218.205 341.809 217.735 341.724C217.266 341.628 216.829 341.5 216.423 341.34C216.029 341.169 215.698 340.935 215.431 340.636C215.165 340.337 215.031 339.921 215.031 339.388C215.031 338.972 215.122 338.615 215.303 338.316C215.495 338.017 215.735 337.777 216.023 337.596C216.322 337.404 216.653 337.265 217.015 337.18C217.389 337.084 217.757 337.036 218.119 337.036C218.589 337.036 219.021 337.079 219.415 337.164C219.81 337.239 220.157 337.377 220.455 337.58C220.765 337.772 221.01 338.039 221.191 338.38C221.373 338.711 221.479 339.127 221.511 339.628H220.151C220.13 339.361 220.061 339.143 219.943 338.972C219.826 338.791 219.677 338.647 219.495 338.54C219.314 338.433 219.111 338.359 218.887 338.316C218.674 338.263 218.455 338.236 218.231 338.236C218.029 338.236 217.821 338.252 217.607 338.284C217.405 338.316 217.218 338.375 217.047 338.46C216.877 338.535 216.738 338.641 216.631 338.78C216.525 338.908 216.471 339.079 216.471 339.292C216.471 339.527 216.551 339.724 216.711 339.884C216.882 340.033 217.095 340.161 217.351 340.268C217.607 340.364 217.895 340.449 218.215 340.524C218.535 340.588 218.855 340.657 219.175 340.732C219.517 340.807 219.847 340.897 220.167 341.004C220.498 341.111 220.786 341.255 221.031 341.436C221.287 341.607 221.49 341.825 221.639 342.092C221.799 342.359 221.879 342.689 221.879 343.084C221.879 343.585 221.773 344.001 221.559 344.332C221.357 344.663 221.085 344.929 220.743 345.132C220.413 345.335 220.034 345.473 219.607 345.548C219.191 345.633 218.775 345.676 218.359 345.676C217.901 345.676 217.463 345.628 217.047 345.532C216.631 345.436 216.263 345.281 215.943 345.068C215.623 344.844 215.367 344.556 215.175 344.204C214.983 343.841 214.877 343.404 214.855 342.892H216.215Z" fill="black" fill-opacity="0.68"/>
<mask id="path-10-outside-1_75142_13463" maskUnits="userSpaceOnUse" x="349.5" y="311" width="77" height="58" fill="black">
<rect fill="white" x="349.5" y="311" width="77" height="58"/>
<path d="M354.5 316H421.5V364H354.5V316Z"/>
</mask>
<path d="M354.5 316V311H349.5V316H354.5ZM421.5 316H426.5V311H421.5V316ZM421.5 364V369H426.5V364H421.5ZM354.5 364H349.5V369H354.5V364ZM354.5 316V321H421.5V316V311H354.5V316ZM421.5 316H416.5V364H421.5H426.5V316H421.5ZM421.5 364V359H354.5V364V369H421.5V364ZM354.5 364H359.5V316H354.5H349.5V364H354.5Z" fill="black" mask="url(#path-10-outside-1_75142_13463)"/>
<mask id="path-12-outside-2_75142_13463" maskUnits="userSpaceOnUse" x="352.5" y="314" width="71" height="52" fill="black">
<rect fill="white" x="352.5" y="314" width="71" height="52"/>
<path d="M354.5 316H421.5V364H354.5V316Z"/>
</mask>
<path d="M354.5 316V314H352.5V316H354.5ZM421.5 316H423.5V314H421.5V316ZM421.5 364V366H423.5V364H421.5ZM354.5 364H352.5V366H354.5V364ZM354.5 316V318H421.5V316V314H354.5V316ZM421.5 316H419.5V364H421.5H423.5V316H421.5ZM421.5 364V362H354.5V364V366H421.5V364ZM354.5 364H356.5V316H354.5H352.5V364H354.5Z" fill="white" mask="url(#path-12-outside-2_75142_13463)"/>
<path d="M355.604 334.576H358.116V343.888H363.684V346H355.604V334.576ZM364.952 340.272C364.984 339.739 365.118 339.296 365.352 338.944C365.587 338.592 365.886 338.309 366.248 338.096C366.611 337.883 367.016 337.733 367.464 337.648C367.923 337.552 368.382 337.504 368.84 337.504C369.256 337.504 369.678 337.536 370.104 337.6C370.531 337.653 370.92 337.765 371.272 337.936C371.624 338.107 371.912 338.347 372.136 338.656C372.36 338.955 372.472 339.355 372.472 339.856V344.16C372.472 344.533 372.494 344.891 372.536 345.232C372.579 345.573 372.654 345.829 372.76 346H370.456C370.414 345.872 370.376 345.744 370.344 345.616C370.323 345.477 370.307 345.339 370.296 345.2C369.934 345.573 369.507 345.835 369.016 345.984C368.526 346.133 368.024 346.208 367.512 346.208C367.118 346.208 366.75 346.16 366.408 346.064C366.067 345.968 365.768 345.819 365.512 345.616C365.256 345.413 365.054 345.157 364.904 344.848C364.766 344.539 364.696 344.171 364.696 343.744C364.696 343.275 364.776 342.891 364.936 342.592C365.107 342.283 365.32 342.037 365.576 341.856C365.843 341.675 366.142 341.541 366.472 341.456C366.814 341.36 367.155 341.285 367.496 341.232C367.838 341.179 368.174 341.136 368.504 341.104C368.835 341.072 369.128 341.024 369.384 340.96C369.64 340.896 369.843 340.805 369.992 340.688C370.142 340.56 370.211 340.379 370.2 340.144C370.2 339.899 370.158 339.707 370.072 339.568C369.998 339.419 369.891 339.307 369.752 339.232C369.624 339.147 369.47 339.093 369.288 339.072C369.118 339.04 368.931 339.024 368.728 339.024C368.28 339.024 367.928 339.12 367.672 339.312C367.416 339.504 367.267 339.824 367.224 340.272H364.952ZM370.2 341.952C370.104 342.037 369.982 342.107 369.832 342.16C369.694 342.203 369.539 342.24 369.368 342.272C369.208 342.304 369.038 342.331 368.856 342.352C368.675 342.373 368.494 342.4 368.312 342.432C368.142 342.464 367.971 342.507 367.8 342.56C367.64 342.613 367.496 342.688 367.368 342.784C367.251 342.869 367.155 342.981 367.08 343.12C367.006 343.259 366.968 343.435 366.968 343.648C366.968 343.851 367.006 344.021 367.08 344.16C367.155 344.299 367.256 344.411 367.384 344.496C367.512 344.571 367.662 344.624 367.832 344.656C368.003 344.688 368.179 344.704 368.36 344.704C368.808 344.704 369.155 344.629 369.4 344.48C369.646 344.331 369.827 344.155 369.944 343.952C370.062 343.739 370.131 343.525 370.152 343.312C370.184 343.099 370.2 342.928 370.2 342.8V341.952ZM380.5 341.872C380.5 341.52 380.463 341.184 380.388 340.864C380.313 340.544 380.196 340.261 380.036 340.016C379.876 339.771 379.673 339.579 379.428 339.44C379.193 339.291 378.905 339.216 378.564 339.216C378.233 339.216 377.945 339.291 377.7 339.44C377.455 339.579 377.252 339.771 377.092 340.016C376.932 340.261 376.815 340.544 376.74 340.864C376.665 341.184 376.628 341.52 376.628 341.872C376.628 342.213 376.665 342.544 376.74 342.864C376.815 343.184 376.932 343.467 377.092 343.712C377.252 343.957 377.455 344.155 377.7 344.304C377.945 344.443 378.233 344.512 378.564 344.512C378.905 344.512 379.193 344.443 379.428 344.304C379.673 344.155 379.876 343.957 380.036 343.712C380.196 343.467 380.313 343.184 380.388 342.864C380.463 342.544 380.5 342.213 380.5 341.872ZM374.436 334.576H376.708V338.736H376.74C377.017 338.309 377.391 338 377.86 337.808C378.34 337.605 378.836 337.504 379.348 337.504C379.764 337.504 380.175 337.589 380.58 337.76C380.985 337.931 381.348 338.192 381.668 338.544C381.999 338.896 382.265 339.349 382.468 339.904C382.671 340.448 382.772 341.099 382.772 341.856C382.772 342.613 382.671 343.269 382.468 343.824C382.265 344.368 381.999 344.816 381.668 345.168C381.348 345.52 380.985 345.781 380.58 345.952C380.175 346.123 379.764 346.208 379.348 346.208C378.74 346.208 378.196 346.112 377.716 345.92C377.236 345.728 376.873 345.403 376.628 344.944H376.596V346H374.436V334.576ZM389.985 340.976C389.878 340.4 389.686 339.963 389.409 339.664C389.142 339.365 388.732 339.216 388.177 339.216C387.814 339.216 387.51 339.28 387.265 339.408C387.03 339.525 386.838 339.675 386.689 339.856C386.55 340.037 386.449 340.229 386.385 340.432C386.332 340.635 386.3 340.816 386.289 340.976H389.985ZM386.289 342.416C386.321 343.152 386.508 343.685 386.849 344.016C387.19 344.347 387.681 344.512 388.321 344.512C388.78 344.512 389.174 344.4 389.505 344.176C389.836 343.941 390.038 343.696 390.113 343.44H392.113C391.793 344.432 391.302 345.141 390.641 345.568C389.98 345.995 389.18 346.208 388.241 346.208C387.59 346.208 387.004 346.107 386.481 345.904C385.958 345.691 385.516 345.392 385.153 345.008C384.79 344.624 384.508 344.165 384.305 343.632C384.113 343.099 384.017 342.512 384.017 341.872C384.017 341.253 384.118 340.677 384.321 340.144C384.524 339.611 384.812 339.152 385.185 338.768C385.558 338.373 386.001 338.064 386.513 337.84C387.036 337.616 387.612 337.504 388.241 337.504C388.945 337.504 389.558 337.643 390.081 337.92C390.604 338.187 391.03 338.549 391.361 339.008C391.702 339.467 391.948 339.989 392.097 340.576C392.246 341.163 392.3 341.776 392.257 342.416H386.289ZM393.869 334.576H396.141V346H393.869V334.576Z" fill="black" fill-opacity="0.68"/>
<path d="M354.5 348H397.069V348.8H354.5V348Z" fill="black" fill-opacity="0.68"/>
<g clip-path="url(#clip2_75142_13463)">
<path d="M405.562 338.314L411.499 344.375L417.437 338.314L415.741 336.582L411.499 340.912L407.259 336.582L405.562 338.314Z" fill="#F15E00"/>
</g>
<path d="M181.268 447.548H184.244C185.108 447.559 185.737 447.383 186.132 447.02C186.537 446.657 186.74 446.135 186.74 445.452C186.74 444.769 186.537 444.252 186.132 443.9C185.737 443.537 185.108 443.356 184.244 443.356H181.268V447.548ZM179.748 442.076H184.756C185.908 442.076 186.777 442.375 187.364 442.972C187.961 443.559 188.26 444.385 188.26 445.452C188.26 446.519 187.961 447.351 187.364 447.948C186.777 448.545 185.908 448.839 184.756 448.828H181.268V453.5H179.748V442.076ZM189.851 445.228H191.131V446.972H191.163C191.494 446.3 191.899 445.804 192.379 445.484C192.859 445.164 193.467 445.015 194.203 445.036V446.476C193.659 446.476 193.195 446.551 192.811 446.7C192.427 446.849 192.118 447.068 191.883 447.356C191.648 447.644 191.478 447.996 191.371 448.412C191.264 448.817 191.211 449.287 191.211 449.82V453.5H189.851V445.228ZM200.69 448.572C200.669 448.252 200.594 447.948 200.466 447.66C200.349 447.372 200.183 447.127 199.97 446.924C199.767 446.711 199.522 446.545 199.234 446.428C198.957 446.3 198.647 446.236 198.306 446.236C197.954 446.236 197.634 446.3 197.346 446.428C197.069 446.545 196.829 446.711 196.626 446.924C196.423 447.137 196.263 447.388 196.146 447.676C196.029 447.953 195.959 448.252 195.938 448.572H200.69ZM202.002 450.876C201.821 451.804 201.421 452.503 200.802 452.972C200.183 453.441 199.405 453.676 198.466 453.676C197.805 453.676 197.229 453.569 196.738 453.356C196.258 453.143 195.853 452.844 195.522 452.46C195.191 452.076 194.941 451.617 194.77 451.084C194.61 450.551 194.519 449.969 194.498 449.34C194.498 448.711 194.594 448.135 194.786 447.612C194.978 447.089 195.245 446.636 195.586 446.252C195.938 445.868 196.349 445.569 196.818 445.356C197.298 445.143 197.821 445.036 198.386 445.036C199.122 445.036 199.73 445.191 200.21 445.5C200.701 445.799 201.09 446.183 201.378 446.652C201.677 447.121 201.879 447.633 201.986 448.188C202.103 448.743 202.151 449.271 202.13 449.772H195.938C195.927 450.135 195.97 450.481 196.066 450.812C196.162 451.132 196.317 451.42 196.53 451.676C196.743 451.921 197.015 452.119 197.346 452.268C197.677 452.417 198.066 452.492 198.514 452.492C199.09 452.492 199.559 452.359 199.922 452.092C200.295 451.825 200.541 451.42 200.658 450.876H202.002ZM204.372 450.892C204.382 451.191 204.452 451.447 204.58 451.66C204.708 451.863 204.873 452.028 205.076 452.156C205.289 452.273 205.524 452.359 205.78 452.412C206.046 452.465 206.318 452.492 206.596 452.492C206.809 452.492 207.033 452.476 207.268 452.444C207.502 452.412 207.716 452.353 207.908 452.268C208.11 452.183 208.276 452.06 208.404 451.9C208.532 451.729 208.596 451.516 208.596 451.26C208.596 450.908 208.462 450.641 208.196 450.46C207.929 450.279 207.593 450.135 207.188 450.028C206.793 449.911 206.361 449.809 205.892 449.724C205.422 449.628 204.985 449.5 204.58 449.34C204.185 449.169 203.854 448.935 203.588 448.636C203.321 448.337 203.188 447.921 203.188 447.388C203.188 446.972 203.278 446.615 203.46 446.316C203.652 446.017 203.892 445.777 204.18 445.596C204.478 445.404 204.809 445.265 205.172 445.18C205.545 445.084 205.913 445.036 206.276 445.036C206.745 445.036 207.177 445.079 207.572 445.164C207.966 445.239 208.313 445.377 208.612 445.58C208.921 445.772 209.166 446.039 209.348 446.38C209.529 446.711 209.636 447.127 209.668 447.628H208.308C208.286 447.361 208.217 447.143 208.1 446.972C207.982 446.791 207.833 446.647 207.652 446.54C207.47 446.433 207.268 446.359 207.044 446.316C206.83 446.263 206.612 446.236 206.388 446.236C206.185 446.236 205.977 446.252 205.764 446.284C205.561 446.316 205.374 446.375 205.204 446.46C205.033 446.535 204.894 446.641 204.788 446.78C204.681 446.908 204.628 447.079 204.628 447.292C204.628 447.527 204.708 447.724 204.868 447.884C205.038 448.033 205.252 448.161 205.508 448.268C205.764 448.364 206.052 448.449 206.372 448.524C206.692 448.588 207.012 448.657 207.332 448.732C207.673 448.807 208.004 448.897 208.324 449.004C208.654 449.111 208.942 449.255 209.188 449.436C209.444 449.607 209.646 449.825 209.796 450.092C209.956 450.359 210.036 450.689 210.036 451.084C210.036 451.585 209.929 452.001 209.716 452.332C209.513 452.663 209.241 452.929 208.9 453.132C208.569 453.335 208.19 453.473 207.764 453.548C207.348 453.633 206.932 453.676 206.516 453.676C206.057 453.676 205.62 453.628 205.204 453.532C204.788 453.436 204.42 453.281 204.1 453.068C203.78 452.844 203.524 452.556 203.332 452.204C203.14 451.841 203.033 451.404 203.012 450.892H204.372ZM212.372 450.892C212.382 451.191 212.452 451.447 212.58 451.66C212.708 451.863 212.873 452.028 213.076 452.156C213.289 452.273 213.524 452.359 213.78 452.412C214.046 452.465 214.318 452.492 214.596 452.492C214.809 452.492 215.033 452.476 215.268 452.444C215.502 452.412 215.716 452.353 215.908 452.268C216.11 452.183 216.276 452.06 216.404 451.9C216.532 451.729 216.596 451.516 216.596 451.26C216.596 450.908 216.462 450.641 216.196 450.46C215.929 450.279 215.593 450.135 215.188 450.028C214.793 449.911 214.361 449.809 213.892 449.724C213.422 449.628 212.985 449.5 212.58 449.34C212.185 449.169 211.854 448.935 211.588 448.636C211.321 448.337 211.188 447.921 211.188 447.388C211.188 446.972 211.278 446.615 211.46 446.316C211.652 446.017 211.892 445.777 212.18 445.596C212.478 445.404 212.809 445.265 213.172 445.18C213.545 445.084 213.913 445.036 214.276 445.036C214.745 445.036 215.177 445.079 215.572 445.164C215.966 445.239 216.313 445.377 216.612 445.58C216.921 445.772 217.166 446.039 217.348 446.38C217.529 446.711 217.636 447.127 217.668 447.628H216.308C216.286 447.361 216.217 447.143 216.1 446.972C215.982 446.791 215.833 446.647 215.652 446.54C215.47 446.433 215.268 446.359 215.044 446.316C214.83 446.263 214.612 446.236 214.388 446.236C214.185 446.236 213.977 446.252 213.764 446.284C213.561 446.316 213.374 446.375 213.204 446.46C213.033 446.535 212.894 446.641 212.788 446.78C212.681 446.908 212.628 447.079 212.628 447.292C212.628 447.527 212.708 447.724 212.868 447.884C213.038 448.033 213.252 448.161 213.508 448.268C213.764 448.364 214.052 448.449 214.372 448.524C214.692 448.588 215.012 448.657 215.332 448.732C215.673 448.807 216.004 448.897 216.324 449.004C216.654 449.111 216.942 449.255 217.188 449.436C217.444 449.607 217.646 449.825 217.796 450.092C217.956 450.359 218.036 450.689 218.036 451.084C218.036 451.585 217.929 452.001 217.716 452.332C217.513 452.663 217.241 452.929 216.9 453.132C216.569 453.335 216.19 453.473 215.764 453.548C215.348 453.633 214.932 453.676 214.516 453.676C214.057 453.676 213.62 453.628 213.204 453.532C212.788 453.436 212.42 453.281 212.1 453.068C211.78 452.844 211.524 452.556 211.332 452.204C211.14 451.841 211.033 451.404 211.012 450.892H212.372ZM225.284 448.572C225.262 448.252 225.188 447.948 225.06 447.66C224.942 447.372 224.777 447.127 224.564 446.924C224.361 446.711 224.116 446.545 223.828 446.428C223.55 446.3 223.241 446.236 222.9 446.236C222.548 446.236 222.228 446.3 221.94 446.428C221.662 446.545 221.422 446.711 221.22 446.924C221.017 447.137 220.857 447.388 220.74 447.676C220.622 447.953 220.553 448.252 220.532 448.572H225.284ZM226.596 450.876C226.414 451.804 226.014 452.503 225.396 452.972C224.777 453.441 223.998 453.676 223.06 453.676C222.398 453.676 221.822 453.569 221.332 453.356C220.852 453.143 220.446 452.844 220.116 452.46C219.785 452.076 219.534 451.617 219.364 451.084C219.204 450.551 219.113 449.969 219.092 449.34C219.092 448.711 219.188 448.135 219.38 447.612C219.572 447.089 219.838 446.636 220.18 446.252C220.532 445.868 220.942 445.569 221.412 445.356C221.892 445.143 222.414 445.036 222.98 445.036C223.716 445.036 224.324 445.191 224.804 445.5C225.294 445.799 225.684 446.183 225.972 446.652C226.27 447.121 226.473 447.633 226.58 448.188C226.697 448.743 226.745 449.271 226.724 449.772H220.532C220.521 450.135 220.564 450.481 220.66 450.812C220.756 451.132 220.91 451.42 221.124 451.676C221.337 451.921 221.609 452.119 221.94 452.268C222.27 452.417 222.66 452.492 223.108 452.492C223.684 452.492 224.153 452.359 224.516 452.092C224.889 451.825 225.134 451.42 225.252 450.876H226.596ZM229.125 449.436C229.125 449.82 229.173 450.199 229.269 450.572C229.376 450.935 229.531 451.26 229.733 451.548C229.947 451.836 230.213 452.065 230.533 452.236C230.864 452.407 231.248 452.492 231.685 452.492C232.144 452.492 232.533 452.401 232.853 452.22C233.173 452.039 233.435 451.804 233.637 451.516C233.84 451.217 233.984 450.881 234.069 450.508C234.165 450.135 234.213 449.756 234.213 449.372C234.213 448.967 234.165 448.577 234.069 448.204C233.973 447.82 233.819 447.484 233.605 447.196C233.403 446.908 233.136 446.679 232.805 446.508C232.475 446.327 232.075 446.236 231.605 446.236C231.147 446.236 230.757 446.327 230.437 446.508C230.117 446.689 229.861 446.929 229.669 447.228C229.477 447.527 229.339 447.868 229.253 448.252C229.168 448.636 229.125 449.031 229.125 449.436ZM235.525 453.5H234.165V452.38H234.133C233.909 452.839 233.557 453.169 233.077 453.372C232.597 453.575 232.069 453.676 231.493 453.676C230.853 453.676 230.293 453.559 229.813 453.324C229.344 453.089 228.949 452.775 228.629 452.38C228.32 451.985 228.085 451.527 227.925 451.004C227.765 450.481 227.685 449.927 227.685 449.34C227.685 448.753 227.76 448.199 227.909 447.676C228.069 447.153 228.304 446.7 228.613 446.316C228.933 445.921 229.328 445.612 229.797 445.388C230.277 445.153 230.832 445.036 231.461 445.036C231.675 445.036 231.904 445.057 232.149 445.1C232.395 445.143 232.64 445.217 232.885 445.324C233.131 445.42 233.36 445.553 233.573 445.724C233.797 445.884 233.984 446.087 234.133 446.332H234.165V442.076H235.525V453.5Z" fill="black" fill-opacity="0.68"/>
<path d="M355.604 442.576H358.116V451.888H363.684V454H355.604V442.576ZM364.952 448.272C364.984 447.739 365.118 447.296 365.352 446.944C365.587 446.592 365.886 446.309 366.248 446.096C366.611 445.883 367.016 445.733 367.464 445.648C367.923 445.552 368.382 445.504 368.84 445.504C369.256 445.504 369.678 445.536 370.104 445.6C370.531 445.653 370.92 445.765 371.272 445.936C371.624 446.107 371.912 446.347 372.136 446.656C372.36 446.955 372.472 447.355 372.472 447.856V452.16C372.472 452.533 372.494 452.891 372.536 453.232C372.579 453.573 372.654 453.829 372.76 454H370.456C370.414 453.872 370.376 453.744 370.344 453.616C370.323 453.477 370.307 453.339 370.296 453.2C369.934 453.573 369.507 453.835 369.016 453.984C368.526 454.133 368.024 454.208 367.512 454.208C367.118 454.208 366.75 454.16 366.408 454.064C366.067 453.968 365.768 453.819 365.512 453.616C365.256 453.413 365.054 453.157 364.904 452.848C364.766 452.539 364.696 452.171 364.696 451.744C364.696 451.275 364.776 450.891 364.936 450.592C365.107 450.283 365.32 450.037 365.576 449.856C365.843 449.675 366.142 449.541 366.472 449.456C366.814 449.36 367.155 449.285 367.496 449.232C367.838 449.179 368.174 449.136 368.504 449.104C368.835 449.072 369.128 449.024 369.384 448.96C369.64 448.896 369.843 448.805 369.992 448.688C370.142 448.56 370.211 448.379 370.2 448.144C370.2 447.899 370.158 447.707 370.072 447.568C369.998 447.419 369.891 447.307 369.752 447.232C369.624 447.147 369.47 447.093 369.288 447.072C369.118 447.04 368.931 447.024 368.728 447.024C368.28 447.024 367.928 447.12 367.672 447.312C367.416 447.504 367.267 447.824 367.224 448.272H364.952ZM370.2 449.952C370.104 450.037 369.982 450.107 369.832 450.16C369.694 450.203 369.539 450.24 369.368 450.272C369.208 450.304 369.038 450.331 368.856 450.352C368.675 450.373 368.494 450.4 368.312 450.432C368.142 450.464 367.971 450.507 367.8 450.56C367.64 450.613 367.496 450.688 367.368 450.784C367.251 450.869 367.155 450.981 367.08 451.12C367.006 451.259 366.968 451.435 366.968 451.648C366.968 451.851 367.006 452.021 367.08 452.16C367.155 452.299 367.256 452.411 367.384 452.496C367.512 452.571 367.662 452.624 367.832 452.656C368.003 452.688 368.179 452.704 368.36 452.704C368.808 452.704 369.155 452.629 369.4 452.48C369.646 452.331 369.827 452.155 369.944 451.952C370.062 451.739 370.131 451.525 370.152 451.312C370.184 451.099 370.2 450.928 370.2 450.8V449.952ZM380.5 449.872C380.5 449.52 380.463 449.184 380.388 448.864C380.313 448.544 380.196 448.261 380.036 448.016C379.876 447.771 379.673 447.579 379.428 447.44C379.193 447.291 378.905 447.216 378.564 447.216C378.233 447.216 377.945 447.291 377.7 447.44C377.455 447.579 377.252 447.771 377.092 448.016C376.932 448.261 376.815 448.544 376.74 448.864C376.665 449.184 376.628 449.52 376.628 449.872C376.628 450.213 376.665 450.544 376.74 450.864C376.815 451.184 376.932 451.467 377.092 451.712C377.252 451.957 377.455 452.155 377.7 452.304C377.945 452.443 378.233 452.512 378.564 452.512C378.905 452.512 379.193 452.443 379.428 452.304C379.673 452.155 379.876 451.957 380.036 451.712C380.196 451.467 380.313 451.184 380.388 450.864C380.463 450.544 380.5 450.213 380.5 449.872ZM374.436 442.576H376.708V446.736H376.74C377.017 446.309 377.391 446 377.86 445.808C378.34 445.605 378.836 445.504 379.348 445.504C379.764 445.504 380.175 445.589 380.58 445.76C380.985 445.931 381.348 446.192 381.668 446.544C381.999 446.896 382.265 447.349 382.468 447.904C382.671 448.448 382.772 449.099 382.772 449.856C382.772 450.613 382.671 451.269 382.468 451.824C382.265 452.368 381.999 452.816 381.668 453.168C381.348 453.52 380.985 453.781 380.58 453.952C380.175 454.123 379.764 454.208 379.348 454.208C378.74 454.208 378.196 454.112 377.716 453.92C377.236 453.728 376.873 453.403 376.628 452.944H376.596V454H374.436V442.576ZM389.985 448.976C389.878 448.4 389.686 447.963 389.409 447.664C389.142 447.365 388.732 447.216 388.177 447.216C387.814 447.216 387.51 447.28 387.265 447.408C387.03 447.525 386.838 447.675 386.689 447.856C386.55 448.037 386.449 448.229 386.385 448.432C386.332 448.635 386.3 448.816 386.289 448.976H389.985ZM386.289 450.416C386.321 451.152 386.508 451.685 386.849 452.016C387.19 452.347 387.681 452.512 388.321 452.512C388.78 452.512 389.174 452.4 389.505 452.176C389.836 451.941 390.038 451.696 390.113 451.44H392.113C391.793 452.432 391.302 453.141 390.641 453.568C389.98 453.995 389.18 454.208 388.241 454.208C387.59 454.208 387.004 454.107 386.481 453.904C385.958 453.691 385.516 453.392 385.153 453.008C384.79 452.624 384.508 452.165 384.305 451.632C384.113 451.099 384.017 450.512 384.017 449.872C384.017 449.253 384.118 448.677 384.321 448.144C384.524 447.611 384.812 447.152 385.185 446.768C385.558 446.373 386.001 446.064 386.513 445.84C387.036 445.616 387.612 445.504 388.241 445.504C388.945 445.504 389.558 445.643 390.081 445.92C390.604 446.187 391.03 446.549 391.361 447.008C391.702 447.467 391.948 447.989 392.097 448.576C392.246 449.163 392.3 449.776 392.257 450.416H386.289ZM393.869 442.576H396.141V454H393.869V442.576Z" fill="#F15E00"/>
<path d="M354.5 456H397.069V456.8H354.5V456Z" fill="#F15E00"/>
<g clip-path="url(#clip3_75142_13463)">
<path d="M405.562 446.314L411.499 452.375L417.437 446.314L415.741 444.582L411.499 448.912L407.259 444.582L405.562 446.314Z" fill="#F15E00"/>
</g>
<path d="M181.268 560.22H183.796C183.967 560.22 184.18 560.209 184.436 560.188C184.692 560.156 184.964 560.092 185.252 559.996C185.54 559.889 185.823 559.74 186.1 559.548C186.388 559.356 186.644 559.095 186.868 558.764C187.092 558.433 187.273 558.023 187.412 557.532C187.561 557.031 187.636 556.428 187.636 555.724C187.636 555.041 187.567 554.433 187.428 553.9C187.3 553.356 187.081 552.897 186.772 552.524C186.473 552.14 186.084 551.852 185.604 551.66C185.124 551.457 184.532 551.356 183.828 551.356H181.268V560.22ZM179.748 550.076H183.668C185.428 550.076 186.783 550.524 187.732 551.42C188.681 552.316 189.156 553.681 189.156 555.516C189.156 556.476 189.049 557.329 188.836 558.076C188.623 558.812 188.292 559.436 187.844 559.948C187.396 560.449 186.825 560.833 186.132 561.1C185.439 561.367 184.617 561.5 183.668 561.5H179.748V550.076ZM192.23 551.74H190.87V550.076H192.23V551.74ZM190.87 553.228H192.23V561.5H190.87V553.228ZM195.169 558.892C195.179 559.191 195.249 559.447 195.377 559.66C195.505 559.863 195.67 560.028 195.873 560.156C196.086 560.273 196.321 560.359 196.577 560.412C196.843 560.465 197.115 560.492 197.393 560.492C197.606 560.492 197.83 560.476 198.065 560.444C198.299 560.412 198.513 560.353 198.705 560.268C198.907 560.183 199.073 560.06 199.201 559.9C199.329 559.729 199.393 559.516 199.393 559.26C199.393 558.908 199.259 558.641 198.993 558.46C198.726 558.279 198.39 558.135 197.985 558.028C197.59 557.911 197.158 557.809 196.689 557.724C196.219 557.628 195.782 557.5 195.377 557.34C194.982 557.169 194.651 556.935 194.385 556.636C194.118 556.337 193.985 555.921 193.985 555.388C193.985 554.972 194.075 554.615 194.257 554.316C194.449 554.017 194.689 553.777 194.977 553.596C195.275 553.404 195.606 553.265 195.969 553.18C196.342 553.084 196.71 553.036 197.073 553.036C197.542 553.036 197.974 553.079 198.369 553.164C198.763 553.239 199.11 553.377 199.409 553.58C199.718 553.772 199.963 554.039 200.145 554.38C200.326 554.711 200.433 555.127 200.465 555.628H199.105C199.083 555.361 199.014 555.143 198.897 554.972C198.779 554.791 198.63 554.647 198.449 554.54C198.267 554.433 198.065 554.359 197.841 554.316C197.627 554.263 197.409 554.236 197.185 554.236C196.982 554.236 196.774 554.252 196.561 554.284C196.358 554.316 196.171 554.375 196.001 554.46C195.83 554.535 195.691 554.641 195.585 554.78C195.478 554.908 195.424 555.079 195.424 555.292C195.424 555.527 195.504 555.724 195.664 555.884C195.835 556.033 196.049 556.161 196.305 556.268C196.561 556.364 196.849 556.449 197.169 556.524C197.489 556.588 197.809 556.657 198.129 556.732C198.47 556.807 198.801 556.897 199.121 557.004C199.451 557.111 199.739 557.255 199.985 557.436C200.241 557.607 200.443 557.825 200.593 558.092C200.753 558.359 200.833 558.689 200.833 559.084C200.833 559.585 200.726 560.001 200.513 560.332C200.31 560.663 200.038 560.929 199.697 561.132C199.366 561.335 198.987 561.473 198.561 561.548C198.145 561.633 197.729 561.676 197.312 561.676C196.854 561.676 196.417 561.628 196.001 561.532C195.585 561.436 195.217 561.281 194.897 561.068C194.577 560.844 194.321 560.556 194.129 560.204C193.937 559.841 193.83 559.404 193.809 558.892H195.169ZM209.665 561.468C209.43 561.607 209.105 561.676 208.689 561.676C208.337 561.676 208.054 561.58 207.841 561.388C207.638 561.185 207.537 560.86 207.537 560.412C207.163 560.86 206.726 561.185 206.225 561.388C205.734 561.58 205.201 561.676 204.625 561.676C204.251 561.676 203.894 561.633 203.553 561.548C203.222 561.463 202.934 561.329 202.689 561.148C202.443 560.967 202.246 560.732 202.097 560.444C201.958 560.145 201.889 559.788 201.889 559.372C201.889 558.903 201.969 558.519 202.129 558.22C202.289 557.921 202.497 557.681 202.753 557.5C203.019 557.308 203.318 557.164 203.649 557.068C203.99 556.972 204.337 556.892 204.689 556.828C205.062 556.753 205.414 556.7 205.745 556.668C206.086 556.625 206.385 556.572 206.641 556.508C206.897 556.433 207.099 556.332 207.249 556.204C207.398 556.065 207.473 555.868 207.473 555.612C207.473 555.313 207.414 555.073 207.297 554.892C207.19 554.711 207.046 554.572 206.865 554.476C206.694 554.38 206.497 554.316 206.273 554.284C206.059 554.252 205.846 554.236 205.633 554.236C205.057 554.236 204.577 554.348 204.193 554.572C203.809 554.785 203.601 555.196 203.569 555.804H202.209C202.23 555.292 202.337 554.86 202.529 554.508C202.721 554.156 202.977 553.873 203.297 553.66C203.617 553.436 203.979 553.276 204.385 553.18C204.801 553.084 205.243 553.036 205.713 553.036C206.086 553.036 206.454 553.063 206.817 553.116C207.19 553.169 207.526 553.281 207.825 553.452C208.123 553.612 208.363 553.841 208.545 554.14C208.726 554.439 208.817 554.828 208.817 555.308V559.564C208.817 559.884 208.833 560.119 208.865 560.268C208.907 560.417 209.035 560.492 209.249 560.492C209.366 560.492 209.505 560.465 209.665 560.412V561.468ZM207.457 557.228C207.286 557.356 207.062 557.452 206.785 557.516C206.507 557.569 206.214 557.617 205.905 557.66C205.606 557.692 205.302 557.735 204.993 557.788C204.683 557.831 204.406 557.905 204.161 558.012C203.915 558.119 203.713 558.273 203.553 558.476C203.403 558.668 203.329 558.935 203.329 559.276C203.329 559.5 203.371 559.692 203.457 559.852C203.553 560.001 203.67 560.124 203.809 560.22C203.958 560.316 204.129 560.385 204.321 560.428C204.513 560.471 204.715 560.492 204.929 560.492C205.377 560.492 205.761 560.433 206.081 560.316C206.401 560.188 206.662 560.033 206.865 559.852C207.067 559.66 207.217 559.457 207.313 559.244C207.409 559.02 207.457 558.812 207.457 558.62V557.228ZM210.978 550.076H212.338V554.348H212.37C212.594 553.889 212.946 553.559 213.426 553.356C213.906 553.143 214.434 553.036 215.01 553.036C215.65 553.036 216.205 553.153 216.674 553.388C217.154 553.623 217.549 553.943 217.858 554.348C218.178 554.743 218.418 555.201 218.578 555.724C218.738 556.247 218.818 556.801 218.818 557.388C218.818 557.975 218.738 558.529 218.578 559.052C218.429 559.575 218.194 560.033 217.874 560.428C217.565 560.812 217.17 561.116 216.69 561.34C216.221 561.564 215.672 561.676 215.042 561.676C214.84 561.676 214.61 561.655 214.354 561.612C214.109 561.569 213.864 561.5 213.618 561.404C213.373 561.308 213.138 561.18 212.914 561.02C212.701 560.849 212.52 560.641 212.37 560.396H212.338V561.5H210.978V550.076ZM217.378 557.292C217.378 556.908 217.325 556.535 217.218 556.172C217.122 555.799 216.968 555.468 216.754 555.18C216.552 554.892 216.285 554.663 215.954 554.492C215.634 554.321 215.256 554.236 214.818 554.236C214.36 554.236 213.97 554.327 213.65 554.508C213.33 554.689 213.069 554.929 212.866 555.228C212.664 555.516 212.514 555.847 212.418 556.22C212.333 556.593 212.29 556.972 212.29 557.356C212.29 557.761 212.338 558.156 212.434 558.54C212.53 558.913 212.68 559.244 212.882 559.532C213.096 559.82 213.368 560.055 213.698 560.236C214.029 560.407 214.429 560.492 214.898 560.492C215.368 560.492 215.757 560.401 216.066 560.22C216.386 560.039 216.642 559.799 216.834 559.5C217.026 559.201 217.165 558.86 217.25 558.476C217.336 558.092 217.378 557.697 217.378 557.292ZM220.495 550.076H221.855V561.5H220.495V550.076ZM229.706 556.572C229.684 556.252 229.61 555.948 229.482 555.66C229.364 555.372 229.199 555.127 228.986 554.924C228.783 554.711 228.538 554.545 228.25 554.428C227.972 554.3 227.663 554.236 227.322 554.236C226.97 554.236 226.65 554.3 226.362 554.428C226.084 554.545 225.844 554.711 225.642 554.924C225.439 555.137 225.279 555.388 225.162 555.676C225.044 555.953 224.975 556.252 224.954 556.572H229.706ZM231.017 558.876C230.836 559.804 230.436 560.503 229.818 560.972C229.199 561.441 228.42 561.676 227.482 561.676C226.82 561.676 226.244 561.569 225.754 561.356C225.274 561.143 224.868 560.844 224.538 560.46C224.207 560.076 223.956 559.617 223.786 559.084C223.626 558.551 223.535 557.969 223.514 557.34C223.514 556.711 223.61 556.135 223.802 555.612C223.994 555.089 224.26 554.636 224.602 554.252C224.954 553.868 225.364 553.569 225.834 553.356C226.314 553.143 226.836 553.036 227.402 553.036C228.138 553.036 228.746 553.191 229.226 553.5C229.716 553.799 230.106 554.183 230.394 554.652C230.692 555.121 230.895 555.633 231.002 556.188C231.119 556.743 231.167 557.271 231.146 557.772H224.954C224.943 558.135 224.986 558.481 225.082 558.812C225.178 559.132 225.332 559.42 225.546 559.676C225.759 559.921 226.031 560.119 226.362 560.268C226.692 560.417 227.082 560.492 227.53 560.492C228.106 560.492 228.575 560.359 228.938 560.092C229.311 559.825 229.556 559.42 229.674 558.876H231.017ZM233.547 557.436C233.547 557.82 233.595 558.199 233.691 558.572C233.798 558.935 233.953 559.26 234.155 559.548C234.369 559.836 234.635 560.065 234.955 560.236C235.286 560.407 235.67 560.492 236.107 560.492C236.566 560.492 236.955 560.401 237.275 560.22C237.595 560.039 237.857 559.804 238.059 559.516C238.262 559.217 238.406 558.881 238.491 558.508C238.587 558.135 238.635 557.756 238.635 557.372C238.635 556.967 238.587 556.577 238.491 556.204C238.395 555.82 238.241 555.484 238.027 555.196C237.825 554.908 237.558 554.679 237.227 554.508C236.897 554.327 236.497 554.236 236.027 554.236C235.569 554.236 235.179 554.327 234.859 554.508C234.539 554.689 234.283 554.929 234.091 555.228C233.899 555.527 233.761 555.868 233.675 556.252C233.59 556.636 233.547 557.031 233.547 557.436ZM239.947 561.5H238.587V560.38H238.555C238.331 560.839 237.979 561.169 237.499 561.372C237.019 561.575 236.491 561.676 235.915 561.676C235.275 561.676 234.715 561.559 234.235 561.324C233.766 561.089 233.371 560.775 233.051 560.38C232.742 559.985 232.507 559.527 232.347 559.004C232.187 558.481 232.107 557.927 232.107 557.34C232.107 556.753 232.182 556.199 232.331 555.676C232.491 555.153 232.726 554.7 233.035 554.316C233.355 553.921 233.75 553.612 234.219 553.388C234.699 553.153 235.254 553.036 235.883 553.036C236.097 553.036 236.326 553.057 236.571 553.1C236.817 553.143 237.062 553.217 237.307 553.324C237.553 553.42 237.782 553.553 237.995 553.724C238.219 553.884 238.406 554.087 238.555 554.332H238.587V550.076H239.947V561.5Z" fill="black" fill-opacity="0.68"/>
<path d="M355.604 550.576H358.116V559.888H363.684V562H355.604V550.576ZM364.952 556.272C364.984 555.739 365.118 555.296 365.352 554.944C365.587 554.592 365.886 554.309 366.248 554.096C366.611 553.883 367.016 553.733 367.464 553.648C367.923 553.552 368.382 553.504 368.84 553.504C369.256 553.504 369.678 553.536 370.104 553.6C370.531 553.653 370.92 553.765 371.272 553.936C371.624 554.107 371.912 554.347 372.136 554.656C372.36 554.955 372.472 555.355 372.472 555.856V560.16C372.472 560.533 372.494 560.891 372.536 561.232C372.579 561.573 372.654 561.829 372.76 562H370.456C370.414 561.872 370.376 561.744 370.344 561.616C370.323 561.477 370.307 561.339 370.296 561.2C369.934 561.573 369.507 561.835 369.016 561.984C368.526 562.133 368.024 562.208 367.512 562.208C367.118 562.208 366.75 562.16 366.408 562.064C366.067 561.968 365.768 561.819 365.512 561.616C365.256 561.413 365.054 561.157 364.904 560.848C364.766 560.539 364.696 560.171 364.696 559.744C364.696 559.275 364.776 558.891 364.936 558.592C365.107 558.283 365.32 558.037 365.576 557.856C365.843 557.675 366.142 557.541 366.472 557.456C366.814 557.36 367.155 557.285 367.496 557.232C367.838 557.179 368.174 557.136 368.504 557.104C368.835 557.072 369.128 557.024 369.384 556.96C369.64 556.896 369.843 556.805 369.992 556.688C370.142 556.56 370.211 556.379 370.2 556.144C370.2 555.899 370.158 555.707 370.072 555.568C369.998 555.419 369.891 555.307 369.752 555.232C369.624 555.147 369.47 555.093 369.288 555.072C369.118 555.04 368.931 555.024 368.728 555.024C368.28 555.024 367.928 555.12 367.672 555.312C367.416 555.504 367.267 555.824 367.224 556.272H364.952ZM370.2 557.952C370.104 558.037 369.982 558.107 369.832 558.16C369.694 558.203 369.539 558.24 369.368 558.272C369.208 558.304 369.038 558.331 368.856 558.352C368.675 558.373 368.494 558.4 368.312 558.432C368.142 558.464 367.971 558.507 367.8 558.56C367.64 558.613 367.496 558.688 367.368 558.784C367.251 558.869 367.155 558.981 367.08 559.12C367.006 559.259 366.968 559.435 366.968 559.648C366.968 559.851 367.006 560.021 367.08 560.16C367.155 560.299 367.256 560.411 367.384 560.496C367.512 560.571 367.662 560.624 367.832 560.656C368.003 560.688 368.179 560.704 368.36 560.704C368.808 560.704 369.155 560.629 369.4 560.48C369.646 560.331 369.827 560.155 369.944 559.952C370.062 559.739 370.131 559.525 370.152 559.312C370.184 559.099 370.2 558.928 370.2 558.8V557.952ZM380.5 557.872C380.5 557.52 380.463 557.184 380.388 556.864C380.313 556.544 380.196 556.261 380.036 556.016C379.876 555.771 379.673 555.579 379.428 555.44C379.193 555.291 378.905 555.216 378.564 555.216C378.233 555.216 377.945 555.291 377.7 555.44C377.455 555.579 377.252 555.771 377.092 556.016C376.932 556.261 376.815 556.544 376.74 556.864C376.665 557.184 376.628 557.52 376.628 557.872C376.628 558.213 376.665 558.544 376.74 558.864C376.815 559.184 376.932 559.467 377.092 559.712C377.252 559.957 377.455 560.155 377.7 560.304C377.945 560.443 378.233 560.512 378.564 560.512C378.905 560.512 379.193 560.443 379.428 560.304C379.673 560.155 379.876 559.957 380.036 559.712C380.196 559.467 380.313 559.184 380.388 558.864C380.463 558.544 380.5 558.213 380.5 557.872ZM374.436 550.576H376.708V554.736H376.74C377.017 554.309 377.391 554 377.86 553.808C378.34 553.605 378.836 553.504 379.348 553.504C379.764 553.504 380.175 553.589 380.58 553.76C380.985 553.931 381.348 554.192 381.668 554.544C381.999 554.896 382.265 555.349 382.468 555.904C382.671 556.448 382.772 557.099 382.772 557.856C382.772 558.613 382.671 559.269 382.468 559.824C382.265 560.368 381.999 560.816 381.668 561.168C381.348 561.52 380.985 561.781 380.58 561.952C380.175 562.123 379.764 562.208 379.348 562.208C378.74 562.208 378.196 562.112 377.716 561.92C377.236 561.728 376.873 561.403 376.628 560.944H376.596V562H374.436V550.576ZM389.985 556.976C389.878 556.4 389.686 555.963 389.409 555.664C389.142 555.365 388.732 555.216 388.177 555.216C387.814 555.216 387.51 555.28 387.265 555.408C387.03 555.525 386.838 555.675 386.689 555.856C386.55 556.037 386.449 556.229 386.385 556.432C386.332 556.635 386.3 556.816 386.289 556.976H389.985ZM386.289 558.416C386.321 559.152 386.508 559.685 386.849 560.016C387.19 560.347 387.681 560.512 388.321 560.512C388.78 560.512 389.174 560.4 389.505 560.176C389.836 559.941 390.038 559.696 390.113 559.44H392.113C391.793 560.432 391.302 561.141 390.641 561.568C389.98 561.995 389.18 562.208 388.241 562.208C387.59 562.208 387.004 562.107 386.481 561.904C385.958 561.691 385.516 561.392 385.153 561.008C384.79 560.624 384.508 560.165 384.305 559.632C384.113 559.099 384.017 558.512 384.017 557.872C384.017 557.253 384.118 556.677 384.321 556.144C384.524 555.611 384.812 555.152 385.185 554.768C385.558 554.373 386.001 554.064 386.513 553.84C387.036 553.616 387.612 553.504 388.241 553.504C388.945 553.504 389.558 553.643 390.081 553.92C390.604 554.187 391.03 554.549 391.361 555.008C391.702 555.467 391.948 555.989 392.097 556.576C392.246 557.163 392.3 557.776 392.257 558.416H386.289ZM393.869 550.576H396.141V562H393.869V550.576Z" fill="black" fill-opacity="0.2"/>
<path d="M354.5 564H397.069V564.8H354.5V564Z" fill="black" fill-opacity="0.2"/>
<g clip-path="url(#clip4_75142_13463)">
<path d="M405.562 554.314L411.499 560.375L417.437 554.314L415.741 552.582L411.499 556.912L407.259 552.582L405.562 554.314Z" fill="black" fill-opacity="0.2"/>
</g>
<path d="M186.356 661.42C186.271 660.599 185.972 660.007 185.46 659.644C184.959 659.271 184.313 659.084 183.524 659.084C183.204 659.084 182.889 659.116 182.58 659.18C182.271 659.244 181.993 659.351 181.748 659.5C181.513 659.649 181.321 659.852 181.172 660.108C181.033 660.353 180.964 660.663 180.964 661.036C180.964 661.388 181.065 661.676 181.268 661.9C181.481 662.113 181.759 662.289 182.1 662.428C182.452 662.567 182.847 662.684 183.284 662.78C183.721 662.865 184.164 662.961 184.612 663.068C185.071 663.175 185.519 663.303 185.956 663.452C186.393 663.591 186.783 663.783 187.124 664.028C187.476 664.273 187.753 664.583 187.956 664.956C188.169 665.329 188.276 665.799 188.276 666.364C188.276 666.972 188.137 667.495 187.86 667.932C187.593 668.359 187.247 668.711 186.82 668.988C186.393 669.255 185.913 669.447 185.38 669.564C184.857 669.692 184.335 669.756 183.812 669.756C183.172 669.756 182.564 669.676 181.988 669.516C181.423 669.356 180.921 669.116 180.484 668.796C180.057 668.465 179.716 668.049 179.46 667.548C179.215 667.036 179.092 666.433 179.092 665.74H180.532C180.532 666.22 180.623 666.636 180.804 666.988C180.996 667.329 181.241 667.612 181.54 667.836C181.849 668.06 182.207 668.225 182.612 668.332C183.017 668.439 183.433 668.492 183.86 668.492C184.201 668.492 184.543 668.46 184.884 668.396C185.236 668.332 185.551 668.225 185.828 668.076C186.105 667.916 186.329 667.703 186.5 667.436C186.671 667.169 186.756 666.828 186.756 666.412C186.756 666.017 186.649 665.697 186.436 665.452C186.233 665.207 185.956 665.009 185.604 664.86C185.263 664.7 184.873 664.572 184.436 664.476C183.999 664.38 183.551 664.284 183.092 664.188C182.644 664.081 182.201 663.964 181.764 663.836C181.327 663.697 180.932 663.521 180.58 663.308C180.239 663.084 179.961 662.801 179.748 662.46C179.545 662.108 179.444 661.671 179.444 661.148C179.444 660.572 179.561 660.076 179.796 659.66C180.031 659.233 180.34 658.887 180.724 658.62C181.119 658.343 181.561 658.14 182.052 658.012C182.553 657.873 183.065 657.804 183.588 657.804C184.175 657.804 184.719 657.873 185.22 658.012C185.721 658.151 186.159 658.369 186.532 658.668C186.916 658.967 187.215 659.345 187.428 659.804C187.652 660.252 187.775 660.791 187.796 661.42H186.356ZM189.979 658.076H191.339V664.844L195.115 661.228H196.939L193.659 664.236L197.179 669.5H195.451L192.619 665.18L191.339 666.364V669.5H189.979V658.076ZM203.94 664.572C203.919 664.252 203.844 663.948 203.716 663.66C203.599 663.372 203.433 663.127 203.22 662.924C203.017 662.711 202.772 662.545 202.484 662.428C202.207 662.3 201.897 662.236 201.556 662.236C201.204 662.236 200.884 662.3 200.596 662.428C200.319 662.545 200.079 662.711 199.876 662.924C199.673 663.137 199.513 663.388 199.396 663.676C199.279 663.953 199.209 664.252 199.188 664.572H203.94ZM205.252 666.876C205.071 667.804 204.671 668.503 204.052 668.972C203.433 669.441 202.655 669.676 201.716 669.676C201.055 669.676 200.479 669.569 199.988 669.356C199.508 669.143 199.103 668.844 198.772 668.46C198.441 668.076 198.191 667.617 198.02 667.084C197.86 666.551 197.769 665.969 197.748 665.34C197.748 664.711 197.844 664.135 198.036 663.612C198.228 663.089 198.495 662.636 198.836 662.252C199.188 661.868 199.599 661.569 200.068 661.356C200.548 661.143 201.071 661.036 201.636 661.036C202.372 661.036 202.98 661.191 203.46 661.5C203.951 661.799 204.34 662.183 204.628 662.652C204.927 663.121 205.129 663.633 205.236 664.188C205.353 664.743 205.401 665.271 205.38 665.772H199.188C199.177 666.135 199.22 666.481 199.316 666.812C199.412 667.132 199.567 667.42 199.78 667.676C199.993 667.921 200.265 668.119 200.596 668.268C200.927 668.417 201.316 668.492 201.764 668.492C202.34 668.492 202.809 668.359 203.172 668.092C203.545 667.825 203.791 667.42 203.908 666.876H205.252ZM206.87 658.076H208.23V669.5H206.87V658.076ZM216.081 664.572C216.059 664.252 215.985 663.948 215.857 663.66C215.739 663.372 215.574 663.127 215.361 662.924C215.158 662.711 214.913 662.545 214.625 662.428C214.347 662.3 214.038 662.236 213.697 662.236C213.345 662.236 213.025 662.3 212.737 662.428C212.459 662.545 212.219 662.711 212.017 662.924C211.814 663.137 211.654 663.388 211.537 663.676C211.419 663.953 211.35 664.252 211.329 664.572H216.081ZM217.392 666.876C217.211 667.804 216.811 668.503 216.193 668.972C215.574 669.441 214.795 669.676 213.857 669.676C213.195 669.676 212.619 669.569 212.129 669.356C211.649 669.143 211.243 668.844 210.913 668.46C210.582 668.076 210.331 667.617 210.161 667.084C210.001 666.551 209.91 665.969 209.889 665.34C209.889 664.711 209.985 664.135 210.177 663.612C210.369 663.089 210.635 662.636 210.977 662.252C211.329 661.868 211.739 661.569 212.209 661.356C212.689 661.143 213.211 661.036 213.777 661.036C214.513 661.036 215.121 661.191 215.601 661.5C216.091 661.799 216.481 662.183 216.769 662.652C217.067 663.121 217.27 663.633 217.377 664.188C217.494 664.743 217.542 665.271 217.521 665.772H211.329C211.318 666.135 211.361 666.481 211.457 666.812C211.553 667.132 211.707 667.42 211.921 667.676C212.134 667.921 212.406 668.119 212.737 668.268C213.067 668.417 213.457 668.492 213.905 668.492C214.481 668.492 214.95 668.359 215.313 668.092C215.686 667.825 215.931 667.42 216.049 666.876H217.392ZM220.818 661.228H222.466V662.428H220.818V667.564C220.818 667.724 220.829 667.852 220.85 667.948C220.882 668.044 220.936 668.119 221.01 668.172C221.085 668.225 221.186 668.263 221.314 668.284C221.453 668.295 221.629 668.3 221.842 668.3H222.466V669.5H221.426C221.074 669.5 220.77 669.479 220.514 669.436C220.269 669.383 220.066 669.292 219.906 669.164C219.757 669.036 219.645 668.855 219.57 668.62C219.496 668.385 219.458 668.076 219.458 667.692V662.428H218.05V661.228H219.458V658.748H220.818V661.228ZM224.969 665.372C224.969 665.873 225.033 666.321 225.161 666.716C225.3 667.1 225.486 667.425 225.721 667.692C225.956 667.948 226.228 668.145 226.537 668.284C226.857 668.423 227.193 668.492 227.545 668.492C227.897 668.492 228.228 668.423 228.537 668.284C228.857 668.145 229.134 667.948 229.369 667.692C229.604 667.425 229.785 667.1 229.913 666.716C230.052 666.321 230.121 665.873 230.121 665.372C230.121 664.871 230.052 664.428 229.913 664.044C229.785 663.649 229.604 663.319 229.369 663.052C229.134 662.785 228.857 662.583 228.537 662.444C228.228 662.305 227.897 662.236 227.545 662.236C227.193 662.236 226.857 662.305 226.537 662.444C226.228 662.583 225.956 662.785 225.721 663.052C225.486 663.319 225.3 663.649 225.161 664.044C225.033 664.428 224.969 664.871 224.969 665.372ZM223.529 665.372C223.529 664.764 223.614 664.199 223.785 663.676C223.956 663.143 224.212 662.684 224.553 662.3C224.894 661.905 225.316 661.596 225.817 661.372C226.318 661.148 226.894 661.036 227.545 661.036C228.206 661.036 228.782 661.148 229.273 661.372C229.774 661.596 230.196 661.905 230.537 662.3C230.878 662.684 231.134 663.143 231.305 663.676C231.476 664.199 231.561 664.764 231.561 665.372C231.561 665.98 231.476 666.545 231.305 667.068C231.134 667.591 230.878 668.049 230.537 668.444C230.196 668.828 229.774 669.132 229.273 669.356C228.782 669.569 228.206 669.676 227.545 669.676C226.894 669.676 226.318 669.569 225.817 669.356C225.316 669.132 224.894 668.828 224.553 668.444C224.212 668.049 223.956 667.591 223.785 667.068C223.614 666.545 223.529 665.98 223.529 665.372ZM233.165 661.228H234.445V662.54H234.477C235.042 661.537 235.938 661.036 237.165 661.036C237.709 661.036 238.162 661.111 238.525 661.26C238.887 661.409 239.181 661.617 239.405 661.884C239.629 662.151 239.783 662.471 239.869 662.844C239.965 663.207 240.013 663.612 240.013 664.06V669.5H238.653V663.9C238.653 663.388 238.503 662.983 238.205 662.684C237.906 662.385 237.495 662.236 236.973 662.236C236.557 662.236 236.194 662.3 235.885 662.428C235.586 662.556 235.335 662.737 235.133 662.972C234.93 663.207 234.775 663.484 234.669 663.804C234.573 664.113 234.525 664.455 234.525 664.828V669.5H233.165V661.228Z" fill="black" fill-opacity="0.68"/>
<g clip-path="url(#clip5_75142_13463)">
<rect width="67" height="48" transform="translate(354.5 640)" fill="black" fill-opacity="0.04"/>
</g>
<defs>
<clipPath id="clip0_75142_13463">
<rect width="20" height="20" fill="white" transform="translate(401.5 114)"/>
</clipPath>
<clipPath id="clip1_75142_13463">
<rect width="20" height="20" fill="white" transform="translate(401.5 222)"/>
</clipPath>
<clipPath id="clip2_75142_13463">
<rect width="20" height="20" fill="white" transform="translate(401.5 330)"/>
</clipPath>
<clipPath id="clip3_75142_13463">
<rect width="20" height="20" fill="white" transform="translate(401.5 438)"/>
</clipPath>
<clipPath id="clip4_75142_13463">
<rect width="20" height="20" fill="white" transform="translate(401.5 546)"/>
</clipPath>
<clipPath id="clip5_75142_13463">
<rect width="67" height="48" fill="white" transform="translate(354.5 640)"/>
</clipPath>
</defs>
</svg>
