<svg width="600" height="252" viewBox="0 0 600 252" fill="none" xmlns="http://www.w3.org/2000/svg">
<rect width="600" height="252" fill="black" fill-opacity="0.04"/>
<path d="M181.268 83.22H183.796C183.967 83.22 184.18 83.2093 184.436 83.188C184.692 83.156 184.964 83.092 185.252 82.996C185.54 82.8893 185.823 82.74 186.1 82.548C186.388 82.356 186.644 82.0947 186.868 81.764C187.092 81.4333 187.273 81.0227 187.412 80.532C187.561 80.0307 187.636 79.428 187.636 78.724C187.636 78.0413 187.567 77.4333 187.428 76.9C187.3 76.356 187.081 75.8973 186.772 75.524C186.473 75.14 186.084 74.852 185.604 74.66C185.124 74.4573 184.532 74.356 183.828 74.356H181.268V83.22ZM179.748 73.076H183.668C185.428 73.076 186.783 73.524 187.732 74.42C188.681 75.316 189.156 76.6813 189.156 78.516C189.156 79.476 189.049 80.3293 188.836 81.076C188.623 81.812 188.292 82.436 187.844 82.948C187.396 83.4493 186.825 83.8333 186.132 84.1C185.439 84.3667 184.617 84.5 183.668 84.5H179.748V73.076ZM196.534 79.572C196.512 79.252 196.438 78.948 196.31 78.66C196.192 78.372 196.027 78.1267 195.814 77.924C195.611 77.7107 195.366 77.5453 195.078 77.428C194.8 77.3 194.491 77.236 194.15 77.236C193.798 77.236 193.478 77.3 193.19 77.428C192.912 77.5453 192.672 77.7107 192.47 77.924C192.267 78.1373 192.107 78.388 191.99 78.676C191.872 78.9533 191.803 79.252 191.782 79.572H196.534ZM197.846 81.876C197.664 82.804 197.264 83.5027 196.646 83.972C196.027 84.4413 195.248 84.676 194.31 84.676C193.648 84.676 193.072 84.5693 192.582 84.356C192.102 84.1427 191.696 83.844 191.366 83.46C191.035 83.076 190.784 82.6173 190.614 82.084C190.454 81.5507 190.363 80.9693 190.342 80.34C190.342 79.7107 190.438 79.1347 190.63 78.612C190.822 78.0893 191.088 77.636 191.43 77.252C191.782 76.868 192.192 76.5693 192.662 76.356C193.142 76.1427 193.664 76.036 194.23 76.036C194.966 76.036 195.574 76.1907 196.054 76.5C196.544 76.7987 196.934 77.1827 197.222 77.652C197.52 78.1213 197.723 78.6333 197.83 79.188C197.947 79.7427 197.995 80.2707 197.974 80.772H191.782C191.771 81.1347 191.814 81.4813 191.91 81.812C192.006 82.132 192.16 82.42 192.374 82.676C192.587 82.9213 192.859 83.1187 193.19 83.268C193.52 83.4173 193.91 83.492 194.358 83.492C194.934 83.492 195.403 83.3587 195.766 83.092C196.139 82.8253 196.384 82.42 196.502 81.876H197.846ZM199.943 77.428H198.551V76.228H199.943V74.996C199.943 74.324 200.135 73.8173 200.519 73.476C200.914 73.124 201.485 72.948 202.231 72.948C202.359 72.948 202.503 72.9587 202.663 72.98C202.834 73.0013 202.983 73.0333 203.111 73.076V74.26C202.994 74.2173 202.866 74.1907 202.727 74.18C202.589 74.1587 202.461 74.148 202.343 74.148C202.013 74.148 201.757 74.212 201.575 74.34C201.394 74.468 201.303 74.7133 201.303 75.076V76.228H202.903V77.428H201.303V84.5H199.943V77.428ZM211.446 84.468C211.211 84.6067 210.886 84.676 210.47 84.676C210.118 84.676 209.835 84.58 209.622 84.388C209.419 84.1853 209.318 83.86 209.318 83.412C208.944 83.86 208.507 84.1853 208.006 84.388C207.515 84.58 206.982 84.676 206.406 84.676C206.032 84.676 205.675 84.6333 205.334 84.548C205.003 84.4627 204.715 84.3293 204.47 84.148C204.224 83.9667 204.027 83.732 203.878 83.444C203.739 83.1453 203.67 82.788 203.67 82.372C203.67 81.9027 203.75 81.5187 203.91 81.22C204.07 80.9213 204.278 80.6813 204.534 80.5C204.8 80.308 205.099 80.164 205.43 80.068C205.771 79.972 206.118 79.892 206.47 79.828C206.843 79.7533 207.195 79.7 207.526 79.668C207.867 79.6253 208.166 79.572 208.422 79.508C208.678 79.4333 208.88 79.332 209.03 79.204C209.179 79.0653 209.254 78.868 209.254 78.612C209.254 78.3133 209.195 78.0733 209.078 77.892C208.971 77.7107 208.827 77.572 208.646 77.476C208.475 77.38 208.278 77.316 208.054 77.284C207.84 77.252 207.627 77.236 207.414 77.236C206.838 77.236 206.358 77.348 205.974 77.572C205.59 77.7853 205.382 78.196 205.35 78.804H203.99C204.011 78.292 204.118 77.86 204.31 77.508C204.502 77.156 204.758 76.8733 205.078 76.66C205.398 76.436 205.76 76.276 206.166 76.18C206.582 76.084 207.024 76.036 207.494 76.036C207.867 76.036 208.235 76.0627 208.598 76.116C208.971 76.1693 209.307 76.2813 209.606 76.452C209.904 76.612 210.144 76.8413 210.326 77.14C210.507 77.4387 210.598 77.828 210.598 78.308V82.564C210.598 82.884 210.614 83.1187 210.646 83.268C210.688 83.4173 210.816 83.492 211.03 83.492C211.147 83.492 211.286 83.4653 211.446 83.412V84.468ZM209.238 80.228C209.067 80.356 208.843 80.452 208.566 80.516C208.288 80.5693 207.995 80.6173 207.686 80.66C207.387 80.692 207.083 80.7347 206.774 80.788C206.464 80.8307 206.187 80.9053 205.942 81.012C205.696 81.1187 205.494 81.2733 205.334 81.476C205.184 81.668 205.11 81.9347 205.11 82.276C205.11 82.5 205.152 82.692 205.238 82.852C205.334 83.0013 205.451 83.124 205.59 83.22C205.739 83.316 205.91 83.3853 206.102 83.428C206.294 83.4707 206.496 83.492 206.71 83.492C207.158 83.492 207.542 83.4333 207.862 83.316C208.182 83.188 208.443 83.0333 208.646 82.852C208.848 82.66 208.998 82.4573 209.094 82.244C209.19 82.02 209.238 81.812 209.238 81.62V80.228ZM219.56 84.5H218.28V83.188H218.248C217.96 83.7 217.592 84.0787 217.144 84.324C216.696 84.5587 216.168 84.676 215.56 84.676C215.016 84.676 214.562 84.6067 214.2 84.468C213.837 84.3187 213.544 84.1107 213.32 83.844C213.096 83.5773 212.936 83.2627 212.84 82.9C212.754 82.5267 212.712 82.116 212.712 81.668V76.228H214.072V81.828C214.072 82.34 214.221 82.7453 214.52 83.044C214.818 83.3427 215.229 83.492 215.752 83.492C216.168 83.492 216.525 83.428 216.824 83.3C217.133 83.172 217.389 82.9907 217.592 82.756C217.794 82.5213 217.944 82.2493 218.04 81.94C218.146 81.62 218.2 81.2733 218.2 80.9V76.228H219.56V84.5ZM221.682 73.076H223.042V84.5H221.682V73.076ZM227.037 76.228H228.685V77.428H227.037V82.564C227.037 82.724 227.048 82.852 227.069 82.948C227.101 83.044 227.154 83.1187 227.229 83.172C227.304 83.2253 227.405 83.2627 227.533 83.284C227.672 83.2947 227.848 83.3 228.061 83.3H228.685V84.5H227.645C227.293 84.5 226.989 84.4787 226.733 84.436C226.488 84.3827 226.285 84.292 226.125 84.164C225.976 84.036 225.864 83.8547 225.789 83.62C225.714 83.3853 225.677 83.076 225.677 82.692V77.428H224.269V76.228H225.677V73.748H227.037V76.228Z" fill="black" fill-opacity="0.68"/>
<path d="M355.604 73.576H358.116V82.888H363.684V85H355.604V73.576ZM364.952 79.272C364.984 78.7387 365.118 78.296 365.352 77.944C365.587 77.592 365.886 77.3093 366.248 77.096C366.611 76.8827 367.016 76.7333 367.464 76.648C367.923 76.552 368.382 76.504 368.84 76.504C369.256 76.504 369.678 76.536 370.104 76.6C370.531 76.6533 370.92 76.7653 371.272 76.936C371.624 77.1067 371.912 77.3467 372.136 77.656C372.36 77.9547 372.472 78.3547 372.472 78.856V83.16C372.472 83.5333 372.494 83.8907 372.536 84.232C372.579 84.5733 372.654 84.8293 372.76 85H370.456C370.414 84.872 370.376 84.744 370.344 84.616C370.323 84.4773 370.307 84.3387 370.296 84.2C369.934 84.5733 369.507 84.8347 369.016 84.984C368.526 85.1333 368.024 85.208 367.512 85.208C367.118 85.208 366.75 85.16 366.408 85.064C366.067 84.968 365.768 84.8187 365.512 84.616C365.256 84.4133 365.054 84.1573 364.904 83.848C364.766 83.5387 364.696 83.1707 364.696 82.744C364.696 82.2747 364.776 81.8907 364.936 81.592C365.107 81.2827 365.32 81.0373 365.576 80.856C365.843 80.6747 366.142 80.5413 366.472 80.456C366.814 80.36 367.155 80.2853 367.496 80.232C367.838 80.1787 368.174 80.136 368.504 80.104C368.835 80.072 369.128 80.024 369.384 79.96C369.64 79.896 369.843 79.8053 369.992 79.688C370.142 79.56 370.211 79.3787 370.2 79.144C370.2 78.8987 370.158 78.7067 370.072 78.568C369.998 78.4187 369.891 78.3067 369.752 78.232C369.624 78.1467 369.47 78.0933 369.288 78.072C369.118 78.04 368.931 78.024 368.728 78.024C368.28 78.024 367.928 78.12 367.672 78.312C367.416 78.504 367.267 78.824 367.224 79.272H364.952ZM370.2 80.952C370.104 81.0373 369.982 81.1067 369.832 81.16C369.694 81.2027 369.539 81.24 369.368 81.272C369.208 81.304 369.038 81.3307 368.856 81.352C368.675 81.3733 368.494 81.4 368.312 81.432C368.142 81.464 367.971 81.5067 367.8 81.56C367.64 81.6133 367.496 81.688 367.368 81.784C367.251 81.8693 367.155 81.9813 367.08 82.12C367.006 82.2587 366.968 82.4347 366.968 82.648C366.968 82.8507 367.006 83.0213 367.08 83.16C367.155 83.2987 367.256 83.4107 367.384 83.496C367.512 83.5707 367.662 83.624 367.832 83.656C368.003 83.688 368.179 83.704 368.36 83.704C368.808 83.704 369.155 83.6293 369.4 83.48C369.646 83.3307 369.827 83.1547 369.944 82.952C370.062 82.7387 370.131 82.5253 370.152 82.312C370.184 82.0987 370.2 81.928 370.2 81.8V80.952ZM380.5 80.872C380.5 80.52 380.463 80.184 380.388 79.864C380.313 79.544 380.196 79.2613 380.036 79.016C379.876 78.7707 379.673 78.5787 379.428 78.44C379.193 78.2907 378.905 78.216 378.564 78.216C378.233 78.216 377.945 78.2907 377.7 78.44C377.455 78.5787 377.252 78.7707 377.092 79.016C376.932 79.2613 376.815 79.544 376.74 79.864C376.665 80.184 376.628 80.52 376.628 80.872C376.628 81.2133 376.665 81.544 376.74 81.864C376.815 82.184 376.932 82.4667 377.092 82.712C377.252 82.9573 377.455 83.1547 377.7 83.304C377.945 83.4427 378.233 83.512 378.564 83.512C378.905 83.512 379.193 83.4427 379.428 83.304C379.673 83.1547 379.876 82.9573 380.036 82.712C380.196 82.4667 380.313 82.184 380.388 81.864C380.463 81.544 380.5 81.2133 380.5 80.872ZM374.436 73.576H376.708V77.736H376.74C377.017 77.3093 377.391 77 377.86 76.808C378.34 76.6053 378.836 76.504 379.348 76.504C379.764 76.504 380.175 76.5893 380.58 76.76C380.985 76.9307 381.348 77.192 381.668 77.544C381.999 77.896 382.265 78.3493 382.468 78.904C382.671 79.448 382.772 80.0987 382.772 80.856C382.772 81.6133 382.671 82.2693 382.468 82.824C382.265 83.368 381.999 83.816 381.668 84.168C381.348 84.52 380.985 84.7813 380.58 84.952C380.175 85.1227 379.764 85.208 379.348 85.208C378.74 85.208 378.196 85.112 377.716 84.92C377.236 84.728 376.873 84.4027 376.628 83.944H376.596V85H374.436V73.576ZM389.985 79.976C389.878 79.4 389.686 78.9627 389.409 78.664C389.142 78.3653 388.732 78.216 388.177 78.216C387.814 78.216 387.51 78.28 387.265 78.408C387.03 78.5253 386.838 78.6747 386.689 78.856C386.55 79.0373 386.449 79.2293 386.385 79.432C386.332 79.6347 386.3 79.816 386.289 79.976H389.985ZM386.289 81.416C386.321 82.152 386.508 82.6853 386.849 83.016C387.19 83.3467 387.681 83.512 388.321 83.512C388.78 83.512 389.174 83.4 389.505 83.176C389.836 82.9413 390.038 82.696 390.113 82.44H392.113C391.793 83.432 391.302 84.1413 390.641 84.568C389.98 84.9947 389.18 85.208 388.241 85.208C387.59 85.208 387.004 85.1067 386.481 84.904C385.958 84.6907 385.516 84.392 385.153 84.008C384.79 83.624 384.508 83.1653 384.305 82.632C384.113 82.0987 384.017 81.512 384.017 80.872C384.017 80.2533 384.118 79.6773 384.321 79.144C384.524 78.6107 384.812 78.152 385.185 77.768C385.558 77.3733 386.001 77.064 386.513 76.84C387.036 76.616 387.612 76.504 388.241 76.504C388.945 76.504 389.558 76.6427 390.081 76.92C390.604 77.1867 391.03 77.5493 391.361 78.008C391.702 78.4667 391.948 78.9893 392.097 79.576C392.246 80.1627 392.3 80.776 392.257 81.416H386.289ZM393.869 73.576H396.141V85H393.869V73.576Z" fill="black"/>
<g clip-path="url(#clip0_75142_13490)">
<path d="M405.562 77.3138L411.499 83.375L417.437 77.3138L415.741 75.582L411.499 79.9123L407.259 75.582L405.562 77.3138Z" fill="#F15E00"/>
</g>
<path d="M186.356 172.42C186.271 171.599 185.972 171.007 185.46 170.644C184.959 170.271 184.313 170.084 183.524 170.084C183.204 170.084 182.889 170.116 182.58 170.18C182.271 170.244 181.993 170.351 181.748 170.5C181.513 170.649 181.321 170.852 181.172 171.108C181.033 171.353 180.964 171.663 180.964 172.036C180.964 172.388 181.065 172.676 181.268 172.9C181.481 173.113 181.759 173.289 182.1 173.428C182.452 173.567 182.847 173.684 183.284 173.78C183.721 173.865 184.164 173.961 184.612 174.068C185.071 174.175 185.519 174.303 185.956 174.452C186.393 174.591 186.783 174.783 187.124 175.028C187.476 175.273 187.753 175.583 187.956 175.956C188.169 176.329 188.276 176.799 188.276 177.364C188.276 177.972 188.137 178.495 187.86 178.932C187.593 179.359 187.247 179.711 186.82 179.988C186.393 180.255 185.913 180.447 185.38 180.564C184.857 180.692 184.335 180.756 183.812 180.756C183.172 180.756 182.564 180.676 181.988 180.516C181.423 180.356 180.921 180.116 180.484 179.796C180.057 179.465 179.716 179.049 179.46 178.548C179.215 178.036 179.092 177.433 179.092 176.74H180.532C180.532 177.22 180.623 177.636 180.804 177.988C180.996 178.329 181.241 178.612 181.54 178.836C181.849 179.06 182.207 179.225 182.612 179.332C183.017 179.439 183.433 179.492 183.86 179.492C184.201 179.492 184.543 179.46 184.884 179.396C185.236 179.332 185.551 179.225 185.828 179.076C186.105 178.916 186.329 178.703 186.5 178.436C186.671 178.169 186.756 177.828 186.756 177.412C186.756 177.017 186.649 176.697 186.436 176.452C186.233 176.207 185.956 176.009 185.604 175.86C185.263 175.7 184.873 175.572 184.436 175.476C183.999 175.38 183.551 175.284 183.092 175.188C182.644 175.081 182.201 174.964 181.764 174.836C181.327 174.697 180.932 174.521 180.58 174.308C180.239 174.084 179.961 173.801 179.748 173.46C179.545 173.108 179.444 172.671 179.444 172.148C179.444 171.572 179.561 171.076 179.796 170.66C180.031 170.233 180.34 169.887 180.724 169.62C181.119 169.343 181.561 169.14 182.052 169.012C182.553 168.873 183.065 168.804 183.588 168.804C184.175 168.804 184.719 168.873 185.22 169.012C185.721 169.151 186.159 169.369 186.532 169.668C186.916 169.967 187.215 170.345 187.428 170.804C187.652 171.252 187.775 171.791 187.796 172.42H186.356ZM189.899 172.228H191.179V173.444H191.211C191.83 172.505 192.72 172.036 193.883 172.036C194.395 172.036 194.859 172.143 195.275 172.356C195.691 172.569 195.984 172.932 196.155 173.444C196.432 172.996 196.795 172.649 197.243 172.404C197.702 172.159 198.203 172.036 198.747 172.036C199.163 172.036 199.536 172.084 199.867 172.18C200.208 172.265 200.496 172.404 200.731 172.596C200.976 172.788 201.163 173.039 201.291 173.348C201.43 173.647 201.499 174.009 201.499 174.436V180.5H200.139V175.076C200.139 174.82 200.118 174.58 200.075 174.356C200.032 174.132 199.952 173.94 199.835 173.78C199.718 173.609 199.552 173.476 199.339 173.38C199.136 173.284 198.87 173.236 198.539 173.236C197.867 173.236 197.339 173.428 196.955 173.812C196.571 174.196 196.379 174.708 196.379 175.348V180.5H195.019V175.076C195.019 174.809 194.992 174.564 194.939 174.34C194.896 174.116 194.816 173.924 194.699 173.764C194.582 173.593 194.422 173.465 194.219 173.38C194.027 173.284 193.776 173.236 193.467 173.236C193.072 173.236 192.731 173.316 192.443 173.476C192.166 173.636 191.936 173.828 191.755 174.052C191.584 174.276 191.456 174.511 191.371 174.756C191.296 174.991 191.259 175.188 191.259 175.348V180.5H189.899V172.228ZM210.868 180.468C210.633 180.607 210.308 180.676 209.892 180.676C209.54 180.676 209.257 180.58 209.044 180.388C208.841 180.185 208.74 179.86 208.74 179.412C208.366 179.86 207.929 180.185 207.428 180.388C206.937 180.58 206.404 180.676 205.828 180.676C205.454 180.676 205.097 180.633 204.756 180.548C204.425 180.463 204.137 180.329 203.892 180.148C203.646 179.967 203.449 179.732 203.3 179.444C203.161 179.145 203.092 178.788 203.092 178.372C203.092 177.903 203.172 177.519 203.332 177.22C203.492 176.921 203.7 176.681 203.956 176.5C204.222 176.308 204.521 176.164 204.852 176.068C205.193 175.972 205.54 175.892 205.892 175.828C206.265 175.753 206.617 175.7 206.948 175.668C207.289 175.625 207.588 175.572 207.844 175.508C208.1 175.433 208.302 175.332 208.452 175.204C208.601 175.065 208.676 174.868 208.676 174.612C208.676 174.313 208.617 174.073 208.5 173.892C208.393 173.711 208.249 173.572 208.068 173.476C207.897 173.38 207.7 173.316 207.476 173.284C207.262 173.252 207.049 173.236 206.836 173.236C206.26 173.236 205.78 173.348 205.396 173.572C205.012 173.785 204.804 174.196 204.772 174.804H203.412C203.433 174.292 203.54 173.86 203.732 173.508C203.924 173.156 204.18 172.873 204.5 172.66C204.82 172.436 205.182 172.276 205.588 172.18C206.004 172.084 206.446 172.036 206.916 172.036C207.289 172.036 207.657 172.063 208.02 172.116C208.393 172.169 208.729 172.281 209.028 172.452C209.326 172.612 209.566 172.841 209.748 173.14C209.929 173.439 210.02 173.828 210.02 174.308V178.564C210.02 178.884 210.036 179.119 210.068 179.268C210.11 179.417 210.238 179.492 210.452 179.492C210.569 179.492 210.708 179.465 210.868 179.412V180.468ZM208.66 176.228C208.489 176.356 208.265 176.452 207.988 176.516C207.71 176.569 207.417 176.617 207.108 176.66C206.809 176.692 206.505 176.735 206.196 176.788C205.886 176.831 205.609 176.905 205.364 177.012C205.118 177.119 204.916 177.273 204.756 177.476C204.606 177.668 204.532 177.935 204.532 178.276C204.532 178.5 204.574 178.692 204.66 178.852C204.756 179.001 204.873 179.124 205.012 179.22C205.161 179.316 205.332 179.385 205.524 179.428C205.716 179.471 205.918 179.492 206.132 179.492C206.58 179.492 206.964 179.433 207.284 179.316C207.604 179.188 207.865 179.033 208.068 178.852C208.27 178.66 208.42 178.457 208.516 178.244C208.612 178.02 208.66 177.812 208.66 177.62V176.228ZM212.213 169.076H213.573V180.5H212.213V169.076ZM215.76 169.076H217.12V180.5H215.76V169.076Z" fill="black" fill-opacity="0.68"/>
<path d="M355.466 170.004H357.664V178.152H362.536V180H355.466V170.004ZM363.646 174.988C363.674 174.521 363.79 174.134 363.996 173.826C364.201 173.518 364.462 173.271 364.78 173.084C365.097 172.897 365.452 172.767 365.844 172.692C366.245 172.608 366.646 172.566 367.048 172.566C367.412 172.566 367.78 172.594 368.154 172.65C368.527 172.697 368.868 172.795 369.176 172.944C369.484 173.093 369.736 173.303 369.932 173.574C370.128 173.835 370.226 174.185 370.226 174.624V178.39C370.226 178.717 370.244 179.029 370.282 179.328C370.319 179.627 370.384 179.851 370.478 180H368.462C368.424 179.888 368.392 179.776 368.364 179.664C368.345 179.543 368.331 179.421 368.322 179.3C368.004 179.627 367.631 179.855 367.202 179.986C366.772 180.117 366.334 180.182 365.886 180.182C365.54 180.182 365.218 180.14 364.92 180.056C364.621 179.972 364.36 179.841 364.136 179.664C363.912 179.487 363.734 179.263 363.604 178.992C363.482 178.721 363.422 178.399 363.422 178.026C363.422 177.615 363.492 177.279 363.632 177.018C363.781 176.747 363.968 176.533 364.192 176.374C364.425 176.215 364.686 176.099 364.976 176.024C365.274 175.94 365.573 175.875 365.872 175.828C366.17 175.781 366.464 175.744 366.754 175.716C367.043 175.688 367.3 175.646 367.524 175.59C367.748 175.534 367.925 175.455 368.056 175.352C368.186 175.24 368.247 175.081 368.238 174.876C368.238 174.661 368.2 174.493 368.126 174.372C368.06 174.241 367.967 174.143 367.846 174.078C367.734 174.003 367.598 173.957 367.44 173.938C367.29 173.91 367.127 173.896 366.95 173.896C366.558 173.896 366.25 173.98 366.026 174.148C365.802 174.316 365.671 174.596 365.634 174.988H363.646ZM368.238 176.458C368.154 176.533 368.046 176.593 367.916 176.64C367.794 176.677 367.659 176.71 367.51 176.738C367.37 176.766 367.22 176.789 367.062 176.808C366.903 176.827 366.744 176.85 366.586 176.878C366.436 176.906 366.287 176.943 366.138 176.99C365.998 177.037 365.872 177.102 365.76 177.186C365.657 177.261 365.573 177.359 365.508 177.48C365.442 177.601 365.41 177.755 365.41 177.942C365.41 178.119 365.442 178.269 365.508 178.39C365.573 178.511 365.662 178.609 365.774 178.684C365.886 178.749 366.016 178.796 366.166 178.824C366.315 178.852 366.469 178.866 366.628 178.866C367.02 178.866 367.323 178.801 367.538 178.67C367.752 178.539 367.911 178.385 368.014 178.208C368.116 178.021 368.177 177.835 368.196 177.648C368.224 177.461 368.238 177.312 368.238 177.2V176.458ZM377.25 176.388C377.25 176.08 377.217 175.786 377.152 175.506C377.087 175.226 376.984 174.979 376.844 174.764C376.704 174.549 376.527 174.381 376.312 174.26C376.107 174.129 375.855 174.064 375.556 174.064C375.267 174.064 375.015 174.129 374.8 174.26C374.585 174.381 374.408 174.549 374.268 174.764C374.128 174.979 374.025 175.226 373.96 175.506C373.895 175.786 373.862 176.08 373.862 176.388C373.862 176.687 373.895 176.976 373.96 177.256C374.025 177.536 374.128 177.783 374.268 177.998C374.408 178.213 374.585 178.385 374.8 178.516C375.015 178.637 375.267 178.698 375.556 178.698C375.855 178.698 376.107 178.637 376.312 178.516C376.527 178.385 376.704 178.213 376.844 177.998C376.984 177.783 377.087 177.536 377.152 177.256C377.217 176.976 377.25 176.687 377.25 176.388ZM371.944 170.004H373.932V173.644H373.96C374.203 173.271 374.529 173 374.94 172.832C375.36 172.655 375.794 172.566 376.242 172.566C376.606 172.566 376.965 172.641 377.32 172.79C377.675 172.939 377.992 173.168 378.272 173.476C378.561 173.784 378.795 174.181 378.972 174.666C379.149 175.142 379.238 175.711 379.238 176.374C379.238 177.037 379.149 177.611 378.972 178.096C378.795 178.572 378.561 178.964 378.272 179.272C377.992 179.58 377.675 179.809 377.32 179.958C376.965 180.107 376.606 180.182 376.242 180.182C375.71 180.182 375.234 180.098 374.814 179.93C374.394 179.762 374.077 179.477 373.862 179.076H373.834V180H371.944V170.004ZM385.549 175.604C385.456 175.1 385.288 174.717 385.045 174.456C384.812 174.195 384.453 174.064 383.967 174.064C383.65 174.064 383.384 174.12 383.169 174.232C382.964 174.335 382.796 174.465 382.665 174.624C382.544 174.783 382.455 174.951 382.399 175.128C382.353 175.305 382.325 175.464 382.315 175.604H385.549ZM382.315 176.864C382.343 177.508 382.507 177.975 382.805 178.264C383.104 178.553 383.533 178.698 384.093 178.698C384.495 178.698 384.84 178.6 385.129 178.404C385.419 178.199 385.596 177.984 385.661 177.76H387.411C387.131 178.628 386.702 179.249 386.123 179.622C385.545 179.995 384.845 180.182 384.023 180.182C383.454 180.182 382.941 180.093 382.483 179.916C382.026 179.729 381.639 179.468 381.321 179.132C381.004 178.796 380.757 178.395 380.579 177.928C380.411 177.461 380.327 176.948 380.327 176.388C380.327 175.847 380.416 175.343 380.593 174.876C380.771 174.409 381.023 174.008 381.349 173.672C381.676 173.327 382.063 173.056 382.511 172.86C382.969 172.664 383.473 172.566 384.023 172.566C384.639 172.566 385.176 172.687 385.633 172.93C386.091 173.163 386.464 173.481 386.753 173.882C387.052 174.283 387.267 174.741 387.397 175.254C387.528 175.767 387.575 176.304 387.537 176.864H382.315ZM388.948 170.004H390.936V180H388.948V170.004Z" fill="black"/>
<g clip-path="url(#clip1_75142_13490)">
<path d="M399.75 173.651L404.5 178.5L409.25 173.651L407.893 172.266L404.5 175.73L401.107 172.266L399.75 173.651Z" fill="#F15E00"/>
</g>
<defs>
<clipPath id="clip0_75142_13490">
<rect width="20" height="20" fill="white" transform="translate(401.5 69)"/>
</clipPath>
<clipPath id="clip1_75142_13490">
<rect width="16" height="16" fill="white" transform="translate(396.5 167)"/>
</clipPath>
</defs>
</svg>
