<svg width="600" height="191" viewBox="0 0 600 191" fill="none" xmlns="http://www.w3.org/2000/svg">
<rect width="600" height="95.5" fill="#FF7900"/>
<path d="M179.748 41.826H181.268V51.97H187.316V53.25H179.748V41.826ZM189.855 43.49H188.495V41.826H189.855V43.49ZM188.495 44.978H189.855V53.25H188.495V44.978ZM199.098 52.546C199.098 53.9007 198.788 54.914 198.17 55.586C197.551 56.258 196.58 56.594 195.258 56.594C194.874 56.594 194.479 56.5513 194.074 56.466C193.679 56.3807 193.316 56.242 192.986 56.05C192.666 55.858 192.399 55.6073 192.186 55.298C191.972 54.9887 191.855 54.61 191.834 54.162H193.194C193.204 54.4073 193.279 54.6153 193.418 54.786C193.567 54.9567 193.743 55.0953 193.946 55.202C194.159 55.3087 194.388 55.3833 194.634 55.426C194.879 55.4793 195.114 55.506 195.338 55.506C195.786 55.506 196.164 55.426 196.474 55.266C196.783 55.1167 197.039 54.9033 197.242 54.626C197.444 54.3593 197.588 54.034 197.674 53.65C197.77 53.266 197.818 52.8447 197.818 52.386V51.842H197.786C197.551 52.354 197.194 52.7327 196.714 52.978C196.244 53.2127 195.743 53.33 195.21 53.33C194.591 53.33 194.052 53.218 193.594 52.994C193.135 52.77 192.751 52.4713 192.442 52.098C192.132 51.714 191.898 51.2713 191.738 50.77C191.588 50.258 191.514 49.7193 191.514 49.154C191.514 48.6633 191.578 48.162 191.706 47.65C191.834 47.1273 192.047 46.658 192.346 46.242C192.644 45.8153 193.039 45.4687 193.53 45.202C194.02 44.9247 194.623 44.786 195.338 44.786C195.86 44.786 196.34 44.9033 196.778 45.138C197.215 45.362 197.556 45.7033 197.802 46.162H197.818V44.978H199.098V52.546ZM195.29 52.146C195.738 52.146 196.116 52.0553 196.426 51.874C196.746 51.682 197.002 51.4367 197.194 51.138C197.386 50.8287 197.524 50.482 197.61 50.098C197.706 49.714 197.754 49.33 197.754 48.946C197.754 48.5833 197.711 48.226 197.626 47.874C197.54 47.522 197.402 47.2073 197.21 46.93C197.028 46.642 196.788 46.4127 196.49 46.242C196.191 46.0713 195.828 45.986 195.402 45.986C194.964 45.986 194.591 46.0713 194.282 46.242C193.972 46.402 193.716 46.6207 193.514 46.898C193.322 47.1753 193.178 47.4953 193.082 47.858C192.996 48.2207 192.954 48.5993 192.954 48.994C192.954 49.3673 192.991 49.7407 193.066 50.114C193.14 50.4873 193.268 50.8287 193.45 51.138C193.631 51.4367 193.871 51.682 194.17 51.874C194.468 52.0553 194.842 52.146 195.29 52.146ZM201.149 41.826H202.509V46.194H202.541C202.648 45.938 202.797 45.7247 202.989 45.554C203.181 45.3727 203.394 45.2287 203.629 45.122C203.874 45.0047 204.125 44.9193 204.381 44.866C204.648 44.8127 204.904 44.786 205.149 44.786C205.693 44.786 206.146 44.8607 206.509 45.01C206.872 45.1593 207.165 45.3673 207.389 45.634C207.613 45.9007 207.768 46.2207 207.853 46.594C207.949 46.9567 207.997 47.362 207.997 47.81V53.25H206.637V47.65C206.637 47.138 206.488 46.7327 206.189 46.434C205.89 46.1353 205.48 45.986 204.957 45.986C204.541 45.986 204.178 46.05 203.869 46.178C203.57 46.306 203.32 46.4873 203.117 46.722C202.914 46.9567 202.76 47.234 202.653 47.554C202.557 47.8633 202.509 48.2047 202.509 48.578V53.25H201.149V41.826ZM211.928 44.978H213.576V46.178H211.928V51.314C211.928 51.474 211.938 51.602 211.96 51.698C211.992 51.794 212.045 51.8687 212.12 51.922C212.194 51.9753 212.296 52.0127 212.424 52.034C212.562 52.0447 212.738 52.05 212.952 52.05H213.576V53.25H212.536C212.184 53.25 211.88 53.2287 211.624 53.186C211.378 53.1327 211.176 53.042 211.016 52.914C210.866 52.786 210.754 52.6047 210.68 52.37C210.605 52.1353 210.568 51.826 210.568 51.442V46.178H209.16V44.978H210.568V42.498H211.928V44.978ZM219.54 44.978H220.82V46.194H220.852C221.47 45.2553 222.361 44.786 223.524 44.786C224.036 44.786 224.5 44.8927 224.916 45.106C225.332 45.3193 225.625 45.682 225.796 46.194C226.073 45.746 226.436 45.3993 226.884 45.154C227.342 44.9087 227.844 44.786 228.388 44.786C228.804 44.786 229.177 44.834 229.508 44.93C229.849 45.0153 230.137 45.154 230.372 45.346C230.617 45.538 230.804 45.7887 230.932 46.098C231.07 46.3967 231.14 46.7593 231.14 47.186V53.25H229.78V47.826C229.78 47.57 229.758 47.33 229.716 47.106C229.673 46.882 229.593 46.69 229.476 46.53C229.358 46.3593 229.193 46.226 228.98 46.13C228.777 46.034 228.51 45.986 228.18 45.986C227.508 45.986 226.98 46.178 226.596 46.562C226.212 46.946 226.02 47.458 226.02 48.098V53.25H224.66V47.826C224.66 47.5593 224.633 47.314 224.58 47.09C224.537 46.866 224.457 46.674 224.34 46.514C224.222 46.3433 224.062 46.2153 223.86 46.13C223.668 46.034 223.417 45.986 223.108 45.986C222.713 45.986 222.372 46.066 222.084 46.226C221.806 46.386 221.577 46.578 221.396 46.802C221.225 47.026 221.097 47.2607 221.012 47.506C220.937 47.7407 220.9 47.938 220.9 48.098V53.25H219.54V44.978ZM234.172 49.122C234.172 49.6233 234.236 50.0713 234.364 50.466C234.503 50.85 234.69 51.1753 234.924 51.442C235.159 51.698 235.431 51.8953 235.74 52.034C236.06 52.1727 236.396 52.242 236.748 52.242C237.1 52.242 237.431 52.1727 237.74 52.034C238.06 51.8953 238.338 51.698 238.572 51.442C238.807 51.1753 238.988 50.85 239.116 50.466C239.255 50.0713 239.324 49.6233 239.324 49.122C239.324 48.6207 239.255 48.178 239.116 47.794C238.988 47.3993 238.807 47.0687 238.572 46.802C238.338 46.5353 238.06 46.3327 237.74 46.194C237.431 46.0553 237.1 45.986 236.748 45.986C236.396 45.986 236.06 46.0553 235.74 46.194C235.431 46.3327 235.159 46.5353 234.924 46.802C234.69 47.0687 234.503 47.3993 234.364 47.794C234.236 48.178 234.172 48.6207 234.172 49.122ZM232.732 49.122C232.732 48.514 232.818 47.9487 232.988 47.426C233.159 46.8927 233.415 46.434 233.756 46.05C234.098 45.6553 234.519 45.346 235.02 45.122C235.522 44.898 236.098 44.786 236.748 44.786C237.41 44.786 237.986 44.898 238.476 45.122C238.978 45.346 239.399 45.6553 239.74 46.05C240.082 46.434 240.338 46.8927 240.508 47.426C240.679 47.9487 240.764 48.514 240.764 49.122C240.764 49.73 240.679 50.2953 240.508 50.818C240.338 51.3407 240.082 51.7993 239.74 52.194C239.399 52.578 238.978 52.882 238.476 53.106C237.986 53.3193 237.41 53.426 236.748 53.426C236.098 53.426 235.522 53.3193 235.02 53.106C234.519 52.882 234.098 52.578 233.756 52.194C233.415 51.7993 233.159 51.3407 232.988 50.818C232.818 50.2953 232.732 49.73 232.732 49.122ZM243.36 49.186C243.36 49.57 243.408 49.9487 243.504 50.322C243.61 50.6847 243.765 51.01 243.968 51.298C244.181 51.586 244.448 51.8153 244.768 51.986C245.098 52.1567 245.482 52.242 245.92 52.242C246.378 52.242 246.768 52.1513 247.088 51.97C247.408 51.7887 247.669 51.554 247.872 51.266C248.074 50.9673 248.218 50.6313 248.304 50.258C248.4 49.8847 248.448 49.506 248.448 49.122C248.448 48.7167 248.4 48.3273 248.304 47.954C248.208 47.57 248.053 47.234 247.84 46.946C247.637 46.658 247.37 46.4287 247.04 46.258C246.709 46.0767 246.309 45.986 245.84 45.986C245.381 45.986 244.992 46.0767 244.672 46.258C244.352 46.4393 244.096 46.6793 243.904 46.978C243.712 47.2767 243.573 47.618 243.488 48.002C243.402 48.386 243.36 48.7807 243.36 49.186ZM249.76 53.25H248.4V52.13H248.368C248.144 52.5887 247.792 52.9193 247.312 53.122C246.832 53.3247 246.304 53.426 245.728 53.426C245.088 53.426 244.528 53.3087 244.048 53.074C243.578 52.8393 243.184 52.5247 242.864 52.13C242.554 51.7353 242.32 51.2767 242.16 50.754C242 50.2313 241.92 49.6767 241.92 49.09C241.92 48.5033 241.994 47.9487 242.144 47.426C242.304 46.9033 242.538 46.45 242.848 46.066C243.168 45.6713 243.562 45.362 244.032 45.138C244.512 44.9033 245.066 44.786 245.696 44.786C245.909 44.786 246.138 44.8073 246.384 44.85C246.629 44.8927 246.874 44.9673 247.12 45.074C247.365 45.17 247.594 45.3033 247.808 45.474C248.032 45.634 248.218 45.8367 248.368 46.082H248.4V41.826H249.76V53.25ZM257.596 48.322C257.575 48.002 257.5 47.698 257.372 47.41C257.255 47.122 257.089 46.8767 256.876 46.674C256.673 46.4607 256.428 46.2953 256.14 46.178C255.863 46.05 255.553 45.986 255.212 45.986C254.86 45.986 254.54 46.05 254.252 46.178C253.975 46.2953 253.735 46.4607 253.532 46.674C253.329 46.8873 253.169 47.138 253.052 47.426C252.935 47.7033 252.865 48.002 252.844 48.322H257.596ZM258.908 50.626C258.727 51.554 258.327 52.2527 257.708 52.722C257.089 53.1913 256.311 53.426 255.372 53.426C254.711 53.426 254.135 53.3193 253.644 53.106C253.164 52.8927 252.759 52.594 252.428 52.21C252.097 51.826 251.847 51.3673 251.676 50.834C251.516 50.3007 251.425 49.7193 251.404 49.09C251.404 48.4607 251.5 47.8847 251.692 47.362C251.884 46.8393 252.151 46.386 252.492 46.002C252.844 45.618 253.255 45.3193 253.724 45.106C254.204 44.8927 254.727 44.786 255.292 44.786C256.028 44.786 256.636 44.9407 257.116 45.25C257.607 45.5487 257.996 45.9327 258.284 46.402C258.583 46.8713 258.785 47.3833 258.892 47.938C259.009 48.4927 259.057 49.0207 259.036 49.522H252.844C252.833 49.8847 252.876 50.2313 252.972 50.562C253.068 50.882 253.223 51.17 253.436 51.426C253.649 51.6713 253.921 51.8687 254.252 52.018C254.583 52.1673 254.972 52.242 255.42 52.242C255.996 52.242 256.465 52.1087 256.828 51.842C257.201 51.5753 257.447 51.17 257.564 50.626H258.908Z" fill="black" fill-opacity="0.68"/>
<path d="M355.604 42.326H358.116V51.638H363.684V53.75H355.604V42.326ZM364.952 48.022C364.984 47.4887 365.118 47.046 365.352 46.694C365.587 46.342 365.886 46.0593 366.248 45.846C366.611 45.6327 367.016 45.4833 367.464 45.398C367.923 45.302 368.382 45.254 368.84 45.254C369.256 45.254 369.678 45.286 370.104 45.35C370.531 45.4033 370.92 45.5153 371.272 45.686C371.624 45.8567 371.912 46.0967 372.136 46.406C372.36 46.7047 372.472 47.1047 372.472 47.606V51.91C372.472 52.2833 372.494 52.6407 372.536 52.982C372.579 53.3233 372.654 53.5793 372.76 53.75H370.456C370.414 53.622 370.376 53.494 370.344 53.366C370.323 53.2273 370.307 53.0887 370.296 52.95C369.934 53.3233 369.507 53.5847 369.016 53.734C368.526 53.8833 368.024 53.958 367.512 53.958C367.118 53.958 366.75 53.91 366.408 53.814C366.067 53.718 365.768 53.5687 365.512 53.366C365.256 53.1633 365.054 52.9073 364.904 52.598C364.766 52.2887 364.696 51.9207 364.696 51.494C364.696 51.0247 364.776 50.6407 364.936 50.342C365.107 50.0327 365.32 49.7873 365.576 49.606C365.843 49.4247 366.142 49.2913 366.472 49.206C366.814 49.11 367.155 49.0353 367.496 48.982C367.838 48.9287 368.174 48.886 368.504 48.854C368.835 48.822 369.128 48.774 369.384 48.71C369.64 48.646 369.843 48.5553 369.992 48.438C370.142 48.31 370.211 48.1287 370.2 47.894C370.2 47.6487 370.158 47.4567 370.072 47.318C369.998 47.1687 369.891 47.0567 369.752 46.982C369.624 46.8967 369.47 46.8433 369.288 46.822C369.118 46.79 368.931 46.774 368.728 46.774C368.28 46.774 367.928 46.87 367.672 47.062C367.416 47.254 367.267 47.574 367.224 48.022H364.952ZM370.2 49.702C370.104 49.7873 369.982 49.8567 369.832 49.91C369.694 49.9527 369.539 49.99 369.368 50.022C369.208 50.054 369.038 50.0807 368.856 50.102C368.675 50.1233 368.494 50.15 368.312 50.182C368.142 50.214 367.971 50.2567 367.8 50.31C367.64 50.3633 367.496 50.438 367.368 50.534C367.251 50.6193 367.155 50.7313 367.08 50.87C367.006 51.0087 366.968 51.1847 366.968 51.398C366.968 51.6007 367.006 51.7713 367.08 51.91C367.155 52.0487 367.256 52.1607 367.384 52.246C367.512 52.3207 367.662 52.374 367.832 52.406C368.003 52.438 368.179 52.454 368.36 52.454C368.808 52.454 369.155 52.3793 369.4 52.23C369.646 52.0807 369.827 51.9047 369.944 51.702C370.062 51.4887 370.131 51.2753 370.152 51.062C370.184 50.8487 370.2 50.678 370.2 50.55V49.702ZM380.5 49.622C380.5 49.27 380.463 48.934 380.388 48.614C380.313 48.294 380.196 48.0113 380.036 47.766C379.876 47.5207 379.673 47.3287 379.428 47.19C379.193 47.0407 378.905 46.966 378.564 46.966C378.233 46.966 377.945 47.0407 377.7 47.19C377.455 47.3287 377.252 47.5207 377.092 47.766C376.932 48.0113 376.815 48.294 376.74 48.614C376.665 48.934 376.628 49.27 376.628 49.622C376.628 49.9633 376.665 50.294 376.74 50.614C376.815 50.934 376.932 51.2167 377.092 51.462C377.252 51.7073 377.455 51.9047 377.7 52.054C377.945 52.1927 378.233 52.262 378.564 52.262C378.905 52.262 379.193 52.1927 379.428 52.054C379.673 51.9047 379.876 51.7073 380.036 51.462C380.196 51.2167 380.313 50.934 380.388 50.614C380.463 50.294 380.5 49.9633 380.5 49.622ZM374.436 42.326H376.708V46.486H376.74C377.017 46.0593 377.391 45.75 377.86 45.558C378.34 45.3553 378.836 45.254 379.348 45.254C379.764 45.254 380.175 45.3393 380.58 45.51C380.985 45.6807 381.348 45.942 381.668 46.294C381.999 46.646 382.265 47.0993 382.468 47.654C382.671 48.198 382.772 48.8487 382.772 49.606C382.772 50.3633 382.671 51.0193 382.468 51.574C382.265 52.118 381.999 52.566 381.668 52.918C381.348 53.27 380.985 53.5313 380.58 53.702C380.175 53.8727 379.764 53.958 379.348 53.958C378.74 53.958 378.196 53.862 377.716 53.67C377.236 53.478 376.873 53.1527 376.628 52.694H376.596V53.75H374.436V42.326ZM389.985 48.726C389.878 48.15 389.686 47.7127 389.409 47.414C389.142 47.1153 388.732 46.966 388.177 46.966C387.814 46.966 387.51 47.03 387.265 47.158C387.03 47.2753 386.838 47.4247 386.689 47.606C386.55 47.7873 386.449 47.9793 386.385 48.182C386.332 48.3847 386.3 48.566 386.289 48.726H389.985ZM386.289 50.166C386.321 50.902 386.508 51.4353 386.849 51.766C387.19 52.0967 387.681 52.262 388.321 52.262C388.78 52.262 389.174 52.15 389.505 51.926C389.836 51.6913 390.038 51.446 390.113 51.19H392.113C391.793 52.182 391.302 52.8913 390.641 53.318C389.98 53.7447 389.18 53.958 388.241 53.958C387.59 53.958 387.004 53.8567 386.481 53.654C385.958 53.4407 385.516 53.142 385.153 52.758C384.79 52.374 384.508 51.9153 384.305 51.382C384.113 50.8487 384.017 50.262 384.017 49.622C384.017 49.0033 384.118 48.4273 384.321 47.894C384.524 47.3607 384.812 46.902 385.185 46.518C385.558 46.1233 386.001 45.814 386.513 45.59C387.036 45.366 387.612 45.254 388.241 45.254C388.945 45.254 389.558 45.3927 390.081 45.67C390.604 45.9367 391.03 46.2993 391.361 46.758C391.702 47.2167 391.948 47.7393 392.097 48.326C392.246 48.9127 392.3 49.526 392.257 50.166H386.289ZM393.869 42.326H396.141V53.75H393.869V42.326Z" fill="black"/>
<g clip-path="url(#clip0_75142_13505)">
<path d="M405.562 46.0638L411.499 52.125L417.437 46.0638L415.741 44.332L411.499 48.6623L407.259 44.332L405.562 46.0638Z" fill="black"/>
</g>
<rect width="600" height="95.5" transform="translate(0 95.5)" fill="#DB0002"/>
<path d="M181.268 147.47H183.796C183.967 147.47 184.18 147.459 184.436 147.438C184.692 147.406 184.964 147.342 185.252 147.246C185.54 147.139 185.823 146.99 186.1 146.798C186.388 146.606 186.644 146.345 186.868 146.014C187.092 145.683 187.273 145.273 187.412 144.782C187.561 144.281 187.636 143.678 187.636 142.974C187.636 142.291 187.567 141.683 187.428 141.15C187.3 140.606 187.081 140.147 186.772 139.774C186.473 139.39 186.084 139.102 185.604 138.91C185.124 138.707 184.532 138.606 183.828 138.606H181.268V147.47ZM179.748 137.326H183.668C185.428 137.326 186.783 137.774 187.732 138.67C188.681 139.566 189.156 140.931 189.156 142.766C189.156 143.726 189.049 144.579 188.836 145.326C188.623 146.062 188.292 146.686 187.844 147.198C187.396 147.699 186.825 148.083 186.132 148.35C185.439 148.617 184.617 148.75 183.668 148.75H179.748V137.326ZM198.118 148.718C197.883 148.857 197.558 148.926 197.142 148.926C196.79 148.926 196.507 148.83 196.294 148.638C196.091 148.435 195.99 148.11 195.99 147.662C195.616 148.11 195.179 148.435 194.678 148.638C194.187 148.83 193.654 148.926 193.078 148.926C192.704 148.926 192.347 148.883 192.006 148.798C191.675 148.713 191.387 148.579 191.142 148.398C190.896 148.217 190.699 147.982 190.55 147.694C190.411 147.395 190.342 147.038 190.342 146.622C190.342 146.153 190.422 145.769 190.582 145.47C190.742 145.171 190.95 144.931 191.206 144.75C191.472 144.558 191.771 144.414 192.102 144.318C192.443 144.222 192.79 144.142 193.142 144.078C193.515 144.003 193.867 143.95 194.198 143.918C194.539 143.875 194.838 143.822 195.094 143.758C195.35 143.683 195.552 143.582 195.702 143.454C195.851 143.315 195.926 143.118 195.926 142.862C195.926 142.563 195.867 142.323 195.75 142.142C195.643 141.961 195.499 141.822 195.318 141.726C195.147 141.63 194.95 141.566 194.726 141.534C194.512 141.502 194.299 141.486 194.086 141.486C193.51 141.486 193.03 141.598 192.646 141.822C192.262 142.035 192.054 142.446 192.022 143.054H190.662C190.683 142.542 190.79 142.11 190.982 141.758C191.174 141.406 191.43 141.123 191.75 140.91C192.07 140.686 192.432 140.526 192.838 140.43C193.254 140.334 193.696 140.286 194.166 140.286C194.539 140.286 194.907 140.313 195.27 140.366C195.643 140.419 195.979 140.531 196.278 140.702C196.576 140.862 196.816 141.091 196.998 141.39C197.179 141.689 197.27 142.078 197.27 142.558V146.814C197.27 147.134 197.286 147.369 197.318 147.518C197.36 147.667 197.488 147.742 197.702 147.742C197.819 147.742 197.958 147.715 198.118 147.662V148.718ZM195.91 144.478C195.739 144.606 195.515 144.702 195.238 144.766C194.96 144.819 194.667 144.867 194.358 144.91C194.059 144.942 193.755 144.985 193.446 145.038C193.136 145.081 192.859 145.155 192.614 145.262C192.368 145.369 192.166 145.523 192.006 145.726C191.856 145.918 191.782 146.185 191.782 146.526C191.782 146.75 191.824 146.942 191.91 147.102C192.006 147.251 192.123 147.374 192.262 147.47C192.411 147.566 192.582 147.635 192.774 147.678C192.966 147.721 193.168 147.742 193.382 147.742C193.83 147.742 194.214 147.683 194.534 147.566C194.854 147.438 195.115 147.283 195.318 147.102C195.52 146.91 195.67 146.707 195.766 146.494C195.862 146.27 195.91 146.062 195.91 145.87V144.478ZM199.335 140.478H200.615V142.222H200.647C200.978 141.55 201.383 141.054 201.863 140.734C202.343 140.414 202.951 140.265 203.687 140.286V141.726C203.143 141.726 202.679 141.801 202.295 141.95C201.911 142.099 201.602 142.318 201.367 142.606C201.133 142.894 200.962 143.246 200.855 143.662C200.749 144.067 200.695 144.537 200.695 145.07V148.75H199.335V140.478ZM204.792 137.326H206.152V144.094L209.928 140.478H211.752L208.472 143.486L211.992 148.75H210.264L207.432 144.43L206.152 145.614V148.75H204.792V137.326ZM217.462 140.478H218.742V141.694H218.774C219.392 140.755 220.283 140.286 221.446 140.286C221.958 140.286 222.422 140.393 222.838 140.606C223.254 140.819 223.547 141.182 223.718 141.694C223.995 141.246 224.358 140.899 224.806 140.654C225.264 140.409 225.766 140.286 226.31 140.286C226.726 140.286 227.099 140.334 227.43 140.43C227.771 140.515 228.059 140.654 228.294 140.846C228.539 141.038 228.726 141.289 228.854 141.598C228.992 141.897 229.062 142.259 229.062 142.686V148.75H227.702V143.326C227.702 143.07 227.68 142.83 227.638 142.606C227.595 142.382 227.515 142.19 227.398 142.03C227.28 141.859 227.115 141.726 226.902 141.63C226.699 141.534 226.432 141.486 226.102 141.486C225.43 141.486 224.902 141.678 224.517 142.062C224.134 142.446 223.942 142.958 223.942 143.598V148.75H222.582V143.326C222.582 143.059 222.555 142.814 222.502 142.59C222.459 142.366 222.379 142.174 222.262 142.014C222.144 141.843 221.984 141.715 221.782 141.63C221.59 141.534 221.339 141.486 221.03 141.486C220.635 141.486 220.294 141.566 220.006 141.726C219.728 141.886 219.499 142.078 219.318 142.302C219.147 142.526 219.019 142.761 218.934 143.006C218.859 143.241 218.822 143.438 218.822 143.598V148.75H217.462V140.478ZM232.094 144.622C232.094 145.123 232.158 145.571 232.286 145.966C232.425 146.35 232.611 146.675 232.846 146.942C233.081 147.198 233.353 147.395 233.662 147.534C233.982 147.673 234.318 147.742 234.67 147.742C235.022 147.742 235.353 147.673 235.662 147.534C235.982 147.395 236.259 147.198 236.494 146.942C236.729 146.675 236.91 146.35 237.038 145.966C237.177 145.571 237.246 145.123 237.246 144.622C237.246 144.121 237.177 143.678 237.038 143.294C236.91 142.899 236.729 142.569 236.494 142.302C236.259 142.035 235.982 141.833 235.662 141.694C235.353 141.555 235.022 141.486 234.67 141.486C234.318 141.486 233.982 141.555 233.662 141.694C233.353 141.833 233.081 142.035 232.846 142.302C232.611 142.569 232.425 142.899 232.286 143.294C232.158 143.678 232.094 144.121 232.094 144.622ZM230.654 144.622C230.654 144.014 230.739 143.449 230.91 142.926C231.081 142.393 231.337 141.934 231.678 141.55C232.019 141.155 232.441 140.846 232.942 140.622C233.443 140.398 234.019 140.286 234.67 140.286C235.331 140.286 235.907 140.398 236.398 140.622C236.899 140.846 237.321 141.155 237.662 141.55C238.003 141.934 238.259 142.393 238.43 142.926C238.601 143.449 238.686 144.014 238.686 144.622C238.686 145.23 238.601 145.795 238.43 146.318C238.259 146.841 238.003 147.299 237.662 147.694C237.321 148.078 236.899 148.382 236.398 148.606C235.907 148.819 235.331 148.926 234.67 148.926C234.019 148.926 233.443 148.819 232.942 148.606C232.441 148.382 232.019 148.078 231.678 147.694C231.337 147.299 231.081 146.841 230.91 146.318C230.739 145.795 230.654 145.23 230.654 144.622ZM241.282 144.686C241.282 145.07 241.33 145.449 241.426 145.822C241.532 146.185 241.687 146.51 241.89 146.798C242.103 147.086 242.37 147.315 242.69 147.486C243.02 147.657 243.404 147.742 243.842 147.742C244.3 147.742 244.69 147.651 245.01 147.47C245.33 147.289 245.591 147.054 245.794 146.766C245.996 146.467 246.14 146.131 246.226 145.758C246.322 145.385 246.37 145.006 246.37 144.622C246.37 144.217 246.322 143.827 246.226 143.454C246.13 143.07 245.975 142.734 245.762 142.446C245.559 142.158 245.292 141.929 244.962 141.758C244.631 141.577 244.231 141.486 243.762 141.486C243.303 141.486 242.914 141.577 242.594 141.758C242.274 141.939 242.018 142.179 241.826 142.478C241.634 142.777 241.495 143.118 241.41 143.502C241.324 143.886 241.282 144.281 241.282 144.686ZM247.682 148.75H246.322V147.63H246.29C246.066 148.089 245.714 148.419 245.234 148.622C244.754 148.825 244.226 148.926 243.65 148.926C243.01 148.926 242.45 148.809 241.97 148.574C241.5 148.339 241.106 148.025 240.786 147.63C240.476 147.235 240.242 146.777 240.082 146.254C239.922 145.731 239.842 145.177 239.842 144.59C239.842 144.003 239.916 143.449 240.066 142.926C240.226 142.403 240.46 141.95 240.77 141.566C241.09 141.171 241.484 140.862 241.954 140.638C242.434 140.403 242.988 140.286 243.618 140.286C243.831 140.286 244.06 140.307 244.306 140.35C244.551 140.393 244.796 140.467 245.042 140.574C245.287 140.67 245.516 140.803 245.73 140.974C245.954 141.134 246.14 141.337 246.29 141.582H246.322V137.326H247.682V148.75ZM255.518 143.822C255.497 143.502 255.422 143.198 255.294 142.91C255.177 142.622 255.011 142.377 254.798 142.174C254.595 141.961 254.35 141.795 254.062 141.678C253.785 141.55 253.475 141.486 253.134 141.486C252.782 141.486 252.462 141.55 252.174 141.678C251.897 141.795 251.657 141.961 251.454 142.174C251.251 142.387 251.091 142.638 250.974 142.926C250.857 143.203 250.787 143.502 250.766 143.822H255.518ZM256.83 146.126C256.649 147.054 256.249 147.753 255.63 148.222C255.011 148.691 254.233 148.926 253.294 148.926C252.633 148.926 252.057 148.819 251.566 148.606C251.086 148.393 250.681 148.094 250.35 147.71C250.019 147.326 249.769 146.867 249.598 146.334C249.438 145.801 249.347 145.219 249.326 144.59C249.326 143.961 249.422 143.385 249.614 142.862C249.806 142.339 250.073 141.886 250.414 141.502C250.766 141.118 251.177 140.819 251.646 140.606C252.126 140.393 252.649 140.286 253.214 140.286C253.95 140.286 254.558 140.441 255.038 140.75C255.529 141.049 255.918 141.433 256.206 141.902C256.505 142.371 256.707 142.883 256.814 143.438C256.931 143.993 256.979 144.521 256.958 145.022H250.766C250.755 145.385 250.798 145.731 250.894 146.062C250.99 146.382 251.145 146.67 251.358 146.926C251.571 147.171 251.843 147.369 252.174 147.518C252.505 147.667 252.894 147.742 253.342 147.742C253.918 147.742 254.387 147.609 254.75 147.342C255.123 147.075 255.369 146.67 255.486 146.126H256.83Z" fill="white"/>
<path d="M355.604 137.826H358.116V147.138H363.684V149.25H355.604V137.826ZM364.952 143.522C364.984 142.989 365.118 142.546 365.352 142.194C365.587 141.842 365.886 141.559 366.248 141.346C366.611 141.133 367.016 140.983 367.464 140.898C367.923 140.802 368.382 140.754 368.84 140.754C369.256 140.754 369.678 140.786 370.104 140.85C370.531 140.903 370.92 141.015 371.272 141.186C371.624 141.357 371.912 141.597 372.136 141.906C372.36 142.205 372.472 142.605 372.472 143.106V147.41C372.472 147.783 372.494 148.141 372.536 148.482C372.579 148.823 372.654 149.079 372.76 149.25H370.456C370.414 149.122 370.376 148.994 370.344 148.866C370.323 148.727 370.307 148.589 370.296 148.45C369.934 148.823 369.507 149.085 369.016 149.234C368.526 149.383 368.024 149.458 367.512 149.458C367.118 149.458 366.75 149.41 366.408 149.314C366.067 149.218 365.768 149.069 365.512 148.866C365.256 148.663 365.054 148.407 364.904 148.098C364.766 147.789 364.696 147.421 364.696 146.994C364.696 146.525 364.776 146.141 364.936 145.842C365.107 145.533 365.32 145.287 365.576 145.106C365.843 144.925 366.142 144.791 366.472 144.706C366.814 144.61 367.155 144.535 367.496 144.482C367.838 144.429 368.174 144.386 368.504 144.354C368.835 144.322 369.128 144.274 369.384 144.21C369.64 144.146 369.843 144.055 369.992 143.938C370.142 143.81 370.211 143.629 370.2 143.394C370.2 143.149 370.158 142.957 370.072 142.818C369.998 142.669 369.891 142.557 369.752 142.482C369.624 142.397 369.47 142.343 369.288 142.322C369.118 142.29 368.931 142.274 368.728 142.274C368.28 142.274 367.928 142.37 367.672 142.562C367.416 142.754 367.267 143.074 367.224 143.522H364.952ZM370.2 145.202C370.104 145.287 369.982 145.357 369.832 145.41C369.694 145.453 369.539 145.49 369.368 145.522C369.208 145.554 369.038 145.581 368.856 145.602C368.675 145.623 368.494 145.65 368.312 145.682C368.142 145.714 367.971 145.757 367.8 145.81C367.64 145.863 367.496 145.938 367.368 146.034C367.251 146.119 367.155 146.231 367.08 146.37C367.006 146.509 366.968 146.685 366.968 146.898C366.968 147.101 367.006 147.271 367.08 147.41C367.155 147.549 367.256 147.661 367.384 147.746C367.512 147.821 367.662 147.874 367.832 147.906C368.003 147.938 368.179 147.954 368.36 147.954C368.808 147.954 369.155 147.879 369.4 147.73C369.646 147.581 369.827 147.405 369.944 147.202C370.062 146.989 370.131 146.775 370.152 146.562C370.184 146.349 370.2 146.178 370.2 146.05V145.202ZM380.5 145.122C380.5 144.77 380.463 144.434 380.388 144.114C380.313 143.794 380.196 143.511 380.036 143.266C379.876 143.021 379.673 142.829 379.428 142.69C379.193 142.541 378.905 142.466 378.564 142.466C378.233 142.466 377.945 142.541 377.7 142.69C377.455 142.829 377.252 143.021 377.092 143.266C376.932 143.511 376.815 143.794 376.74 144.114C376.665 144.434 376.628 144.77 376.628 145.122C376.628 145.463 376.665 145.794 376.74 146.114C376.815 146.434 376.932 146.717 377.092 146.962C377.252 147.207 377.455 147.405 377.7 147.554C377.945 147.693 378.233 147.762 378.564 147.762C378.905 147.762 379.193 147.693 379.428 147.554C379.673 147.405 379.876 147.207 380.036 146.962C380.196 146.717 380.313 146.434 380.388 146.114C380.463 145.794 380.5 145.463 380.5 145.122ZM374.436 137.826H376.708V141.986H376.74C377.017 141.559 377.391 141.25 377.86 141.058C378.34 140.855 378.836 140.754 379.348 140.754C379.764 140.754 380.175 140.839 380.58 141.01C380.985 141.181 381.348 141.442 381.668 141.794C381.999 142.146 382.265 142.599 382.468 143.154C382.671 143.698 382.772 144.349 382.772 145.106C382.772 145.863 382.671 146.519 382.468 147.074C382.265 147.618 381.999 148.066 381.668 148.418C381.348 148.77 380.985 149.031 380.58 149.202C380.175 149.373 379.764 149.458 379.348 149.458C378.74 149.458 378.196 149.362 377.716 149.17C377.236 148.978 376.873 148.653 376.628 148.194H376.596V149.25H374.436V137.826ZM389.985 144.226C389.878 143.65 389.686 143.213 389.409 142.914C389.142 142.615 388.732 142.466 388.177 142.466C387.814 142.466 387.51 142.53 387.265 142.658C387.03 142.775 386.838 142.925 386.689 143.106C386.55 143.287 386.449 143.479 386.385 143.682C386.332 143.885 386.3 144.066 386.289 144.226H389.985ZM386.289 145.666C386.321 146.402 386.508 146.935 386.849 147.266C387.19 147.597 387.681 147.762 388.321 147.762C388.78 147.762 389.174 147.65 389.505 147.426C389.836 147.191 390.038 146.946 390.113 146.69H392.113C391.793 147.682 391.302 148.391 390.641 148.818C389.98 149.245 389.18 149.458 388.241 149.458C387.59 149.458 387.004 149.357 386.481 149.154C385.958 148.941 385.516 148.642 385.153 148.258C384.79 147.874 384.508 147.415 384.305 146.882C384.113 146.349 384.017 145.762 384.017 145.122C384.017 144.503 384.118 143.927 384.321 143.394C384.524 142.861 384.812 142.402 385.185 142.018C385.558 141.623 386.001 141.314 386.513 141.09C387.036 140.866 387.612 140.754 388.241 140.754C388.945 140.754 389.558 140.893 390.081 141.17C390.604 141.437 391.03 141.799 391.361 142.258C391.702 142.717 391.948 143.239 392.097 143.826C392.246 144.413 392.3 145.026 392.257 145.666H386.289ZM393.869 137.826H396.141V149.25H393.869V137.826Z" fill="white"/>
<g clip-path="url(#clip1_75142_13505)">
<path d="M405.562 141.564L411.499 147.625L417.437 141.564L415.741 139.832L411.499 144.162L407.259 139.832L405.562 141.564Z" fill="white"/>
</g>
<defs>
<clipPath id="clip0_75142_13505">
<rect width="20" height="20" fill="white" transform="translate(401.5 37.75)"/>
</clipPath>
<clipPath id="clip1_75142_13505">
<rect width="20" height="20" fill="white" transform="translate(401.5 133.25)"/>
</clipPath>
</defs>
</svg>
