<svg width="600" height="415" viewBox="0 0 600 415" fill="none" xmlns="http://www.w3.org/2000/svg">
<rect width="600" height="415" fill="black" fill-opacity="0.04"/>
<path d="M155.368 112.872C155.368 114.333 154.979 115.432 154.2 116.168C153.421 116.893 152.312 117.256 150.872 117.256C149.4 117.256 148.248 116.909 147.416 116.216C146.595 115.512 146.184 114.397 146.184 112.872V105.576H147.704V112.872C147.704 113.896 147.976 114.675 148.52 115.208C149.064 115.731 149.848 115.992 150.872 115.992C151.843 115.992 152.579 115.731 153.08 115.208C153.592 114.675 153.848 113.896 153.848 112.872V105.576H155.368V112.872ZM157.571 108.728H158.851V110.04H158.883C159.448 109.037 160.344 108.536 161.571 108.536C162.115 108.536 162.568 108.611 162.931 108.76C163.294 108.909 163.587 109.117 163.811 109.384C164.035 109.651 164.19 109.971 164.275 110.344C164.371 110.707 164.419 111.112 164.419 111.56V117H163.059V111.4C163.059 110.888 162.91 110.483 162.611 110.184C162.312 109.885 161.902 109.736 161.379 109.736C160.963 109.736 160.6 109.8 160.291 109.928C159.992 110.056 159.742 110.237 159.539 110.472C159.336 110.707 159.182 110.984 159.075 111.304C158.979 111.613 158.931 111.955 158.931 112.328V117H157.571V108.728ZM167.454 112.872C167.454 113.373 167.518 113.821 167.646 114.216C167.784 114.6 167.971 114.925 168.206 115.192C168.44 115.448 168.712 115.645 169.022 115.784C169.342 115.923 169.678 115.992 170.03 115.992C170.382 115.992 170.712 115.923 171.022 115.784C171.342 115.645 171.619 115.448 171.854 115.192C172.088 114.925 172.27 114.6 172.398 114.216C172.536 113.821 172.606 113.373 172.606 112.872C172.606 112.371 172.536 111.928 172.398 111.544C172.27 111.149 172.088 110.819 171.854 110.552C171.619 110.285 171.342 110.083 171.022 109.944C170.712 109.805 170.382 109.736 170.03 109.736C169.678 109.736 169.342 109.805 169.022 109.944C168.712 110.083 168.44 110.285 168.206 110.552C167.971 110.819 167.784 111.149 167.646 111.544C167.518 111.928 167.454 112.371 167.454 112.872ZM166.014 112.872C166.014 112.264 166.099 111.699 166.27 111.176C166.44 110.643 166.696 110.184 167.038 109.8C167.379 109.405 167.8 109.096 168.302 108.872C168.803 108.648 169.379 108.536 170.03 108.536C170.691 108.536 171.267 108.648 171.758 108.872C172.259 109.096 172.68 109.405 173.022 109.8C173.363 110.184 173.619 110.643 173.79 111.176C173.96 111.699 174.046 112.264 174.046 112.872C174.046 113.48 173.96 114.045 173.79 114.568C173.619 115.091 173.363 115.549 173.022 115.944C172.68 116.328 172.259 116.632 171.758 116.856C171.267 117.069 170.691 117.176 170.03 117.176C169.379 117.176 168.803 117.069 168.302 116.856C167.8 116.632 167.379 116.328 167.038 115.944C166.696 115.549 166.44 115.091 166.27 114.568C166.099 114.045 166.014 113.48 166.014 112.872ZM175.601 108.728H176.881V110.472H176.913C177.244 109.8 177.649 109.304 178.129 108.984C178.609 108.664 179.217 108.515 179.953 108.536V109.976C179.409 109.976 178.945 110.051 178.561 110.2C178.177 110.349 177.868 110.568 177.633 110.856C177.398 111.144 177.228 111.496 177.121 111.912C177.014 112.317 176.961 112.787 176.961 113.32V117H175.601V108.728ZM181.688 112.936C181.688 113.32 181.736 113.699 181.832 114.072C181.939 114.435 182.093 114.76 182.296 115.048C182.509 115.336 182.776 115.565 183.096 115.736C183.427 115.907 183.811 115.992 184.248 115.992C184.707 115.992 185.096 115.901 185.416 115.72C185.736 115.539 185.997 115.304 186.2 115.016C186.403 114.717 186.547 114.381 186.632 114.008C186.728 113.635 186.776 113.256 186.776 112.872C186.776 112.467 186.728 112.077 186.632 111.704C186.536 111.32 186.381 110.984 186.168 110.696C185.965 110.408 185.699 110.179 185.368 110.008C185.037 109.827 184.637 109.736 184.168 109.736C183.709 109.736 183.32 109.827 183 110.008C182.68 110.189 182.424 110.429 182.232 110.728C182.04 111.027 181.901 111.368 181.816 111.752C181.731 112.136 181.688 112.531 181.688 112.936ZM188.088 117H186.728V115.88H186.696C186.472 116.339 186.12 116.669 185.64 116.872C185.16 117.075 184.632 117.176 184.056 117.176C183.416 117.176 182.856 117.059 182.376 116.824C181.907 116.589 181.512 116.275 181.192 115.88C180.883 115.485 180.648 115.027 180.488 114.504C180.328 113.981 180.248 113.427 180.248 112.84C180.248 112.253 180.323 111.699 180.472 111.176C180.632 110.653 180.867 110.2 181.176 109.816C181.496 109.421 181.891 109.112 182.36 108.888C182.84 108.653 183.395 108.536 184.024 108.536C184.237 108.536 184.467 108.557 184.712 108.6C184.957 108.643 185.203 108.717 185.448 108.824C185.693 108.92 185.923 109.053 186.136 109.224C186.36 109.384 186.547 109.587 186.696 109.832H186.728V105.576H188.088V117ZM195.924 112.072C195.903 111.752 195.828 111.448 195.7 111.16C195.583 110.872 195.418 110.627 195.204 110.424C195.002 110.211 194.756 110.045 194.468 109.928C194.191 109.8 193.882 109.736 193.54 109.736C193.188 109.736 192.868 109.8 192.58 109.928C192.303 110.045 192.063 110.211 191.86 110.424C191.658 110.637 191.498 110.888 191.38 111.176C191.263 111.453 191.194 111.752 191.172 112.072H195.924ZM197.236 114.376C197.055 115.304 196.655 116.003 196.036 116.472C195.418 116.941 194.639 117.176 193.7 117.176C193.039 117.176 192.463 117.069 191.972 116.856C191.492 116.643 191.087 116.344 190.756 115.96C190.426 115.576 190.175 115.117 190.004 114.584C189.844 114.051 189.754 113.469 189.732 112.84C189.732 112.211 189.828 111.635 190.02 111.112C190.212 110.589 190.479 110.136 190.82 109.752C191.172 109.368 191.583 109.069 192.052 108.856C192.532 108.643 193.055 108.536 193.62 108.536C194.356 108.536 194.964 108.691 195.444 109C195.935 109.299 196.324 109.683 196.612 110.152C196.911 110.621 197.114 111.133 197.22 111.688C197.338 112.243 197.386 112.771 197.364 113.272H191.172C191.162 113.635 191.204 113.981 191.3 114.312C191.396 114.632 191.551 114.92 191.764 115.176C191.978 115.421 192.25 115.619 192.58 115.768C192.911 115.917 193.3 115.992 193.748 115.992C194.324 115.992 194.794 115.859 195.156 115.592C195.53 115.325 195.775 114.92 195.892 114.376H197.236ZM198.726 108.728H200.006V110.472H200.038C200.369 109.8 200.774 109.304 201.254 108.984C201.734 108.664 202.342 108.515 203.078 108.536V109.976C202.534 109.976 202.07 110.051 201.686 110.2C201.302 110.349 200.993 110.568 200.758 110.856C200.523 111.144 200.353 111.496 200.246 111.912C200.139 112.317 200.086 112.787 200.086 113.32V117H198.726V108.728ZM209.565 112.072C209.544 111.752 209.469 111.448 209.341 111.16C209.224 110.872 209.058 110.627 208.845 110.424C208.642 110.211 208.397 110.045 208.109 109.928C207.832 109.8 207.522 109.736 207.181 109.736C206.829 109.736 206.509 109.8 206.221 109.928C205.944 110.045 205.704 110.211 205.501 110.424C205.298 110.637 205.138 110.888 205.021 111.176C204.904 111.453 204.834 111.752 204.813 112.072H209.565ZM210.877 114.376C210.696 115.304 210.296 116.003 209.677 116.472C209.058 116.941 208.28 117.176 207.341 117.176C206.68 117.176 206.104 117.069 205.613 116.856C205.133 116.643 204.728 116.344 204.397 115.96C204.066 115.576 203.816 115.117 203.645 114.584C203.485 114.051 203.394 113.469 203.373 112.84C203.373 112.211 203.469 111.635 203.661 111.112C203.853 110.589 204.12 110.136 204.461 109.752C204.813 109.368 205.224 109.069 205.693 108.856C206.173 108.643 206.696 108.536 207.261 108.536C207.997 108.536 208.605 108.691 209.085 109C209.576 109.299 209.965 109.683 210.253 110.152C210.552 110.621 210.754 111.133 210.861 111.688C210.978 112.243 211.026 112.771 211.005 113.272H204.813C204.802 113.635 204.845 113.981 204.941 114.312C205.037 114.632 205.192 114.92 205.405 115.176C205.618 115.421 205.89 115.619 206.221 115.768C206.552 115.917 206.941 115.992 207.389 115.992C207.965 115.992 208.434 115.859 208.797 115.592C209.17 115.325 209.416 114.92 209.533 114.376H210.877ZM213.407 112.936C213.407 113.32 213.455 113.699 213.551 114.072C213.657 114.435 213.812 114.76 214.015 115.048C214.228 115.336 214.495 115.565 214.815 115.736C215.145 115.907 215.529 115.992 215.967 115.992C216.425 115.992 216.815 115.901 217.135 115.72C217.455 115.539 217.716 115.304 217.919 115.016C218.121 114.717 218.265 114.381 218.351 114.008C218.447 113.635 218.495 113.256 218.495 112.872C218.495 112.467 218.447 112.077 218.351 111.704C218.255 111.32 218.1 110.984 217.887 110.696C217.684 110.408 217.417 110.179 217.087 110.008C216.756 109.827 216.356 109.736 215.887 109.736C215.428 109.736 215.039 109.827 214.719 110.008C214.399 110.189 214.143 110.429 213.951 110.728C213.759 111.027 213.62 111.368 213.535 111.752C213.449 112.136 213.407 112.531 213.407 112.936ZM219.807 117H218.447V115.88H218.415C218.191 116.339 217.839 116.669 217.359 116.872C216.879 117.075 216.351 117.176 215.775 117.176C215.135 117.176 214.575 117.059 214.095 116.824C213.625 116.589 213.231 116.275 212.911 115.88C212.601 115.485 212.367 115.027 212.207 114.504C212.047 113.981 211.967 113.427 211.967 112.84C211.967 112.253 212.041 111.699 212.191 111.176C212.351 110.653 212.585 110.2 212.895 109.816C213.215 109.421 213.609 109.112 214.079 108.888C214.559 108.653 215.113 108.536 215.743 108.536C215.956 108.536 216.185 108.557 216.431 108.6C216.676 108.643 216.921 108.717 217.167 108.824C217.412 108.92 217.641 109.053 217.855 109.224C218.079 109.384 218.265 109.587 218.415 109.832H218.447V105.576H219.807V117Z" fill="black" fill-opacity="0.68"/>
<g clip-path="url(#clip0_58210_176780)">
<path d="M342.917 107.579H335.083V115.412H342.917V107.579Z" fill="black"/>
</g>
<path d="M358.248 106.076H359.768V116.22H365.816V117.5H358.248V106.076ZM374.443 117.468C374.208 117.607 373.883 117.676 373.467 117.676C373.115 117.676 372.832 117.58 372.619 117.388C372.416 117.185 372.315 116.86 372.315 116.412C371.941 116.86 371.504 117.185 371.003 117.388C370.512 117.58 369.979 117.676 369.403 117.676C369.029 117.676 368.672 117.633 368.331 117.548C368 117.463 367.712 117.329 367.467 117.148C367.221 116.967 367.024 116.732 366.875 116.444C366.736 116.145 366.667 115.788 366.667 115.372C366.667 114.903 366.747 114.519 366.907 114.22C367.067 113.921 367.275 113.681 367.531 113.5C367.797 113.308 368.096 113.164 368.427 113.068C368.768 112.972 369.115 112.892 369.467 112.828C369.84 112.753 370.192 112.7 370.523 112.668C370.864 112.625 371.163 112.572 371.419 112.508C371.675 112.433 371.877 112.332 372.027 112.204C372.176 112.065 372.251 111.868 372.251 111.612C372.251 111.313 372.192 111.073 372.075 110.892C371.968 110.711 371.824 110.572 371.643 110.476C371.472 110.38 371.275 110.316 371.051 110.284C370.837 110.252 370.624 110.236 370.411 110.236C369.835 110.236 369.355 110.348 368.971 110.572C368.587 110.785 368.379 111.196 368.347 111.804H366.987C367.008 111.292 367.115 110.86 367.307 110.508C367.499 110.156 367.755 109.873 368.075 109.66C368.395 109.436 368.757 109.276 369.163 109.18C369.579 109.084 370.021 109.036 370.491 109.036C370.864 109.036 371.232 109.063 371.595 109.116C371.968 109.169 372.304 109.281 372.603 109.452C372.901 109.612 373.141 109.841 373.323 110.14C373.504 110.439 373.595 110.828 373.595 111.308V115.564C373.595 115.884 373.611 116.119 373.643 116.268C373.685 116.417 373.813 116.492 374.027 116.492C374.144 116.492 374.283 116.465 374.443 116.412V117.468ZM372.235 113.228C372.064 113.356 371.84 113.452 371.563 113.516C371.285 113.569 370.992 113.617 370.683 113.66C370.384 113.692 370.08 113.735 369.771 113.788C369.461 113.831 369.184 113.905 368.939 114.012C368.693 114.119 368.491 114.273 368.331 114.476C368.181 114.668 368.107 114.935 368.107 115.276C368.107 115.5 368.149 115.692 368.235 115.852C368.331 116.001 368.448 116.124 368.587 116.22C368.736 116.316 368.907 116.385 369.099 116.428C369.291 116.471 369.493 116.492 369.707 116.492C370.155 116.492 370.539 116.433 370.859 116.316C371.179 116.188 371.44 116.033 371.643 115.852C371.845 115.66 371.995 115.457 372.091 115.244C372.187 115.02 372.235 114.812 372.235 114.62V113.228ZM375.956 106.076H377.316V110.348H377.348C377.572 109.889 377.924 109.559 378.404 109.356C378.884 109.143 379.412 109.036 379.988 109.036C380.628 109.036 381.183 109.153 381.652 109.388C382.132 109.623 382.527 109.943 382.836 110.348C383.156 110.743 383.396 111.201 383.556 111.724C383.716 112.247 383.796 112.801 383.796 113.388C383.796 113.975 383.716 114.529 383.556 115.052C383.407 115.575 383.172 116.033 382.852 116.428C382.543 116.812 382.148 117.116 381.668 117.34C381.199 117.564 380.65 117.676 380.02 117.676C379.818 117.676 379.588 117.655 379.332 117.612C379.087 117.569 378.842 117.5 378.596 117.404C378.351 117.308 378.116 117.18 377.892 117.02C377.679 116.849 377.498 116.641 377.348 116.396H377.316V117.5H375.956V106.076ZM382.356 113.292C382.356 112.908 382.303 112.535 382.196 112.172C382.1 111.799 381.946 111.468 381.732 111.18C381.53 110.892 381.263 110.663 380.932 110.492C380.612 110.321 380.234 110.236 379.796 110.236C379.338 110.236 378.948 110.327 378.628 110.508C378.308 110.689 378.047 110.929 377.844 111.228C377.642 111.516 377.492 111.847 377.396 112.22C377.311 112.593 377.268 112.972 377.268 113.356C377.268 113.761 377.316 114.156 377.412 114.54C377.508 114.913 377.658 115.244 377.86 115.532C378.074 115.82 378.346 116.055 378.676 116.236C379.007 116.407 379.407 116.492 379.876 116.492C380.346 116.492 380.735 116.401 381.044 116.22C381.364 116.039 381.62 115.799 381.812 115.5C382.004 115.201 382.143 114.86 382.228 114.476C382.314 114.092 382.356 113.697 382.356 113.292ZM391.337 112.572C391.315 112.252 391.241 111.948 391.113 111.66C390.995 111.372 390.83 111.127 390.617 110.924C390.414 110.711 390.169 110.545 389.881 110.428C389.603 110.3 389.294 110.236 388.953 110.236C388.601 110.236 388.281 110.3 387.993 110.428C387.715 110.545 387.475 110.711 387.273 110.924C387.07 111.137 386.91 111.388 386.793 111.676C386.675 111.953 386.606 112.252 386.585 112.572H391.337ZM392.649 114.876C392.467 115.804 392.067 116.503 391.449 116.972C390.83 117.441 390.051 117.676 389.113 117.676C388.451 117.676 387.875 117.569 387.385 117.356C386.905 117.143 386.499 116.844 386.169 116.46C385.838 116.076 385.587 115.617 385.417 115.084C385.257 114.551 385.166 113.969 385.145 113.34C385.145 112.711 385.241 112.135 385.433 111.612C385.625 111.089 385.891 110.636 386.233 110.252C386.585 109.868 386.995 109.569 387.465 109.356C387.945 109.143 388.467 109.036 389.033 109.036C389.769 109.036 390.377 109.191 390.857 109.5C391.347 109.799 391.737 110.183 392.025 110.652C392.323 111.121 392.526 111.633 392.633 112.188C392.75 112.743 392.798 113.271 392.777 113.772H386.585C386.574 114.135 386.617 114.481 386.713 114.812C386.809 115.132 386.963 115.42 387.177 115.676C387.39 115.921 387.662 116.119 387.993 116.268C388.323 116.417 388.713 116.492 389.161 116.492C389.737 116.492 390.206 116.359 390.569 116.092C390.942 115.825 391.187 115.42 391.305 114.876H392.649ZM394.466 106.076H395.826V117.5H394.466V106.076Z" fill="black"/>
<path d="M147.128 207.288C147.128 207.864 147.203 208.435 147.352 209C147.501 209.555 147.736 210.056 148.056 210.504C148.376 210.952 148.787 211.315 149.288 211.592C149.789 211.859 150.387 211.992 151.08 211.992C151.773 211.992 152.371 211.859 152.872 211.592C153.373 211.315 153.784 210.952 154.104 210.504C154.424 210.056 154.659 209.555 154.808 209C154.957 208.435 155.032 207.864 155.032 207.288C155.032 206.712 154.957 206.147 154.808 205.592C154.659 205.027 154.424 204.52 154.104 204.072C153.784 203.624 153.373 203.267 152.872 203C152.371 202.723 151.773 202.584 151.08 202.584C150.387 202.584 149.789 202.723 149.288 203C148.787 203.267 148.376 203.624 148.056 204.072C147.736 204.52 147.501 205.027 147.352 205.592C147.203 206.147 147.128 206.712 147.128 207.288ZM145.608 207.288C145.608 206.509 145.72 205.763 145.944 205.048C146.179 204.323 146.525 203.683 146.984 203.128C147.443 202.573 148.013 202.131 148.696 201.8C149.379 201.469 150.173 201.304 151.08 201.304C151.987 201.304 152.781 201.469 153.464 201.8C154.147 202.131 154.717 202.573 155.176 203.128C155.635 203.683 155.976 204.323 156.2 205.048C156.435 205.763 156.552 206.509 156.552 207.288C156.552 208.067 156.435 208.819 156.2 209.544C155.976 210.259 155.635 210.893 155.176 211.448C154.717 212.003 154.147 212.445 153.464 212.776C152.781 213.096 151.987 213.256 151.08 213.256C150.173 213.256 149.379 213.096 148.696 212.776C148.013 212.445 147.443 212.003 146.984 211.448C146.525 210.893 146.179 210.259 145.944 209.544C145.72 208.819 145.608 208.067 145.608 207.288ZM158.132 204.728H159.412V206.472H159.444C159.775 205.8 160.18 205.304 160.66 204.984C161.14 204.664 161.748 204.515 162.484 204.536V205.976C161.94 205.976 161.476 206.051 161.092 206.2C160.708 206.349 160.399 206.568 160.164 206.856C159.93 207.144 159.759 207.496 159.652 207.912C159.546 208.317 159.492 208.787 159.492 209.32V213H158.132V204.728ZM164.219 208.936C164.219 209.32 164.267 209.699 164.363 210.072C164.47 210.435 164.624 210.76 164.827 211.048C165.04 211.336 165.307 211.565 165.627 211.736C165.958 211.907 166.342 211.992 166.779 211.992C167.238 211.992 167.627 211.901 167.947 211.72C168.267 211.539 168.528 211.304 168.731 211.016C168.934 210.717 169.078 210.381 169.163 210.008C169.259 209.635 169.307 209.256 169.307 208.872C169.307 208.467 169.259 208.077 169.163 207.704C169.067 207.32 168.912 206.984 168.699 206.696C168.496 206.408 168.23 206.179 167.899 206.008C167.568 205.827 167.168 205.736 166.699 205.736C166.24 205.736 165.851 205.827 165.531 206.008C165.211 206.189 164.955 206.429 164.763 206.728C164.571 207.027 164.432 207.368 164.347 207.752C164.262 208.136 164.219 208.531 164.219 208.936ZM170.619 213H169.259V211.88H169.227C169.003 212.339 168.651 212.669 168.171 212.872C167.691 213.075 167.163 213.176 166.587 213.176C165.947 213.176 165.387 213.059 164.907 212.824C164.438 212.589 164.043 212.275 163.723 211.88C163.414 211.485 163.179 211.027 163.019 210.504C162.859 209.981 162.779 209.427 162.779 208.84C162.779 208.253 162.854 207.699 163.003 207.176C163.163 206.653 163.398 206.2 163.707 205.816C164.027 205.421 164.422 205.112 164.891 204.888C165.371 204.653 165.926 204.536 166.555 204.536C166.768 204.536 166.998 204.557 167.243 204.6C167.488 204.643 167.734 204.717 167.979 204.824C168.224 204.92 168.454 205.053 168.667 205.224C168.891 205.384 169.078 205.587 169.227 205.832H169.259V201.576H170.619V213ZM178.456 208.072C178.434 207.752 178.36 207.448 178.232 207.16C178.114 206.872 177.949 206.627 177.736 206.424C177.533 206.211 177.288 206.045 177 205.928C176.722 205.8 176.413 205.736 176.072 205.736C175.72 205.736 175.4 205.8 175.112 205.928C174.834 206.045 174.594 206.211 174.392 206.424C174.189 206.637 174.029 206.888 173.912 207.176C173.794 207.453 173.725 207.752 173.704 208.072H178.456ZM179.767 210.376C179.586 211.304 179.186 212.003 178.568 212.472C177.949 212.941 177.17 213.176 176.232 213.176C175.57 213.176 174.994 213.069 174.504 212.856C174.024 212.643 173.618 212.344 173.288 211.96C172.957 211.576 172.706 211.117 172.536 210.584C172.376 210.051 172.285 209.469 172.264 208.84C172.264 208.211 172.36 207.635 172.552 207.112C172.744 206.589 173.01 206.136 173.352 205.752C173.704 205.368 174.114 205.069 174.584 204.856C175.064 204.643 175.586 204.536 176.152 204.536C176.888 204.536 177.496 204.691 177.976 205C178.466 205.299 178.856 205.683 179.144 206.152C179.442 206.621 179.645 207.133 179.752 207.688C179.869 208.243 179.917 208.771 179.896 209.272H173.704C173.693 209.635 173.736 209.981 173.832 210.312C173.928 210.632 174.082 210.92 174.296 211.176C174.509 211.421 174.781 211.619 175.112 211.768C175.442 211.917 175.832 211.992 176.28 211.992C176.856 211.992 177.325 211.859 177.688 211.592C178.061 211.325 178.306 210.92 178.424 210.376H179.767ZM181.257 204.728H182.537V206.472H182.569C182.9 205.8 183.305 205.304 183.785 204.984C184.265 204.664 184.873 204.515 185.609 204.536V205.976C185.065 205.976 184.601 206.051 184.217 206.2C183.833 206.349 183.524 206.568 183.289 206.856C183.055 207.144 182.884 207.496 182.777 207.912C182.671 208.317 182.617 208.787 182.617 209.32V213H181.257V204.728ZM192.096 208.072C192.075 207.752 192 207.448 191.872 207.16C191.755 206.872 191.589 206.627 191.376 206.424C191.173 206.211 190.928 206.045 190.64 205.928C190.363 205.8 190.053 205.736 189.712 205.736C189.36 205.736 189.04 205.8 188.752 205.928C188.475 206.045 188.235 206.211 188.032 206.424C187.829 206.637 187.669 206.888 187.552 207.176C187.435 207.453 187.365 207.752 187.344 208.072H192.096ZM193.408 210.376C193.227 211.304 192.827 212.003 192.208 212.472C191.589 212.941 190.811 213.176 189.872 213.176C189.211 213.176 188.635 213.069 188.144 212.856C187.664 212.643 187.259 212.344 186.928 211.96C186.597 211.576 186.347 211.117 186.176 210.584C186.016 210.051 185.925 209.469 185.904 208.84C185.904 208.211 186 207.635 186.192 207.112C186.384 206.589 186.651 206.136 186.992 205.752C187.344 205.368 187.755 205.069 188.224 204.856C188.704 204.643 189.227 204.536 189.792 204.536C190.528 204.536 191.136 204.691 191.616 205C192.107 205.299 192.496 205.683 192.784 206.152C193.083 206.621 193.285 207.133 193.392 207.688C193.509 208.243 193.557 208.771 193.536 209.272H187.344C187.333 209.635 187.376 209.981 187.472 210.312C187.568 210.632 187.723 210.92 187.936 211.176C188.149 211.421 188.421 211.619 188.752 211.768C189.083 211.917 189.472 211.992 189.92 211.992C190.496 211.992 190.965 211.859 191.328 211.592C191.701 211.325 191.947 210.92 192.064 210.376H193.408ZM195.938 208.936C195.938 209.32 195.986 209.699 196.082 210.072C196.189 210.435 196.343 210.76 196.546 211.048C196.759 211.336 197.026 211.565 197.346 211.736C197.677 211.907 198.061 211.992 198.498 211.992C198.957 211.992 199.346 211.901 199.666 211.72C199.986 211.539 200.247 211.304 200.45 211.016C200.653 210.717 200.797 210.381 200.882 210.008C200.978 209.635 201.026 209.256 201.026 208.872C201.026 208.467 200.978 208.077 200.882 207.704C200.786 207.32 200.631 206.984 200.418 206.696C200.215 206.408 199.949 206.179 199.618 206.008C199.287 205.827 198.887 205.736 198.418 205.736C197.959 205.736 197.57 205.827 197.25 206.008C196.93 206.189 196.674 206.429 196.482 206.728C196.29 207.027 196.151 207.368 196.066 207.752C195.981 208.136 195.938 208.531 195.938 208.936ZM202.338 213H200.978V211.88H200.946C200.722 212.339 200.37 212.669 199.89 212.872C199.41 213.075 198.882 213.176 198.306 213.176C197.666 213.176 197.106 213.059 196.626 212.824C196.157 212.589 195.762 212.275 195.442 211.88C195.133 211.485 194.898 211.027 194.738 210.504C194.578 209.981 194.498 209.427 194.498 208.84C194.498 208.253 194.573 207.699 194.722 207.176C194.882 206.653 195.117 206.2 195.426 205.816C195.746 205.421 196.141 205.112 196.61 204.888C197.09 204.653 197.645 204.536 198.274 204.536C198.487 204.536 198.717 204.557 198.962 204.6C199.207 204.643 199.453 204.717 199.698 204.824C199.943 204.92 200.173 205.053 200.386 205.224C200.61 205.384 200.797 205.587 200.946 205.832H200.978V201.576H202.338V213Z" fill="black" fill-opacity="0.68"/>
<path d="M341.152 213.5H339.792V205.372H336.848V204.284C337.232 204.284 337.606 204.257 337.968 204.204C338.331 204.14 338.656 204.028 338.944 203.868C339.243 203.708 339.494 203.489 339.696 203.212C339.899 202.935 340.038 202.583 340.112 202.156H341.152V213.5ZM345.875 211.724H347.651V213.5H345.875V211.724Z" fill="black"/>
<path d="M358.248 202.076H359.768V212.22H365.816V213.5H358.248V202.076ZM374.443 213.468C374.208 213.607 373.883 213.676 373.467 213.676C373.115 213.676 372.832 213.58 372.619 213.388C372.416 213.185 372.315 212.86 372.315 212.412C371.941 212.86 371.504 213.185 371.003 213.388C370.512 213.58 369.979 213.676 369.403 213.676C369.029 213.676 368.672 213.633 368.331 213.548C368 213.463 367.712 213.329 367.467 213.148C367.221 212.967 367.024 212.732 366.875 212.444C366.736 212.145 366.667 211.788 366.667 211.372C366.667 210.903 366.747 210.519 366.907 210.22C367.067 209.921 367.275 209.681 367.531 209.5C367.797 209.308 368.096 209.164 368.427 209.068C368.768 208.972 369.115 208.892 369.467 208.828C369.84 208.753 370.192 208.7 370.523 208.668C370.864 208.625 371.163 208.572 371.419 208.508C371.675 208.433 371.877 208.332 372.027 208.204C372.176 208.065 372.251 207.868 372.251 207.612C372.251 207.313 372.192 207.073 372.075 206.892C371.968 206.711 371.824 206.572 371.643 206.476C371.472 206.38 371.275 206.316 371.051 206.284C370.837 206.252 370.624 206.236 370.411 206.236C369.835 206.236 369.355 206.348 368.971 206.572C368.587 206.785 368.379 207.196 368.347 207.804H366.987C367.008 207.292 367.115 206.86 367.307 206.508C367.499 206.156 367.755 205.873 368.075 205.66C368.395 205.436 368.757 205.276 369.163 205.18C369.579 205.084 370.021 205.036 370.491 205.036C370.864 205.036 371.232 205.063 371.595 205.116C371.968 205.169 372.304 205.281 372.603 205.452C372.901 205.612 373.141 205.841 373.323 206.14C373.504 206.439 373.595 206.828 373.595 207.308V211.564C373.595 211.884 373.611 212.119 373.643 212.268C373.685 212.417 373.813 212.492 374.027 212.492C374.144 212.492 374.283 212.465 374.443 212.412V213.468ZM372.235 209.228C372.064 209.356 371.84 209.452 371.563 209.516C371.285 209.569 370.992 209.617 370.683 209.66C370.384 209.692 370.08 209.735 369.771 209.788C369.461 209.831 369.184 209.905 368.939 210.012C368.693 210.119 368.491 210.273 368.331 210.476C368.181 210.668 368.107 210.935 368.107 211.276C368.107 211.5 368.149 211.692 368.235 211.852C368.331 212.001 368.448 212.124 368.587 212.22C368.736 212.316 368.907 212.385 369.099 212.428C369.291 212.471 369.493 212.492 369.707 212.492C370.155 212.492 370.539 212.433 370.859 212.316C371.179 212.188 371.44 212.033 371.643 211.852C371.845 211.66 371.995 211.457 372.091 211.244C372.187 211.02 372.235 210.812 372.235 210.62V209.228ZM375.956 202.076H377.316V206.348H377.348C377.572 205.889 377.924 205.559 378.404 205.356C378.884 205.143 379.412 205.036 379.988 205.036C380.628 205.036 381.183 205.153 381.652 205.388C382.132 205.623 382.527 205.943 382.836 206.348C383.156 206.743 383.396 207.201 383.556 207.724C383.716 208.247 383.796 208.801 383.796 209.388C383.796 209.975 383.716 210.529 383.556 211.052C383.407 211.575 383.172 212.033 382.852 212.428C382.543 212.812 382.148 213.116 381.668 213.34C381.199 213.564 380.65 213.676 380.02 213.676C379.818 213.676 379.588 213.655 379.332 213.612C379.087 213.569 378.842 213.5 378.596 213.404C378.351 213.308 378.116 213.18 377.892 213.02C377.679 212.849 377.498 212.641 377.348 212.396H377.316V213.5H375.956V202.076ZM382.356 209.292C382.356 208.908 382.303 208.535 382.196 208.172C382.1 207.799 381.946 207.468 381.732 207.18C381.53 206.892 381.263 206.663 380.932 206.492C380.612 206.321 380.234 206.236 379.796 206.236C379.338 206.236 378.948 206.327 378.628 206.508C378.308 206.689 378.047 206.929 377.844 207.228C377.642 207.516 377.492 207.847 377.396 208.22C377.311 208.593 377.268 208.972 377.268 209.356C377.268 209.761 377.316 210.156 377.412 210.54C377.508 210.913 377.658 211.244 377.86 211.532C378.074 211.82 378.346 212.055 378.676 212.236C379.007 212.407 379.407 212.492 379.876 212.492C380.346 212.492 380.735 212.401 381.044 212.22C381.364 212.039 381.62 211.799 381.812 211.5C382.004 211.201 382.143 210.86 382.228 210.476C382.314 210.092 382.356 209.697 382.356 209.292ZM391.337 208.572C391.315 208.252 391.241 207.948 391.113 207.66C390.995 207.372 390.83 207.127 390.617 206.924C390.414 206.711 390.169 206.545 389.881 206.428C389.603 206.3 389.294 206.236 388.953 206.236C388.601 206.236 388.281 206.3 387.993 206.428C387.715 206.545 387.475 206.711 387.273 206.924C387.07 207.137 386.91 207.388 386.793 207.676C386.675 207.953 386.606 208.252 386.585 208.572H391.337ZM392.649 210.876C392.467 211.804 392.067 212.503 391.449 212.972C390.83 213.441 390.051 213.676 389.113 213.676C388.451 213.676 387.875 213.569 387.385 213.356C386.905 213.143 386.499 212.844 386.169 212.46C385.838 212.076 385.587 211.617 385.417 211.084C385.257 210.551 385.166 209.969 385.145 209.34C385.145 208.711 385.241 208.135 385.433 207.612C385.625 207.089 385.891 206.636 386.233 206.252C386.585 205.868 386.995 205.569 387.465 205.356C387.945 205.143 388.467 205.036 389.033 205.036C389.769 205.036 390.377 205.191 390.857 205.5C391.347 205.799 391.737 206.183 392.025 206.652C392.323 207.121 392.526 207.633 392.633 208.188C392.75 208.743 392.798 209.271 392.777 209.772H386.585C386.574 210.135 386.617 210.481 386.713 210.812C386.809 211.132 386.963 211.42 387.177 211.676C387.39 211.921 387.662 212.119 387.993 212.268C388.323 212.417 388.713 212.492 389.161 212.492C389.737 212.492 390.206 212.359 390.569 212.092C390.942 211.825 391.187 211.42 391.305 210.876H392.649ZM394.466 202.076H395.826V213.5H394.466V202.076Z" fill="black"/>
<path d="M155.368 304.872C155.368 306.333 154.979 307.432 154.2 308.168C153.421 308.893 152.312 309.256 150.872 309.256C149.4 309.256 148.248 308.909 147.416 308.216C146.595 307.512 146.184 306.397 146.184 304.872V297.576H147.704V304.872C147.704 305.896 147.976 306.675 148.52 307.208C149.064 307.731 149.848 307.992 150.872 307.992C151.843 307.992 152.579 307.731 153.08 307.208C153.592 306.675 153.848 305.896 153.848 304.872V297.576H155.368V304.872ZM157.571 300.728H158.851V302.04H158.883C159.448 301.037 160.344 300.536 161.571 300.536C162.115 300.536 162.568 300.611 162.931 300.76C163.294 300.909 163.587 301.117 163.811 301.384C164.035 301.651 164.19 301.971 164.275 302.344C164.371 302.707 164.419 303.112 164.419 303.56V309H163.059V303.4C163.059 302.888 162.91 302.483 162.611 302.184C162.312 301.885 161.902 301.736 161.379 301.736C160.963 301.736 160.6 301.8 160.291 301.928C159.992 302.056 159.742 302.237 159.539 302.472C159.336 302.707 159.182 302.984 159.075 303.304C158.979 303.613 158.931 303.955 158.931 304.328V309H157.571V300.728ZM167.294 306.392C167.304 306.691 167.374 306.947 167.502 307.16C167.63 307.363 167.795 307.528 167.998 307.656C168.211 307.773 168.446 307.859 168.702 307.912C168.968 307.965 169.24 307.992 169.518 307.992C169.731 307.992 169.955 307.976 170.19 307.944C170.424 307.912 170.638 307.853 170.83 307.768C171.032 307.683 171.198 307.56 171.326 307.4C171.454 307.229 171.518 307.016 171.518 306.76C171.518 306.408 171.384 306.141 171.118 305.96C170.851 305.779 170.515 305.635 170.11 305.528C169.715 305.411 169.283 305.309 168.814 305.224C168.344 305.128 167.907 305 167.502 304.84C167.107 304.669 166.776 304.435 166.51 304.136C166.243 303.837 166.11 303.421 166.11 302.888C166.11 302.472 166.2 302.115 166.382 301.816C166.574 301.517 166.814 301.277 167.102 301.096C167.4 300.904 167.731 300.765 168.094 300.68C168.467 300.584 168.835 300.536 169.198 300.536C169.667 300.536 170.099 300.579 170.494 300.664C170.888 300.739 171.235 300.877 171.534 301.08C171.843 301.272 172.088 301.539 172.27 301.88C172.451 302.211 172.558 302.627 172.59 303.128H171.23C171.208 302.861 171.139 302.643 171.022 302.472C170.904 302.291 170.755 302.147 170.574 302.04C170.392 301.933 170.19 301.859 169.966 301.816C169.752 301.763 169.534 301.736 169.31 301.736C169.107 301.736 168.899 301.752 168.686 301.784C168.483 301.816 168.296 301.875 168.126 301.96C167.955 302.035 167.816 302.141 167.71 302.28C167.603 302.408 167.549 302.579 167.549 302.792C167.549 303.027 167.629 303.224 167.789 303.384C167.96 303.533 168.174 303.661 168.43 303.768C168.686 303.864 168.974 303.949 169.294 304.024C169.614 304.088 169.934 304.157 170.254 304.232C170.595 304.307 170.926 304.397 171.246 304.504C171.576 304.611 171.864 304.755 172.11 304.936C172.366 305.107 172.568 305.325 172.718 305.592C172.878 305.859 172.958 306.189 172.958 306.584C172.958 307.085 172.851 307.501 172.638 307.832C172.435 308.163 172.163 308.429 171.822 308.632C171.491 308.835 171.112 308.973 170.686 309.048C170.27 309.133 169.854 309.176 169.438 309.176C168.979 309.176 168.542 309.128 168.126 309.032C167.71 308.936 167.342 308.781 167.022 308.568C166.702 308.344 166.446 308.056 166.254 307.704C166.062 307.341 165.955 306.904 165.934 306.392H167.294ZM176.35 300.728H177.998V301.928H176.35V307.064C176.35 307.224 176.36 307.352 176.382 307.448C176.414 307.544 176.467 307.619 176.542 307.672C176.616 307.725 176.718 307.763 176.846 307.784C176.984 307.795 177.16 307.8 177.374 307.8H177.998V309H176.958C176.606 309 176.302 308.979 176.046 308.936C175.8 308.883 175.598 308.792 175.438 308.664C175.288 308.536 175.176 308.355 175.102 308.12C175.027 307.885 174.99 307.576 174.99 307.192V301.928H173.582V300.728H174.99V298.248H176.35V300.728ZM182.756 310.104C182.596 310.509 182.436 310.851 182.276 311.128C182.127 311.405 181.956 311.629 181.764 311.8C181.583 311.981 181.375 312.109 181.14 312.184C180.916 312.269 180.655 312.312 180.356 312.312C180.196 312.312 180.036 312.301 179.876 312.28C179.716 312.259 179.562 312.221 179.412 312.168V310.92C179.53 310.973 179.663 311.016 179.812 311.048C179.972 311.091 180.106 311.112 180.212 311.112C180.49 311.112 180.719 311.043 180.9 310.904C181.092 310.776 181.236 310.589 181.332 310.344L181.892 308.952L178.612 300.728H180.148L182.564 307.496H182.596L184.916 300.728H186.356L182.756 310.104ZM187.588 297.576H188.948V309H187.588V297.576ZM196.799 304.072C196.778 303.752 196.703 303.448 196.575 303.16C196.458 302.872 196.293 302.627 196.079 302.424C195.877 302.211 195.631 302.045 195.343 301.928C195.066 301.8 194.757 301.736 194.415 301.736C194.063 301.736 193.743 301.8 193.455 301.928C193.178 302.045 192.938 302.211 192.735 302.424C192.533 302.637 192.373 302.888 192.255 303.176C192.138 303.453 192.069 303.752 192.047 304.072H196.799ZM198.111 306.376C197.93 307.304 197.53 308.003 196.911 308.472C196.293 308.941 195.514 309.176 194.575 309.176C193.914 309.176 193.338 309.069 192.847 308.856C192.367 308.643 191.962 308.344 191.631 307.96C191.301 307.576 191.05 307.117 190.879 306.584C190.719 306.051 190.629 305.469 190.607 304.84C190.607 304.211 190.703 303.635 190.895 303.112C191.087 302.589 191.354 302.136 191.695 301.752C192.047 301.368 192.458 301.069 192.927 300.856C193.407 300.643 193.93 300.536 194.495 300.536C195.231 300.536 195.839 300.691 196.319 301C196.81 301.299 197.199 301.683 197.487 302.152C197.786 302.621 197.989 303.133 198.095 303.688C198.213 304.243 198.261 304.771 198.239 305.272H192.047C192.037 305.635 192.079 305.981 192.175 306.312C192.271 306.632 192.426 306.92 192.639 307.176C192.853 307.421 193.125 307.619 193.455 307.768C193.786 307.917 194.175 307.992 194.623 307.992C195.199 307.992 195.669 307.859 196.031 307.592C196.405 307.325 196.65 306.92 196.767 306.376H198.111ZM200.641 304.936C200.641 305.32 200.689 305.699 200.785 306.072C200.892 306.435 201.046 306.76 201.249 307.048C201.462 307.336 201.729 307.565 202.049 307.736C202.38 307.907 202.764 307.992 203.201 307.992C203.66 307.992 204.049 307.901 204.369 307.72C204.689 307.539 204.95 307.304 205.153 307.016C205.356 306.717 205.5 306.381 205.585 306.008C205.681 305.635 205.729 305.256 205.729 304.872C205.729 304.467 205.681 304.077 205.585 303.704C205.489 303.32 205.334 302.984 205.121 302.696C204.918 302.408 204.652 302.179 204.321 302.008C203.99 301.827 203.59 301.736 203.121 301.736C202.662 301.736 202.273 301.827 201.953 302.008C201.633 302.189 201.377 302.429 201.185 302.728C200.993 303.027 200.854 303.368 200.769 303.752C200.684 304.136 200.641 304.531 200.641 304.936ZM207.041 309H205.681V307.88H205.649C205.425 308.339 205.073 308.669 204.593 308.872C204.113 309.075 203.585 309.176 203.009 309.176C202.369 309.176 201.809 309.059 201.329 308.824C200.86 308.589 200.465 308.275 200.145 307.88C199.836 307.485 199.601 307.027 199.441 306.504C199.281 305.981 199.201 305.427 199.201 304.84C199.201 304.253 199.276 303.699 199.425 303.176C199.585 302.653 199.82 302.2 200.129 301.816C200.449 301.421 200.844 301.112 201.313 300.888C201.793 300.653 202.348 300.536 202.977 300.536C203.19 300.536 203.42 300.557 203.665 300.6C203.91 300.643 204.156 300.717 204.401 300.824C204.646 300.92 204.876 301.053 205.089 301.224C205.313 301.384 205.5 301.587 205.649 301.832H205.681V297.576H207.041V309Z" fill="black" fill-opacity="0.68"/>
<path d="M358.248 298.076H359.768V308.22H365.816V309.5H358.248V298.076ZM374.443 309.468C374.208 309.607 373.883 309.676 373.467 309.676C373.115 309.676 372.832 309.58 372.619 309.388C372.416 309.185 372.315 308.86 372.315 308.412C371.941 308.86 371.504 309.185 371.003 309.388C370.512 309.58 369.979 309.676 369.403 309.676C369.029 309.676 368.672 309.633 368.331 309.548C368 309.463 367.712 309.329 367.467 309.148C367.221 308.967 367.024 308.732 366.875 308.444C366.736 308.145 366.667 307.788 366.667 307.372C366.667 306.903 366.747 306.519 366.907 306.22C367.067 305.921 367.275 305.681 367.531 305.5C367.797 305.308 368.096 305.164 368.427 305.068C368.768 304.972 369.115 304.892 369.467 304.828C369.84 304.753 370.192 304.7 370.523 304.668C370.864 304.625 371.163 304.572 371.419 304.508C371.675 304.433 371.877 304.332 372.027 304.204C372.176 304.065 372.251 303.868 372.251 303.612C372.251 303.313 372.192 303.073 372.075 302.892C371.968 302.711 371.824 302.572 371.643 302.476C371.472 302.38 371.275 302.316 371.051 302.284C370.837 302.252 370.624 302.236 370.411 302.236C369.835 302.236 369.355 302.348 368.971 302.572C368.587 302.785 368.379 303.196 368.347 303.804H366.987C367.008 303.292 367.115 302.86 367.307 302.508C367.499 302.156 367.755 301.873 368.075 301.66C368.395 301.436 368.757 301.276 369.163 301.18C369.579 301.084 370.021 301.036 370.491 301.036C370.864 301.036 371.232 301.063 371.595 301.116C371.968 301.169 372.304 301.281 372.603 301.452C372.901 301.612 373.141 301.841 373.323 302.14C373.504 302.439 373.595 302.828 373.595 303.308V307.564C373.595 307.884 373.611 308.119 373.643 308.268C373.685 308.417 373.813 308.492 374.027 308.492C374.144 308.492 374.283 308.465 374.443 308.412V309.468ZM372.235 305.228C372.064 305.356 371.84 305.452 371.563 305.516C371.285 305.569 370.992 305.617 370.683 305.66C370.384 305.692 370.08 305.735 369.771 305.788C369.461 305.831 369.184 305.905 368.939 306.012C368.693 306.119 368.491 306.273 368.331 306.476C368.181 306.668 368.107 306.935 368.107 307.276C368.107 307.5 368.149 307.692 368.235 307.852C368.331 308.001 368.448 308.124 368.587 308.22C368.736 308.316 368.907 308.385 369.099 308.428C369.291 308.471 369.493 308.492 369.707 308.492C370.155 308.492 370.539 308.433 370.859 308.316C371.179 308.188 371.44 308.033 371.643 307.852C371.845 307.66 371.995 307.457 372.091 307.244C372.187 307.02 372.235 306.812 372.235 306.62V305.228ZM375.956 298.076H377.316V302.348H377.348C377.572 301.889 377.924 301.559 378.404 301.356C378.884 301.143 379.412 301.036 379.988 301.036C380.628 301.036 381.183 301.153 381.652 301.388C382.132 301.623 382.527 301.943 382.836 302.348C383.156 302.743 383.396 303.201 383.556 303.724C383.716 304.247 383.796 304.801 383.796 305.388C383.796 305.975 383.716 306.529 383.556 307.052C383.407 307.575 383.172 308.033 382.852 308.428C382.543 308.812 382.148 309.116 381.668 309.34C381.199 309.564 380.65 309.676 380.02 309.676C379.818 309.676 379.588 309.655 379.332 309.612C379.087 309.569 378.842 309.5 378.596 309.404C378.351 309.308 378.116 309.18 377.892 309.02C377.679 308.849 377.498 308.641 377.348 308.396H377.316V309.5H375.956V298.076ZM382.356 305.292C382.356 304.908 382.303 304.535 382.196 304.172C382.1 303.799 381.946 303.468 381.732 303.18C381.53 302.892 381.263 302.663 380.932 302.492C380.612 302.321 380.234 302.236 379.796 302.236C379.338 302.236 378.948 302.327 378.628 302.508C378.308 302.689 378.047 302.929 377.844 303.228C377.642 303.516 377.492 303.847 377.396 304.22C377.311 304.593 377.268 304.972 377.268 305.356C377.268 305.761 377.316 306.156 377.412 306.54C377.508 306.913 377.658 307.244 377.86 307.532C378.074 307.82 378.346 308.055 378.676 308.236C379.007 308.407 379.407 308.492 379.876 308.492C380.346 308.492 380.735 308.401 381.044 308.22C381.364 308.039 381.62 307.799 381.812 307.5C382.004 307.201 382.143 306.86 382.228 306.476C382.314 306.092 382.356 305.697 382.356 305.292ZM391.337 304.572C391.315 304.252 391.241 303.948 391.113 303.66C390.995 303.372 390.83 303.127 390.617 302.924C390.414 302.711 390.169 302.545 389.881 302.428C389.603 302.3 389.294 302.236 388.953 302.236C388.601 302.236 388.281 302.3 387.993 302.428C387.715 302.545 387.475 302.711 387.273 302.924C387.07 303.137 386.91 303.388 386.793 303.676C386.675 303.953 386.606 304.252 386.585 304.572H391.337ZM392.649 306.876C392.467 307.804 392.067 308.503 391.449 308.972C390.83 309.441 390.051 309.676 389.113 309.676C388.451 309.676 387.875 309.569 387.385 309.356C386.905 309.143 386.499 308.844 386.169 308.46C385.838 308.076 385.587 307.617 385.417 307.084C385.257 306.551 385.166 305.969 385.145 305.34C385.145 304.711 385.241 304.135 385.433 303.612C385.625 303.089 385.891 302.636 386.233 302.252C386.585 301.868 386.995 301.569 387.465 301.356C387.945 301.143 388.467 301.036 389.033 301.036C389.769 301.036 390.377 301.191 390.857 301.5C391.347 301.799 391.737 302.183 392.025 302.652C392.323 303.121 392.526 303.633 392.633 304.188C392.75 304.743 392.798 305.271 392.777 305.772H386.585C386.574 306.135 386.617 306.481 386.713 306.812C386.809 307.132 386.963 307.42 387.177 307.676C387.39 307.921 387.662 308.119 387.993 308.268C388.323 308.417 388.713 308.492 389.161 308.492C389.737 308.492 390.206 308.359 390.569 308.092C390.942 307.825 391.187 307.42 391.305 306.876H392.649ZM394.466 298.076H395.826V309.5H394.466V298.076Z" fill="black"/>
<defs>
<clipPath id="clip0_58210_176780">
<rect width="20" height="20" fill="white" transform="translate(329 101.5)"/>
</clipPath>
</defs>
</svg>
