<svg width="600" height="238" viewBox="0 0 600 238" fill="none" xmlns="http://www.w3.org/2000/svg">
<rect width="600" height="238" fill="black" fill-opacity="0.04"/>
<path d="M146.232 59.076H147.848L153.864 68.34H153.896V59.076H155.336V70.5H153.672L147.704 61.332H147.672V70.5H146.232V59.076ZM163.315 65.572C163.294 65.252 163.219 64.948 163.091 64.66C162.974 64.372 162.808 64.1267 162.595 63.924C162.392 63.7107 162.147 63.5453 161.859 63.428C161.582 63.3 161.272 63.236 160.931 63.236C160.579 63.236 160.259 63.3 159.971 63.428C159.694 63.5453 159.454 63.7107 159.251 63.924C159.048 64.1373 158.888 64.388 158.771 64.676C158.654 64.9533 158.584 65.252 158.563 65.572H163.315ZM164.627 67.876C164.446 68.804 164.046 69.5027 163.427 69.972C162.808 70.4413 162.03 70.676 161.091 70.676C160.43 70.676 159.854 70.5693 159.363 70.356C158.883 70.1427 158.478 69.844 158.147 69.46C157.816 69.076 157.566 68.6173 157.395 68.084C157.235 67.5507 157.144 66.9693 157.123 66.34C157.123 65.7107 157.219 65.1347 157.411 64.612C157.603 64.0893 157.87 63.636 158.211 63.252C158.563 62.868 158.974 62.5693 159.443 62.356C159.923 62.1427 160.446 62.036 161.011 62.036C161.747 62.036 162.355 62.1907 162.835 62.5C163.326 62.7987 163.715 63.1827 164.003 63.652C164.302 64.1213 164.504 64.6333 164.611 65.188C164.728 65.7427 164.776 66.2707 164.755 66.772H158.563C158.552 67.1347 158.595 67.4813 158.691 67.812C158.787 68.132 158.942 68.42 159.155 68.676C159.368 68.9213 159.64 69.1187 159.971 69.268C160.302 69.4173 160.691 69.492 161.139 69.492C161.715 69.492 162.184 69.3587 162.547 69.092C162.92 68.8253 163.166 68.42 163.283 67.876H164.627ZM166.997 67.892C167.007 68.1907 167.077 68.4467 167.205 68.66C167.333 68.8627 167.498 69.028 167.701 69.156C167.914 69.2733 168.149 69.3587 168.405 69.412C168.671 69.4653 168.943 69.492 169.221 69.492C169.434 69.492 169.658 69.476 169.893 69.444C170.127 69.412 170.341 69.3533 170.533 69.268C170.735 69.1827 170.901 69.06 171.029 68.9C171.157 68.7293 171.221 68.516 171.221 68.26C171.221 67.908 171.087 67.6413 170.821 67.46C170.554 67.2787 170.218 67.1347 169.813 67.028C169.418 66.9107 168.986 66.8093 168.517 66.724C168.047 66.628 167.61 66.5 167.205 66.34C166.81 66.1693 166.479 65.9347 166.213 65.636C165.946 65.3373 165.813 64.9213 165.813 64.388C165.813 63.972 165.903 63.6147 166.085 63.316C166.277 63.0173 166.517 62.7773 166.805 62.596C167.103 62.404 167.434 62.2653 167.797 62.18C168.17 62.084 168.538 62.036 168.901 62.036C169.37 62.036 169.802 62.0787 170.197 62.164C170.591 62.2387 170.938 62.3773 171.237 62.58C171.546 62.772 171.791 63.0387 171.973 63.38C172.154 63.7107 172.261 64.1267 172.293 64.628H170.933C170.911 64.3613 170.842 64.1427 170.725 63.972C170.607 63.7907 170.458 63.6467 170.277 63.54C170.095 63.4333 169.893 63.3587 169.669 63.316C169.455 63.2627 169.237 63.236 169.013 63.236C168.81 63.236 168.602 63.252 168.389 63.284C168.186 63.316 167.999 63.3747 167.829 63.46C167.658 63.5347 167.519 63.6413 167.413 63.78C167.306 63.908 167.253 64.0787 167.253 64.292C167.253 64.5267 167.333 64.724 167.493 64.884C167.663 65.0333 167.877 65.1613 168.133 65.268C168.389 65.364 168.677 65.4493 168.997 65.524C169.317 65.588 169.637 65.6573 169.957 65.732C170.298 65.8067 170.629 65.8973 170.949 66.004C171.279 66.1107 171.567 66.2547 171.813 66.436C172.069 66.6067 172.271 66.8253 172.421 67.092C172.581 67.3587 172.661 67.6893 172.661 68.084C172.661 68.5853 172.554 69.0013 172.341 69.332C172.138 69.6627 171.866 69.9293 171.525 70.132C171.194 70.3347 170.815 70.4733 170.389 70.548C169.973 70.6333 169.557 70.676 169.141 70.676C168.682 70.676 168.245 70.628 167.829 70.532C167.413 70.436 167.045 70.2813 166.725 70.068C166.405 69.844 166.149 69.556 165.957 69.204C165.765 68.8413 165.658 68.404 165.637 67.892H166.997ZM176.053 62.228H177.701V63.428H176.053V68.564C176.053 68.724 176.063 68.852 176.085 68.948C176.117 69.044 176.17 69.1187 176.245 69.172C176.319 69.2253 176.421 69.2627 176.549 69.284C176.687 69.2947 176.863 69.3 177.077 69.3H177.701V70.5H176.661C176.309 70.5 176.005 70.4787 175.749 70.436C175.503 70.3827 175.301 70.292 175.141 70.164C174.991 70.036 174.879 69.8547 174.805 69.62C174.73 69.3853 174.693 69.076 174.693 68.692V63.428H173.285V62.228H174.693V59.748H176.053V62.228ZM184.956 65.572C184.934 65.252 184.86 64.948 184.732 64.66C184.614 64.372 184.449 64.1267 184.236 63.924C184.033 63.7107 183.788 63.5453 183.5 63.428C183.222 63.3 182.913 63.236 182.572 63.236C182.22 63.236 181.9 63.3 181.612 63.428C181.334 63.5453 181.094 63.7107 180.892 63.924C180.689 64.1373 180.529 64.388 180.412 64.676C180.294 64.9533 180.225 65.252 180.204 65.572H184.956ZM186.267 67.876C186.086 68.804 185.686 69.5027 185.068 69.972C184.449 70.4413 183.67 70.676 182.732 70.676C182.07 70.676 181.494 70.5693 181.004 70.356C180.524 70.1427 180.118 69.844 179.788 69.46C179.457 69.076 179.206 68.6173 179.036 68.084C178.876 67.5507 178.785 66.9693 178.764 66.34C178.764 65.7107 178.86 65.1347 179.052 64.612C179.244 64.0893 179.51 63.636 179.852 63.252C180.204 62.868 180.614 62.5693 181.084 62.356C181.564 62.1427 182.086 62.036 182.652 62.036C183.388 62.036 183.996 62.1907 184.476 62.5C184.966 62.7987 185.356 63.1827 185.644 63.652C185.942 64.1213 186.145 64.6333 186.252 65.188C186.369 65.7427 186.417 66.2707 186.396 66.772H180.204C180.193 67.1347 180.236 67.4813 180.332 67.812C180.428 68.132 180.582 68.42 180.796 68.676C181.009 68.9213 181.281 69.1187 181.612 69.268C181.942 69.4173 182.332 69.492 182.78 69.492C183.356 69.492 183.825 69.3587 184.188 69.092C184.561 68.8253 184.806 68.42 184.924 67.876H186.267ZM188.797 66.436C188.797 66.82 188.845 67.1987 188.941 67.572C189.048 67.9347 189.203 68.26 189.405 68.548C189.619 68.836 189.885 69.0653 190.205 69.236C190.536 69.4067 190.92 69.492 191.357 69.492C191.816 69.492 192.205 69.4013 192.525 69.22C192.845 69.0387 193.107 68.804 193.309 68.516C193.512 68.2173 193.656 67.8813 193.741 67.508C193.837 67.1347 193.885 66.756 193.885 66.372C193.885 65.9667 193.837 65.5773 193.741 65.204C193.645 64.82 193.491 64.484 193.277 64.196C193.075 63.908 192.808 63.6787 192.477 63.508C192.147 63.3267 191.747 63.236 191.277 63.236C190.819 63.236 190.429 63.3267 190.109 63.508C189.789 63.6893 189.533 63.9293 189.341 64.228C189.149 64.5267 189.011 64.868 188.925 65.252C188.84 65.636 188.797 66.0307 188.797 66.436ZM195.197 70.5H193.837V69.38H193.805C193.581 69.8387 193.229 70.1693 192.749 70.372C192.269 70.5747 191.741 70.676 191.165 70.676C190.525 70.676 189.965 70.5587 189.485 70.324C189.016 70.0893 188.621 69.7747 188.301 69.38C187.992 68.9853 187.757 68.5267 187.597 68.004C187.437 67.4813 187.357 66.9267 187.357 66.34C187.357 65.7533 187.432 65.1987 187.581 64.676C187.741 64.1533 187.976 63.7 188.285 63.316C188.605 62.9213 189 62.612 189.469 62.388C189.949 62.1533 190.504 62.036 191.133 62.036C191.347 62.036 191.576 62.0573 191.821 62.1C192.067 62.1427 192.312 62.2173 192.557 62.324C192.803 62.42 193.032 62.5533 193.245 62.724C193.469 62.884 193.656 63.0867 193.805 63.332H193.837V59.076H195.197V70.5ZM201.823 59.076H203.183V70.5H201.823V59.076ZM211.034 65.572C211.012 65.252 210.938 64.948 210.81 64.66C210.692 64.372 210.527 64.1267 210.314 63.924C210.111 63.7107 209.866 63.5453 209.578 63.428C209.3 63.3 208.991 63.236 208.65 63.236C208.298 63.236 207.978 63.3 207.69 63.428C207.412 63.5453 207.172 63.7107 206.97 63.924C206.767 64.1373 206.607 64.388 206.49 64.676C206.372 64.9533 206.303 65.252 206.282 65.572H211.034ZM212.346 67.876C212.164 68.804 211.764 69.5027 211.146 69.972C210.527 70.4413 209.748 70.676 208.81 70.676C208.148 70.676 207.572 70.5693 207.082 70.356C206.602 70.1427 206.196 69.844 205.866 69.46C205.535 69.076 205.284 68.6173 205.114 68.084C204.954 67.5507 204.863 66.9693 204.842 66.34C204.842 65.7107 204.938 65.1347 205.13 64.612C205.322 64.0893 205.588 63.636 205.93 63.252C206.282 62.868 206.692 62.5693 207.162 62.356C207.642 62.1427 208.164 62.036 208.73 62.036C209.466 62.036 210.074 62.1907 210.554 62.5C211.044 62.7987 211.434 63.1827 211.722 63.652C212.02 64.1213 212.223 64.6333 212.33 65.188C212.447 65.7427 212.495 66.2707 212.474 66.772H206.282C206.271 67.1347 206.314 67.4813 206.41 67.812C206.506 68.132 206.66 68.42 206.874 68.676C207.087 68.9213 207.359 69.1187 207.69 69.268C208.02 69.4173 208.41 69.492 208.858 69.492C209.434 69.492 209.903 69.3587 210.266 69.092C210.639 68.8253 210.884 68.42 211.002 67.876H212.346ZM217.611 70.5H216.155L213.083 62.228H214.603L216.923 69.124H216.955L219.211 62.228H220.635L217.611 70.5ZM227.627 65.572C227.606 65.252 227.531 64.948 227.403 64.66C227.286 64.372 227.121 64.1267 226.907 63.924C226.705 63.7107 226.459 63.5453 226.171 63.428C225.894 63.3 225.585 63.236 225.243 63.236C224.891 63.236 224.571 63.3 224.283 63.428C224.006 63.5453 223.766 63.7107 223.563 63.924C223.361 64.1373 223.201 64.388 223.083 64.676C222.966 64.9533 222.897 65.252 222.875 65.572H227.627ZM228.939 67.876C228.758 68.804 228.358 69.5027 227.739 69.972C227.121 70.4413 226.342 70.676 225.403 70.676C224.742 70.676 224.166 70.5693 223.675 70.356C223.195 70.1427 222.79 69.844 222.459 69.46C222.129 69.076 221.878 68.6173 221.707 68.084C221.547 67.5507 221.457 66.9693 221.435 66.34C221.435 65.7107 221.531 65.1347 221.723 64.612C221.915 64.0893 222.182 63.636 222.523 63.252C222.875 62.868 223.286 62.5693 223.755 62.356C224.235 62.1427 224.758 62.036 225.323 62.036C226.059 62.036 226.667 62.1907 227.147 62.5C227.638 62.7987 228.027 63.1827 228.315 63.652C228.614 64.1213 228.817 64.6333 228.923 65.188C229.041 65.7427 229.089 66.2707 229.067 66.772H222.875C222.865 67.1347 222.907 67.4813 223.003 67.812C223.099 68.132 223.254 68.42 223.467 68.676C223.681 68.9213 223.953 69.1187 224.283 69.268C224.614 69.4173 225.003 69.492 225.451 69.492C226.027 69.492 226.497 69.3587 226.859 69.092C227.233 68.8253 227.478 68.42 227.595 67.876H228.939ZM230.557 59.076H231.917V70.5H230.557V59.076ZM236.104 64.004H234.328V62.228H236.104V64.004ZM234.328 68.724H236.104V70.5H234.328V68.724ZM244.018 64.916C244.018 65.3427 244.029 65.8227 244.05 66.356C244.082 66.8787 244.168 67.3747 244.306 67.844C244.456 68.3027 244.69 68.692 245.01 69.012C245.33 69.332 245.778 69.492 246.354 69.492C246.93 69.492 247.378 69.332 247.698 69.012C248.018 68.692 248.248 68.3027 248.386 67.844C248.536 67.3747 248.621 66.8787 248.642 66.356C248.674 65.8227 248.69 65.3427 248.69 64.916C248.69 64.6387 248.685 64.3347 248.674 64.004C248.674 63.6627 248.648 63.3267 248.594 62.996C248.552 62.6547 248.482 62.324 248.386 62.004C248.301 61.684 248.168 61.4067 247.986 61.172C247.816 60.9267 247.597 60.7293 247.33 60.58C247.064 60.4307 246.738 60.356 246.354 60.356C245.97 60.356 245.645 60.4307 245.378 60.58C245.112 60.7293 244.888 60.9267 244.706 61.172C244.536 61.4067 244.402 61.684 244.306 62.004C244.221 62.324 244.152 62.6547 244.098 62.996C244.056 63.3267 244.029 63.6627 244.018 64.004C244.018 64.3347 244.018 64.6387 244.018 64.916ZM242.578 64.932C242.578 64.516 242.589 64.084 242.61 63.636C242.632 63.188 242.685 62.7507 242.77 62.324C242.856 61.8973 242.978 61.492 243.138 61.108C243.298 60.724 243.517 60.388 243.794 60.1C244.072 59.812 244.418 59.5827 244.834 59.412C245.261 59.2413 245.768 59.156 246.354 59.156C246.941 59.156 247.442 59.2413 247.858 59.412C248.285 59.5827 248.637 59.812 248.914 60.1C249.192 60.388 249.41 60.724 249.57 61.108C249.73 61.492 249.853 61.8973 249.938 62.324C250.024 62.7507 250.077 63.188 250.098 63.636C250.12 64.084 250.13 64.516 250.13 64.932C250.13 65.348 250.12 65.78 250.098 66.228C250.077 66.676 250.024 67.1133 249.938 67.54C249.853 67.9667 249.73 68.372 249.57 68.756C249.41 69.1293 249.192 69.46 248.914 69.748C248.637 70.036 248.29 70.2653 247.874 70.436C247.458 70.596 246.952 70.676 246.354 70.676C245.768 70.676 245.261 70.596 244.834 70.436C244.418 70.2653 244.072 70.036 243.794 69.748C243.517 69.46 243.298 69.1293 243.138 68.756C242.978 68.372 242.856 67.9667 242.77 67.54C242.685 67.1133 242.632 66.676 242.61 66.228C242.589 65.78 242.578 65.348 242.578 64.932Z" fill="black" fill-opacity="0.68"/>
<path d="M295.152 71H293.792V62.872H290.848V61.784C291.232 61.784 291.606 61.7573 291.968 61.704C292.331 61.64 292.656 61.528 292.944 61.368C293.243 61.208 293.494 60.9893 293.696 60.712C293.899 60.4347 294.038 60.0827 294.112 59.656H295.152V71ZM299.875 69.224H301.651V71H299.875V69.224Z" fill="black"/>
<path d="M313.128 65.288C313.128 65.864 313.203 66.4347 313.352 67C313.501 67.5547 313.736 68.056 314.056 68.504C314.376 68.952 314.787 69.3147 315.288 69.592C315.789 69.8587 316.387 69.992 317.08 69.992C317.773 69.992 318.371 69.8587 318.872 69.592C319.373 69.3147 319.784 68.952 320.104 68.504C320.424 68.056 320.659 67.5547 320.808 67C320.957 66.4347 321.032 65.864 321.032 65.288C321.032 64.712 320.957 64.1467 320.808 63.592C320.659 63.0267 320.424 62.52 320.104 62.072C319.784 61.624 319.373 61.2667 318.872 61C318.371 60.7227 317.773 60.584 317.08 60.584C316.387 60.584 315.789 60.7227 315.288 61C314.787 61.2667 314.376 61.624 314.056 62.072C313.736 62.52 313.501 63.0267 313.352 63.592C313.203 64.1467 313.128 64.712 313.128 65.288ZM311.608 65.288C311.608 64.5093 311.72 63.7627 311.944 63.048C312.179 62.3227 312.525 61.6827 312.984 61.128C313.443 60.5733 314.013 60.1307 314.696 59.8C315.379 59.4693 316.173 59.304 317.08 59.304C317.987 59.304 318.781 59.4693 319.464 59.8C320.147 60.1307 320.717 60.5733 321.176 61.128C321.635 61.6827 321.976 62.3227 322.2 63.048C322.435 63.7627 322.552 64.5093 322.552 65.288C322.552 66.0667 322.435 66.8187 322.2 67.544C321.976 68.2587 321.635 68.8933 321.176 69.448C320.717 70.0027 320.147 70.4453 319.464 70.776C318.781 71.096 317.987 71.256 317.08 71.256C316.173 71.256 315.379 71.096 314.696 70.776C314.013 70.4453 313.443 70.0027 312.984 69.448C312.525 68.8933 312.179 68.2587 311.944 67.544C311.72 66.8187 311.608 66.0667 311.608 65.288ZM324.332 62.728H325.612V64.472H325.644C325.975 63.8 326.38 63.304 326.86 62.984C327.34 62.664 327.948 62.5147 328.684 62.536V63.976C328.14 63.976 327.676 64.0507 327.292 64.2C326.908 64.3493 326.599 64.568 326.364 64.856C326.13 65.144 325.959 65.496 325.852 65.912C325.746 66.3173 325.692 66.7867 325.692 67.32V71H324.332V62.728ZM330.619 66.936C330.619 67.32 330.667 67.6987 330.763 68.072C330.87 68.4347 331.024 68.76 331.227 69.048C331.44 69.336 331.707 69.5653 332.027 69.736C332.358 69.9067 332.742 69.992 333.179 69.992C333.638 69.992 334.027 69.9013 334.347 69.72C334.667 69.5387 334.928 69.304 335.131 69.016C335.334 68.7173 335.478 68.3813 335.563 68.008C335.659 67.6347 335.707 67.256 335.707 66.872C335.707 66.4667 335.659 66.0773 335.563 65.704C335.467 65.32 335.312 64.984 335.099 64.696C334.896 64.408 334.63 64.1787 334.299 64.008C333.968 63.8267 333.568 63.736 333.099 63.736C332.64 63.736 332.251 63.8267 331.931 64.008C331.611 64.1893 331.355 64.4293 331.163 64.728C330.971 65.0267 330.832 65.368 330.747 65.752C330.662 66.136 330.619 66.5307 330.619 66.936ZM337.019 71H335.659V69.88H335.627C335.403 70.3387 335.051 70.6693 334.571 70.872C334.091 71.0747 333.563 71.176 332.987 71.176C332.347 71.176 331.787 71.0587 331.307 70.824C330.838 70.5893 330.443 70.2747 330.123 69.88C329.814 69.4853 329.579 69.0267 329.419 68.504C329.259 67.9813 329.179 67.4267 329.179 66.84C329.179 66.2533 329.254 65.6987 329.403 65.176C329.563 64.6533 329.798 64.2 330.107 63.816C330.427 63.4213 330.822 63.112 331.291 62.888C331.771 62.6533 332.326 62.536 332.955 62.536C333.168 62.536 333.398 62.5573 333.643 62.6C333.888 62.6427 334.134 62.7173 334.379 62.824C334.624 62.92 334.854 63.0533 335.067 63.224C335.291 63.384 335.478 63.5867 335.627 63.832H335.659V59.576H337.019V71ZM345.056 66.072C345.034 65.752 344.96 65.448 344.832 65.16C344.714 64.872 344.549 64.6267 344.336 64.424C344.133 64.2107 343.888 64.0453 343.6 63.928C343.322 63.8 343.013 63.736 342.672 63.736C342.32 63.736 342 63.8 341.712 63.928C341.434 64.0453 341.194 64.2107 340.992 64.424C340.789 64.6373 340.629 64.888 340.512 65.176C340.394 65.4533 340.325 65.752 340.304 66.072H345.056ZM346.368 68.376C346.186 69.304 345.786 70.0027 345.168 70.472C344.549 70.9413 343.77 71.176 342.832 71.176C342.17 71.176 341.594 71.0693 341.104 70.856C340.624 70.6427 340.218 70.344 339.888 69.96C339.557 69.576 339.306 69.1173 339.136 68.584C338.976 68.0507 338.885 67.4693 338.864 66.84C338.864 66.2107 338.96 65.6347 339.152 65.112C339.344 64.5893 339.61 64.136 339.952 63.752C340.304 63.368 340.714 63.0693 341.184 62.856C341.664 62.6427 342.186 62.536 342.752 62.536C343.488 62.536 344.096 62.6907 344.576 63C345.066 63.2987 345.456 63.6827 345.744 64.152C346.042 64.6213 346.245 65.1333 346.352 65.688C346.469 66.2427 346.517 66.7707 346.496 67.272H340.304C340.293 67.6347 340.336 67.9813 340.432 68.312C340.528 68.632 340.682 68.92 340.896 69.176C341.109 69.4213 341.381 69.6187 341.712 69.768C342.042 69.9173 342.432 69.992 342.88 69.992C343.456 69.992 343.925 69.8587 344.288 69.592C344.661 69.3253 344.906 68.92 345.024 68.376H346.368ZM348.057 62.728H349.337V64.472H349.369C349.7 63.8 350.105 63.304 350.585 62.984C351.065 62.664 351.673 62.5147 352.409 62.536V63.976C351.865 63.976 351.401 64.0507 351.017 64.2C350.633 64.3493 350.324 64.568 350.089 64.856C349.855 65.144 349.684 65.496 349.577 65.912C349.471 66.3173 349.417 66.7867 349.417 67.32V71H348.057V62.728ZM359.096 66.072C359.075 65.752 359 65.448 358.872 65.16C358.755 64.872 358.589 64.6267 358.376 64.424C358.173 64.2107 357.928 64.0453 357.64 63.928C357.363 63.8 357.053 63.736 356.712 63.736C356.36 63.736 356.04 63.8 355.752 63.928C355.475 64.0453 355.235 64.2107 355.032 64.424C354.829 64.6373 354.669 64.888 354.552 65.176C354.435 65.4533 354.365 65.752 354.344 66.072H359.096ZM360.408 68.376C360.227 69.304 359.827 70.0027 359.208 70.472C358.589 70.9413 357.811 71.176 356.872 71.176C356.211 71.176 355.635 71.0693 355.144 70.856C354.664 70.6427 354.259 70.344 353.928 69.96C353.597 69.576 353.347 69.1173 353.176 68.584C353.016 68.0507 352.925 67.4693 352.904 66.84C352.904 66.2107 353 65.6347 353.192 65.112C353.384 64.5893 353.651 64.136 353.992 63.752C354.344 63.368 354.755 63.0693 355.224 62.856C355.704 62.6427 356.227 62.536 356.792 62.536C357.528 62.536 358.136 62.6907 358.616 63C359.107 63.2987 359.496 63.6827 359.784 64.152C360.083 64.6213 360.285 65.1333 360.392 65.688C360.509 66.2427 360.557 66.7707 360.536 67.272H354.344C354.333 67.6347 354.376 67.9813 354.472 68.312C354.568 68.632 354.723 68.92 354.936 69.176C355.149 69.4213 355.421 69.6187 355.752 69.768C356.083 69.9173 356.472 69.992 356.92 69.992C357.496 69.992 357.965 69.8587 358.328 69.592C358.701 69.3253 358.947 68.92 359.064 68.376H360.408ZM363.138 66.936C363.138 67.32 363.186 67.6987 363.282 68.072C363.389 68.4347 363.543 68.76 363.746 69.048C363.959 69.336 364.226 69.5653 364.546 69.736C364.877 69.9067 365.261 69.992 365.698 69.992C366.157 69.992 366.546 69.9013 366.866 69.72C367.186 69.5387 367.447 69.304 367.65 69.016C367.853 68.7173 367.997 68.3813 368.082 68.008C368.178 67.6347 368.226 67.256 368.226 66.872C368.226 66.4667 368.178 66.0773 368.082 65.704C367.986 65.32 367.831 64.984 367.618 64.696C367.415 64.408 367.149 64.1787 366.818 64.008C366.487 63.8267 366.087 63.736 365.618 63.736C365.159 63.736 364.77 63.8267 364.45 64.008C364.13 64.1893 363.874 64.4293 363.682 64.728C363.49 65.0267 363.351 65.368 363.266 65.752C363.181 66.136 363.138 66.5307 363.138 66.936ZM369.538 71H368.178V69.88H368.146C367.922 70.3387 367.57 70.6693 367.09 70.872C366.61 71.0747 366.082 71.176 365.506 71.176C364.866 71.176 364.306 71.0587 363.826 70.824C363.357 70.5893 362.962 70.2747 362.642 69.88C362.333 69.4853 362.098 69.0267 361.938 68.504C361.778 67.9813 361.698 67.4267 361.698 66.84C361.698 66.2533 361.773 65.6987 361.922 65.176C362.082 64.6533 362.317 64.2 362.626 63.816C362.946 63.4213 363.341 63.112 363.81 62.888C364.29 62.6533 364.845 62.536 365.474 62.536C365.687 62.536 365.917 62.5573 366.162 62.6C366.407 62.6427 366.653 62.7173 366.898 62.824C367.143 62.92 367.373 63.0533 367.586 63.224C367.81 63.384 367.997 63.5867 368.146 63.832H368.178V59.576H369.538V71ZM376.563 59.576H377.923V71H376.563V59.576ZM381.67 61.24H380.31V59.576H381.67V61.24ZM380.31 62.728H381.67V71H380.31V62.728ZM384.809 68.392C384.82 68.6907 384.889 68.9467 385.017 69.16C385.145 69.3627 385.31 69.528 385.513 69.656C385.726 69.7733 385.961 69.8587 386.217 69.912C386.484 69.9653 386.756 69.992 387.033 69.992C387.246 69.992 387.47 69.976 387.705 69.944C387.94 69.912 388.153 69.8533 388.345 69.768C388.548 69.6827 388.713 69.56 388.841 69.4C388.969 69.2293 389.033 69.016 389.033 68.76C389.033 68.408 388.9 68.1413 388.633 67.96C388.366 67.7787 388.03 67.6347 387.625 67.528C387.23 67.4107 386.798 67.3093 386.329 67.224C385.86 67.128 385.422 67 385.017 66.84C384.622 66.6693 384.292 66.4347 384.025 66.136C383.758 65.8373 383.625 65.4213 383.625 64.888C383.625 64.472 383.716 64.1147 383.897 63.816C384.089 63.5173 384.329 63.2773 384.617 63.096C384.916 62.904 385.246 62.7653 385.609 62.68C385.982 62.584 386.35 62.536 386.713 62.536C387.182 62.536 387.614 62.5787 388.009 62.664C388.404 62.7387 388.75 62.8773 389.049 63.08C389.358 63.272 389.604 63.5387 389.785 63.88C389.966 64.2107 390.073 64.6267 390.105 65.128H388.745C388.724 64.8613 388.654 64.6427 388.537 64.472C388.42 64.2907 388.27 64.1467 388.089 64.04C387.908 63.9333 387.705 63.8587 387.481 63.816C387.268 63.7627 387.049 63.736 386.825 63.736C386.622 63.736 386.414 63.752 386.201 63.784C385.998 63.816 385.812 63.8747 385.641 63.96C385.47 64.0347 385.332 64.1413 385.225 64.28C385.118 64.408 385.065 64.5787 385.065 64.792C385.065 65.0267 385.145 65.224 385.305 65.384C385.476 65.5333 385.689 65.6613 385.945 65.768C386.201 65.864 386.489 65.9493 386.809 66.024C387.129 66.088 387.449 66.1573 387.769 66.232C388.11 66.3067 388.441 66.3973 388.761 66.504C389.092 66.6107 389.38 66.7547 389.625 66.936C389.881 67.1067 390.084 67.3253 390.233 67.592C390.393 67.8587 390.473 68.1893 390.473 68.584C390.473 69.0853 390.366 69.5013 390.153 69.832C389.95 70.1627 389.678 70.4293 389.337 70.632C389.006 70.8347 388.628 70.9733 388.201 71.048C387.785 71.1333 387.369 71.176 386.953 71.176C386.494 71.176 386.057 71.128 385.641 71.032C385.225 70.936 384.857 70.7813 384.537 70.568C384.217 70.344 383.961 70.056 383.769 69.704C383.577 69.3413 383.47 68.904 383.449 68.392H384.809ZM394.065 62.728H395.713V63.928H394.065V69.064C394.065 69.224 394.076 69.352 394.097 69.448C394.129 69.544 394.182 69.6187 394.257 69.672C394.332 69.7253 394.433 69.7627 394.561 69.784C394.7 69.7947 394.876 69.8 395.089 69.8H395.713V71H394.673C394.321 71 394.017 70.9787 393.761 70.936C393.516 70.8827 393.313 70.792 393.153 70.664C393.004 70.536 392.892 70.3547 392.817 70.12C392.742 69.8853 392.705 69.576 392.705 69.192V63.928H391.297V62.728H392.705V60.248H394.065V62.728Z" fill="black"/>
<path d="M146.232 95.076H147.848L153.864 104.34H153.896V95.076H155.336V106.5H153.672L147.704 97.332H147.672V106.5H146.232V95.076ZM163.315 101.572C163.294 101.252 163.219 100.948 163.091 100.66C162.974 100.372 162.808 100.127 162.595 99.924C162.392 99.7107 162.147 99.5453 161.859 99.428C161.582 99.3 161.272 99.236 160.931 99.236C160.579 99.236 160.259 99.3 159.971 99.428C159.694 99.5453 159.454 99.7107 159.251 99.924C159.048 100.137 158.888 100.388 158.771 100.676C158.654 100.953 158.584 101.252 158.563 101.572H163.315ZM164.627 103.876C164.446 104.804 164.046 105.503 163.427 105.972C162.808 106.441 162.03 106.676 161.091 106.676C160.43 106.676 159.854 106.569 159.363 106.356C158.883 106.143 158.478 105.844 158.147 105.46C157.816 105.076 157.566 104.617 157.395 104.084C157.235 103.551 157.144 102.969 157.123 102.34C157.123 101.711 157.219 101.135 157.411 100.612C157.603 100.089 157.87 99.636 158.211 99.252C158.563 98.868 158.974 98.5693 159.443 98.356C159.923 98.1427 160.446 98.036 161.011 98.036C161.747 98.036 162.355 98.1907 162.835 98.5C163.326 98.7987 163.715 99.1827 164.003 99.652C164.302 100.121 164.504 100.633 164.611 101.188C164.728 101.743 164.776 102.271 164.755 102.772H158.563C158.552 103.135 158.595 103.481 158.691 103.812C158.787 104.132 158.942 104.42 159.155 104.676C159.368 104.921 159.64 105.119 159.971 105.268C160.302 105.417 160.691 105.492 161.139 105.492C161.715 105.492 162.184 105.359 162.547 105.092C162.92 104.825 163.166 104.42 163.283 103.876H164.627ZM166.997 103.892C167.007 104.191 167.077 104.447 167.205 104.66C167.333 104.863 167.498 105.028 167.701 105.156C167.914 105.273 168.149 105.359 168.405 105.412C168.671 105.465 168.943 105.492 169.221 105.492C169.434 105.492 169.658 105.476 169.893 105.444C170.127 105.412 170.341 105.353 170.533 105.268C170.735 105.183 170.901 105.06 171.029 104.9C171.157 104.729 171.221 104.516 171.221 104.26C171.221 103.908 171.087 103.641 170.821 103.46C170.554 103.279 170.218 103.135 169.813 103.028C169.418 102.911 168.986 102.809 168.517 102.724C168.047 102.628 167.61 102.5 167.205 102.34C166.81 102.169 166.479 101.935 166.213 101.636C165.946 101.337 165.813 100.921 165.813 100.388C165.813 99.972 165.903 99.6147 166.085 99.316C166.277 99.0173 166.517 98.7773 166.805 98.596C167.103 98.404 167.434 98.2653 167.797 98.18C168.17 98.084 168.538 98.036 168.901 98.036C169.37 98.036 169.802 98.0787 170.197 98.164C170.591 98.2387 170.938 98.3773 171.237 98.58C171.546 98.772 171.791 99.0387 171.973 99.38C172.154 99.7107 172.261 100.127 172.293 100.628H170.933C170.911 100.361 170.842 100.143 170.725 99.972C170.607 99.7907 170.458 99.6467 170.277 99.54C170.095 99.4333 169.893 99.3587 169.669 99.316C169.455 99.2627 169.237 99.236 169.013 99.236C168.81 99.236 168.602 99.252 168.389 99.284C168.186 99.316 167.999 99.3747 167.829 99.46C167.658 99.5347 167.519 99.6413 167.413 99.78C167.306 99.908 167.253 100.079 167.253 100.292C167.253 100.527 167.333 100.724 167.493 100.884C167.663 101.033 167.877 101.161 168.133 101.268C168.389 101.364 168.677 101.449 168.997 101.524C169.317 101.588 169.637 101.657 169.957 101.732C170.298 101.807 170.629 101.897 170.949 102.004C171.279 102.111 171.567 102.255 171.813 102.436C172.069 102.607 172.271 102.825 172.421 103.092C172.581 103.359 172.661 103.689 172.661 104.084C172.661 104.585 172.554 105.001 172.341 105.332C172.138 105.663 171.866 105.929 171.525 106.132C171.194 106.335 170.815 106.473 170.389 106.548C169.973 106.633 169.557 106.676 169.141 106.676C168.682 106.676 168.245 106.628 167.829 106.532C167.413 106.436 167.045 106.281 166.725 106.068C166.405 105.844 166.149 105.556 165.957 105.204C165.765 104.841 165.658 104.404 165.637 103.892H166.997ZM176.053 98.228H177.701V99.428H176.053V104.564C176.053 104.724 176.063 104.852 176.085 104.948C176.117 105.044 176.17 105.119 176.245 105.172C176.319 105.225 176.421 105.263 176.549 105.284C176.687 105.295 176.863 105.3 177.077 105.3H177.701V106.5H176.661C176.309 106.5 176.005 106.479 175.749 106.436C175.503 106.383 175.301 106.292 175.141 106.164C174.991 106.036 174.879 105.855 174.805 105.62C174.73 105.385 174.693 105.076 174.693 104.692V99.428H173.285V98.228H174.693V95.748H176.053V98.228ZM184.956 101.572C184.934 101.252 184.86 100.948 184.732 100.66C184.614 100.372 184.449 100.127 184.236 99.924C184.033 99.7107 183.788 99.5453 183.5 99.428C183.222 99.3 182.913 99.236 182.572 99.236C182.22 99.236 181.9 99.3 181.612 99.428C181.334 99.5453 181.094 99.7107 180.892 99.924C180.689 100.137 180.529 100.388 180.412 100.676C180.294 100.953 180.225 101.252 180.204 101.572H184.956ZM186.267 103.876C186.086 104.804 185.686 105.503 185.068 105.972C184.449 106.441 183.67 106.676 182.732 106.676C182.07 106.676 181.494 106.569 181.004 106.356C180.524 106.143 180.118 105.844 179.788 105.46C179.457 105.076 179.206 104.617 179.036 104.084C178.876 103.551 178.785 102.969 178.764 102.34C178.764 101.711 178.86 101.135 179.052 100.612C179.244 100.089 179.51 99.636 179.852 99.252C180.204 98.868 180.614 98.5693 181.084 98.356C181.564 98.1427 182.086 98.036 182.652 98.036C183.388 98.036 183.996 98.1907 184.476 98.5C184.966 98.7987 185.356 99.1827 185.644 99.652C185.942 100.121 186.145 100.633 186.252 101.188C186.369 101.743 186.417 102.271 186.396 102.772H180.204C180.193 103.135 180.236 103.481 180.332 103.812C180.428 104.132 180.582 104.42 180.796 104.676C181.009 104.921 181.281 105.119 181.612 105.268C181.942 105.417 182.332 105.492 182.78 105.492C183.356 105.492 183.825 105.359 184.188 105.092C184.561 104.825 184.806 104.42 184.924 103.876H186.267ZM188.797 102.436C188.797 102.82 188.845 103.199 188.941 103.572C189.048 103.935 189.203 104.26 189.405 104.548C189.619 104.836 189.885 105.065 190.205 105.236C190.536 105.407 190.92 105.492 191.357 105.492C191.816 105.492 192.205 105.401 192.525 105.22C192.845 105.039 193.107 104.804 193.309 104.516C193.512 104.217 193.656 103.881 193.741 103.508C193.837 103.135 193.885 102.756 193.885 102.372C193.885 101.967 193.837 101.577 193.741 101.204C193.645 100.82 193.491 100.484 193.277 100.196C193.075 99.908 192.808 99.6787 192.477 99.508C192.147 99.3267 191.747 99.236 191.277 99.236C190.819 99.236 190.429 99.3267 190.109 99.508C189.789 99.6893 189.533 99.9293 189.341 100.228C189.149 100.527 189.011 100.868 188.925 101.252C188.84 101.636 188.797 102.031 188.797 102.436ZM195.197 106.5H193.837V105.38H193.805C193.581 105.839 193.229 106.169 192.749 106.372C192.269 106.575 191.741 106.676 191.165 106.676C190.525 106.676 189.965 106.559 189.485 106.324C189.016 106.089 188.621 105.775 188.301 105.38C187.992 104.985 187.757 104.527 187.597 104.004C187.437 103.481 187.357 102.927 187.357 102.34C187.357 101.753 187.432 101.199 187.581 100.676C187.741 100.153 187.976 99.7 188.285 99.316C188.605 98.9213 189 98.612 189.469 98.388C189.949 98.1533 190.504 98.036 191.133 98.036C191.347 98.036 191.576 98.0573 191.821 98.1C192.067 98.1427 192.312 98.2173 192.557 98.324C192.803 98.42 193.032 98.5533 193.245 98.724C193.469 98.884 193.656 99.0867 193.805 99.332H193.837V95.076H195.197V106.5ZM201.823 95.076H203.183V106.5H201.823V95.076ZM211.034 101.572C211.012 101.252 210.938 100.948 210.81 100.66C210.692 100.372 210.527 100.127 210.314 99.924C210.111 99.7107 209.866 99.5453 209.578 99.428C209.3 99.3 208.991 99.236 208.65 99.236C208.298 99.236 207.978 99.3 207.69 99.428C207.412 99.5453 207.172 99.7107 206.97 99.924C206.767 100.137 206.607 100.388 206.49 100.676C206.372 100.953 206.303 101.252 206.282 101.572H211.034ZM212.346 103.876C212.164 104.804 211.764 105.503 211.146 105.972C210.527 106.441 209.748 106.676 208.81 106.676C208.148 106.676 207.572 106.569 207.082 106.356C206.602 106.143 206.196 105.844 205.866 105.46C205.535 105.076 205.284 104.617 205.114 104.084C204.954 103.551 204.863 102.969 204.842 102.34C204.842 101.711 204.938 101.135 205.13 100.612C205.322 100.089 205.588 99.636 205.93 99.252C206.282 98.868 206.692 98.5693 207.162 98.356C207.642 98.1427 208.164 98.036 208.73 98.036C209.466 98.036 210.074 98.1907 210.554 98.5C211.044 98.7987 211.434 99.1827 211.722 99.652C212.02 100.121 212.223 100.633 212.33 101.188C212.447 101.743 212.495 102.271 212.474 102.772H206.282C206.271 103.135 206.314 103.481 206.41 103.812C206.506 104.132 206.66 104.42 206.874 104.676C207.087 104.921 207.359 105.119 207.69 105.268C208.02 105.417 208.41 105.492 208.858 105.492C209.434 105.492 209.903 105.359 210.266 105.092C210.639 104.825 210.884 104.42 211.002 103.876H212.346ZM217.611 106.5H216.155L213.083 98.228H214.603L216.923 105.124H216.955L219.211 98.228H220.635L217.611 106.5ZM227.627 101.572C227.606 101.252 227.531 100.948 227.403 100.66C227.286 100.372 227.121 100.127 226.907 99.924C226.705 99.7107 226.459 99.5453 226.171 99.428C225.894 99.3 225.585 99.236 225.243 99.236C224.891 99.236 224.571 99.3 224.283 99.428C224.006 99.5453 223.766 99.7107 223.563 99.924C223.361 100.137 223.201 100.388 223.083 100.676C222.966 100.953 222.897 101.252 222.875 101.572H227.627ZM228.939 103.876C228.758 104.804 228.358 105.503 227.739 105.972C227.121 106.441 226.342 106.676 225.403 106.676C224.742 106.676 224.166 106.569 223.675 106.356C223.195 106.143 222.79 105.844 222.459 105.46C222.129 105.076 221.878 104.617 221.707 104.084C221.547 103.551 221.457 102.969 221.435 102.34C221.435 101.711 221.531 101.135 221.723 100.612C221.915 100.089 222.182 99.636 222.523 99.252C222.875 98.868 223.286 98.5693 223.755 98.356C224.235 98.1427 224.758 98.036 225.323 98.036C226.059 98.036 226.667 98.1907 227.147 98.5C227.638 98.7987 228.027 99.1827 228.315 99.652C228.614 100.121 228.817 100.633 228.923 101.188C229.041 101.743 229.089 102.271 229.067 102.772H222.875C222.865 103.135 222.907 103.481 223.003 103.812C223.099 104.132 223.254 104.42 223.467 104.676C223.681 104.921 223.953 105.119 224.283 105.268C224.614 105.417 225.003 105.492 225.451 105.492C226.027 105.492 226.497 105.359 226.859 105.092C227.233 104.825 227.478 104.42 227.595 103.876H228.939ZM230.557 95.076H231.917V106.5H230.557V95.076ZM236.104 100.004H234.328V98.228H236.104V100.004ZM234.328 104.724H236.104V106.5H234.328V104.724ZM247.602 106.5H246.242V98.372H243.298V97.284C243.682 97.284 244.056 97.2573 244.418 97.204C244.781 97.14 245.106 97.028 245.394 96.868C245.693 96.708 245.944 96.4893 246.146 96.212C246.349 95.9347 246.488 95.5827 246.562 95.156H247.602V106.5Z" fill="black" fill-opacity="0.68"/>
<g clip-path="url(#clip0_59015_86821)">
<path d="M328.917 97.0791H321.083V104.912H328.917V97.0791Z" fill="black"/>
</g>
<path d="M353.368 102.872C353.368 104.333 352.979 105.432 352.2 106.168C351.421 106.893 350.312 107.256 348.872 107.256C347.4 107.256 346.248 106.909 345.416 106.216C344.595 105.512 344.184 104.397 344.184 102.872V95.576H345.704V102.872C345.704 103.896 345.976 104.675 346.52 105.208C347.064 105.731 347.848 105.992 348.872 105.992C349.843 105.992 350.579 105.731 351.08 105.208C351.592 104.675 351.848 103.896 351.848 102.872V95.576H353.368V102.872ZM355.771 98.728H357.051V100.04H357.083C357.648 99.0373 358.544 98.536 359.771 98.536C360.315 98.536 360.768 98.6107 361.131 98.76C361.494 98.9093 361.787 99.1173 362.011 99.384C362.235 99.6507 362.39 99.9707 362.475 100.344C362.571 100.707 362.619 101.112 362.619 101.56V107H361.259V101.4C361.259 100.888 361.11 100.483 360.811 100.184C360.512 99.8853 360.102 99.736 359.579 99.736C359.163 99.736 358.8 99.8 358.491 99.928C358.192 100.056 357.942 100.237 357.739 100.472C357.536 100.707 357.382 100.984 357.275 101.304C357.179 101.613 357.131 101.955 357.131 102.328V107H355.771V98.728ZM365.853 102.872C365.853 103.373 365.917 103.821 366.045 104.216C366.184 104.6 366.371 104.925 366.605 105.192C366.84 105.448 367.112 105.645 367.421 105.784C367.741 105.923 368.077 105.992 368.429 105.992C368.781 105.992 369.112 105.923 369.421 105.784C369.741 105.645 370.019 105.448 370.253 105.192C370.488 104.925 370.669 104.6 370.798 104.216C370.936 103.821 371.005 103.373 371.005 102.872C371.005 102.371 370.936 101.928 370.798 101.544C370.669 101.149 370.488 100.819 370.253 100.552C370.019 100.285 369.741 100.083 369.421 99.944C369.112 99.8053 368.781 99.736 368.429 99.736C368.077 99.736 367.741 99.8053 367.421 99.944C367.112 100.083 366.84 100.285 366.605 100.552C366.371 100.819 366.184 101.149 366.045 101.544C365.917 101.928 365.853 102.371 365.853 102.872ZM364.413 102.872C364.413 102.264 364.499 101.699 364.669 101.176C364.84 100.643 365.096 100.184 365.437 99.8C365.779 99.4053 366.2 99.096 366.701 98.872C367.203 98.648 367.779 98.536 368.429 98.536C369.091 98.536 369.667 98.648 370.157 98.872C370.659 99.096 371.08 99.4053 371.422 99.8C371.763 100.184 372.019 100.643 372.189 101.176C372.36 101.699 372.446 102.264 372.446 102.872C372.446 103.48 372.36 104.045 372.189 104.568C372.019 105.091 371.763 105.549 371.422 105.944C371.08 106.328 370.659 106.632 370.157 106.856C369.667 107.069 369.091 107.176 368.429 107.176C367.779 107.176 367.203 107.069 366.701 106.856C366.2 106.632 365.779 106.328 365.437 105.944C365.096 105.549 364.84 105.091 364.669 104.568C364.499 104.045 364.413 103.48 364.413 102.872ZM374.201 98.728H375.481V100.472H375.513C375.844 99.8 376.249 99.304 376.729 98.984C377.209 98.664 377.817 98.5147 378.553 98.536V99.976C378.009 99.976 377.545 100.051 377.161 100.2C376.777 100.349 376.468 100.568 376.233 100.856C375.998 101.144 375.828 101.496 375.721 101.912C375.614 102.317 375.561 102.787 375.561 103.32V107H374.201V98.728ZM380.488 102.936C380.488 103.32 380.536 103.699 380.632 104.072C380.739 104.435 380.893 104.76 381.096 105.048C381.309 105.336 381.576 105.565 381.896 105.736C382.227 105.907 382.611 105.992 383.048 105.992C383.507 105.992 383.896 105.901 384.216 105.72C384.536 105.539 384.797 105.304 385 105.016C385.203 104.717 385.347 104.381 385.432 104.008C385.528 103.635 385.576 103.256 385.576 102.872C385.576 102.467 385.528 102.077 385.432 101.704C385.336 101.32 385.181 100.984 384.968 100.696C384.765 100.408 384.499 100.179 384.168 100.008C383.837 99.8267 383.437 99.736 382.968 99.736C382.509 99.736 382.12 99.8267 381.8 100.008C381.48 100.189 381.224 100.429 381.032 100.728C380.84 101.027 380.701 101.368 380.616 101.752C380.531 102.136 380.488 102.531 380.488 102.936ZM386.888 107H385.528V105.88H385.496C385.272 106.339 384.92 106.669 384.44 106.872C383.96 107.075 383.432 107.176 382.856 107.176C382.216 107.176 381.656 107.059 381.176 106.824C380.707 106.589 380.312 106.275 379.992 105.88C379.683 105.485 379.448 105.027 379.288 104.504C379.128 103.981 379.048 103.427 379.048 102.84C379.048 102.253 379.123 101.699 379.272 101.176C379.432 100.653 379.667 100.2 379.976 99.816C380.296 99.4213 380.691 99.112 381.16 98.888C381.64 98.6533 382.195 98.536 382.824 98.536C383.037 98.536 383.267 98.5573 383.512 98.6C383.757 98.6427 384.003 98.7173 384.248 98.824C384.493 98.92 384.723 99.0533 384.936 99.224C385.16 99.384 385.347 99.5867 385.496 99.832H385.528V95.576H386.888V107ZM394.924 102.072C394.903 101.752 394.828 101.448 394.7 101.16C394.583 100.872 394.418 100.627 394.204 100.424C394.002 100.211 393.756 100.045 393.468 99.928C393.191 99.8 392.882 99.736 392.54 99.736C392.188 99.736 391.868 99.8 391.58 99.928C391.303 100.045 391.063 100.211 390.86 100.424C390.658 100.637 390.498 100.888 390.38 101.176C390.263 101.453 390.194 101.752 390.172 102.072H394.924ZM396.236 104.376C396.055 105.304 395.655 106.003 395.036 106.472C394.418 106.941 393.639 107.176 392.7 107.176C392.039 107.176 391.463 107.069 390.972 106.856C390.492 106.643 390.087 106.344 389.756 105.96C389.426 105.576 389.175 105.117 389.004 104.584C388.844 104.051 388.754 103.469 388.732 102.84C388.732 102.211 388.828 101.635 389.02 101.112C389.212 100.589 389.479 100.136 389.82 99.752C390.172 99.368 390.583 99.0693 391.052 98.856C391.532 98.6427 392.055 98.536 392.62 98.536C393.356 98.536 393.964 98.6907 394.444 99C394.935 99.2987 395.324 99.6827 395.612 100.152C395.911 100.621 396.114 101.133 396.22 101.688C396.338 102.243 396.386 102.771 396.364 103.272H390.172C390.162 103.635 390.204 103.981 390.3 104.312C390.396 104.632 390.551 104.92 390.764 105.176C390.978 105.421 391.25 105.619 391.58 105.768C391.911 105.917 392.3 105.992 392.748 105.992C393.324 105.992 393.794 105.859 394.156 105.592C394.53 105.325 394.775 104.92 394.892 104.376H396.236ZM397.926 98.728H399.206V100.472H399.238C399.569 99.8 399.974 99.304 400.454 98.984C400.934 98.664 401.542 98.5147 402.278 98.536V99.976C401.734 99.976 401.27 100.051 400.886 100.2C400.502 100.349 400.193 100.568 399.958 100.856C399.723 101.144 399.553 101.496 399.446 101.912C399.339 102.317 399.286 102.787 399.286 103.32V107H397.926V98.728ZM408.965 102.072C408.944 101.752 408.869 101.448 408.741 101.16C408.624 100.872 408.458 100.627 408.245 100.424C408.042 100.211 407.797 100.045 407.509 99.928C407.232 99.8 406.922 99.736 406.581 99.736C406.229 99.736 405.909 99.8 405.621 99.928C405.344 100.045 405.104 100.211 404.901 100.424C404.698 100.637 404.538 100.888 404.421 101.176C404.304 101.453 404.234 101.752 404.213 102.072H408.965ZM410.277 104.376C410.096 105.304 409.696 106.003 409.077 106.472C408.458 106.941 407.68 107.176 406.741 107.176C406.08 107.176 405.504 107.069 405.013 106.856C404.533 106.643 404.128 106.344 403.797 105.96C403.466 105.576 403.216 105.117 403.045 104.584C402.885 104.051 402.794 103.469 402.773 102.84C402.773 102.211 402.869 101.635 403.061 101.112C403.253 100.589 403.52 100.136 403.861 99.752C404.213 99.368 404.624 99.0693 405.093 98.856C405.573 98.6427 406.096 98.536 406.661 98.536C407.397 98.536 408.005 98.6907 408.485 99C408.976 99.2987 409.365 99.6827 409.653 100.152C409.952 100.621 410.154 101.133 410.261 101.688C410.378 102.243 410.426 102.771 410.405 103.272H404.213C404.202 103.635 404.245 103.981 404.341 104.312C404.437 104.632 404.592 104.92 404.805 105.176C405.018 105.421 405.29 105.619 405.621 105.768C405.952 105.917 406.341 105.992 406.789 105.992C407.365 105.992 407.834 105.859 408.197 105.592C408.57 105.325 408.816 104.92 408.933 104.376H410.277ZM413.007 102.936C413.007 103.32 413.055 103.699 413.151 104.072C413.257 104.435 413.412 104.76 413.615 105.048C413.828 105.336 414.095 105.565 414.415 105.736C414.745 105.907 415.129 105.992 415.567 105.992C416.025 105.992 416.415 105.901 416.735 105.72C417.055 105.539 417.316 105.304 417.519 105.016C417.721 104.717 417.865 104.381 417.951 104.008C418.047 103.635 418.095 103.256 418.095 102.872C418.095 102.467 418.047 102.077 417.951 101.704C417.855 101.32 417.7 100.984 417.487 100.696C417.284 100.408 417.017 100.179 416.687 100.008C416.356 99.8267 415.956 99.736 415.487 99.736C415.028 99.736 414.639 99.8267 414.319 100.008C413.999 100.189 413.743 100.429 413.551 100.728C413.359 101.027 413.22 101.368 413.135 101.752C413.049 102.136 413.007 102.531 413.007 102.936ZM419.407 107H418.047V105.88H418.015C417.791 106.339 417.439 106.669 416.959 106.872C416.479 107.075 415.951 107.176 415.375 107.176C414.735 107.176 414.175 107.059 413.695 106.824C413.225 106.589 412.831 106.275 412.511 105.88C412.201 105.485 411.967 105.027 411.807 104.504C411.647 103.981 411.567 103.427 411.567 102.84C411.567 102.253 411.641 101.699 411.791 101.176C411.951 100.653 412.185 100.2 412.495 99.816C412.815 99.4213 413.209 99.112 413.679 98.888C414.159 98.6533 414.713 98.536 415.343 98.536C415.556 98.536 415.785 98.5573 416.031 98.6C416.276 98.6427 416.521 98.7173 416.767 98.824C417.012 98.92 417.241 99.0533 417.455 99.224C417.679 99.384 417.865 99.5867 418.015 99.832H418.047V95.576H419.407V107ZM426.432 95.576H427.792V107H426.432V95.576ZM431.539 97.24H430.179V95.576H431.539V97.24ZM430.179 98.728H431.539V107H430.179V98.728ZM434.678 104.392C434.689 104.691 434.758 104.947 434.886 105.16C435.014 105.363 435.179 105.528 435.382 105.656C435.595 105.773 435.83 105.859 436.086 105.912C436.353 105.965 436.625 105.992 436.902 105.992C437.115 105.992 437.339 105.976 437.574 105.944C437.809 105.912 438.022 105.853 438.214 105.768C438.417 105.683 438.582 105.56 438.71 105.4C438.838 105.229 438.902 105.016 438.902 104.76C438.902 104.408 438.769 104.141 438.502 103.96C438.235 103.779 437.899 103.635 437.494 103.528C437.099 103.411 436.667 103.309 436.198 103.224C435.729 103.128 435.291 103 434.886 102.84C434.491 102.669 434.161 102.435 433.894 102.136C433.627 101.837 433.494 101.421 433.494 100.888C433.494 100.472 433.585 100.115 433.766 99.816C433.958 99.5173 434.198 99.2773 434.486 99.096C434.785 98.904 435.115 98.7653 435.478 98.68C435.851 98.584 436.219 98.536 436.582 98.536C437.051 98.536 437.483 98.5787 437.878 98.664C438.273 98.7387 438.619 98.8773 438.918 99.08C439.227 99.272 439.473 99.5387 439.654 99.88C439.835 100.211 439.942 100.627 439.974 101.128H438.614C438.593 100.861 438.523 100.643 438.406 100.472C438.289 100.291 438.139 100.147 437.958 100.04C437.777 99.9333 437.574 99.8587 437.35 99.816C437.137 99.7627 436.918 99.736 436.694 99.736C436.491 99.736 436.283 99.752 436.07 99.784C435.867 99.816 435.681 99.8747 435.51 99.96C435.339 100.035 435.201 100.141 435.094 100.28C434.987 100.408 434.934 100.579 434.934 100.792C434.934 101.027 435.014 101.224 435.174 101.384C435.345 101.533 435.558 101.661 435.814 101.768C436.07 101.864 436.358 101.949 436.678 102.024C436.998 102.088 437.318 102.157 437.638 102.232C437.979 102.307 438.31 102.397 438.63 102.504C438.961 102.611 439.249 102.755 439.494 102.936C439.75 103.107 439.953 103.325 440.102 103.592C440.262 103.859 440.342 104.189 440.342 104.584C440.342 105.085 440.235 105.501 440.022 105.832C439.819 106.163 439.547 106.429 439.206 106.632C438.875 106.835 438.497 106.973 438.07 107.048C437.654 107.133 437.238 107.176 436.822 107.176C436.363 107.176 435.926 107.128 435.51 107.032C435.094 106.936 434.726 106.781 434.406 106.568C434.086 106.344 433.83 106.056 433.638 105.704C433.446 105.341 433.339 104.904 433.318 104.392H434.678ZM443.934 98.728H445.582V99.928H443.934V105.064C443.934 105.224 443.945 105.352 443.966 105.448C443.998 105.544 444.051 105.619 444.126 105.672C444.201 105.725 444.302 105.763 444.43 105.784C444.569 105.795 444.745 105.8 444.958 105.8H445.582V107H444.542C444.19 107 443.886 106.979 443.63 106.936C443.385 106.883 443.182 106.792 443.022 106.664C442.873 106.536 442.761 106.355 442.686 106.12C442.611 105.885 442.574 105.576 442.574 105.192V99.928H441.166V98.728H442.574V96.248H443.934V98.728Z" fill="black"/>
<path d="M146.232 131.076H147.848L153.864 140.34H153.896V131.076H155.336V142.5H153.672L147.704 133.332H147.672V142.5H146.232V131.076ZM163.315 137.572C163.294 137.252 163.219 136.948 163.091 136.66C162.974 136.372 162.808 136.127 162.595 135.924C162.392 135.711 162.147 135.545 161.859 135.428C161.582 135.3 161.272 135.236 160.931 135.236C160.579 135.236 160.259 135.3 159.971 135.428C159.694 135.545 159.454 135.711 159.251 135.924C159.048 136.137 158.888 136.388 158.771 136.676C158.654 136.953 158.584 137.252 158.563 137.572H163.315ZM164.627 139.876C164.446 140.804 164.046 141.503 163.427 141.972C162.808 142.441 162.03 142.676 161.091 142.676C160.43 142.676 159.854 142.569 159.363 142.356C158.883 142.143 158.478 141.844 158.147 141.46C157.816 141.076 157.566 140.617 157.395 140.084C157.235 139.551 157.144 138.969 157.123 138.34C157.123 137.711 157.219 137.135 157.411 136.612C157.603 136.089 157.87 135.636 158.211 135.252C158.563 134.868 158.974 134.569 159.443 134.356C159.923 134.143 160.446 134.036 161.011 134.036C161.747 134.036 162.355 134.191 162.835 134.5C163.326 134.799 163.715 135.183 164.003 135.652C164.302 136.121 164.504 136.633 164.611 137.188C164.728 137.743 164.776 138.271 164.755 138.772H158.563C158.552 139.135 158.595 139.481 158.691 139.812C158.787 140.132 158.942 140.42 159.155 140.676C159.368 140.921 159.64 141.119 159.971 141.268C160.302 141.417 160.691 141.492 161.139 141.492C161.715 141.492 162.184 141.359 162.547 141.092C162.92 140.825 163.166 140.42 163.283 139.876H164.627ZM166.997 139.892C167.007 140.191 167.077 140.447 167.205 140.66C167.333 140.863 167.498 141.028 167.701 141.156C167.914 141.273 168.149 141.359 168.405 141.412C168.671 141.465 168.943 141.492 169.221 141.492C169.434 141.492 169.658 141.476 169.893 141.444C170.127 141.412 170.341 141.353 170.533 141.268C170.735 141.183 170.901 141.06 171.029 140.9C171.157 140.729 171.221 140.516 171.221 140.26C171.221 139.908 171.087 139.641 170.821 139.46C170.554 139.279 170.218 139.135 169.813 139.028C169.418 138.911 168.986 138.809 168.517 138.724C168.047 138.628 167.61 138.5 167.205 138.34C166.81 138.169 166.479 137.935 166.213 137.636C165.946 137.337 165.813 136.921 165.813 136.388C165.813 135.972 165.903 135.615 166.085 135.316C166.277 135.017 166.517 134.777 166.805 134.596C167.103 134.404 167.434 134.265 167.797 134.18C168.17 134.084 168.538 134.036 168.901 134.036C169.37 134.036 169.802 134.079 170.197 134.164C170.591 134.239 170.938 134.377 171.237 134.58C171.546 134.772 171.791 135.039 171.973 135.38C172.154 135.711 172.261 136.127 172.293 136.628H170.933C170.911 136.361 170.842 136.143 170.725 135.972C170.607 135.791 170.458 135.647 170.277 135.54C170.095 135.433 169.893 135.359 169.669 135.316C169.455 135.263 169.237 135.236 169.013 135.236C168.81 135.236 168.602 135.252 168.389 135.284C168.186 135.316 167.999 135.375 167.829 135.46C167.658 135.535 167.519 135.641 167.413 135.78C167.306 135.908 167.253 136.079 167.253 136.292C167.253 136.527 167.333 136.724 167.493 136.884C167.663 137.033 167.877 137.161 168.133 137.268C168.389 137.364 168.677 137.449 168.997 137.524C169.317 137.588 169.637 137.657 169.957 137.732C170.298 137.807 170.629 137.897 170.949 138.004C171.279 138.111 171.567 138.255 171.813 138.436C172.069 138.607 172.271 138.825 172.421 139.092C172.581 139.359 172.661 139.689 172.661 140.084C172.661 140.585 172.554 141.001 172.341 141.332C172.138 141.663 171.866 141.929 171.525 142.132C171.194 142.335 170.815 142.473 170.389 142.548C169.973 142.633 169.557 142.676 169.141 142.676C168.682 142.676 168.245 142.628 167.829 142.532C167.413 142.436 167.045 142.281 166.725 142.068C166.405 141.844 166.149 141.556 165.957 141.204C165.765 140.841 165.658 140.404 165.637 139.892H166.997ZM176.053 134.228H177.701V135.428H176.053V140.564C176.053 140.724 176.063 140.852 176.085 140.948C176.117 141.044 176.17 141.119 176.245 141.172C176.319 141.225 176.421 141.263 176.549 141.284C176.687 141.295 176.863 141.3 177.077 141.3H177.701V142.5H176.661C176.309 142.5 176.005 142.479 175.749 142.436C175.503 142.383 175.301 142.292 175.141 142.164C174.991 142.036 174.879 141.855 174.805 141.62C174.73 141.385 174.693 141.076 174.693 140.692V135.428H173.285V134.228H174.693V131.748H176.053V134.228ZM184.956 137.572C184.934 137.252 184.86 136.948 184.732 136.66C184.614 136.372 184.449 136.127 184.236 135.924C184.033 135.711 183.788 135.545 183.5 135.428C183.222 135.3 182.913 135.236 182.572 135.236C182.22 135.236 181.9 135.3 181.612 135.428C181.334 135.545 181.094 135.711 180.892 135.924C180.689 136.137 180.529 136.388 180.412 136.676C180.294 136.953 180.225 137.252 180.204 137.572H184.956ZM186.267 139.876C186.086 140.804 185.686 141.503 185.068 141.972C184.449 142.441 183.67 142.676 182.732 142.676C182.07 142.676 181.494 142.569 181.004 142.356C180.524 142.143 180.118 141.844 179.788 141.46C179.457 141.076 179.206 140.617 179.036 140.084C178.876 139.551 178.785 138.969 178.764 138.34C178.764 137.711 178.86 137.135 179.052 136.612C179.244 136.089 179.51 135.636 179.852 135.252C180.204 134.868 180.614 134.569 181.084 134.356C181.564 134.143 182.086 134.036 182.652 134.036C183.388 134.036 183.996 134.191 184.476 134.5C184.966 134.799 185.356 135.183 185.644 135.652C185.942 136.121 186.145 136.633 186.252 137.188C186.369 137.743 186.417 138.271 186.396 138.772H180.204C180.193 139.135 180.236 139.481 180.332 139.812C180.428 140.132 180.582 140.42 180.796 140.676C181.009 140.921 181.281 141.119 181.612 141.268C181.942 141.417 182.332 141.492 182.78 141.492C183.356 141.492 183.825 141.359 184.188 141.092C184.561 140.825 184.806 140.42 184.924 139.876H186.267ZM188.797 138.436C188.797 138.82 188.845 139.199 188.941 139.572C189.048 139.935 189.203 140.26 189.405 140.548C189.619 140.836 189.885 141.065 190.205 141.236C190.536 141.407 190.92 141.492 191.357 141.492C191.816 141.492 192.205 141.401 192.525 141.22C192.845 141.039 193.107 140.804 193.309 140.516C193.512 140.217 193.656 139.881 193.741 139.508C193.837 139.135 193.885 138.756 193.885 138.372C193.885 137.967 193.837 137.577 193.741 137.204C193.645 136.82 193.491 136.484 193.277 136.196C193.075 135.908 192.808 135.679 192.477 135.508C192.147 135.327 191.747 135.236 191.277 135.236C190.819 135.236 190.429 135.327 190.109 135.508C189.789 135.689 189.533 135.929 189.341 136.228C189.149 136.527 189.011 136.868 188.925 137.252C188.84 137.636 188.797 138.031 188.797 138.436ZM195.197 142.5H193.837V141.38H193.805C193.581 141.839 193.229 142.169 192.749 142.372C192.269 142.575 191.741 142.676 191.165 142.676C190.525 142.676 189.965 142.559 189.485 142.324C189.016 142.089 188.621 141.775 188.301 141.38C187.992 140.985 187.757 140.527 187.597 140.004C187.437 139.481 187.357 138.927 187.357 138.34C187.357 137.753 187.432 137.199 187.581 136.676C187.741 136.153 187.976 135.7 188.285 135.316C188.605 134.921 189 134.612 189.469 134.388C189.949 134.153 190.504 134.036 191.133 134.036C191.347 134.036 191.576 134.057 191.821 134.1C192.067 134.143 192.312 134.217 192.557 134.324C192.803 134.42 193.032 134.553 193.245 134.724C193.469 134.884 193.656 135.087 193.805 135.332H193.837V131.076H195.197V142.5ZM201.823 131.076H203.183V142.5H201.823V131.076ZM211.034 137.572C211.012 137.252 210.938 136.948 210.81 136.66C210.692 136.372 210.527 136.127 210.314 135.924C210.111 135.711 209.866 135.545 209.578 135.428C209.3 135.3 208.991 135.236 208.65 135.236C208.298 135.236 207.978 135.3 207.69 135.428C207.412 135.545 207.172 135.711 206.97 135.924C206.767 136.137 206.607 136.388 206.49 136.676C206.372 136.953 206.303 137.252 206.282 137.572H211.034ZM212.346 139.876C212.164 140.804 211.764 141.503 211.146 141.972C210.527 142.441 209.748 142.676 208.81 142.676C208.148 142.676 207.572 142.569 207.082 142.356C206.602 142.143 206.196 141.844 205.866 141.46C205.535 141.076 205.284 140.617 205.114 140.084C204.954 139.551 204.863 138.969 204.842 138.34C204.842 137.711 204.938 137.135 205.13 136.612C205.322 136.089 205.588 135.636 205.93 135.252C206.282 134.868 206.692 134.569 207.162 134.356C207.642 134.143 208.164 134.036 208.73 134.036C209.466 134.036 210.074 134.191 210.554 134.5C211.044 134.799 211.434 135.183 211.722 135.652C212.02 136.121 212.223 136.633 212.33 137.188C212.447 137.743 212.495 138.271 212.474 138.772H206.282C206.271 139.135 206.314 139.481 206.41 139.812C206.506 140.132 206.66 140.42 206.874 140.676C207.087 140.921 207.359 141.119 207.69 141.268C208.02 141.417 208.41 141.492 208.858 141.492C209.434 141.492 209.903 141.359 210.266 141.092C210.639 140.825 210.884 140.42 211.002 139.876H212.346ZM217.611 142.5H216.155L213.083 134.228H214.603L216.923 141.124H216.955L219.211 134.228H220.635L217.611 142.5ZM227.627 137.572C227.606 137.252 227.531 136.948 227.403 136.66C227.286 136.372 227.121 136.127 226.907 135.924C226.705 135.711 226.459 135.545 226.171 135.428C225.894 135.3 225.585 135.236 225.243 135.236C224.891 135.236 224.571 135.3 224.283 135.428C224.006 135.545 223.766 135.711 223.563 135.924C223.361 136.137 223.201 136.388 223.083 136.676C222.966 136.953 222.897 137.252 222.875 137.572H227.627ZM228.939 139.876C228.758 140.804 228.358 141.503 227.739 141.972C227.121 142.441 226.342 142.676 225.403 142.676C224.742 142.676 224.166 142.569 223.675 142.356C223.195 142.143 222.79 141.844 222.459 141.46C222.129 141.076 221.878 140.617 221.707 140.084C221.547 139.551 221.457 138.969 221.435 138.34C221.435 137.711 221.531 137.135 221.723 136.612C221.915 136.089 222.182 135.636 222.523 135.252C222.875 134.868 223.286 134.569 223.755 134.356C224.235 134.143 224.758 134.036 225.323 134.036C226.059 134.036 226.667 134.191 227.147 134.5C227.638 134.799 228.027 135.183 228.315 135.652C228.614 136.121 228.817 136.633 228.923 137.188C229.041 137.743 229.089 138.271 229.067 138.772H222.875C222.865 139.135 222.907 139.481 223.003 139.812C223.099 140.132 223.254 140.42 223.467 140.676C223.681 140.921 223.953 141.119 224.283 141.268C224.614 141.417 225.003 141.492 225.451 141.492C226.027 141.492 226.497 141.359 226.859 141.092C227.233 140.825 227.478 140.42 227.595 139.876H228.939ZM230.557 131.076H231.917V142.5H230.557V131.076ZM236.104 136.004H234.328V134.228H236.104V136.004ZM234.328 140.724H236.104V142.5H234.328V140.724ZM247.602 142.5H246.242V134.372H243.298V133.284C243.682 133.284 244.056 133.257 244.418 133.204C244.781 133.14 245.106 133.028 245.394 132.868C245.693 132.708 245.944 132.489 246.146 132.212C246.349 131.935 246.488 131.583 246.562 131.156H247.602V142.5Z" fill="black" fill-opacity="0.68"/>
<g clip-path="url(#clip1_59015_86821)">
<path d="M328.917 133.079H321.083V140.912H328.917V133.079Z" fill="black"/>
</g>
<path d="M353.368 138.872C353.368 140.333 352.979 141.432 352.2 142.168C351.421 142.893 350.312 143.256 348.872 143.256C347.4 143.256 346.248 142.909 345.416 142.216C344.595 141.512 344.184 140.397 344.184 138.872V131.576H345.704V138.872C345.704 139.896 345.976 140.675 346.52 141.208C347.064 141.731 347.848 141.992 348.872 141.992C349.843 141.992 350.579 141.731 351.08 141.208C351.592 140.675 351.848 139.896 351.848 138.872V131.576H353.368V138.872ZM355.771 134.728H357.051V136.04H357.083C357.648 135.037 358.544 134.536 359.771 134.536C360.315 134.536 360.768 134.611 361.131 134.76C361.494 134.909 361.787 135.117 362.011 135.384C362.235 135.651 362.39 135.971 362.475 136.344C362.571 136.707 362.619 137.112 362.619 137.56V143H361.259V137.4C361.259 136.888 361.11 136.483 360.811 136.184C360.512 135.885 360.102 135.736 359.579 135.736C359.163 135.736 358.8 135.8 358.491 135.928C358.192 136.056 357.942 136.237 357.739 136.472C357.536 136.707 357.382 136.984 357.275 137.304C357.179 137.613 357.131 137.955 357.131 138.328V143H355.771V134.728ZM365.853 138.872C365.853 139.373 365.917 139.821 366.045 140.216C366.184 140.6 366.371 140.925 366.605 141.192C366.84 141.448 367.112 141.645 367.421 141.784C367.741 141.923 368.077 141.992 368.429 141.992C368.781 141.992 369.112 141.923 369.421 141.784C369.741 141.645 370.019 141.448 370.253 141.192C370.488 140.925 370.669 140.6 370.798 140.216C370.936 139.821 371.005 139.373 371.005 138.872C371.005 138.371 370.936 137.928 370.798 137.544C370.669 137.149 370.488 136.819 370.253 136.552C370.019 136.285 369.741 136.083 369.421 135.944C369.112 135.805 368.781 135.736 368.429 135.736C368.077 135.736 367.741 135.805 367.421 135.944C367.112 136.083 366.84 136.285 366.605 136.552C366.371 136.819 366.184 137.149 366.045 137.544C365.917 137.928 365.853 138.371 365.853 138.872ZM364.413 138.872C364.413 138.264 364.499 137.699 364.669 137.176C364.84 136.643 365.096 136.184 365.437 135.8C365.779 135.405 366.2 135.096 366.701 134.872C367.203 134.648 367.779 134.536 368.429 134.536C369.091 134.536 369.667 134.648 370.157 134.872C370.659 135.096 371.08 135.405 371.422 135.8C371.763 136.184 372.019 136.643 372.189 137.176C372.36 137.699 372.446 138.264 372.446 138.872C372.446 139.48 372.36 140.045 372.189 140.568C372.019 141.091 371.763 141.549 371.422 141.944C371.08 142.328 370.659 142.632 370.157 142.856C369.667 143.069 369.091 143.176 368.429 143.176C367.779 143.176 367.203 143.069 366.701 142.856C366.2 142.632 365.779 142.328 365.437 141.944C365.096 141.549 364.84 141.091 364.669 140.568C364.499 140.045 364.413 139.48 364.413 138.872ZM374.201 134.728H375.481V136.472H375.513C375.844 135.8 376.249 135.304 376.729 134.984C377.209 134.664 377.817 134.515 378.553 134.536V135.976C378.009 135.976 377.545 136.051 377.161 136.2C376.777 136.349 376.468 136.568 376.233 136.856C375.998 137.144 375.828 137.496 375.721 137.912C375.614 138.317 375.561 138.787 375.561 139.32V143H374.201V134.728ZM380.488 138.936C380.488 139.32 380.536 139.699 380.632 140.072C380.739 140.435 380.893 140.76 381.096 141.048C381.309 141.336 381.576 141.565 381.896 141.736C382.227 141.907 382.611 141.992 383.048 141.992C383.507 141.992 383.896 141.901 384.216 141.72C384.536 141.539 384.797 141.304 385 141.016C385.203 140.717 385.347 140.381 385.432 140.008C385.528 139.635 385.576 139.256 385.576 138.872C385.576 138.467 385.528 138.077 385.432 137.704C385.336 137.32 385.181 136.984 384.968 136.696C384.765 136.408 384.499 136.179 384.168 136.008C383.837 135.827 383.437 135.736 382.968 135.736C382.509 135.736 382.12 135.827 381.8 136.008C381.48 136.189 381.224 136.429 381.032 136.728C380.84 137.027 380.701 137.368 380.616 137.752C380.531 138.136 380.488 138.531 380.488 138.936ZM386.888 143H385.528V141.88H385.496C385.272 142.339 384.92 142.669 384.44 142.872C383.96 143.075 383.432 143.176 382.856 143.176C382.216 143.176 381.656 143.059 381.176 142.824C380.707 142.589 380.312 142.275 379.992 141.88C379.683 141.485 379.448 141.027 379.288 140.504C379.128 139.981 379.048 139.427 379.048 138.84C379.048 138.253 379.123 137.699 379.272 137.176C379.432 136.653 379.667 136.2 379.976 135.816C380.296 135.421 380.691 135.112 381.16 134.888C381.64 134.653 382.195 134.536 382.824 134.536C383.037 134.536 383.267 134.557 383.512 134.6C383.757 134.643 384.003 134.717 384.248 134.824C384.493 134.92 384.723 135.053 384.936 135.224C385.16 135.384 385.347 135.587 385.496 135.832H385.528V131.576H386.888V143ZM394.924 138.072C394.903 137.752 394.828 137.448 394.7 137.16C394.583 136.872 394.418 136.627 394.204 136.424C394.002 136.211 393.756 136.045 393.468 135.928C393.191 135.8 392.882 135.736 392.54 135.736C392.188 135.736 391.868 135.8 391.58 135.928C391.303 136.045 391.063 136.211 390.86 136.424C390.658 136.637 390.498 136.888 390.38 137.176C390.263 137.453 390.194 137.752 390.172 138.072H394.924ZM396.236 140.376C396.055 141.304 395.655 142.003 395.036 142.472C394.418 142.941 393.639 143.176 392.7 143.176C392.039 143.176 391.463 143.069 390.972 142.856C390.492 142.643 390.087 142.344 389.756 141.96C389.426 141.576 389.175 141.117 389.004 140.584C388.844 140.051 388.754 139.469 388.732 138.84C388.732 138.211 388.828 137.635 389.02 137.112C389.212 136.589 389.479 136.136 389.82 135.752C390.172 135.368 390.583 135.069 391.052 134.856C391.532 134.643 392.055 134.536 392.62 134.536C393.356 134.536 393.964 134.691 394.444 135C394.935 135.299 395.324 135.683 395.612 136.152C395.911 136.621 396.114 137.133 396.22 137.688C396.338 138.243 396.386 138.771 396.364 139.272H390.172C390.162 139.635 390.204 139.981 390.3 140.312C390.396 140.632 390.551 140.92 390.764 141.176C390.978 141.421 391.25 141.619 391.58 141.768C391.911 141.917 392.3 141.992 392.748 141.992C393.324 141.992 393.794 141.859 394.156 141.592C394.53 141.325 394.775 140.92 394.892 140.376H396.236ZM397.926 134.728H399.206V136.472H399.238C399.569 135.8 399.974 135.304 400.454 134.984C400.934 134.664 401.542 134.515 402.278 134.536V135.976C401.734 135.976 401.27 136.051 400.886 136.2C400.502 136.349 400.193 136.568 399.958 136.856C399.723 137.144 399.553 137.496 399.446 137.912C399.339 138.317 399.286 138.787 399.286 139.32V143H397.926V134.728ZM408.965 138.072C408.944 137.752 408.869 137.448 408.741 137.16C408.624 136.872 408.458 136.627 408.245 136.424C408.042 136.211 407.797 136.045 407.509 135.928C407.232 135.8 406.922 135.736 406.581 135.736C406.229 135.736 405.909 135.8 405.621 135.928C405.344 136.045 405.104 136.211 404.901 136.424C404.698 136.637 404.538 136.888 404.421 137.176C404.304 137.453 404.234 137.752 404.213 138.072H408.965ZM410.277 140.376C410.096 141.304 409.696 142.003 409.077 142.472C408.458 142.941 407.68 143.176 406.741 143.176C406.08 143.176 405.504 143.069 405.013 142.856C404.533 142.643 404.128 142.344 403.797 141.96C403.466 141.576 403.216 141.117 403.045 140.584C402.885 140.051 402.794 139.469 402.773 138.84C402.773 138.211 402.869 137.635 403.061 137.112C403.253 136.589 403.52 136.136 403.861 135.752C404.213 135.368 404.624 135.069 405.093 134.856C405.573 134.643 406.096 134.536 406.661 134.536C407.397 134.536 408.005 134.691 408.485 135C408.976 135.299 409.365 135.683 409.653 136.152C409.952 136.621 410.154 137.133 410.261 137.688C410.378 138.243 410.426 138.771 410.405 139.272H404.213C404.202 139.635 404.245 139.981 404.341 140.312C404.437 140.632 404.592 140.92 404.805 141.176C405.018 141.421 405.29 141.619 405.621 141.768C405.952 141.917 406.341 141.992 406.789 141.992C407.365 141.992 407.834 141.859 408.197 141.592C408.57 141.325 408.816 140.92 408.933 140.376H410.277ZM413.007 138.936C413.007 139.32 413.055 139.699 413.151 140.072C413.257 140.435 413.412 140.76 413.615 141.048C413.828 141.336 414.095 141.565 414.415 141.736C414.745 141.907 415.129 141.992 415.567 141.992C416.025 141.992 416.415 141.901 416.735 141.72C417.055 141.539 417.316 141.304 417.519 141.016C417.721 140.717 417.865 140.381 417.951 140.008C418.047 139.635 418.095 139.256 418.095 138.872C418.095 138.467 418.047 138.077 417.951 137.704C417.855 137.32 417.7 136.984 417.487 136.696C417.284 136.408 417.017 136.179 416.687 136.008C416.356 135.827 415.956 135.736 415.487 135.736C415.028 135.736 414.639 135.827 414.319 136.008C413.999 136.189 413.743 136.429 413.551 136.728C413.359 137.027 413.22 137.368 413.135 137.752C413.049 138.136 413.007 138.531 413.007 138.936ZM419.407 143H418.047V141.88H418.015C417.791 142.339 417.439 142.669 416.959 142.872C416.479 143.075 415.951 143.176 415.375 143.176C414.735 143.176 414.175 143.059 413.695 142.824C413.225 142.589 412.831 142.275 412.511 141.88C412.201 141.485 411.967 141.027 411.807 140.504C411.647 139.981 411.567 139.427 411.567 138.84C411.567 138.253 411.641 137.699 411.791 137.176C411.951 136.653 412.185 136.2 412.495 135.816C412.815 135.421 413.209 135.112 413.679 134.888C414.159 134.653 414.713 134.536 415.343 134.536C415.556 134.536 415.785 134.557 416.031 134.6C416.276 134.643 416.521 134.717 416.767 134.824C417.012 134.92 417.241 135.053 417.455 135.224C417.679 135.384 417.865 135.587 418.015 135.832H418.047V131.576H419.407V143ZM426.432 131.576H427.792V143H426.432V131.576ZM431.539 133.24H430.179V131.576H431.539V133.24ZM430.179 134.728H431.539V143H430.179V134.728ZM434.678 140.392C434.689 140.691 434.758 140.947 434.886 141.16C435.014 141.363 435.179 141.528 435.382 141.656C435.595 141.773 435.83 141.859 436.086 141.912C436.353 141.965 436.625 141.992 436.902 141.992C437.115 141.992 437.339 141.976 437.574 141.944C437.809 141.912 438.022 141.853 438.214 141.768C438.417 141.683 438.582 141.56 438.71 141.4C438.838 141.229 438.902 141.016 438.902 140.76C438.902 140.408 438.769 140.141 438.502 139.96C438.235 139.779 437.899 139.635 437.494 139.528C437.099 139.411 436.667 139.309 436.198 139.224C435.729 139.128 435.291 139 434.886 138.84C434.491 138.669 434.161 138.435 433.894 138.136C433.627 137.837 433.494 137.421 433.494 136.888C433.494 136.472 433.585 136.115 433.766 135.816C433.958 135.517 434.198 135.277 434.486 135.096C434.785 134.904 435.115 134.765 435.478 134.68C435.851 134.584 436.219 134.536 436.582 134.536C437.051 134.536 437.483 134.579 437.878 134.664C438.273 134.739 438.619 134.877 438.918 135.08C439.227 135.272 439.473 135.539 439.654 135.88C439.835 136.211 439.942 136.627 439.974 137.128H438.614C438.593 136.861 438.523 136.643 438.406 136.472C438.289 136.291 438.139 136.147 437.958 136.04C437.777 135.933 437.574 135.859 437.35 135.816C437.137 135.763 436.918 135.736 436.694 135.736C436.491 135.736 436.283 135.752 436.07 135.784C435.867 135.816 435.681 135.875 435.51 135.96C435.339 136.035 435.201 136.141 435.094 136.28C434.987 136.408 434.934 136.579 434.934 136.792C434.934 137.027 435.014 137.224 435.174 137.384C435.345 137.533 435.558 137.661 435.814 137.768C436.07 137.864 436.358 137.949 436.678 138.024C436.998 138.088 437.318 138.157 437.638 138.232C437.979 138.307 438.31 138.397 438.63 138.504C438.961 138.611 439.249 138.755 439.494 138.936C439.75 139.107 439.953 139.325 440.102 139.592C440.262 139.859 440.342 140.189 440.342 140.584C440.342 141.085 440.235 141.501 440.022 141.832C439.819 142.163 439.547 142.429 439.206 142.632C438.875 142.835 438.497 142.973 438.07 143.048C437.654 143.133 437.238 143.176 436.822 143.176C436.363 143.176 435.926 143.128 435.51 143.032C435.094 142.936 434.726 142.781 434.406 142.568C434.086 142.344 433.83 142.056 433.638 141.704C433.446 141.341 433.339 140.904 433.318 140.392H434.678ZM443.934 134.728H445.582V135.928H443.934V141.064C443.934 141.224 443.945 141.352 443.966 141.448C443.998 141.544 444.051 141.619 444.126 141.672C444.201 141.725 444.302 141.763 444.43 141.784C444.569 141.795 444.745 141.8 444.958 141.8H445.582V143H444.542C444.19 143 443.886 142.979 443.63 142.936C443.385 142.883 443.182 142.792 443.022 142.664C442.873 142.536 442.761 142.355 442.686 142.12C442.611 141.885 442.574 141.576 442.574 141.192V135.928H441.166V134.728H442.574V132.248H443.934V134.728Z" fill="black"/>
<path d="M146.232 167.076H147.848L153.864 176.34H153.896V167.076H155.336V178.5H153.672L147.704 169.332H147.672V178.5H146.232V167.076ZM163.315 173.572C163.294 173.252 163.219 172.948 163.091 172.66C162.974 172.372 162.808 172.127 162.595 171.924C162.392 171.711 162.147 171.545 161.859 171.428C161.582 171.3 161.272 171.236 160.931 171.236C160.579 171.236 160.259 171.3 159.971 171.428C159.694 171.545 159.454 171.711 159.251 171.924C159.048 172.137 158.888 172.388 158.771 172.676C158.654 172.953 158.584 173.252 158.563 173.572H163.315ZM164.627 175.876C164.446 176.804 164.046 177.503 163.427 177.972C162.808 178.441 162.03 178.676 161.091 178.676C160.43 178.676 159.854 178.569 159.363 178.356C158.883 178.143 158.478 177.844 158.147 177.46C157.816 177.076 157.566 176.617 157.395 176.084C157.235 175.551 157.144 174.969 157.123 174.34C157.123 173.711 157.219 173.135 157.411 172.612C157.603 172.089 157.87 171.636 158.211 171.252C158.563 170.868 158.974 170.569 159.443 170.356C159.923 170.143 160.446 170.036 161.011 170.036C161.747 170.036 162.355 170.191 162.835 170.5C163.326 170.799 163.715 171.183 164.003 171.652C164.302 172.121 164.504 172.633 164.611 173.188C164.728 173.743 164.776 174.271 164.755 174.772H158.563C158.552 175.135 158.595 175.481 158.691 175.812C158.787 176.132 158.942 176.42 159.155 176.676C159.368 176.921 159.64 177.119 159.971 177.268C160.302 177.417 160.691 177.492 161.139 177.492C161.715 177.492 162.184 177.359 162.547 177.092C162.92 176.825 163.166 176.42 163.283 175.876H164.627ZM166.997 175.892C167.007 176.191 167.077 176.447 167.205 176.66C167.333 176.863 167.498 177.028 167.701 177.156C167.914 177.273 168.149 177.359 168.405 177.412C168.671 177.465 168.943 177.492 169.221 177.492C169.434 177.492 169.658 177.476 169.893 177.444C170.127 177.412 170.341 177.353 170.533 177.268C170.735 177.183 170.901 177.06 171.029 176.9C171.157 176.729 171.221 176.516 171.221 176.26C171.221 175.908 171.087 175.641 170.821 175.46C170.554 175.279 170.218 175.135 169.813 175.028C169.418 174.911 168.986 174.809 168.517 174.724C168.047 174.628 167.61 174.5 167.205 174.34C166.81 174.169 166.479 173.935 166.213 173.636C165.946 173.337 165.813 172.921 165.813 172.388C165.813 171.972 165.903 171.615 166.085 171.316C166.277 171.017 166.517 170.777 166.805 170.596C167.103 170.404 167.434 170.265 167.797 170.18C168.17 170.084 168.538 170.036 168.901 170.036C169.37 170.036 169.802 170.079 170.197 170.164C170.591 170.239 170.938 170.377 171.237 170.58C171.546 170.772 171.791 171.039 171.973 171.38C172.154 171.711 172.261 172.127 172.293 172.628H170.933C170.911 172.361 170.842 172.143 170.725 171.972C170.607 171.791 170.458 171.647 170.277 171.54C170.095 171.433 169.893 171.359 169.669 171.316C169.455 171.263 169.237 171.236 169.013 171.236C168.81 171.236 168.602 171.252 168.389 171.284C168.186 171.316 167.999 171.375 167.829 171.46C167.658 171.535 167.519 171.641 167.413 171.78C167.306 171.908 167.253 172.079 167.253 172.292C167.253 172.527 167.333 172.724 167.493 172.884C167.663 173.033 167.877 173.161 168.133 173.268C168.389 173.364 168.677 173.449 168.997 173.524C169.317 173.588 169.637 173.657 169.957 173.732C170.298 173.807 170.629 173.897 170.949 174.004C171.279 174.111 171.567 174.255 171.813 174.436C172.069 174.607 172.271 174.825 172.421 175.092C172.581 175.359 172.661 175.689 172.661 176.084C172.661 176.585 172.554 177.001 172.341 177.332C172.138 177.663 171.866 177.929 171.525 178.132C171.194 178.335 170.815 178.473 170.389 178.548C169.973 178.633 169.557 178.676 169.141 178.676C168.682 178.676 168.245 178.628 167.829 178.532C167.413 178.436 167.045 178.281 166.725 178.068C166.405 177.844 166.149 177.556 165.957 177.204C165.765 176.841 165.658 176.404 165.637 175.892H166.997ZM176.053 170.228H177.701V171.428H176.053V176.564C176.053 176.724 176.063 176.852 176.085 176.948C176.117 177.044 176.17 177.119 176.245 177.172C176.319 177.225 176.421 177.263 176.549 177.284C176.687 177.295 176.863 177.3 177.077 177.3H177.701V178.5H176.661C176.309 178.5 176.005 178.479 175.749 178.436C175.503 178.383 175.301 178.292 175.141 178.164C174.991 178.036 174.879 177.855 174.805 177.62C174.73 177.385 174.693 177.076 174.693 176.692V171.428H173.285V170.228H174.693V167.748H176.053V170.228ZM184.956 173.572C184.934 173.252 184.86 172.948 184.732 172.66C184.614 172.372 184.449 172.127 184.236 171.924C184.033 171.711 183.788 171.545 183.5 171.428C183.222 171.3 182.913 171.236 182.572 171.236C182.22 171.236 181.9 171.3 181.612 171.428C181.334 171.545 181.094 171.711 180.892 171.924C180.689 172.137 180.529 172.388 180.412 172.676C180.294 172.953 180.225 173.252 180.204 173.572H184.956ZM186.267 175.876C186.086 176.804 185.686 177.503 185.068 177.972C184.449 178.441 183.67 178.676 182.732 178.676C182.07 178.676 181.494 178.569 181.004 178.356C180.524 178.143 180.118 177.844 179.788 177.46C179.457 177.076 179.206 176.617 179.036 176.084C178.876 175.551 178.785 174.969 178.764 174.34C178.764 173.711 178.86 173.135 179.052 172.612C179.244 172.089 179.51 171.636 179.852 171.252C180.204 170.868 180.614 170.569 181.084 170.356C181.564 170.143 182.086 170.036 182.652 170.036C183.388 170.036 183.996 170.191 184.476 170.5C184.966 170.799 185.356 171.183 185.644 171.652C185.942 172.121 186.145 172.633 186.252 173.188C186.369 173.743 186.417 174.271 186.396 174.772H180.204C180.193 175.135 180.236 175.481 180.332 175.812C180.428 176.132 180.582 176.42 180.796 176.676C181.009 176.921 181.281 177.119 181.612 177.268C181.942 177.417 182.332 177.492 182.78 177.492C183.356 177.492 183.825 177.359 184.188 177.092C184.561 176.825 184.806 176.42 184.924 175.876H186.267ZM188.797 174.436C188.797 174.82 188.845 175.199 188.941 175.572C189.048 175.935 189.203 176.26 189.405 176.548C189.619 176.836 189.885 177.065 190.205 177.236C190.536 177.407 190.92 177.492 191.357 177.492C191.816 177.492 192.205 177.401 192.525 177.22C192.845 177.039 193.107 176.804 193.309 176.516C193.512 176.217 193.656 175.881 193.741 175.508C193.837 175.135 193.885 174.756 193.885 174.372C193.885 173.967 193.837 173.577 193.741 173.204C193.645 172.82 193.491 172.484 193.277 172.196C193.075 171.908 192.808 171.679 192.477 171.508C192.147 171.327 191.747 171.236 191.277 171.236C190.819 171.236 190.429 171.327 190.109 171.508C189.789 171.689 189.533 171.929 189.341 172.228C189.149 172.527 189.011 172.868 188.925 173.252C188.84 173.636 188.797 174.031 188.797 174.436ZM195.197 178.5H193.837V177.38H193.805C193.581 177.839 193.229 178.169 192.749 178.372C192.269 178.575 191.741 178.676 191.165 178.676C190.525 178.676 189.965 178.559 189.485 178.324C189.016 178.089 188.621 177.775 188.301 177.38C187.992 176.985 187.757 176.527 187.597 176.004C187.437 175.481 187.357 174.927 187.357 174.34C187.357 173.753 187.432 173.199 187.581 172.676C187.741 172.153 187.976 171.7 188.285 171.316C188.605 170.921 189 170.612 189.469 170.388C189.949 170.153 190.504 170.036 191.133 170.036C191.347 170.036 191.576 170.057 191.821 170.1C192.067 170.143 192.312 170.217 192.557 170.324C192.803 170.42 193.032 170.553 193.245 170.724C193.469 170.884 193.656 171.087 193.805 171.332H193.837V167.076H195.197V178.5ZM201.823 167.076H203.183V178.5H201.823V167.076ZM211.034 173.572C211.012 173.252 210.938 172.948 210.81 172.66C210.692 172.372 210.527 172.127 210.314 171.924C210.111 171.711 209.866 171.545 209.578 171.428C209.3 171.3 208.991 171.236 208.65 171.236C208.298 171.236 207.978 171.3 207.69 171.428C207.412 171.545 207.172 171.711 206.97 171.924C206.767 172.137 206.607 172.388 206.49 172.676C206.372 172.953 206.303 173.252 206.282 173.572H211.034ZM212.346 175.876C212.164 176.804 211.764 177.503 211.146 177.972C210.527 178.441 209.748 178.676 208.81 178.676C208.148 178.676 207.572 178.569 207.082 178.356C206.602 178.143 206.196 177.844 205.866 177.46C205.535 177.076 205.284 176.617 205.114 176.084C204.954 175.551 204.863 174.969 204.842 174.34C204.842 173.711 204.938 173.135 205.13 172.612C205.322 172.089 205.588 171.636 205.93 171.252C206.282 170.868 206.692 170.569 207.162 170.356C207.642 170.143 208.164 170.036 208.73 170.036C209.466 170.036 210.074 170.191 210.554 170.5C211.044 170.799 211.434 171.183 211.722 171.652C212.02 172.121 212.223 172.633 212.33 173.188C212.447 173.743 212.495 174.271 212.474 174.772H206.282C206.271 175.135 206.314 175.481 206.41 175.812C206.506 176.132 206.66 176.42 206.874 176.676C207.087 176.921 207.359 177.119 207.69 177.268C208.02 177.417 208.41 177.492 208.858 177.492C209.434 177.492 209.903 177.359 210.266 177.092C210.639 176.825 210.884 176.42 211.002 175.876H212.346ZM217.611 178.5H216.155L213.083 170.228H214.603L216.923 177.124H216.955L219.211 170.228H220.635L217.611 178.5ZM227.627 173.572C227.606 173.252 227.531 172.948 227.403 172.66C227.286 172.372 227.121 172.127 226.907 171.924C226.705 171.711 226.459 171.545 226.171 171.428C225.894 171.3 225.585 171.236 225.243 171.236C224.891 171.236 224.571 171.3 224.283 171.428C224.006 171.545 223.766 171.711 223.563 171.924C223.361 172.137 223.201 172.388 223.083 172.676C222.966 172.953 222.897 173.252 222.875 173.572H227.627ZM228.939 175.876C228.758 176.804 228.358 177.503 227.739 177.972C227.121 178.441 226.342 178.676 225.403 178.676C224.742 178.676 224.166 178.569 223.675 178.356C223.195 178.143 222.79 177.844 222.459 177.46C222.129 177.076 221.878 176.617 221.707 176.084C221.547 175.551 221.457 174.969 221.435 174.34C221.435 173.711 221.531 173.135 221.723 172.612C221.915 172.089 222.182 171.636 222.523 171.252C222.875 170.868 223.286 170.569 223.755 170.356C224.235 170.143 224.758 170.036 225.323 170.036C226.059 170.036 226.667 170.191 227.147 170.5C227.638 170.799 228.027 171.183 228.315 171.652C228.614 172.121 228.817 172.633 228.923 173.188C229.041 173.743 229.089 174.271 229.067 174.772H222.875C222.865 175.135 222.907 175.481 223.003 175.812C223.099 176.132 223.254 176.42 223.467 176.676C223.681 176.921 223.953 177.119 224.283 177.268C224.614 177.417 225.003 177.492 225.451 177.492C226.027 177.492 226.497 177.359 226.859 177.092C227.233 176.825 227.478 176.42 227.595 175.876H228.939ZM230.557 167.076H231.917V178.5H230.557V167.076ZM236.104 172.004H234.328V170.228H236.104V172.004ZM234.328 176.724H236.104V178.5H234.328V176.724ZM244.018 172.916C244.018 173.343 244.029 173.823 244.05 174.356C244.082 174.879 244.168 175.375 244.306 175.844C244.456 176.303 244.69 176.692 245.01 177.012C245.33 177.332 245.778 177.492 246.354 177.492C246.93 177.492 247.378 177.332 247.698 177.012C248.018 176.692 248.248 176.303 248.386 175.844C248.536 175.375 248.621 174.879 248.642 174.356C248.674 173.823 248.69 173.343 248.69 172.916C248.69 172.639 248.685 172.335 248.674 172.004C248.674 171.663 248.648 171.327 248.594 170.996C248.552 170.655 248.482 170.324 248.386 170.004C248.301 169.684 248.168 169.407 247.986 169.172C247.816 168.927 247.597 168.729 247.33 168.58C247.064 168.431 246.738 168.356 246.354 168.356C245.97 168.356 245.645 168.431 245.378 168.58C245.112 168.729 244.888 168.927 244.706 169.172C244.536 169.407 244.402 169.684 244.306 170.004C244.221 170.324 244.152 170.655 244.098 170.996C244.056 171.327 244.029 171.663 244.018 172.004C244.018 172.335 244.018 172.639 244.018 172.916ZM242.578 172.932C242.578 172.516 242.589 172.084 242.61 171.636C242.632 171.188 242.685 170.751 242.77 170.324C242.856 169.897 242.978 169.492 243.138 169.108C243.298 168.724 243.517 168.388 243.794 168.1C244.072 167.812 244.418 167.583 244.834 167.412C245.261 167.241 245.768 167.156 246.354 167.156C246.941 167.156 247.442 167.241 247.858 167.412C248.285 167.583 248.637 167.812 248.914 168.1C249.192 168.388 249.41 168.724 249.57 169.108C249.73 169.492 249.853 169.897 249.938 170.324C250.024 170.751 250.077 171.188 250.098 171.636C250.12 172.084 250.13 172.516 250.13 172.932C250.13 173.348 250.12 173.78 250.098 174.228C250.077 174.676 250.024 175.113 249.938 175.54C249.853 175.967 249.73 176.372 249.57 176.756C249.41 177.129 249.192 177.46 248.914 177.748C248.637 178.036 248.29 178.265 247.874 178.436C247.458 178.596 246.952 178.676 246.354 178.676C245.768 178.676 245.261 178.596 244.834 178.436C244.418 178.265 244.072 178.036 243.794 177.748C243.517 177.46 243.298 177.129 243.138 176.756C242.978 176.372 242.856 175.967 242.77 175.54C242.685 175.113 242.632 174.676 242.61 174.228C242.589 173.78 242.578 173.348 242.578 172.932Z" fill="black" fill-opacity="0.68"/>
<path d="M290.16 171.672C290.128 171.096 290.187 170.563 290.336 170.072C290.486 169.581 290.715 169.16 291.024 168.808C291.344 168.445 291.739 168.163 292.208 167.96C292.678 167.757 293.211 167.656 293.808 167.656C294.299 167.656 294.758 167.731 295.184 167.88C295.622 168.019 296 168.227 296.32 168.504C296.64 168.771 296.891 169.107 297.072 169.512C297.264 169.917 297.36 170.387 297.36 170.92C297.36 171.421 297.28 171.864 297.12 172.248C296.971 172.632 296.768 172.979 296.512 173.288C296.256 173.587 295.963 173.859 295.632 174.104C295.302 174.349 294.96 174.584 294.608 174.808C294.256 175.021 293.904 175.235 293.552 175.448C293.2 175.651 292.875 175.869 292.576 176.104C292.288 176.339 292.038 176.595 291.824 176.872C291.622 177.139 291.488 177.448 291.424 177.8H297.248V179H289.84C289.894 178.328 290.011 177.757 290.192 177.288C290.384 176.808 290.624 176.392 290.912 176.04C291.2 175.688 291.526 175.379 291.888 175.112C292.251 174.845 292.63 174.595 293.024 174.36C293.504 174.061 293.926 173.789 294.288 173.544C294.651 173.288 294.95 173.032 295.184 172.776C295.43 172.52 295.611 172.243 295.728 171.944C295.856 171.645 295.92 171.299 295.92 170.904C295.92 170.595 295.862 170.317 295.744 170.072C295.627 169.816 295.467 169.597 295.264 169.416C295.072 169.235 294.843 169.096 294.576 169C294.31 168.904 294.027 168.856 293.728 168.856C293.334 168.856 292.992 168.941 292.704 169.112C292.427 169.272 292.198 169.485 292.016 169.752C291.835 170.019 291.702 170.323 291.616 170.664C291.542 170.995 291.51 171.331 291.52 171.672H290.16ZM299.875 177.224H301.651V179H299.875V177.224Z" fill="black"/>
<path d="M313.128 173.288C313.128 173.864 313.203 174.435 313.352 175C313.501 175.555 313.736 176.056 314.056 176.504C314.376 176.952 314.787 177.315 315.288 177.592C315.789 177.859 316.387 177.992 317.08 177.992C317.773 177.992 318.371 177.859 318.872 177.592C319.373 177.315 319.784 176.952 320.104 176.504C320.424 176.056 320.659 175.555 320.808 175C320.957 174.435 321.032 173.864 321.032 173.288C321.032 172.712 320.957 172.147 320.808 171.592C320.659 171.027 320.424 170.52 320.104 170.072C319.784 169.624 319.373 169.267 318.872 169C318.371 168.723 317.773 168.584 317.08 168.584C316.387 168.584 315.789 168.723 315.288 169C314.787 169.267 314.376 169.624 314.056 170.072C313.736 170.52 313.501 171.027 313.352 171.592C313.203 172.147 313.128 172.712 313.128 173.288ZM311.608 173.288C311.608 172.509 311.72 171.763 311.944 171.048C312.179 170.323 312.525 169.683 312.984 169.128C313.443 168.573 314.013 168.131 314.696 167.8C315.379 167.469 316.173 167.304 317.08 167.304C317.987 167.304 318.781 167.469 319.464 167.8C320.147 168.131 320.717 168.573 321.176 169.128C321.635 169.683 321.976 170.323 322.2 171.048C322.435 171.763 322.552 172.509 322.552 173.288C322.552 174.067 322.435 174.819 322.2 175.544C321.976 176.259 321.635 176.893 321.176 177.448C320.717 178.003 320.147 178.445 319.464 178.776C318.781 179.096 317.987 179.256 317.08 179.256C316.173 179.256 315.379 179.096 314.696 178.776C314.013 178.445 313.443 178.003 312.984 177.448C312.525 176.893 312.179 176.259 311.944 175.544C311.72 174.819 311.608 174.067 311.608 173.288ZM324.332 170.728H325.612V172.472H325.644C325.975 171.8 326.38 171.304 326.86 170.984C327.34 170.664 327.948 170.515 328.684 170.536V171.976C328.14 171.976 327.676 172.051 327.292 172.2C326.908 172.349 326.599 172.568 326.364 172.856C326.13 173.144 325.959 173.496 325.852 173.912C325.746 174.317 325.692 174.787 325.692 175.32V179H324.332V170.728ZM330.619 174.936C330.619 175.32 330.667 175.699 330.763 176.072C330.87 176.435 331.024 176.76 331.227 177.048C331.44 177.336 331.707 177.565 332.027 177.736C332.358 177.907 332.742 177.992 333.179 177.992C333.638 177.992 334.027 177.901 334.347 177.72C334.667 177.539 334.928 177.304 335.131 177.016C335.334 176.717 335.478 176.381 335.563 176.008C335.659 175.635 335.707 175.256 335.707 174.872C335.707 174.467 335.659 174.077 335.563 173.704C335.467 173.32 335.312 172.984 335.099 172.696C334.896 172.408 334.63 172.179 334.299 172.008C333.968 171.827 333.568 171.736 333.099 171.736C332.64 171.736 332.251 171.827 331.931 172.008C331.611 172.189 331.355 172.429 331.163 172.728C330.971 173.027 330.832 173.368 330.747 173.752C330.662 174.136 330.619 174.531 330.619 174.936ZM337.019 179H335.659V177.88H335.627C335.403 178.339 335.051 178.669 334.571 178.872C334.091 179.075 333.563 179.176 332.987 179.176C332.347 179.176 331.787 179.059 331.307 178.824C330.838 178.589 330.443 178.275 330.123 177.88C329.814 177.485 329.579 177.027 329.419 176.504C329.259 175.981 329.179 175.427 329.179 174.84C329.179 174.253 329.254 173.699 329.403 173.176C329.563 172.653 329.798 172.2 330.107 171.816C330.427 171.421 330.822 171.112 331.291 170.888C331.771 170.653 332.326 170.536 332.955 170.536C333.168 170.536 333.398 170.557 333.643 170.6C333.888 170.643 334.134 170.717 334.379 170.824C334.624 170.92 334.854 171.053 335.067 171.224C335.291 171.384 335.478 171.587 335.627 171.832H335.659V167.576H337.019V179ZM345.056 174.072C345.034 173.752 344.96 173.448 344.832 173.16C344.714 172.872 344.549 172.627 344.336 172.424C344.133 172.211 343.888 172.045 343.6 171.928C343.322 171.8 343.013 171.736 342.672 171.736C342.32 171.736 342 171.8 341.712 171.928C341.434 172.045 341.194 172.211 340.992 172.424C340.789 172.637 340.629 172.888 340.512 173.176C340.394 173.453 340.325 173.752 340.304 174.072H345.056ZM346.368 176.376C346.186 177.304 345.786 178.003 345.168 178.472C344.549 178.941 343.77 179.176 342.832 179.176C342.17 179.176 341.594 179.069 341.104 178.856C340.624 178.643 340.218 178.344 339.888 177.96C339.557 177.576 339.306 177.117 339.136 176.584C338.976 176.051 338.885 175.469 338.864 174.84C338.864 174.211 338.96 173.635 339.152 173.112C339.344 172.589 339.61 172.136 339.952 171.752C340.304 171.368 340.714 171.069 341.184 170.856C341.664 170.643 342.186 170.536 342.752 170.536C343.488 170.536 344.096 170.691 344.576 171C345.066 171.299 345.456 171.683 345.744 172.152C346.042 172.621 346.245 173.133 346.352 173.688C346.469 174.243 346.517 174.771 346.496 175.272H340.304C340.293 175.635 340.336 175.981 340.432 176.312C340.528 176.632 340.682 176.92 340.896 177.176C341.109 177.421 341.381 177.619 341.712 177.768C342.042 177.917 342.432 177.992 342.88 177.992C343.456 177.992 343.925 177.859 344.288 177.592C344.661 177.325 344.906 176.92 345.024 176.376H346.368ZM348.057 170.728H349.337V172.472H349.369C349.7 171.8 350.105 171.304 350.585 170.984C351.065 170.664 351.673 170.515 352.409 170.536V171.976C351.865 171.976 351.401 172.051 351.017 172.2C350.633 172.349 350.324 172.568 350.089 172.856C349.855 173.144 349.684 173.496 349.577 173.912C349.471 174.317 349.417 174.787 349.417 175.32V179H348.057V170.728ZM359.096 174.072C359.075 173.752 359 173.448 358.872 173.16C358.755 172.872 358.589 172.627 358.376 172.424C358.173 172.211 357.928 172.045 357.64 171.928C357.363 171.8 357.053 171.736 356.712 171.736C356.36 171.736 356.04 171.8 355.752 171.928C355.475 172.045 355.235 172.211 355.032 172.424C354.829 172.637 354.669 172.888 354.552 173.176C354.435 173.453 354.365 173.752 354.344 174.072H359.096ZM360.408 176.376C360.227 177.304 359.827 178.003 359.208 178.472C358.589 178.941 357.811 179.176 356.872 179.176C356.211 179.176 355.635 179.069 355.144 178.856C354.664 178.643 354.259 178.344 353.928 177.96C353.597 177.576 353.347 177.117 353.176 176.584C353.016 176.051 352.925 175.469 352.904 174.84C352.904 174.211 353 173.635 353.192 173.112C353.384 172.589 353.651 172.136 353.992 171.752C354.344 171.368 354.755 171.069 355.224 170.856C355.704 170.643 356.227 170.536 356.792 170.536C357.528 170.536 358.136 170.691 358.616 171C359.107 171.299 359.496 171.683 359.784 172.152C360.083 172.621 360.285 173.133 360.392 173.688C360.509 174.243 360.557 174.771 360.536 175.272H354.344C354.333 175.635 354.376 175.981 354.472 176.312C354.568 176.632 354.723 176.92 354.936 177.176C355.149 177.421 355.421 177.619 355.752 177.768C356.083 177.917 356.472 177.992 356.92 177.992C357.496 177.992 357.965 177.859 358.328 177.592C358.701 177.325 358.947 176.92 359.064 176.376H360.408ZM363.138 174.936C363.138 175.32 363.186 175.699 363.282 176.072C363.389 176.435 363.543 176.76 363.746 177.048C363.959 177.336 364.226 177.565 364.546 177.736C364.877 177.907 365.261 177.992 365.698 177.992C366.157 177.992 366.546 177.901 366.866 177.72C367.186 177.539 367.447 177.304 367.65 177.016C367.853 176.717 367.997 176.381 368.082 176.008C368.178 175.635 368.226 175.256 368.226 174.872C368.226 174.467 368.178 174.077 368.082 173.704C367.986 173.32 367.831 172.984 367.618 172.696C367.415 172.408 367.149 172.179 366.818 172.008C366.487 171.827 366.087 171.736 365.618 171.736C365.159 171.736 364.77 171.827 364.45 172.008C364.13 172.189 363.874 172.429 363.682 172.728C363.49 173.027 363.351 173.368 363.266 173.752C363.181 174.136 363.138 174.531 363.138 174.936ZM369.538 179H368.178V177.88H368.146C367.922 178.339 367.57 178.669 367.09 178.872C366.61 179.075 366.082 179.176 365.506 179.176C364.866 179.176 364.306 179.059 363.826 178.824C363.357 178.589 362.962 178.275 362.642 177.88C362.333 177.485 362.098 177.027 361.938 176.504C361.778 175.981 361.698 175.427 361.698 174.84C361.698 174.253 361.773 173.699 361.922 173.176C362.082 172.653 362.317 172.2 362.626 171.816C362.946 171.421 363.341 171.112 363.81 170.888C364.29 170.653 364.845 170.536 365.474 170.536C365.687 170.536 365.917 170.557 366.162 170.6C366.407 170.643 366.653 170.717 366.898 170.824C367.143 170.92 367.373 171.053 367.586 171.224C367.81 171.384 367.997 171.587 368.146 171.832H368.178V167.576H369.538V179ZM376.563 167.576H377.923V179H376.563V167.576ZM381.67 169.24H380.31V167.576H381.67V169.24ZM380.31 170.728H381.67V179H380.31V170.728ZM384.809 176.392C384.82 176.691 384.889 176.947 385.017 177.16C385.145 177.363 385.31 177.528 385.513 177.656C385.726 177.773 385.961 177.859 386.217 177.912C386.484 177.965 386.756 177.992 387.033 177.992C387.246 177.992 387.47 177.976 387.705 177.944C387.94 177.912 388.153 177.853 388.345 177.768C388.548 177.683 388.713 177.56 388.841 177.4C388.969 177.229 389.033 177.016 389.033 176.76C389.033 176.408 388.9 176.141 388.633 175.96C388.366 175.779 388.03 175.635 387.625 175.528C387.23 175.411 386.798 175.309 386.329 175.224C385.86 175.128 385.422 175 385.017 174.84C384.622 174.669 384.292 174.435 384.025 174.136C383.758 173.837 383.625 173.421 383.625 172.888C383.625 172.472 383.716 172.115 383.897 171.816C384.089 171.517 384.329 171.277 384.617 171.096C384.916 170.904 385.246 170.765 385.609 170.68C385.982 170.584 386.35 170.536 386.713 170.536C387.182 170.536 387.614 170.579 388.009 170.664C388.404 170.739 388.75 170.877 389.049 171.08C389.358 171.272 389.604 171.539 389.785 171.88C389.966 172.211 390.073 172.627 390.105 173.128H388.745C388.724 172.861 388.654 172.643 388.537 172.472C388.42 172.291 388.27 172.147 388.089 172.04C387.908 171.933 387.705 171.859 387.481 171.816C387.268 171.763 387.049 171.736 386.825 171.736C386.622 171.736 386.414 171.752 386.201 171.784C385.998 171.816 385.812 171.875 385.641 171.96C385.47 172.035 385.332 172.141 385.225 172.28C385.118 172.408 385.065 172.579 385.065 172.792C385.065 173.027 385.145 173.224 385.305 173.384C385.476 173.533 385.689 173.661 385.945 173.768C386.201 173.864 386.489 173.949 386.809 174.024C387.129 174.088 387.449 174.157 387.769 174.232C388.11 174.307 388.441 174.397 388.761 174.504C389.092 174.611 389.38 174.755 389.625 174.936C389.881 175.107 390.084 175.325 390.233 175.592C390.393 175.859 390.473 176.189 390.473 176.584C390.473 177.085 390.366 177.501 390.153 177.832C389.95 178.163 389.678 178.429 389.337 178.632C389.006 178.835 388.628 178.973 388.201 179.048C387.785 179.133 387.369 179.176 386.953 179.176C386.494 179.176 386.057 179.128 385.641 179.032C385.225 178.936 384.857 178.781 384.537 178.568C384.217 178.344 383.961 178.056 383.769 177.704C383.577 177.341 383.47 176.904 383.449 176.392H384.809ZM394.065 170.728H395.713V171.928H394.065V177.064C394.065 177.224 394.076 177.352 394.097 177.448C394.129 177.544 394.182 177.619 394.257 177.672C394.332 177.725 394.433 177.763 394.561 177.784C394.7 177.795 394.876 177.8 395.089 177.8H395.713V179H394.673C394.321 179 394.017 178.979 393.761 178.936C393.516 178.883 393.313 178.792 393.153 178.664C393.004 178.536 392.892 178.355 392.817 178.12C392.742 177.885 392.705 177.576 392.705 177.192V171.928H391.297V170.728H392.705V168.248H394.065V170.728Z" fill="black"/>
<defs>
<clipPath id="clip0_59015_86821">
<rect width="20" height="20" fill="white" transform="translate(315 91)"/>
</clipPath>
<clipPath id="clip1_59015_86821">
<rect width="20" height="20" fill="white" transform="translate(315 127)"/>
</clipPath>
</defs>
</svg>
