<svg width="600" height="184" viewBox="0 0 600 184" fill="none" xmlns="http://www.w3.org/2000/svg">
<rect width="600" height="184" fill="black" fill-opacity="0.04"/>
<path d="M146.232 32.076H147.848L153.864 41.34H153.896V32.076H155.336V43.5H153.672L147.704 34.332H147.672V43.5H146.232V32.076ZM163.315 38.572C163.294 38.252 163.219 37.948 163.091 37.66C162.974 37.372 162.808 37.1267 162.595 36.924C162.392 36.7107 162.147 36.5453 161.859 36.428C161.582 36.3 161.272 36.236 160.931 36.236C160.579 36.236 160.259 36.3 159.971 36.428C159.694 36.5453 159.454 36.7107 159.251 36.924C159.048 37.1373 158.888 37.388 158.771 37.676C158.654 37.9533 158.584 38.252 158.563 38.572H163.315ZM164.627 40.876C164.446 41.804 164.046 42.5027 163.427 42.972C162.808 43.4413 162.03 43.676 161.091 43.676C160.43 43.676 159.854 43.5693 159.363 43.356C158.883 43.1427 158.478 42.844 158.147 42.46C157.816 42.076 157.566 41.6173 157.395 41.084C157.235 40.5507 157.144 39.9693 157.123 39.34C157.123 38.7107 157.219 38.1347 157.411 37.612C157.603 37.0893 157.87 36.636 158.211 36.252C158.563 35.868 158.974 35.5693 159.443 35.356C159.923 35.1427 160.446 35.036 161.011 35.036C161.747 35.036 162.355 35.1907 162.835 35.5C163.326 35.7987 163.715 36.1827 164.003 36.652C164.302 37.1213 164.504 37.6333 164.611 38.188C164.728 38.7427 164.776 39.2707 164.755 39.772H158.563C158.552 40.1347 158.595 40.4813 158.691 40.812C158.787 41.132 158.942 41.42 159.155 41.676C159.368 41.9213 159.64 42.1187 159.971 42.268C160.302 42.4173 160.691 42.492 161.139 42.492C161.715 42.492 162.184 42.3587 162.547 42.092C162.92 41.8253 163.166 41.42 163.283 40.876H164.627ZM166.997 40.892C167.007 41.1907 167.077 41.4467 167.205 41.66C167.333 41.8627 167.498 42.028 167.701 42.156C167.914 42.2733 168.149 42.3587 168.405 42.412C168.671 42.4653 168.943 42.492 169.221 42.492C169.434 42.492 169.658 42.476 169.893 42.444C170.127 42.412 170.341 42.3533 170.533 42.268C170.735 42.1827 170.901 42.06 171.029 41.9C171.157 41.7293 171.221 41.516 171.221 41.26C171.221 40.908 171.087 40.6413 170.821 40.46C170.554 40.2787 170.218 40.1347 169.813 40.028C169.418 39.9107 168.986 39.8093 168.517 39.724C168.047 39.628 167.61 39.5 167.205 39.34C166.81 39.1693 166.479 38.9347 166.213 38.636C165.946 38.3373 165.813 37.9213 165.813 37.388C165.813 36.972 165.903 36.6147 166.085 36.316C166.277 36.0173 166.517 35.7773 166.805 35.596C167.103 35.404 167.434 35.2653 167.797 35.18C168.17 35.084 168.538 35.036 168.901 35.036C169.37 35.036 169.802 35.0787 170.197 35.164C170.591 35.2387 170.938 35.3773 171.237 35.58C171.546 35.772 171.791 36.0387 171.973 36.38C172.154 36.7107 172.261 37.1267 172.293 37.628H170.933C170.911 37.3613 170.842 37.1427 170.725 36.972C170.607 36.7907 170.458 36.6467 170.277 36.54C170.095 36.4333 169.893 36.3587 169.669 36.316C169.455 36.2627 169.237 36.236 169.013 36.236C168.81 36.236 168.602 36.252 168.389 36.284C168.186 36.316 167.999 36.3747 167.829 36.46C167.658 36.5347 167.519 36.6413 167.413 36.78C167.306 36.908 167.253 37.0787 167.253 37.292C167.253 37.5267 167.333 37.724 167.493 37.884C167.663 38.0333 167.877 38.1613 168.133 38.268C168.389 38.364 168.677 38.4493 168.997 38.524C169.317 38.588 169.637 38.6573 169.957 38.732C170.298 38.8067 170.629 38.8973 170.949 39.004C171.279 39.1107 171.567 39.2547 171.813 39.436C172.069 39.6067 172.271 39.8253 172.421 40.092C172.581 40.3587 172.661 40.6893 172.661 41.084C172.661 41.5853 172.554 42.0013 172.341 42.332C172.138 42.6627 171.866 42.9293 171.525 43.132C171.194 43.3347 170.815 43.4733 170.389 43.548C169.973 43.6333 169.557 43.676 169.141 43.676C168.682 43.676 168.245 43.628 167.829 43.532C167.413 43.436 167.045 43.2813 166.725 43.068C166.405 42.844 166.149 42.556 165.957 42.204C165.765 41.8413 165.658 41.404 165.637 40.892H166.997ZM176.053 35.228H177.701V36.428H176.053V41.564C176.053 41.724 176.063 41.852 176.085 41.948C176.117 42.044 176.17 42.1187 176.245 42.172C176.319 42.2253 176.421 42.2627 176.549 42.284C176.687 42.2947 176.863 42.3 177.077 42.3H177.701V43.5H176.661C176.309 43.5 176.005 43.4787 175.749 43.436C175.503 43.3827 175.301 43.292 175.141 43.164C174.991 43.036 174.879 42.8547 174.805 42.62C174.73 42.3853 174.693 42.076 174.693 41.692V36.428H173.285V35.228H174.693V32.748H176.053V35.228ZM184.956 38.572C184.934 38.252 184.86 37.948 184.732 37.66C184.614 37.372 184.449 37.1267 184.236 36.924C184.033 36.7107 183.788 36.5453 183.5 36.428C183.222 36.3 182.913 36.236 182.572 36.236C182.22 36.236 181.9 36.3 181.612 36.428C181.334 36.5453 181.094 36.7107 180.892 36.924C180.689 37.1373 180.529 37.388 180.412 37.676C180.294 37.9533 180.225 38.252 180.204 38.572H184.956ZM186.267 40.876C186.086 41.804 185.686 42.5027 185.068 42.972C184.449 43.4413 183.67 43.676 182.732 43.676C182.07 43.676 181.494 43.5693 181.004 43.356C180.524 43.1427 180.118 42.844 179.788 42.46C179.457 42.076 179.206 41.6173 179.036 41.084C178.876 40.5507 178.785 39.9693 178.764 39.34C178.764 38.7107 178.86 38.1347 179.052 37.612C179.244 37.0893 179.51 36.636 179.852 36.252C180.204 35.868 180.614 35.5693 181.084 35.356C181.564 35.1427 182.086 35.036 182.652 35.036C183.388 35.036 183.996 35.1907 184.476 35.5C184.966 35.7987 185.356 36.1827 185.644 36.652C185.942 37.1213 186.145 37.6333 186.252 38.188C186.369 38.7427 186.417 39.2707 186.396 39.772H180.204C180.193 40.1347 180.236 40.4813 180.332 40.812C180.428 41.132 180.582 41.42 180.796 41.676C181.009 41.9213 181.281 42.1187 181.612 42.268C181.942 42.4173 182.332 42.492 182.78 42.492C183.356 42.492 183.825 42.3587 184.188 42.092C184.561 41.8253 184.806 41.42 184.924 40.876H186.267ZM188.797 39.436C188.797 39.82 188.845 40.1987 188.941 40.572C189.048 40.9347 189.203 41.26 189.405 41.548C189.619 41.836 189.885 42.0653 190.205 42.236C190.536 42.4067 190.92 42.492 191.357 42.492C191.816 42.492 192.205 42.4013 192.525 42.22C192.845 42.0387 193.107 41.804 193.309 41.516C193.512 41.2173 193.656 40.8813 193.741 40.508C193.837 40.1347 193.885 39.756 193.885 39.372C193.885 38.9667 193.837 38.5773 193.741 38.204C193.645 37.82 193.491 37.484 193.277 37.196C193.075 36.908 192.808 36.6787 192.477 36.508C192.147 36.3267 191.747 36.236 191.277 36.236C190.819 36.236 190.429 36.3267 190.109 36.508C189.789 36.6893 189.533 36.9293 189.341 37.228C189.149 37.5267 189.011 37.868 188.925 38.252C188.84 38.636 188.797 39.0307 188.797 39.436ZM195.197 43.5H193.837V42.38H193.805C193.581 42.8387 193.229 43.1693 192.749 43.372C192.269 43.5747 191.741 43.676 191.165 43.676C190.525 43.676 189.965 43.5587 189.485 43.324C189.016 43.0893 188.621 42.7747 188.301 42.38C187.992 41.9853 187.757 41.5267 187.597 41.004C187.437 40.4813 187.357 39.9267 187.357 39.34C187.357 38.7533 187.432 38.1987 187.581 37.676C187.741 37.1533 187.976 36.7 188.285 36.316C188.605 35.9213 189 35.612 189.469 35.388C189.949 35.1533 190.504 35.036 191.133 35.036C191.347 35.036 191.576 35.0573 191.821 35.1C192.067 35.1427 192.312 35.2173 192.557 35.324C192.803 35.42 193.032 35.5533 193.245 35.724C193.469 35.884 193.656 36.0867 193.805 36.332H193.837V32.076H195.197V43.5ZM201.823 32.076H203.183V43.5H201.823V32.076ZM211.034 38.572C211.012 38.252 210.938 37.948 210.81 37.66C210.692 37.372 210.527 37.1267 210.314 36.924C210.111 36.7107 209.866 36.5453 209.578 36.428C209.3 36.3 208.991 36.236 208.65 36.236C208.298 36.236 207.978 36.3 207.69 36.428C207.412 36.5453 207.172 36.7107 206.97 36.924C206.767 37.1373 206.607 37.388 206.49 37.676C206.372 37.9533 206.303 38.252 206.282 38.572H211.034ZM212.346 40.876C212.164 41.804 211.764 42.5027 211.146 42.972C210.527 43.4413 209.748 43.676 208.81 43.676C208.148 43.676 207.572 43.5693 207.082 43.356C206.602 43.1427 206.196 42.844 205.866 42.46C205.535 42.076 205.284 41.6173 205.114 41.084C204.954 40.5507 204.863 39.9693 204.842 39.34C204.842 38.7107 204.938 38.1347 205.13 37.612C205.322 37.0893 205.588 36.636 205.93 36.252C206.282 35.868 206.692 35.5693 207.162 35.356C207.642 35.1427 208.164 35.036 208.73 35.036C209.466 35.036 210.074 35.1907 210.554 35.5C211.044 35.7987 211.434 36.1827 211.722 36.652C212.02 37.1213 212.223 37.6333 212.33 38.188C212.447 38.7427 212.495 39.2707 212.474 39.772H206.282C206.271 40.1347 206.314 40.4813 206.41 40.812C206.506 41.132 206.66 41.42 206.874 41.676C207.087 41.9213 207.359 42.1187 207.69 42.268C208.02 42.4173 208.41 42.492 208.858 42.492C209.434 42.492 209.903 42.3587 210.266 42.092C210.639 41.8253 210.884 41.42 211.002 40.876H212.346ZM217.611 43.5H216.155L213.083 35.228H214.603L216.923 42.124H216.955L219.211 35.228H220.635L217.611 43.5ZM227.627 38.572C227.606 38.252 227.531 37.948 227.403 37.66C227.286 37.372 227.121 37.1267 226.907 36.924C226.705 36.7107 226.459 36.5453 226.171 36.428C225.894 36.3 225.585 36.236 225.243 36.236C224.891 36.236 224.571 36.3 224.283 36.428C224.006 36.5453 223.766 36.7107 223.563 36.924C223.361 37.1373 223.201 37.388 223.083 37.676C222.966 37.9533 222.897 38.252 222.875 38.572H227.627ZM228.939 40.876C228.758 41.804 228.358 42.5027 227.739 42.972C227.121 43.4413 226.342 43.676 225.403 43.676C224.742 43.676 224.166 43.5693 223.675 43.356C223.195 43.1427 222.79 42.844 222.459 42.46C222.129 42.076 221.878 41.6173 221.707 41.084C221.547 40.5507 221.457 39.9693 221.435 39.34C221.435 38.7107 221.531 38.1347 221.723 37.612C221.915 37.0893 222.182 36.636 222.523 36.252C222.875 35.868 223.286 35.5693 223.755 35.356C224.235 35.1427 224.758 35.036 225.323 35.036C226.059 35.036 226.667 35.1907 227.147 35.5C227.638 35.7987 228.027 36.1827 228.315 36.652C228.614 37.1213 228.817 37.6333 228.923 38.188C229.041 38.7427 229.089 39.2707 229.067 39.772H222.875C222.865 40.1347 222.907 40.4813 223.003 40.812C223.099 41.132 223.254 41.42 223.467 41.676C223.681 41.9213 223.953 42.1187 224.283 42.268C224.614 42.4173 225.003 42.492 225.451 42.492C226.027 42.492 226.497 42.3587 226.859 42.092C227.233 41.8253 227.478 41.42 227.595 40.876H228.939ZM230.557 32.076H231.917V43.5H230.557V32.076ZM236.104 37.004H234.328V35.228H236.104V37.004ZM234.328 41.724H236.104V43.5H234.328V41.724ZM244.018 37.916C244.018 38.3427 244.029 38.8227 244.05 39.356C244.082 39.8787 244.168 40.3747 244.306 40.844C244.456 41.3027 244.69 41.692 245.01 42.012C245.33 42.332 245.778 42.492 246.354 42.492C246.93 42.492 247.378 42.332 247.698 42.012C248.018 41.692 248.248 41.3027 248.386 40.844C248.536 40.3747 248.621 39.8787 248.642 39.356C248.674 38.8227 248.69 38.3427 248.69 37.916C248.69 37.6387 248.685 37.3347 248.674 37.004C248.674 36.6627 248.648 36.3267 248.594 35.996C248.552 35.6547 248.482 35.324 248.386 35.004C248.301 34.684 248.168 34.4067 247.986 34.172C247.816 33.9267 247.597 33.7293 247.33 33.58C247.064 33.4307 246.738 33.356 246.354 33.356C245.97 33.356 245.645 33.4307 245.378 33.58C245.112 33.7293 244.888 33.9267 244.706 34.172C244.536 34.4067 244.402 34.684 244.306 35.004C244.221 35.324 244.152 35.6547 244.098 35.996C244.056 36.3267 244.029 36.6627 244.018 37.004C244.018 37.3347 244.018 37.6387 244.018 37.916ZM242.578 37.932C242.578 37.516 242.589 37.084 242.61 36.636C242.632 36.188 242.685 35.7507 242.77 35.324C242.856 34.8973 242.978 34.492 243.138 34.108C243.298 33.724 243.517 33.388 243.794 33.1C244.072 32.812 244.418 32.5827 244.834 32.412C245.261 32.2413 245.768 32.156 246.354 32.156C246.941 32.156 247.442 32.2413 247.858 32.412C248.285 32.5827 248.637 32.812 248.914 33.1C249.192 33.388 249.41 33.724 249.57 34.108C249.73 34.492 249.853 34.8973 249.938 35.324C250.024 35.7507 250.077 36.188 250.098 36.636C250.12 37.084 250.13 37.516 250.13 37.932C250.13 38.348 250.12 38.78 250.098 39.228C250.077 39.676 250.024 40.1133 249.938 40.54C249.853 40.9667 249.73 41.372 249.57 41.756C249.41 42.1293 249.192 42.46 248.914 42.748C248.637 43.036 248.29 43.2653 247.874 43.436C247.458 43.596 246.952 43.676 246.354 43.676C245.768 43.676 245.261 43.596 244.834 43.436C244.418 43.2653 244.072 43.036 243.794 42.748C243.517 42.46 243.298 42.1293 243.138 41.756C242.978 41.372 242.856 40.9667 242.77 40.54C242.685 40.1133 242.632 39.676 242.61 39.228C242.589 38.78 242.578 38.348 242.578 37.932Z" fill="black" fill-opacity="0.68"/>
<g clip-path="url(#clip0_66785_16266)">
<path fill-rule="evenodd" clip-rule="evenodd" d="M299.615 34.3083L292.028 43.0583C291.811 43.3085 291.477 43.4688 291.103 43.4688C290.728 43.4688 290.395 43.3084 290.177 43.0582L286.384 38.6833C286.222 38.496 286.124 38.2585 286.124 38C286.124 37.698 286.257 37.4246 286.472 37.2266L286.946 36.7891C287.16 36.5912 287.457 36.4688 287.784 36.4688C288.078 36.4688 288.348 36.5681 288.555 36.7323L290.866 39.0938L297.878 32.8271C298.09 32.6436 298.375 32.5312 298.689 32.5312C299.344 32.5312 299.874 33.0209 299.874 33.625C299.874 33.8835 299.777 34.121 299.615 34.3083Z" fill="black"/>
</g>
<path d="M321.368 39.872C321.368 41.3333 320.979 42.432 320.2 43.168C319.421 43.8933 318.312 44.256 316.872 44.256C315.4 44.256 314.248 43.9093 313.416 43.216C312.595 42.512 312.184 41.3973 312.184 39.872V32.576H313.704V39.872C313.704 40.896 313.976 41.6747 314.52 42.208C315.064 42.7307 315.848 42.992 316.872 42.992C317.843 42.992 318.579 42.7307 319.08 42.208C319.592 41.6747 319.848 40.896 319.848 39.872V32.576H321.368V39.872ZM323.771 35.728H325.051V37.04H325.083C325.648 36.0373 326.544 35.536 327.771 35.536C328.315 35.536 328.768 35.6107 329.131 35.76C329.494 35.9093 329.787 36.1173 330.011 36.384C330.235 36.6507 330.39 36.9707 330.475 37.344C330.571 37.7067 330.619 38.112 330.619 38.56V44H329.259V38.4C329.259 37.888 329.11 37.4827 328.811 37.184C328.512 36.8853 328.102 36.736 327.579 36.736C327.163 36.736 326.8 36.8 326.491 36.928C326.192 37.056 325.942 37.2373 325.739 37.472C325.536 37.7067 325.382 37.984 325.275 38.304C325.179 38.6133 325.131 38.9547 325.131 39.328V44H323.771V35.728ZM333.853 39.872C333.853 40.3733 333.917 40.8213 334.045 41.216C334.184 41.6 334.371 41.9253 334.605 42.192C334.84 42.448 335.112 42.6453 335.421 42.784C335.741 42.9227 336.077 42.992 336.429 42.992C336.781 42.992 337.112 42.9227 337.421 42.784C337.741 42.6453 338.019 42.448 338.253 42.192C338.488 41.9253 338.669 41.6 338.798 41.216C338.936 40.8213 339.005 40.3733 339.005 39.872C339.005 39.3707 338.936 38.928 338.798 38.544C338.669 38.1493 338.488 37.8187 338.253 37.552C338.019 37.2853 337.741 37.0827 337.421 36.944C337.112 36.8053 336.781 36.736 336.429 36.736C336.077 36.736 335.741 36.8053 335.421 36.944C335.112 37.0827 334.84 37.2853 334.605 37.552C334.371 37.8187 334.184 38.1493 334.045 38.544C333.917 38.928 333.853 39.3707 333.853 39.872ZM332.413 39.872C332.413 39.264 332.499 38.6987 332.669 38.176C332.84 37.6427 333.096 37.184 333.437 36.8C333.779 36.4053 334.2 36.096 334.701 35.872C335.203 35.648 335.779 35.536 336.429 35.536C337.091 35.536 337.667 35.648 338.157 35.872C338.659 36.096 339.08 36.4053 339.422 36.8C339.763 37.184 340.019 37.6427 340.189 38.176C340.36 38.6987 340.446 39.264 340.446 39.872C340.446 40.48 340.36 41.0453 340.189 41.568C340.019 42.0907 339.763 42.5493 339.422 42.944C339.08 43.328 338.659 43.632 338.157 43.856C337.667 44.0693 337.091 44.176 336.429 44.176C335.779 44.176 335.203 44.0693 334.701 43.856C334.2 43.632 333.779 43.328 333.437 42.944C333.096 42.5493 332.84 42.0907 332.669 41.568C332.499 41.0453 332.413 40.48 332.413 39.872ZM342.201 35.728H343.481V37.472H343.513C343.844 36.8 344.249 36.304 344.729 35.984C345.209 35.664 345.817 35.5147 346.553 35.536V36.976C346.009 36.976 345.545 37.0507 345.161 37.2C344.777 37.3493 344.468 37.568 344.233 37.856C343.998 38.144 343.828 38.496 343.721 38.912C343.614 39.3173 343.561 39.7867 343.561 40.32V44H342.201V35.728ZM348.488 39.936C348.488 40.32 348.536 40.6987 348.632 41.072C348.739 41.4347 348.893 41.76 349.096 42.048C349.309 42.336 349.576 42.5653 349.896 42.736C350.227 42.9067 350.611 42.992 351.048 42.992C351.507 42.992 351.896 42.9013 352.216 42.72C352.536 42.5387 352.797 42.304 353 42.016C353.203 41.7173 353.347 41.3813 353.432 41.008C353.528 40.6347 353.576 40.256 353.576 39.872C353.576 39.4667 353.528 39.0773 353.432 38.704C353.336 38.32 353.181 37.984 352.968 37.696C352.765 37.408 352.499 37.1787 352.168 37.008C351.837 36.8267 351.437 36.736 350.968 36.736C350.509 36.736 350.12 36.8267 349.8 37.008C349.48 37.1893 349.224 37.4293 349.032 37.728C348.84 38.0267 348.701 38.368 348.616 38.752C348.531 39.136 348.488 39.5307 348.488 39.936ZM354.888 44H353.528V42.88H353.496C353.272 43.3387 352.92 43.6693 352.44 43.872C351.96 44.0747 351.432 44.176 350.856 44.176C350.216 44.176 349.656 44.0587 349.176 43.824C348.707 43.5893 348.312 43.2747 347.992 42.88C347.683 42.4853 347.448 42.0267 347.288 41.504C347.128 40.9813 347.048 40.4267 347.048 39.84C347.048 39.2533 347.123 38.6987 347.272 38.176C347.432 37.6533 347.667 37.2 347.976 36.816C348.296 36.4213 348.691 36.112 349.16 35.888C349.64 35.6533 350.195 35.536 350.824 35.536C351.037 35.536 351.267 35.5573 351.512 35.6C351.757 35.6427 352.003 35.7173 352.248 35.824C352.493 35.92 352.723 36.0533 352.936 36.224C353.16 36.384 353.347 36.5867 353.496 36.832H353.528V32.576H354.888V44ZM362.924 39.072C362.903 38.752 362.828 38.448 362.7 38.16C362.583 37.872 362.418 37.6267 362.204 37.424C362.002 37.2107 361.756 37.0453 361.468 36.928C361.191 36.8 360.882 36.736 360.54 36.736C360.188 36.736 359.868 36.8 359.58 36.928C359.303 37.0453 359.063 37.2107 358.86 37.424C358.658 37.6373 358.498 37.888 358.38 38.176C358.263 38.4533 358.194 38.752 358.172 39.072H362.924ZM364.236 41.376C364.055 42.304 363.655 43.0027 363.036 43.472C362.418 43.9413 361.639 44.176 360.7 44.176C360.039 44.176 359.463 44.0693 358.972 43.856C358.492 43.6427 358.087 43.344 357.756 42.96C357.426 42.576 357.175 42.1173 357.004 41.584C356.844 41.0507 356.754 40.4693 356.732 39.84C356.732 39.2107 356.828 38.6347 357.02 38.112C357.212 37.5893 357.479 37.136 357.82 36.752C358.172 36.368 358.583 36.0693 359.052 35.856C359.532 35.6427 360.055 35.536 360.62 35.536C361.356 35.536 361.964 35.6907 362.444 36C362.935 36.2987 363.324 36.6827 363.612 37.152C363.911 37.6213 364.114 38.1333 364.22 38.688C364.338 39.2427 364.386 39.7707 364.364 40.272H358.172C358.162 40.6347 358.204 40.9813 358.3 41.312C358.396 41.632 358.551 41.92 358.764 42.176C358.978 42.4213 359.25 42.6187 359.58 42.768C359.911 42.9173 360.3 42.992 360.748 42.992C361.324 42.992 361.794 42.8587 362.156 42.592C362.53 42.3253 362.775 41.92 362.892 41.376H364.236ZM365.926 35.728H367.206V37.472H367.238C367.569 36.8 367.974 36.304 368.454 35.984C368.934 35.664 369.542 35.5147 370.278 35.536V36.976C369.734 36.976 369.27 37.0507 368.886 37.2C368.502 37.3493 368.193 37.568 367.958 37.856C367.723 38.144 367.553 38.496 367.446 38.912C367.339 39.3173 367.286 39.7867 367.286 40.32V44H365.926V35.728ZM376.965 39.072C376.944 38.752 376.869 38.448 376.741 38.16C376.624 37.872 376.458 37.6267 376.245 37.424C376.042 37.2107 375.797 37.0453 375.509 36.928C375.232 36.8 374.922 36.736 374.581 36.736C374.229 36.736 373.909 36.8 373.621 36.928C373.344 37.0453 373.104 37.2107 372.901 37.424C372.698 37.6373 372.538 37.888 372.421 38.176C372.304 38.4533 372.234 38.752 372.213 39.072H376.965ZM378.277 41.376C378.096 42.304 377.696 43.0027 377.077 43.472C376.458 43.9413 375.68 44.176 374.741 44.176C374.08 44.176 373.504 44.0693 373.013 43.856C372.533 43.6427 372.128 43.344 371.797 42.96C371.466 42.576 371.216 42.1173 371.045 41.584C370.885 41.0507 370.794 40.4693 370.773 39.84C370.773 39.2107 370.869 38.6347 371.061 38.112C371.253 37.5893 371.52 37.136 371.861 36.752C372.213 36.368 372.624 36.0693 373.093 35.856C373.573 35.6427 374.096 35.536 374.661 35.536C375.397 35.536 376.005 35.6907 376.485 36C376.976 36.2987 377.365 36.6827 377.653 37.152C377.952 37.6213 378.154 38.1333 378.261 38.688C378.378 39.2427 378.426 39.7707 378.405 40.272H372.213C372.202 40.6347 372.245 40.9813 372.341 41.312C372.437 41.632 372.592 41.92 372.805 42.176C373.018 42.4213 373.29 42.6187 373.621 42.768C373.952 42.9173 374.341 42.992 374.789 42.992C375.365 42.992 375.834 42.8587 376.197 42.592C376.57 42.3253 376.816 41.92 376.933 41.376H378.277ZM381.007 39.936C381.007 40.32 381.055 40.6987 381.151 41.072C381.257 41.4347 381.412 41.76 381.615 42.048C381.828 42.336 382.095 42.5653 382.415 42.736C382.745 42.9067 383.129 42.992 383.567 42.992C384.025 42.992 384.415 42.9013 384.735 42.72C385.055 42.5387 385.316 42.304 385.519 42.016C385.721 41.7173 385.865 41.3813 385.951 41.008C386.047 40.6347 386.095 40.256 386.095 39.872C386.095 39.4667 386.047 39.0773 385.951 38.704C385.855 38.32 385.7 37.984 385.487 37.696C385.284 37.408 385.017 37.1787 384.687 37.008C384.356 36.8267 383.956 36.736 383.487 36.736C383.028 36.736 382.639 36.8267 382.319 37.008C381.999 37.1893 381.743 37.4293 381.551 37.728C381.359 38.0267 381.22 38.368 381.135 38.752C381.049 39.136 381.007 39.5307 381.007 39.936ZM387.407 44H386.047V42.88H386.015C385.791 43.3387 385.439 43.6693 384.959 43.872C384.479 44.0747 383.951 44.176 383.375 44.176C382.735 44.176 382.175 44.0587 381.695 43.824C381.225 43.5893 380.831 43.2747 380.511 42.88C380.201 42.4853 379.967 42.0267 379.807 41.504C379.647 40.9813 379.567 40.4267 379.567 39.84C379.567 39.2533 379.641 38.6987 379.791 38.176C379.951 37.6533 380.185 37.2 380.495 36.816C380.815 36.4213 381.209 36.112 381.679 35.888C382.159 35.6533 382.713 35.536 383.343 35.536C383.556 35.536 383.785 35.5573 384.031 35.6C384.276 35.6427 384.521 35.7173 384.767 35.824C385.012 35.92 385.241 36.0533 385.455 36.224C385.679 36.384 385.865 36.5867 386.015 36.832H386.047V32.576H387.407V44ZM394.432 32.576H395.792V44H394.432V32.576ZM399.539 34.24H398.179V32.576H399.539V34.24ZM398.179 35.728H399.539V44H398.179V35.728ZM402.678 41.392C402.689 41.6907 402.758 41.9467 402.886 42.16C403.014 42.3627 403.179 42.528 403.382 42.656C403.595 42.7733 403.83 42.8587 404.086 42.912C404.353 42.9653 404.625 42.992 404.902 42.992C405.115 42.992 405.339 42.976 405.574 42.944C405.809 42.912 406.022 42.8533 406.214 42.768C406.417 42.6827 406.582 42.56 406.71 42.4C406.838 42.2293 406.902 42.016 406.902 41.76C406.902 41.408 406.769 41.1413 406.502 40.96C406.235 40.7787 405.899 40.6347 405.494 40.528C405.099 40.4107 404.667 40.3093 404.198 40.224C403.729 40.128 403.291 40 402.886 39.84C402.491 39.6693 402.161 39.4347 401.894 39.136C401.627 38.8373 401.494 38.4213 401.494 37.888C401.494 37.472 401.585 37.1147 401.766 36.816C401.958 36.5173 402.198 36.2773 402.486 36.096C402.785 35.904 403.115 35.7653 403.478 35.68C403.851 35.584 404.219 35.536 404.582 35.536C405.051 35.536 405.483 35.5787 405.878 35.664C406.273 35.7387 406.619 35.8773 406.918 36.08C407.227 36.272 407.473 36.5387 407.654 36.88C407.835 37.2107 407.942 37.6267 407.974 38.128H406.614C406.593 37.8613 406.523 37.6427 406.406 37.472C406.289 37.2907 406.139 37.1467 405.958 37.04C405.777 36.9333 405.574 36.8587 405.35 36.816C405.137 36.7627 404.918 36.736 404.694 36.736C404.491 36.736 404.283 36.752 404.07 36.784C403.867 36.816 403.681 36.8747 403.51 36.96C403.339 37.0347 403.201 37.1413 403.094 37.28C402.987 37.408 402.934 37.5787 402.934 37.792C402.934 38.0267 403.014 38.224 403.174 38.384C403.345 38.5333 403.558 38.6613 403.814 38.768C404.07 38.864 404.358 38.9493 404.678 39.024C404.998 39.088 405.318 39.1573 405.638 39.232C405.979 39.3067 406.31 39.3973 406.63 39.504C406.961 39.6107 407.249 39.7547 407.494 39.936C407.75 40.1067 407.953 40.3253 408.102 40.592C408.262 40.8587 408.342 41.1893 408.342 41.584C408.342 42.0853 408.235 42.5013 408.022 42.832C407.819 43.1627 407.547 43.4293 407.206 43.632C406.875 43.8347 406.497 43.9733 406.07 44.048C405.654 44.1333 405.238 44.176 404.822 44.176C404.363 44.176 403.926 44.128 403.51 44.032C403.094 43.936 402.726 43.7813 402.406 43.568C402.086 43.344 401.83 43.056 401.638 42.704C401.446 42.3413 401.339 41.904 401.318 41.392H402.678ZM411.934 35.728H413.582V36.928H411.934V42.064C411.934 42.224 411.945 42.352 411.966 42.448C411.998 42.544 412.051 42.6187 412.126 42.672C412.201 42.7253 412.302 42.7627 412.43 42.784C412.569 42.7947 412.745 42.8 412.958 42.8H413.582V44H412.542C412.19 44 411.886 43.9787 411.63 43.936C411.385 43.8827 411.182 43.792 411.022 43.664C410.873 43.536 410.761 43.3547 410.686 43.12C410.611 42.8853 410.574 42.576 410.574 42.192V36.928H409.166V35.728H410.574V33.248H411.934V35.728Z" fill="black"/>
<path d="M146.232 68.076H147.848L153.864 77.34H153.896V68.076H155.336V79.5H153.672L147.704 70.332H147.672V79.5H146.232V68.076ZM163.315 74.572C163.294 74.252 163.219 73.948 163.091 73.66C162.974 73.372 162.808 73.1267 162.595 72.924C162.392 72.7107 162.147 72.5453 161.859 72.428C161.582 72.3 161.272 72.236 160.931 72.236C160.579 72.236 160.259 72.3 159.971 72.428C159.694 72.5453 159.454 72.7107 159.251 72.924C159.048 73.1373 158.888 73.388 158.771 73.676C158.654 73.9533 158.584 74.252 158.563 74.572H163.315ZM164.627 76.876C164.446 77.804 164.046 78.5027 163.427 78.972C162.808 79.4413 162.03 79.676 161.091 79.676C160.43 79.676 159.854 79.5693 159.363 79.356C158.883 79.1427 158.478 78.844 158.147 78.46C157.816 78.076 157.566 77.6173 157.395 77.084C157.235 76.5507 157.144 75.9693 157.123 75.34C157.123 74.7107 157.219 74.1347 157.411 73.612C157.603 73.0893 157.87 72.636 158.211 72.252C158.563 71.868 158.974 71.5693 159.443 71.356C159.923 71.1427 160.446 71.036 161.011 71.036C161.747 71.036 162.355 71.1907 162.835 71.5C163.326 71.7987 163.715 72.1827 164.003 72.652C164.302 73.1213 164.504 73.6333 164.611 74.188C164.728 74.7427 164.776 75.2707 164.755 75.772H158.563C158.552 76.1347 158.595 76.4813 158.691 76.812C158.787 77.132 158.942 77.42 159.155 77.676C159.368 77.9213 159.64 78.1187 159.971 78.268C160.302 78.4173 160.691 78.492 161.139 78.492C161.715 78.492 162.184 78.3587 162.547 78.092C162.92 77.8253 163.166 77.42 163.283 76.876H164.627ZM166.997 76.892C167.007 77.1907 167.077 77.4467 167.205 77.66C167.333 77.8627 167.498 78.028 167.701 78.156C167.914 78.2733 168.149 78.3587 168.405 78.412C168.671 78.4653 168.943 78.492 169.221 78.492C169.434 78.492 169.658 78.476 169.893 78.444C170.127 78.412 170.341 78.3533 170.533 78.268C170.735 78.1827 170.901 78.06 171.029 77.9C171.157 77.7293 171.221 77.516 171.221 77.26C171.221 76.908 171.087 76.6413 170.821 76.46C170.554 76.2787 170.218 76.1347 169.813 76.028C169.418 75.9107 168.986 75.8093 168.517 75.724C168.047 75.628 167.61 75.5 167.205 75.34C166.81 75.1693 166.479 74.9347 166.213 74.636C165.946 74.3373 165.813 73.9213 165.813 73.388C165.813 72.972 165.903 72.6147 166.085 72.316C166.277 72.0173 166.517 71.7773 166.805 71.596C167.103 71.404 167.434 71.2653 167.797 71.18C168.17 71.084 168.538 71.036 168.901 71.036C169.37 71.036 169.802 71.0787 170.197 71.164C170.591 71.2387 170.938 71.3773 171.237 71.58C171.546 71.772 171.791 72.0387 171.973 72.38C172.154 72.7107 172.261 73.1267 172.293 73.628H170.933C170.911 73.3613 170.842 73.1427 170.725 72.972C170.607 72.7907 170.458 72.6467 170.277 72.54C170.095 72.4333 169.893 72.3587 169.669 72.316C169.455 72.2627 169.237 72.236 169.013 72.236C168.81 72.236 168.602 72.252 168.389 72.284C168.186 72.316 167.999 72.3747 167.829 72.46C167.658 72.5347 167.519 72.6413 167.413 72.78C167.306 72.908 167.253 73.0787 167.253 73.292C167.253 73.5267 167.333 73.724 167.493 73.884C167.663 74.0333 167.877 74.1613 168.133 74.268C168.389 74.364 168.677 74.4493 168.997 74.524C169.317 74.588 169.637 74.6573 169.957 74.732C170.298 74.8067 170.629 74.8973 170.949 75.004C171.279 75.1107 171.567 75.2547 171.813 75.436C172.069 75.6067 172.271 75.8253 172.421 76.092C172.581 76.3587 172.661 76.6893 172.661 77.084C172.661 77.5853 172.554 78.0013 172.341 78.332C172.138 78.6627 171.866 78.9293 171.525 79.132C171.194 79.3347 170.815 79.4733 170.389 79.548C169.973 79.6333 169.557 79.676 169.141 79.676C168.682 79.676 168.245 79.628 167.829 79.532C167.413 79.436 167.045 79.2813 166.725 79.068C166.405 78.844 166.149 78.556 165.957 78.204C165.765 77.8413 165.658 77.404 165.637 76.892H166.997ZM176.053 71.228H177.701V72.428H176.053V77.564C176.053 77.724 176.063 77.852 176.085 77.948C176.117 78.044 176.17 78.1187 176.245 78.172C176.319 78.2253 176.421 78.2627 176.549 78.284C176.687 78.2947 176.863 78.3 177.077 78.3H177.701V79.5H176.661C176.309 79.5 176.005 79.4787 175.749 79.436C175.503 79.3827 175.301 79.292 175.141 79.164C174.991 79.036 174.879 78.8547 174.805 78.62C174.73 78.3853 174.693 78.076 174.693 77.692V72.428H173.285V71.228H174.693V68.748H176.053V71.228ZM184.956 74.572C184.934 74.252 184.86 73.948 184.732 73.66C184.614 73.372 184.449 73.1267 184.236 72.924C184.033 72.7107 183.788 72.5453 183.5 72.428C183.222 72.3 182.913 72.236 182.572 72.236C182.22 72.236 181.9 72.3 181.612 72.428C181.334 72.5453 181.094 72.7107 180.892 72.924C180.689 73.1373 180.529 73.388 180.412 73.676C180.294 73.9533 180.225 74.252 180.204 74.572H184.956ZM186.267 76.876C186.086 77.804 185.686 78.5027 185.068 78.972C184.449 79.4413 183.67 79.676 182.732 79.676C182.07 79.676 181.494 79.5693 181.004 79.356C180.524 79.1427 180.118 78.844 179.788 78.46C179.457 78.076 179.206 77.6173 179.036 77.084C178.876 76.5507 178.785 75.9693 178.764 75.34C178.764 74.7107 178.86 74.1347 179.052 73.612C179.244 73.0893 179.51 72.636 179.852 72.252C180.204 71.868 180.614 71.5693 181.084 71.356C181.564 71.1427 182.086 71.036 182.652 71.036C183.388 71.036 183.996 71.1907 184.476 71.5C184.966 71.7987 185.356 72.1827 185.644 72.652C185.942 73.1213 186.145 73.6333 186.252 74.188C186.369 74.7427 186.417 75.2707 186.396 75.772H180.204C180.193 76.1347 180.236 76.4813 180.332 76.812C180.428 77.132 180.582 77.42 180.796 77.676C181.009 77.9213 181.281 78.1187 181.612 78.268C181.942 78.4173 182.332 78.492 182.78 78.492C183.356 78.492 183.825 78.3587 184.188 78.092C184.561 77.8253 184.806 77.42 184.924 76.876H186.267ZM188.797 75.436C188.797 75.82 188.845 76.1987 188.941 76.572C189.048 76.9347 189.203 77.26 189.405 77.548C189.619 77.836 189.885 78.0653 190.205 78.236C190.536 78.4067 190.92 78.492 191.357 78.492C191.816 78.492 192.205 78.4013 192.525 78.22C192.845 78.0387 193.107 77.804 193.309 77.516C193.512 77.2173 193.656 76.8813 193.741 76.508C193.837 76.1347 193.885 75.756 193.885 75.372C193.885 74.9667 193.837 74.5773 193.741 74.204C193.645 73.82 193.491 73.484 193.277 73.196C193.075 72.908 192.808 72.6787 192.477 72.508C192.147 72.3267 191.747 72.236 191.277 72.236C190.819 72.236 190.429 72.3267 190.109 72.508C189.789 72.6893 189.533 72.9293 189.341 73.228C189.149 73.5267 189.011 73.868 188.925 74.252C188.84 74.636 188.797 75.0307 188.797 75.436ZM195.197 79.5H193.837V78.38H193.805C193.581 78.8387 193.229 79.1693 192.749 79.372C192.269 79.5747 191.741 79.676 191.165 79.676C190.525 79.676 189.965 79.5587 189.485 79.324C189.016 79.0893 188.621 78.7747 188.301 78.38C187.992 77.9853 187.757 77.5267 187.597 77.004C187.437 76.4813 187.357 75.9267 187.357 75.34C187.357 74.7533 187.432 74.1987 187.581 73.676C187.741 73.1533 187.976 72.7 188.285 72.316C188.605 71.9213 189 71.612 189.469 71.388C189.949 71.1533 190.504 71.036 191.133 71.036C191.347 71.036 191.576 71.0573 191.821 71.1C192.067 71.1427 192.312 71.2173 192.557 71.324C192.803 71.42 193.032 71.5533 193.245 71.724C193.469 71.884 193.656 72.0867 193.805 72.332H193.837V68.076H195.197V79.5ZM201.823 68.076H203.183V79.5H201.823V68.076ZM211.034 74.572C211.012 74.252 210.938 73.948 210.81 73.66C210.692 73.372 210.527 73.1267 210.314 72.924C210.111 72.7107 209.866 72.5453 209.578 72.428C209.3 72.3 208.991 72.236 208.65 72.236C208.298 72.236 207.978 72.3 207.69 72.428C207.412 72.5453 207.172 72.7107 206.97 72.924C206.767 73.1373 206.607 73.388 206.49 73.676C206.372 73.9533 206.303 74.252 206.282 74.572H211.034ZM212.346 76.876C212.164 77.804 211.764 78.5027 211.146 78.972C210.527 79.4413 209.748 79.676 208.81 79.676C208.148 79.676 207.572 79.5693 207.082 79.356C206.602 79.1427 206.196 78.844 205.866 78.46C205.535 78.076 205.284 77.6173 205.114 77.084C204.954 76.5507 204.863 75.9693 204.842 75.34C204.842 74.7107 204.938 74.1347 205.13 73.612C205.322 73.0893 205.588 72.636 205.93 72.252C206.282 71.868 206.692 71.5693 207.162 71.356C207.642 71.1427 208.164 71.036 208.73 71.036C209.466 71.036 210.074 71.1907 210.554 71.5C211.044 71.7987 211.434 72.1827 211.722 72.652C212.02 73.1213 212.223 73.6333 212.33 74.188C212.447 74.7427 212.495 75.2707 212.474 75.772H206.282C206.271 76.1347 206.314 76.4813 206.41 76.812C206.506 77.132 206.66 77.42 206.874 77.676C207.087 77.9213 207.359 78.1187 207.69 78.268C208.02 78.4173 208.41 78.492 208.858 78.492C209.434 78.492 209.903 78.3587 210.266 78.092C210.639 77.8253 210.884 77.42 211.002 76.876H212.346ZM217.611 79.5H216.155L213.083 71.228H214.603L216.923 78.124H216.955L219.211 71.228H220.635L217.611 79.5ZM227.627 74.572C227.606 74.252 227.531 73.948 227.403 73.66C227.286 73.372 227.121 73.1267 226.907 72.924C226.705 72.7107 226.459 72.5453 226.171 72.428C225.894 72.3 225.585 72.236 225.243 72.236C224.891 72.236 224.571 72.3 224.283 72.428C224.006 72.5453 223.766 72.7107 223.563 72.924C223.361 73.1373 223.201 73.388 223.083 73.676C222.966 73.9533 222.897 74.252 222.875 74.572H227.627ZM228.939 76.876C228.758 77.804 228.358 78.5027 227.739 78.972C227.121 79.4413 226.342 79.676 225.403 79.676C224.742 79.676 224.166 79.5693 223.675 79.356C223.195 79.1427 222.79 78.844 222.459 78.46C222.129 78.076 221.878 77.6173 221.707 77.084C221.547 76.5507 221.457 75.9693 221.435 75.34C221.435 74.7107 221.531 74.1347 221.723 73.612C221.915 73.0893 222.182 72.636 222.523 72.252C222.875 71.868 223.286 71.5693 223.755 71.356C224.235 71.1427 224.758 71.036 225.323 71.036C226.059 71.036 226.667 71.1907 227.147 71.5C227.638 71.7987 228.027 72.1827 228.315 72.652C228.614 73.1213 228.817 73.6333 228.923 74.188C229.041 74.7427 229.089 75.2707 229.067 75.772H222.875C222.865 76.1347 222.907 76.4813 223.003 76.812C223.099 77.132 223.254 77.42 223.467 77.676C223.681 77.9213 223.953 78.1187 224.283 78.268C224.614 78.4173 225.003 78.492 225.451 78.492C226.027 78.492 226.497 78.3587 226.859 78.092C227.233 77.8253 227.478 77.42 227.595 76.876H228.939ZM230.557 68.076H231.917V79.5H230.557V68.076ZM236.104 73.004H234.328V71.228H236.104V73.004ZM234.328 77.724H236.104V79.5H234.328V77.724ZM247.602 79.5H246.242V71.372H243.298V70.284C243.682 70.284 244.056 70.2573 244.418 70.204C244.781 70.14 245.106 70.028 245.394 69.868C245.693 69.708 245.944 69.4893 246.146 69.212C246.349 68.9347 246.488 68.5827 246.562 68.156H247.602V79.5Z" fill="black" fill-opacity="0.68"/>
<g clip-path="url(#clip1_66785_16266)">
<path d="M328.917 72.5417H321.083V75.4584H328.917V72.5417Z" fill="black"/>
</g>
<path d="M353.368 75.872C353.368 77.3333 352.979 78.432 352.2 79.168C351.421 79.8933 350.312 80.256 348.872 80.256C347.4 80.256 346.248 79.9093 345.416 79.216C344.595 78.512 344.184 77.3973 344.184 75.872V68.576H345.704V75.872C345.704 76.896 345.976 77.6747 346.52 78.208C347.064 78.7307 347.848 78.992 348.872 78.992C349.843 78.992 350.579 78.7307 351.08 78.208C351.592 77.6747 351.848 76.896 351.848 75.872V68.576H353.368V75.872ZM355.771 71.728H357.051V73.04H357.083C357.648 72.0373 358.544 71.536 359.771 71.536C360.315 71.536 360.768 71.6107 361.131 71.76C361.494 71.9093 361.787 72.1173 362.011 72.384C362.235 72.6507 362.39 72.9707 362.475 73.344C362.571 73.7067 362.619 74.112 362.619 74.56V80H361.259V74.4C361.259 73.888 361.11 73.4827 360.811 73.184C360.512 72.8853 360.102 72.736 359.579 72.736C359.163 72.736 358.8 72.8 358.491 72.928C358.192 73.056 357.942 73.2373 357.739 73.472C357.536 73.7067 357.382 73.984 357.275 74.304C357.179 74.6133 357.131 74.9547 357.131 75.328V80H355.771V71.728ZM365.853 75.872C365.853 76.3733 365.917 76.8213 366.045 77.216C366.184 77.6 366.371 77.9253 366.605 78.192C366.84 78.448 367.112 78.6453 367.421 78.784C367.741 78.9227 368.077 78.992 368.429 78.992C368.781 78.992 369.112 78.9227 369.421 78.784C369.741 78.6453 370.019 78.448 370.253 78.192C370.488 77.9253 370.669 77.6 370.798 77.216C370.936 76.8213 371.005 76.3733 371.005 75.872C371.005 75.3707 370.936 74.928 370.798 74.544C370.669 74.1493 370.488 73.8187 370.253 73.552C370.019 73.2853 369.741 73.0827 369.421 72.944C369.112 72.8053 368.781 72.736 368.429 72.736C368.077 72.736 367.741 72.8053 367.421 72.944C367.112 73.0827 366.84 73.2853 366.605 73.552C366.371 73.8187 366.184 74.1493 366.045 74.544C365.917 74.928 365.853 75.3707 365.853 75.872ZM364.413 75.872C364.413 75.264 364.499 74.6987 364.669 74.176C364.84 73.6427 365.096 73.184 365.437 72.8C365.779 72.4053 366.2 72.096 366.701 71.872C367.203 71.648 367.779 71.536 368.429 71.536C369.091 71.536 369.667 71.648 370.157 71.872C370.659 72.096 371.08 72.4053 371.422 72.8C371.763 73.184 372.019 73.6427 372.189 74.176C372.36 74.6987 372.446 75.264 372.446 75.872C372.446 76.48 372.36 77.0453 372.189 77.568C372.019 78.0907 371.763 78.5493 371.422 78.944C371.08 79.328 370.659 79.632 370.157 79.856C369.667 80.0693 369.091 80.176 368.429 80.176C367.779 80.176 367.203 80.0693 366.701 79.856C366.2 79.632 365.779 79.328 365.437 78.944C365.096 78.5493 364.84 78.0907 364.669 77.568C364.499 77.0453 364.413 76.48 364.413 75.872ZM374.201 71.728H375.481V73.472H375.513C375.844 72.8 376.249 72.304 376.729 71.984C377.209 71.664 377.817 71.5147 378.553 71.536V72.976C378.009 72.976 377.545 73.0507 377.161 73.2C376.777 73.3493 376.468 73.568 376.233 73.856C375.998 74.144 375.828 74.496 375.721 74.912C375.614 75.3173 375.561 75.7867 375.561 76.32V80H374.201V71.728ZM380.488 75.936C380.488 76.32 380.536 76.6987 380.632 77.072C380.739 77.4347 380.893 77.76 381.096 78.048C381.309 78.336 381.576 78.5653 381.896 78.736C382.227 78.9067 382.611 78.992 383.048 78.992C383.507 78.992 383.896 78.9013 384.216 78.72C384.536 78.5387 384.797 78.304 385 78.016C385.203 77.7173 385.347 77.3813 385.432 77.008C385.528 76.6347 385.576 76.256 385.576 75.872C385.576 75.4667 385.528 75.0773 385.432 74.704C385.336 74.32 385.181 73.984 384.968 73.696C384.765 73.408 384.499 73.1787 384.168 73.008C383.837 72.8267 383.437 72.736 382.968 72.736C382.509 72.736 382.12 72.8267 381.8 73.008C381.48 73.1893 381.224 73.4293 381.032 73.728C380.84 74.0267 380.701 74.368 380.616 74.752C380.531 75.136 380.488 75.5307 380.488 75.936ZM386.888 80H385.528V78.88H385.496C385.272 79.3387 384.92 79.6693 384.44 79.872C383.96 80.0747 383.432 80.176 382.856 80.176C382.216 80.176 381.656 80.0587 381.176 79.824C380.707 79.5893 380.312 79.2747 379.992 78.88C379.683 78.4853 379.448 78.0267 379.288 77.504C379.128 76.9813 379.048 76.4267 379.048 75.84C379.048 75.2533 379.123 74.6987 379.272 74.176C379.432 73.6533 379.667 73.2 379.976 72.816C380.296 72.4213 380.691 72.112 381.16 71.888C381.64 71.6533 382.195 71.536 382.824 71.536C383.037 71.536 383.267 71.5573 383.512 71.6C383.757 71.6427 384.003 71.7173 384.248 71.824C384.493 71.92 384.723 72.0533 384.936 72.224C385.16 72.384 385.347 72.5867 385.496 72.832H385.528V68.576H386.888V80ZM394.924 75.072C394.903 74.752 394.828 74.448 394.7 74.16C394.583 73.872 394.418 73.6267 394.204 73.424C394.002 73.2107 393.756 73.0453 393.468 72.928C393.191 72.8 392.882 72.736 392.54 72.736C392.188 72.736 391.868 72.8 391.58 72.928C391.303 73.0453 391.063 73.2107 390.86 73.424C390.658 73.6373 390.498 73.888 390.38 74.176C390.263 74.4533 390.194 74.752 390.172 75.072H394.924ZM396.236 77.376C396.055 78.304 395.655 79.0027 395.036 79.472C394.418 79.9413 393.639 80.176 392.7 80.176C392.039 80.176 391.463 80.0693 390.972 79.856C390.492 79.6427 390.087 79.344 389.756 78.96C389.426 78.576 389.175 78.1173 389.004 77.584C388.844 77.0507 388.754 76.4693 388.732 75.84C388.732 75.2107 388.828 74.6347 389.02 74.112C389.212 73.5893 389.479 73.136 389.82 72.752C390.172 72.368 390.583 72.0693 391.052 71.856C391.532 71.6427 392.055 71.536 392.62 71.536C393.356 71.536 393.964 71.6907 394.444 72C394.935 72.2987 395.324 72.6827 395.612 73.152C395.911 73.6213 396.114 74.1333 396.22 74.688C396.338 75.2427 396.386 75.7707 396.364 76.272H390.172C390.162 76.6347 390.204 76.9813 390.3 77.312C390.396 77.632 390.551 77.92 390.764 78.176C390.978 78.4213 391.25 78.6187 391.58 78.768C391.911 78.9173 392.3 78.992 392.748 78.992C393.324 78.992 393.794 78.8587 394.156 78.592C394.53 78.3253 394.775 77.92 394.892 77.376H396.236ZM397.926 71.728H399.206V73.472H399.238C399.569 72.8 399.974 72.304 400.454 71.984C400.934 71.664 401.542 71.5147 402.278 71.536V72.976C401.734 72.976 401.27 73.0507 400.886 73.2C400.502 73.3493 400.193 73.568 399.958 73.856C399.723 74.144 399.553 74.496 399.446 74.912C399.339 75.3173 399.286 75.7867 399.286 76.32V80H397.926V71.728ZM408.965 75.072C408.944 74.752 408.869 74.448 408.741 74.16C408.624 73.872 408.458 73.6267 408.245 73.424C408.042 73.2107 407.797 73.0453 407.509 72.928C407.232 72.8 406.922 72.736 406.581 72.736C406.229 72.736 405.909 72.8 405.621 72.928C405.344 73.0453 405.104 73.2107 404.901 73.424C404.698 73.6373 404.538 73.888 404.421 74.176C404.304 74.4533 404.234 74.752 404.213 75.072H408.965ZM410.277 77.376C410.096 78.304 409.696 79.0027 409.077 79.472C408.458 79.9413 407.68 80.176 406.741 80.176C406.08 80.176 405.504 80.0693 405.013 79.856C404.533 79.6427 404.128 79.344 403.797 78.96C403.466 78.576 403.216 78.1173 403.045 77.584C402.885 77.0507 402.794 76.4693 402.773 75.84C402.773 75.2107 402.869 74.6347 403.061 74.112C403.253 73.5893 403.52 73.136 403.861 72.752C404.213 72.368 404.624 72.0693 405.093 71.856C405.573 71.6427 406.096 71.536 406.661 71.536C407.397 71.536 408.005 71.6907 408.485 72C408.976 72.2987 409.365 72.6827 409.653 73.152C409.952 73.6213 410.154 74.1333 410.261 74.688C410.378 75.2427 410.426 75.7707 410.405 76.272H404.213C404.202 76.6347 404.245 76.9813 404.341 77.312C404.437 77.632 404.592 77.92 404.805 78.176C405.018 78.4213 405.29 78.6187 405.621 78.768C405.952 78.9173 406.341 78.992 406.789 78.992C407.365 78.992 407.834 78.8587 408.197 78.592C408.57 78.3253 408.816 77.92 408.933 77.376H410.277ZM413.007 75.936C413.007 76.32 413.055 76.6987 413.151 77.072C413.257 77.4347 413.412 77.76 413.615 78.048C413.828 78.336 414.095 78.5653 414.415 78.736C414.745 78.9067 415.129 78.992 415.567 78.992C416.025 78.992 416.415 78.9013 416.735 78.72C417.055 78.5387 417.316 78.304 417.519 78.016C417.721 77.7173 417.865 77.3813 417.951 77.008C418.047 76.6347 418.095 76.256 418.095 75.872C418.095 75.4667 418.047 75.0773 417.951 74.704C417.855 74.32 417.7 73.984 417.487 73.696C417.284 73.408 417.017 73.1787 416.687 73.008C416.356 72.8267 415.956 72.736 415.487 72.736C415.028 72.736 414.639 72.8267 414.319 73.008C413.999 73.1893 413.743 73.4293 413.551 73.728C413.359 74.0267 413.22 74.368 413.135 74.752C413.049 75.136 413.007 75.5307 413.007 75.936ZM419.407 80H418.047V78.88H418.015C417.791 79.3387 417.439 79.6693 416.959 79.872C416.479 80.0747 415.951 80.176 415.375 80.176C414.735 80.176 414.175 80.0587 413.695 79.824C413.225 79.5893 412.831 79.2747 412.511 78.88C412.201 78.4853 411.967 78.0267 411.807 77.504C411.647 76.9813 411.567 76.4267 411.567 75.84C411.567 75.2533 411.641 74.6987 411.791 74.176C411.951 73.6533 412.185 73.2 412.495 72.816C412.815 72.4213 413.209 72.112 413.679 71.888C414.159 71.6533 414.713 71.536 415.343 71.536C415.556 71.536 415.785 71.5573 416.031 71.6C416.276 71.6427 416.521 71.7173 416.767 71.824C417.012 71.92 417.241 72.0533 417.455 72.224C417.679 72.384 417.865 72.5867 418.015 72.832H418.047V68.576H419.407V80ZM426.432 68.576H427.792V80H426.432V68.576ZM431.539 70.24H430.179V68.576H431.539V70.24ZM430.179 71.728H431.539V80H430.179V71.728ZM434.678 77.392C434.689 77.6907 434.758 77.9467 434.886 78.16C435.014 78.3627 435.179 78.528 435.382 78.656C435.595 78.7733 435.83 78.8587 436.086 78.912C436.353 78.9653 436.625 78.992 436.902 78.992C437.115 78.992 437.339 78.976 437.574 78.944C437.809 78.912 438.022 78.8533 438.214 78.768C438.417 78.6827 438.582 78.56 438.71 78.4C438.838 78.2293 438.902 78.016 438.902 77.76C438.902 77.408 438.769 77.1413 438.502 76.96C438.235 76.7787 437.899 76.6347 437.494 76.528C437.099 76.4107 436.667 76.3093 436.198 76.224C435.729 76.128 435.291 76 434.886 75.84C434.491 75.6693 434.161 75.4347 433.894 75.136C433.627 74.8373 433.494 74.4213 433.494 73.888C433.494 73.472 433.585 73.1147 433.766 72.816C433.958 72.5173 434.198 72.2773 434.486 72.096C434.785 71.904 435.115 71.7653 435.478 71.68C435.851 71.584 436.219 71.536 436.582 71.536C437.051 71.536 437.483 71.5787 437.878 71.664C438.273 71.7387 438.619 71.8773 438.918 72.08C439.227 72.272 439.473 72.5387 439.654 72.88C439.835 73.2107 439.942 73.6267 439.974 74.128H438.614C438.593 73.8613 438.523 73.6427 438.406 73.472C438.289 73.2907 438.139 73.1467 437.958 73.04C437.777 72.9333 437.574 72.8587 437.35 72.816C437.137 72.7627 436.918 72.736 436.694 72.736C436.491 72.736 436.283 72.752 436.07 72.784C435.867 72.816 435.681 72.8747 435.51 72.96C435.339 73.0347 435.201 73.1413 435.094 73.28C434.987 73.408 434.934 73.5787 434.934 73.792C434.934 74.0267 435.014 74.224 435.174 74.384C435.345 74.5333 435.558 74.6613 435.814 74.768C436.07 74.864 436.358 74.9493 436.678 75.024C436.998 75.088 437.318 75.1573 437.638 75.232C437.979 75.3067 438.31 75.3973 438.63 75.504C438.961 75.6107 439.249 75.7547 439.494 75.936C439.75 76.1067 439.953 76.3253 440.102 76.592C440.262 76.8587 440.342 77.1893 440.342 77.584C440.342 78.0853 440.235 78.5013 440.022 78.832C439.819 79.1627 439.547 79.4293 439.206 79.632C438.875 79.8347 438.497 79.9733 438.07 80.048C437.654 80.1333 437.238 80.176 436.822 80.176C436.363 80.176 435.926 80.128 435.51 80.032C435.094 79.936 434.726 79.7813 434.406 79.568C434.086 79.344 433.83 79.056 433.638 78.704C433.446 78.3413 433.339 77.904 433.318 77.392H434.678ZM443.934 71.728H445.582V72.928H443.934V78.064C443.934 78.224 443.945 78.352 443.966 78.448C443.998 78.544 444.051 78.6187 444.126 78.672C444.201 78.7253 444.302 78.7627 444.43 78.784C444.569 78.7947 444.745 78.8 444.958 78.8H445.582V80H444.542C444.19 80 443.886 79.9787 443.63 79.936C443.385 79.8827 443.182 79.792 443.022 79.664C442.873 79.536 442.761 79.3547 442.686 79.12C442.611 78.8853 442.574 78.576 442.574 78.192V72.928H441.166V71.728H442.574V69.248H443.934V71.728Z" fill="black"/>
<path d="M146.232 104.076H147.848L153.864 113.34H153.896V104.076H155.336V115.5H153.672L147.704 106.332H147.672V115.5H146.232V104.076ZM163.315 110.572C163.294 110.252 163.219 109.948 163.091 109.66C162.974 109.372 162.808 109.127 162.595 108.924C162.392 108.711 162.147 108.545 161.859 108.428C161.582 108.3 161.272 108.236 160.931 108.236C160.579 108.236 160.259 108.3 159.971 108.428C159.694 108.545 159.454 108.711 159.251 108.924C159.048 109.137 158.888 109.388 158.771 109.676C158.654 109.953 158.584 110.252 158.563 110.572H163.315ZM164.627 112.876C164.446 113.804 164.046 114.503 163.427 114.972C162.808 115.441 162.03 115.676 161.091 115.676C160.43 115.676 159.854 115.569 159.363 115.356C158.883 115.143 158.478 114.844 158.147 114.46C157.816 114.076 157.566 113.617 157.395 113.084C157.235 112.551 157.144 111.969 157.123 111.34C157.123 110.711 157.219 110.135 157.411 109.612C157.603 109.089 157.87 108.636 158.211 108.252C158.563 107.868 158.974 107.569 159.443 107.356C159.923 107.143 160.446 107.036 161.011 107.036C161.747 107.036 162.355 107.191 162.835 107.5C163.326 107.799 163.715 108.183 164.003 108.652C164.302 109.121 164.504 109.633 164.611 110.188C164.728 110.743 164.776 111.271 164.755 111.772H158.563C158.552 112.135 158.595 112.481 158.691 112.812C158.787 113.132 158.942 113.42 159.155 113.676C159.368 113.921 159.64 114.119 159.971 114.268C160.302 114.417 160.691 114.492 161.139 114.492C161.715 114.492 162.184 114.359 162.547 114.092C162.92 113.825 163.166 113.42 163.283 112.876H164.627ZM166.997 112.892C167.007 113.191 167.077 113.447 167.205 113.66C167.333 113.863 167.498 114.028 167.701 114.156C167.914 114.273 168.149 114.359 168.405 114.412C168.671 114.465 168.943 114.492 169.221 114.492C169.434 114.492 169.658 114.476 169.893 114.444C170.127 114.412 170.341 114.353 170.533 114.268C170.735 114.183 170.901 114.06 171.029 113.9C171.157 113.729 171.221 113.516 171.221 113.26C171.221 112.908 171.087 112.641 170.821 112.46C170.554 112.279 170.218 112.135 169.813 112.028C169.418 111.911 168.986 111.809 168.517 111.724C168.047 111.628 167.61 111.5 167.205 111.34C166.81 111.169 166.479 110.935 166.213 110.636C165.946 110.337 165.813 109.921 165.813 109.388C165.813 108.972 165.903 108.615 166.085 108.316C166.277 108.017 166.517 107.777 166.805 107.596C167.103 107.404 167.434 107.265 167.797 107.18C168.17 107.084 168.538 107.036 168.901 107.036C169.37 107.036 169.802 107.079 170.197 107.164C170.591 107.239 170.938 107.377 171.237 107.58C171.546 107.772 171.791 108.039 171.973 108.38C172.154 108.711 172.261 109.127 172.293 109.628H170.933C170.911 109.361 170.842 109.143 170.725 108.972C170.607 108.791 170.458 108.647 170.277 108.54C170.095 108.433 169.893 108.359 169.669 108.316C169.455 108.263 169.237 108.236 169.013 108.236C168.81 108.236 168.602 108.252 168.389 108.284C168.186 108.316 167.999 108.375 167.829 108.46C167.658 108.535 167.519 108.641 167.413 108.78C167.306 108.908 167.253 109.079 167.253 109.292C167.253 109.527 167.333 109.724 167.493 109.884C167.663 110.033 167.877 110.161 168.133 110.268C168.389 110.364 168.677 110.449 168.997 110.524C169.317 110.588 169.637 110.657 169.957 110.732C170.298 110.807 170.629 110.897 170.949 111.004C171.279 111.111 171.567 111.255 171.813 111.436C172.069 111.607 172.271 111.825 172.421 112.092C172.581 112.359 172.661 112.689 172.661 113.084C172.661 113.585 172.554 114.001 172.341 114.332C172.138 114.663 171.866 114.929 171.525 115.132C171.194 115.335 170.815 115.473 170.389 115.548C169.973 115.633 169.557 115.676 169.141 115.676C168.682 115.676 168.245 115.628 167.829 115.532C167.413 115.436 167.045 115.281 166.725 115.068C166.405 114.844 166.149 114.556 165.957 114.204C165.765 113.841 165.658 113.404 165.637 112.892H166.997ZM176.053 107.228H177.701V108.428H176.053V113.564C176.053 113.724 176.063 113.852 176.085 113.948C176.117 114.044 176.17 114.119 176.245 114.172C176.319 114.225 176.421 114.263 176.549 114.284C176.687 114.295 176.863 114.3 177.077 114.3H177.701V115.5H176.661C176.309 115.5 176.005 115.479 175.749 115.436C175.503 115.383 175.301 115.292 175.141 115.164C174.991 115.036 174.879 114.855 174.805 114.62C174.73 114.385 174.693 114.076 174.693 113.692V108.428H173.285V107.228H174.693V104.748H176.053V107.228ZM184.956 110.572C184.934 110.252 184.86 109.948 184.732 109.66C184.614 109.372 184.449 109.127 184.236 108.924C184.033 108.711 183.788 108.545 183.5 108.428C183.222 108.3 182.913 108.236 182.572 108.236C182.22 108.236 181.9 108.3 181.612 108.428C181.334 108.545 181.094 108.711 180.892 108.924C180.689 109.137 180.529 109.388 180.412 109.676C180.294 109.953 180.225 110.252 180.204 110.572H184.956ZM186.267 112.876C186.086 113.804 185.686 114.503 185.068 114.972C184.449 115.441 183.67 115.676 182.732 115.676C182.07 115.676 181.494 115.569 181.004 115.356C180.524 115.143 180.118 114.844 179.788 114.46C179.457 114.076 179.206 113.617 179.036 113.084C178.876 112.551 178.785 111.969 178.764 111.34C178.764 110.711 178.86 110.135 179.052 109.612C179.244 109.089 179.51 108.636 179.852 108.252C180.204 107.868 180.614 107.569 181.084 107.356C181.564 107.143 182.086 107.036 182.652 107.036C183.388 107.036 183.996 107.191 184.476 107.5C184.966 107.799 185.356 108.183 185.644 108.652C185.942 109.121 186.145 109.633 186.252 110.188C186.369 110.743 186.417 111.271 186.396 111.772H180.204C180.193 112.135 180.236 112.481 180.332 112.812C180.428 113.132 180.582 113.42 180.796 113.676C181.009 113.921 181.281 114.119 181.612 114.268C181.942 114.417 182.332 114.492 182.78 114.492C183.356 114.492 183.825 114.359 184.188 114.092C184.561 113.825 184.806 113.42 184.924 112.876H186.267ZM188.797 111.436C188.797 111.82 188.845 112.199 188.941 112.572C189.048 112.935 189.203 113.26 189.405 113.548C189.619 113.836 189.885 114.065 190.205 114.236C190.536 114.407 190.92 114.492 191.357 114.492C191.816 114.492 192.205 114.401 192.525 114.22C192.845 114.039 193.107 113.804 193.309 113.516C193.512 113.217 193.656 112.881 193.741 112.508C193.837 112.135 193.885 111.756 193.885 111.372C193.885 110.967 193.837 110.577 193.741 110.204C193.645 109.82 193.491 109.484 193.277 109.196C193.075 108.908 192.808 108.679 192.477 108.508C192.147 108.327 191.747 108.236 191.277 108.236C190.819 108.236 190.429 108.327 190.109 108.508C189.789 108.689 189.533 108.929 189.341 109.228C189.149 109.527 189.011 109.868 188.925 110.252C188.84 110.636 188.797 111.031 188.797 111.436ZM195.197 115.5H193.837V114.38H193.805C193.581 114.839 193.229 115.169 192.749 115.372C192.269 115.575 191.741 115.676 191.165 115.676C190.525 115.676 189.965 115.559 189.485 115.324C189.016 115.089 188.621 114.775 188.301 114.38C187.992 113.985 187.757 113.527 187.597 113.004C187.437 112.481 187.357 111.927 187.357 111.34C187.357 110.753 187.432 110.199 187.581 109.676C187.741 109.153 187.976 108.7 188.285 108.316C188.605 107.921 189 107.612 189.469 107.388C189.949 107.153 190.504 107.036 191.133 107.036C191.347 107.036 191.576 107.057 191.821 107.1C192.067 107.143 192.312 107.217 192.557 107.324C192.803 107.42 193.032 107.553 193.245 107.724C193.469 107.884 193.656 108.087 193.805 108.332H193.837V104.076H195.197V115.5ZM201.823 104.076H203.183V115.5H201.823V104.076ZM211.034 110.572C211.012 110.252 210.938 109.948 210.81 109.66C210.692 109.372 210.527 109.127 210.314 108.924C210.111 108.711 209.866 108.545 209.578 108.428C209.3 108.3 208.991 108.236 208.65 108.236C208.298 108.236 207.978 108.3 207.69 108.428C207.412 108.545 207.172 108.711 206.97 108.924C206.767 109.137 206.607 109.388 206.49 109.676C206.372 109.953 206.303 110.252 206.282 110.572H211.034ZM212.346 112.876C212.164 113.804 211.764 114.503 211.146 114.972C210.527 115.441 209.748 115.676 208.81 115.676C208.148 115.676 207.572 115.569 207.082 115.356C206.602 115.143 206.196 114.844 205.866 114.46C205.535 114.076 205.284 113.617 205.114 113.084C204.954 112.551 204.863 111.969 204.842 111.34C204.842 110.711 204.938 110.135 205.13 109.612C205.322 109.089 205.588 108.636 205.93 108.252C206.282 107.868 206.692 107.569 207.162 107.356C207.642 107.143 208.164 107.036 208.73 107.036C209.466 107.036 210.074 107.191 210.554 107.5C211.044 107.799 211.434 108.183 211.722 108.652C212.02 109.121 212.223 109.633 212.33 110.188C212.447 110.743 212.495 111.271 212.474 111.772H206.282C206.271 112.135 206.314 112.481 206.41 112.812C206.506 113.132 206.66 113.42 206.874 113.676C207.087 113.921 207.359 114.119 207.69 114.268C208.02 114.417 208.41 114.492 208.858 114.492C209.434 114.492 209.903 114.359 210.266 114.092C210.639 113.825 210.884 113.42 211.002 112.876H212.346ZM217.611 115.5H216.155L213.083 107.228H214.603L216.923 114.124H216.955L219.211 107.228H220.635L217.611 115.5ZM227.627 110.572C227.606 110.252 227.531 109.948 227.403 109.66C227.286 109.372 227.121 109.127 226.907 108.924C226.705 108.711 226.459 108.545 226.171 108.428C225.894 108.3 225.585 108.236 225.243 108.236C224.891 108.236 224.571 108.3 224.283 108.428C224.006 108.545 223.766 108.711 223.563 108.924C223.361 109.137 223.201 109.388 223.083 109.676C222.966 109.953 222.897 110.252 222.875 110.572H227.627ZM228.939 112.876C228.758 113.804 228.358 114.503 227.739 114.972C227.121 115.441 226.342 115.676 225.403 115.676C224.742 115.676 224.166 115.569 223.675 115.356C223.195 115.143 222.79 114.844 222.459 114.46C222.129 114.076 221.878 113.617 221.707 113.084C221.547 112.551 221.457 111.969 221.435 111.34C221.435 110.711 221.531 110.135 221.723 109.612C221.915 109.089 222.182 108.636 222.523 108.252C222.875 107.868 223.286 107.569 223.755 107.356C224.235 107.143 224.758 107.036 225.323 107.036C226.059 107.036 226.667 107.191 227.147 107.5C227.638 107.799 228.027 108.183 228.315 108.652C228.614 109.121 228.817 109.633 228.923 110.188C229.041 110.743 229.089 111.271 229.067 111.772H222.875C222.865 112.135 222.907 112.481 223.003 112.812C223.099 113.132 223.254 113.42 223.467 113.676C223.681 113.921 223.953 114.119 224.283 114.268C224.614 114.417 225.003 114.492 225.451 114.492C226.027 114.492 226.497 114.359 226.859 114.092C227.233 113.825 227.478 113.42 227.595 112.876H228.939ZM230.557 104.076H231.917V115.5H230.557V104.076ZM236.104 109.004H234.328V107.228H236.104V109.004ZM234.328 113.724H236.104V115.5H234.328V113.724ZM247.602 115.5H246.242V107.372H243.298V106.284C243.682 106.284 244.056 106.257 244.418 106.204C244.781 106.14 245.106 106.028 245.394 105.868C245.693 105.708 245.944 105.489 246.146 105.212C246.349 104.935 246.488 104.583 246.562 104.156H247.602V115.5Z" fill="black" fill-opacity="0.68"/>
<g clip-path="url(#clip2_66785_16266)">
<path d="M328.917 108.542H321.083V111.458H328.917V108.542Z" fill="black"/>
</g>
<path d="M353.368 111.872C353.368 113.333 352.979 114.432 352.2 115.168C351.421 115.893 350.312 116.256 348.872 116.256C347.4 116.256 346.248 115.909 345.416 115.216C344.595 114.512 344.184 113.397 344.184 111.872V104.576H345.704V111.872C345.704 112.896 345.976 113.675 346.52 114.208C347.064 114.731 347.848 114.992 348.872 114.992C349.843 114.992 350.579 114.731 351.08 114.208C351.592 113.675 351.848 112.896 351.848 111.872V104.576H353.368V111.872ZM355.771 107.728H357.051V109.04H357.083C357.648 108.037 358.544 107.536 359.771 107.536C360.315 107.536 360.768 107.611 361.131 107.76C361.494 107.909 361.787 108.117 362.011 108.384C362.235 108.651 362.39 108.971 362.475 109.344C362.571 109.707 362.619 110.112 362.619 110.56V116H361.259V110.4C361.259 109.888 361.11 109.483 360.811 109.184C360.512 108.885 360.102 108.736 359.579 108.736C359.163 108.736 358.8 108.8 358.491 108.928C358.192 109.056 357.942 109.237 357.739 109.472C357.536 109.707 357.382 109.984 357.275 110.304C357.179 110.613 357.131 110.955 357.131 111.328V116H355.771V107.728ZM365.853 111.872C365.853 112.373 365.917 112.821 366.045 113.216C366.184 113.6 366.371 113.925 366.605 114.192C366.84 114.448 367.112 114.645 367.421 114.784C367.741 114.923 368.077 114.992 368.429 114.992C368.781 114.992 369.112 114.923 369.421 114.784C369.741 114.645 370.019 114.448 370.253 114.192C370.488 113.925 370.669 113.6 370.798 113.216C370.936 112.821 371.005 112.373 371.005 111.872C371.005 111.371 370.936 110.928 370.798 110.544C370.669 110.149 370.488 109.819 370.253 109.552C370.019 109.285 369.741 109.083 369.421 108.944C369.112 108.805 368.781 108.736 368.429 108.736C368.077 108.736 367.741 108.805 367.421 108.944C367.112 109.083 366.84 109.285 366.605 109.552C366.371 109.819 366.184 110.149 366.045 110.544C365.917 110.928 365.853 111.371 365.853 111.872ZM364.413 111.872C364.413 111.264 364.499 110.699 364.669 110.176C364.84 109.643 365.096 109.184 365.437 108.8C365.779 108.405 366.2 108.096 366.701 107.872C367.203 107.648 367.779 107.536 368.429 107.536C369.091 107.536 369.667 107.648 370.157 107.872C370.659 108.096 371.08 108.405 371.422 108.8C371.763 109.184 372.019 109.643 372.189 110.176C372.36 110.699 372.446 111.264 372.446 111.872C372.446 112.48 372.36 113.045 372.189 113.568C372.019 114.091 371.763 114.549 371.422 114.944C371.08 115.328 370.659 115.632 370.157 115.856C369.667 116.069 369.091 116.176 368.429 116.176C367.779 116.176 367.203 116.069 366.701 115.856C366.2 115.632 365.779 115.328 365.437 114.944C365.096 114.549 364.84 114.091 364.669 113.568C364.499 113.045 364.413 112.48 364.413 111.872ZM374.201 107.728H375.481V109.472H375.513C375.844 108.8 376.249 108.304 376.729 107.984C377.209 107.664 377.817 107.515 378.553 107.536V108.976C378.009 108.976 377.545 109.051 377.161 109.2C376.777 109.349 376.468 109.568 376.233 109.856C375.998 110.144 375.828 110.496 375.721 110.912C375.614 111.317 375.561 111.787 375.561 112.32V116H374.201V107.728ZM380.488 111.936C380.488 112.32 380.536 112.699 380.632 113.072C380.739 113.435 380.893 113.76 381.096 114.048C381.309 114.336 381.576 114.565 381.896 114.736C382.227 114.907 382.611 114.992 383.048 114.992C383.507 114.992 383.896 114.901 384.216 114.72C384.536 114.539 384.797 114.304 385 114.016C385.203 113.717 385.347 113.381 385.432 113.008C385.528 112.635 385.576 112.256 385.576 111.872C385.576 111.467 385.528 111.077 385.432 110.704C385.336 110.32 385.181 109.984 384.968 109.696C384.765 109.408 384.499 109.179 384.168 109.008C383.837 108.827 383.437 108.736 382.968 108.736C382.509 108.736 382.12 108.827 381.8 109.008C381.48 109.189 381.224 109.429 381.032 109.728C380.84 110.027 380.701 110.368 380.616 110.752C380.531 111.136 380.488 111.531 380.488 111.936ZM386.888 116H385.528V114.88H385.496C385.272 115.339 384.92 115.669 384.44 115.872C383.96 116.075 383.432 116.176 382.856 116.176C382.216 116.176 381.656 116.059 381.176 115.824C380.707 115.589 380.312 115.275 379.992 114.88C379.683 114.485 379.448 114.027 379.288 113.504C379.128 112.981 379.048 112.427 379.048 111.84C379.048 111.253 379.123 110.699 379.272 110.176C379.432 109.653 379.667 109.2 379.976 108.816C380.296 108.421 380.691 108.112 381.16 107.888C381.64 107.653 382.195 107.536 382.824 107.536C383.037 107.536 383.267 107.557 383.512 107.6C383.757 107.643 384.003 107.717 384.248 107.824C384.493 107.92 384.723 108.053 384.936 108.224C385.16 108.384 385.347 108.587 385.496 108.832H385.528V104.576H386.888V116ZM394.924 111.072C394.903 110.752 394.828 110.448 394.7 110.16C394.583 109.872 394.418 109.627 394.204 109.424C394.002 109.211 393.756 109.045 393.468 108.928C393.191 108.8 392.882 108.736 392.54 108.736C392.188 108.736 391.868 108.8 391.58 108.928C391.303 109.045 391.063 109.211 390.86 109.424C390.658 109.637 390.498 109.888 390.38 110.176C390.263 110.453 390.194 110.752 390.172 111.072H394.924ZM396.236 113.376C396.055 114.304 395.655 115.003 395.036 115.472C394.418 115.941 393.639 116.176 392.7 116.176C392.039 116.176 391.463 116.069 390.972 115.856C390.492 115.643 390.087 115.344 389.756 114.96C389.426 114.576 389.175 114.117 389.004 113.584C388.844 113.051 388.754 112.469 388.732 111.84C388.732 111.211 388.828 110.635 389.02 110.112C389.212 109.589 389.479 109.136 389.82 108.752C390.172 108.368 390.583 108.069 391.052 107.856C391.532 107.643 392.055 107.536 392.62 107.536C393.356 107.536 393.964 107.691 394.444 108C394.935 108.299 395.324 108.683 395.612 109.152C395.911 109.621 396.114 110.133 396.22 110.688C396.338 111.243 396.386 111.771 396.364 112.272H390.172C390.162 112.635 390.204 112.981 390.3 113.312C390.396 113.632 390.551 113.92 390.764 114.176C390.978 114.421 391.25 114.619 391.58 114.768C391.911 114.917 392.3 114.992 392.748 114.992C393.324 114.992 393.794 114.859 394.156 114.592C394.53 114.325 394.775 113.92 394.892 113.376H396.236ZM397.926 107.728H399.206V109.472H399.238C399.569 108.8 399.974 108.304 400.454 107.984C400.934 107.664 401.542 107.515 402.278 107.536V108.976C401.734 108.976 401.27 109.051 400.886 109.2C400.502 109.349 400.193 109.568 399.958 109.856C399.723 110.144 399.553 110.496 399.446 110.912C399.339 111.317 399.286 111.787 399.286 112.32V116H397.926V107.728ZM408.965 111.072C408.944 110.752 408.869 110.448 408.741 110.16C408.624 109.872 408.458 109.627 408.245 109.424C408.042 109.211 407.797 109.045 407.509 108.928C407.232 108.8 406.922 108.736 406.581 108.736C406.229 108.736 405.909 108.8 405.621 108.928C405.344 109.045 405.104 109.211 404.901 109.424C404.698 109.637 404.538 109.888 404.421 110.176C404.304 110.453 404.234 110.752 404.213 111.072H408.965ZM410.277 113.376C410.096 114.304 409.696 115.003 409.077 115.472C408.458 115.941 407.68 116.176 406.741 116.176C406.08 116.176 405.504 116.069 405.013 115.856C404.533 115.643 404.128 115.344 403.797 114.96C403.466 114.576 403.216 114.117 403.045 113.584C402.885 113.051 402.794 112.469 402.773 111.84C402.773 111.211 402.869 110.635 403.061 110.112C403.253 109.589 403.52 109.136 403.861 108.752C404.213 108.368 404.624 108.069 405.093 107.856C405.573 107.643 406.096 107.536 406.661 107.536C407.397 107.536 408.005 107.691 408.485 108C408.976 108.299 409.365 108.683 409.653 109.152C409.952 109.621 410.154 110.133 410.261 110.688C410.378 111.243 410.426 111.771 410.405 112.272H404.213C404.202 112.635 404.245 112.981 404.341 113.312C404.437 113.632 404.592 113.92 404.805 114.176C405.018 114.421 405.29 114.619 405.621 114.768C405.952 114.917 406.341 114.992 406.789 114.992C407.365 114.992 407.834 114.859 408.197 114.592C408.57 114.325 408.816 113.92 408.933 113.376H410.277ZM413.007 111.936C413.007 112.32 413.055 112.699 413.151 113.072C413.257 113.435 413.412 113.76 413.615 114.048C413.828 114.336 414.095 114.565 414.415 114.736C414.745 114.907 415.129 114.992 415.567 114.992C416.025 114.992 416.415 114.901 416.735 114.72C417.055 114.539 417.316 114.304 417.519 114.016C417.721 113.717 417.865 113.381 417.951 113.008C418.047 112.635 418.095 112.256 418.095 111.872C418.095 111.467 418.047 111.077 417.951 110.704C417.855 110.32 417.7 109.984 417.487 109.696C417.284 109.408 417.017 109.179 416.687 109.008C416.356 108.827 415.956 108.736 415.487 108.736C415.028 108.736 414.639 108.827 414.319 109.008C413.999 109.189 413.743 109.429 413.551 109.728C413.359 110.027 413.22 110.368 413.135 110.752C413.049 111.136 413.007 111.531 413.007 111.936ZM419.407 116H418.047V114.88H418.015C417.791 115.339 417.439 115.669 416.959 115.872C416.479 116.075 415.951 116.176 415.375 116.176C414.735 116.176 414.175 116.059 413.695 115.824C413.225 115.589 412.831 115.275 412.511 114.88C412.201 114.485 411.967 114.027 411.807 113.504C411.647 112.981 411.567 112.427 411.567 111.84C411.567 111.253 411.641 110.699 411.791 110.176C411.951 109.653 412.185 109.2 412.495 108.816C412.815 108.421 413.209 108.112 413.679 107.888C414.159 107.653 414.713 107.536 415.343 107.536C415.556 107.536 415.785 107.557 416.031 107.6C416.276 107.643 416.521 107.717 416.767 107.824C417.012 107.92 417.241 108.053 417.455 108.224C417.679 108.384 417.865 108.587 418.015 108.832H418.047V104.576H419.407V116ZM426.432 104.576H427.792V116H426.432V104.576ZM431.539 106.24H430.179V104.576H431.539V106.24ZM430.179 107.728H431.539V116H430.179V107.728ZM434.678 113.392C434.689 113.691 434.758 113.947 434.886 114.16C435.014 114.363 435.179 114.528 435.382 114.656C435.595 114.773 435.83 114.859 436.086 114.912C436.353 114.965 436.625 114.992 436.902 114.992C437.115 114.992 437.339 114.976 437.574 114.944C437.809 114.912 438.022 114.853 438.214 114.768C438.417 114.683 438.582 114.56 438.71 114.4C438.838 114.229 438.902 114.016 438.902 113.76C438.902 113.408 438.769 113.141 438.502 112.96C438.235 112.779 437.899 112.635 437.494 112.528C437.099 112.411 436.667 112.309 436.198 112.224C435.729 112.128 435.291 112 434.886 111.84C434.491 111.669 434.161 111.435 433.894 111.136C433.627 110.837 433.494 110.421 433.494 109.888C433.494 109.472 433.585 109.115 433.766 108.816C433.958 108.517 434.198 108.277 434.486 108.096C434.785 107.904 435.115 107.765 435.478 107.68C435.851 107.584 436.219 107.536 436.582 107.536C437.051 107.536 437.483 107.579 437.878 107.664C438.273 107.739 438.619 107.877 438.918 108.08C439.227 108.272 439.473 108.539 439.654 108.88C439.835 109.211 439.942 109.627 439.974 110.128H438.614C438.593 109.861 438.523 109.643 438.406 109.472C438.289 109.291 438.139 109.147 437.958 109.04C437.777 108.933 437.574 108.859 437.35 108.816C437.137 108.763 436.918 108.736 436.694 108.736C436.491 108.736 436.283 108.752 436.07 108.784C435.867 108.816 435.681 108.875 435.51 108.96C435.339 109.035 435.201 109.141 435.094 109.28C434.987 109.408 434.934 109.579 434.934 109.792C434.934 110.027 435.014 110.224 435.174 110.384C435.345 110.533 435.558 110.661 435.814 110.768C436.07 110.864 436.358 110.949 436.678 111.024C436.998 111.088 437.318 111.157 437.638 111.232C437.979 111.307 438.31 111.397 438.63 111.504C438.961 111.611 439.249 111.755 439.494 111.936C439.75 112.107 439.953 112.325 440.102 112.592C440.262 112.859 440.342 113.189 440.342 113.584C440.342 114.085 440.235 114.501 440.022 114.832C439.819 115.163 439.547 115.429 439.206 115.632C438.875 115.835 438.497 115.973 438.07 116.048C437.654 116.133 437.238 116.176 436.822 116.176C436.363 116.176 435.926 116.128 435.51 116.032C435.094 115.936 434.726 115.781 434.406 115.568C434.086 115.344 433.83 115.056 433.638 114.704C433.446 114.341 433.339 113.904 433.318 113.392H434.678ZM443.934 107.728H445.582V108.928H443.934V114.064C443.934 114.224 443.945 114.352 443.966 114.448C443.998 114.544 444.051 114.619 444.126 114.672C444.201 114.725 444.302 114.763 444.43 114.784C444.569 114.795 444.745 114.8 444.958 114.8H445.582V116H444.542C444.19 116 443.886 115.979 443.63 115.936C443.385 115.883 443.182 115.792 443.022 115.664C442.873 115.536 442.761 115.355 442.686 115.12C442.611 114.885 442.574 114.576 442.574 114.192V108.928H441.166V107.728H442.574V105.248H443.934V107.728Z" fill="black"/>
<path d="M146.232 140.076H147.848L153.864 149.34H153.896V140.076H155.336V151.5H153.672L147.704 142.332H147.672V151.5H146.232V140.076ZM163.315 146.572C163.294 146.252 163.219 145.948 163.091 145.66C162.974 145.372 162.808 145.127 162.595 144.924C162.392 144.711 162.147 144.545 161.859 144.428C161.582 144.3 161.272 144.236 160.931 144.236C160.579 144.236 160.259 144.3 159.971 144.428C159.694 144.545 159.454 144.711 159.251 144.924C159.048 145.137 158.888 145.388 158.771 145.676C158.654 145.953 158.584 146.252 158.563 146.572H163.315ZM164.627 148.876C164.446 149.804 164.046 150.503 163.427 150.972C162.808 151.441 162.03 151.676 161.091 151.676C160.43 151.676 159.854 151.569 159.363 151.356C158.883 151.143 158.478 150.844 158.147 150.46C157.816 150.076 157.566 149.617 157.395 149.084C157.235 148.551 157.144 147.969 157.123 147.34C157.123 146.711 157.219 146.135 157.411 145.612C157.603 145.089 157.87 144.636 158.211 144.252C158.563 143.868 158.974 143.569 159.443 143.356C159.923 143.143 160.446 143.036 161.011 143.036C161.747 143.036 162.355 143.191 162.835 143.5C163.326 143.799 163.715 144.183 164.003 144.652C164.302 145.121 164.504 145.633 164.611 146.188C164.728 146.743 164.776 147.271 164.755 147.772H158.563C158.552 148.135 158.595 148.481 158.691 148.812C158.787 149.132 158.942 149.42 159.155 149.676C159.368 149.921 159.64 150.119 159.971 150.268C160.302 150.417 160.691 150.492 161.139 150.492C161.715 150.492 162.184 150.359 162.547 150.092C162.92 149.825 163.166 149.42 163.283 148.876H164.627ZM166.997 148.892C167.007 149.191 167.077 149.447 167.205 149.66C167.333 149.863 167.498 150.028 167.701 150.156C167.914 150.273 168.149 150.359 168.405 150.412C168.671 150.465 168.943 150.492 169.221 150.492C169.434 150.492 169.658 150.476 169.893 150.444C170.127 150.412 170.341 150.353 170.533 150.268C170.735 150.183 170.901 150.06 171.029 149.9C171.157 149.729 171.221 149.516 171.221 149.26C171.221 148.908 171.087 148.641 170.821 148.46C170.554 148.279 170.218 148.135 169.813 148.028C169.418 147.911 168.986 147.809 168.517 147.724C168.047 147.628 167.61 147.5 167.205 147.34C166.81 147.169 166.479 146.935 166.213 146.636C165.946 146.337 165.813 145.921 165.813 145.388C165.813 144.972 165.903 144.615 166.085 144.316C166.277 144.017 166.517 143.777 166.805 143.596C167.103 143.404 167.434 143.265 167.797 143.18C168.17 143.084 168.538 143.036 168.901 143.036C169.37 143.036 169.802 143.079 170.197 143.164C170.591 143.239 170.938 143.377 171.237 143.58C171.546 143.772 171.791 144.039 171.973 144.38C172.154 144.711 172.261 145.127 172.293 145.628H170.933C170.911 145.361 170.842 145.143 170.725 144.972C170.607 144.791 170.458 144.647 170.277 144.54C170.095 144.433 169.893 144.359 169.669 144.316C169.455 144.263 169.237 144.236 169.013 144.236C168.81 144.236 168.602 144.252 168.389 144.284C168.186 144.316 167.999 144.375 167.829 144.46C167.658 144.535 167.519 144.641 167.413 144.78C167.306 144.908 167.253 145.079 167.253 145.292C167.253 145.527 167.333 145.724 167.493 145.884C167.663 146.033 167.877 146.161 168.133 146.268C168.389 146.364 168.677 146.449 168.997 146.524C169.317 146.588 169.637 146.657 169.957 146.732C170.298 146.807 170.629 146.897 170.949 147.004C171.279 147.111 171.567 147.255 171.813 147.436C172.069 147.607 172.271 147.825 172.421 148.092C172.581 148.359 172.661 148.689 172.661 149.084C172.661 149.585 172.554 150.001 172.341 150.332C172.138 150.663 171.866 150.929 171.525 151.132C171.194 151.335 170.815 151.473 170.389 151.548C169.973 151.633 169.557 151.676 169.141 151.676C168.682 151.676 168.245 151.628 167.829 151.532C167.413 151.436 167.045 151.281 166.725 151.068C166.405 150.844 166.149 150.556 165.957 150.204C165.765 149.841 165.658 149.404 165.637 148.892H166.997ZM176.053 143.228H177.701V144.428H176.053V149.564C176.053 149.724 176.063 149.852 176.085 149.948C176.117 150.044 176.17 150.119 176.245 150.172C176.319 150.225 176.421 150.263 176.549 150.284C176.687 150.295 176.863 150.3 177.077 150.3H177.701V151.5H176.661C176.309 151.5 176.005 151.479 175.749 151.436C175.503 151.383 175.301 151.292 175.141 151.164C174.991 151.036 174.879 150.855 174.805 150.62C174.73 150.385 174.693 150.076 174.693 149.692V144.428H173.285V143.228H174.693V140.748H176.053V143.228ZM184.956 146.572C184.934 146.252 184.86 145.948 184.732 145.66C184.614 145.372 184.449 145.127 184.236 144.924C184.033 144.711 183.788 144.545 183.5 144.428C183.222 144.3 182.913 144.236 182.572 144.236C182.22 144.236 181.9 144.3 181.612 144.428C181.334 144.545 181.094 144.711 180.892 144.924C180.689 145.137 180.529 145.388 180.412 145.676C180.294 145.953 180.225 146.252 180.204 146.572H184.956ZM186.267 148.876C186.086 149.804 185.686 150.503 185.068 150.972C184.449 151.441 183.67 151.676 182.732 151.676C182.07 151.676 181.494 151.569 181.004 151.356C180.524 151.143 180.118 150.844 179.788 150.46C179.457 150.076 179.206 149.617 179.036 149.084C178.876 148.551 178.785 147.969 178.764 147.34C178.764 146.711 178.86 146.135 179.052 145.612C179.244 145.089 179.51 144.636 179.852 144.252C180.204 143.868 180.614 143.569 181.084 143.356C181.564 143.143 182.086 143.036 182.652 143.036C183.388 143.036 183.996 143.191 184.476 143.5C184.966 143.799 185.356 144.183 185.644 144.652C185.942 145.121 186.145 145.633 186.252 146.188C186.369 146.743 186.417 147.271 186.396 147.772H180.204C180.193 148.135 180.236 148.481 180.332 148.812C180.428 149.132 180.582 149.42 180.796 149.676C181.009 149.921 181.281 150.119 181.612 150.268C181.942 150.417 182.332 150.492 182.78 150.492C183.356 150.492 183.825 150.359 184.188 150.092C184.561 149.825 184.806 149.42 184.924 148.876H186.267ZM188.797 147.436C188.797 147.82 188.845 148.199 188.941 148.572C189.048 148.935 189.203 149.26 189.405 149.548C189.619 149.836 189.885 150.065 190.205 150.236C190.536 150.407 190.92 150.492 191.357 150.492C191.816 150.492 192.205 150.401 192.525 150.22C192.845 150.039 193.107 149.804 193.309 149.516C193.512 149.217 193.656 148.881 193.741 148.508C193.837 148.135 193.885 147.756 193.885 147.372C193.885 146.967 193.837 146.577 193.741 146.204C193.645 145.82 193.491 145.484 193.277 145.196C193.075 144.908 192.808 144.679 192.477 144.508C192.147 144.327 191.747 144.236 191.277 144.236C190.819 144.236 190.429 144.327 190.109 144.508C189.789 144.689 189.533 144.929 189.341 145.228C189.149 145.527 189.011 145.868 188.925 146.252C188.84 146.636 188.797 147.031 188.797 147.436ZM195.197 151.5H193.837V150.38H193.805C193.581 150.839 193.229 151.169 192.749 151.372C192.269 151.575 191.741 151.676 191.165 151.676C190.525 151.676 189.965 151.559 189.485 151.324C189.016 151.089 188.621 150.775 188.301 150.38C187.992 149.985 187.757 149.527 187.597 149.004C187.437 148.481 187.357 147.927 187.357 147.34C187.357 146.753 187.432 146.199 187.581 145.676C187.741 145.153 187.976 144.7 188.285 144.316C188.605 143.921 189 143.612 189.469 143.388C189.949 143.153 190.504 143.036 191.133 143.036C191.347 143.036 191.576 143.057 191.821 143.1C192.067 143.143 192.312 143.217 192.557 143.324C192.803 143.42 193.032 143.553 193.245 143.724C193.469 143.884 193.656 144.087 193.805 144.332H193.837V140.076H195.197V151.5ZM201.823 140.076H203.183V151.5H201.823V140.076ZM211.034 146.572C211.012 146.252 210.938 145.948 210.81 145.66C210.692 145.372 210.527 145.127 210.314 144.924C210.111 144.711 209.866 144.545 209.578 144.428C209.3 144.3 208.991 144.236 208.65 144.236C208.298 144.236 207.978 144.3 207.69 144.428C207.412 144.545 207.172 144.711 206.97 144.924C206.767 145.137 206.607 145.388 206.49 145.676C206.372 145.953 206.303 146.252 206.282 146.572H211.034ZM212.346 148.876C212.164 149.804 211.764 150.503 211.146 150.972C210.527 151.441 209.748 151.676 208.81 151.676C208.148 151.676 207.572 151.569 207.082 151.356C206.602 151.143 206.196 150.844 205.866 150.46C205.535 150.076 205.284 149.617 205.114 149.084C204.954 148.551 204.863 147.969 204.842 147.34C204.842 146.711 204.938 146.135 205.13 145.612C205.322 145.089 205.588 144.636 205.93 144.252C206.282 143.868 206.692 143.569 207.162 143.356C207.642 143.143 208.164 143.036 208.73 143.036C209.466 143.036 210.074 143.191 210.554 143.5C211.044 143.799 211.434 144.183 211.722 144.652C212.02 145.121 212.223 145.633 212.33 146.188C212.447 146.743 212.495 147.271 212.474 147.772H206.282C206.271 148.135 206.314 148.481 206.41 148.812C206.506 149.132 206.66 149.42 206.874 149.676C207.087 149.921 207.359 150.119 207.69 150.268C208.02 150.417 208.41 150.492 208.858 150.492C209.434 150.492 209.903 150.359 210.266 150.092C210.639 149.825 210.884 149.42 211.002 148.876H212.346ZM217.611 151.5H216.155L213.083 143.228H214.603L216.923 150.124H216.955L219.211 143.228H220.635L217.611 151.5ZM227.627 146.572C227.606 146.252 227.531 145.948 227.403 145.66C227.286 145.372 227.121 145.127 226.907 144.924C226.705 144.711 226.459 144.545 226.171 144.428C225.894 144.3 225.585 144.236 225.243 144.236C224.891 144.236 224.571 144.3 224.283 144.428C224.006 144.545 223.766 144.711 223.563 144.924C223.361 145.137 223.201 145.388 223.083 145.676C222.966 145.953 222.897 146.252 222.875 146.572H227.627ZM228.939 148.876C228.758 149.804 228.358 150.503 227.739 150.972C227.121 151.441 226.342 151.676 225.403 151.676C224.742 151.676 224.166 151.569 223.675 151.356C223.195 151.143 222.79 150.844 222.459 150.46C222.129 150.076 221.878 149.617 221.707 149.084C221.547 148.551 221.457 147.969 221.435 147.34C221.435 146.711 221.531 146.135 221.723 145.612C221.915 145.089 222.182 144.636 222.523 144.252C222.875 143.868 223.286 143.569 223.755 143.356C224.235 143.143 224.758 143.036 225.323 143.036C226.059 143.036 226.667 143.191 227.147 143.5C227.638 143.799 228.027 144.183 228.315 144.652C228.614 145.121 228.817 145.633 228.923 146.188C229.041 146.743 229.089 147.271 229.067 147.772H222.875C222.865 148.135 222.907 148.481 223.003 148.812C223.099 149.132 223.254 149.42 223.467 149.676C223.681 149.921 223.953 150.119 224.283 150.268C224.614 150.417 225.003 150.492 225.451 150.492C226.027 150.492 226.497 150.359 226.859 150.092C227.233 149.825 227.478 149.42 227.595 148.876H228.939ZM230.557 140.076H231.917V151.5H230.557V140.076ZM236.104 145.004H234.328V143.228H236.104V145.004ZM234.328 149.724H236.104V151.5H234.328V149.724ZM244.018 145.916C244.018 146.343 244.029 146.823 244.05 147.356C244.082 147.879 244.168 148.375 244.306 148.844C244.456 149.303 244.69 149.692 245.01 150.012C245.33 150.332 245.778 150.492 246.354 150.492C246.93 150.492 247.378 150.332 247.698 150.012C248.018 149.692 248.248 149.303 248.386 148.844C248.536 148.375 248.621 147.879 248.642 147.356C248.674 146.823 248.69 146.343 248.69 145.916C248.69 145.639 248.685 145.335 248.674 145.004C248.674 144.663 248.648 144.327 248.594 143.996C248.552 143.655 248.482 143.324 248.386 143.004C248.301 142.684 248.168 142.407 247.986 142.172C247.816 141.927 247.597 141.729 247.33 141.58C247.064 141.431 246.738 141.356 246.354 141.356C245.97 141.356 245.645 141.431 245.378 141.58C245.112 141.729 244.888 141.927 244.706 142.172C244.536 142.407 244.402 142.684 244.306 143.004C244.221 143.324 244.152 143.655 244.098 143.996C244.056 144.327 244.029 144.663 244.018 145.004C244.018 145.335 244.018 145.639 244.018 145.916ZM242.578 145.932C242.578 145.516 242.589 145.084 242.61 144.636C242.632 144.188 242.685 143.751 242.77 143.324C242.856 142.897 242.978 142.492 243.138 142.108C243.298 141.724 243.517 141.388 243.794 141.1C244.072 140.812 244.418 140.583 244.834 140.412C245.261 140.241 245.768 140.156 246.354 140.156C246.941 140.156 247.442 140.241 247.858 140.412C248.285 140.583 248.637 140.812 248.914 141.1C249.192 141.388 249.41 141.724 249.57 142.108C249.73 142.492 249.853 142.897 249.938 143.324C250.024 143.751 250.077 144.188 250.098 144.636C250.12 145.084 250.13 145.516 250.13 145.932C250.13 146.348 250.12 146.78 250.098 147.228C250.077 147.676 250.024 148.113 249.938 148.54C249.853 148.967 249.73 149.372 249.57 149.756C249.41 150.129 249.192 150.46 248.914 150.748C248.637 151.036 248.29 151.265 247.874 151.436C247.458 151.596 246.952 151.676 246.354 151.676C245.768 151.676 245.261 151.596 244.834 151.436C244.418 151.265 244.072 151.036 243.794 150.748C243.517 150.46 243.298 150.129 243.138 149.756C242.978 149.372 242.856 148.967 242.77 148.54C242.685 148.113 242.632 147.676 242.61 147.228C242.589 146.78 242.578 146.348 242.578 145.932Z" fill="black" fill-opacity="0.68"/>
<g clip-path="url(#clip3_66785_16266)">
<path fill-rule="evenodd" clip-rule="evenodd" d="M299.615 142.308L292.028 151.058C291.811 151.308 291.477 151.469 291.103 151.469C290.728 151.469 290.395 151.308 290.177 151.058L286.384 146.683C286.222 146.496 286.124 146.259 286.124 146C286.124 145.698 286.257 145.425 286.472 145.227L286.946 144.789C287.16 144.591 287.457 144.469 287.784 144.469C288.078 144.469 288.348 144.568 288.555 144.732L290.866 147.094L297.878 140.827C298.09 140.644 298.375 140.531 298.689 140.531C299.344 140.531 299.874 141.021 299.874 141.625C299.874 141.884 299.777 142.121 299.615 142.308Z" fill="black"/>
</g>
<path d="M321.368 147.872C321.368 149.333 320.979 150.432 320.2 151.168C319.421 151.893 318.312 152.256 316.872 152.256C315.4 152.256 314.248 151.909 313.416 151.216C312.595 150.512 312.184 149.397 312.184 147.872V140.576H313.704V147.872C313.704 148.896 313.976 149.675 314.52 150.208C315.064 150.731 315.848 150.992 316.872 150.992C317.843 150.992 318.579 150.731 319.08 150.208C319.592 149.675 319.848 148.896 319.848 147.872V140.576H321.368V147.872ZM323.771 143.728H325.051V145.04H325.083C325.648 144.037 326.544 143.536 327.771 143.536C328.315 143.536 328.768 143.611 329.131 143.76C329.494 143.909 329.787 144.117 330.011 144.384C330.235 144.651 330.39 144.971 330.475 145.344C330.571 145.707 330.619 146.112 330.619 146.56V152H329.259V146.4C329.259 145.888 329.11 145.483 328.811 145.184C328.512 144.885 328.102 144.736 327.579 144.736C327.163 144.736 326.8 144.8 326.491 144.928C326.192 145.056 325.942 145.237 325.739 145.472C325.536 145.707 325.382 145.984 325.275 146.304C325.179 146.613 325.131 146.955 325.131 147.328V152H323.771V143.728ZM333.853 147.872C333.853 148.373 333.917 148.821 334.045 149.216C334.184 149.6 334.371 149.925 334.605 150.192C334.84 150.448 335.112 150.645 335.421 150.784C335.741 150.923 336.077 150.992 336.429 150.992C336.781 150.992 337.112 150.923 337.421 150.784C337.741 150.645 338.019 150.448 338.253 150.192C338.488 149.925 338.669 149.6 338.798 149.216C338.936 148.821 339.005 148.373 339.005 147.872C339.005 147.371 338.936 146.928 338.798 146.544C338.669 146.149 338.488 145.819 338.253 145.552C338.019 145.285 337.741 145.083 337.421 144.944C337.112 144.805 336.781 144.736 336.429 144.736C336.077 144.736 335.741 144.805 335.421 144.944C335.112 145.083 334.84 145.285 334.605 145.552C334.371 145.819 334.184 146.149 334.045 146.544C333.917 146.928 333.853 147.371 333.853 147.872ZM332.413 147.872C332.413 147.264 332.499 146.699 332.669 146.176C332.84 145.643 333.096 145.184 333.437 144.8C333.779 144.405 334.2 144.096 334.701 143.872C335.203 143.648 335.779 143.536 336.429 143.536C337.091 143.536 337.667 143.648 338.157 143.872C338.659 144.096 339.08 144.405 339.422 144.8C339.763 145.184 340.019 145.643 340.189 146.176C340.36 146.699 340.446 147.264 340.446 147.872C340.446 148.48 340.36 149.045 340.189 149.568C340.019 150.091 339.763 150.549 339.422 150.944C339.08 151.328 338.659 151.632 338.157 151.856C337.667 152.069 337.091 152.176 336.429 152.176C335.779 152.176 335.203 152.069 334.701 151.856C334.2 151.632 333.779 151.328 333.437 150.944C333.096 150.549 332.84 150.091 332.669 149.568C332.499 149.045 332.413 148.48 332.413 147.872ZM342.201 143.728H343.481V145.472H343.513C343.844 144.8 344.249 144.304 344.729 143.984C345.209 143.664 345.817 143.515 346.553 143.536V144.976C346.009 144.976 345.545 145.051 345.161 145.2C344.777 145.349 344.468 145.568 344.233 145.856C343.998 146.144 343.828 146.496 343.721 146.912C343.614 147.317 343.561 147.787 343.561 148.32V152H342.201V143.728ZM348.488 147.936C348.488 148.32 348.536 148.699 348.632 149.072C348.739 149.435 348.893 149.76 349.096 150.048C349.309 150.336 349.576 150.565 349.896 150.736C350.227 150.907 350.611 150.992 351.048 150.992C351.507 150.992 351.896 150.901 352.216 150.72C352.536 150.539 352.797 150.304 353 150.016C353.203 149.717 353.347 149.381 353.432 149.008C353.528 148.635 353.576 148.256 353.576 147.872C353.576 147.467 353.528 147.077 353.432 146.704C353.336 146.32 353.181 145.984 352.968 145.696C352.765 145.408 352.499 145.179 352.168 145.008C351.837 144.827 351.437 144.736 350.968 144.736C350.509 144.736 350.12 144.827 349.8 145.008C349.48 145.189 349.224 145.429 349.032 145.728C348.84 146.027 348.701 146.368 348.616 146.752C348.531 147.136 348.488 147.531 348.488 147.936ZM354.888 152H353.528V150.88H353.496C353.272 151.339 352.92 151.669 352.44 151.872C351.96 152.075 351.432 152.176 350.856 152.176C350.216 152.176 349.656 152.059 349.176 151.824C348.707 151.589 348.312 151.275 347.992 150.88C347.683 150.485 347.448 150.027 347.288 149.504C347.128 148.981 347.048 148.427 347.048 147.84C347.048 147.253 347.123 146.699 347.272 146.176C347.432 145.653 347.667 145.2 347.976 144.816C348.296 144.421 348.691 144.112 349.16 143.888C349.64 143.653 350.195 143.536 350.824 143.536C351.037 143.536 351.267 143.557 351.512 143.6C351.757 143.643 352.003 143.717 352.248 143.824C352.493 143.92 352.723 144.053 352.936 144.224C353.16 144.384 353.347 144.587 353.496 144.832H353.528V140.576H354.888V152ZM362.924 147.072C362.903 146.752 362.828 146.448 362.7 146.16C362.583 145.872 362.418 145.627 362.204 145.424C362.002 145.211 361.756 145.045 361.468 144.928C361.191 144.8 360.882 144.736 360.54 144.736C360.188 144.736 359.868 144.8 359.58 144.928C359.303 145.045 359.063 145.211 358.86 145.424C358.658 145.637 358.498 145.888 358.38 146.176C358.263 146.453 358.194 146.752 358.172 147.072H362.924ZM364.236 149.376C364.055 150.304 363.655 151.003 363.036 151.472C362.418 151.941 361.639 152.176 360.7 152.176C360.039 152.176 359.463 152.069 358.972 151.856C358.492 151.643 358.087 151.344 357.756 150.96C357.426 150.576 357.175 150.117 357.004 149.584C356.844 149.051 356.754 148.469 356.732 147.84C356.732 147.211 356.828 146.635 357.02 146.112C357.212 145.589 357.479 145.136 357.82 144.752C358.172 144.368 358.583 144.069 359.052 143.856C359.532 143.643 360.055 143.536 360.62 143.536C361.356 143.536 361.964 143.691 362.444 144C362.935 144.299 363.324 144.683 363.612 145.152C363.911 145.621 364.114 146.133 364.22 146.688C364.338 147.243 364.386 147.771 364.364 148.272H358.172C358.162 148.635 358.204 148.981 358.3 149.312C358.396 149.632 358.551 149.92 358.764 150.176C358.978 150.421 359.25 150.619 359.58 150.768C359.911 150.917 360.3 150.992 360.748 150.992C361.324 150.992 361.794 150.859 362.156 150.592C362.53 150.325 362.775 149.92 362.892 149.376H364.236ZM365.926 143.728H367.206V145.472H367.238C367.569 144.8 367.974 144.304 368.454 143.984C368.934 143.664 369.542 143.515 370.278 143.536V144.976C369.734 144.976 369.27 145.051 368.886 145.2C368.502 145.349 368.193 145.568 367.958 145.856C367.723 146.144 367.553 146.496 367.446 146.912C367.339 147.317 367.286 147.787 367.286 148.32V152H365.926V143.728ZM376.965 147.072C376.944 146.752 376.869 146.448 376.741 146.16C376.624 145.872 376.458 145.627 376.245 145.424C376.042 145.211 375.797 145.045 375.509 144.928C375.232 144.8 374.922 144.736 374.581 144.736C374.229 144.736 373.909 144.8 373.621 144.928C373.344 145.045 373.104 145.211 372.901 145.424C372.698 145.637 372.538 145.888 372.421 146.176C372.304 146.453 372.234 146.752 372.213 147.072H376.965ZM378.277 149.376C378.096 150.304 377.696 151.003 377.077 151.472C376.458 151.941 375.68 152.176 374.741 152.176C374.08 152.176 373.504 152.069 373.013 151.856C372.533 151.643 372.128 151.344 371.797 150.96C371.466 150.576 371.216 150.117 371.045 149.584C370.885 149.051 370.794 148.469 370.773 147.84C370.773 147.211 370.869 146.635 371.061 146.112C371.253 145.589 371.52 145.136 371.861 144.752C372.213 144.368 372.624 144.069 373.093 143.856C373.573 143.643 374.096 143.536 374.661 143.536C375.397 143.536 376.005 143.691 376.485 144C376.976 144.299 377.365 144.683 377.653 145.152C377.952 145.621 378.154 146.133 378.261 146.688C378.378 147.243 378.426 147.771 378.405 148.272H372.213C372.202 148.635 372.245 148.981 372.341 149.312C372.437 149.632 372.592 149.92 372.805 150.176C373.018 150.421 373.29 150.619 373.621 150.768C373.952 150.917 374.341 150.992 374.789 150.992C375.365 150.992 375.834 150.859 376.197 150.592C376.57 150.325 376.816 149.92 376.933 149.376H378.277ZM381.007 147.936C381.007 148.32 381.055 148.699 381.151 149.072C381.257 149.435 381.412 149.76 381.615 150.048C381.828 150.336 382.095 150.565 382.415 150.736C382.745 150.907 383.129 150.992 383.567 150.992C384.025 150.992 384.415 150.901 384.735 150.72C385.055 150.539 385.316 150.304 385.519 150.016C385.721 149.717 385.865 149.381 385.951 149.008C386.047 148.635 386.095 148.256 386.095 147.872C386.095 147.467 386.047 147.077 385.951 146.704C385.855 146.32 385.7 145.984 385.487 145.696C385.284 145.408 385.017 145.179 384.687 145.008C384.356 144.827 383.956 144.736 383.487 144.736C383.028 144.736 382.639 144.827 382.319 145.008C381.999 145.189 381.743 145.429 381.551 145.728C381.359 146.027 381.22 146.368 381.135 146.752C381.049 147.136 381.007 147.531 381.007 147.936ZM387.407 152H386.047V150.88H386.015C385.791 151.339 385.439 151.669 384.959 151.872C384.479 152.075 383.951 152.176 383.375 152.176C382.735 152.176 382.175 152.059 381.695 151.824C381.225 151.589 380.831 151.275 380.511 150.88C380.201 150.485 379.967 150.027 379.807 149.504C379.647 148.981 379.567 148.427 379.567 147.84C379.567 147.253 379.641 146.699 379.791 146.176C379.951 145.653 380.185 145.2 380.495 144.816C380.815 144.421 381.209 144.112 381.679 143.888C382.159 143.653 382.713 143.536 383.343 143.536C383.556 143.536 383.785 143.557 384.031 143.6C384.276 143.643 384.521 143.717 384.767 143.824C385.012 143.92 385.241 144.053 385.455 144.224C385.679 144.384 385.865 144.587 386.015 144.832H386.047V140.576H387.407V152ZM394.432 140.576H395.792V152H394.432V140.576ZM399.539 142.24H398.179V140.576H399.539V142.24ZM398.179 143.728H399.539V152H398.179V143.728ZM402.678 149.392C402.689 149.691 402.758 149.947 402.886 150.16C403.014 150.363 403.179 150.528 403.382 150.656C403.595 150.773 403.83 150.859 404.086 150.912C404.353 150.965 404.625 150.992 404.902 150.992C405.115 150.992 405.339 150.976 405.574 150.944C405.809 150.912 406.022 150.853 406.214 150.768C406.417 150.683 406.582 150.56 406.71 150.4C406.838 150.229 406.902 150.016 406.902 149.76C406.902 149.408 406.769 149.141 406.502 148.96C406.235 148.779 405.899 148.635 405.494 148.528C405.099 148.411 404.667 148.309 404.198 148.224C403.729 148.128 403.291 148 402.886 147.84C402.491 147.669 402.161 147.435 401.894 147.136C401.627 146.837 401.494 146.421 401.494 145.888C401.494 145.472 401.585 145.115 401.766 144.816C401.958 144.517 402.198 144.277 402.486 144.096C402.785 143.904 403.115 143.765 403.478 143.68C403.851 143.584 404.219 143.536 404.582 143.536C405.051 143.536 405.483 143.579 405.878 143.664C406.273 143.739 406.619 143.877 406.918 144.08C407.227 144.272 407.473 144.539 407.654 144.88C407.835 145.211 407.942 145.627 407.974 146.128H406.614C406.593 145.861 406.523 145.643 406.406 145.472C406.289 145.291 406.139 145.147 405.958 145.04C405.777 144.933 405.574 144.859 405.35 144.816C405.137 144.763 404.918 144.736 404.694 144.736C404.491 144.736 404.283 144.752 404.07 144.784C403.867 144.816 403.681 144.875 403.51 144.96C403.339 145.035 403.201 145.141 403.094 145.28C402.987 145.408 402.934 145.579 402.934 145.792C402.934 146.027 403.014 146.224 403.174 146.384C403.345 146.533 403.558 146.661 403.814 146.768C404.07 146.864 404.358 146.949 404.678 147.024C404.998 147.088 405.318 147.157 405.638 147.232C405.979 147.307 406.31 147.397 406.63 147.504C406.961 147.611 407.249 147.755 407.494 147.936C407.75 148.107 407.953 148.325 408.102 148.592C408.262 148.859 408.342 149.189 408.342 149.584C408.342 150.085 408.235 150.501 408.022 150.832C407.819 151.163 407.547 151.429 407.206 151.632C406.875 151.835 406.497 151.973 406.07 152.048C405.654 152.133 405.238 152.176 404.822 152.176C404.363 152.176 403.926 152.128 403.51 152.032C403.094 151.936 402.726 151.781 402.406 151.568C402.086 151.344 401.83 151.056 401.638 150.704C401.446 150.341 401.339 149.904 401.318 149.392H402.678ZM411.934 143.728H413.582V144.928H411.934V150.064C411.934 150.224 411.945 150.352 411.966 150.448C411.998 150.544 412.051 150.619 412.126 150.672C412.201 150.725 412.302 150.763 412.43 150.784C412.569 150.795 412.745 150.8 412.958 150.8H413.582V152H412.542C412.19 152 411.886 151.979 411.63 151.936C411.385 151.883 411.182 151.792 411.022 151.664C410.873 151.536 410.761 151.355 410.686 151.12C410.611 150.885 410.574 150.576 410.574 150.192V144.928H409.166V143.728H410.574V141.248H411.934V143.728Z" fill="black"/>
<defs>
<clipPath id="clip0_66785_16266">
<rect width="20" height="20" fill="white" transform="translate(283 28)"/>
</clipPath>
<clipPath id="clip1_66785_16266">
<rect width="20" height="20" fill="white" transform="translate(315 64)"/>
</clipPath>
<clipPath id="clip2_66785_16266">
<rect width="20" height="20" fill="white" transform="translate(315 100)"/>
</clipPath>
<clipPath id="clip3_66785_16266">
<rect width="20" height="20" fill="white" transform="translate(283 136)"/>
</clipPath>
</defs>
</svg>
