<svg width="600" height="1208" viewBox="0 0 600 1208" fill="none" xmlns="http://www.w3.org/2000/svg">
<rect width="600" height="1208" fill="black" fill-opacity="0.04"/>
<path d="M174.248 475.076H182.136V476.356H175.768V479.988H181.704V481.268H175.768V485.22H182.184V486.5H174.248V475.076ZM183.805 478.228H185.085V479.54H185.117C185.683 478.537 186.579 478.036 187.805 478.036C188.349 478.036 188.803 478.111 189.165 478.26C189.528 478.409 189.821 478.617 190.045 478.884C190.269 479.151 190.424 479.471 190.509 479.844C190.605 480.207 190.653 480.612 190.653 481.06V486.5H189.293V480.9C189.293 480.388 189.144 479.983 188.845 479.684C188.547 479.385 188.136 479.236 187.613 479.236C187.197 479.236 186.835 479.3 186.525 479.428C186.227 479.556 185.976 479.737 185.773 479.972C185.571 480.207 185.416 480.484 185.309 480.804C185.213 481.113 185.165 481.455 185.165 481.828V486.5H183.805V478.228ZM200.024 486.468C199.789 486.607 199.464 486.676 199.048 486.676C198.696 486.676 198.413 486.58 198.2 486.388C197.997 486.185 197.896 485.86 197.896 485.412C197.523 485.86 197.085 486.185 196.584 486.388C196.093 486.58 195.56 486.676 194.984 486.676C194.611 486.676 194.253 486.633 193.912 486.548C193.581 486.463 193.293 486.329 193.048 486.148C192.803 485.967 192.605 485.732 192.456 485.444C192.317 485.145 192.248 484.788 192.248 484.372C192.248 483.903 192.328 483.519 192.488 483.22C192.648 482.921 192.856 482.681 193.112 482.5C193.379 482.308 193.677 482.164 194.008 482.068C194.349 481.972 194.696 481.892 195.048 481.828C195.421 481.753 195.773 481.7 196.104 481.668C196.445 481.625 196.744 481.572 197 481.508C197.256 481.433 197.459 481.332 197.608 481.204C197.757 481.065 197.832 480.868 197.832 480.612C197.832 480.313 197.773 480.073 197.656 479.892C197.549 479.711 197.405 479.572 197.224 479.476C197.053 479.38 196.856 479.316 196.632 479.284C196.419 479.252 196.205 479.236 195.992 479.236C195.416 479.236 194.936 479.348 194.552 479.572C194.168 479.785 193.96 480.196 193.928 480.804H192.568C192.589 480.292 192.696 479.86 192.888 479.508C193.08 479.156 193.336 478.873 193.656 478.66C193.976 478.436 194.339 478.276 194.744 478.18C195.16 478.084 195.603 478.036 196.072 478.036C196.445 478.036 196.813 478.063 197.176 478.116C197.549 478.169 197.885 478.281 198.184 478.452C198.483 478.612 198.723 478.841 198.904 479.14C199.085 479.439 199.176 479.828 199.176 480.308V484.564C199.176 484.884 199.192 485.119 199.224 485.268C199.267 485.417 199.395 485.492 199.608 485.492C199.725 485.492 199.864 485.465 200.024 485.412V486.468ZM197.816 482.228C197.645 482.356 197.421 482.452 197.144 482.516C196.867 482.569 196.573 482.617 196.264 482.66C195.965 482.692 195.661 482.735 195.352 482.788C195.043 482.831 194.765 482.905 194.52 483.012C194.275 483.119 194.072 483.273 193.912 483.476C193.763 483.668 193.688 483.935 193.688 484.276C193.688 484.5 193.731 484.692 193.816 484.852C193.912 485.001 194.029 485.124 194.168 485.22C194.317 485.316 194.488 485.385 194.68 485.428C194.872 485.471 195.075 485.492 195.288 485.492C195.736 485.492 196.12 485.433 196.44 485.316C196.76 485.188 197.021 485.033 197.224 484.852C197.427 484.66 197.576 484.457 197.672 484.244C197.768 484.02 197.816 483.812 197.816 483.62V482.228ZM201.338 475.076H202.698V479.348H202.73C202.954 478.889 203.306 478.559 203.786 478.356C204.266 478.143 204.794 478.036 205.37 478.036C206.01 478.036 206.564 478.153 207.034 478.388C207.514 478.623 207.908 478.943 208.218 479.348C208.538 479.743 208.778 480.201 208.938 480.724C209.098 481.247 209.178 481.801 209.178 482.388C209.178 482.975 209.098 483.529 208.938 484.052C208.788 484.575 208.554 485.033 208.234 485.428C207.924 485.812 207.53 486.116 207.05 486.34C206.58 486.564 206.031 486.676 205.402 486.676C205.199 486.676 204.97 486.655 204.714 486.612C204.468 486.569 204.223 486.5 203.978 486.404C203.732 486.308 203.498 486.18 203.274 486.02C203.06 485.849 202.879 485.641 202.73 485.396H202.698V486.5H201.338V475.076ZM207.738 482.292C207.738 481.908 207.684 481.535 207.578 481.172C207.482 480.799 207.327 480.468 207.114 480.18C206.911 479.892 206.644 479.663 206.314 479.492C205.994 479.321 205.615 479.236 205.178 479.236C204.719 479.236 204.33 479.327 204.01 479.508C203.69 479.689 203.428 479.929 203.226 480.228C203.023 480.516 202.874 480.847 202.778 481.22C202.692 481.593 202.65 481.972 202.65 482.356C202.65 482.761 202.698 483.156 202.794 483.54C202.89 483.913 203.039 484.244 203.242 484.532C203.455 484.82 203.727 485.055 204.058 485.236C204.388 485.407 204.788 485.492 205.258 485.492C205.727 485.492 206.116 485.401 206.426 485.22C206.746 485.039 207.002 484.799 207.194 484.5C207.386 484.201 207.524 483.86 207.61 483.476C207.695 483.092 207.738 482.697 207.738 482.292ZM210.854 475.076H212.214V486.5H210.854V475.076ZM220.065 481.572C220.044 481.252 219.969 480.948 219.841 480.66C219.724 480.372 219.558 480.127 219.345 479.924C219.142 479.711 218.897 479.545 218.609 479.428C218.332 479.3 218.022 479.236 217.681 479.236C217.329 479.236 217.009 479.3 216.721 479.428C216.444 479.545 216.204 479.711 216.001 479.924C215.798 480.137 215.638 480.388 215.521 480.676C215.404 480.953 215.334 481.252 215.313 481.572H220.065ZM221.377 483.876C221.196 484.804 220.796 485.503 220.177 485.972C219.558 486.441 218.78 486.676 217.841 486.676C217.18 486.676 216.604 486.569 216.113 486.356C215.633 486.143 215.228 485.844 214.897 485.46C214.566 485.076 214.316 484.617 214.145 484.084C213.985 483.551 213.894 482.969 213.873 482.34C213.873 481.711 213.969 481.135 214.161 480.612C214.353 480.089 214.62 479.636 214.961 479.252C215.313 478.868 215.724 478.569 216.193 478.356C216.673 478.143 217.196 478.036 217.761 478.036C218.497 478.036 219.105 478.191 219.585 478.5C220.076 478.799 220.465 479.183 220.753 479.652C221.052 480.121 221.254 480.633 221.361 481.188C221.478 481.743 221.526 482.271 221.505 482.772H215.313C215.302 483.135 215.345 483.481 215.441 483.812C215.537 484.132 215.692 484.42 215.905 484.676C216.118 484.921 216.39 485.119 216.721 485.268C217.052 485.417 217.441 485.492 217.889 485.492C218.465 485.492 218.934 485.359 219.297 485.092C219.67 484.825 219.916 484.42 220.033 483.876H221.377ZM223.907 482.436C223.907 482.82 223.955 483.199 224.051 483.572C224.157 483.935 224.312 484.26 224.515 484.548C224.728 484.836 224.995 485.065 225.315 485.236C225.645 485.407 226.029 485.492 226.467 485.492C226.925 485.492 227.315 485.401 227.635 485.22C227.955 485.039 228.216 484.804 228.419 484.516C228.621 484.217 228.765 483.881 228.851 483.508C228.947 483.135 228.995 482.756 228.995 482.372C228.995 481.967 228.947 481.577 228.851 481.204C228.755 480.82 228.6 480.484 228.387 480.196C228.184 479.908 227.917 479.679 227.587 479.508C227.256 479.327 226.856 479.236 226.387 479.236C225.928 479.236 225.539 479.327 225.219 479.508C224.899 479.689 224.643 479.929 224.451 480.228C224.259 480.527 224.12 480.868 224.035 481.252C223.949 481.636 223.907 482.031 223.907 482.436ZM230.307 486.5H228.947V485.38H228.915C228.691 485.839 228.339 486.169 227.859 486.372C227.379 486.575 226.851 486.676 226.275 486.676C225.635 486.676 225.075 486.559 224.595 486.324C224.125 486.089 223.731 485.775 223.411 485.38C223.101 484.985 222.867 484.527 222.707 484.004C222.547 483.481 222.467 482.927 222.467 482.34C222.467 481.753 222.541 481.199 222.691 480.676C222.851 480.153 223.085 479.7 223.395 479.316C223.715 478.921 224.109 478.612 224.579 478.388C225.059 478.153 225.613 478.036 226.243 478.036C226.456 478.036 226.685 478.057 226.931 478.1C227.176 478.143 227.421 478.217 227.667 478.324C227.912 478.42 228.141 478.553 228.355 478.724C228.579 478.884 228.765 479.087 228.915 479.332H228.947V475.076H230.307V486.5Z" fill="black" fill-opacity="0.68"/>
<path d="M349 481C349 472.163 356.163 465 365 465H411C419.837 465 427 472.163 427 481C427 489.837 419.837 497 411 497H365C356.163 497 349 489.837 349 481Z" fill="#272727"/>
<path fill-rule="evenodd" clip-rule="evenodd" d="M368.733 480.558L365 484.644L361.267 480.558L361.265 480.556C360.542 479.763 360.606 478.541 361.409 477.827C362.182 477.139 363.365 477.169 364.101 477.896C364.103 477.898 364.105 477.9 364.107 477.902L364.678 478.438L365 478.744L365.322 478.438L365.893 477.902C365.895 477.9 365.897 477.898 365.899 477.896C366.265 477.532 366.763 477.329 367.282 477.33C368.362 477.33 369.238 478.195 369.238 479.262C369.238 479.74 369.059 480.201 368.735 480.556L368.733 480.558ZM369.587 476.985C368.321 475.735 366.275 475.728 365 476.963C363.725 475.728 361.679 475.735 360.413 476.985C359.161 478.222 359.14 480.216 360.352 481.478L365 486.542L369.648 481.478C370.859 480.216 370.839 478.222 369.587 476.985Z" fill="white"/>
<path d="M377.966 476.004H380.164V484.152H385.036V486H377.966V476.004ZM386.146 480.988C386.174 480.521 386.29 480.134 386.496 479.826C386.701 479.518 386.962 479.271 387.28 479.084C387.597 478.897 387.952 478.767 388.344 478.692C388.745 478.608 389.146 478.566 389.548 478.566C389.912 478.566 390.28 478.594 390.654 478.65C391.027 478.697 391.368 478.795 391.676 478.944C391.984 479.093 392.236 479.303 392.432 479.574C392.628 479.835 392.726 480.185 392.726 480.624V484.39C392.726 484.717 392.744 485.029 392.782 485.328C392.819 485.627 392.884 485.851 392.978 486H390.962C390.924 485.888 390.892 485.776 390.864 485.664C390.845 485.543 390.831 485.421 390.822 485.3C390.504 485.627 390.131 485.855 389.702 485.986C389.272 486.117 388.834 486.182 388.386 486.182C388.04 486.182 387.718 486.14 387.42 486.056C387.121 485.972 386.86 485.841 386.636 485.664C386.412 485.487 386.234 485.263 386.104 484.992C385.982 484.721 385.922 484.399 385.922 484.026C385.922 483.615 385.992 483.279 386.132 483.018C386.281 482.747 386.468 482.533 386.692 482.374C386.925 482.215 387.186 482.099 387.476 482.024C387.774 481.94 388.073 481.875 388.372 481.828C388.67 481.781 388.964 481.744 389.254 481.716C389.543 481.688 389.8 481.646 390.024 481.59C390.248 481.534 390.425 481.455 390.556 481.352C390.686 481.24 390.747 481.081 390.738 480.876C390.738 480.661 390.7 480.493 390.626 480.372C390.56 480.241 390.467 480.143 390.346 480.078C390.234 480.003 390.098 479.957 389.94 479.938C389.79 479.91 389.627 479.896 389.45 479.896C389.058 479.896 388.75 479.98 388.526 480.148C388.302 480.316 388.171 480.596 388.134 480.988H386.146ZM390.738 482.458C390.654 482.533 390.546 482.593 390.416 482.64C390.294 482.677 390.159 482.71 390.01 482.738C389.87 482.766 389.72 482.789 389.562 482.808C389.403 482.827 389.244 482.85 389.086 482.878C388.936 482.906 388.787 482.943 388.638 482.99C388.498 483.037 388.372 483.102 388.26 483.186C388.157 483.261 388.073 483.359 388.008 483.48C387.942 483.601 387.91 483.755 387.91 483.942C387.91 484.119 387.942 484.269 388.008 484.39C388.073 484.511 388.162 484.609 388.274 484.684C388.386 484.749 388.516 484.796 388.666 484.824C388.815 484.852 388.969 484.866 389.128 484.866C389.52 484.866 389.823 484.801 390.038 484.67C390.252 484.539 390.411 484.385 390.514 484.208C390.616 484.021 390.677 483.835 390.696 483.648C390.724 483.461 390.738 483.312 390.738 483.2V482.458ZM399.75 482.388C399.75 482.08 399.717 481.786 399.652 481.506C399.587 481.226 399.484 480.979 399.344 480.764C399.204 480.549 399.027 480.381 398.812 480.26C398.607 480.129 398.355 480.064 398.056 480.064C397.767 480.064 397.515 480.129 397.3 480.26C397.085 480.381 396.908 480.549 396.768 480.764C396.628 480.979 396.525 481.226 396.46 481.506C396.395 481.786 396.362 482.08 396.362 482.388C396.362 482.687 396.395 482.976 396.46 483.256C396.525 483.536 396.628 483.783 396.768 483.998C396.908 484.213 397.085 484.385 397.3 484.516C397.515 484.637 397.767 484.698 398.056 484.698C398.355 484.698 398.607 484.637 398.812 484.516C399.027 484.385 399.204 484.213 399.344 483.998C399.484 483.783 399.587 483.536 399.652 483.256C399.717 482.976 399.75 482.687 399.75 482.388ZM394.444 476.004H396.432V479.644H396.46C396.703 479.271 397.029 479 397.44 478.832C397.86 478.655 398.294 478.566 398.742 478.566C399.106 478.566 399.465 478.641 399.82 478.79C400.175 478.939 400.492 479.168 400.772 479.476C401.061 479.784 401.295 480.181 401.472 480.666C401.649 481.142 401.738 481.711 401.738 482.374C401.738 483.037 401.649 483.611 401.472 484.096C401.295 484.572 401.061 484.964 400.772 485.272C400.492 485.58 400.175 485.809 399.82 485.958C399.465 486.107 399.106 486.182 398.742 486.182C398.21 486.182 397.734 486.098 397.314 485.93C396.894 485.762 396.577 485.477 396.362 485.076H396.334V486H394.444V476.004ZM408.049 481.604C407.956 481.1 407.788 480.717 407.545 480.456C407.312 480.195 406.953 480.064 406.467 480.064C406.15 480.064 405.884 480.12 405.669 480.232C405.464 480.335 405.296 480.465 405.165 480.624C405.044 480.783 404.955 480.951 404.899 481.128C404.853 481.305 404.825 481.464 404.815 481.604H408.049ZM404.815 482.864C404.843 483.508 405.007 483.975 405.305 484.264C405.604 484.553 406.033 484.698 406.593 484.698C406.995 484.698 407.34 484.6 407.629 484.404C407.919 484.199 408.096 483.984 408.161 483.76H409.911C409.631 484.628 409.202 485.249 408.623 485.622C408.045 485.995 407.345 486.182 406.523 486.182C405.954 486.182 405.441 486.093 404.983 485.916C404.526 485.729 404.139 485.468 403.821 485.132C403.504 484.796 403.257 484.395 403.079 483.928C402.911 483.461 402.827 482.948 402.827 482.388C402.827 481.847 402.916 481.343 403.093 480.876C403.271 480.409 403.523 480.008 403.849 479.672C404.176 479.327 404.563 479.056 405.011 478.86C405.469 478.664 405.973 478.566 406.523 478.566C407.139 478.566 407.676 478.687 408.133 478.93C408.591 479.163 408.964 479.481 409.253 479.882C409.552 480.283 409.767 480.741 409.897 481.254C410.028 481.767 410.075 482.304 410.037 482.864H404.815ZM411.448 476.004H413.436V486H411.448V476.004Z" fill="white"/>
<path d="M174.248 557.076H175.768V567.22H181.816V568.5H174.248V557.076ZM183.907 564.372C183.907 564.873 183.971 565.321 184.099 565.716C184.237 566.1 184.424 566.425 184.659 566.692C184.893 566.948 185.165 567.145 185.475 567.284C185.795 567.423 186.131 567.492 186.483 567.492C186.835 567.492 187.165 567.423 187.475 567.284C187.795 567.145 188.072 566.948 188.307 566.692C188.541 566.425 188.723 566.1 188.851 565.716C188.989 565.321 189.059 564.873 189.059 564.372C189.059 563.871 188.989 563.428 188.851 563.044C188.723 562.649 188.541 562.319 188.307 562.052C188.072 561.785 187.795 561.583 187.475 561.444C187.165 561.305 186.835 561.236 186.483 561.236C186.131 561.236 185.795 561.305 185.475 561.444C185.165 561.583 184.893 561.785 184.659 562.052C184.424 562.319 184.237 562.649 184.099 563.044C183.971 563.428 183.907 563.871 183.907 564.372ZM182.467 564.372C182.467 563.764 182.552 563.199 182.723 562.676C182.893 562.143 183.149 561.684 183.491 561.3C183.832 560.905 184.253 560.596 184.755 560.372C185.256 560.148 185.832 560.036 186.483 560.036C187.144 560.036 187.72 560.148 188.211 560.372C188.712 560.596 189.133 560.905 189.475 561.3C189.816 561.684 190.072 562.143 190.243 562.676C190.413 563.199 190.499 563.764 190.499 564.372C190.499 564.98 190.413 565.545 190.243 566.068C190.072 566.591 189.816 567.049 189.475 567.444C189.133 567.828 188.712 568.132 188.211 568.356C187.72 568.569 187.144 568.676 186.483 568.676C185.832 568.676 185.256 568.569 184.755 568.356C184.253 568.132 183.832 567.828 183.491 567.444C183.149 567.049 182.893 566.591 182.723 566.068C182.552 565.545 182.467 564.98 182.467 564.372ZM199.43 568.468C199.195 568.607 198.87 568.676 198.454 568.676C198.102 568.676 197.819 568.58 197.606 568.388C197.403 568.185 197.302 567.86 197.302 567.412C196.929 567.86 196.491 568.185 195.99 568.388C195.499 568.58 194.966 568.676 194.39 568.676C194.017 568.676 193.659 568.633 193.318 568.548C192.987 568.463 192.699 568.329 192.454 568.148C192.209 567.967 192.011 567.732 191.862 567.444C191.723 567.145 191.654 566.788 191.654 566.372C191.654 565.903 191.734 565.519 191.894 565.22C192.054 564.921 192.262 564.681 192.518 564.5C192.785 564.308 193.083 564.164 193.414 564.068C193.755 563.972 194.102 563.892 194.454 563.828C194.827 563.753 195.179 563.7 195.51 563.668C195.851 563.625 196.15 563.572 196.406 563.508C196.662 563.433 196.865 563.332 197.014 563.204C197.163 563.065 197.238 562.868 197.238 562.612C197.238 562.313 197.179 562.073 197.062 561.892C196.955 561.711 196.811 561.572 196.63 561.476C196.459 561.38 196.262 561.316 196.038 561.284C195.825 561.252 195.611 561.236 195.398 561.236C194.822 561.236 194.342 561.348 193.958 561.572C193.574 561.785 193.366 562.196 193.334 562.804H191.974C191.995 562.292 192.102 561.86 192.294 561.508C192.486 561.156 192.742 560.873 193.062 560.66C193.382 560.436 193.745 560.276 194.15 560.18C194.566 560.084 195.009 560.036 195.478 560.036C195.851 560.036 196.219 560.063 196.582 560.116C196.955 560.169 197.291 560.281 197.59 560.452C197.889 560.612 198.129 560.841 198.31 561.14C198.491 561.439 198.582 561.828 198.582 562.308V566.564C198.582 566.884 198.598 567.119 198.63 567.268C198.673 567.417 198.801 567.492 199.014 567.492C199.131 567.492 199.27 567.465 199.43 567.412V568.468ZM197.222 564.228C197.051 564.356 196.827 564.452 196.55 564.516C196.273 564.569 195.979 564.617 195.67 564.66C195.371 564.692 195.067 564.735 194.758 564.788C194.449 564.831 194.171 564.905 193.926 565.012C193.681 565.119 193.478 565.273 193.318 565.476C193.169 565.668 193.094 565.935 193.094 566.276C193.094 566.5 193.137 566.692 193.222 566.852C193.318 567.001 193.435 567.124 193.574 567.22C193.723 567.316 193.894 567.385 194.086 567.428C194.278 567.471 194.481 567.492 194.694 567.492C195.142 567.492 195.526 567.433 195.846 567.316C196.166 567.188 196.427 567.033 196.63 566.852C196.833 566.66 196.982 566.457 197.078 566.244C197.174 566.02 197.222 565.812 197.222 565.62V564.228ZM201.688 564.436C201.688 564.82 201.736 565.199 201.832 565.572C201.939 565.935 202.093 566.26 202.296 566.548C202.509 566.836 202.776 567.065 203.096 567.236C203.427 567.407 203.811 567.492 204.248 567.492C204.707 567.492 205.096 567.401 205.416 567.22C205.736 567.039 205.997 566.804 206.2 566.516C206.403 566.217 206.547 565.881 206.632 565.508C206.728 565.135 206.776 564.756 206.776 564.372C206.776 563.967 206.728 563.577 206.632 563.204C206.536 562.82 206.381 562.484 206.168 562.196C205.965 561.908 205.699 561.679 205.368 561.508C205.037 561.327 204.637 561.236 204.168 561.236C203.709 561.236 203.32 561.327 203 561.508C202.68 561.689 202.424 561.929 202.232 562.228C202.04 562.527 201.901 562.868 201.816 563.252C201.731 563.636 201.688 564.031 201.688 564.436ZM208.088 568.5H206.728V567.38H206.696C206.472 567.839 206.12 568.169 205.64 568.372C205.16 568.575 204.632 568.676 204.056 568.676C203.416 568.676 202.856 568.559 202.376 568.324C201.907 568.089 201.512 567.775 201.192 567.38C200.883 566.985 200.648 566.527 200.488 566.004C200.328 565.481 200.248 564.927 200.248 564.34C200.248 563.753 200.323 563.199 200.472 562.676C200.632 562.153 200.867 561.7 201.176 561.316C201.496 560.921 201.891 560.612 202.36 560.388C202.84 560.153 203.395 560.036 204.024 560.036C204.237 560.036 204.467 560.057 204.712 560.1C204.957 560.143 205.203 560.217 205.448 560.324C205.693 560.42 205.923 560.553 206.136 560.724C206.36 560.884 206.547 561.087 206.696 561.332H206.728V557.076H208.088V568.5ZM211.62 558.74H210.26V557.076H211.62V558.74ZM210.26 560.228H211.62V568.5H210.26V560.228ZM213.727 560.228H215.007V561.54H215.039C215.604 560.537 216.5 560.036 217.727 560.036C218.271 560.036 218.724 560.111 219.087 560.26C219.45 560.409 219.743 560.617 219.967 560.884C220.191 561.151 220.346 561.471 220.431 561.844C220.527 562.207 220.575 562.612 220.575 563.06V568.5H219.215V562.9C219.215 562.388 219.066 561.983 218.767 561.684C218.468 561.385 218.058 561.236 217.535 561.236C217.119 561.236 216.756 561.3 216.447 561.428C216.148 561.556 215.898 561.737 215.695 561.972C215.492 562.207 215.338 562.484 215.231 562.804C215.135 563.113 215.087 563.455 215.087 563.828V568.5H213.727V560.228ZM229.754 567.796C229.754 569.151 229.444 570.164 228.826 570.836C228.207 571.508 227.236 571.844 225.914 571.844C225.53 571.844 225.135 571.801 224.73 571.716C224.335 571.631 223.972 571.492 223.642 571.3C223.322 571.108 223.055 570.857 222.842 570.548C222.628 570.239 222.511 569.86 222.49 569.412H223.85C223.86 569.657 223.935 569.865 224.074 570.036C224.223 570.207 224.399 570.345 224.602 570.452C224.815 570.559 225.044 570.633 225.29 570.676C225.535 570.729 225.77 570.756 225.994 570.756C226.442 570.756 226.82 570.676 227.13 570.516C227.439 570.367 227.695 570.153 227.898 569.876C228.1 569.609 228.244 569.284 228.33 568.9C228.426 568.516 228.474 568.095 228.474 567.636V567.092H228.442C228.207 567.604 227.85 567.983 227.37 568.228C226.9 568.463 226.399 568.58 225.866 568.58C225.247 568.58 224.708 568.468 224.25 568.244C223.791 568.02 223.407 567.721 223.098 567.348C222.788 566.964 222.554 566.521 222.394 566.02C222.244 565.508 222.17 564.969 222.17 564.404C222.17 563.913 222.234 563.412 222.362 562.9C222.49 562.377 222.703 561.908 223.002 561.492C223.3 561.065 223.695 560.719 224.186 560.452C224.676 560.175 225.279 560.036 225.994 560.036C226.516 560.036 226.996 560.153 227.434 560.388C227.871 560.612 228.212 560.953 228.458 561.412H228.474V560.228H229.754V567.796ZM225.946 567.396C226.394 567.396 226.772 567.305 227.082 567.124C227.402 566.932 227.658 566.687 227.85 566.388C228.042 566.079 228.18 565.732 228.266 565.348C228.362 564.964 228.41 564.58 228.41 564.196C228.41 563.833 228.367 563.476 228.282 563.124C228.196 562.772 228.058 562.457 227.866 562.18C227.684 561.892 227.444 561.663 227.146 561.492C226.847 561.321 226.484 561.236 226.058 561.236C225.62 561.236 225.247 561.321 224.938 561.492C224.628 561.652 224.372 561.871 224.17 562.148C223.978 562.425 223.834 562.745 223.738 563.108C223.652 563.471 223.61 563.849 223.61 564.244C223.61 564.617 223.647 564.991 223.722 565.364C223.796 565.737 223.924 566.079 224.106 566.388C224.287 566.687 224.527 566.932 224.826 567.124C225.124 567.305 225.498 567.396 225.946 567.396Z" fill="black" fill-opacity="0.68"/>
<path d="M349 563C349 554.163 356.163 547 365 547H411C419.837 547 427 554.163 427 563C427 571.837 419.837 579 411 579H365C356.163 579 349 571.837 349 563Z" fill="black" fill-opacity="0.04"/>
<mask id="mask0_73459_33773" style="mask-type:alpha" maskUnits="userSpaceOnUse" x="359" y="557" width="12" height="12">
<path d="M365 557C368.314 557 371 559.686 371 563C371 566.314 368.314 569 365 569C361.686 569 359 566.314 359 563C359 559.686 361.686 557 365 557ZM365 558.75C362.653 558.75 360.75 560.653 360.75 563C360.75 565.347 362.653 567.25 365 567.25C367.347 567.25 369.25 565.347 369.25 563C369.25 560.653 367.347 558.75 365 558.75Z" fill="#CCCCCC"/>
</mask>
<g mask="url(#mask0_73459_33773)">
<mask id="mask1_73459_33773" style="mask-type:alpha" maskUnits="userSpaceOnUse" x="365" y="557" width="6" height="6">
<path d="M371 563C371 562.212 370.845 561.432 370.543 560.704C370.242 559.976 369.8 559.315 369.243 558.757C368.685 558.2 368.024 557.758 367.296 557.457C366.568 557.155 365.788 557 365 557L365 563L371 563Z" fill="black"/>
<path d="M371 563C371 562.212 370.845 561.432 370.543 560.704C370.242 559.976 369.8 559.315 369.243 558.757C368.685 558.2 368.024 557.758 367.296 557.457C366.568 557.155 365.788 557 365 557L365 563L371 563Z" fill="black"/>
<path d="M371 563C371 562.212 370.845 561.432 370.543 560.704C370.242 559.976 369.8 559.315 369.243 558.757C368.685 558.2 368.024 557.758 367.296 557.457C366.568 557.155 365.788 557 365 557L365 563L371 563Z" fill="black"/>
<path d="M371 563C371 562.212 370.845 561.432 370.543 560.704C370.242 559.976 369.8 559.315 369.243 558.757C368.685 558.2 368.024 557.758 367.296 557.457C366.568 557.155 365.788 557 365 557L365 563L371 563Z" fill="black"/>
</mask>
<g mask="url(#mask1_73459_33773)">
<path d="M365 557C366.591 557 368.117 557.632 369.243 558.757C370.368 559.883 371 561.409 371 563C371 564.591 370.368 566.117 369.243 567.243C368.117 568.368 366.591 569 365 569L365 563L365 557Z" fill="black"/>
</g>
</g>
<path d="M377.966 558.004H380.164V566.152H385.036V568H377.966V558.004ZM386.146 562.988C386.174 562.521 386.29 562.134 386.496 561.826C386.701 561.518 386.962 561.271 387.28 561.084C387.597 560.897 387.952 560.767 388.344 560.692C388.745 560.608 389.146 560.566 389.548 560.566C389.912 560.566 390.28 560.594 390.654 560.65C391.027 560.697 391.368 560.795 391.676 560.944C391.984 561.093 392.236 561.303 392.432 561.574C392.628 561.835 392.726 562.185 392.726 562.624V566.39C392.726 566.717 392.744 567.029 392.782 567.328C392.819 567.627 392.884 567.851 392.978 568H390.962C390.924 567.888 390.892 567.776 390.864 567.664C390.845 567.543 390.831 567.421 390.822 567.3C390.504 567.627 390.131 567.855 389.702 567.986C389.272 568.117 388.834 568.182 388.386 568.182C388.04 568.182 387.718 568.14 387.42 568.056C387.121 567.972 386.86 567.841 386.636 567.664C386.412 567.487 386.234 567.263 386.104 566.992C385.982 566.721 385.922 566.399 385.922 566.026C385.922 565.615 385.992 565.279 386.132 565.018C386.281 564.747 386.468 564.533 386.692 564.374C386.925 564.215 387.186 564.099 387.476 564.024C387.774 563.94 388.073 563.875 388.372 563.828C388.67 563.781 388.964 563.744 389.254 563.716C389.543 563.688 389.8 563.646 390.024 563.59C390.248 563.534 390.425 563.455 390.556 563.352C390.686 563.24 390.747 563.081 390.738 562.876C390.738 562.661 390.7 562.493 390.626 562.372C390.56 562.241 390.467 562.143 390.346 562.078C390.234 562.003 390.098 561.957 389.94 561.938C389.79 561.91 389.627 561.896 389.45 561.896C389.058 561.896 388.75 561.98 388.526 562.148C388.302 562.316 388.171 562.596 388.134 562.988H386.146ZM390.738 564.458C390.654 564.533 390.546 564.593 390.416 564.64C390.294 564.677 390.159 564.71 390.01 564.738C389.87 564.766 389.72 564.789 389.562 564.808C389.403 564.827 389.244 564.85 389.086 564.878C388.936 564.906 388.787 564.943 388.638 564.99C388.498 565.037 388.372 565.102 388.26 565.186C388.157 565.261 388.073 565.359 388.008 565.48C387.942 565.601 387.91 565.755 387.91 565.942C387.91 566.119 387.942 566.269 388.008 566.39C388.073 566.511 388.162 566.609 388.274 566.684C388.386 566.749 388.516 566.796 388.666 566.824C388.815 566.852 388.969 566.866 389.128 566.866C389.52 566.866 389.823 566.801 390.038 566.67C390.252 566.539 390.411 566.385 390.514 566.208C390.616 566.021 390.677 565.835 390.696 565.648C390.724 565.461 390.738 565.312 390.738 565.2V564.458ZM399.75 564.388C399.75 564.08 399.717 563.786 399.652 563.506C399.587 563.226 399.484 562.979 399.344 562.764C399.204 562.549 399.027 562.381 398.812 562.26C398.607 562.129 398.355 562.064 398.056 562.064C397.767 562.064 397.515 562.129 397.3 562.26C397.085 562.381 396.908 562.549 396.768 562.764C396.628 562.979 396.525 563.226 396.46 563.506C396.395 563.786 396.362 564.08 396.362 564.388C396.362 564.687 396.395 564.976 396.46 565.256C396.525 565.536 396.628 565.783 396.768 565.998C396.908 566.213 397.085 566.385 397.3 566.516C397.515 566.637 397.767 566.698 398.056 566.698C398.355 566.698 398.607 566.637 398.812 566.516C399.027 566.385 399.204 566.213 399.344 565.998C399.484 565.783 399.587 565.536 399.652 565.256C399.717 564.976 399.75 564.687 399.75 564.388ZM394.444 558.004H396.432V561.644H396.46C396.703 561.271 397.029 561 397.44 560.832C397.86 560.655 398.294 560.566 398.742 560.566C399.106 560.566 399.465 560.641 399.82 560.79C400.175 560.939 400.492 561.168 400.772 561.476C401.061 561.784 401.295 562.181 401.472 562.666C401.649 563.142 401.738 563.711 401.738 564.374C401.738 565.037 401.649 565.611 401.472 566.096C401.295 566.572 401.061 566.964 400.772 567.272C400.492 567.58 400.175 567.809 399.82 567.958C399.465 568.107 399.106 568.182 398.742 568.182C398.21 568.182 397.734 568.098 397.314 567.93C396.894 567.762 396.577 567.477 396.362 567.076H396.334V568H394.444V558.004ZM408.049 563.604C407.956 563.1 407.788 562.717 407.545 562.456C407.312 562.195 406.953 562.064 406.467 562.064C406.15 562.064 405.884 562.12 405.669 562.232C405.464 562.335 405.296 562.465 405.165 562.624C405.044 562.783 404.955 562.951 404.899 563.128C404.853 563.305 404.825 563.464 404.815 563.604H408.049ZM404.815 564.864C404.843 565.508 405.007 565.975 405.305 566.264C405.604 566.553 406.033 566.698 406.593 566.698C406.995 566.698 407.34 566.6 407.629 566.404C407.919 566.199 408.096 565.984 408.161 565.76H409.911C409.631 566.628 409.202 567.249 408.623 567.622C408.045 567.995 407.345 568.182 406.523 568.182C405.954 568.182 405.441 568.093 404.983 567.916C404.526 567.729 404.139 567.468 403.821 567.132C403.504 566.796 403.257 566.395 403.079 565.928C402.911 565.461 402.827 564.948 402.827 564.388C402.827 563.847 402.916 563.343 403.093 562.876C403.271 562.409 403.523 562.008 403.849 561.672C404.176 561.327 404.563 561.056 405.011 560.86C405.469 560.664 405.973 560.566 406.523 560.566C407.139 560.566 407.676 560.687 408.133 560.93C408.591 561.163 408.964 561.481 409.253 561.882C409.552 562.283 409.767 562.741 409.897 563.254C410.028 563.767 410.075 564.304 410.037 564.864H404.815ZM411.448 558.004H413.436V568H411.448V558.004Z" fill="black"/>
<path d="M175.768 649.22H178.296C178.467 649.22 178.68 649.209 178.936 649.188C179.192 649.156 179.464 649.092 179.752 648.996C180.04 648.889 180.323 648.74 180.6 648.548C180.888 648.356 181.144 648.095 181.368 647.764C181.592 647.433 181.773 647.023 181.912 646.532C182.061 646.031 182.136 645.428 182.136 644.724C182.136 644.041 182.067 643.433 181.928 642.9C181.8 642.356 181.581 641.897 181.272 641.524C180.973 641.14 180.584 640.852 180.104 640.66C179.624 640.457 179.032 640.356 178.328 640.356H175.768V649.22ZM174.248 639.076H178.168C179.928 639.076 181.283 639.524 182.232 640.42C183.181 641.316 183.656 642.681 183.656 644.516C183.656 645.476 183.549 646.329 183.336 647.076C183.123 647.812 182.792 648.436 182.344 648.948C181.896 649.449 181.325 649.833 180.632 650.1C179.939 650.367 179.117 650.5 178.168 650.5H174.248V639.076ZM186.73 640.74H185.37V639.076H186.73V640.74ZM185.37 642.228H186.73V650.5H185.37V642.228ZM189.669 647.892C189.679 648.191 189.749 648.447 189.877 648.66C190.005 648.863 190.17 649.028 190.373 649.156C190.586 649.273 190.821 649.359 191.077 649.412C191.343 649.465 191.615 649.492 191.893 649.492C192.106 649.492 192.33 649.476 192.565 649.444C192.799 649.412 193.013 649.353 193.205 649.268C193.407 649.183 193.573 649.06 193.701 648.9C193.829 648.729 193.893 648.516 193.893 648.26C193.893 647.908 193.759 647.641 193.493 647.46C193.226 647.279 192.89 647.135 192.485 647.028C192.09 646.911 191.658 646.809 191.189 646.724C190.719 646.628 190.282 646.5 189.877 646.34C189.482 646.169 189.151 645.935 188.885 645.636C188.618 645.337 188.485 644.921 188.485 644.388C188.485 643.972 188.575 643.615 188.757 643.316C188.949 643.017 189.189 642.777 189.477 642.596C189.775 642.404 190.106 642.265 190.469 642.18C190.842 642.084 191.21 642.036 191.573 642.036C192.042 642.036 192.474 642.079 192.869 642.164C193.263 642.239 193.61 642.377 193.909 642.58C194.218 642.772 194.463 643.039 194.645 643.38C194.826 643.711 194.933 644.127 194.965 644.628H193.605C193.583 644.361 193.514 644.143 193.397 643.972C193.279 643.791 193.13 643.647 192.949 643.54C192.767 643.433 192.565 643.359 192.341 643.316C192.127 643.263 191.909 643.236 191.685 643.236C191.482 643.236 191.274 643.252 191.061 643.284C190.858 643.316 190.671 643.375 190.501 643.46C190.33 643.535 190.191 643.641 190.085 643.78C189.978 643.908 189.924 644.079 189.924 644.292C189.924 644.527 190.004 644.724 190.164 644.884C190.335 645.033 190.549 645.161 190.805 645.268C191.061 645.364 191.349 645.449 191.669 645.524C191.989 645.588 192.309 645.657 192.629 645.732C192.97 645.807 193.301 645.897 193.621 646.004C193.951 646.111 194.239 646.255 194.485 646.436C194.741 646.607 194.943 646.825 195.093 647.092C195.253 647.359 195.333 647.689 195.333 648.084C195.333 648.585 195.226 649.001 195.013 649.332C194.81 649.663 194.538 649.929 194.197 650.132C193.866 650.335 193.487 650.473 193.061 650.548C192.645 650.633 192.229 650.676 191.812 650.676C191.354 650.676 190.917 650.628 190.501 650.532C190.085 650.436 189.717 650.281 189.397 650.068C189.077 649.844 188.821 649.556 188.629 649.204C188.437 648.841 188.33 648.404 188.309 647.892H189.669ZM204.165 650.468C203.93 650.607 203.605 650.676 203.189 650.676C202.837 650.676 202.554 650.58 202.341 650.388C202.138 650.185 202.037 649.86 202.037 649.412C201.663 649.86 201.226 650.185 200.725 650.388C200.234 650.58 199.701 650.676 199.125 650.676C198.751 650.676 198.394 650.633 198.053 650.548C197.722 650.463 197.434 650.329 197.189 650.148C196.943 649.967 196.746 649.732 196.597 649.444C196.458 649.145 196.389 648.788 196.389 648.372C196.389 647.903 196.469 647.519 196.629 647.22C196.789 646.921 196.997 646.681 197.253 646.5C197.519 646.308 197.818 646.164 198.149 646.068C198.49 645.972 198.837 645.892 199.189 645.828C199.562 645.753 199.914 645.7 200.245 645.668C200.586 645.625 200.885 645.572 201.141 645.508C201.397 645.433 201.599 645.332 201.749 645.204C201.898 645.065 201.973 644.868 201.973 644.612C201.973 644.313 201.914 644.073 201.797 643.892C201.69 643.711 201.546 643.572 201.365 643.476C201.194 643.38 200.997 643.316 200.773 643.284C200.559 643.252 200.346 643.236 200.133 643.236C199.557 643.236 199.077 643.348 198.693 643.572C198.309 643.785 198.101 644.196 198.069 644.804H196.709C196.73 644.292 196.837 643.86 197.029 643.508C197.221 643.156 197.477 642.873 197.797 642.66C198.117 642.436 198.479 642.276 198.885 642.18C199.301 642.084 199.743 642.036 200.213 642.036C200.586 642.036 200.954 642.063 201.317 642.116C201.69 642.169 202.026 642.281 202.325 642.452C202.623 642.612 202.863 642.841 203.045 643.14C203.226 643.439 203.317 643.828 203.317 644.308V648.564C203.317 648.884 203.333 649.119 203.365 649.268C203.407 649.417 203.535 649.492 203.749 649.492C203.866 649.492 204.005 649.465 204.165 649.412V650.468ZM201.957 646.228C201.786 646.356 201.562 646.452 201.285 646.516C201.007 646.569 200.714 646.617 200.405 646.66C200.106 646.692 199.802 646.735 199.493 646.788C199.183 646.831 198.906 646.905 198.661 647.012C198.415 647.119 198.213 647.273 198.053 647.476C197.903 647.668 197.829 647.935 197.829 648.276C197.829 648.5 197.871 648.692 197.957 648.852C198.053 649.001 198.17 649.124 198.309 649.22C198.458 649.316 198.629 649.385 198.821 649.428C199.013 649.471 199.215 649.492 199.429 649.492C199.877 649.492 200.261 649.433 200.581 649.316C200.901 649.188 201.162 649.033 201.365 648.852C201.567 648.66 201.717 648.457 201.813 648.244C201.909 648.02 201.957 647.812 201.957 647.62V646.228ZM205.478 639.076H206.838V643.348H206.87C207.094 642.889 207.446 642.559 207.926 642.356C208.406 642.143 208.934 642.036 209.51 642.036C210.15 642.036 210.705 642.153 211.174 642.388C211.654 642.623 212.049 642.943 212.358 643.348C212.678 643.743 212.918 644.201 213.078 644.724C213.238 645.247 213.318 645.801 213.318 646.388C213.318 646.975 213.238 647.529 213.078 648.052C212.929 648.575 212.694 649.033 212.374 649.428C212.065 649.812 211.67 650.116 211.19 650.34C210.721 650.564 210.172 650.676 209.542 650.676C209.34 650.676 209.11 650.655 208.854 650.612C208.609 650.569 208.364 650.5 208.118 650.404C207.873 650.308 207.638 650.18 207.414 650.02C207.201 649.849 207.02 649.641 206.87 649.396H206.838V650.5H205.478V639.076ZM211.878 646.292C211.878 645.908 211.825 645.535 211.718 645.172C211.622 644.799 211.468 644.468 211.254 644.18C211.052 643.892 210.785 643.663 210.454 643.492C210.134 643.321 209.756 643.236 209.318 643.236C208.86 643.236 208.47 643.327 208.15 643.508C207.83 643.689 207.569 643.929 207.366 644.228C207.164 644.516 207.014 644.847 206.918 645.22C206.833 645.593 206.79 645.972 206.79 646.356C206.79 646.761 206.838 647.156 206.934 647.54C207.03 647.913 207.18 648.244 207.382 648.532C207.596 648.82 207.868 649.055 208.198 649.236C208.529 649.407 208.929 649.492 209.398 649.492C209.868 649.492 210.257 649.401 210.566 649.22C210.886 649.039 211.142 648.799 211.334 648.5C211.526 648.201 211.665 647.86 211.75 647.476C211.836 647.092 211.878 646.697 211.878 646.292ZM214.995 639.076H216.355V650.5H214.995V639.076ZM224.206 645.572C224.184 645.252 224.11 644.948 223.982 644.66C223.864 644.372 223.699 644.127 223.486 643.924C223.283 643.711 223.038 643.545 222.75 643.428C222.472 643.3 222.163 643.236 221.822 643.236C221.47 643.236 221.15 643.3 220.862 643.428C220.584 643.545 220.344 643.711 220.142 643.924C219.939 644.137 219.779 644.388 219.662 644.676C219.544 644.953 219.475 645.252 219.454 645.572H224.206ZM225.517 647.876C225.336 648.804 224.936 649.503 224.318 649.972C223.699 650.441 222.92 650.676 221.982 650.676C221.32 650.676 220.744 650.569 220.254 650.356C219.774 650.143 219.368 649.844 219.038 649.46C218.707 649.076 218.456 648.617 218.286 648.084C218.126 647.551 218.035 646.969 218.014 646.34C218.014 645.711 218.11 645.135 218.302 644.612C218.494 644.089 218.76 643.636 219.102 643.252C219.454 642.868 219.864 642.569 220.334 642.356C220.814 642.143 221.336 642.036 221.902 642.036C222.638 642.036 223.246 642.191 223.726 642.5C224.216 642.799 224.606 643.183 224.894 643.652C225.192 644.121 225.395 644.633 225.502 645.188C225.619 645.743 225.667 646.271 225.646 646.772H219.454C219.443 647.135 219.486 647.481 219.582 647.812C219.678 648.132 219.832 648.42 220.046 648.676C220.259 648.921 220.531 649.119 220.862 649.268C221.192 649.417 221.582 649.492 222.03 649.492C222.606 649.492 223.075 649.359 223.438 649.092C223.811 648.825 224.056 648.42 224.174 647.876H225.517ZM228.047 646.436C228.047 646.82 228.095 647.199 228.191 647.572C228.298 647.935 228.453 648.26 228.655 648.548C228.869 648.836 229.135 649.065 229.455 649.236C229.786 649.407 230.17 649.492 230.607 649.492C231.066 649.492 231.455 649.401 231.775 649.22C232.095 649.039 232.357 648.804 232.559 648.516C232.762 648.217 232.906 647.881 232.991 647.508C233.087 647.135 233.135 646.756 233.135 646.372C233.135 645.967 233.087 645.577 232.991 645.204C232.895 644.82 232.741 644.484 232.527 644.196C232.325 643.908 232.058 643.679 231.727 643.508C231.397 643.327 230.997 643.236 230.527 643.236C230.069 643.236 229.679 643.327 229.359 643.508C229.039 643.689 228.783 643.929 228.591 644.228C228.399 644.527 228.261 644.868 228.175 645.252C228.09 645.636 228.047 646.031 228.047 646.436ZM234.447 650.5H233.087V649.38H233.055C232.831 649.839 232.479 650.169 231.999 650.372C231.519 650.575 230.991 650.676 230.415 650.676C229.775 650.676 229.215 650.559 228.735 650.324C228.266 650.089 227.871 649.775 227.551 649.38C227.242 648.985 227.007 648.527 226.847 648.004C226.687 647.481 226.607 646.927 226.607 646.34C226.607 645.753 226.682 645.199 226.831 644.676C226.991 644.153 227.226 643.7 227.535 643.316C227.855 642.921 228.25 642.612 228.719 642.388C229.199 642.153 229.754 642.036 230.383 642.036C230.597 642.036 230.826 642.057 231.071 642.1C231.317 642.143 231.562 642.217 231.807 642.324C232.053 642.42 232.282 642.553 232.495 642.724C232.719 642.884 232.906 643.087 233.055 643.332H233.087V639.076H234.447V650.5Z" fill="black" fill-opacity="0.68"/>
<path d="M349 645C349 636.163 356.163 629 365 629H411C419.837 629 427 636.163 427 645C427 653.837 419.837 661 411 661H365C356.163 661 349 653.837 349 645Z" fill="black" fill-opacity="0.2"/>
<path fill-rule="evenodd" clip-rule="evenodd" d="M368.733 644.558L365 648.644L361.267 644.558L361.265 644.556C360.542 643.763 360.606 642.541 361.409 641.827C362.182 641.139 363.365 641.169 364.101 641.896C364.103 641.898 364.105 641.9 364.107 641.902L364.678 642.438L365 642.744L365.322 642.438L365.893 641.902C365.895 641.9 365.897 641.898 365.899 641.896C366.265 641.532 366.763 641.329 367.282 641.33C368.362 641.33 369.238 642.195 369.238 643.262C369.238 643.74 369.059 644.201 368.735 644.556L368.733 644.558ZM369.587 640.985C368.321 639.735 366.275 639.728 365 640.963C363.725 639.728 361.679 639.735 360.413 640.985C359.161 642.222 359.14 644.216 360.352 645.478L365 650.542L369.648 645.478C370.859 644.216 370.839 642.222 369.587 640.985Z" fill="white"/>
<path d="M377.966 640.004H380.164V648.152H385.036V650H377.966V640.004ZM386.146 644.988C386.174 644.521 386.29 644.134 386.496 643.826C386.701 643.518 386.962 643.271 387.28 643.084C387.597 642.897 387.952 642.767 388.344 642.692C388.745 642.608 389.146 642.566 389.548 642.566C389.912 642.566 390.28 642.594 390.654 642.65C391.027 642.697 391.368 642.795 391.676 642.944C391.984 643.093 392.236 643.303 392.432 643.574C392.628 643.835 392.726 644.185 392.726 644.624V648.39C392.726 648.717 392.744 649.029 392.782 649.328C392.819 649.627 392.884 649.851 392.978 650H390.962C390.924 649.888 390.892 649.776 390.864 649.664C390.845 649.543 390.831 649.421 390.822 649.3C390.504 649.627 390.131 649.855 389.702 649.986C389.272 650.117 388.834 650.182 388.386 650.182C388.04 650.182 387.718 650.14 387.42 650.056C387.121 649.972 386.86 649.841 386.636 649.664C386.412 649.487 386.234 649.263 386.104 648.992C385.982 648.721 385.922 648.399 385.922 648.026C385.922 647.615 385.992 647.279 386.132 647.018C386.281 646.747 386.468 646.533 386.692 646.374C386.925 646.215 387.186 646.099 387.476 646.024C387.774 645.94 388.073 645.875 388.372 645.828C388.67 645.781 388.964 645.744 389.254 645.716C389.543 645.688 389.8 645.646 390.024 645.59C390.248 645.534 390.425 645.455 390.556 645.352C390.686 645.24 390.747 645.081 390.738 644.876C390.738 644.661 390.7 644.493 390.626 644.372C390.56 644.241 390.467 644.143 390.346 644.078C390.234 644.003 390.098 643.957 389.94 643.938C389.79 643.91 389.627 643.896 389.45 643.896C389.058 643.896 388.75 643.98 388.526 644.148C388.302 644.316 388.171 644.596 388.134 644.988H386.146ZM390.738 646.458C390.654 646.533 390.546 646.593 390.416 646.64C390.294 646.677 390.159 646.71 390.01 646.738C389.87 646.766 389.72 646.789 389.562 646.808C389.403 646.827 389.244 646.85 389.086 646.878C388.936 646.906 388.787 646.943 388.638 646.99C388.498 647.037 388.372 647.102 388.26 647.186C388.157 647.261 388.073 647.359 388.008 647.48C387.942 647.601 387.91 647.755 387.91 647.942C387.91 648.119 387.942 648.269 388.008 648.39C388.073 648.511 388.162 648.609 388.274 648.684C388.386 648.749 388.516 648.796 388.666 648.824C388.815 648.852 388.969 648.866 389.128 648.866C389.52 648.866 389.823 648.801 390.038 648.67C390.252 648.539 390.411 648.385 390.514 648.208C390.616 648.021 390.677 647.835 390.696 647.648C390.724 647.461 390.738 647.312 390.738 647.2V646.458ZM399.75 646.388C399.75 646.08 399.717 645.786 399.652 645.506C399.587 645.226 399.484 644.979 399.344 644.764C399.204 644.549 399.027 644.381 398.812 644.26C398.607 644.129 398.355 644.064 398.056 644.064C397.767 644.064 397.515 644.129 397.3 644.26C397.085 644.381 396.908 644.549 396.768 644.764C396.628 644.979 396.525 645.226 396.46 645.506C396.395 645.786 396.362 646.08 396.362 646.388C396.362 646.687 396.395 646.976 396.46 647.256C396.525 647.536 396.628 647.783 396.768 647.998C396.908 648.213 397.085 648.385 397.3 648.516C397.515 648.637 397.767 648.698 398.056 648.698C398.355 648.698 398.607 648.637 398.812 648.516C399.027 648.385 399.204 648.213 399.344 647.998C399.484 647.783 399.587 647.536 399.652 647.256C399.717 646.976 399.75 646.687 399.75 646.388ZM394.444 640.004H396.432V643.644H396.46C396.703 643.271 397.029 643 397.44 642.832C397.86 642.655 398.294 642.566 398.742 642.566C399.106 642.566 399.465 642.641 399.82 642.79C400.175 642.939 400.492 643.168 400.772 643.476C401.061 643.784 401.295 644.181 401.472 644.666C401.649 645.142 401.738 645.711 401.738 646.374C401.738 647.037 401.649 647.611 401.472 648.096C401.295 648.572 401.061 648.964 400.772 649.272C400.492 649.58 400.175 649.809 399.82 649.958C399.465 650.107 399.106 650.182 398.742 650.182C398.21 650.182 397.734 650.098 397.314 649.93C396.894 649.762 396.577 649.477 396.362 649.076H396.334V650H394.444V640.004ZM408.049 645.604C407.956 645.1 407.788 644.717 407.545 644.456C407.312 644.195 406.953 644.064 406.467 644.064C406.15 644.064 405.884 644.12 405.669 644.232C405.464 644.335 405.296 644.465 405.165 644.624C405.044 644.783 404.955 644.951 404.899 645.128C404.853 645.305 404.825 645.464 404.815 645.604H408.049ZM404.815 646.864C404.843 647.508 405.007 647.975 405.305 648.264C405.604 648.553 406.033 648.698 406.593 648.698C406.995 648.698 407.34 648.6 407.629 648.404C407.919 648.199 408.096 647.984 408.161 647.76H409.911C409.631 648.628 409.202 649.249 408.623 649.622C408.045 649.995 407.345 650.182 406.523 650.182C405.954 650.182 405.441 650.093 404.983 649.916C404.526 649.729 404.139 649.468 403.821 649.132C403.504 648.796 403.257 648.395 403.079 647.928C402.911 647.461 402.827 646.948 402.827 646.388C402.827 645.847 402.916 645.343 403.093 644.876C403.271 644.409 403.523 644.008 403.849 643.672C404.176 643.327 404.563 643.056 405.011 642.86C405.469 642.664 405.973 642.566 406.523 642.566C407.139 642.566 407.676 642.687 408.133 642.93C408.591 643.163 408.964 643.481 409.253 643.882C409.552 644.283 409.767 644.741 409.897 645.254C410.028 645.767 410.075 646.304 410.037 646.864H404.815ZM411.448 640.004H413.436V650H411.448V640.004Z" fill="white"/>
<path d="M180.856 724.42C180.771 723.599 180.472 723.007 179.96 722.644C179.459 722.271 178.813 722.084 178.024 722.084C177.704 722.084 177.389 722.116 177.08 722.18C176.771 722.244 176.493 722.351 176.248 722.5C176.013 722.649 175.821 722.852 175.672 723.108C175.533 723.353 175.464 723.663 175.464 724.036C175.464 724.388 175.565 724.676 175.768 724.9C175.981 725.113 176.259 725.289 176.6 725.428C176.952 725.567 177.347 725.684 177.784 725.78C178.221 725.865 178.664 725.961 179.112 726.068C179.571 726.175 180.019 726.303 180.456 726.452C180.893 726.591 181.283 726.783 181.624 727.028C181.976 727.273 182.253 727.583 182.456 727.956C182.669 728.329 182.776 728.799 182.776 729.364C182.776 729.972 182.637 730.495 182.36 730.932C182.093 731.359 181.747 731.711 181.32 731.988C180.893 732.255 180.413 732.447 179.88 732.564C179.357 732.692 178.835 732.756 178.312 732.756C177.672 732.756 177.064 732.676 176.488 732.516C175.923 732.356 175.421 732.116 174.984 731.796C174.557 731.465 174.216 731.049 173.96 730.548C173.715 730.036 173.592 729.433 173.592 728.74H175.032C175.032 729.22 175.123 729.636 175.304 729.988C175.496 730.329 175.741 730.612 176.04 730.836C176.349 731.06 176.707 731.225 177.112 731.332C177.517 731.439 177.933 731.492 178.36 731.492C178.701 731.492 179.043 731.46 179.384 731.396C179.736 731.332 180.051 731.225 180.328 731.076C180.605 730.916 180.829 730.703 181 730.436C181.171 730.169 181.256 729.828 181.256 729.412C181.256 729.017 181.149 728.697 180.936 728.452C180.733 728.207 180.456 728.009 180.104 727.86C179.763 727.7 179.373 727.572 178.936 727.476C178.499 727.38 178.051 727.284 177.592 727.188C177.144 727.081 176.701 726.964 176.264 726.836C175.827 726.697 175.432 726.521 175.08 726.308C174.739 726.084 174.461 725.801 174.248 725.46C174.045 725.108 173.944 724.671 173.944 724.148C173.944 723.572 174.061 723.076 174.296 722.66C174.531 722.233 174.84 721.887 175.224 721.62C175.619 721.343 176.061 721.14 176.552 721.012C177.053 720.873 177.565 720.804 178.088 720.804C178.675 720.804 179.219 720.873 179.72 721.012C180.221 721.151 180.659 721.369 181.032 721.668C181.416 721.967 181.715 722.345 181.928 722.804C182.152 723.252 182.275 723.791 182.296 724.42H180.856ZM184.479 721.076H185.839V727.844L189.615 724.228H191.439L188.159 727.236L191.679 732.5H189.951L187.119 728.18L185.839 729.364V732.5H184.479V721.076ZM198.44 727.572C198.419 727.252 198.344 726.948 198.216 726.66C198.099 726.372 197.933 726.127 197.72 725.924C197.517 725.711 197.272 725.545 196.984 725.428C196.707 725.3 196.397 725.236 196.056 725.236C195.704 725.236 195.384 725.3 195.096 725.428C194.819 725.545 194.579 725.711 194.376 725.924C194.173 726.137 194.013 726.388 193.896 726.676C193.779 726.953 193.709 727.252 193.688 727.572H198.44ZM199.752 729.876C199.571 730.804 199.171 731.503 198.552 731.972C197.933 732.441 197.155 732.676 196.216 732.676C195.555 732.676 194.979 732.569 194.488 732.356C194.008 732.143 193.603 731.844 193.272 731.46C192.941 731.076 192.691 730.617 192.52 730.084C192.36 729.551 192.269 728.969 192.248 728.34C192.248 727.711 192.344 727.135 192.536 726.612C192.728 726.089 192.995 725.636 193.336 725.252C193.688 724.868 194.099 724.569 194.568 724.356C195.048 724.143 195.571 724.036 196.136 724.036C196.872 724.036 197.48 724.191 197.96 724.5C198.451 724.799 198.84 725.183 199.128 725.652C199.427 726.121 199.629 726.633 199.736 727.188C199.853 727.743 199.901 728.271 199.88 728.772H193.688C193.677 729.135 193.72 729.481 193.816 729.812C193.912 730.132 194.067 730.42 194.28 730.676C194.493 730.921 194.765 731.119 195.096 731.268C195.427 731.417 195.816 731.492 196.264 731.492C196.84 731.492 197.309 731.359 197.672 731.092C198.045 730.825 198.291 730.42 198.408 729.876H199.752ZM201.37 721.076H202.73V732.5H201.37V721.076ZM210.581 727.572C210.559 727.252 210.485 726.948 210.357 726.66C210.239 726.372 210.074 726.127 209.861 725.924C209.658 725.711 209.413 725.545 209.125 725.428C208.847 725.3 208.538 725.236 208.197 725.236C207.845 725.236 207.525 725.3 207.237 725.428C206.959 725.545 206.719 725.711 206.517 725.924C206.314 726.137 206.154 726.388 206.037 726.676C205.919 726.953 205.85 727.252 205.829 727.572H210.581ZM211.892 729.876C211.711 730.804 211.311 731.503 210.693 731.972C210.074 732.441 209.295 732.676 208.357 732.676C207.695 732.676 207.119 732.569 206.629 732.356C206.149 732.143 205.743 731.844 205.413 731.46C205.082 731.076 204.831 730.617 204.661 730.084C204.501 729.551 204.41 728.969 204.389 728.34C204.389 727.711 204.485 727.135 204.677 726.612C204.869 726.089 205.135 725.636 205.477 725.252C205.829 724.868 206.239 724.569 206.709 724.356C207.189 724.143 207.711 724.036 208.277 724.036C209.013 724.036 209.621 724.191 210.101 724.5C210.591 724.799 210.981 725.183 211.269 725.652C211.567 726.121 211.77 726.633 211.877 727.188C211.994 727.743 212.042 728.271 212.021 728.772H205.829C205.818 729.135 205.861 729.481 205.957 729.812C206.053 730.132 206.207 730.42 206.421 730.676C206.634 730.921 206.906 731.119 207.237 731.268C207.567 731.417 207.957 731.492 208.405 731.492C208.981 731.492 209.45 731.359 209.813 731.092C210.186 730.825 210.431 730.42 210.549 729.876H211.892ZM215.318 724.228H216.966V725.428H215.318V730.564C215.318 730.724 215.329 730.852 215.35 730.948C215.382 731.044 215.436 731.119 215.51 731.172C215.585 731.225 215.686 731.263 215.814 731.284C215.953 731.295 216.129 731.3 216.342 731.3H216.966V732.5H215.926C215.574 732.5 215.27 732.479 215.014 732.436C214.769 732.383 214.566 732.292 214.406 732.164C214.257 732.036 214.145 731.855 214.07 731.62C213.996 731.385 213.958 731.076 213.958 730.692V725.428H212.55V724.228H213.958V721.748H215.318V724.228ZM219.469 728.372C219.469 728.873 219.533 729.321 219.661 729.716C219.8 730.1 219.986 730.425 220.221 730.692C220.456 730.948 220.728 731.145 221.037 731.284C221.357 731.423 221.693 731.492 222.045 731.492C222.397 731.492 222.728 731.423 223.037 731.284C223.357 731.145 223.634 730.948 223.869 730.692C224.104 730.425 224.285 730.1 224.413 729.716C224.552 729.321 224.621 728.873 224.621 728.372C224.621 727.871 224.552 727.428 224.413 727.044C224.285 726.649 224.104 726.319 223.869 726.052C223.634 725.785 223.357 725.583 223.037 725.444C222.728 725.305 222.397 725.236 222.045 725.236C221.693 725.236 221.357 725.305 221.037 725.444C220.728 725.583 220.456 725.785 220.221 726.052C219.986 726.319 219.8 726.649 219.661 727.044C219.533 727.428 219.469 727.871 219.469 728.372ZM218.029 728.372C218.029 727.764 218.114 727.199 218.285 726.676C218.456 726.143 218.712 725.684 219.053 725.3C219.394 724.905 219.816 724.596 220.317 724.372C220.818 724.148 221.394 724.036 222.045 724.036C222.706 724.036 223.282 724.148 223.773 724.372C224.274 724.596 224.696 724.905 225.037 725.3C225.378 725.684 225.634 726.143 225.805 726.676C225.976 727.199 226.061 727.764 226.061 728.372C226.061 728.98 225.976 729.545 225.805 730.068C225.634 730.591 225.378 731.049 225.037 731.444C224.696 731.828 224.274 732.132 223.773 732.356C223.282 732.569 222.706 732.676 222.045 732.676C221.394 732.676 220.818 732.569 220.317 732.356C219.816 732.132 219.394 731.828 219.053 731.444C218.712 731.049 218.456 730.591 218.285 730.068C218.114 729.545 218.029 728.98 218.029 728.372ZM227.665 724.228H228.945V725.54H228.977C229.542 724.537 230.438 724.036 231.665 724.036C232.209 724.036 232.662 724.111 233.025 724.26C233.387 724.409 233.681 724.617 233.905 724.884C234.129 725.151 234.283 725.471 234.369 725.844C234.465 726.207 234.513 726.612 234.513 727.06V732.5H233.153V726.9C233.153 726.388 233.003 725.983 232.705 725.684C232.406 725.385 231.995 725.236 231.473 725.236C231.057 725.236 230.694 725.3 230.385 725.428C230.086 725.556 229.835 725.737 229.633 725.972C229.43 726.207 229.275 726.484 229.169 726.804C229.073 727.113 229.025 727.455 229.025 727.828V732.5H227.665V724.228Z" fill="black" fill-opacity="0.68"/>
<g clip-path="url(#clip0_73459_33773)">
<g clip-path="url(#clip1_73459_33773)">
<g clip-path="url(#clip2_73459_33773)">
<rect width="78" height="32" transform="translate(349 711)" fill="black" fill-opacity="0.04"/>
</g>
</g>
</g>
<defs>
<clipPath id="clip0_73459_33773">
<path d="M349 727C349 718.163 356.163 711 365 711H411C419.837 711 427 718.163 427 727C427 735.837 419.837 743 411 743H365C356.163 743 349 735.837 349 727Z" fill="white"/>
</clipPath>
<clipPath id="clip1_73459_33773">
<path d="M349 727C349 718.163 356.163 711 365 711H411C419.837 711 427 718.163 427 727C427 735.837 419.837 743 411 743H365C356.163 743 349 735.837 349 727Z" fill="white"/>
</clipPath>
<clipPath id="clip2_73459_33773">
<rect width="78" height="32" fill="white" transform="translate(349 711)"/>
</clipPath>
</defs>
</svg>
