<svg width="600" height="342" viewBox="0 0 600 342" fill="none" xmlns="http://www.w3.org/2000/svg">
<rect width="600" height="342" fill="black" fill-opacity="0.04"/>
<path d="M183.768 138.22H186.296C186.467 138.22 186.68 138.209 186.936 138.188C187.192 138.156 187.464 138.092 187.752 137.996C188.04 137.889 188.323 137.74 188.6 137.548C188.888 137.356 189.144 137.095 189.368 136.764C189.592 136.433 189.773 136.023 189.912 135.532C190.061 135.031 190.136 134.428 190.136 133.724C190.136 133.041 190.067 132.433 189.928 131.9C189.8 131.356 189.581 130.897 189.272 130.524C188.973 130.14 188.584 129.852 188.104 129.66C187.624 129.457 187.032 129.356 186.328 129.356H183.768V138.22ZM182.248 128.076H186.168C187.928 128.076 189.283 128.524 190.232 129.42C191.181 130.316 191.656 131.681 191.656 133.516C191.656 134.476 191.549 135.329 191.336 136.076C191.123 136.812 190.792 137.436 190.344 137.948C189.896 138.449 189.325 138.833 188.632 139.1C187.939 139.367 187.117 139.5 186.168 139.5H182.248V128.076ZM199.034 134.572C199.012 134.252 198.938 133.948 198.81 133.66C198.692 133.372 198.527 133.127 198.314 132.924C198.111 132.711 197.866 132.545 197.578 132.428C197.3 132.3 196.991 132.236 196.65 132.236C196.298 132.236 195.978 132.3 195.69 132.428C195.412 132.545 195.172 132.711 194.97 132.924C194.767 133.137 194.607 133.388 194.49 133.676C194.372 133.953 194.303 134.252 194.282 134.572H199.034ZM200.346 136.876C200.164 137.804 199.764 138.503 199.146 138.972C198.527 139.441 197.748 139.676 196.81 139.676C196.148 139.676 195.572 139.569 195.082 139.356C194.602 139.143 194.196 138.844 193.866 138.46C193.535 138.076 193.284 137.617 193.114 137.084C192.954 136.551 192.863 135.969 192.842 135.34C192.842 134.711 192.938 134.135 193.13 133.612C193.322 133.089 193.588 132.636 193.93 132.252C194.282 131.868 194.692 131.569 195.162 131.356C195.642 131.143 196.164 131.036 196.73 131.036C197.466 131.036 198.074 131.191 198.554 131.5C199.044 131.799 199.434 132.183 199.722 132.652C200.02 133.121 200.223 133.633 200.33 134.188C200.447 134.743 200.495 135.271 200.474 135.772H194.282C194.271 136.135 194.314 136.481 194.41 136.812C194.506 137.132 194.66 137.42 194.874 137.676C195.087 137.921 195.359 138.119 195.69 138.268C196.02 138.417 196.41 138.492 196.858 138.492C197.434 138.492 197.903 138.359 198.266 138.092C198.639 137.825 198.884 137.42 199.002 136.876H200.346ZM202.443 132.428H201.051V131.228H202.443V129.996C202.443 129.324 202.635 128.817 203.019 128.476C203.414 128.124 203.985 127.948 204.731 127.948C204.859 127.948 205.003 127.959 205.163 127.98C205.334 128.001 205.483 128.033 205.611 128.076V129.26C205.494 129.217 205.366 129.191 205.227 129.18C205.089 129.159 204.961 129.148 204.843 129.148C204.513 129.148 204.257 129.212 204.075 129.34C203.894 129.468 203.803 129.713 203.803 130.076V131.228H205.403V132.428H203.803V139.5H202.443V132.428ZM213.946 139.468C213.711 139.607 213.386 139.676 212.97 139.676C212.618 139.676 212.335 139.58 212.122 139.388C211.919 139.185 211.818 138.86 211.818 138.412C211.444 138.86 211.007 139.185 210.506 139.388C210.015 139.58 209.482 139.676 208.906 139.676C208.532 139.676 208.175 139.633 207.834 139.548C207.503 139.463 207.215 139.329 206.97 139.148C206.724 138.967 206.527 138.732 206.378 138.444C206.239 138.145 206.17 137.788 206.17 137.372C206.17 136.903 206.25 136.519 206.41 136.22C206.57 135.921 206.778 135.681 207.034 135.5C207.3 135.308 207.599 135.164 207.93 135.068C208.271 134.972 208.618 134.892 208.97 134.828C209.343 134.753 209.695 134.7 210.026 134.668C210.367 134.625 210.666 134.572 210.922 134.508C211.178 134.433 211.38 134.332 211.53 134.204C211.679 134.065 211.754 133.868 211.754 133.612C211.754 133.313 211.695 133.073 211.578 132.892C211.471 132.711 211.327 132.572 211.146 132.476C210.975 132.38 210.778 132.316 210.554 132.284C210.34 132.252 210.127 132.236 209.914 132.236C209.338 132.236 208.858 132.348 208.474 132.572C208.09 132.785 207.882 133.196 207.85 133.804H206.49C206.511 133.292 206.618 132.86 206.81 132.508C207.002 132.156 207.258 131.873 207.578 131.66C207.898 131.436 208.26 131.276 208.666 131.18C209.082 131.084 209.524 131.036 209.994 131.036C210.367 131.036 210.735 131.063 211.098 131.116C211.471 131.169 211.807 131.281 212.106 131.452C212.404 131.612 212.644 131.841 212.826 132.14C213.007 132.439 213.098 132.828 213.098 133.308V137.564C213.098 137.884 213.114 138.119 213.146 138.268C213.188 138.417 213.316 138.492 213.53 138.492C213.647 138.492 213.786 138.465 213.946 138.412V139.468ZM211.738 135.228C211.567 135.356 211.343 135.452 211.066 135.516C210.788 135.569 210.495 135.617 210.186 135.66C209.887 135.692 209.583 135.735 209.274 135.788C208.964 135.831 208.687 135.905 208.442 136.012C208.196 136.119 207.994 136.273 207.834 136.476C207.684 136.668 207.61 136.935 207.61 137.276C207.61 137.5 207.652 137.692 207.738 137.852C207.834 138.001 207.951 138.124 208.09 138.22C208.239 138.316 208.41 138.385 208.602 138.428C208.794 138.471 208.996 138.492 209.21 138.492C209.658 138.492 210.042 138.433 210.362 138.316C210.682 138.188 210.943 138.033 211.146 137.852C211.348 137.66 211.498 137.457 211.594 137.244C211.69 137.02 211.738 136.812 211.738 136.62V135.228ZM222.06 139.5H220.78V138.188H220.748C220.46 138.7 220.092 139.079 219.644 139.324C219.196 139.559 218.668 139.676 218.06 139.676C217.516 139.676 217.062 139.607 216.7 139.468C216.337 139.319 216.044 139.111 215.82 138.844C215.596 138.577 215.436 138.263 215.34 137.9C215.254 137.527 215.212 137.116 215.212 136.668V131.228H216.572V136.828C216.572 137.34 216.721 137.745 217.02 138.044C217.318 138.343 217.729 138.492 218.252 138.492C218.668 138.492 219.025 138.428 219.324 138.3C219.633 138.172 219.889 137.991 220.092 137.756C220.294 137.521 220.444 137.249 220.54 136.94C220.646 136.62 220.7 136.273 220.7 135.9V131.228H222.06V139.5ZM224.182 128.076H225.542V139.5H224.182V128.076ZM229.537 131.228H231.185V132.428H229.537V137.564C229.537 137.724 229.548 137.852 229.569 137.948C229.601 138.044 229.654 138.119 229.729 138.172C229.804 138.225 229.905 138.263 230.033 138.284C230.172 138.295 230.348 138.3 230.561 138.3H231.185V139.5H230.145C229.793 139.5 229.489 139.479 229.233 139.436C228.988 139.383 228.785 139.292 228.625 139.164C228.476 139.036 228.364 138.855 228.289 138.62C228.214 138.385 228.177 138.076 228.177 137.692V132.428H226.769V131.228H228.177V128.748H229.537V131.228Z" fill="black" fill-opacity="0.68"/>
<path d="M357 134C357 125.163 364.163 118 373 118H403C411.837 118 419 125.163 419 134C419 142.837 411.837 150 403 150H373C364.163 150 357 142.837 357 134Z" fill="#272727"/>
<path d="M369.966 129.004H372.164V137.152H377.036V139H369.966V129.004ZM378.146 133.988C378.174 133.521 378.29 133.134 378.496 132.826C378.701 132.518 378.962 132.271 379.28 132.084C379.597 131.897 379.952 131.767 380.344 131.692C380.745 131.608 381.146 131.566 381.548 131.566C381.912 131.566 382.28 131.594 382.654 131.65C383.027 131.697 383.368 131.795 383.676 131.944C383.984 132.093 384.236 132.303 384.432 132.574C384.628 132.835 384.726 133.185 384.726 133.624V137.39C384.726 137.717 384.744 138.029 384.782 138.328C384.819 138.627 384.884 138.851 384.978 139H382.962C382.924 138.888 382.892 138.776 382.864 138.664C382.845 138.543 382.831 138.421 382.822 138.3C382.504 138.627 382.131 138.855 381.702 138.986C381.272 139.117 380.834 139.182 380.386 139.182C380.04 139.182 379.718 139.14 379.42 139.056C379.121 138.972 378.86 138.841 378.636 138.664C378.412 138.487 378.234 138.263 378.104 137.992C377.982 137.721 377.922 137.399 377.922 137.026C377.922 136.615 377.992 136.279 378.132 136.018C378.281 135.747 378.468 135.533 378.692 135.374C378.925 135.215 379.186 135.099 379.476 135.024C379.774 134.94 380.073 134.875 380.372 134.828C380.67 134.781 380.964 134.744 381.254 134.716C381.543 134.688 381.8 134.646 382.024 134.59C382.248 134.534 382.425 134.455 382.556 134.352C382.686 134.24 382.747 134.081 382.738 133.876C382.738 133.661 382.7 133.493 382.626 133.372C382.56 133.241 382.467 133.143 382.346 133.078C382.234 133.003 382.098 132.957 381.94 132.938C381.79 132.91 381.627 132.896 381.45 132.896C381.058 132.896 380.75 132.98 380.526 133.148C380.302 133.316 380.171 133.596 380.134 133.988H378.146ZM382.738 135.458C382.654 135.533 382.546 135.593 382.416 135.64C382.294 135.677 382.159 135.71 382.01 135.738C381.87 135.766 381.72 135.789 381.562 135.808C381.403 135.827 381.244 135.85 381.086 135.878C380.936 135.906 380.787 135.943 380.638 135.99C380.498 136.037 380.372 136.102 380.26 136.186C380.157 136.261 380.073 136.359 380.008 136.48C379.942 136.601 379.91 136.755 379.91 136.942C379.91 137.119 379.942 137.269 380.008 137.39C380.073 137.511 380.162 137.609 380.274 137.684C380.386 137.749 380.516 137.796 380.666 137.824C380.815 137.852 380.969 137.866 381.128 137.866C381.52 137.866 381.823 137.801 382.038 137.67C382.252 137.539 382.411 137.385 382.514 137.208C382.616 137.021 382.677 136.835 382.696 136.648C382.724 136.461 382.738 136.312 382.738 136.2V135.458ZM391.75 135.388C391.75 135.08 391.717 134.786 391.652 134.506C391.587 134.226 391.484 133.979 391.344 133.764C391.204 133.549 391.027 133.381 390.812 133.26C390.607 133.129 390.355 133.064 390.056 133.064C389.767 133.064 389.515 133.129 389.3 133.26C389.085 133.381 388.908 133.549 388.768 133.764C388.628 133.979 388.525 134.226 388.46 134.506C388.395 134.786 388.362 135.08 388.362 135.388C388.362 135.687 388.395 135.976 388.46 136.256C388.525 136.536 388.628 136.783 388.768 136.998C388.908 137.213 389.085 137.385 389.3 137.516C389.515 137.637 389.767 137.698 390.056 137.698C390.355 137.698 390.607 137.637 390.812 137.516C391.027 137.385 391.204 137.213 391.344 136.998C391.484 136.783 391.587 136.536 391.652 136.256C391.717 135.976 391.75 135.687 391.75 135.388ZM386.444 129.004H388.432V132.644H388.46C388.703 132.271 389.029 132 389.44 131.832C389.86 131.655 390.294 131.566 390.742 131.566C391.106 131.566 391.465 131.641 391.82 131.79C392.175 131.939 392.492 132.168 392.772 132.476C393.061 132.784 393.295 133.181 393.472 133.666C393.649 134.142 393.738 134.711 393.738 135.374C393.738 136.037 393.649 136.611 393.472 137.096C393.295 137.572 393.061 137.964 392.772 138.272C392.492 138.58 392.175 138.809 391.82 138.958C391.465 139.107 391.106 139.182 390.742 139.182C390.21 139.182 389.734 139.098 389.314 138.93C388.894 138.762 388.577 138.477 388.362 138.076H388.334V139H386.444V129.004ZM400.049 134.604C399.956 134.1 399.788 133.717 399.545 133.456C399.312 133.195 398.953 133.064 398.467 133.064C398.15 133.064 397.884 133.12 397.669 133.232C397.464 133.335 397.296 133.465 397.165 133.624C397.044 133.783 396.955 133.951 396.899 134.128C396.853 134.305 396.825 134.464 396.815 134.604H400.049ZM396.815 135.864C396.843 136.508 397.007 136.975 397.305 137.264C397.604 137.553 398.033 137.698 398.593 137.698C398.995 137.698 399.34 137.6 399.629 137.404C399.919 137.199 400.096 136.984 400.161 136.76H401.911C401.631 137.628 401.202 138.249 400.623 138.622C400.045 138.995 399.345 139.182 398.523 139.182C397.954 139.182 397.441 139.093 396.983 138.916C396.526 138.729 396.139 138.468 395.821 138.132C395.504 137.796 395.257 137.395 395.079 136.928C394.911 136.461 394.827 135.948 394.827 135.388C394.827 134.847 394.916 134.343 395.093 133.876C395.271 133.409 395.523 133.008 395.849 132.672C396.176 132.327 396.563 132.056 397.011 131.86C397.469 131.664 397.973 131.566 398.523 131.566C399.139 131.566 399.676 131.687 400.133 131.93C400.591 132.163 400.964 132.481 401.253 132.882C401.552 133.283 401.767 133.741 401.897 134.254C402.028 134.767 402.075 135.304 402.037 135.864H396.815ZM403.448 129.004H405.436V139H403.448V129.004Z" fill="white"/>
<path d="M188.856 209.42C188.771 208.599 188.472 208.007 187.96 207.644C187.459 207.271 186.813 207.084 186.024 207.084C185.704 207.084 185.389 207.116 185.08 207.18C184.771 207.244 184.493 207.351 184.248 207.5C184.013 207.649 183.821 207.852 183.672 208.108C183.533 208.353 183.464 208.663 183.464 209.036C183.464 209.388 183.565 209.676 183.768 209.9C183.981 210.113 184.259 210.289 184.6 210.428C184.952 210.567 185.347 210.684 185.784 210.78C186.221 210.865 186.664 210.961 187.112 211.068C187.571 211.175 188.019 211.303 188.456 211.452C188.893 211.591 189.283 211.783 189.624 212.028C189.976 212.273 190.253 212.583 190.456 212.956C190.669 213.329 190.776 213.799 190.776 214.364C190.776 214.972 190.637 215.495 190.36 215.932C190.093 216.359 189.747 216.711 189.32 216.988C188.893 217.255 188.413 217.447 187.88 217.564C187.357 217.692 186.835 217.756 186.312 217.756C185.672 217.756 185.064 217.676 184.488 217.516C183.923 217.356 183.421 217.116 182.984 216.796C182.557 216.465 182.216 216.049 181.96 215.548C181.715 215.036 181.592 214.433 181.592 213.74H183.032C183.032 214.22 183.123 214.636 183.304 214.988C183.496 215.329 183.741 215.612 184.04 215.836C184.349 216.06 184.707 216.225 185.112 216.332C185.517 216.439 185.933 216.492 186.36 216.492C186.701 216.492 187.043 216.46 187.384 216.396C187.736 216.332 188.051 216.225 188.328 216.076C188.605 215.916 188.829 215.703 189 215.436C189.171 215.169 189.256 214.828 189.256 214.412C189.256 214.017 189.149 213.697 188.936 213.452C188.733 213.207 188.456 213.009 188.104 212.86C187.763 212.7 187.373 212.572 186.936 212.476C186.499 212.38 186.051 212.284 185.592 212.188C185.144 212.081 184.701 211.964 184.264 211.836C183.827 211.697 183.432 211.521 183.08 211.308C182.739 211.084 182.461 210.801 182.248 210.46C182.045 210.108 181.944 209.671 181.944 209.148C181.944 208.572 182.061 208.076 182.296 207.66C182.531 207.233 182.84 206.887 183.224 206.62C183.619 206.343 184.061 206.14 184.552 206.012C185.053 205.873 185.565 205.804 186.088 205.804C186.675 205.804 187.219 205.873 187.72 206.012C188.221 206.151 188.659 206.369 189.032 206.668C189.416 206.967 189.715 207.345 189.928 207.804C190.152 208.252 190.275 208.791 190.296 209.42H188.856ZM192.399 209.228H193.679V210.444H193.711C194.33 209.505 195.22 209.036 196.383 209.036C196.895 209.036 197.359 209.143 197.775 209.356C198.191 209.569 198.484 209.932 198.655 210.444C198.932 209.996 199.295 209.649 199.743 209.404C200.202 209.159 200.703 209.036 201.247 209.036C201.663 209.036 202.036 209.084 202.367 209.18C202.708 209.265 202.996 209.404 203.231 209.596C203.476 209.788 203.663 210.039 203.791 210.348C203.93 210.647 203.999 211.009 203.999 211.436V217.5H202.639V212.076C202.639 211.82 202.618 211.58 202.575 211.356C202.532 211.132 202.452 210.94 202.335 210.78C202.218 210.609 202.052 210.476 201.839 210.38C201.636 210.284 201.37 210.236 201.039 210.236C200.367 210.236 199.839 210.428 199.455 210.812C199.071 211.196 198.879 211.708 198.879 212.348V217.5H197.519V212.076C197.519 211.809 197.492 211.564 197.439 211.34C197.396 211.116 197.316 210.924 197.199 210.764C197.082 210.593 196.922 210.465 196.719 210.38C196.527 210.284 196.276 210.236 195.967 210.236C195.572 210.236 195.231 210.316 194.943 210.476C194.666 210.636 194.436 210.828 194.255 211.052C194.084 211.276 193.956 211.511 193.871 211.756C193.796 211.991 193.759 212.188 193.759 212.348V217.5H192.399V209.228ZM213.368 217.468C213.133 217.607 212.808 217.676 212.392 217.676C212.04 217.676 211.757 217.58 211.544 217.388C211.341 217.185 211.24 216.86 211.24 216.412C210.866 216.86 210.429 217.185 209.928 217.388C209.437 217.58 208.904 217.676 208.328 217.676C207.954 217.676 207.597 217.633 207.256 217.548C206.925 217.463 206.637 217.329 206.392 217.148C206.146 216.967 205.949 216.732 205.8 216.444C205.661 216.145 205.592 215.788 205.592 215.372C205.592 214.903 205.672 214.519 205.832 214.22C205.992 213.921 206.2 213.681 206.456 213.5C206.722 213.308 207.021 213.164 207.352 213.068C207.693 212.972 208.04 212.892 208.392 212.828C208.765 212.753 209.117 212.7 209.448 212.668C209.789 212.625 210.088 212.572 210.344 212.508C210.6 212.433 210.802 212.332 210.952 212.204C211.101 212.065 211.176 211.868 211.176 211.612C211.176 211.313 211.117 211.073 211 210.892C210.893 210.711 210.749 210.572 210.568 210.476C210.397 210.38 210.2 210.316 209.976 210.284C209.762 210.252 209.549 210.236 209.336 210.236C208.76 210.236 208.28 210.348 207.896 210.572C207.512 210.785 207.304 211.196 207.272 211.804H205.912C205.933 211.292 206.04 210.86 206.232 210.508C206.424 210.156 206.68 209.873 207 209.66C207.32 209.436 207.682 209.276 208.088 209.18C208.504 209.084 208.946 209.036 209.416 209.036C209.789 209.036 210.157 209.063 210.52 209.116C210.893 209.169 211.229 209.281 211.528 209.452C211.826 209.612 212.066 209.841 212.248 210.14C212.429 210.439 212.52 210.828 212.52 211.308V215.564C212.52 215.884 212.536 216.119 212.568 216.268C212.61 216.417 212.738 216.492 212.952 216.492C213.069 216.492 213.208 216.465 213.368 216.412V217.468ZM211.16 213.228C210.989 213.356 210.765 213.452 210.488 213.516C210.21 213.569 209.917 213.617 209.608 213.66C209.309 213.692 209.005 213.735 208.696 213.788C208.386 213.831 208.109 213.905 207.864 214.012C207.618 214.119 207.416 214.273 207.256 214.476C207.106 214.668 207.032 214.935 207.032 215.276C207.032 215.5 207.074 215.692 207.16 215.852C207.256 216.001 207.373 216.124 207.512 216.22C207.661 216.316 207.832 216.385 208.024 216.428C208.216 216.471 208.418 216.492 208.632 216.492C209.08 216.492 209.464 216.433 209.784 216.316C210.104 216.188 210.365 216.033 210.568 215.852C210.77 215.66 210.92 215.457 211.016 215.244C211.112 215.02 211.16 214.812 211.16 214.62V213.228ZM214.713 206.076H216.073V217.5H214.713V206.076ZM218.26 206.076H219.62V217.5H218.26V206.076Z" fill="black" fill-opacity="0.68"/>
<path d="M357 212C357 205.373 362.373 200 369 200H397C403.627 200 409 205.373 409 212C409 218.627 403.627 224 397 224H369C362.373 224 357 218.627 357 212Z" fill="#272727"/>
<path d="M367.912 208.432H369.412V215.704H373.768V217H367.912V208.432ZM379.987 215.62C379.987 215.788 380.007 215.908 380.047 215.98C380.095 216.052 380.183 216.088 380.311 216.088C380.351 216.088 380.399 216.088 380.455 216.088C380.511 216.088 380.575 216.08 380.647 216.064V217.012C380.599 217.028 380.535 217.044 380.455 217.06C380.383 217.084 380.307 217.104 380.227 217.12C380.147 217.136 380.067 217.148 379.987 217.156C379.907 217.164 379.839 217.168 379.783 217.168C379.503 217.168 379.271 217.112 379.087 217C378.903 216.888 378.783 216.692 378.727 216.412C378.455 216.676 378.119 216.868 377.719 216.988C377.327 217.108 376.947 217.168 376.579 217.168C376.299 217.168 376.031 217.128 375.775 217.048C375.519 216.976 375.291 216.868 375.091 216.724C374.899 216.572 374.743 216.384 374.623 216.16C374.511 215.928 374.455 215.66 374.455 215.356C374.455 214.972 374.523 214.66 374.659 214.42C374.803 214.18 374.987 213.992 375.211 213.856C375.443 213.72 375.699 213.624 375.979 213.568C376.267 213.504 376.555 213.456 376.843 213.424C377.091 213.376 377.327 213.344 377.551 213.328C377.775 213.304 377.971 213.268 378.139 213.22C378.315 213.172 378.451 213.1 378.547 213.004C378.651 212.9 378.703 212.748 378.703 212.548C378.703 212.372 378.659 212.228 378.571 212.116C378.491 212.004 378.387 211.92 378.259 211.864C378.139 211.8 378.003 211.76 377.851 211.744C377.699 211.72 377.555 211.708 377.419 211.708C377.035 211.708 376.719 211.788 376.471 211.948C376.223 212.108 376.083 212.356 376.051 212.692H374.683C374.707 212.292 374.803 211.96 374.971 211.696C375.139 211.432 375.351 211.22 375.607 211.06C375.871 210.9 376.167 210.788 376.495 210.724C376.823 210.66 377.159 210.628 377.503 210.628C377.807 210.628 378.107 210.66 378.403 210.724C378.699 210.788 378.963 210.892 379.195 211.036C379.435 211.18 379.627 211.368 379.771 211.6C379.915 211.824 379.987 212.1 379.987 212.428V215.62ZM378.619 213.892C378.411 214.028 378.155 214.112 377.851 214.144C377.547 214.168 377.243 214.208 376.939 214.264C376.795 214.288 376.655 214.324 376.519 214.372C376.383 214.412 376.263 214.472 376.159 214.552C376.055 214.624 375.971 214.724 375.907 214.852C375.851 214.972 375.823 215.12 375.823 215.296C375.823 215.448 375.867 215.576 375.955 215.68C376.043 215.784 376.147 215.868 376.267 215.932C376.395 215.988 376.531 216.028 376.675 216.052C376.827 216.076 376.963 216.088 377.083 216.088C377.235 216.088 377.399 216.068 377.575 216.028C377.751 215.988 377.915 215.92 378.067 215.824C378.227 215.728 378.359 215.608 378.463 215.464C378.567 215.312 378.619 215.128 378.619 214.912V213.892ZM381.675 208.432H383.043V211.6H383.067C383.163 211.448 383.279 211.312 383.415 211.192C383.551 211.072 383.699 210.972 383.859 210.892C384.027 210.804 384.199 210.74 384.375 210.7C384.559 210.652 384.739 210.628 384.915 210.628C385.403 210.628 385.827 210.716 386.187 210.892C386.555 211.06 386.859 211.296 387.099 211.6C387.339 211.896 387.519 212.244 387.639 212.644C387.759 213.044 387.819 213.472 387.819 213.928C387.819 214.344 387.763 214.748 387.651 215.14C387.547 215.532 387.383 215.88 387.159 216.184C386.943 216.48 386.667 216.72 386.331 216.904C385.995 217.08 385.599 217.168 385.143 217.168C384.935 217.168 384.723 217.152 384.507 217.12C384.299 217.096 384.099 217.044 383.907 216.964C383.715 216.884 383.539 216.78 383.379 216.652C383.227 216.524 383.099 216.356 382.995 216.148H382.971V217H381.675V208.432ZM386.451 213.904C386.451 213.624 386.415 213.352 386.343 213.088C386.271 212.824 386.163 212.592 386.019 212.392C385.875 212.184 385.695 212.02 385.479 211.9C385.263 211.772 385.015 211.708 384.735 211.708C384.159 211.708 383.723 211.908 383.427 212.308C383.139 212.708 382.995 213.24 382.995 213.904C382.995 214.216 383.031 214.508 383.103 214.78C383.183 215.044 383.299 215.272 383.451 215.464C383.603 215.656 383.783 215.808 383.991 215.92C384.207 216.032 384.455 216.088 384.735 216.088C385.047 216.088 385.311 216.024 385.527 215.896C385.743 215.768 385.919 215.604 386.055 215.404C386.199 215.196 386.299 214.964 386.355 214.708C386.419 214.444 386.451 214.176 386.451 213.904ZM393.415 213.352C393.399 213.136 393.351 212.928 393.271 212.728C393.199 212.528 393.095 212.356 392.959 212.212C392.831 212.06 392.671 211.94 392.479 211.852C392.295 211.756 392.087 211.708 391.855 211.708C391.615 211.708 391.395 211.752 391.195 211.84C391.003 211.92 390.835 212.036 390.691 212.188C390.555 212.332 390.443 212.504 390.355 212.704C390.275 212.904 390.231 213.12 390.223 213.352H393.415ZM390.223 214.252C390.223 214.492 390.255 214.724 390.319 214.948C390.391 215.172 390.495 215.368 390.631 215.536C390.767 215.704 390.939 215.84 391.147 215.944C391.355 216.04 391.603 216.088 391.891 216.088C392.291 216.088 392.611 216.004 392.851 215.836C393.099 215.66 393.283 215.4 393.403 215.056H394.699C394.627 215.392 394.503 215.692 394.327 215.956C394.151 216.22 393.939 216.444 393.691 216.628C393.443 216.804 393.163 216.936 392.851 217.024C392.547 217.12 392.227 217.168 391.891 217.168C391.403 217.168 390.971 217.088 390.595 216.928C390.219 216.768 389.899 216.544 389.635 216.256C389.379 215.968 389.183 215.624 389.047 215.224C388.919 214.824 388.855 214.384 388.855 213.904C388.855 213.464 388.923 213.048 389.059 212.656C389.203 212.256 389.403 211.908 389.659 211.612C389.923 211.308 390.239 211.068 390.607 210.892C390.975 210.716 391.391 210.628 391.855 210.628C392.343 210.628 392.779 210.732 393.163 210.94C393.555 211.14 393.879 211.408 394.135 211.744C394.391 212.08 394.575 212.468 394.687 212.908C394.807 213.34 394.839 213.788 394.783 214.252H390.223ZM396.038 208.432H397.406V217H396.038V208.432Z" fill="white"/>
</svg>
