<svg width="600" height="342" viewBox="0 0 600 342" fill="none" xmlns="http://www.w3.org/2000/svg">
<rect width="600" height="342" fill="black" fill-opacity="0.04"/>
<path d="M182.28 124.076H184.36L187.96 133.676L191.576 124.076H193.656V135.5H192.216V125.996H192.184L188.616 135.5H187.32L183.752 125.996H183.72V135.5H182.28V124.076ZM202.81 135.5H201.53V134.188H201.498C201.21 134.7 200.842 135.079 200.394 135.324C199.946 135.559 199.418 135.676 198.81 135.676C198.266 135.676 197.812 135.607 197.45 135.468C197.087 135.319 196.794 135.111 196.57 134.844C196.346 134.577 196.186 134.263 196.09 133.9C196.004 133.527 195.962 133.116 195.962 132.668V127.228H197.322V132.828C197.322 133.34 197.471 133.745 197.77 134.044C198.068 134.343 198.479 134.492 199.002 134.492C199.418 134.492 199.775 134.428 200.074 134.3C200.383 134.172 200.639 133.991 200.842 133.756C201.044 133.521 201.194 133.249 201.29 132.94C201.396 132.62 201.45 132.273 201.45 131.9V127.228H202.81V135.5ZM206.74 127.228H208.388V128.428H206.74V133.564C206.74 133.724 206.751 133.852 206.772 133.948C206.804 134.044 206.857 134.119 206.932 134.172C207.007 134.225 207.108 134.263 207.236 134.284C207.375 134.295 207.551 134.3 207.764 134.3H208.388V135.5H207.348C206.996 135.5 206.692 135.479 206.436 135.436C206.191 135.383 205.988 135.292 205.828 135.164C205.679 135.036 205.567 134.855 205.492 134.62C205.417 134.385 205.38 134.076 205.38 133.692V128.428H203.972V127.228H205.38V124.748H206.74V127.228ZM215.643 130.572C215.622 130.252 215.547 129.948 215.419 129.66C215.302 129.372 215.136 129.127 214.923 128.924C214.72 128.711 214.475 128.545 214.187 128.428C213.91 128.3 213.6 128.236 213.259 128.236C212.907 128.236 212.587 128.3 212.299 128.428C212.022 128.545 211.782 128.711 211.579 128.924C211.376 129.137 211.216 129.388 211.099 129.676C210.982 129.953 210.912 130.252 210.891 130.572H215.643ZM216.955 132.876C216.774 133.804 216.374 134.503 215.755 134.972C215.136 135.441 214.358 135.676 213.419 135.676C212.758 135.676 212.182 135.569 211.691 135.356C211.211 135.143 210.806 134.844 210.475 134.46C210.144 134.076 209.894 133.617 209.723 133.084C209.563 132.551 209.472 131.969 209.451 131.34C209.451 130.711 209.547 130.135 209.739 129.612C209.931 129.089 210.198 128.636 210.539 128.252C210.891 127.868 211.302 127.569 211.771 127.356C212.251 127.143 212.774 127.036 213.339 127.036C214.075 127.036 214.683 127.191 215.163 127.5C215.654 127.799 216.043 128.183 216.331 128.652C216.63 129.121 216.832 129.633 216.939 130.188C217.056 130.743 217.104 131.271 217.083 131.772H210.891C210.88 132.135 210.923 132.481 211.019 132.812C211.115 133.132 211.27 133.42 211.483 133.676C211.696 133.921 211.968 134.119 212.299 134.268C212.63 134.417 213.019 134.492 213.467 134.492C214.043 134.492 214.512 134.359 214.875 134.092C215.248 133.825 215.494 133.42 215.611 132.876H216.955ZM219.485 131.436C219.485 131.82 219.533 132.199 219.629 132.572C219.735 132.935 219.89 133.26 220.093 133.548C220.306 133.836 220.573 134.065 220.893 134.236C221.223 134.407 221.607 134.492 222.045 134.492C222.503 134.492 222.893 134.401 223.213 134.22C223.533 134.039 223.794 133.804 223.997 133.516C224.199 133.217 224.343 132.881 224.429 132.508C224.525 132.135 224.573 131.756 224.573 131.372C224.573 130.967 224.525 130.577 224.429 130.204C224.333 129.82 224.178 129.484 223.965 129.196C223.762 128.908 223.495 128.679 223.165 128.508C222.834 128.327 222.434 128.236 221.965 128.236C221.506 128.236 221.117 128.327 220.797 128.508C220.477 128.689 220.221 128.929 220.029 129.228C219.837 129.527 219.698 129.868 219.613 130.252C219.527 130.636 219.485 131.031 219.485 131.436ZM225.885 135.5H224.525V134.38H224.493C224.269 134.839 223.917 135.169 223.437 135.372C222.957 135.575 222.429 135.676 221.853 135.676C221.213 135.676 220.653 135.559 220.173 135.324C219.703 135.089 219.309 134.775 218.989 134.38C218.679 133.985 218.445 133.527 218.285 133.004C218.125 132.481 218.045 131.927 218.045 131.34C218.045 130.753 218.119 130.199 218.269 129.676C218.429 129.153 218.663 128.7 218.973 128.316C219.293 127.921 219.687 127.612 220.157 127.388C220.637 127.153 221.191 127.036 221.821 127.036C222.034 127.036 222.263 127.057 222.509 127.1C222.754 127.143 222.999 127.217 223.245 127.324C223.49 127.42 223.719 127.553 223.933 127.724C224.157 127.884 224.343 128.087 224.493 128.332H224.525V124.076H225.885V135.5Z" fill="black" fill-opacity="0.68"/>
<path d="M357 130C357 121.163 364.163 114 373 114H403C411.837 114 419 121.163 419 130C419 138.837 411.837 146 403 146H373C364.163 146 357 138.837 357 130Z" fill="black" fill-opacity="0.04"/>
<path d="M369.966 125.004H372.164V133.152H377.036V135H369.966V125.004ZM378.146 129.988C378.174 129.521 378.29 129.134 378.496 128.826C378.701 128.518 378.962 128.271 379.28 128.084C379.597 127.897 379.952 127.767 380.344 127.692C380.745 127.608 381.146 127.566 381.548 127.566C381.912 127.566 382.28 127.594 382.654 127.65C383.027 127.697 383.368 127.795 383.676 127.944C383.984 128.093 384.236 128.303 384.432 128.574C384.628 128.835 384.726 129.185 384.726 129.624V133.39C384.726 133.717 384.744 134.029 384.782 134.328C384.819 134.627 384.884 134.851 384.978 135H382.962C382.924 134.888 382.892 134.776 382.864 134.664C382.845 134.543 382.831 134.421 382.822 134.3C382.504 134.627 382.131 134.855 381.702 134.986C381.272 135.117 380.834 135.182 380.386 135.182C380.04 135.182 379.718 135.14 379.42 135.056C379.121 134.972 378.86 134.841 378.636 134.664C378.412 134.487 378.234 134.263 378.104 133.992C377.982 133.721 377.922 133.399 377.922 133.026C377.922 132.615 377.992 132.279 378.132 132.018C378.281 131.747 378.468 131.533 378.692 131.374C378.925 131.215 379.186 131.099 379.476 131.024C379.774 130.94 380.073 130.875 380.372 130.828C380.67 130.781 380.964 130.744 381.254 130.716C381.543 130.688 381.8 130.646 382.024 130.59C382.248 130.534 382.425 130.455 382.556 130.352C382.686 130.24 382.747 130.081 382.738 129.876C382.738 129.661 382.7 129.493 382.626 129.372C382.56 129.241 382.467 129.143 382.346 129.078C382.234 129.003 382.098 128.957 381.94 128.938C381.79 128.91 381.627 128.896 381.45 128.896C381.058 128.896 380.75 128.98 380.526 129.148C380.302 129.316 380.171 129.596 380.134 129.988H378.146ZM382.738 131.458C382.654 131.533 382.546 131.593 382.416 131.64C382.294 131.677 382.159 131.71 382.01 131.738C381.87 131.766 381.72 131.789 381.562 131.808C381.403 131.827 381.244 131.85 381.086 131.878C380.936 131.906 380.787 131.943 380.638 131.99C380.498 132.037 380.372 132.102 380.26 132.186C380.157 132.261 380.073 132.359 380.008 132.48C379.942 132.601 379.91 132.755 379.91 132.942C379.91 133.119 379.942 133.269 380.008 133.39C380.073 133.511 380.162 133.609 380.274 133.684C380.386 133.749 380.516 133.796 380.666 133.824C380.815 133.852 380.969 133.866 381.128 133.866C381.52 133.866 381.823 133.801 382.038 133.67C382.252 133.539 382.411 133.385 382.514 133.208C382.616 133.021 382.677 132.835 382.696 132.648C382.724 132.461 382.738 132.312 382.738 132.2V131.458ZM391.75 131.388C391.75 131.08 391.717 130.786 391.652 130.506C391.587 130.226 391.484 129.979 391.344 129.764C391.204 129.549 391.027 129.381 390.812 129.26C390.607 129.129 390.355 129.064 390.056 129.064C389.767 129.064 389.515 129.129 389.3 129.26C389.085 129.381 388.908 129.549 388.768 129.764C388.628 129.979 388.525 130.226 388.46 130.506C388.395 130.786 388.362 131.08 388.362 131.388C388.362 131.687 388.395 131.976 388.46 132.256C388.525 132.536 388.628 132.783 388.768 132.998C388.908 133.213 389.085 133.385 389.3 133.516C389.515 133.637 389.767 133.698 390.056 133.698C390.355 133.698 390.607 133.637 390.812 133.516C391.027 133.385 391.204 133.213 391.344 132.998C391.484 132.783 391.587 132.536 391.652 132.256C391.717 131.976 391.75 131.687 391.75 131.388ZM386.444 125.004H388.432V128.644H388.46C388.703 128.271 389.029 128 389.44 127.832C389.86 127.655 390.294 127.566 390.742 127.566C391.106 127.566 391.465 127.641 391.82 127.79C392.175 127.939 392.492 128.168 392.772 128.476C393.061 128.784 393.295 129.181 393.472 129.666C393.649 130.142 393.738 130.711 393.738 131.374C393.738 132.037 393.649 132.611 393.472 133.096C393.295 133.572 393.061 133.964 392.772 134.272C392.492 134.58 392.175 134.809 391.82 134.958C391.465 135.107 391.106 135.182 390.742 135.182C390.21 135.182 389.734 135.098 389.314 134.93C388.894 134.762 388.577 134.477 388.362 134.076H388.334V135H386.444V125.004ZM400.049 130.604C399.956 130.1 399.788 129.717 399.545 129.456C399.312 129.195 398.953 129.064 398.467 129.064C398.15 129.064 397.884 129.12 397.669 129.232C397.464 129.335 397.296 129.465 397.165 129.624C397.044 129.783 396.955 129.951 396.899 130.128C396.853 130.305 396.825 130.464 396.815 130.604H400.049ZM396.815 131.864C396.843 132.508 397.007 132.975 397.305 133.264C397.604 133.553 398.033 133.698 398.593 133.698C398.995 133.698 399.34 133.6 399.629 133.404C399.919 133.199 400.096 132.984 400.161 132.76H401.911C401.631 133.628 401.202 134.249 400.623 134.622C400.045 134.995 399.345 135.182 398.523 135.182C397.954 135.182 397.441 135.093 396.983 134.916C396.526 134.729 396.139 134.468 395.821 134.132C395.504 133.796 395.257 133.395 395.079 132.928C394.911 132.461 394.827 131.948 394.827 131.388C394.827 130.847 394.916 130.343 395.093 129.876C395.271 129.409 395.523 129.008 395.849 128.672C396.176 128.327 396.563 128.056 397.011 127.86C397.469 127.664 397.973 127.566 398.523 127.566C399.139 127.566 399.676 127.687 400.133 127.93C400.591 128.163 400.964 128.481 401.253 128.882C401.552 129.283 401.767 129.741 401.897 130.254C402.028 130.767 402.075 131.304 402.037 131.864H396.815ZM403.448 125.004H405.436V135H403.448V125.004Z" fill="black"/>
<path d="M182.248 206.076H190.136V207.356H183.768V210.988H189.704V212.268H183.768V216.22H190.184V217.5H182.248V206.076ZM191.805 209.228H193.085V210.444H193.117C193.736 209.505 194.627 209.036 195.789 209.036C196.301 209.036 196.765 209.143 197.181 209.356C197.597 209.569 197.891 209.932 198.061 210.444C198.339 209.996 198.701 209.649 199.149 209.404C199.608 209.159 200.109 209.036 200.653 209.036C201.069 209.036 201.443 209.084 201.773 209.18C202.115 209.265 202.403 209.404 202.637 209.596C202.883 209.788 203.069 210.039 203.197 210.348C203.336 210.647 203.405 211.009 203.405 211.436V217.5H202.045V212.076C202.045 211.82 202.024 211.58 201.981 211.356C201.939 211.132 201.859 210.94 201.741 210.78C201.624 210.609 201.459 210.476 201.245 210.38C201.043 210.284 200.776 210.236 200.445 210.236C199.773 210.236 199.245 210.428 198.861 210.812C198.477 211.196 198.285 211.708 198.285 212.348V217.5H196.925V212.076C196.925 211.809 196.899 211.564 196.845 211.34C196.803 211.116 196.723 210.924 196.605 210.764C196.488 210.593 196.328 210.465 196.125 210.38C195.933 210.284 195.683 210.236 195.373 210.236C194.979 210.236 194.637 210.316 194.349 210.476C194.072 210.636 193.843 210.828 193.661 211.052C193.491 211.276 193.363 211.511 193.277 211.756C193.203 211.991 193.165 212.188 193.165 212.348V217.5H191.805V209.228ZM205.494 209.228H206.854V210.348H206.886C207.11 209.889 207.462 209.559 207.942 209.356C208.422 209.143 208.95 209.036 209.526 209.036C210.166 209.036 210.721 209.153 211.19 209.388C211.67 209.623 212.065 209.943 212.374 210.348C212.694 210.743 212.934 211.201 213.094 211.724C213.254 212.247 213.334 212.801 213.334 213.388C213.334 213.975 213.254 214.529 213.094 215.052C212.945 215.575 212.71 216.033 212.39 216.428C212.081 216.812 211.686 217.116 211.206 217.34C210.737 217.564 210.187 217.676 209.558 217.676C209.355 217.676 209.126 217.655 208.87 217.612C208.625 217.569 208.379 217.5 208.134 217.404C207.889 217.308 207.654 217.18 207.43 217.02C207.217 216.849 207.035 216.641 206.886 216.396H206.854V220.652H205.494V209.228ZM211.894 213.292C211.894 212.908 211.841 212.535 211.734 212.172C211.638 211.799 211.483 211.468 211.27 211.18C211.067 210.892 210.801 210.663 210.47 210.492C210.15 210.321 209.771 210.236 209.334 210.236C208.875 210.236 208.486 210.327 208.166 210.508C207.846 210.689 207.585 210.929 207.382 211.228C207.179 211.516 207.03 211.847 206.934 212.22C206.849 212.593 206.806 212.972 206.806 213.356C206.806 213.761 206.854 214.156 206.95 214.54C207.046 214.913 207.195 215.244 207.398 215.532C207.611 215.82 207.883 216.055 208.214 216.236C208.545 216.407 208.945 216.492 209.414 216.492C209.883 216.492 210.273 216.401 210.582 216.22C210.902 216.039 211.158 215.799 211.35 215.5C211.542 215.201 211.681 214.86 211.766 214.476C211.851 214.092 211.894 213.697 211.894 213.292ZM214.93 206.076H216.29V210.444H216.322C216.429 210.188 216.578 209.975 216.77 209.804C216.962 209.623 217.176 209.479 217.41 209.372C217.656 209.255 217.906 209.169 218.162 209.116C218.429 209.063 218.685 209.036 218.93 209.036C219.474 209.036 219.928 209.111 220.29 209.26C220.653 209.409 220.946 209.617 221.17 209.884C221.394 210.151 221.549 210.471 221.634 210.844C221.73 211.207 221.778 211.612 221.778 212.06V217.5H220.418V211.9C220.418 211.388 220.269 210.983 219.97 210.684C219.672 210.385 219.261 210.236 218.738 210.236C218.322 210.236 217.96 210.3 217.65 210.428C217.352 210.556 217.101 210.737 216.898 210.972C216.696 211.207 216.541 211.484 216.434 211.804C216.338 212.113 216.29 212.455 216.29 212.828V217.5H214.93V206.076ZM231.149 217.468C230.914 217.607 230.589 217.676 230.173 217.676C229.821 217.676 229.538 217.58 229.325 217.388C229.122 217.185 229.021 216.86 229.021 216.412C228.648 216.86 228.21 217.185 227.709 217.388C227.218 217.58 226.685 217.676 226.109 217.676C225.736 217.676 225.378 217.633 225.037 217.548C224.706 217.463 224.418 217.329 224.173 217.148C223.928 216.967 223.73 216.732 223.581 216.444C223.442 216.145 223.373 215.788 223.373 215.372C223.373 214.903 223.453 214.519 223.613 214.22C223.773 213.921 223.981 213.681 224.237 213.5C224.504 213.308 224.802 213.164 225.133 213.068C225.474 212.972 225.821 212.892 226.173 212.828C226.546 212.753 226.898 212.7 227.229 212.668C227.57 212.625 227.869 212.572 228.125 212.508C228.381 212.433 228.584 212.332 228.733 212.204C228.882 212.065 228.957 211.868 228.957 211.612C228.957 211.313 228.898 211.073 228.781 210.892C228.674 210.711 228.53 210.572 228.349 210.476C228.178 210.38 227.981 210.316 227.757 210.284C227.544 210.252 227.33 210.236 227.117 210.236C226.541 210.236 226.061 210.348 225.677 210.572C225.293 210.785 225.085 211.196 225.053 211.804H223.693C223.714 211.292 223.821 210.86 224.013 210.508C224.205 210.156 224.461 209.873 224.781 209.66C225.101 209.436 225.464 209.276 225.869 209.18C226.285 209.084 226.728 209.036 227.197 209.036C227.57 209.036 227.938 209.063 228.301 209.116C228.674 209.169 229.01 209.281 229.309 209.452C229.608 209.612 229.848 209.841 230.029 210.14C230.21 210.439 230.301 210.828 230.301 211.308V215.564C230.301 215.884 230.317 216.119 230.349 216.268C230.392 216.417 230.52 216.492 230.733 216.492C230.85 216.492 230.989 216.465 231.149 216.412V217.468ZM228.941 213.228C228.77 213.356 228.546 213.452 228.269 213.516C227.992 213.569 227.698 213.617 227.389 213.66C227.09 213.692 226.786 213.735 226.477 213.788C226.168 213.831 225.89 213.905 225.645 214.012C225.4 214.119 225.197 214.273 225.037 214.476C224.888 214.668 224.813 214.935 224.813 215.276C224.813 215.5 224.856 215.692 224.941 215.852C225.037 216.001 225.154 216.124 225.293 216.22C225.442 216.316 225.613 216.385 225.805 216.428C225.997 216.471 226.2 216.492 226.413 216.492C226.861 216.492 227.245 216.433 227.565 216.316C227.885 216.188 228.146 216.033 228.349 215.852C228.552 215.66 228.701 215.457 228.797 215.244C228.893 215.02 228.941 214.812 228.941 214.62V213.228ZM233.247 214.892C233.257 215.191 233.327 215.447 233.455 215.66C233.583 215.863 233.748 216.028 233.951 216.156C234.164 216.273 234.399 216.359 234.655 216.412C234.921 216.465 235.193 216.492 235.471 216.492C235.684 216.492 235.908 216.476 236.143 216.444C236.377 216.412 236.591 216.353 236.783 216.268C236.985 216.183 237.151 216.06 237.279 215.9C237.407 215.729 237.471 215.516 237.471 215.26C237.471 214.908 237.337 214.641 237.071 214.46C236.804 214.279 236.468 214.135 236.063 214.028C235.668 213.911 235.236 213.809 234.767 213.724C234.297 213.628 233.86 213.5 233.455 213.34C233.06 213.169 232.729 212.935 232.463 212.636C232.196 212.337 232.063 211.921 232.063 211.388C232.063 210.972 232.153 210.615 232.335 210.316C232.527 210.017 232.767 209.777 233.055 209.596C233.353 209.404 233.684 209.265 234.047 209.18C234.42 209.084 234.788 209.036 235.151 209.036C235.62 209.036 236.052 209.079 236.447 209.164C236.841 209.239 237.188 209.377 237.487 209.58C237.796 209.772 238.041 210.039 238.223 210.38C238.404 210.711 238.511 211.127 238.543 211.628H237.183C237.161 211.361 237.092 211.143 236.975 210.972C236.857 210.791 236.708 210.647 236.527 210.54C236.345 210.433 236.143 210.359 235.919 210.316C235.705 210.263 235.487 210.236 235.263 210.236C235.06 210.236 234.852 210.252 234.639 210.284C234.436 210.316 234.249 210.375 234.079 210.46C233.908 210.535 233.769 210.641 233.663 210.78C233.556 210.908 233.503 211.079 233.503 211.292C233.503 211.527 233.583 211.724 233.743 211.884C233.913 212.033 234.127 212.161 234.383 212.268C234.639 212.364 234.927 212.449 235.247 212.524C235.567 212.588 235.887 212.657 236.207 212.732C236.548 212.807 236.879 212.897 237.199 213.004C237.529 213.111 237.817 213.255 238.063 213.436C238.319 213.607 238.521 213.825 238.671 214.092C238.831 214.359 238.911 214.689 238.911 215.084C238.911 215.585 238.804 216.001 238.591 216.332C238.388 216.663 238.116 216.929 237.775 217.132C237.444 217.335 237.065 217.473 236.639 217.548C236.223 217.633 235.807 217.676 235.391 217.676C234.932 217.676 234.495 217.628 234.079 217.532C233.663 217.436 233.295 217.281 232.975 217.068C232.655 216.844 232.399 216.556 232.207 216.204C232.015 215.841 231.908 215.404 231.887 214.892H233.247ZM241.855 207.74H240.495V206.076H241.855V207.74ZM240.495 209.228H241.855V217.5H240.495V209.228ZM243.29 216.46L248.282 210.428H243.61V209.228H250.042V210.156L244.986 216.3H250.266V217.5H243.29V216.46ZM257.393 212.572C257.372 212.252 257.297 211.948 257.169 211.66C257.052 211.372 256.886 211.127 256.673 210.924C256.47 210.711 256.225 210.545 255.937 210.428C255.66 210.3 255.35 210.236 255.009 210.236C254.657 210.236 254.337 210.3 254.049 210.428C253.772 210.545 253.532 210.711 253.329 210.924C253.126 211.137 252.966 211.388 252.849 211.676C252.732 211.953 252.662 212.252 252.641 212.572H257.393ZM258.705 214.876C258.524 215.804 258.124 216.503 257.505 216.972C256.886 217.441 256.108 217.676 255.169 217.676C254.508 217.676 253.932 217.569 253.441 217.356C252.961 217.143 252.556 216.844 252.225 216.46C251.894 216.076 251.644 215.617 251.473 215.084C251.313 214.551 251.222 213.969 251.201 213.34C251.201 212.711 251.297 212.135 251.489 211.612C251.681 211.089 251.948 210.636 252.289 210.252C252.641 209.868 253.052 209.569 253.521 209.356C254.001 209.143 254.524 209.036 255.089 209.036C255.825 209.036 256.433 209.191 256.913 209.5C257.404 209.799 257.793 210.183 258.081 210.652C258.38 211.121 258.582 211.633 258.689 212.188C258.806 212.743 258.854 213.271 258.833 213.772H252.641C252.63 214.135 252.673 214.481 252.769 214.812C252.865 215.132 253.02 215.42 253.233 215.676C253.446 215.921 253.718 216.119 254.049 216.268C254.38 216.417 254.769 216.492 255.217 216.492C255.793 216.492 256.262 216.359 256.625 216.092C256.998 215.825 257.244 215.42 257.361 214.876H258.705ZM261.235 213.436C261.235 213.82 261.283 214.199 261.379 214.572C261.485 214.935 261.64 215.26 261.843 215.548C262.056 215.836 262.323 216.065 262.643 216.236C262.973 216.407 263.357 216.492 263.795 216.492C264.253 216.492 264.643 216.401 264.963 216.22C265.283 216.039 265.544 215.804 265.747 215.516C265.949 215.217 266.093 214.881 266.179 214.508C266.275 214.135 266.323 213.756 266.323 213.372C266.323 212.967 266.275 212.577 266.179 212.204C266.083 211.82 265.928 211.484 265.715 211.196C265.512 210.908 265.245 210.679 264.915 210.508C264.584 210.327 264.184 210.236 263.715 210.236C263.256 210.236 262.867 210.327 262.547 210.508C262.227 210.689 261.971 210.929 261.779 211.228C261.587 211.527 261.448 211.868 261.363 212.252C261.277 212.636 261.235 213.031 261.235 213.436ZM267.635 217.5H266.275V216.38H266.243C266.019 216.839 265.667 217.169 265.187 217.372C264.707 217.575 264.179 217.676 263.603 217.676C262.963 217.676 262.403 217.559 261.923 217.324C261.453 217.089 261.059 216.775 260.739 216.38C260.429 215.985 260.195 215.527 260.035 215.004C259.875 214.481 259.795 213.927 259.795 213.34C259.795 212.753 259.869 212.199 260.019 211.676C260.179 211.153 260.413 210.7 260.723 210.316C261.043 209.921 261.437 209.612 261.907 209.388C262.387 209.153 262.941 209.036 263.571 209.036C263.784 209.036 264.013 209.057 264.259 209.1C264.504 209.143 264.749 209.217 264.995 209.324C265.24 209.42 265.469 209.553 265.683 209.724C265.907 209.884 266.093 210.087 266.243 210.332H266.275V206.076H267.635V217.5Z" fill="black" fill-opacity="0.68"/>
<path d="M357 212C357 203.163 364.163 196 373 196H403C411.837 196 419 203.163 419 212C419 220.837 411.837 228 403 228H373C364.163 228 357 220.837 357 212Z" fill="#272727"/>
<path d="M369.966 207.004H372.164V215.152H377.036V217H369.966V207.004ZM378.146 211.988C378.174 211.521 378.29 211.134 378.496 210.826C378.701 210.518 378.962 210.271 379.28 210.084C379.597 209.897 379.952 209.767 380.344 209.692C380.745 209.608 381.146 209.566 381.548 209.566C381.912 209.566 382.28 209.594 382.654 209.65C383.027 209.697 383.368 209.795 383.676 209.944C383.984 210.093 384.236 210.303 384.432 210.574C384.628 210.835 384.726 211.185 384.726 211.624V215.39C384.726 215.717 384.744 216.029 384.782 216.328C384.819 216.627 384.884 216.851 384.978 217H382.962C382.924 216.888 382.892 216.776 382.864 216.664C382.845 216.543 382.831 216.421 382.822 216.3C382.504 216.627 382.131 216.855 381.702 216.986C381.272 217.117 380.834 217.182 380.386 217.182C380.04 217.182 379.718 217.14 379.42 217.056C379.121 216.972 378.86 216.841 378.636 216.664C378.412 216.487 378.234 216.263 378.104 215.992C377.982 215.721 377.922 215.399 377.922 215.026C377.922 214.615 377.992 214.279 378.132 214.018C378.281 213.747 378.468 213.533 378.692 213.374C378.925 213.215 379.186 213.099 379.476 213.024C379.774 212.94 380.073 212.875 380.372 212.828C380.67 212.781 380.964 212.744 381.254 212.716C381.543 212.688 381.8 212.646 382.024 212.59C382.248 212.534 382.425 212.455 382.556 212.352C382.686 212.24 382.747 212.081 382.738 211.876C382.738 211.661 382.7 211.493 382.626 211.372C382.56 211.241 382.467 211.143 382.346 211.078C382.234 211.003 382.098 210.957 381.94 210.938C381.79 210.91 381.627 210.896 381.45 210.896C381.058 210.896 380.75 210.98 380.526 211.148C380.302 211.316 380.171 211.596 380.134 211.988H378.146ZM382.738 213.458C382.654 213.533 382.546 213.593 382.416 213.64C382.294 213.677 382.159 213.71 382.01 213.738C381.87 213.766 381.72 213.789 381.562 213.808C381.403 213.827 381.244 213.85 381.086 213.878C380.936 213.906 380.787 213.943 380.638 213.99C380.498 214.037 380.372 214.102 380.26 214.186C380.157 214.261 380.073 214.359 380.008 214.48C379.942 214.601 379.91 214.755 379.91 214.942C379.91 215.119 379.942 215.269 380.008 215.39C380.073 215.511 380.162 215.609 380.274 215.684C380.386 215.749 380.516 215.796 380.666 215.824C380.815 215.852 380.969 215.866 381.128 215.866C381.52 215.866 381.823 215.801 382.038 215.67C382.252 215.539 382.411 215.385 382.514 215.208C382.616 215.021 382.677 214.835 382.696 214.648C382.724 214.461 382.738 214.312 382.738 214.2V213.458ZM391.75 213.388C391.75 213.08 391.717 212.786 391.652 212.506C391.587 212.226 391.484 211.979 391.344 211.764C391.204 211.549 391.027 211.381 390.812 211.26C390.607 211.129 390.355 211.064 390.056 211.064C389.767 211.064 389.515 211.129 389.3 211.26C389.085 211.381 388.908 211.549 388.768 211.764C388.628 211.979 388.525 212.226 388.46 212.506C388.395 212.786 388.362 213.08 388.362 213.388C388.362 213.687 388.395 213.976 388.46 214.256C388.525 214.536 388.628 214.783 388.768 214.998C388.908 215.213 389.085 215.385 389.3 215.516C389.515 215.637 389.767 215.698 390.056 215.698C390.355 215.698 390.607 215.637 390.812 215.516C391.027 215.385 391.204 215.213 391.344 214.998C391.484 214.783 391.587 214.536 391.652 214.256C391.717 213.976 391.75 213.687 391.75 213.388ZM386.444 207.004H388.432V210.644H388.46C388.703 210.271 389.029 210 389.44 209.832C389.86 209.655 390.294 209.566 390.742 209.566C391.106 209.566 391.465 209.641 391.82 209.79C392.175 209.939 392.492 210.168 392.772 210.476C393.061 210.784 393.295 211.181 393.472 211.666C393.649 212.142 393.738 212.711 393.738 213.374C393.738 214.037 393.649 214.611 393.472 215.096C393.295 215.572 393.061 215.964 392.772 216.272C392.492 216.58 392.175 216.809 391.82 216.958C391.465 217.107 391.106 217.182 390.742 217.182C390.21 217.182 389.734 217.098 389.314 216.93C388.894 216.762 388.577 216.477 388.362 216.076H388.334V217H386.444V207.004ZM400.049 212.604C399.956 212.1 399.788 211.717 399.545 211.456C399.312 211.195 398.953 211.064 398.467 211.064C398.15 211.064 397.884 211.12 397.669 211.232C397.464 211.335 397.296 211.465 397.165 211.624C397.044 211.783 396.955 211.951 396.899 212.128C396.853 212.305 396.825 212.464 396.815 212.604H400.049ZM396.815 213.864C396.843 214.508 397.007 214.975 397.305 215.264C397.604 215.553 398.033 215.698 398.593 215.698C398.995 215.698 399.34 215.6 399.629 215.404C399.919 215.199 400.096 214.984 400.161 214.76H401.911C401.631 215.628 401.202 216.249 400.623 216.622C400.045 216.995 399.345 217.182 398.523 217.182C397.954 217.182 397.441 217.093 396.983 216.916C396.526 216.729 396.139 216.468 395.821 216.132C395.504 215.796 395.257 215.395 395.079 214.928C394.911 214.461 394.827 213.948 394.827 213.388C394.827 212.847 394.916 212.343 395.093 211.876C395.271 211.409 395.523 211.008 395.849 210.672C396.176 210.327 396.563 210.056 397.011 209.86C397.469 209.664 397.973 209.566 398.523 209.566C399.139 209.566 399.676 209.687 400.133 209.93C400.591 210.163 400.964 210.481 401.253 210.882C401.552 211.283 401.767 211.741 401.897 212.254C402.028 212.767 402.075 213.304 402.037 213.864H396.815ZM403.448 207.004H405.436V217H403.448V207.004Z" fill="white"/>
</svg>
