<svg width="600" height="314" viewBox="0 0 600 314" fill="none" xmlns="http://www.w3.org/2000/svg">
<rect width="600" height="314" fill="black" fill-opacity="0.04"/>
<path d="M182.248 110.076H187.624C188.712 110.076 189.56 110.343 190.168 110.876C190.787 111.409 191.096 112.14 191.096 113.068C191.096 113.761 190.936 114.369 190.616 114.892C190.307 115.415 189.805 115.772 189.112 115.964V115.996C189.443 116.06 189.709 116.167 189.912 116.316C190.125 116.465 190.291 116.647 190.408 116.86C190.536 117.063 190.627 117.292 190.68 117.548C190.744 117.804 190.792 118.071 190.824 118.348C190.845 118.625 190.861 118.908 190.872 119.196C190.883 119.484 190.909 119.767 190.952 120.044C190.995 120.321 191.053 120.588 191.128 120.844C191.213 121.089 191.336 121.308 191.496 121.5H189.8C189.693 121.383 189.619 121.223 189.576 121.02C189.544 120.817 189.523 120.593 189.512 120.348C189.501 120.092 189.491 119.82 189.48 119.532C189.469 119.244 189.437 118.961 189.384 118.684C189.341 118.407 189.288 118.145 189.224 117.9C189.16 117.644 189.059 117.425 188.92 117.244C188.781 117.052 188.6 116.903 188.376 116.796C188.152 116.679 187.853 116.62 187.48 116.62H183.768V121.5H182.248V110.076ZM186.936 115.34C187.288 115.34 187.624 115.313 187.944 115.26C188.264 115.207 188.541 115.105 188.776 114.956C189.021 114.796 189.213 114.588 189.352 114.332C189.501 114.065 189.576 113.724 189.576 113.308C189.576 112.732 189.416 112.263 189.096 111.9C188.776 111.537 188.259 111.356 187.544 111.356H183.768V115.34H186.936ZM193.969 117.372C193.969 117.873 194.033 118.321 194.161 118.716C194.3 119.1 194.486 119.425 194.721 119.692C194.956 119.948 195.228 120.145 195.537 120.284C195.857 120.423 196.193 120.492 196.545 120.492C196.897 120.492 197.228 120.423 197.537 120.284C197.857 120.145 198.134 119.948 198.369 119.692C198.604 119.425 198.785 119.1 198.913 118.716C199.052 118.321 199.121 117.873 199.121 117.372C199.121 116.871 199.052 116.428 198.913 116.044C198.785 115.649 198.604 115.319 198.369 115.052C198.134 114.785 197.857 114.583 197.537 114.444C197.228 114.305 196.897 114.236 196.545 114.236C196.193 114.236 195.857 114.305 195.537 114.444C195.228 114.583 194.956 114.785 194.721 115.052C194.486 115.319 194.3 115.649 194.161 116.044C194.033 116.428 193.969 116.871 193.969 117.372ZM192.529 117.372C192.529 116.764 192.614 116.199 192.785 115.676C192.956 115.143 193.212 114.684 193.553 114.3C193.894 113.905 194.316 113.596 194.817 113.372C195.318 113.148 195.894 113.036 196.545 113.036C197.206 113.036 197.782 113.148 198.273 113.372C198.774 113.596 199.196 113.905 199.537 114.3C199.878 114.684 200.134 115.143 200.305 115.676C200.476 116.199 200.561 116.764 200.561 117.372C200.561 117.98 200.476 118.545 200.305 119.068C200.134 119.591 199.878 120.049 199.537 120.444C199.196 120.828 198.774 121.132 198.273 121.356C197.782 121.569 197.206 121.676 196.545 121.676C195.894 121.676 195.318 121.569 194.817 121.356C194.316 121.132 193.894 120.828 193.553 120.444C193.212 120.049 192.956 119.591 192.785 119.068C192.614 118.545 192.529 117.98 192.529 117.372ZM209.013 121.5H207.733V120.188H207.701C207.413 120.7 207.045 121.079 206.597 121.324C206.149 121.559 205.621 121.676 205.013 121.676C204.469 121.676 204.015 121.607 203.653 121.468C203.29 121.319 202.997 121.111 202.773 120.844C202.549 120.577 202.389 120.263 202.293 119.9C202.207 119.527 202.165 119.116 202.165 118.668V113.228H203.525V118.828C203.525 119.34 203.674 119.745 203.973 120.044C204.271 120.343 204.682 120.492 205.205 120.492C205.621 120.492 205.978 120.428 206.277 120.3C206.586 120.172 206.842 119.991 207.045 119.756C207.247 119.521 207.397 119.249 207.493 118.94C207.599 118.62 207.653 118.273 207.653 117.9V113.228H209.013V121.5ZM211.055 113.228H212.335V114.54H212.367C212.933 113.537 213.829 113.036 215.055 113.036C215.599 113.036 216.053 113.111 216.415 113.26C216.778 113.409 217.071 113.617 217.295 113.884C217.519 114.151 217.674 114.471 217.759 114.844C217.855 115.207 217.903 115.612 217.903 116.06V121.5H216.543V115.9C216.543 115.388 216.394 114.983 216.095 114.684C215.797 114.385 215.386 114.236 214.863 114.236C214.447 114.236 214.085 114.3 213.775 114.428C213.477 114.556 213.226 114.737 213.023 114.972C212.821 115.207 212.666 115.484 212.559 115.804C212.463 116.113 212.415 116.455 212.415 116.828V121.5H211.055V113.228ZM220.938 117.436C220.938 117.82 220.986 118.199 221.082 118.572C221.189 118.935 221.343 119.26 221.546 119.548C221.759 119.836 222.026 120.065 222.346 120.236C222.677 120.407 223.061 120.492 223.498 120.492C223.957 120.492 224.346 120.401 224.666 120.22C224.986 120.039 225.247 119.804 225.45 119.516C225.653 119.217 225.797 118.881 225.882 118.508C225.978 118.135 226.026 117.756 226.026 117.372C226.026 116.967 225.978 116.577 225.882 116.204C225.786 115.82 225.631 115.484 225.418 115.196C225.215 114.908 224.949 114.679 224.618 114.508C224.287 114.327 223.887 114.236 223.418 114.236C222.959 114.236 222.57 114.327 222.25 114.508C221.93 114.689 221.674 114.929 221.482 115.228C221.29 115.527 221.151 115.868 221.066 116.252C220.981 116.636 220.938 117.031 220.938 117.436ZM227.338 121.5H225.978V120.38H225.946C225.722 120.839 225.37 121.169 224.89 121.372C224.41 121.575 223.882 121.676 223.306 121.676C222.666 121.676 222.106 121.559 221.626 121.324C221.157 121.089 220.762 120.775 220.442 120.38C220.133 119.985 219.898 119.527 219.738 119.004C219.578 118.481 219.498 117.927 219.498 117.34C219.498 116.753 219.573 116.199 219.722 115.676C219.882 115.153 220.117 114.7 220.426 114.316C220.746 113.921 221.141 113.612 221.61 113.388C222.09 113.153 222.645 113.036 223.274 113.036C223.487 113.036 223.717 113.057 223.962 113.1C224.207 113.143 224.453 113.217 224.698 113.324C224.943 113.42 225.173 113.553 225.386 113.724C225.61 113.884 225.797 114.087 225.946 114.332H225.978V110.076H227.338V121.5ZM235.174 116.572C235.153 116.252 235.078 115.948 234.95 115.66C234.833 115.372 234.668 115.127 234.454 114.924C234.252 114.711 234.006 114.545 233.718 114.428C233.441 114.3 233.132 114.236 232.79 114.236C232.438 114.236 232.118 114.3 231.83 114.428C231.553 114.545 231.313 114.711 231.11 114.924C230.908 115.137 230.748 115.388 230.63 115.676C230.513 115.953 230.444 116.252 230.422 116.572H235.174ZM236.486 118.876C236.305 119.804 235.905 120.503 235.286 120.972C234.668 121.441 233.889 121.676 232.95 121.676C232.289 121.676 231.713 121.569 231.222 121.356C230.742 121.143 230.337 120.844 230.006 120.46C229.676 120.076 229.425 119.617 229.254 119.084C229.094 118.551 229.004 117.969 228.982 117.34C228.982 116.711 229.078 116.135 229.27 115.612C229.462 115.089 229.729 114.636 230.07 114.252C230.422 113.868 230.833 113.569 231.302 113.356C231.782 113.143 232.305 113.036 232.87 113.036C233.606 113.036 234.214 113.191 234.694 113.5C235.185 113.799 235.574 114.183 235.862 114.652C236.161 115.121 236.364 115.633 236.47 116.188C236.588 116.743 236.636 117.271 236.614 117.772H230.422C230.412 118.135 230.454 118.481 230.55 118.812C230.646 119.132 230.801 119.42 231.014 119.676C231.228 119.921 231.5 120.119 231.83 120.268C232.161 120.417 232.55 120.492 232.998 120.492C233.574 120.492 234.044 120.359 234.406 120.092C234.78 119.825 235.025 119.42 235.142 118.876H236.486ZM239.016 117.436C239.016 117.82 239.064 118.199 239.16 118.572C239.267 118.935 239.421 119.26 239.624 119.548C239.837 119.836 240.104 120.065 240.424 120.236C240.755 120.407 241.139 120.492 241.576 120.492C242.035 120.492 242.424 120.401 242.744 120.22C243.064 120.039 243.325 119.804 243.528 119.516C243.731 119.217 243.875 118.881 243.96 118.508C244.056 118.135 244.104 117.756 244.104 117.372C244.104 116.967 244.056 116.577 243.96 116.204C243.864 115.82 243.709 115.484 243.496 115.196C243.293 114.908 243.027 114.679 242.696 114.508C242.365 114.327 241.965 114.236 241.496 114.236C241.037 114.236 240.648 114.327 240.328 114.508C240.008 114.689 239.752 114.929 239.56 115.228C239.368 115.527 239.229 115.868 239.144 116.252C239.059 116.636 239.016 117.031 239.016 117.436ZM245.416 121.5H244.056V120.38H244.024C243.8 120.839 243.448 121.169 242.968 121.372C242.488 121.575 241.96 121.676 241.384 121.676C240.744 121.676 240.184 121.559 239.704 121.324C239.235 121.089 238.84 120.775 238.52 120.38C238.211 119.985 237.976 119.527 237.816 119.004C237.656 118.481 237.576 117.927 237.576 117.34C237.576 116.753 237.651 116.199 237.8 115.676C237.96 115.153 238.195 114.7 238.504 114.316C238.824 113.921 239.219 113.612 239.688 113.388C240.168 113.153 240.723 113.036 241.352 113.036C241.565 113.036 241.795 113.057 242.04 113.1C242.285 113.143 242.531 113.217 242.776 113.324C243.021 113.42 243.251 113.553 243.464 113.724C243.688 113.884 243.875 114.087 244.024 114.332H244.056V110.076H245.416V121.5ZM247.252 118.524H255.316V119.612H247.252V118.524ZM255.316 116.38H247.252V115.292H255.316V116.38ZM259.918 111.356H256.11V110.076H265.246V111.356H261.438V121.5H259.918V111.356ZM264.773 113.228H266.053V114.972H266.085C266.416 114.3 266.821 113.804 267.301 113.484C267.781 113.164 268.389 113.015 269.125 113.036V114.476C268.581 114.476 268.117 114.551 267.733 114.7C267.349 114.849 267.04 115.068 266.805 115.356C266.57 115.644 266.4 115.996 266.293 116.412C266.186 116.817 266.133 117.287 266.133 117.82V121.5H264.773V113.228ZM276.997 121.5H275.717V120.188H275.685C275.397 120.7 275.029 121.079 274.581 121.324C274.133 121.559 273.605 121.676 272.997 121.676C272.453 121.676 272 121.607 271.637 121.468C271.274 121.319 270.981 121.111 270.757 120.844C270.533 120.577 270.373 120.263 270.277 119.9C270.192 119.527 270.149 119.116 270.149 118.668V113.228H271.509V118.828C271.509 119.34 271.658 119.745 271.957 120.044C272.256 120.343 272.666 120.492 273.189 120.492C273.605 120.492 273.962 120.428 274.261 120.3C274.57 120.172 274.826 119.991 275.029 119.756C275.232 119.521 275.381 119.249 275.477 118.94C275.584 118.62 275.637 118.273 275.637 117.9V113.228H276.997V121.5ZM284.784 116.572C284.762 116.252 284.688 115.948 284.56 115.66C284.442 115.372 284.277 115.127 284.064 114.924C283.861 114.711 283.616 114.545 283.328 114.428C283.05 114.3 282.741 114.236 282.4 114.236C282.048 114.236 281.728 114.3 281.44 114.428C281.162 114.545 280.922 114.711 280.72 114.924C280.517 115.137 280.357 115.388 280.24 115.676C280.122 115.953 280.053 116.252 280.032 116.572H284.784ZM286.096 118.876C285.914 119.804 285.514 120.503 284.896 120.972C284.277 121.441 283.498 121.676 282.56 121.676C281.898 121.676 281.322 121.569 280.832 121.356C280.352 121.143 279.946 120.844 279.616 120.46C279.285 120.076 279.034 119.617 278.864 119.084C278.704 118.551 278.613 117.969 278.592 117.34C278.592 116.711 278.688 116.135 278.88 115.612C279.072 115.089 279.338 114.636 279.68 114.252C280.032 113.868 280.442 113.569 280.912 113.356C281.392 113.143 281.914 113.036 282.48 113.036C283.216 113.036 283.824 113.191 284.304 113.5C284.794 113.799 285.184 114.183 285.472 114.652C285.77 115.121 285.973 115.633 286.08 116.188C286.197 116.743 286.245 117.271 286.224 117.772H280.032C280.021 118.135 280.064 118.481 280.16 118.812C280.256 119.132 280.41 119.42 280.624 119.676C280.837 119.921 281.109 120.119 281.44 120.268C281.77 120.417 282.16 120.492 282.608 120.492C283.184 120.492 283.653 120.359 284.016 120.092C284.389 119.825 284.634 119.42 284.752 118.876H286.096Z" fill="black" fill-opacity="0.68"/>
<path d="M357 116C357 107.163 364.163 100 373 100H403C411.837 100 419 107.163 419 116C419 124.837 411.837 132 403 132H373C364.163 132 357 124.837 357 116Z" fill="#272727"/>
<path d="M369.966 111.004H372.164V119.152H377.036V121H369.966V111.004ZM378.146 115.988C378.174 115.521 378.29 115.134 378.496 114.826C378.701 114.518 378.962 114.271 379.28 114.084C379.597 113.897 379.952 113.767 380.344 113.692C380.745 113.608 381.146 113.566 381.548 113.566C381.912 113.566 382.28 113.594 382.654 113.65C383.027 113.697 383.368 113.795 383.676 113.944C383.984 114.093 384.236 114.303 384.432 114.574C384.628 114.835 384.726 115.185 384.726 115.624V119.39C384.726 119.717 384.744 120.029 384.782 120.328C384.819 120.627 384.884 120.851 384.978 121H382.962C382.924 120.888 382.892 120.776 382.864 120.664C382.845 120.543 382.831 120.421 382.822 120.3C382.504 120.627 382.131 120.855 381.702 120.986C381.272 121.117 380.834 121.182 380.386 121.182C380.04 121.182 379.718 121.14 379.42 121.056C379.121 120.972 378.86 120.841 378.636 120.664C378.412 120.487 378.234 120.263 378.104 119.992C377.982 119.721 377.922 119.399 377.922 119.026C377.922 118.615 377.992 118.279 378.132 118.018C378.281 117.747 378.468 117.533 378.692 117.374C378.925 117.215 379.186 117.099 379.476 117.024C379.774 116.94 380.073 116.875 380.372 116.828C380.67 116.781 380.964 116.744 381.254 116.716C381.543 116.688 381.8 116.646 382.024 116.59C382.248 116.534 382.425 116.455 382.556 116.352C382.686 116.24 382.747 116.081 382.738 115.876C382.738 115.661 382.7 115.493 382.626 115.372C382.56 115.241 382.467 115.143 382.346 115.078C382.234 115.003 382.098 114.957 381.94 114.938C381.79 114.91 381.627 114.896 381.45 114.896C381.058 114.896 380.75 114.98 380.526 115.148C380.302 115.316 380.171 115.596 380.134 115.988H378.146ZM382.738 117.458C382.654 117.533 382.546 117.593 382.416 117.64C382.294 117.677 382.159 117.71 382.01 117.738C381.87 117.766 381.72 117.789 381.562 117.808C381.403 117.827 381.244 117.85 381.086 117.878C380.936 117.906 380.787 117.943 380.638 117.99C380.498 118.037 380.372 118.102 380.26 118.186C380.157 118.261 380.073 118.359 380.008 118.48C379.942 118.601 379.91 118.755 379.91 118.942C379.91 119.119 379.942 119.269 380.008 119.39C380.073 119.511 380.162 119.609 380.274 119.684C380.386 119.749 380.516 119.796 380.666 119.824C380.815 119.852 380.969 119.866 381.128 119.866C381.52 119.866 381.823 119.801 382.038 119.67C382.252 119.539 382.411 119.385 382.514 119.208C382.616 119.021 382.677 118.835 382.696 118.648C382.724 118.461 382.738 118.312 382.738 118.2V117.458ZM391.75 117.388C391.75 117.08 391.717 116.786 391.652 116.506C391.587 116.226 391.484 115.979 391.344 115.764C391.204 115.549 391.027 115.381 390.812 115.26C390.607 115.129 390.355 115.064 390.056 115.064C389.767 115.064 389.515 115.129 389.3 115.26C389.085 115.381 388.908 115.549 388.768 115.764C388.628 115.979 388.525 116.226 388.46 116.506C388.395 116.786 388.362 117.08 388.362 117.388C388.362 117.687 388.395 117.976 388.46 118.256C388.525 118.536 388.628 118.783 388.768 118.998C388.908 119.213 389.085 119.385 389.3 119.516C389.515 119.637 389.767 119.698 390.056 119.698C390.355 119.698 390.607 119.637 390.812 119.516C391.027 119.385 391.204 119.213 391.344 118.998C391.484 118.783 391.587 118.536 391.652 118.256C391.717 117.976 391.75 117.687 391.75 117.388ZM386.444 111.004H388.432V114.644H388.46C388.703 114.271 389.029 114 389.44 113.832C389.86 113.655 390.294 113.566 390.742 113.566C391.106 113.566 391.465 113.641 391.82 113.79C392.175 113.939 392.492 114.168 392.772 114.476C393.061 114.784 393.295 115.181 393.472 115.666C393.649 116.142 393.738 116.711 393.738 117.374C393.738 118.037 393.649 118.611 393.472 119.096C393.295 119.572 393.061 119.964 392.772 120.272C392.492 120.58 392.175 120.809 391.82 120.958C391.465 121.107 391.106 121.182 390.742 121.182C390.21 121.182 389.734 121.098 389.314 120.93C388.894 120.762 388.577 120.477 388.362 120.076H388.334V121H386.444V111.004ZM400.049 116.604C399.956 116.1 399.788 115.717 399.545 115.456C399.312 115.195 398.953 115.064 398.467 115.064C398.15 115.064 397.884 115.12 397.669 115.232C397.464 115.335 397.296 115.465 397.165 115.624C397.044 115.783 396.955 115.951 396.899 116.128C396.853 116.305 396.825 116.464 396.815 116.604H400.049ZM396.815 117.864C396.843 118.508 397.007 118.975 397.305 119.264C397.604 119.553 398.033 119.698 398.593 119.698C398.995 119.698 399.34 119.6 399.629 119.404C399.919 119.199 400.096 118.984 400.161 118.76H401.911C401.631 119.628 401.202 120.249 400.623 120.622C400.045 120.995 399.345 121.182 398.523 121.182C397.954 121.182 397.441 121.093 396.983 120.916C396.526 120.729 396.139 120.468 395.821 120.132C395.504 119.796 395.257 119.395 395.079 118.928C394.911 118.461 394.827 117.948 394.827 117.388C394.827 116.847 394.916 116.343 395.093 115.876C395.271 115.409 395.523 115.008 395.849 114.672C396.176 114.327 396.563 114.056 397.011 113.86C397.469 113.664 397.973 113.566 398.523 113.566C399.139 113.566 399.676 113.687 400.133 113.93C400.591 114.163 400.964 114.481 401.253 114.882C401.552 115.283 401.767 115.741 401.897 116.254C402.028 116.767 402.075 117.304 402.037 117.864H396.815ZM403.448 111.004H405.436V121H403.448V111.004Z" fill="white"/>
<path d="M182.248 192.076H187.624C188.712 192.076 189.56 192.343 190.168 192.876C190.787 193.409 191.096 194.14 191.096 195.068C191.096 195.761 190.936 196.369 190.616 196.892C190.307 197.415 189.805 197.772 189.112 197.964V197.996C189.443 198.06 189.709 198.167 189.912 198.316C190.125 198.465 190.291 198.647 190.408 198.86C190.536 199.063 190.627 199.292 190.68 199.548C190.744 199.804 190.792 200.071 190.824 200.348C190.845 200.625 190.861 200.908 190.872 201.196C190.883 201.484 190.909 201.767 190.952 202.044C190.995 202.321 191.053 202.588 191.128 202.844C191.213 203.089 191.336 203.308 191.496 203.5H189.8C189.693 203.383 189.619 203.223 189.576 203.02C189.544 202.817 189.523 202.593 189.512 202.348C189.501 202.092 189.491 201.82 189.48 201.532C189.469 201.244 189.437 200.961 189.384 200.684C189.341 200.407 189.288 200.145 189.224 199.9C189.16 199.644 189.059 199.425 188.92 199.244C188.781 199.052 188.6 198.903 188.376 198.796C188.152 198.679 187.853 198.62 187.48 198.62H183.768V203.5H182.248V192.076ZM186.936 197.34C187.288 197.34 187.624 197.313 187.944 197.26C188.264 197.207 188.541 197.105 188.776 196.956C189.021 196.796 189.213 196.588 189.352 196.332C189.501 196.065 189.576 195.724 189.576 195.308C189.576 194.732 189.416 194.263 189.096 193.9C188.776 193.537 188.259 193.356 187.544 193.356H183.768V197.34H186.936ZM193.969 199.372C193.969 199.873 194.033 200.321 194.161 200.716C194.3 201.1 194.486 201.425 194.721 201.692C194.956 201.948 195.228 202.145 195.537 202.284C195.857 202.423 196.193 202.492 196.545 202.492C196.897 202.492 197.228 202.423 197.537 202.284C197.857 202.145 198.134 201.948 198.369 201.692C198.604 201.425 198.785 201.1 198.913 200.716C199.052 200.321 199.121 199.873 199.121 199.372C199.121 198.871 199.052 198.428 198.913 198.044C198.785 197.649 198.604 197.319 198.369 197.052C198.134 196.785 197.857 196.583 197.537 196.444C197.228 196.305 196.897 196.236 196.545 196.236C196.193 196.236 195.857 196.305 195.537 196.444C195.228 196.583 194.956 196.785 194.721 197.052C194.486 197.319 194.3 197.649 194.161 198.044C194.033 198.428 193.969 198.871 193.969 199.372ZM192.529 199.372C192.529 198.764 192.614 198.199 192.785 197.676C192.956 197.143 193.212 196.684 193.553 196.3C193.894 195.905 194.316 195.596 194.817 195.372C195.318 195.148 195.894 195.036 196.545 195.036C197.206 195.036 197.782 195.148 198.273 195.372C198.774 195.596 199.196 195.905 199.537 196.3C199.878 196.684 200.134 197.143 200.305 197.676C200.476 198.199 200.561 198.764 200.561 199.372C200.561 199.98 200.476 200.545 200.305 201.068C200.134 201.591 199.878 202.049 199.537 202.444C199.196 202.828 198.774 203.132 198.273 203.356C197.782 203.569 197.206 203.676 196.545 203.676C195.894 203.676 195.318 203.569 194.817 203.356C194.316 203.132 193.894 202.828 193.553 202.444C193.212 202.049 192.956 201.591 192.785 201.068C192.614 200.545 192.529 199.98 192.529 199.372ZM209.013 203.5H207.733V202.188H207.701C207.413 202.7 207.045 203.079 206.597 203.324C206.149 203.559 205.621 203.676 205.013 203.676C204.469 203.676 204.015 203.607 203.653 203.468C203.29 203.319 202.997 203.111 202.773 202.844C202.549 202.577 202.389 202.263 202.293 201.9C202.207 201.527 202.165 201.116 202.165 200.668V195.228H203.525V200.828C203.525 201.34 203.674 201.745 203.973 202.044C204.271 202.343 204.682 202.492 205.205 202.492C205.621 202.492 205.978 202.428 206.277 202.3C206.586 202.172 206.842 201.991 207.045 201.756C207.247 201.521 207.397 201.249 207.493 200.94C207.599 200.62 207.653 200.273 207.653 199.9V195.228H209.013V203.5ZM211.055 195.228H212.335V196.54H212.367C212.933 195.537 213.829 195.036 215.055 195.036C215.599 195.036 216.053 195.111 216.415 195.26C216.778 195.409 217.071 195.617 217.295 195.884C217.519 196.151 217.674 196.471 217.759 196.844C217.855 197.207 217.903 197.612 217.903 198.06V203.5H216.543V197.9C216.543 197.388 216.394 196.983 216.095 196.684C215.797 196.385 215.386 196.236 214.863 196.236C214.447 196.236 214.085 196.3 213.775 196.428C213.477 196.556 213.226 196.737 213.023 196.972C212.821 197.207 212.666 197.484 212.559 197.804C212.463 198.113 212.415 198.455 212.415 198.828V203.5H211.055V195.228ZM220.938 199.436C220.938 199.82 220.986 200.199 221.082 200.572C221.189 200.935 221.343 201.26 221.546 201.548C221.759 201.836 222.026 202.065 222.346 202.236C222.677 202.407 223.061 202.492 223.498 202.492C223.957 202.492 224.346 202.401 224.666 202.22C224.986 202.039 225.247 201.804 225.45 201.516C225.653 201.217 225.797 200.881 225.882 200.508C225.978 200.135 226.026 199.756 226.026 199.372C226.026 198.967 225.978 198.577 225.882 198.204C225.786 197.82 225.631 197.484 225.418 197.196C225.215 196.908 224.949 196.679 224.618 196.508C224.287 196.327 223.887 196.236 223.418 196.236C222.959 196.236 222.57 196.327 222.25 196.508C221.93 196.689 221.674 196.929 221.482 197.228C221.29 197.527 221.151 197.868 221.066 198.252C220.981 198.636 220.938 199.031 220.938 199.436ZM227.338 203.5H225.978V202.38H225.946C225.722 202.839 225.37 203.169 224.89 203.372C224.41 203.575 223.882 203.676 223.306 203.676C222.666 203.676 222.106 203.559 221.626 203.324C221.157 203.089 220.762 202.775 220.442 202.38C220.133 201.985 219.898 201.527 219.738 201.004C219.578 200.481 219.498 199.927 219.498 199.34C219.498 198.753 219.573 198.199 219.722 197.676C219.882 197.153 220.117 196.7 220.426 196.316C220.746 195.921 221.141 195.612 221.61 195.388C222.09 195.153 222.645 195.036 223.274 195.036C223.487 195.036 223.717 195.057 223.962 195.1C224.207 195.143 224.453 195.217 224.698 195.324C224.943 195.42 225.173 195.553 225.386 195.724C225.61 195.884 225.797 196.087 225.946 196.332H225.978V192.076H227.338V203.5ZM235.174 198.572C235.153 198.252 235.078 197.948 234.95 197.66C234.833 197.372 234.668 197.127 234.454 196.924C234.252 196.711 234.006 196.545 233.718 196.428C233.441 196.3 233.132 196.236 232.79 196.236C232.438 196.236 232.118 196.3 231.83 196.428C231.553 196.545 231.313 196.711 231.11 196.924C230.908 197.137 230.748 197.388 230.63 197.676C230.513 197.953 230.444 198.252 230.422 198.572H235.174ZM236.486 200.876C236.305 201.804 235.905 202.503 235.286 202.972C234.668 203.441 233.889 203.676 232.95 203.676C232.289 203.676 231.713 203.569 231.222 203.356C230.742 203.143 230.337 202.844 230.006 202.46C229.676 202.076 229.425 201.617 229.254 201.084C229.094 200.551 229.004 199.969 228.982 199.34C228.982 198.711 229.078 198.135 229.27 197.612C229.462 197.089 229.729 196.636 230.07 196.252C230.422 195.868 230.833 195.569 231.302 195.356C231.782 195.143 232.305 195.036 232.87 195.036C233.606 195.036 234.214 195.191 234.694 195.5C235.185 195.799 235.574 196.183 235.862 196.652C236.161 197.121 236.364 197.633 236.47 198.188C236.588 198.743 236.636 199.271 236.614 199.772H230.422C230.412 200.135 230.454 200.481 230.55 200.812C230.646 201.132 230.801 201.42 231.014 201.676C231.228 201.921 231.5 202.119 231.83 202.268C232.161 202.417 232.55 202.492 232.998 202.492C233.574 202.492 234.044 202.359 234.406 202.092C234.78 201.825 235.025 201.42 235.142 200.876H236.486ZM239.016 199.436C239.016 199.82 239.064 200.199 239.16 200.572C239.267 200.935 239.421 201.26 239.624 201.548C239.837 201.836 240.104 202.065 240.424 202.236C240.755 202.407 241.139 202.492 241.576 202.492C242.035 202.492 242.424 202.401 242.744 202.22C243.064 202.039 243.325 201.804 243.528 201.516C243.731 201.217 243.875 200.881 243.96 200.508C244.056 200.135 244.104 199.756 244.104 199.372C244.104 198.967 244.056 198.577 243.96 198.204C243.864 197.82 243.709 197.484 243.496 197.196C243.293 196.908 243.027 196.679 242.696 196.508C242.365 196.327 241.965 196.236 241.496 196.236C241.037 196.236 240.648 196.327 240.328 196.508C240.008 196.689 239.752 196.929 239.56 197.228C239.368 197.527 239.229 197.868 239.144 198.252C239.059 198.636 239.016 199.031 239.016 199.436ZM245.416 203.5H244.056V202.38H244.024C243.8 202.839 243.448 203.169 242.968 203.372C242.488 203.575 241.96 203.676 241.384 203.676C240.744 203.676 240.184 203.559 239.704 203.324C239.235 203.089 238.84 202.775 238.52 202.38C238.211 201.985 237.976 201.527 237.816 201.004C237.656 200.481 237.576 199.927 237.576 199.34C237.576 198.753 237.651 198.199 237.8 197.676C237.96 197.153 238.195 196.7 238.504 196.316C238.824 195.921 239.219 195.612 239.688 195.388C240.168 195.153 240.723 195.036 241.352 195.036C241.565 195.036 241.795 195.057 242.04 195.1C242.285 195.143 242.531 195.217 242.776 195.324C243.021 195.42 243.251 195.553 243.464 195.724C243.688 195.884 243.875 196.087 244.024 196.332H244.056V192.076H245.416V203.5ZM247.252 200.524H255.316V201.612H247.252V200.524ZM255.316 198.38H247.252V197.292H255.316V198.38ZM257.326 192.076H264.83V193.356H258.846V196.988H264.094V198.268H258.846V203.5H257.326V192.076ZM273.618 203.468C273.383 203.607 273.058 203.676 272.642 203.676C272.29 203.676 272.007 203.58 271.794 203.388C271.591 203.185 271.49 202.86 271.49 202.412C271.116 202.86 270.679 203.185 270.178 203.388C269.687 203.58 269.154 203.676 268.578 203.676C268.204 203.676 267.847 203.633 267.506 203.548C267.175 203.463 266.887 203.329 266.642 203.148C266.396 202.967 266.199 202.732 266.05 202.444C265.911 202.145 265.842 201.788 265.842 201.372C265.842 200.903 265.922 200.519 266.082 200.22C266.242 199.921 266.45 199.681 266.706 199.5C266.972 199.308 267.271 199.164 267.602 199.068C267.943 198.972 268.29 198.892 268.642 198.828C269.015 198.753 269.367 198.7 269.698 198.668C270.039 198.625 270.338 198.572 270.594 198.508C270.85 198.433 271.052 198.332 271.202 198.204C271.351 198.065 271.426 197.868 271.426 197.612C271.426 197.313 271.367 197.073 271.25 196.892C271.143 196.711 270.999 196.572 270.818 196.476C270.647 196.38 270.45 196.316 270.226 196.284C270.012 196.252 269.799 196.236 269.586 196.236C269.01 196.236 268.53 196.348 268.146 196.572C267.762 196.785 267.554 197.196 267.522 197.804H266.162C266.183 197.292 266.29 196.86 266.482 196.508C266.674 196.156 266.93 195.873 267.25 195.66C267.57 195.436 267.932 195.276 268.338 195.18C268.754 195.084 269.196 195.036 269.666 195.036C270.039 195.036 270.407 195.063 270.77 195.116C271.143 195.169 271.479 195.281 271.778 195.452C272.076 195.612 272.316 195.841 272.498 196.14C272.679 196.439 272.77 196.828 272.77 197.308V201.564C272.77 201.884 272.786 202.119 272.818 202.268C272.86 202.417 272.988 202.492 273.202 202.492C273.319 202.492 273.458 202.465 273.618 202.412V203.468ZM271.41 199.228C271.239 199.356 271.015 199.452 270.738 199.516C270.46 199.569 270.167 199.617 269.858 199.66C269.559 199.692 269.255 199.735 268.946 199.788C268.636 199.831 268.359 199.905 268.114 200.012C267.868 200.119 267.666 200.273 267.506 200.476C267.356 200.668 267.282 200.935 267.282 201.276C267.282 201.5 267.324 201.692 267.41 201.852C267.506 202.001 267.623 202.124 267.762 202.22C267.911 202.316 268.082 202.385 268.274 202.428C268.466 202.471 268.668 202.492 268.882 202.492C269.33 202.492 269.714 202.433 270.034 202.316C270.354 202.188 270.615 202.033 270.818 201.852C271.02 201.66 271.17 201.457 271.266 201.244C271.362 201.02 271.41 200.812 271.41 200.62V199.228ZM274.963 192.076H276.323V203.5H274.963V192.076ZM279.262 200.892C279.273 201.191 279.342 201.447 279.47 201.66C279.598 201.863 279.764 202.028 279.966 202.156C280.18 202.273 280.414 202.359 280.67 202.412C280.937 202.465 281.209 202.492 281.486 202.492C281.7 202.492 281.924 202.476 282.158 202.444C282.393 202.412 282.606 202.353 282.798 202.268C283.001 202.183 283.166 202.06 283.294 201.9C283.422 201.729 283.486 201.516 283.486 201.26C283.486 200.908 283.353 200.641 283.086 200.46C282.82 200.279 282.484 200.135 282.078 200.028C281.684 199.911 281.252 199.809 280.782 199.724C280.313 199.628 279.876 199.5 279.47 199.34C279.076 199.169 278.745 198.935 278.478 198.636C278.212 198.337 278.078 197.921 278.078 197.388C278.078 196.972 278.169 196.615 278.35 196.316C278.542 196.017 278.782 195.777 279.07 195.596C279.369 195.404 279.7 195.265 280.062 195.18C280.436 195.084 280.804 195.036 281.166 195.036C281.636 195.036 282.068 195.079 282.462 195.164C282.857 195.239 283.204 195.377 283.502 195.58C283.812 195.772 284.057 196.039 284.238 196.38C284.42 196.711 284.526 197.127 284.558 197.628H283.198C283.177 197.361 283.108 197.143 282.99 196.972C282.873 196.791 282.724 196.647 282.542 196.54C282.361 196.433 282.158 196.359 281.934 196.316C281.721 196.263 281.502 196.236 281.278 196.236C281.076 196.236 280.868 196.252 280.654 196.284C280.452 196.316 280.265 196.375 280.094 196.46C279.924 196.535 279.785 196.641 279.678 196.78C279.572 196.908 279.518 197.079 279.518 197.292C279.518 197.527 279.598 197.724 279.758 197.884C279.929 198.033 280.142 198.161 280.398 198.268C280.654 198.364 280.942 198.449 281.262 198.524C281.582 198.588 281.902 198.657 282.222 198.732C282.564 198.807 282.894 198.897 283.214 199.004C283.545 199.111 283.833 199.255 284.078 199.436C284.334 199.607 284.537 199.825 284.686 200.092C284.846 200.359 284.926 200.689 284.926 201.084C284.926 201.585 284.82 202.001 284.606 202.332C284.404 202.663 284.132 202.929 283.79 203.132C283.46 203.335 283.081 203.473 282.654 203.548C282.238 203.633 281.822 203.676 281.406 203.676C280.948 203.676 280.51 203.628 280.094 203.532C279.678 203.436 279.31 203.281 278.99 203.068C278.67 202.844 278.414 202.556 278.222 202.204C278.03 201.841 277.924 201.404 277.902 200.892H279.262ZM292.174 198.572C292.153 198.252 292.078 197.948 291.95 197.66C291.833 197.372 291.668 197.127 291.454 196.924C291.252 196.711 291.006 196.545 290.718 196.428C290.441 196.3 290.132 196.236 289.79 196.236C289.438 196.236 289.118 196.3 288.83 196.428C288.553 196.545 288.313 196.711 288.11 196.924C287.908 197.137 287.748 197.388 287.63 197.676C287.513 197.953 287.444 198.252 287.422 198.572H292.174ZM293.486 200.876C293.305 201.804 292.905 202.503 292.286 202.972C291.668 203.441 290.889 203.676 289.95 203.676C289.289 203.676 288.713 203.569 288.222 203.356C287.742 203.143 287.337 202.844 287.006 202.46C286.676 202.076 286.425 201.617 286.254 201.084C286.094 200.551 286.004 199.969 285.982 199.34C285.982 198.711 286.078 198.135 286.27 197.612C286.462 197.089 286.729 196.636 287.07 196.252C287.422 195.868 287.833 195.569 288.302 195.356C288.782 195.143 289.305 195.036 289.87 195.036C290.606 195.036 291.214 195.191 291.694 195.5C292.185 195.799 292.574 196.183 292.862 196.652C293.161 197.121 293.364 197.633 293.47 198.188C293.588 198.743 293.636 199.271 293.614 199.772H287.422C287.412 200.135 287.454 200.481 287.55 200.812C287.646 201.132 287.801 201.42 288.014 201.676C288.228 201.921 288.5 202.119 288.83 202.268C289.161 202.417 289.55 202.492 289.998 202.492C290.574 202.492 291.044 202.359 291.406 202.092C291.78 201.825 292.025 201.42 292.142 200.876H293.486Z" fill="black" fill-opacity="0.68"/>
<rect width="62" height="32" transform="translate(357 182)" fill="#272727"/>
<path d="M369.966 193.004H372.164V201.152H377.036V203H369.966V193.004ZM378.146 197.988C378.174 197.521 378.29 197.134 378.496 196.826C378.701 196.518 378.962 196.271 379.28 196.084C379.597 195.897 379.952 195.767 380.344 195.692C380.745 195.608 381.146 195.566 381.548 195.566C381.912 195.566 382.28 195.594 382.654 195.65C383.027 195.697 383.368 195.795 383.676 195.944C383.984 196.093 384.236 196.303 384.432 196.574C384.628 196.835 384.726 197.185 384.726 197.624V201.39C384.726 201.717 384.744 202.029 384.782 202.328C384.819 202.627 384.884 202.851 384.978 203H382.962C382.924 202.888 382.892 202.776 382.864 202.664C382.845 202.543 382.831 202.421 382.822 202.3C382.504 202.627 382.131 202.855 381.702 202.986C381.272 203.117 380.834 203.182 380.386 203.182C380.04 203.182 379.718 203.14 379.42 203.056C379.121 202.972 378.86 202.841 378.636 202.664C378.412 202.487 378.234 202.263 378.104 201.992C377.982 201.721 377.922 201.399 377.922 201.026C377.922 200.615 377.992 200.279 378.132 200.018C378.281 199.747 378.468 199.533 378.692 199.374C378.925 199.215 379.186 199.099 379.476 199.024C379.774 198.94 380.073 198.875 380.372 198.828C380.67 198.781 380.964 198.744 381.254 198.716C381.543 198.688 381.8 198.646 382.024 198.59C382.248 198.534 382.425 198.455 382.556 198.352C382.686 198.24 382.747 198.081 382.738 197.876C382.738 197.661 382.7 197.493 382.626 197.372C382.56 197.241 382.467 197.143 382.346 197.078C382.234 197.003 382.098 196.957 381.94 196.938C381.79 196.91 381.627 196.896 381.45 196.896C381.058 196.896 380.75 196.98 380.526 197.148C380.302 197.316 380.171 197.596 380.134 197.988H378.146ZM382.738 199.458C382.654 199.533 382.546 199.593 382.416 199.64C382.294 199.677 382.159 199.71 382.01 199.738C381.87 199.766 381.72 199.789 381.562 199.808C381.403 199.827 381.244 199.85 381.086 199.878C380.936 199.906 380.787 199.943 380.638 199.99C380.498 200.037 380.372 200.102 380.26 200.186C380.157 200.261 380.073 200.359 380.008 200.48C379.942 200.601 379.91 200.755 379.91 200.942C379.91 201.119 379.942 201.269 380.008 201.39C380.073 201.511 380.162 201.609 380.274 201.684C380.386 201.749 380.516 201.796 380.666 201.824C380.815 201.852 380.969 201.866 381.128 201.866C381.52 201.866 381.823 201.801 382.038 201.67C382.252 201.539 382.411 201.385 382.514 201.208C382.616 201.021 382.677 200.835 382.696 200.648C382.724 200.461 382.738 200.312 382.738 200.2V199.458ZM391.75 199.388C391.75 199.08 391.717 198.786 391.652 198.506C391.587 198.226 391.484 197.979 391.344 197.764C391.204 197.549 391.027 197.381 390.812 197.26C390.607 197.129 390.355 197.064 390.056 197.064C389.767 197.064 389.515 197.129 389.3 197.26C389.085 197.381 388.908 197.549 388.768 197.764C388.628 197.979 388.525 198.226 388.46 198.506C388.395 198.786 388.362 199.08 388.362 199.388C388.362 199.687 388.395 199.976 388.46 200.256C388.525 200.536 388.628 200.783 388.768 200.998C388.908 201.213 389.085 201.385 389.3 201.516C389.515 201.637 389.767 201.698 390.056 201.698C390.355 201.698 390.607 201.637 390.812 201.516C391.027 201.385 391.204 201.213 391.344 200.998C391.484 200.783 391.587 200.536 391.652 200.256C391.717 199.976 391.75 199.687 391.75 199.388ZM386.444 193.004H388.432V196.644H388.46C388.703 196.271 389.029 196 389.44 195.832C389.86 195.655 390.294 195.566 390.742 195.566C391.106 195.566 391.465 195.641 391.82 195.79C392.175 195.939 392.492 196.168 392.772 196.476C393.061 196.784 393.295 197.181 393.472 197.666C393.649 198.142 393.738 198.711 393.738 199.374C393.738 200.037 393.649 200.611 393.472 201.096C393.295 201.572 393.061 201.964 392.772 202.272C392.492 202.58 392.175 202.809 391.82 202.958C391.465 203.107 391.106 203.182 390.742 203.182C390.21 203.182 389.734 203.098 389.314 202.93C388.894 202.762 388.577 202.477 388.362 202.076H388.334V203H386.444V193.004ZM400.049 198.604C399.956 198.1 399.788 197.717 399.545 197.456C399.312 197.195 398.953 197.064 398.467 197.064C398.15 197.064 397.884 197.12 397.669 197.232C397.464 197.335 397.296 197.465 397.165 197.624C397.044 197.783 396.955 197.951 396.899 198.128C396.853 198.305 396.825 198.464 396.815 198.604H400.049ZM396.815 199.864C396.843 200.508 397.007 200.975 397.305 201.264C397.604 201.553 398.033 201.698 398.593 201.698C398.995 201.698 399.34 201.6 399.629 201.404C399.919 201.199 400.096 200.984 400.161 200.76H401.911C401.631 201.628 401.202 202.249 400.623 202.622C400.045 202.995 399.345 203.182 398.523 203.182C397.954 203.182 397.441 203.093 396.983 202.916C396.526 202.729 396.139 202.468 395.821 202.132C395.504 201.796 395.257 201.395 395.079 200.928C394.911 200.461 394.827 199.948 394.827 199.388C394.827 198.847 394.916 198.343 395.093 197.876C395.271 197.409 395.523 197.008 395.849 196.672C396.176 196.327 396.563 196.056 397.011 195.86C397.469 195.664 397.973 195.566 398.523 195.566C399.139 195.566 399.676 195.687 400.133 195.93C400.591 196.163 400.964 196.481 401.253 196.882C401.552 197.283 401.767 197.741 401.897 198.254C402.028 198.767 402.075 199.304 402.037 199.864H396.815ZM403.448 193.004H405.436V203H403.448V193.004Z" fill="white"/>
</svg>
