<svg width="600" height="396" viewBox="0 0 600 396" fill="none" xmlns="http://www.w3.org/2000/svg">
<rect width="600" height="396" fill="black" fill-opacity="0.04"/>
<path d="M174.84 111.356H171.032V110.076H180.168V111.356H176.36V121.5H174.84V111.356ZM185.174 116.572C185.153 116.252 185.078 115.948 184.95 115.66C184.833 115.372 184.668 115.127 184.454 114.924C184.252 114.711 184.006 114.545 183.718 114.428C183.441 114.3 183.132 114.236 182.79 114.236C182.438 114.236 182.118 114.3 181.83 114.428C181.553 114.545 181.313 114.711 181.11 114.924C180.908 115.137 180.748 115.388 180.63 115.676C180.513 115.953 180.444 116.252 180.422 116.572H185.174ZM186.486 118.876C186.305 119.804 185.905 120.503 185.286 120.972C184.668 121.441 183.889 121.676 182.95 121.676C182.289 121.676 181.713 121.569 181.222 121.356C180.742 121.143 180.337 120.844 180.006 120.46C179.676 120.076 179.425 119.617 179.254 119.084C179.094 118.551 179.004 117.969 178.982 117.34C178.982 116.711 179.078 116.135 179.27 115.612C179.462 115.089 179.729 114.636 180.07 114.252C180.422 113.868 180.833 113.569 181.302 113.356C181.782 113.143 182.305 113.036 182.87 113.036C183.606 113.036 184.214 113.191 184.694 113.5C185.185 113.799 185.574 114.183 185.862 114.652C186.161 115.121 186.364 115.633 186.47 116.188C186.588 116.743 186.636 117.271 186.614 117.772H180.422C180.412 118.135 180.454 118.481 180.55 118.812C180.646 119.132 180.801 119.42 181.014 119.676C181.228 119.921 181.5 120.119 181.83 120.268C182.161 120.417 182.55 120.492 182.998 120.492C183.574 120.492 184.044 120.359 184.406 120.092C184.78 119.825 185.025 119.42 185.142 118.876H186.486ZM190.248 117.148L187.368 113.228H189.112L191.096 116.124L193.16 113.228H194.792L191.944 117.036L195.144 121.5H193.4L191.096 118.076L188.792 121.5H187.144L190.248 117.148ZM198.193 113.228H199.841V114.428H198.193V119.564C198.193 119.724 198.204 119.852 198.225 119.948C198.257 120.044 198.311 120.119 198.385 120.172C198.46 120.225 198.561 120.263 198.689 120.284C198.828 120.295 199.004 120.3 199.217 120.3H199.841V121.5H198.801C198.449 121.5 198.145 121.479 197.889 121.436C197.644 121.383 197.441 121.292 197.281 121.164C197.132 121.036 197.02 120.855 196.945 120.62C196.871 120.385 196.833 120.076 196.833 119.692V114.428H195.425V113.228H196.833V110.748H198.193V113.228ZM206.797 117.372C206.797 117.873 206.861 118.321 206.989 118.716C207.128 119.1 207.315 119.425 207.549 119.692C207.784 119.948 208.056 120.145 208.365 120.284C208.685 120.423 209.021 120.492 209.373 120.492C209.725 120.492 210.056 120.423 210.365 120.284C210.685 120.145 210.963 119.948 211.197 119.692C211.432 119.425 211.613 119.1 211.741 118.716C211.88 118.321 211.949 117.873 211.949 117.372C211.949 116.871 211.88 116.428 211.741 116.044C211.613 115.649 211.432 115.319 211.197 115.052C210.963 114.785 210.685 114.583 210.365 114.444C210.056 114.305 209.725 114.236 209.373 114.236C209.021 114.236 208.685 114.305 208.365 114.444C208.056 114.583 207.784 114.785 207.549 115.052C207.315 115.319 207.128 115.649 206.989 116.044C206.861 116.428 206.797 116.871 206.797 117.372ZM205.357 117.372C205.357 116.764 205.443 116.199 205.613 115.676C205.784 115.143 206.04 114.684 206.381 114.3C206.723 113.905 207.144 113.596 207.645 113.372C208.147 113.148 208.723 113.036 209.373 113.036C210.035 113.036 210.611 113.148 211.101 113.372C211.603 113.596 212.024 113.905 212.365 114.3C212.707 114.684 212.963 115.143 213.133 115.676C213.304 116.199 213.389 116.764 213.389 117.372C213.389 117.98 213.304 118.545 213.133 119.068C212.963 119.591 212.707 120.049 212.365 120.444C212.024 120.828 211.603 121.132 211.101 121.356C210.611 121.569 210.035 121.676 209.373 121.676C208.723 121.676 208.147 121.569 207.645 121.356C207.144 121.132 206.723 120.828 206.381 120.444C206.04 120.049 205.784 119.591 205.613 119.068C205.443 118.545 205.357 117.98 205.357 117.372ZM214.993 113.228H216.273V114.54H216.305C216.87 113.537 217.766 113.036 218.993 113.036C219.537 113.036 219.99 113.111 220.353 113.26C220.715 113.409 221.009 113.617 221.233 113.884C221.457 114.151 221.611 114.471 221.697 114.844C221.793 115.207 221.841 115.612 221.841 116.06V121.5H220.481V115.9C220.481 115.388 220.331 114.983 220.033 114.684C219.734 114.385 219.323 114.236 218.801 114.236C218.385 114.236 218.022 114.3 217.713 114.428C217.414 114.556 217.163 114.737 216.961 114.972C216.758 115.207 216.603 115.484 216.497 115.804C216.401 116.113 216.353 116.455 216.353 116.828V121.5H214.993V113.228ZM223.963 110.076H225.323V121.5H223.963V110.076ZM230.678 122.604C230.518 123.009 230.358 123.351 230.198 123.628C230.049 123.905 229.878 124.129 229.686 124.3C229.505 124.481 229.297 124.609 229.062 124.684C228.838 124.769 228.577 124.812 228.278 124.812C228.118 124.812 227.958 124.801 227.798 124.78C227.638 124.759 227.484 124.721 227.334 124.668V123.42C227.452 123.473 227.585 123.516 227.734 123.548C227.894 123.591 228.028 123.612 228.134 123.612C228.412 123.612 228.641 123.543 228.822 123.404C229.014 123.276 229.158 123.089 229.254 122.844L229.814 121.452L226.534 113.228H228.07L230.486 119.996H230.518L232.838 113.228H234.278L230.678 122.604Z" fill="black" fill-opacity="0.68"/>
<rect width="62" height="32" transform="translate(347 100)" fill="#272727"/>
<path d="M359.966 111.004H362.164V119.152H367.036V121H359.966V111.004ZM368.146 115.988C368.174 115.521 368.29 115.134 368.496 114.826C368.701 114.518 368.962 114.271 369.28 114.084C369.597 113.897 369.952 113.767 370.344 113.692C370.745 113.608 371.146 113.566 371.548 113.566C371.912 113.566 372.28 113.594 372.654 113.65C373.027 113.697 373.368 113.795 373.676 113.944C373.984 114.093 374.236 114.303 374.432 114.574C374.628 114.835 374.726 115.185 374.726 115.624V119.39C374.726 119.717 374.744 120.029 374.782 120.328C374.819 120.627 374.884 120.851 374.978 121H372.962C372.924 120.888 372.892 120.776 372.864 120.664C372.845 120.543 372.831 120.421 372.822 120.3C372.504 120.627 372.131 120.855 371.702 120.986C371.272 121.117 370.834 121.182 370.386 121.182C370.04 121.182 369.718 121.14 369.42 121.056C369.121 120.972 368.86 120.841 368.636 120.664C368.412 120.487 368.234 120.263 368.104 119.992C367.982 119.721 367.922 119.399 367.922 119.026C367.922 118.615 367.992 118.279 368.132 118.018C368.281 117.747 368.468 117.533 368.692 117.374C368.925 117.215 369.186 117.099 369.476 117.024C369.774 116.94 370.073 116.875 370.372 116.828C370.67 116.781 370.964 116.744 371.254 116.716C371.543 116.688 371.8 116.646 372.024 116.59C372.248 116.534 372.425 116.455 372.556 116.352C372.686 116.24 372.747 116.081 372.738 115.876C372.738 115.661 372.7 115.493 372.626 115.372C372.56 115.241 372.467 115.143 372.346 115.078C372.234 115.003 372.098 114.957 371.94 114.938C371.79 114.91 371.627 114.896 371.45 114.896C371.058 114.896 370.75 114.98 370.526 115.148C370.302 115.316 370.171 115.596 370.134 115.988H368.146ZM372.738 117.458C372.654 117.533 372.546 117.593 372.416 117.64C372.294 117.677 372.159 117.71 372.01 117.738C371.87 117.766 371.72 117.789 371.562 117.808C371.403 117.827 371.244 117.85 371.086 117.878C370.936 117.906 370.787 117.943 370.638 117.99C370.498 118.037 370.372 118.102 370.26 118.186C370.157 118.261 370.073 118.359 370.008 118.48C369.942 118.601 369.91 118.755 369.91 118.942C369.91 119.119 369.942 119.269 370.008 119.39C370.073 119.511 370.162 119.609 370.274 119.684C370.386 119.749 370.516 119.796 370.666 119.824C370.815 119.852 370.969 119.866 371.128 119.866C371.52 119.866 371.823 119.801 372.038 119.67C372.252 119.539 372.411 119.385 372.514 119.208C372.616 119.021 372.677 118.835 372.696 118.648C372.724 118.461 372.738 118.312 372.738 118.2V117.458ZM381.75 117.388C381.75 117.08 381.717 116.786 381.652 116.506C381.587 116.226 381.484 115.979 381.344 115.764C381.204 115.549 381.027 115.381 380.812 115.26C380.607 115.129 380.355 115.064 380.056 115.064C379.767 115.064 379.515 115.129 379.3 115.26C379.085 115.381 378.908 115.549 378.768 115.764C378.628 115.979 378.525 116.226 378.46 116.506C378.395 116.786 378.362 117.08 378.362 117.388C378.362 117.687 378.395 117.976 378.46 118.256C378.525 118.536 378.628 118.783 378.768 118.998C378.908 119.213 379.085 119.385 379.3 119.516C379.515 119.637 379.767 119.698 380.056 119.698C380.355 119.698 380.607 119.637 380.812 119.516C381.027 119.385 381.204 119.213 381.344 118.998C381.484 118.783 381.587 118.536 381.652 118.256C381.717 117.976 381.75 117.687 381.75 117.388ZM376.444 111.004H378.432V114.644H378.46C378.703 114.271 379.029 114 379.44 113.832C379.86 113.655 380.294 113.566 380.742 113.566C381.106 113.566 381.465 113.641 381.82 113.79C382.175 113.939 382.492 114.168 382.772 114.476C383.061 114.784 383.295 115.181 383.472 115.666C383.649 116.142 383.738 116.711 383.738 117.374C383.738 118.037 383.649 118.611 383.472 119.096C383.295 119.572 383.061 119.964 382.772 120.272C382.492 120.58 382.175 120.809 381.82 120.958C381.465 121.107 381.106 121.182 380.742 121.182C380.21 121.182 379.734 121.098 379.314 120.93C378.894 120.762 378.577 120.477 378.362 120.076H378.334V121H376.444V111.004ZM390.049 116.604C389.956 116.1 389.788 115.717 389.545 115.456C389.312 115.195 388.953 115.064 388.467 115.064C388.15 115.064 387.884 115.12 387.669 115.232C387.464 115.335 387.296 115.465 387.165 115.624C387.044 115.783 386.955 115.951 386.899 116.128C386.853 116.305 386.825 116.464 386.815 116.604H390.049ZM386.815 117.864C386.843 118.508 387.007 118.975 387.305 119.264C387.604 119.553 388.033 119.698 388.593 119.698C388.995 119.698 389.34 119.6 389.629 119.404C389.919 119.199 390.096 118.984 390.161 118.76H391.911C391.631 119.628 391.202 120.249 390.623 120.622C390.045 120.995 389.345 121.182 388.523 121.182C387.954 121.182 387.441 121.093 386.983 120.916C386.526 120.729 386.139 120.468 385.821 120.132C385.504 119.796 385.257 119.395 385.079 118.928C384.911 118.461 384.827 117.948 384.827 117.388C384.827 116.847 384.916 116.343 385.093 115.876C385.271 115.409 385.523 115.008 385.849 114.672C386.176 114.327 386.563 114.056 387.011 113.86C387.469 113.664 387.973 113.566 388.523 113.566C389.139 113.566 389.676 113.687 390.133 113.93C390.591 114.163 390.964 114.481 391.253 114.882C391.552 115.283 391.767 115.741 391.897 116.254C392.028 116.767 392.075 117.304 392.037 117.864H386.815ZM393.448 111.004H395.436V121H393.448V111.004Z" fill="white"/>
<path d="M176.84 193.356H173.032V192.076H182.168V193.356H178.36V203.5H176.84V193.356ZM187.174 198.572C187.153 198.252 187.078 197.948 186.95 197.66C186.833 197.372 186.668 197.127 186.454 196.924C186.252 196.711 186.006 196.545 185.718 196.428C185.441 196.3 185.132 196.236 184.79 196.236C184.438 196.236 184.118 196.3 183.83 196.428C183.553 196.545 183.313 196.711 183.11 196.924C182.908 197.137 182.748 197.388 182.63 197.676C182.513 197.953 182.444 198.252 182.422 198.572H187.174ZM188.486 200.876C188.305 201.804 187.905 202.503 187.286 202.972C186.668 203.441 185.889 203.676 184.95 203.676C184.289 203.676 183.713 203.569 183.222 203.356C182.742 203.143 182.337 202.844 182.006 202.46C181.676 202.076 181.425 201.617 181.254 201.084C181.094 200.551 181.004 199.969 180.982 199.34C180.982 198.711 181.078 198.135 181.27 197.612C181.462 197.089 181.729 196.636 182.07 196.252C182.422 195.868 182.833 195.569 183.302 195.356C183.782 195.143 184.305 195.036 184.87 195.036C185.606 195.036 186.214 195.191 186.694 195.5C187.185 195.799 187.574 196.183 187.862 196.652C188.161 197.121 188.364 197.633 188.47 198.188C188.588 198.743 188.636 199.271 188.614 199.772H182.422C182.412 200.135 182.454 200.481 182.55 200.812C182.646 201.132 182.801 201.42 183.014 201.676C183.228 201.921 183.5 202.119 183.83 202.268C184.161 202.417 184.55 202.492 184.998 202.492C185.574 202.492 186.044 202.359 186.406 202.092C186.78 201.825 187.025 201.42 187.142 200.876H188.486ZM192.248 199.148L189.368 195.228H191.112L193.096 198.124L195.16 195.228H196.792L193.944 199.036L197.144 203.5H195.4L193.096 200.076L190.792 203.5H189.144L192.248 199.148ZM200.193 195.228H201.841V196.428H200.193V201.564C200.193 201.724 200.204 201.852 200.225 201.948C200.257 202.044 200.311 202.119 200.385 202.172C200.46 202.225 200.561 202.263 200.689 202.284C200.828 202.295 201.004 202.3 201.217 202.3H201.841V203.5H200.801C200.449 203.5 200.145 203.479 199.889 203.436C199.644 203.383 199.441 203.292 199.281 203.164C199.132 203.036 199.02 202.855 198.945 202.62C198.871 202.385 198.833 202.076 198.833 201.692V196.428H197.425V195.228H198.833V192.748H200.193V195.228ZM212.125 198.908H215.613V199.996H212.125V203.5H211.037V199.996H207.549V198.908H211.037V195.404H212.125V198.908ZM223.596 196.988H226.636C227.5 196.988 228.119 196.839 228.492 196.54C228.876 196.231 229.068 195.772 229.068 195.164C229.068 194.759 229.004 194.439 228.876 194.204C228.748 193.969 228.572 193.788 228.348 193.66C228.124 193.532 227.863 193.452 227.564 193.42C227.276 193.377 226.967 193.356 226.636 193.356H223.596V196.988ZM222.076 192.076H226.22C226.465 192.076 226.727 192.081 227.004 192.092C227.292 192.092 227.575 192.108 227.852 192.14C228.129 192.161 228.385 192.199 228.62 192.252C228.865 192.305 229.073 192.385 229.244 192.492C229.617 192.716 229.932 193.025 230.188 193.42C230.455 193.815 230.588 194.3 230.588 194.876C230.588 195.484 230.439 196.012 230.14 196.46C229.852 196.897 229.436 197.223 228.892 197.436V197.468C229.596 197.617 230.135 197.937 230.508 198.428C230.881 198.919 231.068 199.516 231.068 200.22C231.068 200.636 230.993 201.041 230.844 201.436C230.695 201.831 230.471 202.183 230.172 202.492C229.884 202.791 229.521 203.036 229.084 203.228C228.657 203.409 228.161 203.5 227.596 203.5H222.076V192.076ZM223.596 202.22H227.404C228.076 202.22 228.599 202.039 228.972 201.676C229.356 201.313 229.548 200.812 229.548 200.172C229.548 199.799 229.479 199.489 229.34 199.244C229.201 198.999 229.015 198.807 228.78 198.668C228.556 198.519 228.295 198.417 227.996 198.364C227.697 198.3 227.388 198.268 227.068 198.268H223.596V202.22ZM239.653 203.5H238.373V202.188H238.341C238.053 202.7 237.685 203.079 237.237 203.324C236.789 203.559 236.261 203.676 235.653 203.676C235.109 203.676 234.656 203.607 234.293 203.468C233.931 203.319 233.637 203.111 233.413 202.844C233.189 202.577 233.029 202.263 232.933 201.9C232.848 201.527 232.805 201.116 232.805 200.668V195.228H234.165V200.828C234.165 201.34 234.315 201.745 234.613 202.044C234.912 202.343 235.323 202.492 235.845 202.492C236.261 202.492 236.619 202.428 236.917 202.3C237.227 202.172 237.483 201.991 237.685 201.756C237.888 201.521 238.037 201.249 238.133 200.94C238.24 200.62 238.293 200.273 238.293 199.9V195.228H239.653V203.5ZM241.776 192.076H243.136V203.5H241.776V192.076ZM245.323 192.076H246.683V203.5H245.323V192.076ZM254.534 198.572C254.512 198.252 254.438 197.948 254.31 197.66C254.192 197.372 254.027 197.127 253.814 196.924C253.611 196.711 253.366 196.545 253.078 196.428C252.8 196.3 252.491 196.236 252.15 196.236C251.798 196.236 251.478 196.3 251.19 196.428C250.912 196.545 250.672 196.711 250.47 196.924C250.267 197.137 250.107 197.388 249.99 197.676C249.872 197.953 249.803 198.252 249.782 198.572H254.534ZM255.846 200.876C255.664 201.804 255.264 202.503 254.646 202.972C254.027 203.441 253.248 203.676 252.31 203.676C251.648 203.676 251.072 203.569 250.582 203.356C250.102 203.143 249.696 202.844 249.366 202.46C249.035 202.076 248.784 201.617 248.614 201.084C248.454 200.551 248.363 199.969 248.342 199.34C248.342 198.711 248.438 198.135 248.63 197.612C248.822 197.089 249.088 196.636 249.43 196.252C249.782 195.868 250.192 195.569 250.662 195.356C251.142 195.143 251.664 195.036 252.23 195.036C252.966 195.036 253.574 195.191 254.054 195.5C254.544 195.799 254.934 196.183 255.222 196.652C255.52 197.121 255.723 197.633 255.83 198.188C255.947 198.743 255.995 199.271 255.974 199.772H249.782C249.771 200.135 249.814 200.481 249.91 200.812C250.006 201.132 250.16 201.42 250.374 201.676C250.587 201.921 250.859 202.119 251.19 202.268C251.52 202.417 251.91 202.492 252.358 202.492C252.934 202.492 253.403 202.359 253.766 202.092C254.139 201.825 254.384 201.42 254.502 200.876H255.846ZM259.271 195.228H260.919V196.428H259.271V201.564C259.271 201.724 259.282 201.852 259.303 201.948C259.335 202.044 259.389 202.119 259.463 202.172C259.538 202.225 259.639 202.263 259.767 202.284C259.906 202.295 260.082 202.3 260.295 202.3H260.919V203.5H259.879C259.527 203.5 259.223 203.479 258.967 203.436C258.722 203.383 258.519 203.292 258.359 203.164C258.21 203.036 258.098 202.855 258.023 202.62C257.949 202.385 257.911 202.076 257.911 201.692V196.428H256.503V195.228H257.911V192.748H259.271V195.228Z" fill="black" fill-opacity="0.68"/>
<rect width="78" height="32" transform="translate(349 182)" fill="#272727"/>
<path d="M360 198C360 195.239 362.239 193 365 193C367.761 193 370 195.239 370 198C370 200.761 367.761 203 365 203C362.239 203 360 200.761 360 198Z" fill="white"/>
<path d="M377.966 193.004H380.164V201.152H385.036V203H377.966V193.004ZM386.146 197.988C386.174 197.521 386.29 197.134 386.496 196.826C386.701 196.518 386.962 196.271 387.28 196.084C387.597 195.897 387.952 195.767 388.344 195.692C388.745 195.608 389.146 195.566 389.548 195.566C389.912 195.566 390.28 195.594 390.654 195.65C391.027 195.697 391.368 195.795 391.676 195.944C391.984 196.093 392.236 196.303 392.432 196.574C392.628 196.835 392.726 197.185 392.726 197.624V201.39C392.726 201.717 392.744 202.029 392.782 202.328C392.819 202.627 392.884 202.851 392.978 203H390.962C390.924 202.888 390.892 202.776 390.864 202.664C390.845 202.543 390.831 202.421 390.822 202.3C390.504 202.627 390.131 202.855 389.702 202.986C389.272 203.117 388.834 203.182 388.386 203.182C388.04 203.182 387.718 203.14 387.42 203.056C387.121 202.972 386.86 202.841 386.636 202.664C386.412 202.487 386.234 202.263 386.104 201.992C385.982 201.721 385.922 201.399 385.922 201.026C385.922 200.615 385.992 200.279 386.132 200.018C386.281 199.747 386.468 199.533 386.692 199.374C386.925 199.215 387.186 199.099 387.476 199.024C387.774 198.94 388.073 198.875 388.372 198.828C388.67 198.781 388.964 198.744 389.254 198.716C389.543 198.688 389.8 198.646 390.024 198.59C390.248 198.534 390.425 198.455 390.556 198.352C390.686 198.24 390.747 198.081 390.738 197.876C390.738 197.661 390.7 197.493 390.626 197.372C390.56 197.241 390.467 197.143 390.346 197.078C390.234 197.003 390.098 196.957 389.94 196.938C389.79 196.91 389.627 196.896 389.45 196.896C389.058 196.896 388.75 196.98 388.526 197.148C388.302 197.316 388.171 197.596 388.134 197.988H386.146ZM390.738 199.458C390.654 199.533 390.546 199.593 390.416 199.64C390.294 199.677 390.159 199.71 390.01 199.738C389.87 199.766 389.72 199.789 389.562 199.808C389.403 199.827 389.244 199.85 389.086 199.878C388.936 199.906 388.787 199.943 388.638 199.99C388.498 200.037 388.372 200.102 388.26 200.186C388.157 200.261 388.073 200.359 388.008 200.48C387.942 200.601 387.91 200.755 387.91 200.942C387.91 201.119 387.942 201.269 388.008 201.39C388.073 201.511 388.162 201.609 388.274 201.684C388.386 201.749 388.516 201.796 388.666 201.824C388.815 201.852 388.969 201.866 389.128 201.866C389.52 201.866 389.823 201.801 390.038 201.67C390.252 201.539 390.411 201.385 390.514 201.208C390.616 201.021 390.677 200.835 390.696 200.648C390.724 200.461 390.738 200.312 390.738 200.2V199.458ZM399.75 199.388C399.75 199.08 399.717 198.786 399.652 198.506C399.587 198.226 399.484 197.979 399.344 197.764C399.204 197.549 399.027 197.381 398.812 197.26C398.607 197.129 398.355 197.064 398.056 197.064C397.767 197.064 397.515 197.129 397.3 197.26C397.085 197.381 396.908 197.549 396.768 197.764C396.628 197.979 396.525 198.226 396.46 198.506C396.395 198.786 396.362 199.08 396.362 199.388C396.362 199.687 396.395 199.976 396.46 200.256C396.525 200.536 396.628 200.783 396.768 200.998C396.908 201.213 397.085 201.385 397.3 201.516C397.515 201.637 397.767 201.698 398.056 201.698C398.355 201.698 398.607 201.637 398.812 201.516C399.027 201.385 399.204 201.213 399.344 200.998C399.484 200.783 399.587 200.536 399.652 200.256C399.717 199.976 399.75 199.687 399.75 199.388ZM394.444 193.004H396.432V196.644H396.46C396.703 196.271 397.029 196 397.44 195.832C397.86 195.655 398.294 195.566 398.742 195.566C399.106 195.566 399.465 195.641 399.82 195.79C400.175 195.939 400.492 196.168 400.772 196.476C401.061 196.784 401.295 197.181 401.472 197.666C401.649 198.142 401.738 198.711 401.738 199.374C401.738 200.037 401.649 200.611 401.472 201.096C401.295 201.572 401.061 201.964 400.772 202.272C400.492 202.58 400.175 202.809 399.82 202.958C399.465 203.107 399.106 203.182 398.742 203.182C398.21 203.182 397.734 203.098 397.314 202.93C396.894 202.762 396.577 202.477 396.362 202.076H396.334V203H394.444V193.004ZM408.049 198.604C407.956 198.1 407.788 197.717 407.545 197.456C407.312 197.195 406.953 197.064 406.467 197.064C406.15 197.064 405.884 197.12 405.669 197.232C405.464 197.335 405.296 197.465 405.165 197.624C405.044 197.783 404.955 197.951 404.899 198.128C404.853 198.305 404.825 198.464 404.815 198.604H408.049ZM404.815 199.864C404.843 200.508 405.007 200.975 405.305 201.264C405.604 201.553 406.033 201.698 406.593 201.698C406.995 201.698 407.34 201.6 407.629 201.404C407.919 201.199 408.096 200.984 408.161 200.76H409.911C409.631 201.628 409.202 202.249 408.623 202.622C408.045 202.995 407.345 203.182 406.523 203.182C405.954 203.182 405.441 203.093 404.983 202.916C404.526 202.729 404.139 202.468 403.821 202.132C403.504 201.796 403.257 201.395 403.079 200.928C402.911 200.461 402.827 199.948 402.827 199.388C402.827 198.847 402.916 198.343 403.093 197.876C403.271 197.409 403.523 197.008 403.849 196.672C404.176 196.327 404.563 196.056 405.011 195.86C405.469 195.664 405.973 195.566 406.523 195.566C407.139 195.566 407.676 195.687 408.133 195.93C408.591 196.163 408.964 196.481 409.253 196.882C409.552 197.283 409.767 197.741 409.897 198.254C410.028 198.767 410.075 199.304 410.037 199.864H404.815ZM411.448 193.004H413.436V203H411.448V193.004Z" fill="white"/>
<path d="M174.84 275.356H171.032V274.076H180.168V275.356H176.36V285.5H174.84V275.356ZM185.174 280.572C185.153 280.252 185.078 279.948 184.95 279.66C184.833 279.372 184.668 279.127 184.454 278.924C184.252 278.711 184.006 278.545 183.718 278.428C183.441 278.3 183.132 278.236 182.79 278.236C182.438 278.236 182.118 278.3 181.83 278.428C181.553 278.545 181.313 278.711 181.11 278.924C180.908 279.137 180.748 279.388 180.63 279.676C180.513 279.953 180.444 280.252 180.422 280.572H185.174ZM186.486 282.876C186.305 283.804 185.905 284.503 185.286 284.972C184.668 285.441 183.889 285.676 182.95 285.676C182.289 285.676 181.713 285.569 181.222 285.356C180.742 285.143 180.337 284.844 180.006 284.46C179.676 284.076 179.425 283.617 179.254 283.084C179.094 282.551 179.004 281.969 178.982 281.34C178.982 280.711 179.078 280.135 179.27 279.612C179.462 279.089 179.729 278.636 180.07 278.252C180.422 277.868 180.833 277.569 181.302 277.356C181.782 277.143 182.305 277.036 182.87 277.036C183.606 277.036 184.214 277.191 184.694 277.5C185.185 277.799 185.574 278.183 185.862 278.652C186.161 279.121 186.364 279.633 186.47 280.188C186.588 280.743 186.636 281.271 186.614 281.772H180.422C180.412 282.135 180.454 282.481 180.55 282.812C180.646 283.132 180.801 283.42 181.014 283.676C181.228 283.921 181.5 284.119 181.83 284.268C182.161 284.417 182.55 284.492 182.998 284.492C183.574 284.492 184.044 284.359 184.406 284.092C184.78 283.825 185.025 283.42 185.142 282.876H186.486ZM190.248 281.148L187.368 277.228H189.112L191.096 280.124L193.16 277.228H194.792L191.944 281.036L195.144 285.5H193.4L191.096 282.076L188.792 285.5H187.144L190.248 281.148ZM198.193 277.228H199.841V278.428H198.193V283.564C198.193 283.724 198.204 283.852 198.225 283.948C198.257 284.044 198.311 284.119 198.385 284.172C198.46 284.225 198.561 284.263 198.689 284.284C198.828 284.295 199.004 284.3 199.217 284.3H199.841V285.5H198.801C198.449 285.5 198.145 285.479 197.889 285.436C197.644 285.383 197.441 285.292 197.281 285.164C197.132 285.036 197.02 284.855 196.945 284.62C196.871 284.385 196.833 284.076 196.833 283.692V278.428H195.425V277.228H196.833V274.748H198.193V277.228ZM210.125 280.908H213.613V281.996H210.125V285.5H209.037V281.996H205.549V280.908H209.037V277.404H210.125V280.908ZM220.14 274.076H221.66V285.5H220.14V274.076ZM229.609 279.884C229.502 279.361 229.278 278.956 228.937 278.668C228.595 278.38 228.137 278.236 227.561 278.236C227.07 278.236 226.659 278.327 226.329 278.508C225.998 278.689 225.731 278.929 225.529 279.228C225.337 279.527 225.198 279.873 225.113 280.268C225.027 280.652 224.985 281.052 224.985 281.468C224.985 281.852 225.027 282.225 225.113 282.588C225.209 282.951 225.353 283.276 225.545 283.564C225.737 283.841 225.987 284.065 226.297 284.236C226.606 284.407 226.974 284.492 227.401 284.492C228.073 284.492 228.595 284.316 228.969 283.964C229.353 283.612 229.587 283.116 229.673 282.476H231.065C230.915 283.5 230.531 284.289 229.913 284.844C229.305 285.399 228.473 285.676 227.417 285.676C226.787 285.676 226.227 285.575 225.737 285.372C225.257 285.169 224.851 284.881 224.521 284.508C224.201 284.135 223.955 283.692 223.785 283.18C223.625 282.657 223.545 282.087 223.545 281.468C223.545 280.849 223.625 280.273 223.785 279.74C223.945 279.196 224.185 278.727 224.505 278.332C224.835 277.927 225.246 277.612 225.737 277.388C226.227 277.153 226.798 277.036 227.449 277.036C227.918 277.036 228.355 277.095 228.761 277.212C229.177 277.319 229.539 277.489 229.849 277.724C230.169 277.959 230.43 278.257 230.633 278.62C230.835 278.972 230.963 279.393 231.017 279.884H229.609ZM233.579 281.372C233.579 281.873 233.643 282.321 233.771 282.716C233.909 283.1 234.096 283.425 234.331 283.692C234.565 283.948 234.837 284.145 235.147 284.284C235.467 284.423 235.803 284.492 236.155 284.492C236.507 284.492 236.837 284.423 237.147 284.284C237.467 284.145 237.744 283.948 237.979 283.692C238.213 283.425 238.395 283.1 238.523 282.716C238.661 282.321 238.731 281.873 238.731 281.372C238.731 280.871 238.661 280.428 238.523 280.044C238.395 279.649 238.213 279.319 237.979 279.052C237.744 278.785 237.467 278.583 237.147 278.444C236.837 278.305 236.507 278.236 236.155 278.236C235.803 278.236 235.467 278.305 235.147 278.444C234.837 278.583 234.565 278.785 234.331 279.052C234.096 279.319 233.909 279.649 233.771 280.044C233.643 280.428 233.579 280.871 233.579 281.372ZM232.139 281.372C232.139 280.764 232.224 280.199 232.395 279.676C232.565 279.143 232.821 278.684 233.163 278.3C233.504 277.905 233.925 277.596 234.427 277.372C234.928 277.148 235.504 277.036 236.155 277.036C236.816 277.036 237.392 277.148 237.883 277.372C238.384 277.596 238.805 277.905 239.147 278.3C239.488 278.684 239.744 279.143 239.915 279.676C240.085 280.199 240.171 280.764 240.171 281.372C240.171 281.98 240.085 282.545 239.915 283.068C239.744 283.591 239.488 284.049 239.147 284.444C238.805 284.828 238.384 285.132 237.883 285.356C237.392 285.569 236.816 285.676 236.155 285.676C235.504 285.676 234.928 285.569 234.427 285.356C233.925 285.132 233.504 284.828 233.163 284.444C232.821 284.049 232.565 283.591 232.395 283.068C232.224 282.545 232.139 281.98 232.139 281.372ZM241.774 277.228H243.054V278.54H243.086C243.651 277.537 244.547 277.036 245.774 277.036C246.318 277.036 246.771 277.111 247.134 277.26C247.497 277.409 247.79 277.617 248.014 277.884C248.238 278.151 248.393 278.471 248.478 278.844C248.574 279.207 248.622 279.612 248.622 280.06V285.5H247.262V279.9C247.262 279.388 247.113 278.983 246.814 278.684C246.515 278.385 246.105 278.236 245.582 278.236C245.166 278.236 244.803 278.3 244.494 278.428C244.195 278.556 243.945 278.737 243.742 278.972C243.539 279.207 243.385 279.484 243.278 279.804C243.182 280.113 243.134 280.455 243.134 280.828V285.5H241.774V277.228Z" fill="black" fill-opacity="0.68"/>
<rect width="78" height="32" transform="translate(347 264)" fill="#272727"/>
<path fill-rule="evenodd" clip-rule="evenodd" d="M366.733 279.558L363 283.644L359.267 279.558L359.265 279.556C358.542 278.763 358.606 277.541 359.409 276.826C360.182 276.138 361.365 276.169 362.101 276.896C362.103 276.898 362.105 276.9 362.107 276.901L362.678 277.438L363 277.744L363.322 277.438L363.893 276.901C363.895 276.9 363.897 276.898 363.899 276.896C364.265 276.532 364.763 276.328 365.282 276.33C366.362 276.33 367.238 277.195 367.238 278.262C367.238 278.74 367.059 279.201 366.735 279.556L366.733 279.558ZM367.587 275.985C366.321 274.734 364.275 274.727 363 275.962C361.725 274.727 359.679 274.734 358.413 275.985C357.161 277.222 357.14 279.216 358.352 280.478L363 285.542L367.648 280.478C368.859 279.216 368.839 277.222 367.587 275.985Z" fill="white"/>
<path d="M375.966 275.004H378.164V283.152H383.036V285H375.966V275.004ZM384.146 279.988C384.174 279.521 384.29 279.134 384.496 278.826C384.701 278.518 384.962 278.271 385.28 278.084C385.597 277.897 385.952 277.767 386.344 277.692C386.745 277.608 387.146 277.566 387.548 277.566C387.912 277.566 388.28 277.594 388.654 277.65C389.027 277.697 389.368 277.795 389.676 277.944C389.984 278.093 390.236 278.303 390.432 278.574C390.628 278.835 390.726 279.185 390.726 279.624V283.39C390.726 283.717 390.744 284.029 390.782 284.328C390.819 284.627 390.884 284.851 390.978 285H388.962C388.924 284.888 388.892 284.776 388.864 284.664C388.845 284.543 388.831 284.421 388.822 284.3C388.504 284.627 388.131 284.855 387.702 284.986C387.272 285.117 386.834 285.182 386.386 285.182C386.04 285.182 385.718 285.14 385.42 285.056C385.121 284.972 384.86 284.841 384.636 284.664C384.412 284.487 384.234 284.263 384.104 283.992C383.982 283.721 383.922 283.399 383.922 283.026C383.922 282.615 383.992 282.279 384.132 282.018C384.281 281.747 384.468 281.533 384.692 281.374C384.925 281.215 385.186 281.099 385.476 281.024C385.774 280.94 386.073 280.875 386.372 280.828C386.67 280.781 386.964 280.744 387.254 280.716C387.543 280.688 387.8 280.646 388.024 280.59C388.248 280.534 388.425 280.455 388.556 280.352C388.686 280.24 388.747 280.081 388.738 279.876C388.738 279.661 388.7 279.493 388.626 279.372C388.56 279.241 388.467 279.143 388.346 279.078C388.234 279.003 388.098 278.957 387.94 278.938C387.79 278.91 387.627 278.896 387.45 278.896C387.058 278.896 386.75 278.98 386.526 279.148C386.302 279.316 386.171 279.596 386.134 279.988H384.146ZM388.738 281.458C388.654 281.533 388.546 281.593 388.416 281.64C388.294 281.677 388.159 281.71 388.01 281.738C387.87 281.766 387.72 281.789 387.562 281.808C387.403 281.827 387.244 281.85 387.086 281.878C386.936 281.906 386.787 281.943 386.638 281.99C386.498 282.037 386.372 282.102 386.26 282.186C386.157 282.261 386.073 282.359 386.008 282.48C385.942 282.601 385.91 282.755 385.91 282.942C385.91 283.119 385.942 283.269 386.008 283.39C386.073 283.511 386.162 283.609 386.274 283.684C386.386 283.749 386.516 283.796 386.666 283.824C386.815 283.852 386.969 283.866 387.128 283.866C387.52 283.866 387.823 283.801 388.038 283.67C388.252 283.539 388.411 283.385 388.514 283.208C388.616 283.021 388.677 282.835 388.696 282.648C388.724 282.461 388.738 282.312 388.738 282.2V281.458ZM397.75 281.388C397.75 281.08 397.717 280.786 397.652 280.506C397.587 280.226 397.484 279.979 397.344 279.764C397.204 279.549 397.027 279.381 396.812 279.26C396.607 279.129 396.355 279.064 396.056 279.064C395.767 279.064 395.515 279.129 395.3 279.26C395.085 279.381 394.908 279.549 394.768 279.764C394.628 279.979 394.525 280.226 394.46 280.506C394.395 280.786 394.362 281.08 394.362 281.388C394.362 281.687 394.395 281.976 394.46 282.256C394.525 282.536 394.628 282.783 394.768 282.998C394.908 283.213 395.085 283.385 395.3 283.516C395.515 283.637 395.767 283.698 396.056 283.698C396.355 283.698 396.607 283.637 396.812 283.516C397.027 283.385 397.204 283.213 397.344 282.998C397.484 282.783 397.587 282.536 397.652 282.256C397.717 281.976 397.75 281.687 397.75 281.388ZM392.444 275.004H394.432V278.644H394.46C394.703 278.271 395.029 278 395.44 277.832C395.86 277.655 396.294 277.566 396.742 277.566C397.106 277.566 397.465 277.641 397.82 277.79C398.175 277.939 398.492 278.168 398.772 278.476C399.061 278.784 399.295 279.181 399.472 279.666C399.649 280.142 399.738 280.711 399.738 281.374C399.738 282.037 399.649 282.611 399.472 283.096C399.295 283.572 399.061 283.964 398.772 284.272C398.492 284.58 398.175 284.809 397.82 284.958C397.465 285.107 397.106 285.182 396.742 285.182C396.21 285.182 395.734 285.098 395.314 284.93C394.894 284.762 394.577 284.477 394.362 284.076H394.334V285H392.444V275.004ZM406.049 280.604C405.956 280.1 405.788 279.717 405.545 279.456C405.312 279.195 404.953 279.064 404.467 279.064C404.15 279.064 403.884 279.12 403.669 279.232C403.464 279.335 403.296 279.465 403.165 279.624C403.044 279.783 402.955 279.951 402.899 280.128C402.853 280.305 402.825 280.464 402.815 280.604H406.049ZM402.815 281.864C402.843 282.508 403.007 282.975 403.305 283.264C403.604 283.553 404.033 283.698 404.593 283.698C404.995 283.698 405.34 283.6 405.629 283.404C405.919 283.199 406.096 282.984 406.161 282.76H407.911C407.631 283.628 407.202 284.249 406.623 284.622C406.045 284.995 405.345 285.182 404.523 285.182C403.954 285.182 403.441 285.093 402.983 284.916C402.526 284.729 402.139 284.468 401.821 284.132C401.504 283.796 401.257 283.395 401.079 282.928C400.911 282.461 400.827 281.948 400.827 281.388C400.827 280.847 400.916 280.343 401.093 279.876C401.271 279.409 401.523 279.008 401.849 278.672C402.176 278.327 402.563 278.056 403.011 277.86C403.469 277.664 403.973 277.566 404.523 277.566C405.139 277.566 405.676 277.687 406.133 277.93C406.591 278.163 406.964 278.481 407.253 278.882C407.552 279.283 407.767 279.741 407.897 280.254C408.028 280.767 408.075 281.304 408.037 281.864H402.815ZM409.448 275.004H411.436V285H409.448V275.004Z" fill="white"/>
</svg>
