<svg width="600" height="488" viewBox="0 0 600 488" fill="none" xmlns="http://www.w3.org/2000/svg">
<rect width="600" height="488" fill="black" fill-opacity="0.04"/>
<path d="M128.768 120.548H131.744C132.608 120.559 133.237 120.383 133.632 120.02C134.037 119.657 134.24 119.135 134.24 118.452C134.24 117.769 134.037 117.252 133.632 116.9C133.237 116.537 132.608 116.356 131.744 116.356H128.768V120.548ZM127.248 115.076H132.256C133.408 115.076 134.277 115.375 134.864 115.972C135.461 116.559 135.76 117.385 135.76 118.452C135.76 119.519 135.461 120.351 134.864 120.948C134.277 121.545 133.408 121.839 132.256 121.828H128.768V126.5H127.248V115.076ZM138.391 122.372C138.391 122.873 138.455 123.321 138.583 123.716C138.722 124.1 138.908 124.425 139.143 124.692C139.378 124.948 139.65 125.145 139.959 125.284C140.279 125.423 140.615 125.492 140.967 125.492C141.319 125.492 141.65 125.423 141.959 125.284C142.279 125.145 142.556 124.948 142.791 124.692C143.026 124.425 143.207 124.1 143.335 123.716C143.474 123.321 143.543 122.873 143.543 122.372C143.543 121.871 143.474 121.428 143.335 121.044C143.207 120.649 143.026 120.319 142.791 120.052C142.556 119.785 142.279 119.583 141.959 119.444C141.65 119.305 141.319 119.236 140.967 119.236C140.615 119.236 140.279 119.305 139.959 119.444C139.65 119.583 139.378 119.785 139.143 120.052C138.908 120.319 138.722 120.649 138.583 121.044C138.455 121.428 138.391 121.871 138.391 122.372ZM136.951 122.372C136.951 121.764 137.036 121.199 137.207 120.676C137.378 120.143 137.634 119.684 137.975 119.3C138.316 118.905 138.738 118.596 139.239 118.372C139.74 118.148 140.316 118.036 140.967 118.036C141.628 118.036 142.204 118.148 142.695 118.372C143.196 118.596 143.618 118.905 143.959 119.3C144.3 119.684 144.556 120.143 144.727 120.676C144.898 121.199 144.983 121.764 144.983 122.372C144.983 122.98 144.898 123.545 144.727 124.068C144.556 124.591 144.3 125.049 143.959 125.444C143.618 125.828 143.196 126.132 142.695 126.356C142.204 126.569 141.628 126.676 140.967 126.676C140.316 126.676 139.74 126.569 139.239 126.356C138.738 126.132 138.316 125.828 137.975 125.444C137.634 125.049 137.378 124.591 137.207 124.068C137.036 123.545 136.951 122.98 136.951 122.372ZM147.419 123.892C147.429 124.191 147.499 124.447 147.627 124.66C147.755 124.863 147.92 125.028 148.123 125.156C148.336 125.273 148.571 125.359 148.827 125.412C149.093 125.465 149.365 125.492 149.643 125.492C149.856 125.492 150.08 125.476 150.315 125.444C150.549 125.412 150.763 125.353 150.955 125.268C151.157 125.183 151.323 125.06 151.451 124.9C151.579 124.729 151.643 124.516 151.643 124.26C151.643 123.908 151.509 123.641 151.243 123.46C150.976 123.279 150.64 123.135 150.235 123.028C149.84 122.911 149.408 122.809 148.939 122.724C148.469 122.628 148.032 122.5 147.627 122.34C147.232 122.169 146.901 121.935 146.635 121.636C146.368 121.337 146.235 120.921 146.235 120.388C146.235 119.972 146.325 119.615 146.507 119.316C146.699 119.017 146.939 118.777 147.227 118.596C147.525 118.404 147.856 118.265 148.219 118.18C148.592 118.084 148.96 118.036 149.323 118.036C149.792 118.036 150.224 118.079 150.619 118.164C151.013 118.239 151.36 118.377 151.659 118.58C151.968 118.772 152.213 119.039 152.395 119.38C152.576 119.711 152.683 120.127 152.715 120.628H151.355C151.333 120.361 151.264 120.143 151.147 119.972C151.029 119.791 150.88 119.647 150.699 119.54C150.517 119.433 150.315 119.359 150.091 119.316C149.877 119.263 149.659 119.236 149.435 119.236C149.232 119.236 149.024 119.252 148.811 119.284C148.608 119.316 148.421 119.375 148.251 119.46C148.08 119.535 147.941 119.641 147.835 119.78C147.728 119.908 147.674 120.079 147.674 120.292C147.674 120.527 147.754 120.724 147.914 120.884C148.085 121.033 148.299 121.161 148.555 121.268C148.811 121.364 149.099 121.449 149.419 121.524C149.739 121.588 150.059 121.657 150.379 121.732C150.72 121.807 151.051 121.897 151.371 122.004C151.701 122.111 151.989 122.255 152.235 122.436C152.491 122.607 152.693 122.825 152.843 123.092C153.003 123.359 153.083 123.689 153.083 124.084C153.083 124.585 152.976 125.001 152.763 125.332C152.56 125.663 152.288 125.929 151.947 126.132C151.616 126.335 151.237 126.473 150.811 126.548C150.395 126.633 149.979 126.676 149.562 126.676C149.104 126.676 148.667 126.628 148.251 126.532C147.835 126.436 147.467 126.281 147.147 126.068C146.827 125.844 146.571 125.556 146.379 125.204C146.187 124.841 146.08 124.404 146.059 123.892H147.419ZM156.027 116.74H154.667V115.076H156.027V116.74ZM154.667 118.228H156.027V126.5H154.667V118.228ZM160.021 118.228H161.669V119.428H160.021V124.564C160.021 124.724 160.032 124.852 160.053 124.948C160.085 125.044 160.139 125.119 160.213 125.172C160.288 125.225 160.389 125.263 160.517 125.284C160.656 125.295 160.832 125.3 161.045 125.3H161.669V126.5H160.629C160.277 126.5 159.973 126.479 159.717 126.436C159.472 126.383 159.269 126.292 159.109 126.164C158.96 126.036 158.848 125.855 158.773 125.62C158.699 125.385 158.661 125.076 158.661 124.692V119.428H157.253V118.228H158.661V115.748H160.021V118.228ZM164.62 116.74H163.26V115.076H164.62V116.74ZM163.26 118.228H164.62V126.5H163.26V118.228ZM170.455 126.5H168.999L165.927 118.228H167.447L169.767 125.124H169.799L172.055 118.228H173.479L170.455 126.5ZM180.471 121.572C180.45 121.252 180.375 120.948 180.247 120.66C180.13 120.372 179.964 120.127 179.751 119.924C179.548 119.711 179.303 119.545 179.015 119.428C178.738 119.3 178.428 119.236 178.087 119.236C177.735 119.236 177.415 119.3 177.127 119.428C176.85 119.545 176.61 119.711 176.407 119.924C176.204 120.137 176.044 120.388 175.927 120.676C175.81 120.953 175.74 121.252 175.719 121.572H180.471ZM181.783 123.876C181.602 124.804 181.202 125.503 180.583 125.972C179.964 126.441 179.186 126.676 178.247 126.676C177.586 126.676 177.01 126.569 176.519 126.356C176.039 126.143 175.634 125.844 175.303 125.46C174.972 125.076 174.722 124.617 174.551 124.084C174.391 123.551 174.3 122.969 174.279 122.34C174.279 121.711 174.375 121.135 174.567 120.612C174.759 120.089 175.026 119.636 175.367 119.252C175.719 118.868 176.13 118.569 176.599 118.356C177.079 118.143 177.602 118.036 178.167 118.036C178.903 118.036 179.511 118.191 179.991 118.5C180.482 118.799 180.871 119.183 181.159 119.652C181.458 120.121 181.66 120.633 181.767 121.188C181.884 121.743 181.932 122.271 181.911 122.772H175.719C175.708 123.135 175.751 123.481 175.847 123.812C175.943 124.132 176.098 124.42 176.311 124.676C176.524 124.921 176.796 125.119 177.127 125.268C177.458 125.417 177.847 125.492 178.295 125.492C178.871 125.492 179.34 125.359 179.703 125.092C180.076 124.825 180.322 124.42 180.439 123.876H181.783Z" fill="black" fill-opacity="0.68"/>
<path d="M302 121C302 112.163 309.163 105 318 105H364C372.837 105 380 112.163 380 121C380 129.837 372.837 137 364 137H318C309.163 137 302 129.837 302 121Z" fill="#138126"/>
<path d="M318 115.05C321.286 115.05 323.95 117.714 323.95 121C323.95 124.286 321.286 126.95 318 126.95C314.714 126.95 312.05 124.286 312.05 121C312.05 117.714 314.714 115.05 318 115.05ZM320.686 118.2C320.545 118.201 320.409 118.255 320.306 118.351L316.992 121.551L315.899 120.345C315.676 120.155 315.346 120.168 315.139 120.374L314.915 120.598C314.712 120.798 314.694 121.12 314.872 121.342L316.666 123.576C316.861 123.818 317.214 123.856 317.456 123.661C317.487 123.636 317.516 123.607 317.541 123.576L321.127 119.107C321.206 119.008 321.25 118.885 321.25 118.758C321.248 118.448 320.996 118.198 320.686 118.2Z" fill="white"/>
<path d="M330.966 116.004H333.164V124.152H338.036V126H330.966V116.004ZM339.146 120.988C339.174 120.521 339.29 120.134 339.496 119.826C339.701 119.518 339.962 119.271 340.28 119.084C340.597 118.897 340.952 118.767 341.344 118.692C341.745 118.608 342.146 118.566 342.548 118.566C342.912 118.566 343.28 118.594 343.654 118.65C344.027 118.697 344.368 118.795 344.676 118.944C344.984 119.093 345.236 119.303 345.432 119.574C345.628 119.835 345.726 120.185 345.726 120.624V124.39C345.726 124.717 345.744 125.029 345.782 125.328C345.819 125.627 345.884 125.851 345.978 126H343.962C343.924 125.888 343.892 125.776 343.864 125.664C343.845 125.543 343.831 125.421 343.822 125.3C343.504 125.627 343.131 125.855 342.702 125.986C342.272 126.117 341.834 126.182 341.386 126.182C341.04 126.182 340.718 126.14 340.42 126.056C340.121 125.972 339.86 125.841 339.636 125.664C339.412 125.487 339.234 125.263 339.104 124.992C338.982 124.721 338.922 124.399 338.922 124.026C338.922 123.615 338.992 123.279 339.132 123.018C339.281 122.747 339.468 122.533 339.692 122.374C339.925 122.215 340.186 122.099 340.476 122.024C340.774 121.94 341.073 121.875 341.372 121.828C341.67 121.781 341.964 121.744 342.254 121.716C342.543 121.688 342.8 121.646 343.024 121.59C343.248 121.534 343.425 121.455 343.556 121.352C343.686 121.24 343.747 121.081 343.738 120.876C343.738 120.661 343.7 120.493 343.626 120.372C343.56 120.241 343.467 120.143 343.346 120.078C343.234 120.003 343.098 119.957 342.94 119.938C342.79 119.91 342.627 119.896 342.45 119.896C342.058 119.896 341.75 119.98 341.526 120.148C341.302 120.316 341.171 120.596 341.134 120.988H339.146ZM343.738 122.458C343.654 122.533 343.546 122.593 343.416 122.64C343.294 122.677 343.159 122.71 343.01 122.738C342.87 122.766 342.72 122.789 342.562 122.808C342.403 122.827 342.244 122.85 342.086 122.878C341.936 122.906 341.787 122.943 341.638 122.99C341.498 123.037 341.372 123.102 341.26 123.186C341.157 123.261 341.073 123.359 341.008 123.48C340.942 123.601 340.91 123.755 340.91 123.942C340.91 124.119 340.942 124.269 341.008 124.39C341.073 124.511 341.162 124.609 341.274 124.684C341.386 124.749 341.516 124.796 341.666 124.824C341.815 124.852 341.969 124.866 342.128 124.866C342.52 124.866 342.823 124.801 343.038 124.67C343.252 124.539 343.411 124.385 343.514 124.208C343.616 124.021 343.677 123.835 343.696 123.648C343.724 123.461 343.738 123.312 343.738 123.2V122.458ZM352.75 122.388C352.75 122.08 352.717 121.786 352.652 121.506C352.587 121.226 352.484 120.979 352.344 120.764C352.204 120.549 352.027 120.381 351.812 120.26C351.607 120.129 351.355 120.064 351.056 120.064C350.767 120.064 350.515 120.129 350.3 120.26C350.085 120.381 349.908 120.549 349.768 120.764C349.628 120.979 349.525 121.226 349.46 121.506C349.395 121.786 349.362 122.08 349.362 122.388C349.362 122.687 349.395 122.976 349.46 123.256C349.525 123.536 349.628 123.783 349.768 123.998C349.908 124.213 350.085 124.385 350.3 124.516C350.515 124.637 350.767 124.698 351.056 124.698C351.355 124.698 351.607 124.637 351.812 124.516C352.027 124.385 352.204 124.213 352.344 123.998C352.484 123.783 352.587 123.536 352.652 123.256C352.717 122.976 352.75 122.687 352.75 122.388ZM347.444 116.004H349.432V119.644H349.46C349.703 119.271 350.029 119 350.44 118.832C350.86 118.655 351.294 118.566 351.742 118.566C352.106 118.566 352.465 118.641 352.82 118.79C353.175 118.939 353.492 119.168 353.772 119.476C354.061 119.784 354.295 120.181 354.472 120.666C354.649 121.142 354.738 121.711 354.738 122.374C354.738 123.037 354.649 123.611 354.472 124.096C354.295 124.572 354.061 124.964 353.772 125.272C353.492 125.58 353.175 125.809 352.82 125.958C352.465 126.107 352.106 126.182 351.742 126.182C351.21 126.182 350.734 126.098 350.314 125.93C349.894 125.762 349.577 125.477 349.362 125.076H349.334V126H347.444V116.004ZM361.049 121.604C360.956 121.1 360.788 120.717 360.545 120.456C360.312 120.195 359.953 120.064 359.467 120.064C359.15 120.064 358.884 120.12 358.669 120.232C358.464 120.335 358.296 120.465 358.165 120.624C358.044 120.783 357.955 120.951 357.899 121.128C357.853 121.305 357.825 121.464 357.815 121.604H361.049ZM357.815 122.864C357.843 123.508 358.007 123.975 358.305 124.264C358.604 124.553 359.033 124.698 359.593 124.698C359.995 124.698 360.34 124.6 360.629 124.404C360.919 124.199 361.096 123.984 361.161 123.76H362.911C362.631 124.628 362.202 125.249 361.623 125.622C361.045 125.995 360.345 126.182 359.523 126.182C358.954 126.182 358.441 126.093 357.983 125.916C357.526 125.729 357.139 125.468 356.821 125.132C356.504 124.796 356.257 124.395 356.079 123.928C355.911 123.461 355.827 122.948 355.827 122.388C355.827 121.847 355.916 121.343 356.093 120.876C356.271 120.409 356.523 120.008 356.849 119.672C357.176 119.327 357.563 119.056 358.011 118.86C358.469 118.664 358.973 118.566 359.523 118.566C360.139 118.566 360.676 118.687 361.133 118.93C361.591 119.163 361.964 119.481 362.253 119.882C362.552 120.283 362.767 120.741 362.897 121.254C363.028 121.767 363.075 122.304 363.037 122.864H357.815ZM364.448 116.004H366.436V126H364.448V116.004Z" fill="white"/>
<path d="M396 121C396 112.163 403.163 105 412 105H458C466.837 105 474 112.163 474 121C474 129.837 466.837 137 458 137H412C403.163 137 396 129.837 396 121Z" fill="#3DE35A" fill-opacity="0.12"/>
<path d="M412 115.4C408.907 115.4 406.4 117.907 406.4 121C406.4 124.093 408.907 126.6 412 126.6C415.093 126.6 417.6 124.093 417.6 121C417.6 117.907 415.093 115.4 412 115.4ZM414.899 120.153L411.745 123.307C411.692 123.359 411.641 123.407 411.59 123.45C411.567 123.481 411.54 123.511 411.511 123.541C411.362 123.689 411.196 123.729 411.163 123.737C411.126 123.746 411.073 123.755 411.008 123.756C410.941 123.755 410.889 123.746 410.854 123.737C410.822 123.729 410.654 123.689 410.506 123.541C410.476 123.511 410.45 123.481 410.427 123.45C410.376 123.407 410.325 123.359 410.272 123.307L409.104 122.138C408.606 121.641 408.522 121.235 408.863 120.893C409.198 120.558 409.611 120.636 410.108 121.133L411.008 122.033L413.894 119.148C414.391 118.65 414.798 118.566 415.139 118.907C415.474 119.242 415.396 119.655 414.899 120.152V120.153Z" fill="#138126"/>
<path d="M424.966 116.004H427.164V124.152H432.036V126H424.966V116.004ZM433.146 120.988C433.174 120.521 433.29 120.134 433.496 119.826C433.701 119.518 433.962 119.271 434.28 119.084C434.597 118.897 434.952 118.767 435.344 118.692C435.745 118.608 436.146 118.566 436.548 118.566C436.912 118.566 437.28 118.594 437.654 118.65C438.027 118.697 438.368 118.795 438.676 118.944C438.984 119.093 439.236 119.303 439.432 119.574C439.628 119.835 439.726 120.185 439.726 120.624V124.39C439.726 124.717 439.744 125.029 439.782 125.328C439.819 125.627 439.884 125.851 439.978 126H437.962C437.924 125.888 437.892 125.776 437.864 125.664C437.845 125.543 437.831 125.421 437.822 125.3C437.504 125.627 437.131 125.855 436.702 125.986C436.272 126.117 435.834 126.182 435.386 126.182C435.04 126.182 434.718 126.14 434.42 126.056C434.121 125.972 433.86 125.841 433.636 125.664C433.412 125.487 433.234 125.263 433.104 124.992C432.982 124.721 432.922 124.399 432.922 124.026C432.922 123.615 432.992 123.279 433.132 123.018C433.281 122.747 433.468 122.533 433.692 122.374C433.925 122.215 434.186 122.099 434.476 122.024C434.774 121.94 435.073 121.875 435.372 121.828C435.67 121.781 435.964 121.744 436.254 121.716C436.543 121.688 436.8 121.646 437.024 121.59C437.248 121.534 437.425 121.455 437.556 121.352C437.686 121.24 437.747 121.081 437.738 120.876C437.738 120.661 437.7 120.493 437.626 120.372C437.56 120.241 437.467 120.143 437.346 120.078C437.234 120.003 437.098 119.957 436.94 119.938C436.79 119.91 436.627 119.896 436.45 119.896C436.058 119.896 435.75 119.98 435.526 120.148C435.302 120.316 435.171 120.596 435.134 120.988H433.146ZM437.738 122.458C437.654 122.533 437.546 122.593 437.416 122.64C437.294 122.677 437.159 122.71 437.01 122.738C436.87 122.766 436.72 122.789 436.562 122.808C436.403 122.827 436.244 122.85 436.086 122.878C435.936 122.906 435.787 122.943 435.638 122.99C435.498 123.037 435.372 123.102 435.26 123.186C435.157 123.261 435.073 123.359 435.008 123.48C434.942 123.601 434.91 123.755 434.91 123.942C434.91 124.119 434.942 124.269 435.008 124.39C435.073 124.511 435.162 124.609 435.274 124.684C435.386 124.749 435.516 124.796 435.666 124.824C435.815 124.852 435.969 124.866 436.128 124.866C436.52 124.866 436.823 124.801 437.038 124.67C437.252 124.539 437.411 124.385 437.514 124.208C437.616 124.021 437.677 123.835 437.696 123.648C437.724 123.461 437.738 123.312 437.738 123.2V122.458ZM446.75 122.388C446.75 122.08 446.717 121.786 446.652 121.506C446.587 121.226 446.484 120.979 446.344 120.764C446.204 120.549 446.027 120.381 445.812 120.26C445.607 120.129 445.355 120.064 445.056 120.064C444.767 120.064 444.515 120.129 444.3 120.26C444.085 120.381 443.908 120.549 443.768 120.764C443.628 120.979 443.525 121.226 443.46 121.506C443.395 121.786 443.362 122.08 443.362 122.388C443.362 122.687 443.395 122.976 443.46 123.256C443.525 123.536 443.628 123.783 443.768 123.998C443.908 124.213 444.085 124.385 444.3 124.516C444.515 124.637 444.767 124.698 445.056 124.698C445.355 124.698 445.607 124.637 445.812 124.516C446.027 124.385 446.204 124.213 446.344 123.998C446.484 123.783 446.587 123.536 446.652 123.256C446.717 122.976 446.75 122.687 446.75 122.388ZM441.444 116.004H443.432V119.644H443.46C443.703 119.271 444.029 119 444.44 118.832C444.86 118.655 445.294 118.566 445.742 118.566C446.106 118.566 446.465 118.641 446.82 118.79C447.175 118.939 447.492 119.168 447.772 119.476C448.061 119.784 448.295 120.181 448.472 120.666C448.649 121.142 448.738 121.711 448.738 122.374C448.738 123.037 448.649 123.611 448.472 124.096C448.295 124.572 448.061 124.964 447.772 125.272C447.492 125.58 447.175 125.809 446.82 125.958C446.465 126.107 446.106 126.182 445.742 126.182C445.21 126.182 444.734 126.098 444.314 125.93C443.894 125.762 443.577 125.477 443.362 125.076H443.334V126H441.444V116.004ZM455.049 121.604C454.956 121.1 454.788 120.717 454.545 120.456C454.312 120.195 453.953 120.064 453.467 120.064C453.15 120.064 452.884 120.12 452.669 120.232C452.464 120.335 452.296 120.465 452.165 120.624C452.044 120.783 451.955 120.951 451.899 121.128C451.853 121.305 451.825 121.464 451.815 121.604H455.049ZM451.815 122.864C451.843 123.508 452.007 123.975 452.305 124.264C452.604 124.553 453.033 124.698 453.593 124.698C453.995 124.698 454.34 124.6 454.629 124.404C454.919 124.199 455.096 123.984 455.161 123.76H456.911C456.631 124.628 456.202 125.249 455.623 125.622C455.045 125.995 454.345 126.182 453.523 126.182C452.954 126.182 452.441 126.093 451.983 125.916C451.526 125.729 451.139 125.468 450.821 125.132C450.504 124.796 450.257 124.395 450.079 123.928C449.911 123.461 449.827 122.948 449.827 122.388C449.827 121.847 449.916 121.343 450.093 120.876C450.271 120.409 450.523 120.008 450.849 119.672C451.176 119.327 451.563 119.056 452.011 118.86C452.469 118.664 452.973 118.566 453.523 118.566C454.139 118.566 454.676 118.687 455.133 118.93C455.591 119.163 455.964 119.481 456.253 119.882C456.552 120.283 456.767 120.741 456.897 121.254C457.028 121.767 457.075 122.304 457.037 122.864H451.815ZM458.448 116.004H460.436V126H458.448V116.004Z" fill="black"/>
<path d="M137.568 208.5H135.984L133.376 198.9H133.344L130.704 208.5H129.12L126.192 197.076H127.744L129.984 206.58H130.016L132.576 197.076H134.224L136.752 206.58H136.784L139.104 197.076H140.624L137.568 208.5ZM148.571 208.468C148.336 208.607 148.011 208.676 147.595 208.676C147.243 208.676 146.96 208.58 146.747 208.388C146.544 208.185 146.443 207.86 146.443 207.412C146.069 207.86 145.632 208.185 145.131 208.388C144.64 208.58 144.107 208.676 143.531 208.676C143.157 208.676 142.8 208.633 142.459 208.548C142.128 208.463 141.84 208.329 141.595 208.148C141.349 207.967 141.152 207.732 141.003 207.444C140.864 207.145 140.795 206.788 140.795 206.372C140.795 205.903 140.875 205.519 141.035 205.22C141.195 204.921 141.403 204.681 141.659 204.5C141.925 204.308 142.224 204.164 142.555 204.068C142.896 203.972 143.243 203.892 143.595 203.828C143.968 203.753 144.32 203.7 144.651 203.668C144.992 203.625 145.291 203.572 145.547 203.508C145.803 203.433 146.005 203.332 146.155 203.204C146.304 203.065 146.379 202.868 146.379 202.612C146.379 202.313 146.32 202.073 146.203 201.892C146.096 201.711 145.952 201.572 145.771 201.476C145.6 201.38 145.403 201.316 145.179 201.284C144.965 201.252 144.752 201.236 144.539 201.236C143.963 201.236 143.483 201.348 143.099 201.572C142.715 201.785 142.507 202.196 142.475 202.804H141.115C141.136 202.292 141.243 201.86 141.435 201.508C141.627 201.156 141.883 200.873 142.203 200.66C142.523 200.436 142.885 200.276 143.291 200.18C143.707 200.084 144.149 200.036 144.619 200.036C144.992 200.036 145.36 200.063 145.723 200.116C146.096 200.169 146.432 200.281 146.731 200.452C147.029 200.612 147.269 200.841 147.451 201.14C147.632 201.439 147.723 201.828 147.723 202.308V206.564C147.723 206.884 147.739 207.119 147.771 207.268C147.813 207.417 147.941 207.492 148.155 207.492C148.272 207.492 148.411 207.465 148.571 207.412V208.468ZM146.363 204.228C146.192 204.356 145.968 204.452 145.691 204.516C145.413 204.569 145.12 204.617 144.811 204.66C144.512 204.692 144.208 204.735 143.899 204.788C143.589 204.831 143.312 204.905 143.067 205.012C142.821 205.119 142.619 205.273 142.459 205.476C142.309 205.668 142.235 205.935 142.235 206.276C142.235 206.5 142.277 206.692 142.363 206.852C142.459 207.001 142.576 207.124 142.715 207.22C142.864 207.316 143.035 207.385 143.227 207.428C143.419 207.471 143.621 207.492 143.835 207.492C144.283 207.492 144.667 207.433 144.987 207.316C145.307 207.188 145.568 207.033 145.771 206.852C145.973 206.66 146.123 206.457 146.219 206.244C146.315 206.02 146.363 205.812 146.363 205.62V204.228ZM149.789 200.228H151.069V201.972H151.101C151.431 201.3 151.837 200.804 152.317 200.484C152.797 200.164 153.405 200.015 154.141 200.036V201.476C153.597 201.476 153.133 201.551 152.749 201.7C152.365 201.849 152.055 202.068 151.821 202.356C151.586 202.644 151.415 202.996 151.309 203.412C151.202 203.817 151.149 204.287 151.149 204.82V208.5H149.789V200.228ZM155.446 200.228H156.726V201.54H156.758C157.323 200.537 158.219 200.036 159.446 200.036C159.99 200.036 160.443 200.111 160.806 200.26C161.169 200.409 161.462 200.617 161.686 200.884C161.91 201.151 162.065 201.471 162.15 201.844C162.246 202.207 162.294 202.612 162.294 203.06V208.5H160.934V202.9C160.934 202.388 160.785 201.983 160.486 201.684C160.187 201.385 159.777 201.236 159.254 201.236C158.838 201.236 158.475 201.3 158.166 201.428C157.867 201.556 157.617 201.737 157.414 201.972C157.211 202.207 157.057 202.484 156.95 202.804C156.854 203.113 156.806 203.455 156.806 203.828V208.5H155.446V200.228ZM165.777 198.74H164.417V197.076H165.777V198.74ZM164.417 200.228H165.777V208.5H164.417V200.228ZM167.883 200.228H169.163V201.54H169.195C169.761 200.537 170.657 200.036 171.883 200.036C172.427 200.036 172.881 200.111 173.243 200.26C173.606 200.409 173.899 200.617 174.123 200.884C174.347 201.151 174.502 201.471 174.587 201.844C174.683 202.207 174.731 202.612 174.731 203.06V208.5H173.371V202.9C173.371 202.388 173.222 201.983 172.923 201.684C172.625 201.385 172.214 201.236 171.691 201.236C171.275 201.236 170.913 201.3 170.603 201.428C170.305 201.556 170.054 201.737 169.851 201.972C169.649 202.207 169.494 202.484 169.387 202.804C169.291 203.113 169.243 203.455 169.243 203.828V208.5H167.883V200.228ZM183.91 207.796C183.91 209.151 183.601 210.164 182.982 210.836C182.363 211.508 181.393 211.844 180.07 211.844C179.686 211.844 179.291 211.801 178.886 211.716C178.491 211.631 178.129 211.492 177.798 211.3C177.478 211.108 177.211 210.857 176.998 210.548C176.785 210.239 176.667 209.86 176.646 209.412H178.006C178.017 209.657 178.091 209.865 178.23 210.036C178.379 210.207 178.555 210.345 178.758 210.452C178.971 210.559 179.201 210.633 179.446 210.676C179.691 210.729 179.926 210.756 180.15 210.756C180.598 210.756 180.977 210.676 181.286 210.516C181.595 210.367 181.851 210.153 182.054 209.876C182.257 209.609 182.401 209.284 182.486 208.9C182.582 208.516 182.63 208.095 182.63 207.636V207.092H182.598C182.363 207.604 182.006 207.983 181.526 208.228C181.057 208.463 180.555 208.58 180.022 208.58C179.403 208.58 178.865 208.468 178.406 208.244C177.947 208.02 177.563 207.721 177.254 207.348C176.945 206.964 176.71 206.521 176.55 206.02C176.401 205.508 176.326 204.969 176.326 204.404C176.326 203.913 176.39 203.412 176.518 202.9C176.646 202.377 176.859 201.908 177.158 201.492C177.457 201.065 177.851 200.719 178.342 200.452C178.833 200.175 179.435 200.036 180.15 200.036C180.673 200.036 181.153 200.153 181.59 200.388C182.027 200.612 182.369 200.953 182.614 201.412H182.63V200.228H183.91V207.796ZM180.102 207.396C180.55 207.396 180.929 207.305 181.238 207.124C181.558 206.932 181.814 206.687 182.006 206.388C182.198 206.079 182.337 205.732 182.422 205.348C182.518 204.964 182.566 204.58 182.566 204.196C182.566 203.833 182.523 203.476 182.438 203.124C182.353 202.772 182.214 202.457 182.022 202.18C181.841 201.892 181.601 201.663 181.302 201.492C181.003 201.321 180.641 201.236 180.214 201.236C179.777 201.236 179.403 201.321 179.094 201.492C178.785 201.652 178.529 201.871 178.326 202.148C178.134 202.425 177.99 202.745 177.894 203.108C177.809 203.471 177.766 203.849 177.766 204.244C177.766 204.617 177.803 204.991 177.878 205.364C177.953 205.737 178.081 206.079 178.262 206.388C178.443 206.687 178.683 206.932 178.982 207.124C179.281 207.305 179.654 207.396 180.102 207.396Z" fill="black" fill-opacity="0.68"/>
<path d="M302 203C302 194.163 309.163 187 318 187H364C372.837 187 380 194.163 380 203C380 211.837 372.837 219 364 219H318C309.163 219 302 211.837 302 203Z" fill="#FFD000"/>
<g clip-path="url(#clip0_72998_14538)">
<path d="M323.747 205.905L319.286 197.787C319.019 197.331 318.529 197.05 318 197.05C317.47 197.05 316.981 197.33 316.713 197.787L312.266 205.883L312.265 205.884L312.253 205.906C311.984 206.365 311.982 206.933 312.248 207.395C312.514 207.856 313.006 208.14 313.539 208.139H322.46C322.993 208.14 323.486 207.856 323.752 207.395C324.018 206.933 324.016 206.365 323.747 205.905ZM317.3 200.685C317.3 199.992 317.533 199.659 318 199.659C318.467 199.659 318.7 199.992 318.7 200.685V203.331C318.7 204.023 318.476 204.365 318 204.365C317.524 204.365 317.3 204.024 317.3 203.331V200.685ZM317.993 206.588C317.546 206.588 317.183 206.224 317.183 205.767C317.183 205.31 317.546 204.955 317.993 204.955C318.439 204.955 318.802 205.319 318.802 205.767C318.802 206.215 318.439 206.588 317.993 206.588Z" fill="black"/>
</g>
<path d="M330.966 198.004H333.164V206.152H338.036V208H330.966V198.004ZM339.146 202.988C339.174 202.521 339.29 202.134 339.496 201.826C339.701 201.518 339.962 201.271 340.28 201.084C340.597 200.897 340.952 200.767 341.344 200.692C341.745 200.608 342.146 200.566 342.548 200.566C342.912 200.566 343.28 200.594 343.654 200.65C344.027 200.697 344.368 200.795 344.676 200.944C344.984 201.093 345.236 201.303 345.432 201.574C345.628 201.835 345.726 202.185 345.726 202.624V206.39C345.726 206.717 345.744 207.029 345.782 207.328C345.819 207.627 345.884 207.851 345.978 208H343.962C343.924 207.888 343.892 207.776 343.864 207.664C343.845 207.543 343.831 207.421 343.822 207.3C343.504 207.627 343.131 207.855 342.702 207.986C342.272 208.117 341.834 208.182 341.386 208.182C341.04 208.182 340.718 208.14 340.42 208.056C340.121 207.972 339.86 207.841 339.636 207.664C339.412 207.487 339.234 207.263 339.104 206.992C338.982 206.721 338.922 206.399 338.922 206.026C338.922 205.615 338.992 205.279 339.132 205.018C339.281 204.747 339.468 204.533 339.692 204.374C339.925 204.215 340.186 204.099 340.476 204.024C340.774 203.94 341.073 203.875 341.372 203.828C341.67 203.781 341.964 203.744 342.254 203.716C342.543 203.688 342.8 203.646 343.024 203.59C343.248 203.534 343.425 203.455 343.556 203.352C343.686 203.24 343.747 203.081 343.738 202.876C343.738 202.661 343.7 202.493 343.626 202.372C343.56 202.241 343.467 202.143 343.346 202.078C343.234 202.003 343.098 201.957 342.94 201.938C342.79 201.91 342.627 201.896 342.45 201.896C342.058 201.896 341.75 201.98 341.526 202.148C341.302 202.316 341.171 202.596 341.134 202.988H339.146ZM343.738 204.458C343.654 204.533 343.546 204.593 343.416 204.64C343.294 204.677 343.159 204.71 343.01 204.738C342.87 204.766 342.72 204.789 342.562 204.808C342.403 204.827 342.244 204.85 342.086 204.878C341.936 204.906 341.787 204.943 341.638 204.99C341.498 205.037 341.372 205.102 341.26 205.186C341.157 205.261 341.073 205.359 341.008 205.48C340.942 205.601 340.91 205.755 340.91 205.942C340.91 206.119 340.942 206.269 341.008 206.39C341.073 206.511 341.162 206.609 341.274 206.684C341.386 206.749 341.516 206.796 341.666 206.824C341.815 206.852 341.969 206.866 342.128 206.866C342.52 206.866 342.823 206.801 343.038 206.67C343.252 206.539 343.411 206.385 343.514 206.208C343.616 206.021 343.677 205.835 343.696 205.648C343.724 205.461 343.738 205.312 343.738 205.2V204.458ZM352.75 204.388C352.75 204.08 352.717 203.786 352.652 203.506C352.587 203.226 352.484 202.979 352.344 202.764C352.204 202.549 352.027 202.381 351.812 202.26C351.607 202.129 351.355 202.064 351.056 202.064C350.767 202.064 350.515 202.129 350.3 202.26C350.085 202.381 349.908 202.549 349.768 202.764C349.628 202.979 349.525 203.226 349.46 203.506C349.395 203.786 349.362 204.08 349.362 204.388C349.362 204.687 349.395 204.976 349.46 205.256C349.525 205.536 349.628 205.783 349.768 205.998C349.908 206.213 350.085 206.385 350.3 206.516C350.515 206.637 350.767 206.698 351.056 206.698C351.355 206.698 351.607 206.637 351.812 206.516C352.027 206.385 352.204 206.213 352.344 205.998C352.484 205.783 352.587 205.536 352.652 205.256C352.717 204.976 352.75 204.687 352.75 204.388ZM347.444 198.004H349.432V201.644H349.46C349.703 201.271 350.029 201 350.44 200.832C350.86 200.655 351.294 200.566 351.742 200.566C352.106 200.566 352.465 200.641 352.82 200.79C353.175 200.939 353.492 201.168 353.772 201.476C354.061 201.784 354.295 202.181 354.472 202.666C354.649 203.142 354.738 203.711 354.738 204.374C354.738 205.037 354.649 205.611 354.472 206.096C354.295 206.572 354.061 206.964 353.772 207.272C353.492 207.58 353.175 207.809 352.82 207.958C352.465 208.107 352.106 208.182 351.742 208.182C351.21 208.182 350.734 208.098 350.314 207.93C349.894 207.762 349.577 207.477 349.362 207.076H349.334V208H347.444V198.004ZM361.049 203.604C360.956 203.1 360.788 202.717 360.545 202.456C360.312 202.195 359.953 202.064 359.467 202.064C359.15 202.064 358.884 202.12 358.669 202.232C358.464 202.335 358.296 202.465 358.165 202.624C358.044 202.783 357.955 202.951 357.899 203.128C357.853 203.305 357.825 203.464 357.815 203.604H361.049ZM357.815 204.864C357.843 205.508 358.007 205.975 358.305 206.264C358.604 206.553 359.033 206.698 359.593 206.698C359.995 206.698 360.34 206.6 360.629 206.404C360.919 206.199 361.096 205.984 361.161 205.76H362.911C362.631 206.628 362.202 207.249 361.623 207.622C361.045 207.995 360.345 208.182 359.523 208.182C358.954 208.182 358.441 208.093 357.983 207.916C357.526 207.729 357.139 207.468 356.821 207.132C356.504 206.796 356.257 206.395 356.079 205.928C355.911 205.461 355.827 204.948 355.827 204.388C355.827 203.847 355.916 203.343 356.093 202.876C356.271 202.409 356.523 202.008 356.849 201.672C357.176 201.327 357.563 201.056 358.011 200.86C358.469 200.664 358.973 200.566 359.523 200.566C360.139 200.566 360.676 200.687 361.133 200.93C361.591 201.163 361.964 201.481 362.253 201.882C362.552 202.283 362.767 202.741 362.897 203.254C363.028 203.767 363.075 204.304 363.037 204.864H357.815ZM364.448 198.004H366.436V208H364.448V198.004Z" fill="black"/>
<path d="M396 203C396 194.163 403.163 187 412 187H458C466.837 187 474 194.163 474 203C474 211.837 466.837 219 458 219H412C403.163 219 396 211.837 396 203Z" fill="#FFD000" fill-opacity="0.16"/>
<g clip-path="url(#clip1_72998_14538)">
<path d="M411.3 200.685C411.3 199.992 411.533 199.659 412 199.659C412.467 199.659 412.7 199.992 412.7 200.685V203.331C412.7 204.023 412.476 204.365 412 204.365C411.524 204.365 411.3 204.024 411.3 203.331V200.685ZM411.993 206.588C411.546 206.588 411.183 206.224 411.183 205.767C411.183 205.309 411.546 204.955 411.993 204.955C412.439 204.955 412.802 205.319 412.802 205.767C412.802 206.215 412.439 206.588 411.993 206.588Z" fill="#856A00"/>
<path d="M417.747 205.905L413.286 197.787C413.019 197.331 412.529 197.05 412 197.05C411.47 197.05 410.981 197.33 410.713 197.787L406.266 205.883L406.265 205.884L406.253 205.906C405.984 206.365 405.982 206.933 406.248 207.395C406.514 207.856 407.006 208.14 407.539 208.139H416.46C416.993 208.14 417.486 207.856 417.752 207.395C418.018 206.933 418.016 206.365 417.747 205.905ZM411.3 200.685C411.3 199.992 411.533 199.659 412 199.659C412.467 199.659 412.7 199.992 412.7 200.685V203.331C412.7 204.023 412.476 204.365 412 204.365C411.524 204.365 411.3 204.024 411.3 203.331V200.685ZM411.993 206.588C411.546 206.588 411.183 206.224 411.183 205.767C411.183 205.31 411.546 204.955 411.993 204.955C412.439 204.955 412.802 205.319 412.802 205.767C412.802 206.215 412.439 206.588 411.993 206.588Z" fill="#FFD000"/>
</g>
<path d="M424.966 198.004H427.164V206.152H432.036V208H424.966V198.004ZM433.146 202.988C433.174 202.521 433.29 202.134 433.496 201.826C433.701 201.518 433.962 201.271 434.28 201.084C434.597 200.897 434.952 200.767 435.344 200.692C435.745 200.608 436.146 200.566 436.548 200.566C436.912 200.566 437.28 200.594 437.654 200.65C438.027 200.697 438.368 200.795 438.676 200.944C438.984 201.093 439.236 201.303 439.432 201.574C439.628 201.835 439.726 202.185 439.726 202.624V206.39C439.726 206.717 439.744 207.029 439.782 207.328C439.819 207.627 439.884 207.851 439.978 208H437.962C437.924 207.888 437.892 207.776 437.864 207.664C437.845 207.543 437.831 207.421 437.822 207.3C437.504 207.627 437.131 207.855 436.702 207.986C436.272 208.117 435.834 208.182 435.386 208.182C435.04 208.182 434.718 208.14 434.42 208.056C434.121 207.972 433.86 207.841 433.636 207.664C433.412 207.487 433.234 207.263 433.104 206.992C432.982 206.721 432.922 206.399 432.922 206.026C432.922 205.615 432.992 205.279 433.132 205.018C433.281 204.747 433.468 204.533 433.692 204.374C433.925 204.215 434.186 204.099 434.476 204.024C434.774 203.94 435.073 203.875 435.372 203.828C435.67 203.781 435.964 203.744 436.254 203.716C436.543 203.688 436.8 203.646 437.024 203.59C437.248 203.534 437.425 203.455 437.556 203.352C437.686 203.24 437.747 203.081 437.738 202.876C437.738 202.661 437.7 202.493 437.626 202.372C437.56 202.241 437.467 202.143 437.346 202.078C437.234 202.003 437.098 201.957 436.94 201.938C436.79 201.91 436.627 201.896 436.45 201.896C436.058 201.896 435.75 201.98 435.526 202.148C435.302 202.316 435.171 202.596 435.134 202.988H433.146ZM437.738 204.458C437.654 204.533 437.546 204.593 437.416 204.64C437.294 204.677 437.159 204.71 437.01 204.738C436.87 204.766 436.72 204.789 436.562 204.808C436.403 204.827 436.244 204.85 436.086 204.878C435.936 204.906 435.787 204.943 435.638 204.99C435.498 205.037 435.372 205.102 435.26 205.186C435.157 205.261 435.073 205.359 435.008 205.48C434.942 205.601 434.91 205.755 434.91 205.942C434.91 206.119 434.942 206.269 435.008 206.39C435.073 206.511 435.162 206.609 435.274 206.684C435.386 206.749 435.516 206.796 435.666 206.824C435.815 206.852 435.969 206.866 436.128 206.866C436.52 206.866 436.823 206.801 437.038 206.67C437.252 206.539 437.411 206.385 437.514 206.208C437.616 206.021 437.677 205.835 437.696 205.648C437.724 205.461 437.738 205.312 437.738 205.2V204.458ZM446.75 204.388C446.75 204.08 446.717 203.786 446.652 203.506C446.587 203.226 446.484 202.979 446.344 202.764C446.204 202.549 446.027 202.381 445.812 202.26C445.607 202.129 445.355 202.064 445.056 202.064C444.767 202.064 444.515 202.129 444.3 202.26C444.085 202.381 443.908 202.549 443.768 202.764C443.628 202.979 443.525 203.226 443.46 203.506C443.395 203.786 443.362 204.08 443.362 204.388C443.362 204.687 443.395 204.976 443.46 205.256C443.525 205.536 443.628 205.783 443.768 205.998C443.908 206.213 444.085 206.385 444.3 206.516C444.515 206.637 444.767 206.698 445.056 206.698C445.355 206.698 445.607 206.637 445.812 206.516C446.027 206.385 446.204 206.213 446.344 205.998C446.484 205.783 446.587 205.536 446.652 205.256C446.717 204.976 446.75 204.687 446.75 204.388ZM441.444 198.004H443.432V201.644H443.46C443.703 201.271 444.029 201 444.44 200.832C444.86 200.655 445.294 200.566 445.742 200.566C446.106 200.566 446.465 200.641 446.82 200.79C447.175 200.939 447.492 201.168 447.772 201.476C448.061 201.784 448.295 202.181 448.472 202.666C448.649 203.142 448.738 203.711 448.738 204.374C448.738 205.037 448.649 205.611 448.472 206.096C448.295 206.572 448.061 206.964 447.772 207.272C447.492 207.58 447.175 207.809 446.82 207.958C446.465 208.107 446.106 208.182 445.742 208.182C445.21 208.182 444.734 208.098 444.314 207.93C443.894 207.762 443.577 207.477 443.362 207.076H443.334V208H441.444V198.004ZM455.049 203.604C454.956 203.1 454.788 202.717 454.545 202.456C454.312 202.195 453.953 202.064 453.467 202.064C453.15 202.064 452.884 202.12 452.669 202.232C452.464 202.335 452.296 202.465 452.165 202.624C452.044 202.783 451.955 202.951 451.899 203.128C451.853 203.305 451.825 203.464 451.815 203.604H455.049ZM451.815 204.864C451.843 205.508 452.007 205.975 452.305 206.264C452.604 206.553 453.033 206.698 453.593 206.698C453.995 206.698 454.34 206.6 454.629 206.404C454.919 206.199 455.096 205.984 455.161 205.76H456.911C456.631 206.628 456.202 207.249 455.623 207.622C455.045 207.995 454.345 208.182 453.523 208.182C452.954 208.182 452.441 208.093 451.983 207.916C451.526 207.729 451.139 207.468 450.821 207.132C450.504 206.796 450.257 206.395 450.079 205.928C449.911 205.461 449.827 204.948 449.827 204.388C449.827 203.847 449.916 203.343 450.093 202.876C450.271 202.409 450.523 202.008 450.849 201.672C451.176 201.327 451.563 201.056 452.011 200.86C452.469 200.664 452.973 200.566 453.523 200.566C454.139 200.566 454.676 200.687 455.133 200.93C455.591 201.163 455.964 201.481 456.253 201.882C456.552 202.283 456.767 202.741 456.897 203.254C457.028 203.767 457.075 204.304 457.037 204.864H451.815ZM458.448 198.004H460.436V208H458.448V198.004Z" fill="black"/>
<path d="M127.232 279.076H128.848L134.864 288.34H134.896V279.076H136.336V290.5H134.672L128.704 281.332H128.672V290.5H127.232V279.076ZM144.315 285.572C144.294 285.252 144.219 284.948 144.091 284.66C143.974 284.372 143.808 284.127 143.595 283.924C143.392 283.711 143.147 283.545 142.859 283.428C142.582 283.3 142.272 283.236 141.931 283.236C141.579 283.236 141.259 283.3 140.971 283.428C140.694 283.545 140.454 283.711 140.251 283.924C140.048 284.137 139.888 284.388 139.771 284.676C139.654 284.953 139.584 285.252 139.563 285.572H144.315ZM145.627 287.876C145.446 288.804 145.046 289.503 144.427 289.972C143.808 290.441 143.03 290.676 142.091 290.676C141.43 290.676 140.854 290.569 140.363 290.356C139.883 290.143 139.478 289.844 139.147 289.46C138.816 289.076 138.566 288.617 138.395 288.084C138.235 287.551 138.144 286.969 138.123 286.34C138.123 285.711 138.219 285.135 138.411 284.612C138.603 284.089 138.87 283.636 139.211 283.252C139.563 282.868 139.974 282.569 140.443 282.356C140.923 282.143 141.446 282.036 142.011 282.036C142.747 282.036 143.355 282.191 143.835 282.5C144.326 282.799 144.715 283.183 145.003 283.652C145.302 284.121 145.504 284.633 145.611 285.188C145.728 285.743 145.776 286.271 145.755 286.772H139.563C139.552 287.135 139.595 287.481 139.691 287.812C139.787 288.132 139.942 288.42 140.155 288.676C140.368 288.921 140.64 289.119 140.971 289.268C141.302 289.417 141.691 289.492 142.139 289.492C142.715 289.492 143.184 289.359 143.547 289.092C143.92 288.825 144.166 288.42 144.283 287.876H145.627ZM154.301 289.796C154.301 291.151 153.991 292.164 153.373 292.836C152.754 293.508 151.783 293.844 150.461 293.844C150.077 293.844 149.682 293.801 149.277 293.716C148.882 293.631 148.519 293.492 148.189 293.3C147.869 293.108 147.602 292.857 147.389 292.548C147.175 292.239 147.058 291.86 147.037 291.412H148.397C148.407 291.657 148.482 291.865 148.621 292.036C148.77 292.207 148.946 292.345 149.149 292.452C149.362 292.559 149.591 292.633 149.837 292.676C150.082 292.729 150.317 292.756 150.541 292.756C150.989 292.756 151.367 292.676 151.677 292.516C151.986 292.367 152.242 292.153 152.445 291.876C152.647 291.609 152.791 291.284 152.877 290.9C152.973 290.516 153.021 290.095 153.021 289.636V289.092H152.989C152.754 289.604 152.397 289.983 151.917 290.228C151.447 290.463 150.946 290.58 150.413 290.58C149.794 290.58 149.255 290.468 148.797 290.244C148.338 290.02 147.954 289.721 147.645 289.348C147.335 288.964 147.101 288.521 146.941 288.02C146.791 287.508 146.717 286.969 146.717 286.404C146.717 285.913 146.781 285.412 146.909 284.9C147.037 284.377 147.25 283.908 147.549 283.492C147.847 283.065 148.242 282.719 148.733 282.452C149.223 282.175 149.826 282.036 150.541 282.036C151.063 282.036 151.543 282.153 151.981 282.388C152.418 282.612 152.759 282.953 153.005 283.412H153.021V282.228H154.301V289.796ZM150.493 289.396C150.941 289.396 151.319 289.305 151.629 289.124C151.949 288.932 152.205 288.687 152.397 288.388C152.589 288.079 152.727 287.732 152.813 287.348C152.909 286.964 152.957 286.58 152.957 286.196C152.957 285.833 152.914 285.476 152.829 285.124C152.743 284.772 152.605 284.457 152.413 284.18C152.231 283.892 151.991 283.663 151.693 283.492C151.394 283.321 151.031 283.236 150.605 283.236C150.167 283.236 149.794 283.321 149.485 283.492C149.175 283.652 148.919 283.871 148.717 284.148C148.525 284.425 148.381 284.745 148.285 285.108C148.199 285.471 148.157 285.849 148.157 286.244C148.157 286.617 148.194 286.991 148.269 287.364C148.343 287.737 148.471 288.079 148.653 288.388C148.834 288.687 149.074 288.932 149.373 289.124C149.671 289.305 150.045 289.396 150.493 289.396ZM163.68 290.468C163.445 290.607 163.12 290.676 162.704 290.676C162.352 290.676 162.069 290.58 161.856 290.388C161.653 290.185 161.552 289.86 161.552 289.412C161.179 289.86 160.741 290.185 160.24 290.388C159.749 290.58 159.216 290.676 158.64 290.676C158.267 290.676 157.909 290.633 157.568 290.548C157.237 290.463 156.949 290.329 156.704 290.148C156.459 289.967 156.261 289.732 156.112 289.444C155.973 289.145 155.904 288.788 155.904 288.372C155.904 287.903 155.984 287.519 156.144 287.22C156.304 286.921 156.512 286.681 156.768 286.5C157.035 286.308 157.333 286.164 157.664 286.068C158.005 285.972 158.352 285.892 158.704 285.828C159.077 285.753 159.429 285.7 159.76 285.668C160.101 285.625 160.4 285.572 160.656 285.508C160.912 285.433 161.115 285.332 161.264 285.204C161.413 285.065 161.488 284.868 161.488 284.612C161.488 284.313 161.429 284.073 161.312 283.892C161.205 283.711 161.061 283.572 160.88 283.476C160.709 283.38 160.512 283.316 160.288 283.284C160.075 283.252 159.861 283.236 159.648 283.236C159.072 283.236 158.592 283.348 158.208 283.572C157.824 283.785 157.616 284.196 157.584 284.804H156.224C156.245 284.292 156.352 283.86 156.544 283.508C156.736 283.156 156.992 282.873 157.312 282.66C157.632 282.436 157.995 282.276 158.4 282.18C158.816 282.084 159.259 282.036 159.728 282.036C160.101 282.036 160.469 282.063 160.832 282.116C161.205 282.169 161.541 282.281 161.84 282.452C162.139 282.612 162.379 282.841 162.56 283.14C162.741 283.439 162.832 283.828 162.832 284.308V288.564C162.832 288.884 162.848 289.119 162.88 289.268C162.923 289.417 163.051 289.492 163.264 289.492C163.381 289.492 163.52 289.465 163.68 289.412V290.468ZM161.472 286.228C161.301 286.356 161.077 286.452 160.8 286.516C160.523 286.569 160.229 286.617 159.92 286.66C159.621 286.692 159.317 286.735 159.008 286.788C158.699 286.831 158.421 286.905 158.176 287.012C157.931 287.119 157.728 287.273 157.568 287.476C157.419 287.668 157.344 287.935 157.344 288.276C157.344 288.5 157.387 288.692 157.472 288.852C157.568 289.001 157.685 289.124 157.824 289.22C157.973 289.316 158.144 289.385 158.336 289.428C158.528 289.471 158.731 289.492 158.944 289.492C159.392 289.492 159.776 289.433 160.096 289.316C160.416 289.188 160.677 289.033 160.88 288.852C161.083 288.66 161.232 288.457 161.328 288.244C161.424 288.02 161.472 287.812 161.472 287.62V286.228ZM166.834 282.228H168.482V283.428H166.834V288.564C166.834 288.724 166.845 288.852 166.866 288.948C166.898 289.044 166.951 289.119 167.026 289.172C167.101 289.225 167.202 289.263 167.33 289.284C167.469 289.295 167.645 289.3 167.858 289.3H168.482V290.5H167.442C167.09 290.5 166.786 290.479 166.53 290.436C166.285 290.383 166.082 290.292 165.922 290.164C165.773 290.036 165.661 289.855 165.586 289.62C165.511 289.385 165.474 289.076 165.474 288.692V283.428H164.066V282.228H165.474V279.748H166.834V282.228ZM171.433 280.74H170.073V279.076H171.433V280.74ZM170.073 282.228H171.433V290.5H170.073V282.228ZM177.268 290.5H175.812L172.74 282.228H174.26L176.58 289.124H176.612L178.868 282.228H180.292L177.268 290.5ZM187.284 285.572C187.262 285.252 187.188 284.948 187.06 284.66C186.942 284.372 186.777 284.127 186.564 283.924C186.361 283.711 186.116 283.545 185.828 283.428C185.55 283.3 185.241 283.236 184.9 283.236C184.548 283.236 184.228 283.3 183.94 283.428C183.662 283.545 183.422 283.711 183.22 283.924C183.017 284.137 182.857 284.388 182.74 284.676C182.622 284.953 182.553 285.252 182.532 285.572H187.284ZM188.596 287.876C188.414 288.804 188.014 289.503 187.396 289.972C186.777 290.441 185.998 290.676 185.06 290.676C184.398 290.676 183.822 290.569 183.332 290.356C182.852 290.143 182.446 289.844 182.116 289.46C181.785 289.076 181.534 288.617 181.364 288.084C181.204 287.551 181.113 286.969 181.092 286.34C181.092 285.711 181.188 285.135 181.38 284.612C181.572 284.089 181.838 283.636 182.18 283.252C182.532 282.868 182.942 282.569 183.412 282.356C183.892 282.143 184.414 282.036 184.98 282.036C185.716 282.036 186.324 282.191 186.804 282.5C187.294 282.799 187.684 283.183 187.972 283.652C188.27 284.121 188.473 284.633 188.58 285.188C188.697 285.743 188.745 286.271 188.724 286.772H182.532C182.521 287.135 182.564 287.481 182.66 287.812C182.756 288.132 182.91 288.42 183.124 288.676C183.337 288.921 183.609 289.119 183.94 289.268C184.27 289.417 184.66 289.492 185.108 289.492C185.684 289.492 186.153 289.359 186.516 289.092C186.889 288.825 187.134 288.42 187.252 287.876H188.596Z" fill="black" fill-opacity="0.68"/>
<path d="M302 285C302 276.163 309.163 269 318 269H364C372.837 269 380 276.163 380 285C380 293.837 372.837 301 364 301H318C309.163 301 302 293.837 302 285Z" fill="#DB0002"/>
<path d="M318 279.4C314.907 279.4 312.4 281.907 312.4 285C312.4 288.093 314.907 290.6 318 290.6C321.093 290.6 323.6 288.093 323.6 285C323.6 281.907 321.093 279.4 318 279.4ZM317.3 282.685C317.3 281.992 317.533 281.659 318 281.659C318.467 281.659 318.7 281.992 318.7 282.685V285.33C318.7 286.023 318.476 286.365 318 286.365C317.533 286.365 317.3 286.023 317.3 285.33V282.685ZM317.993 288.587C317.546 288.587 317.183 288.224 317.183 287.767C317.183 287.309 317.546 286.955 317.993 286.955C318.439 286.955 318.802 287.319 318.802 287.767C318.802 288.214 318.439 288.587 317.993 288.587Z" fill="white"/>
<path d="M330.966 280.004H333.164V288.152H338.036V290H330.966V280.004ZM339.146 284.988C339.174 284.521 339.29 284.134 339.496 283.826C339.701 283.518 339.962 283.271 340.28 283.084C340.597 282.897 340.952 282.767 341.344 282.692C341.745 282.608 342.146 282.566 342.548 282.566C342.912 282.566 343.28 282.594 343.654 282.65C344.027 282.697 344.368 282.795 344.676 282.944C344.984 283.093 345.236 283.303 345.432 283.574C345.628 283.835 345.726 284.185 345.726 284.624V288.39C345.726 288.717 345.744 289.029 345.782 289.328C345.819 289.627 345.884 289.851 345.978 290H343.962C343.924 289.888 343.892 289.776 343.864 289.664C343.845 289.543 343.831 289.421 343.822 289.3C343.504 289.627 343.131 289.855 342.702 289.986C342.272 290.117 341.834 290.182 341.386 290.182C341.04 290.182 340.718 290.14 340.42 290.056C340.121 289.972 339.86 289.841 339.636 289.664C339.412 289.487 339.234 289.263 339.104 288.992C338.982 288.721 338.922 288.399 338.922 288.026C338.922 287.615 338.992 287.279 339.132 287.018C339.281 286.747 339.468 286.533 339.692 286.374C339.925 286.215 340.186 286.099 340.476 286.024C340.774 285.94 341.073 285.875 341.372 285.828C341.67 285.781 341.964 285.744 342.254 285.716C342.543 285.688 342.8 285.646 343.024 285.59C343.248 285.534 343.425 285.455 343.556 285.352C343.686 285.24 343.747 285.081 343.738 284.876C343.738 284.661 343.7 284.493 343.626 284.372C343.56 284.241 343.467 284.143 343.346 284.078C343.234 284.003 343.098 283.957 342.94 283.938C342.79 283.91 342.627 283.896 342.45 283.896C342.058 283.896 341.75 283.98 341.526 284.148C341.302 284.316 341.171 284.596 341.134 284.988H339.146ZM343.738 286.458C343.654 286.533 343.546 286.593 343.416 286.64C343.294 286.677 343.159 286.71 343.01 286.738C342.87 286.766 342.72 286.789 342.562 286.808C342.403 286.827 342.244 286.85 342.086 286.878C341.936 286.906 341.787 286.943 341.638 286.99C341.498 287.037 341.372 287.102 341.26 287.186C341.157 287.261 341.073 287.359 341.008 287.48C340.942 287.601 340.91 287.755 340.91 287.942C340.91 288.119 340.942 288.269 341.008 288.39C341.073 288.511 341.162 288.609 341.274 288.684C341.386 288.749 341.516 288.796 341.666 288.824C341.815 288.852 341.969 288.866 342.128 288.866C342.52 288.866 342.823 288.801 343.038 288.67C343.252 288.539 343.411 288.385 343.514 288.208C343.616 288.021 343.677 287.835 343.696 287.648C343.724 287.461 343.738 287.312 343.738 287.2V286.458ZM352.75 286.388C352.75 286.08 352.717 285.786 352.652 285.506C352.587 285.226 352.484 284.979 352.344 284.764C352.204 284.549 352.027 284.381 351.812 284.26C351.607 284.129 351.355 284.064 351.056 284.064C350.767 284.064 350.515 284.129 350.3 284.26C350.085 284.381 349.908 284.549 349.768 284.764C349.628 284.979 349.525 285.226 349.46 285.506C349.395 285.786 349.362 286.08 349.362 286.388C349.362 286.687 349.395 286.976 349.46 287.256C349.525 287.536 349.628 287.783 349.768 287.998C349.908 288.213 350.085 288.385 350.3 288.516C350.515 288.637 350.767 288.698 351.056 288.698C351.355 288.698 351.607 288.637 351.812 288.516C352.027 288.385 352.204 288.213 352.344 287.998C352.484 287.783 352.587 287.536 352.652 287.256C352.717 286.976 352.75 286.687 352.75 286.388ZM347.444 280.004H349.432V283.644H349.46C349.703 283.271 350.029 283 350.44 282.832C350.86 282.655 351.294 282.566 351.742 282.566C352.106 282.566 352.465 282.641 352.82 282.79C353.175 282.939 353.492 283.168 353.772 283.476C354.061 283.784 354.295 284.181 354.472 284.666C354.649 285.142 354.738 285.711 354.738 286.374C354.738 287.037 354.649 287.611 354.472 288.096C354.295 288.572 354.061 288.964 353.772 289.272C353.492 289.58 353.175 289.809 352.82 289.958C352.465 290.107 352.106 290.182 351.742 290.182C351.21 290.182 350.734 290.098 350.314 289.93C349.894 289.762 349.577 289.477 349.362 289.076H349.334V290H347.444V280.004ZM361.049 285.604C360.956 285.1 360.788 284.717 360.545 284.456C360.312 284.195 359.953 284.064 359.467 284.064C359.15 284.064 358.884 284.12 358.669 284.232C358.464 284.335 358.296 284.465 358.165 284.624C358.044 284.783 357.955 284.951 357.899 285.128C357.853 285.305 357.825 285.464 357.815 285.604H361.049ZM357.815 286.864C357.843 287.508 358.007 287.975 358.305 288.264C358.604 288.553 359.033 288.698 359.593 288.698C359.995 288.698 360.34 288.6 360.629 288.404C360.919 288.199 361.096 287.984 361.161 287.76H362.911C362.631 288.628 362.202 289.249 361.623 289.622C361.045 289.995 360.345 290.182 359.523 290.182C358.954 290.182 358.441 290.093 357.983 289.916C357.526 289.729 357.139 289.468 356.821 289.132C356.504 288.796 356.257 288.395 356.079 287.928C355.911 287.461 355.827 286.948 355.827 286.388C355.827 285.847 355.916 285.343 356.093 284.876C356.271 284.409 356.523 284.008 356.849 283.672C357.176 283.327 357.563 283.056 358.011 282.86C358.469 282.664 358.973 282.566 359.523 282.566C360.139 282.566 360.676 282.687 361.133 282.93C361.591 283.163 361.964 283.481 362.253 283.882C362.552 284.283 362.767 284.741 362.897 285.254C363.028 285.767 363.075 286.304 363.037 286.864H357.815ZM364.448 280.004H366.436V290H364.448V280.004Z" fill="white"/>
<path d="M396 285C396 276.163 403.163 269 412 269H458C466.837 269 474 276.163 474 285C474 293.837 466.837 301 458 301H412C403.163 301 396 293.837 396 285Z" fill="#DB0002" fill-opacity="0.08"/>
<path d="M412 279.4C408.907 279.4 406.4 281.907 406.4 285C406.4 288.093 408.907 290.6 412 290.6C415.093 290.6 417.6 288.093 417.6 285C417.6 281.907 415.093 279.4 412 279.4ZM411.3 282.685C411.3 281.992 411.533 281.659 412 281.659C412.467 281.659 412.7 281.992 412.7 282.685V285.33C412.7 286.023 412.476 286.365 412 286.365C411.533 286.365 411.3 286.023 411.3 285.33V282.685ZM411.993 288.587C411.546 288.587 411.183 288.224 411.183 287.767C411.183 287.309 411.546 286.955 411.993 286.955C412.439 286.955 412.802 287.319 412.802 287.767C412.802 288.214 412.439 288.587 411.993 288.587Z" fill="#DB0002"/>
<path d="M424.966 280.004H427.164V288.152H432.036V290H424.966V280.004ZM433.146 284.988C433.174 284.521 433.29 284.134 433.496 283.826C433.701 283.518 433.962 283.271 434.28 283.084C434.597 282.897 434.952 282.767 435.344 282.692C435.745 282.608 436.146 282.566 436.548 282.566C436.912 282.566 437.28 282.594 437.654 282.65C438.027 282.697 438.368 282.795 438.676 282.944C438.984 283.093 439.236 283.303 439.432 283.574C439.628 283.835 439.726 284.185 439.726 284.624V288.39C439.726 288.717 439.744 289.029 439.782 289.328C439.819 289.627 439.884 289.851 439.978 290H437.962C437.924 289.888 437.892 289.776 437.864 289.664C437.845 289.543 437.831 289.421 437.822 289.3C437.504 289.627 437.131 289.855 436.702 289.986C436.272 290.117 435.834 290.182 435.386 290.182C435.04 290.182 434.718 290.14 434.42 290.056C434.121 289.972 433.86 289.841 433.636 289.664C433.412 289.487 433.234 289.263 433.104 288.992C432.982 288.721 432.922 288.399 432.922 288.026C432.922 287.615 432.992 287.279 433.132 287.018C433.281 286.747 433.468 286.533 433.692 286.374C433.925 286.215 434.186 286.099 434.476 286.024C434.774 285.94 435.073 285.875 435.372 285.828C435.67 285.781 435.964 285.744 436.254 285.716C436.543 285.688 436.8 285.646 437.024 285.59C437.248 285.534 437.425 285.455 437.556 285.352C437.686 285.24 437.747 285.081 437.738 284.876C437.738 284.661 437.7 284.493 437.626 284.372C437.56 284.241 437.467 284.143 437.346 284.078C437.234 284.003 437.098 283.957 436.94 283.938C436.79 283.91 436.627 283.896 436.45 283.896C436.058 283.896 435.75 283.98 435.526 284.148C435.302 284.316 435.171 284.596 435.134 284.988H433.146ZM437.738 286.458C437.654 286.533 437.546 286.593 437.416 286.64C437.294 286.677 437.159 286.71 437.01 286.738C436.87 286.766 436.72 286.789 436.562 286.808C436.403 286.827 436.244 286.85 436.086 286.878C435.936 286.906 435.787 286.943 435.638 286.99C435.498 287.037 435.372 287.102 435.26 287.186C435.157 287.261 435.073 287.359 435.008 287.48C434.942 287.601 434.91 287.755 434.91 287.942C434.91 288.119 434.942 288.269 435.008 288.39C435.073 288.511 435.162 288.609 435.274 288.684C435.386 288.749 435.516 288.796 435.666 288.824C435.815 288.852 435.969 288.866 436.128 288.866C436.52 288.866 436.823 288.801 437.038 288.67C437.252 288.539 437.411 288.385 437.514 288.208C437.616 288.021 437.677 287.835 437.696 287.648C437.724 287.461 437.738 287.312 437.738 287.2V286.458ZM446.75 286.388C446.75 286.08 446.717 285.786 446.652 285.506C446.587 285.226 446.484 284.979 446.344 284.764C446.204 284.549 446.027 284.381 445.812 284.26C445.607 284.129 445.355 284.064 445.056 284.064C444.767 284.064 444.515 284.129 444.3 284.26C444.085 284.381 443.908 284.549 443.768 284.764C443.628 284.979 443.525 285.226 443.46 285.506C443.395 285.786 443.362 286.08 443.362 286.388C443.362 286.687 443.395 286.976 443.46 287.256C443.525 287.536 443.628 287.783 443.768 287.998C443.908 288.213 444.085 288.385 444.3 288.516C444.515 288.637 444.767 288.698 445.056 288.698C445.355 288.698 445.607 288.637 445.812 288.516C446.027 288.385 446.204 288.213 446.344 287.998C446.484 287.783 446.587 287.536 446.652 287.256C446.717 286.976 446.75 286.687 446.75 286.388ZM441.444 280.004H443.432V283.644H443.46C443.703 283.271 444.029 283 444.44 282.832C444.86 282.655 445.294 282.566 445.742 282.566C446.106 282.566 446.465 282.641 446.82 282.79C447.175 282.939 447.492 283.168 447.772 283.476C448.061 283.784 448.295 284.181 448.472 284.666C448.649 285.142 448.738 285.711 448.738 286.374C448.738 287.037 448.649 287.611 448.472 288.096C448.295 288.572 448.061 288.964 447.772 289.272C447.492 289.58 447.175 289.809 446.82 289.958C446.465 290.107 446.106 290.182 445.742 290.182C445.21 290.182 444.734 290.098 444.314 289.93C443.894 289.762 443.577 289.477 443.362 289.076H443.334V290H441.444V280.004ZM455.049 285.604C454.956 285.1 454.788 284.717 454.545 284.456C454.312 284.195 453.953 284.064 453.467 284.064C453.15 284.064 452.884 284.12 452.669 284.232C452.464 284.335 452.296 284.465 452.165 284.624C452.044 284.783 451.955 284.951 451.899 285.128C451.853 285.305 451.825 285.464 451.815 285.604H455.049ZM451.815 286.864C451.843 287.508 452.007 287.975 452.305 288.264C452.604 288.553 453.033 288.698 453.593 288.698C453.995 288.698 454.34 288.6 454.629 288.404C454.919 288.199 455.096 287.984 455.161 287.76H456.911C456.631 288.628 456.202 289.249 455.623 289.622C455.045 289.995 454.345 290.182 453.523 290.182C452.954 290.182 452.441 290.093 451.983 289.916C451.526 289.729 451.139 289.468 450.821 289.132C450.504 288.796 450.257 288.395 450.079 287.928C449.911 287.461 449.827 286.948 449.827 286.388C449.827 285.847 449.916 285.343 450.093 284.876C450.271 284.409 450.523 284.008 450.849 283.672C451.176 283.327 451.563 283.056 452.011 282.86C452.469 282.664 452.973 282.566 453.523 282.566C454.139 282.566 454.676 282.687 455.133 282.93C455.591 283.163 455.964 283.481 456.253 283.882C456.552 284.283 456.767 284.741 456.897 285.254C457.028 285.767 457.075 286.304 457.037 286.864H451.815ZM458.448 280.004H460.436V290H458.448V280.004Z" fill="black"/>
<path d="M127.312 361.076H128.832V372.5H127.312V361.076ZM131.165 364.228H132.445V365.54H132.477C133.042 364.537 133.938 364.036 135.165 364.036C135.709 364.036 136.162 364.111 136.525 364.26C136.887 364.409 137.181 364.617 137.405 364.884C137.629 365.151 137.783 365.471 137.869 365.844C137.965 366.207 138.013 366.612 138.013 367.06V372.5H136.653V366.9C136.653 366.388 136.503 365.983 136.205 365.684C135.906 365.385 135.495 365.236 134.973 365.236C134.557 365.236 134.194 365.3 133.885 365.428C133.586 365.556 133.335 365.737 133.133 365.972C132.93 366.207 132.775 366.484 132.669 366.804C132.573 367.113 132.525 367.455 132.525 367.828V372.5H131.165V364.228ZM140.615 365.428H139.223V364.228H140.615V362.996C140.615 362.324 140.807 361.817 141.191 361.476C141.586 361.124 142.157 360.948 142.903 360.948C143.031 360.948 143.175 360.959 143.335 360.98C143.506 361.001 143.655 361.033 143.783 361.076V362.26C143.666 362.217 143.538 362.191 143.399 362.18C143.261 362.159 143.133 362.148 143.015 362.148C142.685 362.148 142.429 362.212 142.247 362.34C142.066 362.468 141.975 362.713 141.975 363.076V364.228H143.575V365.428H141.975V372.5H140.615V365.428ZM145.782 368.372C145.782 368.873 145.846 369.321 145.974 369.716C146.112 370.1 146.299 370.425 146.534 370.692C146.768 370.948 147.04 371.145 147.35 371.284C147.67 371.423 148.006 371.492 148.358 371.492C148.71 371.492 149.04 371.423 149.35 371.284C149.67 371.145 149.947 370.948 150.182 370.692C150.416 370.425 150.598 370.1 150.726 369.716C150.864 369.321 150.934 368.873 150.934 368.372C150.934 367.871 150.864 367.428 150.726 367.044C150.598 366.649 150.416 366.319 150.182 366.052C149.947 365.785 149.67 365.583 149.35 365.444C149.04 365.305 148.71 365.236 148.358 365.236C148.006 365.236 147.67 365.305 147.35 365.444C147.04 365.583 146.768 365.785 146.534 366.052C146.299 366.319 146.112 366.649 145.974 367.044C145.846 367.428 145.782 367.871 145.782 368.372ZM144.342 368.372C144.342 367.764 144.427 367.199 144.598 366.676C144.768 366.143 145.024 365.684 145.366 365.3C145.707 364.905 146.128 364.596 146.63 364.372C147.131 364.148 147.707 364.036 148.358 364.036C149.019 364.036 149.595 364.148 150.086 364.372C150.587 364.596 151.008 364.905 151.35 365.3C151.691 365.684 151.947 366.143 152.118 366.676C152.288 367.199 152.374 367.764 152.374 368.372C152.374 368.98 152.288 369.545 152.118 370.068C151.947 370.591 151.691 371.049 151.35 371.444C151.008 371.828 150.587 372.132 150.086 372.356C149.595 372.569 149.019 372.676 148.358 372.676C147.707 372.676 147.131 372.569 146.63 372.356C146.128 372.132 145.707 371.828 145.366 371.444C145.024 371.049 144.768 370.591 144.598 370.068C144.427 369.545 144.342 368.98 144.342 368.372Z" fill="black" fill-opacity="0.68"/>
<path d="M302 367C302 358.163 309.163 351 318 351H364C372.837 351 380 358.163 380 367C380 375.837 372.837 383 364 383H318C309.163 383 302 375.837 302 367Z" fill="#0073B3"/>
<path d="M318 361.4C314.907 361.4 312.4 363.907 312.4 367C312.4 370.093 314.907 372.6 318 372.6C321.093 372.6 323.6 370.093 323.6 367C323.6 363.907 321.093 361.4 318 361.4ZM318.7 369.563C318.7 370.256 318.467 370.589 318 370.589C317.533 370.589 317.3 370.256 317.3 369.563V366.918C317.3 366.225 317.524 365.883 318 365.883C318.467 365.883 318.7 366.225 318.7 366.918V369.563ZM317.993 365.293C317.546 365.293 317.183 364.929 317.183 364.481C317.183 364.033 317.546 363.66 317.993 363.66C318.439 363.66 318.802 364.024 318.802 364.481C318.802 364.938 318.439 365.293 317.993 365.293Z" fill="white"/>
<path d="M330.966 362.004H333.164V370.152H338.036V372H330.966V362.004ZM339.146 366.988C339.174 366.521 339.29 366.134 339.496 365.826C339.701 365.518 339.962 365.271 340.28 365.084C340.597 364.897 340.952 364.767 341.344 364.692C341.745 364.608 342.146 364.566 342.548 364.566C342.912 364.566 343.28 364.594 343.654 364.65C344.027 364.697 344.368 364.795 344.676 364.944C344.984 365.093 345.236 365.303 345.432 365.574C345.628 365.835 345.726 366.185 345.726 366.624V370.39C345.726 370.717 345.744 371.029 345.782 371.328C345.819 371.627 345.884 371.851 345.978 372H343.962C343.924 371.888 343.892 371.776 343.864 371.664C343.845 371.543 343.831 371.421 343.822 371.3C343.504 371.627 343.131 371.855 342.702 371.986C342.272 372.117 341.834 372.182 341.386 372.182C341.04 372.182 340.718 372.14 340.42 372.056C340.121 371.972 339.86 371.841 339.636 371.664C339.412 371.487 339.234 371.263 339.104 370.992C338.982 370.721 338.922 370.399 338.922 370.026C338.922 369.615 338.992 369.279 339.132 369.018C339.281 368.747 339.468 368.533 339.692 368.374C339.925 368.215 340.186 368.099 340.476 368.024C340.774 367.94 341.073 367.875 341.372 367.828C341.67 367.781 341.964 367.744 342.254 367.716C342.543 367.688 342.8 367.646 343.024 367.59C343.248 367.534 343.425 367.455 343.556 367.352C343.686 367.24 343.747 367.081 343.738 366.876C343.738 366.661 343.7 366.493 343.626 366.372C343.56 366.241 343.467 366.143 343.346 366.078C343.234 366.003 343.098 365.957 342.94 365.938C342.79 365.91 342.627 365.896 342.45 365.896C342.058 365.896 341.75 365.98 341.526 366.148C341.302 366.316 341.171 366.596 341.134 366.988H339.146ZM343.738 368.458C343.654 368.533 343.546 368.593 343.416 368.64C343.294 368.677 343.159 368.71 343.01 368.738C342.87 368.766 342.72 368.789 342.562 368.808C342.403 368.827 342.244 368.85 342.086 368.878C341.936 368.906 341.787 368.943 341.638 368.99C341.498 369.037 341.372 369.102 341.26 369.186C341.157 369.261 341.073 369.359 341.008 369.48C340.942 369.601 340.91 369.755 340.91 369.942C340.91 370.119 340.942 370.269 341.008 370.39C341.073 370.511 341.162 370.609 341.274 370.684C341.386 370.749 341.516 370.796 341.666 370.824C341.815 370.852 341.969 370.866 342.128 370.866C342.52 370.866 342.823 370.801 343.038 370.67C343.252 370.539 343.411 370.385 343.514 370.208C343.616 370.021 343.677 369.835 343.696 369.648C343.724 369.461 343.738 369.312 343.738 369.2V368.458ZM352.75 368.388C352.75 368.08 352.717 367.786 352.652 367.506C352.587 367.226 352.484 366.979 352.344 366.764C352.204 366.549 352.027 366.381 351.812 366.26C351.607 366.129 351.355 366.064 351.056 366.064C350.767 366.064 350.515 366.129 350.3 366.26C350.085 366.381 349.908 366.549 349.768 366.764C349.628 366.979 349.525 367.226 349.46 367.506C349.395 367.786 349.362 368.08 349.362 368.388C349.362 368.687 349.395 368.976 349.46 369.256C349.525 369.536 349.628 369.783 349.768 369.998C349.908 370.213 350.085 370.385 350.3 370.516C350.515 370.637 350.767 370.698 351.056 370.698C351.355 370.698 351.607 370.637 351.812 370.516C352.027 370.385 352.204 370.213 352.344 369.998C352.484 369.783 352.587 369.536 352.652 369.256C352.717 368.976 352.75 368.687 352.75 368.388ZM347.444 362.004H349.432V365.644H349.46C349.703 365.271 350.029 365 350.44 364.832C350.86 364.655 351.294 364.566 351.742 364.566C352.106 364.566 352.465 364.641 352.82 364.79C353.175 364.939 353.492 365.168 353.772 365.476C354.061 365.784 354.295 366.181 354.472 366.666C354.649 367.142 354.738 367.711 354.738 368.374C354.738 369.037 354.649 369.611 354.472 370.096C354.295 370.572 354.061 370.964 353.772 371.272C353.492 371.58 353.175 371.809 352.82 371.958C352.465 372.107 352.106 372.182 351.742 372.182C351.21 372.182 350.734 372.098 350.314 371.93C349.894 371.762 349.577 371.477 349.362 371.076H349.334V372H347.444V362.004ZM361.049 367.604C360.956 367.1 360.788 366.717 360.545 366.456C360.312 366.195 359.953 366.064 359.467 366.064C359.15 366.064 358.884 366.12 358.669 366.232C358.464 366.335 358.296 366.465 358.165 366.624C358.044 366.783 357.955 366.951 357.899 367.128C357.853 367.305 357.825 367.464 357.815 367.604H361.049ZM357.815 368.864C357.843 369.508 358.007 369.975 358.305 370.264C358.604 370.553 359.033 370.698 359.593 370.698C359.995 370.698 360.34 370.6 360.629 370.404C360.919 370.199 361.096 369.984 361.161 369.76H362.911C362.631 370.628 362.202 371.249 361.623 371.622C361.045 371.995 360.345 372.182 359.523 372.182C358.954 372.182 358.441 372.093 357.983 371.916C357.526 371.729 357.139 371.468 356.821 371.132C356.504 370.796 356.257 370.395 356.079 369.928C355.911 369.461 355.827 368.948 355.827 368.388C355.827 367.847 355.916 367.343 356.093 366.876C356.271 366.409 356.523 366.008 356.849 365.672C357.176 365.327 357.563 365.056 358.011 364.86C358.469 364.664 358.973 364.566 359.523 364.566C360.139 364.566 360.676 364.687 361.133 364.93C361.591 365.163 361.964 365.481 362.253 365.882C362.552 366.283 362.767 366.741 362.897 367.254C363.028 367.767 363.075 368.304 363.037 368.864H357.815ZM364.448 362.004H366.436V372H364.448V362.004Z" fill="white"/>
<path d="M396 367C396 358.163 403.163 351 412 351H458C466.837 351 474 358.163 474 367C474 375.837 466.837 383 458 383H412C403.163 383 396 375.837 396 367Z" fill="#26B2FF" fill-opacity="0.08"/>
<path d="M412 361.4C408.907 361.4 406.4 363.907 406.4 367C406.4 370.093 408.907 372.6 412 372.6C415.093 372.6 417.6 370.093 417.6 367C417.6 363.907 415.093 361.4 412 361.4ZM412.7 369.563C412.7 370.256 412.467 370.589 412 370.589C411.533 370.589 411.3 370.256 411.3 369.563V366.918C411.3 366.225 411.524 365.883 412 365.883C412.467 365.883 412.7 366.225 412.7 366.918V369.563ZM411.993 365.293C411.546 365.293 411.183 364.929 411.183 364.481C411.183 364.033 411.546 363.66 411.993 363.66C412.439 363.66 412.802 364.024 412.802 364.481C412.802 364.938 412.439 365.293 411.993 365.293Z" fill="#0073B3"/>
<path d="M424.966 362.004H427.164V370.152H432.036V372H424.966V362.004ZM433.146 366.988C433.174 366.521 433.29 366.134 433.496 365.826C433.701 365.518 433.962 365.271 434.28 365.084C434.597 364.897 434.952 364.767 435.344 364.692C435.745 364.608 436.146 364.566 436.548 364.566C436.912 364.566 437.28 364.594 437.654 364.65C438.027 364.697 438.368 364.795 438.676 364.944C438.984 365.093 439.236 365.303 439.432 365.574C439.628 365.835 439.726 366.185 439.726 366.624V370.39C439.726 370.717 439.744 371.029 439.782 371.328C439.819 371.627 439.884 371.851 439.978 372H437.962C437.924 371.888 437.892 371.776 437.864 371.664C437.845 371.543 437.831 371.421 437.822 371.3C437.504 371.627 437.131 371.855 436.702 371.986C436.272 372.117 435.834 372.182 435.386 372.182C435.04 372.182 434.718 372.14 434.42 372.056C434.121 371.972 433.86 371.841 433.636 371.664C433.412 371.487 433.234 371.263 433.104 370.992C432.982 370.721 432.922 370.399 432.922 370.026C432.922 369.615 432.992 369.279 433.132 369.018C433.281 368.747 433.468 368.533 433.692 368.374C433.925 368.215 434.186 368.099 434.476 368.024C434.774 367.94 435.073 367.875 435.372 367.828C435.67 367.781 435.964 367.744 436.254 367.716C436.543 367.688 436.8 367.646 437.024 367.59C437.248 367.534 437.425 367.455 437.556 367.352C437.686 367.24 437.747 367.081 437.738 366.876C437.738 366.661 437.7 366.493 437.626 366.372C437.56 366.241 437.467 366.143 437.346 366.078C437.234 366.003 437.098 365.957 436.94 365.938C436.79 365.91 436.627 365.896 436.45 365.896C436.058 365.896 435.75 365.98 435.526 366.148C435.302 366.316 435.171 366.596 435.134 366.988H433.146ZM437.738 368.458C437.654 368.533 437.546 368.593 437.416 368.64C437.294 368.677 437.159 368.71 437.01 368.738C436.87 368.766 436.72 368.789 436.562 368.808C436.403 368.827 436.244 368.85 436.086 368.878C435.936 368.906 435.787 368.943 435.638 368.99C435.498 369.037 435.372 369.102 435.26 369.186C435.157 369.261 435.073 369.359 435.008 369.48C434.942 369.601 434.91 369.755 434.91 369.942C434.91 370.119 434.942 370.269 435.008 370.39C435.073 370.511 435.162 370.609 435.274 370.684C435.386 370.749 435.516 370.796 435.666 370.824C435.815 370.852 435.969 370.866 436.128 370.866C436.52 370.866 436.823 370.801 437.038 370.67C437.252 370.539 437.411 370.385 437.514 370.208C437.616 370.021 437.677 369.835 437.696 369.648C437.724 369.461 437.738 369.312 437.738 369.2V368.458ZM446.75 368.388C446.75 368.08 446.717 367.786 446.652 367.506C446.587 367.226 446.484 366.979 446.344 366.764C446.204 366.549 446.027 366.381 445.812 366.26C445.607 366.129 445.355 366.064 445.056 366.064C444.767 366.064 444.515 366.129 444.3 366.26C444.085 366.381 443.908 366.549 443.768 366.764C443.628 366.979 443.525 367.226 443.46 367.506C443.395 367.786 443.362 368.08 443.362 368.388C443.362 368.687 443.395 368.976 443.46 369.256C443.525 369.536 443.628 369.783 443.768 369.998C443.908 370.213 444.085 370.385 444.3 370.516C444.515 370.637 444.767 370.698 445.056 370.698C445.355 370.698 445.607 370.637 445.812 370.516C446.027 370.385 446.204 370.213 446.344 369.998C446.484 369.783 446.587 369.536 446.652 369.256C446.717 368.976 446.75 368.687 446.75 368.388ZM441.444 362.004H443.432V365.644H443.46C443.703 365.271 444.029 365 444.44 364.832C444.86 364.655 445.294 364.566 445.742 364.566C446.106 364.566 446.465 364.641 446.82 364.79C447.175 364.939 447.492 365.168 447.772 365.476C448.061 365.784 448.295 366.181 448.472 366.666C448.649 367.142 448.738 367.711 448.738 368.374C448.738 369.037 448.649 369.611 448.472 370.096C448.295 370.572 448.061 370.964 447.772 371.272C447.492 371.58 447.175 371.809 446.82 371.958C446.465 372.107 446.106 372.182 445.742 372.182C445.21 372.182 444.734 372.098 444.314 371.93C443.894 371.762 443.577 371.477 443.362 371.076H443.334V372H441.444V362.004ZM455.049 367.604C454.956 367.1 454.788 366.717 454.545 366.456C454.312 366.195 453.953 366.064 453.467 366.064C453.15 366.064 452.884 366.12 452.669 366.232C452.464 366.335 452.296 366.465 452.165 366.624C452.044 366.783 451.955 366.951 451.899 367.128C451.853 367.305 451.825 367.464 451.815 367.604H455.049ZM451.815 368.864C451.843 369.508 452.007 369.975 452.305 370.264C452.604 370.553 453.033 370.698 453.593 370.698C453.995 370.698 454.34 370.6 454.629 370.404C454.919 370.199 455.096 369.984 455.161 369.76H456.911C456.631 370.628 456.202 371.249 455.623 371.622C455.045 371.995 454.345 372.182 453.523 372.182C452.954 372.182 452.441 372.093 451.983 371.916C451.526 371.729 451.139 371.468 450.821 371.132C450.504 370.796 450.257 370.395 450.079 369.928C449.911 369.461 449.827 368.948 449.827 368.388C449.827 367.847 449.916 367.343 450.093 366.876C450.271 366.409 450.523 366.008 450.849 365.672C451.176 365.327 451.563 365.056 452.011 364.86C452.469 364.664 452.973 364.566 453.523 364.566C454.139 364.566 454.676 364.687 455.133 364.93C455.591 365.163 455.964 365.481 456.253 365.882C456.552 366.283 456.767 366.741 456.897 367.254C457.028 367.767 457.075 368.304 457.037 368.864H451.815ZM458.448 362.004H460.436V372H458.448V362.004Z" fill="black"/>
<defs>
<clipPath id="clip0_72998_14538">
<rect width="14" height="14" fill="white" transform="translate(311 196)"/>
</clipPath>
<clipPath id="clip1_72998_14538">
<rect width="14" height="14" fill="white" transform="translate(405 196)"/>
</clipPath>
</defs>
</svg>
