<svg width="600" height="324" viewBox="0 0 600 324" fill="none" xmlns="http://www.w3.org/2000/svg">
<rect width="600" height="324" fill="black" fill-opacity="0.04"/>
<path d="M123.232 110.076H124.848L130.864 119.34H130.896V110.076H132.336V121.5H130.672L124.704 112.332H124.672V121.5H123.232V110.076ZM140.315 116.572C140.294 116.252 140.219 115.948 140.091 115.66C139.974 115.372 139.808 115.127 139.595 114.924C139.392 114.711 139.147 114.545 138.859 114.428C138.582 114.3 138.272 114.236 137.931 114.236C137.579 114.236 137.259 114.3 136.971 114.428C136.694 114.545 136.454 114.711 136.251 114.924C136.048 115.137 135.888 115.388 135.771 115.676C135.654 115.953 135.584 116.252 135.563 116.572H140.315ZM141.627 118.876C141.446 119.804 141.046 120.503 140.427 120.972C139.808 121.441 139.03 121.676 138.091 121.676C137.43 121.676 136.854 121.569 136.363 121.356C135.883 121.143 135.478 120.844 135.147 120.46C134.816 120.076 134.566 119.617 134.395 119.084C134.235 118.551 134.144 117.969 134.123 117.34C134.123 116.711 134.219 116.135 134.411 115.612C134.603 115.089 134.87 114.636 135.211 114.252C135.563 113.868 135.974 113.569 136.443 113.356C136.923 113.143 137.446 113.036 138.011 113.036C138.747 113.036 139.355 113.191 139.835 113.5C140.326 113.799 140.715 114.183 141.003 114.652C141.302 115.121 141.504 115.633 141.611 116.188C141.728 116.743 141.776 117.271 141.755 117.772H135.563C135.552 118.135 135.595 118.481 135.691 118.812C135.787 119.132 135.942 119.42 136.155 119.676C136.368 119.921 136.64 120.119 136.971 120.268C137.302 120.417 137.691 120.492 138.139 120.492C138.715 120.492 139.184 120.359 139.547 120.092C139.92 119.825 140.166 119.42 140.283 118.876H141.627ZM150.013 121.5H148.733V120.188H148.701C148.413 120.7 148.045 121.079 147.597 121.324C147.149 121.559 146.621 121.676 146.013 121.676C145.469 121.676 145.015 121.607 144.653 121.468C144.29 121.319 143.997 121.111 143.773 120.844C143.549 120.577 143.389 120.263 143.293 119.9C143.207 119.527 143.165 119.116 143.165 118.668V113.228H144.525V118.828C144.525 119.34 144.674 119.745 144.973 120.044C145.271 120.343 145.682 120.492 146.205 120.492C146.621 120.492 146.978 120.428 147.277 120.3C147.586 120.172 147.842 119.991 148.045 119.756C148.247 119.521 148.397 119.249 148.493 118.94C148.599 118.62 148.653 118.273 148.653 117.9V113.228H150.013V121.5ZM153.943 113.228H155.591V114.428H153.943V119.564C153.943 119.724 153.954 119.852 153.975 119.948C154.007 120.044 154.061 120.119 154.135 120.172C154.21 120.225 154.311 120.263 154.439 120.284C154.578 120.295 154.754 120.3 154.967 120.3H155.591V121.5H154.551C154.199 121.5 153.895 121.479 153.639 121.436C153.394 121.383 153.191 121.292 153.031 121.164C152.882 121.036 152.77 120.855 152.695 120.62C152.621 120.385 152.583 120.076 152.583 119.692V114.428H151.175V113.228H152.583V110.748H153.943V113.228ZM157.054 113.228H158.334V114.972H158.366C158.697 114.3 159.102 113.804 159.582 113.484C160.062 113.164 160.67 113.015 161.406 113.036V114.476C160.862 114.476 160.398 114.551 160.014 114.7C159.63 114.849 159.321 115.068 159.086 115.356C158.851 115.644 158.681 115.996 158.574 116.412C158.467 116.817 158.414 117.287 158.414 117.82V121.5H157.054V113.228ZM169.758 121.468C169.524 121.607 169.198 121.676 168.782 121.676C168.43 121.676 168.148 121.58 167.934 121.388C167.732 121.185 167.63 120.86 167.63 120.412C167.257 120.86 166.82 121.185 166.318 121.388C165.828 121.58 165.294 121.676 164.718 121.676C164.345 121.676 163.988 121.633 163.646 121.548C163.316 121.463 163.028 121.329 162.782 121.148C162.537 120.967 162.34 120.732 162.19 120.444C162.052 120.145 161.982 119.788 161.982 119.372C161.982 118.903 162.062 118.519 162.222 118.22C162.382 117.921 162.59 117.681 162.846 117.5C163.113 117.308 163.412 117.164 163.742 117.068C164.084 116.972 164.43 116.892 164.782 116.828C165.156 116.753 165.508 116.7 165.838 116.668C166.18 116.625 166.478 116.572 166.734 116.508C166.99 116.433 167.193 116.332 167.342 116.204C167.492 116.065 167.566 115.868 167.566 115.612C167.566 115.313 167.508 115.073 167.39 114.892C167.284 114.711 167.14 114.572 166.958 114.476C166.788 114.38 166.59 114.316 166.366 114.284C166.153 114.252 165.94 114.236 165.726 114.236C165.15 114.236 164.67 114.348 164.286 114.572C163.902 114.785 163.694 115.196 163.662 115.804H162.302C162.324 115.292 162.43 114.86 162.622 114.508C162.814 114.156 163.07 113.873 163.39 113.66C163.71 113.436 164.073 113.276 164.478 113.18C164.894 113.084 165.337 113.036 165.806 113.036C166.18 113.036 166.548 113.063 166.91 113.116C167.284 113.169 167.62 113.281 167.918 113.452C168.217 113.612 168.457 113.841 168.638 114.14C168.82 114.439 168.91 114.828 168.91 115.308V119.564C168.91 119.884 168.926 120.119 168.958 120.268C169.001 120.417 169.129 120.492 169.342 120.492C169.46 120.492 169.598 120.465 169.758 120.412V121.468ZM167.55 117.228C167.38 117.356 167.156 117.452 166.878 117.516C166.601 117.569 166.308 117.617 165.998 117.66C165.7 117.692 165.396 117.735 165.086 117.788C164.777 117.831 164.5 117.905 164.254 118.012C164.009 118.119 163.806 118.273 163.646 118.476C163.497 118.668 163.422 118.935 163.422 119.276C163.422 119.5 163.465 119.692 163.55 119.852C163.646 120.001 163.764 120.124 163.902 120.22C164.052 120.316 164.222 120.385 164.414 120.428C164.606 120.471 164.809 120.492 165.022 120.492C165.47 120.492 165.854 120.433 166.174 120.316C166.494 120.188 166.756 120.033 166.958 119.852C167.161 119.66 167.31 119.457 167.406 119.244C167.502 119.02 167.55 118.812 167.55 118.62V117.228ZM171.104 110.076H172.464V121.5H171.104V110.076Z" fill="black" fill-opacity="0.68"/>
<path d="M298 116C298 107.163 305.163 100 314 100H364C372.837 100 380 107.163 380 116C380 124.837 372.837 132 364 132H314C305.163 132 298 124.837 298 116Z" fill="#272727"/>
<path fill-rule="evenodd" clip-rule="evenodd" d="M321.733 115.558L318 119.644L314.267 115.558L314.265 115.556C313.542 114.763 313.606 113.541 314.409 112.826C315.182 112.138 316.365 112.169 317.101 112.896C317.103 112.898 317.105 112.9 317.107 112.901L317.678 113.438L318 113.744L318.322 113.438L318.893 112.901C318.895 112.9 318.897 112.898 318.899 112.896C319.265 112.532 319.763 112.328 320.282 112.33C321.362 112.33 322.238 113.195 322.238 114.262C322.238 114.74 322.059 115.201 321.735 115.556L321.733 115.558ZM322.587 111.985C321.321 110.734 319.275 110.727 318 111.962C316.725 110.727 314.679 110.734 313.413 111.985C312.161 113.222 312.14 115.216 313.352 116.478L318 121.542L322.648 116.478C323.859 115.216 323.839 113.222 322.587 111.985Z" fill="white"/>
<path d="M330.966 111.004H333.164V119.152H338.036V121H330.966V111.004ZM339.146 115.988C339.174 115.521 339.29 115.134 339.496 114.826C339.701 114.518 339.962 114.271 340.28 114.084C340.597 113.897 340.952 113.767 341.344 113.692C341.745 113.608 342.146 113.566 342.548 113.566C342.912 113.566 343.28 113.594 343.654 113.65C344.027 113.697 344.368 113.795 344.676 113.944C344.984 114.093 345.236 114.303 345.432 114.574C345.628 114.835 345.726 115.185 345.726 115.624V119.39C345.726 119.717 345.744 120.029 345.782 120.328C345.819 120.627 345.884 120.851 345.978 121H343.962C343.924 120.888 343.892 120.776 343.864 120.664C343.845 120.543 343.831 120.421 343.822 120.3C343.504 120.627 343.131 120.855 342.702 120.986C342.272 121.117 341.834 121.182 341.386 121.182C341.04 121.182 340.718 121.14 340.42 121.056C340.121 120.972 339.86 120.841 339.636 120.664C339.412 120.487 339.234 120.263 339.104 119.992C338.982 119.721 338.922 119.399 338.922 119.026C338.922 118.615 338.992 118.279 339.132 118.018C339.281 117.747 339.468 117.533 339.692 117.374C339.925 117.215 340.186 117.099 340.476 117.024C340.774 116.94 341.073 116.875 341.372 116.828C341.67 116.781 341.964 116.744 342.254 116.716C342.543 116.688 342.8 116.646 343.024 116.59C343.248 116.534 343.425 116.455 343.556 116.352C343.686 116.24 343.747 116.081 343.738 115.876C343.738 115.661 343.7 115.493 343.626 115.372C343.56 115.241 343.467 115.143 343.346 115.078C343.234 115.003 343.098 114.957 342.94 114.938C342.79 114.91 342.627 114.896 342.45 114.896C342.058 114.896 341.75 114.98 341.526 115.148C341.302 115.316 341.171 115.596 341.134 115.988H339.146ZM343.738 117.458C343.654 117.533 343.546 117.593 343.416 117.64C343.294 117.677 343.159 117.71 343.01 117.738C342.87 117.766 342.72 117.789 342.562 117.808C342.403 117.827 342.244 117.85 342.086 117.878C341.936 117.906 341.787 117.943 341.638 117.99C341.498 118.037 341.372 118.102 341.26 118.186C341.157 118.261 341.073 118.359 341.008 118.48C340.942 118.601 340.91 118.755 340.91 118.942C340.91 119.119 340.942 119.269 341.008 119.39C341.073 119.511 341.162 119.609 341.274 119.684C341.386 119.749 341.516 119.796 341.666 119.824C341.815 119.852 341.969 119.866 342.128 119.866C342.52 119.866 342.823 119.801 343.038 119.67C343.252 119.539 343.411 119.385 343.514 119.208C343.616 119.021 343.677 118.835 343.696 118.648C343.724 118.461 343.738 118.312 343.738 118.2V117.458ZM352.75 117.388C352.75 117.08 352.717 116.786 352.652 116.506C352.587 116.226 352.484 115.979 352.344 115.764C352.204 115.549 352.027 115.381 351.812 115.26C351.607 115.129 351.355 115.064 351.056 115.064C350.767 115.064 350.515 115.129 350.3 115.26C350.085 115.381 349.908 115.549 349.768 115.764C349.628 115.979 349.525 116.226 349.46 116.506C349.395 116.786 349.362 117.08 349.362 117.388C349.362 117.687 349.395 117.976 349.46 118.256C349.525 118.536 349.628 118.783 349.768 118.998C349.908 119.213 350.085 119.385 350.3 119.516C350.515 119.637 350.767 119.698 351.056 119.698C351.355 119.698 351.607 119.637 351.812 119.516C352.027 119.385 352.204 119.213 352.344 118.998C352.484 118.783 352.587 118.536 352.652 118.256C352.717 117.976 352.75 117.687 352.75 117.388ZM347.444 111.004H349.432V114.644H349.46C349.703 114.271 350.029 114 350.44 113.832C350.86 113.655 351.294 113.566 351.742 113.566C352.106 113.566 352.465 113.641 352.82 113.79C353.175 113.939 353.492 114.168 353.772 114.476C354.061 114.784 354.295 115.181 354.472 115.666C354.649 116.142 354.738 116.711 354.738 117.374C354.738 118.037 354.649 118.611 354.472 119.096C354.295 119.572 354.061 119.964 353.772 120.272C353.492 120.58 353.175 120.809 352.82 120.958C352.465 121.107 352.106 121.182 351.742 121.182C351.21 121.182 350.734 121.098 350.314 120.93C349.894 120.762 349.577 120.477 349.362 120.076H349.334V121H347.444V111.004ZM361.049 116.604C360.956 116.1 360.788 115.717 360.545 115.456C360.312 115.195 359.953 115.064 359.467 115.064C359.15 115.064 358.884 115.12 358.669 115.232C358.464 115.335 358.296 115.465 358.165 115.624C358.044 115.783 357.955 115.951 357.899 116.128C357.853 116.305 357.825 116.464 357.815 116.604H361.049ZM357.815 117.864C357.843 118.508 358.007 118.975 358.305 119.264C358.604 119.553 359.033 119.698 359.593 119.698C359.995 119.698 360.34 119.6 360.629 119.404C360.919 119.199 361.096 118.984 361.161 118.76H362.911C362.631 119.628 362.202 120.249 361.623 120.622C361.045 120.995 360.345 121.182 359.523 121.182C358.954 121.182 358.441 121.093 357.983 120.916C357.526 120.729 357.139 120.468 356.821 120.132C356.504 119.796 356.257 119.395 356.079 118.928C355.911 118.461 355.827 117.948 355.827 117.388C355.827 116.847 355.916 116.343 356.093 115.876C356.271 115.409 356.523 115.008 356.849 114.672C357.176 114.327 357.563 114.056 358.011 113.86C358.469 113.664 358.973 113.566 359.523 113.566C360.139 113.566 360.676 113.687 361.133 113.93C361.591 114.163 361.964 114.481 362.253 114.882C362.552 115.283 362.767 115.741 362.897 116.254C363.028 116.767 363.075 117.304 363.037 117.864H357.815ZM364.448 111.004H366.436V121H364.448V111.004Z" fill="white"/>
<path d="M396 116C396 107.163 403.163 100 412 100H462C470.837 100 478 107.163 478 116C478 124.837 470.837 132 462 132H412C403.163 132 396 124.837 396 116Z" fill="black" fill-opacity="0.04"/>
<path fill-rule="evenodd" clip-rule="evenodd" d="M419.733 115.558L416 119.644L412.267 115.558L412.265 115.556C411.542 114.763 411.606 113.541 412.409 112.826C413.182 112.138 414.365 112.169 415.101 112.896C415.103 112.898 415.105 112.9 415.107 112.901L415.678 113.438L416 113.744L416.322 113.438L416.893 112.901C416.895 112.9 416.897 112.898 416.899 112.896C417.265 112.532 417.763 112.328 418.282 112.33C419.362 112.33 420.238 113.195 420.238 114.262C420.238 114.74 420.059 115.201 419.735 115.556L419.733 115.558ZM420.587 111.985C419.321 110.734 417.275 110.727 416 111.962C414.725 110.727 412.679 110.734 411.413 111.985C410.161 113.222 410.14 115.216 411.352 116.478L416 121.542L420.648 116.478C421.859 115.216 421.839 113.222 420.587 111.985Z" fill="black"/>
<path d="M428.966 111.004H431.164V119.152H436.036V121H428.966V111.004ZM437.146 115.988C437.174 115.521 437.29 115.134 437.496 114.826C437.701 114.518 437.962 114.271 438.28 114.084C438.597 113.897 438.952 113.767 439.344 113.692C439.745 113.608 440.146 113.566 440.548 113.566C440.912 113.566 441.28 113.594 441.654 113.65C442.027 113.697 442.368 113.795 442.676 113.944C442.984 114.093 443.236 114.303 443.432 114.574C443.628 114.835 443.726 115.185 443.726 115.624V119.39C443.726 119.717 443.744 120.029 443.782 120.328C443.819 120.627 443.884 120.851 443.978 121H441.962C441.924 120.888 441.892 120.776 441.864 120.664C441.845 120.543 441.831 120.421 441.822 120.3C441.504 120.627 441.131 120.855 440.702 120.986C440.272 121.117 439.834 121.182 439.386 121.182C439.04 121.182 438.718 121.14 438.42 121.056C438.121 120.972 437.86 120.841 437.636 120.664C437.412 120.487 437.234 120.263 437.104 119.992C436.982 119.721 436.922 119.399 436.922 119.026C436.922 118.615 436.992 118.279 437.132 118.018C437.281 117.747 437.468 117.533 437.692 117.374C437.925 117.215 438.186 117.099 438.476 117.024C438.774 116.94 439.073 116.875 439.372 116.828C439.67 116.781 439.964 116.744 440.254 116.716C440.543 116.688 440.8 116.646 441.024 116.59C441.248 116.534 441.425 116.455 441.556 116.352C441.686 116.24 441.747 116.081 441.738 115.876C441.738 115.661 441.7 115.493 441.626 115.372C441.56 115.241 441.467 115.143 441.346 115.078C441.234 115.003 441.098 114.957 440.94 114.938C440.79 114.91 440.627 114.896 440.45 114.896C440.058 114.896 439.75 114.98 439.526 115.148C439.302 115.316 439.171 115.596 439.134 115.988H437.146ZM441.738 117.458C441.654 117.533 441.546 117.593 441.416 117.64C441.294 117.677 441.159 117.71 441.01 117.738C440.87 117.766 440.72 117.789 440.562 117.808C440.403 117.827 440.244 117.85 440.086 117.878C439.936 117.906 439.787 117.943 439.638 117.99C439.498 118.037 439.372 118.102 439.26 118.186C439.157 118.261 439.073 118.359 439.008 118.48C438.942 118.601 438.91 118.755 438.91 118.942C438.91 119.119 438.942 119.269 439.008 119.39C439.073 119.511 439.162 119.609 439.274 119.684C439.386 119.749 439.516 119.796 439.666 119.824C439.815 119.852 439.969 119.866 440.128 119.866C440.52 119.866 440.823 119.801 441.038 119.67C441.252 119.539 441.411 119.385 441.514 119.208C441.616 119.021 441.677 118.835 441.696 118.648C441.724 118.461 441.738 118.312 441.738 118.2V117.458ZM450.75 117.388C450.75 117.08 450.717 116.786 450.652 116.506C450.587 116.226 450.484 115.979 450.344 115.764C450.204 115.549 450.027 115.381 449.812 115.26C449.607 115.129 449.355 115.064 449.056 115.064C448.767 115.064 448.515 115.129 448.3 115.26C448.085 115.381 447.908 115.549 447.768 115.764C447.628 115.979 447.525 116.226 447.46 116.506C447.395 116.786 447.362 117.08 447.362 117.388C447.362 117.687 447.395 117.976 447.46 118.256C447.525 118.536 447.628 118.783 447.768 118.998C447.908 119.213 448.085 119.385 448.3 119.516C448.515 119.637 448.767 119.698 449.056 119.698C449.355 119.698 449.607 119.637 449.812 119.516C450.027 119.385 450.204 119.213 450.344 118.998C450.484 118.783 450.587 118.536 450.652 118.256C450.717 117.976 450.75 117.687 450.75 117.388ZM445.444 111.004H447.432V114.644H447.46C447.703 114.271 448.029 114 448.44 113.832C448.86 113.655 449.294 113.566 449.742 113.566C450.106 113.566 450.465 113.641 450.82 113.79C451.175 113.939 451.492 114.168 451.772 114.476C452.061 114.784 452.295 115.181 452.472 115.666C452.649 116.142 452.738 116.711 452.738 117.374C452.738 118.037 452.649 118.611 452.472 119.096C452.295 119.572 452.061 119.964 451.772 120.272C451.492 120.58 451.175 120.809 450.82 120.958C450.465 121.107 450.106 121.182 449.742 121.182C449.21 121.182 448.734 121.098 448.314 120.93C447.894 120.762 447.577 120.477 447.362 120.076H447.334V121H445.444V111.004ZM459.049 116.604C458.956 116.1 458.788 115.717 458.545 115.456C458.312 115.195 457.953 115.064 457.467 115.064C457.15 115.064 456.884 115.12 456.669 115.232C456.464 115.335 456.296 115.465 456.165 115.624C456.044 115.783 455.955 115.951 455.899 116.128C455.853 116.305 455.825 116.464 455.815 116.604H459.049ZM455.815 117.864C455.843 118.508 456.007 118.975 456.305 119.264C456.604 119.553 457.033 119.698 457.593 119.698C457.995 119.698 458.34 119.6 458.629 119.404C458.919 119.199 459.096 118.984 459.161 118.76H460.911C460.631 119.628 460.202 120.249 459.623 120.622C459.045 120.995 458.345 121.182 457.523 121.182C456.954 121.182 456.441 121.093 455.983 120.916C455.526 120.729 455.139 120.468 454.821 120.132C454.504 119.796 454.257 119.395 454.079 118.928C453.911 118.461 453.827 117.948 453.827 117.388C453.827 116.847 453.916 116.343 454.093 115.876C454.271 115.409 454.523 115.008 454.849 114.672C455.176 114.327 455.563 114.056 456.011 113.86C456.469 113.664 456.973 113.566 457.523 113.566C458.139 113.566 458.676 113.687 459.133 113.93C459.591 114.163 459.964 114.481 460.253 114.882C460.552 115.283 460.767 115.741 460.897 116.254C461.028 116.767 461.075 117.304 461.037 117.864H455.815ZM462.448 111.004H464.436V121H462.448V111.004Z" fill="black"/>
<path d="M125.216 208.78H129.088L127.184 203.452H127.152L125.216 208.78ZM126.352 202.076H128.032L132.496 213.5H130.816L129.568 210.06H124.736L123.456 213.5H121.904L126.352 202.076ZM139.015 207.884C138.908 207.361 138.684 206.956 138.343 206.668C138.002 206.38 137.543 206.236 136.967 206.236C136.476 206.236 136.066 206.327 135.735 206.508C135.404 206.689 135.138 206.929 134.935 207.228C134.743 207.527 134.604 207.873 134.519 208.268C134.434 208.652 134.391 209.052 134.391 209.468C134.391 209.852 134.434 210.225 134.519 210.588C134.615 210.951 134.759 211.276 134.951 211.564C135.143 211.841 135.394 212.065 135.703 212.236C136.012 212.407 136.38 212.492 136.807 212.492C137.479 212.492 138.002 212.316 138.375 211.964C138.759 211.612 138.994 211.116 139.079 210.476H140.471C140.322 211.5 139.938 212.289 139.319 212.844C138.711 213.399 137.879 213.676 136.823 213.676C136.194 213.676 135.634 213.575 135.143 213.372C134.663 213.169 134.258 212.881 133.927 212.508C133.607 212.135 133.362 211.692 133.191 211.18C133.031 210.657 132.951 210.087 132.951 209.468C132.951 208.849 133.031 208.273 133.191 207.74C133.351 207.196 133.591 206.727 133.911 206.332C134.242 205.927 134.652 205.612 135.143 205.388C135.634 205.153 136.204 205.036 136.855 205.036C137.324 205.036 137.762 205.095 138.167 205.212C138.583 205.319 138.946 205.489 139.255 205.724C139.575 205.959 139.836 206.257 140.039 206.62C140.242 206.972 140.37 207.393 140.423 207.884H139.015ZM147.609 207.884C147.502 207.361 147.278 206.956 146.937 206.668C146.595 206.38 146.137 206.236 145.561 206.236C145.07 206.236 144.659 206.327 144.329 206.508C143.998 206.689 143.731 206.929 143.529 207.228C143.337 207.527 143.198 207.873 143.113 208.268C143.027 208.652 142.985 209.052 142.985 209.468C142.985 209.852 143.027 210.225 143.113 210.588C143.209 210.951 143.353 211.276 143.545 211.564C143.737 211.841 143.987 212.065 144.297 212.236C144.606 212.407 144.974 212.492 145.401 212.492C146.073 212.492 146.595 212.316 146.969 211.964C147.353 211.612 147.587 211.116 147.673 210.476H149.065C148.915 211.5 148.531 212.289 147.913 212.844C147.305 213.399 146.473 213.676 145.417 213.676C144.787 213.676 144.227 213.575 143.737 213.372C143.257 213.169 142.851 212.881 142.521 212.508C142.201 212.135 141.955 211.692 141.785 211.18C141.625 210.657 141.545 210.087 141.545 209.468C141.545 208.849 141.625 208.273 141.785 207.74C141.945 207.196 142.185 206.727 142.505 206.332C142.835 205.927 143.246 205.612 143.737 205.388C144.227 205.153 144.798 205.036 145.449 205.036C145.918 205.036 146.355 205.095 146.761 205.212C147.177 205.319 147.539 205.489 147.849 205.724C148.169 205.959 148.43 206.257 148.633 206.62C148.835 206.972 148.963 207.393 149.017 207.884H147.609ZM156.331 208.572C156.309 208.252 156.235 207.948 156.107 207.66C155.989 207.372 155.824 207.127 155.611 206.924C155.408 206.711 155.163 206.545 154.875 206.428C154.597 206.3 154.288 206.236 153.947 206.236C153.595 206.236 153.275 206.3 152.987 206.428C152.709 206.545 152.469 206.711 152.267 206.924C152.064 207.137 151.904 207.388 151.787 207.676C151.669 207.953 151.6 208.252 151.579 208.572H156.331ZM157.642 210.876C157.461 211.804 157.061 212.503 156.443 212.972C155.824 213.441 155.045 213.676 154.107 213.676C153.445 213.676 152.869 213.569 152.379 213.356C151.899 213.143 151.493 212.844 151.163 212.46C150.832 212.076 150.581 211.617 150.411 211.084C150.251 210.551 150.16 209.969 150.139 209.34C150.139 208.711 150.235 208.135 150.427 207.612C150.619 207.089 150.885 206.636 151.227 206.252C151.579 205.868 151.989 205.569 152.459 205.356C152.939 205.143 153.461 205.036 154.027 205.036C154.763 205.036 155.371 205.191 155.851 205.5C156.341 205.799 156.731 206.183 157.019 206.652C157.317 207.121 157.52 207.633 157.627 208.188C157.744 208.743 157.792 209.271 157.771 209.772H151.579C151.568 210.135 151.611 210.481 151.707 210.812C151.803 211.132 151.957 211.42 152.171 211.676C152.384 211.921 152.656 212.119 152.987 212.268C153.317 212.417 153.707 212.492 154.155 212.492C154.731 212.492 155.2 212.359 155.563 212.092C155.936 211.825 156.181 211.42 156.299 210.876H157.642ZM159.18 205.228H160.46V206.54H160.492C161.058 205.537 161.954 205.036 163.18 205.036C163.724 205.036 164.178 205.111 164.54 205.26C164.903 205.409 165.196 205.617 165.42 205.884C165.644 206.151 165.799 206.471 165.884 206.844C165.98 207.207 166.028 207.612 166.028 208.06V213.5H164.668V207.9C164.668 207.388 164.519 206.983 164.22 206.684C163.922 206.385 163.511 206.236 162.988 206.236C162.572 206.236 162.21 206.3 161.9 206.428C161.602 206.556 161.351 206.737 161.148 206.972C160.946 207.207 160.791 207.484 160.684 207.804C160.588 208.113 160.54 208.455 160.54 208.828V213.5H159.18V205.228ZM169.959 205.228H171.607V206.428H169.959V211.564C169.959 211.724 169.97 211.852 169.991 211.948C170.023 212.044 170.076 212.119 170.151 212.172C170.226 212.225 170.327 212.263 170.455 212.284C170.594 212.295 170.77 212.3 170.983 212.3H171.607V213.5H170.567C170.215 213.5 169.911 213.479 169.655 213.436C169.41 213.383 169.207 213.292 169.047 213.164C168.898 213.036 168.786 212.855 168.711 212.62C168.636 212.385 168.599 212.076 168.599 211.692V206.428H167.191V205.228H168.599V202.748H169.959V205.228Z" fill="black" fill-opacity="0.68"/>
<path d="M298 208C298 199.163 305.163 192 314 192H364C372.837 192 380 199.163 380 208C380 216.837 372.837 224 364 224H314C305.163 224 298 216.837 298 208Z" fill="#FF7900"/>
<path fill-rule="evenodd" clip-rule="evenodd" d="M321.733 207.558L318 211.644L314.267 207.558L314.265 207.556C313.542 206.763 313.606 205.541 314.409 204.826C315.182 204.138 316.365 204.169 317.101 204.896C317.103 204.898 317.105 204.9 317.107 204.901L317.678 205.438L318 205.744L318.322 205.438L318.893 204.901C318.895 204.9 318.897 204.898 318.899 204.896C319.265 204.532 319.763 204.328 320.282 204.33C321.362 204.33 322.238 205.195 322.238 206.262C322.238 206.74 322.059 207.201 321.735 207.556L321.733 207.558ZM322.587 203.985C321.321 202.734 319.275 202.727 318 203.962C316.725 202.727 314.679 202.734 313.413 203.985C312.161 205.222 312.14 207.216 313.352 208.478L318 213.542L322.648 208.478C323.859 207.216 323.839 205.222 322.587 203.985Z" fill="black"/>
<path d="M330.966 203.004H333.164V211.152H338.036V213H330.966V203.004ZM339.146 207.988C339.174 207.521 339.29 207.134 339.496 206.826C339.701 206.518 339.962 206.271 340.28 206.084C340.597 205.897 340.952 205.767 341.344 205.692C341.745 205.608 342.146 205.566 342.548 205.566C342.912 205.566 343.28 205.594 343.654 205.65C344.027 205.697 344.368 205.795 344.676 205.944C344.984 206.093 345.236 206.303 345.432 206.574C345.628 206.835 345.726 207.185 345.726 207.624V211.39C345.726 211.717 345.744 212.029 345.782 212.328C345.819 212.627 345.884 212.851 345.978 213H343.962C343.924 212.888 343.892 212.776 343.864 212.664C343.845 212.543 343.831 212.421 343.822 212.3C343.504 212.627 343.131 212.855 342.702 212.986C342.272 213.117 341.834 213.182 341.386 213.182C341.04 213.182 340.718 213.14 340.42 213.056C340.121 212.972 339.86 212.841 339.636 212.664C339.412 212.487 339.234 212.263 339.104 211.992C338.982 211.721 338.922 211.399 338.922 211.026C338.922 210.615 338.992 210.279 339.132 210.018C339.281 209.747 339.468 209.533 339.692 209.374C339.925 209.215 340.186 209.099 340.476 209.024C340.774 208.94 341.073 208.875 341.372 208.828C341.67 208.781 341.964 208.744 342.254 208.716C342.543 208.688 342.8 208.646 343.024 208.59C343.248 208.534 343.425 208.455 343.556 208.352C343.686 208.24 343.747 208.081 343.738 207.876C343.738 207.661 343.7 207.493 343.626 207.372C343.56 207.241 343.467 207.143 343.346 207.078C343.234 207.003 343.098 206.957 342.94 206.938C342.79 206.91 342.627 206.896 342.45 206.896C342.058 206.896 341.75 206.98 341.526 207.148C341.302 207.316 341.171 207.596 341.134 207.988H339.146ZM343.738 209.458C343.654 209.533 343.546 209.593 343.416 209.64C343.294 209.677 343.159 209.71 343.01 209.738C342.87 209.766 342.72 209.789 342.562 209.808C342.403 209.827 342.244 209.85 342.086 209.878C341.936 209.906 341.787 209.943 341.638 209.99C341.498 210.037 341.372 210.102 341.26 210.186C341.157 210.261 341.073 210.359 341.008 210.48C340.942 210.601 340.91 210.755 340.91 210.942C340.91 211.119 340.942 211.269 341.008 211.39C341.073 211.511 341.162 211.609 341.274 211.684C341.386 211.749 341.516 211.796 341.666 211.824C341.815 211.852 341.969 211.866 342.128 211.866C342.52 211.866 342.823 211.801 343.038 211.67C343.252 211.539 343.411 211.385 343.514 211.208C343.616 211.021 343.677 210.835 343.696 210.648C343.724 210.461 343.738 210.312 343.738 210.2V209.458ZM352.75 209.388C352.75 209.08 352.717 208.786 352.652 208.506C352.587 208.226 352.484 207.979 352.344 207.764C352.204 207.549 352.027 207.381 351.812 207.26C351.607 207.129 351.355 207.064 351.056 207.064C350.767 207.064 350.515 207.129 350.3 207.26C350.085 207.381 349.908 207.549 349.768 207.764C349.628 207.979 349.525 208.226 349.46 208.506C349.395 208.786 349.362 209.08 349.362 209.388C349.362 209.687 349.395 209.976 349.46 210.256C349.525 210.536 349.628 210.783 349.768 210.998C349.908 211.213 350.085 211.385 350.3 211.516C350.515 211.637 350.767 211.698 351.056 211.698C351.355 211.698 351.607 211.637 351.812 211.516C352.027 211.385 352.204 211.213 352.344 210.998C352.484 210.783 352.587 210.536 352.652 210.256C352.717 209.976 352.75 209.687 352.75 209.388ZM347.444 203.004H349.432V206.644H349.46C349.703 206.271 350.029 206 350.44 205.832C350.86 205.655 351.294 205.566 351.742 205.566C352.106 205.566 352.465 205.641 352.82 205.79C353.175 205.939 353.492 206.168 353.772 206.476C354.061 206.784 354.295 207.181 354.472 207.666C354.649 208.142 354.738 208.711 354.738 209.374C354.738 210.037 354.649 210.611 354.472 211.096C354.295 211.572 354.061 211.964 353.772 212.272C353.492 212.58 353.175 212.809 352.82 212.958C352.465 213.107 352.106 213.182 351.742 213.182C351.21 213.182 350.734 213.098 350.314 212.93C349.894 212.762 349.577 212.477 349.362 212.076H349.334V213H347.444V203.004ZM361.049 208.604C360.956 208.1 360.788 207.717 360.545 207.456C360.312 207.195 359.953 207.064 359.467 207.064C359.15 207.064 358.884 207.12 358.669 207.232C358.464 207.335 358.296 207.465 358.165 207.624C358.044 207.783 357.955 207.951 357.899 208.128C357.853 208.305 357.825 208.464 357.815 208.604H361.049ZM357.815 209.864C357.843 210.508 358.007 210.975 358.305 211.264C358.604 211.553 359.033 211.698 359.593 211.698C359.995 211.698 360.34 211.6 360.629 211.404C360.919 211.199 361.096 210.984 361.161 210.76H362.911C362.631 211.628 362.202 212.249 361.623 212.622C361.045 212.995 360.345 213.182 359.523 213.182C358.954 213.182 358.441 213.093 357.983 212.916C357.526 212.729 357.139 212.468 356.821 212.132C356.504 211.796 356.257 211.395 356.079 210.928C355.911 210.461 355.827 209.948 355.827 209.388C355.827 208.847 355.916 208.343 356.093 207.876C356.271 207.409 356.523 207.008 356.849 206.672C357.176 206.327 357.563 206.056 358.011 205.86C358.469 205.664 358.973 205.566 359.523 205.566C360.139 205.566 360.676 205.687 361.133 205.93C361.591 206.163 361.964 206.481 362.253 206.882C362.552 207.283 362.767 207.741 362.897 208.254C363.028 208.767 363.075 209.304 363.037 209.864H357.815ZM364.448 203.004H366.436V213H364.448V203.004Z" fill="black"/>
<path d="M396 208C396 199.163 403.163 192 412 192H462C470.837 192 478 199.163 478 208C478 216.837 470.837 224 462 224H412C403.163 224 396 216.837 396 208Z" fill="#BD793C" fill-opacity="0.08"/>
<path fill-rule="evenodd" clip-rule="evenodd" d="M419.733 207.558L416 211.644L412.267 207.558L412.265 207.556C411.542 206.763 411.606 205.541 412.409 204.826C413.182 204.138 414.365 204.169 415.101 204.896C415.103 204.898 415.105 204.9 415.107 204.901L415.678 205.438L416 205.744L416.322 205.438L416.893 204.901C416.895 204.9 416.897 204.898 416.899 204.896C417.265 204.532 417.763 204.328 418.282 204.33C419.362 204.33 420.238 205.195 420.238 206.262C420.238 206.74 420.059 207.201 419.735 207.556L419.733 207.558ZM420.587 203.985C419.321 202.734 417.275 202.727 416 203.962C414.725 202.727 412.679 202.734 411.413 203.985C410.161 205.222 410.14 207.216 411.352 208.478L416 213.542L420.648 208.478C421.859 207.216 421.839 205.222 420.587 203.985Z" fill="#FF7900"/>
<path d="M428.966 203.004H431.164V211.152H436.036V213H428.966V203.004ZM437.146 207.988C437.174 207.521 437.29 207.134 437.496 206.826C437.701 206.518 437.962 206.271 438.28 206.084C438.597 205.897 438.952 205.767 439.344 205.692C439.745 205.608 440.146 205.566 440.548 205.566C440.912 205.566 441.28 205.594 441.654 205.65C442.027 205.697 442.368 205.795 442.676 205.944C442.984 206.093 443.236 206.303 443.432 206.574C443.628 206.835 443.726 207.185 443.726 207.624V211.39C443.726 211.717 443.744 212.029 443.782 212.328C443.819 212.627 443.884 212.851 443.978 213H441.962C441.924 212.888 441.892 212.776 441.864 212.664C441.845 212.543 441.831 212.421 441.822 212.3C441.504 212.627 441.131 212.855 440.702 212.986C440.272 213.117 439.834 213.182 439.386 213.182C439.04 213.182 438.718 213.14 438.42 213.056C438.121 212.972 437.86 212.841 437.636 212.664C437.412 212.487 437.234 212.263 437.104 211.992C436.982 211.721 436.922 211.399 436.922 211.026C436.922 210.615 436.992 210.279 437.132 210.018C437.281 209.747 437.468 209.533 437.692 209.374C437.925 209.215 438.186 209.099 438.476 209.024C438.774 208.94 439.073 208.875 439.372 208.828C439.67 208.781 439.964 208.744 440.254 208.716C440.543 208.688 440.8 208.646 441.024 208.59C441.248 208.534 441.425 208.455 441.556 208.352C441.686 208.24 441.747 208.081 441.738 207.876C441.738 207.661 441.7 207.493 441.626 207.372C441.56 207.241 441.467 207.143 441.346 207.078C441.234 207.003 441.098 206.957 440.94 206.938C440.79 206.91 440.627 206.896 440.45 206.896C440.058 206.896 439.75 206.98 439.526 207.148C439.302 207.316 439.171 207.596 439.134 207.988H437.146ZM441.738 209.458C441.654 209.533 441.546 209.593 441.416 209.64C441.294 209.677 441.159 209.71 441.01 209.738C440.87 209.766 440.72 209.789 440.562 209.808C440.403 209.827 440.244 209.85 440.086 209.878C439.936 209.906 439.787 209.943 439.638 209.99C439.498 210.037 439.372 210.102 439.26 210.186C439.157 210.261 439.073 210.359 439.008 210.48C438.942 210.601 438.91 210.755 438.91 210.942C438.91 211.119 438.942 211.269 439.008 211.39C439.073 211.511 439.162 211.609 439.274 211.684C439.386 211.749 439.516 211.796 439.666 211.824C439.815 211.852 439.969 211.866 440.128 211.866C440.52 211.866 440.823 211.801 441.038 211.67C441.252 211.539 441.411 211.385 441.514 211.208C441.616 211.021 441.677 210.835 441.696 210.648C441.724 210.461 441.738 210.312 441.738 210.2V209.458ZM450.75 209.388C450.75 209.08 450.717 208.786 450.652 208.506C450.587 208.226 450.484 207.979 450.344 207.764C450.204 207.549 450.027 207.381 449.812 207.26C449.607 207.129 449.355 207.064 449.056 207.064C448.767 207.064 448.515 207.129 448.3 207.26C448.085 207.381 447.908 207.549 447.768 207.764C447.628 207.979 447.525 208.226 447.46 208.506C447.395 208.786 447.362 209.08 447.362 209.388C447.362 209.687 447.395 209.976 447.46 210.256C447.525 210.536 447.628 210.783 447.768 210.998C447.908 211.213 448.085 211.385 448.3 211.516C448.515 211.637 448.767 211.698 449.056 211.698C449.355 211.698 449.607 211.637 449.812 211.516C450.027 211.385 450.204 211.213 450.344 210.998C450.484 210.783 450.587 210.536 450.652 210.256C450.717 209.976 450.75 209.687 450.75 209.388ZM445.444 203.004H447.432V206.644H447.46C447.703 206.271 448.029 206 448.44 205.832C448.86 205.655 449.294 205.566 449.742 205.566C450.106 205.566 450.465 205.641 450.82 205.79C451.175 205.939 451.492 206.168 451.772 206.476C452.061 206.784 452.295 207.181 452.472 207.666C452.649 208.142 452.738 208.711 452.738 209.374C452.738 210.037 452.649 210.611 452.472 211.096C452.295 211.572 452.061 211.964 451.772 212.272C451.492 212.58 451.175 212.809 450.82 212.958C450.465 213.107 450.106 213.182 449.742 213.182C449.21 213.182 448.734 213.098 448.314 212.93C447.894 212.762 447.577 212.477 447.362 212.076H447.334V213H445.444V203.004ZM459.049 208.604C458.956 208.1 458.788 207.717 458.545 207.456C458.312 207.195 457.953 207.064 457.467 207.064C457.15 207.064 456.884 207.12 456.669 207.232C456.464 207.335 456.296 207.465 456.165 207.624C456.044 207.783 455.955 207.951 455.899 208.128C455.853 208.305 455.825 208.464 455.815 208.604H459.049ZM455.815 209.864C455.843 210.508 456.007 210.975 456.305 211.264C456.604 211.553 457.033 211.698 457.593 211.698C457.995 211.698 458.34 211.6 458.629 211.404C458.919 211.199 459.096 210.984 459.161 210.76H460.911C460.631 211.628 460.202 212.249 459.623 212.622C459.045 212.995 458.345 213.182 457.523 213.182C456.954 213.182 456.441 213.093 455.983 212.916C455.526 212.729 455.139 212.468 454.821 212.132C454.504 211.796 454.257 211.395 454.079 210.928C453.911 210.461 453.827 209.948 453.827 209.388C453.827 208.847 453.916 208.343 454.093 207.876C454.271 207.409 454.523 207.008 454.849 206.672C455.176 206.327 455.563 206.056 456.011 205.86C456.469 205.664 456.973 205.566 457.523 205.566C458.139 205.566 458.676 205.687 459.133 205.93C459.591 206.163 459.964 206.481 460.253 206.882C460.552 207.283 460.767 207.741 460.897 208.254C461.028 208.767 461.075 209.304 461.037 209.864H455.815ZM462.448 203.004H464.436V213H462.448V203.004Z" fill="black"/>
</svg>
