<svg width="600" height="432" viewBox="0 0 600 432" fill="none" xmlns="http://www.w3.org/2000/svg">
<rect width="600" height="432" fill="black" fill-opacity="0.04"/>
<path d="M183.84 167.356H180.032V166.076H189.168V167.356H185.36V177.5H183.84V167.356ZM188.695 169.228H189.975V170.972H190.007C190.337 170.3 190.743 169.804 191.223 169.484C191.703 169.164 192.311 169.015 193.047 169.036V170.476C192.503 170.476 192.039 170.551 191.655 170.7C191.271 170.849 190.961 171.068 190.727 171.356C190.492 171.644 190.321 171.996 190.215 172.412C190.108 172.817 190.055 173.287 190.055 173.82V177.5H188.695V169.228ZM200.919 177.5H199.639V176.188H199.607C199.319 176.7 198.951 177.079 198.503 177.324C198.055 177.559 197.527 177.676 196.919 177.676C196.375 177.676 195.922 177.607 195.559 177.468C195.196 177.319 194.903 177.111 194.679 176.844C194.455 176.577 194.295 176.263 194.199 175.9C194.114 175.527 194.071 175.116 194.071 174.668V169.228H195.431V174.828C195.431 175.34 195.58 175.745 195.879 176.044C196.178 176.343 196.588 176.492 197.111 176.492C197.527 176.492 197.884 176.428 198.183 176.3C198.492 176.172 198.748 175.991 198.951 175.756C199.154 175.521 199.303 175.249 199.399 174.94C199.506 174.62 199.559 174.273 199.559 173.9V169.228H200.919V177.5ZM208.706 172.572C208.684 172.252 208.61 171.948 208.482 171.66C208.364 171.372 208.199 171.127 207.986 170.924C207.783 170.711 207.538 170.545 207.25 170.428C206.972 170.3 206.663 170.236 206.322 170.236C205.97 170.236 205.65 170.3 205.362 170.428C205.084 170.545 204.844 170.711 204.642 170.924C204.439 171.137 204.279 171.388 204.162 171.676C204.044 171.953 203.975 172.252 203.954 172.572H208.706ZM210.017 174.876C209.836 175.804 209.436 176.503 208.818 176.972C208.199 177.441 207.42 177.676 206.482 177.676C205.82 177.676 205.244 177.569 204.754 177.356C204.274 177.143 203.868 176.844 203.538 176.46C203.207 176.076 202.956 175.617 202.786 175.084C202.626 174.551 202.535 173.969 202.514 173.34C202.514 172.711 202.61 172.135 202.802 171.612C202.994 171.089 203.26 170.636 203.602 170.252C203.954 169.868 204.364 169.569 204.834 169.356C205.314 169.143 205.836 169.036 206.402 169.036C207.138 169.036 207.746 169.191 208.226 169.5C208.716 169.799 209.106 170.183 209.394 170.652C209.692 171.121 209.895 171.633 210.002 172.188C210.119 172.743 210.167 173.271 210.146 173.772H203.954C203.943 174.135 203.986 174.481 204.082 174.812C204.178 175.132 204.332 175.42 204.546 175.676C204.759 175.921 205.031 176.119 205.362 176.268C205.692 176.417 206.082 176.492 206.53 176.492C207.106 176.492 207.575 176.359 207.938 176.092C208.311 175.825 208.556 175.42 208.674 174.876H210.017Z" fill="black" fill-opacity="0.68"/>
<path d="M332 157H421C429.284 157 436 163.716 436 172C436 180.284 429.284 187 421 187H332C323.716 187 317 180.284 317 172C317 163.716 323.716 157 332 157Z" stroke="#F15E00" stroke-width="2"/>
<path fill-rule="evenodd" clip-rule="evenodd" d="M339.292 169.047L333.223 176.047C333.049 176.247 332.782 176.375 332.483 176.375C332.183 176.375 331.916 176.247 331.742 176.047L328.708 172.547C328.578 172.397 328.5 172.207 328.5 172C328.5 171.758 328.606 171.54 328.778 171.381L329.157 171.031C329.329 170.873 329.566 170.775 329.828 170.775C330.063 170.775 330.279 170.855 330.445 170.986L332.293 172.875L337.903 167.862C338.073 167.715 338.301 167.625 338.552 167.625C339.075 167.625 339.5 168.017 339.5 168.5C339.5 168.707 339.422 168.897 339.292 169.047Z" fill="#F15E00"/>
<path d="M349.447 167.004H351.197V175.488H356.279V177H349.447V167.004ZM363.499 175.39C363.499 175.586 363.523 175.726 363.569 175.81C363.625 175.894 363.728 175.936 363.877 175.936C363.924 175.936 363.98 175.936 364.045 175.936C364.111 175.936 364.185 175.927 364.269 175.908V177.014C364.213 177.033 364.139 177.051 364.045 177.07C363.961 177.098 363.873 177.121 363.779 177.14C363.686 177.159 363.593 177.173 363.499 177.182C363.406 177.191 363.327 177.196 363.261 177.196C362.935 177.196 362.664 177.131 362.449 177C362.235 176.869 362.095 176.641 362.029 176.314C361.712 176.622 361.32 176.846 360.853 176.986C360.396 177.126 359.953 177.196 359.523 177.196C359.197 177.196 358.884 177.149 358.585 177.056C358.287 176.972 358.021 176.846 357.787 176.678C357.563 176.501 357.381 176.281 357.241 176.02C357.111 175.749 357.045 175.437 357.045 175.082C357.045 174.634 357.125 174.27 357.283 173.99C357.451 173.71 357.666 173.491 357.927 173.332C358.198 173.173 358.497 173.061 358.823 172.996C359.159 172.921 359.495 172.865 359.831 172.828C360.121 172.772 360.396 172.735 360.657 172.716C360.919 172.688 361.147 172.646 361.343 172.59C361.549 172.534 361.707 172.45 361.819 172.338C361.941 172.217 362.001 172.039 362.001 171.806C362.001 171.601 361.95 171.433 361.847 171.302C361.754 171.171 361.633 171.073 361.483 171.008C361.343 170.933 361.185 170.887 361.007 170.868C360.83 170.84 360.662 170.826 360.503 170.826C360.055 170.826 359.687 170.919 359.397 171.106C359.108 171.293 358.945 171.582 358.907 171.974H357.311C357.339 171.507 357.451 171.12 357.647 170.812C357.843 170.504 358.091 170.257 358.389 170.07C358.697 169.883 359.043 169.753 359.425 169.678C359.808 169.603 360.2 169.566 360.601 169.566C360.956 169.566 361.306 169.603 361.651 169.678C361.997 169.753 362.305 169.874 362.575 170.042C362.855 170.21 363.079 170.429 363.247 170.7C363.415 170.961 363.499 171.283 363.499 171.666V175.39ZM361.903 173.374C361.661 173.533 361.362 173.631 361.007 173.668C360.653 173.696 360.298 173.743 359.943 173.808C359.775 173.836 359.612 173.878 359.453 173.934C359.295 173.981 359.155 174.051 359.033 174.144C358.912 174.228 358.814 174.345 358.739 174.494C358.674 174.634 358.641 174.807 358.641 175.012C358.641 175.189 358.693 175.339 358.795 175.46C358.898 175.581 359.019 175.679 359.159 175.754C359.309 175.819 359.467 175.866 359.635 175.894C359.813 175.922 359.971 175.936 360.111 175.936C360.289 175.936 360.48 175.913 360.685 175.866C360.891 175.819 361.082 175.74 361.259 175.628C361.446 175.516 361.6 175.376 361.721 175.208C361.843 175.031 361.903 174.816 361.903 174.564V173.374ZM365.434 167.004H367.03V170.7H367.058C367.17 170.523 367.305 170.364 367.464 170.224C367.622 170.084 367.795 169.967 367.982 169.874C368.178 169.771 368.378 169.697 368.584 169.65C368.798 169.594 369.008 169.566 369.214 169.566C369.783 169.566 370.278 169.669 370.698 169.874C371.127 170.07 371.482 170.345 371.762 170.7C372.042 171.045 372.252 171.451 372.392 171.918C372.532 172.385 372.602 172.884 372.602 173.416C372.602 173.901 372.536 174.373 372.406 174.83C372.284 175.287 372.093 175.693 371.832 176.048C371.58 176.393 371.258 176.673 370.866 176.888C370.474 177.093 370.012 177.196 369.48 177.196C369.237 177.196 368.99 177.177 368.738 177.14C368.495 177.112 368.262 177.051 368.038 176.958C367.814 176.865 367.608 176.743 367.422 176.594C367.244 176.445 367.095 176.249 366.974 176.006H366.946V177H365.434V167.004ZM371.006 173.388C371.006 173.061 370.964 172.744 370.88 172.436C370.796 172.128 370.67 171.857 370.502 171.624C370.334 171.381 370.124 171.19 369.872 171.05C369.62 170.901 369.33 170.826 369.004 170.826C368.332 170.826 367.823 171.059 367.478 171.526C367.142 171.993 366.974 172.613 366.974 173.388C366.974 173.752 367.016 174.093 367.1 174.41C367.193 174.718 367.328 174.984 367.506 175.208C367.683 175.432 367.893 175.609 368.136 175.74C368.388 175.871 368.677 175.936 369.004 175.936C369.368 175.936 369.676 175.861 369.928 175.712C370.18 175.563 370.385 175.371 370.544 175.138C370.712 174.895 370.828 174.625 370.894 174.326C370.968 174.018 371.006 173.705 371.006 173.388ZM379.095 172.744C379.077 172.492 379.021 172.249 378.927 172.016C378.843 171.783 378.722 171.582 378.563 171.414C378.414 171.237 378.227 171.097 378.003 170.994C377.789 170.882 377.546 170.826 377.275 170.826C376.995 170.826 376.739 170.877 376.505 170.98C376.281 171.073 376.085 171.209 375.917 171.386C375.759 171.554 375.628 171.755 375.525 171.988C375.432 172.221 375.381 172.473 375.371 172.744H379.095ZM375.371 173.794C375.371 174.074 375.409 174.345 375.483 174.606C375.567 174.867 375.689 175.096 375.847 175.292C376.006 175.488 376.207 175.647 376.449 175.768C376.692 175.88 376.981 175.936 377.317 175.936C377.784 175.936 378.157 175.838 378.437 175.642C378.727 175.437 378.941 175.133 379.081 174.732H380.593C380.509 175.124 380.365 175.474 380.159 175.782C379.954 176.09 379.707 176.351 379.417 176.566C379.128 176.771 378.801 176.925 378.437 177.028C378.083 177.14 377.709 177.196 377.317 177.196C376.748 177.196 376.244 177.103 375.805 176.916C375.367 176.729 374.993 176.468 374.685 176.132C374.387 175.796 374.158 175.395 373.999 174.928C373.85 174.461 373.775 173.948 373.775 173.388C373.775 172.875 373.855 172.389 374.013 171.932C374.181 171.465 374.415 171.059 374.713 170.714C375.021 170.359 375.39 170.079 375.819 169.874C376.249 169.669 376.734 169.566 377.275 169.566C377.845 169.566 378.353 169.687 378.801 169.93C379.259 170.163 379.637 170.476 379.935 170.868C380.234 171.26 380.449 171.713 380.579 172.226C380.719 172.73 380.757 173.253 380.691 173.794H375.371ZM382.122 167.004H383.718V177H382.122V167.004Z" fill="black"/>
<path d="M393 172C393 167.582 396.582 164 401 164C405.418 164 409 167.582 409 172C409 176.418 405.418 180 401 180C396.582 180 393 176.418 393 172Z" fill="#272727"/>
<path d="M401.938 176H400.918V169.904H398.71V169.088C398.998 169.088 399.278 169.068 399.55 169.028C399.822 168.98 400.066 168.896 400.282 168.776C400.506 168.656 400.694 168.492 400.846 168.284C400.998 168.076 401.102 167.812 401.158 167.492H401.938V176Z" fill="white"/>
<g clip-path="url(#clip0_60056_7893)">
<path d="M432.124 178.023L424.999 170.75L417.874 178.023L419.909 180.102L424.999 174.905L430.087 180.102L432.124 178.023Z" fill="black"/>
</g>
<path d="M181.248 254.076H188.752V255.356H182.768V258.988H188.016V260.268H182.768V265.5H181.248V254.076ZM197.54 265.468C197.305 265.607 196.98 265.676 196.564 265.676C196.212 265.676 195.929 265.58 195.716 265.388C195.513 265.185 195.412 264.86 195.412 264.412C195.038 264.86 194.601 265.185 194.1 265.388C193.609 265.58 193.076 265.676 192.5 265.676C192.126 265.676 191.769 265.633 191.428 265.548C191.097 265.463 190.809 265.329 190.564 265.148C190.318 264.967 190.121 264.732 189.972 264.444C189.833 264.145 189.764 263.788 189.764 263.372C189.764 262.903 189.844 262.519 190.004 262.22C190.164 261.921 190.372 261.681 190.628 261.5C190.894 261.308 191.193 261.164 191.524 261.068C191.865 260.972 192.212 260.892 192.564 260.828C192.937 260.753 193.289 260.7 193.62 260.668C193.961 260.625 194.26 260.572 194.516 260.508C194.772 260.433 194.974 260.332 195.124 260.204C195.273 260.065 195.348 259.868 195.348 259.612C195.348 259.313 195.289 259.073 195.172 258.892C195.065 258.711 194.921 258.572 194.74 258.476C194.569 258.38 194.372 258.316 194.148 258.284C193.934 258.252 193.721 258.236 193.508 258.236C192.932 258.236 192.452 258.348 192.068 258.572C191.684 258.785 191.476 259.196 191.444 259.804H190.084C190.105 259.292 190.212 258.86 190.404 258.508C190.596 258.156 190.852 257.873 191.172 257.66C191.492 257.436 191.854 257.276 192.26 257.18C192.676 257.084 193.118 257.036 193.588 257.036C193.961 257.036 194.329 257.063 194.692 257.116C195.065 257.169 195.401 257.281 195.7 257.452C195.998 257.612 196.238 257.841 196.42 258.14C196.601 258.439 196.692 258.828 196.692 259.308V263.564C196.692 263.884 196.708 264.119 196.74 264.268C196.782 264.417 196.91 264.492 197.124 264.492C197.241 264.492 197.38 264.465 197.54 264.412V265.468ZM195.332 261.228C195.161 261.356 194.937 261.452 194.66 261.516C194.382 261.569 194.089 261.617 193.78 261.66C193.481 261.692 193.177 261.735 192.868 261.788C192.558 261.831 192.281 261.905 192.036 262.012C191.79 262.119 191.588 262.273 191.428 262.476C191.278 262.668 191.204 262.935 191.204 263.276C191.204 263.5 191.246 263.692 191.332 263.852C191.428 264.001 191.545 264.124 191.684 264.22C191.833 264.316 192.004 264.385 192.196 264.428C192.388 264.471 192.59 264.492 192.804 264.492C193.252 264.492 193.636 264.433 193.956 264.316C194.276 264.188 194.537 264.033 194.74 263.852C194.942 263.66 195.092 263.457 195.188 263.244C195.284 263.02 195.332 262.812 195.332 262.62V261.228ZM198.885 254.076H200.245V265.5H198.885V254.076ZM203.184 262.892C203.195 263.191 203.264 263.447 203.392 263.66C203.52 263.863 203.685 264.028 203.888 264.156C204.101 264.273 204.336 264.359 204.592 264.412C204.859 264.465 205.131 264.492 205.408 264.492C205.621 264.492 205.845 264.476 206.08 264.444C206.315 264.412 206.528 264.353 206.72 264.268C206.923 264.183 207.088 264.06 207.216 263.9C207.344 263.729 207.408 263.516 207.408 263.26C207.408 262.908 207.275 262.641 207.008 262.46C206.741 262.279 206.405 262.135 206 262.028C205.605 261.911 205.173 261.809 204.704 261.724C204.235 261.628 203.797 261.5 203.392 261.34C202.997 261.169 202.667 260.935 202.4 260.636C202.133 260.337 202 259.921 202 259.388C202 258.972 202.091 258.615 202.272 258.316C202.464 258.017 202.704 257.777 202.992 257.596C203.291 257.404 203.621 257.265 203.984 257.18C204.357 257.084 204.725 257.036 205.088 257.036C205.557 257.036 205.989 257.079 206.384 257.164C206.779 257.239 207.125 257.377 207.424 257.58C207.733 257.772 207.979 258.039 208.16 258.38C208.341 258.711 208.448 259.127 208.48 259.628H207.12C207.099 259.361 207.029 259.143 206.912 258.972C206.795 258.791 206.645 258.647 206.464 258.54C206.283 258.433 206.08 258.359 205.856 258.316C205.643 258.263 205.424 258.236 205.2 258.236C204.997 258.236 204.789 258.252 204.576 258.284C204.373 258.316 204.187 258.375 204.016 258.46C203.845 258.535 203.707 258.641 203.6 258.78C203.493 258.908 203.44 259.079 203.44 259.292C203.44 259.527 203.52 259.724 203.68 259.884C203.851 260.033 204.064 260.161 204.32 260.268C204.576 260.364 204.864 260.449 205.184 260.524C205.504 260.588 205.824 260.657 206.144 260.732C206.485 260.807 206.816 260.897 207.136 261.004C207.467 261.111 207.755 261.255 208 261.436C208.256 261.607 208.459 261.825 208.608 262.092C208.768 262.359 208.848 262.689 208.848 263.084C208.848 263.585 208.741 264.001 208.528 264.332C208.325 264.663 208.053 264.929 207.712 265.132C207.381 265.335 207.003 265.473 206.576 265.548C206.16 265.633 205.744 265.676 205.328 265.676C204.869 265.676 204.432 265.628 204.016 265.532C203.6 265.436 203.232 265.281 202.912 265.068C202.592 264.844 202.336 264.556 202.144 264.204C201.952 263.841 201.845 263.404 201.824 262.892H203.184ZM216.096 260.572C216.075 260.252 216 259.948 215.872 259.66C215.755 259.372 215.589 259.127 215.376 258.924C215.173 258.711 214.928 258.545 214.64 258.428C214.363 258.3 214.053 258.236 213.712 258.236C213.36 258.236 213.04 258.3 212.752 258.428C212.475 258.545 212.235 258.711 212.032 258.924C211.829 259.137 211.669 259.388 211.552 259.676C211.435 259.953 211.365 260.252 211.344 260.572H216.096ZM217.408 262.876C217.227 263.804 216.827 264.503 216.208 264.972C215.589 265.441 214.811 265.676 213.872 265.676C213.211 265.676 212.635 265.569 212.144 265.356C211.664 265.143 211.259 264.844 210.928 264.46C210.597 264.076 210.347 263.617 210.176 263.084C210.016 262.551 209.925 261.969 209.904 261.34C209.904 260.711 210 260.135 210.192 259.612C210.384 259.089 210.651 258.636 210.992 258.252C211.344 257.868 211.755 257.569 212.224 257.356C212.704 257.143 213.227 257.036 213.792 257.036C214.528 257.036 215.136 257.191 215.616 257.5C216.107 257.799 216.496 258.183 216.784 258.652C217.083 259.121 217.285 259.633 217.392 260.188C217.509 260.743 217.557 261.271 217.536 261.772H211.344C211.333 262.135 211.376 262.481 211.472 262.812C211.568 263.132 211.723 263.42 211.936 263.676C212.149 263.921 212.421 264.119 212.752 264.268C213.083 264.417 213.472 264.492 213.92 264.492C214.496 264.492 214.965 264.359 215.328 264.092C215.701 263.825 215.947 263.42 216.064 262.876H217.408Z" fill="black" fill-opacity="0.68"/>
<mask id="path-11-inside-1_60056_7893" fill="white">
<path d="M316 260C316 251.163 323.163 244 332 244H421C429.837 244 437 251.163 437 260C437 268.837 429.837 276 421 276H332C323.163 276 316 268.837 316 260Z"/>
</mask>
<path d="M332 244V246H421V244V242H332V244ZM421 276V274H332V276V278H421V276ZM332 276V274C324.268 274 318 267.732 318 260H316H314C314 269.941 322.059 278 332 278V276ZM437 260H435C435 267.732 428.732 274 421 274V276V278C430.941 278 439 269.941 439 260H437ZM421 244V246C428.732 246 435 252.268 435 260H437H439C439 250.059 430.941 242 421 242V244ZM332 244V242C322.059 242 314 250.059 314 260H316H318C318 252.268 324.268 246 332 246V244Z" fill="#F15E00" mask="url(#path-11-inside-1_60056_7893)"/>
<path fill-rule="evenodd" clip-rule="evenodd" d="M339.292 257.047L333.223 264.047C333.049 264.247 332.782 264.375 332.483 264.375C332.183 264.375 331.916 264.247 331.742 264.047L328.708 260.547C328.578 260.397 328.5 260.207 328.5 260C328.5 259.758 328.606 259.54 328.778 259.381L329.157 259.031C329.329 258.873 329.566 258.775 329.828 258.775C330.063 258.775 330.279 258.855 330.445 258.986L332.293 260.875L337.903 255.862C338.073 255.715 338.301 255.625 338.552 255.625C339.075 255.625 339.5 256.017 339.5 256.5C339.5 256.707 339.422 256.897 339.292 257.047Z" fill="#F15E00"/>
<path d="M349.447 255.004H351.197V263.488H356.279V265H349.447V255.004ZM363.499 263.39C363.499 263.586 363.523 263.726 363.569 263.81C363.625 263.894 363.728 263.936 363.877 263.936C363.924 263.936 363.98 263.936 364.045 263.936C364.111 263.936 364.185 263.927 364.269 263.908V265.014C364.213 265.033 364.139 265.051 364.045 265.07C363.961 265.098 363.873 265.121 363.779 265.14C363.686 265.159 363.593 265.173 363.499 265.182C363.406 265.191 363.327 265.196 363.261 265.196C362.935 265.196 362.664 265.131 362.449 265C362.235 264.869 362.095 264.641 362.029 264.314C361.712 264.622 361.32 264.846 360.853 264.986C360.396 265.126 359.953 265.196 359.523 265.196C359.197 265.196 358.884 265.149 358.585 265.056C358.287 264.972 358.021 264.846 357.787 264.678C357.563 264.501 357.381 264.281 357.241 264.02C357.111 263.749 357.045 263.437 357.045 263.082C357.045 262.634 357.125 262.27 357.283 261.99C357.451 261.71 357.666 261.491 357.927 261.332C358.198 261.173 358.497 261.061 358.823 260.996C359.159 260.921 359.495 260.865 359.831 260.828C360.121 260.772 360.396 260.735 360.657 260.716C360.919 260.688 361.147 260.646 361.343 260.59C361.549 260.534 361.707 260.45 361.819 260.338C361.941 260.217 362.001 260.039 362.001 259.806C362.001 259.601 361.95 259.433 361.847 259.302C361.754 259.171 361.633 259.073 361.483 259.008C361.343 258.933 361.185 258.887 361.007 258.868C360.83 258.84 360.662 258.826 360.503 258.826C360.055 258.826 359.687 258.919 359.397 259.106C359.108 259.293 358.945 259.582 358.907 259.974H357.311C357.339 259.507 357.451 259.12 357.647 258.812C357.843 258.504 358.091 258.257 358.389 258.07C358.697 257.883 359.043 257.753 359.425 257.678C359.808 257.603 360.2 257.566 360.601 257.566C360.956 257.566 361.306 257.603 361.651 257.678C361.997 257.753 362.305 257.874 362.575 258.042C362.855 258.21 363.079 258.429 363.247 258.7C363.415 258.961 363.499 259.283 363.499 259.666V263.39ZM361.903 261.374C361.661 261.533 361.362 261.631 361.007 261.668C360.653 261.696 360.298 261.743 359.943 261.808C359.775 261.836 359.612 261.878 359.453 261.934C359.295 261.981 359.155 262.051 359.033 262.144C358.912 262.228 358.814 262.345 358.739 262.494C358.674 262.634 358.641 262.807 358.641 263.012C358.641 263.189 358.693 263.339 358.795 263.46C358.898 263.581 359.019 263.679 359.159 263.754C359.309 263.819 359.467 263.866 359.635 263.894C359.813 263.922 359.971 263.936 360.111 263.936C360.289 263.936 360.48 263.913 360.685 263.866C360.891 263.819 361.082 263.74 361.259 263.628C361.446 263.516 361.6 263.376 361.721 263.208C361.843 263.031 361.903 262.816 361.903 262.564V261.374ZM365.434 255.004H367.03V258.7H367.058C367.17 258.523 367.305 258.364 367.464 258.224C367.622 258.084 367.795 257.967 367.982 257.874C368.178 257.771 368.378 257.697 368.584 257.65C368.798 257.594 369.008 257.566 369.214 257.566C369.783 257.566 370.278 257.669 370.698 257.874C371.127 258.07 371.482 258.345 371.762 258.7C372.042 259.045 372.252 259.451 372.392 259.918C372.532 260.385 372.602 260.884 372.602 261.416C372.602 261.901 372.536 262.373 372.406 262.83C372.284 263.287 372.093 263.693 371.832 264.048C371.58 264.393 371.258 264.673 370.866 264.888C370.474 265.093 370.012 265.196 369.48 265.196C369.237 265.196 368.99 265.177 368.738 265.14C368.495 265.112 368.262 265.051 368.038 264.958C367.814 264.865 367.608 264.743 367.422 264.594C367.244 264.445 367.095 264.249 366.974 264.006H366.946V265H365.434V255.004ZM371.006 261.388C371.006 261.061 370.964 260.744 370.88 260.436C370.796 260.128 370.67 259.857 370.502 259.624C370.334 259.381 370.124 259.19 369.872 259.05C369.62 258.901 369.33 258.826 369.004 258.826C368.332 258.826 367.823 259.059 367.478 259.526C367.142 259.993 366.974 260.613 366.974 261.388C366.974 261.752 367.016 262.093 367.1 262.41C367.193 262.718 367.328 262.984 367.506 263.208C367.683 263.432 367.893 263.609 368.136 263.74C368.388 263.871 368.677 263.936 369.004 263.936C369.368 263.936 369.676 263.861 369.928 263.712C370.18 263.563 370.385 263.371 370.544 263.138C370.712 262.895 370.828 262.625 370.894 262.326C370.968 262.018 371.006 261.705 371.006 261.388ZM379.095 260.744C379.077 260.492 379.021 260.249 378.927 260.016C378.843 259.783 378.722 259.582 378.563 259.414C378.414 259.237 378.227 259.097 378.003 258.994C377.789 258.882 377.546 258.826 377.275 258.826C376.995 258.826 376.739 258.877 376.505 258.98C376.281 259.073 376.085 259.209 375.917 259.386C375.759 259.554 375.628 259.755 375.525 259.988C375.432 260.221 375.381 260.473 375.371 260.744H379.095ZM375.371 261.794C375.371 262.074 375.409 262.345 375.483 262.606C375.567 262.867 375.689 263.096 375.847 263.292C376.006 263.488 376.207 263.647 376.449 263.768C376.692 263.88 376.981 263.936 377.317 263.936C377.784 263.936 378.157 263.838 378.437 263.642C378.727 263.437 378.941 263.133 379.081 262.732H380.593C380.509 263.124 380.365 263.474 380.159 263.782C379.954 264.09 379.707 264.351 379.417 264.566C379.128 264.771 378.801 264.925 378.437 265.028C378.083 265.14 377.709 265.196 377.317 265.196C376.748 265.196 376.244 265.103 375.805 264.916C375.367 264.729 374.993 264.468 374.685 264.132C374.387 263.796 374.158 263.395 373.999 262.928C373.85 262.461 373.775 261.948 373.775 261.388C373.775 260.875 373.855 260.389 374.013 259.932C374.181 259.465 374.415 259.059 374.713 258.714C375.021 258.359 375.39 258.079 375.819 257.874C376.249 257.669 376.734 257.566 377.275 257.566C377.845 257.566 378.353 257.687 378.801 257.93C379.259 258.163 379.637 258.476 379.935 258.868C380.234 259.26 380.449 259.713 380.579 260.226C380.719 260.73 380.757 261.253 380.691 261.794H375.371ZM382.122 255.004H383.718V265H382.122V255.004Z" fill="black"/>
<path d="M393 260C393 255.582 396.582 252 401 252C405.418 252 409 255.582 409 260C409 264.418 405.418 268 401 268C396.582 268 393 264.418 393 260Z" fill="#272727"/>
<path d="M401.938 264H400.918V257.904H398.71V257.088C398.998 257.088 399.278 257.068 399.55 257.028C399.822 256.98 400.066 256.896 400.282 256.776C400.506 256.656 400.694 256.492 400.846 256.284C400.998 256.076 401.102 255.812 401.158 255.492H401.938V264Z" fill="white"/>
<g clip-path="url(#clip1_60056_7893)">
<path d="M417.874 261.977L424.999 269.25L432.124 261.977L430.089 259.898L424.999 265.095L419.911 259.898L417.874 261.977Z" fill="black"/>
</g>
<defs>
<clipPath id="clip0_60056_7893">
<rect width="24" height="24" fill="white" transform="translate(413 164)"/>
</clipPath>
<clipPath id="clip1_60056_7893">
<rect width="24" height="24" fill="white" transform="translate(413 252)"/>
</clipPath>
</defs>
</svg>
