<svg width="600" height="222" viewBox="0 0 600 222" fill="none" xmlns="http://www.w3.org/2000/svg">
<rect width="600" height="222" fill="black" fill-opacity="0.04"/>
<path d="M187.856 64.42C187.771 63.5987 187.472 63.0067 186.96 62.644C186.459 62.2707 185.813 62.084 185.024 62.084C184.704 62.084 184.389 62.116 184.08 62.18C183.771 62.244 183.493 62.3507 183.248 62.5C183.013 62.6493 182.821 62.852 182.672 63.108C182.533 63.3533 182.464 63.6627 182.464 64.036C182.464 64.388 182.565 64.676 182.768 64.9C182.981 65.1133 183.259 65.2893 183.6 65.428C183.952 65.5667 184.347 65.684 184.784 65.78C185.221 65.8653 185.664 65.9613 186.112 66.068C186.571 66.1747 187.019 66.3027 187.456 66.452C187.893 66.5907 188.283 66.7827 188.624 67.028C188.976 67.2733 189.253 67.5827 189.456 67.956C189.669 68.3293 189.776 68.7987 189.776 69.364C189.776 69.972 189.637 70.4947 189.36 70.932C189.093 71.3587 188.747 71.7107 188.32 71.988C187.893 72.2547 187.413 72.4467 186.88 72.564C186.357 72.692 185.835 72.756 185.312 72.756C184.672 72.756 184.064 72.676 183.488 72.516C182.923 72.356 182.421 72.116 181.984 71.796C181.557 71.4653 181.216 71.0493 180.96 70.548C180.715 70.036 180.592 69.4333 180.592 68.74H182.032C182.032 69.22 182.123 69.636 182.304 69.988C182.496 70.3293 182.741 70.612 183.04 70.836C183.349 71.06 183.707 71.2253 184.112 71.332C184.517 71.4387 184.933 71.492 185.36 71.492C185.701 71.492 186.043 71.46 186.384 71.396C186.736 71.332 187.051 71.2253 187.328 71.076C187.605 70.916 187.829 70.7027 188 70.436C188.171 70.1693 188.256 69.828 188.256 69.412C188.256 69.0173 188.149 68.6973 187.936 68.452C187.733 68.2067 187.456 68.0093 187.104 67.86C186.763 67.7 186.373 67.572 185.936 67.476C185.499 67.38 185.051 67.284 184.592 67.188C184.144 67.0813 183.701 66.964 183.264 66.836C182.827 66.6973 182.432 66.5213 182.08 66.308C181.739 66.084 181.461 65.8013 181.248 65.46C181.045 65.108 180.944 64.6707 180.944 64.148C180.944 63.572 181.061 63.076 181.296 62.66C181.531 62.2333 181.84 61.8867 182.224 61.62C182.619 61.3427 183.061 61.14 183.552 61.012C184.053 60.8733 184.565 60.804 185.088 60.804C185.675 60.804 186.219 60.8733 186.72 61.012C187.221 61.1507 187.659 61.3693 188.032 61.668C188.416 61.9667 188.715 62.3453 188.928 62.804C189.152 63.252 189.275 63.7907 189.296 64.42H187.856ZM197.143 67.572C197.122 67.252 197.047 66.948 196.919 66.66C196.802 66.372 196.636 66.1267 196.423 65.924C196.22 65.7107 195.975 65.5453 195.687 65.428C195.41 65.3 195.1 65.236 194.759 65.236C194.407 65.236 194.087 65.3 193.799 65.428C193.522 65.5453 193.282 65.7107 193.079 65.924C192.876 66.1373 192.716 66.388 192.599 66.676C192.482 66.9533 192.412 67.252 192.391 67.572H197.143ZM198.455 69.876C198.274 70.804 197.874 71.5027 197.255 71.972C196.636 72.4413 195.858 72.676 194.919 72.676C194.258 72.676 193.682 72.5693 193.191 72.356C192.711 72.1427 192.306 71.844 191.975 71.46C191.644 71.076 191.394 70.6173 191.223 70.084C191.063 69.5507 190.972 68.9693 190.951 68.34C190.951 67.7107 191.047 67.1347 191.239 66.612C191.431 66.0893 191.698 65.636 192.039 65.252C192.391 64.868 192.802 64.5693 193.271 64.356C193.751 64.1427 194.274 64.036 194.839 64.036C195.575 64.036 196.183 64.1907 196.663 64.5C197.154 64.7987 197.543 65.1827 197.831 65.652C198.13 66.1213 198.332 66.6333 198.439 67.188C198.556 67.7427 198.604 68.2707 198.583 68.772H192.391C192.38 69.1347 192.423 69.4813 192.519 69.812C192.615 70.132 192.77 70.42 192.983 70.676C193.196 70.9213 193.468 71.1187 193.799 71.268C194.13 71.4173 194.519 71.492 194.967 71.492C195.543 71.492 196.012 71.3587 196.375 71.092C196.748 70.8253 196.994 70.42 197.111 69.876H198.455ZM200.073 61.076H201.433V72.5H200.073V61.076ZM209.284 67.572C209.262 67.252 209.188 66.948 209.06 66.66C208.942 66.372 208.777 66.1267 208.564 65.924C208.361 65.7107 208.116 65.5453 207.828 65.428C207.55 65.3 207.241 65.236 206.9 65.236C206.548 65.236 206.228 65.3 205.94 65.428C205.662 65.5453 205.422 65.7107 205.22 65.924C205.017 66.1373 204.857 66.388 204.74 66.676C204.622 66.9533 204.553 67.252 204.532 67.572H209.284ZM210.596 69.876C210.414 70.804 210.014 71.5027 209.396 71.972C208.777 72.4413 207.998 72.676 207.06 72.676C206.398 72.676 205.822 72.5693 205.332 72.356C204.852 72.1427 204.446 71.844 204.116 71.46C203.785 71.076 203.534 70.6173 203.364 70.084C203.204 69.5507 203.113 68.9693 203.092 68.34C203.092 67.7107 203.188 67.1347 203.38 66.612C203.572 66.0893 203.838 65.636 204.18 65.252C204.532 64.868 204.942 64.5693 205.412 64.356C205.892 64.1427 206.414 64.036 206.98 64.036C207.716 64.036 208.324 64.1907 208.804 64.5C209.294 64.7987 209.684 65.1827 209.972 65.652C210.27 66.1213 210.473 66.6333 210.58 67.188C210.697 67.7427 210.745 68.2707 210.724 68.772H204.532C204.521 69.1347 204.564 69.4813 204.66 69.812C204.756 70.132 204.91 70.42 205.124 70.676C205.337 70.9213 205.609 71.1187 205.94 71.268C206.27 71.4173 206.66 71.492 207.108 71.492C207.684 71.492 208.153 71.3587 208.516 71.092C208.889 70.8253 209.134 70.42 209.252 69.876H210.596ZM217.749 66.884C217.643 66.3613 217.419 65.956 217.077 65.668C216.736 65.38 216.277 65.236 215.701 65.236C215.211 65.236 214.8 65.3267 214.469 65.508C214.139 65.6893 213.872 65.9293 213.669 66.228C213.477 66.5267 213.339 66.8733 213.253 67.268C213.168 67.652 213.125 68.052 213.125 68.468C213.125 68.852 213.168 69.2253 213.253 69.588C213.349 69.9507 213.493 70.276 213.685 70.564C213.877 70.8413 214.128 71.0653 214.437 71.236C214.747 71.4067 215.115 71.492 215.541 71.492C216.213 71.492 216.736 71.316 217.109 70.964C217.493 70.612 217.728 70.116 217.813 69.476H219.205C219.056 70.5 218.672 71.2893 218.053 71.844C217.445 72.3987 216.613 72.676 215.557 72.676C214.928 72.676 214.368 72.5747 213.877 72.372C213.397 72.1693 212.992 71.8813 212.661 71.508C212.341 71.1347 212.096 70.692 211.925 70.18C211.765 69.6573 211.685 69.0867 211.685 68.468C211.685 67.8493 211.765 67.2733 211.925 66.74C212.085 66.196 212.325 65.7267 212.645 65.332C212.976 64.9267 213.387 64.612 213.877 64.388C214.368 64.1533 214.939 64.036 215.589 64.036C216.059 64.036 216.496 64.0947 216.901 64.212C217.317 64.3187 217.68 64.4893 217.989 64.724C218.309 64.9587 218.571 65.2573 218.773 65.62C218.976 65.972 219.104 66.3933 219.157 66.884H217.749ZM222.615 64.228H224.263V65.428H222.615V70.564C222.615 70.724 222.626 70.852 222.647 70.948C222.679 71.044 222.732 71.1187 222.807 71.172C222.882 71.2253 222.983 71.2627 223.111 71.284C223.25 71.2947 223.426 71.3 223.639 71.3H224.263V72.5H223.223C222.871 72.5 222.567 72.4787 222.311 72.436C222.066 72.3827 221.863 72.292 221.703 72.164C221.554 72.036 221.442 71.8547 221.367 71.62C221.292 71.3853 221.255 71.076 221.255 70.692V65.428H219.847V64.228H221.255V61.748H222.615V64.228ZM231.518 67.572C231.497 67.252 231.422 66.948 231.294 66.66C231.177 66.372 231.011 66.1267 230.798 65.924C230.595 65.7107 230.35 65.5453 230.062 65.428C229.785 65.3 229.475 65.236 229.134 65.236C228.782 65.236 228.462 65.3 228.174 65.428C227.897 65.5453 227.657 65.7107 227.454 65.924C227.251 66.1373 227.091 66.388 226.974 66.676C226.857 66.9533 226.787 67.252 226.766 67.572H231.518ZM232.83 69.876C232.649 70.804 232.249 71.5027 231.63 71.972C231.011 72.4413 230.233 72.676 229.294 72.676C228.633 72.676 228.057 72.5693 227.566 72.356C227.086 72.1427 226.681 71.844 226.35 71.46C226.019 71.076 225.769 70.6173 225.598 70.084C225.438 69.5507 225.347 68.9693 225.326 68.34C225.326 67.7107 225.422 67.1347 225.614 66.612C225.806 66.0893 226.073 65.636 226.414 65.252C226.766 64.868 227.177 64.5693 227.646 64.356C228.126 64.1427 228.649 64.036 229.214 64.036C229.95 64.036 230.558 64.1907 231.038 64.5C231.529 64.7987 231.918 65.1827 232.206 65.652C232.505 66.1213 232.707 66.6333 232.814 67.188C232.931 67.7427 232.979 68.2707 232.958 68.772H226.766C226.755 69.1347 226.798 69.4813 226.894 69.812C226.99 70.132 227.145 70.42 227.358 70.676C227.571 70.9213 227.843 71.1187 228.174 71.268C228.505 71.4173 228.894 71.492 229.342 71.492C229.918 71.492 230.387 71.3587 230.75 71.092C231.123 70.8253 231.369 70.42 231.486 69.876H232.83ZM235.36 68.436C235.36 68.82 235.408 69.1987 235.504 69.572C235.61 69.9347 235.765 70.26 235.968 70.548C236.181 70.836 236.448 71.0653 236.768 71.236C237.098 71.4067 237.482 71.492 237.92 71.492C238.378 71.492 238.768 71.4013 239.088 71.22C239.408 71.0387 239.669 70.804 239.872 70.516C240.074 70.2173 240.218 69.8813 240.304 69.508C240.4 69.1347 240.448 68.756 240.448 68.372C240.448 67.9667 240.4 67.5773 240.304 67.204C240.208 66.82 240.053 66.484 239.84 66.196C239.637 65.908 239.37 65.6787 239.04 65.508C238.709 65.3267 238.309 65.236 237.84 65.236C237.381 65.236 236.992 65.3267 236.672 65.508C236.352 65.6893 236.096 65.9293 235.904 66.228C235.712 66.5267 235.573 66.868 235.488 67.252C235.402 67.636 235.36 68.0307 235.36 68.436ZM241.76 72.5H240.4V71.38H240.368C240.144 71.8387 239.792 72.1693 239.312 72.372C238.832 72.5747 238.304 72.676 237.728 72.676C237.088 72.676 236.528 72.5587 236.048 72.324C235.578 72.0893 235.184 71.7747 234.864 71.38C234.554 70.9853 234.32 70.5267 234.16 70.004C234 69.4813 233.92 68.9267 233.92 68.34C233.92 67.7533 233.994 67.1987 234.144 66.676C234.304 66.1533 234.538 65.7 234.848 65.316C235.168 64.9213 235.562 64.612 236.032 64.388C236.512 64.1533 237.066 64.036 237.696 64.036C237.909 64.036 238.138 64.0573 238.384 64.1C238.629 64.1427 238.874 64.2173 239.12 64.324C239.365 64.42 239.594 64.5533 239.808 64.724C240.032 64.884 240.218 65.0867 240.368 65.332H240.4V61.076H241.76V72.5Z" fill="black" fill-opacity="0.68"/>
<mask id="path-2-inside-1_58894_15657" fill="white">
<path d="M316 67C316 58.1634 323.163 51 332 51H421C429.837 51 437 58.1634 437 67C437 75.8366 429.837 83 421 83H332C323.163 83 316 75.8366 316 67Z"/>
</mask>
<path d="M332 51V53H421V51V49H332V51ZM421 83V81H332V83V85H421V83ZM332 83V81C324.268 81 318 74.732 318 67H316H314C314 76.9411 322.059 85 332 85V83ZM437 67H435C435 74.732 428.732 81 421 81V83V85C430.941 85 439 76.9411 439 67H437ZM421 51V53C428.732 53 435 59.268 435 67H437H439C439 57.0589 430.941 49 421 49V51ZM332 51V49C322.059 49 314 57.0589 314 67H316H318C318 59.268 324.268 53 332 53V51Z" fill="#F15E00" mask="url(#path-2-inside-1_58894_15657)"/>
<path fill-rule="evenodd" clip-rule="evenodd" d="M339.292 64.0466L333.223 71.0466C333.049 71.2468 332.782 71.375 332.483 71.375C332.183 71.375 331.916 71.2467 331.742 71.0465L328.708 67.5466C328.578 67.3968 328.5 67.2068 328.5 67C328.5 66.7584 328.606 66.5396 328.778 66.3813L329.157 66.0313C329.329 65.8729 329.566 65.775 329.828 65.775C330.063 65.775 330.279 65.8545 330.445 65.9858L332.293 67.875L337.903 62.8617C338.073 62.7149 338.301 62.625 338.552 62.625C339.075 62.625 339.5 63.0168 339.5 63.5C339.5 63.7068 339.422 63.8968 339.292 64.0466Z" fill="#F15E00"/>
<path d="M349.447 62.004H351.197V70.488H356.279V72H349.447V62.004ZM363.499 70.39C363.499 70.586 363.523 70.726 363.569 70.81C363.625 70.894 363.728 70.936 363.877 70.936C363.924 70.936 363.98 70.936 364.045 70.936C364.111 70.936 364.185 70.9267 364.269 70.908V72.014C364.213 72.0327 364.139 72.0513 364.045 72.07C363.961 72.098 363.873 72.1213 363.779 72.14C363.686 72.1587 363.593 72.1727 363.499 72.182C363.406 72.1913 363.327 72.196 363.261 72.196C362.935 72.196 362.664 72.1307 362.449 72C362.235 71.8693 362.095 71.6407 362.029 71.314C361.712 71.622 361.32 71.846 360.853 71.986C360.396 72.126 359.953 72.196 359.523 72.196C359.197 72.196 358.884 72.1493 358.585 72.056C358.287 71.972 358.021 71.846 357.787 71.678C357.563 71.5007 357.381 71.2813 357.241 71.02C357.111 70.7493 357.045 70.4367 357.045 70.082C357.045 69.634 357.125 69.27 357.283 68.99C357.451 68.71 357.666 68.4907 357.927 68.332C358.198 68.1733 358.497 68.0613 358.823 67.996C359.159 67.9213 359.495 67.8653 359.831 67.828C360.121 67.772 360.396 67.7347 360.657 67.716C360.919 67.688 361.147 67.646 361.343 67.59C361.549 67.534 361.707 67.45 361.819 67.338C361.941 67.2167 362.001 67.0393 362.001 66.806C362.001 66.6007 361.95 66.4327 361.847 66.302C361.754 66.1713 361.633 66.0733 361.483 66.008C361.343 65.9333 361.185 65.8867 361.007 65.868C360.83 65.84 360.662 65.826 360.503 65.826C360.055 65.826 359.687 65.9193 359.397 66.106C359.108 66.2927 358.945 66.582 358.907 66.974H357.311C357.339 66.5073 357.451 66.12 357.647 65.812C357.843 65.504 358.091 65.2567 358.389 65.07C358.697 64.8833 359.043 64.7527 359.425 64.678C359.808 64.6033 360.2 64.566 360.601 64.566C360.956 64.566 361.306 64.6033 361.651 64.678C361.997 64.7527 362.305 64.874 362.575 65.042C362.855 65.21 363.079 65.4293 363.247 65.7C363.415 65.9613 363.499 66.2833 363.499 66.666V70.39ZM361.903 68.374C361.661 68.5327 361.362 68.6307 361.007 68.668C360.653 68.696 360.298 68.7427 359.943 68.808C359.775 68.836 359.612 68.878 359.453 68.934C359.295 68.9807 359.155 69.0507 359.033 69.144C358.912 69.228 358.814 69.3447 358.739 69.494C358.674 69.634 358.641 69.8067 358.641 70.012C358.641 70.1893 358.693 70.3387 358.795 70.46C358.898 70.5813 359.019 70.6793 359.159 70.754C359.309 70.8193 359.467 70.866 359.635 70.894C359.813 70.922 359.971 70.936 360.111 70.936C360.289 70.936 360.48 70.9127 360.685 70.866C360.891 70.8193 361.082 70.74 361.259 70.628C361.446 70.516 361.6 70.376 361.721 70.208C361.843 70.0307 361.903 69.816 361.903 69.564V68.374ZM365.434 62.004H367.03V65.7H367.058C367.17 65.5227 367.305 65.364 367.464 65.224C367.622 65.084 367.795 64.9673 367.982 64.874C368.178 64.7713 368.378 64.6967 368.584 64.65C368.798 64.594 369.008 64.566 369.214 64.566C369.783 64.566 370.278 64.6687 370.698 64.874C371.127 65.07 371.482 65.3453 371.762 65.7C372.042 66.0453 372.252 66.4513 372.392 66.918C372.532 67.3847 372.602 67.884 372.602 68.416C372.602 68.9013 372.536 69.3727 372.406 69.83C372.284 70.2873 372.093 70.6933 371.832 71.048C371.58 71.3933 371.258 71.6733 370.866 71.888C370.474 72.0933 370.012 72.196 369.48 72.196C369.237 72.196 368.99 72.1773 368.738 72.14C368.495 72.112 368.262 72.0513 368.038 71.958C367.814 71.8647 367.608 71.7433 367.422 71.594C367.244 71.4447 367.095 71.2487 366.974 71.006H366.946V72H365.434V62.004ZM371.006 68.388C371.006 68.0613 370.964 67.744 370.88 67.436C370.796 67.128 370.67 66.8573 370.502 66.624C370.334 66.3813 370.124 66.19 369.872 66.05C369.62 65.9007 369.33 65.826 369.004 65.826C368.332 65.826 367.823 66.0593 367.478 66.526C367.142 66.9927 366.974 67.6133 366.974 68.388C366.974 68.752 367.016 69.0927 367.1 69.41C367.193 69.718 367.328 69.984 367.506 70.208C367.683 70.432 367.893 70.6093 368.136 70.74C368.388 70.8707 368.677 70.936 369.004 70.936C369.368 70.936 369.676 70.8613 369.928 70.712C370.18 70.5627 370.385 70.3713 370.544 70.138C370.712 69.8953 370.828 69.6247 370.894 69.326C370.968 69.018 371.006 68.7053 371.006 68.388ZM379.095 67.744C379.077 67.492 379.021 67.2493 378.927 67.016C378.843 66.7827 378.722 66.582 378.563 66.414C378.414 66.2367 378.227 66.0967 378.003 65.994C377.789 65.882 377.546 65.826 377.275 65.826C376.995 65.826 376.739 65.8773 376.505 65.98C376.281 66.0733 376.085 66.2087 375.917 66.386C375.759 66.554 375.628 66.7547 375.525 66.988C375.432 67.2213 375.381 67.4733 375.371 67.744H379.095ZM375.371 68.794C375.371 69.074 375.409 69.3447 375.483 69.606C375.567 69.8673 375.689 70.096 375.847 70.292C376.006 70.488 376.207 70.6467 376.449 70.768C376.692 70.88 376.981 70.936 377.317 70.936C377.784 70.936 378.157 70.838 378.437 70.642C378.727 70.4367 378.941 70.1333 379.081 69.732H380.593C380.509 70.124 380.365 70.474 380.159 70.782C379.954 71.09 379.707 71.3513 379.417 71.566C379.128 71.7713 378.801 71.9253 378.437 72.028C378.083 72.14 377.709 72.196 377.317 72.196C376.748 72.196 376.244 72.1027 375.805 71.916C375.367 71.7293 374.993 71.468 374.685 71.132C374.387 70.796 374.158 70.3947 373.999 69.928C373.85 69.4613 373.775 68.948 373.775 68.388C373.775 67.8747 373.855 67.3893 374.013 66.932C374.181 66.4653 374.415 66.0593 374.713 65.714C375.021 65.3593 375.39 65.0793 375.819 64.874C376.249 64.6687 376.734 64.566 377.275 64.566C377.845 64.566 378.353 64.6873 378.801 64.93C379.259 65.1633 379.637 65.476 379.935 65.868C380.234 66.26 380.449 66.7127 380.579 67.226C380.719 67.73 380.757 68.2527 380.691 68.794H375.371ZM382.122 62.004H383.718V72H382.122V62.004Z" fill="black"/>
<path d="M393 67C393 62.5817 396.582 59 401 59C405.418 59 409 62.5817 409 67C409 71.4183 405.418 75 401 75C396.582 75 393 71.4183 393 67Z" fill="#272727"/>
<path d="M401.938 71H400.918V64.904H398.71V64.088C398.998 64.088 399.278 64.068 399.55 64.028C399.822 63.98 400.066 63.896 400.282 63.776C400.506 63.656 400.694 63.492 400.846 63.284C400.998 63.076 401.102 62.812 401.158 62.492H401.938V71Z" fill="white"/>
<g clip-path="url(#clip0_58894_15657)">
<path d="M417.874 68.9766L424.999 76.25L432.124 68.9766L430.089 66.8984L424.999 72.0948L419.911 66.8984L417.874 68.9766Z" fill="black"/>
</g>
<path d="M190.368 156.372C190.368 157.833 189.979 158.932 189.2 159.668C188.421 160.393 187.312 160.756 185.872 160.756C184.4 160.756 183.248 160.409 182.416 159.716C181.595 159.012 181.184 157.897 181.184 156.372V149.076H182.704V156.372C182.704 157.396 182.976 158.175 183.52 158.708C184.064 159.231 184.848 159.492 185.872 159.492C186.843 159.492 187.579 159.231 188.08 158.708C188.592 158.175 188.848 157.396 188.848 156.372V149.076H190.368V156.372ZM192.571 152.228H193.851V153.54H193.883C194.448 152.537 195.344 152.036 196.571 152.036C197.115 152.036 197.568 152.111 197.931 152.26C198.294 152.409 198.587 152.617 198.811 152.884C199.035 153.151 199.19 153.471 199.275 153.844C199.371 154.207 199.419 154.612 199.419 155.06V160.5H198.059V154.9C198.059 154.388 197.91 153.983 197.611 153.684C197.312 153.385 196.902 153.236 196.379 153.236C195.963 153.236 195.6 153.3 195.291 153.428C194.992 153.556 194.742 153.737 194.539 153.972C194.336 154.207 194.182 154.484 194.075 154.804C193.979 155.113 193.931 155.455 193.931 155.828V160.5H192.571V152.228ZM202.294 157.892C202.304 158.191 202.374 158.447 202.502 158.66C202.63 158.863 202.795 159.028 202.998 159.156C203.211 159.273 203.446 159.359 203.702 159.412C203.968 159.465 204.24 159.492 204.518 159.492C204.731 159.492 204.955 159.476 205.19 159.444C205.424 159.412 205.638 159.353 205.83 159.268C206.032 159.183 206.198 159.06 206.326 158.9C206.454 158.729 206.518 158.516 206.518 158.26C206.518 157.908 206.384 157.641 206.118 157.46C205.851 157.279 205.515 157.135 205.11 157.028C204.715 156.911 204.283 156.809 203.814 156.724C203.344 156.628 202.907 156.5 202.502 156.34C202.107 156.169 201.776 155.935 201.51 155.636C201.243 155.337 201.11 154.921 201.11 154.388C201.11 153.972 201.2 153.615 201.382 153.316C201.574 153.017 201.814 152.777 202.102 152.596C202.4 152.404 202.731 152.265 203.094 152.18C203.467 152.084 203.835 152.036 204.198 152.036C204.667 152.036 205.099 152.079 205.494 152.164C205.888 152.239 206.235 152.377 206.534 152.58C206.843 152.772 207.088 153.039 207.27 153.38C207.451 153.711 207.558 154.127 207.59 154.628H206.23C206.208 154.361 206.139 154.143 206.022 153.972C205.904 153.791 205.755 153.647 205.574 153.54C205.392 153.433 205.19 153.359 204.966 153.316C204.752 153.263 204.534 153.236 204.31 153.236C204.107 153.236 203.899 153.252 203.686 153.284C203.483 153.316 203.296 153.375 203.126 153.46C202.955 153.535 202.816 153.641 202.71 153.78C202.603 153.908 202.549 154.079 202.549 154.292C202.549 154.527 202.629 154.724 202.789 154.884C202.96 155.033 203.174 155.161 203.43 155.268C203.686 155.364 203.974 155.449 204.294 155.524C204.614 155.588 204.934 155.657 205.254 155.732C205.595 155.807 205.926 155.897 206.246 156.004C206.576 156.111 206.864 156.255 207.11 156.436C207.366 156.607 207.568 156.825 207.718 157.092C207.878 157.359 207.958 157.689 207.958 158.084C207.958 158.585 207.851 159.001 207.638 159.332C207.435 159.663 207.163 159.929 206.822 160.132C206.491 160.335 206.112 160.473 205.686 160.548C205.27 160.633 204.854 160.676 204.438 160.676C203.979 160.676 203.542 160.628 203.126 160.532C202.71 160.436 202.342 160.281 202.022 160.068C201.702 159.844 201.446 159.556 201.254 159.204C201.062 158.841 200.955 158.404 200.934 157.892H202.294ZM215.206 155.572C215.184 155.252 215.11 154.948 214.982 154.66C214.864 154.372 214.699 154.127 214.486 153.924C214.283 153.711 214.038 153.545 213.75 153.428C213.472 153.3 213.163 153.236 212.822 153.236C212.47 153.236 212.15 153.3 211.862 153.428C211.584 153.545 211.344 153.711 211.142 153.924C210.939 154.137 210.779 154.388 210.662 154.676C210.544 154.953 210.475 155.252 210.454 155.572H215.206ZM216.517 157.876C216.336 158.804 215.936 159.503 215.318 159.972C214.699 160.441 213.92 160.676 212.982 160.676C212.32 160.676 211.744 160.569 211.254 160.356C210.774 160.143 210.368 159.844 210.038 159.46C209.707 159.076 209.456 158.617 209.286 158.084C209.126 157.551 209.035 156.969 209.014 156.34C209.014 155.711 209.11 155.135 209.302 154.612C209.494 154.089 209.76 153.636 210.102 153.252C210.454 152.868 210.864 152.569 211.334 152.356C211.814 152.143 212.336 152.036 212.902 152.036C213.638 152.036 214.246 152.191 214.726 152.5C215.216 152.799 215.606 153.183 215.894 153.652C216.192 154.121 216.395 154.633 216.502 155.188C216.619 155.743 216.667 156.271 216.646 156.772H210.454C210.443 157.135 210.486 157.481 210.582 157.812C210.678 158.132 210.832 158.42 211.046 158.676C211.259 158.921 211.531 159.119 211.862 159.268C212.192 159.417 212.582 159.492 213.03 159.492C213.606 159.492 214.075 159.359 214.438 159.092C214.811 158.825 215.056 158.42 215.174 157.876H216.517ZM218.135 149.076H219.495V160.5H218.135V149.076ZM227.346 155.572C227.325 155.252 227.25 154.948 227.122 154.66C227.005 154.372 226.839 154.127 226.626 153.924C226.423 153.711 226.178 153.545 225.89 153.428C225.613 153.3 225.303 153.236 224.962 153.236C224.61 153.236 224.29 153.3 224.002 153.428C223.725 153.545 223.485 153.711 223.282 153.924C223.079 154.137 222.919 154.388 222.802 154.676C222.685 154.953 222.615 155.252 222.594 155.572H227.346ZM228.658 157.876C228.477 158.804 228.077 159.503 227.458 159.972C226.839 160.441 226.061 160.676 225.122 160.676C224.461 160.676 223.885 160.569 223.394 160.356C222.914 160.143 222.509 159.844 222.178 159.46C221.847 159.076 221.597 158.617 221.426 158.084C221.266 157.551 221.175 156.969 221.154 156.34C221.154 155.711 221.25 155.135 221.442 154.612C221.634 154.089 221.901 153.636 222.242 153.252C222.594 152.868 223.005 152.569 223.474 152.356C223.954 152.143 224.477 152.036 225.042 152.036C225.778 152.036 226.386 152.191 226.866 152.5C227.357 152.799 227.746 153.183 228.034 153.652C228.333 154.121 228.535 154.633 228.642 155.188C228.759 155.743 228.807 156.271 228.786 156.772H222.594C222.583 157.135 222.626 157.481 222.722 157.812C222.818 158.132 222.973 158.42 223.186 158.676C223.399 158.921 223.671 159.119 224.002 159.268C224.333 159.417 224.722 159.492 225.17 159.492C225.746 159.492 226.215 159.359 226.578 159.092C226.951 158.825 227.197 158.42 227.314 157.876H228.658ZM235.812 154.884C235.705 154.361 235.481 153.956 235.14 153.668C234.799 153.38 234.34 153.236 233.764 153.236C233.273 153.236 232.863 153.327 232.532 153.508C232.201 153.689 231.935 153.929 231.732 154.228C231.54 154.527 231.401 154.873 231.316 155.268C231.231 155.652 231.188 156.052 231.188 156.468C231.188 156.852 231.231 157.225 231.316 157.588C231.412 157.951 231.556 158.276 231.748 158.564C231.94 158.841 232.191 159.065 232.5 159.236C232.809 159.407 233.177 159.492 233.604 159.492C234.276 159.492 234.799 159.316 235.172 158.964C235.556 158.612 235.791 158.116 235.876 157.476H237.268C237.119 158.5 236.735 159.289 236.116 159.844C235.508 160.399 234.676 160.676 233.62 160.676C232.991 160.676 232.431 160.575 231.94 160.372C231.46 160.169 231.055 159.881 230.724 159.508C230.404 159.135 230.159 158.692 229.988 158.18C229.828 157.657 229.748 157.087 229.748 156.468C229.748 155.849 229.828 155.273 229.988 154.74C230.148 154.196 230.388 153.727 230.708 153.332C231.039 152.927 231.449 152.612 231.94 152.388C232.431 152.153 233.001 152.036 233.652 152.036C234.121 152.036 234.559 152.095 234.964 152.212C235.38 152.319 235.743 152.489 236.052 152.724C236.372 152.959 236.633 153.257 236.836 153.62C237.039 153.972 237.167 154.393 237.22 154.884H235.812ZM240.678 152.228H242.326V153.428H240.678V158.564C240.678 158.724 240.688 158.852 240.71 158.948C240.742 159.044 240.795 159.119 240.87 159.172C240.944 159.225 241.046 159.263 241.174 159.284C241.312 159.295 241.488 159.3 241.702 159.3H242.326V160.5H241.286C240.934 160.5 240.63 160.479 240.374 160.436C240.128 160.383 239.926 160.292 239.766 160.164C239.616 160.036 239.504 159.855 239.43 159.62C239.355 159.385 239.318 159.076 239.318 158.692V153.428H237.91V152.228H239.318V149.748H240.678V152.228ZM249.581 155.572C249.559 155.252 249.485 154.948 249.357 154.66C249.239 154.372 249.074 154.127 248.861 153.924C248.658 153.711 248.413 153.545 248.125 153.428C247.847 153.3 247.538 153.236 247.197 153.236C246.845 153.236 246.525 153.3 246.237 153.428C245.959 153.545 245.719 153.711 245.517 153.924C245.314 154.137 245.154 154.388 245.037 154.676C244.919 154.953 244.85 155.252 244.829 155.572H249.581ZM250.892 157.876C250.711 158.804 250.311 159.503 249.693 159.972C249.074 160.441 248.295 160.676 247.357 160.676C246.695 160.676 246.119 160.569 245.629 160.356C245.149 160.143 244.743 159.844 244.413 159.46C244.082 159.076 243.831 158.617 243.661 158.084C243.501 157.551 243.41 156.969 243.389 156.34C243.389 155.711 243.485 155.135 243.677 154.612C243.869 154.089 244.135 153.636 244.477 153.252C244.829 152.868 245.239 152.569 245.709 152.356C246.189 152.143 246.711 152.036 247.277 152.036C248.013 152.036 248.621 152.191 249.101 152.5C249.591 152.799 249.981 153.183 250.269 153.652C250.567 154.121 250.77 154.633 250.877 155.188C250.994 155.743 251.042 156.271 251.021 156.772H244.829C244.818 157.135 244.861 157.481 244.957 157.812C245.053 158.132 245.207 158.42 245.421 158.676C245.634 158.921 245.906 159.119 246.237 159.268C246.567 159.417 246.957 159.492 247.405 159.492C247.981 159.492 248.45 159.359 248.813 159.092C249.186 158.825 249.431 158.42 249.549 157.876H250.892ZM253.422 156.436C253.422 156.82 253.47 157.199 253.566 157.572C253.673 157.935 253.828 158.26 254.03 158.548C254.244 158.836 254.51 159.065 254.83 159.236C255.161 159.407 255.545 159.492 255.982 159.492C256.441 159.492 256.83 159.401 257.15 159.22C257.47 159.039 257.732 158.804 257.934 158.516C258.137 158.217 258.281 157.881 258.366 157.508C258.462 157.135 258.51 156.756 258.51 156.372C258.51 155.967 258.462 155.577 258.366 155.204C258.27 154.82 258.116 154.484 257.902 154.196C257.7 153.908 257.433 153.679 257.102 153.508C256.772 153.327 256.372 153.236 255.902 153.236C255.444 153.236 255.054 153.327 254.734 153.508C254.414 153.689 254.158 153.929 253.966 154.228C253.774 154.527 253.636 154.868 253.55 155.252C253.465 155.636 253.422 156.031 253.422 156.436ZM259.822 160.5H258.462V159.38H258.43C258.206 159.839 257.854 160.169 257.374 160.372C256.894 160.575 256.366 160.676 255.79 160.676C255.15 160.676 254.59 160.559 254.11 160.324C253.641 160.089 253.246 159.775 252.926 159.38C252.617 158.985 252.382 158.527 252.222 158.004C252.062 157.481 251.982 156.927 251.982 156.34C251.982 155.753 252.057 155.199 252.206 154.676C252.366 154.153 252.601 153.7 252.91 153.316C253.23 152.921 253.625 152.612 254.094 152.388C254.574 152.153 255.129 152.036 255.758 152.036C255.972 152.036 256.201 152.057 256.446 152.1C256.692 152.143 256.937 152.217 257.182 152.324C257.428 152.42 257.657 152.553 257.87 152.724C258.094 152.884 258.281 153.087 258.43 153.332H258.462V149.076H259.822V160.5Z" fill="black" fill-opacity="0.68"/>
<path d="M332 139.5H383C391.56 139.5 398.5 146.44 398.5 155C398.5 163.56 391.56 170.5 383 170.5H332C323.44 170.5 316.5 163.56 316.5 155C316.5 146.44 323.44 139.5 332 139.5Z" stroke="black" stroke-opacity="0.2"/>
<path d="M333.447 150.004H335.197V158.488H340.279V160H333.447V150.004ZM347.499 158.39C347.499 158.586 347.523 158.726 347.569 158.81C347.625 158.894 347.728 158.936 347.877 158.936C347.924 158.936 347.98 158.936 348.045 158.936C348.111 158.936 348.185 158.927 348.269 158.908V160.014C348.213 160.033 348.139 160.051 348.045 160.07C347.961 160.098 347.873 160.121 347.779 160.14C347.686 160.159 347.593 160.173 347.499 160.182C347.406 160.191 347.327 160.196 347.261 160.196C346.935 160.196 346.664 160.131 346.449 160C346.235 159.869 346.095 159.641 346.029 159.314C345.712 159.622 345.32 159.846 344.853 159.986C344.396 160.126 343.953 160.196 343.523 160.196C343.197 160.196 342.884 160.149 342.585 160.056C342.287 159.972 342.021 159.846 341.787 159.678C341.563 159.501 341.381 159.281 341.241 159.02C341.111 158.749 341.045 158.437 341.045 158.082C341.045 157.634 341.125 157.27 341.283 156.99C341.451 156.71 341.666 156.491 341.927 156.332C342.198 156.173 342.497 156.061 342.823 155.996C343.159 155.921 343.495 155.865 343.831 155.828C344.121 155.772 344.396 155.735 344.657 155.716C344.919 155.688 345.147 155.646 345.343 155.59C345.549 155.534 345.707 155.45 345.819 155.338C345.941 155.217 346.001 155.039 346.001 154.806C346.001 154.601 345.95 154.433 345.847 154.302C345.754 154.171 345.633 154.073 345.483 154.008C345.343 153.933 345.185 153.887 345.007 153.868C344.83 153.84 344.662 153.826 344.503 153.826C344.055 153.826 343.687 153.919 343.397 154.106C343.108 154.293 342.945 154.582 342.907 154.974H341.311C341.339 154.507 341.451 154.12 341.647 153.812C341.843 153.504 342.091 153.257 342.389 153.07C342.697 152.883 343.043 152.753 343.425 152.678C343.808 152.603 344.2 152.566 344.601 152.566C344.956 152.566 345.306 152.603 345.651 152.678C345.997 152.753 346.305 152.874 346.575 153.042C346.855 153.21 347.079 153.429 347.247 153.7C347.415 153.961 347.499 154.283 347.499 154.666V158.39ZM345.903 156.374C345.661 156.533 345.362 156.631 345.007 156.668C344.653 156.696 344.298 156.743 343.943 156.808C343.775 156.836 343.612 156.878 343.453 156.934C343.295 156.981 343.155 157.051 343.033 157.144C342.912 157.228 342.814 157.345 342.739 157.494C342.674 157.634 342.641 157.807 342.641 158.012C342.641 158.189 342.693 158.339 342.795 158.46C342.898 158.581 343.019 158.679 343.159 158.754C343.309 158.819 343.467 158.866 343.635 158.894C343.813 158.922 343.971 158.936 344.111 158.936C344.289 158.936 344.48 158.913 344.685 158.866C344.891 158.819 345.082 158.74 345.259 158.628C345.446 158.516 345.6 158.376 345.721 158.208C345.843 158.031 345.903 157.816 345.903 157.564V156.374ZM349.434 150.004H351.03V153.7H351.058C351.17 153.523 351.305 153.364 351.464 153.224C351.622 153.084 351.795 152.967 351.982 152.874C352.178 152.771 352.378 152.697 352.584 152.65C352.798 152.594 353.008 152.566 353.214 152.566C353.783 152.566 354.278 152.669 354.698 152.874C355.127 153.07 355.482 153.345 355.762 153.7C356.042 154.045 356.252 154.451 356.392 154.918C356.532 155.385 356.602 155.884 356.602 156.416C356.602 156.901 356.536 157.373 356.406 157.83C356.284 158.287 356.093 158.693 355.832 159.048C355.58 159.393 355.258 159.673 354.866 159.888C354.474 160.093 354.012 160.196 353.48 160.196C353.237 160.196 352.99 160.177 352.738 160.14C352.495 160.112 352.262 160.051 352.038 159.958C351.814 159.865 351.608 159.743 351.422 159.594C351.244 159.445 351.095 159.249 350.974 159.006H350.946V160H349.434V150.004ZM355.006 156.388C355.006 156.061 354.964 155.744 354.88 155.436C354.796 155.128 354.67 154.857 354.502 154.624C354.334 154.381 354.124 154.19 353.872 154.05C353.62 153.901 353.33 153.826 353.004 153.826C352.332 153.826 351.823 154.059 351.478 154.526C351.142 154.993 350.974 155.613 350.974 156.388C350.974 156.752 351.016 157.093 351.1 157.41C351.193 157.718 351.328 157.984 351.506 158.208C351.683 158.432 351.893 158.609 352.136 158.74C352.388 158.871 352.677 158.936 353.004 158.936C353.368 158.936 353.676 158.861 353.928 158.712C354.18 158.563 354.385 158.371 354.544 158.138C354.712 157.895 354.828 157.625 354.894 157.326C354.968 157.018 355.006 156.705 355.006 156.388ZM363.095 155.744C363.077 155.492 363.021 155.249 362.927 155.016C362.843 154.783 362.722 154.582 362.563 154.414C362.414 154.237 362.227 154.097 362.003 153.994C361.789 153.882 361.546 153.826 361.275 153.826C360.995 153.826 360.739 153.877 360.505 153.98C360.281 154.073 360.085 154.209 359.917 154.386C359.759 154.554 359.628 154.755 359.525 154.988C359.432 155.221 359.381 155.473 359.371 155.744H363.095ZM359.371 156.794C359.371 157.074 359.409 157.345 359.483 157.606C359.567 157.867 359.689 158.096 359.847 158.292C360.006 158.488 360.207 158.647 360.449 158.768C360.692 158.88 360.981 158.936 361.317 158.936C361.784 158.936 362.157 158.838 362.437 158.642C362.727 158.437 362.941 158.133 363.081 157.732H364.593C364.509 158.124 364.365 158.474 364.159 158.782C363.954 159.09 363.707 159.351 363.417 159.566C363.128 159.771 362.801 159.925 362.437 160.028C362.083 160.14 361.709 160.196 361.317 160.196C360.748 160.196 360.244 160.103 359.805 159.916C359.367 159.729 358.993 159.468 358.685 159.132C358.387 158.796 358.158 158.395 357.999 157.928C357.85 157.461 357.775 156.948 357.775 156.388C357.775 155.875 357.855 155.389 358.013 154.932C358.181 154.465 358.415 154.059 358.713 153.714C359.021 153.359 359.39 153.079 359.819 152.874C360.249 152.669 360.734 152.566 361.275 152.566C361.845 152.566 362.353 152.687 362.801 152.93C363.259 153.163 363.637 153.476 363.935 153.868C364.234 154.26 364.449 154.713 364.579 155.226C364.719 155.73 364.757 156.253 364.691 156.794H359.371ZM366.122 150.004H367.718V160H366.122V150.004Z" fill="black"/>
<g clip-path="url(#clip1_58894_15657)">
<path d="M379.874 156.977L386.999 164.25L394.124 156.977L392.089 154.898L386.999 160.095L381.911 154.898L379.874 156.977Z" fill="black"/>
</g>
<defs>
<clipPath id="clip0_58894_15657">
<rect width="24" height="24" fill="white" transform="translate(413 59)"/>
</clipPath>
<clipPath id="clip1_58894_15657">
<rect width="24" height="24" fill="white" transform="translate(375 147)"/>
</clipPath>
</defs>
</svg>
