<svg width="600" height="724" viewBox="0 0 600 724" fill="none" xmlns="http://www.w3.org/2000/svg">
<rect width="600" height="724" fill="black" fill-opacity="0.04"/>
<path d="M181.248 86.076H189.136V87.356H182.768V90.988H188.704V92.268H182.768V96.22H189.184V97.5H181.248V86.076ZM190.805 89.228H192.085V90.54H192.117C192.683 89.5373 193.579 89.036 194.805 89.036C195.349 89.036 195.803 89.1107 196.165 89.26C196.528 89.4093 196.821 89.6173 197.045 89.884C197.269 90.1507 197.424 90.4707 197.509 90.844C197.605 91.2067 197.653 91.612 197.653 92.06V97.5H196.293V91.9C196.293 91.388 196.144 90.9827 195.845 90.684C195.547 90.3853 195.136 90.236 194.613 90.236C194.197 90.236 193.835 90.3 193.525 90.428C193.227 90.556 192.976 90.7373 192.773 90.972C192.571 91.2067 192.416 91.484 192.309 91.804C192.213 92.1133 192.165 92.4547 192.165 92.828V97.5H190.805V89.228ZM207.024 97.468C206.789 97.6067 206.464 97.676 206.048 97.676C205.696 97.676 205.413 97.58 205.2 97.388C204.997 97.1853 204.896 96.86 204.896 96.412C204.523 96.86 204.085 97.1853 203.584 97.388C203.093 97.58 202.56 97.676 201.984 97.676C201.611 97.676 201.253 97.6333 200.912 97.548C200.581 97.4627 200.293 97.3293 200.048 97.148C199.803 96.9667 199.605 96.732 199.456 96.444C199.317 96.1453 199.248 95.788 199.248 95.372C199.248 94.9027 199.328 94.5187 199.488 94.22C199.648 93.9213 199.856 93.6813 200.112 93.5C200.379 93.308 200.677 93.164 201.008 93.068C201.349 92.972 201.696 92.892 202.048 92.828C202.421 92.7533 202.773 92.7 203.104 92.668C203.445 92.6253 203.744 92.572 204 92.508C204.256 92.4333 204.459 92.332 204.608 92.204C204.757 92.0653 204.832 91.868 204.832 91.612C204.832 91.3133 204.773 91.0733 204.656 90.892C204.549 90.7107 204.405 90.572 204.224 90.476C204.053 90.38 203.856 90.316 203.632 90.284C203.419 90.252 203.205 90.236 202.992 90.236C202.416 90.236 201.936 90.348 201.552 90.572C201.168 90.7853 200.96 91.196 200.928 91.804H199.568C199.589 91.292 199.696 90.86 199.888 90.508C200.08 90.156 200.336 89.8733 200.656 89.66C200.976 89.436 201.339 89.276 201.744 89.18C202.16 89.084 202.603 89.036 203.072 89.036C203.445 89.036 203.813 89.0627 204.176 89.116C204.549 89.1693 204.885 89.2813 205.184 89.452C205.483 89.612 205.723 89.8413 205.904 90.14C206.085 90.4387 206.176 90.828 206.176 91.308V95.564C206.176 95.884 206.192 96.1187 206.224 96.268C206.267 96.4173 206.395 96.492 206.608 96.492C206.725 96.492 206.864 96.4653 207.024 96.412V97.468ZM204.816 93.228C204.645 93.356 204.421 93.452 204.144 93.516C203.867 93.5693 203.573 93.6173 203.264 93.66C202.965 93.692 202.661 93.7347 202.352 93.788C202.043 93.8307 201.765 93.9053 201.52 94.012C201.275 94.1187 201.072 94.2733 200.912 94.476C200.763 94.668 200.688 94.9347 200.688 95.276C200.688 95.5 200.731 95.692 200.816 95.852C200.912 96.0013 201.029 96.124 201.168 96.22C201.317 96.316 201.488 96.3853 201.68 96.428C201.872 96.4707 202.075 96.492 202.288 96.492C202.736 96.492 203.12 96.4333 203.44 96.316C203.76 96.188 204.021 96.0333 204.224 95.852C204.427 95.66 204.576 95.4573 204.672 95.244C204.768 95.02 204.816 94.812 204.816 94.62V93.228ZM208.338 86.076H209.698V90.348H209.73C209.954 89.8893 210.306 89.5587 210.786 89.356C211.266 89.1427 211.794 89.036 212.37 89.036C213.01 89.036 213.564 89.1533 214.034 89.388C214.514 89.6227 214.908 89.9427 215.218 90.348C215.538 90.7427 215.778 91.2013 215.938 91.724C216.098 92.2467 216.178 92.8013 216.178 93.388C216.178 93.9747 216.098 94.5293 215.938 95.052C215.788 95.5747 215.554 96.0333 215.234 96.428C214.924 96.812 214.53 97.116 214.05 97.34C213.58 97.564 213.031 97.676 212.402 97.676C212.199 97.676 211.97 97.6547 211.714 97.612C211.468 97.5693 211.223 97.5 210.978 97.404C210.732 97.308 210.498 97.18 210.274 97.02C210.06 96.8493 209.879 96.6413 209.73 96.396H209.698V97.5H208.338V86.076ZM214.738 93.292C214.738 92.908 214.684 92.5347 214.578 92.172C214.482 91.7987 214.327 91.468 214.114 91.18C213.911 90.892 213.644 90.6627 213.314 90.492C212.994 90.3213 212.615 90.236 212.178 90.236C211.719 90.236 211.33 90.3267 211.01 90.508C210.69 90.6893 210.428 90.9293 210.226 91.228C210.023 91.516 209.874 91.8467 209.778 92.22C209.692 92.5933 209.65 92.972 209.65 93.356C209.65 93.7613 209.698 94.156 209.794 94.54C209.89 94.9133 210.039 95.244 210.242 95.532C210.455 95.82 210.727 96.0547 211.058 96.236C211.388 96.4067 211.788 96.492 212.258 96.492C212.727 96.492 213.116 96.4013 213.426 96.22C213.746 96.0387 214.002 95.7987 214.194 95.5C214.386 95.2013 214.524 94.86 214.61 94.476C214.695 94.092 214.738 93.6973 214.738 93.292ZM217.854 86.076H219.214V97.5H217.854V86.076ZM227.065 92.572C227.044 92.252 226.969 91.948 226.841 91.66C226.724 91.372 226.558 91.1267 226.345 90.924C226.142 90.7107 225.897 90.5453 225.609 90.428C225.332 90.3 225.022 90.236 224.681 90.236C224.329 90.236 224.009 90.3 223.721 90.428C223.444 90.5453 223.204 90.7107 223.001 90.924C222.798 91.1373 222.638 91.388 222.521 91.676C222.404 91.9533 222.334 92.252 222.313 92.572H227.065ZM228.377 94.876C228.196 95.804 227.796 96.5027 227.177 96.972C226.558 97.4413 225.78 97.676 224.841 97.676C224.18 97.676 223.604 97.5693 223.113 97.356C222.633 97.1427 222.228 96.844 221.897 96.46C221.566 96.076 221.316 95.6173 221.145 95.084C220.985 94.5507 220.894 93.9693 220.873 93.34C220.873 92.7107 220.969 92.1347 221.161 91.612C221.353 91.0893 221.62 90.636 221.961 90.252C222.313 89.868 222.724 89.5693 223.193 89.356C223.673 89.1427 224.196 89.036 224.761 89.036C225.497 89.036 226.105 89.1907 226.585 89.5C227.076 89.7987 227.465 90.1827 227.753 90.652C228.052 91.1213 228.254 91.6333 228.361 92.188C228.478 92.7427 228.526 93.2707 228.505 93.772H222.313C222.302 94.1347 222.345 94.4813 222.441 94.812C222.537 95.132 222.692 95.42 222.905 95.676C223.118 95.9213 223.39 96.1187 223.721 96.268C224.052 96.4173 224.441 96.492 224.889 96.492C225.465 96.492 225.934 96.3587 226.297 96.092C226.67 95.8253 226.916 95.42 227.033 94.876H228.377ZM230.907 93.436C230.907 93.82 230.955 94.1987 231.051 94.572C231.157 94.9347 231.312 95.26 231.515 95.548C231.728 95.836 231.995 96.0653 232.315 96.236C232.645 96.4067 233.029 96.492 233.467 96.492C233.925 96.492 234.315 96.4013 234.635 96.22C234.955 96.0387 235.216 95.804 235.419 95.516C235.621 95.2173 235.765 94.8813 235.851 94.508C235.947 94.1347 235.995 93.756 235.995 93.372C235.995 92.9667 235.947 92.5773 235.851 92.204C235.755 91.82 235.6 91.484 235.387 91.196C235.184 90.908 234.917 90.6787 234.587 90.508C234.256 90.3267 233.856 90.236 233.387 90.236C232.928 90.236 232.539 90.3267 232.219 90.508C231.899 90.6893 231.643 90.9293 231.451 91.228C231.259 91.5267 231.12 91.868 231.035 92.252C230.949 92.636 230.907 93.0307 230.907 93.436ZM237.307 97.5H235.947V96.38H235.915C235.691 96.8387 235.339 97.1693 234.859 97.372C234.379 97.5747 233.851 97.676 233.275 97.676C232.635 97.676 232.075 97.5587 231.595 97.324C231.125 97.0893 230.731 96.7747 230.411 96.38C230.101 95.9853 229.867 95.5267 229.707 95.004C229.547 94.4813 229.467 93.9267 229.467 93.34C229.467 92.7533 229.541 92.1987 229.691 91.676C229.851 91.1533 230.085 90.7 230.395 90.316C230.715 89.9213 231.109 89.612 231.579 89.388C232.059 89.1533 232.613 89.036 233.243 89.036C233.456 89.036 233.685 89.0573 233.931 89.1C234.176 89.1427 234.421 89.2173 234.667 89.324C234.912 89.42 235.141 89.5533 235.355 89.724C235.579 89.884 235.765 90.0867 235.915 90.332H235.947V86.076H237.307V97.5Z" fill="black" fill-opacity="0.68"/>
<path d="M332 77H421C429.284 77 436 83.7157 436 92C436 100.284 429.284 107 421 107H332C323.716 107 317 100.284 317 92C317 83.7157 323.716 77 332 77Z" stroke="#F15E00" stroke-width="2"/>
<path fill-rule="evenodd" clip-rule="evenodd" d="M339.292 89.0466L333.223 96.0466C333.049 96.2468 332.782 96.375 332.483 96.375C332.183 96.375 331.916 96.2467 331.742 96.0465L328.708 92.5466C328.578 92.3968 328.5 92.2068 328.5 92C328.5 91.7584 328.606 91.5396 328.778 91.3813L329.157 91.0313C329.329 90.8729 329.566 90.775 329.828 90.775C330.063 90.775 330.279 90.8545 330.445 90.9858L332.293 92.875L337.903 87.8617C338.073 87.7149 338.301 87.625 338.552 87.625C339.075 87.625 339.5 88.0168 339.5 88.5C339.5 88.7068 339.422 88.8968 339.292 89.0466Z" fill="#F15E00"/>
<path d="M349.447 87.004H351.197V95.488H356.279V97H349.447V87.004ZM363.499 95.39C363.499 95.586 363.523 95.726 363.569 95.81C363.625 95.894 363.728 95.936 363.877 95.936C363.924 95.936 363.98 95.936 364.045 95.936C364.111 95.936 364.185 95.9267 364.269 95.908V97.014C364.213 97.0327 364.139 97.0513 364.045 97.07C363.961 97.098 363.873 97.1213 363.779 97.14C363.686 97.1587 363.593 97.1727 363.499 97.182C363.406 97.1913 363.327 97.196 363.261 97.196C362.935 97.196 362.664 97.1307 362.449 97C362.235 96.8693 362.095 96.6407 362.029 96.314C361.712 96.622 361.32 96.846 360.853 96.986C360.396 97.126 359.953 97.196 359.523 97.196C359.197 97.196 358.884 97.1493 358.585 97.056C358.287 96.972 358.021 96.846 357.787 96.678C357.563 96.5007 357.381 96.2813 357.241 96.02C357.111 95.7493 357.045 95.4367 357.045 95.082C357.045 94.634 357.125 94.27 357.283 93.99C357.451 93.71 357.666 93.4907 357.927 93.332C358.198 93.1733 358.497 93.0613 358.823 92.996C359.159 92.9213 359.495 92.8653 359.831 92.828C360.121 92.772 360.396 92.7347 360.657 92.716C360.919 92.688 361.147 92.646 361.343 92.59C361.549 92.534 361.707 92.45 361.819 92.338C361.941 92.2167 362.001 92.0393 362.001 91.806C362.001 91.6007 361.95 91.4327 361.847 91.302C361.754 91.1713 361.633 91.0733 361.483 91.008C361.343 90.9333 361.185 90.8867 361.007 90.868C360.83 90.84 360.662 90.826 360.503 90.826C360.055 90.826 359.687 90.9193 359.397 91.106C359.108 91.2927 358.945 91.582 358.907 91.974H357.311C357.339 91.5073 357.451 91.12 357.647 90.812C357.843 90.504 358.091 90.2567 358.389 90.07C358.697 89.8833 359.043 89.7527 359.425 89.678C359.808 89.6033 360.2 89.566 360.601 89.566C360.956 89.566 361.306 89.6033 361.651 89.678C361.997 89.7527 362.305 89.874 362.575 90.042C362.855 90.21 363.079 90.4293 363.247 90.7C363.415 90.9613 363.499 91.2833 363.499 91.666V95.39ZM361.903 93.374C361.661 93.5327 361.362 93.6307 361.007 93.668C360.653 93.696 360.298 93.7427 359.943 93.808C359.775 93.836 359.612 93.878 359.453 93.934C359.295 93.9807 359.155 94.0507 359.033 94.144C358.912 94.228 358.814 94.3447 358.739 94.494C358.674 94.634 358.641 94.8067 358.641 95.012C358.641 95.1893 358.693 95.3387 358.795 95.46C358.898 95.5813 359.019 95.6793 359.159 95.754C359.309 95.8193 359.467 95.866 359.635 95.894C359.813 95.922 359.971 95.936 360.111 95.936C360.289 95.936 360.48 95.9127 360.685 95.866C360.891 95.8193 361.082 95.74 361.259 95.628C361.446 95.516 361.6 95.376 361.721 95.208C361.843 95.0307 361.903 94.816 361.903 94.564V93.374ZM365.434 87.004H367.03V90.7H367.058C367.17 90.5227 367.305 90.364 367.464 90.224C367.622 90.084 367.795 89.9673 367.982 89.874C368.178 89.7713 368.378 89.6967 368.584 89.65C368.798 89.594 369.008 89.566 369.214 89.566C369.783 89.566 370.278 89.6687 370.698 89.874C371.127 90.07 371.482 90.3453 371.762 90.7C372.042 91.0453 372.252 91.4513 372.392 91.918C372.532 92.3847 372.602 92.884 372.602 93.416C372.602 93.9013 372.536 94.3727 372.406 94.83C372.284 95.2873 372.093 95.6933 371.832 96.048C371.58 96.3933 371.258 96.6733 370.866 96.888C370.474 97.0933 370.012 97.196 369.48 97.196C369.237 97.196 368.99 97.1773 368.738 97.14C368.495 97.112 368.262 97.0513 368.038 96.958C367.814 96.8647 367.608 96.7433 367.422 96.594C367.244 96.4447 367.095 96.2487 366.974 96.006H366.946V97H365.434V87.004ZM371.006 93.388C371.006 93.0613 370.964 92.744 370.88 92.436C370.796 92.128 370.67 91.8573 370.502 91.624C370.334 91.3813 370.124 91.19 369.872 91.05C369.62 90.9007 369.33 90.826 369.004 90.826C368.332 90.826 367.823 91.0593 367.478 91.526C367.142 91.9927 366.974 92.6133 366.974 93.388C366.974 93.752 367.016 94.0927 367.1 94.41C367.193 94.718 367.328 94.984 367.506 95.208C367.683 95.432 367.893 95.6093 368.136 95.74C368.388 95.8707 368.677 95.936 369.004 95.936C369.368 95.936 369.676 95.8613 369.928 95.712C370.18 95.5627 370.385 95.3713 370.544 95.138C370.712 94.8953 370.828 94.6247 370.894 94.326C370.968 94.018 371.006 93.7053 371.006 93.388ZM379.095 92.744C379.077 92.492 379.021 92.2493 378.927 92.016C378.843 91.7827 378.722 91.582 378.563 91.414C378.414 91.2367 378.227 91.0967 378.003 90.994C377.789 90.882 377.546 90.826 377.275 90.826C376.995 90.826 376.739 90.8773 376.505 90.98C376.281 91.0733 376.085 91.2087 375.917 91.386C375.759 91.554 375.628 91.7547 375.525 91.988C375.432 92.2213 375.381 92.4733 375.371 92.744H379.095ZM375.371 93.794C375.371 94.074 375.409 94.3447 375.483 94.606C375.567 94.8673 375.689 95.096 375.847 95.292C376.006 95.488 376.207 95.6467 376.449 95.768C376.692 95.88 376.981 95.936 377.317 95.936C377.784 95.936 378.157 95.838 378.437 95.642C378.727 95.4367 378.941 95.1333 379.081 94.732H380.593C380.509 95.124 380.365 95.474 380.159 95.782C379.954 96.09 379.707 96.3513 379.417 96.566C379.128 96.7713 378.801 96.9253 378.437 97.028C378.083 97.14 377.709 97.196 377.317 97.196C376.748 97.196 376.244 97.1027 375.805 96.916C375.367 96.7293 374.993 96.468 374.685 96.132C374.387 95.796 374.158 95.3947 373.999 94.928C373.85 94.4613 373.775 93.948 373.775 93.388C373.775 92.8747 373.855 92.3893 374.013 91.932C374.181 91.4653 374.415 91.0593 374.713 90.714C375.021 90.3593 375.39 90.0793 375.819 89.874C376.249 89.6687 376.734 89.566 377.275 89.566C377.845 89.566 378.353 89.6873 378.801 89.93C379.259 90.1633 379.637 90.476 379.935 90.868C380.234 91.26 380.449 91.7127 380.579 92.226C380.719 92.73 380.757 93.2527 380.691 93.794H375.371ZM382.122 87.004H383.718V97H382.122V87.004Z" fill="black"/>
<path d="M393 92C393 87.5817 396.582 84 401 84C405.418 84 409 87.5817 409 92C409 96.4183 405.418 100 401 100C396.582 100 393 96.4183 393 92Z" fill="#272727"/>
<path d="M401.938 96H400.918V89.904H398.71V89.088C398.998 89.088 399.278 89.068 399.55 89.028C399.822 88.98 400.066 88.896 400.282 88.776C400.506 88.656 400.694 88.492 400.846 88.284C400.998 88.076 401.102 87.812 401.158 87.492H401.938V96Z" fill="white"/>
<g clip-path="url(#clip0_58894_15678)">
<path d="M432.124 98.0234L424.999 90.75L417.874 98.0234L419.909 100.102L424.999 94.9052L430.087 100.102L432.124 98.0234Z" fill="black"/>
</g>
<path d="M181.248 194.076H182.768V198.988H188.784V194.076H190.304V205.5H188.784V200.268H182.768V205.5H181.248V194.076ZM193.563 201.372C193.563 201.873 193.627 202.321 193.755 202.716C193.894 203.1 194.08 203.425 194.315 203.692C194.55 203.948 194.822 204.145 195.131 204.284C195.451 204.423 195.787 204.492 196.139 204.492C196.491 204.492 196.822 204.423 197.131 204.284C197.451 204.145 197.728 203.948 197.963 203.692C198.198 203.425 198.379 203.1 198.507 202.716C198.646 202.321 198.715 201.873 198.715 201.372C198.715 200.871 198.646 200.428 198.507 200.044C198.379 199.649 198.198 199.319 197.963 199.052C197.728 198.785 197.451 198.583 197.131 198.444C196.822 198.305 196.491 198.236 196.139 198.236C195.787 198.236 195.451 198.305 195.131 198.444C194.822 198.583 194.55 198.785 194.315 199.052C194.08 199.319 193.894 199.649 193.755 200.044C193.627 200.428 193.563 200.871 193.563 201.372ZM192.123 201.372C192.123 200.764 192.208 200.199 192.379 199.676C192.55 199.143 192.806 198.684 193.147 198.3C193.488 197.905 193.91 197.596 194.411 197.372C194.912 197.148 195.488 197.036 196.139 197.036C196.8 197.036 197.376 197.148 197.867 197.372C198.368 197.596 198.79 197.905 199.131 198.3C199.472 198.684 199.728 199.143 199.899 199.676C200.07 200.199 200.155 200.764 200.155 201.372C200.155 201.98 200.07 202.545 199.899 203.068C199.728 203.591 199.472 204.049 199.131 204.444C198.79 204.828 198.368 205.132 197.867 205.356C197.376 205.569 196.8 205.676 196.139 205.676C195.488 205.676 194.912 205.569 194.411 205.356C193.91 205.132 193.488 204.828 193.147 204.444C192.806 204.049 192.55 203.591 192.379 203.068C192.208 202.545 192.123 201.98 192.123 201.372ZM205.486 205.5H204.03L200.958 197.228H202.478L204.798 204.124H204.83L207.086 197.228H208.51L205.486 205.5ZM215.502 200.572C215.481 200.252 215.406 199.948 215.278 199.66C215.161 199.372 214.996 199.127 214.782 198.924C214.58 198.711 214.334 198.545 214.046 198.428C213.769 198.3 213.46 198.236 213.118 198.236C212.766 198.236 212.446 198.3 212.158 198.428C211.881 198.545 211.641 198.711 211.438 198.924C211.236 199.137 211.076 199.388 210.958 199.676C210.841 199.953 210.772 200.252 210.75 200.572H215.502ZM216.814 202.876C216.633 203.804 216.233 204.503 215.614 204.972C214.996 205.441 214.217 205.676 213.278 205.676C212.617 205.676 212.041 205.569 211.55 205.356C211.07 205.143 210.665 204.844 210.334 204.46C210.004 204.076 209.753 203.617 209.582 203.084C209.422 202.551 209.332 201.969 209.31 201.34C209.31 200.711 209.406 200.135 209.598 199.612C209.79 199.089 210.057 198.636 210.398 198.252C210.75 197.868 211.161 197.569 211.63 197.356C212.11 197.143 212.633 197.036 213.198 197.036C213.934 197.036 214.542 197.191 215.022 197.5C215.513 197.799 215.902 198.183 216.19 198.652C216.489 199.121 216.692 199.633 216.798 200.188C216.916 200.743 216.964 201.271 216.942 201.772H210.75C210.74 202.135 210.782 202.481 210.878 202.812C210.974 203.132 211.129 203.42 211.342 203.676C211.556 203.921 211.828 204.119 212.158 204.268C212.489 204.417 212.878 204.492 213.326 204.492C213.902 204.492 214.372 204.359 214.734 204.092C215.108 203.825 215.353 203.42 215.47 202.876H216.814ZM218.304 197.228H219.584V198.972H219.616C219.947 198.3 220.352 197.804 220.832 197.484C221.312 197.164 221.92 197.015 222.656 197.036V198.476C222.112 198.476 221.648 198.551 221.264 198.7C220.88 198.849 220.571 199.068 220.336 199.356C220.101 199.644 219.931 199.996 219.824 200.412C219.717 200.817 219.664 201.287 219.664 201.82V205.5H218.304V197.228Z" fill="black" fill-opacity="0.68"/>
<path d="M332 185H421C429.284 185 436 191.716 436 200C436 208.284 429.284 215 421 215H332C323.716 215 317 208.284 317 200C317 191.716 323.716 185 332 185Z" stroke="black" stroke-opacity="0.68" stroke-width="2"/>
<g clip-path="url(#clip1_58894_15678)">
<path fill-rule="evenodd" clip-rule="evenodd" d="M345.938 199.57L336.835 210.07C336.574 210.37 336.173 210.562 335.724 210.562C335.275 210.562 334.874 210.37 334.614 210.07L330.062 204.82C329.867 204.595 329.75 204.31 329.75 204C329.75 203.638 329.909 203.309 330.167 203.072L330.736 202.547C330.993 202.309 331.349 202.163 331.741 202.163C332.095 202.163 332.418 202.282 332.667 202.479L335.44 205.313L343.855 197.792C344.109 197.572 344.451 197.438 344.828 197.438C345.613 197.438 346.25 198.025 346.25 198.75C346.25 199.06 346.133 199.345 345.938 199.57Z" fill="black" fill-opacity="0.68"/>
</g>
<path d="M349.447 195.004H351.197V203.488H356.279V205H349.447V195.004ZM363.499 203.39C363.499 203.586 363.523 203.726 363.569 203.81C363.625 203.894 363.728 203.936 363.877 203.936C363.924 203.936 363.98 203.936 364.045 203.936C364.111 203.936 364.185 203.927 364.269 203.908V205.014C364.213 205.033 364.139 205.051 364.045 205.07C363.961 205.098 363.873 205.121 363.779 205.14C363.686 205.159 363.593 205.173 363.499 205.182C363.406 205.191 363.327 205.196 363.261 205.196C362.935 205.196 362.664 205.131 362.449 205C362.235 204.869 362.095 204.641 362.029 204.314C361.712 204.622 361.32 204.846 360.853 204.986C360.396 205.126 359.953 205.196 359.523 205.196C359.197 205.196 358.884 205.149 358.585 205.056C358.287 204.972 358.021 204.846 357.787 204.678C357.563 204.501 357.381 204.281 357.241 204.02C357.111 203.749 357.045 203.437 357.045 203.082C357.045 202.634 357.125 202.27 357.283 201.99C357.451 201.71 357.666 201.491 357.927 201.332C358.198 201.173 358.497 201.061 358.823 200.996C359.159 200.921 359.495 200.865 359.831 200.828C360.121 200.772 360.396 200.735 360.657 200.716C360.919 200.688 361.147 200.646 361.343 200.59C361.549 200.534 361.707 200.45 361.819 200.338C361.941 200.217 362.001 200.039 362.001 199.806C362.001 199.601 361.95 199.433 361.847 199.302C361.754 199.171 361.633 199.073 361.483 199.008C361.343 198.933 361.185 198.887 361.007 198.868C360.83 198.84 360.662 198.826 360.503 198.826C360.055 198.826 359.687 198.919 359.397 199.106C359.108 199.293 358.945 199.582 358.907 199.974H357.311C357.339 199.507 357.451 199.12 357.647 198.812C357.843 198.504 358.091 198.257 358.389 198.07C358.697 197.883 359.043 197.753 359.425 197.678C359.808 197.603 360.2 197.566 360.601 197.566C360.956 197.566 361.306 197.603 361.651 197.678C361.997 197.753 362.305 197.874 362.575 198.042C362.855 198.21 363.079 198.429 363.247 198.7C363.415 198.961 363.499 199.283 363.499 199.666V203.39ZM361.903 201.374C361.661 201.533 361.362 201.631 361.007 201.668C360.653 201.696 360.298 201.743 359.943 201.808C359.775 201.836 359.612 201.878 359.453 201.934C359.295 201.981 359.155 202.051 359.033 202.144C358.912 202.228 358.814 202.345 358.739 202.494C358.674 202.634 358.641 202.807 358.641 203.012C358.641 203.189 358.693 203.339 358.795 203.46C358.898 203.581 359.019 203.679 359.159 203.754C359.309 203.819 359.467 203.866 359.635 203.894C359.813 203.922 359.971 203.936 360.111 203.936C360.289 203.936 360.48 203.913 360.685 203.866C360.891 203.819 361.082 203.74 361.259 203.628C361.446 203.516 361.6 203.376 361.721 203.208C361.843 203.031 361.903 202.816 361.903 202.564V201.374ZM365.434 195.004H367.03V198.7H367.058C367.17 198.523 367.305 198.364 367.464 198.224C367.622 198.084 367.795 197.967 367.982 197.874C368.178 197.771 368.378 197.697 368.584 197.65C368.798 197.594 369.008 197.566 369.214 197.566C369.783 197.566 370.278 197.669 370.698 197.874C371.127 198.07 371.482 198.345 371.762 198.7C372.042 199.045 372.252 199.451 372.392 199.918C372.532 200.385 372.602 200.884 372.602 201.416C372.602 201.901 372.536 202.373 372.406 202.83C372.284 203.287 372.093 203.693 371.832 204.048C371.58 204.393 371.258 204.673 370.866 204.888C370.474 205.093 370.012 205.196 369.48 205.196C369.237 205.196 368.99 205.177 368.738 205.14C368.495 205.112 368.262 205.051 368.038 204.958C367.814 204.865 367.608 204.743 367.422 204.594C367.244 204.445 367.095 204.249 366.974 204.006H366.946V205H365.434V195.004ZM371.006 201.388C371.006 201.061 370.964 200.744 370.88 200.436C370.796 200.128 370.67 199.857 370.502 199.624C370.334 199.381 370.124 199.19 369.872 199.05C369.62 198.901 369.33 198.826 369.004 198.826C368.332 198.826 367.823 199.059 367.478 199.526C367.142 199.993 366.974 200.613 366.974 201.388C366.974 201.752 367.016 202.093 367.1 202.41C367.193 202.718 367.328 202.984 367.506 203.208C367.683 203.432 367.893 203.609 368.136 203.74C368.388 203.871 368.677 203.936 369.004 203.936C369.368 203.936 369.676 203.861 369.928 203.712C370.18 203.563 370.385 203.371 370.544 203.138C370.712 202.895 370.828 202.625 370.894 202.326C370.968 202.018 371.006 201.705 371.006 201.388ZM379.095 200.744C379.077 200.492 379.021 200.249 378.927 200.016C378.843 199.783 378.722 199.582 378.563 199.414C378.414 199.237 378.227 199.097 378.003 198.994C377.789 198.882 377.546 198.826 377.275 198.826C376.995 198.826 376.739 198.877 376.505 198.98C376.281 199.073 376.085 199.209 375.917 199.386C375.759 199.554 375.628 199.755 375.525 199.988C375.432 200.221 375.381 200.473 375.371 200.744H379.095ZM375.371 201.794C375.371 202.074 375.409 202.345 375.483 202.606C375.567 202.867 375.689 203.096 375.847 203.292C376.006 203.488 376.207 203.647 376.449 203.768C376.692 203.88 376.981 203.936 377.317 203.936C377.784 203.936 378.157 203.838 378.437 203.642C378.727 203.437 378.941 203.133 379.081 202.732H380.593C380.509 203.124 380.365 203.474 380.159 203.782C379.954 204.09 379.707 204.351 379.417 204.566C379.128 204.771 378.801 204.925 378.437 205.028C378.083 205.14 377.709 205.196 377.317 205.196C376.748 205.196 376.244 205.103 375.805 204.916C375.367 204.729 374.993 204.468 374.685 204.132C374.387 203.796 374.158 203.395 373.999 202.928C373.85 202.461 373.775 201.948 373.775 201.388C373.775 200.875 373.855 200.389 374.013 199.932C374.181 199.465 374.415 199.059 374.713 198.714C375.021 198.359 375.39 198.079 375.819 197.874C376.249 197.669 376.734 197.566 377.275 197.566C377.845 197.566 378.353 197.687 378.801 197.93C379.259 198.163 379.637 198.476 379.935 198.868C380.234 199.26 380.449 199.713 380.579 200.226C380.719 200.73 380.757 201.253 380.691 201.794H375.371ZM382.122 195.004H383.718V205H382.122V195.004Z" fill="black" fill-opacity="0.68"/>
<path d="M393 200C393 195.582 396.582 192 401 192C405.418 192 409 195.582 409 200C409 204.418 405.418 208 401 208C396.582 208 393 204.418 393 200Z" fill="#272727"/>
<path d="M401.938 204H400.918V197.904H398.71V197.088C398.998 197.088 399.278 197.068 399.55 197.028C399.822 196.98 400.066 196.896 400.282 196.776C400.506 196.656 400.694 196.492 400.846 196.284C400.998 196.076 401.102 195.812 401.158 195.492H401.938V204Z" fill="white"/>
<g clip-path="url(#clip2_58894_15678)">
<path d="M432.124 206.023L424.999 198.75L417.874 206.023L419.909 208.102L424.999 202.905L430.087 208.102L432.124 206.023Z" fill="black" fill-opacity="0.68"/>
</g>
<path d="M182.768 307.548H185.744C186.608 307.559 187.237 307.383 187.632 307.02C188.037 306.657 188.24 306.135 188.24 305.452C188.24 304.769 188.037 304.252 187.632 303.9C187.237 303.537 186.608 303.356 185.744 303.356H182.768V307.548ZM181.248 302.076H186.256C187.408 302.076 188.277 302.375 188.864 302.972C189.461 303.559 189.76 304.385 189.76 305.452C189.76 306.519 189.461 307.351 188.864 307.948C188.277 308.545 187.408 308.839 186.256 308.828H182.768V313.5H181.248V302.076ZM191.351 305.228H192.631V306.972H192.663C192.994 306.3 193.399 305.804 193.879 305.484C194.359 305.164 194.967 305.015 195.703 305.036V306.476C195.159 306.476 194.695 306.551 194.311 306.7C193.927 306.849 193.618 307.068 193.383 307.356C193.148 307.644 192.978 307.996 192.871 308.412C192.764 308.817 192.711 309.287 192.711 309.82V313.5H191.351V305.228ZM202.19 308.572C202.169 308.252 202.094 307.948 201.966 307.66C201.849 307.372 201.683 307.127 201.47 306.924C201.267 306.711 201.022 306.545 200.734 306.428C200.457 306.3 200.147 306.236 199.806 306.236C199.454 306.236 199.134 306.3 198.846 306.428C198.569 306.545 198.329 306.711 198.126 306.924C197.923 307.137 197.763 307.388 197.646 307.676C197.529 307.953 197.459 308.252 197.438 308.572H202.19ZM203.502 310.876C203.321 311.804 202.921 312.503 202.302 312.972C201.683 313.441 200.905 313.676 199.966 313.676C199.305 313.676 198.729 313.569 198.238 313.356C197.758 313.143 197.353 312.844 197.022 312.46C196.691 312.076 196.441 311.617 196.27 311.084C196.11 310.551 196.019 309.969 195.998 309.34C195.998 308.711 196.094 308.135 196.286 307.612C196.478 307.089 196.745 306.636 197.086 306.252C197.438 305.868 197.849 305.569 198.318 305.356C198.798 305.143 199.321 305.036 199.886 305.036C200.622 305.036 201.23 305.191 201.71 305.5C202.201 305.799 202.59 306.183 202.878 306.652C203.177 307.121 203.379 307.633 203.486 308.188C203.603 308.743 203.651 309.271 203.63 309.772H197.438C197.427 310.135 197.47 310.481 197.566 310.812C197.662 311.132 197.817 311.42 198.03 311.676C198.243 311.921 198.515 312.119 198.846 312.268C199.177 312.417 199.566 312.492 200.014 312.492C200.59 312.492 201.059 312.359 201.422 312.092C201.795 311.825 202.041 311.42 202.158 310.876H203.502ZM205.872 310.892C205.882 311.191 205.952 311.447 206.08 311.66C206.208 311.863 206.373 312.028 206.576 312.156C206.789 312.273 207.024 312.359 207.28 312.412C207.546 312.465 207.818 312.492 208.096 312.492C208.309 312.492 208.533 312.476 208.768 312.444C209.002 312.412 209.216 312.353 209.408 312.268C209.61 312.183 209.776 312.06 209.904 311.9C210.032 311.729 210.096 311.516 210.096 311.26C210.096 310.908 209.962 310.641 209.696 310.46C209.429 310.279 209.093 310.135 208.688 310.028C208.293 309.911 207.861 309.809 207.392 309.724C206.922 309.628 206.485 309.5 206.08 309.34C205.685 309.169 205.354 308.935 205.088 308.636C204.821 308.337 204.688 307.921 204.688 307.388C204.688 306.972 204.778 306.615 204.96 306.316C205.152 306.017 205.392 305.777 205.68 305.596C205.978 305.404 206.309 305.265 206.672 305.18C207.045 305.084 207.413 305.036 207.776 305.036C208.245 305.036 208.677 305.079 209.072 305.164C209.466 305.239 209.813 305.377 210.112 305.58C210.421 305.772 210.666 306.039 210.848 306.38C211.029 306.711 211.136 307.127 211.168 307.628H209.808C209.786 307.361 209.717 307.143 209.6 306.972C209.482 306.791 209.333 306.647 209.152 306.54C208.97 306.433 208.768 306.359 208.544 306.316C208.33 306.263 208.112 306.236 207.888 306.236C207.685 306.236 207.477 306.252 207.264 306.284C207.061 306.316 206.874 306.375 206.704 306.46C206.533 306.535 206.394 306.641 206.288 306.78C206.181 306.908 206.128 307.079 206.128 307.292C206.128 307.527 206.208 307.724 206.368 307.884C206.538 308.033 206.752 308.161 207.008 308.268C207.264 308.364 207.552 308.449 207.872 308.524C208.192 308.588 208.512 308.657 208.832 308.732C209.173 308.807 209.504 308.897 209.824 309.004C210.154 309.111 210.442 309.255 210.688 309.436C210.944 309.607 211.146 309.825 211.296 310.092C211.456 310.359 211.536 310.689 211.536 311.084C211.536 311.585 211.429 312.001 211.216 312.332C211.013 312.663 210.741 312.929 210.4 313.132C210.069 313.335 209.69 313.473 209.264 313.548C208.848 313.633 208.432 313.676 208.016 313.676C207.557 313.676 207.12 313.628 206.704 313.532C206.288 313.436 205.92 313.281 205.6 313.068C205.28 312.844 205.024 312.556 204.832 312.204C204.64 311.841 204.533 311.404 204.512 310.892H205.872ZM213.872 310.892C213.882 311.191 213.952 311.447 214.08 311.66C214.208 311.863 214.373 312.028 214.576 312.156C214.789 312.273 215.024 312.359 215.28 312.412C215.546 312.465 215.818 312.492 216.096 312.492C216.309 312.492 216.533 312.476 216.768 312.444C217.002 312.412 217.216 312.353 217.408 312.268C217.61 312.183 217.776 312.06 217.904 311.9C218.032 311.729 218.096 311.516 218.096 311.26C218.096 310.908 217.962 310.641 217.696 310.46C217.429 310.279 217.093 310.135 216.688 310.028C216.293 309.911 215.861 309.809 215.392 309.724C214.922 309.628 214.485 309.5 214.08 309.34C213.685 309.169 213.354 308.935 213.088 308.636C212.821 308.337 212.688 307.921 212.688 307.388C212.688 306.972 212.778 306.615 212.96 306.316C213.152 306.017 213.392 305.777 213.68 305.596C213.978 305.404 214.309 305.265 214.672 305.18C215.045 305.084 215.413 305.036 215.776 305.036C216.245 305.036 216.677 305.079 217.072 305.164C217.466 305.239 217.813 305.377 218.112 305.58C218.421 305.772 218.666 306.039 218.848 306.38C219.029 306.711 219.136 307.127 219.168 307.628H217.808C217.786 307.361 217.717 307.143 217.6 306.972C217.482 306.791 217.333 306.647 217.152 306.54C216.97 306.433 216.768 306.359 216.544 306.316C216.33 306.263 216.112 306.236 215.888 306.236C215.685 306.236 215.477 306.252 215.264 306.284C215.061 306.316 214.874 306.375 214.704 306.46C214.533 306.535 214.394 306.641 214.288 306.78C214.181 306.908 214.128 307.079 214.128 307.292C214.128 307.527 214.208 307.724 214.368 307.884C214.538 308.033 214.752 308.161 215.008 308.268C215.264 308.364 215.552 308.449 215.872 308.524C216.192 308.588 216.512 308.657 216.832 308.732C217.173 308.807 217.504 308.897 217.824 309.004C218.154 309.111 218.442 309.255 218.688 309.436C218.944 309.607 219.146 309.825 219.296 310.092C219.456 310.359 219.536 310.689 219.536 311.084C219.536 311.585 219.429 312.001 219.216 312.332C219.013 312.663 218.741 312.929 218.4 313.132C218.069 313.335 217.69 313.473 217.264 313.548C216.848 313.633 216.432 313.676 216.016 313.676C215.557 313.676 215.12 313.628 214.704 313.532C214.288 313.436 213.92 313.281 213.6 313.068C213.28 312.844 213.024 312.556 212.832 312.204C212.64 311.841 212.533 311.404 212.512 310.892H213.872ZM226.784 308.572C226.762 308.252 226.688 307.948 226.56 307.66C226.442 307.372 226.277 307.127 226.064 306.924C225.861 306.711 225.616 306.545 225.328 306.428C225.05 306.3 224.741 306.236 224.4 306.236C224.048 306.236 223.728 306.3 223.44 306.428C223.162 306.545 222.922 306.711 222.72 306.924C222.517 307.137 222.357 307.388 222.24 307.676C222.122 307.953 222.053 308.252 222.032 308.572H226.784ZM228.096 310.876C227.914 311.804 227.514 312.503 226.896 312.972C226.277 313.441 225.498 313.676 224.56 313.676C223.898 313.676 223.322 313.569 222.832 313.356C222.352 313.143 221.946 312.844 221.616 312.46C221.285 312.076 221.034 311.617 220.864 311.084C220.704 310.551 220.613 309.969 220.592 309.34C220.592 308.711 220.688 308.135 220.88 307.612C221.072 307.089 221.338 306.636 221.68 306.252C222.032 305.868 222.442 305.569 222.912 305.356C223.392 305.143 223.914 305.036 224.48 305.036C225.216 305.036 225.824 305.191 226.304 305.5C226.794 305.799 227.184 306.183 227.472 306.652C227.77 307.121 227.973 307.633 228.08 308.188C228.197 308.743 228.245 309.271 228.224 309.772H222.032C222.021 310.135 222.064 310.481 222.16 310.812C222.256 311.132 222.41 311.42 222.624 311.676C222.837 311.921 223.109 312.119 223.44 312.268C223.77 312.417 224.16 312.492 224.608 312.492C225.184 312.492 225.653 312.359 226.016 312.092C226.389 311.825 226.634 311.42 226.752 310.876H228.096ZM230.625 309.436C230.625 309.82 230.673 310.199 230.769 310.572C230.876 310.935 231.031 311.26 231.233 311.548C231.447 311.836 231.713 312.065 232.033 312.236C232.364 312.407 232.748 312.492 233.185 312.492C233.644 312.492 234.033 312.401 234.353 312.22C234.673 312.039 234.935 311.804 235.137 311.516C235.34 311.217 235.484 310.881 235.569 310.508C235.665 310.135 235.713 309.756 235.713 309.372C235.713 308.967 235.665 308.577 235.569 308.204C235.473 307.82 235.319 307.484 235.105 307.196C234.903 306.908 234.636 306.679 234.305 306.508C233.975 306.327 233.575 306.236 233.105 306.236C232.647 306.236 232.257 306.327 231.937 306.508C231.617 306.689 231.361 306.929 231.169 307.228C230.977 307.527 230.839 307.868 230.753 308.252C230.668 308.636 230.625 309.031 230.625 309.436ZM237.025 313.5H235.665V312.38H235.633C235.409 312.839 235.057 313.169 234.577 313.372C234.097 313.575 233.569 313.676 232.993 313.676C232.353 313.676 231.793 313.559 231.313 313.324C230.844 313.089 230.449 312.775 230.129 312.38C229.82 311.985 229.585 311.527 229.425 311.004C229.265 310.481 229.185 309.927 229.185 309.34C229.185 308.753 229.26 308.199 229.409 307.676C229.569 307.153 229.804 306.7 230.113 306.316C230.433 305.921 230.828 305.612 231.297 305.388C231.777 305.153 232.332 305.036 232.961 305.036C233.175 305.036 233.404 305.057 233.649 305.1C233.895 305.143 234.14 305.217 234.385 305.324C234.631 305.42 234.86 305.553 235.073 305.724C235.297 305.884 235.484 306.087 235.633 306.332H235.665V302.076H237.025V313.5Z" fill="black" fill-opacity="0.68"/>
<path d="M332 293H421C429.284 293 436 299.716 436 308C436 316.284 429.284 323 421 323H332C323.716 323 317 316.284 317 308C317 299.716 323.716 293 332 293Z" stroke="#F15E00" stroke-width="2"/>
<path fill-rule="evenodd" clip-rule="evenodd" d="M339.292 305.047L333.223 312.047C333.049 312.247 332.782 312.375 332.483 312.375C332.183 312.375 331.916 312.247 331.742 312.047L328.708 308.547C328.578 308.397 328.5 308.207 328.5 308C328.5 307.758 328.606 307.54 328.778 307.381L329.157 307.031C329.329 306.873 329.566 306.775 329.828 306.775C330.063 306.775 330.279 306.855 330.445 306.986L332.293 308.875L337.903 303.862C338.073 303.715 338.301 303.625 338.552 303.625C339.075 303.625 339.5 304.017 339.5 304.5C339.5 304.707 339.422 304.897 339.292 305.047Z" fill="#F15E00"/>
<path d="M349.447 303.004H351.197V311.488H356.279V313H349.447V303.004ZM363.499 311.39C363.499 311.586 363.523 311.726 363.569 311.81C363.625 311.894 363.728 311.936 363.877 311.936C363.924 311.936 363.98 311.936 364.045 311.936C364.111 311.936 364.185 311.927 364.269 311.908V313.014C364.213 313.033 364.139 313.051 364.045 313.07C363.961 313.098 363.873 313.121 363.779 313.14C363.686 313.159 363.593 313.173 363.499 313.182C363.406 313.191 363.327 313.196 363.261 313.196C362.935 313.196 362.664 313.131 362.449 313C362.235 312.869 362.095 312.641 362.029 312.314C361.712 312.622 361.32 312.846 360.853 312.986C360.396 313.126 359.953 313.196 359.523 313.196C359.197 313.196 358.884 313.149 358.585 313.056C358.287 312.972 358.021 312.846 357.787 312.678C357.563 312.501 357.381 312.281 357.241 312.02C357.111 311.749 357.045 311.437 357.045 311.082C357.045 310.634 357.125 310.27 357.283 309.99C357.451 309.71 357.666 309.491 357.927 309.332C358.198 309.173 358.497 309.061 358.823 308.996C359.159 308.921 359.495 308.865 359.831 308.828C360.121 308.772 360.396 308.735 360.657 308.716C360.919 308.688 361.147 308.646 361.343 308.59C361.549 308.534 361.707 308.45 361.819 308.338C361.941 308.217 362.001 308.039 362.001 307.806C362.001 307.601 361.95 307.433 361.847 307.302C361.754 307.171 361.633 307.073 361.483 307.008C361.343 306.933 361.185 306.887 361.007 306.868C360.83 306.84 360.662 306.826 360.503 306.826C360.055 306.826 359.687 306.919 359.397 307.106C359.108 307.293 358.945 307.582 358.907 307.974H357.311C357.339 307.507 357.451 307.12 357.647 306.812C357.843 306.504 358.091 306.257 358.389 306.07C358.697 305.883 359.043 305.753 359.425 305.678C359.808 305.603 360.2 305.566 360.601 305.566C360.956 305.566 361.306 305.603 361.651 305.678C361.997 305.753 362.305 305.874 362.575 306.042C362.855 306.21 363.079 306.429 363.247 306.7C363.415 306.961 363.499 307.283 363.499 307.666V311.39ZM361.903 309.374C361.661 309.533 361.362 309.631 361.007 309.668C360.653 309.696 360.298 309.743 359.943 309.808C359.775 309.836 359.612 309.878 359.453 309.934C359.295 309.981 359.155 310.051 359.033 310.144C358.912 310.228 358.814 310.345 358.739 310.494C358.674 310.634 358.641 310.807 358.641 311.012C358.641 311.189 358.693 311.339 358.795 311.46C358.898 311.581 359.019 311.679 359.159 311.754C359.309 311.819 359.467 311.866 359.635 311.894C359.813 311.922 359.971 311.936 360.111 311.936C360.289 311.936 360.48 311.913 360.685 311.866C360.891 311.819 361.082 311.74 361.259 311.628C361.446 311.516 361.6 311.376 361.721 311.208C361.843 311.031 361.903 310.816 361.903 310.564V309.374ZM365.434 303.004H367.03V306.7H367.058C367.17 306.523 367.305 306.364 367.464 306.224C367.622 306.084 367.795 305.967 367.982 305.874C368.178 305.771 368.378 305.697 368.584 305.65C368.798 305.594 369.008 305.566 369.214 305.566C369.783 305.566 370.278 305.669 370.698 305.874C371.127 306.07 371.482 306.345 371.762 306.7C372.042 307.045 372.252 307.451 372.392 307.918C372.532 308.385 372.602 308.884 372.602 309.416C372.602 309.901 372.536 310.373 372.406 310.83C372.284 311.287 372.093 311.693 371.832 312.048C371.58 312.393 371.258 312.673 370.866 312.888C370.474 313.093 370.012 313.196 369.48 313.196C369.237 313.196 368.99 313.177 368.738 313.14C368.495 313.112 368.262 313.051 368.038 312.958C367.814 312.865 367.608 312.743 367.422 312.594C367.244 312.445 367.095 312.249 366.974 312.006H366.946V313H365.434V303.004ZM371.006 309.388C371.006 309.061 370.964 308.744 370.88 308.436C370.796 308.128 370.67 307.857 370.502 307.624C370.334 307.381 370.124 307.19 369.872 307.05C369.62 306.901 369.33 306.826 369.004 306.826C368.332 306.826 367.823 307.059 367.478 307.526C367.142 307.993 366.974 308.613 366.974 309.388C366.974 309.752 367.016 310.093 367.1 310.41C367.193 310.718 367.328 310.984 367.506 311.208C367.683 311.432 367.893 311.609 368.136 311.74C368.388 311.871 368.677 311.936 369.004 311.936C369.368 311.936 369.676 311.861 369.928 311.712C370.18 311.563 370.385 311.371 370.544 311.138C370.712 310.895 370.828 310.625 370.894 310.326C370.968 310.018 371.006 309.705 371.006 309.388ZM379.095 308.744C379.077 308.492 379.021 308.249 378.927 308.016C378.843 307.783 378.722 307.582 378.563 307.414C378.414 307.237 378.227 307.097 378.003 306.994C377.789 306.882 377.546 306.826 377.275 306.826C376.995 306.826 376.739 306.877 376.505 306.98C376.281 307.073 376.085 307.209 375.917 307.386C375.759 307.554 375.628 307.755 375.525 307.988C375.432 308.221 375.381 308.473 375.371 308.744H379.095ZM375.371 309.794C375.371 310.074 375.409 310.345 375.483 310.606C375.567 310.867 375.689 311.096 375.847 311.292C376.006 311.488 376.207 311.647 376.449 311.768C376.692 311.88 376.981 311.936 377.317 311.936C377.784 311.936 378.157 311.838 378.437 311.642C378.727 311.437 378.941 311.133 379.081 310.732H380.593C380.509 311.124 380.365 311.474 380.159 311.782C379.954 312.09 379.707 312.351 379.417 312.566C379.128 312.771 378.801 312.925 378.437 313.028C378.083 313.14 377.709 313.196 377.317 313.196C376.748 313.196 376.244 313.103 375.805 312.916C375.367 312.729 374.993 312.468 374.685 312.132C374.387 311.796 374.158 311.395 373.999 310.928C373.85 310.461 373.775 309.948 373.775 309.388C373.775 308.875 373.855 308.389 374.013 307.932C374.181 307.465 374.415 307.059 374.713 306.714C375.021 306.359 375.39 306.079 375.819 305.874C376.249 305.669 376.734 305.566 377.275 305.566C377.845 305.566 378.353 305.687 378.801 305.93C379.259 306.163 379.637 306.476 379.935 306.868C380.234 307.26 380.449 307.713 380.579 308.226C380.719 308.73 380.757 309.253 380.691 309.794H375.371ZM382.122 303.004H383.718V313H382.122V303.004Z" fill="#F15E00"/>
<path d="M393 308C393 303.582 396.582 300 401 300C405.418 300 409 303.582 409 308C409 312.418 405.418 316 401 316C396.582 316 393 312.418 393 308Z" fill="#272727"/>
<path d="M401.938 312H400.918V305.904H398.71V305.088C398.998 305.088 399.278 305.068 399.55 305.028C399.822 304.98 400.066 304.896 400.282 304.776C400.506 304.656 400.694 304.492 400.846 304.284C400.998 304.076 401.102 303.812 401.158 303.492H401.938V312Z" fill="white"/>
<g clip-path="url(#clip3_58894_15678)">
<path d="M432.124 314.023L424.999 306.75L417.874 314.023L419.909 316.102L424.999 310.905L430.087 316.102L432.124 314.023Z" fill="#F15E00"/>
</g>
<path d="M182.768 420.22H185.296C185.467 420.22 185.68 420.209 185.936 420.188C186.192 420.156 186.464 420.092 186.752 419.996C187.04 419.889 187.323 419.74 187.6 419.548C187.888 419.356 188.144 419.095 188.368 418.764C188.592 418.433 188.773 418.023 188.912 417.532C189.061 417.031 189.136 416.428 189.136 415.724C189.136 415.041 189.067 414.433 188.928 413.9C188.8 413.356 188.581 412.897 188.272 412.524C187.973 412.14 187.584 411.852 187.104 411.66C186.624 411.457 186.032 411.356 185.328 411.356H182.768V420.22ZM181.248 410.076H185.168C186.928 410.076 188.283 410.524 189.232 411.42C190.181 412.316 190.656 413.681 190.656 415.516C190.656 416.476 190.549 417.329 190.336 418.076C190.123 418.812 189.792 419.436 189.344 419.948C188.896 420.449 188.325 420.833 187.632 421.1C186.939 421.367 186.117 421.5 185.168 421.5H181.248V410.076ZM193.73 411.74H192.37V410.076H193.73V411.74ZM192.37 413.228H193.73V421.5H192.37V413.228ZM196.669 418.892C196.679 419.191 196.749 419.447 196.877 419.66C197.005 419.863 197.17 420.028 197.373 420.156C197.586 420.273 197.821 420.359 198.077 420.412C198.343 420.465 198.615 420.492 198.893 420.492C199.106 420.492 199.33 420.476 199.565 420.444C199.799 420.412 200.013 420.353 200.205 420.268C200.407 420.183 200.573 420.06 200.701 419.9C200.829 419.729 200.893 419.516 200.893 419.26C200.893 418.908 200.759 418.641 200.493 418.46C200.226 418.279 199.89 418.135 199.485 418.028C199.09 417.911 198.658 417.809 198.189 417.724C197.719 417.628 197.282 417.5 196.877 417.34C196.482 417.169 196.151 416.935 195.885 416.636C195.618 416.337 195.485 415.921 195.485 415.388C195.485 414.972 195.575 414.615 195.757 414.316C195.949 414.017 196.189 413.777 196.477 413.596C196.775 413.404 197.106 413.265 197.469 413.18C197.842 413.084 198.21 413.036 198.573 413.036C199.042 413.036 199.474 413.079 199.869 413.164C200.263 413.239 200.61 413.377 200.909 413.58C201.218 413.772 201.463 414.039 201.645 414.38C201.826 414.711 201.933 415.127 201.965 415.628H200.605C200.583 415.361 200.514 415.143 200.397 414.972C200.279 414.791 200.13 414.647 199.949 414.54C199.767 414.433 199.565 414.359 199.341 414.316C199.127 414.263 198.909 414.236 198.685 414.236C198.482 414.236 198.274 414.252 198.061 414.284C197.858 414.316 197.671 414.375 197.501 414.46C197.33 414.535 197.191 414.641 197.085 414.78C196.978 414.908 196.924 415.079 196.924 415.292C196.924 415.527 197.004 415.724 197.164 415.884C197.335 416.033 197.549 416.161 197.805 416.268C198.061 416.364 198.349 416.449 198.669 416.524C198.989 416.588 199.309 416.657 199.629 416.732C199.97 416.807 200.301 416.897 200.621 417.004C200.951 417.111 201.239 417.255 201.485 417.436C201.741 417.607 201.943 417.825 202.093 418.092C202.253 418.359 202.333 418.689 202.333 419.084C202.333 419.585 202.226 420.001 202.013 420.332C201.81 420.663 201.538 420.929 201.197 421.132C200.866 421.335 200.487 421.473 200.061 421.548C199.645 421.633 199.229 421.676 198.812 421.676C198.354 421.676 197.917 421.628 197.501 421.532C197.085 421.436 196.717 421.281 196.397 421.068C196.077 420.844 195.821 420.556 195.629 420.204C195.437 419.841 195.33 419.404 195.309 418.892H196.669ZM211.165 421.468C210.93 421.607 210.605 421.676 210.189 421.676C209.837 421.676 209.554 421.58 209.341 421.388C209.138 421.185 209.037 420.86 209.037 420.412C208.663 420.86 208.226 421.185 207.725 421.388C207.234 421.58 206.701 421.676 206.125 421.676C205.751 421.676 205.394 421.633 205.053 421.548C204.722 421.463 204.434 421.329 204.189 421.148C203.943 420.967 203.746 420.732 203.597 420.444C203.458 420.145 203.389 419.788 203.389 419.372C203.389 418.903 203.469 418.519 203.629 418.22C203.789 417.921 203.997 417.681 204.253 417.5C204.519 417.308 204.818 417.164 205.149 417.068C205.49 416.972 205.837 416.892 206.189 416.828C206.562 416.753 206.914 416.7 207.245 416.668C207.586 416.625 207.885 416.572 208.141 416.508C208.397 416.433 208.599 416.332 208.749 416.204C208.898 416.065 208.973 415.868 208.973 415.612C208.973 415.313 208.914 415.073 208.797 414.892C208.69 414.711 208.546 414.572 208.365 414.476C208.194 414.38 207.997 414.316 207.773 414.284C207.559 414.252 207.346 414.236 207.133 414.236C206.557 414.236 206.077 414.348 205.693 414.572C205.309 414.785 205.101 415.196 205.069 415.804H203.709C203.73 415.292 203.837 414.86 204.029 414.508C204.221 414.156 204.477 413.873 204.797 413.66C205.117 413.436 205.479 413.276 205.885 413.18C206.301 413.084 206.743 413.036 207.213 413.036C207.586 413.036 207.954 413.063 208.317 413.116C208.69 413.169 209.026 413.281 209.325 413.452C209.623 413.612 209.863 413.841 210.045 414.14C210.226 414.439 210.317 414.828 210.317 415.308V419.564C210.317 419.884 210.333 420.119 210.365 420.268C210.407 420.417 210.535 420.492 210.749 420.492C210.866 420.492 211.005 420.465 211.165 420.412V421.468ZM208.957 417.228C208.786 417.356 208.562 417.452 208.285 417.516C208.007 417.569 207.714 417.617 207.405 417.66C207.106 417.692 206.802 417.735 206.493 417.788C206.183 417.831 205.906 417.905 205.661 418.012C205.415 418.119 205.213 418.273 205.053 418.476C204.903 418.668 204.829 418.935 204.829 419.276C204.829 419.5 204.871 419.692 204.957 419.852C205.053 420.001 205.17 420.124 205.309 420.22C205.458 420.316 205.629 420.385 205.821 420.428C206.013 420.471 206.215 420.492 206.429 420.492C206.877 420.492 207.261 420.433 207.581 420.316C207.901 420.188 208.162 420.033 208.365 419.852C208.567 419.66 208.717 419.457 208.813 419.244C208.909 419.02 208.957 418.812 208.957 418.62V417.228ZM212.478 410.076H213.838V414.348H213.87C214.094 413.889 214.446 413.559 214.926 413.356C215.406 413.143 215.934 413.036 216.51 413.036C217.15 413.036 217.705 413.153 218.174 413.388C218.654 413.623 219.049 413.943 219.358 414.348C219.678 414.743 219.918 415.201 220.078 415.724C220.238 416.247 220.318 416.801 220.318 417.388C220.318 417.975 220.238 418.529 220.078 419.052C219.929 419.575 219.694 420.033 219.374 420.428C219.065 420.812 218.67 421.116 218.19 421.34C217.721 421.564 217.172 421.676 216.542 421.676C216.34 421.676 216.11 421.655 215.854 421.612C215.609 421.569 215.364 421.5 215.118 421.404C214.873 421.308 214.638 421.18 214.414 421.02C214.201 420.849 214.02 420.641 213.87 420.396H213.838V421.5H212.478V410.076ZM218.878 417.292C218.878 416.908 218.825 416.535 218.718 416.172C218.622 415.799 218.468 415.468 218.254 415.18C218.052 414.892 217.785 414.663 217.454 414.492C217.134 414.321 216.756 414.236 216.318 414.236C215.86 414.236 215.47 414.327 215.15 414.508C214.83 414.689 214.569 414.929 214.366 415.228C214.164 415.516 214.014 415.847 213.918 416.22C213.833 416.593 213.79 416.972 213.79 417.356C213.79 417.761 213.838 418.156 213.934 418.54C214.03 418.913 214.18 419.244 214.382 419.532C214.596 419.82 214.868 420.055 215.198 420.236C215.529 420.407 215.929 420.492 216.398 420.492C216.868 420.492 217.257 420.401 217.566 420.22C217.886 420.039 218.142 419.799 218.334 419.5C218.526 419.201 218.665 418.86 218.75 418.476C218.836 418.092 218.878 417.697 218.878 417.292ZM221.995 410.076H223.355V421.5H221.995V410.076ZM231.206 416.572C231.184 416.252 231.11 415.948 230.982 415.66C230.864 415.372 230.699 415.127 230.486 414.924C230.283 414.711 230.038 414.545 229.75 414.428C229.472 414.3 229.163 414.236 228.822 414.236C228.47 414.236 228.15 414.3 227.862 414.428C227.584 414.545 227.344 414.711 227.142 414.924C226.939 415.137 226.779 415.388 226.662 415.676C226.544 415.953 226.475 416.252 226.454 416.572H231.206ZM232.517 418.876C232.336 419.804 231.936 420.503 231.318 420.972C230.699 421.441 229.92 421.676 228.982 421.676C228.32 421.676 227.744 421.569 227.254 421.356C226.774 421.143 226.368 420.844 226.038 420.46C225.707 420.076 225.456 419.617 225.286 419.084C225.126 418.551 225.035 417.969 225.014 417.34C225.014 416.711 225.11 416.135 225.302 415.612C225.494 415.089 225.76 414.636 226.102 414.252C226.454 413.868 226.864 413.569 227.334 413.356C227.814 413.143 228.336 413.036 228.902 413.036C229.638 413.036 230.246 413.191 230.726 413.5C231.216 413.799 231.606 414.183 231.894 414.652C232.192 415.121 232.395 415.633 232.502 416.188C232.619 416.743 232.667 417.271 232.646 417.772H226.454C226.443 418.135 226.486 418.481 226.582 418.812C226.678 419.132 226.832 419.42 227.046 419.676C227.259 419.921 227.531 420.119 227.862 420.268C228.192 420.417 228.582 420.492 229.03 420.492C229.606 420.492 230.075 420.359 230.438 420.092C230.811 419.825 231.056 419.42 231.174 418.876H232.517ZM235.047 417.436C235.047 417.82 235.095 418.199 235.191 418.572C235.298 418.935 235.453 419.26 235.655 419.548C235.869 419.836 236.135 420.065 236.455 420.236C236.786 420.407 237.17 420.492 237.607 420.492C238.066 420.492 238.455 420.401 238.775 420.22C239.095 420.039 239.357 419.804 239.559 419.516C239.762 419.217 239.906 418.881 239.991 418.508C240.087 418.135 240.135 417.756 240.135 417.372C240.135 416.967 240.087 416.577 239.991 416.204C239.895 415.82 239.741 415.484 239.527 415.196C239.325 414.908 239.058 414.679 238.727 414.508C238.397 414.327 237.997 414.236 237.527 414.236C237.069 414.236 236.679 414.327 236.359 414.508C236.039 414.689 235.783 414.929 235.591 415.228C235.399 415.527 235.261 415.868 235.175 416.252C235.09 416.636 235.047 417.031 235.047 417.436ZM241.447 421.5H240.087V420.38H240.055C239.831 420.839 239.479 421.169 238.999 421.372C238.519 421.575 237.991 421.676 237.415 421.676C236.775 421.676 236.215 421.559 235.735 421.324C235.266 421.089 234.871 420.775 234.551 420.38C234.242 419.985 234.007 419.527 233.847 419.004C233.687 418.481 233.607 417.927 233.607 417.34C233.607 416.753 233.682 416.199 233.831 415.676C233.991 415.153 234.226 414.7 234.535 414.316C234.855 413.921 235.25 413.612 235.719 413.388C236.199 413.153 236.754 413.036 237.383 413.036C237.597 413.036 237.826 413.057 238.071 413.1C238.317 413.143 238.562 413.217 238.807 413.324C239.053 413.42 239.282 413.553 239.495 413.724C239.719 413.884 239.906 414.087 240.055 414.332H240.087V410.076H241.447V421.5Z" fill="black" fill-opacity="0.68"/>
<path d="M332 401H421C429.284 401 436 407.716 436 416C436 424.284 429.284 431 421 431H332C323.716 431 317 424.284 317 416C317 407.716 323.716 401 332 401Z" stroke="black" stroke-opacity="0.2" stroke-width="2"/>
<path fill-rule="evenodd" clip-rule="evenodd" d="M339.292 413.047L333.223 420.047C333.049 420.247 332.782 420.375 332.483 420.375C332.183 420.375 331.916 420.247 331.742 420.047L328.708 416.547C328.578 416.397 328.5 416.207 328.5 416C328.5 415.758 328.606 415.54 328.778 415.381L329.157 415.031C329.329 414.873 329.566 414.775 329.828 414.775C330.063 414.775 330.279 414.855 330.445 414.986L332.293 416.875L337.903 411.862C338.073 411.715 338.301 411.625 338.552 411.625C339.075 411.625 339.5 412.017 339.5 412.5C339.5 412.707 339.422 412.897 339.292 413.047Z" fill="black" fill-opacity="0.2"/>
<path d="M349.447 411.004H351.197V419.488H356.279V421H349.447V411.004ZM363.499 419.39C363.499 419.586 363.523 419.726 363.569 419.81C363.625 419.894 363.728 419.936 363.877 419.936C363.924 419.936 363.98 419.936 364.045 419.936C364.111 419.936 364.185 419.927 364.269 419.908V421.014C364.213 421.033 364.139 421.051 364.045 421.07C363.961 421.098 363.873 421.121 363.779 421.14C363.686 421.159 363.593 421.173 363.499 421.182C363.406 421.191 363.327 421.196 363.261 421.196C362.935 421.196 362.664 421.131 362.449 421C362.235 420.869 362.095 420.641 362.029 420.314C361.712 420.622 361.32 420.846 360.853 420.986C360.396 421.126 359.953 421.196 359.523 421.196C359.197 421.196 358.884 421.149 358.585 421.056C358.287 420.972 358.021 420.846 357.787 420.678C357.563 420.501 357.381 420.281 357.241 420.02C357.111 419.749 357.045 419.437 357.045 419.082C357.045 418.634 357.125 418.27 357.283 417.99C357.451 417.71 357.666 417.491 357.927 417.332C358.198 417.173 358.497 417.061 358.823 416.996C359.159 416.921 359.495 416.865 359.831 416.828C360.121 416.772 360.396 416.735 360.657 416.716C360.919 416.688 361.147 416.646 361.343 416.59C361.549 416.534 361.707 416.45 361.819 416.338C361.941 416.217 362.001 416.039 362.001 415.806C362.001 415.601 361.95 415.433 361.847 415.302C361.754 415.171 361.633 415.073 361.483 415.008C361.343 414.933 361.185 414.887 361.007 414.868C360.83 414.84 360.662 414.826 360.503 414.826C360.055 414.826 359.687 414.919 359.397 415.106C359.108 415.293 358.945 415.582 358.907 415.974H357.311C357.339 415.507 357.451 415.12 357.647 414.812C357.843 414.504 358.091 414.257 358.389 414.07C358.697 413.883 359.043 413.753 359.425 413.678C359.808 413.603 360.2 413.566 360.601 413.566C360.956 413.566 361.306 413.603 361.651 413.678C361.997 413.753 362.305 413.874 362.575 414.042C362.855 414.21 363.079 414.429 363.247 414.7C363.415 414.961 363.499 415.283 363.499 415.666V419.39ZM361.903 417.374C361.661 417.533 361.362 417.631 361.007 417.668C360.653 417.696 360.298 417.743 359.943 417.808C359.775 417.836 359.612 417.878 359.453 417.934C359.295 417.981 359.155 418.051 359.033 418.144C358.912 418.228 358.814 418.345 358.739 418.494C358.674 418.634 358.641 418.807 358.641 419.012C358.641 419.189 358.693 419.339 358.795 419.46C358.898 419.581 359.019 419.679 359.159 419.754C359.309 419.819 359.467 419.866 359.635 419.894C359.813 419.922 359.971 419.936 360.111 419.936C360.289 419.936 360.48 419.913 360.685 419.866C360.891 419.819 361.082 419.74 361.259 419.628C361.446 419.516 361.6 419.376 361.721 419.208C361.843 419.031 361.903 418.816 361.903 418.564V417.374ZM365.434 411.004H367.03V414.7H367.058C367.17 414.523 367.305 414.364 367.464 414.224C367.622 414.084 367.795 413.967 367.982 413.874C368.178 413.771 368.378 413.697 368.584 413.65C368.798 413.594 369.008 413.566 369.214 413.566C369.783 413.566 370.278 413.669 370.698 413.874C371.127 414.07 371.482 414.345 371.762 414.7C372.042 415.045 372.252 415.451 372.392 415.918C372.532 416.385 372.602 416.884 372.602 417.416C372.602 417.901 372.536 418.373 372.406 418.83C372.284 419.287 372.093 419.693 371.832 420.048C371.58 420.393 371.258 420.673 370.866 420.888C370.474 421.093 370.012 421.196 369.48 421.196C369.237 421.196 368.99 421.177 368.738 421.14C368.495 421.112 368.262 421.051 368.038 420.958C367.814 420.865 367.608 420.743 367.422 420.594C367.244 420.445 367.095 420.249 366.974 420.006H366.946V421H365.434V411.004ZM371.006 417.388C371.006 417.061 370.964 416.744 370.88 416.436C370.796 416.128 370.67 415.857 370.502 415.624C370.334 415.381 370.124 415.19 369.872 415.05C369.62 414.901 369.33 414.826 369.004 414.826C368.332 414.826 367.823 415.059 367.478 415.526C367.142 415.993 366.974 416.613 366.974 417.388C366.974 417.752 367.016 418.093 367.1 418.41C367.193 418.718 367.328 418.984 367.506 419.208C367.683 419.432 367.893 419.609 368.136 419.74C368.388 419.871 368.677 419.936 369.004 419.936C369.368 419.936 369.676 419.861 369.928 419.712C370.18 419.563 370.385 419.371 370.544 419.138C370.712 418.895 370.828 418.625 370.894 418.326C370.968 418.018 371.006 417.705 371.006 417.388ZM379.095 416.744C379.077 416.492 379.021 416.249 378.927 416.016C378.843 415.783 378.722 415.582 378.563 415.414C378.414 415.237 378.227 415.097 378.003 414.994C377.789 414.882 377.546 414.826 377.275 414.826C376.995 414.826 376.739 414.877 376.505 414.98C376.281 415.073 376.085 415.209 375.917 415.386C375.759 415.554 375.628 415.755 375.525 415.988C375.432 416.221 375.381 416.473 375.371 416.744H379.095ZM375.371 417.794C375.371 418.074 375.409 418.345 375.483 418.606C375.567 418.867 375.689 419.096 375.847 419.292C376.006 419.488 376.207 419.647 376.449 419.768C376.692 419.88 376.981 419.936 377.317 419.936C377.784 419.936 378.157 419.838 378.437 419.642C378.727 419.437 378.941 419.133 379.081 418.732H380.593C380.509 419.124 380.365 419.474 380.159 419.782C379.954 420.09 379.707 420.351 379.417 420.566C379.128 420.771 378.801 420.925 378.437 421.028C378.083 421.14 377.709 421.196 377.317 421.196C376.748 421.196 376.244 421.103 375.805 420.916C375.367 420.729 374.993 420.468 374.685 420.132C374.387 419.796 374.158 419.395 373.999 418.928C373.85 418.461 373.775 417.948 373.775 417.388C373.775 416.875 373.855 416.389 374.013 415.932C374.181 415.465 374.415 415.059 374.713 414.714C375.021 414.359 375.39 414.079 375.819 413.874C376.249 413.669 376.734 413.566 377.275 413.566C377.845 413.566 378.353 413.687 378.801 413.93C379.259 414.163 379.637 414.476 379.935 414.868C380.234 415.26 380.449 415.713 380.579 416.226C380.719 416.73 380.757 417.253 380.691 417.794H375.371ZM382.122 411.004H383.718V421H382.122V411.004Z" fill="black" fill-opacity="0.2"/>
<path d="M393 416C393 411.582 396.582 408 401 408C405.418 408 409 411.582 409 416C409 420.418 405.418 424 401 424C396.582 424 393 420.418 393 416Z" fill="black" fill-opacity="0.2"/>
<path d="M401.938 420H400.918V413.904H398.71V413.088C398.998 413.088 399.278 413.068 399.55 413.028C399.822 412.98 400.066 412.896 400.282 412.776C400.506 412.656 400.694 412.492 400.846 412.284C400.998 412.076 401.102 411.812 401.158 411.492H401.938V420Z" fill="white"/>
<g clip-path="url(#clip4_58894_15678)">
<path d="M432.124 422.023L424.999 414.75L417.874 422.023L419.909 424.102L424.999 418.905L430.087 424.102L432.124 422.023Z" fill="black" fill-opacity="0.2"/>
</g>
<path d="M181.248 518.076H188.752V519.356H182.768V522.988H188.016V524.268H182.768V529.5H181.248V518.076ZM191.204 525.372C191.204 525.873 191.268 526.321 191.396 526.716C191.534 527.1 191.721 527.425 191.956 527.692C192.19 527.948 192.462 528.145 192.772 528.284C193.092 528.423 193.428 528.492 193.78 528.492C194.132 528.492 194.462 528.423 194.772 528.284C195.092 528.145 195.369 527.948 195.604 527.692C195.838 527.425 196.02 527.1 196.148 526.716C196.286 526.321 196.356 525.873 196.356 525.372C196.356 524.871 196.286 524.428 196.148 524.044C196.02 523.649 195.838 523.319 195.604 523.052C195.369 522.785 195.092 522.583 194.772 522.444C194.462 522.305 194.132 522.236 193.78 522.236C193.428 522.236 193.092 522.305 192.772 522.444C192.462 522.583 192.19 522.785 191.956 523.052C191.721 523.319 191.534 523.649 191.396 524.044C191.268 524.428 191.204 524.871 191.204 525.372ZM189.764 525.372C189.764 524.764 189.849 524.199 190.02 523.676C190.19 523.143 190.446 522.684 190.788 522.3C191.129 521.905 191.55 521.596 192.052 521.372C192.553 521.148 193.129 521.036 193.78 521.036C194.441 521.036 195.017 521.148 195.508 521.372C196.009 521.596 196.43 521.905 196.772 522.3C197.113 522.684 197.369 523.143 197.54 523.676C197.71 524.199 197.796 524.764 197.796 525.372C197.796 525.98 197.71 526.545 197.54 527.068C197.369 527.591 197.113 528.049 196.772 528.444C196.43 528.828 196.009 529.132 195.508 529.356C195.017 529.569 194.441 529.676 193.78 529.676C193.129 529.676 192.553 529.569 192.052 529.356C191.55 529.132 191.129 528.828 190.788 528.444C190.446 528.049 190.19 527.591 190.02 527.068C189.849 526.545 189.764 525.98 189.764 525.372ZM205.015 523.884C204.908 523.361 204.684 522.956 204.343 522.668C204.002 522.38 203.543 522.236 202.967 522.236C202.476 522.236 202.066 522.327 201.735 522.508C201.404 522.689 201.138 522.929 200.935 523.228C200.743 523.527 200.604 523.873 200.519 524.268C200.434 524.652 200.391 525.052 200.391 525.468C200.391 525.852 200.434 526.225 200.519 526.588C200.615 526.951 200.759 527.276 200.951 527.564C201.143 527.841 201.394 528.065 201.703 528.236C202.012 528.407 202.38 528.492 202.807 528.492C203.479 528.492 204.002 528.316 204.375 527.964C204.759 527.612 204.994 527.116 205.079 526.476H206.471C206.322 527.5 205.938 528.289 205.319 528.844C204.711 529.399 203.879 529.676 202.823 529.676C202.194 529.676 201.634 529.575 201.143 529.372C200.663 529.169 200.258 528.881 199.927 528.508C199.607 528.135 199.362 527.692 199.191 527.18C199.031 526.657 198.951 526.087 198.951 525.468C198.951 524.849 199.031 524.273 199.191 523.74C199.351 523.196 199.591 522.727 199.911 522.332C200.242 521.927 200.652 521.612 201.143 521.388C201.634 521.153 202.204 521.036 202.855 521.036C203.324 521.036 203.762 521.095 204.167 521.212C204.583 521.319 204.946 521.489 205.255 521.724C205.575 521.959 205.836 522.257 206.039 522.62C206.242 522.972 206.37 523.393 206.423 523.884H205.015ZM214.841 529.5H213.561V528.188H213.529C213.241 528.7 212.873 529.079 212.425 529.324C211.977 529.559 211.449 529.676 210.841 529.676C210.297 529.676 209.843 529.607 209.481 529.468C209.118 529.319 208.825 529.111 208.601 528.844C208.377 528.577 208.217 528.263 208.121 527.9C208.035 527.527 207.993 527.116 207.993 526.668V521.228H209.353V526.828C209.353 527.34 209.502 527.745 209.801 528.044C210.099 528.343 210.51 528.492 211.033 528.492C211.449 528.492 211.806 528.428 212.105 528.3C212.414 528.172 212.67 527.991 212.873 527.756C213.075 527.521 213.225 527.249 213.321 526.94C213.427 526.62 213.481 526.273 213.481 525.9V521.228H214.841V529.5ZM217.715 526.892C217.726 527.191 217.795 527.447 217.923 527.66C218.051 527.863 218.217 528.028 218.419 528.156C218.633 528.273 218.867 528.359 219.123 528.412C219.39 528.465 219.662 528.492 219.939 528.492C220.153 528.492 220.377 528.476 220.611 528.444C220.846 528.412 221.059 528.353 221.251 528.268C221.454 528.183 221.619 528.06 221.747 527.9C221.875 527.729 221.939 527.516 221.939 527.26C221.939 526.908 221.806 526.641 221.539 526.46C221.273 526.279 220.937 526.135 220.531 526.028C220.137 525.911 219.705 525.809 219.235 525.724C218.766 525.628 218.329 525.5 217.923 525.34C217.529 525.169 217.198 524.935 216.931 524.636C216.665 524.337 216.531 523.921 216.531 523.388C216.531 522.972 216.622 522.615 216.803 522.316C216.995 522.017 217.235 521.777 217.523 521.596C217.822 521.404 218.153 521.265 218.515 521.18C218.889 521.084 219.257 521.036 219.619 521.036C220.089 521.036 220.521 521.079 220.915 521.164C221.31 521.239 221.657 521.377 221.955 521.58C222.265 521.772 222.51 522.039 222.691 522.38C222.873 522.711 222.979 523.127 223.011 523.628H221.651C221.63 523.361 221.561 523.143 221.443 522.972C221.326 522.791 221.177 522.647 220.995 522.54C220.814 522.433 220.611 522.359 220.387 522.316C220.174 522.263 219.955 522.236 219.731 522.236C219.529 522.236 219.321 522.252 219.107 522.284C218.905 522.316 218.718 522.375 218.547 522.46C218.377 522.535 218.238 522.641 218.131 522.78C218.025 522.908 217.971 523.079 217.971 523.292C217.971 523.527 218.051 523.724 218.211 523.884C218.382 524.033 218.595 524.161 218.851 524.268C219.107 524.364 219.395 524.449 219.715 524.524C220.035 524.588 220.355 524.657 220.675 524.732C221.017 524.807 221.347 524.897 221.667 525.004C221.998 525.111 222.286 525.255 222.531 525.436C222.787 525.607 222.99 525.825 223.139 526.092C223.299 526.359 223.379 526.689 223.379 527.084C223.379 527.585 223.273 528.001 223.059 528.332C222.857 528.663 222.585 528.929 222.243 529.132C221.913 529.335 221.534 529.473 221.107 529.548C220.691 529.633 220.275 529.676 219.859 529.676C219.401 529.676 218.963 529.628 218.547 529.532C218.131 529.436 217.763 529.281 217.443 529.068C217.123 528.844 216.867 528.556 216.675 528.204C216.483 527.841 216.377 527.404 216.355 526.892H217.715Z" fill="black" fill-opacity="0.68"/>
<mask id="path-40-outside-1_58894_15678" maskUnits="userSpaceOnUse" x="313" y="503" width="131" height="42" fill="black">
<rect fill="white" x="313" y="503" width="131" height="42"/>
<path d="M318 524C318 515.163 325.163 508 334 508H423C431.837 508 439 515.163 439 524C439 532.837 431.837 540 423 540H334C325.163 540 318 532.837 318 524Z"/>
</mask>
<path d="M334 508V513H423V508V503H334V508ZM423 540V535H334V540V545H423V540ZM334 540V535C327.925 535 323 530.075 323 524H318H313C313 535.598 322.402 545 334 545V540ZM439 524H434C434 530.075 429.075 535 423 535V540V545C434.598 545 444 535.598 444 524H439ZM423 508V513C429.075 513 434 517.925 434 524H439H444C444 512.402 434.598 503 423 503V508ZM334 508V503C322.402 503 313 512.402 313 524H318H323C323 517.925 327.925 513 334 513V508Z" fill="black" mask="url(#path-40-outside-1_58894_15678)"/>
<mask id="path-42-outside-2_58894_15678" maskUnits="userSpaceOnUse" x="316" y="506" width="125" height="36" fill="black">
<rect fill="white" x="316" y="506" width="125" height="36"/>
<path d="M318 524C318 515.163 325.163 508 334 508H423C431.837 508 439 515.163 439 524C439 532.837 431.837 540 423 540H334C325.163 540 318 532.837 318 524Z"/>
</mask>
<path d="M334 508V510H423V508V506H334V508ZM423 540V538H334V540V542H423V540ZM334 540V538C326.268 538 320 531.732 320 524H318H316C316 533.941 324.059 542 334 542V540ZM439 524H437C437 531.732 430.732 538 423 538V540V542C432.941 542 441 533.941 441 524H439ZM423 508V510C430.732 510 437 516.268 437 524H439H441C441 514.059 432.941 506 423 506V508ZM334 508V506C324.059 506 316 514.059 316 524H318H320C320 516.268 326.268 510 334 510V508Z" fill="white" mask="url(#path-42-outside-2_58894_15678)"/>
<mask id="path-44-inside-3_58894_15678" fill="white">
<path d="M318 524C318 515.163 325.163 508 334 508H423C431.837 508 439 515.163 439 524C439 532.837 431.837 540 423 540H334C325.163 540 318 532.837 318 524Z"/>
</mask>
<path d="M334 508V510H423V508V506H334V508ZM423 540V538H334V540V542H423V540ZM334 540V538C326.268 538 320 531.732 320 524H318H316C316 533.941 324.059 542 334 542V540ZM439 524H437C437 531.732 430.732 538 423 538V540V542C432.941 542 441 533.941 441 524H439ZM423 508V510C430.732 510 437 516.268 437 524H439H441C441 514.059 432.941 506 423 506V508ZM334 508V506C324.059 506 316 514.059 316 524H318H320C320 516.268 326.268 510 334 510V508Z" fill="black" fill-opacity="0.68" mask="url(#path-44-inside-3_58894_15678)"/>
<path fill-rule="evenodd" clip-rule="evenodd" d="M341.292 521.047L335.223 528.047C335.049 528.247 334.782 528.375 334.483 528.375C334.183 528.375 333.916 528.247 333.742 528.047L330.708 524.547C330.578 524.397 330.5 524.207 330.5 524C330.5 523.758 330.606 523.54 330.778 523.381L331.157 523.031C331.329 522.873 331.566 522.775 331.828 522.775C332.063 522.775 332.279 522.855 332.445 522.986L334.293 524.875L339.903 519.862C340.073 519.715 340.301 519.625 340.552 519.625C341.075 519.625 341.5 520.017 341.5 520.5C341.5 520.707 341.422 520.897 341.292 521.047Z" fill="black" fill-opacity="0.68"/>
<path d="M351.447 519.004H353.197V527.488H358.279V529H351.447V519.004ZM365.499 527.39C365.499 527.586 365.523 527.726 365.569 527.81C365.625 527.894 365.728 527.936 365.877 527.936C365.924 527.936 365.98 527.936 366.045 527.936C366.111 527.936 366.185 527.927 366.269 527.908V529.014C366.213 529.033 366.139 529.051 366.045 529.07C365.961 529.098 365.873 529.121 365.779 529.14C365.686 529.159 365.593 529.173 365.499 529.182C365.406 529.191 365.327 529.196 365.261 529.196C364.935 529.196 364.664 529.131 364.449 529C364.235 528.869 364.095 528.641 364.029 528.314C363.712 528.622 363.32 528.846 362.853 528.986C362.396 529.126 361.953 529.196 361.523 529.196C361.197 529.196 360.884 529.149 360.585 529.056C360.287 528.972 360.021 528.846 359.787 528.678C359.563 528.501 359.381 528.281 359.241 528.02C359.111 527.749 359.045 527.437 359.045 527.082C359.045 526.634 359.125 526.27 359.283 525.99C359.451 525.71 359.666 525.491 359.927 525.332C360.198 525.173 360.497 525.061 360.823 524.996C361.159 524.921 361.495 524.865 361.831 524.828C362.121 524.772 362.396 524.735 362.657 524.716C362.919 524.688 363.147 524.646 363.343 524.59C363.549 524.534 363.707 524.45 363.819 524.338C363.941 524.217 364.001 524.039 364.001 523.806C364.001 523.601 363.95 523.433 363.847 523.302C363.754 523.171 363.633 523.073 363.483 523.008C363.343 522.933 363.185 522.887 363.007 522.868C362.83 522.84 362.662 522.826 362.503 522.826C362.055 522.826 361.687 522.919 361.397 523.106C361.108 523.293 360.945 523.582 360.907 523.974H359.311C359.339 523.507 359.451 523.12 359.647 522.812C359.843 522.504 360.091 522.257 360.389 522.07C360.697 521.883 361.043 521.753 361.425 521.678C361.808 521.603 362.2 521.566 362.601 521.566C362.956 521.566 363.306 521.603 363.651 521.678C363.997 521.753 364.305 521.874 364.575 522.042C364.855 522.21 365.079 522.429 365.247 522.7C365.415 522.961 365.499 523.283 365.499 523.666V527.39ZM363.903 525.374C363.661 525.533 363.362 525.631 363.007 525.668C362.653 525.696 362.298 525.743 361.943 525.808C361.775 525.836 361.612 525.878 361.453 525.934C361.295 525.981 361.155 526.051 361.033 526.144C360.912 526.228 360.814 526.345 360.739 526.494C360.674 526.634 360.641 526.807 360.641 527.012C360.641 527.189 360.693 527.339 360.795 527.46C360.898 527.581 361.019 527.679 361.159 527.754C361.309 527.819 361.467 527.866 361.635 527.894C361.813 527.922 361.971 527.936 362.111 527.936C362.289 527.936 362.48 527.913 362.685 527.866C362.891 527.819 363.082 527.74 363.259 527.628C363.446 527.516 363.6 527.376 363.721 527.208C363.843 527.031 363.903 526.816 363.903 526.564V525.374ZM367.434 519.004H369.03V522.7H369.058C369.17 522.523 369.305 522.364 369.464 522.224C369.622 522.084 369.795 521.967 369.982 521.874C370.178 521.771 370.378 521.697 370.584 521.65C370.798 521.594 371.008 521.566 371.214 521.566C371.783 521.566 372.278 521.669 372.698 521.874C373.127 522.07 373.482 522.345 373.762 522.7C374.042 523.045 374.252 523.451 374.392 523.918C374.532 524.385 374.602 524.884 374.602 525.416C374.602 525.901 374.536 526.373 374.406 526.83C374.284 527.287 374.093 527.693 373.832 528.048C373.58 528.393 373.258 528.673 372.866 528.888C372.474 529.093 372.012 529.196 371.48 529.196C371.237 529.196 370.99 529.177 370.738 529.14C370.495 529.112 370.262 529.051 370.038 528.958C369.814 528.865 369.608 528.743 369.422 528.594C369.244 528.445 369.095 528.249 368.974 528.006H368.946V529H367.434V519.004ZM373.006 525.388C373.006 525.061 372.964 524.744 372.88 524.436C372.796 524.128 372.67 523.857 372.502 523.624C372.334 523.381 372.124 523.19 371.872 523.05C371.62 522.901 371.33 522.826 371.004 522.826C370.332 522.826 369.823 523.059 369.478 523.526C369.142 523.993 368.974 524.613 368.974 525.388C368.974 525.752 369.016 526.093 369.1 526.41C369.193 526.718 369.328 526.984 369.506 527.208C369.683 527.432 369.893 527.609 370.136 527.74C370.388 527.871 370.677 527.936 371.004 527.936C371.368 527.936 371.676 527.861 371.928 527.712C372.18 527.563 372.385 527.371 372.544 527.138C372.712 526.895 372.828 526.625 372.894 526.326C372.968 526.018 373.006 525.705 373.006 525.388ZM381.095 524.744C381.077 524.492 381.021 524.249 380.927 524.016C380.843 523.783 380.722 523.582 380.563 523.414C380.414 523.237 380.227 523.097 380.003 522.994C379.789 522.882 379.546 522.826 379.275 522.826C378.995 522.826 378.739 522.877 378.505 522.98C378.281 523.073 378.085 523.209 377.917 523.386C377.759 523.554 377.628 523.755 377.525 523.988C377.432 524.221 377.381 524.473 377.371 524.744H381.095ZM377.371 525.794C377.371 526.074 377.409 526.345 377.483 526.606C377.567 526.867 377.689 527.096 377.847 527.292C378.006 527.488 378.207 527.647 378.449 527.768C378.692 527.88 378.981 527.936 379.317 527.936C379.784 527.936 380.157 527.838 380.437 527.642C380.727 527.437 380.941 527.133 381.081 526.732H382.593C382.509 527.124 382.365 527.474 382.159 527.782C381.954 528.09 381.707 528.351 381.417 528.566C381.128 528.771 380.801 528.925 380.437 529.028C380.083 529.14 379.709 529.196 379.317 529.196C378.748 529.196 378.244 529.103 377.805 528.916C377.367 528.729 376.993 528.468 376.685 528.132C376.387 527.796 376.158 527.395 375.999 526.928C375.85 526.461 375.775 525.948 375.775 525.388C375.775 524.875 375.855 524.389 376.013 523.932C376.181 523.465 376.415 523.059 376.713 522.714C377.021 522.359 377.39 522.079 377.819 521.874C378.249 521.669 378.734 521.566 379.275 521.566C379.845 521.566 380.353 521.687 380.801 521.93C381.259 522.163 381.637 522.476 381.935 522.868C382.234 523.26 382.449 523.713 382.579 524.226C382.719 524.73 382.757 525.253 382.691 525.794H377.371ZM384.122 519.004H385.718V529H384.122V519.004Z" fill="black" fill-opacity="0.68"/>
<path d="M395 524C395 519.582 398.582 516 403 516C407.418 516 411 519.582 411 524C411 528.418 407.418 532 403 532C398.582 532 395 528.418 395 524Z" fill="#272727"/>
<path d="M403.938 528H402.918V521.904H400.71V521.088C400.998 521.088 401.278 521.068 401.55 521.028C401.822 520.98 402.066 520.896 402.282 520.776C402.506 520.656 402.694 520.492 402.846 520.284C402.998 520.076 403.102 519.812 403.158 519.492H403.938V528Z" fill="white"/>
<g clip-path="url(#clip5_58894_15678)">
<path d="M434.124 530.023L426.999 522.75L419.874 530.023L421.909 532.102L426.999 526.905L432.087 532.102L434.124 530.023Z" fill="black" fill-opacity="0.68"/>
</g>
<path d="M187.856 629.42C187.771 628.599 187.472 628.007 186.96 627.644C186.459 627.271 185.813 627.084 185.024 627.084C184.704 627.084 184.389 627.116 184.08 627.18C183.771 627.244 183.493 627.351 183.248 627.5C183.013 627.649 182.821 627.852 182.672 628.108C182.533 628.353 182.464 628.663 182.464 629.036C182.464 629.388 182.565 629.676 182.768 629.9C182.981 630.113 183.259 630.289 183.6 630.428C183.952 630.567 184.347 630.684 184.784 630.78C185.221 630.865 185.664 630.961 186.112 631.068C186.571 631.175 187.019 631.303 187.456 631.452C187.893 631.591 188.283 631.783 188.624 632.028C188.976 632.273 189.253 632.583 189.456 632.956C189.669 633.329 189.776 633.799 189.776 634.364C189.776 634.972 189.637 635.495 189.36 635.932C189.093 636.359 188.747 636.711 188.32 636.988C187.893 637.255 187.413 637.447 186.88 637.564C186.357 637.692 185.835 637.756 185.312 637.756C184.672 637.756 184.064 637.676 183.488 637.516C182.923 637.356 182.421 637.116 181.984 636.796C181.557 636.465 181.216 636.049 180.96 635.548C180.715 635.036 180.592 634.433 180.592 633.74H182.032C182.032 634.22 182.123 634.636 182.304 634.988C182.496 635.329 182.741 635.612 183.04 635.836C183.349 636.06 183.707 636.225 184.112 636.332C184.517 636.439 184.933 636.492 185.36 636.492C185.701 636.492 186.043 636.46 186.384 636.396C186.736 636.332 187.051 636.225 187.328 636.076C187.605 635.916 187.829 635.703 188 635.436C188.171 635.169 188.256 634.828 188.256 634.412C188.256 634.017 188.149 633.697 187.936 633.452C187.733 633.207 187.456 633.009 187.104 632.86C186.763 632.7 186.373 632.572 185.936 632.476C185.499 632.38 185.051 632.284 184.592 632.188C184.144 632.081 183.701 631.964 183.264 631.836C182.827 631.697 182.432 631.521 182.08 631.308C181.739 631.084 181.461 630.801 181.248 630.46C181.045 630.108 180.944 629.671 180.944 629.148C180.944 628.572 181.061 628.076 181.296 627.66C181.531 627.233 181.84 626.887 182.224 626.62C182.619 626.343 183.061 626.14 183.552 626.012C184.053 625.873 184.565 625.804 185.088 625.804C185.675 625.804 186.219 625.873 186.72 626.012C187.221 626.151 187.659 626.369 188.032 626.668C188.416 626.967 188.715 627.345 188.928 627.804C189.152 628.252 189.275 628.791 189.296 629.42H187.856ZM191.479 626.076H192.839V632.844L196.615 629.228H198.439L195.159 632.236L198.679 637.5H196.951L194.119 633.18L192.839 634.364V637.5H191.479V626.076ZM205.44 632.572C205.419 632.252 205.344 631.948 205.216 631.66C205.099 631.372 204.933 631.127 204.72 630.924C204.517 630.711 204.272 630.545 203.984 630.428C203.707 630.3 203.397 630.236 203.056 630.236C202.704 630.236 202.384 630.3 202.096 630.428C201.819 630.545 201.579 630.711 201.376 630.924C201.173 631.137 201.013 631.388 200.896 631.676C200.779 631.953 200.709 632.252 200.688 632.572H205.44ZM206.752 634.876C206.571 635.804 206.171 636.503 205.552 636.972C204.933 637.441 204.155 637.676 203.216 637.676C202.555 637.676 201.979 637.569 201.488 637.356C201.008 637.143 200.603 636.844 200.272 636.46C199.941 636.076 199.691 635.617 199.52 635.084C199.36 634.551 199.269 633.969 199.248 633.34C199.248 632.711 199.344 632.135 199.536 631.612C199.728 631.089 199.995 630.636 200.336 630.252C200.688 629.868 201.099 629.569 201.568 629.356C202.048 629.143 202.571 629.036 203.136 629.036C203.872 629.036 204.48 629.191 204.96 629.5C205.451 629.799 205.84 630.183 206.128 630.652C206.427 631.121 206.629 631.633 206.736 632.188C206.853 632.743 206.901 633.271 206.88 633.772H200.688C200.677 634.135 200.72 634.481 200.816 634.812C200.912 635.132 201.067 635.42 201.28 635.676C201.493 635.921 201.765 636.119 202.096 636.268C202.427 636.417 202.816 636.492 203.264 636.492C203.84 636.492 204.309 636.359 204.672 636.092C205.045 635.825 205.291 635.42 205.408 634.876H206.752ZM208.37 626.076H209.73V637.5H208.37V626.076ZM217.581 632.572C217.559 632.252 217.485 631.948 217.357 631.66C217.239 631.372 217.074 631.127 216.861 630.924C216.658 630.711 216.413 630.545 216.125 630.428C215.847 630.3 215.538 630.236 215.197 630.236C214.845 630.236 214.525 630.3 214.237 630.428C213.959 630.545 213.719 630.711 213.517 630.924C213.314 631.137 213.154 631.388 213.037 631.676C212.919 631.953 212.85 632.252 212.829 632.572H217.581ZM218.892 634.876C218.711 635.804 218.311 636.503 217.693 636.972C217.074 637.441 216.295 637.676 215.357 637.676C214.695 637.676 214.119 637.569 213.629 637.356C213.149 637.143 212.743 636.844 212.413 636.46C212.082 636.076 211.831 635.617 211.661 635.084C211.501 634.551 211.41 633.969 211.389 633.34C211.389 632.711 211.485 632.135 211.677 631.612C211.869 631.089 212.135 630.636 212.477 630.252C212.829 629.868 213.239 629.569 213.709 629.356C214.189 629.143 214.711 629.036 215.277 629.036C216.013 629.036 216.621 629.191 217.101 629.5C217.591 629.799 217.981 630.183 218.269 630.652C218.567 631.121 218.77 631.633 218.877 632.188C218.994 632.743 219.042 633.271 219.021 633.772H212.829C212.818 634.135 212.861 634.481 212.957 634.812C213.053 635.132 213.207 635.42 213.421 635.676C213.634 635.921 213.906 636.119 214.237 636.268C214.567 636.417 214.957 636.492 215.405 636.492C215.981 636.492 216.45 636.359 216.813 636.092C217.186 635.825 217.431 635.42 217.549 634.876H218.892ZM222.318 629.228H223.966V630.428H222.318V635.564C222.318 635.724 222.329 635.852 222.35 635.948C222.382 636.044 222.436 636.119 222.51 636.172C222.585 636.225 222.686 636.263 222.814 636.284C222.953 636.295 223.129 636.3 223.342 636.3H223.966V637.5H222.926C222.574 637.5 222.27 637.479 222.014 637.436C221.769 637.383 221.566 637.292 221.406 637.164C221.257 637.036 221.145 636.855 221.07 636.62C220.996 636.385 220.958 636.076 220.958 635.692V630.428H219.55V629.228H220.958V626.748H222.318V629.228ZM226.469 633.372C226.469 633.873 226.533 634.321 226.661 634.716C226.8 635.1 226.986 635.425 227.221 635.692C227.456 635.948 227.728 636.145 228.037 636.284C228.357 636.423 228.693 636.492 229.045 636.492C229.397 636.492 229.728 636.423 230.037 636.284C230.357 636.145 230.634 635.948 230.869 635.692C231.104 635.425 231.285 635.1 231.413 634.716C231.552 634.321 231.621 633.873 231.621 633.372C231.621 632.871 231.552 632.428 231.413 632.044C231.285 631.649 231.104 631.319 230.869 631.052C230.634 630.785 230.357 630.583 230.037 630.444C229.728 630.305 229.397 630.236 229.045 630.236C228.693 630.236 228.357 630.305 228.037 630.444C227.728 630.583 227.456 630.785 227.221 631.052C226.986 631.319 226.8 631.649 226.661 632.044C226.533 632.428 226.469 632.871 226.469 633.372ZM225.029 633.372C225.029 632.764 225.114 632.199 225.285 631.676C225.456 631.143 225.712 630.684 226.053 630.3C226.394 629.905 226.816 629.596 227.317 629.372C227.818 629.148 228.394 629.036 229.045 629.036C229.706 629.036 230.282 629.148 230.773 629.372C231.274 629.596 231.696 629.905 232.037 630.3C232.378 630.684 232.634 631.143 232.805 631.676C232.976 632.199 233.061 632.764 233.061 633.372C233.061 633.98 232.976 634.545 232.805 635.068C232.634 635.591 232.378 636.049 232.037 636.444C231.696 636.828 231.274 637.132 230.773 637.356C230.282 637.569 229.706 637.676 229.045 637.676C228.394 637.676 227.818 637.569 227.317 637.356C226.816 637.132 226.394 636.828 226.053 636.444C225.712 636.049 225.456 635.591 225.285 635.068C225.114 634.545 225.029 633.98 225.029 633.372ZM234.665 629.228H235.945V630.54H235.977C236.542 629.537 237.438 629.036 238.665 629.036C239.209 629.036 239.662 629.111 240.025 629.26C240.387 629.409 240.681 629.617 240.905 629.884C241.129 630.151 241.283 630.471 241.369 630.844C241.465 631.207 241.513 631.612 241.513 632.06V637.5H240.153V631.9C240.153 631.388 240.003 630.983 239.705 630.684C239.406 630.385 238.995 630.236 238.473 630.236C238.057 630.236 237.694 630.3 237.385 630.428C237.086 630.556 236.835 630.737 236.633 630.972C236.43 631.207 236.275 631.484 236.169 631.804C236.073 632.113 236.025 632.455 236.025 632.828V637.5H234.665V629.228Z" fill="black" fill-opacity="0.68"/>
<g clip-path="url(#clip6_58894_15678)">
<g clip-path="url(#clip7_58894_15678)">
<rect width="121" height="32" transform="translate(316 616)" fill="black" fill-opacity="0.04"/>
</g>
</g>
<defs>
<clipPath id="clip0_58894_15678">
<rect width="24" height="24" fill="white" transform="translate(413 84)"/>
</clipPath>
<clipPath id="clip1_58894_15678">
<rect width="24" height="24" fill="white" transform="translate(326 192)"/>
</clipPath>
<clipPath id="clip2_58894_15678">
<rect width="24" height="24" fill="white" transform="translate(413 192)"/>
</clipPath>
<clipPath id="clip3_58894_15678">
<rect width="24" height="24" fill="white" transform="translate(413 300)"/>
</clipPath>
<clipPath id="clip4_58894_15678">
<rect width="24" height="24" fill="white" transform="translate(413 408)"/>
</clipPath>
<clipPath id="clip5_58894_15678">
<rect width="24" height="24" fill="white" transform="translate(415 516)"/>
</clipPath>
<clipPath id="clip6_58894_15678">
<path d="M316 632C316 623.163 323.163 616 332 616H421C429.837 616 437 623.163 437 632C437 640.837 429.837 648 421 648H332C323.163 648 316 640.837 316 632Z" fill="white"/>
</clipPath>
<clipPath id="clip7_58894_15678">
<rect width="121" height="32" fill="white" transform="translate(316 616)"/>
</clipPath>
</defs>
</svg>
