<svg width="600" height="427" viewBox="0 0 600 427" fill="none" xmlns="http://www.w3.org/2000/svg">
<rect width="600" height="427" fill="black" fill-opacity="0.04"/>
<path d="M193.84 100.856H190.032V99.576H199.168V100.856H195.36V111H193.84V100.856ZM204.174 106.072C204.153 105.752 204.078 105.448 203.95 105.16C203.833 104.872 203.668 104.627 203.454 104.424C203.252 104.211 203.006 104.045 202.718 103.928C202.441 103.8 202.132 103.736 201.79 103.736C201.438 103.736 201.118 103.8 200.83 103.928C200.553 104.045 200.313 104.211 200.11 104.424C199.908 104.637 199.748 104.888 199.63 105.176C199.513 105.453 199.444 105.752 199.422 106.072H204.174ZM205.486 108.376C205.305 109.304 204.905 110.003 204.286 110.472C203.668 110.941 202.889 111.176 201.95 111.176C201.289 111.176 200.713 111.069 200.222 110.856C199.742 110.643 199.337 110.344 199.006 109.96C198.676 109.576 198.425 109.117 198.254 108.584C198.094 108.051 198.004 107.469 197.982 106.84C197.982 106.211 198.078 105.635 198.27 105.112C198.462 104.589 198.729 104.136 199.07 103.752C199.422 103.368 199.833 103.069 200.302 102.856C200.782 102.643 201.305 102.536 201.87 102.536C202.606 102.536 203.214 102.691 203.694 103C204.185 103.299 204.574 103.683 204.862 104.152C205.161 104.621 205.364 105.133 205.47 105.688C205.588 106.243 205.636 106.771 205.614 107.272H199.422C199.412 107.635 199.454 107.981 199.55 108.312C199.646 108.632 199.801 108.92 200.014 109.176C200.228 109.421 200.5 109.619 200.83 109.768C201.161 109.917 201.55 109.992 201.998 109.992C202.574 109.992 203.044 109.859 203.406 109.592C203.78 109.325 204.025 108.92 204.142 108.376H205.486ZM209.248 106.648L206.368 102.728H208.112L210.096 105.624L212.16 102.728H213.792L210.944 106.536L214.144 111H212.4L210.096 107.576L207.792 111H206.144L209.248 106.648ZM217.193 102.728H218.841V103.928H217.193V109.064C217.193 109.224 217.204 109.352 217.225 109.448C217.257 109.544 217.311 109.619 217.385 109.672C217.46 109.725 217.561 109.763 217.689 109.784C217.828 109.795 218.004 109.8 218.217 109.8H218.841V111H217.801C217.449 111 217.145 110.979 216.889 110.936C216.644 110.883 216.441 110.792 216.281 110.664C216.132 110.536 216.02 110.355 215.945 110.12C215.871 109.885 215.833 109.576 215.833 109.192V103.928H214.425V102.728H215.833V100.248H217.193V102.728ZM229.125 106.408H232.613V107.496H229.125V111H228.037V107.496H224.549V106.408H228.037V102.904H229.125V106.408ZM240.292 101.24H238.932V99.576H240.292V101.24ZM238.932 102.728H240.292V111H238.932V102.728ZM248.015 105.384C247.908 104.861 247.684 104.456 247.343 104.168C247.002 103.88 246.543 103.736 245.967 103.736C245.476 103.736 245.066 103.827 244.735 104.008C244.404 104.189 244.138 104.429 243.935 104.728C243.743 105.027 243.604 105.373 243.519 105.768C243.434 106.152 243.391 106.552 243.391 106.968C243.391 107.352 243.434 107.725 243.519 108.088C243.615 108.451 243.759 108.776 243.951 109.064C244.143 109.341 244.394 109.565 244.703 109.736C245.012 109.907 245.38 109.992 245.807 109.992C246.479 109.992 247.002 109.816 247.375 109.464C247.759 109.112 247.994 108.616 248.079 107.976H249.471C249.322 109 248.938 109.789 248.319 110.344C247.711 110.899 246.879 111.176 245.823 111.176C245.194 111.176 244.634 111.075 244.143 110.872C243.663 110.669 243.258 110.381 242.927 110.008C242.607 109.635 242.362 109.192 242.191 108.68C242.031 108.157 241.951 107.587 241.951 106.968C241.951 106.349 242.031 105.773 242.191 105.24C242.351 104.696 242.591 104.227 242.911 103.832C243.242 103.427 243.652 103.112 244.143 102.888C244.634 102.653 245.204 102.536 245.855 102.536C246.324 102.536 246.762 102.595 247.167 102.712C247.583 102.819 247.946 102.989 248.255 103.224C248.575 103.459 248.836 103.757 249.039 104.12C249.242 104.472 249.37 104.893 249.423 105.384H248.015ZM251.985 106.872C251.985 107.373 252.049 107.821 252.177 108.216C252.315 108.6 252.502 108.925 252.737 109.192C252.971 109.448 253.243 109.645 253.553 109.784C253.873 109.923 254.209 109.992 254.561 109.992C254.913 109.992 255.243 109.923 255.553 109.784C255.873 109.645 256.15 109.448 256.385 109.192C256.619 108.925 256.801 108.6 256.929 108.216C257.067 107.821 257.137 107.373 257.137 106.872C257.137 106.371 257.067 105.928 256.929 105.544C256.801 105.149 256.619 104.819 256.385 104.552C256.15 104.285 255.873 104.083 255.553 103.944C255.243 103.805 254.913 103.736 254.561 103.736C254.209 103.736 253.873 103.805 253.553 103.944C253.243 104.083 252.971 104.285 252.737 104.552C252.502 104.819 252.315 105.149 252.177 105.544C252.049 105.928 251.985 106.371 251.985 106.872ZM250.545 106.872C250.545 106.264 250.63 105.699 250.801 105.176C250.971 104.643 251.227 104.184 251.569 103.8C251.91 103.405 252.331 103.096 252.833 102.872C253.334 102.648 253.91 102.536 254.561 102.536C255.222 102.536 255.798 102.648 256.289 102.872C256.79 103.096 257.211 103.405 257.553 103.8C257.894 104.184 258.15 104.643 258.321 105.176C258.491 105.699 258.577 106.264 258.577 106.872C258.577 107.48 258.491 108.045 258.321 108.568C258.15 109.091 257.894 109.549 257.553 109.944C257.211 110.328 256.79 110.632 256.289 110.856C255.798 111.069 255.222 111.176 254.561 111.176C253.91 111.176 253.334 111.069 252.833 110.856C252.331 110.632 251.91 110.328 251.569 109.944C251.227 109.549 250.971 109.091 250.801 108.568C250.63 108.045 250.545 107.48 250.545 106.872ZM260.18 102.728H261.46V104.04H261.492C262.058 103.037 262.954 102.536 264.18 102.536C264.724 102.536 265.178 102.611 265.54 102.76C265.903 102.909 266.196 103.117 266.42 103.384C266.644 103.651 266.799 103.971 266.884 104.344C266.98 104.707 267.028 105.112 267.028 105.56V111H265.668V105.4C265.668 104.888 265.519 104.483 265.22 104.184C264.922 103.885 264.511 103.736 263.988 103.736C263.572 103.736 263.21 103.8 262.9 103.928C262.602 104.056 262.351 104.237 262.148 104.472C261.946 104.707 261.791 104.984 261.684 105.304C261.588 105.613 261.54 105.955 261.54 106.328V111H260.18V102.728Z" fill="black" fill-opacity="0.68"/>
<mask id="path-2-inside-1_60056_7426" fill="white">
<path d="M326 105.5C326 96.6634 333.163 89.5 342 89.5H395C403.837 89.5 411 96.6634 411 105.5C411 114.337 403.837 121.5 395 121.5H342C333.163 121.5 326 114.337 326 105.5Z"/>
</mask>
<path d="M342 89.5V90.5H395V89.5V88.5H342V89.5ZM395 121.5V120.5H342V121.5V122.5H395V121.5ZM342 121.5V120.5C333.716 120.5 327 113.784 327 105.5H326H325C325 114.889 332.611 122.5 342 122.5V121.5ZM411 105.5H410C410 113.784 403.284 120.5 395 120.5V121.5V122.5C404.389 122.5 412 114.889 412 105.5H411ZM395 89.5V90.5C403.284 90.5 410 97.2157 410 105.5H411H412C412 96.1112 404.389 88.5 395 88.5V89.5ZM342 89.5V88.5C332.611 88.5 325 96.1112 325 105.5H326H327C327 97.2157 333.716 90.5 342 90.5V89.5Z" fill="black" fill-opacity="0.2" mask="url(#path-2-inside-1_60056_7426)"/>
<path fill-rule="evenodd" clip-rule="evenodd" d="M348.267 104.995L344 109.664L339.734 104.995L339.731 104.992C338.905 104.086 338.979 102.69 339.896 101.873C340.78 101.087 342.132 101.121 342.973 101.952C342.975 101.955 342.977 101.957 342.979 101.959L343.632 102.572L344 102.922L344.368 102.572L345.021 101.959C345.023 101.957 345.025 101.955 345.027 101.952C345.446 101.537 346.015 101.304 346.608 101.306C347.842 101.306 348.843 102.294 348.843 103.514C348.843 104.06 348.639 104.587 348.269 104.992L348.267 104.995ZM349.242 100.911C347.796 99.4823 345.457 99.4741 344 100.886C342.543 99.4741 340.204 99.4823 338.758 100.911C337.327 102.325 337.303 104.604 338.688 106.046L344 111.833L349.312 106.046C350.697 104.604 350.673 102.325 349.242 100.911Z" fill="black"/>
<path d="M359.447 100.504H361.197V108.988H366.279V110.5H359.447V100.504ZM373.499 108.89C373.499 109.086 373.523 109.226 373.569 109.31C373.625 109.394 373.728 109.436 373.877 109.436C373.924 109.436 373.98 109.436 374.045 109.436C374.111 109.436 374.185 109.427 374.269 109.408V110.514C374.213 110.533 374.139 110.551 374.045 110.57C373.961 110.598 373.873 110.621 373.779 110.64C373.686 110.659 373.593 110.673 373.499 110.682C373.406 110.691 373.327 110.696 373.261 110.696C372.935 110.696 372.664 110.631 372.449 110.5C372.235 110.369 372.095 110.141 372.029 109.814C371.712 110.122 371.32 110.346 370.853 110.486C370.396 110.626 369.953 110.696 369.523 110.696C369.197 110.696 368.884 110.649 368.585 110.556C368.287 110.472 368.021 110.346 367.787 110.178C367.563 110.001 367.381 109.781 367.241 109.52C367.111 109.249 367.045 108.937 367.045 108.582C367.045 108.134 367.125 107.77 367.283 107.49C367.451 107.21 367.666 106.991 367.927 106.832C368.198 106.673 368.497 106.561 368.823 106.496C369.159 106.421 369.495 106.365 369.831 106.328C370.121 106.272 370.396 106.235 370.657 106.216C370.919 106.188 371.147 106.146 371.343 106.09C371.549 106.034 371.707 105.95 371.819 105.838C371.941 105.717 372.001 105.539 372.001 105.306C372.001 105.101 371.95 104.933 371.847 104.802C371.754 104.671 371.633 104.573 371.483 104.508C371.343 104.433 371.185 104.387 371.007 104.368C370.83 104.34 370.662 104.326 370.503 104.326C370.055 104.326 369.687 104.419 369.397 104.606C369.108 104.793 368.945 105.082 368.907 105.474H367.311C367.339 105.007 367.451 104.62 367.647 104.312C367.843 104.004 368.091 103.757 368.389 103.57C368.697 103.383 369.043 103.253 369.425 103.178C369.808 103.103 370.2 103.066 370.601 103.066C370.956 103.066 371.306 103.103 371.651 103.178C371.997 103.253 372.305 103.374 372.575 103.542C372.855 103.71 373.079 103.929 373.247 104.2C373.415 104.461 373.499 104.783 373.499 105.166V108.89ZM371.903 106.874C371.661 107.033 371.362 107.131 371.007 107.168C370.653 107.196 370.298 107.243 369.943 107.308C369.775 107.336 369.612 107.378 369.453 107.434C369.295 107.481 369.155 107.551 369.033 107.644C368.912 107.728 368.814 107.845 368.739 107.994C368.674 108.134 368.641 108.307 368.641 108.512C368.641 108.689 368.693 108.839 368.795 108.96C368.898 109.081 369.019 109.179 369.159 109.254C369.309 109.319 369.467 109.366 369.635 109.394C369.813 109.422 369.971 109.436 370.111 109.436C370.289 109.436 370.48 109.413 370.685 109.366C370.891 109.319 371.082 109.24 371.259 109.128C371.446 109.016 371.6 108.876 371.721 108.708C371.843 108.531 371.903 108.316 371.903 108.064V106.874ZM375.434 100.504H377.03V104.2H377.058C377.17 104.023 377.305 103.864 377.464 103.724C377.622 103.584 377.795 103.467 377.982 103.374C378.178 103.271 378.378 103.197 378.584 103.15C378.798 103.094 379.008 103.066 379.214 103.066C379.783 103.066 380.278 103.169 380.698 103.374C381.127 103.57 381.482 103.845 381.762 104.2C382.042 104.545 382.252 104.951 382.392 105.418C382.532 105.885 382.602 106.384 382.602 106.916C382.602 107.401 382.536 107.873 382.406 108.33C382.284 108.787 382.093 109.193 381.832 109.548C381.58 109.893 381.258 110.173 380.866 110.388C380.474 110.593 380.012 110.696 379.48 110.696C379.237 110.696 378.99 110.677 378.738 110.64C378.495 110.612 378.262 110.551 378.038 110.458C377.814 110.365 377.608 110.243 377.422 110.094C377.244 109.945 377.095 109.749 376.974 109.506H376.946V110.5H375.434V100.504ZM381.006 106.888C381.006 106.561 380.964 106.244 380.88 105.936C380.796 105.628 380.67 105.357 380.502 105.124C380.334 104.881 380.124 104.69 379.872 104.55C379.62 104.401 379.33 104.326 379.004 104.326C378.332 104.326 377.823 104.559 377.478 105.026C377.142 105.493 376.974 106.113 376.974 106.888C376.974 107.252 377.016 107.593 377.1 107.91C377.193 108.218 377.328 108.484 377.506 108.708C377.683 108.932 377.893 109.109 378.136 109.24C378.388 109.371 378.677 109.436 379.004 109.436C379.368 109.436 379.676 109.361 379.928 109.212C380.18 109.063 380.385 108.871 380.544 108.638C380.712 108.395 380.828 108.125 380.894 107.826C380.968 107.518 381.006 107.205 381.006 106.888ZM389.095 106.244C389.077 105.992 389.021 105.749 388.927 105.516C388.843 105.283 388.722 105.082 388.563 104.914C388.414 104.737 388.227 104.597 388.003 104.494C387.789 104.382 387.546 104.326 387.275 104.326C386.995 104.326 386.739 104.377 386.505 104.48C386.281 104.573 386.085 104.709 385.917 104.886C385.759 105.054 385.628 105.255 385.525 105.488C385.432 105.721 385.381 105.973 385.371 106.244H389.095ZM385.371 107.294C385.371 107.574 385.409 107.845 385.483 108.106C385.567 108.367 385.689 108.596 385.847 108.792C386.006 108.988 386.207 109.147 386.449 109.268C386.692 109.38 386.981 109.436 387.317 109.436C387.784 109.436 388.157 109.338 388.437 109.142C388.727 108.937 388.941 108.633 389.081 108.232H390.593C390.509 108.624 390.365 108.974 390.159 109.282C389.954 109.59 389.707 109.851 389.417 110.066C389.128 110.271 388.801 110.425 388.437 110.528C388.083 110.64 387.709 110.696 387.317 110.696C386.748 110.696 386.244 110.603 385.805 110.416C385.367 110.229 384.993 109.968 384.685 109.632C384.387 109.296 384.158 108.895 383.999 108.428C383.85 107.961 383.775 107.448 383.775 106.888C383.775 106.375 383.855 105.889 384.013 105.432C384.181 104.965 384.415 104.559 384.713 104.214C385.021 103.859 385.39 103.579 385.819 103.374C386.249 103.169 386.734 103.066 387.275 103.066C387.845 103.066 388.353 103.187 388.801 103.43C389.259 103.663 389.637 103.976 389.935 104.368C390.234 104.76 390.449 105.213 390.579 105.726C390.719 106.23 390.757 106.753 390.691 107.294H385.371ZM392.122 100.504H393.718V110.5H392.122V100.504Z" fill="black"/>
<path d="M193.84 208.856H190.032V207.576H199.168V208.856H195.36V219H193.84V208.856ZM204.174 214.072C204.153 213.752 204.078 213.448 203.95 213.16C203.833 212.872 203.668 212.627 203.454 212.424C203.252 212.211 203.006 212.045 202.718 211.928C202.441 211.8 202.132 211.736 201.79 211.736C201.438 211.736 201.118 211.8 200.83 211.928C200.553 212.045 200.313 212.211 200.11 212.424C199.908 212.637 199.748 212.888 199.63 213.176C199.513 213.453 199.444 213.752 199.422 214.072H204.174ZM205.486 216.376C205.305 217.304 204.905 218.003 204.286 218.472C203.668 218.941 202.889 219.176 201.95 219.176C201.289 219.176 200.713 219.069 200.222 218.856C199.742 218.643 199.337 218.344 199.006 217.96C198.676 217.576 198.425 217.117 198.254 216.584C198.094 216.051 198.004 215.469 197.982 214.84C197.982 214.211 198.078 213.635 198.27 213.112C198.462 212.589 198.729 212.136 199.07 211.752C199.422 211.368 199.833 211.069 200.302 210.856C200.782 210.643 201.305 210.536 201.87 210.536C202.606 210.536 203.214 210.691 203.694 211C204.185 211.299 204.574 211.683 204.862 212.152C205.161 212.621 205.364 213.133 205.47 213.688C205.588 214.243 205.636 214.771 205.614 215.272H199.422C199.412 215.635 199.454 215.981 199.55 216.312C199.646 216.632 199.801 216.92 200.014 217.176C200.228 217.421 200.5 217.619 200.83 217.768C201.161 217.917 201.55 217.992 201.998 217.992C202.574 217.992 203.044 217.859 203.406 217.592C203.78 217.325 204.025 216.92 204.142 216.376H205.486ZM209.248 214.648L206.368 210.728H208.112L210.096 213.624L212.16 210.728H213.792L210.944 214.536L214.144 219H212.4L210.096 215.576L207.792 219H206.144L209.248 214.648ZM217.193 210.728H218.841V211.928H217.193V217.064C217.193 217.224 217.204 217.352 217.225 217.448C217.257 217.544 217.311 217.619 217.385 217.672C217.46 217.725 217.561 217.763 217.689 217.784C217.828 217.795 218.004 217.8 218.217 217.8H218.841V219H217.801C217.449 219 217.145 218.979 216.889 218.936C216.644 218.883 216.441 218.792 216.281 218.664C216.132 218.536 216.02 218.355 215.945 218.12C215.871 217.885 215.833 217.576 215.833 217.192V211.928H214.425V210.728H215.833V208.248H217.193V210.728ZM225.797 214.872C225.797 215.373 225.861 215.821 225.989 216.216C226.128 216.6 226.315 216.925 226.549 217.192C226.784 217.448 227.056 217.645 227.365 217.784C227.685 217.923 228.021 217.992 228.373 217.992C228.725 217.992 229.056 217.923 229.365 217.784C229.685 217.645 229.963 217.448 230.197 217.192C230.432 216.925 230.613 216.6 230.741 216.216C230.88 215.821 230.949 215.373 230.949 214.872C230.949 214.371 230.88 213.928 230.741 213.544C230.613 213.149 230.432 212.819 230.197 212.552C229.963 212.285 229.685 212.083 229.365 211.944C229.056 211.805 228.725 211.736 228.373 211.736C228.021 211.736 227.685 211.805 227.365 211.944C227.056 212.083 226.784 212.285 226.549 212.552C226.315 212.819 226.128 213.149 225.989 213.544C225.861 213.928 225.797 214.371 225.797 214.872ZM224.357 214.872C224.357 214.264 224.443 213.699 224.613 213.176C224.784 212.643 225.04 212.184 225.381 211.8C225.723 211.405 226.144 211.096 226.645 210.872C227.147 210.648 227.723 210.536 228.373 210.536C229.035 210.536 229.611 210.648 230.101 210.872C230.603 211.096 231.024 211.405 231.365 211.8C231.707 212.184 231.963 212.643 232.133 213.176C232.304 213.699 232.389 214.264 232.389 214.872C232.389 215.48 232.304 216.045 232.133 216.568C231.963 217.091 231.707 217.549 231.365 217.944C231.024 218.328 230.603 218.632 230.101 218.856C229.611 219.069 229.035 219.176 228.373 219.176C227.723 219.176 227.147 219.069 226.645 218.856C226.144 218.632 225.723 218.328 225.381 217.944C225.04 217.549 224.784 217.091 224.613 216.568C224.443 216.045 224.357 215.48 224.357 214.872ZM233.993 210.728H235.273V212.04H235.305C235.87 211.037 236.766 210.536 237.993 210.536C238.537 210.536 238.99 210.611 239.353 210.76C239.715 210.909 240.009 211.117 240.233 211.384C240.457 211.651 240.611 211.971 240.697 212.344C240.793 212.707 240.841 213.112 240.841 213.56V219H239.481V213.4C239.481 212.888 239.331 212.483 239.033 212.184C238.734 211.885 238.323 211.736 237.801 211.736C237.385 211.736 237.022 211.8 236.713 211.928C236.414 212.056 236.163 212.237 235.961 212.472C235.758 212.707 235.603 212.984 235.497 213.304C235.401 213.613 235.353 213.955 235.353 214.328V219H233.993V210.728ZM242.963 207.576H244.323V219H242.963V207.576ZM249.678 220.104C249.518 220.509 249.358 220.851 249.198 221.128C249.049 221.405 248.878 221.629 248.686 221.8C248.505 221.981 248.297 222.109 248.062 222.184C247.838 222.269 247.577 222.312 247.278 222.312C247.118 222.312 246.958 222.301 246.798 222.28C246.638 222.259 246.484 222.221 246.334 222.168V220.92C246.452 220.973 246.585 221.016 246.734 221.048C246.894 221.091 247.028 221.112 247.134 221.112C247.412 221.112 247.641 221.043 247.822 220.904C248.014 220.776 248.158 220.589 248.254 220.344L248.814 218.952L245.534 210.728H247.07L249.486 217.496H249.518L251.838 210.728H253.278L249.678 220.104Z" fill="black" fill-opacity="0.68"/>
<mask id="path-7-inside-2_60056_7426" fill="white">
<path d="M326 213.5C326 204.663 333.163 197.5 342 197.5H379C387.837 197.5 395 204.663 395 213.5C395 222.337 387.837 229.5 379 229.5H342C333.163 229.5 326 222.337 326 213.5Z"/>
</mask>
<path d="M342 197.5V198.5H379V197.5V196.5H342V197.5ZM379 229.5V228.5H342V229.5V230.5H379V229.5ZM342 229.5V228.5C333.716 228.5 327 221.784 327 213.5H326H325C325 222.889 332.611 230.5 342 230.5V229.5ZM395 213.5H394C394 221.784 387.284 228.5 379 228.5V229.5V230.5C388.389 230.5 396 222.889 396 213.5H395ZM379 197.5V198.5C387.284 198.5 394 205.216 394 213.5H395H396C396 204.111 388.389 196.5 379 196.5V197.5ZM342 197.5V196.5C332.611 196.5 325 204.111 325 213.5H326H327C327 205.216 333.716 198.5 342 198.5V197.5Z" fill="black" fill-opacity="0.2" mask="url(#path-7-inside-2_60056_7426)"/>
<path d="M343.447 208.504H345.197V216.988H350.279V218.5H343.447V208.504ZM357.499 216.89C357.499 217.086 357.523 217.226 357.569 217.31C357.625 217.394 357.728 217.436 357.877 217.436C357.924 217.436 357.98 217.436 358.045 217.436C358.111 217.436 358.185 217.427 358.269 217.408V218.514C358.213 218.533 358.139 218.551 358.045 218.57C357.961 218.598 357.873 218.621 357.779 218.64C357.686 218.659 357.593 218.673 357.499 218.682C357.406 218.691 357.327 218.696 357.261 218.696C356.935 218.696 356.664 218.631 356.449 218.5C356.235 218.369 356.095 218.141 356.029 217.814C355.712 218.122 355.32 218.346 354.853 218.486C354.396 218.626 353.953 218.696 353.523 218.696C353.197 218.696 352.884 218.649 352.585 218.556C352.287 218.472 352.021 218.346 351.787 218.178C351.563 218.001 351.381 217.781 351.241 217.52C351.111 217.249 351.045 216.937 351.045 216.582C351.045 216.134 351.125 215.77 351.283 215.49C351.451 215.21 351.666 214.991 351.927 214.832C352.198 214.673 352.497 214.561 352.823 214.496C353.159 214.421 353.495 214.365 353.831 214.328C354.121 214.272 354.396 214.235 354.657 214.216C354.919 214.188 355.147 214.146 355.343 214.09C355.549 214.034 355.707 213.95 355.819 213.838C355.941 213.717 356.001 213.539 356.001 213.306C356.001 213.101 355.95 212.933 355.847 212.802C355.754 212.671 355.633 212.573 355.483 212.508C355.343 212.433 355.185 212.387 355.007 212.368C354.83 212.34 354.662 212.326 354.503 212.326C354.055 212.326 353.687 212.419 353.397 212.606C353.108 212.793 352.945 213.082 352.907 213.474H351.311C351.339 213.007 351.451 212.62 351.647 212.312C351.843 212.004 352.091 211.757 352.389 211.57C352.697 211.383 353.043 211.253 353.425 211.178C353.808 211.103 354.2 211.066 354.601 211.066C354.956 211.066 355.306 211.103 355.651 211.178C355.997 211.253 356.305 211.374 356.575 211.542C356.855 211.71 357.079 211.929 357.247 212.2C357.415 212.461 357.499 212.783 357.499 213.166V216.89ZM355.903 214.874C355.661 215.033 355.362 215.131 355.007 215.168C354.653 215.196 354.298 215.243 353.943 215.308C353.775 215.336 353.612 215.378 353.453 215.434C353.295 215.481 353.155 215.551 353.033 215.644C352.912 215.728 352.814 215.845 352.739 215.994C352.674 216.134 352.641 216.307 352.641 216.512C352.641 216.689 352.693 216.839 352.795 216.96C352.898 217.081 353.019 217.179 353.159 217.254C353.309 217.319 353.467 217.366 353.635 217.394C353.813 217.422 353.971 217.436 354.111 217.436C354.289 217.436 354.48 217.413 354.685 217.366C354.891 217.319 355.082 217.24 355.259 217.128C355.446 217.016 355.6 216.876 355.721 216.708C355.843 216.531 355.903 216.316 355.903 216.064V214.874ZM359.434 208.504H361.03V212.2H361.058C361.17 212.023 361.305 211.864 361.464 211.724C361.622 211.584 361.795 211.467 361.982 211.374C362.178 211.271 362.378 211.197 362.584 211.15C362.798 211.094 363.008 211.066 363.214 211.066C363.783 211.066 364.278 211.169 364.698 211.374C365.127 211.57 365.482 211.845 365.762 212.2C366.042 212.545 366.252 212.951 366.392 213.418C366.532 213.885 366.602 214.384 366.602 214.916C366.602 215.401 366.536 215.873 366.406 216.33C366.284 216.787 366.093 217.193 365.832 217.548C365.58 217.893 365.258 218.173 364.866 218.388C364.474 218.593 364.012 218.696 363.48 218.696C363.237 218.696 362.99 218.677 362.738 218.64C362.495 218.612 362.262 218.551 362.038 218.458C361.814 218.365 361.608 218.243 361.422 218.094C361.244 217.945 361.095 217.749 360.974 217.506H360.946V218.5H359.434V208.504ZM365.006 214.888C365.006 214.561 364.964 214.244 364.88 213.936C364.796 213.628 364.67 213.357 364.502 213.124C364.334 212.881 364.124 212.69 363.872 212.55C363.62 212.401 363.33 212.326 363.004 212.326C362.332 212.326 361.823 212.559 361.478 213.026C361.142 213.493 360.974 214.113 360.974 214.888C360.974 215.252 361.016 215.593 361.1 215.91C361.193 216.218 361.328 216.484 361.506 216.708C361.683 216.932 361.893 217.109 362.136 217.24C362.388 217.371 362.677 217.436 363.004 217.436C363.368 217.436 363.676 217.361 363.928 217.212C364.18 217.063 364.385 216.871 364.544 216.638C364.712 216.395 364.828 216.125 364.894 215.826C364.968 215.518 365.006 215.205 365.006 214.888ZM373.095 214.244C373.077 213.992 373.021 213.749 372.927 213.516C372.843 213.283 372.722 213.082 372.563 212.914C372.414 212.737 372.227 212.597 372.003 212.494C371.789 212.382 371.546 212.326 371.275 212.326C370.995 212.326 370.739 212.377 370.505 212.48C370.281 212.573 370.085 212.709 369.917 212.886C369.759 213.054 369.628 213.255 369.525 213.488C369.432 213.721 369.381 213.973 369.371 214.244H373.095ZM369.371 215.294C369.371 215.574 369.409 215.845 369.483 216.106C369.567 216.367 369.689 216.596 369.847 216.792C370.006 216.988 370.207 217.147 370.449 217.268C370.692 217.38 370.981 217.436 371.317 217.436C371.784 217.436 372.157 217.338 372.437 217.142C372.727 216.937 372.941 216.633 373.081 216.232H374.593C374.509 216.624 374.365 216.974 374.159 217.282C373.954 217.59 373.707 217.851 373.417 218.066C373.128 218.271 372.801 218.425 372.437 218.528C372.083 218.64 371.709 218.696 371.317 218.696C370.748 218.696 370.244 218.603 369.805 218.416C369.367 218.229 368.993 217.968 368.685 217.632C368.387 217.296 368.158 216.895 367.999 216.428C367.85 215.961 367.775 215.448 367.775 214.888C367.775 214.375 367.855 213.889 368.013 213.432C368.181 212.965 368.415 212.559 368.713 212.214C369.021 211.859 369.39 211.579 369.819 211.374C370.249 211.169 370.734 211.066 371.275 211.066C371.845 211.066 372.353 211.187 372.801 211.43C373.259 211.663 373.637 211.976 373.935 212.368C374.234 212.76 374.449 213.213 374.579 213.726C374.719 214.23 374.757 214.753 374.691 215.294H369.371ZM376.122 208.504H377.718V218.5H376.122V208.504Z" fill="black"/>
<path d="M191.312 315.576H192.832V327H191.312V315.576ZM200.781 321.384C200.674 320.861 200.45 320.456 200.109 320.168C199.767 319.88 199.309 319.736 198.733 319.736C198.242 319.736 197.831 319.827 197.501 320.008C197.17 320.189 196.903 320.429 196.701 320.728C196.509 321.027 196.37 321.373 196.285 321.768C196.199 322.152 196.157 322.552 196.157 322.968C196.157 323.352 196.199 323.725 196.285 324.088C196.381 324.451 196.525 324.776 196.717 325.064C196.909 325.341 197.159 325.565 197.469 325.736C197.778 325.907 198.146 325.992 198.573 325.992C199.245 325.992 199.767 325.816 200.141 325.464C200.525 325.112 200.759 324.616 200.845 323.976H202.237C202.087 325 201.703 325.789 201.085 326.344C200.477 326.899 199.645 327.176 198.589 327.176C197.959 327.176 197.399 327.075 196.909 326.872C196.429 326.669 196.023 326.381 195.693 326.008C195.373 325.635 195.127 325.192 194.957 324.68C194.797 324.157 194.717 323.587 194.717 322.968C194.717 322.349 194.797 321.773 194.957 321.24C195.117 320.696 195.357 320.227 195.677 319.832C196.007 319.427 196.418 319.112 196.909 318.888C197.399 318.653 197.97 318.536 198.621 318.536C199.09 318.536 199.527 318.595 199.933 318.712C200.349 318.819 200.711 318.989 201.021 319.224C201.341 319.459 201.602 319.757 201.805 320.12C202.007 320.472 202.135 320.893 202.189 321.384H200.781ZM204.75 322.872C204.75 323.373 204.814 323.821 204.942 324.216C205.081 324.6 205.268 324.925 205.502 325.192C205.737 325.448 206.009 325.645 206.318 325.784C206.638 325.923 206.974 325.992 207.326 325.992C207.678 325.992 208.009 325.923 208.318 325.784C208.638 325.645 208.916 325.448 209.15 325.192C209.385 324.925 209.566 324.6 209.694 324.216C209.833 323.821 209.902 323.373 209.902 322.872C209.902 322.371 209.833 321.928 209.694 321.544C209.566 321.149 209.385 320.819 209.15 320.552C208.916 320.285 208.638 320.083 208.318 319.944C208.009 319.805 207.678 319.736 207.326 319.736C206.974 319.736 206.638 319.805 206.318 319.944C206.009 320.083 205.737 320.285 205.502 320.552C205.268 320.819 205.081 321.149 204.942 321.544C204.814 321.928 204.75 322.371 204.75 322.872ZM203.31 322.872C203.31 322.264 203.396 321.699 203.566 321.176C203.737 320.643 203.993 320.184 204.334 319.8C204.676 319.405 205.097 319.096 205.598 318.872C206.1 318.648 206.676 318.536 207.326 318.536C207.988 318.536 208.564 318.648 209.054 318.872C209.556 319.096 209.977 319.405 210.318 319.8C210.66 320.184 210.916 320.643 211.086 321.176C211.257 321.699 211.342 322.264 211.342 322.872C211.342 323.48 211.257 324.045 211.086 324.568C210.916 325.091 210.66 325.549 210.318 325.944C209.977 326.328 209.556 326.632 209.054 326.856C208.564 327.069 207.988 327.176 207.326 327.176C206.676 327.176 206.1 327.069 205.598 326.856C205.097 326.632 204.676 326.328 204.334 325.944C203.993 325.549 203.737 325.091 203.566 324.568C203.396 324.045 203.31 323.48 203.31 322.872ZM212.946 318.728H214.226V320.04H214.258C214.823 319.037 215.719 318.536 216.946 318.536C217.49 318.536 217.943 318.611 218.306 318.76C218.669 318.909 218.962 319.117 219.186 319.384C219.41 319.651 219.565 319.971 219.65 320.344C219.746 320.707 219.794 321.112 219.794 321.56V327H218.434V321.4C218.434 320.888 218.285 320.483 217.986 320.184C217.687 319.885 217.277 319.736 216.754 319.736C216.338 319.736 215.975 319.8 215.666 319.928C215.367 320.056 215.117 320.237 214.914 320.472C214.711 320.707 214.557 320.984 214.45 321.304C214.354 321.613 214.306 321.955 214.306 322.328V327H212.946V318.728ZM227.282 322.872C227.282 323.373 227.346 323.821 227.474 324.216C227.612 324.6 227.799 324.925 228.034 325.192C228.268 325.448 228.54 325.645 228.85 325.784C229.17 325.923 229.506 325.992 229.858 325.992C230.21 325.992 230.54 325.923 230.85 325.784C231.17 325.645 231.447 325.448 231.682 325.192C231.916 324.925 232.098 324.6 232.226 324.216C232.364 323.821 232.434 323.373 232.434 322.872C232.434 322.371 232.364 321.928 232.226 321.544C232.098 321.149 231.916 320.819 231.682 320.552C231.447 320.285 231.17 320.083 230.85 319.944C230.54 319.805 230.21 319.736 229.858 319.736C229.506 319.736 229.17 319.805 228.85 319.944C228.54 320.083 228.268 320.285 228.034 320.552C227.799 320.819 227.612 321.149 227.474 321.544C227.346 321.928 227.282 322.371 227.282 322.872ZM225.842 322.872C225.842 322.264 225.927 321.699 226.098 321.176C226.268 320.643 226.524 320.184 226.866 319.8C227.207 319.405 227.628 319.096 228.13 318.872C228.631 318.648 229.207 318.536 229.858 318.536C230.519 318.536 231.095 318.648 231.586 318.872C232.087 319.096 232.508 319.405 232.85 319.8C233.191 320.184 233.447 320.643 233.618 321.176C233.788 321.699 233.874 322.264 233.874 322.872C233.874 323.48 233.788 324.045 233.618 324.568C233.447 325.091 233.191 325.549 232.85 325.944C232.508 326.328 232.087 326.632 231.586 326.856C231.095 327.069 230.519 327.176 229.858 327.176C229.207 327.176 228.631 327.069 228.13 326.856C227.628 326.632 227.207 326.328 226.866 325.944C226.524 325.549 226.268 325.091 226.098 324.568C225.927 324.045 225.842 323.48 225.842 322.872ZM235.477 318.728H236.757V320.04H236.789C237.354 319.037 238.25 318.536 239.477 318.536C240.021 318.536 240.474 318.611 240.837 318.76C241.2 318.909 241.493 319.117 241.717 319.384C241.941 319.651 242.096 319.971 242.181 320.344C242.277 320.707 242.325 321.112 242.325 321.56V327H240.965V321.4C240.965 320.888 240.816 320.483 240.517 320.184C240.218 319.885 239.808 319.736 239.285 319.736C238.869 319.736 238.506 319.8 238.197 319.928C237.898 320.056 237.648 320.237 237.445 320.472C237.242 320.707 237.088 320.984 236.981 321.304C236.885 321.613 236.837 321.955 236.837 322.328V327H235.477V318.728ZM244.448 315.576H245.808V327H244.448V315.576ZM251.163 328.104C251.003 328.509 250.843 328.851 250.683 329.128C250.533 329.405 250.363 329.629 250.171 329.8C249.989 329.981 249.781 330.109 249.547 330.184C249.323 330.269 249.061 330.312 248.763 330.312C248.603 330.312 248.443 330.301 248.283 330.28C248.123 330.259 247.968 330.221 247.819 330.168V328.92C247.936 328.973 248.069 329.016 248.219 329.048C248.379 329.091 248.512 329.112 248.619 329.112C248.896 329.112 249.125 329.043 249.307 328.904C249.499 328.776 249.643 328.589 249.739 328.344L250.299 326.952L247.019 318.728H248.555L250.971 325.496H251.003L253.323 318.728H254.763L251.163 328.104Z" fill="black" fill-opacity="0.68"/>
<mask id="path-11-inside-3_60056_7426" fill="white">
<path d="M326 321.5C326 312.663 333.163 305.5 342 305.5H362C370.837 305.5 378 312.663 378 321.5C378 330.337 370.837 337.5 362 337.5H342C333.163 337.5 326 330.337 326 321.5Z"/>
</mask>
<path d="M342 305.5V306.5H362V305.5V304.5H342V305.5ZM362 337.5V336.5H342V337.5V338.5H362V337.5ZM342 337.5V336.5C333.716 336.5 327 329.784 327 321.5H326H325C325 330.889 332.611 338.5 342 338.5V337.5ZM378 321.5H377C377 329.784 370.284 336.5 362 336.5V337.5V338.5C371.389 338.5 379 330.889 379 321.5H378ZM362 305.5V306.5C370.284 306.5 377 313.216 377 321.5H378H379C379 312.111 371.389 304.5 362 304.5V305.5ZM342 305.5V304.5C332.611 304.5 325 312.111 325 321.5H326H327C327 313.216 333.716 306.5 342 306.5V305.5Z" fill="black" fill-opacity="0.2" mask="url(#path-11-inside-3_60056_7426)"/>
<path fill-rule="evenodd" clip-rule="evenodd" d="M356.267 320.995L352 325.664L347.734 320.995L347.731 320.992C346.905 320.086 346.979 318.69 347.896 317.873C348.78 317.087 350.132 317.121 350.973 317.952C350.975 317.955 350.977 317.957 350.979 317.959L351.632 318.572L352 318.922L352.368 318.572L353.021 317.959C353.023 317.957 353.025 317.955 353.027 317.952C353.446 317.537 354.015 317.304 354.608 317.306C355.842 317.306 356.843 318.294 356.843 319.514C356.843 320.06 356.639 320.587 356.269 320.992L356.267 320.995ZM357.242 316.911C355.796 315.482 353.457 315.474 352 316.886C350.543 315.474 348.204 315.482 346.758 316.911C345.327 318.325 345.303 320.604 346.688 322.046L352 327.833L357.312 322.046C358.697 320.604 358.673 318.325 357.242 316.911Z" fill="black"/>
</svg>
