<svg width="600" height="724" viewBox="0 0 600 724" fill="none" xmlns="http://www.w3.org/2000/svg">
<rect width="600" height="724" fill="black" fill-opacity="0.04"/>
<path d="M191.248 86.076H199.136V87.356H192.768V90.988H198.704V92.268H192.768V96.22H199.184V97.5H191.248V86.076ZM200.805 89.228H202.085V90.54H202.117C202.683 89.5373 203.579 89.036 204.805 89.036C205.349 89.036 205.803 89.1107 206.165 89.26C206.528 89.4093 206.821 89.6173 207.045 89.884C207.269 90.1507 207.424 90.4707 207.509 90.844C207.605 91.2067 207.653 91.612 207.653 92.06V97.5H206.293V91.9C206.293 91.388 206.144 90.9827 205.845 90.684C205.547 90.3853 205.136 90.236 204.613 90.236C204.197 90.236 203.835 90.3 203.525 90.428C203.227 90.556 202.976 90.7373 202.773 90.972C202.571 91.2067 202.416 91.484 202.309 91.804C202.213 92.1133 202.165 92.4547 202.165 92.828V97.5H200.805V89.228ZM217.024 97.468C216.789 97.6067 216.464 97.676 216.048 97.676C215.696 97.676 215.413 97.58 215.2 97.388C214.997 97.1853 214.896 96.86 214.896 96.412C214.523 96.86 214.085 97.1853 213.584 97.388C213.093 97.58 212.56 97.676 211.984 97.676C211.611 97.676 211.253 97.6333 210.912 97.548C210.581 97.4627 210.293 97.3293 210.048 97.148C209.803 96.9667 209.605 96.732 209.456 96.444C209.317 96.1453 209.248 95.788 209.248 95.372C209.248 94.9027 209.328 94.5187 209.488 94.22C209.648 93.9213 209.856 93.6813 210.112 93.5C210.379 93.308 210.677 93.164 211.008 93.068C211.349 92.972 211.696 92.892 212.048 92.828C212.421 92.7533 212.773 92.7 213.104 92.668C213.445 92.6253 213.744 92.572 214 92.508C214.256 92.4333 214.459 92.332 214.608 92.204C214.757 92.0653 214.832 91.868 214.832 91.612C214.832 91.3133 214.773 91.0733 214.656 90.892C214.549 90.7107 214.405 90.572 214.224 90.476C214.053 90.38 213.856 90.316 213.632 90.284C213.419 90.252 213.205 90.236 212.992 90.236C212.416 90.236 211.936 90.348 211.552 90.572C211.168 90.7853 210.96 91.196 210.928 91.804H209.568C209.589 91.292 209.696 90.86 209.888 90.508C210.08 90.156 210.336 89.8733 210.656 89.66C210.976 89.436 211.339 89.276 211.744 89.18C212.16 89.084 212.603 89.036 213.072 89.036C213.445 89.036 213.813 89.0627 214.176 89.116C214.549 89.1693 214.885 89.2813 215.184 89.452C215.483 89.612 215.723 89.8413 215.904 90.14C216.085 90.4387 216.176 90.828 216.176 91.308V95.564C216.176 95.884 216.192 96.1187 216.224 96.268C216.267 96.4173 216.395 96.492 216.608 96.492C216.725 96.492 216.864 96.4653 217.024 96.412V97.468ZM214.816 93.228C214.645 93.356 214.421 93.452 214.144 93.516C213.867 93.5693 213.573 93.6173 213.264 93.66C212.965 93.692 212.661 93.7347 212.352 93.788C212.043 93.8307 211.765 93.9053 211.52 94.012C211.275 94.1187 211.072 94.2733 210.912 94.476C210.763 94.668 210.688 94.9347 210.688 95.276C210.688 95.5 210.731 95.692 210.816 95.852C210.912 96.0013 211.029 96.124 211.168 96.22C211.317 96.316 211.488 96.3853 211.68 96.428C211.872 96.4707 212.075 96.492 212.288 96.492C212.736 96.492 213.12 96.4333 213.44 96.316C213.76 96.188 214.021 96.0333 214.224 95.852C214.427 95.66 214.576 95.4573 214.672 95.244C214.768 95.02 214.816 94.812 214.816 94.62V93.228ZM218.338 86.076H219.698V90.348H219.73C219.954 89.8893 220.306 89.5587 220.786 89.356C221.266 89.1427 221.794 89.036 222.37 89.036C223.01 89.036 223.564 89.1533 224.034 89.388C224.514 89.6227 224.908 89.9427 225.218 90.348C225.538 90.7427 225.778 91.2013 225.938 91.724C226.098 92.2467 226.178 92.8013 226.178 93.388C226.178 93.9747 226.098 94.5293 225.938 95.052C225.788 95.5747 225.554 96.0333 225.234 96.428C224.924 96.812 224.53 97.116 224.05 97.34C223.58 97.564 223.031 97.676 222.402 97.676C222.199 97.676 221.97 97.6547 221.714 97.612C221.468 97.5693 221.223 97.5 220.978 97.404C220.732 97.308 220.498 97.18 220.274 97.02C220.06 96.8493 219.879 96.6413 219.73 96.396H219.698V97.5H218.338V86.076ZM224.738 93.292C224.738 92.908 224.684 92.5347 224.578 92.172C224.482 91.7987 224.327 91.468 224.114 91.18C223.911 90.892 223.644 90.6627 223.314 90.492C222.994 90.3213 222.615 90.236 222.178 90.236C221.719 90.236 221.33 90.3267 221.01 90.508C220.69 90.6893 220.428 90.9293 220.226 91.228C220.023 91.516 219.874 91.8467 219.778 92.22C219.692 92.5933 219.65 92.972 219.65 93.356C219.65 93.7613 219.698 94.156 219.794 94.54C219.89 94.9133 220.039 95.244 220.242 95.532C220.455 95.82 220.727 96.0547 221.058 96.236C221.388 96.4067 221.788 96.492 222.258 96.492C222.727 96.492 223.116 96.4013 223.426 96.22C223.746 96.0387 224.002 95.7987 224.194 95.5C224.386 95.2013 224.524 94.86 224.61 94.476C224.695 94.092 224.738 93.6973 224.738 93.292ZM227.854 86.076H229.214V97.5H227.854V86.076ZM237.065 92.572C237.044 92.252 236.969 91.948 236.841 91.66C236.724 91.372 236.558 91.1267 236.345 90.924C236.142 90.7107 235.897 90.5453 235.609 90.428C235.332 90.3 235.022 90.236 234.681 90.236C234.329 90.236 234.009 90.3 233.721 90.428C233.444 90.5453 233.204 90.7107 233.001 90.924C232.798 91.1373 232.638 91.388 232.521 91.676C232.404 91.9533 232.334 92.252 232.313 92.572H237.065ZM238.377 94.876C238.196 95.804 237.796 96.5027 237.177 96.972C236.558 97.4413 235.78 97.676 234.841 97.676C234.18 97.676 233.604 97.5693 233.113 97.356C232.633 97.1427 232.228 96.844 231.897 96.46C231.566 96.076 231.316 95.6173 231.145 95.084C230.985 94.5507 230.894 93.9693 230.873 93.34C230.873 92.7107 230.969 92.1347 231.161 91.612C231.353 91.0893 231.62 90.636 231.961 90.252C232.313 89.868 232.724 89.5693 233.193 89.356C233.673 89.1427 234.196 89.036 234.761 89.036C235.497 89.036 236.105 89.1907 236.585 89.5C237.076 89.7987 237.465 90.1827 237.753 90.652C238.052 91.1213 238.254 91.6333 238.361 92.188C238.478 92.7427 238.526 93.2707 238.505 93.772H232.313C232.302 94.1347 232.345 94.4813 232.441 94.812C232.537 95.132 232.692 95.42 232.905 95.676C233.118 95.9213 233.39 96.1187 233.721 96.268C234.052 96.4173 234.441 96.492 234.889 96.492C235.465 96.492 235.934 96.3587 236.297 96.092C236.67 95.8253 236.916 95.42 237.033 94.876H238.377ZM240.907 93.436C240.907 93.82 240.955 94.1987 241.051 94.572C241.157 94.9347 241.312 95.26 241.515 95.548C241.728 95.836 241.995 96.0653 242.315 96.236C242.645 96.4067 243.029 96.492 243.467 96.492C243.925 96.492 244.315 96.4013 244.635 96.22C244.955 96.0387 245.216 95.804 245.419 95.516C245.621 95.2173 245.765 94.8813 245.851 94.508C245.947 94.1347 245.995 93.756 245.995 93.372C245.995 92.9667 245.947 92.5773 245.851 92.204C245.755 91.82 245.6 91.484 245.387 91.196C245.184 90.908 244.917 90.6787 244.587 90.508C244.256 90.3267 243.856 90.236 243.387 90.236C242.928 90.236 242.539 90.3267 242.219 90.508C241.899 90.6893 241.643 90.9293 241.451 91.228C241.259 91.5267 241.12 91.868 241.035 92.252C240.949 92.636 240.907 93.0307 240.907 93.436ZM247.307 97.5H245.947V96.38H245.915C245.691 96.8387 245.339 97.1693 244.859 97.372C244.379 97.5747 243.851 97.676 243.275 97.676C242.635 97.676 242.075 97.5587 241.595 97.324C241.125 97.0893 240.731 96.7747 240.411 96.38C240.101 95.9853 239.867 95.5267 239.707 95.004C239.547 94.4813 239.467 93.9267 239.467 93.34C239.467 92.7533 239.541 92.1987 239.691 91.676C239.851 91.1533 240.085 90.7 240.395 90.316C240.715 89.9213 241.109 89.612 241.579 89.388C242.059 89.1533 242.613 89.036 243.243 89.036C243.456 89.036 243.685 89.0573 243.931 89.1C244.176 89.1427 244.421 89.2173 244.667 89.324C244.912 89.42 245.141 89.5533 245.355 89.724C245.579 89.884 245.765 90.0867 245.915 90.332H245.947V86.076H247.307V97.5Z" fill="black" fill-opacity="0.68"/>
<mask id="path-2-inside-1_60056_7448" fill="white">
<path d="M326 92C326 83.1634 333.163 76 342 76H395C403.837 76 411 83.1634 411 92C411 100.837 403.837 108 395 108H342C333.163 108 326 100.837 326 92Z"/>
</mask>
<path d="M342 76V77H395V76V75H342V76ZM395 108V107H342V108V109H395V108ZM342 108V107C333.716 107 327 100.284 327 92H326H325C325 101.389 332.611 109 342 109V108ZM411 92H410C410 100.284 403.284 107 395 107V108V109C404.389 109 412 101.389 412 92H411ZM395 76V77C403.284 77 410 83.7157 410 92H411H412C412 82.6112 404.389 75 395 75V76ZM342 76V75C332.611 75 325 82.6112 325 92H326H327C327 83.7157 333.716 77 342 77V76Z" fill="black" fill-opacity="0.2" mask="url(#path-2-inside-1_60056_7448)"/>
<path fill-rule="evenodd" clip-rule="evenodd" d="M348.267 91.4946L344 96.1643L339.734 91.4946L339.731 91.4923C338.905 90.586 338.979 89.1895 339.896 88.3731C340.78 87.5867 342.132 87.6213 342.973 88.4523C342.975 88.4546 342.977 88.4568 342.979 88.4589L343.632 89.0718L344 89.4219L344.368 89.072L345.021 88.4589C345.023 88.4568 345.025 88.4546 345.027 88.4523C345.446 88.0367 346.015 87.804 346.608 87.8055C347.842 87.8055 348.843 88.7941 348.843 90.014C348.843 90.56 348.639 91.0867 348.269 91.4923L348.267 91.4946ZM349.242 87.4113C347.796 85.9823 345.457 85.9741 344 87.3857C342.543 85.9741 340.204 85.9823 338.758 87.4113C337.327 88.8254 337.303 91.1037 338.688 92.546L344 98.3333L349.312 92.546C350.697 91.1037 350.673 88.8254 349.242 87.4113Z" fill="black"/>
<path d="M359.447 87.004H361.197V95.488H366.279V97H359.447V87.004ZM373.499 95.39C373.499 95.586 373.523 95.726 373.569 95.81C373.625 95.894 373.728 95.936 373.877 95.936C373.924 95.936 373.98 95.936 374.045 95.936C374.111 95.936 374.185 95.9267 374.269 95.908V97.014C374.213 97.0327 374.139 97.0513 374.045 97.07C373.961 97.098 373.873 97.1213 373.779 97.14C373.686 97.1587 373.593 97.1727 373.499 97.182C373.406 97.1913 373.327 97.196 373.261 97.196C372.935 97.196 372.664 97.1307 372.449 97C372.235 96.8693 372.095 96.6407 372.029 96.314C371.712 96.622 371.32 96.846 370.853 96.986C370.396 97.126 369.953 97.196 369.523 97.196C369.197 97.196 368.884 97.1493 368.585 97.056C368.287 96.972 368.021 96.846 367.787 96.678C367.563 96.5007 367.381 96.2813 367.241 96.02C367.111 95.7493 367.045 95.4367 367.045 95.082C367.045 94.634 367.125 94.27 367.283 93.99C367.451 93.71 367.666 93.4907 367.927 93.332C368.198 93.1733 368.497 93.0613 368.823 92.996C369.159 92.9213 369.495 92.8653 369.831 92.828C370.121 92.772 370.396 92.7347 370.657 92.716C370.919 92.688 371.147 92.646 371.343 92.59C371.549 92.534 371.707 92.45 371.819 92.338C371.941 92.2167 372.001 92.0393 372.001 91.806C372.001 91.6007 371.95 91.4327 371.847 91.302C371.754 91.1713 371.633 91.0733 371.483 91.008C371.343 90.9333 371.185 90.8867 371.007 90.868C370.83 90.84 370.662 90.826 370.503 90.826C370.055 90.826 369.687 90.9193 369.397 91.106C369.108 91.2927 368.945 91.582 368.907 91.974H367.311C367.339 91.5073 367.451 91.12 367.647 90.812C367.843 90.504 368.091 90.2567 368.389 90.07C368.697 89.8833 369.043 89.7527 369.425 89.678C369.808 89.6033 370.2 89.566 370.601 89.566C370.956 89.566 371.306 89.6033 371.651 89.678C371.997 89.7527 372.305 89.874 372.575 90.042C372.855 90.21 373.079 90.4293 373.247 90.7C373.415 90.9613 373.499 91.2833 373.499 91.666V95.39ZM371.903 93.374C371.661 93.5327 371.362 93.6307 371.007 93.668C370.653 93.696 370.298 93.7427 369.943 93.808C369.775 93.836 369.612 93.878 369.453 93.934C369.295 93.9807 369.155 94.0507 369.033 94.144C368.912 94.228 368.814 94.3447 368.739 94.494C368.674 94.634 368.641 94.8067 368.641 95.012C368.641 95.1893 368.693 95.3387 368.795 95.46C368.898 95.5813 369.019 95.6793 369.159 95.754C369.309 95.8193 369.467 95.866 369.635 95.894C369.813 95.922 369.971 95.936 370.111 95.936C370.289 95.936 370.48 95.9127 370.685 95.866C370.891 95.8193 371.082 95.74 371.259 95.628C371.446 95.516 371.6 95.376 371.721 95.208C371.843 95.0307 371.903 94.816 371.903 94.564V93.374ZM375.434 87.004H377.03V90.7H377.058C377.17 90.5227 377.305 90.364 377.464 90.224C377.622 90.084 377.795 89.9673 377.982 89.874C378.178 89.7713 378.378 89.6967 378.584 89.65C378.798 89.594 379.008 89.566 379.214 89.566C379.783 89.566 380.278 89.6687 380.698 89.874C381.127 90.07 381.482 90.3453 381.762 90.7C382.042 91.0453 382.252 91.4513 382.392 91.918C382.532 92.3847 382.602 92.884 382.602 93.416C382.602 93.9013 382.536 94.3727 382.406 94.83C382.284 95.2873 382.093 95.6933 381.832 96.048C381.58 96.3933 381.258 96.6733 380.866 96.888C380.474 97.0933 380.012 97.196 379.48 97.196C379.237 97.196 378.99 97.1773 378.738 97.14C378.495 97.112 378.262 97.0513 378.038 96.958C377.814 96.8647 377.608 96.7433 377.422 96.594C377.244 96.4447 377.095 96.2487 376.974 96.006H376.946V97H375.434V87.004ZM381.006 93.388C381.006 93.0613 380.964 92.744 380.88 92.436C380.796 92.128 380.67 91.8573 380.502 91.624C380.334 91.3813 380.124 91.19 379.872 91.05C379.62 90.9007 379.33 90.826 379.004 90.826C378.332 90.826 377.823 91.0593 377.478 91.526C377.142 91.9927 376.974 92.6133 376.974 93.388C376.974 93.752 377.016 94.0927 377.1 94.41C377.193 94.718 377.328 94.984 377.506 95.208C377.683 95.432 377.893 95.6093 378.136 95.74C378.388 95.8707 378.677 95.936 379.004 95.936C379.368 95.936 379.676 95.8613 379.928 95.712C380.18 95.5627 380.385 95.3713 380.544 95.138C380.712 94.8953 380.828 94.6247 380.894 94.326C380.968 94.018 381.006 93.7053 381.006 93.388ZM389.095 92.744C389.077 92.492 389.021 92.2493 388.927 92.016C388.843 91.7827 388.722 91.582 388.563 91.414C388.414 91.2367 388.227 91.0967 388.003 90.994C387.789 90.882 387.546 90.826 387.275 90.826C386.995 90.826 386.739 90.8773 386.505 90.98C386.281 91.0733 386.085 91.2087 385.917 91.386C385.759 91.554 385.628 91.7547 385.525 91.988C385.432 92.2213 385.381 92.4733 385.371 92.744H389.095ZM385.371 93.794C385.371 94.074 385.409 94.3447 385.483 94.606C385.567 94.8673 385.689 95.096 385.847 95.292C386.006 95.488 386.207 95.6467 386.449 95.768C386.692 95.88 386.981 95.936 387.317 95.936C387.784 95.936 388.157 95.838 388.437 95.642C388.727 95.4367 388.941 95.1333 389.081 94.732H390.593C390.509 95.124 390.365 95.474 390.159 95.782C389.954 96.09 389.707 96.3513 389.417 96.566C389.128 96.7713 388.801 96.9253 388.437 97.028C388.083 97.14 387.709 97.196 387.317 97.196C386.748 97.196 386.244 97.1027 385.805 96.916C385.367 96.7293 384.993 96.468 384.685 96.132C384.387 95.796 384.158 95.3947 383.999 94.928C383.85 94.4613 383.775 93.948 383.775 93.388C383.775 92.8747 383.855 92.3893 384.013 91.932C384.181 91.4653 384.415 91.0593 384.713 90.714C385.021 90.3593 385.39 90.0793 385.819 89.874C386.249 89.6687 386.734 89.566 387.275 89.566C387.845 89.566 388.353 89.6873 388.801 89.93C389.259 90.1633 389.637 90.476 389.935 90.868C390.234 91.26 390.449 91.7127 390.579 92.226C390.719 92.73 390.757 93.2527 390.691 93.794H385.371ZM392.122 87.004H393.718V97H392.122V87.004Z" fill="black"/>
<path d="M191.248 194.076H192.768V198.988H198.784V194.076H200.304V205.5H198.784V200.268H192.768V205.5H191.248V194.076ZM203.563 201.372C203.563 201.873 203.627 202.321 203.755 202.716C203.894 203.1 204.08 203.425 204.315 203.692C204.55 203.948 204.822 204.145 205.131 204.284C205.451 204.423 205.787 204.492 206.139 204.492C206.491 204.492 206.822 204.423 207.131 204.284C207.451 204.145 207.728 203.948 207.963 203.692C208.198 203.425 208.379 203.1 208.507 202.716C208.646 202.321 208.715 201.873 208.715 201.372C208.715 200.871 208.646 200.428 208.507 200.044C208.379 199.649 208.198 199.319 207.963 199.052C207.728 198.785 207.451 198.583 207.131 198.444C206.822 198.305 206.491 198.236 206.139 198.236C205.787 198.236 205.451 198.305 205.131 198.444C204.822 198.583 204.55 198.785 204.315 199.052C204.08 199.319 203.894 199.649 203.755 200.044C203.627 200.428 203.563 200.871 203.563 201.372ZM202.123 201.372C202.123 200.764 202.208 200.199 202.379 199.676C202.55 199.143 202.806 198.684 203.147 198.3C203.488 197.905 203.91 197.596 204.411 197.372C204.912 197.148 205.488 197.036 206.139 197.036C206.8 197.036 207.376 197.148 207.867 197.372C208.368 197.596 208.79 197.905 209.131 198.3C209.472 198.684 209.728 199.143 209.899 199.676C210.07 200.199 210.155 200.764 210.155 201.372C210.155 201.98 210.07 202.545 209.899 203.068C209.728 203.591 209.472 204.049 209.131 204.444C208.79 204.828 208.368 205.132 207.867 205.356C207.376 205.569 206.8 205.676 206.139 205.676C205.488 205.676 204.912 205.569 204.411 205.356C203.91 205.132 203.488 204.828 203.147 204.444C202.806 204.049 202.55 203.591 202.379 203.068C202.208 202.545 202.123 201.98 202.123 201.372ZM215.486 205.5H214.03L210.958 197.228H212.478L214.798 204.124H214.83L217.086 197.228H218.51L215.486 205.5ZM225.502 200.572C225.481 200.252 225.406 199.948 225.278 199.66C225.161 199.372 224.996 199.127 224.782 198.924C224.58 198.711 224.334 198.545 224.046 198.428C223.769 198.3 223.46 198.236 223.118 198.236C222.766 198.236 222.446 198.3 222.158 198.428C221.881 198.545 221.641 198.711 221.438 198.924C221.236 199.137 221.076 199.388 220.958 199.676C220.841 199.953 220.772 200.252 220.75 200.572H225.502ZM226.814 202.876C226.633 203.804 226.233 204.503 225.614 204.972C224.996 205.441 224.217 205.676 223.278 205.676C222.617 205.676 222.041 205.569 221.55 205.356C221.07 205.143 220.665 204.844 220.334 204.46C220.004 204.076 219.753 203.617 219.582 203.084C219.422 202.551 219.332 201.969 219.31 201.34C219.31 200.711 219.406 200.135 219.598 199.612C219.79 199.089 220.057 198.636 220.398 198.252C220.75 197.868 221.161 197.569 221.63 197.356C222.11 197.143 222.633 197.036 223.198 197.036C223.934 197.036 224.542 197.191 225.022 197.5C225.513 197.799 225.902 198.183 226.19 198.652C226.489 199.121 226.692 199.633 226.798 200.188C226.916 200.743 226.964 201.271 226.942 201.772H220.75C220.74 202.135 220.782 202.481 220.878 202.812C220.974 203.132 221.129 203.42 221.342 203.676C221.556 203.921 221.828 204.119 222.158 204.268C222.489 204.417 222.878 204.492 223.326 204.492C223.902 204.492 224.372 204.359 224.734 204.092C225.108 203.825 225.353 203.42 225.47 202.876H226.814ZM228.304 197.228H229.584V198.972H229.616C229.947 198.3 230.352 197.804 230.832 197.484C231.312 197.164 231.92 197.015 232.656 197.036V198.476C232.112 198.476 231.648 198.551 231.264 198.7C230.88 198.849 230.571 199.068 230.336 199.356C230.101 199.644 229.931 199.996 229.824 200.412C229.717 200.817 229.664 201.287 229.664 201.82V205.5H228.304V197.228Z" fill="black" fill-opacity="0.68"/>
<mask id="path-7-inside-2_60056_7448" fill="white">
<path d="M326 200C326 191.163 333.163 184 342 184H395C403.837 184 411 191.163 411 200C411 208.837 403.837 216 395 216H342C333.163 216 326 208.837 326 200Z"/>
</mask>
<path d="M342 184V186H395V184V182H342V184ZM395 216V214H342V216V218H395V216ZM342 216V214C334.268 214 328 207.732 328 200H326H324C324 209.941 332.059 218 342 218V216ZM411 200H409C409 207.732 402.732 214 395 214V216V218C404.941 218 413 209.941 413 200H411ZM395 184V186C402.732 186 409 192.268 409 200H411H413C413 190.059 404.941 182 395 182V184ZM342 184V182C332.059 182 324 190.059 324 200H326H328C328 192.268 334.268 186 342 186V184Z" fill="black" fill-opacity="0.68" mask="url(#path-7-inside-2_60056_7448)"/>
<path fill-rule="evenodd" clip-rule="evenodd" d="M348.267 199.495L344 204.164L339.734 199.495L339.731 199.492C338.905 198.586 338.979 197.19 339.896 196.373C340.78 195.587 342.132 195.621 342.973 196.452C342.975 196.455 342.977 196.457 342.979 196.459L343.632 197.072L344 197.422L344.368 197.072L345.021 196.459C345.023 196.457 345.025 196.455 345.027 196.452C345.446 196.037 346.015 195.804 346.608 195.806C347.842 195.806 348.843 196.794 348.843 198.014C348.843 198.56 348.639 199.087 348.269 199.492L348.267 199.495ZM349.242 195.411C347.796 193.982 345.457 193.974 344 195.386C342.543 193.974 340.204 193.982 338.758 195.411C337.327 196.825 337.303 199.104 338.688 200.546L344 206.333L349.312 200.546C350.697 199.104 350.673 196.825 349.242 195.411Z" fill="black" fill-opacity="0.68"/>
<path d="M359.447 195.004H361.197V203.488H366.279V205H359.447V195.004ZM373.499 203.39C373.499 203.586 373.523 203.726 373.569 203.81C373.625 203.894 373.728 203.936 373.877 203.936C373.924 203.936 373.98 203.936 374.045 203.936C374.111 203.936 374.185 203.927 374.269 203.908V205.014C374.213 205.033 374.139 205.051 374.045 205.07C373.961 205.098 373.873 205.121 373.779 205.14C373.686 205.159 373.593 205.173 373.499 205.182C373.406 205.191 373.327 205.196 373.261 205.196C372.935 205.196 372.664 205.131 372.449 205C372.235 204.869 372.095 204.641 372.029 204.314C371.712 204.622 371.32 204.846 370.853 204.986C370.396 205.126 369.953 205.196 369.523 205.196C369.197 205.196 368.884 205.149 368.585 205.056C368.287 204.972 368.021 204.846 367.787 204.678C367.563 204.501 367.381 204.281 367.241 204.02C367.111 203.749 367.045 203.437 367.045 203.082C367.045 202.634 367.125 202.27 367.283 201.99C367.451 201.71 367.666 201.491 367.927 201.332C368.198 201.173 368.497 201.061 368.823 200.996C369.159 200.921 369.495 200.865 369.831 200.828C370.121 200.772 370.396 200.735 370.657 200.716C370.919 200.688 371.147 200.646 371.343 200.59C371.549 200.534 371.707 200.45 371.819 200.338C371.941 200.217 372.001 200.039 372.001 199.806C372.001 199.601 371.95 199.433 371.847 199.302C371.754 199.171 371.633 199.073 371.483 199.008C371.343 198.933 371.185 198.887 371.007 198.868C370.83 198.84 370.662 198.826 370.503 198.826C370.055 198.826 369.687 198.919 369.397 199.106C369.108 199.293 368.945 199.582 368.907 199.974H367.311C367.339 199.507 367.451 199.12 367.647 198.812C367.843 198.504 368.091 198.257 368.389 198.07C368.697 197.883 369.043 197.753 369.425 197.678C369.808 197.603 370.2 197.566 370.601 197.566C370.956 197.566 371.306 197.603 371.651 197.678C371.997 197.753 372.305 197.874 372.575 198.042C372.855 198.21 373.079 198.429 373.247 198.7C373.415 198.961 373.499 199.283 373.499 199.666V203.39ZM371.903 201.374C371.661 201.533 371.362 201.631 371.007 201.668C370.653 201.696 370.298 201.743 369.943 201.808C369.775 201.836 369.612 201.878 369.453 201.934C369.295 201.981 369.155 202.051 369.033 202.144C368.912 202.228 368.814 202.345 368.739 202.494C368.674 202.634 368.641 202.807 368.641 203.012C368.641 203.189 368.693 203.339 368.795 203.46C368.898 203.581 369.019 203.679 369.159 203.754C369.309 203.819 369.467 203.866 369.635 203.894C369.813 203.922 369.971 203.936 370.111 203.936C370.289 203.936 370.48 203.913 370.685 203.866C370.891 203.819 371.082 203.74 371.259 203.628C371.446 203.516 371.6 203.376 371.721 203.208C371.843 203.031 371.903 202.816 371.903 202.564V201.374ZM375.434 195.004H377.03V198.7H377.058C377.17 198.523 377.305 198.364 377.464 198.224C377.622 198.084 377.795 197.967 377.982 197.874C378.178 197.771 378.378 197.697 378.584 197.65C378.798 197.594 379.008 197.566 379.214 197.566C379.783 197.566 380.278 197.669 380.698 197.874C381.127 198.07 381.482 198.345 381.762 198.7C382.042 199.045 382.252 199.451 382.392 199.918C382.532 200.385 382.602 200.884 382.602 201.416C382.602 201.901 382.536 202.373 382.406 202.83C382.284 203.287 382.093 203.693 381.832 204.048C381.58 204.393 381.258 204.673 380.866 204.888C380.474 205.093 380.012 205.196 379.48 205.196C379.237 205.196 378.99 205.177 378.738 205.14C378.495 205.112 378.262 205.051 378.038 204.958C377.814 204.865 377.608 204.743 377.422 204.594C377.244 204.445 377.095 204.249 376.974 204.006H376.946V205H375.434V195.004ZM381.006 201.388C381.006 201.061 380.964 200.744 380.88 200.436C380.796 200.128 380.67 199.857 380.502 199.624C380.334 199.381 380.124 199.19 379.872 199.05C379.62 198.901 379.33 198.826 379.004 198.826C378.332 198.826 377.823 199.059 377.478 199.526C377.142 199.993 376.974 200.613 376.974 201.388C376.974 201.752 377.016 202.093 377.1 202.41C377.193 202.718 377.328 202.984 377.506 203.208C377.683 203.432 377.893 203.609 378.136 203.74C378.388 203.871 378.677 203.936 379.004 203.936C379.368 203.936 379.676 203.861 379.928 203.712C380.18 203.563 380.385 203.371 380.544 203.138C380.712 202.895 380.828 202.625 380.894 202.326C380.968 202.018 381.006 201.705 381.006 201.388ZM389.095 200.744C389.077 200.492 389.021 200.249 388.927 200.016C388.843 199.783 388.722 199.582 388.563 199.414C388.414 199.237 388.227 199.097 388.003 198.994C387.789 198.882 387.546 198.826 387.275 198.826C386.995 198.826 386.739 198.877 386.505 198.98C386.281 199.073 386.085 199.209 385.917 199.386C385.759 199.554 385.628 199.755 385.525 199.988C385.432 200.221 385.381 200.473 385.371 200.744H389.095ZM385.371 201.794C385.371 202.074 385.409 202.345 385.483 202.606C385.567 202.867 385.689 203.096 385.847 203.292C386.006 203.488 386.207 203.647 386.449 203.768C386.692 203.88 386.981 203.936 387.317 203.936C387.784 203.936 388.157 203.838 388.437 203.642C388.727 203.437 388.941 203.133 389.081 202.732H390.593C390.509 203.124 390.365 203.474 390.159 203.782C389.954 204.09 389.707 204.351 389.417 204.566C389.128 204.771 388.801 204.925 388.437 205.028C388.083 205.14 387.709 205.196 387.317 205.196C386.748 205.196 386.244 205.103 385.805 204.916C385.367 204.729 384.993 204.468 384.685 204.132C384.387 203.796 384.158 203.395 383.999 202.928C383.85 202.461 383.775 201.948 383.775 201.388C383.775 200.875 383.855 200.389 384.013 199.932C384.181 199.465 384.415 199.059 384.713 198.714C385.021 198.359 385.39 198.079 385.819 197.874C386.249 197.669 386.734 197.566 387.275 197.566C387.845 197.566 388.353 197.687 388.801 197.93C389.259 198.163 389.637 198.476 389.935 198.868C390.234 199.26 390.449 199.713 390.579 200.226C390.719 200.73 390.757 201.253 390.691 201.794H385.371ZM392.122 195.004H393.718V205H392.122V195.004Z" fill="black" fill-opacity="0.68"/>
<path d="M192.768 307.548H195.744C196.608 307.559 197.237 307.383 197.632 307.02C198.037 306.657 198.24 306.135 198.24 305.452C198.24 304.769 198.037 304.252 197.632 303.9C197.237 303.537 196.608 303.356 195.744 303.356H192.768V307.548ZM191.248 302.076H196.256C197.408 302.076 198.277 302.375 198.864 302.972C199.461 303.559 199.76 304.385 199.76 305.452C199.76 306.519 199.461 307.351 198.864 307.948C198.277 308.545 197.408 308.839 196.256 308.828H192.768V313.5H191.248V302.076ZM201.351 305.228H202.631V306.972H202.663C202.994 306.3 203.399 305.804 203.879 305.484C204.359 305.164 204.967 305.015 205.703 305.036V306.476C205.159 306.476 204.695 306.551 204.311 306.7C203.927 306.849 203.618 307.068 203.383 307.356C203.148 307.644 202.978 307.996 202.871 308.412C202.764 308.817 202.711 309.287 202.711 309.82V313.5H201.351V305.228ZM212.19 308.572C212.169 308.252 212.094 307.948 211.966 307.66C211.849 307.372 211.683 307.127 211.47 306.924C211.267 306.711 211.022 306.545 210.734 306.428C210.457 306.3 210.147 306.236 209.806 306.236C209.454 306.236 209.134 306.3 208.846 306.428C208.569 306.545 208.329 306.711 208.126 306.924C207.923 307.137 207.763 307.388 207.646 307.676C207.529 307.953 207.459 308.252 207.438 308.572H212.19ZM213.502 310.876C213.321 311.804 212.921 312.503 212.302 312.972C211.683 313.441 210.905 313.676 209.966 313.676C209.305 313.676 208.729 313.569 208.238 313.356C207.758 313.143 207.353 312.844 207.022 312.46C206.691 312.076 206.441 311.617 206.27 311.084C206.11 310.551 206.019 309.969 205.998 309.34C205.998 308.711 206.094 308.135 206.286 307.612C206.478 307.089 206.745 306.636 207.086 306.252C207.438 305.868 207.849 305.569 208.318 305.356C208.798 305.143 209.321 305.036 209.886 305.036C210.622 305.036 211.23 305.191 211.71 305.5C212.201 305.799 212.59 306.183 212.878 306.652C213.177 307.121 213.379 307.633 213.486 308.188C213.603 308.743 213.651 309.271 213.63 309.772H207.438C207.427 310.135 207.47 310.481 207.566 310.812C207.662 311.132 207.817 311.42 208.03 311.676C208.243 311.921 208.515 312.119 208.846 312.268C209.177 312.417 209.566 312.492 210.014 312.492C210.59 312.492 211.059 312.359 211.422 312.092C211.795 311.825 212.041 311.42 212.158 310.876H213.502ZM215.872 310.892C215.882 311.191 215.952 311.447 216.08 311.66C216.208 311.863 216.373 312.028 216.576 312.156C216.789 312.273 217.024 312.359 217.28 312.412C217.546 312.465 217.818 312.492 218.096 312.492C218.309 312.492 218.533 312.476 218.768 312.444C219.002 312.412 219.216 312.353 219.408 312.268C219.61 312.183 219.776 312.06 219.904 311.9C220.032 311.729 220.096 311.516 220.096 311.26C220.096 310.908 219.962 310.641 219.696 310.46C219.429 310.279 219.093 310.135 218.688 310.028C218.293 309.911 217.861 309.809 217.392 309.724C216.922 309.628 216.485 309.5 216.08 309.34C215.685 309.169 215.354 308.935 215.088 308.636C214.821 308.337 214.688 307.921 214.688 307.388C214.688 306.972 214.778 306.615 214.96 306.316C215.152 306.017 215.392 305.777 215.68 305.596C215.978 305.404 216.309 305.265 216.672 305.18C217.045 305.084 217.413 305.036 217.776 305.036C218.245 305.036 218.677 305.079 219.072 305.164C219.466 305.239 219.813 305.377 220.112 305.58C220.421 305.772 220.666 306.039 220.848 306.38C221.029 306.711 221.136 307.127 221.168 307.628H219.808C219.786 307.361 219.717 307.143 219.6 306.972C219.482 306.791 219.333 306.647 219.152 306.54C218.97 306.433 218.768 306.359 218.544 306.316C218.33 306.263 218.112 306.236 217.888 306.236C217.685 306.236 217.477 306.252 217.264 306.284C217.061 306.316 216.874 306.375 216.704 306.46C216.533 306.535 216.394 306.641 216.288 306.78C216.181 306.908 216.128 307.079 216.128 307.292C216.128 307.527 216.208 307.724 216.368 307.884C216.538 308.033 216.752 308.161 217.008 308.268C217.264 308.364 217.552 308.449 217.872 308.524C218.192 308.588 218.512 308.657 218.832 308.732C219.173 308.807 219.504 308.897 219.824 309.004C220.154 309.111 220.442 309.255 220.688 309.436C220.944 309.607 221.146 309.825 221.296 310.092C221.456 310.359 221.536 310.689 221.536 311.084C221.536 311.585 221.429 312.001 221.216 312.332C221.013 312.663 220.741 312.929 220.4 313.132C220.069 313.335 219.69 313.473 219.264 313.548C218.848 313.633 218.432 313.676 218.016 313.676C217.557 313.676 217.12 313.628 216.704 313.532C216.288 313.436 215.92 313.281 215.6 313.068C215.28 312.844 215.024 312.556 214.832 312.204C214.64 311.841 214.533 311.404 214.512 310.892H215.872ZM223.872 310.892C223.882 311.191 223.952 311.447 224.08 311.66C224.208 311.863 224.373 312.028 224.576 312.156C224.789 312.273 225.024 312.359 225.28 312.412C225.546 312.465 225.818 312.492 226.096 312.492C226.309 312.492 226.533 312.476 226.768 312.444C227.002 312.412 227.216 312.353 227.408 312.268C227.61 312.183 227.776 312.06 227.904 311.9C228.032 311.729 228.096 311.516 228.096 311.26C228.096 310.908 227.962 310.641 227.696 310.46C227.429 310.279 227.093 310.135 226.688 310.028C226.293 309.911 225.861 309.809 225.392 309.724C224.922 309.628 224.485 309.5 224.08 309.34C223.685 309.169 223.354 308.935 223.088 308.636C222.821 308.337 222.688 307.921 222.688 307.388C222.688 306.972 222.778 306.615 222.96 306.316C223.152 306.017 223.392 305.777 223.68 305.596C223.978 305.404 224.309 305.265 224.672 305.18C225.045 305.084 225.413 305.036 225.776 305.036C226.245 305.036 226.677 305.079 227.072 305.164C227.466 305.239 227.813 305.377 228.112 305.58C228.421 305.772 228.666 306.039 228.848 306.38C229.029 306.711 229.136 307.127 229.168 307.628H227.808C227.786 307.361 227.717 307.143 227.6 306.972C227.482 306.791 227.333 306.647 227.152 306.54C226.97 306.433 226.768 306.359 226.544 306.316C226.33 306.263 226.112 306.236 225.888 306.236C225.685 306.236 225.477 306.252 225.264 306.284C225.061 306.316 224.874 306.375 224.704 306.46C224.533 306.535 224.394 306.641 224.288 306.78C224.181 306.908 224.128 307.079 224.128 307.292C224.128 307.527 224.208 307.724 224.368 307.884C224.538 308.033 224.752 308.161 225.008 308.268C225.264 308.364 225.552 308.449 225.872 308.524C226.192 308.588 226.512 308.657 226.832 308.732C227.173 308.807 227.504 308.897 227.824 309.004C228.154 309.111 228.442 309.255 228.688 309.436C228.944 309.607 229.146 309.825 229.296 310.092C229.456 310.359 229.536 310.689 229.536 311.084C229.536 311.585 229.429 312.001 229.216 312.332C229.013 312.663 228.741 312.929 228.4 313.132C228.069 313.335 227.69 313.473 227.264 313.548C226.848 313.633 226.432 313.676 226.016 313.676C225.557 313.676 225.12 313.628 224.704 313.532C224.288 313.436 223.92 313.281 223.6 313.068C223.28 312.844 223.024 312.556 222.832 312.204C222.64 311.841 222.533 311.404 222.512 310.892H223.872ZM236.784 308.572C236.762 308.252 236.688 307.948 236.56 307.66C236.442 307.372 236.277 307.127 236.064 306.924C235.861 306.711 235.616 306.545 235.328 306.428C235.05 306.3 234.741 306.236 234.4 306.236C234.048 306.236 233.728 306.3 233.44 306.428C233.162 306.545 232.922 306.711 232.72 306.924C232.517 307.137 232.357 307.388 232.24 307.676C232.122 307.953 232.053 308.252 232.032 308.572H236.784ZM238.096 310.876C237.914 311.804 237.514 312.503 236.896 312.972C236.277 313.441 235.498 313.676 234.56 313.676C233.898 313.676 233.322 313.569 232.832 313.356C232.352 313.143 231.946 312.844 231.616 312.46C231.285 312.076 231.034 311.617 230.864 311.084C230.704 310.551 230.613 309.969 230.592 309.34C230.592 308.711 230.688 308.135 230.88 307.612C231.072 307.089 231.338 306.636 231.68 306.252C232.032 305.868 232.442 305.569 232.912 305.356C233.392 305.143 233.914 305.036 234.48 305.036C235.216 305.036 235.824 305.191 236.304 305.5C236.794 305.799 237.184 306.183 237.472 306.652C237.77 307.121 237.973 307.633 238.08 308.188C238.197 308.743 238.245 309.271 238.224 309.772H232.032C232.021 310.135 232.064 310.481 232.16 310.812C232.256 311.132 232.41 311.42 232.624 311.676C232.837 311.921 233.109 312.119 233.44 312.268C233.77 312.417 234.16 312.492 234.608 312.492C235.184 312.492 235.653 312.359 236.016 312.092C236.389 311.825 236.634 311.42 236.752 310.876H238.096ZM240.625 309.436C240.625 309.82 240.673 310.199 240.769 310.572C240.876 310.935 241.031 311.26 241.233 311.548C241.447 311.836 241.713 312.065 242.033 312.236C242.364 312.407 242.748 312.492 243.185 312.492C243.644 312.492 244.033 312.401 244.353 312.22C244.673 312.039 244.935 311.804 245.137 311.516C245.34 311.217 245.484 310.881 245.569 310.508C245.665 310.135 245.713 309.756 245.713 309.372C245.713 308.967 245.665 308.577 245.569 308.204C245.473 307.82 245.319 307.484 245.105 307.196C244.903 306.908 244.636 306.679 244.305 306.508C243.975 306.327 243.575 306.236 243.105 306.236C242.647 306.236 242.257 306.327 241.937 306.508C241.617 306.689 241.361 306.929 241.169 307.228C240.977 307.527 240.839 307.868 240.753 308.252C240.668 308.636 240.625 309.031 240.625 309.436ZM247.025 313.5H245.665V312.38H245.633C245.409 312.839 245.057 313.169 244.577 313.372C244.097 313.575 243.569 313.676 242.993 313.676C242.353 313.676 241.793 313.559 241.313 313.324C240.844 313.089 240.449 312.775 240.129 312.38C239.82 311.985 239.585 311.527 239.425 311.004C239.265 310.481 239.185 309.927 239.185 309.34C239.185 308.753 239.26 308.199 239.409 307.676C239.569 307.153 239.804 306.7 240.113 306.316C240.433 305.921 240.828 305.612 241.297 305.388C241.777 305.153 242.332 305.036 242.961 305.036C243.175 305.036 243.404 305.057 243.649 305.1C243.895 305.143 244.14 305.217 244.385 305.324C244.631 305.42 244.86 305.553 245.073 305.724C245.297 305.884 245.484 306.087 245.633 306.332H245.665V302.076H247.025V313.5Z" fill="black" fill-opacity="0.68"/>
<mask id="path-12-inside-3_60056_7448" fill="white">
<path d="M326 308C326 299.163 333.163 292 342 292H395C403.837 292 411 299.163 411 308C411 316.837 403.837 324 395 324H342C333.163 324 326 316.837 326 308Z"/>
</mask>
<path d="M342 292V294H395V292V290H342V292ZM395 324V322H342V324V326H395V324ZM342 324V322C334.268 322 328 315.732 328 308H326H324C324 317.941 332.059 326 342 326V324ZM411 308H409C409 315.732 402.732 322 395 322V324V326C404.941 326 413 317.941 413 308H411ZM395 292V294C402.732 294 409 300.268 409 308H411H413C413 298.059 404.941 290 395 290V292ZM342 292V290C332.059 290 324 298.059 324 308H326H328C328 300.268 334.268 294 342 294V292Z" fill="#F15E00" mask="url(#path-12-inside-3_60056_7448)"/>
<path fill-rule="evenodd" clip-rule="evenodd" d="M348.267 307.495L344 312.164L339.734 307.495L339.731 307.492C338.905 306.586 338.979 305.19 339.896 304.373C340.78 303.587 342.132 303.621 342.973 304.452C342.975 304.455 342.977 304.457 342.979 304.459L343.632 305.072L344 305.422L344.368 305.072L345.021 304.459C345.023 304.457 345.025 304.455 345.027 304.452C345.446 304.037 346.015 303.804 346.608 303.806C347.842 303.806 348.843 304.794 348.843 306.014C348.843 306.56 348.639 307.087 348.269 307.492L348.267 307.495ZM349.242 303.411C347.796 301.982 345.457 301.974 344 303.386C342.543 301.974 340.204 301.982 338.758 303.411C337.327 304.825 337.303 307.104 338.688 308.546L344 314.333L349.312 308.546C350.697 307.104 350.673 304.825 349.242 303.411Z" fill="#F15E00"/>
<path d="M359.447 303.004H361.197V311.488H366.279V313H359.447V303.004ZM373.499 311.39C373.499 311.586 373.523 311.726 373.569 311.81C373.625 311.894 373.728 311.936 373.877 311.936C373.924 311.936 373.98 311.936 374.045 311.936C374.111 311.936 374.185 311.927 374.269 311.908V313.014C374.213 313.033 374.139 313.051 374.045 313.07C373.961 313.098 373.873 313.121 373.779 313.14C373.686 313.159 373.593 313.173 373.499 313.182C373.406 313.191 373.327 313.196 373.261 313.196C372.935 313.196 372.664 313.131 372.449 313C372.235 312.869 372.095 312.641 372.029 312.314C371.712 312.622 371.32 312.846 370.853 312.986C370.396 313.126 369.953 313.196 369.523 313.196C369.197 313.196 368.884 313.149 368.585 313.056C368.287 312.972 368.021 312.846 367.787 312.678C367.563 312.501 367.381 312.281 367.241 312.02C367.111 311.749 367.045 311.437 367.045 311.082C367.045 310.634 367.125 310.27 367.283 309.99C367.451 309.71 367.666 309.491 367.927 309.332C368.198 309.173 368.497 309.061 368.823 308.996C369.159 308.921 369.495 308.865 369.831 308.828C370.121 308.772 370.396 308.735 370.657 308.716C370.919 308.688 371.147 308.646 371.343 308.59C371.549 308.534 371.707 308.45 371.819 308.338C371.941 308.217 372.001 308.039 372.001 307.806C372.001 307.601 371.95 307.433 371.847 307.302C371.754 307.171 371.633 307.073 371.483 307.008C371.343 306.933 371.185 306.887 371.007 306.868C370.83 306.84 370.662 306.826 370.503 306.826C370.055 306.826 369.687 306.919 369.397 307.106C369.108 307.293 368.945 307.582 368.907 307.974H367.311C367.339 307.507 367.451 307.12 367.647 306.812C367.843 306.504 368.091 306.257 368.389 306.07C368.697 305.883 369.043 305.753 369.425 305.678C369.808 305.603 370.2 305.566 370.601 305.566C370.956 305.566 371.306 305.603 371.651 305.678C371.997 305.753 372.305 305.874 372.575 306.042C372.855 306.21 373.079 306.429 373.247 306.7C373.415 306.961 373.499 307.283 373.499 307.666V311.39ZM371.903 309.374C371.661 309.533 371.362 309.631 371.007 309.668C370.653 309.696 370.298 309.743 369.943 309.808C369.775 309.836 369.612 309.878 369.453 309.934C369.295 309.981 369.155 310.051 369.033 310.144C368.912 310.228 368.814 310.345 368.739 310.494C368.674 310.634 368.641 310.807 368.641 311.012C368.641 311.189 368.693 311.339 368.795 311.46C368.898 311.581 369.019 311.679 369.159 311.754C369.309 311.819 369.467 311.866 369.635 311.894C369.813 311.922 369.971 311.936 370.111 311.936C370.289 311.936 370.48 311.913 370.685 311.866C370.891 311.819 371.082 311.74 371.259 311.628C371.446 311.516 371.6 311.376 371.721 311.208C371.843 311.031 371.903 310.816 371.903 310.564V309.374ZM375.434 303.004H377.03V306.7H377.058C377.17 306.523 377.305 306.364 377.464 306.224C377.622 306.084 377.795 305.967 377.982 305.874C378.178 305.771 378.378 305.697 378.584 305.65C378.798 305.594 379.008 305.566 379.214 305.566C379.783 305.566 380.278 305.669 380.698 305.874C381.127 306.07 381.482 306.345 381.762 306.7C382.042 307.045 382.252 307.451 382.392 307.918C382.532 308.385 382.602 308.884 382.602 309.416C382.602 309.901 382.536 310.373 382.406 310.83C382.284 311.287 382.093 311.693 381.832 312.048C381.58 312.393 381.258 312.673 380.866 312.888C380.474 313.093 380.012 313.196 379.48 313.196C379.237 313.196 378.99 313.177 378.738 313.14C378.495 313.112 378.262 313.051 378.038 312.958C377.814 312.865 377.608 312.743 377.422 312.594C377.244 312.445 377.095 312.249 376.974 312.006H376.946V313H375.434V303.004ZM381.006 309.388C381.006 309.061 380.964 308.744 380.88 308.436C380.796 308.128 380.67 307.857 380.502 307.624C380.334 307.381 380.124 307.19 379.872 307.05C379.62 306.901 379.33 306.826 379.004 306.826C378.332 306.826 377.823 307.059 377.478 307.526C377.142 307.993 376.974 308.613 376.974 309.388C376.974 309.752 377.016 310.093 377.1 310.41C377.193 310.718 377.328 310.984 377.506 311.208C377.683 311.432 377.893 311.609 378.136 311.74C378.388 311.871 378.677 311.936 379.004 311.936C379.368 311.936 379.676 311.861 379.928 311.712C380.18 311.563 380.385 311.371 380.544 311.138C380.712 310.895 380.828 310.625 380.894 310.326C380.968 310.018 381.006 309.705 381.006 309.388ZM389.095 308.744C389.077 308.492 389.021 308.249 388.927 308.016C388.843 307.783 388.722 307.582 388.563 307.414C388.414 307.237 388.227 307.097 388.003 306.994C387.789 306.882 387.546 306.826 387.275 306.826C386.995 306.826 386.739 306.877 386.505 306.98C386.281 307.073 386.085 307.209 385.917 307.386C385.759 307.554 385.628 307.755 385.525 307.988C385.432 308.221 385.381 308.473 385.371 308.744H389.095ZM385.371 309.794C385.371 310.074 385.409 310.345 385.483 310.606C385.567 310.867 385.689 311.096 385.847 311.292C386.006 311.488 386.207 311.647 386.449 311.768C386.692 311.88 386.981 311.936 387.317 311.936C387.784 311.936 388.157 311.838 388.437 311.642C388.727 311.437 388.941 311.133 389.081 310.732H390.593C390.509 311.124 390.365 311.474 390.159 311.782C389.954 312.09 389.707 312.351 389.417 312.566C389.128 312.771 388.801 312.925 388.437 313.028C388.083 313.14 387.709 313.196 387.317 313.196C386.748 313.196 386.244 313.103 385.805 312.916C385.367 312.729 384.993 312.468 384.685 312.132C384.387 311.796 384.158 311.395 383.999 310.928C383.85 310.461 383.775 309.948 383.775 309.388C383.775 308.875 383.855 308.389 384.013 307.932C384.181 307.465 384.415 307.059 384.713 306.714C385.021 306.359 385.39 306.079 385.819 305.874C386.249 305.669 386.734 305.566 387.275 305.566C387.845 305.566 388.353 305.687 388.801 305.93C389.259 306.163 389.637 306.476 389.935 306.868C390.234 307.26 390.449 307.713 390.579 308.226C390.719 308.73 390.757 309.253 390.691 309.794H385.371ZM392.122 303.004H393.718V313H392.122V303.004Z" fill="#F15E00"/>
<path d="M192.768 420.22H195.296C195.467 420.22 195.68 420.209 195.936 420.188C196.192 420.156 196.464 420.092 196.752 419.996C197.04 419.889 197.323 419.74 197.6 419.548C197.888 419.356 198.144 419.095 198.368 418.764C198.592 418.433 198.773 418.023 198.912 417.532C199.061 417.031 199.136 416.428 199.136 415.724C199.136 415.041 199.067 414.433 198.928 413.9C198.8 413.356 198.581 412.897 198.272 412.524C197.973 412.14 197.584 411.852 197.104 411.66C196.624 411.457 196.032 411.356 195.328 411.356H192.768V420.22ZM191.248 410.076H195.168C196.928 410.076 198.283 410.524 199.232 411.42C200.181 412.316 200.656 413.681 200.656 415.516C200.656 416.476 200.549 417.329 200.336 418.076C200.123 418.812 199.792 419.436 199.344 419.948C198.896 420.449 198.325 420.833 197.632 421.1C196.939 421.367 196.117 421.5 195.168 421.5H191.248V410.076ZM203.73 411.74H202.37V410.076H203.73V411.74ZM202.37 413.228H203.73V421.5H202.37V413.228ZM206.669 418.892C206.679 419.191 206.749 419.447 206.877 419.66C207.005 419.863 207.17 420.028 207.373 420.156C207.586 420.273 207.821 420.359 208.077 420.412C208.343 420.465 208.615 420.492 208.893 420.492C209.106 420.492 209.33 420.476 209.565 420.444C209.799 420.412 210.013 420.353 210.205 420.268C210.407 420.183 210.573 420.06 210.701 419.9C210.829 419.729 210.893 419.516 210.893 419.26C210.893 418.908 210.759 418.641 210.493 418.46C210.226 418.279 209.89 418.135 209.485 418.028C209.09 417.911 208.658 417.809 208.189 417.724C207.719 417.628 207.282 417.5 206.877 417.34C206.482 417.169 206.151 416.935 205.885 416.636C205.618 416.337 205.485 415.921 205.485 415.388C205.485 414.972 205.575 414.615 205.757 414.316C205.949 414.017 206.189 413.777 206.477 413.596C206.775 413.404 207.106 413.265 207.469 413.18C207.842 413.084 208.21 413.036 208.573 413.036C209.042 413.036 209.474 413.079 209.869 413.164C210.263 413.239 210.61 413.377 210.909 413.58C211.218 413.772 211.463 414.039 211.645 414.38C211.826 414.711 211.933 415.127 211.965 415.628H210.605C210.583 415.361 210.514 415.143 210.397 414.972C210.279 414.791 210.13 414.647 209.949 414.54C209.767 414.433 209.565 414.359 209.341 414.316C209.127 414.263 208.909 414.236 208.685 414.236C208.482 414.236 208.274 414.252 208.061 414.284C207.858 414.316 207.671 414.375 207.501 414.46C207.33 414.535 207.191 414.641 207.085 414.78C206.978 414.908 206.924 415.079 206.924 415.292C206.924 415.527 207.004 415.724 207.164 415.884C207.335 416.033 207.549 416.161 207.805 416.268C208.061 416.364 208.349 416.449 208.669 416.524C208.989 416.588 209.309 416.657 209.629 416.732C209.97 416.807 210.301 416.897 210.621 417.004C210.951 417.111 211.239 417.255 211.485 417.436C211.741 417.607 211.943 417.825 212.093 418.092C212.253 418.359 212.333 418.689 212.333 419.084C212.333 419.585 212.226 420.001 212.013 420.332C211.81 420.663 211.538 420.929 211.197 421.132C210.866 421.335 210.487 421.473 210.061 421.548C209.645 421.633 209.229 421.676 208.812 421.676C208.354 421.676 207.917 421.628 207.501 421.532C207.085 421.436 206.717 421.281 206.397 421.068C206.077 420.844 205.821 420.556 205.629 420.204C205.437 419.841 205.33 419.404 205.309 418.892H206.669ZM221.165 421.468C220.93 421.607 220.605 421.676 220.189 421.676C219.837 421.676 219.554 421.58 219.341 421.388C219.138 421.185 219.037 420.86 219.037 420.412C218.663 420.86 218.226 421.185 217.725 421.388C217.234 421.58 216.701 421.676 216.125 421.676C215.751 421.676 215.394 421.633 215.053 421.548C214.722 421.463 214.434 421.329 214.189 421.148C213.943 420.967 213.746 420.732 213.597 420.444C213.458 420.145 213.389 419.788 213.389 419.372C213.389 418.903 213.469 418.519 213.629 418.22C213.789 417.921 213.997 417.681 214.253 417.5C214.519 417.308 214.818 417.164 215.149 417.068C215.49 416.972 215.837 416.892 216.189 416.828C216.562 416.753 216.914 416.7 217.245 416.668C217.586 416.625 217.885 416.572 218.141 416.508C218.397 416.433 218.599 416.332 218.749 416.204C218.898 416.065 218.973 415.868 218.973 415.612C218.973 415.313 218.914 415.073 218.797 414.892C218.69 414.711 218.546 414.572 218.365 414.476C218.194 414.38 217.997 414.316 217.773 414.284C217.559 414.252 217.346 414.236 217.133 414.236C216.557 414.236 216.077 414.348 215.693 414.572C215.309 414.785 215.101 415.196 215.069 415.804H213.709C213.73 415.292 213.837 414.86 214.029 414.508C214.221 414.156 214.477 413.873 214.797 413.66C215.117 413.436 215.479 413.276 215.885 413.18C216.301 413.084 216.743 413.036 217.213 413.036C217.586 413.036 217.954 413.063 218.317 413.116C218.69 413.169 219.026 413.281 219.325 413.452C219.623 413.612 219.863 413.841 220.045 414.14C220.226 414.439 220.317 414.828 220.317 415.308V419.564C220.317 419.884 220.333 420.119 220.365 420.268C220.407 420.417 220.535 420.492 220.749 420.492C220.866 420.492 221.005 420.465 221.165 420.412V421.468ZM218.957 417.228C218.786 417.356 218.562 417.452 218.285 417.516C218.007 417.569 217.714 417.617 217.405 417.66C217.106 417.692 216.802 417.735 216.493 417.788C216.183 417.831 215.906 417.905 215.661 418.012C215.415 418.119 215.213 418.273 215.053 418.476C214.903 418.668 214.829 418.935 214.829 419.276C214.829 419.5 214.871 419.692 214.957 419.852C215.053 420.001 215.17 420.124 215.309 420.22C215.458 420.316 215.629 420.385 215.821 420.428C216.013 420.471 216.215 420.492 216.429 420.492C216.877 420.492 217.261 420.433 217.581 420.316C217.901 420.188 218.162 420.033 218.365 419.852C218.567 419.66 218.717 419.457 218.813 419.244C218.909 419.02 218.957 418.812 218.957 418.62V417.228ZM222.478 410.076H223.838V414.348H223.87C224.094 413.889 224.446 413.559 224.926 413.356C225.406 413.143 225.934 413.036 226.51 413.036C227.15 413.036 227.705 413.153 228.174 413.388C228.654 413.623 229.049 413.943 229.358 414.348C229.678 414.743 229.918 415.201 230.078 415.724C230.238 416.247 230.318 416.801 230.318 417.388C230.318 417.975 230.238 418.529 230.078 419.052C229.929 419.575 229.694 420.033 229.374 420.428C229.065 420.812 228.67 421.116 228.19 421.34C227.721 421.564 227.172 421.676 226.542 421.676C226.34 421.676 226.11 421.655 225.854 421.612C225.609 421.569 225.364 421.5 225.118 421.404C224.873 421.308 224.638 421.18 224.414 421.02C224.201 420.849 224.02 420.641 223.87 420.396H223.838V421.5H222.478V410.076ZM228.878 417.292C228.878 416.908 228.825 416.535 228.718 416.172C228.622 415.799 228.468 415.468 228.254 415.18C228.052 414.892 227.785 414.663 227.454 414.492C227.134 414.321 226.756 414.236 226.318 414.236C225.86 414.236 225.47 414.327 225.15 414.508C224.83 414.689 224.569 414.929 224.366 415.228C224.164 415.516 224.014 415.847 223.918 416.22C223.833 416.593 223.79 416.972 223.79 417.356C223.79 417.761 223.838 418.156 223.934 418.54C224.03 418.913 224.18 419.244 224.382 419.532C224.596 419.82 224.868 420.055 225.198 420.236C225.529 420.407 225.929 420.492 226.398 420.492C226.868 420.492 227.257 420.401 227.566 420.22C227.886 420.039 228.142 419.799 228.334 419.5C228.526 419.201 228.665 418.86 228.75 418.476C228.836 418.092 228.878 417.697 228.878 417.292ZM231.995 410.076H233.355V421.5H231.995V410.076ZM241.206 416.572C241.184 416.252 241.11 415.948 240.982 415.66C240.864 415.372 240.699 415.127 240.486 414.924C240.283 414.711 240.038 414.545 239.75 414.428C239.472 414.3 239.163 414.236 238.822 414.236C238.47 414.236 238.15 414.3 237.862 414.428C237.584 414.545 237.344 414.711 237.142 414.924C236.939 415.137 236.779 415.388 236.662 415.676C236.544 415.953 236.475 416.252 236.454 416.572H241.206ZM242.517 418.876C242.336 419.804 241.936 420.503 241.318 420.972C240.699 421.441 239.92 421.676 238.982 421.676C238.32 421.676 237.744 421.569 237.254 421.356C236.774 421.143 236.368 420.844 236.038 420.46C235.707 420.076 235.456 419.617 235.286 419.084C235.126 418.551 235.035 417.969 235.014 417.34C235.014 416.711 235.11 416.135 235.302 415.612C235.494 415.089 235.76 414.636 236.102 414.252C236.454 413.868 236.864 413.569 237.334 413.356C237.814 413.143 238.336 413.036 238.902 413.036C239.638 413.036 240.246 413.191 240.726 413.5C241.216 413.799 241.606 414.183 241.894 414.652C242.192 415.121 242.395 415.633 242.502 416.188C242.619 416.743 242.667 417.271 242.646 417.772H236.454C236.443 418.135 236.486 418.481 236.582 418.812C236.678 419.132 236.832 419.42 237.046 419.676C237.259 419.921 237.531 420.119 237.862 420.268C238.192 420.417 238.582 420.492 239.03 420.492C239.606 420.492 240.075 420.359 240.438 420.092C240.811 419.825 241.056 419.42 241.174 418.876H242.517ZM245.047 417.436C245.047 417.82 245.095 418.199 245.191 418.572C245.298 418.935 245.453 419.26 245.655 419.548C245.869 419.836 246.135 420.065 246.455 420.236C246.786 420.407 247.17 420.492 247.607 420.492C248.066 420.492 248.455 420.401 248.775 420.22C249.095 420.039 249.357 419.804 249.559 419.516C249.762 419.217 249.906 418.881 249.991 418.508C250.087 418.135 250.135 417.756 250.135 417.372C250.135 416.967 250.087 416.577 249.991 416.204C249.895 415.82 249.741 415.484 249.527 415.196C249.325 414.908 249.058 414.679 248.727 414.508C248.397 414.327 247.997 414.236 247.527 414.236C247.069 414.236 246.679 414.327 246.359 414.508C246.039 414.689 245.783 414.929 245.591 415.228C245.399 415.527 245.261 415.868 245.175 416.252C245.09 416.636 245.047 417.031 245.047 417.436ZM251.447 421.5H250.087V420.38H250.055C249.831 420.839 249.479 421.169 248.999 421.372C248.519 421.575 247.991 421.676 247.415 421.676C246.775 421.676 246.215 421.559 245.735 421.324C245.266 421.089 244.871 420.775 244.551 420.38C244.242 419.985 244.007 419.527 243.847 419.004C243.687 418.481 243.607 417.927 243.607 417.34C243.607 416.753 243.682 416.199 243.831 415.676C243.991 415.153 244.226 414.7 244.535 414.316C244.855 413.921 245.25 413.612 245.719 413.388C246.199 413.153 246.754 413.036 247.383 413.036C247.597 413.036 247.826 413.057 248.071 413.1C248.317 413.143 248.562 413.217 248.807 413.324C249.053 413.42 249.282 413.553 249.495 413.724C249.719 413.884 249.906 414.087 250.055 414.332H250.087V410.076H251.447V421.5Z" fill="black" fill-opacity="0.68"/>
<mask id="path-17-inside-4_60056_7448" fill="white">
<path d="M326 416C326 407.163 333.163 400 342 400H395C403.837 400 411 407.163 411 416C411 424.837 403.837 432 395 432H342C333.163 432 326 424.837 326 416Z"/>
</mask>
<path d="M342 400V401H395V400V399H342V400ZM395 432V431H342V432V433H395V432ZM342 432V431C333.716 431 327 424.284 327 416H326H325C325 425.389 332.611 433 342 433V432ZM411 416H410C410 424.284 403.284 431 395 431V432V433C404.389 433 412 425.389 412 416H411ZM395 400V401C403.284 401 410 407.716 410 416H411H412C412 406.611 404.389 399 395 399V400ZM342 400V399C332.611 399 325 406.611 325 416H326H327C327 407.716 333.716 401 342 401V400Z" fill="black" fill-opacity="0.2" mask="url(#path-17-inside-4_60056_7448)"/>
<path fill-rule="evenodd" clip-rule="evenodd" d="M348.267 415.495L344 420.164L339.734 415.495L339.731 415.492C338.905 414.586 338.979 413.19 339.896 412.373C340.78 411.587 342.132 411.621 342.973 412.452C342.975 412.455 342.977 412.457 342.979 412.459L343.632 413.072L344 413.422L344.368 413.072L345.021 412.459C345.023 412.457 345.025 412.455 345.027 412.452C345.446 412.037 346.015 411.804 346.608 411.806C347.842 411.806 348.843 412.794 348.843 414.014C348.843 414.56 348.639 415.087 348.269 415.492L348.267 415.495ZM349.242 411.411C347.796 409.982 345.457 409.974 344 411.386C342.543 409.974 340.204 409.982 338.758 411.411C337.327 412.825 337.303 415.104 338.688 416.546L344 422.333L349.312 416.546C350.697 415.104 350.673 412.825 349.242 411.411Z" fill="black" fill-opacity="0.2"/>
<path d="M359.447 411.004H361.197V419.488H366.279V421H359.447V411.004ZM373.499 419.39C373.499 419.586 373.523 419.726 373.569 419.81C373.625 419.894 373.728 419.936 373.877 419.936C373.924 419.936 373.98 419.936 374.045 419.936C374.111 419.936 374.185 419.927 374.269 419.908V421.014C374.213 421.033 374.139 421.051 374.045 421.07C373.961 421.098 373.873 421.121 373.779 421.14C373.686 421.159 373.593 421.173 373.499 421.182C373.406 421.191 373.327 421.196 373.261 421.196C372.935 421.196 372.664 421.131 372.449 421C372.235 420.869 372.095 420.641 372.029 420.314C371.712 420.622 371.32 420.846 370.853 420.986C370.396 421.126 369.953 421.196 369.523 421.196C369.197 421.196 368.884 421.149 368.585 421.056C368.287 420.972 368.021 420.846 367.787 420.678C367.563 420.501 367.381 420.281 367.241 420.02C367.111 419.749 367.045 419.437 367.045 419.082C367.045 418.634 367.125 418.27 367.283 417.99C367.451 417.71 367.666 417.491 367.927 417.332C368.198 417.173 368.497 417.061 368.823 416.996C369.159 416.921 369.495 416.865 369.831 416.828C370.121 416.772 370.396 416.735 370.657 416.716C370.919 416.688 371.147 416.646 371.343 416.59C371.549 416.534 371.707 416.45 371.819 416.338C371.941 416.217 372.001 416.039 372.001 415.806C372.001 415.601 371.95 415.433 371.847 415.302C371.754 415.171 371.633 415.073 371.483 415.008C371.343 414.933 371.185 414.887 371.007 414.868C370.83 414.84 370.662 414.826 370.503 414.826C370.055 414.826 369.687 414.919 369.397 415.106C369.108 415.293 368.945 415.582 368.907 415.974H367.311C367.339 415.507 367.451 415.12 367.647 414.812C367.843 414.504 368.091 414.257 368.389 414.07C368.697 413.883 369.043 413.753 369.425 413.678C369.808 413.603 370.2 413.566 370.601 413.566C370.956 413.566 371.306 413.603 371.651 413.678C371.997 413.753 372.305 413.874 372.575 414.042C372.855 414.21 373.079 414.429 373.247 414.7C373.415 414.961 373.499 415.283 373.499 415.666V419.39ZM371.903 417.374C371.661 417.533 371.362 417.631 371.007 417.668C370.653 417.696 370.298 417.743 369.943 417.808C369.775 417.836 369.612 417.878 369.453 417.934C369.295 417.981 369.155 418.051 369.033 418.144C368.912 418.228 368.814 418.345 368.739 418.494C368.674 418.634 368.641 418.807 368.641 419.012C368.641 419.189 368.693 419.339 368.795 419.46C368.898 419.581 369.019 419.679 369.159 419.754C369.309 419.819 369.467 419.866 369.635 419.894C369.813 419.922 369.971 419.936 370.111 419.936C370.289 419.936 370.48 419.913 370.685 419.866C370.891 419.819 371.082 419.74 371.259 419.628C371.446 419.516 371.6 419.376 371.721 419.208C371.843 419.031 371.903 418.816 371.903 418.564V417.374ZM375.434 411.004H377.03V414.7H377.058C377.17 414.523 377.305 414.364 377.464 414.224C377.622 414.084 377.795 413.967 377.982 413.874C378.178 413.771 378.378 413.697 378.584 413.65C378.798 413.594 379.008 413.566 379.214 413.566C379.783 413.566 380.278 413.669 380.698 413.874C381.127 414.07 381.482 414.345 381.762 414.7C382.042 415.045 382.252 415.451 382.392 415.918C382.532 416.385 382.602 416.884 382.602 417.416C382.602 417.901 382.536 418.373 382.406 418.83C382.284 419.287 382.093 419.693 381.832 420.048C381.58 420.393 381.258 420.673 380.866 420.888C380.474 421.093 380.012 421.196 379.48 421.196C379.237 421.196 378.99 421.177 378.738 421.14C378.495 421.112 378.262 421.051 378.038 420.958C377.814 420.865 377.608 420.743 377.422 420.594C377.244 420.445 377.095 420.249 376.974 420.006H376.946V421H375.434V411.004ZM381.006 417.388C381.006 417.061 380.964 416.744 380.88 416.436C380.796 416.128 380.67 415.857 380.502 415.624C380.334 415.381 380.124 415.19 379.872 415.05C379.62 414.901 379.33 414.826 379.004 414.826C378.332 414.826 377.823 415.059 377.478 415.526C377.142 415.993 376.974 416.613 376.974 417.388C376.974 417.752 377.016 418.093 377.1 418.41C377.193 418.718 377.328 418.984 377.506 419.208C377.683 419.432 377.893 419.609 378.136 419.74C378.388 419.871 378.677 419.936 379.004 419.936C379.368 419.936 379.676 419.861 379.928 419.712C380.18 419.563 380.385 419.371 380.544 419.138C380.712 418.895 380.828 418.625 380.894 418.326C380.968 418.018 381.006 417.705 381.006 417.388ZM389.095 416.744C389.077 416.492 389.021 416.249 388.927 416.016C388.843 415.783 388.722 415.582 388.563 415.414C388.414 415.237 388.227 415.097 388.003 414.994C387.789 414.882 387.546 414.826 387.275 414.826C386.995 414.826 386.739 414.877 386.505 414.98C386.281 415.073 386.085 415.209 385.917 415.386C385.759 415.554 385.628 415.755 385.525 415.988C385.432 416.221 385.381 416.473 385.371 416.744H389.095ZM385.371 417.794C385.371 418.074 385.409 418.345 385.483 418.606C385.567 418.867 385.689 419.096 385.847 419.292C386.006 419.488 386.207 419.647 386.449 419.768C386.692 419.88 386.981 419.936 387.317 419.936C387.784 419.936 388.157 419.838 388.437 419.642C388.727 419.437 388.941 419.133 389.081 418.732H390.593C390.509 419.124 390.365 419.474 390.159 419.782C389.954 420.09 389.707 420.351 389.417 420.566C389.128 420.771 388.801 420.925 388.437 421.028C388.083 421.14 387.709 421.196 387.317 421.196C386.748 421.196 386.244 421.103 385.805 420.916C385.367 420.729 384.993 420.468 384.685 420.132C384.387 419.796 384.158 419.395 383.999 418.928C383.85 418.461 383.775 417.948 383.775 417.388C383.775 416.875 383.855 416.389 384.013 415.932C384.181 415.465 384.415 415.059 384.713 414.714C385.021 414.359 385.39 414.079 385.819 413.874C386.249 413.669 386.734 413.566 387.275 413.566C387.845 413.566 388.353 413.687 388.801 413.93C389.259 414.163 389.637 414.476 389.935 414.868C390.234 415.26 390.449 415.713 390.579 416.226C390.719 416.73 390.757 417.253 390.691 417.794H385.371ZM392.122 411.004H393.718V421H392.122V411.004Z" fill="black" fill-opacity="0.2"/>
<path d="M191.248 518.076H198.752V519.356H192.768V522.988H198.016V524.268H192.768V529.5H191.248V518.076ZM201.204 525.372C201.204 525.873 201.268 526.321 201.396 526.716C201.534 527.1 201.721 527.425 201.956 527.692C202.19 527.948 202.462 528.145 202.772 528.284C203.092 528.423 203.428 528.492 203.78 528.492C204.132 528.492 204.462 528.423 204.772 528.284C205.092 528.145 205.369 527.948 205.604 527.692C205.838 527.425 206.02 527.1 206.148 526.716C206.286 526.321 206.356 525.873 206.356 525.372C206.356 524.871 206.286 524.428 206.148 524.044C206.02 523.649 205.838 523.319 205.604 523.052C205.369 522.785 205.092 522.583 204.772 522.444C204.462 522.305 204.132 522.236 203.78 522.236C203.428 522.236 203.092 522.305 202.772 522.444C202.462 522.583 202.19 522.785 201.956 523.052C201.721 523.319 201.534 523.649 201.396 524.044C201.268 524.428 201.204 524.871 201.204 525.372ZM199.764 525.372C199.764 524.764 199.849 524.199 200.02 523.676C200.19 523.143 200.446 522.684 200.788 522.3C201.129 521.905 201.55 521.596 202.052 521.372C202.553 521.148 203.129 521.036 203.78 521.036C204.441 521.036 205.017 521.148 205.508 521.372C206.009 521.596 206.43 521.905 206.772 522.3C207.113 522.684 207.369 523.143 207.54 523.676C207.71 524.199 207.796 524.764 207.796 525.372C207.796 525.98 207.71 526.545 207.54 527.068C207.369 527.591 207.113 528.049 206.772 528.444C206.43 528.828 206.009 529.132 205.508 529.356C205.017 529.569 204.441 529.676 203.78 529.676C203.129 529.676 202.553 529.569 202.052 529.356C201.55 529.132 201.129 528.828 200.788 528.444C200.446 528.049 200.19 527.591 200.02 527.068C199.849 526.545 199.764 525.98 199.764 525.372ZM215.015 523.884C214.908 523.361 214.684 522.956 214.343 522.668C214.002 522.38 213.543 522.236 212.967 522.236C212.476 522.236 212.066 522.327 211.735 522.508C211.404 522.689 211.138 522.929 210.935 523.228C210.743 523.527 210.604 523.873 210.519 524.268C210.434 524.652 210.391 525.052 210.391 525.468C210.391 525.852 210.434 526.225 210.519 526.588C210.615 526.951 210.759 527.276 210.951 527.564C211.143 527.841 211.394 528.065 211.703 528.236C212.012 528.407 212.38 528.492 212.807 528.492C213.479 528.492 214.002 528.316 214.375 527.964C214.759 527.612 214.994 527.116 215.079 526.476H216.471C216.322 527.5 215.938 528.289 215.319 528.844C214.711 529.399 213.879 529.676 212.823 529.676C212.194 529.676 211.634 529.575 211.143 529.372C210.663 529.169 210.258 528.881 209.927 528.508C209.607 528.135 209.362 527.692 209.191 527.18C209.031 526.657 208.951 526.087 208.951 525.468C208.951 524.849 209.031 524.273 209.191 523.74C209.351 523.196 209.591 522.727 209.911 522.332C210.242 521.927 210.652 521.612 211.143 521.388C211.634 521.153 212.204 521.036 212.855 521.036C213.324 521.036 213.762 521.095 214.167 521.212C214.583 521.319 214.946 521.489 215.255 521.724C215.575 521.959 215.836 522.257 216.039 522.62C216.242 522.972 216.37 523.393 216.423 523.884H215.015ZM224.841 529.5H223.561V528.188H223.529C223.241 528.7 222.873 529.079 222.425 529.324C221.977 529.559 221.449 529.676 220.841 529.676C220.297 529.676 219.843 529.607 219.481 529.468C219.118 529.319 218.825 529.111 218.601 528.844C218.377 528.577 218.217 528.263 218.121 527.9C218.035 527.527 217.993 527.116 217.993 526.668V521.228H219.353V526.828C219.353 527.34 219.502 527.745 219.801 528.044C220.099 528.343 220.51 528.492 221.033 528.492C221.449 528.492 221.806 528.428 222.105 528.3C222.414 528.172 222.67 527.991 222.873 527.756C223.075 527.521 223.225 527.249 223.321 526.94C223.427 526.62 223.481 526.273 223.481 525.9V521.228H224.841V529.5ZM227.715 526.892C227.726 527.191 227.795 527.447 227.923 527.66C228.051 527.863 228.217 528.028 228.419 528.156C228.633 528.273 228.867 528.359 229.123 528.412C229.39 528.465 229.662 528.492 229.939 528.492C230.153 528.492 230.377 528.476 230.611 528.444C230.846 528.412 231.059 528.353 231.251 528.268C231.454 528.183 231.619 528.06 231.747 527.9C231.875 527.729 231.939 527.516 231.939 527.26C231.939 526.908 231.806 526.641 231.539 526.46C231.273 526.279 230.937 526.135 230.531 526.028C230.137 525.911 229.705 525.809 229.235 525.724C228.766 525.628 228.329 525.5 227.923 525.34C227.529 525.169 227.198 524.935 226.931 524.636C226.665 524.337 226.531 523.921 226.531 523.388C226.531 522.972 226.622 522.615 226.803 522.316C226.995 522.017 227.235 521.777 227.523 521.596C227.822 521.404 228.153 521.265 228.515 521.18C228.889 521.084 229.257 521.036 229.619 521.036C230.089 521.036 230.521 521.079 230.915 521.164C231.31 521.239 231.657 521.377 231.955 521.58C232.265 521.772 232.51 522.039 232.691 522.38C232.873 522.711 232.979 523.127 233.011 523.628H231.651C231.63 523.361 231.561 523.143 231.443 522.972C231.326 522.791 231.177 522.647 230.995 522.54C230.814 522.433 230.611 522.359 230.387 522.316C230.174 522.263 229.955 522.236 229.731 522.236C229.529 522.236 229.321 522.252 229.107 522.284C228.905 522.316 228.718 522.375 228.547 522.46C228.377 522.535 228.238 522.641 228.131 522.78C228.025 522.908 227.971 523.079 227.971 523.292C227.971 523.527 228.051 523.724 228.211 523.884C228.382 524.033 228.595 524.161 228.851 524.268C229.107 524.364 229.395 524.449 229.715 524.524C230.035 524.588 230.355 524.657 230.675 524.732C231.017 524.807 231.347 524.897 231.667 525.004C231.998 525.111 232.286 525.255 232.531 525.436C232.787 525.607 232.99 525.825 233.139 526.092C233.299 526.359 233.379 526.689 233.379 527.084C233.379 527.585 233.273 528.001 233.059 528.332C232.857 528.663 232.585 528.929 232.243 529.132C231.913 529.335 231.534 529.473 231.107 529.548C230.691 529.633 230.275 529.676 229.859 529.676C229.401 529.676 228.963 529.628 228.547 529.532C228.131 529.436 227.763 529.281 227.443 529.068C227.123 528.844 226.867 528.556 226.675 528.204C226.483 527.841 226.377 527.404 226.355 526.892H227.715Z" fill="black" fill-opacity="0.68"/>
<mask id="path-22-outside-5_60056_7448" maskUnits="userSpaceOnUse" x="321" y="503" width="95" height="42" fill="black">
<rect fill="white" x="321" y="503" width="95" height="42"/>
<path d="M326 524C326 515.163 333.163 508 342 508H395C403.837 508 411 515.163 411 524C411 532.837 403.837 540 395 540H342C333.163 540 326 532.837 326 524Z"/>
</mask>
<path d="M342 508V513H395V508V503H342V508ZM395 540V535H342V540V545H395V540ZM342 540V535C335.925 535 331 530.075 331 524H326H321C321 535.598 330.402 545 342 545V540ZM411 524H406C406 530.075 401.075 535 395 535V540V545C406.598 545 416 535.598 416 524H411ZM395 508V513C401.075 513 406 517.925 406 524H411H416C416 512.402 406.598 503 395 503V508ZM342 508V503C330.402 503 321 512.402 321 524H326H331C331 517.925 335.925 513 342 513V508Z" fill="black" mask="url(#path-22-outside-5_60056_7448)"/>
<mask id="path-24-outside-6_60056_7448" maskUnits="userSpaceOnUse" x="324" y="506" width="89" height="36" fill="black">
<rect fill="white" x="324" y="506" width="89" height="36"/>
<path d="M326 524C326 515.163 333.163 508 342 508H395C403.837 508 411 515.163 411 524C411 532.837 403.837 540 395 540H342C333.163 540 326 532.837 326 524Z"/>
</mask>
<path d="M342 508V510H395V508V506H342V508ZM395 540V538H342V540V542H395V540ZM342 540V538C334.268 538 328 531.732 328 524H326H324C324 533.941 332.059 542 342 542V540ZM411 524H409C409 531.732 402.732 538 395 538V540V542C404.941 542 413 533.941 413 524H411ZM395 508V510C402.732 510 409 516.268 409 524H411H413C413 514.059 404.941 506 395 506V508ZM342 508V506C332.059 506 324 514.059 324 524H326H328C328 516.268 334.268 510 342 510V508Z" fill="white" mask="url(#path-24-outside-6_60056_7448)"/>
<mask id="path-26-inside-7_60056_7448" fill="white">
<path d="M326 524C326 515.163 333.163 508 342 508H395C403.837 508 411 515.163 411 524C411 532.837 403.837 540 395 540H342C333.163 540 326 532.837 326 524Z"/>
</mask>
<path d="M342 508V510H395V508V506H342V508ZM395 540V538H342V540V542H395V540ZM342 540V538C334.268 538 328 531.732 328 524H326H324C324 533.941 332.059 542 342 542V540ZM411 524H409C409 531.732 402.732 538 395 538V540V542C404.941 542 413 533.941 413 524H411ZM395 508V510C402.732 510 409 516.268 409 524H411H413C413 514.059 404.941 506 395 506V508ZM342 508V506C332.059 506 324 514.059 324 524H326H328C328 516.268 334.268 510 342 510V508Z" fill="black" fill-opacity="0.68" mask="url(#path-26-inside-7_60056_7448)"/>
<path fill-rule="evenodd" clip-rule="evenodd" d="M348.267 523.495L344 528.164L339.734 523.495L339.731 523.492C338.905 522.586 338.979 521.19 339.896 520.373C340.78 519.587 342.132 519.621 342.973 520.452C342.975 520.455 342.977 520.457 342.979 520.459L343.632 521.072L344 521.422L344.368 521.072L345.021 520.459C345.023 520.457 345.025 520.455 345.027 520.452C345.446 520.037 346.015 519.804 346.608 519.806C347.842 519.806 348.843 520.794 348.843 522.014C348.843 522.56 348.639 523.087 348.269 523.492L348.267 523.495ZM349.242 519.411C347.796 517.982 345.457 517.974 344 519.386C342.543 517.974 340.204 517.982 338.758 519.411C337.327 520.825 337.303 523.104 338.688 524.546L344 530.333L349.312 524.546C350.697 523.104 350.673 520.825 349.242 519.411Z" fill="black" fill-opacity="0.68"/>
<path d="M359.447 519.004H361.197V527.488H366.279V529H359.447V519.004ZM373.499 527.39C373.499 527.586 373.523 527.726 373.569 527.81C373.625 527.894 373.728 527.936 373.877 527.936C373.924 527.936 373.98 527.936 374.045 527.936C374.111 527.936 374.185 527.927 374.269 527.908V529.014C374.213 529.033 374.139 529.051 374.045 529.07C373.961 529.098 373.873 529.121 373.779 529.14C373.686 529.159 373.593 529.173 373.499 529.182C373.406 529.191 373.327 529.196 373.261 529.196C372.935 529.196 372.664 529.131 372.449 529C372.235 528.869 372.095 528.641 372.029 528.314C371.712 528.622 371.32 528.846 370.853 528.986C370.396 529.126 369.953 529.196 369.523 529.196C369.197 529.196 368.884 529.149 368.585 529.056C368.287 528.972 368.021 528.846 367.787 528.678C367.563 528.501 367.381 528.281 367.241 528.02C367.111 527.749 367.045 527.437 367.045 527.082C367.045 526.634 367.125 526.27 367.283 525.99C367.451 525.71 367.666 525.491 367.927 525.332C368.198 525.173 368.497 525.061 368.823 524.996C369.159 524.921 369.495 524.865 369.831 524.828C370.121 524.772 370.396 524.735 370.657 524.716C370.919 524.688 371.147 524.646 371.343 524.59C371.549 524.534 371.707 524.45 371.819 524.338C371.941 524.217 372.001 524.039 372.001 523.806C372.001 523.601 371.95 523.433 371.847 523.302C371.754 523.171 371.633 523.073 371.483 523.008C371.343 522.933 371.185 522.887 371.007 522.868C370.83 522.84 370.662 522.826 370.503 522.826C370.055 522.826 369.687 522.919 369.397 523.106C369.108 523.293 368.945 523.582 368.907 523.974H367.311C367.339 523.507 367.451 523.12 367.647 522.812C367.843 522.504 368.091 522.257 368.389 522.07C368.697 521.883 369.043 521.753 369.425 521.678C369.808 521.603 370.2 521.566 370.601 521.566C370.956 521.566 371.306 521.603 371.651 521.678C371.997 521.753 372.305 521.874 372.575 522.042C372.855 522.21 373.079 522.429 373.247 522.7C373.415 522.961 373.499 523.283 373.499 523.666V527.39ZM371.903 525.374C371.661 525.533 371.362 525.631 371.007 525.668C370.653 525.696 370.298 525.743 369.943 525.808C369.775 525.836 369.612 525.878 369.453 525.934C369.295 525.981 369.155 526.051 369.033 526.144C368.912 526.228 368.814 526.345 368.739 526.494C368.674 526.634 368.641 526.807 368.641 527.012C368.641 527.189 368.693 527.339 368.795 527.46C368.898 527.581 369.019 527.679 369.159 527.754C369.309 527.819 369.467 527.866 369.635 527.894C369.813 527.922 369.971 527.936 370.111 527.936C370.289 527.936 370.48 527.913 370.685 527.866C370.891 527.819 371.082 527.74 371.259 527.628C371.446 527.516 371.6 527.376 371.721 527.208C371.843 527.031 371.903 526.816 371.903 526.564V525.374ZM375.434 519.004H377.03V522.7H377.058C377.17 522.523 377.305 522.364 377.464 522.224C377.622 522.084 377.795 521.967 377.982 521.874C378.178 521.771 378.378 521.697 378.584 521.65C378.798 521.594 379.008 521.566 379.214 521.566C379.783 521.566 380.278 521.669 380.698 521.874C381.127 522.07 381.482 522.345 381.762 522.7C382.042 523.045 382.252 523.451 382.392 523.918C382.532 524.385 382.602 524.884 382.602 525.416C382.602 525.901 382.536 526.373 382.406 526.83C382.284 527.287 382.093 527.693 381.832 528.048C381.58 528.393 381.258 528.673 380.866 528.888C380.474 529.093 380.012 529.196 379.48 529.196C379.237 529.196 378.99 529.177 378.738 529.14C378.495 529.112 378.262 529.051 378.038 528.958C377.814 528.865 377.608 528.743 377.422 528.594C377.244 528.445 377.095 528.249 376.974 528.006H376.946V529H375.434V519.004ZM381.006 525.388C381.006 525.061 380.964 524.744 380.88 524.436C380.796 524.128 380.67 523.857 380.502 523.624C380.334 523.381 380.124 523.19 379.872 523.05C379.62 522.901 379.33 522.826 379.004 522.826C378.332 522.826 377.823 523.059 377.478 523.526C377.142 523.993 376.974 524.613 376.974 525.388C376.974 525.752 377.016 526.093 377.1 526.41C377.193 526.718 377.328 526.984 377.506 527.208C377.683 527.432 377.893 527.609 378.136 527.74C378.388 527.871 378.677 527.936 379.004 527.936C379.368 527.936 379.676 527.861 379.928 527.712C380.18 527.563 380.385 527.371 380.544 527.138C380.712 526.895 380.828 526.625 380.894 526.326C380.968 526.018 381.006 525.705 381.006 525.388ZM389.095 524.744C389.077 524.492 389.021 524.249 388.927 524.016C388.843 523.783 388.722 523.582 388.563 523.414C388.414 523.237 388.227 523.097 388.003 522.994C387.789 522.882 387.546 522.826 387.275 522.826C386.995 522.826 386.739 522.877 386.505 522.98C386.281 523.073 386.085 523.209 385.917 523.386C385.759 523.554 385.628 523.755 385.525 523.988C385.432 524.221 385.381 524.473 385.371 524.744H389.095ZM385.371 525.794C385.371 526.074 385.409 526.345 385.483 526.606C385.567 526.867 385.689 527.096 385.847 527.292C386.006 527.488 386.207 527.647 386.449 527.768C386.692 527.88 386.981 527.936 387.317 527.936C387.784 527.936 388.157 527.838 388.437 527.642C388.727 527.437 388.941 527.133 389.081 526.732H390.593C390.509 527.124 390.365 527.474 390.159 527.782C389.954 528.09 389.707 528.351 389.417 528.566C389.128 528.771 388.801 528.925 388.437 529.028C388.083 529.14 387.709 529.196 387.317 529.196C386.748 529.196 386.244 529.103 385.805 528.916C385.367 528.729 384.993 528.468 384.685 528.132C384.387 527.796 384.158 527.395 383.999 526.928C383.85 526.461 383.775 525.948 383.775 525.388C383.775 524.875 383.855 524.389 384.013 523.932C384.181 523.465 384.415 523.059 384.713 522.714C385.021 522.359 385.39 522.079 385.819 521.874C386.249 521.669 386.734 521.566 387.275 521.566C387.845 521.566 388.353 521.687 388.801 521.93C389.259 522.163 389.637 522.476 389.935 522.868C390.234 523.26 390.449 523.713 390.579 524.226C390.719 524.73 390.757 525.253 390.691 525.794H385.371ZM392.122 519.004H393.718V529H392.122V519.004Z" fill="black" fill-opacity="0.68"/>
<path d="M197.856 629.42C197.771 628.599 197.472 628.007 196.96 627.644C196.459 627.271 195.813 627.084 195.024 627.084C194.704 627.084 194.389 627.116 194.08 627.18C193.771 627.244 193.493 627.351 193.248 627.5C193.013 627.649 192.821 627.852 192.672 628.108C192.533 628.353 192.464 628.663 192.464 629.036C192.464 629.388 192.565 629.676 192.768 629.9C192.981 630.113 193.259 630.289 193.6 630.428C193.952 630.567 194.347 630.684 194.784 630.78C195.221 630.865 195.664 630.961 196.112 631.068C196.571 631.175 197.019 631.303 197.456 631.452C197.893 631.591 198.283 631.783 198.624 632.028C198.976 632.273 199.253 632.583 199.456 632.956C199.669 633.329 199.776 633.799 199.776 634.364C199.776 634.972 199.637 635.495 199.36 635.932C199.093 636.359 198.747 636.711 198.32 636.988C197.893 637.255 197.413 637.447 196.88 637.564C196.357 637.692 195.835 637.756 195.312 637.756C194.672 637.756 194.064 637.676 193.488 637.516C192.923 637.356 192.421 637.116 191.984 636.796C191.557 636.465 191.216 636.049 190.96 635.548C190.715 635.036 190.592 634.433 190.592 633.74H192.032C192.032 634.22 192.123 634.636 192.304 634.988C192.496 635.329 192.741 635.612 193.04 635.836C193.349 636.06 193.707 636.225 194.112 636.332C194.517 636.439 194.933 636.492 195.36 636.492C195.701 636.492 196.043 636.46 196.384 636.396C196.736 636.332 197.051 636.225 197.328 636.076C197.605 635.916 197.829 635.703 198 635.436C198.171 635.169 198.256 634.828 198.256 634.412C198.256 634.017 198.149 633.697 197.936 633.452C197.733 633.207 197.456 633.009 197.104 632.86C196.763 632.7 196.373 632.572 195.936 632.476C195.499 632.38 195.051 632.284 194.592 632.188C194.144 632.081 193.701 631.964 193.264 631.836C192.827 631.697 192.432 631.521 192.08 631.308C191.739 631.084 191.461 630.801 191.248 630.46C191.045 630.108 190.944 629.671 190.944 629.148C190.944 628.572 191.061 628.076 191.296 627.66C191.531 627.233 191.84 626.887 192.224 626.62C192.619 626.343 193.061 626.14 193.552 626.012C194.053 625.873 194.565 625.804 195.088 625.804C195.675 625.804 196.219 625.873 196.72 626.012C197.221 626.151 197.659 626.369 198.032 626.668C198.416 626.967 198.715 627.345 198.928 627.804C199.152 628.252 199.275 628.791 199.296 629.42H197.856ZM201.479 626.076H202.839V632.844L206.615 629.228H208.439L205.159 632.236L208.679 637.5H206.951L204.119 633.18L202.839 634.364V637.5H201.479V626.076ZM215.44 632.572C215.419 632.252 215.344 631.948 215.216 631.66C215.099 631.372 214.933 631.127 214.72 630.924C214.517 630.711 214.272 630.545 213.984 630.428C213.707 630.3 213.397 630.236 213.056 630.236C212.704 630.236 212.384 630.3 212.096 630.428C211.819 630.545 211.579 630.711 211.376 630.924C211.173 631.137 211.013 631.388 210.896 631.676C210.779 631.953 210.709 632.252 210.688 632.572H215.44ZM216.752 634.876C216.571 635.804 216.171 636.503 215.552 636.972C214.933 637.441 214.155 637.676 213.216 637.676C212.555 637.676 211.979 637.569 211.488 637.356C211.008 637.143 210.603 636.844 210.272 636.46C209.941 636.076 209.691 635.617 209.52 635.084C209.36 634.551 209.269 633.969 209.248 633.34C209.248 632.711 209.344 632.135 209.536 631.612C209.728 631.089 209.995 630.636 210.336 630.252C210.688 629.868 211.099 629.569 211.568 629.356C212.048 629.143 212.571 629.036 213.136 629.036C213.872 629.036 214.48 629.191 214.96 629.5C215.451 629.799 215.84 630.183 216.128 630.652C216.427 631.121 216.629 631.633 216.736 632.188C216.853 632.743 216.901 633.271 216.88 633.772H210.688C210.677 634.135 210.72 634.481 210.816 634.812C210.912 635.132 211.067 635.42 211.28 635.676C211.493 635.921 211.765 636.119 212.096 636.268C212.427 636.417 212.816 636.492 213.264 636.492C213.84 636.492 214.309 636.359 214.672 636.092C215.045 635.825 215.291 635.42 215.408 634.876H216.752ZM218.37 626.076H219.73V637.5H218.37V626.076ZM227.581 632.572C227.559 632.252 227.485 631.948 227.357 631.66C227.239 631.372 227.074 631.127 226.861 630.924C226.658 630.711 226.413 630.545 226.125 630.428C225.847 630.3 225.538 630.236 225.197 630.236C224.845 630.236 224.525 630.3 224.237 630.428C223.959 630.545 223.719 630.711 223.517 630.924C223.314 631.137 223.154 631.388 223.037 631.676C222.919 631.953 222.85 632.252 222.829 632.572H227.581ZM228.892 634.876C228.711 635.804 228.311 636.503 227.693 636.972C227.074 637.441 226.295 637.676 225.357 637.676C224.695 637.676 224.119 637.569 223.629 637.356C223.149 637.143 222.743 636.844 222.413 636.46C222.082 636.076 221.831 635.617 221.661 635.084C221.501 634.551 221.41 633.969 221.389 633.34C221.389 632.711 221.485 632.135 221.677 631.612C221.869 631.089 222.135 630.636 222.477 630.252C222.829 629.868 223.239 629.569 223.709 629.356C224.189 629.143 224.711 629.036 225.277 629.036C226.013 629.036 226.621 629.191 227.101 629.5C227.591 629.799 227.981 630.183 228.269 630.652C228.567 631.121 228.77 631.633 228.877 632.188C228.994 632.743 229.042 633.271 229.021 633.772H222.829C222.818 634.135 222.861 634.481 222.957 634.812C223.053 635.132 223.207 635.42 223.421 635.676C223.634 635.921 223.906 636.119 224.237 636.268C224.567 636.417 224.957 636.492 225.405 636.492C225.981 636.492 226.45 636.359 226.813 636.092C227.186 635.825 227.431 635.42 227.549 634.876H228.892ZM232.318 629.228H233.966V630.428H232.318V635.564C232.318 635.724 232.329 635.852 232.35 635.948C232.382 636.044 232.436 636.119 232.51 636.172C232.585 636.225 232.686 636.263 232.814 636.284C232.953 636.295 233.129 636.3 233.342 636.3H233.966V637.5H232.926C232.574 637.5 232.27 637.479 232.014 637.436C231.769 637.383 231.566 637.292 231.406 637.164C231.257 637.036 231.145 636.855 231.07 636.62C230.996 636.385 230.958 636.076 230.958 635.692V630.428H229.55V629.228H230.958V626.748H232.318V629.228ZM236.469 633.372C236.469 633.873 236.533 634.321 236.661 634.716C236.8 635.1 236.986 635.425 237.221 635.692C237.456 635.948 237.728 636.145 238.037 636.284C238.357 636.423 238.693 636.492 239.045 636.492C239.397 636.492 239.728 636.423 240.037 636.284C240.357 636.145 240.634 635.948 240.869 635.692C241.104 635.425 241.285 635.1 241.413 634.716C241.552 634.321 241.621 633.873 241.621 633.372C241.621 632.871 241.552 632.428 241.413 632.044C241.285 631.649 241.104 631.319 240.869 631.052C240.634 630.785 240.357 630.583 240.037 630.444C239.728 630.305 239.397 630.236 239.045 630.236C238.693 630.236 238.357 630.305 238.037 630.444C237.728 630.583 237.456 630.785 237.221 631.052C236.986 631.319 236.8 631.649 236.661 632.044C236.533 632.428 236.469 632.871 236.469 633.372ZM235.029 633.372C235.029 632.764 235.114 632.199 235.285 631.676C235.456 631.143 235.712 630.684 236.053 630.3C236.394 629.905 236.816 629.596 237.317 629.372C237.818 629.148 238.394 629.036 239.045 629.036C239.706 629.036 240.282 629.148 240.773 629.372C241.274 629.596 241.696 629.905 242.037 630.3C242.378 630.684 242.634 631.143 242.805 631.676C242.976 632.199 243.061 632.764 243.061 633.372C243.061 633.98 242.976 634.545 242.805 635.068C242.634 635.591 242.378 636.049 242.037 636.444C241.696 636.828 241.274 637.132 240.773 637.356C240.282 637.569 239.706 637.676 239.045 637.676C238.394 637.676 237.818 637.569 237.317 637.356C236.816 637.132 236.394 636.828 236.053 636.444C235.712 636.049 235.456 635.591 235.285 635.068C235.114 634.545 235.029 633.98 235.029 633.372ZM244.665 629.228H245.945V630.54H245.977C246.542 629.537 247.438 629.036 248.665 629.036C249.209 629.036 249.662 629.111 250.025 629.26C250.387 629.409 250.681 629.617 250.905 629.884C251.129 630.151 251.283 630.471 251.369 630.844C251.465 631.207 251.513 631.612 251.513 632.06V637.5H250.153V631.9C250.153 631.388 250.003 630.983 249.705 630.684C249.406 630.385 248.995 630.236 248.473 630.236C248.057 630.236 247.694 630.3 247.385 630.428C247.086 630.556 246.835 630.737 246.633 630.972C246.43 631.207 246.275 631.484 246.169 631.804C246.073 632.113 246.025 632.455 246.025 632.828V637.5H244.665V629.228Z" fill="black" fill-opacity="0.68"/>
<g clip-path="url(#clip0_60056_7448)">
<g clip-path="url(#clip1_60056_7448)">
<rect width="85" height="32" transform="translate(326 616)" fill="black" fill-opacity="0.04"/>
</g>
</g>
<defs>
<clipPath id="clip0_60056_7448">
<path d="M326 632C326 623.163 333.163 616 342 616H395C403.837 616 411 623.163 411 632C411 640.837 403.837 648 395 648H342C333.163 648 326 640.837 326 632Z" fill="white"/>
</clipPath>
<clipPath id="clip1_60056_7448">
<rect width="85" height="32" fill="white" transform="translate(326 616)"/>
</clipPath>
</defs>
</svg>
