<svg width="600" height="380" viewBox="0 0 600 380" fill="none" xmlns="http://www.w3.org/2000/svg">
<rect width="600" height="380" fill="black" fill-opacity="0.04"/>
<path d="M101.248 122.076H108.752V123.356H102.768V126.988H108.016V128.268H102.768V133.5H101.248V122.076ZM117.54 133.468C117.305 133.607 116.98 133.676 116.564 133.676C116.212 133.676 115.929 133.58 115.716 133.388C115.513 133.185 115.412 132.86 115.412 132.412C115.038 132.86 114.601 133.185 114.1 133.388C113.609 133.58 113.076 133.676 112.5 133.676C112.126 133.676 111.769 133.633 111.428 133.548C111.097 133.463 110.809 133.329 110.564 133.148C110.318 132.967 110.121 132.732 109.972 132.444C109.833 132.145 109.764 131.788 109.764 131.372C109.764 130.903 109.844 130.519 110.004 130.22C110.164 129.921 110.372 129.681 110.628 129.5C110.894 129.308 111.193 129.164 111.524 129.068C111.865 128.972 112.212 128.892 112.564 128.828C112.937 128.753 113.289 128.7 113.62 128.668C113.961 128.625 114.26 128.572 114.516 128.508C114.772 128.433 114.974 128.332 115.124 128.204C115.273 128.065 115.348 127.868 115.348 127.612C115.348 127.313 115.289 127.073 115.172 126.892C115.065 126.711 114.921 126.572 114.74 126.476C114.569 126.38 114.372 126.316 114.148 126.284C113.934 126.252 113.721 126.236 113.508 126.236C112.932 126.236 112.452 126.348 112.068 126.572C111.684 126.785 111.476 127.196 111.444 127.804H110.084C110.105 127.292 110.212 126.86 110.404 126.508C110.596 126.156 110.852 125.873 111.172 125.66C111.492 125.436 111.854 125.276 112.26 125.18C112.676 125.084 113.118 125.036 113.588 125.036C113.961 125.036 114.329 125.063 114.692 125.116C115.065 125.169 115.401 125.281 115.7 125.452C115.998 125.612 116.238 125.841 116.42 126.14C116.601 126.439 116.692 126.828 116.692 127.308V131.564C116.692 131.884 116.708 132.119 116.74 132.268C116.782 132.417 116.91 132.492 117.124 132.492C117.241 132.492 117.38 132.465 117.54 132.412V133.468ZM115.332 129.228C115.161 129.356 114.937 129.452 114.66 129.516C114.382 129.569 114.089 129.617 113.78 129.66C113.481 129.692 113.177 129.735 112.868 129.788C112.558 129.831 112.281 129.905 112.036 130.012C111.79 130.119 111.588 130.273 111.428 130.476C111.278 130.668 111.204 130.935 111.204 131.276C111.204 131.5 111.246 131.692 111.332 131.852C111.428 132.001 111.545 132.124 111.684 132.22C111.833 132.316 112.004 132.385 112.196 132.428C112.388 132.471 112.59 132.492 112.804 132.492C113.252 132.492 113.636 132.433 113.956 132.316C114.276 132.188 114.537 132.033 114.74 131.852C114.942 131.66 115.092 131.457 115.188 131.244C115.284 131.02 115.332 130.812 115.332 130.62V129.228ZM118.885 122.076H120.245V133.5H118.885V122.076ZM123.184 130.892C123.195 131.191 123.264 131.447 123.392 131.66C123.52 131.863 123.685 132.028 123.888 132.156C124.101 132.273 124.336 132.359 124.592 132.412C124.859 132.465 125.131 132.492 125.408 132.492C125.621 132.492 125.845 132.476 126.08 132.444C126.315 132.412 126.528 132.353 126.72 132.268C126.923 132.183 127.088 132.06 127.216 131.9C127.344 131.729 127.408 131.516 127.408 131.26C127.408 130.908 127.275 130.641 127.008 130.46C126.741 130.279 126.405 130.135 126 130.028C125.605 129.911 125.173 129.809 124.704 129.724C124.235 129.628 123.797 129.5 123.392 129.34C122.997 129.169 122.667 128.935 122.4 128.636C122.133 128.337 122 127.921 122 127.388C122 126.972 122.091 126.615 122.272 126.316C122.464 126.017 122.704 125.777 122.992 125.596C123.291 125.404 123.621 125.265 123.984 125.18C124.357 125.084 124.725 125.036 125.088 125.036C125.557 125.036 125.989 125.079 126.384 125.164C126.779 125.239 127.125 125.377 127.424 125.58C127.733 125.772 127.979 126.039 128.16 126.38C128.341 126.711 128.448 127.127 128.48 127.628H127.12C127.099 127.361 127.029 127.143 126.912 126.972C126.795 126.791 126.645 126.647 126.464 126.54C126.283 126.433 126.08 126.359 125.856 126.316C125.643 126.263 125.424 126.236 125.2 126.236C124.997 126.236 124.789 126.252 124.576 126.284C124.373 126.316 124.187 126.375 124.016 126.46C123.845 126.535 123.707 126.641 123.6 126.78C123.493 126.908 123.44 127.079 123.44 127.292C123.44 127.527 123.52 127.724 123.68 127.884C123.851 128.033 124.064 128.161 124.32 128.268C124.576 128.364 124.864 128.449 125.184 128.524C125.504 128.588 125.824 128.657 126.144 128.732C126.485 128.807 126.816 128.897 127.136 129.004C127.467 129.111 127.755 129.255 128 129.436C128.256 129.607 128.459 129.825 128.608 130.092C128.768 130.359 128.848 130.689 128.848 131.084C128.848 131.585 128.741 132.001 128.528 132.332C128.325 132.663 128.053 132.929 127.712 133.132C127.381 133.335 127.003 133.473 126.576 133.548C126.16 133.633 125.744 133.676 125.328 133.676C124.869 133.676 124.432 133.628 124.016 133.532C123.6 133.436 123.232 133.281 122.912 133.068C122.592 132.844 122.336 132.556 122.144 132.204C121.952 131.841 121.845 131.404 121.824 130.892H123.184ZM136.096 128.572C136.075 128.252 136 127.948 135.872 127.66C135.755 127.372 135.589 127.127 135.376 126.924C135.173 126.711 134.928 126.545 134.64 126.428C134.363 126.3 134.053 126.236 133.712 126.236C133.36 126.236 133.04 126.3 132.752 126.428C132.475 126.545 132.235 126.711 132.032 126.924C131.829 127.137 131.669 127.388 131.552 127.676C131.435 127.953 131.365 128.252 131.344 128.572H136.096ZM137.408 130.876C137.227 131.804 136.827 132.503 136.208 132.972C135.589 133.441 134.811 133.676 133.872 133.676C133.211 133.676 132.635 133.569 132.144 133.356C131.664 133.143 131.259 132.844 130.928 132.46C130.597 132.076 130.347 131.617 130.176 131.084C130.016 130.551 129.925 129.969 129.904 129.34C129.904 128.711 130 128.135 130.192 127.612C130.384 127.089 130.651 126.636 130.992 126.252C131.344 125.868 131.755 125.569 132.224 125.356C132.704 125.143 133.227 125.036 133.792 125.036C134.528 125.036 135.136 125.191 135.616 125.5C136.107 125.799 136.496 126.183 136.784 126.652C137.083 127.121 137.285 127.633 137.392 128.188C137.509 128.743 137.557 129.271 137.536 129.772H131.344C131.333 130.135 131.376 130.481 131.472 130.812C131.568 131.132 131.723 131.42 131.936 131.676C132.149 131.921 132.421 132.119 132.752 132.268C133.083 132.417 133.472 132.492 133.92 132.492C134.496 132.492 134.965 132.359 135.328 132.092C135.701 131.825 135.947 131.42 136.064 130.876H137.408Z" fill="black" fill-opacity="0.68"/>
<path d="M293.248 122.576H294.768V132.72H300.816V134H293.248V122.576ZM309.443 133.968C309.208 134.107 308.883 134.176 308.467 134.176C308.115 134.176 307.832 134.08 307.619 133.888C307.416 133.685 307.315 133.36 307.315 132.912C306.941 133.36 306.504 133.685 306.003 133.888C305.512 134.08 304.979 134.176 304.403 134.176C304.029 134.176 303.672 134.133 303.331 134.048C303 133.963 302.712 133.829 302.467 133.648C302.221 133.467 302.024 133.232 301.875 132.944C301.736 132.645 301.667 132.288 301.667 131.872C301.667 131.403 301.747 131.019 301.907 130.72C302.067 130.421 302.275 130.181 302.531 130C302.797 129.808 303.096 129.664 303.427 129.568C303.768 129.472 304.115 129.392 304.467 129.328C304.84 129.253 305.192 129.2 305.523 129.168C305.864 129.125 306.163 129.072 306.419 129.008C306.675 128.933 306.877 128.832 307.027 128.704C307.176 128.565 307.251 128.368 307.251 128.112C307.251 127.813 307.192 127.573 307.075 127.392C306.968 127.211 306.824 127.072 306.643 126.976C306.472 126.88 306.275 126.816 306.051 126.784C305.837 126.752 305.624 126.736 305.411 126.736C304.835 126.736 304.355 126.848 303.971 127.072C303.587 127.285 303.379 127.696 303.347 128.304H301.987C302.008 127.792 302.115 127.36 302.307 127.008C302.499 126.656 302.755 126.373 303.075 126.16C303.395 125.936 303.757 125.776 304.163 125.68C304.579 125.584 305.021 125.536 305.491 125.536C305.864 125.536 306.232 125.563 306.595 125.616C306.968 125.669 307.304 125.781 307.603 125.952C307.901 126.112 308.141 126.341 308.323 126.64C308.504 126.939 308.595 127.328 308.595 127.808V132.064C308.595 132.384 308.611 132.619 308.643 132.768C308.685 132.917 308.813 132.992 309.027 132.992C309.144 132.992 309.283 132.965 309.443 132.912V133.968ZM307.235 129.728C307.064 129.856 306.84 129.952 306.563 130.016C306.285 130.069 305.992 130.117 305.683 130.16C305.384 130.192 305.08 130.235 304.771 130.288C304.461 130.331 304.184 130.405 303.939 130.512C303.693 130.619 303.491 130.773 303.331 130.976C303.181 131.168 303.107 131.435 303.107 131.776C303.107 132 303.149 132.192 303.235 132.352C303.331 132.501 303.448 132.624 303.587 132.72C303.736 132.816 303.907 132.885 304.099 132.928C304.291 132.971 304.493 132.992 304.707 132.992C305.155 132.992 305.539 132.933 305.859 132.816C306.179 132.688 306.44 132.533 306.643 132.352C306.845 132.16 306.995 131.957 307.091 131.744C307.187 131.52 307.235 131.312 307.235 131.12V129.728ZM310.956 122.576H312.316V126.848H312.348C312.572 126.389 312.924 126.059 313.404 125.856C313.884 125.643 314.412 125.536 314.988 125.536C315.628 125.536 316.183 125.653 316.652 125.888C317.132 126.123 317.527 126.443 317.836 126.848C318.156 127.243 318.396 127.701 318.556 128.224C318.716 128.747 318.796 129.301 318.796 129.888C318.796 130.475 318.716 131.029 318.556 131.552C318.407 132.075 318.172 132.533 317.852 132.928C317.543 133.312 317.148 133.616 316.668 133.84C316.199 134.064 315.65 134.176 315.02 134.176C314.818 134.176 314.588 134.155 314.332 134.112C314.087 134.069 313.842 134 313.596 133.904C313.351 133.808 313.116 133.68 312.892 133.52C312.679 133.349 312.498 133.141 312.348 132.896H312.316V134H310.956V122.576ZM317.356 129.792C317.356 129.408 317.303 129.035 317.196 128.672C317.1 128.299 316.946 127.968 316.732 127.68C316.53 127.392 316.263 127.163 315.932 126.992C315.612 126.821 315.234 126.736 314.796 126.736C314.338 126.736 313.948 126.827 313.628 127.008C313.308 127.189 313.047 127.429 312.844 127.728C312.642 128.016 312.492 128.347 312.396 128.72C312.311 129.093 312.268 129.472 312.268 129.856C312.268 130.261 312.316 130.656 312.412 131.04C312.508 131.413 312.658 131.744 312.86 132.032C313.074 132.32 313.346 132.555 313.676 132.736C314.007 132.907 314.407 132.992 314.876 132.992C315.346 132.992 315.735 132.901 316.044 132.72C316.364 132.539 316.62 132.299 316.812 132C317.004 131.701 317.143 131.36 317.228 130.976C317.314 130.592 317.356 130.197 317.356 129.792ZM326.337 129.072C326.315 128.752 326.241 128.448 326.113 128.16C325.995 127.872 325.83 127.627 325.617 127.424C325.414 127.211 325.169 127.045 324.881 126.928C324.603 126.8 324.294 126.736 323.953 126.736C323.601 126.736 323.281 126.8 322.993 126.928C322.715 127.045 322.475 127.211 322.273 127.424C322.07 127.637 321.91 127.888 321.793 128.176C321.675 128.453 321.606 128.752 321.585 129.072H326.337ZM327.649 131.376C327.467 132.304 327.067 133.003 326.449 133.472C325.83 133.941 325.051 134.176 324.113 134.176C323.451 134.176 322.875 134.069 322.385 133.856C321.905 133.643 321.499 133.344 321.169 132.96C320.838 132.576 320.587 132.117 320.417 131.584C320.257 131.051 320.166 130.469 320.145 129.84C320.145 129.211 320.241 128.635 320.433 128.112C320.625 127.589 320.891 127.136 321.233 126.752C321.585 126.368 321.995 126.069 322.465 125.856C322.945 125.643 323.467 125.536 324.033 125.536C324.769 125.536 325.377 125.691 325.857 126C326.347 126.299 326.737 126.683 327.025 127.152C327.323 127.621 327.526 128.133 327.633 128.688C327.75 129.243 327.798 129.771 327.777 130.272H321.585C321.574 130.635 321.617 130.981 321.713 131.312C321.809 131.632 321.963 131.92 322.177 132.176C322.39 132.421 322.662 132.619 322.993 132.768C323.323 132.917 323.713 132.992 324.161 132.992C324.737 132.992 325.206 132.859 325.569 132.592C325.942 132.325 326.187 131.92 326.305 131.376H327.649ZM329.466 122.576H330.826V134H329.466V122.576Z" fill="black"/>
<path d="M428 128C428 119.163 435.163 112 444 112H468C476.837 112 484 119.163 484 128C484 136.837 476.837 144 468 144H444C435.163 144 428 136.837 428 128Z" fill="black" fill-opacity="0.44"/>
<g filter="url(#filter0_d_76465_12567)">
<g clip-path="url(#clip0_76465_12567)">
<path d="M436 128C436 123.582 439.582 120 444 120C448.418 120 452 123.582 452 128C452 132.418 448.418 136 444 136C439.582 136 436 132.418 436 128Z" fill="white"/>
</g>
</g>
<path d="M103.84 233.356H100.032V232.076H109.168V233.356H105.36V243.5H103.84V233.356ZM108.695 235.228H109.975V236.972H110.007C110.337 236.3 110.743 235.804 111.223 235.484C111.703 235.164 112.311 235.015 113.047 235.036V236.476C112.503 236.476 112.039 236.551 111.655 236.7C111.271 236.849 110.961 237.068 110.727 237.356C110.492 237.644 110.321 237.996 110.215 238.412C110.108 238.817 110.055 239.287 110.055 239.82V243.5H108.695V235.228ZM120.919 243.5H119.639V242.188H119.607C119.319 242.7 118.951 243.079 118.503 243.324C118.055 243.559 117.527 243.676 116.919 243.676C116.375 243.676 115.922 243.607 115.559 243.468C115.196 243.319 114.903 243.111 114.679 242.844C114.455 242.577 114.295 242.263 114.199 241.9C114.114 241.527 114.071 241.116 114.071 240.668V235.228H115.431V240.828C115.431 241.34 115.58 241.745 115.879 242.044C116.178 242.343 116.588 242.492 117.111 242.492C117.527 242.492 117.884 242.428 118.183 242.3C118.492 242.172 118.748 241.991 118.951 241.756C119.154 241.521 119.303 241.249 119.399 240.94C119.506 240.62 119.559 240.273 119.559 239.9V235.228H120.919V243.5ZM128.706 238.572C128.684 238.252 128.61 237.948 128.482 237.66C128.364 237.372 128.199 237.127 127.986 236.924C127.783 236.711 127.538 236.545 127.25 236.428C126.972 236.3 126.663 236.236 126.322 236.236C125.97 236.236 125.65 236.3 125.362 236.428C125.084 236.545 124.844 236.711 124.642 236.924C124.439 237.137 124.279 237.388 124.162 237.676C124.044 237.953 123.975 238.252 123.954 238.572H128.706ZM130.017 240.876C129.836 241.804 129.436 242.503 128.818 242.972C128.199 243.441 127.42 243.676 126.482 243.676C125.82 243.676 125.244 243.569 124.754 243.356C124.274 243.143 123.868 242.844 123.538 242.46C123.207 242.076 122.956 241.617 122.786 241.084C122.626 240.551 122.535 239.969 122.514 239.34C122.514 238.711 122.61 238.135 122.802 237.612C122.994 237.089 123.26 236.636 123.602 236.252C123.954 235.868 124.364 235.569 124.834 235.356C125.314 235.143 125.836 235.036 126.402 235.036C127.138 235.036 127.746 235.191 128.226 235.5C128.716 235.799 129.106 236.183 129.394 236.652C129.692 237.121 129.895 237.633 130.002 238.188C130.119 238.743 130.167 239.271 130.146 239.772H123.954C123.943 240.135 123.986 240.481 124.082 240.812C124.178 241.132 124.332 241.42 124.546 241.676C124.759 241.921 125.031 242.119 125.362 242.268C125.692 242.417 126.082 242.492 126.53 242.492C127.106 242.492 127.575 242.359 127.938 242.092C128.311 241.825 128.556 241.42 128.674 240.876H130.017Z" fill="black" fill-opacity="0.68"/>
<path d="M306 214.4C300.698 214.4 296.4 218.698 296.4 224C296.4 229.302 300.698 233.6 306 233.6C311.302 233.6 315.6 229.302 315.6 224C315.6 218.698 311.302 214.4 306 214.4ZM304.8 220.032C304.8 218.844 305.2 218.273 306 218.273C306.8 218.273 307.2 218.844 307.2 220.032V224.567C307.2 225.755 306.815 226.341 306 226.341C305.2 226.341 304.8 225.755 304.8 224.567V220.032ZM305.987 230.15C305.222 230.15 304.6 229.527 304.6 228.743C304.6 227.959 305.222 227.352 305.987 227.352C306.753 227.352 307.375 227.975 307.375 228.743C307.375 229.511 306.753 230.15 305.987 230.15Z" fill="#DB0002"/>
<path d="M333.248 218.576H334.768V228.72H340.816V230H333.248V218.576ZM349.443 229.968C349.208 230.107 348.883 230.176 348.467 230.176C348.115 230.176 347.832 230.08 347.619 229.888C347.416 229.685 347.315 229.36 347.315 228.912C346.941 229.36 346.504 229.685 346.003 229.888C345.512 230.08 344.979 230.176 344.403 230.176C344.029 230.176 343.672 230.133 343.331 230.048C343 229.963 342.712 229.829 342.467 229.648C342.221 229.467 342.024 229.232 341.875 228.944C341.736 228.645 341.667 228.288 341.667 227.872C341.667 227.403 341.747 227.019 341.907 226.72C342.067 226.421 342.275 226.181 342.531 226C342.797 225.808 343.096 225.664 343.427 225.568C343.768 225.472 344.115 225.392 344.467 225.328C344.84 225.253 345.192 225.2 345.523 225.168C345.864 225.125 346.163 225.072 346.419 225.008C346.675 224.933 346.877 224.832 347.027 224.704C347.176 224.565 347.251 224.368 347.251 224.112C347.251 223.813 347.192 223.573 347.075 223.392C346.968 223.211 346.824 223.072 346.643 222.976C346.472 222.88 346.275 222.816 346.051 222.784C345.837 222.752 345.624 222.736 345.411 222.736C344.835 222.736 344.355 222.848 343.971 223.072C343.587 223.285 343.379 223.696 343.347 224.304H341.987C342.008 223.792 342.115 223.36 342.307 223.008C342.499 222.656 342.755 222.373 343.075 222.16C343.395 221.936 343.757 221.776 344.163 221.68C344.579 221.584 345.021 221.536 345.491 221.536C345.864 221.536 346.232 221.563 346.595 221.616C346.968 221.669 347.304 221.781 347.603 221.952C347.901 222.112 348.141 222.341 348.323 222.64C348.504 222.939 348.595 223.328 348.595 223.808V228.064C348.595 228.384 348.611 228.619 348.643 228.768C348.685 228.917 348.813 228.992 349.027 228.992C349.144 228.992 349.283 228.965 349.443 228.912V229.968ZM347.235 225.728C347.064 225.856 346.84 225.952 346.563 226.016C346.285 226.069 345.992 226.117 345.683 226.16C345.384 226.192 345.08 226.235 344.771 226.288C344.461 226.331 344.184 226.405 343.939 226.512C343.693 226.619 343.491 226.773 343.331 226.976C343.181 227.168 343.107 227.435 343.107 227.776C343.107 228 343.149 228.192 343.235 228.352C343.331 228.501 343.448 228.624 343.587 228.72C343.736 228.816 343.907 228.885 344.099 228.928C344.291 228.971 344.493 228.992 344.707 228.992C345.155 228.992 345.539 228.933 345.859 228.816C346.179 228.688 346.44 228.533 346.643 228.352C346.845 228.16 346.995 227.957 347.091 227.744C347.187 227.52 347.235 227.312 347.235 227.12V225.728ZM350.956 218.576H352.316V222.848H352.348C352.572 222.389 352.924 222.059 353.404 221.856C353.884 221.643 354.412 221.536 354.988 221.536C355.628 221.536 356.183 221.653 356.652 221.888C357.132 222.123 357.527 222.443 357.836 222.848C358.156 223.243 358.396 223.701 358.556 224.224C358.716 224.747 358.796 225.301 358.796 225.888C358.796 226.475 358.716 227.029 358.556 227.552C358.407 228.075 358.172 228.533 357.852 228.928C357.543 229.312 357.148 229.616 356.668 229.84C356.199 230.064 355.65 230.176 355.02 230.176C354.818 230.176 354.588 230.155 354.332 230.112C354.087 230.069 353.842 230 353.596 229.904C353.351 229.808 353.116 229.68 352.892 229.52C352.679 229.349 352.498 229.141 352.348 228.896H352.316V230H350.956V218.576ZM357.356 225.792C357.356 225.408 357.303 225.035 357.196 224.672C357.1 224.299 356.946 223.968 356.732 223.68C356.53 223.392 356.263 223.163 355.932 222.992C355.612 222.821 355.234 222.736 354.796 222.736C354.338 222.736 353.948 222.827 353.628 223.008C353.308 223.189 353.047 223.429 352.844 223.728C352.642 224.016 352.492 224.347 352.396 224.72C352.311 225.093 352.268 225.472 352.268 225.856C352.268 226.261 352.316 226.656 352.412 227.04C352.508 227.413 352.658 227.744 352.86 228.032C353.074 228.32 353.346 228.555 353.676 228.736C354.007 228.907 354.407 228.992 354.876 228.992C355.346 228.992 355.735 228.901 356.044 228.72C356.364 228.539 356.62 228.299 356.812 228C357.004 227.701 357.143 227.36 357.228 226.976C357.314 226.592 357.356 226.197 357.356 225.792ZM366.337 225.072C366.315 224.752 366.241 224.448 366.113 224.16C365.995 223.872 365.83 223.627 365.617 223.424C365.414 223.211 365.169 223.045 364.881 222.928C364.603 222.8 364.294 222.736 363.953 222.736C363.601 222.736 363.281 222.8 362.993 222.928C362.715 223.045 362.475 223.211 362.273 223.424C362.07 223.637 361.91 223.888 361.793 224.176C361.675 224.453 361.606 224.752 361.585 225.072H366.337ZM367.649 227.376C367.467 228.304 367.067 229.003 366.449 229.472C365.83 229.941 365.051 230.176 364.113 230.176C363.451 230.176 362.875 230.069 362.385 229.856C361.905 229.643 361.499 229.344 361.169 228.96C360.838 228.576 360.587 228.117 360.417 227.584C360.257 227.051 360.166 226.469 360.145 225.84C360.145 225.211 360.241 224.635 360.433 224.112C360.625 223.589 360.891 223.136 361.233 222.752C361.585 222.368 361.995 222.069 362.465 221.856C362.945 221.643 363.467 221.536 364.033 221.536C364.769 221.536 365.377 221.691 365.857 222C366.347 222.299 366.737 222.683 367.025 223.152C367.323 223.621 367.526 224.133 367.633 224.688C367.75 225.243 367.798 225.771 367.777 226.272H361.585C361.574 226.635 361.617 226.981 361.713 227.312C361.809 227.632 361.963 227.92 362.177 228.176C362.39 228.421 362.662 228.619 362.993 228.768C363.323 228.917 363.713 228.992 364.161 228.992C364.737 228.992 365.206 228.859 365.569 228.592C365.942 228.325 366.187 227.92 366.305 227.376H367.649ZM369.466 218.576H370.826V230H369.466V218.576Z" fill="#DB0002"/>
<path d="M428 224C428 215.163 435.163 208 444 208H468C476.837 208 484 215.163 484 224C484 232.837 476.837 240 468 240H444C435.163 240 428 232.837 428 224Z" fill="black" fill-opacity="0.44"/>
<g filter="url(#filter1_d_76465_12567)">
<g clip-path="url(#clip1_76465_12567)">
<path d="M436 224C436 219.582 439.582 216 444 216C448.418 216 452 219.582 452 224C452 228.418 448.418 232 444 232C439.582 232 436 228.418 436 224Z" fill="white"/>
</g>
</g>
<path d="M295.36 266.124H292.028V265.004H300.022V266.124H296.69V275H295.36V266.124ZM301.11 265.004H302.3V268.826H302.328C302.421 268.602 302.552 268.415 302.72 268.266C302.888 268.107 303.075 267.981 303.28 267.888C303.495 267.785 303.714 267.711 303.938 267.664C304.171 267.617 304.395 267.594 304.61 267.594C305.086 267.594 305.483 267.659 305.8 267.79C306.117 267.921 306.374 268.103 306.57 268.336C306.766 268.569 306.901 268.849 306.976 269.176C307.06 269.493 307.102 269.848 307.102 270.24V275H305.912V270.1C305.912 269.652 305.781 269.297 305.52 269.036C305.259 268.775 304.899 268.644 304.442 268.644C304.078 268.644 303.761 268.7 303.49 268.812C303.229 268.924 303.009 269.083 302.832 269.288C302.655 269.493 302.519 269.736 302.426 270.016C302.342 270.287 302.3 270.585 302.3 270.912V275H301.11V265.004ZM310.324 266.46H309.134V265.004H310.324V266.46ZM309.134 267.762H310.324V275H309.134V267.762ZM313.071 272.718C313.08 272.979 313.141 273.203 313.253 273.39C313.365 273.567 313.51 273.712 313.687 273.824C313.874 273.927 314.079 274.001 314.303 274.048C314.536 274.095 314.774 274.118 315.017 274.118C315.204 274.118 315.4 274.104 315.605 274.076C315.81 274.048 315.997 273.997 316.165 273.922C316.342 273.847 316.487 273.74 316.599 273.6C316.711 273.451 316.767 273.264 316.767 273.04C316.767 272.732 316.65 272.499 316.417 272.34C316.184 272.181 315.89 272.055 315.535 271.962C315.19 271.859 314.812 271.771 314.401 271.696C313.99 271.612 313.608 271.5 313.253 271.36C312.908 271.211 312.618 271.005 312.385 270.744C312.152 270.483 312.035 270.119 312.035 269.652C312.035 269.288 312.114 268.975 312.273 268.714C312.441 268.453 312.651 268.243 312.903 268.084C313.164 267.916 313.454 267.795 313.771 267.72C314.098 267.636 314.42 267.594 314.737 267.594C315.148 267.594 315.526 267.631 315.871 267.706C316.216 267.771 316.52 267.893 316.781 268.07C317.052 268.238 317.266 268.471 317.425 268.77C317.584 269.059 317.677 269.423 317.705 269.862H316.515C316.496 269.629 316.436 269.437 316.333 269.288C316.23 269.129 316.1 269.003 315.941 268.91C315.782 268.817 315.605 268.751 315.409 268.714C315.222 268.667 315.031 268.644 314.835 268.644C314.658 268.644 314.476 268.658 314.289 268.686C314.112 268.714 313.948 268.765 313.799 268.84C313.65 268.905 313.528 268.999 313.435 269.12C313.342 269.232 313.295 269.381 313.295 269.568C313.295 269.773 313.365 269.946 313.505 270.086C313.654 270.217 313.841 270.329 314.065 270.422C314.289 270.506 314.541 270.581 314.821 270.646C315.101 270.702 315.381 270.763 315.661 270.828C315.96 270.893 316.249 270.973 316.529 271.066C316.818 271.159 317.07 271.285 317.285 271.444C317.509 271.593 317.686 271.785 317.817 272.018C317.957 272.251 318.027 272.541 318.027 272.886C318.027 273.325 317.934 273.689 317.747 273.978C317.57 274.267 317.332 274.501 317.033 274.678C316.744 274.855 316.412 274.977 316.039 275.042C315.675 275.117 315.311 275.154 314.947 275.154C314.546 275.154 314.163 275.112 313.799 275.028C313.435 274.944 313.113 274.809 312.833 274.622C312.553 274.426 312.329 274.174 312.161 273.866C311.993 273.549 311.9 273.166 311.881 272.718H313.071ZM327.803 275V267.762H328.993V275H327.803ZM327.803 266.46V265.004H328.993V266.46H327.803ZM324.079 268.812H322.861V267.762H324.079V266.684C324.079 266.096 324.247 265.653 324.583 265.354C324.929 265.046 325.428 264.892 326.081 264.892C326.193 264.892 326.319 264.901 326.459 264.92C326.609 264.939 326.739 264.967 326.851 265.004V266.04C326.749 266.003 326.637 265.979 326.515 265.97C326.394 265.951 326.282 265.942 326.179 265.942C325.89 265.942 325.666 265.998 325.507 266.11C325.349 266.222 325.269 266.437 325.269 266.754V267.762H326.669V268.812H325.269V275H324.079V268.812ZM336.036 270.688C336.018 270.408 335.952 270.142 335.84 269.89C335.738 269.638 335.593 269.423 335.406 269.246C335.229 269.059 335.014 268.915 334.762 268.812C334.52 268.7 334.249 268.644 333.95 268.644C333.642 268.644 333.362 268.7 333.11 268.812C332.868 268.915 332.658 269.059 332.48 269.246C332.303 269.433 332.163 269.652 332.06 269.904C331.958 270.147 331.897 270.408 331.878 270.688H336.036ZM337.184 272.704C337.026 273.516 336.676 274.127 336.134 274.538C335.593 274.949 334.912 275.154 334.09 275.154C333.512 275.154 333.008 275.061 332.578 274.874C332.158 274.687 331.804 274.426 331.514 274.09C331.225 273.754 331.006 273.353 330.856 272.886C330.716 272.419 330.637 271.911 330.618 271.36C330.618 270.809 330.702 270.305 330.87 269.848C331.038 269.391 331.272 268.994 331.57 268.658C331.878 268.322 332.238 268.061 332.648 267.874C333.068 267.687 333.526 267.594 334.02 267.594C334.664 267.594 335.196 267.729 335.616 268C336.046 268.261 336.386 268.597 336.638 269.008C336.9 269.419 337.077 269.867 337.17 270.352C337.273 270.837 337.315 271.299 337.296 271.738H331.878C331.869 272.055 331.906 272.359 331.99 272.648C332.074 272.928 332.21 273.18 332.396 273.404C332.583 273.619 332.821 273.791 333.11 273.922C333.4 274.053 333.74 274.118 334.132 274.118C334.636 274.118 335.047 274.001 335.364 273.768C335.691 273.535 335.906 273.18 336.008 272.704H337.184ZM338.775 265.004H339.965V275H338.775V265.004ZM342.852 271.444C342.852 271.78 342.894 272.111 342.978 272.438C343.071 272.755 343.206 273.04 343.384 273.292C343.57 273.544 343.804 273.745 344.084 273.894C344.373 274.043 344.709 274.118 345.092 274.118C345.493 274.118 345.834 274.039 346.114 273.88C346.394 273.721 346.622 273.516 346.8 273.264C346.977 273.003 347.103 272.709 347.178 272.382C347.262 272.055 347.304 271.724 347.304 271.388C347.304 271.033 347.262 270.693 347.178 270.366C347.094 270.03 346.958 269.736 346.772 269.484C346.594 269.232 346.361 269.031 346.072 268.882C345.782 268.723 345.432 268.644 345.022 268.644C344.62 268.644 344.28 268.723 344 268.882C343.72 269.041 343.496 269.251 343.328 269.512C343.16 269.773 343.038 270.072 342.964 270.408C342.889 270.744 342.852 271.089 342.852 271.444ZM348.452 275H347.262V274.02H347.234C347.038 274.421 346.73 274.711 346.31 274.888C345.89 275.065 345.428 275.154 344.924 275.154C344.364 275.154 343.874 275.051 343.454 274.846C343.043 274.641 342.698 274.365 342.418 274.02C342.147 273.675 341.942 273.273 341.802 272.816C341.662 272.359 341.592 271.873 341.592 271.36C341.592 270.847 341.657 270.361 341.788 269.904C341.928 269.447 342.133 269.05 342.404 268.714C342.684 268.369 343.029 268.098 343.44 267.902C343.86 267.697 344.345 267.594 344.896 267.594C345.082 267.594 345.283 267.613 345.498 267.65C345.712 267.687 345.927 267.753 346.142 267.846C346.356 267.93 346.557 268.047 346.744 268.196C346.94 268.336 347.103 268.513 347.234 268.728H347.262V265.004H348.452V275ZM359.443 270.086C359.349 269.629 359.153 269.274 358.855 269.022C358.556 268.77 358.155 268.644 357.651 268.644C357.221 268.644 356.862 268.723 356.573 268.882C356.283 269.041 356.05 269.251 355.873 269.512C355.705 269.773 355.583 270.077 355.509 270.422C355.434 270.758 355.397 271.108 355.397 271.472C355.397 271.808 355.434 272.135 355.509 272.452C355.593 272.769 355.719 273.054 355.887 273.306C356.055 273.549 356.274 273.745 356.545 273.894C356.815 274.043 357.137 274.118 357.511 274.118C358.099 274.118 358.556 273.964 358.883 273.656C359.219 273.348 359.424 272.914 359.499 272.354H360.717C360.586 273.25 360.25 273.941 359.709 274.426C359.177 274.911 358.449 275.154 357.525 275.154C356.974 275.154 356.484 275.065 356.055 274.888C355.635 274.711 355.28 274.459 354.991 274.132C354.711 273.805 354.496 273.418 354.347 272.97C354.207 272.513 354.137 272.013 354.137 271.472C354.137 270.931 354.207 270.427 354.347 269.96C354.487 269.484 354.697 269.073 354.977 268.728C355.266 268.373 355.625 268.098 356.055 267.902C356.484 267.697 356.983 267.594 357.553 267.594C357.963 267.594 358.346 267.645 358.701 267.748C359.065 267.841 359.382 267.991 359.653 268.196C359.933 268.401 360.161 268.663 360.339 268.98C360.516 269.288 360.628 269.657 360.675 270.086H359.443ZM368.635 274.972C368.43 275.093 368.145 275.154 367.781 275.154C367.473 275.154 367.226 275.07 367.039 274.902C366.862 274.725 366.773 274.44 366.773 274.048C366.447 274.44 366.064 274.725 365.625 274.902C365.196 275.07 364.729 275.154 364.225 275.154C363.899 275.154 363.586 275.117 363.287 275.042C362.998 274.967 362.746 274.851 362.531 274.692C362.317 274.533 362.144 274.328 362.013 274.076C361.892 273.815 361.831 273.502 361.831 273.138C361.831 272.727 361.901 272.391 362.041 272.13C362.181 271.869 362.363 271.659 362.587 271.5C362.821 271.332 363.082 271.206 363.371 271.122C363.67 271.038 363.973 270.968 364.281 270.912C364.608 270.847 364.916 270.8 365.205 270.772C365.504 270.735 365.765 270.688 365.989 270.632C366.213 270.567 366.391 270.478 366.521 270.366C366.652 270.245 366.717 270.072 366.717 269.848C366.717 269.587 366.666 269.377 366.563 269.218C366.47 269.059 366.344 268.938 366.185 268.854C366.036 268.77 365.863 268.714 365.667 268.686C365.481 268.658 365.294 268.644 365.107 268.644C364.603 268.644 364.183 268.742 363.847 268.938C363.511 269.125 363.329 269.484 363.301 270.016H362.111C362.13 269.568 362.223 269.19 362.391 268.882C362.559 268.574 362.783 268.327 363.063 268.14C363.343 267.944 363.661 267.804 364.015 267.72C364.379 267.636 364.767 267.594 365.177 267.594C365.504 267.594 365.826 267.617 366.143 267.664C366.47 267.711 366.764 267.809 367.025 267.958C367.287 268.098 367.497 268.299 367.655 268.56C367.814 268.821 367.893 269.162 367.893 269.582V273.306C367.893 273.586 367.907 273.791 367.935 273.922C367.973 274.053 368.085 274.118 368.271 274.118C368.374 274.118 368.495 274.095 368.635 274.048V274.972ZM366.703 271.262C366.554 271.374 366.358 271.458 366.115 271.514C365.873 271.561 365.616 271.603 365.345 271.64C365.084 271.668 364.818 271.705 364.547 271.752C364.277 271.789 364.034 271.855 363.819 271.948C363.605 272.041 363.427 272.177 363.287 272.354C363.157 272.522 363.091 272.755 363.091 273.054C363.091 273.25 363.129 273.418 363.203 273.558C363.287 273.689 363.39 273.796 363.511 273.88C363.642 273.964 363.791 274.025 363.959 274.062C364.127 274.099 364.305 274.118 364.491 274.118C364.883 274.118 365.219 274.067 365.499 273.964C365.779 273.852 366.008 273.717 366.185 273.558C366.363 273.39 366.493 273.213 366.577 273.026C366.661 272.83 366.703 272.648 366.703 272.48V271.262ZM369.918 267.762H371.038V268.91H371.066C371.561 268.033 372.345 267.594 373.418 267.594C373.894 267.594 374.291 267.659 374.608 267.79C374.925 267.921 375.182 268.103 375.378 268.336C375.574 268.569 375.709 268.849 375.784 269.176C375.868 269.493 375.91 269.848 375.91 270.24V275H374.72V270.1C374.72 269.652 374.589 269.297 374.328 269.036C374.067 268.775 373.707 268.644 373.25 268.644C372.886 268.644 372.569 268.7 372.298 268.812C372.037 268.924 371.817 269.083 371.64 269.288C371.463 269.493 371.327 269.736 371.234 270.016C371.15 270.287 371.108 270.585 371.108 270.912V275H369.918V267.762ZM378.138 265.004H379.692V266.558C379.692 266.838 379.66 267.104 379.594 267.356C379.538 267.599 379.445 267.813 379.314 268C379.193 268.187 379.034 268.336 378.838 268.448C378.652 268.56 378.423 268.616 378.152 268.616V267.916C378.311 267.916 378.442 267.879 378.544 267.804C378.647 267.72 378.731 267.613 378.796 267.482C378.862 267.351 378.904 267.207 378.922 267.048C378.95 266.88 378.964 266.717 378.964 266.558H378.138V265.004ZM383.35 267.762H384.792V268.812H383.35V273.306C383.35 273.446 383.359 273.558 383.378 273.642C383.406 273.726 383.452 273.791 383.518 273.838C383.583 273.885 383.672 273.917 383.784 273.936C383.905 273.945 384.059 273.95 384.246 273.95H384.792V275H383.882C383.574 275 383.308 274.981 383.084 274.944C382.869 274.897 382.692 274.818 382.552 274.706C382.421 274.594 382.323 274.435 382.258 274.23C382.192 274.025 382.16 273.754 382.16 273.418V268.812H380.928V267.762H382.16V265.592H383.35V267.762ZM390.402 265.004H391.592V268.742H391.62C391.816 268.341 392.124 268.051 392.544 267.874C392.964 267.687 393.426 267.594 393.93 267.594C394.49 267.594 394.975 267.697 395.386 267.902C395.806 268.107 396.151 268.387 396.422 268.742C396.702 269.087 396.912 269.489 397.052 269.946C397.192 270.403 397.262 270.889 397.262 271.402C397.262 271.915 397.192 272.401 397.052 272.858C396.921 273.315 396.716 273.717 396.436 274.062C396.165 274.398 395.82 274.664 395.4 274.86C394.989 275.056 394.509 275.154 393.958 275.154C393.781 275.154 393.58 275.135 393.356 275.098C393.141 275.061 392.927 275 392.712 274.916C392.497 274.832 392.292 274.72 392.096 274.58C391.909 274.431 391.751 274.249 391.62 274.034H391.592V275H390.402V265.004ZM396.002 271.318C396.002 270.982 395.955 270.655 395.862 270.338C395.778 270.011 395.643 269.722 395.456 269.47C395.279 269.218 395.045 269.017 394.756 268.868C394.476 268.719 394.145 268.644 393.762 268.644C393.361 268.644 393.02 268.723 392.74 268.882C392.46 269.041 392.231 269.251 392.054 269.512C391.877 269.764 391.746 270.053 391.662 270.38C391.587 270.707 391.55 271.038 391.55 271.374C391.55 271.729 391.592 272.074 391.676 272.41C391.76 272.737 391.891 273.026 392.068 273.278C392.255 273.53 392.493 273.735 392.782 273.894C393.071 274.043 393.421 274.118 393.832 274.118C394.243 274.118 394.583 274.039 394.854 273.88C395.134 273.721 395.358 273.511 395.526 273.25C395.694 272.989 395.815 272.69 395.89 272.354C395.965 272.018 396.002 271.673 396.002 271.318ZM403.86 270.688C403.841 270.408 403.776 270.142 403.664 269.89C403.561 269.638 403.417 269.423 403.23 269.246C403.053 269.059 402.838 268.915 402.586 268.812C402.343 268.7 402.073 268.644 401.774 268.644C401.466 268.644 401.186 268.7 400.934 268.812C400.691 268.915 400.481 269.059 400.304 269.246C400.127 269.433 399.987 269.652 399.884 269.904C399.781 270.147 399.721 270.408 399.702 270.688H403.86ZM405.008 272.704C404.849 273.516 404.499 274.127 403.958 274.538C403.417 274.949 402.735 275.154 401.914 275.154C401.335 275.154 400.831 275.061 400.402 274.874C399.982 274.687 399.627 274.426 399.338 274.09C399.049 273.754 398.829 273.353 398.68 272.886C398.54 272.419 398.461 271.911 398.442 271.36C398.442 270.809 398.526 270.305 398.694 269.848C398.862 269.391 399.095 268.994 399.394 268.658C399.702 268.322 400.061 268.061 400.472 267.874C400.892 267.687 401.349 267.594 401.844 267.594C402.488 267.594 403.02 267.729 403.44 268C403.869 268.261 404.21 268.597 404.462 269.008C404.723 269.419 404.901 269.867 404.994 270.352C405.097 270.837 405.139 271.299 405.12 271.738H399.702C399.693 272.055 399.73 272.359 399.814 272.648C399.898 272.928 400.033 273.18 400.22 273.404C400.407 273.619 400.645 273.791 400.934 273.922C401.223 274.053 401.564 274.118 401.956 274.118C402.46 274.118 402.871 274.001 403.188 273.768C403.515 273.535 403.729 273.18 403.832 272.704H405.008ZM415.626 270.688C415.607 270.408 415.542 270.142 415.43 269.89C415.327 269.638 415.183 269.423 414.996 269.246C414.819 269.059 414.604 268.915 414.352 268.812C414.109 268.7 413.839 268.644 413.54 268.644C413.232 268.644 412.952 268.7 412.7 268.812C412.457 268.915 412.247 269.059 412.07 269.246C411.893 269.433 411.753 269.652 411.65 269.904C411.547 270.147 411.487 270.408 411.468 270.688H415.626ZM416.774 272.704C416.615 273.516 416.265 274.127 415.724 274.538C415.183 274.949 414.501 275.154 413.68 275.154C413.101 275.154 412.597 275.061 412.168 274.874C411.748 274.687 411.393 274.426 411.104 274.09C410.815 273.754 410.595 273.353 410.446 272.886C410.306 272.419 410.227 271.911 410.208 271.36C410.208 270.809 410.292 270.305 410.46 269.848C410.628 269.391 410.861 268.994 411.16 268.658C411.468 268.322 411.827 268.061 412.238 267.874C412.658 267.687 413.115 267.594 413.61 267.594C414.254 267.594 414.786 267.729 415.206 268C415.635 268.261 415.976 268.597 416.228 269.008C416.489 269.419 416.667 269.867 416.76 270.352C416.863 270.837 416.905 271.299 416.886 271.738H411.468C411.459 272.055 411.496 272.359 411.58 272.648C411.664 272.928 411.799 273.18 411.986 273.404C412.173 273.619 412.411 273.791 412.7 273.922C412.989 274.053 413.33 274.118 413.722 274.118C414.226 274.118 414.637 274.001 414.954 273.768C415.281 273.535 415.495 273.18 415.598 272.704H416.774ZM418.294 267.762H419.414V268.826H419.442C419.984 268.005 420.763 267.594 421.78 267.594C422.228 267.594 422.634 267.687 422.998 267.874C423.362 268.061 423.619 268.378 423.768 268.826C424.011 268.434 424.328 268.131 424.72 267.916C425.122 267.701 425.56 267.594 426.036 267.594C426.4 267.594 426.727 267.636 427.016 267.72C427.315 267.795 427.567 267.916 427.772 268.084C427.987 268.252 428.15 268.471 428.262 268.742C428.384 269.003 428.444 269.321 428.444 269.694V275H427.254V270.254C427.254 270.03 427.236 269.82 427.198 269.624C427.161 269.428 427.091 269.26 426.988 269.12C426.886 268.971 426.741 268.854 426.554 268.77C426.377 268.686 426.144 268.644 425.854 268.644C425.266 268.644 424.804 268.812 424.468 269.148C424.132 269.484 423.964 269.932 423.964 270.492V275H422.774V270.254C422.774 270.021 422.751 269.806 422.704 269.61C422.667 269.414 422.597 269.246 422.494 269.106C422.392 268.957 422.252 268.845 422.074 268.77C421.906 268.686 421.687 268.644 421.416 268.644C421.071 268.644 420.772 268.714 420.52 268.854C420.278 268.994 420.077 269.162 419.918 269.358C419.769 269.554 419.657 269.759 419.582 269.974C419.517 270.179 419.484 270.352 419.484 270.492V275H418.294V267.762ZM430.447 267.762H431.637V268.742H431.665C431.861 268.341 432.169 268.051 432.589 267.874C433.009 267.687 433.471 267.594 433.975 267.594C434.535 267.594 435.02 267.697 435.431 267.902C435.851 268.107 436.196 268.387 436.467 268.742C436.747 269.087 436.957 269.489 437.097 269.946C437.237 270.403 437.307 270.889 437.307 271.402C437.307 271.915 437.237 272.401 437.097 272.858C436.966 273.315 436.761 273.717 436.481 274.062C436.21 274.398 435.865 274.664 435.445 274.86C435.034 275.056 434.554 275.154 434.003 275.154C433.826 275.154 433.625 275.135 433.401 275.098C433.186 275.061 432.972 275 432.757 274.916C432.542 274.832 432.337 274.72 432.141 274.58C431.954 274.431 431.796 274.249 431.665 274.034H431.637V277.758H430.447V267.762ZM436.047 271.318C436.047 270.982 436 270.655 435.907 270.338C435.823 270.011 435.688 269.722 435.501 269.47C435.324 269.218 435.09 269.017 434.801 268.868C434.521 268.719 434.19 268.644 433.807 268.644C433.406 268.644 433.065 268.723 432.785 268.882C432.505 269.041 432.276 269.251 432.099 269.512C431.922 269.764 431.791 270.053 431.707 270.38C431.632 270.707 431.595 271.038 431.595 271.374C431.595 271.729 431.637 272.074 431.721 272.41C431.805 272.737 431.936 273.026 432.113 273.278C432.3 273.53 432.538 273.735 432.827 273.894C433.116 274.043 433.466 274.118 433.877 274.118C434.288 274.118 434.628 274.039 434.899 273.88C435.179 273.721 435.403 273.511 435.571 273.25C435.739 272.989 435.86 272.69 435.935 272.354C436.01 272.018 436.047 271.673 436.047 271.318ZM440.531 267.762H441.973V268.812H440.531V273.306C440.531 273.446 440.54 273.558 440.559 273.642C440.587 273.726 440.633 273.791 440.699 273.838C440.764 273.885 440.853 273.917 440.965 273.936C441.086 273.945 441.24 273.95 441.427 273.95H441.973V275H441.063C440.755 275 440.489 274.981 440.265 274.944C440.05 274.897 439.873 274.818 439.733 274.706C439.602 274.594 439.504 274.435 439.439 274.23C439.373 274.025 439.341 273.754 439.341 273.418V268.812H438.109V267.762H439.341V265.592H440.531V267.762ZM446.312 275.966C446.172 276.321 446.032 276.619 445.892 276.862C445.761 277.105 445.612 277.301 445.444 277.45C445.285 277.609 445.103 277.721 444.898 277.786C444.702 277.861 444.473 277.898 444.212 277.898C444.072 277.898 443.932 277.889 443.792 277.87C443.652 277.851 443.516 277.819 443.386 277.772V276.68C443.488 276.727 443.605 276.764 443.736 276.792C443.876 276.829 443.992 276.848 444.086 276.848C444.328 276.848 444.529 276.787 444.688 276.666C444.856 276.554 444.982 276.391 445.066 276.176L445.556 274.958L442.686 267.762H444.03L446.144 273.684H446.172L448.202 267.762H449.462L446.312 275.966ZM449.872 273.446H451.426V275H449.872V273.446Z" fill="#DB0002"/>
<defs>
<filter id="filter0_d_76465_12567" x="434" y="119" width="20" height="20" filterUnits="userSpaceOnUse" color-interpolation-filters="sRGB">
<feFlood flood-opacity="0" result="BackgroundImageFix"/>
<feColorMatrix in="SourceAlpha" type="matrix" values="0 0 0 0 0 0 0 0 0 0 0 0 0 0 0 0 0 0 127 0" result="hardAlpha"/>
<feOffset dy="1"/>
<feGaussianBlur stdDeviation="1"/>
<feComposite in2="hardAlpha" operator="out"/>
<feColorMatrix type="matrix" values="0 0 0 0 0 0 0 0 0 0 0 0 0 0 0 0 0 0 0.24 0"/>
<feBlend mode="normal" in2="BackgroundImageFix" result="effect1_dropShadow_76465_12567"/>
<feBlend mode="normal" in="SourceGraphic" in2="effect1_dropShadow_76465_12567" result="shape"/>
</filter>
<filter id="filter1_d_76465_12567" x="434" y="215" width="20" height="20" filterUnits="userSpaceOnUse" color-interpolation-filters="sRGB">
<feFlood flood-opacity="0" result="BackgroundImageFix"/>
<feColorMatrix in="SourceAlpha" type="matrix" values="0 0 0 0 0 0 0 0 0 0 0 0 0 0 0 0 0 0 127 0" result="hardAlpha"/>
<feOffset dy="1"/>
<feGaussianBlur stdDeviation="1"/>
<feComposite in2="hardAlpha" operator="out"/>
<feColorMatrix type="matrix" values="0 0 0 0 0 0 0 0 0 0 0 0 0 0 0 0 0 0 0.24 0"/>
<feBlend mode="normal" in2="BackgroundImageFix" result="effect1_dropShadow_76465_12567"/>
<feBlend mode="normal" in="SourceGraphic" in2="effect1_dropShadow_76465_12567" result="shape"/>
</filter>
<clipPath id="clip0_76465_12567">
<path d="M436 128C436 123.582 439.582 120 444 120C448.418 120 452 123.582 452 128C452 132.418 448.418 136 444 136C439.582 136 436 132.418 436 128Z" fill="white"/>
</clipPath>
<clipPath id="clip1_76465_12567">
<path d="M436 224C436 219.582 439.582 216 444 216C448.418 216 452 219.582 452 224C452 228.418 448.418 232 444 232C439.582 232 436 228.418 436 224Z" fill="white"/>
</clipPath>
</defs>
</svg>
