<svg width="600" height="536" viewBox="0 0 600 536" fill="none" xmlns="http://www.w3.org/2000/svg">
<rect width="600" height="536" fill="black" fill-opacity="0.04"/>
<path d="M101.248 128.076H102.768V132.988H108.784V128.076H110.304V139.5H108.784V134.268H102.768V139.5H101.248V128.076ZM118.315 134.572C118.294 134.252 118.219 133.948 118.091 133.66C117.974 133.372 117.808 133.127 117.595 132.924C117.392 132.711 117.147 132.545 116.859 132.428C116.582 132.3 116.272 132.236 115.931 132.236C115.579 132.236 115.259 132.3 114.971 132.428C114.694 132.545 114.454 132.711 114.251 132.924C114.048 133.137 113.888 133.388 113.771 133.676C113.654 133.953 113.584 134.252 113.563 134.572H118.315ZM119.627 136.876C119.446 137.804 119.046 138.503 118.427 138.972C117.808 139.441 117.03 139.676 116.091 139.676C115.43 139.676 114.854 139.569 114.363 139.356C113.883 139.143 113.478 138.844 113.147 138.46C112.816 138.076 112.566 137.617 112.395 137.084C112.235 136.551 112.144 135.969 112.123 135.34C112.123 134.711 112.219 134.135 112.411 133.612C112.603 133.089 112.87 132.636 113.211 132.252C113.563 131.868 113.974 131.569 114.443 131.356C114.923 131.143 115.446 131.036 116.011 131.036C116.747 131.036 117.355 131.191 117.835 131.5C118.326 131.799 118.715 132.183 119.003 132.652C119.302 133.121 119.504 133.633 119.611 134.188C119.728 134.743 119.776 135.271 119.755 135.772H113.563C113.552 136.135 113.595 136.481 113.691 136.812C113.787 137.132 113.942 137.42 114.155 137.676C114.368 137.921 114.64 138.119 114.971 138.268C115.302 138.417 115.691 138.492 116.139 138.492C116.715 138.492 117.184 138.359 117.547 138.092C117.92 137.825 118.166 137.42 118.283 136.876H119.627ZM121.245 128.076H122.605V139.5H121.245V128.076ZM124.76 131.228H126.12V132.348H126.152C126.376 131.889 126.728 131.559 127.208 131.356C127.688 131.143 128.216 131.036 128.792 131.036C129.432 131.036 129.986 131.153 130.456 131.388C130.936 131.623 131.33 131.943 131.64 132.348C131.96 132.743 132.2 133.201 132.36 133.724C132.52 134.247 132.6 134.801 132.6 135.388C132.6 135.975 132.52 136.529 132.36 137.052C132.21 137.575 131.976 138.033 131.656 138.428C131.346 138.812 130.952 139.116 130.472 139.34C130.002 139.564 129.453 139.676 128.824 139.676C128.621 139.676 128.392 139.655 128.136 139.612C127.89 139.569 127.645 139.5 127.4 139.404C127.154 139.308 126.92 139.18 126.696 139.02C126.482 138.849 126.301 138.641 126.152 138.396H126.12V142.652H124.76V131.228ZM131.16 135.292C131.16 134.908 131.106 134.535 131 134.172C130.904 133.799 130.749 133.468 130.536 133.18C130.333 132.892 130.066 132.663 129.736 132.492C129.416 132.321 129.037 132.236 128.6 132.236C128.141 132.236 127.752 132.327 127.432 132.508C127.112 132.689 126.85 132.929 126.648 133.228C126.445 133.516 126.296 133.847 126.2 134.22C126.114 134.593 126.072 134.972 126.072 135.356C126.072 135.761 126.12 136.156 126.216 136.54C126.312 136.913 126.461 137.244 126.664 137.532C126.877 137.82 127.149 138.055 127.48 138.236C127.81 138.407 128.21 138.492 128.68 138.492C129.149 138.492 129.538 138.401 129.848 138.22C130.168 138.039 130.424 137.799 130.616 137.5C130.808 137.201 130.946 136.86 131.032 136.476C131.117 136.092 131.16 135.697 131.16 135.292ZM139.94 134.572C139.919 134.252 139.844 133.948 139.716 133.66C139.599 133.372 139.433 133.127 139.22 132.924C139.017 132.711 138.772 132.545 138.484 132.428C138.207 132.3 137.897 132.236 137.556 132.236C137.204 132.236 136.884 132.3 136.596 132.428C136.319 132.545 136.079 132.711 135.876 132.924C135.673 133.137 135.513 133.388 135.396 133.676C135.279 133.953 135.209 134.252 135.188 134.572H139.94ZM141.252 136.876C141.071 137.804 140.671 138.503 140.052 138.972C139.433 139.441 138.655 139.676 137.716 139.676C137.055 139.676 136.479 139.569 135.988 139.356C135.508 139.143 135.103 138.844 134.772 138.46C134.441 138.076 134.191 137.617 134.02 137.084C133.86 136.551 133.769 135.969 133.748 135.34C133.748 134.711 133.844 134.135 134.036 133.612C134.228 133.089 134.495 132.636 134.836 132.252C135.188 131.868 135.599 131.569 136.068 131.356C136.548 131.143 137.071 131.036 137.636 131.036C138.372 131.036 138.98 131.191 139.46 131.5C139.951 131.799 140.34 132.183 140.628 132.652C140.927 133.121 141.129 133.633 141.236 134.188C141.353 134.743 141.401 135.271 141.38 135.772H135.188C135.177 136.135 135.22 136.481 135.316 136.812C135.412 137.132 135.567 137.42 135.78 137.676C135.993 137.921 136.265 138.119 136.596 138.268C136.927 138.417 137.316 138.492 137.764 138.492C138.34 138.492 138.809 138.359 139.172 138.092C139.545 137.825 139.791 137.42 139.908 136.876H141.252ZM142.742 131.228H144.022V132.972H144.054C144.384 132.3 144.79 131.804 145.27 131.484C145.75 131.164 146.358 131.015 147.094 131.036V132.476C146.55 132.476 146.086 132.551 145.702 132.7C145.318 132.849 145.008 133.068 144.774 133.356C144.539 133.644 144.368 133.996 144.262 134.412C144.155 134.817 144.102 135.287 144.102 135.82V139.5H142.742V131.228ZM154.459 131.228H156.107V132.428H154.459V137.564C154.459 137.724 154.47 137.852 154.491 137.948C154.523 138.044 154.576 138.119 154.651 138.172C154.726 138.225 154.827 138.263 154.955 138.284C155.094 138.295 155.27 138.3 155.483 138.3H156.107V139.5H155.067C154.715 139.5 154.411 139.479 154.155 139.436C153.91 139.383 153.707 139.292 153.547 139.164C153.398 139.036 153.286 138.855 153.211 138.62C153.136 138.385 153.099 138.076 153.099 137.692V132.428H151.691V131.228H153.099V128.748H154.459V131.228ZM163.362 134.572C163.34 134.252 163.266 133.948 163.138 133.66C163.02 133.372 162.855 133.127 162.642 132.924C162.439 132.711 162.194 132.545 161.906 132.428C161.628 132.3 161.319 132.236 160.978 132.236C160.626 132.236 160.306 132.3 160.018 132.428C159.74 132.545 159.5 132.711 159.298 132.924C159.095 133.137 158.935 133.388 158.818 133.676C158.7 133.953 158.631 134.252 158.61 134.572H163.362ZM164.674 136.876C164.492 137.804 164.092 138.503 163.474 138.972C162.855 139.441 162.076 139.676 161.138 139.676C160.476 139.676 159.9 139.569 159.41 139.356C158.93 139.143 158.524 138.844 158.194 138.46C157.863 138.076 157.612 137.617 157.442 137.084C157.282 136.551 157.191 135.969 157.17 135.34C157.17 134.711 157.266 134.135 157.458 133.612C157.65 133.089 157.916 132.636 158.258 132.252C158.61 131.868 159.02 131.569 159.49 131.356C159.97 131.143 160.492 131.036 161.058 131.036C161.794 131.036 162.402 131.191 162.882 131.5C163.372 131.799 163.762 132.183 164.05 132.652C164.348 133.121 164.551 133.633 164.658 134.188C164.775 134.743 164.823 135.271 164.802 135.772H158.61C158.599 136.135 158.642 136.481 158.738 136.812C158.834 137.132 158.988 137.42 159.202 137.676C159.415 137.921 159.687 138.119 160.018 138.268C160.348 138.417 160.738 138.492 161.186 138.492C161.762 138.492 162.231 138.359 162.594 138.092C162.967 137.825 163.212 137.42 163.33 136.876H164.674ZM168.436 135.148L165.556 131.228H167.299L169.284 134.124L171.348 131.228H172.98L170.132 135.036L173.332 139.5H171.588L169.284 136.076L166.98 139.5H165.332L168.436 135.148ZM176.381 131.228H178.029V132.428H176.381V137.564C176.381 137.724 176.391 137.852 176.413 137.948C176.445 138.044 176.498 138.119 176.573 138.172C176.647 138.225 176.749 138.263 176.877 138.284C177.015 138.295 177.191 138.3 177.405 138.3H178.029V139.5H176.989C176.637 139.5 176.333 139.479 176.077 139.436C175.831 139.383 175.629 139.292 175.469 139.164C175.319 139.036 175.207 138.855 175.133 138.62C175.058 138.385 175.021 138.076 175.021 137.692V132.428H173.613V131.228H175.021V128.748H176.381V131.228Z" fill="black" fill-opacity="0.68"/>
<path d="M293.248 118.576H294.768V128.72H300.816V130H293.248V118.576ZM309.443 129.968C309.208 130.107 308.883 130.176 308.467 130.176C308.115 130.176 307.832 130.08 307.619 129.888C307.416 129.685 307.315 129.36 307.315 128.912C306.941 129.36 306.504 129.685 306.003 129.888C305.512 130.08 304.979 130.176 304.403 130.176C304.029 130.176 303.672 130.133 303.331 130.048C303 129.963 302.712 129.829 302.467 129.648C302.221 129.467 302.024 129.232 301.875 128.944C301.736 128.645 301.667 128.288 301.667 127.872C301.667 127.403 301.747 127.019 301.907 126.72C302.067 126.421 302.275 126.181 302.531 126C302.797 125.808 303.096 125.664 303.427 125.568C303.768 125.472 304.115 125.392 304.467 125.328C304.84 125.253 305.192 125.2 305.523 125.168C305.864 125.125 306.163 125.072 306.419 125.008C306.675 124.933 306.877 124.832 307.027 124.704C307.176 124.565 307.251 124.368 307.251 124.112C307.251 123.813 307.192 123.573 307.075 123.392C306.968 123.211 306.824 123.072 306.643 122.976C306.472 122.88 306.275 122.816 306.051 122.784C305.837 122.752 305.624 122.736 305.411 122.736C304.835 122.736 304.355 122.848 303.971 123.072C303.587 123.285 303.379 123.696 303.347 124.304H301.987C302.008 123.792 302.115 123.36 302.307 123.008C302.499 122.656 302.755 122.373 303.075 122.16C303.395 121.936 303.757 121.776 304.163 121.68C304.579 121.584 305.021 121.536 305.491 121.536C305.864 121.536 306.232 121.563 306.595 121.616C306.968 121.669 307.304 121.781 307.603 121.952C307.901 122.112 308.141 122.341 308.323 122.64C308.504 122.939 308.595 123.328 308.595 123.808V128.064C308.595 128.384 308.611 128.619 308.643 128.768C308.685 128.917 308.813 128.992 309.027 128.992C309.144 128.992 309.283 128.965 309.443 128.912V129.968ZM307.235 125.728C307.064 125.856 306.84 125.952 306.563 126.016C306.285 126.069 305.992 126.117 305.683 126.16C305.384 126.192 305.08 126.235 304.771 126.288C304.461 126.331 304.184 126.405 303.939 126.512C303.693 126.619 303.491 126.773 303.331 126.976C303.181 127.168 303.107 127.435 303.107 127.776C303.107 128 303.149 128.192 303.235 128.352C303.331 128.501 303.448 128.624 303.587 128.72C303.736 128.816 303.907 128.885 304.099 128.928C304.291 128.971 304.493 128.992 304.707 128.992C305.155 128.992 305.539 128.933 305.859 128.816C306.179 128.688 306.44 128.533 306.643 128.352C306.845 128.16 306.995 127.957 307.091 127.744C307.187 127.52 307.235 127.312 307.235 127.12V125.728ZM310.956 118.576H312.316V122.848H312.348C312.572 122.389 312.924 122.059 313.404 121.856C313.884 121.643 314.412 121.536 314.988 121.536C315.628 121.536 316.183 121.653 316.652 121.888C317.132 122.123 317.527 122.443 317.836 122.848C318.156 123.243 318.396 123.701 318.556 124.224C318.716 124.747 318.796 125.301 318.796 125.888C318.796 126.475 318.716 127.029 318.556 127.552C318.407 128.075 318.172 128.533 317.852 128.928C317.543 129.312 317.148 129.616 316.668 129.84C316.199 130.064 315.65 130.176 315.02 130.176C314.818 130.176 314.588 130.155 314.332 130.112C314.087 130.069 313.842 130 313.596 129.904C313.351 129.808 313.116 129.68 312.892 129.52C312.679 129.349 312.498 129.141 312.348 128.896H312.316V130H310.956V118.576ZM317.356 125.792C317.356 125.408 317.303 125.035 317.196 124.672C317.1 124.299 316.946 123.968 316.732 123.68C316.53 123.392 316.263 123.163 315.932 122.992C315.612 122.821 315.234 122.736 314.796 122.736C314.338 122.736 313.948 122.827 313.628 123.008C313.308 123.189 313.047 123.429 312.844 123.728C312.642 124.016 312.492 124.347 312.396 124.72C312.311 125.093 312.268 125.472 312.268 125.856C312.268 126.261 312.316 126.656 312.412 127.04C312.508 127.413 312.658 127.744 312.86 128.032C313.074 128.32 313.346 128.555 313.676 128.736C314.007 128.907 314.407 128.992 314.876 128.992C315.346 128.992 315.735 128.901 316.044 128.72C316.364 128.539 316.62 128.299 316.812 128C317.004 127.701 317.143 127.36 317.228 126.976C317.314 126.592 317.356 126.197 317.356 125.792ZM326.337 125.072C326.315 124.752 326.241 124.448 326.113 124.16C325.995 123.872 325.83 123.627 325.617 123.424C325.414 123.211 325.169 123.045 324.881 122.928C324.603 122.8 324.294 122.736 323.953 122.736C323.601 122.736 323.281 122.8 322.993 122.928C322.715 123.045 322.475 123.211 322.273 123.424C322.07 123.637 321.91 123.888 321.793 124.176C321.675 124.453 321.606 124.752 321.585 125.072H326.337ZM327.649 127.376C327.467 128.304 327.067 129.003 326.449 129.472C325.83 129.941 325.051 130.176 324.113 130.176C323.451 130.176 322.875 130.069 322.385 129.856C321.905 129.643 321.499 129.344 321.169 128.96C320.838 128.576 320.587 128.117 320.417 127.584C320.257 127.051 320.166 126.469 320.145 125.84C320.145 125.211 320.241 124.635 320.433 124.112C320.625 123.589 320.891 123.136 321.233 122.752C321.585 122.368 321.995 122.069 322.465 121.856C322.945 121.643 323.467 121.536 324.033 121.536C324.769 121.536 325.377 121.691 325.857 122C326.347 122.299 326.737 122.683 327.025 123.152C327.323 123.621 327.526 124.133 327.633 124.688C327.75 125.243 327.798 125.771 327.777 126.272H321.585C321.574 126.635 321.617 126.981 321.713 127.312C321.809 127.632 321.963 127.92 322.177 128.176C322.39 128.421 322.662 128.619 322.993 128.768C323.323 128.917 323.713 128.992 324.161 128.992C324.737 128.992 325.206 128.859 325.569 128.592C325.942 128.325 326.187 127.92 326.305 127.376H327.649ZM329.466 118.576H330.826V130H329.466V118.576Z" fill="black"/>
<path d="M294.422 149.88H296.634C296.783 149.88 296.97 149.871 297.194 149.852C297.418 149.824 297.656 149.768 297.908 149.684C298.16 149.591 298.407 149.46 298.65 149.292C298.902 149.124 299.126 148.895 299.322 148.606C299.518 148.317 299.677 147.957 299.798 147.528C299.929 147.089 299.994 146.562 299.994 145.946C299.994 145.349 299.933 144.817 299.812 144.35C299.7 143.874 299.509 143.473 299.238 143.146C298.977 142.81 298.636 142.558 298.216 142.39C297.796 142.213 297.278 142.124 296.662 142.124H294.422V149.88ZM293.092 141.004H296.522C298.062 141.004 299.247 141.396 300.078 142.18C300.909 142.964 301.324 144.159 301.324 145.764C301.324 146.604 301.231 147.351 301.044 148.004C300.857 148.648 300.568 149.194 300.176 149.642C299.784 150.081 299.285 150.417 298.678 150.65C298.071 150.883 297.353 151 296.522 151H293.092V141.004ZM307.954 146.688C307.936 146.408 307.87 146.142 307.758 145.89C307.656 145.638 307.511 145.423 307.324 145.246C307.147 145.059 306.932 144.915 306.68 144.812C306.438 144.7 306.167 144.644 305.868 144.644C305.56 144.644 305.28 144.7 305.028 144.812C304.786 144.915 304.576 145.059 304.398 145.246C304.221 145.433 304.081 145.652 303.978 145.904C303.876 146.147 303.815 146.408 303.796 146.688H307.954ZM309.102 148.704C308.944 149.516 308.594 150.127 308.052 150.538C307.511 150.949 306.83 151.154 306.008 151.154C305.43 151.154 304.926 151.061 304.496 150.874C304.076 150.687 303.722 150.426 303.432 150.09C303.143 149.754 302.924 149.353 302.774 148.886C302.634 148.419 302.555 147.911 302.536 147.36C302.536 146.809 302.62 146.305 302.788 145.848C302.956 145.391 303.19 144.994 303.488 144.658C303.796 144.322 304.156 144.061 304.566 143.874C304.986 143.687 305.444 143.594 305.938 143.594C306.582 143.594 307.114 143.729 307.534 144C307.964 144.261 308.304 144.597 308.556 145.008C308.818 145.419 308.995 145.867 309.088 146.352C309.191 146.837 309.233 147.299 309.214 147.738H303.796C303.787 148.055 303.824 148.359 303.908 148.648C303.992 148.928 304.128 149.18 304.314 149.404C304.501 149.619 304.739 149.791 305.028 149.922C305.318 150.053 305.658 150.118 306.05 150.118C306.554 150.118 306.965 150.001 307.282 149.768C307.609 149.535 307.824 149.18 307.926 148.704H309.102ZM311.351 148.718C311.36 148.979 311.421 149.203 311.533 149.39C311.645 149.567 311.79 149.712 311.967 149.824C312.154 149.927 312.359 150.001 312.583 150.048C312.816 150.095 313.054 150.118 313.297 150.118C313.484 150.118 313.68 150.104 313.885 150.076C314.09 150.048 314.277 149.997 314.445 149.922C314.622 149.847 314.767 149.74 314.879 149.6C314.991 149.451 315.047 149.264 315.047 149.04C315.047 148.732 314.93 148.499 314.697 148.34C314.464 148.181 314.17 148.055 313.815 147.962C313.47 147.859 313.092 147.771 312.681 147.696C312.27 147.612 311.888 147.5 311.533 147.36C311.188 147.211 310.898 147.005 310.665 146.744C310.432 146.483 310.315 146.119 310.315 145.652C310.315 145.288 310.394 144.975 310.553 144.714C310.721 144.453 310.931 144.243 311.183 144.084C311.444 143.916 311.734 143.795 312.051 143.72C312.378 143.636 312.7 143.594 313.017 143.594C313.428 143.594 313.806 143.631 314.151 143.706C314.496 143.771 314.8 143.893 315.061 144.07C315.332 144.238 315.546 144.471 315.705 144.77C315.864 145.059 315.957 145.423 315.985 145.862H314.795C314.776 145.629 314.716 145.437 314.613 145.288C314.51 145.129 314.38 145.003 314.221 144.91C314.062 144.817 313.885 144.751 313.689 144.714C313.502 144.667 313.311 144.644 313.115 144.644C312.938 144.644 312.756 144.658 312.569 144.686C312.392 144.714 312.228 144.765 312.079 144.84C311.93 144.905 311.808 144.999 311.715 145.12C311.622 145.232 311.575 145.381 311.575 145.568C311.575 145.773 311.645 145.946 311.785 146.086C311.934 146.217 312.121 146.329 312.345 146.422C312.569 146.506 312.821 146.581 313.101 146.646C313.381 146.702 313.661 146.763 313.941 146.828C314.24 146.893 314.529 146.973 314.809 147.066C315.098 147.159 315.35 147.285 315.565 147.444C315.789 147.593 315.966 147.785 316.097 148.018C316.237 148.251 316.307 148.541 316.307 148.886C316.307 149.325 316.214 149.689 316.027 149.978C315.85 150.267 315.612 150.501 315.313 150.678C315.024 150.855 314.692 150.977 314.319 151.042C313.955 151.117 313.591 151.154 313.227 151.154C312.826 151.154 312.443 151.112 312.079 151.028C311.715 150.944 311.393 150.809 311.113 150.622C310.833 150.426 310.609 150.174 310.441 149.866C310.273 149.549 310.18 149.166 310.161 148.718H311.351ZM322.712 146.086C322.619 145.629 322.423 145.274 322.124 145.022C321.825 144.77 321.424 144.644 320.92 144.644C320.491 144.644 320.131 144.723 319.842 144.882C319.553 145.041 319.319 145.251 319.142 145.512C318.974 145.773 318.853 146.077 318.778 146.422C318.703 146.758 318.666 147.108 318.666 147.472C318.666 147.808 318.703 148.135 318.778 148.452C318.862 148.769 318.988 149.054 319.156 149.306C319.324 149.549 319.543 149.745 319.814 149.894C320.085 150.043 320.407 150.118 320.78 150.118C321.368 150.118 321.825 149.964 322.152 149.656C322.488 149.348 322.693 148.914 322.768 148.354H323.986C323.855 149.25 323.519 149.941 322.978 150.426C322.446 150.911 321.718 151.154 320.794 151.154C320.243 151.154 319.753 151.065 319.324 150.888C318.904 150.711 318.549 150.459 318.26 150.132C317.98 149.805 317.765 149.418 317.616 148.97C317.476 148.513 317.406 148.013 317.406 147.472C317.406 146.931 317.476 146.427 317.616 145.96C317.756 145.484 317.966 145.073 318.246 144.728C318.535 144.373 318.895 144.098 319.324 143.902C319.753 143.697 320.253 143.594 320.822 143.594C321.233 143.594 321.615 143.645 321.97 143.748C322.334 143.841 322.651 143.991 322.922 144.196C323.202 144.401 323.431 144.663 323.608 144.98C323.785 145.288 323.897 145.657 323.944 146.086H322.712ZM325.45 143.762H326.57V145.288H326.598C326.888 144.7 327.242 144.266 327.662 143.986C328.082 143.706 328.614 143.575 329.258 143.594V144.854C328.782 144.854 328.376 144.919 328.04 145.05C327.704 145.181 327.434 145.372 327.228 145.624C327.023 145.876 326.874 146.184 326.78 146.548C326.687 146.903 326.64 147.313 326.64 147.78V151H325.45V143.762ZM331.59 142.46H330.4V141.004H331.59V142.46ZM330.4 143.762H331.59V151H330.4V143.762ZM333.65 143.762H334.84V144.742H334.868C335.064 144.341 335.372 144.051 335.792 143.874C336.212 143.687 336.674 143.594 337.178 143.594C337.738 143.594 338.223 143.697 338.634 143.902C339.054 144.107 339.399 144.387 339.67 144.742C339.95 145.087 340.16 145.489 340.3 145.946C340.44 146.403 340.51 146.889 340.51 147.402C340.51 147.915 340.44 148.401 340.3 148.858C340.169 149.315 339.964 149.717 339.684 150.062C339.413 150.398 339.068 150.664 338.648 150.86C338.237 151.056 337.757 151.154 337.206 151.154C337.029 151.154 336.828 151.135 336.604 151.098C336.389 151.061 336.175 151 335.96 150.916C335.745 150.832 335.54 150.72 335.344 150.58C335.157 150.431 334.999 150.249 334.868 150.034H334.84V153.758H333.65V143.762ZM339.25 147.318C339.25 146.982 339.203 146.655 339.11 146.338C339.026 146.011 338.891 145.722 338.704 145.47C338.527 145.218 338.293 145.017 338.004 144.868C337.724 144.719 337.393 144.644 337.01 144.644C336.609 144.644 336.268 144.723 335.988 144.882C335.708 145.041 335.479 145.251 335.302 145.512C335.125 145.764 334.994 146.053 334.91 146.38C334.835 146.707 334.798 147.038 334.798 147.374C334.798 147.729 334.84 148.074 334.924 148.41C335.008 148.737 335.139 149.026 335.316 149.278C335.503 149.53 335.741 149.735 336.03 149.894C336.319 150.043 336.669 150.118 337.08 150.118C337.491 150.118 337.831 150.039 338.102 149.88C338.382 149.721 338.606 149.511 338.774 149.25C338.942 148.989 339.063 148.69 339.138 148.354C339.213 148.018 339.25 147.673 339.25 147.318ZM343.734 143.762H345.176V144.812H343.734V149.306C343.734 149.446 343.743 149.558 343.762 149.642C343.79 149.726 343.837 149.791 343.902 149.838C343.967 149.885 344.056 149.917 344.168 149.936C344.289 149.945 344.443 149.95 344.63 149.95H345.176V151H344.266C343.958 151 343.692 150.981 343.468 150.944C343.253 150.897 343.076 150.818 342.936 150.706C342.805 150.594 342.707 150.435 342.642 150.23C342.577 150.025 342.544 149.754 342.544 149.418V144.812H341.312V143.762H342.544V141.592H343.734V143.762ZM347.933 142.46H346.743V141.004H347.933V142.46ZM346.743 143.762H347.933V151H346.743V143.762ZM350.819 147.388C350.819 147.827 350.875 148.219 350.987 148.564C351.109 148.9 351.272 149.185 351.477 149.418C351.683 149.642 351.921 149.815 352.191 149.936C352.471 150.057 352.765 150.118 353.073 150.118C353.381 150.118 353.671 150.057 353.941 149.936C354.221 149.815 354.464 149.642 354.669 149.418C354.875 149.185 355.033 148.9 355.145 148.564C355.267 148.219 355.327 147.827 355.327 147.388C355.327 146.949 355.267 146.562 355.145 146.226C355.033 145.881 354.875 145.591 354.669 145.358C354.464 145.125 354.221 144.947 353.941 144.826C353.671 144.705 353.381 144.644 353.073 144.644C352.765 144.644 352.471 144.705 352.191 144.826C351.921 144.947 351.683 145.125 351.477 145.358C351.272 145.591 351.109 145.881 350.987 146.226C350.875 146.562 350.819 146.949 350.819 147.388ZM349.559 147.388C349.559 146.856 349.634 146.361 349.783 145.904C349.933 145.437 350.157 145.036 350.455 144.7C350.754 144.355 351.123 144.084 351.561 143.888C352 143.692 352.504 143.594 353.073 143.594C353.652 143.594 354.156 143.692 354.585 143.888C355.024 144.084 355.393 144.355 355.691 144.7C355.99 145.036 356.214 145.437 356.363 145.904C356.513 146.361 356.587 146.856 356.587 147.388C356.587 147.92 356.513 148.415 356.363 148.872C356.214 149.329 355.99 149.731 355.691 150.076C355.393 150.412 355.024 150.678 354.585 150.874C354.156 151.061 353.652 151.154 353.073 151.154C352.504 151.154 352 151.061 351.561 150.874C351.123 150.678 350.754 150.412 350.455 150.076C350.157 149.731 349.933 149.329 349.783 148.872C349.634 148.415 349.559 147.92 349.559 147.388ZM358.166 143.762H359.286V144.91H359.314C359.808 144.033 360.592 143.594 361.666 143.594C362.142 143.594 362.538 143.659 362.856 143.79C363.173 143.921 363.43 144.103 363.626 144.336C363.822 144.569 363.957 144.849 364.032 145.176C364.116 145.493 364.158 145.848 364.158 146.24V151H362.968V146.1C362.968 145.652 362.837 145.297 362.576 145.036C362.314 144.775 361.955 144.644 361.498 144.644C361.134 144.644 360.816 144.7 360.546 144.812C360.284 144.924 360.065 145.083 359.888 145.288C359.71 145.493 359.575 145.736 359.482 146.016C359.398 146.287 359.356 146.585 359.356 146.912V151H358.166V143.762Z" fill="black" fill-opacity="0.68"/>
<path d="M428 134C428 125.163 435.163 118 444 118H468C476.837 118 484 125.163 484 134C484 142.837 476.837 150 468 150H444C435.163 150 428 142.837 428 134Z" fill="black" fill-opacity="0.44"/>
<g filter="url(#filter0_d_54907_94746)">
<g clip-path="url(#clip0_54907_94746)">
<path d="M436 134C436 129.582 439.582 126 444 126C448.418 126 452 129.582 452 134C452 138.418 448.418 142 444 142C439.582 142 436 138.418 436 134Z" fill="white"/>
</g>
</g>
<path d="M101.312 214.076H102.832V225.5H101.312V214.076ZM110.781 219.884C110.674 219.361 110.45 218.956 110.109 218.668C109.767 218.38 109.309 218.236 108.733 218.236C108.242 218.236 107.831 218.327 107.501 218.508C107.17 218.689 106.903 218.929 106.701 219.228C106.509 219.527 106.37 219.873 106.285 220.268C106.199 220.652 106.157 221.052 106.157 221.468C106.157 221.852 106.199 222.225 106.285 222.588C106.381 222.951 106.525 223.276 106.717 223.564C106.909 223.841 107.159 224.065 107.469 224.236C107.778 224.407 108.146 224.492 108.573 224.492C109.245 224.492 109.767 224.316 110.141 223.964C110.525 223.612 110.759 223.116 110.845 222.476H112.237C112.087 223.5 111.703 224.289 111.085 224.844C110.477 225.399 109.645 225.676 108.589 225.676C107.959 225.676 107.399 225.575 106.909 225.372C106.429 225.169 106.023 224.881 105.693 224.508C105.373 224.135 105.127 223.692 104.957 223.18C104.797 222.657 104.717 222.087 104.717 221.468C104.717 220.849 104.797 220.273 104.957 219.74C105.117 219.196 105.357 218.727 105.677 218.332C106.007 217.927 106.418 217.612 106.909 217.388C107.399 217.153 107.97 217.036 108.621 217.036C109.09 217.036 109.527 217.095 109.933 217.212C110.349 217.319 110.711 217.489 111.021 217.724C111.341 217.959 111.602 218.257 111.805 218.62C112.007 218.972 112.135 219.393 112.189 219.884H110.781ZM114.75 221.372C114.75 221.873 114.814 222.321 114.942 222.716C115.081 223.1 115.268 223.425 115.502 223.692C115.737 223.948 116.009 224.145 116.318 224.284C116.638 224.423 116.974 224.492 117.326 224.492C117.678 224.492 118.009 224.423 118.318 224.284C118.638 224.145 118.916 223.948 119.15 223.692C119.385 223.425 119.566 223.1 119.694 222.716C119.833 222.321 119.902 221.873 119.902 221.372C119.902 220.871 119.833 220.428 119.694 220.044C119.566 219.649 119.385 219.319 119.15 219.052C118.916 218.785 118.638 218.583 118.318 218.444C118.009 218.305 117.678 218.236 117.326 218.236C116.974 218.236 116.638 218.305 116.318 218.444C116.009 218.583 115.737 218.785 115.502 219.052C115.268 219.319 115.081 219.649 114.942 220.044C114.814 220.428 114.75 220.871 114.75 221.372ZM113.31 221.372C113.31 220.764 113.396 220.199 113.566 219.676C113.737 219.143 113.993 218.684 114.334 218.3C114.676 217.905 115.097 217.596 115.598 217.372C116.1 217.148 116.676 217.036 117.326 217.036C117.988 217.036 118.564 217.148 119.054 217.372C119.556 217.596 119.977 217.905 120.318 218.3C120.66 218.684 120.916 219.143 121.086 219.676C121.257 220.199 121.342 220.764 121.342 221.372C121.342 221.98 121.257 222.545 121.086 223.068C120.916 223.591 120.66 224.049 120.318 224.444C119.977 224.828 119.556 225.132 119.054 225.356C118.564 225.569 117.988 225.676 117.326 225.676C116.676 225.676 116.1 225.569 115.598 225.356C115.097 225.132 114.676 224.828 114.334 224.444C113.993 224.049 113.737 223.591 113.566 223.068C113.396 222.545 113.31 221.98 113.31 221.372ZM122.946 217.228H124.226V218.54H124.258C124.823 217.537 125.719 217.036 126.946 217.036C127.49 217.036 127.943 217.111 128.306 217.26C128.669 217.409 128.962 217.617 129.186 217.884C129.41 218.151 129.565 218.471 129.65 218.844C129.746 219.207 129.794 219.612 129.794 220.06V225.5H128.434V219.9C128.434 219.388 128.285 218.983 127.986 218.684C127.687 218.385 127.277 218.236 126.754 218.236C126.338 218.236 125.975 218.3 125.666 218.428C125.367 218.556 125.117 218.737 124.914 218.972C124.711 219.207 124.557 219.484 124.45 219.804C124.354 220.113 124.306 220.455 124.306 220.828V225.5H122.946V217.228Z" fill="black" fill-opacity="0.68"/>
<path fill-rule="evenodd" clip-rule="evenodd" d="M313.466 219.116L306 227.288L298.533 219.116L298.53 219.112C297.083 217.526 297.213 215.082 298.818 213.654C300.364 212.278 302.73 212.338 304.202 213.792C304.206 213.796 304.21 213.8 304.214 213.804L305.355 214.876L306 215.489L306.644 214.877L307.786 213.804C307.79 213.8 307.794 213.796 307.798 213.792C308.53 213.065 309.526 212.658 310.564 212.66C312.724 212.66 314.475 214.39 314.476 216.525C314.476 217.481 314.118 218.402 313.47 219.112L313.466 219.116ZM315.174 211.971C312.643 209.47 308.55 209.455 306 211.926C303.45 209.455 299.357 209.47 296.826 211.971C294.322 214.445 294.281 218.432 296.704 220.956L306 231.084L315.296 220.956C317.719 218.432 317.678 214.445 315.174 211.971Z" fill="black"/>
<path d="M333.248 214.576H334.768V224.72H340.816V226H333.248V214.576ZM349.443 225.968C349.208 226.107 348.883 226.176 348.467 226.176C348.115 226.176 347.832 226.08 347.619 225.888C347.416 225.685 347.315 225.36 347.315 224.912C346.941 225.36 346.504 225.685 346.003 225.888C345.512 226.08 344.979 226.176 344.403 226.176C344.029 226.176 343.672 226.133 343.331 226.048C343 225.963 342.712 225.829 342.467 225.648C342.221 225.467 342.024 225.232 341.875 224.944C341.736 224.645 341.667 224.288 341.667 223.872C341.667 223.403 341.747 223.019 341.907 222.72C342.067 222.421 342.275 222.181 342.531 222C342.797 221.808 343.096 221.664 343.427 221.568C343.768 221.472 344.115 221.392 344.467 221.328C344.84 221.253 345.192 221.2 345.523 221.168C345.864 221.125 346.163 221.072 346.419 221.008C346.675 220.933 346.877 220.832 347.027 220.704C347.176 220.565 347.251 220.368 347.251 220.112C347.251 219.813 347.192 219.573 347.075 219.392C346.968 219.211 346.824 219.072 346.643 218.976C346.472 218.88 346.275 218.816 346.051 218.784C345.837 218.752 345.624 218.736 345.411 218.736C344.835 218.736 344.355 218.848 343.971 219.072C343.587 219.285 343.379 219.696 343.347 220.304H341.987C342.008 219.792 342.115 219.36 342.307 219.008C342.499 218.656 342.755 218.373 343.075 218.16C343.395 217.936 343.757 217.776 344.163 217.68C344.579 217.584 345.021 217.536 345.491 217.536C345.864 217.536 346.232 217.563 346.595 217.616C346.968 217.669 347.304 217.781 347.603 217.952C347.901 218.112 348.141 218.341 348.323 218.64C348.504 218.939 348.595 219.328 348.595 219.808V224.064C348.595 224.384 348.611 224.619 348.643 224.768C348.685 224.917 348.813 224.992 349.027 224.992C349.144 224.992 349.283 224.965 349.443 224.912V225.968ZM347.235 221.728C347.064 221.856 346.84 221.952 346.563 222.016C346.285 222.069 345.992 222.117 345.683 222.16C345.384 222.192 345.08 222.235 344.771 222.288C344.461 222.331 344.184 222.405 343.939 222.512C343.693 222.619 343.491 222.773 343.331 222.976C343.181 223.168 343.107 223.435 343.107 223.776C343.107 224 343.149 224.192 343.235 224.352C343.331 224.501 343.448 224.624 343.587 224.72C343.736 224.816 343.907 224.885 344.099 224.928C344.291 224.971 344.493 224.992 344.707 224.992C345.155 224.992 345.539 224.933 345.859 224.816C346.179 224.688 346.44 224.533 346.643 224.352C346.845 224.16 346.995 223.957 347.091 223.744C347.187 223.52 347.235 223.312 347.235 223.12V221.728ZM350.956 214.576H352.316V218.848H352.348C352.572 218.389 352.924 218.059 353.404 217.856C353.884 217.643 354.412 217.536 354.988 217.536C355.628 217.536 356.183 217.653 356.652 217.888C357.132 218.123 357.527 218.443 357.836 218.848C358.156 219.243 358.396 219.701 358.556 220.224C358.716 220.747 358.796 221.301 358.796 221.888C358.796 222.475 358.716 223.029 358.556 223.552C358.407 224.075 358.172 224.533 357.852 224.928C357.543 225.312 357.148 225.616 356.668 225.84C356.199 226.064 355.65 226.176 355.02 226.176C354.818 226.176 354.588 226.155 354.332 226.112C354.087 226.069 353.842 226 353.596 225.904C353.351 225.808 353.116 225.68 352.892 225.52C352.679 225.349 352.498 225.141 352.348 224.896H352.316V226H350.956V214.576ZM357.356 221.792C357.356 221.408 357.303 221.035 357.196 220.672C357.1 220.299 356.946 219.968 356.732 219.68C356.53 219.392 356.263 219.163 355.932 218.992C355.612 218.821 355.234 218.736 354.796 218.736C354.338 218.736 353.948 218.827 353.628 219.008C353.308 219.189 353.047 219.429 352.844 219.728C352.642 220.016 352.492 220.347 352.396 220.72C352.311 221.093 352.268 221.472 352.268 221.856C352.268 222.261 352.316 222.656 352.412 223.04C352.508 223.413 352.658 223.744 352.86 224.032C353.074 224.32 353.346 224.555 353.676 224.736C354.007 224.907 354.407 224.992 354.876 224.992C355.346 224.992 355.735 224.901 356.044 224.72C356.364 224.539 356.62 224.299 356.812 224C357.004 223.701 357.143 223.36 357.228 222.976C357.314 222.592 357.356 222.197 357.356 221.792ZM366.337 221.072C366.315 220.752 366.241 220.448 366.113 220.16C365.995 219.872 365.83 219.627 365.617 219.424C365.414 219.211 365.169 219.045 364.881 218.928C364.603 218.8 364.294 218.736 363.953 218.736C363.601 218.736 363.281 218.8 362.993 218.928C362.715 219.045 362.475 219.211 362.273 219.424C362.07 219.637 361.91 219.888 361.793 220.176C361.675 220.453 361.606 220.752 361.585 221.072H366.337ZM367.649 223.376C367.467 224.304 367.067 225.003 366.449 225.472C365.83 225.941 365.051 226.176 364.113 226.176C363.451 226.176 362.875 226.069 362.385 225.856C361.905 225.643 361.499 225.344 361.169 224.96C360.838 224.576 360.587 224.117 360.417 223.584C360.257 223.051 360.166 222.469 360.145 221.84C360.145 221.211 360.241 220.635 360.433 220.112C360.625 219.589 360.891 219.136 361.233 218.752C361.585 218.368 361.995 218.069 362.465 217.856C362.945 217.643 363.467 217.536 364.033 217.536C364.769 217.536 365.377 217.691 365.857 218C366.347 218.299 366.737 218.683 367.025 219.152C367.323 219.621 367.526 220.133 367.633 220.688C367.75 221.243 367.798 221.771 367.777 222.272H361.585C361.574 222.635 361.617 222.981 361.713 223.312C361.809 223.632 361.963 223.92 362.177 224.176C362.39 224.421 362.662 224.619 362.993 224.768C363.323 224.917 363.713 224.992 364.161 224.992C364.737 224.992 365.206 224.859 365.569 224.592C365.942 224.325 366.187 223.92 366.305 223.376H367.649ZM369.466 214.576H370.826V226H369.466V214.576Z" fill="black"/>
<path d="M428 220C428 211.163 435.163 204 444 204H468C476.837 204 484 211.163 484 220C484 228.837 476.837 236 468 236H444C435.163 236 428 228.837 428 220Z" fill="black" fill-opacity="0.44"/>
<g filter="url(#filter1_d_54907_94746)">
<g clip-path="url(#clip1_54907_94746)">
<path d="M436 220C436 215.582 439.582 212 444 212C448.418 212 452 215.582 452 220C452 224.418 448.418 228 444 228C439.582 228 436 224.418 436 220Z" fill="white"/>
</g>
</g>
<path d="M102.768 304.22H105.296C105.467 304.22 105.68 304.209 105.936 304.188C106.192 304.156 106.464 304.092 106.752 303.996C107.04 303.889 107.323 303.74 107.6 303.548C107.888 303.356 108.144 303.095 108.368 302.764C108.592 302.433 108.773 302.023 108.912 301.532C109.061 301.031 109.136 300.428 109.136 299.724C109.136 299.041 109.067 298.433 108.928 297.9C108.8 297.356 108.581 296.897 108.272 296.524C107.973 296.14 107.584 295.852 107.104 295.66C106.624 295.457 106.032 295.356 105.328 295.356H102.768V304.22ZM101.248 294.076H105.168C106.928 294.076 108.283 294.524 109.232 295.42C110.181 296.316 110.656 297.681 110.656 299.516C110.656 300.476 110.549 301.329 110.336 302.076C110.123 302.812 109.792 303.436 109.344 303.948C108.896 304.449 108.325 304.833 107.632 305.1C106.939 305.367 106.117 305.5 105.168 305.5H101.248V294.076ZM113.73 295.74H112.37V294.076H113.73V295.74ZM112.37 297.228H113.73V305.5H112.37V297.228ZM119.565 305.5H118.109L115.037 297.228H116.557L118.877 304.124H118.909L121.165 297.228H122.589L119.565 305.5ZM125.277 295.74H123.917V294.076H125.277V295.74ZM123.917 297.228H125.277V305.5H123.917V297.228ZM128.375 301.436C128.375 301.82 128.423 302.199 128.519 302.572C128.626 302.935 128.781 303.26 128.983 303.548C129.197 303.836 129.463 304.065 129.783 304.236C130.114 304.407 130.498 304.492 130.935 304.492C131.394 304.492 131.783 304.401 132.103 304.22C132.423 304.039 132.685 303.804 132.887 303.516C133.09 303.217 133.234 302.881 133.319 302.508C133.415 302.135 133.463 301.756 133.463 301.372C133.463 300.967 133.415 300.577 133.319 300.204C133.223 299.82 133.069 299.484 132.855 299.196C132.653 298.908 132.386 298.679 132.055 298.508C131.725 298.327 131.325 298.236 130.855 298.236C130.397 298.236 130.007 298.327 129.687 298.508C129.367 298.689 129.111 298.929 128.919 299.228C128.727 299.527 128.589 299.868 128.503 300.252C128.418 300.636 128.375 301.031 128.375 301.436ZM134.775 305.5H133.415V304.38H133.383C133.159 304.839 132.807 305.169 132.327 305.372C131.847 305.575 131.319 305.676 130.743 305.676C130.103 305.676 129.543 305.559 129.063 305.324C128.594 305.089 128.199 304.775 127.879 304.38C127.57 303.985 127.335 303.527 127.175 303.004C127.015 302.481 126.935 301.927 126.935 301.34C126.935 300.753 127.01 300.199 127.159 299.676C127.319 299.153 127.554 298.7 127.863 298.316C128.183 297.921 128.578 297.612 129.047 297.388C129.527 297.153 130.082 297.036 130.711 297.036C130.925 297.036 131.154 297.057 131.399 297.1C131.645 297.143 131.89 297.217 132.135 297.324C132.381 297.42 132.61 297.553 132.823 297.724C133.047 297.884 133.234 298.087 133.383 298.332H133.415V294.076H134.775V305.5ZM142.612 300.572C142.59 300.252 142.516 299.948 142.388 299.66C142.27 299.372 142.105 299.127 141.892 298.924C141.689 298.711 141.444 298.545 141.156 298.428C140.878 298.3 140.569 298.236 140.228 298.236C139.876 298.236 139.556 298.3 139.268 298.428C138.99 298.545 138.75 298.711 138.548 298.924C138.345 299.137 138.185 299.388 138.068 299.676C137.95 299.953 137.881 300.252 137.86 300.572H142.612ZM143.924 302.876C143.742 303.804 143.342 304.503 142.724 304.972C142.105 305.441 141.326 305.676 140.388 305.676C139.726 305.676 139.15 305.569 138.66 305.356C138.18 305.143 137.774 304.844 137.444 304.46C137.113 304.076 136.862 303.617 136.692 303.084C136.532 302.551 136.441 301.969 136.42 301.34C136.42 300.711 136.516 300.135 136.708 299.612C136.9 299.089 137.166 298.636 137.508 298.252C137.86 297.868 138.27 297.569 138.74 297.356C139.22 297.143 139.742 297.036 140.308 297.036C141.044 297.036 141.652 297.191 142.132 297.5C142.622 297.799 143.012 298.183 143.3 298.652C143.598 299.121 143.801 299.633 143.908 300.188C144.025 300.743 144.073 301.271 144.052 301.772H137.86C137.849 302.135 137.892 302.481 137.988 302.812C138.084 303.132 138.238 303.42 138.452 303.676C138.665 303.921 138.937 304.119 139.268 304.268C139.598 304.417 139.988 304.492 140.436 304.492C141.012 304.492 141.481 304.359 141.844 304.092C142.217 303.825 142.462 303.42 142.58 302.876H143.924ZM145.414 297.228H146.694V298.972H146.726C147.056 298.3 147.462 297.804 147.942 297.484C148.422 297.164 149.03 297.015 149.766 297.036V298.476C149.222 298.476 148.758 298.551 148.374 298.7C147.99 298.849 147.68 299.068 147.446 299.356C147.211 299.644 147.04 299.996 146.934 300.412C146.827 300.817 146.774 301.287 146.774 301.82V305.5H145.414V297.228Z" fill="black" fill-opacity="0.68"/>
<path d="M293.248 294.576H294.768V304.72H300.816V306H293.248V294.576ZM309.443 305.968C309.208 306.107 308.883 306.176 308.467 306.176C308.115 306.176 307.832 306.08 307.619 305.888C307.416 305.685 307.315 305.36 307.315 304.912C306.941 305.36 306.504 305.685 306.003 305.888C305.512 306.08 304.979 306.176 304.403 306.176C304.029 306.176 303.672 306.133 303.331 306.048C303 305.963 302.712 305.829 302.467 305.648C302.221 305.467 302.024 305.232 301.875 304.944C301.736 304.645 301.667 304.288 301.667 303.872C301.667 303.403 301.747 303.019 301.907 302.72C302.067 302.421 302.275 302.181 302.531 302C302.797 301.808 303.096 301.664 303.427 301.568C303.768 301.472 304.115 301.392 304.467 301.328C304.84 301.253 305.192 301.2 305.523 301.168C305.864 301.125 306.163 301.072 306.419 301.008C306.675 300.933 306.877 300.832 307.027 300.704C307.176 300.565 307.251 300.368 307.251 300.112C307.251 299.813 307.192 299.573 307.075 299.392C306.968 299.211 306.824 299.072 306.643 298.976C306.472 298.88 306.275 298.816 306.051 298.784C305.837 298.752 305.624 298.736 305.411 298.736C304.835 298.736 304.355 298.848 303.971 299.072C303.587 299.285 303.379 299.696 303.347 300.304H301.987C302.008 299.792 302.115 299.36 302.307 299.008C302.499 298.656 302.755 298.373 303.075 298.16C303.395 297.936 303.757 297.776 304.163 297.68C304.579 297.584 305.021 297.536 305.491 297.536C305.864 297.536 306.232 297.563 306.595 297.616C306.968 297.669 307.304 297.781 307.603 297.952C307.901 298.112 308.141 298.341 308.323 298.64C308.504 298.939 308.595 299.328 308.595 299.808V304.064C308.595 304.384 308.611 304.619 308.643 304.768C308.685 304.917 308.813 304.992 309.027 304.992C309.144 304.992 309.283 304.965 309.443 304.912V305.968ZM307.235 301.728C307.064 301.856 306.84 301.952 306.563 302.016C306.285 302.069 305.992 302.117 305.683 302.16C305.384 302.192 305.08 302.235 304.771 302.288C304.461 302.331 304.184 302.405 303.939 302.512C303.693 302.619 303.491 302.773 303.331 302.976C303.181 303.168 303.107 303.435 303.107 303.776C303.107 304 303.149 304.192 303.235 304.352C303.331 304.501 303.448 304.624 303.587 304.72C303.736 304.816 303.907 304.885 304.099 304.928C304.291 304.971 304.493 304.992 304.707 304.992C305.155 304.992 305.539 304.933 305.859 304.816C306.179 304.688 306.44 304.533 306.643 304.352C306.845 304.16 306.995 303.957 307.091 303.744C307.187 303.52 307.235 303.312 307.235 303.12V301.728ZM310.956 294.576H312.316V298.848H312.348C312.572 298.389 312.924 298.059 313.404 297.856C313.884 297.643 314.412 297.536 314.988 297.536C315.628 297.536 316.183 297.653 316.652 297.888C317.132 298.123 317.527 298.443 317.836 298.848C318.156 299.243 318.396 299.701 318.556 300.224C318.716 300.747 318.796 301.301 318.796 301.888C318.796 302.475 318.716 303.029 318.556 303.552C318.407 304.075 318.172 304.533 317.852 304.928C317.543 305.312 317.148 305.616 316.668 305.84C316.199 306.064 315.65 306.176 315.02 306.176C314.818 306.176 314.588 306.155 314.332 306.112C314.087 306.069 313.842 306 313.596 305.904C313.351 305.808 313.116 305.68 312.892 305.52C312.679 305.349 312.498 305.141 312.348 304.896H312.316V306H310.956V294.576ZM317.356 301.792C317.356 301.408 317.303 301.035 317.196 300.672C317.1 300.299 316.946 299.968 316.732 299.68C316.53 299.392 316.263 299.163 315.932 298.992C315.612 298.821 315.234 298.736 314.796 298.736C314.338 298.736 313.948 298.827 313.628 299.008C313.308 299.189 313.047 299.429 312.844 299.728C312.642 300.016 312.492 300.347 312.396 300.72C312.311 301.093 312.268 301.472 312.268 301.856C312.268 302.261 312.316 302.656 312.412 303.04C312.508 303.413 312.658 303.744 312.86 304.032C313.074 304.32 313.346 304.555 313.676 304.736C314.007 304.907 314.407 304.992 314.876 304.992C315.346 304.992 315.735 304.901 316.044 304.72C316.364 304.539 316.62 304.299 316.812 304C317.004 303.701 317.143 303.36 317.228 302.976C317.314 302.592 317.356 302.197 317.356 301.792ZM326.337 301.072C326.315 300.752 326.241 300.448 326.113 300.16C325.995 299.872 325.83 299.627 325.617 299.424C325.414 299.211 325.169 299.045 324.881 298.928C324.603 298.8 324.294 298.736 323.953 298.736C323.601 298.736 323.281 298.8 322.993 298.928C322.715 299.045 322.475 299.211 322.273 299.424C322.07 299.637 321.91 299.888 321.793 300.176C321.675 300.453 321.606 300.752 321.585 301.072H326.337ZM327.649 303.376C327.467 304.304 327.067 305.003 326.449 305.472C325.83 305.941 325.051 306.176 324.113 306.176C323.451 306.176 322.875 306.069 322.385 305.856C321.905 305.643 321.499 305.344 321.169 304.96C320.838 304.576 320.587 304.117 320.417 303.584C320.257 303.051 320.166 302.469 320.145 301.84C320.145 301.211 320.241 300.635 320.433 300.112C320.625 299.589 320.891 299.136 321.233 298.752C321.585 298.368 321.995 298.069 322.465 297.856C322.945 297.643 323.467 297.536 324.033 297.536C324.769 297.536 325.377 297.691 325.857 298C326.347 298.299 326.737 298.683 327.025 299.152C327.323 299.621 327.526 300.133 327.633 300.688C327.75 301.243 327.798 301.771 327.777 302.272H321.585C321.574 302.635 321.617 302.981 321.713 303.312C321.809 303.632 321.963 303.92 322.177 304.176C322.39 304.421 322.662 304.619 322.993 304.768C323.323 304.917 323.713 304.992 324.161 304.992C324.737 304.992 325.206 304.859 325.569 304.592C325.942 304.325 326.187 303.92 326.305 303.376H327.649ZM329.466 294.576H330.826V306H329.466V294.576Z" fill="black"/>
<path d="M428 300C428 291.163 435.163 284 444 284H468C476.837 284 484 291.163 484 300C484 308.837 476.837 316 468 316H444C435.163 316 428 308.837 428 300Z" fill="black" fill-opacity="0.44"/>
<g filter="url(#filter2_d_54907_94746)">
<g clip-path="url(#clip2_54907_94746)">
<path d="M436 300C436 295.582 439.582 292 444 292C448.418 292 452 295.582 452 300C452 304.418 448.418 308 444 308C439.582 308 436 304.418 436 300Z" fill="white"/>
</g>
</g>
<path d="M276 327.5C363.477 327.5 412.523 327.5 500 327.5" stroke="black" stroke-opacity="0.2"/>
<path d="M101.248 388.076H109.136V389.356H102.768V392.988H108.704V394.268H102.768V398.22H109.184V399.5H101.248V388.076ZM110.757 391.228H112.037V392.972H112.069C112.4 392.3 112.805 391.804 113.285 391.484C113.765 391.164 114.373 391.015 115.109 391.036V392.476C114.565 392.476 114.101 392.551 113.717 392.7C113.333 392.849 113.024 393.068 112.789 393.356C112.555 393.644 112.384 393.996 112.277 394.412C112.171 394.817 112.117 395.287 112.117 395.82V399.5H110.757V391.228ZM116.085 391.228H117.365V392.972H117.397C117.728 392.3 118.133 391.804 118.613 391.484C119.093 391.164 119.701 391.015 120.437 391.036V392.476C119.893 392.476 119.429 392.551 119.045 392.7C118.661 392.849 118.352 393.068 118.117 393.356C117.883 393.644 117.712 393.996 117.605 394.412C117.499 394.817 117.445 395.287 117.445 395.82V399.5H116.085V391.228ZM122.172 395.372C122.172 395.873 122.236 396.321 122.364 396.716C122.503 397.1 122.69 397.425 122.924 397.692C123.159 397.948 123.431 398.145 123.74 398.284C124.06 398.423 124.396 398.492 124.748 398.492C125.1 398.492 125.431 398.423 125.74 398.284C126.06 398.145 126.338 397.948 126.572 397.692C126.807 397.425 126.988 397.1 127.116 396.716C127.255 396.321 127.324 395.873 127.324 395.372C127.324 394.871 127.255 394.428 127.116 394.044C126.988 393.649 126.807 393.319 126.572 393.052C126.338 392.785 126.06 392.583 125.74 392.444C125.431 392.305 125.1 392.236 124.748 392.236C124.396 392.236 124.06 392.305 123.74 392.444C123.431 392.583 123.159 392.785 122.924 393.052C122.69 393.319 122.503 393.649 122.364 394.044C122.236 394.428 122.172 394.871 122.172 395.372ZM120.732 395.372C120.732 394.764 120.818 394.199 120.988 393.676C121.159 393.143 121.415 392.684 121.756 392.3C122.098 391.905 122.519 391.596 123.02 391.372C123.522 391.148 124.098 391.036 124.748 391.036C125.41 391.036 125.986 391.148 126.476 391.372C126.978 391.596 127.399 391.905 127.74 392.3C128.082 392.684 128.338 393.143 128.508 393.676C128.679 394.199 128.764 394.764 128.764 395.372C128.764 395.98 128.679 396.545 128.508 397.068C128.338 397.591 128.082 398.049 127.74 398.444C127.399 398.828 126.978 399.132 126.476 399.356C125.986 399.569 125.41 399.676 124.748 399.676C124.098 399.676 123.522 399.569 123.02 399.356C122.519 399.132 122.098 398.828 121.756 398.444C121.415 398.049 121.159 397.591 120.988 397.068C120.818 396.545 120.732 395.98 120.732 395.372ZM130.32 391.228H131.6V392.972H131.632C131.962 392.3 132.368 391.804 132.848 391.484C133.328 391.164 133.936 391.015 134.672 391.036V392.476C134.128 392.476 133.664 392.551 133.28 392.7C132.896 392.849 132.586 393.068 132.352 393.356C132.117 393.644 131.946 393.996 131.84 394.412C131.733 394.817 131.68 395.287 131.68 395.82V399.5H130.32V391.228ZM140.149 391.228H141.429V392.444H141.461C142.08 391.505 142.97 391.036 144.133 391.036C144.645 391.036 145.109 391.143 145.525 391.356C145.941 391.569 146.234 391.932 146.405 392.444C146.682 391.996 147.045 391.649 147.493 391.404C147.952 391.159 148.453 391.036 148.997 391.036C149.413 391.036 149.786 391.084 150.117 391.18C150.458 391.265 150.746 391.404 150.981 391.596C151.226 391.788 151.413 392.039 151.541 392.348C151.68 392.647 151.749 393.009 151.749 393.436V399.5H150.389V394.076C150.389 393.82 150.368 393.58 150.325 393.356C150.282 393.132 150.202 392.94 150.085 392.78C149.968 392.609 149.802 392.476 149.589 392.38C149.386 392.284 149.12 392.236 148.789 392.236C148.117 392.236 147.589 392.428 147.205 392.812C146.821 393.196 146.629 393.708 146.629 394.348V399.5H145.269V394.076C145.269 393.809 145.242 393.564 145.189 393.34C145.146 393.116 145.066 392.924 144.949 392.764C144.832 392.593 144.672 392.465 144.469 392.38C144.277 392.284 144.026 392.236 143.717 392.236C143.322 392.236 142.981 392.316 142.693 392.476C142.416 392.636 142.186 392.828 142.005 393.052C141.834 393.276 141.706 393.511 141.621 393.756C141.546 393.991 141.509 394.188 141.509 394.348V399.5H140.149V391.228ZM159.534 394.572C159.512 394.252 159.438 393.948 159.31 393.66C159.192 393.372 159.027 393.127 158.814 392.924C158.611 392.711 158.366 392.545 158.078 392.428C157.8 392.3 157.491 392.236 157.15 392.236C156.798 392.236 156.478 392.3 156.19 392.428C155.912 392.545 155.672 392.711 155.47 392.924C155.267 393.137 155.107 393.388 154.99 393.676C154.872 393.953 154.803 394.252 154.782 394.572H159.534ZM160.846 396.876C160.664 397.804 160.264 398.503 159.646 398.972C159.027 399.441 158.248 399.676 157.31 399.676C156.648 399.676 156.072 399.569 155.582 399.356C155.102 399.143 154.696 398.844 154.366 398.46C154.035 398.076 153.784 397.617 153.614 397.084C153.454 396.551 153.363 395.969 153.342 395.34C153.342 394.711 153.438 394.135 153.63 393.612C153.822 393.089 154.088 392.636 154.43 392.252C154.782 391.868 155.192 391.569 155.662 391.356C156.142 391.143 156.664 391.036 157.23 391.036C157.966 391.036 158.574 391.191 159.054 391.5C159.544 391.799 159.934 392.183 160.222 392.652C160.52 393.121 160.723 393.633 160.83 394.188C160.947 394.743 160.995 395.271 160.974 395.772H154.782C154.771 396.135 154.814 396.481 154.91 396.812C155.006 397.132 155.16 397.42 155.374 397.676C155.587 397.921 155.859 398.119 156.19 398.268C156.52 398.417 156.91 398.492 157.358 398.492C157.934 398.492 158.403 398.359 158.766 398.092C159.139 397.825 159.384 397.42 159.502 396.876H160.846ZM163.215 396.892C163.226 397.191 163.295 397.447 163.423 397.66C163.551 397.863 163.717 398.028 163.919 398.156C164.133 398.273 164.367 398.359 164.623 398.412C164.89 398.465 165.162 398.492 165.439 398.492C165.653 398.492 165.877 398.476 166.111 398.444C166.346 398.412 166.559 398.353 166.751 398.268C166.954 398.183 167.119 398.06 167.247 397.9C167.375 397.729 167.439 397.516 167.439 397.26C167.439 396.908 167.306 396.641 167.039 396.46C166.773 396.279 166.437 396.135 166.031 396.028C165.637 395.911 165.205 395.809 164.735 395.724C164.266 395.628 163.829 395.5 163.423 395.34C163.029 395.169 162.698 394.935 162.431 394.636C162.165 394.337 162.031 393.921 162.031 393.388C162.031 392.972 162.122 392.615 162.303 392.316C162.495 392.017 162.735 391.777 163.023 391.596C163.322 391.404 163.653 391.265 164.015 391.18C164.389 391.084 164.757 391.036 165.119 391.036C165.589 391.036 166.021 391.079 166.415 391.164C166.81 391.239 167.157 391.377 167.455 391.58C167.765 391.772 168.01 392.039 168.191 392.38C168.373 392.711 168.479 393.127 168.511 393.628H167.151C167.13 393.361 167.061 393.143 166.943 392.972C166.826 392.791 166.677 392.647 166.495 392.54C166.314 392.433 166.111 392.359 165.887 392.316C165.674 392.263 165.455 392.236 165.231 392.236C165.029 392.236 164.821 392.252 164.607 392.284C164.405 392.316 164.218 392.375 164.047 392.46C163.877 392.535 163.738 392.641 163.631 392.78C163.525 392.908 163.471 393.079 163.471 393.292C163.471 393.527 163.551 393.724 163.711 393.884C163.882 394.033 164.095 394.161 164.351 394.268C164.607 394.364 164.895 394.449 165.215 394.524C165.535 394.588 165.855 394.657 166.175 394.732C166.517 394.807 166.847 394.897 167.167 395.004C167.498 395.111 167.786 395.255 168.031 395.436C168.287 395.607 168.49 395.825 168.639 396.092C168.799 396.359 168.879 396.689 168.879 397.084C168.879 397.585 168.773 398.001 168.559 398.332C168.357 398.663 168.085 398.929 167.743 399.132C167.413 399.335 167.034 399.473 166.607 399.548C166.191 399.633 165.775 399.676 165.359 399.676C164.901 399.676 164.463 399.628 164.047 399.532C163.631 399.436 163.263 399.281 162.943 399.068C162.623 398.844 162.367 398.556 162.175 398.204C161.983 397.841 161.877 397.404 161.855 396.892H163.215ZM171.215 396.892C171.226 397.191 171.295 397.447 171.423 397.66C171.551 397.863 171.717 398.028 171.919 398.156C172.133 398.273 172.367 398.359 172.623 398.412C172.89 398.465 173.162 398.492 173.439 398.492C173.653 398.492 173.877 398.476 174.111 398.444C174.346 398.412 174.559 398.353 174.751 398.268C174.954 398.183 175.119 398.06 175.247 397.9C175.375 397.729 175.439 397.516 175.439 397.26C175.439 396.908 175.306 396.641 175.039 396.46C174.773 396.279 174.437 396.135 174.031 396.028C173.637 395.911 173.205 395.809 172.735 395.724C172.266 395.628 171.829 395.5 171.423 395.34C171.029 395.169 170.698 394.935 170.431 394.636C170.165 394.337 170.031 393.921 170.031 393.388C170.031 392.972 170.122 392.615 170.303 392.316C170.495 392.017 170.735 391.777 171.023 391.596C171.322 391.404 171.653 391.265 172.015 391.18C172.389 391.084 172.757 391.036 173.119 391.036C173.589 391.036 174.021 391.079 174.415 391.164C174.81 391.239 175.157 391.377 175.455 391.58C175.765 391.772 176.01 392.039 176.191 392.38C176.373 392.711 176.479 393.127 176.511 393.628H175.151C175.13 393.361 175.061 393.143 174.943 392.972C174.826 392.791 174.677 392.647 174.495 392.54C174.314 392.433 174.111 392.359 173.887 392.316C173.674 392.263 173.455 392.236 173.231 392.236C173.029 392.236 172.821 392.252 172.607 392.284C172.405 392.316 172.218 392.375 172.047 392.46C171.877 392.535 171.738 392.641 171.631 392.78C171.525 392.908 171.471 393.079 171.471 393.292C171.471 393.527 171.551 393.724 171.711 393.884C171.882 394.033 172.095 394.161 172.351 394.268C172.607 394.364 172.895 394.449 173.215 394.524C173.535 394.588 173.855 394.657 174.175 394.732C174.517 394.807 174.847 394.897 175.167 395.004C175.498 395.111 175.786 395.255 176.031 395.436C176.287 395.607 176.49 395.825 176.639 396.092C176.799 396.359 176.879 396.689 176.879 397.084C176.879 397.585 176.773 398.001 176.559 398.332C176.357 398.663 176.085 398.929 175.743 399.132C175.413 399.335 175.034 399.473 174.607 399.548C174.191 399.633 173.775 399.676 173.359 399.676C172.901 399.676 172.463 399.628 172.047 399.532C171.631 399.436 171.263 399.281 170.943 399.068C170.623 398.844 170.367 398.556 170.175 398.204C169.983 397.841 169.877 397.404 169.855 396.892H171.215ZM185.711 399.468C185.477 399.607 185.151 399.676 184.735 399.676C184.383 399.676 184.101 399.58 183.887 399.388C183.685 399.185 183.583 398.86 183.583 398.412C183.21 398.86 182.773 399.185 182.271 399.388C181.781 399.58 181.247 399.676 180.671 399.676C180.298 399.676 179.941 399.633 179.599 399.548C179.269 399.463 178.981 399.329 178.735 399.148C178.49 398.967 178.293 398.732 178.143 398.444C178.005 398.145 177.935 397.788 177.935 397.372C177.935 396.903 178.015 396.519 178.175 396.22C178.335 395.921 178.543 395.681 178.799 395.5C179.066 395.308 179.365 395.164 179.695 395.068C180.037 394.972 180.383 394.892 180.735 394.828C181.109 394.753 181.461 394.7 181.791 394.668C182.133 394.625 182.431 394.572 182.687 394.508C182.943 394.433 183.146 394.332 183.295 394.204C183.445 394.065 183.519 393.868 183.519 393.612C183.519 393.313 183.461 393.073 183.343 392.892C183.237 392.711 183.093 392.572 182.911 392.476C182.741 392.38 182.543 392.316 182.319 392.284C182.106 392.252 181.893 392.236 181.679 392.236C181.103 392.236 180.623 392.348 180.239 392.572C179.855 392.785 179.647 393.196 179.615 393.804H178.255C178.277 393.292 178.383 392.86 178.575 392.508C178.767 392.156 179.023 391.873 179.343 391.66C179.663 391.436 180.026 391.276 180.431 391.18C180.847 391.084 181.29 391.036 181.759 391.036C182.133 391.036 182.501 391.063 182.863 391.116C183.237 391.169 183.573 391.281 183.871 391.452C184.17 391.612 184.41 391.841 184.591 392.14C184.773 392.439 184.863 392.828 184.863 393.308V397.564C184.863 397.884 184.879 398.119 184.911 398.268C184.954 398.417 185.082 398.492 185.295 398.492C185.413 398.492 185.551 398.465 185.711 398.412V399.468ZM183.503 395.228C183.333 395.356 183.109 395.452 182.831 395.516C182.554 395.569 182.261 395.617 181.951 395.66C181.653 395.692 181.349 395.735 181.039 395.788C180.73 395.831 180.453 395.905 180.207 396.012C179.962 396.119 179.759 396.273 179.599 396.476C179.45 396.668 179.375 396.935 179.375 397.276C179.375 397.5 179.418 397.692 179.503 397.852C179.599 398.001 179.717 398.124 179.855 398.22C180.005 398.316 180.175 398.385 180.367 398.428C180.559 398.471 180.762 398.492 180.975 398.492C181.423 398.492 181.807 398.433 182.127 398.316C182.447 398.188 182.709 398.033 182.911 397.852C183.114 397.66 183.263 397.457 183.359 397.244C183.455 397.02 183.503 396.812 183.503 396.62V395.228ZM194.113 398.796C194.113 400.151 193.804 401.164 193.185 401.836C192.566 402.508 191.596 402.844 190.273 402.844C189.889 402.844 189.494 402.801 189.089 402.716C188.694 402.631 188.332 402.492 188.001 402.3C187.681 402.108 187.414 401.857 187.201 401.548C186.988 401.239 186.87 400.86 186.849 400.412H188.209C188.22 400.657 188.294 400.865 188.433 401.036C188.582 401.207 188.758 401.345 188.961 401.452C189.174 401.559 189.404 401.633 189.649 401.676C189.894 401.729 190.129 401.756 190.353 401.756C190.801 401.756 191.18 401.676 191.489 401.516C191.798 401.367 192.054 401.153 192.257 400.876C192.46 400.609 192.604 400.284 192.689 399.9C192.785 399.516 192.833 399.095 192.833 398.636V398.092H192.801C192.566 398.604 192.209 398.983 191.729 399.228C191.26 399.463 190.758 399.58 190.225 399.58C189.606 399.58 189.068 399.468 188.609 399.244C188.15 399.02 187.766 398.721 187.457 398.348C187.148 397.964 186.913 397.521 186.753 397.02C186.604 396.508 186.529 395.969 186.529 395.404C186.529 394.913 186.593 394.412 186.721 393.9C186.849 393.377 187.062 392.908 187.361 392.492C187.66 392.065 188.054 391.719 188.545 391.452C189.036 391.175 189.638 391.036 190.353 391.036C190.876 391.036 191.356 391.153 191.793 391.388C192.23 391.612 192.572 391.953 192.817 392.412H192.833V391.228H194.113V398.796ZM190.305 398.396C190.753 398.396 191.132 398.305 191.441 398.124C191.761 397.932 192.017 397.687 192.209 397.388C192.401 397.079 192.54 396.732 192.625 396.348C192.721 395.964 192.769 395.58 192.769 395.196C192.769 394.833 192.726 394.476 192.641 394.124C192.556 393.772 192.417 393.457 192.225 393.18C192.044 392.892 191.804 392.663 191.505 392.492C191.206 392.321 190.844 392.236 190.417 392.236C189.98 392.236 189.606 392.321 189.297 392.492C188.988 392.652 188.732 392.871 188.529 393.148C188.337 393.425 188.193 393.745 188.097 394.108C188.012 394.471 187.969 394.849 187.969 395.244C187.969 395.617 188.006 395.991 188.081 396.364C188.156 396.737 188.284 397.079 188.465 397.388C188.646 397.687 188.886 397.932 189.185 398.124C189.484 398.305 189.857 398.396 190.305 398.396ZM201.909 394.572C201.887 394.252 201.813 393.948 201.685 393.66C201.567 393.372 201.402 393.127 201.189 392.924C200.986 392.711 200.741 392.545 200.453 392.428C200.175 392.3 199.866 392.236 199.525 392.236C199.173 392.236 198.853 392.3 198.565 392.428C198.287 392.545 198.047 392.711 197.845 392.924C197.642 393.137 197.482 393.388 197.365 393.676C197.247 393.953 197.178 394.252 197.157 394.572H201.909ZM203.221 396.876C203.039 397.804 202.639 398.503 202.021 398.972C201.402 399.441 200.623 399.676 199.685 399.676C199.023 399.676 198.447 399.569 197.957 399.356C197.477 399.143 197.071 398.844 196.741 398.46C196.41 398.076 196.159 397.617 195.989 397.084C195.829 396.551 195.738 395.969 195.717 395.34C195.717 394.711 195.813 394.135 196.005 393.612C196.197 393.089 196.463 392.636 196.805 392.252C197.157 391.868 197.567 391.569 198.037 391.356C198.517 391.143 199.039 391.036 199.605 391.036C200.341 391.036 200.949 391.191 201.429 391.5C201.919 391.799 202.309 392.183 202.597 392.652C202.895 393.121 203.098 393.633 203.205 394.188C203.322 394.743 203.37 395.271 203.349 395.772H197.157C197.146 396.135 197.189 396.481 197.285 396.812C197.381 397.132 197.535 397.42 197.749 397.676C197.962 397.921 198.234 398.119 198.565 398.268C198.895 398.417 199.285 398.492 199.733 398.492C200.309 398.492 200.778 398.359 201.141 398.092C201.514 397.825 201.759 397.42 201.877 396.876H203.221Z" fill="black" fill-opacity="0.68"/>
<path d="M306 370.4C300.698 370.4 296.4 374.698 296.4 380C296.4 385.302 300.698 389.6 306 389.6C311.302 389.6 315.6 385.302 315.6 380C315.6 374.698 311.302 370.4 306 370.4ZM304.8 376.032C304.8 374.844 305.2 374.273 306 374.273C306.8 374.273 307.2 374.844 307.2 376.032V380.567C307.2 381.755 306.815 382.341 306 382.341C305.2 382.341 304.8 381.755 304.8 380.567V376.032ZM305.987 386.15C305.222 386.15 304.6 385.527 304.6 384.743C304.6 383.959 305.222 383.352 305.987 383.352C306.753 383.352 307.375 383.975 307.375 384.743C307.375 385.511 306.753 386.15 305.987 386.15Z" fill="#DB0002"/>
<path d="M333.248 374.576H334.768V384.72H340.816V386H333.248V374.576ZM349.443 385.968C349.208 386.107 348.883 386.176 348.467 386.176C348.115 386.176 347.832 386.08 347.619 385.888C347.416 385.685 347.315 385.36 347.315 384.912C346.941 385.36 346.504 385.685 346.003 385.888C345.512 386.08 344.979 386.176 344.403 386.176C344.029 386.176 343.672 386.133 343.331 386.048C343 385.963 342.712 385.829 342.467 385.648C342.221 385.467 342.024 385.232 341.875 384.944C341.736 384.645 341.667 384.288 341.667 383.872C341.667 383.403 341.747 383.019 341.907 382.72C342.067 382.421 342.275 382.181 342.531 382C342.797 381.808 343.096 381.664 343.427 381.568C343.768 381.472 344.115 381.392 344.467 381.328C344.84 381.253 345.192 381.2 345.523 381.168C345.864 381.125 346.163 381.072 346.419 381.008C346.675 380.933 346.877 380.832 347.027 380.704C347.176 380.565 347.251 380.368 347.251 380.112C347.251 379.813 347.192 379.573 347.075 379.392C346.968 379.211 346.824 379.072 346.643 378.976C346.472 378.88 346.275 378.816 346.051 378.784C345.837 378.752 345.624 378.736 345.411 378.736C344.835 378.736 344.355 378.848 343.971 379.072C343.587 379.285 343.379 379.696 343.347 380.304H341.987C342.008 379.792 342.115 379.36 342.307 379.008C342.499 378.656 342.755 378.373 343.075 378.16C343.395 377.936 343.757 377.776 344.163 377.68C344.579 377.584 345.021 377.536 345.491 377.536C345.864 377.536 346.232 377.563 346.595 377.616C346.968 377.669 347.304 377.781 347.603 377.952C347.901 378.112 348.141 378.341 348.323 378.64C348.504 378.939 348.595 379.328 348.595 379.808V384.064C348.595 384.384 348.611 384.619 348.643 384.768C348.685 384.917 348.813 384.992 349.027 384.992C349.144 384.992 349.283 384.965 349.443 384.912V385.968ZM347.235 381.728C347.064 381.856 346.84 381.952 346.563 382.016C346.285 382.069 345.992 382.117 345.683 382.16C345.384 382.192 345.08 382.235 344.771 382.288C344.461 382.331 344.184 382.405 343.939 382.512C343.693 382.619 343.491 382.773 343.331 382.976C343.181 383.168 343.107 383.435 343.107 383.776C343.107 384 343.149 384.192 343.235 384.352C343.331 384.501 343.448 384.624 343.587 384.72C343.736 384.816 343.907 384.885 344.099 384.928C344.291 384.971 344.493 384.992 344.707 384.992C345.155 384.992 345.539 384.933 345.859 384.816C346.179 384.688 346.44 384.533 346.643 384.352C346.845 384.16 346.995 383.957 347.091 383.744C347.187 383.52 347.235 383.312 347.235 383.12V381.728ZM350.956 374.576H352.316V378.848H352.348C352.572 378.389 352.924 378.059 353.404 377.856C353.884 377.643 354.412 377.536 354.988 377.536C355.628 377.536 356.183 377.653 356.652 377.888C357.132 378.123 357.527 378.443 357.836 378.848C358.156 379.243 358.396 379.701 358.556 380.224C358.716 380.747 358.796 381.301 358.796 381.888C358.796 382.475 358.716 383.029 358.556 383.552C358.407 384.075 358.172 384.533 357.852 384.928C357.543 385.312 357.148 385.616 356.668 385.84C356.199 386.064 355.65 386.176 355.02 386.176C354.818 386.176 354.588 386.155 354.332 386.112C354.087 386.069 353.842 386 353.596 385.904C353.351 385.808 353.116 385.68 352.892 385.52C352.679 385.349 352.498 385.141 352.348 384.896H352.316V386H350.956V374.576ZM357.356 381.792C357.356 381.408 357.303 381.035 357.196 380.672C357.1 380.299 356.946 379.968 356.732 379.68C356.53 379.392 356.263 379.163 355.932 378.992C355.612 378.821 355.234 378.736 354.796 378.736C354.338 378.736 353.948 378.827 353.628 379.008C353.308 379.189 353.047 379.429 352.844 379.728C352.642 380.016 352.492 380.347 352.396 380.72C352.311 381.093 352.268 381.472 352.268 381.856C352.268 382.261 352.316 382.656 352.412 383.04C352.508 383.413 352.658 383.744 352.86 384.032C353.074 384.32 353.346 384.555 353.676 384.736C354.007 384.907 354.407 384.992 354.876 384.992C355.346 384.992 355.735 384.901 356.044 384.72C356.364 384.539 356.62 384.299 356.812 384C357.004 383.701 357.143 383.36 357.228 382.976C357.314 382.592 357.356 382.197 357.356 381.792ZM366.337 381.072C366.315 380.752 366.241 380.448 366.113 380.16C365.995 379.872 365.83 379.627 365.617 379.424C365.414 379.211 365.169 379.045 364.881 378.928C364.603 378.8 364.294 378.736 363.953 378.736C363.601 378.736 363.281 378.8 362.993 378.928C362.715 379.045 362.475 379.211 362.273 379.424C362.07 379.637 361.91 379.888 361.793 380.176C361.675 380.453 361.606 380.752 361.585 381.072H366.337ZM367.649 383.376C367.467 384.304 367.067 385.003 366.449 385.472C365.83 385.941 365.051 386.176 364.113 386.176C363.451 386.176 362.875 386.069 362.385 385.856C361.905 385.643 361.499 385.344 361.169 384.96C360.838 384.576 360.587 384.117 360.417 383.584C360.257 383.051 360.166 382.469 360.145 381.84C360.145 381.211 360.241 380.635 360.433 380.112C360.625 379.589 360.891 379.136 361.233 378.752C361.585 378.368 361.995 378.069 362.465 377.856C362.945 377.643 363.467 377.536 364.033 377.536C364.769 377.536 365.377 377.691 365.857 378C366.347 378.299 366.737 378.683 367.025 379.152C367.323 379.621 367.526 380.133 367.633 380.688C367.75 381.243 367.798 381.771 367.777 382.272H361.585C361.574 382.635 361.617 382.981 361.713 383.312C361.809 383.632 361.963 383.92 362.177 384.176C362.39 384.421 362.662 384.619 362.993 384.768C363.323 384.917 363.713 384.992 364.161 384.992C364.737 384.992 365.206 384.859 365.569 384.592C365.942 384.325 366.187 383.92 366.305 383.376H367.649ZM369.466 374.576H370.826V386H369.466V374.576Z" fill="#DB0002"/>
<path d="M428 380C428 371.163 435.163 364 444 364H468C476.837 364 484 371.163 484 380C484 388.837 476.837 396 468 396H444C435.163 396 428 388.837 428 380Z" fill="black" fill-opacity="0.44"/>
<g filter="url(#filter3_d_54907_94746)">
<g clip-path="url(#clip3_54907_94746)">
<path d="M436 380C436 375.582 439.582 372 444 372C448.418 372 452 375.582 452 380C452 384.418 448.418 388 444 388C439.582 388 436 384.418 436 380Z" fill="white"/>
</g>
</g>
<path d="M295.36 422.124H292.028V421.004H300.022V422.124H296.69V431H295.36V422.124ZM301.11 421.004H302.3V424.826H302.328C302.421 424.602 302.552 424.415 302.72 424.266C302.888 424.107 303.075 423.981 303.28 423.888C303.495 423.785 303.714 423.711 303.938 423.664C304.171 423.617 304.395 423.594 304.61 423.594C305.086 423.594 305.483 423.659 305.8 423.79C306.117 423.921 306.374 424.103 306.57 424.336C306.766 424.569 306.901 424.849 306.976 425.176C307.06 425.493 307.102 425.848 307.102 426.24V431H305.912V426.1C305.912 425.652 305.781 425.297 305.52 425.036C305.259 424.775 304.899 424.644 304.442 424.644C304.078 424.644 303.761 424.7 303.49 424.812C303.229 424.924 303.009 425.083 302.832 425.288C302.655 425.493 302.519 425.736 302.426 426.016C302.342 426.287 302.3 426.585 302.3 426.912V431H301.11V421.004ZM310.324 422.46H309.134V421.004H310.324V422.46ZM309.134 423.762H310.324V431H309.134V423.762ZM313.071 428.718C313.08 428.979 313.141 429.203 313.253 429.39C313.365 429.567 313.51 429.712 313.687 429.824C313.874 429.927 314.079 430.001 314.303 430.048C314.536 430.095 314.774 430.118 315.017 430.118C315.204 430.118 315.4 430.104 315.605 430.076C315.81 430.048 315.997 429.997 316.165 429.922C316.342 429.847 316.487 429.74 316.599 429.6C316.711 429.451 316.767 429.264 316.767 429.04C316.767 428.732 316.65 428.499 316.417 428.34C316.184 428.181 315.89 428.055 315.535 427.962C315.19 427.859 314.812 427.771 314.401 427.696C313.99 427.612 313.608 427.5 313.253 427.36C312.908 427.211 312.618 427.005 312.385 426.744C312.152 426.483 312.035 426.119 312.035 425.652C312.035 425.288 312.114 424.975 312.273 424.714C312.441 424.453 312.651 424.243 312.903 424.084C313.164 423.916 313.454 423.795 313.771 423.72C314.098 423.636 314.42 423.594 314.737 423.594C315.148 423.594 315.526 423.631 315.871 423.706C316.216 423.771 316.52 423.893 316.781 424.07C317.052 424.238 317.266 424.471 317.425 424.77C317.584 425.059 317.677 425.423 317.705 425.862H316.515C316.496 425.629 316.436 425.437 316.333 425.288C316.23 425.129 316.1 425.003 315.941 424.91C315.782 424.817 315.605 424.751 315.409 424.714C315.222 424.667 315.031 424.644 314.835 424.644C314.658 424.644 314.476 424.658 314.289 424.686C314.112 424.714 313.948 424.765 313.799 424.84C313.65 424.905 313.528 424.999 313.435 425.12C313.342 425.232 313.295 425.381 313.295 425.568C313.295 425.773 313.365 425.946 313.505 426.086C313.654 426.217 313.841 426.329 314.065 426.422C314.289 426.506 314.541 426.581 314.821 426.646C315.101 426.702 315.381 426.763 315.661 426.828C315.96 426.893 316.249 426.973 316.529 427.066C316.818 427.159 317.07 427.285 317.285 427.444C317.509 427.593 317.686 427.785 317.817 428.018C317.957 428.251 318.027 428.541 318.027 428.886C318.027 429.325 317.934 429.689 317.747 429.978C317.57 430.267 317.332 430.501 317.033 430.678C316.744 430.855 316.412 430.977 316.039 431.042C315.675 431.117 315.311 431.154 314.947 431.154C314.546 431.154 314.163 431.112 313.799 431.028C313.435 430.944 313.113 430.809 312.833 430.622C312.553 430.426 312.329 430.174 312.161 429.866C311.993 429.549 311.9 429.166 311.881 428.718H313.071ZM327.803 431V423.762H328.993V431H327.803ZM327.803 422.46V421.004H328.993V422.46H327.803ZM324.079 424.812H322.861V423.762H324.079V422.684C324.079 422.096 324.247 421.653 324.583 421.354C324.929 421.046 325.428 420.892 326.081 420.892C326.193 420.892 326.319 420.901 326.459 420.92C326.609 420.939 326.739 420.967 326.851 421.004V422.04C326.749 422.003 326.637 421.979 326.515 421.97C326.394 421.951 326.282 421.942 326.179 421.942C325.89 421.942 325.666 421.998 325.507 422.11C325.349 422.222 325.269 422.437 325.269 422.754V423.762H326.669V424.812H325.269V431H324.079V424.812ZM336.036 426.688C336.018 426.408 335.952 426.142 335.84 425.89C335.738 425.638 335.593 425.423 335.406 425.246C335.229 425.059 335.014 424.915 334.762 424.812C334.52 424.7 334.249 424.644 333.95 424.644C333.642 424.644 333.362 424.7 333.11 424.812C332.868 424.915 332.658 425.059 332.48 425.246C332.303 425.433 332.163 425.652 332.06 425.904C331.958 426.147 331.897 426.408 331.878 426.688H336.036ZM337.184 428.704C337.026 429.516 336.676 430.127 336.134 430.538C335.593 430.949 334.912 431.154 334.09 431.154C333.512 431.154 333.008 431.061 332.578 430.874C332.158 430.687 331.804 430.426 331.514 430.09C331.225 429.754 331.006 429.353 330.856 428.886C330.716 428.419 330.637 427.911 330.618 427.36C330.618 426.809 330.702 426.305 330.87 425.848C331.038 425.391 331.272 424.994 331.57 424.658C331.878 424.322 332.238 424.061 332.648 423.874C333.068 423.687 333.526 423.594 334.02 423.594C334.664 423.594 335.196 423.729 335.616 424C336.046 424.261 336.386 424.597 336.638 425.008C336.9 425.419 337.077 425.867 337.17 426.352C337.273 426.837 337.315 427.299 337.296 427.738H331.878C331.869 428.055 331.906 428.359 331.99 428.648C332.074 428.928 332.21 429.18 332.396 429.404C332.583 429.619 332.821 429.791 333.11 429.922C333.4 430.053 333.74 430.118 334.132 430.118C334.636 430.118 335.047 430.001 335.364 429.768C335.691 429.535 335.906 429.18 336.008 428.704H337.184ZM338.775 421.004H339.965V431H338.775V421.004ZM342.852 427.444C342.852 427.78 342.894 428.111 342.978 428.438C343.071 428.755 343.206 429.04 343.384 429.292C343.57 429.544 343.804 429.745 344.084 429.894C344.373 430.043 344.709 430.118 345.092 430.118C345.493 430.118 345.834 430.039 346.114 429.88C346.394 429.721 346.622 429.516 346.8 429.264C346.977 429.003 347.103 428.709 347.178 428.382C347.262 428.055 347.304 427.724 347.304 427.388C347.304 427.033 347.262 426.693 347.178 426.366C347.094 426.03 346.958 425.736 346.772 425.484C346.594 425.232 346.361 425.031 346.072 424.882C345.782 424.723 345.432 424.644 345.022 424.644C344.62 424.644 344.28 424.723 344 424.882C343.72 425.041 343.496 425.251 343.328 425.512C343.16 425.773 343.038 426.072 342.964 426.408C342.889 426.744 342.852 427.089 342.852 427.444ZM348.452 431H347.262V430.02H347.234C347.038 430.421 346.73 430.711 346.31 430.888C345.89 431.065 345.428 431.154 344.924 431.154C344.364 431.154 343.874 431.051 343.454 430.846C343.043 430.641 342.698 430.365 342.418 430.02C342.147 429.675 341.942 429.273 341.802 428.816C341.662 428.359 341.592 427.873 341.592 427.36C341.592 426.847 341.657 426.361 341.788 425.904C341.928 425.447 342.133 425.05 342.404 424.714C342.684 424.369 343.029 424.098 343.44 423.902C343.86 423.697 344.345 423.594 344.896 423.594C345.082 423.594 345.283 423.613 345.498 423.65C345.712 423.687 345.927 423.753 346.142 423.846C346.356 423.93 346.557 424.047 346.744 424.196C346.94 424.336 347.103 424.513 347.234 424.728H347.262V421.004H348.452V431ZM359.443 426.086C359.349 425.629 359.153 425.274 358.855 425.022C358.556 424.77 358.155 424.644 357.651 424.644C357.221 424.644 356.862 424.723 356.573 424.882C356.283 425.041 356.05 425.251 355.873 425.512C355.705 425.773 355.583 426.077 355.509 426.422C355.434 426.758 355.397 427.108 355.397 427.472C355.397 427.808 355.434 428.135 355.509 428.452C355.593 428.769 355.719 429.054 355.887 429.306C356.055 429.549 356.274 429.745 356.545 429.894C356.815 430.043 357.137 430.118 357.511 430.118C358.099 430.118 358.556 429.964 358.883 429.656C359.219 429.348 359.424 428.914 359.499 428.354H360.717C360.586 429.25 360.25 429.941 359.709 430.426C359.177 430.911 358.449 431.154 357.525 431.154C356.974 431.154 356.484 431.065 356.055 430.888C355.635 430.711 355.28 430.459 354.991 430.132C354.711 429.805 354.496 429.418 354.347 428.97C354.207 428.513 354.137 428.013 354.137 427.472C354.137 426.931 354.207 426.427 354.347 425.96C354.487 425.484 354.697 425.073 354.977 424.728C355.266 424.373 355.625 424.098 356.055 423.902C356.484 423.697 356.983 423.594 357.553 423.594C357.963 423.594 358.346 423.645 358.701 423.748C359.065 423.841 359.382 423.991 359.653 424.196C359.933 424.401 360.161 424.663 360.339 424.98C360.516 425.288 360.628 425.657 360.675 426.086H359.443ZM368.635 430.972C368.43 431.093 368.145 431.154 367.781 431.154C367.473 431.154 367.226 431.07 367.039 430.902C366.862 430.725 366.773 430.44 366.773 430.048C366.447 430.44 366.064 430.725 365.625 430.902C365.196 431.07 364.729 431.154 364.225 431.154C363.899 431.154 363.586 431.117 363.287 431.042C362.998 430.967 362.746 430.851 362.531 430.692C362.317 430.533 362.144 430.328 362.013 430.076C361.892 429.815 361.831 429.502 361.831 429.138C361.831 428.727 361.901 428.391 362.041 428.13C362.181 427.869 362.363 427.659 362.587 427.5C362.821 427.332 363.082 427.206 363.371 427.122C363.67 427.038 363.973 426.968 364.281 426.912C364.608 426.847 364.916 426.8 365.205 426.772C365.504 426.735 365.765 426.688 365.989 426.632C366.213 426.567 366.391 426.478 366.521 426.366C366.652 426.245 366.717 426.072 366.717 425.848C366.717 425.587 366.666 425.377 366.563 425.218C366.47 425.059 366.344 424.938 366.185 424.854C366.036 424.77 365.863 424.714 365.667 424.686C365.481 424.658 365.294 424.644 365.107 424.644C364.603 424.644 364.183 424.742 363.847 424.938C363.511 425.125 363.329 425.484 363.301 426.016H362.111C362.13 425.568 362.223 425.19 362.391 424.882C362.559 424.574 362.783 424.327 363.063 424.14C363.343 423.944 363.661 423.804 364.015 423.72C364.379 423.636 364.767 423.594 365.177 423.594C365.504 423.594 365.826 423.617 366.143 423.664C366.47 423.711 366.764 423.809 367.025 423.958C367.287 424.098 367.497 424.299 367.655 424.56C367.814 424.821 367.893 425.162 367.893 425.582V429.306C367.893 429.586 367.907 429.791 367.935 429.922C367.973 430.053 368.085 430.118 368.271 430.118C368.374 430.118 368.495 430.095 368.635 430.048V430.972ZM366.703 427.262C366.554 427.374 366.358 427.458 366.115 427.514C365.873 427.561 365.616 427.603 365.345 427.64C365.084 427.668 364.818 427.705 364.547 427.752C364.277 427.789 364.034 427.855 363.819 427.948C363.605 428.041 363.427 428.177 363.287 428.354C363.157 428.522 363.091 428.755 363.091 429.054C363.091 429.25 363.129 429.418 363.203 429.558C363.287 429.689 363.39 429.796 363.511 429.88C363.642 429.964 363.791 430.025 363.959 430.062C364.127 430.099 364.305 430.118 364.491 430.118C364.883 430.118 365.219 430.067 365.499 429.964C365.779 429.852 366.008 429.717 366.185 429.558C366.363 429.39 366.493 429.213 366.577 429.026C366.661 428.83 366.703 428.648 366.703 428.48V427.262ZM369.918 423.762H371.038V424.91H371.066C371.561 424.033 372.345 423.594 373.418 423.594C373.894 423.594 374.291 423.659 374.608 423.79C374.925 423.921 375.182 424.103 375.378 424.336C375.574 424.569 375.709 424.849 375.784 425.176C375.868 425.493 375.91 425.848 375.91 426.24V431H374.72V426.1C374.72 425.652 374.589 425.297 374.328 425.036C374.067 424.775 373.707 424.644 373.25 424.644C372.886 424.644 372.569 424.7 372.298 424.812C372.037 424.924 371.817 425.083 371.64 425.288C371.463 425.493 371.327 425.736 371.234 426.016C371.15 426.287 371.108 426.585 371.108 426.912V431H369.918V423.762ZM378.138 421.004H379.692V422.558C379.692 422.838 379.66 423.104 379.594 423.356C379.538 423.599 379.445 423.813 379.314 424C379.193 424.187 379.034 424.336 378.838 424.448C378.652 424.56 378.423 424.616 378.152 424.616V423.916C378.311 423.916 378.442 423.879 378.544 423.804C378.647 423.72 378.731 423.613 378.796 423.482C378.862 423.351 378.904 423.207 378.922 423.048C378.95 422.88 378.964 422.717 378.964 422.558H378.138V421.004ZM383.35 423.762H384.792V424.812H383.35V429.306C383.35 429.446 383.359 429.558 383.378 429.642C383.406 429.726 383.452 429.791 383.518 429.838C383.583 429.885 383.672 429.917 383.784 429.936C383.905 429.945 384.059 429.95 384.246 429.95H384.792V431H383.882C383.574 431 383.308 430.981 383.084 430.944C382.869 430.897 382.692 430.818 382.552 430.706C382.421 430.594 382.323 430.435 382.258 430.23C382.192 430.025 382.16 429.754 382.16 429.418V424.812H380.928V423.762H382.16V421.592H383.35V423.762ZM390.402 421.004H391.592V424.742H391.62C391.816 424.341 392.124 424.051 392.544 423.874C392.964 423.687 393.426 423.594 393.93 423.594C394.49 423.594 394.975 423.697 395.386 423.902C395.806 424.107 396.151 424.387 396.422 424.742C396.702 425.087 396.912 425.489 397.052 425.946C397.192 426.403 397.262 426.889 397.262 427.402C397.262 427.915 397.192 428.401 397.052 428.858C396.921 429.315 396.716 429.717 396.436 430.062C396.165 430.398 395.82 430.664 395.4 430.86C394.989 431.056 394.509 431.154 393.958 431.154C393.781 431.154 393.58 431.135 393.356 431.098C393.141 431.061 392.927 431 392.712 430.916C392.497 430.832 392.292 430.72 392.096 430.58C391.909 430.431 391.751 430.249 391.62 430.034H391.592V431H390.402V421.004ZM396.002 427.318C396.002 426.982 395.955 426.655 395.862 426.338C395.778 426.011 395.643 425.722 395.456 425.47C395.279 425.218 395.045 425.017 394.756 424.868C394.476 424.719 394.145 424.644 393.762 424.644C393.361 424.644 393.02 424.723 392.74 424.882C392.46 425.041 392.231 425.251 392.054 425.512C391.877 425.764 391.746 426.053 391.662 426.38C391.587 426.707 391.55 427.038 391.55 427.374C391.55 427.729 391.592 428.074 391.676 428.41C391.76 428.737 391.891 429.026 392.068 429.278C392.255 429.53 392.493 429.735 392.782 429.894C393.071 430.043 393.421 430.118 393.832 430.118C394.243 430.118 394.583 430.039 394.854 429.88C395.134 429.721 395.358 429.511 395.526 429.25C395.694 428.989 395.815 428.69 395.89 428.354C395.965 428.018 396.002 427.673 396.002 427.318ZM403.86 426.688C403.841 426.408 403.776 426.142 403.664 425.89C403.561 425.638 403.417 425.423 403.23 425.246C403.053 425.059 402.838 424.915 402.586 424.812C402.343 424.7 402.073 424.644 401.774 424.644C401.466 424.644 401.186 424.7 400.934 424.812C400.691 424.915 400.481 425.059 400.304 425.246C400.127 425.433 399.987 425.652 399.884 425.904C399.781 426.147 399.721 426.408 399.702 426.688H403.86ZM405.008 428.704C404.849 429.516 404.499 430.127 403.958 430.538C403.417 430.949 402.735 431.154 401.914 431.154C401.335 431.154 400.831 431.061 400.402 430.874C399.982 430.687 399.627 430.426 399.338 430.09C399.049 429.754 398.829 429.353 398.68 428.886C398.54 428.419 398.461 427.911 398.442 427.36C398.442 426.809 398.526 426.305 398.694 425.848C398.862 425.391 399.095 424.994 399.394 424.658C399.702 424.322 400.061 424.061 400.472 423.874C400.892 423.687 401.349 423.594 401.844 423.594C402.488 423.594 403.02 423.729 403.44 424C403.869 424.261 404.21 424.597 404.462 425.008C404.723 425.419 404.901 425.867 404.994 426.352C405.097 426.837 405.139 427.299 405.12 427.738H399.702C399.693 428.055 399.73 428.359 399.814 428.648C399.898 428.928 400.033 429.18 400.22 429.404C400.407 429.619 400.645 429.791 400.934 429.922C401.223 430.053 401.564 430.118 401.956 430.118C402.46 430.118 402.871 430.001 403.188 429.768C403.515 429.535 403.729 429.18 403.832 428.704H405.008ZM415.626 426.688C415.607 426.408 415.542 426.142 415.43 425.89C415.327 425.638 415.183 425.423 414.996 425.246C414.819 425.059 414.604 424.915 414.352 424.812C414.109 424.7 413.839 424.644 413.54 424.644C413.232 424.644 412.952 424.7 412.7 424.812C412.457 424.915 412.247 425.059 412.07 425.246C411.893 425.433 411.753 425.652 411.65 425.904C411.547 426.147 411.487 426.408 411.468 426.688H415.626ZM416.774 428.704C416.615 429.516 416.265 430.127 415.724 430.538C415.183 430.949 414.501 431.154 413.68 431.154C413.101 431.154 412.597 431.061 412.168 430.874C411.748 430.687 411.393 430.426 411.104 430.09C410.815 429.754 410.595 429.353 410.446 428.886C410.306 428.419 410.227 427.911 410.208 427.36C410.208 426.809 410.292 426.305 410.46 425.848C410.628 425.391 410.861 424.994 411.16 424.658C411.468 424.322 411.827 424.061 412.238 423.874C412.658 423.687 413.115 423.594 413.61 423.594C414.254 423.594 414.786 423.729 415.206 424C415.635 424.261 415.976 424.597 416.228 425.008C416.489 425.419 416.667 425.867 416.76 426.352C416.863 426.837 416.905 427.299 416.886 427.738H411.468C411.459 428.055 411.496 428.359 411.58 428.648C411.664 428.928 411.799 429.18 411.986 429.404C412.173 429.619 412.411 429.791 412.7 429.922C412.989 430.053 413.33 430.118 413.722 430.118C414.226 430.118 414.637 430.001 414.954 429.768C415.281 429.535 415.495 429.18 415.598 428.704H416.774ZM418.294 423.762H419.414V424.826H419.442C419.984 424.005 420.763 423.594 421.78 423.594C422.228 423.594 422.634 423.687 422.998 423.874C423.362 424.061 423.619 424.378 423.768 424.826C424.011 424.434 424.328 424.131 424.72 423.916C425.122 423.701 425.56 423.594 426.036 423.594C426.4 423.594 426.727 423.636 427.016 423.72C427.315 423.795 427.567 423.916 427.772 424.084C427.987 424.252 428.15 424.471 428.262 424.742C428.384 425.003 428.444 425.321 428.444 425.694V431H427.254V426.254C427.254 426.03 427.236 425.82 427.198 425.624C427.161 425.428 427.091 425.26 426.988 425.12C426.886 424.971 426.741 424.854 426.554 424.77C426.377 424.686 426.144 424.644 425.854 424.644C425.266 424.644 424.804 424.812 424.468 425.148C424.132 425.484 423.964 425.932 423.964 426.492V431H422.774V426.254C422.774 426.021 422.751 425.806 422.704 425.61C422.667 425.414 422.597 425.246 422.494 425.106C422.392 424.957 422.252 424.845 422.074 424.77C421.906 424.686 421.687 424.644 421.416 424.644C421.071 424.644 420.772 424.714 420.52 424.854C420.278 424.994 420.077 425.162 419.918 425.358C419.769 425.554 419.657 425.759 419.582 425.974C419.517 426.179 419.484 426.352 419.484 426.492V431H418.294V423.762ZM430.447 423.762H431.637V424.742H431.665C431.861 424.341 432.169 424.051 432.589 423.874C433.009 423.687 433.471 423.594 433.975 423.594C434.535 423.594 435.02 423.697 435.431 423.902C435.851 424.107 436.196 424.387 436.467 424.742C436.747 425.087 436.957 425.489 437.097 425.946C437.237 426.403 437.307 426.889 437.307 427.402C437.307 427.915 437.237 428.401 437.097 428.858C436.966 429.315 436.761 429.717 436.481 430.062C436.21 430.398 435.865 430.664 435.445 430.86C435.034 431.056 434.554 431.154 434.003 431.154C433.826 431.154 433.625 431.135 433.401 431.098C433.186 431.061 432.972 431 432.757 430.916C432.542 430.832 432.337 430.72 432.141 430.58C431.954 430.431 431.796 430.249 431.665 430.034H431.637V433.758H430.447V423.762ZM436.047 427.318C436.047 426.982 436 426.655 435.907 426.338C435.823 426.011 435.688 425.722 435.501 425.47C435.324 425.218 435.09 425.017 434.801 424.868C434.521 424.719 434.19 424.644 433.807 424.644C433.406 424.644 433.065 424.723 432.785 424.882C432.505 425.041 432.276 425.251 432.099 425.512C431.922 425.764 431.791 426.053 431.707 426.38C431.632 426.707 431.595 427.038 431.595 427.374C431.595 427.729 431.637 428.074 431.721 428.41C431.805 428.737 431.936 429.026 432.113 429.278C432.3 429.53 432.538 429.735 432.827 429.894C433.116 430.043 433.466 430.118 433.877 430.118C434.288 430.118 434.628 430.039 434.899 429.88C435.179 429.721 435.403 429.511 435.571 429.25C435.739 428.989 435.86 428.69 435.935 428.354C436.01 428.018 436.047 427.673 436.047 427.318ZM440.531 423.762H441.973V424.812H440.531V429.306C440.531 429.446 440.54 429.558 440.559 429.642C440.587 429.726 440.633 429.791 440.699 429.838C440.764 429.885 440.853 429.917 440.965 429.936C441.086 429.945 441.24 429.95 441.427 429.95H441.973V431H441.063C440.755 431 440.489 430.981 440.265 430.944C440.05 430.897 439.873 430.818 439.733 430.706C439.602 430.594 439.504 430.435 439.439 430.23C439.373 430.025 439.341 429.754 439.341 429.418V424.812H438.109V423.762H439.341V421.592H440.531V423.762ZM446.312 431.966C446.172 432.321 446.032 432.619 445.892 432.862C445.761 433.105 445.612 433.301 445.444 433.45C445.285 433.609 445.103 433.721 444.898 433.786C444.702 433.861 444.473 433.898 444.212 433.898C444.072 433.898 443.932 433.889 443.792 433.87C443.652 433.851 443.516 433.819 443.386 433.772V432.68C443.488 432.727 443.605 432.764 443.736 432.792C443.876 432.829 443.992 432.848 444.086 432.848C444.328 432.848 444.529 432.787 444.688 432.666C444.856 432.554 444.982 432.391 445.066 432.176L445.556 430.958L442.686 423.762H444.03L446.144 429.684H446.172L448.202 423.762H449.462L446.312 431.966ZM449.872 429.446H451.426V431H449.872V429.446Z" fill="#DB0002"/>
<defs>
<filter id="filter0_d_54907_94746" x="434" y="125" width="20" height="20" filterUnits="userSpaceOnUse" color-interpolation-filters="sRGB">
<feFlood flood-opacity="0" result="BackgroundImageFix"/>
<feColorMatrix in="SourceAlpha" type="matrix" values="0 0 0 0 0 0 0 0 0 0 0 0 0 0 0 0 0 0 127 0" result="hardAlpha"/>
<feOffset dy="1"/>
<feGaussianBlur stdDeviation="1"/>
<feComposite in2="hardAlpha" operator="out"/>
<feColorMatrix type="matrix" values="0 0 0 0 0 0 0 0 0 0 0 0 0 0 0 0 0 0 0.24 0"/>
<feBlend mode="normal" in2="BackgroundImageFix" result="effect1_dropShadow_54907_94746"/>
<feBlend mode="normal" in="SourceGraphic" in2="effect1_dropShadow_54907_94746" result="shape"/>
</filter>
<filter id="filter1_d_54907_94746" x="434" y="211" width="20" height="20" filterUnits="userSpaceOnUse" color-interpolation-filters="sRGB">
<feFlood flood-opacity="0" result="BackgroundImageFix"/>
<feColorMatrix in="SourceAlpha" type="matrix" values="0 0 0 0 0 0 0 0 0 0 0 0 0 0 0 0 0 0 127 0" result="hardAlpha"/>
<feOffset dy="1"/>
<feGaussianBlur stdDeviation="1"/>
<feComposite in2="hardAlpha" operator="out"/>
<feColorMatrix type="matrix" values="0 0 0 0 0 0 0 0 0 0 0 0 0 0 0 0 0 0 0.24 0"/>
<feBlend mode="normal" in2="BackgroundImageFix" result="effect1_dropShadow_54907_94746"/>
<feBlend mode="normal" in="SourceGraphic" in2="effect1_dropShadow_54907_94746" result="shape"/>
</filter>
<filter id="filter2_d_54907_94746" x="434" y="291" width="20" height="20" filterUnits="userSpaceOnUse" color-interpolation-filters="sRGB">
<feFlood flood-opacity="0" result="BackgroundImageFix"/>
<feColorMatrix in="SourceAlpha" type="matrix" values="0 0 0 0 0 0 0 0 0 0 0 0 0 0 0 0 0 0 127 0" result="hardAlpha"/>
<feOffset dy="1"/>
<feGaussianBlur stdDeviation="1"/>
<feComposite in2="hardAlpha" operator="out"/>
<feColorMatrix type="matrix" values="0 0 0 0 0 0 0 0 0 0 0 0 0 0 0 0 0 0 0.24 0"/>
<feBlend mode="normal" in2="BackgroundImageFix" result="effect1_dropShadow_54907_94746"/>
<feBlend mode="normal" in="SourceGraphic" in2="effect1_dropShadow_54907_94746" result="shape"/>
</filter>
<filter id="filter3_d_54907_94746" x="434" y="371" width="20" height="20" filterUnits="userSpaceOnUse" color-interpolation-filters="sRGB">
<feFlood flood-opacity="0" result="BackgroundImageFix"/>
<feColorMatrix in="SourceAlpha" type="matrix" values="0 0 0 0 0 0 0 0 0 0 0 0 0 0 0 0 0 0 127 0" result="hardAlpha"/>
<feOffset dy="1"/>
<feGaussianBlur stdDeviation="1"/>
<feComposite in2="hardAlpha" operator="out"/>
<feColorMatrix type="matrix" values="0 0 0 0 0 0 0 0 0 0 0 0 0 0 0 0 0 0 0.24 0"/>
<feBlend mode="normal" in2="BackgroundImageFix" result="effect1_dropShadow_54907_94746"/>
<feBlend mode="normal" in="SourceGraphic" in2="effect1_dropShadow_54907_94746" result="shape"/>
</filter>
<clipPath id="clip0_54907_94746">
<path d="M436 134C436 129.582 439.582 126 444 126C448.418 126 452 129.582 452 134C452 138.418 448.418 142 444 142C439.582 142 436 138.418 436 134Z" fill="white"/>
</clipPath>
<clipPath id="clip1_54907_94746">
<path d="M436 220C436 215.582 439.582 212 444 212C448.418 212 452 215.582 452 220C452 224.418 448.418 228 444 228C439.582 228 436 224.418 436 220Z" fill="white"/>
</clipPath>
<clipPath id="clip2_54907_94746">
<path d="M436 300C436 295.582 439.582 292 444 292C448.418 292 452 295.582 452 300C452 304.418 448.418 308 444 308C439.582 308 436 304.418 436 300Z" fill="white"/>
</clipPath>
<clipPath id="clip3_54907_94746">
<path d="M436 380C436 375.582 439.582 372 444 372C448.418 372 452 375.582 452 380C452 384.418 448.418 388 444 388C439.582 388 436 384.418 436 380Z" fill="white"/>
</clipPath>
</defs>
</svg>
