<svg width="600" height="797" viewBox="0 0 600 797" fill="none" xmlns="http://www.w3.org/2000/svg">
<rect width="600" height="797" fill="black" fill-opacity="0.04"/>
<path d="M101.248 74.576H109.136V75.856H102.768V79.488H108.704V80.768H102.768V84.72H109.184V86H101.248V74.576ZM110.805 77.728H112.085V79.04H112.117C112.683 78.0373 113.579 77.536 114.805 77.536C115.349 77.536 115.803 77.6107 116.165 77.76C116.528 77.9093 116.821 78.1173 117.045 78.384C117.269 78.6507 117.424 78.9707 117.509 79.344C117.605 79.7067 117.653 80.112 117.653 80.56V86H116.293V80.4C116.293 79.888 116.144 79.4827 115.845 79.184C115.547 78.8853 115.136 78.736 114.613 78.736C114.197 78.736 113.835 78.8 113.525 78.928C113.227 79.056 112.976 79.2373 112.773 79.472C112.571 79.7067 112.416 79.984 112.309 80.304C112.213 80.6133 112.165 80.9547 112.165 81.328V86H110.805V77.728ZM127.024 85.968C126.789 86.1067 126.464 86.176 126.048 86.176C125.696 86.176 125.413 86.08 125.2 85.888C124.997 85.6853 124.896 85.36 124.896 84.912C124.523 85.36 124.085 85.6853 123.584 85.888C123.093 86.08 122.56 86.176 121.984 86.176C121.611 86.176 121.253 86.1333 120.912 86.048C120.581 85.9627 120.293 85.8293 120.048 85.648C119.803 85.4667 119.605 85.232 119.456 84.944C119.317 84.6453 119.248 84.288 119.248 83.872C119.248 83.4027 119.328 83.0187 119.488 82.72C119.648 82.4213 119.856 82.1813 120.112 82C120.379 81.808 120.677 81.664 121.008 81.568C121.349 81.472 121.696 81.392 122.048 81.328C122.421 81.2533 122.773 81.2 123.104 81.168C123.445 81.1253 123.744 81.072 124 81.008C124.256 80.9333 124.459 80.832 124.608 80.704C124.757 80.5653 124.832 80.368 124.832 80.112C124.832 79.8133 124.773 79.5733 124.656 79.392C124.549 79.2107 124.405 79.072 124.224 78.976C124.053 78.88 123.856 78.816 123.632 78.784C123.419 78.752 123.205 78.736 122.992 78.736C122.416 78.736 121.936 78.848 121.552 79.072C121.168 79.2853 120.96 79.696 120.928 80.304H119.568C119.589 79.792 119.696 79.36 119.888 79.008C120.08 78.656 120.336 78.3733 120.656 78.16C120.976 77.936 121.339 77.776 121.744 77.68C122.16 77.584 122.603 77.536 123.072 77.536C123.445 77.536 123.813 77.5627 124.176 77.616C124.549 77.6693 124.885 77.7813 125.184 77.952C125.483 78.112 125.723 78.3413 125.904 78.64C126.085 78.9387 126.176 79.328 126.176 79.808V84.064C126.176 84.384 126.192 84.6187 126.224 84.768C126.267 84.9173 126.395 84.992 126.608 84.992C126.725 84.992 126.864 84.9653 127.024 84.912V85.968ZM124.816 81.728C124.645 81.856 124.421 81.952 124.144 82.016C123.867 82.0693 123.573 82.1173 123.264 82.16C122.965 82.192 122.661 82.2347 122.352 82.288C122.043 82.3307 121.765 82.4053 121.52 82.512C121.275 82.6187 121.072 82.7733 120.912 82.976C120.763 83.168 120.688 83.4347 120.688 83.776C120.688 84 120.731 84.192 120.816 84.352C120.912 84.5013 121.029 84.624 121.168 84.72C121.317 84.816 121.488 84.8853 121.68 84.928C121.872 84.9707 122.075 84.992 122.288 84.992C122.736 84.992 123.12 84.9333 123.44 84.816C123.76 84.688 124.021 84.5333 124.224 84.352C124.427 84.16 124.576 83.9573 124.672 83.744C124.768 83.52 124.816 83.312 124.816 83.12V81.728ZM128.338 74.576H129.698V78.848H129.73C129.954 78.3893 130.306 78.0587 130.786 77.856C131.266 77.6427 131.794 77.536 132.37 77.536C133.01 77.536 133.564 77.6533 134.034 77.888C134.514 78.1227 134.908 78.4427 135.218 78.848C135.538 79.2427 135.778 79.7013 135.938 80.224C136.098 80.7467 136.178 81.3013 136.178 81.888C136.178 82.4747 136.098 83.0293 135.938 83.552C135.788 84.0747 135.554 84.5333 135.234 84.928C134.924 85.312 134.53 85.616 134.05 85.84C133.58 86.064 133.031 86.176 132.402 86.176C132.199 86.176 131.97 86.1547 131.714 86.112C131.468 86.0693 131.223 86 130.978 85.904C130.732 85.808 130.498 85.68 130.274 85.52C130.06 85.3493 129.879 85.1413 129.73 84.896H129.698V86H128.338V74.576ZM134.738 81.792C134.738 81.408 134.684 81.0347 134.578 80.672C134.482 80.2987 134.327 79.968 134.114 79.68C133.911 79.392 133.644 79.1627 133.314 78.992C132.994 78.8213 132.615 78.736 132.178 78.736C131.719 78.736 131.33 78.8267 131.01 79.008C130.69 79.1893 130.428 79.4293 130.226 79.728C130.023 80.016 129.874 80.3467 129.778 80.72C129.692 81.0933 129.65 81.472 129.65 81.856C129.65 82.2613 129.698 82.656 129.794 83.04C129.89 83.4133 130.039 83.744 130.242 84.032C130.455 84.32 130.727 84.5547 131.058 84.736C131.388 84.9067 131.788 84.992 132.258 84.992C132.727 84.992 133.116 84.9013 133.426 84.72C133.746 84.5387 134.002 84.2987 134.194 84C134.386 83.7013 134.524 83.36 134.61 82.976C134.695 82.592 134.738 82.1973 134.738 81.792ZM137.854 74.576H139.214V86H137.854V74.576ZM147.065 81.072C147.044 80.752 146.969 80.448 146.841 80.16C146.724 79.872 146.558 79.6267 146.345 79.424C146.142 79.2107 145.897 79.0453 145.609 78.928C145.332 78.8 145.022 78.736 144.681 78.736C144.329 78.736 144.009 78.8 143.721 78.928C143.444 79.0453 143.204 79.2107 143.001 79.424C142.798 79.6373 142.638 79.888 142.521 80.176C142.404 80.4533 142.334 80.752 142.313 81.072H147.065ZM148.377 83.376C148.196 84.304 147.796 85.0027 147.177 85.472C146.558 85.9413 145.78 86.176 144.841 86.176C144.18 86.176 143.604 86.0693 143.113 85.856C142.633 85.6427 142.228 85.344 141.897 84.96C141.566 84.576 141.316 84.1173 141.145 83.584C140.985 83.0507 140.894 82.4693 140.873 81.84C140.873 81.2107 140.969 80.6347 141.161 80.112C141.353 79.5893 141.62 79.136 141.961 78.752C142.313 78.368 142.724 78.0693 143.193 77.856C143.673 77.6427 144.196 77.536 144.761 77.536C145.497 77.536 146.105 77.6907 146.585 78C147.076 78.2987 147.465 78.6827 147.753 79.152C148.052 79.6213 148.254 80.1333 148.361 80.688C148.478 81.2427 148.526 81.7707 148.505 82.272H142.313C142.302 82.6347 142.345 82.9813 142.441 83.312C142.537 83.632 142.692 83.92 142.905 84.176C143.118 84.4213 143.39 84.6187 143.721 84.768C144.052 84.9173 144.441 84.992 144.889 84.992C145.465 84.992 145.934 84.8587 146.297 84.592C146.67 84.3253 146.916 83.92 147.033 83.376H148.377ZM150.907 81.936C150.907 82.32 150.955 82.6987 151.051 83.072C151.157 83.4347 151.312 83.76 151.515 84.048C151.728 84.336 151.995 84.5653 152.315 84.736C152.645 84.9067 153.029 84.992 153.467 84.992C153.925 84.992 154.315 84.9013 154.635 84.72C154.955 84.5387 155.216 84.304 155.419 84.016C155.621 83.7173 155.765 83.3813 155.851 83.008C155.947 82.6347 155.995 82.256 155.995 81.872C155.995 81.4667 155.947 81.0773 155.851 80.704C155.755 80.32 155.6 79.984 155.387 79.696C155.184 79.408 154.917 79.1787 154.587 79.008C154.256 78.8267 153.856 78.736 153.387 78.736C152.928 78.736 152.539 78.8267 152.219 79.008C151.899 79.1893 151.643 79.4293 151.451 79.728C151.259 80.0267 151.12 80.368 151.035 80.752C150.949 81.136 150.907 81.5307 150.907 81.936ZM157.307 86H155.947V84.88H155.915C155.691 85.3387 155.339 85.6693 154.859 85.872C154.379 86.0747 153.851 86.176 153.275 86.176C152.635 86.176 152.075 86.0587 151.595 85.824C151.125 85.5893 150.731 85.2747 150.411 84.88C150.101 84.4853 149.867 84.0267 149.707 83.504C149.547 82.9813 149.467 82.4267 149.467 81.84C149.467 81.2533 149.541 80.6987 149.691 80.176C149.851 79.6533 150.085 79.2 150.395 78.816C150.715 78.4213 151.109 78.112 151.579 77.888C152.059 77.6533 152.613 77.536 153.243 77.536C153.456 77.536 153.685 77.5573 153.931 77.6C154.176 77.6427 154.421 77.7173 154.667 77.824C154.912 77.92 155.141 78.0533 155.355 78.224C155.579 78.384 155.765 78.5867 155.915 78.832H155.947V74.576H157.307V86Z" fill="black" fill-opacity="0.68"/>
<path d="M293.248 75.076H294.768V85.22H300.816V86.5H293.248V75.076ZM309.443 86.468C309.208 86.6067 308.883 86.676 308.467 86.676C308.115 86.676 307.832 86.58 307.619 86.388C307.416 86.1853 307.315 85.86 307.315 85.412C306.941 85.86 306.504 86.1853 306.003 86.388C305.512 86.58 304.979 86.676 304.403 86.676C304.029 86.676 303.672 86.6333 303.331 86.548C303 86.4627 302.712 86.3293 302.467 86.148C302.221 85.9667 302.024 85.732 301.875 85.444C301.736 85.1453 301.667 84.788 301.667 84.372C301.667 83.9027 301.747 83.5187 301.907 83.22C302.067 82.9213 302.275 82.6813 302.531 82.5C302.797 82.308 303.096 82.164 303.427 82.068C303.768 81.972 304.115 81.892 304.467 81.828C304.84 81.7533 305.192 81.7 305.523 81.668C305.864 81.6253 306.163 81.572 306.419 81.508C306.675 81.4333 306.877 81.332 307.027 81.204C307.176 81.0653 307.251 80.868 307.251 80.612C307.251 80.3133 307.192 80.0733 307.075 79.892C306.968 79.7107 306.824 79.572 306.643 79.476C306.472 79.38 306.275 79.316 306.051 79.284C305.837 79.252 305.624 79.236 305.411 79.236C304.835 79.236 304.355 79.348 303.971 79.572C303.587 79.7853 303.379 80.196 303.347 80.804H301.987C302.008 80.292 302.115 79.86 302.307 79.508C302.499 79.156 302.755 78.8733 303.075 78.66C303.395 78.436 303.757 78.276 304.163 78.18C304.579 78.084 305.021 78.036 305.491 78.036C305.864 78.036 306.232 78.0627 306.595 78.116C306.968 78.1693 307.304 78.2813 307.603 78.452C307.901 78.612 308.141 78.8413 308.323 79.14C308.504 79.4387 308.595 79.828 308.595 80.308V84.564C308.595 84.884 308.611 85.1187 308.643 85.268C308.685 85.4173 308.813 85.492 309.027 85.492C309.144 85.492 309.283 85.4653 309.443 85.412V86.468ZM307.235 82.228C307.064 82.356 306.84 82.452 306.563 82.516C306.285 82.5693 305.992 82.6173 305.683 82.66C305.384 82.692 305.08 82.7347 304.771 82.788C304.461 82.8307 304.184 82.9053 303.939 83.012C303.693 83.1187 303.491 83.2733 303.331 83.476C303.181 83.668 303.107 83.9347 303.107 84.276C303.107 84.5 303.149 84.692 303.235 84.852C303.331 85.0013 303.448 85.124 303.587 85.22C303.736 85.316 303.907 85.3853 304.099 85.428C304.291 85.4707 304.493 85.492 304.707 85.492C305.155 85.492 305.539 85.4333 305.859 85.316C306.179 85.188 306.44 85.0333 306.643 84.852C306.845 84.66 306.995 84.4573 307.091 84.244C307.187 84.02 307.235 83.812 307.235 83.62V82.228ZM310.956 75.076H312.316V79.348H312.348C312.572 78.8893 312.924 78.5587 313.404 78.356C313.884 78.1427 314.412 78.036 314.988 78.036C315.628 78.036 316.183 78.1533 316.652 78.388C317.132 78.6227 317.527 78.9427 317.836 79.348C318.156 79.7427 318.396 80.2013 318.556 80.724C318.716 81.2467 318.796 81.8013 318.796 82.388C318.796 82.9747 318.716 83.5293 318.556 84.052C318.407 84.5747 318.172 85.0333 317.852 85.428C317.543 85.812 317.148 86.116 316.668 86.34C316.199 86.564 315.65 86.676 315.02 86.676C314.818 86.676 314.588 86.6547 314.332 86.612C314.087 86.5693 313.842 86.5 313.596 86.404C313.351 86.308 313.116 86.18 312.892 86.02C312.679 85.8493 312.498 85.6413 312.348 85.396H312.316V86.5H310.956V75.076ZM317.356 82.292C317.356 81.908 317.303 81.5347 317.196 81.172C317.1 80.7987 316.946 80.468 316.732 80.18C316.53 79.892 316.263 79.6627 315.932 79.492C315.612 79.3213 315.234 79.236 314.796 79.236C314.338 79.236 313.948 79.3267 313.628 79.508C313.308 79.6893 313.047 79.9293 312.844 80.228C312.642 80.516 312.492 80.8467 312.396 81.22C312.311 81.5933 312.268 81.972 312.268 82.356C312.268 82.7613 312.316 83.156 312.412 83.54C312.508 83.9133 312.658 84.244 312.86 84.532C313.074 84.82 313.346 85.0547 313.676 85.236C314.007 85.4067 314.407 85.492 314.876 85.492C315.346 85.492 315.735 85.4013 316.044 85.22C316.364 85.0387 316.62 84.7987 316.812 84.5C317.004 84.2013 317.143 83.86 317.228 83.476C317.314 83.092 317.356 82.6973 317.356 82.292ZM326.337 81.572C326.315 81.252 326.241 80.948 326.113 80.66C325.995 80.372 325.83 80.1267 325.617 79.924C325.414 79.7107 325.169 79.5453 324.881 79.428C324.603 79.3 324.294 79.236 323.953 79.236C323.601 79.236 323.281 79.3 322.993 79.428C322.715 79.5453 322.475 79.7107 322.273 79.924C322.07 80.1373 321.91 80.388 321.793 80.676C321.675 80.9533 321.606 81.252 321.585 81.572H326.337ZM327.649 83.876C327.467 84.804 327.067 85.5027 326.449 85.972C325.83 86.4413 325.051 86.676 324.113 86.676C323.451 86.676 322.875 86.5693 322.385 86.356C321.905 86.1427 321.499 85.844 321.169 85.46C320.838 85.076 320.587 84.6173 320.417 84.084C320.257 83.5507 320.166 82.9693 320.145 82.34C320.145 81.7107 320.241 81.1347 320.433 80.612C320.625 80.0893 320.891 79.636 321.233 79.252C321.585 78.868 321.995 78.5693 322.465 78.356C322.945 78.1427 323.467 78.036 324.033 78.036C324.769 78.036 325.377 78.1907 325.857 78.5C326.347 78.7987 326.737 79.1827 327.025 79.652C327.323 80.1213 327.526 80.6333 327.633 81.188C327.75 81.7427 327.798 82.2707 327.777 82.772H321.585C321.574 83.1347 321.617 83.4813 321.713 83.812C321.809 84.132 321.963 84.42 322.177 84.676C322.39 84.9213 322.662 85.1187 322.993 85.268C323.323 85.4173 323.713 85.492 324.161 85.492C324.737 85.492 325.206 85.3587 325.569 85.092C325.942 84.8253 326.187 84.42 326.305 83.876H327.649ZM329.466 75.076H330.826V86.5H329.466V75.076Z" fill="black"/>
<path d="M428 80.5C428 71.6634 435.163 64.5 444 64.5H468C476.837 64.5 484 71.6634 484 80.5C484 89.3366 476.837 96.5 468 96.5H444C435.163 96.5 428 89.3366 428 80.5Z" fill="black" fill-opacity="0.44"/>
<g filter="url(#filter0_d_54907_94711)">
<g clip-path="url(#clip0_54907_94711)">
<path d="M436 80.5C436 76.0817 439.582 72.5 444 72.5C448.418 72.5 452 76.0817 452 80.5C452 84.9183 448.418 88.5 444 88.5C439.582 88.5 436 84.9183 436 80.5Z" fill="white"/>
</g>
</g>
<path d="M101.248 180.576H102.768V185.488H108.784V180.576H110.304V192H108.784V186.768H102.768V192H101.248V180.576ZM113.563 187.872C113.563 188.373 113.627 188.821 113.755 189.216C113.894 189.6 114.08 189.925 114.315 190.192C114.55 190.448 114.822 190.645 115.131 190.784C115.451 190.923 115.787 190.992 116.139 190.992C116.491 190.992 116.822 190.923 117.131 190.784C117.451 190.645 117.728 190.448 117.963 190.192C118.198 189.925 118.379 189.6 118.507 189.216C118.646 188.821 118.715 188.373 118.715 187.872C118.715 187.371 118.646 186.928 118.507 186.544C118.379 186.149 118.198 185.819 117.963 185.552C117.728 185.285 117.451 185.083 117.131 184.944C116.822 184.805 116.491 184.736 116.139 184.736C115.787 184.736 115.451 184.805 115.131 184.944C114.822 185.083 114.55 185.285 114.315 185.552C114.08 185.819 113.894 186.149 113.755 186.544C113.627 186.928 113.563 187.371 113.563 187.872ZM112.123 187.872C112.123 187.264 112.208 186.699 112.379 186.176C112.55 185.643 112.806 185.184 113.147 184.8C113.488 184.405 113.91 184.096 114.411 183.872C114.912 183.648 115.488 183.536 116.139 183.536C116.8 183.536 117.376 183.648 117.867 183.872C118.368 184.096 118.79 184.405 119.131 184.8C119.472 185.184 119.728 185.643 119.899 186.176C120.07 186.699 120.155 187.264 120.155 187.872C120.155 188.48 120.07 189.045 119.899 189.568C119.728 190.091 119.472 190.549 119.131 190.944C118.79 191.328 118.368 191.632 117.867 191.856C117.376 192.069 116.8 192.176 116.139 192.176C115.488 192.176 114.912 192.069 114.411 191.856C113.91 191.632 113.488 191.328 113.147 190.944C112.806 190.549 112.55 190.091 112.379 189.568C112.208 189.045 112.123 188.48 112.123 187.872ZM125.486 192H124.03L120.958 183.728H122.478L124.798 190.624H124.83L127.086 183.728H128.51L125.486 192ZM135.502 187.072C135.481 186.752 135.406 186.448 135.278 186.16C135.161 185.872 134.996 185.627 134.782 185.424C134.58 185.211 134.334 185.045 134.046 184.928C133.769 184.8 133.46 184.736 133.118 184.736C132.766 184.736 132.446 184.8 132.158 184.928C131.881 185.045 131.641 185.211 131.438 185.424C131.236 185.637 131.076 185.888 130.958 186.176C130.841 186.453 130.772 186.752 130.75 187.072H135.502ZM136.814 189.376C136.633 190.304 136.233 191.003 135.614 191.472C134.996 191.941 134.217 192.176 133.278 192.176C132.617 192.176 132.041 192.069 131.55 191.856C131.07 191.643 130.665 191.344 130.334 190.96C130.004 190.576 129.753 190.117 129.582 189.584C129.422 189.051 129.332 188.469 129.31 187.84C129.31 187.211 129.406 186.635 129.598 186.112C129.79 185.589 130.057 185.136 130.398 184.752C130.75 184.368 131.161 184.069 131.63 183.856C132.11 183.643 132.633 183.536 133.198 183.536C133.934 183.536 134.542 183.691 135.022 184C135.513 184.299 135.902 184.683 136.19 185.152C136.489 185.621 136.692 186.133 136.798 186.688C136.916 187.243 136.964 187.771 136.942 188.272H130.75C130.74 188.635 130.782 188.981 130.878 189.312C130.974 189.632 131.129 189.92 131.342 190.176C131.556 190.421 131.828 190.619 132.158 190.768C132.489 190.917 132.878 190.992 133.326 190.992C133.902 190.992 134.372 190.859 134.734 190.592C135.108 190.325 135.353 189.92 135.47 189.376H136.814ZM138.304 183.728H139.584V185.472H139.616C139.947 184.8 140.352 184.304 140.832 183.984C141.312 183.664 141.92 183.515 142.656 183.536V184.976C142.112 184.976 141.648 185.051 141.264 185.2C140.88 185.349 140.571 185.568 140.336 185.856C140.101 186.144 139.931 186.496 139.824 186.912C139.717 187.317 139.664 187.787 139.664 188.32V192H138.304V183.728Z" fill="black" fill-opacity="0.68"/>
<rect width="224" height="56" transform="translate(276 158.5)" fill="black" fill-opacity="0.08"/>
<path d="M293.248 181.076H294.768V191.22H300.816V192.5H293.248V181.076ZM309.443 192.468C309.208 192.607 308.883 192.676 308.467 192.676C308.115 192.676 307.832 192.58 307.619 192.388C307.416 192.185 307.315 191.86 307.315 191.412C306.941 191.86 306.504 192.185 306.003 192.388C305.512 192.58 304.979 192.676 304.403 192.676C304.029 192.676 303.672 192.633 303.331 192.548C303 192.463 302.712 192.329 302.467 192.148C302.221 191.967 302.024 191.732 301.875 191.444C301.736 191.145 301.667 190.788 301.667 190.372C301.667 189.903 301.747 189.519 301.907 189.22C302.067 188.921 302.275 188.681 302.531 188.5C302.797 188.308 303.096 188.164 303.427 188.068C303.768 187.972 304.115 187.892 304.467 187.828C304.84 187.753 305.192 187.7 305.523 187.668C305.864 187.625 306.163 187.572 306.419 187.508C306.675 187.433 306.877 187.332 307.027 187.204C307.176 187.065 307.251 186.868 307.251 186.612C307.251 186.313 307.192 186.073 307.075 185.892C306.968 185.711 306.824 185.572 306.643 185.476C306.472 185.38 306.275 185.316 306.051 185.284C305.837 185.252 305.624 185.236 305.411 185.236C304.835 185.236 304.355 185.348 303.971 185.572C303.587 185.785 303.379 186.196 303.347 186.804H301.987C302.008 186.292 302.115 185.86 302.307 185.508C302.499 185.156 302.755 184.873 303.075 184.66C303.395 184.436 303.757 184.276 304.163 184.18C304.579 184.084 305.021 184.036 305.491 184.036C305.864 184.036 306.232 184.063 306.595 184.116C306.968 184.169 307.304 184.281 307.603 184.452C307.901 184.612 308.141 184.841 308.323 185.14C308.504 185.439 308.595 185.828 308.595 186.308V190.564C308.595 190.884 308.611 191.119 308.643 191.268C308.685 191.417 308.813 191.492 309.027 191.492C309.144 191.492 309.283 191.465 309.443 191.412V192.468ZM307.235 188.228C307.064 188.356 306.84 188.452 306.563 188.516C306.285 188.569 305.992 188.617 305.683 188.66C305.384 188.692 305.08 188.735 304.771 188.788C304.461 188.831 304.184 188.905 303.939 189.012C303.693 189.119 303.491 189.273 303.331 189.476C303.181 189.668 303.107 189.935 303.107 190.276C303.107 190.5 303.149 190.692 303.235 190.852C303.331 191.001 303.448 191.124 303.587 191.22C303.736 191.316 303.907 191.385 304.099 191.428C304.291 191.471 304.493 191.492 304.707 191.492C305.155 191.492 305.539 191.433 305.859 191.316C306.179 191.188 306.44 191.033 306.643 190.852C306.845 190.66 306.995 190.457 307.091 190.244C307.187 190.02 307.235 189.812 307.235 189.62V188.228ZM310.956 181.076H312.316V185.348H312.348C312.572 184.889 312.924 184.559 313.404 184.356C313.884 184.143 314.412 184.036 314.988 184.036C315.628 184.036 316.183 184.153 316.652 184.388C317.132 184.623 317.527 184.943 317.836 185.348C318.156 185.743 318.396 186.201 318.556 186.724C318.716 187.247 318.796 187.801 318.796 188.388C318.796 188.975 318.716 189.529 318.556 190.052C318.407 190.575 318.172 191.033 317.852 191.428C317.543 191.812 317.148 192.116 316.668 192.34C316.199 192.564 315.65 192.676 315.02 192.676C314.818 192.676 314.588 192.655 314.332 192.612C314.087 192.569 313.842 192.5 313.596 192.404C313.351 192.308 313.116 192.18 312.892 192.02C312.679 191.849 312.498 191.641 312.348 191.396H312.316V192.5H310.956V181.076ZM317.356 188.292C317.356 187.908 317.303 187.535 317.196 187.172C317.1 186.799 316.946 186.468 316.732 186.18C316.53 185.892 316.263 185.663 315.932 185.492C315.612 185.321 315.234 185.236 314.796 185.236C314.338 185.236 313.948 185.327 313.628 185.508C313.308 185.689 313.047 185.929 312.844 186.228C312.642 186.516 312.492 186.847 312.396 187.22C312.311 187.593 312.268 187.972 312.268 188.356C312.268 188.761 312.316 189.156 312.412 189.54C312.508 189.913 312.658 190.244 312.86 190.532C313.074 190.82 313.346 191.055 313.676 191.236C314.007 191.407 314.407 191.492 314.876 191.492C315.346 191.492 315.735 191.401 316.044 191.22C316.364 191.039 316.62 190.799 316.812 190.5C317.004 190.201 317.143 189.86 317.228 189.476C317.314 189.092 317.356 188.697 317.356 188.292ZM326.337 187.572C326.315 187.252 326.241 186.948 326.113 186.66C325.995 186.372 325.83 186.127 325.617 185.924C325.414 185.711 325.169 185.545 324.881 185.428C324.603 185.3 324.294 185.236 323.953 185.236C323.601 185.236 323.281 185.3 322.993 185.428C322.715 185.545 322.475 185.711 322.273 185.924C322.07 186.137 321.91 186.388 321.793 186.676C321.675 186.953 321.606 187.252 321.585 187.572H326.337ZM327.649 189.876C327.467 190.804 327.067 191.503 326.449 191.972C325.83 192.441 325.051 192.676 324.113 192.676C323.451 192.676 322.875 192.569 322.385 192.356C321.905 192.143 321.499 191.844 321.169 191.46C320.838 191.076 320.587 190.617 320.417 190.084C320.257 189.551 320.166 188.969 320.145 188.34C320.145 187.711 320.241 187.135 320.433 186.612C320.625 186.089 320.891 185.636 321.233 185.252C321.585 184.868 321.995 184.569 322.465 184.356C322.945 184.143 323.467 184.036 324.033 184.036C324.769 184.036 325.377 184.191 325.857 184.5C326.347 184.799 326.737 185.183 327.025 185.652C327.323 186.121 327.526 186.633 327.633 187.188C327.75 187.743 327.798 188.271 327.777 188.772H321.585C321.574 189.135 321.617 189.481 321.713 189.812C321.809 190.132 321.963 190.42 322.177 190.676C322.39 190.921 322.662 191.119 322.993 191.268C323.323 191.417 323.713 191.492 324.161 191.492C324.737 191.492 325.206 191.359 325.569 191.092C325.942 190.825 326.187 190.42 326.305 189.876H327.649ZM329.466 181.076H330.826V192.5H329.466V181.076Z" fill="black"/>
<path d="M428 186.5C428 177.663 435.163 170.5 444 170.5H468C476.837 170.5 484 177.663 484 186.5C484 195.337 476.837 202.5 468 202.5H444C435.163 202.5 428 195.337 428 186.5Z" fill="black" fill-opacity="0.52"/>
<g filter="url(#filter1_d_54907_94711)">
<g clip-path="url(#clip1_54907_94711)">
<path d="M436 186.5C436 182.082 439.582 178.5 444 178.5C448.418 178.5 452 182.082 452 186.5C452 190.918 448.418 194.5 444 194.5C439.582 194.5 436 190.918 436 186.5Z" fill="white"/>
</g>
</g>
<path d="M101.248 286.576H108.752V287.856H102.768V291.488H108.016V292.768H102.768V298H101.248V286.576ZM111.204 293.872C111.204 294.373 111.268 294.821 111.396 295.216C111.534 295.6 111.721 295.925 111.956 296.192C112.19 296.448 112.462 296.645 112.772 296.784C113.092 296.923 113.428 296.992 113.78 296.992C114.132 296.992 114.462 296.923 114.772 296.784C115.092 296.645 115.369 296.448 115.604 296.192C115.838 295.925 116.02 295.6 116.148 295.216C116.286 294.821 116.356 294.373 116.356 293.872C116.356 293.371 116.286 292.928 116.148 292.544C116.02 292.149 115.838 291.819 115.604 291.552C115.369 291.285 115.092 291.083 114.772 290.944C114.462 290.805 114.132 290.736 113.78 290.736C113.428 290.736 113.092 290.805 112.772 290.944C112.462 291.083 112.19 291.285 111.956 291.552C111.721 291.819 111.534 292.149 111.396 292.544C111.268 292.928 111.204 293.371 111.204 293.872ZM109.764 293.872C109.764 293.264 109.849 292.699 110.02 292.176C110.19 291.643 110.446 291.184 110.788 290.8C111.129 290.405 111.55 290.096 112.052 289.872C112.553 289.648 113.129 289.536 113.78 289.536C114.441 289.536 115.017 289.648 115.508 289.872C116.009 290.096 116.43 290.405 116.772 290.8C117.113 291.184 117.369 291.643 117.54 292.176C117.71 292.699 117.796 293.264 117.796 293.872C117.796 294.48 117.71 295.045 117.54 295.568C117.369 296.091 117.113 296.549 116.772 296.944C116.43 297.328 116.009 297.632 115.508 297.856C115.017 298.069 114.441 298.176 113.78 298.176C113.129 298.176 112.553 298.069 112.052 297.856C111.55 297.632 111.129 297.328 110.788 296.944C110.446 296.549 110.19 296.091 110.02 295.568C109.849 295.045 109.764 294.48 109.764 293.872ZM125.015 292.384C124.908 291.861 124.684 291.456 124.343 291.168C124.002 290.88 123.543 290.736 122.967 290.736C122.476 290.736 122.066 290.827 121.735 291.008C121.404 291.189 121.138 291.429 120.935 291.728C120.743 292.027 120.604 292.373 120.519 292.768C120.434 293.152 120.391 293.552 120.391 293.968C120.391 294.352 120.434 294.725 120.519 295.088C120.615 295.451 120.759 295.776 120.951 296.064C121.143 296.341 121.394 296.565 121.703 296.736C122.012 296.907 122.38 296.992 122.807 296.992C123.479 296.992 124.002 296.816 124.375 296.464C124.759 296.112 124.994 295.616 125.079 294.976H126.471C126.322 296 125.938 296.789 125.319 297.344C124.711 297.899 123.879 298.176 122.823 298.176C122.194 298.176 121.634 298.075 121.143 297.872C120.663 297.669 120.258 297.381 119.927 297.008C119.607 296.635 119.362 296.192 119.191 295.68C119.031 295.157 118.951 294.587 118.951 293.968C118.951 293.349 119.031 292.773 119.191 292.24C119.351 291.696 119.591 291.227 119.911 290.832C120.242 290.427 120.652 290.112 121.143 289.888C121.634 289.653 122.204 289.536 122.855 289.536C123.324 289.536 123.762 289.595 124.167 289.712C124.583 289.819 124.946 289.989 125.255 290.224C125.575 290.459 125.836 290.757 126.039 291.12C126.242 291.472 126.37 291.893 126.423 292.384H125.015ZM134.841 298H133.561V296.688H133.529C133.241 297.2 132.873 297.579 132.425 297.824C131.977 298.059 131.449 298.176 130.841 298.176C130.297 298.176 129.843 298.107 129.481 297.968C129.118 297.819 128.825 297.611 128.601 297.344C128.377 297.077 128.217 296.763 128.121 296.4C128.035 296.027 127.993 295.616 127.993 295.168V289.728H129.353V295.328C129.353 295.84 129.502 296.245 129.801 296.544C130.099 296.843 130.51 296.992 131.033 296.992C131.449 296.992 131.806 296.928 132.105 296.8C132.414 296.672 132.67 296.491 132.873 296.256C133.075 296.021 133.225 295.749 133.321 295.44C133.427 295.12 133.481 294.773 133.481 294.4V289.728H134.841V298ZM137.715 295.392C137.726 295.691 137.795 295.947 137.923 296.16C138.051 296.363 138.217 296.528 138.419 296.656C138.633 296.773 138.867 296.859 139.123 296.912C139.39 296.965 139.662 296.992 139.939 296.992C140.153 296.992 140.377 296.976 140.611 296.944C140.846 296.912 141.059 296.853 141.251 296.768C141.454 296.683 141.619 296.56 141.747 296.4C141.875 296.229 141.939 296.016 141.939 295.76C141.939 295.408 141.806 295.141 141.539 294.96C141.273 294.779 140.937 294.635 140.531 294.528C140.137 294.411 139.705 294.309 139.235 294.224C138.766 294.128 138.329 294 137.923 293.84C137.529 293.669 137.198 293.435 136.931 293.136C136.665 292.837 136.531 292.421 136.531 291.888C136.531 291.472 136.622 291.115 136.803 290.816C136.995 290.517 137.235 290.277 137.523 290.096C137.822 289.904 138.153 289.765 138.515 289.68C138.889 289.584 139.257 289.536 139.619 289.536C140.089 289.536 140.521 289.579 140.915 289.664C141.31 289.739 141.657 289.877 141.955 290.08C142.265 290.272 142.51 290.539 142.691 290.88C142.873 291.211 142.979 291.627 143.011 292.128H141.651C141.63 291.861 141.561 291.643 141.443 291.472C141.326 291.291 141.177 291.147 140.995 291.04C140.814 290.933 140.611 290.859 140.387 290.816C140.174 290.763 139.955 290.736 139.731 290.736C139.529 290.736 139.321 290.752 139.107 290.784C138.905 290.816 138.718 290.875 138.547 290.96C138.377 291.035 138.238 291.141 138.131 291.28C138.025 291.408 137.971 291.579 137.971 291.792C137.971 292.027 138.051 292.224 138.211 292.384C138.382 292.533 138.595 292.661 138.851 292.768C139.107 292.864 139.395 292.949 139.715 293.024C140.035 293.088 140.355 293.157 140.675 293.232C141.017 293.307 141.347 293.397 141.667 293.504C141.998 293.611 142.286 293.755 142.531 293.936C142.787 294.107 142.99 294.325 143.139 294.592C143.299 294.859 143.379 295.189 143.379 295.584C143.379 296.085 143.273 296.501 143.059 296.832C142.857 297.163 142.585 297.429 142.243 297.632C141.913 297.835 141.534 297.973 141.107 298.048C140.691 298.133 140.275 298.176 139.859 298.176C139.401 298.176 138.963 298.128 138.547 298.032C138.131 297.936 137.763 297.781 137.443 297.568C137.123 297.344 136.867 297.056 136.675 296.704C136.483 296.341 136.377 295.904 136.355 295.392H137.715Z" fill="black" fill-opacity="0.68"/>
<mask id="path-10-outside-1_54907_94711" maskUnits="userSpaceOnUse" x="271" y="259.5" width="234" height="66" fill="black">
<rect fill="white" x="271" y="259.5" width="234" height="66"/>
<path d="M276 264.5H500V320.5H276V264.5Z"/>
</mask>
<path d="M276 264.5V259.5H271V264.5H276ZM500 264.5H505V259.5H500V264.5ZM500 320.5V325.5H505V320.5H500ZM276 320.5H271V325.5H276V320.5ZM276 264.5V269.5H500V264.5V259.5H276V264.5ZM500 264.5H495V320.5H500H505V264.5H500ZM500 320.5V315.5H276V320.5V325.5H500V320.5ZM276 320.5H281V264.5H276H271V320.5H276Z" fill="black" mask="url(#path-10-outside-1_54907_94711)"/>
<mask id="path-12-outside-2_54907_94711" maskUnits="userSpaceOnUse" x="274" y="262.5" width="228" height="60" fill="black">
<rect fill="white" x="274" y="262.5" width="228" height="60"/>
<path d="M276 264.5H500V320.5H276V264.5Z"/>
</mask>
<path d="M276 264.5H500V320.5H276V264.5Z" fill="black" fill-opacity="0.08"/>
<path d="M276 264.5V262.5H274V264.5H276ZM500 264.5H502V262.5H500V264.5ZM500 320.5V322.5H502V320.5H500ZM276 320.5H274V322.5H276V320.5ZM276 264.5V266.5H500V264.5V262.5H276V264.5ZM500 264.5H498V320.5H500H502V264.5H500ZM500 320.5V318.5H276V320.5V322.5H500V320.5ZM276 320.5H278V264.5H276H274V320.5H276Z" fill="white" mask="url(#path-12-outside-2_54907_94711)"/>
<path d="M293.248 287.076H294.768V297.22H300.816V298.5H293.248V287.076ZM309.443 298.468C309.208 298.607 308.883 298.676 308.467 298.676C308.115 298.676 307.832 298.58 307.619 298.388C307.416 298.185 307.315 297.86 307.315 297.412C306.941 297.86 306.504 298.185 306.003 298.388C305.512 298.58 304.979 298.676 304.403 298.676C304.029 298.676 303.672 298.633 303.331 298.548C303 298.463 302.712 298.329 302.467 298.148C302.221 297.967 302.024 297.732 301.875 297.444C301.736 297.145 301.667 296.788 301.667 296.372C301.667 295.903 301.747 295.519 301.907 295.22C302.067 294.921 302.275 294.681 302.531 294.5C302.797 294.308 303.096 294.164 303.427 294.068C303.768 293.972 304.115 293.892 304.467 293.828C304.84 293.753 305.192 293.7 305.523 293.668C305.864 293.625 306.163 293.572 306.419 293.508C306.675 293.433 306.877 293.332 307.027 293.204C307.176 293.065 307.251 292.868 307.251 292.612C307.251 292.313 307.192 292.073 307.075 291.892C306.968 291.711 306.824 291.572 306.643 291.476C306.472 291.38 306.275 291.316 306.051 291.284C305.837 291.252 305.624 291.236 305.411 291.236C304.835 291.236 304.355 291.348 303.971 291.572C303.587 291.785 303.379 292.196 303.347 292.804H301.987C302.008 292.292 302.115 291.86 302.307 291.508C302.499 291.156 302.755 290.873 303.075 290.66C303.395 290.436 303.757 290.276 304.163 290.18C304.579 290.084 305.021 290.036 305.491 290.036C305.864 290.036 306.232 290.063 306.595 290.116C306.968 290.169 307.304 290.281 307.603 290.452C307.901 290.612 308.141 290.841 308.323 291.14C308.504 291.439 308.595 291.828 308.595 292.308V296.564C308.595 296.884 308.611 297.119 308.643 297.268C308.685 297.417 308.813 297.492 309.027 297.492C309.144 297.492 309.283 297.465 309.443 297.412V298.468ZM307.235 294.228C307.064 294.356 306.84 294.452 306.563 294.516C306.285 294.569 305.992 294.617 305.683 294.66C305.384 294.692 305.08 294.735 304.771 294.788C304.461 294.831 304.184 294.905 303.939 295.012C303.693 295.119 303.491 295.273 303.331 295.476C303.181 295.668 303.107 295.935 303.107 296.276C303.107 296.5 303.149 296.692 303.235 296.852C303.331 297.001 303.448 297.124 303.587 297.22C303.736 297.316 303.907 297.385 304.099 297.428C304.291 297.471 304.493 297.492 304.707 297.492C305.155 297.492 305.539 297.433 305.859 297.316C306.179 297.188 306.44 297.033 306.643 296.852C306.845 296.66 306.995 296.457 307.091 296.244C307.187 296.02 307.235 295.812 307.235 295.62V294.228ZM310.956 287.076H312.316V291.348H312.348C312.572 290.889 312.924 290.559 313.404 290.356C313.884 290.143 314.412 290.036 314.988 290.036C315.628 290.036 316.183 290.153 316.652 290.388C317.132 290.623 317.527 290.943 317.836 291.348C318.156 291.743 318.396 292.201 318.556 292.724C318.716 293.247 318.796 293.801 318.796 294.388C318.796 294.975 318.716 295.529 318.556 296.052C318.407 296.575 318.172 297.033 317.852 297.428C317.543 297.812 317.148 298.116 316.668 298.34C316.199 298.564 315.65 298.676 315.02 298.676C314.818 298.676 314.588 298.655 314.332 298.612C314.087 298.569 313.842 298.5 313.596 298.404C313.351 298.308 313.116 298.18 312.892 298.02C312.679 297.849 312.498 297.641 312.348 297.396H312.316V298.5H310.956V287.076ZM317.356 294.292C317.356 293.908 317.303 293.535 317.196 293.172C317.1 292.799 316.946 292.468 316.732 292.18C316.53 291.892 316.263 291.663 315.932 291.492C315.612 291.321 315.234 291.236 314.796 291.236C314.338 291.236 313.948 291.327 313.628 291.508C313.308 291.689 313.047 291.929 312.844 292.228C312.642 292.516 312.492 292.847 312.396 293.22C312.311 293.593 312.268 293.972 312.268 294.356C312.268 294.761 312.316 295.156 312.412 295.54C312.508 295.913 312.658 296.244 312.86 296.532C313.074 296.82 313.346 297.055 313.676 297.236C314.007 297.407 314.407 297.492 314.876 297.492C315.346 297.492 315.735 297.401 316.044 297.22C316.364 297.039 316.62 296.799 316.812 296.5C317.004 296.201 317.143 295.86 317.228 295.476C317.314 295.092 317.356 294.697 317.356 294.292ZM326.337 293.572C326.315 293.252 326.241 292.948 326.113 292.66C325.995 292.372 325.83 292.127 325.617 291.924C325.414 291.711 325.169 291.545 324.881 291.428C324.603 291.3 324.294 291.236 323.953 291.236C323.601 291.236 323.281 291.3 322.993 291.428C322.715 291.545 322.475 291.711 322.273 291.924C322.07 292.137 321.91 292.388 321.793 292.676C321.675 292.953 321.606 293.252 321.585 293.572H326.337ZM327.649 295.876C327.467 296.804 327.067 297.503 326.449 297.972C325.83 298.441 325.051 298.676 324.113 298.676C323.451 298.676 322.875 298.569 322.385 298.356C321.905 298.143 321.499 297.844 321.169 297.46C320.838 297.076 320.587 296.617 320.417 296.084C320.257 295.551 320.166 294.969 320.145 294.34C320.145 293.711 320.241 293.135 320.433 292.612C320.625 292.089 320.891 291.636 321.233 291.252C321.585 290.868 321.995 290.569 322.465 290.356C322.945 290.143 323.467 290.036 324.033 290.036C324.769 290.036 325.377 290.191 325.857 290.5C326.347 290.799 326.737 291.183 327.025 291.652C327.323 292.121 327.526 292.633 327.633 293.188C327.75 293.743 327.798 294.271 327.777 294.772H321.585C321.574 295.135 321.617 295.481 321.713 295.812C321.809 296.132 321.963 296.42 322.177 296.676C322.39 296.921 322.662 297.119 322.993 297.268C323.323 297.417 323.713 297.492 324.161 297.492C324.737 297.492 325.206 297.359 325.569 297.092C325.942 296.825 326.187 296.42 326.305 295.876H327.649ZM329.466 287.076H330.826V298.5H329.466V287.076Z" fill="black"/>
<path d="M428 292.5C428 283.663 435.163 276.5 444 276.5H468C476.837 276.5 484 283.663 484 292.5C484 301.337 476.837 308.5 468 308.5H444C435.163 308.5 428 301.337 428 292.5Z" fill="black" fill-opacity="0.52"/>
<g filter="url(#filter2_d_54907_94711)">
<g clip-path="url(#clip2_54907_94711)">
<path d="M436 292.5C436 288.082 439.582 284.5 444 284.5C448.418 284.5 452 288.082 452 292.5C452 296.918 448.418 300.5 444 300.5C439.582 300.5 436 296.918 436 292.5Z" fill="white"/>
</g>
</g>
<path d="M102.768 398.048H105.744C106.608 398.059 107.237 397.883 107.632 397.52C108.037 397.157 108.24 396.635 108.24 395.952C108.24 395.269 108.037 394.752 107.632 394.4C107.237 394.037 106.608 393.856 105.744 393.856H102.768V398.048ZM101.248 392.576H106.256C107.408 392.576 108.277 392.875 108.864 393.472C109.461 394.059 109.76 394.885 109.76 395.952C109.76 397.019 109.461 397.851 108.864 398.448C108.277 399.045 107.408 399.339 106.256 399.328H102.768V404H101.248V392.576ZM111.351 395.728H112.631V397.472H112.663C112.994 396.8 113.399 396.304 113.879 395.984C114.359 395.664 114.967 395.515 115.703 395.536V396.976C115.159 396.976 114.695 397.051 114.311 397.2C113.927 397.349 113.618 397.568 113.383 397.856C113.148 398.144 112.978 398.496 112.871 398.912C112.764 399.317 112.711 399.787 112.711 400.32V404H111.351V395.728ZM122.19 399.072C122.169 398.752 122.094 398.448 121.966 398.16C121.849 397.872 121.683 397.627 121.47 397.424C121.267 397.211 121.022 397.045 120.734 396.928C120.457 396.8 120.147 396.736 119.806 396.736C119.454 396.736 119.134 396.8 118.846 396.928C118.569 397.045 118.329 397.211 118.126 397.424C117.923 397.637 117.763 397.888 117.646 398.176C117.529 398.453 117.459 398.752 117.438 399.072H122.19ZM123.502 401.376C123.321 402.304 122.921 403.003 122.302 403.472C121.683 403.941 120.905 404.176 119.966 404.176C119.305 404.176 118.729 404.069 118.238 403.856C117.758 403.643 117.353 403.344 117.022 402.96C116.691 402.576 116.441 402.117 116.27 401.584C116.11 401.051 116.019 400.469 115.998 399.84C115.998 399.211 116.094 398.635 116.286 398.112C116.478 397.589 116.745 397.136 117.086 396.752C117.438 396.368 117.849 396.069 118.318 395.856C118.798 395.643 119.321 395.536 119.886 395.536C120.622 395.536 121.23 395.691 121.71 396C122.201 396.299 122.59 396.683 122.878 397.152C123.177 397.621 123.379 398.133 123.486 398.688C123.603 399.243 123.651 399.771 123.63 400.272H117.438C117.427 400.635 117.47 400.981 117.566 401.312C117.662 401.632 117.817 401.92 118.03 402.176C118.243 402.421 118.515 402.619 118.846 402.768C119.177 402.917 119.566 402.992 120.014 402.992C120.59 402.992 121.059 402.859 121.422 402.592C121.795 402.325 122.041 401.92 122.158 401.376H123.502ZM125.872 401.392C125.882 401.691 125.952 401.947 126.08 402.16C126.208 402.363 126.373 402.528 126.576 402.656C126.789 402.773 127.024 402.859 127.28 402.912C127.546 402.965 127.818 402.992 128.096 402.992C128.309 402.992 128.533 402.976 128.768 402.944C129.002 402.912 129.216 402.853 129.408 402.768C129.61 402.683 129.776 402.56 129.904 402.4C130.032 402.229 130.096 402.016 130.096 401.76C130.096 401.408 129.962 401.141 129.696 400.96C129.429 400.779 129.093 400.635 128.688 400.528C128.293 400.411 127.861 400.309 127.392 400.224C126.922 400.128 126.485 400 126.08 399.84C125.685 399.669 125.354 399.435 125.088 399.136C124.821 398.837 124.688 398.421 124.688 397.888C124.688 397.472 124.778 397.115 124.96 396.816C125.152 396.517 125.392 396.277 125.68 396.096C125.978 395.904 126.309 395.765 126.672 395.68C127.045 395.584 127.413 395.536 127.776 395.536C128.245 395.536 128.677 395.579 129.072 395.664C129.466 395.739 129.813 395.877 130.112 396.08C130.421 396.272 130.666 396.539 130.848 396.88C131.029 397.211 131.136 397.627 131.168 398.128H129.808C129.786 397.861 129.717 397.643 129.6 397.472C129.482 397.291 129.333 397.147 129.152 397.04C128.97 396.933 128.768 396.859 128.544 396.816C128.33 396.763 128.112 396.736 127.888 396.736C127.685 396.736 127.477 396.752 127.264 396.784C127.061 396.816 126.874 396.875 126.704 396.96C126.533 397.035 126.394 397.141 126.288 397.28C126.181 397.408 126.128 397.579 126.128 397.792C126.128 398.027 126.208 398.224 126.368 398.384C126.538 398.533 126.752 398.661 127.008 398.768C127.264 398.864 127.552 398.949 127.872 399.024C128.192 399.088 128.512 399.157 128.832 399.232C129.173 399.307 129.504 399.397 129.824 399.504C130.154 399.611 130.442 399.755 130.688 399.936C130.944 400.107 131.146 400.325 131.296 400.592C131.456 400.859 131.536 401.189 131.536 401.584C131.536 402.085 131.429 402.501 131.216 402.832C131.013 403.163 130.741 403.429 130.4 403.632C130.069 403.835 129.69 403.973 129.264 404.048C128.848 404.133 128.432 404.176 128.016 404.176C127.557 404.176 127.12 404.128 126.704 404.032C126.288 403.936 125.92 403.781 125.6 403.568C125.28 403.344 125.024 403.056 124.832 402.704C124.64 402.341 124.533 401.904 124.512 401.392H125.872ZM133.872 401.392C133.882 401.691 133.952 401.947 134.08 402.16C134.208 402.363 134.373 402.528 134.576 402.656C134.789 402.773 135.024 402.859 135.28 402.912C135.546 402.965 135.818 402.992 136.096 402.992C136.309 402.992 136.533 402.976 136.768 402.944C137.002 402.912 137.216 402.853 137.408 402.768C137.61 402.683 137.776 402.56 137.904 402.4C138.032 402.229 138.096 402.016 138.096 401.76C138.096 401.408 137.962 401.141 137.696 400.96C137.429 400.779 137.093 400.635 136.688 400.528C136.293 400.411 135.861 400.309 135.392 400.224C134.922 400.128 134.485 400 134.08 399.84C133.685 399.669 133.354 399.435 133.088 399.136C132.821 398.837 132.688 398.421 132.688 397.888C132.688 397.472 132.778 397.115 132.96 396.816C133.152 396.517 133.392 396.277 133.68 396.096C133.978 395.904 134.309 395.765 134.672 395.68C135.045 395.584 135.413 395.536 135.776 395.536C136.245 395.536 136.677 395.579 137.072 395.664C137.466 395.739 137.813 395.877 138.112 396.08C138.421 396.272 138.666 396.539 138.848 396.88C139.029 397.211 139.136 397.627 139.168 398.128H137.808C137.786 397.861 137.717 397.643 137.6 397.472C137.482 397.291 137.333 397.147 137.152 397.04C136.97 396.933 136.768 396.859 136.544 396.816C136.33 396.763 136.112 396.736 135.888 396.736C135.685 396.736 135.477 396.752 135.264 396.784C135.061 396.816 134.874 396.875 134.704 396.96C134.533 397.035 134.394 397.141 134.288 397.28C134.181 397.408 134.128 397.579 134.128 397.792C134.128 398.027 134.208 398.224 134.368 398.384C134.538 398.533 134.752 398.661 135.008 398.768C135.264 398.864 135.552 398.949 135.872 399.024C136.192 399.088 136.512 399.157 136.832 399.232C137.173 399.307 137.504 399.397 137.824 399.504C138.154 399.611 138.442 399.755 138.688 399.936C138.944 400.107 139.146 400.325 139.296 400.592C139.456 400.859 139.536 401.189 139.536 401.584C139.536 402.085 139.429 402.501 139.216 402.832C139.013 403.163 138.741 403.429 138.4 403.632C138.069 403.835 137.69 403.973 137.264 404.048C136.848 404.133 136.432 404.176 136.016 404.176C135.557 404.176 135.12 404.128 134.704 404.032C134.288 403.936 133.92 403.781 133.6 403.568C133.28 403.344 133.024 403.056 132.832 402.704C132.64 402.341 132.533 401.904 132.512 401.392H133.872ZM146.784 399.072C146.762 398.752 146.688 398.448 146.56 398.16C146.442 397.872 146.277 397.627 146.064 397.424C145.861 397.211 145.616 397.045 145.328 396.928C145.05 396.8 144.741 396.736 144.4 396.736C144.048 396.736 143.728 396.8 143.44 396.928C143.162 397.045 142.922 397.211 142.72 397.424C142.517 397.637 142.357 397.888 142.24 398.176C142.122 398.453 142.053 398.752 142.032 399.072H146.784ZM148.096 401.376C147.914 402.304 147.514 403.003 146.896 403.472C146.277 403.941 145.498 404.176 144.56 404.176C143.898 404.176 143.322 404.069 142.832 403.856C142.352 403.643 141.946 403.344 141.616 402.96C141.285 402.576 141.034 402.117 140.864 401.584C140.704 401.051 140.613 400.469 140.592 399.84C140.592 399.211 140.688 398.635 140.88 398.112C141.072 397.589 141.338 397.136 141.68 396.752C142.032 396.368 142.442 396.069 142.912 395.856C143.392 395.643 143.914 395.536 144.48 395.536C145.216 395.536 145.824 395.691 146.304 396C146.794 396.299 147.184 396.683 147.472 397.152C147.77 397.621 147.973 398.133 148.08 398.688C148.197 399.243 148.245 399.771 148.224 400.272H142.032C142.021 400.635 142.064 400.981 142.16 401.312C142.256 401.632 142.41 401.92 142.624 402.176C142.837 402.421 143.109 402.619 143.44 402.768C143.77 402.917 144.16 402.992 144.608 402.992C145.184 402.992 145.653 402.859 146.016 402.592C146.389 402.325 146.634 401.92 146.752 401.376H148.096ZM150.625 399.936C150.625 400.32 150.673 400.699 150.769 401.072C150.876 401.435 151.031 401.76 151.233 402.048C151.447 402.336 151.713 402.565 152.033 402.736C152.364 402.907 152.748 402.992 153.185 402.992C153.644 402.992 154.033 402.901 154.353 402.72C154.673 402.539 154.935 402.304 155.137 402.016C155.34 401.717 155.484 401.381 155.569 401.008C155.665 400.635 155.713 400.256 155.713 399.872C155.713 399.467 155.665 399.077 155.569 398.704C155.473 398.32 155.319 397.984 155.105 397.696C154.903 397.408 154.636 397.179 154.305 397.008C153.975 396.827 153.575 396.736 153.105 396.736C152.647 396.736 152.257 396.827 151.937 397.008C151.617 397.189 151.361 397.429 151.169 397.728C150.977 398.027 150.839 398.368 150.753 398.752C150.668 399.136 150.625 399.531 150.625 399.936ZM157.025 404H155.665V402.88H155.633C155.409 403.339 155.057 403.669 154.577 403.872C154.097 404.075 153.569 404.176 152.993 404.176C152.353 404.176 151.793 404.059 151.313 403.824C150.844 403.589 150.449 403.275 150.129 402.88C149.82 402.485 149.585 402.027 149.425 401.504C149.265 400.981 149.185 400.427 149.185 399.84C149.185 399.253 149.26 398.699 149.409 398.176C149.569 397.653 149.804 397.2 150.113 396.816C150.433 396.421 150.828 396.112 151.297 395.888C151.777 395.653 152.332 395.536 152.961 395.536C153.175 395.536 153.404 395.557 153.649 395.6C153.895 395.643 154.14 395.717 154.385 395.824C154.631 395.92 154.86 396.053 155.073 396.224C155.297 396.384 155.484 396.587 155.633 396.832H155.665V392.576H157.025V404Z" fill="black" fill-opacity="0.68"/>
<rect width="224" height="56" transform="translate(276 370.5)" fill="black" fill-opacity="0.12"/>
<path d="M293.248 393.076H294.768V403.22H300.816V404.5H293.248V393.076ZM309.443 404.468C309.208 404.607 308.883 404.676 308.467 404.676C308.115 404.676 307.832 404.58 307.619 404.388C307.416 404.185 307.315 403.86 307.315 403.412C306.941 403.86 306.504 404.185 306.003 404.388C305.512 404.58 304.979 404.676 304.403 404.676C304.029 404.676 303.672 404.633 303.331 404.548C303 404.463 302.712 404.329 302.467 404.148C302.221 403.967 302.024 403.732 301.875 403.444C301.736 403.145 301.667 402.788 301.667 402.372C301.667 401.903 301.747 401.519 301.907 401.22C302.067 400.921 302.275 400.681 302.531 400.5C302.797 400.308 303.096 400.164 303.427 400.068C303.768 399.972 304.115 399.892 304.467 399.828C304.84 399.753 305.192 399.7 305.523 399.668C305.864 399.625 306.163 399.572 306.419 399.508C306.675 399.433 306.877 399.332 307.027 399.204C307.176 399.065 307.251 398.868 307.251 398.612C307.251 398.313 307.192 398.073 307.075 397.892C306.968 397.711 306.824 397.572 306.643 397.476C306.472 397.38 306.275 397.316 306.051 397.284C305.837 397.252 305.624 397.236 305.411 397.236C304.835 397.236 304.355 397.348 303.971 397.572C303.587 397.785 303.379 398.196 303.347 398.804H301.987C302.008 398.292 302.115 397.86 302.307 397.508C302.499 397.156 302.755 396.873 303.075 396.66C303.395 396.436 303.757 396.276 304.163 396.18C304.579 396.084 305.021 396.036 305.491 396.036C305.864 396.036 306.232 396.063 306.595 396.116C306.968 396.169 307.304 396.281 307.603 396.452C307.901 396.612 308.141 396.841 308.323 397.14C308.504 397.439 308.595 397.828 308.595 398.308V402.564C308.595 402.884 308.611 403.119 308.643 403.268C308.685 403.417 308.813 403.492 309.027 403.492C309.144 403.492 309.283 403.465 309.443 403.412V404.468ZM307.235 400.228C307.064 400.356 306.84 400.452 306.563 400.516C306.285 400.569 305.992 400.617 305.683 400.66C305.384 400.692 305.08 400.735 304.771 400.788C304.461 400.831 304.184 400.905 303.939 401.012C303.693 401.119 303.491 401.273 303.331 401.476C303.181 401.668 303.107 401.935 303.107 402.276C303.107 402.5 303.149 402.692 303.235 402.852C303.331 403.001 303.448 403.124 303.587 403.22C303.736 403.316 303.907 403.385 304.099 403.428C304.291 403.471 304.493 403.492 304.707 403.492C305.155 403.492 305.539 403.433 305.859 403.316C306.179 403.188 306.44 403.033 306.643 402.852C306.845 402.66 306.995 402.457 307.091 402.244C307.187 402.02 307.235 401.812 307.235 401.62V400.228ZM310.956 393.076H312.316V397.348H312.348C312.572 396.889 312.924 396.559 313.404 396.356C313.884 396.143 314.412 396.036 314.988 396.036C315.628 396.036 316.183 396.153 316.652 396.388C317.132 396.623 317.527 396.943 317.836 397.348C318.156 397.743 318.396 398.201 318.556 398.724C318.716 399.247 318.796 399.801 318.796 400.388C318.796 400.975 318.716 401.529 318.556 402.052C318.407 402.575 318.172 403.033 317.852 403.428C317.543 403.812 317.148 404.116 316.668 404.34C316.199 404.564 315.65 404.676 315.02 404.676C314.818 404.676 314.588 404.655 314.332 404.612C314.087 404.569 313.842 404.5 313.596 404.404C313.351 404.308 313.116 404.18 312.892 404.02C312.679 403.849 312.498 403.641 312.348 403.396H312.316V404.5H310.956V393.076ZM317.356 400.292C317.356 399.908 317.303 399.535 317.196 399.172C317.1 398.799 316.946 398.468 316.732 398.18C316.53 397.892 316.263 397.663 315.932 397.492C315.612 397.321 315.234 397.236 314.796 397.236C314.338 397.236 313.948 397.327 313.628 397.508C313.308 397.689 313.047 397.929 312.844 398.228C312.642 398.516 312.492 398.847 312.396 399.22C312.311 399.593 312.268 399.972 312.268 400.356C312.268 400.761 312.316 401.156 312.412 401.54C312.508 401.913 312.658 402.244 312.86 402.532C313.074 402.82 313.346 403.055 313.676 403.236C314.007 403.407 314.407 403.492 314.876 403.492C315.346 403.492 315.735 403.401 316.044 403.22C316.364 403.039 316.62 402.799 316.812 402.5C317.004 402.201 317.143 401.86 317.228 401.476C317.314 401.092 317.356 400.697 317.356 400.292ZM326.337 399.572C326.315 399.252 326.241 398.948 326.113 398.66C325.995 398.372 325.83 398.127 325.617 397.924C325.414 397.711 325.169 397.545 324.881 397.428C324.603 397.3 324.294 397.236 323.953 397.236C323.601 397.236 323.281 397.3 322.993 397.428C322.715 397.545 322.475 397.711 322.273 397.924C322.07 398.137 321.91 398.388 321.793 398.676C321.675 398.953 321.606 399.252 321.585 399.572H326.337ZM327.649 401.876C327.467 402.804 327.067 403.503 326.449 403.972C325.83 404.441 325.051 404.676 324.113 404.676C323.451 404.676 322.875 404.569 322.385 404.356C321.905 404.143 321.499 403.844 321.169 403.46C320.838 403.076 320.587 402.617 320.417 402.084C320.257 401.551 320.166 400.969 320.145 400.34C320.145 399.711 320.241 399.135 320.433 398.612C320.625 398.089 320.891 397.636 321.233 397.252C321.585 396.868 321.995 396.569 322.465 396.356C322.945 396.143 323.467 396.036 324.033 396.036C324.769 396.036 325.377 396.191 325.857 396.5C326.347 396.799 326.737 397.183 327.025 397.652C327.323 398.121 327.526 398.633 327.633 399.188C327.75 399.743 327.798 400.271 327.777 400.772H321.585C321.574 401.135 321.617 401.481 321.713 401.812C321.809 402.132 321.963 402.42 322.177 402.676C322.39 402.921 322.662 403.119 322.993 403.268C323.323 403.417 323.713 403.492 324.161 403.492C324.737 403.492 325.206 403.359 325.569 403.092C325.942 402.825 326.187 402.42 326.305 401.876H327.649ZM329.466 393.076H330.826V404.5H329.466V393.076Z" fill="black"/>
<path d="M428 398.5C428 389.663 435.163 382.5 444 382.5H468C476.837 382.5 484 389.663 484 398.5C484 407.337 476.837 414.5 468 414.5H444C435.163 414.5 428 407.337 428 398.5Z" fill="black" fill-opacity="0.52"/>
<g filter="url(#filter3_d_54907_94711)">
<path d="M436 398.5C436 394.082 439.582 390.5 444 390.5H452C456.418 390.5 460 394.082 460 398.5C460 402.918 456.418 406.5 452 406.5H444C439.582 406.5 436 402.918 436 398.5Z" fill="white"/>
</g>
<path d="M101.248 498.576H106.624C107.712 498.576 108.56 498.843 109.168 499.376C109.787 499.909 110.096 500.64 110.096 501.568C110.096 502.261 109.936 502.869 109.616 503.392C109.307 503.915 108.805 504.272 108.112 504.464V504.496C108.443 504.56 108.709 504.667 108.912 504.816C109.125 504.965 109.291 505.147 109.408 505.36C109.536 505.563 109.627 505.792 109.68 506.048C109.744 506.304 109.792 506.571 109.824 506.848C109.845 507.125 109.861 507.408 109.872 507.696C109.883 507.984 109.909 508.267 109.952 508.544C109.995 508.821 110.053 509.088 110.128 509.344C110.213 509.589 110.336 509.808 110.496 510H108.8C108.693 509.883 108.619 509.723 108.576 509.52C108.544 509.317 108.523 509.093 108.512 508.848C108.501 508.592 108.491 508.32 108.48 508.032C108.469 507.744 108.437 507.461 108.384 507.184C108.341 506.907 108.288 506.645 108.224 506.4C108.16 506.144 108.059 505.925 107.92 505.744C107.781 505.552 107.6 505.403 107.376 505.296C107.152 505.179 106.853 505.12 106.48 505.12H102.768V510H101.248V498.576ZM105.936 503.84C106.288 503.84 106.624 503.813 106.944 503.76C107.264 503.707 107.541 503.605 107.776 503.456C108.021 503.296 108.213 503.088 108.352 502.832C108.501 502.565 108.576 502.224 108.576 501.808C108.576 501.232 108.416 500.763 108.096 500.4C107.776 500.037 107.259 499.856 106.544 499.856H102.768V503.84H105.936ZM117.721 505.072C117.7 504.752 117.625 504.448 117.497 504.16C117.38 503.872 117.214 503.627 117.001 503.424C116.798 503.211 116.553 503.045 116.265 502.928C115.988 502.8 115.678 502.736 115.337 502.736C114.985 502.736 114.665 502.8 114.377 502.928C114.1 503.045 113.86 503.211 113.657 503.424C113.454 503.637 113.294 503.888 113.177 504.176C113.06 504.453 112.99 504.752 112.969 505.072H117.721ZM119.033 507.376C118.852 508.304 118.452 509.003 117.833 509.472C117.214 509.941 116.436 510.176 115.497 510.176C114.836 510.176 114.26 510.069 113.769 509.856C113.289 509.643 112.884 509.344 112.553 508.96C112.222 508.576 111.972 508.117 111.801 507.584C111.641 507.051 111.55 506.469 111.529 505.84C111.529 505.211 111.625 504.635 111.817 504.112C112.009 503.589 112.276 503.136 112.617 502.752C112.969 502.368 113.38 502.069 113.849 501.856C114.329 501.643 114.852 501.536 115.417 501.536C116.153 501.536 116.761 501.691 117.241 502C117.732 502.299 118.121 502.683 118.409 503.152C118.708 503.621 118.91 504.133 119.017 504.688C119.134 505.243 119.182 505.771 119.161 506.272H112.969C112.958 506.635 113.001 506.981 113.097 507.312C113.193 507.632 113.348 507.92 113.561 508.176C113.774 508.421 114.046 508.619 114.377 508.768C114.708 508.917 115.097 508.992 115.545 508.992C116.121 508.992 116.59 508.859 116.953 508.592C117.326 508.325 117.572 507.92 117.689 507.376H119.033ZM127.899 509.968C127.664 510.107 127.339 510.176 126.923 510.176C126.571 510.176 126.288 510.08 126.075 509.888C125.872 509.685 125.771 509.36 125.771 508.912C125.398 509.36 124.96 509.685 124.459 509.888C123.968 510.08 123.435 510.176 122.859 510.176C122.486 510.176 122.128 510.133 121.787 510.048C121.456 509.963 121.168 509.829 120.923 509.648C120.678 509.467 120.48 509.232 120.331 508.944C120.192 508.645 120.123 508.288 120.123 507.872C120.123 507.403 120.203 507.019 120.363 506.72C120.523 506.421 120.731 506.181 120.987 506C121.254 505.808 121.552 505.664 121.883 505.568C122.224 505.472 122.571 505.392 122.923 505.328C123.296 505.253 123.648 505.2 123.979 505.168C124.32 505.125 124.619 505.072 124.875 505.008C125.131 504.933 125.334 504.832 125.483 504.704C125.632 504.565 125.707 504.368 125.707 504.112C125.707 503.813 125.648 503.573 125.531 503.392C125.424 503.211 125.28 503.072 125.099 502.976C124.928 502.88 124.731 502.816 124.507 502.784C124.294 502.752 124.08 502.736 123.867 502.736C123.291 502.736 122.811 502.848 122.427 503.072C122.043 503.285 121.835 503.696 121.803 504.304H120.443C120.464 503.792 120.571 503.36 120.763 503.008C120.955 502.656 121.211 502.373 121.531 502.16C121.851 501.936 122.214 501.776 122.619 501.68C123.035 501.584 123.478 501.536 123.947 501.536C124.32 501.536 124.688 501.563 125.051 501.616C125.424 501.669 125.76 501.781 126.059 501.952C126.358 502.112 126.598 502.341 126.779 502.64C126.96 502.939 127.051 503.328 127.051 503.808V508.064C127.051 508.384 127.067 508.619 127.099 508.768C127.142 508.917 127.27 508.992 127.483 508.992C127.6 508.992 127.739 508.965 127.899 508.912V509.968ZM125.691 505.728C125.52 505.856 125.296 505.952 125.019 506.016C124.742 506.069 124.448 506.117 124.139 506.16C123.84 506.192 123.536 506.235 123.227 506.288C122.918 506.331 122.64 506.405 122.395 506.512C122.15 506.619 121.947 506.773 121.787 506.976C121.638 507.168 121.563 507.435 121.563 507.776C121.563 508 121.606 508.192 121.691 508.352C121.787 508.501 121.904 508.624 122.043 508.72C122.192 508.816 122.363 508.885 122.555 508.928C122.747 508.971 122.95 508.992 123.163 508.992C123.611 508.992 123.995 508.933 124.315 508.816C124.635 508.688 124.896 508.533 125.099 508.352C125.302 508.16 125.451 507.957 125.547 507.744C125.643 507.52 125.691 507.312 125.691 507.12V505.728ZM130.157 505.936C130.157 506.32 130.205 506.699 130.301 507.072C130.407 507.435 130.562 507.76 130.765 508.048C130.978 508.336 131.245 508.565 131.565 508.736C131.895 508.907 132.279 508.992 132.717 508.992C133.175 508.992 133.565 508.901 133.885 508.72C134.205 508.539 134.466 508.304 134.669 508.016C134.871 507.717 135.015 507.381 135.101 507.008C135.197 506.635 135.245 506.256 135.245 505.872C135.245 505.467 135.197 505.077 135.101 504.704C135.005 504.32 134.85 503.984 134.637 503.696C134.434 503.408 134.167 503.179 133.837 503.008C133.506 502.827 133.106 502.736 132.637 502.736C132.178 502.736 131.789 502.827 131.469 503.008C131.149 503.189 130.893 503.429 130.701 503.728C130.509 504.027 130.37 504.368 130.285 504.752C130.199 505.136 130.157 505.531 130.157 505.936ZM136.557 510H135.197V508.88H135.165C134.941 509.339 134.589 509.669 134.109 509.872C133.629 510.075 133.101 510.176 132.525 510.176C131.885 510.176 131.325 510.059 130.845 509.824C130.375 509.589 129.981 509.275 129.661 508.88C129.351 508.485 129.117 508.027 128.957 507.504C128.797 506.981 128.717 506.427 128.717 505.84C128.717 505.253 128.791 504.699 128.941 504.176C129.101 503.653 129.335 503.2 129.645 502.816C129.965 502.421 130.359 502.112 130.829 501.888C131.309 501.653 131.863 501.536 132.493 501.536C132.706 501.536 132.935 501.557 133.181 501.6C133.426 501.643 133.671 501.717 133.917 501.824C134.162 501.92 134.391 502.053 134.605 502.224C134.829 502.384 135.015 502.587 135.165 502.832H135.197V498.576H136.557V510ZM144.094 505.872C144.094 506.373 144.158 506.821 144.286 507.216C144.425 507.6 144.611 507.925 144.846 508.192C145.081 508.448 145.353 508.645 145.662 508.784C145.982 508.923 146.318 508.992 146.67 508.992C147.022 508.992 147.353 508.923 147.662 508.784C147.982 508.645 148.259 508.448 148.494 508.192C148.729 507.925 148.91 507.6 149.038 507.216C149.177 506.821 149.246 506.373 149.246 505.872C149.246 505.371 149.177 504.928 149.038 504.544C148.91 504.149 148.729 503.819 148.494 503.552C148.259 503.285 147.982 503.083 147.662 502.944C147.353 502.805 147.022 502.736 146.67 502.736C146.318 502.736 145.982 502.805 145.662 502.944C145.353 503.083 145.081 503.285 144.846 503.552C144.611 503.819 144.425 504.149 144.286 504.544C144.158 504.928 144.094 505.371 144.094 505.872ZM142.654 505.872C142.654 505.264 142.739 504.699 142.91 504.176C143.081 503.643 143.337 503.184 143.678 502.8C144.019 502.405 144.441 502.096 144.942 501.872C145.443 501.648 146.019 501.536 146.67 501.536C147.331 501.536 147.907 501.648 148.398 501.872C148.899 502.096 149.321 502.405 149.662 502.8C150.003 503.184 150.259 503.643 150.43 504.176C150.601 504.699 150.686 505.264 150.686 505.872C150.686 506.48 150.601 507.045 150.43 507.568C150.259 508.091 150.003 508.549 149.662 508.944C149.321 509.328 148.899 509.632 148.398 509.856C147.907 510.069 147.331 510.176 146.67 510.176C146.019 510.176 145.443 510.069 144.942 509.856C144.441 509.632 144.019 509.328 143.678 508.944C143.337 508.549 143.081 508.091 142.91 507.568C142.739 507.045 142.654 506.48 142.654 505.872ZM152.29 501.728H153.57V503.04H153.602C154.167 502.037 155.063 501.536 156.29 501.536C156.834 501.536 157.287 501.611 157.65 501.76C158.012 501.909 158.306 502.117 158.53 502.384C158.754 502.651 158.908 502.971 158.994 503.344C159.09 503.707 159.138 504.112 159.138 504.56V510H157.778V504.4C157.778 503.888 157.628 503.483 157.33 503.184C157.031 502.885 156.62 502.736 156.098 502.736C155.682 502.736 155.319 502.8 155.01 502.928C154.711 503.056 154.46 503.237 154.258 503.472C154.055 503.707 153.9 503.984 153.794 504.304C153.698 504.613 153.65 504.955 153.65 505.328V510H152.29V501.728ZM161.26 498.576H162.62V510H161.26V498.576ZM167.975 511.104C167.815 511.509 167.655 511.851 167.495 512.128C167.346 512.405 167.175 512.629 166.983 512.8C166.802 512.981 166.594 513.109 166.359 513.184C166.135 513.269 165.874 513.312 165.575 513.312C165.415 513.312 165.255 513.301 165.095 513.28C164.935 513.259 164.78 513.221 164.631 513.168V511.92C164.748 511.973 164.882 512.016 165.031 512.048C165.191 512.091 165.324 512.112 165.431 512.112C165.708 512.112 165.938 512.043 166.119 511.904C166.311 511.776 166.455 511.589 166.551 511.344L167.111 509.952L163.831 501.728H165.367L167.783 508.496H167.815L170.135 501.728H171.575L167.975 511.104Z" fill="black" fill-opacity="0.68"/>
<path d="M293.248 499.076H294.768V509.22H300.816V510.5H293.248V499.076ZM309.443 510.468C309.208 510.607 308.883 510.676 308.467 510.676C308.115 510.676 307.832 510.58 307.619 510.388C307.416 510.185 307.315 509.86 307.315 509.412C306.941 509.86 306.504 510.185 306.003 510.388C305.512 510.58 304.979 510.676 304.403 510.676C304.029 510.676 303.672 510.633 303.331 510.548C303 510.463 302.712 510.329 302.467 510.148C302.221 509.967 302.024 509.732 301.875 509.444C301.736 509.145 301.667 508.788 301.667 508.372C301.667 507.903 301.747 507.519 301.907 507.22C302.067 506.921 302.275 506.681 302.531 506.5C302.797 506.308 303.096 506.164 303.427 506.068C303.768 505.972 304.115 505.892 304.467 505.828C304.84 505.753 305.192 505.7 305.523 505.668C305.864 505.625 306.163 505.572 306.419 505.508C306.675 505.433 306.877 505.332 307.027 505.204C307.176 505.065 307.251 504.868 307.251 504.612C307.251 504.313 307.192 504.073 307.075 503.892C306.968 503.711 306.824 503.572 306.643 503.476C306.472 503.38 306.275 503.316 306.051 503.284C305.837 503.252 305.624 503.236 305.411 503.236C304.835 503.236 304.355 503.348 303.971 503.572C303.587 503.785 303.379 504.196 303.347 504.804H301.987C302.008 504.292 302.115 503.86 302.307 503.508C302.499 503.156 302.755 502.873 303.075 502.66C303.395 502.436 303.757 502.276 304.163 502.18C304.579 502.084 305.021 502.036 305.491 502.036C305.864 502.036 306.232 502.063 306.595 502.116C306.968 502.169 307.304 502.281 307.603 502.452C307.901 502.612 308.141 502.841 308.323 503.14C308.504 503.439 308.595 503.828 308.595 504.308V508.564C308.595 508.884 308.611 509.119 308.643 509.268C308.685 509.417 308.813 509.492 309.027 509.492C309.144 509.492 309.283 509.465 309.443 509.412V510.468ZM307.235 506.228C307.064 506.356 306.84 506.452 306.563 506.516C306.285 506.569 305.992 506.617 305.683 506.66C305.384 506.692 305.08 506.735 304.771 506.788C304.461 506.831 304.184 506.905 303.939 507.012C303.693 507.119 303.491 507.273 303.331 507.476C303.181 507.668 303.107 507.935 303.107 508.276C303.107 508.5 303.149 508.692 303.235 508.852C303.331 509.001 303.448 509.124 303.587 509.22C303.736 509.316 303.907 509.385 304.099 509.428C304.291 509.471 304.493 509.492 304.707 509.492C305.155 509.492 305.539 509.433 305.859 509.316C306.179 509.188 306.44 509.033 306.643 508.852C306.845 508.66 306.995 508.457 307.091 508.244C307.187 508.02 307.235 507.812 307.235 507.62V506.228ZM310.956 499.076H312.316V503.348H312.348C312.572 502.889 312.924 502.559 313.404 502.356C313.884 502.143 314.412 502.036 314.988 502.036C315.628 502.036 316.183 502.153 316.652 502.388C317.132 502.623 317.527 502.943 317.836 503.348C318.156 503.743 318.396 504.201 318.556 504.724C318.716 505.247 318.796 505.801 318.796 506.388C318.796 506.975 318.716 507.529 318.556 508.052C318.407 508.575 318.172 509.033 317.852 509.428C317.543 509.812 317.148 510.116 316.668 510.34C316.199 510.564 315.65 510.676 315.02 510.676C314.818 510.676 314.588 510.655 314.332 510.612C314.087 510.569 313.842 510.5 313.596 510.404C313.351 510.308 313.116 510.18 312.892 510.02C312.679 509.849 312.498 509.641 312.348 509.396H312.316V510.5H310.956V499.076ZM317.356 506.292C317.356 505.908 317.303 505.535 317.196 505.172C317.1 504.799 316.946 504.468 316.732 504.18C316.53 503.892 316.263 503.663 315.932 503.492C315.612 503.321 315.234 503.236 314.796 503.236C314.338 503.236 313.948 503.327 313.628 503.508C313.308 503.689 313.047 503.929 312.844 504.228C312.642 504.516 312.492 504.847 312.396 505.22C312.311 505.593 312.268 505.972 312.268 506.356C312.268 506.761 312.316 507.156 312.412 507.54C312.508 507.913 312.658 508.244 312.86 508.532C313.074 508.82 313.346 509.055 313.676 509.236C314.007 509.407 314.407 509.492 314.876 509.492C315.346 509.492 315.735 509.401 316.044 509.22C316.364 509.039 316.62 508.799 316.812 508.5C317.004 508.201 317.143 507.86 317.228 507.476C317.314 507.092 317.356 506.697 317.356 506.292ZM326.337 505.572C326.315 505.252 326.241 504.948 326.113 504.66C325.995 504.372 325.83 504.127 325.617 503.924C325.414 503.711 325.169 503.545 324.881 503.428C324.603 503.3 324.294 503.236 323.953 503.236C323.601 503.236 323.281 503.3 322.993 503.428C322.715 503.545 322.475 503.711 322.273 503.924C322.07 504.137 321.91 504.388 321.793 504.676C321.675 504.953 321.606 505.252 321.585 505.572H326.337ZM327.649 507.876C327.467 508.804 327.067 509.503 326.449 509.972C325.83 510.441 325.051 510.676 324.113 510.676C323.451 510.676 322.875 510.569 322.385 510.356C321.905 510.143 321.499 509.844 321.169 509.46C320.838 509.076 320.587 508.617 320.417 508.084C320.257 507.551 320.166 506.969 320.145 506.34C320.145 505.711 320.241 505.135 320.433 504.612C320.625 504.089 320.891 503.636 321.233 503.252C321.585 502.868 321.995 502.569 322.465 502.356C322.945 502.143 323.467 502.036 324.033 502.036C324.769 502.036 325.377 502.191 325.857 502.5C326.347 502.799 326.737 503.183 327.025 503.652C327.323 504.121 327.526 504.633 327.633 505.188C327.75 505.743 327.798 506.271 327.777 506.772H321.585C321.574 507.135 321.617 507.481 321.713 507.812C321.809 508.132 321.963 508.42 322.177 508.676C322.39 508.921 322.662 509.119 322.993 509.268C323.323 509.417 323.713 509.492 324.161 509.492C324.737 509.492 325.206 509.359 325.569 509.092C325.942 508.825 326.187 508.42 326.305 507.876H327.649ZM329.466 499.076H330.826V510.5H329.466V499.076Z" fill="black"/>
<path d="M428 504.5C428 495.663 435.163 488.5 444 488.5H468C476.837 488.5 484 495.663 484 504.5C484 513.337 476.837 520.5 468 520.5H444C435.163 520.5 428 513.337 428 504.5Z" fill="black" fill-opacity="0.2"/>
<g filter="url(#filter4_d_54907_94711)">
<g clip-path="url(#clip3_54907_94711)">
<path d="M436 504.5C436 500.082 439.582 496.5 444 496.5C448.418 496.5 452 500.082 452 504.5C452 508.918 448.418 512.5 444 512.5C439.582 512.5 436 508.918 436 504.5Z" fill="white"/>
</g>
</g>
<path d="M102.768 614.72H105.296C105.467 614.72 105.68 614.709 105.936 614.688C106.192 614.656 106.464 614.592 106.752 614.496C107.04 614.389 107.323 614.24 107.6 614.048C107.888 613.856 108.144 613.595 108.368 613.264C108.592 612.933 108.773 612.523 108.912 612.032C109.061 611.531 109.136 610.928 109.136 610.224C109.136 609.541 109.067 608.933 108.928 608.4C108.8 607.856 108.581 607.397 108.272 607.024C107.973 606.64 107.584 606.352 107.104 606.16C106.624 605.957 106.032 605.856 105.328 605.856H102.768V614.72ZM101.248 604.576H105.168C106.928 604.576 108.283 605.024 109.232 605.92C110.181 606.816 110.656 608.181 110.656 610.016C110.656 610.976 110.549 611.829 110.336 612.576C110.123 613.312 109.792 613.936 109.344 614.448C108.896 614.949 108.325 615.333 107.632 615.6C106.939 615.867 106.117 616 105.168 616H101.248V604.576ZM113.73 606.24H112.37V604.576H113.73V606.24ZM112.37 607.728H113.73V616H112.37V607.728ZM116.669 613.392C116.679 613.691 116.749 613.947 116.877 614.16C117.005 614.363 117.17 614.528 117.373 614.656C117.586 614.773 117.821 614.859 118.077 614.912C118.343 614.965 118.615 614.992 118.893 614.992C119.106 614.992 119.33 614.976 119.565 614.944C119.799 614.912 120.013 614.853 120.205 614.768C120.407 614.683 120.573 614.56 120.701 614.4C120.829 614.229 120.893 614.016 120.893 613.76C120.893 613.408 120.759 613.141 120.493 612.96C120.226 612.779 119.89 612.635 119.485 612.528C119.09 612.411 118.658 612.309 118.189 612.224C117.719 612.128 117.282 612 116.877 611.84C116.482 611.669 116.151 611.435 115.885 611.136C115.618 610.837 115.485 610.421 115.485 609.888C115.485 609.472 115.575 609.115 115.757 608.816C115.949 608.517 116.189 608.277 116.477 608.096C116.775 607.904 117.106 607.765 117.469 607.68C117.842 607.584 118.21 607.536 118.573 607.536C119.042 607.536 119.474 607.579 119.869 607.664C120.263 607.739 120.61 607.877 120.909 608.08C121.218 608.272 121.463 608.539 121.645 608.88C121.826 609.211 121.933 609.627 121.965 610.128H120.605C120.583 609.861 120.514 609.643 120.397 609.472C120.279 609.291 120.13 609.147 119.949 609.04C119.767 608.933 119.565 608.859 119.341 608.816C119.127 608.763 118.909 608.736 118.685 608.736C118.482 608.736 118.274 608.752 118.061 608.784C117.858 608.816 117.671 608.875 117.501 608.96C117.33 609.035 117.191 609.141 117.085 609.28C116.978 609.408 116.924 609.579 116.924 609.792C116.924 610.027 117.004 610.224 117.164 610.384C117.335 610.533 117.549 610.661 117.805 610.768C118.061 610.864 118.349 610.949 118.669 611.024C118.989 611.088 119.309 611.157 119.629 611.232C119.97 611.307 120.301 611.397 120.621 611.504C120.951 611.611 121.239 611.755 121.485 611.936C121.741 612.107 121.943 612.325 122.093 612.592C122.253 612.859 122.333 613.189 122.333 613.584C122.333 614.085 122.226 614.501 122.013 614.832C121.81 615.163 121.538 615.429 121.197 615.632C120.866 615.835 120.487 615.973 120.061 616.048C119.645 616.133 119.229 616.176 118.812 616.176C118.354 616.176 117.917 616.128 117.501 616.032C117.085 615.936 116.717 615.781 116.397 615.568C116.077 615.344 115.821 615.056 115.629 614.704C115.437 614.341 115.33 613.904 115.309 613.392H116.669ZM131.165 615.968C130.93 616.107 130.605 616.176 130.189 616.176C129.837 616.176 129.554 616.08 129.341 615.888C129.138 615.685 129.037 615.36 129.037 614.912C128.663 615.36 128.226 615.685 127.725 615.888C127.234 616.08 126.701 616.176 126.125 616.176C125.751 616.176 125.394 616.133 125.053 616.048C124.722 615.963 124.434 615.829 124.189 615.648C123.943 615.467 123.746 615.232 123.597 614.944C123.458 614.645 123.389 614.288 123.389 613.872C123.389 613.403 123.469 613.019 123.629 612.72C123.789 612.421 123.997 612.181 124.253 612C124.519 611.808 124.818 611.664 125.149 611.568C125.49 611.472 125.837 611.392 126.189 611.328C126.562 611.253 126.914 611.2 127.245 611.168C127.586 611.125 127.885 611.072 128.141 611.008C128.397 610.933 128.599 610.832 128.749 610.704C128.898 610.565 128.973 610.368 128.973 610.112C128.973 609.813 128.914 609.573 128.797 609.392C128.69 609.211 128.546 609.072 128.365 608.976C128.194 608.88 127.997 608.816 127.773 608.784C127.559 608.752 127.346 608.736 127.133 608.736C126.557 608.736 126.077 608.848 125.693 609.072C125.309 609.285 125.101 609.696 125.069 610.304H123.709C123.73 609.792 123.837 609.36 124.029 609.008C124.221 608.656 124.477 608.373 124.797 608.16C125.117 607.936 125.479 607.776 125.885 607.68C126.301 607.584 126.743 607.536 127.213 607.536C127.586 607.536 127.954 607.563 128.317 607.616C128.69 607.669 129.026 607.781 129.325 607.952C129.623 608.112 129.863 608.341 130.045 608.64C130.226 608.939 130.317 609.328 130.317 609.808V614.064C130.317 614.384 130.333 614.619 130.365 614.768C130.407 614.917 130.535 614.992 130.749 614.992C130.866 614.992 131.005 614.965 131.165 614.912V615.968ZM128.957 611.728C128.786 611.856 128.562 611.952 128.285 612.016C128.007 612.069 127.714 612.117 127.405 612.16C127.106 612.192 126.802 612.235 126.493 612.288C126.183 612.331 125.906 612.405 125.661 612.512C125.415 612.619 125.213 612.773 125.053 612.976C124.903 613.168 124.829 613.435 124.829 613.776C124.829 614 124.871 614.192 124.957 614.352C125.053 614.501 125.17 614.624 125.309 614.72C125.458 614.816 125.629 614.885 125.821 614.928C126.013 614.971 126.215 614.992 126.429 614.992C126.877 614.992 127.261 614.933 127.581 614.816C127.901 614.688 128.162 614.533 128.365 614.352C128.567 614.16 128.717 613.957 128.813 613.744C128.909 613.52 128.957 613.312 128.957 613.12V611.728ZM132.478 604.576H133.838V608.848H133.87C134.094 608.389 134.446 608.059 134.926 607.856C135.406 607.643 135.934 607.536 136.51 607.536C137.15 607.536 137.705 607.653 138.174 607.888C138.654 608.123 139.049 608.443 139.358 608.848C139.678 609.243 139.918 609.701 140.078 610.224C140.238 610.747 140.318 611.301 140.318 611.888C140.318 612.475 140.238 613.029 140.078 613.552C139.929 614.075 139.694 614.533 139.374 614.928C139.065 615.312 138.67 615.616 138.19 615.84C137.721 616.064 137.172 616.176 136.542 616.176C136.34 616.176 136.11 616.155 135.854 616.112C135.609 616.069 135.364 616 135.118 615.904C134.873 615.808 134.638 615.68 134.414 615.52C134.201 615.349 134.02 615.141 133.87 614.896H133.838V616H132.478V604.576ZM138.878 611.792C138.878 611.408 138.825 611.035 138.718 610.672C138.622 610.299 138.468 609.968 138.254 609.68C138.052 609.392 137.785 609.163 137.454 608.992C137.134 608.821 136.756 608.736 136.318 608.736C135.86 608.736 135.47 608.827 135.15 609.008C134.83 609.189 134.569 609.429 134.366 609.728C134.164 610.016 134.014 610.347 133.918 610.72C133.833 611.093 133.79 611.472 133.79 611.856C133.79 612.261 133.838 612.656 133.934 613.04C134.03 613.413 134.18 613.744 134.382 614.032C134.596 614.32 134.868 614.555 135.198 614.736C135.529 614.907 135.929 614.992 136.398 614.992C136.868 614.992 137.257 614.901 137.566 614.72C137.886 614.539 138.142 614.299 138.334 614C138.526 613.701 138.665 613.36 138.75 612.976C138.836 612.592 138.878 612.197 138.878 611.792ZM141.995 604.576H143.355V616H141.995V604.576ZM151.206 611.072C151.184 610.752 151.11 610.448 150.982 610.16C150.864 609.872 150.699 609.627 150.486 609.424C150.283 609.211 150.038 609.045 149.75 608.928C149.472 608.8 149.163 608.736 148.822 608.736C148.47 608.736 148.15 608.8 147.862 608.928C147.584 609.045 147.344 609.211 147.142 609.424C146.939 609.637 146.779 609.888 146.662 610.176C146.544 610.453 146.475 610.752 146.454 611.072H151.206ZM152.517 613.376C152.336 614.304 151.936 615.003 151.318 615.472C150.699 615.941 149.92 616.176 148.982 616.176C148.32 616.176 147.744 616.069 147.254 615.856C146.774 615.643 146.368 615.344 146.038 614.96C145.707 614.576 145.456 614.117 145.286 613.584C145.126 613.051 145.035 612.469 145.014 611.84C145.014 611.211 145.11 610.635 145.302 610.112C145.494 609.589 145.76 609.136 146.102 608.752C146.454 608.368 146.864 608.069 147.334 607.856C147.814 607.643 148.336 607.536 148.902 607.536C149.638 607.536 150.246 607.691 150.726 608C151.216 608.299 151.606 608.683 151.894 609.152C152.192 609.621 152.395 610.133 152.502 610.688C152.619 611.243 152.667 611.771 152.646 612.272H146.454C146.443 612.635 146.486 612.981 146.582 613.312C146.678 613.632 146.832 613.92 147.046 614.176C147.259 614.421 147.531 614.619 147.862 614.768C148.192 614.917 148.582 614.992 149.03 614.992C149.606 614.992 150.075 614.859 150.438 614.592C150.811 614.325 151.056 613.92 151.174 613.376H152.517ZM155.047 611.936C155.047 612.32 155.095 612.699 155.191 613.072C155.298 613.435 155.453 613.76 155.655 614.048C155.869 614.336 156.135 614.565 156.455 614.736C156.786 614.907 157.17 614.992 157.607 614.992C158.066 614.992 158.455 614.901 158.775 614.72C159.095 614.539 159.357 614.304 159.559 614.016C159.762 613.717 159.906 613.381 159.991 613.008C160.087 612.635 160.135 612.256 160.135 611.872C160.135 611.467 160.087 611.077 159.991 610.704C159.895 610.32 159.741 609.984 159.527 609.696C159.325 609.408 159.058 609.179 158.727 609.008C158.397 608.827 157.997 608.736 157.527 608.736C157.069 608.736 156.679 608.827 156.359 609.008C156.039 609.189 155.783 609.429 155.591 609.728C155.399 610.027 155.261 610.368 155.175 610.752C155.09 611.136 155.047 611.531 155.047 611.936ZM161.447 616H160.087V614.88H160.055C159.831 615.339 159.479 615.669 158.999 615.872C158.519 616.075 157.991 616.176 157.415 616.176C156.775 616.176 156.215 616.059 155.735 615.824C155.266 615.589 154.871 615.275 154.551 614.88C154.242 614.485 154.007 614.027 153.847 613.504C153.687 612.981 153.607 612.427 153.607 611.84C153.607 611.253 153.682 610.699 153.831 610.176C153.991 609.653 154.226 609.2 154.535 608.816C154.855 608.421 155.25 608.112 155.719 607.888C156.199 607.653 156.754 607.536 157.383 607.536C157.597 607.536 157.826 607.557 158.071 607.6C158.317 607.643 158.562 607.717 158.807 607.824C159.053 607.92 159.282 608.053 159.495 608.224C159.719 608.384 159.906 608.587 160.055 608.832H160.087V604.576H161.447V616Z" fill="black" fill-opacity="0.68"/>
<path d="M293.248 605.076H294.768V615.22H300.816V616.5H293.248V605.076ZM309.443 616.468C309.208 616.607 308.883 616.676 308.467 616.676C308.115 616.676 307.832 616.58 307.619 616.388C307.416 616.185 307.315 615.86 307.315 615.412C306.941 615.86 306.504 616.185 306.003 616.388C305.512 616.58 304.979 616.676 304.403 616.676C304.029 616.676 303.672 616.633 303.331 616.548C303 616.463 302.712 616.329 302.467 616.148C302.221 615.967 302.024 615.732 301.875 615.444C301.736 615.145 301.667 614.788 301.667 614.372C301.667 613.903 301.747 613.519 301.907 613.22C302.067 612.921 302.275 612.681 302.531 612.5C302.797 612.308 303.096 612.164 303.427 612.068C303.768 611.972 304.115 611.892 304.467 611.828C304.84 611.753 305.192 611.7 305.523 611.668C305.864 611.625 306.163 611.572 306.419 611.508C306.675 611.433 306.877 611.332 307.027 611.204C307.176 611.065 307.251 610.868 307.251 610.612C307.251 610.313 307.192 610.073 307.075 609.892C306.968 609.711 306.824 609.572 306.643 609.476C306.472 609.38 306.275 609.316 306.051 609.284C305.837 609.252 305.624 609.236 305.411 609.236C304.835 609.236 304.355 609.348 303.971 609.572C303.587 609.785 303.379 610.196 303.347 610.804H301.987C302.008 610.292 302.115 609.86 302.307 609.508C302.499 609.156 302.755 608.873 303.075 608.66C303.395 608.436 303.757 608.276 304.163 608.18C304.579 608.084 305.021 608.036 305.491 608.036C305.864 608.036 306.232 608.063 306.595 608.116C306.968 608.169 307.304 608.281 307.603 608.452C307.901 608.612 308.141 608.841 308.323 609.14C308.504 609.439 308.595 609.828 308.595 610.308V614.564C308.595 614.884 308.611 615.119 308.643 615.268C308.685 615.417 308.813 615.492 309.027 615.492C309.144 615.492 309.283 615.465 309.443 615.412V616.468ZM307.235 612.228C307.064 612.356 306.84 612.452 306.563 612.516C306.285 612.569 305.992 612.617 305.683 612.66C305.384 612.692 305.08 612.735 304.771 612.788C304.461 612.831 304.184 612.905 303.939 613.012C303.693 613.119 303.491 613.273 303.331 613.476C303.181 613.668 303.107 613.935 303.107 614.276C303.107 614.5 303.149 614.692 303.235 614.852C303.331 615.001 303.448 615.124 303.587 615.22C303.736 615.316 303.907 615.385 304.099 615.428C304.291 615.471 304.493 615.492 304.707 615.492C305.155 615.492 305.539 615.433 305.859 615.316C306.179 615.188 306.44 615.033 306.643 614.852C306.845 614.66 306.995 614.457 307.091 614.244C307.187 614.02 307.235 613.812 307.235 613.62V612.228ZM310.956 605.076H312.316V609.348H312.348C312.572 608.889 312.924 608.559 313.404 608.356C313.884 608.143 314.412 608.036 314.988 608.036C315.628 608.036 316.183 608.153 316.652 608.388C317.132 608.623 317.527 608.943 317.836 609.348C318.156 609.743 318.396 610.201 318.556 610.724C318.716 611.247 318.796 611.801 318.796 612.388C318.796 612.975 318.716 613.529 318.556 614.052C318.407 614.575 318.172 615.033 317.852 615.428C317.543 615.812 317.148 616.116 316.668 616.34C316.199 616.564 315.65 616.676 315.02 616.676C314.818 616.676 314.588 616.655 314.332 616.612C314.087 616.569 313.842 616.5 313.596 616.404C313.351 616.308 313.116 616.18 312.892 616.02C312.679 615.849 312.498 615.641 312.348 615.396H312.316V616.5H310.956V605.076ZM317.356 612.292C317.356 611.908 317.303 611.535 317.196 611.172C317.1 610.799 316.946 610.468 316.732 610.18C316.53 609.892 316.263 609.663 315.932 609.492C315.612 609.321 315.234 609.236 314.796 609.236C314.338 609.236 313.948 609.327 313.628 609.508C313.308 609.689 313.047 609.929 312.844 610.228C312.642 610.516 312.492 610.847 312.396 611.22C312.311 611.593 312.268 611.972 312.268 612.356C312.268 612.761 312.316 613.156 312.412 613.54C312.508 613.913 312.658 614.244 312.86 614.532C313.074 614.82 313.346 615.055 313.676 615.236C314.007 615.407 314.407 615.492 314.876 615.492C315.346 615.492 315.735 615.401 316.044 615.22C316.364 615.039 316.62 614.799 316.812 614.5C317.004 614.201 317.143 613.86 317.228 613.476C317.314 613.092 317.356 612.697 317.356 612.292ZM326.337 611.572C326.315 611.252 326.241 610.948 326.113 610.66C325.995 610.372 325.83 610.127 325.617 609.924C325.414 609.711 325.169 609.545 324.881 609.428C324.603 609.3 324.294 609.236 323.953 609.236C323.601 609.236 323.281 609.3 322.993 609.428C322.715 609.545 322.475 609.711 322.273 609.924C322.07 610.137 321.91 610.388 321.793 610.676C321.675 610.953 321.606 611.252 321.585 611.572H326.337ZM327.649 613.876C327.467 614.804 327.067 615.503 326.449 615.972C325.83 616.441 325.051 616.676 324.113 616.676C323.451 616.676 322.875 616.569 322.385 616.356C321.905 616.143 321.499 615.844 321.169 615.46C320.838 615.076 320.587 614.617 320.417 614.084C320.257 613.551 320.166 612.969 320.145 612.34C320.145 611.711 320.241 611.135 320.433 610.612C320.625 610.089 320.891 609.636 321.233 609.252C321.585 608.868 321.995 608.569 322.465 608.356C322.945 608.143 323.467 608.036 324.033 608.036C324.769 608.036 325.377 608.191 325.857 608.5C326.347 608.799 326.737 609.183 327.025 609.652C327.323 610.121 327.526 610.633 327.633 611.188C327.75 611.743 327.798 612.271 327.777 612.772H321.585C321.574 613.135 321.617 613.481 321.713 613.812C321.809 614.132 321.963 614.42 322.177 614.676C322.39 614.921 322.662 615.119 322.993 615.268C323.323 615.417 323.713 615.492 324.161 615.492C324.737 615.492 325.206 615.359 325.569 615.092C325.942 614.825 326.187 614.42 326.305 613.876H327.649ZM329.466 605.076H330.826V616.5H329.466V605.076Z" fill="black" fill-opacity="0.2"/>
<path d="M428 610.5C428 601.663 435.163 594.5 444 594.5H468C476.837 594.5 484 601.663 484 610.5C484 619.337 476.837 626.5 468 626.5H444C435.163 626.5 428 619.337 428 610.5Z" fill="black" fill-opacity="0.2"/>
<g filter="url(#filter5_d_54907_94711)">
<g clip-path="url(#clip4_54907_94711)">
<path d="M436 610.5C436 606.082 439.582 602.5 444 602.5C448.418 602.5 452 606.082 452 610.5C452 614.918 448.418 618.5 444 618.5C439.582 618.5 436 614.918 436 610.5Z" fill="white"/>
</g>
</g>
<path d="M107.856 713.92C107.771 713.099 107.472 712.507 106.96 712.144C106.459 711.771 105.813 711.584 105.024 711.584C104.704 711.584 104.389 711.616 104.08 711.68C103.771 711.744 103.493 711.851 103.248 712C103.013 712.149 102.821 712.352 102.672 712.608C102.533 712.853 102.464 713.163 102.464 713.536C102.464 713.888 102.565 714.176 102.768 714.4C102.981 714.613 103.259 714.789 103.6 714.928C103.952 715.067 104.347 715.184 104.784 715.28C105.221 715.365 105.664 715.461 106.112 715.568C106.571 715.675 107.019 715.803 107.456 715.952C107.893 716.091 108.283 716.283 108.624 716.528C108.976 716.773 109.253 717.083 109.456 717.456C109.669 717.829 109.776 718.299 109.776 718.864C109.776 719.472 109.637 719.995 109.36 720.432C109.093 720.859 108.747 721.211 108.32 721.488C107.893 721.755 107.413 721.947 106.88 722.064C106.357 722.192 105.835 722.256 105.312 722.256C104.672 722.256 104.064 722.176 103.488 722.016C102.923 721.856 102.421 721.616 101.984 721.296C101.557 720.965 101.216 720.549 100.96 720.048C100.715 719.536 100.592 718.933 100.592 718.24H102.032C102.032 718.72 102.123 719.136 102.304 719.488C102.496 719.829 102.741 720.112 103.04 720.336C103.349 720.56 103.707 720.725 104.112 720.832C104.517 720.939 104.933 720.992 105.36 720.992C105.701 720.992 106.043 720.96 106.384 720.896C106.736 720.832 107.051 720.725 107.328 720.576C107.605 720.416 107.829 720.203 108 719.936C108.171 719.669 108.256 719.328 108.256 718.912C108.256 718.517 108.149 718.197 107.936 717.952C107.733 717.707 107.456 717.509 107.104 717.36C106.763 717.2 106.373 717.072 105.936 716.976C105.499 716.88 105.051 716.784 104.592 716.688C104.144 716.581 103.701 716.464 103.264 716.336C102.827 716.197 102.432 716.021 102.08 715.808C101.739 715.584 101.461 715.301 101.248 714.96C101.045 714.608 100.944 714.171 100.944 713.648C100.944 713.072 101.061 712.576 101.296 712.16C101.531 711.733 101.84 711.387 102.224 711.12C102.619 710.843 103.061 710.64 103.552 710.512C104.053 710.373 104.565 710.304 105.088 710.304C105.675 710.304 106.219 710.373 106.72 710.512C107.221 710.651 107.659 710.869 108.032 711.168C108.416 711.467 108.715 711.845 108.928 712.304C109.152 712.752 109.275 713.291 109.296 713.92H107.856ZM111.479 710.576H112.839V717.344L116.615 713.728H118.439L115.159 716.736L118.679 722H116.951L114.119 717.68L112.839 718.864V722H111.479V710.576ZM125.44 717.072C125.419 716.752 125.344 716.448 125.216 716.16C125.099 715.872 124.933 715.627 124.72 715.424C124.517 715.211 124.272 715.045 123.984 714.928C123.707 714.8 123.397 714.736 123.056 714.736C122.704 714.736 122.384 714.8 122.096 714.928C121.819 715.045 121.579 715.211 121.376 715.424C121.173 715.637 121.013 715.888 120.896 716.176C120.779 716.453 120.709 716.752 120.688 717.072H125.44ZM126.752 719.376C126.571 720.304 126.171 721.003 125.552 721.472C124.933 721.941 124.155 722.176 123.216 722.176C122.555 722.176 121.979 722.069 121.488 721.856C121.008 721.643 120.603 721.344 120.272 720.96C119.941 720.576 119.691 720.117 119.52 719.584C119.36 719.051 119.269 718.469 119.248 717.84C119.248 717.211 119.344 716.635 119.536 716.112C119.728 715.589 119.995 715.136 120.336 714.752C120.688 714.368 121.099 714.069 121.568 713.856C122.048 713.643 122.571 713.536 123.136 713.536C123.872 713.536 124.48 713.691 124.96 714C125.451 714.299 125.84 714.683 126.128 715.152C126.427 715.621 126.629 716.133 126.736 716.688C126.853 717.243 126.901 717.771 126.88 718.272H120.688C120.677 718.635 120.72 718.981 120.816 719.312C120.912 719.632 121.067 719.92 121.28 720.176C121.493 720.421 121.765 720.619 122.096 720.768C122.427 720.917 122.816 720.992 123.264 720.992C123.84 720.992 124.309 720.859 124.672 720.592C125.045 720.325 125.291 719.92 125.408 719.376H126.752ZM128.37 710.576H129.73V722H128.37V710.576ZM137.581 717.072C137.559 716.752 137.485 716.448 137.357 716.16C137.239 715.872 137.074 715.627 136.861 715.424C136.658 715.211 136.413 715.045 136.125 714.928C135.847 714.8 135.538 714.736 135.197 714.736C134.845 714.736 134.525 714.8 134.237 714.928C133.959 715.045 133.719 715.211 133.517 715.424C133.314 715.637 133.154 715.888 133.037 716.176C132.919 716.453 132.85 716.752 132.829 717.072H137.581ZM138.892 719.376C138.711 720.304 138.311 721.003 137.693 721.472C137.074 721.941 136.295 722.176 135.357 722.176C134.695 722.176 134.119 722.069 133.629 721.856C133.149 721.643 132.743 721.344 132.413 720.96C132.082 720.576 131.831 720.117 131.661 719.584C131.501 719.051 131.41 718.469 131.389 717.84C131.389 717.211 131.485 716.635 131.677 716.112C131.869 715.589 132.135 715.136 132.477 714.752C132.829 714.368 133.239 714.069 133.709 713.856C134.189 713.643 134.711 713.536 135.277 713.536C136.013 713.536 136.621 713.691 137.101 714C137.591 714.299 137.981 714.683 138.269 715.152C138.567 715.621 138.77 716.133 138.877 716.688C138.994 717.243 139.042 717.771 139.021 718.272H132.829C132.818 718.635 132.861 718.981 132.957 719.312C133.053 719.632 133.207 719.92 133.421 720.176C133.634 720.421 133.906 720.619 134.237 720.768C134.567 720.917 134.957 720.992 135.405 720.992C135.981 720.992 136.45 720.859 136.813 720.592C137.186 720.325 137.431 719.92 137.549 719.376H138.892ZM142.318 713.728H143.966V714.928H142.318V720.064C142.318 720.224 142.329 720.352 142.35 720.448C142.382 720.544 142.436 720.619 142.51 720.672C142.585 720.725 142.686 720.763 142.814 720.784C142.953 720.795 143.129 720.8 143.342 720.8H143.966V722H142.926C142.574 722 142.27 721.979 142.014 721.936C141.769 721.883 141.566 721.792 141.406 721.664C141.257 721.536 141.145 721.355 141.07 721.12C140.996 720.885 140.958 720.576 140.958 720.192V714.928H139.55V713.728H140.958V711.248H142.318V713.728ZM146.469 717.872C146.469 718.373 146.533 718.821 146.661 719.216C146.8 719.6 146.986 719.925 147.221 720.192C147.456 720.448 147.728 720.645 148.037 720.784C148.357 720.923 148.693 720.992 149.045 720.992C149.397 720.992 149.728 720.923 150.037 720.784C150.357 720.645 150.634 720.448 150.869 720.192C151.104 719.925 151.285 719.6 151.413 719.216C151.552 718.821 151.621 718.373 151.621 717.872C151.621 717.371 151.552 716.928 151.413 716.544C151.285 716.149 151.104 715.819 150.869 715.552C150.634 715.285 150.357 715.083 150.037 714.944C149.728 714.805 149.397 714.736 149.045 714.736C148.693 714.736 148.357 714.805 148.037 714.944C147.728 715.083 147.456 715.285 147.221 715.552C146.986 715.819 146.8 716.149 146.661 716.544C146.533 716.928 146.469 717.371 146.469 717.872ZM145.029 717.872C145.029 717.264 145.114 716.699 145.285 716.176C145.456 715.643 145.712 715.184 146.053 714.8C146.394 714.405 146.816 714.096 147.317 713.872C147.818 713.648 148.394 713.536 149.045 713.536C149.706 713.536 150.282 713.648 150.773 713.872C151.274 714.096 151.696 714.405 152.037 714.8C152.378 715.184 152.634 715.643 152.805 716.176C152.976 716.699 153.061 717.264 153.061 717.872C153.061 718.48 152.976 719.045 152.805 719.568C152.634 720.091 152.378 720.549 152.037 720.944C151.696 721.328 151.274 721.632 150.773 721.856C150.282 722.069 149.706 722.176 149.045 722.176C148.394 722.176 147.818 722.069 147.317 721.856C146.816 721.632 146.394 721.328 146.053 720.944C145.712 720.549 145.456 720.091 145.285 719.568C145.114 719.045 145.029 718.48 145.029 717.872ZM154.665 713.728H155.945V715.04H155.977C156.542 714.037 157.438 713.536 158.665 713.536C159.209 713.536 159.662 713.611 160.025 713.76C160.387 713.909 160.681 714.117 160.905 714.384C161.129 714.651 161.283 714.971 161.369 715.344C161.465 715.707 161.513 716.112 161.513 716.56V722H160.153V716.4C160.153 715.888 160.003 715.483 159.705 715.184C159.406 714.885 158.995 714.736 158.473 714.736C158.057 714.736 157.694 714.8 157.385 714.928C157.086 715.056 156.835 715.237 156.633 715.472C156.43 715.707 156.275 715.984 156.169 716.304C156.073 716.613 156.025 716.955 156.025 717.328V722H154.665V713.728Z" fill="black" fill-opacity="0.68"/>
<g clip-path="url(#clip5_54907_94711)">
<g clip-path="url(#clip6_54907_94711)">
<rect width="224" height="48" transform="translate(276 692.5)" fill="black" fill-opacity="0.04"/>
</g>
</g>
<defs>
<filter id="filter0_d_54907_94711" x="434" y="71.5" width="20" height="20" filterUnits="userSpaceOnUse" color-interpolation-filters="sRGB">
<feFlood flood-opacity="0" result="BackgroundImageFix"/>
<feColorMatrix in="SourceAlpha" type="matrix" values="0 0 0 0 0 0 0 0 0 0 0 0 0 0 0 0 0 0 127 0" result="hardAlpha"/>
<feOffset dy="1"/>
<feGaussianBlur stdDeviation="1"/>
<feComposite in2="hardAlpha" operator="out"/>
<feColorMatrix type="matrix" values="0 0 0 0 0 0 0 0 0 0 0 0 0 0 0 0 0 0 0.24 0"/>
<feBlend mode="normal" in2="BackgroundImageFix" result="effect1_dropShadow_54907_94711"/>
<feBlend mode="normal" in="SourceGraphic" in2="effect1_dropShadow_54907_94711" result="shape"/>
</filter>
<filter id="filter1_d_54907_94711" x="434" y="177.5" width="20" height="20" filterUnits="userSpaceOnUse" color-interpolation-filters="sRGB">
<feFlood flood-opacity="0" result="BackgroundImageFix"/>
<feColorMatrix in="SourceAlpha" type="matrix" values="0 0 0 0 0 0 0 0 0 0 0 0 0 0 0 0 0 0 127 0" result="hardAlpha"/>
<feOffset dy="1"/>
<feGaussianBlur stdDeviation="1"/>
<feComposite in2="hardAlpha" operator="out"/>
<feColorMatrix type="matrix" values="0 0 0 0 0 0 0 0 0 0 0 0 0 0 0 0 0 0 0.24 0"/>
<feBlend mode="normal" in2="BackgroundImageFix" result="effect1_dropShadow_54907_94711"/>
<feBlend mode="normal" in="SourceGraphic" in2="effect1_dropShadow_54907_94711" result="shape"/>
</filter>
<filter id="filter2_d_54907_94711" x="434" y="283.5" width="20" height="20" filterUnits="userSpaceOnUse" color-interpolation-filters="sRGB">
<feFlood flood-opacity="0" result="BackgroundImageFix"/>
<feColorMatrix in="SourceAlpha" type="matrix" values="0 0 0 0 0 0 0 0 0 0 0 0 0 0 0 0 0 0 127 0" result="hardAlpha"/>
<feOffset dy="1"/>
<feGaussianBlur stdDeviation="1"/>
<feComposite in2="hardAlpha" operator="out"/>
<feColorMatrix type="matrix" values="0 0 0 0 0 0 0 0 0 0 0 0 0 0 0 0 0 0 0.24 0"/>
<feBlend mode="normal" in2="BackgroundImageFix" result="effect1_dropShadow_54907_94711"/>
<feBlend mode="normal" in="SourceGraphic" in2="effect1_dropShadow_54907_94711" result="shape"/>
</filter>
<filter id="filter3_d_54907_94711" x="434" y="389.5" width="28" height="20" filterUnits="userSpaceOnUse" color-interpolation-filters="sRGB">
<feFlood flood-opacity="0" result="BackgroundImageFix"/>
<feColorMatrix in="SourceAlpha" type="matrix" values="0 0 0 0 0 0 0 0 0 0 0 0 0 0 0 0 0 0 127 0" result="hardAlpha"/>
<feOffset dy="1"/>
<feGaussianBlur stdDeviation="1"/>
<feComposite in2="hardAlpha" operator="out"/>
<feColorMatrix type="matrix" values="0 0 0 0 0 0 0 0 0 0 0 0 0 0 0 0 0 0 0.24 0"/>
<feBlend mode="normal" in2="BackgroundImageFix" result="effect1_dropShadow_54907_94711"/>
<feBlend mode="normal" in="SourceGraphic" in2="effect1_dropShadow_54907_94711" result="shape"/>
</filter>
<filter id="filter4_d_54907_94711" x="434" y="495.5" width="20" height="20" filterUnits="userSpaceOnUse" color-interpolation-filters="sRGB">
<feFlood flood-opacity="0" result="BackgroundImageFix"/>
<feColorMatrix in="SourceAlpha" type="matrix" values="0 0 0 0 0 0 0 0 0 0 0 0 0 0 0 0 0 0 127 0" result="hardAlpha"/>
<feOffset dy="1"/>
<feGaussianBlur stdDeviation="1"/>
<feComposite in2="hardAlpha" operator="out"/>
<feColorMatrix type="matrix" values="0 0 0 0 0 0 0 0 0 0 0 0 0 0 0 0 0 0 0.24 0"/>
<feBlend mode="normal" in2="BackgroundImageFix" result="effect1_dropShadow_54907_94711"/>
<feBlend mode="normal" in="SourceGraphic" in2="effect1_dropShadow_54907_94711" result="shape"/>
</filter>
<filter id="filter5_d_54907_94711" x="434" y="601.5" width="20" height="20" filterUnits="userSpaceOnUse" color-interpolation-filters="sRGB">
<feFlood flood-opacity="0" result="BackgroundImageFix"/>
<feColorMatrix in="SourceAlpha" type="matrix" values="0 0 0 0 0 0 0 0 0 0 0 0 0 0 0 0 0 0 127 0" result="hardAlpha"/>
<feOffset dy="1"/>
<feGaussianBlur stdDeviation="1"/>
<feComposite in2="hardAlpha" operator="out"/>
<feColorMatrix type="matrix" values="0 0 0 0 0 0 0 0 0 0 0 0 0 0 0 0 0 0 0.24 0"/>
<feBlend mode="normal" in2="BackgroundImageFix" result="effect1_dropShadow_54907_94711"/>
<feBlend mode="normal" in="SourceGraphic" in2="effect1_dropShadow_54907_94711" result="shape"/>
</filter>
<clipPath id="clip0_54907_94711">
<path d="M436 80.5C436 76.0817 439.582 72.5 444 72.5C448.418 72.5 452 76.0817 452 80.5C452 84.9183 448.418 88.5 444 88.5C439.582 88.5 436 84.9183 436 80.5Z" fill="white"/>
</clipPath>
<clipPath id="clip1_54907_94711">
<path d="M436 186.5C436 182.082 439.582 178.5 444 178.5C448.418 178.5 452 182.082 452 186.5C452 190.918 448.418 194.5 444 194.5C439.582 194.5 436 190.918 436 186.5Z" fill="white"/>
</clipPath>
<clipPath id="clip2_54907_94711">
<path d="M436 292.5C436 288.082 439.582 284.5 444 284.5C448.418 284.5 452 288.082 452 292.5C452 296.918 448.418 300.5 444 300.5C439.582 300.5 436 296.918 436 292.5Z" fill="white"/>
</clipPath>
<clipPath id="clip3_54907_94711">
<path d="M436 504.5C436 500.082 439.582 496.5 444 496.5C448.418 496.5 452 500.082 452 504.5C452 508.918 448.418 512.5 444 512.5C439.582 512.5 436 508.918 436 504.5Z" fill="white"/>
</clipPath>
<clipPath id="clip4_54907_94711">
<path d="M436 610.5C436 606.082 439.582 602.5 444 602.5C448.418 602.5 452 606.082 452 610.5C452 614.918 448.418 618.5 444 618.5C439.582 618.5 436 614.918 436 610.5Z" fill="white"/>
</clipPath>
<clipPath id="clip5_54907_94711">
<rect width="224" height="56" fill="white" transform="translate(276 688.5)"/>
</clipPath>
<clipPath id="clip6_54907_94711">
<rect width="224" height="56" fill="white" transform="translate(276 688.5)"/>
</clipPath>
</defs>
</svg>
