<svg width="600" height="797" viewBox="0 0 600 797" fill="none" xmlns="http://www.w3.org/2000/svg">
<rect width="600" height="797" fill="black" fill-opacity="0.04"/>
<path d="M159.748 98.576H167.636V99.856H161.268V103.488H167.204V104.768H161.268V108.72H167.684V110H159.748V98.576ZM169.305 101.728H170.585V103.04H170.617C171.183 102.037 172.079 101.536 173.305 101.536C173.849 101.536 174.303 101.611 174.665 101.76C175.028 101.909 175.321 102.117 175.545 102.384C175.769 102.651 175.924 102.971 176.009 103.344C176.105 103.707 176.153 104.112 176.153 104.56V110H174.793V104.4C174.793 103.888 174.644 103.483 174.345 103.184C174.047 102.885 173.636 102.736 173.113 102.736C172.697 102.736 172.335 102.8 172.025 102.928C171.727 103.056 171.476 103.237 171.273 103.472C171.071 103.707 170.916 103.984 170.809 104.304C170.713 104.613 170.665 104.955 170.665 105.328V110H169.305V101.728ZM185.524 109.968C185.289 110.107 184.964 110.176 184.548 110.176C184.196 110.176 183.913 110.08 183.7 109.888C183.497 109.685 183.396 109.36 183.396 108.912C183.023 109.36 182.585 109.685 182.084 109.888C181.593 110.08 181.06 110.176 180.484 110.176C180.111 110.176 179.753 110.133 179.412 110.048C179.081 109.963 178.793 109.829 178.548 109.648C178.303 109.467 178.105 109.232 177.956 108.944C177.817 108.645 177.748 108.288 177.748 107.872C177.748 107.403 177.828 107.019 177.988 106.72C178.148 106.421 178.356 106.181 178.612 106C178.879 105.808 179.177 105.664 179.508 105.568C179.849 105.472 180.196 105.392 180.548 105.328C180.921 105.253 181.273 105.2 181.604 105.168C181.945 105.125 182.244 105.072 182.5 105.008C182.756 104.933 182.959 104.832 183.108 104.704C183.257 104.565 183.332 104.368 183.332 104.112C183.332 103.813 183.273 103.573 183.156 103.392C183.049 103.211 182.905 103.072 182.724 102.976C182.553 102.88 182.356 102.816 182.132 102.784C181.919 102.752 181.705 102.736 181.492 102.736C180.916 102.736 180.436 102.848 180.052 103.072C179.668 103.285 179.46 103.696 179.428 104.304H178.068C178.089 103.792 178.196 103.36 178.388 103.008C178.58 102.656 178.836 102.373 179.156 102.16C179.476 101.936 179.839 101.776 180.244 101.68C180.66 101.584 181.103 101.536 181.572 101.536C181.945 101.536 182.313 101.563 182.676 101.616C183.049 101.669 183.385 101.781 183.684 101.952C183.983 102.112 184.223 102.341 184.404 102.64C184.585 102.939 184.676 103.328 184.676 103.808V108.064C184.676 108.384 184.692 108.619 184.724 108.768C184.767 108.917 184.895 108.992 185.108 108.992C185.225 108.992 185.364 108.965 185.524 108.912V109.968ZM183.316 105.728C183.145 105.856 182.921 105.952 182.644 106.016C182.367 106.069 182.073 106.117 181.764 106.16C181.465 106.192 181.161 106.235 180.852 106.288C180.543 106.331 180.265 106.405 180.02 106.512C179.775 106.619 179.572 106.773 179.412 106.976C179.263 107.168 179.188 107.435 179.188 107.776C179.188 108 179.231 108.192 179.316 108.352C179.412 108.501 179.529 108.624 179.668 108.72C179.817 108.816 179.988 108.885 180.18 108.928C180.372 108.971 180.575 108.992 180.788 108.992C181.236 108.992 181.62 108.933 181.94 108.816C182.26 108.688 182.521 108.533 182.724 108.352C182.927 108.16 183.076 107.957 183.172 107.744C183.268 107.52 183.316 107.312 183.316 107.12V105.728ZM186.838 98.576H188.198V102.848H188.23C188.454 102.389 188.806 102.059 189.286 101.856C189.766 101.643 190.294 101.536 190.87 101.536C191.51 101.536 192.064 101.653 192.534 101.888C193.014 102.123 193.408 102.443 193.718 102.848C194.038 103.243 194.278 103.701 194.438 104.224C194.598 104.747 194.678 105.301 194.678 105.888C194.678 106.475 194.598 107.029 194.438 107.552C194.288 108.075 194.054 108.533 193.734 108.928C193.424 109.312 193.03 109.616 192.55 109.84C192.08 110.064 191.531 110.176 190.902 110.176C190.699 110.176 190.47 110.155 190.214 110.112C189.968 110.069 189.723 110 189.478 109.904C189.232 109.808 188.998 109.68 188.774 109.52C188.56 109.349 188.379 109.141 188.23 108.896H188.198V110H186.838V98.576ZM193.238 105.792C193.238 105.408 193.184 105.035 193.078 104.672C192.982 104.299 192.827 103.968 192.614 103.68C192.411 103.392 192.144 103.163 191.814 102.992C191.494 102.821 191.115 102.736 190.678 102.736C190.219 102.736 189.83 102.827 189.51 103.008C189.19 103.189 188.928 103.429 188.726 103.728C188.523 104.016 188.374 104.347 188.278 104.72C188.192 105.093 188.15 105.472 188.15 105.856C188.15 106.261 188.198 106.656 188.294 107.04C188.39 107.413 188.539 107.744 188.742 108.032C188.955 108.32 189.227 108.555 189.558 108.736C189.888 108.907 190.288 108.992 190.758 108.992C191.227 108.992 191.616 108.901 191.926 108.72C192.246 108.539 192.502 108.299 192.694 108C192.886 107.701 193.024 107.36 193.11 106.976C193.195 106.592 193.238 106.197 193.238 105.792ZM196.354 98.576H197.714V110H196.354V98.576ZM205.565 105.072C205.544 104.752 205.469 104.448 205.341 104.16C205.224 103.872 205.058 103.627 204.845 103.424C204.642 103.211 204.397 103.045 204.109 102.928C203.832 102.8 203.522 102.736 203.181 102.736C202.829 102.736 202.509 102.8 202.221 102.928C201.944 103.045 201.704 103.211 201.501 103.424C201.298 103.637 201.138 103.888 201.021 104.176C200.904 104.453 200.834 104.752 200.813 105.072H205.565ZM206.877 107.376C206.696 108.304 206.296 109.003 205.677 109.472C205.058 109.941 204.28 110.176 203.341 110.176C202.68 110.176 202.104 110.069 201.613 109.856C201.133 109.643 200.728 109.344 200.397 108.96C200.066 108.576 199.816 108.117 199.645 107.584C199.485 107.051 199.394 106.469 199.373 105.84C199.373 105.211 199.469 104.635 199.661 104.112C199.853 103.589 200.12 103.136 200.461 102.752C200.813 102.368 201.224 102.069 201.693 101.856C202.173 101.643 202.696 101.536 203.261 101.536C203.997 101.536 204.605 101.691 205.085 102C205.576 102.299 205.965 102.683 206.253 103.152C206.552 103.621 206.754 104.133 206.861 104.688C206.978 105.243 207.026 105.771 207.005 106.272H200.813C200.802 106.635 200.845 106.981 200.941 107.312C201.037 107.632 201.192 107.92 201.405 108.176C201.618 108.421 201.89 108.619 202.221 108.768C202.552 108.917 202.941 108.992 203.389 108.992C203.965 108.992 204.434 108.859 204.797 108.592C205.17 108.325 205.416 107.92 205.533 107.376H206.877ZM209.407 105.936C209.407 106.32 209.455 106.699 209.551 107.072C209.657 107.435 209.812 107.76 210.015 108.048C210.228 108.336 210.495 108.565 210.815 108.736C211.145 108.907 211.529 108.992 211.967 108.992C212.425 108.992 212.815 108.901 213.135 108.72C213.455 108.539 213.716 108.304 213.919 108.016C214.121 107.717 214.265 107.381 214.351 107.008C214.447 106.635 214.495 106.256 214.495 105.872C214.495 105.467 214.447 105.077 214.351 104.704C214.255 104.32 214.1 103.984 213.887 103.696C213.684 103.408 213.417 103.179 213.087 103.008C212.756 102.827 212.356 102.736 211.887 102.736C211.428 102.736 211.039 102.827 210.719 103.008C210.399 103.189 210.143 103.429 209.951 103.728C209.759 104.027 209.62 104.368 209.535 104.752C209.449 105.136 209.407 105.531 209.407 105.936ZM215.807 110H214.447V108.88H214.415C214.191 109.339 213.839 109.669 213.359 109.872C212.879 110.075 212.351 110.176 211.775 110.176C211.135 110.176 210.575 110.059 210.095 109.824C209.625 109.589 209.231 109.275 208.911 108.88C208.601 108.485 208.367 108.027 208.207 107.504C208.047 106.981 207.967 106.427 207.967 105.84C207.967 105.253 208.041 104.699 208.191 104.176C208.351 103.653 208.585 103.2 208.895 102.816C209.215 102.421 209.609 102.112 210.079 101.888C210.559 101.653 211.113 101.536 211.743 101.536C211.956 101.536 212.185 101.557 212.431 101.6C212.676 101.643 212.921 101.717 213.167 101.824C213.412 101.92 213.641 102.053 213.855 102.224C214.079 102.384 214.265 102.587 214.415 102.832H214.447V98.576H215.807V110Z" fill="black" fill-opacity="0.68"/>
<mask id="path-2-inside-1_61394_167926" fill="white">
<path d="M334.5 80.5H441.5V128.5H334.5V80.5Z"/>
</mask>
<path d="M334.5 80.5V79.5H333.5V80.5H334.5ZM441.5 80.5H442.5V79.5H441.5V80.5ZM441.5 128.5V129.5H442.5V128.5H441.5ZM334.5 128.5H333.5V129.5H334.5V128.5ZM334.5 80.5V81.5H441.5V80.5V79.5H334.5V80.5ZM441.5 80.5H440.5V128.5H441.5H442.5V80.5H441.5ZM441.5 128.5V127.5H334.5V128.5V129.5H441.5V128.5ZM334.5 128.5H335.5V80.5H334.5H333.5V128.5H334.5Z" fill="black" mask="url(#path-2-inside-1_61394_167926)"/>
<path d="M367.821 99.076H370.333V108.388H375.901V110.5H367.821V99.076ZM377.17 104.772C377.202 104.239 377.335 103.796 377.57 103.444C377.804 103.092 378.103 102.809 378.466 102.596C378.828 102.383 379.234 102.233 379.682 102.148C380.14 102.052 380.599 102.004 381.058 102.004C381.474 102.004 381.895 102.036 382.322 102.1C382.748 102.153 383.138 102.265 383.49 102.436C383.842 102.607 384.13 102.847 384.354 103.156C384.578 103.455 384.69 103.855 384.69 104.356V108.66C384.69 109.033 384.711 109.391 384.754 109.732C384.796 110.073 384.871 110.329 384.978 110.5H382.674C382.631 110.372 382.594 110.244 382.562 110.116C382.54 109.977 382.524 109.839 382.514 109.7C382.151 110.073 381.724 110.335 381.234 110.484C380.743 110.633 380.242 110.708 379.73 110.708C379.335 110.708 378.967 110.66 378.626 110.564C378.284 110.468 377.986 110.319 377.73 110.116C377.474 109.913 377.271 109.657 377.122 109.348C376.983 109.039 376.914 108.671 376.914 108.244C376.914 107.775 376.994 107.391 377.154 107.092C377.324 106.783 377.538 106.537 377.794 106.356C378.06 106.175 378.359 106.041 378.69 105.956C379.031 105.86 379.372 105.785 379.714 105.732C380.055 105.679 380.391 105.636 380.722 105.604C381.052 105.572 381.346 105.524 381.602 105.46C381.858 105.396 382.06 105.305 382.21 105.188C382.359 105.06 382.428 104.879 382.418 104.644C382.418 104.399 382.375 104.207 382.29 104.068C382.215 103.919 382.108 103.807 381.97 103.732C381.842 103.647 381.687 103.593 381.506 103.572C381.335 103.54 381.148 103.524 380.946 103.524C380.498 103.524 380.146 103.62 379.89 103.812C379.634 104.004 379.484 104.324 379.442 104.772H377.17ZM382.418 106.452C382.322 106.537 382.199 106.607 382.05 106.66C381.911 106.703 381.756 106.74 381.586 106.772C381.426 106.804 381.255 106.831 381.074 106.852C380.892 106.873 380.711 106.9 380.53 106.932C380.359 106.964 380.188 107.007 380.018 107.06C379.858 107.113 379.714 107.188 379.586 107.284C379.468 107.369 379.372 107.481 379.298 107.62C379.223 107.759 379.186 107.935 379.186 108.148C379.186 108.351 379.223 108.521 379.298 108.66C379.372 108.799 379.474 108.911 379.602 108.996C379.73 109.071 379.879 109.124 380.05 109.156C380.22 109.188 380.396 109.204 380.578 109.204C381.026 109.204 381.372 109.129 381.618 108.98C381.863 108.831 382.044 108.655 382.162 108.452C382.279 108.239 382.348 108.025 382.37 107.812C382.402 107.599 382.418 107.428 382.418 107.3V106.452ZM392.717 106.372C392.717 106.02 392.68 105.684 392.605 105.364C392.53 105.044 392.413 104.761 392.253 104.516C392.093 104.271 391.89 104.079 391.645 103.94C391.41 103.791 391.122 103.716 390.781 103.716C390.45 103.716 390.162 103.791 389.917 103.94C389.672 104.079 389.469 104.271 389.309 104.516C389.149 104.761 389.032 105.044 388.957 105.364C388.882 105.684 388.845 106.02 388.845 106.372C388.845 106.713 388.882 107.044 388.957 107.364C389.032 107.684 389.149 107.967 389.309 108.212C389.469 108.457 389.672 108.655 389.917 108.804C390.162 108.943 390.45 109.012 390.781 109.012C391.122 109.012 391.41 108.943 391.645 108.804C391.89 108.655 392.093 108.457 392.253 108.212C392.413 107.967 392.53 107.684 392.605 107.364C392.68 107.044 392.717 106.713 392.717 106.372ZM386.653 99.076H388.925V103.236H388.957C389.234 102.809 389.608 102.5 390.077 102.308C390.557 102.105 391.053 102.004 391.565 102.004C391.981 102.004 392.392 102.089 392.797 102.26C393.202 102.431 393.565 102.692 393.885 103.044C394.216 103.396 394.482 103.849 394.685 104.404C394.888 104.948 394.989 105.599 394.989 106.356C394.989 107.113 394.888 107.769 394.685 108.324C394.482 108.868 394.216 109.316 393.885 109.668C393.565 110.02 393.202 110.281 392.797 110.452C392.392 110.623 391.981 110.708 391.565 110.708C390.957 110.708 390.413 110.612 389.933 110.42C389.453 110.228 389.09 109.903 388.845 109.444H388.813V110.5H386.653V99.076ZM402.202 105.476C402.096 104.9 401.904 104.463 401.626 104.164C401.36 103.865 400.949 103.716 400.394 103.716C400.032 103.716 399.728 103.78 399.482 103.908C399.248 104.025 399.056 104.175 398.906 104.356C398.768 104.537 398.666 104.729 398.602 104.932C398.549 105.135 398.517 105.316 398.506 105.476H402.202ZM398.506 106.916C398.538 107.652 398.725 108.185 399.066 108.516C399.408 108.847 399.898 109.012 400.538 109.012C400.997 109.012 401.392 108.9 401.722 108.676C402.053 108.441 402.256 108.196 402.33 107.94H404.33C404.01 108.932 403.52 109.641 402.858 110.068C402.197 110.495 401.397 110.708 400.458 110.708C399.808 110.708 399.221 110.607 398.698 110.404C398.176 110.191 397.733 109.892 397.37 109.508C397.008 109.124 396.725 108.665 396.522 108.132C396.33 107.599 396.234 107.012 396.234 106.372C396.234 105.753 396.336 105.177 396.538 104.644C396.741 104.111 397.029 103.652 397.402 103.268C397.776 102.873 398.218 102.564 398.73 102.34C399.253 102.116 399.829 102.004 400.458 102.004C401.162 102.004 401.776 102.143 402.298 102.42C402.821 102.687 403.248 103.049 403.578 103.508C403.92 103.967 404.165 104.489 404.314 105.076C404.464 105.663 404.517 106.276 404.474 106.916H398.506ZM406.086 99.076H408.358V110.5H406.086V99.076Z" fill="black"/>
<path d="M159.748 196.576H161.268V201.488H167.284V196.576H168.804V208H167.284V202.768H161.268V208H159.748V196.576ZM172.063 203.872C172.063 204.373 172.127 204.821 172.255 205.216C172.394 205.6 172.58 205.925 172.815 206.192C173.05 206.448 173.322 206.645 173.631 206.784C173.951 206.923 174.287 206.992 174.639 206.992C174.991 206.992 175.322 206.923 175.631 206.784C175.951 206.645 176.228 206.448 176.463 206.192C176.698 205.925 176.879 205.6 177.007 205.216C177.146 204.821 177.215 204.373 177.215 203.872C177.215 203.371 177.146 202.928 177.007 202.544C176.879 202.149 176.698 201.819 176.463 201.552C176.228 201.285 175.951 201.083 175.631 200.944C175.322 200.805 174.991 200.736 174.639 200.736C174.287 200.736 173.951 200.805 173.631 200.944C173.322 201.083 173.05 201.285 172.815 201.552C172.58 201.819 172.394 202.149 172.255 202.544C172.127 202.928 172.063 203.371 172.063 203.872ZM170.623 203.872C170.623 203.264 170.708 202.699 170.879 202.176C171.05 201.643 171.306 201.184 171.647 200.8C171.988 200.405 172.41 200.096 172.911 199.872C173.412 199.648 173.988 199.536 174.639 199.536C175.3 199.536 175.876 199.648 176.367 199.872C176.868 200.096 177.29 200.405 177.631 200.8C177.972 201.184 178.228 201.643 178.399 202.176C178.57 202.699 178.655 203.264 178.655 203.872C178.655 204.48 178.57 205.045 178.399 205.568C178.228 206.091 177.972 206.549 177.631 206.944C177.29 207.328 176.868 207.632 176.367 207.856C175.876 208.069 175.3 208.176 174.639 208.176C173.988 208.176 173.412 208.069 172.911 207.856C172.41 207.632 171.988 207.328 171.647 206.944C171.306 206.549 171.05 206.091 170.879 205.568C170.708 205.045 170.623 204.48 170.623 203.872ZM183.986 208H182.53L179.458 199.728H180.978L183.298 206.624H183.33L185.586 199.728H187.01L183.986 208ZM194.002 203.072C193.981 202.752 193.906 202.448 193.778 202.16C193.661 201.872 193.496 201.627 193.282 201.424C193.08 201.211 192.834 201.045 192.546 200.928C192.269 200.8 191.96 200.736 191.618 200.736C191.266 200.736 190.946 200.8 190.658 200.928C190.381 201.045 190.141 201.211 189.938 201.424C189.736 201.637 189.576 201.888 189.458 202.176C189.341 202.453 189.272 202.752 189.25 203.072H194.002ZM195.314 205.376C195.133 206.304 194.733 207.003 194.114 207.472C193.496 207.941 192.717 208.176 191.778 208.176C191.117 208.176 190.541 208.069 190.05 207.856C189.57 207.643 189.165 207.344 188.834 206.96C188.504 206.576 188.253 206.117 188.082 205.584C187.922 205.051 187.832 204.469 187.81 203.84C187.81 203.211 187.906 202.635 188.098 202.112C188.29 201.589 188.557 201.136 188.898 200.752C189.25 200.368 189.661 200.069 190.13 199.856C190.61 199.643 191.133 199.536 191.698 199.536C192.434 199.536 193.042 199.691 193.522 200C194.013 200.299 194.402 200.683 194.69 201.152C194.989 201.621 195.192 202.133 195.298 202.688C195.416 203.243 195.464 203.771 195.442 204.272H189.25C189.24 204.635 189.282 204.981 189.378 205.312C189.474 205.632 189.629 205.92 189.842 206.176C190.056 206.421 190.328 206.619 190.658 206.768C190.989 206.917 191.378 206.992 191.826 206.992C192.402 206.992 192.872 206.859 193.234 206.592C193.608 206.325 193.853 205.92 193.97 205.376H195.314ZM196.804 199.728H198.084V201.472H198.116C198.447 200.8 198.852 200.304 199.332 199.984C199.812 199.664 200.42 199.515 201.156 199.536V200.976C200.612 200.976 200.148 201.051 199.764 201.2C199.38 201.349 199.071 201.568 198.836 201.856C198.601 202.144 198.431 202.496 198.324 202.912C198.217 203.317 198.164 203.787 198.164 204.32V208H196.804V199.728Z" fill="black" fill-opacity="0.68"/>
<mask id="path-6-inside-2_61394_167926" fill="white">
<path d="M334.5 178.5H441.5V226.5H334.5V178.5Z"/>
</mask>
<path d="M334.5 178.5V176.5H332.5V178.5H334.5ZM441.5 178.5H443.5V176.5H441.5V178.5ZM441.5 226.5V228.5H443.5V226.5H441.5ZM334.5 226.5H332.5V228.5H334.5V226.5ZM334.5 178.5V180.5H441.5V178.5V176.5H334.5V178.5ZM441.5 178.5H439.5V226.5H441.5H443.5V178.5H441.5ZM441.5 226.5V224.5H334.5V226.5V228.5H441.5V226.5ZM334.5 226.5H336.5V178.5H334.5H332.5V226.5H334.5Z" fill="black" fill-opacity="0.68" mask="url(#path-6-inside-2_61394_167926)"/>
<path d="M367.821 197.076H370.333V206.388H375.901V208.5H367.821V197.076ZM377.17 202.772C377.202 202.239 377.335 201.796 377.57 201.444C377.804 201.092 378.103 200.809 378.466 200.596C378.828 200.383 379.234 200.233 379.682 200.148C380.14 200.052 380.599 200.004 381.058 200.004C381.474 200.004 381.895 200.036 382.322 200.1C382.748 200.153 383.138 200.265 383.49 200.436C383.842 200.607 384.13 200.847 384.354 201.156C384.578 201.455 384.69 201.855 384.69 202.356V206.66C384.69 207.033 384.711 207.391 384.754 207.732C384.796 208.073 384.871 208.329 384.978 208.5H382.674C382.631 208.372 382.594 208.244 382.562 208.116C382.54 207.977 382.524 207.839 382.514 207.7C382.151 208.073 381.724 208.335 381.234 208.484C380.743 208.633 380.242 208.708 379.73 208.708C379.335 208.708 378.967 208.66 378.626 208.564C378.284 208.468 377.986 208.319 377.73 208.116C377.474 207.913 377.271 207.657 377.122 207.348C376.983 207.039 376.914 206.671 376.914 206.244C376.914 205.775 376.994 205.391 377.154 205.092C377.324 204.783 377.538 204.537 377.794 204.356C378.06 204.175 378.359 204.041 378.69 203.956C379.031 203.86 379.372 203.785 379.714 203.732C380.055 203.679 380.391 203.636 380.722 203.604C381.052 203.572 381.346 203.524 381.602 203.46C381.858 203.396 382.06 203.305 382.21 203.188C382.359 203.06 382.428 202.879 382.418 202.644C382.418 202.399 382.375 202.207 382.29 202.068C382.215 201.919 382.108 201.807 381.97 201.732C381.842 201.647 381.687 201.593 381.506 201.572C381.335 201.54 381.148 201.524 380.946 201.524C380.498 201.524 380.146 201.62 379.89 201.812C379.634 202.004 379.484 202.324 379.442 202.772H377.17ZM382.418 204.452C382.322 204.537 382.199 204.607 382.05 204.66C381.911 204.703 381.756 204.74 381.586 204.772C381.426 204.804 381.255 204.831 381.074 204.852C380.892 204.873 380.711 204.9 380.53 204.932C380.359 204.964 380.188 205.007 380.018 205.06C379.858 205.113 379.714 205.188 379.586 205.284C379.468 205.369 379.372 205.481 379.298 205.62C379.223 205.759 379.186 205.935 379.186 206.148C379.186 206.351 379.223 206.521 379.298 206.66C379.372 206.799 379.474 206.911 379.602 206.996C379.73 207.071 379.879 207.124 380.05 207.156C380.22 207.188 380.396 207.204 380.578 207.204C381.026 207.204 381.372 207.129 381.618 206.98C381.863 206.831 382.044 206.655 382.162 206.452C382.279 206.239 382.348 206.025 382.37 205.812C382.402 205.599 382.418 205.428 382.418 205.3V204.452ZM392.717 204.372C392.717 204.02 392.68 203.684 392.605 203.364C392.53 203.044 392.413 202.761 392.253 202.516C392.093 202.271 391.89 202.079 391.645 201.94C391.41 201.791 391.122 201.716 390.781 201.716C390.45 201.716 390.162 201.791 389.917 201.94C389.672 202.079 389.469 202.271 389.309 202.516C389.149 202.761 389.032 203.044 388.957 203.364C388.882 203.684 388.845 204.02 388.845 204.372C388.845 204.713 388.882 205.044 388.957 205.364C389.032 205.684 389.149 205.967 389.309 206.212C389.469 206.457 389.672 206.655 389.917 206.804C390.162 206.943 390.45 207.012 390.781 207.012C391.122 207.012 391.41 206.943 391.645 206.804C391.89 206.655 392.093 206.457 392.253 206.212C392.413 205.967 392.53 205.684 392.605 205.364C392.68 205.044 392.717 204.713 392.717 204.372ZM386.653 197.076H388.925V201.236H388.957C389.234 200.809 389.608 200.5 390.077 200.308C390.557 200.105 391.053 200.004 391.565 200.004C391.981 200.004 392.392 200.089 392.797 200.26C393.202 200.431 393.565 200.692 393.885 201.044C394.216 201.396 394.482 201.849 394.685 202.404C394.888 202.948 394.989 203.599 394.989 204.356C394.989 205.113 394.888 205.769 394.685 206.324C394.482 206.868 394.216 207.316 393.885 207.668C393.565 208.02 393.202 208.281 392.797 208.452C392.392 208.623 391.981 208.708 391.565 208.708C390.957 208.708 390.413 208.612 389.933 208.42C389.453 208.228 389.09 207.903 388.845 207.444H388.813V208.5H386.653V197.076ZM402.202 203.476C402.096 202.9 401.904 202.463 401.626 202.164C401.36 201.865 400.949 201.716 400.394 201.716C400.032 201.716 399.728 201.78 399.482 201.908C399.248 202.025 399.056 202.175 398.906 202.356C398.768 202.537 398.666 202.729 398.602 202.932C398.549 203.135 398.517 203.316 398.506 203.476H402.202ZM398.506 204.916C398.538 205.652 398.725 206.185 399.066 206.516C399.408 206.847 399.898 207.012 400.538 207.012C400.997 207.012 401.392 206.9 401.722 206.676C402.053 206.441 402.256 206.196 402.33 205.94H404.33C404.01 206.932 403.52 207.641 402.858 208.068C402.197 208.495 401.397 208.708 400.458 208.708C399.808 208.708 399.221 208.607 398.698 208.404C398.176 208.191 397.733 207.892 397.37 207.508C397.008 207.124 396.725 206.665 396.522 206.132C396.33 205.599 396.234 205.012 396.234 204.372C396.234 203.753 396.336 203.177 396.538 202.644C396.741 202.111 397.029 201.652 397.402 201.268C397.776 200.873 398.218 200.564 398.73 200.34C399.253 200.116 399.829 200.004 400.458 200.004C401.162 200.004 401.776 200.143 402.298 200.42C402.821 200.687 403.248 201.049 403.578 201.508C403.92 201.967 404.165 202.489 404.314 203.076C404.464 203.663 404.517 204.276 404.474 204.916H398.506ZM406.086 197.076H408.358V208.5H406.086V197.076Z" fill="black" fill-opacity="0.68"/>
<path d="M159.748 294.576H167.252V295.856H161.268V299.488H166.516V300.768H161.268V306H159.748V294.576ZM169.704 301.872C169.704 302.373 169.768 302.821 169.896 303.216C170.034 303.6 170.221 303.925 170.456 304.192C170.69 304.448 170.962 304.645 171.272 304.784C171.592 304.923 171.928 304.992 172.28 304.992C172.632 304.992 172.962 304.923 173.272 304.784C173.592 304.645 173.869 304.448 174.104 304.192C174.338 303.925 174.52 303.6 174.648 303.216C174.786 302.821 174.856 302.373 174.856 301.872C174.856 301.371 174.786 300.928 174.648 300.544C174.52 300.149 174.338 299.819 174.104 299.552C173.869 299.285 173.592 299.083 173.272 298.944C172.962 298.805 172.632 298.736 172.28 298.736C171.928 298.736 171.592 298.805 171.272 298.944C170.962 299.083 170.69 299.285 170.456 299.552C170.221 299.819 170.034 300.149 169.896 300.544C169.768 300.928 169.704 301.371 169.704 301.872ZM168.264 301.872C168.264 301.264 168.349 300.699 168.52 300.176C168.69 299.643 168.946 299.184 169.288 298.8C169.629 298.405 170.05 298.096 170.552 297.872C171.053 297.648 171.629 297.536 172.28 297.536C172.941 297.536 173.517 297.648 174.008 297.872C174.509 298.096 174.93 298.405 175.272 298.8C175.613 299.184 175.869 299.643 176.04 300.176C176.21 300.699 176.296 301.264 176.296 301.872C176.296 302.48 176.21 303.045 176.04 303.568C175.869 304.091 175.613 304.549 175.272 304.944C174.93 305.328 174.509 305.632 174.008 305.856C173.517 306.069 172.941 306.176 172.28 306.176C171.629 306.176 171.053 306.069 170.552 305.856C170.05 305.632 169.629 305.328 169.288 304.944C168.946 304.549 168.69 304.091 168.52 303.568C168.349 303.045 168.264 302.48 168.264 301.872ZM183.515 300.384C183.408 299.861 183.184 299.456 182.843 299.168C182.502 298.88 182.043 298.736 181.467 298.736C180.976 298.736 180.566 298.827 180.235 299.008C179.904 299.189 179.638 299.429 179.435 299.728C179.243 300.027 179.104 300.373 179.019 300.768C178.934 301.152 178.891 301.552 178.891 301.968C178.891 302.352 178.934 302.725 179.019 303.088C179.115 303.451 179.259 303.776 179.451 304.064C179.643 304.341 179.894 304.565 180.203 304.736C180.512 304.907 180.88 304.992 181.307 304.992C181.979 304.992 182.502 304.816 182.875 304.464C183.259 304.112 183.494 303.616 183.579 302.976H184.971C184.822 304 184.438 304.789 183.819 305.344C183.211 305.899 182.379 306.176 181.323 306.176C180.694 306.176 180.134 306.075 179.643 305.872C179.163 305.669 178.758 305.381 178.427 305.008C178.107 304.635 177.862 304.192 177.691 303.68C177.531 303.157 177.451 302.587 177.451 301.968C177.451 301.349 177.531 300.773 177.691 300.24C177.851 299.696 178.091 299.227 178.411 298.832C178.742 298.427 179.152 298.112 179.643 297.888C180.134 297.653 180.704 297.536 181.355 297.536C181.824 297.536 182.262 297.595 182.667 297.712C183.083 297.819 183.446 297.989 183.755 298.224C184.075 298.459 184.336 298.757 184.539 299.12C184.742 299.472 184.87 299.893 184.923 300.384H183.515ZM193.341 306H192.061V304.688H192.029C191.741 305.2 191.373 305.579 190.925 305.824C190.477 306.059 189.949 306.176 189.341 306.176C188.797 306.176 188.343 306.107 187.981 305.968C187.618 305.819 187.325 305.611 187.101 305.344C186.877 305.077 186.717 304.763 186.621 304.4C186.535 304.027 186.493 303.616 186.493 303.168V297.728H187.853V303.328C187.853 303.84 188.002 304.245 188.301 304.544C188.599 304.843 189.01 304.992 189.533 304.992C189.949 304.992 190.306 304.928 190.605 304.8C190.914 304.672 191.17 304.491 191.373 304.256C191.575 304.021 191.725 303.749 191.821 303.44C191.927 303.12 191.981 302.773 191.981 302.4V297.728H193.341V306ZM196.215 303.392C196.226 303.691 196.295 303.947 196.423 304.16C196.551 304.363 196.717 304.528 196.919 304.656C197.133 304.773 197.367 304.859 197.623 304.912C197.89 304.965 198.162 304.992 198.439 304.992C198.653 304.992 198.877 304.976 199.111 304.944C199.346 304.912 199.559 304.853 199.751 304.768C199.954 304.683 200.119 304.56 200.247 304.4C200.375 304.229 200.439 304.016 200.439 303.76C200.439 303.408 200.306 303.141 200.039 302.96C199.773 302.779 199.437 302.635 199.031 302.528C198.637 302.411 198.205 302.309 197.735 302.224C197.266 302.128 196.829 302 196.423 301.84C196.029 301.669 195.698 301.435 195.431 301.136C195.165 300.837 195.031 300.421 195.031 299.888C195.031 299.472 195.122 299.115 195.303 298.816C195.495 298.517 195.735 298.277 196.023 298.096C196.322 297.904 196.653 297.765 197.015 297.68C197.389 297.584 197.757 297.536 198.119 297.536C198.589 297.536 199.021 297.579 199.415 297.664C199.81 297.739 200.157 297.877 200.455 298.08C200.765 298.272 201.01 298.539 201.191 298.88C201.373 299.211 201.479 299.627 201.511 300.128H200.151C200.13 299.861 200.061 299.643 199.943 299.472C199.826 299.291 199.677 299.147 199.495 299.04C199.314 298.933 199.111 298.859 198.887 298.816C198.674 298.763 198.455 298.736 198.231 298.736C198.029 298.736 197.821 298.752 197.607 298.784C197.405 298.816 197.218 298.875 197.047 298.96C196.877 299.035 196.738 299.141 196.631 299.28C196.525 299.408 196.471 299.579 196.471 299.792C196.471 300.027 196.551 300.224 196.711 300.384C196.882 300.533 197.095 300.661 197.351 300.768C197.607 300.864 197.895 300.949 198.215 301.024C198.535 301.088 198.855 301.157 199.175 301.232C199.517 301.307 199.847 301.397 200.167 301.504C200.498 301.611 200.786 301.755 201.031 301.936C201.287 302.107 201.49 302.325 201.639 302.592C201.799 302.859 201.879 303.189 201.879 303.584C201.879 304.085 201.773 304.501 201.559 304.832C201.357 305.163 201.085 305.429 200.743 305.632C200.413 305.835 200.034 305.973 199.607 306.048C199.191 306.133 198.775 306.176 198.359 306.176C197.901 306.176 197.463 306.128 197.047 306.032C196.631 305.936 196.263 305.781 195.943 305.568C195.623 305.344 195.367 305.056 195.175 304.704C194.983 304.341 194.877 303.904 194.855 303.392H196.215Z" fill="black" fill-opacity="0.68"/>
<mask id="path-10-outside-3_61394_167926" maskUnits="userSpaceOnUse" x="329.5" y="271.5" width="117" height="58" fill="black">
<rect fill="white" x="329.5" y="271.5" width="117" height="58"/>
<path d="M334.5 276.5H441.5V324.5H334.5V276.5Z"/>
</mask>
<path d="M334.5 276.5V271.5H329.5V276.5H334.5ZM441.5 276.5H446.5V271.5H441.5V276.5ZM441.5 324.5V329.5H446.5V324.5H441.5ZM334.5 324.5H329.5V329.5H334.5V324.5ZM334.5 276.5V281.5H441.5V276.5V271.5H334.5V276.5ZM441.5 276.5H436.5V324.5H441.5H446.5V276.5H441.5ZM441.5 324.5V319.5H334.5V324.5V329.5H441.5V324.5ZM334.5 324.5H339.5V276.5H334.5H329.5V324.5H334.5Z" fill="black" mask="url(#path-10-outside-3_61394_167926)"/>
<mask id="path-12-outside-4_61394_167926" maskUnits="userSpaceOnUse" x="332.5" y="274.5" width="111" height="52" fill="black">
<rect fill="white" x="332.5" y="274.5" width="111" height="52"/>
<path d="M334.5 276.5H441.5V324.5H334.5V276.5Z"/>
</mask>
<path d="M334.5 276.5V274.5H332.5V276.5H334.5ZM441.5 276.5H443.5V274.5H441.5V276.5ZM441.5 324.5V326.5H443.5V324.5H441.5ZM334.5 324.5H332.5V326.5H334.5V324.5ZM334.5 276.5V278.5H441.5V276.5V274.5H334.5V276.5ZM441.5 276.5H439.5V324.5H441.5H443.5V276.5H441.5ZM441.5 324.5V322.5H334.5V324.5V326.5H441.5V324.5ZM334.5 324.5H336.5V276.5H334.5H332.5V324.5H334.5Z" fill="white" mask="url(#path-12-outside-4_61394_167926)"/>
<mask id="path-14-inside-5_61394_167926" fill="white">
<path d="M334.5 276.5H441.5V324.5H334.5V276.5Z"/>
</mask>
<path d="M334.5 276.5V274.5H332.5V276.5H334.5ZM441.5 276.5H443.5V274.5H441.5V276.5ZM441.5 324.5V326.5H443.5V324.5H441.5ZM334.5 324.5H332.5V326.5H334.5V324.5ZM334.5 276.5V278.5H441.5V276.5V274.5H334.5V276.5ZM441.5 276.5H439.5V324.5H441.5H443.5V276.5H441.5ZM441.5 324.5V322.5H334.5V324.5V326.5H441.5V324.5ZM334.5 324.5H336.5V276.5H334.5H332.5V324.5H334.5Z" fill="black" fill-opacity="0.68" mask="url(#path-14-inside-5_61394_167926)"/>
<path d="M367.821 295.076H370.333V304.388H375.901V306.5H367.821V295.076ZM377.17 300.772C377.202 300.239 377.335 299.796 377.57 299.444C377.804 299.092 378.103 298.809 378.466 298.596C378.828 298.383 379.234 298.233 379.682 298.148C380.14 298.052 380.599 298.004 381.058 298.004C381.474 298.004 381.895 298.036 382.322 298.1C382.748 298.153 383.138 298.265 383.49 298.436C383.842 298.607 384.13 298.847 384.354 299.156C384.578 299.455 384.69 299.855 384.69 300.356V304.66C384.69 305.033 384.711 305.391 384.754 305.732C384.796 306.073 384.871 306.329 384.978 306.5H382.674C382.631 306.372 382.594 306.244 382.562 306.116C382.54 305.977 382.524 305.839 382.514 305.7C382.151 306.073 381.724 306.335 381.234 306.484C380.743 306.633 380.242 306.708 379.73 306.708C379.335 306.708 378.967 306.66 378.626 306.564C378.284 306.468 377.986 306.319 377.73 306.116C377.474 305.913 377.271 305.657 377.122 305.348C376.983 305.039 376.914 304.671 376.914 304.244C376.914 303.775 376.994 303.391 377.154 303.092C377.324 302.783 377.538 302.537 377.794 302.356C378.06 302.175 378.359 302.041 378.69 301.956C379.031 301.86 379.372 301.785 379.714 301.732C380.055 301.679 380.391 301.636 380.722 301.604C381.052 301.572 381.346 301.524 381.602 301.46C381.858 301.396 382.06 301.305 382.21 301.188C382.359 301.06 382.428 300.879 382.418 300.644C382.418 300.399 382.375 300.207 382.29 300.068C382.215 299.919 382.108 299.807 381.97 299.732C381.842 299.647 381.687 299.593 381.506 299.572C381.335 299.54 381.148 299.524 380.946 299.524C380.498 299.524 380.146 299.62 379.89 299.812C379.634 300.004 379.484 300.324 379.442 300.772H377.17ZM382.418 302.452C382.322 302.537 382.199 302.607 382.05 302.66C381.911 302.703 381.756 302.74 381.586 302.772C381.426 302.804 381.255 302.831 381.074 302.852C380.892 302.873 380.711 302.9 380.53 302.932C380.359 302.964 380.188 303.007 380.018 303.06C379.858 303.113 379.714 303.188 379.586 303.284C379.468 303.369 379.372 303.481 379.298 303.62C379.223 303.759 379.186 303.935 379.186 304.148C379.186 304.351 379.223 304.521 379.298 304.66C379.372 304.799 379.474 304.911 379.602 304.996C379.73 305.071 379.879 305.124 380.05 305.156C380.22 305.188 380.396 305.204 380.578 305.204C381.026 305.204 381.372 305.129 381.618 304.98C381.863 304.831 382.044 304.655 382.162 304.452C382.279 304.239 382.348 304.025 382.37 303.812C382.402 303.599 382.418 303.428 382.418 303.3V302.452ZM392.717 302.372C392.717 302.02 392.68 301.684 392.605 301.364C392.53 301.044 392.413 300.761 392.253 300.516C392.093 300.271 391.89 300.079 391.645 299.94C391.41 299.791 391.122 299.716 390.781 299.716C390.45 299.716 390.162 299.791 389.917 299.94C389.672 300.079 389.469 300.271 389.309 300.516C389.149 300.761 389.032 301.044 388.957 301.364C388.882 301.684 388.845 302.02 388.845 302.372C388.845 302.713 388.882 303.044 388.957 303.364C389.032 303.684 389.149 303.967 389.309 304.212C389.469 304.457 389.672 304.655 389.917 304.804C390.162 304.943 390.45 305.012 390.781 305.012C391.122 305.012 391.41 304.943 391.645 304.804C391.89 304.655 392.093 304.457 392.253 304.212C392.413 303.967 392.53 303.684 392.605 303.364C392.68 303.044 392.717 302.713 392.717 302.372ZM386.653 295.076H388.925V299.236H388.957C389.234 298.809 389.608 298.5 390.077 298.308C390.557 298.105 391.053 298.004 391.565 298.004C391.981 298.004 392.392 298.089 392.797 298.26C393.202 298.431 393.565 298.692 393.885 299.044C394.216 299.396 394.482 299.849 394.685 300.404C394.888 300.948 394.989 301.599 394.989 302.356C394.989 303.113 394.888 303.769 394.685 304.324C394.482 304.868 394.216 305.316 393.885 305.668C393.565 306.02 393.202 306.281 392.797 306.452C392.392 306.623 391.981 306.708 391.565 306.708C390.957 306.708 390.413 306.612 389.933 306.42C389.453 306.228 389.09 305.903 388.845 305.444H388.813V306.5H386.653V295.076ZM402.202 301.476C402.096 300.9 401.904 300.463 401.626 300.164C401.36 299.865 400.949 299.716 400.394 299.716C400.032 299.716 399.728 299.78 399.482 299.908C399.248 300.025 399.056 300.175 398.906 300.356C398.768 300.537 398.666 300.729 398.602 300.932C398.549 301.135 398.517 301.316 398.506 301.476H402.202ZM398.506 302.916C398.538 303.652 398.725 304.185 399.066 304.516C399.408 304.847 399.898 305.012 400.538 305.012C400.997 305.012 401.392 304.9 401.722 304.676C402.053 304.441 402.256 304.196 402.33 303.94H404.33C404.01 304.932 403.52 305.641 402.858 306.068C402.197 306.495 401.397 306.708 400.458 306.708C399.808 306.708 399.221 306.607 398.698 306.404C398.176 306.191 397.733 305.892 397.37 305.508C397.008 305.124 396.725 304.665 396.522 304.132C396.33 303.599 396.234 303.012 396.234 302.372C396.234 301.753 396.336 301.177 396.538 300.644C396.741 300.111 397.029 299.652 397.402 299.268C397.776 298.873 398.218 298.564 398.73 298.34C399.253 298.116 399.829 298.004 400.458 298.004C401.162 298.004 401.776 298.143 402.298 298.42C402.821 298.687 403.248 299.049 403.578 299.508C403.92 299.967 404.165 300.489 404.314 301.076C404.464 301.663 404.517 302.276 404.474 302.916H398.506ZM406.086 295.076H408.358V306.5H406.086V295.076Z" fill="black" fill-opacity="0.68"/>
<path d="M161.268 398.048H164.244C165.108 398.059 165.737 397.883 166.132 397.52C166.537 397.157 166.74 396.635 166.74 395.952C166.74 395.269 166.537 394.752 166.132 394.4C165.737 394.037 165.108 393.856 164.244 393.856H161.268V398.048ZM159.748 392.576H164.756C165.908 392.576 166.777 392.875 167.364 393.472C167.961 394.059 168.26 394.885 168.26 395.952C168.26 397.019 167.961 397.851 167.364 398.448C166.777 399.045 165.908 399.339 164.756 399.328H161.268V404H159.748V392.576ZM169.851 395.728H171.131V397.472H171.163C171.494 396.8 171.899 396.304 172.379 395.984C172.859 395.664 173.467 395.515 174.203 395.536V396.976C173.659 396.976 173.195 397.051 172.811 397.2C172.427 397.349 172.118 397.568 171.883 397.856C171.648 398.144 171.478 398.496 171.371 398.912C171.264 399.317 171.211 399.787 171.211 400.32V404H169.851V395.728ZM180.69 399.072C180.669 398.752 180.594 398.448 180.466 398.16C180.349 397.872 180.183 397.627 179.97 397.424C179.767 397.211 179.522 397.045 179.234 396.928C178.957 396.8 178.647 396.736 178.306 396.736C177.954 396.736 177.634 396.8 177.346 396.928C177.069 397.045 176.829 397.211 176.626 397.424C176.423 397.637 176.263 397.888 176.146 398.176C176.029 398.453 175.959 398.752 175.938 399.072H180.69ZM182.002 401.376C181.821 402.304 181.421 403.003 180.802 403.472C180.183 403.941 179.405 404.176 178.466 404.176C177.805 404.176 177.229 404.069 176.738 403.856C176.258 403.643 175.853 403.344 175.522 402.96C175.191 402.576 174.941 402.117 174.77 401.584C174.61 401.051 174.519 400.469 174.498 399.84C174.498 399.211 174.594 398.635 174.786 398.112C174.978 397.589 175.245 397.136 175.586 396.752C175.938 396.368 176.349 396.069 176.818 395.856C177.298 395.643 177.821 395.536 178.386 395.536C179.122 395.536 179.73 395.691 180.21 396C180.701 396.299 181.09 396.683 181.378 397.152C181.677 397.621 181.879 398.133 181.986 398.688C182.103 399.243 182.151 399.771 182.13 400.272H175.938C175.927 400.635 175.97 400.981 176.066 401.312C176.162 401.632 176.317 401.92 176.53 402.176C176.743 402.421 177.015 402.619 177.346 402.768C177.677 402.917 178.066 402.992 178.514 402.992C179.09 402.992 179.559 402.859 179.922 402.592C180.295 402.325 180.541 401.92 180.658 401.376H182.002ZM184.372 401.392C184.382 401.691 184.452 401.947 184.58 402.16C184.708 402.363 184.873 402.528 185.076 402.656C185.289 402.773 185.524 402.859 185.78 402.912C186.046 402.965 186.318 402.992 186.596 402.992C186.809 402.992 187.033 402.976 187.268 402.944C187.502 402.912 187.716 402.853 187.908 402.768C188.11 402.683 188.276 402.56 188.404 402.4C188.532 402.229 188.596 402.016 188.596 401.76C188.596 401.408 188.462 401.141 188.196 400.96C187.929 400.779 187.593 400.635 187.188 400.528C186.793 400.411 186.361 400.309 185.892 400.224C185.422 400.128 184.985 400 184.58 399.84C184.185 399.669 183.854 399.435 183.588 399.136C183.321 398.837 183.188 398.421 183.188 397.888C183.188 397.472 183.278 397.115 183.46 396.816C183.652 396.517 183.892 396.277 184.18 396.096C184.478 395.904 184.809 395.765 185.172 395.68C185.545 395.584 185.913 395.536 186.276 395.536C186.745 395.536 187.177 395.579 187.572 395.664C187.966 395.739 188.313 395.877 188.612 396.08C188.921 396.272 189.166 396.539 189.348 396.88C189.529 397.211 189.636 397.627 189.668 398.128H188.308C188.286 397.861 188.217 397.643 188.1 397.472C187.982 397.291 187.833 397.147 187.652 397.04C187.47 396.933 187.268 396.859 187.044 396.816C186.83 396.763 186.612 396.736 186.388 396.736C186.185 396.736 185.977 396.752 185.764 396.784C185.561 396.816 185.374 396.875 185.204 396.96C185.033 397.035 184.894 397.141 184.788 397.28C184.681 397.408 184.628 397.579 184.628 397.792C184.628 398.027 184.708 398.224 184.868 398.384C185.038 398.533 185.252 398.661 185.508 398.768C185.764 398.864 186.052 398.949 186.372 399.024C186.692 399.088 187.012 399.157 187.332 399.232C187.673 399.307 188.004 399.397 188.324 399.504C188.654 399.611 188.942 399.755 189.188 399.936C189.444 400.107 189.646 400.325 189.796 400.592C189.956 400.859 190.036 401.189 190.036 401.584C190.036 402.085 189.929 402.501 189.716 402.832C189.513 403.163 189.241 403.429 188.9 403.632C188.569 403.835 188.19 403.973 187.764 404.048C187.348 404.133 186.932 404.176 186.516 404.176C186.057 404.176 185.62 404.128 185.204 404.032C184.788 403.936 184.42 403.781 184.1 403.568C183.78 403.344 183.524 403.056 183.332 402.704C183.14 402.341 183.033 401.904 183.012 401.392H184.372ZM192.372 401.392C192.382 401.691 192.452 401.947 192.58 402.16C192.708 402.363 192.873 402.528 193.076 402.656C193.289 402.773 193.524 402.859 193.78 402.912C194.046 402.965 194.318 402.992 194.596 402.992C194.809 402.992 195.033 402.976 195.268 402.944C195.502 402.912 195.716 402.853 195.908 402.768C196.11 402.683 196.276 402.56 196.404 402.4C196.532 402.229 196.596 402.016 196.596 401.76C196.596 401.408 196.462 401.141 196.196 400.96C195.929 400.779 195.593 400.635 195.188 400.528C194.793 400.411 194.361 400.309 193.892 400.224C193.422 400.128 192.985 400 192.58 399.84C192.185 399.669 191.854 399.435 191.588 399.136C191.321 398.837 191.188 398.421 191.188 397.888C191.188 397.472 191.278 397.115 191.46 396.816C191.652 396.517 191.892 396.277 192.18 396.096C192.478 395.904 192.809 395.765 193.172 395.68C193.545 395.584 193.913 395.536 194.276 395.536C194.745 395.536 195.177 395.579 195.572 395.664C195.966 395.739 196.313 395.877 196.612 396.08C196.921 396.272 197.166 396.539 197.348 396.88C197.529 397.211 197.636 397.627 197.668 398.128H196.308C196.286 397.861 196.217 397.643 196.1 397.472C195.982 397.291 195.833 397.147 195.652 397.04C195.47 396.933 195.268 396.859 195.044 396.816C194.83 396.763 194.612 396.736 194.388 396.736C194.185 396.736 193.977 396.752 193.764 396.784C193.561 396.816 193.374 396.875 193.204 396.96C193.033 397.035 192.894 397.141 192.788 397.28C192.681 397.408 192.628 397.579 192.628 397.792C192.628 398.027 192.708 398.224 192.868 398.384C193.038 398.533 193.252 398.661 193.508 398.768C193.764 398.864 194.052 398.949 194.372 399.024C194.692 399.088 195.012 399.157 195.332 399.232C195.673 399.307 196.004 399.397 196.324 399.504C196.654 399.611 196.942 399.755 197.188 399.936C197.444 400.107 197.646 400.325 197.796 400.592C197.956 400.859 198.036 401.189 198.036 401.584C198.036 402.085 197.929 402.501 197.716 402.832C197.513 403.163 197.241 403.429 196.9 403.632C196.569 403.835 196.19 403.973 195.764 404.048C195.348 404.133 194.932 404.176 194.516 404.176C194.057 404.176 193.62 404.128 193.204 404.032C192.788 403.936 192.42 403.781 192.1 403.568C191.78 403.344 191.524 403.056 191.332 402.704C191.14 402.341 191.033 401.904 191.012 401.392H192.372ZM205.284 399.072C205.262 398.752 205.188 398.448 205.06 398.16C204.942 397.872 204.777 397.627 204.564 397.424C204.361 397.211 204.116 397.045 203.828 396.928C203.55 396.8 203.241 396.736 202.9 396.736C202.548 396.736 202.228 396.8 201.94 396.928C201.662 397.045 201.422 397.211 201.22 397.424C201.017 397.637 200.857 397.888 200.74 398.176C200.622 398.453 200.553 398.752 200.532 399.072H205.284ZM206.596 401.376C206.414 402.304 206.014 403.003 205.396 403.472C204.777 403.941 203.998 404.176 203.06 404.176C202.398 404.176 201.822 404.069 201.332 403.856C200.852 403.643 200.446 403.344 200.116 402.96C199.785 402.576 199.534 402.117 199.364 401.584C199.204 401.051 199.113 400.469 199.092 399.84C199.092 399.211 199.188 398.635 199.38 398.112C199.572 397.589 199.838 397.136 200.18 396.752C200.532 396.368 200.942 396.069 201.412 395.856C201.892 395.643 202.414 395.536 202.98 395.536C203.716 395.536 204.324 395.691 204.804 396C205.294 396.299 205.684 396.683 205.972 397.152C206.27 397.621 206.473 398.133 206.58 398.688C206.697 399.243 206.745 399.771 206.724 400.272H200.532C200.521 400.635 200.564 400.981 200.66 401.312C200.756 401.632 200.91 401.92 201.124 402.176C201.337 402.421 201.609 402.619 201.94 402.768C202.27 402.917 202.66 402.992 203.108 402.992C203.684 402.992 204.153 402.859 204.516 402.592C204.889 402.325 205.134 401.92 205.252 401.376H206.596ZM209.125 399.936C209.125 400.32 209.173 400.699 209.269 401.072C209.376 401.435 209.531 401.76 209.733 402.048C209.947 402.336 210.213 402.565 210.533 402.736C210.864 402.907 211.248 402.992 211.685 402.992C212.144 402.992 212.533 402.901 212.853 402.72C213.173 402.539 213.435 402.304 213.637 402.016C213.84 401.717 213.984 401.381 214.069 401.008C214.165 400.635 214.213 400.256 214.213 399.872C214.213 399.467 214.165 399.077 214.069 398.704C213.973 398.32 213.819 397.984 213.605 397.696C213.403 397.408 213.136 397.179 212.805 397.008C212.475 396.827 212.075 396.736 211.605 396.736C211.147 396.736 210.757 396.827 210.437 397.008C210.117 397.189 209.861 397.429 209.669 397.728C209.477 398.027 209.339 398.368 209.253 398.752C209.168 399.136 209.125 399.531 209.125 399.936ZM215.525 404H214.165V402.88H214.133C213.909 403.339 213.557 403.669 213.077 403.872C212.597 404.075 212.069 404.176 211.493 404.176C210.853 404.176 210.293 404.059 209.813 403.824C209.344 403.589 208.949 403.275 208.629 402.88C208.32 402.485 208.085 402.027 207.925 401.504C207.765 400.981 207.685 400.427 207.685 399.84C207.685 399.253 207.76 398.699 207.909 398.176C208.069 397.653 208.304 397.2 208.613 396.816C208.933 396.421 209.328 396.112 209.797 395.888C210.277 395.653 210.832 395.536 211.461 395.536C211.675 395.536 211.904 395.557 212.149 395.6C212.395 395.643 212.64 395.717 212.885 395.824C213.131 395.92 213.36 396.053 213.573 396.224C213.797 396.384 213.984 396.587 214.133 396.832H214.165V392.576H215.525V404Z" fill="black" fill-opacity="0.68"/>
<mask id="path-18-inside-6_61394_167926" fill="white">
<path d="M334.5 374.5H441.5V422.5H334.5V374.5Z"/>
</mask>
<path d="M334.5 374.5V372.5H332.5V374.5H334.5ZM441.5 374.5H443.5V372.5H441.5V374.5ZM441.5 422.5V424.5H443.5V422.5H441.5ZM334.5 422.5H332.5V424.5H334.5V422.5ZM334.5 374.5V376.5H441.5V374.5V372.5H334.5V374.5ZM441.5 374.5H439.5V422.5H441.5H443.5V374.5H441.5ZM441.5 422.5V420.5H334.5V422.5V424.5H441.5V422.5ZM334.5 422.5H336.5V374.5H334.5H332.5V422.5H334.5Z" fill="#F15E00" mask="url(#path-18-inside-6_61394_167926)"/>
<path d="M367.821 393.076H370.333V402.388H375.901V404.5H367.821V393.076ZM377.17 398.772C377.202 398.239 377.335 397.796 377.57 397.444C377.804 397.092 378.103 396.809 378.466 396.596C378.828 396.383 379.234 396.233 379.682 396.148C380.14 396.052 380.599 396.004 381.058 396.004C381.474 396.004 381.895 396.036 382.322 396.1C382.748 396.153 383.138 396.265 383.49 396.436C383.842 396.607 384.13 396.847 384.354 397.156C384.578 397.455 384.69 397.855 384.69 398.356V402.66C384.69 403.033 384.711 403.391 384.754 403.732C384.796 404.073 384.871 404.329 384.978 404.5H382.674C382.631 404.372 382.594 404.244 382.562 404.116C382.54 403.977 382.524 403.839 382.514 403.7C382.151 404.073 381.724 404.335 381.234 404.484C380.743 404.633 380.242 404.708 379.73 404.708C379.335 404.708 378.967 404.66 378.626 404.564C378.284 404.468 377.986 404.319 377.73 404.116C377.474 403.913 377.271 403.657 377.122 403.348C376.983 403.039 376.914 402.671 376.914 402.244C376.914 401.775 376.994 401.391 377.154 401.092C377.324 400.783 377.538 400.537 377.794 400.356C378.06 400.175 378.359 400.041 378.69 399.956C379.031 399.86 379.372 399.785 379.714 399.732C380.055 399.679 380.391 399.636 380.722 399.604C381.052 399.572 381.346 399.524 381.602 399.46C381.858 399.396 382.06 399.305 382.21 399.188C382.359 399.06 382.428 398.879 382.418 398.644C382.418 398.399 382.375 398.207 382.29 398.068C382.215 397.919 382.108 397.807 381.97 397.732C381.842 397.647 381.687 397.593 381.506 397.572C381.335 397.54 381.148 397.524 380.946 397.524C380.498 397.524 380.146 397.62 379.89 397.812C379.634 398.004 379.484 398.324 379.442 398.772H377.17ZM382.418 400.452C382.322 400.537 382.199 400.607 382.05 400.66C381.911 400.703 381.756 400.74 381.586 400.772C381.426 400.804 381.255 400.831 381.074 400.852C380.892 400.873 380.711 400.9 380.53 400.932C380.359 400.964 380.188 401.007 380.018 401.06C379.858 401.113 379.714 401.188 379.586 401.284C379.468 401.369 379.372 401.481 379.298 401.62C379.223 401.759 379.186 401.935 379.186 402.148C379.186 402.351 379.223 402.521 379.298 402.66C379.372 402.799 379.474 402.911 379.602 402.996C379.73 403.071 379.879 403.124 380.05 403.156C380.22 403.188 380.396 403.204 380.578 403.204C381.026 403.204 381.372 403.129 381.618 402.98C381.863 402.831 382.044 402.655 382.162 402.452C382.279 402.239 382.348 402.025 382.37 401.812C382.402 401.599 382.418 401.428 382.418 401.3V400.452ZM392.717 400.372C392.717 400.02 392.68 399.684 392.605 399.364C392.53 399.044 392.413 398.761 392.253 398.516C392.093 398.271 391.89 398.079 391.645 397.94C391.41 397.791 391.122 397.716 390.781 397.716C390.45 397.716 390.162 397.791 389.917 397.94C389.672 398.079 389.469 398.271 389.309 398.516C389.149 398.761 389.032 399.044 388.957 399.364C388.882 399.684 388.845 400.02 388.845 400.372C388.845 400.713 388.882 401.044 388.957 401.364C389.032 401.684 389.149 401.967 389.309 402.212C389.469 402.457 389.672 402.655 389.917 402.804C390.162 402.943 390.45 403.012 390.781 403.012C391.122 403.012 391.41 402.943 391.645 402.804C391.89 402.655 392.093 402.457 392.253 402.212C392.413 401.967 392.53 401.684 392.605 401.364C392.68 401.044 392.717 400.713 392.717 400.372ZM386.653 393.076H388.925V397.236H388.957C389.234 396.809 389.608 396.5 390.077 396.308C390.557 396.105 391.053 396.004 391.565 396.004C391.981 396.004 392.392 396.089 392.797 396.26C393.202 396.431 393.565 396.692 393.885 397.044C394.216 397.396 394.482 397.849 394.685 398.404C394.888 398.948 394.989 399.599 394.989 400.356C394.989 401.113 394.888 401.769 394.685 402.324C394.482 402.868 394.216 403.316 393.885 403.668C393.565 404.02 393.202 404.281 392.797 404.452C392.392 404.623 391.981 404.708 391.565 404.708C390.957 404.708 390.413 404.612 389.933 404.42C389.453 404.228 389.09 403.903 388.845 403.444H388.813V404.5H386.653V393.076ZM402.202 399.476C402.096 398.9 401.904 398.463 401.626 398.164C401.36 397.865 400.949 397.716 400.394 397.716C400.032 397.716 399.728 397.78 399.482 397.908C399.248 398.025 399.056 398.175 398.906 398.356C398.768 398.537 398.666 398.729 398.602 398.932C398.549 399.135 398.517 399.316 398.506 399.476H402.202ZM398.506 400.916C398.538 401.652 398.725 402.185 399.066 402.516C399.408 402.847 399.898 403.012 400.538 403.012C400.997 403.012 401.392 402.9 401.722 402.676C402.053 402.441 402.256 402.196 402.33 401.94H404.33C404.01 402.932 403.52 403.641 402.858 404.068C402.197 404.495 401.397 404.708 400.458 404.708C399.808 404.708 399.221 404.607 398.698 404.404C398.176 404.191 397.733 403.892 397.37 403.508C397.008 403.124 396.725 402.665 396.522 402.132C396.33 401.599 396.234 401.012 396.234 400.372C396.234 399.753 396.336 399.177 396.538 398.644C396.741 398.111 397.029 397.652 397.402 397.268C397.776 396.873 398.218 396.564 398.73 396.34C399.253 396.116 399.829 396.004 400.458 396.004C401.162 396.004 401.776 396.143 402.298 396.42C402.821 396.687 403.248 397.049 403.578 397.508C403.92 397.967 404.165 398.489 404.314 399.076C404.464 399.663 404.517 400.276 404.474 400.916H398.506ZM406.086 393.076H408.358V404.5H406.086V393.076Z" fill="#F15E00"/>
<path d="M159.748 490.576H161.268V500.72H167.316V502H159.748V490.576ZM169.407 497.872C169.407 498.373 169.471 498.821 169.599 499.216C169.737 499.6 169.924 499.925 170.159 500.192C170.393 500.448 170.665 500.645 170.975 500.784C171.295 500.923 171.631 500.992 171.983 500.992C172.335 500.992 172.665 500.923 172.975 500.784C173.295 500.645 173.572 500.448 173.807 500.192C174.041 499.925 174.223 499.6 174.351 499.216C174.489 498.821 174.559 498.373 174.559 497.872C174.559 497.371 174.489 496.928 174.351 496.544C174.223 496.149 174.041 495.819 173.807 495.552C173.572 495.285 173.295 495.083 172.975 494.944C172.665 494.805 172.335 494.736 171.983 494.736C171.631 494.736 171.295 494.805 170.975 494.944C170.665 495.083 170.393 495.285 170.159 495.552C169.924 495.819 169.737 496.149 169.599 496.544C169.471 496.928 169.407 497.371 169.407 497.872ZM167.967 497.872C167.967 497.264 168.052 496.699 168.223 496.176C168.393 495.643 168.649 495.184 168.991 494.8C169.332 494.405 169.753 494.096 170.255 493.872C170.756 493.648 171.332 493.536 171.983 493.536C172.644 493.536 173.22 493.648 173.711 493.872C174.212 494.096 174.633 494.405 174.975 494.8C175.316 495.184 175.572 495.643 175.743 496.176C175.913 496.699 175.999 497.264 175.999 497.872C175.999 498.48 175.913 499.045 175.743 499.568C175.572 500.091 175.316 500.549 174.975 500.944C174.633 501.328 174.212 501.632 173.711 501.856C173.22 502.069 172.644 502.176 171.983 502.176C171.332 502.176 170.756 502.069 170.255 501.856C169.753 501.632 169.332 501.328 168.991 500.944C168.649 500.549 168.393 500.091 168.223 499.568C168.052 499.045 167.967 498.48 167.967 497.872ZM184.93 501.968C184.695 502.107 184.37 502.176 183.954 502.176C183.602 502.176 183.319 502.08 183.106 501.888C182.903 501.685 182.802 501.36 182.802 500.912C182.429 501.36 181.991 501.685 181.49 501.888C180.999 502.08 180.466 502.176 179.89 502.176C179.517 502.176 179.159 502.133 178.818 502.048C178.487 501.963 178.199 501.829 177.954 501.648C177.709 501.467 177.511 501.232 177.362 500.944C177.223 500.645 177.154 500.288 177.154 499.872C177.154 499.403 177.234 499.019 177.394 498.72C177.554 498.421 177.762 498.181 178.018 498C178.285 497.808 178.583 497.664 178.914 497.568C179.255 497.472 179.602 497.392 179.954 497.328C180.327 497.253 180.679 497.2 181.01 497.168C181.351 497.125 181.65 497.072 181.906 497.008C182.162 496.933 182.365 496.832 182.514 496.704C182.663 496.565 182.738 496.368 182.738 496.112C182.738 495.813 182.679 495.573 182.562 495.392C182.455 495.211 182.311 495.072 182.13 494.976C181.959 494.88 181.762 494.816 181.538 494.784C181.325 494.752 181.111 494.736 180.898 494.736C180.322 494.736 179.842 494.848 179.458 495.072C179.074 495.285 178.866 495.696 178.834 496.304H177.474C177.495 495.792 177.602 495.36 177.794 495.008C177.986 494.656 178.242 494.373 178.562 494.16C178.882 493.936 179.245 493.776 179.65 493.68C180.066 493.584 180.509 493.536 180.978 493.536C181.351 493.536 181.719 493.563 182.082 493.616C182.455 493.669 182.791 493.781 183.09 493.952C183.389 494.112 183.629 494.341 183.81 494.64C183.991 494.939 184.082 495.328 184.082 495.808V500.064C184.082 500.384 184.098 500.619 184.13 500.768C184.173 500.917 184.301 500.992 184.514 500.992C184.631 500.992 184.77 500.965 184.93 500.912V501.968ZM182.722 497.728C182.551 497.856 182.327 497.952 182.05 498.016C181.773 498.069 181.479 498.117 181.17 498.16C180.871 498.192 180.567 498.235 180.258 498.288C179.949 498.331 179.671 498.405 179.426 498.512C179.181 498.619 178.978 498.773 178.818 498.976C178.669 499.168 178.594 499.435 178.594 499.776C178.594 500 178.637 500.192 178.722 500.352C178.818 500.501 178.935 500.624 179.074 500.72C179.223 500.816 179.394 500.885 179.586 500.928C179.778 500.971 179.981 500.992 180.194 500.992C180.642 500.992 181.026 500.933 181.346 500.816C181.666 500.688 181.927 500.533 182.13 500.352C182.333 500.16 182.482 499.957 182.578 499.744C182.674 499.52 182.722 499.312 182.722 499.12V497.728ZM187.188 497.936C187.188 498.32 187.236 498.699 187.332 499.072C187.439 499.435 187.593 499.76 187.796 500.048C188.009 500.336 188.276 500.565 188.596 500.736C188.927 500.907 189.311 500.992 189.748 500.992C190.207 500.992 190.596 500.901 190.916 500.72C191.236 500.539 191.497 500.304 191.7 500.016C191.903 499.717 192.047 499.381 192.132 499.008C192.228 498.635 192.276 498.256 192.276 497.872C192.276 497.467 192.228 497.077 192.132 496.704C192.036 496.32 191.881 495.984 191.668 495.696C191.465 495.408 191.199 495.179 190.868 495.008C190.537 494.827 190.137 494.736 189.668 494.736C189.209 494.736 188.82 494.827 188.5 495.008C188.18 495.189 187.924 495.429 187.732 495.728C187.54 496.027 187.401 496.368 187.316 496.752C187.231 497.136 187.188 497.531 187.188 497.936ZM193.588 502H192.228V500.88H192.196C191.972 501.339 191.62 501.669 191.14 501.872C190.66 502.075 190.132 502.176 189.556 502.176C188.916 502.176 188.356 502.059 187.876 501.824C187.407 501.589 187.012 501.275 186.692 500.88C186.383 500.485 186.148 500.027 185.988 499.504C185.828 498.981 185.748 498.427 185.748 497.84C185.748 497.253 185.823 496.699 185.972 496.176C186.132 495.653 186.367 495.2 186.676 494.816C186.996 494.421 187.391 494.112 187.86 493.888C188.34 493.653 188.895 493.536 189.524 493.536C189.737 493.536 189.967 493.557 190.212 493.6C190.457 493.643 190.703 493.717 190.948 493.824C191.193 493.92 191.423 494.053 191.636 494.224C191.86 494.384 192.047 494.587 192.196 494.832H192.228V490.576H193.588V502ZM197.12 492.24H195.76V490.576H197.12V492.24ZM195.76 493.728H197.12V502H195.76V493.728ZM199.227 493.728H200.507V495.04H200.539C201.104 494.037 202 493.536 203.227 493.536C203.771 493.536 204.224 493.611 204.587 493.76C204.95 493.909 205.243 494.117 205.467 494.384C205.691 494.651 205.846 494.971 205.931 495.344C206.027 495.707 206.075 496.112 206.075 496.56V502H204.715V496.4C204.715 495.888 204.566 495.483 204.267 495.184C203.968 494.885 203.558 494.736 203.035 494.736C202.619 494.736 202.256 494.8 201.947 494.928C201.648 495.056 201.398 495.237 201.195 495.472C200.992 495.707 200.838 495.984 200.731 496.304C200.635 496.613 200.587 496.955 200.587 497.328V502H199.227V493.728ZM215.254 501.296C215.254 502.651 214.944 503.664 214.326 504.336C213.707 505.008 212.736 505.344 211.414 505.344C211.03 505.344 210.635 505.301 210.23 505.216C209.835 505.131 209.472 504.992 209.142 504.8C208.822 504.608 208.555 504.357 208.342 504.048C208.128 503.739 208.011 503.36 207.99 502.912H209.35C209.36 503.157 209.435 503.365 209.574 503.536C209.723 503.707 209.899 503.845 210.102 503.952C210.315 504.059 210.544 504.133 210.79 504.176C211.035 504.229 211.27 504.256 211.494 504.256C211.942 504.256 212.32 504.176 212.63 504.016C212.939 503.867 213.195 503.653 213.398 503.376C213.6 503.109 213.744 502.784 213.83 502.4C213.926 502.016 213.974 501.595 213.974 501.136V500.592H213.942C213.707 501.104 213.35 501.483 212.87 501.728C212.4 501.963 211.899 502.08 211.366 502.08C210.747 502.08 210.208 501.968 209.75 501.744C209.291 501.52 208.907 501.221 208.598 500.848C208.288 500.464 208.054 500.021 207.894 499.52C207.744 499.008 207.67 498.469 207.67 497.904C207.67 497.413 207.734 496.912 207.862 496.4C207.99 495.877 208.203 495.408 208.502 494.992C208.8 494.565 209.195 494.219 209.686 493.952C210.176 493.675 210.779 493.536 211.494 493.536C212.016 493.536 212.496 493.653 212.934 493.888C213.371 494.112 213.712 494.453 213.958 494.912H213.974V493.728H215.254V501.296ZM211.446 500.896C211.894 500.896 212.272 500.805 212.582 500.624C212.902 500.432 213.158 500.187 213.35 499.888C213.542 499.579 213.68 499.232 213.766 498.848C213.862 498.464 213.91 498.08 213.91 497.696C213.91 497.333 213.867 496.976 213.782 496.624C213.696 496.272 213.558 495.957 213.366 495.68C213.184 495.392 212.944 495.163 212.646 494.992C212.347 494.821 211.984 494.736 211.558 494.736C211.12 494.736 210.747 494.821 210.438 494.992C210.128 495.152 209.872 495.371 209.67 495.648C209.478 495.925 209.334 496.245 209.238 496.608C209.152 496.971 209.11 497.349 209.11 497.744C209.11 498.117 209.147 498.491 209.222 498.864C209.296 499.237 209.424 499.579 209.606 499.888C209.787 500.187 210.027 500.432 210.326 500.624C210.624 500.805 210.998 500.896 211.446 500.896Z" fill="black" fill-opacity="0.68"/>
<mask id="path-22-inside-7_61394_167926" fill="white">
<path d="M334.5 472.5H441.5V520.5H334.5V472.5Z"/>
</mask>
<path d="M334.5 472.5V470.5H332.5V472.5H334.5ZM441.5 472.5H443.5V470.5H441.5V472.5ZM441.5 520.5V522.5H443.5V520.5H441.5ZM334.5 520.5H332.5V522.5H334.5V520.5ZM334.5 472.5V474.5H441.5V472.5V470.5H334.5V472.5ZM441.5 472.5H439.5V520.5H441.5H443.5V472.5H441.5ZM441.5 520.5V518.5H334.5V520.5V522.5H441.5V520.5ZM334.5 520.5H336.5V472.5H334.5H332.5V520.5H334.5Z" fill="#F15E00" mask="url(#path-22-inside-7_61394_167926)"/>
<mask id="mask0_61394_167926" style="mask-type:alpha" maskUnits="userSpaceOnUse" x="378" y="486" width="21" height="21">
<path d="M388.5 486.5C394.023 486.5 398.5 490.977 398.5 496.5C398.5 502.023 394.023 506.5 388.5 506.5C382.977 506.5 378.5 502.023 378.5 496.5C378.5 490.977 382.977 486.5 388.5 486.5ZM388.5 489.417C384.588 489.417 381.417 492.588 381.417 496.5C381.417 500.412 384.588 503.583 388.5 503.583C392.412 503.583 395.583 500.412 395.583 496.5C395.583 492.588 392.412 489.417 388.5 489.417Z" fill="#CCCCCC"/>
</mask>
<g mask="url(#mask0_61394_167926)">
<mask id="mask1_61394_167926" style="mask-type:alpha" maskUnits="userSpaceOnUse" x="378" y="486" width="11" height="11">
<path d="M388.5 486.5C387.187 486.5 385.886 486.759 384.673 487.261C383.46 487.764 382.358 488.5 381.429 489.429C380.5 490.358 379.764 491.46 379.261 492.673C378.759 493.886 378.5 495.187 378.5 496.5L388.5 496.5L388.5 486.5Z" fill="#F15E00"/>
<path d="M388.5 486.5C387.187 486.5 385.887 486.759 384.673 487.261C383.46 487.764 382.358 488.5 381.429 489.429C380.5 490.358 379.764 491.46 379.261 492.673C378.759 493.886 378.5 495.187 378.5 496.5L388.5 496.5L388.5 486.5Z" fill="#F15E00"/>
<path d="M388.5 486.5C387.187 486.5 385.887 486.759 384.673 487.261C383.46 487.764 382.358 488.5 381.429 489.429C380.5 490.358 379.764 491.46 379.261 492.673C378.759 493.886 378.5 495.187 378.5 496.5L388.5 496.5L388.5 486.5Z" fill="#F15E00"/>
<path d="M388.5 486.5C387.187 486.5 385.886 486.759 384.673 487.261C383.46 487.764 382.358 488.5 381.429 489.429C380.5 490.358 379.764 491.46 379.261 492.673C378.759 493.886 378.5 495.187 378.5 496.5L388.5 496.5L388.5 486.5Z" fill="#F15E00"/>
</mask>
<g mask="url(#mask1_61394_167926)">
<path d="M388.5 506.5C385.848 506.5 383.304 505.446 381.429 503.571C379.554 501.696 378.5 499.152 378.5 496.5C378.5 493.848 379.554 491.304 381.429 489.429C383.304 487.554 385.848 486.5 388.5 486.5L388.5 496.5L388.5 506.5Z" fill="#F15E00"/>
</g>
</g>
<path d="M161.268 598.72H163.796C163.967 598.72 164.18 598.709 164.436 598.688C164.692 598.656 164.964 598.592 165.252 598.496C165.54 598.389 165.823 598.24 166.1 598.048C166.388 597.856 166.644 597.595 166.868 597.264C167.092 596.933 167.273 596.523 167.412 596.032C167.561 595.531 167.636 594.928 167.636 594.224C167.636 593.541 167.567 592.933 167.428 592.4C167.3 591.856 167.081 591.397 166.772 591.024C166.473 590.64 166.084 590.352 165.604 590.16C165.124 589.957 164.532 589.856 163.828 589.856H161.268V598.72ZM159.748 588.576H163.668C165.428 588.576 166.783 589.024 167.732 589.92C168.681 590.816 169.156 592.181 169.156 594.016C169.156 594.976 169.049 595.829 168.836 596.576C168.623 597.312 168.292 597.936 167.844 598.448C167.396 598.949 166.825 599.333 166.132 599.6C165.439 599.867 164.617 600 163.668 600H159.748V588.576ZM172.23 590.24H170.87V588.576H172.23V590.24ZM170.87 591.728H172.23V600H170.87V591.728ZM175.169 597.392C175.179 597.691 175.249 597.947 175.377 598.16C175.505 598.363 175.67 598.528 175.873 598.656C176.086 598.773 176.321 598.859 176.577 598.912C176.843 598.965 177.115 598.992 177.393 598.992C177.606 598.992 177.83 598.976 178.065 598.944C178.299 598.912 178.513 598.853 178.705 598.768C178.907 598.683 179.073 598.56 179.201 598.4C179.329 598.229 179.393 598.016 179.393 597.76C179.393 597.408 179.259 597.141 178.993 596.96C178.726 596.779 178.39 596.635 177.985 596.528C177.59 596.411 177.158 596.309 176.689 596.224C176.219 596.128 175.782 596 175.377 595.84C174.982 595.669 174.651 595.435 174.385 595.136C174.118 594.837 173.985 594.421 173.985 593.888C173.985 593.472 174.075 593.115 174.257 592.816C174.449 592.517 174.689 592.277 174.977 592.096C175.275 591.904 175.606 591.765 175.969 591.68C176.342 591.584 176.71 591.536 177.073 591.536C177.542 591.536 177.974 591.579 178.369 591.664C178.763 591.739 179.11 591.877 179.409 592.08C179.718 592.272 179.963 592.539 180.145 592.88C180.326 593.211 180.433 593.627 180.465 594.128H179.105C179.083 593.861 179.014 593.643 178.897 593.472C178.779 593.291 178.63 593.147 178.449 593.04C178.267 592.933 178.065 592.859 177.841 592.816C177.627 592.763 177.409 592.736 177.185 592.736C176.982 592.736 176.774 592.752 176.561 592.784C176.358 592.816 176.171 592.875 176.001 592.96C175.83 593.035 175.691 593.141 175.585 593.28C175.478 593.408 175.424 593.579 175.424 593.792C175.424 594.027 175.504 594.224 175.664 594.384C175.835 594.533 176.049 594.661 176.305 594.768C176.561 594.864 176.849 594.949 177.169 595.024C177.489 595.088 177.809 595.157 178.129 595.232C178.47 595.307 178.801 595.397 179.121 595.504C179.451 595.611 179.739 595.755 179.985 595.936C180.241 596.107 180.443 596.325 180.593 596.592C180.753 596.859 180.833 597.189 180.833 597.584C180.833 598.085 180.726 598.501 180.513 598.832C180.31 599.163 180.038 599.429 179.697 599.632C179.366 599.835 178.987 599.973 178.561 600.048C178.145 600.133 177.729 600.176 177.312 600.176C176.854 600.176 176.417 600.128 176.001 600.032C175.585 599.936 175.217 599.781 174.897 599.568C174.577 599.344 174.321 599.056 174.129 598.704C173.937 598.341 173.83 597.904 173.809 597.392H175.169ZM189.665 599.968C189.43 600.107 189.105 600.176 188.689 600.176C188.337 600.176 188.054 600.08 187.841 599.888C187.638 599.685 187.537 599.36 187.537 598.912C187.163 599.36 186.726 599.685 186.225 599.888C185.734 600.08 185.201 600.176 184.625 600.176C184.251 600.176 183.894 600.133 183.553 600.048C183.222 599.963 182.934 599.829 182.689 599.648C182.443 599.467 182.246 599.232 182.097 598.944C181.958 598.645 181.889 598.288 181.889 597.872C181.889 597.403 181.969 597.019 182.129 596.72C182.289 596.421 182.497 596.181 182.753 596C183.019 595.808 183.318 595.664 183.649 595.568C183.99 595.472 184.337 595.392 184.689 595.328C185.062 595.253 185.414 595.2 185.745 595.168C186.086 595.125 186.385 595.072 186.641 595.008C186.897 594.933 187.099 594.832 187.249 594.704C187.398 594.565 187.473 594.368 187.473 594.112C187.473 593.813 187.414 593.573 187.297 593.392C187.19 593.211 187.046 593.072 186.865 592.976C186.694 592.88 186.497 592.816 186.273 592.784C186.059 592.752 185.846 592.736 185.633 592.736C185.057 592.736 184.577 592.848 184.193 593.072C183.809 593.285 183.601 593.696 183.569 594.304H182.209C182.23 593.792 182.337 593.36 182.529 593.008C182.721 592.656 182.977 592.373 183.297 592.16C183.617 591.936 183.979 591.776 184.385 591.68C184.801 591.584 185.243 591.536 185.713 591.536C186.086 591.536 186.454 591.563 186.817 591.616C187.19 591.669 187.526 591.781 187.825 591.952C188.123 592.112 188.363 592.341 188.545 592.64C188.726 592.939 188.817 593.328 188.817 593.808V598.064C188.817 598.384 188.833 598.619 188.865 598.768C188.907 598.917 189.035 598.992 189.249 598.992C189.366 598.992 189.505 598.965 189.665 598.912V599.968ZM187.457 595.728C187.286 595.856 187.062 595.952 186.785 596.016C186.507 596.069 186.214 596.117 185.905 596.16C185.606 596.192 185.302 596.235 184.993 596.288C184.683 596.331 184.406 596.405 184.161 596.512C183.915 596.619 183.713 596.773 183.553 596.976C183.403 597.168 183.329 597.435 183.329 597.776C183.329 598 183.371 598.192 183.457 598.352C183.553 598.501 183.67 598.624 183.809 598.72C183.958 598.816 184.129 598.885 184.321 598.928C184.513 598.971 184.715 598.992 184.929 598.992C185.377 598.992 185.761 598.933 186.081 598.816C186.401 598.688 186.662 598.533 186.865 598.352C187.067 598.16 187.217 597.957 187.313 597.744C187.409 597.52 187.457 597.312 187.457 597.12V595.728ZM190.978 588.576H192.338V592.848H192.37C192.594 592.389 192.946 592.059 193.426 591.856C193.906 591.643 194.434 591.536 195.01 591.536C195.65 591.536 196.205 591.653 196.674 591.888C197.154 592.123 197.549 592.443 197.858 592.848C198.178 593.243 198.418 593.701 198.578 594.224C198.738 594.747 198.818 595.301 198.818 595.888C198.818 596.475 198.738 597.029 198.578 597.552C198.429 598.075 198.194 598.533 197.874 598.928C197.565 599.312 197.17 599.616 196.69 599.84C196.221 600.064 195.672 600.176 195.042 600.176C194.84 600.176 194.61 600.155 194.354 600.112C194.109 600.069 193.864 600 193.618 599.904C193.373 599.808 193.138 599.68 192.914 599.52C192.701 599.349 192.52 599.141 192.37 598.896H192.338V600H190.978V588.576ZM197.378 595.792C197.378 595.408 197.325 595.035 197.218 594.672C197.122 594.299 196.968 593.968 196.754 593.68C196.552 593.392 196.285 593.163 195.954 592.992C195.634 592.821 195.256 592.736 194.818 592.736C194.36 592.736 193.97 592.827 193.65 593.008C193.33 593.189 193.069 593.429 192.866 593.728C192.664 594.016 192.514 594.347 192.418 594.72C192.333 595.093 192.29 595.472 192.29 595.856C192.29 596.261 192.338 596.656 192.434 597.04C192.53 597.413 192.68 597.744 192.882 598.032C193.096 598.32 193.368 598.555 193.698 598.736C194.029 598.907 194.429 598.992 194.898 598.992C195.368 598.992 195.757 598.901 196.066 598.72C196.386 598.539 196.642 598.299 196.834 598C197.026 597.701 197.165 597.36 197.25 596.976C197.336 596.592 197.378 596.197 197.378 595.792ZM200.495 588.576H201.855V600H200.495V588.576ZM209.706 595.072C209.684 594.752 209.61 594.448 209.482 594.16C209.364 593.872 209.199 593.627 208.986 593.424C208.783 593.211 208.538 593.045 208.25 592.928C207.972 592.8 207.663 592.736 207.322 592.736C206.97 592.736 206.65 592.8 206.362 592.928C206.084 593.045 205.844 593.211 205.642 593.424C205.439 593.637 205.279 593.888 205.162 594.176C205.044 594.453 204.975 594.752 204.954 595.072H209.706ZM211.017 597.376C210.836 598.304 210.436 599.003 209.818 599.472C209.199 599.941 208.42 600.176 207.482 600.176C206.82 600.176 206.244 600.069 205.754 599.856C205.274 599.643 204.868 599.344 204.538 598.96C204.207 598.576 203.956 598.117 203.786 597.584C203.626 597.051 203.535 596.469 203.514 595.84C203.514 595.211 203.61 594.635 203.802 594.112C203.994 593.589 204.26 593.136 204.602 592.752C204.954 592.368 205.364 592.069 205.834 591.856C206.314 591.643 206.836 591.536 207.402 591.536C208.138 591.536 208.746 591.691 209.226 592C209.716 592.299 210.106 592.683 210.394 593.152C210.692 593.621 210.895 594.133 211.002 594.688C211.119 595.243 211.167 595.771 211.146 596.272H204.954C204.943 596.635 204.986 596.981 205.082 597.312C205.178 597.632 205.332 597.92 205.546 598.176C205.759 598.421 206.031 598.619 206.362 598.768C206.692 598.917 207.082 598.992 207.53 598.992C208.106 598.992 208.575 598.859 208.938 598.592C209.311 598.325 209.556 597.92 209.674 597.376H211.017ZM213.547 595.936C213.547 596.32 213.595 596.699 213.691 597.072C213.798 597.435 213.953 597.76 214.155 598.048C214.369 598.336 214.635 598.565 214.955 598.736C215.286 598.907 215.67 598.992 216.107 598.992C216.566 598.992 216.955 598.901 217.275 598.72C217.595 598.539 217.857 598.304 218.059 598.016C218.262 597.717 218.406 597.381 218.491 597.008C218.587 596.635 218.635 596.256 218.635 595.872C218.635 595.467 218.587 595.077 218.491 594.704C218.395 594.32 218.241 593.984 218.027 593.696C217.825 593.408 217.558 593.179 217.227 593.008C216.897 592.827 216.497 592.736 216.027 592.736C215.569 592.736 215.179 592.827 214.859 593.008C214.539 593.189 214.283 593.429 214.091 593.728C213.899 594.027 213.761 594.368 213.675 594.752C213.59 595.136 213.547 595.531 213.547 595.936ZM219.947 600H218.587V598.88H218.555C218.331 599.339 217.979 599.669 217.499 599.872C217.019 600.075 216.491 600.176 215.915 600.176C215.275 600.176 214.715 600.059 214.235 599.824C213.766 599.589 213.371 599.275 213.051 598.88C212.742 598.485 212.507 598.027 212.347 597.504C212.187 596.981 212.107 596.427 212.107 595.84C212.107 595.253 212.182 594.699 212.331 594.176C212.491 593.653 212.726 593.2 213.035 592.816C213.355 592.421 213.75 592.112 214.219 591.888C214.699 591.653 215.254 591.536 215.883 591.536C216.097 591.536 216.326 591.557 216.571 591.6C216.817 591.643 217.062 591.717 217.307 591.824C217.553 591.92 217.782 592.053 217.995 592.224C218.219 592.384 218.406 592.587 218.555 592.832H218.587V588.576H219.947V600Z" fill="black" fill-opacity="0.68"/>
<mask id="path-31-inside-8_61394_167926" fill="white">
<path d="M334.5 570.5H441.5V618.5H334.5V570.5Z"/>
</mask>
<path d="M334.5 570.5V569.5H333.5V570.5H334.5ZM441.5 570.5H442.5V569.5H441.5V570.5ZM441.5 618.5V619.5H442.5V618.5H441.5ZM334.5 618.5H333.5V619.5H334.5V618.5ZM334.5 570.5V571.5H441.5V570.5V569.5H334.5V570.5ZM441.5 570.5H440.5V618.5H441.5H442.5V570.5H441.5ZM441.5 618.5V617.5H334.5V618.5V619.5H441.5V618.5ZM334.5 618.5H335.5V570.5H334.5H333.5V618.5H334.5Z" fill="black" fill-opacity="0.2" mask="url(#path-31-inside-8_61394_167926)"/>
<path d="M367.821 589.076H370.333V598.388H375.901V600.5H367.821V589.076ZM377.17 594.772C377.202 594.239 377.335 593.796 377.57 593.444C377.804 593.092 378.103 592.809 378.466 592.596C378.828 592.383 379.234 592.233 379.682 592.148C380.14 592.052 380.599 592.004 381.058 592.004C381.474 592.004 381.895 592.036 382.322 592.1C382.748 592.153 383.138 592.265 383.49 592.436C383.842 592.607 384.13 592.847 384.354 593.156C384.578 593.455 384.69 593.855 384.69 594.356V598.66C384.69 599.033 384.711 599.391 384.754 599.732C384.796 600.073 384.871 600.329 384.978 600.5H382.674C382.631 600.372 382.594 600.244 382.562 600.116C382.54 599.977 382.524 599.839 382.514 599.7C382.151 600.073 381.724 600.335 381.234 600.484C380.743 600.633 380.242 600.708 379.73 600.708C379.335 600.708 378.967 600.66 378.626 600.564C378.284 600.468 377.986 600.319 377.73 600.116C377.474 599.913 377.271 599.657 377.122 599.348C376.983 599.039 376.914 598.671 376.914 598.244C376.914 597.775 376.994 597.391 377.154 597.092C377.324 596.783 377.538 596.537 377.794 596.356C378.06 596.175 378.359 596.041 378.69 595.956C379.031 595.86 379.372 595.785 379.714 595.732C380.055 595.679 380.391 595.636 380.722 595.604C381.052 595.572 381.346 595.524 381.602 595.46C381.858 595.396 382.06 595.305 382.21 595.188C382.359 595.06 382.428 594.879 382.418 594.644C382.418 594.399 382.375 594.207 382.29 594.068C382.215 593.919 382.108 593.807 381.97 593.732C381.842 593.647 381.687 593.593 381.506 593.572C381.335 593.54 381.148 593.524 380.946 593.524C380.498 593.524 380.146 593.62 379.89 593.812C379.634 594.004 379.484 594.324 379.442 594.772H377.17ZM382.418 596.452C382.322 596.537 382.199 596.607 382.05 596.66C381.911 596.703 381.756 596.74 381.586 596.772C381.426 596.804 381.255 596.831 381.074 596.852C380.892 596.873 380.711 596.9 380.53 596.932C380.359 596.964 380.188 597.007 380.018 597.06C379.858 597.113 379.714 597.188 379.586 597.284C379.468 597.369 379.372 597.481 379.298 597.62C379.223 597.759 379.186 597.935 379.186 598.148C379.186 598.351 379.223 598.521 379.298 598.66C379.372 598.799 379.474 598.911 379.602 598.996C379.73 599.071 379.879 599.124 380.05 599.156C380.22 599.188 380.396 599.204 380.578 599.204C381.026 599.204 381.372 599.129 381.618 598.98C381.863 598.831 382.044 598.655 382.162 598.452C382.279 598.239 382.348 598.025 382.37 597.812C382.402 597.599 382.418 597.428 382.418 597.3V596.452ZM392.717 596.372C392.717 596.02 392.68 595.684 392.605 595.364C392.53 595.044 392.413 594.761 392.253 594.516C392.093 594.271 391.89 594.079 391.645 593.94C391.41 593.791 391.122 593.716 390.781 593.716C390.45 593.716 390.162 593.791 389.917 593.94C389.672 594.079 389.469 594.271 389.309 594.516C389.149 594.761 389.032 595.044 388.957 595.364C388.882 595.684 388.845 596.02 388.845 596.372C388.845 596.713 388.882 597.044 388.957 597.364C389.032 597.684 389.149 597.967 389.309 598.212C389.469 598.457 389.672 598.655 389.917 598.804C390.162 598.943 390.45 599.012 390.781 599.012C391.122 599.012 391.41 598.943 391.645 598.804C391.89 598.655 392.093 598.457 392.253 598.212C392.413 597.967 392.53 597.684 392.605 597.364C392.68 597.044 392.717 596.713 392.717 596.372ZM386.653 589.076H388.925V593.236H388.957C389.234 592.809 389.608 592.5 390.077 592.308C390.557 592.105 391.053 592.004 391.565 592.004C391.981 592.004 392.392 592.089 392.797 592.26C393.202 592.431 393.565 592.692 393.885 593.044C394.216 593.396 394.482 593.849 394.685 594.404C394.888 594.948 394.989 595.599 394.989 596.356C394.989 597.113 394.888 597.769 394.685 598.324C394.482 598.868 394.216 599.316 393.885 599.668C393.565 600.02 393.202 600.281 392.797 600.452C392.392 600.623 391.981 600.708 391.565 600.708C390.957 600.708 390.413 600.612 389.933 600.42C389.453 600.228 389.09 599.903 388.845 599.444H388.813V600.5H386.653V589.076ZM402.202 595.476C402.096 594.9 401.904 594.463 401.626 594.164C401.36 593.865 400.949 593.716 400.394 593.716C400.032 593.716 399.728 593.78 399.482 593.908C399.248 594.025 399.056 594.175 398.906 594.356C398.768 594.537 398.666 594.729 398.602 594.932C398.549 595.135 398.517 595.316 398.506 595.476H402.202ZM398.506 596.916C398.538 597.652 398.725 598.185 399.066 598.516C399.408 598.847 399.898 599.012 400.538 599.012C400.997 599.012 401.392 598.9 401.722 598.676C402.053 598.441 402.256 598.196 402.33 597.94H404.33C404.01 598.932 403.52 599.641 402.858 600.068C402.197 600.495 401.397 600.708 400.458 600.708C399.808 600.708 399.221 600.607 398.698 600.404C398.176 600.191 397.733 599.892 397.37 599.508C397.008 599.124 396.725 598.665 396.522 598.132C396.33 597.599 396.234 597.012 396.234 596.372C396.234 595.753 396.336 595.177 396.538 594.644C396.741 594.111 397.029 593.652 397.402 593.268C397.776 592.873 398.218 592.564 398.73 592.34C399.253 592.116 399.829 592.004 400.458 592.004C401.162 592.004 401.776 592.143 402.298 592.42C402.821 592.687 403.248 593.049 403.578 593.508C403.92 593.967 404.165 594.489 404.314 595.076C404.464 595.663 404.517 596.276 404.474 596.916H398.506ZM406.086 589.076H408.358V600.5H406.086V589.076Z" fill="black" fill-opacity="0.2"/>
<path d="M166.356 689.92C166.271 689.099 165.972 688.507 165.46 688.144C164.959 687.771 164.313 687.584 163.524 687.584C163.204 687.584 162.889 687.616 162.58 687.68C162.271 687.744 161.993 687.851 161.748 688C161.513 688.149 161.321 688.352 161.172 688.608C161.033 688.853 160.964 689.163 160.964 689.536C160.964 689.888 161.065 690.176 161.268 690.4C161.481 690.613 161.759 690.789 162.1 690.928C162.452 691.067 162.847 691.184 163.284 691.28C163.721 691.365 164.164 691.461 164.612 691.568C165.071 691.675 165.519 691.803 165.956 691.952C166.393 692.091 166.783 692.283 167.124 692.528C167.476 692.773 167.753 693.083 167.956 693.456C168.169 693.829 168.276 694.299 168.276 694.864C168.276 695.472 168.137 695.995 167.86 696.432C167.593 696.859 167.247 697.211 166.82 697.488C166.393 697.755 165.913 697.947 165.38 698.064C164.857 698.192 164.335 698.256 163.812 698.256C163.172 698.256 162.564 698.176 161.988 698.016C161.423 697.856 160.921 697.616 160.484 697.296C160.057 696.965 159.716 696.549 159.46 696.048C159.215 695.536 159.092 694.933 159.092 694.24H160.532C160.532 694.72 160.623 695.136 160.804 695.488C160.996 695.829 161.241 696.112 161.54 696.336C161.849 696.56 162.207 696.725 162.612 696.832C163.017 696.939 163.433 696.992 163.86 696.992C164.201 696.992 164.543 696.96 164.884 696.896C165.236 696.832 165.551 696.725 165.828 696.576C166.105 696.416 166.329 696.203 166.5 695.936C166.671 695.669 166.756 695.328 166.756 694.912C166.756 694.517 166.649 694.197 166.436 693.952C166.233 693.707 165.956 693.509 165.604 693.36C165.263 693.2 164.873 693.072 164.436 692.976C163.999 692.88 163.551 692.784 163.092 692.688C162.644 692.581 162.201 692.464 161.764 692.336C161.327 692.197 160.932 692.021 160.58 691.808C160.239 691.584 159.961 691.301 159.748 690.96C159.545 690.608 159.444 690.171 159.444 689.648C159.444 689.072 159.561 688.576 159.796 688.16C160.031 687.733 160.34 687.387 160.724 687.12C161.119 686.843 161.561 686.64 162.052 686.512C162.553 686.373 163.065 686.304 163.588 686.304C164.175 686.304 164.719 686.373 165.22 686.512C165.721 686.651 166.159 686.869 166.532 687.168C166.916 687.467 167.215 687.845 167.428 688.304C167.652 688.752 167.775 689.291 167.796 689.92H166.356ZM169.979 686.576H171.339V693.344L175.115 689.728H176.939L173.659 692.736L177.179 698H175.451L172.619 693.68L171.339 694.864V698H169.979V686.576ZM183.94 693.072C183.919 692.752 183.844 692.448 183.716 692.16C183.599 691.872 183.433 691.627 183.22 691.424C183.017 691.211 182.772 691.045 182.484 690.928C182.207 690.8 181.897 690.736 181.556 690.736C181.204 690.736 180.884 690.8 180.596 690.928C180.319 691.045 180.079 691.211 179.876 691.424C179.673 691.637 179.513 691.888 179.396 692.176C179.279 692.453 179.209 692.752 179.188 693.072H183.94ZM185.252 695.376C185.071 696.304 184.671 697.003 184.052 697.472C183.433 697.941 182.655 698.176 181.716 698.176C181.055 698.176 180.479 698.069 179.988 697.856C179.508 697.643 179.103 697.344 178.772 696.96C178.441 696.576 178.191 696.117 178.02 695.584C177.86 695.051 177.769 694.469 177.748 693.84C177.748 693.211 177.844 692.635 178.036 692.112C178.228 691.589 178.495 691.136 178.836 690.752C179.188 690.368 179.599 690.069 180.068 689.856C180.548 689.643 181.071 689.536 181.636 689.536C182.372 689.536 182.98 689.691 183.46 690C183.951 690.299 184.34 690.683 184.628 691.152C184.927 691.621 185.129 692.133 185.236 692.688C185.353 693.243 185.401 693.771 185.38 694.272H179.188C179.177 694.635 179.22 694.981 179.316 695.312C179.412 695.632 179.567 695.92 179.78 696.176C179.993 696.421 180.265 696.619 180.596 696.768C180.927 696.917 181.316 696.992 181.764 696.992C182.34 696.992 182.809 696.859 183.172 696.592C183.545 696.325 183.791 695.92 183.908 695.376H185.252ZM186.87 686.576H188.23V698H186.87V686.576ZM196.081 693.072C196.059 692.752 195.985 692.448 195.857 692.16C195.739 691.872 195.574 691.627 195.361 691.424C195.158 691.211 194.913 691.045 194.625 690.928C194.347 690.8 194.038 690.736 193.697 690.736C193.345 690.736 193.025 690.8 192.737 690.928C192.459 691.045 192.219 691.211 192.017 691.424C191.814 691.637 191.654 691.888 191.537 692.176C191.419 692.453 191.35 692.752 191.329 693.072H196.081ZM197.392 695.376C197.211 696.304 196.811 697.003 196.193 697.472C195.574 697.941 194.795 698.176 193.857 698.176C193.195 698.176 192.619 698.069 192.129 697.856C191.649 697.643 191.243 697.344 190.913 696.96C190.582 696.576 190.331 696.117 190.161 695.584C190.001 695.051 189.91 694.469 189.889 693.84C189.889 693.211 189.985 692.635 190.177 692.112C190.369 691.589 190.635 691.136 190.977 690.752C191.329 690.368 191.739 690.069 192.209 689.856C192.689 689.643 193.211 689.536 193.777 689.536C194.513 689.536 195.121 689.691 195.601 690C196.091 690.299 196.481 690.683 196.769 691.152C197.067 691.621 197.27 692.133 197.377 692.688C197.494 693.243 197.542 693.771 197.521 694.272H191.329C191.318 694.635 191.361 694.981 191.457 695.312C191.553 695.632 191.707 695.92 191.921 696.176C192.134 696.421 192.406 696.619 192.737 696.768C193.067 696.917 193.457 696.992 193.905 696.992C194.481 696.992 194.95 696.859 195.313 696.592C195.686 696.325 195.931 695.92 196.049 695.376H197.392ZM200.818 689.728H202.466V690.928H200.818V696.064C200.818 696.224 200.829 696.352 200.85 696.448C200.882 696.544 200.936 696.619 201.01 696.672C201.085 696.725 201.186 696.763 201.314 696.784C201.453 696.795 201.629 696.8 201.842 696.8H202.466V698H201.426C201.074 698 200.77 697.979 200.514 697.936C200.269 697.883 200.066 697.792 199.906 697.664C199.757 697.536 199.645 697.355 199.57 697.12C199.496 696.885 199.458 696.576 199.458 696.192V690.928H198.05V689.728H199.458V687.248H200.818V689.728ZM204.969 693.872C204.969 694.373 205.033 694.821 205.161 695.216C205.3 695.6 205.486 695.925 205.721 696.192C205.956 696.448 206.228 696.645 206.537 696.784C206.857 696.923 207.193 696.992 207.545 696.992C207.897 696.992 208.228 696.923 208.537 696.784C208.857 696.645 209.134 696.448 209.369 696.192C209.604 695.925 209.785 695.6 209.913 695.216C210.052 694.821 210.121 694.373 210.121 693.872C210.121 693.371 210.052 692.928 209.913 692.544C209.785 692.149 209.604 691.819 209.369 691.552C209.134 691.285 208.857 691.083 208.537 690.944C208.228 690.805 207.897 690.736 207.545 690.736C207.193 690.736 206.857 690.805 206.537 690.944C206.228 691.083 205.956 691.285 205.721 691.552C205.486 691.819 205.3 692.149 205.161 692.544C205.033 692.928 204.969 693.371 204.969 693.872ZM203.529 693.872C203.529 693.264 203.614 692.699 203.785 692.176C203.956 691.643 204.212 691.184 204.553 690.8C204.894 690.405 205.316 690.096 205.817 689.872C206.318 689.648 206.894 689.536 207.545 689.536C208.206 689.536 208.782 689.648 209.273 689.872C209.774 690.096 210.196 690.405 210.537 690.8C210.878 691.184 211.134 691.643 211.305 692.176C211.476 692.699 211.561 693.264 211.561 693.872C211.561 694.48 211.476 695.045 211.305 695.568C211.134 696.091 210.878 696.549 210.537 696.944C210.196 697.328 209.774 697.632 209.273 697.856C208.782 698.069 208.206 698.176 207.545 698.176C206.894 698.176 206.318 698.069 205.817 697.856C205.316 697.632 204.894 697.328 204.553 696.944C204.212 696.549 203.956 696.091 203.785 695.568C203.614 695.045 203.529 694.48 203.529 693.872ZM213.165 689.728H214.445V691.04H214.477C215.042 690.037 215.938 689.536 217.165 689.536C217.709 689.536 218.162 689.611 218.525 689.76C218.887 689.909 219.181 690.117 219.405 690.384C219.629 690.651 219.783 690.971 219.869 691.344C219.965 691.707 220.013 692.112 220.013 692.56V698H218.653V692.4C218.653 691.888 218.503 691.483 218.205 691.184C217.906 690.885 217.495 690.736 216.973 690.736C216.557 690.736 216.194 690.8 215.885 690.928C215.586 691.056 215.335 691.237 215.133 691.472C214.93 691.707 214.775 691.984 214.669 692.304C214.573 692.613 214.525 692.955 214.525 693.328V698H213.165V689.728Z" fill="black" fill-opacity="0.68"/>
<g clip-path="url(#clip0_61394_167926)">
<g clip-path="url(#clip1_61394_167926)">
<rect width="107" height="48" transform="translate(334.5 668.5)" fill="black" fill-opacity="0.04"/>
</g>
</g>
<defs>
<clipPath id="clip0_61394_167926">
<rect width="107" height="48" fill="white" transform="translate(334.5 668.5)"/>
</clipPath>
<clipPath id="clip1_61394_167926">
<rect width="107" height="48" fill="white" transform="translate(334.5 668.5)"/>
</clipPath>
</defs>
</svg>
