<svg width="600" height="282" viewBox="0 0 600 282" fill="none" xmlns="http://www.w3.org/2000/svg">
<rect width="600" height="282" fill="black" fill-opacity="0.04"/>
<path d="M153.748 86.076H161.252V87.356H155.268V90.988H160.516V92.268H155.268V97.5H153.748V86.076ZM170.04 97.468C169.805 97.6067 169.48 97.676 169.064 97.676C168.712 97.676 168.429 97.58 168.216 97.388C168.013 97.1853 167.912 96.86 167.912 96.412C167.538 96.86 167.101 97.1853 166.6 97.388C166.109 97.58 165.576 97.676 165 97.676C164.626 97.676 164.269 97.6333 163.928 97.548C163.597 97.4627 163.309 97.3293 163.064 97.148C162.818 96.9667 162.621 96.732 162.472 96.444C162.333 96.1453 162.264 95.788 162.264 95.372C162.264 94.9027 162.344 94.5187 162.504 94.22C162.664 93.9213 162.872 93.6813 163.128 93.5C163.394 93.308 163.693 93.164 164.024 93.068C164.365 92.972 164.712 92.892 165.064 92.828C165.437 92.7533 165.789 92.7 166.12 92.668C166.461 92.6253 166.76 92.572 167.016 92.508C167.272 92.4333 167.474 92.332 167.624 92.204C167.773 92.0653 167.848 91.868 167.848 91.612C167.848 91.3133 167.789 91.0733 167.672 90.892C167.565 90.7107 167.421 90.572 167.24 90.476C167.069 90.38 166.872 90.316 166.648 90.284C166.434 90.252 166.221 90.236 166.008 90.236C165.432 90.236 164.952 90.348 164.568 90.572C164.184 90.7853 163.976 91.196 163.944 91.804H162.584C162.605 91.292 162.712 90.86 162.904 90.508C163.096 90.156 163.352 89.8733 163.672 89.66C163.992 89.436 164.354 89.276 164.76 89.18C165.176 89.084 165.618 89.036 166.088 89.036C166.461 89.036 166.829 89.0627 167.192 89.116C167.565 89.1693 167.901 89.2813 168.2 89.452C168.498 89.612 168.738 89.8413 168.92 90.14C169.101 90.4387 169.192 90.828 169.192 91.308V95.564C169.192 95.884 169.208 96.1187 169.24 96.268C169.282 96.4173 169.41 96.492 169.624 96.492C169.741 96.492 169.88 96.4653 170.04 96.412V97.468ZM167.832 93.228C167.661 93.356 167.437 93.452 167.16 93.516C166.882 93.5693 166.589 93.6173 166.28 93.66C165.981 93.692 165.677 93.7347 165.368 93.788C165.058 93.8307 164.781 93.9053 164.536 94.012C164.29 94.1187 164.088 94.2733 163.928 94.476C163.778 94.668 163.704 94.9347 163.704 95.276C163.704 95.5 163.746 95.692 163.832 95.852C163.928 96.0013 164.045 96.124 164.184 96.22C164.333 96.316 164.504 96.3853 164.696 96.428C164.888 96.4707 165.09 96.492 165.304 96.492C165.752 96.492 166.136 96.4333 166.456 96.316C166.776 96.188 167.037 96.0333 167.24 95.852C167.442 95.66 167.592 95.4573 167.688 95.244C167.784 95.02 167.832 94.812 167.832 94.62V93.228ZM171.385 86.076H172.745V97.5H171.385V86.076ZM175.684 94.892C175.695 95.1907 175.764 95.4467 175.892 95.66C176.02 95.8627 176.185 96.028 176.388 96.156C176.601 96.2733 176.836 96.3587 177.092 96.412C177.359 96.4653 177.631 96.492 177.908 96.492C178.121 96.492 178.345 96.476 178.58 96.444C178.815 96.412 179.028 96.3533 179.22 96.268C179.423 96.1827 179.588 96.06 179.716 95.9C179.844 95.7293 179.908 95.516 179.908 95.26C179.908 94.908 179.775 94.6413 179.508 94.46C179.241 94.2787 178.905 94.1347 178.5 94.028C178.105 93.9107 177.673 93.8093 177.204 93.724C176.735 93.628 176.297 93.5 175.892 93.34C175.497 93.1693 175.167 92.9347 174.9 92.636C174.633 92.3373 174.5 91.9213 174.5 91.388C174.5 90.972 174.591 90.6147 174.772 90.316C174.964 90.0173 175.204 89.7773 175.492 89.596C175.791 89.404 176.121 89.2653 176.484 89.18C176.857 89.084 177.225 89.036 177.588 89.036C178.057 89.036 178.489 89.0787 178.884 89.164C179.279 89.2387 179.625 89.3773 179.924 89.58C180.233 89.772 180.479 90.0387 180.66 90.38C180.841 90.7107 180.948 91.1267 180.98 91.628H179.62C179.599 91.3613 179.529 91.1427 179.412 90.972C179.295 90.7907 179.145 90.6467 178.964 90.54C178.783 90.4333 178.58 90.3587 178.356 90.316C178.143 90.2627 177.924 90.236 177.7 90.236C177.497 90.236 177.289 90.252 177.076 90.284C176.873 90.316 176.687 90.3747 176.516 90.46C176.345 90.5347 176.207 90.6413 176.1 90.78C175.993 90.908 175.94 91.0787 175.94 91.292C175.94 91.5267 176.02 91.724 176.18 91.884C176.351 92.0333 176.564 92.1613 176.82 92.268C177.076 92.364 177.364 92.4493 177.684 92.524C178.004 92.588 178.324 92.6573 178.644 92.732C178.985 92.8067 179.316 92.8973 179.636 93.004C179.967 93.1107 180.255 93.2547 180.5 93.436C180.756 93.6067 180.959 93.8253 181.108 94.092C181.268 94.3587 181.348 94.6893 181.348 95.084C181.348 95.5853 181.241 96.0013 181.028 96.332C180.825 96.6627 180.553 96.9293 180.212 97.132C179.881 97.3347 179.503 97.4733 179.076 97.548C178.66 97.6333 178.244 97.676 177.828 97.676C177.369 97.676 176.932 97.628 176.516 97.532C176.1 97.436 175.732 97.2813 175.412 97.068C175.092 96.844 174.836 96.556 174.644 96.204C174.452 95.8413 174.345 95.404 174.324 94.892H175.684ZM188.596 92.572C188.575 92.252 188.5 91.948 188.372 91.66C188.255 91.372 188.089 91.1267 187.876 90.924C187.673 90.7107 187.428 90.5453 187.14 90.428C186.863 90.3 186.553 90.236 186.212 90.236C185.86 90.236 185.54 90.3 185.252 90.428C184.975 90.5453 184.735 90.7107 184.532 90.924C184.329 91.1373 184.169 91.388 184.052 91.676C183.935 91.9533 183.865 92.252 183.844 92.572H188.596ZM189.908 94.876C189.727 95.804 189.327 96.5027 188.708 96.972C188.089 97.4413 187.311 97.676 186.372 97.676C185.711 97.676 185.135 97.5693 184.644 97.356C184.164 97.1427 183.759 96.844 183.428 96.46C183.097 96.076 182.847 95.6173 182.676 95.084C182.516 94.5507 182.425 93.9693 182.404 93.34C182.404 92.7107 182.5 92.1347 182.692 91.612C182.884 91.0893 183.151 90.636 183.492 90.252C183.844 89.868 184.255 89.5693 184.724 89.356C185.204 89.1427 185.727 89.036 186.292 89.036C187.028 89.036 187.636 89.1907 188.116 89.5C188.607 89.7987 188.996 90.1827 189.284 90.652C189.583 91.1213 189.785 91.6333 189.892 92.188C190.009 92.7427 190.057 93.2707 190.036 93.772H183.844C183.833 94.1347 183.876 94.4813 183.972 94.812C184.068 95.132 184.223 95.42 184.436 95.676C184.649 95.9213 184.921 96.1187 185.252 96.268C185.583 96.4173 185.972 96.492 186.42 96.492C186.996 96.492 187.465 96.3587 187.828 96.092C188.201 95.8253 188.447 95.42 188.564 94.876H189.908Z" fill="black" fill-opacity="0.68"/>
<mask id="path-2-inside-1_67775_111076" fill="white">
<path d="M328.5 68H447.5V116H328.5V68Z"/>
</mask>
<path d="M328.5 68V67H327.5V68H328.5ZM447.5 68H448.5V67H447.5V68ZM447.5 116V117H448.5V116H447.5ZM328.5 116H327.5V117H328.5V116ZM328.5 68V69H447.5V68V67H328.5V68ZM447.5 68H446.5V116H447.5H448.5V68H447.5ZM447.5 116V115H328.5V116V117H447.5V116ZM328.5 116H329.5V68H328.5H327.5V116H328.5Z" fill="black" mask="url(#path-2-inside-1_67775_111076)"/>
<path d="M367.821 86.576H370.333V95.888H375.901V98H367.821V86.576ZM377.17 92.272C377.202 91.7387 377.335 91.296 377.57 90.944C377.804 90.592 378.103 90.3093 378.466 90.096C378.828 89.8827 379.234 89.7333 379.682 89.648C380.14 89.552 380.599 89.504 381.058 89.504C381.474 89.504 381.895 89.536 382.322 89.6C382.748 89.6533 383.138 89.7653 383.49 89.936C383.842 90.1067 384.13 90.3467 384.354 90.656C384.578 90.9547 384.69 91.3547 384.69 91.856V96.16C384.69 96.5333 384.711 96.8907 384.754 97.232C384.796 97.5733 384.871 97.8293 384.978 98H382.674C382.631 97.872 382.594 97.744 382.562 97.616C382.54 97.4773 382.524 97.3387 382.514 97.2C382.151 97.5733 381.724 97.8347 381.234 97.984C380.743 98.1333 380.242 98.208 379.73 98.208C379.335 98.208 378.967 98.16 378.626 98.064C378.284 97.968 377.986 97.8187 377.73 97.616C377.474 97.4133 377.271 97.1573 377.122 96.848C376.983 96.5387 376.914 96.1707 376.914 95.744C376.914 95.2747 376.994 94.8907 377.154 94.592C377.324 94.2827 377.538 94.0373 377.794 93.856C378.06 93.6747 378.359 93.5413 378.69 93.456C379.031 93.36 379.372 93.2853 379.714 93.232C380.055 93.1787 380.391 93.136 380.722 93.104C381.052 93.072 381.346 93.024 381.602 92.96C381.858 92.896 382.06 92.8053 382.21 92.688C382.359 92.56 382.428 92.3787 382.418 92.144C382.418 91.8987 382.375 91.7067 382.29 91.568C382.215 91.4187 382.108 91.3067 381.97 91.232C381.842 91.1467 381.687 91.0933 381.506 91.072C381.335 91.04 381.148 91.024 380.946 91.024C380.498 91.024 380.146 91.12 379.89 91.312C379.634 91.504 379.484 91.824 379.442 92.272H377.17ZM382.418 93.952C382.322 94.0373 382.199 94.1067 382.05 94.16C381.911 94.2027 381.756 94.24 381.586 94.272C381.426 94.304 381.255 94.3307 381.074 94.352C380.892 94.3733 380.711 94.4 380.53 94.432C380.359 94.464 380.188 94.5067 380.018 94.56C379.858 94.6133 379.714 94.688 379.586 94.784C379.468 94.8693 379.372 94.9813 379.298 95.12C379.223 95.2587 379.186 95.4347 379.186 95.648C379.186 95.8507 379.223 96.0213 379.298 96.16C379.372 96.2987 379.474 96.4107 379.602 96.496C379.73 96.5707 379.879 96.624 380.05 96.656C380.22 96.688 380.396 96.704 380.578 96.704C381.026 96.704 381.372 96.6293 381.618 96.48C381.863 96.3307 382.044 96.1547 382.162 95.952C382.279 95.7387 382.348 95.5253 382.37 95.312C382.402 95.0987 382.418 94.928 382.418 94.8V93.952ZM392.717 93.872C392.717 93.52 392.68 93.184 392.605 92.864C392.53 92.544 392.413 92.2613 392.253 92.016C392.093 91.7707 391.89 91.5787 391.645 91.44C391.41 91.2907 391.122 91.216 390.781 91.216C390.45 91.216 390.162 91.2907 389.917 91.44C389.672 91.5787 389.469 91.7707 389.309 92.016C389.149 92.2613 389.032 92.544 388.957 92.864C388.882 93.184 388.845 93.52 388.845 93.872C388.845 94.2133 388.882 94.544 388.957 94.864C389.032 95.184 389.149 95.4667 389.309 95.712C389.469 95.9573 389.672 96.1547 389.917 96.304C390.162 96.4427 390.45 96.512 390.781 96.512C391.122 96.512 391.41 96.4427 391.645 96.304C391.89 96.1547 392.093 95.9573 392.253 95.712C392.413 95.4667 392.53 95.184 392.605 94.864C392.68 94.544 392.717 94.2133 392.717 93.872ZM386.653 86.576H388.925V90.736H388.957C389.234 90.3093 389.608 90 390.077 89.808C390.557 89.6053 391.053 89.504 391.565 89.504C391.981 89.504 392.392 89.5893 392.797 89.76C393.202 89.9307 393.565 90.192 393.885 90.544C394.216 90.896 394.482 91.3493 394.685 91.904C394.888 92.448 394.989 93.0987 394.989 93.856C394.989 94.6133 394.888 95.2693 394.685 95.824C394.482 96.368 394.216 96.816 393.885 97.168C393.565 97.52 393.202 97.7813 392.797 97.952C392.392 98.1227 391.981 98.208 391.565 98.208C390.957 98.208 390.413 98.112 389.933 97.92C389.453 97.728 389.09 97.4027 388.845 96.944H388.813V98H386.653V86.576ZM402.202 92.976C402.096 92.4 401.904 91.9627 401.626 91.664C401.36 91.3653 400.949 91.216 400.394 91.216C400.032 91.216 399.728 91.28 399.482 91.408C399.248 91.5253 399.056 91.6747 398.906 91.856C398.768 92.0373 398.666 92.2293 398.602 92.432C398.549 92.6347 398.517 92.816 398.506 92.976H402.202ZM398.506 94.416C398.538 95.152 398.725 95.6853 399.066 96.016C399.408 96.3467 399.898 96.512 400.538 96.512C400.997 96.512 401.392 96.4 401.722 96.176C402.053 95.9413 402.256 95.696 402.33 95.44H404.33C404.01 96.432 403.52 97.1413 402.858 97.568C402.197 97.9947 401.397 98.208 400.458 98.208C399.808 98.208 399.221 98.1067 398.698 97.904C398.176 97.6907 397.733 97.392 397.37 97.008C397.008 96.624 396.725 96.1653 396.522 95.632C396.33 95.0987 396.234 94.512 396.234 93.872C396.234 93.2533 396.336 92.6773 396.538 92.144C396.741 91.6107 397.029 91.152 397.402 90.768C397.776 90.3733 398.218 90.064 398.73 89.84C399.253 89.616 399.829 89.504 400.458 89.504C401.162 89.504 401.776 89.6427 402.298 89.92C402.821 90.1867 403.248 90.5493 403.578 91.008C403.92 91.4667 404.165 91.9893 404.314 92.576C404.464 93.1627 404.517 93.776 404.474 94.416H398.506ZM406.086 86.576H408.358V98H406.086V86.576Z" fill="black"/>
<path d="M156.34 185.356H152.532V184.076H161.668V185.356H157.86V195.5H156.34V185.356ZM161.195 187.228H162.475V188.972H162.507C162.837 188.3 163.243 187.804 163.723 187.484C164.203 187.164 164.811 187.015 165.547 187.036V188.476C165.003 188.476 164.539 188.551 164.155 188.7C163.771 188.849 163.461 189.068 163.227 189.356C162.992 189.644 162.821 189.996 162.715 190.412C162.608 190.817 162.555 191.287 162.555 191.82V195.5H161.195V187.228ZM173.419 195.5H172.139V194.188H172.107C171.819 194.7 171.451 195.079 171.003 195.324C170.555 195.559 170.027 195.676 169.419 195.676C168.875 195.676 168.422 195.607 168.059 195.468C167.696 195.319 167.403 195.111 167.179 194.844C166.955 194.577 166.795 194.263 166.699 193.9C166.614 193.527 166.571 193.116 166.571 192.668V187.228H167.931V192.828C167.931 193.34 168.08 193.745 168.379 194.044C168.678 194.343 169.088 194.492 169.611 194.492C170.027 194.492 170.384 194.428 170.683 194.3C170.992 194.172 171.248 193.991 171.451 193.756C171.654 193.521 171.803 193.249 171.899 192.94C172.006 192.62 172.059 192.273 172.059 191.9V187.228H173.419V195.5ZM181.206 190.572C181.184 190.252 181.11 189.948 180.982 189.66C180.864 189.372 180.699 189.127 180.486 188.924C180.283 188.711 180.038 188.545 179.75 188.428C179.472 188.3 179.163 188.236 178.822 188.236C178.47 188.236 178.15 188.3 177.862 188.428C177.584 188.545 177.344 188.711 177.142 188.924C176.939 189.137 176.779 189.388 176.662 189.676C176.544 189.953 176.475 190.252 176.454 190.572H181.206ZM182.517 192.876C182.336 193.804 181.936 194.503 181.318 194.972C180.699 195.441 179.92 195.676 178.982 195.676C178.32 195.676 177.744 195.569 177.254 195.356C176.774 195.143 176.368 194.844 176.038 194.46C175.707 194.076 175.456 193.617 175.286 193.084C175.126 192.551 175.035 191.969 175.014 191.34C175.014 190.711 175.11 190.135 175.302 189.612C175.494 189.089 175.76 188.636 176.102 188.252C176.454 187.868 176.864 187.569 177.334 187.356C177.814 187.143 178.336 187.036 178.902 187.036C179.638 187.036 180.246 187.191 180.726 187.5C181.216 187.799 181.606 188.183 181.894 188.652C182.192 189.121 182.395 189.633 182.502 190.188C182.619 190.743 182.667 191.271 182.646 191.772H176.454C176.443 192.135 176.486 192.481 176.582 192.812C176.678 193.132 176.832 193.42 177.046 193.676C177.259 193.921 177.531 194.119 177.862 194.268C178.192 194.417 178.582 194.492 179.03 194.492C179.606 194.492 180.075 194.359 180.438 194.092C180.811 193.825 181.056 193.42 181.174 192.876H182.517Z" fill="black" fill-opacity="0.68"/>
<mask id="path-6-inside-2_67775_111076" fill="white">
<path d="M328.5 174C328.5 169.582 332.082 166 336.5 166H439.5C443.918 166 447.5 169.582 447.5 174V206C447.5 210.418 443.918 214 439.5 214H336.5C332.082 214 328.5 210.418 328.5 206V174Z"/>
</mask>
<path d="M336.5 166V167H439.5V166V165H336.5V166ZM447.5 174H446.5V206H447.5H448.5V174H447.5ZM439.5 214V213H336.5V214V215H439.5V214ZM328.5 206H329.5V174H328.5H327.5V206H328.5ZM336.5 214V213C332.634 213 329.5 209.866 329.5 206H328.5H327.5C327.5 210.971 331.529 215 336.5 215V214ZM447.5 206H446.5C446.5 209.866 443.366 213 439.5 213V214V215C444.471 215 448.5 210.971 448.5 206H447.5ZM439.5 166V167C443.366 167 446.5 170.134 446.5 174H447.5H448.5C448.5 169.029 444.471 165 439.5 165V166ZM336.5 166V165C331.529 165 327.5 169.029 327.5 174H328.5H329.5C329.5 170.134 332.634 167 336.5 167V166Z" fill="black" mask="url(#path-6-inside-2_67775_111076)"/>
<path fill-rule="evenodd" clip-rule="evenodd" d="M363.833 189.368L358.5 195.205L353.167 189.368L353.164 189.365C352.131 188.232 352.223 186.487 353.37 185.466C354.475 184.483 356.165 184.527 357.216 185.565C357.219 185.568 357.221 185.571 357.224 185.574L358.04 186.34L358.5 186.777L358.96 186.34L359.776 185.574C359.778 185.571 359.781 185.568 359.784 185.565C360.307 185.046 361.018 184.755 361.76 184.757C363.303 184.757 364.554 185.993 364.554 187.517C364.554 188.2 364.298 188.858 363.836 189.365L363.833 189.368ZM365.053 184.264C363.245 182.478 360.321 182.468 358.5 184.232C356.679 182.468 353.755 182.478 351.947 184.264C350.159 186.032 350.129 188.88 351.86 190.682L358.5 197.917L365.14 190.682C366.871 188.88 366.842 186.032 365.053 184.264Z" fill="black"/>
<path d="M377.821 184.576H380.333V193.888H385.901V196H377.821V184.576ZM387.17 190.272C387.202 189.739 387.335 189.296 387.57 188.944C387.804 188.592 388.103 188.309 388.466 188.096C388.828 187.883 389.234 187.733 389.682 187.648C390.14 187.552 390.599 187.504 391.058 187.504C391.474 187.504 391.895 187.536 392.322 187.6C392.748 187.653 393.138 187.765 393.49 187.936C393.842 188.107 394.13 188.347 394.354 188.656C394.578 188.955 394.69 189.355 394.69 189.856V194.16C394.69 194.533 394.711 194.891 394.754 195.232C394.796 195.573 394.871 195.829 394.978 196H392.674C392.631 195.872 392.594 195.744 392.562 195.616C392.54 195.477 392.524 195.339 392.514 195.2C392.151 195.573 391.724 195.835 391.234 195.984C390.743 196.133 390.242 196.208 389.73 196.208C389.335 196.208 388.967 196.16 388.626 196.064C388.284 195.968 387.986 195.819 387.73 195.616C387.474 195.413 387.271 195.157 387.122 194.848C386.983 194.539 386.914 194.171 386.914 193.744C386.914 193.275 386.994 192.891 387.154 192.592C387.324 192.283 387.538 192.037 387.794 191.856C388.06 191.675 388.359 191.541 388.69 191.456C389.031 191.36 389.372 191.285 389.714 191.232C390.055 191.179 390.391 191.136 390.722 191.104C391.052 191.072 391.346 191.024 391.602 190.96C391.858 190.896 392.06 190.805 392.21 190.688C392.359 190.56 392.428 190.379 392.418 190.144C392.418 189.899 392.375 189.707 392.29 189.568C392.215 189.419 392.108 189.307 391.97 189.232C391.842 189.147 391.687 189.093 391.506 189.072C391.335 189.04 391.148 189.024 390.946 189.024C390.498 189.024 390.146 189.12 389.89 189.312C389.634 189.504 389.484 189.824 389.442 190.272H387.17ZM392.418 191.952C392.322 192.037 392.199 192.107 392.05 192.16C391.911 192.203 391.756 192.24 391.586 192.272C391.426 192.304 391.255 192.331 391.074 192.352C390.892 192.373 390.711 192.4 390.53 192.432C390.359 192.464 390.188 192.507 390.018 192.56C389.858 192.613 389.714 192.688 389.586 192.784C389.468 192.869 389.372 192.981 389.298 193.12C389.223 193.259 389.186 193.435 389.186 193.648C389.186 193.851 389.223 194.021 389.298 194.16C389.372 194.299 389.474 194.411 389.602 194.496C389.73 194.571 389.879 194.624 390.05 194.656C390.22 194.688 390.396 194.704 390.578 194.704C391.026 194.704 391.372 194.629 391.618 194.48C391.863 194.331 392.044 194.155 392.162 193.952C392.279 193.739 392.348 193.525 392.37 193.312C392.402 193.099 392.418 192.928 392.418 192.8V191.952ZM402.717 191.872C402.717 191.52 402.68 191.184 402.605 190.864C402.53 190.544 402.413 190.261 402.253 190.016C402.093 189.771 401.89 189.579 401.645 189.44C401.41 189.291 401.122 189.216 400.781 189.216C400.45 189.216 400.162 189.291 399.917 189.44C399.672 189.579 399.469 189.771 399.309 190.016C399.149 190.261 399.032 190.544 398.957 190.864C398.882 191.184 398.845 191.52 398.845 191.872C398.845 192.213 398.882 192.544 398.957 192.864C399.032 193.184 399.149 193.467 399.309 193.712C399.469 193.957 399.672 194.155 399.917 194.304C400.162 194.443 400.45 194.512 400.781 194.512C401.122 194.512 401.41 194.443 401.645 194.304C401.89 194.155 402.093 193.957 402.253 193.712C402.413 193.467 402.53 193.184 402.605 192.864C402.68 192.544 402.717 192.213 402.717 191.872ZM396.653 184.576H398.925V188.736H398.957C399.234 188.309 399.608 188 400.077 187.808C400.557 187.605 401.053 187.504 401.565 187.504C401.981 187.504 402.392 187.589 402.797 187.76C403.202 187.931 403.565 188.192 403.885 188.544C404.216 188.896 404.482 189.349 404.685 189.904C404.888 190.448 404.989 191.099 404.989 191.856C404.989 192.613 404.888 193.269 404.685 193.824C404.482 194.368 404.216 194.816 403.885 195.168C403.565 195.52 403.202 195.781 402.797 195.952C402.392 196.123 401.981 196.208 401.565 196.208C400.957 196.208 400.413 196.112 399.933 195.92C399.453 195.728 399.09 195.403 398.845 194.944H398.813V196H396.653V184.576ZM412.202 190.976C412.096 190.4 411.904 189.963 411.626 189.664C411.36 189.365 410.949 189.216 410.394 189.216C410.032 189.216 409.728 189.28 409.482 189.408C409.248 189.525 409.056 189.675 408.906 189.856C408.768 190.037 408.666 190.229 408.602 190.432C408.549 190.635 408.517 190.816 408.506 190.976H412.202ZM408.506 192.416C408.538 193.152 408.725 193.685 409.066 194.016C409.408 194.347 409.898 194.512 410.538 194.512C410.997 194.512 411.392 194.4 411.722 194.176C412.053 193.941 412.256 193.696 412.33 193.44H414.33C414.01 194.432 413.52 195.141 412.858 195.568C412.197 195.995 411.397 196.208 410.458 196.208C409.808 196.208 409.221 196.107 408.698 195.904C408.176 195.691 407.733 195.392 407.37 195.008C407.008 194.624 406.725 194.165 406.522 193.632C406.33 193.099 406.234 192.512 406.234 191.872C406.234 191.253 406.336 190.677 406.538 190.144C406.741 189.611 407.029 189.152 407.402 188.768C407.776 188.373 408.218 188.064 408.73 187.84C409.253 187.616 409.829 187.504 410.458 187.504C411.162 187.504 411.776 187.643 412.298 187.92C412.821 188.187 413.248 188.549 413.578 189.008C413.92 189.467 414.165 189.989 414.314 190.576C414.464 191.163 414.517 191.776 414.474 192.416H408.506ZM416.086 184.576H418.358V196H416.086V184.576Z" fill="black"/>
</svg>
