<svg width="600" height="711" viewBox="0 0 600 711" fill="none" xmlns="http://www.w3.org/2000/svg">
<rect width="600" height="711" fill="black" fill-opacity="0.04"/>
<path d="M161.268 163.72H163.796C163.967 163.72 164.18 163.709 164.436 163.688C164.692 163.656 164.964 163.592 165.252 163.496C165.54 163.389 165.823 163.24 166.1 163.048C166.388 162.856 166.644 162.595 166.868 162.264C167.092 161.933 167.273 161.523 167.412 161.032C167.561 160.531 167.636 159.928 167.636 159.224C167.636 158.541 167.567 157.933 167.428 157.4C167.3 156.856 167.081 156.397 166.772 156.024C166.473 155.64 166.084 155.352 165.604 155.16C165.124 154.957 164.532 154.856 163.828 154.856H161.268V163.72ZM159.748 153.576H163.668C165.428 153.576 166.783 154.024 167.732 154.92C168.681 155.816 169.156 157.181 169.156 159.016C169.156 159.976 169.049 160.829 168.836 161.576C168.623 162.312 168.292 162.936 167.844 163.448C167.396 163.949 166.825 164.333 166.132 164.6C165.439 164.867 164.617 165 163.668 165H159.748V153.576ZM176.534 160.072C176.512 159.752 176.438 159.448 176.31 159.16C176.192 158.872 176.027 158.627 175.814 158.424C175.611 158.211 175.366 158.045 175.078 157.928C174.8 157.8 174.491 157.736 174.15 157.736C173.798 157.736 173.478 157.8 173.19 157.928C172.912 158.045 172.672 158.211 172.47 158.424C172.267 158.637 172.107 158.888 171.99 159.176C171.872 159.453 171.803 159.752 171.782 160.072H176.534ZM177.846 162.376C177.664 163.304 177.264 164.003 176.646 164.472C176.027 164.941 175.248 165.176 174.31 165.176C173.648 165.176 173.072 165.069 172.582 164.856C172.102 164.643 171.696 164.344 171.366 163.96C171.035 163.576 170.784 163.117 170.614 162.584C170.454 162.051 170.363 161.469 170.342 160.84C170.342 160.211 170.438 159.635 170.63 159.112C170.822 158.589 171.088 158.136 171.43 157.752C171.782 157.368 172.192 157.069 172.662 156.856C173.142 156.643 173.664 156.536 174.23 156.536C174.966 156.536 175.574 156.691 176.054 157C176.544 157.299 176.934 157.683 177.222 158.152C177.52 158.621 177.723 159.133 177.83 159.688C177.947 160.243 177.995 160.771 177.974 161.272H171.782C171.771 161.635 171.814 161.981 171.91 162.312C172.006 162.632 172.16 162.92 172.374 163.176C172.587 163.421 172.859 163.619 173.19 163.768C173.52 163.917 173.91 163.992 174.358 163.992C174.934 163.992 175.403 163.859 175.766 163.592C176.139 163.325 176.384 162.92 176.502 162.376H177.846ZM179.943 157.928H178.551V156.728H179.943V155.496C179.943 154.824 180.135 154.317 180.519 153.976C180.914 153.624 181.485 153.448 182.231 153.448C182.359 153.448 182.503 153.459 182.663 153.48C182.834 153.501 182.983 153.533 183.111 153.576V154.76C182.994 154.717 182.866 154.691 182.727 154.68C182.589 154.659 182.461 154.648 182.343 154.648C182.013 154.648 181.757 154.712 181.575 154.84C181.394 154.968 181.303 155.213 181.303 155.576V156.728H182.903V157.928H181.303V165H179.943V157.928ZM191.446 164.968C191.211 165.107 190.886 165.176 190.47 165.176C190.118 165.176 189.835 165.08 189.622 164.888C189.419 164.685 189.318 164.36 189.318 163.912C188.944 164.36 188.507 164.685 188.006 164.888C187.515 165.08 186.982 165.176 186.406 165.176C186.032 165.176 185.675 165.133 185.334 165.048C185.003 164.963 184.715 164.829 184.47 164.648C184.224 164.467 184.027 164.232 183.878 163.944C183.739 163.645 183.67 163.288 183.67 162.872C183.67 162.403 183.75 162.019 183.91 161.72C184.07 161.421 184.278 161.181 184.534 161C184.8 160.808 185.099 160.664 185.43 160.568C185.771 160.472 186.118 160.392 186.47 160.328C186.843 160.253 187.195 160.2 187.526 160.168C187.867 160.125 188.166 160.072 188.422 160.008C188.678 159.933 188.88 159.832 189.03 159.704C189.179 159.565 189.254 159.368 189.254 159.112C189.254 158.813 189.195 158.573 189.078 158.392C188.971 158.211 188.827 158.072 188.646 157.976C188.475 157.88 188.278 157.816 188.054 157.784C187.84 157.752 187.627 157.736 187.414 157.736C186.838 157.736 186.358 157.848 185.974 158.072C185.59 158.285 185.382 158.696 185.35 159.304H183.99C184.011 158.792 184.118 158.36 184.31 158.008C184.502 157.656 184.758 157.373 185.078 157.16C185.398 156.936 185.76 156.776 186.166 156.68C186.582 156.584 187.024 156.536 187.494 156.536C187.867 156.536 188.235 156.563 188.598 156.616C188.971 156.669 189.307 156.781 189.606 156.952C189.904 157.112 190.144 157.341 190.326 157.64C190.507 157.939 190.598 158.328 190.598 158.808V163.064C190.598 163.384 190.614 163.619 190.646 163.768C190.688 163.917 190.816 163.992 191.03 163.992C191.147 163.992 191.286 163.965 191.446 163.912V164.968ZM189.238 160.728C189.067 160.856 188.843 160.952 188.566 161.016C188.288 161.069 187.995 161.117 187.686 161.16C187.387 161.192 187.083 161.235 186.774 161.288C186.464 161.331 186.187 161.405 185.942 161.512C185.696 161.619 185.494 161.773 185.334 161.976C185.184 162.168 185.11 162.435 185.11 162.776C185.11 163 185.152 163.192 185.238 163.352C185.334 163.501 185.451 163.624 185.59 163.72C185.739 163.816 185.91 163.885 186.102 163.928C186.294 163.971 186.496 163.992 186.71 163.992C187.158 163.992 187.542 163.933 187.862 163.816C188.182 163.688 188.443 163.533 188.646 163.352C188.848 163.16 188.998 162.957 189.094 162.744C189.19 162.52 189.238 162.312 189.238 162.12V160.728ZM199.56 165H198.28V163.688H198.248C197.96 164.2 197.592 164.579 197.144 164.824C196.696 165.059 196.168 165.176 195.56 165.176C195.016 165.176 194.562 165.107 194.2 164.968C193.837 164.819 193.544 164.611 193.32 164.344C193.096 164.077 192.936 163.763 192.84 163.4C192.754 163.027 192.712 162.616 192.712 162.168V156.728H194.072V162.328C194.072 162.84 194.221 163.245 194.52 163.544C194.818 163.843 195.229 163.992 195.752 163.992C196.168 163.992 196.525 163.928 196.824 163.8C197.133 163.672 197.389 163.491 197.592 163.256C197.794 163.021 197.944 162.749 198.04 162.44C198.146 162.12 198.2 161.773 198.2 161.4V156.728H199.56V165ZM201.682 153.576H203.042V165H201.682V153.576ZM207.037 156.728H208.685V157.928H207.037V163.064C207.037 163.224 207.048 163.352 207.069 163.448C207.101 163.544 207.154 163.619 207.229 163.672C207.304 163.725 207.405 163.763 207.533 163.784C207.672 163.795 207.848 163.8 208.061 163.8H208.685V165H207.645C207.293 165 206.989 164.979 206.733 164.936C206.488 164.883 206.285 164.792 206.125 164.664C205.976 164.536 205.864 164.355 205.789 164.12C205.714 163.885 205.677 163.576 205.677 163.192V157.928H204.269V156.728H205.677V154.248H207.037V156.728Z" fill="black" fill-opacity="0.68"/>
<mask id="path-2-inside-1_61665_5109" fill="white">
<path d="M334.5 135.5H441.5V183.5H334.5V135.5Z"/>
</mask>
<path d="M334.5 135.5V134.5H333.5V135.5H334.5ZM441.5 135.5H442.5V134.5H441.5V135.5ZM441.5 183.5V184.5H442.5V183.5H441.5ZM334.5 183.5H333.5V184.5H334.5V183.5ZM334.5 135.5V136.5H441.5V135.5V134.5H334.5V135.5ZM441.5 135.5H440.5V183.5H441.5H442.5V135.5H441.5ZM441.5 183.5V182.5H334.5V183.5V184.5H441.5V183.5ZM334.5 183.5H335.5V135.5H334.5H333.5V183.5H334.5Z" fill="black" mask="url(#path-2-inside-1_61665_5109)"/>
<path d="M367.821 154.076H370.333V163.388H375.901V165.5H367.821V154.076ZM377.17 159.772C377.202 159.239 377.335 158.796 377.57 158.444C377.804 158.092 378.103 157.809 378.466 157.596C378.828 157.383 379.234 157.233 379.682 157.148C380.14 157.052 380.599 157.004 381.058 157.004C381.474 157.004 381.895 157.036 382.322 157.1C382.748 157.153 383.138 157.265 383.49 157.436C383.842 157.607 384.13 157.847 384.354 158.156C384.578 158.455 384.69 158.855 384.69 159.356V163.66C384.69 164.033 384.711 164.391 384.754 164.732C384.796 165.073 384.871 165.329 384.978 165.5H382.674C382.631 165.372 382.594 165.244 382.562 165.116C382.54 164.977 382.524 164.839 382.514 164.7C382.151 165.073 381.724 165.335 381.234 165.484C380.743 165.633 380.242 165.708 379.73 165.708C379.335 165.708 378.967 165.66 378.626 165.564C378.284 165.468 377.986 165.319 377.73 165.116C377.474 164.913 377.271 164.657 377.122 164.348C376.983 164.039 376.914 163.671 376.914 163.244C376.914 162.775 376.994 162.391 377.154 162.092C377.324 161.783 377.538 161.537 377.794 161.356C378.06 161.175 378.359 161.041 378.69 160.956C379.031 160.86 379.372 160.785 379.714 160.732C380.055 160.679 380.391 160.636 380.722 160.604C381.052 160.572 381.346 160.524 381.602 160.46C381.858 160.396 382.06 160.305 382.21 160.188C382.359 160.06 382.428 159.879 382.418 159.644C382.418 159.399 382.375 159.207 382.29 159.068C382.215 158.919 382.108 158.807 381.97 158.732C381.842 158.647 381.687 158.593 381.506 158.572C381.335 158.54 381.148 158.524 380.946 158.524C380.498 158.524 380.146 158.62 379.89 158.812C379.634 159.004 379.484 159.324 379.442 159.772H377.17ZM382.418 161.452C382.322 161.537 382.199 161.607 382.05 161.66C381.911 161.703 381.756 161.74 381.586 161.772C381.426 161.804 381.255 161.831 381.074 161.852C380.892 161.873 380.711 161.9 380.53 161.932C380.359 161.964 380.188 162.007 380.018 162.06C379.858 162.113 379.714 162.188 379.586 162.284C379.468 162.369 379.372 162.481 379.298 162.62C379.223 162.759 379.186 162.935 379.186 163.148C379.186 163.351 379.223 163.521 379.298 163.66C379.372 163.799 379.474 163.911 379.602 163.996C379.73 164.071 379.879 164.124 380.05 164.156C380.22 164.188 380.396 164.204 380.578 164.204C381.026 164.204 381.372 164.129 381.618 163.98C381.863 163.831 382.044 163.655 382.162 163.452C382.279 163.239 382.348 163.025 382.37 162.812C382.402 162.599 382.418 162.428 382.418 162.3V161.452ZM392.717 161.372C392.717 161.02 392.68 160.684 392.605 160.364C392.53 160.044 392.413 159.761 392.253 159.516C392.093 159.271 391.89 159.079 391.645 158.94C391.41 158.791 391.122 158.716 390.781 158.716C390.45 158.716 390.162 158.791 389.917 158.94C389.672 159.079 389.469 159.271 389.309 159.516C389.149 159.761 389.032 160.044 388.957 160.364C388.882 160.684 388.845 161.02 388.845 161.372C388.845 161.713 388.882 162.044 388.957 162.364C389.032 162.684 389.149 162.967 389.309 163.212C389.469 163.457 389.672 163.655 389.917 163.804C390.162 163.943 390.45 164.012 390.781 164.012C391.122 164.012 391.41 163.943 391.645 163.804C391.89 163.655 392.093 163.457 392.253 163.212C392.413 162.967 392.53 162.684 392.605 162.364C392.68 162.044 392.717 161.713 392.717 161.372ZM386.653 154.076H388.925V158.236H388.957C389.234 157.809 389.608 157.5 390.077 157.308C390.557 157.105 391.053 157.004 391.565 157.004C391.981 157.004 392.392 157.089 392.797 157.26C393.202 157.431 393.565 157.692 393.885 158.044C394.216 158.396 394.482 158.849 394.685 159.404C394.888 159.948 394.989 160.599 394.989 161.356C394.989 162.113 394.888 162.769 394.685 163.324C394.482 163.868 394.216 164.316 393.885 164.668C393.565 165.02 393.202 165.281 392.797 165.452C392.392 165.623 391.981 165.708 391.565 165.708C390.957 165.708 390.413 165.612 389.933 165.42C389.453 165.228 389.09 164.903 388.845 164.444H388.813V165.5H386.653V154.076ZM402.202 160.476C402.096 159.9 401.904 159.463 401.626 159.164C401.36 158.865 400.949 158.716 400.394 158.716C400.032 158.716 399.728 158.78 399.482 158.908C399.248 159.025 399.056 159.175 398.906 159.356C398.768 159.537 398.666 159.729 398.602 159.932C398.549 160.135 398.517 160.316 398.506 160.476H402.202ZM398.506 161.916C398.538 162.652 398.725 163.185 399.066 163.516C399.408 163.847 399.898 164.012 400.538 164.012C400.997 164.012 401.392 163.9 401.722 163.676C402.053 163.441 402.256 163.196 402.33 162.94H404.33C404.01 163.932 403.52 164.641 402.858 165.068C402.197 165.495 401.397 165.708 400.458 165.708C399.808 165.708 399.221 165.607 398.698 165.404C398.176 165.191 397.733 164.892 397.37 164.508C397.008 164.124 396.725 163.665 396.522 163.132C396.33 162.599 396.234 162.012 396.234 161.372C396.234 160.753 396.336 160.177 396.538 159.644C396.741 159.111 397.029 158.652 397.402 158.268C397.776 157.873 398.218 157.564 398.73 157.34C399.253 157.116 399.829 157.004 400.458 157.004C401.162 157.004 401.776 157.143 402.298 157.42C402.821 157.687 403.248 158.049 403.578 158.508C403.92 158.967 404.165 159.489 404.314 160.076C404.464 160.663 404.517 161.276 404.474 161.916H398.506ZM406.086 154.076H408.358V165.5H406.086V154.076Z" fill="black"/>
<path d="M166.356 254.92C166.271 254.099 165.972 253.507 165.46 253.144C164.959 252.771 164.313 252.584 163.524 252.584C163.204 252.584 162.889 252.616 162.58 252.68C162.271 252.744 161.993 252.851 161.748 253C161.513 253.149 161.321 253.352 161.172 253.608C161.033 253.853 160.964 254.163 160.964 254.536C160.964 254.888 161.065 255.176 161.268 255.4C161.481 255.613 161.759 255.789 162.1 255.928C162.452 256.067 162.847 256.184 163.284 256.28C163.721 256.365 164.164 256.461 164.612 256.568C165.071 256.675 165.519 256.803 165.956 256.952C166.393 257.091 166.783 257.283 167.124 257.528C167.476 257.773 167.753 258.083 167.956 258.456C168.169 258.829 168.276 259.299 168.276 259.864C168.276 260.472 168.137 260.995 167.86 261.432C167.593 261.859 167.247 262.211 166.82 262.488C166.393 262.755 165.913 262.947 165.38 263.064C164.857 263.192 164.335 263.256 163.812 263.256C163.172 263.256 162.564 263.176 161.988 263.016C161.423 262.856 160.921 262.616 160.484 262.296C160.057 261.965 159.716 261.549 159.46 261.048C159.215 260.536 159.092 259.933 159.092 259.24H160.532C160.532 259.72 160.623 260.136 160.804 260.488C160.996 260.829 161.241 261.112 161.54 261.336C161.849 261.56 162.207 261.725 162.612 261.832C163.017 261.939 163.433 261.992 163.86 261.992C164.201 261.992 164.543 261.96 164.884 261.896C165.236 261.832 165.551 261.725 165.828 261.576C166.105 261.416 166.329 261.203 166.5 260.936C166.671 260.669 166.756 260.328 166.756 259.912C166.756 259.517 166.649 259.197 166.436 258.952C166.233 258.707 165.956 258.509 165.604 258.36C165.263 258.2 164.873 258.072 164.436 257.976C163.999 257.88 163.551 257.784 163.092 257.688C162.644 257.581 162.201 257.464 161.764 257.336C161.327 257.197 160.932 257.021 160.58 256.808C160.239 256.584 159.961 256.301 159.748 255.96C159.545 255.608 159.444 255.171 159.444 254.648C159.444 254.072 159.561 253.576 159.796 253.16C160.031 252.733 160.34 252.387 160.724 252.12C161.119 251.843 161.561 251.64 162.052 251.512C162.553 251.373 163.065 251.304 163.588 251.304C164.175 251.304 164.719 251.373 165.22 251.512C165.721 251.651 166.159 251.869 166.532 252.168C166.916 252.467 167.215 252.845 167.428 253.304C167.652 253.752 167.775 254.291 167.796 254.92H166.356ZM171.787 254.728H173.435V255.928H171.787V261.064C171.787 261.224 171.798 261.352 171.819 261.448C171.851 261.544 171.904 261.619 171.979 261.672C172.054 261.725 172.155 261.763 172.283 261.784C172.422 261.795 172.598 261.8 172.811 261.8H173.435V263H172.395C172.043 263 171.739 262.979 171.483 262.936C171.238 262.883 171.035 262.792 170.875 262.664C170.726 262.536 170.614 262.355 170.539 262.12C170.464 261.885 170.427 261.576 170.427 261.192V255.928H169.019V254.728H170.427V252.248H171.787V254.728ZM174.898 254.728H176.178V256.472H176.21C176.541 255.8 176.946 255.304 177.426 254.984C177.906 254.664 178.514 254.515 179.25 254.536V255.976C178.706 255.976 178.242 256.051 177.858 256.2C177.474 256.349 177.165 256.568 176.93 256.856C176.695 257.144 176.525 257.496 176.418 257.912C176.311 258.317 176.258 258.787 176.258 259.32V263H174.898V254.728ZM180.985 258.872C180.985 259.373 181.049 259.821 181.177 260.216C181.315 260.6 181.502 260.925 181.737 261.192C181.971 261.448 182.243 261.645 182.553 261.784C182.873 261.923 183.209 261.992 183.561 261.992C183.913 261.992 184.243 261.923 184.553 261.784C184.873 261.645 185.15 261.448 185.385 261.192C185.619 260.925 185.801 260.6 185.929 260.216C186.067 259.821 186.137 259.373 186.137 258.872C186.137 258.371 186.067 257.928 185.929 257.544C185.801 257.149 185.619 256.819 185.385 256.552C185.15 256.285 184.873 256.083 184.553 255.944C184.243 255.805 183.913 255.736 183.561 255.736C183.209 255.736 182.873 255.805 182.553 255.944C182.243 256.083 181.971 256.285 181.737 256.552C181.502 256.819 181.315 257.149 181.177 257.544C181.049 257.928 180.985 258.371 180.985 258.872ZM179.545 258.872C179.545 258.264 179.63 257.699 179.801 257.176C179.971 256.643 180.227 256.184 180.569 255.8C180.91 255.405 181.331 255.096 181.833 254.872C182.334 254.648 182.91 254.536 183.561 254.536C184.222 254.536 184.798 254.648 185.289 254.872C185.79 255.096 186.211 255.405 186.553 255.8C186.894 256.184 187.15 256.643 187.321 257.176C187.491 257.699 187.577 258.264 187.577 258.872C187.577 259.48 187.491 260.045 187.321 260.568C187.15 261.091 186.894 261.549 186.553 261.944C186.211 262.328 185.79 262.632 185.289 262.856C184.798 263.069 184.222 263.176 183.561 263.176C182.91 263.176 182.334 263.069 181.833 262.856C181.331 262.632 180.91 262.328 180.569 261.944C180.227 261.549 179.971 261.091 179.801 260.568C179.63 260.045 179.545 259.48 179.545 258.872ZM189.18 254.728H190.46V256.04H190.492C191.058 255.037 191.954 254.536 193.18 254.536C193.724 254.536 194.178 254.611 194.54 254.76C194.903 254.909 195.196 255.117 195.42 255.384C195.644 255.651 195.799 255.971 195.884 256.344C195.98 256.707 196.028 257.112 196.028 257.56V263H194.668V257.4C194.668 256.888 194.519 256.483 194.22 256.184C193.922 255.885 193.511 255.736 192.988 255.736C192.572 255.736 192.21 255.8 191.9 255.928C191.602 256.056 191.351 256.237 191.148 256.472C190.946 256.707 190.791 256.984 190.684 257.304C190.588 257.613 190.54 257.955 190.54 258.328V263H189.18V254.728ZM205.207 262.296C205.207 263.651 204.898 264.664 204.279 265.336C203.66 266.008 202.69 266.344 201.367 266.344C200.983 266.344 200.588 266.301 200.183 266.216C199.788 266.131 199.426 265.992 199.095 265.8C198.775 265.608 198.508 265.357 198.295 265.048C198.082 264.739 197.964 264.36 197.943 263.912H199.303C199.314 264.157 199.388 264.365 199.527 264.536C199.676 264.707 199.852 264.845 200.055 264.952C200.268 265.059 200.498 265.133 200.743 265.176C200.988 265.229 201.223 265.256 201.447 265.256C201.895 265.256 202.274 265.176 202.583 265.016C202.892 264.867 203.148 264.653 203.351 264.376C203.554 264.109 203.698 263.784 203.783 263.4C203.879 263.016 203.927 262.595 203.927 262.136V261.592H203.895C203.66 262.104 203.303 262.483 202.823 262.728C202.354 262.963 201.852 263.08 201.319 263.08C200.7 263.08 200.162 262.968 199.703 262.744C199.244 262.52 198.86 262.221 198.551 261.848C198.242 261.464 198.007 261.021 197.847 260.52C197.698 260.008 197.623 259.469 197.623 258.904C197.623 258.413 197.687 257.912 197.815 257.4C197.943 256.877 198.156 256.408 198.455 255.992C198.754 255.565 199.148 255.219 199.639 254.952C200.13 254.675 200.732 254.536 201.447 254.536C201.97 254.536 202.45 254.653 202.887 254.888C203.324 255.112 203.666 255.453 203.911 255.912H203.927V254.728H205.207V262.296ZM201.399 261.896C201.847 261.896 202.226 261.805 202.535 261.624C202.855 261.432 203.111 261.187 203.303 260.888C203.495 260.579 203.634 260.232 203.719 259.848C203.815 259.464 203.863 259.08 203.863 258.696C203.863 258.333 203.82 257.976 203.735 257.624C203.65 257.272 203.511 256.957 203.319 256.68C203.138 256.392 202.898 256.163 202.599 255.992C202.3 255.821 201.938 255.736 201.511 255.736C201.074 255.736 200.7 255.821 200.391 255.992C200.082 256.152 199.826 256.371 199.623 256.648C199.431 256.925 199.287 257.245 199.191 257.608C199.106 257.971 199.063 258.349 199.063 258.744C199.063 259.117 199.1 259.491 199.175 259.864C199.25 260.237 199.378 260.579 199.559 260.888C199.74 261.187 199.98 261.432 200.279 261.624C200.578 261.805 200.951 261.896 201.399 261.896Z" fill="black" fill-opacity="0.68"/>
<rect width="107" height="48" transform="translate(334.5 233.5)" fill="black"/>
<path d="M367.821 252.076H370.333V261.388H375.901V263.5H367.821V252.076ZM377.17 257.772C377.202 257.239 377.335 256.796 377.57 256.444C377.804 256.092 378.103 255.809 378.466 255.596C378.828 255.383 379.234 255.233 379.682 255.148C380.14 255.052 380.599 255.004 381.058 255.004C381.474 255.004 381.895 255.036 382.322 255.1C382.748 255.153 383.138 255.265 383.49 255.436C383.842 255.607 384.13 255.847 384.354 256.156C384.578 256.455 384.69 256.855 384.69 257.356V261.66C384.69 262.033 384.711 262.391 384.754 262.732C384.796 263.073 384.871 263.329 384.978 263.5H382.674C382.631 263.372 382.594 263.244 382.562 263.116C382.54 262.977 382.524 262.839 382.514 262.7C382.151 263.073 381.724 263.335 381.234 263.484C380.743 263.633 380.242 263.708 379.73 263.708C379.335 263.708 378.967 263.66 378.626 263.564C378.284 263.468 377.986 263.319 377.73 263.116C377.474 262.913 377.271 262.657 377.122 262.348C376.983 262.039 376.914 261.671 376.914 261.244C376.914 260.775 376.994 260.391 377.154 260.092C377.324 259.783 377.538 259.537 377.794 259.356C378.06 259.175 378.359 259.041 378.69 258.956C379.031 258.86 379.372 258.785 379.714 258.732C380.055 258.679 380.391 258.636 380.722 258.604C381.052 258.572 381.346 258.524 381.602 258.46C381.858 258.396 382.06 258.305 382.21 258.188C382.359 258.06 382.428 257.879 382.418 257.644C382.418 257.399 382.375 257.207 382.29 257.068C382.215 256.919 382.108 256.807 381.97 256.732C381.842 256.647 381.687 256.593 381.506 256.572C381.335 256.54 381.148 256.524 380.946 256.524C380.498 256.524 380.146 256.62 379.89 256.812C379.634 257.004 379.484 257.324 379.442 257.772H377.17ZM382.418 259.452C382.322 259.537 382.199 259.607 382.05 259.66C381.911 259.703 381.756 259.74 381.586 259.772C381.426 259.804 381.255 259.831 381.074 259.852C380.892 259.873 380.711 259.9 380.53 259.932C380.359 259.964 380.188 260.007 380.018 260.06C379.858 260.113 379.714 260.188 379.586 260.284C379.468 260.369 379.372 260.481 379.298 260.62C379.223 260.759 379.186 260.935 379.186 261.148C379.186 261.351 379.223 261.521 379.298 261.66C379.372 261.799 379.474 261.911 379.602 261.996C379.73 262.071 379.879 262.124 380.05 262.156C380.22 262.188 380.396 262.204 380.578 262.204C381.026 262.204 381.372 262.129 381.618 261.98C381.863 261.831 382.044 261.655 382.162 261.452C382.279 261.239 382.348 261.025 382.37 260.812C382.402 260.599 382.418 260.428 382.418 260.3V259.452ZM392.717 259.372C392.717 259.02 392.68 258.684 392.605 258.364C392.53 258.044 392.413 257.761 392.253 257.516C392.093 257.271 391.89 257.079 391.645 256.94C391.41 256.791 391.122 256.716 390.781 256.716C390.45 256.716 390.162 256.791 389.917 256.94C389.672 257.079 389.469 257.271 389.309 257.516C389.149 257.761 389.032 258.044 388.957 258.364C388.882 258.684 388.845 259.02 388.845 259.372C388.845 259.713 388.882 260.044 388.957 260.364C389.032 260.684 389.149 260.967 389.309 261.212C389.469 261.457 389.672 261.655 389.917 261.804C390.162 261.943 390.45 262.012 390.781 262.012C391.122 262.012 391.41 261.943 391.645 261.804C391.89 261.655 392.093 261.457 392.253 261.212C392.413 260.967 392.53 260.684 392.605 260.364C392.68 260.044 392.717 259.713 392.717 259.372ZM386.653 252.076H388.925V256.236H388.957C389.234 255.809 389.608 255.5 390.077 255.308C390.557 255.105 391.053 255.004 391.565 255.004C391.981 255.004 392.392 255.089 392.797 255.26C393.202 255.431 393.565 255.692 393.885 256.044C394.216 256.396 394.482 256.849 394.685 257.404C394.888 257.948 394.989 258.599 394.989 259.356C394.989 260.113 394.888 260.769 394.685 261.324C394.482 261.868 394.216 262.316 393.885 262.668C393.565 263.02 393.202 263.281 392.797 263.452C392.392 263.623 391.981 263.708 391.565 263.708C390.957 263.708 390.413 263.612 389.933 263.42C389.453 263.228 389.09 262.903 388.845 262.444H388.813V263.5H386.653V252.076ZM402.202 258.476C402.096 257.9 401.904 257.463 401.626 257.164C401.36 256.865 400.949 256.716 400.394 256.716C400.032 256.716 399.728 256.78 399.482 256.908C399.248 257.025 399.056 257.175 398.906 257.356C398.768 257.537 398.666 257.729 398.602 257.932C398.549 258.135 398.517 258.316 398.506 258.476H402.202ZM398.506 259.916C398.538 260.652 398.725 261.185 399.066 261.516C399.408 261.847 399.898 262.012 400.538 262.012C400.997 262.012 401.392 261.9 401.722 261.676C402.053 261.441 402.256 261.196 402.33 260.94H404.33C404.01 261.932 403.52 262.641 402.858 263.068C402.197 263.495 401.397 263.708 400.458 263.708C399.808 263.708 399.221 263.607 398.698 263.404C398.176 263.191 397.733 262.892 397.37 262.508C397.008 262.124 396.725 261.665 396.522 261.132C396.33 260.599 396.234 260.012 396.234 259.372C396.234 258.753 396.336 258.177 396.538 257.644C396.741 257.111 397.029 256.652 397.402 256.268C397.776 255.873 398.218 255.564 398.73 255.34C399.253 255.116 399.829 255.004 400.458 255.004C401.162 255.004 401.776 255.143 402.298 255.42C402.821 255.687 403.248 256.049 403.578 256.508C403.92 256.967 404.165 257.489 404.314 258.076C404.464 258.663 404.517 259.276 404.474 259.916H398.506ZM406.086 252.076H408.358V263.5H406.086V252.076Z" fill="white"/>
<path d="M161.268 354.488H164.308C165.172 354.488 165.791 354.339 166.164 354.04C166.548 353.731 166.74 353.272 166.74 352.664C166.74 352.259 166.676 351.939 166.548 351.704C166.42 351.469 166.244 351.288 166.02 351.16C165.796 351.032 165.535 350.952 165.236 350.92C164.948 350.877 164.639 350.856 164.308 350.856H161.268V354.488ZM159.748 349.576H163.892C164.137 349.576 164.399 349.581 164.676 349.592C164.964 349.592 165.247 349.608 165.524 349.64C165.801 349.661 166.057 349.699 166.292 349.752C166.537 349.805 166.745 349.885 166.916 349.992C167.289 350.216 167.604 350.525 167.86 350.92C168.127 351.315 168.26 351.8 168.26 352.376C168.26 352.984 168.111 353.512 167.812 353.96C167.524 354.397 167.108 354.723 166.564 354.936V354.968C167.268 355.117 167.807 355.437 168.18 355.928C168.553 356.419 168.74 357.016 168.74 357.72C168.74 358.136 168.665 358.541 168.516 358.936C168.367 359.331 168.143 359.683 167.844 359.992C167.556 360.291 167.193 360.536 166.756 360.728C166.329 360.909 165.833 361 165.268 361H159.748V349.576ZM161.268 359.72H165.076C165.748 359.72 166.271 359.539 166.644 359.176C167.028 358.813 167.22 358.312 167.22 357.672C167.22 357.299 167.151 356.989 167.012 356.744C166.873 356.499 166.687 356.307 166.452 356.168C166.228 356.019 165.967 355.917 165.668 355.864C165.369 355.8 165.06 355.768 164.74 355.768H161.268V359.72ZM170.429 352.728H171.709V354.472H171.741C172.072 353.8 172.477 353.304 172.957 352.984C173.437 352.664 174.045 352.515 174.781 352.536V353.976C174.237 353.976 173.773 354.051 173.389 354.2C173.005 354.349 172.696 354.568 172.461 354.856C172.226 355.144 172.056 355.496 171.949 355.912C171.842 356.317 171.789 356.787 171.789 357.32V361H170.429V352.728ZM183.133 360.968C182.899 361.107 182.573 361.176 182.157 361.176C181.805 361.176 181.523 361.08 181.309 360.888C181.107 360.685 181.005 360.36 181.005 359.912C180.632 360.36 180.195 360.685 179.693 360.888C179.203 361.08 178.669 361.176 178.093 361.176C177.72 361.176 177.363 361.133 177.021 361.048C176.691 360.963 176.403 360.829 176.157 360.648C175.912 360.467 175.715 360.232 175.565 359.944C175.427 359.645 175.357 359.288 175.357 358.872C175.357 358.403 175.437 358.019 175.597 357.72C175.757 357.421 175.965 357.181 176.221 357C176.488 356.808 176.787 356.664 177.117 356.568C177.459 356.472 177.805 356.392 178.157 356.328C178.531 356.253 178.883 356.2 179.213 356.168C179.555 356.125 179.853 356.072 180.109 356.008C180.365 355.933 180.568 355.832 180.717 355.704C180.867 355.565 180.941 355.368 180.941 355.112C180.941 354.813 180.883 354.573 180.765 354.392C180.659 354.211 180.515 354.072 180.333 353.976C180.163 353.88 179.965 353.816 179.741 353.784C179.528 353.752 179.315 353.736 179.101 353.736C178.525 353.736 178.045 353.848 177.661 354.072C177.277 354.285 177.069 354.696 177.037 355.304H175.677C175.699 354.792 175.805 354.36 175.997 354.008C176.189 353.656 176.445 353.373 176.765 353.16C177.085 352.936 177.448 352.776 177.853 352.68C178.269 352.584 178.712 352.536 179.181 352.536C179.555 352.536 179.923 352.563 180.285 352.616C180.659 352.669 180.995 352.781 181.293 352.952C181.592 353.112 181.832 353.341 182.013 353.64C182.195 353.939 182.285 354.328 182.285 354.808V359.064C182.285 359.384 182.301 359.619 182.333 359.768C182.376 359.917 182.504 359.992 182.717 359.992C182.835 359.992 182.973 359.965 183.133 359.912V360.968ZM180.925 356.728C180.755 356.856 180.531 356.952 180.253 357.016C179.976 357.069 179.683 357.117 179.373 357.16C179.075 357.192 178.771 357.235 178.461 357.288C178.152 357.331 177.875 357.405 177.629 357.512C177.384 357.619 177.181 357.773 177.021 357.976C176.872 358.168 176.797 358.435 176.797 358.776C176.797 359 176.84 359.192 176.925 359.352C177.021 359.501 177.139 359.624 177.277 359.72C177.427 359.816 177.597 359.885 177.789 359.928C177.981 359.971 178.184 359.992 178.397 359.992C178.845 359.992 179.229 359.933 179.549 359.816C179.869 359.688 180.131 359.533 180.333 359.352C180.536 359.16 180.685 358.957 180.781 358.744C180.877 358.52 180.925 358.312 180.925 358.12V356.728ZM184.399 352.728H185.679V354.04H185.711C186.276 353.037 187.172 352.536 188.399 352.536C188.943 352.536 189.396 352.611 189.759 352.76C190.122 352.909 190.415 353.117 190.639 353.384C190.863 353.651 191.018 353.971 191.103 354.344C191.199 354.707 191.247 355.112 191.247 355.56V361H189.887V355.4C189.887 354.888 189.738 354.483 189.439 354.184C189.14 353.885 188.73 353.736 188.207 353.736C187.791 353.736 187.428 353.8 187.119 353.928C186.82 354.056 186.57 354.237 186.367 354.472C186.164 354.707 186.01 354.984 185.903 355.304C185.807 355.613 185.759 355.955 185.759 356.328V361H184.399V352.728ZM194.282 356.936C194.282 357.32 194.33 357.699 194.426 358.072C194.532 358.435 194.687 358.76 194.89 359.048C195.103 359.336 195.37 359.565 195.69 359.736C196.02 359.907 196.404 359.992 196.842 359.992C197.3 359.992 197.69 359.901 198.01 359.72C198.33 359.539 198.591 359.304 198.794 359.016C198.996 358.717 199.14 358.381 199.226 358.008C199.322 357.635 199.37 357.256 199.37 356.872C199.37 356.467 199.322 356.077 199.226 355.704C199.13 355.32 198.975 354.984 198.762 354.696C198.559 354.408 198.292 354.179 197.962 354.008C197.631 353.827 197.231 353.736 196.762 353.736C196.303 353.736 195.914 353.827 195.594 354.008C195.274 354.189 195.018 354.429 194.826 354.728C194.634 355.027 194.495 355.368 194.41 355.752C194.324 356.136 194.282 356.531 194.282 356.936ZM200.682 361H199.322V359.88H199.29C199.066 360.339 198.714 360.669 198.234 360.872C197.754 361.075 197.226 361.176 196.65 361.176C196.01 361.176 195.45 361.059 194.97 360.824C194.5 360.589 194.106 360.275 193.786 359.88C193.476 359.485 193.242 359.027 193.082 358.504C192.922 357.981 192.842 357.427 192.842 356.84C192.842 356.253 192.916 355.699 193.066 355.176C193.226 354.653 193.46 354.2 193.77 353.816C194.09 353.421 194.484 353.112 194.954 352.888C195.434 352.653 195.988 352.536 196.618 352.536C196.831 352.536 197.06 352.557 197.306 352.6C197.551 352.643 197.796 352.717 198.042 352.824C198.287 352.92 198.516 353.053 198.73 353.224C198.954 353.384 199.14 353.587 199.29 353.832H199.322V349.576H200.682V361Z" fill="black" fill-opacity="0.68"/>
<rect width="107" height="48" transform="translate(334.5 331.5)" fill="#FF7900"/>
<path d="M367.821 350.076H370.333V359.388H375.901V361.5H367.821V350.076ZM377.17 355.772C377.202 355.239 377.335 354.796 377.57 354.444C377.804 354.092 378.103 353.809 378.466 353.596C378.828 353.383 379.234 353.233 379.682 353.148C380.14 353.052 380.599 353.004 381.058 353.004C381.474 353.004 381.895 353.036 382.322 353.1C382.748 353.153 383.138 353.265 383.49 353.436C383.842 353.607 384.13 353.847 384.354 354.156C384.578 354.455 384.69 354.855 384.69 355.356V359.66C384.69 360.033 384.711 360.391 384.754 360.732C384.796 361.073 384.871 361.329 384.978 361.5H382.674C382.631 361.372 382.594 361.244 382.562 361.116C382.54 360.977 382.524 360.839 382.514 360.7C382.151 361.073 381.724 361.335 381.234 361.484C380.743 361.633 380.242 361.708 379.73 361.708C379.335 361.708 378.967 361.66 378.626 361.564C378.284 361.468 377.986 361.319 377.73 361.116C377.474 360.913 377.271 360.657 377.122 360.348C376.983 360.039 376.914 359.671 376.914 359.244C376.914 358.775 376.994 358.391 377.154 358.092C377.324 357.783 377.538 357.537 377.794 357.356C378.06 357.175 378.359 357.041 378.69 356.956C379.031 356.86 379.372 356.785 379.714 356.732C380.055 356.679 380.391 356.636 380.722 356.604C381.052 356.572 381.346 356.524 381.602 356.46C381.858 356.396 382.06 356.305 382.21 356.188C382.359 356.06 382.428 355.879 382.418 355.644C382.418 355.399 382.375 355.207 382.29 355.068C382.215 354.919 382.108 354.807 381.97 354.732C381.842 354.647 381.687 354.593 381.506 354.572C381.335 354.54 381.148 354.524 380.946 354.524C380.498 354.524 380.146 354.62 379.89 354.812C379.634 355.004 379.484 355.324 379.442 355.772H377.17ZM382.418 357.452C382.322 357.537 382.199 357.607 382.05 357.66C381.911 357.703 381.756 357.74 381.586 357.772C381.426 357.804 381.255 357.831 381.074 357.852C380.892 357.873 380.711 357.9 380.53 357.932C380.359 357.964 380.188 358.007 380.018 358.06C379.858 358.113 379.714 358.188 379.586 358.284C379.468 358.369 379.372 358.481 379.298 358.62C379.223 358.759 379.186 358.935 379.186 359.148C379.186 359.351 379.223 359.521 379.298 359.66C379.372 359.799 379.474 359.911 379.602 359.996C379.73 360.071 379.879 360.124 380.05 360.156C380.22 360.188 380.396 360.204 380.578 360.204C381.026 360.204 381.372 360.129 381.618 359.98C381.863 359.831 382.044 359.655 382.162 359.452C382.279 359.239 382.348 359.025 382.37 358.812C382.402 358.599 382.418 358.428 382.418 358.3V357.452ZM392.717 357.372C392.717 357.02 392.68 356.684 392.605 356.364C392.53 356.044 392.413 355.761 392.253 355.516C392.093 355.271 391.89 355.079 391.645 354.94C391.41 354.791 391.122 354.716 390.781 354.716C390.45 354.716 390.162 354.791 389.917 354.94C389.672 355.079 389.469 355.271 389.309 355.516C389.149 355.761 389.032 356.044 388.957 356.364C388.882 356.684 388.845 357.02 388.845 357.372C388.845 357.713 388.882 358.044 388.957 358.364C389.032 358.684 389.149 358.967 389.309 359.212C389.469 359.457 389.672 359.655 389.917 359.804C390.162 359.943 390.45 360.012 390.781 360.012C391.122 360.012 391.41 359.943 391.645 359.804C391.89 359.655 392.093 359.457 392.253 359.212C392.413 358.967 392.53 358.684 392.605 358.364C392.68 358.044 392.717 357.713 392.717 357.372ZM386.653 350.076H388.925V354.236H388.957C389.234 353.809 389.608 353.5 390.077 353.308C390.557 353.105 391.053 353.004 391.565 353.004C391.981 353.004 392.392 353.089 392.797 353.26C393.202 353.431 393.565 353.692 393.885 354.044C394.216 354.396 394.482 354.849 394.685 355.404C394.888 355.948 394.989 356.599 394.989 357.356C394.989 358.113 394.888 358.769 394.685 359.324C394.482 359.868 394.216 360.316 393.885 360.668C393.565 361.02 393.202 361.281 392.797 361.452C392.392 361.623 391.981 361.708 391.565 361.708C390.957 361.708 390.413 361.612 389.933 361.42C389.453 361.228 389.09 360.903 388.845 360.444H388.813V361.5H386.653V350.076ZM402.202 356.476C402.096 355.9 401.904 355.463 401.626 355.164C401.36 354.865 400.949 354.716 400.394 354.716C400.032 354.716 399.728 354.78 399.482 354.908C399.248 355.025 399.056 355.175 398.906 355.356C398.768 355.537 398.666 355.729 398.602 355.932C398.549 356.135 398.517 356.316 398.506 356.476H402.202ZM398.506 357.916C398.538 358.652 398.725 359.185 399.066 359.516C399.408 359.847 399.898 360.012 400.538 360.012C400.997 360.012 401.392 359.9 401.722 359.676C402.053 359.441 402.256 359.196 402.33 358.94H404.33C404.01 359.932 403.52 360.641 402.858 361.068C402.197 361.495 401.397 361.708 400.458 361.708C399.808 361.708 399.221 361.607 398.698 361.404C398.176 361.191 397.733 360.892 397.37 360.508C397.008 360.124 396.725 359.665 396.522 359.132C396.33 358.599 396.234 358.012 396.234 357.372C396.234 356.753 396.336 356.177 396.538 355.644C396.741 355.111 397.029 354.652 397.402 354.268C397.776 353.873 398.218 353.564 398.73 353.34C399.253 353.116 399.829 353.004 400.458 353.004C401.162 353.004 401.776 353.143 402.298 353.42C402.821 353.687 403.248 354.049 403.578 354.508C403.92 354.967 404.165 355.489 404.314 356.076C404.464 356.663 404.517 357.276 404.474 357.916H398.506ZM406.086 350.076H408.358V361.5H406.086V350.076Z" fill="black"/>
<path d="M159.78 447.576H161.86L165.46 457.176L169.076 447.576H171.156V459H169.716V449.496H169.684L166.116 459H164.82L161.252 449.496H161.22V459H159.78V447.576ZM174.902 449.24H173.542V447.576H174.902V449.24ZM173.542 450.728H174.902V459H173.542V450.728ZM177.008 450.728H178.288V452.04H178.32C178.886 451.037 179.782 450.536 181.008 450.536C181.552 450.536 182.006 450.611 182.368 450.76C182.731 450.909 183.024 451.117 183.248 451.384C183.472 451.651 183.627 451.971 183.712 452.344C183.808 452.707 183.856 453.112 183.856 453.56V459H182.496V453.4C182.496 452.888 182.347 452.483 182.048 452.184C181.75 451.885 181.339 451.736 180.816 451.736C180.4 451.736 180.038 451.8 179.728 451.928C179.43 452.056 179.179 452.237 178.976 452.472C178.774 452.707 178.619 452.984 178.512 453.304C178.416 453.613 178.368 453.955 178.368 454.328V459H177.008V450.728ZM187.339 449.24H185.979V447.576H187.339V449.24ZM185.979 450.728H187.339V459H185.979V450.728ZM189.446 450.728H190.726V451.944H190.758C191.377 451.005 192.267 450.536 193.43 450.536C193.942 450.536 194.406 450.643 194.822 450.856C195.238 451.069 195.531 451.432 195.702 451.944C195.979 451.496 196.342 451.149 196.79 450.904C197.249 450.659 197.75 450.536 198.294 450.536C198.71 450.536 199.083 450.584 199.414 450.68C199.755 450.765 200.043 450.904 200.278 451.096C200.523 451.288 200.71 451.539 200.838 451.848C200.977 452.147 201.046 452.509 201.046 452.936V459H199.686V453.576C199.686 453.32 199.665 453.08 199.622 452.856C199.579 452.632 199.499 452.44 199.382 452.28C199.265 452.109 199.099 451.976 198.886 451.88C198.683 451.784 198.417 451.736 198.086 451.736C197.414 451.736 196.886 451.928 196.502 452.312C196.118 452.696 195.926 453.208 195.926 453.848V459H194.566V453.576C194.566 453.309 194.539 453.064 194.486 452.84C194.443 452.616 194.363 452.424 194.246 452.264C194.129 452.093 193.969 451.965 193.766 451.88C193.574 451.784 193.323 451.736 193.014 451.736C192.619 451.736 192.278 451.816 191.99 451.976C191.713 452.136 191.483 452.328 191.302 452.552C191.131 452.776 191.003 453.011 190.918 453.256C190.843 453.491 190.806 453.688 190.806 453.848V459H189.446V450.728ZM210.415 458.968C210.18 459.107 209.855 459.176 209.439 459.176C209.087 459.176 208.804 459.08 208.591 458.888C208.388 458.685 208.287 458.36 208.287 457.912C207.913 458.36 207.476 458.685 206.975 458.888C206.484 459.08 205.951 459.176 205.375 459.176C205.001 459.176 204.644 459.133 204.303 459.048C203.972 458.963 203.684 458.829 203.439 458.648C203.193 458.467 202.996 458.232 202.847 457.944C202.708 457.645 202.639 457.288 202.639 456.872C202.639 456.403 202.719 456.019 202.879 455.72C203.039 455.421 203.247 455.181 203.503 455C203.769 454.808 204.068 454.664 204.399 454.568C204.74 454.472 205.087 454.392 205.439 454.328C205.812 454.253 206.164 454.2 206.495 454.168C206.836 454.125 207.135 454.072 207.391 454.008C207.647 453.933 207.849 453.832 207.999 453.704C208.148 453.565 208.223 453.368 208.223 453.112C208.223 452.813 208.164 452.573 208.047 452.392C207.94 452.211 207.796 452.072 207.615 451.976C207.444 451.88 207.247 451.816 207.023 451.784C206.809 451.752 206.596 451.736 206.383 451.736C205.807 451.736 205.327 451.848 204.943 452.072C204.559 452.285 204.351 452.696 204.319 453.304H202.959C202.98 452.792 203.087 452.36 203.279 452.008C203.471 451.656 203.727 451.373 204.047 451.16C204.367 450.936 204.729 450.776 205.135 450.68C205.551 450.584 205.993 450.536 206.463 450.536C206.836 450.536 207.204 450.563 207.567 450.616C207.94 450.669 208.276 450.781 208.575 450.952C208.873 451.112 209.113 451.341 209.295 451.64C209.476 451.939 209.567 452.328 209.567 452.808V457.064C209.567 457.384 209.583 457.619 209.615 457.768C209.657 457.917 209.785 457.992 209.999 457.992C210.116 457.992 210.255 457.965 210.415 457.912V458.968ZM208.207 454.728C208.036 454.856 207.812 454.952 207.535 455.016C207.257 455.069 206.964 455.117 206.655 455.16C206.356 455.192 206.052 455.235 205.743 455.288C205.433 455.331 205.156 455.405 204.911 455.512C204.665 455.619 204.463 455.773 204.303 455.976C204.153 456.168 204.079 456.435 204.079 456.776C204.079 457 204.121 457.192 204.207 457.352C204.303 457.501 204.42 457.624 204.559 457.72C204.708 457.816 204.879 457.885 205.071 457.928C205.263 457.971 205.465 457.992 205.679 457.992C206.127 457.992 206.511 457.933 206.831 457.816C207.151 457.688 207.412 457.533 207.615 457.352C207.817 457.16 207.967 456.957 208.063 456.744C208.159 456.52 208.207 456.312 208.207 456.12V454.728ZM211.76 447.576H213.12V459H211.76V447.576Z" fill="black" fill-opacity="0.68"/>
<path d="M367.821 448.076H370.333V457.388H375.901V459.5H367.821V448.076ZM377.17 453.772C377.202 453.239 377.335 452.796 377.57 452.444C377.804 452.092 378.103 451.809 378.466 451.596C378.828 451.383 379.234 451.233 379.682 451.148C380.14 451.052 380.599 451.004 381.058 451.004C381.474 451.004 381.895 451.036 382.322 451.1C382.748 451.153 383.138 451.265 383.49 451.436C383.842 451.607 384.13 451.847 384.354 452.156C384.578 452.455 384.69 452.855 384.69 453.356V457.66C384.69 458.033 384.711 458.391 384.754 458.732C384.796 459.073 384.871 459.329 384.978 459.5H382.674C382.631 459.372 382.594 459.244 382.562 459.116C382.54 458.977 382.524 458.839 382.514 458.7C382.151 459.073 381.724 459.335 381.234 459.484C380.743 459.633 380.242 459.708 379.73 459.708C379.335 459.708 378.967 459.66 378.626 459.564C378.284 459.468 377.986 459.319 377.73 459.116C377.474 458.913 377.271 458.657 377.122 458.348C376.983 458.039 376.914 457.671 376.914 457.244C376.914 456.775 376.994 456.391 377.154 456.092C377.324 455.783 377.538 455.537 377.794 455.356C378.06 455.175 378.359 455.041 378.69 454.956C379.031 454.86 379.372 454.785 379.714 454.732C380.055 454.679 380.391 454.636 380.722 454.604C381.052 454.572 381.346 454.524 381.602 454.46C381.858 454.396 382.06 454.305 382.21 454.188C382.359 454.06 382.428 453.879 382.418 453.644C382.418 453.399 382.375 453.207 382.29 453.068C382.215 452.919 382.108 452.807 381.97 452.732C381.842 452.647 381.687 452.593 381.506 452.572C381.335 452.54 381.148 452.524 380.946 452.524C380.498 452.524 380.146 452.62 379.89 452.812C379.634 453.004 379.484 453.324 379.442 453.772H377.17ZM382.418 455.452C382.322 455.537 382.199 455.607 382.05 455.66C381.911 455.703 381.756 455.74 381.586 455.772C381.426 455.804 381.255 455.831 381.074 455.852C380.892 455.873 380.711 455.9 380.53 455.932C380.359 455.964 380.188 456.007 380.018 456.06C379.858 456.113 379.714 456.188 379.586 456.284C379.468 456.369 379.372 456.481 379.298 456.62C379.223 456.759 379.186 456.935 379.186 457.148C379.186 457.351 379.223 457.521 379.298 457.66C379.372 457.799 379.474 457.911 379.602 457.996C379.73 458.071 379.879 458.124 380.05 458.156C380.22 458.188 380.396 458.204 380.578 458.204C381.026 458.204 381.372 458.129 381.618 457.98C381.863 457.831 382.044 457.655 382.162 457.452C382.279 457.239 382.348 457.025 382.37 456.812C382.402 456.599 382.418 456.428 382.418 456.3V455.452ZM392.717 455.372C392.717 455.02 392.68 454.684 392.605 454.364C392.53 454.044 392.413 453.761 392.253 453.516C392.093 453.271 391.89 453.079 391.645 452.94C391.41 452.791 391.122 452.716 390.781 452.716C390.45 452.716 390.162 452.791 389.917 452.94C389.672 453.079 389.469 453.271 389.309 453.516C389.149 453.761 389.032 454.044 388.957 454.364C388.882 454.684 388.845 455.02 388.845 455.372C388.845 455.713 388.882 456.044 388.957 456.364C389.032 456.684 389.149 456.967 389.309 457.212C389.469 457.457 389.672 457.655 389.917 457.804C390.162 457.943 390.45 458.012 390.781 458.012C391.122 458.012 391.41 457.943 391.645 457.804C391.89 457.655 392.093 457.457 392.253 457.212C392.413 456.967 392.53 456.684 392.605 456.364C392.68 456.044 392.717 455.713 392.717 455.372ZM386.653 448.076H388.925V452.236H388.957C389.234 451.809 389.608 451.5 390.077 451.308C390.557 451.105 391.053 451.004 391.565 451.004C391.981 451.004 392.392 451.089 392.797 451.26C393.202 451.431 393.565 451.692 393.885 452.044C394.216 452.396 394.482 452.849 394.685 453.404C394.888 453.948 394.989 454.599 394.989 455.356C394.989 456.113 394.888 456.769 394.685 457.324C394.482 457.868 394.216 458.316 393.885 458.668C393.565 459.02 393.202 459.281 392.797 459.452C392.392 459.623 391.981 459.708 391.565 459.708C390.957 459.708 390.413 459.612 389.933 459.42C389.453 459.228 389.09 458.903 388.845 458.444H388.813V459.5H386.653V448.076ZM402.202 454.476C402.096 453.9 401.904 453.463 401.626 453.164C401.36 452.865 400.949 452.716 400.394 452.716C400.032 452.716 399.728 452.78 399.482 452.908C399.248 453.025 399.056 453.175 398.906 453.356C398.768 453.537 398.666 453.729 398.602 453.932C398.549 454.135 398.517 454.316 398.506 454.476H402.202ZM398.506 455.916C398.538 456.652 398.725 457.185 399.066 457.516C399.408 457.847 399.898 458.012 400.538 458.012C400.997 458.012 401.392 457.9 401.722 457.676C402.053 457.441 402.256 457.196 402.33 456.94H404.33C404.01 457.932 403.52 458.641 402.858 459.068C402.197 459.495 401.397 459.708 400.458 459.708C399.808 459.708 399.221 459.607 398.698 459.404C398.176 459.191 397.733 458.892 397.37 458.508C397.008 458.124 396.725 457.665 396.522 457.132C396.33 456.599 396.234 456.012 396.234 455.372C396.234 454.753 396.336 454.177 396.538 453.644C396.741 453.111 397.029 452.652 397.402 452.268C397.776 451.873 398.218 451.564 398.73 451.34C399.253 451.116 399.829 451.004 400.458 451.004C401.162 451.004 401.776 451.143 402.298 451.42C402.821 451.687 403.248 452.049 403.578 452.508C403.92 452.967 404.165 453.489 404.314 454.076C404.464 454.663 404.517 455.276 404.474 455.916H398.506ZM406.086 448.076H408.358V459.5H406.086V448.076Z" fill="black"/>
<path d="M159.732 545.576H161.348L167.364 554.84H167.396V545.576H168.836V557H167.172L161.204 547.832H161.172V557H159.732V545.576ZM176.815 552.072C176.794 551.752 176.719 551.448 176.591 551.16C176.474 550.872 176.308 550.627 176.095 550.424C175.892 550.211 175.647 550.045 175.359 549.928C175.082 549.8 174.772 549.736 174.431 549.736C174.079 549.736 173.759 549.8 173.471 549.928C173.194 550.045 172.954 550.211 172.751 550.424C172.548 550.637 172.388 550.888 172.271 551.176C172.154 551.453 172.084 551.752 172.063 552.072H176.815ZM178.127 554.376C177.946 555.304 177.546 556.003 176.927 556.472C176.308 556.941 175.53 557.176 174.591 557.176C173.93 557.176 173.354 557.069 172.863 556.856C172.383 556.643 171.978 556.344 171.647 555.96C171.316 555.576 171.066 555.117 170.895 554.584C170.735 554.051 170.644 553.469 170.623 552.84C170.623 552.211 170.719 551.635 170.911 551.112C171.103 550.589 171.37 550.136 171.711 549.752C172.063 549.368 172.474 549.069 172.943 548.856C173.423 548.643 173.946 548.536 174.511 548.536C175.247 548.536 175.855 548.691 176.335 549C176.826 549.299 177.215 549.683 177.503 550.152C177.802 550.621 178.004 551.133 178.111 551.688C178.228 552.243 178.276 552.771 178.255 553.272H172.063C172.052 553.635 172.095 553.981 172.191 554.312C172.287 554.632 172.442 554.92 172.655 555.176C172.868 555.421 173.14 555.619 173.471 555.768C173.802 555.917 174.191 555.992 174.639 555.992C175.215 555.992 175.684 555.859 176.047 555.592C176.42 555.325 176.666 554.92 176.783 554.376H178.127ZM186.801 556.296C186.801 557.651 186.491 558.664 185.873 559.336C185.254 560.008 184.283 560.344 182.961 560.344C182.577 560.344 182.182 560.301 181.777 560.216C181.382 560.131 181.019 559.992 180.689 559.8C180.369 559.608 180.102 559.357 179.889 559.048C179.675 558.739 179.558 558.36 179.537 557.912H180.897C180.907 558.157 180.982 558.365 181.121 558.536C181.27 558.707 181.446 558.845 181.649 558.952C181.862 559.059 182.091 559.133 182.337 559.176C182.582 559.229 182.817 559.256 183.041 559.256C183.489 559.256 183.867 559.176 184.177 559.016C184.486 558.867 184.742 558.653 184.945 558.376C185.147 558.109 185.291 557.784 185.377 557.4C185.473 557.016 185.521 556.595 185.521 556.136V555.592H185.489C185.254 556.104 184.897 556.483 184.417 556.728C183.947 556.963 183.446 557.08 182.913 557.08C182.294 557.08 181.755 556.968 181.297 556.744C180.838 556.52 180.454 556.221 180.145 555.848C179.835 555.464 179.601 555.021 179.441 554.52C179.291 554.008 179.217 553.469 179.217 552.904C179.217 552.413 179.281 551.912 179.409 551.4C179.537 550.877 179.75 550.408 180.049 549.992C180.347 549.565 180.742 549.219 181.233 548.952C181.723 548.675 182.326 548.536 183.041 548.536C183.563 548.536 184.043 548.653 184.481 548.888C184.918 549.112 185.259 549.453 185.505 549.912H185.521V548.728H186.801V556.296ZM182.993 555.896C183.441 555.896 183.819 555.805 184.129 555.624C184.449 555.432 184.705 555.187 184.897 554.888C185.089 554.579 185.227 554.232 185.313 553.848C185.409 553.464 185.457 553.08 185.457 552.696C185.457 552.333 185.414 551.976 185.329 551.624C185.243 551.272 185.105 550.957 184.913 550.68C184.731 550.392 184.491 550.163 184.193 549.992C183.894 549.821 183.531 549.736 183.105 549.736C182.667 549.736 182.294 549.821 181.985 549.992C181.675 550.152 181.419 550.371 181.217 550.648C181.025 550.925 180.881 551.245 180.785 551.608C180.699 551.971 180.657 552.349 180.657 552.744C180.657 553.117 180.694 553.491 180.769 553.864C180.843 554.237 180.971 554.579 181.153 554.888C181.334 555.187 181.574 555.432 181.873 555.624C182.171 555.805 182.545 555.896 182.993 555.896ZM196.18 556.968C195.945 557.107 195.62 557.176 195.204 557.176C194.852 557.176 194.569 557.08 194.356 556.888C194.153 556.685 194.052 556.36 194.052 555.912C193.679 556.36 193.241 556.685 192.74 556.888C192.249 557.08 191.716 557.176 191.14 557.176C190.767 557.176 190.409 557.133 190.068 557.048C189.737 556.963 189.449 556.829 189.204 556.648C188.959 556.467 188.761 556.232 188.612 555.944C188.473 555.645 188.404 555.288 188.404 554.872C188.404 554.403 188.484 554.019 188.644 553.72C188.804 553.421 189.012 553.181 189.268 553C189.535 552.808 189.833 552.664 190.164 552.568C190.505 552.472 190.852 552.392 191.204 552.328C191.577 552.253 191.929 552.2 192.26 552.168C192.601 552.125 192.9 552.072 193.156 552.008C193.412 551.933 193.615 551.832 193.764 551.704C193.913 551.565 193.988 551.368 193.988 551.112C193.988 550.813 193.929 550.573 193.812 550.392C193.705 550.211 193.561 550.072 193.38 549.976C193.209 549.88 193.012 549.816 192.788 549.784C192.575 549.752 192.361 549.736 192.148 549.736C191.572 549.736 191.092 549.848 190.708 550.072C190.324 550.285 190.116 550.696 190.084 551.304H188.724C188.745 550.792 188.852 550.36 189.044 550.008C189.236 549.656 189.492 549.373 189.812 549.16C190.132 548.936 190.495 548.776 190.9 548.68C191.316 548.584 191.759 548.536 192.228 548.536C192.601 548.536 192.969 548.563 193.332 548.616C193.705 548.669 194.041 548.781 194.34 548.952C194.639 549.112 194.879 549.341 195.06 549.64C195.241 549.939 195.332 550.328 195.332 550.808V555.064C195.332 555.384 195.348 555.619 195.38 555.768C195.423 555.917 195.551 555.992 195.764 555.992C195.881 555.992 196.02 555.965 196.18 555.912V556.968ZM193.972 552.728C193.801 552.856 193.577 552.952 193.3 553.016C193.023 553.069 192.729 553.117 192.42 553.16C192.121 553.192 191.817 553.235 191.508 553.288C191.199 553.331 190.921 553.405 190.676 553.512C190.431 553.619 190.228 553.773 190.068 553.976C189.919 554.168 189.844 554.435 189.844 554.776C189.844 555 189.887 555.192 189.972 555.352C190.068 555.501 190.185 555.624 190.324 555.72C190.473 555.816 190.644 555.885 190.836 555.928C191.028 555.971 191.231 555.992 191.444 555.992C191.892 555.992 192.276 555.933 192.596 555.816C192.916 555.688 193.177 555.533 193.38 555.352C193.583 555.16 193.732 554.957 193.828 554.744C193.924 554.52 193.972 554.312 193.972 554.12V552.728ZM199.334 548.728H200.982V549.928H199.334V555.064C199.334 555.224 199.345 555.352 199.366 555.448C199.398 555.544 199.451 555.619 199.526 555.672C199.601 555.725 199.702 555.763 199.83 555.784C199.969 555.795 200.145 555.8 200.358 555.8H200.982V557H199.942C199.59 557 199.286 556.979 199.03 556.936C198.785 556.883 198.582 556.792 198.422 556.664C198.273 556.536 198.161 556.355 198.086 556.12C198.011 555.885 197.974 555.576 197.974 555.192V549.928H196.566V548.728H197.974V546.248H199.334V548.728ZM203.933 547.24H202.573V545.576H203.933V547.24ZM202.573 548.728H203.933V557H202.573V548.728ZM209.768 557H208.312L205.24 548.728H206.76L209.08 555.624H209.112L211.368 548.728H212.792L209.768 557ZM219.784 552.072C219.762 551.752 219.688 551.448 219.56 551.16C219.442 550.872 219.277 550.627 219.064 550.424C218.861 550.211 218.616 550.045 218.328 549.928C218.05 549.8 217.741 549.736 217.4 549.736C217.048 549.736 216.728 549.8 216.44 549.928C216.162 550.045 215.922 550.211 215.72 550.424C215.517 550.637 215.357 550.888 215.24 551.176C215.122 551.453 215.053 551.752 215.032 552.072H219.784ZM221.096 554.376C220.914 555.304 220.514 556.003 219.896 556.472C219.277 556.941 218.498 557.176 217.56 557.176C216.898 557.176 216.322 557.069 215.832 556.856C215.352 556.643 214.946 556.344 214.616 555.96C214.285 555.576 214.034 555.117 213.864 554.584C213.704 554.051 213.613 553.469 213.592 552.84C213.592 552.211 213.688 551.635 213.88 551.112C214.072 550.589 214.338 550.136 214.68 549.752C215.032 549.368 215.442 549.069 215.912 548.856C216.392 548.643 216.914 548.536 217.48 548.536C218.216 548.536 218.824 548.691 219.304 549C219.794 549.299 220.184 549.683 220.472 550.152C220.77 550.621 220.973 551.133 221.08 551.688C221.197 552.243 221.245 552.771 221.224 553.272H215.032C215.021 553.635 215.064 553.981 215.16 554.312C215.256 554.632 215.41 554.92 215.624 555.176C215.837 555.421 216.109 555.619 216.44 555.768C216.77 555.917 217.16 555.992 217.608 555.992C218.184 555.992 218.653 555.859 219.016 555.592C219.389 555.325 219.634 554.92 219.752 554.376H221.096Z" fill="black" fill-opacity="0.68"/>
<rect width="107" height="48" transform="translate(334.5 527.5)" fill="#DB0002"/>
<path d="M367.821 546.076H370.333V555.388H375.901V557.5H367.821V546.076ZM377.17 551.772C377.202 551.239 377.335 550.796 377.57 550.444C377.804 550.092 378.103 549.809 378.466 549.596C378.828 549.383 379.234 549.233 379.682 549.148C380.14 549.052 380.599 549.004 381.058 549.004C381.474 549.004 381.895 549.036 382.322 549.1C382.748 549.153 383.138 549.265 383.49 549.436C383.842 549.607 384.13 549.847 384.354 550.156C384.578 550.455 384.69 550.855 384.69 551.356V555.66C384.69 556.033 384.711 556.391 384.754 556.732C384.796 557.073 384.871 557.329 384.978 557.5H382.674C382.631 557.372 382.594 557.244 382.562 557.116C382.54 556.977 382.524 556.839 382.514 556.7C382.151 557.073 381.724 557.335 381.234 557.484C380.743 557.633 380.242 557.708 379.73 557.708C379.335 557.708 378.967 557.66 378.626 557.564C378.284 557.468 377.986 557.319 377.73 557.116C377.474 556.913 377.271 556.657 377.122 556.348C376.983 556.039 376.914 555.671 376.914 555.244C376.914 554.775 376.994 554.391 377.154 554.092C377.324 553.783 377.538 553.537 377.794 553.356C378.06 553.175 378.359 553.041 378.69 552.956C379.031 552.86 379.372 552.785 379.714 552.732C380.055 552.679 380.391 552.636 380.722 552.604C381.052 552.572 381.346 552.524 381.602 552.46C381.858 552.396 382.06 552.305 382.21 552.188C382.359 552.06 382.428 551.879 382.418 551.644C382.418 551.399 382.375 551.207 382.29 551.068C382.215 550.919 382.108 550.807 381.97 550.732C381.842 550.647 381.687 550.593 381.506 550.572C381.335 550.54 381.148 550.524 380.946 550.524C380.498 550.524 380.146 550.62 379.89 550.812C379.634 551.004 379.484 551.324 379.442 551.772H377.17ZM382.418 553.452C382.322 553.537 382.199 553.607 382.05 553.66C381.911 553.703 381.756 553.74 381.586 553.772C381.426 553.804 381.255 553.831 381.074 553.852C380.892 553.873 380.711 553.9 380.53 553.932C380.359 553.964 380.188 554.007 380.018 554.06C379.858 554.113 379.714 554.188 379.586 554.284C379.468 554.369 379.372 554.481 379.298 554.62C379.223 554.759 379.186 554.935 379.186 555.148C379.186 555.351 379.223 555.521 379.298 555.66C379.372 555.799 379.474 555.911 379.602 555.996C379.73 556.071 379.879 556.124 380.05 556.156C380.22 556.188 380.396 556.204 380.578 556.204C381.026 556.204 381.372 556.129 381.618 555.98C381.863 555.831 382.044 555.655 382.162 555.452C382.279 555.239 382.348 555.025 382.37 554.812C382.402 554.599 382.418 554.428 382.418 554.3V553.452ZM392.717 553.372C392.717 553.02 392.68 552.684 392.605 552.364C392.53 552.044 392.413 551.761 392.253 551.516C392.093 551.271 391.89 551.079 391.645 550.94C391.41 550.791 391.122 550.716 390.781 550.716C390.45 550.716 390.162 550.791 389.917 550.94C389.672 551.079 389.469 551.271 389.309 551.516C389.149 551.761 389.032 552.044 388.957 552.364C388.882 552.684 388.845 553.02 388.845 553.372C388.845 553.713 388.882 554.044 388.957 554.364C389.032 554.684 389.149 554.967 389.309 555.212C389.469 555.457 389.672 555.655 389.917 555.804C390.162 555.943 390.45 556.012 390.781 556.012C391.122 556.012 391.41 555.943 391.645 555.804C391.89 555.655 392.093 555.457 392.253 555.212C392.413 554.967 392.53 554.684 392.605 554.364C392.68 554.044 392.717 553.713 392.717 553.372ZM386.653 546.076H388.925V550.236H388.957C389.234 549.809 389.608 549.5 390.077 549.308C390.557 549.105 391.053 549.004 391.565 549.004C391.981 549.004 392.392 549.089 392.797 549.26C393.202 549.431 393.565 549.692 393.885 550.044C394.216 550.396 394.482 550.849 394.685 551.404C394.888 551.948 394.989 552.599 394.989 553.356C394.989 554.113 394.888 554.769 394.685 555.324C394.482 555.868 394.216 556.316 393.885 556.668C393.565 557.02 393.202 557.281 392.797 557.452C392.392 557.623 391.981 557.708 391.565 557.708C390.957 557.708 390.413 557.612 389.933 557.42C389.453 557.228 389.09 556.903 388.845 556.444H388.813V557.5H386.653V546.076ZM402.202 552.476C402.096 551.9 401.904 551.463 401.626 551.164C401.36 550.865 400.949 550.716 400.394 550.716C400.032 550.716 399.728 550.78 399.482 550.908C399.248 551.025 399.056 551.175 398.906 551.356C398.768 551.537 398.666 551.729 398.602 551.932C398.549 552.135 398.517 552.316 398.506 552.476H402.202ZM398.506 553.916C398.538 554.652 398.725 555.185 399.066 555.516C399.408 555.847 399.898 556.012 400.538 556.012C400.997 556.012 401.392 555.9 401.722 555.676C402.053 555.441 402.256 555.196 402.33 554.94H404.33C404.01 555.932 403.52 556.641 402.858 557.068C402.197 557.495 401.397 557.708 400.458 557.708C399.808 557.708 399.221 557.607 398.698 557.404C398.176 557.191 397.733 556.892 397.37 556.508C397.008 556.124 396.725 555.665 396.522 555.132C396.33 554.599 396.234 554.012 396.234 553.372C396.234 552.753 396.336 552.177 396.538 551.644C396.741 551.111 397.029 550.652 397.402 550.268C397.776 549.873 398.218 549.564 398.73 549.34C399.253 549.116 399.829 549.004 400.458 549.004C401.162 549.004 401.776 549.143 402.298 549.42C402.821 549.687 403.248 550.049 403.578 550.508C403.92 550.967 404.165 551.489 404.314 552.076C404.464 552.663 404.517 553.276 404.474 553.916H398.506ZM406.086 546.076H408.358V557.5H406.086V546.076Z" fill="white"/>
</svg>
