<svg width="600" height="191" viewBox="0 0 600 191" fill="none" xmlns="http://www.w3.org/2000/svg">
<rect width="600" height="95.5" fill="#FF7900"/>
<path d="M159.748 41.826H161.268V51.97H167.316V53.25H159.748V41.826ZM169.855 43.49H168.495V41.826H169.855V43.49ZM168.495 44.978H169.855V53.25H168.495V44.978ZM179.098 52.546C179.098 53.9007 178.788 54.914 178.17 55.586C177.551 56.258 176.58 56.594 175.258 56.594C174.874 56.594 174.479 56.5513 174.074 56.466C173.679 56.3807 173.316 56.242 172.986 56.05C172.666 55.858 172.399 55.6073 172.186 55.298C171.972 54.9887 171.855 54.61 171.834 54.162H173.194C173.204 54.4073 173.279 54.6153 173.418 54.786C173.567 54.9567 173.743 55.0953 173.946 55.202C174.159 55.3087 174.388 55.3833 174.634 55.426C174.879 55.4793 175.114 55.506 175.338 55.506C175.786 55.506 176.164 55.426 176.474 55.266C176.783 55.1167 177.039 54.9033 177.242 54.626C177.444 54.3593 177.588 54.034 177.674 53.65C177.77 53.266 177.818 52.8447 177.818 52.386V51.842H177.786C177.551 52.354 177.194 52.7327 176.714 52.978C176.244 53.2127 175.743 53.33 175.21 53.33C174.591 53.33 174.052 53.218 173.594 52.994C173.135 52.77 172.751 52.4713 172.442 52.098C172.132 51.714 171.898 51.2713 171.738 50.77C171.588 50.258 171.514 49.7193 171.514 49.154C171.514 48.6633 171.578 48.162 171.706 47.65C171.834 47.1273 172.047 46.658 172.346 46.242C172.644 45.8153 173.039 45.4687 173.53 45.202C174.02 44.9247 174.623 44.786 175.338 44.786C175.86 44.786 176.34 44.9033 176.778 45.138C177.215 45.362 177.556 45.7033 177.802 46.162H177.818V44.978H179.098V52.546ZM175.29 52.146C175.738 52.146 176.116 52.0553 176.426 51.874C176.746 51.682 177.002 51.4367 177.194 51.138C177.386 50.8287 177.524 50.482 177.61 50.098C177.706 49.714 177.754 49.33 177.754 48.946C177.754 48.5833 177.711 48.226 177.626 47.874C177.54 47.522 177.402 47.2073 177.21 46.93C177.028 46.642 176.788 46.4127 176.49 46.242C176.191 46.0713 175.828 45.986 175.402 45.986C174.964 45.986 174.591 46.0713 174.282 46.242C173.972 46.402 173.716 46.6207 173.514 46.898C173.322 47.1753 173.178 47.4953 173.082 47.858C172.996 48.2207 172.954 48.5993 172.954 48.994C172.954 49.3673 172.991 49.7407 173.066 50.114C173.14 50.4873 173.268 50.8287 173.45 51.138C173.631 51.4367 173.871 51.682 174.17 51.874C174.468 52.0553 174.842 52.146 175.29 52.146ZM181.149 41.826H182.509V46.194H182.541C182.648 45.938 182.797 45.7247 182.989 45.554C183.181 45.3727 183.394 45.2287 183.629 45.122C183.874 45.0047 184.125 44.9193 184.381 44.866C184.648 44.8127 184.904 44.786 185.149 44.786C185.693 44.786 186.146 44.8607 186.509 45.01C186.872 45.1593 187.165 45.3673 187.389 45.634C187.613 45.9007 187.768 46.2207 187.853 46.594C187.949 46.9567 187.997 47.362 187.997 47.81V53.25H186.637V47.65C186.637 47.138 186.488 46.7327 186.189 46.434C185.89 46.1353 185.48 45.986 184.957 45.986C184.541 45.986 184.178 46.05 183.869 46.178C183.57 46.306 183.32 46.4873 183.117 46.722C182.914 46.9567 182.76 47.234 182.653 47.554C182.557 47.8633 182.509 48.2047 182.509 48.578V53.25H181.149V41.826ZM191.928 44.978H193.576V46.178H191.928V51.314C191.928 51.474 191.938 51.602 191.96 51.698C191.992 51.794 192.045 51.8687 192.12 51.922C192.194 51.9753 192.296 52.0127 192.424 52.034C192.562 52.0447 192.738 52.05 192.952 52.05H193.576V53.25H192.536C192.184 53.25 191.88 53.2287 191.624 53.186C191.378 53.1327 191.176 53.042 191.016 52.914C190.866 52.786 190.754 52.6047 190.68 52.37C190.605 52.1353 190.568 51.826 190.568 51.442V46.178H189.16V44.978H190.568V42.498H191.928V44.978ZM199.54 44.978H200.82V46.194H200.852C201.47 45.2553 202.361 44.786 203.524 44.786C204.036 44.786 204.5 44.8927 204.916 45.106C205.332 45.3193 205.625 45.682 205.796 46.194C206.073 45.746 206.436 45.3993 206.884 45.154C207.342 44.9087 207.844 44.786 208.388 44.786C208.804 44.786 209.177 44.834 209.508 44.93C209.849 45.0153 210.137 45.154 210.372 45.346C210.617 45.538 210.804 45.7887 210.932 46.098C211.07 46.3967 211.14 46.7593 211.14 47.186V53.25H209.78V47.826C209.78 47.57 209.758 47.33 209.716 47.106C209.673 46.882 209.593 46.69 209.476 46.53C209.358 46.3593 209.193 46.226 208.98 46.13C208.777 46.034 208.51 45.986 208.18 45.986C207.508 45.986 206.98 46.178 206.596 46.562C206.212 46.946 206.02 47.458 206.02 48.098V53.25H204.66V47.826C204.66 47.5593 204.633 47.314 204.58 47.09C204.537 46.866 204.457 46.674 204.34 46.514C204.222 46.3433 204.062 46.2153 203.86 46.13C203.668 46.034 203.417 45.986 203.108 45.986C202.713 45.986 202.372 46.066 202.084 46.226C201.806 46.386 201.577 46.578 201.396 46.802C201.225 47.026 201.097 47.2607 201.012 47.506C200.937 47.7407 200.9 47.938 200.9 48.098V53.25H199.54V44.978ZM214.172 49.122C214.172 49.6233 214.236 50.0713 214.364 50.466C214.503 50.85 214.69 51.1753 214.924 51.442C215.159 51.698 215.431 51.8953 215.74 52.034C216.06 52.1727 216.396 52.242 216.748 52.242C217.1 52.242 217.431 52.1727 217.74 52.034C218.06 51.8953 218.338 51.698 218.572 51.442C218.807 51.1753 218.988 50.85 219.116 50.466C219.255 50.0713 219.324 49.6233 219.324 49.122C219.324 48.6207 219.255 48.178 219.116 47.794C218.988 47.3993 218.807 47.0687 218.572 46.802C218.338 46.5353 218.06 46.3327 217.74 46.194C217.431 46.0553 217.1 45.986 216.748 45.986C216.396 45.986 216.06 46.0553 215.74 46.194C215.431 46.3327 215.159 46.5353 214.924 46.802C214.69 47.0687 214.503 47.3993 214.364 47.794C214.236 48.178 214.172 48.6207 214.172 49.122ZM212.732 49.122C212.732 48.514 212.818 47.9487 212.988 47.426C213.159 46.8927 213.415 46.434 213.756 46.05C214.098 45.6553 214.519 45.346 215.02 45.122C215.522 44.898 216.098 44.786 216.748 44.786C217.41 44.786 217.986 44.898 218.476 45.122C218.978 45.346 219.399 45.6553 219.74 46.05C220.082 46.434 220.338 46.8927 220.508 47.426C220.679 47.9487 220.764 48.514 220.764 49.122C220.764 49.73 220.679 50.2953 220.508 50.818C220.338 51.3407 220.082 51.7993 219.74 52.194C219.399 52.578 218.978 52.882 218.476 53.106C217.986 53.3193 217.41 53.426 216.748 53.426C216.098 53.426 215.522 53.3193 215.02 53.106C214.519 52.882 214.098 52.578 213.756 52.194C213.415 51.7993 213.159 51.3407 212.988 50.818C212.818 50.2953 212.732 49.73 212.732 49.122ZM223.36 49.186C223.36 49.57 223.408 49.9487 223.504 50.322C223.61 50.6847 223.765 51.01 223.968 51.298C224.181 51.586 224.448 51.8153 224.768 51.986C225.098 52.1567 225.482 52.242 225.92 52.242C226.378 52.242 226.768 52.1513 227.088 51.97C227.408 51.7887 227.669 51.554 227.872 51.266C228.074 50.9673 228.218 50.6313 228.304 50.258C228.4 49.8847 228.448 49.506 228.448 49.122C228.448 48.7167 228.4 48.3273 228.304 47.954C228.208 47.57 228.053 47.234 227.84 46.946C227.637 46.658 227.37 46.4287 227.04 46.258C226.709 46.0767 226.309 45.986 225.84 45.986C225.381 45.986 224.992 46.0767 224.672 46.258C224.352 46.4393 224.096 46.6793 223.904 46.978C223.712 47.2767 223.573 47.618 223.488 48.002C223.402 48.386 223.36 48.7807 223.36 49.186ZM229.76 53.25H228.4V52.13H228.368C228.144 52.5887 227.792 52.9193 227.312 53.122C226.832 53.3247 226.304 53.426 225.728 53.426C225.088 53.426 224.528 53.3087 224.048 53.074C223.578 52.8393 223.184 52.5247 222.864 52.13C222.554 51.7353 222.32 51.2767 222.16 50.754C222 50.2313 221.92 49.6767 221.92 49.09C221.92 48.5033 221.994 47.9487 222.144 47.426C222.304 46.9033 222.538 46.45 222.848 46.066C223.168 45.6713 223.562 45.362 224.032 45.138C224.512 44.9033 225.066 44.786 225.696 44.786C225.909 44.786 226.138 44.8073 226.384 44.85C226.629 44.8927 226.874 44.9673 227.12 45.074C227.365 45.17 227.594 45.3033 227.808 45.474C228.032 45.634 228.218 45.8367 228.368 46.082H228.4V41.826H229.76V53.25ZM237.596 48.322C237.575 48.002 237.5 47.698 237.372 47.41C237.255 47.122 237.089 46.8767 236.876 46.674C236.673 46.4607 236.428 46.2953 236.14 46.178C235.863 46.05 235.553 45.986 235.212 45.986C234.86 45.986 234.54 46.05 234.252 46.178C233.975 46.2953 233.735 46.4607 233.532 46.674C233.329 46.8873 233.169 47.138 233.052 47.426C232.935 47.7033 232.865 48.002 232.844 48.322H237.596ZM238.908 50.626C238.727 51.554 238.327 52.2527 237.708 52.722C237.089 53.1913 236.311 53.426 235.372 53.426C234.711 53.426 234.135 53.3193 233.644 53.106C233.164 52.8927 232.759 52.594 232.428 52.21C232.097 51.826 231.847 51.3673 231.676 50.834C231.516 50.3007 231.425 49.7193 231.404 49.09C231.404 48.4607 231.5 47.8847 231.692 47.362C231.884 46.8393 232.151 46.386 232.492 46.002C232.844 45.618 233.255 45.3193 233.724 45.106C234.204 44.8927 234.727 44.786 235.292 44.786C236.028 44.786 236.636 44.9407 237.116 45.25C237.607 45.5487 237.996 45.9327 238.284 46.402C238.583 46.8713 238.785 47.3833 238.892 47.938C239.009 48.4927 239.057 49.0207 239.036 49.522H232.844C232.833 49.8847 232.876 50.2313 232.972 50.562C233.068 50.882 233.223 51.17 233.436 51.426C233.649 51.6713 233.921 51.8687 234.252 52.018C234.583 52.1673 234.972 52.242 235.42 52.242C235.996 52.242 236.465 52.1087 236.828 51.842C237.201 51.5753 237.447 51.17 237.564 50.626H238.908Z" fill="black" fill-opacity="0.68"/>
<mask id="path-2-inside-1_61394_167954" fill="white">
<path d="M334.5 23.75H441.5V71.75H334.5V23.75Z"/>
</mask>
<path d="M334.5 23.75V22.75H333.5V23.75H334.5ZM441.5 23.75H442.5V22.75H441.5V23.75ZM441.5 71.75V72.75H442.5V71.75H441.5ZM334.5 71.75H333.5V72.75H334.5V71.75ZM334.5 23.75V24.75H441.5V23.75V22.75H334.5V23.75ZM441.5 23.75H440.5V71.75H441.5H442.5V23.75H441.5ZM441.5 71.75V70.75H334.5V71.75V72.75H441.5V71.75ZM334.5 71.75H335.5V23.75H334.5H333.5V71.75H334.5Z" fill="black" mask="url(#path-2-inside-1_61394_167954)"/>
<path d="M367.821 42.326H370.333V51.638H375.901V53.75H367.821V42.326ZM377.17 48.022C377.202 47.4887 377.335 47.046 377.57 46.694C377.804 46.342 378.103 46.0593 378.466 45.846C378.828 45.6327 379.234 45.4833 379.682 45.398C380.14 45.302 380.599 45.254 381.058 45.254C381.474 45.254 381.895 45.286 382.322 45.35C382.748 45.4033 383.138 45.5153 383.49 45.686C383.842 45.8567 384.13 46.0967 384.354 46.406C384.578 46.7047 384.69 47.1047 384.69 47.606V51.91C384.69 52.2833 384.711 52.6407 384.754 52.982C384.796 53.3233 384.871 53.5793 384.978 53.75H382.674C382.631 53.622 382.594 53.494 382.562 53.366C382.54 53.2273 382.524 53.0887 382.514 52.95C382.151 53.3233 381.724 53.5847 381.234 53.734C380.743 53.8833 380.242 53.958 379.73 53.958C379.335 53.958 378.967 53.91 378.626 53.814C378.284 53.718 377.986 53.5687 377.73 53.366C377.474 53.1633 377.271 52.9073 377.122 52.598C376.983 52.2887 376.914 51.9207 376.914 51.494C376.914 51.0247 376.994 50.6407 377.154 50.342C377.324 50.0327 377.538 49.7873 377.794 49.606C378.06 49.4247 378.359 49.2913 378.69 49.206C379.031 49.11 379.372 49.0353 379.714 48.982C380.055 48.9287 380.391 48.886 380.722 48.854C381.052 48.822 381.346 48.774 381.602 48.71C381.858 48.646 382.06 48.5553 382.21 48.438C382.359 48.31 382.428 48.1287 382.418 47.894C382.418 47.6487 382.375 47.4567 382.29 47.318C382.215 47.1687 382.108 47.0567 381.97 46.982C381.842 46.8967 381.687 46.8433 381.506 46.822C381.335 46.79 381.148 46.774 380.946 46.774C380.498 46.774 380.146 46.87 379.89 47.062C379.634 47.254 379.484 47.574 379.442 48.022H377.17ZM382.418 49.702C382.322 49.7873 382.199 49.8567 382.05 49.91C381.911 49.9527 381.756 49.99 381.586 50.022C381.426 50.054 381.255 50.0807 381.074 50.102C380.892 50.1233 380.711 50.15 380.53 50.182C380.359 50.214 380.188 50.2567 380.018 50.31C379.858 50.3633 379.714 50.438 379.586 50.534C379.468 50.6193 379.372 50.7313 379.298 50.87C379.223 51.0087 379.186 51.1847 379.186 51.398C379.186 51.6007 379.223 51.7713 379.298 51.91C379.372 52.0487 379.474 52.1607 379.602 52.246C379.73 52.3207 379.879 52.374 380.05 52.406C380.22 52.438 380.396 52.454 380.578 52.454C381.026 52.454 381.372 52.3793 381.618 52.23C381.863 52.0807 382.044 51.9047 382.162 51.702C382.279 51.4887 382.348 51.2753 382.37 51.062C382.402 50.8487 382.418 50.678 382.418 50.55V49.702ZM392.717 49.622C392.717 49.27 392.68 48.934 392.605 48.614C392.53 48.294 392.413 48.0113 392.253 47.766C392.093 47.5207 391.89 47.3287 391.645 47.19C391.41 47.0407 391.122 46.966 390.781 46.966C390.45 46.966 390.162 47.0407 389.917 47.19C389.672 47.3287 389.469 47.5207 389.309 47.766C389.149 48.0113 389.032 48.294 388.957 48.614C388.882 48.934 388.845 49.27 388.845 49.622C388.845 49.9633 388.882 50.294 388.957 50.614C389.032 50.934 389.149 51.2167 389.309 51.462C389.469 51.7073 389.672 51.9047 389.917 52.054C390.162 52.1927 390.45 52.262 390.781 52.262C391.122 52.262 391.41 52.1927 391.645 52.054C391.89 51.9047 392.093 51.7073 392.253 51.462C392.413 51.2167 392.53 50.934 392.605 50.614C392.68 50.294 392.717 49.9633 392.717 49.622ZM386.653 42.326H388.925V46.486H388.957C389.234 46.0593 389.608 45.75 390.077 45.558C390.557 45.3553 391.053 45.254 391.565 45.254C391.981 45.254 392.392 45.3393 392.797 45.51C393.202 45.6807 393.565 45.942 393.885 46.294C394.216 46.646 394.482 47.0993 394.685 47.654C394.888 48.198 394.989 48.8487 394.989 49.606C394.989 50.3633 394.888 51.0193 394.685 51.574C394.482 52.118 394.216 52.566 393.885 52.918C393.565 53.27 393.202 53.5313 392.797 53.702C392.392 53.8727 391.981 53.958 391.565 53.958C390.957 53.958 390.413 53.862 389.933 53.67C389.453 53.478 389.09 53.1527 388.845 52.694H388.813V53.75H386.653V42.326ZM402.202 48.726C402.096 48.15 401.904 47.7127 401.626 47.414C401.36 47.1153 400.949 46.966 400.394 46.966C400.032 46.966 399.728 47.03 399.482 47.158C399.248 47.2753 399.056 47.4247 398.906 47.606C398.768 47.7873 398.666 47.9793 398.602 48.182C398.549 48.3847 398.517 48.566 398.506 48.726H402.202ZM398.506 50.166C398.538 50.902 398.725 51.4353 399.066 51.766C399.408 52.0967 399.898 52.262 400.538 52.262C400.997 52.262 401.392 52.15 401.722 51.926C402.053 51.6913 402.256 51.446 402.33 51.19H404.33C404.01 52.182 403.52 52.8913 402.858 53.318C402.197 53.7447 401.397 53.958 400.458 53.958C399.808 53.958 399.221 53.8567 398.698 53.654C398.176 53.4407 397.733 53.142 397.37 52.758C397.008 52.374 396.725 51.9153 396.522 51.382C396.33 50.8487 396.234 50.262 396.234 49.622C396.234 49.0033 396.336 48.4273 396.538 47.894C396.741 47.3607 397.029 46.902 397.402 46.518C397.776 46.1233 398.218 45.814 398.73 45.59C399.253 45.366 399.829 45.254 400.458 45.254C401.162 45.254 401.776 45.3927 402.298 45.67C402.821 45.9367 403.248 46.2993 403.578 46.758C403.92 47.2167 404.165 47.7393 404.314 48.326C404.464 48.9127 404.517 49.526 404.474 50.166H398.506ZM406.086 42.326H408.358V53.75H406.086V42.326Z" fill="black"/>
<rect width="600" height="95.5" transform="translate(0 95.5)" fill="#DB0002"/>
<path d="M161.268 147.47H163.796C163.967 147.47 164.18 147.459 164.436 147.438C164.692 147.406 164.964 147.342 165.252 147.246C165.54 147.139 165.823 146.99 166.1 146.798C166.388 146.606 166.644 146.345 166.868 146.014C167.092 145.683 167.273 145.273 167.412 144.782C167.561 144.281 167.636 143.678 167.636 142.974C167.636 142.291 167.567 141.683 167.428 141.15C167.3 140.606 167.081 140.147 166.772 139.774C166.473 139.39 166.084 139.102 165.604 138.91C165.124 138.707 164.532 138.606 163.828 138.606H161.268V147.47ZM159.748 137.326H163.668C165.428 137.326 166.783 137.774 167.732 138.67C168.681 139.566 169.156 140.931 169.156 142.766C169.156 143.726 169.049 144.579 168.836 145.326C168.623 146.062 168.292 146.686 167.844 147.198C167.396 147.699 166.825 148.083 166.132 148.35C165.439 148.617 164.617 148.75 163.668 148.75H159.748V137.326ZM178.118 148.718C177.883 148.857 177.558 148.926 177.142 148.926C176.79 148.926 176.507 148.83 176.294 148.638C176.091 148.435 175.99 148.11 175.99 147.662C175.616 148.11 175.179 148.435 174.678 148.638C174.187 148.83 173.654 148.926 173.078 148.926C172.704 148.926 172.347 148.883 172.006 148.798C171.675 148.713 171.387 148.579 171.142 148.398C170.896 148.217 170.699 147.982 170.55 147.694C170.411 147.395 170.342 147.038 170.342 146.622C170.342 146.153 170.422 145.769 170.582 145.47C170.742 145.171 170.95 144.931 171.206 144.75C171.472 144.558 171.771 144.414 172.102 144.318C172.443 144.222 172.79 144.142 173.142 144.078C173.515 144.003 173.867 143.95 174.198 143.918C174.539 143.875 174.838 143.822 175.094 143.758C175.35 143.683 175.552 143.582 175.702 143.454C175.851 143.315 175.926 143.118 175.926 142.862C175.926 142.563 175.867 142.323 175.75 142.142C175.643 141.961 175.499 141.822 175.318 141.726C175.147 141.63 174.95 141.566 174.726 141.534C174.512 141.502 174.299 141.486 174.086 141.486C173.51 141.486 173.03 141.598 172.646 141.822C172.262 142.035 172.054 142.446 172.022 143.054H170.662C170.683 142.542 170.79 142.11 170.982 141.758C171.174 141.406 171.43 141.123 171.75 140.91C172.07 140.686 172.432 140.526 172.838 140.43C173.254 140.334 173.696 140.286 174.166 140.286C174.539 140.286 174.907 140.313 175.27 140.366C175.643 140.419 175.979 140.531 176.278 140.702C176.576 140.862 176.816 141.091 176.998 141.39C177.179 141.689 177.27 142.078 177.27 142.558V146.814C177.27 147.134 177.286 147.369 177.318 147.518C177.36 147.667 177.488 147.742 177.702 147.742C177.819 147.742 177.958 147.715 178.118 147.662V148.718ZM175.91 144.478C175.739 144.606 175.515 144.702 175.238 144.766C174.96 144.819 174.667 144.867 174.358 144.91C174.059 144.942 173.755 144.985 173.446 145.038C173.136 145.081 172.859 145.155 172.614 145.262C172.368 145.369 172.166 145.523 172.006 145.726C171.856 145.918 171.782 146.185 171.782 146.526C171.782 146.75 171.824 146.942 171.91 147.102C172.006 147.251 172.123 147.374 172.262 147.47C172.411 147.566 172.582 147.635 172.774 147.678C172.966 147.721 173.168 147.742 173.382 147.742C173.83 147.742 174.214 147.683 174.534 147.566C174.854 147.438 175.115 147.283 175.318 147.102C175.52 146.91 175.67 146.707 175.766 146.494C175.862 146.27 175.91 146.062 175.91 145.87V144.478ZM179.335 140.478H180.615V142.222H180.647C180.978 141.55 181.383 141.054 181.863 140.734C182.343 140.414 182.951 140.265 183.687 140.286V141.726C183.143 141.726 182.679 141.801 182.295 141.95C181.911 142.099 181.602 142.318 181.367 142.606C181.133 142.894 180.962 143.246 180.855 143.662C180.749 144.067 180.695 144.537 180.695 145.07V148.75H179.335V140.478ZM184.792 137.326H186.152V144.094L189.928 140.478H191.752L188.472 143.486L191.992 148.75H190.264L187.432 144.43L186.152 145.614V148.75H184.792V137.326ZM197.462 140.478H198.742V141.694H198.774C199.392 140.755 200.283 140.286 201.446 140.286C201.958 140.286 202.422 140.393 202.838 140.606C203.254 140.819 203.547 141.182 203.718 141.694C203.995 141.246 204.358 140.899 204.806 140.654C205.264 140.409 205.766 140.286 206.31 140.286C206.726 140.286 207.099 140.334 207.43 140.43C207.771 140.515 208.059 140.654 208.294 140.846C208.539 141.038 208.726 141.289 208.854 141.598C208.992 141.897 209.062 142.259 209.062 142.686V148.75H207.702V143.326C207.702 143.07 207.68 142.83 207.638 142.606C207.595 142.382 207.515 142.19 207.398 142.03C207.28 141.859 207.115 141.726 206.902 141.63C206.699 141.534 206.432 141.486 206.102 141.486C205.43 141.486 204.902 141.678 204.517 142.062C204.134 142.446 203.942 142.958 203.942 143.598V148.75H202.582V143.326C202.582 143.059 202.555 142.814 202.502 142.59C202.459 142.366 202.379 142.174 202.262 142.014C202.144 141.843 201.984 141.715 201.782 141.63C201.59 141.534 201.339 141.486 201.03 141.486C200.635 141.486 200.294 141.566 200.006 141.726C199.728 141.886 199.499 142.078 199.318 142.302C199.147 142.526 199.019 142.761 198.934 143.006C198.859 143.241 198.822 143.438 198.822 143.598V148.75H197.462V140.478ZM212.094 144.622C212.094 145.123 212.158 145.571 212.286 145.966C212.425 146.35 212.611 146.675 212.846 146.942C213.081 147.198 213.353 147.395 213.662 147.534C213.982 147.673 214.318 147.742 214.67 147.742C215.022 147.742 215.353 147.673 215.662 147.534C215.982 147.395 216.259 147.198 216.494 146.942C216.729 146.675 216.91 146.35 217.038 145.966C217.177 145.571 217.246 145.123 217.246 144.622C217.246 144.121 217.177 143.678 217.038 143.294C216.91 142.899 216.729 142.569 216.494 142.302C216.259 142.035 215.982 141.833 215.662 141.694C215.353 141.555 215.022 141.486 214.67 141.486C214.318 141.486 213.982 141.555 213.662 141.694C213.353 141.833 213.081 142.035 212.846 142.302C212.611 142.569 212.425 142.899 212.286 143.294C212.158 143.678 212.094 144.121 212.094 144.622ZM210.654 144.622C210.654 144.014 210.739 143.449 210.91 142.926C211.081 142.393 211.337 141.934 211.678 141.55C212.019 141.155 212.441 140.846 212.942 140.622C213.443 140.398 214.019 140.286 214.67 140.286C215.331 140.286 215.907 140.398 216.398 140.622C216.899 140.846 217.321 141.155 217.662 141.55C218.003 141.934 218.259 142.393 218.43 142.926C218.601 143.449 218.686 144.014 218.686 144.622C218.686 145.23 218.601 145.795 218.43 146.318C218.259 146.841 218.003 147.299 217.662 147.694C217.321 148.078 216.899 148.382 216.398 148.606C215.907 148.819 215.331 148.926 214.67 148.926C214.019 148.926 213.443 148.819 212.942 148.606C212.441 148.382 212.019 148.078 211.678 147.694C211.337 147.299 211.081 146.841 210.91 146.318C210.739 145.795 210.654 145.23 210.654 144.622ZM221.282 144.686C221.282 145.07 221.33 145.449 221.426 145.822C221.532 146.185 221.687 146.51 221.89 146.798C222.103 147.086 222.37 147.315 222.69 147.486C223.02 147.657 223.404 147.742 223.842 147.742C224.3 147.742 224.69 147.651 225.01 147.47C225.33 147.289 225.591 147.054 225.794 146.766C225.996 146.467 226.14 146.131 226.226 145.758C226.322 145.385 226.37 145.006 226.37 144.622C226.37 144.217 226.322 143.827 226.226 143.454C226.13 143.07 225.975 142.734 225.762 142.446C225.559 142.158 225.292 141.929 224.962 141.758C224.631 141.577 224.231 141.486 223.762 141.486C223.303 141.486 222.914 141.577 222.594 141.758C222.274 141.939 222.018 142.179 221.826 142.478C221.634 142.777 221.495 143.118 221.41 143.502C221.324 143.886 221.282 144.281 221.282 144.686ZM227.682 148.75H226.322V147.63H226.29C226.066 148.089 225.714 148.419 225.234 148.622C224.754 148.825 224.226 148.926 223.65 148.926C223.01 148.926 222.45 148.809 221.97 148.574C221.5 148.339 221.106 148.025 220.786 147.63C220.476 147.235 220.242 146.777 220.082 146.254C219.922 145.731 219.842 145.177 219.842 144.59C219.842 144.003 219.916 143.449 220.066 142.926C220.226 142.403 220.46 141.95 220.77 141.566C221.09 141.171 221.484 140.862 221.954 140.638C222.434 140.403 222.988 140.286 223.618 140.286C223.831 140.286 224.06 140.307 224.306 140.35C224.551 140.393 224.796 140.467 225.042 140.574C225.287 140.67 225.516 140.803 225.73 140.974C225.954 141.134 226.14 141.337 226.29 141.582H226.322V137.326H227.682V148.75ZM235.518 143.822C235.497 143.502 235.422 143.198 235.294 142.91C235.177 142.622 235.011 142.377 234.798 142.174C234.595 141.961 234.35 141.795 234.062 141.678C233.785 141.55 233.475 141.486 233.134 141.486C232.782 141.486 232.462 141.55 232.174 141.678C231.897 141.795 231.657 141.961 231.454 142.174C231.251 142.387 231.091 142.638 230.974 142.926C230.857 143.203 230.787 143.502 230.766 143.822H235.518ZM236.83 146.126C236.649 147.054 236.249 147.753 235.63 148.222C235.011 148.691 234.233 148.926 233.294 148.926C232.633 148.926 232.057 148.819 231.566 148.606C231.086 148.393 230.681 148.094 230.35 147.71C230.019 147.326 229.769 146.867 229.598 146.334C229.438 145.801 229.347 145.219 229.326 144.59C229.326 143.961 229.422 143.385 229.614 142.862C229.806 142.339 230.073 141.886 230.414 141.502C230.766 141.118 231.177 140.819 231.646 140.606C232.126 140.393 232.649 140.286 233.214 140.286C233.95 140.286 234.558 140.441 235.038 140.75C235.529 141.049 235.918 141.433 236.206 141.902C236.505 142.371 236.707 142.883 236.814 143.438C236.931 143.993 236.979 144.521 236.958 145.022H230.766C230.755 145.385 230.798 145.731 230.894 146.062C230.99 146.382 231.145 146.67 231.358 146.926C231.571 147.171 231.843 147.369 232.174 147.518C232.505 147.667 232.894 147.742 233.342 147.742C233.918 147.742 234.387 147.609 234.75 147.342C235.123 147.075 235.369 146.67 235.486 146.126H236.83Z" fill="white"/>
<mask id="path-6-inside-2_61394_167954" fill="white">
<path d="M334.5 119.25H441.5V167.25H334.5V119.25Z"/>
</mask>
<path d="M334.5 119.25V118.25H333.5V119.25H334.5ZM441.5 119.25H442.5V118.25H441.5V119.25ZM441.5 167.25V168.25H442.5V167.25H441.5ZM334.5 167.25H333.5V168.25H334.5V167.25ZM334.5 119.25V120.25H441.5V119.25V118.25H334.5V119.25ZM441.5 119.25H440.5V167.25H441.5H442.5V119.25H441.5ZM441.5 167.25V166.25H334.5V167.25V168.25H441.5V167.25ZM334.5 167.25H335.5V119.25H334.5H333.5V167.25H334.5Z" fill="white" mask="url(#path-6-inside-2_61394_167954)"/>
<path d="M367.821 137.826H370.333V147.138H375.901V149.25H367.821V137.826ZM377.17 143.522C377.202 142.989 377.335 142.546 377.57 142.194C377.804 141.842 378.103 141.559 378.466 141.346C378.828 141.133 379.234 140.983 379.682 140.898C380.14 140.802 380.599 140.754 381.058 140.754C381.474 140.754 381.895 140.786 382.322 140.85C382.748 140.903 383.138 141.015 383.49 141.186C383.842 141.357 384.13 141.597 384.354 141.906C384.578 142.205 384.69 142.605 384.69 143.106V147.41C384.69 147.783 384.711 148.141 384.754 148.482C384.796 148.823 384.871 149.079 384.978 149.25H382.674C382.631 149.122 382.594 148.994 382.562 148.866C382.54 148.727 382.524 148.589 382.514 148.45C382.151 148.823 381.724 149.085 381.234 149.234C380.743 149.383 380.242 149.458 379.73 149.458C379.335 149.458 378.967 149.41 378.626 149.314C378.284 149.218 377.986 149.069 377.73 148.866C377.474 148.663 377.271 148.407 377.122 148.098C376.983 147.789 376.914 147.421 376.914 146.994C376.914 146.525 376.994 146.141 377.154 145.842C377.324 145.533 377.538 145.287 377.794 145.106C378.06 144.925 378.359 144.791 378.69 144.706C379.031 144.61 379.372 144.535 379.714 144.482C380.055 144.429 380.391 144.386 380.722 144.354C381.052 144.322 381.346 144.274 381.602 144.21C381.858 144.146 382.06 144.055 382.21 143.938C382.359 143.81 382.428 143.629 382.418 143.394C382.418 143.149 382.375 142.957 382.29 142.818C382.215 142.669 382.108 142.557 381.97 142.482C381.842 142.397 381.687 142.343 381.506 142.322C381.335 142.29 381.148 142.274 380.946 142.274C380.498 142.274 380.146 142.37 379.89 142.562C379.634 142.754 379.484 143.074 379.442 143.522H377.17ZM382.418 145.202C382.322 145.287 382.199 145.357 382.05 145.41C381.911 145.453 381.756 145.49 381.586 145.522C381.426 145.554 381.255 145.581 381.074 145.602C380.892 145.623 380.711 145.65 380.53 145.682C380.359 145.714 380.188 145.757 380.018 145.81C379.858 145.863 379.714 145.938 379.586 146.034C379.468 146.119 379.372 146.231 379.298 146.37C379.223 146.509 379.186 146.685 379.186 146.898C379.186 147.101 379.223 147.271 379.298 147.41C379.372 147.549 379.474 147.661 379.602 147.746C379.73 147.821 379.879 147.874 380.05 147.906C380.22 147.938 380.396 147.954 380.578 147.954C381.026 147.954 381.372 147.879 381.618 147.73C381.863 147.581 382.044 147.405 382.162 147.202C382.279 146.989 382.348 146.775 382.37 146.562C382.402 146.349 382.418 146.178 382.418 146.05V145.202ZM392.717 145.122C392.717 144.77 392.68 144.434 392.605 144.114C392.53 143.794 392.413 143.511 392.253 143.266C392.093 143.021 391.89 142.829 391.645 142.69C391.41 142.541 391.122 142.466 390.781 142.466C390.45 142.466 390.162 142.541 389.917 142.69C389.672 142.829 389.469 143.021 389.309 143.266C389.149 143.511 389.032 143.794 388.957 144.114C388.882 144.434 388.845 144.77 388.845 145.122C388.845 145.463 388.882 145.794 388.957 146.114C389.032 146.434 389.149 146.717 389.309 146.962C389.469 147.207 389.672 147.405 389.917 147.554C390.162 147.693 390.45 147.762 390.781 147.762C391.122 147.762 391.41 147.693 391.645 147.554C391.89 147.405 392.093 147.207 392.253 146.962C392.413 146.717 392.53 146.434 392.605 146.114C392.68 145.794 392.717 145.463 392.717 145.122ZM386.653 137.826H388.925V141.986H388.957C389.234 141.559 389.608 141.25 390.077 141.058C390.557 140.855 391.053 140.754 391.565 140.754C391.981 140.754 392.392 140.839 392.797 141.01C393.202 141.181 393.565 141.442 393.885 141.794C394.216 142.146 394.482 142.599 394.685 143.154C394.888 143.698 394.989 144.349 394.989 145.106C394.989 145.863 394.888 146.519 394.685 147.074C394.482 147.618 394.216 148.066 393.885 148.418C393.565 148.77 393.202 149.031 392.797 149.202C392.392 149.373 391.981 149.458 391.565 149.458C390.957 149.458 390.413 149.362 389.933 149.17C389.453 148.978 389.09 148.653 388.845 148.194H388.813V149.25H386.653V137.826ZM402.202 144.226C402.096 143.65 401.904 143.213 401.626 142.914C401.36 142.615 400.949 142.466 400.394 142.466C400.032 142.466 399.728 142.53 399.482 142.658C399.248 142.775 399.056 142.925 398.906 143.106C398.768 143.287 398.666 143.479 398.602 143.682C398.549 143.885 398.517 144.066 398.506 144.226H402.202ZM398.506 145.666C398.538 146.402 398.725 146.935 399.066 147.266C399.408 147.597 399.898 147.762 400.538 147.762C400.997 147.762 401.392 147.65 401.722 147.426C402.053 147.191 402.256 146.946 402.33 146.69H404.33C404.01 147.682 403.52 148.391 402.858 148.818C402.197 149.245 401.397 149.458 400.458 149.458C399.808 149.458 399.221 149.357 398.698 149.154C398.176 148.941 397.733 148.642 397.37 148.258C397.008 147.874 396.725 147.415 396.522 146.882C396.33 146.349 396.234 145.762 396.234 145.122C396.234 144.503 396.336 143.927 396.538 143.394C396.741 142.861 397.029 142.402 397.402 142.018C397.776 141.623 398.218 141.314 398.73 141.09C399.253 140.866 399.829 140.754 400.458 140.754C401.162 140.754 401.776 140.893 402.298 141.17C402.821 141.437 403.248 141.799 403.578 142.258C403.92 142.717 404.165 143.239 404.314 143.826C404.464 144.413 404.517 145.026 404.474 145.666H398.506ZM406.086 137.826H408.358V149.25H406.086V137.826Z" fill="white"/>
</svg>
