<svg width="600" height="372" viewBox="0 0 600 372" fill="none" xmlns="http://www.w3.org/2000/svg">
<rect width="600" height="372" fill="black" fill-opacity="0.04"/>
<path d="M101.248 121.076H108.752V122.356H102.768V125.988H108.016V127.268H102.768V132.5H101.248V121.076ZM117.54 132.468C117.305 132.607 116.98 132.676 116.564 132.676C116.212 132.676 115.929 132.58 115.716 132.388C115.513 132.185 115.412 131.86 115.412 131.412C115.038 131.86 114.601 132.185 114.1 132.388C113.609 132.58 113.076 132.676 112.5 132.676C112.126 132.676 111.769 132.633 111.428 132.548C111.097 132.463 110.809 132.329 110.564 132.148C110.318 131.967 110.121 131.732 109.972 131.444C109.833 131.145 109.764 130.788 109.764 130.372C109.764 129.903 109.844 129.519 110.004 129.22C110.164 128.921 110.372 128.681 110.628 128.5C110.894 128.308 111.193 128.164 111.524 128.068C111.865 127.972 112.212 127.892 112.564 127.828C112.937 127.753 113.289 127.7 113.62 127.668C113.961 127.625 114.26 127.572 114.516 127.508C114.772 127.433 114.974 127.332 115.124 127.204C115.273 127.065 115.348 126.868 115.348 126.612C115.348 126.313 115.289 126.073 115.172 125.892C115.065 125.711 114.921 125.572 114.74 125.476C114.569 125.38 114.372 125.316 114.148 125.284C113.934 125.252 113.721 125.236 113.508 125.236C112.932 125.236 112.452 125.348 112.068 125.572C111.684 125.785 111.476 126.196 111.444 126.804H110.084C110.105 126.292 110.212 125.86 110.404 125.508C110.596 125.156 110.852 124.873 111.172 124.66C111.492 124.436 111.854 124.276 112.26 124.18C112.676 124.084 113.118 124.036 113.588 124.036C113.961 124.036 114.329 124.063 114.692 124.116C115.065 124.169 115.401 124.281 115.7 124.452C115.998 124.612 116.238 124.841 116.42 125.14C116.601 125.439 116.692 125.828 116.692 126.308V130.564C116.692 130.884 116.708 131.119 116.74 131.268C116.782 131.417 116.91 131.492 117.124 131.492C117.241 131.492 117.38 131.465 117.54 131.412V132.468ZM115.332 128.228C115.161 128.356 114.937 128.452 114.66 128.516C114.382 128.569 114.089 128.617 113.78 128.66C113.481 128.692 113.177 128.735 112.868 128.788C112.558 128.831 112.281 128.905 112.036 129.012C111.79 129.119 111.588 129.273 111.428 129.476C111.278 129.668 111.204 129.935 111.204 130.276C111.204 130.5 111.246 130.692 111.332 130.852C111.428 131.001 111.545 131.124 111.684 131.22C111.833 131.316 112.004 131.385 112.196 131.428C112.388 131.471 112.59 131.492 112.804 131.492C113.252 131.492 113.636 131.433 113.956 131.316C114.276 131.188 114.537 131.033 114.74 130.852C114.942 130.66 115.092 130.457 115.188 130.244C115.284 130.02 115.332 129.812 115.332 129.62V128.228ZM118.885 121.076H120.245V132.5H118.885V121.076ZM123.184 129.892C123.195 130.191 123.264 130.447 123.392 130.66C123.52 130.863 123.685 131.028 123.888 131.156C124.101 131.273 124.336 131.359 124.592 131.412C124.859 131.465 125.131 131.492 125.408 131.492C125.621 131.492 125.845 131.476 126.08 131.444C126.315 131.412 126.528 131.353 126.72 131.268C126.923 131.183 127.088 131.06 127.216 130.9C127.344 130.729 127.408 130.516 127.408 130.26C127.408 129.908 127.275 129.641 127.008 129.46C126.741 129.279 126.405 129.135 126 129.028C125.605 128.911 125.173 128.809 124.704 128.724C124.235 128.628 123.797 128.5 123.392 128.34C122.997 128.169 122.667 127.935 122.4 127.636C122.133 127.337 122 126.921 122 126.388C122 125.972 122.091 125.615 122.272 125.316C122.464 125.017 122.704 124.777 122.992 124.596C123.291 124.404 123.621 124.265 123.984 124.18C124.357 124.084 124.725 124.036 125.088 124.036C125.557 124.036 125.989 124.079 126.384 124.164C126.779 124.239 127.125 124.377 127.424 124.58C127.733 124.772 127.979 125.039 128.16 125.38C128.341 125.711 128.448 126.127 128.48 126.628H127.12C127.099 126.361 127.029 126.143 126.912 125.972C126.795 125.791 126.645 125.647 126.464 125.54C126.283 125.433 126.08 125.359 125.856 125.316C125.643 125.263 125.424 125.236 125.2 125.236C124.997 125.236 124.789 125.252 124.576 125.284C124.373 125.316 124.187 125.375 124.016 125.46C123.845 125.535 123.707 125.641 123.6 125.78C123.493 125.908 123.44 126.079 123.44 126.292C123.44 126.527 123.52 126.724 123.68 126.884C123.851 127.033 124.064 127.161 124.32 127.268C124.576 127.364 124.864 127.449 125.184 127.524C125.504 127.588 125.824 127.657 126.144 127.732C126.485 127.807 126.816 127.897 127.136 128.004C127.467 128.111 127.755 128.255 128 128.436C128.256 128.607 128.459 128.825 128.608 129.092C128.768 129.359 128.848 129.689 128.848 130.084C128.848 130.585 128.741 131.001 128.528 131.332C128.325 131.663 128.053 131.929 127.712 132.132C127.381 132.335 127.003 132.473 126.576 132.548C126.16 132.633 125.744 132.676 125.328 132.676C124.869 132.676 124.432 132.628 124.016 132.532C123.6 132.436 123.232 132.281 122.912 132.068C122.592 131.844 122.336 131.556 122.144 131.204C121.952 130.841 121.845 130.404 121.824 129.892H123.184ZM136.096 127.572C136.075 127.252 136 126.948 135.872 126.66C135.755 126.372 135.589 126.127 135.376 125.924C135.173 125.711 134.928 125.545 134.64 125.428C134.363 125.3 134.053 125.236 133.712 125.236C133.36 125.236 133.04 125.3 132.752 125.428C132.475 125.545 132.235 125.711 132.032 125.924C131.829 126.137 131.669 126.388 131.552 126.676C131.435 126.953 131.365 127.252 131.344 127.572H136.096ZM137.408 129.876C137.227 130.804 136.827 131.503 136.208 131.972C135.589 132.441 134.811 132.676 133.872 132.676C133.211 132.676 132.635 132.569 132.144 132.356C131.664 132.143 131.259 131.844 130.928 131.46C130.597 131.076 130.347 130.617 130.176 130.084C130.016 129.551 129.925 128.969 129.904 128.34C129.904 127.711 130 127.135 130.192 126.612C130.384 126.089 130.651 125.636 130.992 125.252C131.344 124.868 131.755 124.569 132.224 124.356C132.704 124.143 133.227 124.036 133.792 124.036C134.528 124.036 135.136 124.191 135.616 124.5C136.107 124.799 136.496 125.183 136.784 125.652C137.083 126.121 137.285 126.633 137.392 127.188C137.509 127.743 137.557 128.271 137.536 128.772H131.344C131.333 129.135 131.376 129.481 131.472 129.812C131.568 130.132 131.723 130.42 131.936 130.676C132.149 130.921 132.421 131.119 132.752 131.268C133.083 131.417 133.472 131.492 133.92 131.492C134.496 131.492 134.965 131.359 135.328 131.092C135.701 130.825 135.947 130.42 136.064 129.876H137.408Z" fill="black" fill-opacity="0.68"/>
<path d="M196 103H500V151H196V103Z" fill="black" fill-opacity="0.04"/>
<path d="M213.216 121.576H215.216V131.272H221.024V133H213.216V121.576ZM229.276 131.16C229.276 131.384 229.302 131.544 229.356 131.64C229.42 131.736 229.537 131.784 229.708 131.784C229.761 131.784 229.825 131.784 229.899 131.784C229.974 131.784 230.06 131.773 230.156 131.752V133.016C230.092 133.037 230.006 133.059 229.899 133.08C229.803 133.112 229.702 133.139 229.595 133.16C229.489 133.181 229.382 133.197 229.276 133.208C229.169 133.219 229.078 133.224 229.003 133.224C228.63 133.224 228.321 133.149 228.076 133C227.83 132.851 227.67 132.589 227.595 132.216C227.233 132.568 226.785 132.824 226.252 132.984C225.729 133.144 225.222 133.224 224.731 133.224C224.358 133.224 224.001 133.171 223.659 133.064C223.318 132.968 223.014 132.824 222.747 132.632C222.491 132.429 222.283 132.179 222.123 131.88C221.974 131.571 221.899 131.213 221.899 130.808C221.899 130.296 221.99 129.88 222.171 129.56C222.363 129.24 222.609 128.989 222.907 128.808C223.217 128.627 223.558 128.499 223.931 128.424C224.315 128.339 224.699 128.275 225.083 128.232C225.414 128.168 225.729 128.125 226.028 128.104C226.326 128.072 226.588 128.024 226.812 127.96C227.046 127.896 227.228 127.8 227.356 127.672C227.494 127.533 227.563 127.331 227.563 127.064C227.563 126.829 227.505 126.637 227.388 126.488C227.281 126.339 227.142 126.227 226.971 126.152C226.812 126.067 226.63 126.013 226.428 125.992C226.225 125.96 226.033 125.944 225.852 125.944C225.339 125.944 224.918 126.051 224.587 126.264C224.257 126.477 224.07 126.808 224.027 127.256H222.203C222.235 126.723 222.363 126.28 222.587 125.928C222.811 125.576 223.094 125.293 223.435 125.08C223.787 124.867 224.182 124.717 224.619 124.632C225.057 124.547 225.505 124.504 225.964 124.504C226.369 124.504 226.769 124.547 227.164 124.632C227.558 124.717 227.91 124.856 228.22 125.048C228.54 125.24 228.796 125.491 228.988 125.8C229.18 126.099 229.276 126.467 229.276 126.904V131.16ZM227.451 128.856C227.174 129.037 226.833 129.149 226.428 129.192C226.022 129.224 225.617 129.277 225.211 129.352C225.02 129.384 224.833 129.432 224.651 129.496C224.47 129.549 224.31 129.629 224.171 129.736C224.033 129.832 223.921 129.965 223.836 130.136C223.761 130.296 223.724 130.493 223.724 130.728C223.724 130.931 223.782 131.101 223.899 131.24C224.017 131.379 224.156 131.491 224.316 131.576C224.486 131.651 224.668 131.704 224.859 131.736C225.062 131.768 225.244 131.784 225.404 131.784C225.606 131.784 225.825 131.757 226.06 131.704C226.294 131.651 226.513 131.56 226.715 131.432C226.929 131.304 227.105 131.144 227.244 130.952C227.382 130.749 227.451 130.504 227.451 130.216V128.856ZM231.486 121.576H233.31V125.8H233.342C233.47 125.597 233.625 125.416 233.806 125.256C233.987 125.096 234.185 124.963 234.398 124.856C234.622 124.739 234.851 124.653 235.086 124.6C235.331 124.536 235.571 124.504 235.806 124.504C236.457 124.504 237.022 124.621 237.502 124.856C237.993 125.08 238.398 125.395 238.718 125.8C239.038 126.195 239.278 126.659 239.438 127.192C239.598 127.725 239.678 128.296 239.678 128.904C239.678 129.459 239.603 129.997 239.454 130.52C239.315 131.043 239.097 131.507 238.798 131.912C238.51 132.307 238.142 132.627 237.694 132.872C237.246 133.107 236.718 133.224 236.11 133.224C235.833 133.224 235.55 133.203 235.262 133.16C234.985 133.128 234.718 133.059 234.462 132.952C234.206 132.845 233.971 132.707 233.758 132.536C233.555 132.365 233.385 132.141 233.246 131.864H233.214V133H231.486V121.576ZM237.854 128.872C237.854 128.499 237.806 128.136 237.71 127.784C237.614 127.432 237.47 127.123 237.278 126.856C237.086 126.579 236.846 126.36 236.558 126.2C236.27 126.029 235.939 125.944 235.566 125.944C234.798 125.944 234.217 126.211 233.822 126.744C233.438 127.277 233.246 127.987 233.246 128.872C233.246 129.288 233.294 129.677 233.39 130.04C233.497 130.392 233.651 130.696 233.854 130.952C234.057 131.208 234.297 131.411 234.574 131.56C234.862 131.709 235.193 131.784 235.566 131.784C235.982 131.784 236.334 131.699 236.622 131.528C236.91 131.357 237.145 131.139 237.326 130.872C237.518 130.595 237.651 130.285 237.726 129.944C237.811 129.592 237.854 129.235 237.854 128.872ZM247.099 128.136C247.078 127.848 247.014 127.571 246.907 127.304C246.811 127.037 246.673 126.808 246.491 126.616C246.321 126.413 246.107 126.253 245.851 126.136C245.606 126.008 245.329 125.944 245.019 125.944C244.699 125.944 244.406 126.003 244.139 126.12C243.883 126.227 243.659 126.381 243.467 126.584C243.286 126.776 243.137 127.005 243.019 127.272C242.913 127.539 242.854 127.827 242.843 128.136H247.099ZM242.843 129.336C242.843 129.656 242.886 129.965 242.971 130.264C243.067 130.563 243.206 130.824 243.387 131.048C243.569 131.272 243.798 131.453 244.075 131.592C244.353 131.72 244.683 131.784 245.067 131.784C245.601 131.784 246.027 131.672 246.347 131.448C246.678 131.213 246.923 130.867 247.083 130.408H248.811C248.715 130.856 248.55 131.256 248.315 131.608C248.081 131.96 247.798 132.259 247.467 132.504C247.137 132.739 246.763 132.915 246.347 133.032C245.942 133.16 245.515 133.224 245.067 133.224C244.417 133.224 243.841 133.117 243.339 132.904C242.838 132.691 242.411 132.392 242.059 132.008C241.718 131.624 241.457 131.165 241.275 130.632C241.105 130.099 241.019 129.512 241.019 128.872C241.019 128.285 241.11 127.731 241.291 127.208C241.483 126.675 241.75 126.211 242.091 125.816C242.443 125.411 242.865 125.091 243.355 124.856C243.846 124.621 244.401 124.504 245.019 124.504C245.67 124.504 246.251 124.643 246.763 124.92C247.286 125.187 247.718 125.544 248.059 125.992C248.401 126.44 248.646 126.957 248.795 127.544C248.955 128.12 248.998 128.717 248.923 129.336H242.843ZM250.558 121.576H252.382V133H250.558V121.576Z" fill="black"/>
<path d="M103.84 240.356H100.032V239.076H109.168V240.356H105.36V250.5H103.84V240.356ZM108.695 242.228H109.975V243.972H110.007C110.337 243.3 110.743 242.804 111.223 242.484C111.703 242.164 112.311 242.015 113.047 242.036V243.476C112.503 243.476 112.039 243.551 111.655 243.7C111.271 243.849 110.961 244.068 110.727 244.356C110.492 244.644 110.321 244.996 110.215 245.412C110.108 245.817 110.055 246.287 110.055 246.82V250.5H108.695V242.228ZM120.919 250.5H119.639V249.188H119.607C119.319 249.7 118.951 250.079 118.503 250.324C118.055 250.559 117.527 250.676 116.919 250.676C116.375 250.676 115.922 250.607 115.559 250.468C115.196 250.319 114.903 250.111 114.679 249.844C114.455 249.577 114.295 249.263 114.199 248.9C114.114 248.527 114.071 248.116 114.071 247.668V242.228H115.431V247.828C115.431 248.34 115.58 248.745 115.879 249.044C116.178 249.343 116.588 249.492 117.111 249.492C117.527 249.492 117.884 249.428 118.183 249.3C118.492 249.172 118.748 248.991 118.951 248.756C119.154 248.521 119.303 248.249 119.399 247.94C119.506 247.62 119.559 247.273 119.559 246.9V242.228H120.919V250.5ZM128.706 245.572C128.684 245.252 128.61 244.948 128.482 244.66C128.364 244.372 128.199 244.127 127.986 243.924C127.783 243.711 127.538 243.545 127.25 243.428C126.972 243.3 126.663 243.236 126.322 243.236C125.97 243.236 125.65 243.3 125.362 243.428C125.084 243.545 124.844 243.711 124.642 243.924C124.439 244.137 124.279 244.388 124.162 244.676C124.044 244.953 123.975 245.252 123.954 245.572H128.706ZM130.017 247.876C129.836 248.804 129.436 249.503 128.818 249.972C128.199 250.441 127.42 250.676 126.482 250.676C125.82 250.676 125.244 250.569 124.754 250.356C124.274 250.143 123.868 249.844 123.538 249.46C123.207 249.076 122.956 248.617 122.786 248.084C122.626 247.551 122.535 246.969 122.514 246.34C122.514 245.711 122.61 245.135 122.802 244.612C122.994 244.089 123.26 243.636 123.602 243.252C123.954 242.868 124.364 242.569 124.834 242.356C125.314 242.143 125.836 242.036 126.402 242.036C127.138 242.036 127.746 242.191 128.226 242.5C128.716 242.799 129.106 243.183 129.394 243.652C129.692 244.121 129.895 244.633 130.002 245.188C130.119 245.743 130.167 246.271 130.146 246.772H123.954C123.943 247.135 123.986 247.481 124.082 247.812C124.178 248.132 124.332 248.42 124.546 248.676C124.759 248.921 125.031 249.119 125.362 249.268C125.692 249.417 126.082 249.492 126.53 249.492C127.106 249.492 127.575 249.359 127.938 249.092C128.311 248.825 128.556 248.42 128.674 247.876H130.017Z" fill="black" fill-opacity="0.68"/>
<path d="M196 221H500V269H196V221Z" fill="black" fill-opacity="0.04"/>
<path fill-rule="evenodd" clip-rule="evenodd" d="M230.4 244.242L224 251.247L217.6 244.242L217.597 244.239C216.357 242.879 216.468 240.784 217.844 239.56C219.169 238.38 221.198 238.432 222.459 239.679C222.462 239.682 222.466 239.685 222.469 239.688L223.448 240.608L224 241.133L224.552 240.608L225.531 239.688C225.534 239.685 225.538 239.682 225.541 239.679C226.169 239.055 227.022 238.706 227.912 238.708C229.763 238.708 231.265 240.191 231.265 242.021C231.265 242.84 230.958 243.63 230.403 244.239L230.4 244.242ZM231.864 238.117C229.694 235.974 226.186 235.961 224 238.079C221.815 235.961 218.306 235.974 216.137 238.117C213.99 240.238 213.955 243.656 216.032 245.819L224 254.5L231.968 245.819C234.045 243.656 234.01 240.238 231.864 238.117Z" fill="black"/>
<path d="M249.216 239.576H251.216V249.272H257.024V251H249.216V239.576ZM265.276 249.16C265.276 249.384 265.302 249.544 265.356 249.64C265.42 249.736 265.537 249.784 265.708 249.784C265.761 249.784 265.825 249.784 265.899 249.784C265.974 249.784 266.06 249.773 266.156 249.752V251.016C266.092 251.037 266.006 251.059 265.899 251.08C265.803 251.112 265.702 251.139 265.595 251.16C265.489 251.181 265.382 251.197 265.276 251.208C265.169 251.219 265.078 251.224 265.003 251.224C264.63 251.224 264.321 251.149 264.076 251C263.83 250.851 263.67 250.589 263.595 250.216C263.233 250.568 262.785 250.824 262.252 250.984C261.729 251.144 261.222 251.224 260.731 251.224C260.358 251.224 260.001 251.171 259.659 251.064C259.318 250.968 259.014 250.824 258.747 250.632C258.491 250.429 258.283 250.179 258.123 249.88C257.974 249.571 257.899 249.213 257.899 248.808C257.899 248.296 257.99 247.88 258.171 247.56C258.363 247.24 258.609 246.989 258.907 246.808C259.217 246.627 259.558 246.499 259.931 246.424C260.315 246.339 260.699 246.275 261.083 246.232C261.414 246.168 261.729 246.125 262.028 246.104C262.326 246.072 262.588 246.024 262.812 245.96C263.046 245.896 263.228 245.8 263.356 245.672C263.494 245.533 263.563 245.331 263.563 245.064C263.563 244.829 263.505 244.637 263.388 244.488C263.281 244.339 263.142 244.227 262.971 244.152C262.812 244.067 262.63 244.013 262.428 243.992C262.225 243.96 262.033 243.944 261.852 243.944C261.339 243.944 260.918 244.051 260.587 244.264C260.257 244.477 260.07 244.808 260.027 245.256H258.203C258.235 244.723 258.363 244.28 258.587 243.928C258.811 243.576 259.094 243.293 259.435 243.08C259.787 242.867 260.182 242.717 260.619 242.632C261.057 242.547 261.505 242.504 261.964 242.504C262.369 242.504 262.769 242.547 263.164 242.632C263.558 242.717 263.91 242.856 264.22 243.048C264.54 243.24 264.796 243.491 264.988 243.8C265.18 244.099 265.276 244.467 265.276 244.904V249.16ZM263.451 246.856C263.174 247.037 262.833 247.149 262.428 247.192C262.022 247.224 261.617 247.277 261.211 247.352C261.02 247.384 260.833 247.432 260.651 247.496C260.47 247.549 260.31 247.629 260.171 247.736C260.033 247.832 259.921 247.965 259.836 248.136C259.761 248.296 259.724 248.493 259.724 248.728C259.724 248.931 259.782 249.101 259.899 249.24C260.017 249.379 260.156 249.491 260.316 249.576C260.486 249.651 260.668 249.704 260.859 249.736C261.062 249.768 261.244 249.784 261.404 249.784C261.606 249.784 261.825 249.757 262.06 249.704C262.294 249.651 262.513 249.56 262.715 249.432C262.929 249.304 263.105 249.144 263.244 248.952C263.382 248.749 263.451 248.504 263.451 248.216V246.856ZM267.486 239.576H269.31V243.8H269.342C269.47 243.597 269.625 243.416 269.806 243.256C269.987 243.096 270.185 242.963 270.398 242.856C270.622 242.739 270.851 242.653 271.086 242.6C271.331 242.536 271.571 242.504 271.806 242.504C272.457 242.504 273.022 242.621 273.502 242.856C273.993 243.08 274.398 243.395 274.718 243.8C275.038 244.195 275.278 244.659 275.438 245.192C275.598 245.725 275.678 246.296 275.678 246.904C275.678 247.459 275.603 247.997 275.454 248.52C275.315 249.043 275.097 249.507 274.798 249.912C274.51 250.307 274.142 250.627 273.694 250.872C273.246 251.107 272.718 251.224 272.11 251.224C271.833 251.224 271.55 251.203 271.262 251.16C270.985 251.128 270.718 251.059 270.462 250.952C270.206 250.845 269.971 250.707 269.758 250.536C269.555 250.365 269.385 250.141 269.246 249.864H269.214V251H267.486V239.576ZM273.854 246.872C273.854 246.499 273.806 246.136 273.71 245.784C273.614 245.432 273.47 245.123 273.278 244.856C273.086 244.579 272.846 244.36 272.558 244.2C272.27 244.029 271.939 243.944 271.566 243.944C270.798 243.944 270.217 244.211 269.822 244.744C269.438 245.277 269.246 245.987 269.246 246.872C269.246 247.288 269.294 247.677 269.39 248.04C269.497 248.392 269.651 248.696 269.854 248.952C270.057 249.208 270.297 249.411 270.574 249.56C270.862 249.709 271.193 249.784 271.566 249.784C271.982 249.784 272.334 249.699 272.622 249.528C272.91 249.357 273.145 249.139 273.326 248.872C273.518 248.595 273.651 248.285 273.726 247.944C273.811 247.592 273.854 247.235 273.854 246.872ZM283.099 246.136C283.078 245.848 283.014 245.571 282.907 245.304C282.811 245.037 282.673 244.808 282.491 244.616C282.321 244.413 282.107 244.253 281.851 244.136C281.606 244.008 281.329 243.944 281.019 243.944C280.699 243.944 280.406 244.003 280.139 244.12C279.883 244.227 279.659 244.381 279.467 244.584C279.286 244.776 279.137 245.005 279.019 245.272C278.913 245.539 278.854 245.827 278.843 246.136H283.099ZM278.843 247.336C278.843 247.656 278.886 247.965 278.971 248.264C279.067 248.563 279.206 248.824 279.387 249.048C279.569 249.272 279.798 249.453 280.075 249.592C280.353 249.72 280.683 249.784 281.067 249.784C281.601 249.784 282.027 249.672 282.347 249.448C282.678 249.213 282.923 248.867 283.083 248.408H284.811C284.715 248.856 284.55 249.256 284.315 249.608C284.081 249.96 283.798 250.259 283.467 250.504C283.137 250.739 282.763 250.915 282.347 251.032C281.942 251.16 281.515 251.224 281.067 251.224C280.417 251.224 279.841 251.117 279.339 250.904C278.838 250.691 278.411 250.392 278.059 250.008C277.718 249.624 277.457 249.165 277.275 248.632C277.105 248.099 277.019 247.512 277.019 246.872C277.019 246.285 277.11 245.731 277.291 245.208C277.483 244.675 277.75 244.211 278.091 243.816C278.443 243.411 278.865 243.091 279.355 242.856C279.846 242.621 280.401 242.504 281.019 242.504C281.67 242.504 282.251 242.643 282.763 242.92C283.286 243.187 283.718 243.544 284.059 243.992C284.401 244.44 284.646 244.957 284.795 245.544C284.955 246.12 284.998 246.717 284.923 247.336H278.843ZM286.558 239.576H288.382V251H286.558V239.576Z" fill="black"/>
</svg>
