<svg width="600" height="516" viewBox="0 0 600 516" fill="none" xmlns="http://www.w3.org/2000/svg">
<rect width="600" height="516" fill="black" fill-opacity="0.04"/>
<path d="M100 100H500V200H100V100Z" fill="black" fill-opacity="0.04"/>
<path fill-rule="evenodd" clip-rule="evenodd" d="M134.4 123.242L128 130.247L121.6 123.242L121.597 123.239C120.357 121.879 120.468 119.784 121.844 118.56C123.169 117.38 125.198 117.432 126.459 118.679C126.462 118.682 126.466 118.685 126.469 118.688L127.448 119.608L128 120.133L128.552 119.608L129.531 118.688C129.534 118.685 129.538 118.682 129.541 118.679C130.169 118.055 131.022 117.706 131.912 117.708C133.763 117.708 135.265 119.191 135.265 121.021C135.265 121.84 134.958 122.63 134.403 123.239L134.4 123.242ZM135.864 117.117C133.694 114.974 130.186 114.961 128 117.079C125.815 114.961 122.306 114.974 120.137 117.117C117.99 119.238 117.955 122.656 120.032 124.819L128 133.5L135.968 124.819C138.045 122.656 138.01 119.238 135.864 117.117Z" fill="black"/>
<path d="M153.216 118.576H155.216V128.272H161.024V130H153.216V118.576ZM169.276 128.16C169.276 128.384 169.302 128.544 169.356 128.64C169.42 128.736 169.537 128.784 169.708 128.784C169.761 128.784 169.825 128.784 169.899 128.784C169.974 128.784 170.06 128.773 170.156 128.752V130.016C170.092 130.037 170.006 130.059 169.899 130.08C169.803 130.112 169.702 130.139 169.595 130.16C169.489 130.181 169.382 130.197 169.276 130.208C169.169 130.219 169.078 130.224 169.003 130.224C168.63 130.224 168.321 130.149 168.076 130C167.83 129.851 167.67 129.589 167.595 129.216C167.233 129.568 166.785 129.824 166.252 129.984C165.729 130.144 165.222 130.224 164.731 130.224C164.358 130.224 164.001 130.171 163.659 130.064C163.318 129.968 163.014 129.824 162.747 129.632C162.491 129.429 162.283 129.179 162.123 128.88C161.974 128.571 161.899 128.213 161.899 127.808C161.899 127.296 161.99 126.88 162.171 126.56C162.363 126.24 162.609 125.989 162.907 125.808C163.217 125.627 163.558 125.499 163.931 125.424C164.315 125.339 164.699 125.275 165.083 125.232C165.414 125.168 165.729 125.125 166.028 125.104C166.326 125.072 166.588 125.024 166.812 124.96C167.046 124.896 167.228 124.8 167.356 124.672C167.494 124.533 167.563 124.331 167.563 124.064C167.563 123.829 167.505 123.637 167.388 123.488C167.281 123.339 167.142 123.227 166.971 123.152C166.812 123.067 166.63 123.013 166.428 122.992C166.225 122.96 166.033 122.944 165.852 122.944C165.339 122.944 164.918 123.051 164.587 123.264C164.257 123.477 164.07 123.808 164.027 124.256H162.203C162.235 123.723 162.363 123.28 162.587 122.928C162.811 122.576 163.094 122.293 163.435 122.08C163.787 121.867 164.182 121.717 164.619 121.632C165.057 121.547 165.505 121.504 165.964 121.504C166.369 121.504 166.769 121.547 167.164 121.632C167.558 121.717 167.91 121.856 168.22 122.048C168.54 122.24 168.796 122.491 168.988 122.8C169.18 123.099 169.276 123.467 169.276 123.904V128.16ZM167.451 125.856C167.174 126.037 166.833 126.149 166.428 126.192C166.022 126.224 165.617 126.277 165.211 126.352C165.02 126.384 164.833 126.432 164.651 126.496C164.47 126.549 164.31 126.629 164.171 126.736C164.033 126.832 163.921 126.965 163.836 127.136C163.761 127.296 163.724 127.493 163.724 127.728C163.724 127.931 163.782 128.101 163.899 128.24C164.017 128.379 164.156 128.491 164.316 128.576C164.486 128.651 164.668 128.704 164.859 128.736C165.062 128.768 165.244 128.784 165.404 128.784C165.606 128.784 165.825 128.757 166.06 128.704C166.294 128.651 166.513 128.56 166.715 128.432C166.929 128.304 167.105 128.144 167.244 127.952C167.382 127.749 167.451 127.504 167.451 127.216V125.856ZM171.486 118.576H173.31V122.8H173.342C173.47 122.597 173.625 122.416 173.806 122.256C173.987 122.096 174.185 121.963 174.398 121.856C174.622 121.739 174.851 121.653 175.086 121.6C175.331 121.536 175.571 121.504 175.806 121.504C176.457 121.504 177.022 121.621 177.502 121.856C177.993 122.08 178.398 122.395 178.718 122.8C179.038 123.195 179.278 123.659 179.438 124.192C179.598 124.725 179.678 125.296 179.678 125.904C179.678 126.459 179.603 126.997 179.454 127.52C179.315 128.043 179.097 128.507 178.798 128.912C178.51 129.307 178.142 129.627 177.694 129.872C177.246 130.107 176.718 130.224 176.11 130.224C175.833 130.224 175.55 130.203 175.262 130.16C174.985 130.128 174.718 130.059 174.462 129.952C174.206 129.845 173.971 129.707 173.758 129.536C173.555 129.365 173.385 129.141 173.246 128.864H173.214V130H171.486V118.576ZM177.854 125.872C177.854 125.499 177.806 125.136 177.71 124.784C177.614 124.432 177.47 124.123 177.278 123.856C177.086 123.579 176.846 123.36 176.558 123.2C176.27 123.029 175.939 122.944 175.566 122.944C174.798 122.944 174.217 123.211 173.822 123.744C173.438 124.277 173.246 124.987 173.246 125.872C173.246 126.288 173.294 126.677 173.39 127.04C173.497 127.392 173.651 127.696 173.854 127.952C174.057 128.208 174.297 128.411 174.574 128.56C174.862 128.709 175.193 128.784 175.566 128.784C175.982 128.784 176.334 128.699 176.622 128.528C176.91 128.357 177.145 128.139 177.326 127.872C177.518 127.595 177.651 127.285 177.726 126.944C177.811 126.592 177.854 126.235 177.854 125.872ZM187.099 125.136C187.078 124.848 187.014 124.571 186.907 124.304C186.811 124.037 186.673 123.808 186.491 123.616C186.321 123.413 186.107 123.253 185.851 123.136C185.606 123.008 185.329 122.944 185.019 122.944C184.699 122.944 184.406 123.003 184.139 123.12C183.883 123.227 183.659 123.381 183.467 123.584C183.286 123.776 183.137 124.005 183.019 124.272C182.913 124.539 182.854 124.827 182.843 125.136H187.099ZM182.843 126.336C182.843 126.656 182.886 126.965 182.971 127.264C183.067 127.563 183.206 127.824 183.387 128.048C183.569 128.272 183.798 128.453 184.075 128.592C184.353 128.72 184.683 128.784 185.067 128.784C185.601 128.784 186.027 128.672 186.347 128.448C186.678 128.213 186.923 127.867 187.083 127.408H188.811C188.715 127.856 188.55 128.256 188.315 128.608C188.081 128.96 187.798 129.259 187.467 129.504C187.137 129.739 186.763 129.915 186.347 130.032C185.942 130.16 185.515 130.224 185.067 130.224C184.417 130.224 183.841 130.117 183.339 129.904C182.838 129.691 182.411 129.392 182.059 129.008C181.718 128.624 181.457 128.165 181.275 127.632C181.105 127.099 181.019 126.512 181.019 125.872C181.019 125.285 181.11 124.731 181.291 124.208C181.483 123.675 181.75 123.211 182.091 122.816C182.443 122.411 182.865 122.091 183.355 121.856C183.846 121.621 184.401 121.504 185.019 121.504C185.67 121.504 186.251 121.643 186.763 121.92C187.286 122.187 187.718 122.544 188.059 122.992C188.401 123.44 188.646 123.957 188.795 124.544C188.955 125.12 188.998 125.717 188.923 126.336H182.843ZM190.558 118.576H192.382V130H190.558V118.576Z" fill="black"/>
<path d="M155.984 165.584H158.944L157.504 161.392H157.472L155.984 165.584ZM156.224 158.576H158.8L163.072 170H160.464L159.6 167.456H155.328L154.432 170H151.904L156.224 158.576ZM169.649 164.64C169.5 163.691 168.94 163.216 167.969 163.216C167.606 163.216 167.302 163.301 167.057 163.472C166.812 163.632 166.609 163.845 166.449 164.112C166.3 164.368 166.193 164.656 166.129 164.976C166.065 165.285 166.033 165.595 166.033 165.904C166.033 166.203 166.065 166.507 166.129 166.816C166.193 167.125 166.294 167.408 166.433 167.664C166.582 167.909 166.78 168.112 167.025 168.272C167.27 168.432 167.569 168.512 167.921 168.512C168.465 168.512 168.881 168.363 169.169 168.064C169.468 167.755 169.654 167.344 169.729 166.832H171.921C171.772 167.931 171.345 168.768 170.641 169.344C169.937 169.92 169.036 170.208 167.937 170.208C167.318 170.208 166.748 170.107 166.225 169.904C165.713 169.691 165.276 169.397 164.913 169.024C164.55 168.651 164.268 168.208 164.065 167.696C163.862 167.173 163.761 166.603 163.761 165.984C163.761 165.344 163.852 164.752 164.033 164.208C164.225 163.653 164.502 163.179 164.865 162.784C165.228 162.379 165.67 162.064 166.193 161.84C166.716 161.616 167.313 161.504 167.985 161.504C168.476 161.504 168.945 161.568 169.393 161.696C169.852 161.824 170.257 162.021 170.609 162.288C170.972 162.544 171.265 162.869 171.489 163.264C171.713 163.648 171.841 164.107 171.873 164.64H169.649ZM176.285 161.728H177.949V163.248H176.285V167.344C176.285 167.728 176.349 167.984 176.477 168.112C176.605 168.24 176.861 168.304 177.245 168.304C177.373 168.304 177.495 168.299 177.613 168.288C177.73 168.277 177.842 168.261 177.949 168.24V170C177.757 170.032 177.543 170.053 177.309 170.064C177.074 170.075 176.845 170.08 176.621 170.08C176.269 170.08 175.933 170.053 175.613 170C175.303 169.957 175.026 169.867 174.781 169.728C174.546 169.589 174.359 169.392 174.221 169.136C174.082 168.88 174.013 168.544 174.013 168.128V163.248H172.637V161.728H174.013V159.248H176.285V161.728ZM181.566 160.448H179.294V158.576H181.566V160.448ZM179.294 161.728H181.566V170H179.294V161.728ZM185.571 165.872C185.571 166.203 185.603 166.528 185.667 166.848C185.731 167.157 185.837 167.44 185.987 167.696C186.147 167.941 186.355 168.139 186.611 168.288C186.867 168.437 187.187 168.512 187.571 168.512C187.955 168.512 188.275 168.437 188.531 168.288C188.797 168.139 189.005 167.941 189.155 167.696C189.315 167.44 189.427 167.157 189.491 166.848C189.555 166.528 189.587 166.203 189.587 165.872C189.587 165.541 189.555 165.216 189.491 164.896C189.427 164.576 189.315 164.293 189.155 164.048C189.005 163.803 188.797 163.605 188.531 163.456C188.275 163.296 187.955 163.216 187.571 163.216C187.187 163.216 186.867 163.296 186.611 163.456C186.355 163.605 186.147 163.803 185.987 164.048C185.837 164.293 185.731 164.576 185.667 164.896C185.603 165.216 185.571 165.541 185.571 165.872ZM183.299 165.872C183.299 165.211 183.4 164.613 183.603 164.08C183.805 163.536 184.093 163.077 184.467 162.704C184.84 162.32 185.288 162.027 185.811 161.824C186.333 161.611 186.92 161.504 187.571 161.504C188.221 161.504 188.808 161.611 189.331 161.824C189.864 162.027 190.317 162.32 190.691 162.704C191.064 163.077 191.352 163.536 191.555 164.08C191.757 164.613 191.859 165.211 191.859 165.872C191.859 166.533 191.757 167.131 191.555 167.664C191.352 168.197 191.064 168.656 190.691 169.04C190.317 169.413 189.864 169.701 189.331 169.904C188.808 170.107 188.221 170.208 187.571 170.208C186.92 170.208 186.333 170.107 185.811 169.904C185.288 169.701 184.84 169.413 184.467 169.04C184.093 168.656 183.805 168.197 183.603 167.664C183.4 167.131 183.299 166.533 183.299 165.872ZM193.536 161.728H195.696V162.88H195.744C196.032 162.4 196.405 162.053 196.864 161.84C197.323 161.616 197.792 161.504 198.272 161.504C198.88 161.504 199.376 161.589 199.76 161.76C200.155 161.92 200.464 162.149 200.688 162.448C200.912 162.736 201.067 163.093 201.152 163.52C201.248 163.936 201.296 164.4 201.296 164.912V170H199.024V165.328C199.024 164.645 198.917 164.139 198.704 163.808C198.491 163.467 198.112 163.296 197.568 163.296C196.949 163.296 196.501 163.483 196.224 163.856C195.947 164.219 195.808 164.821 195.808 165.664V170H193.536V161.728Z" fill="black"/>
<path d="M152 172H202.16V172.8H152V172Z" fill="black"/>
<path d="M100 260H500V308H100V260Z" fill="black" fill-opacity="0.04"/>
<path fill-rule="evenodd" clip-rule="evenodd" d="M134.4 283.242L128 290.247L121.6 283.242L121.597 283.239C120.357 281.879 120.468 279.784 121.844 278.56C123.169 277.38 125.198 277.432 126.459 278.679C126.462 278.682 126.466 278.685 126.469 278.688L127.448 279.608L128 280.133L128.552 279.608L129.531 278.688C129.534 278.685 129.538 278.682 129.541 278.679C130.169 278.055 131.022 277.706 131.912 277.708C133.763 277.708 135.265 279.191 135.265 281.021C135.265 281.84 134.958 282.63 134.403 283.239L134.4 283.242ZM135.864 277.117C133.694 274.974 130.186 274.961 128 277.079C125.815 274.961 122.306 274.974 120.137 277.117C117.99 279.238 117.955 282.656 120.032 284.819L128 293.5L135.968 284.819C138.045 282.656 138.01 279.238 135.864 277.117Z" fill="black"/>
<path d="M153.216 278.576H155.216V288.272H161.024V290H153.216V278.576ZM169.276 288.16C169.276 288.384 169.302 288.544 169.356 288.64C169.42 288.736 169.537 288.784 169.708 288.784C169.761 288.784 169.825 288.784 169.899 288.784C169.974 288.784 170.06 288.773 170.156 288.752V290.016C170.092 290.037 170.006 290.059 169.899 290.08C169.803 290.112 169.702 290.139 169.595 290.16C169.489 290.181 169.382 290.197 169.276 290.208C169.169 290.219 169.078 290.224 169.003 290.224C168.63 290.224 168.321 290.149 168.076 290C167.83 289.851 167.67 289.589 167.595 289.216C167.233 289.568 166.785 289.824 166.252 289.984C165.729 290.144 165.222 290.224 164.731 290.224C164.358 290.224 164.001 290.171 163.659 290.064C163.318 289.968 163.014 289.824 162.747 289.632C162.491 289.429 162.283 289.179 162.123 288.88C161.974 288.571 161.899 288.213 161.899 287.808C161.899 287.296 161.99 286.88 162.171 286.56C162.363 286.24 162.609 285.989 162.907 285.808C163.217 285.627 163.558 285.499 163.931 285.424C164.315 285.339 164.699 285.275 165.083 285.232C165.414 285.168 165.729 285.125 166.028 285.104C166.326 285.072 166.588 285.024 166.812 284.96C167.046 284.896 167.228 284.8 167.356 284.672C167.494 284.533 167.563 284.331 167.563 284.064C167.563 283.829 167.505 283.637 167.388 283.488C167.281 283.339 167.142 283.227 166.971 283.152C166.812 283.067 166.63 283.013 166.428 282.992C166.225 282.96 166.033 282.944 165.852 282.944C165.339 282.944 164.918 283.051 164.587 283.264C164.257 283.477 164.07 283.808 164.027 284.256H162.203C162.235 283.723 162.363 283.28 162.587 282.928C162.811 282.576 163.094 282.293 163.435 282.08C163.787 281.867 164.182 281.717 164.619 281.632C165.057 281.547 165.505 281.504 165.964 281.504C166.369 281.504 166.769 281.547 167.164 281.632C167.558 281.717 167.91 281.856 168.22 282.048C168.54 282.24 168.796 282.491 168.988 282.8C169.18 283.099 169.276 283.467 169.276 283.904V288.16ZM167.451 285.856C167.174 286.037 166.833 286.149 166.428 286.192C166.022 286.224 165.617 286.277 165.211 286.352C165.02 286.384 164.833 286.432 164.651 286.496C164.47 286.549 164.31 286.629 164.171 286.736C164.033 286.832 163.921 286.965 163.836 287.136C163.761 287.296 163.724 287.493 163.724 287.728C163.724 287.931 163.782 288.101 163.899 288.24C164.017 288.379 164.156 288.491 164.316 288.576C164.486 288.651 164.668 288.704 164.859 288.736C165.062 288.768 165.244 288.784 165.404 288.784C165.606 288.784 165.825 288.757 166.06 288.704C166.294 288.651 166.513 288.56 166.715 288.432C166.929 288.304 167.105 288.144 167.244 287.952C167.382 287.749 167.451 287.504 167.451 287.216V285.856ZM171.486 278.576H173.31V282.8H173.342C173.47 282.597 173.625 282.416 173.806 282.256C173.987 282.096 174.185 281.963 174.398 281.856C174.622 281.739 174.851 281.653 175.086 281.6C175.331 281.536 175.571 281.504 175.806 281.504C176.457 281.504 177.022 281.621 177.502 281.856C177.993 282.08 178.398 282.395 178.718 282.8C179.038 283.195 179.278 283.659 179.438 284.192C179.598 284.725 179.678 285.296 179.678 285.904C179.678 286.459 179.603 286.997 179.454 287.52C179.315 288.043 179.097 288.507 178.798 288.912C178.51 289.307 178.142 289.627 177.694 289.872C177.246 290.107 176.718 290.224 176.11 290.224C175.833 290.224 175.55 290.203 175.262 290.16C174.985 290.128 174.718 290.059 174.462 289.952C174.206 289.845 173.971 289.707 173.758 289.536C173.555 289.365 173.385 289.141 173.246 288.864H173.214V290H171.486V278.576ZM177.854 285.872C177.854 285.499 177.806 285.136 177.71 284.784C177.614 284.432 177.47 284.123 177.278 283.856C177.086 283.579 176.846 283.36 176.558 283.2C176.27 283.029 175.939 282.944 175.566 282.944C174.798 282.944 174.217 283.211 173.822 283.744C173.438 284.277 173.246 284.987 173.246 285.872C173.246 286.288 173.294 286.677 173.39 287.04C173.497 287.392 173.651 287.696 173.854 287.952C174.057 288.208 174.297 288.411 174.574 288.56C174.862 288.709 175.193 288.784 175.566 288.784C175.982 288.784 176.334 288.699 176.622 288.528C176.91 288.357 177.145 288.139 177.326 287.872C177.518 287.595 177.651 287.285 177.726 286.944C177.811 286.592 177.854 286.235 177.854 285.872ZM187.099 285.136C187.078 284.848 187.014 284.571 186.907 284.304C186.811 284.037 186.673 283.808 186.491 283.616C186.321 283.413 186.107 283.253 185.851 283.136C185.606 283.008 185.329 282.944 185.019 282.944C184.699 282.944 184.406 283.003 184.139 283.12C183.883 283.227 183.659 283.381 183.467 283.584C183.286 283.776 183.137 284.005 183.019 284.272C182.913 284.539 182.854 284.827 182.843 285.136H187.099ZM182.843 286.336C182.843 286.656 182.886 286.965 182.971 287.264C183.067 287.563 183.206 287.824 183.387 288.048C183.569 288.272 183.798 288.453 184.075 288.592C184.353 288.72 184.683 288.784 185.067 288.784C185.601 288.784 186.027 288.672 186.347 288.448C186.678 288.213 186.923 287.867 187.083 287.408H188.811C188.715 287.856 188.55 288.256 188.315 288.608C188.081 288.96 187.798 289.259 187.467 289.504C187.137 289.739 186.763 289.915 186.347 290.032C185.942 290.16 185.515 290.224 185.067 290.224C184.417 290.224 183.841 290.117 183.339 289.904C182.838 289.691 182.411 289.392 182.059 289.008C181.718 288.624 181.457 288.165 181.275 287.632C181.105 287.099 181.019 286.512 181.019 285.872C181.019 285.285 181.11 284.731 181.291 284.208C181.483 283.675 181.75 283.211 182.091 282.816C182.443 282.411 182.865 282.091 183.355 281.856C183.846 281.621 184.401 281.504 185.019 281.504C185.67 281.504 186.251 281.643 186.763 281.92C187.286 282.187 187.718 282.544 188.059 282.992C188.401 283.44 188.646 283.957 188.795 284.544C188.955 285.12 188.998 285.717 188.923 286.336H182.843ZM190.558 278.576H192.382V290H190.558V278.576Z" fill="black"/>
<path d="M436.984 285.584H439.944L438.504 281.392H438.472L436.984 285.584ZM437.224 278.576H439.8L444.072 290H441.464L440.6 287.456H436.328L435.432 290H432.904L437.224 278.576ZM450.649 284.64C450.5 283.691 449.94 283.216 448.969 283.216C448.606 283.216 448.302 283.301 448.057 283.472C447.812 283.632 447.609 283.845 447.449 284.112C447.3 284.368 447.193 284.656 447.129 284.976C447.065 285.285 447.033 285.595 447.033 285.904C447.033 286.203 447.065 286.507 447.129 286.816C447.193 287.125 447.294 287.408 447.433 287.664C447.582 287.909 447.78 288.112 448.025 288.272C448.27 288.432 448.569 288.512 448.921 288.512C449.465 288.512 449.881 288.363 450.169 288.064C450.468 287.755 450.654 287.344 450.729 286.832H452.921C452.772 287.931 452.345 288.768 451.641 289.344C450.937 289.92 450.036 290.208 448.937 290.208C448.318 290.208 447.748 290.107 447.225 289.904C446.713 289.691 446.276 289.397 445.913 289.024C445.55 288.651 445.268 288.208 445.065 287.696C444.862 287.173 444.761 286.603 444.761 285.984C444.761 285.344 444.852 284.752 445.033 284.208C445.225 283.653 445.502 283.179 445.865 282.784C446.228 282.379 446.67 282.064 447.193 281.84C447.716 281.616 448.313 281.504 448.985 281.504C449.476 281.504 449.945 281.568 450.393 281.696C450.852 281.824 451.257 282.021 451.609 282.288C451.972 282.544 452.265 282.869 452.489 283.264C452.713 283.648 452.841 284.107 452.873 284.64H450.649ZM457.285 281.728H458.949V283.248H457.285V287.344C457.285 287.728 457.349 287.984 457.477 288.112C457.605 288.24 457.861 288.304 458.245 288.304C458.373 288.304 458.495 288.299 458.613 288.288C458.73 288.277 458.842 288.261 458.949 288.24V290C458.757 290.032 458.543 290.053 458.309 290.064C458.074 290.075 457.845 290.08 457.621 290.08C457.269 290.08 456.933 290.053 456.613 290C456.303 289.957 456.026 289.867 455.781 289.728C455.546 289.589 455.359 289.392 455.221 289.136C455.082 288.88 455.013 288.544 455.013 288.128V283.248H453.637V281.728H455.013V279.248H457.285V281.728ZM462.566 280.448H460.294V278.576H462.566V280.448ZM460.294 281.728H462.566V290H460.294V281.728ZM466.571 285.872C466.571 286.203 466.603 286.528 466.667 286.848C466.731 287.157 466.837 287.44 466.987 287.696C467.147 287.941 467.355 288.139 467.611 288.288C467.867 288.437 468.187 288.512 468.571 288.512C468.955 288.512 469.275 288.437 469.531 288.288C469.797 288.139 470.005 287.941 470.155 287.696C470.315 287.44 470.427 287.157 470.491 286.848C470.555 286.528 470.587 286.203 470.587 285.872C470.587 285.541 470.555 285.216 470.491 284.896C470.427 284.576 470.315 284.293 470.155 284.048C470.005 283.803 469.797 283.605 469.531 283.456C469.275 283.296 468.955 283.216 468.571 283.216C468.187 283.216 467.867 283.296 467.611 283.456C467.355 283.605 467.147 283.803 466.987 284.048C466.837 284.293 466.731 284.576 466.667 284.896C466.603 285.216 466.571 285.541 466.571 285.872ZM464.299 285.872C464.299 285.211 464.4 284.613 464.603 284.08C464.805 283.536 465.093 283.077 465.467 282.704C465.84 282.32 466.288 282.027 466.811 281.824C467.333 281.611 467.92 281.504 468.571 281.504C469.221 281.504 469.808 281.611 470.331 281.824C470.864 282.027 471.317 282.32 471.691 282.704C472.064 283.077 472.352 283.536 472.555 284.08C472.757 284.613 472.859 285.211 472.859 285.872C472.859 286.533 472.757 287.131 472.555 287.664C472.352 288.197 472.064 288.656 471.691 289.04C471.317 289.413 470.864 289.701 470.331 289.904C469.808 290.107 469.221 290.208 468.571 290.208C467.92 290.208 467.333 290.107 466.811 289.904C466.288 289.701 465.84 289.413 465.467 289.04C465.093 288.656 464.805 288.197 464.603 287.664C464.4 287.131 464.299 286.533 464.299 285.872ZM474.536 281.728H476.696V282.88H476.744C477.032 282.4 477.405 282.053 477.864 281.84C478.323 281.616 478.792 281.504 479.272 281.504C479.88 281.504 480.376 281.589 480.76 281.76C481.155 281.92 481.464 282.149 481.688 282.448C481.912 282.736 482.067 283.093 482.152 283.52C482.248 283.936 482.296 284.4 482.296 284.912V290H480.024V285.328C480.024 284.645 479.917 284.139 479.704 283.808C479.491 283.467 479.112 283.296 478.568 283.296C477.949 283.296 477.501 283.483 477.224 283.856C476.947 284.219 476.808 284.821 476.808 285.664V290H474.536V281.728Z" fill="black"/>
<path d="M433 292H483.16V292.8H433V292Z" fill="black"/>
<path d="M100 368H500V416H100V368Z" fill="black" fill-opacity="0.04"/>
<path fill-rule="evenodd" clip-rule="evenodd" d="M134.4 391.242L128 398.247L121.6 391.242L121.597 391.239C120.357 389.879 120.468 387.784 121.844 386.56C123.169 385.38 125.198 385.432 126.459 386.679C126.462 386.682 126.466 386.685 126.469 386.688L127.448 387.608L128 388.133L128.552 387.608L129.531 386.688C129.534 386.685 129.538 386.682 129.541 386.679C130.169 386.055 131.022 385.706 131.912 385.708C133.763 385.708 135.265 387.191 135.265 389.021C135.265 389.84 134.958 390.63 134.403 391.239L134.4 391.242ZM135.864 385.117C133.694 382.974 130.186 382.961 128 385.079C125.815 382.961 122.306 382.974 120.137 385.117C117.99 387.238 117.955 390.656 120.032 392.819L128 401.5L135.968 392.819C138.045 390.656 138.01 387.238 135.864 385.117Z" fill="black"/>
<path d="M153.216 386.576H155.216V396.272H161.024V398H153.216V386.576ZM169.276 396.16C169.276 396.384 169.302 396.544 169.356 396.64C169.42 396.736 169.537 396.784 169.708 396.784C169.761 396.784 169.825 396.784 169.899 396.784C169.974 396.784 170.06 396.773 170.156 396.752V398.016C170.092 398.037 170.006 398.059 169.899 398.08C169.803 398.112 169.702 398.139 169.595 398.16C169.489 398.181 169.382 398.197 169.276 398.208C169.169 398.219 169.078 398.224 169.003 398.224C168.63 398.224 168.321 398.149 168.076 398C167.83 397.851 167.67 397.589 167.595 397.216C167.233 397.568 166.785 397.824 166.252 397.984C165.729 398.144 165.222 398.224 164.731 398.224C164.358 398.224 164.001 398.171 163.659 398.064C163.318 397.968 163.014 397.824 162.747 397.632C162.491 397.429 162.283 397.179 162.123 396.88C161.974 396.571 161.899 396.213 161.899 395.808C161.899 395.296 161.99 394.88 162.171 394.56C162.363 394.24 162.609 393.989 162.907 393.808C163.217 393.627 163.558 393.499 163.931 393.424C164.315 393.339 164.699 393.275 165.083 393.232C165.414 393.168 165.729 393.125 166.028 393.104C166.326 393.072 166.588 393.024 166.812 392.96C167.046 392.896 167.228 392.8 167.356 392.672C167.494 392.533 167.563 392.331 167.563 392.064C167.563 391.829 167.505 391.637 167.388 391.488C167.281 391.339 167.142 391.227 166.971 391.152C166.812 391.067 166.63 391.013 166.428 390.992C166.225 390.96 166.033 390.944 165.852 390.944C165.339 390.944 164.918 391.051 164.587 391.264C164.257 391.477 164.07 391.808 164.027 392.256H162.203C162.235 391.723 162.363 391.28 162.587 390.928C162.811 390.576 163.094 390.293 163.435 390.08C163.787 389.867 164.182 389.717 164.619 389.632C165.057 389.547 165.505 389.504 165.964 389.504C166.369 389.504 166.769 389.547 167.164 389.632C167.558 389.717 167.91 389.856 168.22 390.048C168.54 390.24 168.796 390.491 168.988 390.8C169.18 391.099 169.276 391.467 169.276 391.904V396.16ZM167.451 393.856C167.174 394.037 166.833 394.149 166.428 394.192C166.022 394.224 165.617 394.277 165.211 394.352C165.02 394.384 164.833 394.432 164.651 394.496C164.47 394.549 164.31 394.629 164.171 394.736C164.033 394.832 163.921 394.965 163.836 395.136C163.761 395.296 163.724 395.493 163.724 395.728C163.724 395.931 163.782 396.101 163.899 396.24C164.017 396.379 164.156 396.491 164.316 396.576C164.486 396.651 164.668 396.704 164.859 396.736C165.062 396.768 165.244 396.784 165.404 396.784C165.606 396.784 165.825 396.757 166.06 396.704C166.294 396.651 166.513 396.56 166.715 396.432C166.929 396.304 167.105 396.144 167.244 395.952C167.382 395.749 167.451 395.504 167.451 395.216V393.856ZM171.486 386.576H173.31V390.8H173.342C173.47 390.597 173.625 390.416 173.806 390.256C173.987 390.096 174.185 389.963 174.398 389.856C174.622 389.739 174.851 389.653 175.086 389.6C175.331 389.536 175.571 389.504 175.806 389.504C176.457 389.504 177.022 389.621 177.502 389.856C177.993 390.08 178.398 390.395 178.718 390.8C179.038 391.195 179.278 391.659 179.438 392.192C179.598 392.725 179.678 393.296 179.678 393.904C179.678 394.459 179.603 394.997 179.454 395.52C179.315 396.043 179.097 396.507 178.798 396.912C178.51 397.307 178.142 397.627 177.694 397.872C177.246 398.107 176.718 398.224 176.11 398.224C175.833 398.224 175.55 398.203 175.262 398.16C174.985 398.128 174.718 398.059 174.462 397.952C174.206 397.845 173.971 397.707 173.758 397.536C173.555 397.365 173.385 397.141 173.246 396.864H173.214V398H171.486V386.576ZM177.854 393.872C177.854 393.499 177.806 393.136 177.71 392.784C177.614 392.432 177.47 392.123 177.278 391.856C177.086 391.579 176.846 391.36 176.558 391.2C176.27 391.029 175.939 390.944 175.566 390.944C174.798 390.944 174.217 391.211 173.822 391.744C173.438 392.277 173.246 392.987 173.246 393.872C173.246 394.288 173.294 394.677 173.39 395.04C173.497 395.392 173.651 395.696 173.854 395.952C174.057 396.208 174.297 396.411 174.574 396.56C174.862 396.709 175.193 396.784 175.566 396.784C175.982 396.784 176.334 396.699 176.622 396.528C176.91 396.357 177.145 396.139 177.326 395.872C177.518 395.595 177.651 395.285 177.726 394.944C177.811 394.592 177.854 394.235 177.854 393.872ZM187.099 393.136C187.078 392.848 187.014 392.571 186.907 392.304C186.811 392.037 186.673 391.808 186.491 391.616C186.321 391.413 186.107 391.253 185.851 391.136C185.606 391.008 185.329 390.944 185.019 390.944C184.699 390.944 184.406 391.003 184.139 391.12C183.883 391.227 183.659 391.381 183.467 391.584C183.286 391.776 183.137 392.005 183.019 392.272C182.913 392.539 182.854 392.827 182.843 393.136H187.099ZM182.843 394.336C182.843 394.656 182.886 394.965 182.971 395.264C183.067 395.563 183.206 395.824 183.387 396.048C183.569 396.272 183.798 396.453 184.075 396.592C184.353 396.72 184.683 396.784 185.067 396.784C185.601 396.784 186.027 396.672 186.347 396.448C186.678 396.213 186.923 395.867 187.083 395.408H188.811C188.715 395.856 188.55 396.256 188.315 396.608C188.081 396.96 187.798 397.259 187.467 397.504C187.137 397.739 186.763 397.915 186.347 398.032C185.942 398.16 185.515 398.224 185.067 398.224C184.417 398.224 183.841 398.117 183.339 397.904C182.838 397.691 182.411 397.392 182.059 397.008C181.718 396.624 181.457 396.165 181.275 395.632C181.105 395.099 181.019 394.512 181.019 393.872C181.019 393.285 181.11 392.731 181.291 392.208C181.483 391.675 181.75 391.211 182.091 390.816C182.443 390.411 182.865 390.091 183.355 389.856C183.846 389.621 184.401 389.504 185.019 389.504C185.67 389.504 186.251 389.643 186.763 389.92C187.286 390.187 187.718 390.544 188.059 390.992C188.401 391.44 188.646 391.957 188.795 392.544C188.955 393.12 188.998 393.717 188.923 394.336H182.843ZM190.558 386.576H192.382V398H190.558V386.576Z" fill="black"/>
</svg>
