<svg width="600" height="356" viewBox="0 0 600 356" fill="none" xmlns="http://www.w3.org/2000/svg">
<rect width="600" height="356" fill="black" fill-opacity="0.04"/>
<path d="M100 100H500V148H100V100Z" fill="black" fill-opacity="0.04"/>
<path fill-rule="evenodd" clip-rule="evenodd" d="M134.4 123.242L128 130.247L121.6 123.242L121.597 123.239C120.357 121.879 120.468 119.784 121.844 118.56C123.169 117.38 125.198 117.432 126.459 118.679C126.462 118.682 126.466 118.685 126.469 118.688L127.448 119.608L128 120.133L128.552 119.608L129.531 118.688C129.534 118.685 129.538 118.682 129.541 118.679C130.169 118.055 131.022 117.706 131.912 117.708C133.763 117.708 135.265 119.191 135.265 121.021C135.265 121.84 134.958 122.63 134.403 123.239L134.4 123.242ZM135.864 117.117C133.694 114.974 130.186 114.961 128 117.079C125.815 114.961 122.306 114.974 120.137 117.117C117.99 119.238 117.955 122.656 120.032 124.819L128 133.5L135.968 124.819C138.045 122.656 138.01 119.238 135.864 117.117Z" fill="black"/>
<path d="M153.216 118.576H155.216V128.272H161.024V130H153.216V118.576ZM169.276 128.16C169.276 128.384 169.302 128.544 169.356 128.64C169.42 128.736 169.537 128.784 169.708 128.784C169.761 128.784 169.825 128.784 169.899 128.784C169.974 128.784 170.06 128.773 170.156 128.752V130.016C170.092 130.037 170.006 130.059 169.899 130.08C169.803 130.112 169.702 130.139 169.595 130.16C169.489 130.181 169.382 130.197 169.276 130.208C169.169 130.219 169.078 130.224 169.003 130.224C168.63 130.224 168.321 130.149 168.076 130C167.83 129.851 167.67 129.589 167.595 129.216C167.233 129.568 166.785 129.824 166.252 129.984C165.729 130.144 165.222 130.224 164.731 130.224C164.358 130.224 164.001 130.171 163.659 130.064C163.318 129.968 163.014 129.824 162.747 129.632C162.491 129.429 162.283 129.179 162.123 128.88C161.974 128.571 161.899 128.213 161.899 127.808C161.899 127.296 161.99 126.88 162.171 126.56C162.363 126.24 162.609 125.989 162.907 125.808C163.217 125.627 163.558 125.499 163.931 125.424C164.315 125.339 164.699 125.275 165.083 125.232C165.414 125.168 165.729 125.125 166.028 125.104C166.326 125.072 166.588 125.024 166.812 124.96C167.046 124.896 167.228 124.8 167.356 124.672C167.494 124.533 167.563 124.331 167.563 124.064C167.563 123.829 167.505 123.637 167.388 123.488C167.281 123.339 167.142 123.227 166.971 123.152C166.812 123.067 166.63 123.013 166.428 122.992C166.225 122.96 166.033 122.944 165.852 122.944C165.339 122.944 164.918 123.051 164.587 123.264C164.257 123.477 164.07 123.808 164.027 124.256H162.203C162.235 123.723 162.363 123.28 162.587 122.928C162.811 122.576 163.094 122.293 163.435 122.08C163.787 121.867 164.182 121.717 164.619 121.632C165.057 121.547 165.505 121.504 165.964 121.504C166.369 121.504 166.769 121.547 167.164 121.632C167.558 121.717 167.91 121.856 168.22 122.048C168.54 122.24 168.796 122.491 168.988 122.8C169.18 123.099 169.276 123.467 169.276 123.904V128.16ZM167.451 125.856C167.174 126.037 166.833 126.149 166.428 126.192C166.022 126.224 165.617 126.277 165.211 126.352C165.02 126.384 164.833 126.432 164.651 126.496C164.47 126.549 164.31 126.629 164.171 126.736C164.033 126.832 163.921 126.965 163.836 127.136C163.761 127.296 163.724 127.493 163.724 127.728C163.724 127.931 163.782 128.101 163.899 128.24C164.017 128.379 164.156 128.491 164.316 128.576C164.486 128.651 164.668 128.704 164.859 128.736C165.062 128.768 165.244 128.784 165.404 128.784C165.606 128.784 165.825 128.757 166.06 128.704C166.294 128.651 166.513 128.56 166.715 128.432C166.929 128.304 167.105 128.144 167.244 127.952C167.382 127.749 167.451 127.504 167.451 127.216V125.856ZM171.486 118.576H173.31V122.8H173.342C173.47 122.597 173.625 122.416 173.806 122.256C173.987 122.096 174.185 121.963 174.398 121.856C174.622 121.739 174.851 121.653 175.086 121.6C175.331 121.536 175.571 121.504 175.806 121.504C176.457 121.504 177.022 121.621 177.502 121.856C177.993 122.08 178.398 122.395 178.718 122.8C179.038 123.195 179.278 123.659 179.438 124.192C179.598 124.725 179.678 125.296 179.678 125.904C179.678 126.459 179.603 126.997 179.454 127.52C179.315 128.043 179.097 128.507 178.798 128.912C178.51 129.307 178.142 129.627 177.694 129.872C177.246 130.107 176.718 130.224 176.11 130.224C175.833 130.224 175.55 130.203 175.262 130.16C174.985 130.128 174.718 130.059 174.462 129.952C174.206 129.845 173.971 129.707 173.758 129.536C173.555 129.365 173.385 129.141 173.246 128.864H173.214V130H171.486V118.576ZM177.854 125.872C177.854 125.499 177.806 125.136 177.71 124.784C177.614 124.432 177.47 124.123 177.278 123.856C177.086 123.579 176.846 123.36 176.558 123.2C176.27 123.029 175.939 122.944 175.566 122.944C174.798 122.944 174.217 123.211 173.822 123.744C173.438 124.277 173.246 124.987 173.246 125.872C173.246 126.288 173.294 126.677 173.39 127.04C173.497 127.392 173.651 127.696 173.854 127.952C174.057 128.208 174.297 128.411 174.574 128.56C174.862 128.709 175.193 128.784 175.566 128.784C175.982 128.784 176.334 128.699 176.622 128.528C176.91 128.357 177.145 128.139 177.326 127.872C177.518 127.595 177.651 127.285 177.726 126.944C177.811 126.592 177.854 126.235 177.854 125.872ZM187.099 125.136C187.078 124.848 187.014 124.571 186.907 124.304C186.811 124.037 186.673 123.808 186.491 123.616C186.321 123.413 186.107 123.253 185.851 123.136C185.606 123.008 185.329 122.944 185.019 122.944C184.699 122.944 184.406 123.003 184.139 123.12C183.883 123.227 183.659 123.381 183.467 123.584C183.286 123.776 183.137 124.005 183.019 124.272C182.913 124.539 182.854 124.827 182.843 125.136H187.099ZM182.843 126.336C182.843 126.656 182.886 126.965 182.971 127.264C183.067 127.563 183.206 127.824 183.387 128.048C183.569 128.272 183.798 128.453 184.075 128.592C184.353 128.72 184.683 128.784 185.067 128.784C185.601 128.784 186.027 128.672 186.347 128.448C186.678 128.213 186.923 127.867 187.083 127.408H188.811C188.715 127.856 188.55 128.256 188.315 128.608C188.081 128.96 187.798 129.259 187.467 129.504C187.137 129.739 186.763 129.915 186.347 130.032C185.942 130.16 185.515 130.224 185.067 130.224C184.417 130.224 183.841 130.117 183.339 129.904C182.838 129.691 182.411 129.392 182.059 129.008C181.718 128.624 181.457 128.165 181.275 127.632C181.105 127.099 181.019 126.512 181.019 125.872C181.019 125.285 181.11 124.731 181.291 124.208C181.483 123.675 181.75 123.211 182.091 122.816C182.443 122.411 182.865 122.091 183.355 121.856C183.846 121.621 184.401 121.504 185.019 121.504C185.67 121.504 186.251 121.643 186.763 121.92C187.286 122.187 187.718 122.544 188.059 122.992C188.401 123.44 188.646 123.957 188.795 124.544C188.955 125.12 188.998 125.717 188.923 126.336H182.843ZM190.558 118.576H192.382V130H190.558V118.576Z" fill="black"/>
<g clip-path="url(#clip0_82210_17927)">
<g clip-path="url(#clip1_82210_17927)">
<rect width="400" height="48" transform="translate(100 208)" fill="black" fill-opacity="0.04"/>
</g>
</g>
<defs>
<clipPath id="clip0_82210_17927">
<rect width="400" height="48" fill="white" transform="translate(100 208)"/>
</clipPath>
<clipPath id="clip1_82210_17927">
<rect width="400" height="48" fill="white" transform="translate(100 208)"/>
</clipPath>
</defs>
</svg>
