<svg width="600" height="492" viewBox="0 0 600 492" fill="none" xmlns="http://www.w3.org/2000/svg">
<rect width="600" height="492" fill="black" fill-opacity="0.04"/>
<path d="M100 156H500V228H100V156Z" fill="black" fill-opacity="0.04"/>
<path fill-rule="evenodd" clip-rule="evenodd" d="M138.2 177.72L131 176.52L128 170.28L125 176.52L117.8 177.72L123.2 182.52L121.4 189.72L128 186.12L134.6 189.72L132.8 182.52L138.2 177.72ZM130.875 182.839C130.438 183.264 128.87 182.861 127.307 181.299C125.744 179.736 125.323 178.208 125.766 177.731C126.609 176.871 126.582 176.721 127.254 177.557C127.927 178.394 127.882 178.342 127.217 179.007C126.952 179.272 127.505 179.942 128.084 180.521C128.663 181.1 129.334 181.654 129.599 181.389C130.261 180.727 130.212 180.679 131.048 181.351C131.844 181.997 131.773 181.947 130.875 182.839Z" fill="black"/>
<path d="M156.192 181.52L151.904 174.576H154.224L157.248 179.696L160.224 174.576H162.464L158.192 181.52V186H156.192V181.52ZM165.858 186.224C165.197 186.224 164.605 186.117 164.082 185.904C163.57 185.68 163.133 185.376 162.77 184.992C162.418 184.608 162.146 184.149 161.954 183.616C161.773 183.083 161.682 182.496 161.682 181.856C161.682 181.227 161.773 180.645 161.954 180.112C162.146 179.579 162.418 179.12 162.77 178.736C163.133 178.352 163.57 178.053 164.082 177.84C164.605 177.616 165.197 177.504 165.858 177.504C166.52 177.504 167.106 177.616 167.618 177.84C168.141 178.053 168.578 178.352 168.93 178.736C169.293 179.12 169.565 179.579 169.746 180.112C169.938 180.645 170.034 181.227 170.034 181.856C170.034 182.496 169.938 183.083 169.746 183.616C169.565 184.149 169.293 184.608 168.93 184.992C168.578 185.376 168.141 185.68 167.618 185.904C167.106 186.117 166.52 186.224 165.858 186.224ZM165.858 184.784C166.264 184.784 166.616 184.699 166.914 184.528C167.213 184.357 167.458 184.133 167.65 183.856C167.842 183.579 167.981 183.269 168.066 182.928C168.162 182.576 168.21 182.219 168.21 181.856C168.21 181.504 168.162 181.152 168.066 180.8C167.981 180.448 167.842 180.139 167.65 179.872C167.458 179.595 167.213 179.371 166.914 179.2C166.616 179.029 166.264 178.944 165.858 178.944C165.453 178.944 165.101 179.029 164.802 179.2C164.504 179.371 164.258 179.595 164.066 179.872C163.874 180.139 163.73 180.448 163.634 180.8C163.549 181.152 163.506 181.504 163.506 181.856C163.506 182.219 163.549 182.576 163.634 182.928C163.73 183.269 163.874 183.579 164.066 183.856C164.258 184.133 164.504 184.357 164.802 184.528C165.101 184.699 165.453 184.784 165.858 184.784ZM179.015 186H177.223V184.848H177.191C176.967 185.264 176.631 185.6 176.183 185.856C175.745 186.101 175.297 186.224 174.839 186.224C173.751 186.224 172.961 185.957 172.471 185.424C171.991 184.88 171.751 184.064 171.751 182.976V177.728H173.575V182.8C173.575 183.525 173.713 184.037 173.991 184.336C174.268 184.635 174.657 184.784 175.159 184.784C175.543 184.784 175.863 184.725 176.119 184.608C176.375 184.491 176.583 184.336 176.743 184.144C176.903 183.941 177.015 183.701 177.079 183.424C177.153 183.147 177.191 182.848 177.191 182.528V177.728H179.015V186ZM181.138 177.728H182.85V179.328H182.882C182.935 179.104 183.037 178.885 183.186 178.672C183.346 178.459 183.533 178.267 183.746 178.096C183.97 177.915 184.215 177.771 184.482 177.664C184.749 177.557 185.021 177.504 185.298 177.504C185.511 177.504 185.655 177.509 185.73 177.52C185.815 177.531 185.901 177.541 185.986 177.552V179.312C185.858 179.291 185.725 179.275 185.586 179.264C185.458 179.243 185.33 179.232 185.202 179.232C184.893 179.232 184.599 179.296 184.322 179.424C184.055 179.541 183.821 179.723 183.618 179.968C183.415 180.203 183.255 180.496 183.138 180.848C183.021 181.2 182.962 181.605 182.962 182.064V186H181.138V177.728ZM199.408 186H197.68V184.88H197.648C197.403 185.36 197.046 185.707 196.576 185.92C196.107 186.123 195.611 186.224 195.088 186.224C194.438 186.224 193.867 186.112 193.376 185.888C192.896 185.653 192.496 185.339 192.176 184.944C191.856 184.549 191.616 184.085 191.456 183.552C191.296 183.008 191.216 182.427 191.216 181.808C191.216 181.061 191.318 180.416 191.52 179.872C191.723 179.328 191.99 178.88 192.32 178.528C192.662 178.176 193.046 177.92 193.472 177.76C193.91 177.589 194.352 177.504 194.8 177.504C195.056 177.504 195.318 177.531 195.584 177.584C195.851 177.627 196.107 177.701 196.352 177.808C196.598 177.915 196.822 178.053 197.024 178.224C197.238 178.384 197.414 178.576 197.552 178.8H197.584V174.576H199.408V186ZM193.04 181.952C193.04 182.304 193.083 182.651 193.168 182.992C193.264 183.333 193.403 183.637 193.584 183.904C193.776 184.171 194.016 184.384 194.304 184.544C194.592 184.704 194.934 184.784 195.328 184.784C195.734 184.784 196.08 184.699 196.368 184.528C196.667 184.357 196.907 184.133 197.088 183.856C197.28 183.579 197.419 183.269 197.504 182.928C197.6 182.576 197.648 182.219 197.648 181.856C197.648 180.939 197.44 180.224 197.024 179.712C196.619 179.2 196.064 178.944 195.36 178.944C194.934 178.944 194.571 179.035 194.272 179.216C193.984 179.387 193.744 179.616 193.552 179.904C193.371 180.181 193.238 180.501 193.152 180.864C193.078 181.216 193.04 181.579 193.04 181.952ZM208.526 184.16C208.526 184.384 208.552 184.544 208.606 184.64C208.67 184.736 208.787 184.784 208.958 184.784C209.011 184.784 209.075 184.784 209.15 184.784C209.224 184.784 209.31 184.773 209.406 184.752V186.016C209.342 186.037 209.256 186.059 209.15 186.08C209.054 186.112 208.952 186.139 208.846 186.16C208.739 186.181 208.632 186.197 208.526 186.208C208.419 186.219 208.328 186.224 208.254 186.224C207.88 186.224 207.571 186.149 207.326 186C207.08 185.851 206.92 185.589 206.846 185.216C206.483 185.568 206.035 185.824 205.502 185.984C204.979 186.144 204.472 186.224 203.982 186.224C203.608 186.224 203.251 186.171 202.91 186.064C202.568 185.968 202.264 185.824 201.998 185.632C201.742 185.429 201.534 185.179 201.374 184.88C201.224 184.571 201.15 184.213 201.15 183.808C201.15 183.296 201.24 182.88 201.422 182.56C201.614 182.24 201.859 181.989 202.158 181.808C202.467 181.627 202.808 181.499 203.182 181.424C203.566 181.339 203.95 181.275 204.334 181.232C204.664 181.168 204.979 181.125 205.278 181.104C205.576 181.072 205.838 181.024 206.062 180.96C206.296 180.896 206.478 180.8 206.606 180.672C206.744 180.533 206.814 180.331 206.814 180.064C206.814 179.829 206.755 179.637 206.638 179.488C206.531 179.339 206.392 179.227 206.222 179.152C206.062 179.067 205.88 179.013 205.678 178.992C205.475 178.96 205.283 178.944 205.102 178.944C204.59 178.944 204.168 179.051 203.838 179.264C203.507 179.477 203.32 179.808 203.278 180.256H201.454C201.486 179.723 201.614 179.28 201.838 178.928C202.062 178.576 202.344 178.293 202.686 178.08C203.038 177.867 203.432 177.717 203.87 177.632C204.307 177.547 204.755 177.504 205.214 177.504C205.619 177.504 206.019 177.547 206.414 177.632C206.808 177.717 207.16 177.856 207.47 178.048C207.79 178.24 208.046 178.491 208.238 178.8C208.43 179.099 208.526 179.467 208.526 179.904V184.16ZM206.702 181.856C206.424 182.037 206.083 182.149 205.678 182.192C205.272 182.224 204.867 182.277 204.462 182.352C204.27 182.384 204.083 182.432 203.902 182.496C203.72 182.549 203.56 182.629 203.422 182.736C203.283 182.832 203.171 182.965 203.086 183.136C203.011 183.296 202.974 183.493 202.974 183.728C202.974 183.931 203.032 184.101 203.15 184.24C203.267 184.379 203.406 184.491 203.566 184.576C203.736 184.651 203.918 184.704 204.11 184.736C204.312 184.768 204.494 184.784 204.654 184.784C204.856 184.784 205.075 184.757 205.31 184.704C205.544 184.651 205.763 184.56 205.966 184.432C206.179 184.304 206.355 184.144 206.494 183.952C206.632 183.749 206.702 183.504 206.702 183.216V181.856ZM209.856 177.728H211.232V175.248H213.056V177.728H214.704V179.088H213.056V183.504C213.056 183.696 213.061 183.861 213.072 184C213.093 184.139 213.131 184.256 213.184 184.352C213.248 184.448 213.339 184.523 213.456 184.576C213.573 184.619 213.733 184.64 213.936 184.64C214.064 184.64 214.192 184.64 214.32 184.64C214.448 184.629 214.576 184.608 214.704 184.576V185.984C214.501 186.005 214.304 186.027 214.112 186.048C213.92 186.069 213.723 186.08 213.52 186.08C213.04 186.08 212.651 186.037 212.352 185.952C212.064 185.856 211.835 185.723 211.664 185.552C211.504 185.371 211.392 185.147 211.328 184.88C211.275 184.613 211.243 184.309 211.232 183.968V179.088H209.856V177.728ZM223.144 184.16C223.144 184.384 223.171 184.544 223.224 184.64C223.288 184.736 223.406 184.784 223.576 184.784C223.63 184.784 223.694 184.784 223.768 184.784C223.843 184.784 223.928 184.773 224.024 184.752V186.016C223.96 186.037 223.875 186.059 223.768 186.08C223.672 186.112 223.571 186.139 223.464 186.16C223.358 186.181 223.251 186.197 223.144 186.208C223.038 186.219 222.947 186.224 222.872 186.224C222.499 186.224 222.19 186.149 221.944 186C221.699 185.851 221.539 185.589 221.464 185.216C221.102 185.568 220.654 185.824 220.12 185.984C219.598 186.144 219.091 186.224 218.6 186.224C218.227 186.224 217.87 186.171 217.528 186.064C217.187 185.968 216.883 185.824 216.616 185.632C216.36 185.429 216.152 185.179 215.992 184.88C215.843 184.571 215.768 184.213 215.768 183.808C215.768 183.296 215.859 182.88 216.04 182.56C216.232 182.24 216.478 181.989 216.776 181.808C217.086 181.627 217.427 181.499 217.8 181.424C218.184 181.339 218.568 181.275 218.952 181.232C219.283 181.168 219.598 181.125 219.896 181.104C220.195 181.072 220.456 181.024 220.68 180.96C220.915 180.896 221.096 180.8 221.224 180.672C221.363 180.533 221.432 180.331 221.432 180.064C221.432 179.829 221.374 179.637 221.256 179.488C221.15 179.339 221.011 179.227 220.84 179.152C220.68 179.067 220.499 179.013 220.296 178.992C220.094 178.96 219.902 178.944 219.72 178.944C219.208 178.944 218.787 179.051 218.456 179.264C218.126 179.477 217.939 179.808 217.896 180.256H216.072C216.104 179.723 216.232 179.28 216.456 178.928C216.68 178.576 216.963 178.293 217.304 178.08C217.656 177.867 218.051 177.717 218.488 177.632C218.926 177.547 219.374 177.504 219.832 177.504C220.238 177.504 220.638 177.547 221.032 177.632C221.427 177.717 221.779 177.856 222.088 178.048C222.408 178.24 222.664 178.491 222.856 178.8C223.048 179.099 223.144 179.467 223.144 179.904V184.16ZM221.32 181.856C221.043 182.037 220.702 182.149 220.296 182.192C219.891 182.224 219.486 182.277 219.08 182.352C218.888 182.384 218.702 182.432 218.52 182.496C218.339 182.549 218.179 182.629 218.04 182.736C217.902 182.832 217.79 182.965 217.704 183.136C217.63 183.296 217.592 183.493 217.592 183.728C217.592 183.931 217.651 184.101 217.768 184.24C217.886 184.379 218.024 184.491 218.184 184.576C218.355 184.651 218.536 184.704 218.728 184.736C218.931 184.768 219.112 184.784 219.272 184.784C219.475 184.784 219.694 184.757 219.928 184.704C220.163 184.651 220.382 184.56 220.584 184.432C220.798 184.304 220.974 184.144 221.112 183.952C221.251 183.749 221.32 183.504 221.32 183.216V181.856ZM230.008 177.728H231.736V178.848H231.768C232.024 178.368 232.381 178.027 232.84 177.824C233.299 177.611 233.795 177.504 234.328 177.504C234.979 177.504 235.544 177.621 236.024 177.856C236.515 178.08 236.92 178.395 237.24 178.8C237.56 179.195 237.8 179.659 237.96 180.192C238.12 180.725 238.2 181.296 238.2 181.904C238.2 182.459 238.125 182.997 237.976 183.52C237.837 184.043 237.619 184.507 237.32 184.912C237.032 185.307 236.664 185.627 236.216 185.872C235.768 186.107 235.24 186.224 234.632 186.224C234.365 186.224 234.099 186.197 233.832 186.144C233.565 186.101 233.309 186.027 233.064 185.92C232.819 185.813 232.589 185.68 232.376 185.52C232.173 185.349 232.003 185.152 231.864 184.928H231.832V189.056H230.008V177.728ZM236.376 181.872C236.376 181.499 236.328 181.136 236.232 180.784C236.136 180.432 235.992 180.123 235.8 179.856C235.608 179.579 235.368 179.36 235.08 179.2C234.792 179.029 234.461 178.944 234.088 178.944C233.32 178.944 232.739 179.211 232.344 179.744C231.96 180.277 231.768 180.987 231.768 181.872C231.768 182.288 231.816 182.677 231.912 183.04C232.019 183.392 232.173 183.696 232.376 183.952C232.579 184.208 232.819 184.411 233.096 184.56C233.384 184.709 233.715 184.784 234.088 184.784C234.504 184.784 234.856 184.699 235.144 184.528C235.432 184.357 235.667 184.139 235.848 183.872C236.04 183.595 236.173 183.285 236.248 182.944C236.333 182.592 236.376 182.235 236.376 181.872ZM239.989 174.576H241.813V186H239.989V174.576ZM250.929 184.16C250.929 184.384 250.955 184.544 251.009 184.64C251.073 184.736 251.19 184.784 251.361 184.784C251.414 184.784 251.478 184.784 251.553 184.784C251.627 184.784 251.713 184.773 251.809 184.752V186.016C251.745 186.037 251.659 186.059 251.553 186.08C251.457 186.112 251.355 186.139 251.249 186.16C251.142 186.181 251.035 186.197 250.929 186.208C250.822 186.219 250.731 186.224 250.657 186.224C250.283 186.224 249.974 186.149 249.729 186C249.483 185.851 249.323 185.589 249.249 185.216C248.886 185.568 248.438 185.824 247.905 185.984C247.382 186.144 246.875 186.224 246.385 186.224C246.011 186.224 245.654 186.171 245.313 186.064C244.971 185.968 244.667 185.824 244.401 185.632C244.145 185.429 243.937 185.179 243.777 184.88C243.627 184.571 243.553 184.213 243.553 183.808C243.553 183.296 243.643 182.88 243.825 182.56C244.017 182.24 244.262 181.989 244.561 181.808C244.87 181.627 245.211 181.499 245.585 181.424C245.969 181.339 246.353 181.275 246.737 181.232C247.067 181.168 247.382 181.125 247.681 181.104C247.979 181.072 248.241 181.024 248.465 180.96C248.699 180.896 248.881 180.8 249.009 180.672C249.147 180.533 249.217 180.331 249.217 180.064C249.217 179.829 249.158 179.637 249.041 179.488C248.934 179.339 248.795 179.227 248.625 179.152C248.465 179.067 248.283 179.013 248.081 178.992C247.878 178.96 247.686 178.944 247.505 178.944C246.993 178.944 246.571 179.051 246.241 179.264C245.91 179.477 245.723 179.808 245.681 180.256H243.857C243.889 179.723 244.017 179.28 244.241 178.928C244.465 178.576 244.747 178.293 245.089 178.08C245.441 177.867 245.835 177.717 246.273 177.632C246.71 177.547 247.158 177.504 247.617 177.504C248.022 177.504 248.422 177.547 248.817 177.632C249.211 177.717 249.563 177.856 249.873 178.048C250.193 178.24 250.449 178.491 250.641 178.8C250.833 179.099 250.929 179.467 250.929 179.904V184.16ZM249.105 181.856C248.827 182.037 248.486 182.149 248.081 182.192C247.675 182.224 247.27 182.277 246.865 182.352C246.673 182.384 246.486 182.432 246.305 182.496C246.123 182.549 245.963 182.629 245.825 182.736C245.686 182.832 245.574 182.965 245.489 183.136C245.414 183.296 245.377 183.493 245.377 183.728C245.377 183.931 245.435 184.101 245.553 184.24C245.67 184.379 245.809 184.491 245.969 184.576C246.139 184.651 246.321 184.704 246.513 184.736C246.715 184.768 246.897 184.784 247.057 184.784C247.259 184.784 247.478 184.757 247.713 184.704C247.947 184.651 248.166 184.56 248.369 184.432C248.582 184.304 248.758 184.144 248.897 183.952C249.035 183.749 249.105 183.504 249.105 183.216V181.856ZM253.091 177.728H254.819V178.944L254.851 178.976C255.129 178.517 255.491 178.16 255.939 177.904C256.387 177.637 256.883 177.504 257.427 177.504C258.334 177.504 259.049 177.739 259.571 178.208C260.094 178.677 260.355 179.381 260.355 180.32V186H258.531V180.8C258.51 180.149 258.371 179.68 258.115 179.392C257.859 179.093 257.459 178.944 256.915 178.944C256.606 178.944 256.329 179.003 256.083 179.12C255.838 179.227 255.63 179.381 255.459 179.584C255.289 179.776 255.155 180.005 255.059 180.272C254.963 180.539 254.915 180.821 254.915 181.12V186H253.091V177.728ZM267.18 174.576H269.004V176.304H267.18V174.576ZM267.18 177.728H269.004V186H267.18V177.728ZM271.191 177.728H272.919V178.944L272.951 178.976C273.229 178.517 273.591 178.16 274.039 177.904C274.487 177.637 274.983 177.504 275.527 177.504C276.434 177.504 277.149 177.739 277.671 178.208C278.194 178.677 278.455 179.381 278.455 180.32V186H276.631V180.8C276.61 180.149 276.471 179.68 276.215 179.392C275.959 179.093 275.559 178.944 275.015 178.944C274.706 178.944 274.429 179.003 274.183 179.12C273.938 179.227 273.73 179.381 273.559 179.584C273.389 179.776 273.255 180.005 273.159 180.272C273.063 180.539 273.015 180.821 273.015 181.12V186H271.191V177.728ZM286.163 180.496C286.088 179.984 285.88 179.6 285.539 179.344C285.208 179.077 284.787 178.944 284.275 178.944C284.04 178.944 283.789 178.987 283.523 179.072C283.256 179.147 283.011 179.296 282.787 179.52C282.563 179.733 282.376 180.037 282.227 180.432C282.077 180.816 282.003 181.323 282.003 181.952C282.003 182.293 282.04 182.635 282.115 182.976C282.2 183.317 282.328 183.621 282.499 183.888C282.68 184.155 282.909 184.373 283.187 184.544C283.464 184.704 283.8 184.784 284.195 184.784C284.728 184.784 285.165 184.619 285.507 184.288C285.859 183.957 286.077 183.493 286.163 182.896H287.987C287.816 183.973 287.405 184.8 286.755 185.376C286.115 185.941 285.261 186.224 284.195 186.224C283.544 186.224 282.968 186.117 282.467 185.904C281.976 185.68 281.56 185.381 281.219 185.008C280.877 184.624 280.616 184.171 280.435 183.648C280.264 183.125 280.179 182.56 280.179 181.952C280.179 181.333 280.264 180.752 280.435 180.208C280.605 179.664 280.861 179.195 281.203 178.8C281.544 178.395 281.965 178.08 282.467 177.856C282.979 177.621 283.576 177.504 284.259 177.504C284.739 177.504 285.192 177.568 285.619 177.696C286.056 177.813 286.44 177.995 286.771 178.24C287.112 178.485 287.389 178.795 287.603 179.168C287.816 179.541 287.944 179.984 287.987 180.496H286.163ZM289.717 174.576H291.541V186H289.717V174.576ZM300.993 186H299.201V184.848H299.169C298.945 185.264 298.609 185.6 298.161 185.856C297.723 186.101 297.275 186.224 296.817 186.224C295.729 186.224 294.939 185.957 294.449 185.424C293.969 184.88 293.729 184.064 293.729 182.976V177.728H295.553V182.8C295.553 183.525 295.691 184.037 295.969 184.336C296.246 184.635 296.635 184.784 297.137 184.784C297.521 184.784 297.841 184.725 298.097 184.608C298.353 184.491 298.561 184.336 298.721 184.144C298.881 183.941 298.993 183.701 299.057 183.424C299.131 183.147 299.169 182.848 299.169 182.528V177.728H300.993V186ZM310.908 186H309.18V184.88H309.148C308.903 185.36 308.546 185.707 308.076 185.92C307.607 186.123 307.111 186.224 306.588 186.224C305.938 186.224 305.367 186.112 304.876 185.888C304.396 185.653 303.996 185.339 303.676 184.944C303.356 184.549 303.116 184.085 302.956 183.552C302.796 183.008 302.716 182.427 302.716 181.808C302.716 181.061 302.818 180.416 303.02 179.872C303.223 179.328 303.49 178.88 303.82 178.528C304.162 178.176 304.546 177.92 304.972 177.76C305.41 177.589 305.852 177.504 306.3 177.504C306.556 177.504 306.818 177.531 307.084 177.584C307.351 177.627 307.607 177.701 307.852 177.808C308.098 177.915 308.322 178.053 308.524 178.224C308.738 178.384 308.914 178.576 309.052 178.8H309.084V174.576H310.908V186ZM304.54 181.952C304.54 182.304 304.583 182.651 304.668 182.992C304.764 183.333 304.903 183.637 305.084 183.904C305.276 184.171 305.516 184.384 305.804 184.544C306.092 184.704 306.434 184.784 306.828 184.784C307.234 184.784 307.58 184.699 307.868 184.528C308.167 184.357 308.407 184.133 308.588 183.856C308.78 183.579 308.919 183.269 309.004 182.928C309.1 182.576 309.148 182.219 309.148 181.856C309.148 180.939 308.94 180.224 308.524 179.712C308.119 179.2 307.564 178.944 306.86 178.944C306.434 178.944 306.071 179.035 305.772 179.216C305.484 179.387 305.244 179.616 305.052 179.904C304.871 180.181 304.738 180.501 304.652 180.864C304.578 181.216 304.54 181.579 304.54 181.952ZM318.777 181.136C318.756 180.848 318.692 180.571 318.585 180.304C318.489 180.037 318.351 179.808 318.169 179.616C317.999 179.413 317.785 179.253 317.529 179.136C317.284 179.008 317.007 178.944 316.697 178.944C316.377 178.944 316.084 179.003 315.817 179.12C315.561 179.227 315.337 179.381 315.145 179.584C314.964 179.776 314.815 180.005 314.697 180.272C314.591 180.539 314.532 180.827 314.521 181.136H318.777ZM314.521 182.336C314.521 182.656 314.564 182.965 314.649 183.264C314.745 183.563 314.884 183.824 315.065 184.048C315.247 184.272 315.476 184.453 315.753 184.592C316.031 184.72 316.361 184.784 316.745 184.784C317.279 184.784 317.705 184.672 318.025 184.448C318.356 184.213 318.601 183.867 318.761 183.408H320.489C320.393 183.856 320.228 184.256 319.993 184.608C319.759 184.96 319.476 185.259 319.145 185.504C318.815 185.739 318.441 185.915 318.025 186.032C317.62 186.16 317.193 186.224 316.745 186.224C316.095 186.224 315.519 186.117 315.017 185.904C314.516 185.691 314.089 185.392 313.737 185.008C313.396 184.624 313.135 184.165 312.953 183.632C312.783 183.099 312.697 182.512 312.697 181.872C312.697 181.285 312.788 180.731 312.969 180.208C313.161 179.675 313.428 179.211 313.769 178.816C314.121 178.411 314.543 178.091 315.033 177.856C315.524 177.621 316.079 177.504 316.697 177.504C317.348 177.504 317.929 177.643 318.441 177.92C318.964 178.187 319.396 178.544 319.737 178.992C320.079 179.44 320.324 179.957 320.473 180.544C320.633 181.12 320.676 181.717 320.601 182.336H314.521ZM323.564 183.344C323.617 183.877 323.82 184.251 324.172 184.464C324.524 184.677 324.945 184.784 325.436 184.784C325.607 184.784 325.799 184.773 326.012 184.752C326.236 184.72 326.444 184.667 326.636 184.592C326.828 184.517 326.983 184.411 327.1 184.272C327.228 184.123 327.287 183.931 327.276 183.696C327.265 183.461 327.18 183.269 327.02 183.12C326.86 182.971 326.652 182.853 326.396 182.768C326.151 182.672 325.868 182.592 325.548 182.528C325.228 182.464 324.903 182.395 324.572 182.32C324.231 182.245 323.9 182.155 323.58 182.048C323.271 181.941 322.988 181.797 322.732 181.616C322.487 181.435 322.289 181.205 322.14 180.928C321.991 180.64 321.916 180.288 321.916 179.872C321.916 179.424 322.023 179.051 322.236 178.752C322.46 178.443 322.737 178.197 323.068 178.016C323.409 177.824 323.783 177.691 324.188 177.616C324.604 177.541 324.999 177.504 325.372 177.504C325.799 177.504 326.204 177.552 326.588 177.648C326.983 177.733 327.335 177.877 327.644 178.08C327.964 178.283 328.225 178.549 328.428 178.88C328.641 179.2 328.775 179.589 328.828 180.048H326.924C326.839 179.611 326.636 179.317 326.316 179.168C326.007 179.019 325.649 178.944 325.244 178.944C325.116 178.944 324.961 178.955 324.78 178.976C324.609 178.997 324.444 179.04 324.284 179.104C324.135 179.157 324.007 179.243 323.9 179.36C323.793 179.467 323.74 179.611 323.74 179.792C323.74 180.016 323.815 180.197 323.964 180.336C324.124 180.475 324.327 180.592 324.572 180.688C324.828 180.773 325.116 180.848 325.436 180.912C325.756 180.976 326.087 181.045 326.428 181.12C326.759 181.195 327.084 181.285 327.404 181.392C327.724 181.499 328.007 181.643 328.252 181.824C328.508 182.005 328.711 182.235 328.86 182.512C329.02 182.789 329.1 183.131 329.1 183.536C329.1 184.027 328.988 184.443 328.764 184.784C328.54 185.125 328.247 185.403 327.884 185.616C327.532 185.829 327.137 185.984 326.7 186.08C326.263 186.176 325.831 186.224 325.404 186.224C324.881 186.224 324.396 186.165 323.948 186.048C323.511 185.931 323.127 185.755 322.796 185.52C322.476 185.275 322.22 184.976 322.028 184.624C321.847 184.261 321.751 183.835 321.74 183.344H323.564ZM334.522 177.728H335.882V177.04C335.882 176.517 335.946 176.096 336.074 175.776C336.202 175.445 336.373 175.195 336.586 175.024C336.799 174.843 337.039 174.725 337.306 174.672C337.583 174.608 337.871 174.576 338.17 174.576C338.757 174.576 339.183 174.613 339.45 174.688V176.112C339.333 176.08 339.205 176.059 339.066 176.048C338.938 176.027 338.783 176.016 338.602 176.016C338.357 176.016 338.143 176.075 337.962 176.192C337.791 176.309 337.706 176.539 337.706 176.88V177.728H339.258V179.088H337.706V186H335.882V179.088H334.522V177.728ZM340.585 177.728H342.297V179.328H342.329C342.382 179.104 342.484 178.885 342.633 178.672C342.793 178.459 342.98 178.267 343.193 178.096C343.417 177.915 343.662 177.771 343.929 177.664C344.196 177.557 344.468 177.504 344.745 177.504C344.958 177.504 345.102 177.509 345.177 177.52C345.262 177.531 345.348 177.541 345.433 177.552V179.312C345.305 179.291 345.172 179.275 345.033 179.264C344.905 179.243 344.777 179.232 344.649 179.232C344.34 179.232 344.046 179.296 343.769 179.424C343.502 179.541 343.268 179.723 343.065 179.968C342.862 180.203 342.702 180.496 342.585 180.848C342.468 181.2 342.409 181.605 342.409 182.064V186H340.585V177.728ZM351.809 181.136C351.787 180.848 351.723 180.571 351.617 180.304C351.521 180.037 351.382 179.808 351.201 179.616C351.03 179.413 350.817 179.253 350.561 179.136C350.315 179.008 350.038 178.944 349.729 178.944C349.409 178.944 349.115 179.003 348.849 179.12C348.593 179.227 348.369 179.381 348.177 179.584C347.995 179.776 347.846 180.005 347.729 180.272C347.622 180.539 347.563 180.827 347.553 181.136H351.809ZM347.553 182.336C347.553 182.656 347.595 182.965 347.681 183.264C347.777 183.563 347.915 183.824 348.097 184.048C348.278 184.272 348.507 184.453 348.785 184.592C349.062 184.72 349.393 184.784 349.777 184.784C350.31 184.784 350.737 184.672 351.057 184.448C351.387 184.213 351.633 183.867 351.793 183.408H353.521C353.425 183.856 353.259 184.256 353.025 184.608C352.79 184.96 352.507 185.259 352.177 185.504C351.846 185.739 351.473 185.915 351.057 186.032C350.651 186.16 350.225 186.224 349.777 186.224C349.126 186.224 348.55 186.117 348.049 185.904C347.547 185.691 347.121 185.392 346.769 185.008C346.427 184.624 346.166 184.165 345.985 183.632C345.814 183.099 345.729 182.512 345.729 181.872C345.729 181.285 345.819 180.731 346.001 180.208C346.193 179.675 346.459 179.211 346.801 178.816C347.153 178.411 347.574 178.091 348.065 177.856C348.555 177.621 349.11 177.504 349.729 177.504C350.379 177.504 350.961 177.643 351.473 177.92C351.995 178.187 352.427 178.544 352.769 178.992C353.11 179.44 353.355 179.957 353.505 180.544C353.665 181.12 353.707 181.717 353.633 182.336H347.553ZM360.899 181.136C360.878 180.848 360.814 180.571 360.707 180.304C360.611 180.037 360.473 179.808 360.291 179.616C360.121 179.413 359.907 179.253 359.651 179.136C359.406 179.008 359.129 178.944 358.819 178.944C358.499 178.944 358.206 179.003 357.939 179.12C357.683 179.227 357.459 179.381 357.267 179.584C357.086 179.776 356.937 180.005 356.819 180.272C356.713 180.539 356.654 180.827 356.643 181.136H360.899ZM356.643 182.336C356.643 182.656 356.686 182.965 356.771 183.264C356.867 183.563 357.006 183.824 357.187 184.048C357.369 184.272 357.598 184.453 357.875 184.592C358.153 184.72 358.483 184.784 358.867 184.784C359.401 184.784 359.827 184.672 360.147 184.448C360.478 184.213 360.723 183.867 360.883 183.408H362.611C362.515 183.856 362.35 184.256 362.115 184.608C361.881 184.96 361.598 185.259 361.267 185.504C360.937 185.739 360.563 185.915 360.147 186.032C359.742 186.16 359.315 186.224 358.867 186.224C358.217 186.224 357.641 186.117 357.139 185.904C356.638 185.691 356.211 185.392 355.859 185.008C355.518 184.624 355.257 184.165 355.075 183.632C354.905 183.099 354.819 182.512 354.819 181.872C354.819 181.285 354.91 180.731 355.091 180.208C355.283 179.675 355.55 179.211 355.891 178.816C356.243 178.411 356.665 178.091 357.155 177.856C357.646 177.621 358.201 177.504 358.819 177.504C359.47 177.504 360.051 177.643 360.563 177.92C361.086 178.187 361.518 178.544 361.859 178.992C362.201 179.44 362.446 179.957 362.595 180.544C362.755 181.12 362.798 181.717 362.723 182.336H356.643ZM374.547 180.496C374.472 179.984 374.264 179.6 373.923 179.344C373.592 179.077 373.171 178.944 372.659 178.944C372.424 178.944 372.174 178.987 371.907 179.072C371.64 179.147 371.395 179.296 371.171 179.52C370.947 179.733 370.76 180.037 370.611 180.432C370.462 180.816 370.387 181.323 370.387 181.952C370.387 182.293 370.424 182.635 370.499 182.976C370.584 183.317 370.712 183.621 370.883 183.888C371.064 184.155 371.294 184.373 371.571 184.544C371.848 184.704 372.184 184.784 372.579 184.784C373.112 184.784 373.55 184.619 373.891 184.288C374.243 183.957 374.462 183.493 374.547 182.896H376.371C376.2 183.973 375.79 184.8 375.139 185.376C374.499 185.941 373.646 186.224 372.579 186.224C371.928 186.224 371.352 186.117 370.851 185.904C370.36 185.68 369.944 185.381 369.603 185.008C369.262 184.624 369 184.171 368.819 183.648C368.648 183.125 368.563 182.56 368.563 181.952C368.563 181.333 368.648 180.752 368.819 180.208C368.99 179.664 369.246 179.195 369.587 178.8C369.928 178.395 370.35 178.08 370.851 177.856C371.363 177.621 371.96 177.504 372.643 177.504C373.123 177.504 373.576 177.568 374.003 177.696C374.44 177.813 374.824 177.995 375.155 178.24C375.496 178.485 375.774 178.795 375.987 179.168C376.2 179.541 376.328 179.984 376.371 180.496H374.547ZM384.982 184.16C384.982 184.384 385.008 184.544 385.062 184.64C385.126 184.736 385.243 184.784 385.414 184.784C385.467 184.784 385.531 184.784 385.606 184.784C385.68 184.784 385.766 184.773 385.862 184.752V186.016C385.798 186.037 385.712 186.059 385.606 186.08C385.51 186.112 385.408 186.139 385.302 186.16C385.195 186.181 385.088 186.197 384.982 186.208C384.875 186.219 384.784 186.224 384.71 186.224C384.336 186.224 384.027 186.149 383.782 186C383.536 185.851 383.376 185.589 383.302 185.216C382.939 185.568 382.491 185.824 381.958 185.984C381.435 186.144 380.928 186.224 380.438 186.224C380.064 186.224 379.707 186.171 379.366 186.064C379.024 185.968 378.72 185.824 378.454 185.632C378.198 185.429 377.99 185.179 377.83 184.88C377.68 184.571 377.606 184.213 377.606 183.808C377.606 183.296 377.696 182.88 377.878 182.56C378.07 182.24 378.315 181.989 378.614 181.808C378.923 181.627 379.264 181.499 379.638 181.424C380.022 181.339 380.406 181.275 380.79 181.232C381.12 181.168 381.435 181.125 381.734 181.104C382.032 181.072 382.294 181.024 382.518 180.96C382.752 180.896 382.934 180.8 383.062 180.672C383.2 180.533 383.27 180.331 383.27 180.064C383.27 179.829 383.211 179.637 383.094 179.488C382.987 179.339 382.848 179.227 382.678 179.152C382.518 179.067 382.336 179.013 382.134 178.992C381.931 178.96 381.739 178.944 381.558 178.944C381.046 178.944 380.624 179.051 380.294 179.264C379.963 179.477 379.776 179.808 379.734 180.256H377.91C377.942 179.723 378.07 179.28 378.294 178.928C378.518 178.576 378.8 178.293 379.142 178.08C379.494 177.867 379.888 177.717 380.326 177.632C380.763 177.547 381.211 177.504 381.67 177.504C382.075 177.504 382.475 177.547 382.87 177.632C383.264 177.717 383.616 177.856 383.926 178.048C384.246 178.24 384.502 178.491 384.694 178.8C384.886 179.099 384.982 179.467 384.982 179.904V184.16ZM383.158 181.856C382.88 182.037 382.539 182.149 382.134 182.192C381.728 182.224 381.323 182.277 380.918 182.352C380.726 182.384 380.539 182.432 380.358 182.496C380.176 182.549 380.016 182.629 379.878 182.736C379.739 182.832 379.627 182.965 379.542 183.136C379.467 183.296 379.43 183.493 379.43 183.728C379.43 183.931 379.488 184.101 379.606 184.24C379.723 184.379 379.862 184.491 380.022 184.576C380.192 184.651 380.374 184.704 380.566 184.736C380.768 184.768 380.95 184.784 381.11 184.784C381.312 184.784 381.531 184.757 381.766 184.704C382 184.651 382.219 184.56 382.422 184.432C382.635 184.304 382.811 184.144 382.95 183.952C383.088 183.749 383.158 183.504 383.158 183.216V181.856ZM387.192 174.576H389.016V186H387.192V174.576ZM391.252 174.576H393.076V186H391.252V174.576ZM396.639 183.344C396.692 183.877 396.895 184.251 397.247 184.464C397.599 184.677 398.02 184.784 398.511 184.784C398.682 184.784 398.874 184.773 399.087 184.752C399.311 184.72 399.519 184.667 399.711 184.592C399.903 184.517 400.058 184.411 400.175 184.272C400.303 184.123 400.362 183.931 400.351 183.696C400.34 183.461 400.255 183.269 400.095 183.12C399.935 182.971 399.727 182.853 399.471 182.768C399.226 182.672 398.943 182.592 398.623 182.528C398.303 182.464 397.978 182.395 397.647 182.32C397.306 182.245 396.975 182.155 396.655 182.048C396.346 181.941 396.063 181.797 395.807 181.616C395.562 181.435 395.364 181.205 395.215 180.928C395.066 180.64 394.991 180.288 394.991 179.872C394.991 179.424 395.098 179.051 395.311 178.752C395.535 178.443 395.812 178.197 396.143 178.016C396.484 177.824 396.858 177.691 397.263 177.616C397.679 177.541 398.074 177.504 398.447 177.504C398.874 177.504 399.279 177.552 399.663 177.648C400.058 177.733 400.41 177.877 400.719 178.08C401.039 178.283 401.3 178.549 401.503 178.88C401.716 179.2 401.85 179.589 401.903 180.048H399.999C399.914 179.611 399.711 179.317 399.391 179.168C399.082 179.019 398.724 178.944 398.319 178.944C398.191 178.944 398.036 178.955 397.855 178.976C397.684 178.997 397.519 179.04 397.359 179.104C397.21 179.157 397.082 179.243 396.975 179.36C396.868 179.467 396.815 179.611 396.815 179.792C396.815 180.016 396.89 180.197 397.039 180.336C397.199 180.475 397.402 180.592 397.647 180.688C397.903 180.773 398.191 180.848 398.511 180.912C398.831 180.976 399.162 181.045 399.503 181.12C399.834 181.195 400.159 181.285 400.479 181.392C400.799 181.499 401.082 181.643 401.327 181.824C401.583 182.005 401.786 182.235 401.935 182.512C402.095 182.789 402.175 183.131 402.175 183.536C402.175 184.027 402.063 184.443 401.839 184.784C401.615 185.125 401.322 185.403 400.959 185.616C400.607 185.829 400.212 185.984 399.775 186.08C399.338 186.176 398.906 186.224 398.479 186.224C397.956 186.224 397.471 186.165 397.023 186.048C396.586 185.931 396.202 185.755 395.871 185.52C395.551 185.275 395.295 184.976 395.103 184.624C394.922 184.261 394.826 183.835 394.815 183.344H396.639ZM412.205 186.224C411.544 186.224 410.952 186.117 410.429 185.904C409.917 185.68 409.48 185.376 409.117 184.992C408.765 184.608 408.493 184.149 408.301 183.616C408.12 183.083 408.029 182.496 408.029 181.856C408.029 181.227 408.12 180.645 408.301 180.112C408.493 179.579 408.765 179.12 409.117 178.736C409.48 178.352 409.917 178.053 410.429 177.84C410.952 177.616 411.544 177.504 412.205 177.504C412.866 177.504 413.453 177.616 413.965 177.84C414.488 178.053 414.925 178.352 415.277 178.736C415.64 179.12 415.912 179.579 416.093 180.112C416.285 180.645 416.381 181.227 416.381 181.856C416.381 182.496 416.285 183.083 416.093 183.616C415.912 184.149 415.64 184.608 415.277 184.992C414.925 185.376 414.488 185.68 413.965 185.904C413.453 186.117 412.866 186.224 412.205 186.224ZM412.205 184.784C412.61 184.784 412.962 184.699 413.261 184.528C413.56 184.357 413.805 184.133 413.997 183.856C414.189 183.579 414.328 183.269 414.413 182.928C414.509 182.576 414.557 182.219 414.557 181.856C414.557 181.504 414.509 181.152 414.413 180.8C414.328 180.448 414.189 180.139 413.997 179.872C413.805 179.595 413.56 179.371 413.261 179.2C412.962 179.029 412.61 178.944 412.205 178.944C411.8 178.944 411.448 179.029 411.149 179.2C410.85 179.371 410.605 179.595 410.413 179.872C410.221 180.139 410.077 180.448 409.981 180.8C409.896 181.152 409.853 181.504 409.853 181.856C409.853 182.219 409.896 182.576 409.981 182.928C410.077 183.269 410.221 183.579 410.413 183.856C410.605 184.133 410.85 184.357 411.149 184.528C411.448 184.699 411.8 184.784 412.205 184.784ZM418.098 177.728H419.826V178.944L419.858 178.976C420.135 178.517 420.498 178.16 420.946 177.904C421.394 177.637 421.89 177.504 422.434 177.504C423.34 177.504 424.055 177.739 424.578 178.208C425.1 178.677 425.362 179.381 425.362 180.32V186H423.538V180.8C423.516 180.149 423.378 179.68 423.122 179.392C422.866 179.093 422.466 178.944 421.922 178.944C421.612 178.944 421.335 179.003 421.09 179.12C420.844 179.227 420.636 179.381 420.466 179.584C420.295 179.776 420.162 180.005 420.066 180.272C419.97 180.539 419.922 180.821 419.922 181.12V186H418.098V177.728ZM152.208 201.728H154.144L155.76 207.904H155.792L157.344 201.728H159.184L160.672 207.904H160.704L162.384 201.728H164.24L161.648 210H159.776L158.24 203.856H158.208L156.688 210H154.768L152.208 201.728ZM171.293 205.136C171.272 204.848 171.208 204.571 171.101 204.304C171.005 204.037 170.866 203.808 170.685 203.616C170.514 203.413 170.301 203.253 170.045 203.136C169.8 203.008 169.522 202.944 169.213 202.944C168.893 202.944 168.6 203.003 168.333 203.12C168.077 203.227 167.853 203.381 167.661 203.584C167.48 203.776 167.33 204.005 167.213 204.272C167.106 204.539 167.048 204.827 167.037 205.136H171.293ZM167.037 206.336C167.037 206.656 167.08 206.965 167.165 207.264C167.261 207.563 167.4 207.824 167.581 208.048C167.762 208.272 167.992 208.453 168.269 208.592C168.546 208.72 168.877 208.784 169.261 208.784C169.794 208.784 170.221 208.672 170.541 208.448C170.872 208.213 171.117 207.867 171.277 207.408H173.005C172.909 207.856 172.744 208.256 172.509 208.608C172.274 208.96 171.992 209.259 171.661 209.504C171.33 209.739 170.957 209.915 170.541 210.032C170.136 210.16 169.709 210.224 169.261 210.224C168.61 210.224 168.034 210.117 167.533 209.904C167.032 209.691 166.605 209.392 166.253 209.008C165.912 208.624 165.65 208.165 165.469 207.632C165.298 207.099 165.213 206.512 165.213 205.872C165.213 205.285 165.304 204.731 165.485 204.208C165.677 203.675 165.944 203.211 166.285 202.816C166.637 202.411 167.058 202.091 167.549 201.856C168.04 201.621 168.594 201.504 169.213 201.504C169.864 201.504 170.445 201.643 170.957 201.92C171.48 202.187 171.912 202.544 172.253 202.992C172.594 203.44 172.84 203.957 172.989 204.544C173.149 205.12 173.192 205.717 173.117 206.336H167.037ZM180.384 205.136C180.362 204.848 180.298 204.571 180.192 204.304C180.096 204.037 179.957 203.808 179.776 203.616C179.605 203.413 179.392 203.253 179.136 203.136C178.89 203.008 178.613 202.944 178.304 202.944C177.984 202.944 177.69 203.003 177.424 203.12C177.168 203.227 176.944 203.381 176.752 203.584C176.57 203.776 176.421 204.005 176.304 204.272C176.197 204.539 176.138 204.827 176.128 205.136H180.384ZM176.128 206.336C176.128 206.656 176.17 206.965 176.256 207.264C176.352 207.563 176.49 207.824 176.672 208.048C176.853 208.272 177.082 208.453 177.36 208.592C177.637 208.72 177.968 208.784 178.352 208.784C178.885 208.784 179.312 208.672 179.632 208.448C179.962 208.213 180.208 207.867 180.368 207.408H182.096C182 207.856 181.834 208.256 181.6 208.608C181.365 208.96 181.082 209.259 180.752 209.504C180.421 209.739 180.048 209.915 179.632 210.032C179.226 210.16 178.8 210.224 178.352 210.224C177.701 210.224 177.125 210.117 176.624 209.904C176.122 209.691 175.696 209.392 175.344 209.008C175.002 208.624 174.741 208.165 174.56 207.632C174.389 207.099 174.304 206.512 174.304 205.872C174.304 205.285 174.394 204.731 174.576 204.208C174.768 203.675 175.034 203.211 175.376 202.816C175.728 202.411 176.149 202.091 176.64 201.856C177.13 201.621 177.685 201.504 178.304 201.504C178.954 201.504 179.536 201.643 180.048 201.92C180.57 202.187 181.002 202.544 181.344 202.992C181.685 203.44 181.93 203.957 182.08 204.544C182.24 205.12 182.282 205.717 182.208 206.336H176.128ZM183.842 198.576H185.666V205.072L188.962 201.728H191.202L188.034 204.768L191.506 210H189.282L186.754 205.984L185.666 207.04V210H183.842V198.576ZM198.268 205.136C198.247 204.848 198.183 204.571 198.076 204.304C197.98 204.037 197.841 203.808 197.66 203.616C197.489 203.413 197.276 203.253 197.02 203.136C196.775 203.008 196.497 202.944 196.188 202.944C195.868 202.944 195.575 203.003 195.308 203.12C195.052 203.227 194.828 203.381 194.636 203.584C194.455 203.776 194.305 204.005 194.188 204.272C194.081 204.539 194.023 204.827 194.012 205.136H198.268ZM194.012 206.336C194.012 206.656 194.055 206.965 194.14 207.264C194.236 207.563 194.375 207.824 194.556 208.048C194.737 208.272 194.967 208.453 195.244 208.592C195.521 208.72 195.852 208.784 196.236 208.784C196.769 208.784 197.196 208.672 197.516 208.448C197.847 208.213 198.092 207.867 198.252 207.408H199.98C199.884 207.856 199.719 208.256 199.484 208.608C199.249 208.96 198.967 209.259 198.636 209.504C198.305 209.739 197.932 209.915 197.516 210.032C197.111 210.16 196.684 210.224 196.236 210.224C195.585 210.224 195.009 210.117 194.508 209.904C194.007 209.691 193.58 209.392 193.228 209.008C192.887 208.624 192.625 208.165 192.444 207.632C192.273 207.099 192.188 206.512 192.188 205.872C192.188 205.285 192.279 204.731 192.46 204.208C192.652 203.675 192.919 203.211 193.26 202.816C193.612 202.411 194.033 202.091 194.524 201.856C195.015 201.621 195.569 201.504 196.188 201.504C196.839 201.504 197.42 201.643 197.932 201.92C198.455 202.187 198.887 202.544 199.228 202.992C199.569 203.44 199.815 203.957 199.964 204.544C200.124 205.12 200.167 205.717 200.092 206.336H194.012ZM201.679 201.728H203.407V202.944L203.439 202.976C203.716 202.517 204.079 202.16 204.527 201.904C204.975 201.637 205.471 201.504 206.015 201.504C206.921 201.504 207.636 201.739 208.159 202.208C208.681 202.677 208.943 203.381 208.943 204.32V210H207.119V204.8C207.097 204.149 206.959 203.68 206.703 203.392C206.447 203.093 206.047 202.944 205.503 202.944C205.193 202.944 204.916 203.003 204.671 203.12C204.425 203.227 204.217 203.381 204.047 203.584C203.876 203.776 203.743 204.005 203.647 204.272C203.551 204.539 203.503 204.821 203.503 205.12V210H201.679V201.728ZM218.858 210H217.13V208.88H217.098C216.853 209.36 216.496 209.707 216.026 209.92C215.557 210.123 215.061 210.224 214.538 210.224C213.888 210.224 213.317 210.112 212.826 209.888C212.346 209.653 211.946 209.339 211.626 208.944C211.306 208.549 211.066 208.085 210.906 207.552C210.746 207.008 210.666 206.427 210.666 205.808C210.666 205.061 210.768 204.416 210.97 203.872C211.173 203.328 211.44 202.88 211.77 202.528C212.112 202.176 212.496 201.92 212.922 201.76C213.36 201.589 213.802 201.504 214.25 201.504C214.506 201.504 214.768 201.531 215.034 201.584C215.301 201.627 215.557 201.701 215.802 201.808C216.048 201.915 216.272 202.053 216.474 202.224C216.688 202.384 216.864 202.576 217.002 202.8H217.034V198.576H218.858V210ZM212.49 205.952C212.49 206.304 212.533 206.651 212.618 206.992C212.714 207.333 212.853 207.637 213.034 207.904C213.226 208.171 213.466 208.384 213.754 208.544C214.042 208.704 214.384 208.784 214.778 208.784C215.184 208.784 215.53 208.699 215.818 208.528C216.117 208.357 216.357 208.133 216.538 207.856C216.73 207.579 216.869 207.269 216.954 206.928C217.05 206.576 217.098 206.219 217.098 205.856C217.098 204.939 216.89 204.224 216.474 203.712C216.069 203.2 215.514 202.944 214.81 202.944C214.384 202.944 214.021 203.035 213.722 203.216C213.434 203.387 213.194 203.616 213.002 203.904C212.821 204.181 212.688 204.501 212.602 204.864C212.528 205.216 212.49 205.579 212.49 205.952ZM222.424 207.344C222.477 207.877 222.68 208.251 223.032 208.464C223.384 208.677 223.805 208.784 224.296 208.784C224.466 208.784 224.658 208.773 224.872 208.752C225.096 208.72 225.304 208.667 225.496 208.592C225.688 208.517 225.842 208.411 225.96 208.272C226.088 208.123 226.146 207.931 226.136 207.696C226.125 207.461 226.04 207.269 225.88 207.12C225.72 206.971 225.512 206.853 225.256 206.768C225.01 206.672 224.728 206.592 224.408 206.528C224.088 206.464 223.762 206.395 223.432 206.32C223.09 206.245 222.76 206.155 222.44 206.048C222.13 205.941 221.848 205.797 221.592 205.616C221.346 205.435 221.149 205.205 221 204.928C220.85 204.64 220.776 204.288 220.776 203.872C220.776 203.424 220.882 203.051 221.096 202.752C221.32 202.443 221.597 202.197 221.928 202.016C222.269 201.824 222.642 201.691 223.048 201.616C223.464 201.541 223.858 201.504 224.232 201.504C224.658 201.504 225.064 201.552 225.448 201.648C225.842 201.733 226.194 201.877 226.504 202.08C226.824 202.283 227.085 202.549 227.288 202.88C227.501 203.2 227.634 203.589 227.688 204.048H225.784C225.698 203.611 225.496 203.317 225.176 203.168C224.866 203.019 224.509 202.944 224.104 202.944C223.976 202.944 223.821 202.955 223.64 202.976C223.469 202.997 223.304 203.04 223.144 203.104C222.994 203.157 222.866 203.243 222.76 203.36C222.653 203.467 222.6 203.611 222.6 203.792C222.6 204.016 222.674 204.197 222.824 204.336C222.984 204.475 223.186 204.592 223.432 204.688C223.688 204.773 223.976 204.848 224.296 204.912C224.616 204.976 224.946 205.045 225.288 205.12C225.618 205.195 225.944 205.285 226.264 205.392C226.584 205.499 226.866 205.643 227.112 205.824C227.368 206.005 227.57 206.235 227.72 206.512C227.88 206.789 227.96 207.131 227.96 207.536C227.96 208.027 227.848 208.443 227.624 208.784C227.4 209.125 227.106 209.403 226.744 209.616C226.392 209.829 225.997 209.984 225.56 210.08C225.122 210.176 224.69 210.224 224.264 210.224C223.741 210.224 223.256 210.165 222.808 210.048C222.37 209.931 221.986 209.755 221.656 209.52C221.336 209.275 221.08 208.976 220.888 208.624C220.706 208.261 220.61 207.835 220.6 207.344H222.424ZM229.688 207.84H231.912V210H229.688V207.84Z" fill="black"/>
<path d="M100 288H500V336H100V288Z" fill="#BD793C" fill-opacity="0.08"/>
<path fill-rule="evenodd" clip-rule="evenodd" d="M119 312.6V320.4C119 321.063 119.537 321.6 120.2 321.6H127.4V312.6H119ZM128.6 312.6V321.6H135.8C136.463 321.6 137 321.063 137 320.4V312.6H128.6ZM136.4 307.2H131.672C132.046 307.177 132.461 307.072 132.791 306.883C133.535 306.458 133.996 305.667 134 304.81C134.003 303.953 133.549 303.159 132.808 302.727C132.068 302.295 131.153 302.291 130.408 302.717C130.018 302.941 129.732 303.225 129.527 303.591L128 306.185L126.473 303.591C126.268 303.225 125.982 302.941 125.591 302.717C124.847 302.291 123.932 302.295 123.192 302.727C122.451 303.159 121.997 303.953 122 304.81C122.004 305.668 122.464 306.458 123.209 306.883C123.539 307.073 123.954 307.177 124.328 307.2H119.6C118.937 307.2 118.4 307.737 118.4 308.4V311.4H127.4V307.204H128.6V311.4H137.6V308.4C137.6 307.737 137.063 307.2 136.4 307.2ZM123.359 304.204C123.573 303.831 123.971 303.6 124.402 303.6C124.61 303.6 124.815 303.654 124.995 303.759C125.195 303.873 125.328 304.002 125.427 304.179L125.433 304.189L126.501 306.004H124.516L124.504 306.004C124.496 306.005 124.488 306.005 124.481 306.005C124.247 306.005 123.975 305.939 123.805 305.842C123.23 305.512 123.031 304.78 123.359 304.204ZM130.567 304.19L130.573 304.179C130.672 304.002 130.805 303.873 131.004 303.759C131.185 303.654 131.389 303.6 131.598 303.6C132.142 303.599 132.619 303.965 132.759 304.491C132.9 305.017 132.668 305.572 132.195 305.842C132.025 305.939 131.753 306.005 131.519 306.005C131.511 306.005 131.504 306.005 131.496 306.004L131.484 306.004H129.499L130.567 304.19ZM132.788 307.471C132.865 307.471 132.865 307.351 132.788 307.351C132.711 307.351 132.711 307.471 132.788 307.471Z" fill="black"/>
<path d="M153.088 306.576H155.088V313.232C155.088 313.616 155.104 314.005 155.136 314.4C155.179 314.795 155.285 315.152 155.456 315.472C155.637 315.781 155.904 316.037 156.256 316.24C156.619 316.443 157.125 316.544 157.776 316.544C158.427 316.544 158.928 316.443 159.28 316.24C159.643 316.037 159.909 315.781 160.08 315.472C160.261 315.152 160.368 314.795 160.4 314.4C160.443 314.005 160.464 313.616 160.464 313.232V306.576H162.464V313.888C162.464 314.624 162.352 315.264 162.128 315.808C161.904 316.352 161.584 316.811 161.168 317.184C160.763 317.547 160.272 317.819 159.696 318C159.12 318.181 158.48 318.272 157.776 318.272C157.072 318.272 156.432 318.181 155.856 318C155.28 317.819 154.784 317.547 154.368 317.184C153.963 316.811 153.648 316.352 153.424 315.808C153.2 315.264 153.088 314.624 153.088 313.888V306.576ZM164.755 309.728H166.483V310.848H166.515C166.771 310.368 167.128 310.027 167.587 309.824C168.046 309.611 168.542 309.504 169.075 309.504C169.726 309.504 170.291 309.621 170.771 309.856C171.262 310.08 171.667 310.395 171.987 310.8C172.307 311.195 172.547 311.659 172.707 312.192C172.867 312.725 172.947 313.296 172.947 313.904C172.947 314.459 172.872 314.997 172.723 315.52C172.584 316.043 172.366 316.507 172.067 316.912C171.779 317.307 171.411 317.627 170.963 317.872C170.515 318.107 169.987 318.224 169.379 318.224C169.112 318.224 168.846 318.197 168.579 318.144C168.312 318.101 168.056 318.027 167.811 317.92C167.566 317.813 167.336 317.68 167.123 317.52C166.92 317.349 166.75 317.152 166.611 316.928H166.579V321.056H164.755V309.728ZM171.123 313.872C171.123 313.499 171.075 313.136 170.979 312.784C170.883 312.432 170.739 312.123 170.547 311.856C170.355 311.579 170.115 311.36 169.827 311.2C169.539 311.029 169.208 310.944 168.835 310.944C168.067 310.944 167.486 311.211 167.091 311.744C166.707 312.277 166.515 312.987 166.515 313.872C166.515 314.288 166.563 314.677 166.659 315.04C166.766 315.392 166.92 315.696 167.123 315.952C167.326 316.208 167.566 316.411 167.843 316.56C168.131 316.709 168.462 316.784 168.835 316.784C169.251 316.784 169.603 316.699 169.891 316.528C170.179 316.357 170.414 316.139 170.595 315.872C170.787 315.595 170.92 315.285 170.995 314.944C171.08 314.592 171.123 314.235 171.123 313.872ZM182.336 317.568C182.336 318.816 181.984 319.744 181.28 320.352C180.587 320.971 179.584 321.28 178.272 321.28C177.856 321.28 177.435 321.237 177.008 321.152C176.592 321.067 176.208 320.923 175.856 320.72C175.515 320.517 175.227 320.251 174.992 319.92C174.757 319.589 174.619 319.184 174.576 318.704H176.4C176.453 318.96 176.544 319.168 176.672 319.328C176.8 319.488 176.949 319.611 177.12 319.696C177.301 319.792 177.499 319.851 177.712 319.872C177.925 319.904 178.149 319.92 178.384 319.92C179.12 319.92 179.659 319.739 180 319.376C180.341 319.013 180.512 318.491 180.512 317.808V316.544H180.48C180.224 317.003 179.872 317.36 179.424 317.616C178.987 317.872 178.512 318 178 318C177.339 318 176.773 317.888 176.304 317.664C175.845 317.429 175.461 317.115 175.152 316.72C174.853 316.315 174.635 315.851 174.496 315.328C174.357 314.805 174.288 314.245 174.288 313.648C174.288 313.093 174.373 312.565 174.544 312.064C174.715 311.563 174.96 311.125 175.28 310.752C175.6 310.368 175.989 310.064 176.448 309.84C176.917 309.616 177.445 309.504 178.032 309.504C178.555 309.504 179.035 309.616 179.472 309.84C179.909 310.053 180.245 310.395 180.48 310.864H180.512V309.728H182.336V317.568ZM178.288 316.56C178.693 316.56 179.035 316.48 179.312 316.32C179.6 316.149 179.829 315.931 180 315.664C180.181 315.387 180.309 315.077 180.384 314.736C180.469 314.384 180.512 314.032 180.512 313.68C180.512 313.328 180.469 312.987 180.384 312.656C180.299 312.325 180.165 312.032 179.984 311.776C179.813 311.52 179.584 311.317 179.296 311.168C179.019 311.019 178.683 310.944 178.288 310.944C177.883 310.944 177.541 311.029 177.264 311.2C176.987 311.371 176.763 311.595 176.592 311.872C176.421 312.139 176.299 312.448 176.224 312.8C176.149 313.141 176.112 313.483 176.112 313.824C176.112 314.165 176.155 314.501 176.24 314.832C176.325 315.152 176.453 315.44 176.624 315.696C176.805 315.952 177.029 316.16 177.296 316.32C177.573 316.48 177.904 316.56 178.288 316.56ZM184.373 309.728H186.085V311.328H186.117C186.17 311.104 186.271 310.885 186.421 310.672C186.581 310.459 186.767 310.267 186.981 310.096C187.205 309.915 187.45 309.771 187.717 309.664C187.983 309.557 188.255 309.504 188.533 309.504C188.746 309.504 188.89 309.509 188.965 309.52C189.05 309.531 189.135 309.541 189.221 309.552V311.312C189.093 311.291 188.959 311.275 188.821 311.264C188.693 311.243 188.565 311.232 188.437 311.232C188.127 311.232 187.834 311.296 187.557 311.424C187.29 311.541 187.055 311.723 186.853 311.968C186.65 312.203 186.49 312.496 186.373 312.848C186.255 313.2 186.197 313.605 186.197 314.064V318H184.373V309.728ZM197.125 316.16C197.125 316.384 197.152 316.544 197.205 316.64C197.269 316.736 197.387 316.784 197.557 316.784C197.611 316.784 197.675 316.784 197.749 316.784C197.824 316.784 197.909 316.773 198.005 316.752V318.016C197.942 318.037 197.856 318.059 197.749 318.08C197.653 318.112 197.552 318.139 197.445 318.16C197.339 318.181 197.232 318.197 197.125 318.208C197.019 318.219 196.928 318.224 196.853 318.224C196.48 318.224 196.171 318.149 195.925 318C195.68 317.851 195.52 317.589 195.445 317.216C195.083 317.568 194.635 317.824 194.101 317.984C193.579 318.144 193.072 318.224 192.581 318.224C192.208 318.224 191.851 318.171 191.509 318.064C191.168 317.968 190.864 317.824 190.597 317.632C190.341 317.429 190.133 317.179 189.973 316.88C189.824 316.571 189.749 316.213 189.749 315.808C189.749 315.296 189.84 314.88 190.021 314.56C190.213 314.24 190.459 313.989 190.757 313.808C191.067 313.627 191.408 313.499 191.781 313.424C192.165 313.339 192.549 313.275 192.933 313.232C193.264 313.168 193.579 313.125 193.877 313.104C194.176 313.072 194.437 313.024 194.661 312.96C194.896 312.896 195.077 312.8 195.205 312.672C195.344 312.533 195.413 312.331 195.413 312.064C195.413 311.829 195.355 311.637 195.237 311.488C195.131 311.339 194.992 311.227 194.821 311.152C194.661 311.067 194.48 311.013 194.277 310.992C194.075 310.96 193.883 310.944 193.701 310.944C193.189 310.944 192.768 311.051 192.437 311.264C192.107 311.477 191.92 311.808 191.877 312.256H190.053C190.085 311.723 190.213 311.28 190.437 310.928C190.661 310.576 190.944 310.293 191.285 310.08C191.637 309.867 192.032 309.717 192.469 309.632C192.907 309.547 193.355 309.504 193.813 309.504C194.219 309.504 194.619 309.547 195.013 309.632C195.408 309.717 195.76 309.856 196.069 310.048C196.389 310.24 196.645 310.491 196.837 310.8C197.029 311.099 197.125 311.467 197.125 311.904V316.16ZM195.301 313.856C195.024 314.037 194.683 314.149 194.277 314.192C193.872 314.224 193.467 314.277 193.061 314.352C192.869 314.384 192.683 314.432 192.501 314.496C192.32 314.549 192.16 314.629 192.021 314.736C191.883 314.832 191.771 314.965 191.685 315.136C191.611 315.296 191.573 315.493 191.573 315.728C191.573 315.931 191.632 316.101 191.749 316.24C191.867 316.379 192.005 316.491 192.165 316.576C192.336 316.651 192.517 316.704 192.709 316.736C192.912 316.768 193.093 316.784 193.253 316.784C193.456 316.784 193.675 316.757 193.909 316.704C194.144 316.651 194.363 316.56 194.565 316.432C194.779 316.304 194.955 316.144 195.093 315.952C195.232 315.749 195.301 315.504 195.301 315.216V313.856ZM207.08 318H205.352V316.88H205.32C205.075 317.36 204.717 317.707 204.248 317.92C203.779 318.123 203.283 318.224 202.76 318.224C202.109 318.224 201.539 318.112 201.048 317.888C200.568 317.653 200.168 317.339 199.848 316.944C199.528 316.549 199.288 316.085 199.128 315.552C198.968 315.008 198.888 314.427 198.888 313.808C198.888 313.061 198.989 312.416 199.192 311.872C199.395 311.328 199.661 310.88 199.992 310.528C200.333 310.176 200.717 309.92 201.144 309.76C201.581 309.589 202.024 309.504 202.472 309.504C202.728 309.504 202.989 309.531 203.256 309.584C203.523 309.627 203.779 309.701 204.024 309.808C204.269 309.915 204.493 310.053 204.696 310.224C204.909 310.384 205.085 310.576 205.224 310.8H205.256V306.576H207.08V318ZM200.712 313.952C200.712 314.304 200.755 314.651 200.84 314.992C200.936 315.333 201.075 315.637 201.256 315.904C201.448 316.171 201.688 316.384 201.976 316.544C202.264 316.704 202.605 316.784 203 316.784C203.405 316.784 203.752 316.699 204.04 316.528C204.339 316.357 204.579 316.133 204.76 315.856C204.952 315.579 205.091 315.269 205.176 314.928C205.272 314.576 205.32 314.219 205.32 313.856C205.32 312.939 205.112 312.224 204.696 311.712C204.291 311.2 203.736 310.944 203.032 310.944C202.605 310.944 202.243 311.035 201.944 311.216C201.656 311.387 201.416 311.616 201.224 311.904C201.043 312.181 200.909 312.501 200.824 312.864C200.749 313.216 200.712 313.579 200.712 313.952ZM214.949 313.136C214.928 312.848 214.864 312.571 214.757 312.304C214.661 312.037 214.523 311.808 214.341 311.616C214.171 311.413 213.957 311.253 213.701 311.136C213.456 311.008 213.179 310.944 212.869 310.944C212.549 310.944 212.256 311.003 211.989 311.12C211.733 311.227 211.509 311.381 211.317 311.584C211.136 311.776 210.987 312.005 210.869 312.272C210.763 312.539 210.704 312.827 210.693 313.136H214.949ZM210.693 314.336C210.693 314.656 210.736 314.965 210.821 315.264C210.917 315.563 211.056 315.824 211.237 316.048C211.419 316.272 211.648 316.453 211.925 316.592C212.203 316.72 212.533 316.784 212.917 316.784C213.451 316.784 213.877 316.672 214.197 316.448C214.528 316.213 214.773 315.867 214.933 315.408H216.661C216.565 315.856 216.4 316.256 216.165 316.608C215.931 316.96 215.648 317.259 215.317 317.504C214.987 317.739 214.613 317.915 214.197 318.032C213.792 318.16 213.365 318.224 212.917 318.224C212.267 318.224 211.691 318.117 211.189 317.904C210.688 317.691 210.261 317.392 209.909 317.008C209.568 316.624 209.307 316.165 209.125 315.632C208.955 315.099 208.869 314.512 208.869 313.872C208.869 313.285 208.96 312.731 209.141 312.208C209.333 311.675 209.6 311.211 209.941 310.816C210.293 310.411 210.715 310.091 211.205 309.856C211.696 309.621 212.251 309.504 212.869 309.504C213.52 309.504 214.101 309.643 214.613 309.92C215.136 310.187 215.568 310.544 215.909 310.992C216.251 311.44 216.496 311.957 216.645 312.544C216.805 313.12 216.848 313.717 216.773 314.336H210.693ZM222.101 309.728H224.101L226.261 315.904H226.293L228.389 309.728H230.293L227.077 318.448C226.928 318.821 226.778 319.179 226.629 319.52C226.49 319.861 226.314 320.16 226.101 320.416C225.898 320.683 225.642 320.891 225.333 321.04C225.024 321.2 224.629 321.28 224.149 321.28C223.722 321.28 223.301 321.248 222.885 321.184V319.648C223.034 319.669 223.178 319.691 223.317 319.712C223.456 319.744 223.6 319.76 223.749 319.76C223.962 319.76 224.138 319.733 224.277 319.68C224.416 319.627 224.528 319.547 224.613 319.44C224.709 319.344 224.789 319.227 224.853 319.088C224.917 318.949 224.976 318.789 225.029 318.608L225.237 317.968L222.101 309.728ZM235.302 318.224C234.641 318.224 234.049 318.117 233.526 317.904C233.014 317.68 232.577 317.376 232.214 316.992C231.862 316.608 231.59 316.149 231.398 315.616C231.217 315.083 231.126 314.496 231.126 313.856C231.126 313.227 231.217 312.645 231.398 312.112C231.59 311.579 231.862 311.12 232.214 310.736C232.577 310.352 233.014 310.053 233.526 309.84C234.049 309.616 234.641 309.504 235.302 309.504C235.963 309.504 236.55 309.616 237.062 309.84C237.585 310.053 238.022 310.352 238.374 310.736C238.737 311.12 239.009 311.579 239.19 312.112C239.382 312.645 239.478 313.227 239.478 313.856C239.478 314.496 239.382 315.083 239.19 315.616C239.009 316.149 238.737 316.608 238.374 316.992C238.022 317.376 237.585 317.68 237.062 317.904C236.55 318.117 235.963 318.224 235.302 318.224ZM235.302 316.784C235.707 316.784 236.059 316.699 236.358 316.528C236.657 316.357 236.902 316.133 237.094 315.856C237.286 315.579 237.425 315.269 237.51 314.928C237.606 314.576 237.654 314.219 237.654 313.856C237.654 313.504 237.606 313.152 237.51 312.8C237.425 312.448 237.286 312.139 237.094 311.872C236.902 311.595 236.657 311.371 236.358 311.2C236.059 311.029 235.707 310.944 235.302 310.944C234.897 310.944 234.545 311.029 234.246 311.2C233.947 311.371 233.702 311.595 233.51 311.872C233.318 312.139 233.174 312.448 233.078 312.8C232.993 313.152 232.95 313.504 232.95 313.856C232.95 314.219 232.993 314.576 233.078 314.928C233.174 315.269 233.318 315.579 233.51 315.856C233.702 316.133 233.947 316.357 234.246 316.528C234.545 316.699 234.897 316.784 235.302 316.784ZM248.458 318H246.666V316.848H246.634C246.41 317.264 246.074 317.6 245.626 317.856C245.189 318.101 244.741 318.224 244.282 318.224C243.194 318.224 242.405 317.957 241.914 317.424C241.434 316.88 241.194 316.064 241.194 314.976V309.728H243.018V314.8C243.018 315.525 243.157 316.037 243.434 316.336C243.712 316.635 244.101 316.784 244.602 316.784C244.986 316.784 245.306 316.725 245.562 316.608C245.818 316.491 246.026 316.336 246.186 316.144C246.346 315.941 246.458 315.701 246.522 315.424C246.597 315.147 246.634 314.848 246.634 314.528V309.728H248.458V318ZM250.582 309.728H252.294V311.328H252.326C252.379 311.104 252.481 310.885 252.63 310.672C252.79 310.459 252.977 310.267 253.19 310.096C253.414 309.915 253.659 309.771 253.926 309.664C254.193 309.557 254.465 309.504 254.742 309.504C254.955 309.504 255.099 309.509 255.174 309.52C255.259 309.531 255.345 309.541 255.43 309.552V311.312C255.302 311.291 255.169 311.275 255.03 311.264C254.902 311.243 254.774 311.232 254.646 311.232C254.337 311.232 254.043 311.296 253.766 311.424C253.499 311.541 253.265 311.723 253.062 311.968C252.859 312.203 252.699 312.496 252.582 312.848C252.465 313.2 252.406 313.605 252.406 314.064V318H250.582V309.728ZM261.108 309.728H262.836V310.848H262.868C263.124 310.368 263.481 310.027 263.94 309.824C264.399 309.611 264.895 309.504 265.428 309.504C266.079 309.504 266.644 309.621 267.124 309.856C267.615 310.08 268.02 310.395 268.34 310.8C268.66 311.195 268.9 311.659 269.06 312.192C269.22 312.725 269.3 313.296 269.3 313.904C269.3 314.459 269.225 314.997 269.076 315.52C268.937 316.043 268.719 316.507 268.42 316.912C268.132 317.307 267.764 317.627 267.316 317.872C266.868 318.107 266.34 318.224 265.732 318.224C265.465 318.224 265.199 318.197 264.932 318.144C264.665 318.101 264.409 318.027 264.164 317.92C263.919 317.813 263.689 317.68 263.476 317.52C263.273 317.349 263.103 317.152 262.964 316.928H262.932V321.056H261.108V309.728ZM267.476 313.872C267.476 313.499 267.428 313.136 267.332 312.784C267.236 312.432 267.092 312.123 266.9 311.856C266.708 311.579 266.468 311.36 266.18 311.2C265.892 311.029 265.561 310.944 265.188 310.944C264.42 310.944 263.839 311.211 263.444 311.744C263.06 312.277 262.868 312.987 262.868 313.872C262.868 314.288 262.916 314.677 263.012 315.04C263.119 315.392 263.273 315.696 263.476 315.952C263.679 316.208 263.919 316.411 264.196 316.56C264.484 316.709 264.815 316.784 265.188 316.784C265.604 316.784 265.956 316.699 266.244 316.528C266.532 316.357 266.767 316.139 266.948 315.872C267.14 315.595 267.273 315.285 267.348 314.944C267.433 314.592 267.476 314.235 267.476 313.872ZM271.089 306.576H272.913V318H271.089V306.576ZM282.029 316.16C282.029 316.384 282.055 316.544 282.109 316.64C282.173 316.736 282.29 316.784 282.461 316.784C282.514 316.784 282.578 316.784 282.653 316.784C282.727 316.784 282.813 316.773 282.909 316.752V318.016C282.845 318.037 282.759 318.059 282.653 318.08C282.557 318.112 282.455 318.139 282.349 318.16C282.242 318.181 282.135 318.197 282.029 318.208C281.922 318.219 281.831 318.224 281.757 318.224C281.383 318.224 281.074 318.149 280.829 318C280.583 317.851 280.423 317.589 280.349 317.216C279.986 317.568 279.538 317.824 279.005 317.984C278.482 318.144 277.975 318.224 277.485 318.224C277.111 318.224 276.754 318.171 276.413 318.064C276.071 317.968 275.767 317.824 275.501 317.632C275.245 317.429 275.037 317.179 274.877 316.88C274.727 316.571 274.653 316.213 274.653 315.808C274.653 315.296 274.743 314.88 274.925 314.56C275.117 314.24 275.362 313.989 275.661 313.808C275.97 313.627 276.311 313.499 276.685 313.424C277.069 313.339 277.453 313.275 277.837 313.232C278.167 313.168 278.482 313.125 278.781 313.104C279.079 313.072 279.341 313.024 279.565 312.96C279.799 312.896 279.981 312.8 280.109 312.672C280.247 312.533 280.317 312.331 280.317 312.064C280.317 311.829 280.258 311.637 280.141 311.488C280.034 311.339 279.895 311.227 279.725 311.152C279.565 311.067 279.383 311.013 279.181 310.992C278.978 310.96 278.786 310.944 278.605 310.944C278.093 310.944 277.671 311.051 277.341 311.264C277.01 311.477 276.823 311.808 276.781 312.256H274.957C274.989 311.723 275.117 311.28 275.341 310.928C275.565 310.576 275.847 310.293 276.189 310.08C276.541 309.867 276.935 309.717 277.373 309.632C277.81 309.547 278.258 309.504 278.717 309.504C279.122 309.504 279.522 309.547 279.917 309.632C280.311 309.717 280.663 309.856 280.973 310.048C281.293 310.24 281.549 310.491 281.741 310.8C281.933 311.099 282.029 311.467 282.029 311.904V316.16ZM280.205 313.856C279.927 314.037 279.586 314.149 279.181 314.192C278.775 314.224 278.37 314.277 277.965 314.352C277.773 314.384 277.586 314.432 277.405 314.496C277.223 314.549 277.063 314.629 276.925 314.736C276.786 314.832 276.674 314.965 276.589 315.136C276.514 315.296 276.477 315.493 276.477 315.728C276.477 315.931 276.535 316.101 276.653 316.24C276.77 316.379 276.909 316.491 277.069 316.576C277.239 316.651 277.421 316.704 277.613 316.736C277.815 316.768 277.997 316.784 278.157 316.784C278.359 316.784 278.578 316.757 278.813 316.704C279.047 316.651 279.266 316.56 279.469 316.432C279.682 316.304 279.858 316.144 279.997 315.952C280.135 315.749 280.205 315.504 280.205 315.216V313.856ZM284.191 309.728H285.919V310.944L285.951 310.976C286.229 310.517 286.591 310.16 287.039 309.904C287.487 309.637 287.983 309.504 288.527 309.504C289.434 309.504 290.149 309.739 290.671 310.208C291.194 310.677 291.455 311.381 291.455 312.32V318H289.631V312.8C289.61 312.149 289.471 311.68 289.215 311.392C288.959 311.093 288.559 310.944 288.015 310.944C287.706 310.944 287.429 311.003 287.183 311.12C286.938 311.227 286.73 311.381 286.559 311.584C286.389 311.776 286.255 312.005 286.159 312.272C286.063 312.539 286.015 312.821 286.015 313.12V318H284.191V309.728ZM305.16 316.16C305.16 316.384 305.187 316.544 305.24 316.64C305.304 316.736 305.421 316.784 305.592 316.784C305.645 316.784 305.709 316.784 305.784 316.784C305.859 316.784 305.944 316.773 306.04 316.752V318.016C305.976 318.037 305.891 318.059 305.784 318.08C305.688 318.112 305.587 318.139 305.48 318.16C305.373 318.181 305.267 318.197 305.16 318.208C305.053 318.219 304.963 318.224 304.888 318.224C304.515 318.224 304.205 318.149 303.96 318C303.715 317.851 303.555 317.589 303.48 317.216C303.117 317.568 302.669 317.824 302.136 317.984C301.613 318.144 301.107 318.224 300.616 318.224C300.243 318.224 299.885 318.171 299.544 318.064C299.203 317.968 298.899 317.824 298.632 317.632C298.376 317.429 298.168 317.179 298.008 316.88C297.859 316.571 297.784 316.213 297.784 315.808C297.784 315.296 297.875 314.88 298.056 314.56C298.248 314.24 298.493 313.989 298.792 313.808C299.101 313.627 299.443 313.499 299.816 313.424C300.2 313.339 300.584 313.275 300.968 313.232C301.299 313.168 301.613 313.125 301.912 313.104C302.211 313.072 302.472 313.024 302.696 312.96C302.931 312.896 303.112 312.8 303.24 312.672C303.379 312.533 303.448 312.331 303.448 312.064C303.448 311.829 303.389 311.637 303.272 311.488C303.165 311.339 303.027 311.227 302.856 311.152C302.696 311.067 302.515 311.013 302.312 310.992C302.109 310.96 301.917 310.944 301.736 310.944C301.224 310.944 300.803 311.051 300.472 311.264C300.141 311.477 299.955 311.808 299.912 312.256H298.088C298.12 311.723 298.248 311.28 298.472 310.928C298.696 310.576 298.979 310.293 299.32 310.08C299.672 309.867 300.067 309.717 300.504 309.632C300.941 309.547 301.389 309.504 301.848 309.504C302.253 309.504 302.653 309.547 303.048 309.632C303.443 309.717 303.795 309.856 304.104 310.048C304.424 310.24 304.68 310.491 304.872 310.8C305.064 311.099 305.16 311.467 305.16 311.904V316.16ZM303.336 313.856C303.059 314.037 302.717 314.149 302.312 314.192C301.907 314.224 301.501 314.277 301.096 314.352C300.904 314.384 300.717 314.432 300.536 314.496C300.355 314.549 300.195 314.629 300.056 314.736C299.917 314.832 299.805 314.965 299.72 315.136C299.645 315.296 299.608 315.493 299.608 315.728C299.608 315.931 299.667 316.101 299.784 316.24C299.901 316.379 300.04 316.491 300.2 316.576C300.371 316.651 300.552 316.704 300.744 316.736C300.947 316.768 301.128 316.784 301.288 316.784C301.491 316.784 301.709 316.757 301.944 316.704C302.179 316.651 302.397 316.56 302.6 316.432C302.813 316.304 302.989 316.144 303.128 315.952C303.267 315.749 303.336 315.504 303.336 315.216V313.856ZM307.323 309.728H309.051V310.944L309.083 310.976C309.36 310.517 309.723 310.16 310.171 309.904C310.619 309.637 311.115 309.504 311.659 309.504C312.565 309.504 313.28 309.739 313.803 310.208C314.325 310.677 314.587 311.381 314.587 312.32V318H312.763V312.8C312.741 312.149 312.603 311.68 312.347 311.392C312.091 311.093 311.691 310.944 311.147 310.944C310.837 310.944 310.56 311.003 310.315 311.12C310.069 311.227 309.861 311.381 309.691 311.584C309.52 311.776 309.387 312.005 309.291 312.272C309.195 312.539 309.147 312.821 309.147 313.12V318H307.323V309.728ZM324.502 318H322.774V316.88H322.742C322.497 317.36 322.139 317.707 321.67 317.92C321.201 318.123 320.705 318.224 320.182 318.224C319.531 318.224 318.961 318.112 318.47 317.888C317.99 317.653 317.59 317.339 317.27 316.944C316.95 316.549 316.71 316.085 316.55 315.552C316.39 315.008 316.31 314.427 316.31 313.808C316.31 313.061 316.411 312.416 316.614 311.872C316.817 311.328 317.083 310.88 317.414 310.528C317.755 310.176 318.139 309.92 318.566 309.76C319.003 309.589 319.446 309.504 319.894 309.504C320.15 309.504 320.411 309.531 320.678 309.584C320.945 309.627 321.201 309.701 321.446 309.808C321.691 309.915 321.915 310.053 322.118 310.224C322.331 310.384 322.507 310.576 322.646 310.8H322.678V306.576H324.502V318ZM318.134 313.952C318.134 314.304 318.177 314.651 318.262 314.992C318.358 315.333 318.497 315.637 318.678 315.904C318.87 316.171 319.11 316.384 319.398 316.544C319.686 316.704 320.027 316.784 320.422 316.784C320.827 316.784 321.174 316.699 321.462 316.528C321.761 316.357 322.001 316.133 322.182 315.856C322.374 315.579 322.513 315.269 322.598 314.928C322.694 314.576 322.742 314.219 322.742 313.856C322.742 312.939 322.534 312.224 322.118 311.712C321.713 311.2 321.158 310.944 320.454 310.944C320.027 310.944 319.665 311.035 319.366 311.216C319.078 311.387 318.838 311.616 318.646 311.904C318.465 312.181 318.331 312.501 318.246 312.864C318.171 313.216 318.134 313.579 318.134 313.952ZM338.992 317.568C338.992 318.816 338.64 319.744 337.936 320.352C337.243 320.971 336.24 321.28 334.928 321.28C334.512 321.28 334.091 321.237 333.664 321.152C333.248 321.067 332.864 320.923 332.512 320.72C332.171 320.517 331.883 320.251 331.648 319.92C331.414 319.589 331.275 319.184 331.232 318.704H333.056C333.11 318.96 333.2 319.168 333.328 319.328C333.456 319.488 333.606 319.611 333.776 319.696C333.958 319.792 334.155 319.851 334.368 319.872C334.582 319.904 334.806 319.92 335.04 319.92C335.776 319.92 336.315 319.739 336.656 319.376C336.998 319.013 337.168 318.491 337.168 317.808V316.544H337.136C336.88 317.003 336.528 317.36 336.08 317.616C335.643 317.872 335.168 318 334.656 318C333.995 318 333.43 317.888 332.96 317.664C332.502 317.429 332.118 317.115 331.808 316.72C331.51 316.315 331.291 315.851 331.152 315.328C331.014 314.805 330.944 314.245 330.944 313.648C330.944 313.093 331.03 312.565 331.2 312.064C331.371 311.563 331.616 311.125 331.936 310.752C332.256 310.368 332.646 310.064 333.104 309.84C333.574 309.616 334.102 309.504 334.688 309.504C335.211 309.504 335.691 309.616 336.128 309.84C336.566 310.053 336.902 310.395 337.136 310.864H337.168V309.728H338.992V317.568ZM334.944 316.56C335.35 316.56 335.691 316.48 335.968 316.32C336.256 316.149 336.486 315.931 336.656 315.664C336.838 315.387 336.966 315.077 337.04 314.736C337.126 314.384 337.168 314.032 337.168 313.68C337.168 313.328 337.126 312.987 337.04 312.656C336.955 312.325 336.822 312.032 336.64 311.776C336.47 311.52 336.24 311.317 335.952 311.168C335.675 311.019 335.339 310.944 334.944 310.944C334.539 310.944 334.198 311.029 333.92 311.2C333.643 311.371 333.419 311.595 333.248 311.872C333.078 312.139 332.955 312.448 332.88 312.8C332.806 313.141 332.768 313.483 332.768 313.824C332.768 314.165 332.811 314.501 332.896 314.832C332.982 315.152 333.11 315.44 333.28 315.696C333.462 315.952 333.686 316.16 333.952 316.32C334.23 316.48 334.56 316.56 334.944 316.56ZM346.709 313.136C346.687 312.848 346.623 312.571 346.517 312.304C346.421 312.037 346.282 311.808 346.101 311.616C345.93 311.413 345.717 311.253 345.461 311.136C345.215 311.008 344.938 310.944 344.629 310.944C344.309 310.944 344.015 311.003 343.749 311.12C343.493 311.227 343.269 311.381 343.077 311.584C342.895 311.776 342.746 312.005 342.629 312.272C342.522 312.539 342.463 312.827 342.453 313.136H346.709ZM342.453 314.336C342.453 314.656 342.495 314.965 342.581 315.264C342.677 315.563 342.815 315.824 342.997 316.048C343.178 316.272 343.407 316.453 343.685 316.592C343.962 316.72 344.293 316.784 344.677 316.784C345.21 316.784 345.637 316.672 345.957 316.448C346.287 316.213 346.533 315.867 346.693 315.408H348.421C348.325 315.856 348.159 316.256 347.925 316.608C347.69 316.96 347.407 317.259 347.077 317.504C346.746 317.739 346.373 317.915 345.957 318.032C345.551 318.16 345.125 318.224 344.677 318.224C344.026 318.224 343.45 318.117 342.949 317.904C342.447 317.691 342.021 317.392 341.669 317.008C341.327 316.624 341.066 316.165 340.885 315.632C340.714 315.099 340.629 314.512 340.629 313.872C340.629 313.285 340.719 312.731 340.901 312.208C341.093 311.675 341.359 311.211 341.701 310.816C342.053 310.411 342.474 310.091 342.965 309.856C343.455 309.621 344.01 309.504 344.629 309.504C345.279 309.504 345.861 309.643 346.373 309.92C346.895 310.187 347.327 310.544 347.669 310.992C348.01 311.44 348.255 311.957 348.405 312.544C348.565 313.12 348.607 313.717 348.533 314.336H342.453ZM349.287 309.728H350.663V307.248H352.487V309.728H354.135V311.088H352.487V315.504C352.487 315.696 352.493 315.861 352.503 316C352.525 316.139 352.562 316.256 352.615 316.352C352.679 316.448 352.77 316.523 352.887 316.576C353.005 316.619 353.165 316.64 353.367 316.64C353.495 316.64 353.623 316.64 353.751 316.64C353.879 316.629 354.007 316.608 354.135 316.576V317.984C353.933 318.005 353.735 318.027 353.543 318.048C353.351 318.069 353.154 318.08 352.951 318.08C352.471 318.08 352.082 318.037 351.783 317.952C351.495 317.856 351.266 317.723 351.095 317.552C350.935 317.371 350.823 317.147 350.759 316.88C350.706 316.613 350.674 316.309 350.663 315.968V311.088H349.287V309.728ZM367.229 316.16C367.229 316.384 367.255 316.544 367.309 316.64C367.373 316.736 367.49 316.784 367.661 316.784C367.714 316.784 367.778 316.784 367.853 316.784C367.927 316.784 368.013 316.773 368.109 316.752V318.016C368.045 318.037 367.959 318.059 367.853 318.08C367.757 318.112 367.655 318.139 367.549 318.16C367.442 318.181 367.335 318.197 367.229 318.208C367.122 318.219 367.031 318.224 366.957 318.224C366.583 318.224 366.274 318.149 366.029 318C365.783 317.851 365.623 317.589 365.549 317.216C365.186 317.568 364.738 317.824 364.205 317.984C363.682 318.144 363.175 318.224 362.685 318.224C362.311 318.224 361.954 318.171 361.613 318.064C361.271 317.968 360.967 317.824 360.701 317.632C360.445 317.429 360.237 317.179 360.077 316.88C359.927 316.571 359.853 316.213 359.853 315.808C359.853 315.296 359.943 314.88 360.125 314.56C360.317 314.24 360.562 313.989 360.861 313.808C361.17 313.627 361.511 313.499 361.885 313.424C362.269 313.339 362.653 313.275 363.037 313.232C363.367 313.168 363.682 313.125 363.981 313.104C364.279 313.072 364.541 313.024 364.765 312.96C364.999 312.896 365.181 312.8 365.309 312.672C365.447 312.533 365.517 312.331 365.517 312.064C365.517 311.829 365.458 311.637 365.341 311.488C365.234 311.339 365.095 311.227 364.925 311.152C364.765 311.067 364.583 311.013 364.381 310.992C364.178 310.96 363.986 310.944 363.805 310.944C363.293 310.944 362.871 311.051 362.541 311.264C362.21 311.477 362.023 311.808 361.981 312.256H360.157C360.189 311.723 360.317 311.28 360.541 310.928C360.765 310.576 361.047 310.293 361.389 310.08C361.741 309.867 362.135 309.717 362.573 309.632C363.01 309.547 363.458 309.504 363.917 309.504C364.322 309.504 364.722 309.547 365.117 309.632C365.511 309.717 365.863 309.856 366.173 310.048C366.493 310.24 366.749 310.491 366.941 310.8C367.133 311.099 367.229 311.467 367.229 311.904V316.16ZM365.405 313.856C365.127 314.037 364.786 314.149 364.381 314.192C363.975 314.224 363.57 314.277 363.165 314.352C362.973 314.384 362.786 314.432 362.605 314.496C362.423 314.549 362.263 314.629 362.125 314.736C361.986 314.832 361.874 314.965 361.789 315.136C361.714 315.296 361.677 315.493 361.677 315.728C361.677 315.931 361.735 316.101 361.853 316.24C361.97 316.379 362.109 316.491 362.269 316.576C362.439 316.651 362.621 316.704 362.813 316.736C363.015 316.768 363.197 316.784 363.357 316.784C363.559 316.784 363.778 316.757 364.013 316.704C364.247 316.651 364.466 316.56 364.669 316.432C364.882 316.304 365.058 316.144 365.197 315.952C365.335 315.749 365.405 315.504 365.405 315.216V313.856ZM373.228 309.728H374.588V309.04C374.588 308.517 374.652 308.096 374.78 307.776C374.908 307.445 375.079 307.195 375.292 307.024C375.506 306.843 375.746 306.725 376.012 306.672C376.29 306.608 376.578 306.576 376.876 306.576C377.463 306.576 377.89 306.613 378.156 306.688V308.112C378.039 308.08 377.911 308.059 377.772 308.048C377.644 308.027 377.49 308.016 377.308 308.016C377.063 308.016 376.85 308.075 376.668 308.192C376.498 308.309 376.412 308.539 376.412 308.88V309.728H377.964V311.088H376.412V318H374.588V311.088H373.228V309.728ZM379.291 309.728H381.003V311.328H381.035C381.089 311.104 381.19 310.885 381.339 310.672C381.499 310.459 381.686 310.267 381.899 310.096C382.123 309.915 382.369 309.771 382.635 309.664C382.902 309.557 383.174 309.504 383.451 309.504C383.665 309.504 383.809 309.509 383.883 309.52C383.969 309.531 384.054 309.541 384.139 309.552V311.312C384.011 311.291 383.878 311.275 383.739 311.264C383.611 311.243 383.483 311.232 383.355 311.232C383.046 311.232 382.753 311.296 382.475 311.424C382.209 311.541 381.974 311.723 381.771 311.968C381.569 312.203 381.409 312.496 381.291 312.848C381.174 313.2 381.115 313.605 381.115 314.064V318H379.291V309.728ZM390.515 313.136C390.494 312.848 390.43 312.571 390.323 312.304C390.227 312.037 390.088 311.808 389.907 311.616C389.736 311.413 389.523 311.253 389.267 311.136C389.022 311.008 388.744 310.944 388.435 310.944C388.115 310.944 387.822 311.003 387.555 311.12C387.299 311.227 387.075 311.381 386.883 311.584C386.702 311.776 386.552 312.005 386.435 312.272C386.328 312.539 386.27 312.827 386.259 313.136H390.515ZM386.259 314.336C386.259 314.656 386.302 314.965 386.387 315.264C386.483 315.563 386.622 315.824 386.803 316.048C386.984 316.272 387.214 316.453 387.491 316.592C387.768 316.72 388.099 316.784 388.483 316.784C389.016 316.784 389.443 316.672 389.763 316.448C390.094 316.213 390.339 315.867 390.499 315.408H392.227C392.131 315.856 391.966 316.256 391.731 316.608C391.496 316.96 391.214 317.259 390.883 317.504C390.552 317.739 390.179 317.915 389.763 318.032C389.358 318.16 388.931 318.224 388.483 318.224C387.832 318.224 387.256 318.117 386.755 317.904C386.254 317.691 385.827 317.392 385.475 317.008C385.134 316.624 384.872 316.165 384.691 315.632C384.52 315.099 384.435 314.512 384.435 313.872C384.435 313.285 384.526 312.731 384.707 312.208C384.899 311.675 385.166 311.211 385.507 310.816C385.859 310.411 386.28 310.091 386.771 309.856C387.262 309.621 387.816 309.504 388.435 309.504C389.086 309.504 389.667 309.643 390.179 309.92C390.702 310.187 391.134 310.544 391.475 310.992C391.816 311.44 392.062 311.957 392.211 312.544C392.371 313.12 392.414 313.717 392.339 314.336H386.259ZM399.606 313.136C399.584 312.848 399.52 312.571 399.414 312.304C399.318 312.037 399.179 311.808 398.998 311.616C398.827 311.413 398.614 311.253 398.358 311.136C398.112 311.008 397.835 310.944 397.526 310.944C397.206 310.944 396.912 311.003 396.646 311.12C396.39 311.227 396.166 311.381 395.974 311.584C395.792 311.776 395.643 312.005 395.526 312.272C395.419 312.539 395.36 312.827 395.35 313.136H399.606ZM395.35 314.336C395.35 314.656 395.392 314.965 395.478 315.264C395.574 315.563 395.712 315.824 395.894 316.048C396.075 316.272 396.304 316.453 396.582 316.592C396.859 316.72 397.19 316.784 397.574 316.784C398.107 316.784 398.534 316.672 398.854 316.448C399.184 316.213 399.43 315.867 399.59 315.408H401.318C401.222 315.856 401.056 316.256 400.822 316.608C400.587 316.96 400.304 317.259 399.974 317.504C399.643 317.739 399.27 317.915 398.854 318.032C398.448 318.16 398.022 318.224 397.574 318.224C396.923 318.224 396.347 318.117 395.846 317.904C395.344 317.691 394.918 317.392 394.566 317.008C394.224 316.624 393.963 316.165 393.782 315.632C393.611 315.099 393.526 314.512 393.526 313.872C393.526 313.285 393.616 312.731 393.798 312.208C393.99 311.675 394.256 311.211 394.598 310.816C394.95 310.411 395.371 310.091 395.862 309.856C396.352 309.621 396.907 309.504 397.526 309.504C398.176 309.504 398.758 309.643 399.27 309.92C399.792 310.187 400.224 310.544 400.566 310.992C400.907 311.44 401.152 311.957 401.302 312.544C401.462 313.12 401.504 313.717 401.43 314.336H395.35ZM415.461 318H413.733V316.88H413.701C413.456 317.36 413.099 317.707 412.629 317.92C412.16 318.123 411.664 318.224 411.141 318.224C410.491 318.224 409.92 318.112 409.429 317.888C408.949 317.653 408.549 317.339 408.229 316.944C407.909 316.549 407.669 316.085 407.509 315.552C407.349 315.008 407.269 314.427 407.269 313.808C407.269 313.061 407.371 312.416 407.573 311.872C407.776 311.328 408.043 310.88 408.373 310.528C408.715 310.176 409.099 309.92 409.525 309.76C409.963 309.589 410.405 309.504 410.853 309.504C411.109 309.504 411.371 309.531 411.637 309.584C411.904 309.627 412.16 309.701 412.405 309.808C412.651 309.915 412.875 310.053 413.077 310.224C413.291 310.384 413.467 310.576 413.605 310.8H413.637V306.576H415.461V318ZM409.093 313.952C409.093 314.304 409.136 314.651 409.221 314.992C409.317 315.333 409.456 315.637 409.637 315.904C409.829 316.171 410.069 316.384 410.357 316.544C410.645 316.704 410.987 316.784 411.381 316.784C411.787 316.784 412.133 316.699 412.421 316.528C412.72 316.357 412.96 316.133 413.141 315.856C413.333 315.579 413.472 315.269 413.557 314.928C413.653 314.576 413.701 314.219 413.701 313.856C413.701 312.939 413.493 312.224 413.077 311.712C412.672 311.2 412.117 310.944 411.413 310.944C410.987 310.944 410.624 311.035 410.325 311.216C410.037 311.387 409.797 311.616 409.605 311.904C409.424 312.181 409.291 312.501 409.205 312.864C409.131 313.216 409.093 313.579 409.093 313.952ZM423.331 313.136C423.309 312.848 423.245 312.571 423.139 312.304C423.043 312.037 422.904 311.808 422.723 311.616C422.552 311.413 422.339 311.253 422.083 311.136C421.837 311.008 421.56 310.944 421.251 310.944C420.931 310.944 420.637 311.003 420.371 311.12C420.115 311.227 419.891 311.381 419.699 311.584C419.517 311.776 419.368 312.005 419.251 312.272C419.144 312.539 419.085 312.827 419.075 313.136H423.331ZM419.075 314.336C419.075 314.656 419.117 314.965 419.203 315.264C419.299 315.563 419.437 315.824 419.619 316.048C419.8 316.272 420.029 316.453 420.307 316.592C420.584 316.72 420.915 316.784 421.299 316.784C421.832 316.784 422.259 316.672 422.579 316.448C422.909 316.213 423.155 315.867 423.315 315.408H425.043C424.947 315.856 424.781 316.256 424.547 316.608C424.312 316.96 424.029 317.259 423.699 317.504C423.368 317.739 422.995 317.915 422.579 318.032C422.173 318.16 421.747 318.224 421.299 318.224C420.648 318.224 420.072 318.117 419.571 317.904C419.069 317.691 418.643 317.392 418.291 317.008C417.949 316.624 417.688 316.165 417.507 315.632C417.336 315.099 417.251 314.512 417.251 313.872C417.251 313.285 417.341 312.731 417.523 312.208C417.715 311.675 417.981 311.211 418.323 310.816C418.675 310.411 419.096 310.091 419.587 309.856C420.077 309.621 420.632 309.504 421.251 309.504C421.901 309.504 422.483 309.643 422.995 309.92C423.517 310.187 423.949 310.544 424.291 310.992C424.632 311.44 424.877 311.957 425.027 312.544C425.187 313.12 425.229 313.717 425.155 314.336H419.075ZM425.925 309.728H427.909L430.005 316.08H430.037L432.053 309.728H433.941L430.981 318H428.933L425.925 309.728ZM435.286 306.576H437.11V308.304H435.286V306.576ZM435.286 309.728H437.11V318H435.286V309.728ZM444.881 312.496C444.807 311.984 444.599 311.6 444.257 311.344C443.927 311.077 443.505 310.944 442.993 310.944C442.759 310.944 442.508 310.987 442.241 311.072C441.975 311.147 441.729 311.296 441.505 311.52C441.281 311.733 441.095 312.037 440.945 312.432C440.796 312.816 440.721 313.323 440.721 313.952C440.721 314.293 440.759 314.635 440.833 314.976C440.919 315.317 441.047 315.621 441.217 315.888C441.399 316.155 441.628 316.373 441.905 316.544C442.183 316.704 442.519 316.784 442.913 316.784C443.447 316.784 443.884 316.619 444.225 316.288C444.577 315.957 444.796 315.493 444.881 314.896H446.705C446.535 315.973 446.124 316.8 445.473 317.376C444.833 317.941 443.98 318.224 442.913 318.224C442.263 318.224 441.687 318.117 441.185 317.904C440.695 317.68 440.279 317.381 439.937 317.008C439.596 316.624 439.335 316.171 439.153 315.648C438.983 315.125 438.897 314.56 438.897 313.952C438.897 313.333 438.983 312.752 439.153 312.208C439.324 311.664 439.58 311.195 439.921 310.8C440.263 310.395 440.684 310.08 441.185 309.856C441.697 309.621 442.295 309.504 442.977 309.504C443.457 309.504 443.911 309.568 444.337 309.696C444.775 309.813 445.159 309.995 445.489 310.24C445.831 310.485 446.108 310.795 446.321 311.168C446.535 311.541 446.663 311.984 446.705 312.496H444.881ZM454.068 313.136C454.047 312.848 453.983 312.571 453.876 312.304C453.78 312.037 453.641 311.808 453.46 311.616C453.289 311.413 453.076 311.253 452.82 311.136C452.575 311.008 452.297 310.944 451.988 310.944C451.668 310.944 451.375 311.003 451.108 311.12C450.852 311.227 450.628 311.381 450.436 311.584C450.255 311.776 450.105 312.005 449.988 312.272C449.881 312.539 449.823 312.827 449.812 313.136H454.068ZM449.812 314.336C449.812 314.656 449.855 314.965 449.94 315.264C450.036 315.563 450.175 315.824 450.356 316.048C450.537 316.272 450.767 316.453 451.044 316.592C451.321 316.72 451.652 316.784 452.036 316.784C452.569 316.784 452.996 316.672 453.316 316.448C453.647 316.213 453.892 315.867 454.052 315.408H455.78C455.684 315.856 455.519 316.256 455.284 316.608C455.049 316.96 454.767 317.259 454.436 317.504C454.105 317.739 453.732 317.915 453.316 318.032C452.911 318.16 452.484 318.224 452.036 318.224C451.385 318.224 450.809 318.117 450.308 317.904C449.807 317.691 449.38 317.392 449.028 317.008C448.687 316.624 448.425 316.165 448.244 315.632C448.073 315.099 447.988 314.512 447.988 313.872C447.988 313.285 448.079 312.731 448.26 312.208C448.452 311.675 448.719 311.211 449.06 310.816C449.412 310.411 449.833 310.091 450.324 309.856C450.815 309.621 451.369 309.504 451.988 309.504C452.639 309.504 453.22 309.643 453.732 309.92C454.255 310.187 454.687 310.544 455.028 310.992C455.369 311.44 455.615 311.957 455.764 312.544C455.924 313.12 455.967 313.717 455.892 314.336H449.812ZM457.623 315.84H459.847V318H457.623V315.84Z" fill="black"/>
</svg>
