<svg width="600" height="430" viewBox="0 0 600 430" fill="none" xmlns="http://www.w3.org/2000/svg">
<rect width="600" height="430" fill="black" fill-opacity="0.04"/>
<path d="M101.568 175.5H99.984L97.376 165.9H97.344L94.704 175.5H93.12L90.192 164.076H91.744L93.984 173.58H94.016L96.576 164.076H98.224L100.752 173.58H100.784L103.104 164.076H104.624L101.568 175.5ZM107.277 165.74H105.917V164.076H107.277V165.74ZM105.917 167.228H107.277V175.5H105.917V167.228ZM111.271 167.228H112.919V168.428H111.271V173.564C111.271 173.724 111.282 173.852 111.303 173.948C111.335 174.044 111.389 174.119 111.463 174.172C111.538 174.225 111.639 174.263 111.767 174.284C111.906 174.295 112.082 174.3 112.295 174.3H112.919V175.5H111.879C111.527 175.5 111.223 175.479 110.967 175.436C110.722 175.383 110.519 175.292 110.359 175.164C110.21 175.036 110.098 174.855 110.023 174.62C109.949 174.385 109.911 174.076 109.911 173.692V168.428H108.503V167.228H109.911V164.748H111.271V167.228ZM114.43 164.076H115.79V168.444H115.822C115.929 168.188 116.078 167.975 116.27 167.804C116.462 167.623 116.676 167.479 116.91 167.372C117.156 167.255 117.406 167.169 117.662 167.116C117.929 167.063 118.185 167.036 118.43 167.036C118.974 167.036 119.428 167.111 119.79 167.26C120.153 167.409 120.446 167.617 120.67 167.884C120.894 168.151 121.049 168.471 121.134 168.844C121.23 169.207 121.278 169.612 121.278 170.06V175.5H119.918V169.9C119.918 169.388 119.769 168.983 119.47 168.684C119.172 168.385 118.761 168.236 118.238 168.236C117.822 168.236 117.46 168.3 117.15 168.428C116.852 168.556 116.601 168.737 116.398 168.972C116.196 169.207 116.041 169.484 115.934 169.804C115.838 170.113 115.79 170.455 115.79 170.828V175.5H114.43V164.076ZM127.854 164.076H129.214V175.5H127.854V164.076ZM138.649 175.468C138.414 175.607 138.089 175.676 137.673 175.676C137.321 175.676 137.038 175.58 136.825 175.388C136.622 175.185 136.521 174.86 136.521 174.412C136.148 174.86 135.71 175.185 135.209 175.388C134.718 175.58 134.185 175.676 133.609 175.676C133.236 175.676 132.878 175.633 132.537 175.548C132.206 175.463 131.918 175.329 131.673 175.148C131.428 174.967 131.23 174.732 131.081 174.444C130.942 174.145 130.873 173.788 130.873 173.372C130.873 172.903 130.953 172.519 131.113 172.22C131.273 171.921 131.481 171.681 131.737 171.5C132.004 171.308 132.302 171.164 132.633 171.068C132.974 170.972 133.321 170.892 133.673 170.828C134.046 170.753 134.398 170.7 134.729 170.668C135.07 170.625 135.369 170.572 135.625 170.508C135.881 170.433 136.084 170.332 136.233 170.204C136.382 170.065 136.457 169.868 136.457 169.612C136.457 169.313 136.398 169.073 136.281 168.892C136.174 168.711 136.03 168.572 135.849 168.476C135.678 168.38 135.481 168.316 135.257 168.284C135.044 168.252 134.83 168.236 134.617 168.236C134.041 168.236 133.561 168.348 133.177 168.572C132.793 168.785 132.585 169.196 132.553 169.804H131.193C131.214 169.292 131.321 168.86 131.513 168.508C131.705 168.156 131.961 167.873 132.281 167.66C132.601 167.436 132.964 167.276 133.369 167.18C133.785 167.084 134.228 167.036 134.697 167.036C135.07 167.036 135.438 167.063 135.801 167.116C136.174 167.169 136.51 167.281 136.809 167.452C137.108 167.612 137.348 167.841 137.529 168.14C137.71 168.439 137.801 168.828 137.801 169.308V173.564C137.801 173.884 137.817 174.119 137.849 174.268C137.892 174.417 138.02 174.492 138.233 174.492C138.35 174.492 138.489 174.465 138.649 174.412V175.468ZM136.441 171.228C136.27 171.356 136.046 171.452 135.769 171.516C135.492 171.569 135.198 171.617 134.889 171.66C134.59 171.692 134.286 171.735 133.977 171.788C133.668 171.831 133.39 171.905 133.145 172.012C132.9 172.119 132.697 172.273 132.537 172.476C132.388 172.668 132.313 172.935 132.313 173.276C132.313 173.5 132.356 173.692 132.441 173.852C132.537 174.001 132.654 174.124 132.793 174.22C132.942 174.316 133.113 174.385 133.305 174.428C133.497 174.471 133.7 174.492 133.913 174.492C134.361 174.492 134.745 174.433 135.065 174.316C135.385 174.188 135.646 174.033 135.849 173.852C136.052 173.66 136.201 173.457 136.297 173.244C136.393 173.02 136.441 172.812 136.441 172.62V171.228ZM139.963 164.076H141.323V168.348H141.355C141.579 167.889 141.931 167.559 142.411 167.356C142.891 167.143 143.419 167.036 143.995 167.036C144.635 167.036 145.189 167.153 145.659 167.388C146.139 167.623 146.533 167.943 146.843 168.348C147.163 168.743 147.403 169.201 147.563 169.724C147.723 170.247 147.803 170.801 147.803 171.388C147.803 171.975 147.723 172.529 147.563 173.052C147.413 173.575 147.179 174.033 146.859 174.428C146.549 174.812 146.155 175.116 145.675 175.34C145.205 175.564 144.656 175.676 144.027 175.676C143.824 175.676 143.595 175.655 143.339 175.612C143.093 175.569 142.848 175.5 142.603 175.404C142.357 175.308 142.123 175.18 141.899 175.02C141.685 174.849 141.504 174.641 141.355 174.396H141.323V175.5H139.963V164.076ZM146.363 171.292C146.363 170.908 146.309 170.535 146.203 170.172C146.107 169.799 145.952 169.468 145.739 169.18C145.536 168.892 145.269 168.663 144.939 168.492C144.619 168.321 144.24 168.236 143.803 168.236C143.344 168.236 142.955 168.327 142.635 168.508C142.315 168.689 142.053 168.929 141.851 169.228C141.648 169.516 141.499 169.847 141.403 170.22C141.317 170.593 141.275 170.972 141.275 171.356C141.275 171.761 141.323 172.156 141.419 172.54C141.515 172.913 141.664 173.244 141.867 173.532C142.08 173.82 142.352 174.055 142.683 174.236C143.013 174.407 143.413 174.492 143.883 174.492C144.352 174.492 144.741 174.401 145.051 174.22C145.371 174.039 145.627 173.799 145.819 173.5C146.011 173.201 146.149 172.86 146.235 172.476C146.32 172.092 146.363 171.697 146.363 171.292ZM155.143 170.572C155.122 170.252 155.047 169.948 154.919 169.66C154.802 169.372 154.636 169.127 154.423 168.924C154.22 168.711 153.975 168.545 153.687 168.428C153.41 168.3 153.1 168.236 152.759 168.236C152.407 168.236 152.087 168.3 151.799 168.428C151.522 168.545 151.282 168.711 151.079 168.924C150.876 169.137 150.716 169.388 150.599 169.676C150.482 169.953 150.412 170.252 150.391 170.572H155.143ZM156.455 172.876C156.274 173.804 155.874 174.503 155.255 174.972C154.636 175.441 153.858 175.676 152.919 175.676C152.258 175.676 151.682 175.569 151.191 175.356C150.711 175.143 150.306 174.844 149.975 174.46C149.644 174.076 149.394 173.617 149.223 173.084C149.063 172.551 148.972 171.969 148.951 171.34C148.951 170.711 149.047 170.135 149.239 169.612C149.431 169.089 149.698 168.636 150.039 168.252C150.391 167.868 150.802 167.569 151.271 167.356C151.751 167.143 152.274 167.036 152.839 167.036C153.575 167.036 154.183 167.191 154.663 167.5C155.154 167.799 155.543 168.183 155.831 168.652C156.13 169.121 156.332 169.633 156.439 170.188C156.556 170.743 156.604 171.271 156.583 171.772H150.391C150.38 172.135 150.423 172.481 150.519 172.812C150.615 173.132 150.77 173.42 150.983 173.676C151.196 173.921 151.468 174.119 151.799 174.268C152.13 174.417 152.519 174.492 152.967 174.492C153.543 174.492 154.012 174.359 154.375 174.092C154.748 173.825 154.994 173.42 155.111 172.876H156.455ZM158.073 164.076H159.433V175.5H158.073V164.076Z" fill="black" fill-opacity="0.68"/>
<mask id="path-2-inside-1_68375_39389" fill="white">
<path d="M270 140H510V200H270V140Z"/>
</mask>
<path d="M270 140H510V200H270V140Z" fill="black" fill-opacity="0.04"/>
<path d="M510 200V199H270V200V201H510V200Z" fill="black" fill-opacity="0.2" mask="url(#path-2-inside-1_68375_39389)"/>
<path d="M288.076 157.536H290.308C290.956 157.544 291.428 157.412 291.724 157.14C292.028 156.868 292.18 156.476 292.18 155.964C292.18 155.452 292.028 155.064 291.724 154.8C291.428 154.528 290.956 154.392 290.308 154.392H288.076V157.536ZM286.936 153.432H290.692C291.556 153.432 292.208 153.656 292.648 154.104C293.096 154.544 293.32 155.164 293.32 155.964C293.32 156.764 293.096 157.388 292.648 157.836C292.208 158.284 291.556 158.504 290.692 158.496H288.076V162H286.936V153.432ZM294.729 153.432H295.749V156.708H295.773C295.853 156.516 295.965 156.356 296.109 156.228C296.253 156.092 296.413 155.984 296.589 155.904C296.773 155.816 296.961 155.752 297.153 155.712C297.353 155.672 297.545 155.652 297.729 155.652C298.137 155.652 298.477 155.708 298.749 155.82C299.021 155.932 299.241 156.088 299.409 156.288C299.577 156.488 299.693 156.728 299.757 157.008C299.829 157.28 299.865 157.584 299.865 157.92V162H298.845V157.8C298.845 157.416 298.733 157.112 298.509 156.888C298.285 156.664 297.977 156.552 297.585 156.552C297.273 156.552 297.001 156.6 296.769 156.696C296.545 156.792 296.357 156.928 296.205 157.104C296.053 157.28 295.937 157.488 295.857 157.728C295.785 157.96 295.749 158.216 295.749 158.496V162H294.729V153.432ZM302.321 158.904C302.321 159.28 302.369 159.616 302.465 159.912C302.569 160.2 302.709 160.444 302.885 160.644C303.061 160.836 303.265 160.984 303.497 161.088C303.737 161.192 303.989 161.244 304.253 161.244C304.517 161.244 304.765 161.192 304.997 161.088C305.237 160.984 305.445 160.836 305.621 160.644C305.797 160.444 305.933 160.2 306.029 159.912C306.133 159.616 306.185 159.28 306.185 158.904C306.185 158.528 306.133 158.196 306.029 157.908C305.933 157.612 305.797 157.364 305.621 157.164C305.445 156.964 305.237 156.812 304.997 156.708C304.765 156.604 304.517 156.552 304.253 156.552C303.989 156.552 303.737 156.604 303.497 156.708C303.265 156.812 303.061 156.964 302.885 157.164C302.709 157.364 302.569 157.612 302.465 157.908C302.369 158.196 302.321 158.528 302.321 158.904ZM301.241 158.904C301.241 158.448 301.305 158.024 301.433 157.632C301.561 157.232 301.753 156.888 302.009 156.6C302.265 156.304 302.581 156.072 302.957 155.904C303.333 155.736 303.765 155.652 304.253 155.652C304.749 155.652 305.181 155.736 305.549 155.904C305.925 156.072 306.241 156.304 306.497 156.6C306.753 156.888 306.945 157.232 307.073 157.632C307.201 158.024 307.265 158.448 307.265 158.904C307.265 159.36 307.201 159.784 307.073 160.176C306.945 160.568 306.753 160.912 306.497 161.208C306.241 161.496 305.925 161.724 305.549 161.892C305.181 162.052 304.749 162.132 304.253 162.132C303.765 162.132 303.333 162.052 302.957 161.892C302.581 161.724 302.265 161.496 302.009 161.208C301.753 160.912 301.561 160.568 301.433 160.176C301.305 159.784 301.241 159.36 301.241 158.904ZM308.648 155.796H309.608V156.78H309.632C310.056 156.028 310.728 155.652 311.648 155.652C312.056 155.652 312.396 155.708 312.668 155.82C312.94 155.932 313.16 156.088 313.328 156.288C313.496 156.488 313.612 156.728 313.676 157.008C313.748 157.28 313.784 157.584 313.784 157.92V162H312.764V157.8C312.764 157.416 312.652 157.112 312.428 156.888C312.204 156.664 311.896 156.552 311.504 156.552C311.192 156.552 310.92 156.6 310.688 156.696C310.464 156.792 310.276 156.928 310.124 157.104C309.972 157.28 309.856 157.488 309.776 157.728C309.704 157.96 309.668 158.216 309.668 158.496V162H308.648V155.796ZM319.804 158.304C319.788 158.064 319.732 157.836 319.636 157.62C319.548 157.404 319.424 157.22 319.264 157.068C319.112 156.908 318.928 156.784 318.712 156.696C318.504 156.6 318.272 156.552 318.016 156.552C317.752 156.552 317.512 156.6 317.296 156.696C317.088 156.784 316.908 156.908 316.756 157.068C316.604 157.228 316.484 157.416 316.396 157.632C316.308 157.84 316.256 158.064 316.24 158.304H319.804ZM320.788 160.032C320.652 160.728 320.352 161.252 319.888 161.604C319.424 161.956 318.84 162.132 318.136 162.132C317.64 162.132 317.208 162.052 316.84 161.892C316.48 161.732 316.176 161.508 315.928 161.22C315.68 160.932 315.492 160.588 315.364 160.188C315.244 159.788 315.176 159.352 315.16 158.88C315.16 158.408 315.232 157.976 315.376 157.584C315.52 157.192 315.72 156.852 315.976 156.564C316.24 156.276 316.548 156.052 316.9 155.892C317.26 155.732 317.652 155.652 318.076 155.652C318.628 155.652 319.084 155.768 319.444 156C319.812 156.224 320.104 156.512 320.32 156.864C320.544 157.216 320.696 157.6 320.776 158.016C320.864 158.432 320.9 158.828 320.884 159.204H316.24C316.232 159.476 316.264 159.736 316.336 159.984C316.408 160.224 316.524 160.44 316.684 160.632C316.844 160.816 317.048 160.964 317.296 161.076C317.544 161.188 317.836 161.244 318.172 161.244C318.604 161.244 318.956 161.144 319.228 160.944C319.508 160.744 319.692 160.44 319.78 160.032H320.788ZM325.641 155.796H326.601V156.78H326.625C327.049 156.028 327.721 155.652 328.641 155.652C329.049 155.652 329.389 155.708 329.661 155.82C329.933 155.932 330.153 156.088 330.321 156.288C330.489 156.488 330.605 156.728 330.669 157.008C330.741 157.28 330.777 157.584 330.777 157.92V162H329.757V157.8C329.757 157.416 329.645 157.112 329.421 156.888C329.197 156.664 328.889 156.552 328.497 156.552C328.185 156.552 327.913 156.6 327.681 156.696C327.457 156.792 327.269 156.928 327.117 157.104C326.965 157.28 326.849 157.488 326.769 157.728C326.697 157.96 326.661 158.216 326.661 158.496V162H325.641V155.796ZM337.625 162H336.665V161.016H336.641C336.425 161.4 336.149 161.684 335.813 161.868C335.477 162.044 335.081 162.132 334.625 162.132C334.217 162.132 333.877 162.08 333.605 161.976C333.333 161.864 333.113 161.708 332.945 161.508C332.777 161.308 332.657 161.072 332.585 160.8C332.521 160.52 332.489 160.212 332.489 159.876V155.796H333.509V159.996C333.509 160.38 333.621 160.684 333.845 160.908C334.069 161.132 334.377 161.244 334.769 161.244C335.081 161.244 335.349 161.196 335.573 161.1C335.805 161.004 335.997 160.868 336.149 160.692C336.301 160.516 336.413 160.312 336.485 160.08C336.565 159.84 336.605 159.58 336.605 159.3V155.796H337.625V162ZM339.337 155.796H340.297V156.708H340.321C340.785 156.004 341.453 155.652 342.325 155.652C342.709 155.652 343.057 155.732 343.369 155.892C343.681 156.052 343.901 156.324 344.029 156.708C344.237 156.372 344.509 156.112 344.845 155.928C345.189 155.744 345.565 155.652 345.973 155.652C346.285 155.652 346.565 155.688 346.813 155.76C347.069 155.824 347.285 155.928 347.461 156.072C347.645 156.216 347.785 156.404 347.881 156.636C347.985 156.86 348.037 157.132 348.037 157.452V162H347.017V157.932C347.017 157.74 347.001 157.56 346.969 157.392C346.937 157.224 346.877 157.08 346.789 156.96C346.701 156.832 346.577 156.732 346.417 156.66C346.265 156.588 346.065 156.552 345.817 156.552C345.313 156.552 344.917 156.696 344.629 156.984C344.341 157.272 344.197 157.656 344.197 158.136V162H343.177V157.932C343.177 157.732 343.157 157.548 343.117 157.38C343.085 157.212 343.025 157.068 342.937 156.948C342.849 156.82 342.729 156.724 342.577 156.66C342.433 156.588 342.245 156.552 342.013 156.552C341.717 156.552 341.461 156.612 341.245 156.732C341.037 156.852 340.865 156.996 340.729 157.164C340.601 157.332 340.505 157.508 340.441 157.692C340.385 157.868 340.357 158.016 340.357 158.136V162H339.337V155.796ZM349.783 153.432H350.803V156.636H350.827C350.995 156.292 351.259 156.044 351.619 155.892C351.979 155.732 352.375 155.652 352.807 155.652C353.287 155.652 353.703 155.74 354.055 155.916C354.415 156.092 354.711 156.332 354.943 156.636C355.183 156.932 355.363 157.276 355.483 157.668C355.603 158.06 355.663 158.476 355.663 158.916C355.663 159.356 355.603 159.772 355.483 160.164C355.371 160.556 355.195 160.9 354.955 161.196C354.723 161.484 354.427 161.712 354.067 161.88C353.715 162.048 353.303 162.132 352.831 162.132C352.679 162.132 352.507 162.116 352.315 162.084C352.131 162.052 351.947 162 351.763 161.928C351.579 161.856 351.403 161.76 351.235 161.64C351.075 161.512 350.939 161.356 350.827 161.172H350.803V162H349.783V153.432ZM354.583 158.844C354.583 158.556 354.543 158.276 354.463 158.004C354.391 157.724 354.275 157.476 354.115 157.26C353.963 157.044 353.763 156.872 353.515 156.744C353.275 156.616 352.991 156.552 352.663 156.552C352.319 156.552 352.027 156.62 351.787 156.756C351.547 156.892 351.351 157.072 351.199 157.296C351.047 157.512 350.935 157.76 350.863 158.04C350.799 158.32 350.767 158.604 350.767 158.892C350.767 159.196 350.803 159.492 350.875 159.78C350.947 160.06 351.059 160.308 351.211 160.524C351.371 160.74 351.575 160.916 351.823 161.052C352.071 161.18 352.371 161.244 352.723 161.244C353.075 161.244 353.367 161.176 353.599 161.04C353.839 160.904 354.031 160.724 354.175 160.5C354.319 160.276 354.423 160.02 354.487 159.732C354.551 159.444 354.583 159.148 354.583 158.844ZM361.349 158.304C361.333 158.064 361.277 157.836 361.181 157.62C361.093 157.404 360.969 157.22 360.809 157.068C360.657 156.908 360.473 156.784 360.257 156.696C360.049 156.6 359.817 156.552 359.561 156.552C359.297 156.552 359.057 156.6 358.841 156.696C358.633 156.784 358.453 156.908 358.301 157.068C358.149 157.228 358.029 157.416 357.941 157.632C357.853 157.84 357.801 158.064 357.785 158.304H361.349ZM362.333 160.032C362.197 160.728 361.897 161.252 361.433 161.604C360.969 161.956 360.385 162.132 359.681 162.132C359.185 162.132 358.753 162.052 358.385 161.892C358.025 161.732 357.721 161.508 357.473 161.22C357.225 160.932 357.037 160.588 356.909 160.188C356.789 159.788 356.721 159.352 356.705 158.88C356.705 158.408 356.777 157.976 356.921 157.584C357.065 157.192 357.265 156.852 357.521 156.564C357.785 156.276 358.093 156.052 358.445 155.892C358.805 155.732 359.197 155.652 359.621 155.652C360.173 155.652 360.629 155.768 360.989 156C361.357 156.224 361.649 156.512 361.865 156.864C362.089 157.216 362.241 157.6 362.321 158.016C362.409 158.432 362.445 158.828 362.429 159.204H357.785C357.777 159.476 357.809 159.736 357.881 159.984C357.953 160.224 358.069 160.44 358.229 160.632C358.389 160.816 358.593 160.964 358.841 161.076C359.089 161.188 359.381 161.244 359.717 161.244C360.149 161.244 360.501 161.144 360.773 160.944C361.053 160.744 361.237 160.44 361.325 160.032H362.333ZM363.63 155.796H364.59V157.104H364.614C364.862 156.6 365.166 156.228 365.526 155.988C365.886 155.748 366.342 155.636 366.894 155.652V156.732C366.486 156.732 366.138 156.788 365.85 156.9C365.562 157.012 365.33 157.176 365.154 157.392C364.978 157.608 364.85 157.872 364.77 158.184C364.69 158.488 364.65 158.84 364.65 159.24V162H363.63V155.796Z" fill="black" fill-opacity="0.68"/>
<path d="M286.704 176.672C286.672 176.096 286.731 175.563 286.88 175.072C287.029 174.581 287.259 174.16 287.568 173.808C287.888 173.445 288.283 173.163 288.752 172.96C289.221 172.757 289.755 172.656 290.352 172.656C290.843 172.656 291.301 172.731 291.728 172.88C292.165 173.019 292.544 173.227 292.864 173.504C293.184 173.771 293.435 174.107 293.616 174.512C293.808 174.917 293.904 175.387 293.904 175.92C293.904 176.421 293.824 176.864 293.664 177.248C293.515 177.632 293.312 177.979 293.056 178.288C292.8 178.587 292.507 178.859 292.176 179.104C291.845 179.349 291.504 179.584 291.152 179.808C290.8 180.021 290.448 180.235 290.096 180.448C289.744 180.651 289.419 180.869 289.12 181.104C288.832 181.339 288.581 181.595 288.368 181.872C288.165 182.139 288.032 182.448 287.968 182.8H293.792V184H286.384C286.437 183.328 286.555 182.757 286.736 182.288C286.928 181.808 287.168 181.392 287.456 181.04C287.744 180.688 288.069 180.379 288.432 180.112C288.795 179.845 289.173 179.595 289.568 179.36C290.048 179.061 290.469 178.789 290.832 178.544C291.195 178.288 291.493 178.032 291.728 177.776C291.973 177.52 292.155 177.243 292.272 176.944C292.4 176.645 292.464 176.299 292.464 175.904C292.464 175.595 292.405 175.317 292.288 175.072C292.171 174.816 292.011 174.597 291.808 174.416C291.616 174.235 291.387 174.096 291.12 174C290.853 173.904 290.571 173.856 290.272 173.856C289.877 173.856 289.536 173.941 289.248 174.112C288.971 174.272 288.741 174.485 288.56 174.752C288.379 175.019 288.245 175.323 288.16 175.664C288.085 175.995 288.053 176.331 288.064 176.672H286.704ZM300.787 184H299.427V175.872H296.483V174.784C296.867 174.784 297.24 174.757 297.603 174.704C297.965 174.64 298.291 174.528 298.579 174.368C298.877 174.208 299.128 173.989 299.331 173.712C299.533 173.435 299.672 173.083 299.747 172.656H300.787V184ZM304.885 176.672C304.853 176.096 304.912 175.563 305.061 175.072C305.211 174.581 305.44 174.16 305.749 173.808C306.069 173.445 306.464 173.163 306.933 172.96C307.403 172.757 307.936 172.656 308.533 172.656C309.024 172.656 309.483 172.731 309.909 172.88C310.347 173.019 310.725 173.227 311.045 173.504C311.365 173.771 311.616 174.107 311.797 174.512C311.989 174.917 312.085 175.387 312.085 175.92C312.085 176.421 312.005 176.864 311.845 177.248C311.696 177.632 311.493 177.979 311.237 178.288C310.981 178.587 310.688 178.859 310.357 179.104C310.027 179.349 309.685 179.584 309.333 179.808C308.981 180.021 308.629 180.235 308.277 180.448C307.925 180.651 307.6 180.869 307.301 181.104C307.013 181.339 306.763 181.595 306.549 181.872C306.347 182.139 306.213 182.448 306.149 182.8H311.973V184H304.565C304.619 183.328 304.736 182.757 304.917 182.288C305.109 181.808 305.349 181.392 305.637 181.04C305.925 180.688 306.251 180.379 306.613 180.112C306.976 179.845 307.355 179.595 307.749 179.36C308.229 179.061 308.651 178.789 309.013 178.544C309.376 178.288 309.675 178.032 309.909 177.776C310.155 177.52 310.336 177.243 310.453 176.944C310.581 176.645 310.645 176.299 310.645 175.904C310.645 175.595 310.587 175.317 310.469 175.072C310.352 174.816 310.192 174.597 309.989 174.416C309.797 174.235 309.568 174.096 309.301 174C309.035 173.904 308.752 173.856 308.453 173.856C308.059 173.856 307.717 173.941 307.429 174.112C307.152 174.272 306.923 174.485 306.741 174.752C306.56 175.019 306.427 175.323 306.341 175.664C306.267 175.995 306.235 176.331 306.245 176.672H304.885ZM325.445 174.048H320.869L320.261 177.312L320.293 177.344C320.538 177.067 320.853 176.864 321.237 176.736C321.632 176.597 322.021 176.528 322.405 176.528C322.906 176.528 323.381 176.608 323.829 176.768C324.277 176.928 324.666 177.173 324.997 177.504C325.328 177.824 325.589 178.229 325.781 178.72C325.973 179.2 326.069 179.765 326.069 180.416C326.069 180.896 325.984 181.365 325.813 181.824C325.653 182.272 325.408 182.672 325.077 183.024C324.746 183.376 324.33 183.659 323.829 183.872C323.338 184.075 322.762 184.176 322.101 184.176C321.61 184.176 321.146 184.107 320.709 183.968C320.282 183.819 319.904 183.611 319.573 183.344C319.242 183.067 318.981 182.725 318.789 182.32C318.597 181.915 318.496 181.456 318.485 180.944H319.845C319.866 181.232 319.936 181.504 320.053 181.76C320.181 182.005 320.346 182.224 320.549 182.416C320.762 182.597 321.008 182.741 321.285 182.848C321.573 182.944 321.888 182.992 322.229 182.992C322.549 182.992 322.853 182.939 323.141 182.832C323.44 182.715 323.696 182.544 323.909 182.32C324.133 182.096 324.309 181.819 324.437 181.488C324.565 181.147 324.629 180.752 324.629 180.304C324.629 179.931 324.565 179.589 324.437 179.28C324.32 178.96 324.149 178.688 323.925 178.464C323.701 178.229 323.429 178.048 323.109 177.92C322.8 177.792 322.453 177.728 322.069 177.728C321.621 177.728 321.221 177.829 320.869 178.032C320.528 178.224 320.224 178.48 319.957 178.8L318.789 178.736L319.845 172.848H325.445V174.048ZM334.536 174.048H329.96L329.352 177.312L329.384 177.344C329.629 177.067 329.944 176.864 330.328 176.736C330.722 176.597 331.112 176.528 331.496 176.528C331.997 176.528 332.472 176.608 332.92 176.768C333.368 176.928 333.757 177.173 334.088 177.504C334.418 177.824 334.68 178.229 334.872 178.72C335.064 179.2 335.16 179.765 335.16 180.416C335.16 180.896 335.074 181.365 334.904 181.824C334.744 182.272 334.498 182.672 334.168 183.024C333.837 183.376 333.421 183.659 332.92 183.872C332.429 184.075 331.853 184.176 331.192 184.176C330.701 184.176 330.237 184.107 329.8 183.968C329.373 183.819 328.994 183.611 328.664 183.344C328.333 183.067 328.072 182.725 327.88 182.32C327.688 181.915 327.586 181.456 327.576 180.944H328.936C328.957 181.232 329.026 181.504 329.144 181.76C329.272 182.005 329.437 182.224 329.64 182.416C329.853 182.597 330.098 182.741 330.376 182.848C330.664 182.944 330.978 182.992 331.32 182.992C331.64 182.992 331.944 182.939 332.232 182.832C332.53 182.715 332.786 182.544 333 182.32C333.224 182.096 333.4 181.819 333.528 181.488C333.656 181.147 333.72 180.752 333.72 180.304C333.72 179.931 333.656 179.589 333.528 179.28C333.41 178.96 333.24 178.688 333.016 178.464C332.792 178.229 332.52 178.048 332.2 177.92C331.89 177.792 331.544 177.728 331.16 177.728C330.712 177.728 330.312 177.829 329.96 178.032C329.618 178.224 329.314 178.48 329.048 178.8L327.88 178.736L328.936 172.848H334.536V174.048ZM343.626 174.048H339.05L338.442 177.312L338.474 177.344C338.72 177.067 339.034 176.864 339.418 176.736C339.813 176.597 340.202 176.528 340.586 176.528C341.088 176.528 341.562 176.608 342.01 176.768C342.458 176.928 342.848 177.173 343.178 177.504C343.509 177.824 343.77 178.229 343.962 178.72C344.154 179.2 344.25 179.765 344.25 180.416C344.25 180.896 344.165 181.365 343.994 181.824C343.834 182.272 343.589 182.672 343.258 183.024C342.928 183.376 342.512 183.659 342.01 183.872C341.52 184.075 340.944 184.176 340.282 184.176C339.792 184.176 339.328 184.107 338.89 183.968C338.464 183.819 338.085 183.611 337.754 183.344C337.424 183.067 337.162 182.725 336.97 182.32C336.778 181.915 336.677 181.456 336.666 180.944H338.026C338.048 181.232 338.117 181.504 338.234 181.76C338.362 182.005 338.528 182.224 338.73 182.416C338.944 182.597 339.189 182.741 339.466 182.848C339.754 182.944 340.069 182.992 340.41 182.992C340.73 182.992 341.034 182.939 341.322 182.832C341.621 182.715 341.877 182.544 342.09 182.32C342.314 182.096 342.49 181.819 342.618 181.488C342.746 181.147 342.81 180.752 342.81 180.304C342.81 179.931 342.746 179.589 342.618 179.28C342.501 178.96 342.33 178.688 342.106 178.464C341.882 178.229 341.61 178.048 341.29 177.92C340.981 177.792 340.634 177.728 340.25 177.728C339.802 177.728 339.402 177.829 339.05 178.032C338.709 178.224 338.405 178.48 338.138 178.8L336.97 178.736L338.026 172.848H343.626V174.048ZM345.997 178.912H350.621V180.192H345.997V178.912ZM357.312 184H355.952V175.872H353.008V174.784C353.392 174.784 353.765 174.757 354.128 174.704C354.49 174.64 354.816 174.528 355.104 174.368C355.402 174.208 355.653 173.989 355.856 173.712C356.058 173.435 356.197 173.083 356.272 172.656H357.312V184ZM361.41 176.672C361.378 176.096 361.437 175.563 361.586 175.072C361.736 174.581 361.965 174.16 362.274 173.808C362.594 173.445 362.989 173.163 363.458 172.96C363.928 172.757 364.461 172.656 365.058 172.656C365.549 172.656 366.008 172.731 366.434 172.88C366.872 173.019 367.25 173.227 367.57 173.504C367.89 173.771 368.141 174.107 368.322 174.512C368.514 174.917 368.61 175.387 368.61 175.92C368.61 176.421 368.53 176.864 368.37 177.248C368.221 177.632 368.018 177.979 367.762 178.288C367.506 178.587 367.213 178.859 366.882 179.104C366.552 179.349 366.21 179.584 365.858 179.808C365.506 180.021 365.154 180.235 364.802 180.448C364.45 180.651 364.125 180.869 363.826 181.104C363.538 181.339 363.288 181.595 363.074 181.872C362.872 182.139 362.738 182.448 362.674 182.8H368.498V184H361.09C361.144 183.328 361.261 182.757 361.442 182.288C361.634 181.808 361.874 181.392 362.162 181.04C362.45 180.688 362.776 180.379 363.138 180.112C363.501 179.845 363.88 179.595 364.274 179.36C364.754 179.061 365.176 178.789 365.538 178.544C365.901 178.288 366.2 178.032 366.434 177.776C366.68 177.52 366.861 177.243 366.978 176.944C367.106 176.645 367.17 176.299 367.17 175.904C367.17 175.595 367.112 175.317 366.994 175.072C366.877 174.816 366.717 174.597 366.514 174.416C366.322 174.235 366.093 174.096 365.826 174C365.56 173.904 365.277 173.856 364.978 173.856C364.584 173.856 364.242 173.941 363.954 174.112C363.677 174.272 363.448 174.485 363.266 174.752C363.085 175.019 362.952 175.323 362.866 175.664C362.792 175.995 362.76 176.331 362.77 176.672H361.41ZM373.285 177.52C373.338 177.531 373.386 177.536 373.429 177.536C373.482 177.536 373.536 177.536 373.589 177.536H373.877C374.165 177.536 374.437 177.499 374.693 177.424C374.96 177.339 375.189 177.221 375.381 177.072C375.584 176.912 375.744 176.715 375.861 176.48C375.978 176.245 376.037 175.979 376.037 175.68C376.037 175.072 375.845 174.619 375.461 174.32C375.077 174.011 374.597 173.856 374.021 173.856C373.658 173.856 373.338 173.925 373.061 174.064C372.794 174.192 372.57 174.368 372.389 174.592C372.218 174.816 372.09 175.077 372.005 175.376C371.92 175.675 371.877 175.989 371.877 176.32H370.517C370.538 175.776 370.624 175.28 370.773 174.832C370.933 174.384 371.157 174 371.445 173.68C371.733 173.36 372.09 173.109 372.517 172.928C372.954 172.747 373.456 172.656 374.021 172.656C374.512 172.656 374.965 172.72 375.381 172.848C375.808 172.965 376.176 173.147 376.485 173.392C376.794 173.637 377.034 173.952 377.205 174.336C377.386 174.72 377.477 175.173 377.477 175.696C377.477 176.208 377.328 176.661 377.029 177.056C376.73 177.451 376.357 177.749 375.909 177.952V177.984C376.602 178.133 377.114 178.459 377.445 178.96C377.786 179.461 377.957 180.053 377.957 180.736C377.957 181.301 377.85 181.803 377.637 182.24C377.434 182.667 377.157 183.024 376.805 183.312C376.453 183.6 376.037 183.819 375.557 183.968C375.088 184.107 374.586 184.176 374.053 184.176C373.477 184.176 372.954 184.096 372.485 183.936C372.016 183.776 371.616 183.541 371.285 183.232C370.954 182.912 370.698 182.523 370.517 182.064C370.346 181.605 370.266 181.083 370.277 180.496H371.637C371.658 181.232 371.872 181.835 372.277 182.304C372.682 182.763 373.274 182.992 374.053 182.992C374.384 182.992 374.698 182.944 374.997 182.848C375.296 182.741 375.557 182.597 375.781 182.416C376.005 182.224 376.181 181.995 376.309 181.728C376.448 181.451 376.517 181.141 376.517 180.8C376.517 180.448 376.453 180.139 376.325 179.872C376.197 179.595 376.026 179.365 375.813 179.184C375.6 178.992 375.344 178.853 375.045 178.768C374.757 178.672 374.442 178.624 374.101 178.624C373.813 178.624 373.541 178.64 373.285 178.672V177.52ZM384.311 180.144V174.592H384.279L380.503 180.144H384.311ZM385.591 180.144H387.127V181.344H385.591V184H384.311V181.344H379.335V180.032L384.503 172.656H385.591V180.144Z" fill="black" fill-opacity="0.68"/>
<path d="M101.568 285.5H99.984L97.376 275.9H97.344L94.704 285.5H93.12L90.192 274.076H91.744L93.984 283.58H94.016L96.576 274.076H98.224L100.752 283.58H100.784L103.104 274.076H104.624L101.568 285.5ZM107.277 275.74H105.917V274.076H107.277V275.74ZM105.917 277.228H107.277V285.5H105.917V277.228ZM111.271 277.228H112.919V278.428H111.271V283.564C111.271 283.724 111.282 283.852 111.303 283.948C111.335 284.044 111.389 284.119 111.463 284.172C111.538 284.225 111.639 284.263 111.767 284.284C111.906 284.295 112.082 284.3 112.295 284.3H112.919V285.5H111.879C111.527 285.5 111.223 285.479 110.967 285.436C110.722 285.383 110.519 285.292 110.359 285.164C110.21 285.036 110.098 284.855 110.023 284.62C109.949 284.385 109.911 284.076 109.911 283.692V278.428H108.503V277.228H109.911V274.748H111.271V277.228ZM114.43 274.076H115.79V278.444H115.822C115.929 278.188 116.078 277.975 116.27 277.804C116.462 277.623 116.676 277.479 116.91 277.372C117.156 277.255 117.406 277.169 117.662 277.116C117.929 277.063 118.185 277.036 118.43 277.036C118.974 277.036 119.428 277.111 119.79 277.26C120.153 277.409 120.446 277.617 120.67 277.884C120.894 278.151 121.049 278.471 121.134 278.844C121.23 279.207 121.278 279.612 121.278 280.06V285.5H119.918V279.9C119.918 279.388 119.769 278.983 119.47 278.684C119.172 278.385 118.761 278.236 118.238 278.236C117.822 278.236 117.46 278.3 117.15 278.428C116.852 278.556 116.601 278.737 116.398 278.972C116.196 279.207 116.041 279.484 115.934 279.804C115.838 280.113 115.79 280.455 115.79 280.828V285.5H114.43V274.076ZM124.313 281.372C124.313 281.873 124.377 282.321 124.505 282.716C124.644 283.1 124.83 283.425 125.065 283.692C125.3 283.948 125.572 284.145 125.881 284.284C126.201 284.423 126.537 284.492 126.889 284.492C127.241 284.492 127.572 284.423 127.881 284.284C128.201 284.145 128.478 283.948 128.713 283.692C128.948 283.425 129.129 283.1 129.257 282.716C129.396 282.321 129.465 281.873 129.465 281.372C129.465 280.871 129.396 280.428 129.257 280.044C129.129 279.649 128.948 279.319 128.713 279.052C128.478 278.785 128.201 278.583 127.881 278.444C127.572 278.305 127.241 278.236 126.889 278.236C126.537 278.236 126.201 278.305 125.881 278.444C125.572 278.583 125.3 278.785 125.065 279.052C124.83 279.319 124.644 279.649 124.505 280.044C124.377 280.428 124.313 280.871 124.313 281.372ZM122.873 281.372C122.873 280.764 122.958 280.199 123.129 279.676C123.3 279.143 123.556 278.684 123.897 278.3C124.238 277.905 124.66 277.596 125.161 277.372C125.662 277.148 126.238 277.036 126.889 277.036C127.55 277.036 128.126 277.148 128.617 277.372C129.118 277.596 129.54 277.905 129.881 278.3C130.222 278.684 130.478 279.143 130.649 279.676C130.82 280.199 130.905 280.764 130.905 281.372C130.905 281.98 130.82 282.545 130.649 283.068C130.478 283.591 130.222 284.049 129.881 284.444C129.54 284.828 129.118 285.132 128.617 285.356C128.126 285.569 127.55 285.676 126.889 285.676C126.238 285.676 125.662 285.569 125.161 285.356C124.66 285.132 124.238 284.828 123.897 284.444C123.556 284.049 123.3 283.591 123.129 283.068C122.958 282.545 122.873 281.98 122.873 281.372ZM139.356 285.5H138.076V284.188H138.044C137.756 284.7 137.388 285.079 136.94 285.324C136.492 285.559 135.964 285.676 135.356 285.676C134.812 285.676 134.359 285.607 133.996 285.468C133.634 285.319 133.34 285.111 133.116 284.844C132.892 284.577 132.732 284.263 132.636 283.9C132.551 283.527 132.508 283.116 132.508 282.668V277.228H133.868V282.828C133.868 283.34 134.018 283.745 134.316 284.044C134.615 284.343 135.026 284.492 135.548 284.492C135.964 284.492 136.322 284.428 136.62 284.3C136.93 284.172 137.186 283.991 137.388 283.756C137.591 283.521 137.74 283.249 137.836 282.94C137.943 282.62 137.996 282.273 137.996 281.9V277.228H139.356V285.5ZM143.287 277.228H144.935V278.428H143.287V283.564C143.287 283.724 143.298 283.852 143.319 283.948C143.351 284.044 143.404 284.119 143.479 284.172C143.554 284.225 143.655 284.263 143.783 284.284C143.922 284.295 144.098 284.3 144.311 284.3H144.935V285.5H143.895C143.543 285.5 143.239 285.479 142.983 285.436C142.738 285.383 142.535 285.292 142.375 285.164C142.226 285.036 142.114 284.855 142.039 284.62C141.964 284.385 141.927 284.076 141.927 283.692V278.428H140.519V277.228H141.927V274.748H143.287V277.228ZM150.979 274.076H152.339V285.5H150.979V274.076ZM161.774 285.468C161.539 285.607 161.214 285.676 160.798 285.676C160.446 285.676 160.163 285.58 159.95 285.388C159.747 285.185 159.646 284.86 159.646 284.412C159.273 284.86 158.835 285.185 158.334 285.388C157.843 285.58 157.31 285.676 156.734 285.676C156.361 285.676 156.003 285.633 155.662 285.548C155.331 285.463 155.043 285.329 154.798 285.148C154.553 284.967 154.355 284.732 154.206 284.444C154.067 284.145 153.998 283.788 153.998 283.372C153.998 282.903 154.078 282.519 154.238 282.22C154.398 281.921 154.606 281.681 154.862 281.5C155.129 281.308 155.427 281.164 155.758 281.068C156.099 280.972 156.446 280.892 156.798 280.828C157.171 280.753 157.523 280.7 157.854 280.668C158.195 280.625 158.494 280.572 158.75 280.508C159.006 280.433 159.209 280.332 159.358 280.204C159.507 280.065 159.582 279.868 159.582 279.612C159.582 279.313 159.523 279.073 159.406 278.892C159.299 278.711 159.155 278.572 158.974 278.476C158.803 278.38 158.606 278.316 158.382 278.284C158.169 278.252 157.955 278.236 157.742 278.236C157.166 278.236 156.686 278.348 156.302 278.572C155.918 278.785 155.71 279.196 155.678 279.804H154.318C154.339 279.292 154.446 278.86 154.638 278.508C154.83 278.156 155.086 277.873 155.406 277.66C155.726 277.436 156.089 277.276 156.494 277.18C156.91 277.084 157.353 277.036 157.822 277.036C158.195 277.036 158.563 277.063 158.926 277.116C159.299 277.169 159.635 277.281 159.934 277.452C160.233 277.612 160.473 277.841 160.654 278.14C160.835 278.439 160.926 278.828 160.926 279.308V283.564C160.926 283.884 160.942 284.119 160.974 284.268C161.017 284.417 161.145 284.492 161.358 284.492C161.475 284.492 161.614 284.465 161.774 284.412V285.468ZM159.566 281.228C159.395 281.356 159.171 281.452 158.894 281.516C158.617 281.569 158.323 281.617 158.014 281.66C157.715 281.692 157.411 281.735 157.102 281.788C156.793 281.831 156.515 281.905 156.27 282.012C156.025 282.119 155.822 282.273 155.662 282.476C155.513 282.668 155.438 282.935 155.438 283.276C155.438 283.5 155.481 283.692 155.566 283.852C155.662 284.001 155.779 284.124 155.918 284.22C156.067 284.316 156.238 284.385 156.43 284.428C156.622 284.471 156.825 284.492 157.038 284.492C157.486 284.492 157.87 284.433 158.19 284.316C158.51 284.188 158.771 284.033 158.974 283.852C159.177 283.66 159.326 283.457 159.422 283.244C159.518 283.02 159.566 282.812 159.566 282.62V281.228ZM163.088 274.076H164.448V278.348H164.48C164.704 277.889 165.056 277.559 165.536 277.356C166.016 277.143 166.544 277.036 167.12 277.036C167.76 277.036 168.314 277.153 168.784 277.388C169.264 277.623 169.658 277.943 169.968 278.348C170.288 278.743 170.528 279.201 170.688 279.724C170.848 280.247 170.928 280.801 170.928 281.388C170.928 281.975 170.848 282.529 170.688 283.052C170.538 283.575 170.304 284.033 169.984 284.428C169.674 284.812 169.28 285.116 168.8 285.34C168.33 285.564 167.781 285.676 167.152 285.676C166.949 285.676 166.72 285.655 166.464 285.612C166.218 285.569 165.973 285.5 165.728 285.404C165.482 285.308 165.248 285.18 165.024 285.02C164.81 284.849 164.629 284.641 164.48 284.396H164.448V285.5H163.088V274.076ZM169.488 281.292C169.488 280.908 169.434 280.535 169.328 280.172C169.232 279.799 169.077 279.468 168.864 279.18C168.661 278.892 168.394 278.663 168.064 278.492C167.744 278.321 167.365 278.236 166.928 278.236C166.469 278.236 166.08 278.327 165.76 278.508C165.44 278.689 165.178 278.929 164.976 279.228C164.773 279.516 164.624 279.847 164.528 280.22C164.442 280.593 164.4 280.972 164.4 281.356C164.4 281.761 164.448 282.156 164.544 282.54C164.64 282.913 164.789 283.244 164.992 283.532C165.205 283.82 165.477 284.055 165.808 284.236C166.138 284.407 166.538 284.492 167.008 284.492C167.477 284.492 167.866 284.401 168.176 284.22C168.496 284.039 168.752 283.799 168.944 283.5C169.136 283.201 169.274 282.86 169.36 282.476C169.445 282.092 169.488 281.697 169.488 281.292ZM178.268 280.572C178.247 280.252 178.172 279.948 178.044 279.66C177.927 279.372 177.761 279.127 177.548 278.924C177.345 278.711 177.1 278.545 176.812 278.428C176.535 278.3 176.225 278.236 175.884 278.236C175.532 278.236 175.212 278.3 174.924 278.428C174.647 278.545 174.407 278.711 174.204 278.924C174.001 279.137 173.841 279.388 173.724 279.676C173.607 279.953 173.537 280.252 173.516 280.572H178.268ZM179.58 282.876C179.399 283.804 178.999 284.503 178.38 284.972C177.761 285.441 176.983 285.676 176.044 285.676C175.383 285.676 174.807 285.569 174.316 285.356C173.836 285.143 173.431 284.844 173.1 284.46C172.769 284.076 172.519 283.617 172.348 283.084C172.188 282.551 172.097 281.969 172.076 281.34C172.076 280.711 172.172 280.135 172.364 279.612C172.556 279.089 172.823 278.636 173.164 278.252C173.516 277.868 173.927 277.569 174.396 277.356C174.876 277.143 175.399 277.036 175.964 277.036C176.7 277.036 177.308 277.191 177.788 277.5C178.279 277.799 178.668 278.183 178.956 278.652C179.255 279.121 179.457 279.633 179.564 280.188C179.681 280.743 179.729 281.271 179.708 281.772H173.516C173.505 282.135 173.548 282.481 173.644 282.812C173.74 283.132 173.895 283.42 174.108 283.676C174.321 283.921 174.593 284.119 174.924 284.268C175.255 284.417 175.644 284.492 176.092 284.492C176.668 284.492 177.137 284.359 177.5 284.092C177.873 283.825 178.119 283.42 178.236 282.876H179.58ZM181.198 274.076H182.558V285.5H181.198V274.076Z" fill="black" fill-opacity="0.68"/>
<mask id="path-7-inside-2_68375_39389" fill="white">
<path d="M270 250H510V310H270V250Z"/>
</mask>
<path d="M270 250H510V310H270V250Z" fill="black" fill-opacity="0.04"/>
<path d="M510 310V309H270V310V311H510V310Z" fill="black" fill-opacity="0.2" mask="url(#path-7-inside-2_68375_39389)"/>
<path fill-rule="evenodd" clip-rule="evenodd" d="M302.801 269.8H293.199C292.881 269.8 292.576 269.927 292.351 270.152C292.126 270.377 292 270.682 292 271V289C292 289.662 292.536 290.2 293.199 290.2H302.801C303.119 290.2 303.424 290.073 303.649 289.848C303.874 289.623 304 289.318 304 289V271C304 270.338 303.464 269.8 302.801 269.8ZM297.1 270.4H298.9C299.066 270.4 299.2 270.534 299.2 270.7C299.2 270.866 299.066 271 298.9 271H297.1C296.934 271 296.8 270.866 296.8 270.7C296.8 270.534 296.934 270.4 297.1 270.4ZM298 289.6C297.669 289.6 297.4 289.331 297.4 289C297.4 288.669 297.669 288.4 298 288.4C298.331 288.4 298.6 288.669 298.6 289C298.6 289.331 298.331 289.6 298 289.6ZM302.8 287.8H293.2V271.6H302.8V287.8Z" fill="black" fill-opacity="0.68"/>
<path d="M322.704 278.672C322.672 278.096 322.731 277.563 322.88 277.072C323.029 276.581 323.259 276.16 323.568 275.808C323.888 275.445 324.283 275.163 324.752 274.96C325.221 274.757 325.755 274.656 326.352 274.656C326.843 274.656 327.301 274.731 327.728 274.88C328.165 275.019 328.544 275.227 328.864 275.504C329.184 275.771 329.435 276.107 329.616 276.512C329.808 276.917 329.904 277.387 329.904 277.92C329.904 278.421 329.824 278.864 329.664 279.248C329.515 279.632 329.312 279.979 329.056 280.288C328.8 280.587 328.507 280.859 328.176 281.104C327.845 281.349 327.504 281.584 327.152 281.808C326.8 282.021 326.448 282.235 326.096 282.448C325.744 282.651 325.419 282.869 325.12 283.104C324.832 283.339 324.581 283.595 324.368 283.872C324.165 284.139 324.032 284.448 323.968 284.8H329.792V286H322.384C322.437 285.328 322.555 284.757 322.736 284.288C322.928 283.808 323.168 283.392 323.456 283.04C323.744 282.688 324.069 282.379 324.432 282.112C324.795 281.845 325.173 281.595 325.568 281.36C326.048 281.061 326.469 280.789 326.832 280.544C327.195 280.288 327.493 280.032 327.728 279.776C327.973 279.52 328.155 279.243 328.272 278.944C328.4 278.645 328.464 278.299 328.464 277.904C328.464 277.595 328.405 277.317 328.288 277.072C328.171 276.816 328.011 276.597 327.808 276.416C327.616 276.235 327.387 276.096 327.12 276C326.853 275.904 326.571 275.856 326.272 275.856C325.877 275.856 325.536 275.941 325.248 276.112C324.971 276.272 324.741 276.485 324.56 276.752C324.379 277.019 324.245 277.323 324.16 277.664C324.085 277.995 324.053 278.331 324.064 278.672H322.704ZM336.787 286H335.427V277.872H332.483V276.784C332.867 276.784 333.24 276.757 333.603 276.704C333.965 276.64 334.291 276.528 334.579 276.368C334.877 276.208 335.128 275.989 335.331 275.712C335.533 275.435 335.672 275.083 335.747 274.656H336.787V286ZM340.885 278.672C340.853 278.096 340.912 277.563 341.061 277.072C341.211 276.581 341.44 276.16 341.749 275.808C342.069 275.445 342.464 275.163 342.933 274.96C343.403 274.757 343.936 274.656 344.533 274.656C345.024 274.656 345.483 274.731 345.909 274.88C346.347 275.019 346.725 275.227 347.045 275.504C347.365 275.771 347.616 276.107 347.797 276.512C347.989 276.917 348.085 277.387 348.085 277.92C348.085 278.421 348.005 278.864 347.845 279.248C347.696 279.632 347.493 279.979 347.237 280.288C346.981 280.587 346.688 280.859 346.357 281.104C346.027 281.349 345.685 281.584 345.333 281.808C344.981 282.021 344.629 282.235 344.277 282.448C343.925 282.651 343.6 282.869 343.301 283.104C343.013 283.339 342.763 283.595 342.549 283.872C342.347 284.139 342.213 284.448 342.149 284.8H347.973V286H340.565C340.619 285.328 340.736 284.757 340.917 284.288C341.109 283.808 341.349 283.392 341.637 283.04C341.925 282.688 342.251 282.379 342.613 282.112C342.976 281.845 343.355 281.595 343.749 281.36C344.229 281.061 344.651 280.789 345.013 280.544C345.376 280.288 345.675 280.032 345.909 279.776C346.155 279.52 346.336 279.243 346.453 278.944C346.581 278.645 346.645 278.299 346.645 277.904C346.645 277.595 346.587 277.317 346.469 277.072C346.352 276.816 346.192 276.597 345.989 276.416C345.797 276.235 345.568 276.096 345.301 276C345.035 275.904 344.752 275.856 344.453 275.856C344.059 275.856 343.717 275.941 343.429 276.112C343.152 276.272 342.923 276.485 342.741 276.752C342.56 277.019 342.427 277.323 342.341 277.664C342.267 277.995 342.235 278.331 342.245 278.672H340.885ZM361.445 276.048H356.869L356.261 279.312L356.293 279.344C356.538 279.067 356.853 278.864 357.237 278.736C357.632 278.597 358.021 278.528 358.405 278.528C358.906 278.528 359.381 278.608 359.829 278.768C360.277 278.928 360.666 279.173 360.997 279.504C361.328 279.824 361.589 280.229 361.781 280.72C361.973 281.2 362.069 281.765 362.069 282.416C362.069 282.896 361.984 283.365 361.813 283.824C361.653 284.272 361.408 284.672 361.077 285.024C360.746 285.376 360.33 285.659 359.829 285.872C359.338 286.075 358.762 286.176 358.101 286.176C357.61 286.176 357.146 286.107 356.709 285.968C356.282 285.819 355.904 285.611 355.573 285.344C355.242 285.067 354.981 284.725 354.789 284.32C354.597 283.915 354.496 283.456 354.485 282.944H355.845C355.866 283.232 355.936 283.504 356.053 283.76C356.181 284.005 356.346 284.224 356.549 284.416C356.762 284.597 357.008 284.741 357.285 284.848C357.573 284.944 357.888 284.992 358.229 284.992C358.549 284.992 358.853 284.939 359.141 284.832C359.44 284.715 359.696 284.544 359.909 284.32C360.133 284.096 360.309 283.819 360.437 283.488C360.565 283.147 360.629 282.752 360.629 282.304C360.629 281.931 360.565 281.589 360.437 281.28C360.32 280.96 360.149 280.688 359.925 280.464C359.701 280.229 359.429 280.048 359.109 279.92C358.8 279.792 358.453 279.728 358.069 279.728C357.621 279.728 357.221 279.829 356.869 280.032C356.528 280.224 356.224 280.48 355.957 280.8L354.789 280.736L355.845 274.848H361.445V276.048ZM370.536 276.048H365.96L365.352 279.312L365.384 279.344C365.629 279.067 365.944 278.864 366.328 278.736C366.722 278.597 367.112 278.528 367.496 278.528C367.997 278.528 368.472 278.608 368.92 278.768C369.368 278.928 369.757 279.173 370.088 279.504C370.418 279.824 370.68 280.229 370.872 280.72C371.064 281.2 371.16 281.765 371.16 282.416C371.16 282.896 371.074 283.365 370.904 283.824C370.744 284.272 370.498 284.672 370.168 285.024C369.837 285.376 369.421 285.659 368.92 285.872C368.429 286.075 367.853 286.176 367.192 286.176C366.701 286.176 366.237 286.107 365.8 285.968C365.373 285.819 364.994 285.611 364.664 285.344C364.333 285.067 364.072 284.725 363.88 284.32C363.688 283.915 363.586 283.456 363.576 282.944H364.936C364.957 283.232 365.026 283.504 365.144 283.76C365.272 284.005 365.437 284.224 365.64 284.416C365.853 284.597 366.098 284.741 366.376 284.848C366.664 284.944 366.978 284.992 367.32 284.992C367.64 284.992 367.944 284.939 368.232 284.832C368.53 284.715 368.786 284.544 369 284.32C369.224 284.096 369.4 283.819 369.528 283.488C369.656 283.147 369.72 282.752 369.72 282.304C369.72 281.931 369.656 281.589 369.528 281.28C369.41 280.96 369.24 280.688 369.016 280.464C368.792 280.229 368.52 280.048 368.2 279.92C367.89 279.792 367.544 279.728 367.16 279.728C366.712 279.728 366.312 279.829 365.96 280.032C365.618 280.224 365.314 280.48 365.048 280.8L363.88 280.736L364.936 274.848H370.536V276.048ZM379.626 276.048H375.05L374.442 279.312L374.474 279.344C374.72 279.067 375.034 278.864 375.418 278.736C375.813 278.597 376.202 278.528 376.586 278.528C377.088 278.528 377.562 278.608 378.01 278.768C378.458 278.928 378.848 279.173 379.178 279.504C379.509 279.824 379.77 280.229 379.962 280.72C380.154 281.2 380.25 281.765 380.25 282.416C380.25 282.896 380.165 283.365 379.994 283.824C379.834 284.272 379.589 284.672 379.258 285.024C378.928 285.376 378.512 285.659 378.01 285.872C377.52 286.075 376.944 286.176 376.282 286.176C375.792 286.176 375.328 286.107 374.89 285.968C374.464 285.819 374.085 285.611 373.754 285.344C373.424 285.067 373.162 284.725 372.97 284.32C372.778 283.915 372.677 283.456 372.666 282.944H374.026C374.048 283.232 374.117 283.504 374.234 283.76C374.362 284.005 374.528 284.224 374.73 284.416C374.944 284.597 375.189 284.741 375.466 284.848C375.754 284.944 376.069 284.992 376.41 284.992C376.73 284.992 377.034 284.939 377.322 284.832C377.621 284.715 377.877 284.544 378.09 284.32C378.314 284.096 378.49 283.819 378.618 283.488C378.746 283.147 378.81 282.752 378.81 282.304C378.81 281.931 378.746 281.589 378.618 281.28C378.501 280.96 378.33 280.688 378.106 280.464C377.882 280.229 377.61 280.048 377.29 279.92C376.981 279.792 376.634 279.728 376.25 279.728C375.802 279.728 375.402 279.829 375.05 280.032C374.709 280.224 374.405 280.48 374.138 280.8L372.97 280.736L374.026 274.848H379.626V276.048ZM381.997 280.912H386.621V282.192H381.997V280.912ZM393.312 286H391.952V277.872H389.008V276.784C389.392 276.784 389.765 276.757 390.128 276.704C390.49 276.64 390.816 276.528 391.104 276.368C391.402 276.208 391.653 275.989 391.856 275.712C392.058 275.435 392.197 275.083 392.272 274.656H393.312V286ZM397.41 278.672C397.378 278.096 397.437 277.563 397.586 277.072C397.736 276.581 397.965 276.16 398.274 275.808C398.594 275.445 398.989 275.163 399.458 274.96C399.928 274.757 400.461 274.656 401.058 274.656C401.549 274.656 402.008 274.731 402.434 274.88C402.872 275.019 403.25 275.227 403.57 275.504C403.89 275.771 404.141 276.107 404.322 276.512C404.514 276.917 404.61 277.387 404.61 277.92C404.61 278.421 404.53 278.864 404.37 279.248C404.221 279.632 404.018 279.979 403.762 280.288C403.506 280.587 403.213 280.859 402.882 281.104C402.552 281.349 402.21 281.584 401.858 281.808C401.506 282.021 401.154 282.235 400.802 282.448C400.45 282.651 400.125 282.869 399.826 283.104C399.538 283.339 399.288 283.595 399.074 283.872C398.872 284.139 398.738 284.448 398.674 284.8H404.498V286H397.09C397.144 285.328 397.261 284.757 397.442 284.288C397.634 283.808 397.874 283.392 398.162 283.04C398.45 282.688 398.776 282.379 399.138 282.112C399.501 281.845 399.88 281.595 400.274 281.36C400.754 281.061 401.176 280.789 401.538 280.544C401.901 280.288 402.2 280.032 402.434 279.776C402.68 279.52 402.861 279.243 402.978 278.944C403.106 278.645 403.17 278.299 403.17 277.904C403.17 277.595 403.112 277.317 402.994 277.072C402.877 276.816 402.717 276.597 402.514 276.416C402.322 276.235 402.093 276.096 401.826 276C401.56 275.904 401.277 275.856 400.978 275.856C400.584 275.856 400.242 275.941 399.954 276.112C399.677 276.272 399.448 276.485 399.266 276.752C399.085 277.019 398.952 277.323 398.866 277.664C398.792 277.995 398.76 278.331 398.77 278.672H397.41ZM409.285 279.52C409.338 279.531 409.386 279.536 409.429 279.536C409.482 279.536 409.536 279.536 409.589 279.536H409.877C410.165 279.536 410.437 279.499 410.693 279.424C410.96 279.339 411.189 279.221 411.381 279.072C411.584 278.912 411.744 278.715 411.861 278.48C411.978 278.245 412.037 277.979 412.037 277.68C412.037 277.072 411.845 276.619 411.461 276.32C411.077 276.011 410.597 275.856 410.021 275.856C409.658 275.856 409.338 275.925 409.061 276.064C408.794 276.192 408.57 276.368 408.389 276.592C408.218 276.816 408.09 277.077 408.005 277.376C407.92 277.675 407.877 277.989 407.877 278.32H406.517C406.538 277.776 406.624 277.28 406.773 276.832C406.933 276.384 407.157 276 407.445 275.68C407.733 275.36 408.09 275.109 408.517 274.928C408.954 274.747 409.456 274.656 410.021 274.656C410.512 274.656 410.965 274.72 411.381 274.848C411.808 274.965 412.176 275.147 412.485 275.392C412.794 275.637 413.034 275.952 413.205 276.336C413.386 276.72 413.477 277.173 413.477 277.696C413.477 278.208 413.328 278.661 413.029 279.056C412.73 279.451 412.357 279.749 411.909 279.952V279.984C412.602 280.133 413.114 280.459 413.445 280.96C413.786 281.461 413.957 282.053 413.957 282.736C413.957 283.301 413.85 283.803 413.637 284.24C413.434 284.667 413.157 285.024 412.805 285.312C412.453 285.6 412.037 285.819 411.557 285.968C411.088 286.107 410.586 286.176 410.053 286.176C409.477 286.176 408.954 286.096 408.485 285.936C408.016 285.776 407.616 285.541 407.285 285.232C406.954 284.912 406.698 284.523 406.517 284.064C406.346 283.605 406.266 283.083 406.277 282.496H407.637C407.658 283.232 407.872 283.835 408.277 284.304C408.682 284.763 409.274 284.992 410.053 284.992C410.384 284.992 410.698 284.944 410.997 284.848C411.296 284.741 411.557 284.597 411.781 284.416C412.005 284.224 412.181 283.995 412.309 283.728C412.448 283.451 412.517 283.141 412.517 282.8C412.517 282.448 412.453 282.139 412.325 281.872C412.197 281.595 412.026 281.365 411.813 281.184C411.6 280.992 411.344 280.853 411.045 280.768C410.757 280.672 410.442 280.624 410.101 280.624C409.813 280.624 409.541 280.64 409.285 280.672V279.52ZM420.311 282.144V276.592H420.279L416.503 282.144H420.311ZM421.591 282.144H423.127V283.344H421.591V286H420.311V283.344H415.335V282.032L420.503 274.656H421.591V282.144Z" fill="black" fill-opacity="0.68"/>
</svg>
