<svg width="600" height="688" viewBox="0 0 600 688" fill="none" xmlns="http://www.w3.org/2000/svg">
<rect width="600" height="688" fill="black" fill-opacity="0.04"/>
<path d="M123.216 183.28H127.088L125.184 177.952H125.152L123.216 183.28ZM124.352 176.576H126.032L130.496 188H128.816L127.568 184.56H122.736L121.456 188H119.904L124.352 176.576ZM131.679 176.576H133.039V188H131.679V176.576ZM135.426 176.576H136.786V188H135.426V176.576ZM148.562 188V179.728H149.922V188H148.562ZM148.562 178.24V176.576H149.922V178.24H148.562ZM144.306 180.928H142.914V179.728H144.306V178.496C144.306 177.824 144.498 177.317 144.882 176.976C145.277 176.624 145.847 176.448 146.594 176.448C146.722 176.448 146.866 176.459 147.026 176.48C147.197 176.501 147.346 176.533 147.474 176.576V177.76C147.357 177.717 147.229 177.691 147.09 177.68C146.951 177.659 146.823 177.648 146.706 177.648C146.375 177.648 146.119 177.712 145.938 177.84C145.757 177.968 145.666 178.213 145.666 178.576V179.728H147.266V180.928H145.666V188H144.306V180.928ZM157.971 183.072C157.95 182.752 157.875 182.448 157.747 182.16C157.63 181.872 157.464 181.627 157.251 181.424C157.048 181.211 156.803 181.045 156.515 180.928C156.238 180.8 155.928 180.736 155.587 180.736C155.235 180.736 154.915 180.8 154.627 180.928C154.35 181.045 154.11 181.211 153.907 181.424C153.704 181.637 153.544 181.888 153.427 182.176C153.31 182.453 153.24 182.752 153.219 183.072H157.971ZM159.283 185.376C159.102 186.304 158.702 187.003 158.083 187.472C157.464 187.941 156.686 188.176 155.747 188.176C155.086 188.176 154.51 188.069 154.019 187.856C153.539 187.643 153.134 187.344 152.803 186.96C152.472 186.576 152.222 186.117 152.051 185.584C151.891 185.051 151.8 184.469 151.779 183.84C151.779 183.211 151.875 182.635 152.067 182.112C152.259 181.589 152.526 181.136 152.867 180.752C153.219 180.368 153.63 180.069 154.099 179.856C154.579 179.643 155.102 179.536 155.667 179.536C156.403 179.536 157.011 179.691 157.491 180C157.982 180.299 158.371 180.683 158.659 181.152C158.958 181.621 159.16 182.133 159.267 182.688C159.384 183.243 159.432 183.771 159.411 184.272H153.219C153.208 184.635 153.251 184.981 153.347 185.312C153.443 185.632 153.598 185.92 153.811 186.176C154.024 186.421 154.296 186.619 154.627 186.768C154.958 186.917 155.347 186.992 155.795 186.992C156.371 186.992 156.84 186.859 157.203 186.592C157.576 186.325 157.822 185.92 157.939 185.376H159.283ZM161.101 176.576H162.461V188H161.101V176.576ZM165.76 183.936C165.76 184.32 165.808 184.699 165.904 185.072C166.01 185.435 166.165 185.76 166.368 186.048C166.581 186.336 166.848 186.565 167.168 186.736C167.498 186.907 167.882 186.992 168.32 186.992C168.778 186.992 169.168 186.901 169.488 186.72C169.808 186.539 170.069 186.304 170.272 186.016C170.474 185.717 170.618 185.381 170.704 185.008C170.8 184.635 170.848 184.256 170.848 183.872C170.848 183.467 170.8 183.077 170.704 182.704C170.608 182.32 170.453 181.984 170.24 181.696C170.037 181.408 169.77 181.179 169.44 181.008C169.109 180.827 168.709 180.736 168.24 180.736C167.781 180.736 167.392 180.827 167.072 181.008C166.752 181.189 166.496 181.429 166.304 181.728C166.112 182.027 165.973 182.368 165.888 182.752C165.802 183.136 165.76 183.531 165.76 183.936ZM172.16 188H170.8V186.88H170.768C170.544 187.339 170.192 187.669 169.712 187.872C169.232 188.075 168.704 188.176 168.128 188.176C167.488 188.176 166.928 188.059 166.448 187.824C165.978 187.589 165.584 187.275 165.264 186.88C164.954 186.485 164.72 186.027 164.56 185.504C164.4 184.981 164.32 184.427 164.32 183.84C164.32 183.253 164.394 182.699 164.544 182.176C164.704 181.653 164.938 181.2 165.248 180.816C165.568 180.421 165.962 180.112 166.432 179.888C166.912 179.653 167.466 179.536 168.096 179.536C168.309 179.536 168.538 179.557 168.784 179.6C169.029 179.643 169.274 179.717 169.52 179.824C169.765 179.92 169.994 180.053 170.208 180.224C170.432 180.384 170.618 180.587 170.768 180.832H170.8V176.576H172.16V188ZM175.284 185.392C175.295 185.691 175.364 185.947 175.492 186.16C175.62 186.363 175.785 186.528 175.988 186.656C176.201 186.773 176.436 186.859 176.692 186.912C176.959 186.965 177.231 186.992 177.508 186.992C177.721 186.992 177.945 186.976 178.18 186.944C178.415 186.912 178.628 186.853 178.82 186.768C179.023 186.683 179.188 186.56 179.316 186.4C179.444 186.229 179.508 186.016 179.508 185.76C179.508 185.408 179.375 185.141 179.108 184.96C178.841 184.779 178.505 184.635 178.1 184.528C177.705 184.411 177.273 184.309 176.804 184.224C176.335 184.128 175.897 184 175.492 183.84C175.097 183.669 174.767 183.435 174.5 183.136C174.233 182.837 174.1 182.421 174.1 181.888C174.1 181.472 174.191 181.115 174.372 180.816C174.564 180.517 174.804 180.277 175.092 180.096C175.391 179.904 175.721 179.765 176.084 179.68C176.457 179.584 176.825 179.536 177.188 179.536C177.657 179.536 178.089 179.579 178.484 179.664C178.879 179.739 179.225 179.877 179.524 180.08C179.833 180.272 180.079 180.539 180.26 180.88C180.441 181.211 180.548 181.627 180.58 182.128H179.22C179.199 181.861 179.129 181.643 179.012 181.472C178.895 181.291 178.745 181.147 178.564 181.04C178.383 180.933 178.18 180.859 177.956 180.816C177.743 180.763 177.524 180.736 177.3 180.736C177.097 180.736 176.889 180.752 176.676 180.784C176.473 180.816 176.287 180.875 176.116 180.96C175.945 181.035 175.807 181.141 175.7 181.28C175.593 181.408 175.54 181.579 175.54 181.792C175.54 182.027 175.62 182.224 175.78 182.384C175.951 182.533 176.164 182.661 176.42 182.768C176.676 182.864 176.964 182.949 177.284 183.024C177.604 183.088 177.924 183.157 178.244 183.232C178.585 183.307 178.916 183.397 179.236 183.504C179.567 183.611 179.855 183.755 180.1 183.936C180.356 184.107 180.559 184.325 180.708 184.592C180.868 184.859 180.948 185.189 180.948 185.584C180.948 186.085 180.841 186.501 180.628 186.832C180.425 187.163 180.153 187.429 179.812 187.632C179.481 187.835 179.103 187.973 178.676 188.048C178.26 188.133 177.844 188.176 177.428 188.176C176.969 188.176 176.532 188.128 176.116 188.032C175.7 187.936 175.332 187.781 175.012 187.568C174.692 187.344 174.436 187.056 174.244 186.704C174.052 186.341 173.945 185.904 173.924 185.392H175.284ZM187.305 179.728H188.585V180.944H188.617C189.236 180.005 190.127 179.536 191.289 179.536C191.801 179.536 192.265 179.643 192.681 179.856C193.097 180.069 193.391 180.432 193.561 180.944C193.839 180.496 194.201 180.149 194.649 179.904C195.108 179.659 195.609 179.536 196.153 179.536C196.569 179.536 196.943 179.584 197.273 179.68C197.615 179.765 197.903 179.904 198.137 180.096C198.383 180.288 198.569 180.539 198.697 180.848C198.836 181.147 198.905 181.509 198.905 181.936V188H197.545V182.576C197.545 182.32 197.524 182.08 197.481 181.856C197.439 181.632 197.359 181.44 197.241 181.28C197.124 181.109 196.959 180.976 196.745 180.88C196.543 180.784 196.276 180.736 195.945 180.736C195.273 180.736 194.745 180.928 194.361 181.312C193.977 181.696 193.785 182.208 193.785 182.848V188H192.425V182.576C192.425 182.309 192.399 182.064 192.345 181.84C192.303 181.616 192.223 181.424 192.105 181.264C191.988 181.093 191.828 180.965 191.625 180.88C191.433 180.784 191.183 180.736 190.873 180.736C190.479 180.736 190.137 180.816 189.849 180.976C189.572 181.136 189.343 181.328 189.161 181.552C188.991 181.776 188.863 182.011 188.777 182.256C188.703 182.491 188.665 182.688 188.665 182.848V188H187.305V179.728ZM208.474 187.968C208.239 188.107 207.914 188.176 207.498 188.176C207.146 188.176 206.863 188.08 206.65 187.888C206.447 187.685 206.346 187.36 206.346 186.912C205.973 187.36 205.535 187.685 205.034 187.888C204.543 188.08 204.01 188.176 203.434 188.176C203.061 188.176 202.703 188.133 202.362 188.048C202.031 187.963 201.743 187.829 201.498 187.648C201.253 187.467 201.055 187.232 200.906 186.944C200.767 186.645 200.698 186.288 200.698 185.872C200.698 185.403 200.778 185.019 200.938 184.72C201.098 184.421 201.306 184.181 201.562 184C201.829 183.808 202.127 183.664 202.458 183.568C202.799 183.472 203.146 183.392 203.498 183.328C203.871 183.253 204.223 183.2 204.554 183.168C204.895 183.125 205.194 183.072 205.45 183.008C205.706 182.933 205.909 182.832 206.058 182.704C206.207 182.565 206.282 182.368 206.282 182.112C206.282 181.813 206.223 181.573 206.106 181.392C205.999 181.211 205.855 181.072 205.674 180.976C205.503 180.88 205.306 180.816 205.082 180.784C204.869 180.752 204.655 180.736 204.442 180.736C203.866 180.736 203.386 180.848 203.002 181.072C202.618 181.285 202.41 181.696 202.378 182.304H201.018C201.039 181.792 201.146 181.36 201.338 181.008C201.53 180.656 201.786 180.373 202.106 180.16C202.426 179.936 202.789 179.776 203.194 179.68C203.61 179.584 204.053 179.536 204.522 179.536C204.895 179.536 205.263 179.563 205.626 179.616C205.999 179.669 206.335 179.781 206.634 179.952C206.933 180.112 207.173 180.341 207.354 180.64C207.535 180.939 207.626 181.328 207.626 181.808V186.064C207.626 186.384 207.642 186.619 207.674 186.768C207.717 186.917 207.845 186.992 208.058 186.992C208.175 186.992 208.314 186.965 208.474 186.912V187.968ZM206.266 183.728C206.095 183.856 205.871 183.952 205.594 184.016C205.317 184.069 205.023 184.117 204.714 184.16C204.415 184.192 204.111 184.235 203.802 184.288C203.493 184.331 203.215 184.405 202.97 184.512C202.725 184.619 202.522 184.773 202.362 184.976C202.213 185.168 202.138 185.435 202.138 185.776C202.138 186 202.181 186.192 202.266 186.352C202.362 186.501 202.479 186.624 202.618 186.72C202.767 186.816 202.938 186.885 203.13 186.928C203.322 186.971 203.525 186.992 203.738 186.992C204.186 186.992 204.57 186.933 204.89 186.816C205.21 186.688 205.471 186.533 205.674 186.352C205.877 186.16 206.026 185.957 206.122 185.744C206.218 185.52 206.266 185.312 206.266 185.12V183.728ZM209.892 179.728H211.172V181.472H211.204C211.534 180.8 211.94 180.304 212.42 179.984C212.9 179.664 213.508 179.515 214.244 179.536V180.976C213.7 180.976 213.236 181.051 212.852 181.2C212.468 181.349 212.158 181.568 211.924 181.856C211.689 182.144 211.518 182.496 211.412 182.912C211.305 183.317 211.252 183.787 211.252 184.32V188H209.892V179.728ZM215.548 176.576H216.908V183.344L220.684 179.728H222.508L219.228 182.736L222.748 188H221.02L218.188 183.68L216.908 184.864V188H215.548V176.576ZM229.709 183.072C229.687 182.752 229.613 182.448 229.485 182.16C229.367 181.872 229.202 181.627 228.989 181.424C228.786 181.211 228.541 181.045 228.253 180.928C227.975 180.8 227.666 180.736 227.325 180.736C226.973 180.736 226.653 180.8 226.365 180.928C226.087 181.045 225.847 181.211 225.645 181.424C225.442 181.637 225.282 181.888 225.165 182.176C225.047 182.453 224.978 182.752 224.957 183.072H229.709ZM231.021 185.376C230.839 186.304 230.439 187.003 229.821 187.472C229.202 187.941 228.423 188.176 227.485 188.176C226.823 188.176 226.247 188.069 225.757 187.856C225.277 187.643 224.871 187.344 224.541 186.96C224.21 186.576 223.959 186.117 223.789 185.584C223.629 185.051 223.538 184.469 223.517 183.84C223.517 183.211 223.613 182.635 223.805 182.112C223.997 181.589 224.263 181.136 224.605 180.752C224.957 180.368 225.367 180.069 225.837 179.856C226.317 179.643 226.839 179.536 227.405 179.536C228.141 179.536 228.749 179.691 229.229 180C229.719 180.299 230.109 180.683 230.397 181.152C230.695 181.621 230.898 182.133 231.005 182.688C231.122 183.243 231.17 183.771 231.149 184.272H224.957C224.946 184.635 224.989 184.981 225.085 185.312C225.181 185.632 225.335 185.92 225.549 186.176C225.762 186.421 226.034 186.619 226.365 186.768C226.695 186.917 227.085 186.992 227.533 186.992C228.109 186.992 228.578 186.859 228.941 186.592C229.314 186.325 229.559 185.92 229.677 185.376H231.021ZM233.75 183.936C233.75 184.32 233.798 184.699 233.894 185.072C234.001 185.435 234.156 185.76 234.358 186.048C234.572 186.336 234.838 186.565 235.158 186.736C235.489 186.907 235.873 186.992 236.31 186.992C236.769 186.992 237.158 186.901 237.478 186.72C237.798 186.539 238.06 186.304 238.262 186.016C238.465 185.717 238.609 185.381 238.694 185.008C238.79 184.635 238.838 184.256 238.838 183.872C238.838 183.467 238.79 183.077 238.694 182.704C238.598 182.32 238.444 181.984 238.23 181.696C238.028 181.408 237.761 181.179 237.43 181.008C237.1 180.827 236.7 180.736 236.23 180.736C235.772 180.736 235.382 180.827 235.062 181.008C234.742 181.189 234.486 181.429 234.294 181.728C234.102 182.027 233.964 182.368 233.878 182.752C233.793 183.136 233.75 183.531 233.75 183.936ZM240.15 188H238.79V186.88H238.758C238.534 187.339 238.182 187.669 237.702 187.872C237.222 188.075 236.694 188.176 236.118 188.176C235.478 188.176 234.918 188.059 234.438 187.824C233.969 187.589 233.574 187.275 233.254 186.88C232.945 186.485 232.71 186.027 232.55 185.504C232.39 184.981 232.31 184.427 232.31 183.84C232.31 183.253 232.385 182.699 232.534 182.176C232.694 181.653 232.929 181.2 233.238 180.816C233.558 180.421 233.953 180.112 234.422 179.888C234.902 179.653 235.457 179.536 236.086 179.536C236.3 179.536 236.529 179.557 236.774 179.6C237.02 179.643 237.265 179.717 237.51 179.824C237.756 179.92 237.985 180.053 238.198 180.224C238.422 180.384 238.609 180.587 238.758 180.832H238.79V176.576H240.15V188ZM255.288 188H253.848L252.168 181.424H252.136L250.472 188H249L246.344 179.728H247.848L249.72 186.496H249.752L251.416 179.728H252.904L254.632 186.496H254.664L256.52 179.728H257.928L255.288 188ZM260.861 178.24H259.501V176.576H260.861V178.24ZM259.501 179.728H260.861V188H259.501V179.728ZM265.056 179.728H266.704V180.928H265.056V186.064C265.056 186.224 265.066 186.352 265.088 186.448C265.12 186.544 265.173 186.619 265.248 186.672C265.322 186.725 265.424 186.763 265.552 186.784C265.69 186.795 265.866 186.8 266.08 186.8H266.704V188H265.664C265.312 188 265.008 187.979 264.752 187.936C264.506 187.883 264.304 187.792 264.144 187.664C263.994 187.536 263.882 187.355 263.808 187.12C263.733 186.885 263.696 186.576 263.696 186.192V180.928H262.288V179.728H263.696V177.248H265.056V179.728ZM268.415 176.576H269.775V180.944H269.807C269.913 180.688 270.063 180.475 270.255 180.304C270.447 180.123 270.66 179.979 270.895 179.872C271.14 179.755 271.391 179.669 271.647 179.616C271.913 179.563 272.169 179.536 272.415 179.536C272.959 179.536 273.412 179.611 273.775 179.76C274.137 179.909 274.431 180.117 274.655 180.384C274.879 180.651 275.033 180.971 275.119 181.344C275.215 181.707 275.263 182.112 275.263 182.56V188H273.903V182.4C273.903 181.888 273.753 181.483 273.455 181.184C273.156 180.885 272.745 180.736 272.223 180.736C271.807 180.736 271.444 180.8 271.135 180.928C270.836 181.056 270.585 181.237 270.383 181.472C270.18 181.707 270.025 181.984 269.919 182.304C269.823 182.613 269.775 182.955 269.775 183.328V188H268.415V176.576ZM289.486 187.968C289.252 188.107 288.926 188.176 288.51 188.176C288.158 188.176 287.876 188.08 287.662 187.888C287.46 187.685 287.358 187.36 287.358 186.912C286.985 187.36 286.548 187.685 286.046 187.888C285.556 188.08 285.022 188.176 284.446 188.176C284.073 188.176 283.716 188.133 283.374 188.048C283.044 187.963 282.756 187.829 282.51 187.648C282.265 187.467 282.068 187.232 281.918 186.944C281.78 186.645 281.71 186.288 281.71 185.872C281.71 185.403 281.79 185.019 281.95 184.72C282.11 184.421 282.318 184.181 282.574 184C282.841 183.808 283.14 183.664 283.47 183.568C283.812 183.472 284.158 183.392 284.51 183.328C284.884 183.253 285.236 183.2 285.566 183.168C285.908 183.125 286.206 183.072 286.462 183.008C286.718 182.933 286.921 182.832 287.07 182.704C287.22 182.565 287.294 182.368 287.294 182.112C287.294 181.813 287.236 181.573 287.118 181.392C287.012 181.211 286.868 181.072 286.686 180.976C286.516 180.88 286.318 180.816 286.094 180.784C285.881 180.752 285.668 180.736 285.454 180.736C284.878 180.736 284.398 180.848 284.014 181.072C283.63 181.285 283.422 181.696 283.39 182.304H282.03C282.052 181.792 282.158 181.36 282.35 181.008C282.542 180.656 282.798 180.373 283.118 180.16C283.438 179.936 283.801 179.776 284.206 179.68C284.622 179.584 285.065 179.536 285.534 179.536C285.908 179.536 286.276 179.563 286.638 179.616C287.012 179.669 287.348 179.781 287.646 179.952C287.945 180.112 288.185 180.341 288.366 180.64C288.548 180.939 288.638 181.328 288.638 181.808V186.064C288.638 186.384 288.654 186.619 288.686 186.768C288.729 186.917 288.857 186.992 289.07 186.992C289.188 186.992 289.326 186.965 289.486 186.912V187.968ZM287.278 183.728C287.108 183.856 286.884 183.952 286.606 184.016C286.329 184.069 286.036 184.117 285.726 184.16C285.428 184.192 285.124 184.235 284.814 184.288C284.505 184.331 284.228 184.405 283.982 184.512C283.737 184.619 283.534 184.773 283.374 184.976C283.225 185.168 283.15 185.435 283.15 185.776C283.15 186 283.193 186.192 283.278 186.352C283.374 186.501 283.492 186.624 283.63 186.72C283.78 186.816 283.95 186.885 284.142 186.928C284.334 186.971 284.537 186.992 284.75 186.992C285.198 186.992 285.582 186.933 285.902 186.816C286.222 186.688 286.484 186.533 286.686 186.352C286.889 186.16 287.038 185.957 287.134 185.744C287.23 185.52 287.278 185.312 287.278 185.12V183.728ZM290.952 179.728H292.232V181.04H292.264C292.829 180.037 293.725 179.536 294.952 179.536C295.496 179.536 295.949 179.611 296.312 179.76C296.675 179.909 296.968 180.117 297.192 180.384C297.416 180.651 297.571 180.971 297.656 181.344C297.752 181.707 297.8 182.112 297.8 182.56V188H296.44V182.4C296.44 181.888 296.291 181.483 295.992 181.184C295.693 180.885 295.283 180.736 294.76 180.736C294.344 180.736 293.981 180.8 293.672 180.928C293.373 181.056 293.123 181.237 292.92 181.472C292.717 181.707 292.563 181.984 292.456 182.304C292.36 182.613 292.312 182.955 292.312 183.328V188H290.952V179.728ZM323.393 187.968C323.158 188.107 322.833 188.176 322.417 188.176C322.065 188.176 321.782 188.08 321.569 187.888C321.366 187.685 321.265 187.36 321.265 186.912C320.891 187.36 320.454 187.685 319.953 187.888C319.462 188.08 318.929 188.176 318.353 188.176C317.979 188.176 317.622 188.133 317.281 188.048C316.95 187.963 316.662 187.829 316.417 187.648C316.171 187.467 315.974 187.232 315.825 186.944C315.686 186.645 315.617 186.288 315.617 185.872C315.617 185.403 315.697 185.019 315.857 184.72C316.017 184.421 316.225 184.181 316.481 184C316.747 183.808 317.046 183.664 317.377 183.568C317.718 183.472 318.065 183.392 318.417 183.328C318.79 183.253 319.142 183.2 319.473 183.168C319.814 183.125 320.113 183.072 320.369 183.008C320.625 182.933 320.827 182.832 320.977 182.704C321.126 182.565 321.201 182.368 321.201 182.112C321.201 181.813 321.142 181.573 321.025 181.392C320.918 181.211 320.774 181.072 320.593 180.976C320.422 180.88 320.225 180.816 320.001 180.784C319.787 180.752 319.574 180.736 319.361 180.736C318.785 180.736 318.305 180.848 317.921 181.072C317.537 181.285 317.329 181.696 317.297 182.304H315.937C315.958 181.792 316.065 181.36 316.257 181.008C316.449 180.656 316.705 180.373 317.025 180.16C317.345 179.936 317.707 179.776 318.113 179.68C318.529 179.584 318.971 179.536 319.441 179.536C319.814 179.536 320.182 179.563 320.545 179.616C320.918 179.669 321.254 179.781 321.553 179.952C321.851 180.112 322.091 180.341 322.273 180.64C322.454 180.939 322.545 181.328 322.545 181.808V186.064C322.545 186.384 322.561 186.619 322.593 186.768C322.635 186.917 322.763 186.992 322.977 186.992C323.094 186.992 323.233 186.965 323.393 186.912V187.968ZM321.185 183.728C321.014 183.856 320.79 183.952 320.513 184.016C320.235 184.069 319.942 184.117 319.633 184.16C319.334 184.192 319.03 184.235 318.721 184.288C318.411 184.331 318.134 184.405 317.889 184.512C317.643 184.619 317.441 184.773 317.281 184.976C317.131 185.168 317.057 185.435 317.057 185.776C317.057 186 317.099 186.192 317.185 186.352C317.281 186.501 317.398 186.624 317.537 186.72C317.686 186.816 317.857 186.885 318.049 186.928C318.241 186.971 318.443 186.992 318.657 186.992C319.105 186.992 319.489 186.933 319.809 186.816C320.129 186.688 320.39 186.533 320.593 186.352C320.795 186.16 320.945 185.957 321.041 185.744C321.137 185.52 321.185 185.312 321.185 185.12V183.728ZM324.81 179.728H326.09V181.472H326.122C326.453 180.8 326.858 180.304 327.338 179.984C327.818 179.664 328.426 179.515 329.162 179.536V180.976C328.618 180.976 328.154 181.051 327.77 181.2C327.386 181.349 327.077 181.568 326.842 181.856C326.608 182.144 326.437 182.496 326.33 182.912C326.224 183.317 326.17 183.787 326.17 184.32V188H324.81V179.728ZM335.849 183.072C335.828 182.752 335.753 182.448 335.625 182.16C335.508 181.872 335.343 181.627 335.129 181.424C334.927 181.211 334.681 181.045 334.393 180.928C334.116 180.8 333.807 180.736 333.465 180.736C333.113 180.736 332.793 180.8 332.505 180.928C332.228 181.045 331.988 181.211 331.785 181.424C331.583 181.637 331.423 181.888 331.305 182.176C331.188 182.453 331.119 182.752 331.097 183.072H335.849ZM337.161 185.376C336.98 186.304 336.58 187.003 335.961 187.472C335.343 187.941 334.564 188.176 333.625 188.176C332.964 188.176 332.388 188.069 331.897 187.856C331.417 187.643 331.012 187.344 330.681 186.96C330.351 186.576 330.1 186.117 329.929 185.584C329.769 185.051 329.679 184.469 329.657 183.84C329.657 183.211 329.753 182.635 329.945 182.112C330.137 181.589 330.404 181.136 330.745 180.752C331.097 180.368 331.508 180.069 331.977 179.856C332.457 179.643 332.98 179.536 333.545 179.536C334.281 179.536 334.889 179.691 335.369 180C335.86 180.299 336.249 180.683 336.537 181.152C336.836 181.621 337.039 182.133 337.145 182.688C337.263 183.243 337.311 183.771 337.289 184.272H331.097C331.087 184.635 331.129 184.981 331.225 185.312C331.321 185.632 331.476 185.92 331.689 186.176C331.903 186.421 332.175 186.619 332.505 186.768C332.836 186.917 333.225 186.992 333.673 186.992C334.249 186.992 334.719 186.859 335.081 186.592C335.455 186.325 335.7 185.92 335.817 185.376H337.161ZM343.552 179.728H344.832V180.944H344.864C345.483 180.005 346.373 179.536 347.536 179.536C348.048 179.536 348.512 179.643 348.928 179.856C349.344 180.069 349.637 180.432 349.808 180.944C350.085 180.496 350.448 180.149 350.896 179.904C351.355 179.659 351.856 179.536 352.4 179.536C352.816 179.536 353.189 179.584 353.52 179.68C353.861 179.765 354.149 179.904 354.384 180.096C354.629 180.288 354.816 180.539 354.944 180.848C355.083 181.147 355.152 181.509 355.152 181.936V188H353.792V182.576C353.792 182.32 353.771 182.08 353.728 181.856C353.685 181.632 353.605 181.44 353.488 181.28C353.371 181.109 353.205 180.976 352.992 180.88C352.789 180.784 352.523 180.736 352.192 180.736C351.52 180.736 350.992 180.928 350.608 181.312C350.224 181.696 350.032 182.208 350.032 182.848V188H348.672V182.576C348.672 182.309 348.645 182.064 348.592 181.84C348.549 181.616 348.469 181.424 348.352 181.264C348.235 181.093 348.075 180.965 347.872 180.88C347.68 180.784 347.429 180.736 347.12 180.736C346.725 180.736 346.384 180.816 346.096 180.976C345.819 181.136 345.589 181.328 345.408 181.552C345.237 181.776 345.109 182.011 345.024 182.256C344.949 182.491 344.912 182.688 344.912 182.848V188H343.552V179.728ZM364.721 187.968C364.486 188.107 364.161 188.176 363.745 188.176C363.393 188.176 363.11 188.08 362.897 187.888C362.694 187.685 362.593 187.36 362.593 186.912C362.219 187.36 361.782 187.685 361.281 187.888C360.79 188.08 360.257 188.176 359.681 188.176C359.307 188.176 358.95 188.133 358.609 188.048C358.278 187.963 357.99 187.829 357.745 187.648C357.499 187.467 357.302 187.232 357.153 186.944C357.014 186.645 356.945 186.288 356.945 185.872C356.945 185.403 357.025 185.019 357.185 184.72C357.345 184.421 357.553 184.181 357.809 184C358.075 183.808 358.374 183.664 358.705 183.568C359.046 183.472 359.393 183.392 359.745 183.328C360.118 183.253 360.47 183.2 360.801 183.168C361.142 183.125 361.441 183.072 361.697 183.008C361.953 182.933 362.155 182.832 362.305 182.704C362.454 182.565 362.529 182.368 362.529 182.112C362.529 181.813 362.47 181.573 362.353 181.392C362.246 181.211 362.102 181.072 361.921 180.976C361.75 180.88 361.553 180.816 361.329 180.784C361.115 180.752 360.902 180.736 360.689 180.736C360.113 180.736 359.633 180.848 359.249 181.072C358.865 181.285 358.657 181.696 358.625 182.304H357.265C357.286 181.792 357.393 181.36 357.585 181.008C357.777 180.656 358.033 180.373 358.353 180.16C358.673 179.936 359.035 179.776 359.441 179.68C359.857 179.584 360.299 179.536 360.769 179.536C361.142 179.536 361.51 179.563 361.873 179.616C362.246 179.669 362.582 179.781 362.881 179.952C363.179 180.112 363.419 180.341 363.601 180.64C363.782 180.939 363.873 181.328 363.873 181.808V186.064C363.873 186.384 363.889 186.619 363.921 186.768C363.963 186.917 364.091 186.992 364.305 186.992C364.422 186.992 364.561 186.965 364.721 186.912V187.968ZM362.513 183.728C362.342 183.856 362.118 183.952 361.841 184.016C361.563 184.069 361.27 184.117 360.961 184.16C360.662 184.192 360.358 184.235 360.049 184.288C359.739 184.331 359.462 184.405 359.217 184.512C358.971 184.619 358.769 184.773 358.609 184.976C358.459 185.168 358.385 185.435 358.385 185.776C358.385 186 358.427 186.192 358.513 186.352C358.609 186.501 358.726 186.624 358.865 186.72C359.014 186.816 359.185 186.885 359.377 186.928C359.569 186.971 359.771 186.992 359.985 186.992C360.433 186.992 360.817 186.933 361.137 186.816C361.457 186.688 361.718 186.533 361.921 186.352C362.123 186.16 362.273 185.957 362.369 185.744C362.465 185.52 362.513 185.312 362.513 185.12V183.728ZM366.187 179.728H367.467V181.04H367.499C368.064 180.037 368.96 179.536 370.187 179.536C370.731 179.536 371.184 179.611 371.547 179.76C371.909 179.909 372.203 180.117 372.427 180.384C372.651 180.651 372.805 180.971 372.891 181.344C372.987 181.707 373.035 182.112 373.035 182.56V188H371.675V182.4C371.675 181.888 371.525 181.483 371.227 181.184C370.928 180.885 370.517 180.736 369.995 180.736C369.579 180.736 369.216 180.8 368.907 180.928C368.608 181.056 368.357 181.237 368.155 181.472C367.952 181.707 367.797 181.984 367.691 182.304C367.595 182.613 367.547 182.955 367.547 183.328V188H366.187V179.728ZM376.269 183.936C376.269 184.32 376.317 184.699 376.413 185.072C376.52 185.435 376.674 185.76 376.877 186.048C377.09 186.336 377.357 186.565 377.677 186.736C378.008 186.907 378.392 186.992 378.829 186.992C379.288 186.992 379.677 186.901 379.997 186.72C380.317 186.539 380.578 186.304 380.781 186.016C380.984 185.717 381.128 185.381 381.213 185.008C381.309 184.635 381.357 184.256 381.357 183.872C381.357 183.467 381.309 183.077 381.213 182.704C381.117 182.32 380.962 181.984 380.749 181.696C380.546 181.408 380.28 181.179 379.949 181.008C379.618 180.827 379.218 180.736 378.749 180.736C378.29 180.736 377.901 180.827 377.581 181.008C377.261 181.189 377.005 181.429 376.813 181.728C376.621 182.027 376.482 182.368 376.397 182.752C376.312 183.136 376.269 183.531 376.269 183.936ZM382.669 188H381.309V186.88H381.277C381.053 187.339 380.701 187.669 380.221 187.872C379.741 188.075 379.213 188.176 378.637 188.176C377.997 188.176 377.437 188.059 376.957 187.824C376.488 187.589 376.093 187.275 375.773 186.88C375.464 186.485 375.229 186.027 375.069 185.504C374.909 184.981 374.829 184.427 374.829 183.84C374.829 183.253 374.904 182.699 375.053 182.176C375.213 181.653 375.448 181.2 375.757 180.816C376.077 180.421 376.472 180.112 376.941 179.888C377.421 179.653 377.976 179.536 378.605 179.536C378.818 179.536 379.048 179.557 379.293 179.6C379.538 179.643 379.784 179.717 380.029 179.824C380.274 179.92 380.504 180.053 380.717 180.224C380.941 180.384 381.128 180.587 381.277 180.832H381.309V176.576H382.669V188ZM392.29 187.968C392.055 188.107 391.73 188.176 391.314 188.176C390.962 188.176 390.679 188.08 390.466 187.888C390.263 187.685 390.162 187.36 390.162 186.912C389.788 187.36 389.351 187.685 388.85 187.888C388.359 188.08 387.826 188.176 387.25 188.176C386.876 188.176 386.519 188.133 386.178 188.048C385.847 187.963 385.559 187.829 385.314 187.648C385.068 187.467 384.871 187.232 384.722 186.944C384.583 186.645 384.514 186.288 384.514 185.872C384.514 185.403 384.594 185.019 384.754 184.72C384.914 184.421 385.122 184.181 385.378 184C385.644 183.808 385.943 183.664 386.274 183.568C386.615 183.472 386.962 183.392 387.314 183.328C387.687 183.253 388.039 183.2 388.37 183.168C388.711 183.125 389.01 183.072 389.266 183.008C389.522 182.933 389.724 182.832 389.874 182.704C390.023 182.565 390.098 182.368 390.098 182.112C390.098 181.813 390.039 181.573 389.922 181.392C389.815 181.211 389.671 181.072 389.49 180.976C389.319 180.88 389.122 180.816 388.898 180.784C388.684 180.752 388.471 180.736 388.258 180.736C387.682 180.736 387.202 180.848 386.818 181.072C386.434 181.285 386.226 181.696 386.194 182.304H384.834C384.855 181.792 384.962 181.36 385.154 181.008C385.346 180.656 385.602 180.373 385.922 180.16C386.242 179.936 386.604 179.776 387.01 179.68C387.426 179.584 387.868 179.536 388.338 179.536C388.711 179.536 389.079 179.563 389.442 179.616C389.815 179.669 390.151 179.781 390.45 179.952C390.748 180.112 390.988 180.341 391.17 180.64C391.351 180.939 391.442 181.328 391.442 181.808V186.064C391.442 186.384 391.458 186.619 391.49 186.768C391.532 186.917 391.66 186.992 391.874 186.992C391.991 186.992 392.13 186.965 392.29 186.912V187.968ZM390.082 183.728C389.911 183.856 389.687 183.952 389.41 184.016C389.132 184.069 388.839 184.117 388.53 184.16C388.231 184.192 387.927 184.235 387.618 184.288C387.308 184.331 387.031 184.405 386.786 184.512C386.54 184.619 386.338 184.773 386.178 184.976C386.028 185.168 385.954 185.435 385.954 185.776C385.954 186 385.996 186.192 386.082 186.352C386.178 186.501 386.295 186.624 386.434 186.72C386.583 186.816 386.754 186.885 386.946 186.928C387.138 186.971 387.34 186.992 387.554 186.992C388.002 186.992 388.386 186.933 388.706 186.816C389.026 186.688 389.287 186.533 389.49 186.352C389.692 186.16 389.842 185.957 389.938 185.744C390.034 185.52 390.082 185.312 390.082 185.12V183.728ZM395.643 179.728H397.291V180.928H395.643V186.064C395.643 186.224 395.654 186.352 395.675 186.448C395.707 186.544 395.761 186.619 395.835 186.672C395.91 186.725 396.011 186.763 396.139 186.784C396.278 186.795 396.454 186.8 396.667 186.8H397.291V188H396.251C395.899 188 395.595 187.979 395.339 187.936C395.094 187.883 394.891 187.792 394.731 187.664C394.582 187.536 394.47 187.355 394.395 187.12C394.321 186.885 394.283 186.576 394.283 186.192V180.928H392.875V179.728H394.283V177.248H395.643V179.728ZM399.994 183.872C399.994 184.373 400.058 184.821 400.186 185.216C400.325 185.6 400.511 185.925 400.746 186.192C400.981 186.448 401.253 186.645 401.562 186.784C401.882 186.923 402.218 186.992 402.57 186.992C402.922 186.992 403.253 186.923 403.562 186.784C403.882 186.645 404.159 186.448 404.394 186.192C404.629 185.925 404.81 185.6 404.938 185.216C405.077 184.821 405.146 184.373 405.146 183.872C405.146 183.371 405.077 182.928 404.938 182.544C404.81 182.149 404.629 181.819 404.394 181.552C404.159 181.285 403.882 181.083 403.562 180.944C403.253 180.805 402.922 180.736 402.57 180.736C402.218 180.736 401.882 180.805 401.562 180.944C401.253 181.083 400.981 181.285 400.746 181.552C400.511 181.819 400.325 182.149 400.186 182.544C400.058 182.928 399.994 183.371 399.994 183.872ZM398.554 183.872C398.554 183.264 398.639 182.699 398.81 182.176C398.981 181.643 399.237 181.184 399.578 180.8C399.919 180.405 400.341 180.096 400.842 179.872C401.343 179.648 401.919 179.536 402.57 179.536C403.231 179.536 403.807 179.648 404.298 179.872C404.799 180.096 405.221 180.405 405.562 180.8C405.903 181.184 406.159 181.643 406.33 182.176C406.501 182.699 406.586 183.264 406.586 183.872C406.586 184.48 406.501 185.045 406.33 185.568C406.159 186.091 405.903 186.549 405.562 186.944C405.221 187.328 404.799 187.632 404.298 187.856C403.807 188.069 403.231 188.176 402.57 188.176C401.919 188.176 401.343 188.069 400.842 187.856C400.341 187.632 399.919 187.328 399.578 186.944C399.237 186.549 398.981 186.091 398.81 185.568C398.639 185.045 398.554 184.48 398.554 183.872ZM408.342 179.728H409.622V181.472H409.654C409.984 180.8 410.39 180.304 410.87 179.984C411.35 179.664 411.958 179.515 412.694 179.536V180.976C412.15 180.976 411.686 181.051 411.302 181.2C410.918 181.349 410.608 181.568 410.374 181.856C410.139 182.144 409.968 182.496 409.862 182.912C409.755 183.317 409.702 183.787 409.702 184.32V188H408.342V179.728ZM417.166 189.104C417.006 189.509 416.846 189.851 416.686 190.128C416.536 190.405 416.366 190.629 416.174 190.8C415.992 190.981 415.784 191.109 415.55 191.184C415.326 191.269 415.064 191.312 414.766 191.312C414.606 191.312 414.446 191.301 414.286 191.28C414.126 191.259 413.971 191.221 413.822 191.168V189.92C413.939 189.973 414.072 190.016 414.222 190.048C414.382 190.091 414.515 190.112 414.622 190.112C414.899 190.112 415.128 190.043 415.31 189.904C415.502 189.776 415.646 189.589 415.742 189.344L416.302 187.952L413.022 179.728H414.558L416.974 186.496H417.006L419.326 179.728H420.766L417.166 189.104ZM421.234 186.224H423.01V188H421.234V186.224Z" fill="black"/>
<path d="M307.544 178.576L309.4 177.872L309.832 179.104L307.944 179.728L309.128 181.296L308.072 182.08L306.888 180.432L305.768 182.08L304.696 181.296L305.88 179.728L304.024 179.104L304.456 177.872L306.264 178.576V176.576H307.544V178.576Z" fill="#DB0002"/>
<mask id="path-2-inside-1_81743_9948" fill="white">
<path d="M120 222H480V282H120V222Z"/>
</mask>
<path d="M120 222H480V282H120V222Z" fill="black" fill-opacity="0.04"/>
<path d="M480 282V281H120V282V283H480V282Z" fill="black" fill-opacity="0.2" mask="url(#path-2-inside-1_81743_9948)"/>
<path d="M137.248 246.576H144.752V247.856H138.768V251.488H144.016V252.768H138.768V258H137.248V246.576ZM147.852 248.24H146.491V246.576H147.852V248.24ZM146.491 249.728H147.852V258H146.491V249.728ZM150.11 249.728H151.39V251.472H151.422C151.753 250.8 152.158 250.304 152.638 249.984C153.118 249.664 153.726 249.515 154.462 249.536V250.976C153.918 250.976 153.454 251.051 153.07 251.2C152.686 251.349 152.377 251.568 152.142 251.856C151.908 252.144 151.737 252.496 151.63 252.912C151.524 253.317 151.47 253.787 151.47 254.32V258H150.11V249.728ZM156.519 255.392C156.529 255.691 156.599 255.947 156.727 256.16C156.855 256.363 157.02 256.528 157.223 256.656C157.436 256.773 157.671 256.859 157.927 256.912C158.193 256.965 158.465 256.992 158.743 256.992C158.956 256.992 159.18 256.976 159.415 256.944C159.649 256.912 159.863 256.853 160.055 256.768C160.257 256.683 160.423 256.56 160.551 256.4C160.679 256.229 160.743 256.016 160.743 255.76C160.743 255.408 160.609 255.141 160.343 254.96C160.076 254.779 159.74 254.635 159.335 254.528C158.94 254.411 158.508 254.309 158.039 254.224C157.569 254.128 157.132 254 156.727 253.84C156.332 253.669 156.001 253.435 155.735 253.136C155.468 252.837 155.335 252.421 155.335 251.888C155.335 251.472 155.425 251.115 155.607 250.816C155.799 250.517 156.039 250.277 156.327 250.096C156.625 249.904 156.956 249.765 157.319 249.68C157.692 249.584 158.06 249.536 158.423 249.536C158.892 249.536 159.324 249.579 159.719 249.664C160.113 249.739 160.46 249.877 160.759 250.08C161.068 250.272 161.313 250.539 161.495 250.88C161.676 251.211 161.783 251.627 161.815 252.128H160.455C160.433 251.861 160.364 251.643 160.247 251.472C160.129 251.291 159.98 251.147 159.799 251.04C159.617 250.933 159.415 250.859 159.191 250.816C158.977 250.763 158.759 250.736 158.535 250.736C158.332 250.736 158.124 250.752 157.911 250.784C157.708 250.816 157.521 250.875 157.351 250.96C157.18 251.035 157.041 251.141 156.935 251.28C156.828 251.408 156.775 251.579 156.775 251.792C156.775 252.027 156.855 252.224 157.015 252.384C157.185 252.533 157.399 252.661 157.655 252.768C157.911 252.864 158.199 252.949 158.519 253.024C158.839 253.088 159.159 253.157 159.479 253.232C159.82 253.307 160.151 253.397 160.471 253.504C160.801 253.611 161.089 253.755 161.335 253.936C161.591 254.107 161.793 254.325 161.943 254.592C162.103 254.859 162.183 255.189 162.183 255.584C162.183 256.085 162.076 256.501 161.863 256.832C161.66 257.163 161.388 257.429 161.047 257.632C160.716 257.835 160.337 257.973 159.911 258.048C159.495 258.133 159.079 258.176 158.663 258.176C158.204 258.176 157.767 258.128 157.351 258.032C156.935 257.936 156.567 257.781 156.247 257.568C155.927 257.344 155.671 257.056 155.479 256.704C155.287 256.341 155.18 255.904 155.159 255.392H156.519ZM165.774 249.728H167.422V250.928H165.774V256.064C165.774 256.224 165.785 256.352 165.806 256.448C165.838 256.544 165.892 256.619 165.966 256.672C166.041 256.725 166.142 256.763 166.27 256.784C166.409 256.795 166.585 256.8 166.798 256.8H167.422V258H166.382C166.03 258 165.726 257.979 165.47 257.936C165.225 257.883 165.022 257.792 164.862 257.664C164.713 257.536 164.601 257.355 164.526 257.12C164.452 256.885 164.414 256.576 164.414 256.192V250.928H163.006V249.728H164.414V247.248H165.774V249.728ZM173.787 249.728H175.067V251.04H175.099C175.664 250.037 176.56 249.536 177.787 249.536C178.331 249.536 178.784 249.611 179.147 249.76C179.509 249.909 179.803 250.117 180.027 250.384C180.251 250.651 180.405 250.971 180.491 251.344C180.587 251.707 180.635 252.112 180.635 252.56V258H179.275V252.4C179.275 251.888 179.125 251.483 178.827 251.184C178.528 250.885 178.117 250.736 177.595 250.736C177.179 250.736 176.816 250.8 176.507 250.928C176.208 251.056 175.957 251.237 175.755 251.472C175.552 251.707 175.397 251.984 175.291 252.304C175.195 252.613 175.147 252.955 175.147 253.328V258H173.787V249.728ZM190.205 257.968C189.97 258.107 189.645 258.176 189.229 258.176C188.877 258.176 188.594 258.08 188.381 257.888C188.178 257.685 188.077 257.36 188.077 256.912C187.704 257.36 187.266 257.685 186.765 257.888C186.274 258.08 185.741 258.176 185.165 258.176C184.792 258.176 184.434 258.133 184.093 258.048C183.762 257.963 183.474 257.829 183.229 257.648C182.984 257.467 182.786 257.232 182.637 256.944C182.498 256.645 182.429 256.288 182.429 255.872C182.429 255.403 182.509 255.019 182.669 254.72C182.829 254.421 183.037 254.181 183.293 254C183.56 253.808 183.858 253.664 184.189 253.568C184.53 253.472 184.877 253.392 185.229 253.328C185.602 253.253 185.954 253.2 186.285 253.168C186.626 253.125 186.925 253.072 187.181 253.008C187.437 252.933 187.64 252.832 187.789 252.704C187.938 252.565 188.013 252.368 188.013 252.112C188.013 251.813 187.954 251.573 187.837 251.392C187.73 251.211 187.586 251.072 187.405 250.976C187.234 250.88 187.037 250.816 186.813 250.784C186.6 250.752 186.386 250.736 186.173 250.736C185.597 250.736 185.117 250.848 184.733 251.072C184.349 251.285 184.141 251.696 184.109 252.304H182.749C182.77 251.792 182.877 251.36 183.069 251.008C183.261 250.656 183.517 250.373 183.837 250.16C184.157 249.936 184.52 249.776 184.925 249.68C185.341 249.584 185.784 249.536 186.253 249.536C186.626 249.536 186.994 249.563 187.357 249.616C187.73 249.669 188.066 249.781 188.365 249.952C188.664 250.112 188.904 250.341 189.085 250.64C189.266 250.939 189.357 251.328 189.357 251.808V256.064C189.357 256.384 189.373 256.619 189.405 256.768C189.448 256.917 189.576 256.992 189.789 256.992C189.906 256.992 190.045 256.965 190.205 256.912V257.968ZM187.997 253.728C187.826 253.856 187.602 253.952 187.325 254.016C187.048 254.069 186.754 254.117 186.445 254.16C186.146 254.192 185.842 254.235 185.533 254.288C185.224 254.331 184.946 254.405 184.701 254.512C184.456 254.619 184.253 254.773 184.093 254.976C183.944 255.168 183.869 255.435 183.869 255.776C183.869 256 183.912 256.192 183.997 256.352C184.093 256.501 184.21 256.624 184.349 256.72C184.498 256.816 184.669 256.885 184.861 256.928C185.053 256.971 185.256 256.992 185.469 256.992C185.917 256.992 186.301 256.933 186.621 256.816C186.941 256.688 187.202 256.533 187.405 256.352C187.608 256.16 187.757 255.957 187.853 255.744C187.949 255.52 187.997 255.312 187.997 255.12V253.728ZM191.671 249.728H192.951V250.944H192.983C193.602 250.005 194.492 249.536 195.655 249.536C196.167 249.536 196.631 249.643 197.047 249.856C197.463 250.069 197.756 250.432 197.927 250.944C198.204 250.496 198.567 250.149 199.015 249.904C199.474 249.659 199.975 249.536 200.519 249.536C200.935 249.536 201.308 249.584 201.639 249.68C201.98 249.765 202.268 249.904 202.503 250.096C202.748 250.288 202.935 250.539 203.063 250.848C203.202 251.147 203.271 251.509 203.271 251.936V258H201.911V252.576C201.911 252.32 201.89 252.08 201.847 251.856C201.804 251.632 201.724 251.44 201.607 251.28C201.49 251.109 201.324 250.976 201.111 250.88C200.908 250.784 200.642 250.736 200.311 250.736C199.639 250.736 199.111 250.928 198.727 251.312C198.343 251.696 198.151 252.208 198.151 252.848V258H196.791V252.576C196.791 252.309 196.764 252.064 196.711 251.84C196.668 251.616 196.588 251.424 196.471 251.264C196.354 251.093 196.194 250.965 195.991 250.88C195.799 250.784 195.548 250.736 195.239 250.736C194.844 250.736 194.503 250.816 194.215 250.976C193.938 251.136 193.708 251.328 193.527 251.552C193.356 251.776 193.228 252.011 193.143 252.256C193.068 252.491 193.031 252.688 193.031 252.848V258H191.671V249.728ZM211.256 253.072C211.234 252.752 211.16 252.448 211.032 252.16C210.914 251.872 210.749 251.627 210.536 251.424C210.333 251.211 210.088 251.045 209.8 250.928C209.522 250.8 209.213 250.736 208.872 250.736C208.52 250.736 208.2 250.8 207.912 250.928C207.634 251.045 207.394 251.211 207.192 251.424C206.989 251.637 206.829 251.888 206.712 252.176C206.594 252.453 206.525 252.752 206.504 253.072H211.256ZM212.568 255.376C212.386 256.304 211.986 257.003 211.368 257.472C210.749 257.941 209.97 258.176 209.032 258.176C208.37 258.176 207.794 258.069 207.304 257.856C206.824 257.643 206.418 257.344 206.088 256.96C205.757 256.576 205.506 256.117 205.336 255.584C205.176 255.051 205.085 254.469 205.064 253.84C205.064 253.211 205.16 252.635 205.352 252.112C205.544 251.589 205.81 251.136 206.152 250.752C206.504 250.368 206.914 250.069 207.384 249.856C207.864 249.643 208.386 249.536 208.952 249.536C209.688 249.536 210.296 249.691 210.776 250C211.266 250.299 211.656 250.683 211.944 251.152C212.242 251.621 212.445 252.133 212.552 252.688C212.669 253.243 212.717 253.771 212.696 254.272H206.504C206.493 254.635 206.536 254.981 206.632 255.312C206.728 255.632 206.882 255.92 207.096 256.176C207.309 256.421 207.581 256.619 207.912 256.768C208.242 256.917 208.632 256.992 209.08 256.992C209.656 256.992 210.125 256.859 210.488 256.592C210.861 256.325 211.106 255.92 211.224 255.376H212.568Z" fill="black" fill-opacity="0.68"/>
<mask id="path-5-inside-2_81743_9948" fill="white">
<path d="M120 298H480V358H120V298Z"/>
</mask>
<path d="M120 298H480V358H120V298Z" fill="black" fill-opacity="0.04"/>
<path d="M480 358V357H120V358V359H480V358Z" fill="black" fill-opacity="0.2" mask="url(#path-5-inside-2_81743_9948)"/>
<path d="M137.248 322.576H138.768V332.72H144.816V334H137.248V322.576ZM153.443 333.968C153.208 334.107 152.883 334.176 152.467 334.176C152.115 334.176 151.832 334.08 151.619 333.888C151.416 333.685 151.315 333.36 151.315 332.912C150.941 333.36 150.504 333.685 150.003 333.888C149.512 334.08 148.979 334.176 148.403 334.176C148.029 334.176 147.672 334.133 147.331 334.048C147 333.963 146.712 333.829 146.467 333.648C146.221 333.467 146.024 333.232 145.875 332.944C145.736 332.645 145.667 332.288 145.667 331.872C145.667 331.403 145.747 331.019 145.907 330.72C146.067 330.421 146.275 330.181 146.531 330C146.797 329.808 147.096 329.664 147.427 329.568C147.768 329.472 148.115 329.392 148.467 329.328C148.84 329.253 149.192 329.2 149.523 329.168C149.864 329.125 150.163 329.072 150.419 329.008C150.675 328.933 150.877 328.832 151.027 328.704C151.176 328.565 151.251 328.368 151.251 328.112C151.251 327.813 151.192 327.573 151.075 327.392C150.968 327.211 150.824 327.072 150.643 326.976C150.472 326.88 150.275 326.816 150.051 326.784C149.837 326.752 149.624 326.736 149.411 326.736C148.835 326.736 148.355 326.848 147.971 327.072C147.587 327.285 147.379 327.696 147.347 328.304H145.987C146.008 327.792 146.115 327.36 146.307 327.008C146.499 326.656 146.755 326.373 147.075 326.16C147.395 325.936 147.757 325.776 148.163 325.68C148.579 325.584 149.021 325.536 149.491 325.536C149.864 325.536 150.232 325.563 150.595 325.616C150.968 325.669 151.304 325.781 151.603 325.952C151.901 326.112 152.141 326.341 152.323 326.64C152.504 326.939 152.595 327.328 152.595 327.808V332.064C152.595 332.384 152.611 332.619 152.643 332.768C152.685 332.917 152.813 332.992 153.027 332.992C153.144 332.992 153.283 332.965 153.443 332.912V333.968ZM151.235 329.728C151.064 329.856 150.84 329.952 150.563 330.016C150.285 330.069 149.992 330.117 149.683 330.16C149.384 330.192 149.08 330.235 148.771 330.288C148.461 330.331 148.184 330.405 147.939 330.512C147.693 330.619 147.491 330.773 147.331 330.976C147.181 331.168 147.107 331.435 147.107 331.776C147.107 332 147.149 332.192 147.235 332.352C147.331 332.501 147.448 332.624 147.587 332.72C147.736 332.816 147.907 332.885 148.099 332.928C148.291 332.971 148.493 332.992 148.707 332.992C149.155 332.992 149.539 332.933 149.859 332.816C150.179 332.688 150.44 332.533 150.643 332.352C150.845 332.16 150.995 331.957 151.091 331.744C151.187 331.52 151.235 331.312 151.235 331.12V329.728ZM155.74 331.392C155.751 331.691 155.82 331.947 155.948 332.16C156.076 332.363 156.242 332.528 156.444 332.656C156.658 332.773 156.892 332.859 157.148 332.912C157.415 332.965 157.687 332.992 157.964 332.992C158.178 332.992 158.402 332.976 158.636 332.944C158.871 332.912 159.084 332.853 159.276 332.768C159.479 332.683 159.644 332.56 159.772 332.4C159.9 332.229 159.964 332.016 159.964 331.76C159.964 331.408 159.831 331.141 159.564 330.96C159.298 330.779 158.962 330.635 158.556 330.528C158.162 330.411 157.73 330.309 157.26 330.224C156.791 330.128 156.354 330 155.948 329.84C155.554 329.669 155.223 329.435 154.956 329.136C154.69 328.837 154.556 328.421 154.556 327.888C154.556 327.472 154.647 327.115 154.828 326.816C155.02 326.517 155.26 326.277 155.548 326.096C155.847 325.904 156.178 325.765 156.54 325.68C156.914 325.584 157.282 325.536 157.644 325.536C158.114 325.536 158.546 325.579 158.94 325.664C159.335 325.739 159.682 325.877 159.98 326.08C160.29 326.272 160.535 326.539 160.716 326.88C160.898 327.211 161.004 327.627 161.036 328.128H159.676C159.655 327.861 159.586 327.643 159.468 327.472C159.351 327.291 159.202 327.147 159.02 327.04C158.839 326.933 158.636 326.859 158.412 326.816C158.199 326.763 157.98 326.736 157.756 326.736C157.554 326.736 157.346 326.752 157.132 326.784C156.93 326.816 156.743 326.875 156.572 326.96C156.402 327.035 156.263 327.141 156.156 327.28C156.05 327.408 155.996 327.579 155.996 327.792C155.996 328.027 156.076 328.224 156.236 328.384C156.407 328.533 156.62 328.661 156.876 328.768C157.132 328.864 157.42 328.949 157.74 329.024C158.06 329.088 158.38 329.157 158.7 329.232C159.042 329.307 159.372 329.397 159.692 329.504C160.023 329.611 160.311 329.755 160.556 329.936C160.812 330.107 161.015 330.325 161.164 330.592C161.324 330.859 161.404 331.189 161.404 331.584C161.404 332.085 161.298 332.501 161.084 332.832C160.882 333.163 160.61 333.429 160.268 333.632C159.938 333.835 159.559 333.973 159.132 334.048C158.716 334.133 158.3 334.176 157.884 334.176C157.426 334.176 156.988 334.128 156.572 334.032C156.156 333.936 155.788 333.781 155.468 333.568C155.148 333.344 154.892 333.056 154.7 332.704C154.508 332.341 154.402 331.904 154.38 331.392H155.74ZM164.996 325.728H166.644V326.928H164.996V332.064C164.996 332.224 165.007 332.352 165.028 332.448C165.06 332.544 165.114 332.619 165.188 332.672C165.263 332.725 165.364 332.763 165.492 332.784C165.631 332.795 165.807 332.8 166.02 332.8H166.644V334H165.604C165.252 334 164.948 333.979 164.692 333.936C164.447 333.883 164.244 333.792 164.084 333.664C163.935 333.536 163.823 333.355 163.748 333.12C163.674 332.885 163.636 332.576 163.636 332.192V326.928H162.228V325.728H163.636V323.248H164.996V325.728ZM173.008 325.728H174.288V327.04H174.32C174.886 326.037 175.782 325.536 177.008 325.536C177.552 325.536 178.006 325.611 178.368 325.76C178.731 325.909 179.024 326.117 179.248 326.384C179.472 326.651 179.627 326.971 179.712 327.344C179.808 327.707 179.856 328.112 179.856 328.56V334H178.496V328.4C178.496 327.888 178.347 327.483 178.048 327.184C177.75 326.885 177.339 326.736 176.816 326.736C176.4 326.736 176.038 326.8 175.728 326.928C175.43 327.056 175.179 327.237 174.976 327.472C174.774 327.707 174.619 327.984 174.512 328.304C174.416 328.613 174.368 328.955 174.368 329.328V334H173.008V325.728ZM189.427 333.968C189.192 334.107 188.867 334.176 188.451 334.176C188.099 334.176 187.816 334.08 187.603 333.888C187.4 333.685 187.299 333.36 187.299 332.912C186.926 333.36 186.488 333.685 185.987 333.888C185.496 334.08 184.963 334.176 184.387 334.176C184.014 334.176 183.656 334.133 183.315 334.048C182.984 333.963 182.696 333.829 182.451 333.648C182.206 333.467 182.008 333.232 181.859 332.944C181.72 332.645 181.651 332.288 181.651 331.872C181.651 331.403 181.731 331.019 181.891 330.72C182.051 330.421 182.259 330.181 182.515 330C182.782 329.808 183.08 329.664 183.411 329.568C183.752 329.472 184.099 329.392 184.451 329.328C184.824 329.253 185.176 329.2 185.507 329.168C185.848 329.125 186.147 329.072 186.403 329.008C186.659 328.933 186.862 328.832 187.011 328.704C187.16 328.565 187.235 328.368 187.235 328.112C187.235 327.813 187.176 327.573 187.059 327.392C186.952 327.211 186.808 327.072 186.627 326.976C186.456 326.88 186.259 326.816 186.035 326.784C185.822 326.752 185.608 326.736 185.395 326.736C184.819 326.736 184.339 326.848 183.955 327.072C183.571 327.285 183.363 327.696 183.331 328.304H181.971C181.992 327.792 182.099 327.36 182.291 327.008C182.483 326.656 182.739 326.373 183.059 326.16C183.379 325.936 183.742 325.776 184.147 325.68C184.563 325.584 185.006 325.536 185.475 325.536C185.848 325.536 186.216 325.563 186.579 325.616C186.952 325.669 187.288 325.781 187.587 325.952C187.886 326.112 188.126 326.341 188.307 326.64C188.488 326.939 188.579 327.328 188.579 327.808V332.064C188.579 332.384 188.595 332.619 188.627 332.768C188.67 332.917 188.798 332.992 189.011 332.992C189.128 332.992 189.267 332.965 189.427 332.912V333.968ZM187.219 329.728C187.048 329.856 186.824 329.952 186.547 330.016C186.27 330.069 185.976 330.117 185.667 330.16C185.368 330.192 185.064 330.235 184.755 330.288C184.446 330.331 184.168 330.405 183.923 330.512C183.678 330.619 183.475 330.773 183.315 330.976C183.166 331.168 183.091 331.435 183.091 331.776C183.091 332 183.134 332.192 183.219 332.352C183.315 332.501 183.432 332.624 183.571 332.72C183.72 332.816 183.891 332.885 184.083 332.928C184.275 332.971 184.478 332.992 184.691 332.992C185.139 332.992 185.523 332.933 185.843 332.816C186.163 332.688 186.424 332.533 186.627 332.352C186.83 332.16 186.979 331.957 187.075 331.744C187.171 331.52 187.219 331.312 187.219 331.12V329.728ZM190.893 325.728H192.173V326.944H192.205C192.823 326.005 193.714 325.536 194.877 325.536C195.389 325.536 195.853 325.643 196.269 325.856C196.685 326.069 196.978 326.432 197.149 326.944C197.426 326.496 197.789 326.149 198.237 325.904C198.695 325.659 199.197 325.536 199.741 325.536C200.157 325.536 200.53 325.584 200.861 325.68C201.202 325.765 201.49 325.904 201.725 326.096C201.97 326.288 202.157 326.539 202.285 326.848C202.423 327.147 202.493 327.509 202.493 327.936V334H201.133V328.576C201.133 328.32 201.111 328.08 201.069 327.856C201.026 327.632 200.946 327.44 200.829 327.28C200.711 327.109 200.546 326.976 200.333 326.88C200.13 326.784 199.863 326.736 199.533 326.736C198.861 326.736 198.333 326.928 197.949 327.312C197.565 327.696 197.373 328.208 197.373 328.848V334H196.013V328.576C196.013 328.309 195.986 328.064 195.933 327.84C195.89 327.616 195.81 327.424 195.693 327.264C195.575 327.093 195.415 326.965 195.213 326.88C195.021 326.784 194.77 326.736 194.461 326.736C194.066 326.736 193.725 326.816 193.437 326.976C193.159 327.136 192.93 327.328 192.749 327.552C192.578 327.776 192.45 328.011 192.365 328.256C192.29 328.491 192.253 328.688 192.253 328.848V334H190.893V325.728ZM210.477 329.072C210.456 328.752 210.381 328.448 210.253 328.16C210.136 327.872 209.971 327.627 209.757 327.424C209.555 327.211 209.309 327.045 209.021 326.928C208.744 326.8 208.435 326.736 208.093 326.736C207.741 326.736 207.421 326.8 207.133 326.928C206.856 327.045 206.616 327.211 206.413 327.424C206.211 327.637 206.051 327.888 205.933 328.176C205.816 328.453 205.747 328.752 205.725 329.072H210.477ZM211.789 331.376C211.608 332.304 211.208 333.003 210.589 333.472C209.971 333.941 209.192 334.176 208.253 334.176C207.592 334.176 207.016 334.069 206.525 333.856C206.045 333.643 205.64 333.344 205.309 332.96C204.979 332.576 204.728 332.117 204.557 331.584C204.397 331.051 204.307 330.469 204.285 329.84C204.285 329.211 204.381 328.635 204.573 328.112C204.765 327.589 205.032 327.136 205.373 326.752C205.725 326.368 206.136 326.069 206.605 325.856C207.085 325.643 207.608 325.536 208.173 325.536C208.909 325.536 209.517 325.691 209.997 326C210.488 326.299 210.877 326.683 211.165 327.152C211.464 327.621 211.667 328.133 211.773 328.688C211.891 329.243 211.939 329.771 211.917 330.272H205.725C205.715 330.635 205.757 330.981 205.853 331.312C205.949 331.632 206.104 331.92 206.317 332.176C206.531 332.421 206.803 332.619 207.133 332.768C207.464 332.917 207.853 332.992 208.301 332.992C208.877 332.992 209.347 332.859 209.709 332.592C210.083 332.325 210.328 331.92 210.445 331.376H211.789Z" fill="black" fill-opacity="0.68"/>
<path d="M221.028 324.576L222.884 323.872L223.316 325.104L221.428 325.728L222.612 327.296L221.556 328.08L220.372 326.432L219.252 328.08L218.18 327.296L219.364 325.728L217.508 325.104L217.94 323.872L219.748 324.576V322.576H221.028V324.576Z" fill="#DB0002"/>
<mask id="path-8-inside-3_81743_9948" fill="white">
<path d="M120 374H480V434H120V374Z"/>
</mask>
<path d="M120 374H480V434H120V374Z" fill="black" fill-opacity="0.04"/>
<path d="M480 434V433H120V434V435H480V434Z" fill="black" fill-opacity="0.2" mask="url(#path-8-inside-3_81743_9948)"/>
<g clip-path="url(#clip0_81743_9948)">
<path d="M136 394H162.8V414H136" fill="#BD3D44"/>
<path d="M136 396.304H162.8H136ZM136 399.375H162.8H136ZM136 402.458H162.8H136ZM136 405.542H162.8H136ZM136 408.625H162.8H136ZM136 411.708H162.8H136Z" fill="black"/>
<path d="M162.8 410.938V412.479H136V410.938H162.8ZM162.8 407.854V409.396H136V407.854H162.8ZM162.8 404.771V406.313H136V404.771H162.8ZM162.8 401.688V403.229H136V401.688H162.8ZM162.8 398.604V400.146H136V398.604H162.8ZM162.8 395.533V397.075H136V395.533H162.8Z" fill="white"/>
<path d="M136 394H151.276V404.771L136 404.771" fill="#192F5D"/>
<path d="M137.256 394.458L137.117 394.875H136.67L137.028 395.139L136.879 395.583L137.256 395.306L137.633 395.583L137.484 395.139L137.843 394.875H137.396L137.256 394.458Z" fill="white"/>
<path d="M139.811 394.458L139.671 394.875H139.224L139.583 395.139L139.434 395.583L139.811 395.306L140.188 395.583L140.038 395.139L140.397 394.875H139.95L139.811 394.458Z" fill="white"/>
<path d="M142.365 394.458L142.226 394.875H141.779L142.137 395.139L141.988 395.583L142.365 395.306L142.742 395.583L142.593 395.139L142.951 394.875H142.504L142.365 394.458Z" fill="white"/>
<path d="M144.919 394.458L144.78 394.875H144.333L144.692 395.139L144.543 395.583L144.919 395.306L145.296 395.583L145.147 395.139L145.506 394.875H145.059L144.919 394.458Z" fill="white"/>
<path d="M147.474 394.458L147.334 394.875H146.887L147.246 395.139L147.097 395.583L147.474 395.306L147.851 395.583L147.702 395.139L148.06 394.875H147.613L147.474 394.458Z" fill="white"/>
<path d="M149.758 395.139L149.609 395.583L149.986 395.306L150.363 395.583L150.214 395.139L150.573 394.875H150.126L149.986 394.458L149.847 394.875H149.4L149.758 395.139Z" fill="white"/>
<path d="M138.554 395.542L138.415 395.958H137.968L138.327 396.222L138.178 396.667L138.554 396.39L138.931 396.667L138.782 396.222L139.141 395.958H138.694L138.554 395.542Z" fill="white"/>
<path d="M141.109 395.542L140.969 395.958H140.523L140.881 396.222L140.732 396.667L141.109 396.39L141.486 396.667L141.337 396.222L141.695 395.958H141.248L141.109 395.542Z" fill="white"/>
<path d="M143.663 395.542L143.524 395.958H143.077L143.435 396.222L143.286 396.667L143.663 396.39L144.04 396.667L143.891 396.222L144.249 395.958H143.803L143.663 395.542Z" fill="white"/>
<path d="M146.176 395.542L146.036 395.958H145.589L145.948 396.222L145.799 396.667L146.176 396.39L146.553 396.667L146.403 396.222L146.762 395.958H146.315L146.176 395.542Z" fill="white"/>
<path d="M148.73 395.542L148.591 395.958H148.144L148.502 396.222L148.353 396.667L148.73 396.39L149.107 396.667L148.958 396.222L149.316 395.958H148.869L148.73 395.542Z" fill="white"/>
<path d="M137.256 396.625L137.117 397.042H136.67L137.028 397.305L136.879 397.75L137.256 397.473L137.633 397.75L137.484 397.305L137.843 397.042H137.396L137.256 396.625Z" fill="white"/>
<path d="M139.811 396.625L139.671 397.042H139.224L139.583 397.305L139.434 397.75L139.811 397.473L140.188 397.75L140.038 397.305L140.397 397.042H139.95L139.811 396.625Z" fill="white"/>
<path d="M142.365 396.625L142.226 397.042H141.779L142.137 397.305L141.988 397.75L142.365 397.473L142.742 397.75L142.593 397.305L142.951 397.042H142.504L142.365 396.625Z" fill="white"/>
<path d="M144.919 396.625L144.78 397.042H144.333L144.692 397.305L144.543 397.75L144.919 397.473L145.296 397.75L145.147 397.305L145.506 397.042H145.059L144.919 396.625Z" fill="white"/>
<path d="M147.474 396.625L147.334 397.042H146.887L147.246 397.305L147.097 397.75L147.474 397.473L147.851 397.75L147.702 397.305L148.06 397.042H147.613L147.474 396.625Z" fill="white"/>
<path d="M149.986 396.625L149.847 397.042H149.4L149.758 397.305L149.609 397.75L149.986 397.473L150.363 397.75L150.214 397.305L150.573 397.042H150.126L149.986 396.625Z" fill="white"/>
<path d="M138.554 397.708L138.415 398.125H137.968L138.327 398.389L138.178 398.833L138.554 398.556L138.931 398.833L138.782 398.389L139.141 398.125H138.694L138.554 397.708Z" fill="white"/>
<path d="M141.109 397.708L140.969 398.125H140.523L140.881 398.389L140.732 398.833L141.109 398.556L141.486 398.833L141.337 398.389L141.695 398.125H141.248L141.109 397.708Z" fill="white"/>
<path d="M143.663 397.708L143.524 398.125H143.077L143.435 398.389L143.286 398.833L143.663 398.556L144.04 398.833L143.891 398.389L144.249 398.125H143.803L143.663 397.708Z" fill="white"/>
<path d="M146.176 397.708L146.036 398.125H145.589L145.948 398.389L145.799 398.833L146.176 398.556L146.553 398.833L146.403 398.389L146.762 398.125H146.315L146.176 397.708Z" fill="white"/>
<path d="M148.73 397.708L148.591 398.125H148.144L148.502 398.389L148.353 398.833L148.73 398.556L149.107 398.833L148.958 398.389L149.316 398.125H148.869L148.73 397.708Z" fill="white"/>
<path d="M137.256 398.792L137.117 399.208H136.67L137.028 399.472L136.879 399.917L137.256 399.64L137.633 399.917L137.484 399.472L137.843 399.208H137.396L137.256 398.792Z" fill="white"/>
<path d="M139.811 398.792L139.671 399.208H139.224L139.583 399.472L139.434 399.917L139.811 399.64L140.188 399.917L140.038 399.472L140.397 399.208H139.95L139.811 398.792Z" fill="white"/>
<path d="M142.365 398.792L142.226 399.208H141.779L142.137 399.472L141.988 399.917L142.365 399.64L142.742 399.917L142.593 399.472L142.951 399.208H142.504L142.365 398.792Z" fill="white"/>
<path d="M144.919 398.792L144.78 399.208H144.333L144.692 399.472L144.543 399.917L144.919 399.64L145.296 399.917L145.147 399.472L145.506 399.208H145.059L144.919 398.792Z" fill="white"/>
<path d="M147.474 398.792L147.334 399.208H146.887L147.246 399.472L147.097 399.917L147.474 399.64L147.851 399.917L147.702 399.472L148.06 399.208H147.613L147.474 398.792Z" fill="white"/>
<path d="M149.986 398.792L149.847 399.208H149.4L149.758 399.472L149.609 399.917L149.986 399.64L150.363 399.917L150.214 399.472L150.573 399.208H150.126L149.986 398.792Z" fill="white"/>
<path d="M138.554 399.875L138.415 400.292H137.968L138.327 400.555L138.178 401L138.554 400.723L138.931 401L138.782 400.555L139.141 400.292H138.694L138.554 399.875Z" fill="white"/>
<path d="M141.109 399.875L140.969 400.292H140.523L140.881 400.555L140.732 401L141.109 400.723L141.486 401L141.337 400.555L141.695 400.292H141.248L141.109 399.875Z" fill="white"/>
<path d="M143.663 399.875L143.524 400.292H143.077L143.435 400.555L143.286 401L143.663 400.723L144.04 401L143.891 400.555L144.249 400.292H143.803L143.663 399.875Z" fill="white"/>
<path d="M146.176 399.875L146.036 400.292H145.589L145.948 400.555L145.799 401L146.176 400.723L146.553 401L146.403 400.555L146.762 400.292H146.315L146.176 399.875Z" fill="white"/>
<path d="M148.73 399.875L148.591 400.292H148.144L148.502 400.555L148.353 401L148.73 400.723L149.107 401L148.958 400.555L149.316 400.292H148.869L148.73 399.875Z" fill="white"/>
<path d="M137.256 400.917L137.117 401.333H136.67L137.028 401.597L136.879 402.042L137.256 401.765L137.633 402.042L137.484 401.597L137.843 401.333H137.396L137.256 400.917Z" fill="white"/>
<path d="M139.811 400.917L139.671 401.333H139.224L139.583 401.597L139.434 402.042L139.811 401.765L140.188 402.042L140.038 401.597L140.397 401.333H139.95L139.811 400.917Z" fill="white"/>
<path d="M142.365 400.917L142.226 401.333H141.779L142.137 401.597L141.988 402.042L142.365 401.765L142.742 402.042L142.593 401.597L142.951 401.333H142.504L142.365 400.917Z" fill="white"/>
<path d="M144.919 400.917L144.78 401.333H144.333L144.692 401.597L144.543 402.042L144.919 401.765L145.296 402.042L145.147 401.597L145.506 401.333H145.059L144.919 400.917Z" fill="white"/>
<path d="M147.474 400.917L147.334 401.333H146.887L147.246 401.597L147.097 402.042L147.474 401.765L147.851 402.042L147.702 401.597L148.06 401.333H147.613L147.474 400.917Z" fill="white"/>
<path d="M149.986 400.917L149.847 401.333H149.4L149.758 401.597L149.609 402.042L149.986 401.765L150.363 402.042L150.214 401.597L150.573 401.333H150.126L149.986 400.917Z" fill="white"/>
<path d="M138.694 402.417L138.554 402L138.415 402.417H137.968L138.327 402.68L138.178 403.125L138.554 402.848L138.931 403.125L138.782 402.68L139.141 402.417H138.694Z" fill="white"/>
<path d="M141.248 402.417L141.109 402L140.969 402.417H140.523L140.881 402.68L140.732 403.125L141.109 402.848L141.486 403.125L141.337 402.68L141.695 402.417H141.248Z" fill="white"/>
<path d="M143.803 402.417L143.663 402L143.524 402.417H143.077L143.435 402.68L143.286 403.125L143.663 402.848L144.04 403.125L143.891 402.68L144.249 402.417H143.803Z" fill="white"/>
<path d="M146.315 402.417L146.176 402L146.036 402.417H145.589L145.948 402.68L145.799 403.125L146.176 402.848L146.553 403.125L146.403 402.68L146.762 402.417H146.315Z" fill="white"/>
<path d="M148.869 402.417L148.73 402L148.591 402.417H148.144L148.502 402.68L148.353 403.125L148.73 402.848L149.107 403.125L148.958 402.68L149.316 402.417H148.869Z" fill="white"/>
<path d="M137.396 403.5L137.256 403.083L137.117 403.5H136.67L137.028 403.764L136.879 404.208L137.256 403.931L137.633 404.208L137.484 403.764L137.843 403.5H137.396Z" fill="white"/>
<path d="M139.95 403.5L139.811 403.083L139.671 403.5H139.224L139.583 403.764L139.434 404.208L139.811 403.931L140.188 404.208L140.038 403.764L140.397 403.5H139.95Z" fill="white"/>
<path d="M142.504 403.5L142.365 403.083L142.226 403.5H141.779L142.137 403.764L141.988 404.208L142.365 403.931L142.742 404.208L142.593 403.764L142.951 403.5H142.504Z" fill="white"/>
<path d="M145.059 403.5L144.919 403.083L144.78 403.5H144.333L144.692 403.764L144.543 404.208L144.919 403.931L145.296 404.208L145.147 403.764L145.506 403.5H145.059Z" fill="white"/>
<path d="M147.613 403.5L147.474 403.083L147.334 403.5H146.887L147.246 403.764L147.097 404.208L147.474 403.931L147.851 404.208L147.702 403.764L148.06 403.5H147.613Z" fill="white"/>
<path d="M150.126 403.5L149.986 403.083L149.847 403.5H149.4L149.758 403.764L149.609 404.208L149.986 403.931L150.363 404.208L150.214 403.764L150.573 403.5H150.126Z" fill="white"/>
</g>
<path d="M170.862 402.314L176.799 408.375L182.737 402.314L181.041 400.582L176.799 404.912L172.559 400.582L170.862 402.314Z" fill="black"/>
<line y1="-0.5" x2="20" y2="-0.5" transform="matrix(0 -1 -1 0 194 414)" stroke="black" stroke-opacity="0.2"/>
<path d="M209.568 404.048H212.544C213.408 404.059 214.037 403.883 214.432 403.52C214.837 403.157 215.04 402.635 215.04 401.952C215.04 401.269 214.837 400.752 214.432 400.4C214.037 400.037 213.408 399.856 212.544 399.856H209.568V404.048ZM208.048 398.576H213.056C214.208 398.576 215.077 398.875 215.664 399.472C216.261 400.059 216.56 400.885 216.56 401.952C216.56 403.019 216.261 403.851 215.664 404.448C215.077 405.045 214.208 405.339 213.056 405.328H209.568V410H208.048V398.576ZM218.399 398.576H219.759V402.944H219.791C219.898 402.688 220.047 402.475 220.239 402.304C220.431 402.123 220.644 401.979 220.879 401.872C221.124 401.755 221.375 401.669 221.631 401.616C221.898 401.563 222.154 401.536 222.399 401.536C222.943 401.536 223.396 401.611 223.759 401.76C224.122 401.909 224.415 402.117 224.639 402.384C224.863 402.651 225.018 402.971 225.103 403.344C225.199 403.707 225.247 404.112 225.247 404.56V410H223.887V404.4C223.887 403.888 223.738 403.483 223.439 403.184C223.14 402.885 222.73 402.736 222.207 402.736C221.791 402.736 221.428 402.8 221.119 402.928C220.82 403.056 220.57 403.237 220.367 403.472C220.164 403.707 220.01 403.984 219.903 404.304C219.807 404.613 219.759 404.955 219.759 405.328V410H218.399V398.576ZM228.482 405.872C228.482 406.373 228.546 406.821 228.674 407.216C228.812 407.6 228.999 407.925 229.234 408.192C229.468 408.448 229.74 408.645 230.05 408.784C230.37 408.923 230.706 408.992 231.058 408.992C231.41 408.992 231.74 408.923 232.05 408.784C232.37 408.645 232.647 408.448 232.882 408.192C233.116 407.925 233.298 407.6 233.426 407.216C233.564 406.821 233.634 406.373 233.634 405.872C233.634 405.371 233.564 404.928 233.426 404.544C233.298 404.149 233.116 403.819 232.882 403.552C232.647 403.285 232.37 403.083 232.05 402.944C231.74 402.805 231.41 402.736 231.058 402.736C230.706 402.736 230.37 402.805 230.05 402.944C229.74 403.083 229.468 403.285 229.234 403.552C228.999 403.819 228.812 404.149 228.674 404.544C228.546 404.928 228.482 405.371 228.482 405.872ZM227.042 405.872C227.042 405.264 227.127 404.699 227.298 404.176C227.468 403.643 227.724 403.184 228.066 402.8C228.407 402.405 228.828 402.096 229.33 401.872C229.831 401.648 230.407 401.536 231.058 401.536C231.719 401.536 232.295 401.648 232.786 401.872C233.287 402.096 233.708 402.405 234.05 402.8C234.391 403.184 234.647 403.643 234.818 404.176C234.988 404.699 235.074 405.264 235.074 405.872C235.074 406.48 234.988 407.045 234.818 407.568C234.647 408.091 234.391 408.549 234.05 408.944C233.708 409.328 233.287 409.632 232.786 409.856C232.295 410.069 231.719 410.176 231.058 410.176C230.407 410.176 229.831 410.069 229.33 409.856C228.828 409.632 228.407 409.328 228.066 408.944C227.724 408.549 227.468 408.091 227.298 407.568C227.127 407.045 227.042 406.48 227.042 405.872ZM236.877 401.728H238.157V403.04H238.189C238.755 402.037 239.651 401.536 240.877 401.536C241.421 401.536 241.875 401.611 242.237 401.76C242.6 401.909 242.893 402.117 243.117 402.384C243.341 402.651 243.496 402.971 243.581 403.344C243.677 403.707 243.725 404.112 243.725 404.56V410H242.365V404.4C242.365 403.888 242.216 403.483 241.917 403.184C241.619 402.885 241.208 402.736 240.685 402.736C240.269 402.736 239.907 402.8 239.597 402.928C239.299 403.056 239.048 403.237 238.845 403.472C238.643 403.707 238.488 403.984 238.381 404.304C238.285 404.613 238.237 404.955 238.237 405.328V410H236.877V401.728ZM251.712 405.072C251.69 404.752 251.616 404.448 251.488 404.16C251.37 403.872 251.205 403.627 250.992 403.424C250.789 403.211 250.544 403.045 250.256 402.928C249.978 402.8 249.669 402.736 249.328 402.736C248.976 402.736 248.656 402.8 248.368 402.928C248.09 403.045 247.85 403.211 247.648 403.424C247.445 403.637 247.285 403.888 247.168 404.176C247.05 404.453 246.981 404.752 246.96 405.072H251.712ZM253.024 407.376C252.842 408.304 252.442 409.003 251.824 409.472C251.205 409.941 250.426 410.176 249.488 410.176C248.826 410.176 248.25 410.069 247.76 409.856C247.28 409.643 246.874 409.344 246.544 408.96C246.213 408.576 245.962 408.117 245.792 407.584C245.632 407.051 245.541 406.469 245.52 405.84C245.52 405.211 245.616 404.635 245.808 404.112C246 403.589 246.266 403.136 246.608 402.752C246.96 402.368 247.37 402.069 247.84 401.856C248.32 401.643 248.842 401.536 249.408 401.536C250.144 401.536 250.752 401.691 251.232 402C251.722 402.299 252.112 402.683 252.4 403.152C252.698 403.621 252.901 404.133 253.008 404.688C253.125 405.243 253.173 405.771 253.152 406.272H246.96C246.949 406.635 246.992 406.981 247.088 407.312C247.184 407.632 247.338 407.92 247.552 408.176C247.765 408.421 248.037 408.619 248.368 408.768C248.698 408.917 249.088 408.992 249.536 408.992C250.112 408.992 250.581 408.859 250.944 408.592C251.317 408.325 251.562 407.92 251.68 407.376H253.024ZM259.415 401.728H260.695V403.04H260.727C261.292 402.037 262.188 401.536 263.415 401.536C263.959 401.536 264.412 401.611 264.775 401.76C265.137 401.909 265.431 402.117 265.655 402.384C265.879 402.651 266.033 402.971 266.119 403.344C266.215 403.707 266.263 404.112 266.263 404.56V410H264.903V404.4C264.903 403.888 264.753 403.483 264.455 403.184C264.156 402.885 263.745 402.736 263.223 402.736C262.807 402.736 262.444 402.8 262.135 402.928C261.836 403.056 261.585 403.237 261.383 403.472C261.18 403.707 261.025 403.984 260.919 404.304C260.823 404.613 260.775 404.955 260.775 405.328V410H259.415V401.728ZM275.353 410H274.073V408.688H274.041C273.753 409.2 273.385 409.579 272.937 409.824C272.489 410.059 271.961 410.176 271.353 410.176C270.809 410.176 270.356 410.107 269.993 409.968C269.631 409.819 269.337 409.611 269.113 409.344C268.889 409.077 268.729 408.763 268.633 408.4C268.548 408.027 268.505 407.616 268.505 407.168V401.728H269.865V407.328C269.865 407.84 270.015 408.245 270.313 408.544C270.612 408.843 271.023 408.992 271.545 408.992C271.961 408.992 272.319 408.928 272.617 408.8C272.927 408.672 273.183 408.491 273.385 408.256C273.588 408.021 273.737 407.749 273.833 407.44C273.94 407.12 273.993 406.773 273.993 406.4V401.728H275.353V410ZM277.596 401.728H278.876V402.944H278.908C279.527 402.005 280.417 401.536 281.58 401.536C282.092 401.536 282.556 401.643 282.972 401.856C283.388 402.069 283.681 402.432 283.852 402.944C284.129 402.496 284.492 402.149 284.94 401.904C285.399 401.659 285.9 401.536 286.444 401.536C286.86 401.536 287.233 401.584 287.564 401.68C287.905 401.765 288.193 401.904 288.428 402.096C288.673 402.288 288.86 402.539 288.988 402.848C289.127 403.147 289.196 403.509 289.196 403.936V410H287.836V404.576C287.836 404.32 287.815 404.08 287.772 403.856C287.729 403.632 287.649 403.44 287.532 403.28C287.415 403.109 287.249 402.976 287.036 402.88C286.833 402.784 286.567 402.736 286.236 402.736C285.564 402.736 285.036 402.928 284.652 403.312C284.268 403.696 284.076 404.208 284.076 404.848V410H282.716V404.576C282.716 404.309 282.689 404.064 282.636 403.84C282.593 403.616 282.513 403.424 282.396 403.264C282.279 403.093 282.119 402.965 281.916 402.88C281.724 402.784 281.473 402.736 281.164 402.736C280.769 402.736 280.428 402.816 280.14 402.976C279.863 403.136 279.633 403.328 279.452 403.552C279.281 403.776 279.153 404.011 279.068 404.256C278.993 404.491 278.956 404.688 278.956 404.848V410H277.596V401.728ZM291.485 398.576H292.845V402.848H292.877C293.101 402.389 293.453 402.059 293.933 401.856C294.413 401.643 294.941 401.536 295.517 401.536C296.157 401.536 296.711 401.653 297.181 401.888C297.661 402.123 298.055 402.443 298.365 402.848C298.685 403.243 298.925 403.701 299.085 404.224C299.245 404.747 299.325 405.301 299.325 405.888C299.325 406.475 299.245 407.029 299.085 407.552C298.935 408.075 298.701 408.533 298.381 408.928C298.071 409.312 297.677 409.616 297.197 409.84C296.727 410.064 296.178 410.176 295.549 410.176C295.346 410.176 295.117 410.155 294.861 410.112C294.615 410.069 294.37 410 294.125 409.904C293.879 409.808 293.645 409.68 293.421 409.52C293.207 409.349 293.026 409.141 292.877 408.896H292.845V410H291.485V398.576ZM297.885 405.792C297.885 405.408 297.831 405.035 297.725 404.672C297.629 404.299 297.474 403.968 297.261 403.68C297.058 403.392 296.791 403.163 296.461 402.992C296.141 402.821 295.762 402.736 295.325 402.736C294.866 402.736 294.477 402.827 294.157 403.008C293.837 403.189 293.575 403.429 293.373 403.728C293.17 404.016 293.021 404.347 292.925 404.72C292.839 405.093 292.797 405.472 292.797 405.856C292.797 406.261 292.845 406.656 292.941 407.04C293.037 407.413 293.186 407.744 293.389 408.032C293.602 408.32 293.874 408.555 294.205 408.736C294.535 408.907 294.935 408.992 295.405 408.992C295.874 408.992 296.263 408.901 296.573 408.72C296.893 408.539 297.149 408.299 297.341 408C297.533 407.701 297.671 407.36 297.757 406.976C297.842 406.592 297.885 406.197 297.885 405.792ZM306.865 405.072C306.844 404.752 306.769 404.448 306.641 404.16C306.524 403.872 306.358 403.627 306.145 403.424C305.942 403.211 305.697 403.045 305.409 402.928C305.132 402.8 304.822 402.736 304.481 402.736C304.129 402.736 303.809 402.8 303.521 402.928C303.244 403.045 303.004 403.211 302.801 403.424C302.598 403.637 302.438 403.888 302.321 404.176C302.204 404.453 302.134 404.752 302.113 405.072H306.865ZM308.177 407.376C307.996 408.304 307.596 409.003 306.977 409.472C306.358 409.941 305.58 410.176 304.641 410.176C303.98 410.176 303.404 410.069 302.913 409.856C302.433 409.643 302.028 409.344 301.697 408.96C301.366 408.576 301.116 408.117 300.945 407.584C300.785 407.051 300.694 406.469 300.673 405.84C300.673 405.211 300.769 404.635 300.961 404.112C301.153 403.589 301.42 403.136 301.761 402.752C302.113 402.368 302.524 402.069 302.993 401.856C303.473 401.643 303.996 401.536 304.561 401.536C305.297 401.536 305.905 401.691 306.385 402C306.876 402.299 307.265 402.683 307.553 403.152C307.852 403.621 308.054 404.133 308.161 404.688C308.278 405.243 308.326 405.771 308.305 406.272H302.113C302.102 406.635 302.145 406.981 302.241 407.312C302.337 407.632 302.492 407.92 302.705 408.176C302.918 408.421 303.19 408.619 303.521 408.768C303.852 408.917 304.241 408.992 304.689 408.992C305.265 408.992 305.734 408.859 306.097 408.592C306.47 408.325 306.716 407.92 306.833 407.376H308.177ZM309.867 401.728H311.147V403.472H311.179C311.509 402.8 311.915 402.304 312.395 401.984C312.875 401.664 313.483 401.515 314.219 401.536V402.976C313.675 402.976 313.211 403.051 312.827 403.2C312.443 403.349 312.133 403.568 311.899 403.856C311.664 404.144 311.493 404.496 311.387 404.912C311.28 405.317 311.227 405.787 311.227 406.32V410H309.867V401.728Z" fill="black" fill-opacity="0.68"/>
<path d="M322.944 400.576L324.8 399.872L325.232 401.104L323.344 401.728L324.528 403.296L323.472 404.08L322.288 402.432L321.168 404.08L320.096 403.296L321.28 401.728L319.424 401.104L319.856 399.872L321.664 400.576V398.576H322.944V400.576Z" fill="#DB0002"/>
<rect width="100" height="48" transform="translate(120 470)" fill="black"/>
<path d="M153.171 488.576H155.667L160.435 496.24H160.467V488.576H162.819V500H160.307L155.555 492.352H155.523V500H153.171V488.576ZM170.559 494.976C170.452 494.4 170.26 493.963 169.983 493.664C169.716 493.365 169.305 493.216 168.751 493.216C168.388 493.216 168.084 493.28 167.839 493.408C167.604 493.525 167.412 493.675 167.263 493.856C167.124 494.037 167.023 494.229 166.959 494.432C166.905 494.635 166.873 494.816 166.863 494.976H170.559ZM166.863 496.416C166.895 497.152 167.081 497.685 167.423 498.016C167.764 498.347 168.255 498.512 168.895 498.512C169.353 498.512 169.748 498.4 170.079 498.176C170.409 497.941 170.612 497.696 170.687 497.44H172.687C172.367 498.432 171.876 499.141 171.215 499.568C170.553 499.995 169.753 500.208 168.815 500.208C168.164 500.208 167.577 500.107 167.055 499.904C166.532 499.691 166.089 499.392 165.727 499.008C165.364 498.624 165.081 498.165 164.879 497.632C164.687 497.099 164.591 496.512 164.591 495.872C164.591 495.253 164.692 494.677 164.895 494.144C165.097 493.611 165.385 493.152 165.759 492.768C166.132 492.373 166.575 492.064 167.087 491.84C167.609 491.616 168.185 491.504 168.815 491.504C169.519 491.504 170.132 491.643 170.655 491.92C171.177 492.187 171.604 492.549 171.935 493.008C172.276 493.467 172.521 493.989 172.671 494.576C172.82 495.163 172.873 495.776 172.831 496.416H166.863ZM176.49 495.648L173.77 491.728H176.362L177.818 493.888L179.258 491.728H181.77L179.05 495.6L182.106 500H179.514L177.786 497.392L176.058 500H173.514L176.49 495.648ZM186.052 491.728H187.716V493.248H186.052V497.344C186.052 497.728 186.116 497.984 186.244 498.112C186.372 498.24 186.628 498.304 187.012 498.304C187.14 498.304 187.262 498.299 187.38 498.288C187.497 498.277 187.609 498.261 187.716 498.24V500C187.524 500.032 187.31 500.053 187.076 500.064C186.841 500.075 186.612 500.08 186.388 500.08C186.036 500.08 185.7 500.053 185.38 500C185.07 499.957 184.793 499.867 184.548 499.728C184.313 499.589 184.126 499.392 183.988 499.136C183.849 498.88 183.78 498.544 183.78 498.128V493.248H182.404V491.728H183.78V489.248H186.052V491.728Z" fill="white"/>
<defs>
<clipPath id="clip0_81743_9948">
<rect width="26.8" height="20" fill="white" transform="translate(136 394)"/>
</clipPath>
</defs>
</svg>
