<svg width="600" height="312" viewBox="0 0 600 312" fill="none" xmlns="http://www.w3.org/2000/svg">
<rect width="600" height="312" fill="black" fill-opacity="0.04"/>
<path d="M92.768 91.22H95.296C95.4667 91.22 95.68 91.2093 95.936 91.188C96.192 91.156 96.464 91.092 96.752 90.996C97.04 90.8893 97.3227 90.74 97.6 90.548C97.888 90.356 98.144 90.0947 98.368 89.764C98.592 89.4333 98.7733 89.0227 98.912 88.532C99.0613 88.0307 99.136 87.428 99.136 86.724C99.136 86.0413 99.0667 85.4333 98.928 84.9C98.8 84.356 98.5813 83.8973 98.272 83.524C97.9733 83.14 97.584 82.852 97.104 82.66C96.624 82.4573 96.032 82.356 95.328 82.356H92.768V91.22ZM91.248 81.076H95.168C96.928 81.076 98.2827 81.524 99.232 82.42C100.181 83.316 100.656 84.6813 100.656 86.516C100.656 87.476 100.549 88.3293 100.336 89.076C100.123 89.812 99.792 90.436 99.344 90.948C98.896 91.4493 98.3253 91.8333 97.632 92.1C96.9387 92.3667 96.1173 92.5 95.168 92.5H91.248V81.076ZM103.73 82.74H102.37V81.076H103.73V82.74ZM102.37 84.228H103.73V92.5H102.37V84.228ZM113.165 92.468C112.93 92.6067 112.605 92.676 112.189 92.676C111.837 92.676 111.554 92.58 111.341 92.388C111.138 92.1853 111.037 91.86 111.037 91.412C110.663 91.86 110.226 92.1853 109.725 92.388C109.234 92.58 108.701 92.676 108.125 92.676C107.751 92.676 107.394 92.6333 107.053 92.548C106.722 92.4627 106.434 92.3293 106.189 92.148C105.943 91.9667 105.746 91.732 105.597 91.444C105.458 91.1453 105.389 90.788 105.389 90.372C105.389 89.9027 105.469 89.5187 105.629 89.22C105.789 88.9213 105.997 88.6813 106.253 88.5C106.519 88.308 106.818 88.164 107.149 88.068C107.49 87.972 107.837 87.892 108.189 87.828C108.562 87.7533 108.914 87.7 109.245 87.668C109.586 87.6253 109.885 87.572 110.141 87.508C110.397 87.4333 110.599 87.332 110.749 87.204C110.898 87.0653 110.973 86.868 110.973 86.612C110.973 86.3133 110.914 86.0733 110.797 85.892C110.69 85.7107 110.546 85.572 110.365 85.476C110.194 85.38 109.997 85.316 109.773 85.284C109.559 85.252 109.346 85.236 109.133 85.236C108.557 85.236 108.077 85.348 107.693 85.572C107.309 85.7853 107.101 86.196 107.069 86.804H105.709C105.73 86.292 105.837 85.86 106.029 85.508C106.221 85.156 106.477 84.8733 106.797 84.66C107.117 84.436 107.479 84.276 107.885 84.18C108.301 84.084 108.743 84.036 109.213 84.036C109.586 84.036 109.954 84.0627 110.317 84.116C110.69 84.1693 111.026 84.2813 111.325 84.452C111.623 84.612 111.863 84.8413 112.045 85.14C112.226 85.4387 112.317 85.828 112.317 86.308V90.564C112.317 90.884 112.333 91.1187 112.365 91.268C112.407 91.4173 112.535 91.492 112.749 91.492C112.866 91.492 113.005 91.4653 113.165 91.412V92.468ZM110.957 88.228C110.786 88.356 110.562 88.452 110.285 88.516C110.007 88.5693 109.714 88.6173 109.405 88.66C109.106 88.692 108.802 88.7347 108.493 88.788C108.183 88.8307 107.906 88.9053 107.661 89.012C107.415 89.1187 107.213 89.2733 107.053 89.476C106.903 89.668 106.829 89.9347 106.829 90.276C106.829 90.5 106.871 90.692 106.957 90.852C107.053 91.0013 107.17 91.124 107.309 91.22C107.458 91.316 107.629 91.3853 107.821 91.428C108.013 91.4707 108.215 91.492 108.429 91.492C108.877 91.492 109.261 91.4333 109.581 91.316C109.901 91.188 110.162 91.0333 110.365 90.852C110.567 90.66 110.717 90.4573 110.813 90.244C110.909 90.02 110.957 89.812 110.957 89.62V88.228ZM114.51 81.076H115.87V92.5H114.51V81.076ZM128.046 86.884C127.94 86.3613 127.716 85.956 127.374 85.668C127.033 85.38 126.574 85.236 125.998 85.236C125.508 85.236 125.097 85.3267 124.766 85.508C124.436 85.6893 124.169 85.9293 123.966 86.228C123.774 86.5267 123.636 86.8733 123.55 87.268C123.465 87.652 123.422 88.052 123.422 88.468C123.422 88.852 123.465 89.2253 123.55 89.588C123.646 89.9507 123.79 90.276 123.982 90.564C124.174 90.8413 124.425 91.0653 124.734 91.236C125.044 91.4067 125.412 91.492 125.838 91.492C126.51 91.492 127.033 91.316 127.406 90.964C127.79 90.612 128.025 90.116 128.11 89.476H129.502C129.353 90.5 128.969 91.2893 128.35 91.844C127.742 92.3987 126.91 92.676 125.854 92.676C125.225 92.676 124.665 92.5747 124.174 92.372C123.694 92.1693 123.289 91.8813 122.958 91.508C122.638 91.1347 122.393 90.692 122.222 90.18C122.062 89.6573 121.982 89.0867 121.982 88.468C121.982 87.8493 122.062 87.2733 122.222 86.74C122.382 86.196 122.622 85.7267 122.942 85.332C123.273 84.9267 123.684 84.612 124.174 84.388C124.665 84.1533 125.236 84.036 125.886 84.036C126.356 84.036 126.793 84.0947 127.198 84.212C127.614 84.3187 127.977 84.4893 128.286 84.724C128.606 84.9587 128.868 85.2573 129.07 85.62C129.273 85.972 129.401 86.3933 129.454 86.884H128.046ZM132.016 88.372C132.016 88.8733 132.08 89.3213 132.208 89.716C132.347 90.1 132.533 90.4253 132.768 90.692C133.003 90.948 133.275 91.1453 133.584 91.284C133.904 91.4227 134.24 91.492 134.592 91.492C134.944 91.492 135.275 91.4227 135.584 91.284C135.904 91.1453 136.181 90.948 136.416 90.692C136.651 90.4253 136.832 90.1 136.96 89.716C137.099 89.3213 137.168 88.8733 137.168 88.372C137.168 87.8707 137.099 87.428 136.96 87.044C136.832 86.6493 136.651 86.3187 136.416 86.052C136.181 85.7853 135.904 85.5827 135.584 85.444C135.275 85.3053 134.944 85.236 134.592 85.236C134.24 85.236 133.904 85.3053 133.584 85.444C133.275 85.5827 133.003 85.7853 132.768 86.052C132.533 86.3187 132.347 86.6493 132.208 87.044C132.08 87.428 132.016 87.8707 132.016 88.372ZM130.576 88.372C130.576 87.764 130.661 87.1987 130.832 86.676C131.003 86.1427 131.259 85.684 131.6 85.3C131.941 84.9053 132.363 84.596 132.864 84.372C133.365 84.148 133.941 84.036 134.592 84.036C135.253 84.036 135.829 84.148 136.32 84.372C136.821 84.596 137.243 84.9053 137.584 85.3C137.925 85.684 138.181 86.1427 138.352 86.676C138.523 87.1987 138.608 87.764 138.608 88.372C138.608 88.98 138.523 89.5453 138.352 90.068C138.181 90.5907 137.925 91.0493 137.584 91.444C137.243 91.828 136.821 92.132 136.32 92.356C135.829 92.5693 135.253 92.676 134.592 92.676C133.941 92.676 133.365 92.5693 132.864 92.356C132.363 92.132 131.941 91.828 131.6 91.444C131.259 91.0493 131.003 90.5907 130.832 90.068C130.661 89.5453 130.576 88.98 130.576 88.372ZM141.204 88.436C141.204 88.82 141.252 89.1987 141.348 89.572C141.454 89.9347 141.609 90.26 141.812 90.548C142.025 90.836 142.292 91.0653 142.612 91.236C142.942 91.4067 143.326 91.492 143.764 91.492C144.222 91.492 144.612 91.4013 144.932 91.22C145.252 91.0387 145.513 90.804 145.716 90.516C145.918 90.2173 146.062 89.8813 146.148 89.508C146.244 89.1347 146.292 88.756 146.292 88.372C146.292 87.9667 146.244 87.5773 146.148 87.204C146.052 86.82 145.897 86.484 145.684 86.196C145.481 85.908 145.214 85.6787 144.884 85.508C144.553 85.3267 144.153 85.236 143.684 85.236C143.225 85.236 142.836 85.3267 142.516 85.508C142.196 85.6893 141.94 85.9293 141.748 86.228C141.556 86.5267 141.417 86.868 141.332 87.252C141.246 87.636 141.204 88.0307 141.204 88.436ZM147.604 92.5H146.244V91.38H146.212C145.988 91.8387 145.636 92.1693 145.156 92.372C144.676 92.5747 144.148 92.676 143.572 92.676C142.932 92.676 142.372 92.5587 141.892 92.324C141.422 92.0893 141.028 91.7747 140.708 91.38C140.398 90.9853 140.164 90.5267 140.004 90.004C139.844 89.4813 139.764 88.9267 139.764 88.34C139.764 87.7533 139.838 87.1987 139.988 86.676C140.148 86.1533 140.382 85.7 140.692 85.316C141.012 84.9213 141.406 84.612 141.876 84.388C142.356 84.1533 142.91 84.036 143.54 84.036C143.753 84.036 143.982 84.0573 144.228 84.1C144.473 84.1427 144.718 84.2173 144.964 84.324C145.209 84.42 145.438 84.5533 145.652 84.724C145.876 84.884 146.062 85.0867 146.212 85.332H146.244V81.076H147.604V92.5ZM155.44 87.572C155.419 87.252 155.344 86.948 155.216 86.66C155.099 86.372 154.933 86.1267 154.72 85.924C154.517 85.7107 154.272 85.5453 153.984 85.428C153.707 85.3 153.397 85.236 153.056 85.236C152.704 85.236 152.384 85.3 152.096 85.428C151.819 85.5453 151.579 85.7107 151.376 85.924C151.173 86.1373 151.013 86.388 150.896 86.676C150.779 86.9533 150.709 87.252 150.688 87.572H155.44ZM156.752 89.876C156.571 90.804 156.171 91.5027 155.552 91.972C154.933 92.4413 154.155 92.676 153.216 92.676C152.555 92.676 151.979 92.5693 151.488 92.356C151.008 92.1427 150.603 91.844 150.272 91.46C149.941 91.076 149.691 90.6173 149.52 90.084C149.36 89.5507 149.269 88.9693 149.248 88.34C149.248 87.7107 149.344 87.1347 149.536 86.612C149.728 86.0893 149.995 85.636 150.336 85.252C150.688 84.868 151.099 84.5693 151.568 84.356C152.048 84.1427 152.571 84.036 153.136 84.036C153.872 84.036 154.48 84.1907 154.96 84.5C155.451 84.7987 155.84 85.1827 156.128 85.652C156.427 86.1213 156.629 86.6333 156.736 87.188C156.853 87.7427 156.901 88.2707 156.88 88.772H150.688C150.677 89.1347 150.72 89.4813 150.816 89.812C150.912 90.132 151.067 90.42 151.28 90.676C151.493 90.9213 151.765 91.1187 152.096 91.268C152.427 91.4173 152.816 91.492 153.264 91.492C153.84 91.492 154.309 91.3587 154.672 91.092C155.045 90.8253 155.291 90.42 155.408 89.876H156.752Z" fill="black" fill-opacity="0.68"/>
<mask id="path-2-inside-1_68375_39407" fill="white">
<path d="M270 57H510V117H270V57Z"/>
</mask>
<path d="M270 57H510V117H270V57Z" fill="black" fill-opacity="0.04"/>
<path d="M510 117V116H270V117V118H510V117Z" fill="black" fill-opacity="0.2" mask="url(#path-2-inside-1_68375_39407)"/>
<path fill-rule="evenodd" clip-rule="evenodd" d="M302.801 76.7998H293.199C292.881 76.8 292.576 76.9265 292.351 77.1515C292.126 77.3766 292 77.6817 292 77.9998V95.9998C292 96.6622 292.536 97.1995 293.199 97.1998H302.801C303.119 97.1997 303.424 97.0731 303.649 96.8481C303.874 96.623 304 96.3179 304 95.9998V77.9998C304 77.3374 303.464 76.8001 302.801 76.7998ZM297.1 77.3998H298.9C299.066 77.3998 299.2 77.5341 299.2 77.6998C299.2 77.8655 299.066 77.9998 298.9 77.9998H297.1C296.934 77.9998 296.8 77.8655 296.8 77.6998C296.8 77.5341 296.934 77.3998 297.1 77.3998ZM298 96.5998C297.669 96.5998 297.4 96.3312 297.4 95.9998C297.4 95.6684 297.669 95.3998 298 95.3998C298.331 95.3998 298.6 95.6684 298.6 95.9998C298.6 96.3312 298.331 96.5998 298 96.5998ZM302.8 94.7998H293.2V78.5998H302.8V94.7998Z" fill="black" fill-opacity="0.68"/>
<path d="M327.344 88.408H330.832V89.496H327.344V93H326.256V89.496H322.768V88.408H326.256V84.904H327.344V88.408ZM337.49 93H336.13V84.872H333.186V83.784C333.57 83.784 333.943 83.7573 334.306 83.704C334.668 83.64 334.994 83.528 335.282 83.368C335.58 83.208 335.831 82.9893 336.034 82.712C336.236 82.4347 336.375 82.0827 336.45 81.656H337.49V93Z" fill="black" fill-opacity="0.68"/>
<path d="M348.216 81.576H350.216V93H348.216V81.576ZM352.613 84.728H354.341V85.944L354.373 85.976C354.65 85.5173 355.013 85.16 355.461 84.904C355.909 84.6373 356.405 84.504 356.949 84.504C357.856 84.504 358.57 84.7387 359.093 85.208C359.616 85.6773 359.877 86.3813 359.877 87.32V93H358.053V87.8C358.032 87.1493 357.893 86.68 357.637 86.392C357.381 86.0933 356.981 85.944 356.437 85.944C356.128 85.944 355.85 86.0027 355.605 86.12C355.36 86.2267 355.152 86.3813 354.981 86.584C354.81 86.776 354.677 87.0053 354.581 87.272C354.485 87.5387 354.437 87.8213 354.437 88.12V93H352.613V84.728ZM362.049 84.728H363.777V85.848H363.809C364.065 85.368 364.422 85.0267 364.881 84.824C365.339 84.6107 365.835 84.504 366.369 84.504C367.019 84.504 367.585 84.6213 368.065 84.856C368.555 85.08 368.961 85.3947 369.281 85.8C369.601 86.1947 369.841 86.6587 370.001 87.192C370.161 87.7253 370.241 88.296 370.241 88.904C370.241 89.4587 370.166 89.9973 370.017 90.52C369.878 91.0427 369.659 91.5067 369.361 91.912C369.073 92.3067 368.705 92.6267 368.257 92.872C367.809 93.1067 367.281 93.224 366.673 93.224C366.406 93.224 366.139 93.1973 365.873 93.144C365.606 93.1013 365.35 93.0267 365.105 92.92C364.859 92.8133 364.63 92.68 364.417 92.52C364.214 92.3493 364.043 92.152 363.905 91.928H363.873V96.056H362.049V84.728ZM368.417 88.872C368.417 88.4987 368.369 88.136 368.273 87.784C368.177 87.432 368.033 87.1227 367.841 86.856C367.649 86.5787 367.409 86.36 367.121 86.2C366.833 86.0293 366.502 85.944 366.129 85.944C365.361 85.944 364.779 86.2107 364.385 86.744C364.001 87.2773 363.809 87.9867 363.809 88.872C363.809 89.288 363.857 89.6773 363.953 90.04C364.059 90.392 364.214 90.696 364.417 90.952C364.619 91.208 364.859 91.4107 365.137 91.56C365.425 91.7093 365.755 91.784 366.129 91.784C366.545 91.784 366.897 91.6987 367.185 91.528C367.473 91.3573 367.707 91.1387 367.889 90.872C368.081 90.5947 368.214 90.2853 368.289 89.944C368.374 89.592 368.417 89.2347 368.417 88.872ZM379.246 93H377.454V91.848H377.422C377.198 92.264 376.862 92.6 376.414 92.856C375.977 93.1013 375.529 93.224 375.07 93.224C373.982 93.224 373.193 92.9573 372.702 92.424C372.222 91.88 371.982 91.064 371.982 89.976V84.728H373.806V89.8C373.806 90.5253 373.945 91.0373 374.222 91.336C374.499 91.6347 374.889 91.784 375.39 91.784C375.774 91.784 376.094 91.7253 376.35 91.608C376.606 91.4907 376.814 91.336 376.974 91.144C377.134 90.9413 377.246 90.7013 377.31 90.424C377.385 90.1467 377.422 89.848 377.422 89.528V84.728H379.246V93ZM380.537 84.728H381.913V82.248H383.737V84.728H385.385V86.088H383.737V90.504C383.737 90.696 383.743 90.8613 383.753 91C383.775 91.1387 383.812 91.256 383.865 91.352C383.929 91.448 384.02 91.5227 384.137 91.576C384.255 91.6187 384.415 91.64 384.617 91.64C384.745 91.64 384.873 91.64 385.001 91.64C385.129 91.6293 385.257 91.608 385.385 91.576V92.984C385.183 93.0053 384.985 93.0267 384.793 93.048C384.601 93.0693 384.404 93.08 384.201 93.08C383.721 93.08 383.332 93.0373 383.033 92.952C382.745 92.856 382.516 92.7227 382.345 92.552C382.185 92.3707 382.073 92.1467 382.009 91.88C381.956 91.6133 381.924 91.3093 381.913 90.968V86.088H380.537V84.728Z" fill="black"/>
<path d="M91.248 215.076H92.768V219.988H98.784V215.076H100.304V226.5H98.784V221.268H92.768V226.5H91.248V215.076ZM108.315 221.572C108.294 221.252 108.219 220.948 108.091 220.66C107.974 220.372 107.808 220.127 107.595 219.924C107.392 219.711 107.147 219.545 106.859 219.428C106.582 219.3 106.272 219.236 105.931 219.236C105.579 219.236 105.259 219.3 104.971 219.428C104.694 219.545 104.454 219.711 104.251 219.924C104.048 220.137 103.888 220.388 103.771 220.676C103.654 220.953 103.584 221.252 103.563 221.572H108.315ZM109.627 223.876C109.446 224.804 109.046 225.503 108.427 225.972C107.808 226.441 107.03 226.676 106.091 226.676C105.43 226.676 104.854 226.569 104.363 226.356C103.883 226.143 103.478 225.844 103.147 225.46C102.816 225.076 102.566 224.617 102.395 224.084C102.235 223.551 102.144 222.969 102.123 222.34C102.123 221.711 102.219 221.135 102.411 220.612C102.603 220.089 102.87 219.636 103.211 219.252C103.563 218.868 103.974 218.569 104.443 218.356C104.923 218.143 105.446 218.036 106.011 218.036C106.747 218.036 107.355 218.191 107.835 218.5C108.326 218.799 108.715 219.183 109.003 219.652C109.302 220.121 109.504 220.633 109.611 221.188C109.728 221.743 109.776 222.271 109.755 222.772H103.563C103.552 223.135 103.595 223.481 103.691 223.812C103.787 224.132 103.942 224.42 104.155 224.676C104.368 224.921 104.64 225.119 104.971 225.268C105.302 225.417 105.691 225.492 106.139 225.492C106.715 225.492 107.184 225.359 107.547 225.092C107.92 224.825 108.166 224.42 108.283 223.876H109.627ZM111.245 215.076H112.605V226.5H111.245V215.076ZM114.76 218.228H116.12V219.348H116.152C116.376 218.889 116.728 218.559 117.208 218.356C117.688 218.143 118.216 218.036 118.792 218.036C119.432 218.036 119.986 218.153 120.456 218.388C120.936 218.623 121.33 218.943 121.64 219.348C121.96 219.743 122.2 220.201 122.36 220.724C122.52 221.247 122.6 221.801 122.6 222.388C122.6 222.975 122.52 223.529 122.36 224.052C122.21 224.575 121.976 225.033 121.656 225.428C121.346 225.812 120.952 226.116 120.472 226.34C120.002 226.564 119.453 226.676 118.824 226.676C118.621 226.676 118.392 226.655 118.136 226.612C117.89 226.569 117.645 226.5 117.4 226.404C117.154 226.308 116.92 226.18 116.696 226.02C116.482 225.849 116.301 225.641 116.152 225.396H116.12V229.652H114.76V218.228ZM121.16 222.292C121.16 221.908 121.106 221.535 121 221.172C120.904 220.799 120.749 220.468 120.536 220.18C120.333 219.892 120.066 219.663 119.736 219.492C119.416 219.321 119.037 219.236 118.6 219.236C118.141 219.236 117.752 219.327 117.432 219.508C117.112 219.689 116.85 219.929 116.648 220.228C116.445 220.516 116.296 220.847 116.2 221.22C116.114 221.593 116.072 221.972 116.072 222.356C116.072 222.761 116.12 223.156 116.216 223.54C116.312 223.913 116.461 224.244 116.664 224.532C116.877 224.82 117.149 225.055 117.48 225.236C117.81 225.407 118.21 225.492 118.68 225.492C119.149 225.492 119.538 225.401 119.848 225.22C120.168 225.039 120.424 224.799 120.616 224.5C120.808 224.201 120.946 223.86 121.032 223.476C121.117 223.092 121.16 222.697 121.16 222.292ZM129.94 221.572C129.919 221.252 129.844 220.948 129.716 220.66C129.599 220.372 129.433 220.127 129.22 219.924C129.017 219.711 128.772 219.545 128.484 219.428C128.207 219.3 127.897 219.236 127.556 219.236C127.204 219.236 126.884 219.3 126.596 219.428C126.319 219.545 126.079 219.711 125.876 219.924C125.673 220.137 125.513 220.388 125.396 220.676C125.279 220.953 125.209 221.252 125.188 221.572H129.94ZM131.252 223.876C131.071 224.804 130.671 225.503 130.052 225.972C129.433 226.441 128.655 226.676 127.716 226.676C127.055 226.676 126.479 226.569 125.988 226.356C125.508 226.143 125.103 225.844 124.772 225.46C124.441 225.076 124.191 224.617 124.02 224.084C123.86 223.551 123.769 222.969 123.748 222.34C123.748 221.711 123.844 221.135 124.036 220.612C124.228 220.089 124.495 219.636 124.836 219.252C125.188 218.868 125.599 218.569 126.068 218.356C126.548 218.143 127.071 218.036 127.636 218.036C128.372 218.036 128.98 218.191 129.46 218.5C129.951 218.799 130.34 219.183 130.628 219.652C130.927 220.121 131.129 220.633 131.236 221.188C131.353 221.743 131.401 222.271 131.38 222.772H125.188C125.177 223.135 125.22 223.481 125.316 223.812C125.412 224.132 125.567 224.42 125.78 224.676C125.993 224.921 126.265 225.119 126.596 225.268C126.927 225.417 127.316 225.492 127.764 225.492C128.34 225.492 128.809 225.359 129.172 225.092C129.545 224.825 129.791 224.42 129.908 223.876H131.252ZM132.742 218.228H134.022V219.972H134.054C134.384 219.3 134.79 218.804 135.27 218.484C135.75 218.164 136.358 218.015 137.094 218.036V219.476C136.55 219.476 136.086 219.551 135.702 219.7C135.318 219.849 135.008 220.068 134.774 220.356C134.539 220.644 134.368 220.996 134.262 221.412C134.155 221.817 134.102 222.287 134.102 222.82V226.5H132.742V218.228ZM144.459 218.228H146.107V219.428H144.459V224.564C144.459 224.724 144.47 224.852 144.491 224.948C144.523 225.044 144.576 225.119 144.651 225.172C144.726 225.225 144.827 225.263 144.955 225.284C145.094 225.295 145.27 225.3 145.483 225.3H146.107V226.5H145.067C144.715 226.5 144.411 226.479 144.155 226.436C143.91 226.383 143.707 226.292 143.547 226.164C143.398 226.036 143.286 225.855 143.211 225.62C143.136 225.385 143.099 225.076 143.099 224.692V219.428H141.691V218.228H143.099V215.748H144.459V218.228ZM153.362 221.572C153.34 221.252 153.266 220.948 153.138 220.66C153.02 220.372 152.855 220.127 152.642 219.924C152.439 219.711 152.194 219.545 151.906 219.428C151.628 219.3 151.319 219.236 150.978 219.236C150.626 219.236 150.306 219.3 150.018 219.428C149.74 219.545 149.5 219.711 149.298 219.924C149.095 220.137 148.935 220.388 148.818 220.676C148.7 220.953 148.631 221.252 148.61 221.572H153.362ZM154.674 223.876C154.492 224.804 154.092 225.503 153.474 225.972C152.855 226.441 152.076 226.676 151.138 226.676C150.476 226.676 149.9 226.569 149.41 226.356C148.93 226.143 148.524 225.844 148.194 225.46C147.863 225.076 147.612 224.617 147.442 224.084C147.282 223.551 147.191 222.969 147.17 222.34C147.17 221.711 147.266 221.135 147.458 220.612C147.65 220.089 147.916 219.636 148.258 219.252C148.61 218.868 149.02 218.569 149.49 218.356C149.97 218.143 150.492 218.036 151.058 218.036C151.794 218.036 152.402 218.191 152.882 218.5C153.372 218.799 153.762 219.183 154.05 219.652C154.348 220.121 154.551 220.633 154.658 221.188C154.775 221.743 154.823 222.271 154.802 222.772H148.61C148.599 223.135 148.642 223.481 148.738 223.812C148.834 224.132 148.988 224.42 149.202 224.676C149.415 224.921 149.687 225.119 150.018 225.268C150.348 225.417 150.738 225.492 151.186 225.492C151.762 225.492 152.231 225.359 152.594 225.092C152.967 224.825 153.212 224.42 153.33 223.876H154.674ZM158.436 222.148L155.556 218.228H157.299L159.284 221.124L161.348 218.228H162.98L160.132 222.036L163.332 226.5H161.588L159.284 223.076L156.98 226.5H155.332L158.436 222.148ZM166.381 218.228H168.029V219.428H166.381V224.564C166.381 224.724 166.391 224.852 166.413 224.948C166.445 225.044 166.498 225.119 166.573 225.172C166.647 225.225 166.749 225.263 166.877 225.284C167.015 225.295 167.191 225.3 167.405 225.3H168.029V226.5H166.989C166.637 226.5 166.333 226.479 166.077 226.436C165.831 226.383 165.629 226.292 165.469 226.164C165.319 226.036 165.207 225.855 165.133 225.62C165.058 225.385 165.021 225.076 165.021 224.692V219.428H163.613V218.228H165.021V215.748H166.381V218.228Z" fill="black" fill-opacity="0.68"/>
<mask id="path-8-inside-2_68375_39407" fill="white">
<path d="M270 167H510V227H270V167Z"/>
</mask>
<path d="M270 167H510V227H270V167Z" fill="black" fill-opacity="0.04"/>
<path d="M510 227V226H270V227V228H510V227Z" fill="black" fill-opacity="0.2" mask="url(#path-8-inside-2_68375_39407)"/>
<path fill-rule="evenodd" clip-rule="evenodd" d="M302.801 186.8H293.199C292.881 186.8 292.576 186.926 292.351 187.152C292.126 187.377 292 187.682 292 188V206C292 206.662 292.536 207.199 293.199 207.2H302.801C303.119 207.2 303.424 207.073 303.649 206.848C303.874 206.623 304 206.318 304 206V188C304 187.337 303.464 186.8 302.801 186.8ZM297.1 187.4H298.9C299.066 187.4 299.2 187.534 299.2 187.7C299.2 187.865 299.066 188 298.9 188H297.1C296.934 188 296.8 187.865 296.8 187.7C296.8 187.534 296.934 187.4 297.1 187.4ZM298 206.6C297.669 206.6 297.4 206.331 297.4 206C297.4 205.668 297.669 205.4 298 205.4C298.331 205.4 298.6 205.668 298.6 206C298.6 206.331 298.331 206.6 298 206.6ZM302.8 204.8H293.2V188.6H302.8V204.8Z" fill="black" fill-opacity="0.68"/>
<path d="M327.344 198.408H330.832V199.496H327.344V203H326.256V199.496H322.768V198.408H326.256V194.904H327.344V198.408ZM337.49 203H336.13V194.872H333.186V193.784C333.57 193.784 333.943 193.757 334.306 193.704C334.668 193.64 334.994 193.528 335.282 193.368C335.58 193.208 335.831 192.989 336.034 192.712C336.236 192.435 336.375 192.083 336.45 191.656H337.49V203Z" fill="black" fill-opacity="0.68"/>
<path d="M348.216 191.576H350.216V203H348.216V191.576ZM352.613 194.728H354.341V195.944L354.373 195.976C354.65 195.517 355.013 195.16 355.461 194.904C355.909 194.637 356.405 194.504 356.949 194.504C357.856 194.504 358.57 194.739 359.093 195.208C359.616 195.677 359.877 196.381 359.877 197.32V203H358.053V197.8C358.032 197.149 357.893 196.68 357.637 196.392C357.381 196.093 356.981 195.944 356.437 195.944C356.128 195.944 355.85 196.003 355.605 196.12C355.36 196.227 355.152 196.381 354.981 196.584C354.81 196.776 354.677 197.005 354.581 197.272C354.485 197.539 354.437 197.821 354.437 198.12V203H352.613V194.728ZM362.049 194.728H363.777V195.848H363.809C364.065 195.368 364.422 195.027 364.881 194.824C365.339 194.611 365.835 194.504 366.369 194.504C367.019 194.504 367.585 194.621 368.065 194.856C368.555 195.08 368.961 195.395 369.281 195.8C369.601 196.195 369.841 196.659 370.001 197.192C370.161 197.725 370.241 198.296 370.241 198.904C370.241 199.459 370.166 199.997 370.017 200.52C369.878 201.043 369.659 201.507 369.361 201.912C369.073 202.307 368.705 202.627 368.257 202.872C367.809 203.107 367.281 203.224 366.673 203.224C366.406 203.224 366.139 203.197 365.873 203.144C365.606 203.101 365.35 203.027 365.105 202.92C364.859 202.813 364.63 202.68 364.417 202.52C364.214 202.349 364.043 202.152 363.905 201.928H363.873V206.056H362.049V194.728ZM368.417 198.872C368.417 198.499 368.369 198.136 368.273 197.784C368.177 197.432 368.033 197.123 367.841 196.856C367.649 196.579 367.409 196.36 367.121 196.2C366.833 196.029 366.502 195.944 366.129 195.944C365.361 195.944 364.779 196.211 364.385 196.744C364.001 197.277 363.809 197.987 363.809 198.872C363.809 199.288 363.857 199.677 363.953 200.04C364.059 200.392 364.214 200.696 364.417 200.952C364.619 201.208 364.859 201.411 365.137 201.56C365.425 201.709 365.755 201.784 366.129 201.784C366.545 201.784 366.897 201.699 367.185 201.528C367.473 201.357 367.707 201.139 367.889 200.872C368.081 200.595 368.214 200.285 368.289 199.944C368.374 199.592 368.417 199.235 368.417 198.872ZM379.246 203H377.454V201.848H377.422C377.198 202.264 376.862 202.6 376.414 202.856C375.977 203.101 375.529 203.224 375.07 203.224C373.982 203.224 373.193 202.957 372.702 202.424C372.222 201.88 371.982 201.064 371.982 199.976V194.728H373.806V199.8C373.806 200.525 373.945 201.037 374.222 201.336C374.499 201.635 374.889 201.784 375.39 201.784C375.774 201.784 376.094 201.725 376.35 201.608C376.606 201.491 376.814 201.336 376.974 201.144C377.134 200.941 377.246 200.701 377.31 200.424C377.385 200.147 377.422 199.848 377.422 199.528V194.728H379.246V203ZM380.537 194.728H381.913V192.248H383.737V194.728H385.385V196.088H383.737V200.504C383.737 200.696 383.743 200.861 383.753 201C383.775 201.139 383.812 201.256 383.865 201.352C383.929 201.448 384.02 201.523 384.137 201.576C384.255 201.619 384.415 201.64 384.617 201.64C384.745 201.64 384.873 201.64 385.001 201.64C385.129 201.629 385.257 201.608 385.385 201.576V202.984C385.183 203.005 384.985 203.027 384.793 203.048C384.601 203.069 384.404 203.08 384.201 203.08C383.721 203.08 383.332 203.037 383.033 202.952C382.745 202.856 382.516 202.723 382.345 202.552C382.185 202.371 382.073 202.147 382.009 201.88C381.956 201.613 381.924 201.309 381.913 200.968V196.088H380.537V194.728Z" fill="black"/>
<path d="M287.148 240.004H288.478V250H287.148V240.004ZM290.694 242.762H291.814V243.91H291.842C292.337 243.033 293.121 242.594 294.194 242.594C294.67 242.594 295.067 242.659 295.384 242.79C295.701 242.921 295.958 243.103 296.154 243.336C296.35 243.569 296.485 243.849 296.56 244.176C296.644 244.493 296.686 244.848 296.686 245.24V250H295.496V245.1C295.496 244.652 295.365 244.297 295.104 244.036C294.843 243.775 294.483 243.644 294.026 243.644C293.662 243.644 293.345 243.7 293.074 243.812C292.813 243.924 292.593 244.083 292.416 244.288C292.239 244.493 292.103 244.736 292.01 245.016C291.926 245.287 291.884 245.585 291.884 245.912V250H290.694V242.762ZM303.562 245.086C303.469 244.629 303.273 244.274 302.974 244.022C302.676 243.77 302.274 243.644 301.77 243.644C301.341 243.644 300.982 243.723 300.692 243.882C300.403 244.041 300.17 244.251 299.992 244.512C299.824 244.773 299.703 245.077 299.628 245.422C299.554 245.758 299.516 246.108 299.516 246.472C299.516 246.808 299.554 247.135 299.628 247.452C299.712 247.769 299.838 248.054 300.006 248.306C300.174 248.549 300.394 248.745 300.664 248.894C300.935 249.043 301.257 249.118 301.63 249.118C302.218 249.118 302.676 248.964 303.002 248.656C303.338 248.348 303.544 247.914 303.618 247.354H304.836C304.706 248.25 304.37 248.941 303.828 249.426C303.296 249.911 302.568 250.154 301.644 250.154C301.094 250.154 300.604 250.065 300.174 249.888C299.754 249.711 299.4 249.459 299.11 249.132C298.83 248.805 298.616 248.418 298.466 247.97C298.326 247.513 298.256 247.013 298.256 246.472C298.256 245.931 298.326 245.427 298.466 244.96C298.606 244.484 298.816 244.073 299.096 243.728C299.386 243.373 299.745 243.098 300.174 242.902C300.604 242.697 301.103 242.594 301.672 242.594C302.083 242.594 302.466 242.645 302.82 242.748C303.184 242.841 303.502 242.991 303.772 243.196C304.052 243.401 304.281 243.663 304.458 243.98C304.636 244.288 304.748 244.657 304.794 245.086H303.562ZM306.413 240.004H307.603V250H306.413V240.004ZM315.613 250H314.493V248.852H314.465C314.213 249.3 313.891 249.631 313.499 249.846C313.107 250.051 312.645 250.154 312.113 250.154C311.637 250.154 311.241 250.093 310.923 249.972C310.606 249.841 310.349 249.659 310.153 249.426C309.957 249.193 309.817 248.917 309.733 248.6C309.659 248.273 309.621 247.914 309.621 247.522V242.762H310.811V247.662C310.811 248.11 310.942 248.465 311.203 248.726C311.465 248.987 311.824 249.118 312.281 249.118C312.645 249.118 312.958 249.062 313.219 248.95C313.49 248.838 313.714 248.679 313.891 248.474C314.069 248.269 314.199 248.031 314.283 247.76C314.377 247.48 314.423 247.177 314.423 246.85V242.762H315.613V250ZM318.444 246.444C318.444 246.78 318.486 247.111 318.57 247.438C318.663 247.755 318.798 248.04 318.976 248.292C319.162 248.544 319.396 248.745 319.676 248.894C319.965 249.043 320.301 249.118 320.684 249.118C321.085 249.118 321.426 249.039 321.706 248.88C321.986 248.721 322.214 248.516 322.392 248.264C322.569 248.003 322.695 247.709 322.77 247.382C322.854 247.055 322.896 246.724 322.896 246.388C322.896 246.033 322.854 245.693 322.77 245.366C322.686 245.03 322.55 244.736 322.364 244.484C322.186 244.232 321.953 244.031 321.664 243.882C321.374 243.723 321.024 243.644 320.614 243.644C320.212 243.644 319.872 243.723 319.592 243.882C319.312 244.041 319.088 244.251 318.92 244.512C318.752 244.773 318.63 245.072 318.556 245.408C318.481 245.744 318.444 246.089 318.444 246.444ZM324.044 250H322.854V249.02H322.826C322.63 249.421 322.322 249.711 321.902 249.888C321.482 250.065 321.02 250.154 320.516 250.154C319.956 250.154 319.466 250.051 319.046 249.846C318.635 249.641 318.29 249.365 318.01 249.02C317.739 248.675 317.534 248.273 317.394 247.816C317.254 247.359 317.184 246.873 317.184 246.36C317.184 245.847 317.249 245.361 317.38 244.904C317.52 244.447 317.725 244.05 317.996 243.714C318.276 243.369 318.621 243.098 319.032 242.902C319.452 242.697 319.937 242.594 320.488 242.594C320.674 242.594 320.875 242.613 321.09 242.65C321.304 242.687 321.519 242.753 321.734 242.846C321.948 242.93 322.149 243.047 322.336 243.196C322.532 243.336 322.695 243.513 322.826 243.728H322.854V240.004H324.044V250ZM331.076 245.688C331.057 245.408 330.992 245.142 330.88 244.89C330.777 244.638 330.632 244.423 330.446 244.246C330.268 244.059 330.054 243.915 329.802 243.812C329.559 243.7 329.288 243.644 328.99 243.644C328.682 243.644 328.402 243.7 328.15 243.812C327.907 243.915 327.697 244.059 327.52 244.246C327.342 244.433 327.202 244.652 327.1 244.904C326.997 245.147 326.936 245.408 326.918 245.688H331.076ZM332.224 247.704C332.065 248.516 331.715 249.127 331.174 249.538C330.632 249.949 329.951 250.154 329.13 250.154C328.551 250.154 328.047 250.061 327.618 249.874C327.198 249.687 326.843 249.426 326.554 249.09C326.264 248.754 326.045 248.353 325.896 247.886C325.756 247.419 325.676 246.911 325.658 246.36C325.658 245.809 325.742 245.305 325.91 244.848C326.078 244.391 326.311 243.994 326.61 243.658C326.918 243.322 327.277 243.061 327.688 242.874C328.108 242.687 328.565 242.594 329.06 242.594C329.704 242.594 330.236 242.729 330.656 243C331.085 243.261 331.426 243.597 331.678 244.008C331.939 244.419 332.116 244.867 332.21 245.352C332.312 245.837 332.354 246.299 332.336 246.738H326.918C326.908 247.055 326.946 247.359 327.03 247.648C327.114 247.928 327.249 248.18 327.436 248.404C327.622 248.619 327.86 248.791 328.15 248.922C328.439 249.053 328.78 249.118 329.172 249.118C329.676 249.118 330.086 249.001 330.404 248.768C330.73 248.535 330.945 248.18 331.048 247.704H332.224ZM340.658 250.966C340.518 251.321 340.378 251.619 340.238 251.862C340.107 252.105 339.958 252.301 339.79 252.45C339.631 252.609 339.449 252.721 339.244 252.786C339.048 252.861 338.819 252.898 338.558 252.898C338.418 252.898 338.278 252.889 338.138 252.87C337.998 252.851 337.862 252.819 337.732 252.772V251.68C337.834 251.727 337.951 251.764 338.082 251.792C338.222 251.829 338.338 251.848 338.432 251.848C338.674 251.848 338.875 251.787 339.034 251.666C339.202 251.554 339.328 251.391 339.412 251.176L339.902 249.958L337.032 242.762H338.376L340.49 248.684H340.518L342.548 242.762H343.808L340.658 250.966ZM345.859 246.388C345.859 246.827 345.915 247.219 346.027 247.564C346.148 247.9 346.311 248.185 346.517 248.418C346.722 248.642 346.96 248.815 347.231 248.936C347.511 249.057 347.805 249.118 348.113 249.118C348.421 249.118 348.71 249.057 348.981 248.936C349.261 248.815 349.503 248.642 349.709 248.418C349.914 248.185 350.073 247.9 350.185 247.564C350.306 247.219 350.367 246.827 350.367 246.388C350.367 245.949 350.306 245.562 350.185 245.226C350.073 244.881 349.914 244.591 349.709 244.358C349.503 244.125 349.261 243.947 348.981 243.826C348.71 243.705 348.421 243.644 348.113 243.644C347.805 243.644 347.511 243.705 347.231 243.826C346.96 243.947 346.722 244.125 346.517 244.358C346.311 244.591 346.148 244.881 346.027 245.226C345.915 245.562 345.859 245.949 345.859 246.388ZM344.599 246.388C344.599 245.856 344.673 245.361 344.823 244.904C344.972 244.437 345.196 244.036 345.495 243.7C345.793 243.355 346.162 243.084 346.601 242.888C347.039 242.692 347.543 242.594 348.113 242.594C348.691 242.594 349.195 242.692 349.625 242.888C350.063 243.084 350.432 243.355 350.731 243.7C351.029 244.036 351.253 244.437 351.403 244.904C351.552 245.361 351.627 245.856 351.627 246.388C351.627 246.92 351.552 247.415 351.403 247.872C351.253 248.329 351.029 248.731 350.731 249.076C350.432 249.412 350.063 249.678 349.625 249.874C349.195 250.061 348.691 250.154 348.113 250.154C347.543 250.154 347.039 250.061 346.601 249.874C346.162 249.678 345.793 249.412 345.495 249.076C345.196 248.731 344.972 248.329 344.823 247.872C344.673 247.415 344.599 246.92 344.599 246.388ZM359.197 250H358.077V248.852H358.049C357.797 249.3 357.475 249.631 357.083 249.846C356.691 250.051 356.229 250.154 355.697 250.154C355.221 250.154 354.824 250.093 354.507 249.972C354.189 249.841 353.933 249.659 353.737 249.426C353.541 249.193 353.401 248.917 353.317 248.6C353.242 248.273 353.205 247.914 353.205 247.522V242.762H354.395V247.662C354.395 248.11 354.525 248.465 354.787 248.726C355.048 248.987 355.407 249.118 355.865 249.118C356.229 249.118 356.541 249.062 356.803 248.95C357.073 248.838 357.297 248.679 357.475 248.474C357.652 248.269 357.783 248.031 357.867 247.76C357.96 247.48 358.007 247.177 358.007 246.85V242.762H359.197V250ZM361.117 242.762H362.237V244.288H362.265C362.554 243.7 362.909 243.266 363.329 242.986C363.749 242.706 364.281 242.575 364.925 242.594V243.854C364.449 243.854 364.043 243.919 363.707 244.05C363.371 244.181 363.1 244.372 362.895 244.624C362.69 244.876 362.54 245.184 362.447 245.548C362.354 245.903 362.307 246.313 362.307 246.78V250H361.117V242.762ZM370.557 243.812H369.339V242.762H370.557V241.684C370.557 241.096 370.725 240.653 371.061 240.354C371.407 240.046 371.906 239.892 372.559 239.892C372.671 239.892 372.797 239.901 372.937 239.92C373.087 239.939 373.217 239.967 373.329 240.004V241.04C373.227 241.003 373.115 240.979 372.993 240.97C372.872 240.951 372.76 240.942 372.657 240.942C372.368 240.942 372.144 240.998 371.985 241.11C371.827 241.222 371.747 241.437 371.747 241.754V242.762H373.147V243.812H371.747V250H370.557V243.812ZM380.377 250H379.257V248.852H379.229C378.977 249.3 378.655 249.631 378.263 249.846C377.871 250.051 377.409 250.154 376.877 250.154C376.401 250.154 376.004 250.093 375.687 249.972C375.37 249.841 375.113 249.659 374.917 249.426C374.721 249.193 374.581 248.917 374.497 248.6C374.422 248.273 374.385 247.914 374.385 247.522V242.762H375.575V247.662C375.575 248.11 375.706 248.465 375.967 248.726C376.228 248.987 376.588 249.118 377.045 249.118C377.409 249.118 377.722 249.062 377.983 248.95C378.254 248.838 378.478 248.679 378.655 248.474C378.832 248.269 378.963 248.031 379.047 247.76C379.14 247.48 379.187 247.177 379.187 246.85V242.762H380.377V250ZM382.409 240.004H383.599V250H382.409V240.004ZM385.688 240.004H386.878V250H385.688V240.004ZM392.968 242.762H394.088V243.91H394.116C394.611 243.033 395.395 242.594 396.468 242.594C396.944 242.594 397.341 242.659 397.658 242.79C397.975 242.921 398.232 243.103 398.428 243.336C398.624 243.569 398.759 243.849 398.834 244.176C398.918 244.493 398.96 244.848 398.96 245.24V250H397.77V245.1C397.77 244.652 397.639 244.297 397.378 244.036C397.117 243.775 396.757 243.644 396.3 243.644C395.936 243.644 395.619 243.7 395.348 243.812C395.087 243.924 394.867 244.083 394.69 244.288C394.513 244.493 394.377 244.736 394.284 245.016C394.2 245.287 394.158 245.585 394.158 245.912V250H392.968V242.762ZM406.914 250H405.794V248.852H405.766C405.514 249.3 405.192 249.631 404.8 249.846C404.408 250.051 403.946 250.154 403.414 250.154C402.938 250.154 402.542 250.093 402.224 249.972C401.907 249.841 401.65 249.659 401.454 249.426C401.258 249.193 401.118 248.917 401.034 248.6C400.96 248.273 400.922 247.914 400.922 247.522V242.762H402.112V247.662C402.112 248.11 402.243 248.465 402.504 248.726C402.766 248.987 403.125 249.118 403.582 249.118C403.946 249.118 404.259 249.062 404.52 248.95C404.791 248.838 405.015 248.679 405.192 248.474C405.37 248.269 405.5 248.031 405.584 247.76C405.678 247.48 405.724 247.177 405.724 246.85V242.762H406.914V250ZM408.876 242.762H409.996V243.826H410.024C410.566 243.005 411.345 242.594 412.362 242.594C412.81 242.594 413.216 242.687 413.58 242.874C413.944 243.061 414.201 243.378 414.35 243.826C414.593 243.434 414.91 243.131 415.302 242.916C415.704 242.701 416.142 242.594 416.618 242.594C416.982 242.594 417.309 242.636 417.598 242.72C417.897 242.795 418.149 242.916 418.354 243.084C418.569 243.252 418.732 243.471 418.844 243.742C418.966 244.003 419.026 244.321 419.026 244.694V250H417.836V245.254C417.836 245.03 417.818 244.82 417.78 244.624C417.743 244.428 417.673 244.26 417.57 244.12C417.468 243.971 417.323 243.854 417.136 243.77C416.959 243.686 416.726 243.644 416.436 243.644C415.848 243.644 415.386 243.812 415.05 244.148C414.714 244.484 414.546 244.932 414.546 245.492V250H413.356V245.254C413.356 245.021 413.333 244.806 413.286 244.61C413.249 244.414 413.179 244.246 413.076 244.106C412.974 243.957 412.834 243.845 412.656 243.77C412.488 243.686 412.269 243.644 411.998 243.644C411.653 243.644 411.354 243.714 411.102 243.854C410.86 243.994 410.659 244.162 410.5 244.358C410.351 244.554 410.239 244.759 410.164 244.974C410.099 245.179 410.066 245.352 410.066 245.492V250H408.876V242.762ZM421.029 240.004H422.219V243.742H422.247C422.443 243.341 422.751 243.051 423.171 242.874C423.591 242.687 424.053 242.594 424.557 242.594C425.117 242.594 425.602 242.697 426.013 242.902C426.433 243.107 426.778 243.387 427.049 243.742C427.329 244.087 427.539 244.489 427.679 244.946C427.819 245.403 427.889 245.889 427.889 246.402C427.889 246.915 427.819 247.401 427.679 247.858C427.548 248.315 427.343 248.717 427.063 249.062C426.792 249.398 426.447 249.664 426.027 249.86C425.616 250.056 425.136 250.154 424.585 250.154C424.408 250.154 424.207 250.135 423.983 250.098C423.768 250.061 423.554 250 423.339 249.916C423.124 249.832 422.919 249.72 422.723 249.58C422.536 249.431 422.378 249.249 422.247 249.034H422.219V250H421.029V240.004ZM426.629 246.318C426.629 245.982 426.582 245.655 426.489 245.338C426.405 245.011 426.27 244.722 426.083 244.47C425.906 244.218 425.672 244.017 425.383 243.868C425.103 243.719 424.772 243.644 424.389 243.644C423.988 243.644 423.647 243.723 423.367 243.882C423.087 244.041 422.858 244.251 422.681 244.512C422.504 244.764 422.373 245.053 422.289 245.38C422.214 245.707 422.177 246.038 422.177 246.374C422.177 246.729 422.219 247.074 422.303 247.41C422.387 247.737 422.518 248.026 422.695 248.278C422.882 248.53 423.12 248.735 423.409 248.894C423.698 249.043 424.048 249.118 424.459 249.118C424.87 249.118 425.21 249.039 425.481 248.88C425.761 248.721 425.985 248.511 426.153 248.25C426.321 247.989 426.442 247.69 426.517 247.354C426.592 247.018 426.629 246.673 426.629 246.318ZM434.487 245.688C434.468 245.408 434.403 245.142 434.291 244.89C434.188 244.638 434.044 244.423 433.857 244.246C433.68 244.059 433.465 243.915 433.213 243.812C432.97 243.7 432.7 243.644 432.401 243.644C432.093 243.644 431.813 243.7 431.561 243.812C431.318 243.915 431.108 244.059 430.931 244.246C430.754 244.433 430.614 244.652 430.511 244.904C430.408 245.147 430.348 245.408 430.329 245.688H434.487ZM435.635 247.704C435.476 248.516 435.126 249.127 434.585 249.538C434.044 249.949 433.362 250.154 432.541 250.154C431.962 250.154 431.458 250.061 431.029 249.874C430.609 249.687 430.254 249.426 429.965 249.09C429.676 248.754 429.456 248.353 429.307 247.886C429.167 247.419 429.088 246.911 429.069 246.36C429.069 245.809 429.153 245.305 429.321 244.848C429.489 244.391 429.722 243.994 430.021 243.658C430.329 243.322 430.688 243.061 431.099 242.874C431.519 242.687 431.976 242.594 432.471 242.594C433.115 242.594 433.647 242.729 434.067 243C434.496 243.261 434.837 243.597 435.089 244.008C435.35 244.419 435.528 244.867 435.621 245.352C435.724 245.837 435.766 246.299 435.747 246.738H430.329C430.32 247.055 430.357 247.359 430.441 247.648C430.525 247.928 430.66 248.18 430.847 248.404C431.034 248.619 431.272 248.791 431.561 248.922C431.85 249.053 432.191 249.118 432.583 249.118C433.087 249.118 433.498 249.001 433.815 248.768C434.142 248.535 434.356 248.18 434.459 247.704H435.635ZM437.113 242.762H438.233V244.288H438.261C438.551 243.7 438.905 243.266 439.325 242.986C439.745 242.706 440.277 242.575 440.921 242.594V243.854C440.445 243.854 440.039 243.919 439.703 244.05C439.367 244.181 439.097 244.372 438.891 244.624C438.686 244.876 438.537 245.184 438.443 245.548C438.35 245.903 438.303 246.313 438.303 246.78V250H437.113V242.762ZM453.232 250H451.972L450.502 244.246H450.474L449.018 250H447.73L445.406 242.762H446.722L448.36 248.684H448.388L449.844 242.762H451.146L452.658 248.684H452.686L454.31 242.762H455.542L453.232 250ZM458.108 241.46H456.918V240.004H458.108V241.46ZM456.918 242.762H458.108V250H456.918V242.762ZM461.779 242.762H463.221V243.812H461.779V248.306C461.779 248.446 461.788 248.558 461.807 248.642C461.835 248.726 461.882 248.791 461.947 248.838C462.012 248.885 462.101 248.917 462.213 248.936C462.334 248.945 462.488 248.95 462.675 248.95H463.221V250H462.311C462.003 250 461.737 249.981 461.513 249.944C461.298 249.897 461.121 249.818 460.981 249.706C460.85 249.594 460.752 249.435 460.687 249.23C460.622 249.025 460.589 248.754 460.589 248.418V243.812H459.357V242.762H460.589V240.592H461.779V242.762ZM464.718 240.004H465.908V243.826H465.936C466.029 243.602 466.16 243.415 466.328 243.266C466.496 243.107 466.683 242.981 466.888 242.888C467.103 242.785 467.322 242.711 467.546 242.664C467.779 242.617 468.003 242.594 468.218 242.594C468.694 242.594 469.091 242.659 469.408 242.79C469.725 242.921 469.982 243.103 470.178 243.336C470.374 243.569 470.509 243.849 470.584 244.176C470.668 244.493 470.71 244.848 470.71 245.24V250H469.52V245.1C469.52 244.652 469.389 244.297 469.128 244.036C468.867 243.775 468.507 243.644 468.05 243.644C467.686 243.644 467.369 243.7 467.098 243.812C466.837 243.924 466.617 244.083 466.44 244.288C466.263 244.493 466.127 244.736 466.034 245.016C465.95 245.287 465.908 245.585 465.908 245.912V250H464.718V240.004ZM473.54 246.388C473.54 246.827 473.596 247.219 473.708 247.564C473.83 247.9 473.993 248.185 474.198 248.418C474.404 248.642 474.642 248.815 474.912 248.936C475.192 249.057 475.486 249.118 475.794 249.118C476.102 249.118 476.392 249.057 476.662 248.936C476.942 248.815 477.185 248.642 477.39 248.418C477.596 248.185 477.754 247.9 477.866 247.564C477.988 247.219 478.048 246.827 478.048 246.388C478.048 245.949 477.988 245.562 477.866 245.226C477.754 244.881 477.596 244.591 477.39 244.358C477.185 244.125 476.942 243.947 476.662 243.826C476.392 243.705 476.102 243.644 475.794 243.644C475.486 243.644 475.192 243.705 474.912 243.826C474.642 243.947 474.404 244.125 474.198 244.358C473.993 244.591 473.83 244.881 473.708 245.226C473.596 245.562 473.54 245.949 473.54 246.388ZM472.28 246.388C472.28 245.856 472.355 245.361 472.504 244.904C472.654 244.437 472.878 244.036 473.176 243.7C473.475 243.355 473.844 243.084 474.282 242.888C474.721 242.692 475.225 242.594 475.794 242.594C476.373 242.594 476.877 242.692 477.306 242.888C477.745 243.084 478.114 243.355 478.412 243.7C478.711 244.036 478.935 244.437 479.084 244.904C479.234 245.361 479.308 245.856 479.308 246.388C479.308 246.92 479.234 247.415 479.084 247.872C478.935 248.329 478.711 248.731 478.412 249.076C478.114 249.412 477.745 249.678 477.306 249.874C476.877 250.061 476.373 250.154 475.794 250.154C475.225 250.154 474.721 250.061 474.282 249.874C473.844 249.678 473.475 249.412 473.176 249.076C472.878 248.731 472.654 248.329 472.504 247.872C472.355 247.415 472.28 246.92 472.28 246.388ZM486.878 250H485.758V248.852H485.73C485.478 249.3 485.156 249.631 484.764 249.846C484.372 250.051 483.91 250.154 483.378 250.154C482.902 250.154 482.506 250.093 482.188 249.972C481.871 249.841 481.614 249.659 481.418 249.426C481.222 249.193 481.082 248.917 480.998 248.6C480.924 248.273 480.886 247.914 480.886 247.522V242.762H482.076V247.662C482.076 248.11 482.207 248.465 482.468 248.726C482.73 248.987 483.089 249.118 483.546 249.118C483.91 249.118 484.223 249.062 484.484 248.95C484.755 248.838 484.979 248.679 485.156 248.474C485.334 248.269 485.464 248.031 485.548 247.76C485.642 247.48 485.688 247.177 485.688 246.85V242.762H486.878V250ZM490.493 242.762H491.935V243.812H490.493V248.306C490.493 248.446 490.502 248.558 490.521 248.642C490.549 248.726 490.595 248.791 490.661 248.838C490.726 248.885 490.815 248.917 490.927 248.936C491.048 248.945 491.202 248.95 491.389 248.95H491.935V250H491.025C490.717 250 490.451 249.981 490.227 249.944C490.012 249.897 489.835 249.818 489.695 249.706C489.564 249.594 489.466 249.435 489.401 249.23C489.335 249.025 489.303 248.754 489.303 248.418V243.812H488.071V242.762H489.303V240.592H490.493V242.762ZM287.624 267.718C287.633 267.979 287.694 268.203 287.806 268.39C287.918 268.567 288.063 268.712 288.24 268.824C288.427 268.927 288.632 269.001 288.856 269.048C289.089 269.095 289.327 269.118 289.57 269.118C289.757 269.118 289.953 269.104 290.158 269.076C290.363 269.048 290.55 268.997 290.718 268.922C290.895 268.847 291.04 268.74 291.152 268.6C291.264 268.451 291.32 268.264 291.32 268.04C291.32 267.732 291.203 267.499 290.97 267.34C290.737 267.181 290.443 267.055 290.088 266.962C289.743 266.859 289.365 266.771 288.954 266.696C288.543 266.612 288.161 266.5 287.806 266.36C287.461 266.211 287.171 266.005 286.938 265.744C286.705 265.483 286.588 265.119 286.588 264.652C286.588 264.288 286.667 263.975 286.826 263.714C286.994 263.453 287.204 263.243 287.456 263.084C287.717 262.916 288.007 262.795 288.324 262.72C288.651 262.636 288.973 262.594 289.29 262.594C289.701 262.594 290.079 262.631 290.424 262.706C290.769 262.771 291.073 262.893 291.334 263.07C291.605 263.238 291.819 263.471 291.978 263.77C292.137 264.059 292.23 264.423 292.258 264.862H291.068C291.049 264.629 290.989 264.437 290.886 264.288C290.783 264.129 290.653 264.003 290.494 263.91C290.335 263.817 290.158 263.751 289.962 263.714C289.775 263.667 289.584 263.644 289.388 263.644C289.211 263.644 289.029 263.658 288.842 263.686C288.665 263.714 288.501 263.765 288.352 263.84C288.203 263.905 288.081 263.999 287.988 264.12C287.895 264.232 287.848 264.381 287.848 264.568C287.848 264.773 287.918 264.946 288.058 265.086C288.207 265.217 288.394 265.329 288.618 265.422C288.842 265.506 289.094 265.581 289.374 265.646C289.654 265.702 289.934 265.763 290.214 265.828C290.513 265.893 290.802 265.973 291.082 266.066C291.371 266.159 291.623 266.285 291.838 266.444C292.062 266.593 292.239 266.785 292.37 267.018C292.51 267.251 292.58 267.541 292.58 267.886C292.58 268.325 292.487 268.689 292.3 268.978C292.123 269.267 291.885 269.501 291.586 269.678C291.297 269.855 290.965 269.977 290.592 270.042C290.228 270.117 289.864 270.154 289.5 270.154C289.099 270.154 288.716 270.112 288.352 270.028C287.988 269.944 287.666 269.809 287.386 269.622C287.106 269.426 286.882 269.174 286.714 268.866C286.546 268.549 286.453 268.166 286.434 267.718H287.624ZM294.113 262.762H295.303V263.742H295.331C295.527 263.341 295.835 263.051 296.255 262.874C296.675 262.687 297.137 262.594 297.641 262.594C298.201 262.594 298.686 262.697 299.097 262.902C299.517 263.107 299.862 263.387 300.133 263.742C300.413 264.087 300.623 264.489 300.763 264.946C300.903 265.403 300.973 265.889 300.973 266.402C300.973 266.915 300.903 267.401 300.763 267.858C300.632 268.315 300.427 268.717 300.147 269.062C299.876 269.398 299.531 269.664 299.111 269.86C298.7 270.056 298.22 270.154 297.669 270.154C297.492 270.154 297.291 270.135 297.067 270.098C296.852 270.061 296.638 270 296.423 269.916C296.208 269.832 296.003 269.72 295.807 269.58C295.62 269.431 295.462 269.249 295.331 269.034H295.303V272.758H294.113V262.762ZM299.713 266.318C299.713 265.982 299.666 265.655 299.573 265.338C299.489 265.011 299.354 264.722 299.167 264.47C298.99 264.218 298.756 264.017 298.467 263.868C298.187 263.719 297.856 263.644 297.473 263.644C297.072 263.644 296.731 263.723 296.451 263.882C296.171 264.041 295.942 264.251 295.765 264.512C295.588 264.764 295.457 265.053 295.373 265.38C295.298 265.707 295.261 266.038 295.261 266.374C295.261 266.729 295.303 267.074 295.387 267.41C295.471 267.737 295.602 268.026 295.779 268.278C295.966 268.53 296.204 268.735 296.493 268.894C296.782 269.043 297.132 269.118 297.543 269.118C297.954 269.118 298.294 269.039 298.565 268.88C298.845 268.721 299.069 268.511 299.237 268.25C299.405 267.989 299.526 267.69 299.601 267.354C299.676 267.018 299.713 266.673 299.713 266.318ZM308.957 269.972C308.751 270.093 308.467 270.154 308.103 270.154C307.795 270.154 307.547 270.07 307.361 269.902C307.183 269.725 307.095 269.44 307.095 269.048C306.768 269.44 306.385 269.725 305.947 269.902C305.517 270.07 305.051 270.154 304.547 270.154C304.22 270.154 303.907 270.117 303.609 270.042C303.319 269.967 303.067 269.851 302.853 269.692C302.638 269.533 302.465 269.328 302.335 269.076C302.213 268.815 302.153 268.502 302.153 268.138C302.153 267.727 302.223 267.391 302.363 267.13C302.503 266.869 302.685 266.659 302.909 266.5C303.142 266.332 303.403 266.206 303.693 266.122C303.991 266.038 304.295 265.968 304.603 265.912C304.929 265.847 305.237 265.8 305.527 265.772C305.825 265.735 306.087 265.688 306.311 265.632C306.535 265.567 306.712 265.478 306.843 265.366C306.973 265.245 307.039 265.072 307.039 264.848C307.039 264.587 306.987 264.377 306.885 264.218C306.791 264.059 306.665 263.938 306.507 263.854C306.357 263.77 306.185 263.714 305.989 263.686C305.802 263.658 305.615 263.644 305.429 263.644C304.925 263.644 304.505 263.742 304.169 263.938C303.833 264.125 303.651 264.484 303.623 265.016H302.433C302.451 264.568 302.545 264.19 302.713 263.882C302.881 263.574 303.105 263.327 303.385 263.14C303.665 262.944 303.982 262.804 304.337 262.72C304.701 262.636 305.088 262.594 305.499 262.594C305.825 262.594 306.147 262.617 306.465 262.664C306.791 262.711 307.085 262.809 307.347 262.958C307.608 263.098 307.818 263.299 307.977 263.56C308.135 263.821 308.215 264.162 308.215 264.582V268.306C308.215 268.586 308.229 268.791 308.257 268.922C308.294 269.053 308.406 269.118 308.593 269.118C308.695 269.118 308.817 269.095 308.957 269.048V269.972ZM307.025 266.262C306.875 266.374 306.679 266.458 306.437 266.514C306.194 266.561 305.937 266.603 305.667 266.64C305.405 266.668 305.139 266.705 304.869 266.752C304.598 266.789 304.355 266.855 304.141 266.948C303.926 267.041 303.749 267.177 303.609 267.354C303.478 267.522 303.413 267.755 303.413 268.054C303.413 268.25 303.45 268.418 303.525 268.558C303.609 268.689 303.711 268.796 303.833 268.88C303.963 268.964 304.113 269.025 304.281 269.062C304.449 269.099 304.626 269.118 304.813 269.118C305.205 269.118 305.541 269.067 305.821 268.964C306.101 268.852 306.329 268.717 306.507 268.558C306.684 268.39 306.815 268.213 306.899 268.026C306.983 267.83 307.025 267.648 307.025 267.48V266.262ZM315.153 265.086C315.06 264.629 314.864 264.274 314.565 264.022C314.267 263.77 313.865 263.644 313.361 263.644C312.932 263.644 312.573 263.723 312.283 263.882C311.994 264.041 311.761 264.251 311.583 264.512C311.415 264.773 311.294 265.077 311.219 265.422C311.145 265.758 311.107 266.108 311.107 266.472C311.107 266.808 311.145 267.135 311.219 267.452C311.303 267.769 311.429 268.054 311.597 268.306C311.765 268.549 311.985 268.745 312.255 268.894C312.526 269.043 312.848 269.118 313.221 269.118C313.809 269.118 314.267 268.964 314.593 268.656C314.929 268.348 315.135 267.914 315.209 267.354H316.427C316.297 268.25 315.961 268.941 315.419 269.426C314.887 269.911 314.159 270.154 313.235 270.154C312.685 270.154 312.195 270.065 311.765 269.888C311.345 269.711 310.991 269.459 310.701 269.132C310.421 268.805 310.207 268.418 310.057 267.97C309.917 267.513 309.847 267.013 309.847 266.472C309.847 265.931 309.917 265.427 310.057 264.96C310.197 264.484 310.407 264.073 310.687 263.728C310.977 263.373 311.336 263.098 311.765 262.902C312.195 262.697 312.694 262.594 313.263 262.594C313.674 262.594 314.057 262.645 314.411 262.748C314.775 262.841 315.093 262.991 315.363 263.196C315.643 263.401 315.872 263.663 316.049 263.98C316.227 264.288 316.339 264.657 316.385 265.086H315.153ZM322.96 265.688C322.941 265.408 322.876 265.142 322.764 264.89C322.661 264.638 322.517 264.423 322.33 264.246C322.153 264.059 321.938 263.915 321.686 263.812C321.443 263.7 321.173 263.644 320.874 263.644C320.566 263.644 320.286 263.7 320.034 263.812C319.791 263.915 319.581 264.059 319.404 264.246C319.227 264.433 319.087 264.652 318.984 264.904C318.881 265.147 318.821 265.408 318.802 265.688H322.96ZM324.108 267.704C323.949 268.516 323.599 269.127 323.058 269.538C322.517 269.949 321.835 270.154 321.014 270.154C320.435 270.154 319.931 270.061 319.502 269.874C319.082 269.687 318.727 269.426 318.438 269.09C318.149 268.754 317.929 268.353 317.78 267.886C317.64 267.419 317.561 266.911 317.542 266.36C317.542 265.809 317.626 265.305 317.794 264.848C317.962 264.391 318.195 263.994 318.494 263.658C318.802 263.322 319.161 263.061 319.572 262.874C319.992 262.687 320.449 262.594 320.944 262.594C321.588 262.594 322.12 262.729 322.54 263C322.969 263.261 323.31 263.597 323.562 264.008C323.823 264.419 324.001 264.867 324.094 265.352C324.197 265.837 324.239 266.299 324.22 266.738H318.802C318.793 267.055 318.83 267.359 318.914 267.648C318.998 267.928 319.133 268.18 319.32 268.404C319.507 268.619 319.745 268.791 320.034 268.922C320.323 269.053 320.664 269.118 321.056 269.118C321.56 269.118 321.971 269.001 322.288 268.768C322.615 268.535 322.829 268.18 322.932 267.704H324.108ZM326.356 267.718C326.366 267.979 326.426 268.203 326.538 268.39C326.65 268.567 326.795 268.712 326.972 268.824C327.159 268.927 327.364 269.001 327.588 269.048C327.822 269.095 328.06 269.118 328.302 269.118C328.489 269.118 328.685 269.104 328.89 269.076C329.096 269.048 329.282 268.997 329.45 268.922C329.628 268.847 329.772 268.74 329.884 268.6C329.996 268.451 330.052 268.264 330.052 268.04C330.052 267.732 329.936 267.499 329.702 267.34C329.469 267.181 329.175 267.055 328.82 266.962C328.475 266.859 328.097 266.771 327.686 266.696C327.276 266.612 326.893 266.5 326.538 266.36C326.193 266.211 325.904 266.005 325.67 265.744C325.437 265.483 325.32 265.119 325.32 264.652C325.32 264.288 325.4 263.975 325.558 263.714C325.726 263.453 325.936 263.243 326.188 263.084C326.45 262.916 326.739 262.795 327.056 262.72C327.383 262.636 327.705 262.594 328.022 262.594C328.433 262.594 328.811 262.631 329.156 262.706C329.502 262.771 329.805 262.893 330.066 263.07C330.337 263.238 330.552 263.471 330.71 263.77C330.869 264.059 330.962 264.423 330.99 264.862H329.8C329.782 264.629 329.721 264.437 329.618 264.288C329.516 264.129 329.385 264.003 329.226 263.91C329.068 263.817 328.89 263.751 328.694 263.714C328.508 263.667 328.316 263.644 328.12 263.644C327.943 263.644 327.761 263.658 327.574 263.686C327.397 263.714 327.234 263.765 327.084 263.84C326.935 263.905 326.814 263.999 326.72 264.12C326.627 264.232 326.58 264.381 326.58 264.568C326.58 264.773 326.65 264.946 326.79 265.086C326.94 265.217 327.126 265.329 327.35 265.422C327.574 265.506 327.826 265.581 328.106 265.646C328.386 265.702 328.666 265.763 328.946 265.828C329.245 265.893 329.534 265.973 329.814 266.066C330.104 266.159 330.356 266.285 330.57 266.444C330.794 266.593 330.972 266.785 331.102 267.018C331.242 267.251 331.312 267.541 331.312 267.886C331.312 268.325 331.219 268.689 331.032 268.978C330.855 269.267 330.617 269.501 330.318 269.678C330.029 269.855 329.698 269.977 329.324 270.042C328.96 270.117 328.596 270.154 328.232 270.154C327.831 270.154 327.448 270.112 327.084 270.028C326.72 269.944 326.398 269.809 326.118 269.622C325.838 269.426 325.614 269.174 325.446 268.866C325.278 268.549 325.185 268.166 325.166 267.718H326.356ZM333.069 268.446H334.623V270H333.069V268.446Z" fill="black" fill-opacity="0.68"/>
</svg>
