<svg width="600" height="118" viewBox="0 0 600 118" fill="none" xmlns="http://www.w3.org/2000/svg">
<rect width="600" height="118" fill="black" fill-opacity="0.04"/>
<path d="M99.28 56.516C99.1093 55.7053 98.7307 55.0973 98.144 54.692C97.568 54.2867 96.88 54.084 96.08 54.084C95.3973 54.084 94.8107 54.212 94.32 54.468C93.84 54.724 93.44 55.0707 93.12 55.508C92.8107 55.9347 92.5813 56.4253 92.432 56.98C92.2827 57.5347 92.208 58.1107 92.208 58.708C92.208 59.3587 92.2827 59.9773 92.432 60.564C92.5813 61.14 92.8107 61.6467 93.12 62.084C93.44 62.5107 93.8453 62.852 94.336 63.108C94.8267 63.364 95.4133 63.492 96.096 63.492C96.5973 63.492 97.04 63.412 97.424 63.252C97.8187 63.0813 98.1547 62.852 98.432 62.564C98.72 62.2653 98.944 61.9133 99.104 61.508C99.264 61.1027 99.36 60.6653 99.392 60.196H100.912C100.763 61.636 100.267 62.756 99.424 63.556C98.5813 64.356 97.4293 64.756 95.968 64.756C95.0827 64.756 94.3093 64.6067 93.648 64.308C92.9867 63.9987 92.4373 63.5773 92 63.044C91.5627 62.5107 91.232 61.8813 91.008 61.156C90.7947 60.4307 90.688 59.652 90.688 58.82C90.688 57.988 90.8053 57.2093 91.04 56.484C91.2747 55.748 91.616 55.108 92.064 54.564C92.5227 54.02 93.088 53.5933 93.76 53.284C94.4427 52.964 95.2213 52.804 96.096 52.804C96.6933 52.804 97.2587 52.884 97.792 53.044C98.3253 53.204 98.8 53.4387 99.216 53.748C99.632 54.0573 99.9787 54.4467 100.256 54.916C100.533 55.3747 100.715 55.908 100.8 56.516H99.28ZM103.563 60.372C103.563 60.8733 103.627 61.3213 103.755 61.716C103.894 62.1 104.08 62.4253 104.315 62.692C104.55 62.948 104.822 63.1453 105.131 63.284C105.451 63.4227 105.787 63.492 106.139 63.492C106.491 63.492 106.822 63.4227 107.131 63.284C107.451 63.1453 107.728 62.948 107.963 62.692C108.198 62.4253 108.379 62.1 108.507 61.716C108.646 61.3213 108.715 60.8733 108.715 60.372C108.715 59.8707 108.646 59.428 108.507 59.044C108.379 58.6493 108.198 58.3187 107.963 58.052C107.728 57.7853 107.451 57.5827 107.131 57.444C106.822 57.3053 106.491 57.236 106.139 57.236C105.787 57.236 105.451 57.3053 105.131 57.444C104.822 57.5827 104.55 57.7853 104.315 58.052C104.08 58.3187 103.894 58.6493 103.755 59.044C103.627 59.428 103.563 59.8707 103.563 60.372ZM102.123 60.372C102.123 59.764 102.208 59.1987 102.379 58.676C102.55 58.1427 102.806 57.684 103.147 57.3C103.488 56.9053 103.91 56.596 104.411 56.372C104.912 56.148 105.488 56.036 106.139 56.036C106.8 56.036 107.376 56.148 107.867 56.372C108.368 56.596 108.79 56.9053 109.131 57.3C109.472 57.684 109.728 58.1427 109.899 58.676C110.07 59.1987 110.155 59.764 110.155 60.372C110.155 60.98 110.07 61.5453 109.899 62.068C109.728 62.5907 109.472 63.0493 109.131 63.444C108.79 63.828 108.368 64.132 107.867 64.356C107.376 64.5693 106.8 64.676 106.139 64.676C105.488 64.676 104.912 64.5693 104.411 64.356C103.91 64.132 103.488 63.828 103.147 63.444C102.806 63.0493 102.55 62.5907 102.379 62.068C102.208 61.5453 102.123 60.98 102.123 60.372ZM118.606 64.5H117.326V63.188H117.294C117.006 63.7 116.638 64.0787 116.19 64.324C115.742 64.5587 115.214 64.676 114.606 64.676C114.062 64.676 113.609 64.6067 113.246 64.468C112.884 64.3187 112.59 64.1107 112.366 63.844C112.142 63.5773 111.982 63.2627 111.886 62.9C111.801 62.5267 111.758 62.116 111.758 61.668V56.228H113.118V61.828C113.118 62.34 113.268 62.7453 113.566 63.044C113.865 63.3427 114.276 63.492 114.798 63.492C115.214 63.492 115.572 63.428 115.87 63.3C116.18 63.172 116.436 62.9907 116.638 62.756C116.841 62.5213 116.99 62.2493 117.086 61.94C117.193 61.62 117.246 61.2733 117.246 60.9V56.228H118.606V64.5ZM120.649 56.228H121.929V57.54H121.961C122.526 56.5373 123.422 56.036 124.649 56.036C125.193 56.036 125.646 56.1107 126.009 56.26C126.372 56.4093 126.665 56.6173 126.889 56.884C127.113 57.1507 127.268 57.4707 127.353 57.844C127.449 58.2067 127.497 58.612 127.497 59.06V64.5H126.137V58.9C126.137 58.388 125.988 57.9827 125.689 57.684C125.39 57.3853 124.98 57.236 124.457 57.236C124.041 57.236 123.678 57.3 123.369 57.428C123.07 57.556 122.82 57.7373 122.617 57.972C122.414 58.2067 122.26 58.484 122.153 58.804C122.057 59.1133 122.009 59.4547 122.009 59.828V64.5H120.649V56.228ZM131.428 56.228H133.076V57.428H131.428V62.564C131.428 62.724 131.438 62.852 131.46 62.948C131.492 63.044 131.545 63.1187 131.62 63.172C131.694 63.2253 131.796 63.2627 131.924 63.284C132.062 63.2947 132.238 63.3 132.452 63.3H133.076V64.5H132.036C131.684 64.5 131.38 64.4787 131.124 64.436C130.878 64.3827 130.676 64.292 130.516 64.164C130.366 64.036 130.254 63.8547 130.18 63.62C130.105 63.3853 130.068 63.076 130.068 62.692V57.428H128.66V56.228H130.068V53.748H131.428V56.228ZM134.539 56.228H135.819V57.972H135.851C136.181 57.3 136.587 56.804 137.067 56.484C137.547 56.164 138.155 56.0147 138.891 56.036V57.476C138.347 57.476 137.883 57.5507 137.499 57.7C137.115 57.8493 136.805 58.068 136.571 58.356C136.336 58.644 136.165 58.996 136.059 59.412C135.952 59.8173 135.899 60.2867 135.899 60.82V64.5H134.539V56.228ZM143.163 65.604C143.003 66.0093 142.843 66.3507 142.683 66.628C142.533 66.9053 142.363 67.1293 142.171 67.3C141.989 67.4813 141.781 67.6093 141.547 67.684C141.323 67.7693 141.061 67.812 140.763 67.812C140.603 67.812 140.443 67.8013 140.283 67.78C140.123 67.7587 139.968 67.7213 139.819 67.668V66.42C139.936 66.4733 140.069 66.516 140.219 66.548C140.379 66.5907 140.512 66.612 140.619 66.612C140.896 66.612 141.125 66.5427 141.307 66.404C141.499 66.276 141.643 66.0893 141.739 65.844L142.299 64.452L139.019 56.228H140.555L142.971 62.996H143.003L145.323 56.228H146.763L143.163 65.604ZM153.2 61.892C153.21 62.1907 153.28 62.4467 153.408 62.66C153.536 62.8627 153.701 63.028 153.904 63.156C154.117 63.2733 154.352 63.3587 154.608 63.412C154.874 63.4653 155.146 63.492 155.424 63.492C155.637 63.492 155.861 63.476 156.096 63.444C156.33 63.412 156.544 63.3533 156.736 63.268C156.938 63.1827 157.104 63.06 157.232 62.9C157.36 62.7293 157.424 62.516 157.424 62.26C157.424 61.908 157.29 61.6413 157.024 61.46C156.757 61.2787 156.421 61.1347 156.016 61.028C155.621 60.9107 155.189 60.8093 154.72 60.724C154.25 60.628 153.813 60.5 153.408 60.34C153.013 60.1693 152.682 59.9347 152.416 59.636C152.149 59.3373 152.016 58.9213 152.016 58.388C152.016 57.972 152.106 57.6147 152.288 57.316C152.48 57.0173 152.72 56.7773 153.008 56.596C153.306 56.404 153.637 56.2653 154 56.18C154.373 56.084 154.741 56.036 155.104 56.036C155.573 56.036 156.005 56.0787 156.4 56.164C156.794 56.2387 157.141 56.3773 157.44 56.58C157.749 56.772 157.994 57.0387 158.176 57.38C158.357 57.7107 158.464 58.1267 158.496 58.628H157.136C157.114 58.3613 157.045 58.1427 156.928 57.972C156.81 57.7907 156.661 57.6467 156.48 57.54C156.298 57.4333 156.096 57.3587 155.872 57.316C155.658 57.2627 155.44 57.236 155.216 57.236C155.013 57.236 154.805 57.252 154.592 57.284C154.389 57.316 154.202 57.3747 154.032 57.46C153.861 57.5347 153.722 57.6413 153.616 57.78C153.509 57.908 153.456 58.0787 153.456 58.292C153.456 58.5267 153.536 58.724 153.696 58.884C153.866 59.0333 154.08 59.1613 154.336 59.268C154.592 59.364 154.88 59.4493 155.2 59.524C155.52 59.588 155.84 59.6573 156.16 59.732C156.501 59.8067 156.832 59.8973 157.152 60.004C157.482 60.1107 157.77 60.2547 158.016 60.436C158.272 60.6067 158.474 60.8253 158.624 61.092C158.784 61.3587 158.864 61.6893 158.864 62.084C158.864 62.5853 158.757 63.0013 158.544 63.332C158.341 63.6627 158.069 63.9293 157.728 64.132C157.397 64.3347 157.018 64.4733 156.592 64.548C156.176 64.6333 155.76 64.676 155.344 64.676C154.885 64.676 154.448 64.628 154.032 64.532C153.616 64.436 153.248 64.2813 152.928 64.068C152.608 63.844 152.352 63.556 152.16 63.204C151.968 62.8413 151.861 62.404 151.84 61.892H153.2ZM166.112 59.572C166.09 59.252 166.016 58.948 165.888 58.66C165.77 58.372 165.605 58.1267 165.392 57.924C165.189 57.7107 164.944 57.5453 164.656 57.428C164.378 57.3 164.069 57.236 163.728 57.236C163.376 57.236 163.056 57.3 162.768 57.428C162.49 57.5453 162.25 57.7107 162.048 57.924C161.845 58.1373 161.685 58.388 161.568 58.676C161.45 58.9533 161.381 59.252 161.36 59.572H166.112ZM167.424 61.876C167.242 62.804 166.842 63.5027 166.224 63.972C165.605 64.4413 164.826 64.676 163.888 64.676C163.226 64.676 162.65 64.5693 162.16 64.356C161.68 64.1427 161.274 63.844 160.944 63.46C160.613 63.076 160.362 62.6173 160.192 62.084C160.032 61.5507 159.941 60.9693 159.92 60.34C159.92 59.7107 160.016 59.1347 160.208 58.612C160.4 58.0893 160.666 57.636 161.008 57.252C161.36 56.868 161.77 56.5693 162.24 56.356C162.72 56.1427 163.242 56.036 163.808 56.036C164.544 56.036 165.152 56.1907 165.632 56.5C166.122 56.7987 166.512 57.1827 166.8 57.652C167.098 58.1213 167.301 58.6333 167.408 59.188C167.525 59.7427 167.573 60.2707 167.552 60.772H161.36C161.349 61.1347 161.392 61.4813 161.488 61.812C161.584 62.132 161.738 62.42 161.952 62.676C162.165 62.9213 162.437 63.1187 162.768 63.268C163.098 63.4173 163.488 63.492 163.936 63.492C164.512 63.492 164.981 63.3587 165.344 63.092C165.717 62.8253 165.962 62.42 166.08 61.876H167.424ZM169.042 53.076H170.402V64.5H169.042V53.076ZM178.252 59.572C178.231 59.252 178.156 58.948 178.028 58.66C177.911 58.372 177.746 58.1267 177.532 57.924C177.33 57.7107 177.084 57.5453 176.796 57.428C176.519 57.3 176.21 57.236 175.868 57.236C175.516 57.236 175.196 57.3 174.908 57.428C174.631 57.5453 174.391 57.7107 174.188 57.924C173.986 58.1373 173.826 58.388 173.708 58.676C173.591 58.9533 173.522 59.252 173.5 59.572H178.252ZM179.564 61.876C179.383 62.804 178.983 63.5027 178.364 63.972C177.746 64.4413 176.967 64.676 176.028 64.676C175.367 64.676 174.791 64.5693 174.3 64.356C173.82 64.1427 173.415 63.844 173.084 63.46C172.754 63.076 172.503 62.6173 172.332 62.084C172.172 61.5507 172.082 60.9693 172.06 60.34C172.06 59.7107 172.156 59.1347 172.348 58.612C172.54 58.0893 172.807 57.636 173.148 57.252C173.5 56.868 173.911 56.5693 174.38 56.356C174.86 56.1427 175.383 56.036 175.948 56.036C176.684 56.036 177.292 56.1907 177.772 56.5C178.263 56.7987 178.652 57.1827 178.94 57.652C179.239 58.1213 179.442 58.6333 179.548 59.188C179.666 59.7427 179.714 60.2707 179.692 60.772H173.5C173.49 61.1347 173.532 61.4813 173.628 61.812C173.724 62.132 173.879 62.42 174.092 62.676C174.306 62.9213 174.578 63.1187 174.908 63.268C175.239 63.4173 175.628 63.492 176.076 63.492C176.652 63.492 177.122 63.3587 177.484 63.092C177.858 62.8253 178.103 62.42 178.22 61.876H179.564ZM186.718 58.884C186.611 58.3613 186.387 57.956 186.046 57.668C185.705 57.38 185.246 57.236 184.67 57.236C184.179 57.236 183.769 57.3267 183.438 57.508C183.107 57.6893 182.841 57.9293 182.638 58.228C182.446 58.5267 182.307 58.8733 182.222 59.268C182.137 59.652 182.094 60.052 182.094 60.468C182.094 60.852 182.137 61.2253 182.222 61.588C182.318 61.9507 182.462 62.276 182.654 62.564C182.846 62.8413 183.097 63.0653 183.406 63.236C183.715 63.4067 184.083 63.492 184.51 63.492C185.182 63.492 185.705 63.316 186.078 62.964C186.462 62.612 186.697 62.116 186.782 61.476H188.174C188.025 62.5 187.641 63.2893 187.022 63.844C186.414 64.3987 185.582 64.676 184.526 64.676C183.897 64.676 183.337 64.5747 182.846 64.372C182.366 64.1693 181.961 63.8813 181.63 63.508C181.31 63.1347 181.065 62.692 180.894 62.18C180.734 61.6573 180.654 61.0867 180.654 60.468C180.654 59.8493 180.734 59.2733 180.894 58.74C181.054 58.196 181.294 57.7267 181.614 57.332C181.945 56.9267 182.355 56.612 182.846 56.388C183.337 56.1533 183.907 56.036 184.558 56.036C185.027 56.036 185.465 56.0947 185.87 56.212C186.286 56.3187 186.649 56.4893 186.958 56.724C187.278 56.9587 187.539 57.2573 187.742 57.62C187.945 57.972 188.073 58.3933 188.126 58.884H186.718ZM191.584 56.228H193.232V57.428H191.584V62.564C191.584 62.724 191.595 62.852 191.616 62.948C191.648 63.044 191.701 63.1187 191.776 63.172C191.851 63.2253 191.952 63.2627 192.08 63.284C192.219 63.2947 192.395 63.3 192.608 63.3H193.232V64.5H192.192C191.84 64.5 191.536 64.4787 191.28 64.436C191.035 64.3827 190.832 64.292 190.672 64.164C190.523 64.036 190.411 63.8547 190.336 63.62C190.261 63.3853 190.224 63.076 190.224 62.692V57.428H188.816V56.228H190.224V53.748H191.584V56.228ZM195.735 60.372C195.735 60.8733 195.799 61.3213 195.927 61.716C196.065 62.1 196.252 62.4253 196.487 62.692C196.721 62.948 196.993 63.1453 197.303 63.284C197.623 63.4227 197.959 63.492 198.311 63.492C198.663 63.492 198.993 63.4227 199.303 63.284C199.623 63.1453 199.9 62.948 200.135 62.692C200.369 62.4253 200.551 62.1 200.679 61.716C200.817 61.3213 200.887 60.8733 200.887 60.372C200.887 59.8707 200.817 59.428 200.679 59.044C200.551 58.6493 200.369 58.3187 200.135 58.052C199.9 57.7853 199.623 57.5827 199.303 57.444C198.993 57.3053 198.663 57.236 198.311 57.236C197.959 57.236 197.623 57.3053 197.303 57.444C196.993 57.5827 196.721 57.7853 196.487 58.052C196.252 58.3187 196.065 58.6493 195.927 59.044C195.799 59.428 195.735 59.8707 195.735 60.372ZM194.295 60.372C194.295 59.764 194.38 59.1987 194.551 58.676C194.721 58.1427 194.977 57.684 195.319 57.3C195.66 56.9053 196.081 56.596 196.583 56.372C197.084 56.148 197.66 56.036 198.311 56.036C198.972 56.036 199.548 56.148 200.039 56.372C200.54 56.596 200.961 56.9053 201.303 57.3C201.644 57.684 201.9 58.1427 202.071 58.676C202.241 59.1987 202.327 59.764 202.327 60.372C202.327 60.98 202.241 61.5453 202.071 62.068C201.9 62.5907 201.644 63.0493 201.303 63.444C200.961 63.828 200.54 64.132 200.039 64.356C199.548 64.5693 198.972 64.676 198.311 64.676C197.66 64.676 197.084 64.5693 196.583 64.356C196.081 64.132 195.66 63.828 195.319 63.444C194.977 63.0493 194.721 62.5907 194.551 62.068C194.38 61.5453 194.295 60.98 194.295 60.372ZM203.882 56.228H205.162V57.972H205.194C205.525 57.3 205.93 56.804 206.41 56.484C206.89 56.164 207.498 56.0147 208.234 56.036V57.476C207.69 57.476 207.226 57.5507 206.842 57.7C206.458 57.8493 206.149 58.068 205.914 58.356C205.68 58.644 205.509 58.996 205.402 59.412C205.296 59.8173 205.242 60.2867 205.242 60.82V64.5H203.882V56.228Z" fill="black" fill-opacity="0.68"/>
<mask id="path-2-inside-1_68375_39377" fill="white">
<path d="M270 29H510V89H270V29Z"/>
</mask>
<path d="M270 29H510V89H270V29Z" fill="black" fill-opacity="0.12"/>
<path d="M510 89V87H270V89V91H510V89Z" fill="black" mask="url(#path-2-inside-1_68375_39377)"/>
<path d="M286 49H312.8V69H286V49Z" fill="white"/>
<path d="M286 49H294.8V69H286V49Z" fill="#00267F"/>
<path d="M304 49H312.8V69H304V49Z" fill="#F31830"/>
<path d="M320.862 57.3138L326.799 63.375L332.737 57.3138L331.041 55.582L326.799 59.9123L322.559 55.582L320.862 57.3138Z" fill="black"/>
<line y1="-0.5" x2="20" y2="-0.5" transform="matrix(0 -1 -1 0 344 69)" stroke="black" stroke-opacity="0.2"/>
<path d="M362.144 60.408H365.632V61.496H362.144V65H361.056V61.496H357.568V60.408H361.056V56.904H362.144V60.408ZM370.082 58.52C370.135 58.5307 370.183 58.536 370.226 58.536C370.279 58.536 370.332 58.536 370.386 58.536H370.674C370.962 58.536 371.234 58.4987 371.49 58.424C371.756 58.3387 371.986 58.2213 372.178 58.072C372.38 57.912 372.54 57.7147 372.658 57.48C372.775 57.2453 372.834 56.9787 372.834 56.68C372.834 56.072 372.642 55.6187 372.258 55.32C371.874 55.0107 371.394 54.856 370.818 54.856C370.455 54.856 370.135 54.9253 369.858 55.064C369.591 55.192 369.367 55.368 369.186 55.592C369.015 55.816 368.887 56.0773 368.802 56.376C368.716 56.6747 368.674 56.9893 368.674 57.32H367.314C367.335 56.776 367.42 56.28 367.57 55.832C367.73 55.384 367.954 55 368.242 54.68C368.53 54.36 368.887 54.1093 369.314 53.928C369.751 53.7467 370.252 53.656 370.818 53.656C371.308 53.656 371.762 53.72 372.178 53.848C372.604 53.9653 372.972 54.1467 373.282 54.392C373.591 54.6373 373.831 54.952 374.002 55.336C374.183 55.72 374.274 56.1733 374.274 56.696C374.274 57.208 374.124 57.6613 373.826 58.056C373.527 58.4507 373.154 58.7493 372.706 58.952V58.984C373.399 59.1333 373.911 59.4587 374.242 59.96C374.583 60.4613 374.754 61.0533 374.754 61.736C374.754 62.3013 374.647 62.8027 374.434 63.24C374.231 63.6667 373.954 64.024 373.602 64.312C373.25 64.6 372.834 64.8187 372.354 64.968C371.884 65.1067 371.383 65.176 370.85 65.176C370.274 65.176 369.751 65.096 369.282 64.936C368.812 64.776 368.412 64.5413 368.082 64.232C367.751 63.912 367.495 63.5227 367.314 63.064C367.143 62.6053 367.063 62.0827 367.074 61.496H368.434C368.455 62.232 368.668 62.8347 369.074 63.304C369.479 63.7627 370.071 63.992 370.85 63.992C371.18 63.992 371.495 63.944 371.794 63.848C372.092 63.7413 372.354 63.5973 372.578 63.416C372.802 63.224 372.978 62.9947 373.106 62.728C373.244 62.4507 373.314 62.1413 373.314 61.8C373.314 61.448 373.25 61.1387 373.122 60.872C372.994 60.5947 372.823 60.3653 372.61 60.184C372.396 59.992 372.14 59.8533 371.842 59.768C371.554 59.672 371.239 59.624 370.898 59.624C370.61 59.624 370.338 59.64 370.082 59.672V58.52ZM379.172 58.52C379.226 58.5307 379.274 58.536 379.316 58.536C379.37 58.536 379.423 58.536 379.476 58.536H379.764C380.052 58.536 380.324 58.4987 380.58 58.424C380.847 58.3387 381.076 58.2213 381.268 58.072C381.471 57.912 381.631 57.7147 381.748 57.48C381.866 57.2453 381.924 56.9787 381.924 56.68C381.924 56.072 381.732 55.6187 381.348 55.32C380.964 55.0107 380.484 54.856 379.908 54.856C379.546 54.856 379.226 54.9253 378.948 55.064C378.682 55.192 378.458 55.368 378.276 55.592C378.106 55.816 377.978 56.0773 377.892 56.376C377.807 56.6747 377.764 56.9893 377.764 57.32H376.404C376.426 56.776 376.511 56.28 376.66 55.832C376.82 55.384 377.044 55 377.332 54.68C377.62 54.36 377.978 54.1093 378.404 53.928C378.842 53.7467 379.343 53.656 379.908 53.656C380.399 53.656 380.852 53.72 381.268 53.848C381.695 53.9653 382.063 54.1467 382.372 54.392C382.682 54.6373 382.922 54.952 383.092 55.336C383.274 55.72 383.364 56.1733 383.364 56.696C383.364 57.208 383.215 57.6613 382.916 58.056C382.618 58.4507 382.244 58.7493 381.796 58.952V58.984C382.49 59.1333 383.002 59.4587 383.332 59.96C383.674 60.4613 383.844 61.0533 383.844 61.736C383.844 62.3013 383.738 62.8027 383.524 63.24C383.322 63.6667 383.044 64.024 382.692 64.312C382.34 64.6 381.924 64.8187 381.444 64.968C380.975 65.1067 380.474 65.176 379.94 65.176C379.364 65.176 378.842 65.096 378.372 64.936C377.903 64.776 377.503 64.5413 377.172 64.232C376.842 63.912 376.586 63.5227 376.404 63.064C376.234 62.6053 376.154 62.0827 376.164 61.496H377.524C377.546 62.232 377.759 62.8347 378.164 63.304C378.57 63.7627 379.162 63.992 379.94 63.992C380.271 63.992 380.586 63.944 380.884 63.848C381.183 63.7413 381.444 63.5973 381.668 63.416C381.892 63.224 382.068 62.9947 382.196 62.728C382.335 62.4507 382.404 62.1413 382.404 61.8C382.404 61.448 382.34 61.1387 382.212 60.872C382.084 60.5947 381.914 60.3653 381.7 60.184C381.487 59.992 381.231 59.8533 380.932 59.768C380.644 59.672 380.33 59.624 379.988 59.624C379.7 59.624 379.428 59.64 379.172 59.672V58.52Z" fill="black" fill-opacity="0.68"/>
<path d="M392.259 52.424H393.347V68.408H392.259V52.424Z" fill="black"/>
</svg>
