<svg width="600" height="462" viewBox="0 0 600 462" fill="none" xmlns="http://www.w3.org/2000/svg">
<rect width="600" height="462" fill="black" fill-opacity="0.04"/>
<path d="M156.748 176.076H164.252V177.356H158.268V180.988H163.516V182.268H158.268V187.5H156.748V176.076ZM173.04 187.468C172.805 187.607 172.48 187.676 172.064 187.676C171.712 187.676 171.429 187.58 171.216 187.388C171.013 187.185 170.912 186.86 170.912 186.412C170.538 186.86 170.101 187.185 169.6 187.388C169.109 187.58 168.576 187.676 168 187.676C167.626 187.676 167.269 187.633 166.928 187.548C166.597 187.463 166.309 187.329 166.064 187.148C165.818 186.967 165.621 186.732 165.472 186.444C165.333 186.145 165.264 185.788 165.264 185.372C165.264 184.903 165.344 184.519 165.504 184.22C165.664 183.921 165.872 183.681 166.128 183.5C166.394 183.308 166.693 183.164 167.024 183.068C167.365 182.972 167.712 182.892 168.064 182.828C168.437 182.753 168.789 182.7 169.12 182.668C169.461 182.625 169.76 182.572 170.016 182.508C170.272 182.433 170.474 182.332 170.624 182.204C170.773 182.065 170.848 181.868 170.848 181.612C170.848 181.313 170.789 181.073 170.672 180.892C170.565 180.711 170.421 180.572 170.24 180.476C170.069 180.38 169.872 180.316 169.648 180.284C169.434 180.252 169.221 180.236 169.008 180.236C168.432 180.236 167.952 180.348 167.568 180.572C167.184 180.785 166.976 181.196 166.944 181.804H165.584C165.605 181.292 165.712 180.86 165.904 180.508C166.096 180.156 166.352 179.873 166.672 179.66C166.992 179.436 167.354 179.276 167.76 179.18C168.176 179.084 168.618 179.036 169.088 179.036C169.461 179.036 169.829 179.063 170.192 179.116C170.565 179.169 170.901 179.281 171.2 179.452C171.498 179.612 171.738 179.841 171.92 180.14C172.101 180.439 172.192 180.828 172.192 181.308V185.564C172.192 185.884 172.208 186.119 172.24 186.268C172.282 186.417 172.41 186.492 172.624 186.492C172.741 186.492 172.88 186.465 173.04 186.412V187.468ZM170.832 183.228C170.661 183.356 170.437 183.452 170.16 183.516C169.882 183.569 169.589 183.617 169.28 183.66C168.981 183.692 168.677 183.735 168.368 183.788C168.058 183.831 167.781 183.905 167.536 184.012C167.29 184.119 167.088 184.273 166.928 184.476C166.778 184.668 166.704 184.935 166.704 185.276C166.704 185.5 166.746 185.692 166.832 185.852C166.928 186.001 167.045 186.124 167.184 186.22C167.333 186.316 167.504 186.385 167.696 186.428C167.888 186.471 168.09 186.492 168.304 186.492C168.752 186.492 169.136 186.433 169.456 186.316C169.776 186.188 170.037 186.033 170.24 185.852C170.442 185.66 170.592 185.457 170.688 185.244C170.784 185.02 170.832 184.812 170.832 184.62V183.228ZM174.385 176.076H175.745V187.5H174.385V176.076ZM178.684 184.892C178.695 185.191 178.764 185.447 178.892 185.66C179.02 185.863 179.185 186.028 179.388 186.156C179.601 186.273 179.836 186.359 180.092 186.412C180.359 186.465 180.631 186.492 180.908 186.492C181.121 186.492 181.345 186.476 181.58 186.444C181.815 186.412 182.028 186.353 182.22 186.268C182.423 186.183 182.588 186.06 182.716 185.9C182.844 185.729 182.908 185.516 182.908 185.26C182.908 184.908 182.775 184.641 182.508 184.46C182.241 184.279 181.905 184.135 181.5 184.028C181.105 183.911 180.673 183.809 180.204 183.724C179.735 183.628 179.297 183.5 178.892 183.34C178.497 183.169 178.167 182.935 177.9 182.636C177.633 182.337 177.5 181.921 177.5 181.388C177.5 180.972 177.591 180.615 177.772 180.316C177.964 180.017 178.204 179.777 178.492 179.596C178.791 179.404 179.121 179.265 179.484 179.18C179.857 179.084 180.225 179.036 180.588 179.036C181.057 179.036 181.489 179.079 181.884 179.164C182.279 179.239 182.625 179.377 182.924 179.58C183.233 179.772 183.479 180.039 183.66 180.38C183.841 180.711 183.948 181.127 183.98 181.628H182.62C182.599 181.361 182.529 181.143 182.412 180.972C182.295 180.791 182.145 180.647 181.964 180.54C181.783 180.433 181.58 180.359 181.356 180.316C181.143 180.263 180.924 180.236 180.7 180.236C180.497 180.236 180.289 180.252 180.076 180.284C179.873 180.316 179.687 180.375 179.516 180.46C179.345 180.535 179.207 180.641 179.1 180.78C178.993 180.908 178.94 181.079 178.94 181.292C178.94 181.527 179.02 181.724 179.18 181.884C179.351 182.033 179.564 182.161 179.82 182.268C180.076 182.364 180.364 182.449 180.684 182.524C181.004 182.588 181.324 182.657 181.644 182.732C181.985 182.807 182.316 182.897 182.636 183.004C182.967 183.111 183.255 183.255 183.5 183.436C183.756 183.607 183.959 183.825 184.108 184.092C184.268 184.359 184.348 184.689 184.348 185.084C184.348 185.585 184.241 186.001 184.028 186.332C183.825 186.663 183.553 186.929 183.212 187.132C182.881 187.335 182.503 187.473 182.076 187.548C181.66 187.633 181.244 187.676 180.828 187.676C180.369 187.676 179.932 187.628 179.516 187.532C179.1 187.436 178.732 187.281 178.412 187.068C178.092 186.844 177.836 186.556 177.644 186.204C177.452 185.841 177.345 185.404 177.324 184.892H178.684ZM191.596 182.572C191.575 182.252 191.5 181.948 191.372 181.66C191.255 181.372 191.089 181.127 190.876 180.924C190.673 180.711 190.428 180.545 190.14 180.428C189.863 180.3 189.553 180.236 189.212 180.236C188.86 180.236 188.54 180.3 188.252 180.428C187.975 180.545 187.735 180.711 187.532 180.924C187.329 181.137 187.169 181.388 187.052 181.676C186.935 181.953 186.865 182.252 186.844 182.572H191.596ZM192.908 184.876C192.727 185.804 192.327 186.503 191.708 186.972C191.089 187.441 190.311 187.676 189.372 187.676C188.711 187.676 188.135 187.569 187.644 187.356C187.164 187.143 186.759 186.844 186.428 186.46C186.097 186.076 185.847 185.617 185.676 185.084C185.516 184.551 185.425 183.969 185.404 183.34C185.404 182.711 185.5 182.135 185.692 181.612C185.884 181.089 186.151 180.636 186.492 180.252C186.844 179.868 187.255 179.569 187.724 179.356C188.204 179.143 188.727 179.036 189.292 179.036C190.028 179.036 190.636 179.191 191.116 179.5C191.607 179.799 191.996 180.183 192.284 180.652C192.583 181.121 192.785 181.633 192.892 182.188C193.009 182.743 193.057 183.271 193.036 183.772H186.844C186.833 184.135 186.876 184.481 186.972 184.812C187.068 185.132 187.223 185.42 187.436 185.676C187.649 185.921 187.921 186.119 188.252 186.268C188.583 186.417 188.972 186.492 189.42 186.492C189.996 186.492 190.465 186.359 190.828 186.092C191.201 185.825 191.447 185.42 191.564 184.876H192.908Z" fill="black" fill-opacity="0.68"/>
<mask id="path-2-inside-1_75116_10791" fill="white">
<path d="M331.5 158H444.5V206H331.5V158Z"/>
</mask>
<path d="M331.5 158V157H330.5V158H331.5ZM444.5 158H445.5V157H444.5V158ZM444.5 206V207H445.5V206H444.5ZM331.5 206H330.5V207H331.5V206ZM331.5 158V159H444.5V158V157H331.5V158ZM444.5 158H443.5V206H444.5H445.5V158H444.5ZM444.5 206V205H331.5V206V207H444.5V206ZM331.5 206H332.5V158H331.5H330.5V206H331.5Z" fill="black" mask="url(#path-2-inside-1_75116_10791)"/>
<path d="M360.821 176.576H363.333V185.888H368.901V188H360.821V176.576ZM370.17 182.272C370.202 181.739 370.335 181.296 370.57 180.944C370.804 180.592 371.103 180.309 371.466 180.096C371.828 179.883 372.234 179.733 372.682 179.648C373.14 179.552 373.599 179.504 374.058 179.504C374.474 179.504 374.895 179.536 375.322 179.6C375.748 179.653 376.138 179.765 376.49 179.936C376.842 180.107 377.13 180.347 377.354 180.656C377.578 180.955 377.69 181.355 377.69 181.856V186.16C377.69 186.533 377.711 186.891 377.754 187.232C377.796 187.573 377.871 187.829 377.978 188H375.674C375.631 187.872 375.594 187.744 375.562 187.616C375.54 187.477 375.524 187.339 375.514 187.2C375.151 187.573 374.724 187.835 374.234 187.984C373.743 188.133 373.242 188.208 372.73 188.208C372.335 188.208 371.967 188.16 371.626 188.064C371.284 187.968 370.986 187.819 370.73 187.616C370.474 187.413 370.271 187.157 370.122 186.848C369.983 186.539 369.914 186.171 369.914 185.744C369.914 185.275 369.994 184.891 370.154 184.592C370.324 184.283 370.538 184.037 370.794 183.856C371.06 183.675 371.359 183.541 371.69 183.456C372.031 183.36 372.372 183.285 372.714 183.232C373.055 183.179 373.391 183.136 373.722 183.104C374.052 183.072 374.346 183.024 374.602 182.96C374.858 182.896 375.06 182.805 375.21 182.688C375.359 182.56 375.428 182.379 375.418 182.144C375.418 181.899 375.375 181.707 375.29 181.568C375.215 181.419 375.108 181.307 374.97 181.232C374.842 181.147 374.687 181.093 374.506 181.072C374.335 181.04 374.148 181.024 373.946 181.024C373.498 181.024 373.146 181.12 372.89 181.312C372.634 181.504 372.484 181.824 372.442 182.272H370.17ZM375.418 183.952C375.322 184.037 375.199 184.107 375.05 184.16C374.911 184.203 374.756 184.24 374.586 184.272C374.426 184.304 374.255 184.331 374.074 184.352C373.892 184.373 373.711 184.4 373.53 184.432C373.359 184.464 373.188 184.507 373.018 184.56C372.858 184.613 372.714 184.688 372.586 184.784C372.468 184.869 372.372 184.981 372.298 185.12C372.223 185.259 372.186 185.435 372.186 185.648C372.186 185.851 372.223 186.021 372.298 186.16C372.372 186.299 372.474 186.411 372.602 186.496C372.73 186.571 372.879 186.624 373.05 186.656C373.22 186.688 373.396 186.704 373.578 186.704C374.026 186.704 374.372 186.629 374.618 186.48C374.863 186.331 375.044 186.155 375.162 185.952C375.279 185.739 375.348 185.525 375.37 185.312C375.402 185.099 375.418 184.928 375.418 184.8V183.952ZM385.717 183.872C385.717 183.52 385.68 183.184 385.605 182.864C385.53 182.544 385.413 182.261 385.253 182.016C385.093 181.771 384.89 181.579 384.645 181.44C384.41 181.291 384.122 181.216 383.781 181.216C383.45 181.216 383.162 181.291 382.917 181.44C382.672 181.579 382.469 181.771 382.309 182.016C382.149 182.261 382.032 182.544 381.957 182.864C381.882 183.184 381.845 183.52 381.845 183.872C381.845 184.213 381.882 184.544 381.957 184.864C382.032 185.184 382.149 185.467 382.309 185.712C382.469 185.957 382.672 186.155 382.917 186.304C383.162 186.443 383.45 186.512 383.781 186.512C384.122 186.512 384.41 186.443 384.645 186.304C384.89 186.155 385.093 185.957 385.253 185.712C385.413 185.467 385.53 185.184 385.605 184.864C385.68 184.544 385.717 184.213 385.717 183.872ZM379.653 176.576H381.925V180.736H381.957C382.234 180.309 382.608 180 383.077 179.808C383.557 179.605 384.053 179.504 384.565 179.504C384.981 179.504 385.392 179.589 385.797 179.76C386.202 179.931 386.565 180.192 386.885 180.544C387.216 180.896 387.482 181.349 387.685 181.904C387.888 182.448 387.989 183.099 387.989 183.856C387.989 184.613 387.888 185.269 387.685 185.824C387.482 186.368 387.216 186.816 386.885 187.168C386.565 187.52 386.202 187.781 385.797 187.952C385.392 188.123 384.981 188.208 384.565 188.208C383.957 188.208 383.413 188.112 382.933 187.92C382.453 187.728 382.09 187.403 381.845 186.944H381.813V188H379.653V176.576ZM395.202 182.976C395.096 182.4 394.904 181.963 394.626 181.664C394.36 181.365 393.949 181.216 393.394 181.216C393.032 181.216 392.728 181.28 392.482 181.408C392.248 181.525 392.056 181.675 391.906 181.856C391.768 182.037 391.666 182.229 391.602 182.432C391.549 182.635 391.517 182.816 391.506 182.976H395.202ZM391.506 184.416C391.538 185.152 391.725 185.685 392.066 186.016C392.408 186.347 392.898 186.512 393.538 186.512C393.997 186.512 394.392 186.4 394.722 186.176C395.053 185.941 395.256 185.696 395.33 185.44H397.33C397.01 186.432 396.52 187.141 395.858 187.568C395.197 187.995 394.397 188.208 393.458 188.208C392.808 188.208 392.221 188.107 391.698 187.904C391.176 187.691 390.733 187.392 390.37 187.008C390.008 186.624 389.725 186.165 389.522 185.632C389.33 185.099 389.234 184.512 389.234 183.872C389.234 183.253 389.336 182.677 389.538 182.144C389.741 181.611 390.029 181.152 390.402 180.768C390.776 180.373 391.218 180.064 391.73 179.84C392.253 179.616 392.829 179.504 393.458 179.504C394.162 179.504 394.776 179.643 395.298 179.92C395.821 180.187 396.248 180.549 396.578 181.008C396.92 181.467 397.165 181.989 397.314 182.576C397.464 183.163 397.517 183.776 397.474 184.416H391.506ZM399.086 176.576H401.358V188H399.086V176.576Z" fill="black"/>
<g clip-path="url(#clip0_75116_10791)">
<path d="M412.562 180.314L418.5 186.375L424.437 180.314L422.741 178.582L418.5 182.912L414.259 178.582L412.562 180.314Z" fill="black"/>
</g>
<path d="M159.34 275.356H155.532V274.076H164.668V275.356H160.86V285.5H159.34V275.356ZM164.195 277.228H165.475V278.972H165.507C165.837 278.3 166.243 277.804 166.723 277.484C167.203 277.164 167.811 277.015 168.547 277.036V278.476C168.003 278.476 167.539 278.551 167.155 278.7C166.771 278.849 166.461 279.068 166.227 279.356C165.992 279.644 165.821 279.996 165.715 280.412C165.608 280.817 165.555 281.287 165.555 281.82V285.5H164.195V277.228ZM176.419 285.5H175.139V284.188H175.107C174.819 284.7 174.451 285.079 174.003 285.324C173.555 285.559 173.027 285.676 172.419 285.676C171.875 285.676 171.422 285.607 171.059 285.468C170.696 285.319 170.403 285.111 170.179 284.844C169.955 284.577 169.795 284.263 169.699 283.9C169.614 283.527 169.571 283.116 169.571 282.668V277.228H170.931V282.828C170.931 283.34 171.08 283.745 171.379 284.044C171.678 284.343 172.088 284.492 172.611 284.492C173.027 284.492 173.384 284.428 173.683 284.3C173.992 284.172 174.248 283.991 174.451 283.756C174.654 283.521 174.803 283.249 174.899 282.94C175.006 282.62 175.059 282.273 175.059 281.9V277.228H176.419V285.5ZM184.206 280.572C184.184 280.252 184.11 279.948 183.982 279.66C183.864 279.372 183.699 279.127 183.486 278.924C183.283 278.711 183.038 278.545 182.75 278.428C182.472 278.3 182.163 278.236 181.822 278.236C181.47 278.236 181.15 278.3 180.862 278.428C180.584 278.545 180.344 278.711 180.142 278.924C179.939 279.137 179.779 279.388 179.662 279.676C179.544 279.953 179.475 280.252 179.454 280.572H184.206ZM185.517 282.876C185.336 283.804 184.936 284.503 184.318 284.972C183.699 285.441 182.92 285.676 181.982 285.676C181.32 285.676 180.744 285.569 180.254 285.356C179.774 285.143 179.368 284.844 179.038 284.46C178.707 284.076 178.456 283.617 178.286 283.084C178.126 282.551 178.035 281.969 178.014 281.34C178.014 280.711 178.11 280.135 178.302 279.612C178.494 279.089 178.76 278.636 179.102 278.252C179.454 277.868 179.864 277.569 180.334 277.356C180.814 277.143 181.336 277.036 181.902 277.036C182.638 277.036 183.246 277.191 183.726 277.5C184.216 277.799 184.606 278.183 184.894 278.652C185.192 279.121 185.395 279.633 185.502 280.188C185.619 280.743 185.667 281.271 185.646 281.772H179.454C179.443 282.135 179.486 282.481 179.582 282.812C179.678 283.132 179.832 283.42 180.046 283.676C180.259 283.921 180.531 284.119 180.862 284.268C181.192 284.417 181.582 284.492 182.03 284.492C182.606 284.492 183.075 284.359 183.438 284.092C183.811 283.825 184.056 283.42 184.174 282.876H185.517Z" fill="black" fill-opacity="0.68"/>
<mask id="path-8-inside-2_75116_10791" fill="white">
<path d="M331.5 256H444.5V304H331.5V256Z"/>
</mask>
<path d="M331.5 256V255H330.5V256H331.5ZM444.5 256H445.5V255H444.5V256ZM444.5 304V305H445.5V304H444.5ZM331.5 304H330.5V305H331.5V304ZM331.5 256V257H444.5V256V255H331.5V256ZM444.5 256H443.5V304H444.5H445.5V256H444.5ZM444.5 304V303H331.5V304V305H444.5V304ZM331.5 304H332.5V256H331.5H330.5V304H331.5Z" fill="black" mask="url(#path-8-inside-2_75116_10791)"/>
<path d="M360.821 274.576H363.333V283.888H368.901V286H360.821V274.576ZM370.17 280.272C370.202 279.739 370.335 279.296 370.57 278.944C370.804 278.592 371.103 278.309 371.466 278.096C371.828 277.883 372.234 277.733 372.682 277.648C373.14 277.552 373.599 277.504 374.058 277.504C374.474 277.504 374.895 277.536 375.322 277.6C375.748 277.653 376.138 277.765 376.49 277.936C376.842 278.107 377.13 278.347 377.354 278.656C377.578 278.955 377.69 279.355 377.69 279.856V284.16C377.69 284.533 377.711 284.891 377.754 285.232C377.796 285.573 377.871 285.829 377.978 286H375.674C375.631 285.872 375.594 285.744 375.562 285.616C375.54 285.477 375.524 285.339 375.514 285.2C375.151 285.573 374.724 285.835 374.234 285.984C373.743 286.133 373.242 286.208 372.73 286.208C372.335 286.208 371.967 286.16 371.626 286.064C371.284 285.968 370.986 285.819 370.73 285.616C370.474 285.413 370.271 285.157 370.122 284.848C369.983 284.539 369.914 284.171 369.914 283.744C369.914 283.275 369.994 282.891 370.154 282.592C370.324 282.283 370.538 282.037 370.794 281.856C371.06 281.675 371.359 281.541 371.69 281.456C372.031 281.36 372.372 281.285 372.714 281.232C373.055 281.179 373.391 281.136 373.722 281.104C374.052 281.072 374.346 281.024 374.602 280.96C374.858 280.896 375.06 280.805 375.21 280.688C375.359 280.56 375.428 280.379 375.418 280.144C375.418 279.899 375.375 279.707 375.29 279.568C375.215 279.419 375.108 279.307 374.97 279.232C374.842 279.147 374.687 279.093 374.506 279.072C374.335 279.04 374.148 279.024 373.946 279.024C373.498 279.024 373.146 279.12 372.89 279.312C372.634 279.504 372.484 279.824 372.442 280.272H370.17ZM375.418 281.952C375.322 282.037 375.199 282.107 375.05 282.16C374.911 282.203 374.756 282.24 374.586 282.272C374.426 282.304 374.255 282.331 374.074 282.352C373.892 282.373 373.711 282.4 373.53 282.432C373.359 282.464 373.188 282.507 373.018 282.56C372.858 282.613 372.714 282.688 372.586 282.784C372.468 282.869 372.372 282.981 372.298 283.12C372.223 283.259 372.186 283.435 372.186 283.648C372.186 283.851 372.223 284.021 372.298 284.16C372.372 284.299 372.474 284.411 372.602 284.496C372.73 284.571 372.879 284.624 373.05 284.656C373.22 284.688 373.396 284.704 373.578 284.704C374.026 284.704 374.372 284.629 374.618 284.48C374.863 284.331 375.044 284.155 375.162 283.952C375.279 283.739 375.348 283.525 375.37 283.312C375.402 283.099 375.418 282.928 375.418 282.8V281.952ZM385.717 281.872C385.717 281.52 385.68 281.184 385.605 280.864C385.53 280.544 385.413 280.261 385.253 280.016C385.093 279.771 384.89 279.579 384.645 279.44C384.41 279.291 384.122 279.216 383.781 279.216C383.45 279.216 383.162 279.291 382.917 279.44C382.672 279.579 382.469 279.771 382.309 280.016C382.149 280.261 382.032 280.544 381.957 280.864C381.882 281.184 381.845 281.52 381.845 281.872C381.845 282.213 381.882 282.544 381.957 282.864C382.032 283.184 382.149 283.467 382.309 283.712C382.469 283.957 382.672 284.155 382.917 284.304C383.162 284.443 383.45 284.512 383.781 284.512C384.122 284.512 384.41 284.443 384.645 284.304C384.89 284.155 385.093 283.957 385.253 283.712C385.413 283.467 385.53 283.184 385.605 282.864C385.68 282.544 385.717 282.213 385.717 281.872ZM379.653 274.576H381.925V278.736H381.957C382.234 278.309 382.608 278 383.077 277.808C383.557 277.605 384.053 277.504 384.565 277.504C384.981 277.504 385.392 277.589 385.797 277.76C386.202 277.931 386.565 278.192 386.885 278.544C387.216 278.896 387.482 279.349 387.685 279.904C387.888 280.448 387.989 281.099 387.989 281.856C387.989 282.613 387.888 283.269 387.685 283.824C387.482 284.368 387.216 284.816 386.885 285.168C386.565 285.52 386.202 285.781 385.797 285.952C385.392 286.123 384.981 286.208 384.565 286.208C383.957 286.208 383.413 286.112 382.933 285.92C382.453 285.728 382.09 285.403 381.845 284.944H381.813V286H379.653V274.576ZM395.202 280.976C395.096 280.4 394.904 279.963 394.626 279.664C394.36 279.365 393.949 279.216 393.394 279.216C393.032 279.216 392.728 279.28 392.482 279.408C392.248 279.525 392.056 279.675 391.906 279.856C391.768 280.037 391.666 280.229 391.602 280.432C391.549 280.635 391.517 280.816 391.506 280.976H395.202ZM391.506 282.416C391.538 283.152 391.725 283.685 392.066 284.016C392.408 284.347 392.898 284.512 393.538 284.512C393.997 284.512 394.392 284.4 394.722 284.176C395.053 283.941 395.256 283.696 395.33 283.44H397.33C397.01 284.432 396.52 285.141 395.858 285.568C395.197 285.995 394.397 286.208 393.458 286.208C392.808 286.208 392.221 286.107 391.698 285.904C391.176 285.691 390.733 285.392 390.37 285.008C390.008 284.624 389.725 284.165 389.522 283.632C389.33 283.099 389.234 282.512 389.234 281.872C389.234 281.253 389.336 280.677 389.538 280.144C389.741 279.611 390.029 279.152 390.402 278.768C390.776 278.373 391.218 278.064 391.73 277.84C392.253 277.616 392.829 277.504 393.458 277.504C394.162 277.504 394.776 277.643 395.298 277.92C395.821 278.187 396.248 278.549 396.578 279.008C396.92 279.467 397.165 279.989 397.314 280.576C397.464 281.163 397.517 281.776 397.474 282.416H391.506ZM399.086 274.576H401.358V286H399.086V274.576Z" fill="black"/>
<g clip-path="url(#clip1_75116_10791)">
<path d="M424.437 281.686L418.5 275.625L412.562 281.686L414.258 283.418L418.5 279.088L422.74 283.418L424.437 281.686Z" fill="black"/>
</g>
<defs>
<clipPath id="clip0_75116_10791">
<rect width="20" height="20" fill="white" transform="translate(408.5 172)"/>
</clipPath>
<clipPath id="clip1_75116_10791">
<rect width="20" height="20" fill="white" transform="translate(408.5 270)"/>
</clipPath>
</defs>
</svg>
