<svg width="600" height="282" viewBox="0 0 600 282" fill="none" xmlns="http://www.w3.org/2000/svg">
<rect width="600" height="282" fill="black" fill-opacity="0.04"/>
<path d="M160.248 86.076H167.752V87.356H161.768V90.988H167.016V92.268H161.768V97.5H160.248V86.076ZM176.54 97.468C176.305 97.6067 175.98 97.676 175.564 97.676C175.212 97.676 174.929 97.58 174.716 97.388C174.513 97.1853 174.412 96.86 174.412 96.412C174.038 96.86 173.601 97.1853 173.1 97.388C172.609 97.58 172.076 97.676 171.5 97.676C171.126 97.676 170.769 97.6333 170.428 97.548C170.097 97.4627 169.809 97.3293 169.564 97.148C169.318 96.9667 169.121 96.732 168.972 96.444C168.833 96.1453 168.764 95.788 168.764 95.372C168.764 94.9027 168.844 94.5187 169.004 94.22C169.164 93.9213 169.372 93.6813 169.628 93.5C169.894 93.308 170.193 93.164 170.524 93.068C170.865 92.972 171.212 92.892 171.564 92.828C171.937 92.7533 172.289 92.7 172.62 92.668C172.961 92.6253 173.26 92.572 173.516 92.508C173.772 92.4333 173.974 92.332 174.124 92.204C174.273 92.0653 174.348 91.868 174.348 91.612C174.348 91.3133 174.289 91.0733 174.172 90.892C174.065 90.7107 173.921 90.572 173.74 90.476C173.569 90.38 173.372 90.316 173.148 90.284C172.934 90.252 172.721 90.236 172.508 90.236C171.932 90.236 171.452 90.348 171.068 90.572C170.684 90.7853 170.476 91.196 170.444 91.804H169.084C169.105 91.292 169.212 90.86 169.404 90.508C169.596 90.156 169.852 89.8733 170.172 89.66C170.492 89.436 170.854 89.276 171.26 89.18C171.676 89.084 172.118 89.036 172.588 89.036C172.961 89.036 173.329 89.0627 173.692 89.116C174.065 89.1693 174.401 89.2813 174.7 89.452C174.998 89.612 175.238 89.8413 175.42 90.14C175.601 90.4387 175.692 90.828 175.692 91.308V95.564C175.692 95.884 175.708 96.1187 175.74 96.268C175.782 96.4173 175.91 96.492 176.124 96.492C176.241 96.492 176.38 96.4653 176.54 96.412V97.468ZM174.332 93.228C174.161 93.356 173.937 93.452 173.66 93.516C173.382 93.5693 173.089 93.6173 172.78 93.66C172.481 93.692 172.177 93.7347 171.868 93.788C171.558 93.8307 171.281 93.9053 171.036 94.012C170.79 94.1187 170.588 94.2733 170.428 94.476C170.278 94.668 170.204 94.9347 170.204 95.276C170.204 95.5 170.246 95.692 170.332 95.852C170.428 96.0013 170.545 96.124 170.684 96.22C170.833 96.316 171.004 96.3853 171.196 96.428C171.388 96.4707 171.59 96.492 171.804 96.492C172.252 96.492 172.636 96.4333 172.956 96.316C173.276 96.188 173.537 96.0333 173.74 95.852C173.942 95.66 174.092 95.4573 174.188 95.244C174.284 95.02 174.332 94.812 174.332 94.62V93.228ZM177.885 86.076H179.245V97.5H177.885V86.076ZM182.184 94.892C182.195 95.1907 182.264 95.4467 182.392 95.66C182.52 95.8627 182.685 96.028 182.888 96.156C183.101 96.2733 183.336 96.3587 183.592 96.412C183.859 96.4653 184.131 96.492 184.408 96.492C184.621 96.492 184.845 96.476 185.08 96.444C185.315 96.412 185.528 96.3533 185.72 96.268C185.923 96.1827 186.088 96.06 186.216 95.9C186.344 95.7293 186.408 95.516 186.408 95.26C186.408 94.908 186.275 94.6413 186.008 94.46C185.741 94.2787 185.405 94.1347 185 94.028C184.605 93.9107 184.173 93.8093 183.704 93.724C183.235 93.628 182.797 93.5 182.392 93.34C181.997 93.1693 181.667 92.9347 181.4 92.636C181.133 92.3373 181 91.9213 181 91.388C181 90.972 181.091 90.6147 181.272 90.316C181.464 90.0173 181.704 89.7773 181.992 89.596C182.291 89.404 182.621 89.2653 182.984 89.18C183.357 89.084 183.725 89.036 184.088 89.036C184.557 89.036 184.989 89.0787 185.384 89.164C185.779 89.2387 186.125 89.3773 186.424 89.58C186.733 89.772 186.979 90.0387 187.16 90.38C187.341 90.7107 187.448 91.1267 187.48 91.628H186.12C186.099 91.3613 186.029 91.1427 185.912 90.972C185.795 90.7907 185.645 90.6467 185.464 90.54C185.283 90.4333 185.08 90.3587 184.856 90.316C184.643 90.2627 184.424 90.236 184.2 90.236C183.997 90.236 183.789 90.252 183.576 90.284C183.373 90.316 183.187 90.3747 183.016 90.46C182.845 90.5347 182.707 90.6413 182.6 90.78C182.493 90.908 182.44 91.0787 182.44 91.292C182.44 91.5267 182.52 91.724 182.68 91.884C182.851 92.0333 183.064 92.1613 183.32 92.268C183.576 92.364 183.864 92.4493 184.184 92.524C184.504 92.588 184.824 92.6573 185.144 92.732C185.485 92.8067 185.816 92.8973 186.136 93.004C186.467 93.1107 186.755 93.2547 187 93.436C187.256 93.6067 187.459 93.8253 187.608 94.092C187.768 94.3587 187.848 94.6893 187.848 95.084C187.848 95.5853 187.741 96.0013 187.528 96.332C187.325 96.6627 187.053 96.9293 186.712 97.132C186.381 97.3347 186.003 97.4733 185.576 97.548C185.16 97.6333 184.744 97.676 184.328 97.676C183.869 97.676 183.432 97.628 183.016 97.532C182.6 97.436 182.232 97.2813 181.912 97.068C181.592 96.844 181.336 96.556 181.144 96.204C180.952 95.8413 180.845 95.404 180.824 94.892H182.184ZM195.096 92.572C195.075 92.252 195 91.948 194.872 91.66C194.755 91.372 194.589 91.1267 194.376 90.924C194.173 90.7107 193.928 90.5453 193.64 90.428C193.363 90.3 193.053 90.236 192.712 90.236C192.36 90.236 192.04 90.3 191.752 90.428C191.475 90.5453 191.235 90.7107 191.032 90.924C190.829 91.1373 190.669 91.388 190.552 91.676C190.435 91.9533 190.365 92.252 190.344 92.572H195.096ZM196.408 94.876C196.227 95.804 195.827 96.5027 195.208 96.972C194.589 97.4413 193.811 97.676 192.872 97.676C192.211 97.676 191.635 97.5693 191.144 97.356C190.664 97.1427 190.259 96.844 189.928 96.46C189.597 96.076 189.347 95.6173 189.176 95.084C189.016 94.5507 188.925 93.9693 188.904 93.34C188.904 92.7107 189 92.1347 189.192 91.612C189.384 91.0893 189.651 90.636 189.992 90.252C190.344 89.868 190.755 89.5693 191.224 89.356C191.704 89.1427 192.227 89.036 192.792 89.036C193.528 89.036 194.136 89.1907 194.616 89.5C195.107 89.7987 195.496 90.1827 195.784 90.652C196.083 91.1213 196.285 91.6333 196.392 92.188C196.509 92.7427 196.557 93.2707 196.536 93.772H190.344C190.333 94.1347 190.376 94.4813 190.472 94.812C190.568 95.132 190.723 95.42 190.936 95.676C191.149 95.9213 191.421 96.1187 191.752 96.268C192.083 96.4173 192.472 96.492 192.92 96.492C193.496 96.492 193.965 96.3587 194.328 96.092C194.701 95.8253 194.947 95.42 195.064 94.876H196.408Z" fill="black" fill-opacity="0.68"/>
<mask id="path-2-inside-1_75116_10856" fill="white">
<path d="M335 68H441V116H335V68Z"/>
</mask>
<path d="M335 68V67H334V68H335ZM441 68H442V67H441V68ZM441 116V117H442V116H441ZM335 116H334V117H335V116ZM335 68V69H441V68V67H335V68ZM441 68H440V116H441H442V68H441ZM441 116V115H335V116V117H441V116ZM335 116H336V68H335H334V116H335Z" fill="black" mask="url(#path-2-inside-1_75116_10856)"/>
<path d="M364.171 86.576H366.667L371.435 94.24H371.467V86.576H373.819V98H371.307L366.555 90.352H366.523V98H364.171V86.576ZM381.559 92.976C381.452 92.4 381.26 91.9627 380.983 91.664C380.716 91.3653 380.305 91.216 379.751 91.216C379.388 91.216 379.084 91.28 378.839 91.408C378.604 91.5253 378.412 91.6747 378.263 91.856C378.124 92.0373 378.023 92.2293 377.959 92.432C377.905 92.6347 377.873 92.816 377.863 92.976H381.559ZM377.863 94.416C377.895 95.152 378.081 95.6853 378.423 96.016C378.764 96.3467 379.255 96.512 379.895 96.512C380.353 96.512 380.748 96.4 381.079 96.176C381.409 95.9413 381.612 95.696 381.687 95.44H383.687C383.367 96.432 382.876 97.1413 382.215 97.568C381.553 97.9947 380.753 98.208 379.815 98.208C379.164 98.208 378.577 98.1067 378.055 97.904C377.532 97.6907 377.089 97.392 376.727 97.008C376.364 96.624 376.081 96.1653 375.879 95.632C375.687 95.0987 375.591 94.512 375.591 93.872C375.591 93.2533 375.692 92.6773 375.895 92.144C376.097 91.6107 376.385 91.152 376.759 90.768C377.132 90.3733 377.575 90.064 378.087 89.84C378.609 89.616 379.185 89.504 379.815 89.504C380.519 89.504 381.132 89.6427 381.655 89.92C382.177 90.1867 382.604 90.5493 382.935 91.008C383.276 91.4667 383.521 91.9893 383.671 92.576C383.82 93.1627 383.873 93.776 383.831 94.416H377.863ZM387.49 93.648L384.77 89.728H387.362L388.818 91.888L390.258 89.728H392.77L390.05 93.6L393.106 98H390.514L388.786 95.392L387.058 98H384.514L387.49 93.648ZM397.052 89.728H398.716V91.248H397.052V95.344C397.052 95.728 397.116 95.984 397.244 96.112C397.372 96.24 397.628 96.304 398.012 96.304C398.14 96.304 398.262 96.2987 398.38 96.288C398.497 96.2773 398.609 96.2613 398.716 96.24V98C398.524 98.032 398.31 98.0533 398.076 98.064C397.841 98.0747 397.612 98.08 397.388 98.08C397.036 98.08 396.7 98.0533 396.38 98C396.07 97.9573 395.793 97.8667 395.548 97.728C395.313 97.5893 395.126 97.392 394.988 97.136C394.849 96.88 394.78 96.544 394.78 96.128V91.248H393.404V89.728H394.78V87.248H397.052V89.728Z" fill="black"/>
<g clip-path="url(#clip0_75116_10856)">
<path d="M413.314 97.9375L419.375 92L413.314 86.0625L411.582 87.7581L415.912 92L411.582 96.2402L413.314 97.9375Z" fill="black"/>
</g>
<path d="M162.84 185.356H159.032V184.076H168.168V185.356H164.36V195.5H162.84V185.356ZM167.695 187.228H168.975V188.972H169.007C169.337 188.3 169.743 187.804 170.223 187.484C170.703 187.164 171.311 187.015 172.047 187.036V188.476C171.503 188.476 171.039 188.551 170.655 188.7C170.271 188.849 169.961 189.068 169.727 189.356C169.492 189.644 169.321 189.996 169.215 190.412C169.108 190.817 169.055 191.287 169.055 191.82V195.5H167.695V187.228ZM179.919 195.5H178.639V194.188H178.607C178.319 194.7 177.951 195.079 177.503 195.324C177.055 195.559 176.527 195.676 175.919 195.676C175.375 195.676 174.922 195.607 174.559 195.468C174.196 195.319 173.903 195.111 173.679 194.844C173.455 194.577 173.295 194.263 173.199 193.9C173.114 193.527 173.071 193.116 173.071 192.668V187.228H174.431V192.828C174.431 193.34 174.58 193.745 174.879 194.044C175.178 194.343 175.588 194.492 176.111 194.492C176.527 194.492 176.884 194.428 177.183 194.3C177.492 194.172 177.748 193.991 177.951 193.756C178.154 193.521 178.303 193.249 178.399 192.94C178.506 192.62 178.559 192.273 178.559 191.9V187.228H179.919V195.5ZM187.706 190.572C187.684 190.252 187.61 189.948 187.482 189.66C187.364 189.372 187.199 189.127 186.986 188.924C186.783 188.711 186.538 188.545 186.25 188.428C185.972 188.3 185.663 188.236 185.322 188.236C184.97 188.236 184.65 188.3 184.362 188.428C184.084 188.545 183.844 188.711 183.642 188.924C183.439 189.137 183.279 189.388 183.162 189.676C183.044 189.953 182.975 190.252 182.954 190.572H187.706ZM189.017 192.876C188.836 193.804 188.436 194.503 187.818 194.972C187.199 195.441 186.42 195.676 185.482 195.676C184.82 195.676 184.244 195.569 183.754 195.356C183.274 195.143 182.868 194.844 182.538 194.46C182.207 194.076 181.956 193.617 181.786 193.084C181.626 192.551 181.535 191.969 181.514 191.34C181.514 190.711 181.61 190.135 181.802 189.612C181.994 189.089 182.26 188.636 182.602 188.252C182.954 187.868 183.364 187.569 183.834 187.356C184.314 187.143 184.836 187.036 185.402 187.036C186.138 187.036 186.746 187.191 187.226 187.5C187.716 187.799 188.106 188.183 188.394 188.652C188.692 189.121 188.895 189.633 189.002 190.188C189.119 190.743 189.167 191.271 189.146 191.772H182.954C182.943 192.135 182.986 192.481 183.082 192.812C183.178 193.132 183.332 193.42 183.546 193.676C183.759 193.921 184.031 194.119 184.362 194.268C184.692 194.417 185.082 194.492 185.53 194.492C186.106 194.492 186.575 194.359 186.938 194.092C187.311 193.825 187.556 193.42 187.674 192.876H189.017Z" fill="black" fill-opacity="0.68"/>
<mask id="path-8-inside-2_75116_10856" fill="white">
<path d="M335 174C335 169.582 338.582 166 343 166H433C437.418 166 441 169.582 441 174V206C441 210.418 437.418 214 433 214H343C338.582 214 335 210.418 335 206V174Z"/>
</mask>
<path d="M343 166V167H433V166V165H343V166ZM441 174H440V206H441H442V174H441ZM433 214V213H343V214V215H433V214ZM335 206H336V174H335H334V206H335ZM343 214V213C339.134 213 336 209.866 336 206H335H334C334 210.971 338.029 215 343 215V214ZM441 206H440C440 209.866 436.866 213 433 213V214V215C437.971 215 442 210.971 442 206H441ZM433 166V167C436.866 167 440 170.134 440 174H441H442C442 169.029 437.971 165 433 165V166ZM343 166V165C338.029 165 334 169.029 334 174H335H336C336 170.134 339.134 167 343 167V166Z" fill="black" mask="url(#path-8-inside-2_75116_10856)"/>
<path d="M364.171 184.576H366.667L371.435 192.24H371.467V184.576H373.819V196H371.307L366.555 188.352H366.523V196H364.171V184.576ZM381.559 190.976C381.452 190.4 381.26 189.963 380.983 189.664C380.716 189.365 380.305 189.216 379.751 189.216C379.388 189.216 379.084 189.28 378.839 189.408C378.604 189.525 378.412 189.675 378.263 189.856C378.124 190.037 378.023 190.229 377.959 190.432C377.905 190.635 377.873 190.816 377.863 190.976H381.559ZM377.863 192.416C377.895 193.152 378.081 193.685 378.423 194.016C378.764 194.347 379.255 194.512 379.895 194.512C380.353 194.512 380.748 194.4 381.079 194.176C381.409 193.941 381.612 193.696 381.687 193.44H383.687C383.367 194.432 382.876 195.141 382.215 195.568C381.553 195.995 380.753 196.208 379.815 196.208C379.164 196.208 378.577 196.107 378.055 195.904C377.532 195.691 377.089 195.392 376.727 195.008C376.364 194.624 376.081 194.165 375.879 193.632C375.687 193.099 375.591 192.512 375.591 191.872C375.591 191.253 375.692 190.677 375.895 190.144C376.097 189.611 376.385 189.152 376.759 188.768C377.132 188.373 377.575 188.064 378.087 187.84C378.609 187.616 379.185 187.504 379.815 187.504C380.519 187.504 381.132 187.643 381.655 187.92C382.177 188.187 382.604 188.549 382.935 189.008C383.276 189.467 383.521 189.989 383.671 190.576C383.82 191.163 383.873 191.776 383.831 192.416H377.863ZM387.49 191.648L384.77 187.728H387.362L388.818 189.888L390.258 187.728H392.77L390.05 191.6L393.106 196H390.514L388.786 193.392L387.058 196H384.514L387.49 191.648ZM397.052 187.728H398.716V189.248H397.052V193.344C397.052 193.728 397.116 193.984 397.244 194.112C397.372 194.24 397.628 194.304 398.012 194.304C398.14 194.304 398.262 194.299 398.38 194.288C398.497 194.277 398.609 194.261 398.716 194.24V196C398.524 196.032 398.31 196.053 398.076 196.064C397.841 196.075 397.612 196.08 397.388 196.08C397.036 196.08 396.7 196.053 396.38 196C396.07 195.957 395.793 195.867 395.548 195.728C395.313 195.589 395.126 195.392 394.988 195.136C394.849 194.88 394.78 194.544 394.78 194.128V189.248H393.404V187.728H394.78V185.248H397.052V187.728Z" fill="black"/>
<g clip-path="url(#clip1_75116_10856)">
<path d="M413.314 195.938L419.375 190L413.314 184.062L411.582 185.758L415.912 190L411.582 194.24L413.314 195.938Z" fill="black"/>
</g>
<defs>
<clipPath id="clip0_75116_10856">
<rect width="20" height="20" fill="white" transform="translate(405 82)"/>
</clipPath>
<clipPath id="clip1_75116_10856">
<rect width="20" height="20" fill="white" transform="translate(405 180)"/>
</clipPath>
</defs>
</svg>
