<svg width="600" height="492" viewBox="0 0 600 492" fill="none" xmlns="http://www.w3.org/2000/svg">
<rect width="600" height="492" fill="black" fill-opacity="0.04"/>
<path d="M156.748 191.076H164.252V192.356H158.268V195.988H163.516V197.268H158.268V202.5H156.748V191.076ZM173.04 202.468C172.805 202.607 172.48 202.676 172.064 202.676C171.712 202.676 171.429 202.58 171.216 202.388C171.013 202.185 170.912 201.86 170.912 201.412C170.538 201.86 170.101 202.185 169.6 202.388C169.109 202.58 168.576 202.676 168 202.676C167.626 202.676 167.269 202.633 166.928 202.548C166.597 202.463 166.309 202.329 166.064 202.148C165.818 201.967 165.621 201.732 165.472 201.444C165.333 201.145 165.264 200.788 165.264 200.372C165.264 199.903 165.344 199.519 165.504 199.22C165.664 198.921 165.872 198.681 166.128 198.5C166.394 198.308 166.693 198.164 167.024 198.068C167.365 197.972 167.712 197.892 168.064 197.828C168.437 197.753 168.789 197.7 169.12 197.668C169.461 197.625 169.76 197.572 170.016 197.508C170.272 197.433 170.474 197.332 170.624 197.204C170.773 197.065 170.848 196.868 170.848 196.612C170.848 196.313 170.789 196.073 170.672 195.892C170.565 195.711 170.421 195.572 170.24 195.476C170.069 195.38 169.872 195.316 169.648 195.284C169.434 195.252 169.221 195.236 169.008 195.236C168.432 195.236 167.952 195.348 167.568 195.572C167.184 195.785 166.976 196.196 166.944 196.804H165.584C165.605 196.292 165.712 195.86 165.904 195.508C166.096 195.156 166.352 194.873 166.672 194.66C166.992 194.436 167.354 194.276 167.76 194.18C168.176 194.084 168.618 194.036 169.088 194.036C169.461 194.036 169.829 194.063 170.192 194.116C170.565 194.169 170.901 194.281 171.2 194.452C171.498 194.612 171.738 194.841 171.92 195.14C172.101 195.439 172.192 195.828 172.192 196.308V200.564C172.192 200.884 172.208 201.119 172.24 201.268C172.282 201.417 172.41 201.492 172.624 201.492C172.741 201.492 172.88 201.465 173.04 201.412V202.468ZM170.832 198.228C170.661 198.356 170.437 198.452 170.16 198.516C169.882 198.569 169.589 198.617 169.28 198.66C168.981 198.692 168.677 198.735 168.368 198.788C168.058 198.831 167.781 198.905 167.536 199.012C167.29 199.119 167.088 199.273 166.928 199.476C166.778 199.668 166.704 199.935 166.704 200.276C166.704 200.5 166.746 200.692 166.832 200.852C166.928 201.001 167.045 201.124 167.184 201.22C167.333 201.316 167.504 201.385 167.696 201.428C167.888 201.471 168.09 201.492 168.304 201.492C168.752 201.492 169.136 201.433 169.456 201.316C169.776 201.188 170.037 201.033 170.24 200.852C170.442 200.66 170.592 200.457 170.688 200.244C170.784 200.02 170.832 199.812 170.832 199.62V198.228ZM174.385 191.076H175.745V202.5H174.385V191.076ZM178.684 199.892C178.695 200.191 178.764 200.447 178.892 200.66C179.02 200.863 179.185 201.028 179.388 201.156C179.601 201.273 179.836 201.359 180.092 201.412C180.359 201.465 180.631 201.492 180.908 201.492C181.121 201.492 181.345 201.476 181.58 201.444C181.815 201.412 182.028 201.353 182.22 201.268C182.423 201.183 182.588 201.06 182.716 200.9C182.844 200.729 182.908 200.516 182.908 200.26C182.908 199.908 182.775 199.641 182.508 199.46C182.241 199.279 181.905 199.135 181.5 199.028C181.105 198.911 180.673 198.809 180.204 198.724C179.735 198.628 179.297 198.5 178.892 198.34C178.497 198.169 178.167 197.935 177.9 197.636C177.633 197.337 177.5 196.921 177.5 196.388C177.5 195.972 177.591 195.615 177.772 195.316C177.964 195.017 178.204 194.777 178.492 194.596C178.791 194.404 179.121 194.265 179.484 194.18C179.857 194.084 180.225 194.036 180.588 194.036C181.057 194.036 181.489 194.079 181.884 194.164C182.279 194.239 182.625 194.377 182.924 194.58C183.233 194.772 183.479 195.039 183.66 195.38C183.841 195.711 183.948 196.127 183.98 196.628H182.62C182.599 196.361 182.529 196.143 182.412 195.972C182.295 195.791 182.145 195.647 181.964 195.54C181.783 195.433 181.58 195.359 181.356 195.316C181.143 195.263 180.924 195.236 180.7 195.236C180.497 195.236 180.289 195.252 180.076 195.284C179.873 195.316 179.687 195.375 179.516 195.46C179.345 195.535 179.207 195.641 179.1 195.78C178.993 195.908 178.94 196.079 178.94 196.292C178.94 196.527 179.02 196.724 179.18 196.884C179.351 197.033 179.564 197.161 179.82 197.268C180.076 197.364 180.364 197.449 180.684 197.524C181.004 197.588 181.324 197.657 181.644 197.732C181.985 197.807 182.316 197.897 182.636 198.004C182.967 198.111 183.255 198.255 183.5 198.436C183.756 198.607 183.959 198.825 184.108 199.092C184.268 199.359 184.348 199.689 184.348 200.084C184.348 200.585 184.241 201.001 184.028 201.332C183.825 201.663 183.553 201.929 183.212 202.132C182.881 202.335 182.503 202.473 182.076 202.548C181.66 202.633 181.244 202.676 180.828 202.676C180.369 202.676 179.932 202.628 179.516 202.532C179.1 202.436 178.732 202.281 178.412 202.068C178.092 201.844 177.836 201.556 177.644 201.204C177.452 200.841 177.345 200.404 177.324 199.892H178.684ZM191.596 197.572C191.575 197.252 191.5 196.948 191.372 196.66C191.255 196.372 191.089 196.127 190.876 195.924C190.673 195.711 190.428 195.545 190.14 195.428C189.863 195.3 189.553 195.236 189.212 195.236C188.86 195.236 188.54 195.3 188.252 195.428C187.975 195.545 187.735 195.711 187.532 195.924C187.329 196.137 187.169 196.388 187.052 196.676C186.935 196.953 186.865 197.252 186.844 197.572H191.596ZM192.908 199.876C192.727 200.804 192.327 201.503 191.708 201.972C191.089 202.441 190.311 202.676 189.372 202.676C188.711 202.676 188.135 202.569 187.644 202.356C187.164 202.143 186.759 201.844 186.428 201.46C186.097 201.076 185.847 200.617 185.676 200.084C185.516 199.551 185.425 198.969 185.404 198.34C185.404 197.711 185.5 197.135 185.692 196.612C185.884 196.089 186.151 195.636 186.492 195.252C186.844 194.868 187.255 194.569 187.724 194.356C188.204 194.143 188.727 194.036 189.292 194.036C190.028 194.036 190.636 194.191 191.116 194.5C191.607 194.799 191.996 195.183 192.284 195.652C192.583 196.121 192.785 196.633 192.892 197.188C193.009 197.743 193.057 198.271 193.036 198.772H186.844C186.833 199.135 186.876 199.481 186.972 199.812C187.068 200.132 187.223 200.42 187.436 200.676C187.649 200.921 187.921 201.119 188.252 201.268C188.583 201.417 188.972 201.492 189.42 201.492C189.996 201.492 190.465 201.359 190.828 201.092C191.201 200.825 191.447 200.42 191.564 199.876H192.908Z" fill="black" fill-opacity="0.68"/>
<mask id="path-2-inside-1_75116_10806" fill="white">
<path d="M331.5 173H444.5V221H331.5V173Z"/>
</mask>
<path d="M331.5 173V172H330.5V173H331.5ZM444.5 173H445.5V172H444.5V173ZM444.5 221V222H445.5V221H444.5ZM331.5 221H330.5V222H331.5V221ZM331.5 173V174H444.5V173V172H331.5V173ZM444.5 173H443.5V221H444.5H445.5V173H444.5ZM444.5 221V220H331.5V221V222H444.5V221ZM331.5 221H332.5V173H331.5H330.5V221H331.5Z" fill="black" mask="url(#path-2-inside-1_75116_10806)"/>
<path d="M360.821 191.576H363.333V200.888H368.901V203H360.821V191.576ZM370.17 197.272C370.202 196.739 370.335 196.296 370.57 195.944C370.804 195.592 371.103 195.309 371.466 195.096C371.828 194.883 372.234 194.733 372.682 194.648C373.14 194.552 373.599 194.504 374.058 194.504C374.474 194.504 374.895 194.536 375.322 194.6C375.748 194.653 376.138 194.765 376.49 194.936C376.842 195.107 377.13 195.347 377.354 195.656C377.578 195.955 377.69 196.355 377.69 196.856V201.16C377.69 201.533 377.711 201.891 377.754 202.232C377.796 202.573 377.871 202.829 377.978 203H375.674C375.631 202.872 375.594 202.744 375.562 202.616C375.54 202.477 375.524 202.339 375.514 202.2C375.151 202.573 374.724 202.835 374.234 202.984C373.743 203.133 373.242 203.208 372.73 203.208C372.335 203.208 371.967 203.16 371.626 203.064C371.284 202.968 370.986 202.819 370.73 202.616C370.474 202.413 370.271 202.157 370.122 201.848C369.983 201.539 369.914 201.171 369.914 200.744C369.914 200.275 369.994 199.891 370.154 199.592C370.324 199.283 370.538 199.037 370.794 198.856C371.06 198.675 371.359 198.541 371.69 198.456C372.031 198.36 372.372 198.285 372.714 198.232C373.055 198.179 373.391 198.136 373.722 198.104C374.052 198.072 374.346 198.024 374.602 197.96C374.858 197.896 375.06 197.805 375.21 197.688C375.359 197.56 375.428 197.379 375.418 197.144C375.418 196.899 375.375 196.707 375.29 196.568C375.215 196.419 375.108 196.307 374.97 196.232C374.842 196.147 374.687 196.093 374.506 196.072C374.335 196.04 374.148 196.024 373.946 196.024C373.498 196.024 373.146 196.12 372.89 196.312C372.634 196.504 372.484 196.824 372.442 197.272H370.17ZM375.418 198.952C375.322 199.037 375.199 199.107 375.05 199.16C374.911 199.203 374.756 199.24 374.586 199.272C374.426 199.304 374.255 199.331 374.074 199.352C373.892 199.373 373.711 199.4 373.53 199.432C373.359 199.464 373.188 199.507 373.018 199.56C372.858 199.613 372.714 199.688 372.586 199.784C372.468 199.869 372.372 199.981 372.298 200.12C372.223 200.259 372.186 200.435 372.186 200.648C372.186 200.851 372.223 201.021 372.298 201.16C372.372 201.299 372.474 201.411 372.602 201.496C372.73 201.571 372.879 201.624 373.05 201.656C373.22 201.688 373.396 201.704 373.578 201.704C374.026 201.704 374.372 201.629 374.618 201.48C374.863 201.331 375.044 201.155 375.162 200.952C375.279 200.739 375.348 200.525 375.37 200.312C375.402 200.099 375.418 199.928 375.418 199.8V198.952ZM385.717 198.872C385.717 198.52 385.68 198.184 385.605 197.864C385.53 197.544 385.413 197.261 385.253 197.016C385.093 196.771 384.89 196.579 384.645 196.44C384.41 196.291 384.122 196.216 383.781 196.216C383.45 196.216 383.162 196.291 382.917 196.44C382.672 196.579 382.469 196.771 382.309 197.016C382.149 197.261 382.032 197.544 381.957 197.864C381.882 198.184 381.845 198.52 381.845 198.872C381.845 199.213 381.882 199.544 381.957 199.864C382.032 200.184 382.149 200.467 382.309 200.712C382.469 200.957 382.672 201.155 382.917 201.304C383.162 201.443 383.45 201.512 383.781 201.512C384.122 201.512 384.41 201.443 384.645 201.304C384.89 201.155 385.093 200.957 385.253 200.712C385.413 200.467 385.53 200.184 385.605 199.864C385.68 199.544 385.717 199.213 385.717 198.872ZM379.653 191.576H381.925V195.736H381.957C382.234 195.309 382.608 195 383.077 194.808C383.557 194.605 384.053 194.504 384.565 194.504C384.981 194.504 385.392 194.589 385.797 194.76C386.202 194.931 386.565 195.192 386.885 195.544C387.216 195.896 387.482 196.349 387.685 196.904C387.888 197.448 387.989 198.099 387.989 198.856C387.989 199.613 387.888 200.269 387.685 200.824C387.482 201.368 387.216 201.816 386.885 202.168C386.565 202.52 386.202 202.781 385.797 202.952C385.392 203.123 384.981 203.208 384.565 203.208C383.957 203.208 383.413 203.112 382.933 202.92C382.453 202.728 382.09 202.403 381.845 201.944H381.813V203H379.653V191.576ZM395.202 197.976C395.096 197.4 394.904 196.963 394.626 196.664C394.36 196.365 393.949 196.216 393.394 196.216C393.032 196.216 392.728 196.28 392.482 196.408C392.248 196.525 392.056 196.675 391.906 196.856C391.768 197.037 391.666 197.229 391.602 197.432C391.549 197.635 391.517 197.816 391.506 197.976H395.202ZM391.506 199.416C391.538 200.152 391.725 200.685 392.066 201.016C392.408 201.347 392.898 201.512 393.538 201.512C393.997 201.512 394.392 201.4 394.722 201.176C395.053 200.941 395.256 200.696 395.33 200.44H397.33C397.01 201.432 396.52 202.141 395.858 202.568C395.197 202.995 394.397 203.208 393.458 203.208C392.808 203.208 392.221 203.107 391.698 202.904C391.176 202.691 390.733 202.392 390.37 202.008C390.008 201.624 389.725 201.165 389.522 200.632C389.33 200.099 389.234 199.512 389.234 198.872C389.234 198.253 389.336 197.677 389.538 197.144C389.741 196.611 390.029 196.152 390.402 195.768C390.776 195.373 391.218 195.064 391.73 194.84C392.253 194.616 392.829 194.504 393.458 194.504C394.162 194.504 394.776 194.643 395.298 194.92C395.821 195.187 396.248 195.549 396.578 196.008C396.92 196.467 397.165 196.989 397.314 197.576C397.464 198.163 397.517 198.776 397.474 199.416H391.506ZM399.086 191.576H401.358V203H399.086V191.576Z" fill="black"/>
<g clip-path="url(#clip0_75116_10806)">
<path d="M412.562 195.314L418.5 201.375L424.437 195.314L422.741 193.582L418.5 197.912L414.259 193.582L412.562 195.314Z" fill="black"/>
</g>
<path d="M159.34 290.356H155.532V289.076H164.668V290.356H160.86V300.5H159.34V290.356ZM164.195 292.228H165.475V293.972H165.507C165.837 293.3 166.243 292.804 166.723 292.484C167.203 292.164 167.811 292.015 168.547 292.036V293.476C168.003 293.476 167.539 293.551 167.155 293.7C166.771 293.849 166.461 294.068 166.227 294.356C165.992 294.644 165.821 294.996 165.715 295.412C165.608 295.817 165.555 296.287 165.555 296.82V300.5H164.195V292.228ZM176.419 300.5H175.139V299.188H175.107C174.819 299.7 174.451 300.079 174.003 300.324C173.555 300.559 173.027 300.676 172.419 300.676C171.875 300.676 171.422 300.607 171.059 300.468C170.696 300.319 170.403 300.111 170.179 299.844C169.955 299.577 169.795 299.263 169.699 298.9C169.614 298.527 169.571 298.116 169.571 297.668V292.228H170.931V297.828C170.931 298.34 171.08 298.745 171.379 299.044C171.678 299.343 172.088 299.492 172.611 299.492C173.027 299.492 173.384 299.428 173.683 299.3C173.992 299.172 174.248 298.991 174.451 298.756C174.654 298.521 174.803 298.249 174.899 297.94C175.006 297.62 175.059 297.273 175.059 296.9V292.228H176.419V300.5ZM184.206 295.572C184.184 295.252 184.11 294.948 183.982 294.66C183.864 294.372 183.699 294.127 183.486 293.924C183.283 293.711 183.038 293.545 182.75 293.428C182.472 293.3 182.163 293.236 181.822 293.236C181.47 293.236 181.15 293.3 180.862 293.428C180.584 293.545 180.344 293.711 180.142 293.924C179.939 294.137 179.779 294.388 179.662 294.676C179.544 294.953 179.475 295.252 179.454 295.572H184.206ZM185.517 297.876C185.336 298.804 184.936 299.503 184.318 299.972C183.699 300.441 182.92 300.676 181.982 300.676C181.32 300.676 180.744 300.569 180.254 300.356C179.774 300.143 179.368 299.844 179.038 299.46C178.707 299.076 178.456 298.617 178.286 298.084C178.126 297.551 178.035 296.969 178.014 296.34C178.014 295.711 178.11 295.135 178.302 294.612C178.494 294.089 178.76 293.636 179.102 293.252C179.454 292.868 179.864 292.569 180.334 292.356C180.814 292.143 181.336 292.036 181.902 292.036C182.638 292.036 183.246 292.191 183.726 292.5C184.216 292.799 184.606 293.183 184.894 293.652C185.192 294.121 185.395 294.633 185.502 295.188C185.619 295.743 185.667 296.271 185.646 296.772H179.454C179.443 297.135 179.486 297.481 179.582 297.812C179.678 298.132 179.832 298.42 180.046 298.676C180.259 298.921 180.531 299.119 180.862 299.268C181.192 299.417 181.582 299.492 182.03 299.492C182.606 299.492 183.075 299.359 183.438 299.092C183.811 298.825 184.056 298.42 184.174 297.876H185.517Z" fill="black" fill-opacity="0.68"/>
<mask id="path-8-inside-2_75116_10806" fill="white">
<path d="M372.5 271H444.5V319H372.5V271Z"/>
</mask>
<path d="M372.5 271V270H371.5V271H372.5ZM444.5 271H445.5V270H444.5V271ZM444.5 319V320H445.5V319H444.5ZM372.5 319H371.5V320H372.5V319ZM372.5 271V272H444.5V271V270H372.5V271ZM444.5 271H443.5V319H444.5H445.5V271H444.5ZM444.5 319V318H372.5V319V320H444.5V319ZM372.5 319H373.5V271H372.5H371.5V319H372.5Z" fill="black" mask="url(#path-8-inside-2_75116_10806)"/>
<path fill-rule="evenodd" clip-rule="evenodd" d="M402.9 294.242L396.5 301.247L390.1 294.242L390.097 294.239C388.857 292.879 388.968 290.784 390.344 289.56C391.669 288.38 393.698 288.432 394.959 289.679C394.962 289.682 394.966 289.685 394.969 289.688L395.948 290.608L396.5 291.133L397.052 290.608L398.031 289.688C398.034 289.685 398.038 289.682 398.041 289.679C398.669 289.055 399.522 288.706 400.412 288.708C402.263 288.708 403.765 290.191 403.765 292.021C403.765 292.84 403.458 293.63 402.903 294.239L402.9 294.242ZM404.364 288.117C402.194 285.974 398.686 285.961 396.5 288.079C394.315 285.961 390.806 285.974 388.637 288.117C386.49 290.238 386.455 293.656 388.532 295.819L396.5 304.5L404.468 295.819C406.545 293.656 406.51 290.238 404.364 288.117Z" fill="black"/>
<g clip-path="url(#clip1_75116_10806)">
<path d="M416.562 293.314L422.5 299.375L428.437 293.314L426.741 291.582L422.5 295.912L418.259 291.582L416.562 293.314Z" fill="black"/>
</g>
<defs>
<clipPath id="clip0_75116_10806">
<rect width="20" height="20" fill="white" transform="translate(408.5 187)"/>
</clipPath>
<clipPath id="clip1_75116_10806">
<rect width="20" height="20" fill="white" transform="translate(412.5 285)"/>
</clipPath>
</defs>
</svg>
