<svg width="600" height="1217" viewBox="0 0 600 1217" fill="none" xmlns="http://www.w3.org/2000/svg">
<rect width="600" height="1217" fill="black" fill-opacity="0.04"/>
<path d="M156.748 308.576H164.636V309.856H158.268V313.488H164.204V314.768H158.268V318.72H164.684V320H156.748V308.576ZM166.305 311.728H167.585V313.04H167.617C168.183 312.037 169.079 311.536 170.305 311.536C170.849 311.536 171.303 311.611 171.665 311.76C172.028 311.909 172.321 312.117 172.545 312.384C172.769 312.651 172.924 312.971 173.009 313.344C173.105 313.707 173.153 314.112 173.153 314.56V320H171.793V314.4C171.793 313.888 171.644 313.483 171.345 313.184C171.047 312.885 170.636 312.736 170.113 312.736C169.697 312.736 169.335 312.8 169.025 312.928C168.727 313.056 168.476 313.237 168.273 313.472C168.071 313.707 167.916 313.984 167.809 314.304C167.713 314.613 167.665 314.955 167.665 315.328V320H166.305V311.728ZM182.524 319.968C182.289 320.107 181.964 320.176 181.548 320.176C181.196 320.176 180.913 320.08 180.7 319.888C180.497 319.685 180.396 319.36 180.396 318.912C180.023 319.36 179.585 319.685 179.084 319.888C178.593 320.08 178.06 320.176 177.484 320.176C177.111 320.176 176.753 320.133 176.412 320.048C176.081 319.963 175.793 319.829 175.548 319.648C175.303 319.467 175.105 319.232 174.956 318.944C174.817 318.645 174.748 318.288 174.748 317.872C174.748 317.403 174.828 317.019 174.988 316.72C175.148 316.421 175.356 316.181 175.612 316C175.879 315.808 176.177 315.664 176.508 315.568C176.849 315.472 177.196 315.392 177.548 315.328C177.921 315.253 178.273 315.2 178.604 315.168C178.945 315.125 179.244 315.072 179.5 315.008C179.756 314.933 179.959 314.832 180.108 314.704C180.257 314.565 180.332 314.368 180.332 314.112C180.332 313.813 180.273 313.573 180.156 313.392C180.049 313.211 179.905 313.072 179.724 312.976C179.553 312.88 179.356 312.816 179.132 312.784C178.919 312.752 178.705 312.736 178.492 312.736C177.916 312.736 177.436 312.848 177.052 313.072C176.668 313.285 176.46 313.696 176.428 314.304H175.068C175.089 313.792 175.196 313.36 175.388 313.008C175.58 312.656 175.836 312.373 176.156 312.16C176.476 311.936 176.839 311.776 177.244 311.68C177.66 311.584 178.103 311.536 178.572 311.536C178.945 311.536 179.313 311.563 179.676 311.616C180.049 311.669 180.385 311.781 180.684 311.952C180.983 312.112 181.223 312.341 181.404 312.64C181.585 312.939 181.676 313.328 181.676 313.808V318.064C181.676 318.384 181.692 318.619 181.724 318.768C181.767 318.917 181.895 318.992 182.108 318.992C182.225 318.992 182.364 318.965 182.524 318.912V319.968ZM180.316 315.728C180.145 315.856 179.921 315.952 179.644 316.016C179.367 316.069 179.073 316.117 178.764 316.16C178.465 316.192 178.161 316.235 177.852 316.288C177.543 316.331 177.265 316.405 177.02 316.512C176.775 316.619 176.572 316.773 176.412 316.976C176.263 317.168 176.188 317.435 176.188 317.776C176.188 318 176.231 318.192 176.316 318.352C176.412 318.501 176.529 318.624 176.668 318.72C176.817 318.816 176.988 318.885 177.18 318.928C177.372 318.971 177.575 318.992 177.788 318.992C178.236 318.992 178.62 318.933 178.94 318.816C179.26 318.688 179.521 318.533 179.724 318.352C179.927 318.16 180.076 317.957 180.172 317.744C180.268 317.52 180.316 317.312 180.316 317.12V315.728ZM183.838 308.576H185.198V312.848H185.23C185.454 312.389 185.806 312.059 186.286 311.856C186.766 311.643 187.294 311.536 187.87 311.536C188.51 311.536 189.064 311.653 189.534 311.888C190.014 312.123 190.408 312.443 190.718 312.848C191.038 313.243 191.278 313.701 191.438 314.224C191.598 314.747 191.678 315.301 191.678 315.888C191.678 316.475 191.598 317.029 191.438 317.552C191.288 318.075 191.054 318.533 190.734 318.928C190.424 319.312 190.03 319.616 189.55 319.84C189.08 320.064 188.531 320.176 187.902 320.176C187.699 320.176 187.47 320.155 187.214 320.112C186.968 320.069 186.723 320 186.478 319.904C186.232 319.808 185.998 319.68 185.774 319.52C185.56 319.349 185.379 319.141 185.23 318.896H185.198V320H183.838V308.576ZM190.238 315.792C190.238 315.408 190.184 315.035 190.078 314.672C189.982 314.299 189.827 313.968 189.614 313.68C189.411 313.392 189.144 313.163 188.814 312.992C188.494 312.821 188.115 312.736 187.678 312.736C187.219 312.736 186.83 312.827 186.51 313.008C186.19 313.189 185.928 313.429 185.726 313.728C185.523 314.016 185.374 314.347 185.278 314.72C185.192 315.093 185.15 315.472 185.15 315.856C185.15 316.261 185.198 316.656 185.294 317.04C185.39 317.413 185.539 317.744 185.742 318.032C185.955 318.32 186.227 318.555 186.558 318.736C186.888 318.907 187.288 318.992 187.758 318.992C188.227 318.992 188.616 318.901 188.926 318.72C189.246 318.539 189.502 318.299 189.694 318C189.886 317.701 190.024 317.36 190.11 316.976C190.195 316.592 190.238 316.197 190.238 315.792ZM193.354 308.576H194.714V320H193.354V308.576ZM202.565 315.072C202.544 314.752 202.469 314.448 202.341 314.16C202.224 313.872 202.058 313.627 201.845 313.424C201.642 313.211 201.397 313.045 201.109 312.928C200.832 312.8 200.522 312.736 200.181 312.736C199.829 312.736 199.509 312.8 199.221 312.928C198.944 313.045 198.704 313.211 198.501 313.424C198.298 313.637 198.138 313.888 198.021 314.176C197.904 314.453 197.834 314.752 197.813 315.072H202.565ZM203.877 317.376C203.696 318.304 203.296 319.003 202.677 319.472C202.058 319.941 201.28 320.176 200.341 320.176C199.68 320.176 199.104 320.069 198.613 319.856C198.133 319.643 197.728 319.344 197.397 318.96C197.066 318.576 196.816 318.117 196.645 317.584C196.485 317.051 196.394 316.469 196.373 315.84C196.373 315.211 196.469 314.635 196.661 314.112C196.853 313.589 197.12 313.136 197.461 312.752C197.813 312.368 198.224 312.069 198.693 311.856C199.173 311.643 199.696 311.536 200.261 311.536C200.997 311.536 201.605 311.691 202.085 312C202.576 312.299 202.965 312.683 203.253 313.152C203.552 313.621 203.754 314.133 203.861 314.688C203.978 315.243 204.026 315.771 204.005 316.272H197.813C197.802 316.635 197.845 316.981 197.941 317.312C198.037 317.632 198.192 317.92 198.405 318.176C198.618 318.421 198.89 318.619 199.221 318.768C199.552 318.917 199.941 318.992 200.389 318.992C200.965 318.992 201.434 318.859 201.797 318.592C202.17 318.325 202.416 317.92 202.533 317.376H203.877ZM206.407 315.936C206.407 316.32 206.455 316.699 206.551 317.072C206.657 317.435 206.812 317.76 207.015 318.048C207.228 318.336 207.495 318.565 207.815 318.736C208.145 318.907 208.529 318.992 208.967 318.992C209.425 318.992 209.815 318.901 210.135 318.72C210.455 318.539 210.716 318.304 210.919 318.016C211.121 317.717 211.265 317.381 211.351 317.008C211.447 316.635 211.495 316.256 211.495 315.872C211.495 315.467 211.447 315.077 211.351 314.704C211.255 314.32 211.1 313.984 210.887 313.696C210.684 313.408 210.417 313.179 210.087 313.008C209.756 312.827 209.356 312.736 208.887 312.736C208.428 312.736 208.039 312.827 207.719 313.008C207.399 313.189 207.143 313.429 206.951 313.728C206.759 314.027 206.62 314.368 206.535 314.752C206.449 315.136 206.407 315.531 206.407 315.936ZM212.807 320H211.447V318.88H211.415C211.191 319.339 210.839 319.669 210.359 319.872C209.879 320.075 209.351 320.176 208.775 320.176C208.135 320.176 207.575 320.059 207.095 319.824C206.625 319.589 206.231 319.275 205.911 318.88C205.601 318.485 205.367 318.027 205.207 317.504C205.047 316.981 204.967 316.427 204.967 315.84C204.967 315.253 205.041 314.699 205.191 314.176C205.351 313.653 205.585 313.2 205.895 312.816C206.215 312.421 206.609 312.112 207.079 311.888C207.559 311.653 208.113 311.536 208.743 311.536C208.956 311.536 209.185 311.557 209.431 311.6C209.676 311.643 209.921 311.717 210.167 311.824C210.412 311.92 210.641 312.053 210.855 312.224C211.079 312.384 211.265 312.587 211.415 312.832H211.447V308.576H212.807V320Z" fill="black" fill-opacity="0.68"/>
<mask id="path-2-inside-1_75116_10826" fill="white">
<path d="M331.5 290.5H444.5V338.5H331.5V290.5Z"/>
</mask>
<path d="M331.5 290.5V289.5H330.5V290.5H331.5ZM444.5 290.5H445.5V289.5H444.5V290.5ZM444.5 338.5V339.5H445.5V338.5H444.5ZM331.5 338.5H330.5V339.5H331.5V338.5ZM331.5 290.5V291.5H444.5V290.5V289.5H331.5V290.5ZM444.5 290.5H443.5V338.5H444.5H445.5V290.5H444.5ZM444.5 338.5V337.5H331.5V338.5V339.5H444.5V338.5ZM331.5 338.5H332.5V290.5H331.5H330.5V338.5H331.5Z" fill="black" mask="url(#path-2-inside-1_75116_10826)"/>
<path d="M360.821 309.076H363.333V318.388H368.901V320.5H360.821V309.076ZM370.17 314.772C370.202 314.239 370.335 313.796 370.57 313.444C370.804 313.092 371.103 312.809 371.466 312.596C371.828 312.383 372.234 312.233 372.682 312.148C373.14 312.052 373.599 312.004 374.058 312.004C374.474 312.004 374.895 312.036 375.322 312.1C375.748 312.153 376.138 312.265 376.49 312.436C376.842 312.607 377.13 312.847 377.354 313.156C377.578 313.455 377.69 313.855 377.69 314.356V318.66C377.69 319.033 377.711 319.391 377.754 319.732C377.796 320.073 377.871 320.329 377.978 320.5H375.674C375.631 320.372 375.594 320.244 375.562 320.116C375.54 319.977 375.524 319.839 375.514 319.7C375.151 320.073 374.724 320.335 374.234 320.484C373.743 320.633 373.242 320.708 372.73 320.708C372.335 320.708 371.967 320.66 371.626 320.564C371.284 320.468 370.986 320.319 370.73 320.116C370.474 319.913 370.271 319.657 370.122 319.348C369.983 319.039 369.914 318.671 369.914 318.244C369.914 317.775 369.994 317.391 370.154 317.092C370.324 316.783 370.538 316.537 370.794 316.356C371.06 316.175 371.359 316.041 371.69 315.956C372.031 315.86 372.372 315.785 372.714 315.732C373.055 315.679 373.391 315.636 373.722 315.604C374.052 315.572 374.346 315.524 374.602 315.46C374.858 315.396 375.06 315.305 375.21 315.188C375.359 315.06 375.428 314.879 375.418 314.644C375.418 314.399 375.375 314.207 375.29 314.068C375.215 313.919 375.108 313.807 374.97 313.732C374.842 313.647 374.687 313.593 374.506 313.572C374.335 313.54 374.148 313.524 373.946 313.524C373.498 313.524 373.146 313.62 372.89 313.812C372.634 314.004 372.484 314.324 372.442 314.772H370.17ZM375.418 316.452C375.322 316.537 375.199 316.607 375.05 316.66C374.911 316.703 374.756 316.74 374.586 316.772C374.426 316.804 374.255 316.831 374.074 316.852C373.892 316.873 373.711 316.9 373.53 316.932C373.359 316.964 373.188 317.007 373.018 317.06C372.858 317.113 372.714 317.188 372.586 317.284C372.468 317.369 372.372 317.481 372.298 317.62C372.223 317.759 372.186 317.935 372.186 318.148C372.186 318.351 372.223 318.521 372.298 318.66C372.372 318.799 372.474 318.911 372.602 318.996C372.73 319.071 372.879 319.124 373.05 319.156C373.22 319.188 373.396 319.204 373.578 319.204C374.026 319.204 374.372 319.129 374.618 318.98C374.863 318.831 375.044 318.655 375.162 318.452C375.279 318.239 375.348 318.025 375.37 317.812C375.402 317.599 375.418 317.428 375.418 317.3V316.452ZM385.717 316.372C385.717 316.02 385.68 315.684 385.605 315.364C385.53 315.044 385.413 314.761 385.253 314.516C385.093 314.271 384.89 314.079 384.645 313.94C384.41 313.791 384.122 313.716 383.781 313.716C383.45 313.716 383.162 313.791 382.917 313.94C382.672 314.079 382.469 314.271 382.309 314.516C382.149 314.761 382.032 315.044 381.957 315.364C381.882 315.684 381.845 316.02 381.845 316.372C381.845 316.713 381.882 317.044 381.957 317.364C382.032 317.684 382.149 317.967 382.309 318.212C382.469 318.457 382.672 318.655 382.917 318.804C383.162 318.943 383.45 319.012 383.781 319.012C384.122 319.012 384.41 318.943 384.645 318.804C384.89 318.655 385.093 318.457 385.253 318.212C385.413 317.967 385.53 317.684 385.605 317.364C385.68 317.044 385.717 316.713 385.717 316.372ZM379.653 309.076H381.925V313.236H381.957C382.234 312.809 382.608 312.5 383.077 312.308C383.557 312.105 384.053 312.004 384.565 312.004C384.981 312.004 385.392 312.089 385.797 312.26C386.202 312.431 386.565 312.692 386.885 313.044C387.216 313.396 387.482 313.849 387.685 314.404C387.888 314.948 387.989 315.599 387.989 316.356C387.989 317.113 387.888 317.769 387.685 318.324C387.482 318.868 387.216 319.316 386.885 319.668C386.565 320.02 386.202 320.281 385.797 320.452C385.392 320.623 384.981 320.708 384.565 320.708C383.957 320.708 383.413 320.612 382.933 320.42C382.453 320.228 382.09 319.903 381.845 319.444H381.813V320.5H379.653V309.076ZM395.202 315.476C395.096 314.9 394.904 314.463 394.626 314.164C394.36 313.865 393.949 313.716 393.394 313.716C393.032 313.716 392.728 313.78 392.482 313.908C392.248 314.025 392.056 314.175 391.906 314.356C391.768 314.537 391.666 314.729 391.602 314.932C391.549 315.135 391.517 315.316 391.506 315.476H395.202ZM391.506 316.916C391.538 317.652 391.725 318.185 392.066 318.516C392.408 318.847 392.898 319.012 393.538 319.012C393.997 319.012 394.392 318.9 394.722 318.676C395.053 318.441 395.256 318.196 395.33 317.94H397.33C397.01 318.932 396.52 319.641 395.858 320.068C395.197 320.495 394.397 320.708 393.458 320.708C392.808 320.708 392.221 320.607 391.698 320.404C391.176 320.191 390.733 319.892 390.37 319.508C390.008 319.124 389.725 318.665 389.522 318.132C389.33 317.599 389.234 317.012 389.234 316.372C389.234 315.753 389.336 315.177 389.538 314.644C389.741 314.111 390.029 313.652 390.402 313.268C390.776 312.873 391.218 312.564 391.73 312.34C392.253 312.116 392.829 312.004 393.458 312.004C394.162 312.004 394.776 312.143 395.298 312.42C395.821 312.687 396.248 313.049 396.578 313.508C396.92 313.967 397.165 314.489 397.314 315.076C397.464 315.663 397.517 316.276 397.474 316.916H391.506ZM399.086 309.076H401.358V320.5H399.086V309.076Z" fill="black"/>
<g clip-path="url(#clip0_75116_10826)">
<path d="M412.562 312.814L418.5 318.875L424.437 312.814L422.741 311.082L418.5 315.412L414.259 311.082L412.562 312.814Z" fill="black"/>
</g>
<path d="M156.748 406.576H158.268V411.488H164.284V406.576H165.804V418H164.284V412.768H158.268V418H156.748V406.576ZM169.063 413.872C169.063 414.373 169.127 414.821 169.255 415.216C169.394 415.6 169.58 415.925 169.815 416.192C170.05 416.448 170.322 416.645 170.631 416.784C170.951 416.923 171.287 416.992 171.639 416.992C171.991 416.992 172.322 416.923 172.631 416.784C172.951 416.645 173.228 416.448 173.463 416.192C173.698 415.925 173.879 415.6 174.007 415.216C174.146 414.821 174.215 414.373 174.215 413.872C174.215 413.371 174.146 412.928 174.007 412.544C173.879 412.149 173.698 411.819 173.463 411.552C173.228 411.285 172.951 411.083 172.631 410.944C172.322 410.805 171.991 410.736 171.639 410.736C171.287 410.736 170.951 410.805 170.631 410.944C170.322 411.083 170.05 411.285 169.815 411.552C169.58 411.819 169.394 412.149 169.255 412.544C169.127 412.928 169.063 413.371 169.063 413.872ZM167.623 413.872C167.623 413.264 167.708 412.699 167.879 412.176C168.05 411.643 168.306 411.184 168.647 410.8C168.988 410.405 169.41 410.096 169.911 409.872C170.412 409.648 170.988 409.536 171.639 409.536C172.3 409.536 172.876 409.648 173.367 409.872C173.868 410.096 174.29 410.405 174.631 410.8C174.972 411.184 175.228 411.643 175.399 412.176C175.57 412.699 175.655 413.264 175.655 413.872C175.655 414.48 175.57 415.045 175.399 415.568C175.228 416.091 174.972 416.549 174.631 416.944C174.29 417.328 173.868 417.632 173.367 417.856C172.876 418.069 172.3 418.176 171.639 418.176C170.988 418.176 170.412 418.069 169.911 417.856C169.41 417.632 168.988 417.328 168.647 416.944C168.306 416.549 168.05 416.091 167.879 415.568C167.708 415.045 167.623 414.48 167.623 413.872ZM180.986 418H179.53L176.458 409.728H177.978L180.298 416.624H180.33L182.586 409.728H184.01L180.986 418ZM191.002 413.072C190.981 412.752 190.906 412.448 190.778 412.16C190.661 411.872 190.496 411.627 190.282 411.424C190.08 411.211 189.834 411.045 189.546 410.928C189.269 410.8 188.96 410.736 188.618 410.736C188.266 410.736 187.946 410.8 187.658 410.928C187.381 411.045 187.141 411.211 186.938 411.424C186.736 411.637 186.576 411.888 186.458 412.176C186.341 412.453 186.272 412.752 186.25 413.072H191.002ZM192.314 415.376C192.133 416.304 191.733 417.003 191.114 417.472C190.496 417.941 189.717 418.176 188.778 418.176C188.117 418.176 187.541 418.069 187.05 417.856C186.57 417.643 186.165 417.344 185.834 416.96C185.504 416.576 185.253 416.117 185.082 415.584C184.922 415.051 184.832 414.469 184.81 413.84C184.81 413.211 184.906 412.635 185.098 412.112C185.29 411.589 185.557 411.136 185.898 410.752C186.25 410.368 186.661 410.069 187.13 409.856C187.61 409.643 188.133 409.536 188.698 409.536C189.434 409.536 190.042 409.691 190.522 410C191.013 410.299 191.402 410.683 191.69 411.152C191.989 411.621 192.192 412.133 192.298 412.688C192.416 413.243 192.464 413.771 192.442 414.272H186.25C186.24 414.635 186.282 414.981 186.378 415.312C186.474 415.632 186.629 415.92 186.842 416.176C187.056 416.421 187.328 416.619 187.658 416.768C187.989 416.917 188.378 416.992 188.826 416.992C189.402 416.992 189.872 416.859 190.234 416.592C190.608 416.325 190.853 415.92 190.97 415.376H192.314ZM193.804 409.728H195.084V411.472H195.116C195.447 410.8 195.852 410.304 196.332 409.984C196.812 409.664 197.42 409.515 198.156 409.536V410.976C197.612 410.976 197.148 411.051 196.764 411.2C196.38 411.349 196.071 411.568 195.836 411.856C195.601 412.144 195.431 412.496 195.324 412.912C195.217 413.317 195.164 413.787 195.164 414.32V418H193.804V409.728Z" fill="black" fill-opacity="0.68"/>
<mask id="path-8-inside-2_75116_10826" fill="white">
<path d="M331.5 388.5H444.5V436.5H331.5V388.5Z"/>
</mask>
<path d="M331.5 388.5V386.5H329.5V388.5H331.5ZM444.5 388.5H446.5V386.5H444.5V388.5ZM444.5 436.5V438.5H446.5V436.5H444.5ZM331.5 436.5H329.5V438.5H331.5V436.5ZM331.5 388.5V390.5H444.5V388.5V386.5H331.5V388.5ZM444.5 388.5H442.5V436.5H444.5H446.5V388.5H444.5ZM444.5 436.5V434.5H331.5V436.5V438.5H444.5V436.5ZM331.5 436.5H333.5V388.5H331.5H329.5V436.5H331.5Z" fill="black" fill-opacity="0.68" mask="url(#path-8-inside-2_75116_10826)"/>
<path d="M360.821 407.076H363.333V416.388H368.901V418.5H360.821V407.076ZM370.17 412.772C370.202 412.239 370.335 411.796 370.57 411.444C370.804 411.092 371.103 410.809 371.466 410.596C371.828 410.383 372.234 410.233 372.682 410.148C373.14 410.052 373.599 410.004 374.058 410.004C374.474 410.004 374.895 410.036 375.322 410.1C375.748 410.153 376.138 410.265 376.49 410.436C376.842 410.607 377.13 410.847 377.354 411.156C377.578 411.455 377.69 411.855 377.69 412.356V416.66C377.69 417.033 377.711 417.391 377.754 417.732C377.796 418.073 377.871 418.329 377.978 418.5H375.674C375.631 418.372 375.594 418.244 375.562 418.116C375.54 417.977 375.524 417.839 375.514 417.7C375.151 418.073 374.724 418.335 374.234 418.484C373.743 418.633 373.242 418.708 372.73 418.708C372.335 418.708 371.967 418.66 371.626 418.564C371.284 418.468 370.986 418.319 370.73 418.116C370.474 417.913 370.271 417.657 370.122 417.348C369.983 417.039 369.914 416.671 369.914 416.244C369.914 415.775 369.994 415.391 370.154 415.092C370.324 414.783 370.538 414.537 370.794 414.356C371.06 414.175 371.359 414.041 371.69 413.956C372.031 413.86 372.372 413.785 372.714 413.732C373.055 413.679 373.391 413.636 373.722 413.604C374.052 413.572 374.346 413.524 374.602 413.46C374.858 413.396 375.06 413.305 375.21 413.188C375.359 413.06 375.428 412.879 375.418 412.644C375.418 412.399 375.375 412.207 375.29 412.068C375.215 411.919 375.108 411.807 374.97 411.732C374.842 411.647 374.687 411.593 374.506 411.572C374.335 411.54 374.148 411.524 373.946 411.524C373.498 411.524 373.146 411.62 372.89 411.812C372.634 412.004 372.484 412.324 372.442 412.772H370.17ZM375.418 414.452C375.322 414.537 375.199 414.607 375.05 414.66C374.911 414.703 374.756 414.74 374.586 414.772C374.426 414.804 374.255 414.831 374.074 414.852C373.892 414.873 373.711 414.9 373.53 414.932C373.359 414.964 373.188 415.007 373.018 415.06C372.858 415.113 372.714 415.188 372.586 415.284C372.468 415.369 372.372 415.481 372.298 415.62C372.223 415.759 372.186 415.935 372.186 416.148C372.186 416.351 372.223 416.521 372.298 416.66C372.372 416.799 372.474 416.911 372.602 416.996C372.73 417.071 372.879 417.124 373.05 417.156C373.22 417.188 373.396 417.204 373.578 417.204C374.026 417.204 374.372 417.129 374.618 416.98C374.863 416.831 375.044 416.655 375.162 416.452C375.279 416.239 375.348 416.025 375.37 415.812C375.402 415.599 375.418 415.428 375.418 415.3V414.452ZM385.717 414.372C385.717 414.02 385.68 413.684 385.605 413.364C385.53 413.044 385.413 412.761 385.253 412.516C385.093 412.271 384.89 412.079 384.645 411.94C384.41 411.791 384.122 411.716 383.781 411.716C383.45 411.716 383.162 411.791 382.917 411.94C382.672 412.079 382.469 412.271 382.309 412.516C382.149 412.761 382.032 413.044 381.957 413.364C381.882 413.684 381.845 414.02 381.845 414.372C381.845 414.713 381.882 415.044 381.957 415.364C382.032 415.684 382.149 415.967 382.309 416.212C382.469 416.457 382.672 416.655 382.917 416.804C383.162 416.943 383.45 417.012 383.781 417.012C384.122 417.012 384.41 416.943 384.645 416.804C384.89 416.655 385.093 416.457 385.253 416.212C385.413 415.967 385.53 415.684 385.605 415.364C385.68 415.044 385.717 414.713 385.717 414.372ZM379.653 407.076H381.925V411.236H381.957C382.234 410.809 382.608 410.5 383.077 410.308C383.557 410.105 384.053 410.004 384.565 410.004C384.981 410.004 385.392 410.089 385.797 410.26C386.202 410.431 386.565 410.692 386.885 411.044C387.216 411.396 387.482 411.849 387.685 412.404C387.888 412.948 387.989 413.599 387.989 414.356C387.989 415.113 387.888 415.769 387.685 416.324C387.482 416.868 387.216 417.316 386.885 417.668C386.565 418.02 386.202 418.281 385.797 418.452C385.392 418.623 384.981 418.708 384.565 418.708C383.957 418.708 383.413 418.612 382.933 418.42C382.453 418.228 382.09 417.903 381.845 417.444H381.813V418.5H379.653V407.076ZM395.202 413.476C395.096 412.9 394.904 412.463 394.626 412.164C394.36 411.865 393.949 411.716 393.394 411.716C393.032 411.716 392.728 411.78 392.482 411.908C392.248 412.025 392.056 412.175 391.906 412.356C391.768 412.537 391.666 412.729 391.602 412.932C391.549 413.135 391.517 413.316 391.506 413.476H395.202ZM391.506 414.916C391.538 415.652 391.725 416.185 392.066 416.516C392.408 416.847 392.898 417.012 393.538 417.012C393.997 417.012 394.392 416.9 394.722 416.676C395.053 416.441 395.256 416.196 395.33 415.94H397.33C397.01 416.932 396.52 417.641 395.858 418.068C395.197 418.495 394.397 418.708 393.458 418.708C392.808 418.708 392.221 418.607 391.698 418.404C391.176 418.191 390.733 417.892 390.37 417.508C390.008 417.124 389.725 416.665 389.522 416.132C389.33 415.599 389.234 415.012 389.234 414.372C389.234 413.753 389.336 413.177 389.538 412.644C389.741 412.111 390.029 411.652 390.402 411.268C390.776 410.873 391.218 410.564 391.73 410.34C392.253 410.116 392.829 410.004 393.458 410.004C394.162 410.004 394.776 410.143 395.298 410.42C395.821 410.687 396.248 411.049 396.578 411.508C396.92 411.967 397.165 412.489 397.314 413.076C397.464 413.663 397.517 414.276 397.474 414.916H391.506ZM399.086 407.076H401.358V418.5H399.086V407.076Z" fill="black" fill-opacity="0.68"/>
<g clip-path="url(#clip1_75116_10826)">
<path d="M412.562 410.814L418.5 416.875L424.437 410.814L422.741 409.082L418.5 413.412L414.259 409.082L412.562 410.814Z" fill="black" fill-opacity="0.68"/>
</g>
<path d="M156.748 504.576H164.252V505.856H158.268V509.488H163.516V510.768H158.268V516H156.748V504.576ZM166.704 511.872C166.704 512.373 166.768 512.821 166.896 513.216C167.034 513.6 167.221 513.925 167.456 514.192C167.69 514.448 167.962 514.645 168.272 514.784C168.592 514.923 168.928 514.992 169.28 514.992C169.632 514.992 169.962 514.923 170.272 514.784C170.592 514.645 170.869 514.448 171.104 514.192C171.338 513.925 171.52 513.6 171.648 513.216C171.786 512.821 171.856 512.373 171.856 511.872C171.856 511.371 171.786 510.928 171.648 510.544C171.52 510.149 171.338 509.819 171.104 509.552C170.869 509.285 170.592 509.083 170.272 508.944C169.962 508.805 169.632 508.736 169.28 508.736C168.928 508.736 168.592 508.805 168.272 508.944C167.962 509.083 167.69 509.285 167.456 509.552C167.221 509.819 167.034 510.149 166.896 510.544C166.768 510.928 166.704 511.371 166.704 511.872ZM165.264 511.872C165.264 511.264 165.349 510.699 165.52 510.176C165.69 509.643 165.946 509.184 166.288 508.8C166.629 508.405 167.05 508.096 167.552 507.872C168.053 507.648 168.629 507.536 169.28 507.536C169.941 507.536 170.517 507.648 171.008 507.872C171.509 508.096 171.93 508.405 172.272 508.8C172.613 509.184 172.869 509.643 173.04 510.176C173.21 510.699 173.296 511.264 173.296 511.872C173.296 512.48 173.21 513.045 173.04 513.568C172.869 514.091 172.613 514.549 172.272 514.944C171.93 515.328 171.509 515.632 171.008 515.856C170.517 516.069 169.941 516.176 169.28 516.176C168.629 516.176 168.053 516.069 167.552 515.856C167.05 515.632 166.629 515.328 166.288 514.944C165.946 514.549 165.69 514.091 165.52 513.568C165.349 513.045 165.264 512.48 165.264 511.872ZM180.515 510.384C180.408 509.861 180.184 509.456 179.843 509.168C179.502 508.88 179.043 508.736 178.467 508.736C177.976 508.736 177.566 508.827 177.235 509.008C176.904 509.189 176.638 509.429 176.435 509.728C176.243 510.027 176.104 510.373 176.019 510.768C175.934 511.152 175.891 511.552 175.891 511.968C175.891 512.352 175.934 512.725 176.019 513.088C176.115 513.451 176.259 513.776 176.451 514.064C176.643 514.341 176.894 514.565 177.203 514.736C177.512 514.907 177.88 514.992 178.307 514.992C178.979 514.992 179.502 514.816 179.875 514.464C180.259 514.112 180.494 513.616 180.579 512.976H181.971C181.822 514 181.438 514.789 180.819 515.344C180.211 515.899 179.379 516.176 178.323 516.176C177.694 516.176 177.134 516.075 176.643 515.872C176.163 515.669 175.758 515.381 175.427 515.008C175.107 514.635 174.862 514.192 174.691 513.68C174.531 513.157 174.451 512.587 174.451 511.968C174.451 511.349 174.531 510.773 174.691 510.24C174.851 509.696 175.091 509.227 175.411 508.832C175.742 508.427 176.152 508.112 176.643 507.888C177.134 507.653 177.704 507.536 178.355 507.536C178.824 507.536 179.262 507.595 179.667 507.712C180.083 507.819 180.446 507.989 180.755 508.224C181.075 508.459 181.336 508.757 181.539 509.12C181.742 509.472 181.87 509.893 181.923 510.384H180.515ZM190.341 516H189.061V514.688H189.029C188.741 515.2 188.373 515.579 187.925 515.824C187.477 516.059 186.949 516.176 186.341 516.176C185.797 516.176 185.343 516.107 184.981 515.968C184.618 515.819 184.325 515.611 184.101 515.344C183.877 515.077 183.717 514.763 183.621 514.4C183.535 514.027 183.493 513.616 183.493 513.168V507.728H184.853V513.328C184.853 513.84 185.002 514.245 185.301 514.544C185.599 514.843 186.01 514.992 186.533 514.992C186.949 514.992 187.306 514.928 187.605 514.8C187.914 514.672 188.17 514.491 188.373 514.256C188.575 514.021 188.725 513.749 188.821 513.44C188.927 513.12 188.981 512.773 188.981 512.4V507.728H190.341V516ZM193.215 513.392C193.226 513.691 193.295 513.947 193.423 514.16C193.551 514.363 193.717 514.528 193.919 514.656C194.133 514.773 194.367 514.859 194.623 514.912C194.89 514.965 195.162 514.992 195.439 514.992C195.653 514.992 195.877 514.976 196.111 514.944C196.346 514.912 196.559 514.853 196.751 514.768C196.954 514.683 197.119 514.56 197.247 514.4C197.375 514.229 197.439 514.016 197.439 513.76C197.439 513.408 197.306 513.141 197.039 512.96C196.773 512.779 196.437 512.635 196.031 512.528C195.637 512.411 195.205 512.309 194.735 512.224C194.266 512.128 193.829 512 193.423 511.84C193.029 511.669 192.698 511.435 192.431 511.136C192.165 510.837 192.031 510.421 192.031 509.888C192.031 509.472 192.122 509.115 192.303 508.816C192.495 508.517 192.735 508.277 193.023 508.096C193.322 507.904 193.653 507.765 194.015 507.68C194.389 507.584 194.757 507.536 195.119 507.536C195.589 507.536 196.021 507.579 196.415 507.664C196.81 507.739 197.157 507.877 197.455 508.08C197.765 508.272 198.01 508.539 198.191 508.88C198.373 509.211 198.479 509.627 198.511 510.128H197.151C197.13 509.861 197.061 509.643 196.943 509.472C196.826 509.291 196.677 509.147 196.495 509.04C196.314 508.933 196.111 508.859 195.887 508.816C195.674 508.763 195.455 508.736 195.231 508.736C195.029 508.736 194.821 508.752 194.607 508.784C194.405 508.816 194.218 508.875 194.047 508.96C193.877 509.035 193.738 509.141 193.631 509.28C193.525 509.408 193.471 509.579 193.471 509.792C193.471 510.027 193.551 510.224 193.711 510.384C193.882 510.533 194.095 510.661 194.351 510.768C194.607 510.864 194.895 510.949 195.215 511.024C195.535 511.088 195.855 511.157 196.175 511.232C196.517 511.307 196.847 511.397 197.167 511.504C197.498 511.611 197.786 511.755 198.031 511.936C198.287 512.107 198.49 512.325 198.639 512.592C198.799 512.859 198.879 513.189 198.879 513.584C198.879 514.085 198.773 514.501 198.559 514.832C198.357 515.163 198.085 515.429 197.743 515.632C197.413 515.835 197.034 515.973 196.607 516.048C196.191 516.133 195.775 516.176 195.359 516.176C194.901 516.176 194.463 516.128 194.047 516.032C193.631 515.936 193.263 515.781 192.943 515.568C192.623 515.344 192.367 515.056 192.175 514.704C191.983 514.341 191.877 513.904 191.855 513.392H193.215Z" fill="black" fill-opacity="0.68"/>
<mask id="path-14-outside-3_75116_10826" maskUnits="userSpaceOnUse" x="326.5" y="481.5" width="123" height="58" fill="black">
<rect fill="white" x="326.5" y="481.5" width="123" height="58"/>
<path d="M331.5 486.5H444.5V534.5H331.5V486.5Z"/>
</mask>
<path d="M331.5 486.5V481.5H326.5V486.5H331.5ZM444.5 486.5H449.5V481.5H444.5V486.5ZM444.5 534.5V539.5H449.5V534.5H444.5ZM331.5 534.5H326.5V539.5H331.5V534.5ZM331.5 486.5V491.5H444.5V486.5V481.5H331.5V486.5ZM444.5 486.5H439.5V534.5H444.5H449.5V486.5H444.5ZM444.5 534.5V529.5H331.5V534.5V539.5H444.5V534.5ZM331.5 534.5H336.5V486.5H331.5H326.5V534.5H331.5Z" fill="black" mask="url(#path-14-outside-3_75116_10826)"/>
<mask id="path-16-outside-4_75116_10826" maskUnits="userSpaceOnUse" x="329.5" y="484.5" width="117" height="52" fill="black">
<rect fill="white" x="329.5" y="484.5" width="117" height="52"/>
<path d="M331.5 486.5H444.5V534.5H331.5V486.5Z"/>
</mask>
<path d="M331.5 486.5V484.5H329.5V486.5H331.5ZM444.5 486.5H446.5V484.5H444.5V486.5ZM444.5 534.5V536.5H446.5V534.5H444.5ZM331.5 534.5H329.5V536.5H331.5V534.5ZM331.5 486.5V488.5H444.5V486.5V484.5H331.5V486.5ZM444.5 486.5H442.5V534.5H444.5H446.5V486.5H444.5ZM444.5 534.5V532.5H331.5V534.5V536.5H444.5V534.5ZM331.5 534.5H333.5V486.5H331.5H329.5V534.5H331.5Z" fill="white" mask="url(#path-16-outside-4_75116_10826)"/>
<mask id="path-18-inside-5_75116_10826" fill="white">
<path d="M331.5 486.5H444.5V534.5H331.5V486.5Z"/>
</mask>
<path d="M331.5 486.5V484.5H329.5V486.5H331.5ZM444.5 486.5H446.5V484.5H444.5V486.5ZM444.5 534.5V536.5H446.5V534.5H444.5ZM331.5 534.5H329.5V536.5H331.5V534.5ZM331.5 486.5V488.5H444.5V486.5V484.5H331.5V486.5ZM444.5 486.5H442.5V534.5H444.5H446.5V486.5H444.5ZM444.5 534.5V532.5H331.5V534.5V536.5H444.5V534.5ZM331.5 534.5H333.5V486.5H331.5H329.5V534.5H331.5Z" fill="black" fill-opacity="0.68" mask="url(#path-18-inside-5_75116_10826)"/>
<path d="M360.821 505.076H363.333V514.388H368.901V516.5H360.821V505.076ZM370.17 510.772C370.202 510.239 370.335 509.796 370.57 509.444C370.804 509.092 371.103 508.809 371.466 508.596C371.828 508.383 372.234 508.233 372.682 508.148C373.14 508.052 373.599 508.004 374.058 508.004C374.474 508.004 374.895 508.036 375.322 508.1C375.748 508.153 376.138 508.265 376.49 508.436C376.842 508.607 377.13 508.847 377.354 509.156C377.578 509.455 377.69 509.855 377.69 510.356V514.66C377.69 515.033 377.711 515.391 377.754 515.732C377.796 516.073 377.871 516.329 377.978 516.5H375.674C375.631 516.372 375.594 516.244 375.562 516.116C375.54 515.977 375.524 515.839 375.514 515.7C375.151 516.073 374.724 516.335 374.234 516.484C373.743 516.633 373.242 516.708 372.73 516.708C372.335 516.708 371.967 516.66 371.626 516.564C371.284 516.468 370.986 516.319 370.73 516.116C370.474 515.913 370.271 515.657 370.122 515.348C369.983 515.039 369.914 514.671 369.914 514.244C369.914 513.775 369.994 513.391 370.154 513.092C370.324 512.783 370.538 512.537 370.794 512.356C371.06 512.175 371.359 512.041 371.69 511.956C372.031 511.86 372.372 511.785 372.714 511.732C373.055 511.679 373.391 511.636 373.722 511.604C374.052 511.572 374.346 511.524 374.602 511.46C374.858 511.396 375.06 511.305 375.21 511.188C375.359 511.06 375.428 510.879 375.418 510.644C375.418 510.399 375.375 510.207 375.29 510.068C375.215 509.919 375.108 509.807 374.97 509.732C374.842 509.647 374.687 509.593 374.506 509.572C374.335 509.54 374.148 509.524 373.946 509.524C373.498 509.524 373.146 509.62 372.89 509.812C372.634 510.004 372.484 510.324 372.442 510.772H370.17ZM375.418 512.452C375.322 512.537 375.199 512.607 375.05 512.66C374.911 512.703 374.756 512.74 374.586 512.772C374.426 512.804 374.255 512.831 374.074 512.852C373.892 512.873 373.711 512.9 373.53 512.932C373.359 512.964 373.188 513.007 373.018 513.06C372.858 513.113 372.714 513.188 372.586 513.284C372.468 513.369 372.372 513.481 372.298 513.62C372.223 513.759 372.186 513.935 372.186 514.148C372.186 514.351 372.223 514.521 372.298 514.66C372.372 514.799 372.474 514.911 372.602 514.996C372.73 515.071 372.879 515.124 373.05 515.156C373.22 515.188 373.396 515.204 373.578 515.204C374.026 515.204 374.372 515.129 374.618 514.98C374.863 514.831 375.044 514.655 375.162 514.452C375.279 514.239 375.348 514.025 375.37 513.812C375.402 513.599 375.418 513.428 375.418 513.3V512.452ZM385.717 512.372C385.717 512.02 385.68 511.684 385.605 511.364C385.53 511.044 385.413 510.761 385.253 510.516C385.093 510.271 384.89 510.079 384.645 509.94C384.41 509.791 384.122 509.716 383.781 509.716C383.45 509.716 383.162 509.791 382.917 509.94C382.672 510.079 382.469 510.271 382.309 510.516C382.149 510.761 382.032 511.044 381.957 511.364C381.882 511.684 381.845 512.02 381.845 512.372C381.845 512.713 381.882 513.044 381.957 513.364C382.032 513.684 382.149 513.967 382.309 514.212C382.469 514.457 382.672 514.655 382.917 514.804C383.162 514.943 383.45 515.012 383.781 515.012C384.122 515.012 384.41 514.943 384.645 514.804C384.89 514.655 385.093 514.457 385.253 514.212C385.413 513.967 385.53 513.684 385.605 513.364C385.68 513.044 385.717 512.713 385.717 512.372ZM379.653 505.076H381.925V509.236H381.957C382.234 508.809 382.608 508.5 383.077 508.308C383.557 508.105 384.053 508.004 384.565 508.004C384.981 508.004 385.392 508.089 385.797 508.26C386.202 508.431 386.565 508.692 386.885 509.044C387.216 509.396 387.482 509.849 387.685 510.404C387.888 510.948 387.989 511.599 387.989 512.356C387.989 513.113 387.888 513.769 387.685 514.324C387.482 514.868 387.216 515.316 386.885 515.668C386.565 516.02 386.202 516.281 385.797 516.452C385.392 516.623 384.981 516.708 384.565 516.708C383.957 516.708 383.413 516.612 382.933 516.42C382.453 516.228 382.09 515.903 381.845 515.444H381.813V516.5H379.653V505.076ZM395.202 511.476C395.096 510.9 394.904 510.463 394.626 510.164C394.36 509.865 393.949 509.716 393.394 509.716C393.032 509.716 392.728 509.78 392.482 509.908C392.248 510.025 392.056 510.175 391.906 510.356C391.768 510.537 391.666 510.729 391.602 510.932C391.549 511.135 391.517 511.316 391.506 511.476H395.202ZM391.506 512.916C391.538 513.652 391.725 514.185 392.066 514.516C392.408 514.847 392.898 515.012 393.538 515.012C393.997 515.012 394.392 514.9 394.722 514.676C395.053 514.441 395.256 514.196 395.33 513.94H397.33C397.01 514.932 396.52 515.641 395.858 516.068C395.197 516.495 394.397 516.708 393.458 516.708C392.808 516.708 392.221 516.607 391.698 516.404C391.176 516.191 390.733 515.892 390.37 515.508C390.008 515.124 389.725 514.665 389.522 514.132C389.33 513.599 389.234 513.012 389.234 512.372C389.234 511.753 389.336 511.177 389.538 510.644C389.741 510.111 390.029 509.652 390.402 509.268C390.776 508.873 391.218 508.564 391.73 508.34C392.253 508.116 392.829 508.004 393.458 508.004C394.162 508.004 394.776 508.143 395.298 508.42C395.821 508.687 396.248 509.049 396.578 509.508C396.92 509.967 397.165 510.489 397.314 511.076C397.464 511.663 397.517 512.276 397.474 512.916H391.506ZM399.086 505.076H401.358V516.5H399.086V505.076Z" fill="black" fill-opacity="0.68"/>
<g clip-path="url(#clip2_75116_10826)">
<path d="M412.562 508.814L418.5 514.875L424.437 508.814L422.741 507.082L418.5 511.412L414.259 507.082L412.562 508.814Z" fill="black" fill-opacity="0.68"/>
</g>
<path d="M158.268 608.048H161.244C162.108 608.059 162.737 607.883 163.132 607.52C163.537 607.157 163.74 606.635 163.74 605.952C163.74 605.269 163.537 604.752 163.132 604.4C162.737 604.037 162.108 603.856 161.244 603.856H158.268V608.048ZM156.748 602.576H161.756C162.908 602.576 163.777 602.875 164.364 603.472C164.961 604.059 165.26 604.885 165.26 605.952C165.26 607.019 164.961 607.851 164.364 608.448C163.777 609.045 162.908 609.339 161.756 609.328H158.268V614H156.748V602.576ZM166.851 605.728H168.131V607.472H168.163C168.494 606.8 168.899 606.304 169.379 605.984C169.859 605.664 170.467 605.515 171.203 605.536V606.976C170.659 606.976 170.195 607.051 169.811 607.2C169.427 607.349 169.118 607.568 168.883 607.856C168.648 608.144 168.478 608.496 168.371 608.912C168.264 609.317 168.211 609.787 168.211 610.32V614H166.851V605.728ZM177.69 609.072C177.669 608.752 177.594 608.448 177.466 608.16C177.349 607.872 177.183 607.627 176.97 607.424C176.767 607.211 176.522 607.045 176.234 606.928C175.957 606.8 175.647 606.736 175.306 606.736C174.954 606.736 174.634 606.8 174.346 606.928C174.069 607.045 173.829 607.211 173.626 607.424C173.423 607.637 173.263 607.888 173.146 608.176C173.029 608.453 172.959 608.752 172.938 609.072H177.69ZM179.002 611.376C178.821 612.304 178.421 613.003 177.802 613.472C177.183 613.941 176.405 614.176 175.466 614.176C174.805 614.176 174.229 614.069 173.738 613.856C173.258 613.643 172.853 613.344 172.522 612.96C172.191 612.576 171.941 612.117 171.77 611.584C171.61 611.051 171.519 610.469 171.498 609.84C171.498 609.211 171.594 608.635 171.786 608.112C171.978 607.589 172.245 607.136 172.586 606.752C172.938 606.368 173.349 606.069 173.818 605.856C174.298 605.643 174.821 605.536 175.386 605.536C176.122 605.536 176.73 605.691 177.21 606C177.701 606.299 178.09 606.683 178.378 607.152C178.677 607.621 178.879 608.133 178.986 608.688C179.103 609.243 179.151 609.771 179.13 610.272H172.938C172.927 610.635 172.97 610.981 173.066 611.312C173.162 611.632 173.317 611.92 173.53 612.176C173.743 612.421 174.015 612.619 174.346 612.768C174.677 612.917 175.066 612.992 175.514 612.992C176.09 612.992 176.559 612.859 176.922 612.592C177.295 612.325 177.541 611.92 177.658 611.376H179.002ZM181.372 611.392C181.382 611.691 181.452 611.947 181.58 612.16C181.708 612.363 181.873 612.528 182.076 612.656C182.289 612.773 182.524 612.859 182.78 612.912C183.046 612.965 183.318 612.992 183.596 612.992C183.809 612.992 184.033 612.976 184.268 612.944C184.502 612.912 184.716 612.853 184.908 612.768C185.11 612.683 185.276 612.56 185.404 612.4C185.532 612.229 185.596 612.016 185.596 611.76C185.596 611.408 185.462 611.141 185.196 610.96C184.929 610.779 184.593 610.635 184.188 610.528C183.793 610.411 183.361 610.309 182.892 610.224C182.422 610.128 181.985 610 181.58 609.84C181.185 609.669 180.854 609.435 180.588 609.136C180.321 608.837 180.188 608.421 180.188 607.888C180.188 607.472 180.278 607.115 180.46 606.816C180.652 606.517 180.892 606.277 181.18 606.096C181.478 605.904 181.809 605.765 182.172 605.68C182.545 605.584 182.913 605.536 183.276 605.536C183.745 605.536 184.177 605.579 184.572 605.664C184.966 605.739 185.313 605.877 185.612 606.08C185.921 606.272 186.166 606.539 186.348 606.88C186.529 607.211 186.636 607.627 186.668 608.128H185.308C185.286 607.861 185.217 607.643 185.1 607.472C184.982 607.291 184.833 607.147 184.652 607.04C184.47 606.933 184.268 606.859 184.044 606.816C183.83 606.763 183.612 606.736 183.388 606.736C183.185 606.736 182.977 606.752 182.764 606.784C182.561 606.816 182.374 606.875 182.204 606.96C182.033 607.035 181.894 607.141 181.788 607.28C181.681 607.408 181.628 607.579 181.628 607.792C181.628 608.027 181.708 608.224 181.868 608.384C182.038 608.533 182.252 608.661 182.508 608.768C182.764 608.864 183.052 608.949 183.372 609.024C183.692 609.088 184.012 609.157 184.332 609.232C184.673 609.307 185.004 609.397 185.324 609.504C185.654 609.611 185.942 609.755 186.188 609.936C186.444 610.107 186.646 610.325 186.796 610.592C186.956 610.859 187.036 611.189 187.036 611.584C187.036 612.085 186.929 612.501 186.716 612.832C186.513 613.163 186.241 613.429 185.9 613.632C185.569 613.835 185.19 613.973 184.764 614.048C184.348 614.133 183.932 614.176 183.516 614.176C183.057 614.176 182.62 614.128 182.204 614.032C181.788 613.936 181.42 613.781 181.1 613.568C180.78 613.344 180.524 613.056 180.332 612.704C180.14 612.341 180.033 611.904 180.012 611.392H181.372ZM189.372 611.392C189.382 611.691 189.452 611.947 189.58 612.16C189.708 612.363 189.873 612.528 190.076 612.656C190.289 612.773 190.524 612.859 190.78 612.912C191.046 612.965 191.318 612.992 191.596 612.992C191.809 612.992 192.033 612.976 192.268 612.944C192.502 612.912 192.716 612.853 192.908 612.768C193.11 612.683 193.276 612.56 193.404 612.4C193.532 612.229 193.596 612.016 193.596 611.76C193.596 611.408 193.462 611.141 193.196 610.96C192.929 610.779 192.593 610.635 192.188 610.528C191.793 610.411 191.361 610.309 190.892 610.224C190.422 610.128 189.985 610 189.58 609.84C189.185 609.669 188.854 609.435 188.588 609.136C188.321 608.837 188.188 608.421 188.188 607.888C188.188 607.472 188.278 607.115 188.46 606.816C188.652 606.517 188.892 606.277 189.18 606.096C189.478 605.904 189.809 605.765 190.172 605.68C190.545 605.584 190.913 605.536 191.276 605.536C191.745 605.536 192.177 605.579 192.572 605.664C192.966 605.739 193.313 605.877 193.612 606.08C193.921 606.272 194.166 606.539 194.348 606.88C194.529 607.211 194.636 607.627 194.668 608.128H193.308C193.286 607.861 193.217 607.643 193.1 607.472C192.982 607.291 192.833 607.147 192.652 607.04C192.47 606.933 192.268 606.859 192.044 606.816C191.83 606.763 191.612 606.736 191.388 606.736C191.185 606.736 190.977 606.752 190.764 606.784C190.561 606.816 190.374 606.875 190.204 606.96C190.033 607.035 189.894 607.141 189.788 607.28C189.681 607.408 189.628 607.579 189.628 607.792C189.628 608.027 189.708 608.224 189.868 608.384C190.038 608.533 190.252 608.661 190.508 608.768C190.764 608.864 191.052 608.949 191.372 609.024C191.692 609.088 192.012 609.157 192.332 609.232C192.673 609.307 193.004 609.397 193.324 609.504C193.654 609.611 193.942 609.755 194.188 609.936C194.444 610.107 194.646 610.325 194.796 610.592C194.956 610.859 195.036 611.189 195.036 611.584C195.036 612.085 194.929 612.501 194.716 612.832C194.513 613.163 194.241 613.429 193.9 613.632C193.569 613.835 193.19 613.973 192.764 614.048C192.348 614.133 191.932 614.176 191.516 614.176C191.057 614.176 190.62 614.128 190.204 614.032C189.788 613.936 189.42 613.781 189.1 613.568C188.78 613.344 188.524 613.056 188.332 612.704C188.14 612.341 188.033 611.904 188.012 611.392H189.372ZM202.284 609.072C202.262 608.752 202.188 608.448 202.06 608.16C201.942 607.872 201.777 607.627 201.564 607.424C201.361 607.211 201.116 607.045 200.828 606.928C200.55 606.8 200.241 606.736 199.9 606.736C199.548 606.736 199.228 606.8 198.94 606.928C198.662 607.045 198.422 607.211 198.22 607.424C198.017 607.637 197.857 607.888 197.74 608.176C197.622 608.453 197.553 608.752 197.532 609.072H202.284ZM203.596 611.376C203.414 612.304 203.014 613.003 202.396 613.472C201.777 613.941 200.998 614.176 200.06 614.176C199.398 614.176 198.822 614.069 198.332 613.856C197.852 613.643 197.446 613.344 197.116 612.96C196.785 612.576 196.534 612.117 196.364 611.584C196.204 611.051 196.113 610.469 196.092 609.84C196.092 609.211 196.188 608.635 196.38 608.112C196.572 607.589 196.838 607.136 197.18 606.752C197.532 606.368 197.942 606.069 198.412 605.856C198.892 605.643 199.414 605.536 199.98 605.536C200.716 605.536 201.324 605.691 201.804 606C202.294 606.299 202.684 606.683 202.972 607.152C203.27 607.621 203.473 608.133 203.58 608.688C203.697 609.243 203.745 609.771 203.724 610.272H197.532C197.521 610.635 197.564 610.981 197.66 611.312C197.756 611.632 197.91 611.92 198.124 612.176C198.337 612.421 198.609 612.619 198.94 612.768C199.27 612.917 199.66 612.992 200.108 612.992C200.684 612.992 201.153 612.859 201.516 612.592C201.889 612.325 202.134 611.92 202.252 611.376H203.596ZM206.125 609.936C206.125 610.32 206.173 610.699 206.269 611.072C206.376 611.435 206.531 611.76 206.733 612.048C206.947 612.336 207.213 612.565 207.533 612.736C207.864 612.907 208.248 612.992 208.685 612.992C209.144 612.992 209.533 612.901 209.853 612.72C210.173 612.539 210.435 612.304 210.637 612.016C210.84 611.717 210.984 611.381 211.069 611.008C211.165 610.635 211.213 610.256 211.213 609.872C211.213 609.467 211.165 609.077 211.069 608.704C210.973 608.32 210.819 607.984 210.605 607.696C210.403 607.408 210.136 607.179 209.805 607.008C209.475 606.827 209.075 606.736 208.605 606.736C208.147 606.736 207.757 606.827 207.437 607.008C207.117 607.189 206.861 607.429 206.669 607.728C206.477 608.027 206.339 608.368 206.253 608.752C206.168 609.136 206.125 609.531 206.125 609.936ZM212.525 614H211.165V612.88H211.133C210.909 613.339 210.557 613.669 210.077 613.872C209.597 614.075 209.069 614.176 208.493 614.176C207.853 614.176 207.293 614.059 206.813 613.824C206.344 613.589 205.949 613.275 205.629 612.88C205.32 612.485 205.085 612.027 204.925 611.504C204.765 610.981 204.685 610.427 204.685 609.84C204.685 609.253 204.76 608.699 204.909 608.176C205.069 607.653 205.304 607.2 205.613 606.816C205.933 606.421 206.328 606.112 206.797 605.888C207.277 605.653 207.832 605.536 208.461 605.536C208.675 605.536 208.904 605.557 209.149 605.6C209.395 605.643 209.64 605.717 209.885 605.824C210.131 605.92 210.36 606.053 210.573 606.224C210.797 606.384 210.984 606.587 211.133 606.832H211.165V602.576H212.525V614Z" fill="black" fill-opacity="0.68"/>
<mask id="path-24-inside-6_75116_10826" fill="white">
<path d="M331.5 584.5H444.5V632.5H331.5V584.5Z"/>
</mask>
<path d="M331.5 584.5V582.5H329.5V584.5H331.5ZM444.5 584.5H446.5V582.5H444.5V584.5ZM444.5 632.5V634.5H446.5V632.5H444.5ZM331.5 632.5H329.5V634.5H331.5V632.5ZM331.5 584.5V586.5H444.5V584.5V582.5H331.5V584.5ZM444.5 584.5H442.5V632.5H444.5H446.5V584.5H444.5ZM444.5 632.5V630.5H331.5V632.5V634.5H444.5V632.5ZM331.5 632.5H333.5V584.5H331.5H329.5V632.5H331.5Z" fill="#F15E00" mask="url(#path-24-inside-6_75116_10826)"/>
<path d="M360.821 603.076H363.333V612.388H368.901V614.5H360.821V603.076ZM370.17 608.772C370.202 608.239 370.335 607.796 370.57 607.444C370.804 607.092 371.103 606.809 371.466 606.596C371.828 606.383 372.234 606.233 372.682 606.148C373.14 606.052 373.599 606.004 374.058 606.004C374.474 606.004 374.895 606.036 375.322 606.1C375.748 606.153 376.138 606.265 376.49 606.436C376.842 606.607 377.13 606.847 377.354 607.156C377.578 607.455 377.69 607.855 377.69 608.356V612.66C377.69 613.033 377.711 613.391 377.754 613.732C377.796 614.073 377.871 614.329 377.978 614.5H375.674C375.631 614.372 375.594 614.244 375.562 614.116C375.54 613.977 375.524 613.839 375.514 613.7C375.151 614.073 374.724 614.335 374.234 614.484C373.743 614.633 373.242 614.708 372.73 614.708C372.335 614.708 371.967 614.66 371.626 614.564C371.284 614.468 370.986 614.319 370.73 614.116C370.474 613.913 370.271 613.657 370.122 613.348C369.983 613.039 369.914 612.671 369.914 612.244C369.914 611.775 369.994 611.391 370.154 611.092C370.324 610.783 370.538 610.537 370.794 610.356C371.06 610.175 371.359 610.041 371.69 609.956C372.031 609.86 372.372 609.785 372.714 609.732C373.055 609.679 373.391 609.636 373.722 609.604C374.052 609.572 374.346 609.524 374.602 609.46C374.858 609.396 375.06 609.305 375.21 609.188C375.359 609.06 375.428 608.879 375.418 608.644C375.418 608.399 375.375 608.207 375.29 608.068C375.215 607.919 375.108 607.807 374.97 607.732C374.842 607.647 374.687 607.593 374.506 607.572C374.335 607.54 374.148 607.524 373.946 607.524C373.498 607.524 373.146 607.62 372.89 607.812C372.634 608.004 372.484 608.324 372.442 608.772H370.17ZM375.418 610.452C375.322 610.537 375.199 610.607 375.05 610.66C374.911 610.703 374.756 610.74 374.586 610.772C374.426 610.804 374.255 610.831 374.074 610.852C373.892 610.873 373.711 610.9 373.53 610.932C373.359 610.964 373.188 611.007 373.018 611.06C372.858 611.113 372.714 611.188 372.586 611.284C372.468 611.369 372.372 611.481 372.298 611.62C372.223 611.759 372.186 611.935 372.186 612.148C372.186 612.351 372.223 612.521 372.298 612.66C372.372 612.799 372.474 612.911 372.602 612.996C372.73 613.071 372.879 613.124 373.05 613.156C373.22 613.188 373.396 613.204 373.578 613.204C374.026 613.204 374.372 613.129 374.618 612.98C374.863 612.831 375.044 612.655 375.162 612.452C375.279 612.239 375.348 612.025 375.37 611.812C375.402 611.599 375.418 611.428 375.418 611.3V610.452ZM385.717 610.372C385.717 610.02 385.68 609.684 385.605 609.364C385.53 609.044 385.413 608.761 385.253 608.516C385.093 608.271 384.89 608.079 384.645 607.94C384.41 607.791 384.122 607.716 383.781 607.716C383.45 607.716 383.162 607.791 382.917 607.94C382.672 608.079 382.469 608.271 382.309 608.516C382.149 608.761 382.032 609.044 381.957 609.364C381.882 609.684 381.845 610.02 381.845 610.372C381.845 610.713 381.882 611.044 381.957 611.364C382.032 611.684 382.149 611.967 382.309 612.212C382.469 612.457 382.672 612.655 382.917 612.804C383.162 612.943 383.45 613.012 383.781 613.012C384.122 613.012 384.41 612.943 384.645 612.804C384.89 612.655 385.093 612.457 385.253 612.212C385.413 611.967 385.53 611.684 385.605 611.364C385.68 611.044 385.717 610.713 385.717 610.372ZM379.653 603.076H381.925V607.236H381.957C382.234 606.809 382.608 606.5 383.077 606.308C383.557 606.105 384.053 606.004 384.565 606.004C384.981 606.004 385.392 606.089 385.797 606.26C386.202 606.431 386.565 606.692 386.885 607.044C387.216 607.396 387.482 607.849 387.685 608.404C387.888 608.948 387.989 609.599 387.989 610.356C387.989 611.113 387.888 611.769 387.685 612.324C387.482 612.868 387.216 613.316 386.885 613.668C386.565 614.02 386.202 614.281 385.797 614.452C385.392 614.623 384.981 614.708 384.565 614.708C383.957 614.708 383.413 614.612 382.933 614.42C382.453 614.228 382.09 613.903 381.845 613.444H381.813V614.5H379.653V603.076ZM395.202 609.476C395.096 608.9 394.904 608.463 394.626 608.164C394.36 607.865 393.949 607.716 393.394 607.716C393.032 607.716 392.728 607.78 392.482 607.908C392.248 608.025 392.056 608.175 391.906 608.356C391.768 608.537 391.666 608.729 391.602 608.932C391.549 609.135 391.517 609.316 391.506 609.476H395.202ZM391.506 610.916C391.538 611.652 391.725 612.185 392.066 612.516C392.408 612.847 392.898 613.012 393.538 613.012C393.997 613.012 394.392 612.9 394.722 612.676C395.053 612.441 395.256 612.196 395.33 611.94H397.33C397.01 612.932 396.52 613.641 395.858 614.068C395.197 614.495 394.397 614.708 393.458 614.708C392.808 614.708 392.221 614.607 391.698 614.404C391.176 614.191 390.733 613.892 390.37 613.508C390.008 613.124 389.725 612.665 389.522 612.132C389.33 611.599 389.234 611.012 389.234 610.372C389.234 609.753 389.336 609.177 389.538 608.644C389.741 608.111 390.029 607.652 390.402 607.268C390.776 606.873 391.218 606.564 391.73 606.34C392.253 606.116 392.829 606.004 393.458 606.004C394.162 606.004 394.776 606.143 395.298 606.42C395.821 606.687 396.248 607.049 396.578 607.508C396.92 607.967 397.165 608.489 397.314 609.076C397.464 609.663 397.517 610.276 397.474 610.916H391.506ZM399.086 603.076H401.358V614.5H399.086V603.076Z" fill="#F15E00"/>
<g clip-path="url(#clip3_75116_10826)">
<path d="M412.562 606.814L418.5 612.875L424.437 606.814L422.741 605.082L418.5 609.412L414.259 605.082L412.562 606.814Z" fill="#F15E00"/>
</g>
<path d="M156.748 700.576H158.268V710.72H164.316V712H156.748V700.576ZM166.407 707.872C166.407 708.373 166.471 708.821 166.599 709.216C166.737 709.6 166.924 709.925 167.159 710.192C167.393 710.448 167.665 710.645 167.975 710.784C168.295 710.923 168.631 710.992 168.983 710.992C169.335 710.992 169.665 710.923 169.975 710.784C170.295 710.645 170.572 710.448 170.807 710.192C171.041 709.925 171.223 709.6 171.351 709.216C171.489 708.821 171.559 708.373 171.559 707.872C171.559 707.371 171.489 706.928 171.351 706.544C171.223 706.149 171.041 705.819 170.807 705.552C170.572 705.285 170.295 705.083 169.975 704.944C169.665 704.805 169.335 704.736 168.983 704.736C168.631 704.736 168.295 704.805 167.975 704.944C167.665 705.083 167.393 705.285 167.159 705.552C166.924 705.819 166.737 706.149 166.599 706.544C166.471 706.928 166.407 707.371 166.407 707.872ZM164.967 707.872C164.967 707.264 165.052 706.699 165.223 706.176C165.393 705.643 165.649 705.184 165.991 704.8C166.332 704.405 166.753 704.096 167.255 703.872C167.756 703.648 168.332 703.536 168.983 703.536C169.644 703.536 170.22 703.648 170.711 703.872C171.212 704.096 171.633 704.405 171.975 704.8C172.316 705.184 172.572 705.643 172.743 706.176C172.913 706.699 172.999 707.264 172.999 707.872C172.999 708.48 172.913 709.045 172.743 709.568C172.572 710.091 172.316 710.549 171.975 710.944C171.633 711.328 171.212 711.632 170.711 711.856C170.22 712.069 169.644 712.176 168.983 712.176C168.332 712.176 167.756 712.069 167.255 711.856C166.753 711.632 166.332 711.328 165.991 710.944C165.649 710.549 165.393 710.091 165.223 709.568C165.052 709.045 164.967 708.48 164.967 707.872ZM181.93 711.968C181.695 712.107 181.37 712.176 180.954 712.176C180.602 712.176 180.319 712.08 180.106 711.888C179.903 711.685 179.802 711.36 179.802 710.912C179.429 711.36 178.991 711.685 178.49 711.888C177.999 712.08 177.466 712.176 176.89 712.176C176.517 712.176 176.159 712.133 175.818 712.048C175.487 711.963 175.199 711.829 174.954 711.648C174.709 711.467 174.511 711.232 174.362 710.944C174.223 710.645 174.154 710.288 174.154 709.872C174.154 709.403 174.234 709.019 174.394 708.72C174.554 708.421 174.762 708.181 175.018 708C175.285 707.808 175.583 707.664 175.914 707.568C176.255 707.472 176.602 707.392 176.954 707.328C177.327 707.253 177.679 707.2 178.01 707.168C178.351 707.125 178.65 707.072 178.906 707.008C179.162 706.933 179.365 706.832 179.514 706.704C179.663 706.565 179.738 706.368 179.738 706.112C179.738 705.813 179.679 705.573 179.562 705.392C179.455 705.211 179.311 705.072 179.13 704.976C178.959 704.88 178.762 704.816 178.538 704.784C178.325 704.752 178.111 704.736 177.898 704.736C177.322 704.736 176.842 704.848 176.458 705.072C176.074 705.285 175.866 705.696 175.834 706.304H174.474C174.495 705.792 174.602 705.36 174.794 705.008C174.986 704.656 175.242 704.373 175.562 704.16C175.882 703.936 176.245 703.776 176.65 703.68C177.066 703.584 177.509 703.536 177.978 703.536C178.351 703.536 178.719 703.563 179.082 703.616C179.455 703.669 179.791 703.781 180.09 703.952C180.389 704.112 180.629 704.341 180.81 704.64C180.991 704.939 181.082 705.328 181.082 705.808V710.064C181.082 710.384 181.098 710.619 181.13 710.768C181.173 710.917 181.301 710.992 181.514 710.992C181.631 710.992 181.77 710.965 181.93 710.912V711.968ZM179.722 707.728C179.551 707.856 179.327 707.952 179.05 708.016C178.773 708.069 178.479 708.117 178.17 708.16C177.871 708.192 177.567 708.235 177.258 708.288C176.949 708.331 176.671 708.405 176.426 708.512C176.181 708.619 175.978 708.773 175.818 708.976C175.669 709.168 175.594 709.435 175.594 709.776C175.594 710 175.637 710.192 175.722 710.352C175.818 710.501 175.935 710.624 176.074 710.72C176.223 710.816 176.394 710.885 176.586 710.928C176.778 710.971 176.981 710.992 177.194 710.992C177.642 710.992 178.026 710.933 178.346 710.816C178.666 710.688 178.927 710.533 179.13 710.352C179.333 710.16 179.482 709.957 179.578 709.744C179.674 709.52 179.722 709.312 179.722 709.12V707.728ZM184.188 707.936C184.188 708.32 184.236 708.699 184.332 709.072C184.439 709.435 184.593 709.76 184.796 710.048C185.009 710.336 185.276 710.565 185.596 710.736C185.927 710.907 186.311 710.992 186.748 710.992C187.207 710.992 187.596 710.901 187.916 710.72C188.236 710.539 188.497 710.304 188.7 710.016C188.903 709.717 189.047 709.381 189.132 709.008C189.228 708.635 189.276 708.256 189.276 707.872C189.276 707.467 189.228 707.077 189.132 706.704C189.036 706.32 188.881 705.984 188.668 705.696C188.465 705.408 188.199 705.179 187.868 705.008C187.537 704.827 187.137 704.736 186.668 704.736C186.209 704.736 185.82 704.827 185.5 705.008C185.18 705.189 184.924 705.429 184.732 705.728C184.54 706.027 184.401 706.368 184.316 706.752C184.231 707.136 184.188 707.531 184.188 707.936ZM190.588 712H189.228V710.88H189.196C188.972 711.339 188.62 711.669 188.14 711.872C187.66 712.075 187.132 712.176 186.556 712.176C185.916 712.176 185.356 712.059 184.876 711.824C184.407 711.589 184.012 711.275 183.692 710.88C183.383 710.485 183.148 710.027 182.988 709.504C182.828 708.981 182.748 708.427 182.748 707.84C182.748 707.253 182.823 706.699 182.972 706.176C183.132 705.653 183.367 705.2 183.676 704.816C183.996 704.421 184.391 704.112 184.86 703.888C185.34 703.653 185.895 703.536 186.524 703.536C186.737 703.536 186.967 703.557 187.212 703.6C187.457 703.643 187.703 703.717 187.948 703.824C188.193 703.92 188.423 704.053 188.636 704.224C188.86 704.384 189.047 704.587 189.196 704.832H189.228V700.576H190.588V712ZM194.12 702.24H192.76V700.576H194.12V702.24ZM192.76 703.728H194.12V712H192.76V703.728ZM196.227 703.728H197.507V705.04H197.539C198.104 704.037 199 703.536 200.227 703.536C200.771 703.536 201.224 703.611 201.587 703.76C201.95 703.909 202.243 704.117 202.467 704.384C202.691 704.651 202.846 704.971 202.931 705.344C203.027 705.707 203.075 706.112 203.075 706.56V712H201.715V706.4C201.715 705.888 201.566 705.483 201.267 705.184C200.968 704.885 200.558 704.736 200.035 704.736C199.619 704.736 199.256 704.8 198.947 704.928C198.648 705.056 198.398 705.237 198.195 705.472C197.992 705.707 197.838 705.984 197.731 706.304C197.635 706.613 197.587 706.955 197.587 707.328V712H196.227V703.728ZM212.254 711.296C212.254 712.651 211.944 713.664 211.326 714.336C210.707 715.008 209.736 715.344 208.414 715.344C208.03 715.344 207.635 715.301 207.23 715.216C206.835 715.131 206.472 714.992 206.142 714.8C205.822 714.608 205.555 714.357 205.342 714.048C205.128 713.739 205.011 713.36 204.99 712.912H206.35C206.36 713.157 206.435 713.365 206.574 713.536C206.723 713.707 206.899 713.845 207.102 713.952C207.315 714.059 207.544 714.133 207.79 714.176C208.035 714.229 208.27 714.256 208.494 714.256C208.942 714.256 209.32 714.176 209.63 714.016C209.939 713.867 210.195 713.653 210.398 713.376C210.6 713.109 210.744 712.784 210.83 712.4C210.926 712.016 210.974 711.595 210.974 711.136V710.592H210.942C210.707 711.104 210.35 711.483 209.87 711.728C209.4 711.963 208.899 712.08 208.366 712.08C207.747 712.08 207.208 711.968 206.75 711.744C206.291 711.52 205.907 711.221 205.598 710.848C205.288 710.464 205.054 710.021 204.894 709.52C204.744 709.008 204.67 708.469 204.67 707.904C204.67 707.413 204.734 706.912 204.862 706.4C204.99 705.877 205.203 705.408 205.502 704.992C205.8 704.565 206.195 704.219 206.686 703.952C207.176 703.675 207.779 703.536 208.494 703.536C209.016 703.536 209.496 703.653 209.934 703.888C210.371 704.112 210.712 704.453 210.958 704.912H210.974V703.728H212.254V711.296ZM208.446 710.896C208.894 710.896 209.272 710.805 209.582 710.624C209.902 710.432 210.158 710.187 210.35 709.888C210.542 709.579 210.68 709.232 210.766 708.848C210.862 708.464 210.91 708.08 210.91 707.696C210.91 707.333 210.867 706.976 210.782 706.624C210.696 706.272 210.558 705.957 210.366 705.68C210.184 705.392 209.944 705.163 209.646 704.992C209.347 704.821 208.984 704.736 208.558 704.736C208.12 704.736 207.747 704.821 207.438 704.992C207.128 705.152 206.872 705.371 206.67 705.648C206.478 705.925 206.334 706.245 206.238 706.608C206.152 706.971 206.11 707.349 206.11 707.744C206.11 708.117 206.147 708.491 206.222 708.864C206.296 709.237 206.424 709.579 206.606 709.888C206.787 710.187 207.027 710.432 207.326 710.624C207.624 710.805 207.998 710.896 208.446 710.896Z" fill="black" fill-opacity="0.68"/>
<mask id="path-30-inside-7_75116_10826" fill="white">
<path d="M331.5 682.5H444.5V730.5H331.5V682.5Z"/>
</mask>
<path d="M331.5 682.5V680.5H329.5V682.5H331.5ZM444.5 682.5H446.5V680.5H444.5V682.5ZM444.5 730.5V732.5H446.5V730.5H444.5ZM331.5 730.5H329.5V732.5H331.5V730.5ZM331.5 682.5V684.5H444.5V682.5V680.5H331.5V682.5ZM444.5 682.5H442.5V730.5H444.5H446.5V682.5H444.5ZM444.5 730.5V728.5H331.5V730.5V732.5H444.5V730.5ZM331.5 730.5H333.5V682.5H331.5H329.5V730.5H331.5Z" fill="#F15E00" mask="url(#path-30-inside-7_75116_10826)"/>
<mask id="mask0_75116_10826" style="mask-type:alpha" maskUnits="userSpaceOnUse" x="378" y="696" width="21" height="21">
<path d="M388.5 696.5C394.023 696.5 398.5 700.977 398.5 706.5C398.5 712.023 394.023 716.5 388.5 716.5C382.977 716.5 378.5 712.023 378.5 706.5C378.5 700.977 382.977 696.5 388.5 696.5ZM388.5 699.417C384.588 699.417 381.417 702.588 381.417 706.5C381.417 710.412 384.588 713.583 388.5 713.583C392.412 713.583 395.583 710.412 395.583 706.5C395.583 702.588 392.412 699.417 388.5 699.417Z" fill="#CCCCCC"/>
</mask>
<g mask="url(#mask0_75116_10826)">
<mask id="mask1_75116_10826" style="mask-type:alpha" maskUnits="userSpaceOnUse" x="378" y="696" width="11" height="11">
<path d="M388.5 696.5C387.187 696.5 385.886 696.759 384.673 697.261C383.46 697.764 382.358 698.5 381.429 699.429C380.5 700.358 379.764 701.46 379.261 702.673C378.759 703.886 378.5 705.187 378.5 706.5L388.5 706.5L388.5 696.5Z" fill="#F15E00"/>
<path d="M388.5 696.5C387.187 696.5 385.886 696.759 384.673 697.261C383.46 697.764 382.358 698.5 381.429 699.429C380.5 700.358 379.764 701.46 379.261 702.673C378.759 703.886 378.5 705.187 378.5 706.5L388.5 706.5L388.5 696.5Z" fill="#F15E00"/>
<path d="M388.5 696.5C387.187 696.5 385.886 696.759 384.673 697.261C383.46 697.764 382.358 698.5 381.429 699.429C380.5 700.358 379.764 701.46 379.261 702.673C378.759 703.886 378.5 705.187 378.5 706.5L388.5 706.5L388.5 696.5Z" fill="#F15E00"/>
<path d="M388.5 696.5C387.187 696.5 385.886 696.759 384.673 697.261C383.46 697.764 382.358 698.5 381.429 699.429C380.5 700.358 379.764 701.46 379.261 702.673C378.759 703.886 378.5 705.187 378.5 706.5L388.5 706.5L388.5 696.5Z" fill="#F15E00"/>
</mask>
<g mask="url(#mask1_75116_10826)">
<path d="M388.5 716.5C385.848 716.5 383.304 715.446 381.429 713.571C379.554 711.696 378.5 709.152 378.5 706.5C378.5 703.848 379.554 701.304 381.429 699.429C383.304 697.554 385.848 696.5 388.5 696.5L388.5 706.5L388.5 716.5Z" fill="#F15E00"/>
</g>
</g>
<path d="M158.268 808.72H160.796C160.967 808.72 161.18 808.709 161.436 808.688C161.692 808.656 161.964 808.592 162.252 808.496C162.54 808.389 162.823 808.24 163.1 808.048C163.388 807.856 163.644 807.595 163.868 807.264C164.092 806.933 164.273 806.523 164.412 806.032C164.561 805.531 164.636 804.928 164.636 804.224C164.636 803.541 164.567 802.933 164.428 802.4C164.3 801.856 164.081 801.397 163.772 801.024C163.473 800.64 163.084 800.352 162.604 800.16C162.124 799.957 161.532 799.856 160.828 799.856H158.268V808.72ZM156.748 798.576H160.668C162.428 798.576 163.783 799.024 164.732 799.92C165.681 800.816 166.156 802.181 166.156 804.016C166.156 804.976 166.049 805.829 165.836 806.576C165.623 807.312 165.292 807.936 164.844 808.448C164.396 808.949 163.825 809.333 163.132 809.6C162.439 809.867 161.617 810 160.668 810H156.748V798.576ZM169.23 800.24H167.87V798.576H169.23V800.24ZM167.87 801.728H169.23V810H167.87V801.728ZM172.169 807.392C172.179 807.691 172.249 807.947 172.377 808.16C172.505 808.363 172.67 808.528 172.873 808.656C173.086 808.773 173.321 808.859 173.577 808.912C173.843 808.965 174.115 808.992 174.393 808.992C174.606 808.992 174.83 808.976 175.065 808.944C175.299 808.912 175.513 808.853 175.705 808.768C175.907 808.683 176.073 808.56 176.201 808.4C176.329 808.229 176.393 808.016 176.393 807.76C176.393 807.408 176.259 807.141 175.993 806.96C175.726 806.779 175.39 806.635 174.985 806.528C174.59 806.411 174.158 806.309 173.689 806.224C173.219 806.128 172.782 806 172.377 805.84C171.982 805.669 171.651 805.435 171.385 805.136C171.118 804.837 170.985 804.421 170.985 803.888C170.985 803.472 171.075 803.115 171.257 802.816C171.449 802.517 171.689 802.277 171.977 802.096C172.275 801.904 172.606 801.765 172.969 801.68C173.342 801.584 173.71 801.536 174.073 801.536C174.542 801.536 174.974 801.579 175.369 801.664C175.763 801.739 176.11 801.877 176.409 802.08C176.718 802.272 176.963 802.539 177.145 802.88C177.326 803.211 177.433 803.627 177.465 804.128H176.105C176.083 803.861 176.014 803.643 175.897 803.472C175.779 803.291 175.63 803.147 175.449 803.04C175.267 802.933 175.065 802.859 174.841 802.816C174.627 802.763 174.409 802.736 174.185 802.736C173.982 802.736 173.774 802.752 173.561 802.784C173.358 802.816 173.171 802.875 173.001 802.96C172.83 803.035 172.691 803.141 172.585 803.28C172.478 803.408 172.424 803.579 172.424 803.792C172.424 804.027 172.504 804.224 172.664 804.384C172.835 804.533 173.049 804.661 173.305 804.768C173.561 804.864 173.849 804.949 174.169 805.024C174.489 805.088 174.809 805.157 175.129 805.232C175.47 805.307 175.801 805.397 176.121 805.504C176.451 805.611 176.739 805.755 176.985 805.936C177.241 806.107 177.443 806.325 177.593 806.592C177.753 806.859 177.833 807.189 177.833 807.584C177.833 808.085 177.726 808.501 177.513 808.832C177.31 809.163 177.038 809.429 176.697 809.632C176.366 809.835 175.987 809.973 175.561 810.048C175.145 810.133 174.729 810.176 174.312 810.176C173.854 810.176 173.417 810.128 173.001 810.032C172.585 809.936 172.217 809.781 171.897 809.568C171.577 809.344 171.321 809.056 171.129 808.704C170.937 808.341 170.83 807.904 170.809 807.392H172.169ZM186.665 809.968C186.43 810.107 186.105 810.176 185.689 810.176C185.337 810.176 185.054 810.08 184.841 809.888C184.638 809.685 184.537 809.36 184.537 808.912C184.163 809.36 183.726 809.685 183.225 809.888C182.734 810.08 182.201 810.176 181.625 810.176C181.251 810.176 180.894 810.133 180.553 810.048C180.222 809.963 179.934 809.829 179.689 809.648C179.443 809.467 179.246 809.232 179.097 808.944C178.958 808.645 178.889 808.288 178.889 807.872C178.889 807.403 178.969 807.019 179.129 806.72C179.289 806.421 179.497 806.181 179.753 806C180.019 805.808 180.318 805.664 180.649 805.568C180.99 805.472 181.337 805.392 181.689 805.328C182.062 805.253 182.414 805.2 182.745 805.168C183.086 805.125 183.385 805.072 183.641 805.008C183.897 804.933 184.099 804.832 184.249 804.704C184.398 804.565 184.473 804.368 184.473 804.112C184.473 803.813 184.414 803.573 184.297 803.392C184.19 803.211 184.046 803.072 183.865 802.976C183.694 802.88 183.497 802.816 183.273 802.784C183.059 802.752 182.846 802.736 182.633 802.736C182.057 802.736 181.577 802.848 181.193 803.072C180.809 803.285 180.601 803.696 180.569 804.304H179.209C179.23 803.792 179.337 803.36 179.529 803.008C179.721 802.656 179.977 802.373 180.297 802.16C180.617 801.936 180.979 801.776 181.385 801.68C181.801 801.584 182.243 801.536 182.713 801.536C183.086 801.536 183.454 801.563 183.817 801.616C184.19 801.669 184.526 801.781 184.825 801.952C185.123 802.112 185.363 802.341 185.545 802.64C185.726 802.939 185.817 803.328 185.817 803.808V808.064C185.817 808.384 185.833 808.619 185.865 808.768C185.907 808.917 186.035 808.992 186.249 808.992C186.366 808.992 186.505 808.965 186.665 808.912V809.968ZM184.457 805.728C184.286 805.856 184.062 805.952 183.785 806.016C183.507 806.069 183.214 806.117 182.905 806.16C182.606 806.192 182.302 806.235 181.993 806.288C181.683 806.331 181.406 806.405 181.161 806.512C180.915 806.619 180.713 806.773 180.553 806.976C180.403 807.168 180.329 807.435 180.329 807.776C180.329 808 180.371 808.192 180.457 808.352C180.553 808.501 180.67 808.624 180.809 808.72C180.958 808.816 181.129 808.885 181.321 808.928C181.513 808.971 181.715 808.992 181.929 808.992C182.377 808.992 182.761 808.933 183.081 808.816C183.401 808.688 183.662 808.533 183.865 808.352C184.067 808.16 184.217 807.957 184.313 807.744C184.409 807.52 184.457 807.312 184.457 807.12V805.728ZM187.978 798.576H189.338V802.848H189.37C189.594 802.389 189.946 802.059 190.426 801.856C190.906 801.643 191.434 801.536 192.01 801.536C192.65 801.536 193.205 801.653 193.674 801.888C194.154 802.123 194.549 802.443 194.858 802.848C195.178 803.243 195.418 803.701 195.578 804.224C195.738 804.747 195.818 805.301 195.818 805.888C195.818 806.475 195.738 807.029 195.578 807.552C195.429 808.075 195.194 808.533 194.874 808.928C194.565 809.312 194.17 809.616 193.69 809.84C193.221 810.064 192.672 810.176 192.042 810.176C191.84 810.176 191.61 810.155 191.354 810.112C191.109 810.069 190.864 810 190.618 809.904C190.373 809.808 190.138 809.68 189.914 809.52C189.701 809.349 189.52 809.141 189.37 808.896H189.338V810H187.978V798.576ZM194.378 805.792C194.378 805.408 194.325 805.035 194.218 804.672C194.122 804.299 193.968 803.968 193.754 803.68C193.552 803.392 193.285 803.163 192.954 802.992C192.634 802.821 192.256 802.736 191.818 802.736C191.36 802.736 190.97 802.827 190.65 803.008C190.33 803.189 190.069 803.429 189.866 803.728C189.664 804.016 189.514 804.347 189.418 804.72C189.333 805.093 189.29 805.472 189.29 805.856C189.29 806.261 189.338 806.656 189.434 807.04C189.53 807.413 189.68 807.744 189.882 808.032C190.096 808.32 190.368 808.555 190.698 808.736C191.029 808.907 191.429 808.992 191.898 808.992C192.368 808.992 192.757 808.901 193.066 808.72C193.386 808.539 193.642 808.299 193.834 808C194.026 807.701 194.165 807.36 194.25 806.976C194.336 806.592 194.378 806.197 194.378 805.792ZM197.495 798.576H198.855V810H197.495V798.576ZM206.706 805.072C206.684 804.752 206.61 804.448 206.482 804.16C206.364 803.872 206.199 803.627 205.986 803.424C205.783 803.211 205.538 803.045 205.25 802.928C204.972 802.8 204.663 802.736 204.322 802.736C203.97 802.736 203.65 802.8 203.362 802.928C203.084 803.045 202.844 803.211 202.642 803.424C202.439 803.637 202.279 803.888 202.162 804.176C202.044 804.453 201.975 804.752 201.954 805.072H206.706ZM208.017 807.376C207.836 808.304 207.436 809.003 206.818 809.472C206.199 809.941 205.42 810.176 204.482 810.176C203.82 810.176 203.244 810.069 202.754 809.856C202.274 809.643 201.868 809.344 201.538 808.96C201.207 808.576 200.956 808.117 200.786 807.584C200.626 807.051 200.535 806.469 200.514 805.84C200.514 805.211 200.61 804.635 200.802 804.112C200.994 803.589 201.26 803.136 201.602 802.752C201.954 802.368 202.364 802.069 202.834 801.856C203.314 801.643 203.836 801.536 204.402 801.536C205.138 801.536 205.746 801.691 206.226 802C206.716 802.299 207.106 802.683 207.394 803.152C207.692 803.621 207.895 804.133 208.002 804.688C208.119 805.243 208.167 805.771 208.146 806.272H201.954C201.943 806.635 201.986 806.981 202.082 807.312C202.178 807.632 202.332 807.92 202.546 808.176C202.759 808.421 203.031 808.619 203.362 808.768C203.692 808.917 204.082 808.992 204.53 808.992C205.106 808.992 205.575 808.859 205.938 808.592C206.311 808.325 206.556 807.92 206.674 807.376H208.017ZM210.547 805.936C210.547 806.32 210.595 806.699 210.691 807.072C210.798 807.435 210.953 807.76 211.155 808.048C211.369 808.336 211.635 808.565 211.955 808.736C212.286 808.907 212.67 808.992 213.107 808.992C213.566 808.992 213.955 808.901 214.275 808.72C214.595 808.539 214.857 808.304 215.059 808.016C215.262 807.717 215.406 807.381 215.491 807.008C215.587 806.635 215.635 806.256 215.635 805.872C215.635 805.467 215.587 805.077 215.491 804.704C215.395 804.32 215.241 803.984 215.027 803.696C214.825 803.408 214.558 803.179 214.227 803.008C213.897 802.827 213.497 802.736 213.027 802.736C212.569 802.736 212.179 802.827 211.859 803.008C211.539 803.189 211.283 803.429 211.091 803.728C210.899 804.027 210.761 804.368 210.675 804.752C210.59 805.136 210.547 805.531 210.547 805.936ZM216.947 810H215.587V808.88H215.555C215.331 809.339 214.979 809.669 214.499 809.872C214.019 810.075 213.491 810.176 212.915 810.176C212.275 810.176 211.715 810.059 211.235 809.824C210.766 809.589 210.371 809.275 210.051 808.88C209.742 808.485 209.507 808.027 209.347 807.504C209.187 806.981 209.107 806.427 209.107 805.84C209.107 805.253 209.182 804.699 209.331 804.176C209.491 803.653 209.726 803.2 210.035 802.816C210.355 802.421 210.75 802.112 211.219 801.888C211.699 801.653 212.254 801.536 212.883 801.536C213.097 801.536 213.326 801.557 213.571 801.6C213.817 801.643 214.062 801.717 214.307 801.824C214.553 801.92 214.782 802.053 214.995 802.224C215.219 802.384 215.406 802.587 215.555 802.832H215.587V798.576H216.947V810Z" fill="black" fill-opacity="0.68"/>
<mask id="path-39-inside-8_75116_10826" fill="white">
<path d="M331.5 780.5H444.5V828.5H331.5V780.5Z"/>
</mask>
<path d="M331.5 780.5V779.5H330.5V780.5H331.5ZM444.5 780.5H445.5V779.5H444.5V780.5ZM444.5 828.5V829.5H445.5V828.5H444.5ZM331.5 828.5H330.5V829.5H331.5V828.5ZM331.5 780.5V781.5H444.5V780.5V779.5H331.5V780.5ZM444.5 780.5H443.5V828.5H444.5H445.5V780.5H444.5ZM444.5 828.5V827.5H331.5V828.5V829.5H444.5V828.5ZM331.5 828.5H332.5V780.5H331.5H330.5V828.5H331.5Z" fill="black" fill-opacity="0.2" mask="url(#path-39-inside-8_75116_10826)"/>
<path d="M360.821 799.076H363.333V808.388H368.901V810.5H360.821V799.076ZM370.17 804.772C370.202 804.239 370.335 803.796 370.57 803.444C370.804 803.092 371.103 802.809 371.466 802.596C371.828 802.383 372.234 802.233 372.682 802.148C373.14 802.052 373.599 802.004 374.058 802.004C374.474 802.004 374.895 802.036 375.322 802.1C375.748 802.153 376.138 802.265 376.49 802.436C376.842 802.607 377.13 802.847 377.354 803.156C377.578 803.455 377.69 803.855 377.69 804.356V808.66C377.69 809.033 377.711 809.391 377.754 809.732C377.796 810.073 377.871 810.329 377.978 810.5H375.674C375.631 810.372 375.594 810.244 375.562 810.116C375.54 809.977 375.524 809.839 375.514 809.7C375.151 810.073 374.724 810.335 374.234 810.484C373.743 810.633 373.242 810.708 372.73 810.708C372.335 810.708 371.967 810.66 371.626 810.564C371.284 810.468 370.986 810.319 370.73 810.116C370.474 809.913 370.271 809.657 370.122 809.348C369.983 809.039 369.914 808.671 369.914 808.244C369.914 807.775 369.994 807.391 370.154 807.092C370.324 806.783 370.538 806.537 370.794 806.356C371.06 806.175 371.359 806.041 371.69 805.956C372.031 805.86 372.372 805.785 372.714 805.732C373.055 805.679 373.391 805.636 373.722 805.604C374.052 805.572 374.346 805.524 374.602 805.46C374.858 805.396 375.06 805.305 375.21 805.188C375.359 805.06 375.428 804.879 375.418 804.644C375.418 804.399 375.375 804.207 375.29 804.068C375.215 803.919 375.108 803.807 374.97 803.732C374.842 803.647 374.687 803.593 374.506 803.572C374.335 803.54 374.148 803.524 373.946 803.524C373.498 803.524 373.146 803.62 372.89 803.812C372.634 804.004 372.484 804.324 372.442 804.772H370.17ZM375.418 806.452C375.322 806.537 375.199 806.607 375.05 806.66C374.911 806.703 374.756 806.74 374.586 806.772C374.426 806.804 374.255 806.831 374.074 806.852C373.892 806.873 373.711 806.9 373.53 806.932C373.359 806.964 373.188 807.007 373.018 807.06C372.858 807.113 372.714 807.188 372.586 807.284C372.468 807.369 372.372 807.481 372.298 807.62C372.223 807.759 372.186 807.935 372.186 808.148C372.186 808.351 372.223 808.521 372.298 808.66C372.372 808.799 372.474 808.911 372.602 808.996C372.73 809.071 372.879 809.124 373.05 809.156C373.22 809.188 373.396 809.204 373.578 809.204C374.026 809.204 374.372 809.129 374.618 808.98C374.863 808.831 375.044 808.655 375.162 808.452C375.279 808.239 375.348 808.025 375.37 807.812C375.402 807.599 375.418 807.428 375.418 807.3V806.452ZM385.717 806.372C385.717 806.02 385.68 805.684 385.605 805.364C385.53 805.044 385.413 804.761 385.253 804.516C385.093 804.271 384.89 804.079 384.645 803.94C384.41 803.791 384.122 803.716 383.781 803.716C383.45 803.716 383.162 803.791 382.917 803.94C382.672 804.079 382.469 804.271 382.309 804.516C382.149 804.761 382.032 805.044 381.957 805.364C381.882 805.684 381.845 806.02 381.845 806.372C381.845 806.713 381.882 807.044 381.957 807.364C382.032 807.684 382.149 807.967 382.309 808.212C382.469 808.457 382.672 808.655 382.917 808.804C383.162 808.943 383.45 809.012 383.781 809.012C384.122 809.012 384.41 808.943 384.645 808.804C384.89 808.655 385.093 808.457 385.253 808.212C385.413 807.967 385.53 807.684 385.605 807.364C385.68 807.044 385.717 806.713 385.717 806.372ZM379.653 799.076H381.925V803.236H381.957C382.234 802.809 382.608 802.5 383.077 802.308C383.557 802.105 384.053 802.004 384.565 802.004C384.981 802.004 385.392 802.089 385.797 802.26C386.202 802.431 386.565 802.692 386.885 803.044C387.216 803.396 387.482 803.849 387.685 804.404C387.888 804.948 387.989 805.599 387.989 806.356C387.989 807.113 387.888 807.769 387.685 808.324C387.482 808.868 387.216 809.316 386.885 809.668C386.565 810.02 386.202 810.281 385.797 810.452C385.392 810.623 384.981 810.708 384.565 810.708C383.957 810.708 383.413 810.612 382.933 810.42C382.453 810.228 382.09 809.903 381.845 809.444H381.813V810.5H379.653V799.076ZM395.202 805.476C395.096 804.9 394.904 804.463 394.626 804.164C394.36 803.865 393.949 803.716 393.394 803.716C393.032 803.716 392.728 803.78 392.482 803.908C392.248 804.025 392.056 804.175 391.906 804.356C391.768 804.537 391.666 804.729 391.602 804.932C391.549 805.135 391.517 805.316 391.506 805.476H395.202ZM391.506 806.916C391.538 807.652 391.725 808.185 392.066 808.516C392.408 808.847 392.898 809.012 393.538 809.012C393.997 809.012 394.392 808.9 394.722 808.676C395.053 808.441 395.256 808.196 395.33 807.94H397.33C397.01 808.932 396.52 809.641 395.858 810.068C395.197 810.495 394.397 810.708 393.458 810.708C392.808 810.708 392.221 810.607 391.698 810.404C391.176 810.191 390.733 809.892 390.37 809.508C390.008 809.124 389.725 808.665 389.522 808.132C389.33 807.599 389.234 807.012 389.234 806.372C389.234 805.753 389.336 805.177 389.538 804.644C389.741 804.111 390.029 803.652 390.402 803.268C390.776 802.873 391.218 802.564 391.73 802.34C392.253 802.116 392.829 802.004 393.458 802.004C394.162 802.004 394.776 802.143 395.298 802.42C395.821 802.687 396.248 803.049 396.578 803.508C396.92 803.967 397.165 804.489 397.314 805.076C397.464 805.663 397.517 806.276 397.474 806.916H391.506ZM399.086 799.076H401.358V810.5H399.086V799.076Z" fill="black" fill-opacity="0.2"/>
<g clip-path="url(#clip4_75116_10826)">
<path d="M412.562 802.814L418.5 808.875L424.437 802.814L422.741 801.082L418.5 805.412L414.259 801.082L412.562 802.814Z" fill="black" fill-opacity="0.2"/>
</g>
<path d="M163.356 899.92C163.271 899.099 162.972 898.507 162.46 898.144C161.959 897.771 161.313 897.584 160.524 897.584C160.204 897.584 159.889 897.616 159.58 897.68C159.271 897.744 158.993 897.851 158.748 898C158.513 898.149 158.321 898.352 158.172 898.608C158.033 898.853 157.964 899.163 157.964 899.536C157.964 899.888 158.065 900.176 158.268 900.4C158.481 900.613 158.759 900.789 159.1 900.928C159.452 901.067 159.847 901.184 160.284 901.28C160.721 901.365 161.164 901.461 161.612 901.568C162.071 901.675 162.519 901.803 162.956 901.952C163.393 902.091 163.783 902.283 164.124 902.528C164.476 902.773 164.753 903.083 164.956 903.456C165.169 903.829 165.276 904.299 165.276 904.864C165.276 905.472 165.137 905.995 164.86 906.432C164.593 906.859 164.247 907.211 163.82 907.488C163.393 907.755 162.913 907.947 162.38 908.064C161.857 908.192 161.335 908.256 160.812 908.256C160.172 908.256 159.564 908.176 158.988 908.016C158.423 907.856 157.921 907.616 157.484 907.296C157.057 906.965 156.716 906.549 156.46 906.048C156.215 905.536 156.092 904.933 156.092 904.24H157.532C157.532 904.72 157.623 905.136 157.804 905.488C157.996 905.829 158.241 906.112 158.54 906.336C158.849 906.56 159.207 906.725 159.612 906.832C160.017 906.939 160.433 906.992 160.86 906.992C161.201 906.992 161.543 906.96 161.884 906.896C162.236 906.832 162.551 906.725 162.828 906.576C163.105 906.416 163.329 906.203 163.5 905.936C163.671 905.669 163.756 905.328 163.756 904.912C163.756 904.517 163.649 904.197 163.436 903.952C163.233 903.707 162.956 903.509 162.604 903.36C162.263 903.2 161.873 903.072 161.436 902.976C160.999 902.88 160.551 902.784 160.092 902.688C159.644 902.581 159.201 902.464 158.764 902.336C158.327 902.197 157.932 902.021 157.58 901.808C157.239 901.584 156.961 901.301 156.748 900.96C156.545 900.608 156.444 900.171 156.444 899.648C156.444 899.072 156.561 898.576 156.796 898.16C157.031 897.733 157.34 897.387 157.724 897.12C158.119 896.843 158.561 896.64 159.052 896.512C159.553 896.373 160.065 896.304 160.588 896.304C161.175 896.304 161.719 896.373 162.22 896.512C162.721 896.651 163.159 896.869 163.532 897.168C163.916 897.467 164.215 897.845 164.428 898.304C164.652 898.752 164.775 899.291 164.796 899.92H163.356ZM166.979 896.576H168.339V903.344L172.115 899.728H173.939L170.659 902.736L174.179 908H172.451L169.619 903.68L168.339 904.864V908H166.979V896.576ZM180.94 903.072C180.919 902.752 180.844 902.448 180.716 902.16C180.599 901.872 180.433 901.627 180.22 901.424C180.017 901.211 179.772 901.045 179.484 900.928C179.207 900.8 178.897 900.736 178.556 900.736C178.204 900.736 177.884 900.8 177.596 900.928C177.319 901.045 177.079 901.211 176.876 901.424C176.673 901.637 176.513 901.888 176.396 902.176C176.279 902.453 176.209 902.752 176.188 903.072H180.94ZM182.252 905.376C182.071 906.304 181.671 907.003 181.052 907.472C180.433 907.941 179.655 908.176 178.716 908.176C178.055 908.176 177.479 908.069 176.988 907.856C176.508 907.643 176.103 907.344 175.772 906.96C175.441 906.576 175.191 906.117 175.02 905.584C174.86 905.051 174.769 904.469 174.748 903.84C174.748 903.211 174.844 902.635 175.036 902.112C175.228 901.589 175.495 901.136 175.836 900.752C176.188 900.368 176.599 900.069 177.068 899.856C177.548 899.643 178.071 899.536 178.636 899.536C179.372 899.536 179.98 899.691 180.46 900C180.951 900.299 181.34 900.683 181.628 901.152C181.927 901.621 182.129 902.133 182.236 902.688C182.353 903.243 182.401 903.771 182.38 904.272H176.188C176.177 904.635 176.22 904.981 176.316 905.312C176.412 905.632 176.567 905.92 176.78 906.176C176.993 906.421 177.265 906.619 177.596 906.768C177.927 906.917 178.316 906.992 178.764 906.992C179.34 906.992 179.809 906.859 180.172 906.592C180.545 906.325 180.791 905.92 180.908 905.376H182.252ZM183.87 896.576H185.23V908H183.87V896.576ZM193.081 903.072C193.059 902.752 192.985 902.448 192.857 902.16C192.739 901.872 192.574 901.627 192.361 901.424C192.158 901.211 191.913 901.045 191.625 900.928C191.347 900.8 191.038 900.736 190.697 900.736C190.345 900.736 190.025 900.8 189.737 900.928C189.459 901.045 189.219 901.211 189.017 901.424C188.814 901.637 188.654 901.888 188.537 902.176C188.419 902.453 188.35 902.752 188.329 903.072H193.081ZM194.392 905.376C194.211 906.304 193.811 907.003 193.193 907.472C192.574 907.941 191.795 908.176 190.857 908.176C190.195 908.176 189.619 908.069 189.129 907.856C188.649 907.643 188.243 907.344 187.913 906.96C187.582 906.576 187.331 906.117 187.161 905.584C187.001 905.051 186.91 904.469 186.889 903.84C186.889 903.211 186.985 902.635 187.177 902.112C187.369 901.589 187.635 901.136 187.977 900.752C188.329 900.368 188.739 900.069 189.209 899.856C189.689 899.643 190.211 899.536 190.777 899.536C191.513 899.536 192.121 899.691 192.601 900C193.091 900.299 193.481 900.683 193.769 901.152C194.067 901.621 194.27 902.133 194.377 902.688C194.494 903.243 194.542 903.771 194.521 904.272H188.329C188.318 904.635 188.361 904.981 188.457 905.312C188.553 905.632 188.707 905.92 188.921 906.176C189.134 906.421 189.406 906.619 189.737 906.768C190.067 906.917 190.457 906.992 190.905 906.992C191.481 906.992 191.95 906.859 192.313 906.592C192.686 906.325 192.931 905.92 193.049 905.376H194.392ZM197.818 899.728H199.466V900.928H197.818V906.064C197.818 906.224 197.829 906.352 197.85 906.448C197.882 906.544 197.936 906.619 198.01 906.672C198.085 906.725 198.186 906.763 198.314 906.784C198.453 906.795 198.629 906.8 198.842 906.8H199.466V908H198.426C198.074 908 197.77 907.979 197.514 907.936C197.269 907.883 197.066 907.792 196.906 907.664C196.757 907.536 196.645 907.355 196.57 907.12C196.496 906.885 196.458 906.576 196.458 906.192V900.928H195.05V899.728H196.458V897.248H197.818V899.728ZM201.969 903.872C201.969 904.373 202.033 904.821 202.161 905.216C202.3 905.6 202.486 905.925 202.721 906.192C202.956 906.448 203.228 906.645 203.537 906.784C203.857 906.923 204.193 906.992 204.545 906.992C204.897 906.992 205.228 906.923 205.537 906.784C205.857 906.645 206.134 906.448 206.369 906.192C206.604 905.925 206.785 905.6 206.913 905.216C207.052 904.821 207.121 904.373 207.121 903.872C207.121 903.371 207.052 902.928 206.913 902.544C206.785 902.149 206.604 901.819 206.369 901.552C206.134 901.285 205.857 901.083 205.537 900.944C205.228 900.805 204.897 900.736 204.545 900.736C204.193 900.736 203.857 900.805 203.537 900.944C203.228 901.083 202.956 901.285 202.721 901.552C202.486 901.819 202.3 902.149 202.161 902.544C202.033 902.928 201.969 903.371 201.969 903.872ZM200.529 903.872C200.529 903.264 200.614 902.699 200.785 902.176C200.956 901.643 201.212 901.184 201.553 900.8C201.894 900.405 202.316 900.096 202.817 899.872C203.318 899.648 203.894 899.536 204.545 899.536C205.206 899.536 205.782 899.648 206.273 899.872C206.774 900.096 207.196 900.405 207.537 900.8C207.878 901.184 208.134 901.643 208.305 902.176C208.476 902.699 208.561 903.264 208.561 903.872C208.561 904.48 208.476 905.045 208.305 905.568C208.134 906.091 207.878 906.549 207.537 906.944C207.196 907.328 206.774 907.632 206.273 907.856C205.782 908.069 205.206 908.176 204.545 908.176C203.894 908.176 203.318 908.069 202.817 907.856C202.316 907.632 201.894 907.328 201.553 906.944C201.212 906.549 200.956 906.091 200.785 905.568C200.614 905.045 200.529 904.48 200.529 903.872ZM210.165 899.728H211.445V901.04H211.477C212.042 900.037 212.938 899.536 214.165 899.536C214.709 899.536 215.162 899.611 215.525 899.76C215.887 899.909 216.181 900.117 216.405 900.384C216.629 900.651 216.783 900.971 216.869 901.344C216.965 901.707 217.013 902.112 217.013 902.56V908H215.653V902.4C215.653 901.888 215.503 901.483 215.205 901.184C214.906 900.885 214.495 900.736 213.973 900.736C213.557 900.736 213.194 900.8 212.885 900.928C212.586 901.056 212.335 901.237 212.133 901.472C211.93 901.707 211.775 901.984 211.669 902.304C211.573 902.613 211.525 902.955 211.525 903.328V908H210.165V899.728Z" fill="black" fill-opacity="0.68"/>
<g clip-path="url(#clip5_75116_10826)">
<rect width="113" height="48" transform="translate(331.5 878.5)" fill="black" fill-opacity="0.04"/>
</g>
<defs>
<clipPath id="clip0_75116_10826">
<rect width="20" height="20" fill="white" transform="translate(408.5 304.5)"/>
</clipPath>
<clipPath id="clip1_75116_10826">
<rect width="20" height="20" fill="white" transform="translate(408.5 402.5)"/>
</clipPath>
<clipPath id="clip2_75116_10826">
<rect width="20" height="20" fill="white" transform="translate(408.5 500.5)"/>
</clipPath>
<clipPath id="clip3_75116_10826">
<rect width="20" height="20" fill="white" transform="translate(408.5 598.5)"/>
</clipPath>
<clipPath id="clip4_75116_10826">
<rect width="20" height="20" fill="white" transform="translate(408.5 794.5)"/>
</clipPath>
<clipPath id="clip5_75116_10826">
<rect width="113" height="48" fill="white" transform="translate(331.5 878.5)"/>
</clipPath>
</defs>
</svg>
