<svg width="600" height="389" viewBox="0 0 600 389" fill="none" xmlns="http://www.w3.org/2000/svg">
<rect width="600" height="389" fill="black" fill-opacity="0.04"/>
<path d="M90 201.62H106V185.62H90V201.62ZM111.557 189.076H119.589V191.188H114.069V193.828H118.853V195.78H114.069V200.5H111.557V189.076ZM122.818 196.372C122.818 196.703 122.85 197.028 122.914 197.348C122.978 197.657 123.084 197.94 123.234 198.196C123.394 198.441 123.602 198.639 123.858 198.788C124.114 198.937 124.434 199.012 124.818 199.012C125.202 199.012 125.522 198.937 125.778 198.788C126.044 198.639 126.252 198.441 126.402 198.196C126.562 197.94 126.674 197.657 126.738 197.348C126.802 197.028 126.834 196.703 126.834 196.372C126.834 196.041 126.802 195.716 126.738 195.396C126.674 195.076 126.562 194.793 126.402 194.548C126.252 194.303 126.044 194.105 125.778 193.956C125.522 193.796 125.202 193.716 124.818 193.716C124.434 193.716 124.114 193.796 123.858 193.956C123.602 194.105 123.394 194.303 123.234 194.548C123.084 194.793 122.978 195.076 122.914 195.396C122.85 195.716 122.818 196.041 122.818 196.372ZM120.546 196.372C120.546 195.711 120.647 195.113 120.85 194.58C121.052 194.036 121.34 193.577 121.714 193.204C122.087 192.82 122.535 192.527 123.058 192.324C123.58 192.111 124.167 192.004 124.818 192.004C125.468 192.004 126.055 192.111 126.578 192.324C127.111 192.527 127.564 192.82 127.938 193.204C128.311 193.577 128.599 194.036 128.802 194.58C129.004 195.113 129.106 195.711 129.106 196.372C129.106 197.033 129.004 197.631 128.802 198.164C128.599 198.697 128.311 199.156 127.938 199.54C127.564 199.913 127.111 200.201 126.578 200.404C126.055 200.607 125.468 200.708 124.818 200.708C124.167 200.708 123.58 200.607 123.058 200.404C122.535 200.201 122.087 199.913 121.714 199.54C121.34 199.156 121.052 198.697 120.85 198.164C120.647 197.631 120.546 197.033 120.546 196.372ZM136.215 195.14C136.065 194.191 135.505 193.716 134.535 193.716C134.172 193.716 133.868 193.801 133.623 193.972C133.377 194.132 133.175 194.345 133.015 194.612C132.865 194.868 132.759 195.156 132.695 195.476C132.631 195.785 132.599 196.095 132.599 196.404C132.599 196.703 132.631 197.007 132.695 197.316C132.759 197.625 132.86 197.908 132.999 198.164C133.148 198.409 133.345 198.612 133.591 198.772C133.836 198.932 134.135 199.012 134.487 199.012C135.031 199.012 135.447 198.863 135.735 198.564C136.033 198.255 136.22 197.844 136.295 197.332H138.487C138.337 198.431 137.911 199.268 137.207 199.844C136.503 200.42 135.601 200.708 134.503 200.708C133.884 200.708 133.313 200.607 132.791 200.404C132.279 200.191 131.841 199.897 131.479 199.524C131.116 199.151 130.833 198.708 130.631 198.196C130.428 197.673 130.327 197.103 130.327 196.484C130.327 195.844 130.417 195.252 130.599 194.708C130.791 194.153 131.068 193.679 131.431 193.284C131.793 192.879 132.236 192.564 132.759 192.34C133.281 192.116 133.879 192.004 134.551 192.004C135.041 192.004 135.511 192.068 135.959 192.196C136.417 192.324 136.823 192.521 137.175 192.788C137.537 193.044 137.831 193.369 138.055 193.764C138.279 194.148 138.407 194.607 138.439 195.14H136.215ZM147.53 200.5H145.37V199.348H145.322C145.034 199.828 144.661 200.175 144.202 200.388C143.744 200.601 143.274 200.708 142.794 200.708C142.186 200.708 141.685 200.628 141.29 200.468C140.906 200.308 140.602 200.084 140.378 199.796C140.154 199.497 139.994 199.14 139.898 198.724C139.813 198.297 139.77 197.828 139.77 197.316V192.228H142.042V196.9C142.042 197.583 142.149 198.095 142.362 198.436C142.576 198.767 142.954 198.932 143.498 198.932C144.117 198.932 144.565 198.751 144.842 198.388C145.12 198.015 145.258 197.407 145.258 196.564V192.228H147.53V200.5ZM151.015 197.812C151.015 198.057 151.063 198.271 151.159 198.452C151.265 198.623 151.399 198.767 151.559 198.884C151.719 198.991 151.9 199.071 152.103 199.124C152.316 199.177 152.535 199.204 152.759 199.204C152.919 199.204 153.084 199.188 153.255 199.156C153.436 199.113 153.596 199.055 153.735 198.98C153.884 198.895 154.007 198.788 154.103 198.66C154.199 198.521 154.247 198.351 154.247 198.148C154.247 197.807 154.017 197.551 153.559 197.38C153.111 197.209 152.481 197.039 151.671 196.868C151.34 196.793 151.015 196.708 150.695 196.612C150.385 196.505 150.108 196.372 149.863 196.212C149.617 196.041 149.42 195.833 149.271 195.588C149.121 195.332 149.047 195.023 149.047 194.66C149.047 194.127 149.148 193.689 149.351 193.348C149.564 193.007 149.841 192.74 150.183 192.548C150.524 192.345 150.908 192.207 151.335 192.132C151.761 192.047 152.199 192.004 152.647 192.004C153.095 192.004 153.527 192.047 153.943 192.132C154.369 192.217 154.748 192.361 155.079 192.564C155.409 192.767 155.681 193.039 155.895 193.38C156.119 193.711 156.252 194.132 156.295 194.644H154.135C154.103 194.207 153.937 193.913 153.639 193.764C153.34 193.604 152.988 193.524 152.583 193.524C152.455 193.524 152.316 193.535 152.167 193.556C152.017 193.567 151.879 193.599 151.751 193.652C151.633 193.705 151.532 193.785 151.447 193.892C151.361 193.988 151.319 194.121 151.319 194.292C151.319 194.495 151.393 194.66 151.543 194.788C151.692 194.916 151.884 195.023 152.119 195.108C152.364 195.183 152.641 195.252 152.951 195.316C153.26 195.38 153.575 195.449 153.895 195.524C154.225 195.599 154.545 195.689 154.855 195.796C155.175 195.903 155.457 196.047 155.703 196.228C155.948 196.399 156.145 196.617 156.295 196.884C156.444 197.14 156.519 197.46 156.519 197.844C156.519 198.388 156.407 198.847 156.183 199.22C155.969 199.583 155.687 199.876 155.335 200.1C154.983 200.324 154.577 200.479 154.119 200.564C153.671 200.66 153.212 200.708 152.743 200.708C152.263 200.708 151.793 200.66 151.335 200.564C150.876 200.468 150.465 200.308 150.103 200.084C149.751 199.86 149.457 199.567 149.223 199.204C148.999 198.831 148.876 198.367 148.855 197.812H151.015Z" fill="black" fill-opacity="0.68"/>
<mask id="path-2-inside-1_68658_40374" fill="white">
<path d="M270 164.5H510V224.5H270V164.5Z"/>
</mask>
<path d="M270 164.5H510V224.5H270V164.5Z" fill="black" fill-opacity="0.12"/>
<path d="M510 224.5V222.5H270V224.5V226.5H510V224.5Z" fill="black" mask="url(#path-2-inside-1_68658_40374)"/>
<path d="M291.4 184.052L292.54 184.964C292.876 184.628 293.124 184.22 293.284 183.74C293.444 183.252 293.524 182.744 293.524 182.216C293.524 181.784 293.468 181.36 293.356 180.944C293.244 180.52 293.068 180.14 292.828 179.804C292.588 179.468 292.28 179.2 291.904 179C291.528 178.792 291.08 178.688 290.56 178.688C290.04 178.688 289.592 178.792 289.216 179C288.84 179.2 288.532 179.468 288.292 179.804C288.052 180.14 287.876 180.52 287.764 180.944C287.652 181.36 287.596 181.784 287.596 182.216C287.596 182.648 287.652 183.076 287.764 183.5C287.876 183.916 288.052 184.292 288.292 184.628C288.532 184.964 288.84 185.236 289.216 185.444C289.592 185.644 290.04 185.744 290.56 185.744C290.968 185.744 291.364 185.664 291.748 185.504L290.8 184.748L291.4 184.052ZM293.92 187.232L292.612 186.188C292.036 186.524 291.352 186.692 290.56 186.692C289.88 186.692 289.284 186.572 288.772 186.332C288.26 186.084 287.832 185.752 287.488 185.336C287.144 184.92 286.884 184.444 286.708 183.908C286.54 183.364 286.456 182.8 286.456 182.216C286.456 181.632 286.54 181.072 286.708 180.536C286.884 179.992 287.144 179.512 287.488 179.096C287.832 178.68 288.26 178.348 288.772 178.1C289.284 177.852 289.88 177.728 290.56 177.728C291.24 177.728 291.836 177.852 292.348 178.1C292.86 178.348 293.288 178.68 293.632 179.096C293.976 179.512 294.232 179.992 294.4 180.536C294.576 181.072 294.664 181.632 294.664 182.216C294.664 182.872 294.556 183.496 294.34 184.088C294.124 184.68 293.8 185.192 293.368 185.624L294.496 186.512L293.92 187.232ZM301.201 186.5H300.241V185.516H300.217C300.001 185.9 299.725 186.184 299.389 186.368C299.053 186.544 298.657 186.632 298.201 186.632C297.793 186.632 297.453 186.58 297.181 186.476C296.909 186.364 296.689 186.208 296.521 186.008C296.353 185.808 296.233 185.572 296.161 185.3C296.097 185.02 296.065 184.712 296.065 184.376V180.296H297.085V184.496C297.085 184.88 297.197 185.184 297.421 185.408C297.645 185.632 297.953 185.744 298.345 185.744C298.657 185.744 298.925 185.696 299.149 185.6C299.381 185.504 299.573 185.368 299.725 185.192C299.877 185.016 299.989 184.812 300.061 184.58C300.141 184.34 300.181 184.08 300.181 183.8V180.296H301.201V186.5ZM308.409 186.476C308.233 186.58 307.989 186.632 307.677 186.632C307.413 186.632 307.201 186.56 307.041 186.416C306.889 186.264 306.813 186.02 306.813 185.684C306.533 186.02 306.205 186.264 305.829 186.416C305.461 186.56 305.061 186.632 304.629 186.632C304.349 186.632 304.081 186.6 303.825 186.536C303.577 186.472 303.361 186.372 303.177 186.236C302.993 186.1 302.845 185.924 302.733 185.708C302.629 185.484 302.577 185.216 302.577 184.904C302.577 184.552 302.637 184.264 302.757 184.04C302.877 183.816 303.033 183.636 303.225 183.5C303.425 183.356 303.649 183.248 303.897 183.176C304.153 183.104 304.413 183.044 304.677 182.996C304.957 182.94 305.221 182.9 305.469 182.876C305.725 182.844 305.949 182.804 306.141 182.756C306.333 182.7 306.485 182.624 306.597 182.528C306.709 182.424 306.765 182.276 306.765 182.084C306.765 181.86 306.721 181.68 306.633 181.544C306.553 181.408 306.445 181.304 306.309 181.232C306.181 181.16 306.033 181.112 305.865 181.088C305.705 181.064 305.545 181.052 305.385 181.052C304.953 181.052 304.593 181.136 304.305 181.304C304.017 181.464 303.861 181.772 303.837 182.228H302.817C302.833 181.844 302.913 181.52 303.057 181.256C303.201 180.992 303.393 180.78 303.633 180.62C303.873 180.452 304.145 180.332 304.449 180.26C304.761 180.188 305.093 180.152 305.445 180.152C305.725 180.152 306.001 180.172 306.273 180.212C306.553 180.252 306.805 180.336 307.029 180.464C307.253 180.584 307.433 180.756 307.569 180.98C307.705 181.204 307.773 181.496 307.773 181.856V185.048C307.773 185.288 307.785 185.464 307.809 185.576C307.841 185.688 307.937 185.744 308.097 185.744C308.185 185.744 308.289 185.724 308.409 185.684V186.476ZM306.753 183.296C306.625 183.392 306.457 183.464 306.249 183.512C306.041 183.552 305.821 183.588 305.589 183.62C305.365 183.644 305.137 183.676 304.905 183.716C304.673 183.748 304.465 183.804 304.281 183.884C304.097 183.964 303.945 184.08 303.825 184.232C303.713 184.376 303.657 184.576 303.657 184.832C303.657 185 303.689 185.144 303.753 185.264C303.825 185.376 303.913 185.468 304.017 185.54C304.129 185.612 304.257 185.664 304.401 185.696C304.545 185.728 304.697 185.744 304.857 185.744C305.193 185.744 305.481 185.7 305.721 185.612C305.961 185.516 306.157 185.4 306.309 185.264C306.461 185.12 306.573 184.968 306.645 184.808C306.717 184.64 306.753 184.484 306.753 184.34V183.296ZM309.538 180.296H310.498V181.28H310.522C310.946 180.528 311.618 180.152 312.538 180.152C312.946 180.152 313.286 180.208 313.558 180.32C313.83 180.432 314.05 180.588 314.218 180.788C314.386 180.988 314.502 181.228 314.566 181.508C314.638 181.78 314.674 182.084 314.674 182.42V186.5H313.654V182.3C313.654 181.916 313.542 181.612 313.318 181.388C313.094 181.164 312.786 181.052 312.394 181.052C312.082 181.052 311.81 181.1 311.578 181.196C311.354 181.292 311.166 181.428 311.014 181.604C310.862 181.78 310.746 181.988 310.666 182.228C310.594 182.46 310.558 182.716 310.558 182.996V186.5H309.538V180.296ZM317.802 180.296H319.038V181.196H317.802V185.048C317.802 185.168 317.81 185.264 317.826 185.336C317.85 185.408 317.89 185.464 317.946 185.504C318.002 185.544 318.078 185.572 318.174 185.588C318.278 185.596 318.41 185.6 318.57 185.6H319.038V186.5H318.258C317.994 186.5 317.766 186.484 317.574 186.452C317.39 186.412 317.238 186.344 317.118 186.248C317.006 186.152 316.922 186.016 316.866 185.84C316.81 185.664 316.782 185.432 316.782 185.144V181.196H315.726V180.296H316.782V178.436H317.802V180.296ZM321.432 179.18H320.412V177.932H321.432V179.18ZM320.412 180.296H321.432V186.5H320.412V180.296ZM324.608 180.296H325.844V181.196H324.608V185.048C324.608 185.168 324.616 185.264 324.632 185.336C324.656 185.408 324.696 185.464 324.752 185.504C324.808 185.544 324.884 185.572 324.98 185.588C325.084 185.596 325.216 185.6 325.376 185.6H325.844V186.5H325.064C324.8 186.5 324.572 186.484 324.38 186.452C324.196 186.412 324.044 186.344 323.924 186.248C323.812 186.152 323.728 186.016 323.672 185.84C323.616 185.664 323.588 185.432 323.588 185.144V181.196H322.532V180.296H323.588V178.436H324.608V180.296ZM329.593 187.328C329.473 187.632 329.353 187.888 329.233 188.096C329.121 188.304 328.993 188.472 328.849 188.6C328.713 188.736 328.557 188.832 328.381 188.888C328.213 188.952 328.017 188.984 327.793 188.984C327.673 188.984 327.553 188.976 327.433 188.96C327.313 188.944 327.197 188.916 327.085 188.876V187.94C327.173 187.98 327.273 188.012 327.385 188.036C327.505 188.068 327.605 188.084 327.685 188.084C327.893 188.084 328.065 188.032 328.201 187.928C328.345 187.832 328.453 187.692 328.525 187.508L328.945 186.464L326.485 180.296H327.637L329.449 185.372H329.473L331.213 180.296H332.293L329.593 187.328ZM334.897 181.628H333.565V180.296H334.897V181.628ZM333.565 185.168H334.897V186.5H333.565V185.168Z" fill="black" fill-opacity="0.68"/>
<path d="M287.216 197.076H289.216V208.5H287.216V197.076ZM291.613 200.228H293.341V201.444L293.373 201.476C293.65 201.017 294.013 200.66 294.461 200.404C294.909 200.137 295.405 200.004 295.949 200.004C296.856 200.004 297.57 200.239 298.093 200.708C298.616 201.177 298.877 201.881 298.877 202.82V208.5H297.053V203.3C297.032 202.649 296.893 202.18 296.637 201.892C296.381 201.593 295.981 201.444 295.437 201.444C295.128 201.444 294.85 201.503 294.605 201.62C294.36 201.727 294.152 201.881 293.981 202.084C293.81 202.276 293.677 202.505 293.581 202.772C293.485 203.039 293.437 203.321 293.437 203.62V208.5H291.613V200.228ZM301.049 200.228H302.777V201.348H302.809C303.065 200.868 303.422 200.527 303.881 200.324C304.339 200.111 304.835 200.004 305.369 200.004C306.019 200.004 306.585 200.121 307.065 200.356C307.555 200.58 307.961 200.895 308.281 201.3C308.601 201.695 308.841 202.159 309.001 202.692C309.161 203.225 309.241 203.796 309.241 204.404C309.241 204.959 309.166 205.497 309.017 206.02C308.878 206.543 308.659 207.007 308.361 207.412C308.073 207.807 307.705 208.127 307.257 208.372C306.809 208.607 306.281 208.724 305.673 208.724C305.406 208.724 305.139 208.697 304.873 208.644C304.606 208.601 304.35 208.527 304.105 208.42C303.859 208.313 303.63 208.18 303.417 208.02C303.214 207.849 303.043 207.652 302.905 207.428H302.873V211.556H301.049V200.228ZM307.417 204.372C307.417 203.999 307.369 203.636 307.273 203.284C307.177 202.932 307.033 202.623 306.841 202.356C306.649 202.079 306.409 201.86 306.121 201.7C305.833 201.529 305.502 201.444 305.129 201.444C304.361 201.444 303.779 201.711 303.385 202.244C303.001 202.777 302.809 203.487 302.809 204.372C302.809 204.788 302.857 205.177 302.953 205.54C303.059 205.892 303.214 206.196 303.417 206.452C303.619 206.708 303.859 206.911 304.137 207.06C304.425 207.209 304.755 207.284 305.129 207.284C305.545 207.284 305.897 207.199 306.185 207.028C306.473 206.857 306.707 206.639 306.889 206.372C307.081 206.095 307.214 205.785 307.289 205.444C307.374 205.092 307.417 204.735 307.417 204.372ZM318.246 208.5H316.454V207.348H316.422C316.198 207.764 315.862 208.1 315.414 208.356C314.977 208.601 314.529 208.724 314.07 208.724C312.982 208.724 312.193 208.457 311.702 207.924C311.222 207.38 310.982 206.564 310.982 205.476V200.228H312.806V205.3C312.806 206.025 312.945 206.537 313.222 206.836C313.499 207.135 313.889 207.284 314.39 207.284C314.774 207.284 315.094 207.225 315.35 207.108C315.606 206.991 315.814 206.836 315.974 206.644C316.134 206.441 316.246 206.201 316.31 205.924C316.385 205.647 316.422 205.348 316.422 205.028V200.228H318.246V208.5ZM319.537 200.228H320.913V197.748H322.737V200.228H324.385V201.588H322.737V206.004C322.737 206.196 322.743 206.361 322.753 206.5C322.775 206.639 322.812 206.756 322.865 206.852C322.929 206.948 323.02 207.023 323.137 207.076C323.255 207.119 323.415 207.14 323.617 207.14C323.745 207.14 323.873 207.14 324.001 207.14C324.129 207.129 324.257 207.108 324.385 207.076V208.484C324.183 208.505 323.985 208.527 323.793 208.548C323.601 208.569 323.404 208.58 323.201 208.58C322.721 208.58 322.332 208.537 322.033 208.452C321.745 208.356 321.516 208.223 321.345 208.052C321.185 207.871 321.073 207.647 321.009 207.38C320.956 207.113 320.924 206.809 320.913 206.468V201.588H319.537V200.228Z" fill="black"/>
<path d="M438.5 195.625V193.375H423.5V195.625H438.5Z" fill="black"/>
<line y1="-0.5" x2="20" y2="-0.5" transform="matrix(0 -1 -1 0 455 204.5)" stroke="black" stroke-opacity="0.2"/>
<path d="M487.5 195.75V193.25H481.25V187H478.75V193.25H472.5V195.75H478.75V202H481.25V195.75H487.5Z" fill="black"/>
</svg>
