<svg width="600" height="380" viewBox="0 0 600 380" fill="none" xmlns="http://www.w3.org/2000/svg">
<rect width="600" height="380" fill="black" fill-opacity="0.04"/>
<path d="M91.248 74.076H99.136V75.356H92.768V78.988H98.704V80.268H92.768V84.22H99.184V85.5H91.248V74.076ZM100.805 77.228H102.085V78.444H102.117C102.736 77.5053 103.627 77.036 104.789 77.036C105.301 77.036 105.765 77.1427 106.181 77.356C106.597 77.5693 106.891 77.932 107.061 78.444C107.339 77.996 107.701 77.6493 108.149 77.404C108.608 77.1587 109.109 77.036 109.653 77.036C110.069 77.036 110.443 77.084 110.773 77.18C111.115 77.2653 111.403 77.404 111.637 77.596C111.883 77.788 112.069 78.0387 112.197 78.348C112.336 78.6467 112.405 79.0093 112.405 79.436V85.5H111.045V80.076C111.045 79.82 111.024 79.58 110.981 79.356C110.939 79.132 110.859 78.94 110.741 78.78C110.624 78.6093 110.459 78.476 110.245 78.38C110.043 78.284 109.776 78.236 109.445 78.236C108.773 78.236 108.245 78.428 107.861 78.812C107.477 79.196 107.285 79.708 107.285 80.348V85.5H105.925V80.076C105.925 79.8093 105.899 79.564 105.845 79.34C105.803 79.116 105.723 78.924 105.605 78.764C105.488 78.5933 105.328 78.4653 105.125 78.38C104.933 78.284 104.683 78.236 104.373 78.236C103.979 78.236 103.637 78.316 103.349 78.476C103.072 78.636 102.843 78.828 102.661 79.052C102.491 79.276 102.363 79.5107 102.277 79.756C102.203 79.9907 102.165 80.188 102.165 80.348V85.5H100.805V77.228ZM114.494 77.228H115.854V78.348H115.886C116.11 77.8893 116.462 77.5587 116.942 77.356C117.422 77.1427 117.95 77.036 118.526 77.036C119.166 77.036 119.721 77.1533 120.19 77.388C120.67 77.6227 121.065 77.9427 121.374 78.348C121.694 78.7427 121.934 79.2013 122.094 79.724C122.254 80.2467 122.334 80.8013 122.334 81.388C122.334 81.9747 122.254 82.5293 122.094 83.052C121.945 83.5747 121.71 84.0333 121.39 84.428C121.081 84.812 120.686 85.116 120.206 85.34C119.737 85.564 119.187 85.676 118.558 85.676C118.355 85.676 118.126 85.6547 117.87 85.612C117.625 85.5693 117.379 85.5 117.134 85.404C116.889 85.308 116.654 85.18 116.43 85.02C116.217 84.8493 116.035 84.6413 115.886 84.396H115.854V88.652H114.494V77.228ZM120.894 81.292C120.894 80.908 120.841 80.5347 120.734 80.172C120.638 79.7987 120.483 79.468 120.27 79.18C120.067 78.892 119.801 78.6627 119.47 78.492C119.15 78.3213 118.771 78.236 118.334 78.236C117.875 78.236 117.486 78.3267 117.166 78.508C116.846 78.6893 116.585 78.9293 116.382 79.228C116.179 79.516 116.03 79.8467 115.934 80.22C115.849 80.5933 115.806 80.972 115.806 81.356C115.806 81.7613 115.854 82.156 115.95 82.54C116.046 82.9133 116.195 83.244 116.398 83.532C116.611 83.82 116.883 84.0547 117.214 84.236C117.545 84.4067 117.945 84.492 118.414 84.492C118.883 84.492 119.273 84.4013 119.582 84.22C119.902 84.0387 120.158 83.7987 120.35 83.5C120.542 83.2013 120.681 82.86 120.766 82.476C120.851 82.092 120.894 81.6973 120.894 81.292ZM125.818 77.228H127.466V78.428H125.818V83.564C125.818 83.724 125.829 83.852 125.85 83.948C125.882 84.044 125.936 84.1187 126.01 84.172C126.085 84.2253 126.186 84.2627 126.314 84.284C126.453 84.2947 126.629 84.3 126.842 84.3H127.466V85.5H126.426C126.074 85.5 125.77 85.4787 125.514 85.436C125.269 85.3827 125.066 85.292 124.906 85.164C124.757 85.036 124.645 84.8547 124.57 84.62C124.496 84.3853 124.458 84.076 124.458 83.692V78.428H123.05V77.228H124.458V74.748H125.818V77.228ZM132.225 86.604C132.065 87.0093 131.905 87.3507 131.745 87.628C131.596 87.9053 131.425 88.1293 131.233 88.3C131.052 88.4813 130.844 88.6093 130.609 88.684C130.385 88.7693 130.124 88.812 129.825 88.812C129.665 88.812 129.505 88.8013 129.345 88.78C129.185 88.7587 129.03 88.7213 128.881 88.668V87.42C128.998 87.4733 129.132 87.516 129.281 87.548C129.441 87.5907 129.574 87.612 129.681 87.612C129.958 87.612 130.188 87.5427 130.369 87.404C130.561 87.276 130.705 87.0893 130.801 86.844L131.361 85.452L128.081 77.228H129.617L132.033 83.996H132.065L134.385 77.228H135.825L132.225 86.604Z" fill="black" fill-opacity="0.68"/>
<mask id="path-2-inside-1_68467_43659" fill="white">
<path d="M270 50H510V110H270V50Z"/>
</mask>
<path d="M270 50H510V110H270V50Z" fill="black" fill-opacity="0.04"/>
<path d="M510 110V109H270V110V111H510V110Z" fill="black" fill-opacity="0.2" mask="url(#path-2-inside-1_68467_43659)"/>
<path d="M293.2 82.736L294.72 83.952C295.168 83.504 295.499 82.96 295.712 82.32C295.925 81.6693 296.032 80.992 296.032 80.288C296.032 79.712 295.957 79.1467 295.808 78.592C295.659 78.0267 295.424 77.52 295.104 77.072C294.784 76.624 294.373 76.2667 293.872 76C293.371 75.7227 292.773 75.584 292.08 75.584C291.387 75.584 290.789 75.7227 290.288 76C289.787 76.2667 289.376 76.624 289.056 77.072C288.736 77.52 288.501 78.0267 288.352 78.592C288.203 79.1467 288.128 79.712 288.128 80.288C288.128 80.864 288.203 81.4347 288.352 82C288.501 82.5547 288.736 83.056 289.056 83.504C289.376 83.952 289.787 84.3147 290.288 84.592C290.789 84.8587 291.387 84.992 292.08 84.992C292.624 84.992 293.152 84.8853 293.664 84.672L292.4 83.664L293.2 82.736ZM296.56 86.976L294.816 85.584C294.048 86.032 293.136 86.256 292.08 86.256C291.173 86.256 290.379 86.096 289.696 85.776C289.013 85.4453 288.443 85.0027 287.984 84.448C287.525 83.8933 287.179 83.2587 286.944 82.544C286.72 81.8187 286.608 81.0667 286.608 80.288C286.608 79.5093 286.72 78.7627 286.944 78.048C287.179 77.3227 287.525 76.6827 287.984 76.128C288.443 75.5733 289.013 75.1307 289.696 74.8C290.379 74.4693 291.173 74.304 292.08 74.304C292.987 74.304 293.781 74.4693 294.464 74.8C295.147 75.1307 295.717 75.5733 296.176 76.128C296.635 76.6827 296.976 77.3227 297.2 78.048C297.435 78.7627 297.552 79.5093 297.552 80.288C297.552 81.1627 297.408 81.9947 297.12 82.784C296.832 83.5733 296.4 84.256 295.824 84.832L297.328 86.016L296.56 86.976ZM306.228 86H304.948V84.688H304.916C304.628 85.2 304.26 85.5787 303.812 85.824C303.364 86.0587 302.836 86.176 302.228 86.176C301.684 86.176 301.231 86.1067 300.868 85.968C300.506 85.8187 300.212 85.6107 299.988 85.344C299.764 85.0773 299.604 84.7627 299.508 84.4C299.423 84.0267 299.38 83.616 299.38 83.168V77.728H300.74V83.328C300.74 83.84 300.89 84.2453 301.188 84.544C301.487 84.8427 301.898 84.992 302.42 84.992C302.836 84.992 303.194 84.928 303.492 84.8C303.802 84.672 304.058 84.4907 304.26 84.256C304.463 84.0213 304.612 83.7493 304.708 83.44C304.815 83.12 304.868 82.7733 304.868 82.4V77.728H306.228V86ZM315.799 85.968C315.564 86.1067 315.239 86.176 314.823 86.176C314.471 86.176 314.188 86.08 313.975 85.888C313.772 85.6853 313.671 85.36 313.671 84.912C313.298 85.36 312.86 85.6853 312.359 85.888C311.868 86.08 311.335 86.176 310.759 86.176C310.386 86.176 310.028 86.1333 309.687 86.048C309.356 85.9627 309.068 85.8293 308.823 85.648C308.578 85.4667 308.38 85.232 308.231 84.944C308.092 84.6453 308.023 84.288 308.023 83.872C308.023 83.4027 308.103 83.0187 308.263 82.72C308.423 82.4213 308.631 82.1813 308.887 82C309.154 81.808 309.452 81.664 309.783 81.568C310.124 81.472 310.471 81.392 310.823 81.328C311.196 81.2533 311.548 81.2 311.879 81.168C312.22 81.1253 312.519 81.072 312.775 81.008C313.031 80.9333 313.234 80.832 313.383 80.704C313.532 80.5653 313.607 80.368 313.607 80.112C313.607 79.8133 313.548 79.5733 313.431 79.392C313.324 79.2107 313.18 79.072 312.999 78.976C312.828 78.88 312.631 78.816 312.407 78.784C312.194 78.752 311.98 78.736 311.767 78.736C311.191 78.736 310.711 78.848 310.327 79.072C309.943 79.2853 309.735 79.696 309.703 80.304H308.343C308.364 79.792 308.471 79.36 308.663 79.008C308.855 78.656 309.111 78.3733 309.431 78.16C309.751 77.936 310.114 77.776 310.519 77.68C310.935 77.584 311.378 77.536 311.847 77.536C312.22 77.536 312.588 77.5627 312.951 77.616C313.324 77.6693 313.66 77.7813 313.959 77.952C314.258 78.112 314.498 78.3413 314.679 78.64C314.86 78.9387 314.951 79.328 314.951 79.808V84.064C314.951 84.384 314.967 84.6187 314.999 84.768C315.042 84.9173 315.17 84.992 315.383 84.992C315.5 84.992 315.639 84.9653 315.799 84.912V85.968ZM313.591 81.728C313.42 81.856 313.196 81.952 312.919 82.016C312.642 82.0693 312.348 82.1173 312.039 82.16C311.74 82.192 311.436 82.2347 311.127 82.288C310.818 82.3307 310.54 82.4053 310.295 82.512C310.05 82.6187 309.847 82.7733 309.687 82.976C309.538 83.168 309.463 83.4347 309.463 83.776C309.463 84 309.506 84.192 309.591 84.352C309.687 84.5013 309.804 84.624 309.943 84.72C310.092 84.816 310.263 84.8853 310.455 84.928C310.647 84.9707 310.85 84.992 311.063 84.992C311.511 84.992 311.895 84.9333 312.215 84.816C312.535 84.688 312.796 84.5333 312.999 84.352C313.202 84.16 313.351 83.9573 313.447 83.744C313.543 83.52 313.591 83.312 313.591 83.12V81.728ZM317.265 77.728H318.545V79.04H318.577C319.142 78.0373 320.038 77.536 321.265 77.536C321.809 77.536 322.262 77.6107 322.625 77.76C322.987 77.9093 323.281 78.1173 323.505 78.384C323.729 78.6507 323.883 78.9707 323.969 79.344C324.065 79.7067 324.113 80.112 324.113 80.56V86H322.753V80.4C322.753 79.888 322.603 79.4827 322.305 79.184C322.006 78.8853 321.595 78.736 321.073 78.736C320.657 78.736 320.294 78.8 319.985 78.928C319.686 79.056 319.435 79.2373 319.233 79.472C319.03 79.7067 318.875 79.984 318.769 80.304C318.673 80.6133 318.625 80.9547 318.625 81.328V86H317.265V77.728ZM328.243 77.728H329.891V78.928H328.243V84.064C328.243 84.224 328.254 84.352 328.275 84.448C328.307 84.544 328.361 84.6187 328.435 84.672C328.51 84.7253 328.611 84.7627 328.739 84.784C328.878 84.7947 329.054 84.8 329.267 84.8H329.891V86H328.851C328.499 86 328.195 85.9787 327.939 85.936C327.694 85.8827 327.491 85.792 327.331 85.664C327.182 85.536 327.07 85.3547 326.995 85.12C326.921 84.8853 326.883 84.576 326.883 84.192V78.928H325.475V77.728H326.883V75.248H328.243V77.728ZM333.042 76.24H331.682V74.576H333.042V76.24ZM331.682 77.728H333.042V86H331.682V77.728ZM337.237 77.728H338.885V78.928H337.237V84.064C337.237 84.224 337.248 84.352 337.269 84.448C337.301 84.544 337.354 84.6187 337.429 84.672C337.504 84.7253 337.605 84.7627 337.733 84.784C337.872 84.7947 338.048 84.8 338.261 84.8H338.885V86H337.845C337.493 86 337.189 85.9787 336.933 85.936C336.688 85.8827 336.485 85.792 336.325 85.664C336.176 85.536 336.064 85.3547 335.989 85.12C335.914 84.8853 335.877 84.576 335.877 84.192V78.928H334.469V77.728H335.877V75.248H337.237V77.728ZM343.844 87.104C343.684 87.5093 343.524 87.8507 343.364 88.128C343.215 88.4053 343.044 88.6293 342.852 88.8C342.671 88.9813 342.463 89.1093 342.228 89.184C342.004 89.2693 341.743 89.312 341.444 89.312C341.284 89.312 341.124 89.3013 340.964 89.28C340.804 89.2587 340.649 89.2213 340.5 89.168V87.92C340.617 87.9733 340.751 88.016 340.9 88.048C341.06 88.0907 341.193 88.112 341.3 88.112C341.577 88.112 341.807 88.0427 341.988 87.904C342.18 87.776 342.324 87.5893 342.42 87.344L342.98 85.952L339.7 77.728H341.236L343.652 84.496H343.684L346.004 77.728H347.444L343.844 87.104ZM350.876 79.504H349.1V77.728H350.876V79.504ZM349.1 84.224H350.876V86H349.1V84.224Z" fill="black" fill-opacity="0.68"/>
<path d="M438.5 81.125V78.875H423.5V81.125H438.5Z" fill="black"/>
<line y1="-0.5" x2="20" y2="-0.5" transform="matrix(0 -1 -1 0 455 90)" stroke="black" stroke-opacity="0.2"/>
<path d="M487.5 81.25V78.75H481.25V72.5H478.75V78.75H472.5V81.25H478.75V87.5H481.25V81.25H487.5Z" fill="black"/>
<path d="M91.248 184.076H99.136V185.356H92.768V188.988H98.704V190.268H92.768V194.22H99.184V195.5H91.248V184.076ZM100.805 187.228H102.085V188.444H102.117C102.736 187.505 103.627 187.036 104.789 187.036C105.301 187.036 105.765 187.143 106.181 187.356C106.597 187.569 106.891 187.932 107.061 188.444C107.339 187.996 107.701 187.649 108.149 187.404C108.608 187.159 109.109 187.036 109.653 187.036C110.069 187.036 110.443 187.084 110.773 187.18C111.115 187.265 111.403 187.404 111.637 187.596C111.883 187.788 112.069 188.039 112.197 188.348C112.336 188.647 112.405 189.009 112.405 189.436V195.5H111.045V190.076C111.045 189.82 111.024 189.58 110.981 189.356C110.939 189.132 110.859 188.94 110.741 188.78C110.624 188.609 110.459 188.476 110.245 188.38C110.043 188.284 109.776 188.236 109.445 188.236C108.773 188.236 108.245 188.428 107.861 188.812C107.477 189.196 107.285 189.708 107.285 190.348V195.5H105.925V190.076C105.925 189.809 105.899 189.564 105.845 189.34C105.803 189.116 105.723 188.924 105.605 188.764C105.488 188.593 105.328 188.465 105.125 188.38C104.933 188.284 104.683 188.236 104.373 188.236C103.979 188.236 103.637 188.316 103.349 188.476C103.072 188.636 102.843 188.828 102.661 189.052C102.491 189.276 102.363 189.511 102.277 189.756C102.203 189.991 102.165 190.188 102.165 190.348V195.5H100.805V187.228ZM114.494 187.228H115.854V188.348H115.886C116.11 187.889 116.462 187.559 116.942 187.356C117.422 187.143 117.95 187.036 118.526 187.036C119.166 187.036 119.721 187.153 120.19 187.388C120.67 187.623 121.065 187.943 121.374 188.348C121.694 188.743 121.934 189.201 122.094 189.724C122.254 190.247 122.334 190.801 122.334 191.388C122.334 191.975 122.254 192.529 122.094 193.052C121.945 193.575 121.71 194.033 121.39 194.428C121.081 194.812 120.686 195.116 120.206 195.34C119.737 195.564 119.187 195.676 118.558 195.676C118.355 195.676 118.126 195.655 117.87 195.612C117.625 195.569 117.379 195.5 117.134 195.404C116.889 195.308 116.654 195.18 116.43 195.02C116.217 194.849 116.035 194.641 115.886 194.396H115.854V198.652H114.494V187.228ZM120.894 191.292C120.894 190.908 120.841 190.535 120.734 190.172C120.638 189.799 120.483 189.468 120.27 189.18C120.067 188.892 119.801 188.663 119.47 188.492C119.15 188.321 118.771 188.236 118.334 188.236C117.875 188.236 117.486 188.327 117.166 188.508C116.846 188.689 116.585 188.929 116.382 189.228C116.179 189.516 116.03 189.847 115.934 190.22C115.849 190.593 115.806 190.972 115.806 191.356C115.806 191.761 115.854 192.156 115.95 192.54C116.046 192.913 116.195 193.244 116.398 193.532C116.611 193.82 116.883 194.055 117.214 194.236C117.545 194.407 117.945 194.492 118.414 194.492C118.883 194.492 119.273 194.401 119.582 194.22C119.902 194.039 120.158 193.799 120.35 193.5C120.542 193.201 120.681 192.86 120.766 192.476C120.851 192.092 120.894 191.697 120.894 191.292ZM125.818 187.228H127.466V188.428H125.818V193.564C125.818 193.724 125.829 193.852 125.85 193.948C125.882 194.044 125.936 194.119 126.01 194.172C126.085 194.225 126.186 194.263 126.314 194.284C126.453 194.295 126.629 194.3 126.842 194.3H127.466V195.5H126.426C126.074 195.5 125.77 195.479 125.514 195.436C125.269 195.383 125.066 195.292 124.906 195.164C124.757 195.036 124.645 194.855 124.57 194.62C124.496 194.385 124.458 194.076 124.458 193.692V188.428H123.05V187.228H124.458V184.748H125.818V187.228ZM132.225 196.604C132.065 197.009 131.905 197.351 131.745 197.628C131.596 197.905 131.425 198.129 131.233 198.3C131.052 198.481 130.844 198.609 130.609 198.684C130.385 198.769 130.124 198.812 129.825 198.812C129.665 198.812 129.505 198.801 129.345 198.78C129.185 198.759 129.03 198.721 128.881 198.668V197.42C128.998 197.473 129.132 197.516 129.281 197.548C129.441 197.591 129.574 197.612 129.681 197.612C129.958 197.612 130.188 197.543 130.369 197.404C130.561 197.276 130.705 197.089 130.801 196.844L131.361 195.452L128.081 187.228H129.617L132.033 193.996H132.065L134.385 187.228H135.825L132.225 196.604ZM143.67 198.652C143.286 198.055 142.94 197.457 142.63 196.86C142.321 196.273 142.054 195.676 141.83 195.068C141.617 194.46 141.452 193.836 141.334 193.196C141.217 192.556 141.158 191.884 141.158 191.18C141.158 189.921 141.366 188.652 141.782 187.372C142.209 186.092 142.838 184.903 143.67 183.804H144.71C143.942 185.02 143.398 186.225 143.078 187.42C142.758 188.615 142.598 189.868 142.598 191.18C142.598 192.524 142.758 193.799 143.078 195.004C143.409 196.209 143.953 197.425 144.71 198.652H143.67ZM147.315 189.548H150.291C151.155 189.559 151.784 189.383 152.179 189.02C152.584 188.657 152.787 188.135 152.787 187.452C152.787 186.769 152.584 186.252 152.179 185.9C151.784 185.537 151.155 185.356 150.291 185.356H147.315V189.548ZM145.795 184.076H150.803C151.955 184.076 152.824 184.375 153.411 184.972C154.008 185.559 154.307 186.385 154.307 187.452C154.307 188.519 154.008 189.351 153.411 189.948C152.824 190.545 151.955 190.839 150.803 190.828H147.315V195.5H145.795V184.076ZM156.026 184.076H157.386V195.5H156.026V184.076ZM166.821 195.468C166.586 195.607 166.261 195.676 165.845 195.676C165.493 195.676 165.21 195.58 164.997 195.388C164.794 195.185 164.693 194.86 164.693 194.412C164.319 194.86 163.882 195.185 163.381 195.388C162.89 195.58 162.357 195.676 161.781 195.676C161.407 195.676 161.05 195.633 160.709 195.548C160.378 195.463 160.09 195.329 159.845 195.148C159.599 194.967 159.402 194.732 159.253 194.444C159.114 194.145 159.045 193.788 159.045 193.372C159.045 192.903 159.125 192.519 159.285 192.22C159.445 191.921 159.653 191.681 159.909 191.5C160.175 191.308 160.474 191.164 160.805 191.068C161.146 190.972 161.493 190.892 161.845 190.828C162.218 190.753 162.57 190.7 162.901 190.668C163.242 190.625 163.541 190.572 163.797 190.508C164.053 190.433 164.255 190.332 164.405 190.204C164.554 190.065 164.629 189.868 164.629 189.612C164.629 189.313 164.57 189.073 164.453 188.892C164.346 188.711 164.202 188.572 164.021 188.476C163.85 188.38 163.653 188.316 163.429 188.284C163.215 188.252 163.002 188.236 162.789 188.236C162.213 188.236 161.733 188.348 161.349 188.572C160.965 188.785 160.757 189.196 160.725 189.804H159.365C159.386 189.292 159.493 188.86 159.685 188.508C159.877 188.156 160.133 187.873 160.453 187.66C160.773 187.436 161.135 187.276 161.541 187.18C161.957 187.084 162.399 187.036 162.869 187.036C163.242 187.036 163.61 187.063 163.973 187.116C164.346 187.169 164.682 187.281 164.981 187.452C165.279 187.612 165.519 187.841 165.701 188.14C165.882 188.439 165.973 188.828 165.973 189.308V193.564C165.973 193.884 165.989 194.119 166.021 194.268C166.063 194.417 166.191 194.492 166.405 194.492C166.522 194.492 166.661 194.465 166.821 194.412V195.468ZM164.613 191.228C164.442 191.356 164.218 191.452 163.941 191.516C163.663 191.569 163.37 191.617 163.061 191.66C162.762 191.692 162.458 191.735 162.149 191.788C161.839 191.831 161.562 191.905 161.317 192.012C161.071 192.119 160.869 192.273 160.709 192.476C160.559 192.668 160.485 192.935 160.485 193.276C160.485 193.5 160.527 193.692 160.613 193.852C160.709 194.001 160.826 194.124 160.965 194.22C161.114 194.316 161.285 194.385 161.477 194.428C161.669 194.471 161.871 194.492 162.085 194.492C162.533 194.492 162.917 194.433 163.237 194.316C163.557 194.188 163.818 194.033 164.021 193.852C164.223 193.66 164.373 193.457 164.469 193.244C164.565 193.02 164.613 192.812 164.613 192.62V191.228ZM173.703 189.884C173.596 189.361 173.372 188.956 173.031 188.668C172.689 188.38 172.231 188.236 171.655 188.236C171.164 188.236 170.753 188.327 170.423 188.508C170.092 188.689 169.825 188.929 169.623 189.228C169.431 189.527 169.292 189.873 169.207 190.268C169.121 190.652 169.079 191.052 169.079 191.468C169.079 191.852 169.121 192.225 169.207 192.588C169.303 192.951 169.447 193.276 169.639 193.564C169.831 193.841 170.081 194.065 170.391 194.236C170.7 194.407 171.068 194.492 171.495 194.492C172.167 194.492 172.689 194.316 173.063 193.964C173.447 193.612 173.681 193.116 173.767 192.476H175.159C175.009 193.5 174.625 194.289 174.007 194.844C173.399 195.399 172.567 195.676 171.511 195.676C170.881 195.676 170.321 195.575 169.831 195.372C169.351 195.169 168.945 194.881 168.615 194.508C168.295 194.135 168.049 193.692 167.879 193.18C167.719 192.657 167.639 192.087 167.639 191.468C167.639 190.849 167.719 190.273 167.879 189.74C168.039 189.196 168.279 188.727 168.599 188.332C168.929 187.927 169.34 187.612 169.831 187.388C170.321 187.153 170.892 187.036 171.543 187.036C172.012 187.036 172.449 187.095 172.855 187.212C173.271 187.319 173.633 187.489 173.943 187.724C174.263 187.959 174.524 188.257 174.727 188.62C174.929 188.972 175.057 189.393 175.111 189.884H173.703ZM182.424 190.572C182.403 190.252 182.328 189.948 182.2 189.66C182.083 189.372 181.918 189.127 181.704 188.924C181.502 188.711 181.256 188.545 180.968 188.428C180.691 188.3 180.382 188.236 180.04 188.236C179.688 188.236 179.368 188.3 179.08 188.428C178.803 188.545 178.563 188.711 178.36 188.924C178.158 189.137 177.998 189.388 177.88 189.676C177.763 189.953 177.694 190.252 177.672 190.572H182.424ZM183.736 192.876C183.555 193.804 183.155 194.503 182.536 194.972C181.918 195.441 181.139 195.676 180.2 195.676C179.539 195.676 178.963 195.569 178.472 195.356C177.992 195.143 177.587 194.844 177.256 194.46C176.926 194.076 176.675 193.617 176.504 193.084C176.344 192.551 176.254 191.969 176.232 191.34C176.232 190.711 176.328 190.135 176.52 189.612C176.712 189.089 176.979 188.636 177.32 188.252C177.672 187.868 178.083 187.569 178.552 187.356C179.032 187.143 179.555 187.036 180.12 187.036C180.856 187.036 181.464 187.191 181.944 187.5C182.435 187.799 182.824 188.183 183.112 188.652C183.411 189.121 183.614 189.633 183.72 190.188C183.838 190.743 183.886 191.271 183.864 191.772H177.672C177.662 192.135 177.704 192.481 177.8 192.812C177.896 193.132 178.051 193.42 178.264 193.676C178.478 193.921 178.75 194.119 179.08 194.268C179.411 194.417 179.8 194.492 180.248 194.492C180.824 194.492 181.294 194.359 181.656 194.092C182.03 193.825 182.275 193.42 182.392 192.876H183.736ZM185.274 184.076H186.634V188.444H186.666C186.773 188.188 186.922 187.975 187.114 187.804C187.306 187.623 187.519 187.479 187.754 187.372C187.999 187.255 188.25 187.169 188.506 187.116C188.773 187.063 189.029 187.036 189.274 187.036C189.818 187.036 190.271 187.111 190.634 187.26C190.997 187.409 191.29 187.617 191.514 187.884C191.738 188.151 191.893 188.471 191.978 188.844C192.074 189.207 192.122 189.612 192.122 190.06V195.5H190.762V189.9C190.762 189.388 190.613 188.983 190.314 188.684C190.015 188.385 189.605 188.236 189.082 188.236C188.666 188.236 188.303 188.3 187.994 188.428C187.695 188.556 187.445 188.737 187.242 188.972C187.039 189.207 186.885 189.484 186.778 189.804C186.682 190.113 186.634 190.455 186.634 190.828V195.5H185.274V184.076ZM195.157 191.372C195.157 191.873 195.221 192.321 195.349 192.716C195.487 193.1 195.674 193.425 195.909 193.692C196.143 193.948 196.415 194.145 196.725 194.284C197.045 194.423 197.381 194.492 197.733 194.492C198.085 194.492 198.415 194.423 198.725 194.284C199.045 194.145 199.322 193.948 199.557 193.692C199.791 193.425 199.973 193.1 200.101 192.716C200.239 192.321 200.309 191.873 200.309 191.372C200.309 190.871 200.239 190.428 200.101 190.044C199.973 189.649 199.791 189.319 199.557 189.052C199.322 188.785 199.045 188.583 198.725 188.444C198.415 188.305 198.085 188.236 197.733 188.236C197.381 188.236 197.045 188.305 196.725 188.444C196.415 188.583 196.143 188.785 195.909 189.052C195.674 189.319 195.487 189.649 195.349 190.044C195.221 190.428 195.157 190.871 195.157 191.372ZM193.717 191.372C193.717 190.764 193.802 190.199 193.973 189.676C194.143 189.143 194.399 188.684 194.741 188.3C195.082 187.905 195.503 187.596 196.005 187.372C196.506 187.148 197.082 187.036 197.733 187.036C198.394 187.036 198.97 187.148 199.461 187.372C199.962 187.596 200.383 187.905 200.725 188.3C201.066 188.684 201.322 189.143 201.493 189.676C201.663 190.199 201.749 190.764 201.749 191.372C201.749 191.98 201.663 192.545 201.493 193.068C201.322 193.591 201.066 194.049 200.725 194.444C200.383 194.828 199.962 195.132 199.461 195.356C198.97 195.569 198.394 195.676 197.733 195.676C197.082 195.676 196.506 195.569 196.005 195.356C195.503 195.132 195.082 194.828 194.741 194.444C194.399 194.049 194.143 193.591 193.973 193.068C193.802 192.545 193.717 191.98 193.717 191.372ZM203.432 184.076H204.792V195.5H203.432V184.076ZM207.891 191.436C207.891 191.82 207.939 192.199 208.035 192.572C208.142 192.935 208.296 193.26 208.499 193.548C208.712 193.836 208.979 194.065 209.299 194.236C209.63 194.407 210.014 194.492 210.451 194.492C210.91 194.492 211.299 194.401 211.619 194.22C211.939 194.039 212.2 193.804 212.403 193.516C212.606 193.217 212.75 192.881 212.835 192.508C212.931 192.135 212.979 191.756 212.979 191.372C212.979 190.967 212.931 190.577 212.835 190.204C212.739 189.82 212.584 189.484 212.371 189.196C212.168 188.908 211.902 188.679 211.571 188.508C211.24 188.327 210.84 188.236 210.371 188.236C209.912 188.236 209.523 188.327 209.203 188.508C208.883 188.689 208.627 188.929 208.435 189.228C208.243 189.527 208.104 189.868 208.019 190.252C207.934 190.636 207.891 191.031 207.891 191.436ZM214.291 195.5H212.931V194.38H212.899C212.675 194.839 212.323 195.169 211.843 195.372C211.363 195.575 210.835 195.676 210.259 195.676C209.619 195.676 209.059 195.559 208.579 195.324C208.11 195.089 207.715 194.775 207.395 194.38C207.086 193.985 206.851 193.527 206.691 193.004C206.531 192.481 206.451 191.927 206.451 191.34C206.451 190.753 206.526 190.199 206.675 189.676C206.835 189.153 207.07 188.7 207.379 188.316C207.699 187.921 208.094 187.612 208.563 187.388C209.043 187.153 209.598 187.036 210.227 187.036C210.44 187.036 210.67 187.057 210.915 187.1C211.16 187.143 211.406 187.217 211.651 187.324C211.896 187.42 212.126 187.553 212.339 187.724C212.563 187.884 212.75 188.087 212.899 188.332H212.931V184.076H214.291V195.5ZM222.127 190.572C222.106 190.252 222.031 189.948 221.903 189.66C221.786 189.372 221.621 189.127 221.407 188.924C221.205 188.711 220.959 188.545 220.671 188.428C220.394 188.3 220.085 188.236 219.743 188.236C219.391 188.236 219.071 188.3 218.783 188.428C218.506 188.545 218.266 188.711 218.063 188.924C217.861 189.137 217.701 189.388 217.583 189.676C217.466 189.953 217.397 190.252 217.375 190.572H222.127ZM223.439 192.876C223.258 193.804 222.858 194.503 222.239 194.972C221.621 195.441 220.842 195.676 219.903 195.676C219.242 195.676 218.666 195.569 218.175 195.356C217.695 195.143 217.29 194.844 216.959 194.46C216.629 194.076 216.378 193.617 216.207 193.084C216.047 192.551 215.957 191.969 215.935 191.34C215.935 190.711 216.031 190.135 216.223 189.612C216.415 189.089 216.682 188.636 217.023 188.252C217.375 187.868 217.786 187.569 218.255 187.356C218.735 187.143 219.258 187.036 219.823 187.036C220.559 187.036 221.167 187.191 221.647 187.5C222.138 187.799 222.527 188.183 222.815 188.652C223.114 189.121 223.317 189.633 223.423 190.188C223.541 190.743 223.589 191.271 223.567 191.772H217.375C217.365 192.135 217.407 192.481 217.503 192.812C217.599 193.132 217.754 193.42 217.967 193.676C218.181 193.921 218.453 194.119 218.783 194.268C219.114 194.417 219.503 194.492 219.951 194.492C220.527 194.492 220.997 194.359 221.359 194.092C221.733 193.825 221.978 193.42 222.095 192.876H223.439ZM224.929 187.228H226.209V188.972H226.241C226.572 188.3 226.977 187.804 227.457 187.484C227.937 187.164 228.545 187.015 229.281 187.036V188.476C228.737 188.476 228.273 188.551 227.889 188.7C227.505 188.849 227.196 189.068 226.961 189.356C226.726 189.644 226.556 189.996 226.449 190.412C226.342 190.817 226.289 191.287 226.289 191.82V195.5H224.929V187.228ZM229.137 198.652C229.895 197.447 230.433 196.247 230.753 195.052C231.073 193.847 231.233 192.593 231.233 191.292C231.233 189.948 231.068 188.673 230.737 187.468C230.417 186.252 229.884 185.031 229.137 183.804H230.161C230.545 184.401 230.892 184.999 231.201 185.596C231.511 186.183 231.772 186.785 231.985 187.404C232.209 188.012 232.38 188.636 232.497 189.276C232.615 189.916 232.673 190.588 232.673 191.292C232.673 192.551 232.46 193.82 232.033 195.1C231.617 196.369 230.993 197.553 230.161 198.652H229.137Z" fill="black" fill-opacity="0.68"/>
<mask id="path-9-inside-2_68467_43659" fill="white">
<path d="M270 160H510V220H270V160Z"/>
</mask>
<path d="M270 160H510V220H270V160Z" fill="black" fill-opacity="0.04"/>
<path d="M510 220V219H270V220V221H510V220Z" fill="black" fill-opacity="0.2" mask="url(#path-9-inside-2_68467_43659)"/>
<path d="M291.4 179.552L292.54 180.464C292.876 180.128 293.124 179.72 293.284 179.24C293.444 178.752 293.524 178.244 293.524 177.716C293.524 177.284 293.468 176.86 293.356 176.444C293.244 176.02 293.068 175.64 292.828 175.304C292.588 174.968 292.28 174.7 291.904 174.5C291.528 174.292 291.08 174.188 290.56 174.188C290.04 174.188 289.592 174.292 289.216 174.5C288.84 174.7 288.532 174.968 288.292 175.304C288.052 175.64 287.876 176.02 287.764 176.444C287.652 176.86 287.596 177.284 287.596 177.716C287.596 178.148 287.652 178.576 287.764 179C287.876 179.416 288.052 179.792 288.292 180.128C288.532 180.464 288.84 180.736 289.216 180.944C289.592 181.144 290.04 181.244 290.56 181.244C290.968 181.244 291.364 181.164 291.748 181.004L290.8 180.248L291.4 179.552ZM293.92 182.732L292.612 181.688C292.036 182.024 291.352 182.192 290.56 182.192C289.88 182.192 289.284 182.072 288.772 181.832C288.26 181.584 287.832 181.252 287.488 180.836C287.144 180.42 286.884 179.944 286.708 179.408C286.54 178.864 286.456 178.3 286.456 177.716C286.456 177.132 286.54 176.572 286.708 176.036C286.884 175.492 287.144 175.012 287.488 174.596C287.832 174.18 288.26 173.848 288.772 173.6C289.284 173.352 289.88 173.228 290.56 173.228C291.24 173.228 291.836 173.352 292.348 173.6C292.86 173.848 293.288 174.18 293.632 174.596C293.976 175.012 294.232 175.492 294.4 176.036C294.576 176.572 294.664 177.132 294.664 177.716C294.664 178.372 294.556 178.996 294.34 179.588C294.124 180.18 293.8 180.692 293.368 181.124L294.496 182.012L293.92 182.732ZM301.201 182H300.241V181.016H300.217C300.001 181.4 299.725 181.684 299.389 181.868C299.053 182.044 298.657 182.132 298.201 182.132C297.793 182.132 297.453 182.08 297.181 181.976C296.909 181.864 296.689 181.708 296.521 181.508C296.353 181.308 296.233 181.072 296.161 180.8C296.097 180.52 296.065 180.212 296.065 179.876V175.796H297.085V179.996C297.085 180.38 297.197 180.684 297.421 180.908C297.645 181.132 297.953 181.244 298.345 181.244C298.657 181.244 298.925 181.196 299.149 181.1C299.381 181.004 299.573 180.868 299.725 180.692C299.877 180.516 299.989 180.312 300.061 180.08C300.141 179.84 300.181 179.58 300.181 179.3V175.796H301.201V182ZM308.409 181.976C308.233 182.08 307.989 182.132 307.677 182.132C307.413 182.132 307.201 182.06 307.041 181.916C306.889 181.764 306.813 181.52 306.813 181.184C306.533 181.52 306.205 181.764 305.829 181.916C305.461 182.06 305.061 182.132 304.629 182.132C304.349 182.132 304.081 182.1 303.825 182.036C303.577 181.972 303.361 181.872 303.177 181.736C302.993 181.6 302.845 181.424 302.733 181.208C302.629 180.984 302.577 180.716 302.577 180.404C302.577 180.052 302.637 179.764 302.757 179.54C302.877 179.316 303.033 179.136 303.225 179C303.425 178.856 303.649 178.748 303.897 178.676C304.153 178.604 304.413 178.544 304.677 178.496C304.957 178.44 305.221 178.4 305.469 178.376C305.725 178.344 305.949 178.304 306.141 178.256C306.333 178.2 306.485 178.124 306.597 178.028C306.709 177.924 306.765 177.776 306.765 177.584C306.765 177.36 306.721 177.18 306.633 177.044C306.553 176.908 306.445 176.804 306.309 176.732C306.181 176.66 306.033 176.612 305.865 176.588C305.705 176.564 305.545 176.552 305.385 176.552C304.953 176.552 304.593 176.636 304.305 176.804C304.017 176.964 303.861 177.272 303.837 177.728H302.817C302.833 177.344 302.913 177.02 303.057 176.756C303.201 176.492 303.393 176.28 303.633 176.12C303.873 175.952 304.145 175.832 304.449 175.76C304.761 175.688 305.093 175.652 305.445 175.652C305.725 175.652 306.001 175.672 306.273 175.712C306.553 175.752 306.805 175.836 307.029 175.964C307.253 176.084 307.433 176.256 307.569 176.48C307.705 176.704 307.773 176.996 307.773 177.356V180.548C307.773 180.788 307.785 180.964 307.809 181.076C307.841 181.188 307.937 181.244 308.097 181.244C308.185 181.244 308.289 181.224 308.409 181.184V181.976ZM306.753 178.796C306.625 178.892 306.457 178.964 306.249 179.012C306.041 179.052 305.821 179.088 305.589 179.12C305.365 179.144 305.137 179.176 304.905 179.216C304.673 179.248 304.465 179.304 304.281 179.384C304.097 179.464 303.945 179.58 303.825 179.732C303.713 179.876 303.657 180.076 303.657 180.332C303.657 180.5 303.689 180.644 303.753 180.764C303.825 180.876 303.913 180.968 304.017 181.04C304.129 181.112 304.257 181.164 304.401 181.196C304.545 181.228 304.697 181.244 304.857 181.244C305.193 181.244 305.481 181.2 305.721 181.112C305.961 181.016 306.157 180.9 306.309 180.764C306.461 180.62 306.573 180.468 306.645 180.308C306.717 180.14 306.753 179.984 306.753 179.84V178.796ZM309.538 175.796H310.498V176.78H310.522C310.946 176.028 311.618 175.652 312.538 175.652C312.946 175.652 313.286 175.708 313.558 175.82C313.83 175.932 314.05 176.088 314.218 176.288C314.386 176.488 314.502 176.728 314.566 177.008C314.638 177.28 314.674 177.584 314.674 177.92V182H313.654V177.8C313.654 177.416 313.542 177.112 313.318 176.888C313.094 176.664 312.786 176.552 312.394 176.552C312.082 176.552 311.81 176.6 311.578 176.696C311.354 176.792 311.166 176.928 311.014 177.104C310.862 177.28 310.746 177.488 310.666 177.728C310.594 177.96 310.558 178.216 310.558 178.496V182H309.538V175.796ZM317.802 175.796H319.038V176.696H317.802V180.548C317.802 180.668 317.81 180.764 317.826 180.836C317.85 180.908 317.89 180.964 317.946 181.004C318.002 181.044 318.078 181.072 318.174 181.088C318.278 181.096 318.41 181.1 318.57 181.1H319.038V182H318.258C317.994 182 317.766 181.984 317.574 181.952C317.39 181.912 317.238 181.844 317.118 181.748C317.006 181.652 316.922 181.516 316.866 181.34C316.81 181.164 316.782 180.932 316.782 180.644V176.696H315.726V175.796H316.782V173.936H317.802V175.796ZM321.432 174.68H320.412V173.432H321.432V174.68ZM320.412 175.796H321.432V182H320.412V175.796ZM324.608 175.796H325.844V176.696H324.608V180.548C324.608 180.668 324.616 180.764 324.632 180.836C324.656 180.908 324.696 180.964 324.752 181.004C324.808 181.044 324.884 181.072 324.98 181.088C325.084 181.096 325.216 181.1 325.376 181.1H325.844V182H325.064C324.8 182 324.572 181.984 324.38 181.952C324.196 181.912 324.044 181.844 323.924 181.748C323.812 181.652 323.728 181.516 323.672 181.34C323.616 181.164 323.588 180.932 323.588 180.644V176.696H322.532V175.796H323.588V173.936H324.608V175.796ZM329.593 182.828C329.473 183.132 329.353 183.388 329.233 183.596C329.121 183.804 328.993 183.972 328.849 184.1C328.713 184.236 328.557 184.332 328.381 184.388C328.213 184.452 328.017 184.484 327.793 184.484C327.673 184.484 327.553 184.476 327.433 184.46C327.313 184.444 327.197 184.416 327.085 184.376V183.44C327.173 183.48 327.273 183.512 327.385 183.536C327.505 183.568 327.605 183.584 327.685 183.584C327.893 183.584 328.065 183.532 328.201 183.428C328.345 183.332 328.453 183.192 328.525 183.008L328.945 181.964L326.485 175.796H327.637L329.449 180.872H329.473L331.213 175.796H332.293L329.593 182.828ZM334.897 177.128H333.565V175.796H334.897V177.128ZM333.565 180.668H334.897V182H333.565V180.668Z" fill="black" fill-opacity="0.68"/>
<path d="M287.248 192.576H295.136V193.856H288.768V197.488H294.704V198.768H288.768V202.72H295.184V204H287.248V192.576ZM297.005 195.728H298.285V197.04H298.317C298.883 196.037 299.779 195.536 301.005 195.536C301.549 195.536 302.003 195.611 302.365 195.76C302.728 195.909 303.021 196.117 303.245 196.384C303.469 196.651 303.624 196.971 303.709 197.344C303.805 197.707 303.853 198.112 303.853 198.56V204H302.493V198.4C302.493 197.888 302.344 197.483 302.045 197.184C301.747 196.885 301.336 196.736 300.813 196.736C300.397 196.736 300.035 196.8 299.725 196.928C299.427 197.056 299.176 197.237 298.973 197.472C298.771 197.707 298.616 197.984 298.509 198.304C298.413 198.613 298.365 198.955 298.365 199.328V204H297.005V195.728ZM307.984 195.728H309.632V196.928H307.984V202.064C307.984 202.224 307.995 202.352 308.016 202.448C308.048 202.544 308.101 202.619 308.176 202.672C308.251 202.725 308.352 202.763 308.48 202.784C308.619 202.795 308.795 202.8 309.008 202.8H309.632V204H308.592C308.24 204 307.936 203.979 307.68 203.936C307.435 203.883 307.232 203.792 307.072 203.664C306.923 203.536 306.811 203.355 306.736 203.12C306.661 202.885 306.624 202.576 306.624 202.192V196.928H305.216V195.728H306.624V193.248H307.984V195.728ZM317.087 199.072C317.065 198.752 316.991 198.448 316.863 198.16C316.745 197.872 316.58 197.627 316.367 197.424C316.164 197.211 315.919 197.045 315.631 196.928C315.353 196.8 315.044 196.736 314.703 196.736C314.351 196.736 314.031 196.8 313.743 196.928C313.465 197.045 313.225 197.211 313.023 197.424C312.82 197.637 312.66 197.888 312.543 198.176C312.425 198.453 312.356 198.752 312.335 199.072H317.087ZM318.399 201.376C318.217 202.304 317.817 203.003 317.199 203.472C316.58 203.941 315.801 204.176 314.863 204.176C314.201 204.176 313.625 204.069 313.135 203.856C312.655 203.643 312.249 203.344 311.919 202.96C311.588 202.576 311.337 202.117 311.167 201.584C311.007 201.051 310.916 200.469 310.895 199.84C310.895 199.211 310.991 198.635 311.183 198.112C311.375 197.589 311.641 197.136 311.983 196.752C312.335 196.368 312.745 196.069 313.215 195.856C313.695 195.643 314.217 195.536 314.783 195.536C315.519 195.536 316.127 195.691 316.607 196C317.097 196.299 317.487 196.683 317.775 197.152C318.073 197.621 318.276 198.133 318.383 198.688C318.5 199.243 318.548 199.771 318.527 200.272H312.335C312.324 200.635 312.367 200.981 312.463 201.312C312.559 201.632 312.713 201.92 312.927 202.176C313.14 202.421 313.412 202.619 313.743 202.768C314.073 202.917 314.463 202.992 314.911 202.992C315.487 202.992 315.956 202.859 316.319 202.592C316.692 202.325 316.937 201.92 317.055 201.376H318.399ZM320.088 195.728H321.368V197.472H321.4C321.731 196.8 322.136 196.304 322.616 195.984C323.096 195.664 323.704 195.515 324.44 195.536V196.976C323.896 196.976 323.432 197.051 323.048 197.2C322.664 197.349 322.355 197.568 322.12 197.856C321.886 198.144 321.715 198.496 321.608 198.912C321.502 199.317 321.448 199.787 321.448 200.32V204H320.088V195.728ZM337.646 203.968C337.411 204.107 337.086 204.176 336.67 204.176C336.318 204.176 336.035 204.08 335.822 203.888C335.619 203.685 335.518 203.36 335.518 202.912C335.144 203.36 334.707 203.685 334.206 203.888C333.715 204.08 333.182 204.176 332.606 204.176C332.232 204.176 331.875 204.133 331.534 204.048C331.203 203.963 330.915 203.829 330.67 203.648C330.424 203.467 330.227 203.232 330.078 202.944C329.939 202.645 329.87 202.288 329.87 201.872C329.87 201.403 329.95 201.019 330.11 200.72C330.27 200.421 330.478 200.181 330.734 200C331 199.808 331.299 199.664 331.63 199.568C331.971 199.472 332.318 199.392 332.67 199.328C333.043 199.253 333.395 199.2 333.726 199.168C334.067 199.125 334.366 199.072 334.622 199.008C334.878 198.933 335.08 198.832 335.23 198.704C335.379 198.565 335.454 198.368 335.454 198.112C335.454 197.813 335.395 197.573 335.278 197.392C335.171 197.211 335.027 197.072 334.846 196.976C334.675 196.88 334.478 196.816 334.254 196.784C334.04 196.752 333.827 196.736 333.614 196.736C333.038 196.736 332.558 196.848 332.174 197.072C331.79 197.285 331.582 197.696 331.55 198.304H330.19C330.211 197.792 330.318 197.36 330.51 197.008C330.702 196.656 330.958 196.373 331.278 196.16C331.598 195.936 331.96 195.776 332.366 195.68C332.782 195.584 333.224 195.536 333.694 195.536C334.067 195.536 334.435 195.563 334.798 195.616C335.171 195.669 335.507 195.781 335.806 195.952C336.104 196.112 336.344 196.341 336.526 196.64C336.707 196.939 336.798 197.328 336.798 197.808V202.064C336.798 202.384 336.814 202.619 336.846 202.768C336.888 202.917 337.016 202.992 337.23 202.992C337.347 202.992 337.486 202.965 337.646 202.912V203.968ZM335.438 199.728C335.267 199.856 335.043 199.952 334.766 200.016C334.488 200.069 334.195 200.117 333.886 200.16C333.587 200.192 333.283 200.235 332.974 200.288C332.664 200.331 332.387 200.405 332.142 200.512C331.896 200.619 331.694 200.773 331.534 200.976C331.384 201.168 331.31 201.435 331.31 201.776C331.31 202 331.352 202.192 331.438 202.352C331.534 202.501 331.651 202.624 331.79 202.72C331.939 202.816 332.11 202.885 332.302 202.928C332.494 202.971 332.696 202.992 332.91 202.992C333.358 202.992 333.742 202.933 334.062 202.816C334.382 202.688 334.643 202.533 334.846 202.352C335.048 202.16 335.198 201.957 335.294 201.744C335.39 201.52 335.438 201.312 335.438 201.12V199.728ZM343.765 195.728H345.045V197.04H345.077C345.642 196.037 346.538 195.536 347.765 195.536C348.309 195.536 348.762 195.611 349.125 195.76C349.487 195.909 349.781 196.117 350.005 196.384C350.229 196.651 350.383 196.971 350.469 197.344C350.565 197.707 350.613 198.112 350.613 198.56V204H349.253V198.4C349.253 197.888 349.103 197.483 348.805 197.184C348.506 196.885 348.095 196.736 347.573 196.736C347.157 196.736 346.794 196.8 346.485 196.928C346.186 197.056 345.935 197.237 345.733 197.472C345.53 197.707 345.375 197.984 345.269 198.304C345.173 198.613 345.125 198.955 345.125 199.328V204H343.765V195.728ZM359.703 204H358.423V202.688H358.391C358.103 203.2 357.735 203.579 357.287 203.824C356.839 204.059 356.311 204.176 355.703 204.176C355.159 204.176 354.706 204.107 354.343 203.968C353.981 203.819 353.687 203.611 353.463 203.344C353.239 203.077 353.079 202.763 352.983 202.4C352.898 202.027 352.855 201.616 352.855 201.168V195.728H354.215V201.328C354.215 201.84 354.365 202.245 354.663 202.544C354.962 202.843 355.373 202.992 355.895 202.992C356.311 202.992 356.669 202.928 356.967 202.8C357.277 202.672 357.533 202.491 357.735 202.256C357.938 202.021 358.087 201.749 358.183 201.44C358.29 201.12 358.343 200.773 358.343 200.4V195.728H359.703V204ZM361.946 195.728H363.226V196.944H363.258C363.877 196.005 364.767 195.536 365.93 195.536C366.442 195.536 366.906 195.643 367.322 195.856C367.738 196.069 368.031 196.432 368.202 196.944C368.479 196.496 368.842 196.149 369.29 195.904C369.749 195.659 370.25 195.536 370.794 195.536C371.21 195.536 371.583 195.584 371.914 195.68C372.255 195.765 372.543 195.904 372.778 196.096C373.023 196.288 373.21 196.539 373.338 196.848C373.477 197.147 373.546 197.509 373.546 197.936V204H372.186V198.576C372.186 198.32 372.165 198.08 372.122 197.856C372.079 197.632 371.999 197.44 371.882 197.28C371.765 197.109 371.599 196.976 371.386 196.88C371.183 196.784 370.917 196.736 370.586 196.736C369.914 196.736 369.386 196.928 369.002 197.312C368.618 197.696 368.426 198.208 368.426 198.848V204H367.066V198.576C367.066 198.309 367.039 198.064 366.986 197.84C366.943 197.616 366.863 197.424 366.746 197.264C366.629 197.093 366.469 196.965 366.266 196.88C366.074 196.784 365.823 196.736 365.514 196.736C365.119 196.736 364.778 196.816 364.49 196.976C364.213 197.136 363.983 197.328 363.802 197.552C363.631 197.776 363.503 198.011 363.418 198.256C363.343 198.491 363.306 198.688 363.306 198.848V204H361.946V195.728ZM375.834 192.576H377.194V196.848H377.226C377.45 196.389 377.802 196.059 378.282 195.856C378.762 195.643 379.29 195.536 379.866 195.536C380.506 195.536 381.061 195.653 381.53 195.888C382.01 196.123 382.405 196.443 382.714 196.848C383.034 197.243 383.274 197.701 383.434 198.224C383.594 198.747 383.674 199.301 383.674 199.888C383.674 200.475 383.594 201.029 383.434 201.552C383.285 202.075 383.05 202.533 382.73 202.928C382.421 203.312 382.026 203.616 381.546 203.84C381.077 204.064 380.528 204.176 379.898 204.176C379.696 204.176 379.466 204.155 379.21 204.112C378.965 204.069 378.72 204 378.474 203.904C378.229 203.808 377.994 203.68 377.77 203.52C377.557 203.349 377.376 203.141 377.226 202.896H377.194V204H375.834V192.576ZM382.234 199.792C382.234 199.408 382.181 199.035 382.074 198.672C381.978 198.299 381.824 197.968 381.61 197.68C381.408 197.392 381.141 197.163 380.81 196.992C380.49 196.821 380.112 196.736 379.674 196.736C379.216 196.736 378.826 196.827 378.506 197.008C378.186 197.189 377.925 197.429 377.722 197.728C377.52 198.016 377.37 198.347 377.274 198.72C377.189 199.093 377.146 199.472 377.146 199.856C377.146 200.261 377.194 200.656 377.29 201.04C377.386 201.413 377.536 201.744 377.738 202.032C377.952 202.32 378.224 202.555 378.554 202.736C378.885 202.907 379.285 202.992 379.754 202.992C380.224 202.992 380.613 202.901 380.922 202.72C381.242 202.539 381.498 202.299 381.69 202C381.882 201.701 382.021 201.36 382.106 200.976C382.192 200.592 382.234 200.197 382.234 199.792ZM391.215 199.072C391.194 198.752 391.119 198.448 390.991 198.16C390.874 197.872 390.708 197.627 390.495 197.424C390.292 197.211 390.047 197.045 389.759 196.928C389.482 196.8 389.172 196.736 388.831 196.736C388.479 196.736 388.159 196.8 387.871 196.928C387.594 197.045 387.354 197.211 387.151 197.424C386.948 197.637 386.788 197.888 386.671 198.176C386.554 198.453 386.484 198.752 386.463 199.072H391.215ZM392.527 201.376C392.346 202.304 391.946 203.003 391.327 203.472C390.708 203.941 389.93 204.176 388.991 204.176C388.33 204.176 387.754 204.069 387.263 203.856C386.783 203.643 386.378 203.344 386.047 202.96C385.716 202.576 385.466 202.117 385.295 201.584C385.135 201.051 385.044 200.469 385.023 199.84C385.023 199.211 385.119 198.635 385.311 198.112C385.503 197.589 385.77 197.136 386.111 196.752C386.463 196.368 386.874 196.069 387.343 195.856C387.823 195.643 388.346 195.536 388.911 195.536C389.647 195.536 390.255 195.691 390.735 196C391.226 196.299 391.615 196.683 391.903 197.152C392.202 197.621 392.404 198.133 392.511 198.688C392.628 199.243 392.676 199.771 392.655 200.272H386.463C386.452 200.635 386.495 200.981 386.591 201.312C386.687 201.632 386.842 201.92 387.055 202.176C387.268 202.421 387.54 202.619 387.871 202.768C388.202 202.917 388.591 202.992 389.039 202.992C389.615 202.992 390.084 202.859 390.447 202.592C390.82 202.325 391.066 201.92 391.183 201.376H392.527ZM394.217 195.728H395.497V197.472H395.529C395.859 196.8 396.265 196.304 396.745 195.984C397.225 195.664 397.833 195.515 398.569 195.536V196.976C398.025 196.976 397.561 197.051 397.177 197.2C396.793 197.349 396.483 197.568 396.249 197.856C396.014 198.144 395.843 198.496 395.737 198.912C395.63 199.317 395.577 199.787 395.577 200.32V204H394.217V195.728Z" fill="black" fill-opacity="0.68"/>
<path d="M438.5 191.125V188.875H423.5V191.125H438.5Z" fill="black"/>
<line y1="-0.5" x2="20" y2="-0.5" transform="matrix(0 -1 -1 0 455 200)" stroke="black" stroke-opacity="0.2"/>
<path d="M487.5 191.25V188.75H481.25V182.5H478.75V188.75H472.5V191.25H478.75V197.5H481.25V191.25H487.5Z" fill="black"/>
<path d="M91.248 294.076H98.752V295.356H92.768V298.988H98.016V300.268H92.768V305.5H91.248V294.076ZM101.652 295.74H100.292V294.076H101.652V295.74ZM100.292 297.228H101.652V305.5H100.292V297.228ZM103.838 294.076H105.198V305.5H103.838V294.076ZM107.385 294.076H108.745V305.5H107.385V294.076ZM116.596 300.572C116.575 300.252 116.5 299.948 116.372 299.66C116.255 299.372 116.089 299.127 115.876 298.924C115.673 298.711 115.428 298.545 115.14 298.428C114.863 298.3 114.553 298.236 114.212 298.236C113.86 298.236 113.54 298.3 113.252 298.428C112.975 298.545 112.735 298.711 112.532 298.924C112.329 299.137 112.169 299.388 112.052 299.676C111.935 299.953 111.865 300.252 111.844 300.572H116.596ZM117.908 302.876C117.727 303.804 117.327 304.503 116.708 304.972C116.089 305.441 115.311 305.676 114.372 305.676C113.711 305.676 113.135 305.569 112.644 305.356C112.164 305.143 111.759 304.844 111.428 304.46C111.097 304.076 110.847 303.617 110.676 303.084C110.516 302.551 110.425 301.969 110.404 301.34C110.404 300.711 110.5 300.135 110.692 299.612C110.884 299.089 111.151 298.636 111.492 298.252C111.844 297.868 112.255 297.569 112.724 297.356C113.204 297.143 113.727 297.036 114.292 297.036C115.028 297.036 115.636 297.191 116.116 297.5C116.607 297.799 116.996 298.183 117.284 298.652C117.583 299.121 117.785 299.633 117.892 300.188C118.009 300.743 118.057 301.271 118.036 301.772H111.844C111.833 302.135 111.876 302.481 111.972 302.812C112.068 303.132 112.223 303.42 112.436 303.676C112.649 303.921 112.921 304.119 113.252 304.268C113.583 304.417 113.972 304.492 114.42 304.492C114.996 304.492 115.465 304.359 115.828 304.092C116.201 303.825 116.447 303.42 116.564 302.876H117.908ZM120.438 301.436C120.438 301.82 120.486 302.199 120.582 302.572C120.689 302.935 120.843 303.26 121.046 303.548C121.259 303.836 121.526 304.065 121.846 304.236C122.177 304.407 122.561 304.492 122.998 304.492C123.457 304.492 123.846 304.401 124.166 304.22C124.486 304.039 124.747 303.804 124.95 303.516C125.153 303.217 125.297 302.881 125.382 302.508C125.478 302.135 125.526 301.756 125.526 301.372C125.526 300.967 125.478 300.577 125.382 300.204C125.286 299.82 125.131 299.484 124.918 299.196C124.715 298.908 124.449 298.679 124.118 298.508C123.787 298.327 123.387 298.236 122.918 298.236C122.459 298.236 122.07 298.327 121.75 298.508C121.43 298.689 121.174 298.929 120.982 299.228C120.79 299.527 120.651 299.868 120.566 300.252C120.481 300.636 120.438 301.031 120.438 301.436ZM126.838 305.5H125.478V304.38H125.446C125.222 304.839 124.87 305.169 124.39 305.372C123.91 305.575 123.382 305.676 122.806 305.676C122.166 305.676 121.606 305.559 121.126 305.324C120.657 305.089 120.262 304.775 119.942 304.38C119.633 303.985 119.398 303.527 119.238 303.004C119.078 302.481 118.998 301.927 118.998 301.34C118.998 300.753 119.073 300.199 119.222 299.676C119.382 299.153 119.617 298.7 119.926 298.316C120.246 297.921 120.641 297.612 121.11 297.388C121.59 297.153 122.145 297.036 122.774 297.036C122.987 297.036 123.217 297.057 123.462 297.1C123.707 297.143 123.953 297.217 124.198 297.324C124.443 297.42 124.673 297.553 124.886 297.724C125.11 297.884 125.297 298.087 125.446 298.332H125.478V294.076H126.838V305.5Z" fill="black" fill-opacity="0.68"/>
<mask id="path-17-inside-3_68467_43659" fill="white">
<path d="M270 270H510V330H270V270Z"/>
</mask>
<path d="M270 270H510V330H270V270Z" fill="black" fill-opacity="0.04"/>
<path d="M510 330V329H270V330V331H510V330Z" fill="black" fill-opacity="0.2" mask="url(#path-17-inside-3_68467_43659)"/>
<path d="M291.4 289.552L292.54 290.464C292.876 290.128 293.124 289.72 293.284 289.24C293.444 288.752 293.524 288.244 293.524 287.716C293.524 287.284 293.468 286.86 293.356 286.444C293.244 286.02 293.068 285.64 292.828 285.304C292.588 284.968 292.28 284.7 291.904 284.5C291.528 284.292 291.08 284.188 290.56 284.188C290.04 284.188 289.592 284.292 289.216 284.5C288.84 284.7 288.532 284.968 288.292 285.304C288.052 285.64 287.876 286.02 287.764 286.444C287.652 286.86 287.596 287.284 287.596 287.716C287.596 288.148 287.652 288.576 287.764 289C287.876 289.416 288.052 289.792 288.292 290.128C288.532 290.464 288.84 290.736 289.216 290.944C289.592 291.144 290.04 291.244 290.56 291.244C290.968 291.244 291.364 291.164 291.748 291.004L290.8 290.248L291.4 289.552ZM293.92 292.732L292.612 291.688C292.036 292.024 291.352 292.192 290.56 292.192C289.88 292.192 289.284 292.072 288.772 291.832C288.26 291.584 287.832 291.252 287.488 290.836C287.144 290.42 286.884 289.944 286.708 289.408C286.54 288.864 286.456 288.3 286.456 287.716C286.456 287.132 286.54 286.572 286.708 286.036C286.884 285.492 287.144 285.012 287.488 284.596C287.832 284.18 288.26 283.848 288.772 283.6C289.284 283.352 289.88 283.228 290.56 283.228C291.24 283.228 291.836 283.352 292.348 283.6C292.86 283.848 293.288 284.18 293.632 284.596C293.976 285.012 294.232 285.492 294.4 286.036C294.576 286.572 294.664 287.132 294.664 287.716C294.664 288.372 294.556 288.996 294.34 289.588C294.124 290.18 293.8 290.692 293.368 291.124L294.496 292.012L293.92 292.732ZM301.201 292H300.241V291.016H300.217C300.001 291.4 299.725 291.684 299.389 291.868C299.053 292.044 298.657 292.132 298.201 292.132C297.793 292.132 297.453 292.08 297.181 291.976C296.909 291.864 296.689 291.708 296.521 291.508C296.353 291.308 296.233 291.072 296.161 290.8C296.097 290.52 296.065 290.212 296.065 289.876V285.796H297.085V289.996C297.085 290.38 297.197 290.684 297.421 290.908C297.645 291.132 297.953 291.244 298.345 291.244C298.657 291.244 298.925 291.196 299.149 291.1C299.381 291.004 299.573 290.868 299.725 290.692C299.877 290.516 299.989 290.312 300.061 290.08C300.141 289.84 300.181 289.58 300.181 289.3V285.796H301.201V292ZM308.409 291.976C308.233 292.08 307.989 292.132 307.677 292.132C307.413 292.132 307.201 292.06 307.041 291.916C306.889 291.764 306.813 291.52 306.813 291.184C306.533 291.52 306.205 291.764 305.829 291.916C305.461 292.06 305.061 292.132 304.629 292.132C304.349 292.132 304.081 292.1 303.825 292.036C303.577 291.972 303.361 291.872 303.177 291.736C302.993 291.6 302.845 291.424 302.733 291.208C302.629 290.984 302.577 290.716 302.577 290.404C302.577 290.052 302.637 289.764 302.757 289.54C302.877 289.316 303.033 289.136 303.225 289C303.425 288.856 303.649 288.748 303.897 288.676C304.153 288.604 304.413 288.544 304.677 288.496C304.957 288.44 305.221 288.4 305.469 288.376C305.725 288.344 305.949 288.304 306.141 288.256C306.333 288.2 306.485 288.124 306.597 288.028C306.709 287.924 306.765 287.776 306.765 287.584C306.765 287.36 306.721 287.18 306.633 287.044C306.553 286.908 306.445 286.804 306.309 286.732C306.181 286.66 306.033 286.612 305.865 286.588C305.705 286.564 305.545 286.552 305.385 286.552C304.953 286.552 304.593 286.636 304.305 286.804C304.017 286.964 303.861 287.272 303.837 287.728H302.817C302.833 287.344 302.913 287.02 303.057 286.756C303.201 286.492 303.393 286.28 303.633 286.12C303.873 285.952 304.145 285.832 304.449 285.76C304.761 285.688 305.093 285.652 305.445 285.652C305.725 285.652 306.001 285.672 306.273 285.712C306.553 285.752 306.805 285.836 307.029 285.964C307.253 286.084 307.433 286.256 307.569 286.48C307.705 286.704 307.773 286.996 307.773 287.356V290.548C307.773 290.788 307.785 290.964 307.809 291.076C307.841 291.188 307.937 291.244 308.097 291.244C308.185 291.244 308.289 291.224 308.409 291.184V291.976ZM306.753 288.796C306.625 288.892 306.457 288.964 306.249 289.012C306.041 289.052 305.821 289.088 305.589 289.12C305.365 289.144 305.137 289.176 304.905 289.216C304.673 289.248 304.465 289.304 304.281 289.384C304.097 289.464 303.945 289.58 303.825 289.732C303.713 289.876 303.657 290.076 303.657 290.332C303.657 290.5 303.689 290.644 303.753 290.764C303.825 290.876 303.913 290.968 304.017 291.04C304.129 291.112 304.257 291.164 304.401 291.196C304.545 291.228 304.697 291.244 304.857 291.244C305.193 291.244 305.481 291.2 305.721 291.112C305.961 291.016 306.157 290.9 306.309 290.764C306.461 290.62 306.573 290.468 306.645 290.308C306.717 290.14 306.753 289.984 306.753 289.84V288.796ZM309.538 285.796H310.498V286.78H310.522C310.946 286.028 311.618 285.652 312.538 285.652C312.946 285.652 313.286 285.708 313.558 285.82C313.83 285.932 314.05 286.088 314.218 286.288C314.386 286.488 314.502 286.728 314.566 287.008C314.638 287.28 314.674 287.584 314.674 287.92V292H313.654V287.8C313.654 287.416 313.542 287.112 313.318 286.888C313.094 286.664 312.786 286.552 312.394 286.552C312.082 286.552 311.81 286.6 311.578 286.696C311.354 286.792 311.166 286.928 311.014 287.104C310.862 287.28 310.746 287.488 310.666 287.728C310.594 287.96 310.558 288.216 310.558 288.496V292H309.538V285.796ZM317.802 285.796H319.038V286.696H317.802V290.548C317.802 290.668 317.81 290.764 317.826 290.836C317.85 290.908 317.89 290.964 317.946 291.004C318.002 291.044 318.078 291.072 318.174 291.088C318.278 291.096 318.41 291.1 318.57 291.1H319.038V292H318.258C317.994 292 317.766 291.984 317.574 291.952C317.39 291.912 317.238 291.844 317.118 291.748C317.006 291.652 316.922 291.516 316.866 291.34C316.81 291.164 316.782 290.932 316.782 290.644V286.696H315.726V285.796H316.782V283.936H317.802V285.796ZM321.432 284.68H320.412V283.432H321.432V284.68ZM320.412 285.796H321.432V292H320.412V285.796ZM324.608 285.796H325.844V286.696H324.608V290.548C324.608 290.668 324.616 290.764 324.632 290.836C324.656 290.908 324.696 290.964 324.752 291.004C324.808 291.044 324.884 291.072 324.98 291.088C325.084 291.096 325.216 291.1 325.376 291.1H325.844V292H325.064C324.8 292 324.572 291.984 324.38 291.952C324.196 291.912 324.044 291.844 323.924 291.748C323.812 291.652 323.728 291.516 323.672 291.34C323.616 291.164 323.588 290.932 323.588 290.644V286.696H322.532V285.796H323.588V283.936H324.608V285.796ZM329.593 292.828C329.473 293.132 329.353 293.388 329.233 293.596C329.121 293.804 328.993 293.972 328.849 294.1C328.713 294.236 328.557 294.332 328.381 294.388C328.213 294.452 328.017 294.484 327.793 294.484C327.673 294.484 327.553 294.476 327.433 294.46C327.313 294.444 327.197 294.416 327.085 294.376V293.44C327.173 293.48 327.273 293.512 327.385 293.536C327.505 293.568 327.605 293.584 327.685 293.584C327.893 293.584 328.065 293.532 328.201 293.428C328.345 293.332 328.453 293.192 328.525 293.008L328.945 291.964L326.485 285.796H327.637L329.449 290.872H329.473L331.213 285.796H332.293L329.593 292.828ZM334.897 287.128H333.565V285.796H334.897V287.128ZM333.565 290.668H334.897V292H333.565V290.668Z" fill="black" fill-opacity="0.68"/>
<path d="M287.216 302.576H289.216V314H287.216V302.576ZM291.613 305.728H293.341V306.944L293.373 306.976C293.65 306.517 294.013 306.16 294.461 305.904C294.909 305.637 295.405 305.504 295.949 305.504C296.856 305.504 297.57 305.739 298.093 306.208C298.616 306.677 298.877 307.381 298.877 308.32V314H297.053V308.8C297.032 308.149 296.893 307.68 296.637 307.392C296.381 307.093 295.981 306.944 295.437 306.944C295.128 306.944 294.85 307.003 294.605 307.12C294.36 307.227 294.152 307.381 293.981 307.584C293.81 307.776 293.677 308.005 293.581 308.272C293.485 308.539 293.437 308.821 293.437 309.12V314H291.613V305.728ZM301.049 305.728H302.777V306.848H302.809C303.065 306.368 303.422 306.027 303.881 305.824C304.339 305.611 304.835 305.504 305.369 305.504C306.019 305.504 306.585 305.621 307.065 305.856C307.555 306.08 307.961 306.395 308.281 306.8C308.601 307.195 308.841 307.659 309.001 308.192C309.161 308.725 309.241 309.296 309.241 309.904C309.241 310.459 309.166 310.997 309.017 311.52C308.878 312.043 308.659 312.507 308.361 312.912C308.073 313.307 307.705 313.627 307.257 313.872C306.809 314.107 306.281 314.224 305.673 314.224C305.406 314.224 305.139 314.197 304.873 314.144C304.606 314.101 304.35 314.027 304.105 313.92C303.859 313.813 303.63 313.68 303.417 313.52C303.214 313.349 303.043 313.152 302.905 312.928H302.873V317.056H301.049V305.728ZM307.417 309.872C307.417 309.499 307.369 309.136 307.273 308.784C307.177 308.432 307.033 308.123 306.841 307.856C306.649 307.579 306.409 307.36 306.121 307.2C305.833 307.029 305.502 306.944 305.129 306.944C304.361 306.944 303.779 307.211 303.385 307.744C303.001 308.277 302.809 308.987 302.809 309.872C302.809 310.288 302.857 310.677 302.953 311.04C303.059 311.392 303.214 311.696 303.417 311.952C303.619 312.208 303.859 312.411 304.137 312.56C304.425 312.709 304.755 312.784 305.129 312.784C305.545 312.784 305.897 312.699 306.185 312.528C306.473 312.357 306.707 312.139 306.889 311.872C307.081 311.595 307.214 311.285 307.289 310.944C307.374 310.592 307.417 310.235 307.417 309.872ZM318.246 314H316.454V312.848H316.422C316.198 313.264 315.862 313.6 315.414 313.856C314.977 314.101 314.529 314.224 314.07 314.224C312.982 314.224 312.193 313.957 311.702 313.424C311.222 312.88 310.982 312.064 310.982 310.976V305.728H312.806V310.8C312.806 311.525 312.945 312.037 313.222 312.336C313.499 312.635 313.889 312.784 314.39 312.784C314.774 312.784 315.094 312.725 315.35 312.608C315.606 312.491 315.814 312.336 315.974 312.144C316.134 311.941 316.246 311.701 316.31 311.424C316.385 311.147 316.422 310.848 316.422 310.528V305.728H318.246V314ZM319.537 305.728H320.913V303.248H322.737V305.728H324.385V307.088H322.737V311.504C322.737 311.696 322.743 311.861 322.753 312C322.775 312.139 322.812 312.256 322.865 312.352C322.929 312.448 323.02 312.523 323.137 312.576C323.255 312.619 323.415 312.64 323.617 312.64C323.745 312.64 323.873 312.64 324.001 312.64C324.129 312.629 324.257 312.608 324.385 312.576V313.984C324.183 314.005 323.985 314.027 323.793 314.048C323.601 314.069 323.404 314.08 323.201 314.08C322.721 314.08 322.332 314.037 322.033 313.952C321.745 313.856 321.516 313.723 321.345 313.552C321.185 313.371 321.073 313.147 321.009 312.88C320.956 312.613 320.924 312.309 320.913 311.968V307.088H319.537V305.728Z" fill="black"/>
<path d="M438.5 301.125V298.875H423.5V301.125H438.5Z" fill="black"/>
<line y1="-0.5" x2="20" y2="-0.5" transform="matrix(0 -1 -1 0 455 310)" stroke="black" stroke-opacity="0.2"/>
<path d="M487.5 301.25V298.75H481.25V292.5H478.75V298.75H472.5V301.25H478.75V307.5H481.25V301.25H487.5Z" fill="black"/>
</svg>
