<svg width="600" height="282" viewBox="0 0 600 282" fill="none" xmlns="http://www.w3.org/2000/svg">
<rect width="600" height="282" fill="black" fill-opacity="0.04"/>
<path d="M97.856 69.42C97.7707 68.5987 97.472 68.0067 96.96 67.644C96.4587 67.2707 95.8133 67.084 95.024 67.084C94.704 67.084 94.3893 67.116 94.08 67.18C93.7707 67.244 93.4933 67.3507 93.248 67.5C93.0133 67.6493 92.8213 67.852 92.672 68.108C92.5333 68.3533 92.464 68.6627 92.464 69.036C92.464 69.388 92.5653 69.676 92.768 69.9C92.9813 70.1133 93.2587 70.2893 93.6 70.428C93.952 70.5667 94.3467 70.684 94.784 70.78C95.2213 70.8653 95.664 70.9613 96.112 71.068C96.5707 71.1747 97.0187 71.3027 97.456 71.452C97.8933 71.5907 98.2827 71.7827 98.624 72.028C98.976 72.2733 99.2533 72.5827 99.456 72.956C99.6693 73.3293 99.776 73.7987 99.776 74.364C99.776 74.972 99.6373 75.4947 99.36 75.932C99.0933 76.3587 98.7467 76.7107 98.32 76.988C97.8933 77.2547 97.4133 77.4467 96.88 77.564C96.3573 77.692 95.8347 77.756 95.312 77.756C94.672 77.756 94.064 77.676 93.488 77.516C92.9227 77.356 92.4213 77.116 91.984 76.796C91.5573 76.4653 91.216 76.0493 90.96 75.548C90.7147 75.036 90.592 74.4333 90.592 73.74H92.032C92.032 74.22 92.1227 74.636 92.304 74.988C92.496 75.3293 92.7413 75.612 93.04 75.836C93.3493 76.06 93.7067 76.2253 94.112 76.332C94.5173 76.4387 94.9333 76.492 95.36 76.492C95.7013 76.492 96.0427 76.46 96.384 76.396C96.736 76.332 97.0507 76.2253 97.328 76.076C97.6053 75.916 97.8293 75.7027 98 75.436C98.1707 75.1693 98.256 74.828 98.256 74.412C98.256 74.0173 98.1493 73.6973 97.936 73.452C97.7333 73.2067 97.456 73.0093 97.104 72.86C96.7627 72.7 96.3733 72.572 95.936 72.476C95.4987 72.38 95.0507 72.284 94.592 72.188C94.144 72.0813 93.7013 71.964 93.264 71.836C92.8267 71.6973 92.432 71.5213 92.08 71.308C91.7387 71.084 91.4613 70.8013 91.248 70.46C91.0453 70.108 90.944 69.6707 90.944 69.148C90.944 68.572 91.0613 68.076 91.296 67.66C91.5307 67.2333 91.84 66.8867 92.224 66.62C92.6187 66.3427 93.0613 66.14 93.552 66.012C94.0533 65.8733 94.5653 65.804 95.088 65.804C95.6747 65.804 96.2187 65.8733 96.72 66.012C97.2213 66.1507 97.6587 66.3693 98.032 66.668C98.416 66.9667 98.7147 67.3453 98.928 67.804C99.152 68.252 99.2747 68.7907 99.296 69.42H97.856ZM108.247 77.5H106.967V76.188H106.935C106.647 76.7 106.279 77.0787 105.831 77.324C105.383 77.5587 104.855 77.676 104.247 77.676C103.703 77.676 103.25 77.6067 102.887 77.468C102.524 77.3187 102.231 77.1107 102.007 76.844C101.783 76.5773 101.623 76.2627 101.527 75.9C101.442 75.5267 101.399 75.116 101.399 74.668V69.228H102.759V74.828C102.759 75.34 102.908 75.7453 103.207 76.044C103.506 76.3427 103.916 76.492 104.439 76.492C104.855 76.492 105.212 76.428 105.511 76.3C105.82 76.172 106.076 75.9907 106.279 75.756C106.482 75.5213 106.631 75.2493 106.727 74.94C106.834 74.62 106.887 74.2733 106.887 73.9V69.228H108.247V77.5ZM115.346 70.428H112.21V77.5H110.85V70.428H109.458V69.228H110.85V67.996C110.85 67.324 111.042 66.8173 111.426 66.476C111.82 66.124 112.391 65.948 113.138 65.948C113.266 65.948 113.41 65.9587 113.57 65.98C113.74 66.0013 113.89 66.0333 114.018 66.076V67.26C113.9 67.2173 113.772 67.1907 113.634 67.18C113.495 67.1587 113.367 67.148 113.25 67.148C112.919 67.148 112.663 67.212 112.482 67.34C112.3 67.468 112.21 67.7133 112.21 68.076V69.228H115.346V67.996C115.346 67.324 115.538 66.8173 115.922 66.476C116.316 66.124 116.887 65.948 117.634 65.948C117.762 65.948 117.906 65.9587 118.066 65.98C118.236 66.0013 118.386 66.0333 118.514 66.076V67.26C118.396 67.2173 118.268 67.1907 118.13 67.18C117.991 67.1587 117.863 67.148 117.746 67.148C117.415 67.148 117.159 67.212 116.978 67.34C116.796 67.468 116.706 67.7133 116.706 68.076V69.228H118.306V70.428H116.706V77.5H115.346V70.428ZM120.962 67.74H119.602V66.076H120.962V67.74ZM119.602 69.228H120.962V77.5H119.602V69.228ZM125.295 73.148L122.415 69.228H124.159L126.143 72.124L128.207 69.228H129.839L126.991 73.036L130.191 77.5H128.447L126.143 74.076L123.839 77.5H122.191L125.295 73.148Z" fill="black" fill-opacity="0.68"/>
<mask id="path-2-inside-1_68467_43763" fill="white">
<path d="M270 42H510V102H270V42Z"/>
</mask>
<path d="M270 42H510V102H270V42Z" fill="black" fill-opacity="0.04"/>
<path d="M510 102V101H270V102V103H510V102Z" fill="black" fill-opacity="0.2" mask="url(#path-2-inside-1_68467_43763)"/>
<path d="M291.4 61.552L292.54 62.464C292.876 62.128 293.124 61.72 293.284 61.24C293.444 60.752 293.524 60.244 293.524 59.716C293.524 59.284 293.468 58.86 293.356 58.444C293.244 58.02 293.068 57.64 292.828 57.304C292.588 56.968 292.28 56.7 291.904 56.5C291.528 56.292 291.08 56.188 290.56 56.188C290.04 56.188 289.592 56.292 289.216 56.5C288.84 56.7 288.532 56.968 288.292 57.304C288.052 57.64 287.876 58.02 287.764 58.444C287.652 58.86 287.596 59.284 287.596 59.716C287.596 60.148 287.652 60.576 287.764 61C287.876 61.416 288.052 61.792 288.292 62.128C288.532 62.464 288.84 62.736 289.216 62.944C289.592 63.144 290.04 63.244 290.56 63.244C290.968 63.244 291.364 63.164 291.748 63.004L290.8 62.248L291.4 61.552ZM293.92 64.732L292.612 63.688C292.036 64.024 291.352 64.192 290.56 64.192C289.88 64.192 289.284 64.072 288.772 63.832C288.26 63.584 287.832 63.252 287.488 62.836C287.144 62.42 286.884 61.944 286.708 61.408C286.54 60.864 286.456 60.3 286.456 59.716C286.456 59.132 286.54 58.572 286.708 58.036C286.884 57.492 287.144 57.012 287.488 56.596C287.832 56.18 288.26 55.848 288.772 55.6C289.284 55.352 289.88 55.228 290.56 55.228C291.24 55.228 291.836 55.352 292.348 55.6C292.86 55.848 293.288 56.18 293.632 56.596C293.976 57.012 294.232 57.492 294.4 58.036C294.576 58.572 294.664 59.132 294.664 59.716C294.664 60.372 294.556 60.996 294.34 61.588C294.124 62.18 293.8 62.692 293.368 63.124L294.496 64.012L293.92 64.732ZM301.201 64H300.241V63.016H300.217C300.001 63.4 299.725 63.684 299.389 63.868C299.053 64.044 298.657 64.132 298.201 64.132C297.793 64.132 297.453 64.08 297.181 63.976C296.909 63.864 296.689 63.708 296.521 63.508C296.353 63.308 296.233 63.072 296.161 62.8C296.097 62.52 296.065 62.212 296.065 61.876V57.796H297.085V61.996C297.085 62.38 297.197 62.684 297.421 62.908C297.645 63.132 297.953 63.244 298.345 63.244C298.657 63.244 298.925 63.196 299.149 63.1C299.381 63.004 299.573 62.868 299.725 62.692C299.877 62.516 299.989 62.312 300.061 62.08C300.141 61.84 300.181 61.58 300.181 61.3V57.796H301.201V64ZM308.409 63.976C308.233 64.08 307.989 64.132 307.677 64.132C307.413 64.132 307.201 64.06 307.041 63.916C306.889 63.764 306.813 63.52 306.813 63.184C306.533 63.52 306.205 63.764 305.829 63.916C305.461 64.06 305.061 64.132 304.629 64.132C304.349 64.132 304.081 64.1 303.825 64.036C303.577 63.972 303.361 63.872 303.177 63.736C302.993 63.6 302.845 63.424 302.733 63.208C302.629 62.984 302.577 62.716 302.577 62.404C302.577 62.052 302.637 61.764 302.757 61.54C302.877 61.316 303.033 61.136 303.225 61C303.425 60.856 303.649 60.748 303.897 60.676C304.153 60.604 304.413 60.544 304.677 60.496C304.957 60.44 305.221 60.4 305.469 60.376C305.725 60.344 305.949 60.304 306.141 60.256C306.333 60.2 306.485 60.124 306.597 60.028C306.709 59.924 306.765 59.776 306.765 59.584C306.765 59.36 306.721 59.18 306.633 59.044C306.553 58.908 306.445 58.804 306.309 58.732C306.181 58.66 306.033 58.612 305.865 58.588C305.705 58.564 305.545 58.552 305.385 58.552C304.953 58.552 304.593 58.636 304.305 58.804C304.017 58.964 303.861 59.272 303.837 59.728H302.817C302.833 59.344 302.913 59.02 303.057 58.756C303.201 58.492 303.393 58.28 303.633 58.12C303.873 57.952 304.145 57.832 304.449 57.76C304.761 57.688 305.093 57.652 305.445 57.652C305.725 57.652 306.001 57.672 306.273 57.712C306.553 57.752 306.805 57.836 307.029 57.964C307.253 58.084 307.433 58.256 307.569 58.48C307.705 58.704 307.773 58.996 307.773 59.356V62.548C307.773 62.788 307.785 62.964 307.809 63.076C307.841 63.188 307.937 63.244 308.097 63.244C308.185 63.244 308.289 63.224 308.409 63.184V63.976ZM306.753 60.796C306.625 60.892 306.457 60.964 306.249 61.012C306.041 61.052 305.821 61.088 305.589 61.12C305.365 61.144 305.137 61.176 304.905 61.216C304.673 61.248 304.465 61.304 304.281 61.384C304.097 61.464 303.945 61.58 303.825 61.732C303.713 61.876 303.657 62.076 303.657 62.332C303.657 62.5 303.689 62.644 303.753 62.764C303.825 62.876 303.913 62.968 304.017 63.04C304.129 63.112 304.257 63.164 304.401 63.196C304.545 63.228 304.697 63.244 304.857 63.244C305.193 63.244 305.481 63.2 305.721 63.112C305.961 63.016 306.157 62.9 306.309 62.764C306.461 62.62 306.573 62.468 306.645 62.308C306.717 62.14 306.753 61.984 306.753 61.84V60.796ZM309.538 57.796H310.498V58.78H310.522C310.946 58.028 311.618 57.652 312.538 57.652C312.946 57.652 313.286 57.708 313.558 57.82C313.83 57.932 314.05 58.088 314.218 58.288C314.386 58.488 314.502 58.728 314.566 59.008C314.638 59.28 314.674 59.584 314.674 59.92V64H313.654V59.8C313.654 59.416 313.542 59.112 313.318 58.888C313.094 58.664 312.786 58.552 312.394 58.552C312.082 58.552 311.81 58.6 311.578 58.696C311.354 58.792 311.166 58.928 311.014 59.104C310.862 59.28 310.746 59.488 310.666 59.728C310.594 59.96 310.558 60.216 310.558 60.496V64H309.538V57.796ZM317.802 57.796H319.038V58.696H317.802V62.548C317.802 62.668 317.81 62.764 317.826 62.836C317.85 62.908 317.89 62.964 317.946 63.004C318.002 63.044 318.078 63.072 318.174 63.088C318.278 63.096 318.41 63.1 318.57 63.1H319.038V64H318.258C317.994 64 317.766 63.984 317.574 63.952C317.39 63.912 317.238 63.844 317.118 63.748C317.006 63.652 316.922 63.516 316.866 63.34C316.81 63.164 316.782 62.932 316.782 62.644V58.696H315.726V57.796H316.782V55.936H317.802V57.796ZM321.432 56.68H320.412V55.432H321.432V56.68ZM320.412 57.796H321.432V64H320.412V57.796ZM324.608 57.796H325.844V58.696H324.608V62.548C324.608 62.668 324.616 62.764 324.632 62.836C324.656 62.908 324.696 62.964 324.752 63.004C324.808 63.044 324.884 63.072 324.98 63.088C325.084 63.096 325.216 63.1 325.376 63.1H325.844V64H325.064C324.8 64 324.572 63.984 324.38 63.952C324.196 63.912 324.044 63.844 323.924 63.748C323.812 63.652 323.728 63.516 323.672 63.34C323.616 63.164 323.588 62.932 323.588 62.644V58.696H322.532V57.796H323.588V55.936H324.608V57.796ZM329.593 64.828C329.473 65.132 329.353 65.388 329.233 65.596C329.121 65.804 328.993 65.972 328.849 66.1C328.713 66.236 328.557 66.332 328.381 66.388C328.213 66.452 328.017 66.484 327.793 66.484C327.673 66.484 327.553 66.476 327.433 66.46C327.313 66.444 327.197 66.416 327.085 66.376V65.44C327.173 65.48 327.273 65.512 327.385 65.536C327.505 65.568 327.605 65.584 327.685 65.584C327.893 65.584 328.065 65.532 328.201 65.428C328.345 65.332 328.453 65.192 328.525 65.008L328.945 63.964L326.485 57.796H327.637L329.449 62.872H329.473L331.213 57.796H332.293L329.593 64.828ZM334.897 59.128H333.565V57.796H334.897V59.128ZM333.565 62.668H334.897V64H333.565V62.668Z" fill="black" fill-opacity="0.68"/>
<path d="M287.968 74.8H293.76V76.432H289.328L288.752 79.28L288.784 79.312C289.029 79.0347 289.339 78.8267 289.712 78.688C290.096 78.5387 290.475 78.464 290.848 78.464C291.403 78.464 291.899 78.56 292.336 78.752C292.773 78.9333 293.141 79.1947 293.44 79.536C293.739 79.8667 293.963 80.2613 294.112 80.72C294.272 81.1787 294.352 81.6747 294.352 82.208C294.352 82.656 294.277 83.12 294.128 83.6C293.989 84.0693 293.76 84.5013 293.44 84.896C293.131 85.28 292.731 85.6 292.24 85.856C291.749 86.1013 291.163 86.224 290.48 86.224C289.936 86.224 289.429 86.1493 288.96 86C288.501 85.8613 288.096 85.648 287.744 85.36C287.392 85.072 287.109 84.72 286.896 84.304C286.693 83.8773 286.581 83.3813 286.56 82.816H288.384C288.437 83.424 288.645 83.8933 289.008 84.224C289.371 84.544 289.851 84.704 290.448 84.704C290.832 84.704 291.157 84.64 291.424 84.512C291.691 84.384 291.904 84.208 292.064 83.984C292.235 83.76 292.352 83.4987 292.416 83.2C292.491 82.9013 292.528 82.5813 292.528 82.24C292.528 81.9307 292.485 81.6373 292.4 81.36C292.315 81.072 292.187 80.8213 292.016 80.608C291.845 80.3947 291.621 80.224 291.344 80.096C291.077 79.968 290.763 79.904 290.4 79.904C290.016 79.904 289.653 79.9787 289.312 80.128C288.981 80.2667 288.741 80.5333 288.592 80.928H286.768L287.968 74.8Z" fill="black"/>
<path d="M438.5 73.125V70.875H423.5V73.125H438.5Z" fill="black"/>
<line y1="-0.5" x2="20" y2="-0.5" transform="matrix(0 -1 -1 0 455 82)" stroke="black" stroke-opacity="0.2"/>
<path d="M487.5 73.25V70.75H481.25V64.5H478.75V70.75H472.5V73.25H478.75V79.5H481.25V73.25H487.5Z" fill="black"/>
<path d="M91.248 200.076H92.768V204.988H98.784V200.076H100.304V211.5H98.784V206.268H92.768V211.5H91.248V200.076ZM108.315 206.572C108.294 206.252 108.219 205.948 108.091 205.66C107.974 205.372 107.808 205.127 107.595 204.924C107.392 204.711 107.147 204.545 106.859 204.428C106.582 204.3 106.272 204.236 105.931 204.236C105.579 204.236 105.259 204.3 104.971 204.428C104.694 204.545 104.454 204.711 104.251 204.924C104.048 205.137 103.888 205.388 103.771 205.676C103.654 205.953 103.584 206.252 103.563 206.572H108.315ZM109.627 208.876C109.446 209.804 109.046 210.503 108.427 210.972C107.808 211.441 107.03 211.676 106.091 211.676C105.43 211.676 104.854 211.569 104.363 211.356C103.883 211.143 103.478 210.844 103.147 210.46C102.816 210.076 102.566 209.617 102.395 209.084C102.235 208.551 102.144 207.969 102.123 207.34C102.123 206.711 102.219 206.135 102.411 205.612C102.603 205.089 102.87 204.636 103.211 204.252C103.563 203.868 103.974 203.569 104.443 203.356C104.923 203.143 105.446 203.036 106.011 203.036C106.747 203.036 107.355 203.191 107.835 203.5C108.326 203.799 108.715 204.183 109.003 204.652C109.302 205.121 109.504 205.633 109.611 206.188C109.728 206.743 109.776 207.271 109.755 207.772H103.563C103.552 208.135 103.595 208.481 103.691 208.812C103.787 209.132 103.942 209.42 104.155 209.676C104.368 209.921 104.64 210.119 104.971 210.268C105.302 210.417 105.691 210.492 106.139 210.492C106.715 210.492 107.184 210.359 107.547 210.092C107.92 209.825 108.166 209.42 108.283 208.876H109.627ZM111.245 200.076H112.605V211.5H111.245V200.076ZM114.76 203.228H116.12V204.348H116.152C116.376 203.889 116.728 203.559 117.208 203.356C117.688 203.143 118.216 203.036 118.792 203.036C119.432 203.036 119.986 203.153 120.456 203.388C120.936 203.623 121.33 203.943 121.64 204.348C121.96 204.743 122.2 205.201 122.36 205.724C122.52 206.247 122.6 206.801 122.6 207.388C122.6 207.975 122.52 208.529 122.36 209.052C122.21 209.575 121.976 210.033 121.656 210.428C121.346 210.812 120.952 211.116 120.472 211.34C120.002 211.564 119.453 211.676 118.824 211.676C118.621 211.676 118.392 211.655 118.136 211.612C117.89 211.569 117.645 211.5 117.4 211.404C117.154 211.308 116.92 211.18 116.696 211.02C116.482 210.849 116.301 210.641 116.152 210.396H116.12V214.652H114.76V203.228ZM121.16 207.292C121.16 206.908 121.106 206.535 121 206.172C120.904 205.799 120.749 205.468 120.536 205.18C120.333 204.892 120.066 204.663 119.736 204.492C119.416 204.321 119.037 204.236 118.6 204.236C118.141 204.236 117.752 204.327 117.432 204.508C117.112 204.689 116.85 204.929 116.648 205.228C116.445 205.516 116.296 205.847 116.2 206.22C116.114 206.593 116.072 206.972 116.072 207.356C116.072 207.761 116.12 208.156 116.216 208.54C116.312 208.913 116.461 209.244 116.664 209.532C116.877 209.82 117.149 210.055 117.48 210.236C117.81 210.407 118.21 210.492 118.68 210.492C119.149 210.492 119.538 210.401 119.848 210.22C120.168 210.039 120.424 209.799 120.616 209.5C120.808 209.201 120.946 208.86 121.032 208.476C121.117 208.092 121.16 207.697 121.16 207.292ZM129.94 206.572C129.919 206.252 129.844 205.948 129.716 205.66C129.599 205.372 129.433 205.127 129.22 204.924C129.017 204.711 128.772 204.545 128.484 204.428C128.207 204.3 127.897 204.236 127.556 204.236C127.204 204.236 126.884 204.3 126.596 204.428C126.319 204.545 126.079 204.711 125.876 204.924C125.673 205.137 125.513 205.388 125.396 205.676C125.279 205.953 125.209 206.252 125.188 206.572H129.94ZM131.252 208.876C131.071 209.804 130.671 210.503 130.052 210.972C129.433 211.441 128.655 211.676 127.716 211.676C127.055 211.676 126.479 211.569 125.988 211.356C125.508 211.143 125.103 210.844 124.772 210.46C124.441 210.076 124.191 209.617 124.02 209.084C123.86 208.551 123.769 207.969 123.748 207.34C123.748 206.711 123.844 206.135 124.036 205.612C124.228 205.089 124.495 204.636 124.836 204.252C125.188 203.868 125.599 203.569 126.068 203.356C126.548 203.143 127.071 203.036 127.636 203.036C128.372 203.036 128.98 203.191 129.46 203.5C129.951 203.799 130.34 204.183 130.628 204.652C130.927 205.121 131.129 205.633 131.236 206.188C131.353 206.743 131.401 207.271 131.38 207.772H125.188C125.177 208.135 125.22 208.481 125.316 208.812C125.412 209.132 125.567 209.42 125.78 209.676C125.993 209.921 126.265 210.119 126.596 210.268C126.927 210.417 127.316 210.492 127.764 210.492C128.34 210.492 128.809 210.359 129.172 210.092C129.545 209.825 129.791 209.42 129.908 208.876H131.252ZM132.742 203.228H134.022V204.972H134.054C134.384 204.3 134.79 203.804 135.27 203.484C135.75 203.164 136.358 203.015 137.094 203.036V204.476C136.55 204.476 136.086 204.551 135.702 204.7C135.318 204.849 135.008 205.068 134.774 205.356C134.539 205.644 134.368 205.996 134.262 206.412C134.155 206.817 134.102 207.287 134.102 207.82V211.5H132.742V203.228ZM144.459 203.228H146.107V204.428H144.459V209.564C144.459 209.724 144.47 209.852 144.491 209.948C144.523 210.044 144.576 210.119 144.651 210.172C144.726 210.225 144.827 210.263 144.955 210.284C145.094 210.295 145.27 210.3 145.483 210.3H146.107V211.5H145.067C144.715 211.5 144.411 211.479 144.155 211.436C143.91 211.383 143.707 211.292 143.547 211.164C143.398 211.036 143.286 210.855 143.211 210.62C143.136 210.385 143.099 210.076 143.099 209.692V204.428H141.691V203.228H143.099V200.748H144.459V203.228ZM153.362 206.572C153.34 206.252 153.266 205.948 153.138 205.66C153.02 205.372 152.855 205.127 152.642 204.924C152.439 204.711 152.194 204.545 151.906 204.428C151.628 204.3 151.319 204.236 150.978 204.236C150.626 204.236 150.306 204.3 150.018 204.428C149.74 204.545 149.5 204.711 149.298 204.924C149.095 205.137 148.935 205.388 148.818 205.676C148.7 205.953 148.631 206.252 148.61 206.572H153.362ZM154.674 208.876C154.492 209.804 154.092 210.503 153.474 210.972C152.855 211.441 152.076 211.676 151.138 211.676C150.476 211.676 149.9 211.569 149.41 211.356C148.93 211.143 148.524 210.844 148.194 210.46C147.863 210.076 147.612 209.617 147.442 209.084C147.282 208.551 147.191 207.969 147.17 207.34C147.17 206.711 147.266 206.135 147.458 205.612C147.65 205.089 147.916 204.636 148.258 204.252C148.61 203.868 149.02 203.569 149.49 203.356C149.97 203.143 150.492 203.036 151.058 203.036C151.794 203.036 152.402 203.191 152.882 203.5C153.372 203.799 153.762 204.183 154.05 204.652C154.348 205.121 154.551 205.633 154.658 206.188C154.775 206.743 154.823 207.271 154.802 207.772H148.61C148.599 208.135 148.642 208.481 148.738 208.812C148.834 209.132 148.988 209.42 149.202 209.676C149.415 209.921 149.687 210.119 150.018 210.268C150.348 210.417 150.738 210.492 151.186 210.492C151.762 210.492 152.231 210.359 152.594 210.092C152.967 209.825 153.212 209.42 153.33 208.876H154.674ZM158.436 207.148L155.556 203.228H157.299L159.284 206.124L161.348 203.228H162.98L160.132 207.036L163.332 211.5H161.588L159.284 208.076L156.98 211.5H155.332L158.436 207.148ZM166.381 203.228H168.029V204.428H166.381V209.564C166.381 209.724 166.391 209.852 166.413 209.948C166.445 210.044 166.498 210.119 166.573 210.172C166.647 210.225 166.749 210.263 166.877 210.284C167.015 210.295 167.191 210.3 167.405 210.3H168.029V211.5H166.989C166.637 211.5 166.333 211.479 166.077 211.436C165.831 211.383 165.629 211.292 165.469 211.164C165.319 211.036 165.207 210.855 165.133 210.62C165.058 210.385 165.021 210.076 165.021 209.692V204.428H163.613V203.228H165.021V200.748H166.381V203.228Z" fill="black" fill-opacity="0.68"/>
<mask id="path-10-inside-2_68467_43763" fill="white">
<path d="M270 152H510V212H270V152Z"/>
</mask>
<path d="M270 152H510V212H270V152Z" fill="black" fill-opacity="0.04"/>
<path d="M510 212V211H270V212V213H510V212Z" fill="black" fill-opacity="0.2" mask="url(#path-10-inside-2_68467_43763)"/>
<path d="M291.4 171.552L292.54 172.464C292.876 172.128 293.124 171.72 293.284 171.24C293.444 170.752 293.524 170.244 293.524 169.716C293.524 169.284 293.468 168.86 293.356 168.444C293.244 168.02 293.068 167.64 292.828 167.304C292.588 166.968 292.28 166.7 291.904 166.5C291.528 166.292 291.08 166.188 290.56 166.188C290.04 166.188 289.592 166.292 289.216 166.5C288.84 166.7 288.532 166.968 288.292 167.304C288.052 167.64 287.876 168.02 287.764 168.444C287.652 168.86 287.596 169.284 287.596 169.716C287.596 170.148 287.652 170.576 287.764 171C287.876 171.416 288.052 171.792 288.292 172.128C288.532 172.464 288.84 172.736 289.216 172.944C289.592 173.144 290.04 173.244 290.56 173.244C290.968 173.244 291.364 173.164 291.748 173.004L290.8 172.248L291.4 171.552ZM293.92 174.732L292.612 173.688C292.036 174.024 291.352 174.192 290.56 174.192C289.88 174.192 289.284 174.072 288.772 173.832C288.26 173.584 287.832 173.252 287.488 172.836C287.144 172.42 286.884 171.944 286.708 171.408C286.54 170.864 286.456 170.3 286.456 169.716C286.456 169.132 286.54 168.572 286.708 168.036C286.884 167.492 287.144 167.012 287.488 166.596C287.832 166.18 288.26 165.848 288.772 165.6C289.284 165.352 289.88 165.228 290.56 165.228C291.24 165.228 291.836 165.352 292.348 165.6C292.86 165.848 293.288 166.18 293.632 166.596C293.976 167.012 294.232 167.492 294.4 168.036C294.576 168.572 294.664 169.132 294.664 169.716C294.664 170.372 294.556 170.996 294.34 171.588C294.124 172.18 293.8 172.692 293.368 173.124L294.496 174.012L293.92 174.732ZM301.201 174H300.241V173.016H300.217C300.001 173.4 299.725 173.684 299.389 173.868C299.053 174.044 298.657 174.132 298.201 174.132C297.793 174.132 297.453 174.08 297.181 173.976C296.909 173.864 296.689 173.708 296.521 173.508C296.353 173.308 296.233 173.072 296.161 172.8C296.097 172.52 296.065 172.212 296.065 171.876V167.796H297.085V171.996C297.085 172.38 297.197 172.684 297.421 172.908C297.645 173.132 297.953 173.244 298.345 173.244C298.657 173.244 298.925 173.196 299.149 173.1C299.381 173.004 299.573 172.868 299.725 172.692C299.877 172.516 299.989 172.312 300.061 172.08C300.141 171.84 300.181 171.58 300.181 171.3V167.796H301.201V174ZM308.409 173.976C308.233 174.08 307.989 174.132 307.677 174.132C307.413 174.132 307.201 174.06 307.041 173.916C306.889 173.764 306.813 173.52 306.813 173.184C306.533 173.52 306.205 173.764 305.829 173.916C305.461 174.06 305.061 174.132 304.629 174.132C304.349 174.132 304.081 174.1 303.825 174.036C303.577 173.972 303.361 173.872 303.177 173.736C302.993 173.6 302.845 173.424 302.733 173.208C302.629 172.984 302.577 172.716 302.577 172.404C302.577 172.052 302.637 171.764 302.757 171.54C302.877 171.316 303.033 171.136 303.225 171C303.425 170.856 303.649 170.748 303.897 170.676C304.153 170.604 304.413 170.544 304.677 170.496C304.957 170.44 305.221 170.4 305.469 170.376C305.725 170.344 305.949 170.304 306.141 170.256C306.333 170.2 306.485 170.124 306.597 170.028C306.709 169.924 306.765 169.776 306.765 169.584C306.765 169.36 306.721 169.18 306.633 169.044C306.553 168.908 306.445 168.804 306.309 168.732C306.181 168.66 306.033 168.612 305.865 168.588C305.705 168.564 305.545 168.552 305.385 168.552C304.953 168.552 304.593 168.636 304.305 168.804C304.017 168.964 303.861 169.272 303.837 169.728H302.817C302.833 169.344 302.913 169.02 303.057 168.756C303.201 168.492 303.393 168.28 303.633 168.12C303.873 167.952 304.145 167.832 304.449 167.76C304.761 167.688 305.093 167.652 305.445 167.652C305.725 167.652 306.001 167.672 306.273 167.712C306.553 167.752 306.805 167.836 307.029 167.964C307.253 168.084 307.433 168.256 307.569 168.48C307.705 168.704 307.773 168.996 307.773 169.356V172.548C307.773 172.788 307.785 172.964 307.809 173.076C307.841 173.188 307.937 173.244 308.097 173.244C308.185 173.244 308.289 173.224 308.409 173.184V173.976ZM306.753 170.796C306.625 170.892 306.457 170.964 306.249 171.012C306.041 171.052 305.821 171.088 305.589 171.12C305.365 171.144 305.137 171.176 304.905 171.216C304.673 171.248 304.465 171.304 304.281 171.384C304.097 171.464 303.945 171.58 303.825 171.732C303.713 171.876 303.657 172.076 303.657 172.332C303.657 172.5 303.689 172.644 303.753 172.764C303.825 172.876 303.913 172.968 304.017 173.04C304.129 173.112 304.257 173.164 304.401 173.196C304.545 173.228 304.697 173.244 304.857 173.244C305.193 173.244 305.481 173.2 305.721 173.112C305.961 173.016 306.157 172.9 306.309 172.764C306.461 172.62 306.573 172.468 306.645 172.308C306.717 172.14 306.753 171.984 306.753 171.84V170.796ZM309.538 167.796H310.498V168.78H310.522C310.946 168.028 311.618 167.652 312.538 167.652C312.946 167.652 313.286 167.708 313.558 167.82C313.83 167.932 314.05 168.088 314.218 168.288C314.386 168.488 314.502 168.728 314.566 169.008C314.638 169.28 314.674 169.584 314.674 169.92V174H313.654V169.8C313.654 169.416 313.542 169.112 313.318 168.888C313.094 168.664 312.786 168.552 312.394 168.552C312.082 168.552 311.81 168.6 311.578 168.696C311.354 168.792 311.166 168.928 311.014 169.104C310.862 169.28 310.746 169.488 310.666 169.728C310.594 169.96 310.558 170.216 310.558 170.496V174H309.538V167.796ZM317.802 167.796H319.038V168.696H317.802V172.548C317.802 172.668 317.81 172.764 317.826 172.836C317.85 172.908 317.89 172.964 317.946 173.004C318.002 173.044 318.078 173.072 318.174 173.088C318.278 173.096 318.41 173.1 318.57 173.1H319.038V174H318.258C317.994 174 317.766 173.984 317.574 173.952C317.39 173.912 317.238 173.844 317.118 173.748C317.006 173.652 316.922 173.516 316.866 173.34C316.81 173.164 316.782 172.932 316.782 172.644V168.696H315.726V167.796H316.782V165.936H317.802V167.796ZM321.432 166.68H320.412V165.432H321.432V166.68ZM320.412 167.796H321.432V174H320.412V167.796ZM324.608 167.796H325.844V168.696H324.608V172.548C324.608 172.668 324.616 172.764 324.632 172.836C324.656 172.908 324.696 172.964 324.752 173.004C324.808 173.044 324.884 173.072 324.98 173.088C325.084 173.096 325.216 173.1 325.376 173.1H325.844V174H325.064C324.8 174 324.572 173.984 324.38 173.952C324.196 173.912 324.044 173.844 323.924 173.748C323.812 173.652 323.728 173.516 323.672 173.34C323.616 173.164 323.588 172.932 323.588 172.644V168.696H322.532V167.796H323.588V165.936H324.608V167.796ZM329.593 174.828C329.473 175.132 329.353 175.388 329.233 175.596C329.121 175.804 328.993 175.972 328.849 176.1C328.713 176.236 328.557 176.332 328.381 176.388C328.213 176.452 328.017 176.484 327.793 176.484C327.673 176.484 327.553 176.476 327.433 176.46C327.313 176.444 327.197 176.416 327.085 176.376V175.44C327.173 175.48 327.273 175.512 327.385 175.536C327.505 175.568 327.605 175.584 327.685 175.584C327.893 175.584 328.065 175.532 328.201 175.428C328.345 175.332 328.453 175.192 328.525 175.008L328.945 173.964L326.485 167.796H327.637L329.449 172.872H329.473L331.213 167.796H332.293L329.593 174.828ZM334.897 169.128H333.565V167.796H334.897V169.128ZM333.565 172.668H334.897V174H333.565V172.668Z" fill="black" fill-opacity="0.68"/>
<path d="M287.968 184.8H293.76V186.432H289.328L288.752 189.28L288.784 189.312C289.029 189.035 289.339 188.827 289.712 188.688C290.096 188.539 290.475 188.464 290.848 188.464C291.403 188.464 291.899 188.56 292.336 188.752C292.773 188.933 293.141 189.195 293.44 189.536C293.739 189.867 293.963 190.261 294.112 190.72C294.272 191.179 294.352 191.675 294.352 192.208C294.352 192.656 294.277 193.12 294.128 193.6C293.989 194.069 293.76 194.501 293.44 194.896C293.131 195.28 292.731 195.6 292.24 195.856C291.749 196.101 291.163 196.224 290.48 196.224C289.936 196.224 289.429 196.149 288.96 196C288.501 195.861 288.096 195.648 287.744 195.36C287.392 195.072 287.109 194.72 286.896 194.304C286.693 193.877 286.581 193.381 286.56 192.816H288.384C288.437 193.424 288.645 193.893 289.008 194.224C289.371 194.544 289.851 194.704 290.448 194.704C290.832 194.704 291.157 194.64 291.424 194.512C291.691 194.384 291.904 194.208 292.064 193.984C292.235 193.76 292.352 193.499 292.416 193.2C292.491 192.901 292.528 192.581 292.528 192.24C292.528 191.931 292.485 191.637 292.4 191.36C292.315 191.072 292.187 190.821 292.016 190.608C291.845 190.395 291.621 190.224 291.344 190.096C291.077 189.968 290.763 189.904 290.4 189.904C290.016 189.904 289.653 189.979 289.312 190.128C288.981 190.267 288.741 190.533 288.592 190.928H286.768L287.968 184.8Z" fill="black"/>
<path d="M438.5 183.125V180.875H423.5V183.125H438.5Z" fill="black"/>
<line y1="-0.5" x2="20" y2="-0.5" transform="matrix(0 -1 -1 0 455 192)" stroke="black" stroke-opacity="0.2"/>
<path d="M487.5 183.25V180.75H481.25V174.5H478.75V180.75H472.5V183.25H478.75V189.5H481.25V183.25H487.5Z" fill="black"/>
<path d="M288.422 229.792H291.026C291.782 229.801 292.333 229.647 292.678 229.33C293.033 229.013 293.21 228.555 293.21 227.958C293.21 227.361 293.033 226.908 292.678 226.6C292.333 226.283 291.782 226.124 291.026 226.124H288.422V229.792ZM287.092 225.004H291.474C292.482 225.004 293.243 225.265 293.756 225.788C294.279 226.301 294.54 227.025 294.54 227.958C294.54 228.891 294.279 229.619 293.756 230.142C293.243 230.665 292.482 230.921 291.474 230.912H288.422V235H287.092V225.004ZM296.219 225.004H297.409V235H296.219V225.004ZM304.454 230.688C304.435 230.408 304.37 230.142 304.258 229.89C304.155 229.638 304.01 229.423 303.824 229.246C303.646 229.059 303.432 228.915 303.18 228.812C302.937 228.7 302.666 228.644 302.368 228.644C302.06 228.644 301.78 228.7 301.528 228.812C301.285 228.915 301.075 229.059 300.898 229.246C300.72 229.433 300.58 229.652 300.478 229.904C300.375 230.147 300.314 230.408 300.296 230.688H304.454ZM305.602 232.704C305.443 233.516 305.093 234.127 304.552 234.538C304.01 234.949 303.329 235.154 302.508 235.154C301.929 235.154 301.425 235.061 300.996 234.874C300.576 234.687 300.221 234.426 299.932 234.09C299.642 233.754 299.423 233.353 299.274 232.886C299.134 232.419 299.054 231.911 299.036 231.36C299.036 230.809 299.12 230.305 299.288 229.848C299.456 229.391 299.689 228.994 299.988 228.658C300.296 228.322 300.655 228.061 301.066 227.874C301.486 227.687 301.943 227.594 302.438 227.594C303.082 227.594 303.614 227.729 304.034 228C304.463 228.261 304.804 228.597 305.056 229.008C305.317 229.419 305.494 229.867 305.588 230.352C305.69 230.837 305.732 231.299 305.714 231.738H300.296C300.286 232.055 300.324 232.359 300.408 232.648C300.492 232.928 300.627 233.18 300.814 233.404C301 233.619 301.238 233.791 301.528 233.922C301.817 234.053 302.158 234.118 302.55 234.118C303.054 234.118 303.464 234.001 303.782 233.768C304.108 233.535 304.323 233.18 304.426 232.704H305.602ZM313.534 234.972C313.329 235.093 313.044 235.154 312.68 235.154C312.372 235.154 312.125 235.07 311.938 234.902C311.761 234.725 311.672 234.44 311.672 234.048C311.346 234.44 310.963 234.725 310.524 234.902C310.095 235.07 309.628 235.154 309.124 235.154C308.798 235.154 308.485 235.117 308.186 235.042C307.897 234.967 307.645 234.851 307.43 234.692C307.216 234.533 307.043 234.328 306.912 234.076C306.791 233.815 306.73 233.502 306.73 233.138C306.73 232.727 306.8 232.391 306.94 232.13C307.08 231.869 307.262 231.659 307.486 231.5C307.72 231.332 307.981 231.206 308.27 231.122C308.569 231.038 308.872 230.968 309.18 230.912C309.507 230.847 309.815 230.8 310.104 230.772C310.403 230.735 310.664 230.688 310.888 230.632C311.112 230.567 311.29 230.478 311.42 230.366C311.551 230.245 311.616 230.072 311.616 229.848C311.616 229.587 311.565 229.377 311.462 229.218C311.369 229.059 311.243 228.938 311.084 228.854C310.935 228.77 310.762 228.714 310.566 228.686C310.38 228.658 310.193 228.644 310.006 228.644C309.502 228.644 309.082 228.742 308.746 228.938C308.41 229.125 308.228 229.484 308.2 230.016H307.01C307.029 229.568 307.122 229.19 307.29 228.882C307.458 228.574 307.682 228.327 307.962 228.14C308.242 227.944 308.56 227.804 308.914 227.72C309.278 227.636 309.666 227.594 310.076 227.594C310.403 227.594 310.725 227.617 311.042 227.664C311.369 227.711 311.663 227.809 311.924 227.958C312.186 228.098 312.396 228.299 312.554 228.56C312.713 228.821 312.792 229.162 312.792 229.582V233.306C312.792 233.586 312.806 233.791 312.834 233.922C312.872 234.053 312.984 234.118 313.17 234.118C313.273 234.118 313.394 234.095 313.534 234.048V234.972ZM311.602 231.262C311.453 231.374 311.257 231.458 311.014 231.514C310.772 231.561 310.515 231.603 310.244 231.64C309.983 231.668 309.717 231.705 309.446 231.752C309.176 231.789 308.933 231.855 308.718 231.948C308.504 232.041 308.326 232.177 308.186 232.354C308.056 232.522 307.99 232.755 307.99 233.054C307.99 233.25 308.028 233.418 308.102 233.558C308.186 233.689 308.289 233.796 308.41 233.88C308.541 233.964 308.69 234.025 308.858 234.062C309.026 234.099 309.204 234.118 309.39 234.118C309.782 234.118 310.118 234.067 310.398 233.964C310.678 233.852 310.907 233.717 311.084 233.558C311.262 233.39 311.392 233.213 311.476 233.026C311.56 232.83 311.602 232.648 311.602 232.48V231.262ZM315.545 232.718C315.554 232.979 315.615 233.203 315.727 233.39C315.839 233.567 315.983 233.712 316.161 233.824C316.347 233.927 316.553 234.001 316.777 234.048C317.01 234.095 317.248 234.118 317.491 234.118C317.677 234.118 317.873 234.104 318.079 234.076C318.284 234.048 318.471 233.997 318.639 233.922C318.816 233.847 318.961 233.74 319.073 233.6C319.185 233.451 319.241 233.264 319.241 233.04C319.241 232.732 319.124 232.499 318.891 232.34C318.657 232.181 318.363 232.055 318.009 231.962C317.663 231.859 317.285 231.771 316.875 231.696C316.464 231.612 316.081 231.5 315.727 231.36C315.381 231.211 315.092 231.005 314.859 230.744C314.625 230.483 314.509 230.119 314.509 229.652C314.509 229.288 314.588 228.975 314.747 228.714C314.915 228.453 315.125 228.243 315.377 228.084C315.638 227.916 315.927 227.795 316.245 227.72C316.571 227.636 316.893 227.594 317.211 227.594C317.621 227.594 317.999 227.631 318.345 227.706C318.69 227.771 318.993 227.893 319.255 228.07C319.525 228.238 319.74 228.471 319.899 228.77C320.057 229.059 320.151 229.423 320.179 229.862H318.989C318.97 229.629 318.909 229.437 318.807 229.288C318.704 229.129 318.573 229.003 318.415 228.91C318.256 228.817 318.079 228.751 317.883 228.714C317.696 228.667 317.505 228.644 317.309 228.644C317.131 228.644 316.949 228.658 316.763 228.686C316.585 228.714 316.422 228.765 316.273 228.84C316.123 228.905 316.002 228.999 315.909 229.12C315.815 229.232 315.769 229.381 315.769 229.568C315.769 229.773 315.839 229.946 315.979 230.086C316.128 230.217 316.315 230.329 316.539 230.422C316.763 230.506 317.015 230.581 317.295 230.646C317.575 230.702 317.855 230.763 318.135 230.828C318.433 230.893 318.723 230.973 319.003 231.066C319.292 231.159 319.544 231.285 319.759 231.444C319.983 231.593 320.16 231.785 320.291 232.018C320.431 232.251 320.501 232.541 320.501 232.886C320.501 233.325 320.407 233.689 320.221 233.978C320.043 234.267 319.805 234.501 319.507 234.678C319.217 234.855 318.886 234.977 318.513 235.042C318.149 235.117 317.785 235.154 317.421 235.154C317.019 235.154 316.637 235.112 316.273 235.028C315.909 234.944 315.587 234.809 315.307 234.622C315.027 234.426 314.803 234.174 314.635 233.866C314.467 233.549 314.373 233.166 314.355 232.718H315.545ZM327.018 230.688C326.999 230.408 326.934 230.142 326.822 229.89C326.719 229.638 326.574 229.423 326.388 229.246C326.21 229.059 325.996 228.915 325.744 228.812C325.501 228.7 325.23 228.644 324.932 228.644C324.624 228.644 324.344 228.7 324.092 228.812C323.849 228.915 323.639 229.059 323.462 229.246C323.284 229.433 323.144 229.652 323.042 229.904C322.939 230.147 322.878 230.408 322.86 230.688H327.018ZM328.166 232.704C328.007 233.516 327.657 234.127 327.116 234.538C326.574 234.949 325.893 235.154 325.072 235.154C324.493 235.154 323.989 235.061 323.56 234.874C323.14 234.687 322.785 234.426 322.496 234.09C322.206 233.754 321.987 233.353 321.838 232.886C321.698 232.419 321.618 231.911 321.6 231.36C321.6 230.809 321.684 230.305 321.852 229.848C322.02 229.391 322.253 228.994 322.552 228.658C322.86 228.322 323.219 228.061 323.63 227.874C324.05 227.687 324.507 227.594 325.002 227.594C325.646 227.594 326.178 227.729 326.598 228C327.027 228.261 327.368 228.597 327.62 229.008C327.881 229.419 328.058 229.867 328.152 230.352C328.254 230.837 328.296 231.299 328.278 231.738H322.86C322.85 232.055 322.888 232.359 322.972 232.648C323.056 232.928 323.191 233.18 323.378 233.404C323.564 233.619 323.802 233.791 324.092 233.922C324.381 234.053 324.722 234.118 325.114 234.118C325.618 234.118 326.028 234.001 326.346 233.768C326.672 233.535 326.887 233.18 326.99 232.704H328.166ZM338.784 230.688C338.765 230.408 338.7 230.142 338.588 229.89C338.485 229.638 338.34 229.423 338.154 229.246C337.976 229.059 337.762 228.915 337.51 228.812C337.267 228.7 336.996 228.644 336.698 228.644C336.39 228.644 336.11 228.7 335.858 228.812C335.615 228.915 335.405 229.059 335.228 229.246C335.05 229.433 334.91 229.652 334.808 229.904C334.705 230.147 334.644 230.408 334.626 230.688H338.784ZM339.932 232.704C339.773 233.516 339.423 234.127 338.882 234.538C338.34 234.949 337.659 235.154 336.838 235.154C336.259 235.154 335.755 235.061 335.326 234.874C334.906 234.687 334.551 234.426 334.262 234.09C333.972 233.754 333.753 233.353 333.604 232.886C333.464 232.419 333.384 231.911 333.366 231.36C333.366 230.809 333.45 230.305 333.618 229.848C333.786 229.391 334.019 228.994 334.318 228.658C334.626 228.322 334.985 228.061 335.396 227.874C335.816 227.687 336.273 227.594 336.768 227.594C337.412 227.594 337.944 227.729 338.364 228C338.793 228.261 339.134 228.597 339.386 229.008C339.647 229.419 339.824 229.867 339.918 230.352C340.02 230.837 340.062 231.299 340.044 231.738H334.626C334.616 232.055 334.654 232.359 334.738 232.648C334.822 232.928 334.957 233.18 335.144 233.404C335.33 233.619 335.568 233.791 335.858 233.922C336.147 234.053 336.488 234.118 336.88 234.118C337.384 234.118 337.794 234.001 338.112 233.768C338.438 233.535 338.653 233.18 338.756 232.704H339.932ZM341.452 227.762H342.572V228.91H342.6C343.095 228.033 343.879 227.594 344.952 227.594C345.428 227.594 345.825 227.659 346.142 227.79C346.46 227.921 346.716 228.103 346.912 228.336C347.108 228.569 347.244 228.849 347.318 229.176C347.402 229.493 347.444 229.848 347.444 230.24V235H346.254V230.1C346.254 229.652 346.124 229.297 345.862 229.036C345.601 228.775 345.242 228.644 344.784 228.644C344.42 228.644 344.103 228.7 343.832 228.812C343.571 228.924 343.352 229.083 343.174 229.288C342.997 229.493 342.862 229.736 342.768 230.016C342.684 230.287 342.642 230.585 342.642 230.912V235H341.452V227.762ZM351.059 227.762H352.501V228.812H351.059V233.306C351.059 233.446 351.068 233.558 351.087 233.642C351.115 233.726 351.161 233.791 351.227 233.838C351.292 233.885 351.381 233.917 351.493 233.936C351.614 233.945 351.768 233.95 351.955 233.95H352.501V235H351.591C351.283 235 351.017 234.981 350.793 234.944C350.578 234.897 350.401 234.818 350.261 234.706C350.13 234.594 350.032 234.435 349.967 234.23C349.901 234.025 349.869 233.754 349.869 233.418V228.812H348.637V227.762H349.869V225.592H351.059V227.762ZM359.024 230.688C359.005 230.408 358.94 230.142 358.828 229.89C358.725 229.638 358.58 229.423 358.394 229.246C358.216 229.059 358.002 228.915 357.75 228.812C357.507 228.7 357.236 228.644 356.938 228.644C356.63 228.644 356.35 228.7 356.098 228.812C355.855 228.915 355.645 229.059 355.468 229.246C355.29 229.433 355.15 229.652 355.048 229.904C354.945 230.147 354.884 230.408 354.866 230.688H359.024ZM360.172 232.704C360.013 233.516 359.663 234.127 359.122 234.538C358.58 234.949 357.899 235.154 357.078 235.154C356.499 235.154 355.995 235.061 355.566 234.874C355.146 234.687 354.791 234.426 354.502 234.09C354.212 233.754 353.993 233.353 353.844 232.886C353.704 232.419 353.624 231.911 353.606 231.36C353.606 230.809 353.69 230.305 353.858 229.848C354.026 229.391 354.259 228.994 354.558 228.658C354.866 228.322 355.225 228.061 355.636 227.874C356.056 227.687 356.513 227.594 357.008 227.594C357.652 227.594 358.184 227.729 358.604 228C359.033 228.261 359.374 228.597 359.626 229.008C359.887 229.419 360.064 229.867 360.158 230.352C360.26 230.837 360.302 231.299 360.284 231.738H354.866C354.856 232.055 354.894 232.359 354.978 232.648C355.062 232.928 355.197 233.18 355.384 233.404C355.57 233.619 355.808 233.791 356.098 233.922C356.387 234.053 356.728 234.118 357.12 234.118C357.624 234.118 358.034 234.001 358.352 233.768C358.678 233.535 358.893 233.18 358.996 232.704H360.172ZM361.65 227.762H362.77V229.288H362.798C363.087 228.7 363.442 228.266 363.862 227.986C364.282 227.706 364.814 227.575 365.458 227.594V228.854C364.982 228.854 364.576 228.919 364.24 229.05C363.904 229.181 363.633 229.372 363.428 229.624C363.223 229.876 363.073 230.184 362.98 230.548C362.887 230.903 362.84 231.313 362.84 231.78V235H361.65V227.762ZM377.013 234.972C376.807 235.093 376.523 235.154 376.159 235.154C375.851 235.154 375.603 235.07 375.417 234.902C375.239 234.725 375.151 234.44 375.151 234.048C374.824 234.44 374.441 234.725 374.003 234.902C373.573 235.07 373.107 235.154 372.603 235.154C372.276 235.154 371.963 235.117 371.665 235.042C371.375 234.967 371.123 234.851 370.909 234.692C370.694 234.533 370.521 234.328 370.391 234.076C370.269 233.815 370.209 233.502 370.209 233.138C370.209 232.727 370.279 232.391 370.419 232.13C370.559 231.869 370.741 231.659 370.965 231.5C371.198 231.332 371.459 231.206 371.749 231.122C372.047 231.038 372.351 230.968 372.659 230.912C372.985 230.847 373.293 230.8 373.583 230.772C373.881 230.735 374.143 230.688 374.367 230.632C374.591 230.567 374.768 230.478 374.899 230.366C375.029 230.245 375.095 230.072 375.095 229.848C375.095 229.587 375.043 229.377 374.941 229.218C374.847 229.059 374.721 228.938 374.563 228.854C374.413 228.77 374.241 228.714 374.045 228.686C373.858 228.658 373.671 228.644 373.485 228.644C372.981 228.644 372.561 228.742 372.225 228.938C371.889 229.125 371.707 229.484 371.679 230.016H370.489C370.507 229.568 370.601 229.19 370.769 228.882C370.937 228.574 371.161 228.327 371.441 228.14C371.721 227.944 372.038 227.804 372.393 227.72C372.757 227.636 373.144 227.594 373.555 227.594C373.881 227.594 374.203 227.617 374.521 227.664C374.847 227.711 375.141 227.809 375.403 227.958C375.664 228.098 375.874 228.299 376.033 228.56C376.191 228.821 376.271 229.162 376.271 229.582V233.306C376.271 233.586 376.285 233.791 376.313 233.922C376.35 234.053 376.462 234.118 376.649 234.118C376.751 234.118 376.873 234.095 377.013 234.048V234.972ZM375.081 231.262C374.931 231.374 374.735 231.458 374.493 231.514C374.25 231.561 373.993 231.603 373.723 231.64C373.461 231.668 373.195 231.705 372.925 231.752C372.654 231.789 372.411 231.855 372.197 231.948C371.982 232.041 371.805 232.177 371.665 232.354C371.534 232.522 371.469 232.755 371.469 233.054C371.469 233.25 371.506 233.418 371.581 233.558C371.665 233.689 371.767 233.796 371.889 233.88C372.019 233.964 372.169 234.025 372.337 234.062C372.505 234.099 372.682 234.118 372.869 234.118C373.261 234.118 373.597 234.067 373.877 233.964C374.157 233.852 374.385 233.717 374.563 233.558C374.74 233.39 374.871 233.213 374.955 233.026C375.039 232.83 375.081 232.648 375.081 232.48V231.262ZM382.367 227.762H383.487V228.91H383.515C384.009 228.033 384.793 227.594 385.867 227.594C386.343 227.594 386.739 227.659 387.057 227.79C387.374 227.921 387.631 228.103 387.827 228.336C388.023 228.569 388.158 228.849 388.233 229.176C388.317 229.493 388.359 229.848 388.359 230.24V235H387.169V230.1C387.169 229.652 387.038 229.297 386.777 229.036C386.515 228.775 386.156 228.644 385.699 228.644C385.335 228.644 385.017 228.7 384.747 228.812C384.485 228.924 384.266 229.083 384.089 229.288C383.911 229.493 383.776 229.736 383.683 230.016C383.599 230.287 383.557 230.585 383.557 230.912V235H382.367V227.762ZM396.313 235H395.193V233.852H395.165C394.913 234.3 394.591 234.631 394.199 234.846C393.807 235.051 393.345 235.154 392.813 235.154C392.337 235.154 391.94 235.093 391.623 234.972C391.306 234.841 391.049 234.659 390.853 234.426C390.657 234.193 390.517 233.917 390.433 233.6C390.358 233.273 390.321 232.914 390.321 232.522V227.762H391.511V232.662C391.511 233.11 391.642 233.465 391.903 233.726C392.164 233.987 392.524 234.118 392.981 234.118C393.345 234.118 393.658 234.062 393.919 233.95C394.19 233.838 394.414 233.679 394.591 233.474C394.768 233.269 394.899 233.031 394.983 232.76C395.076 232.48 395.123 232.177 395.123 231.85V227.762H396.313V235ZM398.275 227.762H399.395V228.826H399.423C399.965 228.005 400.744 227.594 401.761 227.594C402.209 227.594 402.615 227.687 402.979 227.874C403.343 228.061 403.6 228.378 403.749 228.826C403.992 228.434 404.309 228.131 404.701 227.916C405.103 227.701 405.541 227.594 406.017 227.594C406.381 227.594 406.708 227.636 406.997 227.72C407.296 227.795 407.548 227.916 407.753 228.084C407.968 228.252 408.131 228.471 408.243 228.742C408.365 229.003 408.425 229.321 408.425 229.694V235H407.235V230.254C407.235 230.03 407.217 229.82 407.179 229.624C407.142 229.428 407.072 229.26 406.969 229.12C406.867 228.971 406.722 228.854 406.535 228.77C406.358 228.686 406.125 228.644 405.835 228.644C405.247 228.644 404.785 228.812 404.449 229.148C404.113 229.484 403.945 229.932 403.945 230.492V235H402.755V230.254C402.755 230.021 402.732 229.806 402.685 229.61C402.648 229.414 402.578 229.246 402.475 229.106C402.373 228.957 402.233 228.845 402.055 228.77C401.887 228.686 401.668 228.644 401.397 228.644C401.052 228.644 400.753 228.714 400.501 228.854C400.259 228.994 400.058 229.162 399.899 229.358C399.75 229.554 399.638 229.759 399.563 229.974C399.498 230.179 399.465 230.352 399.465 230.492V235H398.275V227.762ZM410.428 225.004H411.618V228.742H411.646C411.842 228.341 412.15 228.051 412.57 227.874C412.99 227.687 413.452 227.594 413.956 227.594C414.516 227.594 415.001 227.697 415.412 227.902C415.832 228.107 416.177 228.387 416.448 228.742C416.728 229.087 416.938 229.489 417.078 229.946C417.218 230.403 417.288 230.889 417.288 231.402C417.288 231.915 417.218 232.401 417.078 232.858C416.947 233.315 416.742 233.717 416.462 234.062C416.191 234.398 415.846 234.664 415.426 234.86C415.015 235.056 414.535 235.154 413.984 235.154C413.807 235.154 413.606 235.135 413.382 235.098C413.167 235.061 412.953 235 412.738 234.916C412.523 234.832 412.318 234.72 412.122 234.58C411.935 234.431 411.777 234.249 411.646 234.034H411.618V235H410.428V225.004ZM416.028 231.318C416.028 230.982 415.981 230.655 415.888 230.338C415.804 230.011 415.669 229.722 415.482 229.47C415.305 229.218 415.071 229.017 414.782 228.868C414.502 228.719 414.171 228.644 413.788 228.644C413.387 228.644 413.046 228.723 412.766 228.882C412.486 229.041 412.257 229.251 412.08 229.512C411.903 229.764 411.772 230.053 411.688 230.38C411.613 230.707 411.576 231.038 411.576 231.374C411.576 231.729 411.618 232.074 411.702 232.41C411.786 232.737 411.917 233.026 412.094 233.278C412.281 233.53 412.519 233.735 412.808 233.894C413.097 234.043 413.447 234.118 413.858 234.118C414.269 234.118 414.609 234.039 414.88 233.88C415.16 233.721 415.384 233.511 415.552 233.25C415.72 232.989 415.841 232.69 415.916 232.354C415.991 232.018 416.028 231.673 416.028 231.318ZM423.886 230.688C423.867 230.408 423.802 230.142 423.69 229.89C423.587 229.638 423.442 229.423 423.256 229.246C423.078 229.059 422.864 228.915 422.612 228.812C422.369 228.7 422.098 228.644 421.8 228.644C421.492 228.644 421.212 228.7 420.96 228.812C420.717 228.915 420.507 229.059 420.33 229.246C420.152 229.433 420.012 229.652 419.91 229.904C419.807 230.147 419.746 230.408 419.728 230.688H423.886ZM425.034 232.704C424.875 233.516 424.525 234.127 423.984 234.538C423.442 234.949 422.761 235.154 421.94 235.154C421.361 235.154 420.857 235.061 420.428 234.874C420.008 234.687 419.653 234.426 419.364 234.09C419.074 233.754 418.855 233.353 418.706 232.886C418.566 232.419 418.486 231.911 418.468 231.36C418.468 230.809 418.552 230.305 418.72 229.848C418.888 229.391 419.121 228.994 419.42 228.658C419.728 228.322 420.087 228.061 420.498 227.874C420.918 227.687 421.375 227.594 421.87 227.594C422.514 227.594 423.046 227.729 423.466 228C423.895 228.261 424.236 228.597 424.488 229.008C424.749 229.419 424.926 229.867 425.02 230.352C425.122 230.837 425.164 231.299 425.146 231.738H419.728C419.718 232.055 419.756 232.359 419.84 232.648C419.924 232.928 420.059 233.18 420.246 233.404C420.432 233.619 420.67 233.791 420.96 233.922C421.249 234.053 421.59 234.118 421.982 234.118C422.486 234.118 422.896 234.001 423.214 233.768C423.54 233.535 423.755 233.18 423.858 232.704H425.034ZM426.512 227.762H427.632V229.288H427.66C427.95 228.7 428.304 228.266 428.724 227.986C429.144 227.706 429.676 227.575 430.32 227.594V228.854C429.844 228.854 429.438 228.919 429.102 229.05C428.766 229.181 428.496 229.372 428.29 229.624C428.085 229.876 427.936 230.184 427.842 230.548C427.749 230.903 427.702 231.313 427.702 231.78V235H426.512V227.762ZM435.505 225.004H436.695V228.742H436.723C436.919 228.341 437.227 228.051 437.647 227.874C438.067 227.687 438.529 227.594 439.033 227.594C439.593 227.594 440.078 227.697 440.489 227.902C440.909 228.107 441.254 228.387 441.525 228.742C441.805 229.087 442.015 229.489 442.155 229.946C442.295 230.403 442.365 230.889 442.365 231.402C442.365 231.915 442.295 232.401 442.155 232.858C442.024 233.315 441.819 233.717 441.539 234.062C441.268 234.398 440.923 234.664 440.503 234.86C440.092 235.056 439.611 235.154 439.061 235.154C438.883 235.154 438.683 235.135 438.459 235.098C438.244 235.061 438.029 235 437.815 234.916C437.6 234.832 437.395 234.72 437.199 234.58C437.012 234.431 436.853 234.249 436.723 234.034H436.695V235H435.505V225.004ZM441.105 231.318C441.105 230.982 441.058 230.655 440.965 230.338C440.881 230.011 440.745 229.722 440.559 229.47C440.381 229.218 440.148 229.017 439.859 228.868C439.579 228.719 439.247 228.644 438.865 228.644C438.463 228.644 438.123 228.723 437.843 228.882C437.563 229.041 437.334 229.251 437.157 229.512C436.979 229.764 436.849 230.053 436.765 230.38C436.69 230.707 436.653 231.038 436.653 231.374C436.653 231.729 436.695 232.074 436.779 232.41C436.863 232.737 436.993 233.026 437.171 233.278C437.357 233.53 437.595 233.735 437.885 233.894C438.174 234.043 438.524 234.118 438.935 234.118C439.345 234.118 439.686 234.039 439.957 233.88C440.237 233.721 440.461 233.511 440.629 233.25C440.797 232.989 440.918 232.69 440.993 232.354C441.067 232.018 441.105 231.673 441.105 231.318ZM448.963 230.688C448.944 230.408 448.879 230.142 448.767 229.89C448.664 229.638 448.519 229.423 448.333 229.246C448.155 229.059 447.941 228.915 447.689 228.812C447.446 228.7 447.175 228.644 446.877 228.644C446.569 228.644 446.289 228.7 446.037 228.812C445.794 228.915 445.584 229.059 445.407 229.246C445.229 229.433 445.089 229.652 444.987 229.904C444.884 230.147 444.823 230.408 444.805 230.688H448.963ZM450.111 232.704C449.952 233.516 449.602 234.127 449.061 234.538C448.519 234.949 447.838 235.154 447.017 235.154C446.438 235.154 445.934 235.061 445.505 234.874C445.085 234.687 444.73 234.426 444.441 234.09C444.151 233.754 443.932 233.353 443.783 232.886C443.643 232.419 443.563 231.911 443.545 231.36C443.545 230.809 443.629 230.305 443.797 229.848C443.965 229.391 444.198 228.994 444.497 228.658C444.805 228.322 445.164 228.061 445.575 227.874C445.995 227.687 446.452 227.594 446.947 227.594C447.591 227.594 448.123 227.729 448.543 228C448.972 228.261 449.313 228.597 449.565 229.008C449.826 229.419 450.003 229.867 450.097 230.352C450.199 230.837 450.241 231.299 450.223 231.738H444.805C444.795 232.055 444.833 232.359 444.917 232.648C445.001 232.928 445.136 233.18 445.323 233.404C445.509 233.619 445.747 233.791 446.037 233.922C446.326 234.053 446.667 234.118 447.059 234.118C447.563 234.118 447.973 234.001 448.291 233.768C448.617 233.535 448.832 233.18 448.935 232.704H450.111ZM453.283 227.762H454.725V228.812H453.283V233.306C453.283 233.446 453.292 233.558 453.311 233.642C453.339 233.726 453.386 233.791 453.451 233.838C453.516 233.885 453.605 233.917 453.717 233.936C453.838 233.945 453.992 233.95 454.179 233.95H454.725V235H453.815C453.507 235 453.241 234.981 453.017 234.944C452.802 234.897 452.625 234.818 452.485 234.706C452.354 234.594 452.256 234.435 452.191 234.23C452.126 234.025 452.093 233.754 452.093 233.418V228.812H450.861V227.762H452.093V225.592H453.283V227.762ZM463.39 235H462.13L460.66 229.246H460.632L459.176 235H457.888L455.564 227.762H456.88L458.518 233.684H458.546L460.002 227.762H461.304L462.816 233.684H462.844L464.468 227.762H465.7L463.39 235ZM472.033 230.688C472.014 230.408 471.949 230.142 471.837 229.89C471.734 229.638 471.589 229.423 471.403 229.246C471.225 229.059 471.011 228.915 470.759 228.812C470.516 228.7 470.245 228.644 469.947 228.644C469.639 228.644 469.359 228.7 469.107 228.812C468.864 228.915 468.654 229.059 468.477 229.246C468.299 229.433 468.159 229.652 468.057 229.904C467.954 230.147 467.893 230.408 467.875 230.688H472.033ZM473.181 232.704C473.022 233.516 472.672 234.127 472.131 234.538C471.589 234.949 470.908 235.154 470.087 235.154C469.508 235.154 469.004 235.061 468.575 234.874C468.155 234.687 467.8 234.426 467.511 234.09C467.221 233.754 467.002 233.353 466.853 232.886C466.713 232.419 466.633 231.911 466.615 231.36C466.615 230.809 466.699 230.305 466.867 229.848C467.035 229.391 467.268 228.994 467.567 228.658C467.875 228.322 468.234 228.061 468.645 227.874C469.065 227.687 469.522 227.594 470.017 227.594C470.661 227.594 471.193 227.729 471.613 228C472.042 228.261 472.383 228.597 472.635 229.008C472.896 229.419 473.073 229.867 473.167 230.352C473.269 230.837 473.311 231.299 473.293 231.738H467.875C467.865 232.055 467.903 232.359 467.987 232.648C468.071 232.928 468.206 233.18 468.393 233.404C468.579 233.619 468.817 233.791 469.107 233.922C469.396 234.053 469.737 234.118 470.129 234.118C470.633 234.118 471.043 234.001 471.361 233.768C471.687 233.535 471.902 233.18 472.005 232.704H473.181ZM479.727 230.688C479.708 230.408 479.643 230.142 479.531 229.89C479.428 229.638 479.284 229.423 479.097 229.246C478.92 229.059 478.705 228.915 478.453 228.812C478.21 228.7 477.94 228.644 477.641 228.644C477.333 228.644 477.053 228.7 476.801 228.812C476.558 228.915 476.348 229.059 476.171 229.246C475.994 229.433 475.854 229.652 475.751 229.904C475.648 230.147 475.588 230.408 475.569 230.688H479.727ZM480.875 232.704C480.716 233.516 480.366 234.127 479.825 234.538C479.284 234.949 478.602 235.154 477.781 235.154C477.202 235.154 476.698 235.061 476.269 234.874C475.849 234.687 475.494 234.426 475.205 234.09C474.916 233.754 474.696 233.353 474.547 232.886C474.407 232.419 474.328 231.911 474.309 231.36C474.309 230.809 474.393 230.305 474.561 229.848C474.729 229.391 474.962 228.994 475.261 228.658C475.569 228.322 475.928 228.061 476.339 227.874C476.759 227.687 477.216 227.594 477.711 227.594C478.355 227.594 478.887 227.729 479.307 228C479.736 228.261 480.077 228.597 480.329 229.008C480.59 229.419 480.768 229.867 480.861 230.352C480.964 230.837 481.006 231.299 480.987 231.738H475.569C475.56 232.055 475.597 232.359 475.681 232.648C475.765 232.928 475.9 233.18 476.087 233.404C476.274 233.619 476.512 233.791 476.801 233.922C477.09 234.053 477.431 234.118 477.823 234.118C478.327 234.118 478.738 234.001 479.055 233.768C479.382 233.535 479.596 233.18 479.699 232.704H480.875ZM482.396 227.762H483.516V228.91H483.544C484.038 228.033 484.822 227.594 485.896 227.594C486.372 227.594 486.768 227.659 487.086 227.79C487.403 227.921 487.66 228.103 487.856 228.336C488.052 228.569 488.187 228.849 488.262 229.176C488.346 229.493 488.388 229.848 488.388 230.24V235H487.198V230.1C487.198 229.652 487.067 229.297 486.806 229.036C486.544 228.775 486.185 228.644 485.728 228.644C485.364 228.644 485.046 228.7 484.776 228.812C484.514 228.924 484.295 229.083 484.118 229.288C483.94 229.493 483.805 229.736 483.712 230.016C483.628 230.287 483.586 230.585 483.586 230.912V235H482.396V227.762ZM290.984 255H289.794V247.888H287.218V246.936C287.554 246.936 287.881 246.913 288.198 246.866C288.515 246.81 288.8 246.712 289.052 246.572C289.313 246.432 289.533 246.241 289.71 245.998C289.887 245.755 290.009 245.447 290.074 245.074H290.984V255ZM305.334 254.972C305.128 255.093 304.844 255.154 304.48 255.154C304.172 255.154 303.924 255.07 303.738 254.902C303.56 254.725 303.472 254.44 303.472 254.048C303.145 254.44 302.762 254.725 302.324 254.902C301.894 255.07 301.428 255.154 300.924 255.154C300.597 255.154 300.284 255.117 299.986 255.042C299.696 254.967 299.444 254.851 299.23 254.692C299.015 254.533 298.842 254.328 298.712 254.076C298.59 253.815 298.53 253.502 298.53 253.138C298.53 252.727 298.6 252.391 298.74 252.13C298.88 251.869 299.062 251.659 299.286 251.5C299.519 251.332 299.78 251.206 300.07 251.122C300.368 251.038 300.672 250.968 300.98 250.912C301.306 250.847 301.614 250.8 301.904 250.772C302.202 250.735 302.464 250.688 302.688 250.632C302.912 250.567 303.089 250.478 303.22 250.366C303.35 250.245 303.416 250.072 303.416 249.848C303.416 249.587 303.364 249.377 303.262 249.218C303.168 249.059 303.042 248.938 302.884 248.854C302.734 248.77 302.562 248.714 302.366 248.686C302.179 248.658 301.992 248.644 301.806 248.644C301.302 248.644 300.882 248.742 300.546 248.938C300.21 249.125 300.028 249.484 300 250.016H298.81C298.828 249.568 298.922 249.19 299.09 248.882C299.258 248.574 299.482 248.327 299.762 248.14C300.042 247.944 300.359 247.804 300.714 247.72C301.078 247.636 301.465 247.594 301.876 247.594C302.202 247.594 302.524 247.617 302.842 247.664C303.168 247.711 303.462 247.809 303.724 247.958C303.985 248.098 304.195 248.299 304.354 248.56C304.512 248.821 304.592 249.162 304.592 249.582V253.306C304.592 253.586 304.606 253.791 304.634 253.922C304.671 254.053 304.783 254.118 304.97 254.118C305.072 254.118 305.194 254.095 305.334 254.048V254.972ZM303.402 251.262C303.252 251.374 303.056 251.458 302.814 251.514C302.571 251.561 302.314 251.603 302.044 251.64C301.782 251.668 301.516 251.705 301.246 251.752C300.975 251.789 300.732 251.855 300.518 251.948C300.303 252.041 300.126 252.177 299.986 252.354C299.855 252.522 299.79 252.755 299.79 253.054C299.79 253.25 299.827 253.418 299.902 253.558C299.986 253.689 300.088 253.796 300.21 253.88C300.34 253.964 300.49 254.025 300.658 254.062C300.826 254.099 301.003 254.118 301.19 254.118C301.582 254.118 301.918 254.067 302.198 253.964C302.478 253.852 302.706 253.717 302.884 253.558C303.061 253.39 303.192 253.213 303.276 253.026C303.36 252.83 303.402 252.648 303.402 252.48V251.262ZM306.616 247.762H307.736V248.91H307.764C308.259 248.033 309.043 247.594 310.116 247.594C310.592 247.594 310.989 247.659 311.306 247.79C311.624 247.921 311.88 248.103 312.076 248.336C312.272 248.569 312.408 248.849 312.482 249.176C312.566 249.493 312.608 249.848 312.608 250.24V255H311.418V250.1C311.418 249.652 311.288 249.297 311.026 249.036C310.765 248.775 310.406 248.644 309.948 248.644C309.584 248.644 309.267 248.7 308.996 248.812C308.735 248.924 308.516 249.083 308.338 249.288C308.161 249.493 308.026 249.736 307.932 250.016C307.848 250.287 307.806 250.585 307.806 250.912V255H306.616V247.762ZM315.439 251.444C315.439 251.78 315.481 252.111 315.565 252.438C315.658 252.755 315.793 253.04 315.971 253.292C316.157 253.544 316.391 253.745 316.671 253.894C316.96 254.043 317.296 254.118 317.679 254.118C318.08 254.118 318.421 254.039 318.701 253.88C318.981 253.721 319.209 253.516 319.387 253.264C319.564 253.003 319.69 252.709 319.765 252.382C319.849 252.055 319.891 251.724 319.891 251.388C319.891 251.033 319.849 250.693 319.765 250.366C319.681 250.03 319.545 249.736 319.359 249.484C319.181 249.232 318.948 249.031 318.659 248.882C318.369 248.723 318.019 248.644 317.609 248.644C317.207 248.644 316.867 248.723 316.587 248.882C316.307 249.041 316.083 249.251 315.915 249.512C315.747 249.773 315.625 250.072 315.551 250.408C315.476 250.744 315.439 251.089 315.439 251.444ZM321.039 255H319.849V254.02H319.821C319.625 254.421 319.317 254.711 318.897 254.888C318.477 255.065 318.015 255.154 317.511 255.154C316.951 255.154 316.461 255.051 316.041 254.846C315.63 254.641 315.285 254.365 315.005 254.02C314.734 253.675 314.529 253.273 314.389 252.816C314.249 252.359 314.179 251.873 314.179 251.36C314.179 250.847 314.244 250.361 314.375 249.904C314.515 249.447 314.72 249.05 314.991 248.714C315.271 248.369 315.616 248.098 316.027 247.902C316.447 247.697 316.932 247.594 317.483 247.594C317.669 247.594 317.87 247.613 318.085 247.65C318.299 247.687 318.514 247.753 318.729 247.846C318.943 247.93 319.144 248.047 319.331 248.196C319.527 248.336 319.69 248.513 319.821 248.728H319.849V245.004H321.039V255ZM328.096 252.606C328.143 253.091 328.339 253.465 328.684 253.726C329.029 253.987 329.44 254.118 329.916 254.118C330.644 254.118 331.19 253.805 331.554 253.18C331.918 252.545 332.119 251.579 332.156 250.282L332.128 250.254C331.904 250.674 331.587 251.01 331.176 251.262C330.765 251.505 330.317 251.626 329.832 251.626C329.328 251.626 328.88 251.547 328.488 251.388C328.096 251.22 327.765 250.991 327.494 250.702C327.233 250.413 327.032 250.063 326.892 249.652C326.761 249.241 326.696 248.793 326.696 248.308C326.696 247.832 326.775 247.398 326.934 247.006C327.093 246.605 327.317 246.264 327.606 245.984C327.895 245.695 328.241 245.471 328.642 245.312C329.043 245.153 329.482 245.074 329.958 245.074C330.425 245.074 330.863 245.149 331.274 245.298C331.685 245.438 332.044 245.685 332.352 246.04C332.66 246.395 332.903 246.88 333.08 247.496C333.267 248.103 333.36 248.877 333.36 249.82C333.36 251.537 333.085 252.858 332.534 253.782C331.993 254.697 331.12 255.154 329.916 255.154C329.085 255.154 328.395 254.944 327.844 254.524C327.293 254.104 326.981 253.465 326.906 252.606H328.096ZM331.946 248.392C331.946 248.084 331.899 247.795 331.806 247.524C331.722 247.253 331.591 247.015 331.414 246.81C331.246 246.595 331.036 246.427 330.784 246.306C330.532 246.185 330.238 246.124 329.902 246.124C329.547 246.124 329.244 246.189 328.992 246.32C328.749 246.451 328.549 246.628 328.39 246.852C328.241 247.067 328.129 247.314 328.054 247.594C327.989 247.874 327.956 248.168 327.956 248.476C327.956 248.747 328.003 249.008 328.096 249.26C328.199 249.512 328.334 249.736 328.502 249.932C328.679 250.128 328.885 250.287 329.118 250.408C329.361 250.52 329.627 250.576 329.916 250.576C330.224 250.576 330.504 250.52 330.756 250.408C331.008 250.287 331.223 250.128 331.4 249.932C331.577 249.727 331.713 249.493 331.806 249.232C331.899 248.961 331.946 248.681 331.946 248.392ZM336.05 252.606C336.097 253.091 336.293 253.465 336.638 253.726C336.984 253.987 337.394 254.118 337.87 254.118C338.598 254.118 339.144 253.805 339.508 253.18C339.872 252.545 340.073 251.579 340.11 250.282L340.082 250.254C339.858 250.674 339.541 251.01 339.13 251.262C338.72 251.505 338.272 251.626 337.786 251.626C337.282 251.626 336.834 251.547 336.442 251.388C336.05 251.22 335.719 250.991 335.448 250.702C335.187 250.413 334.986 250.063 334.846 249.652C334.716 249.241 334.65 248.793 334.65 248.308C334.65 247.832 334.73 247.398 334.888 247.006C335.047 246.605 335.271 246.264 335.56 245.984C335.85 245.695 336.195 245.471 336.596 245.312C336.998 245.153 337.436 245.074 337.912 245.074C338.379 245.074 338.818 245.149 339.228 245.298C339.639 245.438 339.998 245.685 340.306 246.04C340.614 246.395 340.857 246.88 341.034 247.496C341.221 248.103 341.314 248.877 341.314 249.82C341.314 251.537 341.039 252.858 340.488 253.782C339.947 254.697 339.074 255.154 337.87 255.154C337.04 255.154 336.349 254.944 335.798 254.524C335.248 254.104 334.935 253.465 334.86 252.606H336.05ZM339.9 248.392C339.9 248.084 339.854 247.795 339.76 247.524C339.676 247.253 339.546 247.015 339.368 246.81C339.2 246.595 338.99 246.427 338.738 246.306C338.486 246.185 338.192 246.124 337.856 246.124C337.502 246.124 337.198 246.189 336.946 246.32C336.704 246.451 336.503 246.628 336.344 246.852C336.195 247.067 336.083 247.314 336.008 247.594C335.943 247.874 335.91 248.168 335.91 248.476C335.91 248.747 335.957 249.008 336.05 249.26C336.153 249.512 336.288 249.736 336.456 249.932C336.634 250.128 336.839 250.287 337.072 250.408C337.315 250.52 337.581 250.576 337.87 250.576C338.178 250.576 338.458 250.52 338.71 250.408C338.962 250.287 339.177 250.128 339.354 249.932C339.532 249.727 339.667 249.493 339.76 249.232C339.854 248.961 339.9 248.681 339.9 248.392ZM343.291 253.446H344.845V255H343.291V253.446Z" fill="black" fill-opacity="0.68"/>
</svg>
