<svg width="600" height="140" viewBox="0 0 600 140" fill="none" xmlns="http://www.w3.org/2000/svg">
<rect width="600" height="140" fill="black" fill-opacity="0.04"/>
<path d="M91.248 64.076H92.768V74.22H98.816V75.5H91.248V64.076ZM105.659 70.572C105.637 70.252 105.563 69.948 105.435 69.66C105.317 69.372 105.152 69.1267 104.939 68.924C104.736 68.7107 104.491 68.5453 104.203 68.428C103.925 68.3 103.616 68.236 103.275 68.236C102.923 68.236 102.603 68.3 102.315 68.428C102.037 68.5453 101.797 68.7107 101.595 68.924C101.392 69.1373 101.232 69.388 101.115 69.676C100.997 69.9533 100.928 70.252 100.907 70.572H105.659ZM106.971 72.876C106.789 73.804 106.389 74.5027 105.771 74.972C105.152 75.4413 104.373 75.676 103.435 75.676C102.773 75.676 102.197 75.5693 101.707 75.356C101.227 75.1427 100.821 74.844 100.491 74.46C100.16 74.076 99.9093 73.6173 99.7386 73.084C99.5786 72.5507 99.488 71.9693 99.4666 71.34C99.4666 70.7107 99.5626 70.1347 99.7546 69.612C99.9466 69.0893 100.213 68.636 100.555 68.252C100.907 67.868 101.317 67.5693 101.787 67.356C102.267 67.1427 102.789 67.036 103.355 67.036C104.091 67.036 104.699 67.1907 105.179 67.5C105.669 67.7987 106.059 68.1827 106.347 68.652C106.645 69.1213 106.848 69.6333 106.955 70.188C107.072 70.7427 107.12 71.2707 107.099 71.772H100.907C100.896 72.1347 100.939 72.4813 101.035 72.812C101.131 73.132 101.285 73.42 101.499 73.676C101.712 73.9213 101.984 74.1187 102.315 74.268C102.645 74.4173 103.035 74.492 103.483 74.492C104.059 74.492 104.528 74.3587 104.891 74.092C105.264 73.8253 105.509 73.42 105.627 72.876H106.971ZM115.836 75.468C115.602 75.6067 115.276 75.676 114.86 75.676C114.508 75.676 114.226 75.58 114.012 75.388C113.81 75.1853 113.708 74.86 113.708 74.412C113.335 74.86 112.898 75.1853 112.396 75.388C111.906 75.58 111.372 75.676 110.796 75.676C110.423 75.676 110.066 75.6333 109.724 75.548C109.394 75.4627 109.106 75.3293 108.86 75.148C108.615 74.9667 108.418 74.732 108.268 74.444C108.13 74.1453 108.06 73.788 108.06 73.372C108.06 72.9027 108.14 72.5187 108.3 72.22C108.46 71.9213 108.668 71.6813 108.924 71.5C109.191 71.308 109.49 71.164 109.82 71.068C110.162 70.972 110.508 70.892 110.86 70.828C111.234 70.7533 111.586 70.7 111.916 70.668C112.258 70.6253 112.556 70.572 112.812 70.508C113.068 70.4333 113.271 70.332 113.42 70.204C113.57 70.0653 113.644 69.868 113.644 69.612C113.644 69.3133 113.586 69.0733 113.468 68.892C113.362 68.7107 113.218 68.572 113.036 68.476C112.866 68.38 112.668 68.316 112.444 68.284C112.231 68.252 112.018 68.236 111.804 68.236C111.228 68.236 110.748 68.348 110.364 68.572C109.98 68.7853 109.772 69.196 109.74 69.804H108.38C108.402 69.292 108.508 68.86 108.7 68.508C108.892 68.156 109.148 67.8733 109.468 67.66C109.788 67.436 110.151 67.276 110.556 67.18C110.972 67.084 111.415 67.036 111.884 67.036C112.258 67.036 112.626 67.0627 112.988 67.116C113.362 67.1693 113.698 67.2813 113.996 67.452C114.295 67.612 114.535 67.8413 114.716 68.14C114.898 68.4387 114.988 68.828 114.988 69.308V73.564C114.988 73.884 115.004 74.1187 115.036 74.268C115.079 74.4173 115.207 74.492 115.42 74.492C115.538 74.492 115.676 74.4653 115.836 74.412V75.468ZM113.628 71.228C113.458 71.356 113.234 71.452 112.956 71.516C112.679 71.5693 112.386 71.6173 112.076 71.66C111.778 71.692 111.474 71.7347 111.164 71.788C110.855 71.8307 110.578 71.9053 110.332 72.012C110.087 72.1187 109.884 72.2733 109.724 72.476C109.575 72.668 109.5 72.9347 109.5 73.276C109.5 73.5 109.543 73.692 109.628 73.852C109.724 74.0013 109.842 74.124 109.98 74.22C110.13 74.316 110.3 74.3853 110.492 74.428C110.684 74.4707 110.887 74.492 111.1 74.492C111.548 74.492 111.932 74.4333 112.252 74.316C112.572 74.188 112.834 74.0333 113.036 73.852C113.239 73.66 113.388 73.4573 113.484 73.244C113.58 73.02 113.628 72.812 113.628 72.62V71.228ZM118.094 71.436C118.094 71.82 118.142 72.1987 118.238 72.572C118.345 72.9347 118.499 73.26 118.702 73.548C118.915 73.836 119.182 74.0653 119.502 74.236C119.833 74.4067 120.217 74.492 120.654 74.492C121.113 74.492 121.502 74.4013 121.822 74.22C122.142 74.0387 122.403 73.804 122.606 73.516C122.809 73.2173 122.953 72.8813 123.038 72.508C123.134 72.1347 123.182 71.756 123.182 71.372C123.182 70.9667 123.134 70.5773 123.038 70.204C122.942 69.82 122.787 69.484 122.574 69.196C122.371 68.908 122.105 68.6787 121.774 68.508C121.443 68.3267 121.043 68.236 120.574 68.236C120.115 68.236 119.726 68.3267 119.406 68.508C119.086 68.6893 118.83 68.9293 118.638 69.228C118.446 69.5267 118.307 69.868 118.222 70.252C118.137 70.636 118.094 71.0307 118.094 71.436ZM124.494 75.5H123.134V74.38H123.102C122.878 74.8387 122.526 75.1693 122.046 75.372C121.566 75.5747 121.038 75.676 120.462 75.676C119.822 75.676 119.262 75.5587 118.782 75.324C118.313 75.0893 117.918 74.7747 117.598 74.38C117.289 73.9853 117.054 73.5267 116.894 73.004C116.734 72.4813 116.654 71.9267 116.654 71.34C116.654 70.7533 116.729 70.1987 116.878 69.676C117.038 69.1533 117.273 68.7 117.582 68.316C117.902 67.9213 118.297 67.612 118.766 67.388C119.246 67.1533 119.801 67.036 120.43 67.036C120.643 67.036 120.873 67.0573 121.118 67.1C121.363 67.1427 121.609 67.2173 121.854 67.324C122.099 67.42 122.329 67.5533 122.542 67.724C122.766 67.884 122.953 68.0867 123.102 68.332H123.134V64.076H124.494V75.5ZM128.027 65.74H126.667V64.076H128.027V65.74ZM126.667 67.228H128.027V75.5H126.667V67.228ZM130.133 67.228H131.413V68.54H131.445C132.011 67.5373 132.907 67.036 134.133 67.036C134.677 67.036 135.131 67.1107 135.493 67.26C135.856 67.4093 136.149 67.6173 136.373 67.884C136.597 68.1507 136.752 68.4707 136.837 68.844C136.933 69.2067 136.981 69.612 136.981 70.06V75.5H135.621V69.9C135.621 69.388 135.472 68.9827 135.173 68.684C134.875 68.3853 134.464 68.236 133.941 68.236C133.525 68.236 133.163 68.3 132.853 68.428C132.555 68.556 132.304 68.7373 132.101 68.972C131.899 69.2067 131.744 69.484 131.637 69.804C131.541 70.1133 131.493 70.4547 131.493 70.828V75.5H130.133V67.228ZM146.16 74.796C146.16 76.1507 145.851 77.164 145.232 77.836C144.613 78.508 143.643 78.844 142.32 78.844C141.936 78.844 141.541 78.8013 141.136 78.716C140.741 78.6307 140.379 78.492 140.048 78.3C139.728 78.108 139.461 77.8573 139.248 77.548C139.035 77.2387 138.917 76.86 138.896 76.412H140.256C140.267 76.6573 140.341 76.8653 140.48 77.036C140.629 77.2067 140.805 77.3453 141.008 77.452C141.221 77.5587 141.451 77.6333 141.696 77.676C141.941 77.7293 142.176 77.756 142.4 77.756C142.848 77.756 143.227 77.676 143.536 77.516C143.845 77.3667 144.101 77.1533 144.304 76.876C144.507 76.6093 144.651 76.284 144.736 75.9C144.832 75.516 144.88 75.0947 144.88 74.636V74.092H144.848C144.613 74.604 144.256 74.9827 143.776 75.228C143.307 75.4627 142.805 75.58 142.272 75.58C141.653 75.58 141.115 75.468 140.656 75.244C140.197 75.02 139.813 74.7213 139.504 74.348C139.195 73.964 138.96 73.5213 138.8 73.02C138.651 72.508 138.576 71.9693 138.576 71.404C138.576 70.9133 138.64 70.412 138.768 69.9C138.896 69.3773 139.109 68.908 139.408 68.492C139.707 68.0653 140.101 67.7187 140.592 67.452C141.083 67.1747 141.685 67.036 142.4 67.036C142.923 67.036 143.403 67.1533 143.84 67.388C144.277 67.612 144.619 67.9533 144.864 68.412H144.88V67.228H146.16V74.796ZM142.352 74.396C142.8 74.396 143.179 74.3053 143.488 74.124C143.808 73.932 144.064 73.6867 144.256 73.388C144.448 73.0787 144.587 72.732 144.672 72.348C144.768 71.964 144.816 71.58 144.816 71.196C144.816 70.8333 144.773 70.476 144.688 70.124C144.603 69.772 144.464 69.4573 144.272 69.18C144.091 68.892 143.851 68.6627 143.552 68.492C143.253 68.3213 142.891 68.236 142.464 68.236C142.027 68.236 141.653 68.3213 141.344 68.492C141.035 68.652 140.779 68.8707 140.576 69.148C140.384 69.4253 140.24 69.7453 140.144 70.108C140.059 70.4707 140.016 70.8493 140.016 71.244C140.016 71.6173 140.053 71.9907 140.128 72.364C140.203 72.7373 140.331 73.0787 140.512 73.388C140.693 73.6867 140.933 73.932 141.232 74.124C141.531 74.3053 141.904 74.396 142.352 74.396ZM154.105 65.74H152.745V64.076H154.105V65.74ZM152.745 67.228H154.105V75.5H152.745V67.228ZM161.828 69.884C161.721 69.3613 161.497 68.956 161.156 68.668C160.814 68.38 160.356 68.236 159.78 68.236C159.289 68.236 158.878 68.3267 158.548 68.508C158.217 68.6893 157.95 68.9293 157.748 69.228C157.556 69.5267 157.417 69.8733 157.332 70.268C157.246 70.652 157.204 71.052 157.204 71.468C157.204 71.852 157.246 72.2253 157.332 72.588C157.428 72.9507 157.572 73.276 157.764 73.564C157.956 73.8413 158.206 74.0653 158.516 74.236C158.825 74.4067 159.193 74.492 159.62 74.492C160.292 74.492 160.814 74.316 161.188 73.964C161.572 73.612 161.806 73.116 161.892 72.476H163.284C163.134 73.5 162.75 74.2893 162.132 74.844C161.524 75.3987 160.692 75.676 159.636 75.676C159.006 75.676 158.446 75.5747 157.956 75.372C157.476 75.1693 157.07 74.8813 156.74 74.508C156.42 74.1347 156.174 73.692 156.004 73.18C155.844 72.6573 155.764 72.0867 155.764 71.468C155.764 70.8493 155.844 70.2733 156.004 69.74C156.164 69.196 156.404 68.7267 156.724 68.332C157.054 67.9267 157.465 67.612 157.956 67.388C158.446 67.1533 159.017 67.036 159.668 67.036C160.137 67.036 160.574 67.0947 160.98 67.212C161.396 67.3187 161.758 67.4893 162.068 67.724C162.388 67.9587 162.649 68.2573 162.852 68.62C163.054 68.972 163.182 69.3933 163.236 69.884H161.828ZM165.797 71.372C165.797 71.8733 165.861 72.3213 165.989 72.716C166.128 73.1 166.315 73.4253 166.549 73.692C166.784 73.948 167.056 74.1453 167.365 74.284C167.685 74.4227 168.021 74.492 168.373 74.492C168.725 74.492 169.056 74.4227 169.365 74.284C169.685 74.1453 169.963 73.948 170.197 73.692C170.432 73.4253 170.613 73.1 170.741 72.716C170.88 72.3213 170.949 71.8733 170.949 71.372C170.949 70.8707 170.88 70.428 170.741 70.044C170.613 69.6493 170.432 69.3187 170.197 69.052C169.963 68.7853 169.685 68.5827 169.365 68.444C169.056 68.3053 168.725 68.236 168.373 68.236C168.021 68.236 167.685 68.3053 167.365 68.444C167.056 68.5827 166.784 68.7853 166.549 69.052C166.315 69.3187 166.128 69.6493 165.989 70.044C165.861 70.428 165.797 70.8707 165.797 71.372ZM164.357 71.372C164.357 70.764 164.443 70.1987 164.613 69.676C164.784 69.1427 165.04 68.684 165.381 68.3C165.723 67.9053 166.144 67.596 166.645 67.372C167.147 67.148 167.723 67.036 168.373 67.036C169.035 67.036 169.611 67.148 170.101 67.372C170.603 67.596 171.024 67.9053 171.365 68.3C171.707 68.684 171.963 69.1427 172.133 69.676C172.304 70.1987 172.389 70.764 172.389 71.372C172.389 71.98 172.304 72.5453 172.133 73.068C171.963 73.5907 171.707 74.0493 171.365 74.444C171.024 74.828 170.603 75.132 170.101 75.356C169.611 75.5693 169.035 75.676 168.373 75.676C167.723 75.676 167.147 75.5693 166.645 75.356C166.144 75.132 165.723 74.828 165.381 74.444C165.04 74.0493 164.784 73.5907 164.613 73.068C164.443 72.5453 164.357 71.98 164.357 71.372ZM173.993 67.228H175.273V68.54H175.305C175.87 67.5373 176.766 67.036 177.993 67.036C178.537 67.036 178.99 67.1107 179.353 67.26C179.715 67.4093 180.009 67.6173 180.233 67.884C180.457 68.1507 180.611 68.4707 180.697 68.844C180.793 69.2067 180.841 69.612 180.841 70.06V75.5H179.481V69.9C179.481 69.388 179.331 68.9827 179.033 68.684C178.734 68.3853 178.323 68.236 177.801 68.236C177.385 68.236 177.022 68.3 176.713 68.428C176.414 68.556 176.163 68.7373 175.961 68.972C175.758 69.2067 175.603 69.484 175.497 69.804C175.401 70.1133 175.353 70.4547 175.353 70.828V75.5H173.993V67.228Z" fill="black" fill-opacity="0.68"/>
<mask id="path-2-inside-1_68467_43725" fill="white">
<path d="M270 40H510V100H270V40Z"/>
</mask>
<path d="M270 40H510V100H270V40Z" fill="black" fill-opacity="0.04"/>
<path d="M510 100V99H270V100V101H510V100Z" fill="black" fill-opacity="0.2" mask="url(#path-2-inside-1_68467_43725)"/>
<path fill-rule="evenodd" clip-rule="evenodd" d="M307.205 67.2978H301.888V64.541C301.888 62.4286 300.172 60.7002 298.06 60.7002C295.948 60.7002 294.232 62.4286 294.232 64.541V67.2978H288.76C288.328 67.2979 287.929 67.5305 287.716 67.9068C287.503 68.283 287.509 68.7447 287.731 69.1155L292.36 79.3002H303.52L308.234 69.1154C308.342 68.9351 308.44 68.7239 308.44 68.498C308.44 67.8352 307.868 67.2978 307.205 67.2978ZM289.96 69.6982H294.16L294.622 72.6988H291.375L289.96 69.6982ZM293.56 77.4998L292.12 74.4992H294.899L295.36 77.4998H293.56ZM298.96 77.4998H297.04L296.56 74.4992H299.44L298.96 77.4998ZM299.68 72.6988H296.44L295.96 69.6982H300.04L299.68 72.6988ZM300.088 67.2978H296.033L296.03 64.5411C296.027 63.8137 296.413 63.1401 297.042 62.7754C297.671 62.4107 298.448 62.4107 299.077 62.7754C299.706 63.1401 300.092 63.8137 300.089 64.5411L300.088 67.2978ZM302.44 77.4998H300.633L301.12 74.4992H303.88L302.44 77.4998ZM304.625 72.6988H301.343L301.72 69.6982H305.924L304.625 72.6988Z" fill="black" fill-opacity="0.68"/>
<path d="M322.848 66.656C323.232 66.656 323.605 66.624 323.968 66.56C324.331 66.496 324.656 66.3893 324.944 66.24C325.243 66.0907 325.493 65.8987 325.696 65.664C325.909 65.4293 326.048 65.1413 326.112 64.8H327.6V76H325.6V68.096H322.848V66.656Z" fill="black"/>
<path d="M438.5 71.125V68.875H423.5V71.125H438.5Z" fill="black"/>
<line y1="-0.5" x2="20" y2="-0.5" transform="matrix(0 -1 -1 0 455 80)" stroke="black" stroke-opacity="0.2"/>
<path d="M487.5 71.25V68.75H481.25V62.5H478.75V68.75H472.5V71.25H478.75V77.5H481.25V71.25H487.5Z" fill="black"/>
</svg>
