<svg width="600" height="419" viewBox="0 0 600 419" fill="none" xmlns="http://www.w3.org/2000/svg">
<rect width="600" height="419" fill="black" fill-opacity="0.04"/>
<path d="M115.856 140.92C115.771 140.099 115.472 139.507 114.96 139.144C114.459 138.771 113.813 138.584 113.024 138.584C112.704 138.584 112.389 138.616 112.08 138.68C111.771 138.744 111.493 138.851 111.248 139C111.013 139.149 110.821 139.352 110.672 139.608C110.533 139.853 110.464 140.163 110.464 140.536C110.464 140.888 110.565 141.176 110.768 141.4C110.981 141.613 111.259 141.789 111.6 141.928C111.952 142.067 112.347 142.184 112.784 142.28C113.221 142.365 113.664 142.461 114.112 142.568C114.571 142.675 115.019 142.803 115.456 142.952C115.893 143.091 116.283 143.283 116.624 143.528C116.976 143.773 117.253 144.083 117.456 144.456C117.669 144.829 117.776 145.299 117.776 145.864C117.776 146.472 117.637 146.995 117.36 147.432C117.093 147.859 116.747 148.211 116.32 148.488C115.893 148.755 115.413 148.947 114.88 149.064C114.357 149.192 113.835 149.256 113.312 149.256C112.672 149.256 112.064 149.176 111.488 149.016C110.923 148.856 110.421 148.616 109.984 148.296C109.557 147.965 109.216 147.549 108.96 147.048C108.715 146.536 108.592 145.933 108.592 145.24H110.032C110.032 145.72 110.123 146.136 110.304 146.488C110.496 146.829 110.741 147.112 111.04 147.336C111.349 147.56 111.707 147.725 112.112 147.832C112.517 147.939 112.933 147.992 113.36 147.992C113.701 147.992 114.043 147.96 114.384 147.896C114.736 147.832 115.051 147.725 115.328 147.576C115.605 147.416 115.829 147.203 116 146.936C116.171 146.669 116.256 146.328 116.256 145.912C116.256 145.517 116.149 145.197 115.936 144.952C115.733 144.707 115.456 144.509 115.104 144.36C114.763 144.2 114.373 144.072 113.936 143.976C113.499 143.88 113.051 143.784 112.592 143.688C112.144 143.581 111.701 143.464 111.264 143.336C110.827 143.197 110.432 143.021 110.08 142.808C109.739 142.584 109.461 142.301 109.248 141.96C109.045 141.608 108.944 141.171 108.944 140.648C108.944 140.072 109.061 139.576 109.296 139.16C109.531 138.733 109.84 138.387 110.224 138.12C110.619 137.843 111.061 137.64 111.552 137.512C112.053 137.373 112.565 137.304 113.088 137.304C113.675 137.304 114.219 137.373 114.72 137.512C115.221 137.651 115.659 137.869 116.032 138.168C116.416 138.467 116.715 138.845 116.928 139.304C117.152 139.752 117.275 140.291 117.296 140.92H115.856ZM125.143 144.072C125.122 143.752 125.047 143.448 124.919 143.16C124.802 142.872 124.636 142.627 124.423 142.424C124.22 142.211 123.975 142.045 123.687 141.928C123.41 141.8 123.1 141.736 122.759 141.736C122.407 141.736 122.087 141.8 121.799 141.928C121.522 142.045 121.282 142.211 121.079 142.424C120.876 142.637 120.716 142.888 120.599 143.176C120.482 143.453 120.412 143.752 120.391 144.072H125.143ZM126.455 146.376C126.274 147.304 125.874 148.003 125.255 148.472C124.636 148.941 123.858 149.176 122.919 149.176C122.258 149.176 121.682 149.069 121.191 148.856C120.711 148.643 120.306 148.344 119.975 147.96C119.644 147.576 119.394 147.117 119.223 146.584C119.063 146.051 118.972 145.469 118.951 144.84C118.951 144.211 119.047 143.635 119.239 143.112C119.431 142.589 119.698 142.136 120.039 141.752C120.391 141.368 120.802 141.069 121.271 140.856C121.751 140.643 122.274 140.536 122.839 140.536C123.575 140.536 124.183 140.691 124.663 141C125.154 141.299 125.543 141.683 125.831 142.152C126.13 142.621 126.332 143.133 126.439 143.688C126.556 144.243 126.604 144.771 126.583 145.272H120.391C120.38 145.635 120.423 145.981 120.519 146.312C120.615 146.632 120.77 146.92 120.983 147.176C121.196 147.421 121.468 147.619 121.799 147.768C122.13 147.917 122.519 147.992 122.967 147.992C123.543 147.992 124.012 147.859 124.375 147.592C124.748 147.325 124.994 146.92 125.111 146.376H126.455ZM133.609 143.384C133.502 142.861 133.278 142.456 132.937 142.168C132.595 141.88 132.137 141.736 131.561 141.736C131.07 141.736 130.659 141.827 130.329 142.008C129.998 142.189 129.731 142.429 129.529 142.728C129.337 143.027 129.198 143.373 129.113 143.768C129.027 144.152 128.985 144.552 128.985 144.968C128.985 145.352 129.027 145.725 129.113 146.088C129.209 146.451 129.353 146.776 129.545 147.064C129.737 147.341 129.987 147.565 130.297 147.736C130.606 147.907 130.974 147.992 131.401 147.992C132.073 147.992 132.595 147.816 132.969 147.464C133.353 147.112 133.587 146.616 133.673 145.976H135.065C134.915 147 134.531 147.789 133.913 148.344C133.305 148.899 132.473 149.176 131.417 149.176C130.787 149.176 130.227 149.075 129.737 148.872C129.257 148.669 128.851 148.381 128.521 148.008C128.201 147.635 127.955 147.192 127.785 146.68C127.625 146.157 127.545 145.587 127.545 144.968C127.545 144.349 127.625 143.773 127.785 143.24C127.945 142.696 128.185 142.227 128.505 141.832C128.835 141.427 129.246 141.112 129.737 140.888C130.227 140.653 130.798 140.536 131.449 140.536C131.918 140.536 132.355 140.595 132.761 140.712C133.177 140.819 133.539 140.989 133.849 141.224C134.169 141.459 134.43 141.757 134.633 142.12C134.835 142.472 134.963 142.893 135.017 143.384H133.609ZM143.435 149H142.155V147.688H142.123C141.835 148.2 141.467 148.579 141.019 148.824C140.571 149.059 140.043 149.176 139.435 149.176C138.891 149.176 138.437 149.107 138.075 148.968C137.712 148.819 137.419 148.611 137.195 148.344C136.971 148.077 136.811 147.763 136.715 147.4C136.629 147.027 136.587 146.616 136.587 146.168V140.728H137.947V146.328C137.947 146.84 138.096 147.245 138.395 147.544C138.693 147.843 139.104 147.992 139.627 147.992C140.043 147.992 140.4 147.928 140.699 147.8C141.008 147.672 141.264 147.491 141.467 147.256C141.669 147.021 141.819 146.749 141.915 146.44C142.021 146.12 142.075 145.773 142.075 145.4V140.728H143.435V149ZM145.429 140.728H146.709V142.472H146.741C147.072 141.8 147.477 141.304 147.957 140.984C148.437 140.664 149.045 140.515 149.781 140.536V141.976C149.237 141.976 148.773 142.051 148.389 142.2C148.005 142.349 147.696 142.568 147.461 142.856C147.226 143.144 147.056 143.496 146.949 143.912C146.842 144.317 146.789 144.787 146.789 145.32V149H145.429V140.728ZM152.245 139.24H150.885V137.576H152.245V139.24ZM150.885 140.728H152.245V149H150.885V140.728ZM156.24 140.728H157.888V141.928H156.24V147.064C156.24 147.224 156.251 147.352 156.272 147.448C156.304 147.544 156.357 147.619 156.432 147.672C156.507 147.725 156.608 147.763 156.736 147.784C156.875 147.795 157.051 147.8 157.264 147.8H157.888V149H156.848C156.496 149 156.192 148.979 155.936 148.936C155.691 148.883 155.488 148.792 155.328 148.664C155.179 148.536 155.067 148.355 154.992 148.12C154.917 147.885 154.88 147.576 154.88 147.192V141.928H153.472V140.728H154.88V138.248H156.24V140.728ZM162.647 150.104C162.487 150.509 162.327 150.851 162.167 151.128C162.018 151.405 161.847 151.629 161.655 151.8C161.474 151.981 161.266 152.109 161.031 152.184C160.807 152.269 160.546 152.312 160.247 152.312C160.087 152.312 159.927 152.301 159.767 152.28C159.607 152.259 159.452 152.221 159.303 152.168V150.92C159.42 150.973 159.554 151.016 159.703 151.048C159.863 151.091 159.996 151.112 160.103 151.112C160.38 151.112 160.61 151.043 160.791 150.904C160.983 150.776 161.127 150.589 161.223 150.344L161.783 148.952L158.503 140.728H160.039L162.455 147.496H162.487L164.807 140.728H166.247L162.647 150.104ZM171.852 140.728H173.132V141.944H173.164C173.783 141.005 174.673 140.536 175.836 140.536C176.348 140.536 176.812 140.643 177.228 140.856C177.644 141.069 177.937 141.432 178.108 141.944C178.385 141.496 178.748 141.149 179.196 140.904C179.655 140.659 180.156 140.536 180.7 140.536C181.116 140.536 181.489 140.584 181.82 140.68C182.161 140.765 182.449 140.904 182.684 141.096C182.929 141.288 183.116 141.539 183.244 141.848C183.383 142.147 183.452 142.509 183.452 142.936V149H182.092V143.576C182.092 143.32 182.071 143.08 182.028 142.856C181.985 142.632 181.905 142.44 181.788 142.28C181.671 142.109 181.505 141.976 181.292 141.88C181.089 141.784 180.823 141.736 180.492 141.736C179.82 141.736 179.292 141.928 178.908 142.312C178.524 142.696 178.332 143.208 178.332 143.848V149H176.972V143.576C176.972 143.309 176.945 143.064 176.892 142.84C176.849 142.616 176.769 142.424 176.652 142.264C176.535 142.093 176.375 141.965 176.172 141.88C175.98 141.784 175.729 141.736 175.42 141.736C175.025 141.736 174.684 141.816 174.396 141.976C174.119 142.136 173.889 142.328 173.708 142.552C173.537 142.776 173.409 143.011 173.324 143.256C173.249 143.491 173.212 143.688 173.212 143.848V149H171.852V140.728ZM192.821 148.968C192.586 149.107 192.261 149.176 191.845 149.176C191.493 149.176 191.21 149.08 190.997 148.888C190.794 148.685 190.693 148.36 190.693 147.912C190.319 148.36 189.882 148.685 189.381 148.888C188.89 149.08 188.357 149.176 187.781 149.176C187.407 149.176 187.05 149.133 186.709 149.048C186.378 148.963 186.09 148.829 185.845 148.648C185.599 148.467 185.402 148.232 185.253 147.944C185.114 147.645 185.045 147.288 185.045 146.872C185.045 146.403 185.125 146.019 185.285 145.72C185.445 145.421 185.653 145.181 185.909 145C186.175 144.808 186.474 144.664 186.805 144.568C187.146 144.472 187.493 144.392 187.845 144.328C188.218 144.253 188.57 144.2 188.901 144.168C189.242 144.125 189.541 144.072 189.797 144.008C190.053 143.933 190.255 143.832 190.405 143.704C190.554 143.565 190.629 143.368 190.629 143.112C190.629 142.813 190.57 142.573 190.453 142.392C190.346 142.211 190.202 142.072 190.021 141.976C189.85 141.88 189.653 141.816 189.429 141.784C189.215 141.752 189.002 141.736 188.789 141.736C188.213 141.736 187.733 141.848 187.349 142.072C186.965 142.285 186.757 142.696 186.725 143.304H185.365C185.386 142.792 185.493 142.36 185.685 142.008C185.877 141.656 186.133 141.373 186.453 141.16C186.773 140.936 187.135 140.776 187.541 140.68C187.957 140.584 188.399 140.536 188.869 140.536C189.242 140.536 189.61 140.563 189.973 140.616C190.346 140.669 190.682 140.781 190.981 140.952C191.279 141.112 191.519 141.341 191.701 141.64C191.882 141.939 191.973 142.328 191.973 142.808V147.064C191.973 147.384 191.989 147.619 192.021 147.768C192.063 147.917 192.191 147.992 192.405 147.992C192.522 147.992 192.661 147.965 192.821 147.912V148.968ZM190.613 144.728C190.442 144.856 190.218 144.952 189.941 145.016C189.663 145.069 189.37 145.117 189.061 145.16C188.762 145.192 188.458 145.235 188.149 145.288C187.839 145.331 187.562 145.405 187.317 145.512C187.071 145.619 186.869 145.773 186.709 145.976C186.559 146.168 186.485 146.435 186.485 146.776C186.485 147 186.527 147.192 186.613 147.352C186.709 147.501 186.826 147.624 186.965 147.72C187.114 147.816 187.285 147.885 187.477 147.928C187.669 147.971 187.871 147.992 188.085 147.992C188.533 147.992 188.917 147.933 189.237 147.816C189.557 147.688 189.818 147.533 190.021 147.352C190.223 147.16 190.373 146.957 190.469 146.744C190.565 146.52 190.613 146.312 190.613 146.12V144.728ZM194.039 140.728H195.319V142.472H195.351C195.681 141.8 196.087 141.304 196.567 140.984C197.047 140.664 197.655 140.515 198.391 140.536V141.976C197.847 141.976 197.383 142.051 196.999 142.2C196.615 142.349 196.305 142.568 196.071 142.856C195.836 143.144 195.665 143.496 195.559 143.912C195.452 144.317 195.399 144.787 195.399 145.32V149H194.039V140.728ZM206.098 148.296C206.098 149.651 205.788 150.664 205.17 151.336C204.551 152.008 203.58 152.344 202.258 152.344C201.874 152.344 201.479 152.301 201.074 152.216C200.679 152.131 200.316 151.992 199.986 151.8C199.666 151.608 199.399 151.357 199.186 151.048C198.972 150.739 198.855 150.36 198.834 149.912H200.194C200.204 150.157 200.279 150.365 200.418 150.536C200.567 150.707 200.743 150.845 200.946 150.952C201.159 151.059 201.388 151.133 201.634 151.176C201.879 151.229 202.114 151.256 202.338 151.256C202.786 151.256 203.164 151.176 203.474 151.016C203.783 150.867 204.039 150.653 204.242 150.376C204.444 150.109 204.588 149.784 204.674 149.4C204.77 149.016 204.818 148.595 204.818 148.136V147.592H204.786C204.551 148.104 204.194 148.483 203.714 148.728C203.244 148.963 202.743 149.08 202.21 149.08C201.591 149.08 201.052 148.968 200.594 148.744C200.135 148.52 199.751 148.221 199.442 147.848C199.132 147.464 198.898 147.021 198.738 146.52C198.588 146.008 198.514 145.469 198.514 144.904C198.514 144.413 198.578 143.912 198.706 143.4C198.834 142.877 199.047 142.408 199.346 141.992C199.644 141.565 200.039 141.219 200.53 140.952C201.02 140.675 201.623 140.536 202.338 140.536C202.86 140.536 203.34 140.653 203.778 140.888C204.215 141.112 204.556 141.453 204.802 141.912H204.818V140.728H206.098V148.296ZM202.29 147.896C202.738 147.896 203.116 147.805 203.426 147.624C203.746 147.432 204.002 147.187 204.194 146.888C204.386 146.579 204.524 146.232 204.61 145.848C204.706 145.464 204.754 145.08 204.754 144.696C204.754 144.333 204.711 143.976 204.626 143.624C204.54 143.272 204.402 142.957 204.21 142.68C204.028 142.392 203.788 142.163 203.49 141.992C203.191 141.821 202.828 141.736 202.402 141.736C201.964 141.736 201.591 141.821 201.282 141.992C200.972 142.152 200.716 142.371 200.514 142.648C200.322 142.925 200.178 143.245 200.082 143.608C199.996 143.971 199.954 144.349 199.954 144.744C199.954 145.117 199.991 145.491 200.066 145.864C200.14 146.237 200.268 146.579 200.45 146.888C200.631 147.187 200.871 147.432 201.17 147.624C201.468 147.805 201.842 147.896 202.29 147.896ZM209.589 139.24H208.229V137.576H209.589V139.24ZM208.229 140.728H209.589V149H208.229V140.728ZM211.696 140.728H212.976V142.04H213.008C213.573 141.037 214.469 140.536 215.696 140.536C216.24 140.536 216.693 140.611 217.056 140.76C217.419 140.909 217.712 141.117 217.936 141.384C218.16 141.651 218.315 141.971 218.4 142.344C218.496 142.707 218.544 143.112 218.544 143.56V149H217.184V143.4C217.184 142.888 217.035 142.483 216.736 142.184C216.437 141.885 216.027 141.736 215.504 141.736C215.088 141.736 214.725 141.8 214.416 141.928C214.117 142.056 213.867 142.237 213.664 142.472C213.461 142.707 213.307 142.984 213.2 143.304C213.104 143.613 213.056 143.955 213.056 144.328V149H211.696V140.728ZM220.331 146.024H228.395V147.112H220.331V146.024ZM228.395 143.88H220.331V142.792H228.395V143.88ZM232.996 138.856H229.188V137.576H238.324V138.856H234.516V149H232.996V138.856ZM237.851 140.728H239.131V142.472H239.163C239.494 141.8 239.899 141.304 240.379 140.984C240.859 140.664 241.467 140.515 242.203 140.536V141.976C241.659 141.976 241.195 142.051 240.811 142.2C240.427 142.349 240.118 142.568 239.883 142.856C239.648 143.144 239.478 143.496 239.371 143.912C239.264 144.317 239.211 144.787 239.211 145.32V149H237.851V140.728ZM250.075 149H248.795V147.688H248.763C248.475 148.2 248.107 148.579 247.659 148.824C247.211 149.059 246.683 149.176 246.075 149.176C245.531 149.176 245.078 149.107 244.715 148.968C244.352 148.819 244.059 148.611 243.835 148.344C243.611 148.077 243.451 147.763 243.355 147.4C243.27 147.027 243.227 146.616 243.227 146.168V140.728H244.587V146.328C244.587 146.84 244.736 147.245 245.035 147.544C245.334 147.843 245.744 147.992 246.267 147.992C246.683 147.992 247.04 147.928 247.339 147.8C247.648 147.672 247.904 147.491 248.107 147.256C248.31 147.021 248.459 146.749 248.555 146.44C248.662 146.12 248.715 145.773 248.715 145.4V140.728H250.075V149ZM257.862 144.072C257.84 143.752 257.766 143.448 257.638 143.16C257.52 142.872 257.355 142.627 257.142 142.424C256.939 142.211 256.694 142.045 256.406 141.928C256.128 141.8 255.819 141.736 255.478 141.736C255.126 141.736 254.806 141.8 254.518 141.928C254.24 142.045 254 142.211 253.798 142.424C253.595 142.637 253.435 142.888 253.318 143.176C253.2 143.453 253.131 143.752 253.11 144.072H257.862ZM259.174 146.376C258.992 147.304 258.592 148.003 257.974 148.472C257.355 148.941 256.576 149.176 255.638 149.176C254.976 149.176 254.4 149.069 253.91 148.856C253.43 148.643 253.024 148.344 252.694 147.96C252.363 147.576 252.112 147.117 251.942 146.584C251.782 146.051 251.691 145.469 251.67 144.84C251.67 144.211 251.766 143.635 251.958 143.112C252.15 142.589 252.416 142.136 252.758 141.752C253.11 141.368 253.52 141.069 253.99 140.856C254.47 140.643 254.992 140.536 255.558 140.536C256.294 140.536 256.902 140.691 257.382 141C257.872 141.299 258.262 141.683 258.55 142.152C258.848 142.621 259.051 143.133 259.158 143.688C259.275 144.243 259.323 144.771 259.302 145.272H253.11C253.099 145.635 253.142 145.981 253.238 146.312C253.334 146.632 253.488 146.92 253.702 147.176C253.915 147.421 254.187 147.619 254.518 147.768C254.848 147.917 255.238 147.992 255.686 147.992C256.262 147.992 256.731 147.859 257.094 147.592C257.467 147.325 257.712 146.92 257.83 146.376H259.174Z" fill="black" fill-opacity="0.68"/>
<g clip-path="url(#clip0_54421_87914)">
<rect width="200" height="54" transform="translate(292 116.5)" fill="black" fill-opacity="0.04"/>
</g>
<path d="M115.856 272.92C115.771 272.099 115.472 271.507 114.96 271.144C114.459 270.771 113.813 270.584 113.024 270.584C112.704 270.584 112.389 270.616 112.08 270.68C111.771 270.744 111.493 270.851 111.248 271C111.013 271.149 110.821 271.352 110.672 271.608C110.533 271.853 110.464 272.163 110.464 272.536C110.464 272.888 110.565 273.176 110.768 273.4C110.981 273.613 111.259 273.789 111.6 273.928C111.952 274.067 112.347 274.184 112.784 274.28C113.221 274.365 113.664 274.461 114.112 274.568C114.571 274.675 115.019 274.803 115.456 274.952C115.893 275.091 116.283 275.283 116.624 275.528C116.976 275.773 117.253 276.083 117.456 276.456C117.669 276.829 117.776 277.299 117.776 277.864C117.776 278.472 117.637 278.995 117.36 279.432C117.093 279.859 116.747 280.211 116.32 280.488C115.893 280.755 115.413 280.947 114.88 281.064C114.357 281.192 113.835 281.256 113.312 281.256C112.672 281.256 112.064 281.176 111.488 281.016C110.923 280.856 110.421 280.616 109.984 280.296C109.557 279.965 109.216 279.549 108.96 279.048C108.715 278.536 108.592 277.933 108.592 277.24H110.032C110.032 277.72 110.123 278.136 110.304 278.488C110.496 278.829 110.741 279.112 111.04 279.336C111.349 279.56 111.707 279.725 112.112 279.832C112.517 279.939 112.933 279.992 113.36 279.992C113.701 279.992 114.043 279.96 114.384 279.896C114.736 279.832 115.051 279.725 115.328 279.576C115.605 279.416 115.829 279.203 116 278.936C116.171 278.669 116.256 278.328 116.256 277.912C116.256 277.517 116.149 277.197 115.936 276.952C115.733 276.707 115.456 276.509 115.104 276.36C114.763 276.2 114.373 276.072 113.936 275.976C113.499 275.88 113.051 275.784 112.592 275.688C112.144 275.581 111.701 275.464 111.264 275.336C110.827 275.197 110.432 275.021 110.08 274.808C109.739 274.584 109.461 274.301 109.248 273.96C109.045 273.608 108.944 273.171 108.944 272.648C108.944 272.072 109.061 271.576 109.296 271.16C109.531 270.733 109.84 270.387 110.224 270.12C110.619 269.843 111.061 269.64 111.552 269.512C112.053 269.373 112.565 269.304 113.088 269.304C113.675 269.304 114.219 269.373 114.72 269.512C115.221 269.651 115.659 269.869 116.032 270.168C116.416 270.467 116.715 270.845 116.928 271.304C117.152 271.752 117.275 272.291 117.296 272.92H115.856ZM125.143 276.072C125.122 275.752 125.047 275.448 124.919 275.16C124.802 274.872 124.636 274.627 124.423 274.424C124.22 274.211 123.975 274.045 123.687 273.928C123.41 273.8 123.1 273.736 122.759 273.736C122.407 273.736 122.087 273.8 121.799 273.928C121.522 274.045 121.282 274.211 121.079 274.424C120.876 274.637 120.716 274.888 120.599 275.176C120.482 275.453 120.412 275.752 120.391 276.072H125.143ZM126.455 278.376C126.274 279.304 125.874 280.003 125.255 280.472C124.636 280.941 123.858 281.176 122.919 281.176C122.258 281.176 121.682 281.069 121.191 280.856C120.711 280.643 120.306 280.344 119.975 279.96C119.644 279.576 119.394 279.117 119.223 278.584C119.063 278.051 118.972 277.469 118.951 276.84C118.951 276.211 119.047 275.635 119.239 275.112C119.431 274.589 119.698 274.136 120.039 273.752C120.391 273.368 120.802 273.069 121.271 272.856C121.751 272.643 122.274 272.536 122.839 272.536C123.575 272.536 124.183 272.691 124.663 273C125.154 273.299 125.543 273.683 125.831 274.152C126.13 274.621 126.332 275.133 126.439 275.688C126.556 276.243 126.604 276.771 126.583 277.272H120.391C120.38 277.635 120.423 277.981 120.519 278.312C120.615 278.632 120.77 278.92 120.983 279.176C121.196 279.421 121.468 279.619 121.799 279.768C122.13 279.917 122.519 279.992 122.967 279.992C123.543 279.992 124.012 279.859 124.375 279.592C124.748 279.325 124.994 278.92 125.111 278.376H126.455ZM133.609 275.384C133.502 274.861 133.278 274.456 132.937 274.168C132.595 273.88 132.137 273.736 131.561 273.736C131.07 273.736 130.659 273.827 130.329 274.008C129.998 274.189 129.731 274.429 129.529 274.728C129.337 275.027 129.198 275.373 129.113 275.768C129.027 276.152 128.985 276.552 128.985 276.968C128.985 277.352 129.027 277.725 129.113 278.088C129.209 278.451 129.353 278.776 129.545 279.064C129.737 279.341 129.987 279.565 130.297 279.736C130.606 279.907 130.974 279.992 131.401 279.992C132.073 279.992 132.595 279.816 132.969 279.464C133.353 279.112 133.587 278.616 133.673 277.976H135.065C134.915 279 134.531 279.789 133.913 280.344C133.305 280.899 132.473 281.176 131.417 281.176C130.787 281.176 130.227 281.075 129.737 280.872C129.257 280.669 128.851 280.381 128.521 280.008C128.201 279.635 127.955 279.192 127.785 278.68C127.625 278.157 127.545 277.587 127.545 276.968C127.545 276.349 127.625 275.773 127.785 275.24C127.945 274.696 128.185 274.227 128.505 273.832C128.835 273.427 129.246 273.112 129.737 272.888C130.227 272.653 130.798 272.536 131.449 272.536C131.918 272.536 132.355 272.595 132.761 272.712C133.177 272.819 133.539 272.989 133.849 273.224C134.169 273.459 134.43 273.757 134.633 274.12C134.835 274.472 134.963 274.893 135.017 275.384H133.609ZM143.435 281H142.155V279.688H142.123C141.835 280.2 141.467 280.579 141.019 280.824C140.571 281.059 140.043 281.176 139.435 281.176C138.891 281.176 138.437 281.107 138.075 280.968C137.712 280.819 137.419 280.611 137.195 280.344C136.971 280.077 136.811 279.763 136.715 279.4C136.629 279.027 136.587 278.616 136.587 278.168V272.728H137.947V278.328C137.947 278.84 138.096 279.245 138.395 279.544C138.693 279.843 139.104 279.992 139.627 279.992C140.043 279.992 140.4 279.928 140.699 279.8C141.008 279.672 141.264 279.491 141.467 279.256C141.669 279.021 141.819 278.749 141.915 278.44C142.021 278.12 142.075 277.773 142.075 277.4V272.728H143.435V281ZM145.429 272.728H146.709V274.472H146.741C147.072 273.8 147.477 273.304 147.957 272.984C148.437 272.664 149.045 272.515 149.781 272.536V273.976C149.237 273.976 148.773 274.051 148.389 274.2C148.005 274.349 147.696 274.568 147.461 274.856C147.226 275.144 147.056 275.496 146.949 275.912C146.842 276.317 146.789 276.787 146.789 277.32V281H145.429V272.728ZM152.245 271.24H150.885V269.576H152.245V271.24ZM150.885 272.728H152.245V281H150.885V272.728ZM156.24 272.728H157.888V273.928H156.24V279.064C156.24 279.224 156.251 279.352 156.272 279.448C156.304 279.544 156.357 279.619 156.432 279.672C156.507 279.725 156.608 279.763 156.736 279.784C156.875 279.795 157.051 279.8 157.264 279.8H157.888V281H156.848C156.496 281 156.192 280.979 155.936 280.936C155.691 280.883 155.488 280.792 155.328 280.664C155.179 280.536 155.067 280.355 154.992 280.12C154.917 279.885 154.88 279.576 154.88 279.192V273.928H153.472V272.728H154.88V270.248H156.24V272.728ZM162.647 282.104C162.487 282.509 162.327 282.851 162.167 283.128C162.018 283.405 161.847 283.629 161.655 283.8C161.474 283.981 161.266 284.109 161.031 284.184C160.807 284.269 160.546 284.312 160.247 284.312C160.087 284.312 159.927 284.301 159.767 284.28C159.607 284.259 159.452 284.221 159.303 284.168V282.92C159.42 282.973 159.554 283.016 159.703 283.048C159.863 283.091 159.996 283.112 160.103 283.112C160.38 283.112 160.61 283.043 160.791 282.904C160.983 282.776 161.127 282.589 161.223 282.344L161.783 280.952L158.503 272.728H160.039L162.455 279.496H162.487L164.807 272.728H166.247L162.647 282.104ZM171.852 272.728H173.132V273.944H173.164C173.783 273.005 174.673 272.536 175.836 272.536C176.348 272.536 176.812 272.643 177.228 272.856C177.644 273.069 177.937 273.432 178.108 273.944C178.385 273.496 178.748 273.149 179.196 272.904C179.655 272.659 180.156 272.536 180.7 272.536C181.116 272.536 181.489 272.584 181.82 272.68C182.161 272.765 182.449 272.904 182.684 273.096C182.929 273.288 183.116 273.539 183.244 273.848C183.383 274.147 183.452 274.509 183.452 274.936V281H182.092V275.576C182.092 275.32 182.071 275.08 182.028 274.856C181.985 274.632 181.905 274.44 181.788 274.28C181.671 274.109 181.505 273.976 181.292 273.88C181.089 273.784 180.823 273.736 180.492 273.736C179.82 273.736 179.292 273.928 178.908 274.312C178.524 274.696 178.332 275.208 178.332 275.848V281H176.972V275.576C176.972 275.309 176.945 275.064 176.892 274.84C176.849 274.616 176.769 274.424 176.652 274.264C176.535 274.093 176.375 273.965 176.172 273.88C175.98 273.784 175.729 273.736 175.42 273.736C175.025 273.736 174.684 273.816 174.396 273.976C174.119 274.136 173.889 274.328 173.708 274.552C173.537 274.776 173.409 275.011 173.324 275.256C173.249 275.491 173.212 275.688 173.212 275.848V281H171.852V272.728ZM192.821 280.968C192.586 281.107 192.261 281.176 191.845 281.176C191.493 281.176 191.21 281.08 190.997 280.888C190.794 280.685 190.693 280.36 190.693 279.912C190.319 280.36 189.882 280.685 189.381 280.888C188.89 281.08 188.357 281.176 187.781 281.176C187.407 281.176 187.05 281.133 186.709 281.048C186.378 280.963 186.09 280.829 185.845 280.648C185.599 280.467 185.402 280.232 185.253 279.944C185.114 279.645 185.045 279.288 185.045 278.872C185.045 278.403 185.125 278.019 185.285 277.72C185.445 277.421 185.653 277.181 185.909 277C186.175 276.808 186.474 276.664 186.805 276.568C187.146 276.472 187.493 276.392 187.845 276.328C188.218 276.253 188.57 276.2 188.901 276.168C189.242 276.125 189.541 276.072 189.797 276.008C190.053 275.933 190.255 275.832 190.405 275.704C190.554 275.565 190.629 275.368 190.629 275.112C190.629 274.813 190.57 274.573 190.453 274.392C190.346 274.211 190.202 274.072 190.021 273.976C189.85 273.88 189.653 273.816 189.429 273.784C189.215 273.752 189.002 273.736 188.789 273.736C188.213 273.736 187.733 273.848 187.349 274.072C186.965 274.285 186.757 274.696 186.725 275.304H185.365C185.386 274.792 185.493 274.36 185.685 274.008C185.877 273.656 186.133 273.373 186.453 273.16C186.773 272.936 187.135 272.776 187.541 272.68C187.957 272.584 188.399 272.536 188.869 272.536C189.242 272.536 189.61 272.563 189.973 272.616C190.346 272.669 190.682 272.781 190.981 272.952C191.279 273.112 191.519 273.341 191.701 273.64C191.882 273.939 191.973 274.328 191.973 274.808V279.064C191.973 279.384 191.989 279.619 192.021 279.768C192.063 279.917 192.191 279.992 192.405 279.992C192.522 279.992 192.661 279.965 192.821 279.912V280.968ZM190.613 276.728C190.442 276.856 190.218 276.952 189.941 277.016C189.663 277.069 189.37 277.117 189.061 277.16C188.762 277.192 188.458 277.235 188.149 277.288C187.839 277.331 187.562 277.405 187.317 277.512C187.071 277.619 186.869 277.773 186.709 277.976C186.559 278.168 186.485 278.435 186.485 278.776C186.485 279 186.527 279.192 186.613 279.352C186.709 279.501 186.826 279.624 186.965 279.72C187.114 279.816 187.285 279.885 187.477 279.928C187.669 279.971 187.871 279.992 188.085 279.992C188.533 279.992 188.917 279.933 189.237 279.816C189.557 279.688 189.818 279.533 190.021 279.352C190.223 279.16 190.373 278.957 190.469 278.744C190.565 278.52 190.613 278.312 190.613 278.12V276.728ZM194.039 272.728H195.319V274.472H195.351C195.681 273.8 196.087 273.304 196.567 272.984C197.047 272.664 197.655 272.515 198.391 272.536V273.976C197.847 273.976 197.383 274.051 196.999 274.2C196.615 274.349 196.305 274.568 196.071 274.856C195.836 275.144 195.665 275.496 195.559 275.912C195.452 276.317 195.399 276.787 195.399 277.32V281H194.039V272.728ZM206.098 280.296C206.098 281.651 205.788 282.664 205.17 283.336C204.551 284.008 203.58 284.344 202.258 284.344C201.874 284.344 201.479 284.301 201.074 284.216C200.679 284.131 200.316 283.992 199.986 283.8C199.666 283.608 199.399 283.357 199.186 283.048C198.972 282.739 198.855 282.36 198.834 281.912H200.194C200.204 282.157 200.279 282.365 200.418 282.536C200.567 282.707 200.743 282.845 200.946 282.952C201.159 283.059 201.388 283.133 201.634 283.176C201.879 283.229 202.114 283.256 202.338 283.256C202.786 283.256 203.164 283.176 203.474 283.016C203.783 282.867 204.039 282.653 204.242 282.376C204.444 282.109 204.588 281.784 204.674 281.4C204.77 281.016 204.818 280.595 204.818 280.136V279.592H204.786C204.551 280.104 204.194 280.483 203.714 280.728C203.244 280.963 202.743 281.08 202.21 281.08C201.591 281.08 201.052 280.968 200.594 280.744C200.135 280.52 199.751 280.221 199.442 279.848C199.132 279.464 198.898 279.021 198.738 278.52C198.588 278.008 198.514 277.469 198.514 276.904C198.514 276.413 198.578 275.912 198.706 275.4C198.834 274.877 199.047 274.408 199.346 273.992C199.644 273.565 200.039 273.219 200.53 272.952C201.02 272.675 201.623 272.536 202.338 272.536C202.86 272.536 203.34 272.653 203.778 272.888C204.215 273.112 204.556 273.453 204.802 273.912H204.818V272.728H206.098V280.296ZM202.29 279.896C202.738 279.896 203.116 279.805 203.426 279.624C203.746 279.432 204.002 279.187 204.194 278.888C204.386 278.579 204.524 278.232 204.61 277.848C204.706 277.464 204.754 277.08 204.754 276.696C204.754 276.333 204.711 275.976 204.626 275.624C204.54 275.272 204.402 274.957 204.21 274.68C204.028 274.392 203.788 274.163 203.49 273.992C203.191 273.821 202.828 273.736 202.402 273.736C201.964 273.736 201.591 273.821 201.282 273.992C200.972 274.152 200.716 274.371 200.514 274.648C200.322 274.925 200.178 275.245 200.082 275.608C199.996 275.971 199.954 276.349 199.954 276.744C199.954 277.117 199.991 277.491 200.066 277.864C200.14 278.237 200.268 278.579 200.45 278.888C200.631 279.187 200.871 279.432 201.17 279.624C201.468 279.805 201.842 279.896 202.29 279.896ZM209.589 271.24H208.229V269.576H209.589V271.24ZM208.229 272.728H209.589V281H208.229V272.728ZM211.696 272.728H212.976V274.04H213.008C213.573 273.037 214.469 272.536 215.696 272.536C216.24 272.536 216.693 272.611 217.056 272.76C217.419 272.909 217.712 273.117 217.936 273.384C218.16 273.651 218.315 273.971 218.4 274.344C218.496 274.707 218.544 275.112 218.544 275.56V281H217.184V275.4C217.184 274.888 217.035 274.483 216.736 274.184C216.437 273.885 216.027 273.736 215.504 273.736C215.088 273.736 214.725 273.8 214.416 273.928C214.117 274.056 213.867 274.237 213.664 274.472C213.461 274.707 213.307 274.984 213.2 275.304C213.104 275.613 213.056 275.955 213.056 276.328V281H211.696V272.728ZM220.331 278.024H228.395V279.112H220.331V278.024ZM228.395 275.88H220.331V274.792H228.395V275.88ZM230.404 269.576H237.908V270.856H231.924V274.488H237.172V275.768H231.924V281H230.404V269.576ZM246.696 280.968C246.461 281.107 246.136 281.176 245.72 281.176C245.368 281.176 245.085 281.08 244.872 280.888C244.669 280.685 244.568 280.36 244.568 279.912C244.194 280.36 243.757 280.685 243.256 280.888C242.765 281.08 242.232 281.176 241.656 281.176C241.282 281.176 240.925 281.133 240.584 281.048C240.253 280.963 239.965 280.829 239.72 280.648C239.474 280.467 239.277 280.232 239.128 279.944C238.989 279.645 238.92 279.288 238.92 278.872C238.92 278.403 239 278.019 239.16 277.72C239.32 277.421 239.528 277.181 239.784 277C240.05 276.808 240.349 276.664 240.68 276.568C241.021 276.472 241.368 276.392 241.72 276.328C242.093 276.253 242.445 276.2 242.776 276.168C243.117 276.125 243.416 276.072 243.672 276.008C243.928 275.933 244.13 275.832 244.28 275.704C244.429 275.565 244.504 275.368 244.504 275.112C244.504 274.813 244.445 274.573 244.328 274.392C244.221 274.211 244.077 274.072 243.896 273.976C243.725 273.88 243.528 273.816 243.304 273.784C243.09 273.752 242.877 273.736 242.664 273.736C242.088 273.736 241.608 273.848 241.224 274.072C240.84 274.285 240.632 274.696 240.6 275.304H239.24C239.261 274.792 239.368 274.36 239.56 274.008C239.752 273.656 240.008 273.373 240.328 273.16C240.648 272.936 241.01 272.776 241.416 272.68C241.832 272.584 242.274 272.536 242.744 272.536C243.117 272.536 243.485 272.563 243.848 272.616C244.221 272.669 244.557 272.781 244.856 272.952C245.154 273.112 245.394 273.341 245.576 273.64C245.757 273.939 245.848 274.328 245.848 274.808V279.064C245.848 279.384 245.864 279.619 245.896 279.768C245.938 279.917 246.066 279.992 246.28 279.992C246.397 279.992 246.536 279.965 246.696 279.912V280.968ZM244.488 276.728C244.317 276.856 244.093 276.952 243.816 277.016C243.538 277.069 243.245 277.117 242.936 277.16C242.637 277.192 242.333 277.235 242.024 277.288C241.714 277.331 241.437 277.405 241.192 277.512C240.946 277.619 240.744 277.773 240.584 277.976C240.434 278.168 240.36 278.435 240.36 278.776C240.36 279 240.402 279.192 240.488 279.352C240.584 279.501 240.701 279.624 240.84 279.72C240.989 279.816 241.16 279.885 241.352 279.928C241.544 279.971 241.746 279.992 241.96 279.992C242.408 279.992 242.792 279.933 243.112 279.816C243.432 279.688 243.693 279.533 243.896 279.352C244.098 279.16 244.248 278.957 244.344 278.744C244.44 278.52 244.488 278.312 244.488 278.12V276.728ZM248.042 269.576H249.402V281H248.042V269.576ZM252.34 278.392C252.351 278.691 252.42 278.947 252.548 279.16C252.676 279.363 252.842 279.528 253.044 279.656C253.258 279.773 253.492 279.859 253.748 279.912C254.015 279.965 254.287 279.992 254.564 279.992C254.778 279.992 255.002 279.976 255.236 279.944C255.471 279.912 255.684 279.853 255.876 279.768C256.079 279.683 256.244 279.56 256.372 279.4C256.5 279.229 256.564 279.016 256.564 278.76C256.564 278.408 256.431 278.141 256.164 277.96C255.898 277.779 255.562 277.635 255.156 277.528C254.762 277.411 254.33 277.309 253.86 277.224C253.391 277.128 252.954 277 252.548 276.84C252.154 276.669 251.823 276.435 251.556 276.136C251.29 275.837 251.156 275.421 251.156 274.888C251.156 274.472 251.247 274.115 251.428 273.816C251.62 273.517 251.86 273.277 252.148 273.096C252.447 272.904 252.778 272.765 253.14 272.68C253.514 272.584 253.882 272.536 254.244 272.536C254.714 272.536 255.146 272.579 255.54 272.664C255.935 272.739 256.282 272.877 256.58 273.08C256.89 273.272 257.135 273.539 257.316 273.88C257.498 274.211 257.604 274.627 257.636 275.128H256.276C256.255 274.861 256.186 274.643 256.068 274.472C255.951 274.291 255.802 274.147 255.62 274.04C255.439 273.933 255.236 273.859 255.012 273.816C254.799 273.763 254.58 273.736 254.356 273.736C254.154 273.736 253.946 273.752 253.732 273.784C253.53 273.816 253.343 273.875 253.172 273.96C253.002 274.035 252.863 274.141 252.756 274.28C252.65 274.408 252.596 274.579 252.596 274.792C252.596 275.027 252.676 275.224 252.836 275.384C253.007 275.533 253.22 275.661 253.476 275.768C253.732 275.864 254.02 275.949 254.34 276.024C254.66 276.088 254.98 276.157 255.3 276.232C255.642 276.307 255.972 276.397 256.292 276.504C256.623 276.611 256.911 276.755 257.156 276.936C257.412 277.107 257.615 277.325 257.764 277.592C257.924 277.859 258.004 278.189 258.004 278.584C258.004 279.085 257.898 279.501 257.684 279.832C257.482 280.163 257.21 280.429 256.868 280.632C256.538 280.835 256.159 280.973 255.732 281.048C255.316 281.133 254.9 281.176 254.484 281.176C254.026 281.176 253.588 281.128 253.172 281.032C252.756 280.936 252.388 280.781 252.068 280.568C251.748 280.344 251.492 280.056 251.3 279.704C251.108 279.341 251.002 278.904 250.98 278.392H252.34ZM265.252 276.072C265.231 275.752 265.156 275.448 265.028 275.16C264.911 274.872 264.746 274.627 264.532 274.424C264.33 274.211 264.084 274.045 263.796 273.928C263.519 273.8 263.21 273.736 262.868 273.736C262.516 273.736 262.196 273.8 261.908 273.928C261.631 274.045 261.391 274.211 261.188 274.424C260.986 274.637 260.826 274.888 260.708 275.176C260.591 275.453 260.522 275.752 260.5 276.072H265.252ZM266.564 278.376C266.383 279.304 265.983 280.003 265.364 280.472C264.746 280.941 263.967 281.176 263.028 281.176C262.367 281.176 261.791 281.069 261.3 280.856C260.82 280.643 260.415 280.344 260.084 279.96C259.754 279.576 259.503 279.117 259.332 278.584C259.172 278.051 259.082 277.469 259.06 276.84C259.06 276.211 259.156 275.635 259.348 275.112C259.54 274.589 259.807 274.136 260.148 273.752C260.5 273.368 260.911 273.069 261.38 272.856C261.86 272.643 262.383 272.536 262.948 272.536C263.684 272.536 264.292 272.691 264.772 273C265.263 273.299 265.652 273.683 265.94 274.152C266.239 274.621 266.442 275.133 266.548 275.688C266.666 276.243 266.714 276.771 266.692 277.272H260.5C260.49 277.635 260.532 277.981 260.628 278.312C260.724 278.632 260.879 278.92 261.092 279.176C261.306 279.421 261.578 279.619 261.908 279.768C262.239 279.917 262.628 279.992 263.076 279.992C263.652 279.992 264.122 279.859 264.484 279.592C264.858 279.325 265.103 278.92 265.22 278.376H266.564Z" fill="black" fill-opacity="0.68"/>
<g clip-path="url(#clip1_54421_87914)">
<rect width="200" height="62" transform="translate(292 244.5)" fill="black" fill-opacity="0.04"/>
</g>
<defs>
<clipPath id="clip0_54421_87914">
<rect width="200" height="62" fill="white" transform="translate(292 112.5)"/>
</clipPath>
<clipPath id="clip1_54421_87914">
<rect width="200" height="62" fill="white" transform="translate(292 244.5)"/>
</clipPath>
</defs>
</svg>
