<svg width="600" height="118" viewBox="0 0 600 118" fill="none" xmlns="http://www.w3.org/2000/svg">
<rect width="600" height="118" fill="black" fill-opacity="0.04"/>
<path d="M91.248 53.076H92.768V63.22H98.816V64.5H91.248V53.076ZM105.659 59.572C105.637 59.252 105.563 58.948 105.435 58.66C105.317 58.372 105.152 58.1267 104.939 57.924C104.736 57.7107 104.491 57.5453 104.203 57.428C103.925 57.3 103.616 57.236 103.275 57.236C102.923 57.236 102.603 57.3 102.315 57.428C102.037 57.5453 101.797 57.7107 101.595 57.924C101.392 58.1373 101.232 58.388 101.115 58.676C100.997 58.9533 100.928 59.252 100.907 59.572H105.659ZM106.971 61.876C106.789 62.804 106.389 63.5027 105.771 63.972C105.152 64.4413 104.373 64.676 103.435 64.676C102.773 64.676 102.197 64.5693 101.707 64.356C101.227 64.1427 100.821 63.844 100.491 63.46C100.16 63.076 99.9093 62.6173 99.7386 62.084C99.5786 61.5507 99.488 60.9693 99.4666 60.34C99.4666 59.7107 99.5626 59.1347 99.7546 58.612C99.9466 58.0893 100.213 57.636 100.555 57.252C100.907 56.868 101.317 56.5693 101.787 56.356C102.267 56.1427 102.789 56.036 103.355 56.036C104.091 56.036 104.699 56.1907 105.179 56.5C105.669 56.7987 106.059 57.1827 106.347 57.652C106.645 58.1213 106.848 58.6333 106.955 59.188C107.072 59.7427 107.12 60.2707 107.099 60.772H100.907C100.896 61.1347 100.939 61.4813 101.035 61.812C101.131 62.132 101.285 62.42 101.499 62.676C101.712 62.9213 101.984 63.1187 102.315 63.268C102.645 63.4173 103.035 63.492 103.483 63.492C104.059 63.492 104.528 63.3587 104.891 63.092C105.264 62.8253 105.509 62.42 105.627 61.876H106.971ZM115.836 64.468C115.602 64.6067 115.276 64.676 114.86 64.676C114.508 64.676 114.226 64.58 114.012 64.388C113.81 64.1853 113.708 63.86 113.708 63.412C113.335 63.86 112.898 64.1853 112.396 64.388C111.906 64.58 111.372 64.676 110.796 64.676C110.423 64.676 110.066 64.6333 109.724 64.548C109.394 64.4627 109.106 64.3293 108.86 64.148C108.615 63.9667 108.418 63.732 108.268 63.444C108.13 63.1453 108.06 62.788 108.06 62.372C108.06 61.9027 108.14 61.5187 108.3 61.22C108.46 60.9213 108.668 60.6813 108.924 60.5C109.191 60.308 109.49 60.164 109.82 60.068C110.162 59.972 110.508 59.892 110.86 59.828C111.234 59.7533 111.586 59.7 111.916 59.668C112.258 59.6253 112.556 59.572 112.812 59.508C113.068 59.4333 113.271 59.332 113.42 59.204C113.57 59.0653 113.644 58.868 113.644 58.612C113.644 58.3133 113.586 58.0733 113.468 57.892C113.362 57.7107 113.218 57.572 113.036 57.476C112.866 57.38 112.668 57.316 112.444 57.284C112.231 57.252 112.018 57.236 111.804 57.236C111.228 57.236 110.748 57.348 110.364 57.572C109.98 57.7853 109.772 58.196 109.74 58.804H108.38C108.402 58.292 108.508 57.86 108.7 57.508C108.892 57.156 109.148 56.8733 109.468 56.66C109.788 56.436 110.151 56.276 110.556 56.18C110.972 56.084 111.415 56.036 111.884 56.036C112.258 56.036 112.626 56.0627 112.988 56.116C113.362 56.1693 113.698 56.2813 113.996 56.452C114.295 56.612 114.535 56.8413 114.716 57.14C114.898 57.4387 114.988 57.828 114.988 58.308V62.564C114.988 62.884 115.004 63.1187 115.036 63.268C115.079 63.4173 115.207 63.492 115.42 63.492C115.538 63.492 115.676 63.4653 115.836 63.412V64.468ZM113.628 60.228C113.458 60.356 113.234 60.452 112.956 60.516C112.679 60.5693 112.386 60.6173 112.076 60.66C111.778 60.692 111.474 60.7347 111.164 60.788C110.855 60.8307 110.578 60.9053 110.332 61.012C110.087 61.1187 109.884 61.2733 109.724 61.476C109.575 61.668 109.5 61.9347 109.5 62.276C109.5 62.5 109.543 62.692 109.628 62.852C109.724 63.0013 109.842 63.124 109.98 63.22C110.13 63.316 110.3 63.3853 110.492 63.428C110.684 63.4707 110.887 63.492 111.1 63.492C111.548 63.492 111.932 63.4333 112.252 63.316C112.572 63.188 112.834 63.0333 113.036 62.852C113.239 62.66 113.388 62.4573 113.484 62.244C113.58 62.02 113.628 61.812 113.628 61.62V60.228ZM118.094 60.436C118.094 60.82 118.142 61.1987 118.238 61.572C118.345 61.9347 118.499 62.26 118.702 62.548C118.915 62.836 119.182 63.0653 119.502 63.236C119.833 63.4067 120.217 63.492 120.654 63.492C121.113 63.492 121.502 63.4013 121.822 63.22C122.142 63.0387 122.403 62.804 122.606 62.516C122.809 62.2173 122.953 61.8813 123.038 61.508C123.134 61.1347 123.182 60.756 123.182 60.372C123.182 59.9667 123.134 59.5773 123.038 59.204C122.942 58.82 122.787 58.484 122.574 58.196C122.371 57.908 122.105 57.6787 121.774 57.508C121.443 57.3267 121.043 57.236 120.574 57.236C120.115 57.236 119.726 57.3267 119.406 57.508C119.086 57.6893 118.83 57.9293 118.638 58.228C118.446 58.5267 118.307 58.868 118.222 59.252C118.137 59.636 118.094 60.0307 118.094 60.436ZM124.494 64.5H123.134V63.38H123.102C122.878 63.8387 122.526 64.1693 122.046 64.372C121.566 64.5747 121.038 64.676 120.462 64.676C119.822 64.676 119.262 64.5587 118.782 64.324C118.313 64.0893 117.918 63.7747 117.598 63.38C117.289 62.9853 117.054 62.5267 116.894 62.004C116.734 61.4813 116.654 60.9267 116.654 60.34C116.654 59.7533 116.729 59.1987 116.878 58.676C117.038 58.1533 117.273 57.7 117.582 57.316C117.902 56.9213 118.297 56.612 118.766 56.388C119.246 56.1533 119.801 56.036 120.43 56.036C120.643 56.036 120.873 56.0573 121.118 56.1C121.363 56.1427 121.609 56.2173 121.854 56.324C122.099 56.42 122.329 56.5533 122.542 56.724C122.766 56.884 122.953 57.0867 123.102 57.332H123.134V53.076H124.494V64.5ZM128.027 54.74H126.667V53.076H128.027V54.74ZM126.667 56.228H128.027V64.5H126.667V56.228ZM130.133 56.228H131.413V57.54H131.445C132.011 56.5373 132.907 56.036 134.133 56.036C134.677 56.036 135.131 56.1107 135.493 56.26C135.856 56.4093 136.149 56.6173 136.373 56.884C136.597 57.1507 136.752 57.4707 136.837 57.844C136.933 58.2067 136.981 58.612 136.981 59.06V64.5H135.621V58.9C135.621 58.388 135.472 57.9827 135.173 57.684C134.875 57.3853 134.464 57.236 133.941 57.236C133.525 57.236 133.163 57.3 132.853 57.428C132.555 57.556 132.304 57.7373 132.101 57.972C131.899 58.2067 131.744 58.484 131.637 58.804C131.541 59.1133 131.493 59.4547 131.493 59.828V64.5H130.133V56.228ZM146.16 63.796C146.16 65.1507 145.851 66.164 145.232 66.836C144.613 67.508 143.643 67.844 142.32 67.844C141.936 67.844 141.541 67.8013 141.136 67.716C140.741 67.6307 140.379 67.492 140.048 67.3C139.728 67.108 139.461 66.8573 139.248 66.548C139.035 66.2387 138.917 65.86 138.896 65.412H140.256C140.267 65.6573 140.341 65.8653 140.48 66.036C140.629 66.2067 140.805 66.3453 141.008 66.452C141.221 66.5587 141.451 66.6333 141.696 66.676C141.941 66.7293 142.176 66.756 142.4 66.756C142.848 66.756 143.227 66.676 143.536 66.516C143.845 66.3667 144.101 66.1533 144.304 65.876C144.507 65.6093 144.651 65.284 144.736 64.9C144.832 64.516 144.88 64.0947 144.88 63.636V63.092H144.848C144.613 63.604 144.256 63.9827 143.776 64.228C143.307 64.4627 142.805 64.58 142.272 64.58C141.653 64.58 141.115 64.468 140.656 64.244C140.197 64.02 139.813 63.7213 139.504 63.348C139.195 62.964 138.96 62.5213 138.8 62.02C138.651 61.508 138.576 60.9693 138.576 60.404C138.576 59.9133 138.64 59.412 138.768 58.9C138.896 58.3773 139.109 57.908 139.408 57.492C139.707 57.0653 140.101 56.7187 140.592 56.452C141.083 56.1747 141.685 56.036 142.4 56.036C142.923 56.036 143.403 56.1533 143.84 56.388C144.277 56.612 144.619 56.9533 144.864 57.412H144.88V56.228H146.16V63.796ZM142.352 63.396C142.8 63.396 143.179 63.3053 143.488 63.124C143.808 62.932 144.064 62.6867 144.256 62.388C144.448 62.0787 144.587 61.732 144.672 61.348C144.768 60.964 144.816 60.58 144.816 60.196C144.816 59.8333 144.773 59.476 144.688 59.124C144.603 58.772 144.464 58.4573 144.272 58.18C144.091 57.892 143.851 57.6627 143.552 57.492C143.253 57.3213 142.891 57.236 142.464 57.236C142.027 57.236 141.653 57.3213 141.344 57.492C141.035 57.652 140.779 57.8707 140.576 58.148C140.384 58.4253 140.24 58.7453 140.144 59.108C140.059 59.4707 140.016 59.8493 140.016 60.244C140.016 60.6173 140.053 60.9907 140.128 61.364C140.203 61.7373 140.331 62.0787 140.512 62.388C140.693 62.6867 140.933 62.932 141.232 63.124C141.531 63.3053 141.904 63.396 142.352 63.396ZM154.105 54.74H152.745V53.076H154.105V54.74ZM152.745 56.228H154.105V64.5H152.745V56.228ZM161.828 58.884C161.721 58.3613 161.497 57.956 161.156 57.668C160.814 57.38 160.356 57.236 159.78 57.236C159.289 57.236 158.878 57.3267 158.548 57.508C158.217 57.6893 157.95 57.9293 157.748 58.228C157.556 58.5267 157.417 58.8733 157.332 59.268C157.246 59.652 157.204 60.052 157.204 60.468C157.204 60.852 157.246 61.2253 157.332 61.588C157.428 61.9507 157.572 62.276 157.764 62.564C157.956 62.8413 158.206 63.0653 158.516 63.236C158.825 63.4067 159.193 63.492 159.62 63.492C160.292 63.492 160.814 63.316 161.188 62.964C161.572 62.612 161.806 62.116 161.892 61.476H163.284C163.134 62.5 162.75 63.2893 162.132 63.844C161.524 64.3987 160.692 64.676 159.636 64.676C159.006 64.676 158.446 64.5747 157.956 64.372C157.476 64.1693 157.07 63.8813 156.74 63.508C156.42 63.1347 156.174 62.692 156.004 62.18C155.844 61.6573 155.764 61.0867 155.764 60.468C155.764 59.8493 155.844 59.2733 156.004 58.74C156.164 58.196 156.404 57.7267 156.724 57.332C157.054 56.9267 157.465 56.612 157.956 56.388C158.446 56.1533 159.017 56.036 159.668 56.036C160.137 56.036 160.574 56.0947 160.98 56.212C161.396 56.3187 161.758 56.4893 162.068 56.724C162.388 56.9587 162.649 57.2573 162.852 57.62C163.054 57.972 163.182 58.3933 163.236 58.884H161.828ZM165.797 60.372C165.797 60.8733 165.861 61.3213 165.989 61.716C166.128 62.1 166.315 62.4253 166.549 62.692C166.784 62.948 167.056 63.1453 167.365 63.284C167.685 63.4227 168.021 63.492 168.373 63.492C168.725 63.492 169.056 63.4227 169.365 63.284C169.685 63.1453 169.963 62.948 170.197 62.692C170.432 62.4253 170.613 62.1 170.741 61.716C170.88 61.3213 170.949 60.8733 170.949 60.372C170.949 59.8707 170.88 59.428 170.741 59.044C170.613 58.6493 170.432 58.3187 170.197 58.052C169.963 57.7853 169.685 57.5827 169.365 57.444C169.056 57.3053 168.725 57.236 168.373 57.236C168.021 57.236 167.685 57.3053 167.365 57.444C167.056 57.5827 166.784 57.7853 166.549 58.052C166.315 58.3187 166.128 58.6493 165.989 59.044C165.861 59.428 165.797 59.8707 165.797 60.372ZM164.357 60.372C164.357 59.764 164.443 59.1987 164.613 58.676C164.784 58.1427 165.04 57.684 165.381 57.3C165.723 56.9053 166.144 56.596 166.645 56.372C167.147 56.148 167.723 56.036 168.373 56.036C169.035 56.036 169.611 56.148 170.101 56.372C170.603 56.596 171.024 56.9053 171.365 57.3C171.707 57.684 171.963 58.1427 172.133 58.676C172.304 59.1987 172.389 59.764 172.389 60.372C172.389 60.98 172.304 61.5453 172.133 62.068C171.963 62.5907 171.707 63.0493 171.365 63.444C171.024 63.828 170.603 64.132 170.101 64.356C169.611 64.5693 169.035 64.676 168.373 64.676C167.723 64.676 167.147 64.5693 166.645 64.356C166.144 64.132 165.723 63.828 165.381 63.444C165.04 63.0493 164.784 62.5907 164.613 62.068C164.443 61.5453 164.357 60.98 164.357 60.372ZM173.993 56.228H175.273V57.54H175.305C175.87 56.5373 176.766 56.036 177.993 56.036C178.537 56.036 178.99 56.1107 179.353 56.26C179.715 56.4093 180.009 56.6173 180.233 56.884C180.457 57.1507 180.611 57.4707 180.697 57.844C180.793 58.2067 180.841 58.612 180.841 59.06V64.5H179.481V58.9C179.481 58.388 179.331 57.9827 179.033 57.684C178.734 57.3853 178.323 57.236 177.801 57.236C177.385 57.236 177.022 57.3 176.713 57.428C176.414 57.556 176.163 57.7373 175.961 57.972C175.758 58.2067 175.603 58.484 175.497 58.804C175.401 59.1133 175.353 59.4547 175.353 59.828V64.5H173.993V56.228Z" fill="black" fill-opacity="0.68"/>
<mask id="path-2-inside-1_65346_30750" fill="white">
<path d="M270 29H510V89H270V29Z"/>
</mask>
<path d="M270 29H510V89H270V29Z" fill="black" fill-opacity="0.04"/>
<path d="M510 89V88H270V89V90H510V89Z" fill="black" fill-opacity="0.2" mask="url(#path-2-inside-1_65346_30750)"/>
<path fill-rule="evenodd" clip-rule="evenodd" d="M306.4 65.5999H289.6C288.606 65.5999 287.8 64.794 287.8 63.7999V54.1999C287.8 53.2058 288.606 52.3999 289.6 52.3999H306.4C307.394 52.3999 308.2 53.2058 308.2 54.1999V63.7999C308.2 64.794 307.394 65.5999 306.4 65.5999ZM289.6 64.3999H306.4C306.731 64.3999 307 64.1313 307 63.7999V58.3999H289V63.7999C289 64.1313 289.269 64.3999 289.6 64.3999ZM306.4 53.5999H289.6C289.269 53.5999 289 53.8685 289 54.1999V55.9999H307V54.1999C307 53.8685 306.731 53.5999 306.4 53.5999ZM291.1 61.3999H292.3C292.797 61.3999 293.2 61.8028 293.2 62.2999C293.2 62.797 292.797 63.1999 292.3 63.1999H291.1C290.603 63.1999 290.2 62.797 290.2 62.2999C290.2 61.8028 290.603 61.3999 291.1 61.3999ZM295.3 61.3999H296.5C296.997 61.3999 297.4 61.8028 297.4 62.2999C297.4 62.797 296.997 63.1999 296.5 63.1999H295.3C294.803 63.1999 294.4 62.797 294.4 62.2999C294.4 61.8028 294.803 61.3999 295.3 61.3999ZM299.5 61.3999H300.7C301.197 61.3999 301.6 61.8028 301.6 62.2999C301.6 62.797 301.197 63.1999 300.7 63.1999H299.5C299.003 63.1999 298.6 62.797 298.6 62.2999C298.6 61.8028 299.003 61.3999 299.5 61.3999Z" fill="black" fill-opacity="0.68"/>
<path d="M323.248 53.576H324.768V63.72H330.816V65H323.248V53.576ZM339.443 64.968C339.208 65.1067 338.883 65.176 338.467 65.176C338.115 65.176 337.832 65.08 337.619 64.888C337.416 64.6853 337.315 64.36 337.315 63.912C336.941 64.36 336.504 64.6853 336.003 64.888C335.512 65.08 334.979 65.176 334.403 65.176C334.029 65.176 333.672 65.1333 333.331 65.048C333 64.9627 332.712 64.8293 332.467 64.648C332.221 64.4667 332.024 64.232 331.875 63.944C331.736 63.6453 331.667 63.288 331.667 62.872C331.667 62.4027 331.747 62.0187 331.907 61.72C332.067 61.4213 332.275 61.1813 332.531 61C332.797 60.808 333.096 60.664 333.427 60.568C333.768 60.472 334.115 60.392 334.467 60.328C334.84 60.2533 335.192 60.2 335.523 60.168C335.864 60.1253 336.163 60.072 336.419 60.008C336.675 59.9333 336.877 59.832 337.027 59.704C337.176 59.5653 337.251 59.368 337.251 59.112C337.251 58.8133 337.192 58.5733 337.075 58.392C336.968 58.2107 336.824 58.072 336.643 57.976C336.472 57.88 336.275 57.816 336.051 57.784C335.837 57.752 335.624 57.736 335.411 57.736C334.835 57.736 334.355 57.848 333.971 58.072C333.587 58.2853 333.379 58.696 333.347 59.304H331.987C332.008 58.792 332.115 58.36 332.307 58.008C332.499 57.656 332.755 57.3733 333.075 57.16C333.395 56.936 333.757 56.776 334.163 56.68C334.579 56.584 335.021 56.536 335.491 56.536C335.864 56.536 336.232 56.5627 336.595 56.616C336.968 56.6693 337.304 56.7813 337.603 56.952C337.901 57.112 338.141 57.3413 338.323 57.64C338.504 57.9387 338.595 58.328 338.595 58.808V63.064C338.595 63.384 338.611 63.6187 338.643 63.768C338.685 63.9173 338.813 63.992 339.027 63.992C339.144 63.992 339.283 63.9653 339.443 63.912V64.968ZM337.235 60.728C337.064 60.856 336.84 60.952 336.563 61.016C336.285 61.0693 335.992 61.1173 335.683 61.16C335.384 61.192 335.08 61.2347 334.771 61.288C334.461 61.3307 334.184 61.4053 333.939 61.512C333.693 61.6187 333.491 61.7733 333.331 61.976C333.181 62.168 333.107 62.4347 333.107 62.776C333.107 63 333.149 63.192 333.235 63.352C333.331 63.5013 333.448 63.624 333.587 63.72C333.736 63.816 333.907 63.8853 334.099 63.928C334.291 63.9707 334.493 63.992 334.707 63.992C335.155 63.992 335.539 63.9333 335.859 63.816C336.179 63.688 336.44 63.5333 336.643 63.352C336.845 63.16 336.995 62.9573 337.091 62.744C337.187 62.52 337.235 62.312 337.235 62.12V60.728ZM340.956 53.576H342.316V57.848H342.348C342.572 57.3893 342.924 57.0587 343.404 56.856C343.884 56.6427 344.412 56.536 344.988 56.536C345.628 56.536 346.183 56.6533 346.652 56.888C347.132 57.1227 347.527 57.4427 347.836 57.848C348.156 58.2427 348.396 58.7013 348.556 59.224C348.716 59.7467 348.796 60.3013 348.796 60.888C348.796 61.4747 348.716 62.0293 348.556 62.552C348.407 63.0747 348.172 63.5333 347.852 63.928C347.543 64.312 347.148 64.616 346.668 64.84C346.199 65.064 345.65 65.176 345.02 65.176C344.818 65.176 344.588 65.1547 344.332 65.112C344.087 65.0693 343.842 65 343.596 64.904C343.351 64.808 343.116 64.68 342.892 64.52C342.679 64.3493 342.498 64.1413 342.348 63.896H342.316V65H340.956V53.576ZM347.356 60.792C347.356 60.408 347.303 60.0347 347.196 59.672C347.1 59.2987 346.946 58.968 346.732 58.68C346.53 58.392 346.263 58.1627 345.932 57.992C345.612 57.8213 345.234 57.736 344.796 57.736C344.338 57.736 343.948 57.8267 343.628 58.008C343.308 58.1893 343.047 58.4293 342.844 58.728C342.642 59.016 342.492 59.3467 342.396 59.72C342.311 60.0933 342.268 60.472 342.268 60.856C342.268 61.2613 342.316 61.656 342.412 62.04C342.508 62.4133 342.658 62.744 342.86 63.032C343.074 63.32 343.346 63.5547 343.676 63.736C344.007 63.9067 344.407 63.992 344.876 63.992C345.346 63.992 345.735 63.9013 346.044 63.72C346.364 63.5387 346.62 63.2987 346.812 63C347.004 62.7013 347.143 62.36 347.228 61.976C347.314 61.592 347.356 61.1973 347.356 60.792ZM356.337 60.072C356.315 59.752 356.241 59.448 356.113 59.16C355.995 58.872 355.83 58.6267 355.617 58.424C355.414 58.2107 355.169 58.0453 354.881 57.928C354.603 57.8 354.294 57.736 353.953 57.736C353.601 57.736 353.281 57.8 352.993 57.928C352.715 58.0453 352.475 58.2107 352.273 58.424C352.07 58.6373 351.91 58.888 351.793 59.176C351.675 59.4533 351.606 59.752 351.585 60.072H356.337ZM357.649 62.376C357.467 63.304 357.067 64.0027 356.449 64.472C355.83 64.9413 355.051 65.176 354.113 65.176C353.451 65.176 352.875 65.0693 352.385 64.856C351.905 64.6427 351.499 64.344 351.169 63.96C350.838 63.576 350.587 63.1173 350.417 62.584C350.257 62.0507 350.166 61.4693 350.145 60.84C350.145 60.2107 350.241 59.6347 350.433 59.112C350.625 58.5893 350.891 58.136 351.233 57.752C351.585 57.368 351.995 57.0693 352.465 56.856C352.945 56.6427 353.467 56.536 354.033 56.536C354.769 56.536 355.377 56.6907 355.857 57C356.347 57.2987 356.737 57.6827 357.025 58.152C357.323 58.6213 357.526 59.1333 357.633 59.688C357.75 60.2427 357.798 60.7707 357.777 61.272H351.585C351.574 61.6347 351.617 61.9813 351.713 62.312C351.809 62.632 351.963 62.92 352.177 63.176C352.39 63.4213 352.662 63.6187 352.993 63.768C353.323 63.9173 353.713 63.992 354.161 63.992C354.737 63.992 355.206 63.8587 355.569 63.592C355.942 63.3253 356.187 62.92 356.305 62.376H357.649ZM359.466 53.576H360.826V65H359.466V53.576Z" fill="black" fill-opacity="0.68"/>
</svg>
