<svg width="600" height="400" viewBox="0 0 600 400" fill="none" xmlns="http://www.w3.org/2000/svg">
<rect width="600" height="400" fill="black" fill-opacity="0.04"/>
<path d="M101.568 160.5H99.984L97.376 150.9H97.344L94.704 160.5H93.12L90.192 149.076H91.744L93.984 158.58H94.016L96.576 149.076H98.224L100.752 158.58H100.784L103.104 149.076H104.624L101.568 160.5ZM107.277 150.74H105.917V149.076H107.277V150.74ZM105.917 152.228H107.277V160.5H105.917V152.228ZM111.271 152.228H112.919V153.428H111.271V158.564C111.271 158.724 111.282 158.852 111.303 158.948C111.335 159.044 111.389 159.119 111.463 159.172C111.538 159.225 111.639 159.263 111.767 159.284C111.906 159.295 112.082 159.3 112.295 159.3H112.919V160.5H111.879C111.527 160.5 111.223 160.479 110.967 160.436C110.722 160.383 110.519 160.292 110.359 160.164C110.21 160.036 110.098 159.855 110.023 159.62C109.949 159.385 109.911 159.076 109.911 158.692V153.428H108.503V152.228H109.911V149.748H111.271V152.228ZM114.43 149.076H115.79V153.444H115.822C115.929 153.188 116.078 152.975 116.27 152.804C116.462 152.623 116.676 152.479 116.91 152.372C117.156 152.255 117.406 152.169 117.662 152.116C117.929 152.063 118.185 152.036 118.43 152.036C118.974 152.036 119.428 152.111 119.79 152.26C120.153 152.409 120.446 152.617 120.67 152.884C120.894 153.151 121.049 153.471 121.134 153.844C121.23 154.207 121.278 154.612 121.278 155.06V160.5H119.918V154.9C119.918 154.388 119.769 153.983 119.47 153.684C119.172 153.385 118.761 153.236 118.238 153.236C117.822 153.236 117.46 153.3 117.15 153.428C116.852 153.556 116.601 153.737 116.398 153.972C116.196 154.207 116.041 154.484 115.934 154.804C115.838 155.113 115.79 155.455 115.79 155.828V160.5H114.43V149.076ZM127.854 149.076H129.214V160.5H127.854V149.076ZM138.649 160.468C138.414 160.607 138.089 160.676 137.673 160.676C137.321 160.676 137.038 160.58 136.825 160.388C136.622 160.185 136.521 159.86 136.521 159.412C136.148 159.86 135.71 160.185 135.209 160.388C134.718 160.58 134.185 160.676 133.609 160.676C133.236 160.676 132.878 160.633 132.537 160.548C132.206 160.463 131.918 160.329 131.673 160.148C131.428 159.967 131.23 159.732 131.081 159.444C130.942 159.145 130.873 158.788 130.873 158.372C130.873 157.903 130.953 157.519 131.113 157.22C131.273 156.921 131.481 156.681 131.737 156.5C132.004 156.308 132.302 156.164 132.633 156.068C132.974 155.972 133.321 155.892 133.673 155.828C134.046 155.753 134.398 155.7 134.729 155.668C135.07 155.625 135.369 155.572 135.625 155.508C135.881 155.433 136.084 155.332 136.233 155.204C136.382 155.065 136.457 154.868 136.457 154.612C136.457 154.313 136.398 154.073 136.281 153.892C136.174 153.711 136.03 153.572 135.849 153.476C135.678 153.38 135.481 153.316 135.257 153.284C135.044 153.252 134.83 153.236 134.617 153.236C134.041 153.236 133.561 153.348 133.177 153.572C132.793 153.785 132.585 154.196 132.553 154.804H131.193C131.214 154.292 131.321 153.86 131.513 153.508C131.705 153.156 131.961 152.873 132.281 152.66C132.601 152.436 132.964 152.276 133.369 152.18C133.785 152.084 134.228 152.036 134.697 152.036C135.07 152.036 135.438 152.063 135.801 152.116C136.174 152.169 136.51 152.281 136.809 152.452C137.108 152.612 137.348 152.841 137.529 153.14C137.71 153.439 137.801 153.828 137.801 154.308V158.564C137.801 158.884 137.817 159.119 137.849 159.268C137.892 159.417 138.02 159.492 138.233 159.492C138.35 159.492 138.489 159.465 138.649 159.412V160.468ZM136.441 156.228C136.27 156.356 136.046 156.452 135.769 156.516C135.492 156.569 135.198 156.617 134.889 156.66C134.59 156.692 134.286 156.735 133.977 156.788C133.668 156.831 133.39 156.905 133.145 157.012C132.9 157.119 132.697 157.273 132.537 157.476C132.388 157.668 132.313 157.935 132.313 158.276C132.313 158.5 132.356 158.692 132.441 158.852C132.537 159.001 132.654 159.124 132.793 159.22C132.942 159.316 133.113 159.385 133.305 159.428C133.497 159.471 133.7 159.492 133.913 159.492C134.361 159.492 134.745 159.433 135.065 159.316C135.385 159.188 135.646 159.033 135.849 158.852C136.052 158.66 136.201 158.457 136.297 158.244C136.393 158.02 136.441 157.812 136.441 157.62V156.228ZM139.963 149.076H141.323V153.348H141.355C141.579 152.889 141.931 152.559 142.411 152.356C142.891 152.143 143.419 152.036 143.995 152.036C144.635 152.036 145.189 152.153 145.659 152.388C146.139 152.623 146.533 152.943 146.843 153.348C147.163 153.743 147.403 154.201 147.563 154.724C147.723 155.247 147.803 155.801 147.803 156.388C147.803 156.975 147.723 157.529 147.563 158.052C147.413 158.575 147.179 159.033 146.859 159.428C146.549 159.812 146.155 160.116 145.675 160.34C145.205 160.564 144.656 160.676 144.027 160.676C143.824 160.676 143.595 160.655 143.339 160.612C143.093 160.569 142.848 160.5 142.603 160.404C142.357 160.308 142.123 160.18 141.899 160.02C141.685 159.849 141.504 159.641 141.355 159.396H141.323V160.5H139.963V149.076ZM146.363 156.292C146.363 155.908 146.309 155.535 146.203 155.172C146.107 154.799 145.952 154.468 145.739 154.18C145.536 153.892 145.269 153.663 144.939 153.492C144.619 153.321 144.24 153.236 143.803 153.236C143.344 153.236 142.955 153.327 142.635 153.508C142.315 153.689 142.053 153.929 141.851 154.228C141.648 154.516 141.499 154.847 141.403 155.22C141.317 155.593 141.275 155.972 141.275 156.356C141.275 156.761 141.323 157.156 141.419 157.54C141.515 157.913 141.664 158.244 141.867 158.532C142.08 158.82 142.352 159.055 142.683 159.236C143.013 159.407 143.413 159.492 143.883 159.492C144.352 159.492 144.741 159.401 145.051 159.22C145.371 159.039 145.627 158.799 145.819 158.5C146.011 158.201 146.149 157.86 146.235 157.476C146.32 157.092 146.363 156.697 146.363 156.292ZM155.143 155.572C155.122 155.252 155.047 154.948 154.919 154.66C154.802 154.372 154.636 154.127 154.423 153.924C154.22 153.711 153.975 153.545 153.687 153.428C153.41 153.3 153.1 153.236 152.759 153.236C152.407 153.236 152.087 153.3 151.799 153.428C151.522 153.545 151.282 153.711 151.079 153.924C150.876 154.137 150.716 154.388 150.599 154.676C150.482 154.953 150.412 155.252 150.391 155.572H155.143ZM156.455 157.876C156.274 158.804 155.874 159.503 155.255 159.972C154.636 160.441 153.858 160.676 152.919 160.676C152.258 160.676 151.682 160.569 151.191 160.356C150.711 160.143 150.306 159.844 149.975 159.46C149.644 159.076 149.394 158.617 149.223 158.084C149.063 157.551 148.972 156.969 148.951 156.34C148.951 155.711 149.047 155.135 149.239 154.612C149.431 154.089 149.698 153.636 150.039 153.252C150.391 152.868 150.802 152.569 151.271 152.356C151.751 152.143 152.274 152.036 152.839 152.036C153.575 152.036 154.183 152.191 154.663 152.5C155.154 152.799 155.543 153.183 155.831 153.652C156.13 154.121 156.332 154.633 156.439 155.188C156.556 155.743 156.604 156.271 156.583 156.772H150.391C150.38 157.135 150.423 157.481 150.519 157.812C150.615 158.132 150.77 158.42 150.983 158.676C151.196 158.921 151.468 159.119 151.799 159.268C152.13 159.417 152.519 159.492 152.967 159.492C153.543 159.492 154.012 159.359 154.375 159.092C154.748 158.825 154.994 158.42 155.111 157.876H156.455ZM158.073 149.076H159.433V160.5H158.073V149.076Z" fill="black" fill-opacity="0.68"/>
<mask id="path-2-inside-1_65346_30768" fill="white">
<path d="M270 125H510V185H270V125Z"/>
</mask>
<path d="M270 125H510V185H270V125Z" fill="black" fill-opacity="0.04"/>
<path d="M510 185V184H270V185V186H510V185Z" fill="black" fill-opacity="0.2" mask="url(#path-2-inside-1_65346_30768)"/>
<path d="M286.936 138.432H288.076V146.04H292.612V147H286.936V138.432ZM299.112 146.976C298.936 147.08 298.692 147.132 298.38 147.132C298.116 147.132 297.904 147.06 297.744 146.916C297.592 146.764 297.516 146.52 297.516 146.184C297.236 146.52 296.908 146.764 296.532 146.916C296.164 147.06 295.764 147.132 295.332 147.132C295.052 147.132 294.784 147.1 294.528 147.036C294.28 146.972 294.064 146.872 293.88 146.736C293.696 146.6 293.548 146.424 293.436 146.208C293.332 145.984 293.28 145.716 293.28 145.404C293.28 145.052 293.34 144.764 293.46 144.54C293.58 144.316 293.736 144.136 293.928 144C294.128 143.856 294.352 143.748 294.6 143.676C294.856 143.604 295.116 143.544 295.38 143.496C295.66 143.44 295.924 143.4 296.172 143.376C296.428 143.344 296.652 143.304 296.844 143.256C297.036 143.2 297.188 143.124 297.3 143.028C297.412 142.924 297.468 142.776 297.468 142.584C297.468 142.36 297.424 142.18 297.336 142.044C297.256 141.908 297.148 141.804 297.012 141.732C296.884 141.66 296.736 141.612 296.568 141.588C296.408 141.564 296.248 141.552 296.088 141.552C295.656 141.552 295.296 141.636 295.008 141.804C294.72 141.964 294.564 142.272 294.54 142.728H293.52C293.536 142.344 293.616 142.02 293.76 141.756C293.904 141.492 294.096 141.28 294.336 141.12C294.576 140.952 294.848 140.832 295.152 140.76C295.464 140.688 295.796 140.652 296.148 140.652C296.428 140.652 296.704 140.672 296.976 140.712C297.256 140.752 297.508 140.836 297.732 140.964C297.956 141.084 298.136 141.256 298.272 141.48C298.408 141.704 298.476 141.996 298.476 142.356V145.548C298.476 145.788 298.488 145.964 298.512 146.076C298.544 146.188 298.64 146.244 298.8 146.244C298.888 146.244 298.992 146.224 299.112 146.184V146.976ZM297.456 143.796C297.328 143.892 297.16 143.964 296.952 144.012C296.744 144.052 296.524 144.088 296.292 144.12C296.068 144.144 295.84 144.176 295.608 144.216C295.376 144.248 295.168 144.304 294.984 144.384C294.8 144.464 294.648 144.58 294.528 144.732C294.416 144.876 294.36 145.076 294.36 145.332C294.36 145.5 294.392 145.644 294.456 145.764C294.528 145.876 294.616 145.968 294.72 146.04C294.832 146.112 294.96 146.164 295.104 146.196C295.248 146.228 295.4 146.244 295.56 146.244C295.896 146.244 296.184 146.2 296.424 146.112C296.664 146.016 296.86 145.9 297.012 145.764C297.164 145.62 297.276 145.468 297.348 145.308C297.42 145.14 297.456 144.984 297.456 144.84V143.796ZM300.277 138.432H301.297V141.636H301.321C301.489 141.292 301.753 141.044 302.113 140.892C302.473 140.732 302.869 140.652 303.301 140.652C303.781 140.652 304.197 140.74 304.549 140.916C304.909 141.092 305.205 141.332 305.437 141.636C305.677 141.932 305.857 142.276 305.977 142.668C306.097 143.06 306.157 143.476 306.157 143.916C306.157 144.356 306.097 144.772 305.977 145.164C305.865 145.556 305.689 145.9 305.449 146.196C305.217 146.484 304.921 146.712 304.561 146.88C304.209 147.048 303.797 147.132 303.325 147.132C303.173 147.132 303.001 147.116 302.809 147.084C302.625 147.052 302.441 147 302.257 146.928C302.073 146.856 301.897 146.76 301.729 146.64C301.569 146.512 301.433 146.356 301.321 146.172H301.297V147H300.277V138.432ZM305.077 143.844C305.077 143.556 305.037 143.276 304.957 143.004C304.885 142.724 304.769 142.476 304.609 142.26C304.457 142.044 304.257 141.872 304.009 141.744C303.769 141.616 303.485 141.552 303.157 141.552C302.813 141.552 302.521 141.62 302.281 141.756C302.041 141.892 301.845 142.072 301.693 142.296C301.541 142.512 301.429 142.76 301.357 143.04C301.293 143.32 301.261 143.604 301.261 143.892C301.261 144.196 301.297 144.492 301.369 144.78C301.441 145.06 301.553 145.308 301.705 145.524C301.865 145.74 302.069 145.916 302.317 146.052C302.565 146.18 302.865 146.244 303.217 146.244C303.569 146.244 303.861 146.176 304.093 146.04C304.333 145.904 304.525 145.724 304.669 145.5C304.813 145.276 304.917 145.02 304.981 144.732C305.045 144.444 305.077 144.148 305.077 143.844ZM311.843 143.304C311.827 143.064 311.771 142.836 311.675 142.62C311.587 142.404 311.463 142.22 311.303 142.068C311.151 141.908 310.967 141.784 310.751 141.696C310.543 141.6 310.311 141.552 310.055 141.552C309.791 141.552 309.551 141.6 309.335 141.696C309.127 141.784 308.947 141.908 308.795 142.068C308.643 142.228 308.523 142.416 308.435 142.632C308.347 142.84 308.295 143.064 308.279 143.304H311.843ZM312.827 145.032C312.691 145.728 312.391 146.252 311.927 146.604C311.463 146.956 310.879 147.132 310.175 147.132C309.679 147.132 309.247 147.052 308.879 146.892C308.519 146.732 308.215 146.508 307.967 146.22C307.719 145.932 307.531 145.588 307.403 145.188C307.283 144.788 307.215 144.352 307.199 143.88C307.199 143.408 307.271 142.976 307.415 142.584C307.559 142.192 307.759 141.852 308.015 141.564C308.279 141.276 308.587 141.052 308.939 140.892C309.299 140.732 309.691 140.652 310.115 140.652C310.667 140.652 311.123 140.768 311.483 141C311.851 141.224 312.143 141.512 312.359 141.864C312.583 142.216 312.735 142.6 312.815 143.016C312.903 143.432 312.939 143.828 312.923 144.204H308.279C308.271 144.476 308.303 144.736 308.375 144.984C308.447 145.224 308.563 145.44 308.723 145.632C308.883 145.816 309.087 145.964 309.335 146.076C309.583 146.188 309.875 146.244 310.211 146.244C310.643 146.244 310.995 146.144 311.267 145.944C311.547 145.744 311.731 145.44 311.819 145.032H312.827ZM314.22 138.432H315.24V147H314.22V138.432Z" fill="black" fill-opacity="0.68"/>
<path d="M289.84 158.856H286.032V157.576H295.168V158.856H291.36V169H289.84V158.856ZM297.878 170.104C297.718 170.509 297.558 170.851 297.398 171.128C297.249 171.405 297.078 171.629 296.886 171.8C296.705 171.981 296.497 172.109 296.262 172.184C296.038 172.269 295.777 172.312 295.478 172.312C295.318 172.312 295.158 172.301 294.998 172.28C294.838 172.259 294.684 172.221 294.534 172.168V170.92C294.652 170.973 294.785 171.016 294.934 171.048C295.094 171.091 295.228 171.112 295.334 171.112C295.612 171.112 295.841 171.043 296.022 170.904C296.214 170.776 296.358 170.589 296.454 170.344L297.014 168.952L293.734 160.728H295.27L297.686 167.496H297.718L300.038 160.728H301.478L297.878 170.104ZM302.878 160.728H304.238V161.848H304.27C304.494 161.389 304.846 161.059 305.326 160.856C305.806 160.643 306.334 160.536 306.91 160.536C307.55 160.536 308.105 160.653 308.574 160.888C309.054 161.123 309.449 161.443 309.758 161.848C310.078 162.243 310.318 162.701 310.478 163.224C310.638 163.747 310.718 164.301 310.718 164.888C310.718 165.475 310.638 166.029 310.478 166.552C310.329 167.075 310.094 167.533 309.774 167.928C309.465 168.312 309.07 168.616 308.59 168.84C308.121 169.064 307.572 169.176 306.942 169.176C306.74 169.176 306.51 169.155 306.254 169.112C306.009 169.069 305.764 169 305.518 168.904C305.273 168.808 305.038 168.68 304.814 168.52C304.601 168.349 304.42 168.141 304.27 167.896H304.238V172.152H302.878V160.728ZM309.278 164.792C309.278 164.408 309.225 164.035 309.118 163.672C309.022 163.299 308.868 162.968 308.654 162.68C308.452 162.392 308.185 162.163 307.854 161.992C307.534 161.821 307.156 161.736 306.718 161.736C306.26 161.736 305.87 161.827 305.55 162.008C305.23 162.189 304.969 162.429 304.766 162.728C304.564 163.016 304.414 163.347 304.318 163.72C304.233 164.093 304.19 164.472 304.19 164.856C304.19 165.261 304.238 165.656 304.334 166.04C304.43 166.413 304.58 166.744 304.782 167.032C304.996 167.32 305.268 167.555 305.598 167.736C305.929 167.907 306.329 167.992 306.798 167.992C307.268 167.992 307.657 167.901 307.966 167.72C308.286 167.539 308.542 167.299 308.734 167C308.926 166.701 309.065 166.36 309.15 165.976C309.236 165.592 309.278 165.197 309.278 164.792ZM318.259 164.072C318.237 163.752 318.163 163.448 318.035 163.16C317.917 162.872 317.752 162.627 317.539 162.424C317.336 162.211 317.091 162.045 316.803 161.928C316.525 161.8 316.216 161.736 315.875 161.736C315.523 161.736 315.203 161.8 314.915 161.928C314.637 162.045 314.397 162.211 314.195 162.424C313.992 162.637 313.832 162.888 313.715 163.176C313.597 163.453 313.528 163.752 313.507 164.072H318.259ZM319.571 166.376C319.389 167.304 318.989 168.003 318.371 168.472C317.752 168.941 316.973 169.176 316.035 169.176C315.373 169.176 314.797 169.069 314.307 168.856C313.827 168.643 313.421 168.344 313.091 167.96C312.76 167.576 312.509 167.117 312.339 166.584C312.179 166.051 312.088 165.469 312.067 164.84C312.067 164.211 312.163 163.635 312.355 163.112C312.547 162.589 312.813 162.136 313.155 161.752C313.507 161.368 313.917 161.069 314.387 160.856C314.867 160.643 315.389 160.536 315.955 160.536C316.691 160.536 317.299 160.691 317.779 161C318.269 161.299 318.659 161.683 318.947 162.152C319.245 162.621 319.448 163.133 319.555 163.688C319.672 164.243 319.72 164.771 319.699 165.272H313.507C313.496 165.635 313.539 165.981 313.635 166.312C313.731 166.632 313.885 166.92 314.099 167.176C314.312 167.421 314.584 167.619 314.915 167.768C315.245 167.917 315.635 167.992 316.083 167.992C316.659 167.992 317.128 167.859 317.491 167.592C317.864 167.325 318.109 166.92 318.227 166.376H319.571ZM327.85 160.728H329.498V161.928H327.85V167.064C327.85 167.224 327.86 167.352 327.882 167.448C327.914 167.544 327.967 167.619 328.042 167.672C328.116 167.725 328.218 167.763 328.346 167.784C328.484 167.795 328.66 167.8 328.874 167.8H329.498V169H328.458C328.106 169 327.802 168.979 327.546 168.936C327.3 168.883 327.098 168.792 326.938 168.664C326.788 168.536 326.676 168.355 326.602 168.12C326.527 167.885 326.49 167.576 326.49 167.192V161.928H325.082V160.728H326.49V158.248H327.85V160.728ZM332.2 164.872C332.2 165.373 332.264 165.821 332.392 166.216C332.531 166.6 332.718 166.925 332.952 167.192C333.187 167.448 333.459 167.645 333.768 167.784C334.088 167.923 334.424 167.992 334.776 167.992C335.128 167.992 335.459 167.923 335.768 167.784C336.088 167.645 336.366 167.448 336.6 167.192C336.835 166.925 337.016 166.6 337.144 166.216C337.283 165.821 337.352 165.373 337.352 164.872C337.352 164.371 337.283 163.928 337.144 163.544C337.016 163.149 336.835 162.819 336.6 162.552C336.366 162.285 336.088 162.083 335.768 161.944C335.459 161.805 335.128 161.736 334.776 161.736C334.424 161.736 334.088 161.805 333.768 161.944C333.459 162.083 333.187 162.285 332.952 162.552C332.718 162.819 332.531 163.149 332.392 163.544C332.264 163.928 332.2 164.371 332.2 164.872ZM330.76 164.872C330.76 164.264 330.846 163.699 331.016 163.176C331.187 162.643 331.443 162.184 331.784 161.8C332.126 161.405 332.547 161.096 333.048 160.872C333.55 160.648 334.126 160.536 334.776 160.536C335.438 160.536 336.014 160.648 336.504 160.872C337.006 161.096 337.427 161.405 337.768 161.8C338.11 162.184 338.366 162.643 338.536 163.176C338.707 163.699 338.792 164.264 338.792 164.872C338.792 165.48 338.707 166.045 338.536 166.568C338.366 167.091 338.11 167.549 337.768 167.944C337.427 168.328 337.006 168.632 336.504 168.856C336.014 169.069 335.438 169.176 334.776 169.176C334.126 169.176 333.55 169.069 333.048 168.856C332.547 168.632 332.126 168.328 331.784 167.944C331.443 167.549 331.187 167.091 331.016 166.568C330.846 166.045 330.76 165.48 330.76 164.872ZM346.081 166.392C346.092 166.691 346.161 166.947 346.289 167.16C346.417 167.363 346.582 167.528 346.785 167.656C346.998 167.773 347.233 167.859 347.489 167.912C347.756 167.965 348.028 167.992 348.305 167.992C348.518 167.992 348.742 167.976 348.977 167.944C349.212 167.912 349.425 167.853 349.617 167.768C349.82 167.683 349.985 167.56 350.113 167.4C350.241 167.229 350.305 167.016 350.305 166.76C350.305 166.408 350.172 166.141 349.905 165.96C349.638 165.779 349.302 165.635 348.897 165.528C348.502 165.411 348.07 165.309 347.601 165.224C347.132 165.128 346.694 165 346.289 164.84C345.894 164.669 345.564 164.435 345.297 164.136C345.03 163.837 344.897 163.421 344.897 162.888C344.897 162.472 344.988 162.115 345.169 161.816C345.361 161.517 345.601 161.277 345.889 161.096C346.188 160.904 346.518 160.765 346.881 160.68C347.254 160.584 347.622 160.536 347.985 160.536C348.454 160.536 348.886 160.579 349.281 160.664C349.676 160.739 350.022 160.877 350.321 161.08C350.63 161.272 350.876 161.539 351.057 161.88C351.238 162.211 351.345 162.627 351.377 163.128H350.017C349.996 162.861 349.926 162.643 349.809 162.472C349.692 162.291 349.542 162.147 349.361 162.04C349.18 161.933 348.977 161.859 348.753 161.816C348.54 161.763 348.321 161.736 348.097 161.736C347.894 161.736 347.686 161.752 347.473 161.784C347.27 161.816 347.084 161.875 346.913 161.96C346.742 162.035 346.604 162.141 346.497 162.28C346.39 162.408 346.337 162.579 346.337 162.792C346.337 163.027 346.417 163.224 346.577 163.384C346.748 163.533 346.961 163.661 347.217 163.768C347.473 163.864 347.761 163.949 348.081 164.024C348.401 164.088 348.721 164.157 349.041 164.232C349.382 164.307 349.713 164.397 350.033 164.504C350.364 164.611 350.652 164.755 350.897 164.936C351.153 165.107 351.356 165.325 351.505 165.592C351.665 165.859 351.745 166.189 351.745 166.584C351.745 167.085 351.638 167.501 351.425 167.832C351.222 168.163 350.95 168.429 350.609 168.632C350.278 168.835 349.9 168.973 349.473 169.048C349.057 169.133 348.641 169.176 348.225 169.176C347.766 169.176 347.329 169.128 346.913 169.032C346.497 168.936 346.129 168.781 345.809 168.568C345.489 168.344 345.233 168.056 345.041 167.704C344.849 167.341 344.742 166.904 344.721 166.392H346.081ZM359.193 164.072C359.172 163.752 359.097 163.448 358.969 163.16C358.852 162.872 358.686 162.627 358.473 162.424C358.27 162.211 358.025 162.045 357.737 161.928C357.46 161.8 357.15 161.736 356.809 161.736C356.457 161.736 356.137 161.8 355.849 161.928C355.572 162.045 355.332 162.211 355.129 162.424C354.926 162.637 354.766 162.888 354.649 163.176C354.532 163.453 354.462 163.752 354.441 164.072H359.193ZM360.505 166.376C360.324 167.304 359.924 168.003 359.305 168.472C358.686 168.941 357.908 169.176 356.969 169.176C356.308 169.176 355.732 169.069 355.241 168.856C354.761 168.643 354.356 168.344 354.025 167.96C353.694 167.576 353.444 167.117 353.273 166.584C353.113 166.051 353.022 165.469 353.001 164.84C353.001 164.211 353.097 163.635 353.289 163.112C353.481 162.589 353.748 162.136 354.089 161.752C354.441 161.368 354.852 161.069 355.321 160.856C355.801 160.643 356.324 160.536 356.889 160.536C357.625 160.536 358.233 160.691 358.713 161C359.204 161.299 359.593 161.683 359.881 162.152C360.18 162.621 360.382 163.133 360.489 163.688C360.606 164.243 360.654 164.771 360.633 165.272H354.441C354.43 165.635 354.473 165.981 354.569 166.312C354.665 166.632 354.82 166.92 355.033 167.176C355.246 167.421 355.518 167.619 355.849 167.768C356.18 167.917 356.569 167.992 357.017 167.992C357.593 167.992 358.062 167.859 358.425 167.592C358.798 167.325 359.044 166.92 359.161 166.376H360.505ZM369.571 168.968C369.336 169.107 369.011 169.176 368.595 169.176C368.243 169.176 367.96 169.08 367.747 168.888C367.544 168.685 367.443 168.36 367.443 167.912C367.069 168.36 366.632 168.685 366.131 168.888C365.64 169.08 365.107 169.176 364.531 169.176C364.157 169.176 363.8 169.133 363.459 169.048C363.128 168.963 362.84 168.829 362.595 168.648C362.349 168.467 362.152 168.232 362.003 167.944C361.864 167.645 361.795 167.288 361.795 166.872C361.795 166.403 361.875 166.019 362.035 165.72C362.195 165.421 362.403 165.181 362.659 165C362.925 164.808 363.224 164.664 363.555 164.568C363.896 164.472 364.243 164.392 364.595 164.328C364.968 164.253 365.32 164.2 365.651 164.168C365.992 164.125 366.291 164.072 366.547 164.008C366.803 163.933 367.005 163.832 367.155 163.704C367.304 163.565 367.379 163.368 367.379 163.112C367.379 162.813 367.32 162.573 367.203 162.392C367.096 162.211 366.952 162.072 366.771 161.976C366.6 161.88 366.403 161.816 366.179 161.784C365.965 161.752 365.752 161.736 365.539 161.736C364.963 161.736 364.483 161.848 364.099 162.072C363.715 162.285 363.507 162.696 363.475 163.304H362.115C362.136 162.792 362.243 162.36 362.435 162.008C362.627 161.656 362.883 161.373 363.203 161.16C363.523 160.936 363.885 160.776 364.291 160.68C364.707 160.584 365.149 160.536 365.619 160.536C365.992 160.536 366.36 160.563 366.723 160.616C367.096 160.669 367.432 160.781 367.731 160.952C368.029 161.112 368.269 161.341 368.451 161.64C368.632 161.939 368.723 162.328 368.723 162.808V167.064C368.723 167.384 368.739 167.619 368.771 167.768C368.813 167.917 368.941 167.992 369.155 167.992C369.272 167.992 369.411 167.965 369.571 167.912V168.968ZM367.363 164.728C367.192 164.856 366.968 164.952 366.691 165.016C366.413 165.069 366.12 165.117 365.811 165.16C365.512 165.192 365.208 165.235 364.899 165.288C364.589 165.331 364.312 165.405 364.067 165.512C363.821 165.619 363.619 165.773 363.459 165.976C363.309 166.168 363.235 166.435 363.235 166.776C363.235 167 363.277 167.192 363.363 167.352C363.459 167.501 363.576 167.624 363.715 167.72C363.864 167.816 364.035 167.885 364.227 167.928C364.419 167.971 364.621 167.992 364.835 167.992C365.283 167.992 365.667 167.933 365.987 167.816C366.307 167.688 366.568 167.533 366.771 167.352C366.973 167.16 367.123 166.957 367.219 166.744C367.315 166.52 367.363 166.312 367.363 166.12V164.728ZM370.988 160.728H372.268V162.472H372.3C372.631 161.8 373.036 161.304 373.516 160.984C373.996 160.664 374.604 160.515 375.34 160.536V161.976C374.796 161.976 374.332 162.051 373.948 162.2C373.564 162.349 373.255 162.568 373.02 162.856C372.786 163.144 372.615 163.496 372.508 163.912C372.402 164.317 372.348 164.787 372.348 165.32V169H370.988V160.728ZM381.899 163.384C381.793 162.861 381.569 162.456 381.227 162.168C380.886 161.88 380.427 161.736 379.851 161.736C379.361 161.736 378.95 161.827 378.619 162.008C378.289 162.189 378.022 162.429 377.819 162.728C377.627 163.027 377.489 163.373 377.403 163.768C377.318 164.152 377.275 164.552 377.275 164.968C377.275 165.352 377.318 165.725 377.403 166.088C377.499 166.451 377.643 166.776 377.835 167.064C378.027 167.341 378.278 167.565 378.587 167.736C378.897 167.907 379.265 167.992 379.691 167.992C380.363 167.992 380.886 167.816 381.259 167.464C381.643 167.112 381.878 166.616 381.963 165.976H383.355C383.206 167 382.822 167.789 382.203 168.344C381.595 168.899 380.763 169.176 379.707 169.176C379.078 169.176 378.518 169.075 378.027 168.872C377.547 168.669 377.142 168.381 376.811 168.008C376.491 167.635 376.246 167.192 376.075 166.68C375.915 166.157 375.835 165.587 375.835 164.968C375.835 164.349 375.915 163.773 376.075 163.24C376.235 162.696 376.475 162.227 376.795 161.832C377.126 161.427 377.537 161.112 378.027 160.888C378.518 160.653 379.089 160.536 379.739 160.536C380.209 160.536 380.646 160.595 381.051 160.712C381.467 160.819 381.83 160.989 382.139 161.224C382.459 161.459 382.721 161.757 382.923 162.12C383.126 162.472 383.254 162.893 383.307 163.384H381.899ZM385.077 157.576H386.437V161.944H386.469C386.576 161.688 386.725 161.475 386.917 161.304C387.109 161.123 387.322 160.979 387.557 160.872C387.802 160.755 388.053 160.669 388.309 160.616C388.576 160.563 388.832 160.536 389.077 160.536C389.621 160.536 390.074 160.611 390.437 160.76C390.8 160.909 391.093 161.117 391.317 161.384C391.541 161.651 391.696 161.971 391.781 162.344C391.877 162.707 391.925 163.112 391.925 163.56V169H390.565V163.4C390.565 162.888 390.416 162.483 390.117 162.184C389.818 161.885 389.408 161.736 388.885 161.736C388.469 161.736 388.106 161.8 387.797 161.928C387.498 162.056 387.248 162.237 387.045 162.472C386.842 162.707 386.688 162.984 386.581 163.304C386.485 163.613 386.437 163.955 386.437 164.328V169H385.077V157.576ZM394.472 167.224H396.248V169H394.472V167.224ZM399.125 167.224H400.901V169H399.125V167.224ZM403.778 167.224H405.554V169H403.778V167.224Z" fill="black" fill-opacity="0.68"/>
<path d="M101.568 270.5H99.984L97.376 260.9H97.344L94.704 270.5H93.12L90.192 259.076H91.744L93.984 268.58H94.016L96.576 259.076H98.224L100.752 268.58H100.784L103.104 259.076H104.624L101.568 270.5ZM107.277 260.74H105.917V259.076H107.277V260.74ZM105.917 262.228H107.277V270.5H105.917V262.228ZM111.271 262.228H112.919V263.428H111.271V268.564C111.271 268.724 111.282 268.852 111.303 268.948C111.335 269.044 111.389 269.119 111.463 269.172C111.538 269.225 111.639 269.263 111.767 269.284C111.906 269.295 112.082 269.3 112.295 269.3H112.919V270.5H111.879C111.527 270.5 111.223 270.479 110.967 270.436C110.722 270.383 110.519 270.292 110.359 270.164C110.21 270.036 110.098 269.855 110.023 269.62C109.949 269.385 109.911 269.076 109.911 268.692V263.428H108.503V262.228H109.911V259.748H111.271V262.228ZM114.43 259.076H115.79V263.444H115.822C115.929 263.188 116.078 262.975 116.27 262.804C116.462 262.623 116.676 262.479 116.91 262.372C117.156 262.255 117.406 262.169 117.662 262.116C117.929 262.063 118.185 262.036 118.43 262.036C118.974 262.036 119.428 262.111 119.79 262.26C120.153 262.409 120.446 262.617 120.67 262.884C120.894 263.151 121.049 263.471 121.134 263.844C121.23 264.207 121.278 264.612 121.278 265.06V270.5H119.918V264.9C119.918 264.388 119.769 263.983 119.47 263.684C119.172 263.385 118.761 263.236 118.238 263.236C117.822 263.236 117.46 263.3 117.15 263.428C116.852 263.556 116.601 263.737 116.398 263.972C116.196 264.207 116.041 264.484 115.934 264.804C115.838 265.113 115.79 265.455 115.79 265.828V270.5H114.43V259.076ZM124.313 266.372C124.313 266.873 124.377 267.321 124.505 267.716C124.644 268.1 124.83 268.425 125.065 268.692C125.3 268.948 125.572 269.145 125.881 269.284C126.201 269.423 126.537 269.492 126.889 269.492C127.241 269.492 127.572 269.423 127.881 269.284C128.201 269.145 128.478 268.948 128.713 268.692C128.948 268.425 129.129 268.1 129.257 267.716C129.396 267.321 129.465 266.873 129.465 266.372C129.465 265.871 129.396 265.428 129.257 265.044C129.129 264.649 128.948 264.319 128.713 264.052C128.478 263.785 128.201 263.583 127.881 263.444C127.572 263.305 127.241 263.236 126.889 263.236C126.537 263.236 126.201 263.305 125.881 263.444C125.572 263.583 125.3 263.785 125.065 264.052C124.83 264.319 124.644 264.649 124.505 265.044C124.377 265.428 124.313 265.871 124.313 266.372ZM122.873 266.372C122.873 265.764 122.958 265.199 123.129 264.676C123.3 264.143 123.556 263.684 123.897 263.3C124.238 262.905 124.66 262.596 125.161 262.372C125.662 262.148 126.238 262.036 126.889 262.036C127.55 262.036 128.126 262.148 128.617 262.372C129.118 262.596 129.54 262.905 129.881 263.3C130.222 263.684 130.478 264.143 130.649 264.676C130.82 265.199 130.905 265.764 130.905 266.372C130.905 266.98 130.82 267.545 130.649 268.068C130.478 268.591 130.222 269.049 129.881 269.444C129.54 269.828 129.118 270.132 128.617 270.356C128.126 270.569 127.55 270.676 126.889 270.676C126.238 270.676 125.662 270.569 125.161 270.356C124.66 270.132 124.238 269.828 123.897 269.444C123.556 269.049 123.3 268.591 123.129 268.068C122.958 267.545 122.873 266.98 122.873 266.372ZM139.356 270.5H138.076V269.188H138.044C137.756 269.7 137.388 270.079 136.94 270.324C136.492 270.559 135.964 270.676 135.356 270.676C134.812 270.676 134.359 270.607 133.996 270.468C133.634 270.319 133.34 270.111 133.116 269.844C132.892 269.577 132.732 269.263 132.636 268.9C132.551 268.527 132.508 268.116 132.508 267.668V262.228H133.868V267.828C133.868 268.34 134.018 268.745 134.316 269.044C134.615 269.343 135.026 269.492 135.548 269.492C135.964 269.492 136.322 269.428 136.62 269.3C136.93 269.172 137.186 268.991 137.388 268.756C137.591 268.521 137.74 268.249 137.836 267.94C137.943 267.62 137.996 267.273 137.996 266.9V262.228H139.356V270.5ZM143.287 262.228H144.935V263.428H143.287V268.564C143.287 268.724 143.298 268.852 143.319 268.948C143.351 269.044 143.404 269.119 143.479 269.172C143.554 269.225 143.655 269.263 143.783 269.284C143.922 269.295 144.098 269.3 144.311 269.3H144.935V270.5H143.895C143.543 270.5 143.239 270.479 142.983 270.436C142.738 270.383 142.535 270.292 142.375 270.164C142.226 270.036 142.114 269.855 142.039 269.62C141.964 269.385 141.927 269.076 141.927 268.692V263.428H140.519V262.228H141.927V259.748H143.287V262.228ZM150.979 259.076H152.339V270.5H150.979V259.076ZM161.774 270.468C161.539 270.607 161.214 270.676 160.798 270.676C160.446 270.676 160.163 270.58 159.95 270.388C159.747 270.185 159.646 269.86 159.646 269.412C159.273 269.86 158.835 270.185 158.334 270.388C157.843 270.58 157.31 270.676 156.734 270.676C156.361 270.676 156.003 270.633 155.662 270.548C155.331 270.463 155.043 270.329 154.798 270.148C154.553 269.967 154.355 269.732 154.206 269.444C154.067 269.145 153.998 268.788 153.998 268.372C153.998 267.903 154.078 267.519 154.238 267.22C154.398 266.921 154.606 266.681 154.862 266.5C155.129 266.308 155.427 266.164 155.758 266.068C156.099 265.972 156.446 265.892 156.798 265.828C157.171 265.753 157.523 265.7 157.854 265.668C158.195 265.625 158.494 265.572 158.75 265.508C159.006 265.433 159.209 265.332 159.358 265.204C159.507 265.065 159.582 264.868 159.582 264.612C159.582 264.313 159.523 264.073 159.406 263.892C159.299 263.711 159.155 263.572 158.974 263.476C158.803 263.38 158.606 263.316 158.382 263.284C158.169 263.252 157.955 263.236 157.742 263.236C157.166 263.236 156.686 263.348 156.302 263.572C155.918 263.785 155.71 264.196 155.678 264.804H154.318C154.339 264.292 154.446 263.86 154.638 263.508C154.83 263.156 155.086 262.873 155.406 262.66C155.726 262.436 156.089 262.276 156.494 262.18C156.91 262.084 157.353 262.036 157.822 262.036C158.195 262.036 158.563 262.063 158.926 262.116C159.299 262.169 159.635 262.281 159.934 262.452C160.233 262.612 160.473 262.841 160.654 263.14C160.835 263.439 160.926 263.828 160.926 264.308V268.564C160.926 268.884 160.942 269.119 160.974 269.268C161.017 269.417 161.145 269.492 161.358 269.492C161.475 269.492 161.614 269.465 161.774 269.412V270.468ZM159.566 266.228C159.395 266.356 159.171 266.452 158.894 266.516C158.617 266.569 158.323 266.617 158.014 266.66C157.715 266.692 157.411 266.735 157.102 266.788C156.793 266.831 156.515 266.905 156.27 267.012C156.025 267.119 155.822 267.273 155.662 267.476C155.513 267.668 155.438 267.935 155.438 268.276C155.438 268.5 155.481 268.692 155.566 268.852C155.662 269.001 155.779 269.124 155.918 269.22C156.067 269.316 156.238 269.385 156.43 269.428C156.622 269.471 156.825 269.492 157.038 269.492C157.486 269.492 157.87 269.433 158.19 269.316C158.51 269.188 158.771 269.033 158.974 268.852C159.177 268.66 159.326 268.457 159.422 268.244C159.518 268.02 159.566 267.812 159.566 267.62V266.228ZM163.088 259.076H164.448V263.348H164.48C164.704 262.889 165.056 262.559 165.536 262.356C166.016 262.143 166.544 262.036 167.12 262.036C167.76 262.036 168.314 262.153 168.784 262.388C169.264 262.623 169.658 262.943 169.968 263.348C170.288 263.743 170.528 264.201 170.688 264.724C170.848 265.247 170.928 265.801 170.928 266.388C170.928 266.975 170.848 267.529 170.688 268.052C170.538 268.575 170.304 269.033 169.984 269.428C169.674 269.812 169.28 270.116 168.8 270.34C168.33 270.564 167.781 270.676 167.152 270.676C166.949 270.676 166.72 270.655 166.464 270.612C166.218 270.569 165.973 270.5 165.728 270.404C165.482 270.308 165.248 270.18 165.024 270.02C164.81 269.849 164.629 269.641 164.48 269.396H164.448V270.5H163.088V259.076ZM169.488 266.292C169.488 265.908 169.434 265.535 169.328 265.172C169.232 264.799 169.077 264.468 168.864 264.18C168.661 263.892 168.394 263.663 168.064 263.492C167.744 263.321 167.365 263.236 166.928 263.236C166.469 263.236 166.08 263.327 165.76 263.508C165.44 263.689 165.178 263.929 164.976 264.228C164.773 264.516 164.624 264.847 164.528 265.22C164.442 265.593 164.4 265.972 164.4 266.356C164.4 266.761 164.448 267.156 164.544 267.54C164.64 267.913 164.789 268.244 164.992 268.532C165.205 268.82 165.477 269.055 165.808 269.236C166.138 269.407 166.538 269.492 167.008 269.492C167.477 269.492 167.866 269.401 168.176 269.22C168.496 269.039 168.752 268.799 168.944 268.5C169.136 268.201 169.274 267.86 169.36 267.476C169.445 267.092 169.488 266.697 169.488 266.292ZM178.268 265.572C178.247 265.252 178.172 264.948 178.044 264.66C177.927 264.372 177.761 264.127 177.548 263.924C177.345 263.711 177.1 263.545 176.812 263.428C176.535 263.3 176.225 263.236 175.884 263.236C175.532 263.236 175.212 263.3 174.924 263.428C174.647 263.545 174.407 263.711 174.204 263.924C174.001 264.137 173.841 264.388 173.724 264.676C173.607 264.953 173.537 265.252 173.516 265.572H178.268ZM179.58 267.876C179.399 268.804 178.999 269.503 178.38 269.972C177.761 270.441 176.983 270.676 176.044 270.676C175.383 270.676 174.807 270.569 174.316 270.356C173.836 270.143 173.431 269.844 173.1 269.46C172.769 269.076 172.519 268.617 172.348 268.084C172.188 267.551 172.097 266.969 172.076 266.34C172.076 265.711 172.172 265.135 172.364 264.612C172.556 264.089 172.823 263.636 173.164 263.252C173.516 262.868 173.927 262.569 174.396 262.356C174.876 262.143 175.399 262.036 175.964 262.036C176.7 262.036 177.308 262.191 177.788 262.5C178.279 262.799 178.668 263.183 178.956 263.652C179.255 264.121 179.457 264.633 179.564 265.188C179.681 265.743 179.729 266.271 179.708 266.772H173.516C173.505 267.135 173.548 267.481 173.644 267.812C173.74 268.132 173.895 268.42 174.108 268.676C174.321 268.921 174.593 269.119 174.924 269.268C175.255 269.417 175.644 269.492 176.092 269.492C176.668 269.492 177.137 269.359 177.5 269.092C177.873 268.825 178.119 268.42 178.236 267.876H179.58ZM181.198 259.076H182.558V270.5H181.198V259.076Z" fill="black" fill-opacity="0.68"/>
<mask id="path-7-inside-2_65346_30768" fill="white">
<path d="M270 235H510V295H270V235Z"/>
</mask>
<path d="M270 235H510V295H270V235Z" fill="black" fill-opacity="0.04"/>
<path d="M510 295V294H270V295V296H510V295Z" fill="black" fill-opacity="0.2" mask="url(#path-7-inside-2_65346_30768)"/>
<path fill-rule="evenodd" clip-rule="evenodd" d="M307.415 272.665L301.999 267.249C302.908 265.98 303.395 264.457 303.392 262.896C303.392 258.756 300.036 255.4 295.896 255.4C291.756 255.4 288.4 258.756 288.4 262.896C288.4 267.036 291.756 270.392 295.896 270.392C297.457 270.395 298.98 269.907 300.25 268.999L305.665 274.415C305.9 274.648 306.279 274.648 306.513 274.415L307.415 273.513C307.648 273.279 307.648 272.9 307.415 272.665ZM295.896 267.993C293.081 267.993 290.799 265.711 290.799 262.896C290.799 260.081 293.081 257.799 295.896 257.799C298.711 257.799 300.993 260.081 300.993 262.896C300.993 265.711 298.711 267.993 295.896 267.993Z" fill="black" fill-opacity="0.68"/>
<path d="M325.84 260.856H322.032V259.576H331.168V260.856H327.36V271H325.84V260.856ZM333.878 272.104C333.718 272.509 333.558 272.851 333.398 273.128C333.249 273.405 333.078 273.629 332.886 273.8C332.705 273.981 332.497 274.109 332.262 274.184C332.038 274.269 331.777 274.312 331.478 274.312C331.318 274.312 331.158 274.301 330.998 274.28C330.838 274.259 330.684 274.221 330.534 274.168V272.92C330.652 272.973 330.785 273.016 330.934 273.048C331.094 273.091 331.228 273.112 331.334 273.112C331.612 273.112 331.841 273.043 332.022 272.904C332.214 272.776 332.358 272.589 332.454 272.344L333.014 270.952L329.734 262.728H331.27L333.686 269.496H333.718L336.038 262.728H337.478L333.878 272.104ZM338.878 262.728H340.238V263.848H340.27C340.494 263.389 340.846 263.059 341.326 262.856C341.806 262.643 342.334 262.536 342.91 262.536C343.55 262.536 344.105 262.653 344.574 262.888C345.054 263.123 345.449 263.443 345.758 263.848C346.078 264.243 346.318 264.701 346.478 265.224C346.638 265.747 346.718 266.301 346.718 266.888C346.718 267.475 346.638 268.029 346.478 268.552C346.329 269.075 346.094 269.533 345.774 269.928C345.465 270.312 345.07 270.616 344.59 270.84C344.121 271.064 343.572 271.176 342.942 271.176C342.74 271.176 342.51 271.155 342.254 271.112C342.009 271.069 341.764 271 341.518 270.904C341.273 270.808 341.038 270.68 340.814 270.52C340.601 270.349 340.42 270.141 340.27 269.896H340.238V274.152H338.878V262.728ZM345.278 266.792C345.278 266.408 345.225 266.035 345.118 265.672C345.022 265.299 344.868 264.968 344.654 264.68C344.452 264.392 344.185 264.163 343.854 263.992C343.534 263.821 343.156 263.736 342.718 263.736C342.26 263.736 341.87 263.827 341.55 264.008C341.23 264.189 340.969 264.429 340.766 264.728C340.564 265.016 340.414 265.347 340.318 265.72C340.233 266.093 340.19 266.472 340.19 266.856C340.19 267.261 340.238 267.656 340.334 268.04C340.43 268.413 340.58 268.744 340.782 269.032C340.996 269.32 341.268 269.555 341.598 269.736C341.929 269.907 342.329 269.992 342.798 269.992C343.268 269.992 343.657 269.901 343.966 269.72C344.286 269.539 344.542 269.299 344.734 269C344.926 268.701 345.065 268.36 345.15 267.976C345.236 267.592 345.278 267.197 345.278 266.792ZM354.259 266.072C354.237 265.752 354.163 265.448 354.035 265.16C353.917 264.872 353.752 264.627 353.539 264.424C353.336 264.211 353.091 264.045 352.803 263.928C352.525 263.8 352.216 263.736 351.875 263.736C351.523 263.736 351.203 263.8 350.915 263.928C350.637 264.045 350.397 264.211 350.195 264.424C349.992 264.637 349.832 264.888 349.715 265.176C349.597 265.453 349.528 265.752 349.507 266.072H354.259ZM355.571 268.376C355.389 269.304 354.989 270.003 354.371 270.472C353.752 270.941 352.973 271.176 352.035 271.176C351.373 271.176 350.797 271.069 350.307 270.856C349.827 270.643 349.421 270.344 349.091 269.96C348.76 269.576 348.509 269.117 348.339 268.584C348.179 268.051 348.088 267.469 348.067 266.84C348.067 266.211 348.163 265.635 348.355 265.112C348.547 264.589 348.813 264.136 349.155 263.752C349.507 263.368 349.917 263.069 350.387 262.856C350.867 262.643 351.389 262.536 351.955 262.536C352.691 262.536 353.299 262.691 353.779 263C354.269 263.299 354.659 263.683 354.947 264.152C355.245 264.621 355.448 265.133 355.555 265.688C355.672 266.243 355.72 266.771 355.699 267.272H349.507C349.496 267.635 349.539 267.981 349.635 268.312C349.731 268.632 349.885 268.92 350.099 269.176C350.312 269.421 350.584 269.619 350.915 269.768C351.245 269.917 351.635 269.992 352.083 269.992C352.659 269.992 353.128 269.859 353.491 269.592C353.864 269.325 354.109 268.92 354.227 268.376H355.571ZM363.85 262.728H365.498V263.928H363.85V269.064C363.85 269.224 363.86 269.352 363.882 269.448C363.914 269.544 363.967 269.619 364.042 269.672C364.116 269.725 364.218 269.763 364.346 269.784C364.484 269.795 364.66 269.8 364.874 269.8H365.498V271H364.458C364.106 271 363.802 270.979 363.546 270.936C363.3 270.883 363.098 270.792 362.938 270.664C362.788 270.536 362.676 270.355 362.602 270.12C362.527 269.885 362.49 269.576 362.49 269.192V263.928H361.082V262.728H362.49V260.248H363.85V262.728ZM368.2 266.872C368.2 267.373 368.264 267.821 368.392 268.216C368.531 268.6 368.718 268.925 368.952 269.192C369.187 269.448 369.459 269.645 369.768 269.784C370.088 269.923 370.424 269.992 370.776 269.992C371.128 269.992 371.459 269.923 371.768 269.784C372.088 269.645 372.366 269.448 372.6 269.192C372.835 268.925 373.016 268.6 373.144 268.216C373.283 267.821 373.352 267.373 373.352 266.872C373.352 266.371 373.283 265.928 373.144 265.544C373.016 265.149 372.835 264.819 372.6 264.552C372.366 264.285 372.088 264.083 371.768 263.944C371.459 263.805 371.128 263.736 370.776 263.736C370.424 263.736 370.088 263.805 369.768 263.944C369.459 264.083 369.187 264.285 368.952 264.552C368.718 264.819 368.531 265.149 368.392 265.544C368.264 265.928 368.2 266.371 368.2 266.872ZM366.76 266.872C366.76 266.264 366.846 265.699 367.016 265.176C367.187 264.643 367.443 264.184 367.784 263.8C368.126 263.405 368.547 263.096 369.048 262.872C369.55 262.648 370.126 262.536 370.776 262.536C371.438 262.536 372.014 262.648 372.504 262.872C373.006 263.096 373.427 263.405 373.768 263.8C374.11 264.184 374.366 264.643 374.536 265.176C374.707 265.699 374.792 266.264 374.792 266.872C374.792 267.48 374.707 268.045 374.536 268.568C374.366 269.091 374.11 269.549 373.768 269.944C373.427 270.328 373.006 270.632 372.504 270.856C372.014 271.069 371.438 271.176 370.776 271.176C370.126 271.176 369.55 271.069 369.048 270.856C368.547 270.632 368.126 270.328 367.784 269.944C367.443 269.549 367.187 269.091 367.016 268.568C366.846 268.045 366.76 267.48 366.76 266.872ZM382.081 268.392C382.092 268.691 382.161 268.947 382.289 269.16C382.417 269.363 382.582 269.528 382.785 269.656C382.998 269.773 383.233 269.859 383.489 269.912C383.756 269.965 384.028 269.992 384.305 269.992C384.518 269.992 384.742 269.976 384.977 269.944C385.212 269.912 385.425 269.853 385.617 269.768C385.82 269.683 385.985 269.56 386.113 269.4C386.241 269.229 386.305 269.016 386.305 268.76C386.305 268.408 386.172 268.141 385.905 267.96C385.638 267.779 385.302 267.635 384.897 267.528C384.502 267.411 384.07 267.309 383.601 267.224C383.132 267.128 382.694 267 382.289 266.84C381.894 266.669 381.564 266.435 381.297 266.136C381.03 265.837 380.897 265.421 380.897 264.888C380.897 264.472 380.988 264.115 381.169 263.816C381.361 263.517 381.601 263.277 381.889 263.096C382.188 262.904 382.518 262.765 382.881 262.68C383.254 262.584 383.622 262.536 383.985 262.536C384.454 262.536 384.886 262.579 385.281 262.664C385.676 262.739 386.022 262.877 386.321 263.08C386.63 263.272 386.876 263.539 387.057 263.88C387.238 264.211 387.345 264.627 387.377 265.128H386.017C385.996 264.861 385.926 264.643 385.809 264.472C385.692 264.291 385.542 264.147 385.361 264.04C385.18 263.933 384.977 263.859 384.753 263.816C384.54 263.763 384.321 263.736 384.097 263.736C383.894 263.736 383.686 263.752 383.473 263.784C383.27 263.816 383.084 263.875 382.913 263.96C382.742 264.035 382.604 264.141 382.497 264.28C382.39 264.408 382.337 264.579 382.337 264.792C382.337 265.027 382.417 265.224 382.577 265.384C382.748 265.533 382.961 265.661 383.217 265.768C383.473 265.864 383.761 265.949 384.081 266.024C384.401 266.088 384.721 266.157 385.041 266.232C385.382 266.307 385.713 266.397 386.033 266.504C386.364 266.611 386.652 266.755 386.897 266.936C387.153 267.107 387.356 267.325 387.505 267.592C387.665 267.859 387.745 268.189 387.745 268.584C387.745 269.085 387.638 269.501 387.425 269.832C387.222 270.163 386.95 270.429 386.609 270.632C386.278 270.835 385.9 270.973 385.473 271.048C385.057 271.133 384.641 271.176 384.225 271.176C383.766 271.176 383.329 271.128 382.913 271.032C382.497 270.936 382.129 270.781 381.809 270.568C381.489 270.344 381.233 270.056 381.041 269.704C380.849 269.341 380.742 268.904 380.721 268.392H382.081ZM395.193 266.072C395.172 265.752 395.097 265.448 394.969 265.16C394.852 264.872 394.686 264.627 394.473 264.424C394.27 264.211 394.025 264.045 393.737 263.928C393.46 263.8 393.15 263.736 392.809 263.736C392.457 263.736 392.137 263.8 391.849 263.928C391.572 264.045 391.332 264.211 391.129 264.424C390.926 264.637 390.766 264.888 390.649 265.176C390.532 265.453 390.462 265.752 390.441 266.072H395.193ZM396.505 268.376C396.324 269.304 395.924 270.003 395.305 270.472C394.686 270.941 393.908 271.176 392.969 271.176C392.308 271.176 391.732 271.069 391.241 270.856C390.761 270.643 390.356 270.344 390.025 269.96C389.694 269.576 389.444 269.117 389.273 268.584C389.113 268.051 389.022 267.469 389.001 266.84C389.001 266.211 389.097 265.635 389.289 265.112C389.481 264.589 389.748 264.136 390.089 263.752C390.441 263.368 390.852 263.069 391.321 262.856C391.801 262.643 392.324 262.536 392.889 262.536C393.625 262.536 394.233 262.691 394.713 263C395.204 263.299 395.593 263.683 395.881 264.152C396.18 264.621 396.382 265.133 396.489 265.688C396.606 266.243 396.654 266.771 396.633 267.272H390.441C390.43 267.635 390.473 267.981 390.569 268.312C390.665 268.632 390.82 268.92 391.033 269.176C391.246 269.421 391.518 269.619 391.849 269.768C392.18 269.917 392.569 269.992 393.017 269.992C393.593 269.992 394.062 269.859 394.425 269.592C394.798 269.325 395.044 268.92 395.161 268.376H396.505ZM405.571 270.968C405.336 271.107 405.011 271.176 404.595 271.176C404.243 271.176 403.96 271.08 403.747 270.888C403.544 270.685 403.443 270.36 403.443 269.912C403.069 270.36 402.632 270.685 402.131 270.888C401.64 271.08 401.107 271.176 400.531 271.176C400.157 271.176 399.8 271.133 399.459 271.048C399.128 270.963 398.84 270.829 398.595 270.648C398.349 270.467 398.152 270.232 398.003 269.944C397.864 269.645 397.795 269.288 397.795 268.872C397.795 268.403 397.875 268.019 398.035 267.72C398.195 267.421 398.403 267.181 398.659 267C398.925 266.808 399.224 266.664 399.555 266.568C399.896 266.472 400.243 266.392 400.595 266.328C400.968 266.253 401.32 266.2 401.651 266.168C401.992 266.125 402.291 266.072 402.547 266.008C402.803 265.933 403.005 265.832 403.155 265.704C403.304 265.565 403.379 265.368 403.379 265.112C403.379 264.813 403.32 264.573 403.203 264.392C403.096 264.211 402.952 264.072 402.771 263.976C402.6 263.88 402.403 263.816 402.179 263.784C401.965 263.752 401.752 263.736 401.539 263.736C400.963 263.736 400.483 263.848 400.099 264.072C399.715 264.285 399.507 264.696 399.475 265.304H398.115C398.136 264.792 398.243 264.36 398.435 264.008C398.627 263.656 398.883 263.373 399.203 263.16C399.523 262.936 399.885 262.776 400.291 262.68C400.707 262.584 401.149 262.536 401.619 262.536C401.992 262.536 402.36 262.563 402.723 262.616C403.096 262.669 403.432 262.781 403.731 262.952C404.029 263.112 404.269 263.341 404.451 263.64C404.632 263.939 404.723 264.328 404.723 264.808V269.064C404.723 269.384 404.739 269.619 404.771 269.768C404.813 269.917 404.941 269.992 405.155 269.992C405.272 269.992 405.411 269.965 405.571 269.912V270.968ZM403.363 266.728C403.192 266.856 402.968 266.952 402.691 267.016C402.413 267.069 402.12 267.117 401.811 267.16C401.512 267.192 401.208 267.235 400.899 267.288C400.589 267.331 400.312 267.405 400.067 267.512C399.821 267.619 399.619 267.773 399.459 267.976C399.309 268.168 399.235 268.435 399.235 268.776C399.235 269 399.277 269.192 399.363 269.352C399.459 269.501 399.576 269.624 399.715 269.72C399.864 269.816 400.035 269.885 400.227 269.928C400.419 269.971 400.621 269.992 400.835 269.992C401.283 269.992 401.667 269.933 401.987 269.816C402.307 269.688 402.568 269.533 402.771 269.352C402.973 269.16 403.123 268.957 403.219 268.744C403.315 268.52 403.363 268.312 403.363 268.12V266.728ZM406.988 262.728H408.268V264.472H408.3C408.631 263.8 409.036 263.304 409.516 262.984C409.996 262.664 410.604 262.515 411.34 262.536V263.976C410.796 263.976 410.332 264.051 409.948 264.2C409.564 264.349 409.255 264.568 409.02 264.856C408.786 265.144 408.615 265.496 408.508 265.912C408.402 266.317 408.348 266.787 408.348 267.32V271H406.988V262.728ZM417.899 265.384C417.793 264.861 417.569 264.456 417.227 264.168C416.886 263.88 416.427 263.736 415.851 263.736C415.361 263.736 414.95 263.827 414.619 264.008C414.289 264.189 414.022 264.429 413.819 264.728C413.627 265.027 413.489 265.373 413.403 265.768C413.318 266.152 413.275 266.552 413.275 266.968C413.275 267.352 413.318 267.725 413.403 268.088C413.499 268.451 413.643 268.776 413.835 269.064C414.027 269.341 414.278 269.565 414.587 269.736C414.897 269.907 415.265 269.992 415.691 269.992C416.363 269.992 416.886 269.816 417.259 269.464C417.643 269.112 417.878 268.616 417.963 267.976H419.355C419.206 269 418.822 269.789 418.203 270.344C417.595 270.899 416.763 271.176 415.707 271.176C415.078 271.176 414.518 271.075 414.027 270.872C413.547 270.669 413.142 270.381 412.811 270.008C412.491 269.635 412.246 269.192 412.075 268.68C411.915 268.157 411.835 267.587 411.835 266.968C411.835 266.349 411.915 265.773 412.075 265.24C412.235 264.696 412.475 264.227 412.795 263.832C413.126 263.427 413.537 263.112 414.027 262.888C414.518 262.653 415.089 262.536 415.739 262.536C416.209 262.536 416.646 262.595 417.051 262.712C417.467 262.819 417.83 262.989 418.139 263.224C418.459 263.459 418.721 263.757 418.923 264.12C419.126 264.472 419.254 264.893 419.307 265.384H417.899ZM421.077 259.576H422.437V263.944H422.469C422.576 263.688 422.725 263.475 422.917 263.304C423.109 263.123 423.322 262.979 423.557 262.872C423.802 262.755 424.053 262.669 424.309 262.616C424.576 262.563 424.832 262.536 425.077 262.536C425.621 262.536 426.074 262.611 426.437 262.76C426.8 262.909 427.093 263.117 427.317 263.384C427.541 263.651 427.696 263.971 427.781 264.344C427.877 264.707 427.925 265.112 427.925 265.56V271H426.565V265.4C426.565 264.888 426.416 264.483 426.117 264.184C425.818 263.885 425.408 263.736 424.885 263.736C424.469 263.736 424.106 263.8 423.797 263.928C423.498 264.056 423.248 264.237 423.045 264.472C422.842 264.707 422.688 264.984 422.581 265.304C422.485 265.613 422.437 265.955 422.437 266.328V271H421.077V259.576ZM430.472 269.224H432.248V271H430.472V269.224ZM435.125 269.224H436.901V271H435.125V269.224ZM439.778 269.224H441.554V271H439.778V269.224Z" fill="black" fill-opacity="0.68"/>
</svg>
