<svg width="600" height="282" viewBox="0 0 600 282" fill="none" xmlns="http://www.w3.org/2000/svg">
<rect width="600" height="282" fill="black" fill-opacity="0.04"/>
<path d="M91.248 80.076H98.752V81.356H92.768V84.988H98.016V86.268H92.768V91.5H91.248V80.076ZM107.54 91.468C107.305 91.6067 106.98 91.676 106.564 91.676C106.212 91.676 105.929 91.58 105.716 91.388C105.513 91.1853 105.412 90.86 105.412 90.412C105.038 90.86 104.601 91.1853 104.1 91.388C103.609 91.58 103.076 91.676 102.5 91.676C102.126 91.676 101.769 91.6333 101.428 91.548C101.097 91.4627 100.809 91.3293 100.564 91.148C100.318 90.9667 100.121 90.732 99.9715 90.444C99.8328 90.1453 99.7635 89.788 99.7635 89.372C99.7635 88.9027 99.8435 88.5187 100.004 88.22C100.164 87.9213 100.372 87.6813 100.628 87.5C100.894 87.308 101.193 87.164 101.524 87.068C101.865 86.972 102.212 86.892 102.564 86.828C102.937 86.7533 103.289 86.7 103.62 86.668C103.961 86.6253 104.26 86.572 104.516 86.508C104.772 86.4333 104.974 86.332 105.124 86.204C105.273 86.0653 105.348 85.868 105.348 85.612C105.348 85.3133 105.289 85.0733 105.172 84.892C105.065 84.7107 104.921 84.572 104.74 84.476C104.569 84.38 104.372 84.316 104.148 84.284C103.934 84.252 103.721 84.236 103.508 84.236C102.932 84.236 102.452 84.348 102.068 84.572C101.684 84.7853 101.476 85.196 101.444 85.804H100.084C100.105 85.292 100.212 84.86 100.404 84.508C100.596 84.156 100.852 83.8733 101.172 83.66C101.492 83.436 101.854 83.276 102.26 83.18C102.676 83.084 103.118 83.036 103.588 83.036C103.961 83.036 104.329 83.0627 104.692 83.116C105.065 83.1693 105.401 83.2813 105.7 83.452C105.998 83.612 106.238 83.8413 106.42 84.14C106.601 84.4387 106.692 84.828 106.692 85.308V89.564C106.692 89.884 106.708 90.1187 106.74 90.268C106.782 90.4173 106.91 90.492 107.124 90.492C107.241 90.492 107.38 90.4653 107.54 90.412V91.468ZM105.332 87.228C105.161 87.356 104.937 87.452 104.66 87.516C104.382 87.5693 104.089 87.6173 103.78 87.66C103.481 87.692 103.177 87.7347 102.868 87.788C102.558 87.8307 102.281 87.9053 102.036 88.012C101.79 88.1187 101.588 88.2733 101.428 88.476C101.278 88.668 101.204 88.9347 101.204 89.276C101.204 89.5 101.246 89.692 101.332 89.852C101.428 90.0013 101.545 90.124 101.684 90.22C101.833 90.316 102.004 90.3853 102.196 90.428C102.388 90.4707 102.59 90.492 102.804 90.492C103.252 90.492 103.636 90.4333 103.956 90.316C104.276 90.188 104.537 90.0333 104.74 89.852C104.942 89.66 105.092 89.4573 105.188 89.244C105.284 89.02 105.332 88.812 105.332 88.62V87.228ZM108.885 80.076H110.245V91.5H108.885V80.076ZM113.184 88.892C113.195 89.1907 113.264 89.4467 113.392 89.66C113.52 89.8627 113.685 90.028 113.888 90.156C114.101 90.2733 114.336 90.3587 114.592 90.412C114.859 90.4653 115.131 90.492 115.408 90.492C115.621 90.492 115.845 90.476 116.08 90.444C116.315 90.412 116.528 90.3533 116.72 90.268C116.923 90.1827 117.088 90.06 117.216 89.9C117.344 89.7293 117.408 89.516 117.408 89.26C117.408 88.908 117.275 88.6413 117.008 88.46C116.741 88.2787 116.405 88.1347 116 88.028C115.605 87.9107 115.173 87.8093 114.704 87.724C114.235 87.628 113.797 87.5 113.392 87.34C112.997 87.1693 112.667 86.9347 112.4 86.636C112.133 86.3373 112 85.9213 112 85.388C112 84.972 112.091 84.6147 112.272 84.316C112.464 84.0173 112.704 83.7773 112.992 83.596C113.291 83.404 113.621 83.2653 113.984 83.18C114.357 83.084 114.725 83.036 115.088 83.036C115.557 83.036 115.989 83.0787 116.384 83.164C116.779 83.2387 117.125 83.3773 117.424 83.58C117.733 83.772 117.979 84.0387 118.16 84.38C118.341 84.7107 118.448 85.1267 118.48 85.628H117.12C117.099 85.3613 117.029 85.1427 116.912 84.972C116.795 84.7907 116.645 84.6467 116.464 84.54C116.283 84.4333 116.08 84.3587 115.856 84.316C115.643 84.2627 115.424 84.236 115.2 84.236C114.997 84.236 114.789 84.252 114.576 84.284C114.373 84.316 114.187 84.3747 114.016 84.46C113.845 84.5347 113.707 84.6413 113.6 84.78C113.493 84.908 113.44 85.0787 113.44 85.292C113.44 85.5267 113.52 85.724 113.68 85.884C113.851 86.0333 114.064 86.1613 114.32 86.268C114.576 86.364 114.864 86.4493 115.184 86.524C115.504 86.588 115.824 86.6573 116.144 86.732C116.485 86.8067 116.816 86.8973 117.136 87.004C117.467 87.1107 117.755 87.2547 118 87.436C118.256 87.6067 118.459 87.8253 118.608 88.092C118.768 88.3587 118.848 88.6893 118.848 89.084C118.848 89.5853 118.741 90.0013 118.528 90.332C118.325 90.6627 118.053 90.9293 117.712 91.132C117.381 91.3347 117.003 91.4733 116.576 91.548C116.16 91.6333 115.744 91.676 115.328 91.676C114.869 91.676 114.432 91.628 114.016 91.532C113.6 91.436 113.232 91.2813 112.912 91.068C112.592 90.844 112.336 90.556 112.144 90.204C111.952 89.8413 111.845 89.404 111.824 88.892H113.184ZM126.096 86.572C126.075 86.252 126 85.948 125.872 85.66C125.755 85.372 125.589 85.1267 125.376 84.924C125.173 84.7107 124.928 84.5453 124.64 84.428C124.363 84.3 124.053 84.236 123.712 84.236C123.36 84.236 123.04 84.3 122.752 84.428C122.475 84.5453 122.235 84.7107 122.032 84.924C121.829 85.1373 121.669 85.388 121.552 85.676C121.435 85.9533 121.365 86.252 121.344 86.572H126.096ZM127.408 88.876C127.227 89.804 126.827 90.5027 126.208 90.972C125.589 91.4413 124.811 91.676 123.872 91.676C123.211 91.676 122.635 91.5693 122.144 91.356C121.664 91.1427 121.259 90.844 120.928 90.46C120.597 90.076 120.347 89.6173 120.176 89.084C120.016 88.5507 119.925 87.9693 119.904 87.34C119.904 86.7107 120 86.1347 120.192 85.612C120.384 85.0893 120.651 84.636 120.992 84.252C121.344 83.868 121.755 83.5693 122.224 83.356C122.704 83.1427 123.227 83.036 123.792 83.036C124.528 83.036 125.136 83.1907 125.616 83.5C126.107 83.7987 126.496 84.1827 126.784 84.652C127.083 85.1213 127.285 85.6333 127.392 86.188C127.509 86.7427 127.557 87.2707 127.536 87.772H121.344C121.333 88.1347 121.376 88.4813 121.472 88.812C121.568 89.132 121.723 89.42 121.936 89.676C122.149 89.9213 122.421 90.1187 122.752 90.268C123.083 90.4173 123.472 90.492 123.92 90.492C124.496 90.492 124.965 90.3587 125.328 90.092C125.701 89.8253 125.947 89.42 126.064 88.876H127.408Z" fill="black" fill-opacity="0.68"/>
<mask id="path-2-inside-1_68368_38726" fill="white">
<path d="M270 56H510V116H270V56Z"/>
</mask>
<path d="M270 56H510V116H270V56Z" fill="black" fill-opacity="0.04"/>
<path d="M510 116V115H270V116V117H510V116Z" fill="black" fill-opacity="0.2" mask="url(#path-2-inside-1_68368_38726)"/>
<path d="M287.248 80.576H288.768V90.72H294.816V92H287.248V80.576ZM303.443 91.968C303.208 92.1067 302.883 92.176 302.467 92.176C302.115 92.176 301.832 92.08 301.619 91.888C301.416 91.6853 301.315 91.36 301.315 90.912C300.941 91.36 300.504 91.6853 300.003 91.888C299.512 92.08 298.979 92.176 298.403 92.176C298.029 92.176 297.672 92.1333 297.331 92.048C297 91.9627 296.712 91.8293 296.467 91.648C296.221 91.4667 296.024 91.232 295.875 90.944C295.736 90.6453 295.667 90.288 295.667 89.872C295.667 89.4027 295.747 89.0187 295.907 88.72C296.067 88.4213 296.275 88.1813 296.531 88C296.797 87.808 297.096 87.664 297.427 87.568C297.768 87.472 298.115 87.392 298.467 87.328C298.84 87.2533 299.192 87.2 299.523 87.168C299.864 87.1253 300.163 87.072 300.419 87.008C300.675 86.9333 300.877 86.832 301.027 86.704C301.176 86.5653 301.251 86.368 301.251 86.112C301.251 85.8133 301.192 85.5733 301.075 85.392C300.968 85.2107 300.824 85.072 300.643 84.976C300.472 84.88 300.275 84.816 300.051 84.784C299.837 84.752 299.624 84.736 299.411 84.736C298.835 84.736 298.355 84.848 297.971 85.072C297.587 85.2853 297.379 85.696 297.347 86.304H295.987C296.008 85.792 296.115 85.36 296.307 85.008C296.499 84.656 296.755 84.3733 297.075 84.16C297.395 83.936 297.757 83.776 298.163 83.68C298.579 83.584 299.021 83.536 299.491 83.536C299.864 83.536 300.232 83.5627 300.595 83.616C300.968 83.6693 301.304 83.7813 301.603 83.952C301.901 84.112 302.141 84.3413 302.323 84.64C302.504 84.9387 302.595 85.328 302.595 85.808V90.064C302.595 90.384 302.611 90.6187 302.643 90.768C302.685 90.9173 302.813 90.992 303.027 90.992C303.144 90.992 303.283 90.9653 303.443 90.912V91.968ZM301.235 87.728C301.064 87.856 300.84 87.952 300.563 88.016C300.285 88.0693 299.992 88.1173 299.683 88.16C299.384 88.192 299.08 88.2347 298.771 88.288C298.461 88.3307 298.184 88.4053 297.939 88.512C297.693 88.6187 297.491 88.7733 297.331 88.976C297.181 89.168 297.107 89.4347 297.107 89.776C297.107 90 297.149 90.192 297.235 90.352C297.331 90.5013 297.448 90.624 297.587 90.72C297.736 90.816 297.907 90.8853 298.099 90.928C298.291 90.9707 298.493 90.992 298.707 90.992C299.155 90.992 299.539 90.9333 299.859 90.816C300.179 90.688 300.44 90.5333 300.643 90.352C300.845 90.16 300.995 89.9573 301.091 89.744C301.187 89.52 301.235 89.312 301.235 89.12V87.728ZM304.956 80.576H306.316V84.848H306.348C306.572 84.3893 306.924 84.0587 307.404 83.856C307.884 83.6427 308.412 83.536 308.988 83.536C309.628 83.536 310.183 83.6533 310.652 83.888C311.132 84.1227 311.527 84.4427 311.836 84.848C312.156 85.2427 312.396 85.7013 312.556 86.224C312.716 86.7467 312.796 87.3013 312.796 87.888C312.796 88.4747 312.716 89.0293 312.556 89.552C312.407 90.0747 312.172 90.5333 311.852 90.928C311.543 91.312 311.148 91.616 310.668 91.84C310.199 92.064 309.65 92.176 309.02 92.176C308.818 92.176 308.588 92.1547 308.332 92.112C308.087 92.0693 307.842 92 307.596 91.904C307.351 91.808 307.116 91.68 306.892 91.52C306.679 91.3493 306.498 91.1413 306.348 90.896H306.316V92H304.956V80.576ZM311.356 87.792C311.356 87.408 311.303 87.0347 311.196 86.672C311.1 86.2987 310.946 85.968 310.732 85.68C310.53 85.392 310.263 85.1627 309.932 84.992C309.612 84.8213 309.234 84.736 308.796 84.736C308.338 84.736 307.948 84.8267 307.628 85.008C307.308 85.1893 307.047 85.4293 306.844 85.728C306.642 86.016 306.492 86.3467 306.396 86.72C306.311 87.0933 306.268 87.472 306.268 87.856C306.268 88.2613 306.316 88.656 306.412 89.04C306.508 89.4133 306.658 89.744 306.86 90.032C307.074 90.32 307.346 90.5547 307.676 90.736C308.007 90.9067 308.407 90.992 308.876 90.992C309.346 90.992 309.735 90.9013 310.044 90.72C310.364 90.5387 310.62 90.2987 310.812 90C311.004 89.7013 311.143 89.36 311.228 88.976C311.314 88.592 311.356 88.1973 311.356 87.792ZM320.337 87.072C320.315 86.752 320.241 86.448 320.113 86.16C319.995 85.872 319.83 85.6267 319.617 85.424C319.414 85.2107 319.169 85.0453 318.881 84.928C318.603 84.8 318.294 84.736 317.953 84.736C317.601 84.736 317.281 84.8 316.993 84.928C316.715 85.0453 316.475 85.2107 316.273 85.424C316.07 85.6373 315.91 85.888 315.793 86.176C315.675 86.4533 315.606 86.752 315.585 87.072H320.337ZM321.649 89.376C321.467 90.304 321.067 91.0027 320.449 91.472C319.83 91.9413 319.051 92.176 318.113 92.176C317.451 92.176 316.875 92.0693 316.385 91.856C315.905 91.6427 315.499 91.344 315.169 90.96C314.838 90.576 314.587 90.1173 314.417 89.584C314.257 89.0507 314.166 88.4693 314.145 87.84C314.145 87.2107 314.241 86.6347 314.433 86.112C314.625 85.5893 314.891 85.136 315.233 84.752C315.585 84.368 315.995 84.0693 316.465 83.856C316.945 83.6427 317.467 83.536 318.033 83.536C318.769 83.536 319.377 83.6907 319.857 84C320.347 84.2987 320.737 84.6827 321.025 85.152C321.323 85.6213 321.526 86.1333 321.633 86.688C321.75 87.2427 321.798 87.7707 321.777 88.272H315.585C315.574 88.6347 315.617 88.9813 315.713 89.312C315.809 89.632 315.963 89.92 316.177 90.176C316.39 90.4213 316.662 90.6187 316.993 90.768C317.323 90.9173 317.713 90.992 318.161 90.992C318.737 90.992 319.206 90.8587 319.569 90.592C319.942 90.3253 320.187 89.92 320.305 89.376H321.649ZM323.466 80.576H324.826V92H323.466V80.576Z" fill="black" fill-opacity="0.68"/>
<path d="M93.84 191.356H90.032V190.076H99.168V191.356H95.36V201.5H93.84V191.356ZM98.6948 193.228H99.9748V194.972H100.007C100.337 194.3 100.743 193.804 101.223 193.484C101.703 193.164 102.311 193.015 103.047 193.036V194.476C102.503 194.476 102.039 194.551 101.655 194.7C101.271 194.849 100.961 195.068 100.727 195.356C100.492 195.644 100.321 195.996 100.215 196.412C100.108 196.817 100.055 197.287 100.055 197.82V201.5H98.6948V193.228ZM110.919 201.5H109.639V200.188H109.607C109.319 200.7 108.951 201.079 108.503 201.324C108.055 201.559 107.527 201.676 106.919 201.676C106.375 201.676 105.922 201.607 105.559 201.468C105.196 201.319 104.903 201.111 104.679 200.844C104.455 200.577 104.295 200.263 104.199 199.9C104.114 199.527 104.071 199.116 104.071 198.668V193.228H105.431V198.828C105.431 199.34 105.58 199.745 105.879 200.044C106.178 200.343 106.588 200.492 107.111 200.492C107.527 200.492 107.884 200.428 108.183 200.3C108.492 200.172 108.748 199.991 108.951 199.756C109.154 199.521 109.303 199.249 109.399 198.94C109.506 198.62 109.559 198.273 109.559 197.9V193.228H110.919V201.5ZM118.706 196.572C118.684 196.252 118.61 195.948 118.482 195.66C118.364 195.372 118.199 195.127 117.986 194.924C117.783 194.711 117.538 194.545 117.25 194.428C116.972 194.3 116.663 194.236 116.322 194.236C115.97 194.236 115.65 194.3 115.362 194.428C115.084 194.545 114.844 194.711 114.642 194.924C114.439 195.137 114.279 195.388 114.162 195.676C114.044 195.953 113.975 196.252 113.954 196.572H118.706ZM120.017 198.876C119.836 199.804 119.436 200.503 118.818 200.972C118.199 201.441 117.42 201.676 116.482 201.676C115.82 201.676 115.244 201.569 114.754 201.356C114.274 201.143 113.868 200.844 113.538 200.46C113.207 200.076 112.956 199.617 112.786 199.084C112.626 198.551 112.535 197.969 112.514 197.34C112.514 196.711 112.61 196.135 112.802 195.612C112.994 195.089 113.26 194.636 113.602 194.252C113.954 193.868 114.364 193.569 114.834 193.356C115.314 193.143 115.836 193.036 116.402 193.036C117.138 193.036 117.746 193.191 118.226 193.5C118.716 193.799 119.106 194.183 119.394 194.652C119.692 195.121 119.895 195.633 120.002 196.188C120.119 196.743 120.167 197.271 120.146 197.772H113.954C113.943 198.135 113.986 198.481 114.082 198.812C114.178 199.132 114.332 199.42 114.546 199.676C114.759 199.921 115.031 200.119 115.362 200.268C115.692 200.417 116.082 200.492 116.53 200.492C117.106 200.492 117.575 200.359 117.938 200.092C118.311 199.825 118.556 199.42 118.674 198.876H120.017Z" fill="black" fill-opacity="0.68"/>
<mask id="path-6-inside-2_68368_38726" fill="white">
<path d="M270 170C270 167.791 271.791 166 274 166H506C508.209 166 510 167.791 510 170V222C510 224.209 508.209 226 506 226H274C271.791 226 270 224.209 270 222V170Z"/>
</mask>
<path d="M270 170C270 167.791 271.791 166 274 166H506C508.209 166 510 167.791 510 170V222C510 224.209 508.209 226 506 226H274C271.791 226 270 224.209 270 222V170Z" fill="black" fill-opacity="0.04"/>
<path d="M270 166H510H270ZM510 222C510 224.761 507.761 227 505 227H275C272.239 227 270 224.761 270 222C270 223.657 271.791 225 274 225H506C508.209 225 510 223.657 510 222ZM270 226V166V226ZM510 166V226V166Z" fill="black" fill-opacity="0.2" mask="url(#path-6-inside-2_68368_38726)"/>
<path d="M287.248 190.576H288.768V200.72H294.816V202H287.248V190.576ZM303.443 201.968C303.208 202.107 302.883 202.176 302.467 202.176C302.115 202.176 301.832 202.08 301.619 201.888C301.416 201.685 301.315 201.36 301.315 200.912C300.941 201.36 300.504 201.685 300.003 201.888C299.512 202.08 298.979 202.176 298.403 202.176C298.029 202.176 297.672 202.133 297.331 202.048C297 201.963 296.712 201.829 296.467 201.648C296.221 201.467 296.024 201.232 295.875 200.944C295.736 200.645 295.667 200.288 295.667 199.872C295.667 199.403 295.747 199.019 295.907 198.72C296.067 198.421 296.275 198.181 296.531 198C296.797 197.808 297.096 197.664 297.427 197.568C297.768 197.472 298.115 197.392 298.467 197.328C298.84 197.253 299.192 197.2 299.523 197.168C299.864 197.125 300.163 197.072 300.419 197.008C300.675 196.933 300.877 196.832 301.027 196.704C301.176 196.565 301.251 196.368 301.251 196.112C301.251 195.813 301.192 195.573 301.075 195.392C300.968 195.211 300.824 195.072 300.643 194.976C300.472 194.88 300.275 194.816 300.051 194.784C299.837 194.752 299.624 194.736 299.411 194.736C298.835 194.736 298.355 194.848 297.971 195.072C297.587 195.285 297.379 195.696 297.347 196.304H295.987C296.008 195.792 296.115 195.36 296.307 195.008C296.499 194.656 296.755 194.373 297.075 194.16C297.395 193.936 297.757 193.776 298.163 193.68C298.579 193.584 299.021 193.536 299.491 193.536C299.864 193.536 300.232 193.563 300.595 193.616C300.968 193.669 301.304 193.781 301.603 193.952C301.901 194.112 302.141 194.341 302.323 194.64C302.504 194.939 302.595 195.328 302.595 195.808V200.064C302.595 200.384 302.611 200.619 302.643 200.768C302.685 200.917 302.813 200.992 303.027 200.992C303.144 200.992 303.283 200.965 303.443 200.912V201.968ZM301.235 197.728C301.064 197.856 300.84 197.952 300.563 198.016C300.285 198.069 299.992 198.117 299.683 198.16C299.384 198.192 299.08 198.235 298.771 198.288C298.461 198.331 298.184 198.405 297.939 198.512C297.693 198.619 297.491 198.773 297.331 198.976C297.181 199.168 297.107 199.435 297.107 199.776C297.107 200 297.149 200.192 297.235 200.352C297.331 200.501 297.448 200.624 297.587 200.72C297.736 200.816 297.907 200.885 298.099 200.928C298.291 200.971 298.493 200.992 298.707 200.992C299.155 200.992 299.539 200.933 299.859 200.816C300.179 200.688 300.44 200.533 300.643 200.352C300.845 200.16 300.995 199.957 301.091 199.744C301.187 199.52 301.235 199.312 301.235 199.12V197.728ZM304.956 190.576H306.316V194.848H306.348C306.572 194.389 306.924 194.059 307.404 193.856C307.884 193.643 308.412 193.536 308.988 193.536C309.628 193.536 310.183 193.653 310.652 193.888C311.132 194.123 311.527 194.443 311.836 194.848C312.156 195.243 312.396 195.701 312.556 196.224C312.716 196.747 312.796 197.301 312.796 197.888C312.796 198.475 312.716 199.029 312.556 199.552C312.407 200.075 312.172 200.533 311.852 200.928C311.543 201.312 311.148 201.616 310.668 201.84C310.199 202.064 309.65 202.176 309.02 202.176C308.818 202.176 308.588 202.155 308.332 202.112C308.087 202.069 307.842 202 307.596 201.904C307.351 201.808 307.116 201.68 306.892 201.52C306.679 201.349 306.498 201.141 306.348 200.896H306.316V202H304.956V190.576ZM311.356 197.792C311.356 197.408 311.303 197.035 311.196 196.672C311.1 196.299 310.946 195.968 310.732 195.68C310.53 195.392 310.263 195.163 309.932 194.992C309.612 194.821 309.234 194.736 308.796 194.736C308.338 194.736 307.948 194.827 307.628 195.008C307.308 195.189 307.047 195.429 306.844 195.728C306.642 196.016 306.492 196.347 306.396 196.72C306.311 197.093 306.268 197.472 306.268 197.856C306.268 198.261 306.316 198.656 306.412 199.04C306.508 199.413 306.658 199.744 306.86 200.032C307.074 200.32 307.346 200.555 307.676 200.736C308.007 200.907 308.407 200.992 308.876 200.992C309.346 200.992 309.735 200.901 310.044 200.72C310.364 200.539 310.62 200.299 310.812 200C311.004 199.701 311.143 199.36 311.228 198.976C311.314 198.592 311.356 198.197 311.356 197.792ZM320.337 197.072C320.315 196.752 320.241 196.448 320.113 196.16C319.995 195.872 319.83 195.627 319.617 195.424C319.414 195.211 319.169 195.045 318.881 194.928C318.603 194.8 318.294 194.736 317.953 194.736C317.601 194.736 317.281 194.8 316.993 194.928C316.715 195.045 316.475 195.211 316.273 195.424C316.07 195.637 315.91 195.888 315.793 196.176C315.675 196.453 315.606 196.752 315.585 197.072H320.337ZM321.649 199.376C321.467 200.304 321.067 201.003 320.449 201.472C319.83 201.941 319.051 202.176 318.113 202.176C317.451 202.176 316.875 202.069 316.385 201.856C315.905 201.643 315.499 201.344 315.169 200.96C314.838 200.576 314.587 200.117 314.417 199.584C314.257 199.051 314.166 198.469 314.145 197.84C314.145 197.211 314.241 196.635 314.433 196.112C314.625 195.589 314.891 195.136 315.233 194.752C315.585 194.368 315.995 194.069 316.465 193.856C316.945 193.643 317.467 193.536 318.033 193.536C318.769 193.536 319.377 193.691 319.857 194C320.347 194.299 320.737 194.683 321.025 195.152C321.323 195.621 321.526 196.133 321.633 196.688C321.75 197.243 321.798 197.771 321.777 198.272H315.585C315.574 198.635 315.617 198.981 315.713 199.312C315.809 199.632 315.963 199.92 316.177 200.176C316.39 200.421 316.662 200.619 316.993 200.768C317.323 200.917 317.713 200.992 318.161 200.992C318.737 200.992 319.206 200.859 319.569 200.592C319.942 200.325 320.187 199.92 320.305 199.376H321.649ZM323.466 190.576H324.826V202H323.466V190.576Z" fill="black" fill-opacity="0.68"/>
</svg>
