<svg width="600" height="372" viewBox="0 0 600 372" fill="none" xmlns="http://www.w3.org/2000/svg">
<rect width="600" height="372" fill="black" fill-opacity="0.04"/>
<path d="M91.248 125.076H98.752V126.356H92.768V129.988H98.016V131.268H92.768V136.5H91.248V125.076ZM107.54 136.468C107.305 136.607 106.98 136.676 106.564 136.676C106.212 136.676 105.929 136.58 105.716 136.388C105.513 136.185 105.412 135.86 105.412 135.412C105.038 135.86 104.601 136.185 104.1 136.388C103.609 136.58 103.076 136.676 102.5 136.676C102.126 136.676 101.769 136.633 101.428 136.548C101.097 136.463 100.809 136.329 100.564 136.148C100.318 135.967 100.121 135.732 99.9715 135.444C99.8328 135.145 99.7635 134.788 99.7635 134.372C99.7635 133.903 99.8435 133.519 100.004 133.22C100.164 132.921 100.372 132.681 100.628 132.5C100.894 132.308 101.193 132.164 101.524 132.068C101.865 131.972 102.212 131.892 102.564 131.828C102.937 131.753 103.289 131.7 103.62 131.668C103.961 131.625 104.26 131.572 104.516 131.508C104.772 131.433 104.974 131.332 105.124 131.204C105.273 131.065 105.348 130.868 105.348 130.612C105.348 130.313 105.289 130.073 105.172 129.892C105.065 129.711 104.921 129.572 104.74 129.476C104.569 129.38 104.372 129.316 104.148 129.284C103.934 129.252 103.721 129.236 103.508 129.236C102.932 129.236 102.452 129.348 102.068 129.572C101.684 129.785 101.476 130.196 101.444 130.804H100.084C100.105 130.292 100.212 129.86 100.404 129.508C100.596 129.156 100.852 128.873 101.172 128.66C101.492 128.436 101.854 128.276 102.26 128.18C102.676 128.084 103.118 128.036 103.588 128.036C103.961 128.036 104.329 128.063 104.692 128.116C105.065 128.169 105.401 128.281 105.7 128.452C105.998 128.612 106.238 128.841 106.42 129.14C106.601 129.439 106.692 129.828 106.692 130.308V134.564C106.692 134.884 106.708 135.119 106.74 135.268C106.782 135.417 106.91 135.492 107.124 135.492C107.241 135.492 107.38 135.465 107.54 135.412V136.468ZM105.332 132.228C105.161 132.356 104.937 132.452 104.66 132.516C104.382 132.569 104.089 132.617 103.78 132.66C103.481 132.692 103.177 132.735 102.868 132.788C102.558 132.831 102.281 132.905 102.036 133.012C101.79 133.119 101.588 133.273 101.428 133.476C101.278 133.668 101.204 133.935 101.204 134.276C101.204 134.5 101.246 134.692 101.332 134.852C101.428 135.001 101.545 135.124 101.684 135.22C101.833 135.316 102.004 135.385 102.196 135.428C102.388 135.471 102.59 135.492 102.804 135.492C103.252 135.492 103.636 135.433 103.956 135.316C104.276 135.188 104.537 135.033 104.74 134.852C104.942 134.66 105.092 134.457 105.188 134.244C105.284 134.02 105.332 133.812 105.332 133.62V132.228ZM108.885 125.076H110.245V136.5H108.885V125.076ZM113.184 133.892C113.195 134.191 113.264 134.447 113.392 134.66C113.52 134.863 113.685 135.028 113.888 135.156C114.101 135.273 114.336 135.359 114.592 135.412C114.859 135.465 115.131 135.492 115.408 135.492C115.621 135.492 115.845 135.476 116.08 135.444C116.315 135.412 116.528 135.353 116.72 135.268C116.923 135.183 117.088 135.06 117.216 134.9C117.344 134.729 117.408 134.516 117.408 134.26C117.408 133.908 117.275 133.641 117.008 133.46C116.741 133.279 116.405 133.135 116 133.028C115.605 132.911 115.173 132.809 114.704 132.724C114.235 132.628 113.797 132.5 113.392 132.34C112.997 132.169 112.667 131.935 112.4 131.636C112.133 131.337 112 130.921 112 130.388C112 129.972 112.091 129.615 112.272 129.316C112.464 129.017 112.704 128.777 112.992 128.596C113.291 128.404 113.621 128.265 113.984 128.18C114.357 128.084 114.725 128.036 115.088 128.036C115.557 128.036 115.989 128.079 116.384 128.164C116.779 128.239 117.125 128.377 117.424 128.58C117.733 128.772 117.979 129.039 118.16 129.38C118.341 129.711 118.448 130.127 118.48 130.628H117.12C117.099 130.361 117.029 130.143 116.912 129.972C116.795 129.791 116.645 129.647 116.464 129.54C116.283 129.433 116.08 129.359 115.856 129.316C115.643 129.263 115.424 129.236 115.2 129.236C114.997 129.236 114.789 129.252 114.576 129.284C114.373 129.316 114.187 129.375 114.016 129.46C113.845 129.535 113.707 129.641 113.6 129.78C113.493 129.908 113.44 130.079 113.44 130.292C113.44 130.527 113.52 130.724 113.68 130.884C113.851 131.033 114.064 131.161 114.32 131.268C114.576 131.364 114.864 131.449 115.184 131.524C115.504 131.588 115.824 131.657 116.144 131.732C116.485 131.807 116.816 131.897 117.136 132.004C117.467 132.111 117.755 132.255 118 132.436C118.256 132.607 118.459 132.825 118.608 133.092C118.768 133.359 118.848 133.689 118.848 134.084C118.848 134.585 118.741 135.001 118.528 135.332C118.325 135.663 118.053 135.929 117.712 136.132C117.381 136.335 117.003 136.473 116.576 136.548C116.16 136.633 115.744 136.676 115.328 136.676C114.869 136.676 114.432 136.628 114.016 136.532C113.6 136.436 113.232 136.281 112.912 136.068C112.592 135.844 112.336 135.556 112.144 135.204C111.952 134.841 111.845 134.404 111.824 133.892H113.184ZM126.096 131.572C126.075 131.252 126 130.948 125.872 130.66C125.755 130.372 125.589 130.127 125.376 129.924C125.173 129.711 124.928 129.545 124.64 129.428C124.363 129.3 124.053 129.236 123.712 129.236C123.36 129.236 123.04 129.3 122.752 129.428C122.475 129.545 122.235 129.711 122.032 129.924C121.829 130.137 121.669 130.388 121.552 130.676C121.435 130.953 121.365 131.252 121.344 131.572H126.096ZM127.408 133.876C127.227 134.804 126.827 135.503 126.208 135.972C125.589 136.441 124.811 136.676 123.872 136.676C123.211 136.676 122.635 136.569 122.144 136.356C121.664 136.143 121.259 135.844 120.928 135.46C120.597 135.076 120.347 134.617 120.176 134.084C120.016 133.551 119.925 132.969 119.904 132.34C119.904 131.711 120 131.135 120.192 130.612C120.384 130.089 120.651 129.636 120.992 129.252C121.344 128.868 121.755 128.569 122.224 128.356C122.704 128.143 123.227 128.036 123.792 128.036C124.528 128.036 125.136 128.191 125.616 128.5C126.107 128.799 126.496 129.183 126.784 129.652C127.083 130.121 127.285 130.633 127.392 131.188C127.509 131.743 127.557 132.271 127.536 132.772H121.344C121.333 133.135 121.376 133.481 121.472 133.812C121.568 134.132 121.723 134.42 121.936 134.676C122.149 134.921 122.421 135.119 122.752 135.268C123.083 135.417 123.472 135.492 123.92 135.492C124.496 135.492 124.965 135.359 125.328 135.092C125.701 134.825 125.947 134.42 126.064 133.876H127.408Z" fill="black" fill-opacity="0.68"/>
<mask id="path-2-inside-1_65346_30679" fill="white">
<path d="M270 101H510V161H270V101Z"/>
</mask>
<path d="M270 101H510V161H270V101Z" fill="black" fill-opacity="0.04"/>
<path d="M510 161V160H270V161V162H510V161Z" fill="black" fill-opacity="0.2" mask="url(#path-2-inside-1_65346_30679)"/>
<path d="M287.248 125.576H288.768V135.72H294.816V137H287.248V125.576ZM303.443 136.968C303.208 137.107 302.883 137.176 302.467 137.176C302.115 137.176 301.832 137.08 301.619 136.888C301.416 136.685 301.315 136.36 301.315 135.912C300.941 136.36 300.504 136.685 300.003 136.888C299.512 137.08 298.979 137.176 298.403 137.176C298.029 137.176 297.672 137.133 297.331 137.048C297 136.963 296.712 136.829 296.467 136.648C296.221 136.467 296.024 136.232 295.875 135.944C295.736 135.645 295.667 135.288 295.667 134.872C295.667 134.403 295.747 134.019 295.907 133.72C296.067 133.421 296.275 133.181 296.531 133C296.797 132.808 297.096 132.664 297.427 132.568C297.768 132.472 298.115 132.392 298.467 132.328C298.84 132.253 299.192 132.2 299.523 132.168C299.864 132.125 300.163 132.072 300.419 132.008C300.675 131.933 300.877 131.832 301.027 131.704C301.176 131.565 301.251 131.368 301.251 131.112C301.251 130.813 301.192 130.573 301.075 130.392C300.968 130.211 300.824 130.072 300.643 129.976C300.472 129.88 300.275 129.816 300.051 129.784C299.837 129.752 299.624 129.736 299.411 129.736C298.835 129.736 298.355 129.848 297.971 130.072C297.587 130.285 297.379 130.696 297.347 131.304H295.987C296.008 130.792 296.115 130.36 296.307 130.008C296.499 129.656 296.755 129.373 297.075 129.16C297.395 128.936 297.757 128.776 298.163 128.68C298.579 128.584 299.021 128.536 299.491 128.536C299.864 128.536 300.232 128.563 300.595 128.616C300.968 128.669 301.304 128.781 301.603 128.952C301.901 129.112 302.141 129.341 302.323 129.64C302.504 129.939 302.595 130.328 302.595 130.808V135.064C302.595 135.384 302.611 135.619 302.643 135.768C302.685 135.917 302.813 135.992 303.027 135.992C303.144 135.992 303.283 135.965 303.443 135.912V136.968ZM301.235 132.728C301.064 132.856 300.84 132.952 300.563 133.016C300.285 133.069 299.992 133.117 299.683 133.16C299.384 133.192 299.08 133.235 298.771 133.288C298.461 133.331 298.184 133.405 297.939 133.512C297.693 133.619 297.491 133.773 297.331 133.976C297.181 134.168 297.107 134.435 297.107 134.776C297.107 135 297.149 135.192 297.235 135.352C297.331 135.501 297.448 135.624 297.587 135.72C297.736 135.816 297.907 135.885 298.099 135.928C298.291 135.971 298.493 135.992 298.707 135.992C299.155 135.992 299.539 135.933 299.859 135.816C300.179 135.688 300.44 135.533 300.643 135.352C300.845 135.16 300.995 134.957 301.091 134.744C301.187 134.52 301.235 134.312 301.235 134.12V132.728ZM304.956 125.576H306.316V129.848H306.348C306.572 129.389 306.924 129.059 307.404 128.856C307.884 128.643 308.412 128.536 308.988 128.536C309.628 128.536 310.183 128.653 310.652 128.888C311.132 129.123 311.527 129.443 311.836 129.848C312.156 130.243 312.396 130.701 312.556 131.224C312.716 131.747 312.796 132.301 312.796 132.888C312.796 133.475 312.716 134.029 312.556 134.552C312.407 135.075 312.172 135.533 311.852 135.928C311.543 136.312 311.148 136.616 310.668 136.84C310.199 137.064 309.65 137.176 309.02 137.176C308.818 137.176 308.588 137.155 308.332 137.112C308.087 137.069 307.842 137 307.596 136.904C307.351 136.808 307.116 136.68 306.892 136.52C306.679 136.349 306.498 136.141 306.348 135.896H306.316V137H304.956V125.576ZM311.356 132.792C311.356 132.408 311.303 132.035 311.196 131.672C311.1 131.299 310.946 130.968 310.732 130.68C310.53 130.392 310.263 130.163 309.932 129.992C309.612 129.821 309.234 129.736 308.796 129.736C308.338 129.736 307.948 129.827 307.628 130.008C307.308 130.189 307.047 130.429 306.844 130.728C306.642 131.016 306.492 131.347 306.396 131.72C306.311 132.093 306.268 132.472 306.268 132.856C306.268 133.261 306.316 133.656 306.412 134.04C306.508 134.413 306.658 134.744 306.86 135.032C307.074 135.32 307.346 135.555 307.676 135.736C308.007 135.907 308.407 135.992 308.876 135.992C309.346 135.992 309.735 135.901 310.044 135.72C310.364 135.539 310.62 135.299 310.812 135C311.004 134.701 311.143 134.36 311.228 133.976C311.314 133.592 311.356 133.197 311.356 132.792ZM320.337 132.072C320.315 131.752 320.241 131.448 320.113 131.16C319.995 130.872 319.83 130.627 319.617 130.424C319.414 130.211 319.169 130.045 318.881 129.928C318.603 129.8 318.294 129.736 317.953 129.736C317.601 129.736 317.281 129.8 316.993 129.928C316.715 130.045 316.475 130.211 316.273 130.424C316.07 130.637 315.91 130.888 315.793 131.176C315.675 131.453 315.606 131.752 315.585 132.072H320.337ZM321.649 134.376C321.467 135.304 321.067 136.003 320.449 136.472C319.83 136.941 319.051 137.176 318.113 137.176C317.451 137.176 316.875 137.069 316.385 136.856C315.905 136.643 315.499 136.344 315.169 135.96C314.838 135.576 314.587 135.117 314.417 134.584C314.257 134.051 314.166 133.469 314.145 132.84C314.145 132.211 314.241 131.635 314.433 131.112C314.625 130.589 314.891 130.136 315.233 129.752C315.585 129.368 315.995 129.069 316.465 128.856C316.945 128.643 317.467 128.536 318.033 128.536C318.769 128.536 319.377 128.691 319.857 129C320.347 129.299 320.737 129.683 321.025 130.152C321.323 130.621 321.526 131.133 321.633 131.688C321.75 132.243 321.798 132.771 321.777 133.272H315.585C315.574 133.635 315.617 133.981 315.713 134.312C315.809 134.632 315.963 134.92 316.177 135.176C316.39 135.421 316.662 135.619 316.993 135.768C317.323 135.917 317.713 135.992 318.161 135.992C318.737 135.992 319.206 135.859 319.569 135.592C319.942 135.325 320.187 134.92 320.305 134.376H321.649ZM323.466 125.576H324.826V137H323.466V125.576Z" fill="black" fill-opacity="0.68"/>
<path d="M93.84 236.356H90.032V235.076H99.168V236.356H95.36V246.5H93.84V236.356ZM98.6948 238.228H99.9748V239.972H100.007C100.337 239.3 100.743 238.804 101.223 238.484C101.703 238.164 102.311 238.015 103.047 238.036V239.476C102.503 239.476 102.039 239.551 101.655 239.7C101.271 239.849 100.961 240.068 100.727 240.356C100.492 240.644 100.321 240.996 100.215 241.412C100.108 241.817 100.055 242.287 100.055 242.82V246.5H98.6948V238.228ZM110.919 246.5H109.639V245.188H109.607C109.319 245.7 108.951 246.079 108.503 246.324C108.055 246.559 107.527 246.676 106.919 246.676C106.375 246.676 105.922 246.607 105.559 246.468C105.196 246.319 104.903 246.111 104.679 245.844C104.455 245.577 104.295 245.263 104.199 244.9C104.114 244.527 104.071 244.116 104.071 243.668V238.228H105.431V243.828C105.431 244.34 105.58 244.745 105.879 245.044C106.178 245.343 106.588 245.492 107.111 245.492C107.527 245.492 107.884 245.428 108.183 245.3C108.492 245.172 108.748 244.991 108.951 244.756C109.154 244.521 109.303 244.249 109.399 243.94C109.506 243.62 109.559 243.273 109.559 242.9V238.228H110.919V246.5ZM118.706 241.572C118.684 241.252 118.61 240.948 118.482 240.66C118.364 240.372 118.199 240.127 117.986 239.924C117.783 239.711 117.538 239.545 117.25 239.428C116.972 239.3 116.663 239.236 116.322 239.236C115.97 239.236 115.65 239.3 115.362 239.428C115.084 239.545 114.844 239.711 114.642 239.924C114.439 240.137 114.279 240.388 114.162 240.676C114.044 240.953 113.975 241.252 113.954 241.572H118.706ZM120.017 243.876C119.836 244.804 119.436 245.503 118.818 245.972C118.199 246.441 117.42 246.676 116.482 246.676C115.82 246.676 115.244 246.569 114.754 246.356C114.274 246.143 113.868 245.844 113.538 245.46C113.207 245.076 112.956 244.617 112.786 244.084C112.626 243.551 112.535 242.969 112.514 242.34C112.514 241.711 112.61 241.135 112.802 240.612C112.994 240.089 113.26 239.636 113.602 239.252C113.954 238.868 114.364 238.569 114.834 238.356C115.314 238.143 115.836 238.036 116.402 238.036C117.138 238.036 117.746 238.191 118.226 238.5C118.716 238.799 119.106 239.183 119.394 239.652C119.692 240.121 119.895 240.633 120.002 241.188C120.119 241.743 120.167 242.271 120.146 242.772H113.954C113.943 243.135 113.986 243.481 114.082 243.812C114.178 244.132 114.332 244.42 114.546 244.676C114.759 244.921 115.031 245.119 115.362 245.268C115.692 245.417 116.082 245.492 116.53 245.492C117.106 245.492 117.575 245.359 117.938 245.092C118.311 244.825 118.556 244.42 118.674 243.876H120.017Z" fill="black" fill-opacity="0.68"/>
<mask id="path-6-inside-2_65346_30679" fill="white">
<path d="M270 211H510V271H270V211Z"/>
</mask>
<path d="M270 211V210H269V211H270ZM510 211H511V210H510V211ZM510 271V272H511V271H510ZM270 271H269V272H270V271ZM270 211V212H510V211V210H270V211ZM510 211H509V271H510H511V211H510ZM510 271V270H270V271V272H510V271ZM270 271H271V211H270H269V271H270Z" fill="black" fill-opacity="0.2" mask="url(#path-6-inside-2_65346_30679)"/>
<path d="M287.248 235.576H288.768V245.72H294.816V247H287.248V235.576ZM303.443 246.968C303.208 247.107 302.883 247.176 302.467 247.176C302.115 247.176 301.832 247.08 301.619 246.888C301.416 246.685 301.315 246.36 301.315 245.912C300.941 246.36 300.504 246.685 300.003 246.888C299.512 247.08 298.979 247.176 298.403 247.176C298.029 247.176 297.672 247.133 297.331 247.048C297 246.963 296.712 246.829 296.467 246.648C296.221 246.467 296.024 246.232 295.875 245.944C295.736 245.645 295.667 245.288 295.667 244.872C295.667 244.403 295.747 244.019 295.907 243.72C296.067 243.421 296.275 243.181 296.531 243C296.797 242.808 297.096 242.664 297.427 242.568C297.768 242.472 298.115 242.392 298.467 242.328C298.84 242.253 299.192 242.2 299.523 242.168C299.864 242.125 300.163 242.072 300.419 242.008C300.675 241.933 300.877 241.832 301.027 241.704C301.176 241.565 301.251 241.368 301.251 241.112C301.251 240.813 301.192 240.573 301.075 240.392C300.968 240.211 300.824 240.072 300.643 239.976C300.472 239.88 300.275 239.816 300.051 239.784C299.837 239.752 299.624 239.736 299.411 239.736C298.835 239.736 298.355 239.848 297.971 240.072C297.587 240.285 297.379 240.696 297.347 241.304H295.987C296.008 240.792 296.115 240.36 296.307 240.008C296.499 239.656 296.755 239.373 297.075 239.16C297.395 238.936 297.757 238.776 298.163 238.68C298.579 238.584 299.021 238.536 299.491 238.536C299.864 238.536 300.232 238.563 300.595 238.616C300.968 238.669 301.304 238.781 301.603 238.952C301.901 239.112 302.141 239.341 302.323 239.64C302.504 239.939 302.595 240.328 302.595 240.808V245.064C302.595 245.384 302.611 245.619 302.643 245.768C302.685 245.917 302.813 245.992 303.027 245.992C303.144 245.992 303.283 245.965 303.443 245.912V246.968ZM301.235 242.728C301.064 242.856 300.84 242.952 300.563 243.016C300.285 243.069 299.992 243.117 299.683 243.16C299.384 243.192 299.08 243.235 298.771 243.288C298.461 243.331 298.184 243.405 297.939 243.512C297.693 243.619 297.491 243.773 297.331 243.976C297.181 244.168 297.107 244.435 297.107 244.776C297.107 245 297.149 245.192 297.235 245.352C297.331 245.501 297.448 245.624 297.587 245.72C297.736 245.816 297.907 245.885 298.099 245.928C298.291 245.971 298.493 245.992 298.707 245.992C299.155 245.992 299.539 245.933 299.859 245.816C300.179 245.688 300.44 245.533 300.643 245.352C300.845 245.16 300.995 244.957 301.091 244.744C301.187 244.52 301.235 244.312 301.235 244.12V242.728ZM304.956 235.576H306.316V239.848H306.348C306.572 239.389 306.924 239.059 307.404 238.856C307.884 238.643 308.412 238.536 308.988 238.536C309.628 238.536 310.183 238.653 310.652 238.888C311.132 239.123 311.527 239.443 311.836 239.848C312.156 240.243 312.396 240.701 312.556 241.224C312.716 241.747 312.796 242.301 312.796 242.888C312.796 243.475 312.716 244.029 312.556 244.552C312.407 245.075 312.172 245.533 311.852 245.928C311.543 246.312 311.148 246.616 310.668 246.84C310.199 247.064 309.65 247.176 309.02 247.176C308.818 247.176 308.588 247.155 308.332 247.112C308.087 247.069 307.842 247 307.596 246.904C307.351 246.808 307.116 246.68 306.892 246.52C306.679 246.349 306.498 246.141 306.348 245.896H306.316V247H304.956V235.576ZM311.356 242.792C311.356 242.408 311.303 242.035 311.196 241.672C311.1 241.299 310.946 240.968 310.732 240.68C310.53 240.392 310.263 240.163 309.932 239.992C309.612 239.821 309.234 239.736 308.796 239.736C308.338 239.736 307.948 239.827 307.628 240.008C307.308 240.189 307.047 240.429 306.844 240.728C306.642 241.016 306.492 241.347 306.396 241.72C306.311 242.093 306.268 242.472 306.268 242.856C306.268 243.261 306.316 243.656 306.412 244.04C306.508 244.413 306.658 244.744 306.86 245.032C307.074 245.32 307.346 245.555 307.676 245.736C308.007 245.907 308.407 245.992 308.876 245.992C309.346 245.992 309.735 245.901 310.044 245.72C310.364 245.539 310.62 245.299 310.812 245C311.004 244.701 311.143 244.36 311.228 243.976C311.314 243.592 311.356 243.197 311.356 242.792ZM320.337 242.072C320.315 241.752 320.241 241.448 320.113 241.16C319.995 240.872 319.83 240.627 319.617 240.424C319.414 240.211 319.169 240.045 318.881 239.928C318.603 239.8 318.294 239.736 317.953 239.736C317.601 239.736 317.281 239.8 316.993 239.928C316.715 240.045 316.475 240.211 316.273 240.424C316.07 240.637 315.91 240.888 315.793 241.176C315.675 241.453 315.606 241.752 315.585 242.072H320.337ZM321.649 244.376C321.467 245.304 321.067 246.003 320.449 246.472C319.83 246.941 319.051 247.176 318.113 247.176C317.451 247.176 316.875 247.069 316.385 246.856C315.905 246.643 315.499 246.344 315.169 245.96C314.838 245.576 314.587 245.117 314.417 244.584C314.257 244.051 314.166 243.469 314.145 242.84C314.145 242.211 314.241 241.635 314.433 241.112C314.625 240.589 314.891 240.136 315.233 239.752C315.585 239.368 315.995 239.069 316.465 238.856C316.945 238.643 317.467 238.536 318.033 238.536C318.769 238.536 319.377 238.691 319.857 239C320.347 239.299 320.737 239.683 321.025 240.152C321.323 240.621 321.526 241.133 321.633 241.688C321.75 242.243 321.798 242.771 321.777 243.272H315.585C315.574 243.635 315.617 243.981 315.713 244.312C315.809 244.632 315.963 244.92 316.177 245.176C316.39 245.421 316.662 245.619 316.993 245.768C317.323 245.917 317.713 245.992 318.161 245.992C318.737 245.992 319.206 245.859 319.569 245.592C319.942 245.325 320.187 244.92 320.305 244.376H321.649ZM323.466 235.576H324.826V247H323.466V235.576Z" fill="black" fill-opacity="0.68"/>
</svg>
