<svg width="600" height="508" viewBox="0 0 600 508" fill="none" xmlns="http://www.w3.org/2000/svg">
<rect width="600" height="508" fill="black" fill-opacity="0.04"/>
<path d="M91.248 98.076H98.752V99.356H92.768V102.988H98.016V104.268H92.768V109.5H91.248V98.076ZM107.54 109.468C107.305 109.607 106.98 109.676 106.564 109.676C106.212 109.676 105.929 109.58 105.716 109.388C105.513 109.185 105.412 108.86 105.412 108.412C105.038 108.86 104.601 109.185 104.1 109.388C103.609 109.58 103.076 109.676 102.5 109.676C102.126 109.676 101.769 109.633 101.428 109.548C101.097 109.463 100.809 109.329 100.564 109.148C100.318 108.967 100.121 108.732 99.9715 108.444C99.8328 108.145 99.7635 107.788 99.7635 107.372C99.7635 106.903 99.8435 106.519 100.004 106.22C100.164 105.921 100.372 105.681 100.628 105.5C100.894 105.308 101.193 105.164 101.524 105.068C101.865 104.972 102.212 104.892 102.564 104.828C102.937 104.753 103.289 104.7 103.62 104.668C103.961 104.625 104.26 104.572 104.516 104.508C104.772 104.433 104.974 104.332 105.124 104.204C105.273 104.065 105.348 103.868 105.348 103.612C105.348 103.313 105.289 103.073 105.172 102.892C105.065 102.711 104.921 102.572 104.74 102.476C104.569 102.38 104.372 102.316 104.148 102.284C103.934 102.252 103.721 102.236 103.508 102.236C102.932 102.236 102.452 102.348 102.068 102.572C101.684 102.785 101.476 103.196 101.444 103.804H100.084C100.105 103.292 100.212 102.86 100.404 102.508C100.596 102.156 100.852 101.873 101.172 101.66C101.492 101.436 101.854 101.276 102.26 101.18C102.676 101.084 103.118 101.036 103.588 101.036C103.961 101.036 104.329 101.063 104.692 101.116C105.065 101.169 105.401 101.281 105.7 101.452C105.998 101.612 106.238 101.841 106.42 102.14C106.601 102.439 106.692 102.828 106.692 103.308V107.564C106.692 107.884 106.708 108.119 106.74 108.268C106.782 108.417 106.91 108.492 107.124 108.492C107.241 108.492 107.38 108.465 107.54 108.412V109.468ZM105.332 105.228C105.161 105.356 104.937 105.452 104.66 105.516C104.382 105.569 104.089 105.617 103.78 105.66C103.481 105.692 103.177 105.735 102.868 105.788C102.558 105.831 102.281 105.905 102.036 106.012C101.79 106.119 101.588 106.273 101.428 106.476C101.278 106.668 101.204 106.935 101.204 107.276C101.204 107.5 101.246 107.692 101.332 107.852C101.428 108.001 101.545 108.124 101.684 108.22C101.833 108.316 102.004 108.385 102.196 108.428C102.388 108.471 102.59 108.492 102.804 108.492C103.252 108.492 103.636 108.433 103.956 108.316C104.276 108.188 104.537 108.033 104.74 107.852C104.942 107.66 105.092 107.457 105.188 107.244C105.284 107.02 105.332 106.812 105.332 106.62V105.228ZM108.885 98.076H110.245V109.5H108.885V98.076ZM113.184 106.892C113.195 107.191 113.264 107.447 113.392 107.66C113.52 107.863 113.685 108.028 113.888 108.156C114.101 108.273 114.336 108.359 114.592 108.412C114.859 108.465 115.131 108.492 115.408 108.492C115.621 108.492 115.845 108.476 116.08 108.444C116.315 108.412 116.528 108.353 116.72 108.268C116.923 108.183 117.088 108.06 117.216 107.9C117.344 107.729 117.408 107.516 117.408 107.26C117.408 106.908 117.275 106.641 117.008 106.46C116.741 106.279 116.405 106.135 116 106.028C115.605 105.911 115.173 105.809 114.704 105.724C114.235 105.628 113.797 105.5 113.392 105.34C112.997 105.169 112.667 104.935 112.4 104.636C112.133 104.337 112 103.921 112 103.388C112 102.972 112.091 102.615 112.272 102.316C112.464 102.017 112.704 101.777 112.992 101.596C113.291 101.404 113.621 101.265 113.984 101.18C114.357 101.084 114.725 101.036 115.088 101.036C115.557 101.036 115.989 101.079 116.384 101.164C116.779 101.239 117.125 101.377 117.424 101.58C117.733 101.772 117.979 102.039 118.16 102.38C118.341 102.711 118.448 103.127 118.48 103.628H117.12C117.099 103.361 117.029 103.143 116.912 102.972C116.795 102.791 116.645 102.647 116.464 102.54C116.283 102.433 116.08 102.359 115.856 102.316C115.643 102.263 115.424 102.236 115.2 102.236C114.997 102.236 114.789 102.252 114.576 102.284C114.373 102.316 114.187 102.375 114.016 102.46C113.845 102.535 113.707 102.641 113.6 102.78C113.493 102.908 113.44 103.079 113.44 103.292C113.44 103.527 113.52 103.724 113.68 103.884C113.851 104.033 114.064 104.161 114.32 104.268C114.576 104.364 114.864 104.449 115.184 104.524C115.504 104.588 115.824 104.657 116.144 104.732C116.485 104.807 116.816 104.897 117.136 105.004C117.467 105.111 117.755 105.255 118 105.436C118.256 105.607 118.459 105.825 118.608 106.092C118.768 106.359 118.848 106.689 118.848 107.084C118.848 107.585 118.741 108.001 118.528 108.332C118.325 108.663 118.053 108.929 117.712 109.132C117.381 109.335 117.003 109.473 116.576 109.548C116.16 109.633 115.744 109.676 115.328 109.676C114.869 109.676 114.432 109.628 114.016 109.532C113.6 109.436 113.232 109.281 112.912 109.068C112.592 108.844 112.336 108.556 112.144 108.204C111.952 107.841 111.845 107.404 111.824 106.892H113.184ZM126.096 104.572C126.075 104.252 126 103.948 125.872 103.66C125.755 103.372 125.589 103.127 125.376 102.924C125.173 102.711 124.928 102.545 124.64 102.428C124.363 102.3 124.053 102.236 123.712 102.236C123.36 102.236 123.04 102.3 122.752 102.428C122.475 102.545 122.235 102.711 122.032 102.924C121.829 103.137 121.669 103.388 121.552 103.676C121.435 103.953 121.365 104.252 121.344 104.572H126.096ZM127.408 106.876C127.227 107.804 126.827 108.503 126.208 108.972C125.589 109.441 124.811 109.676 123.872 109.676C123.211 109.676 122.635 109.569 122.144 109.356C121.664 109.143 121.259 108.844 120.928 108.46C120.597 108.076 120.347 107.617 120.176 107.084C120.016 106.551 119.925 105.969 119.904 105.34C119.904 104.711 120 104.135 120.192 103.612C120.384 103.089 120.651 102.636 120.992 102.252C121.344 101.868 121.755 101.569 122.224 101.356C122.704 101.143 123.227 101.036 123.792 101.036C124.528 101.036 125.136 101.191 125.616 101.5C126.107 101.799 126.496 102.183 126.784 102.652C127.083 103.121 127.285 103.633 127.392 104.188C127.509 104.743 127.557 105.271 127.536 105.772H121.344C121.333 106.135 121.376 106.481 121.472 106.812C121.568 107.132 121.723 107.42 121.936 107.676C122.149 107.921 122.421 108.119 122.752 108.268C123.083 108.417 123.472 108.492 123.92 108.492C124.496 108.492 124.965 108.359 125.328 108.092C125.701 107.825 125.947 107.42 126.064 106.876H127.408Z" fill="black" fill-opacity="0.68"/>
<mask id="path-2-inside-1_65346_30735" fill="white">
<path d="M270 74H510V134H270V74Z"/>
</mask>
<path d="M270 74H510V134H270V74Z" fill="black" fill-opacity="0.04"/>
<path d="M510 134V133H270V134V135H510V134Z" fill="black" fill-opacity="0.2" mask="url(#path-2-inside-1_65346_30735)"/>
<path d="M286.936 87.432H288.076V95.04H292.612V96H286.936V87.432ZM299.112 95.976C298.936 96.08 298.692 96.132 298.38 96.132C298.116 96.132 297.904 96.06 297.744 95.916C297.592 95.764 297.516 95.52 297.516 95.184C297.236 95.52 296.908 95.764 296.532 95.916C296.164 96.06 295.764 96.132 295.332 96.132C295.052 96.132 294.784 96.1 294.528 96.036C294.28 95.972 294.064 95.872 293.88 95.736C293.696 95.6 293.548 95.424 293.436 95.208C293.332 94.984 293.28 94.716 293.28 94.404C293.28 94.052 293.34 93.764 293.46 93.54C293.58 93.316 293.736 93.136 293.928 93C294.128 92.856 294.352 92.748 294.6 92.676C294.856 92.604 295.116 92.544 295.38 92.496C295.66 92.44 295.924 92.4 296.172 92.376C296.428 92.344 296.652 92.304 296.844 92.256C297.036 92.2 297.188 92.124 297.3 92.028C297.412 91.924 297.468 91.776 297.468 91.584C297.468 91.36 297.424 91.18 297.336 91.044C297.256 90.908 297.148 90.804 297.012 90.732C296.884 90.66 296.736 90.612 296.568 90.588C296.408 90.564 296.248 90.552 296.088 90.552C295.656 90.552 295.296 90.636 295.008 90.804C294.72 90.964 294.564 91.272 294.54 91.728H293.52C293.536 91.344 293.616 91.02 293.76 90.756C293.904 90.492 294.096 90.28 294.336 90.12C294.576 89.952 294.848 89.832 295.152 89.76C295.464 89.688 295.796 89.652 296.148 89.652C296.428 89.652 296.704 89.672 296.976 89.712C297.256 89.752 297.508 89.836 297.732 89.964C297.956 90.084 298.136 90.256 298.272 90.48C298.408 90.704 298.476 90.996 298.476 91.356V94.548C298.476 94.788 298.488 94.964 298.512 95.076C298.544 95.188 298.64 95.244 298.8 95.244C298.888 95.244 298.992 95.224 299.112 95.184V95.976ZM297.456 92.796C297.328 92.892 297.16 92.964 296.952 93.012C296.744 93.052 296.524 93.088 296.292 93.12C296.068 93.144 295.84 93.176 295.608 93.216C295.376 93.248 295.168 93.304 294.984 93.384C294.8 93.464 294.648 93.58 294.528 93.732C294.416 93.876 294.36 94.076 294.36 94.332C294.36 94.5 294.392 94.644 294.456 94.764C294.528 94.876 294.616 94.968 294.72 95.04C294.832 95.112 294.96 95.164 295.104 95.196C295.248 95.228 295.4 95.244 295.56 95.244C295.896 95.244 296.184 95.2 296.424 95.112C296.664 95.016 296.86 94.9 297.012 94.764C297.164 94.62 297.276 94.468 297.348 94.308C297.42 94.14 297.456 93.984 297.456 93.84V92.796ZM300.277 87.432H301.297V90.636H301.321C301.489 90.292 301.753 90.044 302.113 89.892C302.473 89.732 302.869 89.652 303.301 89.652C303.781 89.652 304.197 89.74 304.549 89.916C304.909 90.092 305.205 90.332 305.437 90.636C305.677 90.932 305.857 91.276 305.977 91.668C306.097 92.06 306.157 92.476 306.157 92.916C306.157 93.356 306.097 93.772 305.977 94.164C305.865 94.556 305.689 94.9 305.449 95.196C305.217 95.484 304.921 95.712 304.561 95.88C304.209 96.048 303.797 96.132 303.325 96.132C303.173 96.132 303.001 96.116 302.809 96.084C302.625 96.052 302.441 96 302.257 95.928C302.073 95.856 301.897 95.76 301.729 95.64C301.569 95.512 301.433 95.356 301.321 95.172H301.297V96H300.277V87.432ZM305.077 92.844C305.077 92.556 305.037 92.276 304.957 92.004C304.885 91.724 304.769 91.476 304.609 91.26C304.457 91.044 304.257 90.872 304.009 90.744C303.769 90.616 303.485 90.552 303.157 90.552C302.813 90.552 302.521 90.62 302.281 90.756C302.041 90.892 301.845 91.072 301.693 91.296C301.541 91.512 301.429 91.76 301.357 92.04C301.293 92.32 301.261 92.604 301.261 92.892C301.261 93.196 301.297 93.492 301.369 93.78C301.441 94.06 301.553 94.308 301.705 94.524C301.865 94.74 302.069 94.916 302.317 95.052C302.565 95.18 302.865 95.244 303.217 95.244C303.569 95.244 303.861 95.176 304.093 95.04C304.333 94.904 304.525 94.724 304.669 94.5C304.813 94.276 304.917 94.02 304.981 93.732C305.045 93.444 305.077 93.148 305.077 92.844ZM311.843 92.304C311.827 92.064 311.771 91.836 311.675 91.62C311.587 91.404 311.463 91.22 311.303 91.068C311.151 90.908 310.967 90.784 310.751 90.696C310.543 90.6 310.311 90.552 310.055 90.552C309.791 90.552 309.551 90.6 309.335 90.696C309.127 90.784 308.947 90.908 308.795 91.068C308.643 91.228 308.523 91.416 308.435 91.632C308.347 91.84 308.295 92.064 308.279 92.304H311.843ZM312.827 94.032C312.691 94.728 312.391 95.252 311.927 95.604C311.463 95.956 310.879 96.132 310.175 96.132C309.679 96.132 309.247 96.052 308.879 95.892C308.519 95.732 308.215 95.508 307.967 95.22C307.719 94.932 307.531 94.588 307.403 94.188C307.283 93.788 307.215 93.352 307.199 92.88C307.199 92.408 307.271 91.976 307.415 91.584C307.559 91.192 307.759 90.852 308.015 90.564C308.279 90.276 308.587 90.052 308.939 89.892C309.299 89.732 309.691 89.652 310.115 89.652C310.667 89.652 311.123 89.768 311.483 90C311.851 90.224 312.143 90.512 312.359 90.864C312.583 91.216 312.735 91.6 312.815 92.016C312.903 92.432 312.939 92.828 312.923 93.204H308.279C308.271 93.476 308.303 93.736 308.375 93.984C308.447 94.224 308.563 94.44 308.723 94.632C308.883 94.816 309.087 94.964 309.335 95.076C309.583 95.188 309.875 95.244 310.211 95.244C310.643 95.244 310.995 95.144 311.267 94.944C311.547 94.744 311.731 94.44 311.819 94.032H312.827ZM314.22 87.432H315.24V96H314.22V87.432Z" fill="black" fill-opacity="0.68"/>
<path d="M287.216 106.576H289.216V118H287.216V106.576ZM291.613 109.728H293.341V110.944L293.373 110.976C293.65 110.517 294.013 110.16 294.461 109.904C294.909 109.637 295.405 109.504 295.949 109.504C296.856 109.504 297.57 109.739 298.093 110.208C298.616 110.677 298.877 111.381 298.877 112.32V118H297.053V112.8C297.032 112.149 296.893 111.68 296.637 111.392C296.381 111.093 295.981 110.944 295.437 110.944C295.128 110.944 294.85 111.003 294.605 111.12C294.36 111.227 294.152 111.381 293.981 111.584C293.81 111.776 293.677 112.005 293.581 112.272C293.485 112.539 293.437 112.821 293.437 113.12V118H291.613V109.728ZM301.049 109.728H302.777V110.848H302.809C303.065 110.368 303.422 110.027 303.881 109.824C304.339 109.611 304.835 109.504 305.369 109.504C306.019 109.504 306.585 109.621 307.065 109.856C307.555 110.08 307.961 110.395 308.281 110.8C308.601 111.195 308.841 111.659 309.001 112.192C309.161 112.725 309.241 113.296 309.241 113.904C309.241 114.459 309.166 114.997 309.017 115.52C308.878 116.043 308.659 116.507 308.361 116.912C308.073 117.307 307.705 117.627 307.257 117.872C306.809 118.107 306.281 118.224 305.673 118.224C305.406 118.224 305.139 118.197 304.873 118.144C304.606 118.101 304.35 118.027 304.105 117.92C303.859 117.813 303.63 117.68 303.417 117.52C303.214 117.349 303.043 117.152 302.905 116.928H302.873V121.056H301.049V109.728ZM307.417 113.872C307.417 113.499 307.369 113.136 307.273 112.784C307.177 112.432 307.033 112.123 306.841 111.856C306.649 111.579 306.409 111.36 306.121 111.2C305.833 111.029 305.502 110.944 305.129 110.944C304.361 110.944 303.779 111.211 303.385 111.744C303.001 112.277 302.809 112.987 302.809 113.872C302.809 114.288 302.857 114.677 302.953 115.04C303.059 115.392 303.214 115.696 303.417 115.952C303.619 116.208 303.859 116.411 304.137 116.56C304.425 116.709 304.755 116.784 305.129 116.784C305.545 116.784 305.897 116.699 306.185 116.528C306.473 116.357 306.707 116.139 306.889 115.872C307.081 115.595 307.214 115.285 307.289 114.944C307.374 114.592 307.417 114.235 307.417 113.872ZM318.246 118H316.454V116.848H316.422C316.198 117.264 315.862 117.6 315.414 117.856C314.977 118.101 314.529 118.224 314.07 118.224C312.982 118.224 312.193 117.957 311.702 117.424C311.222 116.88 310.982 116.064 310.982 114.976V109.728H312.806V114.8C312.806 115.525 312.945 116.037 313.222 116.336C313.499 116.635 313.889 116.784 314.39 116.784C314.774 116.784 315.094 116.725 315.35 116.608C315.606 116.491 315.814 116.336 315.974 116.144C316.134 115.941 316.246 115.701 316.31 115.424C316.385 115.147 316.422 114.848 316.422 114.528V109.728H318.246V118ZM319.537 109.728H320.913V107.248H322.737V109.728H324.385V111.088H322.737V115.504C322.737 115.696 322.743 115.861 322.753 116C322.775 116.139 322.812 116.256 322.865 116.352C322.929 116.448 323.02 116.523 323.137 116.576C323.255 116.619 323.415 116.64 323.617 116.64C323.745 116.64 323.873 116.64 324.001 116.64C324.129 116.629 324.257 116.608 324.385 116.576V117.984C324.183 118.005 323.985 118.027 323.793 118.048C323.601 118.069 323.404 118.08 323.201 118.08C322.721 118.08 322.332 118.037 322.033 117.952C321.745 117.856 321.516 117.723 321.345 117.552C321.185 117.371 321.073 117.147 321.009 116.88C320.956 116.613 320.924 116.309 320.913 115.968V111.088H319.537V109.728Z" fill="black"/>
<path d="M93.84 223.356H90.032V222.076H99.168V223.356H95.36V233.5H93.84V223.356ZM98.6948 225.228H99.9748V226.972H100.007C100.337 226.3 100.743 225.804 101.223 225.484C101.703 225.164 102.311 225.015 103.047 225.036V226.476C102.503 226.476 102.039 226.551 101.655 226.7C101.271 226.849 100.961 227.068 100.727 227.356C100.492 227.644 100.321 227.996 100.215 228.412C100.108 228.817 100.055 229.287 100.055 229.82V233.5H98.6948V225.228ZM110.919 233.5H109.639V232.188H109.607C109.319 232.7 108.951 233.079 108.503 233.324C108.055 233.559 107.527 233.676 106.919 233.676C106.375 233.676 105.922 233.607 105.559 233.468C105.196 233.319 104.903 233.111 104.679 232.844C104.455 232.577 104.295 232.263 104.199 231.9C104.114 231.527 104.071 231.116 104.071 230.668V225.228H105.431V230.828C105.431 231.34 105.58 231.745 105.879 232.044C106.178 232.343 106.588 232.492 107.111 232.492C107.527 232.492 107.884 232.428 108.183 232.3C108.492 232.172 108.748 231.991 108.951 231.756C109.154 231.521 109.303 231.249 109.399 230.94C109.506 230.62 109.559 230.273 109.559 229.9V225.228H110.919V233.5ZM118.706 228.572C118.684 228.252 118.61 227.948 118.482 227.66C118.364 227.372 118.199 227.127 117.986 226.924C117.783 226.711 117.538 226.545 117.25 226.428C116.972 226.3 116.663 226.236 116.322 226.236C115.97 226.236 115.65 226.3 115.362 226.428C115.084 226.545 114.844 226.711 114.642 226.924C114.439 227.137 114.279 227.388 114.162 227.676C114.044 227.953 113.975 228.252 113.954 228.572H118.706ZM120.017 230.876C119.836 231.804 119.436 232.503 118.818 232.972C118.199 233.441 117.42 233.676 116.482 233.676C115.82 233.676 115.244 233.569 114.754 233.356C114.274 233.143 113.868 232.844 113.538 232.46C113.207 232.076 112.956 231.617 112.786 231.084C112.626 230.551 112.535 229.969 112.514 229.34C112.514 228.711 112.61 228.135 112.802 227.612C112.994 227.089 113.26 226.636 113.602 226.252C113.954 225.868 114.364 225.569 114.834 225.356C115.314 225.143 115.836 225.036 116.402 225.036C117.138 225.036 117.746 225.191 118.226 225.5C118.716 225.799 119.106 226.183 119.394 226.652C119.692 227.121 119.895 227.633 120.002 228.188C120.119 228.743 120.167 229.271 120.146 229.772H113.954C113.943 230.135 113.986 230.481 114.082 230.812C114.178 231.132 114.332 231.42 114.546 231.676C114.759 231.921 115.031 232.119 115.362 232.268C115.692 232.417 116.082 232.492 116.53 232.492C117.106 232.492 117.575 232.359 117.938 232.092C118.311 231.825 118.556 231.42 118.674 230.876H120.017Z" fill="black" fill-opacity="0.68"/>
<mask id="path-7-inside-2_65346_30735" fill="white">
<path d="M270 184H510V244H270V184Z"/>
</mask>
<path d="M270 184H510V244H270V184Z" fill="#DB0002" fill-opacity="0.08"/>
<path d="M510 244V243H270V244V245H510V244Z" fill="#DB0002" mask="url(#path-7-inside-2_65346_30735)"/>
<path d="M286.936 197.432H288.076V205.04H292.612V206H286.936V197.432ZM299.112 205.976C298.936 206.08 298.692 206.132 298.38 206.132C298.116 206.132 297.904 206.06 297.744 205.916C297.592 205.764 297.516 205.52 297.516 205.184C297.236 205.52 296.908 205.764 296.532 205.916C296.164 206.06 295.764 206.132 295.332 206.132C295.052 206.132 294.784 206.1 294.528 206.036C294.28 205.972 294.064 205.872 293.88 205.736C293.696 205.6 293.548 205.424 293.436 205.208C293.332 204.984 293.28 204.716 293.28 204.404C293.28 204.052 293.34 203.764 293.46 203.54C293.58 203.316 293.736 203.136 293.928 203C294.128 202.856 294.352 202.748 294.6 202.676C294.856 202.604 295.116 202.544 295.38 202.496C295.66 202.44 295.924 202.4 296.172 202.376C296.428 202.344 296.652 202.304 296.844 202.256C297.036 202.2 297.188 202.124 297.3 202.028C297.412 201.924 297.468 201.776 297.468 201.584C297.468 201.36 297.424 201.18 297.336 201.044C297.256 200.908 297.148 200.804 297.012 200.732C296.884 200.66 296.736 200.612 296.568 200.588C296.408 200.564 296.248 200.552 296.088 200.552C295.656 200.552 295.296 200.636 295.008 200.804C294.72 200.964 294.564 201.272 294.54 201.728H293.52C293.536 201.344 293.616 201.02 293.76 200.756C293.904 200.492 294.096 200.28 294.336 200.12C294.576 199.952 294.848 199.832 295.152 199.76C295.464 199.688 295.796 199.652 296.148 199.652C296.428 199.652 296.704 199.672 296.976 199.712C297.256 199.752 297.508 199.836 297.732 199.964C297.956 200.084 298.136 200.256 298.272 200.48C298.408 200.704 298.476 200.996 298.476 201.356V204.548C298.476 204.788 298.488 204.964 298.512 205.076C298.544 205.188 298.64 205.244 298.8 205.244C298.888 205.244 298.992 205.224 299.112 205.184V205.976ZM297.456 202.796C297.328 202.892 297.16 202.964 296.952 203.012C296.744 203.052 296.524 203.088 296.292 203.12C296.068 203.144 295.84 203.176 295.608 203.216C295.376 203.248 295.168 203.304 294.984 203.384C294.8 203.464 294.648 203.58 294.528 203.732C294.416 203.876 294.36 204.076 294.36 204.332C294.36 204.5 294.392 204.644 294.456 204.764C294.528 204.876 294.616 204.968 294.72 205.04C294.832 205.112 294.96 205.164 295.104 205.196C295.248 205.228 295.4 205.244 295.56 205.244C295.896 205.244 296.184 205.2 296.424 205.112C296.664 205.016 296.86 204.9 297.012 204.764C297.164 204.62 297.276 204.468 297.348 204.308C297.42 204.14 297.456 203.984 297.456 203.84V202.796ZM300.277 197.432H301.297V200.636H301.321C301.489 200.292 301.753 200.044 302.113 199.892C302.473 199.732 302.869 199.652 303.301 199.652C303.781 199.652 304.197 199.74 304.549 199.916C304.909 200.092 305.205 200.332 305.437 200.636C305.677 200.932 305.857 201.276 305.977 201.668C306.097 202.06 306.157 202.476 306.157 202.916C306.157 203.356 306.097 203.772 305.977 204.164C305.865 204.556 305.689 204.9 305.449 205.196C305.217 205.484 304.921 205.712 304.561 205.88C304.209 206.048 303.797 206.132 303.325 206.132C303.173 206.132 303.001 206.116 302.809 206.084C302.625 206.052 302.441 206 302.257 205.928C302.073 205.856 301.897 205.76 301.729 205.64C301.569 205.512 301.433 205.356 301.321 205.172H301.297V206H300.277V197.432ZM305.077 202.844C305.077 202.556 305.037 202.276 304.957 202.004C304.885 201.724 304.769 201.476 304.609 201.26C304.457 201.044 304.257 200.872 304.009 200.744C303.769 200.616 303.485 200.552 303.157 200.552C302.813 200.552 302.521 200.62 302.281 200.756C302.041 200.892 301.845 201.072 301.693 201.296C301.541 201.512 301.429 201.76 301.357 202.04C301.293 202.32 301.261 202.604 301.261 202.892C301.261 203.196 301.297 203.492 301.369 203.78C301.441 204.06 301.553 204.308 301.705 204.524C301.865 204.74 302.069 204.916 302.317 205.052C302.565 205.18 302.865 205.244 303.217 205.244C303.569 205.244 303.861 205.176 304.093 205.04C304.333 204.904 304.525 204.724 304.669 204.5C304.813 204.276 304.917 204.02 304.981 203.732C305.045 203.444 305.077 203.148 305.077 202.844ZM311.843 202.304C311.827 202.064 311.771 201.836 311.675 201.62C311.587 201.404 311.463 201.22 311.303 201.068C311.151 200.908 310.967 200.784 310.751 200.696C310.543 200.6 310.311 200.552 310.055 200.552C309.791 200.552 309.551 200.6 309.335 200.696C309.127 200.784 308.947 200.908 308.795 201.068C308.643 201.228 308.523 201.416 308.435 201.632C308.347 201.84 308.295 202.064 308.279 202.304H311.843ZM312.827 204.032C312.691 204.728 312.391 205.252 311.927 205.604C311.463 205.956 310.879 206.132 310.175 206.132C309.679 206.132 309.247 206.052 308.879 205.892C308.519 205.732 308.215 205.508 307.967 205.22C307.719 204.932 307.531 204.588 307.403 204.188C307.283 203.788 307.215 203.352 307.199 202.88C307.199 202.408 307.271 201.976 307.415 201.584C307.559 201.192 307.759 200.852 308.015 200.564C308.279 200.276 308.587 200.052 308.939 199.892C309.299 199.732 309.691 199.652 310.115 199.652C310.667 199.652 311.123 199.768 311.483 200C311.851 200.224 312.143 200.512 312.359 200.864C312.583 201.216 312.735 201.6 312.815 202.016C312.903 202.432 312.939 202.828 312.923 203.204H308.279C308.271 203.476 308.303 203.736 308.375 203.984C308.447 204.224 308.563 204.44 308.723 204.632C308.883 204.816 309.087 204.964 309.335 205.076C309.583 205.188 309.875 205.244 310.211 205.244C310.643 205.244 310.995 205.144 311.267 204.944C311.547 204.744 311.731 204.44 311.819 204.032H312.827ZM314.22 197.432H315.24V206H314.22V197.432Z" fill="#DB0002"/>
<path d="M287.216 216.576H289.216V228H287.216V216.576ZM291.613 219.728H293.341V220.944L293.373 220.976C293.65 220.517 294.013 220.16 294.461 219.904C294.909 219.637 295.405 219.504 295.949 219.504C296.856 219.504 297.57 219.739 298.093 220.208C298.616 220.677 298.877 221.381 298.877 222.32V228H297.053V222.8C297.032 222.149 296.893 221.68 296.637 221.392C296.381 221.093 295.981 220.944 295.437 220.944C295.128 220.944 294.85 221.003 294.605 221.12C294.36 221.227 294.152 221.381 293.981 221.584C293.81 221.776 293.677 222.005 293.581 222.272C293.485 222.539 293.437 222.821 293.437 223.12V228H291.613V219.728ZM301.049 219.728H302.777V220.848H302.809C303.065 220.368 303.422 220.027 303.881 219.824C304.339 219.611 304.835 219.504 305.369 219.504C306.019 219.504 306.585 219.621 307.065 219.856C307.555 220.08 307.961 220.395 308.281 220.8C308.601 221.195 308.841 221.659 309.001 222.192C309.161 222.725 309.241 223.296 309.241 223.904C309.241 224.459 309.166 224.997 309.017 225.52C308.878 226.043 308.659 226.507 308.361 226.912C308.073 227.307 307.705 227.627 307.257 227.872C306.809 228.107 306.281 228.224 305.673 228.224C305.406 228.224 305.139 228.197 304.873 228.144C304.606 228.101 304.35 228.027 304.105 227.92C303.859 227.813 303.63 227.68 303.417 227.52C303.214 227.349 303.043 227.152 302.905 226.928H302.873V231.056H301.049V219.728ZM307.417 223.872C307.417 223.499 307.369 223.136 307.273 222.784C307.177 222.432 307.033 222.123 306.841 221.856C306.649 221.579 306.409 221.36 306.121 221.2C305.833 221.029 305.502 220.944 305.129 220.944C304.361 220.944 303.779 221.211 303.385 221.744C303.001 222.277 302.809 222.987 302.809 223.872C302.809 224.288 302.857 224.677 302.953 225.04C303.059 225.392 303.214 225.696 303.417 225.952C303.619 226.208 303.859 226.411 304.137 226.56C304.425 226.709 304.755 226.784 305.129 226.784C305.545 226.784 305.897 226.699 306.185 226.528C306.473 226.357 306.707 226.139 306.889 225.872C307.081 225.595 307.214 225.285 307.289 224.944C307.374 224.592 307.417 224.235 307.417 223.872ZM318.246 228H316.454V226.848H316.422C316.198 227.264 315.862 227.6 315.414 227.856C314.977 228.101 314.529 228.224 314.07 228.224C312.982 228.224 312.193 227.957 311.702 227.424C311.222 226.88 310.982 226.064 310.982 224.976V219.728H312.806V224.8C312.806 225.525 312.945 226.037 313.222 226.336C313.499 226.635 313.889 226.784 314.39 226.784C314.774 226.784 315.094 226.725 315.35 226.608C315.606 226.491 315.814 226.336 315.974 226.144C316.134 225.941 316.246 225.701 316.31 225.424C316.385 225.147 316.422 224.848 316.422 224.528V219.728H318.246V228ZM319.537 219.728H320.913V217.248H322.737V219.728H324.385V221.088H322.737V225.504C322.737 225.696 322.743 225.861 322.753 226C322.775 226.139 322.812 226.256 322.865 226.352C322.929 226.448 323.02 226.523 323.137 226.576C323.255 226.619 323.415 226.64 323.617 226.64C323.745 226.64 323.873 226.64 324.001 226.64C324.129 226.629 324.257 226.608 324.385 226.576V227.984C324.183 228.005 323.985 228.027 323.793 228.048C323.601 228.069 323.404 228.08 323.201 228.08C322.721 228.08 322.332 228.037 322.033 227.952C321.745 227.856 321.516 227.723 321.345 227.552C321.185 227.371 321.073 227.147 321.009 226.88C320.956 226.613 320.924 226.309 320.913 225.968V221.088H319.537V219.728Z" fill="black"/>
<path d="M480 204.4C474.698 204.4 470.4 208.698 470.4 214C470.4 219.302 474.698 223.6 480 223.6C485.302 223.6 489.6 219.302 489.6 214C489.6 208.698 485.302 204.4 480 204.4ZM478.8 210.031C478.8 208.843 479.2 208.273 480 208.273C480.8 208.273 481.2 208.843 481.2 210.031V214.566C481.2 215.754 480.815 216.34 480 216.34C479.2 216.34 478.8 215.754 478.8 214.566V210.031ZM479.987 220.15C479.222 220.15 478.6 219.526 478.6 218.743C478.6 217.959 479.222 217.351 479.987 217.351C480.753 217.351 481.375 217.975 481.375 218.743C481.375 219.51 480.753 220.15 479.987 220.15Z" fill="#DB0002"/>
<path d="M289.36 258.124H286.028V257.004H294.022V258.124H290.69V267H289.36V258.124ZM295.11 257.004H296.3V260.826H296.328C296.421 260.602 296.552 260.415 296.72 260.266C296.888 260.107 297.075 259.981 297.28 259.888C297.495 259.785 297.714 259.711 297.938 259.664C298.171 259.617 298.395 259.594 298.61 259.594C299.086 259.594 299.483 259.659 299.8 259.79C300.117 259.921 300.374 260.103 300.57 260.336C300.766 260.569 300.901 260.849 300.976 261.176C301.06 261.493 301.102 261.848 301.102 262.24V267H299.912V262.1C299.912 261.652 299.781 261.297 299.52 261.036C299.259 260.775 298.899 260.644 298.442 260.644C298.078 260.644 297.761 260.7 297.49 260.812C297.229 260.924 297.009 261.083 296.832 261.288C296.655 261.493 296.519 261.736 296.426 262.016C296.342 262.287 296.3 262.585 296.3 262.912V267H295.11V257.004ZM308.09 262.688C308.072 262.408 308.006 262.142 307.894 261.89C307.792 261.638 307.647 261.423 307.46 261.246C307.283 261.059 307.068 260.915 306.816 260.812C306.574 260.7 306.303 260.644 306.004 260.644C305.696 260.644 305.416 260.7 305.164 260.812C304.922 260.915 304.712 261.059 304.534 261.246C304.357 261.433 304.217 261.652 304.114 261.904C304.012 262.147 303.951 262.408 303.932 262.688H308.09ZM309.238 264.704C309.08 265.516 308.73 266.127 308.188 266.538C307.647 266.949 306.966 267.154 306.144 267.154C305.566 267.154 305.062 267.061 304.632 266.874C304.212 266.687 303.858 266.426 303.568 266.09C303.279 265.754 303.06 265.353 302.91 264.886C302.77 264.419 302.691 263.911 302.672 263.36C302.672 262.809 302.756 262.305 302.924 261.848C303.092 261.391 303.326 260.994 303.624 260.658C303.932 260.322 304.292 260.061 304.702 259.874C305.122 259.687 305.58 259.594 306.074 259.594C306.718 259.594 307.25 259.729 307.67 260C308.1 260.261 308.44 260.597 308.692 261.008C308.954 261.419 309.131 261.867 309.224 262.352C309.327 262.837 309.369 263.299 309.35 263.738H303.932C303.923 264.055 303.96 264.359 304.044 264.648C304.128 264.928 304.264 265.18 304.45 265.404C304.637 265.619 304.875 265.791 305.164 265.922C305.454 266.053 305.794 266.118 306.186 266.118C306.69 266.118 307.101 266.001 307.418 265.768C307.745 265.535 307.96 265.18 308.062 264.704H309.238ZM315.32 260.812H314.102V259.762H315.32V258.684C315.32 258.096 315.488 257.653 315.824 257.354C316.17 257.046 316.669 256.892 317.322 256.892C317.434 256.892 317.56 256.901 317.7 256.92C317.85 256.939 317.98 256.967 318.092 257.004V258.04C317.99 258.003 317.878 257.979 317.756 257.97C317.635 257.951 317.523 257.942 317.42 257.942C317.131 257.942 316.907 257.998 316.748 258.11C316.59 258.222 316.51 258.437 316.51 258.754V259.762H317.91V260.812H316.51V267H315.32V260.812ZM320.016 263.388C320.016 263.827 320.072 264.219 320.184 264.564C320.305 264.9 320.469 265.185 320.674 265.418C320.879 265.642 321.117 265.815 321.388 265.936C321.668 266.057 321.962 266.118 322.27 266.118C322.578 266.118 322.867 266.057 323.138 265.936C323.418 265.815 323.661 265.642 323.866 265.418C324.071 265.185 324.23 264.9 324.342 264.564C324.463 264.219 324.524 263.827 324.524 263.388C324.524 262.949 324.463 262.562 324.342 262.226C324.23 261.881 324.071 261.591 323.866 261.358C323.661 261.125 323.418 260.947 323.138 260.826C322.867 260.705 322.578 260.644 322.27 260.644C321.962 260.644 321.668 260.705 321.388 260.826C321.117 260.947 320.879 261.125 320.674 261.358C320.469 261.591 320.305 261.881 320.184 262.226C320.072 262.562 320.016 262.949 320.016 263.388ZM318.756 263.388C318.756 262.856 318.831 262.361 318.98 261.904C319.129 261.437 319.353 261.036 319.652 260.7C319.951 260.355 320.319 260.084 320.758 259.888C321.197 259.692 321.701 259.594 322.27 259.594C322.849 259.594 323.353 259.692 323.782 259.888C324.221 260.084 324.589 260.355 324.888 260.7C325.187 261.036 325.411 261.437 325.56 261.904C325.709 262.361 325.784 262.856 325.784 263.388C325.784 263.92 325.709 264.415 325.56 264.872C325.411 265.329 325.187 265.731 324.888 266.076C324.589 266.412 324.221 266.678 323.782 266.874C323.353 267.061 322.849 267.154 322.27 267.154C321.701 267.154 321.197 267.061 320.758 266.874C320.319 266.678 319.951 266.412 319.652 266.076C319.353 265.731 319.129 265.329 318.98 264.872C318.831 264.415 318.756 263.92 318.756 263.388ZM327.32 259.762H328.44V261.288H328.468C328.757 260.7 329.112 260.266 329.532 259.986C329.952 259.706 330.484 259.575 331.128 259.594V260.854C330.652 260.854 330.246 260.919 329.91 261.05C329.574 261.181 329.303 261.372 329.098 261.624C328.893 261.876 328.743 262.184 328.65 262.548C328.557 262.903 328.51 263.313 328.51 263.78V267H327.32V259.762ZM332.199 259.762H333.319V260.826H333.347C333.888 260.005 334.668 259.594 335.685 259.594C336.133 259.594 336.539 259.687 336.903 259.874C337.267 260.061 337.524 260.378 337.673 260.826C337.916 260.434 338.233 260.131 338.625 259.916C339.026 259.701 339.465 259.594 339.941 259.594C340.305 259.594 340.632 259.636 340.921 259.72C341.22 259.795 341.472 259.916 341.677 260.084C341.892 260.252 342.055 260.471 342.167 260.742C342.288 261.003 342.349 261.321 342.349 261.694V267H341.159V262.254C341.159 262.03 341.14 261.82 341.103 261.624C341.066 261.428 340.996 261.26 340.893 261.12C340.79 260.971 340.646 260.854 340.459 260.77C340.282 260.686 340.048 260.644 339.759 260.644C339.171 260.644 338.709 260.812 338.373 261.148C338.037 261.484 337.869 261.932 337.869 262.492V267H336.679V262.254C336.679 262.021 336.656 261.806 336.609 261.61C336.572 261.414 336.502 261.246 336.399 261.106C336.296 260.957 336.156 260.845 335.979 260.77C335.811 260.686 335.592 260.644 335.321 260.644C334.976 260.644 334.677 260.714 334.425 260.854C334.182 260.994 333.982 261.162 333.823 261.358C333.674 261.554 333.562 261.759 333.487 261.974C333.422 262.179 333.389 262.352 333.389 262.492V267H332.199V259.762ZM350.722 266.972C350.516 267.093 350.232 267.154 349.868 267.154C349.56 267.154 349.312 267.07 349.126 266.902C348.948 266.725 348.86 266.44 348.86 266.048C348.533 266.44 348.15 266.725 347.712 266.902C347.282 267.07 346.816 267.154 346.312 267.154C345.985 267.154 345.672 267.117 345.374 267.042C345.084 266.967 344.832 266.851 344.618 266.692C344.403 266.533 344.23 266.328 344.1 266.076C343.978 265.815 343.918 265.502 343.918 265.138C343.918 264.727 343.988 264.391 344.128 264.13C344.268 263.869 344.45 263.659 344.674 263.5C344.907 263.332 345.168 263.206 345.458 263.122C345.756 263.038 346.06 262.968 346.368 262.912C346.694 262.847 347.002 262.8 347.292 262.772C347.59 262.735 347.852 262.688 348.076 262.632C348.3 262.567 348.477 262.478 348.608 262.366C348.738 262.245 348.804 262.072 348.804 261.848C348.804 261.587 348.752 261.377 348.65 261.218C348.556 261.059 348.43 260.938 348.272 260.854C348.122 260.77 347.95 260.714 347.754 260.686C347.567 260.658 347.38 260.644 347.194 260.644C346.69 260.644 346.27 260.742 345.934 260.938C345.598 261.125 345.416 261.484 345.388 262.016H344.198C344.216 261.568 344.31 261.19 344.478 260.882C344.646 260.574 344.87 260.327 345.15 260.14C345.43 259.944 345.747 259.804 346.102 259.72C346.466 259.636 346.853 259.594 347.264 259.594C347.59 259.594 347.912 259.617 348.23 259.664C348.556 259.711 348.85 259.809 349.112 259.958C349.373 260.098 349.583 260.299 349.742 260.56C349.9 260.821 349.98 261.162 349.98 261.582V265.306C349.98 265.586 349.994 265.791 350.022 265.922C350.059 266.053 350.171 266.118 350.358 266.118C350.46 266.118 350.582 266.095 350.722 266.048V266.972ZM348.79 263.262C348.64 263.374 348.444 263.458 348.202 263.514C347.959 263.561 347.702 263.603 347.432 263.64C347.17 263.668 346.904 263.705 346.634 263.752C346.363 263.789 346.12 263.855 345.906 263.948C345.691 264.041 345.514 264.177 345.374 264.354C345.243 264.522 345.178 264.755 345.178 265.054C345.178 265.25 345.215 265.418 345.29 265.558C345.374 265.689 345.476 265.796 345.598 265.88C345.728 265.964 345.878 266.025 346.046 266.062C346.214 266.099 346.391 266.118 346.578 266.118C346.97 266.118 347.306 266.067 347.586 265.964C347.866 265.852 348.094 265.717 348.272 265.558C348.449 265.39 348.58 265.213 348.664 265.026C348.748 264.83 348.79 264.648 348.79 264.48V263.262ZM353.656 259.762H355.098V260.812H353.656V265.306C353.656 265.446 353.666 265.558 353.684 265.642C353.712 265.726 353.759 265.791 353.824 265.838C353.89 265.885 353.978 265.917 354.09 265.936C354.212 265.945 354.366 265.95 354.552 265.95H355.098V267H354.188C353.88 267 353.614 266.981 353.39 266.944C353.176 266.897 352.998 266.818 352.858 266.706C352.728 266.594 352.63 266.435 352.564 266.23C352.499 266.025 352.466 265.754 352.466 265.418V260.812H351.234V259.762H352.466V257.592H353.656V259.762ZM361.927 258.46H360.737V257.004H361.927V258.46ZM360.737 259.762H361.927V267H360.737V259.762ZM364.673 264.718C364.683 264.979 364.743 265.203 364.855 265.39C364.967 265.567 365.112 265.712 365.289 265.824C365.476 265.927 365.681 266.001 365.905 266.048C366.139 266.095 366.377 266.118 366.619 266.118C366.806 266.118 367.002 266.104 367.207 266.076C367.413 266.048 367.599 265.997 367.767 265.922C367.945 265.847 368.089 265.74 368.201 265.6C368.313 265.451 368.369 265.264 368.369 265.04C368.369 264.732 368.253 264.499 368.019 264.34C367.786 264.181 367.492 264.055 367.137 263.962C366.792 263.859 366.414 263.771 366.003 263.696C365.593 263.612 365.21 263.5 364.855 263.36C364.51 263.211 364.221 263.005 363.987 262.744C363.754 262.483 363.637 262.119 363.637 261.652C363.637 261.288 363.717 260.975 363.875 260.714C364.043 260.453 364.253 260.243 364.505 260.084C364.767 259.916 365.056 259.795 365.373 259.72C365.7 259.636 366.022 259.594 366.339 259.594C366.75 259.594 367.128 259.631 367.473 259.706C367.819 259.771 368.122 259.893 368.383 260.07C368.654 260.238 368.869 260.471 369.027 260.77C369.186 261.059 369.279 261.423 369.307 261.862H368.117C368.099 261.629 368.038 261.437 367.935 261.288C367.833 261.129 367.702 261.003 367.543 260.91C367.385 260.817 367.207 260.751 367.011 260.714C366.825 260.667 366.633 260.644 366.437 260.644C366.26 260.644 366.078 260.658 365.891 260.686C365.714 260.714 365.551 260.765 365.401 260.84C365.252 260.905 365.131 260.999 365.037 261.12C364.944 261.232 364.897 261.381 364.897 261.568C364.897 261.773 364.967 261.946 365.107 262.086C365.257 262.217 365.443 262.329 365.667 262.422C365.891 262.506 366.143 262.581 366.423 262.646C366.703 262.702 366.983 262.763 367.263 262.828C367.562 262.893 367.851 262.973 368.131 263.066C368.421 263.159 368.673 263.285 368.887 263.444C369.111 263.593 369.289 263.785 369.419 264.018C369.559 264.251 369.629 264.541 369.629 264.886C369.629 265.325 369.536 265.689 369.349 265.978C369.172 266.267 368.934 266.501 368.635 266.678C368.346 266.855 368.015 266.977 367.641 267.042C367.277 267.117 366.913 267.154 366.549 267.154C366.148 267.154 365.765 267.112 365.401 267.028C365.037 266.944 364.715 266.809 364.435 266.622C364.155 266.426 363.931 266.174 363.763 265.866C363.595 265.549 363.502 265.166 363.483 264.718H364.673ZM375.192 259.762H376.312V260.91H376.34C376.834 260.033 377.618 259.594 378.692 259.594C379.168 259.594 379.564 259.659 379.882 259.79C380.199 259.921 380.456 260.103 380.652 260.336C380.848 260.569 380.983 260.849 381.058 261.176C381.142 261.493 381.184 261.848 381.184 262.24V267H379.994V262.1C379.994 261.652 379.863 261.297 379.602 261.036C379.34 260.775 378.981 260.644 378.524 260.644C378.16 260.644 377.842 260.7 377.572 260.812C377.31 260.924 377.091 261.083 376.914 261.288C376.736 261.493 376.601 261.736 376.508 262.016C376.424 262.287 376.382 262.585 376.382 262.912V267H375.192V259.762ZM384.014 263.388C384.014 263.827 384.07 264.219 384.182 264.564C384.303 264.9 384.467 265.185 384.672 265.418C384.877 265.642 385.115 265.815 385.386 265.936C385.666 266.057 385.96 266.118 386.268 266.118C386.576 266.118 386.865 266.057 387.136 265.936C387.416 265.815 387.659 265.642 387.864 265.418C388.069 265.185 388.228 264.9 388.34 264.564C388.461 264.219 388.522 263.827 388.522 263.388C388.522 262.949 388.461 262.562 388.34 262.226C388.228 261.881 388.069 261.591 387.864 261.358C387.659 261.125 387.416 260.947 387.136 260.826C386.865 260.705 386.576 260.644 386.268 260.644C385.96 260.644 385.666 260.705 385.386 260.826C385.115 260.947 384.877 261.125 384.672 261.358C384.467 261.591 384.303 261.881 384.182 262.226C384.07 262.562 384.014 262.949 384.014 263.388ZM382.754 263.388C382.754 262.856 382.829 262.361 382.978 261.904C383.127 261.437 383.351 261.036 383.65 260.7C383.949 260.355 384.317 260.084 384.756 259.888C385.195 259.692 385.699 259.594 386.268 259.594C386.847 259.594 387.351 259.692 387.78 259.888C388.219 260.084 388.587 260.355 388.886 260.7C389.185 261.036 389.409 261.437 389.558 261.904C389.707 262.361 389.782 262.856 389.782 263.388C389.782 263.92 389.707 264.415 389.558 264.872C389.409 265.329 389.185 265.731 388.886 266.076C388.587 266.412 388.219 266.678 387.78 266.874C387.351 267.061 386.847 267.154 386.268 267.154C385.699 267.154 385.195 267.061 384.756 266.874C384.317 266.678 383.949 266.412 383.65 266.076C383.351 265.731 383.127 265.329 382.978 264.872C382.829 264.415 382.754 263.92 382.754 263.388ZM393.012 259.762H394.454V260.812H393.012V265.306C393.012 265.446 393.021 265.558 393.04 265.642C393.068 265.726 393.115 265.791 393.18 265.838C393.245 265.885 393.334 265.917 393.446 265.936C393.567 265.945 393.721 265.95 393.908 265.95H394.454V267H393.544C393.236 267 392.97 266.981 392.746 266.944C392.531 266.897 392.354 266.818 392.214 266.706C392.083 266.594 391.985 266.435 391.92 266.23C391.855 266.025 391.822 265.754 391.822 265.418V260.812H390.59V259.762H391.822V257.592H393.012V259.762ZM403.285 267H402.011L399.323 259.762H400.653L402.683 265.796H402.711L404.685 259.762H405.931L403.285 267ZM413.61 266.972C413.404 267.093 413.12 267.154 412.756 267.154C412.448 267.154 412.2 267.07 412.014 266.902C411.836 266.725 411.748 266.44 411.748 266.048C411.421 266.44 411.038 266.725 410.6 266.902C410.17 267.07 409.704 267.154 409.2 267.154C408.873 267.154 408.56 267.117 408.262 267.042C407.972 266.967 407.72 266.851 407.506 266.692C407.291 266.533 407.118 266.328 406.988 266.076C406.866 265.815 406.806 265.502 406.806 265.138C406.806 264.727 406.876 264.391 407.016 264.13C407.156 263.869 407.338 263.659 407.562 263.5C407.795 263.332 408.056 263.206 408.346 263.122C408.644 263.038 408.948 262.968 409.256 262.912C409.582 262.847 409.89 262.8 410.18 262.772C410.478 262.735 410.74 262.688 410.964 262.632C411.188 262.567 411.365 262.478 411.496 262.366C411.626 262.245 411.692 262.072 411.692 261.848C411.692 261.587 411.64 261.377 411.538 261.218C411.444 261.059 411.318 260.938 411.16 260.854C411.01 260.77 410.838 260.714 410.642 260.686C410.455 260.658 410.268 260.644 410.082 260.644C409.578 260.644 409.158 260.742 408.822 260.938C408.486 261.125 408.304 261.484 408.276 262.016H407.086C407.104 261.568 407.198 261.19 407.366 260.882C407.534 260.574 407.758 260.327 408.038 260.14C408.318 259.944 408.635 259.804 408.99 259.72C409.354 259.636 409.741 259.594 410.152 259.594C410.478 259.594 410.8 259.617 411.118 259.664C411.444 259.711 411.738 259.809 412 259.958C412.261 260.098 412.471 260.299 412.63 260.56C412.788 260.821 412.868 261.162 412.868 261.582V265.306C412.868 265.586 412.882 265.791 412.91 265.922C412.947 266.053 413.059 266.118 413.246 266.118C413.348 266.118 413.47 266.095 413.61 266.048V266.972ZM411.678 263.262C411.528 263.374 411.332 263.458 411.09 263.514C410.847 263.561 410.59 263.603 410.32 263.64C410.058 263.668 409.792 263.705 409.522 263.752C409.251 263.789 409.008 263.855 408.794 263.948C408.579 264.041 408.402 264.177 408.262 264.354C408.131 264.522 408.066 264.755 408.066 265.054C408.066 265.25 408.103 265.418 408.178 265.558C408.262 265.689 408.364 265.796 408.486 265.88C408.616 265.964 408.766 266.025 408.934 266.062C409.102 266.099 409.279 266.118 409.466 266.118C409.858 266.118 410.194 266.067 410.474 265.964C410.754 265.852 410.982 265.717 411.16 265.558C411.337 265.39 411.468 265.213 411.552 265.026C411.636 264.83 411.678 264.648 411.678 264.48V263.262ZM414.962 257.004H416.152V267H414.962V257.004ZM419.431 258.46H418.241V257.004H419.431V258.46ZM418.241 259.762H419.431V267H418.241V259.762ZM422.317 263.444C422.317 263.78 422.359 264.111 422.443 264.438C422.536 264.755 422.672 265.04 422.849 265.292C423.036 265.544 423.269 265.745 423.549 265.894C423.838 266.043 424.174 266.118 424.557 266.118C424.958 266.118 425.299 266.039 425.579 265.88C425.859 265.721 426.088 265.516 426.265 265.264C426.442 265.003 426.568 264.709 426.643 264.382C426.727 264.055 426.769 263.724 426.769 263.388C426.769 263.033 426.727 262.693 426.643 262.366C426.559 262.03 426.424 261.736 426.237 261.484C426.06 261.232 425.826 261.031 425.537 260.882C425.248 260.723 424.898 260.644 424.487 260.644C424.086 260.644 423.745 260.723 423.465 260.882C423.185 261.041 422.961 261.251 422.793 261.512C422.625 261.773 422.504 262.072 422.429 262.408C422.354 262.744 422.317 263.089 422.317 263.444ZM427.917 267H426.727V266.02H426.699C426.503 266.421 426.195 266.711 425.775 266.888C425.355 267.065 424.893 267.154 424.389 267.154C423.829 267.154 423.339 267.051 422.919 266.846C422.508 266.641 422.163 266.365 421.883 266.02C421.612 265.675 421.407 265.273 421.267 264.816C421.127 264.359 421.057 263.873 421.057 263.36C421.057 262.847 421.122 262.361 421.253 261.904C421.393 261.447 421.598 261.05 421.869 260.714C422.149 260.369 422.494 260.098 422.905 259.902C423.325 259.697 423.81 259.594 424.361 259.594C424.548 259.594 424.748 259.613 424.963 259.65C425.178 259.687 425.392 259.753 425.607 259.846C425.822 259.93 426.022 260.047 426.209 260.196C426.405 260.336 426.568 260.513 426.699 260.728H426.727V257.004H427.917V267ZM430.189 265.446H431.743V267H430.189V265.446Z" fill="#DB0002"/>
<path d="M93.84 373.856H90.032V372.576H99.168V373.856H95.36V384H93.84V373.856ZM98.6948 375.728H99.9748V377.472H100.007C100.337 376.8 100.743 376.304 101.223 375.984C101.703 375.664 102.311 375.515 103.047 375.536V376.976C102.503 376.976 102.039 377.051 101.655 377.2C101.271 377.349 100.961 377.568 100.727 377.856C100.492 378.144 100.321 378.496 100.215 378.912C100.108 379.317 100.055 379.787 100.055 380.32V384H98.6948V375.728ZM110.919 384H109.639V382.688H109.607C109.319 383.2 108.951 383.579 108.503 383.824C108.055 384.059 107.527 384.176 106.919 384.176C106.375 384.176 105.922 384.107 105.559 383.968C105.196 383.819 104.903 383.611 104.679 383.344C104.455 383.077 104.295 382.763 104.199 382.4C104.114 382.027 104.071 381.616 104.071 381.168V375.728H105.431V381.328C105.431 381.84 105.58 382.245 105.879 382.544C106.178 382.843 106.588 382.992 107.111 382.992C107.527 382.992 107.884 382.928 108.183 382.8C108.492 382.672 108.748 382.491 108.951 382.256C109.154 382.021 109.303 381.749 109.399 381.44C109.506 381.12 109.559 380.773 109.559 380.4V375.728H110.919V384ZM118.706 379.072C118.684 378.752 118.61 378.448 118.482 378.16C118.364 377.872 118.199 377.627 117.986 377.424C117.783 377.211 117.538 377.045 117.25 376.928C116.972 376.8 116.663 376.736 116.322 376.736C115.97 376.736 115.65 376.8 115.362 376.928C115.084 377.045 114.844 377.211 114.642 377.424C114.439 377.637 114.279 377.888 114.162 378.176C114.044 378.453 113.975 378.752 113.954 379.072H118.706ZM120.017 381.376C119.836 382.304 119.436 383.003 118.818 383.472C118.199 383.941 117.42 384.176 116.482 384.176C115.82 384.176 115.244 384.069 114.754 383.856C114.274 383.643 113.868 383.344 113.538 382.96C113.207 382.576 112.956 382.117 112.786 381.584C112.626 381.051 112.535 380.469 112.514 379.84C112.514 379.211 112.61 378.635 112.802 378.112C112.994 377.589 113.26 377.136 113.602 376.752C113.954 376.368 114.364 376.069 114.834 375.856C115.314 375.643 115.836 375.536 116.402 375.536C117.138 375.536 117.746 375.691 118.226 376C118.716 376.299 119.106 376.683 119.394 377.152C119.692 377.621 119.895 378.133 120.002 378.688C120.119 379.243 120.167 379.771 120.146 380.272H113.954C113.943 380.635 113.986 380.981 114.082 381.312C114.178 381.632 114.332 381.92 114.546 382.176C114.759 382.421 115.031 382.619 115.362 382.768C115.692 382.917 116.082 382.992 116.53 382.992C117.106 382.992 117.575 382.859 117.938 382.592C118.311 382.325 118.556 381.92 118.674 381.376H120.017ZM93.264 406.152C92.88 405.555 92.5333 404.957 92.224 404.36C91.9147 403.773 91.648 403.176 91.424 402.568C91.2107 401.96 91.0453 401.336 90.928 400.696C90.8107 400.056 90.752 399.384 90.752 398.68C90.752 397.421 90.96 396.152 91.376 394.872C91.8027 393.592 92.432 392.403 93.264 391.304H94.304C93.536 392.52 92.992 393.725 92.672 394.92C92.352 396.115 92.192 397.368 92.192 398.68C92.192 400.024 92.352 401.299 92.672 402.504C93.0027 403.709 93.5467 404.925 94.304 406.152H93.264ZM103.357 403H101.917L100.237 396.424H100.205L98.5406 403H97.0686L94.4126 394.728H95.9166L97.7886 401.496H97.8206L99.4846 394.728H100.973L102.701 401.496H102.733L104.589 394.728H105.997L103.357 403ZM108.73 393.24H107.37V391.576H108.73V393.24ZM107.37 394.728H108.73V403H107.37V394.728ZM112.725 394.728H114.373V395.928H112.725V401.064C112.725 401.224 112.735 401.352 112.757 401.448C112.789 401.544 112.842 401.619 112.917 401.672C112.991 401.725 113.093 401.763 113.221 401.784C113.359 401.795 113.535 401.8 113.749 401.8H114.373V403H113.333C112.981 403 112.677 402.979 112.421 402.936C112.175 402.883 111.973 402.792 111.812 402.664C111.663 402.536 111.551 402.355 111.477 402.12C111.402 401.885 111.365 401.576 111.365 401.192V395.928H109.957V394.728H111.365V392.248H112.725V394.728ZM115.883 391.576H117.243V395.944H117.275C117.382 395.688 117.531 395.475 117.723 395.304C117.915 395.123 118.129 394.979 118.363 394.872C118.609 394.755 118.859 394.669 119.115 394.616C119.382 394.563 119.638 394.536 119.883 394.536C120.427 394.536 120.881 394.611 121.243 394.76C121.606 394.909 121.899 395.117 122.123 395.384C122.347 395.651 122.502 395.971 122.587 396.344C122.683 396.707 122.731 397.112 122.731 397.56V403H121.371V397.4C121.371 396.888 121.222 396.483 120.923 396.184C120.625 395.885 120.214 395.736 119.691 395.736C119.275 395.736 118.913 395.8 118.603 395.928C118.305 396.056 118.054 396.237 117.851 396.472C117.649 396.707 117.494 396.984 117.387 397.304C117.291 397.613 117.243 397.955 117.243 398.328V403H115.883V391.576ZM129.227 391.576H130.587V395.944H130.619C130.726 395.688 130.875 395.475 131.067 395.304C131.259 395.123 131.472 394.979 131.707 394.872C131.952 394.755 132.203 394.669 132.459 394.616C132.726 394.563 132.982 394.536 133.227 394.536C133.771 394.536 134.224 394.611 134.587 394.76C134.95 394.909 135.243 395.117 135.467 395.384C135.691 395.651 135.846 395.971 135.931 396.344C136.027 396.707 136.075 397.112 136.075 397.56V403H134.715V397.4C134.715 396.888 134.566 396.483 134.267 396.184C133.968 395.885 133.558 395.736 133.035 395.736C132.619 395.736 132.256 395.8 131.947 395.928C131.648 396.056 131.398 396.237 131.195 396.472C130.992 396.707 130.838 396.984 130.731 397.304C130.635 397.613 130.587 397.955 130.587 398.328V403H129.227V391.576ZM143.862 398.072C143.84 397.752 143.766 397.448 143.638 397.16C143.52 396.872 143.355 396.627 143.142 396.424C142.939 396.211 142.694 396.045 142.406 395.928C142.128 395.8 141.819 395.736 141.478 395.736C141.126 395.736 140.806 395.8 140.518 395.928C140.24 396.045 140 396.211 139.798 396.424C139.595 396.637 139.435 396.888 139.318 397.176C139.2 397.453 139.131 397.752 139.11 398.072H143.862ZM145.174 400.376C144.992 401.304 144.592 402.003 143.974 402.472C143.355 402.941 142.576 403.176 141.638 403.176C140.976 403.176 140.4 403.069 139.91 402.856C139.43 402.643 139.024 402.344 138.694 401.96C138.363 401.576 138.112 401.117 137.942 400.584C137.782 400.051 137.691 399.469 137.67 398.84C137.67 398.211 137.766 397.635 137.958 397.112C138.15 396.589 138.416 396.136 138.758 395.752C139.11 395.368 139.52 395.069 139.99 394.856C140.47 394.643 140.992 394.536 141.558 394.536C142.294 394.536 142.902 394.691 143.382 395C143.872 395.299 144.262 395.683 144.55 396.152C144.848 396.621 145.051 397.133 145.158 397.688C145.275 398.243 145.323 398.771 145.302 399.272H139.11C139.099 399.635 139.142 399.981 139.238 400.312C139.334 400.632 139.488 400.92 139.702 401.176C139.915 401.421 140.187 401.619 140.518 401.768C140.848 401.917 141.238 401.992 141.686 401.992C142.262 401.992 142.731 401.859 143.094 401.592C143.467 401.325 143.712 400.92 143.83 400.376H145.174ZM146.792 391.576H148.152V403H146.792V391.576ZM150.306 394.728H151.666V395.848H151.698C151.922 395.389 152.274 395.059 152.754 394.856C153.234 394.643 153.762 394.536 154.338 394.536C154.978 394.536 155.533 394.653 156.002 394.888C156.482 395.123 156.877 395.443 157.186 395.848C157.506 396.243 157.746 396.701 157.906 397.224C158.066 397.747 158.146 398.301 158.146 398.888C158.146 399.475 158.066 400.029 157.906 400.552C157.757 401.075 157.522 401.533 157.202 401.928C156.893 402.312 156.498 402.616 156.018 402.84C155.549 403.064 155 403.176 154.37 403.176C154.168 403.176 153.938 403.155 153.682 403.112C153.437 403.069 153.192 403 152.946 402.904C152.701 402.808 152.466 402.68 152.242 402.52C152.029 402.349 151.848 402.141 151.698 401.896H151.666V406.152H150.306V394.728ZM156.706 398.792C156.706 398.408 156.653 398.035 156.546 397.672C156.45 397.299 156.296 396.968 156.082 396.68C155.88 396.392 155.613 396.163 155.282 395.992C154.962 395.821 154.584 395.736 154.146 395.736C153.688 395.736 153.298 395.827 152.978 396.008C152.658 396.189 152.397 396.429 152.194 396.728C151.992 397.016 151.842 397.347 151.746 397.72C151.661 398.093 151.618 398.472 151.618 398.856C151.618 399.261 151.666 399.656 151.762 400.04C151.858 400.413 152.008 400.744 152.21 401.032C152.424 401.32 152.696 401.555 153.026 401.736C153.357 401.907 153.757 401.992 154.226 401.992C154.696 401.992 155.085 401.901 155.394 401.72C155.714 401.539 155.97 401.299 156.162 401C156.354 400.701 156.493 400.36 156.578 399.976C156.664 399.592 156.706 399.197 156.706 398.792ZM165.487 398.072C165.465 397.752 165.391 397.448 165.263 397.16C165.145 396.872 164.98 396.627 164.767 396.424C164.564 396.211 164.319 396.045 164.031 395.928C163.753 395.8 163.444 395.736 163.103 395.736C162.751 395.736 162.431 395.8 162.143 395.928C161.865 396.045 161.625 396.211 161.423 396.424C161.22 396.637 161.06 396.888 160.943 397.176C160.825 397.453 160.756 397.752 160.735 398.072H165.487ZM166.799 400.376C166.617 401.304 166.217 402.003 165.599 402.472C164.98 402.941 164.201 403.176 163.263 403.176C162.601 403.176 162.025 403.069 161.535 402.856C161.055 402.643 160.649 402.344 160.319 401.96C159.988 401.576 159.737 401.117 159.567 400.584C159.407 400.051 159.316 399.469 159.295 398.84C159.295 398.211 159.391 397.635 159.583 397.112C159.775 396.589 160.041 396.136 160.383 395.752C160.735 395.368 161.145 395.069 161.615 394.856C162.095 394.643 162.617 394.536 163.183 394.536C163.919 394.536 164.527 394.691 165.007 395C165.497 395.299 165.887 395.683 166.175 396.152C166.473 396.621 166.676 397.133 166.783 397.688C166.9 398.243 166.948 398.771 166.927 399.272H160.735C160.724 399.635 160.767 399.981 160.863 400.312C160.959 400.632 161.113 400.92 161.327 401.176C161.54 401.421 161.812 401.619 162.143 401.768C162.473 401.917 162.863 401.992 163.311 401.992C163.887 401.992 164.356 401.859 164.719 401.592C165.092 401.325 165.337 400.92 165.455 400.376H166.799ZM168.289 394.728H169.569V396.472H169.601C169.931 395.8 170.337 395.304 170.817 394.984C171.297 394.664 171.905 394.515 172.641 394.536V395.976C172.097 395.976 171.633 396.051 171.249 396.2C170.865 396.349 170.555 396.568 170.321 396.856C170.086 397.144 169.915 397.496 169.809 397.912C169.702 398.317 169.649 398.787 169.649 399.32V403H168.289V394.728ZM178.198 391.576H179.558V403H178.198V391.576ZM183.105 393.24H181.745V391.576H183.105V393.24ZM181.745 394.728H183.105V403H181.745V394.728ZM185.212 394.728H186.492V396.04H186.524C187.089 395.037 187.985 394.536 189.212 394.536C189.756 394.536 190.209 394.611 190.572 394.76C190.934 394.909 191.228 395.117 191.452 395.384C191.676 395.651 191.83 395.971 191.916 396.344C192.012 396.707 192.06 397.112 192.06 397.56V403H190.7V397.4C190.7 396.888 190.55 396.483 190.252 396.184C189.953 395.885 189.542 395.736 189.02 395.736C188.604 395.736 188.241 395.8 187.932 395.928C187.633 396.056 187.382 396.237 187.18 396.472C186.977 396.707 186.822 396.984 186.716 397.304C186.62 397.613 186.572 397.955 186.572 398.328V403H185.212V394.728ZM194.182 391.576H195.542V398.344L199.318 394.728H201.142L197.862 397.736L201.382 403H199.654L196.822 398.68L195.542 399.864V403H194.182V391.576ZM201.231 406.152C201.988 404.947 202.527 403.747 202.847 402.552C203.167 401.347 203.327 400.093 203.327 398.792C203.327 397.448 203.162 396.173 202.831 394.968C202.511 393.752 201.978 392.531 201.231 391.304H202.255C202.639 391.901 202.986 392.499 203.295 393.096C203.604 393.683 203.866 394.285 204.079 394.904C204.303 395.512 204.474 396.136 204.591 396.776C204.708 397.416 204.767 398.088 204.767 398.792C204.767 400.051 204.554 401.32 204.127 402.6C203.711 403.869 203.087 405.053 202.255 406.152H201.231Z" fill="black" fill-opacity="0.68"/>
<mask id="path-14-inside-3_65346_30735" fill="white">
<path d="M270 322H510V382H270V322Z"/>
</mask>
<path d="M270 322H510V382H270V322Z" fill="#DB0002" fill-opacity="0.08"/>
<path d="M510 382V381H270V382V383H510V382Z" fill="#DB0002" mask="url(#path-14-inside-3_65346_30735)"/>
<path d="M286.936 335.432H288.076V343.04H292.612V344H286.936V335.432ZM299.112 343.976C298.936 344.08 298.692 344.132 298.38 344.132C298.116 344.132 297.904 344.06 297.744 343.916C297.592 343.764 297.516 343.52 297.516 343.184C297.236 343.52 296.908 343.764 296.532 343.916C296.164 344.06 295.764 344.132 295.332 344.132C295.052 344.132 294.784 344.1 294.528 344.036C294.28 343.972 294.064 343.872 293.88 343.736C293.696 343.6 293.548 343.424 293.436 343.208C293.332 342.984 293.28 342.716 293.28 342.404C293.28 342.052 293.34 341.764 293.46 341.54C293.58 341.316 293.736 341.136 293.928 341C294.128 340.856 294.352 340.748 294.6 340.676C294.856 340.604 295.116 340.544 295.38 340.496C295.66 340.44 295.924 340.4 296.172 340.376C296.428 340.344 296.652 340.304 296.844 340.256C297.036 340.2 297.188 340.124 297.3 340.028C297.412 339.924 297.468 339.776 297.468 339.584C297.468 339.36 297.424 339.18 297.336 339.044C297.256 338.908 297.148 338.804 297.012 338.732C296.884 338.66 296.736 338.612 296.568 338.588C296.408 338.564 296.248 338.552 296.088 338.552C295.656 338.552 295.296 338.636 295.008 338.804C294.72 338.964 294.564 339.272 294.54 339.728H293.52C293.536 339.344 293.616 339.02 293.76 338.756C293.904 338.492 294.096 338.28 294.336 338.12C294.576 337.952 294.848 337.832 295.152 337.76C295.464 337.688 295.796 337.652 296.148 337.652C296.428 337.652 296.704 337.672 296.976 337.712C297.256 337.752 297.508 337.836 297.732 337.964C297.956 338.084 298.136 338.256 298.272 338.48C298.408 338.704 298.476 338.996 298.476 339.356V342.548C298.476 342.788 298.488 342.964 298.512 343.076C298.544 343.188 298.64 343.244 298.8 343.244C298.888 343.244 298.992 343.224 299.112 343.184V343.976ZM297.456 340.796C297.328 340.892 297.16 340.964 296.952 341.012C296.744 341.052 296.524 341.088 296.292 341.12C296.068 341.144 295.84 341.176 295.608 341.216C295.376 341.248 295.168 341.304 294.984 341.384C294.8 341.464 294.648 341.58 294.528 341.732C294.416 341.876 294.36 342.076 294.36 342.332C294.36 342.5 294.392 342.644 294.456 342.764C294.528 342.876 294.616 342.968 294.72 343.04C294.832 343.112 294.96 343.164 295.104 343.196C295.248 343.228 295.4 343.244 295.56 343.244C295.896 343.244 296.184 343.2 296.424 343.112C296.664 343.016 296.86 342.9 297.012 342.764C297.164 342.62 297.276 342.468 297.348 342.308C297.42 342.14 297.456 341.984 297.456 341.84V340.796ZM300.277 335.432H301.297V338.636H301.321C301.489 338.292 301.753 338.044 302.113 337.892C302.473 337.732 302.869 337.652 303.301 337.652C303.781 337.652 304.197 337.74 304.549 337.916C304.909 338.092 305.205 338.332 305.437 338.636C305.677 338.932 305.857 339.276 305.977 339.668C306.097 340.06 306.157 340.476 306.157 340.916C306.157 341.356 306.097 341.772 305.977 342.164C305.865 342.556 305.689 342.9 305.449 343.196C305.217 343.484 304.921 343.712 304.561 343.88C304.209 344.048 303.797 344.132 303.325 344.132C303.173 344.132 303.001 344.116 302.809 344.084C302.625 344.052 302.441 344 302.257 343.928C302.073 343.856 301.897 343.76 301.729 343.64C301.569 343.512 301.433 343.356 301.321 343.172H301.297V344H300.277V335.432ZM305.077 340.844C305.077 340.556 305.037 340.276 304.957 340.004C304.885 339.724 304.769 339.476 304.609 339.26C304.457 339.044 304.257 338.872 304.009 338.744C303.769 338.616 303.485 338.552 303.157 338.552C302.813 338.552 302.521 338.62 302.281 338.756C302.041 338.892 301.845 339.072 301.693 339.296C301.541 339.512 301.429 339.76 301.357 340.04C301.293 340.32 301.261 340.604 301.261 340.892C301.261 341.196 301.297 341.492 301.369 341.78C301.441 342.06 301.553 342.308 301.705 342.524C301.865 342.74 302.069 342.916 302.317 343.052C302.565 343.18 302.865 343.244 303.217 343.244C303.569 343.244 303.861 343.176 304.093 343.04C304.333 342.904 304.525 342.724 304.669 342.5C304.813 342.276 304.917 342.02 304.981 341.732C305.045 341.444 305.077 341.148 305.077 340.844ZM311.843 340.304C311.827 340.064 311.771 339.836 311.675 339.62C311.587 339.404 311.463 339.22 311.303 339.068C311.151 338.908 310.967 338.784 310.751 338.696C310.543 338.6 310.311 338.552 310.055 338.552C309.791 338.552 309.551 338.6 309.335 338.696C309.127 338.784 308.947 338.908 308.795 339.068C308.643 339.228 308.523 339.416 308.435 339.632C308.347 339.84 308.295 340.064 308.279 340.304H311.843ZM312.827 342.032C312.691 342.728 312.391 343.252 311.927 343.604C311.463 343.956 310.879 344.132 310.175 344.132C309.679 344.132 309.247 344.052 308.879 343.892C308.519 343.732 308.215 343.508 307.967 343.22C307.719 342.932 307.531 342.588 307.403 342.188C307.283 341.788 307.215 341.352 307.199 340.88C307.199 340.408 307.271 339.976 307.415 339.584C307.559 339.192 307.759 338.852 308.015 338.564C308.279 338.276 308.587 338.052 308.939 337.892C309.299 337.732 309.691 337.652 310.115 337.652C310.667 337.652 311.123 337.768 311.483 338C311.851 338.224 312.143 338.512 312.359 338.864C312.583 339.216 312.735 339.6 312.815 340.016C312.903 340.432 312.939 340.828 312.923 341.204H308.279C308.271 341.476 308.303 341.736 308.375 341.984C308.447 342.224 308.563 342.44 308.723 342.632C308.883 342.816 309.087 342.964 309.335 343.076C309.583 343.188 309.875 343.244 310.211 343.244C310.643 343.244 310.995 343.144 311.267 342.944C311.547 342.744 311.731 342.44 311.819 342.032H312.827ZM314.22 335.432H315.24V344H314.22V335.432Z" fill="#DB0002"/>
<path d="M287.216 354.576H289.216V366H287.216V354.576ZM291.613 357.728H293.341V358.944L293.373 358.976C293.65 358.517 294.013 358.16 294.461 357.904C294.909 357.637 295.405 357.504 295.949 357.504C296.856 357.504 297.57 357.739 298.093 358.208C298.616 358.677 298.877 359.381 298.877 360.32V366H297.053V360.8C297.032 360.149 296.893 359.68 296.637 359.392C296.381 359.093 295.981 358.944 295.437 358.944C295.128 358.944 294.85 359.003 294.605 359.12C294.36 359.227 294.152 359.381 293.981 359.584C293.81 359.776 293.677 360.005 293.581 360.272C293.485 360.539 293.437 360.821 293.437 361.12V366H291.613V357.728ZM301.049 357.728H302.777V358.848H302.809C303.065 358.368 303.422 358.027 303.881 357.824C304.339 357.611 304.835 357.504 305.369 357.504C306.019 357.504 306.585 357.621 307.065 357.856C307.555 358.08 307.961 358.395 308.281 358.8C308.601 359.195 308.841 359.659 309.001 360.192C309.161 360.725 309.241 361.296 309.241 361.904C309.241 362.459 309.166 362.997 309.017 363.52C308.878 364.043 308.659 364.507 308.361 364.912C308.073 365.307 307.705 365.627 307.257 365.872C306.809 366.107 306.281 366.224 305.673 366.224C305.406 366.224 305.139 366.197 304.873 366.144C304.606 366.101 304.35 366.027 304.105 365.92C303.859 365.813 303.63 365.68 303.417 365.52C303.214 365.349 303.043 365.152 302.905 364.928H302.873V369.056H301.049V357.728ZM307.417 361.872C307.417 361.499 307.369 361.136 307.273 360.784C307.177 360.432 307.033 360.123 306.841 359.856C306.649 359.579 306.409 359.36 306.121 359.2C305.833 359.029 305.502 358.944 305.129 358.944C304.361 358.944 303.779 359.211 303.385 359.744C303.001 360.277 302.809 360.987 302.809 361.872C302.809 362.288 302.857 362.677 302.953 363.04C303.059 363.392 303.214 363.696 303.417 363.952C303.619 364.208 303.859 364.411 304.137 364.56C304.425 364.709 304.755 364.784 305.129 364.784C305.545 364.784 305.897 364.699 306.185 364.528C306.473 364.357 306.707 364.139 306.889 363.872C307.081 363.595 307.214 363.285 307.289 362.944C307.374 362.592 307.417 362.235 307.417 361.872ZM318.246 366H316.454V364.848H316.422C316.198 365.264 315.862 365.6 315.414 365.856C314.977 366.101 314.529 366.224 314.07 366.224C312.982 366.224 312.193 365.957 311.702 365.424C311.222 364.88 310.982 364.064 310.982 362.976V357.728H312.806V362.8C312.806 363.525 312.945 364.037 313.222 364.336C313.499 364.635 313.889 364.784 314.39 364.784C314.774 364.784 315.094 364.725 315.35 364.608C315.606 364.491 315.814 364.336 315.974 364.144C316.134 363.941 316.246 363.701 316.31 363.424C316.385 363.147 316.422 362.848 316.422 362.528V357.728H318.246V366ZM319.537 357.728H320.913V355.248H322.737V357.728H324.385V359.088H322.737V363.504C322.737 363.696 322.743 363.861 322.753 364C322.775 364.139 322.812 364.256 322.865 364.352C322.929 364.448 323.02 364.523 323.137 364.576C323.255 364.619 323.415 364.64 323.617 364.64C323.745 364.64 323.873 364.64 324.001 364.64C324.129 364.629 324.257 364.608 324.385 364.576V365.984C324.183 366.005 323.985 366.027 323.793 366.048C323.601 366.069 323.404 366.08 323.201 366.08C322.721 366.08 322.332 366.037 322.033 365.952C321.745 365.856 321.516 365.723 321.345 365.552C321.185 365.371 321.073 365.147 321.009 364.88C320.956 364.613 320.924 364.309 320.913 363.968V359.088H319.537V357.728Z" fill="black"/>
<path d="M480 342.4C474.698 342.4 470.4 346.698 470.4 352C470.4 357.302 474.698 361.6 480 361.6C485.302 361.6 489.6 357.302 489.6 352C489.6 346.698 485.302 342.4 480 342.4ZM478.8 348.031C478.8 346.843 479.2 346.273 480 346.273C480.8 346.273 481.2 346.843 481.2 348.031V352.566C481.2 353.754 480.815 354.34 480 354.34C479.2 354.34 478.8 353.754 478.8 352.566V348.031ZM479.987 358.15C479.222 358.15 478.6 357.526 478.6 356.743C478.6 355.959 479.222 355.351 479.987 355.351C480.753 355.351 481.375 355.975 481.375 356.743C481.375 357.51 480.753 358.15 479.987 358.15Z" fill="#DB0002"/>
<path d="M289.36 396.124H286.028V395.004H294.022V396.124H290.69V405H289.36V396.124ZM295.11 395.004H296.3V398.826H296.328C296.421 398.602 296.552 398.415 296.72 398.266C296.888 398.107 297.075 397.981 297.28 397.888C297.495 397.785 297.714 397.711 297.938 397.664C298.171 397.617 298.395 397.594 298.61 397.594C299.086 397.594 299.483 397.659 299.8 397.79C300.117 397.921 300.374 398.103 300.57 398.336C300.766 398.569 300.901 398.849 300.976 399.176C301.06 399.493 301.102 399.848 301.102 400.24V405H299.912V400.1C299.912 399.652 299.781 399.297 299.52 399.036C299.259 398.775 298.899 398.644 298.442 398.644C298.078 398.644 297.761 398.7 297.49 398.812C297.229 398.924 297.009 399.083 296.832 399.288C296.655 399.493 296.519 399.736 296.426 400.016C296.342 400.287 296.3 400.585 296.3 400.912V405H295.11V395.004ZM308.09 400.688C308.072 400.408 308.006 400.142 307.894 399.89C307.792 399.638 307.647 399.423 307.46 399.246C307.283 399.059 307.068 398.915 306.816 398.812C306.574 398.7 306.303 398.644 306.004 398.644C305.696 398.644 305.416 398.7 305.164 398.812C304.922 398.915 304.712 399.059 304.534 399.246C304.357 399.433 304.217 399.652 304.114 399.904C304.012 400.147 303.951 400.408 303.932 400.688H308.09ZM309.238 402.704C309.08 403.516 308.73 404.127 308.188 404.538C307.647 404.949 306.966 405.154 306.144 405.154C305.566 405.154 305.062 405.061 304.632 404.874C304.212 404.687 303.858 404.426 303.568 404.09C303.279 403.754 303.06 403.353 302.91 402.886C302.77 402.419 302.691 401.911 302.672 401.36C302.672 400.809 302.756 400.305 302.924 399.848C303.092 399.391 303.326 398.994 303.624 398.658C303.932 398.322 304.292 398.061 304.702 397.874C305.122 397.687 305.58 397.594 306.074 397.594C306.718 397.594 307.25 397.729 307.67 398C308.1 398.261 308.44 398.597 308.692 399.008C308.954 399.419 309.131 399.867 309.224 400.352C309.327 400.837 309.369 401.299 309.35 401.738H303.932C303.923 402.055 303.96 402.359 304.044 402.648C304.128 402.928 304.264 403.18 304.45 403.404C304.637 403.619 304.875 403.791 305.164 403.922C305.454 404.053 305.794 404.118 306.186 404.118C306.69 404.118 307.101 404.001 307.418 403.768C307.745 403.535 307.96 403.18 308.062 402.704H309.238ZM315.32 398.812H314.102V397.762H315.32V396.684C315.32 396.096 315.488 395.653 315.824 395.354C316.17 395.046 316.669 394.892 317.322 394.892C317.434 394.892 317.56 394.901 317.7 394.92C317.85 394.939 317.98 394.967 318.092 395.004V396.04C317.99 396.003 317.878 395.979 317.756 395.97C317.635 395.951 317.523 395.942 317.42 395.942C317.131 395.942 316.907 395.998 316.748 396.11C316.59 396.222 316.51 396.437 316.51 396.754V397.762H317.91V398.812H316.51V405H315.32V398.812ZM320.016 401.388C320.016 401.827 320.072 402.219 320.184 402.564C320.305 402.9 320.469 403.185 320.674 403.418C320.879 403.642 321.117 403.815 321.388 403.936C321.668 404.057 321.962 404.118 322.27 404.118C322.578 404.118 322.867 404.057 323.138 403.936C323.418 403.815 323.661 403.642 323.866 403.418C324.071 403.185 324.23 402.9 324.342 402.564C324.463 402.219 324.524 401.827 324.524 401.388C324.524 400.949 324.463 400.562 324.342 400.226C324.23 399.881 324.071 399.591 323.866 399.358C323.661 399.125 323.418 398.947 323.138 398.826C322.867 398.705 322.578 398.644 322.27 398.644C321.962 398.644 321.668 398.705 321.388 398.826C321.117 398.947 320.879 399.125 320.674 399.358C320.469 399.591 320.305 399.881 320.184 400.226C320.072 400.562 320.016 400.949 320.016 401.388ZM318.756 401.388C318.756 400.856 318.831 400.361 318.98 399.904C319.129 399.437 319.353 399.036 319.652 398.7C319.951 398.355 320.319 398.084 320.758 397.888C321.197 397.692 321.701 397.594 322.27 397.594C322.849 397.594 323.353 397.692 323.782 397.888C324.221 398.084 324.589 398.355 324.888 398.7C325.187 399.036 325.411 399.437 325.56 399.904C325.709 400.361 325.784 400.856 325.784 401.388C325.784 401.92 325.709 402.415 325.56 402.872C325.411 403.329 325.187 403.731 324.888 404.076C324.589 404.412 324.221 404.678 323.782 404.874C323.353 405.061 322.849 405.154 322.27 405.154C321.701 405.154 321.197 405.061 320.758 404.874C320.319 404.678 319.951 404.412 319.652 404.076C319.353 403.731 319.129 403.329 318.98 402.872C318.831 402.415 318.756 401.92 318.756 401.388ZM327.32 397.762H328.44V399.288H328.468C328.757 398.7 329.112 398.266 329.532 397.986C329.952 397.706 330.484 397.575 331.128 397.594V398.854C330.652 398.854 330.246 398.919 329.91 399.05C329.574 399.181 329.303 399.372 329.098 399.624C328.893 399.876 328.743 400.184 328.65 400.548C328.557 400.903 328.51 401.313 328.51 401.78V405H327.32V397.762ZM332.199 397.762H333.319V398.826H333.347C333.888 398.005 334.668 397.594 335.685 397.594C336.133 397.594 336.539 397.687 336.903 397.874C337.267 398.061 337.524 398.378 337.673 398.826C337.916 398.434 338.233 398.131 338.625 397.916C339.026 397.701 339.465 397.594 339.941 397.594C340.305 397.594 340.632 397.636 340.921 397.72C341.22 397.795 341.472 397.916 341.677 398.084C341.892 398.252 342.055 398.471 342.167 398.742C342.288 399.003 342.349 399.321 342.349 399.694V405H341.159V400.254C341.159 400.03 341.14 399.82 341.103 399.624C341.066 399.428 340.996 399.26 340.893 399.12C340.79 398.971 340.646 398.854 340.459 398.77C340.282 398.686 340.048 398.644 339.759 398.644C339.171 398.644 338.709 398.812 338.373 399.148C338.037 399.484 337.869 399.932 337.869 400.492V405H336.679V400.254C336.679 400.021 336.656 399.806 336.609 399.61C336.572 399.414 336.502 399.246 336.399 399.106C336.296 398.957 336.156 398.845 335.979 398.77C335.811 398.686 335.592 398.644 335.321 398.644C334.976 398.644 334.677 398.714 334.425 398.854C334.182 398.994 333.982 399.162 333.823 399.358C333.674 399.554 333.562 399.759 333.487 399.974C333.422 400.179 333.389 400.352 333.389 400.492V405H332.199V397.762ZM350.722 404.972C350.516 405.093 350.232 405.154 349.868 405.154C349.56 405.154 349.312 405.07 349.126 404.902C348.948 404.725 348.86 404.44 348.86 404.048C348.533 404.44 348.15 404.725 347.712 404.902C347.282 405.07 346.816 405.154 346.312 405.154C345.985 405.154 345.672 405.117 345.374 405.042C345.084 404.967 344.832 404.851 344.618 404.692C344.403 404.533 344.23 404.328 344.1 404.076C343.978 403.815 343.918 403.502 343.918 403.138C343.918 402.727 343.988 402.391 344.128 402.13C344.268 401.869 344.45 401.659 344.674 401.5C344.907 401.332 345.168 401.206 345.458 401.122C345.756 401.038 346.06 400.968 346.368 400.912C346.694 400.847 347.002 400.8 347.292 400.772C347.59 400.735 347.852 400.688 348.076 400.632C348.3 400.567 348.477 400.478 348.608 400.366C348.738 400.245 348.804 400.072 348.804 399.848C348.804 399.587 348.752 399.377 348.65 399.218C348.556 399.059 348.43 398.938 348.272 398.854C348.122 398.77 347.95 398.714 347.754 398.686C347.567 398.658 347.38 398.644 347.194 398.644C346.69 398.644 346.27 398.742 345.934 398.938C345.598 399.125 345.416 399.484 345.388 400.016H344.198C344.216 399.568 344.31 399.19 344.478 398.882C344.646 398.574 344.87 398.327 345.15 398.14C345.43 397.944 345.747 397.804 346.102 397.72C346.466 397.636 346.853 397.594 347.264 397.594C347.59 397.594 347.912 397.617 348.23 397.664C348.556 397.711 348.85 397.809 349.112 397.958C349.373 398.098 349.583 398.299 349.742 398.56C349.9 398.821 349.98 399.162 349.98 399.582V403.306C349.98 403.586 349.994 403.791 350.022 403.922C350.059 404.053 350.171 404.118 350.358 404.118C350.46 404.118 350.582 404.095 350.722 404.048V404.972ZM348.79 401.262C348.64 401.374 348.444 401.458 348.202 401.514C347.959 401.561 347.702 401.603 347.432 401.64C347.17 401.668 346.904 401.705 346.634 401.752C346.363 401.789 346.12 401.855 345.906 401.948C345.691 402.041 345.514 402.177 345.374 402.354C345.243 402.522 345.178 402.755 345.178 403.054C345.178 403.25 345.215 403.418 345.29 403.558C345.374 403.689 345.476 403.796 345.598 403.88C345.728 403.964 345.878 404.025 346.046 404.062C346.214 404.099 346.391 404.118 346.578 404.118C346.97 404.118 347.306 404.067 347.586 403.964C347.866 403.852 348.094 403.717 348.272 403.558C348.449 403.39 348.58 403.213 348.664 403.026C348.748 402.83 348.79 402.648 348.79 402.48V401.262ZM353.656 397.762H355.098V398.812H353.656V403.306C353.656 403.446 353.666 403.558 353.684 403.642C353.712 403.726 353.759 403.791 353.824 403.838C353.89 403.885 353.978 403.917 354.09 403.936C354.212 403.945 354.366 403.95 354.552 403.95H355.098V405H354.188C353.88 405 353.614 404.981 353.39 404.944C353.176 404.897 352.998 404.818 352.858 404.706C352.728 404.594 352.63 404.435 352.564 404.23C352.499 404.025 352.466 403.754 352.466 403.418V398.812H351.234V397.762H352.466V395.592H353.656V397.762ZM361.927 396.46H360.737V395.004H361.927V396.46ZM360.737 397.762H361.927V405H360.737V397.762ZM364.673 402.718C364.683 402.979 364.743 403.203 364.855 403.39C364.967 403.567 365.112 403.712 365.289 403.824C365.476 403.927 365.681 404.001 365.905 404.048C366.139 404.095 366.377 404.118 366.619 404.118C366.806 404.118 367.002 404.104 367.207 404.076C367.413 404.048 367.599 403.997 367.767 403.922C367.945 403.847 368.089 403.74 368.201 403.6C368.313 403.451 368.369 403.264 368.369 403.04C368.369 402.732 368.253 402.499 368.019 402.34C367.786 402.181 367.492 402.055 367.137 401.962C366.792 401.859 366.414 401.771 366.003 401.696C365.593 401.612 365.21 401.5 364.855 401.36C364.51 401.211 364.221 401.005 363.987 400.744C363.754 400.483 363.637 400.119 363.637 399.652C363.637 399.288 363.717 398.975 363.875 398.714C364.043 398.453 364.253 398.243 364.505 398.084C364.767 397.916 365.056 397.795 365.373 397.72C365.7 397.636 366.022 397.594 366.339 397.594C366.75 397.594 367.128 397.631 367.473 397.706C367.819 397.771 368.122 397.893 368.383 398.07C368.654 398.238 368.869 398.471 369.027 398.77C369.186 399.059 369.279 399.423 369.307 399.862H368.117C368.099 399.629 368.038 399.437 367.935 399.288C367.833 399.129 367.702 399.003 367.543 398.91C367.385 398.817 367.207 398.751 367.011 398.714C366.825 398.667 366.633 398.644 366.437 398.644C366.26 398.644 366.078 398.658 365.891 398.686C365.714 398.714 365.551 398.765 365.401 398.84C365.252 398.905 365.131 398.999 365.037 399.12C364.944 399.232 364.897 399.381 364.897 399.568C364.897 399.773 364.967 399.946 365.107 400.086C365.257 400.217 365.443 400.329 365.667 400.422C365.891 400.506 366.143 400.581 366.423 400.646C366.703 400.702 366.983 400.763 367.263 400.828C367.562 400.893 367.851 400.973 368.131 401.066C368.421 401.159 368.673 401.285 368.887 401.444C369.111 401.593 369.289 401.785 369.419 402.018C369.559 402.251 369.629 402.541 369.629 402.886C369.629 403.325 369.536 403.689 369.349 403.978C369.172 404.267 368.934 404.501 368.635 404.678C368.346 404.855 368.015 404.977 367.641 405.042C367.277 405.117 366.913 405.154 366.549 405.154C366.148 405.154 365.765 405.112 365.401 405.028C365.037 404.944 364.715 404.809 364.435 404.622C364.155 404.426 363.931 404.174 363.763 403.866C363.595 403.549 363.502 403.166 363.483 402.718H364.673ZM375.192 397.762H376.312V398.91H376.34C376.834 398.033 377.618 397.594 378.692 397.594C379.168 397.594 379.564 397.659 379.882 397.79C380.199 397.921 380.456 398.103 380.652 398.336C380.848 398.569 380.983 398.849 381.058 399.176C381.142 399.493 381.184 399.848 381.184 400.24V405H379.994V400.1C379.994 399.652 379.863 399.297 379.602 399.036C379.34 398.775 378.981 398.644 378.524 398.644C378.16 398.644 377.842 398.7 377.572 398.812C377.31 398.924 377.091 399.083 376.914 399.288C376.736 399.493 376.601 399.736 376.508 400.016C376.424 400.287 376.382 400.585 376.382 400.912V405H375.192V397.762ZM384.014 401.388C384.014 401.827 384.07 402.219 384.182 402.564C384.303 402.9 384.467 403.185 384.672 403.418C384.877 403.642 385.115 403.815 385.386 403.936C385.666 404.057 385.96 404.118 386.268 404.118C386.576 404.118 386.865 404.057 387.136 403.936C387.416 403.815 387.659 403.642 387.864 403.418C388.069 403.185 388.228 402.9 388.34 402.564C388.461 402.219 388.522 401.827 388.522 401.388C388.522 400.949 388.461 400.562 388.34 400.226C388.228 399.881 388.069 399.591 387.864 399.358C387.659 399.125 387.416 398.947 387.136 398.826C386.865 398.705 386.576 398.644 386.268 398.644C385.96 398.644 385.666 398.705 385.386 398.826C385.115 398.947 384.877 399.125 384.672 399.358C384.467 399.591 384.303 399.881 384.182 400.226C384.07 400.562 384.014 400.949 384.014 401.388ZM382.754 401.388C382.754 400.856 382.829 400.361 382.978 399.904C383.127 399.437 383.351 399.036 383.65 398.7C383.949 398.355 384.317 398.084 384.756 397.888C385.195 397.692 385.699 397.594 386.268 397.594C386.847 397.594 387.351 397.692 387.78 397.888C388.219 398.084 388.587 398.355 388.886 398.7C389.185 399.036 389.409 399.437 389.558 399.904C389.707 400.361 389.782 400.856 389.782 401.388C389.782 401.92 389.707 402.415 389.558 402.872C389.409 403.329 389.185 403.731 388.886 404.076C388.587 404.412 388.219 404.678 387.78 404.874C387.351 405.061 386.847 405.154 386.268 405.154C385.699 405.154 385.195 405.061 384.756 404.874C384.317 404.678 383.949 404.412 383.65 404.076C383.351 403.731 383.127 403.329 382.978 402.872C382.829 402.415 382.754 401.92 382.754 401.388ZM393.012 397.762H394.454V398.812H393.012V403.306C393.012 403.446 393.021 403.558 393.04 403.642C393.068 403.726 393.115 403.791 393.18 403.838C393.245 403.885 393.334 403.917 393.446 403.936C393.567 403.945 393.721 403.95 393.908 403.95H394.454V405H393.544C393.236 405 392.97 404.981 392.746 404.944C392.531 404.897 392.354 404.818 392.214 404.706C392.083 404.594 391.985 404.435 391.92 404.23C391.855 404.025 391.822 403.754 391.822 403.418V398.812H390.59V397.762H391.822V395.592H393.012V397.762ZM403.285 405H402.011L399.323 397.762H400.653L402.683 403.796H402.711L404.685 397.762H405.931L403.285 405ZM413.61 404.972C413.404 405.093 413.12 405.154 412.756 405.154C412.448 405.154 412.2 405.07 412.014 404.902C411.836 404.725 411.748 404.44 411.748 404.048C411.421 404.44 411.038 404.725 410.6 404.902C410.17 405.07 409.704 405.154 409.2 405.154C408.873 405.154 408.56 405.117 408.262 405.042C407.972 404.967 407.72 404.851 407.506 404.692C407.291 404.533 407.118 404.328 406.988 404.076C406.866 403.815 406.806 403.502 406.806 403.138C406.806 402.727 406.876 402.391 407.016 402.13C407.156 401.869 407.338 401.659 407.562 401.5C407.795 401.332 408.056 401.206 408.346 401.122C408.644 401.038 408.948 400.968 409.256 400.912C409.582 400.847 409.89 400.8 410.18 400.772C410.478 400.735 410.74 400.688 410.964 400.632C411.188 400.567 411.365 400.478 411.496 400.366C411.626 400.245 411.692 400.072 411.692 399.848C411.692 399.587 411.64 399.377 411.538 399.218C411.444 399.059 411.318 398.938 411.16 398.854C411.01 398.77 410.838 398.714 410.642 398.686C410.455 398.658 410.268 398.644 410.082 398.644C409.578 398.644 409.158 398.742 408.822 398.938C408.486 399.125 408.304 399.484 408.276 400.016H407.086C407.104 399.568 407.198 399.19 407.366 398.882C407.534 398.574 407.758 398.327 408.038 398.14C408.318 397.944 408.635 397.804 408.99 397.72C409.354 397.636 409.741 397.594 410.152 397.594C410.478 397.594 410.8 397.617 411.118 397.664C411.444 397.711 411.738 397.809 412 397.958C412.261 398.098 412.471 398.299 412.63 398.56C412.788 398.821 412.868 399.162 412.868 399.582V403.306C412.868 403.586 412.882 403.791 412.91 403.922C412.947 404.053 413.059 404.118 413.246 404.118C413.348 404.118 413.47 404.095 413.61 404.048V404.972ZM411.678 401.262C411.528 401.374 411.332 401.458 411.09 401.514C410.847 401.561 410.59 401.603 410.32 401.64C410.058 401.668 409.792 401.705 409.522 401.752C409.251 401.789 409.008 401.855 408.794 401.948C408.579 402.041 408.402 402.177 408.262 402.354C408.131 402.522 408.066 402.755 408.066 403.054C408.066 403.25 408.103 403.418 408.178 403.558C408.262 403.689 408.364 403.796 408.486 403.88C408.616 403.964 408.766 404.025 408.934 404.062C409.102 404.099 409.279 404.118 409.466 404.118C409.858 404.118 410.194 404.067 410.474 403.964C410.754 403.852 410.982 403.717 411.16 403.558C411.337 403.39 411.468 403.213 411.552 403.026C411.636 402.83 411.678 402.648 411.678 402.48V401.262ZM414.962 395.004H416.152V405H414.962V395.004ZM419.431 396.46H418.241V395.004H419.431V396.46ZM418.241 397.762H419.431V405H418.241V397.762ZM422.317 401.444C422.317 401.78 422.359 402.111 422.443 402.438C422.536 402.755 422.672 403.04 422.849 403.292C423.036 403.544 423.269 403.745 423.549 403.894C423.838 404.043 424.174 404.118 424.557 404.118C424.958 404.118 425.299 404.039 425.579 403.88C425.859 403.721 426.088 403.516 426.265 403.264C426.442 403.003 426.568 402.709 426.643 402.382C426.727 402.055 426.769 401.724 426.769 401.388C426.769 401.033 426.727 400.693 426.643 400.366C426.559 400.03 426.424 399.736 426.237 399.484C426.06 399.232 425.826 399.031 425.537 398.882C425.248 398.723 424.898 398.644 424.487 398.644C424.086 398.644 423.745 398.723 423.465 398.882C423.185 399.041 422.961 399.251 422.793 399.512C422.625 399.773 422.504 400.072 422.429 400.408C422.354 400.744 422.317 401.089 422.317 401.444ZM427.917 405H426.727V404.02H426.699C426.503 404.421 426.195 404.711 425.775 404.888C425.355 405.065 424.893 405.154 424.389 405.154C423.829 405.154 423.339 405.051 422.919 404.846C422.508 404.641 422.163 404.365 421.883 404.02C421.612 403.675 421.407 403.273 421.267 402.816C421.127 402.359 421.057 401.873 421.057 401.36C421.057 400.847 421.122 400.361 421.253 399.904C421.393 399.447 421.598 399.05 421.869 398.714C422.149 398.369 422.494 398.098 422.905 397.902C423.325 397.697 423.81 397.594 424.361 397.594C424.548 397.594 424.748 397.613 424.963 397.65C425.178 397.687 425.392 397.753 425.607 397.846C425.822 397.93 426.022 398.047 426.209 398.196C426.405 398.336 426.568 398.513 426.699 398.728H426.727V395.004H427.917V405ZM430.189 403.446H431.743V405H430.189V403.446Z" fill="#DB0002"/>
<path d="M286.966 427.004H289.164V430.84H293.21V427.004H295.408V437H293.21V432.688H289.164V437H286.966V427.004ZM302.18 432.604C302.087 432.1 301.919 431.717 301.676 431.456C301.443 431.195 301.083 431.064 300.598 431.064C300.281 431.064 300.015 431.12 299.8 431.232C299.595 431.335 299.427 431.465 299.296 431.624C299.175 431.783 299.086 431.951 299.03 432.128C298.983 432.305 298.955 432.464 298.946 432.604H302.18ZM298.946 433.864C298.974 434.508 299.137 434.975 299.436 435.264C299.735 435.553 300.164 435.698 300.724 435.698C301.125 435.698 301.471 435.6 301.76 435.404C302.049 435.199 302.227 434.984 302.292 434.76H304.042C303.762 435.628 303.333 436.249 302.754 436.622C302.175 436.995 301.475 437.182 300.654 437.182C300.085 437.182 299.571 437.093 299.114 436.916C298.657 436.729 298.269 436.468 297.952 436.132C297.635 435.796 297.387 435.395 297.21 434.928C297.042 434.461 296.958 433.948 296.958 433.388C296.958 432.847 297.047 432.343 297.224 431.876C297.401 431.409 297.653 431.008 297.98 430.672C298.307 430.327 298.694 430.056 299.142 429.86C299.599 429.664 300.103 429.566 300.654 429.566C301.27 429.566 301.807 429.687 302.264 429.93C302.721 430.163 303.095 430.481 303.384 430.882C303.683 431.283 303.897 431.741 304.028 432.254C304.159 432.767 304.205 433.304 304.168 433.864H298.946ZM305.578 427.004H307.566V437H305.578V427.004ZM312.96 435.698C313.287 435.698 313.558 435.633 313.772 435.502C313.996 435.371 314.174 435.203 314.304 434.998C314.444 434.783 314.542 434.536 314.598 434.256C314.654 433.976 314.682 433.691 314.682 433.402C314.682 433.113 314.65 432.828 314.584 432.548C314.528 432.268 314.43 432.021 314.29 431.806C314.15 431.582 313.968 431.405 313.744 431.274C313.53 431.134 313.264 431.064 312.946 431.064C312.62 431.064 312.344 431.134 312.12 431.274C311.906 431.405 311.728 431.577 311.588 431.792C311.458 432.007 311.364 432.254 311.308 432.534C311.252 432.814 311.224 433.103 311.224 433.402C311.224 433.691 311.252 433.976 311.308 434.256C311.374 434.536 311.472 434.783 311.602 434.998C311.742 435.203 311.924 435.371 312.148 435.502C312.372 435.633 312.643 435.698 312.96 435.698ZM309.306 429.762H311.196V430.686H311.224C311.467 430.294 311.775 430.009 312.148 429.832C312.522 429.655 312.932 429.566 313.38 429.566C313.95 429.566 314.44 429.673 314.85 429.888C315.261 430.103 315.602 430.387 315.872 430.742C316.143 431.097 316.344 431.512 316.474 431.988C316.605 432.455 316.67 432.945 316.67 433.458C316.67 433.943 316.605 434.41 316.474 434.858C316.344 435.306 316.143 435.703 315.872 436.048C315.611 436.393 315.28 436.669 314.878 436.874C314.486 437.079 314.024 437.182 313.492 437.182C313.044 437.182 312.629 437.093 312.246 436.916C311.873 436.729 311.565 436.459 311.322 436.104H311.294V439.534H309.306V429.762ZM322.912 432.604C322.819 432.1 322.651 431.717 322.408 431.456C322.175 431.195 321.815 431.064 321.33 431.064C321.013 431.064 320.747 431.12 320.532 431.232C320.327 431.335 320.159 431.465 320.028 431.624C319.907 431.783 319.818 431.951 319.762 432.128C319.715 432.305 319.687 432.464 319.678 432.604H322.912ZM319.678 433.864C319.706 434.508 319.869 434.975 320.168 435.264C320.467 435.553 320.896 435.698 321.456 435.698C321.857 435.698 322.203 435.6 322.492 435.404C322.781 435.199 322.959 434.984 323.024 434.76H324.774C324.494 435.628 324.065 436.249 323.486 436.622C322.907 436.995 322.207 437.182 321.386 437.182C320.817 437.182 320.303 437.093 319.846 436.916C319.389 436.729 319.001 436.468 318.684 436.132C318.367 435.796 318.119 435.395 317.942 434.928C317.774 434.461 317.69 433.948 317.69 433.388C317.69 432.847 317.779 432.343 317.956 431.876C318.133 431.409 318.385 431.008 318.712 430.672C319.039 430.327 319.426 430.056 319.874 429.86C320.331 429.664 320.835 429.566 321.386 429.566C322.002 429.566 322.539 429.687 322.996 429.93C323.453 430.163 323.827 430.481 324.116 430.882C324.415 431.283 324.629 431.741 324.76 432.254C324.891 432.767 324.937 433.304 324.9 433.864H319.678ZM326.254 429.762H328.144V431.106H328.172C328.265 430.882 328.391 430.677 328.55 430.49C328.709 430.294 328.891 430.131 329.096 430C329.301 429.86 329.521 429.753 329.754 429.678C329.987 429.603 330.23 429.566 330.482 429.566C330.613 429.566 330.757 429.589 330.916 429.636V431.484C330.823 431.465 330.711 431.451 330.58 431.442C330.449 431.423 330.323 431.414 330.202 431.414C329.838 431.414 329.53 431.475 329.278 431.596C329.026 431.717 328.821 431.885 328.662 432.1C328.513 432.305 328.405 432.548 328.34 432.828C328.275 433.108 328.242 433.411 328.242 433.738V437H326.254V429.762ZM335.998 427.004H337.986V437H335.998V427.004ZM341.77 428.642H339.782V427.004H341.77V428.642ZM339.782 429.762H341.77V437H339.782V429.762ZM343.511 429.762H345.401V430.77H345.443C345.695 430.35 346.021 430.047 346.423 429.86C346.824 429.664 347.235 429.566 347.655 429.566C348.187 429.566 348.621 429.641 348.957 429.79C349.302 429.93 349.573 430.131 349.769 430.392C349.965 430.644 350.1 430.957 350.175 431.33C350.259 431.694 350.301 432.1 350.301 432.548V437H348.313V432.912C348.313 432.315 348.219 431.871 348.033 431.582C347.846 431.283 347.515 431.134 347.039 431.134C346.497 431.134 346.105 431.297 345.863 431.624C345.62 431.941 345.499 432.469 345.499 433.206V437H343.511V429.762ZM352.167 427.004H354.155V432.366L356.661 429.762H359.013L356.283 432.422L359.321 437H356.913L354.925 433.766L354.155 434.508V437H352.167V427.004Z" fill="black"/>
<path d="M286 438.75H359.265V439.45H286V438.75Z" fill="black"/>
</svg>
