<svg width="600" height="118" viewBox="0 0 600 118" fill="none" xmlns="http://www.w3.org/2000/svg">
<rect width="600" height="118" fill="black" fill-opacity="0.04"/>
<path d="M93.84 54.356H90.032V53.076H99.168V54.356H95.36V64.5H93.84V54.356ZM98.6948 56.228H99.9748V57.972H100.007C100.337 57.3 100.743 56.804 101.223 56.484C101.703 56.164 102.311 56.0147 103.047 56.036V57.476C102.503 57.476 102.039 57.5507 101.655 57.7C101.271 57.8493 100.961 58.068 100.727 58.356C100.492 58.644 100.321 58.996 100.215 59.412C100.108 59.8173 100.055 60.2867 100.055 60.82V64.5H98.6948V56.228ZM111.399 64.468C111.164 64.6067 110.839 64.676 110.423 64.676C110.071 64.676 109.788 64.58 109.575 64.388C109.372 64.1853 109.271 63.86 109.271 63.412C108.898 63.86 108.46 64.1853 107.959 64.388C107.468 64.58 106.935 64.676 106.359 64.676C105.986 64.676 105.628 64.6333 105.287 64.548C104.956 64.4627 104.668 64.3293 104.423 64.148C104.178 63.9667 103.98 63.732 103.831 63.444C103.692 63.1453 103.623 62.788 103.623 62.372C103.623 61.9027 103.703 61.5187 103.863 61.22C104.023 60.9213 104.231 60.6813 104.487 60.5C104.754 60.308 105.052 60.164 105.383 60.068C105.724 59.972 106.071 59.892 106.423 59.828C106.796 59.7533 107.148 59.7 107.479 59.668C107.82 59.6253 108.119 59.572 108.375 59.508C108.631 59.4333 108.834 59.332 108.983 59.204C109.132 59.0653 109.207 58.868 109.207 58.612C109.207 58.3133 109.148 58.0733 109.031 57.892C108.924 57.7107 108.78 57.572 108.599 57.476C108.428 57.38 108.231 57.316 108.007 57.284C107.794 57.252 107.58 57.236 107.367 57.236C106.791 57.236 106.311 57.348 105.927 57.572C105.543 57.7853 105.335 58.196 105.303 58.804H103.943C103.964 58.292 104.071 57.86 104.263 57.508C104.455 57.156 104.711 56.8733 105.031 56.66C105.351 56.436 105.714 56.276 106.119 56.18C106.535 56.084 106.978 56.036 107.447 56.036C107.82 56.036 108.188 56.0627 108.551 56.116C108.924 56.1693 109.26 56.2813 109.559 56.452C109.858 56.612 110.098 56.8413 110.279 57.14C110.46 57.4387 110.551 57.828 110.551 58.308V62.564C110.551 62.884 110.567 63.1187 110.599 63.268C110.642 63.4173 110.77 63.492 110.983 63.492C111.1 63.492 111.239 63.4653 111.399 63.412V64.468ZM109.191 60.228C109.02 60.356 108.796 60.452 108.519 60.516C108.242 60.5693 107.948 60.6173 107.639 60.66C107.34 60.692 107.036 60.7347 106.727 60.788C106.418 60.8307 106.14 60.9053 105.895 61.012C105.65 61.1187 105.447 61.2733 105.287 61.476C105.138 61.668 105.063 61.9347 105.063 62.276C105.063 62.5 105.106 62.692 105.191 62.852C105.287 63.0013 105.404 63.124 105.543 63.22C105.692 63.316 105.863 63.3853 106.055 63.428C106.247 63.4707 106.45 63.492 106.663 63.492C107.111 63.492 107.495 63.4333 107.815 63.316C108.135 63.188 108.396 63.0333 108.599 62.852C108.802 62.66 108.951 62.4573 109.047 62.244C109.143 62.02 109.191 61.812 109.191 61.62V60.228ZM114.105 54.74H112.745V53.076H114.105V54.74ZM112.745 56.228H114.105V64.5H112.745V56.228ZM116.292 53.076H117.652V64.5H116.292V53.076ZM121.198 54.74H119.838V53.076H121.198V54.74ZM119.838 56.228H121.198V64.5H119.838V56.228ZM123.305 56.228H124.585V57.54H124.617C125.183 56.5373 126.079 56.036 127.305 56.036C127.849 56.036 128.303 56.1107 128.665 56.26C129.028 56.4093 129.321 56.6173 129.545 56.884C129.769 57.1507 129.924 57.4707 130.009 57.844C130.105 58.2067 130.153 58.612 130.153 59.06V64.5H128.793V58.9C128.793 58.388 128.644 57.9827 128.345 57.684C128.047 57.3853 127.636 57.236 127.113 57.236C126.697 57.236 126.335 57.3 126.025 57.428C125.727 57.556 125.476 57.7373 125.273 57.972C125.071 58.2067 124.916 58.484 124.809 58.804C124.713 59.1133 124.665 59.4547 124.665 59.828V64.5H123.305V56.228ZM139.332 63.796C139.332 65.1507 139.023 66.164 138.404 66.836C137.785 67.508 136.815 67.844 135.492 67.844C135.108 67.844 134.713 67.8013 134.308 67.716C133.913 67.6307 133.551 67.492 133.22 67.3C132.9 67.108 132.633 66.8573 132.42 66.548C132.207 66.2387 132.089 65.86 132.068 65.412H133.428C133.439 65.6573 133.513 65.8653 133.652 66.036C133.801 66.2067 133.977 66.3453 134.18 66.452C134.393 66.5587 134.623 66.6333 134.868 66.676C135.113 66.7293 135.348 66.756 135.572 66.756C136.02 66.756 136.399 66.676 136.708 66.516C137.017 66.3667 137.273 66.1533 137.476 65.876C137.679 65.6093 137.823 65.284 137.908 64.9C138.004 64.516 138.052 64.0947 138.052 63.636V63.092H138.02C137.785 63.604 137.428 63.9827 136.948 64.228C136.479 64.4627 135.977 64.58 135.444 64.58C134.825 64.58 134.287 64.468 133.828 64.244C133.369 64.02 132.985 63.7213 132.676 63.348C132.367 62.964 132.132 62.5213 131.972 62.02C131.823 61.508 131.748 60.9693 131.748 60.404C131.748 59.9133 131.812 59.412 131.94 58.9C132.068 58.3773 132.281 57.908 132.58 57.492C132.879 57.0653 133.273 56.7187 133.764 56.452C134.255 56.1747 134.857 56.036 135.572 56.036C136.095 56.036 136.575 56.1533 137.012 56.388C137.449 56.612 137.791 56.9533 138.036 57.412H138.052V56.228H139.332V63.796ZM135.524 63.396C135.972 63.396 136.351 63.3053 136.66 63.124C136.98 62.932 137.236 62.6867 137.428 62.388C137.62 62.0787 137.759 61.732 137.844 61.348C137.94 60.964 137.988 60.58 137.988 60.196C137.988 59.8333 137.945 59.476 137.86 59.124C137.775 58.772 137.636 58.4573 137.444 58.18C137.263 57.892 137.023 57.6627 136.724 57.492C136.425 57.3213 136.063 57.236 135.636 57.236C135.199 57.236 134.825 57.3213 134.516 57.492C134.207 57.652 133.951 57.8707 133.748 58.148C133.556 58.4253 133.412 58.7453 133.316 59.108C133.231 59.4707 133.188 59.8493 133.188 60.244C133.188 60.6173 133.225 60.9907 133.3 61.364C133.375 61.7373 133.503 62.0787 133.684 62.388C133.865 62.6867 134.105 62.932 134.404 63.124C134.703 63.3053 135.076 63.396 135.524 63.396ZM153.165 64.468C152.93 64.6067 152.605 64.676 152.189 64.676C151.837 64.676 151.554 64.58 151.341 64.388C151.138 64.1853 151.037 63.86 151.037 63.412C150.663 63.86 150.226 64.1853 149.725 64.388C149.234 64.58 148.701 64.676 148.125 64.676C147.751 64.676 147.394 64.6333 147.053 64.548C146.722 64.4627 146.434 64.3293 146.189 64.148C145.943 63.9667 145.746 63.732 145.597 63.444C145.458 63.1453 145.389 62.788 145.389 62.372C145.389 61.9027 145.469 61.5187 145.629 61.22C145.789 60.9213 145.997 60.6813 146.253 60.5C146.519 60.308 146.818 60.164 147.149 60.068C147.49 59.972 147.837 59.892 148.189 59.828C148.562 59.7533 148.914 59.7 149.245 59.668C149.586 59.6253 149.885 59.572 150.141 59.508C150.397 59.4333 150.599 59.332 150.749 59.204C150.898 59.0653 150.973 58.868 150.973 58.612C150.973 58.3133 150.914 58.0733 150.797 57.892C150.69 57.7107 150.546 57.572 150.365 57.476C150.194 57.38 149.997 57.316 149.773 57.284C149.559 57.252 149.346 57.236 149.133 57.236C148.557 57.236 148.077 57.348 147.693 57.572C147.309 57.7853 147.101 58.196 147.069 58.804H145.709C145.73 58.292 145.837 57.86 146.029 57.508C146.221 57.156 146.477 56.8733 146.797 56.66C147.117 56.436 147.479 56.276 147.885 56.18C148.301 56.084 148.743 56.036 149.213 56.036C149.586 56.036 149.954 56.0627 150.317 56.116C150.69 56.1693 151.026 56.2813 151.325 56.452C151.623 56.612 151.863 56.8413 152.045 57.14C152.226 57.4387 152.317 57.828 152.317 58.308V62.564C152.317 62.884 152.333 63.1187 152.365 63.268C152.407 63.4173 152.535 63.492 152.749 63.492C152.866 63.492 153.005 63.4653 153.165 63.412V64.468ZM150.957 60.228C150.786 60.356 150.562 60.452 150.285 60.516C150.007 60.5693 149.714 60.6173 149.405 60.66C149.106 60.692 148.802 60.7347 148.493 60.788C148.183 60.8307 147.906 60.9053 147.661 61.012C147.415 61.1187 147.213 61.2733 147.053 61.476C146.903 61.668 146.829 61.9347 146.829 62.276C146.829 62.5 146.871 62.692 146.957 62.852C147.053 63.0013 147.17 63.124 147.309 63.22C147.458 63.316 147.629 63.3853 147.821 63.428C148.013 63.4707 148.215 63.492 148.429 63.492C148.877 63.492 149.261 63.4333 149.581 63.316C149.901 63.188 150.162 63.0333 150.365 62.852C150.567 62.66 150.717 62.4573 150.813 62.244C150.909 62.02 150.957 61.812 150.957 61.62V60.228ZM160.046 58.884C159.94 58.3613 159.716 57.956 159.374 57.668C159.033 57.38 158.574 57.236 157.998 57.236C157.508 57.236 157.097 57.3267 156.766 57.508C156.436 57.6893 156.169 57.9293 155.966 58.228C155.774 58.5267 155.636 58.8733 155.55 59.268C155.465 59.652 155.422 60.052 155.422 60.468C155.422 60.852 155.465 61.2253 155.55 61.588C155.646 61.9507 155.79 62.276 155.982 62.564C156.174 62.8413 156.425 63.0653 156.734 63.236C157.044 63.4067 157.412 63.492 157.838 63.492C158.51 63.492 159.033 63.316 159.406 62.964C159.79 62.612 160.025 62.116 160.11 61.476H161.502C161.353 62.5 160.969 63.2893 160.35 63.844C159.742 64.3987 158.91 64.676 157.854 64.676C157.225 64.676 156.665 64.5747 156.174 64.372C155.694 64.1693 155.289 63.8813 154.958 63.508C154.638 63.1347 154.393 62.692 154.222 62.18C154.062 61.6573 153.982 61.0867 153.982 60.468C153.982 59.8493 154.062 59.2733 154.222 58.74C154.382 58.196 154.622 57.7267 154.942 57.332C155.273 56.9267 155.684 56.612 156.174 56.388C156.665 56.1533 157.236 56.036 157.886 56.036C158.356 56.036 158.793 56.0947 159.198 56.212C159.614 56.3187 159.977 56.4893 160.286 56.724C160.606 56.9587 160.868 57.2573 161.07 57.62C161.273 57.972 161.401 58.3933 161.454 58.884H160.046ZM164.912 56.228H166.56V57.428H164.912V62.564C164.912 62.724 164.923 62.852 164.944 62.948C164.976 63.044 165.029 63.1187 165.104 63.172C165.179 63.2253 165.28 63.2627 165.408 63.284C165.547 63.2947 165.723 63.3 165.936 63.3H166.56V64.5H165.52C165.168 64.5 164.864 64.4787 164.608 64.436C164.363 64.3827 164.16 64.292 164 64.164C163.851 64.036 163.739 63.8547 163.664 63.62C163.589 63.3853 163.552 63.076 163.552 62.692V57.428H162.144V56.228H163.552V53.748H164.912V56.228ZM169.511 54.74H168.151V53.076H169.511V54.74ZM168.151 56.228H169.511V64.5H168.151V56.228ZM172.61 60.372C172.61 60.8733 172.674 61.3213 172.802 61.716C172.94 62.1 173.127 62.4253 173.362 62.692C173.596 62.948 173.868 63.1453 174.178 63.284C174.498 63.4227 174.834 63.492 175.186 63.492C175.538 63.492 175.868 63.4227 176.178 63.284C176.498 63.1453 176.775 62.948 177.01 62.692C177.244 62.4253 177.426 62.1 177.554 61.716C177.692 61.3213 177.762 60.8733 177.762 60.372C177.762 59.8707 177.692 59.428 177.554 59.044C177.426 58.6493 177.244 58.3187 177.01 58.052C176.775 57.7853 176.498 57.5827 176.178 57.444C175.868 57.3053 175.538 57.236 175.186 57.236C174.834 57.236 174.498 57.3053 174.178 57.444C173.868 57.5827 173.596 57.7853 173.362 58.052C173.127 58.3187 172.94 58.6493 172.802 59.044C172.674 59.428 172.61 59.8707 172.61 60.372ZM171.17 60.372C171.17 59.764 171.255 59.1987 171.426 58.676C171.596 58.1427 171.852 57.684 172.194 57.3C172.535 56.9053 172.956 56.596 173.458 56.372C173.959 56.148 174.535 56.036 175.186 56.036C175.847 56.036 176.423 56.148 176.914 56.372C177.415 56.596 177.836 56.9053 178.178 57.3C178.519 57.684 178.775 58.1427 178.946 58.676C179.116 59.1987 179.202 59.764 179.202 60.372C179.202 60.98 179.116 61.5453 178.946 62.068C178.775 62.5907 178.519 63.0493 178.178 63.444C177.836 63.828 177.415 64.132 176.914 64.356C176.423 64.5693 175.847 64.676 175.186 64.676C174.535 64.676 173.959 64.5693 173.458 64.356C172.956 64.132 172.535 63.828 172.194 63.444C171.852 63.0493 171.596 62.5907 171.426 62.068C171.255 61.5453 171.17 60.98 171.17 60.372ZM180.805 56.228H182.085V57.54H182.117C182.683 56.5373 183.579 56.036 184.805 56.036C185.349 56.036 185.803 56.1107 186.165 56.26C186.528 56.4093 186.821 56.6173 187.045 56.884C187.269 57.1507 187.424 57.4707 187.509 57.844C187.605 58.2067 187.653 58.612 187.653 59.06V64.5H186.293V58.9C186.293 58.388 186.144 57.9827 185.845 57.684C185.547 57.3853 185.136 57.236 184.613 57.236C184.197 57.236 183.835 57.3 183.525 57.428C183.227 57.556 182.976 57.7373 182.773 57.972C182.571 58.2067 182.416 58.484 182.309 58.804C182.213 59.1133 182.165 59.4547 182.165 59.828V64.5H180.805V56.228Z" fill="black" fill-opacity="0.68"/>
<mask id="path-2-inside-1_67137_100869" fill="white">
<path d="M270 29H510V89H270V29Z"/>
</mask>
<path d="M270 29H510V89H270V29Z" fill="black" fill-opacity="0.04"/>
<path d="M510 89V88H270V89V90H510V89Z" fill="black" fill-opacity="0.2" mask="url(#path-2-inside-1_67137_100869)"/>
<path d="M287.248 53.576H288.768V63.72H294.816V65H287.248V53.576ZM303.443 64.968C303.208 65.1067 302.883 65.176 302.467 65.176C302.115 65.176 301.832 65.08 301.619 64.888C301.416 64.6853 301.315 64.36 301.315 63.912C300.941 64.36 300.504 64.6853 300.003 64.888C299.512 65.08 298.979 65.176 298.403 65.176C298.029 65.176 297.672 65.1333 297.331 65.048C297 64.9627 296.712 64.8293 296.467 64.648C296.221 64.4667 296.024 64.232 295.875 63.944C295.736 63.6453 295.667 63.288 295.667 62.872C295.667 62.4027 295.747 62.0187 295.907 61.72C296.067 61.4213 296.275 61.1813 296.531 61C296.797 60.808 297.096 60.664 297.427 60.568C297.768 60.472 298.115 60.392 298.467 60.328C298.84 60.2533 299.192 60.2 299.523 60.168C299.864 60.1253 300.163 60.072 300.419 60.008C300.675 59.9333 300.877 59.832 301.027 59.704C301.176 59.5653 301.251 59.368 301.251 59.112C301.251 58.8133 301.192 58.5733 301.075 58.392C300.968 58.2107 300.824 58.072 300.643 57.976C300.472 57.88 300.275 57.816 300.051 57.784C299.837 57.752 299.624 57.736 299.411 57.736C298.835 57.736 298.355 57.848 297.971 58.072C297.587 58.2853 297.379 58.696 297.347 59.304H295.987C296.008 58.792 296.115 58.36 296.307 58.008C296.499 57.656 296.755 57.3733 297.075 57.16C297.395 56.936 297.757 56.776 298.163 56.68C298.579 56.584 299.021 56.536 299.491 56.536C299.864 56.536 300.232 56.5627 300.595 56.616C300.968 56.6693 301.304 56.7813 301.603 56.952C301.901 57.112 302.141 57.3413 302.323 57.64C302.504 57.9387 302.595 58.328 302.595 58.808V63.064C302.595 63.384 302.611 63.6187 302.643 63.768C302.685 63.9173 302.813 63.992 303.027 63.992C303.144 63.992 303.283 63.9653 303.443 63.912V64.968ZM301.235 60.728C301.064 60.856 300.84 60.952 300.563 61.016C300.285 61.0693 299.992 61.1173 299.683 61.16C299.384 61.192 299.08 61.2347 298.771 61.288C298.461 61.3307 298.184 61.4053 297.939 61.512C297.693 61.6187 297.491 61.7733 297.331 61.976C297.181 62.168 297.107 62.4347 297.107 62.776C297.107 63 297.149 63.192 297.235 63.352C297.331 63.5013 297.448 63.624 297.587 63.72C297.736 63.816 297.907 63.8853 298.099 63.928C298.291 63.9707 298.493 63.992 298.707 63.992C299.155 63.992 299.539 63.9333 299.859 63.816C300.179 63.688 300.44 63.5333 300.643 63.352C300.845 63.16 300.995 62.9573 301.091 62.744C301.187 62.52 301.235 62.312 301.235 62.12V60.728ZM304.956 53.576H306.316V57.848H306.348C306.572 57.3893 306.924 57.0587 307.404 56.856C307.884 56.6427 308.412 56.536 308.988 56.536C309.628 56.536 310.183 56.6533 310.652 56.888C311.132 57.1227 311.527 57.4427 311.836 57.848C312.156 58.2427 312.396 58.7013 312.556 59.224C312.716 59.7467 312.796 60.3013 312.796 60.888C312.796 61.4747 312.716 62.0293 312.556 62.552C312.407 63.0747 312.172 63.5333 311.852 63.928C311.543 64.312 311.148 64.616 310.668 64.84C310.199 65.064 309.65 65.176 309.02 65.176C308.818 65.176 308.588 65.1547 308.332 65.112C308.087 65.0693 307.842 65 307.596 64.904C307.351 64.808 307.116 64.68 306.892 64.52C306.679 64.3493 306.498 64.1413 306.348 63.896H306.316V65H304.956V53.576ZM311.356 60.792C311.356 60.408 311.303 60.0347 311.196 59.672C311.1 59.2987 310.946 58.968 310.732 58.68C310.53 58.392 310.263 58.1627 309.932 57.992C309.612 57.8213 309.234 57.736 308.796 57.736C308.338 57.736 307.948 57.8267 307.628 58.008C307.308 58.1893 307.047 58.4293 306.844 58.728C306.642 59.016 306.492 59.3467 306.396 59.72C306.311 60.0933 306.268 60.472 306.268 60.856C306.268 61.2613 306.316 61.656 306.412 62.04C306.508 62.4133 306.658 62.744 306.86 63.032C307.074 63.32 307.346 63.5547 307.676 63.736C308.007 63.9067 308.407 63.992 308.876 63.992C309.346 63.992 309.735 63.9013 310.044 63.72C310.364 63.5387 310.62 63.2987 310.812 63C311.004 62.7013 311.143 62.36 311.228 61.976C311.314 61.592 311.356 61.1973 311.356 60.792ZM320.337 60.072C320.315 59.752 320.241 59.448 320.113 59.16C319.995 58.872 319.83 58.6267 319.617 58.424C319.414 58.2107 319.169 58.0453 318.881 57.928C318.603 57.8 318.294 57.736 317.953 57.736C317.601 57.736 317.281 57.8 316.993 57.928C316.715 58.0453 316.475 58.2107 316.273 58.424C316.07 58.6373 315.91 58.888 315.793 59.176C315.675 59.4533 315.606 59.752 315.585 60.072H320.337ZM321.649 62.376C321.467 63.304 321.067 64.0027 320.449 64.472C319.83 64.9413 319.051 65.176 318.113 65.176C317.451 65.176 316.875 65.0693 316.385 64.856C315.905 64.6427 315.499 64.344 315.169 63.96C314.838 63.576 314.587 63.1173 314.417 62.584C314.257 62.0507 314.166 61.4693 314.145 60.84C314.145 60.2107 314.241 59.6347 314.433 59.112C314.625 58.5893 314.891 58.136 315.233 57.752C315.585 57.368 315.995 57.0693 316.465 56.856C316.945 56.6427 317.467 56.536 318.033 56.536C318.769 56.536 319.377 56.6907 319.857 57C320.347 57.2987 320.737 57.6827 321.025 58.152C321.323 58.6213 321.526 59.1333 321.633 59.688C321.75 60.2427 321.798 60.7707 321.777 61.272H315.585C315.574 61.6347 315.617 61.9813 315.713 62.312C315.809 62.632 315.963 62.92 316.177 63.176C316.39 63.4213 316.662 63.6187 316.993 63.768C317.323 63.9173 317.713 63.992 318.161 63.992C318.737 63.992 319.206 63.8587 319.569 63.592C319.942 63.3253 320.187 62.92 320.305 62.376H321.649ZM323.466 53.576H324.826V65H323.466V53.576Z" fill="black" fill-opacity="0.68"/>
<path d="M486.751 54.1778L484.822 52.249L480 57.071L475.178 52.249L473.249 54.1778L478.071 58.9998L473.249 63.8217L475.178 65.7505L480 60.9285L484.822 65.7505L486.751 63.8217L481.929 58.9998L486.751 54.1778Z" fill="black"/>
</svg>
