<svg width="600" height="887" viewBox="0 0 600 887" fill="none" xmlns="http://www.w3.org/2000/svg">
<rect width="600" height="887" fill="black" fill-opacity="0.04"/>
<path d="M91.248 107.576H99.136V108.856H92.768V112.488H98.704V113.768H92.768V117.72H99.184V119H91.248V107.576ZM100.805 110.728H102.085V112.04H102.117C102.683 111.037 103.579 110.536 104.805 110.536C105.349 110.536 105.803 110.611 106.165 110.76C106.528 110.909 106.821 111.117 107.045 111.384C107.269 111.651 107.424 111.971 107.509 112.344C107.605 112.707 107.653 113.112 107.653 113.56V119H106.293V113.4C106.293 112.888 106.144 112.483 105.845 112.184C105.547 111.885 105.136 111.736 104.613 111.736C104.197 111.736 103.835 111.8 103.525 111.928C103.227 112.056 102.976 112.237 102.773 112.472C102.571 112.707 102.416 112.984 102.309 113.304C102.213 113.613 102.165 113.955 102.165 114.328V119H100.805V110.728ZM117.024 118.968C116.789 119.107 116.464 119.176 116.048 119.176C115.696 119.176 115.413 119.08 115.2 118.888C114.997 118.685 114.896 118.36 114.896 117.912C114.523 118.36 114.085 118.685 113.584 118.888C113.093 119.08 112.56 119.176 111.984 119.176C111.611 119.176 111.253 119.133 110.912 119.048C110.581 118.963 110.293 118.829 110.048 118.648C109.803 118.467 109.605 118.232 109.456 117.944C109.317 117.645 109.248 117.288 109.248 116.872C109.248 116.403 109.328 116.019 109.488 115.72C109.648 115.421 109.856 115.181 110.112 115C110.379 114.808 110.677 114.664 111.008 114.568C111.349 114.472 111.696 114.392 112.048 114.328C112.421 114.253 112.773 114.2 113.104 114.168C113.445 114.125 113.744 114.072 114 114.008C114.256 113.933 114.459 113.832 114.608 113.704C114.757 113.565 114.832 113.368 114.832 113.112C114.832 112.813 114.773 112.573 114.656 112.392C114.549 112.211 114.405 112.072 114.224 111.976C114.053 111.88 113.856 111.816 113.632 111.784C113.419 111.752 113.205 111.736 112.992 111.736C112.416 111.736 111.936 111.848 111.552 112.072C111.168 112.285 110.96 112.696 110.928 113.304H109.568C109.589 112.792 109.696 112.36 109.888 112.008C110.08 111.656 110.336 111.373 110.656 111.16C110.976 110.936 111.339 110.776 111.744 110.68C112.16 110.584 112.603 110.536 113.072 110.536C113.445 110.536 113.813 110.563 114.176 110.616C114.549 110.669 114.885 110.781 115.184 110.952C115.483 111.112 115.723 111.341 115.904 111.64C116.085 111.939 116.176 112.328 116.176 112.808V117.064C116.176 117.384 116.192 117.619 116.224 117.768C116.267 117.917 116.395 117.992 116.608 117.992C116.725 117.992 116.864 117.965 117.024 117.912V118.968ZM114.816 114.728C114.645 114.856 114.421 114.952 114.144 115.016C113.867 115.069 113.573 115.117 113.264 115.16C112.965 115.192 112.661 115.235 112.352 115.288C112.043 115.331 111.765 115.405 111.52 115.512C111.275 115.619 111.072 115.773 110.912 115.976C110.763 116.168 110.688 116.435 110.688 116.776C110.688 117 110.731 117.192 110.816 117.352C110.912 117.501 111.029 117.624 111.168 117.72C111.317 117.816 111.488 117.885 111.68 117.928C111.872 117.971 112.075 117.992 112.288 117.992C112.736 117.992 113.12 117.933 113.44 117.816C113.76 117.688 114.021 117.533 114.224 117.352C114.427 117.16 114.576 116.957 114.672 116.744C114.768 116.52 114.816 116.312 114.816 116.12V114.728ZM118.338 107.576H119.698V111.848H119.73C119.954 111.389 120.306 111.059 120.786 110.856C121.266 110.643 121.794 110.536 122.37 110.536C123.01 110.536 123.564 110.653 124.034 110.888C124.514 111.123 124.908 111.443 125.218 111.848C125.538 112.243 125.778 112.701 125.938 113.224C126.098 113.747 126.178 114.301 126.178 114.888C126.178 115.475 126.098 116.029 125.938 116.552C125.788 117.075 125.554 117.533 125.234 117.928C124.924 118.312 124.53 118.616 124.05 118.84C123.58 119.064 123.031 119.176 122.402 119.176C122.199 119.176 121.97 119.155 121.714 119.112C121.468 119.069 121.223 119 120.978 118.904C120.732 118.808 120.498 118.68 120.274 118.52C120.06 118.349 119.879 118.141 119.73 117.896H119.698V119H118.338V107.576ZM124.738 114.792C124.738 114.408 124.684 114.035 124.578 113.672C124.482 113.299 124.327 112.968 124.114 112.68C123.911 112.392 123.644 112.163 123.314 111.992C122.994 111.821 122.615 111.736 122.178 111.736C121.719 111.736 121.33 111.827 121.01 112.008C120.69 112.189 120.428 112.429 120.226 112.728C120.023 113.016 119.874 113.347 119.778 113.72C119.692 114.093 119.65 114.472 119.65 114.856C119.65 115.261 119.698 115.656 119.794 116.04C119.89 116.413 120.039 116.744 120.242 117.032C120.455 117.32 120.727 117.555 121.058 117.736C121.388 117.907 121.788 117.992 122.258 117.992C122.727 117.992 123.116 117.901 123.426 117.72C123.746 117.539 124.002 117.299 124.194 117C124.386 116.701 124.524 116.36 124.61 115.976C124.695 115.592 124.738 115.197 124.738 114.792ZM127.854 107.576H129.214V119H127.854V107.576ZM137.065 114.072C137.044 113.752 136.969 113.448 136.841 113.16C136.724 112.872 136.558 112.627 136.345 112.424C136.142 112.211 135.897 112.045 135.609 111.928C135.332 111.8 135.022 111.736 134.681 111.736C134.329 111.736 134.009 111.8 133.721 111.928C133.444 112.045 133.204 112.211 133.001 112.424C132.798 112.637 132.638 112.888 132.521 113.176C132.404 113.453 132.334 113.752 132.313 114.072H137.065ZM138.377 116.376C138.196 117.304 137.796 118.003 137.177 118.472C136.558 118.941 135.78 119.176 134.841 119.176C134.18 119.176 133.604 119.069 133.113 118.856C132.633 118.643 132.228 118.344 131.897 117.96C131.566 117.576 131.316 117.117 131.145 116.584C130.985 116.051 130.894 115.469 130.873 114.84C130.873 114.211 130.969 113.635 131.161 113.112C131.353 112.589 131.62 112.136 131.961 111.752C132.313 111.368 132.724 111.069 133.193 110.856C133.673 110.643 134.196 110.536 134.761 110.536C135.497 110.536 136.105 110.691 136.585 111C137.076 111.299 137.465 111.683 137.753 112.152C138.052 112.621 138.254 113.133 138.361 113.688C138.478 114.243 138.526 114.771 138.505 115.272H132.313C132.302 115.635 132.345 115.981 132.441 116.312C132.537 116.632 132.692 116.92 132.905 117.176C133.118 117.421 133.39 117.619 133.721 117.768C134.052 117.917 134.441 117.992 134.889 117.992C135.465 117.992 135.934 117.859 136.297 117.592C136.67 117.325 136.916 116.92 137.033 116.376H138.377ZM140.907 114.936C140.907 115.32 140.955 115.699 141.051 116.072C141.157 116.435 141.312 116.76 141.515 117.048C141.728 117.336 141.995 117.565 142.315 117.736C142.645 117.907 143.029 117.992 143.467 117.992C143.925 117.992 144.315 117.901 144.635 117.72C144.955 117.539 145.216 117.304 145.419 117.016C145.621 116.717 145.765 116.381 145.851 116.008C145.947 115.635 145.995 115.256 145.995 114.872C145.995 114.467 145.947 114.077 145.851 113.704C145.755 113.32 145.6 112.984 145.387 112.696C145.184 112.408 144.917 112.179 144.587 112.008C144.256 111.827 143.856 111.736 143.387 111.736C142.928 111.736 142.539 111.827 142.219 112.008C141.899 112.189 141.643 112.429 141.451 112.728C141.259 113.027 141.12 113.368 141.035 113.752C140.949 114.136 140.907 114.531 140.907 114.936ZM147.307 119H145.947V117.88H145.915C145.691 118.339 145.339 118.669 144.859 118.872C144.379 119.075 143.851 119.176 143.275 119.176C142.635 119.176 142.075 119.059 141.595 118.824C141.125 118.589 140.731 118.275 140.411 117.88C140.101 117.485 139.867 117.027 139.707 116.504C139.547 115.981 139.467 115.427 139.467 114.84C139.467 114.253 139.541 113.699 139.691 113.176C139.851 112.653 140.085 112.2 140.395 111.816C140.715 111.421 141.109 111.112 141.579 110.888C142.059 110.653 142.613 110.536 143.243 110.536C143.456 110.536 143.685 110.557 143.931 110.6C144.176 110.643 144.421 110.717 144.667 110.824C144.912 110.92 145.141 111.053 145.355 111.224C145.579 111.384 145.765 111.587 145.915 111.832H145.947V107.576H147.307V119Z" fill="black" fill-opacity="0.68"/>
<mask id="path-2-inside-1_65346_30705" fill="white">
<path d="M270 83.5H510V143.5H270V83.5Z"/>
</mask>
<path d="M270 83.5H510V143.5H270V83.5Z" fill="black" fill-opacity="0.04"/>
<path d="M510 143.5V142.5H270V143.5V144.5H510V143.5Z" fill="black" fill-opacity="0.2" mask="url(#path-2-inside-1_65346_30705)"/>
<path d="M287.248 108.076H288.768V118.22H294.816V119.5H287.248V108.076ZM303.443 119.468C303.208 119.607 302.883 119.676 302.467 119.676C302.115 119.676 301.832 119.58 301.619 119.388C301.416 119.185 301.315 118.86 301.315 118.412C300.941 118.86 300.504 119.185 300.003 119.388C299.512 119.58 298.979 119.676 298.403 119.676C298.029 119.676 297.672 119.633 297.331 119.548C297 119.463 296.712 119.329 296.467 119.148C296.221 118.967 296.024 118.732 295.875 118.444C295.736 118.145 295.667 117.788 295.667 117.372C295.667 116.903 295.747 116.519 295.907 116.22C296.067 115.921 296.275 115.681 296.531 115.5C296.797 115.308 297.096 115.164 297.427 115.068C297.768 114.972 298.115 114.892 298.467 114.828C298.84 114.753 299.192 114.7 299.523 114.668C299.864 114.625 300.163 114.572 300.419 114.508C300.675 114.433 300.877 114.332 301.027 114.204C301.176 114.065 301.251 113.868 301.251 113.612C301.251 113.313 301.192 113.073 301.075 112.892C300.968 112.711 300.824 112.572 300.643 112.476C300.472 112.38 300.275 112.316 300.051 112.284C299.837 112.252 299.624 112.236 299.411 112.236C298.835 112.236 298.355 112.348 297.971 112.572C297.587 112.785 297.379 113.196 297.347 113.804H295.987C296.008 113.292 296.115 112.86 296.307 112.508C296.499 112.156 296.755 111.873 297.075 111.66C297.395 111.436 297.757 111.276 298.163 111.18C298.579 111.084 299.021 111.036 299.491 111.036C299.864 111.036 300.232 111.063 300.595 111.116C300.968 111.169 301.304 111.281 301.603 111.452C301.901 111.612 302.141 111.841 302.323 112.14C302.504 112.439 302.595 112.828 302.595 113.308V117.564C302.595 117.884 302.611 118.119 302.643 118.268C302.685 118.417 302.813 118.492 303.027 118.492C303.144 118.492 303.283 118.465 303.443 118.412V119.468ZM301.235 115.228C301.064 115.356 300.84 115.452 300.563 115.516C300.285 115.569 299.992 115.617 299.683 115.66C299.384 115.692 299.08 115.735 298.771 115.788C298.461 115.831 298.184 115.905 297.939 116.012C297.693 116.119 297.491 116.273 297.331 116.476C297.181 116.668 297.107 116.935 297.107 117.276C297.107 117.5 297.149 117.692 297.235 117.852C297.331 118.001 297.448 118.124 297.587 118.22C297.736 118.316 297.907 118.385 298.099 118.428C298.291 118.471 298.493 118.492 298.707 118.492C299.155 118.492 299.539 118.433 299.859 118.316C300.179 118.188 300.44 118.033 300.643 117.852C300.845 117.66 300.995 117.457 301.091 117.244C301.187 117.02 301.235 116.812 301.235 116.62V115.228ZM304.956 108.076H306.316V112.348H306.348C306.572 111.889 306.924 111.559 307.404 111.356C307.884 111.143 308.412 111.036 308.988 111.036C309.628 111.036 310.183 111.153 310.652 111.388C311.132 111.623 311.527 111.943 311.836 112.348C312.156 112.743 312.396 113.201 312.556 113.724C312.716 114.247 312.796 114.801 312.796 115.388C312.796 115.975 312.716 116.529 312.556 117.052C312.407 117.575 312.172 118.033 311.852 118.428C311.543 118.812 311.148 119.116 310.668 119.34C310.199 119.564 309.65 119.676 309.02 119.676C308.818 119.676 308.588 119.655 308.332 119.612C308.087 119.569 307.842 119.5 307.596 119.404C307.351 119.308 307.116 119.18 306.892 119.02C306.679 118.849 306.498 118.641 306.348 118.396H306.316V119.5H304.956V108.076ZM311.356 115.292C311.356 114.908 311.303 114.535 311.196 114.172C311.1 113.799 310.946 113.468 310.732 113.18C310.53 112.892 310.263 112.663 309.932 112.492C309.612 112.321 309.234 112.236 308.796 112.236C308.338 112.236 307.948 112.327 307.628 112.508C307.308 112.689 307.047 112.929 306.844 113.228C306.642 113.516 306.492 113.847 306.396 114.22C306.311 114.593 306.268 114.972 306.268 115.356C306.268 115.761 306.316 116.156 306.412 116.54C306.508 116.913 306.658 117.244 306.86 117.532C307.074 117.82 307.346 118.055 307.676 118.236C308.007 118.407 308.407 118.492 308.876 118.492C309.346 118.492 309.735 118.401 310.044 118.22C310.364 118.039 310.62 117.799 310.812 117.5C311.004 117.201 311.143 116.86 311.228 116.476C311.314 116.092 311.356 115.697 311.356 115.292ZM320.337 114.572C320.315 114.252 320.241 113.948 320.113 113.66C319.995 113.372 319.83 113.127 319.617 112.924C319.414 112.711 319.169 112.545 318.881 112.428C318.603 112.3 318.294 112.236 317.953 112.236C317.601 112.236 317.281 112.3 316.993 112.428C316.715 112.545 316.475 112.711 316.273 112.924C316.07 113.137 315.91 113.388 315.793 113.676C315.675 113.953 315.606 114.252 315.585 114.572H320.337ZM321.649 116.876C321.467 117.804 321.067 118.503 320.449 118.972C319.83 119.441 319.051 119.676 318.113 119.676C317.451 119.676 316.875 119.569 316.385 119.356C315.905 119.143 315.499 118.844 315.169 118.46C314.838 118.076 314.587 117.617 314.417 117.084C314.257 116.551 314.166 115.969 314.145 115.34C314.145 114.711 314.241 114.135 314.433 113.612C314.625 113.089 314.891 112.636 315.233 112.252C315.585 111.868 315.995 111.569 316.465 111.356C316.945 111.143 317.467 111.036 318.033 111.036C318.769 111.036 319.377 111.191 319.857 111.5C320.347 111.799 320.737 112.183 321.025 112.652C321.323 113.121 321.526 113.633 321.633 114.188C321.75 114.743 321.798 115.271 321.777 115.772H315.585C315.574 116.135 315.617 116.481 315.713 116.812C315.809 117.132 315.963 117.42 316.177 117.676C316.39 117.921 316.662 118.119 316.993 118.268C317.323 118.417 317.713 118.492 318.161 118.492C318.737 118.492 319.206 118.359 319.569 118.092C319.942 117.825 320.187 117.42 320.305 116.876H321.649ZM323.466 108.076H324.826V119.5H323.466V108.076Z" fill="black" fill-opacity="0.68"/>
<path d="M91.248 217.576H92.768V222.488H98.784V217.576H100.304V229H98.784V223.768H92.768V229H91.248V217.576ZM103.563 224.872C103.563 225.373 103.627 225.821 103.755 226.216C103.894 226.6 104.08 226.925 104.315 227.192C104.55 227.448 104.822 227.645 105.131 227.784C105.451 227.923 105.787 227.992 106.139 227.992C106.491 227.992 106.822 227.923 107.131 227.784C107.451 227.645 107.728 227.448 107.963 227.192C108.198 226.925 108.379 226.6 108.507 226.216C108.646 225.821 108.715 225.373 108.715 224.872C108.715 224.371 108.646 223.928 108.507 223.544C108.379 223.149 108.198 222.819 107.963 222.552C107.728 222.285 107.451 222.083 107.131 221.944C106.822 221.805 106.491 221.736 106.139 221.736C105.787 221.736 105.451 221.805 105.131 221.944C104.822 222.083 104.55 222.285 104.315 222.552C104.08 222.819 103.894 223.149 103.755 223.544C103.627 223.928 103.563 224.371 103.563 224.872ZM102.123 224.872C102.123 224.264 102.208 223.699 102.379 223.176C102.55 222.643 102.806 222.184 103.147 221.8C103.488 221.405 103.91 221.096 104.411 220.872C104.912 220.648 105.488 220.536 106.139 220.536C106.8 220.536 107.376 220.648 107.867 220.872C108.368 221.096 108.79 221.405 109.131 221.8C109.472 222.184 109.728 222.643 109.899 223.176C110.07 223.699 110.155 224.264 110.155 224.872C110.155 225.48 110.07 226.045 109.899 226.568C109.728 227.091 109.472 227.549 109.131 227.944C108.79 228.328 108.368 228.632 107.867 228.856C107.376 229.069 106.8 229.176 106.139 229.176C105.488 229.176 104.912 229.069 104.411 228.856C103.91 228.632 103.488 228.328 103.147 227.944C102.806 227.549 102.55 227.091 102.379 226.568C102.208 226.045 102.123 225.48 102.123 224.872ZM115.486 229H114.03L110.958 220.728H112.478L114.798 227.624H114.83L117.086 220.728H118.51L115.486 229ZM125.502 224.072C125.481 223.752 125.406 223.448 125.278 223.16C125.161 222.872 124.996 222.627 124.782 222.424C124.58 222.211 124.334 222.045 124.046 221.928C123.769 221.8 123.46 221.736 123.118 221.736C122.766 221.736 122.446 221.8 122.158 221.928C121.881 222.045 121.641 222.211 121.438 222.424C121.236 222.637 121.076 222.888 120.958 223.176C120.841 223.453 120.772 223.752 120.75 224.072H125.502ZM126.814 226.376C126.633 227.304 126.233 228.003 125.614 228.472C124.996 228.941 124.217 229.176 123.278 229.176C122.617 229.176 122.041 229.069 121.55 228.856C121.07 228.643 120.665 228.344 120.334 227.96C120.004 227.576 119.753 227.117 119.582 226.584C119.422 226.051 119.332 225.469 119.31 224.84C119.31 224.211 119.406 223.635 119.598 223.112C119.79 222.589 120.057 222.136 120.398 221.752C120.75 221.368 121.161 221.069 121.63 220.856C122.11 220.643 122.633 220.536 123.198 220.536C123.934 220.536 124.542 220.691 125.022 221C125.513 221.299 125.902 221.683 126.19 222.152C126.489 222.621 126.692 223.133 126.798 223.688C126.916 224.243 126.964 224.771 126.942 225.272H120.75C120.74 225.635 120.782 225.981 120.878 226.312C120.974 226.632 121.129 226.92 121.342 227.176C121.556 227.421 121.828 227.619 122.158 227.768C122.489 227.917 122.878 227.992 123.326 227.992C123.902 227.992 124.372 227.859 124.734 227.592C125.108 227.325 125.353 226.92 125.47 226.376H126.814ZM128.304 220.728H129.584V222.472H129.616C129.947 221.8 130.352 221.304 130.832 220.984C131.312 220.664 131.92 220.515 132.656 220.536V221.976C132.112 221.976 131.648 222.051 131.264 222.2C130.88 222.349 130.571 222.568 130.336 222.856C130.101 223.144 129.931 223.496 129.824 223.912C129.717 224.317 129.664 224.787 129.664 225.32V229H128.304V220.728Z" fill="black" fill-opacity="0.68"/>
<mask id="path-6-inside-2_65346_30705" fill="white">
<path d="M270 193.5H510V253.5H270V193.5Z"/>
</mask>
<path d="M270 193.5H510V253.5H270V193.5Z" fill="black" fill-opacity="0.08"/>
<path d="M510 253.5V252.5H270V253.5V254.5H510V253.5Z" fill="black" fill-opacity="0.68" mask="url(#path-6-inside-2_65346_30705)"/>
<path d="M287.248 218.076H288.768V228.22H294.816V229.5H287.248V218.076ZM303.443 229.468C303.208 229.607 302.883 229.676 302.467 229.676C302.115 229.676 301.832 229.58 301.619 229.388C301.416 229.185 301.315 228.86 301.315 228.412C300.941 228.86 300.504 229.185 300.003 229.388C299.512 229.58 298.979 229.676 298.403 229.676C298.029 229.676 297.672 229.633 297.331 229.548C297 229.463 296.712 229.329 296.467 229.148C296.221 228.967 296.024 228.732 295.875 228.444C295.736 228.145 295.667 227.788 295.667 227.372C295.667 226.903 295.747 226.519 295.907 226.22C296.067 225.921 296.275 225.681 296.531 225.5C296.797 225.308 297.096 225.164 297.427 225.068C297.768 224.972 298.115 224.892 298.467 224.828C298.84 224.753 299.192 224.7 299.523 224.668C299.864 224.625 300.163 224.572 300.419 224.508C300.675 224.433 300.877 224.332 301.027 224.204C301.176 224.065 301.251 223.868 301.251 223.612C301.251 223.313 301.192 223.073 301.075 222.892C300.968 222.711 300.824 222.572 300.643 222.476C300.472 222.38 300.275 222.316 300.051 222.284C299.837 222.252 299.624 222.236 299.411 222.236C298.835 222.236 298.355 222.348 297.971 222.572C297.587 222.785 297.379 223.196 297.347 223.804H295.987C296.008 223.292 296.115 222.86 296.307 222.508C296.499 222.156 296.755 221.873 297.075 221.66C297.395 221.436 297.757 221.276 298.163 221.18C298.579 221.084 299.021 221.036 299.491 221.036C299.864 221.036 300.232 221.063 300.595 221.116C300.968 221.169 301.304 221.281 301.603 221.452C301.901 221.612 302.141 221.841 302.323 222.14C302.504 222.439 302.595 222.828 302.595 223.308V227.564C302.595 227.884 302.611 228.119 302.643 228.268C302.685 228.417 302.813 228.492 303.027 228.492C303.144 228.492 303.283 228.465 303.443 228.412V229.468ZM301.235 225.228C301.064 225.356 300.84 225.452 300.563 225.516C300.285 225.569 299.992 225.617 299.683 225.66C299.384 225.692 299.08 225.735 298.771 225.788C298.461 225.831 298.184 225.905 297.939 226.012C297.693 226.119 297.491 226.273 297.331 226.476C297.181 226.668 297.107 226.935 297.107 227.276C297.107 227.5 297.149 227.692 297.235 227.852C297.331 228.001 297.448 228.124 297.587 228.22C297.736 228.316 297.907 228.385 298.099 228.428C298.291 228.471 298.493 228.492 298.707 228.492C299.155 228.492 299.539 228.433 299.859 228.316C300.179 228.188 300.44 228.033 300.643 227.852C300.845 227.66 300.995 227.457 301.091 227.244C301.187 227.02 301.235 226.812 301.235 226.62V225.228ZM304.956 218.076H306.316V222.348H306.348C306.572 221.889 306.924 221.559 307.404 221.356C307.884 221.143 308.412 221.036 308.988 221.036C309.628 221.036 310.183 221.153 310.652 221.388C311.132 221.623 311.527 221.943 311.836 222.348C312.156 222.743 312.396 223.201 312.556 223.724C312.716 224.247 312.796 224.801 312.796 225.388C312.796 225.975 312.716 226.529 312.556 227.052C312.407 227.575 312.172 228.033 311.852 228.428C311.543 228.812 311.148 229.116 310.668 229.34C310.199 229.564 309.65 229.676 309.02 229.676C308.818 229.676 308.588 229.655 308.332 229.612C308.087 229.569 307.842 229.5 307.596 229.404C307.351 229.308 307.116 229.18 306.892 229.02C306.679 228.849 306.498 228.641 306.348 228.396H306.316V229.5H304.956V218.076ZM311.356 225.292C311.356 224.908 311.303 224.535 311.196 224.172C311.1 223.799 310.946 223.468 310.732 223.18C310.53 222.892 310.263 222.663 309.932 222.492C309.612 222.321 309.234 222.236 308.796 222.236C308.338 222.236 307.948 222.327 307.628 222.508C307.308 222.689 307.047 222.929 306.844 223.228C306.642 223.516 306.492 223.847 306.396 224.22C306.311 224.593 306.268 224.972 306.268 225.356C306.268 225.761 306.316 226.156 306.412 226.54C306.508 226.913 306.658 227.244 306.86 227.532C307.074 227.82 307.346 228.055 307.676 228.236C308.007 228.407 308.407 228.492 308.876 228.492C309.346 228.492 309.735 228.401 310.044 228.22C310.364 228.039 310.62 227.799 310.812 227.5C311.004 227.201 311.143 226.86 311.228 226.476C311.314 226.092 311.356 225.697 311.356 225.292ZM320.337 224.572C320.315 224.252 320.241 223.948 320.113 223.66C319.995 223.372 319.83 223.127 319.617 222.924C319.414 222.711 319.169 222.545 318.881 222.428C318.603 222.3 318.294 222.236 317.953 222.236C317.601 222.236 317.281 222.3 316.993 222.428C316.715 222.545 316.475 222.711 316.273 222.924C316.07 223.137 315.91 223.388 315.793 223.676C315.675 223.953 315.606 224.252 315.585 224.572H320.337ZM321.649 226.876C321.467 227.804 321.067 228.503 320.449 228.972C319.83 229.441 319.051 229.676 318.113 229.676C317.451 229.676 316.875 229.569 316.385 229.356C315.905 229.143 315.499 228.844 315.169 228.46C314.838 228.076 314.587 227.617 314.417 227.084C314.257 226.551 314.166 225.969 314.145 225.34C314.145 224.711 314.241 224.135 314.433 223.612C314.625 223.089 314.891 222.636 315.233 222.252C315.585 221.868 315.995 221.569 316.465 221.356C316.945 221.143 317.467 221.036 318.033 221.036C318.769 221.036 319.377 221.191 319.857 221.5C320.347 221.799 320.737 222.183 321.025 222.652C321.323 223.121 321.526 223.633 321.633 224.188C321.75 224.743 321.798 225.271 321.777 225.772H315.585C315.574 226.135 315.617 226.481 315.713 226.812C315.809 227.132 315.963 227.42 316.177 227.676C316.39 227.921 316.662 228.119 316.993 228.268C317.323 228.417 317.713 228.492 318.161 228.492C318.737 228.492 319.206 228.359 319.569 228.092C319.942 227.825 320.187 227.42 320.305 226.876H321.649ZM323.466 218.076H324.826V229.5H323.466V218.076Z" fill="black" fill-opacity="0.68"/>
<path d="M91.248 327.576H98.752V328.856H92.768V332.488H98.016V333.768H92.768V339H91.248V327.576ZM101.204 334.872C101.204 335.373 101.268 335.821 101.396 336.216C101.534 336.6 101.721 336.925 101.956 337.192C102.19 337.448 102.462 337.645 102.772 337.784C103.092 337.923 103.428 337.992 103.78 337.992C104.132 337.992 104.462 337.923 104.772 337.784C105.092 337.645 105.369 337.448 105.604 337.192C105.838 336.925 106.02 336.6 106.148 336.216C106.286 335.821 106.356 335.373 106.356 334.872C106.356 334.371 106.286 333.928 106.148 333.544C106.02 333.149 105.838 332.819 105.604 332.552C105.369 332.285 105.092 332.083 104.772 331.944C104.462 331.805 104.132 331.736 103.78 331.736C103.428 331.736 103.092 331.805 102.772 331.944C102.462 332.083 102.19 332.285 101.956 332.552C101.721 332.819 101.534 333.149 101.396 333.544C101.268 333.928 101.204 334.371 101.204 334.872ZM99.7635 334.872C99.7635 334.264 99.8488 333.699 100.02 333.176C100.19 332.643 100.446 332.184 100.788 331.8C101.129 331.405 101.55 331.096 102.052 330.872C102.553 330.648 103.129 330.536 103.78 330.536C104.441 330.536 105.017 330.648 105.508 330.872C106.009 331.096 106.43 331.405 106.772 331.8C107.113 332.184 107.369 332.643 107.54 333.176C107.71 333.699 107.796 334.264 107.796 334.872C107.796 335.48 107.71 336.045 107.54 336.568C107.369 337.091 107.113 337.549 106.772 337.944C106.43 338.328 106.009 338.632 105.508 338.856C105.017 339.069 104.441 339.176 103.78 339.176C103.129 339.176 102.553 339.069 102.052 338.856C101.55 338.632 101.129 338.328 100.788 337.944C100.446 337.549 100.19 337.091 100.02 336.568C99.8488 336.045 99.7635 335.48 99.7635 334.872ZM115.015 333.384C114.908 332.861 114.684 332.456 114.343 332.168C114.002 331.88 113.543 331.736 112.967 331.736C112.476 331.736 112.066 331.827 111.735 332.008C111.404 332.189 111.138 332.429 110.935 332.728C110.743 333.027 110.604 333.373 110.519 333.768C110.434 334.152 110.391 334.552 110.391 334.968C110.391 335.352 110.434 335.725 110.519 336.088C110.615 336.451 110.759 336.776 110.951 337.064C111.143 337.341 111.394 337.565 111.703 337.736C112.012 337.907 112.38 337.992 112.807 337.992C113.479 337.992 114.002 337.816 114.375 337.464C114.759 337.112 114.994 336.616 115.079 335.976H116.471C116.322 337 115.938 337.789 115.319 338.344C114.711 338.899 113.879 339.176 112.823 339.176C112.194 339.176 111.634 339.075 111.143 338.872C110.663 338.669 110.258 338.381 109.927 338.008C109.607 337.635 109.362 337.192 109.191 336.68C109.031 336.157 108.951 335.587 108.951 334.968C108.951 334.349 109.031 333.773 109.191 333.24C109.351 332.696 109.591 332.227 109.911 331.832C110.242 331.427 110.652 331.112 111.143 330.888C111.634 330.653 112.204 330.536 112.855 330.536C113.324 330.536 113.762 330.595 114.167 330.712C114.583 330.819 114.946 330.989 115.255 331.224C115.575 331.459 115.836 331.757 116.039 332.12C116.242 332.472 116.37 332.893 116.423 333.384H115.015ZM124.841 339H123.561V337.688H123.529C123.241 338.2 122.873 338.579 122.425 338.824C121.977 339.059 121.449 339.176 120.841 339.176C120.297 339.176 119.843 339.107 119.481 338.968C119.118 338.819 118.825 338.611 118.601 338.344C118.377 338.077 118.217 337.763 118.121 337.4C118.035 337.027 117.993 336.616 117.993 336.168V330.728H119.353V336.328C119.353 336.84 119.502 337.245 119.801 337.544C120.099 337.843 120.51 337.992 121.033 337.992C121.449 337.992 121.806 337.928 122.105 337.8C122.414 337.672 122.67 337.491 122.873 337.256C123.075 337.021 123.225 336.749 123.321 336.44C123.427 336.12 123.481 335.773 123.481 335.4V330.728H124.841V339ZM127.715 336.392C127.726 336.691 127.795 336.947 127.923 337.16C128.051 337.363 128.217 337.528 128.419 337.656C128.633 337.773 128.867 337.859 129.123 337.912C129.39 337.965 129.662 337.992 129.939 337.992C130.153 337.992 130.377 337.976 130.611 337.944C130.846 337.912 131.059 337.853 131.251 337.768C131.454 337.683 131.619 337.56 131.747 337.4C131.875 337.229 131.939 337.016 131.939 336.76C131.939 336.408 131.806 336.141 131.539 335.96C131.273 335.779 130.937 335.635 130.531 335.528C130.137 335.411 129.705 335.309 129.235 335.224C128.766 335.128 128.329 335 127.923 334.84C127.529 334.669 127.198 334.435 126.931 334.136C126.665 333.837 126.531 333.421 126.531 332.888C126.531 332.472 126.622 332.115 126.803 331.816C126.995 331.517 127.235 331.277 127.523 331.096C127.822 330.904 128.153 330.765 128.515 330.68C128.889 330.584 129.257 330.536 129.619 330.536C130.089 330.536 130.521 330.579 130.915 330.664C131.31 330.739 131.657 330.877 131.955 331.08C132.265 331.272 132.51 331.539 132.691 331.88C132.873 332.211 132.979 332.627 133.011 333.128H131.651C131.63 332.861 131.561 332.643 131.443 332.472C131.326 332.291 131.177 332.147 130.995 332.04C130.814 331.933 130.611 331.859 130.387 331.816C130.174 331.763 129.955 331.736 129.731 331.736C129.529 331.736 129.321 331.752 129.107 331.784C128.905 331.816 128.718 331.875 128.547 331.96C128.377 332.035 128.238 332.141 128.131 332.28C128.025 332.408 127.971 332.579 127.971 332.792C127.971 333.027 128.051 333.224 128.211 333.384C128.382 333.533 128.595 333.661 128.851 333.768C129.107 333.864 129.395 333.949 129.715 334.024C130.035 334.088 130.355 334.157 130.675 334.232C131.017 334.307 131.347 334.397 131.667 334.504C131.998 334.611 132.286 334.755 132.531 334.936C132.787 335.107 132.99 335.325 133.139 335.592C133.299 335.859 133.379 336.189 133.379 336.584C133.379 337.085 133.273 337.501 133.059 337.832C132.857 338.163 132.585 338.429 132.243 338.632C131.913 338.835 131.534 338.973 131.107 339.048C130.691 339.133 130.275 339.176 129.859 339.176C129.401 339.176 128.963 339.128 128.547 339.032C128.131 338.936 127.763 338.781 127.443 338.568C127.123 338.344 126.867 338.056 126.675 337.704C126.483 337.341 126.377 336.904 126.355 336.392H127.715Z" fill="black" fill-opacity="0.68"/>
<mask id="path-10-inside-3_65346_30705" fill="white">
<path d="M270 303.5H510V363.5H270V303.5Z"/>
</mask>
<path d="M270 303.5H510V363.5H270V303.5Z" fill="black" fill-opacity="0.12"/>
<path d="M510 363.5V361.5H270V363.5V365.5H510V363.5Z" fill="black" mask="url(#path-10-inside-3_65346_30705)"/>
<path d="M286.936 316.932H288.076V324.54H292.612V325.5H286.936V316.932ZM299.112 325.476C298.936 325.58 298.692 325.632 298.38 325.632C298.116 325.632 297.904 325.56 297.744 325.416C297.592 325.264 297.516 325.02 297.516 324.684C297.236 325.02 296.908 325.264 296.532 325.416C296.164 325.56 295.764 325.632 295.332 325.632C295.052 325.632 294.784 325.6 294.528 325.536C294.28 325.472 294.064 325.372 293.88 325.236C293.696 325.1 293.548 324.924 293.436 324.708C293.332 324.484 293.28 324.216 293.28 323.904C293.28 323.552 293.34 323.264 293.46 323.04C293.58 322.816 293.736 322.636 293.928 322.5C294.128 322.356 294.352 322.248 294.6 322.176C294.856 322.104 295.116 322.044 295.38 321.996C295.66 321.94 295.924 321.9 296.172 321.876C296.428 321.844 296.652 321.804 296.844 321.756C297.036 321.7 297.188 321.624 297.3 321.528C297.412 321.424 297.468 321.276 297.468 321.084C297.468 320.86 297.424 320.68 297.336 320.544C297.256 320.408 297.148 320.304 297.012 320.232C296.884 320.16 296.736 320.112 296.568 320.088C296.408 320.064 296.248 320.052 296.088 320.052C295.656 320.052 295.296 320.136 295.008 320.304C294.72 320.464 294.564 320.772 294.54 321.228H293.52C293.536 320.844 293.616 320.52 293.76 320.256C293.904 319.992 294.096 319.78 294.336 319.62C294.576 319.452 294.848 319.332 295.152 319.26C295.464 319.188 295.796 319.152 296.148 319.152C296.428 319.152 296.704 319.172 296.976 319.212C297.256 319.252 297.508 319.336 297.732 319.464C297.956 319.584 298.136 319.756 298.272 319.98C298.408 320.204 298.476 320.496 298.476 320.856V324.048C298.476 324.288 298.488 324.464 298.512 324.576C298.544 324.688 298.64 324.744 298.8 324.744C298.888 324.744 298.992 324.724 299.112 324.684V325.476ZM297.456 322.296C297.328 322.392 297.16 322.464 296.952 322.512C296.744 322.552 296.524 322.588 296.292 322.62C296.068 322.644 295.84 322.676 295.608 322.716C295.376 322.748 295.168 322.804 294.984 322.884C294.8 322.964 294.648 323.08 294.528 323.232C294.416 323.376 294.36 323.576 294.36 323.832C294.36 324 294.392 324.144 294.456 324.264C294.528 324.376 294.616 324.468 294.72 324.54C294.832 324.612 294.96 324.664 295.104 324.696C295.248 324.728 295.4 324.744 295.56 324.744C295.896 324.744 296.184 324.7 296.424 324.612C296.664 324.516 296.86 324.4 297.012 324.264C297.164 324.12 297.276 323.968 297.348 323.808C297.42 323.64 297.456 323.484 297.456 323.34V322.296ZM300.277 316.932H301.297V320.136H301.321C301.489 319.792 301.753 319.544 302.113 319.392C302.473 319.232 302.869 319.152 303.301 319.152C303.781 319.152 304.197 319.24 304.549 319.416C304.909 319.592 305.205 319.832 305.437 320.136C305.677 320.432 305.857 320.776 305.977 321.168C306.097 321.56 306.157 321.976 306.157 322.416C306.157 322.856 306.097 323.272 305.977 323.664C305.865 324.056 305.689 324.4 305.449 324.696C305.217 324.984 304.921 325.212 304.561 325.38C304.209 325.548 303.797 325.632 303.325 325.632C303.173 325.632 303.001 325.616 302.809 325.584C302.625 325.552 302.441 325.5 302.257 325.428C302.073 325.356 301.897 325.26 301.729 325.14C301.569 325.012 301.433 324.856 301.321 324.672H301.297V325.5H300.277V316.932ZM305.077 322.344C305.077 322.056 305.037 321.776 304.957 321.504C304.885 321.224 304.769 320.976 304.609 320.76C304.457 320.544 304.257 320.372 304.009 320.244C303.769 320.116 303.485 320.052 303.157 320.052C302.813 320.052 302.521 320.12 302.281 320.256C302.041 320.392 301.845 320.572 301.693 320.796C301.541 321.012 301.429 321.26 301.357 321.54C301.293 321.82 301.261 322.104 301.261 322.392C301.261 322.696 301.297 322.992 301.369 323.28C301.441 323.56 301.553 323.808 301.705 324.024C301.865 324.24 302.069 324.416 302.317 324.552C302.565 324.68 302.865 324.744 303.217 324.744C303.569 324.744 303.861 324.676 304.093 324.54C304.333 324.404 304.525 324.224 304.669 324C304.813 323.776 304.917 323.52 304.981 323.232C305.045 322.944 305.077 322.648 305.077 322.344ZM311.843 321.804C311.827 321.564 311.771 321.336 311.675 321.12C311.587 320.904 311.463 320.72 311.303 320.568C311.151 320.408 310.967 320.284 310.751 320.196C310.543 320.1 310.311 320.052 310.055 320.052C309.791 320.052 309.551 320.1 309.335 320.196C309.127 320.284 308.947 320.408 308.795 320.568C308.643 320.728 308.523 320.916 308.435 321.132C308.347 321.34 308.295 321.564 308.279 321.804H311.843ZM312.827 323.532C312.691 324.228 312.391 324.752 311.927 325.104C311.463 325.456 310.879 325.632 310.175 325.632C309.679 325.632 309.247 325.552 308.879 325.392C308.519 325.232 308.215 325.008 307.967 324.72C307.719 324.432 307.531 324.088 307.403 323.688C307.283 323.288 307.215 322.852 307.199 322.38C307.199 321.908 307.271 321.476 307.415 321.084C307.559 320.692 307.759 320.352 308.015 320.064C308.279 319.776 308.587 319.552 308.939 319.392C309.299 319.232 309.691 319.152 310.115 319.152C310.667 319.152 311.123 319.268 311.483 319.5C311.851 319.724 312.143 320.012 312.359 320.364C312.583 320.716 312.735 321.1 312.815 321.516C312.903 321.932 312.939 322.328 312.923 322.704H308.279C308.271 322.976 308.303 323.236 308.375 323.484C308.447 323.724 308.563 323.94 308.723 324.132C308.883 324.316 309.087 324.464 309.335 324.576C309.583 324.688 309.875 324.744 310.211 324.744C310.643 324.744 310.995 324.644 311.267 324.444C311.547 324.244 311.731 323.94 311.819 323.532H312.827ZM314.22 316.932H315.24V325.5H314.22V316.932Z" fill="black" fill-opacity="0.68"/>
<path d="M287.459 334.924H288.547V350.908H287.459V334.924Z" fill="black"/>
<path d="M91.248 437.576H92.768V447.72H98.816V449H91.248V437.576ZM100.907 444.872C100.907 445.373 100.971 445.821 101.099 446.216C101.237 446.6 101.424 446.925 101.659 447.192C101.893 447.448 102.165 447.645 102.475 447.784C102.795 447.923 103.131 447.992 103.483 447.992C103.835 447.992 104.165 447.923 104.475 447.784C104.795 447.645 105.072 447.448 105.307 447.192C105.541 446.925 105.723 446.6 105.851 446.216C105.989 445.821 106.059 445.373 106.059 444.872C106.059 444.371 105.989 443.928 105.851 443.544C105.723 443.149 105.541 442.819 105.307 442.552C105.072 442.285 104.795 442.083 104.475 441.944C104.165 441.805 103.835 441.736 103.483 441.736C103.131 441.736 102.795 441.805 102.475 441.944C102.165 442.083 101.893 442.285 101.659 442.552C101.424 442.819 101.237 443.149 101.099 443.544C100.971 443.928 100.907 444.371 100.907 444.872ZM99.4666 444.872C99.4666 444.264 99.552 443.699 99.7226 443.176C99.8933 442.643 100.149 442.184 100.491 441.8C100.832 441.405 101.253 441.096 101.755 440.872C102.256 440.648 102.832 440.536 103.483 440.536C104.144 440.536 104.72 440.648 105.211 440.872C105.712 441.096 106.133 441.405 106.475 441.8C106.816 442.184 107.072 442.643 107.243 443.176C107.413 443.699 107.499 444.264 107.499 444.872C107.499 445.48 107.413 446.045 107.243 446.568C107.072 447.091 106.816 447.549 106.475 447.944C106.133 448.328 105.712 448.632 105.211 448.856C104.72 449.069 104.144 449.176 103.483 449.176C102.832 449.176 102.256 449.069 101.755 448.856C101.253 448.632 100.832 448.328 100.491 447.944C100.149 447.549 99.8933 447.091 99.7226 446.568C99.552 446.045 99.4666 445.48 99.4666 444.872ZM116.43 448.968C116.195 449.107 115.87 449.176 115.454 449.176C115.102 449.176 114.819 449.08 114.606 448.888C114.403 448.685 114.302 448.36 114.302 447.912C113.929 448.36 113.491 448.685 112.99 448.888C112.499 449.08 111.966 449.176 111.39 449.176C111.017 449.176 110.659 449.133 110.318 449.048C109.987 448.963 109.699 448.829 109.454 448.648C109.209 448.467 109.011 448.232 108.862 447.944C108.723 447.645 108.654 447.288 108.654 446.872C108.654 446.403 108.734 446.019 108.894 445.72C109.054 445.421 109.262 445.181 109.518 445C109.785 444.808 110.083 444.664 110.414 444.568C110.755 444.472 111.102 444.392 111.454 444.328C111.827 444.253 112.179 444.2 112.51 444.168C112.851 444.125 113.15 444.072 113.406 444.008C113.662 443.933 113.865 443.832 114.014 443.704C114.163 443.565 114.238 443.368 114.238 443.112C114.238 442.813 114.179 442.573 114.062 442.392C113.955 442.211 113.811 442.072 113.63 441.976C113.459 441.88 113.262 441.816 113.038 441.784C112.825 441.752 112.611 441.736 112.398 441.736C111.822 441.736 111.342 441.848 110.958 442.072C110.574 442.285 110.366 442.696 110.334 443.304H108.974C108.995 442.792 109.102 442.36 109.294 442.008C109.486 441.656 109.742 441.373 110.062 441.16C110.382 440.936 110.745 440.776 111.15 440.68C111.566 440.584 112.009 440.536 112.478 440.536C112.851 440.536 113.219 440.563 113.582 440.616C113.955 440.669 114.291 440.781 114.59 440.952C114.889 441.112 115.129 441.341 115.31 441.64C115.491 441.939 115.582 442.328 115.582 442.808V447.064C115.582 447.384 115.598 447.619 115.63 447.768C115.673 447.917 115.801 447.992 116.014 447.992C116.131 447.992 116.27 447.965 116.43 447.912V448.968ZM114.222 444.728C114.051 444.856 113.827 444.952 113.55 445.016C113.273 445.069 112.979 445.117 112.67 445.16C112.371 445.192 112.067 445.235 111.758 445.288C111.449 445.331 111.171 445.405 110.926 445.512C110.681 445.619 110.478 445.773 110.318 445.976C110.169 446.168 110.094 446.435 110.094 446.776C110.094 447 110.137 447.192 110.222 447.352C110.318 447.501 110.435 447.624 110.574 447.72C110.723 447.816 110.894 447.885 111.086 447.928C111.278 447.971 111.481 447.992 111.694 447.992C112.142 447.992 112.526 447.933 112.846 447.816C113.166 447.688 113.427 447.533 113.63 447.352C113.833 447.16 113.982 446.957 114.078 446.744C114.174 446.52 114.222 446.312 114.222 446.12V444.728ZM118.688 444.936C118.688 445.32 118.736 445.699 118.832 446.072C118.939 446.435 119.093 446.76 119.296 447.048C119.509 447.336 119.776 447.565 120.096 447.736C120.427 447.907 120.811 447.992 121.248 447.992C121.707 447.992 122.096 447.901 122.416 447.72C122.736 447.539 122.997 447.304 123.2 447.016C123.403 446.717 123.547 446.381 123.632 446.008C123.728 445.635 123.776 445.256 123.776 444.872C123.776 444.467 123.728 444.077 123.632 443.704C123.536 443.32 123.381 442.984 123.168 442.696C122.965 442.408 122.699 442.179 122.368 442.008C122.037 441.827 121.637 441.736 121.168 441.736C120.709 441.736 120.32 441.827 120 442.008C119.68 442.189 119.424 442.429 119.232 442.728C119.04 443.027 118.901 443.368 118.816 443.752C118.731 444.136 118.688 444.531 118.688 444.936ZM125.088 449H123.728V447.88H123.696C123.472 448.339 123.12 448.669 122.64 448.872C122.16 449.075 121.632 449.176 121.056 449.176C120.416 449.176 119.856 449.059 119.376 448.824C118.907 448.589 118.512 448.275 118.192 447.88C117.883 447.485 117.648 447.027 117.488 446.504C117.328 445.981 117.248 445.427 117.248 444.84C117.248 444.253 117.323 443.699 117.472 443.176C117.632 442.653 117.867 442.2 118.176 441.816C118.496 441.421 118.891 441.112 119.36 440.888C119.84 440.653 120.395 440.536 121.024 440.536C121.237 440.536 121.467 440.557 121.712 440.6C121.957 440.643 122.203 440.717 122.448 440.824C122.693 440.92 122.923 441.053 123.136 441.224C123.36 441.384 123.547 441.587 123.696 441.832H123.728V437.576H125.088V449ZM128.62 439.24H127.26V437.576H128.62V439.24ZM127.26 440.728H128.62V449H127.26V440.728ZM130.727 440.728H132.007V442.04H132.039C132.604 441.037 133.5 440.536 134.727 440.536C135.271 440.536 135.724 440.611 136.087 440.76C136.45 440.909 136.743 441.117 136.967 441.384C137.191 441.651 137.346 441.971 137.431 442.344C137.527 442.707 137.575 443.112 137.575 443.56V449H136.215V443.4C136.215 442.888 136.066 442.483 135.767 442.184C135.468 441.885 135.058 441.736 134.535 441.736C134.119 441.736 133.756 441.8 133.447 441.928C133.148 442.056 132.898 442.237 132.695 442.472C132.492 442.707 132.338 442.984 132.231 443.304C132.135 443.613 132.087 443.955 132.087 444.328V449H130.727V440.728ZM146.754 448.296C146.754 449.651 146.444 450.664 145.826 451.336C145.207 452.008 144.236 452.344 142.914 452.344C142.53 452.344 142.135 452.301 141.73 452.216C141.335 452.131 140.972 451.992 140.642 451.8C140.322 451.608 140.055 451.357 139.842 451.048C139.628 450.739 139.511 450.36 139.49 449.912H140.85C140.86 450.157 140.935 450.365 141.074 450.536C141.223 450.707 141.399 450.845 141.602 450.952C141.815 451.059 142.044 451.133 142.29 451.176C142.535 451.229 142.77 451.256 142.994 451.256C143.442 451.256 143.82 451.176 144.13 451.016C144.439 450.867 144.695 450.653 144.898 450.376C145.1 450.109 145.244 449.784 145.33 449.4C145.426 449.016 145.474 448.595 145.474 448.136V447.592H145.442C145.207 448.104 144.85 448.483 144.37 448.728C143.9 448.963 143.399 449.08 142.866 449.08C142.247 449.08 141.708 448.968 141.25 448.744C140.791 448.52 140.407 448.221 140.098 447.848C139.788 447.464 139.554 447.021 139.394 446.52C139.244 446.008 139.17 445.469 139.17 444.904C139.17 444.413 139.234 443.912 139.362 443.4C139.49 442.877 139.703 442.408 140.002 441.992C140.3 441.565 140.695 441.219 141.186 440.952C141.676 440.675 142.279 440.536 142.994 440.536C143.516 440.536 143.996 440.653 144.434 440.888C144.871 441.112 145.212 441.453 145.458 441.912H145.474V440.728H146.754V448.296ZM142.946 447.896C143.394 447.896 143.772 447.805 144.082 447.624C144.402 447.432 144.658 447.187 144.85 446.888C145.042 446.579 145.18 446.232 145.266 445.848C145.362 445.464 145.41 445.08 145.41 444.696C145.41 444.333 145.367 443.976 145.282 443.624C145.196 443.272 145.058 442.957 144.866 442.68C144.684 442.392 144.444 442.163 144.146 441.992C143.847 441.821 143.484 441.736 143.058 441.736C142.62 441.736 142.247 441.821 141.938 441.992C141.628 442.152 141.372 442.371 141.17 442.648C140.978 442.925 140.834 443.245 140.738 443.608C140.652 443.971 140.61 444.349 140.61 444.744C140.61 445.117 140.647 445.491 140.722 445.864C140.796 446.237 140.924 446.579 141.106 446.888C141.287 447.187 141.527 447.432 141.826 447.624C142.124 447.805 142.498 447.896 142.946 447.896Z" fill="black" fill-opacity="0.68"/>
<mask id="path-15-inside-4_65346_30705" fill="white">
<path d="M270 413.5H510V473.5H270V413.5Z"/>
</mask>
<path d="M270 413.5H510V473.5H270V413.5Z" fill="black" fill-opacity="0.12"/>
<path d="M510 473.5V472.5H270V473.5V474.5H510V473.5Z" fill="black" mask="url(#path-15-inside-4_65346_30705)"/>
<path d="M286.936 426.932H288.076V434.54H292.612V435.5H286.936V426.932ZM299.112 435.476C298.936 435.58 298.692 435.632 298.38 435.632C298.116 435.632 297.904 435.56 297.744 435.416C297.592 435.264 297.516 435.02 297.516 434.684C297.236 435.02 296.908 435.264 296.532 435.416C296.164 435.56 295.764 435.632 295.332 435.632C295.052 435.632 294.784 435.6 294.528 435.536C294.28 435.472 294.064 435.372 293.88 435.236C293.696 435.1 293.548 434.924 293.436 434.708C293.332 434.484 293.28 434.216 293.28 433.904C293.28 433.552 293.34 433.264 293.46 433.04C293.58 432.816 293.736 432.636 293.928 432.5C294.128 432.356 294.352 432.248 294.6 432.176C294.856 432.104 295.116 432.044 295.38 431.996C295.66 431.94 295.924 431.9 296.172 431.876C296.428 431.844 296.652 431.804 296.844 431.756C297.036 431.7 297.188 431.624 297.3 431.528C297.412 431.424 297.468 431.276 297.468 431.084C297.468 430.86 297.424 430.68 297.336 430.544C297.256 430.408 297.148 430.304 297.012 430.232C296.884 430.16 296.736 430.112 296.568 430.088C296.408 430.064 296.248 430.052 296.088 430.052C295.656 430.052 295.296 430.136 295.008 430.304C294.72 430.464 294.564 430.772 294.54 431.228H293.52C293.536 430.844 293.616 430.52 293.76 430.256C293.904 429.992 294.096 429.78 294.336 429.62C294.576 429.452 294.848 429.332 295.152 429.26C295.464 429.188 295.796 429.152 296.148 429.152C296.428 429.152 296.704 429.172 296.976 429.212C297.256 429.252 297.508 429.336 297.732 429.464C297.956 429.584 298.136 429.756 298.272 429.98C298.408 430.204 298.476 430.496 298.476 430.856V434.048C298.476 434.288 298.488 434.464 298.512 434.576C298.544 434.688 298.64 434.744 298.8 434.744C298.888 434.744 298.992 434.724 299.112 434.684V435.476ZM297.456 432.296C297.328 432.392 297.16 432.464 296.952 432.512C296.744 432.552 296.524 432.588 296.292 432.62C296.068 432.644 295.84 432.676 295.608 432.716C295.376 432.748 295.168 432.804 294.984 432.884C294.8 432.964 294.648 433.08 294.528 433.232C294.416 433.376 294.36 433.576 294.36 433.832C294.36 434 294.392 434.144 294.456 434.264C294.528 434.376 294.616 434.468 294.72 434.54C294.832 434.612 294.96 434.664 295.104 434.696C295.248 434.728 295.4 434.744 295.56 434.744C295.896 434.744 296.184 434.7 296.424 434.612C296.664 434.516 296.86 434.4 297.012 434.264C297.164 434.12 297.276 433.968 297.348 433.808C297.42 433.64 297.456 433.484 297.456 433.34V432.296ZM300.277 426.932H301.297V430.136H301.321C301.489 429.792 301.753 429.544 302.113 429.392C302.473 429.232 302.869 429.152 303.301 429.152C303.781 429.152 304.197 429.24 304.549 429.416C304.909 429.592 305.205 429.832 305.437 430.136C305.677 430.432 305.857 430.776 305.977 431.168C306.097 431.56 306.157 431.976 306.157 432.416C306.157 432.856 306.097 433.272 305.977 433.664C305.865 434.056 305.689 434.4 305.449 434.696C305.217 434.984 304.921 435.212 304.561 435.38C304.209 435.548 303.797 435.632 303.325 435.632C303.173 435.632 303.001 435.616 302.809 435.584C302.625 435.552 302.441 435.5 302.257 435.428C302.073 435.356 301.897 435.26 301.729 435.14C301.569 435.012 301.433 434.856 301.321 434.672H301.297V435.5H300.277V426.932ZM305.077 432.344C305.077 432.056 305.037 431.776 304.957 431.504C304.885 431.224 304.769 430.976 304.609 430.76C304.457 430.544 304.257 430.372 304.009 430.244C303.769 430.116 303.485 430.052 303.157 430.052C302.813 430.052 302.521 430.12 302.281 430.256C302.041 430.392 301.845 430.572 301.693 430.796C301.541 431.012 301.429 431.26 301.357 431.54C301.293 431.82 301.261 432.104 301.261 432.392C301.261 432.696 301.297 432.992 301.369 433.28C301.441 433.56 301.553 433.808 301.705 434.024C301.865 434.24 302.069 434.416 302.317 434.552C302.565 434.68 302.865 434.744 303.217 434.744C303.569 434.744 303.861 434.676 304.093 434.54C304.333 434.404 304.525 434.224 304.669 434C304.813 433.776 304.917 433.52 304.981 433.232C305.045 432.944 305.077 432.648 305.077 432.344ZM311.843 431.804C311.827 431.564 311.771 431.336 311.675 431.12C311.587 430.904 311.463 430.72 311.303 430.568C311.151 430.408 310.967 430.284 310.751 430.196C310.543 430.1 310.311 430.052 310.055 430.052C309.791 430.052 309.551 430.1 309.335 430.196C309.127 430.284 308.947 430.408 308.795 430.568C308.643 430.728 308.523 430.916 308.435 431.132C308.347 431.34 308.295 431.564 308.279 431.804H311.843ZM312.827 433.532C312.691 434.228 312.391 434.752 311.927 435.104C311.463 435.456 310.879 435.632 310.175 435.632C309.679 435.632 309.247 435.552 308.879 435.392C308.519 435.232 308.215 435.008 307.967 434.72C307.719 434.432 307.531 434.088 307.403 433.688C307.283 433.288 307.215 432.852 307.199 432.38C307.199 431.908 307.271 431.476 307.415 431.084C307.559 430.692 307.759 430.352 308.015 430.064C308.279 429.776 308.587 429.552 308.939 429.392C309.299 429.232 309.691 429.152 310.115 429.152C310.667 429.152 311.123 429.268 311.483 429.5C311.851 429.724 312.143 430.012 312.359 430.364C312.583 430.716 312.735 431.1 312.815 431.516C312.903 431.932 312.939 432.328 312.923 432.704H308.279C308.271 432.976 308.303 433.236 308.375 433.484C308.447 433.724 308.563 433.94 308.723 434.132C308.883 434.316 309.087 434.464 309.335 434.576C309.583 434.688 309.875 434.744 310.211 434.744C310.643 434.744 310.995 434.644 311.267 434.444C311.547 434.244 311.731 433.94 311.819 433.532H312.827ZM314.22 426.932H315.24V435.5H314.22V426.932Z" fill="black" fill-opacity="0.68"/>
<path d="M287.216 446.076H289.216V457.5H287.216V446.076ZM291.613 449.228H293.341V450.444L293.373 450.476C293.65 450.017 294.013 449.66 294.461 449.404C294.909 449.137 295.405 449.004 295.949 449.004C296.856 449.004 297.57 449.239 298.093 449.708C298.616 450.177 298.877 450.881 298.877 451.82V457.5H297.053V452.3C297.032 451.649 296.893 451.18 296.637 450.892C296.381 450.593 295.981 450.444 295.437 450.444C295.128 450.444 294.85 450.503 294.605 450.62C294.36 450.727 294.152 450.881 293.981 451.084C293.81 451.276 293.677 451.505 293.581 451.772C293.485 452.039 293.437 452.321 293.437 452.62V457.5H291.613V449.228ZM301.049 449.228H302.777V450.348H302.809C303.065 449.868 303.422 449.527 303.881 449.324C304.339 449.111 304.835 449.004 305.369 449.004C306.019 449.004 306.585 449.121 307.065 449.356C307.555 449.58 307.961 449.895 308.281 450.3C308.601 450.695 308.841 451.159 309.001 451.692C309.161 452.225 309.241 452.796 309.241 453.404C309.241 453.959 309.166 454.497 309.017 455.02C308.878 455.543 308.659 456.007 308.361 456.412C308.073 456.807 307.705 457.127 307.257 457.372C306.809 457.607 306.281 457.724 305.673 457.724C305.406 457.724 305.139 457.697 304.873 457.644C304.606 457.601 304.35 457.527 304.105 457.42C303.859 457.313 303.63 457.18 303.417 457.02C303.214 456.849 303.043 456.652 302.905 456.428H302.873V460.556H301.049V449.228ZM307.417 453.372C307.417 452.999 307.369 452.636 307.273 452.284C307.177 451.932 307.033 451.623 306.841 451.356C306.649 451.079 306.409 450.86 306.121 450.7C305.833 450.529 305.502 450.444 305.129 450.444C304.361 450.444 303.779 450.711 303.385 451.244C303.001 451.777 302.809 452.487 302.809 453.372C302.809 453.788 302.857 454.177 302.953 454.54C303.059 454.892 303.214 455.196 303.417 455.452C303.619 455.708 303.859 455.911 304.137 456.06C304.425 456.209 304.755 456.284 305.129 456.284C305.545 456.284 305.897 456.199 306.185 456.028C306.473 455.857 306.707 455.639 306.889 455.372C307.081 455.095 307.214 454.785 307.289 454.444C307.374 454.092 307.417 453.735 307.417 453.372ZM318.246 457.5H316.454V456.348H316.422C316.198 456.764 315.862 457.1 315.414 457.356C314.977 457.601 314.529 457.724 314.07 457.724C312.982 457.724 312.193 457.457 311.702 456.924C311.222 456.38 310.982 455.564 310.982 454.476V449.228H312.806V454.3C312.806 455.025 312.945 455.537 313.222 455.836C313.499 456.135 313.889 456.284 314.39 456.284C314.774 456.284 315.094 456.225 315.35 456.108C315.606 455.991 315.814 455.836 315.974 455.644C316.134 455.441 316.246 455.201 316.31 454.924C316.385 454.647 316.422 454.348 316.422 454.028V449.228H318.246V457.5ZM319.537 449.228H320.913V446.748H322.737V449.228H324.385V450.588H322.737V455.004C322.737 455.196 322.743 455.361 322.753 455.5C322.775 455.639 322.812 455.756 322.865 455.852C322.929 455.948 323.02 456.023 323.137 456.076C323.255 456.119 323.415 456.14 323.617 456.14C323.745 456.14 323.873 456.14 324.001 456.14C324.129 456.129 324.257 456.108 324.385 456.076V457.484C324.183 457.505 323.985 457.527 323.793 457.548C323.601 457.569 323.404 457.58 323.201 457.58C322.721 457.58 322.332 457.537 322.033 457.452C321.745 457.356 321.516 457.223 321.345 457.052C321.185 456.871 321.073 456.647 321.009 456.38C320.956 456.113 320.924 455.809 320.913 455.468V450.588H319.537V449.228Z" fill="black"/>
<mask id="mask0_65346_30705" style="mask-type:alpha" maskUnits="userSpaceOnUse" x="470" y="433" width="20" height="21">
<path d="M480 433.5C485.523 433.5 490 437.977 490 443.5C490 449.023 485.523 453.5 480 453.5C474.477 453.5 470 449.023 470 443.5C470 437.977 474.477 433.5 480 433.5ZM480 436.417C476.088 436.417 472.917 439.588 472.917 443.5C472.917 447.412 476.088 450.583 480 450.583C483.912 450.583 487.083 447.412 487.083 443.5C487.083 439.588 483.912 436.417 480 436.417Z" fill="#CCCCCC"/>
</mask>
<g mask="url(#mask0_65346_30705)">
<mask id="mask1_65346_30705" style="mask-type:alpha" maskUnits="userSpaceOnUse" x="470" y="433" width="10" height="11">
<path d="M480 433.5C478.687 433.5 477.386 433.759 476.173 434.261C474.96 434.764 473.858 435.5 472.929 436.429C472 437.358 471.264 438.46 470.761 439.673C470.259 440.886 470 442.187 470 443.5L480 443.5L480 433.5Z" fill="#F15E00"/>
<path d="M480 433.5C478.687 433.5 477.386 433.759 476.173 434.261C474.96 434.764 473.858 435.5 472.929 436.429C472 437.358 471.264 438.46 470.761 439.673C470.259 440.886 470 442.187 470 443.5L480 443.5L480 433.5Z" fill="#F15E00"/>
<path d="M480 433.5C478.687 433.5 477.386 433.759 476.173 434.261C474.96 434.764 473.858 435.5 472.929 436.429C472 437.358 471.264 438.46 470.761 439.673C470.259 440.886 470 442.187 470 443.5L480 443.5L480 433.5Z" fill="#F15E00"/>
<path d="M480 433.5C478.687 433.5 477.386 433.759 476.173 434.261C474.96 434.764 473.858 435.5 472.929 436.429C472 437.358 471.264 438.46 470.761 439.673C470.259 440.886 470 442.187 470 443.5L480 443.5L480 433.5Z" fill="#F15E00"/>
</mask>
<g mask="url(#mask1_65346_30705)">
<path d="M480 453.5C477.348 453.5 474.804 452.446 472.929 450.571C471.054 448.696 470 446.152 470 443.5C470 440.848 471.054 438.304 472.929 436.429C474.804 434.554 477.348 433.5 480 433.5L480 443.5L480 453.5Z" fill="black"/>
</g>
</g>
<path d="M91.248 547.576H96.624C97.712 547.576 98.56 547.843 99.168 548.376C99.7867 548.909 100.096 549.64 100.096 550.568C100.096 551.261 99.936 551.869 99.616 552.392C99.3067 552.915 98.8053 553.272 98.112 553.464V553.496C98.4427 553.56 98.7093 553.667 98.912 553.816C99.1253 553.965 99.2907 554.147 99.408 554.36C99.536 554.563 99.6267 554.792 99.68 555.048C99.744 555.304 99.792 555.571 99.824 555.848C99.8453 556.125 99.8613 556.408 99.872 556.696C99.8827 556.984 99.9093 557.267 99.952 557.544C99.9947 557.821 100.053 558.088 100.128 558.344C100.213 558.589 100.336 558.808 100.496 559H98.8C98.6933 558.883 98.6187 558.723 98.576 558.52C98.544 558.317 98.5227 558.093 98.512 557.848C98.5013 557.592 98.4907 557.32 98.48 557.032C98.4693 556.744 98.4373 556.461 98.384 556.184C98.3413 555.907 98.288 555.645 98.224 555.4C98.16 555.144 98.0587 554.925 97.92 554.744C97.7813 554.552 97.6 554.403 97.376 554.296C97.152 554.179 96.8533 554.12 96.48 554.12H92.768V559H91.248V547.576ZM95.936 552.84C96.288 552.84 96.624 552.813 96.944 552.76C97.264 552.707 97.5413 552.605 97.776 552.456C98.0213 552.296 98.2133 552.088 98.352 551.832C98.5013 551.565 98.576 551.224 98.576 550.808C98.576 550.232 98.416 549.763 98.096 549.4C97.776 549.037 97.2587 548.856 96.544 548.856H92.768V552.84H95.936ZM107.721 554.072C107.7 553.752 107.625 553.448 107.497 553.16C107.38 552.872 107.214 552.627 107.001 552.424C106.798 552.211 106.553 552.045 106.265 551.928C105.988 551.8 105.678 551.736 105.337 551.736C104.985 551.736 104.665 551.8 104.377 551.928C104.1 552.045 103.86 552.211 103.657 552.424C103.454 552.637 103.294 552.888 103.177 553.176C103.06 553.453 102.99 553.752 102.969 554.072H107.721ZM109.033 556.376C108.852 557.304 108.452 558.003 107.833 558.472C107.214 558.941 106.436 559.176 105.497 559.176C104.836 559.176 104.26 559.069 103.769 558.856C103.289 558.643 102.884 558.344 102.553 557.96C102.222 557.576 101.972 557.117 101.801 556.584C101.641 556.051 101.55 555.469 101.529 554.84C101.529 554.211 101.625 553.635 101.817 553.112C102.009 552.589 102.276 552.136 102.617 551.752C102.969 551.368 103.38 551.069 103.849 550.856C104.329 550.643 104.852 550.536 105.417 550.536C106.153 550.536 106.761 550.691 107.241 551C107.732 551.299 108.121 551.683 108.409 552.152C108.708 552.621 108.91 553.133 109.017 553.688C109.134 554.243 109.182 554.771 109.161 555.272H102.969C102.958 555.635 103.001 555.981 103.097 556.312C103.193 556.632 103.348 556.92 103.561 557.176C103.774 557.421 104.046 557.619 104.377 557.768C104.708 557.917 105.097 557.992 105.545 557.992C106.121 557.992 106.59 557.859 106.953 557.592C107.326 557.325 107.572 556.92 107.689 556.376H109.033ZM117.899 558.968C117.664 559.107 117.339 559.176 116.923 559.176C116.571 559.176 116.288 559.08 116.075 558.888C115.872 558.685 115.771 558.36 115.771 557.912C115.398 558.36 114.96 558.685 114.459 558.888C113.968 559.08 113.435 559.176 112.859 559.176C112.486 559.176 112.128 559.133 111.787 559.048C111.456 558.963 111.168 558.829 110.923 558.648C110.678 558.467 110.48 558.232 110.331 557.944C110.192 557.645 110.123 557.288 110.123 556.872C110.123 556.403 110.203 556.019 110.363 555.72C110.523 555.421 110.731 555.181 110.987 555C111.254 554.808 111.552 554.664 111.883 554.568C112.224 554.472 112.571 554.392 112.923 554.328C113.296 554.253 113.648 554.2 113.979 554.168C114.32 554.125 114.619 554.072 114.875 554.008C115.131 553.933 115.334 553.832 115.483 553.704C115.632 553.565 115.707 553.368 115.707 553.112C115.707 552.813 115.648 552.573 115.531 552.392C115.424 552.211 115.28 552.072 115.099 551.976C114.928 551.88 114.731 551.816 114.507 551.784C114.294 551.752 114.08 551.736 113.867 551.736C113.291 551.736 112.811 551.848 112.427 552.072C112.043 552.285 111.835 552.696 111.803 553.304H110.443C110.464 552.792 110.571 552.36 110.763 552.008C110.955 551.656 111.211 551.373 111.531 551.16C111.851 550.936 112.214 550.776 112.619 550.68C113.035 550.584 113.478 550.536 113.947 550.536C114.32 550.536 114.688 550.563 115.051 550.616C115.424 550.669 115.76 550.781 116.059 550.952C116.358 551.112 116.598 551.341 116.779 551.64C116.96 551.939 117.051 552.328 117.051 552.808V557.064C117.051 557.384 117.067 557.619 117.099 557.768C117.142 557.917 117.27 557.992 117.483 557.992C117.6 557.992 117.739 557.965 117.899 557.912V558.968ZM115.691 554.728C115.52 554.856 115.296 554.952 115.019 555.016C114.742 555.069 114.448 555.117 114.139 555.16C113.84 555.192 113.536 555.235 113.227 555.288C112.918 555.331 112.64 555.405 112.395 555.512C112.15 555.619 111.947 555.773 111.787 555.976C111.638 556.168 111.563 556.435 111.563 556.776C111.563 557 111.606 557.192 111.691 557.352C111.787 557.501 111.904 557.624 112.043 557.72C112.192 557.816 112.363 557.885 112.555 557.928C112.747 557.971 112.95 557.992 113.163 557.992C113.611 557.992 113.995 557.933 114.315 557.816C114.635 557.688 114.896 557.533 115.099 557.352C115.302 557.16 115.451 556.957 115.547 556.744C115.643 556.52 115.691 556.312 115.691 556.12V554.728ZM120.157 554.936C120.157 555.32 120.205 555.699 120.301 556.072C120.407 556.435 120.562 556.76 120.765 557.048C120.978 557.336 121.245 557.565 121.565 557.736C121.895 557.907 122.279 557.992 122.717 557.992C123.175 557.992 123.565 557.901 123.885 557.72C124.205 557.539 124.466 557.304 124.669 557.016C124.871 556.717 125.015 556.381 125.101 556.008C125.197 555.635 125.245 555.256 125.245 554.872C125.245 554.467 125.197 554.077 125.101 553.704C125.005 553.32 124.85 552.984 124.637 552.696C124.434 552.408 124.167 552.179 123.837 552.008C123.506 551.827 123.106 551.736 122.637 551.736C122.178 551.736 121.789 551.827 121.469 552.008C121.149 552.189 120.893 552.429 120.701 552.728C120.509 553.027 120.37 553.368 120.285 553.752C120.199 554.136 120.157 554.531 120.157 554.936ZM126.557 559H125.197V557.88H125.165C124.941 558.339 124.589 558.669 124.109 558.872C123.629 559.075 123.101 559.176 122.525 559.176C121.885 559.176 121.325 559.059 120.845 558.824C120.375 558.589 119.981 558.275 119.661 557.88C119.351 557.485 119.117 557.027 118.957 556.504C118.797 555.981 118.717 555.427 118.717 554.84C118.717 554.253 118.791 553.699 118.941 553.176C119.101 552.653 119.335 552.2 119.645 551.816C119.965 551.421 120.359 551.112 120.829 550.888C121.309 550.653 121.863 550.536 122.493 550.536C122.706 550.536 122.935 550.557 123.181 550.6C123.426 550.643 123.671 550.717 123.917 550.824C124.162 550.92 124.391 551.053 124.605 551.224C124.829 551.384 125.015 551.587 125.165 551.832H125.197V547.576H126.557V559ZM134.094 554.872C134.094 555.373 134.158 555.821 134.286 556.216C134.425 556.6 134.611 556.925 134.846 557.192C135.081 557.448 135.353 557.645 135.662 557.784C135.982 557.923 136.318 557.992 136.67 557.992C137.022 557.992 137.353 557.923 137.662 557.784C137.982 557.645 138.259 557.448 138.494 557.192C138.729 556.925 138.91 556.6 139.038 556.216C139.177 555.821 139.246 555.373 139.246 554.872C139.246 554.371 139.177 553.928 139.038 553.544C138.91 553.149 138.729 552.819 138.494 552.552C138.259 552.285 137.982 552.083 137.662 551.944C137.353 551.805 137.022 551.736 136.67 551.736C136.318 551.736 135.982 551.805 135.662 551.944C135.353 552.083 135.081 552.285 134.846 552.552C134.611 552.819 134.425 553.149 134.286 553.544C134.158 553.928 134.094 554.371 134.094 554.872ZM132.654 554.872C132.654 554.264 132.739 553.699 132.91 553.176C133.081 552.643 133.337 552.184 133.678 551.8C134.019 551.405 134.441 551.096 134.942 550.872C135.443 550.648 136.019 550.536 136.67 550.536C137.331 550.536 137.907 550.648 138.398 550.872C138.899 551.096 139.321 551.405 139.662 551.8C140.003 552.184 140.259 552.643 140.43 553.176C140.601 553.699 140.686 554.264 140.686 554.872C140.686 555.48 140.601 556.045 140.43 556.568C140.259 557.091 140.003 557.549 139.662 557.944C139.321 558.328 138.899 558.632 138.398 558.856C137.907 559.069 137.331 559.176 136.67 559.176C136.019 559.176 135.443 559.069 134.942 558.856C134.441 558.632 134.019 558.328 133.678 557.944C133.337 557.549 133.081 557.091 132.91 556.568C132.739 556.045 132.654 555.48 132.654 554.872ZM142.29 550.728H143.57V552.04H143.602C144.167 551.037 145.063 550.536 146.29 550.536C146.834 550.536 147.287 550.611 147.65 550.76C148.012 550.909 148.306 551.117 148.53 551.384C148.754 551.651 148.908 551.971 148.994 552.344C149.09 552.707 149.138 553.112 149.138 553.56V559H147.778V553.4C147.778 552.888 147.628 552.483 147.33 552.184C147.031 551.885 146.62 551.736 146.098 551.736C145.682 551.736 145.319 551.8 145.01 551.928C144.711 552.056 144.46 552.237 144.258 552.472C144.055 552.707 143.9 552.984 143.794 553.304C143.698 553.613 143.65 553.955 143.65 554.328V559H142.29V550.728ZM151.26 547.576H152.62V559H151.26V547.576ZM157.975 560.104C157.815 560.509 157.655 560.851 157.495 561.128C157.346 561.405 157.175 561.629 156.983 561.8C156.802 561.981 156.594 562.109 156.359 562.184C156.135 562.269 155.874 562.312 155.575 562.312C155.415 562.312 155.255 562.301 155.095 562.28C154.935 562.259 154.78 562.221 154.631 562.168V560.92C154.748 560.973 154.882 561.016 155.031 561.048C155.191 561.091 155.324 561.112 155.431 561.112C155.708 561.112 155.938 561.043 156.119 560.904C156.311 560.776 156.455 560.589 156.551 560.344L157.111 558.952L153.831 550.728H155.367L157.783 557.496H157.815L160.135 550.728H161.575L157.975 560.104Z" fill="black" fill-opacity="0.68"/>
<mask id="path-26-inside-5_65346_30705" fill="white">
<path d="M270 523.5H510V583.5H270V523.5Z"/>
</mask>
<path d="M270 523.5V522.5H269V523.5H270ZM510 523.5H511V522.5H510V523.5ZM510 583.5V584.5H511V583.5H510ZM270 583.5H269V584.5H270V583.5ZM270 523.5V524.5H510V523.5V522.5H270V523.5ZM510 523.5H509V583.5H510H511V523.5H510ZM510 583.5V582.5H270V583.5V584.5H510V583.5ZM270 583.5H271V523.5H270H269V583.5H270Z" fill="black" fill-opacity="0.08" mask="url(#path-26-inside-5_65346_30705)"/>
<path d="M286.936 536.932H288.076V544.54H292.612V545.5H286.936V536.932ZM299.112 545.476C298.936 545.58 298.692 545.632 298.38 545.632C298.116 545.632 297.904 545.56 297.744 545.416C297.592 545.264 297.516 545.02 297.516 544.684C297.236 545.02 296.908 545.264 296.532 545.416C296.164 545.56 295.764 545.632 295.332 545.632C295.052 545.632 294.784 545.6 294.528 545.536C294.28 545.472 294.064 545.372 293.88 545.236C293.696 545.1 293.548 544.924 293.436 544.708C293.332 544.484 293.28 544.216 293.28 543.904C293.28 543.552 293.34 543.264 293.46 543.04C293.58 542.816 293.736 542.636 293.928 542.5C294.128 542.356 294.352 542.248 294.6 542.176C294.856 542.104 295.116 542.044 295.38 541.996C295.66 541.94 295.924 541.9 296.172 541.876C296.428 541.844 296.652 541.804 296.844 541.756C297.036 541.7 297.188 541.624 297.3 541.528C297.412 541.424 297.468 541.276 297.468 541.084C297.468 540.86 297.424 540.68 297.336 540.544C297.256 540.408 297.148 540.304 297.012 540.232C296.884 540.16 296.736 540.112 296.568 540.088C296.408 540.064 296.248 540.052 296.088 540.052C295.656 540.052 295.296 540.136 295.008 540.304C294.72 540.464 294.564 540.772 294.54 541.228H293.52C293.536 540.844 293.616 540.52 293.76 540.256C293.904 539.992 294.096 539.78 294.336 539.62C294.576 539.452 294.848 539.332 295.152 539.26C295.464 539.188 295.796 539.152 296.148 539.152C296.428 539.152 296.704 539.172 296.976 539.212C297.256 539.252 297.508 539.336 297.732 539.464C297.956 539.584 298.136 539.756 298.272 539.98C298.408 540.204 298.476 540.496 298.476 540.856V544.048C298.476 544.288 298.488 544.464 298.512 544.576C298.544 544.688 298.64 544.744 298.8 544.744C298.888 544.744 298.992 544.724 299.112 544.684V545.476ZM297.456 542.296C297.328 542.392 297.16 542.464 296.952 542.512C296.744 542.552 296.524 542.588 296.292 542.62C296.068 542.644 295.84 542.676 295.608 542.716C295.376 542.748 295.168 542.804 294.984 542.884C294.8 542.964 294.648 543.08 294.528 543.232C294.416 543.376 294.36 543.576 294.36 543.832C294.36 544 294.392 544.144 294.456 544.264C294.528 544.376 294.616 544.468 294.72 544.54C294.832 544.612 294.96 544.664 295.104 544.696C295.248 544.728 295.4 544.744 295.56 544.744C295.896 544.744 296.184 544.7 296.424 544.612C296.664 544.516 296.86 544.4 297.012 544.264C297.164 544.12 297.276 543.968 297.348 543.808C297.42 543.64 297.456 543.484 297.456 543.34V542.296ZM300.277 536.932H301.297V540.136H301.321C301.489 539.792 301.753 539.544 302.113 539.392C302.473 539.232 302.869 539.152 303.301 539.152C303.781 539.152 304.197 539.24 304.549 539.416C304.909 539.592 305.205 539.832 305.437 540.136C305.677 540.432 305.857 540.776 305.977 541.168C306.097 541.56 306.157 541.976 306.157 542.416C306.157 542.856 306.097 543.272 305.977 543.664C305.865 544.056 305.689 544.4 305.449 544.696C305.217 544.984 304.921 545.212 304.561 545.38C304.209 545.548 303.797 545.632 303.325 545.632C303.173 545.632 303.001 545.616 302.809 545.584C302.625 545.552 302.441 545.5 302.257 545.428C302.073 545.356 301.897 545.26 301.729 545.14C301.569 545.012 301.433 544.856 301.321 544.672H301.297V545.5H300.277V536.932ZM305.077 542.344C305.077 542.056 305.037 541.776 304.957 541.504C304.885 541.224 304.769 540.976 304.609 540.76C304.457 540.544 304.257 540.372 304.009 540.244C303.769 540.116 303.485 540.052 303.157 540.052C302.813 540.052 302.521 540.12 302.281 540.256C302.041 540.392 301.845 540.572 301.693 540.796C301.541 541.012 301.429 541.26 301.357 541.54C301.293 541.82 301.261 542.104 301.261 542.392C301.261 542.696 301.297 542.992 301.369 543.28C301.441 543.56 301.553 543.808 301.705 544.024C301.865 544.24 302.069 544.416 302.317 544.552C302.565 544.68 302.865 544.744 303.217 544.744C303.569 544.744 303.861 544.676 304.093 544.54C304.333 544.404 304.525 544.224 304.669 544C304.813 543.776 304.917 543.52 304.981 543.232C305.045 542.944 305.077 542.648 305.077 542.344ZM311.843 541.804C311.827 541.564 311.771 541.336 311.675 541.12C311.587 540.904 311.463 540.72 311.303 540.568C311.151 540.408 310.967 540.284 310.751 540.196C310.543 540.1 310.311 540.052 310.055 540.052C309.791 540.052 309.551 540.1 309.335 540.196C309.127 540.284 308.947 540.408 308.795 540.568C308.643 540.728 308.523 540.916 308.435 541.132C308.347 541.34 308.295 541.564 308.279 541.804H311.843ZM312.827 543.532C312.691 544.228 312.391 544.752 311.927 545.104C311.463 545.456 310.879 545.632 310.175 545.632C309.679 545.632 309.247 545.552 308.879 545.392C308.519 545.232 308.215 545.008 307.967 544.72C307.719 544.432 307.531 544.088 307.403 543.688C307.283 543.288 307.215 542.852 307.199 542.38C307.199 541.908 307.271 541.476 307.415 541.084C307.559 540.692 307.759 540.352 308.015 540.064C308.279 539.776 308.587 539.552 308.939 539.392C309.299 539.232 309.691 539.152 310.115 539.152C310.667 539.152 311.123 539.268 311.483 539.5C311.851 539.724 312.143 540.012 312.359 540.364C312.583 540.716 312.735 541.1 312.815 541.516C312.903 541.932 312.939 542.328 312.923 542.704H308.279C308.271 542.976 308.303 543.236 308.375 543.484C308.447 543.724 308.563 543.94 308.723 544.132C308.883 544.316 309.087 544.464 309.335 544.576C309.583 544.688 309.875 544.744 310.211 544.744C310.643 544.744 310.995 544.644 311.267 544.444C311.547 544.244 311.731 543.94 311.819 543.532H312.827ZM314.22 536.932H315.24V545.5H314.22V536.932Z" fill="black" fill-opacity="0.68"/>
<path d="M287.216 556.076H289.216V567.5H287.216V556.076ZM291.613 559.228H293.341V560.444L293.373 560.476C293.65 560.017 294.013 559.66 294.461 559.404C294.909 559.137 295.405 559.004 295.949 559.004C296.856 559.004 297.57 559.239 298.093 559.708C298.616 560.177 298.877 560.881 298.877 561.82V567.5H297.053V562.3C297.032 561.649 296.893 561.18 296.637 560.892C296.381 560.593 295.981 560.444 295.437 560.444C295.128 560.444 294.85 560.503 294.605 560.62C294.36 560.727 294.152 560.881 293.981 561.084C293.81 561.276 293.677 561.505 293.581 561.772C293.485 562.039 293.437 562.321 293.437 562.62V567.5H291.613V559.228ZM301.049 559.228H302.777V560.348H302.809C303.065 559.868 303.422 559.527 303.881 559.324C304.339 559.111 304.835 559.004 305.369 559.004C306.019 559.004 306.585 559.121 307.065 559.356C307.555 559.58 307.961 559.895 308.281 560.3C308.601 560.695 308.841 561.159 309.001 561.692C309.161 562.225 309.241 562.796 309.241 563.404C309.241 563.959 309.166 564.497 309.017 565.02C308.878 565.543 308.659 566.007 308.361 566.412C308.073 566.807 307.705 567.127 307.257 567.372C306.809 567.607 306.281 567.724 305.673 567.724C305.406 567.724 305.139 567.697 304.873 567.644C304.606 567.601 304.35 567.527 304.105 567.42C303.859 567.313 303.63 567.18 303.417 567.02C303.214 566.849 303.043 566.652 302.905 566.428H302.873V570.556H301.049V559.228ZM307.417 563.372C307.417 562.999 307.369 562.636 307.273 562.284C307.177 561.932 307.033 561.623 306.841 561.356C306.649 561.079 306.409 560.86 306.121 560.7C305.833 560.529 305.502 560.444 305.129 560.444C304.361 560.444 303.779 560.711 303.385 561.244C303.001 561.777 302.809 562.487 302.809 563.372C302.809 563.788 302.857 564.177 302.953 564.54C303.059 564.892 303.214 565.196 303.417 565.452C303.619 565.708 303.859 565.911 304.137 566.06C304.425 566.209 304.755 566.284 305.129 566.284C305.545 566.284 305.897 566.199 306.185 566.028C306.473 565.857 306.707 565.639 306.889 565.372C307.081 565.095 307.214 564.785 307.289 564.444C307.374 564.092 307.417 563.735 307.417 563.372ZM318.246 567.5H316.454V566.348H316.422C316.198 566.764 315.862 567.1 315.414 567.356C314.977 567.601 314.529 567.724 314.07 567.724C312.982 567.724 312.193 567.457 311.702 566.924C311.222 566.38 310.982 565.564 310.982 564.476V559.228H312.806V564.3C312.806 565.025 312.945 565.537 313.222 565.836C313.499 566.135 313.889 566.284 314.39 566.284C314.774 566.284 315.094 566.225 315.35 566.108C315.606 565.991 315.814 565.836 315.974 565.644C316.134 565.441 316.246 565.201 316.31 564.924C316.385 564.647 316.422 564.348 316.422 564.028V559.228H318.246V567.5ZM319.537 559.228H320.913V556.748H322.737V559.228H324.385V560.588H322.737V565.004C322.737 565.196 322.743 565.361 322.753 565.5C322.775 565.639 322.812 565.756 322.865 565.852C322.929 565.948 323.02 566.023 323.137 566.076C323.255 566.119 323.415 566.14 323.617 566.14C323.745 566.14 323.873 566.14 324.001 566.14C324.129 566.129 324.257 566.108 324.385 566.076V567.484C324.183 567.505 323.985 567.527 323.793 567.548C323.601 567.569 323.404 567.58 323.201 567.58C322.721 567.58 322.332 567.537 322.033 567.452C321.745 567.356 321.516 567.223 321.345 567.052C321.185 566.871 321.073 566.647 321.009 566.38C320.956 566.113 320.924 565.809 320.913 565.468V560.588H319.537V559.228Z" fill="black"/>
<path d="M92.768 667.72H95.296C95.4667 667.72 95.68 667.709 95.936 667.688C96.192 667.656 96.464 667.592 96.752 667.496C97.04 667.389 97.3227 667.24 97.6 667.048C97.888 666.856 98.144 666.595 98.368 666.264C98.592 665.933 98.7733 665.523 98.912 665.032C99.0613 664.531 99.136 663.928 99.136 663.224C99.136 662.541 99.0667 661.933 98.928 661.4C98.8 660.856 98.5813 660.397 98.272 660.024C97.9733 659.64 97.584 659.352 97.104 659.16C96.624 658.957 96.032 658.856 95.328 658.856H92.768V667.72ZM91.248 657.576H95.168C96.928 657.576 98.2827 658.024 99.232 658.92C100.181 659.816 100.656 661.181 100.656 663.016C100.656 663.976 100.549 664.829 100.336 665.576C100.123 666.312 99.792 666.936 99.344 667.448C98.896 667.949 98.3253 668.333 97.632 668.6C96.9387 668.867 96.1173 669 95.168 669H91.248V657.576ZM103.73 659.24H102.37V657.576H103.73V659.24ZM102.37 660.728H103.73V669H102.37V660.728ZM106.669 666.392C106.679 666.691 106.749 666.947 106.877 667.16C107.005 667.363 107.17 667.528 107.373 667.656C107.586 667.773 107.821 667.859 108.077 667.912C108.343 667.965 108.615 667.992 108.893 667.992C109.106 667.992 109.33 667.976 109.565 667.944C109.799 667.912 110.013 667.853 110.205 667.768C110.407 667.683 110.573 667.56 110.701 667.4C110.829 667.229 110.893 667.016 110.893 666.76C110.893 666.408 110.759 666.141 110.493 665.96C110.226 665.779 109.89 665.635 109.485 665.528C109.09 665.411 108.658 665.309 108.189 665.224C107.719 665.128 107.282 665 106.877 664.84C106.482 664.669 106.151 664.435 105.885 664.136C105.618 663.837 105.485 663.421 105.485 662.888C105.485 662.472 105.575 662.115 105.757 661.816C105.949 661.517 106.189 661.277 106.477 661.096C106.775 660.904 107.106 660.765 107.469 660.68C107.842 660.584 108.21 660.536 108.573 660.536C109.042 660.536 109.474 660.579 109.869 660.664C110.263 660.739 110.61 660.877 110.909 661.08C111.218 661.272 111.463 661.539 111.645 661.88C111.826 662.211 111.933 662.627 111.965 663.128H110.605C110.583 662.861 110.514 662.643 110.397 662.472C110.279 662.291 110.13 662.147 109.949 662.04C109.767 661.933 109.565 661.859 109.341 661.816C109.127 661.763 108.909 661.736 108.685 661.736C108.482 661.736 108.274 661.752 108.061 661.784C107.858 661.816 107.671 661.875 107.501 661.96C107.33 662.035 107.191 662.141 107.085 662.28C106.978 662.408 106.924 662.579 106.924 662.792C106.924 663.027 107.004 663.224 107.164 663.384C107.335 663.533 107.549 663.661 107.805 663.768C108.061 663.864 108.349 663.949 108.669 664.024C108.989 664.088 109.309 664.157 109.629 664.232C109.97 664.307 110.301 664.397 110.621 664.504C110.951 664.611 111.239 664.755 111.485 664.936C111.741 665.107 111.943 665.325 112.093 665.592C112.253 665.859 112.333 666.189 112.333 666.584C112.333 667.085 112.226 667.501 112.013 667.832C111.81 668.163 111.538 668.429 111.197 668.632C110.866 668.835 110.487 668.973 110.061 669.048C109.645 669.133 109.229 669.176 108.812 669.176C108.354 669.176 107.917 669.128 107.501 669.032C107.085 668.936 106.717 668.781 106.397 668.568C106.077 668.344 105.821 668.056 105.629 667.704C105.437 667.341 105.33 666.904 105.309 666.392H106.669ZM121.165 668.968C120.93 669.107 120.605 669.176 120.189 669.176C119.837 669.176 119.554 669.08 119.341 668.888C119.138 668.685 119.037 668.36 119.037 667.912C118.663 668.36 118.226 668.685 117.725 668.888C117.234 669.08 116.701 669.176 116.125 669.176C115.751 669.176 115.394 669.133 115.053 669.048C114.722 668.963 114.434 668.829 114.189 668.648C113.943 668.467 113.746 668.232 113.597 667.944C113.458 667.645 113.389 667.288 113.389 666.872C113.389 666.403 113.469 666.019 113.629 665.72C113.789 665.421 113.997 665.181 114.253 665C114.519 664.808 114.818 664.664 115.149 664.568C115.49 664.472 115.837 664.392 116.189 664.328C116.562 664.253 116.914 664.2 117.245 664.168C117.586 664.125 117.885 664.072 118.141 664.008C118.397 663.933 118.599 663.832 118.749 663.704C118.898 663.565 118.973 663.368 118.973 663.112C118.973 662.813 118.914 662.573 118.797 662.392C118.69 662.211 118.546 662.072 118.365 661.976C118.194 661.88 117.997 661.816 117.773 661.784C117.559 661.752 117.346 661.736 117.133 661.736C116.557 661.736 116.077 661.848 115.693 662.072C115.309 662.285 115.101 662.696 115.069 663.304H113.709C113.73 662.792 113.837 662.36 114.029 662.008C114.221 661.656 114.477 661.373 114.797 661.16C115.117 660.936 115.479 660.776 115.885 660.68C116.301 660.584 116.743 660.536 117.213 660.536C117.586 660.536 117.954 660.563 118.317 660.616C118.69 660.669 119.026 660.781 119.325 660.952C119.623 661.112 119.863 661.341 120.045 661.64C120.226 661.939 120.317 662.328 120.317 662.808V667.064C120.317 667.384 120.333 667.619 120.365 667.768C120.407 667.917 120.535 667.992 120.749 667.992C120.866 667.992 121.005 667.965 121.165 667.912V668.968ZM118.957 664.728C118.786 664.856 118.562 664.952 118.285 665.016C118.007 665.069 117.714 665.117 117.405 665.16C117.106 665.192 116.802 665.235 116.493 665.288C116.183 665.331 115.906 665.405 115.661 665.512C115.415 665.619 115.213 665.773 115.053 665.976C114.903 666.168 114.829 666.435 114.829 666.776C114.829 667 114.871 667.192 114.957 667.352C115.053 667.501 115.17 667.624 115.309 667.72C115.458 667.816 115.629 667.885 115.821 667.928C116.013 667.971 116.215 667.992 116.429 667.992C116.877 667.992 117.261 667.933 117.581 667.816C117.901 667.688 118.162 667.533 118.365 667.352C118.567 667.16 118.717 666.957 118.813 666.744C118.909 666.52 118.957 666.312 118.957 666.12V664.728ZM122.478 657.576H123.838V661.848H123.87C124.094 661.389 124.446 661.059 124.926 660.856C125.406 660.643 125.934 660.536 126.51 660.536C127.15 660.536 127.705 660.653 128.174 660.888C128.654 661.123 129.049 661.443 129.358 661.848C129.678 662.243 129.918 662.701 130.078 663.224C130.238 663.747 130.318 664.301 130.318 664.888C130.318 665.475 130.238 666.029 130.078 666.552C129.929 667.075 129.694 667.533 129.374 667.928C129.065 668.312 128.67 668.616 128.19 668.84C127.721 669.064 127.172 669.176 126.542 669.176C126.34 669.176 126.11 669.155 125.854 669.112C125.609 669.069 125.364 669 125.118 668.904C124.873 668.808 124.638 668.68 124.414 668.52C124.201 668.349 124.02 668.141 123.87 667.896H123.838V669H122.478V657.576ZM128.878 664.792C128.878 664.408 128.825 664.035 128.718 663.672C128.622 663.299 128.468 662.968 128.254 662.68C128.052 662.392 127.785 662.163 127.454 661.992C127.134 661.821 126.756 661.736 126.318 661.736C125.86 661.736 125.47 661.827 125.15 662.008C124.83 662.189 124.569 662.429 124.366 662.728C124.164 663.016 124.014 663.347 123.918 663.72C123.833 664.093 123.79 664.472 123.79 664.856C123.79 665.261 123.838 665.656 123.934 666.04C124.03 666.413 124.18 666.744 124.382 667.032C124.596 667.32 124.868 667.555 125.198 667.736C125.529 667.907 125.929 667.992 126.398 667.992C126.868 667.992 127.257 667.901 127.566 667.72C127.886 667.539 128.142 667.299 128.334 667C128.526 666.701 128.665 666.36 128.75 665.976C128.836 665.592 128.878 665.197 128.878 664.792ZM131.995 657.576H133.355V669H131.995V657.576ZM141.206 664.072C141.184 663.752 141.11 663.448 140.982 663.16C140.864 662.872 140.699 662.627 140.486 662.424C140.283 662.211 140.038 662.045 139.75 661.928C139.472 661.8 139.163 661.736 138.822 661.736C138.47 661.736 138.15 661.8 137.862 661.928C137.584 662.045 137.344 662.211 137.142 662.424C136.939 662.637 136.779 662.888 136.662 663.176C136.544 663.453 136.475 663.752 136.454 664.072H141.206ZM142.517 666.376C142.336 667.304 141.936 668.003 141.318 668.472C140.699 668.941 139.92 669.176 138.982 669.176C138.32 669.176 137.744 669.069 137.254 668.856C136.774 668.643 136.368 668.344 136.038 667.96C135.707 667.576 135.456 667.117 135.286 666.584C135.126 666.051 135.035 665.469 135.014 664.84C135.014 664.211 135.11 663.635 135.302 663.112C135.494 662.589 135.76 662.136 136.102 661.752C136.454 661.368 136.864 661.069 137.334 660.856C137.814 660.643 138.336 660.536 138.902 660.536C139.638 660.536 140.246 660.691 140.726 661C141.216 661.299 141.606 661.683 141.894 662.152C142.192 662.621 142.395 663.133 142.502 663.688C142.619 664.243 142.667 664.771 142.646 665.272H136.454C136.443 665.635 136.486 665.981 136.582 666.312C136.678 666.632 136.832 666.92 137.046 667.176C137.259 667.421 137.531 667.619 137.862 667.768C138.192 667.917 138.582 667.992 139.03 667.992C139.606 667.992 140.075 667.859 140.438 667.592C140.811 667.325 141.056 666.92 141.174 666.376H142.517ZM145.047 664.936C145.047 665.32 145.095 665.699 145.191 666.072C145.298 666.435 145.453 666.76 145.655 667.048C145.869 667.336 146.135 667.565 146.455 667.736C146.786 667.907 147.17 667.992 147.607 667.992C148.066 667.992 148.455 667.901 148.775 667.72C149.095 667.539 149.357 667.304 149.559 667.016C149.762 666.717 149.906 666.381 149.991 666.008C150.087 665.635 150.135 665.256 150.135 664.872C150.135 664.467 150.087 664.077 149.991 663.704C149.895 663.32 149.741 662.984 149.527 662.696C149.325 662.408 149.058 662.179 148.727 662.008C148.397 661.827 147.997 661.736 147.527 661.736C147.069 661.736 146.679 661.827 146.359 662.008C146.039 662.189 145.783 662.429 145.591 662.728C145.399 663.027 145.261 663.368 145.175 663.752C145.09 664.136 145.047 664.531 145.047 664.936ZM151.447 669H150.087V667.88H150.055C149.831 668.339 149.479 668.669 148.999 668.872C148.519 669.075 147.991 669.176 147.415 669.176C146.775 669.176 146.215 669.059 145.735 668.824C145.266 668.589 144.871 668.275 144.551 667.88C144.242 667.485 144.007 667.027 143.847 666.504C143.687 665.981 143.607 665.427 143.607 664.84C143.607 664.253 143.682 663.699 143.831 663.176C143.991 662.653 144.226 662.2 144.535 661.816C144.855 661.421 145.25 661.112 145.719 660.888C146.199 660.653 146.754 660.536 147.383 660.536C147.597 660.536 147.826 660.557 148.071 660.6C148.317 660.643 148.562 660.717 148.807 660.824C149.053 660.92 149.282 661.053 149.495 661.224C149.719 661.384 149.906 661.587 150.055 661.832H150.087V657.576H151.447V669Z" fill="black" fill-opacity="0.68"/>
<mask id="path-31-inside-6_65346_30705" fill="white">
<path d="M270 633.5H510V693.5H270V633.5Z"/>
</mask>
<path d="M270 633.5H510V693.5H270V633.5Z" fill="black" fill-opacity="0.04"/>
<path d="M510 693.5V692.5H270V693.5V694.5H510V693.5Z" fill="black" fill-opacity="0.2" mask="url(#path-31-inside-6_65346_30705)"/>
<path d="M286.936 646.932H288.076V654.54H292.612V655.5H286.936V646.932ZM299.112 655.476C298.936 655.58 298.692 655.632 298.38 655.632C298.116 655.632 297.904 655.56 297.744 655.416C297.592 655.264 297.516 655.02 297.516 654.684C297.236 655.02 296.908 655.264 296.532 655.416C296.164 655.56 295.764 655.632 295.332 655.632C295.052 655.632 294.784 655.6 294.528 655.536C294.28 655.472 294.064 655.372 293.88 655.236C293.696 655.1 293.548 654.924 293.436 654.708C293.332 654.484 293.28 654.216 293.28 653.904C293.28 653.552 293.34 653.264 293.46 653.04C293.58 652.816 293.736 652.636 293.928 652.5C294.128 652.356 294.352 652.248 294.6 652.176C294.856 652.104 295.116 652.044 295.38 651.996C295.66 651.94 295.924 651.9 296.172 651.876C296.428 651.844 296.652 651.804 296.844 651.756C297.036 651.7 297.188 651.624 297.3 651.528C297.412 651.424 297.468 651.276 297.468 651.084C297.468 650.86 297.424 650.68 297.336 650.544C297.256 650.408 297.148 650.304 297.012 650.232C296.884 650.16 296.736 650.112 296.568 650.088C296.408 650.064 296.248 650.052 296.088 650.052C295.656 650.052 295.296 650.136 295.008 650.304C294.72 650.464 294.564 650.772 294.54 651.228H293.52C293.536 650.844 293.616 650.52 293.76 650.256C293.904 649.992 294.096 649.78 294.336 649.62C294.576 649.452 294.848 649.332 295.152 649.26C295.464 649.188 295.796 649.152 296.148 649.152C296.428 649.152 296.704 649.172 296.976 649.212C297.256 649.252 297.508 649.336 297.732 649.464C297.956 649.584 298.136 649.756 298.272 649.98C298.408 650.204 298.476 650.496 298.476 650.856V654.048C298.476 654.288 298.488 654.464 298.512 654.576C298.544 654.688 298.64 654.744 298.8 654.744C298.888 654.744 298.992 654.724 299.112 654.684V655.476ZM297.456 652.296C297.328 652.392 297.16 652.464 296.952 652.512C296.744 652.552 296.524 652.588 296.292 652.62C296.068 652.644 295.84 652.676 295.608 652.716C295.376 652.748 295.168 652.804 294.984 652.884C294.8 652.964 294.648 653.08 294.528 653.232C294.416 653.376 294.36 653.576 294.36 653.832C294.36 654 294.392 654.144 294.456 654.264C294.528 654.376 294.616 654.468 294.72 654.54C294.832 654.612 294.96 654.664 295.104 654.696C295.248 654.728 295.4 654.744 295.56 654.744C295.896 654.744 296.184 654.7 296.424 654.612C296.664 654.516 296.86 654.4 297.012 654.264C297.164 654.12 297.276 653.968 297.348 653.808C297.42 653.64 297.456 653.484 297.456 653.34V652.296ZM300.277 646.932H301.297V650.136H301.321C301.489 649.792 301.753 649.544 302.113 649.392C302.473 649.232 302.869 649.152 303.301 649.152C303.781 649.152 304.197 649.24 304.549 649.416C304.909 649.592 305.205 649.832 305.437 650.136C305.677 650.432 305.857 650.776 305.977 651.168C306.097 651.56 306.157 651.976 306.157 652.416C306.157 652.856 306.097 653.272 305.977 653.664C305.865 654.056 305.689 654.4 305.449 654.696C305.217 654.984 304.921 655.212 304.561 655.38C304.209 655.548 303.797 655.632 303.325 655.632C303.173 655.632 303.001 655.616 302.809 655.584C302.625 655.552 302.441 655.5 302.257 655.428C302.073 655.356 301.897 655.26 301.729 655.14C301.569 655.012 301.433 654.856 301.321 654.672H301.297V655.5H300.277V646.932ZM305.077 652.344C305.077 652.056 305.037 651.776 304.957 651.504C304.885 651.224 304.769 650.976 304.609 650.76C304.457 650.544 304.257 650.372 304.009 650.244C303.769 650.116 303.485 650.052 303.157 650.052C302.813 650.052 302.521 650.12 302.281 650.256C302.041 650.392 301.845 650.572 301.693 650.796C301.541 651.012 301.429 651.26 301.357 651.54C301.293 651.82 301.261 652.104 301.261 652.392C301.261 652.696 301.297 652.992 301.369 653.28C301.441 653.56 301.553 653.808 301.705 654.024C301.865 654.24 302.069 654.416 302.317 654.552C302.565 654.68 302.865 654.744 303.217 654.744C303.569 654.744 303.861 654.676 304.093 654.54C304.333 654.404 304.525 654.224 304.669 654C304.813 653.776 304.917 653.52 304.981 653.232C305.045 652.944 305.077 652.648 305.077 652.344ZM311.843 651.804C311.827 651.564 311.771 651.336 311.675 651.12C311.587 650.904 311.463 650.72 311.303 650.568C311.151 650.408 310.967 650.284 310.751 650.196C310.543 650.1 310.311 650.052 310.055 650.052C309.791 650.052 309.551 650.1 309.335 650.196C309.127 650.284 308.947 650.408 308.795 650.568C308.643 650.728 308.523 650.916 308.435 651.132C308.347 651.34 308.295 651.564 308.279 651.804H311.843ZM312.827 653.532C312.691 654.228 312.391 654.752 311.927 655.104C311.463 655.456 310.879 655.632 310.175 655.632C309.679 655.632 309.247 655.552 308.879 655.392C308.519 655.232 308.215 655.008 307.967 654.72C307.719 654.432 307.531 654.088 307.403 653.688C307.283 653.288 307.215 652.852 307.199 652.38C307.199 651.908 307.271 651.476 307.415 651.084C307.559 650.692 307.759 650.352 308.015 650.064C308.279 649.776 308.587 649.552 308.939 649.392C309.299 649.232 309.691 649.152 310.115 649.152C310.667 649.152 311.123 649.268 311.483 649.5C311.851 649.724 312.143 650.012 312.359 650.364C312.583 650.716 312.735 651.1 312.815 651.516C312.903 651.932 312.939 652.328 312.923 652.704H308.279C308.271 652.976 308.303 653.236 308.375 653.484C308.447 653.724 308.563 653.94 308.723 654.132C308.883 654.316 309.087 654.464 309.335 654.576C309.583 654.688 309.875 654.744 310.211 654.744C310.643 654.744 310.995 654.644 311.267 654.444C311.547 654.244 311.731 653.94 311.819 653.532H312.827ZM314.22 646.932H315.24V655.5H314.22V646.932Z" fill="black" fill-opacity="0.2"/>
<path d="M287.216 666.076H289.216V677.5H287.216V666.076ZM291.613 669.228H293.341V670.444L293.373 670.476C293.65 670.017 294.013 669.66 294.461 669.404C294.909 669.137 295.405 669.004 295.949 669.004C296.856 669.004 297.57 669.239 298.093 669.708C298.616 670.177 298.877 670.881 298.877 671.82V677.5H297.053V672.3C297.032 671.649 296.893 671.18 296.637 670.892C296.381 670.593 295.981 670.444 295.437 670.444C295.128 670.444 294.85 670.503 294.605 670.62C294.36 670.727 294.152 670.881 293.981 671.084C293.81 671.276 293.677 671.505 293.581 671.772C293.485 672.039 293.437 672.321 293.437 672.62V677.5H291.613V669.228ZM301.049 669.228H302.777V670.348H302.809C303.065 669.868 303.422 669.527 303.881 669.324C304.339 669.111 304.835 669.004 305.369 669.004C306.019 669.004 306.585 669.121 307.065 669.356C307.555 669.58 307.961 669.895 308.281 670.3C308.601 670.695 308.841 671.159 309.001 671.692C309.161 672.225 309.241 672.796 309.241 673.404C309.241 673.959 309.166 674.497 309.017 675.02C308.878 675.543 308.659 676.007 308.361 676.412C308.073 676.807 307.705 677.127 307.257 677.372C306.809 677.607 306.281 677.724 305.673 677.724C305.406 677.724 305.139 677.697 304.873 677.644C304.606 677.601 304.35 677.527 304.105 677.42C303.859 677.313 303.63 677.18 303.417 677.02C303.214 676.849 303.043 676.652 302.905 676.428H302.873V680.556H301.049V669.228ZM307.417 673.372C307.417 672.999 307.369 672.636 307.273 672.284C307.177 671.932 307.033 671.623 306.841 671.356C306.649 671.079 306.409 670.86 306.121 670.7C305.833 670.529 305.502 670.444 305.129 670.444C304.361 670.444 303.779 670.711 303.385 671.244C303.001 671.777 302.809 672.487 302.809 673.372C302.809 673.788 302.857 674.177 302.953 674.54C303.059 674.892 303.214 675.196 303.417 675.452C303.619 675.708 303.859 675.911 304.137 676.06C304.425 676.209 304.755 676.284 305.129 676.284C305.545 676.284 305.897 676.199 306.185 676.028C306.473 675.857 306.707 675.639 306.889 675.372C307.081 675.095 307.214 674.785 307.289 674.444C307.374 674.092 307.417 673.735 307.417 673.372ZM318.246 677.5H316.454V676.348H316.422C316.198 676.764 315.862 677.1 315.414 677.356C314.977 677.601 314.529 677.724 314.07 677.724C312.982 677.724 312.193 677.457 311.702 676.924C311.222 676.38 310.982 675.564 310.982 674.476V669.228H312.806V674.3C312.806 675.025 312.945 675.537 313.222 675.836C313.499 676.135 313.889 676.284 314.39 676.284C314.774 676.284 315.094 676.225 315.35 676.108C315.606 675.991 315.814 675.836 315.974 675.644C316.134 675.441 316.246 675.201 316.31 674.924C316.385 674.647 316.422 674.348 316.422 674.028V669.228H318.246V677.5ZM319.537 669.228H320.913V666.748H322.737V669.228H324.385V670.588H322.737V675.004C322.737 675.196 322.743 675.361 322.753 675.5C322.775 675.639 322.812 675.756 322.865 675.852C322.929 675.948 323.02 676.023 323.137 676.076C323.255 676.119 323.415 676.14 323.617 676.14C323.745 676.14 323.873 676.14 324.001 676.14C324.129 676.129 324.257 676.108 324.385 676.076V677.484C324.183 677.505 323.985 677.527 323.793 677.548C323.601 677.569 323.404 677.58 323.201 677.58C322.721 677.58 322.332 677.537 322.033 677.452C321.745 677.356 321.516 677.223 321.345 677.052C321.185 676.871 321.073 676.647 321.009 676.38C320.956 676.113 320.924 675.809 320.913 675.468V670.588H319.537V669.228Z" fill="black" fill-opacity="0.2"/>
<path d="M97.856 770.92C97.7707 770.099 97.472 769.507 96.96 769.144C96.4587 768.771 95.8133 768.584 95.024 768.584C94.704 768.584 94.3893 768.616 94.08 768.68C93.7707 768.744 93.4933 768.851 93.248 769C93.0133 769.149 92.8213 769.352 92.672 769.608C92.5333 769.853 92.464 770.163 92.464 770.536C92.464 770.888 92.5653 771.176 92.768 771.4C92.9813 771.613 93.2587 771.789 93.6 771.928C93.952 772.067 94.3467 772.184 94.784 772.28C95.2213 772.365 95.664 772.461 96.112 772.568C96.5707 772.675 97.0187 772.803 97.456 772.952C97.8933 773.091 98.2827 773.283 98.624 773.528C98.976 773.773 99.2533 774.083 99.456 774.456C99.6693 774.829 99.776 775.299 99.776 775.864C99.776 776.472 99.6373 776.995 99.36 777.432C99.0933 777.859 98.7467 778.211 98.32 778.488C97.8933 778.755 97.4133 778.947 96.88 779.064C96.3573 779.192 95.8347 779.256 95.312 779.256C94.672 779.256 94.064 779.176 93.488 779.016C92.9227 778.856 92.4213 778.616 91.984 778.296C91.5573 777.965 91.216 777.549 90.96 777.048C90.7147 776.536 90.592 775.933 90.592 775.24H92.032C92.032 775.72 92.1227 776.136 92.304 776.488C92.496 776.829 92.7413 777.112 93.04 777.336C93.3493 777.56 93.7067 777.725 94.112 777.832C94.5173 777.939 94.9333 777.992 95.36 777.992C95.7013 777.992 96.0427 777.96 96.384 777.896C96.736 777.832 97.0507 777.725 97.328 777.576C97.6053 777.416 97.8293 777.203 98 776.936C98.1707 776.669 98.256 776.328 98.256 775.912C98.256 775.517 98.1493 775.197 97.936 774.952C97.7333 774.707 97.456 774.509 97.104 774.36C96.7627 774.2 96.3733 774.072 95.936 773.976C95.4987 773.88 95.0507 773.784 94.592 773.688C94.144 773.581 93.7013 773.464 93.264 773.336C92.8267 773.197 92.432 773.021 92.08 772.808C91.7387 772.584 91.4613 772.301 91.248 771.96C91.0453 771.608 90.944 771.171 90.944 770.648C90.944 770.072 91.0613 769.576 91.296 769.16C91.5307 768.733 91.84 768.387 92.224 768.12C92.6187 767.843 93.0613 767.64 93.552 767.512C94.0533 767.373 94.5653 767.304 95.088 767.304C95.6747 767.304 96.2187 767.373 96.72 767.512C97.2213 767.651 97.6587 767.869 98.032 768.168C98.416 768.467 98.7147 768.845 98.928 769.304C99.152 769.752 99.2747 770.291 99.296 770.92H97.856ZM101.479 767.576H102.839V774.344L106.615 770.728H108.439L105.159 773.736L108.679 779H106.951L104.119 774.68L102.839 775.864V779H101.479V767.576ZM115.44 774.072C115.419 773.752 115.344 773.448 115.216 773.16C115.099 772.872 114.933 772.627 114.72 772.424C114.517 772.211 114.272 772.045 113.984 771.928C113.707 771.8 113.397 771.736 113.056 771.736C112.704 771.736 112.384 771.8 112.096 771.928C111.819 772.045 111.579 772.211 111.376 772.424C111.173 772.637 111.013 772.888 110.896 773.176C110.779 773.453 110.709 773.752 110.688 774.072H115.44ZM116.752 776.376C116.571 777.304 116.171 778.003 115.552 778.472C114.933 778.941 114.155 779.176 113.216 779.176C112.555 779.176 111.979 779.069 111.488 778.856C111.008 778.643 110.603 778.344 110.272 777.96C109.941 777.576 109.691 777.117 109.52 776.584C109.36 776.051 109.269 775.469 109.248 774.84C109.248 774.211 109.344 773.635 109.536 773.112C109.728 772.589 109.995 772.136 110.336 771.752C110.688 771.368 111.099 771.069 111.568 770.856C112.048 770.643 112.571 770.536 113.136 770.536C113.872 770.536 114.48 770.691 114.96 771C115.451 771.299 115.84 771.683 116.128 772.152C116.427 772.621 116.629 773.133 116.736 773.688C116.853 774.243 116.901 774.771 116.88 775.272H110.688C110.677 775.635 110.72 775.981 110.816 776.312C110.912 776.632 111.067 776.92 111.28 777.176C111.493 777.421 111.765 777.619 112.096 777.768C112.427 777.917 112.816 777.992 113.264 777.992C113.84 777.992 114.309 777.859 114.672 777.592C115.045 777.325 115.291 776.92 115.408 776.376H116.752ZM118.37 767.576H119.73V779H118.37V767.576ZM127.581 774.072C127.559 773.752 127.485 773.448 127.357 773.16C127.239 772.872 127.074 772.627 126.861 772.424C126.658 772.211 126.413 772.045 126.125 771.928C125.847 771.8 125.538 771.736 125.197 771.736C124.845 771.736 124.525 771.8 124.237 771.928C123.959 772.045 123.719 772.211 123.517 772.424C123.314 772.637 123.154 772.888 123.037 773.176C122.919 773.453 122.85 773.752 122.829 774.072H127.581ZM128.892 776.376C128.711 777.304 128.311 778.003 127.693 778.472C127.074 778.941 126.295 779.176 125.357 779.176C124.695 779.176 124.119 779.069 123.629 778.856C123.149 778.643 122.743 778.344 122.413 777.96C122.082 777.576 121.831 777.117 121.661 776.584C121.501 776.051 121.41 775.469 121.389 774.84C121.389 774.211 121.485 773.635 121.677 773.112C121.869 772.589 122.135 772.136 122.477 771.752C122.829 771.368 123.239 771.069 123.709 770.856C124.189 770.643 124.711 770.536 125.277 770.536C126.013 770.536 126.621 770.691 127.101 771C127.591 771.299 127.981 771.683 128.269 772.152C128.567 772.621 128.77 773.133 128.877 773.688C128.994 774.243 129.042 774.771 129.021 775.272H122.829C122.818 775.635 122.861 775.981 122.957 776.312C123.053 776.632 123.207 776.92 123.421 777.176C123.634 777.421 123.906 777.619 124.237 777.768C124.567 777.917 124.957 777.992 125.405 777.992C125.981 777.992 126.45 777.859 126.813 777.592C127.186 777.325 127.431 776.92 127.549 776.376H128.892ZM132.318 770.728H133.966V771.928H132.318V777.064C132.318 777.224 132.329 777.352 132.35 777.448C132.382 777.544 132.436 777.619 132.51 777.672C132.585 777.725 132.686 777.763 132.814 777.784C132.953 777.795 133.129 777.8 133.342 777.8H133.966V779H132.926C132.574 779 132.27 778.979 132.014 778.936C131.769 778.883 131.566 778.792 131.406 778.664C131.257 778.536 131.145 778.355 131.07 778.12C130.996 777.885 130.958 777.576 130.958 777.192V771.928H129.55V770.728H130.958V768.248H132.318V770.728ZM136.469 774.872C136.469 775.373 136.533 775.821 136.661 776.216C136.8 776.6 136.986 776.925 137.221 777.192C137.456 777.448 137.728 777.645 138.037 777.784C138.357 777.923 138.693 777.992 139.045 777.992C139.397 777.992 139.728 777.923 140.037 777.784C140.357 777.645 140.634 777.448 140.869 777.192C141.104 776.925 141.285 776.6 141.413 776.216C141.552 775.821 141.621 775.373 141.621 774.872C141.621 774.371 141.552 773.928 141.413 773.544C141.285 773.149 141.104 772.819 140.869 772.552C140.634 772.285 140.357 772.083 140.037 771.944C139.728 771.805 139.397 771.736 139.045 771.736C138.693 771.736 138.357 771.805 138.037 771.944C137.728 772.083 137.456 772.285 137.221 772.552C136.986 772.819 136.8 773.149 136.661 773.544C136.533 773.928 136.469 774.371 136.469 774.872ZM135.029 774.872C135.029 774.264 135.114 773.699 135.285 773.176C135.456 772.643 135.712 772.184 136.053 771.8C136.394 771.405 136.816 771.096 137.317 770.872C137.818 770.648 138.394 770.536 139.045 770.536C139.706 770.536 140.282 770.648 140.773 770.872C141.274 771.096 141.696 771.405 142.037 771.8C142.378 772.184 142.634 772.643 142.805 773.176C142.976 773.699 143.061 774.264 143.061 774.872C143.061 775.48 142.976 776.045 142.805 776.568C142.634 777.091 142.378 777.549 142.037 777.944C141.696 778.328 141.274 778.632 140.773 778.856C140.282 779.069 139.706 779.176 139.045 779.176C138.394 779.176 137.818 779.069 137.317 778.856C136.816 778.632 136.394 778.328 136.053 777.944C135.712 777.549 135.456 777.091 135.285 776.568C135.114 776.045 135.029 775.48 135.029 774.872ZM144.665 770.728H145.945V772.04H145.977C146.542 771.037 147.438 770.536 148.665 770.536C149.209 770.536 149.662 770.611 150.025 770.76C150.387 770.909 150.681 771.117 150.905 771.384C151.129 771.651 151.283 771.971 151.369 772.344C151.465 772.707 151.513 773.112 151.513 773.56V779H150.153V773.4C150.153 772.888 150.003 772.483 149.705 772.184C149.406 771.885 148.995 771.736 148.473 771.736C148.057 771.736 147.694 771.8 147.385 771.928C147.086 772.056 146.835 772.237 146.633 772.472C146.43 772.707 146.275 772.984 146.169 773.304C146.073 773.613 146.025 773.955 146.025 774.328V779H144.665V770.728Z" fill="black" fill-opacity="0.68"/>
<g clip-path="url(#clip0_65346_30705)">
<rect width="240" height="60" transform="translate(270 743.501)" fill="black" fill-opacity="0.04"/>
</g>
<defs>
<clipPath id="clip0_65346_30705">
<rect width="240" height="60" fill="white" transform="translate(270 743.501)"/>
</clipPath>
</defs>
</svg>
