<svg width="600" height="380" viewBox="0 0 600 380" fill="none" xmlns="http://www.w3.org/2000/svg">
<rect width="600" height="380" fill="black" fill-opacity="0.04"/>
<path d="M91.248 74.076H99.136V75.356H92.768V78.988H98.704V80.268H92.768V84.22H99.184V85.5H91.248V74.076ZM100.805 77.228H102.085V78.444H102.117C102.736 77.5053 103.627 77.036 104.789 77.036C105.301 77.036 105.765 77.1427 106.181 77.356C106.597 77.5693 106.891 77.932 107.061 78.444C107.339 77.996 107.701 77.6493 108.149 77.404C108.608 77.1587 109.109 77.036 109.653 77.036C110.069 77.036 110.443 77.084 110.773 77.18C111.115 77.2653 111.403 77.404 111.637 77.596C111.883 77.788 112.069 78.0387 112.197 78.348C112.336 78.6467 112.405 79.0093 112.405 79.436V85.5H111.045V80.076C111.045 79.82 111.024 79.58 110.981 79.356C110.939 79.132 110.859 78.94 110.741 78.78C110.624 78.6093 110.459 78.476 110.245 78.38C110.043 78.284 109.776 78.236 109.445 78.236C108.773 78.236 108.245 78.428 107.861 78.812C107.477 79.196 107.285 79.708 107.285 80.348V85.5H105.925V80.076C105.925 79.8093 105.899 79.564 105.845 79.34C105.803 79.116 105.723 78.924 105.605 78.764C105.488 78.5933 105.328 78.4653 105.125 78.38C104.933 78.284 104.683 78.236 104.373 78.236C103.979 78.236 103.637 78.316 103.349 78.476C103.072 78.636 102.843 78.828 102.661 79.052C102.491 79.276 102.363 79.5107 102.277 79.756C102.203 79.9907 102.165 80.188 102.165 80.348V85.5H100.805V77.228ZM114.494 77.228H115.854V78.348H115.886C116.11 77.8893 116.462 77.5587 116.942 77.356C117.422 77.1427 117.95 77.036 118.526 77.036C119.166 77.036 119.721 77.1533 120.19 77.388C120.67 77.6227 121.065 77.9427 121.374 78.348C121.694 78.7427 121.934 79.2013 122.094 79.724C122.254 80.2467 122.334 80.8013 122.334 81.388C122.334 81.9747 122.254 82.5293 122.094 83.052C121.945 83.5747 121.71 84.0333 121.39 84.428C121.081 84.812 120.686 85.116 120.206 85.34C119.737 85.564 119.187 85.676 118.558 85.676C118.355 85.676 118.126 85.6547 117.87 85.612C117.625 85.5693 117.379 85.5 117.134 85.404C116.889 85.308 116.654 85.18 116.43 85.02C116.217 84.8493 116.035 84.6413 115.886 84.396H115.854V88.652H114.494V77.228ZM120.894 81.292C120.894 80.908 120.841 80.5347 120.734 80.172C120.638 79.7987 120.483 79.468 120.27 79.18C120.067 78.892 119.801 78.6627 119.47 78.492C119.15 78.3213 118.771 78.236 118.334 78.236C117.875 78.236 117.486 78.3267 117.166 78.508C116.846 78.6893 116.585 78.9293 116.382 79.228C116.179 79.516 116.03 79.8467 115.934 80.22C115.849 80.5933 115.806 80.972 115.806 81.356C115.806 81.7613 115.854 82.156 115.95 82.54C116.046 82.9133 116.195 83.244 116.398 83.532C116.611 83.82 116.883 84.0547 117.214 84.236C117.545 84.4067 117.945 84.492 118.414 84.492C118.883 84.492 119.273 84.4013 119.582 84.22C119.902 84.0387 120.158 83.7987 120.35 83.5C120.542 83.2013 120.681 82.86 120.766 82.476C120.851 82.092 120.894 81.6973 120.894 81.292ZM125.818 77.228H127.466V78.428H125.818V83.564C125.818 83.724 125.829 83.852 125.85 83.948C125.882 84.044 125.936 84.1187 126.01 84.172C126.085 84.2253 126.186 84.2627 126.314 84.284C126.453 84.2947 126.629 84.3 126.842 84.3H127.466V85.5H126.426C126.074 85.5 125.77 85.4787 125.514 85.436C125.269 85.3827 125.066 85.292 124.906 85.164C124.757 85.036 124.645 84.8547 124.57 84.62C124.496 84.3853 124.458 84.076 124.458 83.692V78.428H123.05V77.228H124.458V74.748H125.818V77.228ZM132.225 86.604C132.065 87.0093 131.905 87.3507 131.745 87.628C131.596 87.9053 131.425 88.1293 131.233 88.3C131.052 88.4813 130.844 88.6093 130.609 88.684C130.385 88.7693 130.124 88.812 129.825 88.812C129.665 88.812 129.505 88.8013 129.345 88.78C129.185 88.7587 129.03 88.7213 128.881 88.668V87.42C128.998 87.4733 129.132 87.516 129.281 87.548C129.441 87.5907 129.574 87.612 129.681 87.612C129.958 87.612 130.188 87.5427 130.369 87.404C130.561 87.276 130.705 87.0893 130.801 86.844L131.361 85.452L128.081 77.228H129.617L132.033 83.996H132.065L134.385 77.228H135.825L132.225 86.604Z" fill="black" fill-opacity="0.68"/>
<mask id="path-2-inside-1_65671_5969" fill="white">
<path d="M270 50H510V110H270V50Z"/>
</mask>
<path d="M270 50H510V110H270V50Z" fill="black" fill-opacity="0.04"/>
<path d="M510 110V109H270V110V111H510V110Z" fill="black" fill-opacity="0.2" mask="url(#path-2-inside-1_65671_5969)"/>
<path d="M287.248 74.576H288.768V84.72H294.816V86H287.248V74.576ZM303.443 85.968C303.208 86.1067 302.883 86.176 302.467 86.176C302.115 86.176 301.832 86.08 301.619 85.888C301.416 85.6853 301.315 85.36 301.315 84.912C300.941 85.36 300.504 85.6853 300.003 85.888C299.512 86.08 298.979 86.176 298.403 86.176C298.029 86.176 297.672 86.1333 297.331 86.048C297 85.9627 296.712 85.8293 296.467 85.648C296.221 85.4667 296.024 85.232 295.875 84.944C295.736 84.6453 295.667 84.288 295.667 83.872C295.667 83.4027 295.747 83.0187 295.907 82.72C296.067 82.4213 296.275 82.1813 296.531 82C296.797 81.808 297.096 81.664 297.427 81.568C297.768 81.472 298.115 81.392 298.467 81.328C298.84 81.2533 299.192 81.2 299.523 81.168C299.864 81.1253 300.163 81.072 300.419 81.008C300.675 80.9333 300.877 80.832 301.027 80.704C301.176 80.5653 301.251 80.368 301.251 80.112C301.251 79.8133 301.192 79.5733 301.075 79.392C300.968 79.2107 300.824 79.072 300.643 78.976C300.472 78.88 300.275 78.816 300.051 78.784C299.837 78.752 299.624 78.736 299.411 78.736C298.835 78.736 298.355 78.848 297.971 79.072C297.587 79.2853 297.379 79.696 297.347 80.304H295.987C296.008 79.792 296.115 79.36 296.307 79.008C296.499 78.656 296.755 78.3733 297.075 78.16C297.395 77.936 297.757 77.776 298.163 77.68C298.579 77.584 299.021 77.536 299.491 77.536C299.864 77.536 300.232 77.5627 300.595 77.616C300.968 77.6693 301.304 77.7813 301.603 77.952C301.901 78.112 302.141 78.3413 302.323 78.64C302.504 78.9387 302.595 79.328 302.595 79.808V84.064C302.595 84.384 302.611 84.6187 302.643 84.768C302.685 84.9173 302.813 84.992 303.027 84.992C303.144 84.992 303.283 84.9653 303.443 84.912V85.968ZM301.235 81.728C301.064 81.856 300.84 81.952 300.563 82.016C300.285 82.0693 299.992 82.1173 299.683 82.16C299.384 82.192 299.08 82.2347 298.771 82.288C298.461 82.3307 298.184 82.4053 297.939 82.512C297.693 82.6187 297.491 82.7733 297.331 82.976C297.181 83.168 297.107 83.4347 297.107 83.776C297.107 84 297.149 84.192 297.235 84.352C297.331 84.5013 297.448 84.624 297.587 84.72C297.736 84.816 297.907 84.8853 298.099 84.928C298.291 84.9707 298.493 84.992 298.707 84.992C299.155 84.992 299.539 84.9333 299.859 84.816C300.179 84.688 300.44 84.5333 300.643 84.352C300.845 84.16 300.995 83.9573 301.091 83.744C301.187 83.52 301.235 83.312 301.235 83.12V81.728ZM304.956 74.576H306.316V78.848H306.348C306.572 78.3893 306.924 78.0587 307.404 77.856C307.884 77.6427 308.412 77.536 308.988 77.536C309.628 77.536 310.183 77.6533 310.652 77.888C311.132 78.1227 311.527 78.4427 311.836 78.848C312.156 79.2427 312.396 79.7013 312.556 80.224C312.716 80.7467 312.796 81.3013 312.796 81.888C312.796 82.4747 312.716 83.0293 312.556 83.552C312.407 84.0747 312.172 84.5333 311.852 84.928C311.543 85.312 311.148 85.616 310.668 85.84C310.199 86.064 309.65 86.176 309.02 86.176C308.818 86.176 308.588 86.1547 308.332 86.112C308.087 86.0693 307.842 86 307.596 85.904C307.351 85.808 307.116 85.68 306.892 85.52C306.679 85.3493 306.498 85.1413 306.348 84.896H306.316V86H304.956V74.576ZM311.356 81.792C311.356 81.408 311.303 81.0347 311.196 80.672C311.1 80.2987 310.946 79.968 310.732 79.68C310.53 79.392 310.263 79.1627 309.932 78.992C309.612 78.8213 309.234 78.736 308.796 78.736C308.338 78.736 307.948 78.8267 307.628 79.008C307.308 79.1893 307.047 79.4293 306.844 79.728C306.642 80.016 306.492 80.3467 306.396 80.72C306.311 81.0933 306.268 81.472 306.268 81.856C306.268 82.2613 306.316 82.656 306.412 83.04C306.508 83.4133 306.658 83.744 306.86 84.032C307.074 84.32 307.346 84.5547 307.676 84.736C308.007 84.9067 308.407 84.992 308.876 84.992C309.346 84.992 309.735 84.9013 310.044 84.72C310.364 84.5387 310.62 84.2987 310.812 84C311.004 83.7013 311.143 83.36 311.228 82.976C311.314 82.592 311.356 82.1973 311.356 81.792ZM320.337 81.072C320.315 80.752 320.241 80.448 320.113 80.16C319.995 79.872 319.83 79.6267 319.617 79.424C319.414 79.2107 319.169 79.0453 318.881 78.928C318.603 78.8 318.294 78.736 317.953 78.736C317.601 78.736 317.281 78.8 316.993 78.928C316.715 79.0453 316.475 79.2107 316.273 79.424C316.07 79.6373 315.91 79.888 315.793 80.176C315.675 80.4533 315.606 80.752 315.585 81.072H320.337ZM321.649 83.376C321.467 84.304 321.067 85.0027 320.449 85.472C319.83 85.9413 319.051 86.176 318.113 86.176C317.451 86.176 316.875 86.0693 316.385 85.856C315.905 85.6427 315.499 85.344 315.169 84.96C314.838 84.576 314.587 84.1173 314.417 83.584C314.257 83.0507 314.166 82.4693 314.145 81.84C314.145 81.2107 314.241 80.6347 314.433 80.112C314.625 79.5893 314.891 79.136 315.233 78.752C315.585 78.368 315.995 78.0693 316.465 77.856C316.945 77.6427 317.467 77.536 318.033 77.536C318.769 77.536 319.377 77.6907 319.857 78C320.347 78.2987 320.737 78.6827 321.025 79.152C321.323 79.6213 321.526 80.1333 321.633 80.688C321.75 81.2427 321.798 81.7707 321.777 82.272H315.585C315.574 82.6347 315.617 82.9813 315.713 83.312C315.809 83.632 315.963 83.92 316.177 84.176C316.39 84.4213 316.662 84.6187 316.993 84.768C317.323 84.9173 317.713 84.992 318.161 84.992C318.737 84.992 319.206 84.8587 319.569 84.592C319.942 84.3253 320.187 83.92 320.305 83.376H321.649ZM323.466 74.576H324.826V86H323.466V74.576Z" fill="black" fill-opacity="0.68"/>
<path d="M91.248 184.076H99.136V185.356H92.768V188.988H98.704V190.268H92.768V194.22H99.184V195.5H91.248V184.076ZM100.805 187.228H102.085V188.444H102.117C102.736 187.505 103.627 187.036 104.789 187.036C105.301 187.036 105.765 187.143 106.181 187.356C106.597 187.569 106.891 187.932 107.061 188.444C107.339 187.996 107.701 187.649 108.149 187.404C108.608 187.159 109.109 187.036 109.653 187.036C110.069 187.036 110.443 187.084 110.773 187.18C111.115 187.265 111.403 187.404 111.637 187.596C111.883 187.788 112.069 188.039 112.197 188.348C112.336 188.647 112.405 189.009 112.405 189.436V195.5H111.045V190.076C111.045 189.82 111.024 189.58 110.981 189.356C110.939 189.132 110.859 188.94 110.741 188.78C110.624 188.609 110.459 188.476 110.245 188.38C110.043 188.284 109.776 188.236 109.445 188.236C108.773 188.236 108.245 188.428 107.861 188.812C107.477 189.196 107.285 189.708 107.285 190.348V195.5H105.925V190.076C105.925 189.809 105.899 189.564 105.845 189.34C105.803 189.116 105.723 188.924 105.605 188.764C105.488 188.593 105.328 188.465 105.125 188.38C104.933 188.284 104.683 188.236 104.373 188.236C103.979 188.236 103.637 188.316 103.349 188.476C103.072 188.636 102.843 188.828 102.661 189.052C102.491 189.276 102.363 189.511 102.277 189.756C102.203 189.991 102.165 190.188 102.165 190.348V195.5H100.805V187.228ZM114.494 187.228H115.854V188.348H115.886C116.11 187.889 116.462 187.559 116.942 187.356C117.422 187.143 117.95 187.036 118.526 187.036C119.166 187.036 119.721 187.153 120.19 187.388C120.67 187.623 121.065 187.943 121.374 188.348C121.694 188.743 121.934 189.201 122.094 189.724C122.254 190.247 122.334 190.801 122.334 191.388C122.334 191.975 122.254 192.529 122.094 193.052C121.945 193.575 121.71 194.033 121.39 194.428C121.081 194.812 120.686 195.116 120.206 195.34C119.737 195.564 119.187 195.676 118.558 195.676C118.355 195.676 118.126 195.655 117.87 195.612C117.625 195.569 117.379 195.5 117.134 195.404C116.889 195.308 116.654 195.18 116.43 195.02C116.217 194.849 116.035 194.641 115.886 194.396H115.854V198.652H114.494V187.228ZM120.894 191.292C120.894 190.908 120.841 190.535 120.734 190.172C120.638 189.799 120.483 189.468 120.27 189.18C120.067 188.892 119.801 188.663 119.47 188.492C119.15 188.321 118.771 188.236 118.334 188.236C117.875 188.236 117.486 188.327 117.166 188.508C116.846 188.689 116.585 188.929 116.382 189.228C116.179 189.516 116.03 189.847 115.934 190.22C115.849 190.593 115.806 190.972 115.806 191.356C115.806 191.761 115.854 192.156 115.95 192.54C116.046 192.913 116.195 193.244 116.398 193.532C116.611 193.82 116.883 194.055 117.214 194.236C117.545 194.407 117.945 194.492 118.414 194.492C118.883 194.492 119.273 194.401 119.582 194.22C119.902 194.039 120.158 193.799 120.35 193.5C120.542 193.201 120.681 192.86 120.766 192.476C120.851 192.092 120.894 191.697 120.894 191.292ZM125.818 187.228H127.466V188.428H125.818V193.564C125.818 193.724 125.829 193.852 125.85 193.948C125.882 194.044 125.936 194.119 126.01 194.172C126.085 194.225 126.186 194.263 126.314 194.284C126.453 194.295 126.629 194.3 126.842 194.3H127.466V195.5H126.426C126.074 195.5 125.77 195.479 125.514 195.436C125.269 195.383 125.066 195.292 124.906 195.164C124.757 195.036 124.645 194.855 124.57 194.62C124.496 194.385 124.458 194.076 124.458 193.692V188.428H123.05V187.228H124.458V184.748H125.818V187.228ZM132.225 196.604C132.065 197.009 131.905 197.351 131.745 197.628C131.596 197.905 131.425 198.129 131.233 198.3C131.052 198.481 130.844 198.609 130.609 198.684C130.385 198.769 130.124 198.812 129.825 198.812C129.665 198.812 129.505 198.801 129.345 198.78C129.185 198.759 129.03 198.721 128.881 198.668V197.42C128.998 197.473 129.132 197.516 129.281 197.548C129.441 197.591 129.574 197.612 129.681 197.612C129.958 197.612 130.188 197.543 130.369 197.404C130.561 197.276 130.705 197.089 130.801 196.844L131.361 195.452L128.081 187.228H129.617L132.033 193.996H132.065L134.385 187.228H135.825L132.225 196.604ZM143.67 198.652C143.286 198.055 142.94 197.457 142.63 196.86C142.321 196.273 142.054 195.676 141.83 195.068C141.617 194.46 141.452 193.836 141.334 193.196C141.217 192.556 141.158 191.884 141.158 191.18C141.158 189.921 141.366 188.652 141.782 187.372C142.209 186.092 142.838 184.903 143.67 183.804H144.71C143.942 185.02 143.398 186.225 143.078 187.42C142.758 188.615 142.598 189.868 142.598 191.18C142.598 192.524 142.758 193.799 143.078 195.004C143.409 196.209 143.953 197.425 144.71 198.652H143.67ZM147.315 189.548H150.291C151.155 189.559 151.784 189.383 152.179 189.02C152.584 188.657 152.787 188.135 152.787 187.452C152.787 186.769 152.584 186.252 152.179 185.9C151.784 185.537 151.155 185.356 150.291 185.356H147.315V189.548ZM145.795 184.076H150.803C151.955 184.076 152.824 184.375 153.411 184.972C154.008 185.559 154.307 186.385 154.307 187.452C154.307 188.519 154.008 189.351 153.411 189.948C152.824 190.545 151.955 190.839 150.803 190.828H147.315V195.5H145.795V184.076ZM156.026 184.076H157.386V195.5H156.026V184.076ZM166.821 195.468C166.586 195.607 166.261 195.676 165.845 195.676C165.493 195.676 165.21 195.58 164.997 195.388C164.794 195.185 164.693 194.86 164.693 194.412C164.319 194.86 163.882 195.185 163.381 195.388C162.89 195.58 162.357 195.676 161.781 195.676C161.407 195.676 161.05 195.633 160.709 195.548C160.378 195.463 160.09 195.329 159.845 195.148C159.599 194.967 159.402 194.732 159.253 194.444C159.114 194.145 159.045 193.788 159.045 193.372C159.045 192.903 159.125 192.519 159.285 192.22C159.445 191.921 159.653 191.681 159.909 191.5C160.175 191.308 160.474 191.164 160.805 191.068C161.146 190.972 161.493 190.892 161.845 190.828C162.218 190.753 162.57 190.7 162.901 190.668C163.242 190.625 163.541 190.572 163.797 190.508C164.053 190.433 164.255 190.332 164.405 190.204C164.554 190.065 164.629 189.868 164.629 189.612C164.629 189.313 164.57 189.073 164.453 188.892C164.346 188.711 164.202 188.572 164.021 188.476C163.85 188.38 163.653 188.316 163.429 188.284C163.215 188.252 163.002 188.236 162.789 188.236C162.213 188.236 161.733 188.348 161.349 188.572C160.965 188.785 160.757 189.196 160.725 189.804H159.365C159.386 189.292 159.493 188.86 159.685 188.508C159.877 188.156 160.133 187.873 160.453 187.66C160.773 187.436 161.135 187.276 161.541 187.18C161.957 187.084 162.399 187.036 162.869 187.036C163.242 187.036 163.61 187.063 163.973 187.116C164.346 187.169 164.682 187.281 164.981 187.452C165.279 187.612 165.519 187.841 165.701 188.14C165.882 188.439 165.973 188.828 165.973 189.308V193.564C165.973 193.884 165.989 194.119 166.021 194.268C166.063 194.417 166.191 194.492 166.405 194.492C166.522 194.492 166.661 194.465 166.821 194.412V195.468ZM164.613 191.228C164.442 191.356 164.218 191.452 163.941 191.516C163.663 191.569 163.37 191.617 163.061 191.66C162.762 191.692 162.458 191.735 162.149 191.788C161.839 191.831 161.562 191.905 161.317 192.012C161.071 192.119 160.869 192.273 160.709 192.476C160.559 192.668 160.485 192.935 160.485 193.276C160.485 193.5 160.527 193.692 160.613 193.852C160.709 194.001 160.826 194.124 160.965 194.22C161.114 194.316 161.285 194.385 161.477 194.428C161.669 194.471 161.871 194.492 162.085 194.492C162.533 194.492 162.917 194.433 163.237 194.316C163.557 194.188 163.818 194.033 164.021 193.852C164.223 193.66 164.373 193.457 164.469 193.244C164.565 193.02 164.613 192.812 164.613 192.62V191.228ZM173.703 189.884C173.596 189.361 173.372 188.956 173.031 188.668C172.689 188.38 172.231 188.236 171.655 188.236C171.164 188.236 170.753 188.327 170.423 188.508C170.092 188.689 169.825 188.929 169.623 189.228C169.431 189.527 169.292 189.873 169.207 190.268C169.121 190.652 169.079 191.052 169.079 191.468C169.079 191.852 169.121 192.225 169.207 192.588C169.303 192.951 169.447 193.276 169.639 193.564C169.831 193.841 170.081 194.065 170.391 194.236C170.7 194.407 171.068 194.492 171.495 194.492C172.167 194.492 172.689 194.316 173.063 193.964C173.447 193.612 173.681 193.116 173.767 192.476H175.159C175.009 193.5 174.625 194.289 174.007 194.844C173.399 195.399 172.567 195.676 171.511 195.676C170.881 195.676 170.321 195.575 169.831 195.372C169.351 195.169 168.945 194.881 168.615 194.508C168.295 194.135 168.049 193.692 167.879 193.18C167.719 192.657 167.639 192.087 167.639 191.468C167.639 190.849 167.719 190.273 167.879 189.74C168.039 189.196 168.279 188.727 168.599 188.332C168.929 187.927 169.34 187.612 169.831 187.388C170.321 187.153 170.892 187.036 171.543 187.036C172.012 187.036 172.449 187.095 172.855 187.212C173.271 187.319 173.633 187.489 173.943 187.724C174.263 187.959 174.524 188.257 174.727 188.62C174.929 188.972 175.057 189.393 175.111 189.884H173.703ZM182.424 190.572C182.403 190.252 182.328 189.948 182.2 189.66C182.083 189.372 181.918 189.127 181.704 188.924C181.502 188.711 181.256 188.545 180.968 188.428C180.691 188.3 180.382 188.236 180.04 188.236C179.688 188.236 179.368 188.3 179.08 188.428C178.803 188.545 178.563 188.711 178.36 188.924C178.158 189.137 177.998 189.388 177.88 189.676C177.763 189.953 177.694 190.252 177.672 190.572H182.424ZM183.736 192.876C183.555 193.804 183.155 194.503 182.536 194.972C181.918 195.441 181.139 195.676 180.2 195.676C179.539 195.676 178.963 195.569 178.472 195.356C177.992 195.143 177.587 194.844 177.256 194.46C176.926 194.076 176.675 193.617 176.504 193.084C176.344 192.551 176.254 191.969 176.232 191.34C176.232 190.711 176.328 190.135 176.52 189.612C176.712 189.089 176.979 188.636 177.32 188.252C177.672 187.868 178.083 187.569 178.552 187.356C179.032 187.143 179.555 187.036 180.12 187.036C180.856 187.036 181.464 187.191 181.944 187.5C182.435 187.799 182.824 188.183 183.112 188.652C183.411 189.121 183.614 189.633 183.72 190.188C183.838 190.743 183.886 191.271 183.864 191.772H177.672C177.662 192.135 177.704 192.481 177.8 192.812C177.896 193.132 178.051 193.42 178.264 193.676C178.478 193.921 178.75 194.119 179.08 194.268C179.411 194.417 179.8 194.492 180.248 194.492C180.824 194.492 181.294 194.359 181.656 194.092C182.03 193.825 182.275 193.42 182.392 192.876H183.736ZM185.274 184.076H186.634V188.444H186.666C186.773 188.188 186.922 187.975 187.114 187.804C187.306 187.623 187.519 187.479 187.754 187.372C187.999 187.255 188.25 187.169 188.506 187.116C188.773 187.063 189.029 187.036 189.274 187.036C189.818 187.036 190.271 187.111 190.634 187.26C190.997 187.409 191.29 187.617 191.514 187.884C191.738 188.151 191.893 188.471 191.978 188.844C192.074 189.207 192.122 189.612 192.122 190.06V195.5H190.762V189.9C190.762 189.388 190.613 188.983 190.314 188.684C190.015 188.385 189.605 188.236 189.082 188.236C188.666 188.236 188.303 188.3 187.994 188.428C187.695 188.556 187.445 188.737 187.242 188.972C187.039 189.207 186.885 189.484 186.778 189.804C186.682 190.113 186.634 190.455 186.634 190.828V195.5H185.274V184.076ZM195.157 191.372C195.157 191.873 195.221 192.321 195.349 192.716C195.487 193.1 195.674 193.425 195.909 193.692C196.143 193.948 196.415 194.145 196.725 194.284C197.045 194.423 197.381 194.492 197.733 194.492C198.085 194.492 198.415 194.423 198.725 194.284C199.045 194.145 199.322 193.948 199.557 193.692C199.791 193.425 199.973 193.1 200.101 192.716C200.239 192.321 200.309 191.873 200.309 191.372C200.309 190.871 200.239 190.428 200.101 190.044C199.973 189.649 199.791 189.319 199.557 189.052C199.322 188.785 199.045 188.583 198.725 188.444C198.415 188.305 198.085 188.236 197.733 188.236C197.381 188.236 197.045 188.305 196.725 188.444C196.415 188.583 196.143 188.785 195.909 189.052C195.674 189.319 195.487 189.649 195.349 190.044C195.221 190.428 195.157 190.871 195.157 191.372ZM193.717 191.372C193.717 190.764 193.802 190.199 193.973 189.676C194.143 189.143 194.399 188.684 194.741 188.3C195.082 187.905 195.503 187.596 196.005 187.372C196.506 187.148 197.082 187.036 197.733 187.036C198.394 187.036 198.97 187.148 199.461 187.372C199.962 187.596 200.383 187.905 200.725 188.3C201.066 188.684 201.322 189.143 201.493 189.676C201.663 190.199 201.749 190.764 201.749 191.372C201.749 191.98 201.663 192.545 201.493 193.068C201.322 193.591 201.066 194.049 200.725 194.444C200.383 194.828 199.962 195.132 199.461 195.356C198.97 195.569 198.394 195.676 197.733 195.676C197.082 195.676 196.506 195.569 196.005 195.356C195.503 195.132 195.082 194.828 194.741 194.444C194.399 194.049 194.143 193.591 193.973 193.068C193.802 192.545 193.717 191.98 193.717 191.372ZM203.432 184.076H204.792V195.5H203.432V184.076ZM207.891 191.436C207.891 191.82 207.939 192.199 208.035 192.572C208.142 192.935 208.296 193.26 208.499 193.548C208.712 193.836 208.979 194.065 209.299 194.236C209.63 194.407 210.014 194.492 210.451 194.492C210.91 194.492 211.299 194.401 211.619 194.22C211.939 194.039 212.2 193.804 212.403 193.516C212.606 193.217 212.75 192.881 212.835 192.508C212.931 192.135 212.979 191.756 212.979 191.372C212.979 190.967 212.931 190.577 212.835 190.204C212.739 189.82 212.584 189.484 212.371 189.196C212.168 188.908 211.902 188.679 211.571 188.508C211.24 188.327 210.84 188.236 210.371 188.236C209.912 188.236 209.523 188.327 209.203 188.508C208.883 188.689 208.627 188.929 208.435 189.228C208.243 189.527 208.104 189.868 208.019 190.252C207.934 190.636 207.891 191.031 207.891 191.436ZM214.291 195.5H212.931V194.38H212.899C212.675 194.839 212.323 195.169 211.843 195.372C211.363 195.575 210.835 195.676 210.259 195.676C209.619 195.676 209.059 195.559 208.579 195.324C208.11 195.089 207.715 194.775 207.395 194.38C207.086 193.985 206.851 193.527 206.691 193.004C206.531 192.481 206.451 191.927 206.451 191.34C206.451 190.753 206.526 190.199 206.675 189.676C206.835 189.153 207.07 188.7 207.379 188.316C207.699 187.921 208.094 187.612 208.563 187.388C209.043 187.153 209.598 187.036 210.227 187.036C210.44 187.036 210.67 187.057 210.915 187.1C211.16 187.143 211.406 187.217 211.651 187.324C211.896 187.42 212.126 187.553 212.339 187.724C212.563 187.884 212.75 188.087 212.899 188.332H212.931V184.076H214.291V195.5ZM222.127 190.572C222.106 190.252 222.031 189.948 221.903 189.66C221.786 189.372 221.621 189.127 221.407 188.924C221.205 188.711 220.959 188.545 220.671 188.428C220.394 188.3 220.085 188.236 219.743 188.236C219.391 188.236 219.071 188.3 218.783 188.428C218.506 188.545 218.266 188.711 218.063 188.924C217.861 189.137 217.701 189.388 217.583 189.676C217.466 189.953 217.397 190.252 217.375 190.572H222.127ZM223.439 192.876C223.258 193.804 222.858 194.503 222.239 194.972C221.621 195.441 220.842 195.676 219.903 195.676C219.242 195.676 218.666 195.569 218.175 195.356C217.695 195.143 217.29 194.844 216.959 194.46C216.629 194.076 216.378 193.617 216.207 193.084C216.047 192.551 215.957 191.969 215.935 191.34C215.935 190.711 216.031 190.135 216.223 189.612C216.415 189.089 216.682 188.636 217.023 188.252C217.375 187.868 217.786 187.569 218.255 187.356C218.735 187.143 219.258 187.036 219.823 187.036C220.559 187.036 221.167 187.191 221.647 187.5C222.138 187.799 222.527 188.183 222.815 188.652C223.114 189.121 223.317 189.633 223.423 190.188C223.541 190.743 223.589 191.271 223.567 191.772H217.375C217.365 192.135 217.407 192.481 217.503 192.812C217.599 193.132 217.754 193.42 217.967 193.676C218.181 193.921 218.453 194.119 218.783 194.268C219.114 194.417 219.503 194.492 219.951 194.492C220.527 194.492 220.997 194.359 221.359 194.092C221.733 193.825 221.978 193.42 222.095 192.876H223.439ZM224.929 187.228H226.209V188.972H226.241C226.572 188.3 226.977 187.804 227.457 187.484C227.937 187.164 228.545 187.015 229.281 187.036V188.476C228.737 188.476 228.273 188.551 227.889 188.7C227.505 188.849 227.196 189.068 226.961 189.356C226.726 189.644 226.556 189.996 226.449 190.412C226.342 190.817 226.289 191.287 226.289 191.82V195.5H224.929V187.228ZM229.137 198.652C229.895 197.447 230.433 196.247 230.753 195.052C231.073 193.847 231.233 192.593 231.233 191.292C231.233 189.948 231.068 188.673 230.737 187.468C230.417 186.252 229.884 185.031 229.137 183.804H230.161C230.545 184.401 230.892 184.999 231.201 185.596C231.511 186.183 231.772 186.785 231.985 187.404C232.209 188.012 232.38 188.636 232.497 189.276C232.615 189.916 232.673 190.588 232.673 191.292C232.673 192.551 232.46 193.82 232.033 195.1C231.617 196.369 230.993 197.553 230.161 198.652H229.137Z" fill="black" fill-opacity="0.68"/>
<mask id="path-6-inside-2_65671_5969" fill="white">
<path d="M270 160H510V220H270V160Z"/>
</mask>
<path d="M270 160H510V220H270V160Z" fill="black" fill-opacity="0.04"/>
<path d="M510 220V219H270V220V221H510V220Z" fill="black" fill-opacity="0.2" mask="url(#path-6-inside-2_65671_5969)"/>
<path d="M286.936 173.432H288.076V181.04H292.612V182H286.936V173.432ZM299.112 181.976C298.936 182.08 298.692 182.132 298.38 182.132C298.116 182.132 297.904 182.06 297.744 181.916C297.592 181.764 297.516 181.52 297.516 181.184C297.236 181.52 296.908 181.764 296.532 181.916C296.164 182.06 295.764 182.132 295.332 182.132C295.052 182.132 294.784 182.1 294.528 182.036C294.28 181.972 294.064 181.872 293.88 181.736C293.696 181.6 293.548 181.424 293.436 181.208C293.332 180.984 293.28 180.716 293.28 180.404C293.28 180.052 293.34 179.764 293.46 179.54C293.58 179.316 293.736 179.136 293.928 179C294.128 178.856 294.352 178.748 294.6 178.676C294.856 178.604 295.116 178.544 295.38 178.496C295.66 178.44 295.924 178.4 296.172 178.376C296.428 178.344 296.652 178.304 296.844 178.256C297.036 178.2 297.188 178.124 297.3 178.028C297.412 177.924 297.468 177.776 297.468 177.584C297.468 177.36 297.424 177.18 297.336 177.044C297.256 176.908 297.148 176.804 297.012 176.732C296.884 176.66 296.736 176.612 296.568 176.588C296.408 176.564 296.248 176.552 296.088 176.552C295.656 176.552 295.296 176.636 295.008 176.804C294.72 176.964 294.564 177.272 294.54 177.728H293.52C293.536 177.344 293.616 177.02 293.76 176.756C293.904 176.492 294.096 176.28 294.336 176.12C294.576 175.952 294.848 175.832 295.152 175.76C295.464 175.688 295.796 175.652 296.148 175.652C296.428 175.652 296.704 175.672 296.976 175.712C297.256 175.752 297.508 175.836 297.732 175.964C297.956 176.084 298.136 176.256 298.272 176.48C298.408 176.704 298.476 176.996 298.476 177.356V180.548C298.476 180.788 298.488 180.964 298.512 181.076C298.544 181.188 298.64 181.244 298.8 181.244C298.888 181.244 298.992 181.224 299.112 181.184V181.976ZM297.456 178.796C297.328 178.892 297.16 178.964 296.952 179.012C296.744 179.052 296.524 179.088 296.292 179.12C296.068 179.144 295.84 179.176 295.608 179.216C295.376 179.248 295.168 179.304 294.984 179.384C294.8 179.464 294.648 179.58 294.528 179.732C294.416 179.876 294.36 180.076 294.36 180.332C294.36 180.5 294.392 180.644 294.456 180.764C294.528 180.876 294.616 180.968 294.72 181.04C294.832 181.112 294.96 181.164 295.104 181.196C295.248 181.228 295.4 181.244 295.56 181.244C295.896 181.244 296.184 181.2 296.424 181.112C296.664 181.016 296.86 180.9 297.012 180.764C297.164 180.62 297.276 180.468 297.348 180.308C297.42 180.14 297.456 179.984 297.456 179.84V178.796ZM300.277 173.432H301.297V176.636H301.321C301.489 176.292 301.753 176.044 302.113 175.892C302.473 175.732 302.869 175.652 303.301 175.652C303.781 175.652 304.197 175.74 304.549 175.916C304.909 176.092 305.205 176.332 305.437 176.636C305.677 176.932 305.857 177.276 305.977 177.668C306.097 178.06 306.157 178.476 306.157 178.916C306.157 179.356 306.097 179.772 305.977 180.164C305.865 180.556 305.689 180.9 305.449 181.196C305.217 181.484 304.921 181.712 304.561 181.88C304.209 182.048 303.797 182.132 303.325 182.132C303.173 182.132 303.001 182.116 302.809 182.084C302.625 182.052 302.441 182 302.257 181.928C302.073 181.856 301.897 181.76 301.729 181.64C301.569 181.512 301.433 181.356 301.321 181.172H301.297V182H300.277V173.432ZM305.077 178.844C305.077 178.556 305.037 178.276 304.957 178.004C304.885 177.724 304.769 177.476 304.609 177.26C304.457 177.044 304.257 176.872 304.009 176.744C303.769 176.616 303.485 176.552 303.157 176.552C302.813 176.552 302.521 176.62 302.281 176.756C302.041 176.892 301.845 177.072 301.693 177.296C301.541 177.512 301.429 177.76 301.357 178.04C301.293 178.32 301.261 178.604 301.261 178.892C301.261 179.196 301.297 179.492 301.369 179.78C301.441 180.06 301.553 180.308 301.705 180.524C301.865 180.74 302.069 180.916 302.317 181.052C302.565 181.18 302.865 181.244 303.217 181.244C303.569 181.244 303.861 181.176 304.093 181.04C304.333 180.904 304.525 180.724 304.669 180.5C304.813 180.276 304.917 180.02 304.981 179.732C305.045 179.444 305.077 179.148 305.077 178.844ZM311.843 178.304C311.827 178.064 311.771 177.836 311.675 177.62C311.587 177.404 311.463 177.22 311.303 177.068C311.151 176.908 310.967 176.784 310.751 176.696C310.543 176.6 310.311 176.552 310.055 176.552C309.791 176.552 309.551 176.6 309.335 176.696C309.127 176.784 308.947 176.908 308.795 177.068C308.643 177.228 308.523 177.416 308.435 177.632C308.347 177.84 308.295 178.064 308.279 178.304H311.843ZM312.827 180.032C312.691 180.728 312.391 181.252 311.927 181.604C311.463 181.956 310.879 182.132 310.175 182.132C309.679 182.132 309.247 182.052 308.879 181.892C308.519 181.732 308.215 181.508 307.967 181.22C307.719 180.932 307.531 180.588 307.403 180.188C307.283 179.788 307.215 179.352 307.199 178.88C307.199 178.408 307.271 177.976 307.415 177.584C307.559 177.192 307.759 176.852 308.015 176.564C308.279 176.276 308.587 176.052 308.939 175.892C309.299 175.732 309.691 175.652 310.115 175.652C310.667 175.652 311.123 175.768 311.483 176C311.851 176.224 312.143 176.512 312.359 176.864C312.583 177.216 312.735 177.6 312.815 178.016C312.903 178.432 312.939 178.828 312.923 179.204H308.279C308.271 179.476 308.303 179.736 308.375 179.984C308.447 180.224 308.563 180.44 308.723 180.632C308.883 180.816 309.087 180.964 309.335 181.076C309.583 181.188 309.875 181.244 310.211 181.244C310.643 181.244 310.995 181.144 311.267 180.944C311.547 180.744 311.731 180.44 311.819 180.032H312.827ZM314.22 173.432H315.24V182H314.22V173.432Z" fill="black" fill-opacity="0.68"/>
<path d="M288.768 198.048H291.744C292.608 198.059 293.237 197.883 293.632 197.52C294.037 197.157 294.24 196.635 294.24 195.952C294.24 195.269 294.037 194.752 293.632 194.4C293.237 194.037 292.608 193.856 291.744 193.856H288.768V198.048ZM287.248 192.576H292.256C293.408 192.576 294.277 192.875 294.864 193.472C295.461 194.059 295.76 194.885 295.76 195.952C295.76 197.019 295.461 197.851 294.864 198.448C294.277 199.045 293.408 199.339 292.256 199.328H288.768V204H287.248V192.576ZM297.679 192.576H299.039V204H297.679V192.576ZM308.674 203.968C308.439 204.107 308.114 204.176 307.698 204.176C307.346 204.176 307.063 204.08 306.85 203.888C306.647 203.685 306.546 203.36 306.546 202.912C306.173 203.36 305.735 203.685 305.234 203.888C304.743 204.08 304.21 204.176 303.634 204.176C303.261 204.176 302.903 204.133 302.562 204.048C302.231 203.963 301.943 203.829 301.698 203.648C301.453 203.467 301.255 203.232 301.106 202.944C300.967 202.645 300.898 202.288 300.898 201.872C300.898 201.403 300.978 201.019 301.138 200.72C301.298 200.421 301.506 200.181 301.762 200C302.029 199.808 302.327 199.664 302.658 199.568C302.999 199.472 303.346 199.392 303.698 199.328C304.071 199.253 304.423 199.2 304.754 199.168C305.095 199.125 305.394 199.072 305.65 199.008C305.906 198.933 306.109 198.832 306.258 198.704C306.407 198.565 306.482 198.368 306.482 198.112C306.482 197.813 306.423 197.573 306.306 197.392C306.199 197.211 306.055 197.072 305.874 196.976C305.703 196.88 305.506 196.816 305.282 196.784C305.069 196.752 304.855 196.736 304.642 196.736C304.066 196.736 303.586 196.848 303.202 197.072C302.818 197.285 302.61 197.696 302.578 198.304H301.218C301.239 197.792 301.346 197.36 301.538 197.008C301.73 196.656 301.986 196.373 302.306 196.16C302.626 195.936 302.989 195.776 303.394 195.68C303.81 195.584 304.253 195.536 304.722 195.536C305.095 195.536 305.463 195.563 305.826 195.616C306.199 195.669 306.535 195.781 306.834 195.952C307.133 196.112 307.373 196.341 307.554 196.64C307.735 196.939 307.826 197.328 307.826 197.808V202.064C307.826 202.384 307.842 202.619 307.874 202.768C307.917 202.917 308.045 202.992 308.258 202.992C308.375 202.992 308.514 202.965 308.674 202.912V203.968ZM306.466 199.728C306.295 199.856 306.071 199.952 305.794 200.016C305.517 200.069 305.223 200.117 304.914 200.16C304.615 200.192 304.311 200.235 304.002 200.288C303.693 200.331 303.415 200.405 303.17 200.512C302.925 200.619 302.722 200.773 302.562 200.976C302.413 201.168 302.338 201.435 302.338 201.776C302.338 202 302.381 202.192 302.466 202.352C302.562 202.501 302.679 202.624 302.818 202.72C302.967 202.816 303.138 202.885 303.33 202.928C303.522 202.971 303.725 202.992 303.938 202.992C304.386 202.992 304.77 202.933 305.09 202.816C305.41 202.688 305.671 202.533 305.874 202.352C306.077 202.16 306.226 201.957 306.322 201.744C306.418 201.52 306.466 201.312 306.466 201.12V199.728ZM315.756 198.384C315.649 197.861 315.425 197.456 315.084 197.168C314.742 196.88 314.284 196.736 313.708 196.736C313.217 196.736 312.806 196.827 312.476 197.008C312.145 197.189 311.878 197.429 311.676 197.728C311.484 198.027 311.345 198.373 311.26 198.768C311.174 199.152 311.132 199.552 311.132 199.968C311.132 200.352 311.174 200.725 311.26 201.088C311.356 201.451 311.5 201.776 311.692 202.064C311.884 202.341 312.134 202.565 312.444 202.736C312.753 202.907 313.121 202.992 313.548 202.992C314.22 202.992 314.742 202.816 315.116 202.464C315.5 202.112 315.734 201.616 315.82 200.976H317.212C317.062 202 316.678 202.789 316.06 203.344C315.452 203.899 314.62 204.176 313.564 204.176C312.934 204.176 312.374 204.075 311.884 203.872C311.404 203.669 310.998 203.381 310.668 203.008C310.348 202.635 310.102 202.192 309.932 201.68C309.772 201.157 309.692 200.587 309.692 199.968C309.692 199.349 309.772 198.773 309.932 198.24C310.092 197.696 310.332 197.227 310.652 196.832C310.982 196.427 311.393 196.112 311.884 195.888C312.374 195.653 312.945 195.536 313.596 195.536C314.065 195.536 314.502 195.595 314.908 195.712C315.324 195.819 315.686 195.989 315.996 196.224C316.316 196.459 316.577 196.757 316.78 197.12C316.982 197.472 317.11 197.893 317.164 198.384H315.756ZM324.677 199.072C324.656 198.752 324.581 198.448 324.453 198.16C324.336 197.872 324.171 197.627 323.957 197.424C323.755 197.211 323.509 197.045 323.221 196.928C322.944 196.8 322.635 196.736 322.293 196.736C321.941 196.736 321.621 196.8 321.333 196.928C321.056 197.045 320.816 197.211 320.613 197.424C320.411 197.637 320.251 197.888 320.133 198.176C320.016 198.453 319.947 198.752 319.925 199.072H324.677ZM325.989 201.376C325.808 202.304 325.408 203.003 324.789 203.472C324.171 203.941 323.392 204.176 322.453 204.176C321.792 204.176 321.216 204.069 320.725 203.856C320.245 203.643 319.84 203.344 319.509 202.96C319.179 202.576 318.928 202.117 318.757 201.584C318.597 201.051 318.507 200.469 318.485 199.84C318.485 199.211 318.581 198.635 318.773 198.112C318.965 197.589 319.232 197.136 319.573 196.752C319.925 196.368 320.336 196.069 320.805 195.856C321.285 195.643 321.808 195.536 322.373 195.536C323.109 195.536 323.717 195.691 324.197 196C324.688 196.299 325.077 196.683 325.365 197.152C325.664 197.621 325.867 198.133 325.973 198.688C326.091 199.243 326.139 199.771 326.117 200.272H319.925C319.915 200.635 319.957 200.981 320.053 201.312C320.149 201.632 320.304 201.92 320.517 202.176C320.731 202.421 321.003 202.619 321.333 202.768C321.664 202.917 322.053 202.992 322.501 202.992C323.077 202.992 323.547 202.859 323.909 202.592C324.283 202.325 324.528 201.92 324.645 201.376H325.989ZM327.727 192.576H329.087V196.944H329.119C329.226 196.688 329.375 196.475 329.567 196.304C329.759 196.123 329.972 195.979 330.207 195.872C330.452 195.755 330.703 195.669 330.959 195.616C331.226 195.563 331.482 195.536 331.727 195.536C332.271 195.536 332.724 195.611 333.087 195.76C333.45 195.909 333.743 196.117 333.967 196.384C334.191 196.651 334.346 196.971 334.431 197.344C334.527 197.707 334.575 198.112 334.575 198.56V204H333.215V198.4C333.215 197.888 333.066 197.483 332.767 197.184C332.468 196.885 332.058 196.736 331.535 196.736C331.119 196.736 330.756 196.8 330.447 196.928C330.148 197.056 329.898 197.237 329.695 197.472C329.492 197.707 329.338 197.984 329.231 198.304C329.135 198.613 329.087 198.955 329.087 199.328V204H327.727V192.576ZM337.81 199.872C337.81 200.373 337.874 200.821 338.002 201.216C338.14 201.6 338.327 201.925 338.562 202.192C338.796 202.448 339.068 202.645 339.378 202.784C339.698 202.923 340.034 202.992 340.386 202.992C340.738 202.992 341.068 202.923 341.378 202.784C341.698 202.645 341.975 202.448 342.21 202.192C342.444 201.925 342.626 201.6 342.754 201.216C342.892 200.821 342.962 200.373 342.962 199.872C342.962 199.371 342.892 198.928 342.754 198.544C342.626 198.149 342.444 197.819 342.21 197.552C341.975 197.285 341.698 197.083 341.378 196.944C341.068 196.805 340.738 196.736 340.386 196.736C340.034 196.736 339.698 196.805 339.378 196.944C339.068 197.083 338.796 197.285 338.562 197.552C338.327 197.819 338.14 198.149 338.002 198.544C337.874 198.928 337.81 199.371 337.81 199.872ZM336.37 199.872C336.37 199.264 336.455 198.699 336.626 198.176C336.796 197.643 337.052 197.184 337.394 196.8C337.735 196.405 338.156 196.096 338.658 195.872C339.159 195.648 339.735 195.536 340.386 195.536C341.047 195.536 341.623 195.648 342.114 195.872C342.615 196.096 343.036 196.405 343.378 196.8C343.719 197.184 343.975 197.643 344.146 198.176C344.316 198.699 344.402 199.264 344.402 199.872C344.402 200.48 344.316 201.045 344.146 201.568C343.975 202.091 343.719 202.549 343.378 202.944C343.036 203.328 342.615 203.632 342.114 203.856C341.623 204.069 341.047 204.176 340.386 204.176C339.735 204.176 339.159 204.069 338.658 203.856C338.156 203.632 337.735 203.328 337.394 202.944C337.052 202.549 336.796 202.091 336.626 201.568C336.455 201.045 336.37 200.48 336.37 199.872ZM346.285 192.576H347.645V204H346.285V192.576ZM350.944 199.936C350.944 200.32 350.992 200.699 351.088 201.072C351.195 201.435 351.349 201.76 351.552 202.048C351.765 202.336 352.032 202.565 352.352 202.736C352.683 202.907 353.067 202.992 353.504 202.992C353.963 202.992 354.352 202.901 354.672 202.72C354.992 202.539 355.253 202.304 355.456 202.016C355.659 201.717 355.803 201.381 355.888 201.008C355.984 200.635 356.032 200.256 356.032 199.872C356.032 199.467 355.984 199.077 355.888 198.704C355.792 198.32 355.637 197.984 355.424 197.696C355.221 197.408 354.955 197.179 354.624 197.008C354.293 196.827 353.893 196.736 353.424 196.736C352.965 196.736 352.576 196.827 352.256 197.008C351.936 197.189 351.68 197.429 351.488 197.728C351.296 198.027 351.157 198.368 351.072 198.752C350.987 199.136 350.944 199.531 350.944 199.936ZM357.344 204H355.984V202.88H355.952C355.728 203.339 355.376 203.669 354.896 203.872C354.416 204.075 353.888 204.176 353.312 204.176C352.672 204.176 352.112 204.059 351.632 203.824C351.163 203.589 350.768 203.275 350.448 202.88C350.139 202.485 349.904 202.027 349.744 201.504C349.584 200.981 349.504 200.427 349.504 199.84C349.504 199.253 349.579 198.699 349.728 198.176C349.888 197.653 350.123 197.2 350.432 196.816C350.752 196.421 351.147 196.112 351.616 195.888C352.096 195.653 352.651 195.536 353.28 195.536C353.493 195.536 353.723 195.557 353.968 195.6C354.213 195.643 354.459 195.717 354.704 195.824C354.949 195.92 355.179 196.053 355.392 196.224C355.616 196.384 355.803 196.587 355.952 196.832H355.984V192.576H357.344V204ZM365.381 199.072C365.359 198.752 365.285 198.448 365.157 198.16C365.039 197.872 364.874 197.627 364.661 197.424C364.458 197.211 364.213 197.045 363.925 196.928C363.647 196.8 363.338 196.736 362.997 196.736C362.645 196.736 362.325 196.8 362.037 196.928C361.759 197.045 361.519 197.211 361.317 197.424C361.114 197.637 360.954 197.888 360.837 198.176C360.719 198.453 360.65 198.752 360.629 199.072H365.381ZM366.693 201.376C366.511 202.304 366.111 203.003 365.493 203.472C364.874 203.941 364.095 204.176 363.157 204.176C362.495 204.176 361.919 204.069 361.429 203.856C360.949 203.643 360.543 203.344 360.213 202.96C359.882 202.576 359.631 202.117 359.461 201.584C359.301 201.051 359.21 200.469 359.189 199.84C359.189 199.211 359.285 198.635 359.477 198.112C359.669 197.589 359.935 197.136 360.277 196.752C360.629 196.368 361.039 196.069 361.509 195.856C361.989 195.643 362.511 195.536 363.077 195.536C363.813 195.536 364.421 195.691 364.901 196C365.391 196.299 365.781 196.683 366.069 197.152C366.367 197.621 366.57 198.133 366.677 198.688C366.794 199.243 366.842 199.771 366.821 200.272H360.629C360.618 200.635 360.661 200.981 360.757 201.312C360.853 201.632 361.007 201.92 361.221 202.176C361.434 202.421 361.706 202.619 362.037 202.768C362.367 202.917 362.757 202.992 363.205 202.992C363.781 202.992 364.25 202.859 364.613 202.592C364.986 202.325 365.231 201.92 365.349 201.376H366.693ZM368.382 195.728H369.662V197.472H369.694C370.025 196.8 370.43 196.304 370.91 195.984C371.39 195.664 371.998 195.515 372.734 195.536V196.976C372.19 196.976 371.726 197.051 371.342 197.2C370.958 197.349 370.649 197.568 370.414 197.856C370.18 198.144 370.009 198.496 369.902 198.912C369.796 199.317 369.742 199.787 369.742 200.32V204H368.382V195.728Z" fill="black" fill-opacity="0.68"/>
<path d="M91.248 294.076H98.752V295.356H92.768V298.988H98.016V300.268H92.768V305.5H91.248V294.076ZM101.652 295.74H100.292V294.076H101.652V295.74ZM100.292 297.228H101.652V305.5H100.292V297.228ZM103.838 294.076H105.198V305.5H103.838V294.076ZM107.385 294.076H108.745V305.5H107.385V294.076ZM116.596 300.572C116.575 300.252 116.5 299.948 116.372 299.66C116.255 299.372 116.089 299.127 115.876 298.924C115.673 298.711 115.428 298.545 115.14 298.428C114.863 298.3 114.553 298.236 114.212 298.236C113.86 298.236 113.54 298.3 113.252 298.428C112.975 298.545 112.735 298.711 112.532 298.924C112.329 299.137 112.169 299.388 112.052 299.676C111.935 299.953 111.865 300.252 111.844 300.572H116.596ZM117.908 302.876C117.727 303.804 117.327 304.503 116.708 304.972C116.089 305.441 115.311 305.676 114.372 305.676C113.711 305.676 113.135 305.569 112.644 305.356C112.164 305.143 111.759 304.844 111.428 304.46C111.097 304.076 110.847 303.617 110.676 303.084C110.516 302.551 110.425 301.969 110.404 301.34C110.404 300.711 110.5 300.135 110.692 299.612C110.884 299.089 111.151 298.636 111.492 298.252C111.844 297.868 112.255 297.569 112.724 297.356C113.204 297.143 113.727 297.036 114.292 297.036C115.028 297.036 115.636 297.191 116.116 297.5C116.607 297.799 116.996 298.183 117.284 298.652C117.583 299.121 117.785 299.633 117.892 300.188C118.009 300.743 118.057 301.271 118.036 301.772H111.844C111.833 302.135 111.876 302.481 111.972 302.812C112.068 303.132 112.223 303.42 112.436 303.676C112.649 303.921 112.921 304.119 113.252 304.268C113.583 304.417 113.972 304.492 114.42 304.492C114.996 304.492 115.465 304.359 115.828 304.092C116.201 303.825 116.447 303.42 116.564 302.876H117.908ZM120.438 301.436C120.438 301.82 120.486 302.199 120.582 302.572C120.689 302.935 120.843 303.26 121.046 303.548C121.259 303.836 121.526 304.065 121.846 304.236C122.177 304.407 122.561 304.492 122.998 304.492C123.457 304.492 123.846 304.401 124.166 304.22C124.486 304.039 124.747 303.804 124.95 303.516C125.153 303.217 125.297 302.881 125.382 302.508C125.478 302.135 125.526 301.756 125.526 301.372C125.526 300.967 125.478 300.577 125.382 300.204C125.286 299.82 125.131 299.484 124.918 299.196C124.715 298.908 124.449 298.679 124.118 298.508C123.787 298.327 123.387 298.236 122.918 298.236C122.459 298.236 122.07 298.327 121.75 298.508C121.43 298.689 121.174 298.929 120.982 299.228C120.79 299.527 120.651 299.868 120.566 300.252C120.481 300.636 120.438 301.031 120.438 301.436ZM126.838 305.5H125.478V304.38H125.446C125.222 304.839 124.87 305.169 124.39 305.372C123.91 305.575 123.382 305.676 122.806 305.676C122.166 305.676 121.606 305.559 121.126 305.324C120.657 305.089 120.262 304.775 119.942 304.38C119.633 303.985 119.398 303.527 119.238 303.004C119.078 302.481 118.998 301.927 118.998 301.34C118.998 300.753 119.073 300.199 119.222 299.676C119.382 299.153 119.617 298.7 119.926 298.316C120.246 297.921 120.641 297.612 121.11 297.388C121.59 297.153 122.145 297.036 122.774 297.036C122.987 297.036 123.217 297.057 123.462 297.1C123.707 297.143 123.953 297.217 124.198 297.324C124.443 297.42 124.673 297.553 124.886 297.724C125.11 297.884 125.297 298.087 125.446 298.332H125.478V294.076H126.838V305.5Z" fill="black" fill-opacity="0.68"/>
<mask id="path-11-inside-3_65671_5969" fill="white">
<path d="M270 270H510V330H270V270Z"/>
</mask>
<path d="M270 270H510V330H270V270Z" fill="black" fill-opacity="0.04"/>
<path d="M510 330V329H270V330V331H510V330Z" fill="black" fill-opacity="0.2" mask="url(#path-11-inside-3_65671_5969)"/>
<path d="M286.936 283.432H288.076V291.04H292.612V292H286.936V283.432ZM299.112 291.976C298.936 292.08 298.692 292.132 298.38 292.132C298.116 292.132 297.904 292.06 297.744 291.916C297.592 291.764 297.516 291.52 297.516 291.184C297.236 291.52 296.908 291.764 296.532 291.916C296.164 292.06 295.764 292.132 295.332 292.132C295.052 292.132 294.784 292.1 294.528 292.036C294.28 291.972 294.064 291.872 293.88 291.736C293.696 291.6 293.548 291.424 293.436 291.208C293.332 290.984 293.28 290.716 293.28 290.404C293.28 290.052 293.34 289.764 293.46 289.54C293.58 289.316 293.736 289.136 293.928 289C294.128 288.856 294.352 288.748 294.6 288.676C294.856 288.604 295.116 288.544 295.38 288.496C295.66 288.44 295.924 288.4 296.172 288.376C296.428 288.344 296.652 288.304 296.844 288.256C297.036 288.2 297.188 288.124 297.3 288.028C297.412 287.924 297.468 287.776 297.468 287.584C297.468 287.36 297.424 287.18 297.336 287.044C297.256 286.908 297.148 286.804 297.012 286.732C296.884 286.66 296.736 286.612 296.568 286.588C296.408 286.564 296.248 286.552 296.088 286.552C295.656 286.552 295.296 286.636 295.008 286.804C294.72 286.964 294.564 287.272 294.54 287.728H293.52C293.536 287.344 293.616 287.02 293.76 286.756C293.904 286.492 294.096 286.28 294.336 286.12C294.576 285.952 294.848 285.832 295.152 285.76C295.464 285.688 295.796 285.652 296.148 285.652C296.428 285.652 296.704 285.672 296.976 285.712C297.256 285.752 297.508 285.836 297.732 285.964C297.956 286.084 298.136 286.256 298.272 286.48C298.408 286.704 298.476 286.996 298.476 287.356V290.548C298.476 290.788 298.488 290.964 298.512 291.076C298.544 291.188 298.64 291.244 298.8 291.244C298.888 291.244 298.992 291.224 299.112 291.184V291.976ZM297.456 288.796C297.328 288.892 297.16 288.964 296.952 289.012C296.744 289.052 296.524 289.088 296.292 289.12C296.068 289.144 295.84 289.176 295.608 289.216C295.376 289.248 295.168 289.304 294.984 289.384C294.8 289.464 294.648 289.58 294.528 289.732C294.416 289.876 294.36 290.076 294.36 290.332C294.36 290.5 294.392 290.644 294.456 290.764C294.528 290.876 294.616 290.968 294.72 291.04C294.832 291.112 294.96 291.164 295.104 291.196C295.248 291.228 295.4 291.244 295.56 291.244C295.896 291.244 296.184 291.2 296.424 291.112C296.664 291.016 296.86 290.9 297.012 290.764C297.164 290.62 297.276 290.468 297.348 290.308C297.42 290.14 297.456 289.984 297.456 289.84V288.796ZM300.277 283.432H301.297V286.636H301.321C301.489 286.292 301.753 286.044 302.113 285.892C302.473 285.732 302.869 285.652 303.301 285.652C303.781 285.652 304.197 285.74 304.549 285.916C304.909 286.092 305.205 286.332 305.437 286.636C305.677 286.932 305.857 287.276 305.977 287.668C306.097 288.06 306.157 288.476 306.157 288.916C306.157 289.356 306.097 289.772 305.977 290.164C305.865 290.556 305.689 290.9 305.449 291.196C305.217 291.484 304.921 291.712 304.561 291.88C304.209 292.048 303.797 292.132 303.325 292.132C303.173 292.132 303.001 292.116 302.809 292.084C302.625 292.052 302.441 292 302.257 291.928C302.073 291.856 301.897 291.76 301.729 291.64C301.569 291.512 301.433 291.356 301.321 291.172H301.297V292H300.277V283.432ZM305.077 288.844C305.077 288.556 305.037 288.276 304.957 288.004C304.885 287.724 304.769 287.476 304.609 287.26C304.457 287.044 304.257 286.872 304.009 286.744C303.769 286.616 303.485 286.552 303.157 286.552C302.813 286.552 302.521 286.62 302.281 286.756C302.041 286.892 301.845 287.072 301.693 287.296C301.541 287.512 301.429 287.76 301.357 288.04C301.293 288.32 301.261 288.604 301.261 288.892C301.261 289.196 301.297 289.492 301.369 289.78C301.441 290.06 301.553 290.308 301.705 290.524C301.865 290.74 302.069 290.916 302.317 291.052C302.565 291.18 302.865 291.244 303.217 291.244C303.569 291.244 303.861 291.176 304.093 291.04C304.333 290.904 304.525 290.724 304.669 290.5C304.813 290.276 304.917 290.02 304.981 289.732C305.045 289.444 305.077 289.148 305.077 288.844ZM311.843 288.304C311.827 288.064 311.771 287.836 311.675 287.62C311.587 287.404 311.463 287.22 311.303 287.068C311.151 286.908 310.967 286.784 310.751 286.696C310.543 286.6 310.311 286.552 310.055 286.552C309.791 286.552 309.551 286.6 309.335 286.696C309.127 286.784 308.947 286.908 308.795 287.068C308.643 287.228 308.523 287.416 308.435 287.632C308.347 287.84 308.295 288.064 308.279 288.304H311.843ZM312.827 290.032C312.691 290.728 312.391 291.252 311.927 291.604C311.463 291.956 310.879 292.132 310.175 292.132C309.679 292.132 309.247 292.052 308.879 291.892C308.519 291.732 308.215 291.508 307.967 291.22C307.719 290.932 307.531 290.588 307.403 290.188C307.283 289.788 307.215 289.352 307.199 288.88C307.199 288.408 307.271 287.976 307.415 287.584C307.559 287.192 307.759 286.852 308.015 286.564C308.279 286.276 308.587 286.052 308.939 285.892C309.299 285.732 309.691 285.652 310.115 285.652C310.667 285.652 311.123 285.768 311.483 286C311.851 286.224 312.143 286.512 312.359 286.864C312.583 287.216 312.735 287.6 312.815 288.016C312.903 288.432 312.939 288.828 312.923 289.204H308.279C308.271 289.476 308.303 289.736 308.375 289.984C308.447 290.224 308.563 290.44 308.723 290.632C308.883 290.816 309.087 290.964 309.335 291.076C309.583 291.188 309.875 291.244 310.211 291.244C310.643 291.244 310.995 291.144 311.267 290.944C311.547 290.744 311.731 290.44 311.819 290.032H312.827ZM314.22 283.432H315.24V292H314.22V283.432Z" fill="black" fill-opacity="0.68"/>
<path d="M287.216 302.576H289.216V314H287.216V302.576ZM291.613 305.728H293.341V306.944L293.373 306.976C293.65 306.517 294.013 306.16 294.461 305.904C294.909 305.637 295.405 305.504 295.949 305.504C296.856 305.504 297.57 305.739 298.093 306.208C298.616 306.677 298.877 307.381 298.877 308.32V314H297.053V308.8C297.032 308.149 296.893 307.68 296.637 307.392C296.381 307.093 295.981 306.944 295.437 306.944C295.128 306.944 294.85 307.003 294.605 307.12C294.36 307.227 294.152 307.381 293.981 307.584C293.81 307.776 293.677 308.005 293.581 308.272C293.485 308.539 293.437 308.821 293.437 309.12V314H291.613V305.728ZM301.049 305.728H302.777V306.848H302.809C303.065 306.368 303.422 306.027 303.881 305.824C304.339 305.611 304.835 305.504 305.369 305.504C306.019 305.504 306.585 305.621 307.065 305.856C307.555 306.08 307.961 306.395 308.281 306.8C308.601 307.195 308.841 307.659 309.001 308.192C309.161 308.725 309.241 309.296 309.241 309.904C309.241 310.459 309.166 310.997 309.017 311.52C308.878 312.043 308.659 312.507 308.361 312.912C308.073 313.307 307.705 313.627 307.257 313.872C306.809 314.107 306.281 314.224 305.673 314.224C305.406 314.224 305.139 314.197 304.873 314.144C304.606 314.101 304.35 314.027 304.105 313.92C303.859 313.813 303.63 313.68 303.417 313.52C303.214 313.349 303.043 313.152 302.905 312.928H302.873V317.056H301.049V305.728ZM307.417 309.872C307.417 309.499 307.369 309.136 307.273 308.784C307.177 308.432 307.033 308.123 306.841 307.856C306.649 307.579 306.409 307.36 306.121 307.2C305.833 307.029 305.502 306.944 305.129 306.944C304.361 306.944 303.779 307.211 303.385 307.744C303.001 308.277 302.809 308.987 302.809 309.872C302.809 310.288 302.857 310.677 302.953 311.04C303.059 311.392 303.214 311.696 303.417 311.952C303.619 312.208 303.859 312.411 304.137 312.56C304.425 312.709 304.755 312.784 305.129 312.784C305.545 312.784 305.897 312.699 306.185 312.528C306.473 312.357 306.707 312.139 306.889 311.872C307.081 311.595 307.214 311.285 307.289 310.944C307.374 310.592 307.417 310.235 307.417 309.872ZM318.246 314H316.454V312.848H316.422C316.198 313.264 315.862 313.6 315.414 313.856C314.977 314.101 314.529 314.224 314.07 314.224C312.982 314.224 312.193 313.957 311.702 313.424C311.222 312.88 310.982 312.064 310.982 310.976V305.728H312.806V310.8C312.806 311.525 312.945 312.037 313.222 312.336C313.499 312.635 313.889 312.784 314.39 312.784C314.774 312.784 315.094 312.725 315.35 312.608C315.606 312.491 315.814 312.336 315.974 312.144C316.134 311.941 316.246 311.701 316.31 311.424C316.385 311.147 316.422 310.848 316.422 310.528V305.728H318.246V314ZM319.537 305.728H320.913V303.248H322.737V305.728H324.385V307.088H322.737V311.504C322.737 311.696 322.743 311.861 322.753 312C322.775 312.139 322.812 312.256 322.865 312.352C322.929 312.448 323.02 312.523 323.137 312.576C323.255 312.619 323.415 312.64 323.617 312.64C323.745 312.64 323.873 312.64 324.001 312.64C324.129 312.629 324.257 312.608 324.385 312.576V313.984C324.183 314.005 323.985 314.027 323.793 314.048C323.601 314.069 323.404 314.08 323.201 314.08C322.721 314.08 322.332 314.037 322.033 313.952C321.745 313.856 321.516 313.723 321.345 313.552C321.185 313.371 321.073 313.147 321.009 312.88C320.956 312.613 320.924 312.309 320.913 311.968V307.088H319.537V305.728Z" fill="black"/>
</svg>
