<svg width="600" height="342" viewBox="0 0 600 342" fill="none" xmlns="http://www.w3.org/2000/svg">
<rect width="600" height="342" fill="black" fill-opacity="0.04"/>
<path d="M144.232 116.076H145.848L151.864 125.34H151.896V116.076H153.336V127.5H151.672L145.704 118.332H145.672V127.5H144.232V116.076ZM161.315 122.572C161.294 122.252 161.219 121.948 161.091 121.66C160.974 121.372 160.808 121.127 160.595 120.924C160.392 120.711 160.147 120.545 159.859 120.428C159.582 120.3 159.272 120.236 158.931 120.236C158.579 120.236 158.259 120.3 157.971 120.428C157.694 120.545 157.454 120.711 157.251 120.924C157.048 121.137 156.888 121.388 156.771 121.676C156.654 121.953 156.584 122.252 156.563 122.572H161.315ZM162.627 124.876C162.446 125.804 162.046 126.503 161.427 126.972C160.808 127.441 160.03 127.676 159.091 127.676C158.43 127.676 157.854 127.569 157.363 127.356C156.883 127.143 156.478 126.844 156.147 126.46C155.816 126.076 155.566 125.617 155.395 125.084C155.235 124.551 155.144 123.969 155.123 123.34C155.123 122.711 155.219 122.135 155.411 121.612C155.603 121.089 155.87 120.636 156.211 120.252C156.563 119.868 156.974 119.569 157.443 119.356C157.923 119.143 158.446 119.036 159.011 119.036C159.747 119.036 160.355 119.191 160.835 119.5C161.326 119.799 161.715 120.183 162.003 120.652C162.302 121.121 162.504 121.633 162.611 122.188C162.728 122.743 162.776 123.271 162.755 123.772H156.563C156.552 124.135 156.595 124.481 156.691 124.812C156.787 125.132 156.942 125.42 157.155 125.676C157.368 125.921 157.64 126.119 157.971 126.268C158.302 126.417 158.691 126.492 159.139 126.492C159.715 126.492 160.184 126.359 160.547 126.092C160.92 125.825 161.166 125.42 161.283 124.876H162.627ZM166.389 123.148L163.509 119.228H165.253L167.237 122.124L169.301 119.228H170.933L168.085 123.036L171.285 127.5H169.541L167.237 124.076L164.933 127.5H163.285L166.389 123.148ZM174.334 119.228H175.982V120.428H174.334V125.564C174.334 125.724 174.345 125.852 174.366 125.948C174.398 126.044 174.451 126.119 174.526 126.172C174.601 126.225 174.702 126.263 174.83 126.284C174.969 126.295 175.145 126.3 175.358 126.3H175.982V127.5H174.942C174.59 127.5 174.286 127.479 174.03 127.436C173.785 127.383 173.582 127.292 173.422 127.164C173.273 127.036 173.161 126.855 173.086 126.62C173.011 126.385 172.974 126.076 172.974 125.692V120.428H171.566V119.228H172.974V116.748H174.334V119.228Z" fill="black" fill-opacity="0.68"/>
<mask id="path-2-inside-1_75104_15000" fill="white">
<path d="M351 98H457V146H351V98Z"/>
</mask>
<path d="M351 98V97H350V98H351ZM457 98H458V97H457V98ZM457 146V147H458V146H457ZM351 146H350V147H351V146ZM351 98V99H457V98V97H351V98ZM457 98H456V146H457H458V98H457ZM457 146V145H351V146V147H457V146ZM351 146H352V98H351H350V146H351Z" fill="black" mask="url(#path-2-inside-1_75104_15000)"/>
<path d="M380.171 116.576H382.667L387.435 124.24H387.467V116.576H389.819V128H387.307L382.555 120.352H382.523V128H380.171V116.576ZM397.559 122.976C397.452 122.4 397.26 121.963 396.983 121.664C396.716 121.365 396.305 121.216 395.751 121.216C395.388 121.216 395.084 121.28 394.839 121.408C394.604 121.525 394.412 121.675 394.263 121.856C394.124 122.037 394.023 122.229 393.959 122.432C393.905 122.635 393.873 122.816 393.863 122.976H397.559ZM393.863 124.416C393.895 125.152 394.081 125.685 394.423 126.016C394.764 126.347 395.255 126.512 395.895 126.512C396.353 126.512 396.748 126.4 397.079 126.176C397.409 125.941 397.612 125.696 397.687 125.44H399.687C399.367 126.432 398.876 127.141 398.215 127.568C397.553 127.995 396.753 128.208 395.815 128.208C395.164 128.208 394.577 128.107 394.055 127.904C393.532 127.691 393.089 127.392 392.727 127.008C392.364 126.624 392.081 126.165 391.879 125.632C391.687 125.099 391.591 124.512 391.591 123.872C391.591 123.253 391.692 122.677 391.895 122.144C392.097 121.611 392.385 121.152 392.759 120.768C393.132 120.373 393.575 120.064 394.087 119.84C394.609 119.616 395.185 119.504 395.815 119.504C396.519 119.504 397.132 119.643 397.655 119.92C398.177 120.187 398.604 120.549 398.935 121.008C399.276 121.467 399.521 121.989 399.671 122.576C399.82 123.163 399.873 123.776 399.831 124.416H393.863ZM403.49 123.648L400.77 119.728H403.362L404.818 121.888L406.258 119.728H408.77L406.05 123.6L409.106 128H406.514L404.786 125.392L403.058 128H400.514L403.49 123.648ZM413.052 119.728H414.716V121.248H413.052V125.344C413.052 125.728 413.116 125.984 413.244 126.112C413.372 126.24 413.628 126.304 414.012 126.304C414.14 126.304 414.262 126.299 414.38 126.288C414.497 126.277 414.609 126.261 414.716 126.24V128C414.524 128.032 414.31 128.053 414.076 128.064C413.841 128.075 413.612 128.08 413.388 128.08C413.036 128.08 412.7 128.053 412.38 128C412.07 127.957 411.793 127.867 411.548 127.728C411.313 127.589 411.126 127.392 410.988 127.136C410.849 126.88 410.78 126.544 410.78 126.128V121.248H409.404V119.728H410.78V117.248H413.052V119.728Z" fill="black"/>
<g clip-path="url(#clip0_75104_15000)">
<path d="M429.314 127.938L435.375 122L429.314 116.062L427.582 117.758L431.912 122L427.582 126.24L429.314 127.938Z" fill="black"/>
</g>
<path d="M145.768 219.548H148.744C149.608 219.559 150.237 219.383 150.632 219.02C151.037 218.657 151.24 218.135 151.24 217.452C151.24 216.769 151.037 216.252 150.632 215.9C150.237 215.537 149.608 215.356 148.744 215.356H145.768V219.548ZM144.248 214.076H149.256C150.408 214.076 151.277 214.375 151.864 214.972C152.461 215.559 152.76 216.385 152.76 217.452C152.76 218.519 152.461 219.351 151.864 219.948C151.277 220.545 150.408 220.839 149.256 220.828H145.768V225.5H144.248V214.076ZM154.351 217.228H155.631V218.972H155.663C155.994 218.3 156.399 217.804 156.879 217.484C157.359 217.164 157.967 217.015 158.703 217.036V218.476C158.159 218.476 157.695 218.551 157.311 218.7C156.927 218.849 156.618 219.068 156.383 219.356C156.148 219.644 155.978 219.996 155.871 220.412C155.764 220.817 155.711 221.287 155.711 221.82V225.5H154.351V217.228ZM165.19 220.572C165.169 220.252 165.094 219.948 164.966 219.66C164.849 219.372 164.683 219.127 164.47 218.924C164.267 218.711 164.022 218.545 163.734 218.428C163.457 218.3 163.147 218.236 162.806 218.236C162.454 218.236 162.134 218.3 161.846 218.428C161.569 218.545 161.329 218.711 161.126 218.924C160.923 219.137 160.763 219.388 160.646 219.676C160.529 219.953 160.459 220.252 160.438 220.572H165.19ZM166.502 222.876C166.321 223.804 165.921 224.503 165.302 224.972C164.683 225.441 163.905 225.676 162.966 225.676C162.305 225.676 161.729 225.569 161.238 225.356C160.758 225.143 160.353 224.844 160.022 224.46C159.691 224.076 159.441 223.617 159.27 223.084C159.11 222.551 159.019 221.969 158.998 221.34C158.998 220.711 159.094 220.135 159.286 219.612C159.478 219.089 159.745 218.636 160.086 218.252C160.438 217.868 160.849 217.569 161.318 217.356C161.798 217.143 162.321 217.036 162.886 217.036C163.622 217.036 164.23 217.191 164.71 217.5C165.201 217.799 165.59 218.183 165.878 218.652C166.177 219.121 166.379 219.633 166.486 220.188C166.603 220.743 166.651 221.271 166.63 221.772H160.438C160.427 222.135 160.47 222.481 160.566 222.812C160.662 223.132 160.817 223.42 161.03 223.676C161.243 223.921 161.515 224.119 161.846 224.268C162.177 224.417 162.566 224.492 163.014 224.492C163.59 224.492 164.059 224.359 164.422 224.092C164.795 223.825 165.041 223.42 165.158 222.876H166.502ZM171.768 225.5H170.312L167.24 217.228H168.76L171.08 224.124H171.112L173.368 217.228H174.792L171.768 225.5ZM177.48 215.74H176.12V214.076H177.48V215.74ZM176.12 217.228H177.48V225.5H176.12V217.228ZM180.579 221.372C180.579 221.873 180.643 222.321 180.771 222.716C180.909 223.1 181.096 223.425 181.331 223.692C181.565 223.948 181.837 224.145 182.147 224.284C182.467 224.423 182.803 224.492 183.155 224.492C183.507 224.492 183.837 224.423 184.147 224.284C184.467 224.145 184.744 223.948 184.979 223.692C185.213 223.425 185.395 223.1 185.523 222.716C185.661 222.321 185.731 221.873 185.731 221.372C185.731 220.871 185.661 220.428 185.523 220.044C185.395 219.649 185.213 219.319 184.979 219.052C184.744 218.785 184.467 218.583 184.147 218.444C183.837 218.305 183.507 218.236 183.155 218.236C182.803 218.236 182.467 218.305 182.147 218.444C181.837 218.583 181.565 218.785 181.331 219.052C181.096 219.319 180.909 219.649 180.771 220.044C180.643 220.428 180.579 220.871 180.579 221.372ZM179.139 221.372C179.139 220.764 179.224 220.199 179.395 219.676C179.565 219.143 179.821 218.684 180.163 218.3C180.504 217.905 180.925 217.596 181.427 217.372C181.928 217.148 182.504 217.036 183.155 217.036C183.816 217.036 184.392 217.148 184.883 217.372C185.384 217.596 185.805 217.905 186.147 218.3C186.488 218.684 186.744 219.143 186.915 219.676C187.085 220.199 187.171 220.764 187.171 221.372C187.171 221.98 187.085 222.545 186.915 223.068C186.744 223.591 186.488 224.049 186.147 224.444C185.805 224.828 185.384 225.132 184.883 225.356C184.392 225.569 183.816 225.676 183.155 225.676C182.504 225.676 181.928 225.569 181.427 225.356C180.925 225.132 180.504 224.828 180.163 224.444C179.821 224.049 179.565 223.591 179.395 223.068C179.224 222.545 179.139 221.98 179.139 221.372ZM195.622 225.5H194.342V224.188H194.31C194.022 224.7 193.654 225.079 193.206 225.324C192.758 225.559 192.23 225.676 191.622 225.676C191.078 225.676 190.625 225.607 190.262 225.468C189.899 225.319 189.606 225.111 189.382 224.844C189.158 224.577 188.998 224.263 188.902 223.9C188.817 223.527 188.774 223.116 188.774 222.668V217.228H190.134V222.828C190.134 223.34 190.283 223.745 190.582 224.044C190.881 224.343 191.291 224.492 191.814 224.492C192.23 224.492 192.587 224.428 192.886 224.3C193.195 224.172 193.451 223.991 193.654 223.756C193.857 223.521 194.006 223.249 194.102 222.94C194.209 222.62 194.262 222.273 194.262 221.9V217.228H195.622V225.5ZM198.497 222.892C198.507 223.191 198.577 223.447 198.705 223.66C198.833 223.863 198.998 224.028 199.201 224.156C199.414 224.273 199.649 224.359 199.905 224.412C200.171 224.465 200.443 224.492 200.721 224.492C200.934 224.492 201.158 224.476 201.393 224.444C201.627 224.412 201.841 224.353 202.033 224.268C202.235 224.183 202.401 224.06 202.529 223.9C202.657 223.729 202.721 223.516 202.721 223.26C202.721 222.908 202.587 222.641 202.321 222.46C202.054 222.279 201.718 222.135 201.313 222.028C200.918 221.911 200.486 221.809 200.017 221.724C199.547 221.628 199.11 221.5 198.705 221.34C198.31 221.169 197.979 220.935 197.713 220.636C197.446 220.337 197.313 219.921 197.313 219.388C197.313 218.972 197.403 218.615 197.585 218.316C197.777 218.017 198.017 217.777 198.305 217.596C198.603 217.404 198.934 217.265 199.297 217.18C199.67 217.084 200.038 217.036 200.401 217.036C200.87 217.036 201.302 217.079 201.697 217.164C202.091 217.239 202.438 217.377 202.737 217.58C203.046 217.772 203.291 218.039 203.473 218.38C203.654 218.711 203.761 219.127 203.793 219.628H202.433C202.411 219.361 202.342 219.143 202.225 218.972C202.107 218.791 201.958 218.647 201.777 218.54C201.595 218.433 201.393 218.359 201.169 218.316C200.955 218.263 200.737 218.236 200.513 218.236C200.31 218.236 200.102 218.252 199.889 218.284C199.686 218.316 199.499 218.375 199.329 218.46C199.158 218.535 199.019 218.641 198.913 218.78C198.806 218.908 198.753 219.079 198.753 219.292C198.753 219.527 198.833 219.724 198.993 219.884C199.163 220.033 199.377 220.161 199.633 220.268C199.889 220.364 200.177 220.449 200.497 220.524C200.817 220.588 201.137 220.657 201.457 220.732C201.798 220.807 202.129 220.897 202.449 221.004C202.779 221.111 203.067 221.255 203.313 221.436C203.569 221.607 203.771 221.825 203.921 222.092C204.081 222.359 204.161 222.689 204.161 223.084C204.161 223.585 204.054 224.001 203.841 224.332C203.638 224.663 203.366 224.929 203.025 225.132C202.694 225.335 202.315 225.473 201.889 225.548C201.473 225.633 201.057 225.676 200.641 225.676C200.182 225.676 199.745 225.628 199.329 225.532C198.913 225.436 198.545 225.281 198.225 225.068C197.905 224.844 197.649 224.556 197.457 224.204C197.265 223.841 197.158 223.404 197.137 222.892H198.497Z" fill="black" fill-opacity="0.68"/>
<mask id="path-8-inside-2_75104_15000" fill="white">
<path d="M319 196H457V244H319V196Z"/>
</mask>
<path d="M319 196V195H318V196H319ZM457 196H458V195H457V196ZM457 244V245H458V244H457ZM319 244H318V245H319V244ZM319 196V197H457V196V195H319V196ZM457 196H456V244H457H458V196H457ZM457 244V243H319V244V245H457V244ZM319 244H320V196H319H318V244H319Z" fill="black" mask="url(#path-8-inside-2_75104_15000)"/>
<g clip-path="url(#clip1_75104_15000)">
<path d="M346.686 214.062L340.625 220L346.686 225.938L348.418 224.242L344.088 220L348.418 215.76L346.686 214.062Z" fill="black"/>
</g>
<path d="M364.869 219.952H366.821C367.109 219.952 367.386 219.931 367.653 219.888C367.92 219.845 368.154 219.765 368.357 219.648C368.56 219.52 368.72 219.344 368.837 219.12C368.965 218.896 369.029 218.603 369.029 218.24C369.029 217.877 368.965 217.584 368.837 217.36C368.72 217.136 368.56 216.965 368.357 216.848C368.154 216.72 367.92 216.635 367.653 216.592C367.386 216.549 367.109 216.528 366.821 216.528H364.869V219.952ZM362.357 214.576H367.509C368.224 214.576 368.832 214.683 369.333 214.896C369.834 215.099 370.24 215.371 370.549 215.712C370.869 216.053 371.098 216.443 371.237 216.88C371.386 217.317 371.461 217.771 371.461 218.24C371.461 218.699 371.386 219.152 371.237 219.6C371.098 220.037 370.869 220.427 370.549 220.768C370.24 221.109 369.834 221.387 369.333 221.6C368.832 221.803 368.224 221.904 367.509 221.904H364.869V226H362.357V214.576ZM372.989 217.728H375.149V219.264H375.181C375.288 219.008 375.432 218.773 375.613 218.56C375.794 218.336 376.002 218.149 376.237 218C376.472 217.84 376.722 217.717 376.989 217.632C377.256 217.547 377.533 217.504 377.821 217.504C377.97 217.504 378.136 217.531 378.317 217.584V219.696C378.21 219.675 378.082 219.659 377.933 219.648C377.784 219.627 377.64 219.616 377.501 219.616C377.085 219.616 376.733 219.685 376.445 219.824C376.157 219.963 375.922 220.155 375.741 220.4C375.57 220.635 375.448 220.912 375.373 221.232C375.298 221.552 375.261 221.899 375.261 222.272V226H372.989V217.728ZM384.694 220.976C384.588 220.4 384.396 219.963 384.118 219.664C383.852 219.365 383.441 219.216 382.886 219.216C382.524 219.216 382.22 219.28 381.974 219.408C381.74 219.525 381.548 219.675 381.398 219.856C381.26 220.037 381.158 220.229 381.094 220.432C381.041 220.635 381.009 220.816 380.998 220.976H384.694ZM380.998 222.416C381.03 223.152 381.217 223.685 381.558 224.016C381.9 224.347 382.39 224.512 383.03 224.512C383.489 224.512 383.884 224.4 384.214 224.176C384.545 223.941 384.748 223.696 384.822 223.44H386.822C386.502 224.432 386.012 225.141 385.35 225.568C384.689 225.995 383.889 226.208 382.95 226.208C382.3 226.208 381.713 226.107 381.19 225.904C380.668 225.691 380.225 225.392 379.862 225.008C379.5 224.624 379.217 224.165 379.014 223.632C378.822 223.099 378.726 222.512 378.726 221.872C378.726 221.253 378.828 220.677 379.03 220.144C379.233 219.611 379.521 219.152 379.894 218.768C380.268 218.373 380.71 218.064 381.222 217.84C381.745 217.616 382.321 217.504 382.95 217.504C383.654 217.504 384.268 217.643 384.79 217.92C385.313 218.187 385.74 218.549 386.07 219.008C386.412 219.467 386.657 219.989 386.806 220.576C386.956 221.163 387.009 221.776 386.966 222.416H380.998ZM393.09 226H390.562L387.73 217.728H390.114L391.858 223.376H391.89L393.634 217.728H395.89L393.09 226ZM399.362 216.448H397.09V214.576H399.362V216.448ZM397.09 217.728H399.362V226H397.09V217.728ZM403.367 221.872C403.367 222.203 403.399 222.528 403.463 222.848C403.527 223.157 403.634 223.44 403.783 223.696C403.943 223.941 404.151 224.139 404.407 224.288C404.663 224.437 404.983 224.512 405.367 224.512C405.751 224.512 406.071 224.437 406.327 224.288C406.594 224.139 406.802 223.941 406.951 223.696C407.111 223.44 407.223 223.157 407.287 222.848C407.351 222.528 407.383 222.203 407.383 221.872C407.383 221.541 407.351 221.216 407.287 220.896C407.223 220.576 407.111 220.293 406.951 220.048C406.802 219.803 406.594 219.605 406.327 219.456C406.071 219.296 405.751 219.216 405.367 219.216C404.983 219.216 404.663 219.296 404.407 219.456C404.151 219.605 403.943 219.803 403.783 220.048C403.634 220.293 403.527 220.576 403.463 220.896C403.399 221.216 403.367 221.541 403.367 221.872ZM401.095 221.872C401.095 221.211 401.197 220.613 401.399 220.08C401.602 219.536 401.89 219.077 402.263 218.704C402.637 218.32 403.085 218.027 403.607 217.824C404.13 217.611 404.717 217.504 405.367 217.504C406.018 217.504 406.605 217.611 407.127 217.824C407.661 218.027 408.114 218.32 408.487 218.704C408.861 219.077 409.149 219.536 409.351 220.08C409.554 220.613 409.655 221.211 409.655 221.872C409.655 222.533 409.554 223.131 409.351 223.664C409.149 224.197 408.861 224.656 408.487 225.04C408.114 225.413 407.661 225.701 407.127 225.904C406.605 226.107 406.018 226.208 405.367 226.208C404.717 226.208 404.13 226.107 403.607 225.904C403.085 225.701 402.637 225.413 402.263 225.04C401.89 224.656 401.602 224.197 401.399 223.664C401.197 223.131 401.095 222.533 401.095 221.872ZM419.093 226H416.933V224.848H416.885C416.597 225.328 416.223 225.675 415.765 225.888C415.306 226.101 414.837 226.208 414.357 226.208C413.749 226.208 413.247 226.128 412.853 225.968C412.469 225.808 412.165 225.584 411.941 225.296C411.717 224.997 411.557 224.64 411.461 224.224C411.375 223.797 411.333 223.328 411.333 222.816V217.728H413.605V222.4C413.605 223.083 413.711 223.595 413.925 223.936C414.138 224.267 414.517 224.432 415.061 224.432C415.679 224.432 416.127 224.251 416.405 223.888C416.682 223.515 416.821 222.907 416.821 222.064V217.728H419.093V226ZM422.777 223.312C422.777 223.557 422.825 223.771 422.921 223.952C423.028 224.123 423.161 224.267 423.321 224.384C423.481 224.491 423.662 224.571 423.865 224.624C424.078 224.677 424.297 224.704 424.521 224.704C424.681 224.704 424.846 224.688 425.017 224.656C425.198 224.613 425.358 224.555 425.497 224.48C425.646 224.395 425.769 224.288 425.865 224.16C425.961 224.021 426.009 223.851 426.009 223.648C426.009 223.307 425.78 223.051 425.321 222.88C424.873 222.709 424.244 222.539 423.433 222.368C423.102 222.293 422.777 222.208 422.457 222.112C422.148 222.005 421.87 221.872 421.625 221.712C421.38 221.541 421.182 221.333 421.033 221.088C420.884 220.832 420.809 220.523 420.809 220.16C420.809 219.627 420.91 219.189 421.113 218.848C421.326 218.507 421.604 218.24 421.945 218.048C422.286 217.845 422.67 217.707 423.097 217.632C423.524 217.547 423.961 217.504 424.409 217.504C424.857 217.504 425.289 217.547 425.705 217.632C426.132 217.717 426.51 217.861 426.841 218.064C427.172 218.267 427.444 218.539 427.657 218.88C427.881 219.211 428.014 219.632 428.057 220.144H425.897C425.865 219.707 425.7 219.413 425.401 219.264C425.102 219.104 424.75 219.024 424.345 219.024C424.217 219.024 424.078 219.035 423.929 219.056C423.78 219.067 423.641 219.099 423.513 219.152C423.396 219.205 423.294 219.285 423.209 219.392C423.124 219.488 423.081 219.621 423.081 219.792C423.081 219.995 423.156 220.16 423.305 220.288C423.454 220.416 423.646 220.523 423.881 220.608C424.126 220.683 424.404 220.752 424.713 220.816C425.022 220.88 425.337 220.949 425.657 221.024C425.988 221.099 426.308 221.189 426.617 221.296C426.937 221.403 427.22 221.547 427.465 221.728C427.71 221.899 427.908 222.117 428.057 222.384C428.206 222.64 428.281 222.96 428.281 223.344C428.281 223.888 428.169 224.347 427.945 224.72C427.732 225.083 427.449 225.376 427.097 225.6C426.745 225.824 426.34 225.979 425.881 226.064C425.433 226.16 424.974 226.208 424.505 226.208C424.025 226.208 423.556 226.16 423.097 226.064C422.638 225.968 422.228 225.808 421.865 225.584C421.513 225.36 421.22 225.067 420.985 224.704C420.761 224.331 420.638 223.867 420.617 223.312H422.777Z" fill="black"/>
<defs>
<clipPath id="clip0_75104_15000">
<rect width="20" height="20" fill="white" transform="translate(421 112)"/>
</clipPath>
<clipPath id="clip1_75104_15000">
<rect width="20" height="20" fill="white" transform="translate(335 210)"/>
</clipPath>
</defs>
</svg>
