<svg width="600" height="191" viewBox="0 0 600 191" fill="none" xmlns="http://www.w3.org/2000/svg">
<rect width="600" height="95.5" fill="#FF7900"/>
<path d="M160.248 41.826H161.768V51.97H167.816V53.25H160.248V41.826ZM170.355 43.49H168.995V41.826H170.355V43.49ZM168.995 44.978H170.355V53.25H168.995V44.978ZM179.598 52.546C179.598 53.9007 179.288 54.914 178.67 55.586C178.051 56.258 177.08 56.594 175.758 56.594C175.374 56.594 174.979 56.5513 174.574 56.466C174.179 56.3807 173.816 56.242 173.486 56.05C173.166 55.858 172.899 55.6073 172.686 55.298C172.472 54.9887 172.355 54.61 172.334 54.162H173.694C173.704 54.4073 173.779 54.6153 173.918 54.786C174.067 54.9567 174.243 55.0953 174.446 55.202C174.659 55.3087 174.888 55.3833 175.134 55.426C175.379 55.4793 175.614 55.506 175.838 55.506C176.286 55.506 176.664 55.426 176.974 55.266C177.283 55.1167 177.539 54.9033 177.742 54.626C177.944 54.3593 178.088 54.034 178.174 53.65C178.27 53.266 178.318 52.8447 178.318 52.386V51.842H178.286C178.051 52.354 177.694 52.7327 177.214 52.978C176.744 53.2127 176.243 53.33 175.71 53.33C175.091 53.33 174.552 53.218 174.094 52.994C173.635 52.77 173.251 52.4713 172.942 52.098C172.632 51.714 172.398 51.2713 172.238 50.77C172.088 50.258 172.014 49.7193 172.014 49.154C172.014 48.6633 172.078 48.162 172.206 47.65C172.334 47.1273 172.547 46.658 172.846 46.242C173.144 45.8153 173.539 45.4687 174.03 45.202C174.52 44.9247 175.123 44.786 175.838 44.786C176.36 44.786 176.84 44.9033 177.278 45.138C177.715 45.362 178.056 45.7033 178.302 46.162H178.318V44.978H179.598V52.546ZM175.79 52.146C176.238 52.146 176.616 52.0553 176.926 51.874C177.246 51.682 177.502 51.4367 177.694 51.138C177.886 50.8287 178.024 50.482 178.11 50.098C178.206 49.714 178.254 49.33 178.254 48.946C178.254 48.5833 178.211 48.226 178.126 47.874C178.04 47.522 177.902 47.2073 177.71 46.93C177.528 46.642 177.288 46.4127 176.99 46.242C176.691 46.0713 176.328 45.986 175.902 45.986C175.464 45.986 175.091 46.0713 174.782 46.242C174.472 46.402 174.216 46.6207 174.014 46.898C173.822 47.1753 173.678 47.4953 173.582 47.858C173.496 48.2207 173.454 48.5993 173.454 48.994C173.454 49.3673 173.491 49.7407 173.566 50.114C173.64 50.4873 173.768 50.8287 173.95 51.138C174.131 51.4367 174.371 51.682 174.67 51.874C174.968 52.0553 175.342 52.146 175.79 52.146ZM181.649 41.826H183.009V46.194H183.041C183.148 45.938 183.297 45.7247 183.489 45.554C183.681 45.3727 183.894 45.2287 184.129 45.122C184.374 45.0047 184.625 44.9193 184.881 44.866C185.148 44.8127 185.404 44.786 185.649 44.786C186.193 44.786 186.646 44.8607 187.009 45.01C187.372 45.1593 187.665 45.3673 187.889 45.634C188.113 45.9007 188.268 46.2207 188.353 46.594C188.449 46.9567 188.497 47.362 188.497 47.81V53.25H187.137V47.65C187.137 47.138 186.988 46.7327 186.689 46.434C186.39 46.1353 185.98 45.986 185.457 45.986C185.041 45.986 184.678 46.05 184.369 46.178C184.07 46.306 183.82 46.4873 183.617 46.722C183.414 46.9567 183.26 47.234 183.153 47.554C183.057 47.8633 183.009 48.2047 183.009 48.578V53.25H181.649V41.826ZM192.428 44.978H194.076V46.178H192.428V51.314C192.428 51.474 192.438 51.602 192.46 51.698C192.492 51.794 192.545 51.8687 192.62 51.922C192.694 51.9753 192.796 52.0127 192.924 52.034C193.062 52.0447 193.238 52.05 193.452 52.05H194.076V53.25H193.036C192.684 53.25 192.38 53.2287 192.124 53.186C191.878 53.1327 191.676 53.042 191.516 52.914C191.366 52.786 191.254 52.6047 191.18 52.37C191.105 52.1353 191.068 51.826 191.068 51.442V46.178H189.66V44.978H191.068V42.498H192.428V44.978ZM200.04 44.978H201.32V46.194H201.352C201.97 45.2553 202.861 44.786 204.024 44.786C204.536 44.786 205 44.8927 205.416 45.106C205.832 45.3193 206.125 45.682 206.296 46.194C206.573 45.746 206.936 45.3993 207.384 45.154C207.842 44.9087 208.344 44.786 208.888 44.786C209.304 44.786 209.677 44.834 210.008 44.93C210.349 45.0153 210.637 45.154 210.872 45.346C211.117 45.538 211.304 45.7887 211.432 46.098C211.57 46.3967 211.64 46.7593 211.64 47.186V53.25H210.28V47.826C210.28 47.57 210.258 47.33 210.216 47.106C210.173 46.882 210.093 46.69 209.976 46.53C209.858 46.3593 209.693 46.226 209.48 46.13C209.277 46.034 209.01 45.986 208.68 45.986C208.008 45.986 207.48 46.178 207.096 46.562C206.712 46.946 206.52 47.458 206.52 48.098V53.25H205.16V47.826C205.16 47.5593 205.133 47.314 205.08 47.09C205.037 46.866 204.957 46.674 204.84 46.514C204.722 46.3433 204.562 46.2153 204.36 46.13C204.168 46.034 203.917 45.986 203.608 45.986C203.213 45.986 202.872 46.066 202.584 46.226C202.306 46.386 202.077 46.578 201.896 46.802C201.725 47.026 201.597 47.2607 201.512 47.506C201.437 47.7407 201.4 47.938 201.4 48.098V53.25H200.04V44.978ZM214.672 49.122C214.672 49.6233 214.736 50.0713 214.864 50.466C215.003 50.85 215.19 51.1753 215.424 51.442C215.659 51.698 215.931 51.8953 216.24 52.034C216.56 52.1727 216.896 52.242 217.248 52.242C217.6 52.242 217.931 52.1727 218.24 52.034C218.56 51.8953 218.838 51.698 219.072 51.442C219.307 51.1753 219.488 50.85 219.616 50.466C219.755 50.0713 219.824 49.6233 219.824 49.122C219.824 48.6207 219.755 48.178 219.616 47.794C219.488 47.3993 219.307 47.0687 219.072 46.802C218.838 46.5353 218.56 46.3327 218.24 46.194C217.931 46.0553 217.6 45.986 217.248 45.986C216.896 45.986 216.56 46.0553 216.24 46.194C215.931 46.3327 215.659 46.5353 215.424 46.802C215.19 47.0687 215.003 47.3993 214.864 47.794C214.736 48.178 214.672 48.6207 214.672 49.122ZM213.232 49.122C213.232 48.514 213.318 47.9487 213.488 47.426C213.659 46.8927 213.915 46.434 214.256 46.05C214.598 45.6553 215.019 45.346 215.52 45.122C216.022 44.898 216.598 44.786 217.248 44.786C217.91 44.786 218.486 44.898 218.976 45.122C219.478 45.346 219.899 45.6553 220.24 46.05C220.582 46.434 220.838 46.8927 221.008 47.426C221.179 47.9487 221.264 48.514 221.264 49.122C221.264 49.73 221.179 50.2953 221.008 50.818C220.838 51.3407 220.582 51.7993 220.24 52.194C219.899 52.578 219.478 52.882 218.976 53.106C218.486 53.3193 217.91 53.426 217.248 53.426C216.598 53.426 216.022 53.3193 215.52 53.106C215.019 52.882 214.598 52.578 214.256 52.194C213.915 51.7993 213.659 51.3407 213.488 50.818C213.318 50.2953 213.232 49.73 213.232 49.122ZM223.86 49.186C223.86 49.57 223.908 49.9487 224.004 50.322C224.11 50.6847 224.265 51.01 224.468 51.298C224.681 51.586 224.948 51.8153 225.268 51.986C225.598 52.1567 225.982 52.242 226.42 52.242C226.878 52.242 227.268 52.1513 227.588 51.97C227.908 51.7887 228.169 51.554 228.372 51.266C228.574 50.9673 228.718 50.6313 228.804 50.258C228.9 49.8847 228.948 49.506 228.948 49.122C228.948 48.7167 228.9 48.3273 228.804 47.954C228.708 47.57 228.553 47.234 228.34 46.946C228.137 46.658 227.87 46.4287 227.54 46.258C227.209 46.0767 226.809 45.986 226.34 45.986C225.881 45.986 225.492 46.0767 225.172 46.258C224.852 46.4393 224.596 46.6793 224.404 46.978C224.212 47.2767 224.073 47.618 223.988 48.002C223.902 48.386 223.86 48.7807 223.86 49.186ZM230.26 53.25H228.9V52.13H228.868C228.644 52.5887 228.292 52.9193 227.812 53.122C227.332 53.3247 226.804 53.426 226.228 53.426C225.588 53.426 225.028 53.3087 224.548 53.074C224.078 52.8393 223.684 52.5247 223.364 52.13C223.054 51.7353 222.82 51.2767 222.66 50.754C222.5 50.2313 222.42 49.6767 222.42 49.09C222.42 48.5033 222.494 47.9487 222.644 47.426C222.804 46.9033 223.038 46.45 223.348 46.066C223.668 45.6713 224.062 45.362 224.532 45.138C225.012 44.9033 225.566 44.786 226.196 44.786C226.409 44.786 226.638 44.8073 226.884 44.85C227.129 44.8927 227.374 44.9673 227.62 45.074C227.865 45.17 228.094 45.3033 228.308 45.474C228.532 45.634 228.718 45.8367 228.868 46.082H228.9V41.826H230.26V53.25ZM238.096 48.322C238.075 48.002 238 47.698 237.872 47.41C237.755 47.122 237.589 46.8767 237.376 46.674C237.173 46.4607 236.928 46.2953 236.64 46.178C236.363 46.05 236.053 45.986 235.712 45.986C235.36 45.986 235.04 46.05 234.752 46.178C234.475 46.2953 234.235 46.4607 234.032 46.674C233.829 46.8873 233.669 47.138 233.552 47.426C233.435 47.7033 233.365 48.002 233.344 48.322H238.096ZM239.408 50.626C239.227 51.554 238.827 52.2527 238.208 52.722C237.589 53.1913 236.811 53.426 235.872 53.426C235.211 53.426 234.635 53.3193 234.144 53.106C233.664 52.8927 233.259 52.594 232.928 52.21C232.597 51.826 232.347 51.3673 232.176 50.834C232.016 50.3007 231.925 49.7193 231.904 49.09C231.904 48.4607 232 47.8847 232.192 47.362C232.384 46.8393 232.651 46.386 232.992 46.002C233.344 45.618 233.755 45.3193 234.224 45.106C234.704 44.8927 235.227 44.786 235.792 44.786C236.528 44.786 237.136 44.9407 237.616 45.25C238.107 45.5487 238.496 45.9327 238.784 46.402C239.083 46.8713 239.285 47.3833 239.392 47.938C239.509 48.4927 239.557 49.0207 239.536 49.522H233.344C233.333 49.8847 233.376 50.2313 233.472 50.562C233.568 50.882 233.723 51.17 233.936 51.426C234.149 51.6713 234.421 51.8687 234.752 52.018C235.083 52.1673 235.472 52.242 235.92 52.242C236.496 52.242 236.965 52.1087 237.328 51.842C237.701 51.5753 237.947 51.17 238.064 50.626H239.408Z" fill="black" fill-opacity="0.68"/>
<mask id="path-2-inside-1_81217_159669" fill="white">
<path d="M335 23.75H441V71.75H335V23.75Z"/>
</mask>
<path d="M335 23.75V22.75H334V23.75H335ZM441 23.75H442V22.75H441V23.75ZM441 71.75V72.75H442V71.75H441ZM335 71.75H334V72.75H335V71.75ZM335 23.75V24.75H441V23.75V22.75H335V23.75ZM441 23.75H440V71.75H441H442V23.75H441ZM441 71.75V70.75H335V71.75V72.75H441V71.75ZM335 71.75H336V23.75H335H334V71.75H335Z" fill="black" mask="url(#path-2-inside-1_81217_159669)"/>
<path d="M364.171 42.326H366.667L371.435 49.99H371.467V42.326H373.819V53.75H371.307L366.555 46.102H366.523V53.75H364.171V42.326ZM381.559 48.726C381.452 48.15 381.26 47.7127 380.983 47.414C380.716 47.1153 380.305 46.966 379.751 46.966C379.388 46.966 379.084 47.03 378.839 47.158C378.604 47.2753 378.412 47.4247 378.263 47.606C378.124 47.7873 378.023 47.9793 377.959 48.182C377.905 48.3847 377.873 48.566 377.863 48.726H381.559ZM377.863 50.166C377.895 50.902 378.081 51.4353 378.423 51.766C378.764 52.0967 379.255 52.262 379.895 52.262C380.353 52.262 380.748 52.15 381.079 51.926C381.409 51.6913 381.612 51.446 381.687 51.19H383.687C383.367 52.182 382.876 52.8913 382.215 53.318C381.553 53.7447 380.753 53.958 379.815 53.958C379.164 53.958 378.577 53.8567 378.055 53.654C377.532 53.4407 377.089 53.142 376.727 52.758C376.364 52.374 376.081 51.9153 375.879 51.382C375.687 50.8487 375.591 50.262 375.591 49.622C375.591 49.0033 375.692 48.4273 375.895 47.894C376.097 47.3607 376.385 46.902 376.759 46.518C377.132 46.1233 377.575 45.814 378.087 45.59C378.609 45.366 379.185 45.254 379.815 45.254C380.519 45.254 381.132 45.3927 381.655 45.67C382.177 45.9367 382.604 46.2993 382.935 46.758C383.276 47.2167 383.521 47.7393 383.671 48.326C383.82 48.9127 383.873 49.526 383.831 50.166H377.863ZM387.49 49.398L384.77 45.478H387.362L388.818 47.638L390.258 45.478H392.77L390.05 49.35L393.106 53.75H390.514L388.786 51.142L387.058 53.75H384.514L387.49 49.398ZM397.052 45.478H398.716V46.998H397.052V51.094C397.052 51.478 397.116 51.734 397.244 51.862C397.372 51.99 397.628 52.054 398.012 52.054C398.14 52.054 398.262 52.0487 398.38 52.038C398.497 52.0273 398.609 52.0113 398.716 51.99V53.75C398.524 53.782 398.31 53.8033 398.076 53.814C397.841 53.8247 397.612 53.83 397.388 53.83C397.036 53.83 396.7 53.8033 396.38 53.75C396.07 53.7073 395.793 53.6167 395.548 53.478C395.313 53.3393 395.126 53.142 394.988 52.886C394.849 52.63 394.78 52.294 394.78 51.878V46.998H393.404V45.478H394.78V42.998H397.052V45.478Z" fill="black"/>
<g clip-path="url(#clip0_81217_159669)">
<path d="M413.314 53.6875L419.375 47.75L413.314 41.8125L411.582 43.5081L415.912 47.75L411.582 51.9902L413.314 53.6875Z" fill="black"/>
</g>
<rect width="600" height="95.5" transform="translate(0 95.5)" fill="#DB0002"/>
<path d="M161.768 147.47H164.296C164.467 147.47 164.68 147.459 164.936 147.438C165.192 147.406 165.464 147.342 165.752 147.246C166.04 147.139 166.323 146.99 166.6 146.798C166.888 146.606 167.144 146.345 167.368 146.014C167.592 145.683 167.773 145.273 167.912 144.782C168.061 144.281 168.136 143.678 168.136 142.974C168.136 142.291 168.067 141.683 167.928 141.15C167.8 140.606 167.581 140.147 167.272 139.774C166.973 139.39 166.584 139.102 166.104 138.91C165.624 138.707 165.032 138.606 164.328 138.606H161.768V147.47ZM160.248 137.326H164.168C165.928 137.326 167.283 137.774 168.232 138.67C169.181 139.566 169.656 140.931 169.656 142.766C169.656 143.726 169.549 144.579 169.336 145.326C169.123 146.062 168.792 146.686 168.344 147.198C167.896 147.699 167.325 148.083 166.632 148.35C165.939 148.617 165.117 148.75 164.168 148.75H160.248V137.326ZM178.618 148.718C178.383 148.857 178.058 148.926 177.642 148.926C177.29 148.926 177.007 148.83 176.794 148.638C176.591 148.435 176.49 148.11 176.49 147.662C176.116 148.11 175.679 148.435 175.178 148.638C174.687 148.83 174.154 148.926 173.578 148.926C173.204 148.926 172.847 148.883 172.506 148.798C172.175 148.713 171.887 148.579 171.642 148.398C171.396 148.217 171.199 147.982 171.05 147.694C170.911 147.395 170.842 147.038 170.842 146.622C170.842 146.153 170.922 145.769 171.082 145.47C171.242 145.171 171.45 144.931 171.706 144.75C171.972 144.558 172.271 144.414 172.602 144.318C172.943 144.222 173.29 144.142 173.642 144.078C174.015 144.003 174.367 143.95 174.698 143.918C175.039 143.875 175.338 143.822 175.594 143.758C175.85 143.683 176.052 143.582 176.202 143.454C176.351 143.315 176.426 143.118 176.426 142.862C176.426 142.563 176.367 142.323 176.25 142.142C176.143 141.961 175.999 141.822 175.818 141.726C175.647 141.63 175.45 141.566 175.226 141.534C175.012 141.502 174.799 141.486 174.586 141.486C174.01 141.486 173.53 141.598 173.146 141.822C172.762 142.035 172.554 142.446 172.522 143.054H171.162C171.183 142.542 171.29 142.11 171.482 141.758C171.674 141.406 171.93 141.123 172.25 140.91C172.57 140.686 172.932 140.526 173.338 140.43C173.754 140.334 174.196 140.286 174.666 140.286C175.039 140.286 175.407 140.313 175.77 140.366C176.143 140.419 176.479 140.531 176.778 140.702C177.076 140.862 177.316 141.091 177.498 141.39C177.679 141.689 177.77 142.078 177.77 142.558V146.814C177.77 147.134 177.786 147.369 177.818 147.518C177.86 147.667 177.988 147.742 178.202 147.742C178.319 147.742 178.458 147.715 178.618 147.662V148.718ZM176.41 144.478C176.239 144.606 176.015 144.702 175.738 144.766C175.46 144.819 175.167 144.867 174.858 144.91C174.559 144.942 174.255 144.985 173.946 145.038C173.636 145.081 173.359 145.155 173.114 145.262C172.868 145.369 172.666 145.523 172.506 145.726C172.356 145.918 172.282 146.185 172.282 146.526C172.282 146.75 172.324 146.942 172.41 147.102C172.506 147.251 172.623 147.374 172.762 147.47C172.911 147.566 173.082 147.635 173.274 147.678C173.466 147.721 173.668 147.742 173.882 147.742C174.33 147.742 174.714 147.683 175.034 147.566C175.354 147.438 175.615 147.283 175.818 147.102C176.02 146.91 176.17 146.707 176.266 146.494C176.362 146.27 176.41 146.062 176.41 145.87V144.478ZM179.835 140.478H181.115V142.222H181.147C181.478 141.55 181.883 141.054 182.363 140.734C182.843 140.414 183.451 140.265 184.187 140.286V141.726C183.643 141.726 183.179 141.801 182.795 141.95C182.411 142.099 182.102 142.318 181.867 142.606C181.633 142.894 181.462 143.246 181.355 143.662C181.249 144.067 181.195 144.537 181.195 145.07V148.75H179.835V140.478ZM185.292 137.326H186.652V144.094L190.428 140.478H192.252L188.972 143.486L192.492 148.75H190.764L187.932 144.43L186.652 145.614V148.75H185.292V137.326ZM197.962 140.478H199.242V141.694H199.274C199.892 140.755 200.783 140.286 201.946 140.286C202.458 140.286 202.922 140.393 203.338 140.606C203.754 140.819 204.047 141.182 204.218 141.694C204.495 141.246 204.858 140.899 205.306 140.654C205.764 140.409 206.266 140.286 206.81 140.286C207.226 140.286 207.599 140.334 207.93 140.43C208.271 140.515 208.559 140.654 208.794 140.846C209.039 141.038 209.226 141.289 209.354 141.598C209.492 141.897 209.562 142.259 209.562 142.686V148.75H208.202V143.326C208.202 143.07 208.18 142.83 208.138 142.606C208.095 142.382 208.015 142.19 207.898 142.03C207.78 141.859 207.615 141.726 207.402 141.63C207.199 141.534 206.932 141.486 206.602 141.486C205.93 141.486 205.402 141.678 205.017 142.062C204.634 142.446 204.442 142.958 204.442 143.598V148.75H203.082V143.326C203.082 143.059 203.055 142.814 203.002 142.59C202.959 142.366 202.879 142.174 202.762 142.014C202.644 141.843 202.484 141.715 202.282 141.63C202.09 141.534 201.839 141.486 201.53 141.486C201.135 141.486 200.794 141.566 200.506 141.726C200.228 141.886 199.999 142.078 199.818 142.302C199.647 142.526 199.519 142.761 199.434 143.006C199.359 143.241 199.322 143.438 199.322 143.598V148.75H197.962V140.478ZM212.594 144.622C212.594 145.123 212.658 145.571 212.786 145.966C212.925 146.35 213.111 146.675 213.346 146.942C213.581 147.198 213.853 147.395 214.162 147.534C214.482 147.673 214.818 147.742 215.17 147.742C215.522 147.742 215.853 147.673 216.162 147.534C216.482 147.395 216.759 147.198 216.994 146.942C217.229 146.675 217.41 146.35 217.538 145.966C217.677 145.571 217.746 145.123 217.746 144.622C217.746 144.121 217.677 143.678 217.538 143.294C217.41 142.899 217.229 142.569 216.994 142.302C216.759 142.035 216.482 141.833 216.162 141.694C215.853 141.555 215.522 141.486 215.17 141.486C214.818 141.486 214.482 141.555 214.162 141.694C213.853 141.833 213.581 142.035 213.346 142.302C213.111 142.569 212.925 142.899 212.786 143.294C212.658 143.678 212.594 144.121 212.594 144.622ZM211.154 144.622C211.154 144.014 211.239 143.449 211.41 142.926C211.581 142.393 211.837 141.934 212.178 141.55C212.519 141.155 212.941 140.846 213.442 140.622C213.943 140.398 214.519 140.286 215.17 140.286C215.831 140.286 216.407 140.398 216.898 140.622C217.399 140.846 217.821 141.155 218.162 141.55C218.503 141.934 218.759 142.393 218.93 142.926C219.101 143.449 219.186 144.014 219.186 144.622C219.186 145.23 219.101 145.795 218.93 146.318C218.759 146.841 218.503 147.299 218.162 147.694C217.821 148.078 217.399 148.382 216.898 148.606C216.407 148.819 215.831 148.926 215.17 148.926C214.519 148.926 213.943 148.819 213.442 148.606C212.941 148.382 212.519 148.078 212.178 147.694C211.837 147.299 211.581 146.841 211.41 146.318C211.239 145.795 211.154 145.23 211.154 144.622ZM221.782 144.686C221.782 145.07 221.83 145.449 221.926 145.822C222.032 146.185 222.187 146.51 222.39 146.798C222.603 147.086 222.87 147.315 223.19 147.486C223.52 147.657 223.904 147.742 224.342 147.742C224.8 147.742 225.19 147.651 225.51 147.47C225.83 147.289 226.091 147.054 226.294 146.766C226.496 146.467 226.64 146.131 226.726 145.758C226.822 145.385 226.87 145.006 226.87 144.622C226.87 144.217 226.822 143.827 226.726 143.454C226.63 143.07 226.475 142.734 226.262 142.446C226.059 142.158 225.792 141.929 225.462 141.758C225.131 141.577 224.731 141.486 224.262 141.486C223.803 141.486 223.414 141.577 223.094 141.758C222.774 141.939 222.518 142.179 222.326 142.478C222.134 142.777 221.995 143.118 221.91 143.502C221.824 143.886 221.782 144.281 221.782 144.686ZM228.182 148.75H226.822V147.63H226.79C226.566 148.089 226.214 148.419 225.734 148.622C225.254 148.825 224.726 148.926 224.15 148.926C223.51 148.926 222.95 148.809 222.47 148.574C222 148.339 221.606 148.025 221.286 147.63C220.976 147.235 220.742 146.777 220.582 146.254C220.422 145.731 220.342 145.177 220.342 144.59C220.342 144.003 220.416 143.449 220.566 142.926C220.726 142.403 220.96 141.95 221.27 141.566C221.59 141.171 221.984 140.862 222.454 140.638C222.934 140.403 223.488 140.286 224.118 140.286C224.331 140.286 224.56 140.307 224.806 140.35C225.051 140.393 225.296 140.467 225.542 140.574C225.787 140.67 226.016 140.803 226.23 140.974C226.454 141.134 226.64 141.337 226.79 141.582H226.822V137.326H228.182V148.75ZM236.018 143.822C235.997 143.502 235.922 143.198 235.794 142.91C235.677 142.622 235.511 142.377 235.298 142.174C235.095 141.961 234.85 141.795 234.562 141.678C234.285 141.55 233.975 141.486 233.634 141.486C233.282 141.486 232.962 141.55 232.674 141.678C232.397 141.795 232.157 141.961 231.954 142.174C231.751 142.387 231.591 142.638 231.474 142.926C231.357 143.203 231.287 143.502 231.266 143.822H236.018ZM237.33 146.126C237.149 147.054 236.749 147.753 236.13 148.222C235.511 148.691 234.733 148.926 233.794 148.926C233.133 148.926 232.557 148.819 232.066 148.606C231.586 148.393 231.181 148.094 230.85 147.71C230.519 147.326 230.269 146.867 230.098 146.334C229.938 145.801 229.847 145.219 229.826 144.59C229.826 143.961 229.922 143.385 230.114 142.862C230.306 142.339 230.573 141.886 230.914 141.502C231.266 141.118 231.677 140.819 232.146 140.606C232.626 140.393 233.149 140.286 233.714 140.286C234.45 140.286 235.058 140.441 235.538 140.75C236.029 141.049 236.418 141.433 236.706 141.902C237.005 142.371 237.207 142.883 237.314 143.438C237.431 143.993 237.479 144.521 237.458 145.022H231.266C231.255 145.385 231.298 145.731 231.394 146.062C231.49 146.382 231.645 146.67 231.858 146.926C232.071 147.171 232.343 147.369 232.674 147.518C233.005 147.667 233.394 147.742 233.842 147.742C234.418 147.742 234.887 147.609 235.25 147.342C235.623 147.075 235.869 146.67 235.986 146.126H237.33Z" fill="white"/>
<mask id="path-8-inside-2_81217_159669" fill="white">
<path d="M335 119.25H441V167.25H335V119.25Z"/>
</mask>
<path d="M335 119.25V118.25H334V119.25H335ZM441 119.25H442V118.25H441V119.25ZM441 167.25V168.25H442V167.25H441ZM335 167.25H334V168.25H335V167.25ZM335 119.25V120.25H441V119.25V118.25H335V119.25ZM441 119.25H440V167.25H441H442V119.25H441ZM441 167.25V166.25H335V167.25V168.25H441V167.25ZM335 167.25H336V119.25H335H334V167.25H335Z" fill="white" mask="url(#path-8-inside-2_81217_159669)"/>
<path d="M364.171 137.826H366.667L371.435 145.49H371.467V137.826H373.819V149.25H371.307L366.555 141.602H366.523V149.25H364.171V137.826ZM381.559 144.226C381.452 143.65 381.26 143.213 380.983 142.914C380.716 142.615 380.305 142.466 379.751 142.466C379.388 142.466 379.084 142.53 378.839 142.658C378.604 142.775 378.412 142.925 378.263 143.106C378.124 143.287 378.023 143.479 377.959 143.682C377.905 143.885 377.873 144.066 377.863 144.226H381.559ZM377.863 145.666C377.895 146.402 378.081 146.935 378.423 147.266C378.764 147.597 379.255 147.762 379.895 147.762C380.353 147.762 380.748 147.65 381.079 147.426C381.409 147.191 381.612 146.946 381.687 146.69H383.687C383.367 147.682 382.876 148.391 382.215 148.818C381.553 149.245 380.753 149.458 379.815 149.458C379.164 149.458 378.577 149.357 378.055 149.154C377.532 148.941 377.089 148.642 376.727 148.258C376.364 147.874 376.081 147.415 375.879 146.882C375.687 146.349 375.591 145.762 375.591 145.122C375.591 144.503 375.692 143.927 375.895 143.394C376.097 142.861 376.385 142.402 376.759 142.018C377.132 141.623 377.575 141.314 378.087 141.09C378.609 140.866 379.185 140.754 379.815 140.754C380.519 140.754 381.132 140.893 381.655 141.17C382.177 141.437 382.604 141.799 382.935 142.258C383.276 142.717 383.521 143.239 383.671 143.826C383.82 144.413 383.873 145.026 383.831 145.666H377.863ZM387.49 144.898L384.77 140.978H387.362L388.818 143.138L390.258 140.978H392.77L390.05 144.85L393.106 149.25H390.514L388.786 146.642L387.058 149.25H384.514L387.49 144.898ZM397.052 140.978H398.716V142.498H397.052V146.594C397.052 146.978 397.116 147.234 397.244 147.362C397.372 147.49 397.628 147.554 398.012 147.554C398.14 147.554 398.262 147.549 398.38 147.538C398.497 147.527 398.609 147.511 398.716 147.49V149.25C398.524 149.282 398.31 149.303 398.076 149.314C397.841 149.325 397.612 149.33 397.388 149.33C397.036 149.33 396.7 149.303 396.38 149.25C396.07 149.207 395.793 149.117 395.548 148.978C395.313 148.839 395.126 148.642 394.988 148.386C394.849 148.13 394.78 147.794 394.78 147.378V142.498H393.404V140.978H394.78V138.498H397.052V140.978Z" fill="white"/>
<g clip-path="url(#clip1_81217_159669)">
<path d="M413.314 149.188L419.375 143.25L413.314 137.312L411.582 139.008L415.912 143.25L411.582 147.49L413.314 149.188Z" fill="white"/>
</g>
<defs>
<clipPath id="clip0_81217_159669">
<rect width="20" height="20" fill="white" transform="translate(405 37.75)"/>
</clipPath>
<clipPath id="clip1_81217_159669">
<rect width="20" height="20" fill="white" transform="translate(405 133.25)"/>
</clipPath>
</defs>
</svg>
