<svg width="600" height="522" viewBox="0 0 600 522" fill="none" xmlns="http://www.w3.org/2000/svg">
<rect width="600" height="522" fill="black" fill-opacity="0.04"/>
<path d="M160.248 206.076H167.752V207.356H161.768V210.988H167.016V212.268H161.768V217.5H160.248V206.076ZM176.54 217.468C176.305 217.607 175.98 217.676 175.564 217.676C175.212 217.676 174.929 217.58 174.716 217.388C174.513 217.185 174.412 216.86 174.412 216.412C174.038 216.86 173.601 217.185 173.1 217.388C172.609 217.58 172.076 217.676 171.5 217.676C171.126 217.676 170.769 217.633 170.428 217.548C170.097 217.463 169.809 217.329 169.564 217.148C169.318 216.967 169.121 216.732 168.972 216.444C168.833 216.145 168.764 215.788 168.764 215.372C168.764 214.903 168.844 214.519 169.004 214.22C169.164 213.921 169.372 213.681 169.628 213.5C169.894 213.308 170.193 213.164 170.524 213.068C170.865 212.972 171.212 212.892 171.564 212.828C171.937 212.753 172.289 212.7 172.62 212.668C172.961 212.625 173.26 212.572 173.516 212.508C173.772 212.433 173.974 212.332 174.124 212.204C174.273 212.065 174.348 211.868 174.348 211.612C174.348 211.313 174.289 211.073 174.172 210.892C174.065 210.711 173.921 210.572 173.74 210.476C173.569 210.38 173.372 210.316 173.148 210.284C172.934 210.252 172.721 210.236 172.508 210.236C171.932 210.236 171.452 210.348 171.068 210.572C170.684 210.785 170.476 211.196 170.444 211.804H169.084C169.105 211.292 169.212 210.86 169.404 210.508C169.596 210.156 169.852 209.873 170.172 209.66C170.492 209.436 170.854 209.276 171.26 209.18C171.676 209.084 172.118 209.036 172.588 209.036C172.961 209.036 173.329 209.063 173.692 209.116C174.065 209.169 174.401 209.281 174.7 209.452C174.998 209.612 175.238 209.841 175.42 210.14C175.601 210.439 175.692 210.828 175.692 211.308V215.564C175.692 215.884 175.708 216.119 175.74 216.268C175.782 216.417 175.91 216.492 176.124 216.492C176.241 216.492 176.38 216.465 176.54 216.412V217.468ZM174.332 213.228C174.161 213.356 173.937 213.452 173.66 213.516C173.382 213.569 173.089 213.617 172.78 213.66C172.481 213.692 172.177 213.735 171.868 213.788C171.558 213.831 171.281 213.905 171.036 214.012C170.79 214.119 170.588 214.273 170.428 214.476C170.278 214.668 170.204 214.935 170.204 215.276C170.204 215.5 170.246 215.692 170.332 215.852C170.428 216.001 170.545 216.124 170.684 216.22C170.833 216.316 171.004 216.385 171.196 216.428C171.388 216.471 171.59 216.492 171.804 216.492C172.252 216.492 172.636 216.433 172.956 216.316C173.276 216.188 173.537 216.033 173.74 215.852C173.942 215.66 174.092 215.457 174.188 215.244C174.284 215.02 174.332 214.812 174.332 214.62V213.228ZM177.885 206.076H179.245V217.5H177.885V206.076ZM182.184 214.892C182.195 215.191 182.264 215.447 182.392 215.66C182.52 215.863 182.685 216.028 182.888 216.156C183.101 216.273 183.336 216.359 183.592 216.412C183.859 216.465 184.131 216.492 184.408 216.492C184.621 216.492 184.845 216.476 185.08 216.444C185.315 216.412 185.528 216.353 185.72 216.268C185.923 216.183 186.088 216.06 186.216 215.9C186.344 215.729 186.408 215.516 186.408 215.26C186.408 214.908 186.275 214.641 186.008 214.46C185.741 214.279 185.405 214.135 185 214.028C184.605 213.911 184.173 213.809 183.704 213.724C183.235 213.628 182.797 213.5 182.392 213.34C181.997 213.169 181.667 212.935 181.4 212.636C181.133 212.337 181 211.921 181 211.388C181 210.972 181.091 210.615 181.272 210.316C181.464 210.017 181.704 209.777 181.992 209.596C182.291 209.404 182.621 209.265 182.984 209.18C183.357 209.084 183.725 209.036 184.088 209.036C184.557 209.036 184.989 209.079 185.384 209.164C185.779 209.239 186.125 209.377 186.424 209.58C186.733 209.772 186.979 210.039 187.16 210.38C187.341 210.711 187.448 211.127 187.48 211.628H186.12C186.099 211.361 186.029 211.143 185.912 210.972C185.795 210.791 185.645 210.647 185.464 210.54C185.283 210.433 185.08 210.359 184.856 210.316C184.643 210.263 184.424 210.236 184.2 210.236C183.997 210.236 183.789 210.252 183.576 210.284C183.373 210.316 183.187 210.375 183.016 210.46C182.845 210.535 182.707 210.641 182.6 210.78C182.493 210.908 182.44 211.079 182.44 211.292C182.44 211.527 182.52 211.724 182.68 211.884C182.851 212.033 183.064 212.161 183.32 212.268C183.576 212.364 183.864 212.449 184.184 212.524C184.504 212.588 184.824 212.657 185.144 212.732C185.485 212.807 185.816 212.897 186.136 213.004C186.467 213.111 186.755 213.255 187 213.436C187.256 213.607 187.459 213.825 187.608 214.092C187.768 214.359 187.848 214.689 187.848 215.084C187.848 215.585 187.741 216.001 187.528 216.332C187.325 216.663 187.053 216.929 186.712 217.132C186.381 217.335 186.003 217.473 185.576 217.548C185.16 217.633 184.744 217.676 184.328 217.676C183.869 217.676 183.432 217.628 183.016 217.532C182.6 217.436 182.232 217.281 181.912 217.068C181.592 216.844 181.336 216.556 181.144 216.204C180.952 215.841 180.845 215.404 180.824 214.892H182.184ZM195.096 212.572C195.075 212.252 195 211.948 194.872 211.66C194.755 211.372 194.589 211.127 194.376 210.924C194.173 210.711 193.928 210.545 193.64 210.428C193.363 210.3 193.053 210.236 192.712 210.236C192.36 210.236 192.04 210.3 191.752 210.428C191.475 210.545 191.235 210.711 191.032 210.924C190.829 211.137 190.669 211.388 190.552 211.676C190.435 211.953 190.365 212.252 190.344 212.572H195.096ZM196.408 214.876C196.227 215.804 195.827 216.503 195.208 216.972C194.589 217.441 193.811 217.676 192.872 217.676C192.211 217.676 191.635 217.569 191.144 217.356C190.664 217.143 190.259 216.844 189.928 216.46C189.597 216.076 189.347 215.617 189.176 215.084C189.016 214.551 188.925 213.969 188.904 213.34C188.904 212.711 189 212.135 189.192 211.612C189.384 211.089 189.651 210.636 189.992 210.252C190.344 209.868 190.755 209.569 191.224 209.356C191.704 209.143 192.227 209.036 192.792 209.036C193.528 209.036 194.136 209.191 194.616 209.5C195.107 209.799 195.496 210.183 195.784 210.652C196.083 211.121 196.285 211.633 196.392 212.188C196.509 212.743 196.557 213.271 196.536 213.772H190.344C190.333 214.135 190.376 214.481 190.472 214.812C190.568 215.132 190.723 215.42 190.936 215.676C191.149 215.921 191.421 216.119 191.752 216.268C192.083 216.417 192.472 216.492 192.92 216.492C193.496 216.492 193.965 216.359 194.328 216.092C194.701 215.825 194.947 215.42 195.064 214.876H196.408Z" fill="black" fill-opacity="0.68"/>
<mask id="path-2-inside-1_75116_5944" fill="white">
<path d="M335 188H441V236H335V188Z"/>
</mask>
<path d="M335 188V187H334V188H335ZM441 188H442V187H441V188ZM441 236V237H442V236H441ZM335 236H334V237H335V236ZM335 188V189H441V188V187H335V188ZM441 188H440V236H441H442V188H441ZM441 236V235H335V236V237H441V236ZM335 236H336V188H335H334V236H335Z" fill="black" mask="url(#path-2-inside-1_75116_5944)"/>
<path d="M364.171 206.576H366.667L371.435 214.24H371.467V206.576H373.819V218H371.307L366.555 210.352H366.523V218H364.171V206.576ZM381.559 212.976C381.452 212.4 381.26 211.963 380.983 211.664C380.716 211.365 380.305 211.216 379.751 211.216C379.388 211.216 379.084 211.28 378.839 211.408C378.604 211.525 378.412 211.675 378.263 211.856C378.124 212.037 378.023 212.229 377.959 212.432C377.905 212.635 377.873 212.816 377.863 212.976H381.559ZM377.863 214.416C377.895 215.152 378.081 215.685 378.423 216.016C378.764 216.347 379.255 216.512 379.895 216.512C380.353 216.512 380.748 216.4 381.079 216.176C381.409 215.941 381.612 215.696 381.687 215.44H383.687C383.367 216.432 382.876 217.141 382.215 217.568C381.553 217.995 380.753 218.208 379.815 218.208C379.164 218.208 378.577 218.107 378.055 217.904C377.532 217.691 377.089 217.392 376.727 217.008C376.364 216.624 376.081 216.165 375.879 215.632C375.687 215.099 375.591 214.512 375.591 213.872C375.591 213.253 375.692 212.677 375.895 212.144C376.097 211.611 376.385 211.152 376.759 210.768C377.132 210.373 377.575 210.064 378.087 209.84C378.609 209.616 379.185 209.504 379.815 209.504C380.519 209.504 381.132 209.643 381.655 209.92C382.177 210.187 382.604 210.549 382.935 211.008C383.276 211.467 383.521 211.989 383.671 212.576C383.82 213.163 383.873 213.776 383.831 214.416H377.863ZM387.49 213.648L384.77 209.728H387.362L388.818 211.888L390.258 209.728H392.77L390.05 213.6L393.106 218H390.514L388.786 215.392L387.058 218H384.514L387.49 213.648ZM397.052 209.728H398.716V211.248H397.052V215.344C397.052 215.728 397.116 215.984 397.244 216.112C397.372 216.24 397.628 216.304 398.012 216.304C398.14 216.304 398.262 216.299 398.38 216.288C398.497 216.277 398.609 216.261 398.716 216.24V218C398.524 218.032 398.31 218.053 398.076 218.064C397.841 218.075 397.612 218.08 397.388 218.08C397.036 218.08 396.7 218.053 396.38 218C396.07 217.957 395.793 217.867 395.548 217.728C395.313 217.589 395.126 217.392 394.988 217.136C394.849 216.88 394.78 216.544 394.78 216.128V211.248H393.404V209.728H394.78V207.248H397.052V209.728Z" fill="black"/>
<g clip-path="url(#clip0_75116_5944)">
<path d="M413.314 217.938L419.375 212L413.314 206.062L411.582 207.758L415.912 212L411.582 216.24L413.314 217.938Z" fill="black"/>
</g>
<path d="M162.84 305.356H159.032V304.076H168.168V305.356H164.36V315.5H162.84V305.356ZM167.695 307.228H168.975V308.972H169.007C169.337 308.3 169.743 307.804 170.223 307.484C170.703 307.164 171.311 307.015 172.047 307.036V308.476C171.503 308.476 171.039 308.551 170.655 308.7C170.271 308.849 169.961 309.068 169.727 309.356C169.492 309.644 169.321 309.996 169.215 310.412C169.108 310.817 169.055 311.287 169.055 311.82V315.5H167.695V307.228ZM179.919 315.5H178.639V314.188H178.607C178.319 314.7 177.951 315.079 177.503 315.324C177.055 315.559 176.527 315.676 175.919 315.676C175.375 315.676 174.922 315.607 174.559 315.468C174.196 315.319 173.903 315.111 173.679 314.844C173.455 314.577 173.295 314.263 173.199 313.9C173.114 313.527 173.071 313.116 173.071 312.668V307.228H174.431V312.828C174.431 313.34 174.58 313.745 174.879 314.044C175.178 314.343 175.588 314.492 176.111 314.492C176.527 314.492 176.884 314.428 177.183 314.3C177.492 314.172 177.748 313.991 177.951 313.756C178.154 313.521 178.303 313.249 178.399 312.94C178.506 312.62 178.559 312.273 178.559 311.9V307.228H179.919V315.5ZM187.706 310.572C187.684 310.252 187.61 309.948 187.482 309.66C187.364 309.372 187.199 309.127 186.986 308.924C186.783 308.711 186.538 308.545 186.25 308.428C185.972 308.3 185.663 308.236 185.322 308.236C184.97 308.236 184.65 308.3 184.362 308.428C184.084 308.545 183.844 308.711 183.642 308.924C183.439 309.137 183.279 309.388 183.162 309.676C183.044 309.953 182.975 310.252 182.954 310.572H187.706ZM189.017 312.876C188.836 313.804 188.436 314.503 187.818 314.972C187.199 315.441 186.42 315.676 185.482 315.676C184.82 315.676 184.244 315.569 183.754 315.356C183.274 315.143 182.868 314.844 182.538 314.46C182.207 314.076 181.956 313.617 181.786 313.084C181.626 312.551 181.535 311.969 181.514 311.34C181.514 310.711 181.61 310.135 181.802 309.612C181.994 309.089 182.26 308.636 182.602 308.252C182.954 307.868 183.364 307.569 183.834 307.356C184.314 307.143 184.836 307.036 185.402 307.036C186.138 307.036 186.746 307.191 187.226 307.5C187.716 307.799 188.106 308.183 188.394 308.652C188.692 309.121 188.895 309.633 189.002 310.188C189.119 310.743 189.167 311.271 189.146 311.772H182.954C182.943 312.135 182.986 312.481 183.082 312.812C183.178 313.132 183.332 313.42 183.546 313.676C183.759 313.921 184.031 314.119 184.362 314.268C184.692 314.417 185.082 314.492 185.53 314.492C186.106 314.492 186.575 314.359 186.938 314.092C187.311 313.825 187.556 313.42 187.674 312.876H189.017Z" fill="black" fill-opacity="0.68"/>
<mask id="path-8-inside-2_75116_5944" fill="white">
<path d="M393 286H441V334H393V286Z"/>
</mask>
<path d="M393 286V285H392V286H393ZM441 286H442V285H441V286ZM441 334V335H442V334H441ZM393 334H392V335H393V334ZM393 286V287H441V286V285H393V286ZM441 286H440V334H441H442V286H441ZM441 334V333H393V334V335H441V334ZM393 334H394V286H393H392V334H393Z" fill="black" mask="url(#path-8-inside-2_75116_5944)"/>
<g clip-path="url(#clip1_75116_5944)">
<path d="M414.977 317.125L422.25 310L414.977 302.875L412.898 304.91L418.095 310L412.898 315.088L414.977 317.125Z" fill="black"/>
</g>
<defs>
<clipPath id="clip0_75116_5944">
<rect width="20" height="20" fill="white" transform="translate(405 202)"/>
</clipPath>
<clipPath id="clip1_75116_5944">
<rect width="24" height="24" fill="white" transform="translate(405 298)"/>
</clipPath>
</defs>
</svg>
