<svg width="600" height="1307" viewBox="0 0 600 1307" fill="none" xmlns="http://www.w3.org/2000/svg">
<rect width="600" height="1307" fill="black" fill-opacity="0.04"/>
<path d="M160.248 353.576H168.136V354.856H161.768V358.488H167.704V359.768H161.768V363.72H168.184V365H160.248V353.576ZM169.805 356.728H171.085V358.04H171.117C171.683 357.037 172.579 356.536 173.805 356.536C174.349 356.536 174.803 356.611 175.165 356.76C175.528 356.909 175.821 357.117 176.045 357.384C176.269 357.651 176.424 357.971 176.509 358.344C176.605 358.707 176.653 359.112 176.653 359.56V365H175.293V359.4C175.293 358.888 175.144 358.483 174.845 358.184C174.547 357.885 174.136 357.736 173.613 357.736C173.197 357.736 172.835 357.8 172.525 357.928C172.227 358.056 171.976 358.237 171.773 358.472C171.571 358.707 171.416 358.984 171.309 359.304C171.213 359.613 171.165 359.955 171.165 360.328V365H169.805V356.728ZM186.024 364.968C185.789 365.107 185.464 365.176 185.048 365.176C184.696 365.176 184.413 365.08 184.2 364.888C183.997 364.685 183.896 364.36 183.896 363.912C183.523 364.36 183.085 364.685 182.584 364.888C182.093 365.08 181.56 365.176 180.984 365.176C180.611 365.176 180.253 365.133 179.912 365.048C179.581 364.963 179.293 364.829 179.048 364.648C178.803 364.467 178.605 364.232 178.456 363.944C178.317 363.645 178.248 363.288 178.248 362.872C178.248 362.403 178.328 362.019 178.488 361.72C178.648 361.421 178.856 361.181 179.112 361C179.379 360.808 179.677 360.664 180.008 360.568C180.349 360.472 180.696 360.392 181.048 360.328C181.421 360.253 181.773 360.2 182.104 360.168C182.445 360.125 182.744 360.072 183 360.008C183.256 359.933 183.459 359.832 183.608 359.704C183.757 359.565 183.832 359.368 183.832 359.112C183.832 358.813 183.773 358.573 183.656 358.392C183.549 358.211 183.405 358.072 183.224 357.976C183.053 357.88 182.856 357.816 182.632 357.784C182.419 357.752 182.205 357.736 181.992 357.736C181.416 357.736 180.936 357.848 180.552 358.072C180.168 358.285 179.96 358.696 179.928 359.304H178.568C178.589 358.792 178.696 358.36 178.888 358.008C179.08 357.656 179.336 357.373 179.656 357.16C179.976 356.936 180.339 356.776 180.744 356.68C181.16 356.584 181.603 356.536 182.072 356.536C182.445 356.536 182.813 356.563 183.176 356.616C183.549 356.669 183.885 356.781 184.184 356.952C184.483 357.112 184.723 357.341 184.904 357.64C185.085 357.939 185.176 358.328 185.176 358.808V363.064C185.176 363.384 185.192 363.619 185.224 363.768C185.267 363.917 185.395 363.992 185.608 363.992C185.725 363.992 185.864 363.965 186.024 363.912V364.968ZM183.816 360.728C183.645 360.856 183.421 360.952 183.144 361.016C182.867 361.069 182.573 361.117 182.264 361.16C181.965 361.192 181.661 361.235 181.352 361.288C181.043 361.331 180.765 361.405 180.52 361.512C180.275 361.619 180.072 361.773 179.912 361.976C179.763 362.168 179.688 362.435 179.688 362.776C179.688 363 179.731 363.192 179.816 363.352C179.912 363.501 180.029 363.624 180.168 363.72C180.317 363.816 180.488 363.885 180.68 363.928C180.872 363.971 181.075 363.992 181.288 363.992C181.736 363.992 182.12 363.933 182.44 363.816C182.76 363.688 183.021 363.533 183.224 363.352C183.427 363.16 183.576 362.957 183.672 362.744C183.768 362.52 183.816 362.312 183.816 362.12V360.728ZM187.338 353.576H188.698V357.848H188.73C188.954 357.389 189.306 357.059 189.786 356.856C190.266 356.643 190.794 356.536 191.37 356.536C192.01 356.536 192.564 356.653 193.034 356.888C193.514 357.123 193.908 357.443 194.218 357.848C194.538 358.243 194.778 358.701 194.938 359.224C195.098 359.747 195.178 360.301 195.178 360.888C195.178 361.475 195.098 362.029 194.938 362.552C194.788 363.075 194.554 363.533 194.234 363.928C193.924 364.312 193.53 364.616 193.05 364.84C192.58 365.064 192.031 365.176 191.402 365.176C191.199 365.176 190.97 365.155 190.714 365.112C190.468 365.069 190.223 365 189.978 364.904C189.732 364.808 189.498 364.68 189.274 364.52C189.06 364.349 188.879 364.141 188.73 363.896H188.698V365H187.338V353.576ZM193.738 360.792C193.738 360.408 193.684 360.035 193.578 359.672C193.482 359.299 193.327 358.968 193.114 358.68C192.911 358.392 192.644 358.163 192.314 357.992C191.994 357.821 191.615 357.736 191.178 357.736C190.719 357.736 190.33 357.827 190.01 358.008C189.69 358.189 189.428 358.429 189.226 358.728C189.023 359.016 188.874 359.347 188.778 359.72C188.692 360.093 188.65 360.472 188.65 360.856C188.65 361.261 188.698 361.656 188.794 362.04C188.89 362.413 189.039 362.744 189.242 363.032C189.455 363.32 189.727 363.555 190.058 363.736C190.388 363.907 190.788 363.992 191.258 363.992C191.727 363.992 192.116 363.901 192.426 363.72C192.746 363.539 193.002 363.299 193.194 363C193.386 362.701 193.524 362.36 193.61 361.976C193.695 361.592 193.738 361.197 193.738 360.792ZM196.854 353.576H198.214V365H196.854V353.576ZM206.065 360.072C206.044 359.752 205.969 359.448 205.841 359.16C205.724 358.872 205.558 358.627 205.345 358.424C205.142 358.211 204.897 358.045 204.609 357.928C204.332 357.8 204.022 357.736 203.681 357.736C203.329 357.736 203.009 357.8 202.721 357.928C202.444 358.045 202.204 358.211 202.001 358.424C201.798 358.637 201.638 358.888 201.521 359.176C201.404 359.453 201.334 359.752 201.313 360.072H206.065ZM207.377 362.376C207.196 363.304 206.796 364.003 206.177 364.472C205.558 364.941 204.78 365.176 203.841 365.176C203.18 365.176 202.604 365.069 202.113 364.856C201.633 364.643 201.228 364.344 200.897 363.96C200.566 363.576 200.316 363.117 200.145 362.584C199.985 362.051 199.894 361.469 199.873 360.84C199.873 360.211 199.969 359.635 200.161 359.112C200.353 358.589 200.62 358.136 200.961 357.752C201.313 357.368 201.724 357.069 202.193 356.856C202.673 356.643 203.196 356.536 203.761 356.536C204.497 356.536 205.105 356.691 205.585 357C206.076 357.299 206.465 357.683 206.753 358.152C207.052 358.621 207.254 359.133 207.361 359.688C207.478 360.243 207.526 360.771 207.505 361.272H201.313C201.302 361.635 201.345 361.981 201.441 362.312C201.537 362.632 201.692 362.92 201.905 363.176C202.118 363.421 202.39 363.619 202.721 363.768C203.052 363.917 203.441 363.992 203.889 363.992C204.465 363.992 204.934 363.859 205.297 363.592C205.67 363.325 205.916 362.92 206.033 362.376H207.377ZM209.907 360.936C209.907 361.32 209.955 361.699 210.051 362.072C210.157 362.435 210.312 362.76 210.515 363.048C210.728 363.336 210.995 363.565 211.315 363.736C211.645 363.907 212.029 363.992 212.467 363.992C212.925 363.992 213.315 363.901 213.635 363.72C213.955 363.539 214.216 363.304 214.419 363.016C214.621 362.717 214.765 362.381 214.851 362.008C214.947 361.635 214.995 361.256 214.995 360.872C214.995 360.467 214.947 360.077 214.851 359.704C214.755 359.32 214.6 358.984 214.387 358.696C214.184 358.408 213.917 358.179 213.587 358.008C213.256 357.827 212.856 357.736 212.387 357.736C211.928 357.736 211.539 357.827 211.219 358.008C210.899 358.189 210.643 358.429 210.451 358.728C210.259 359.027 210.12 359.368 210.035 359.752C209.949 360.136 209.907 360.531 209.907 360.936ZM216.307 365H214.947V363.88H214.915C214.691 364.339 214.339 364.669 213.859 364.872C213.379 365.075 212.851 365.176 212.275 365.176C211.635 365.176 211.075 365.059 210.595 364.824C210.125 364.589 209.731 364.275 209.411 363.88C209.101 363.485 208.867 363.027 208.707 362.504C208.547 361.981 208.467 361.427 208.467 360.84C208.467 360.253 208.541 359.699 208.691 359.176C208.851 358.653 209.085 358.2 209.395 357.816C209.715 357.421 210.109 357.112 210.579 356.888C211.059 356.653 211.613 356.536 212.243 356.536C212.456 356.536 212.685 356.557 212.931 356.6C213.176 356.643 213.421 356.717 213.667 356.824C213.912 356.92 214.141 357.053 214.355 357.224C214.579 357.384 214.765 357.587 214.915 357.832H214.947V353.576H216.307V365Z" fill="black" fill-opacity="0.68"/>
<mask id="path-2-inside-1_75104_15024" fill="white">
<path d="M335 335.5H441V383.5H335V335.5Z"/>
</mask>
<path d="M335 335.5V334.5H334V335.5H335ZM441 335.5H442V334.5H441V335.5ZM441 383.5V384.5H442V383.5H441ZM335 383.5H334V384.5H335V383.5ZM335 335.5V336.5H441V335.5V334.5H335V335.5ZM441 335.5H440V383.5H441H442V335.5H441ZM441 383.5V382.5H335V383.5V384.5H441V383.5ZM335 383.5H336V335.5H335H334V383.5H335Z" fill="black" mask="url(#path-2-inside-1_75104_15024)"/>
<path d="M364.171 354.076H366.667L371.435 361.74H371.467V354.076H373.819V365.5H371.307L366.555 357.852H366.523V365.5H364.171V354.076ZM381.559 360.476C381.452 359.9 381.26 359.463 380.983 359.164C380.716 358.865 380.305 358.716 379.751 358.716C379.388 358.716 379.084 358.78 378.839 358.908C378.604 359.025 378.412 359.175 378.263 359.356C378.124 359.537 378.023 359.729 377.959 359.932C377.905 360.135 377.873 360.316 377.863 360.476H381.559ZM377.863 361.916C377.895 362.652 378.081 363.185 378.423 363.516C378.764 363.847 379.255 364.012 379.895 364.012C380.353 364.012 380.748 363.9 381.079 363.676C381.409 363.441 381.612 363.196 381.687 362.94H383.687C383.367 363.932 382.876 364.641 382.215 365.068C381.553 365.495 380.753 365.708 379.815 365.708C379.164 365.708 378.577 365.607 378.055 365.404C377.532 365.191 377.089 364.892 376.727 364.508C376.364 364.124 376.081 363.665 375.879 363.132C375.687 362.599 375.591 362.012 375.591 361.372C375.591 360.753 375.692 360.177 375.895 359.644C376.097 359.111 376.385 358.652 376.759 358.268C377.132 357.873 377.575 357.564 378.087 357.34C378.609 357.116 379.185 357.004 379.815 357.004C380.519 357.004 381.132 357.143 381.655 357.42C382.177 357.687 382.604 358.049 382.935 358.508C383.276 358.967 383.521 359.489 383.671 360.076C383.82 360.663 383.873 361.276 383.831 361.916H377.863ZM387.49 361.148L384.77 357.228H387.362L388.818 359.388L390.258 357.228H392.77L390.05 361.1L393.106 365.5H390.514L388.786 362.892L387.058 365.5H384.514L387.49 361.148ZM397.052 357.228H398.716V358.748H397.052V362.844C397.052 363.228 397.116 363.484 397.244 363.612C397.372 363.74 397.628 363.804 398.012 363.804C398.14 363.804 398.262 363.799 398.38 363.788C398.497 363.777 398.609 363.761 398.716 363.74V365.5C398.524 365.532 398.31 365.553 398.076 365.564C397.841 365.575 397.612 365.58 397.388 365.58C397.036 365.58 396.7 365.553 396.38 365.5C396.07 365.457 395.793 365.367 395.548 365.228C395.313 365.089 395.126 364.892 394.988 364.636C394.849 364.38 394.78 364.044 394.78 363.628V358.748H393.404V357.228H394.78V354.748H397.052V357.228Z" fill="black"/>
<g clip-path="url(#clip0_75104_15024)">
<path d="M413.314 365.438L419.375 359.5L413.314 353.562L411.582 355.258L415.912 359.5L411.582 363.74L413.314 365.438Z" fill="black"/>
</g>
<path d="M160.248 451.576H161.768V456.488H167.784V451.576H169.304V463H167.784V457.768H161.768V463H160.248V451.576ZM172.563 458.872C172.563 459.373 172.627 459.821 172.755 460.216C172.894 460.6 173.08 460.925 173.315 461.192C173.55 461.448 173.822 461.645 174.131 461.784C174.451 461.923 174.787 461.992 175.139 461.992C175.491 461.992 175.822 461.923 176.131 461.784C176.451 461.645 176.728 461.448 176.963 461.192C177.198 460.925 177.379 460.6 177.507 460.216C177.646 459.821 177.715 459.373 177.715 458.872C177.715 458.371 177.646 457.928 177.507 457.544C177.379 457.149 177.198 456.819 176.963 456.552C176.728 456.285 176.451 456.083 176.131 455.944C175.822 455.805 175.491 455.736 175.139 455.736C174.787 455.736 174.451 455.805 174.131 455.944C173.822 456.083 173.55 456.285 173.315 456.552C173.08 456.819 172.894 457.149 172.755 457.544C172.627 457.928 172.563 458.371 172.563 458.872ZM171.123 458.872C171.123 458.264 171.208 457.699 171.379 457.176C171.55 456.643 171.806 456.184 172.147 455.8C172.488 455.405 172.91 455.096 173.411 454.872C173.912 454.648 174.488 454.536 175.139 454.536C175.8 454.536 176.376 454.648 176.867 454.872C177.368 455.096 177.79 455.405 178.131 455.8C178.472 456.184 178.728 456.643 178.899 457.176C179.07 457.699 179.155 458.264 179.155 458.872C179.155 459.48 179.07 460.045 178.899 460.568C178.728 461.091 178.472 461.549 178.131 461.944C177.79 462.328 177.368 462.632 176.867 462.856C176.376 463.069 175.8 463.176 175.139 463.176C174.488 463.176 173.912 463.069 173.411 462.856C172.91 462.632 172.488 462.328 172.147 461.944C171.806 461.549 171.55 461.091 171.379 460.568C171.208 460.045 171.123 459.48 171.123 458.872ZM184.486 463H183.03L179.958 454.728H181.478L183.798 461.624H183.83L186.086 454.728H187.51L184.486 463ZM194.502 458.072C194.481 457.752 194.406 457.448 194.278 457.16C194.161 456.872 193.996 456.627 193.782 456.424C193.58 456.211 193.334 456.045 193.046 455.928C192.769 455.8 192.46 455.736 192.118 455.736C191.766 455.736 191.446 455.8 191.158 455.928C190.881 456.045 190.641 456.211 190.438 456.424C190.236 456.637 190.076 456.888 189.958 457.176C189.841 457.453 189.772 457.752 189.75 458.072H194.502ZM195.814 460.376C195.633 461.304 195.233 462.003 194.614 462.472C193.996 462.941 193.217 463.176 192.278 463.176C191.617 463.176 191.041 463.069 190.55 462.856C190.07 462.643 189.665 462.344 189.334 461.96C189.004 461.576 188.753 461.117 188.582 460.584C188.422 460.051 188.332 459.469 188.31 458.84C188.31 458.211 188.406 457.635 188.598 457.112C188.79 456.589 189.057 456.136 189.398 455.752C189.75 455.368 190.161 455.069 190.63 454.856C191.11 454.643 191.633 454.536 192.198 454.536C192.934 454.536 193.542 454.691 194.022 455C194.513 455.299 194.902 455.683 195.19 456.152C195.489 456.621 195.692 457.133 195.798 457.688C195.916 458.243 195.964 458.771 195.942 459.272H189.75C189.74 459.635 189.782 459.981 189.878 460.312C189.974 460.632 190.129 460.92 190.342 461.176C190.556 461.421 190.828 461.619 191.158 461.768C191.489 461.917 191.878 461.992 192.326 461.992C192.902 461.992 193.372 461.859 193.734 461.592C194.108 461.325 194.353 460.92 194.47 460.376H195.814ZM197.304 454.728H198.584V456.472H198.616C198.947 455.8 199.352 455.304 199.832 454.984C200.312 454.664 200.92 454.515 201.656 454.536V455.976C201.112 455.976 200.648 456.051 200.264 456.2C199.88 456.349 199.571 456.568 199.336 456.856C199.101 457.144 198.931 457.496 198.824 457.912C198.717 458.317 198.664 458.787 198.664 459.32V463H197.304V454.728Z" fill="black" fill-opacity="0.68"/>
<mask id="path-8-inside-2_75104_15024" fill="white">
<path d="M335 433.5H441V481.5H335V433.5Z"/>
</mask>
<path d="M335 433.5V431.5H333V433.5H335ZM441 433.5H443V431.5H441V433.5ZM441 481.5V483.5H443V481.5H441ZM335 481.5H333V483.5H335V481.5ZM335 433.5V435.5H441V433.5V431.5H335V433.5ZM441 433.5H439V481.5H441H443V433.5H441ZM441 481.5V479.5H335V481.5V483.5H441V481.5ZM335 481.5H337V433.5H335H333V481.5H335Z" fill="black" fill-opacity="0.68" mask="url(#path-8-inside-2_75104_15024)"/>
<path d="M364.171 452.076H366.667L371.435 459.74H371.467V452.076H373.819V463.5H371.307L366.555 455.852H366.523V463.5H364.171V452.076ZM381.559 458.476C381.452 457.9 381.26 457.463 380.983 457.164C380.716 456.865 380.305 456.716 379.751 456.716C379.388 456.716 379.084 456.78 378.839 456.908C378.604 457.025 378.412 457.175 378.263 457.356C378.124 457.537 378.023 457.729 377.959 457.932C377.905 458.135 377.873 458.316 377.863 458.476H381.559ZM377.863 459.916C377.895 460.652 378.081 461.185 378.423 461.516C378.764 461.847 379.255 462.012 379.895 462.012C380.353 462.012 380.748 461.9 381.079 461.676C381.409 461.441 381.612 461.196 381.687 460.94H383.687C383.367 461.932 382.876 462.641 382.215 463.068C381.553 463.495 380.753 463.708 379.815 463.708C379.164 463.708 378.577 463.607 378.055 463.404C377.532 463.191 377.089 462.892 376.727 462.508C376.364 462.124 376.081 461.665 375.879 461.132C375.687 460.599 375.591 460.012 375.591 459.372C375.591 458.753 375.692 458.177 375.895 457.644C376.097 457.111 376.385 456.652 376.759 456.268C377.132 455.873 377.575 455.564 378.087 455.34C378.609 455.116 379.185 455.004 379.815 455.004C380.519 455.004 381.132 455.143 381.655 455.42C382.177 455.687 382.604 456.049 382.935 456.508C383.276 456.967 383.521 457.489 383.671 458.076C383.82 458.663 383.873 459.276 383.831 459.916H377.863ZM387.49 459.148L384.77 455.228H387.362L388.818 457.388L390.258 455.228H392.77L390.05 459.1L393.106 463.5H390.514L388.786 460.892L387.058 463.5H384.514L387.49 459.148ZM397.052 455.228H398.716V456.748H397.052V460.844C397.052 461.228 397.116 461.484 397.244 461.612C397.372 461.74 397.628 461.804 398.012 461.804C398.14 461.804 398.262 461.799 398.38 461.788C398.497 461.777 398.609 461.761 398.716 461.74V463.5C398.524 463.532 398.31 463.553 398.076 463.564C397.841 463.575 397.612 463.58 397.388 463.58C397.036 463.58 396.7 463.553 396.38 463.5C396.07 463.457 395.793 463.367 395.548 463.228C395.313 463.089 395.126 462.892 394.988 462.636C394.849 462.38 394.78 462.044 394.78 461.628V456.748H393.404V455.228H394.78V452.748H397.052V455.228Z" fill="black" fill-opacity="0.68"/>
<g clip-path="url(#clip1_75104_15024)">
<path d="M413.314 463.438L419.375 457.5L413.314 451.562L411.582 453.258L415.912 457.5L411.582 461.74L413.314 463.438Z" fill="black" fill-opacity="0.68"/>
</g>
<path d="M160.248 549.576H167.752V550.856H161.768V554.488H167.016V555.768H161.768V561H160.248V549.576ZM170.204 556.872C170.204 557.373 170.268 557.821 170.396 558.216C170.534 558.6 170.721 558.925 170.956 559.192C171.19 559.448 171.462 559.645 171.772 559.784C172.092 559.923 172.428 559.992 172.78 559.992C173.132 559.992 173.462 559.923 173.772 559.784C174.092 559.645 174.369 559.448 174.604 559.192C174.838 558.925 175.02 558.6 175.148 558.216C175.286 557.821 175.356 557.373 175.356 556.872C175.356 556.371 175.286 555.928 175.148 555.544C175.02 555.149 174.838 554.819 174.604 554.552C174.369 554.285 174.092 554.083 173.772 553.944C173.462 553.805 173.132 553.736 172.78 553.736C172.428 553.736 172.092 553.805 171.772 553.944C171.462 554.083 171.19 554.285 170.956 554.552C170.721 554.819 170.534 555.149 170.396 555.544C170.268 555.928 170.204 556.371 170.204 556.872ZM168.764 556.872C168.764 556.264 168.849 555.699 169.02 555.176C169.19 554.643 169.446 554.184 169.788 553.8C170.129 553.405 170.55 553.096 171.052 552.872C171.553 552.648 172.129 552.536 172.78 552.536C173.441 552.536 174.017 552.648 174.508 552.872C175.009 553.096 175.43 553.405 175.772 553.8C176.113 554.184 176.369 554.643 176.54 555.176C176.71 555.699 176.796 556.264 176.796 556.872C176.796 557.48 176.71 558.045 176.54 558.568C176.369 559.091 176.113 559.549 175.772 559.944C175.43 560.328 175.009 560.632 174.508 560.856C174.017 561.069 173.441 561.176 172.78 561.176C172.129 561.176 171.553 561.069 171.052 560.856C170.55 560.632 170.129 560.328 169.788 559.944C169.446 559.549 169.19 559.091 169.02 558.568C168.849 558.045 168.764 557.48 168.764 556.872ZM184.015 555.384C183.908 554.861 183.684 554.456 183.343 554.168C183.002 553.88 182.543 553.736 181.967 553.736C181.476 553.736 181.066 553.827 180.735 554.008C180.404 554.189 180.138 554.429 179.935 554.728C179.743 555.027 179.604 555.373 179.519 555.768C179.434 556.152 179.391 556.552 179.391 556.968C179.391 557.352 179.434 557.725 179.519 558.088C179.615 558.451 179.759 558.776 179.951 559.064C180.143 559.341 180.394 559.565 180.703 559.736C181.012 559.907 181.38 559.992 181.807 559.992C182.479 559.992 183.002 559.816 183.375 559.464C183.759 559.112 183.994 558.616 184.079 557.976H185.471C185.322 559 184.938 559.789 184.319 560.344C183.711 560.899 182.879 561.176 181.823 561.176C181.194 561.176 180.634 561.075 180.143 560.872C179.663 560.669 179.258 560.381 178.927 560.008C178.607 559.635 178.362 559.192 178.191 558.68C178.031 558.157 177.951 557.587 177.951 556.968C177.951 556.349 178.031 555.773 178.191 555.24C178.351 554.696 178.591 554.227 178.911 553.832C179.242 553.427 179.652 553.112 180.143 552.888C180.634 552.653 181.204 552.536 181.855 552.536C182.324 552.536 182.762 552.595 183.167 552.712C183.583 552.819 183.946 552.989 184.255 553.224C184.575 553.459 184.836 553.757 185.039 554.12C185.242 554.472 185.37 554.893 185.423 555.384H184.015ZM193.841 561H192.561V559.688H192.529C192.241 560.2 191.873 560.579 191.425 560.824C190.977 561.059 190.449 561.176 189.841 561.176C189.297 561.176 188.843 561.107 188.481 560.968C188.118 560.819 187.825 560.611 187.601 560.344C187.377 560.077 187.217 559.763 187.121 559.4C187.035 559.027 186.993 558.616 186.993 558.168V552.728H188.353V558.328C188.353 558.84 188.502 559.245 188.801 559.544C189.099 559.843 189.51 559.992 190.033 559.992C190.449 559.992 190.806 559.928 191.105 559.8C191.414 559.672 191.67 559.491 191.873 559.256C192.075 559.021 192.225 558.749 192.321 558.44C192.427 558.12 192.481 557.773 192.481 557.4V552.728H193.841V561ZM196.715 558.392C196.726 558.691 196.795 558.947 196.923 559.16C197.051 559.363 197.217 559.528 197.419 559.656C197.633 559.773 197.867 559.859 198.123 559.912C198.39 559.965 198.662 559.992 198.939 559.992C199.153 559.992 199.377 559.976 199.611 559.944C199.846 559.912 200.059 559.853 200.251 559.768C200.454 559.683 200.619 559.56 200.747 559.4C200.875 559.229 200.939 559.016 200.939 558.76C200.939 558.408 200.806 558.141 200.539 557.96C200.273 557.779 199.937 557.635 199.531 557.528C199.137 557.411 198.705 557.309 198.235 557.224C197.766 557.128 197.329 557 196.923 556.84C196.529 556.669 196.198 556.435 195.931 556.136C195.665 555.837 195.531 555.421 195.531 554.888C195.531 554.472 195.622 554.115 195.803 553.816C195.995 553.517 196.235 553.277 196.523 553.096C196.822 552.904 197.153 552.765 197.515 552.68C197.889 552.584 198.257 552.536 198.619 552.536C199.089 552.536 199.521 552.579 199.915 552.664C200.31 552.739 200.657 552.877 200.955 553.08C201.265 553.272 201.51 553.539 201.691 553.88C201.873 554.211 201.979 554.627 202.011 555.128H200.651C200.63 554.861 200.561 554.643 200.443 554.472C200.326 554.291 200.177 554.147 199.995 554.04C199.814 553.933 199.611 553.859 199.387 553.816C199.174 553.763 198.955 553.736 198.731 553.736C198.529 553.736 198.321 553.752 198.107 553.784C197.905 553.816 197.718 553.875 197.547 553.96C197.377 554.035 197.238 554.141 197.131 554.28C197.025 554.408 196.971 554.579 196.971 554.792C196.971 555.027 197.051 555.224 197.211 555.384C197.382 555.533 197.595 555.661 197.851 555.768C198.107 555.864 198.395 555.949 198.715 556.024C199.035 556.088 199.355 556.157 199.675 556.232C200.017 556.307 200.347 556.397 200.667 556.504C200.998 556.611 201.286 556.755 201.531 556.936C201.787 557.107 201.99 557.325 202.139 557.592C202.299 557.859 202.379 558.189 202.379 558.584C202.379 559.085 202.273 559.501 202.059 559.832C201.857 560.163 201.585 560.429 201.243 560.632C200.913 560.835 200.534 560.973 200.107 561.048C199.691 561.133 199.275 561.176 198.859 561.176C198.401 561.176 197.963 561.128 197.547 561.032C197.131 560.936 196.763 560.781 196.443 560.568C196.123 560.344 195.867 560.056 195.675 559.704C195.483 559.341 195.377 558.904 195.355 558.392H196.715Z" fill="black" fill-opacity="0.68"/>
<mask id="path-14-outside-3_75104_15024" maskUnits="userSpaceOnUse" x="330" y="526.5" width="116" height="58" fill="black">
<rect fill="white" x="330" y="526.5" width="116" height="58"/>
<path d="M335 531.5H441V579.5H335V531.5Z"/>
</mask>
<path d="M335 531.5V526.5H330V531.5H335ZM441 531.5H446V526.5H441V531.5ZM441 579.5V584.5H446V579.5H441ZM335 579.5H330V584.5H335V579.5ZM335 531.5V536.5H441V531.5V526.5H335V531.5ZM441 531.5H436V579.5H441H446V531.5H441ZM441 579.5V574.5H335V579.5V584.5H441V579.5ZM335 579.5H340V531.5H335H330V579.5H335Z" fill="black" mask="url(#path-14-outside-3_75104_15024)"/>
<mask id="path-16-outside-4_75104_15024" maskUnits="userSpaceOnUse" x="333" y="529.5" width="110" height="52" fill="black">
<rect fill="white" x="333" y="529.5" width="110" height="52"/>
<path d="M335 531.5H441V579.5H335V531.5Z"/>
</mask>
<path d="M335 531.5V529.5H333V531.5H335ZM441 531.5H443V529.5H441V531.5ZM441 579.5V581.5H443V579.5H441ZM335 579.5H333V581.5H335V579.5ZM335 531.5V533.5H441V531.5V529.5H335V531.5ZM441 531.5H439V579.5H441H443V531.5H441ZM441 579.5V577.5H335V579.5V581.5H441V579.5ZM335 579.5H337V531.5H335H333V579.5H335Z" fill="white" mask="url(#path-16-outside-4_75104_15024)"/>
<mask id="path-18-inside-5_75104_15024" fill="white">
<path d="M335 531.5H441V579.5H335V531.5Z"/>
</mask>
<path d="M335 531.5V529.5H333V531.5H335ZM441 531.5H443V529.5H441V531.5ZM441 579.5V581.5H443V579.5H441ZM335 579.5H333V581.5H335V579.5ZM335 531.5V533.5H441V531.5V529.5H335V531.5ZM441 531.5H439V579.5H441H443V531.5H441ZM441 579.5V577.5H335V579.5V581.5H441V579.5ZM335 579.5H337V531.5H335H333V579.5H335Z" fill="black" fill-opacity="0.68" mask="url(#path-18-inside-5_75104_15024)"/>
<path d="M364.171 550.076H366.667L371.435 557.74H371.467V550.076H373.819V561.5H371.307L366.555 553.852H366.523V561.5H364.171V550.076ZM381.559 556.476C381.452 555.9 381.26 555.463 380.983 555.164C380.716 554.865 380.305 554.716 379.751 554.716C379.388 554.716 379.084 554.78 378.839 554.908C378.604 555.025 378.412 555.175 378.263 555.356C378.124 555.537 378.023 555.729 377.959 555.932C377.905 556.135 377.873 556.316 377.863 556.476H381.559ZM377.863 557.916C377.895 558.652 378.081 559.185 378.423 559.516C378.764 559.847 379.255 560.012 379.895 560.012C380.353 560.012 380.748 559.9 381.079 559.676C381.409 559.441 381.612 559.196 381.687 558.94H383.687C383.367 559.932 382.876 560.641 382.215 561.068C381.553 561.495 380.753 561.708 379.815 561.708C379.164 561.708 378.577 561.607 378.055 561.404C377.532 561.191 377.089 560.892 376.727 560.508C376.364 560.124 376.081 559.665 375.879 559.132C375.687 558.599 375.591 558.012 375.591 557.372C375.591 556.753 375.692 556.177 375.895 555.644C376.097 555.111 376.385 554.652 376.759 554.268C377.132 553.873 377.575 553.564 378.087 553.34C378.609 553.116 379.185 553.004 379.815 553.004C380.519 553.004 381.132 553.143 381.655 553.42C382.177 553.687 382.604 554.049 382.935 554.508C383.276 554.967 383.521 555.489 383.671 556.076C383.82 556.663 383.873 557.276 383.831 557.916H377.863ZM387.49 557.148L384.77 553.228H387.362L388.818 555.388L390.258 553.228H392.77L390.05 557.1L393.106 561.5H390.514L388.786 558.892L387.058 561.5H384.514L387.49 557.148ZM397.052 553.228H398.716V554.748H397.052V558.844C397.052 559.228 397.116 559.484 397.244 559.612C397.372 559.74 397.628 559.804 398.012 559.804C398.14 559.804 398.262 559.799 398.38 559.788C398.497 559.777 398.609 559.761 398.716 559.74V561.5C398.524 561.532 398.31 561.553 398.076 561.564C397.841 561.575 397.612 561.58 397.388 561.58C397.036 561.58 396.7 561.553 396.38 561.5C396.07 561.457 395.793 561.367 395.548 561.228C395.313 561.089 395.126 560.892 394.988 560.636C394.849 560.38 394.78 560.044 394.78 559.628V554.748H393.404V553.228H394.78V550.748H397.052V553.228Z" fill="black" fill-opacity="0.68"/>
<g clip-path="url(#clip2_75104_15024)">
<path d="M413.314 561.438L419.375 555.5L413.314 549.562L411.582 551.258L415.912 555.5L411.582 559.74L413.314 561.438Z" fill="black" fill-opacity="0.68"/>
</g>
<path d="M161.768 653.048H164.744C165.608 653.059 166.237 652.883 166.632 652.52C167.037 652.157 167.24 651.635 167.24 650.952C167.24 650.269 167.037 649.752 166.632 649.4C166.237 649.037 165.608 648.856 164.744 648.856H161.768V653.048ZM160.248 647.576H165.256C166.408 647.576 167.277 647.875 167.864 648.472C168.461 649.059 168.76 649.885 168.76 650.952C168.76 652.019 168.461 652.851 167.864 653.448C167.277 654.045 166.408 654.339 165.256 654.328H161.768V659H160.248V647.576ZM170.351 650.728H171.631V652.472H171.663C171.994 651.8 172.399 651.304 172.879 650.984C173.359 650.664 173.967 650.515 174.703 650.536V651.976C174.159 651.976 173.695 652.051 173.311 652.2C172.927 652.349 172.618 652.568 172.383 652.856C172.148 653.144 171.978 653.496 171.871 653.912C171.764 654.317 171.711 654.787 171.711 655.32V659H170.351V650.728ZM181.19 654.072C181.169 653.752 181.094 653.448 180.966 653.16C180.849 652.872 180.683 652.627 180.47 652.424C180.267 652.211 180.022 652.045 179.734 651.928C179.457 651.8 179.147 651.736 178.806 651.736C178.454 651.736 178.134 651.8 177.846 651.928C177.569 652.045 177.329 652.211 177.126 652.424C176.923 652.637 176.763 652.888 176.646 653.176C176.529 653.453 176.459 653.752 176.438 654.072H181.19ZM182.502 656.376C182.321 657.304 181.921 658.003 181.302 658.472C180.683 658.941 179.905 659.176 178.966 659.176C178.305 659.176 177.729 659.069 177.238 658.856C176.758 658.643 176.353 658.344 176.022 657.96C175.691 657.576 175.441 657.117 175.27 656.584C175.11 656.051 175.019 655.469 174.998 654.84C174.998 654.211 175.094 653.635 175.286 653.112C175.478 652.589 175.745 652.136 176.086 651.752C176.438 651.368 176.849 651.069 177.318 650.856C177.798 650.643 178.321 650.536 178.886 650.536C179.622 650.536 180.23 650.691 180.71 651C181.201 651.299 181.59 651.683 181.878 652.152C182.177 652.621 182.379 653.133 182.486 653.688C182.603 654.243 182.651 654.771 182.63 655.272H176.438C176.427 655.635 176.47 655.981 176.566 656.312C176.662 656.632 176.817 656.92 177.03 657.176C177.243 657.421 177.515 657.619 177.846 657.768C178.177 657.917 178.566 657.992 179.014 657.992C179.59 657.992 180.059 657.859 180.422 657.592C180.795 657.325 181.041 656.92 181.158 656.376H182.502ZM184.872 656.392C184.882 656.691 184.952 656.947 185.08 657.16C185.208 657.363 185.373 657.528 185.576 657.656C185.789 657.773 186.024 657.859 186.28 657.912C186.546 657.965 186.818 657.992 187.096 657.992C187.309 657.992 187.533 657.976 187.768 657.944C188.002 657.912 188.216 657.853 188.408 657.768C188.61 657.683 188.776 657.56 188.904 657.4C189.032 657.229 189.096 657.016 189.096 656.76C189.096 656.408 188.962 656.141 188.696 655.96C188.429 655.779 188.093 655.635 187.688 655.528C187.293 655.411 186.861 655.309 186.392 655.224C185.922 655.128 185.485 655 185.08 654.84C184.685 654.669 184.354 654.435 184.088 654.136C183.821 653.837 183.688 653.421 183.688 652.888C183.688 652.472 183.778 652.115 183.96 651.816C184.152 651.517 184.392 651.277 184.68 651.096C184.978 650.904 185.309 650.765 185.672 650.68C186.045 650.584 186.413 650.536 186.776 650.536C187.245 650.536 187.677 650.579 188.072 650.664C188.466 650.739 188.813 650.877 189.112 651.08C189.421 651.272 189.666 651.539 189.848 651.88C190.029 652.211 190.136 652.627 190.168 653.128H188.808C188.786 652.861 188.717 652.643 188.6 652.472C188.482 652.291 188.333 652.147 188.152 652.04C187.97 651.933 187.768 651.859 187.544 651.816C187.33 651.763 187.112 651.736 186.888 651.736C186.685 651.736 186.477 651.752 186.264 651.784C186.061 651.816 185.874 651.875 185.704 651.96C185.533 652.035 185.394 652.141 185.288 652.28C185.181 652.408 185.128 652.579 185.128 652.792C185.128 653.027 185.208 653.224 185.368 653.384C185.538 653.533 185.752 653.661 186.008 653.768C186.264 653.864 186.552 653.949 186.872 654.024C187.192 654.088 187.512 654.157 187.832 654.232C188.173 654.307 188.504 654.397 188.824 654.504C189.154 654.611 189.442 654.755 189.688 654.936C189.944 655.107 190.146 655.325 190.296 655.592C190.456 655.859 190.536 656.189 190.536 656.584C190.536 657.085 190.429 657.501 190.216 657.832C190.013 658.163 189.741 658.429 189.4 658.632C189.069 658.835 188.69 658.973 188.264 659.048C187.848 659.133 187.432 659.176 187.016 659.176C186.557 659.176 186.12 659.128 185.704 659.032C185.288 658.936 184.92 658.781 184.6 658.568C184.28 658.344 184.024 658.056 183.832 657.704C183.64 657.341 183.533 656.904 183.512 656.392H184.872ZM192.872 656.392C192.882 656.691 192.952 656.947 193.08 657.16C193.208 657.363 193.373 657.528 193.576 657.656C193.789 657.773 194.024 657.859 194.28 657.912C194.546 657.965 194.818 657.992 195.096 657.992C195.309 657.992 195.533 657.976 195.768 657.944C196.002 657.912 196.216 657.853 196.408 657.768C196.61 657.683 196.776 657.56 196.904 657.4C197.032 657.229 197.096 657.016 197.096 656.76C197.096 656.408 196.962 656.141 196.696 655.96C196.429 655.779 196.093 655.635 195.688 655.528C195.293 655.411 194.861 655.309 194.392 655.224C193.922 655.128 193.485 655 193.08 654.84C192.685 654.669 192.354 654.435 192.088 654.136C191.821 653.837 191.688 653.421 191.688 652.888C191.688 652.472 191.778 652.115 191.96 651.816C192.152 651.517 192.392 651.277 192.68 651.096C192.978 650.904 193.309 650.765 193.672 650.68C194.045 650.584 194.413 650.536 194.776 650.536C195.245 650.536 195.677 650.579 196.072 650.664C196.466 650.739 196.813 650.877 197.112 651.08C197.421 651.272 197.666 651.539 197.848 651.88C198.029 652.211 198.136 652.627 198.168 653.128H196.808C196.786 652.861 196.717 652.643 196.6 652.472C196.482 652.291 196.333 652.147 196.152 652.04C195.97 651.933 195.768 651.859 195.544 651.816C195.33 651.763 195.112 651.736 194.888 651.736C194.685 651.736 194.477 651.752 194.264 651.784C194.061 651.816 193.874 651.875 193.704 651.96C193.533 652.035 193.394 652.141 193.288 652.28C193.181 652.408 193.128 652.579 193.128 652.792C193.128 653.027 193.208 653.224 193.368 653.384C193.538 653.533 193.752 653.661 194.008 653.768C194.264 653.864 194.552 653.949 194.872 654.024C195.192 654.088 195.512 654.157 195.832 654.232C196.173 654.307 196.504 654.397 196.824 654.504C197.154 654.611 197.442 654.755 197.688 654.936C197.944 655.107 198.146 655.325 198.296 655.592C198.456 655.859 198.536 656.189 198.536 656.584C198.536 657.085 198.429 657.501 198.216 657.832C198.013 658.163 197.741 658.429 197.4 658.632C197.069 658.835 196.69 658.973 196.264 659.048C195.848 659.133 195.432 659.176 195.016 659.176C194.557 659.176 194.12 659.128 193.704 659.032C193.288 658.936 192.92 658.781 192.6 658.568C192.28 658.344 192.024 658.056 191.832 657.704C191.64 657.341 191.533 656.904 191.512 656.392H192.872ZM205.784 654.072C205.762 653.752 205.688 653.448 205.56 653.16C205.442 652.872 205.277 652.627 205.064 652.424C204.861 652.211 204.616 652.045 204.328 651.928C204.05 651.8 203.741 651.736 203.4 651.736C203.048 651.736 202.728 651.8 202.44 651.928C202.162 652.045 201.922 652.211 201.72 652.424C201.517 652.637 201.357 652.888 201.24 653.176C201.122 653.453 201.053 653.752 201.032 654.072H205.784ZM207.096 656.376C206.914 657.304 206.514 658.003 205.896 658.472C205.277 658.941 204.498 659.176 203.56 659.176C202.898 659.176 202.322 659.069 201.832 658.856C201.352 658.643 200.946 658.344 200.616 657.96C200.285 657.576 200.034 657.117 199.864 656.584C199.704 656.051 199.613 655.469 199.592 654.84C199.592 654.211 199.688 653.635 199.88 653.112C200.072 652.589 200.338 652.136 200.68 651.752C201.032 651.368 201.442 651.069 201.912 650.856C202.392 650.643 202.914 650.536 203.48 650.536C204.216 650.536 204.824 650.691 205.304 651C205.794 651.299 206.184 651.683 206.472 652.152C206.77 652.621 206.973 653.133 207.08 653.688C207.197 654.243 207.245 654.771 207.224 655.272H201.032C201.021 655.635 201.064 655.981 201.16 656.312C201.256 656.632 201.41 656.92 201.624 657.176C201.837 657.421 202.109 657.619 202.44 657.768C202.77 657.917 203.16 657.992 203.608 657.992C204.184 657.992 204.653 657.859 205.016 657.592C205.389 657.325 205.634 656.92 205.752 656.376H207.096ZM209.625 654.936C209.625 655.32 209.673 655.699 209.769 656.072C209.876 656.435 210.031 656.76 210.233 657.048C210.447 657.336 210.713 657.565 211.033 657.736C211.364 657.907 211.748 657.992 212.185 657.992C212.644 657.992 213.033 657.901 213.353 657.72C213.673 657.539 213.935 657.304 214.137 657.016C214.34 656.717 214.484 656.381 214.569 656.008C214.665 655.635 214.713 655.256 214.713 654.872C214.713 654.467 214.665 654.077 214.569 653.704C214.473 653.32 214.319 652.984 214.105 652.696C213.903 652.408 213.636 652.179 213.305 652.008C212.975 651.827 212.575 651.736 212.105 651.736C211.647 651.736 211.257 651.827 210.937 652.008C210.617 652.189 210.361 652.429 210.169 652.728C209.977 653.027 209.839 653.368 209.753 653.752C209.668 654.136 209.625 654.531 209.625 654.936ZM216.025 659H214.665V657.88H214.633C214.409 658.339 214.057 658.669 213.577 658.872C213.097 659.075 212.569 659.176 211.993 659.176C211.353 659.176 210.793 659.059 210.313 658.824C209.844 658.589 209.449 658.275 209.129 657.88C208.82 657.485 208.585 657.027 208.425 656.504C208.265 655.981 208.185 655.427 208.185 654.84C208.185 654.253 208.26 653.699 208.409 653.176C208.569 652.653 208.804 652.2 209.113 651.816C209.433 651.421 209.828 651.112 210.297 650.888C210.777 650.653 211.332 650.536 211.961 650.536C212.175 650.536 212.404 650.557 212.649 650.6C212.895 650.643 213.14 650.717 213.385 650.824C213.631 650.92 213.86 651.053 214.073 651.224C214.297 651.384 214.484 651.587 214.633 651.832H214.665V647.576H216.025V659Z" fill="black" fill-opacity="0.68"/>
<mask id="path-24-inside-6_75104_15024" fill="white">
<path d="M335 629.5H441V677.5H335V629.5Z"/>
</mask>
<path d="M335 629.5V627.5H333V629.5H335ZM441 629.5H443V627.5H441V629.5ZM441 677.5V679.5H443V677.5H441ZM335 677.5H333V679.5H335V677.5ZM335 629.5V631.5H441V629.5V627.5H335V629.5ZM441 629.5H439V677.5H441H443V629.5H441ZM441 677.5V675.5H335V677.5V679.5H441V677.5ZM335 677.5H337V629.5H335H333V677.5H335Z" fill="#F15E00" mask="url(#path-24-inside-6_75104_15024)"/>
<path d="M364.171 648.076H366.667L371.435 655.74H371.467V648.076H373.819V659.5H371.307L366.555 651.852H366.523V659.5H364.171V648.076ZM381.559 654.476C381.452 653.9 381.26 653.463 380.983 653.164C380.716 652.865 380.305 652.716 379.751 652.716C379.388 652.716 379.084 652.78 378.839 652.908C378.604 653.025 378.412 653.175 378.263 653.356C378.124 653.537 378.023 653.729 377.959 653.932C377.905 654.135 377.873 654.316 377.863 654.476H381.559ZM377.863 655.916C377.895 656.652 378.081 657.185 378.423 657.516C378.764 657.847 379.255 658.012 379.895 658.012C380.353 658.012 380.748 657.9 381.079 657.676C381.409 657.441 381.612 657.196 381.687 656.94H383.687C383.367 657.932 382.876 658.641 382.215 659.068C381.553 659.495 380.753 659.708 379.815 659.708C379.164 659.708 378.577 659.607 378.055 659.404C377.532 659.191 377.089 658.892 376.727 658.508C376.364 658.124 376.081 657.665 375.879 657.132C375.687 656.599 375.591 656.012 375.591 655.372C375.591 654.753 375.692 654.177 375.895 653.644C376.097 653.111 376.385 652.652 376.759 652.268C377.132 651.873 377.575 651.564 378.087 651.34C378.609 651.116 379.185 651.004 379.815 651.004C380.519 651.004 381.132 651.143 381.655 651.42C382.177 651.687 382.604 652.049 382.935 652.508C383.276 652.967 383.521 653.489 383.671 654.076C383.82 654.663 383.873 655.276 383.831 655.916H377.863ZM387.49 655.148L384.77 651.228H387.362L388.818 653.388L390.258 651.228H392.77L390.05 655.1L393.106 659.5H390.514L388.786 656.892L387.058 659.5H384.514L387.49 655.148ZM397.052 651.228H398.716V652.748H397.052V656.844C397.052 657.228 397.116 657.484 397.244 657.612C397.372 657.74 397.628 657.804 398.012 657.804C398.14 657.804 398.262 657.799 398.38 657.788C398.497 657.777 398.609 657.761 398.716 657.74V659.5C398.524 659.532 398.31 659.553 398.076 659.564C397.841 659.575 397.612 659.58 397.388 659.58C397.036 659.58 396.7 659.553 396.38 659.5C396.07 659.457 395.793 659.367 395.548 659.228C395.313 659.089 395.126 658.892 394.988 658.636C394.849 658.38 394.78 658.044 394.78 657.628V652.748H393.404V651.228H394.78V648.748H397.052V651.228Z" fill="#F15E00"/>
<g clip-path="url(#clip3_75104_15024)">
<path d="M413.314 659.438L419.375 653.5L413.314 647.562L411.582 649.258L415.912 653.5L411.582 657.74L413.314 659.438Z" fill="#F15E00"/>
</g>
<path d="M160.248 745.576H161.768V755.72H167.816V757H160.248V745.576ZM169.907 752.872C169.907 753.373 169.971 753.821 170.099 754.216C170.237 754.6 170.424 754.925 170.659 755.192C170.893 755.448 171.165 755.645 171.475 755.784C171.795 755.923 172.131 755.992 172.483 755.992C172.835 755.992 173.165 755.923 173.475 755.784C173.795 755.645 174.072 755.448 174.307 755.192C174.541 754.925 174.723 754.6 174.851 754.216C174.989 753.821 175.059 753.373 175.059 752.872C175.059 752.371 174.989 751.928 174.851 751.544C174.723 751.149 174.541 750.819 174.307 750.552C174.072 750.285 173.795 750.083 173.475 749.944C173.165 749.805 172.835 749.736 172.483 749.736C172.131 749.736 171.795 749.805 171.475 749.944C171.165 750.083 170.893 750.285 170.659 750.552C170.424 750.819 170.237 751.149 170.099 751.544C169.971 751.928 169.907 752.371 169.907 752.872ZM168.467 752.872C168.467 752.264 168.552 751.699 168.723 751.176C168.893 750.643 169.149 750.184 169.491 749.8C169.832 749.405 170.253 749.096 170.755 748.872C171.256 748.648 171.832 748.536 172.483 748.536C173.144 748.536 173.72 748.648 174.211 748.872C174.712 749.096 175.133 749.405 175.475 749.8C175.816 750.184 176.072 750.643 176.243 751.176C176.413 751.699 176.499 752.264 176.499 752.872C176.499 753.48 176.413 754.045 176.243 754.568C176.072 755.091 175.816 755.549 175.475 755.944C175.133 756.328 174.712 756.632 174.211 756.856C173.72 757.069 173.144 757.176 172.483 757.176C171.832 757.176 171.256 757.069 170.755 756.856C170.253 756.632 169.832 756.328 169.491 755.944C169.149 755.549 168.893 755.091 168.723 754.568C168.552 754.045 168.467 753.48 168.467 752.872ZM185.43 756.968C185.195 757.107 184.87 757.176 184.454 757.176C184.102 757.176 183.819 757.08 183.606 756.888C183.403 756.685 183.302 756.36 183.302 755.912C182.929 756.36 182.491 756.685 181.99 756.888C181.499 757.08 180.966 757.176 180.39 757.176C180.017 757.176 179.659 757.133 179.318 757.048C178.987 756.963 178.699 756.829 178.454 756.648C178.209 756.467 178.011 756.232 177.862 755.944C177.723 755.645 177.654 755.288 177.654 754.872C177.654 754.403 177.734 754.019 177.894 753.72C178.054 753.421 178.262 753.181 178.518 753C178.785 752.808 179.083 752.664 179.414 752.568C179.755 752.472 180.102 752.392 180.454 752.328C180.827 752.253 181.179 752.2 181.51 752.168C181.851 752.125 182.15 752.072 182.406 752.008C182.662 751.933 182.865 751.832 183.014 751.704C183.163 751.565 183.238 751.368 183.238 751.112C183.238 750.813 183.179 750.573 183.062 750.392C182.955 750.211 182.811 750.072 182.63 749.976C182.459 749.88 182.262 749.816 182.038 749.784C181.825 749.752 181.611 749.736 181.398 749.736C180.822 749.736 180.342 749.848 179.958 750.072C179.574 750.285 179.366 750.696 179.334 751.304H177.974C177.995 750.792 178.102 750.36 178.294 750.008C178.486 749.656 178.742 749.373 179.062 749.16C179.382 748.936 179.745 748.776 180.15 748.68C180.566 748.584 181.009 748.536 181.478 748.536C181.851 748.536 182.219 748.563 182.582 748.616C182.955 748.669 183.291 748.781 183.59 748.952C183.889 749.112 184.129 749.341 184.31 749.64C184.491 749.939 184.582 750.328 184.582 750.808V755.064C184.582 755.384 184.598 755.619 184.63 755.768C184.673 755.917 184.801 755.992 185.014 755.992C185.131 755.992 185.27 755.965 185.43 755.912V756.968ZM183.222 752.728C183.051 752.856 182.827 752.952 182.55 753.016C182.273 753.069 181.979 753.117 181.67 753.16C181.371 753.192 181.067 753.235 180.758 753.288C180.449 753.331 180.171 753.405 179.926 753.512C179.681 753.619 179.478 753.773 179.318 753.976C179.169 754.168 179.094 754.435 179.094 754.776C179.094 755 179.137 755.192 179.222 755.352C179.318 755.501 179.435 755.624 179.574 755.72C179.723 755.816 179.894 755.885 180.086 755.928C180.278 755.971 180.481 755.992 180.694 755.992C181.142 755.992 181.526 755.933 181.846 755.816C182.166 755.688 182.427 755.533 182.63 755.352C182.833 755.16 182.982 754.957 183.078 754.744C183.174 754.52 183.222 754.312 183.222 754.12V752.728ZM187.688 752.936C187.688 753.32 187.736 753.699 187.832 754.072C187.939 754.435 188.093 754.76 188.296 755.048C188.509 755.336 188.776 755.565 189.096 755.736C189.427 755.907 189.811 755.992 190.248 755.992C190.707 755.992 191.096 755.901 191.416 755.72C191.736 755.539 191.997 755.304 192.2 755.016C192.403 754.717 192.547 754.381 192.632 754.008C192.728 753.635 192.776 753.256 192.776 752.872C192.776 752.467 192.728 752.077 192.632 751.704C192.536 751.32 192.381 750.984 192.168 750.696C191.965 750.408 191.699 750.179 191.368 750.008C191.037 749.827 190.637 749.736 190.168 749.736C189.709 749.736 189.32 749.827 189 750.008C188.68 750.189 188.424 750.429 188.232 750.728C188.04 751.027 187.901 751.368 187.816 751.752C187.731 752.136 187.688 752.531 187.688 752.936ZM194.088 757H192.728V755.88H192.696C192.472 756.339 192.12 756.669 191.64 756.872C191.16 757.075 190.632 757.176 190.056 757.176C189.416 757.176 188.856 757.059 188.376 756.824C187.907 756.589 187.512 756.275 187.192 755.88C186.883 755.485 186.648 755.027 186.488 754.504C186.328 753.981 186.248 753.427 186.248 752.84C186.248 752.253 186.323 751.699 186.472 751.176C186.632 750.653 186.867 750.2 187.176 749.816C187.496 749.421 187.891 749.112 188.36 748.888C188.84 748.653 189.395 748.536 190.024 748.536C190.237 748.536 190.467 748.557 190.712 748.6C190.957 748.643 191.203 748.717 191.448 748.824C191.693 748.92 191.923 749.053 192.136 749.224C192.36 749.384 192.547 749.587 192.696 749.832H192.728V745.576H194.088V757ZM197.62 747.24H196.26V745.576H197.62V747.24ZM196.26 748.728H197.62V757H196.26V748.728ZM199.727 748.728H201.007V750.04H201.039C201.604 749.037 202.5 748.536 203.727 748.536C204.271 748.536 204.724 748.611 205.087 748.76C205.45 748.909 205.743 749.117 205.967 749.384C206.191 749.651 206.346 749.971 206.431 750.344C206.527 750.707 206.575 751.112 206.575 751.56V757H205.215V751.4C205.215 750.888 205.066 750.483 204.767 750.184C204.468 749.885 204.058 749.736 203.535 749.736C203.119 749.736 202.756 749.8 202.447 749.928C202.148 750.056 201.898 750.237 201.695 750.472C201.492 750.707 201.338 750.984 201.231 751.304C201.135 751.613 201.087 751.955 201.087 752.328V757H199.727V748.728ZM215.754 756.296C215.754 757.651 215.444 758.664 214.826 759.336C214.207 760.008 213.236 760.344 211.914 760.344C211.53 760.344 211.135 760.301 210.73 760.216C210.335 760.131 209.972 759.992 209.642 759.8C209.322 759.608 209.055 759.357 208.842 759.048C208.628 758.739 208.511 758.36 208.49 757.912H209.85C209.86 758.157 209.935 758.365 210.074 758.536C210.223 758.707 210.399 758.845 210.602 758.952C210.815 759.059 211.044 759.133 211.29 759.176C211.535 759.229 211.77 759.256 211.994 759.256C212.442 759.256 212.82 759.176 213.13 759.016C213.439 758.867 213.695 758.653 213.898 758.376C214.1 758.109 214.244 757.784 214.33 757.4C214.426 757.016 214.474 756.595 214.474 756.136V755.592H214.442C214.207 756.104 213.85 756.483 213.37 756.728C212.9 756.963 212.399 757.08 211.866 757.08C211.247 757.08 210.708 756.968 210.25 756.744C209.791 756.52 209.407 756.221 209.098 755.848C208.788 755.464 208.554 755.021 208.394 754.52C208.244 754.008 208.17 753.469 208.17 752.904C208.17 752.413 208.234 751.912 208.362 751.4C208.49 750.877 208.703 750.408 209.002 749.992C209.3 749.565 209.695 749.219 210.186 748.952C210.676 748.675 211.279 748.536 211.994 748.536C212.516 748.536 212.996 748.653 213.434 748.888C213.871 749.112 214.212 749.453 214.458 749.912H214.474V748.728H215.754V756.296ZM211.946 755.896C212.394 755.896 212.772 755.805 213.082 755.624C213.402 755.432 213.658 755.187 213.85 754.888C214.042 754.579 214.18 754.232 214.266 753.848C214.362 753.464 214.41 753.08 214.41 752.696C214.41 752.333 214.367 751.976 214.282 751.624C214.196 751.272 214.058 750.957 213.866 750.68C213.684 750.392 213.444 750.163 213.146 749.992C212.847 749.821 212.484 749.736 212.058 749.736C211.62 749.736 211.247 749.821 210.938 749.992C210.628 750.152 210.372 750.371 210.17 750.648C209.978 750.925 209.834 751.245 209.738 751.608C209.652 751.971 209.61 752.349 209.61 752.744C209.61 753.117 209.647 753.491 209.722 753.864C209.796 754.237 209.924 754.579 210.106 754.888C210.287 755.187 210.527 755.432 210.826 755.624C211.124 755.805 211.498 755.896 211.946 755.896Z" fill="black" fill-opacity="0.68"/>
<mask id="path-30-inside-7_75104_15024" fill="white">
<path d="M335 727.5H441V775.5H335V727.5Z"/>
</mask>
<path d="M335 727.5V725.5H333V727.5H335ZM441 727.5H443V725.5H441V727.5ZM441 775.5V777.5H443V775.5H441ZM335 775.5H333V777.5H335V775.5ZM335 727.5V729.5H441V727.5V725.5H335V727.5ZM441 727.5H439V775.5H441H443V727.5H441ZM441 775.5V773.5H335V775.5V777.5H441V775.5ZM335 775.5H337V727.5H335H333V775.5H335Z" fill="#F15E00" mask="url(#path-30-inside-7_75104_15024)"/>
<mask id="mask0_75104_15024" style="mask-type:alpha" maskUnits="userSpaceOnUse" x="378" y="741" width="20" height="21">
<path d="M388 741.5C393.523 741.5 398 745.977 398 751.5C398 757.023 393.523 761.5 388 761.5C382.477 761.5 378 757.023 378 751.5C378 745.977 382.477 741.5 388 741.5ZM388 744.417C384.088 744.417 380.917 747.588 380.917 751.5C380.917 755.412 384.088 758.583 388 758.583C391.912 758.583 395.083 755.412 395.083 751.5C395.083 747.588 391.912 744.417 388 744.417Z" fill="#CCCCCC"/>
</mask>
<g mask="url(#mask0_75104_15024)">
<mask id="mask1_75104_15024" style="mask-type:alpha" maskUnits="userSpaceOnUse" x="378" y="741" width="10" height="11">
<path d="M388 741.5C386.687 741.5 385.386 741.759 384.173 742.261C382.96 742.764 381.858 743.5 380.929 744.429C380 745.358 379.264 746.46 378.761 747.673C378.259 748.886 378 750.187 378 751.5L388 751.5L388 741.5Z" fill="#F15E00"/>
<path d="M388 741.5C386.687 741.5 385.386 741.759 384.173 742.261C382.96 742.764 381.858 743.5 380.929 744.429C380 745.358 379.264 746.46 378.761 747.673C378.259 748.886 378 750.187 378 751.5L388 751.5L388 741.5Z" fill="#F15E00"/>
<path d="M388 741.5C386.687 741.5 385.386 741.759 384.173 742.261C382.96 742.764 381.858 743.5 380.929 744.429C380 745.358 379.264 746.46 378.761 747.673C378.259 748.886 378 750.187 378 751.5L388 751.5L388 741.5Z" fill="#F15E00"/>
<path d="M388 741.5C386.687 741.5 385.386 741.759 384.173 742.261C382.96 742.764 381.858 743.5 380.929 744.429C380 745.358 379.264 746.46 378.761 747.673C378.259 748.886 378 750.187 378 751.5L388 751.5L388 741.5Z" fill="#F15E00"/>
</mask>
<g mask="url(#mask1_75104_15024)">
<path d="M388 761.5C385.348 761.5 382.804 760.446 380.929 758.571C379.054 756.696 378 754.152 378 751.5C378 748.848 379.054 746.304 380.929 744.429C382.804 742.554 385.348 741.5 388 741.5L388 751.5L388 761.5Z" fill="#F15E00"/>
</g>
</g>
<path d="M161.768 853.72H164.296C164.467 853.72 164.68 853.709 164.936 853.688C165.192 853.656 165.464 853.592 165.752 853.496C166.04 853.389 166.323 853.24 166.6 853.048C166.888 852.856 167.144 852.595 167.368 852.264C167.592 851.933 167.773 851.523 167.912 851.032C168.061 850.531 168.136 849.928 168.136 849.224C168.136 848.541 168.067 847.933 167.928 847.4C167.8 846.856 167.581 846.397 167.272 846.024C166.973 845.64 166.584 845.352 166.104 845.16C165.624 844.957 165.032 844.856 164.328 844.856H161.768V853.72ZM160.248 843.576H164.168C165.928 843.576 167.283 844.024 168.232 844.92C169.181 845.816 169.656 847.181 169.656 849.016C169.656 849.976 169.549 850.829 169.336 851.576C169.123 852.312 168.792 852.936 168.344 853.448C167.896 853.949 167.325 854.333 166.632 854.6C165.939 854.867 165.117 855 164.168 855H160.248V843.576ZM172.73 845.24H171.37V843.576H172.73V845.24ZM171.37 846.728H172.73V855H171.37V846.728ZM175.669 852.392C175.679 852.691 175.749 852.947 175.877 853.16C176.005 853.363 176.17 853.528 176.373 853.656C176.586 853.773 176.821 853.859 177.077 853.912C177.343 853.965 177.615 853.992 177.893 853.992C178.106 853.992 178.33 853.976 178.565 853.944C178.799 853.912 179.013 853.853 179.205 853.768C179.407 853.683 179.573 853.56 179.701 853.4C179.829 853.229 179.893 853.016 179.893 852.76C179.893 852.408 179.759 852.141 179.493 851.96C179.226 851.779 178.89 851.635 178.485 851.528C178.09 851.411 177.658 851.309 177.189 851.224C176.719 851.128 176.282 851 175.877 850.84C175.482 850.669 175.151 850.435 174.885 850.136C174.618 849.837 174.485 849.421 174.485 848.888C174.485 848.472 174.575 848.115 174.757 847.816C174.949 847.517 175.189 847.277 175.477 847.096C175.775 846.904 176.106 846.765 176.469 846.68C176.842 846.584 177.21 846.536 177.573 846.536C178.042 846.536 178.474 846.579 178.869 846.664C179.263 846.739 179.61 846.877 179.909 847.08C180.218 847.272 180.463 847.539 180.645 847.88C180.826 848.211 180.933 848.627 180.965 849.128H179.605C179.583 848.861 179.514 848.643 179.397 848.472C179.279 848.291 179.13 848.147 178.949 848.04C178.767 847.933 178.565 847.859 178.341 847.816C178.127 847.763 177.909 847.736 177.685 847.736C177.482 847.736 177.274 847.752 177.061 847.784C176.858 847.816 176.671 847.875 176.501 847.96C176.33 848.035 176.191 848.141 176.085 848.28C175.978 848.408 175.924 848.579 175.924 848.792C175.924 849.027 176.004 849.224 176.164 849.384C176.335 849.533 176.549 849.661 176.805 849.768C177.061 849.864 177.349 849.949 177.669 850.024C177.989 850.088 178.309 850.157 178.629 850.232C178.97 850.307 179.301 850.397 179.621 850.504C179.951 850.611 180.239 850.755 180.485 850.936C180.741 851.107 180.943 851.325 181.093 851.592C181.253 851.859 181.333 852.189 181.333 852.584C181.333 853.085 181.226 853.501 181.013 853.832C180.81 854.163 180.538 854.429 180.197 854.632C179.866 854.835 179.487 854.973 179.061 855.048C178.645 855.133 178.229 855.176 177.812 855.176C177.354 855.176 176.917 855.128 176.501 855.032C176.085 854.936 175.717 854.781 175.397 854.568C175.077 854.344 174.821 854.056 174.629 853.704C174.437 853.341 174.33 852.904 174.309 852.392H175.669ZM190.165 854.968C189.93 855.107 189.605 855.176 189.189 855.176C188.837 855.176 188.554 855.08 188.341 854.888C188.138 854.685 188.037 854.36 188.037 853.912C187.663 854.36 187.226 854.685 186.725 854.888C186.234 855.08 185.701 855.176 185.125 855.176C184.751 855.176 184.394 855.133 184.053 855.048C183.722 854.963 183.434 854.829 183.189 854.648C182.943 854.467 182.746 854.232 182.597 853.944C182.458 853.645 182.389 853.288 182.389 852.872C182.389 852.403 182.469 852.019 182.629 851.72C182.789 851.421 182.997 851.181 183.253 851C183.519 850.808 183.818 850.664 184.149 850.568C184.49 850.472 184.837 850.392 185.189 850.328C185.562 850.253 185.914 850.2 186.245 850.168C186.586 850.125 186.885 850.072 187.141 850.008C187.397 849.933 187.599 849.832 187.749 849.704C187.898 849.565 187.973 849.368 187.973 849.112C187.973 848.813 187.914 848.573 187.797 848.392C187.69 848.211 187.546 848.072 187.365 847.976C187.194 847.88 186.997 847.816 186.773 847.784C186.559 847.752 186.346 847.736 186.133 847.736C185.557 847.736 185.077 847.848 184.693 848.072C184.309 848.285 184.101 848.696 184.069 849.304H182.709C182.73 848.792 182.837 848.36 183.029 848.008C183.221 847.656 183.477 847.373 183.797 847.16C184.117 846.936 184.479 846.776 184.885 846.68C185.301 846.584 185.743 846.536 186.213 846.536C186.586 846.536 186.954 846.563 187.317 846.616C187.69 846.669 188.026 846.781 188.325 846.952C188.623 847.112 188.863 847.341 189.045 847.64C189.226 847.939 189.317 848.328 189.317 848.808V853.064C189.317 853.384 189.333 853.619 189.365 853.768C189.407 853.917 189.535 853.992 189.749 853.992C189.866 853.992 190.005 853.965 190.165 853.912V854.968ZM187.957 850.728C187.786 850.856 187.562 850.952 187.285 851.016C187.007 851.069 186.714 851.117 186.405 851.16C186.106 851.192 185.802 851.235 185.493 851.288C185.183 851.331 184.906 851.405 184.661 851.512C184.415 851.619 184.213 851.773 184.053 851.976C183.903 852.168 183.829 852.435 183.829 852.776C183.829 853 183.871 853.192 183.957 853.352C184.053 853.501 184.17 853.624 184.309 853.72C184.458 853.816 184.629 853.885 184.821 853.928C185.013 853.971 185.215 853.992 185.429 853.992C185.877 853.992 186.261 853.933 186.581 853.816C186.901 853.688 187.162 853.533 187.365 853.352C187.567 853.16 187.717 852.957 187.813 852.744C187.909 852.52 187.957 852.312 187.957 852.12V850.728ZM191.478 843.576H192.838V847.848H192.87C193.094 847.389 193.446 847.059 193.926 846.856C194.406 846.643 194.934 846.536 195.51 846.536C196.15 846.536 196.705 846.653 197.174 846.888C197.654 847.123 198.049 847.443 198.358 847.848C198.678 848.243 198.918 848.701 199.078 849.224C199.238 849.747 199.318 850.301 199.318 850.888C199.318 851.475 199.238 852.029 199.078 852.552C198.929 853.075 198.694 853.533 198.374 853.928C198.065 854.312 197.67 854.616 197.19 854.84C196.721 855.064 196.172 855.176 195.542 855.176C195.34 855.176 195.11 855.155 194.854 855.112C194.609 855.069 194.364 855 194.118 854.904C193.873 854.808 193.638 854.68 193.414 854.52C193.201 854.349 193.02 854.141 192.87 853.896H192.838V855H191.478V843.576ZM197.878 850.792C197.878 850.408 197.825 850.035 197.718 849.672C197.622 849.299 197.468 848.968 197.254 848.68C197.052 848.392 196.785 848.163 196.454 847.992C196.134 847.821 195.756 847.736 195.318 847.736C194.86 847.736 194.47 847.827 194.15 848.008C193.83 848.189 193.569 848.429 193.366 848.728C193.164 849.016 193.014 849.347 192.918 849.72C192.833 850.093 192.79 850.472 192.79 850.856C192.79 851.261 192.838 851.656 192.934 852.04C193.03 852.413 193.18 852.744 193.382 853.032C193.596 853.32 193.868 853.555 194.198 853.736C194.529 853.907 194.929 853.992 195.398 853.992C195.868 853.992 196.257 853.901 196.566 853.72C196.886 853.539 197.142 853.299 197.334 853C197.526 852.701 197.665 852.36 197.75 851.976C197.836 851.592 197.878 851.197 197.878 850.792ZM200.995 843.576H202.355V855H200.995V843.576ZM210.206 850.072C210.184 849.752 210.11 849.448 209.982 849.16C209.864 848.872 209.699 848.627 209.486 848.424C209.283 848.211 209.038 848.045 208.75 847.928C208.472 847.8 208.163 847.736 207.822 847.736C207.47 847.736 207.15 847.8 206.862 847.928C206.584 848.045 206.344 848.211 206.142 848.424C205.939 848.637 205.779 848.888 205.662 849.176C205.544 849.453 205.475 849.752 205.454 850.072H210.206ZM211.517 852.376C211.336 853.304 210.936 854.003 210.318 854.472C209.699 854.941 208.92 855.176 207.982 855.176C207.32 855.176 206.744 855.069 206.254 854.856C205.774 854.643 205.368 854.344 205.038 853.96C204.707 853.576 204.456 853.117 204.286 852.584C204.126 852.051 204.035 851.469 204.014 850.84C204.014 850.211 204.11 849.635 204.302 849.112C204.494 848.589 204.76 848.136 205.102 847.752C205.454 847.368 205.864 847.069 206.334 846.856C206.814 846.643 207.336 846.536 207.902 846.536C208.638 846.536 209.246 846.691 209.726 847C210.216 847.299 210.606 847.683 210.894 848.152C211.192 848.621 211.395 849.133 211.502 849.688C211.619 850.243 211.667 850.771 211.646 851.272H205.454C205.443 851.635 205.486 851.981 205.582 852.312C205.678 852.632 205.832 852.92 206.046 853.176C206.259 853.421 206.531 853.619 206.862 853.768C207.192 853.917 207.582 853.992 208.03 853.992C208.606 853.992 209.075 853.859 209.438 853.592C209.811 853.325 210.056 852.92 210.174 852.376H211.517ZM214.047 850.936C214.047 851.32 214.095 851.699 214.191 852.072C214.298 852.435 214.453 852.76 214.655 853.048C214.869 853.336 215.135 853.565 215.455 853.736C215.786 853.907 216.17 853.992 216.607 853.992C217.066 853.992 217.455 853.901 217.775 853.72C218.095 853.539 218.357 853.304 218.559 853.016C218.762 852.717 218.906 852.381 218.991 852.008C219.087 851.635 219.135 851.256 219.135 850.872C219.135 850.467 219.087 850.077 218.991 849.704C218.895 849.32 218.741 848.984 218.527 848.696C218.325 848.408 218.058 848.179 217.727 848.008C217.397 847.827 216.997 847.736 216.527 847.736C216.069 847.736 215.679 847.827 215.359 848.008C215.039 848.189 214.783 848.429 214.591 848.728C214.399 849.027 214.261 849.368 214.175 849.752C214.09 850.136 214.047 850.531 214.047 850.936ZM220.447 855H219.087V853.88H219.055C218.831 854.339 218.479 854.669 217.999 854.872C217.519 855.075 216.991 855.176 216.415 855.176C215.775 855.176 215.215 855.059 214.735 854.824C214.266 854.589 213.871 854.275 213.551 853.88C213.242 853.485 213.007 853.027 212.847 852.504C212.687 851.981 212.607 851.427 212.607 850.84C212.607 850.253 212.682 849.699 212.831 849.176C212.991 848.653 213.226 848.2 213.535 847.816C213.855 847.421 214.25 847.112 214.719 846.888C215.199 846.653 215.754 846.536 216.383 846.536C216.597 846.536 216.826 846.557 217.071 846.6C217.317 846.643 217.562 846.717 217.807 846.824C218.053 846.92 218.282 847.053 218.495 847.224C218.719 847.384 218.906 847.587 219.055 847.832H219.087V843.576H220.447V855Z" fill="black" fill-opacity="0.68"/>
<mask id="path-39-inside-8_75104_15024" fill="white">
<path d="M335 825.5H441V873.5H335V825.5Z"/>
</mask>
<path d="M335 825.5V824.5H334V825.5H335ZM441 825.5H442V824.5H441V825.5ZM441 873.5V874.5H442V873.5H441ZM335 873.5H334V874.5H335V873.5ZM335 825.5V826.5H441V825.5V824.5H335V825.5ZM441 825.5H440V873.5H441H442V825.5H441ZM441 873.5V872.5H335V873.5V874.5H441V873.5ZM335 873.5H336V825.5H335H334V873.5H335Z" fill="black" fill-opacity="0.2" mask="url(#path-39-inside-8_75104_15024)"/>
<path d="M364.171 844.076H366.667L371.435 851.74H371.467V844.076H373.819V855.5H371.307L366.555 847.852H366.523V855.5H364.171V844.076ZM381.559 850.476C381.452 849.9 381.26 849.463 380.983 849.164C380.716 848.865 380.305 848.716 379.751 848.716C379.388 848.716 379.084 848.78 378.839 848.908C378.604 849.025 378.412 849.175 378.263 849.356C378.124 849.537 378.023 849.729 377.959 849.932C377.905 850.135 377.873 850.316 377.863 850.476H381.559ZM377.863 851.916C377.895 852.652 378.081 853.185 378.423 853.516C378.764 853.847 379.255 854.012 379.895 854.012C380.353 854.012 380.748 853.9 381.079 853.676C381.409 853.441 381.612 853.196 381.687 852.94H383.687C383.367 853.932 382.876 854.641 382.215 855.068C381.553 855.495 380.753 855.708 379.815 855.708C379.164 855.708 378.577 855.607 378.055 855.404C377.532 855.191 377.089 854.892 376.727 854.508C376.364 854.124 376.081 853.665 375.879 853.132C375.687 852.599 375.591 852.012 375.591 851.372C375.591 850.753 375.692 850.177 375.895 849.644C376.097 849.111 376.385 848.652 376.759 848.268C377.132 847.873 377.575 847.564 378.087 847.34C378.609 847.116 379.185 847.004 379.815 847.004C380.519 847.004 381.132 847.143 381.655 847.42C382.177 847.687 382.604 848.049 382.935 848.508C383.276 848.967 383.521 849.489 383.671 850.076C383.82 850.663 383.873 851.276 383.831 851.916H377.863ZM387.49 851.148L384.77 847.228H387.362L388.818 849.388L390.258 847.228H392.77L390.05 851.1L393.106 855.5H390.514L388.786 852.892L387.058 855.5H384.514L387.49 851.148ZM397.052 847.228H398.716V848.748H397.052V852.844C397.052 853.228 397.116 853.484 397.244 853.612C397.372 853.74 397.628 853.804 398.012 853.804C398.14 853.804 398.262 853.799 398.38 853.788C398.497 853.777 398.609 853.761 398.716 853.74V855.5C398.524 855.532 398.31 855.553 398.076 855.564C397.841 855.575 397.612 855.58 397.388 855.58C397.036 855.58 396.7 855.553 396.38 855.5C396.07 855.457 395.793 855.367 395.548 855.228C395.313 855.089 395.126 854.892 394.988 854.636C394.849 854.38 394.78 854.044 394.78 853.628V848.748H393.404V847.228H394.78V844.748H397.052V847.228Z" fill="black" fill-opacity="0.2"/>
<g clip-path="url(#clip4_75104_15024)">
<path d="M413.314 855.438L419.375 849.5L413.314 843.562L411.582 845.258L415.912 849.5L411.582 853.74L413.314 855.438Z" fill="black" fill-opacity="0.2"/>
</g>
<path d="M166.856 944.92C166.771 944.099 166.472 943.507 165.96 943.144C165.459 942.771 164.813 942.584 164.024 942.584C163.704 942.584 163.389 942.616 163.08 942.68C162.771 942.744 162.493 942.851 162.248 943C162.013 943.149 161.821 943.352 161.672 943.608C161.533 943.853 161.464 944.163 161.464 944.536C161.464 944.888 161.565 945.176 161.768 945.4C161.981 945.613 162.259 945.789 162.6 945.928C162.952 946.067 163.347 946.184 163.784 946.28C164.221 946.365 164.664 946.461 165.112 946.568C165.571 946.675 166.019 946.803 166.456 946.952C166.893 947.091 167.283 947.283 167.624 947.528C167.976 947.773 168.253 948.083 168.456 948.456C168.669 948.829 168.776 949.299 168.776 949.864C168.776 950.472 168.637 950.995 168.36 951.432C168.093 951.859 167.747 952.211 167.32 952.488C166.893 952.755 166.413 952.947 165.88 953.064C165.357 953.192 164.835 953.256 164.312 953.256C163.672 953.256 163.064 953.176 162.488 953.016C161.923 952.856 161.421 952.616 160.984 952.296C160.557 951.965 160.216 951.549 159.96 951.048C159.715 950.536 159.592 949.933 159.592 949.24H161.032C161.032 949.72 161.123 950.136 161.304 950.488C161.496 950.829 161.741 951.112 162.04 951.336C162.349 951.56 162.707 951.725 163.112 951.832C163.517 951.939 163.933 951.992 164.36 951.992C164.701 951.992 165.043 951.96 165.384 951.896C165.736 951.832 166.051 951.725 166.328 951.576C166.605 951.416 166.829 951.203 167 950.936C167.171 950.669 167.256 950.328 167.256 949.912C167.256 949.517 167.149 949.197 166.936 948.952C166.733 948.707 166.456 948.509 166.104 948.36C165.763 948.2 165.373 948.072 164.936 947.976C164.499 947.88 164.051 947.784 163.592 947.688C163.144 947.581 162.701 947.464 162.264 947.336C161.827 947.197 161.432 947.021 161.08 946.808C160.739 946.584 160.461 946.301 160.248 945.96C160.045 945.608 159.944 945.171 159.944 944.648C159.944 944.072 160.061 943.576 160.296 943.16C160.531 942.733 160.84 942.387 161.224 942.12C161.619 941.843 162.061 941.64 162.552 941.512C163.053 941.373 163.565 941.304 164.088 941.304C164.675 941.304 165.219 941.373 165.72 941.512C166.221 941.651 166.659 941.869 167.032 942.168C167.416 942.467 167.715 942.845 167.928 943.304C168.152 943.752 168.275 944.291 168.296 944.92H166.856ZM170.479 941.576H171.839V948.344L175.615 944.728H177.439L174.159 947.736L177.679 953H175.951L173.119 948.68L171.839 949.864V953H170.479V941.576ZM184.44 948.072C184.419 947.752 184.344 947.448 184.216 947.16C184.099 946.872 183.933 946.627 183.72 946.424C183.517 946.211 183.272 946.045 182.984 945.928C182.707 945.8 182.397 945.736 182.056 945.736C181.704 945.736 181.384 945.8 181.096 945.928C180.819 946.045 180.579 946.211 180.376 946.424C180.173 946.637 180.013 946.888 179.896 947.176C179.779 947.453 179.709 947.752 179.688 948.072H184.44ZM185.752 950.376C185.571 951.304 185.171 952.003 184.552 952.472C183.933 952.941 183.155 953.176 182.216 953.176C181.555 953.176 180.979 953.069 180.488 952.856C180.008 952.643 179.603 952.344 179.272 951.96C178.941 951.576 178.691 951.117 178.52 950.584C178.36 950.051 178.269 949.469 178.248 948.84C178.248 948.211 178.344 947.635 178.536 947.112C178.728 946.589 178.995 946.136 179.336 945.752C179.688 945.368 180.099 945.069 180.568 944.856C181.048 944.643 181.571 944.536 182.136 944.536C182.872 944.536 183.48 944.691 183.96 945C184.451 945.299 184.84 945.683 185.128 946.152C185.427 946.621 185.629 947.133 185.736 947.688C185.853 948.243 185.901 948.771 185.88 949.272H179.688C179.677 949.635 179.72 949.981 179.816 950.312C179.912 950.632 180.067 950.92 180.28 951.176C180.493 951.421 180.765 951.619 181.096 951.768C181.427 951.917 181.816 951.992 182.264 951.992C182.84 951.992 183.309 951.859 183.672 951.592C184.045 951.325 184.291 950.92 184.408 950.376H185.752ZM187.37 941.576H188.73V953H187.37V941.576ZM196.581 948.072C196.559 947.752 196.485 947.448 196.357 947.16C196.239 946.872 196.074 946.627 195.861 946.424C195.658 946.211 195.413 946.045 195.125 945.928C194.847 945.8 194.538 945.736 194.197 945.736C193.845 945.736 193.525 945.8 193.237 945.928C192.959 946.045 192.719 946.211 192.517 946.424C192.314 946.637 192.154 946.888 192.037 947.176C191.919 947.453 191.85 947.752 191.829 948.072H196.581ZM197.892 950.376C197.711 951.304 197.311 952.003 196.693 952.472C196.074 952.941 195.295 953.176 194.357 953.176C193.695 953.176 193.119 953.069 192.629 952.856C192.149 952.643 191.743 952.344 191.413 951.96C191.082 951.576 190.831 951.117 190.661 950.584C190.501 950.051 190.41 949.469 190.389 948.84C190.389 948.211 190.485 947.635 190.677 947.112C190.869 946.589 191.135 946.136 191.477 945.752C191.829 945.368 192.239 945.069 192.709 944.856C193.189 944.643 193.711 944.536 194.277 944.536C195.013 944.536 195.621 944.691 196.101 945C196.591 945.299 196.981 945.683 197.269 946.152C197.567 946.621 197.77 947.133 197.877 947.688C197.994 948.243 198.042 948.771 198.021 949.272H191.829C191.818 949.635 191.861 949.981 191.957 950.312C192.053 950.632 192.207 950.92 192.421 951.176C192.634 951.421 192.906 951.619 193.237 951.768C193.567 951.917 193.957 951.992 194.405 951.992C194.981 951.992 195.45 951.859 195.813 951.592C196.186 951.325 196.431 950.92 196.549 950.376H197.892ZM201.318 944.728H202.966V945.928H201.318V951.064C201.318 951.224 201.329 951.352 201.35 951.448C201.382 951.544 201.436 951.619 201.51 951.672C201.585 951.725 201.686 951.763 201.814 951.784C201.953 951.795 202.129 951.8 202.342 951.8H202.966V953H201.926C201.574 953 201.27 952.979 201.014 952.936C200.769 952.883 200.566 952.792 200.406 952.664C200.257 952.536 200.145 952.355 200.07 952.12C199.996 951.885 199.958 951.576 199.958 951.192V945.928H198.55V944.728H199.958V942.248H201.318V944.728ZM205.469 948.872C205.469 949.373 205.533 949.821 205.661 950.216C205.8 950.6 205.986 950.925 206.221 951.192C206.456 951.448 206.728 951.645 207.037 951.784C207.357 951.923 207.693 951.992 208.045 951.992C208.397 951.992 208.728 951.923 209.037 951.784C209.357 951.645 209.634 951.448 209.869 951.192C210.104 950.925 210.285 950.6 210.413 950.216C210.552 949.821 210.621 949.373 210.621 948.872C210.621 948.371 210.552 947.928 210.413 947.544C210.285 947.149 210.104 946.819 209.869 946.552C209.634 946.285 209.357 946.083 209.037 945.944C208.728 945.805 208.397 945.736 208.045 945.736C207.693 945.736 207.357 945.805 207.037 945.944C206.728 946.083 206.456 946.285 206.221 946.552C205.986 946.819 205.8 947.149 205.661 947.544C205.533 947.928 205.469 948.371 205.469 948.872ZM204.029 948.872C204.029 948.264 204.114 947.699 204.285 947.176C204.456 946.643 204.712 946.184 205.053 945.8C205.394 945.405 205.816 945.096 206.317 944.872C206.818 944.648 207.394 944.536 208.045 944.536C208.706 944.536 209.282 944.648 209.773 944.872C210.274 945.096 210.696 945.405 211.037 945.8C211.378 946.184 211.634 946.643 211.805 947.176C211.976 947.699 212.061 948.264 212.061 948.872C212.061 949.48 211.976 950.045 211.805 950.568C211.634 951.091 211.378 951.549 211.037 951.944C210.696 952.328 210.274 952.632 209.773 952.856C209.282 953.069 208.706 953.176 208.045 953.176C207.394 953.176 206.818 953.069 206.317 952.856C205.816 952.632 205.394 952.328 205.053 951.944C204.712 951.549 204.456 951.091 204.285 950.568C204.114 950.045 204.029 949.48 204.029 948.872ZM213.665 944.728H214.945V946.04H214.977C215.542 945.037 216.438 944.536 217.665 944.536C218.209 944.536 218.662 944.611 219.025 944.76C219.387 944.909 219.681 945.117 219.905 945.384C220.129 945.651 220.283 945.971 220.369 946.344C220.465 946.707 220.513 947.112 220.513 947.56V953H219.153V947.4C219.153 946.888 219.003 946.483 218.705 946.184C218.406 945.885 217.995 945.736 217.473 945.736C217.057 945.736 216.694 945.8 216.385 945.928C216.086 946.056 215.835 946.237 215.633 946.472C215.43 946.707 215.275 946.984 215.169 947.304C215.073 947.613 215.025 947.955 215.025 948.328V953H213.665V944.728Z" fill="black" fill-opacity="0.68"/>
<g clip-path="url(#clip5_75104_15024)">
<rect width="106" height="48" transform="translate(335 923.5)" fill="black" fill-opacity="0.04"/>
</g>
<defs>
<clipPath id="clip0_75104_15024">
<rect width="20" height="20" fill="white" transform="translate(405 349.5)"/>
</clipPath>
<clipPath id="clip1_75104_15024">
<rect width="20" height="20" fill="white" transform="translate(405 447.5)"/>
</clipPath>
<clipPath id="clip2_75104_15024">
<rect width="20" height="20" fill="white" transform="translate(405 545.5)"/>
</clipPath>
<clipPath id="clip3_75104_15024">
<rect width="20" height="20" fill="white" transform="translate(405 643.5)"/>
</clipPath>
<clipPath id="clip4_75104_15024">
<rect width="20" height="20" fill="white" transform="translate(405 839.5)"/>
</clipPath>
<clipPath id="clip5_75104_15024">
<rect width="106" height="48" fill="white" transform="translate(335 923.5)"/>
</clipPath>
</defs>
</svg>
