<svg width="600" height="788" viewBox="0 0 600 788" fill="none" xmlns="http://www.w3.org/2000/svg">
<rect width="600" height="788" fill="black" fill-opacity="0.04"/>
<path d="M161.768 251.22H164.296C164.467 251.22 164.68 251.209 164.936 251.188C165.192 251.156 165.464 251.092 165.752 250.996C166.04 250.889 166.323 250.74 166.6 250.548C166.888 250.356 167.144 250.095 167.368 249.764C167.592 249.433 167.773 249.023 167.912 248.532C168.061 248.031 168.136 247.428 168.136 246.724C168.136 246.041 168.067 245.433 167.928 244.9C167.8 244.356 167.581 243.897 167.272 243.524C166.973 243.14 166.584 242.852 166.104 242.66C165.624 242.457 165.032 242.356 164.328 242.356H161.768V251.22ZM160.248 241.076H164.168C165.928 241.076 167.283 241.524 168.232 242.42C169.181 243.316 169.656 244.681 169.656 246.516C169.656 247.476 169.549 248.329 169.336 249.076C169.123 249.812 168.792 250.436 168.344 250.948C167.896 251.449 167.325 251.833 166.632 252.1C165.939 252.367 165.117 252.5 164.168 252.5H160.248V241.076ZM177.034 247.572C177.012 247.252 176.938 246.948 176.81 246.66C176.692 246.372 176.527 246.127 176.314 245.924C176.111 245.711 175.866 245.545 175.578 245.428C175.3 245.3 174.991 245.236 174.65 245.236C174.298 245.236 173.978 245.3 173.69 245.428C173.412 245.545 173.172 245.711 172.97 245.924C172.767 246.137 172.607 246.388 172.49 246.676C172.372 246.953 172.303 247.252 172.282 247.572H177.034ZM178.346 249.876C178.164 250.804 177.764 251.503 177.146 251.972C176.527 252.441 175.748 252.676 174.81 252.676C174.148 252.676 173.572 252.569 173.082 252.356C172.602 252.143 172.196 251.844 171.866 251.46C171.535 251.076 171.284 250.617 171.114 250.084C170.954 249.551 170.863 248.969 170.842 248.34C170.842 247.711 170.938 247.135 171.13 246.612C171.322 246.089 171.588 245.636 171.93 245.252C172.282 244.868 172.692 244.569 173.162 244.356C173.642 244.143 174.164 244.036 174.73 244.036C175.466 244.036 176.074 244.191 176.554 244.5C177.044 244.799 177.434 245.183 177.722 245.652C178.02 246.121 178.223 246.633 178.33 247.188C178.447 247.743 178.495 248.271 178.474 248.772H172.282C172.271 249.135 172.314 249.481 172.41 249.812C172.506 250.132 172.66 250.42 172.874 250.676C173.087 250.921 173.359 251.119 173.69 251.268C174.02 251.417 174.41 251.492 174.858 251.492C175.434 251.492 175.903 251.359 176.266 251.092C176.639 250.825 176.884 250.42 177.002 249.876H178.346ZM180.443 245.428H179.051V244.228H180.443V242.996C180.443 242.324 180.635 241.817 181.019 241.476C181.414 241.124 181.985 240.948 182.731 240.948C182.859 240.948 183.003 240.959 183.163 240.98C183.334 241.001 183.483 241.033 183.611 241.076V242.26C183.494 242.217 183.366 242.191 183.227 242.18C183.089 242.159 182.961 242.148 182.843 242.148C182.513 242.148 182.257 242.212 182.075 242.34C181.894 242.468 181.803 242.713 181.803 243.076V244.228H183.403V245.428H181.803V252.5H180.443V245.428ZM191.946 252.468C191.711 252.607 191.386 252.676 190.97 252.676C190.618 252.676 190.335 252.58 190.122 252.388C189.919 252.185 189.818 251.86 189.818 251.412C189.444 251.86 189.007 252.185 188.506 252.388C188.015 252.58 187.482 252.676 186.906 252.676C186.532 252.676 186.175 252.633 185.834 252.548C185.503 252.463 185.215 252.329 184.97 252.148C184.724 251.967 184.527 251.732 184.378 251.444C184.239 251.145 184.17 250.788 184.17 250.372C184.17 249.903 184.25 249.519 184.41 249.22C184.57 248.921 184.778 248.681 185.034 248.5C185.3 248.308 185.599 248.164 185.93 248.068C186.271 247.972 186.618 247.892 186.97 247.828C187.343 247.753 187.695 247.7 188.026 247.668C188.367 247.625 188.666 247.572 188.922 247.508C189.178 247.433 189.38 247.332 189.53 247.204C189.679 247.065 189.754 246.868 189.754 246.612C189.754 246.313 189.695 246.073 189.578 245.892C189.471 245.711 189.327 245.572 189.146 245.476C188.975 245.38 188.778 245.316 188.554 245.284C188.34 245.252 188.127 245.236 187.914 245.236C187.338 245.236 186.858 245.348 186.474 245.572C186.09 245.785 185.882 246.196 185.85 246.804H184.49C184.511 246.292 184.618 245.86 184.81 245.508C185.002 245.156 185.258 244.873 185.578 244.66C185.898 244.436 186.26 244.276 186.666 244.18C187.082 244.084 187.524 244.036 187.994 244.036C188.367 244.036 188.735 244.063 189.098 244.116C189.471 244.169 189.807 244.281 190.106 244.452C190.404 244.612 190.644 244.841 190.826 245.14C191.007 245.439 191.098 245.828 191.098 246.308V250.564C191.098 250.884 191.114 251.119 191.146 251.268C191.188 251.417 191.316 251.492 191.53 251.492C191.647 251.492 191.786 251.465 191.946 251.412V252.468ZM189.738 248.228C189.567 248.356 189.343 248.452 189.066 248.516C188.788 248.569 188.495 248.617 188.186 248.66C187.887 248.692 187.583 248.735 187.274 248.788C186.964 248.831 186.687 248.905 186.442 249.012C186.196 249.119 185.994 249.273 185.834 249.476C185.684 249.668 185.61 249.935 185.61 250.276C185.61 250.5 185.652 250.692 185.738 250.852C185.834 251.001 185.951 251.124 186.09 251.22C186.239 251.316 186.41 251.385 186.602 251.428C186.794 251.471 186.996 251.492 187.21 251.492C187.658 251.492 188.042 251.433 188.362 251.316C188.682 251.188 188.943 251.033 189.146 250.852C189.348 250.66 189.498 250.457 189.594 250.244C189.69 250.02 189.738 249.812 189.738 249.62V248.228ZM200.06 252.5H198.78V251.188H198.748C198.46 251.7 198.092 252.079 197.644 252.324C197.196 252.559 196.668 252.676 196.06 252.676C195.516 252.676 195.062 252.607 194.7 252.468C194.337 252.319 194.044 252.111 193.82 251.844C193.596 251.577 193.436 251.263 193.34 250.9C193.254 250.527 193.212 250.116 193.212 249.668V244.228H194.572V249.828C194.572 250.34 194.721 250.745 195.02 251.044C195.318 251.343 195.729 251.492 196.252 251.492C196.668 251.492 197.025 251.428 197.324 251.3C197.633 251.172 197.889 250.991 198.092 250.756C198.294 250.521 198.444 250.249 198.54 249.94C198.646 249.62 198.7 249.273 198.7 248.9V244.228H200.06V252.5ZM202.182 241.076H203.542V252.5H202.182V241.076ZM207.537 244.228H209.185V245.428H207.537V250.564C207.537 250.724 207.548 250.852 207.569 250.948C207.601 251.044 207.654 251.119 207.729 251.172C207.804 251.225 207.905 251.263 208.033 251.284C208.172 251.295 208.348 251.3 208.561 251.3H209.185V252.5H208.145C207.793 252.5 207.489 252.479 207.233 252.436C206.988 252.383 206.785 252.292 206.625 252.164C206.476 252.036 206.364 251.855 206.289 251.62C206.214 251.385 206.177 251.076 206.177 250.692V245.428H204.769V244.228H206.177V241.748H207.537V244.228Z" fill="black" fill-opacity="0.68"/>
<mask id="path-2-inside-1_75104_14975" fill="white">
<path d="M335 223H441V271H335V223Z"/>
</mask>
<path d="M335 223V222H334V223H335ZM441 223H442V222H441V223ZM441 271V272H442V271H441ZM335 271H334V272H335V271ZM335 223V224H441V223V222H335V223ZM441 223H440V271H441H442V223H441ZM441 271V270H335V271V272H441V271ZM335 271H336V223H335H334V271H335Z" fill="black" mask="url(#path-2-inside-1_75104_14975)"/>
<path d="M364.171 241.576H366.667L371.435 249.24H371.467V241.576H373.819V253H371.307L366.555 245.352H366.523V253H364.171V241.576ZM381.559 247.976C381.452 247.4 381.26 246.963 380.983 246.664C380.716 246.365 380.305 246.216 379.751 246.216C379.388 246.216 379.084 246.28 378.839 246.408C378.604 246.525 378.412 246.675 378.263 246.856C378.124 247.037 378.023 247.229 377.959 247.432C377.905 247.635 377.873 247.816 377.863 247.976H381.559ZM377.863 249.416C377.895 250.152 378.081 250.685 378.423 251.016C378.764 251.347 379.255 251.512 379.895 251.512C380.353 251.512 380.748 251.4 381.079 251.176C381.409 250.941 381.612 250.696 381.687 250.44H383.687C383.367 251.432 382.876 252.141 382.215 252.568C381.553 252.995 380.753 253.208 379.815 253.208C379.164 253.208 378.577 253.107 378.055 252.904C377.532 252.691 377.089 252.392 376.727 252.008C376.364 251.624 376.081 251.165 375.879 250.632C375.687 250.099 375.591 249.512 375.591 248.872C375.591 248.253 375.692 247.677 375.895 247.144C376.097 246.611 376.385 246.152 376.759 245.768C377.132 245.373 377.575 245.064 378.087 244.84C378.609 244.616 379.185 244.504 379.815 244.504C380.519 244.504 381.132 244.643 381.655 244.92C382.177 245.187 382.604 245.549 382.935 246.008C383.276 246.467 383.521 246.989 383.671 247.576C383.82 248.163 383.873 248.776 383.831 249.416H377.863ZM387.49 248.648L384.77 244.728H387.362L388.818 246.888L390.258 244.728H392.77L390.05 248.6L393.106 253H390.514L388.786 250.392L387.058 253H384.514L387.49 248.648ZM397.052 244.728H398.716V246.248H397.052V250.344C397.052 250.728 397.116 250.984 397.244 251.112C397.372 251.24 397.628 251.304 398.012 251.304C398.14 251.304 398.262 251.299 398.38 251.288C398.497 251.277 398.609 251.261 398.716 251.24V253C398.524 253.032 398.31 253.053 398.076 253.064C397.841 253.075 397.612 253.08 397.388 253.08C397.036 253.08 396.7 253.053 396.38 253C396.07 252.957 395.793 252.867 395.548 252.728C395.313 252.589 395.126 252.392 394.988 252.136C394.849 251.88 394.78 251.544 394.78 251.128V246.248H393.404V244.728H394.78V242.248H397.052V244.728Z" fill="black"/>
<g clip-path="url(#clip0_75104_14975)">
<path d="M413.314 252.938L419.375 247L413.314 241.062L411.582 242.758L415.912 247L411.582 251.24L413.314 252.938Z" fill="black"/>
</g>
<path d="M166.856 342.42C166.771 341.599 166.472 341.007 165.96 340.644C165.459 340.271 164.813 340.084 164.024 340.084C163.704 340.084 163.389 340.116 163.08 340.18C162.771 340.244 162.493 340.351 162.248 340.5C162.013 340.649 161.821 340.852 161.672 341.108C161.533 341.353 161.464 341.663 161.464 342.036C161.464 342.388 161.565 342.676 161.768 342.9C161.981 343.113 162.259 343.289 162.6 343.428C162.952 343.567 163.347 343.684 163.784 343.78C164.221 343.865 164.664 343.961 165.112 344.068C165.571 344.175 166.019 344.303 166.456 344.452C166.893 344.591 167.283 344.783 167.624 345.028C167.976 345.273 168.253 345.583 168.456 345.956C168.669 346.329 168.776 346.799 168.776 347.364C168.776 347.972 168.637 348.495 168.36 348.932C168.093 349.359 167.747 349.711 167.32 349.988C166.893 350.255 166.413 350.447 165.88 350.564C165.357 350.692 164.835 350.756 164.312 350.756C163.672 350.756 163.064 350.676 162.488 350.516C161.923 350.356 161.421 350.116 160.984 349.796C160.557 349.465 160.216 349.049 159.96 348.548C159.715 348.036 159.592 347.433 159.592 346.74H161.032C161.032 347.22 161.123 347.636 161.304 347.988C161.496 348.329 161.741 348.612 162.04 348.836C162.349 349.06 162.707 349.225 163.112 349.332C163.517 349.439 163.933 349.492 164.36 349.492C164.701 349.492 165.043 349.46 165.384 349.396C165.736 349.332 166.051 349.225 166.328 349.076C166.605 348.916 166.829 348.703 167 348.436C167.171 348.169 167.256 347.828 167.256 347.412C167.256 347.017 167.149 346.697 166.936 346.452C166.733 346.207 166.456 346.009 166.104 345.86C165.763 345.7 165.373 345.572 164.936 345.476C164.499 345.38 164.051 345.284 163.592 345.188C163.144 345.081 162.701 344.964 162.264 344.836C161.827 344.697 161.432 344.521 161.08 344.308C160.739 344.084 160.461 343.801 160.248 343.46C160.045 343.108 159.944 342.671 159.944 342.148C159.944 341.572 160.061 341.076 160.296 340.66C160.531 340.233 160.84 339.887 161.224 339.62C161.619 339.343 162.061 339.14 162.552 339.012C163.053 338.873 163.565 338.804 164.088 338.804C164.675 338.804 165.219 338.873 165.72 339.012C166.221 339.151 166.659 339.369 167.032 339.668C167.416 339.967 167.715 340.345 167.928 340.804C168.152 341.252 168.275 341.791 168.296 342.42H166.856ZM172.287 342.228H173.935V343.428H172.287V348.564C172.287 348.724 172.298 348.852 172.319 348.948C172.351 349.044 172.404 349.119 172.479 349.172C172.554 349.225 172.655 349.263 172.783 349.284C172.922 349.295 173.098 349.3 173.311 349.3H173.935V350.5H172.895C172.543 350.5 172.239 350.479 171.983 350.436C171.738 350.383 171.535 350.292 171.375 350.164C171.226 350.036 171.114 349.855 171.039 349.62C170.964 349.385 170.927 349.076 170.927 348.692V343.428H169.519V342.228H170.927V339.748H172.287V342.228ZM175.398 342.228H176.678V343.972H176.71C177.041 343.3 177.446 342.804 177.926 342.484C178.406 342.164 179.014 342.015 179.75 342.036V343.476C179.206 343.476 178.742 343.551 178.358 343.7C177.974 343.849 177.665 344.068 177.43 344.356C177.195 344.644 177.025 344.996 176.918 345.412C176.811 345.817 176.758 346.287 176.758 346.82V350.5H175.398V342.228ZM181.485 346.372C181.485 346.873 181.549 347.321 181.677 347.716C181.815 348.1 182.002 348.425 182.237 348.692C182.471 348.948 182.743 349.145 183.053 349.284C183.373 349.423 183.709 349.492 184.061 349.492C184.413 349.492 184.743 349.423 185.053 349.284C185.373 349.145 185.65 348.948 185.885 348.692C186.119 348.425 186.301 348.1 186.429 347.716C186.567 347.321 186.637 346.873 186.637 346.372C186.637 345.871 186.567 345.428 186.429 345.044C186.301 344.649 186.119 344.319 185.885 344.052C185.65 343.785 185.373 343.583 185.053 343.444C184.743 343.305 184.413 343.236 184.061 343.236C183.709 343.236 183.373 343.305 183.053 343.444C182.743 343.583 182.471 343.785 182.237 344.052C182.002 344.319 181.815 344.649 181.677 345.044C181.549 345.428 181.485 345.871 181.485 346.372ZM180.045 346.372C180.045 345.764 180.13 345.199 180.301 344.676C180.471 344.143 180.727 343.684 181.069 343.3C181.41 342.905 181.831 342.596 182.333 342.372C182.834 342.148 183.41 342.036 184.061 342.036C184.722 342.036 185.298 342.148 185.789 342.372C186.29 342.596 186.711 342.905 187.053 343.3C187.394 343.684 187.65 344.143 187.821 344.676C187.991 345.199 188.077 345.764 188.077 346.372C188.077 346.98 187.991 347.545 187.821 348.068C187.65 348.591 187.394 349.049 187.053 349.444C186.711 349.828 186.29 350.132 185.789 350.356C185.298 350.569 184.722 350.676 184.061 350.676C183.41 350.676 182.834 350.569 182.333 350.356C181.831 350.132 181.41 349.828 181.069 349.444C180.727 349.049 180.471 348.591 180.301 348.068C180.13 347.545 180.045 346.98 180.045 346.372ZM189.68 342.228H190.96V343.54H190.992C191.558 342.537 192.454 342.036 193.68 342.036C194.224 342.036 194.678 342.111 195.04 342.26C195.403 342.409 195.696 342.617 195.92 342.884C196.144 343.151 196.299 343.471 196.384 343.844C196.48 344.207 196.528 344.612 196.528 345.06V350.5H195.168V344.9C195.168 344.388 195.019 343.983 194.72 343.684C194.422 343.385 194.011 343.236 193.488 343.236C193.072 343.236 192.71 343.3 192.4 343.428C192.102 343.556 191.851 343.737 191.648 343.972C191.446 344.207 191.291 344.484 191.184 344.804C191.088 345.113 191.04 345.455 191.04 345.828V350.5H189.68V342.228ZM205.707 349.796C205.707 351.151 205.398 352.164 204.779 352.836C204.16 353.508 203.19 353.844 201.867 353.844C201.483 353.844 201.088 353.801 200.683 353.716C200.288 353.631 199.926 353.492 199.595 353.3C199.275 353.108 199.008 352.857 198.795 352.548C198.582 352.239 198.464 351.86 198.443 351.412H199.803C199.814 351.657 199.888 351.865 200.027 352.036C200.176 352.207 200.352 352.345 200.555 352.452C200.768 352.559 200.998 352.633 201.243 352.676C201.488 352.729 201.723 352.756 201.947 352.756C202.395 352.756 202.774 352.676 203.083 352.516C203.392 352.367 203.648 352.153 203.851 351.876C204.054 351.609 204.198 351.284 204.283 350.9C204.379 350.516 204.427 350.095 204.427 349.636V349.092H204.395C204.16 349.604 203.803 349.983 203.323 350.228C202.854 350.463 202.352 350.58 201.819 350.58C201.2 350.58 200.662 350.468 200.203 350.244C199.744 350.02 199.36 349.721 199.051 349.348C198.742 348.964 198.507 348.521 198.347 348.02C198.198 347.508 198.123 346.969 198.123 346.404C198.123 345.913 198.187 345.412 198.315 344.9C198.443 344.377 198.656 343.908 198.955 343.492C199.254 343.065 199.648 342.719 200.139 342.452C200.63 342.175 201.232 342.036 201.947 342.036C202.47 342.036 202.95 342.153 203.387 342.388C203.824 342.612 204.166 342.953 204.411 343.412H204.427V342.228H205.707V349.796ZM201.899 349.396C202.347 349.396 202.726 349.305 203.035 349.124C203.355 348.932 203.611 348.687 203.803 348.388C203.995 348.079 204.134 347.732 204.219 347.348C204.315 346.964 204.363 346.58 204.363 346.196C204.363 345.833 204.32 345.476 204.235 345.124C204.15 344.772 204.011 344.457 203.819 344.18C203.638 343.892 203.398 343.663 203.099 343.492C202.8 343.321 202.438 343.236 202.011 343.236C201.574 343.236 201.2 343.321 200.891 343.492C200.582 343.652 200.326 343.871 200.123 344.148C199.931 344.425 199.787 344.745 199.691 345.108C199.606 345.471 199.563 345.849 199.563 346.244C199.563 346.617 199.6 346.991 199.675 347.364C199.75 347.737 199.878 348.079 200.059 348.388C200.24 348.687 200.48 348.932 200.779 349.124C201.078 349.305 201.451 349.396 201.899 349.396Z" fill="black" fill-opacity="0.68"/>
<rect width="106" height="48" transform="translate(335 321)" fill="black"/>
<path d="M364.171 339.576H366.667L371.435 347.24H371.467V339.576H373.819V351H371.307L366.555 343.352H366.523V351H364.171V339.576ZM381.559 345.976C381.452 345.4 381.26 344.963 380.983 344.664C380.716 344.365 380.305 344.216 379.751 344.216C379.388 344.216 379.084 344.28 378.839 344.408C378.604 344.525 378.412 344.675 378.263 344.856C378.124 345.037 378.023 345.229 377.959 345.432C377.905 345.635 377.873 345.816 377.863 345.976H381.559ZM377.863 347.416C377.895 348.152 378.081 348.685 378.423 349.016C378.764 349.347 379.255 349.512 379.895 349.512C380.353 349.512 380.748 349.4 381.079 349.176C381.409 348.941 381.612 348.696 381.687 348.44H383.687C383.367 349.432 382.876 350.141 382.215 350.568C381.553 350.995 380.753 351.208 379.815 351.208C379.164 351.208 378.577 351.107 378.055 350.904C377.532 350.691 377.089 350.392 376.727 350.008C376.364 349.624 376.081 349.165 375.879 348.632C375.687 348.099 375.591 347.512 375.591 346.872C375.591 346.253 375.692 345.677 375.895 345.144C376.097 344.611 376.385 344.152 376.759 343.768C377.132 343.373 377.575 343.064 378.087 342.84C378.609 342.616 379.185 342.504 379.815 342.504C380.519 342.504 381.132 342.643 381.655 342.92C382.177 343.187 382.604 343.549 382.935 344.008C383.276 344.467 383.521 344.989 383.671 345.576C383.82 346.163 383.873 346.776 383.831 347.416H377.863ZM387.49 346.648L384.77 342.728H387.362L388.818 344.888L390.258 342.728H392.77L390.05 346.6L393.106 351H390.514L388.786 348.392L387.058 351H384.514L387.49 346.648ZM397.052 342.728H398.716V344.248H397.052V348.344C397.052 348.728 397.116 348.984 397.244 349.112C397.372 349.24 397.628 349.304 398.012 349.304C398.14 349.304 398.262 349.299 398.38 349.288C398.497 349.277 398.609 349.261 398.716 349.24V351C398.524 351.032 398.31 351.053 398.076 351.064C397.841 351.075 397.612 351.08 397.388 351.08C397.036 351.08 396.7 351.053 396.38 351C396.07 350.957 395.793 350.867 395.548 350.728C395.313 350.589 395.126 350.392 394.988 350.136C394.849 349.88 394.78 349.544 394.78 349.128V344.248H393.404V342.728H394.78V340.248H397.052V342.728Z" fill="white"/>
<g clip-path="url(#clip1_75104_14975)">
<path d="M413.314 350.938L419.375 345L413.314 339.062L411.582 340.758L415.912 345L411.582 349.24L413.314 350.938Z" fill="white"/>
</g>
<path d="M161.768 441.988H164.808C165.672 441.988 166.291 441.839 166.664 441.54C167.048 441.231 167.24 440.772 167.24 440.164C167.24 439.759 167.176 439.439 167.048 439.204C166.92 438.969 166.744 438.788 166.52 438.66C166.296 438.532 166.035 438.452 165.736 438.42C165.448 438.377 165.139 438.356 164.808 438.356H161.768V441.988ZM160.248 437.076H164.392C164.637 437.076 164.899 437.081 165.176 437.092C165.464 437.092 165.747 437.108 166.024 437.14C166.301 437.161 166.557 437.199 166.792 437.252C167.037 437.305 167.245 437.385 167.416 437.492C167.789 437.716 168.104 438.025 168.36 438.42C168.627 438.815 168.76 439.3 168.76 439.876C168.76 440.484 168.611 441.012 168.312 441.46C168.024 441.897 167.608 442.223 167.064 442.436V442.468C167.768 442.617 168.307 442.937 168.68 443.428C169.053 443.919 169.24 444.516 169.24 445.22C169.24 445.636 169.165 446.041 169.016 446.436C168.867 446.831 168.643 447.183 168.344 447.492C168.056 447.791 167.693 448.036 167.256 448.228C166.829 448.409 166.333 448.5 165.768 448.5H160.248V437.076ZM161.768 447.22H165.576C166.248 447.22 166.771 447.039 167.144 446.676C167.528 446.313 167.72 445.812 167.72 445.172C167.72 444.799 167.651 444.489 167.512 444.244C167.373 443.999 167.187 443.807 166.952 443.668C166.728 443.519 166.467 443.417 166.168 443.364C165.869 443.3 165.56 443.268 165.24 443.268H161.768V447.22ZM170.929 440.228H172.209V441.972H172.241C172.572 441.3 172.977 440.804 173.457 440.484C173.937 440.164 174.545 440.015 175.281 440.036V441.476C174.737 441.476 174.273 441.551 173.889 441.7C173.505 441.849 173.196 442.068 172.961 442.356C172.726 442.644 172.556 442.996 172.449 443.412C172.342 443.817 172.289 444.287 172.289 444.82V448.5H170.929V440.228ZM183.633 448.468C183.399 448.607 183.073 448.676 182.657 448.676C182.305 448.676 182.023 448.58 181.809 448.388C181.607 448.185 181.505 447.86 181.505 447.412C181.132 447.86 180.695 448.185 180.193 448.388C179.703 448.58 179.169 448.676 178.593 448.676C178.22 448.676 177.863 448.633 177.521 448.548C177.191 448.463 176.903 448.329 176.657 448.148C176.412 447.967 176.215 447.732 176.065 447.444C175.927 447.145 175.857 446.788 175.857 446.372C175.857 445.903 175.937 445.519 176.097 445.22C176.257 444.921 176.465 444.681 176.721 444.5C176.988 444.308 177.287 444.164 177.617 444.068C177.959 443.972 178.305 443.892 178.657 443.828C179.031 443.753 179.383 443.7 179.713 443.668C180.055 443.625 180.353 443.572 180.609 443.508C180.865 443.433 181.068 443.332 181.217 443.204C181.367 443.065 181.441 442.868 181.441 442.612C181.441 442.313 181.383 442.073 181.265 441.892C181.159 441.711 181.015 441.572 180.833 441.476C180.663 441.38 180.465 441.316 180.241 441.284C180.028 441.252 179.815 441.236 179.601 441.236C179.025 441.236 178.545 441.348 178.161 441.572C177.777 441.785 177.569 442.196 177.537 442.804H176.177C176.199 442.292 176.305 441.86 176.497 441.508C176.689 441.156 176.945 440.873 177.265 440.66C177.585 440.436 177.948 440.276 178.353 440.18C178.769 440.084 179.212 440.036 179.681 440.036C180.055 440.036 180.423 440.063 180.785 440.116C181.159 440.169 181.495 440.281 181.793 440.452C182.092 440.612 182.332 440.841 182.513 441.14C182.695 441.439 182.785 441.828 182.785 442.308V446.564C182.785 446.884 182.801 447.119 182.833 447.268C182.876 447.417 183.004 447.492 183.217 447.492C183.335 447.492 183.473 447.465 183.633 447.412V448.468ZM181.425 444.228C181.255 444.356 181.031 444.452 180.753 444.516C180.476 444.569 180.183 444.617 179.873 444.66C179.575 444.692 179.271 444.735 178.961 444.788C178.652 444.831 178.375 444.905 178.129 445.012C177.884 445.119 177.681 445.273 177.521 445.476C177.372 445.668 177.297 445.935 177.297 446.276C177.297 446.5 177.34 446.692 177.425 446.852C177.521 447.001 177.639 447.124 177.777 447.22C177.927 447.316 178.097 447.385 178.289 447.428C178.481 447.471 178.684 447.492 178.897 447.492C179.345 447.492 179.729 447.433 180.049 447.316C180.369 447.188 180.631 447.033 180.833 446.852C181.036 446.66 181.185 446.457 181.281 446.244C181.377 446.02 181.425 445.812 181.425 445.62V444.228ZM184.899 440.228H186.179V441.54H186.211C186.776 440.537 187.672 440.036 188.899 440.036C189.443 440.036 189.896 440.111 190.259 440.26C190.622 440.409 190.915 440.617 191.139 440.884C191.363 441.151 191.518 441.471 191.603 441.844C191.699 442.207 191.747 442.612 191.747 443.06V448.5H190.387V442.9C190.387 442.388 190.238 441.983 189.939 441.684C189.64 441.385 189.23 441.236 188.707 441.236C188.291 441.236 187.928 441.3 187.619 441.428C187.32 441.556 187.07 441.737 186.867 441.972C186.664 442.207 186.51 442.484 186.403 442.804C186.307 443.113 186.259 443.455 186.259 443.828V448.5H184.899V440.228ZM194.782 444.436C194.782 444.82 194.83 445.199 194.926 445.572C195.032 445.935 195.187 446.26 195.39 446.548C195.603 446.836 195.87 447.065 196.19 447.236C196.52 447.407 196.904 447.492 197.342 447.492C197.8 447.492 198.19 447.401 198.51 447.22C198.83 447.039 199.091 446.804 199.294 446.516C199.496 446.217 199.64 445.881 199.726 445.508C199.822 445.135 199.87 444.756 199.87 444.372C199.87 443.967 199.822 443.577 199.726 443.204C199.63 442.82 199.475 442.484 199.262 442.196C199.059 441.908 198.792 441.679 198.462 441.508C198.131 441.327 197.731 441.236 197.262 441.236C196.803 441.236 196.414 441.327 196.094 441.508C195.774 441.689 195.518 441.929 195.326 442.228C195.134 442.527 194.995 442.868 194.91 443.252C194.824 443.636 194.782 444.031 194.782 444.436ZM201.182 448.5H199.822V447.38H199.79C199.566 447.839 199.214 448.169 198.734 448.372C198.254 448.575 197.726 448.676 197.15 448.676C196.51 448.676 195.95 448.559 195.47 448.324C195 448.089 194.606 447.775 194.286 447.38C193.976 446.985 193.742 446.527 193.582 446.004C193.422 445.481 193.342 444.927 193.342 444.34C193.342 443.753 193.416 443.199 193.566 442.676C193.726 442.153 193.96 441.7 194.27 441.316C194.59 440.921 194.984 440.612 195.454 440.388C195.934 440.153 196.488 440.036 197.118 440.036C197.331 440.036 197.56 440.057 197.806 440.1C198.051 440.143 198.296 440.217 198.542 440.324C198.787 440.42 199.016 440.553 199.23 440.724C199.454 440.884 199.64 441.087 199.79 441.332H199.822V437.076H201.182V448.5Z" fill="black" fill-opacity="0.68"/>
<rect width="106" height="48" transform="translate(335 419)" fill="#FF7900"/>
<path d="M364.171 437.576H366.667L371.435 445.24H371.467V437.576H373.819V449H371.307L366.555 441.352H366.523V449H364.171V437.576ZM381.559 443.976C381.452 443.4 381.26 442.963 380.983 442.664C380.716 442.365 380.305 442.216 379.751 442.216C379.388 442.216 379.084 442.28 378.839 442.408C378.604 442.525 378.412 442.675 378.263 442.856C378.124 443.037 378.023 443.229 377.959 443.432C377.905 443.635 377.873 443.816 377.863 443.976H381.559ZM377.863 445.416C377.895 446.152 378.081 446.685 378.423 447.016C378.764 447.347 379.255 447.512 379.895 447.512C380.353 447.512 380.748 447.4 381.079 447.176C381.409 446.941 381.612 446.696 381.687 446.44H383.687C383.367 447.432 382.876 448.141 382.215 448.568C381.553 448.995 380.753 449.208 379.815 449.208C379.164 449.208 378.577 449.107 378.055 448.904C377.532 448.691 377.089 448.392 376.727 448.008C376.364 447.624 376.081 447.165 375.879 446.632C375.687 446.099 375.591 445.512 375.591 444.872C375.591 444.253 375.692 443.677 375.895 443.144C376.097 442.611 376.385 442.152 376.759 441.768C377.132 441.373 377.575 441.064 378.087 440.84C378.609 440.616 379.185 440.504 379.815 440.504C380.519 440.504 381.132 440.643 381.655 440.92C382.177 441.187 382.604 441.549 382.935 442.008C383.276 442.467 383.521 442.989 383.671 443.576C383.82 444.163 383.873 444.776 383.831 445.416H377.863ZM387.49 444.648L384.77 440.728H387.362L388.818 442.888L390.258 440.728H392.77L390.05 444.6L393.106 449H390.514L388.786 446.392L387.058 449H384.514L387.49 444.648ZM397.052 440.728H398.716V442.248H397.052V446.344C397.052 446.728 397.116 446.984 397.244 447.112C397.372 447.24 397.628 447.304 398.012 447.304C398.14 447.304 398.262 447.299 398.38 447.288C398.497 447.277 398.609 447.261 398.716 447.24V449C398.524 449.032 398.31 449.053 398.076 449.064C397.841 449.075 397.612 449.08 397.388 449.08C397.036 449.08 396.7 449.053 396.38 449C396.07 448.957 395.793 448.867 395.548 448.728C395.313 448.589 395.126 448.392 394.988 448.136C394.849 447.88 394.78 447.544 394.78 447.128V442.248H393.404V440.728H394.78V438.248H397.052V440.728Z" fill="black"/>
<g clip-path="url(#clip2_75104_14975)">
<path d="M413.314 448.938L419.375 443L413.314 437.062L411.582 438.758L415.912 443L411.582 447.24L413.314 448.938Z" fill="black"/>
</g>
<path d="M160.28 535.076H162.36L165.96 544.676L169.576 535.076H171.656V546.5H170.216V536.996H170.184L166.616 546.5H165.32L161.752 536.996H161.72V546.5H160.28V535.076ZM175.402 536.74H174.042V535.076H175.402V536.74ZM174.042 538.228H175.402V546.5H174.042V538.228ZM177.508 538.228H178.788V539.54H178.82C179.386 538.537 180.282 538.036 181.508 538.036C182.052 538.036 182.506 538.111 182.868 538.26C183.231 538.409 183.524 538.617 183.748 538.884C183.972 539.151 184.127 539.471 184.212 539.844C184.308 540.207 184.356 540.612 184.356 541.06V546.5H182.996V540.9C182.996 540.388 182.847 539.983 182.548 539.684C182.25 539.385 181.839 539.236 181.316 539.236C180.9 539.236 180.538 539.3 180.228 539.428C179.93 539.556 179.679 539.737 179.476 539.972C179.274 540.207 179.119 540.484 179.012 540.804C178.916 541.113 178.868 541.455 178.868 541.828V546.5H177.508V538.228ZM187.839 536.74H186.479V535.076H187.839V536.74ZM186.479 538.228H187.839V546.5H186.479V538.228ZM189.946 538.228H191.226V539.444H191.258C191.877 538.505 192.767 538.036 193.93 538.036C194.442 538.036 194.906 538.143 195.322 538.356C195.738 538.569 196.031 538.932 196.202 539.444C196.479 538.996 196.842 538.649 197.29 538.404C197.749 538.159 198.25 538.036 198.794 538.036C199.21 538.036 199.583 538.084 199.914 538.18C200.255 538.265 200.543 538.404 200.778 538.596C201.023 538.788 201.21 539.039 201.338 539.348C201.477 539.647 201.546 540.009 201.546 540.436V546.5H200.186V541.076C200.186 540.82 200.165 540.58 200.122 540.356C200.079 540.132 199.999 539.94 199.882 539.78C199.765 539.609 199.599 539.476 199.386 539.38C199.183 539.284 198.917 539.236 198.586 539.236C197.914 539.236 197.386 539.428 197.002 539.812C196.618 540.196 196.426 540.708 196.426 541.348V546.5H195.066V541.076C195.066 540.809 195.039 540.564 194.986 540.34C194.943 540.116 194.863 539.924 194.746 539.764C194.629 539.593 194.469 539.465 194.266 539.38C194.074 539.284 193.823 539.236 193.514 539.236C193.119 539.236 192.778 539.316 192.49 539.476C192.213 539.636 191.983 539.828 191.802 540.052C191.631 540.276 191.503 540.511 191.418 540.756C191.343 540.991 191.306 541.188 191.306 541.348V546.5H189.946V538.228ZM210.915 546.468C210.68 546.607 210.355 546.676 209.939 546.676C209.587 546.676 209.304 546.58 209.091 546.388C208.888 546.185 208.787 545.86 208.787 545.412C208.413 545.86 207.976 546.185 207.475 546.388C206.984 546.58 206.451 546.676 205.875 546.676C205.501 546.676 205.144 546.633 204.803 546.548C204.472 546.463 204.184 546.329 203.939 546.148C203.693 545.967 203.496 545.732 203.347 545.444C203.208 545.145 203.139 544.788 203.139 544.372C203.139 543.903 203.219 543.519 203.379 543.22C203.539 542.921 203.747 542.681 204.003 542.5C204.269 542.308 204.568 542.164 204.899 542.068C205.24 541.972 205.587 541.892 205.939 541.828C206.312 541.753 206.664 541.7 206.995 541.668C207.336 541.625 207.635 541.572 207.891 541.508C208.147 541.433 208.349 541.332 208.499 541.204C208.648 541.065 208.723 540.868 208.723 540.612C208.723 540.313 208.664 540.073 208.547 539.892C208.44 539.711 208.296 539.572 208.115 539.476C207.944 539.38 207.747 539.316 207.523 539.284C207.309 539.252 207.096 539.236 206.883 539.236C206.307 539.236 205.827 539.348 205.443 539.572C205.059 539.785 204.851 540.196 204.819 540.804H203.459C203.48 540.292 203.587 539.86 203.779 539.508C203.971 539.156 204.227 538.873 204.547 538.66C204.867 538.436 205.229 538.276 205.635 538.18C206.051 538.084 206.493 538.036 206.963 538.036C207.336 538.036 207.704 538.063 208.067 538.116C208.44 538.169 208.776 538.281 209.075 538.452C209.373 538.612 209.613 538.841 209.795 539.14C209.976 539.439 210.067 539.828 210.067 540.308V544.564C210.067 544.884 210.083 545.119 210.115 545.268C210.157 545.417 210.285 545.492 210.499 545.492C210.616 545.492 210.755 545.465 210.915 545.412V546.468ZM208.707 542.228C208.536 542.356 208.312 542.452 208.035 542.516C207.757 542.569 207.464 542.617 207.155 542.66C206.856 542.692 206.552 542.735 206.243 542.788C205.933 542.831 205.656 542.905 205.411 543.012C205.165 543.119 204.963 543.273 204.803 543.476C204.653 543.668 204.579 543.935 204.579 544.276C204.579 544.5 204.621 544.692 204.707 544.852C204.803 545.001 204.92 545.124 205.059 545.22C205.208 545.316 205.379 545.385 205.571 545.428C205.763 545.471 205.965 545.492 206.179 545.492C206.627 545.492 207.011 545.433 207.331 545.316C207.651 545.188 207.912 545.033 208.115 544.852C208.317 544.66 208.467 544.457 208.563 544.244C208.659 544.02 208.707 543.812 208.707 543.62V542.228ZM212.26 535.076H213.62V546.5H212.26V535.076Z" fill="black" fill-opacity="0.68"/>
<path d="M364.171 535.576H366.667L371.435 543.24H371.467V535.576H373.819V547H371.307L366.555 539.352H366.523V547H364.171V535.576ZM381.559 541.976C381.452 541.4 381.26 540.963 380.983 540.664C380.716 540.365 380.305 540.216 379.751 540.216C379.388 540.216 379.084 540.28 378.839 540.408C378.604 540.525 378.412 540.675 378.263 540.856C378.124 541.037 378.023 541.229 377.959 541.432C377.905 541.635 377.873 541.816 377.863 541.976H381.559ZM377.863 543.416C377.895 544.152 378.081 544.685 378.423 545.016C378.764 545.347 379.255 545.512 379.895 545.512C380.353 545.512 380.748 545.4 381.079 545.176C381.409 544.941 381.612 544.696 381.687 544.44H383.687C383.367 545.432 382.876 546.141 382.215 546.568C381.553 546.995 380.753 547.208 379.815 547.208C379.164 547.208 378.577 547.107 378.055 546.904C377.532 546.691 377.089 546.392 376.727 546.008C376.364 545.624 376.081 545.165 375.879 544.632C375.687 544.099 375.591 543.512 375.591 542.872C375.591 542.253 375.692 541.677 375.895 541.144C376.097 540.611 376.385 540.152 376.759 539.768C377.132 539.373 377.575 539.064 378.087 538.84C378.609 538.616 379.185 538.504 379.815 538.504C380.519 538.504 381.132 538.643 381.655 538.92C382.177 539.187 382.604 539.549 382.935 540.008C383.276 540.467 383.521 540.989 383.671 541.576C383.82 542.163 383.873 542.776 383.831 543.416H377.863ZM387.49 542.648L384.77 538.728H387.362L388.818 540.888L390.258 538.728H392.77L390.05 542.6L393.106 547H390.514L388.786 544.392L387.058 547H384.514L387.49 542.648ZM397.052 538.728H398.716V540.248H397.052V544.344C397.052 544.728 397.116 544.984 397.244 545.112C397.372 545.24 397.628 545.304 398.012 545.304C398.14 545.304 398.262 545.299 398.38 545.288C398.497 545.277 398.609 545.261 398.716 545.24V547C398.524 547.032 398.31 547.053 398.076 547.064C397.841 547.075 397.612 547.08 397.388 547.08C397.036 547.08 396.7 547.053 396.38 547C396.07 546.957 395.793 546.867 395.548 546.728C395.313 546.589 395.126 546.392 394.988 546.136C394.849 545.88 394.78 545.544 394.78 545.128V540.248H393.404V538.728H394.78V536.248H397.052V538.728Z" fill="black"/>
<g clip-path="url(#clip3_75104_14975)">
<path d="M413.314 546.938L419.375 541L413.314 535.062L411.582 536.758L415.912 541L411.582 545.24L413.314 546.938Z" fill="black"/>
</g>
<defs>
<clipPath id="clip0_75104_14975">
<rect width="20" height="20" fill="white" transform="translate(405 237)"/>
</clipPath>
<clipPath id="clip1_75104_14975">
<rect width="20" height="20" fill="white" transform="translate(405 335)"/>
</clipPath>
<clipPath id="clip2_75104_14975">
<rect width="20" height="20" fill="white" transform="translate(405 433)"/>
</clipPath>
<clipPath id="clip3_75104_14975">
<rect width="20" height="20" fill="white" transform="translate(405 531)"/>
</clipPath>
</defs>
</svg>
