<svg width="600" height="242" viewBox="0 0 600 242" fill="none" xmlns="http://www.w3.org/2000/svg">
<rect width="600" height="242" fill="black" fill-opacity="0.04"/>
<path d="M101.248 69.076H108.752V70.356H102.768V73.988H108.016V75.268H102.768V80.5H101.248V69.076ZM117.54 80.468C117.305 80.6067 116.98 80.676 116.564 80.676C116.212 80.676 115.929 80.58 115.716 80.388C115.513 80.1853 115.412 79.86 115.412 79.412C115.038 79.86 114.601 80.1853 114.1 80.388C113.609 80.58 113.076 80.676 112.5 80.676C112.126 80.676 111.769 80.6333 111.428 80.548C111.097 80.4627 110.809 80.3293 110.564 80.148C110.318 79.9667 110.121 79.732 109.972 79.444C109.833 79.1453 109.764 78.788 109.764 78.372C109.764 77.9027 109.844 77.5187 110.004 77.22C110.164 76.9213 110.372 76.6813 110.628 76.5C110.894 76.308 111.193 76.164 111.524 76.068C111.865 75.972 112.212 75.892 112.564 75.828C112.937 75.7533 113.289 75.7 113.62 75.668C113.961 75.6253 114.26 75.572 114.516 75.508C114.772 75.4333 114.974 75.332 115.124 75.204C115.273 75.0653 115.348 74.868 115.348 74.612C115.348 74.3133 115.289 74.0733 115.172 73.892C115.065 73.7107 114.921 73.572 114.74 73.476C114.569 73.38 114.372 73.316 114.148 73.284C113.934 73.252 113.721 73.236 113.508 73.236C112.932 73.236 112.452 73.348 112.068 73.572C111.684 73.7853 111.476 74.196 111.444 74.804H110.084C110.105 74.292 110.212 73.86 110.404 73.508C110.596 73.156 110.852 72.8733 111.172 72.66C111.492 72.436 111.854 72.276 112.26 72.18C112.676 72.084 113.118 72.036 113.588 72.036C113.961 72.036 114.329 72.0627 114.692 72.116C115.065 72.1693 115.401 72.2813 115.7 72.452C115.998 72.612 116.238 72.8413 116.42 73.14C116.601 73.4387 116.692 73.828 116.692 74.308V78.564C116.692 78.884 116.708 79.1187 116.74 79.268C116.782 79.4173 116.91 79.492 117.124 79.492C117.241 79.492 117.38 79.4653 117.54 79.412V80.468ZM115.332 76.228C115.161 76.356 114.937 76.452 114.66 76.516C114.382 76.5693 114.089 76.6173 113.78 76.66C113.481 76.692 113.177 76.7347 112.868 76.788C112.558 76.8307 112.281 76.9053 112.036 77.012C111.79 77.1187 111.588 77.2733 111.428 77.476C111.278 77.668 111.204 77.9347 111.204 78.276C111.204 78.5 111.246 78.692 111.332 78.852C111.428 79.0013 111.545 79.124 111.684 79.22C111.833 79.316 112.004 79.3853 112.196 79.428C112.388 79.4707 112.59 79.492 112.804 79.492C113.252 79.492 113.636 79.4333 113.956 79.316C114.276 79.188 114.537 79.0333 114.74 78.852C114.942 78.66 115.092 78.4573 115.188 78.244C115.284 78.02 115.332 77.812 115.332 77.62V76.228ZM118.885 69.076H120.245V80.5H118.885V69.076ZM123.184 77.892C123.195 78.1907 123.264 78.4467 123.392 78.66C123.52 78.8627 123.685 79.028 123.888 79.156C124.101 79.2733 124.336 79.3587 124.592 79.412C124.859 79.4653 125.131 79.492 125.408 79.492C125.621 79.492 125.845 79.476 126.08 79.444C126.315 79.412 126.528 79.3533 126.72 79.268C126.923 79.1827 127.088 79.06 127.216 78.9C127.344 78.7293 127.408 78.516 127.408 78.26C127.408 77.908 127.275 77.6413 127.008 77.46C126.741 77.2787 126.405 77.1347 126 77.028C125.605 76.9107 125.173 76.8093 124.704 76.724C124.235 76.628 123.797 76.5 123.392 76.34C122.997 76.1693 122.667 75.9347 122.4 75.636C122.133 75.3373 122 74.9213 122 74.388C122 73.972 122.091 73.6147 122.272 73.316C122.464 73.0173 122.704 72.7773 122.992 72.596C123.291 72.404 123.621 72.2653 123.984 72.18C124.357 72.084 124.725 72.036 125.088 72.036C125.557 72.036 125.989 72.0787 126.384 72.164C126.779 72.2387 127.125 72.3773 127.424 72.58C127.733 72.772 127.979 73.0387 128.16 73.38C128.341 73.7107 128.448 74.1267 128.48 74.628H127.12C127.099 74.3613 127.029 74.1427 126.912 73.972C126.795 73.7907 126.645 73.6467 126.464 73.54C126.283 73.4333 126.08 73.3587 125.856 73.316C125.643 73.2627 125.424 73.236 125.2 73.236C124.997 73.236 124.789 73.252 124.576 73.284C124.373 73.316 124.187 73.3747 124.016 73.46C123.845 73.5347 123.707 73.6413 123.6 73.78C123.493 73.908 123.44 74.0787 123.44 74.292C123.44 74.5267 123.52 74.724 123.68 74.884C123.851 75.0333 124.064 75.1613 124.32 75.268C124.576 75.364 124.864 75.4493 125.184 75.524C125.504 75.588 125.824 75.6573 126.144 75.732C126.485 75.8067 126.816 75.8973 127.136 76.004C127.467 76.1107 127.755 76.2547 128 76.436C128.256 76.6067 128.459 76.8253 128.608 77.092C128.768 77.3587 128.848 77.6893 128.848 78.084C128.848 78.5853 128.741 79.0013 128.528 79.332C128.325 79.6627 128.053 79.9293 127.712 80.132C127.381 80.3347 127.003 80.4733 126.576 80.548C126.16 80.6333 125.744 80.676 125.328 80.676C124.869 80.676 124.432 80.628 124.016 80.532C123.6 80.436 123.232 80.2813 122.912 80.068C122.592 79.844 122.336 79.556 122.144 79.204C121.952 78.8413 121.845 78.404 121.824 77.892H123.184ZM136.096 75.572C136.075 75.252 136 74.948 135.872 74.66C135.755 74.372 135.589 74.1267 135.376 73.924C135.173 73.7107 134.928 73.5453 134.64 73.428C134.363 73.3 134.053 73.236 133.712 73.236C133.36 73.236 133.04 73.3 132.752 73.428C132.475 73.5453 132.235 73.7107 132.032 73.924C131.829 74.1373 131.669 74.388 131.552 74.676C131.435 74.9533 131.365 75.252 131.344 75.572H136.096ZM137.408 77.876C137.227 78.804 136.827 79.5027 136.208 79.972C135.589 80.4413 134.811 80.676 133.872 80.676C133.211 80.676 132.635 80.5693 132.144 80.356C131.664 80.1427 131.259 79.844 130.928 79.46C130.597 79.076 130.347 78.6173 130.176 78.084C130.016 77.5507 129.925 76.9693 129.904 76.34C129.904 75.7107 130 75.1347 130.192 74.612C130.384 74.0893 130.651 73.636 130.992 73.252C131.344 72.868 131.755 72.5693 132.224 72.356C132.704 72.1427 133.227 72.036 133.792 72.036C134.528 72.036 135.136 72.1907 135.616 72.5C136.107 72.7987 136.496 73.1827 136.784 73.652C137.083 74.1213 137.285 74.6333 137.392 75.188C137.509 75.7427 137.557 76.2707 137.536 76.772H131.344C131.333 77.1347 131.376 77.4813 131.472 77.812C131.568 78.132 131.723 78.42 131.936 78.676C132.149 78.9213 132.421 79.1187 132.752 79.268C133.083 79.4173 133.472 79.492 133.92 79.492C134.496 79.492 134.965 79.3587 135.328 79.092C135.701 78.8253 135.947 78.42 136.064 77.876H137.408Z" fill="black" fill-opacity="0.68"/>
<g clip-path="url(#clip0_57321_235905)">
<mask id="path-2-inside-1_57321_235905" fill="white">
<path d="M292 75C292 69.4772 296.477 65 302 65C307.523 65 312 69.4772 312 75C312 80.5228 307.523 85 302 85C296.477 85 292 80.5228 292 75Z"/>
</mask>
<g clip-path="url(#clip1_57321_235905)">
<g clip-path="url(#clip2_57321_235905)">
<path d="M306.062 75C306.062 77.2437 304.244 79.0625 302 79.0625C299.756 79.0625 297.938 77.2437 297.938 75C297.938 72.7563 299.756 70.9375 302 70.9375C304.244 70.9375 306.062 72.7563 306.062 75Z" fill="#F15E00"/>
</g>
</g>
</g>
<path d="M302 85V83C297.582 83 294 79.4183 294 75H292H290C290 81.6274 295.373 87 302 87V85ZM312 75H310C310 79.4183 306.418 83 302 83V85V87C308.627 87 314 81.6274 314 75H312ZM302 65V67C306.418 67 310 70.5817 310 75H312H314C314 68.3726 308.627 63 302 63V65ZM302 65V63C295.373 63 290 68.3726 290 75H292H294C294 70.5817 297.582 67 302 67V65Z" fill="#F15E00" mask="url(#path-2-inside-1_57321_235905)"/>
<path d="M325.248 69.576H326.768V79.72H332.816V81H325.248V69.576ZM341.443 80.968C341.208 81.1067 340.883 81.176 340.467 81.176C340.115 81.176 339.832 81.08 339.619 80.888C339.416 80.6853 339.315 80.36 339.315 79.912C338.941 80.36 338.504 80.6853 338.003 80.888C337.512 81.08 336.979 81.176 336.403 81.176C336.029 81.176 335.672 81.1333 335.331 81.048C335 80.9627 334.712 80.8293 334.467 80.648C334.221 80.4667 334.024 80.232 333.875 79.944C333.736 79.6453 333.667 79.288 333.667 78.872C333.667 78.4027 333.747 78.0187 333.907 77.72C334.067 77.4213 334.275 77.1813 334.531 77C334.797 76.808 335.096 76.664 335.427 76.568C335.768 76.472 336.115 76.392 336.467 76.328C336.84 76.2533 337.192 76.2 337.523 76.168C337.864 76.1253 338.163 76.072 338.419 76.008C338.675 75.9333 338.877 75.832 339.027 75.704C339.176 75.5653 339.251 75.368 339.251 75.112C339.251 74.8133 339.192 74.5733 339.075 74.392C338.968 74.2107 338.824 74.072 338.643 73.976C338.472 73.88 338.275 73.816 338.051 73.784C337.837 73.752 337.624 73.736 337.411 73.736C336.835 73.736 336.355 73.848 335.971 74.072C335.587 74.2853 335.379 74.696 335.347 75.304H333.987C334.008 74.792 334.115 74.36 334.307 74.008C334.499 73.656 334.755 73.3733 335.075 73.16C335.395 72.936 335.757 72.776 336.163 72.68C336.579 72.584 337.021 72.536 337.491 72.536C337.864 72.536 338.232 72.5627 338.595 72.616C338.968 72.6693 339.304 72.7813 339.603 72.952C339.901 73.112 340.141 73.3413 340.323 73.64C340.504 73.9387 340.595 74.328 340.595 74.808V79.064C340.595 79.384 340.611 79.6187 340.643 79.768C340.685 79.9173 340.813 79.992 341.027 79.992C341.144 79.992 341.283 79.9653 341.443 79.912V80.968ZM339.235 76.728C339.064 76.856 338.84 76.952 338.563 77.016C338.285 77.0693 337.992 77.1173 337.683 77.16C337.384 77.192 337.08 77.2347 336.771 77.288C336.461 77.3307 336.184 77.4053 335.939 77.512C335.693 77.6187 335.491 77.7733 335.331 77.976C335.181 78.168 335.107 78.4347 335.107 78.776C335.107 79 335.149 79.192 335.235 79.352C335.331 79.5013 335.448 79.624 335.587 79.72C335.736 79.816 335.907 79.8853 336.099 79.928C336.291 79.9707 336.493 79.992 336.707 79.992C337.155 79.992 337.539 79.9333 337.859 79.816C338.179 79.688 338.44 79.5333 338.643 79.352C338.845 79.16 338.995 78.9573 339.091 78.744C339.187 78.52 339.235 78.312 339.235 78.12V76.728ZM342.956 69.576H344.316V73.848H344.348C344.572 73.3893 344.924 73.0587 345.404 72.856C345.884 72.6427 346.412 72.536 346.988 72.536C347.628 72.536 348.183 72.6533 348.652 72.888C349.132 73.1227 349.527 73.4427 349.836 73.848C350.156 74.2427 350.396 74.7013 350.556 75.224C350.716 75.7467 350.796 76.3013 350.796 76.888C350.796 77.4747 350.716 78.0293 350.556 78.552C350.407 79.0747 350.172 79.5333 349.852 79.928C349.543 80.312 349.148 80.616 348.668 80.84C348.199 81.064 347.65 81.176 347.02 81.176C346.818 81.176 346.588 81.1547 346.332 81.112C346.087 81.0693 345.842 81 345.596 80.904C345.351 80.808 345.116 80.68 344.892 80.52C344.679 80.3493 344.498 80.1413 344.348 79.896H344.316V81H342.956V69.576ZM349.356 76.792C349.356 76.408 349.303 76.0347 349.196 75.672C349.1 75.2987 348.946 74.968 348.732 74.68C348.53 74.392 348.263 74.1627 347.932 73.992C347.612 73.8213 347.234 73.736 346.796 73.736C346.338 73.736 345.948 73.8267 345.628 74.008C345.308 74.1893 345.047 74.4293 344.844 74.728C344.642 75.016 344.492 75.3467 344.396 75.72C344.311 76.0933 344.268 76.472 344.268 76.856C344.268 77.2613 344.316 77.656 344.412 78.04C344.508 78.4133 344.658 78.744 344.86 79.032C345.074 79.32 345.346 79.5547 345.676 79.736C346.007 79.9067 346.407 79.992 346.876 79.992C347.346 79.992 347.735 79.9013 348.044 79.72C348.364 79.5387 348.62 79.2987 348.812 79C349.004 78.7013 349.143 78.36 349.228 77.976C349.314 77.592 349.356 77.1973 349.356 76.792ZM358.337 76.072C358.315 75.752 358.241 75.448 358.113 75.16C357.995 74.872 357.83 74.6267 357.617 74.424C357.414 74.2107 357.169 74.0453 356.881 73.928C356.603 73.8 356.294 73.736 355.953 73.736C355.601 73.736 355.281 73.8 354.993 73.928C354.715 74.0453 354.475 74.2107 354.273 74.424C354.07 74.6373 353.91 74.888 353.793 75.176C353.675 75.4533 353.606 75.752 353.585 76.072H358.337ZM359.649 78.376C359.467 79.304 359.067 80.0027 358.449 80.472C357.83 80.9413 357.051 81.176 356.113 81.176C355.451 81.176 354.875 81.0693 354.385 80.856C353.905 80.6427 353.499 80.344 353.169 79.96C352.838 79.576 352.587 79.1173 352.417 78.584C352.257 78.0507 352.166 77.4693 352.145 76.84C352.145 76.2107 352.241 75.6347 352.433 75.112C352.625 74.5893 352.891 74.136 353.233 73.752C353.585 73.368 353.995 73.0693 354.465 72.856C354.945 72.6427 355.467 72.536 356.033 72.536C356.769 72.536 357.377 72.6907 357.857 73C358.347 73.2987 358.737 73.6827 359.025 74.152C359.323 74.6213 359.526 75.1333 359.633 75.688C359.75 76.2427 359.798 76.7707 359.777 77.272H353.585C353.574 77.6347 353.617 77.9813 353.713 78.312C353.809 78.632 353.963 78.92 354.177 79.176C354.39 79.4213 354.662 79.6187 354.993 79.768C355.323 79.9173 355.713 79.992 356.161 79.992C356.737 79.992 357.206 79.8587 357.569 79.592C357.942 79.3253 358.187 78.92 358.305 78.376H359.649ZM361.466 69.576H362.826V81H361.466V69.576Z" fill="black"/>
<path d="M103.84 162.356H100.032V161.076H109.168V162.356H105.36V172.5H103.84V162.356ZM108.695 164.228H109.975V165.972H110.007C110.337 165.3 110.743 164.804 111.223 164.484C111.703 164.164 112.311 164.015 113.047 164.036V165.476C112.503 165.476 112.039 165.551 111.655 165.7C111.271 165.849 110.961 166.068 110.727 166.356C110.492 166.644 110.321 166.996 110.215 167.412C110.108 167.817 110.055 168.287 110.055 168.82V172.5H108.695V164.228ZM120.919 172.5H119.639V171.188H119.607C119.319 171.7 118.951 172.079 118.503 172.324C118.055 172.559 117.527 172.676 116.919 172.676C116.375 172.676 115.922 172.607 115.559 172.468C115.196 172.319 114.903 172.111 114.679 171.844C114.455 171.577 114.295 171.263 114.199 170.9C114.114 170.527 114.071 170.116 114.071 169.668V164.228H115.431V169.828C115.431 170.34 115.58 170.745 115.879 171.044C116.178 171.343 116.588 171.492 117.111 171.492C117.527 171.492 117.884 171.428 118.183 171.3C118.492 171.172 118.748 170.991 118.951 170.756C119.154 170.521 119.303 170.249 119.399 169.94C119.506 169.62 119.559 169.273 119.559 168.9V164.228H120.919V172.5ZM128.706 167.572C128.684 167.252 128.61 166.948 128.482 166.66C128.364 166.372 128.199 166.127 127.986 165.924C127.783 165.711 127.538 165.545 127.25 165.428C126.972 165.3 126.663 165.236 126.322 165.236C125.97 165.236 125.65 165.3 125.362 165.428C125.084 165.545 124.844 165.711 124.642 165.924C124.439 166.137 124.279 166.388 124.162 166.676C124.044 166.953 123.975 167.252 123.954 167.572H128.706ZM130.017 169.876C129.836 170.804 129.436 171.503 128.818 171.972C128.199 172.441 127.42 172.676 126.482 172.676C125.82 172.676 125.244 172.569 124.754 172.356C124.274 172.143 123.868 171.844 123.538 171.46C123.207 171.076 122.956 170.617 122.786 170.084C122.626 169.551 122.535 168.969 122.514 168.34C122.514 167.711 122.61 167.135 122.802 166.612C122.994 166.089 123.26 165.636 123.602 165.252C123.954 164.868 124.364 164.569 124.834 164.356C125.314 164.143 125.836 164.036 126.402 164.036C127.138 164.036 127.746 164.191 128.226 164.5C128.716 164.799 129.106 165.183 129.394 165.652C129.692 166.121 129.895 166.633 130.002 167.188C130.119 167.743 130.167 168.271 130.146 168.772H123.954C123.943 169.135 123.986 169.481 124.082 169.812C124.178 170.132 124.332 170.42 124.546 170.676C124.759 170.921 125.031 171.119 125.362 171.268C125.692 171.417 126.082 171.492 126.53 171.492C127.106 171.492 127.575 171.359 127.938 171.092C128.311 170.825 128.556 170.42 128.674 169.876H130.017Z" fill="black" fill-opacity="0.68"/>
<mask id="path-8-inside-2_57321_235905" fill="white">
<path d="M276 141H500V193H276V141Z"/>
</mask>
<path d="M276 141V140H275V141H276ZM500 141H501V140H500V141ZM500 193V194H501V193H500ZM276 193H275V194H276V193ZM276 141V142H500V141V140H276V141ZM500 141H499V193H500H501V141H500ZM500 193V192H276V193V194H500V193ZM276 193H277V141H276H275V193H276Z" fill="#F15E00" mask="url(#path-8-inside-2_57321_235905)"/>
<g clip-path="url(#clip3_57321_235905)">
<mask id="path-10-inside-3_57321_235905" fill="white">
<path d="M292 167C292 161.477 296.477 157 302 157C307.523 157 312 161.477 312 167C312 172.523 307.523 177 302 177C296.477 177 292 172.523 292 167Z"/>
</mask>
<g clip-path="url(#clip4_57321_235905)">
<g clip-path="url(#clip5_57321_235905)">
<path d="M306.062 167C306.062 169.244 304.244 171.062 302 171.062C299.756 171.062 297.938 169.244 297.938 167C297.938 164.756 299.756 162.938 302 162.938C304.244 162.938 306.062 164.756 306.062 167Z" fill="#F15E00"/>
</g>
</g>
</g>
<path d="M302 177V175C297.582 175 294 171.418 294 167H292H290C290 173.627 295.373 179 302 179V177ZM312 167H310C310 171.418 306.418 175 302 175V177V179C308.627 179 314 173.627 314 167H312ZM302 157V159C306.418 159 310 162.582 310 167H312H314C314 160.373 308.627 155 302 155V157ZM302 157V155C295.373 155 290 160.373 290 167H292H294C294 162.582 297.582 159 302 159V157Z" fill="#F15E00" mask="url(#path-10-inside-3_57321_235905)"/>
<path d="M325.248 161.576H326.768V171.72H332.816V173H325.248V161.576ZM341.443 172.968C341.208 173.107 340.883 173.176 340.467 173.176C340.115 173.176 339.832 173.08 339.619 172.888C339.416 172.685 339.315 172.36 339.315 171.912C338.941 172.36 338.504 172.685 338.003 172.888C337.512 173.08 336.979 173.176 336.403 173.176C336.029 173.176 335.672 173.133 335.331 173.048C335 172.963 334.712 172.829 334.467 172.648C334.221 172.467 334.024 172.232 333.875 171.944C333.736 171.645 333.667 171.288 333.667 170.872C333.667 170.403 333.747 170.019 333.907 169.72C334.067 169.421 334.275 169.181 334.531 169C334.797 168.808 335.096 168.664 335.427 168.568C335.768 168.472 336.115 168.392 336.467 168.328C336.84 168.253 337.192 168.2 337.523 168.168C337.864 168.125 338.163 168.072 338.419 168.008C338.675 167.933 338.877 167.832 339.027 167.704C339.176 167.565 339.251 167.368 339.251 167.112C339.251 166.813 339.192 166.573 339.075 166.392C338.968 166.211 338.824 166.072 338.643 165.976C338.472 165.88 338.275 165.816 338.051 165.784C337.837 165.752 337.624 165.736 337.411 165.736C336.835 165.736 336.355 165.848 335.971 166.072C335.587 166.285 335.379 166.696 335.347 167.304H333.987C334.008 166.792 334.115 166.36 334.307 166.008C334.499 165.656 334.755 165.373 335.075 165.16C335.395 164.936 335.757 164.776 336.163 164.68C336.579 164.584 337.021 164.536 337.491 164.536C337.864 164.536 338.232 164.563 338.595 164.616C338.968 164.669 339.304 164.781 339.603 164.952C339.901 165.112 340.141 165.341 340.323 165.64C340.504 165.939 340.595 166.328 340.595 166.808V171.064C340.595 171.384 340.611 171.619 340.643 171.768C340.685 171.917 340.813 171.992 341.027 171.992C341.144 171.992 341.283 171.965 341.443 171.912V172.968ZM339.235 168.728C339.064 168.856 338.84 168.952 338.563 169.016C338.285 169.069 337.992 169.117 337.683 169.16C337.384 169.192 337.08 169.235 336.771 169.288C336.461 169.331 336.184 169.405 335.939 169.512C335.693 169.619 335.491 169.773 335.331 169.976C335.181 170.168 335.107 170.435 335.107 170.776C335.107 171 335.149 171.192 335.235 171.352C335.331 171.501 335.448 171.624 335.587 171.72C335.736 171.816 335.907 171.885 336.099 171.928C336.291 171.971 336.493 171.992 336.707 171.992C337.155 171.992 337.539 171.933 337.859 171.816C338.179 171.688 338.44 171.533 338.643 171.352C338.845 171.16 338.995 170.957 339.091 170.744C339.187 170.52 339.235 170.312 339.235 170.12V168.728ZM342.956 161.576H344.316V165.848H344.348C344.572 165.389 344.924 165.059 345.404 164.856C345.884 164.643 346.412 164.536 346.988 164.536C347.628 164.536 348.183 164.653 348.652 164.888C349.132 165.123 349.527 165.443 349.836 165.848C350.156 166.243 350.396 166.701 350.556 167.224C350.716 167.747 350.796 168.301 350.796 168.888C350.796 169.475 350.716 170.029 350.556 170.552C350.407 171.075 350.172 171.533 349.852 171.928C349.543 172.312 349.148 172.616 348.668 172.84C348.199 173.064 347.65 173.176 347.02 173.176C346.818 173.176 346.588 173.155 346.332 173.112C346.087 173.069 345.842 173 345.596 172.904C345.351 172.808 345.116 172.68 344.892 172.52C344.679 172.349 344.498 172.141 344.348 171.896H344.316V173H342.956V161.576ZM349.356 168.792C349.356 168.408 349.303 168.035 349.196 167.672C349.1 167.299 348.946 166.968 348.732 166.68C348.53 166.392 348.263 166.163 347.932 165.992C347.612 165.821 347.234 165.736 346.796 165.736C346.338 165.736 345.948 165.827 345.628 166.008C345.308 166.189 345.047 166.429 344.844 166.728C344.642 167.016 344.492 167.347 344.396 167.72C344.311 168.093 344.268 168.472 344.268 168.856C344.268 169.261 344.316 169.656 344.412 170.04C344.508 170.413 344.658 170.744 344.86 171.032C345.074 171.32 345.346 171.555 345.676 171.736C346.007 171.907 346.407 171.992 346.876 171.992C347.346 171.992 347.735 171.901 348.044 171.72C348.364 171.539 348.62 171.299 348.812 171C349.004 170.701 349.143 170.36 349.228 169.976C349.314 169.592 349.356 169.197 349.356 168.792ZM358.337 168.072C358.315 167.752 358.241 167.448 358.113 167.16C357.995 166.872 357.83 166.627 357.617 166.424C357.414 166.211 357.169 166.045 356.881 165.928C356.603 165.8 356.294 165.736 355.953 165.736C355.601 165.736 355.281 165.8 354.993 165.928C354.715 166.045 354.475 166.211 354.273 166.424C354.07 166.637 353.91 166.888 353.793 167.176C353.675 167.453 353.606 167.752 353.585 168.072H358.337ZM359.649 170.376C359.467 171.304 359.067 172.003 358.449 172.472C357.83 172.941 357.051 173.176 356.113 173.176C355.451 173.176 354.875 173.069 354.385 172.856C353.905 172.643 353.499 172.344 353.169 171.96C352.838 171.576 352.587 171.117 352.417 170.584C352.257 170.051 352.166 169.469 352.145 168.84C352.145 168.211 352.241 167.635 352.433 167.112C352.625 166.589 352.891 166.136 353.233 165.752C353.585 165.368 353.995 165.069 354.465 164.856C354.945 164.643 355.467 164.536 356.033 164.536C356.769 164.536 357.377 164.691 357.857 165C358.347 165.299 358.737 165.683 359.025 166.152C359.323 166.621 359.526 167.133 359.633 167.688C359.75 168.243 359.798 168.771 359.777 169.272H353.585C353.574 169.635 353.617 169.981 353.713 170.312C353.809 170.632 353.963 170.92 354.177 171.176C354.39 171.421 354.662 171.619 354.993 171.768C355.323 171.917 355.713 171.992 356.161 171.992C356.737 171.992 357.206 171.859 357.569 171.592C357.942 171.325 358.187 170.92 358.305 170.376H359.649ZM361.466 161.576H362.826V173H361.466V161.576Z" fill="black"/>
<defs>
<clipPath id="clip0_57321_235905">
<path d="M292 75C292 69.4772 296.477 65 302 65C307.523 65 312 69.4772 312 75C312 80.5228 307.523 85 302 85C296.477 85 292 80.5228 292 75Z" fill="white"/>
</clipPath>
<clipPath id="clip1_57321_235905">
<rect width="20" height="20" fill="white" transform="translate(292 65)"/>
</clipPath>
<clipPath id="clip2_57321_235905">
<rect width="20" height="20" fill="white" transform="translate(292 65)"/>
</clipPath>
<clipPath id="clip3_57321_235905">
<path d="M292 167C292 161.477 296.477 157 302 157C307.523 157 312 161.477 312 167C312 172.523 307.523 177 302 177C296.477 177 292 172.523 292 167Z" fill="white"/>
</clipPath>
<clipPath id="clip4_57321_235905">
<rect width="20" height="20" fill="white" transform="translate(292 157)"/>
</clipPath>
<clipPath id="clip5_57321_235905">
<rect width="20" height="20" fill="white" transform="translate(292 157)"/>
</clipPath>
</defs>
</svg>
