<svg width="600" height="994" viewBox="0 0 600 994" fill="none" xmlns="http://www.w3.org/2000/svg">
<rect width="600" height="994" fill="black" fill-opacity="0.04"/>
<path d="M177.748 221.076H185.636V222.356H179.268V225.988H185.204V227.268H179.268V231.22H185.684V232.5H177.748V221.076ZM187.305 224.228H188.585V225.54H188.617C189.183 224.537 190.079 224.036 191.305 224.036C191.849 224.036 192.303 224.111 192.665 224.26C193.028 224.409 193.321 224.617 193.545 224.884C193.769 225.151 193.924 225.471 194.009 225.844C194.105 226.207 194.153 226.612 194.153 227.06V232.5H192.793V226.9C192.793 226.388 192.644 225.983 192.345 225.684C192.047 225.385 191.636 225.236 191.113 225.236C190.697 225.236 190.335 225.3 190.025 225.428C189.727 225.556 189.476 225.737 189.273 225.972C189.071 226.207 188.916 226.484 188.809 226.804C188.713 227.113 188.665 227.455 188.665 227.828V232.5H187.305V224.228ZM203.524 232.468C203.289 232.607 202.964 232.676 202.548 232.676C202.196 232.676 201.913 232.58 201.7 232.388C201.497 232.185 201.396 231.86 201.396 231.412C201.023 231.86 200.585 232.185 200.084 232.388C199.593 232.58 199.06 232.676 198.484 232.676C198.111 232.676 197.753 232.633 197.412 232.548C197.081 232.463 196.793 232.329 196.548 232.148C196.303 231.967 196.105 231.732 195.956 231.444C195.817 231.145 195.748 230.788 195.748 230.372C195.748 229.903 195.828 229.519 195.988 229.22C196.148 228.921 196.356 228.681 196.612 228.5C196.879 228.308 197.177 228.164 197.508 228.068C197.849 227.972 198.196 227.892 198.548 227.828C198.921 227.753 199.273 227.7 199.604 227.668C199.945 227.625 200.244 227.572 200.5 227.508C200.756 227.433 200.959 227.332 201.108 227.204C201.257 227.065 201.332 226.868 201.332 226.612C201.332 226.313 201.273 226.073 201.156 225.892C201.049 225.711 200.905 225.572 200.724 225.476C200.553 225.38 200.356 225.316 200.132 225.284C199.919 225.252 199.705 225.236 199.492 225.236C198.916 225.236 198.436 225.348 198.052 225.572C197.668 225.785 197.46 226.196 197.428 226.804H196.068C196.089 226.292 196.196 225.86 196.388 225.508C196.58 225.156 196.836 224.873 197.156 224.66C197.476 224.436 197.839 224.276 198.244 224.18C198.66 224.084 199.103 224.036 199.572 224.036C199.945 224.036 200.313 224.063 200.676 224.116C201.049 224.169 201.385 224.281 201.684 224.452C201.983 224.612 202.223 224.841 202.404 225.14C202.585 225.439 202.676 225.828 202.676 226.308V230.564C202.676 230.884 202.692 231.119 202.724 231.268C202.767 231.417 202.895 231.492 203.108 231.492C203.225 231.492 203.364 231.465 203.524 231.412V232.468ZM201.316 228.228C201.145 228.356 200.921 228.452 200.644 228.516C200.367 228.569 200.073 228.617 199.764 228.66C199.465 228.692 199.161 228.735 198.852 228.788C198.543 228.831 198.265 228.905 198.02 229.012C197.775 229.119 197.572 229.273 197.412 229.476C197.263 229.668 197.188 229.935 197.188 230.276C197.188 230.5 197.231 230.692 197.316 230.852C197.412 231.001 197.529 231.124 197.668 231.22C197.817 231.316 197.988 231.385 198.18 231.428C198.372 231.471 198.575 231.492 198.788 231.492C199.236 231.492 199.62 231.433 199.94 231.316C200.26 231.188 200.521 231.033 200.724 230.852C200.927 230.66 201.076 230.457 201.172 230.244C201.268 230.02 201.316 229.812 201.316 229.62V228.228ZM204.838 221.076H206.198V225.348H206.23C206.454 224.889 206.806 224.559 207.286 224.356C207.766 224.143 208.294 224.036 208.87 224.036C209.51 224.036 210.064 224.153 210.534 224.388C211.014 224.623 211.408 224.943 211.718 225.348C212.038 225.743 212.278 226.201 212.438 226.724C212.598 227.247 212.678 227.801 212.678 228.388C212.678 228.975 212.598 229.529 212.438 230.052C212.288 230.575 212.054 231.033 211.734 231.428C211.424 231.812 211.03 232.116 210.55 232.34C210.08 232.564 209.531 232.676 208.902 232.676C208.699 232.676 208.47 232.655 208.214 232.612C207.968 232.569 207.723 232.5 207.478 232.404C207.232 232.308 206.998 232.18 206.774 232.02C206.56 231.849 206.379 231.641 206.23 231.396H206.198V232.5H204.838V221.076ZM211.238 228.292C211.238 227.908 211.184 227.535 211.078 227.172C210.982 226.799 210.827 226.468 210.614 226.18C210.411 225.892 210.144 225.663 209.814 225.492C209.494 225.321 209.115 225.236 208.678 225.236C208.219 225.236 207.83 225.327 207.51 225.508C207.19 225.689 206.928 225.929 206.726 226.228C206.523 226.516 206.374 226.847 206.278 227.22C206.192 227.593 206.15 227.972 206.15 228.356C206.15 228.761 206.198 229.156 206.294 229.54C206.39 229.913 206.539 230.244 206.742 230.532C206.955 230.82 207.227 231.055 207.558 231.236C207.888 231.407 208.288 231.492 208.758 231.492C209.227 231.492 209.616 231.401 209.926 231.22C210.246 231.039 210.502 230.799 210.694 230.5C210.886 230.201 211.024 229.86 211.11 229.476C211.195 229.092 211.238 228.697 211.238 228.292ZM214.354 221.076H215.714V232.5H214.354V221.076ZM223.565 227.572C223.544 227.252 223.469 226.948 223.341 226.66C223.224 226.372 223.058 226.127 222.845 225.924C222.642 225.711 222.397 225.545 222.109 225.428C221.832 225.3 221.522 225.236 221.181 225.236C220.829 225.236 220.509 225.3 220.221 225.428C219.944 225.545 219.704 225.711 219.501 225.924C219.298 226.137 219.138 226.388 219.021 226.676C218.904 226.953 218.834 227.252 218.813 227.572H223.565ZM224.877 229.876C224.696 230.804 224.296 231.503 223.677 231.972C223.058 232.441 222.28 232.676 221.341 232.676C220.68 232.676 220.104 232.569 219.613 232.356C219.133 232.143 218.728 231.844 218.397 231.46C218.066 231.076 217.816 230.617 217.645 230.084C217.485 229.551 217.394 228.969 217.373 228.34C217.373 227.711 217.469 227.135 217.661 226.612C217.853 226.089 218.12 225.636 218.461 225.252C218.813 224.868 219.224 224.569 219.693 224.356C220.173 224.143 220.696 224.036 221.261 224.036C221.997 224.036 222.605 224.191 223.085 224.5C223.576 224.799 223.965 225.183 224.253 225.652C224.552 226.121 224.754 226.633 224.861 227.188C224.978 227.743 225.026 228.271 225.005 228.772H218.813C218.802 229.135 218.845 229.481 218.941 229.812C219.037 230.132 219.192 230.42 219.405 230.676C219.618 230.921 219.89 231.119 220.221 231.268C220.552 231.417 220.941 231.492 221.389 231.492C221.965 231.492 222.434 231.359 222.797 231.092C223.17 230.825 223.416 230.42 223.533 229.876H224.877ZM227.407 228.436C227.407 228.82 227.455 229.199 227.551 229.572C227.657 229.935 227.812 230.26 228.015 230.548C228.228 230.836 228.495 231.065 228.815 231.236C229.145 231.407 229.529 231.492 229.967 231.492C230.425 231.492 230.815 231.401 231.135 231.22C231.455 231.039 231.716 230.804 231.919 230.516C232.121 230.217 232.265 229.881 232.351 229.508C232.447 229.135 232.495 228.756 232.495 228.372C232.495 227.967 232.447 227.577 232.351 227.204C232.255 226.82 232.1 226.484 231.887 226.196C231.684 225.908 231.417 225.679 231.087 225.508C230.756 225.327 230.356 225.236 229.887 225.236C229.428 225.236 229.039 225.327 228.719 225.508C228.399 225.689 228.143 225.929 227.951 226.228C227.759 226.527 227.62 226.868 227.535 227.252C227.449 227.636 227.407 228.031 227.407 228.436ZM233.807 232.5H232.447V231.38H232.415C232.191 231.839 231.839 232.169 231.359 232.372C230.879 232.575 230.351 232.676 229.775 232.676C229.135 232.676 228.575 232.559 228.095 232.324C227.625 232.089 227.231 231.775 226.911 231.38C226.601 230.985 226.367 230.527 226.207 230.004C226.047 229.481 225.967 228.927 225.967 228.34C225.967 227.753 226.041 227.199 226.191 226.676C226.351 226.153 226.585 225.7 226.895 225.316C227.215 224.921 227.609 224.612 228.079 224.388C228.559 224.153 229.113 224.036 229.743 224.036C229.956 224.036 230.185 224.057 230.431 224.1C230.676 224.143 230.921 224.217 231.167 224.324C231.412 224.42 231.641 224.553 231.855 224.724C232.079 224.884 232.265 225.087 232.415 225.332H232.447V221.076H233.807V232.5Z" fill="black" fill-opacity="0.68"/>
<path fill-rule="evenodd" clip-rule="evenodd" d="M367.833 226.368L362.5 232.205L357.167 226.368L357.164 226.366C356.131 225.233 356.223 223.487 357.37 222.467C358.475 221.484 360.165 221.527 361.216 222.566C361.219 222.568 361.221 222.571 361.224 222.574L362.04 223.34L362.5 223.778L362.96 223.34L363.776 222.574C363.778 222.571 363.781 222.568 363.784 222.566C364.307 222.046 365.018 221.755 365.76 221.757C367.303 221.757 368.554 222.993 368.554 224.518C368.554 225.2 368.298 225.859 367.836 226.366L367.833 226.368ZM369.053 221.264C367.245 219.478 364.321 219.468 362.5 221.232C360.679 219.468 357.755 219.478 355.947 221.264C354.159 223.032 354.129 225.88 355.86 227.683L362.5 234.917L369.14 227.683C370.871 225.88 370.842 223.032 369.053 221.264Z" fill="black"/>
<path d="M381.604 221.576H384.116V230.888H389.684V233H381.604V221.576ZM390.952 227.272C390.984 226.739 391.118 226.296 391.352 225.944C391.587 225.592 391.886 225.309 392.248 225.096C392.611 224.883 393.016 224.733 393.464 224.648C393.923 224.552 394.382 224.504 394.84 224.504C395.256 224.504 395.678 224.536 396.104 224.6C396.531 224.653 396.92 224.765 397.272 224.936C397.624 225.107 397.912 225.347 398.136 225.656C398.36 225.955 398.472 226.355 398.472 226.856V231.16C398.472 231.533 398.494 231.891 398.536 232.232C398.579 232.573 398.654 232.829 398.76 233H396.456C396.414 232.872 396.376 232.744 396.344 232.616C396.323 232.477 396.307 232.339 396.296 232.2C395.934 232.573 395.507 232.835 395.016 232.984C394.526 233.133 394.024 233.208 393.512 233.208C393.118 233.208 392.75 233.16 392.408 233.064C392.067 232.968 391.768 232.819 391.512 232.616C391.256 232.413 391.054 232.157 390.904 231.848C390.766 231.539 390.696 231.171 390.696 230.744C390.696 230.275 390.776 229.891 390.936 229.592C391.107 229.283 391.32 229.037 391.576 228.856C391.843 228.675 392.142 228.541 392.472 228.456C392.814 228.36 393.155 228.285 393.496 228.232C393.838 228.179 394.174 228.136 394.504 228.104C394.835 228.072 395.128 228.024 395.384 227.96C395.64 227.896 395.843 227.805 395.992 227.688C396.142 227.56 396.211 227.379 396.2 227.144C396.2 226.899 396.158 226.707 396.072 226.568C395.998 226.419 395.891 226.307 395.752 226.232C395.624 226.147 395.47 226.093 395.288 226.072C395.118 226.04 394.931 226.024 394.728 226.024C394.28 226.024 393.928 226.12 393.672 226.312C393.416 226.504 393.267 226.824 393.224 227.272H390.952ZM396.2 228.952C396.104 229.037 395.982 229.107 395.832 229.16C395.694 229.203 395.539 229.24 395.368 229.272C395.208 229.304 395.038 229.331 394.856 229.352C394.675 229.373 394.494 229.4 394.312 229.432C394.142 229.464 393.971 229.507 393.8 229.56C393.64 229.613 393.496 229.688 393.368 229.784C393.251 229.869 393.155 229.981 393.08 230.12C393.006 230.259 392.968 230.435 392.968 230.648C392.968 230.851 393.006 231.021 393.08 231.16C393.155 231.299 393.256 231.411 393.384 231.496C393.512 231.571 393.662 231.624 393.832 231.656C394.003 231.688 394.179 231.704 394.36 231.704C394.808 231.704 395.155 231.629 395.4 231.48C395.646 231.331 395.827 231.155 395.944 230.952C396.062 230.739 396.131 230.525 396.152 230.312C396.184 230.099 396.2 229.928 396.2 229.8V228.952ZM406.5 228.872C406.5 228.52 406.463 228.184 406.388 227.864C406.313 227.544 406.196 227.261 406.036 227.016C405.876 226.771 405.673 226.579 405.428 226.44C405.193 226.291 404.905 226.216 404.564 226.216C404.233 226.216 403.945 226.291 403.7 226.44C403.455 226.579 403.252 226.771 403.092 227.016C402.932 227.261 402.815 227.544 402.74 227.864C402.665 228.184 402.628 228.52 402.628 228.872C402.628 229.213 402.665 229.544 402.74 229.864C402.815 230.184 402.932 230.467 403.092 230.712C403.252 230.957 403.455 231.155 403.7 231.304C403.945 231.443 404.233 231.512 404.564 231.512C404.905 231.512 405.193 231.443 405.428 231.304C405.673 231.155 405.876 230.957 406.036 230.712C406.196 230.467 406.313 230.184 406.388 229.864C406.463 229.544 406.5 229.213 406.5 228.872ZM400.436 221.576H402.708V225.736H402.74C403.017 225.309 403.391 225 403.86 224.808C404.34 224.605 404.836 224.504 405.348 224.504C405.764 224.504 406.175 224.589 406.58 224.76C406.985 224.931 407.348 225.192 407.668 225.544C407.999 225.896 408.265 226.349 408.468 226.904C408.671 227.448 408.772 228.099 408.772 228.856C408.772 229.613 408.671 230.269 408.468 230.824C408.265 231.368 407.999 231.816 407.668 232.168C407.348 232.52 406.985 232.781 406.58 232.952C406.175 233.123 405.764 233.208 405.348 233.208C404.74 233.208 404.196 233.112 403.716 232.92C403.236 232.728 402.873 232.403 402.628 231.944H402.596V233H400.436V221.576ZM415.985 227.976C415.878 227.4 415.686 226.963 415.409 226.664C415.142 226.365 414.732 226.216 414.177 226.216C413.814 226.216 413.51 226.28 413.265 226.408C413.03 226.525 412.838 226.675 412.689 226.856C412.55 227.037 412.449 227.229 412.385 227.432C412.332 227.635 412.3 227.816 412.289 227.976H415.985ZM412.289 229.416C412.321 230.152 412.508 230.685 412.849 231.016C413.19 231.347 413.681 231.512 414.321 231.512C414.78 231.512 415.174 231.4 415.505 231.176C415.836 230.941 416.038 230.696 416.113 230.44H418.113C417.793 231.432 417.302 232.141 416.641 232.568C415.98 232.995 415.18 233.208 414.241 233.208C413.59 233.208 413.004 233.107 412.481 232.904C411.958 232.691 411.516 232.392 411.153 232.008C410.79 231.624 410.508 231.165 410.305 230.632C410.113 230.099 410.017 229.512 410.017 228.872C410.017 228.253 410.118 227.677 410.321 227.144C410.524 226.611 410.812 226.152 411.185 225.768C411.558 225.373 412.001 225.064 412.513 224.84C413.036 224.616 413.612 224.504 414.241 224.504C414.945 224.504 415.558 224.643 416.081 224.92C416.604 225.187 417.03 225.549 417.361 226.008C417.702 226.467 417.948 226.989 418.097 227.576C418.246 228.163 418.3 228.776 418.257 229.416H412.289ZM419.869 221.576H422.141V233H419.869V221.576Z" fill="black"/>
<path d="M177.748 329.076H179.268V333.988H185.284V329.076H186.804V340.5H185.284V335.268H179.268V340.5H177.748V329.076ZM190.063 336.372C190.063 336.873 190.127 337.321 190.255 337.716C190.394 338.1 190.58 338.425 190.815 338.692C191.05 338.948 191.322 339.145 191.631 339.284C191.951 339.423 192.287 339.492 192.639 339.492C192.991 339.492 193.322 339.423 193.631 339.284C193.951 339.145 194.228 338.948 194.463 338.692C194.698 338.425 194.879 338.1 195.007 337.716C195.146 337.321 195.215 336.873 195.215 336.372C195.215 335.871 195.146 335.428 195.007 335.044C194.879 334.649 194.698 334.319 194.463 334.052C194.228 333.785 193.951 333.583 193.631 333.444C193.322 333.305 192.991 333.236 192.639 333.236C192.287 333.236 191.951 333.305 191.631 333.444C191.322 333.583 191.05 333.785 190.815 334.052C190.58 334.319 190.394 334.649 190.255 335.044C190.127 335.428 190.063 335.871 190.063 336.372ZM188.623 336.372C188.623 335.764 188.708 335.199 188.879 334.676C189.05 334.143 189.306 333.684 189.647 333.3C189.988 332.905 190.41 332.596 190.911 332.372C191.412 332.148 191.988 332.036 192.639 332.036C193.3 332.036 193.876 332.148 194.367 332.372C194.868 332.596 195.29 332.905 195.631 333.3C195.972 333.684 196.228 334.143 196.399 334.676C196.57 335.199 196.655 335.764 196.655 336.372C196.655 336.98 196.57 337.545 196.399 338.068C196.228 338.591 195.972 339.049 195.631 339.444C195.29 339.828 194.868 340.132 194.367 340.356C193.876 340.569 193.3 340.676 192.639 340.676C191.988 340.676 191.412 340.569 190.911 340.356C190.41 340.132 189.988 339.828 189.647 339.444C189.306 339.049 189.05 338.591 188.879 338.068C188.708 337.545 188.623 336.98 188.623 336.372ZM201.986 340.5H200.53L197.458 332.228H198.978L201.298 339.124H201.33L203.586 332.228H205.01L201.986 340.5ZM212.002 335.572C211.981 335.252 211.906 334.948 211.778 334.66C211.661 334.372 211.496 334.127 211.282 333.924C211.08 333.711 210.834 333.545 210.546 333.428C210.269 333.3 209.96 333.236 209.618 333.236C209.266 333.236 208.946 333.3 208.658 333.428C208.381 333.545 208.141 333.711 207.938 333.924C207.736 334.137 207.576 334.388 207.458 334.676C207.341 334.953 207.272 335.252 207.25 335.572H212.002ZM213.314 337.876C213.133 338.804 212.733 339.503 212.114 339.972C211.496 340.441 210.717 340.676 209.778 340.676C209.117 340.676 208.541 340.569 208.05 340.356C207.57 340.143 207.165 339.844 206.834 339.46C206.504 339.076 206.253 338.617 206.082 338.084C205.922 337.551 205.832 336.969 205.81 336.34C205.81 335.711 205.906 335.135 206.098 334.612C206.29 334.089 206.557 333.636 206.898 333.252C207.25 332.868 207.661 332.569 208.13 332.356C208.61 332.143 209.133 332.036 209.698 332.036C210.434 332.036 211.042 332.191 211.522 332.5C212.013 332.799 212.402 333.183 212.69 333.652C212.989 334.121 213.192 334.633 213.298 335.188C213.416 335.743 213.464 336.271 213.442 336.772H207.25C207.24 337.135 207.282 337.481 207.378 337.812C207.474 338.132 207.629 338.42 207.842 338.676C208.056 338.921 208.328 339.119 208.658 339.268C208.989 339.417 209.378 339.492 209.826 339.492C210.402 339.492 210.872 339.359 211.234 339.092C211.608 338.825 211.853 338.42 211.97 337.876H213.314ZM214.804 332.228H216.084V333.972H216.116C216.447 333.3 216.852 332.804 217.332 332.484C217.812 332.164 218.42 332.015 219.156 332.036V333.476C218.612 333.476 218.148 333.551 217.764 333.7C217.38 333.849 217.071 334.068 216.836 334.356C216.601 334.644 216.431 334.996 216.324 335.412C216.217 335.817 216.164 336.287 216.164 336.82V340.5H214.804V332.228Z" fill="black" fill-opacity="0.68"/>
<path fill-rule="evenodd" clip-rule="evenodd" d="M367.833 334.368L362.5 340.205L357.167 334.368L357.164 334.366C356.131 333.233 356.223 331.487 357.37 330.467C358.475 329.484 360.165 329.527 361.216 330.566C361.219 330.568 361.221 330.571 361.224 330.574L362.04 331.34L362.5 331.778L362.96 331.34L363.776 330.574C363.778 330.571 363.781 330.568 363.784 330.566C364.307 330.046 365.018 329.755 365.76 329.757C367.303 329.757 368.554 330.993 368.554 332.518C368.554 333.2 368.298 333.859 367.836 334.366L367.833 334.368ZM369.053 329.264C367.245 327.478 364.321 327.468 362.5 329.232C360.679 327.468 357.755 327.478 355.947 329.264C354.159 331.032 354.129 333.88 355.86 335.683L362.5 342.917L369.14 335.683C370.871 333.88 370.842 331.032 369.053 329.264Z" fill="black" fill-opacity="0.68"/>
<path d="M381.604 329.576H384.116V338.888H389.684V341H381.604V329.576ZM390.952 335.272C390.984 334.739 391.118 334.296 391.352 333.944C391.587 333.592 391.886 333.309 392.248 333.096C392.611 332.883 393.016 332.733 393.464 332.648C393.923 332.552 394.382 332.504 394.84 332.504C395.256 332.504 395.678 332.536 396.104 332.6C396.531 332.653 396.92 332.765 397.272 332.936C397.624 333.107 397.912 333.347 398.136 333.656C398.36 333.955 398.472 334.355 398.472 334.856V339.16C398.472 339.533 398.494 339.891 398.536 340.232C398.579 340.573 398.654 340.829 398.76 341H396.456C396.414 340.872 396.376 340.744 396.344 340.616C396.323 340.477 396.307 340.339 396.296 340.2C395.934 340.573 395.507 340.835 395.016 340.984C394.526 341.133 394.024 341.208 393.512 341.208C393.118 341.208 392.75 341.16 392.408 341.064C392.067 340.968 391.768 340.819 391.512 340.616C391.256 340.413 391.054 340.157 390.904 339.848C390.766 339.539 390.696 339.171 390.696 338.744C390.696 338.275 390.776 337.891 390.936 337.592C391.107 337.283 391.32 337.037 391.576 336.856C391.843 336.675 392.142 336.541 392.472 336.456C392.814 336.36 393.155 336.285 393.496 336.232C393.838 336.179 394.174 336.136 394.504 336.104C394.835 336.072 395.128 336.024 395.384 335.96C395.64 335.896 395.843 335.805 395.992 335.688C396.142 335.56 396.211 335.379 396.2 335.144C396.2 334.899 396.158 334.707 396.072 334.568C395.998 334.419 395.891 334.307 395.752 334.232C395.624 334.147 395.47 334.093 395.288 334.072C395.118 334.04 394.931 334.024 394.728 334.024C394.28 334.024 393.928 334.12 393.672 334.312C393.416 334.504 393.267 334.824 393.224 335.272H390.952ZM396.2 336.952C396.104 337.037 395.982 337.107 395.832 337.16C395.694 337.203 395.539 337.24 395.368 337.272C395.208 337.304 395.038 337.331 394.856 337.352C394.675 337.373 394.494 337.4 394.312 337.432C394.142 337.464 393.971 337.507 393.8 337.56C393.64 337.613 393.496 337.688 393.368 337.784C393.251 337.869 393.155 337.981 393.08 338.12C393.006 338.259 392.968 338.435 392.968 338.648C392.968 338.851 393.006 339.021 393.08 339.16C393.155 339.299 393.256 339.411 393.384 339.496C393.512 339.571 393.662 339.624 393.832 339.656C394.003 339.688 394.179 339.704 394.36 339.704C394.808 339.704 395.155 339.629 395.4 339.48C395.646 339.331 395.827 339.155 395.944 338.952C396.062 338.739 396.131 338.525 396.152 338.312C396.184 338.099 396.2 337.928 396.2 337.8V336.952ZM406.5 336.872C406.5 336.52 406.463 336.184 406.388 335.864C406.313 335.544 406.196 335.261 406.036 335.016C405.876 334.771 405.673 334.579 405.428 334.44C405.193 334.291 404.905 334.216 404.564 334.216C404.233 334.216 403.945 334.291 403.7 334.44C403.455 334.579 403.252 334.771 403.092 335.016C402.932 335.261 402.815 335.544 402.74 335.864C402.665 336.184 402.628 336.52 402.628 336.872C402.628 337.213 402.665 337.544 402.74 337.864C402.815 338.184 402.932 338.467 403.092 338.712C403.252 338.957 403.455 339.155 403.7 339.304C403.945 339.443 404.233 339.512 404.564 339.512C404.905 339.512 405.193 339.443 405.428 339.304C405.673 339.155 405.876 338.957 406.036 338.712C406.196 338.467 406.313 338.184 406.388 337.864C406.463 337.544 406.5 337.213 406.5 336.872ZM400.436 329.576H402.708V333.736H402.74C403.017 333.309 403.391 333 403.86 332.808C404.34 332.605 404.836 332.504 405.348 332.504C405.764 332.504 406.175 332.589 406.58 332.76C406.985 332.931 407.348 333.192 407.668 333.544C407.999 333.896 408.265 334.349 408.468 334.904C408.671 335.448 408.772 336.099 408.772 336.856C408.772 337.613 408.671 338.269 408.468 338.824C408.265 339.368 407.999 339.816 407.668 340.168C407.348 340.52 406.985 340.781 406.58 340.952C406.175 341.123 405.764 341.208 405.348 341.208C404.74 341.208 404.196 341.112 403.716 340.92C403.236 340.728 402.873 340.403 402.628 339.944H402.596V341H400.436V329.576ZM415.985 335.976C415.878 335.4 415.686 334.963 415.409 334.664C415.142 334.365 414.732 334.216 414.177 334.216C413.814 334.216 413.51 334.28 413.265 334.408C413.03 334.525 412.838 334.675 412.689 334.856C412.55 335.037 412.449 335.229 412.385 335.432C412.332 335.635 412.3 335.816 412.289 335.976H415.985ZM412.289 337.416C412.321 338.152 412.508 338.685 412.849 339.016C413.19 339.347 413.681 339.512 414.321 339.512C414.78 339.512 415.174 339.4 415.505 339.176C415.836 338.941 416.038 338.696 416.113 338.44H418.113C417.793 339.432 417.302 340.141 416.641 340.568C415.98 340.995 415.18 341.208 414.241 341.208C413.59 341.208 413.004 341.107 412.481 340.904C411.958 340.691 411.516 340.392 411.153 340.008C410.79 339.624 410.508 339.165 410.305 338.632C410.113 338.099 410.017 337.512 410.017 336.872C410.017 336.253 410.118 335.677 410.321 335.144C410.524 334.611 410.812 334.152 411.185 333.768C411.558 333.373 412.001 333.064 412.513 332.84C413.036 332.616 413.612 332.504 414.241 332.504C414.945 332.504 415.558 332.643 416.081 332.92C416.604 333.187 417.03 333.549 417.361 334.008C417.702 334.467 417.948 334.989 418.097 335.576C418.246 336.163 418.3 336.776 418.257 337.416H412.289ZM419.869 329.576H422.141V341H419.869V329.576Z" fill="black" fill-opacity="0.68"/>
<path d="M380.5 343H423.069V343.8H380.5V343Z" fill="black" fill-opacity="0.68"/>
<path d="M179.268 442.548H182.244C183.108 442.559 183.737 442.383 184.132 442.02C184.537 441.657 184.74 441.135 184.74 440.452C184.74 439.769 184.537 439.252 184.132 438.9C183.737 438.537 183.108 438.356 182.244 438.356H179.268V442.548ZM177.748 437.076H182.756C183.908 437.076 184.777 437.375 185.364 437.972C185.961 438.559 186.26 439.385 186.26 440.452C186.26 441.519 185.961 442.351 185.364 442.948C184.777 443.545 183.908 443.839 182.756 443.828H179.268V448.5H177.748V437.076ZM187.851 440.228H189.131V441.972H189.163C189.494 441.3 189.899 440.804 190.379 440.484C190.859 440.164 191.467 440.015 192.203 440.036V441.476C191.659 441.476 191.195 441.551 190.811 441.7C190.427 441.849 190.118 442.068 189.883 442.356C189.648 442.644 189.478 442.996 189.371 443.412C189.264 443.817 189.211 444.287 189.211 444.82V448.5H187.851V440.228ZM198.69 443.572C198.669 443.252 198.594 442.948 198.466 442.66C198.349 442.372 198.183 442.127 197.97 441.924C197.767 441.711 197.522 441.545 197.234 441.428C196.957 441.3 196.647 441.236 196.306 441.236C195.954 441.236 195.634 441.3 195.346 441.428C195.069 441.545 194.829 441.711 194.626 441.924C194.423 442.137 194.263 442.388 194.146 442.676C194.029 442.953 193.959 443.252 193.938 443.572H198.69ZM200.002 445.876C199.821 446.804 199.421 447.503 198.802 447.972C198.183 448.441 197.405 448.676 196.466 448.676C195.805 448.676 195.229 448.569 194.738 448.356C194.258 448.143 193.853 447.844 193.522 447.46C193.191 447.076 192.941 446.617 192.77 446.084C192.61 445.551 192.519 444.969 192.498 444.34C192.498 443.711 192.594 443.135 192.786 442.612C192.978 442.089 193.245 441.636 193.586 441.252C193.938 440.868 194.349 440.569 194.818 440.356C195.298 440.143 195.821 440.036 196.386 440.036C197.122 440.036 197.73 440.191 198.21 440.5C198.701 440.799 199.09 441.183 199.378 441.652C199.677 442.121 199.879 442.633 199.986 443.188C200.103 443.743 200.151 444.271 200.13 444.772H193.938C193.927 445.135 193.97 445.481 194.066 445.812C194.162 446.132 194.317 446.42 194.53 446.676C194.743 446.921 195.015 447.119 195.346 447.268C195.677 447.417 196.066 447.492 196.514 447.492C197.09 447.492 197.559 447.359 197.922 447.092C198.295 446.825 198.541 446.42 198.658 445.876H200.002ZM202.372 445.892C202.382 446.191 202.452 446.447 202.58 446.66C202.708 446.863 202.873 447.028 203.076 447.156C203.289 447.273 203.524 447.359 203.78 447.412C204.046 447.465 204.318 447.492 204.596 447.492C204.809 447.492 205.033 447.476 205.268 447.444C205.502 447.412 205.716 447.353 205.908 447.268C206.11 447.183 206.276 447.06 206.404 446.9C206.532 446.729 206.596 446.516 206.596 446.26C206.596 445.908 206.462 445.641 206.196 445.46C205.929 445.279 205.593 445.135 205.188 445.028C204.793 444.911 204.361 444.809 203.892 444.724C203.422 444.628 202.985 444.5 202.58 444.34C202.185 444.169 201.854 443.935 201.588 443.636C201.321 443.337 201.188 442.921 201.188 442.388C201.188 441.972 201.278 441.615 201.46 441.316C201.652 441.017 201.892 440.777 202.18 440.596C202.478 440.404 202.809 440.265 203.172 440.18C203.545 440.084 203.913 440.036 204.276 440.036C204.745 440.036 205.177 440.079 205.572 440.164C205.966 440.239 206.313 440.377 206.612 440.58C206.921 440.772 207.166 441.039 207.348 441.38C207.529 441.711 207.636 442.127 207.668 442.628H206.308C206.286 442.361 206.217 442.143 206.1 441.972C205.982 441.791 205.833 441.647 205.652 441.54C205.47 441.433 205.268 441.359 205.044 441.316C204.83 441.263 204.612 441.236 204.388 441.236C204.185 441.236 203.977 441.252 203.764 441.284C203.561 441.316 203.374 441.375 203.204 441.46C203.033 441.535 202.894 441.641 202.788 441.78C202.681 441.908 202.628 442.079 202.628 442.292C202.628 442.527 202.708 442.724 202.868 442.884C203.038 443.033 203.252 443.161 203.508 443.268C203.764 443.364 204.052 443.449 204.372 443.524C204.692 443.588 205.012 443.657 205.332 443.732C205.673 443.807 206.004 443.897 206.324 444.004C206.654 444.111 206.942 444.255 207.188 444.436C207.444 444.607 207.646 444.825 207.796 445.092C207.956 445.359 208.036 445.689 208.036 446.084C208.036 446.585 207.929 447.001 207.716 447.332C207.513 447.663 207.241 447.929 206.9 448.132C206.569 448.335 206.19 448.473 205.764 448.548C205.348 448.633 204.932 448.676 204.516 448.676C204.057 448.676 203.62 448.628 203.204 448.532C202.788 448.436 202.42 448.281 202.1 448.068C201.78 447.844 201.524 447.556 201.332 447.204C201.14 446.841 201.033 446.404 201.012 445.892H202.372ZM210.372 445.892C210.382 446.191 210.452 446.447 210.58 446.66C210.708 446.863 210.873 447.028 211.076 447.156C211.289 447.273 211.524 447.359 211.78 447.412C212.046 447.465 212.318 447.492 212.596 447.492C212.809 447.492 213.033 447.476 213.268 447.444C213.502 447.412 213.716 447.353 213.908 447.268C214.11 447.183 214.276 447.06 214.404 446.9C214.532 446.729 214.596 446.516 214.596 446.26C214.596 445.908 214.462 445.641 214.196 445.46C213.929 445.279 213.593 445.135 213.188 445.028C212.793 444.911 212.361 444.809 211.892 444.724C211.422 444.628 210.985 444.5 210.58 444.34C210.185 444.169 209.854 443.935 209.588 443.636C209.321 443.337 209.188 442.921 209.188 442.388C209.188 441.972 209.278 441.615 209.46 441.316C209.652 441.017 209.892 440.777 210.18 440.596C210.478 440.404 210.809 440.265 211.172 440.18C211.545 440.084 211.913 440.036 212.276 440.036C212.745 440.036 213.177 440.079 213.572 440.164C213.966 440.239 214.313 440.377 214.612 440.58C214.921 440.772 215.166 441.039 215.348 441.38C215.529 441.711 215.636 442.127 215.668 442.628H214.308C214.286 442.361 214.217 442.143 214.1 441.972C213.982 441.791 213.833 441.647 213.652 441.54C213.47 441.433 213.268 441.359 213.044 441.316C212.83 441.263 212.612 441.236 212.388 441.236C212.185 441.236 211.977 441.252 211.764 441.284C211.561 441.316 211.374 441.375 211.204 441.46C211.033 441.535 210.894 441.641 210.788 441.78C210.681 441.908 210.628 442.079 210.628 442.292C210.628 442.527 210.708 442.724 210.868 442.884C211.038 443.033 211.252 443.161 211.508 443.268C211.764 443.364 212.052 443.449 212.372 443.524C212.692 443.588 213.012 443.657 213.332 443.732C213.673 443.807 214.004 443.897 214.324 444.004C214.654 444.111 214.942 444.255 215.188 444.436C215.444 444.607 215.646 444.825 215.796 445.092C215.956 445.359 216.036 445.689 216.036 446.084C216.036 446.585 215.929 447.001 215.716 447.332C215.513 447.663 215.241 447.929 214.9 448.132C214.569 448.335 214.19 448.473 213.764 448.548C213.348 448.633 212.932 448.676 212.516 448.676C212.057 448.676 211.62 448.628 211.204 448.532C210.788 448.436 210.42 448.281 210.1 448.068C209.78 447.844 209.524 447.556 209.332 447.204C209.14 446.841 209.033 446.404 209.012 445.892H210.372ZM223.284 443.572C223.262 443.252 223.188 442.948 223.06 442.66C222.942 442.372 222.777 442.127 222.564 441.924C222.361 441.711 222.116 441.545 221.828 441.428C221.55 441.3 221.241 441.236 220.9 441.236C220.548 441.236 220.228 441.3 219.94 441.428C219.662 441.545 219.422 441.711 219.22 441.924C219.017 442.137 218.857 442.388 218.74 442.676C218.622 442.953 218.553 443.252 218.532 443.572H223.284ZM224.596 445.876C224.414 446.804 224.014 447.503 223.396 447.972C222.777 448.441 221.998 448.676 221.06 448.676C220.398 448.676 219.822 448.569 219.332 448.356C218.852 448.143 218.446 447.844 218.116 447.46C217.785 447.076 217.534 446.617 217.364 446.084C217.204 445.551 217.113 444.969 217.092 444.34C217.092 443.711 217.188 443.135 217.38 442.612C217.572 442.089 217.838 441.636 218.18 441.252C218.532 440.868 218.942 440.569 219.412 440.356C219.892 440.143 220.414 440.036 220.98 440.036C221.716 440.036 222.324 440.191 222.804 440.5C223.294 440.799 223.684 441.183 223.972 441.652C224.27 442.121 224.473 442.633 224.58 443.188C224.697 443.743 224.745 444.271 224.724 444.772H218.532C218.521 445.135 218.564 445.481 218.66 445.812C218.756 446.132 218.91 446.42 219.124 446.676C219.337 446.921 219.609 447.119 219.94 447.268C220.27 447.417 220.66 447.492 221.108 447.492C221.684 447.492 222.153 447.359 222.516 447.092C222.889 446.825 223.134 446.42 223.252 445.876H224.596ZM227.125 444.436C227.125 444.82 227.173 445.199 227.269 445.572C227.376 445.935 227.531 446.26 227.733 446.548C227.947 446.836 228.213 447.065 228.533 447.236C228.864 447.407 229.248 447.492 229.685 447.492C230.144 447.492 230.533 447.401 230.853 447.22C231.173 447.039 231.435 446.804 231.637 446.516C231.84 446.217 231.984 445.881 232.069 445.508C232.165 445.135 232.213 444.756 232.213 444.372C232.213 443.967 232.165 443.577 232.069 443.204C231.973 442.82 231.819 442.484 231.605 442.196C231.403 441.908 231.136 441.679 230.805 441.508C230.475 441.327 230.075 441.236 229.605 441.236C229.147 441.236 228.757 441.327 228.437 441.508C228.117 441.689 227.861 441.929 227.669 442.228C227.477 442.527 227.339 442.868 227.253 443.252C227.168 443.636 227.125 444.031 227.125 444.436ZM233.525 448.5H232.165V447.38H232.133C231.909 447.839 231.557 448.169 231.077 448.372C230.597 448.575 230.069 448.676 229.493 448.676C228.853 448.676 228.293 448.559 227.813 448.324C227.344 448.089 226.949 447.775 226.629 447.38C226.32 446.985 226.085 446.527 225.925 446.004C225.765 445.481 225.685 444.927 225.685 444.34C225.685 443.753 225.76 443.199 225.909 442.676C226.069 442.153 226.304 441.7 226.613 441.316C226.933 440.921 227.328 440.612 227.797 440.388C228.277 440.153 228.832 440.036 229.461 440.036C229.675 440.036 229.904 440.057 230.149 440.1C230.395 440.143 230.64 440.217 230.885 440.324C231.131 440.42 231.36 440.553 231.573 440.724C231.797 440.884 231.984 441.087 232.133 441.332H232.165V437.076H233.525V448.5Z" fill="black" fill-opacity="0.68"/>
<path fill-rule="evenodd" clip-rule="evenodd" d="M367.833 442.368L362.5 448.205L357.167 442.368L357.164 442.366C356.131 441.233 356.223 439.487 357.37 438.467C358.475 437.484 360.165 437.527 361.216 438.566C361.219 438.568 361.221 438.571 361.224 438.574L362.04 439.34L362.5 439.778L362.96 439.34L363.776 438.574C363.778 438.571 363.781 438.568 363.784 438.566C364.307 438.046 365.018 437.755 365.76 437.757C367.303 437.757 368.554 438.993 368.554 440.518C368.554 441.2 368.298 441.859 367.836 442.366L367.833 442.368ZM369.053 437.264C367.245 435.478 364.321 435.468 362.5 437.232C360.679 435.468 357.755 435.478 355.947 437.264C354.159 439.032 354.129 441.88 355.86 443.683L362.5 450.917L369.14 443.683C370.871 441.88 370.842 439.032 369.053 437.264Z" fill="#F15E00"/>
<path d="M381.604 437.576H384.116V446.888H389.684V449H381.604V437.576ZM390.952 443.272C390.984 442.739 391.118 442.296 391.352 441.944C391.587 441.592 391.886 441.309 392.248 441.096C392.611 440.883 393.016 440.733 393.464 440.648C393.923 440.552 394.382 440.504 394.84 440.504C395.256 440.504 395.678 440.536 396.104 440.6C396.531 440.653 396.92 440.765 397.272 440.936C397.624 441.107 397.912 441.347 398.136 441.656C398.36 441.955 398.472 442.355 398.472 442.856V447.16C398.472 447.533 398.494 447.891 398.536 448.232C398.579 448.573 398.654 448.829 398.76 449H396.456C396.414 448.872 396.376 448.744 396.344 448.616C396.323 448.477 396.307 448.339 396.296 448.2C395.934 448.573 395.507 448.835 395.016 448.984C394.526 449.133 394.024 449.208 393.512 449.208C393.118 449.208 392.75 449.16 392.408 449.064C392.067 448.968 391.768 448.819 391.512 448.616C391.256 448.413 391.054 448.157 390.904 447.848C390.766 447.539 390.696 447.171 390.696 446.744C390.696 446.275 390.776 445.891 390.936 445.592C391.107 445.283 391.32 445.037 391.576 444.856C391.843 444.675 392.142 444.541 392.472 444.456C392.814 444.36 393.155 444.285 393.496 444.232C393.838 444.179 394.174 444.136 394.504 444.104C394.835 444.072 395.128 444.024 395.384 443.96C395.64 443.896 395.843 443.805 395.992 443.688C396.142 443.56 396.211 443.379 396.2 443.144C396.2 442.899 396.158 442.707 396.072 442.568C395.998 442.419 395.891 442.307 395.752 442.232C395.624 442.147 395.47 442.093 395.288 442.072C395.118 442.04 394.931 442.024 394.728 442.024C394.28 442.024 393.928 442.12 393.672 442.312C393.416 442.504 393.267 442.824 393.224 443.272H390.952ZM396.2 444.952C396.104 445.037 395.982 445.107 395.832 445.16C395.694 445.203 395.539 445.24 395.368 445.272C395.208 445.304 395.038 445.331 394.856 445.352C394.675 445.373 394.494 445.4 394.312 445.432C394.142 445.464 393.971 445.507 393.8 445.56C393.64 445.613 393.496 445.688 393.368 445.784C393.251 445.869 393.155 445.981 393.08 446.12C393.006 446.259 392.968 446.435 392.968 446.648C392.968 446.851 393.006 447.021 393.08 447.16C393.155 447.299 393.256 447.411 393.384 447.496C393.512 447.571 393.662 447.624 393.832 447.656C394.003 447.688 394.179 447.704 394.36 447.704C394.808 447.704 395.155 447.629 395.4 447.48C395.646 447.331 395.827 447.155 395.944 446.952C396.062 446.739 396.131 446.525 396.152 446.312C396.184 446.099 396.2 445.928 396.2 445.8V444.952ZM406.5 444.872C406.5 444.52 406.463 444.184 406.388 443.864C406.313 443.544 406.196 443.261 406.036 443.016C405.876 442.771 405.673 442.579 405.428 442.44C405.193 442.291 404.905 442.216 404.564 442.216C404.233 442.216 403.945 442.291 403.7 442.44C403.455 442.579 403.252 442.771 403.092 443.016C402.932 443.261 402.815 443.544 402.74 443.864C402.665 444.184 402.628 444.52 402.628 444.872C402.628 445.213 402.665 445.544 402.74 445.864C402.815 446.184 402.932 446.467 403.092 446.712C403.252 446.957 403.455 447.155 403.7 447.304C403.945 447.443 404.233 447.512 404.564 447.512C404.905 447.512 405.193 447.443 405.428 447.304C405.673 447.155 405.876 446.957 406.036 446.712C406.196 446.467 406.313 446.184 406.388 445.864C406.463 445.544 406.5 445.213 406.5 444.872ZM400.436 437.576H402.708V441.736H402.74C403.017 441.309 403.391 441 403.86 440.808C404.34 440.605 404.836 440.504 405.348 440.504C405.764 440.504 406.175 440.589 406.58 440.76C406.985 440.931 407.348 441.192 407.668 441.544C407.999 441.896 408.265 442.349 408.468 442.904C408.671 443.448 408.772 444.099 408.772 444.856C408.772 445.613 408.671 446.269 408.468 446.824C408.265 447.368 407.999 447.816 407.668 448.168C407.348 448.52 406.985 448.781 406.58 448.952C406.175 449.123 405.764 449.208 405.348 449.208C404.74 449.208 404.196 449.112 403.716 448.92C403.236 448.728 402.873 448.403 402.628 447.944H402.596V449H400.436V437.576ZM415.985 443.976C415.878 443.4 415.686 442.963 415.409 442.664C415.142 442.365 414.732 442.216 414.177 442.216C413.814 442.216 413.51 442.28 413.265 442.408C413.03 442.525 412.838 442.675 412.689 442.856C412.55 443.037 412.449 443.229 412.385 443.432C412.332 443.635 412.3 443.816 412.289 443.976H415.985ZM412.289 445.416C412.321 446.152 412.508 446.685 412.849 447.016C413.19 447.347 413.681 447.512 414.321 447.512C414.78 447.512 415.174 447.4 415.505 447.176C415.836 446.941 416.038 446.696 416.113 446.44H418.113C417.793 447.432 417.302 448.141 416.641 448.568C415.98 448.995 415.18 449.208 414.241 449.208C413.59 449.208 413.004 449.107 412.481 448.904C411.958 448.691 411.516 448.392 411.153 448.008C410.79 447.624 410.508 447.165 410.305 446.632C410.113 446.099 410.017 445.512 410.017 444.872C410.017 444.253 410.118 443.677 410.321 443.144C410.524 442.611 410.812 442.152 411.185 441.768C411.558 441.373 412.001 441.064 412.513 440.84C413.036 440.616 413.612 440.504 414.241 440.504C414.945 440.504 415.558 440.643 416.081 440.92C416.604 441.187 417.03 441.549 417.361 442.008C417.702 442.467 417.948 442.989 418.097 443.576C418.246 444.163 418.3 444.776 418.257 445.416H412.289ZM419.869 437.576H422.141V449H419.869V437.576Z" fill="#F15E00"/>
<path d="M380.5 451H423.069V451.8H380.5V451Z" fill="#F15E00"/>
<path d="M179.268 555.22H181.796C181.967 555.22 182.18 555.209 182.436 555.188C182.692 555.156 182.964 555.092 183.252 554.996C183.54 554.889 183.823 554.74 184.1 554.548C184.388 554.356 184.644 554.095 184.868 553.764C185.092 553.433 185.273 553.023 185.412 552.532C185.561 552.031 185.636 551.428 185.636 550.724C185.636 550.041 185.567 549.433 185.428 548.9C185.3 548.356 185.081 547.897 184.772 547.524C184.473 547.14 184.084 546.852 183.604 546.66C183.124 546.457 182.532 546.356 181.828 546.356H179.268V555.22ZM177.748 545.076H181.668C183.428 545.076 184.783 545.524 185.732 546.42C186.681 547.316 187.156 548.681 187.156 550.516C187.156 551.476 187.049 552.329 186.836 553.076C186.623 553.812 186.292 554.436 185.844 554.948C185.396 555.449 184.825 555.833 184.132 556.1C183.439 556.367 182.617 556.5 181.668 556.5H177.748V545.076ZM190.23 546.74H188.87V545.076H190.23V546.74ZM188.87 548.228H190.23V556.5H188.87V548.228ZM193.169 553.892C193.179 554.191 193.249 554.447 193.377 554.66C193.505 554.863 193.67 555.028 193.873 555.156C194.086 555.273 194.321 555.359 194.577 555.412C194.843 555.465 195.115 555.492 195.393 555.492C195.606 555.492 195.83 555.476 196.065 555.444C196.299 555.412 196.513 555.353 196.705 555.268C196.907 555.183 197.073 555.06 197.201 554.9C197.329 554.729 197.393 554.516 197.393 554.26C197.393 553.908 197.259 553.641 196.993 553.46C196.726 553.279 196.39 553.135 195.985 553.028C195.59 552.911 195.158 552.809 194.689 552.724C194.219 552.628 193.782 552.5 193.377 552.34C192.982 552.169 192.651 551.935 192.385 551.636C192.118 551.337 191.985 550.921 191.985 550.388C191.985 549.972 192.075 549.615 192.257 549.316C192.449 549.017 192.689 548.777 192.977 548.596C193.275 548.404 193.606 548.265 193.969 548.18C194.342 548.084 194.71 548.036 195.073 548.036C195.542 548.036 195.974 548.079 196.369 548.164C196.763 548.239 197.11 548.377 197.409 548.58C197.718 548.772 197.963 549.039 198.145 549.38C198.326 549.711 198.433 550.127 198.465 550.628H197.105C197.083 550.361 197.014 550.143 196.897 549.972C196.779 549.791 196.63 549.647 196.449 549.54C196.267 549.433 196.065 549.359 195.841 549.316C195.627 549.263 195.409 549.236 195.185 549.236C194.982 549.236 194.774 549.252 194.561 549.284C194.358 549.316 194.171 549.375 194.001 549.46C193.83 549.535 193.691 549.641 193.585 549.78C193.478 549.908 193.424 550.079 193.424 550.292C193.424 550.527 193.504 550.724 193.664 550.884C193.835 551.033 194.049 551.161 194.305 551.268C194.561 551.364 194.849 551.449 195.169 551.524C195.489 551.588 195.809 551.657 196.129 551.732C196.47 551.807 196.801 551.897 197.121 552.004C197.451 552.111 197.739 552.255 197.985 552.436C198.241 552.607 198.443 552.825 198.593 553.092C198.753 553.359 198.833 553.689 198.833 554.084C198.833 554.585 198.726 555.001 198.513 555.332C198.31 555.663 198.038 555.929 197.697 556.132C197.366 556.335 196.987 556.473 196.561 556.548C196.145 556.633 195.729 556.676 195.312 556.676C194.854 556.676 194.417 556.628 194.001 556.532C193.585 556.436 193.217 556.281 192.897 556.068C192.577 555.844 192.321 555.556 192.129 555.204C191.937 554.841 191.83 554.404 191.809 553.892H193.169ZM207.665 556.468C207.43 556.607 207.105 556.676 206.689 556.676C206.337 556.676 206.054 556.58 205.841 556.388C205.638 556.185 205.537 555.86 205.537 555.412C205.163 555.86 204.726 556.185 204.225 556.388C203.734 556.58 203.201 556.676 202.625 556.676C202.251 556.676 201.894 556.633 201.553 556.548C201.222 556.463 200.934 556.329 200.689 556.148C200.443 555.967 200.246 555.732 200.097 555.444C199.958 555.145 199.889 554.788 199.889 554.372C199.889 553.903 199.969 553.519 200.129 553.22C200.289 552.921 200.497 552.681 200.753 552.5C201.019 552.308 201.318 552.164 201.649 552.068C201.99 551.972 202.337 551.892 202.689 551.828C203.062 551.753 203.414 551.7 203.745 551.668C204.086 551.625 204.385 551.572 204.641 551.508C204.897 551.433 205.099 551.332 205.249 551.204C205.398 551.065 205.473 550.868 205.473 550.612C205.473 550.313 205.414 550.073 205.297 549.892C205.19 549.711 205.046 549.572 204.865 549.476C204.694 549.38 204.497 549.316 204.273 549.284C204.059 549.252 203.846 549.236 203.633 549.236C203.057 549.236 202.577 549.348 202.193 549.572C201.809 549.785 201.601 550.196 201.569 550.804H200.209C200.23 550.292 200.337 549.86 200.529 549.508C200.721 549.156 200.977 548.873 201.297 548.66C201.617 548.436 201.979 548.276 202.385 548.18C202.801 548.084 203.243 548.036 203.713 548.036C204.086 548.036 204.454 548.063 204.817 548.116C205.19 548.169 205.526 548.281 205.825 548.452C206.123 548.612 206.363 548.841 206.545 549.14C206.726 549.439 206.817 549.828 206.817 550.308V554.564C206.817 554.884 206.833 555.119 206.865 555.268C206.907 555.417 207.035 555.492 207.249 555.492C207.366 555.492 207.505 555.465 207.665 555.412V556.468ZM205.457 552.228C205.286 552.356 205.062 552.452 204.785 552.516C204.507 552.569 204.214 552.617 203.905 552.66C203.606 552.692 203.302 552.735 202.993 552.788C202.683 552.831 202.406 552.905 202.161 553.012C201.915 553.119 201.713 553.273 201.553 553.476C201.403 553.668 201.329 553.935 201.329 554.276C201.329 554.5 201.371 554.692 201.457 554.852C201.553 555.001 201.67 555.124 201.809 555.22C201.958 555.316 202.129 555.385 202.321 555.428C202.513 555.471 202.715 555.492 202.929 555.492C203.377 555.492 203.761 555.433 204.081 555.316C204.401 555.188 204.662 555.033 204.865 554.852C205.067 554.66 205.217 554.457 205.313 554.244C205.409 554.02 205.457 553.812 205.457 553.62V552.228ZM208.978 545.076H210.338V549.348H210.37C210.594 548.889 210.946 548.559 211.426 548.356C211.906 548.143 212.434 548.036 213.01 548.036C213.65 548.036 214.205 548.153 214.674 548.388C215.154 548.623 215.549 548.943 215.858 549.348C216.178 549.743 216.418 550.201 216.578 550.724C216.738 551.247 216.818 551.801 216.818 552.388C216.818 552.975 216.738 553.529 216.578 554.052C216.429 554.575 216.194 555.033 215.874 555.428C215.565 555.812 215.17 556.116 214.69 556.34C214.221 556.564 213.672 556.676 213.042 556.676C212.84 556.676 212.61 556.655 212.354 556.612C212.109 556.569 211.864 556.5 211.618 556.404C211.373 556.308 211.138 556.18 210.914 556.02C210.701 555.849 210.52 555.641 210.37 555.396H210.338V556.5H208.978V545.076ZM215.378 552.292C215.378 551.908 215.325 551.535 215.218 551.172C215.122 550.799 214.968 550.468 214.754 550.18C214.552 549.892 214.285 549.663 213.954 549.492C213.634 549.321 213.256 549.236 212.818 549.236C212.36 549.236 211.97 549.327 211.65 549.508C211.33 549.689 211.069 549.929 210.866 550.228C210.664 550.516 210.514 550.847 210.418 551.22C210.333 551.593 210.29 551.972 210.29 552.356C210.29 552.761 210.338 553.156 210.434 553.54C210.53 553.913 210.68 554.244 210.882 554.532C211.096 554.82 211.368 555.055 211.698 555.236C212.029 555.407 212.429 555.492 212.898 555.492C213.368 555.492 213.757 555.401 214.066 555.22C214.386 555.039 214.642 554.799 214.834 554.5C215.026 554.201 215.165 553.86 215.25 553.476C215.336 553.092 215.378 552.697 215.378 552.292ZM218.495 545.076H219.855V556.5H218.495V545.076ZM227.706 551.572C227.684 551.252 227.61 550.948 227.482 550.66C227.364 550.372 227.199 550.127 226.986 549.924C226.783 549.711 226.538 549.545 226.25 549.428C225.972 549.3 225.663 549.236 225.322 549.236C224.97 549.236 224.65 549.3 224.362 549.428C224.084 549.545 223.844 549.711 223.642 549.924C223.439 550.137 223.279 550.388 223.162 550.676C223.044 550.953 222.975 551.252 222.954 551.572H227.706ZM229.017 553.876C228.836 554.804 228.436 555.503 227.818 555.972C227.199 556.441 226.42 556.676 225.482 556.676C224.82 556.676 224.244 556.569 223.754 556.356C223.274 556.143 222.868 555.844 222.538 555.46C222.207 555.076 221.956 554.617 221.786 554.084C221.626 553.551 221.535 552.969 221.514 552.34C221.514 551.711 221.61 551.135 221.802 550.612C221.994 550.089 222.26 549.636 222.602 549.252C222.954 548.868 223.364 548.569 223.834 548.356C224.314 548.143 224.836 548.036 225.402 548.036C226.138 548.036 226.746 548.191 227.226 548.5C227.716 548.799 228.106 549.183 228.394 549.652C228.692 550.121 228.895 550.633 229.002 551.188C229.119 551.743 229.167 552.271 229.146 552.772H222.954C222.943 553.135 222.986 553.481 223.082 553.812C223.178 554.132 223.332 554.42 223.546 554.676C223.759 554.921 224.031 555.119 224.362 555.268C224.692 555.417 225.082 555.492 225.53 555.492C226.106 555.492 226.575 555.359 226.938 555.092C227.311 554.825 227.556 554.42 227.674 553.876H229.017ZM231.547 552.436C231.547 552.82 231.595 553.199 231.691 553.572C231.798 553.935 231.953 554.26 232.155 554.548C232.369 554.836 232.635 555.065 232.955 555.236C233.286 555.407 233.67 555.492 234.107 555.492C234.566 555.492 234.955 555.401 235.275 555.22C235.595 555.039 235.857 554.804 236.059 554.516C236.262 554.217 236.406 553.881 236.491 553.508C236.587 553.135 236.635 552.756 236.635 552.372C236.635 551.967 236.587 551.577 236.491 551.204C236.395 550.82 236.241 550.484 236.027 550.196C235.825 549.908 235.558 549.679 235.227 549.508C234.897 549.327 234.497 549.236 234.027 549.236C233.569 549.236 233.179 549.327 232.859 549.508C232.539 549.689 232.283 549.929 232.091 550.228C231.899 550.527 231.761 550.868 231.675 551.252C231.59 551.636 231.547 552.031 231.547 552.436ZM237.947 556.5H236.587V555.38H236.555C236.331 555.839 235.979 556.169 235.499 556.372C235.019 556.575 234.491 556.676 233.915 556.676C233.275 556.676 232.715 556.559 232.235 556.324C231.766 556.089 231.371 555.775 231.051 555.38C230.742 554.985 230.507 554.527 230.347 554.004C230.187 553.481 230.107 552.927 230.107 552.34C230.107 551.753 230.182 551.199 230.331 550.676C230.491 550.153 230.726 549.7 231.035 549.316C231.355 548.921 231.75 548.612 232.219 548.388C232.699 548.153 233.254 548.036 233.883 548.036C234.097 548.036 234.326 548.057 234.571 548.1C234.817 548.143 235.062 548.217 235.307 548.324C235.553 548.42 235.782 548.553 235.995 548.724C236.219 548.884 236.406 549.087 236.555 549.332H236.587V545.076H237.947V556.5Z" fill="black" fill-opacity="0.68"/>
<path fill-rule="evenodd" clip-rule="evenodd" d="M367.833 550.368L362.5 556.205L357.167 550.368L357.164 550.365C356.131 549.232 356.223 547.487 357.37 546.466C358.475 545.483 360.165 545.527 361.216 546.565C361.219 546.568 361.221 546.571 361.224 546.574L362.04 547.34L362.5 547.777L362.96 547.34L363.776 546.574C363.778 546.571 363.781 546.568 363.784 546.565C364.307 546.046 365.018 545.755 365.76 545.757C367.303 545.757 368.554 546.993 368.554 548.517C368.554 549.2 368.298 549.858 367.836 550.365L367.833 550.368ZM369.053 545.264C367.245 543.478 364.321 543.468 362.5 545.232C360.679 543.468 357.755 543.478 355.947 545.264C354.159 547.032 354.129 549.88 355.86 551.682L362.5 558.917L369.14 551.682C370.871 549.88 370.842 547.032 369.053 545.264Z" fill="black" fill-opacity="0.2"/>
<path d="M381.604 545.576H384.116V554.888H389.684V557H381.604V545.576ZM390.952 551.272C390.984 550.739 391.118 550.296 391.352 549.944C391.587 549.592 391.886 549.309 392.248 549.096C392.611 548.883 393.016 548.733 393.464 548.648C393.923 548.552 394.382 548.504 394.84 548.504C395.256 548.504 395.678 548.536 396.104 548.6C396.531 548.653 396.92 548.765 397.272 548.936C397.624 549.107 397.912 549.347 398.136 549.656C398.36 549.955 398.472 550.355 398.472 550.856V555.16C398.472 555.533 398.494 555.891 398.536 556.232C398.579 556.573 398.654 556.829 398.76 557H396.456C396.414 556.872 396.376 556.744 396.344 556.616C396.323 556.477 396.307 556.339 396.296 556.2C395.934 556.573 395.507 556.835 395.016 556.984C394.526 557.133 394.024 557.208 393.512 557.208C393.118 557.208 392.75 557.16 392.408 557.064C392.067 556.968 391.768 556.819 391.512 556.616C391.256 556.413 391.054 556.157 390.904 555.848C390.766 555.539 390.696 555.171 390.696 554.744C390.696 554.275 390.776 553.891 390.936 553.592C391.107 553.283 391.32 553.037 391.576 552.856C391.843 552.675 392.142 552.541 392.472 552.456C392.814 552.36 393.155 552.285 393.496 552.232C393.838 552.179 394.174 552.136 394.504 552.104C394.835 552.072 395.128 552.024 395.384 551.96C395.64 551.896 395.843 551.805 395.992 551.688C396.142 551.56 396.211 551.379 396.2 551.144C396.2 550.899 396.158 550.707 396.072 550.568C395.998 550.419 395.891 550.307 395.752 550.232C395.624 550.147 395.47 550.093 395.288 550.072C395.118 550.04 394.931 550.024 394.728 550.024C394.28 550.024 393.928 550.12 393.672 550.312C393.416 550.504 393.267 550.824 393.224 551.272H390.952ZM396.2 552.952C396.104 553.037 395.982 553.107 395.832 553.16C395.694 553.203 395.539 553.24 395.368 553.272C395.208 553.304 395.038 553.331 394.856 553.352C394.675 553.373 394.494 553.4 394.312 553.432C394.142 553.464 393.971 553.507 393.8 553.56C393.64 553.613 393.496 553.688 393.368 553.784C393.251 553.869 393.155 553.981 393.08 554.12C393.006 554.259 392.968 554.435 392.968 554.648C392.968 554.851 393.006 555.021 393.08 555.16C393.155 555.299 393.256 555.411 393.384 555.496C393.512 555.571 393.662 555.624 393.832 555.656C394.003 555.688 394.179 555.704 394.36 555.704C394.808 555.704 395.155 555.629 395.4 555.48C395.646 555.331 395.827 555.155 395.944 554.952C396.062 554.739 396.131 554.525 396.152 554.312C396.184 554.099 396.2 553.928 396.2 553.8V552.952ZM406.5 552.872C406.5 552.52 406.463 552.184 406.388 551.864C406.313 551.544 406.196 551.261 406.036 551.016C405.876 550.771 405.673 550.579 405.428 550.44C405.193 550.291 404.905 550.216 404.564 550.216C404.233 550.216 403.945 550.291 403.7 550.44C403.455 550.579 403.252 550.771 403.092 551.016C402.932 551.261 402.815 551.544 402.74 551.864C402.665 552.184 402.628 552.52 402.628 552.872C402.628 553.213 402.665 553.544 402.74 553.864C402.815 554.184 402.932 554.467 403.092 554.712C403.252 554.957 403.455 555.155 403.7 555.304C403.945 555.443 404.233 555.512 404.564 555.512C404.905 555.512 405.193 555.443 405.428 555.304C405.673 555.155 405.876 554.957 406.036 554.712C406.196 554.467 406.313 554.184 406.388 553.864C406.463 553.544 406.5 553.213 406.5 552.872ZM400.436 545.576H402.708V549.736H402.74C403.017 549.309 403.391 549 403.86 548.808C404.34 548.605 404.836 548.504 405.348 548.504C405.764 548.504 406.175 548.589 406.58 548.76C406.985 548.931 407.348 549.192 407.668 549.544C407.999 549.896 408.265 550.349 408.468 550.904C408.671 551.448 408.772 552.099 408.772 552.856C408.772 553.613 408.671 554.269 408.468 554.824C408.265 555.368 407.999 555.816 407.668 556.168C407.348 556.52 406.985 556.781 406.58 556.952C406.175 557.123 405.764 557.208 405.348 557.208C404.74 557.208 404.196 557.112 403.716 556.92C403.236 556.728 402.873 556.403 402.628 555.944H402.596V557H400.436V545.576ZM415.985 551.976C415.878 551.4 415.686 550.963 415.409 550.664C415.142 550.365 414.732 550.216 414.177 550.216C413.814 550.216 413.51 550.28 413.265 550.408C413.03 550.525 412.838 550.675 412.689 550.856C412.55 551.037 412.449 551.229 412.385 551.432C412.332 551.635 412.3 551.816 412.289 551.976H415.985ZM412.289 553.416C412.321 554.152 412.508 554.685 412.849 555.016C413.19 555.347 413.681 555.512 414.321 555.512C414.78 555.512 415.174 555.4 415.505 555.176C415.836 554.941 416.038 554.696 416.113 554.44H418.113C417.793 555.432 417.302 556.141 416.641 556.568C415.98 556.995 415.18 557.208 414.241 557.208C413.59 557.208 413.004 557.107 412.481 556.904C411.958 556.691 411.516 556.392 411.153 556.008C410.79 555.624 410.508 555.165 410.305 554.632C410.113 554.099 410.017 553.512 410.017 552.872C410.017 552.253 410.118 551.677 410.321 551.144C410.524 550.611 410.812 550.152 411.185 549.768C411.558 549.373 412.001 549.064 412.513 548.84C413.036 548.616 413.612 548.504 414.241 548.504C414.945 548.504 415.558 548.643 416.081 548.92C416.604 549.187 417.03 549.549 417.361 550.008C417.702 550.467 417.948 550.989 418.097 551.576C418.246 552.163 418.3 552.776 418.257 553.416H412.289ZM419.869 545.576H422.141V557H419.869V545.576Z" fill="black" fill-opacity="0.2"/>
<path d="M380.5 559H423.069V559.8H380.5V559Z" fill="black" fill-opacity="0.2"/>
<path d="M177.748 653.076H185.252V654.356H179.268V657.988H184.516V659.268H179.268V664.5H177.748V653.076ZM187.704 660.372C187.704 660.873 187.768 661.321 187.896 661.716C188.034 662.1 188.221 662.425 188.456 662.692C188.69 662.948 188.962 663.145 189.272 663.284C189.592 663.423 189.928 663.492 190.28 663.492C190.632 663.492 190.962 663.423 191.272 663.284C191.592 663.145 191.869 662.948 192.104 662.692C192.338 662.425 192.52 662.1 192.648 661.716C192.786 661.321 192.856 660.873 192.856 660.372C192.856 659.871 192.786 659.428 192.648 659.044C192.52 658.649 192.338 658.319 192.104 658.052C191.869 657.785 191.592 657.583 191.272 657.444C190.962 657.305 190.632 657.236 190.28 657.236C189.928 657.236 189.592 657.305 189.272 657.444C188.962 657.583 188.69 657.785 188.456 658.052C188.221 658.319 188.034 658.649 187.896 659.044C187.768 659.428 187.704 659.871 187.704 660.372ZM186.264 660.372C186.264 659.764 186.349 659.199 186.52 658.676C186.69 658.143 186.946 657.684 187.288 657.3C187.629 656.905 188.05 656.596 188.552 656.372C189.053 656.148 189.629 656.036 190.28 656.036C190.941 656.036 191.517 656.148 192.008 656.372C192.509 656.596 192.93 656.905 193.272 657.3C193.613 657.684 193.869 658.143 194.04 658.676C194.21 659.199 194.296 659.764 194.296 660.372C194.296 660.98 194.21 661.545 194.04 662.068C193.869 662.591 193.613 663.049 193.272 663.444C192.93 663.828 192.509 664.132 192.008 664.356C191.517 664.569 190.941 664.676 190.28 664.676C189.629 664.676 189.053 664.569 188.552 664.356C188.05 664.132 187.629 663.828 187.288 663.444C186.946 663.049 186.69 662.591 186.52 662.068C186.349 661.545 186.264 660.98 186.264 660.372ZM201.515 658.884C201.408 658.361 201.184 657.956 200.843 657.668C200.502 657.38 200.043 657.236 199.467 657.236C198.976 657.236 198.566 657.327 198.235 657.508C197.904 657.689 197.638 657.929 197.435 658.228C197.243 658.527 197.104 658.873 197.019 659.268C196.934 659.652 196.891 660.052 196.891 660.468C196.891 660.852 196.934 661.225 197.019 661.588C197.115 661.951 197.259 662.276 197.451 662.564C197.643 662.841 197.894 663.065 198.203 663.236C198.512 663.407 198.88 663.492 199.307 663.492C199.979 663.492 200.502 663.316 200.875 662.964C201.259 662.612 201.494 662.116 201.579 661.476H202.971C202.822 662.5 202.438 663.289 201.819 663.844C201.211 664.399 200.379 664.676 199.323 664.676C198.694 664.676 198.134 664.575 197.643 664.372C197.163 664.169 196.758 663.881 196.427 663.508C196.107 663.135 195.862 662.692 195.691 662.18C195.531 661.657 195.451 661.087 195.451 660.468C195.451 659.849 195.531 659.273 195.691 658.74C195.851 658.196 196.091 657.727 196.411 657.332C196.742 656.927 197.152 656.612 197.643 656.388C198.134 656.153 198.704 656.036 199.355 656.036C199.824 656.036 200.262 656.095 200.667 656.212C201.083 656.319 201.446 656.489 201.755 656.724C202.075 656.959 202.336 657.257 202.539 657.62C202.742 657.972 202.87 658.393 202.923 658.884H201.515ZM211.341 664.5H210.061V663.188H210.029C209.741 663.7 209.373 664.079 208.925 664.324C208.477 664.559 207.949 664.676 207.341 664.676C206.797 664.676 206.343 664.607 205.981 664.468C205.618 664.319 205.325 664.111 205.101 663.844C204.877 663.577 204.717 663.263 204.621 662.9C204.535 662.527 204.493 662.116 204.493 661.668V656.228H205.853V661.828C205.853 662.34 206.002 662.745 206.301 663.044C206.599 663.343 207.01 663.492 207.533 663.492C207.949 663.492 208.306 663.428 208.605 663.3C208.914 663.172 209.17 662.991 209.373 662.756C209.575 662.521 209.725 662.249 209.821 661.94C209.927 661.62 209.981 661.273 209.981 660.9V656.228H211.341V664.5ZM214.215 661.892C214.226 662.191 214.295 662.447 214.423 662.66C214.551 662.863 214.717 663.028 214.919 663.156C215.133 663.273 215.367 663.359 215.623 663.412C215.89 663.465 216.162 663.492 216.439 663.492C216.653 663.492 216.877 663.476 217.111 663.444C217.346 663.412 217.559 663.353 217.751 663.268C217.954 663.183 218.119 663.06 218.247 662.9C218.375 662.729 218.439 662.516 218.439 662.26C218.439 661.908 218.306 661.641 218.039 661.46C217.773 661.279 217.437 661.135 217.031 661.028C216.637 660.911 216.205 660.809 215.735 660.724C215.266 660.628 214.829 660.5 214.423 660.34C214.029 660.169 213.698 659.935 213.431 659.636C213.165 659.337 213.031 658.921 213.031 658.388C213.031 657.972 213.122 657.615 213.303 657.316C213.495 657.017 213.735 656.777 214.023 656.596C214.322 656.404 214.653 656.265 215.015 656.18C215.389 656.084 215.757 656.036 216.119 656.036C216.589 656.036 217.021 656.079 217.415 656.164C217.81 656.239 218.157 656.377 218.455 656.58C218.765 656.772 219.01 657.039 219.191 657.38C219.373 657.711 219.479 658.127 219.511 658.628H218.151C218.13 658.361 218.061 658.143 217.943 657.972C217.826 657.791 217.677 657.647 217.495 657.54C217.314 657.433 217.111 657.359 216.887 657.316C216.674 657.263 216.455 657.236 216.231 657.236C216.029 657.236 215.821 657.252 215.607 657.284C215.405 657.316 215.218 657.375 215.047 657.46C214.877 657.535 214.738 657.641 214.631 657.78C214.525 657.908 214.471 658.079 214.471 658.292C214.471 658.527 214.551 658.724 214.711 658.884C214.882 659.033 215.095 659.161 215.351 659.268C215.607 659.364 215.895 659.449 216.215 659.524C216.535 659.588 216.855 659.657 217.175 659.732C217.517 659.807 217.847 659.897 218.167 660.004C218.498 660.111 218.786 660.255 219.031 660.436C219.287 660.607 219.49 660.825 219.639 661.092C219.799 661.359 219.879 661.689 219.879 662.084C219.879 662.585 219.773 663.001 219.559 663.332C219.357 663.663 219.085 663.929 218.743 664.132C218.413 664.335 218.034 664.473 217.607 664.548C217.191 664.633 216.775 664.676 216.359 664.676C215.901 664.676 215.463 664.628 215.047 664.532C214.631 664.436 214.263 664.281 213.943 664.068C213.623 663.844 213.367 663.556 213.175 663.204C212.983 662.841 212.877 662.404 212.855 661.892H214.215Z" fill="black" fill-opacity="0.68"/>
<mask id="path-14-outside-1_61394_177872" maskUnits="userSpaceOnUse" x="347.5" y="630" width="81" height="58" fill="black">
<rect fill="white" x="347.5" y="630" width="81" height="58"/>
<path d="M352.5 635H423.5V683H352.5V635Z"/>
</mask>
<path d="M352.5 635V630H347.5V635H352.5ZM423.5 635H428.5V630H423.5V635ZM423.5 683V688H428.5V683H423.5ZM352.5 683H347.5V688H352.5V683ZM352.5 635V640H423.5V635V630H352.5V635ZM423.5 635H418.5V683H423.5H428.5V635H423.5ZM423.5 683V678H352.5V683V688H423.5V683ZM352.5 683H357.5V635H352.5H347.5V683H352.5Z" fill="black" mask="url(#path-14-outside-1_61394_177872)"/>
<mask id="path-16-outside-2_61394_177872" maskUnits="userSpaceOnUse" x="350.5" y="633" width="75" height="52" fill="black">
<rect fill="white" x="350.5" y="633" width="75" height="52"/>
<path d="M352.5 635H423.5V683H352.5V635Z"/>
</mask>
<path d="M352.5 635V633H350.5V635H352.5ZM423.5 635H425.5V633H423.5V635ZM423.5 683V685H425.5V683H423.5ZM352.5 683H350.5V685H352.5V683ZM352.5 635V637H423.5V635V633H352.5V635ZM423.5 635H421.5V683H423.5H425.5V635H423.5ZM423.5 683V681H352.5V683V685H423.5V683ZM352.5 683H354.5V635H352.5H350.5V683H352.5Z" fill="white" mask="url(#path-16-outside-2_61394_177872)"/>
<path fill-rule="evenodd" clip-rule="evenodd" d="M367.833 658.368L362.5 664.205L357.167 658.368L357.164 658.365C356.131 657.232 356.223 655.487 357.37 654.466C358.475 653.483 360.165 653.527 361.216 654.565C361.219 654.568 361.221 654.571 361.224 654.574L362.04 655.34L362.5 655.777L362.96 655.34L363.776 654.574C363.778 654.571 363.781 654.568 363.784 654.565C364.307 654.046 365.018 653.755 365.76 653.757C367.303 653.757 368.554 654.993 368.554 656.517C368.554 657.2 368.298 657.858 367.836 658.365L367.833 658.368ZM369.053 653.264C367.245 651.478 364.321 651.468 362.5 653.232C360.679 651.468 357.755 651.478 355.947 653.264C354.159 655.032 354.129 657.88 355.86 659.682L362.5 666.917L369.14 659.682C370.871 657.88 370.842 655.032 369.053 653.264Z" fill="black" fill-opacity="0.68"/>
<path d="M381.604 653.576H384.116V662.888H389.684V665H381.604V653.576ZM390.952 659.272C390.984 658.739 391.118 658.296 391.352 657.944C391.587 657.592 391.886 657.309 392.248 657.096C392.611 656.883 393.016 656.733 393.464 656.648C393.923 656.552 394.382 656.504 394.84 656.504C395.256 656.504 395.678 656.536 396.104 656.6C396.531 656.653 396.92 656.765 397.272 656.936C397.624 657.107 397.912 657.347 398.136 657.656C398.36 657.955 398.472 658.355 398.472 658.856V663.16C398.472 663.533 398.494 663.891 398.536 664.232C398.579 664.573 398.654 664.829 398.76 665H396.456C396.414 664.872 396.376 664.744 396.344 664.616C396.323 664.477 396.307 664.339 396.296 664.2C395.934 664.573 395.507 664.835 395.016 664.984C394.526 665.133 394.024 665.208 393.512 665.208C393.118 665.208 392.75 665.16 392.408 665.064C392.067 664.968 391.768 664.819 391.512 664.616C391.256 664.413 391.054 664.157 390.904 663.848C390.766 663.539 390.696 663.171 390.696 662.744C390.696 662.275 390.776 661.891 390.936 661.592C391.107 661.283 391.32 661.037 391.576 660.856C391.843 660.675 392.142 660.541 392.472 660.456C392.814 660.36 393.155 660.285 393.496 660.232C393.838 660.179 394.174 660.136 394.504 660.104C394.835 660.072 395.128 660.024 395.384 659.96C395.64 659.896 395.843 659.805 395.992 659.688C396.142 659.56 396.211 659.379 396.2 659.144C396.2 658.899 396.158 658.707 396.072 658.568C395.998 658.419 395.891 658.307 395.752 658.232C395.624 658.147 395.47 658.093 395.288 658.072C395.118 658.04 394.931 658.024 394.728 658.024C394.28 658.024 393.928 658.12 393.672 658.312C393.416 658.504 393.267 658.824 393.224 659.272H390.952ZM396.2 660.952C396.104 661.037 395.982 661.107 395.832 661.16C395.694 661.203 395.539 661.24 395.368 661.272C395.208 661.304 395.038 661.331 394.856 661.352C394.675 661.373 394.494 661.4 394.312 661.432C394.142 661.464 393.971 661.507 393.8 661.56C393.64 661.613 393.496 661.688 393.368 661.784C393.251 661.869 393.155 661.981 393.08 662.12C393.006 662.259 392.968 662.435 392.968 662.648C392.968 662.851 393.006 663.021 393.08 663.16C393.155 663.299 393.256 663.411 393.384 663.496C393.512 663.571 393.662 663.624 393.832 663.656C394.003 663.688 394.179 663.704 394.36 663.704C394.808 663.704 395.155 663.629 395.4 663.48C395.646 663.331 395.827 663.155 395.944 662.952C396.062 662.739 396.131 662.525 396.152 662.312C396.184 662.099 396.2 661.928 396.2 661.8V660.952ZM406.5 660.872C406.5 660.52 406.463 660.184 406.388 659.864C406.313 659.544 406.196 659.261 406.036 659.016C405.876 658.771 405.673 658.579 405.428 658.44C405.193 658.291 404.905 658.216 404.564 658.216C404.233 658.216 403.945 658.291 403.7 658.44C403.455 658.579 403.252 658.771 403.092 659.016C402.932 659.261 402.815 659.544 402.74 659.864C402.665 660.184 402.628 660.52 402.628 660.872C402.628 661.213 402.665 661.544 402.74 661.864C402.815 662.184 402.932 662.467 403.092 662.712C403.252 662.957 403.455 663.155 403.7 663.304C403.945 663.443 404.233 663.512 404.564 663.512C404.905 663.512 405.193 663.443 405.428 663.304C405.673 663.155 405.876 662.957 406.036 662.712C406.196 662.467 406.313 662.184 406.388 661.864C406.463 661.544 406.5 661.213 406.5 660.872ZM400.436 653.576H402.708V657.736H402.74C403.017 657.309 403.391 657 403.86 656.808C404.34 656.605 404.836 656.504 405.348 656.504C405.764 656.504 406.175 656.589 406.58 656.76C406.985 656.931 407.348 657.192 407.668 657.544C407.999 657.896 408.265 658.349 408.468 658.904C408.671 659.448 408.772 660.099 408.772 660.856C408.772 661.613 408.671 662.269 408.468 662.824C408.265 663.368 407.999 663.816 407.668 664.168C407.348 664.52 406.985 664.781 406.58 664.952C406.175 665.123 405.764 665.208 405.348 665.208C404.74 665.208 404.196 665.112 403.716 664.92C403.236 664.728 402.873 664.403 402.628 663.944H402.596V665H400.436V653.576ZM415.985 659.976C415.878 659.4 415.686 658.963 415.409 658.664C415.142 658.365 414.732 658.216 414.177 658.216C413.814 658.216 413.51 658.28 413.265 658.408C413.03 658.525 412.838 658.675 412.689 658.856C412.55 659.037 412.449 659.229 412.385 659.432C412.332 659.635 412.3 659.816 412.289 659.976H415.985ZM412.289 661.416C412.321 662.152 412.508 662.685 412.849 663.016C413.19 663.347 413.681 663.512 414.321 663.512C414.78 663.512 415.174 663.4 415.505 663.176C415.836 662.941 416.038 662.696 416.113 662.44H418.113C417.793 663.432 417.302 664.141 416.641 664.568C415.98 664.995 415.18 665.208 414.241 665.208C413.59 665.208 413.004 665.107 412.481 664.904C411.958 664.691 411.516 664.392 411.153 664.008C410.79 663.624 410.508 663.165 410.305 662.632C410.113 662.099 410.017 661.512 410.017 660.872C410.017 660.253 410.118 659.677 410.321 659.144C410.524 658.611 410.812 658.152 411.185 657.768C411.558 657.373 412.001 657.064 412.513 656.84C413.036 656.616 413.612 656.504 414.241 656.504C414.945 656.504 415.558 656.643 416.081 656.92C416.604 657.187 417.03 657.549 417.361 658.008C417.702 658.467 417.948 658.989 418.097 659.576C418.246 660.163 418.3 660.776 418.257 661.416H412.289ZM419.869 653.576H422.141V665H419.869V653.576Z" fill="black" fill-opacity="0.68"/>
<path d="M380.5 667H423.069V667.8H380.5V667Z" fill="black" fill-opacity="0.68"/>
<path d="M186.356 764.42C186.271 763.599 185.972 763.007 185.46 762.644C184.959 762.271 184.313 762.084 183.524 762.084C183.204 762.084 182.889 762.116 182.58 762.18C182.271 762.244 181.993 762.351 181.748 762.5C181.513 762.649 181.321 762.852 181.172 763.108C181.033 763.353 180.964 763.663 180.964 764.036C180.964 764.388 181.065 764.676 181.268 764.9C181.481 765.113 181.759 765.289 182.1 765.428C182.452 765.567 182.847 765.684 183.284 765.78C183.721 765.865 184.164 765.961 184.612 766.068C185.071 766.175 185.519 766.303 185.956 766.452C186.393 766.591 186.783 766.783 187.124 767.028C187.476 767.273 187.753 767.583 187.956 767.956C188.169 768.329 188.276 768.799 188.276 769.364C188.276 769.972 188.137 770.495 187.86 770.932C187.593 771.359 187.247 771.711 186.82 771.988C186.393 772.255 185.913 772.447 185.38 772.564C184.857 772.692 184.335 772.756 183.812 772.756C183.172 772.756 182.564 772.676 181.988 772.516C181.423 772.356 180.921 772.116 180.484 771.796C180.057 771.465 179.716 771.049 179.46 770.548C179.215 770.036 179.092 769.433 179.092 768.74H180.532C180.532 769.22 180.623 769.636 180.804 769.988C180.996 770.329 181.241 770.612 181.54 770.836C181.849 771.06 182.207 771.225 182.612 771.332C183.017 771.439 183.433 771.492 183.86 771.492C184.201 771.492 184.543 771.46 184.884 771.396C185.236 771.332 185.551 771.225 185.828 771.076C186.105 770.916 186.329 770.703 186.5 770.436C186.671 770.169 186.756 769.828 186.756 769.412C186.756 769.017 186.649 768.697 186.436 768.452C186.233 768.207 185.956 768.009 185.604 767.86C185.263 767.7 184.873 767.572 184.436 767.476C183.999 767.38 183.551 767.284 183.092 767.188C182.644 767.081 182.201 766.964 181.764 766.836C181.327 766.697 180.932 766.521 180.58 766.308C180.239 766.084 179.961 765.801 179.748 765.46C179.545 765.108 179.444 764.671 179.444 764.148C179.444 763.572 179.561 763.076 179.796 762.66C180.031 762.233 180.34 761.887 180.724 761.62C181.119 761.343 181.561 761.14 182.052 761.012C182.553 760.873 183.065 760.804 183.588 760.804C184.175 760.804 184.719 760.873 185.22 761.012C185.721 761.151 186.159 761.369 186.532 761.668C186.916 761.967 187.215 762.345 187.428 762.804C187.652 763.252 187.775 763.791 187.796 764.42H186.356ZM189.979 761.076H191.339V767.844L195.115 764.228H196.939L193.659 767.236L197.179 772.5H195.451L192.619 768.18L191.339 769.364V772.5H189.979V761.076ZM203.94 767.572C203.919 767.252 203.844 766.948 203.716 766.66C203.599 766.372 203.433 766.127 203.22 765.924C203.017 765.711 202.772 765.545 202.484 765.428C202.207 765.3 201.897 765.236 201.556 765.236C201.204 765.236 200.884 765.3 200.596 765.428C200.319 765.545 200.079 765.711 199.876 765.924C199.673 766.137 199.513 766.388 199.396 766.676C199.279 766.953 199.209 767.252 199.188 767.572H203.94ZM205.252 769.876C205.071 770.804 204.671 771.503 204.052 771.972C203.433 772.441 202.655 772.676 201.716 772.676C201.055 772.676 200.479 772.569 199.988 772.356C199.508 772.143 199.103 771.844 198.772 771.46C198.441 771.076 198.191 770.617 198.02 770.084C197.86 769.551 197.769 768.969 197.748 768.34C197.748 767.711 197.844 767.135 198.036 766.612C198.228 766.089 198.495 765.636 198.836 765.252C199.188 764.868 199.599 764.569 200.068 764.356C200.548 764.143 201.071 764.036 201.636 764.036C202.372 764.036 202.98 764.191 203.46 764.5C203.951 764.799 204.34 765.183 204.628 765.652C204.927 766.121 205.129 766.633 205.236 767.188C205.353 767.743 205.401 768.271 205.38 768.772H199.188C199.177 769.135 199.22 769.481 199.316 769.812C199.412 770.132 199.567 770.42 199.78 770.676C199.993 770.921 200.265 771.119 200.596 771.268C200.927 771.417 201.316 771.492 201.764 771.492C202.34 771.492 202.809 771.359 203.172 771.092C203.545 770.825 203.791 770.42 203.908 769.876H205.252ZM206.87 761.076H208.23V772.5H206.87V761.076ZM216.081 767.572C216.059 767.252 215.985 766.948 215.857 766.66C215.739 766.372 215.574 766.127 215.361 765.924C215.158 765.711 214.913 765.545 214.625 765.428C214.347 765.3 214.038 765.236 213.697 765.236C213.345 765.236 213.025 765.3 212.737 765.428C212.459 765.545 212.219 765.711 212.017 765.924C211.814 766.137 211.654 766.388 211.537 766.676C211.419 766.953 211.35 767.252 211.329 767.572H216.081ZM217.392 769.876C217.211 770.804 216.811 771.503 216.193 771.972C215.574 772.441 214.795 772.676 213.857 772.676C213.195 772.676 212.619 772.569 212.129 772.356C211.649 772.143 211.243 771.844 210.913 771.46C210.582 771.076 210.331 770.617 210.161 770.084C210.001 769.551 209.91 768.969 209.889 768.34C209.889 767.711 209.985 767.135 210.177 766.612C210.369 766.089 210.635 765.636 210.977 765.252C211.329 764.868 211.739 764.569 212.209 764.356C212.689 764.143 213.211 764.036 213.777 764.036C214.513 764.036 215.121 764.191 215.601 764.5C216.091 764.799 216.481 765.183 216.769 765.652C217.067 766.121 217.27 766.633 217.377 767.188C217.494 767.743 217.542 768.271 217.521 768.772H211.329C211.318 769.135 211.361 769.481 211.457 769.812C211.553 770.132 211.707 770.42 211.921 770.676C212.134 770.921 212.406 771.119 212.737 771.268C213.067 771.417 213.457 771.492 213.905 771.492C214.481 771.492 214.95 771.359 215.313 771.092C215.686 770.825 215.931 770.42 216.049 769.876H217.392ZM220.818 764.228H222.466V765.428H220.818V770.564C220.818 770.724 220.829 770.852 220.85 770.948C220.882 771.044 220.936 771.119 221.01 771.172C221.085 771.225 221.186 771.263 221.314 771.284C221.453 771.295 221.629 771.3 221.842 771.3H222.466V772.5H221.426C221.074 772.5 220.77 772.479 220.514 772.436C220.269 772.383 220.066 772.292 219.906 772.164C219.757 772.036 219.645 771.855 219.57 771.62C219.496 771.385 219.458 771.076 219.458 770.692V765.428H218.05V764.228H219.458V761.748H220.818V764.228ZM224.969 768.372C224.969 768.873 225.033 769.321 225.161 769.716C225.3 770.1 225.486 770.425 225.721 770.692C225.956 770.948 226.228 771.145 226.537 771.284C226.857 771.423 227.193 771.492 227.545 771.492C227.897 771.492 228.228 771.423 228.537 771.284C228.857 771.145 229.134 770.948 229.369 770.692C229.604 770.425 229.785 770.1 229.913 769.716C230.052 769.321 230.121 768.873 230.121 768.372C230.121 767.871 230.052 767.428 229.913 767.044C229.785 766.649 229.604 766.319 229.369 766.052C229.134 765.785 228.857 765.583 228.537 765.444C228.228 765.305 227.897 765.236 227.545 765.236C227.193 765.236 226.857 765.305 226.537 765.444C226.228 765.583 225.956 765.785 225.721 766.052C225.486 766.319 225.3 766.649 225.161 767.044C225.033 767.428 224.969 767.871 224.969 768.372ZM223.529 768.372C223.529 767.764 223.614 767.199 223.785 766.676C223.956 766.143 224.212 765.684 224.553 765.3C224.894 764.905 225.316 764.596 225.817 764.372C226.318 764.148 226.894 764.036 227.545 764.036C228.206 764.036 228.782 764.148 229.273 764.372C229.774 764.596 230.196 764.905 230.537 765.3C230.878 765.684 231.134 766.143 231.305 766.676C231.476 767.199 231.561 767.764 231.561 768.372C231.561 768.98 231.476 769.545 231.305 770.068C231.134 770.591 230.878 771.049 230.537 771.444C230.196 771.828 229.774 772.132 229.273 772.356C228.782 772.569 228.206 772.676 227.545 772.676C226.894 772.676 226.318 772.569 225.817 772.356C225.316 772.132 224.894 771.828 224.553 771.444C224.212 771.049 223.956 770.591 223.785 770.068C223.614 769.545 223.529 768.98 223.529 768.372ZM233.165 764.228H234.445V765.54H234.477C235.042 764.537 235.938 764.036 237.165 764.036C237.709 764.036 238.162 764.111 238.525 764.26C238.887 764.409 239.181 764.617 239.405 764.884C239.629 765.151 239.783 765.471 239.869 765.844C239.965 766.207 240.013 766.612 240.013 767.06V772.5H238.653V766.9C238.653 766.388 238.503 765.983 238.205 765.684C237.906 765.385 237.495 765.236 236.973 765.236C236.557 765.236 236.194 765.3 235.885 765.428C235.586 765.556 235.335 765.737 235.133 765.972C234.93 766.207 234.775 766.484 234.669 766.804C234.573 767.113 234.525 767.455 234.525 767.828V772.5H233.165V764.228Z" fill="black" fill-opacity="0.68"/>
<g clip-path="url(#clip0_61394_177872)">
<rect width="67" height="48" transform="translate(354.5 743)" fill="black" fill-opacity="0.04"/>
</g>
<defs>
<clipPath id="clip0_61394_177872">
<rect width="67" height="48" fill="white" transform="translate(354.5 743)"/>
</clipPath>
</defs>
</svg>
