<svg width="600" height="252" viewBox="0 0 600 252" fill="none" xmlns="http://www.w3.org/2000/svg">
<rect width="600" height="252" fill="black" fill-opacity="0.04"/>
<path d="M179.268 83.22H181.796C181.967 83.22 182.18 83.2093 182.436 83.188C182.692 83.156 182.964 83.092 183.252 82.996C183.54 82.8893 183.823 82.74 184.1 82.548C184.388 82.356 184.644 82.0947 184.868 81.764C185.092 81.4333 185.273 81.0227 185.412 80.532C185.561 80.0307 185.636 79.428 185.636 78.724C185.636 78.0413 185.567 77.4333 185.428 76.9C185.3 76.356 185.081 75.8973 184.772 75.524C184.473 75.14 184.084 74.852 183.604 74.66C183.124 74.4573 182.532 74.356 181.828 74.356H179.268V83.22ZM177.748 73.076H181.668C183.428 73.076 184.783 73.524 185.732 74.42C186.681 75.316 187.156 76.6813 187.156 78.516C187.156 79.476 187.049 80.3293 186.836 81.076C186.623 81.812 186.292 82.436 185.844 82.948C185.396 83.4493 184.825 83.8333 184.132 84.1C183.439 84.3667 182.617 84.5 181.668 84.5H177.748V73.076ZM194.534 79.572C194.512 79.252 194.438 78.948 194.31 78.66C194.192 78.372 194.027 78.1267 193.814 77.924C193.611 77.7107 193.366 77.5453 193.078 77.428C192.8 77.3 192.491 77.236 192.15 77.236C191.798 77.236 191.478 77.3 191.19 77.428C190.912 77.5453 190.672 77.7107 190.47 77.924C190.267 78.1373 190.107 78.388 189.99 78.676C189.872 78.9533 189.803 79.252 189.782 79.572H194.534ZM195.846 81.876C195.664 82.804 195.264 83.5027 194.646 83.972C194.027 84.4413 193.248 84.676 192.31 84.676C191.648 84.676 191.072 84.5693 190.582 84.356C190.102 84.1427 189.696 83.844 189.366 83.46C189.035 83.076 188.784 82.6173 188.614 82.084C188.454 81.5507 188.363 80.9693 188.342 80.34C188.342 79.7107 188.438 79.1347 188.63 78.612C188.822 78.0893 189.088 77.636 189.43 77.252C189.782 76.868 190.192 76.5693 190.662 76.356C191.142 76.1427 191.664 76.036 192.23 76.036C192.966 76.036 193.574 76.1907 194.054 76.5C194.544 76.7987 194.934 77.1827 195.222 77.652C195.52 78.1213 195.723 78.6333 195.83 79.188C195.947 79.7427 195.995 80.2707 195.974 80.772H189.782C189.771 81.1347 189.814 81.4813 189.91 81.812C190.006 82.132 190.16 82.42 190.374 82.676C190.587 82.9213 190.859 83.1187 191.19 83.268C191.52 83.4173 191.91 83.492 192.358 83.492C192.934 83.492 193.403 83.3587 193.766 83.092C194.139 82.8253 194.384 82.42 194.502 81.876H195.846ZM197.943 77.428H196.551V76.228H197.943V74.996C197.943 74.324 198.135 73.8173 198.519 73.476C198.914 73.124 199.485 72.948 200.231 72.948C200.359 72.948 200.503 72.9587 200.663 72.98C200.834 73.0013 200.983 73.0333 201.111 73.076V74.26C200.994 74.2173 200.866 74.1907 200.727 74.18C200.589 74.1587 200.461 74.148 200.343 74.148C200.013 74.148 199.757 74.212 199.575 74.34C199.394 74.468 199.303 74.7133 199.303 75.076V76.228H200.903V77.428H199.303V84.5H197.943V77.428ZM209.446 84.468C209.211 84.6067 208.886 84.676 208.47 84.676C208.118 84.676 207.835 84.58 207.622 84.388C207.419 84.1853 207.318 83.86 207.318 83.412C206.944 83.86 206.507 84.1853 206.006 84.388C205.515 84.58 204.982 84.676 204.406 84.676C204.032 84.676 203.675 84.6333 203.334 84.548C203.003 84.4627 202.715 84.3293 202.47 84.148C202.224 83.9667 202.027 83.732 201.878 83.444C201.739 83.1453 201.67 82.788 201.67 82.372C201.67 81.9027 201.75 81.5187 201.91 81.22C202.07 80.9213 202.278 80.6813 202.534 80.5C202.8 80.308 203.099 80.164 203.43 80.068C203.771 79.972 204.118 79.892 204.47 79.828C204.843 79.7533 205.195 79.7 205.526 79.668C205.867 79.6253 206.166 79.572 206.422 79.508C206.678 79.4333 206.88 79.332 207.03 79.204C207.179 79.0653 207.254 78.868 207.254 78.612C207.254 78.3133 207.195 78.0733 207.078 77.892C206.971 77.7107 206.827 77.572 206.646 77.476C206.475 77.38 206.278 77.316 206.054 77.284C205.84 77.252 205.627 77.236 205.414 77.236C204.838 77.236 204.358 77.348 203.974 77.572C203.59 77.7853 203.382 78.196 203.35 78.804H201.99C202.011 78.292 202.118 77.86 202.31 77.508C202.502 77.156 202.758 76.8733 203.078 76.66C203.398 76.436 203.76 76.276 204.166 76.18C204.582 76.084 205.024 76.036 205.494 76.036C205.867 76.036 206.235 76.0627 206.598 76.116C206.971 76.1693 207.307 76.2813 207.606 76.452C207.904 76.612 208.144 76.8413 208.326 77.14C208.507 77.4387 208.598 77.828 208.598 78.308V82.564C208.598 82.884 208.614 83.1187 208.646 83.268C208.688 83.4173 208.816 83.492 209.03 83.492C209.147 83.492 209.286 83.4653 209.446 83.412V84.468ZM207.238 80.228C207.067 80.356 206.843 80.452 206.566 80.516C206.288 80.5693 205.995 80.6173 205.686 80.66C205.387 80.692 205.083 80.7347 204.774 80.788C204.464 80.8307 204.187 80.9053 203.942 81.012C203.696 81.1187 203.494 81.2733 203.334 81.476C203.184 81.668 203.11 81.9347 203.11 82.276C203.11 82.5 203.152 82.692 203.238 82.852C203.334 83.0013 203.451 83.124 203.59 83.22C203.739 83.316 203.91 83.3853 204.102 83.428C204.294 83.4707 204.496 83.492 204.71 83.492C205.158 83.492 205.542 83.4333 205.862 83.316C206.182 83.188 206.443 83.0333 206.646 82.852C206.848 82.66 206.998 82.4573 207.094 82.244C207.19 82.02 207.238 81.812 207.238 81.62V80.228ZM217.56 84.5H216.28V83.188H216.248C215.96 83.7 215.592 84.0787 215.144 84.324C214.696 84.5587 214.168 84.676 213.56 84.676C213.016 84.676 212.562 84.6067 212.2 84.468C211.837 84.3187 211.544 84.1107 211.32 83.844C211.096 83.5773 210.936 83.2627 210.84 82.9C210.754 82.5267 210.712 82.116 210.712 81.668V76.228H212.072V81.828C212.072 82.34 212.221 82.7453 212.52 83.044C212.818 83.3427 213.229 83.492 213.752 83.492C214.168 83.492 214.525 83.428 214.824 83.3C215.133 83.172 215.389 82.9907 215.592 82.756C215.794 82.5213 215.944 82.2493 216.04 81.94C216.146 81.62 216.2 81.2733 216.2 80.9V76.228H217.56V84.5ZM219.682 73.076H221.042V84.5H219.682V73.076ZM225.037 76.228H226.685V77.428H225.037V82.564C225.037 82.724 225.048 82.852 225.069 82.948C225.101 83.044 225.154 83.1187 225.229 83.172C225.304 83.2253 225.405 83.2627 225.533 83.284C225.672 83.2947 225.848 83.3 226.061 83.3H226.685V84.5H225.645C225.293 84.5 224.989 84.4787 224.733 84.436C224.488 84.3827 224.285 84.292 224.125 84.164C223.976 84.036 223.864 83.8547 223.789 83.62C223.714 83.3853 223.677 83.076 223.677 82.692V77.428H222.269V76.228H223.677V73.748H225.037V76.228Z" fill="black" fill-opacity="0.68"/>
<path fill-rule="evenodd" clip-rule="evenodd" d="M367.833 78.3682L362.5 84.2053L357.167 78.3682L357.164 78.3653C356.131 77.2325 356.223 75.4868 357.37 74.4663C358.475 73.4833 360.165 73.5266 361.216 74.5653C361.219 74.5682 361.221 74.5709 361.224 74.5736L362.04 75.3397L362.5 75.7773L362.96 75.3399L363.776 74.5736C363.778 74.5709 363.781 74.5682 363.784 74.5653C364.307 74.0458 365.018 73.7549 365.76 73.7569C367.303 73.7569 368.554 74.9926 368.554 76.5175C368.554 77.2 368.298 77.8583 367.836 78.3653L367.833 78.3682ZM369.053 73.2641C367.245 71.4779 364.321 71.4676 362.5 73.232C360.679 71.4676 357.755 71.4779 355.947 73.2641C354.159 75.0317 354.129 77.8796 355.86 79.6824L362.5 86.9165L369.14 79.6824C370.871 77.8796 370.842 75.0317 369.053 73.2641Z" fill="black"/>
<path d="M381.604 73.576H384.116V82.888H389.684V85H381.604V73.576ZM390.952 79.272C390.984 78.7387 391.118 78.296 391.352 77.944C391.587 77.592 391.886 77.3093 392.248 77.096C392.611 76.8827 393.016 76.7333 393.464 76.648C393.923 76.552 394.382 76.504 394.84 76.504C395.256 76.504 395.678 76.536 396.104 76.6C396.531 76.6533 396.92 76.7653 397.272 76.936C397.624 77.1067 397.912 77.3467 398.136 77.656C398.36 77.9547 398.472 78.3547 398.472 78.856V83.16C398.472 83.5333 398.494 83.8907 398.536 84.232C398.579 84.5733 398.654 84.8293 398.76 85H396.456C396.414 84.872 396.376 84.744 396.344 84.616C396.323 84.4773 396.307 84.3387 396.296 84.2C395.934 84.5733 395.507 84.8347 395.016 84.984C394.526 85.1333 394.024 85.208 393.512 85.208C393.118 85.208 392.75 85.16 392.408 85.064C392.067 84.968 391.768 84.8187 391.512 84.616C391.256 84.4133 391.054 84.1573 390.904 83.848C390.766 83.5387 390.696 83.1707 390.696 82.744C390.696 82.2747 390.776 81.8907 390.936 81.592C391.107 81.2827 391.32 81.0373 391.576 80.856C391.843 80.6747 392.142 80.5413 392.472 80.456C392.814 80.36 393.155 80.2853 393.496 80.232C393.838 80.1787 394.174 80.136 394.504 80.104C394.835 80.072 395.128 80.024 395.384 79.96C395.64 79.896 395.843 79.8053 395.992 79.688C396.142 79.56 396.211 79.3787 396.2 79.144C396.2 78.8987 396.158 78.7067 396.072 78.568C395.998 78.4187 395.891 78.3067 395.752 78.232C395.624 78.1467 395.47 78.0933 395.288 78.072C395.118 78.04 394.931 78.024 394.728 78.024C394.28 78.024 393.928 78.12 393.672 78.312C393.416 78.504 393.267 78.824 393.224 79.272H390.952ZM396.2 80.952C396.104 81.0373 395.982 81.1067 395.832 81.16C395.694 81.2027 395.539 81.24 395.368 81.272C395.208 81.304 395.038 81.3307 394.856 81.352C394.675 81.3733 394.494 81.4 394.312 81.432C394.142 81.464 393.971 81.5067 393.8 81.56C393.64 81.6133 393.496 81.688 393.368 81.784C393.251 81.8693 393.155 81.9813 393.08 82.12C393.006 82.2587 392.968 82.4347 392.968 82.648C392.968 82.8507 393.006 83.0213 393.08 83.16C393.155 83.2987 393.256 83.4107 393.384 83.496C393.512 83.5707 393.662 83.624 393.832 83.656C394.003 83.688 394.179 83.704 394.36 83.704C394.808 83.704 395.155 83.6293 395.4 83.48C395.646 83.3307 395.827 83.1547 395.944 82.952C396.062 82.7387 396.131 82.5253 396.152 82.312C396.184 82.0987 396.2 81.928 396.2 81.8V80.952ZM406.5 80.872C406.5 80.52 406.463 80.184 406.388 79.864C406.313 79.544 406.196 79.2613 406.036 79.016C405.876 78.7707 405.673 78.5787 405.428 78.44C405.193 78.2907 404.905 78.216 404.564 78.216C404.233 78.216 403.945 78.2907 403.7 78.44C403.455 78.5787 403.252 78.7707 403.092 79.016C402.932 79.2613 402.815 79.544 402.74 79.864C402.665 80.184 402.628 80.52 402.628 80.872C402.628 81.2133 402.665 81.544 402.74 81.864C402.815 82.184 402.932 82.4667 403.092 82.712C403.252 82.9573 403.455 83.1547 403.7 83.304C403.945 83.4427 404.233 83.512 404.564 83.512C404.905 83.512 405.193 83.4427 405.428 83.304C405.673 83.1547 405.876 82.9573 406.036 82.712C406.196 82.4667 406.313 82.184 406.388 81.864C406.463 81.544 406.5 81.2133 406.5 80.872ZM400.436 73.576H402.708V77.736H402.74C403.017 77.3093 403.391 77 403.86 76.808C404.34 76.6053 404.836 76.504 405.348 76.504C405.764 76.504 406.175 76.5893 406.58 76.76C406.985 76.9307 407.348 77.192 407.668 77.544C407.999 77.896 408.265 78.3493 408.468 78.904C408.671 79.448 408.772 80.0987 408.772 80.856C408.772 81.6133 408.671 82.2693 408.468 82.824C408.265 83.368 407.999 83.816 407.668 84.168C407.348 84.52 406.985 84.7813 406.58 84.952C406.175 85.1227 405.764 85.208 405.348 85.208C404.74 85.208 404.196 85.112 403.716 84.92C403.236 84.728 402.873 84.4027 402.628 83.944H402.596V85H400.436V73.576ZM415.985 79.976C415.878 79.4 415.686 78.9627 415.409 78.664C415.142 78.3653 414.732 78.216 414.177 78.216C413.814 78.216 413.51 78.28 413.265 78.408C413.03 78.5253 412.838 78.6747 412.689 78.856C412.55 79.0373 412.449 79.2293 412.385 79.432C412.332 79.6347 412.3 79.816 412.289 79.976H415.985ZM412.289 81.416C412.321 82.152 412.508 82.6853 412.849 83.016C413.19 83.3467 413.681 83.512 414.321 83.512C414.78 83.512 415.174 83.4 415.505 83.176C415.836 82.9413 416.038 82.696 416.113 82.44H418.113C417.793 83.432 417.302 84.1413 416.641 84.568C415.98 84.9947 415.18 85.208 414.241 85.208C413.59 85.208 413.004 85.1067 412.481 84.904C411.958 84.6907 411.516 84.392 411.153 84.008C410.79 83.624 410.508 83.1653 410.305 82.632C410.113 82.0987 410.017 81.512 410.017 80.872C410.017 80.2533 410.118 79.6773 410.321 79.144C410.524 78.6107 410.812 78.152 411.185 77.768C411.558 77.3733 412.001 77.064 412.513 76.84C413.036 76.616 413.612 76.504 414.241 76.504C414.945 76.504 415.558 76.6427 416.081 76.92C416.604 77.1867 417.03 77.5493 417.361 78.008C417.702 78.4667 417.948 78.9893 418.097 79.576C418.246 80.1627 418.3 80.776 418.257 81.416H412.289ZM419.869 73.576H422.141V85H419.869V73.576Z" fill="black"/>
<path d="M184.356 172.42C184.271 171.599 183.972 171.007 183.46 170.644C182.959 170.271 182.313 170.084 181.524 170.084C181.204 170.084 180.889 170.116 180.58 170.18C180.271 170.244 179.993 170.351 179.748 170.5C179.513 170.649 179.321 170.852 179.172 171.108C179.033 171.353 178.964 171.663 178.964 172.036C178.964 172.388 179.065 172.676 179.268 172.9C179.481 173.113 179.759 173.289 180.1 173.428C180.452 173.567 180.847 173.684 181.284 173.78C181.721 173.865 182.164 173.961 182.612 174.068C183.071 174.175 183.519 174.303 183.956 174.452C184.393 174.591 184.783 174.783 185.124 175.028C185.476 175.273 185.753 175.583 185.956 175.956C186.169 176.329 186.276 176.799 186.276 177.364C186.276 177.972 186.137 178.495 185.86 178.932C185.593 179.359 185.247 179.711 184.82 179.988C184.393 180.255 183.913 180.447 183.38 180.564C182.857 180.692 182.335 180.756 181.812 180.756C181.172 180.756 180.564 180.676 179.988 180.516C179.423 180.356 178.921 180.116 178.484 179.796C178.057 179.465 177.716 179.049 177.46 178.548C177.215 178.036 177.092 177.433 177.092 176.74H178.532C178.532 177.22 178.623 177.636 178.804 177.988C178.996 178.329 179.241 178.612 179.54 178.836C179.849 179.06 180.207 179.225 180.612 179.332C181.017 179.439 181.433 179.492 181.86 179.492C182.201 179.492 182.543 179.46 182.884 179.396C183.236 179.332 183.551 179.225 183.828 179.076C184.105 178.916 184.329 178.703 184.5 178.436C184.671 178.169 184.756 177.828 184.756 177.412C184.756 177.017 184.649 176.697 184.436 176.452C184.233 176.207 183.956 176.009 183.604 175.86C183.263 175.7 182.873 175.572 182.436 175.476C181.999 175.38 181.551 175.284 181.092 175.188C180.644 175.081 180.201 174.964 179.764 174.836C179.327 174.697 178.932 174.521 178.58 174.308C178.239 174.084 177.961 173.801 177.748 173.46C177.545 173.108 177.444 172.671 177.444 172.148C177.444 171.572 177.561 171.076 177.796 170.66C178.031 170.233 178.34 169.887 178.724 169.62C179.119 169.343 179.561 169.14 180.052 169.012C180.553 168.873 181.065 168.804 181.588 168.804C182.175 168.804 182.719 168.873 183.22 169.012C183.721 169.151 184.159 169.369 184.532 169.668C184.916 169.967 185.215 170.345 185.428 170.804C185.652 171.252 185.775 171.791 185.796 172.42H184.356ZM187.899 172.228H189.179V173.444H189.211C189.83 172.505 190.72 172.036 191.883 172.036C192.395 172.036 192.859 172.143 193.275 172.356C193.691 172.569 193.984 172.932 194.155 173.444C194.432 172.996 194.795 172.649 195.243 172.404C195.702 172.159 196.203 172.036 196.747 172.036C197.163 172.036 197.536 172.084 197.867 172.18C198.208 172.265 198.496 172.404 198.731 172.596C198.976 172.788 199.163 173.039 199.291 173.348C199.43 173.647 199.499 174.009 199.499 174.436V180.5H198.139V175.076C198.139 174.82 198.118 174.58 198.075 174.356C198.032 174.132 197.952 173.94 197.835 173.78C197.718 173.609 197.552 173.476 197.339 173.38C197.136 173.284 196.87 173.236 196.539 173.236C195.867 173.236 195.339 173.428 194.955 173.812C194.571 174.196 194.379 174.708 194.379 175.348V180.5H193.019V175.076C193.019 174.809 192.992 174.564 192.939 174.34C192.896 174.116 192.816 173.924 192.699 173.764C192.582 173.593 192.422 173.465 192.219 173.38C192.027 173.284 191.776 173.236 191.467 173.236C191.072 173.236 190.731 173.316 190.443 173.476C190.166 173.636 189.936 173.828 189.755 174.052C189.584 174.276 189.456 174.511 189.371 174.756C189.296 174.991 189.259 175.188 189.259 175.348V180.5H187.899V172.228ZM208.868 180.468C208.633 180.607 208.308 180.676 207.892 180.676C207.54 180.676 207.257 180.58 207.044 180.388C206.841 180.185 206.74 179.86 206.74 179.412C206.366 179.86 205.929 180.185 205.428 180.388C204.937 180.58 204.404 180.676 203.828 180.676C203.454 180.676 203.097 180.633 202.756 180.548C202.425 180.463 202.137 180.329 201.892 180.148C201.646 179.967 201.449 179.732 201.3 179.444C201.161 179.145 201.092 178.788 201.092 178.372C201.092 177.903 201.172 177.519 201.332 177.22C201.492 176.921 201.7 176.681 201.956 176.5C202.222 176.308 202.521 176.164 202.852 176.068C203.193 175.972 203.54 175.892 203.892 175.828C204.265 175.753 204.617 175.7 204.948 175.668C205.289 175.625 205.588 175.572 205.844 175.508C206.1 175.433 206.302 175.332 206.452 175.204C206.601 175.065 206.676 174.868 206.676 174.612C206.676 174.313 206.617 174.073 206.5 173.892C206.393 173.711 206.249 173.572 206.068 173.476C205.897 173.38 205.7 173.316 205.476 173.284C205.262 173.252 205.049 173.236 204.836 173.236C204.26 173.236 203.78 173.348 203.396 173.572C203.012 173.785 202.804 174.196 202.772 174.804H201.412C201.433 174.292 201.54 173.86 201.732 173.508C201.924 173.156 202.18 172.873 202.5 172.66C202.82 172.436 203.182 172.276 203.588 172.18C204.004 172.084 204.446 172.036 204.916 172.036C205.289 172.036 205.657 172.063 206.02 172.116C206.393 172.169 206.729 172.281 207.028 172.452C207.326 172.612 207.566 172.841 207.748 173.14C207.929 173.439 208.02 173.828 208.02 174.308V178.564C208.02 178.884 208.036 179.119 208.068 179.268C208.11 179.417 208.238 179.492 208.452 179.492C208.569 179.492 208.708 179.465 208.868 179.412V180.468ZM206.66 176.228C206.489 176.356 206.265 176.452 205.988 176.516C205.71 176.569 205.417 176.617 205.108 176.66C204.809 176.692 204.505 176.735 204.196 176.788C203.886 176.831 203.609 176.905 203.364 177.012C203.118 177.119 202.916 177.273 202.756 177.476C202.606 177.668 202.532 177.935 202.532 178.276C202.532 178.5 202.574 178.692 202.66 178.852C202.756 179.001 202.873 179.124 203.012 179.22C203.161 179.316 203.332 179.385 203.524 179.428C203.716 179.471 203.918 179.492 204.132 179.492C204.58 179.492 204.964 179.433 205.284 179.316C205.604 179.188 205.865 179.033 206.068 178.852C206.27 178.66 206.42 178.457 206.516 178.244C206.612 178.02 206.66 177.812 206.66 177.62V176.228ZM210.213 169.076H211.573V180.5H210.213V169.076ZM213.76 169.076H215.12V180.5H213.76V169.076Z" fill="black" fill-opacity="0.68"/>
<path fill-rule="evenodd" clip-rule="evenodd" d="M364.767 174.495L360.5 179.164L356.233 174.495L356.231 174.493C355.405 173.586 355.479 172.19 356.396 171.373C357.28 170.587 358.632 170.622 359.473 171.453C359.475 171.455 359.477 171.457 359.479 171.459L360.132 172.072L360.5 172.422L360.868 172.072L361.521 171.459C361.523 171.457 361.525 171.455 361.527 171.453C361.946 171.037 362.515 170.804 363.108 170.806C364.342 170.806 365.343 171.794 365.343 173.014C365.343 173.56 365.139 174.087 364.769 174.493L364.767 174.495ZM365.742 170.412C364.296 168.983 361.957 168.974 360.5 170.386C359.043 168.974 356.704 168.983 355.258 170.412C353.827 171.826 353.803 174.104 355.188 175.546L360.5 181.333L365.812 175.546C367.197 174.104 367.173 171.826 365.742 170.412Z" fill="black"/>
<path d="M375.466 170.004H377.664V178.152H382.536V180H375.466V170.004ZM383.646 174.988C383.674 174.521 383.79 174.134 383.996 173.826C384.201 173.518 384.462 173.271 384.78 173.084C385.097 172.897 385.452 172.767 385.844 172.692C386.245 172.608 386.646 172.566 387.048 172.566C387.412 172.566 387.78 172.594 388.154 172.65C388.527 172.697 388.868 172.795 389.176 172.944C389.484 173.093 389.736 173.303 389.932 173.574C390.128 173.835 390.226 174.185 390.226 174.624V178.39C390.226 178.717 390.244 179.029 390.282 179.328C390.319 179.627 390.384 179.851 390.478 180H388.462C388.424 179.888 388.392 179.776 388.364 179.664C388.345 179.543 388.331 179.421 388.322 179.3C388.004 179.627 387.631 179.855 387.202 179.986C386.772 180.117 386.334 180.182 385.886 180.182C385.54 180.182 385.218 180.14 384.92 180.056C384.621 179.972 384.36 179.841 384.136 179.664C383.912 179.487 383.734 179.263 383.604 178.992C383.482 178.721 383.422 178.399 383.422 178.026C383.422 177.615 383.492 177.279 383.632 177.018C383.781 176.747 383.968 176.533 384.192 176.374C384.425 176.215 384.686 176.099 384.976 176.024C385.274 175.94 385.573 175.875 385.872 175.828C386.17 175.781 386.464 175.744 386.754 175.716C387.043 175.688 387.3 175.646 387.524 175.59C387.748 175.534 387.925 175.455 388.056 175.352C388.186 175.24 388.247 175.081 388.238 174.876C388.238 174.661 388.2 174.493 388.126 174.372C388.06 174.241 387.967 174.143 387.846 174.078C387.734 174.003 387.598 173.957 387.44 173.938C387.29 173.91 387.127 173.896 386.95 173.896C386.558 173.896 386.25 173.98 386.026 174.148C385.802 174.316 385.671 174.596 385.634 174.988H383.646ZM388.238 176.458C388.154 176.533 388.046 176.593 387.916 176.64C387.794 176.677 387.659 176.71 387.51 176.738C387.37 176.766 387.22 176.789 387.062 176.808C386.903 176.827 386.744 176.85 386.586 176.878C386.436 176.906 386.287 176.943 386.138 176.99C385.998 177.037 385.872 177.102 385.76 177.186C385.657 177.261 385.573 177.359 385.508 177.48C385.442 177.601 385.41 177.755 385.41 177.942C385.41 178.119 385.442 178.269 385.508 178.39C385.573 178.511 385.662 178.609 385.774 178.684C385.886 178.749 386.016 178.796 386.166 178.824C386.315 178.852 386.469 178.866 386.628 178.866C387.02 178.866 387.323 178.801 387.538 178.67C387.752 178.539 387.911 178.385 388.014 178.208C388.116 178.021 388.177 177.835 388.196 177.648C388.224 177.461 388.238 177.312 388.238 177.2V176.458ZM397.25 176.388C397.25 176.08 397.217 175.786 397.152 175.506C397.087 175.226 396.984 174.979 396.844 174.764C396.704 174.549 396.527 174.381 396.312 174.26C396.107 174.129 395.855 174.064 395.556 174.064C395.267 174.064 395.015 174.129 394.8 174.26C394.585 174.381 394.408 174.549 394.268 174.764C394.128 174.979 394.025 175.226 393.96 175.506C393.895 175.786 393.862 176.08 393.862 176.388C393.862 176.687 393.895 176.976 393.96 177.256C394.025 177.536 394.128 177.783 394.268 177.998C394.408 178.213 394.585 178.385 394.8 178.516C395.015 178.637 395.267 178.698 395.556 178.698C395.855 178.698 396.107 178.637 396.312 178.516C396.527 178.385 396.704 178.213 396.844 177.998C396.984 177.783 397.087 177.536 397.152 177.256C397.217 176.976 397.25 176.687 397.25 176.388ZM391.944 170.004H393.932V173.644H393.96C394.203 173.271 394.529 173 394.94 172.832C395.36 172.655 395.794 172.566 396.242 172.566C396.606 172.566 396.965 172.641 397.32 172.79C397.675 172.939 397.992 173.168 398.272 173.476C398.561 173.784 398.795 174.181 398.972 174.666C399.149 175.142 399.238 175.711 399.238 176.374C399.238 177.037 399.149 177.611 398.972 178.096C398.795 178.572 398.561 178.964 398.272 179.272C397.992 179.58 397.675 179.809 397.32 179.958C396.965 180.107 396.606 180.182 396.242 180.182C395.71 180.182 395.234 180.098 394.814 179.93C394.394 179.762 394.077 179.477 393.862 179.076H393.834V180H391.944V170.004ZM405.549 175.604C405.456 175.1 405.288 174.717 405.045 174.456C404.812 174.195 404.453 174.064 403.967 174.064C403.65 174.064 403.384 174.12 403.169 174.232C402.964 174.335 402.796 174.465 402.665 174.624C402.544 174.783 402.455 174.951 402.399 175.128C402.353 175.305 402.325 175.464 402.315 175.604H405.549ZM402.315 176.864C402.343 177.508 402.507 177.975 402.805 178.264C403.104 178.553 403.533 178.698 404.093 178.698C404.495 178.698 404.84 178.6 405.129 178.404C405.419 178.199 405.596 177.984 405.661 177.76H407.411C407.131 178.628 406.702 179.249 406.123 179.622C405.545 179.995 404.845 180.182 404.023 180.182C403.454 180.182 402.941 180.093 402.483 179.916C402.026 179.729 401.639 179.468 401.321 179.132C401.004 178.796 400.757 178.395 400.579 177.928C400.411 177.461 400.327 176.948 400.327 176.388C400.327 175.847 400.416 175.343 400.593 174.876C400.771 174.409 401.023 174.008 401.349 173.672C401.676 173.327 402.063 173.056 402.511 172.86C402.969 172.664 403.473 172.566 404.023 172.566C404.639 172.566 405.176 172.687 405.633 172.93C406.091 173.163 406.464 173.481 406.753 173.882C407.052 174.283 407.267 174.741 407.397 175.254C407.528 175.767 407.575 176.304 407.537 176.864H402.315ZM408.948 170.004H410.936V180H408.948V170.004Z" fill="black"/>
</svg>
