<svg width="600" height="861" viewBox="0 0 600 861" fill="none" xmlns="http://www.w3.org/2000/svg">
<rect width="600" height="861" fill="black" fill-opacity="0.04"/>
<path d="M177.732 208.576H179.348L185.364 217.84H185.396V208.576H186.836V220H185.172L179.204 210.832H179.172V220H177.732V208.576ZM194.815 215.072C194.794 214.752 194.719 214.448 194.591 214.16C194.474 213.872 194.308 213.627 194.095 213.424C193.892 213.211 193.647 213.045 193.359 212.928C193.082 212.8 192.772 212.736 192.431 212.736C192.079 212.736 191.759 212.8 191.471 212.928C191.194 213.045 190.954 213.211 190.751 213.424C190.548 213.637 190.388 213.888 190.271 214.176C190.154 214.453 190.084 214.752 190.063 215.072H194.815ZM196.127 217.376C195.946 218.304 195.546 219.003 194.927 219.472C194.308 219.941 193.53 220.176 192.591 220.176C191.93 220.176 191.354 220.069 190.863 219.856C190.383 219.643 189.978 219.344 189.647 218.96C189.316 218.576 189.066 218.117 188.895 217.584C188.735 217.051 188.644 216.469 188.623 215.84C188.623 215.211 188.719 214.635 188.911 214.112C189.103 213.589 189.37 213.136 189.711 212.752C190.063 212.368 190.474 212.069 190.943 211.856C191.423 211.643 191.946 211.536 192.511 211.536C193.247 211.536 193.855 211.691 194.335 212C194.826 212.299 195.215 212.683 195.503 213.152C195.802 213.621 196.004 214.133 196.111 214.688C196.228 215.243 196.276 215.771 196.255 216.272H190.063C190.052 216.635 190.095 216.981 190.191 217.312C190.287 217.632 190.442 217.92 190.655 218.176C190.868 218.421 191.14 218.619 191.471 218.768C191.802 218.917 192.191 218.992 192.639 218.992C193.215 218.992 193.684 218.859 194.047 218.592C194.42 218.325 194.666 217.92 194.783 217.376H196.127ZM199.889 215.648L197.009 211.728H198.753L200.737 214.624L202.801 211.728H204.433L201.585 215.536L204.785 220H203.041L200.737 216.576L198.433 220H196.785L199.889 215.648ZM207.834 211.728H209.482V212.928H207.834V218.064C207.834 218.224 207.845 218.352 207.866 218.448C207.898 218.544 207.951 218.619 208.026 218.672C208.101 218.725 208.202 218.763 208.33 218.784C208.469 218.795 208.645 218.8 208.858 218.8H209.482V220H208.442C208.09 220 207.786 219.979 207.53 219.936C207.285 219.883 207.082 219.792 206.922 219.664C206.773 219.536 206.661 219.355 206.586 219.12C206.511 218.885 206.474 218.576 206.474 218.192V212.928H205.066V211.728H206.474V209.248H207.834V211.728Z" fill="black" fill-opacity="0.68"/>
<path d="M353.604 209.076H356.116V218.388H361.684V220.5H353.604V209.076ZM362.952 214.772C362.984 214.239 363.118 213.796 363.352 213.444C363.587 213.092 363.886 212.809 364.248 212.596C364.611 212.383 365.016 212.233 365.464 212.148C365.923 212.052 366.382 212.004 366.84 212.004C367.256 212.004 367.678 212.036 368.104 212.1C368.531 212.153 368.92 212.265 369.272 212.436C369.624 212.607 369.912 212.847 370.136 213.156C370.36 213.455 370.472 213.855 370.472 214.356V218.66C370.472 219.033 370.494 219.391 370.536 219.732C370.579 220.073 370.654 220.329 370.76 220.5H368.456C368.414 220.372 368.376 220.244 368.344 220.116C368.323 219.977 368.307 219.839 368.296 219.7C367.934 220.073 367.507 220.335 367.016 220.484C366.526 220.633 366.024 220.708 365.512 220.708C365.118 220.708 364.75 220.66 364.408 220.564C364.067 220.468 363.768 220.319 363.512 220.116C363.256 219.913 363.054 219.657 362.904 219.348C362.766 219.039 362.696 218.671 362.696 218.244C362.696 217.775 362.776 217.391 362.936 217.092C363.107 216.783 363.32 216.537 363.576 216.356C363.843 216.175 364.142 216.041 364.472 215.956C364.814 215.86 365.155 215.785 365.496 215.732C365.838 215.679 366.174 215.636 366.504 215.604C366.835 215.572 367.128 215.524 367.384 215.46C367.64 215.396 367.843 215.305 367.992 215.188C368.142 215.06 368.211 214.879 368.2 214.644C368.2 214.399 368.158 214.207 368.072 214.068C367.998 213.919 367.891 213.807 367.752 213.732C367.624 213.647 367.47 213.593 367.288 213.572C367.118 213.54 366.931 213.524 366.728 213.524C366.28 213.524 365.928 213.62 365.672 213.812C365.416 214.004 365.267 214.324 365.224 214.772H362.952ZM368.2 216.452C368.104 216.537 367.982 216.607 367.832 216.66C367.694 216.703 367.539 216.74 367.368 216.772C367.208 216.804 367.038 216.831 366.856 216.852C366.675 216.873 366.494 216.9 366.312 216.932C366.142 216.964 365.971 217.007 365.8 217.06C365.64 217.113 365.496 217.188 365.368 217.284C365.251 217.369 365.155 217.481 365.08 217.62C365.006 217.759 364.968 217.935 364.968 218.148C364.968 218.351 365.006 218.521 365.08 218.66C365.155 218.799 365.256 218.911 365.384 218.996C365.512 219.071 365.662 219.124 365.832 219.156C366.003 219.188 366.179 219.204 366.36 219.204C366.808 219.204 367.155 219.129 367.4 218.98C367.646 218.831 367.827 218.655 367.944 218.452C368.062 218.239 368.131 218.025 368.152 217.812C368.184 217.599 368.2 217.428 368.2 217.3V216.452ZM378.5 216.372C378.5 216.02 378.463 215.684 378.388 215.364C378.313 215.044 378.196 214.761 378.036 214.516C377.876 214.271 377.673 214.079 377.428 213.94C377.193 213.791 376.905 213.716 376.564 213.716C376.233 213.716 375.945 213.791 375.7 213.94C375.455 214.079 375.252 214.271 375.092 214.516C374.932 214.761 374.815 215.044 374.74 215.364C374.665 215.684 374.628 216.02 374.628 216.372C374.628 216.713 374.665 217.044 374.74 217.364C374.815 217.684 374.932 217.967 375.092 218.212C375.252 218.457 375.455 218.655 375.7 218.804C375.945 218.943 376.233 219.012 376.564 219.012C376.905 219.012 377.193 218.943 377.428 218.804C377.673 218.655 377.876 218.457 378.036 218.212C378.196 217.967 378.313 217.684 378.388 217.364C378.463 217.044 378.5 216.713 378.5 216.372ZM372.436 209.076H374.708V213.236H374.74C375.017 212.809 375.391 212.5 375.86 212.308C376.34 212.105 376.836 212.004 377.348 212.004C377.764 212.004 378.175 212.089 378.58 212.26C378.985 212.431 379.348 212.692 379.668 213.044C379.999 213.396 380.265 213.849 380.468 214.404C380.671 214.948 380.772 215.599 380.772 216.356C380.772 217.113 380.671 217.769 380.468 218.324C380.265 218.868 379.999 219.316 379.668 219.668C379.348 220.02 378.985 220.281 378.58 220.452C378.175 220.623 377.764 220.708 377.348 220.708C376.74 220.708 376.196 220.612 375.716 220.42C375.236 220.228 374.873 219.903 374.628 219.444H374.596V220.5H372.436V209.076ZM387.985 215.476C387.878 214.9 387.686 214.463 387.409 214.164C387.142 213.865 386.732 213.716 386.177 213.716C385.814 213.716 385.51 213.78 385.265 213.908C385.03 214.025 384.838 214.175 384.689 214.356C384.55 214.537 384.449 214.729 384.385 214.932C384.332 215.135 384.3 215.316 384.289 215.476H387.985ZM384.289 216.916C384.321 217.652 384.508 218.185 384.849 218.516C385.19 218.847 385.681 219.012 386.321 219.012C386.78 219.012 387.174 218.9 387.505 218.676C387.836 218.441 388.038 218.196 388.113 217.94H390.113C389.793 218.932 389.302 219.641 388.641 220.068C387.98 220.495 387.18 220.708 386.241 220.708C385.59 220.708 385.004 220.607 384.481 220.404C383.958 220.191 383.516 219.892 383.153 219.508C382.79 219.124 382.508 218.665 382.305 218.132C382.113 217.599 382.017 217.012 382.017 216.372C382.017 215.753 382.118 215.177 382.321 214.644C382.524 214.111 382.812 213.652 383.185 213.268C383.558 212.873 384.001 212.564 384.513 212.34C385.036 212.116 385.612 212.004 386.241 212.004C386.945 212.004 387.558 212.143 388.081 212.42C388.604 212.687 389.03 213.049 389.361 213.508C389.702 213.967 389.948 214.489 390.097 215.076C390.246 215.663 390.3 216.276 390.257 216.916H384.289ZM391.869 209.076H394.141V220.5H391.869V209.076Z" fill="black"/>
<g clip-path="url(#clip0_61394_177844)">
<path d="M409.477 223.625L416.75 216.5L409.477 209.375L407.398 211.41L412.595 216.5L407.398 221.588L409.477 223.625Z" fill="#F15E00"/>
</g>
<path d="M179.268 321.488H182.308C183.172 321.488 183.791 321.339 184.164 321.04C184.548 320.731 184.74 320.272 184.74 319.664C184.74 319.259 184.676 318.939 184.548 318.704C184.42 318.469 184.244 318.288 184.02 318.16C183.796 318.032 183.535 317.952 183.236 317.92C182.948 317.877 182.639 317.856 182.308 317.856H179.268V321.488ZM177.748 316.576H181.892C182.137 316.576 182.399 316.581 182.676 316.592C182.964 316.592 183.247 316.608 183.524 316.64C183.801 316.661 184.057 316.699 184.292 316.752C184.537 316.805 184.745 316.885 184.916 316.992C185.289 317.216 185.604 317.525 185.86 317.92C186.127 318.315 186.26 318.8 186.26 319.376C186.26 319.984 186.111 320.512 185.812 320.96C185.524 321.397 185.108 321.723 184.564 321.936V321.968C185.268 322.117 185.807 322.437 186.18 322.928C186.553 323.419 186.74 324.016 186.74 324.72C186.74 325.136 186.665 325.541 186.516 325.936C186.367 326.331 186.143 326.683 185.844 326.992C185.556 327.291 185.193 327.536 184.756 327.728C184.329 327.909 183.833 328 183.268 328H177.748V316.576ZM179.268 326.72H183.076C183.748 326.72 184.271 326.539 184.644 326.176C185.028 325.813 185.22 325.312 185.22 324.672C185.22 324.299 185.151 323.989 185.012 323.744C184.873 323.499 184.687 323.307 184.452 323.168C184.228 323.019 183.967 322.917 183.668 322.864C183.369 322.8 183.06 322.768 182.74 322.768H179.268V326.72ZM195.805 327.968C195.57 328.107 195.245 328.176 194.829 328.176C194.477 328.176 194.194 328.08 193.981 327.888C193.778 327.685 193.677 327.36 193.677 326.912C193.304 327.36 192.866 327.685 192.365 327.888C191.874 328.08 191.341 328.176 190.765 328.176C190.392 328.176 190.034 328.133 189.693 328.048C189.362 327.963 189.074 327.829 188.829 327.648C188.584 327.467 188.386 327.232 188.237 326.944C188.098 326.645 188.029 326.288 188.029 325.872C188.029 325.403 188.109 325.019 188.269 324.72C188.429 324.421 188.637 324.181 188.893 324C189.16 323.808 189.458 323.664 189.789 323.568C190.13 323.472 190.477 323.392 190.829 323.328C191.202 323.253 191.554 323.2 191.885 323.168C192.226 323.125 192.525 323.072 192.781 323.008C193.037 322.933 193.24 322.832 193.389 322.704C193.538 322.565 193.613 322.368 193.613 322.112C193.613 321.813 193.554 321.573 193.437 321.392C193.33 321.211 193.186 321.072 193.005 320.976C192.834 320.88 192.637 320.816 192.413 320.784C192.2 320.752 191.986 320.736 191.773 320.736C191.197 320.736 190.717 320.848 190.333 321.072C189.949 321.285 189.741 321.696 189.709 322.304H188.349C188.37 321.792 188.477 321.36 188.669 321.008C188.861 320.656 189.117 320.373 189.437 320.16C189.757 319.936 190.12 319.776 190.525 319.68C190.941 319.584 191.384 319.536 191.853 319.536C192.226 319.536 192.594 319.563 192.957 319.616C193.33 319.669 193.666 319.781 193.965 319.952C194.264 320.112 194.504 320.341 194.685 320.64C194.866 320.939 194.957 321.328 194.957 321.808V326.064C194.957 326.384 194.973 326.619 195.005 326.768C195.048 326.917 195.176 326.992 195.389 326.992C195.506 326.992 195.645 326.965 195.805 326.912V327.968ZM193.597 323.728C193.426 323.856 193.202 323.952 192.925 324.016C192.648 324.069 192.354 324.117 192.045 324.16C191.746 324.192 191.442 324.235 191.133 324.288C190.824 324.331 190.546 324.405 190.301 324.512C190.056 324.619 189.853 324.773 189.693 324.976C189.544 325.168 189.469 325.435 189.469 325.776C189.469 326 189.512 326.192 189.597 326.352C189.693 326.501 189.81 326.624 189.949 326.72C190.098 326.816 190.269 326.885 190.461 326.928C190.653 326.971 190.856 326.992 191.069 326.992C191.517 326.992 191.901 326.933 192.221 326.816C192.541 326.688 192.802 326.533 193.005 326.352C193.208 326.16 193.357 325.957 193.453 325.744C193.549 325.52 193.597 325.312 193.597 325.12V323.728ZM202.687 322.384C202.58 321.861 202.356 321.456 202.015 321.168C201.674 320.88 201.215 320.736 200.639 320.736C200.148 320.736 199.738 320.827 199.407 321.008C199.076 321.189 198.81 321.429 198.607 321.728C198.415 322.027 198.276 322.373 198.191 322.768C198.106 323.152 198.063 323.552 198.063 323.968C198.063 324.352 198.106 324.725 198.191 325.088C198.287 325.451 198.431 325.776 198.623 326.064C198.815 326.341 199.066 326.565 199.375 326.736C199.684 326.907 200.052 326.992 200.479 326.992C201.151 326.992 201.674 326.816 202.047 326.464C202.431 326.112 202.666 325.616 202.751 324.976H204.143C203.994 326 203.61 326.789 202.991 327.344C202.383 327.899 201.551 328.176 200.495 328.176C199.866 328.176 199.306 328.075 198.815 327.872C198.335 327.669 197.93 327.381 197.599 327.008C197.279 326.635 197.034 326.192 196.863 325.68C196.703 325.157 196.623 324.587 196.623 323.968C196.623 323.349 196.703 322.773 196.863 322.24C197.023 321.696 197.263 321.227 197.583 320.832C197.914 320.427 198.324 320.112 198.815 319.888C199.306 319.653 199.876 319.536 200.527 319.536C200.996 319.536 201.434 319.595 201.839 319.712C202.255 319.819 202.618 319.989 202.927 320.224C203.247 320.459 203.508 320.757 203.711 321.12C203.914 321.472 204.042 321.893 204.095 322.384H202.687ZM205.745 316.576H207.105V323.344L210.881 319.728H212.705L209.425 322.736L212.945 328H211.217L208.385 323.68L207.105 324.864V328H205.745V316.576Z" fill="black" fill-opacity="0.68"/>
<g clip-path="url(#clip1_61394_177844)">
<path d="M366.523 317.375L359.25 324.5L366.523 331.625L368.602 329.59L363.405 324.5L368.602 319.412L366.523 317.375Z" fill="#F15E00"/>
</g>
<path d="M377.604 317.076H380.116V326.388H385.684V328.5H377.604V317.076ZM386.952 322.772C386.984 322.239 387.118 321.796 387.352 321.444C387.587 321.092 387.886 320.809 388.248 320.596C388.611 320.383 389.016 320.233 389.464 320.148C389.923 320.052 390.382 320.004 390.84 320.004C391.256 320.004 391.678 320.036 392.104 320.1C392.531 320.153 392.92 320.265 393.272 320.436C393.624 320.607 393.912 320.847 394.136 321.156C394.36 321.455 394.472 321.855 394.472 322.356V326.66C394.472 327.033 394.494 327.391 394.536 327.732C394.579 328.073 394.654 328.329 394.76 328.5H392.456C392.414 328.372 392.376 328.244 392.344 328.116C392.323 327.977 392.307 327.839 392.296 327.7C391.934 328.073 391.507 328.335 391.016 328.484C390.526 328.633 390.024 328.708 389.512 328.708C389.118 328.708 388.75 328.66 388.408 328.564C388.067 328.468 387.768 328.319 387.512 328.116C387.256 327.913 387.054 327.657 386.904 327.348C386.766 327.039 386.696 326.671 386.696 326.244C386.696 325.775 386.776 325.391 386.936 325.092C387.107 324.783 387.32 324.537 387.576 324.356C387.843 324.175 388.142 324.041 388.472 323.956C388.814 323.86 389.155 323.785 389.496 323.732C389.838 323.679 390.174 323.636 390.504 323.604C390.835 323.572 391.128 323.524 391.384 323.46C391.64 323.396 391.843 323.305 391.992 323.188C392.142 323.06 392.211 322.879 392.2 322.644C392.2 322.399 392.158 322.207 392.072 322.068C391.998 321.919 391.891 321.807 391.752 321.732C391.624 321.647 391.47 321.593 391.288 321.572C391.118 321.54 390.931 321.524 390.728 321.524C390.28 321.524 389.928 321.62 389.672 321.812C389.416 322.004 389.267 322.324 389.224 322.772H386.952ZM392.2 324.452C392.104 324.537 391.982 324.607 391.832 324.66C391.694 324.703 391.539 324.74 391.368 324.772C391.208 324.804 391.038 324.831 390.856 324.852C390.675 324.873 390.494 324.9 390.312 324.932C390.142 324.964 389.971 325.007 389.8 325.06C389.64 325.113 389.496 325.188 389.368 325.284C389.251 325.369 389.155 325.481 389.08 325.62C389.006 325.759 388.968 325.935 388.968 326.148C388.968 326.351 389.006 326.521 389.08 326.66C389.155 326.799 389.256 326.911 389.384 326.996C389.512 327.071 389.662 327.124 389.832 327.156C390.003 327.188 390.179 327.204 390.36 327.204C390.808 327.204 391.155 327.129 391.4 326.98C391.646 326.831 391.827 326.655 391.944 326.452C392.062 326.239 392.131 326.025 392.152 325.812C392.184 325.599 392.2 325.428 392.2 325.3V324.452ZM402.5 324.372C402.5 324.02 402.463 323.684 402.388 323.364C402.313 323.044 402.196 322.761 402.036 322.516C401.876 322.271 401.673 322.079 401.428 321.94C401.193 321.791 400.905 321.716 400.564 321.716C400.233 321.716 399.945 321.791 399.7 321.94C399.455 322.079 399.252 322.271 399.092 322.516C398.932 322.761 398.815 323.044 398.74 323.364C398.665 323.684 398.628 324.02 398.628 324.372C398.628 324.713 398.665 325.044 398.74 325.364C398.815 325.684 398.932 325.967 399.092 326.212C399.252 326.457 399.455 326.655 399.7 326.804C399.945 326.943 400.233 327.012 400.564 327.012C400.905 327.012 401.193 326.943 401.428 326.804C401.673 326.655 401.876 326.457 402.036 326.212C402.196 325.967 402.313 325.684 402.388 325.364C402.463 325.044 402.5 324.713 402.5 324.372ZM396.436 317.076H398.708V321.236H398.74C399.017 320.809 399.391 320.5 399.86 320.308C400.34 320.105 400.836 320.004 401.348 320.004C401.764 320.004 402.175 320.089 402.58 320.26C402.985 320.431 403.348 320.692 403.668 321.044C403.999 321.396 404.265 321.849 404.468 322.404C404.671 322.948 404.772 323.599 404.772 324.356C404.772 325.113 404.671 325.769 404.468 326.324C404.265 326.868 403.999 327.316 403.668 327.668C403.348 328.02 402.985 328.281 402.58 328.452C402.175 328.623 401.764 328.708 401.348 328.708C400.74 328.708 400.196 328.612 399.716 328.42C399.236 328.228 398.873 327.903 398.628 327.444H398.596V328.5H396.436V317.076ZM411.985 323.476C411.878 322.9 411.686 322.463 411.409 322.164C411.142 321.865 410.732 321.716 410.177 321.716C409.814 321.716 409.51 321.78 409.265 321.908C409.03 322.025 408.838 322.175 408.689 322.356C408.55 322.537 408.449 322.729 408.385 322.932C408.332 323.135 408.3 323.316 408.289 323.476H411.985ZM408.289 324.916C408.321 325.652 408.508 326.185 408.849 326.516C409.19 326.847 409.681 327.012 410.321 327.012C410.78 327.012 411.174 326.9 411.505 326.676C411.836 326.441 412.038 326.196 412.113 325.94H414.113C413.793 326.932 413.302 327.641 412.641 328.068C411.98 328.495 411.18 328.708 410.241 328.708C409.59 328.708 409.004 328.607 408.481 328.404C407.958 328.191 407.516 327.892 407.153 327.508C406.79 327.124 406.508 326.665 406.305 326.132C406.113 325.599 406.017 325.012 406.017 324.372C406.017 323.753 406.118 323.177 406.321 322.644C406.524 322.111 406.812 321.652 407.185 321.268C407.558 320.873 408.001 320.564 408.513 320.34C409.036 320.116 409.612 320.004 410.241 320.004C410.945 320.004 411.558 320.143 412.081 320.42C412.604 320.687 413.03 321.049 413.361 321.508C413.702 321.967 413.948 322.489 414.097 323.076C414.246 323.663 414.3 324.276 414.257 324.916H408.289ZM415.869 317.076H418.141V328.5H415.869V317.076Z" fill="black"/>
<path d="M180.34 425.856H176.532V424.576H185.668V425.856H181.86V436H180.34V425.856ZM190.674 431.072C190.653 430.752 190.578 430.448 190.45 430.16C190.333 429.872 190.168 429.627 189.954 429.424C189.752 429.211 189.506 429.045 189.218 428.928C188.941 428.8 188.632 428.736 188.29 428.736C187.938 428.736 187.618 428.8 187.33 428.928C187.053 429.045 186.813 429.211 186.61 429.424C186.408 429.637 186.248 429.888 186.13 430.176C186.013 430.453 185.944 430.752 185.922 431.072H190.674ZM191.986 433.376C191.805 434.304 191.405 435.003 190.786 435.472C190.168 435.941 189.389 436.176 188.45 436.176C187.789 436.176 187.213 436.069 186.722 435.856C186.242 435.643 185.837 435.344 185.506 434.96C185.176 434.576 184.925 434.117 184.754 433.584C184.594 433.051 184.504 432.469 184.482 431.84C184.482 431.211 184.578 430.635 184.77 430.112C184.962 429.589 185.229 429.136 185.57 428.752C185.922 428.368 186.333 428.069 186.802 427.856C187.282 427.643 187.805 427.536 188.37 427.536C189.106 427.536 189.714 427.691 190.194 428C190.685 428.299 191.074 428.683 191.362 429.152C191.661 429.621 191.864 430.133 191.97 430.688C192.088 431.243 192.136 431.771 192.114 432.272H185.922C185.912 432.635 185.954 432.981 186.05 433.312C186.146 433.632 186.301 433.92 186.514 434.176C186.728 434.421 187 434.619 187.33 434.768C187.661 434.917 188.05 434.992 188.498 434.992C189.074 434.992 189.544 434.859 189.906 434.592C190.28 434.325 190.525 433.92 190.642 433.376H191.986ZM195.748 431.648L192.868 427.728H194.612L196.596 430.624L198.66 427.728H200.292L197.444 431.536L200.644 436H198.9L196.596 432.576L194.292 436H192.644L195.748 431.648ZM203.693 427.728H205.341V428.928H203.693V434.064C203.693 434.224 203.704 434.352 203.725 434.448C203.757 434.544 203.811 434.619 203.885 434.672C203.96 434.725 204.061 434.763 204.189 434.784C204.328 434.795 204.504 434.8 204.717 434.8H205.341V436H204.301C203.949 436 203.645 435.979 203.389 435.936C203.144 435.883 202.941 435.792 202.781 435.664C202.632 435.536 202.52 435.355 202.445 435.12C202.371 434.885 202.333 434.576 202.333 434.192V428.928H200.925V427.728H202.333V425.248H203.693V427.728ZM212.297 431.872C212.297 432.373 212.361 432.821 212.489 433.216C212.628 433.6 212.815 433.925 213.049 434.192C213.284 434.448 213.556 434.645 213.865 434.784C214.185 434.923 214.521 434.992 214.873 434.992C215.225 434.992 215.556 434.923 215.865 434.784C216.185 434.645 216.463 434.448 216.697 434.192C216.932 433.925 217.113 433.6 217.241 433.216C217.38 432.821 217.449 432.373 217.449 431.872C217.449 431.371 217.38 430.928 217.241 430.544C217.113 430.149 216.932 429.819 216.697 429.552C216.463 429.285 216.185 429.083 215.865 428.944C215.556 428.805 215.225 428.736 214.873 428.736C214.521 428.736 214.185 428.805 213.865 428.944C213.556 429.083 213.284 429.285 213.049 429.552C212.815 429.819 212.628 430.149 212.489 430.544C212.361 430.928 212.297 431.371 212.297 431.872ZM210.857 431.872C210.857 431.264 210.943 430.699 211.113 430.176C211.284 429.643 211.54 429.184 211.881 428.8C212.223 428.405 212.644 428.096 213.145 427.872C213.647 427.648 214.223 427.536 214.873 427.536C215.535 427.536 216.111 427.648 216.601 427.872C217.103 428.096 217.524 428.405 217.865 428.8C218.207 429.184 218.463 429.643 218.633 430.176C218.804 430.699 218.889 431.264 218.889 431.872C218.889 432.48 218.804 433.045 218.633 433.568C218.463 434.091 218.207 434.549 217.865 434.944C217.524 435.328 217.103 435.632 216.601 435.856C216.111 436.069 215.535 436.176 214.873 436.176C214.223 436.176 213.647 436.069 213.145 435.856C212.644 435.632 212.223 435.328 211.881 434.944C211.54 434.549 211.284 434.091 211.113 433.568C210.943 433.045 210.857 432.48 210.857 431.872ZM220.493 427.728H221.773V429.04H221.805C222.37 428.037 223.266 427.536 224.493 427.536C225.037 427.536 225.49 427.611 225.853 427.76C226.215 427.909 226.509 428.117 226.733 428.384C226.957 428.651 227.111 428.971 227.197 429.344C227.293 429.707 227.341 430.112 227.341 430.56V436H225.981V430.4C225.981 429.888 225.831 429.483 225.533 429.184C225.234 428.885 224.823 428.736 224.301 428.736C223.885 428.736 223.522 428.8 223.213 428.928C222.914 429.056 222.663 429.237 222.461 429.472C222.258 429.707 222.103 429.984 221.997 430.304C221.901 430.613 221.853 430.955 221.853 431.328V436H220.493V427.728ZM229.463 424.576H230.823V436H229.463V424.576ZM236.178 437.104C236.018 437.509 235.858 437.851 235.698 438.128C235.549 438.405 235.378 438.629 235.186 438.8C235.005 438.981 234.797 439.109 234.562 439.184C234.338 439.269 234.077 439.312 233.778 439.312C233.618 439.312 233.458 439.301 233.298 439.28C233.138 439.259 232.984 439.221 232.834 439.168V437.92C232.952 437.973 233.085 438.016 233.234 438.048C233.394 438.091 233.528 438.112 233.634 438.112C233.912 438.112 234.141 438.043 234.322 437.904C234.514 437.776 234.658 437.589 234.754 437.344L235.314 435.952L232.034 427.728H233.57L235.986 434.496H236.018L238.338 427.728H239.778L236.178 437.104Z" fill="black" fill-opacity="0.68"/>
<path d="M353.604 425.076H356.116V434.388H361.684V436.5H353.604V425.076ZM362.952 430.772C362.984 430.239 363.118 429.796 363.352 429.444C363.587 429.092 363.886 428.809 364.248 428.596C364.611 428.383 365.016 428.233 365.464 428.148C365.923 428.052 366.382 428.004 366.84 428.004C367.256 428.004 367.678 428.036 368.104 428.1C368.531 428.153 368.92 428.265 369.272 428.436C369.624 428.607 369.912 428.847 370.136 429.156C370.36 429.455 370.472 429.855 370.472 430.356V434.66C370.472 435.033 370.494 435.391 370.536 435.732C370.579 436.073 370.654 436.329 370.76 436.5H368.456C368.414 436.372 368.376 436.244 368.344 436.116C368.323 435.977 368.307 435.839 368.296 435.7C367.934 436.073 367.507 436.335 367.016 436.484C366.526 436.633 366.024 436.708 365.512 436.708C365.118 436.708 364.75 436.66 364.408 436.564C364.067 436.468 363.768 436.319 363.512 436.116C363.256 435.913 363.054 435.657 362.904 435.348C362.766 435.039 362.696 434.671 362.696 434.244C362.696 433.775 362.776 433.391 362.936 433.092C363.107 432.783 363.32 432.537 363.576 432.356C363.843 432.175 364.142 432.041 364.472 431.956C364.814 431.86 365.155 431.785 365.496 431.732C365.838 431.679 366.174 431.636 366.504 431.604C366.835 431.572 367.128 431.524 367.384 431.46C367.64 431.396 367.843 431.305 367.992 431.188C368.142 431.06 368.211 430.879 368.2 430.644C368.2 430.399 368.158 430.207 368.072 430.068C367.998 429.919 367.891 429.807 367.752 429.732C367.624 429.647 367.47 429.593 367.288 429.572C367.118 429.54 366.931 429.524 366.728 429.524C366.28 429.524 365.928 429.62 365.672 429.812C365.416 430.004 365.267 430.324 365.224 430.772H362.952ZM368.2 432.452C368.104 432.537 367.982 432.607 367.832 432.66C367.694 432.703 367.539 432.74 367.368 432.772C367.208 432.804 367.038 432.831 366.856 432.852C366.675 432.873 366.494 432.9 366.312 432.932C366.142 432.964 365.971 433.007 365.8 433.06C365.64 433.113 365.496 433.188 365.368 433.284C365.251 433.369 365.155 433.481 365.08 433.62C365.006 433.759 364.968 433.935 364.968 434.148C364.968 434.351 365.006 434.521 365.08 434.66C365.155 434.799 365.256 434.911 365.384 434.996C365.512 435.071 365.662 435.124 365.832 435.156C366.003 435.188 366.179 435.204 366.36 435.204C366.808 435.204 367.155 435.129 367.4 434.98C367.646 434.831 367.827 434.655 367.944 434.452C368.062 434.239 368.131 434.025 368.152 433.812C368.184 433.599 368.2 433.428 368.2 433.3V432.452ZM378.5 432.372C378.5 432.02 378.463 431.684 378.388 431.364C378.313 431.044 378.196 430.761 378.036 430.516C377.876 430.271 377.673 430.079 377.428 429.94C377.193 429.791 376.905 429.716 376.564 429.716C376.233 429.716 375.945 429.791 375.7 429.94C375.455 430.079 375.252 430.271 375.092 430.516C374.932 430.761 374.815 431.044 374.74 431.364C374.665 431.684 374.628 432.02 374.628 432.372C374.628 432.713 374.665 433.044 374.74 433.364C374.815 433.684 374.932 433.967 375.092 434.212C375.252 434.457 375.455 434.655 375.7 434.804C375.945 434.943 376.233 435.012 376.564 435.012C376.905 435.012 377.193 434.943 377.428 434.804C377.673 434.655 377.876 434.457 378.036 434.212C378.196 433.967 378.313 433.684 378.388 433.364C378.463 433.044 378.5 432.713 378.5 432.372ZM372.436 425.076H374.708V429.236H374.74C375.017 428.809 375.391 428.5 375.86 428.308C376.34 428.105 376.836 428.004 377.348 428.004C377.764 428.004 378.175 428.089 378.58 428.26C378.985 428.431 379.348 428.692 379.668 429.044C379.999 429.396 380.265 429.849 380.468 430.404C380.671 430.948 380.772 431.599 380.772 432.356C380.772 433.113 380.671 433.769 380.468 434.324C380.265 434.868 379.999 435.316 379.668 435.668C379.348 436.02 378.985 436.281 378.58 436.452C378.175 436.623 377.764 436.708 377.348 436.708C376.74 436.708 376.196 436.612 375.716 436.42C375.236 436.228 374.873 435.903 374.628 435.444H374.596V436.5H372.436V425.076ZM387.985 431.476C387.878 430.9 387.686 430.463 387.409 430.164C387.142 429.865 386.732 429.716 386.177 429.716C385.814 429.716 385.51 429.78 385.265 429.908C385.03 430.025 384.838 430.175 384.689 430.356C384.55 430.537 384.449 430.729 384.385 430.932C384.332 431.135 384.3 431.316 384.289 431.476H387.985ZM384.289 432.916C384.321 433.652 384.508 434.185 384.849 434.516C385.19 434.847 385.681 435.012 386.321 435.012C386.78 435.012 387.174 434.9 387.505 434.676C387.836 434.441 388.038 434.196 388.113 433.94H390.113C389.793 434.932 389.302 435.641 388.641 436.068C387.98 436.495 387.18 436.708 386.241 436.708C385.59 436.708 385.004 436.607 384.481 436.404C383.958 436.191 383.516 435.892 383.153 435.508C382.79 435.124 382.508 434.665 382.305 434.132C382.113 433.599 382.017 433.012 382.017 432.372C382.017 431.753 382.118 431.177 382.321 430.644C382.524 430.111 382.812 429.652 383.185 429.268C383.558 428.873 384.001 428.564 384.513 428.34C385.036 428.116 385.612 428.004 386.241 428.004C386.945 428.004 387.558 428.143 388.081 428.42C388.604 428.687 389.03 429.049 389.361 429.508C389.702 429.967 389.948 430.489 390.097 431.076C390.246 431.663 390.3 432.276 390.257 432.916H384.289ZM391.869 425.076H394.141V436.5H391.869V425.076Z" fill="black"/>
<path d="M352.5 438.5H395.069V439.3H352.5V438.5Z" fill="black"/>
<path d="M180.34 533.856H176.532V532.576H185.668V533.856H181.86V544H180.34V533.856ZM190.674 539.072C190.653 538.752 190.578 538.448 190.45 538.16C190.333 537.872 190.168 537.627 189.954 537.424C189.752 537.211 189.506 537.045 189.218 536.928C188.941 536.8 188.632 536.736 188.29 536.736C187.938 536.736 187.618 536.8 187.33 536.928C187.053 537.045 186.813 537.211 186.61 537.424C186.408 537.637 186.248 537.888 186.13 538.176C186.013 538.453 185.944 538.752 185.922 539.072H190.674ZM191.986 541.376C191.805 542.304 191.405 543.003 190.786 543.472C190.168 543.941 189.389 544.176 188.45 544.176C187.789 544.176 187.213 544.069 186.722 543.856C186.242 543.643 185.837 543.344 185.506 542.96C185.176 542.576 184.925 542.117 184.754 541.584C184.594 541.051 184.504 540.469 184.482 539.84C184.482 539.211 184.578 538.635 184.77 538.112C184.962 537.589 185.229 537.136 185.57 536.752C185.922 536.368 186.333 536.069 186.802 535.856C187.282 535.643 187.805 535.536 188.37 535.536C189.106 535.536 189.714 535.691 190.194 536C190.685 536.299 191.074 536.683 191.362 537.152C191.661 537.621 191.864 538.133 191.97 538.688C192.088 539.243 192.136 539.771 192.114 540.272H185.922C185.912 540.635 185.954 540.981 186.05 541.312C186.146 541.632 186.301 541.92 186.514 542.176C186.728 542.421 187 542.619 187.33 542.768C187.661 542.917 188.05 542.992 188.498 542.992C189.074 542.992 189.544 542.859 189.906 542.592C190.28 542.325 190.525 541.92 190.642 541.376H191.986ZM195.748 539.648L192.868 535.728H194.612L196.596 538.624L198.66 535.728H200.292L197.444 539.536L200.644 544H198.9L196.596 540.576L194.292 544H192.644L195.748 539.648ZM203.693 535.728H205.341V536.928H203.693V542.064C203.693 542.224 203.704 542.352 203.725 542.448C203.757 542.544 203.811 542.619 203.885 542.672C203.96 542.725 204.061 542.763 204.189 542.784C204.328 542.795 204.504 542.8 204.717 542.8H205.341V544H204.301C203.949 544 203.645 543.979 203.389 543.936C203.144 543.883 202.941 543.792 202.781 543.664C202.632 543.536 202.52 543.355 202.445 543.12C202.371 542.885 202.333 542.576 202.333 542.192V536.928H200.925V535.728H202.333V533.248H203.693V535.728ZM215.625 539.408H219.113V540.496H215.625V544H214.537V540.496H211.049V539.408H214.537V535.904H215.625V539.408ZM225.64 532.576H227.16V544H225.64V532.576ZM235.109 538.384C235.002 537.861 234.778 537.456 234.437 537.168C234.095 536.88 233.637 536.736 233.061 536.736C232.57 536.736 232.159 536.827 231.829 537.008C231.498 537.189 231.231 537.429 231.029 537.728C230.837 538.027 230.698 538.373 230.613 538.768C230.527 539.152 230.485 539.552 230.485 539.968C230.485 540.352 230.527 540.725 230.613 541.088C230.709 541.451 230.853 541.776 231.045 542.064C231.237 542.341 231.487 542.565 231.797 542.736C232.106 542.907 232.474 542.992 232.901 542.992C233.573 542.992 234.095 542.816 234.469 542.464C234.853 542.112 235.087 541.616 235.173 540.976H236.565C236.415 542 236.031 542.789 235.413 543.344C234.805 543.899 233.973 544.176 232.917 544.176C232.287 544.176 231.727 544.075 231.237 543.872C230.757 543.669 230.351 543.381 230.021 543.008C229.701 542.635 229.455 542.192 229.285 541.68C229.125 541.157 229.045 540.587 229.045 539.968C229.045 539.349 229.125 538.773 229.285 538.24C229.445 537.696 229.685 537.227 230.005 536.832C230.335 536.427 230.746 536.112 231.237 535.888C231.727 535.653 232.298 535.536 232.949 535.536C233.418 535.536 233.855 535.595 234.261 535.712C234.677 535.819 235.039 535.989 235.349 536.224C235.669 536.459 235.93 536.757 236.133 537.12C236.335 537.472 236.463 537.893 236.517 538.384H235.109ZM239.079 539.872C239.079 540.373 239.143 540.821 239.271 541.216C239.409 541.6 239.596 541.925 239.831 542.192C240.065 542.448 240.337 542.645 240.647 542.784C240.967 542.923 241.303 542.992 241.655 542.992C242.007 542.992 242.337 542.923 242.647 542.784C242.967 542.645 243.244 542.448 243.479 542.192C243.713 541.925 243.895 541.6 244.023 541.216C244.161 540.821 244.231 540.373 244.231 539.872C244.231 539.371 244.161 538.928 244.023 538.544C243.895 538.149 243.713 537.819 243.479 537.552C243.244 537.285 242.967 537.083 242.647 536.944C242.337 536.805 242.007 536.736 241.655 536.736C241.303 536.736 240.967 536.805 240.647 536.944C240.337 537.083 240.065 537.285 239.831 537.552C239.596 537.819 239.409 538.149 239.271 538.544C239.143 538.928 239.079 539.371 239.079 539.872ZM237.639 539.872C237.639 539.264 237.724 538.699 237.895 538.176C238.065 537.643 238.321 537.184 238.663 536.8C239.004 536.405 239.425 536.096 239.927 535.872C240.428 535.648 241.004 535.536 241.655 535.536C242.316 535.536 242.892 535.648 243.383 535.872C243.884 536.096 244.305 536.405 244.647 536.8C244.988 537.184 245.244 537.643 245.415 538.176C245.585 538.699 245.671 539.264 245.671 539.872C245.671 540.48 245.585 541.045 245.415 541.568C245.244 542.091 244.988 542.549 244.647 542.944C244.305 543.328 243.884 543.632 243.383 543.856C242.892 544.069 242.316 544.176 241.655 544.176C241.004 544.176 240.428 544.069 239.927 543.856C239.425 543.632 239.004 543.328 238.663 542.944C238.321 542.549 238.065 542.091 237.895 541.568C237.724 541.045 237.639 540.48 237.639 539.872ZM247.274 535.728H248.554V537.04H248.586C249.151 536.037 250.047 535.536 251.274 535.536C251.818 535.536 252.271 535.611 252.634 535.76C252.997 535.909 253.29 536.117 253.514 536.384C253.738 536.651 253.893 536.971 253.978 537.344C254.074 537.707 254.122 538.112 254.122 538.56V544H252.762V538.4C252.762 537.888 252.613 537.483 252.314 537.184C252.015 536.885 251.605 536.736 251.082 536.736C250.666 536.736 250.303 536.8 249.994 536.928C249.695 537.056 249.445 537.237 249.242 537.472C249.039 537.707 248.885 537.984 248.778 538.304C248.682 538.613 248.634 538.955 248.634 539.328V544H247.274V535.728Z" fill="black" fill-opacity="0.68"/>
<path fill-rule="evenodd" clip-rule="evenodd" d="M367.833 537.868L362.5 543.705L357.167 537.868L357.164 537.866C356.131 536.733 356.223 534.987 357.37 533.967C358.475 532.984 360.165 533.027 361.216 534.066C361.219 534.068 361.221 534.071 361.224 534.074L362.04 534.84L362.5 535.278L362.96 534.84L363.776 534.074C363.778 534.071 363.781 534.068 363.784 534.066C364.307 533.546 365.018 533.255 365.76 533.257C367.303 533.257 368.554 534.493 368.554 536.018C368.554 536.7 368.298 537.359 367.836 537.866L367.833 537.868ZM369.053 532.764C367.245 530.978 364.321 530.968 362.5 532.732C360.679 530.968 357.755 530.978 355.947 532.764C354.159 534.532 354.129 537.38 355.86 539.183L362.5 546.417L369.14 539.183C370.871 537.38 370.842 534.532 369.053 532.764Z" fill="black"/>
<path d="M381.604 533.076H384.116V542.388H389.684V544.5H381.604V533.076ZM390.952 538.772C390.984 538.239 391.118 537.796 391.352 537.444C391.587 537.092 391.886 536.809 392.248 536.596C392.611 536.383 393.016 536.233 393.464 536.148C393.923 536.052 394.382 536.004 394.84 536.004C395.256 536.004 395.678 536.036 396.104 536.1C396.531 536.153 396.92 536.265 397.272 536.436C397.624 536.607 397.912 536.847 398.136 537.156C398.36 537.455 398.472 537.855 398.472 538.356V542.66C398.472 543.033 398.494 543.391 398.536 543.732C398.579 544.073 398.654 544.329 398.76 544.5H396.456C396.414 544.372 396.376 544.244 396.344 544.116C396.323 543.977 396.307 543.839 396.296 543.7C395.934 544.073 395.507 544.335 395.016 544.484C394.526 544.633 394.024 544.708 393.512 544.708C393.118 544.708 392.75 544.66 392.408 544.564C392.067 544.468 391.768 544.319 391.512 544.116C391.256 543.913 391.054 543.657 390.904 543.348C390.766 543.039 390.696 542.671 390.696 542.244C390.696 541.775 390.776 541.391 390.936 541.092C391.107 540.783 391.32 540.537 391.576 540.356C391.843 540.175 392.142 540.041 392.472 539.956C392.814 539.86 393.155 539.785 393.496 539.732C393.838 539.679 394.174 539.636 394.504 539.604C394.835 539.572 395.128 539.524 395.384 539.46C395.64 539.396 395.843 539.305 395.992 539.188C396.142 539.06 396.211 538.879 396.2 538.644C396.2 538.399 396.158 538.207 396.072 538.068C395.998 537.919 395.891 537.807 395.752 537.732C395.624 537.647 395.47 537.593 395.288 537.572C395.118 537.54 394.931 537.524 394.728 537.524C394.28 537.524 393.928 537.62 393.672 537.812C393.416 538.004 393.267 538.324 393.224 538.772H390.952ZM396.2 540.452C396.104 540.537 395.982 540.607 395.832 540.66C395.694 540.703 395.539 540.74 395.368 540.772C395.208 540.804 395.038 540.831 394.856 540.852C394.675 540.873 394.494 540.9 394.312 540.932C394.142 540.964 393.971 541.007 393.8 541.06C393.64 541.113 393.496 541.188 393.368 541.284C393.251 541.369 393.155 541.481 393.08 541.62C393.006 541.759 392.968 541.935 392.968 542.148C392.968 542.351 393.006 542.521 393.08 542.66C393.155 542.799 393.256 542.911 393.384 542.996C393.512 543.071 393.662 543.124 393.832 543.156C394.003 543.188 394.179 543.204 394.36 543.204C394.808 543.204 395.155 543.129 395.4 542.98C395.646 542.831 395.827 542.655 395.944 542.452C396.062 542.239 396.131 542.025 396.152 541.812C396.184 541.599 396.2 541.428 396.2 541.3V540.452ZM406.5 540.372C406.5 540.02 406.463 539.684 406.388 539.364C406.313 539.044 406.196 538.761 406.036 538.516C405.876 538.271 405.673 538.079 405.428 537.94C405.193 537.791 404.905 537.716 404.564 537.716C404.233 537.716 403.945 537.791 403.7 537.94C403.455 538.079 403.252 538.271 403.092 538.516C402.932 538.761 402.815 539.044 402.74 539.364C402.665 539.684 402.628 540.02 402.628 540.372C402.628 540.713 402.665 541.044 402.74 541.364C402.815 541.684 402.932 541.967 403.092 542.212C403.252 542.457 403.455 542.655 403.7 542.804C403.945 542.943 404.233 543.012 404.564 543.012C404.905 543.012 405.193 542.943 405.428 542.804C405.673 542.655 405.876 542.457 406.036 542.212C406.196 541.967 406.313 541.684 406.388 541.364C406.463 541.044 406.5 540.713 406.5 540.372ZM400.436 533.076H402.708V537.236H402.74C403.017 536.809 403.391 536.5 403.86 536.308C404.34 536.105 404.836 536.004 405.348 536.004C405.764 536.004 406.175 536.089 406.58 536.26C406.985 536.431 407.348 536.692 407.668 537.044C407.999 537.396 408.265 537.849 408.468 538.404C408.671 538.948 408.772 539.599 408.772 540.356C408.772 541.113 408.671 541.769 408.468 542.324C408.265 542.868 407.999 543.316 407.668 543.668C407.348 544.02 406.985 544.281 406.58 544.452C406.175 544.623 405.764 544.708 405.348 544.708C404.74 544.708 404.196 544.612 403.716 544.42C403.236 544.228 402.873 543.903 402.628 543.444H402.596V544.5H400.436V533.076ZM415.985 539.476C415.878 538.9 415.686 538.463 415.409 538.164C415.142 537.865 414.732 537.716 414.177 537.716C413.814 537.716 413.51 537.78 413.265 537.908C413.03 538.025 412.838 538.175 412.689 538.356C412.55 538.537 412.449 538.729 412.385 538.932C412.332 539.135 412.3 539.316 412.289 539.476H415.985ZM412.289 540.916C412.321 541.652 412.508 542.185 412.849 542.516C413.19 542.847 413.681 543.012 414.321 543.012C414.78 543.012 415.174 542.9 415.505 542.676C415.836 542.441 416.038 542.196 416.113 541.94H418.113C417.793 542.932 417.302 543.641 416.641 544.068C415.98 544.495 415.18 544.708 414.241 544.708C413.59 544.708 413.004 544.607 412.481 544.404C411.958 544.191 411.516 543.892 411.153 543.508C410.79 543.124 410.508 542.665 410.305 542.132C410.113 541.599 410.017 541.012 410.017 540.372C410.017 539.753 410.118 539.177 410.321 538.644C410.524 538.111 410.812 537.652 411.185 537.268C411.558 536.873 412.001 536.564 412.513 536.34C413.036 536.116 413.612 536.004 414.241 536.004C414.945 536.004 415.558 536.143 416.081 536.42C416.604 536.687 417.03 537.049 417.361 537.508C417.702 537.967 417.948 538.489 418.097 539.076C418.246 539.663 418.3 540.276 418.257 540.916H412.289ZM419.869 533.076H422.141V544.5H419.869V533.076Z" fill="black"/>
<path d="M182.244 652H180.516L176.5 640.576H178.132L181.396 650.48H181.428L184.724 640.576H186.308L182.244 652ZM188.464 642.24H187.104V640.576H188.464V642.24ZM187.104 643.728H188.464V652H187.104V643.728ZM191.403 649.392C191.414 649.691 191.483 649.947 191.611 650.16C191.739 650.363 191.904 650.528 192.107 650.656C192.32 650.773 192.555 650.859 192.811 650.912C193.078 650.965 193.35 650.992 193.627 650.992C193.84 650.992 194.064 650.976 194.299 650.944C194.534 650.912 194.747 650.853 194.939 650.768C195.142 650.683 195.307 650.56 195.435 650.4C195.563 650.229 195.627 650.016 195.627 649.76C195.627 649.408 195.494 649.141 195.227 648.96C194.96 648.779 194.624 648.635 194.219 648.528C193.824 648.411 193.392 648.309 192.923 648.224C192.454 648.128 192.016 648 191.611 647.84C191.216 647.669 190.886 647.435 190.619 647.136C190.352 646.837 190.219 646.421 190.219 645.888C190.219 645.472 190.31 645.115 190.491 644.816C190.683 644.517 190.923 644.277 191.211 644.096C191.51 643.904 191.84 643.765 192.203 643.68C192.576 643.584 192.944 643.536 193.307 643.536C193.776 643.536 194.208 643.579 194.603 643.664C194.998 643.739 195.344 643.877 195.643 644.08C195.952 644.272 196.198 644.539 196.379 644.88C196.56 645.211 196.667 645.627 196.699 646.128H195.339C195.318 645.861 195.248 645.643 195.131 645.472C195.014 645.291 194.864 645.147 194.683 645.04C194.502 644.933 194.299 644.859 194.075 644.816C193.862 644.763 193.643 644.736 193.419 644.736C193.216 644.736 193.008 644.752 192.795 644.784C192.592 644.816 192.406 644.875 192.235 644.96C192.064 645.035 191.926 645.141 191.819 645.28C191.712 645.408 191.659 645.579 191.659 645.792C191.659 646.027 191.739 646.224 191.899 646.384C192.07 646.533 192.283 646.661 192.539 646.768C192.795 646.864 193.083 646.949 193.403 647.024C193.723 647.088 194.043 647.157 194.363 647.232C194.704 647.307 195.035 647.397 195.355 647.504C195.686 647.611 195.974 647.755 196.219 647.936C196.475 648.107 196.678 648.325 196.827 648.592C196.987 648.859 197.067 649.189 197.067 649.584C197.067 650.085 196.96 650.501 196.747 650.832C196.544 651.163 196.272 651.429 195.931 651.632C195.6 651.835 195.222 651.973 194.795 652.048C194.379 652.133 193.963 652.176 193.547 652.176C193.088 652.176 192.651 652.128 192.235 652.032C191.819 651.936 191.451 651.781 191.131 651.568C190.811 651.344 190.555 651.056 190.363 650.704C190.171 650.341 190.064 649.904 190.043 649.392H191.403ZM200.011 642.24H198.651V640.576H200.011V642.24ZM198.651 643.728H200.011V652H198.651V643.728ZM204.006 643.728H205.654V644.928H204.006V650.064C204.006 650.224 204.016 650.352 204.038 650.448C204.07 650.544 204.123 650.619 204.198 650.672C204.272 650.725 204.374 650.763 204.502 650.784C204.64 650.795 204.816 650.8 205.03 650.8H205.654V652H204.614C204.262 652 203.958 651.979 203.702 651.936C203.456 651.883 203.254 651.792 203.094 651.664C202.944 651.536 202.832 651.355 202.758 651.12C202.683 650.885 202.646 650.576 202.646 650.192V644.928H201.238V643.728H202.646V641.248H204.006V643.728ZM212.909 647.072C212.887 646.752 212.813 646.448 212.685 646.16C212.567 645.872 212.402 645.627 212.189 645.424C211.986 645.211 211.741 645.045 211.453 644.928C211.175 644.8 210.866 644.736 210.525 644.736C210.173 644.736 209.853 644.8 209.565 644.928C209.287 645.045 209.047 645.211 208.845 645.424C208.642 645.637 208.482 645.888 208.365 646.176C208.247 646.453 208.178 646.752 208.157 647.072H212.909ZM214.221 649.376C214.039 650.304 213.639 651.003 213.021 651.472C212.402 651.941 211.623 652.176 210.685 652.176C210.023 652.176 209.447 652.069 208.957 651.856C208.477 651.643 208.071 651.344 207.741 650.96C207.41 650.576 207.159 650.117 206.989 649.584C206.829 649.051 206.738 648.469 206.717 647.84C206.717 647.211 206.813 646.635 207.005 646.112C207.197 645.589 207.463 645.136 207.805 644.752C208.157 644.368 208.567 644.069 209.037 643.856C209.517 643.643 210.039 643.536 210.605 643.536C211.341 643.536 211.949 643.691 212.429 644C212.919 644.299 213.309 644.683 213.597 645.152C213.895 645.621 214.098 646.133 214.205 646.688C214.322 647.243 214.37 647.771 214.349 648.272H208.157C208.146 648.635 208.189 648.981 208.285 649.312C208.381 649.632 208.535 649.92 208.749 650.176C208.962 650.421 209.234 650.619 209.565 650.768C209.895 650.917 210.285 650.992 210.733 650.992C211.309 650.992 211.778 650.859 212.141 650.592C212.514 650.325 212.759 649.92 212.877 649.376H214.221ZM216.75 647.936C216.75 648.32 216.798 648.699 216.894 649.072C217.001 649.435 217.156 649.76 217.358 650.048C217.572 650.336 217.838 650.565 218.158 650.736C218.489 650.907 218.873 650.992 219.31 650.992C219.769 650.992 220.158 650.901 220.478 650.72C220.798 650.539 221.06 650.304 221.262 650.016C221.465 649.717 221.609 649.381 221.694 649.008C221.79 648.635 221.838 648.256 221.838 647.872C221.838 647.467 221.79 647.077 221.694 646.704C221.598 646.32 221.444 645.984 221.23 645.696C221.028 645.408 220.761 645.179 220.43 645.008C220.1 644.827 219.7 644.736 219.23 644.736C218.772 644.736 218.382 644.827 218.062 645.008C217.742 645.189 217.486 645.429 217.294 645.728C217.102 646.027 216.964 646.368 216.878 646.752C216.793 647.136 216.75 647.531 216.75 647.936ZM223.15 652H221.79V650.88H221.758C221.534 651.339 221.182 651.669 220.702 651.872C220.222 652.075 219.694 652.176 219.118 652.176C218.478 652.176 217.918 652.059 217.438 651.824C216.969 651.589 216.574 651.275 216.254 650.88C215.945 650.485 215.71 650.027 215.55 649.504C215.39 648.981 215.31 648.427 215.31 647.84C215.31 647.253 215.385 646.699 215.534 646.176C215.694 645.653 215.929 645.2 216.238 644.816C216.558 644.421 216.953 644.112 217.422 643.888C217.902 643.653 218.457 643.536 219.086 643.536C219.3 643.536 219.529 643.557 219.774 643.6C220.02 643.643 220.265 643.717 220.51 643.824C220.756 643.92 220.985 644.053 221.198 644.224C221.422 644.384 221.609 644.587 221.758 644.832H221.79V640.576H223.15V652Z" fill="black" fill-opacity="0.68"/>
<path d="M353.604 641.076H356.116V650.388H361.684V652.5H353.604V641.076ZM362.952 646.772C362.984 646.239 363.118 645.796 363.352 645.444C363.587 645.092 363.886 644.809 364.248 644.596C364.611 644.383 365.016 644.233 365.464 644.148C365.923 644.052 366.382 644.004 366.84 644.004C367.256 644.004 367.678 644.036 368.104 644.1C368.531 644.153 368.92 644.265 369.272 644.436C369.624 644.607 369.912 644.847 370.136 645.156C370.36 645.455 370.472 645.855 370.472 646.356V650.66C370.472 651.033 370.494 651.391 370.536 651.732C370.579 652.073 370.654 652.329 370.76 652.5H368.456C368.414 652.372 368.376 652.244 368.344 652.116C368.323 651.977 368.307 651.839 368.296 651.7C367.934 652.073 367.507 652.335 367.016 652.484C366.526 652.633 366.024 652.708 365.512 652.708C365.118 652.708 364.75 652.66 364.408 652.564C364.067 652.468 363.768 652.319 363.512 652.116C363.256 651.913 363.054 651.657 362.904 651.348C362.766 651.039 362.696 650.671 362.696 650.244C362.696 649.775 362.776 649.391 362.936 649.092C363.107 648.783 363.32 648.537 363.576 648.356C363.843 648.175 364.142 648.041 364.472 647.956C364.814 647.86 365.155 647.785 365.496 647.732C365.838 647.679 366.174 647.636 366.504 647.604C366.835 647.572 367.128 647.524 367.384 647.46C367.64 647.396 367.843 647.305 367.992 647.188C368.142 647.06 368.211 646.879 368.2 646.644C368.2 646.399 368.158 646.207 368.072 646.068C367.998 645.919 367.891 645.807 367.752 645.732C367.624 645.647 367.47 645.593 367.288 645.572C367.118 645.54 366.931 645.524 366.728 645.524C366.28 645.524 365.928 645.62 365.672 645.812C365.416 646.004 365.267 646.324 365.224 646.772H362.952ZM368.2 648.452C368.104 648.537 367.982 648.607 367.832 648.66C367.694 648.703 367.539 648.74 367.368 648.772C367.208 648.804 367.038 648.831 366.856 648.852C366.675 648.873 366.494 648.9 366.312 648.932C366.142 648.964 365.971 649.007 365.8 649.06C365.64 649.113 365.496 649.188 365.368 649.284C365.251 649.369 365.155 649.481 365.08 649.62C365.006 649.759 364.968 649.935 364.968 650.148C364.968 650.351 365.006 650.521 365.08 650.66C365.155 650.799 365.256 650.911 365.384 650.996C365.512 651.071 365.662 651.124 365.832 651.156C366.003 651.188 366.179 651.204 366.36 651.204C366.808 651.204 367.155 651.129 367.4 650.98C367.646 650.831 367.827 650.655 367.944 650.452C368.062 650.239 368.131 650.025 368.152 649.812C368.184 649.599 368.2 649.428 368.2 649.3V648.452ZM378.5 648.372C378.5 648.02 378.463 647.684 378.388 647.364C378.313 647.044 378.196 646.761 378.036 646.516C377.876 646.271 377.673 646.079 377.428 645.94C377.193 645.791 376.905 645.716 376.564 645.716C376.233 645.716 375.945 645.791 375.7 645.94C375.455 646.079 375.252 646.271 375.092 646.516C374.932 646.761 374.815 647.044 374.74 647.364C374.665 647.684 374.628 648.02 374.628 648.372C374.628 648.713 374.665 649.044 374.74 649.364C374.815 649.684 374.932 649.967 375.092 650.212C375.252 650.457 375.455 650.655 375.7 650.804C375.945 650.943 376.233 651.012 376.564 651.012C376.905 651.012 377.193 650.943 377.428 650.804C377.673 650.655 377.876 650.457 378.036 650.212C378.196 649.967 378.313 649.684 378.388 649.364C378.463 649.044 378.5 648.713 378.5 648.372ZM372.436 641.076H374.708V645.236H374.74C375.017 644.809 375.391 644.5 375.86 644.308C376.34 644.105 376.836 644.004 377.348 644.004C377.764 644.004 378.175 644.089 378.58 644.26C378.985 644.431 379.348 644.692 379.668 645.044C379.999 645.396 380.265 645.849 380.468 646.404C380.671 646.948 380.772 647.599 380.772 648.356C380.772 649.113 380.671 649.769 380.468 650.324C380.265 650.868 379.999 651.316 379.668 651.668C379.348 652.02 378.985 652.281 378.58 652.452C378.175 652.623 377.764 652.708 377.348 652.708C376.74 652.708 376.196 652.612 375.716 652.42C375.236 652.228 374.873 651.903 374.628 651.444H374.596V652.5H372.436V641.076ZM387.985 647.476C387.878 646.9 387.686 646.463 387.409 646.164C387.142 645.865 386.732 645.716 386.177 645.716C385.814 645.716 385.51 645.78 385.265 645.908C385.03 646.025 384.838 646.175 384.689 646.356C384.55 646.537 384.449 646.729 384.385 646.932C384.332 647.135 384.3 647.316 384.289 647.476H387.985ZM384.289 648.916C384.321 649.652 384.508 650.185 384.849 650.516C385.19 650.847 385.681 651.012 386.321 651.012C386.78 651.012 387.174 650.9 387.505 650.676C387.836 650.441 388.038 650.196 388.113 649.94H390.113C389.793 650.932 389.302 651.641 388.641 652.068C387.98 652.495 387.18 652.708 386.241 652.708C385.59 652.708 385.004 652.607 384.481 652.404C383.958 652.191 383.516 651.892 383.153 651.508C382.79 651.124 382.508 650.665 382.305 650.132C382.113 649.599 382.017 649.012 382.017 648.372C382.017 647.753 382.118 647.177 382.321 646.644C382.524 646.111 382.812 645.652 383.185 645.268C383.558 644.873 384.001 644.564 384.513 644.34C385.036 644.116 385.612 644.004 386.241 644.004C386.945 644.004 387.558 644.143 388.081 644.42C388.604 644.687 389.03 645.049 389.361 645.508C389.702 645.967 389.948 646.489 390.097 647.076C390.246 647.663 390.3 648.276 390.257 648.916H384.289ZM391.869 641.076H394.141V652.5H391.869V641.076Z" fill="#5B2F98"/>
<path d="M352.5 654.5H395.069V655.3H352.5V654.5Z" fill="#5B2F98"/>
<defs>
<clipPath id="clip0_61394_177844">
<rect width="24" height="24" fill="white" transform="translate(399.5 204.5)"/>
</clipPath>
<clipPath id="clip1_61394_177844">
<rect width="24" height="24" fill="white" transform="translate(352.5 312.5)"/>
</clipPath>
</defs>
</svg>
