<svg width="600" height="312" viewBox="0 0 600 312" fill="none" xmlns="http://www.w3.org/2000/svg">
<rect width="600" height="312" fill="black" fill-opacity="0.04"/>
<path d="M91.248 83.076H92.768V87.988H98.784V83.076H100.304V94.5H98.784V89.268H92.768V94.5H91.248V83.076ZM108.315 89.572C108.294 89.252 108.219 88.948 108.091 88.66C107.974 88.372 107.808 88.1267 107.595 87.924C107.392 87.7107 107.147 87.5453 106.859 87.428C106.582 87.3 106.272 87.236 105.931 87.236C105.579 87.236 105.259 87.3 104.971 87.428C104.694 87.5453 104.454 87.7107 104.251 87.924C104.048 88.1373 103.888 88.388 103.771 88.676C103.654 88.9533 103.584 89.252 103.563 89.572H108.315ZM109.627 91.876C109.446 92.804 109.046 93.5027 108.427 93.972C107.808 94.4413 107.03 94.676 106.091 94.676C105.43 94.676 104.854 94.5693 104.363 94.356C103.883 94.1427 103.478 93.844 103.147 93.46C102.816 93.076 102.566 92.6173 102.395 92.084C102.235 91.5507 102.144 90.9693 102.123 90.34C102.123 89.7107 102.219 89.1347 102.411 88.612C102.603 88.0893 102.87 87.636 103.211 87.252C103.563 86.868 103.974 86.5693 104.443 86.356C104.923 86.1427 105.446 86.036 106.011 86.036C106.747 86.036 107.355 86.1907 107.835 86.5C108.326 86.7987 108.715 87.1827 109.003 87.652C109.302 88.1213 109.504 88.6333 109.611 89.188C109.728 89.7427 109.776 90.2707 109.755 90.772H103.563C103.552 91.1347 103.595 91.4813 103.691 91.812C103.787 92.132 103.942 92.42 104.155 92.676C104.368 92.9213 104.64 93.1187 104.971 93.268C105.302 93.4173 105.691 93.492 106.139 93.492C106.715 93.492 107.184 93.3587 107.547 93.092C107.92 92.8253 108.166 92.42 108.283 91.876H109.627ZM111.245 83.076H112.605V94.5H111.245V83.076ZM114.76 86.228H116.12V87.348H116.152C116.376 86.8893 116.728 86.5587 117.208 86.356C117.688 86.1427 118.216 86.036 118.792 86.036C119.432 86.036 119.986 86.1533 120.456 86.388C120.936 86.6227 121.33 86.9427 121.64 87.348C121.96 87.7427 122.2 88.2013 122.36 88.724C122.52 89.2467 122.6 89.8013 122.6 90.388C122.6 90.9747 122.52 91.5293 122.36 92.052C122.21 92.5747 121.976 93.0333 121.656 93.428C121.346 93.812 120.952 94.116 120.472 94.34C120.002 94.564 119.453 94.676 118.824 94.676C118.621 94.676 118.392 94.6547 118.136 94.612C117.89 94.5693 117.645 94.5 117.4 94.404C117.154 94.308 116.92 94.18 116.696 94.02C116.482 93.8493 116.301 93.6413 116.152 93.396H116.12V97.652H114.76V86.228ZM121.16 90.292C121.16 89.908 121.106 89.5347 121 89.172C120.904 88.7987 120.749 88.468 120.536 88.18C120.333 87.892 120.066 87.6627 119.736 87.492C119.416 87.3213 119.037 87.236 118.6 87.236C118.141 87.236 117.752 87.3267 117.432 87.508C117.112 87.6893 116.85 87.9293 116.648 88.228C116.445 88.516 116.296 88.8467 116.2 89.22C116.114 89.5933 116.072 89.972 116.072 90.356C116.072 90.7613 116.12 91.156 116.216 91.54C116.312 91.9133 116.461 92.244 116.664 92.532C116.877 92.82 117.149 93.0547 117.48 93.236C117.81 93.4067 118.21 93.492 118.68 93.492C119.149 93.492 119.538 93.4013 119.848 93.22C120.168 93.0387 120.424 92.7987 120.616 92.5C120.808 92.2013 120.946 91.86 121.032 91.476C121.117 91.092 121.16 90.6973 121.16 90.292ZM129.94 89.572C129.919 89.252 129.844 88.948 129.716 88.66C129.599 88.372 129.433 88.1267 129.22 87.924C129.017 87.7107 128.772 87.5453 128.484 87.428C128.207 87.3 127.897 87.236 127.556 87.236C127.204 87.236 126.884 87.3 126.596 87.428C126.319 87.5453 126.079 87.7107 125.876 87.924C125.673 88.1373 125.513 88.388 125.396 88.676C125.279 88.9533 125.209 89.252 125.188 89.572H129.94ZM131.252 91.876C131.071 92.804 130.671 93.5027 130.052 93.972C129.433 94.4413 128.655 94.676 127.716 94.676C127.055 94.676 126.479 94.5693 125.988 94.356C125.508 94.1427 125.103 93.844 124.772 93.46C124.441 93.076 124.191 92.6173 124.02 92.084C123.86 91.5507 123.769 90.9693 123.748 90.34C123.748 89.7107 123.844 89.1347 124.036 88.612C124.228 88.0893 124.495 87.636 124.836 87.252C125.188 86.868 125.599 86.5693 126.068 86.356C126.548 86.1427 127.071 86.036 127.636 86.036C128.372 86.036 128.98 86.1907 129.46 86.5C129.951 86.7987 130.34 87.1827 130.628 87.652C130.927 88.1213 131.129 88.6333 131.236 89.188C131.353 89.7427 131.401 90.2707 131.38 90.772H125.188C125.177 91.1347 125.22 91.4813 125.316 91.812C125.412 92.132 125.567 92.42 125.78 92.676C125.993 92.9213 126.265 93.1187 126.596 93.268C126.927 93.4173 127.316 93.492 127.764 93.492C128.34 93.492 128.809 93.3587 129.172 93.092C129.545 92.8253 129.791 92.42 129.908 91.876H131.252ZM132.742 86.228H134.022V87.972H134.054C134.384 87.3 134.79 86.804 135.27 86.484C135.75 86.164 136.358 86.0147 137.094 86.036V87.476C136.55 87.476 136.086 87.5507 135.702 87.7C135.318 87.8493 135.008 88.068 134.774 88.356C134.539 88.644 134.368 88.996 134.262 89.412C134.155 89.8173 134.102 90.2867 134.102 90.82V94.5H132.742V86.228ZM144.459 86.228H146.107V87.428H144.459V92.564C144.459 92.724 144.47 92.852 144.491 92.948C144.523 93.044 144.576 93.1187 144.651 93.172C144.726 93.2253 144.827 93.2627 144.955 93.284C145.094 93.2947 145.27 93.3 145.483 93.3H146.107V94.5H145.067C144.715 94.5 144.411 94.4787 144.155 94.436C143.91 94.3827 143.707 94.292 143.547 94.164C143.398 94.036 143.286 93.8547 143.211 93.62C143.136 93.3853 143.099 93.076 143.099 92.692V87.428H141.691V86.228H143.099V83.748H144.459V86.228ZM153.362 89.572C153.34 89.252 153.266 88.948 153.138 88.66C153.02 88.372 152.855 88.1267 152.642 87.924C152.439 87.7107 152.194 87.5453 151.906 87.428C151.628 87.3 151.319 87.236 150.978 87.236C150.626 87.236 150.306 87.3 150.018 87.428C149.74 87.5453 149.5 87.7107 149.298 87.924C149.095 88.1373 148.935 88.388 148.818 88.676C148.7 88.9533 148.631 89.252 148.61 89.572H153.362ZM154.674 91.876C154.492 92.804 154.092 93.5027 153.474 93.972C152.855 94.4413 152.076 94.676 151.138 94.676C150.476 94.676 149.9 94.5693 149.41 94.356C148.93 94.1427 148.524 93.844 148.194 93.46C147.863 93.076 147.612 92.6173 147.442 92.084C147.282 91.5507 147.191 90.9693 147.17 90.34C147.17 89.7107 147.266 89.1347 147.458 88.612C147.65 88.0893 147.916 87.636 148.258 87.252C148.61 86.868 149.02 86.5693 149.49 86.356C149.97 86.1427 150.492 86.036 151.058 86.036C151.794 86.036 152.402 86.1907 152.882 86.5C153.372 86.7987 153.762 87.1827 154.05 87.652C154.348 88.1213 154.551 88.6333 154.658 89.188C154.775 89.7427 154.823 90.2707 154.802 90.772H148.61C148.599 91.1347 148.642 91.4813 148.738 91.812C148.834 92.132 148.988 92.42 149.202 92.676C149.415 92.9213 149.687 93.1187 150.018 93.268C150.348 93.4173 150.738 93.492 151.186 93.492C151.762 93.492 152.231 93.3587 152.594 93.092C152.967 92.8253 153.212 92.42 153.33 91.876H154.674ZM158.436 90.148L155.556 86.228H157.299L159.284 89.124L161.348 86.228H162.98L160.132 90.036L163.332 94.5H161.588L159.284 91.076L156.98 94.5H155.332L158.436 90.148ZM166.381 86.228H168.029V87.428H166.381V92.564C166.381 92.724 166.391 92.852 166.413 92.948C166.445 93.044 166.498 93.1187 166.573 93.172C166.647 93.2253 166.749 93.2627 166.877 93.284C167.015 93.2947 167.191 93.3 167.405 93.3H168.029V94.5H166.989C166.637 94.5 166.333 94.4787 166.077 94.436C165.831 94.3827 165.629 94.292 165.469 94.164C165.319 94.036 165.207 93.8547 165.133 93.62C165.058 93.3853 165.021 93.076 165.021 92.692V87.428H163.613V86.228H165.021V83.748H166.381V86.228Z" fill="black" fill-opacity="0.68"/>
<mask id="path-2-inside-1_68467_26181" fill="white">
<path d="M250 59H516V119H250V59Z"/>
</mask>
<path d="M250 59H516V119H250V59Z" fill="black" fill-opacity="0.04"/>
<path d="M516 119V118H250V119V120H516V119Z" fill="black" fill-opacity="0.2" mask="url(#path-2-inside-1_68467_26181)"/>
<path d="M267.248 83.576H268.768V93.72H274.816V95H267.248V83.576ZM283.443 94.968C283.208 95.1067 282.883 95.176 282.467 95.176C282.115 95.176 281.832 95.08 281.619 94.888C281.416 94.6853 281.315 94.36 281.315 93.912C280.941 94.36 280.504 94.6853 280.003 94.888C279.512 95.08 278.979 95.176 278.403 95.176C278.029 95.176 277.672 95.1333 277.331 95.048C277 94.9627 276.712 94.8293 276.467 94.648C276.221 94.4667 276.024 94.232 275.875 93.944C275.736 93.6453 275.667 93.288 275.667 92.872C275.667 92.4027 275.747 92.0187 275.907 91.72C276.067 91.4213 276.275 91.1813 276.531 91C276.797 90.808 277.096 90.664 277.427 90.568C277.768 90.472 278.115 90.392 278.467 90.328C278.84 90.2533 279.192 90.2 279.523 90.168C279.864 90.1253 280.163 90.072 280.419 90.008C280.675 89.9333 280.877 89.832 281.027 89.704C281.176 89.5653 281.251 89.368 281.251 89.112C281.251 88.8133 281.192 88.5733 281.075 88.392C280.968 88.2107 280.824 88.072 280.643 87.976C280.472 87.88 280.275 87.816 280.051 87.784C279.837 87.752 279.624 87.736 279.411 87.736C278.835 87.736 278.355 87.848 277.971 88.072C277.587 88.2853 277.379 88.696 277.347 89.304H275.987C276.008 88.792 276.115 88.36 276.307 88.008C276.499 87.656 276.755 87.3733 277.075 87.16C277.395 86.936 277.757 86.776 278.163 86.68C278.579 86.584 279.021 86.536 279.491 86.536C279.864 86.536 280.232 86.5627 280.595 86.616C280.968 86.6693 281.304 86.7813 281.603 86.952C281.901 87.112 282.141 87.3413 282.323 87.64C282.504 87.9387 282.595 88.328 282.595 88.808V93.064C282.595 93.384 282.611 93.6187 282.643 93.768C282.685 93.9173 282.813 93.992 283.027 93.992C283.144 93.992 283.283 93.9653 283.443 93.912V94.968ZM281.235 90.728C281.064 90.856 280.84 90.952 280.563 91.016C280.285 91.0693 279.992 91.1173 279.683 91.16C279.384 91.192 279.08 91.2347 278.771 91.288C278.461 91.3307 278.184 91.4053 277.939 91.512C277.693 91.6187 277.491 91.7733 277.331 91.976C277.181 92.168 277.107 92.4347 277.107 92.776C277.107 93 277.149 93.192 277.235 93.352C277.331 93.5013 277.448 93.624 277.587 93.72C277.736 93.816 277.907 93.8853 278.099 93.928C278.291 93.9707 278.493 93.992 278.707 93.992C279.155 93.992 279.539 93.9333 279.859 93.816C280.179 93.688 280.44 93.5333 280.643 93.352C280.845 93.16 280.995 92.9573 281.091 92.744C281.187 92.52 281.235 92.312 281.235 92.12V90.728ZM284.956 83.576H286.316V87.848H286.348C286.572 87.3893 286.924 87.0587 287.404 86.856C287.884 86.6427 288.412 86.536 288.988 86.536C289.628 86.536 290.183 86.6533 290.652 86.888C291.132 87.1227 291.527 87.4427 291.836 87.848C292.156 88.2427 292.396 88.7013 292.556 89.224C292.716 89.7467 292.796 90.3013 292.796 90.888C292.796 91.4747 292.716 92.0293 292.556 92.552C292.407 93.0747 292.172 93.5333 291.852 93.928C291.543 94.312 291.148 94.616 290.668 94.84C290.199 95.064 289.65 95.176 289.02 95.176C288.818 95.176 288.588 95.1547 288.332 95.112C288.087 95.0693 287.842 95 287.596 94.904C287.351 94.808 287.116 94.68 286.892 94.52C286.679 94.3493 286.498 94.1413 286.348 93.896H286.316V95H284.956V83.576ZM291.356 90.792C291.356 90.408 291.303 90.0347 291.196 89.672C291.1 89.2987 290.946 88.968 290.732 88.68C290.53 88.392 290.263 88.1627 289.932 87.992C289.612 87.8213 289.234 87.736 288.796 87.736C288.338 87.736 287.948 87.8267 287.628 88.008C287.308 88.1893 287.047 88.4293 286.844 88.728C286.642 89.016 286.492 89.3467 286.396 89.72C286.311 90.0933 286.268 90.472 286.268 90.856C286.268 91.2613 286.316 91.656 286.412 92.04C286.508 92.4133 286.658 92.744 286.86 93.032C287.074 93.32 287.346 93.5547 287.676 93.736C288.007 93.9067 288.407 93.992 288.876 93.992C289.346 93.992 289.735 93.9013 290.044 93.72C290.364 93.5387 290.62 93.2987 290.812 93C291.004 92.7013 291.143 92.36 291.228 91.976C291.314 91.592 291.356 91.1973 291.356 90.792ZM300.337 90.072C300.315 89.752 300.241 89.448 300.113 89.16C299.995 88.872 299.83 88.6267 299.617 88.424C299.414 88.2107 299.169 88.0453 298.881 87.928C298.603 87.8 298.294 87.736 297.953 87.736C297.601 87.736 297.281 87.8 296.993 87.928C296.715 88.0453 296.475 88.2107 296.273 88.424C296.07 88.6373 295.91 88.888 295.793 89.176C295.675 89.4533 295.606 89.752 295.585 90.072H300.337ZM301.649 92.376C301.467 93.304 301.067 94.0027 300.449 94.472C299.83 94.9413 299.051 95.176 298.113 95.176C297.451 95.176 296.875 95.0693 296.385 94.856C295.905 94.6427 295.499 94.344 295.169 93.96C294.838 93.576 294.587 93.1173 294.417 92.584C294.257 92.0507 294.166 91.4693 294.145 90.84C294.145 90.2107 294.241 89.6347 294.433 89.112C294.625 88.5893 294.891 88.136 295.233 87.752C295.585 87.368 295.995 87.0693 296.465 86.856C296.945 86.6427 297.467 86.536 298.033 86.536C298.769 86.536 299.377 86.6907 299.857 87C300.347 87.2987 300.737 87.6827 301.025 88.152C301.323 88.6213 301.526 89.1333 301.633 89.688C301.75 90.2427 301.798 90.7707 301.777 91.272H295.585C295.574 91.6347 295.617 91.9813 295.713 92.312C295.809 92.632 295.963 92.92 296.177 93.176C296.39 93.4213 296.662 93.6187 296.993 93.768C297.323 93.9173 297.713 93.992 298.161 93.992C298.737 93.992 299.206 93.8587 299.569 93.592C299.942 93.3253 300.187 92.92 300.305 92.376H301.649ZM303.466 83.576H304.826V95H303.466V83.576Z" fill="black" fill-opacity="0.68"/>
<g clip-path="url(#clip0_68467_26181)">
<path d="M478.874 86.9766L485.999 94.25L493.124 86.9766L491.09 84.8984L485.999 90.0948L480.911 84.8984L478.874 86.9766Z" fill="black"/>
</g>
<path d="M91.248 215.076H92.768V219.988H98.784V215.076H100.304V226.5H98.784V221.268H92.768V226.5H91.248V215.076ZM108.315 221.572C108.294 221.252 108.219 220.948 108.091 220.66C107.974 220.372 107.808 220.127 107.595 219.924C107.392 219.711 107.147 219.545 106.859 219.428C106.582 219.3 106.272 219.236 105.931 219.236C105.579 219.236 105.259 219.3 104.971 219.428C104.694 219.545 104.454 219.711 104.251 219.924C104.048 220.137 103.888 220.388 103.771 220.676C103.654 220.953 103.584 221.252 103.563 221.572H108.315ZM109.627 223.876C109.446 224.804 109.046 225.503 108.427 225.972C107.808 226.441 107.03 226.676 106.091 226.676C105.43 226.676 104.854 226.569 104.363 226.356C103.883 226.143 103.478 225.844 103.147 225.46C102.816 225.076 102.566 224.617 102.395 224.084C102.235 223.551 102.144 222.969 102.123 222.34C102.123 221.711 102.219 221.135 102.411 220.612C102.603 220.089 102.87 219.636 103.211 219.252C103.563 218.868 103.974 218.569 104.443 218.356C104.923 218.143 105.446 218.036 106.011 218.036C106.747 218.036 107.355 218.191 107.835 218.5C108.326 218.799 108.715 219.183 109.003 219.652C109.302 220.121 109.504 220.633 109.611 221.188C109.728 221.743 109.776 222.271 109.755 222.772H103.563C103.552 223.135 103.595 223.481 103.691 223.812C103.787 224.132 103.942 224.42 104.155 224.676C104.368 224.921 104.64 225.119 104.971 225.268C105.302 225.417 105.691 225.492 106.139 225.492C106.715 225.492 107.184 225.359 107.547 225.092C107.92 224.825 108.166 224.42 108.283 223.876H109.627ZM111.245 215.076H112.605V226.5H111.245V215.076ZM114.76 218.228H116.12V219.348H116.152C116.376 218.889 116.728 218.559 117.208 218.356C117.688 218.143 118.216 218.036 118.792 218.036C119.432 218.036 119.986 218.153 120.456 218.388C120.936 218.623 121.33 218.943 121.64 219.348C121.96 219.743 122.2 220.201 122.36 220.724C122.52 221.247 122.6 221.801 122.6 222.388C122.6 222.975 122.52 223.529 122.36 224.052C122.21 224.575 121.976 225.033 121.656 225.428C121.346 225.812 120.952 226.116 120.472 226.34C120.002 226.564 119.453 226.676 118.824 226.676C118.621 226.676 118.392 226.655 118.136 226.612C117.89 226.569 117.645 226.5 117.4 226.404C117.154 226.308 116.92 226.18 116.696 226.02C116.482 225.849 116.301 225.641 116.152 225.396H116.12V229.652H114.76V218.228ZM121.16 222.292C121.16 221.908 121.106 221.535 121 221.172C120.904 220.799 120.749 220.468 120.536 220.18C120.333 219.892 120.066 219.663 119.736 219.492C119.416 219.321 119.037 219.236 118.6 219.236C118.141 219.236 117.752 219.327 117.432 219.508C117.112 219.689 116.85 219.929 116.648 220.228C116.445 220.516 116.296 220.847 116.2 221.22C116.114 221.593 116.072 221.972 116.072 222.356C116.072 222.761 116.12 223.156 116.216 223.54C116.312 223.913 116.461 224.244 116.664 224.532C116.877 224.82 117.149 225.055 117.48 225.236C117.81 225.407 118.21 225.492 118.68 225.492C119.149 225.492 119.538 225.401 119.848 225.22C120.168 225.039 120.424 224.799 120.616 224.5C120.808 224.201 120.946 223.86 121.032 223.476C121.117 223.092 121.16 222.697 121.16 222.292ZM129.94 221.572C129.919 221.252 129.844 220.948 129.716 220.66C129.599 220.372 129.433 220.127 129.22 219.924C129.017 219.711 128.772 219.545 128.484 219.428C128.207 219.3 127.897 219.236 127.556 219.236C127.204 219.236 126.884 219.3 126.596 219.428C126.319 219.545 126.079 219.711 125.876 219.924C125.673 220.137 125.513 220.388 125.396 220.676C125.279 220.953 125.209 221.252 125.188 221.572H129.94ZM131.252 223.876C131.071 224.804 130.671 225.503 130.052 225.972C129.433 226.441 128.655 226.676 127.716 226.676C127.055 226.676 126.479 226.569 125.988 226.356C125.508 226.143 125.103 225.844 124.772 225.46C124.441 225.076 124.191 224.617 124.02 224.084C123.86 223.551 123.769 222.969 123.748 222.34C123.748 221.711 123.844 221.135 124.036 220.612C124.228 220.089 124.495 219.636 124.836 219.252C125.188 218.868 125.599 218.569 126.068 218.356C126.548 218.143 127.071 218.036 127.636 218.036C128.372 218.036 128.98 218.191 129.46 218.5C129.951 218.799 130.34 219.183 130.628 219.652C130.927 220.121 131.129 220.633 131.236 221.188C131.353 221.743 131.401 222.271 131.38 222.772H125.188C125.177 223.135 125.22 223.481 125.316 223.812C125.412 224.132 125.567 224.42 125.78 224.676C125.993 224.921 126.265 225.119 126.596 225.268C126.927 225.417 127.316 225.492 127.764 225.492C128.34 225.492 128.809 225.359 129.172 225.092C129.545 224.825 129.791 224.42 129.908 223.876H131.252ZM132.742 218.228H134.022V219.972H134.054C134.384 219.3 134.79 218.804 135.27 218.484C135.75 218.164 136.358 218.015 137.094 218.036V219.476C136.55 219.476 136.086 219.551 135.702 219.7C135.318 219.849 135.008 220.068 134.774 220.356C134.539 220.644 134.368 220.996 134.262 221.412C134.155 221.817 134.102 222.287 134.102 222.82V226.5H132.742V218.228ZM142.651 215.076H144.011V226.5H142.651V215.076ZM147.558 216.74H146.198V215.076H147.558V216.74ZM146.198 218.228H147.558V226.5H146.198V218.228ZM149.665 218.228H150.945V219.54H150.977C151.542 218.537 152.438 218.036 153.665 218.036C154.209 218.036 154.662 218.111 155.025 218.26C155.387 218.409 155.681 218.617 155.905 218.884C156.129 219.151 156.283 219.471 156.369 219.844C156.465 220.207 156.513 220.612 156.513 221.06V226.5H155.153V220.9C155.153 220.388 155.003 219.983 154.705 219.684C154.406 219.385 153.995 219.236 153.473 219.236C153.057 219.236 152.694 219.3 152.385 219.428C152.086 219.556 151.835 219.737 151.633 219.972C151.43 220.207 151.275 220.484 151.169 220.804C151.073 221.113 151.025 221.455 151.025 221.828V226.5H149.665V218.228ZM158.635 215.076H159.995V221.844L163.771 218.228H165.595L162.315 221.236L165.835 226.5H164.107L161.275 222.18L159.995 223.364V226.5H158.635V215.076Z" fill="black" fill-opacity="0.68"/>
<mask id="path-8-inside-2_68467_26181" fill="white">
<path d="M250 169H516V229H250V169Z"/>
</mask>
<path d="M250 169H516V229H250V169Z" fill="black" fill-opacity="0.04"/>
<path d="M516 229V228H250V229V230H516V229Z" fill="black" fill-opacity="0.2" mask="url(#path-8-inside-2_68467_26181)"/>
<path d="M267.248 193.576H268.768V203.72H274.816V205H267.248V193.576ZM283.443 204.968C283.208 205.107 282.883 205.176 282.467 205.176C282.115 205.176 281.832 205.08 281.619 204.888C281.416 204.685 281.315 204.36 281.315 203.912C280.941 204.36 280.504 204.685 280.003 204.888C279.512 205.08 278.979 205.176 278.403 205.176C278.029 205.176 277.672 205.133 277.331 205.048C277 204.963 276.712 204.829 276.467 204.648C276.221 204.467 276.024 204.232 275.875 203.944C275.736 203.645 275.667 203.288 275.667 202.872C275.667 202.403 275.747 202.019 275.907 201.72C276.067 201.421 276.275 201.181 276.531 201C276.797 200.808 277.096 200.664 277.427 200.568C277.768 200.472 278.115 200.392 278.467 200.328C278.84 200.253 279.192 200.2 279.523 200.168C279.864 200.125 280.163 200.072 280.419 200.008C280.675 199.933 280.877 199.832 281.027 199.704C281.176 199.565 281.251 199.368 281.251 199.112C281.251 198.813 281.192 198.573 281.075 198.392C280.968 198.211 280.824 198.072 280.643 197.976C280.472 197.88 280.275 197.816 280.051 197.784C279.837 197.752 279.624 197.736 279.411 197.736C278.835 197.736 278.355 197.848 277.971 198.072C277.587 198.285 277.379 198.696 277.347 199.304H275.987C276.008 198.792 276.115 198.36 276.307 198.008C276.499 197.656 276.755 197.373 277.075 197.16C277.395 196.936 277.757 196.776 278.163 196.68C278.579 196.584 279.021 196.536 279.491 196.536C279.864 196.536 280.232 196.563 280.595 196.616C280.968 196.669 281.304 196.781 281.603 196.952C281.901 197.112 282.141 197.341 282.323 197.64C282.504 197.939 282.595 198.328 282.595 198.808V203.064C282.595 203.384 282.611 203.619 282.643 203.768C282.685 203.917 282.813 203.992 283.027 203.992C283.144 203.992 283.283 203.965 283.443 203.912V204.968ZM281.235 200.728C281.064 200.856 280.84 200.952 280.563 201.016C280.285 201.069 279.992 201.117 279.683 201.16C279.384 201.192 279.08 201.235 278.771 201.288C278.461 201.331 278.184 201.405 277.939 201.512C277.693 201.619 277.491 201.773 277.331 201.976C277.181 202.168 277.107 202.435 277.107 202.776C277.107 203 277.149 203.192 277.235 203.352C277.331 203.501 277.448 203.624 277.587 203.72C277.736 203.816 277.907 203.885 278.099 203.928C278.291 203.971 278.493 203.992 278.707 203.992C279.155 203.992 279.539 203.933 279.859 203.816C280.179 203.688 280.44 203.533 280.643 203.352C280.845 203.16 280.995 202.957 281.091 202.744C281.187 202.52 281.235 202.312 281.235 202.12V200.728ZM284.956 193.576H286.316V197.848H286.348C286.572 197.389 286.924 197.059 287.404 196.856C287.884 196.643 288.412 196.536 288.988 196.536C289.628 196.536 290.183 196.653 290.652 196.888C291.132 197.123 291.527 197.443 291.836 197.848C292.156 198.243 292.396 198.701 292.556 199.224C292.716 199.747 292.796 200.301 292.796 200.888C292.796 201.475 292.716 202.029 292.556 202.552C292.407 203.075 292.172 203.533 291.852 203.928C291.543 204.312 291.148 204.616 290.668 204.84C290.199 205.064 289.65 205.176 289.02 205.176C288.818 205.176 288.588 205.155 288.332 205.112C288.087 205.069 287.842 205 287.596 204.904C287.351 204.808 287.116 204.68 286.892 204.52C286.679 204.349 286.498 204.141 286.348 203.896H286.316V205H284.956V193.576ZM291.356 200.792C291.356 200.408 291.303 200.035 291.196 199.672C291.1 199.299 290.946 198.968 290.732 198.68C290.53 198.392 290.263 198.163 289.932 197.992C289.612 197.821 289.234 197.736 288.796 197.736C288.338 197.736 287.948 197.827 287.628 198.008C287.308 198.189 287.047 198.429 286.844 198.728C286.642 199.016 286.492 199.347 286.396 199.72C286.311 200.093 286.268 200.472 286.268 200.856C286.268 201.261 286.316 201.656 286.412 202.04C286.508 202.413 286.658 202.744 286.86 203.032C287.074 203.32 287.346 203.555 287.676 203.736C288.007 203.907 288.407 203.992 288.876 203.992C289.346 203.992 289.735 203.901 290.044 203.72C290.364 203.539 290.62 203.299 290.812 203C291.004 202.701 291.143 202.36 291.228 201.976C291.314 201.592 291.356 201.197 291.356 200.792ZM300.337 200.072C300.315 199.752 300.241 199.448 300.113 199.16C299.995 198.872 299.83 198.627 299.617 198.424C299.414 198.211 299.169 198.045 298.881 197.928C298.603 197.8 298.294 197.736 297.953 197.736C297.601 197.736 297.281 197.8 296.993 197.928C296.715 198.045 296.475 198.211 296.273 198.424C296.07 198.637 295.91 198.888 295.793 199.176C295.675 199.453 295.606 199.752 295.585 200.072H300.337ZM301.649 202.376C301.467 203.304 301.067 204.003 300.449 204.472C299.83 204.941 299.051 205.176 298.113 205.176C297.451 205.176 296.875 205.069 296.385 204.856C295.905 204.643 295.499 204.344 295.169 203.96C294.838 203.576 294.587 203.117 294.417 202.584C294.257 202.051 294.166 201.469 294.145 200.84C294.145 200.211 294.241 199.635 294.433 199.112C294.625 198.589 294.891 198.136 295.233 197.752C295.585 197.368 295.995 197.069 296.465 196.856C296.945 196.643 297.467 196.536 298.033 196.536C298.769 196.536 299.377 196.691 299.857 197C300.347 197.299 300.737 197.683 301.025 198.152C301.323 198.621 301.526 199.133 301.633 199.688C301.75 200.243 301.798 200.771 301.777 201.272H295.585C295.574 201.635 295.617 201.981 295.713 202.312C295.809 202.632 295.963 202.92 296.177 203.176C296.39 203.421 296.662 203.619 296.993 203.768C297.323 203.917 297.713 203.992 298.161 203.992C298.737 203.992 299.206 203.859 299.569 203.592C299.942 203.325 300.187 202.92 300.305 202.376H301.649ZM303.466 193.576H304.826V205H303.466V193.576Z" fill="black" fill-opacity="0.68"/>
<g clip-path="url(#clip1_68467_26181)">
<path d="M478.874 196.977L485.999 204.25L493.124 196.977L491.09 194.898L485.999 200.095L480.911 194.898L478.874 196.977Z" fill="black"/>
</g>
<path d="M266.966 246.004H269.164V249.84H273.21V246.004H275.408V256H273.21V251.688H269.164V256H266.966V246.004ZM282.18 251.604C282.087 251.1 281.919 250.717 281.676 250.456C281.443 250.195 281.083 250.064 280.598 250.064C280.281 250.064 280.015 250.12 279.8 250.232C279.595 250.335 279.427 250.465 279.296 250.624C279.175 250.783 279.086 250.951 279.03 251.128C278.983 251.305 278.955 251.464 278.946 251.604H282.18ZM278.946 252.864C278.974 253.508 279.137 253.975 279.436 254.264C279.735 254.553 280.164 254.698 280.724 254.698C281.125 254.698 281.471 254.6 281.76 254.404C282.049 254.199 282.227 253.984 282.292 253.76H284.042C283.762 254.628 283.333 255.249 282.754 255.622C282.175 255.995 281.475 256.182 280.654 256.182C280.085 256.182 279.571 256.093 279.114 255.916C278.657 255.729 278.269 255.468 277.952 255.132C277.635 254.796 277.387 254.395 277.21 253.928C277.042 253.461 276.958 252.948 276.958 252.388C276.958 251.847 277.047 251.343 277.224 250.876C277.401 250.409 277.653 250.008 277.98 249.672C278.307 249.327 278.694 249.056 279.142 248.86C279.599 248.664 280.103 248.566 280.654 248.566C281.27 248.566 281.807 248.687 282.264 248.93C282.721 249.163 283.095 249.481 283.384 249.882C283.683 250.283 283.897 250.741 284.028 251.254C284.159 251.767 284.205 252.304 284.168 252.864H278.946ZM285.578 246.004H287.566V256H285.578V246.004ZM292.96 254.698C293.287 254.698 293.558 254.633 293.772 254.502C293.996 254.371 294.174 254.203 294.304 253.998C294.444 253.783 294.542 253.536 294.598 253.256C294.654 252.976 294.682 252.691 294.682 252.402C294.682 252.113 294.65 251.828 294.584 251.548C294.528 251.268 294.43 251.021 294.29 250.806C294.15 250.582 293.968 250.405 293.744 250.274C293.53 250.134 293.264 250.064 292.946 250.064C292.62 250.064 292.344 250.134 292.12 250.274C291.906 250.405 291.728 250.577 291.588 250.792C291.458 251.007 291.364 251.254 291.308 251.534C291.252 251.814 291.224 252.103 291.224 252.402C291.224 252.691 291.252 252.976 291.308 253.256C291.374 253.536 291.472 253.783 291.602 253.998C291.742 254.203 291.924 254.371 292.148 254.502C292.372 254.633 292.643 254.698 292.96 254.698ZM289.306 248.762H291.196V249.686H291.224C291.467 249.294 291.775 249.009 292.148 248.832C292.522 248.655 292.932 248.566 293.38 248.566C293.95 248.566 294.44 248.673 294.85 248.888C295.261 249.103 295.602 249.387 295.872 249.742C296.143 250.097 296.344 250.512 296.474 250.988C296.605 251.455 296.67 251.945 296.67 252.458C296.67 252.943 296.605 253.41 296.474 253.858C296.344 254.306 296.143 254.703 295.872 255.048C295.611 255.393 295.28 255.669 294.878 255.874C294.486 256.079 294.024 256.182 293.492 256.182C293.044 256.182 292.629 256.093 292.246 255.916C291.873 255.729 291.565 255.459 291.322 255.104H291.294V258.534H289.306V248.762ZM302.912 251.604C302.819 251.1 302.651 250.717 302.408 250.456C302.175 250.195 301.815 250.064 301.33 250.064C301.013 250.064 300.747 250.12 300.532 250.232C300.327 250.335 300.159 250.465 300.028 250.624C299.907 250.783 299.818 250.951 299.762 251.128C299.715 251.305 299.687 251.464 299.678 251.604H302.912ZM299.678 252.864C299.706 253.508 299.869 253.975 300.168 254.264C300.467 254.553 300.896 254.698 301.456 254.698C301.857 254.698 302.203 254.6 302.492 254.404C302.781 254.199 302.959 253.984 303.024 253.76H304.774C304.494 254.628 304.065 255.249 303.486 255.622C302.907 255.995 302.207 256.182 301.386 256.182C300.817 256.182 300.303 256.093 299.846 255.916C299.389 255.729 299.001 255.468 298.684 255.132C298.367 254.796 298.119 254.395 297.942 253.928C297.774 253.461 297.69 252.948 297.69 252.388C297.69 251.847 297.779 251.343 297.956 250.876C298.133 250.409 298.385 250.008 298.712 249.672C299.039 249.327 299.426 249.056 299.874 248.86C300.331 248.664 300.835 248.566 301.386 248.566C302.002 248.566 302.539 248.687 302.996 248.93C303.453 249.163 303.827 249.481 304.116 249.882C304.415 250.283 304.629 250.741 304.76 251.254C304.891 251.767 304.937 252.304 304.9 252.864H299.678ZM306.254 248.762H308.144V250.106H308.172C308.265 249.882 308.391 249.677 308.55 249.49C308.709 249.294 308.891 249.131 309.096 249C309.301 248.86 309.521 248.753 309.754 248.678C309.987 248.603 310.23 248.566 310.482 248.566C310.613 248.566 310.757 248.589 310.916 248.636V250.484C310.823 250.465 310.711 250.451 310.58 250.442C310.449 250.423 310.323 250.414 310.202 250.414C309.838 250.414 309.53 250.475 309.278 250.596C309.026 250.717 308.821 250.885 308.662 251.1C308.513 251.305 308.405 251.548 308.34 251.828C308.275 252.108 308.242 252.411 308.242 252.738V256H306.254V248.762ZM315.998 246.004H317.986V256H315.998V246.004ZM321.77 247.642H319.782V246.004H321.77V247.642ZM319.782 248.762H321.77V256H319.782V248.762ZM323.511 248.762H325.401V249.77H325.443C325.695 249.35 326.021 249.047 326.423 248.86C326.824 248.664 327.235 248.566 327.655 248.566C328.187 248.566 328.621 248.641 328.957 248.79C329.302 248.93 329.573 249.131 329.769 249.392C329.965 249.644 330.1 249.957 330.175 250.33C330.259 250.694 330.301 251.1 330.301 251.548V256H328.313V251.912C328.313 251.315 328.219 250.871 328.033 250.582C327.846 250.283 327.515 250.134 327.039 250.134C326.497 250.134 326.105 250.297 325.863 250.624C325.62 250.941 325.499 251.469 325.499 252.206V256H323.511V248.762ZM332.167 246.004H334.155V251.366L336.661 248.762H339.013L336.283 251.422L339.321 256H336.913L334.925 252.766L334.155 253.508V256H332.167V246.004Z" fill="black"/>
<path d="M266 257.75H339.265V258.45H266V257.75Z" fill="black"/>
<defs>
<clipPath id="clip0_68467_26181">
<rect width="24" height="24" fill="white" transform="translate(474 77)"/>
</clipPath>
<clipPath id="clip1_68467_26181">
<rect width="24" height="24" fill="white" transform="translate(474 187)"/>
</clipPath>
</defs>
</svg>
