<svg width="600" height="370" viewBox="0 0 600 370" fill="none" xmlns="http://www.w3.org/2000/svg">
<rect width="600" height="370" fill="black" fill-opacity="0.04"/>
<path d="M101.568 145.5H99.984L97.376 135.9H97.344L94.704 145.5H93.12L90.192 134.076H91.744L93.984 143.58H94.016L96.576 134.076H98.224L100.752 143.58H100.784L103.104 134.076H104.624L101.568 145.5ZM107.277 135.74H105.917V134.076H107.277V135.74ZM105.917 137.228H107.277V145.5H105.917V137.228ZM111.271 137.228H112.919V138.428H111.271V143.564C111.271 143.724 111.282 143.852 111.303 143.948C111.335 144.044 111.389 144.119 111.463 144.172C111.538 144.225 111.639 144.263 111.767 144.284C111.906 144.295 112.082 144.3 112.295 144.3H112.919V145.5H111.879C111.527 145.5 111.223 145.479 110.967 145.436C110.722 145.383 110.519 145.292 110.359 145.164C110.21 145.036 110.098 144.855 110.023 144.62C109.949 144.385 109.911 144.076 109.911 143.692V138.428H108.503V137.228H109.911V134.748H111.271V137.228ZM114.43 134.076H115.79V138.444H115.822C115.929 138.188 116.078 137.975 116.27 137.804C116.462 137.623 116.676 137.479 116.91 137.372C117.156 137.255 117.406 137.169 117.662 137.116C117.929 137.063 118.185 137.036 118.43 137.036C118.974 137.036 119.428 137.111 119.79 137.26C120.153 137.409 120.446 137.617 120.67 137.884C120.894 138.151 121.049 138.471 121.134 138.844C121.23 139.207 121.278 139.612 121.278 140.06V145.5H119.918V139.9C119.918 139.388 119.769 138.983 119.47 138.684C119.172 138.385 118.761 138.236 118.238 138.236C117.822 138.236 117.46 138.3 117.15 138.428C116.852 138.556 116.601 138.737 116.398 138.972C116.196 139.207 116.041 139.484 115.934 139.804C115.838 140.113 115.79 140.455 115.79 140.828V145.5H114.43V134.076ZM127.854 134.076H129.214V145.5H127.854V134.076ZM138.649 145.468C138.414 145.607 138.089 145.676 137.673 145.676C137.321 145.676 137.038 145.58 136.825 145.388C136.622 145.185 136.521 144.86 136.521 144.412C136.148 144.86 135.71 145.185 135.209 145.388C134.718 145.58 134.185 145.676 133.609 145.676C133.236 145.676 132.878 145.633 132.537 145.548C132.206 145.463 131.918 145.329 131.673 145.148C131.428 144.967 131.23 144.732 131.081 144.444C130.942 144.145 130.873 143.788 130.873 143.372C130.873 142.903 130.953 142.519 131.113 142.22C131.273 141.921 131.481 141.681 131.737 141.5C132.004 141.308 132.302 141.164 132.633 141.068C132.974 140.972 133.321 140.892 133.673 140.828C134.046 140.753 134.398 140.7 134.729 140.668C135.07 140.625 135.369 140.572 135.625 140.508C135.881 140.433 136.084 140.332 136.233 140.204C136.382 140.065 136.457 139.868 136.457 139.612C136.457 139.313 136.398 139.073 136.281 138.892C136.174 138.711 136.03 138.572 135.849 138.476C135.678 138.38 135.481 138.316 135.257 138.284C135.044 138.252 134.83 138.236 134.617 138.236C134.041 138.236 133.561 138.348 133.177 138.572C132.793 138.785 132.585 139.196 132.553 139.804H131.193C131.214 139.292 131.321 138.86 131.513 138.508C131.705 138.156 131.961 137.873 132.281 137.66C132.601 137.436 132.964 137.276 133.369 137.18C133.785 137.084 134.228 137.036 134.697 137.036C135.07 137.036 135.438 137.063 135.801 137.116C136.174 137.169 136.51 137.281 136.809 137.452C137.108 137.612 137.348 137.841 137.529 138.14C137.71 138.439 137.801 138.828 137.801 139.308V143.564C137.801 143.884 137.817 144.119 137.849 144.268C137.892 144.417 138.02 144.492 138.233 144.492C138.35 144.492 138.489 144.465 138.649 144.412V145.468ZM136.441 141.228C136.27 141.356 136.046 141.452 135.769 141.516C135.492 141.569 135.198 141.617 134.889 141.66C134.59 141.692 134.286 141.735 133.977 141.788C133.668 141.831 133.39 141.905 133.145 142.012C132.9 142.119 132.697 142.273 132.537 142.476C132.388 142.668 132.313 142.935 132.313 143.276C132.313 143.5 132.356 143.692 132.441 143.852C132.537 144.001 132.654 144.124 132.793 144.22C132.942 144.316 133.113 144.385 133.305 144.428C133.497 144.471 133.7 144.492 133.913 144.492C134.361 144.492 134.745 144.433 135.065 144.316C135.385 144.188 135.646 144.033 135.849 143.852C136.052 143.66 136.201 143.457 136.297 143.244C136.393 143.02 136.441 142.812 136.441 142.62V141.228ZM139.963 134.076H141.323V138.348H141.355C141.579 137.889 141.931 137.559 142.411 137.356C142.891 137.143 143.419 137.036 143.995 137.036C144.635 137.036 145.189 137.153 145.659 137.388C146.139 137.623 146.533 137.943 146.843 138.348C147.163 138.743 147.403 139.201 147.563 139.724C147.723 140.247 147.803 140.801 147.803 141.388C147.803 141.975 147.723 142.529 147.563 143.052C147.413 143.575 147.179 144.033 146.859 144.428C146.549 144.812 146.155 145.116 145.675 145.34C145.205 145.564 144.656 145.676 144.027 145.676C143.824 145.676 143.595 145.655 143.339 145.612C143.093 145.569 142.848 145.5 142.603 145.404C142.357 145.308 142.123 145.18 141.899 145.02C141.685 144.849 141.504 144.641 141.355 144.396H141.323V145.5H139.963V134.076ZM146.363 141.292C146.363 140.908 146.309 140.535 146.203 140.172C146.107 139.799 145.952 139.468 145.739 139.18C145.536 138.892 145.269 138.663 144.939 138.492C144.619 138.321 144.24 138.236 143.803 138.236C143.344 138.236 142.955 138.327 142.635 138.508C142.315 138.689 142.053 138.929 141.851 139.228C141.648 139.516 141.499 139.847 141.403 140.22C141.317 140.593 141.275 140.972 141.275 141.356C141.275 141.761 141.323 142.156 141.419 142.54C141.515 142.913 141.664 143.244 141.867 143.532C142.08 143.82 142.352 144.055 142.683 144.236C143.013 144.407 143.413 144.492 143.883 144.492C144.352 144.492 144.741 144.401 145.051 144.22C145.371 144.039 145.627 143.799 145.819 143.5C146.011 143.201 146.149 142.86 146.235 142.476C146.32 142.092 146.363 141.697 146.363 141.292ZM155.143 140.572C155.122 140.252 155.047 139.948 154.919 139.66C154.802 139.372 154.636 139.127 154.423 138.924C154.22 138.711 153.975 138.545 153.687 138.428C153.41 138.3 153.1 138.236 152.759 138.236C152.407 138.236 152.087 138.3 151.799 138.428C151.522 138.545 151.282 138.711 151.079 138.924C150.876 139.137 150.716 139.388 150.599 139.676C150.482 139.953 150.412 140.252 150.391 140.572H155.143ZM156.455 142.876C156.274 143.804 155.874 144.503 155.255 144.972C154.636 145.441 153.858 145.676 152.919 145.676C152.258 145.676 151.682 145.569 151.191 145.356C150.711 145.143 150.306 144.844 149.975 144.46C149.644 144.076 149.394 143.617 149.223 143.084C149.063 142.551 148.972 141.969 148.951 141.34C148.951 140.711 149.047 140.135 149.239 139.612C149.431 139.089 149.698 138.636 150.039 138.252C150.391 137.868 150.802 137.569 151.271 137.356C151.751 137.143 152.274 137.036 152.839 137.036C153.575 137.036 154.183 137.191 154.663 137.5C155.154 137.799 155.543 138.183 155.831 138.652C156.13 139.121 156.332 139.633 156.439 140.188C156.556 140.743 156.604 141.271 156.583 141.772H150.391C150.38 142.135 150.423 142.481 150.519 142.812C150.615 143.132 150.77 143.42 150.983 143.676C151.196 143.921 151.468 144.119 151.799 144.268C152.13 144.417 152.519 144.492 152.967 144.492C153.543 144.492 154.012 144.359 154.375 144.092C154.748 143.825 154.994 143.42 155.111 142.876H156.455ZM158.073 134.076H159.433V145.5H158.073V134.076Z" fill="black" fill-opacity="0.68"/>
<mask id="path-2-inside-1_68467_26166" fill="white">
<path d="M250 110H516V170H250V110Z"/>
</mask>
<path d="M250 110H516V170H250V110Z" fill="black" fill-opacity="0.04"/>
<path d="M516 170V169H250V170V171H516V170Z" fill="black" fill-opacity="0.2" mask="url(#path-2-inside-1_68467_26166)"/>
<path d="M266.936 123.432H268.076V131.04H272.612V132H266.936V123.432ZM279.112 131.976C278.936 132.08 278.692 132.132 278.38 132.132C278.116 132.132 277.904 132.06 277.744 131.916C277.592 131.764 277.516 131.52 277.516 131.184C277.236 131.52 276.908 131.764 276.532 131.916C276.164 132.06 275.764 132.132 275.332 132.132C275.052 132.132 274.784 132.1 274.528 132.036C274.28 131.972 274.064 131.872 273.88 131.736C273.696 131.6 273.548 131.424 273.436 131.208C273.332 130.984 273.28 130.716 273.28 130.404C273.28 130.052 273.34 129.764 273.46 129.54C273.58 129.316 273.736 129.136 273.928 129C274.128 128.856 274.352 128.748 274.6 128.676C274.856 128.604 275.116 128.544 275.38 128.496C275.66 128.44 275.924 128.4 276.172 128.376C276.428 128.344 276.652 128.304 276.844 128.256C277.036 128.2 277.188 128.124 277.3 128.028C277.412 127.924 277.468 127.776 277.468 127.584C277.468 127.36 277.424 127.18 277.336 127.044C277.256 126.908 277.148 126.804 277.012 126.732C276.884 126.66 276.736 126.612 276.568 126.588C276.408 126.564 276.248 126.552 276.088 126.552C275.656 126.552 275.296 126.636 275.008 126.804C274.72 126.964 274.564 127.272 274.54 127.728H273.52C273.536 127.344 273.616 127.02 273.76 126.756C273.904 126.492 274.096 126.28 274.336 126.12C274.576 125.952 274.848 125.832 275.152 125.76C275.464 125.688 275.796 125.652 276.148 125.652C276.428 125.652 276.704 125.672 276.976 125.712C277.256 125.752 277.508 125.836 277.732 125.964C277.956 126.084 278.136 126.256 278.272 126.48C278.408 126.704 278.476 126.996 278.476 127.356V130.548C278.476 130.788 278.488 130.964 278.512 131.076C278.544 131.188 278.64 131.244 278.8 131.244C278.888 131.244 278.992 131.224 279.112 131.184V131.976ZM277.456 128.796C277.328 128.892 277.16 128.964 276.952 129.012C276.744 129.052 276.524 129.088 276.292 129.12C276.068 129.144 275.84 129.176 275.608 129.216C275.376 129.248 275.168 129.304 274.984 129.384C274.8 129.464 274.648 129.58 274.528 129.732C274.416 129.876 274.36 130.076 274.36 130.332C274.36 130.5 274.392 130.644 274.456 130.764C274.528 130.876 274.616 130.968 274.72 131.04C274.832 131.112 274.96 131.164 275.104 131.196C275.248 131.228 275.4 131.244 275.56 131.244C275.896 131.244 276.184 131.2 276.424 131.112C276.664 131.016 276.86 130.9 277.012 130.764C277.164 130.62 277.276 130.468 277.348 130.308C277.42 130.14 277.456 129.984 277.456 129.84V128.796ZM280.277 123.432H281.297V126.636H281.321C281.489 126.292 281.753 126.044 282.113 125.892C282.473 125.732 282.869 125.652 283.301 125.652C283.781 125.652 284.197 125.74 284.549 125.916C284.909 126.092 285.205 126.332 285.437 126.636C285.677 126.932 285.857 127.276 285.977 127.668C286.097 128.06 286.157 128.476 286.157 128.916C286.157 129.356 286.097 129.772 285.977 130.164C285.865 130.556 285.689 130.9 285.449 131.196C285.217 131.484 284.921 131.712 284.561 131.88C284.209 132.048 283.797 132.132 283.325 132.132C283.173 132.132 283.001 132.116 282.809 132.084C282.625 132.052 282.441 132 282.257 131.928C282.073 131.856 281.897 131.76 281.729 131.64C281.569 131.512 281.433 131.356 281.321 131.172H281.297V132H280.277V123.432ZM285.077 128.844C285.077 128.556 285.037 128.276 284.957 128.004C284.885 127.724 284.769 127.476 284.609 127.26C284.457 127.044 284.257 126.872 284.009 126.744C283.769 126.616 283.485 126.552 283.157 126.552C282.813 126.552 282.521 126.62 282.281 126.756C282.041 126.892 281.845 127.072 281.693 127.296C281.541 127.512 281.429 127.76 281.357 128.04C281.293 128.32 281.261 128.604 281.261 128.892C281.261 129.196 281.297 129.492 281.369 129.78C281.441 130.06 281.553 130.308 281.705 130.524C281.865 130.74 282.069 130.916 282.317 131.052C282.565 131.18 282.865 131.244 283.217 131.244C283.569 131.244 283.861 131.176 284.093 131.04C284.333 130.904 284.525 130.724 284.669 130.5C284.813 130.276 284.917 130.02 284.981 129.732C285.045 129.444 285.077 129.148 285.077 128.844ZM291.843 128.304C291.827 128.064 291.771 127.836 291.675 127.62C291.587 127.404 291.463 127.22 291.303 127.068C291.151 126.908 290.967 126.784 290.751 126.696C290.543 126.6 290.311 126.552 290.055 126.552C289.791 126.552 289.551 126.6 289.335 126.696C289.127 126.784 288.947 126.908 288.795 127.068C288.643 127.228 288.523 127.416 288.435 127.632C288.347 127.84 288.295 128.064 288.279 128.304H291.843ZM292.827 130.032C292.691 130.728 292.391 131.252 291.927 131.604C291.463 131.956 290.879 132.132 290.175 132.132C289.679 132.132 289.247 132.052 288.879 131.892C288.519 131.732 288.215 131.508 287.967 131.22C287.719 130.932 287.531 130.588 287.403 130.188C287.283 129.788 287.215 129.352 287.199 128.88C287.199 128.408 287.271 127.976 287.415 127.584C287.559 127.192 287.759 126.852 288.015 126.564C288.279 126.276 288.587 126.052 288.939 125.892C289.299 125.732 289.691 125.652 290.115 125.652C290.667 125.652 291.123 125.768 291.483 126C291.851 126.224 292.143 126.512 292.359 126.864C292.583 127.216 292.735 127.6 292.815 128.016C292.903 128.432 292.939 128.828 292.923 129.204H288.279C288.271 129.476 288.303 129.736 288.375 129.984C288.447 130.224 288.563 130.44 288.723 130.632C288.883 130.816 289.087 130.964 289.335 131.076C289.583 131.188 289.875 131.244 290.211 131.244C290.643 131.244 290.995 131.144 291.267 130.944C291.547 130.744 291.731 130.44 291.819 130.032H292.827ZM294.22 123.432H295.24V132H294.22V123.432Z" fill="black" fill-opacity="0.68"/>
<path d="M267.216 142.576H269.216V154H267.216V142.576ZM271.613 145.728H273.341V146.944L273.373 146.976C273.65 146.517 274.013 146.16 274.461 145.904C274.909 145.637 275.405 145.504 275.949 145.504C276.856 145.504 277.57 145.739 278.093 146.208C278.616 146.677 278.877 147.381 278.877 148.32V154H277.053V148.8C277.032 148.149 276.893 147.68 276.637 147.392C276.381 147.093 275.981 146.944 275.437 146.944C275.128 146.944 274.85 147.003 274.605 147.12C274.36 147.227 274.152 147.381 273.981 147.584C273.81 147.776 273.677 148.005 273.581 148.272C273.485 148.539 273.437 148.821 273.437 149.12V154H271.613V145.728ZM281.049 145.728H282.777V146.848H282.809C283.065 146.368 283.422 146.027 283.881 145.824C284.339 145.611 284.835 145.504 285.369 145.504C286.019 145.504 286.585 145.621 287.065 145.856C287.555 146.08 287.961 146.395 288.281 146.8C288.601 147.195 288.841 147.659 289.001 148.192C289.161 148.725 289.241 149.296 289.241 149.904C289.241 150.459 289.166 150.997 289.017 151.52C288.878 152.043 288.659 152.507 288.361 152.912C288.073 153.307 287.705 153.627 287.257 153.872C286.809 154.107 286.281 154.224 285.673 154.224C285.406 154.224 285.139 154.197 284.873 154.144C284.606 154.101 284.35 154.027 284.105 153.92C283.859 153.813 283.63 153.68 283.417 153.52C283.214 153.349 283.043 153.152 282.905 152.928H282.873V157.056H281.049V145.728ZM287.417 149.872C287.417 149.499 287.369 149.136 287.273 148.784C287.177 148.432 287.033 148.123 286.841 147.856C286.649 147.579 286.409 147.36 286.121 147.2C285.833 147.029 285.502 146.944 285.129 146.944C284.361 146.944 283.779 147.211 283.385 147.744C283.001 148.277 282.809 148.987 282.809 149.872C282.809 150.288 282.857 150.677 282.953 151.04C283.059 151.392 283.214 151.696 283.417 151.952C283.619 152.208 283.859 152.411 284.137 152.56C284.425 152.709 284.755 152.784 285.129 152.784C285.545 152.784 285.897 152.699 286.185 152.528C286.473 152.357 286.707 152.139 286.889 151.872C287.081 151.595 287.214 151.285 287.289 150.944C287.374 150.592 287.417 150.235 287.417 149.872ZM298.246 154H296.454V152.848H296.422C296.198 153.264 295.862 153.6 295.414 153.856C294.977 154.101 294.529 154.224 294.07 154.224C292.982 154.224 292.193 153.957 291.702 153.424C291.222 152.88 290.982 152.064 290.982 150.976V145.728H292.806V150.8C292.806 151.525 292.945 152.037 293.222 152.336C293.499 152.635 293.889 152.784 294.39 152.784C294.774 152.784 295.094 152.725 295.35 152.608C295.606 152.491 295.814 152.336 295.974 152.144C296.134 151.941 296.246 151.701 296.31 151.424C296.385 151.147 296.422 150.848 296.422 150.528V145.728H298.246V154ZM299.537 145.728H300.913V143.248H302.737V145.728H304.385V147.088H302.737V151.504C302.737 151.696 302.743 151.861 302.753 152C302.775 152.139 302.812 152.256 302.865 152.352C302.929 152.448 303.02 152.523 303.137 152.576C303.255 152.619 303.415 152.64 303.617 152.64C303.745 152.64 303.873 152.64 304.001 152.64C304.129 152.629 304.257 152.608 304.385 152.576V153.984C304.183 154.005 303.985 154.027 303.793 154.048C303.601 154.069 303.404 154.08 303.201 154.08C302.721 154.08 302.332 154.037 302.033 153.952C301.745 153.856 301.516 153.723 301.345 153.552C301.185 153.371 301.073 153.147 301.009 152.88C300.956 152.613 300.924 152.309 300.913 151.968V147.088H299.537V145.728Z" fill="black"/>
<g clip-path="url(#clip0_68467_26166)">
<path d="M478.874 137.977L485.999 145.25L493.124 137.977L491.09 135.898L485.999 141.095L480.911 135.898L478.874 137.977Z" fill="black"/>
</g>
<path d="M101.568 255.5H99.984L97.376 245.9H97.344L94.704 255.5H93.12L90.192 244.076H91.744L93.984 253.58H94.016L96.576 244.076H98.224L100.752 253.58H100.784L103.104 244.076H104.624L101.568 255.5ZM107.277 245.74H105.917V244.076H107.277V245.74ZM105.917 247.228H107.277V255.5H105.917V247.228ZM111.271 247.228H112.919V248.428H111.271V253.564C111.271 253.724 111.282 253.852 111.303 253.948C111.335 254.044 111.389 254.119 111.463 254.172C111.538 254.225 111.639 254.263 111.767 254.284C111.906 254.295 112.082 254.3 112.295 254.3H112.919V255.5H111.879C111.527 255.5 111.223 255.479 110.967 255.436C110.722 255.383 110.519 255.292 110.359 255.164C110.21 255.036 110.098 254.855 110.023 254.62C109.949 254.385 109.911 254.076 109.911 253.692V248.428H108.503V247.228H109.911V244.748H111.271V247.228ZM114.43 244.076H115.79V248.444H115.822C115.929 248.188 116.078 247.975 116.27 247.804C116.462 247.623 116.676 247.479 116.91 247.372C117.156 247.255 117.406 247.169 117.662 247.116C117.929 247.063 118.185 247.036 118.43 247.036C118.974 247.036 119.428 247.111 119.79 247.26C120.153 247.409 120.446 247.617 120.67 247.884C120.894 248.151 121.049 248.471 121.134 248.844C121.23 249.207 121.278 249.612 121.278 250.06V255.5H119.918V249.9C119.918 249.388 119.769 248.983 119.47 248.684C119.172 248.385 118.761 248.236 118.238 248.236C117.822 248.236 117.46 248.3 117.15 248.428C116.852 248.556 116.601 248.737 116.398 248.972C116.196 249.207 116.041 249.484 115.934 249.804C115.838 250.113 115.79 250.455 115.79 250.828V255.5H114.43V244.076ZM124.313 251.372C124.313 251.873 124.377 252.321 124.505 252.716C124.644 253.1 124.83 253.425 125.065 253.692C125.3 253.948 125.572 254.145 125.881 254.284C126.201 254.423 126.537 254.492 126.889 254.492C127.241 254.492 127.572 254.423 127.881 254.284C128.201 254.145 128.478 253.948 128.713 253.692C128.948 253.425 129.129 253.1 129.257 252.716C129.396 252.321 129.465 251.873 129.465 251.372C129.465 250.871 129.396 250.428 129.257 250.044C129.129 249.649 128.948 249.319 128.713 249.052C128.478 248.785 128.201 248.583 127.881 248.444C127.572 248.305 127.241 248.236 126.889 248.236C126.537 248.236 126.201 248.305 125.881 248.444C125.572 248.583 125.3 248.785 125.065 249.052C124.83 249.319 124.644 249.649 124.505 250.044C124.377 250.428 124.313 250.871 124.313 251.372ZM122.873 251.372C122.873 250.764 122.958 250.199 123.129 249.676C123.3 249.143 123.556 248.684 123.897 248.3C124.238 247.905 124.66 247.596 125.161 247.372C125.662 247.148 126.238 247.036 126.889 247.036C127.55 247.036 128.126 247.148 128.617 247.372C129.118 247.596 129.54 247.905 129.881 248.3C130.222 248.684 130.478 249.143 130.649 249.676C130.82 250.199 130.905 250.764 130.905 251.372C130.905 251.98 130.82 252.545 130.649 253.068C130.478 253.591 130.222 254.049 129.881 254.444C129.54 254.828 129.118 255.132 128.617 255.356C128.126 255.569 127.55 255.676 126.889 255.676C126.238 255.676 125.662 255.569 125.161 255.356C124.66 255.132 124.238 254.828 123.897 254.444C123.556 254.049 123.3 253.591 123.129 253.068C122.958 252.545 122.873 251.98 122.873 251.372ZM139.356 255.5H138.076V254.188H138.044C137.756 254.7 137.388 255.079 136.94 255.324C136.492 255.559 135.964 255.676 135.356 255.676C134.812 255.676 134.359 255.607 133.996 255.468C133.634 255.319 133.34 255.111 133.116 254.844C132.892 254.577 132.732 254.263 132.636 253.9C132.551 253.527 132.508 253.116 132.508 252.668V247.228H133.868V252.828C133.868 253.34 134.018 253.745 134.316 254.044C134.615 254.343 135.026 254.492 135.548 254.492C135.964 254.492 136.322 254.428 136.62 254.3C136.93 254.172 137.186 253.991 137.388 253.756C137.591 253.521 137.74 253.249 137.836 252.94C137.943 252.62 137.996 252.273 137.996 251.9V247.228H139.356V255.5ZM143.287 247.228H144.935V248.428H143.287V253.564C143.287 253.724 143.298 253.852 143.319 253.948C143.351 254.044 143.404 254.119 143.479 254.172C143.554 254.225 143.655 254.263 143.783 254.284C143.922 254.295 144.098 254.3 144.311 254.3H144.935V255.5H143.895C143.543 255.5 143.239 255.479 142.983 255.436C142.738 255.383 142.535 255.292 142.375 255.164C142.226 255.036 142.114 254.855 142.039 254.62C141.964 254.385 141.927 254.076 141.927 253.692V248.428H140.519V247.228H141.927V244.748H143.287V247.228ZM150.979 244.076H152.339V255.5H150.979V244.076ZM161.774 255.468C161.539 255.607 161.214 255.676 160.798 255.676C160.446 255.676 160.163 255.58 159.95 255.388C159.747 255.185 159.646 254.86 159.646 254.412C159.273 254.86 158.835 255.185 158.334 255.388C157.843 255.58 157.31 255.676 156.734 255.676C156.361 255.676 156.003 255.633 155.662 255.548C155.331 255.463 155.043 255.329 154.798 255.148C154.553 254.967 154.355 254.732 154.206 254.444C154.067 254.145 153.998 253.788 153.998 253.372C153.998 252.903 154.078 252.519 154.238 252.22C154.398 251.921 154.606 251.681 154.862 251.5C155.129 251.308 155.427 251.164 155.758 251.068C156.099 250.972 156.446 250.892 156.798 250.828C157.171 250.753 157.523 250.7 157.854 250.668C158.195 250.625 158.494 250.572 158.75 250.508C159.006 250.433 159.209 250.332 159.358 250.204C159.507 250.065 159.582 249.868 159.582 249.612C159.582 249.313 159.523 249.073 159.406 248.892C159.299 248.711 159.155 248.572 158.974 248.476C158.803 248.38 158.606 248.316 158.382 248.284C158.169 248.252 157.955 248.236 157.742 248.236C157.166 248.236 156.686 248.348 156.302 248.572C155.918 248.785 155.71 249.196 155.678 249.804H154.318C154.339 249.292 154.446 248.86 154.638 248.508C154.83 248.156 155.086 247.873 155.406 247.66C155.726 247.436 156.089 247.276 156.494 247.18C156.91 247.084 157.353 247.036 157.822 247.036C158.195 247.036 158.563 247.063 158.926 247.116C159.299 247.169 159.635 247.281 159.934 247.452C160.233 247.612 160.473 247.841 160.654 248.14C160.835 248.439 160.926 248.828 160.926 249.308V253.564C160.926 253.884 160.942 254.119 160.974 254.268C161.017 254.417 161.145 254.492 161.358 254.492C161.475 254.492 161.614 254.465 161.774 254.412V255.468ZM159.566 251.228C159.395 251.356 159.171 251.452 158.894 251.516C158.617 251.569 158.323 251.617 158.014 251.66C157.715 251.692 157.411 251.735 157.102 251.788C156.793 251.831 156.515 251.905 156.27 252.012C156.025 252.119 155.822 252.273 155.662 252.476C155.513 252.668 155.438 252.935 155.438 253.276C155.438 253.5 155.481 253.692 155.566 253.852C155.662 254.001 155.779 254.124 155.918 254.22C156.067 254.316 156.238 254.385 156.43 254.428C156.622 254.471 156.825 254.492 157.038 254.492C157.486 254.492 157.87 254.433 158.19 254.316C158.51 254.188 158.771 254.033 158.974 253.852C159.177 253.66 159.326 253.457 159.422 253.244C159.518 253.02 159.566 252.812 159.566 252.62V251.228ZM163.088 244.076H164.448V248.348H164.48C164.704 247.889 165.056 247.559 165.536 247.356C166.016 247.143 166.544 247.036 167.12 247.036C167.76 247.036 168.314 247.153 168.784 247.388C169.264 247.623 169.658 247.943 169.968 248.348C170.288 248.743 170.528 249.201 170.688 249.724C170.848 250.247 170.928 250.801 170.928 251.388C170.928 251.975 170.848 252.529 170.688 253.052C170.538 253.575 170.304 254.033 169.984 254.428C169.674 254.812 169.28 255.116 168.8 255.34C168.33 255.564 167.781 255.676 167.152 255.676C166.949 255.676 166.72 255.655 166.464 255.612C166.218 255.569 165.973 255.5 165.728 255.404C165.482 255.308 165.248 255.18 165.024 255.02C164.81 254.849 164.629 254.641 164.48 254.396H164.448V255.5H163.088V244.076ZM169.488 251.292C169.488 250.908 169.434 250.535 169.328 250.172C169.232 249.799 169.077 249.468 168.864 249.18C168.661 248.892 168.394 248.663 168.064 248.492C167.744 248.321 167.365 248.236 166.928 248.236C166.469 248.236 166.08 248.327 165.76 248.508C165.44 248.689 165.178 248.929 164.976 249.228C164.773 249.516 164.624 249.847 164.528 250.22C164.442 250.593 164.4 250.972 164.4 251.356C164.4 251.761 164.448 252.156 164.544 252.54C164.64 252.913 164.789 253.244 164.992 253.532C165.205 253.82 165.477 254.055 165.808 254.236C166.138 254.407 166.538 254.492 167.008 254.492C167.477 254.492 167.866 254.401 168.176 254.22C168.496 254.039 168.752 253.799 168.944 253.5C169.136 253.201 169.274 252.86 169.36 252.476C169.445 252.092 169.488 251.697 169.488 251.292ZM178.268 250.572C178.247 250.252 178.172 249.948 178.044 249.66C177.927 249.372 177.761 249.127 177.548 248.924C177.345 248.711 177.1 248.545 176.812 248.428C176.535 248.3 176.225 248.236 175.884 248.236C175.532 248.236 175.212 248.3 174.924 248.428C174.647 248.545 174.407 248.711 174.204 248.924C174.001 249.137 173.841 249.388 173.724 249.676C173.607 249.953 173.537 250.252 173.516 250.572H178.268ZM179.58 252.876C179.399 253.804 178.999 254.503 178.38 254.972C177.761 255.441 176.983 255.676 176.044 255.676C175.383 255.676 174.807 255.569 174.316 255.356C173.836 255.143 173.431 254.844 173.1 254.46C172.769 254.076 172.519 253.617 172.348 253.084C172.188 252.551 172.097 251.969 172.076 251.34C172.076 250.711 172.172 250.135 172.364 249.612C172.556 249.089 172.823 248.636 173.164 248.252C173.516 247.868 173.927 247.569 174.396 247.356C174.876 247.143 175.399 247.036 175.964 247.036C176.7 247.036 177.308 247.191 177.788 247.5C178.279 247.799 178.668 248.183 178.956 248.652C179.255 249.121 179.457 249.633 179.564 250.188C179.681 250.743 179.729 251.271 179.708 251.772H173.516C173.505 252.135 173.548 252.481 173.644 252.812C173.74 253.132 173.895 253.42 174.108 253.676C174.321 253.921 174.593 254.119 174.924 254.268C175.255 254.417 175.644 254.492 176.092 254.492C176.668 254.492 177.137 254.359 177.5 254.092C177.873 253.825 178.119 253.42 178.236 252.876H179.58ZM181.198 244.076H182.558V255.5H181.198V244.076Z" fill="black" fill-opacity="0.68"/>
<mask id="path-9-inside-2_68467_26166" fill="white">
<path d="M250 220H516V280H250V220Z"/>
</mask>
<path d="M250 220H516V280H250V220Z" fill="black" fill-opacity="0.04"/>
<path d="M516 280V279H250V280V281H516V280Z" fill="black" fill-opacity="0.2" mask="url(#path-9-inside-2_68467_26166)"/>
<g clip-path="url(#clip1_68467_26166)">
<path d="M266 240H292.8V260H266" fill="#BD3D44"/>
<path d="M266 242.304H292.8H266ZM266 245.375H292.8H266ZM266 248.458H292.8H266ZM266 251.542H292.8H266ZM266 254.625H292.8H266ZM266 257.708H292.8H266Z" fill="black"/>
<path d="M292.8 256.938V258.479H266V256.938H292.8ZM292.8 253.854V255.396H266V253.854H292.8ZM292.8 250.771V252.313H266V250.771H292.8ZM292.8 247.688V249.229H266V247.688H292.8ZM292.8 244.604V246.146H266V244.604H292.8ZM292.8 241.533V243.075H266V241.533H292.8Z" fill="white"/>
<path d="M266 240H281.276V250.771L266 250.771" fill="#192F5D"/>
<path d="M267.256 240.458L267.117 240.875H266.67L267.028 241.139L266.879 241.583L267.256 241.306L267.633 241.583L267.484 241.139L267.843 240.875H267.396L267.256 240.458Z" fill="white"/>
<path d="M269.811 240.458L269.671 240.875H269.224L269.583 241.139L269.434 241.583L269.811 241.306L270.188 241.583L270.038 241.139L270.397 240.875H269.95L269.811 240.458Z" fill="white"/>
<path d="M272.365 240.458L272.226 240.875H271.779L272.137 241.139L271.988 241.583L272.365 241.306L272.742 241.583L272.593 241.139L272.951 240.875H272.504L272.365 240.458Z" fill="white"/>
<path d="M274.919 240.458L274.78 240.875H274.333L274.692 241.139L274.543 241.583L274.919 241.306L275.296 241.583L275.147 241.139L275.506 240.875H275.059L274.919 240.458Z" fill="white"/>
<path d="M277.474 240.458L277.334 240.875H276.887L277.246 241.139L277.097 241.583L277.474 241.306L277.851 241.583L277.702 241.139L278.06 240.875H277.613L277.474 240.458Z" fill="white"/>
<path d="M279.758 241.139L279.609 241.583L279.986 241.306L280.363 241.583L280.214 241.139L280.573 240.875H280.126L279.986 240.458L279.847 240.875H279.4L279.758 241.139Z" fill="white"/>
<path d="M268.554 241.542L268.415 241.958H267.968L268.327 242.222L268.178 242.667L268.554 242.39L268.931 242.667L268.782 242.222L269.141 241.958H268.694L268.554 241.542Z" fill="white"/>
<path d="M271.109 241.542L270.969 241.958H270.523L270.881 242.222L270.732 242.667L271.109 242.39L271.486 242.667L271.337 242.222L271.695 241.958H271.248L271.109 241.542Z" fill="white"/>
<path d="M273.663 241.542L273.524 241.958H273.077L273.435 242.222L273.286 242.667L273.663 242.39L274.04 242.667L273.891 242.222L274.249 241.958H273.803L273.663 241.542Z" fill="white"/>
<path d="M276.176 241.542L276.036 241.958H275.589L275.948 242.222L275.799 242.667L276.176 242.39L276.553 242.667L276.403 242.222L276.762 241.958H276.315L276.176 241.542Z" fill="white"/>
<path d="M278.73 241.542L278.591 241.958H278.144L278.502 242.222L278.353 242.667L278.73 242.39L279.107 242.667L278.958 242.222L279.316 241.958H278.869L278.73 241.542Z" fill="white"/>
<path d="M267.256 242.625L267.117 243.042H266.67L267.028 243.305L266.879 243.75L267.256 243.473L267.633 243.75L267.484 243.305L267.843 243.042H267.396L267.256 242.625Z" fill="white"/>
<path d="M269.811 242.625L269.671 243.042H269.224L269.583 243.305L269.434 243.75L269.811 243.473L270.188 243.75L270.038 243.305L270.397 243.042H269.95L269.811 242.625Z" fill="white"/>
<path d="M272.365 242.625L272.226 243.042H271.779L272.137 243.305L271.988 243.75L272.365 243.473L272.742 243.75L272.593 243.305L272.951 243.042H272.504L272.365 242.625Z" fill="white"/>
<path d="M274.919 242.625L274.78 243.042H274.333L274.692 243.305L274.543 243.75L274.919 243.473L275.296 243.75L275.147 243.305L275.506 243.042H275.059L274.919 242.625Z" fill="white"/>
<path d="M277.474 242.625L277.334 243.042H276.887L277.246 243.305L277.097 243.75L277.474 243.473L277.851 243.75L277.702 243.305L278.06 243.042H277.613L277.474 242.625Z" fill="white"/>
<path d="M279.986 242.625L279.847 243.042H279.4L279.758 243.305L279.609 243.75L279.986 243.473L280.363 243.75L280.214 243.305L280.573 243.042H280.126L279.986 242.625Z" fill="white"/>
<path d="M268.554 243.708L268.415 244.125H267.968L268.327 244.389L268.178 244.833L268.554 244.556L268.931 244.833L268.782 244.389L269.141 244.125H268.694L268.554 243.708Z" fill="white"/>
<path d="M271.109 243.708L270.969 244.125H270.523L270.881 244.389L270.732 244.833L271.109 244.556L271.486 244.833L271.337 244.389L271.695 244.125H271.248L271.109 243.708Z" fill="white"/>
<path d="M273.663 243.708L273.524 244.125H273.077L273.435 244.389L273.286 244.833L273.663 244.556L274.04 244.833L273.891 244.389L274.249 244.125H273.803L273.663 243.708Z" fill="white"/>
<path d="M276.176 243.708L276.036 244.125H275.589L275.948 244.389L275.799 244.833L276.176 244.556L276.553 244.833L276.403 244.389L276.762 244.125H276.315L276.176 243.708Z" fill="white"/>
<path d="M278.73 243.708L278.591 244.125H278.144L278.502 244.389L278.353 244.833L278.73 244.556L279.107 244.833L278.958 244.389L279.316 244.125H278.869L278.73 243.708Z" fill="white"/>
<path d="M267.256 244.792L267.117 245.208H266.67L267.028 245.472L266.879 245.917L267.256 245.64L267.633 245.917L267.484 245.472L267.843 245.208H267.396L267.256 244.792Z" fill="white"/>
<path d="M269.811 244.792L269.671 245.208H269.224L269.583 245.472L269.434 245.917L269.811 245.64L270.188 245.917L270.038 245.472L270.397 245.208H269.95L269.811 244.792Z" fill="white"/>
<path d="M272.365 244.792L272.226 245.208H271.779L272.137 245.472L271.988 245.917L272.365 245.64L272.742 245.917L272.593 245.472L272.951 245.208H272.504L272.365 244.792Z" fill="white"/>
<path d="M274.919 244.792L274.78 245.208H274.333L274.692 245.472L274.543 245.917L274.919 245.64L275.296 245.917L275.147 245.472L275.506 245.208H275.059L274.919 244.792Z" fill="white"/>
<path d="M277.474 244.792L277.334 245.208H276.887L277.246 245.472L277.097 245.917L277.474 245.64L277.851 245.917L277.702 245.472L278.06 245.208H277.613L277.474 244.792Z" fill="white"/>
<path d="M279.986 244.792L279.847 245.208H279.4L279.758 245.472L279.609 245.917L279.986 245.64L280.363 245.917L280.214 245.472L280.573 245.208H280.126L279.986 244.792Z" fill="white"/>
<path d="M268.554 245.875L268.415 246.292H267.968L268.327 246.555L268.178 247L268.554 246.723L268.931 247L268.782 246.555L269.141 246.292H268.694L268.554 245.875Z" fill="white"/>
<path d="M271.109 245.875L270.969 246.292H270.523L270.881 246.555L270.732 247L271.109 246.723L271.486 247L271.337 246.555L271.695 246.292H271.248L271.109 245.875Z" fill="white"/>
<path d="M273.663 245.875L273.524 246.292H273.077L273.435 246.555L273.286 247L273.663 246.723L274.04 247L273.891 246.555L274.249 246.292H273.803L273.663 245.875Z" fill="white"/>
<path d="M276.176 245.875L276.036 246.292H275.589L275.948 246.555L275.799 247L276.176 246.723L276.553 247L276.403 246.555L276.762 246.292H276.315L276.176 245.875Z" fill="white"/>
<path d="M278.73 245.875L278.591 246.292H278.144L278.502 246.555L278.353 247L278.73 246.723L279.107 247L278.958 246.555L279.316 246.292H278.869L278.73 245.875Z" fill="white"/>
<path d="M267.256 246.917L267.117 247.333H266.67L267.028 247.597L266.879 248.042L267.256 247.765L267.633 248.042L267.484 247.597L267.843 247.333H267.396L267.256 246.917Z" fill="white"/>
<path d="M269.811 246.917L269.671 247.333H269.224L269.583 247.597L269.434 248.042L269.811 247.765L270.188 248.042L270.038 247.597L270.397 247.333H269.95L269.811 246.917Z" fill="white"/>
<path d="M272.365 246.917L272.226 247.333H271.779L272.137 247.597L271.988 248.042L272.365 247.765L272.742 248.042L272.593 247.597L272.951 247.333H272.504L272.365 246.917Z" fill="white"/>
<path d="M274.919 246.917L274.78 247.333H274.333L274.692 247.597L274.543 248.042L274.919 247.765L275.296 248.042L275.147 247.597L275.506 247.333H275.059L274.919 246.917Z" fill="white"/>
<path d="M277.474 246.917L277.334 247.333H276.887L277.246 247.597L277.097 248.042L277.474 247.765L277.851 248.042L277.702 247.597L278.06 247.333H277.613L277.474 246.917Z" fill="white"/>
<path d="M279.986 246.917L279.847 247.333H279.4L279.758 247.597L279.609 248.042L279.986 247.765L280.363 248.042L280.214 247.597L280.573 247.333H280.126L279.986 246.917Z" fill="white"/>
<path d="M268.694 248.417L268.554 248L268.415 248.417H267.968L268.327 248.68L268.178 249.125L268.554 248.848L268.931 249.125L268.782 248.68L269.141 248.417H268.694Z" fill="white"/>
<path d="M271.248 248.417L271.109 248L270.969 248.417H270.523L270.881 248.68L270.732 249.125L271.109 248.848L271.486 249.125L271.337 248.68L271.695 248.417H271.248Z" fill="white"/>
<path d="M273.803 248.417L273.663 248L273.524 248.417H273.077L273.435 248.68L273.286 249.125L273.663 248.848L274.04 249.125L273.891 248.68L274.249 248.417H273.803Z" fill="white"/>
<path d="M276.315 248.417L276.176 248L276.036 248.417H275.589L275.948 248.68L275.799 249.125L276.176 248.848L276.553 249.125L276.403 248.68L276.762 248.417H276.315Z" fill="white"/>
<path d="M278.869 248.417L278.73 248L278.591 248.417H278.144L278.502 248.68L278.353 249.125L278.73 248.848L279.107 249.125L278.958 248.68L279.316 248.417H278.869Z" fill="white"/>
<path d="M267.396 249.5L267.256 249.083L267.117 249.5H266.67L267.028 249.764L266.879 250.208L267.256 249.931L267.633 250.208L267.484 249.764L267.843 249.5H267.396Z" fill="white"/>
<path d="M269.95 249.5L269.811 249.083L269.671 249.5H269.224L269.583 249.764L269.434 250.208L269.811 249.931L270.188 250.208L270.038 249.764L270.397 249.5H269.95Z" fill="white"/>
<path d="M272.504 249.5L272.365 249.083L272.226 249.5H271.779L272.137 249.764L271.988 250.208L272.365 249.931L272.742 250.208L272.593 249.764L272.951 249.5H272.504Z" fill="white"/>
<path d="M275.059 249.5L274.919 249.083L274.78 249.5H274.333L274.692 249.764L274.543 250.208L274.919 249.931L275.296 250.208L275.147 249.764L275.506 249.5H275.059Z" fill="white"/>
<path d="M277.613 249.5L277.474 249.083L277.334 249.5H276.887L277.246 249.764L277.097 250.208L277.474 249.931L277.851 250.208L277.702 249.764L278.06 249.5H277.613Z" fill="white"/>
<path d="M280.126 249.5L279.986 249.083L279.847 249.5H279.4L279.758 249.764L279.609 250.208L279.986 249.931L280.363 250.208L280.214 249.764L280.573 249.5H280.126Z" fill="white"/>
</g>
<path d="M306.016 244.576H308.016V256H306.016V244.576ZM310.413 247.728H312.141V248.944L312.173 248.976C312.451 248.517 312.813 248.16 313.261 247.904C313.709 247.637 314.205 247.504 314.749 247.504C315.656 247.504 316.371 247.739 316.893 248.208C317.416 248.677 317.677 249.381 317.677 250.32V256H315.853V250.8C315.832 250.149 315.693 249.68 315.437 249.392C315.181 249.093 314.781 248.944 314.237 248.944C313.928 248.944 313.651 249.003 313.405 249.12C313.16 249.227 312.952 249.381 312.781 249.584C312.611 249.776 312.477 250.005 312.381 250.272C312.285 250.539 312.237 250.821 312.237 251.12V256H310.413V247.728ZM319.849 247.728H321.577V248.848H321.609C321.865 248.368 322.222 248.027 322.681 247.824C323.139 247.611 323.635 247.504 324.169 247.504C324.819 247.504 325.385 247.621 325.865 247.856C326.355 248.08 326.761 248.395 327.081 248.8C327.401 249.195 327.641 249.659 327.801 250.192C327.961 250.725 328.041 251.296 328.041 251.904C328.041 252.459 327.966 252.997 327.817 253.52C327.678 254.043 327.459 254.507 327.161 254.912C326.873 255.307 326.505 255.627 326.057 255.872C325.609 256.107 325.081 256.224 324.473 256.224C324.206 256.224 323.939 256.197 323.673 256.144C323.406 256.101 323.15 256.027 322.905 255.92C322.659 255.813 322.43 255.68 322.217 255.52C322.014 255.349 321.843 255.152 321.705 254.928H321.673V259.056H319.849V247.728ZM326.217 251.872C326.217 251.499 326.169 251.136 326.073 250.784C325.977 250.432 325.833 250.123 325.641 249.856C325.449 249.579 325.209 249.36 324.921 249.2C324.633 249.029 324.302 248.944 323.929 248.944C323.161 248.944 322.579 249.211 322.185 249.744C321.801 250.277 321.609 250.987 321.609 251.872C321.609 252.288 321.657 252.677 321.753 253.04C321.859 253.392 322.014 253.696 322.217 253.952C322.419 254.208 322.659 254.411 322.937 254.56C323.225 254.709 323.555 254.784 323.929 254.784C324.345 254.784 324.697 254.699 324.985 254.528C325.273 254.357 325.507 254.139 325.689 253.872C325.881 253.595 326.014 253.285 326.089 252.944C326.174 252.592 326.217 252.235 326.217 251.872ZM337.046 256H335.254V254.848H335.222C334.998 255.264 334.662 255.6 334.214 255.856C333.777 256.101 333.329 256.224 332.87 256.224C331.782 256.224 330.993 255.957 330.502 255.424C330.022 254.88 329.782 254.064 329.782 252.976V247.728H331.606V252.8C331.606 253.525 331.745 254.037 332.022 254.336C332.299 254.635 332.689 254.784 333.19 254.784C333.574 254.784 333.894 254.725 334.15 254.608C334.406 254.491 334.614 254.336 334.774 254.144C334.934 253.941 335.046 253.701 335.11 253.424C335.185 253.147 335.222 252.848 335.222 252.528V247.728H337.046V256ZM338.337 247.728H339.713V245.248H341.537V247.728H343.185V249.088H341.537V253.504C341.537 253.696 341.543 253.861 341.553 254C341.575 254.139 341.612 254.256 341.665 254.352C341.729 254.448 341.82 254.523 341.937 254.576C342.055 254.619 342.215 254.64 342.417 254.64C342.545 254.64 342.673 254.64 342.801 254.64C342.929 254.629 343.057 254.608 343.185 254.576V255.984C342.983 256.005 342.785 256.027 342.593 256.048C342.401 256.069 342.204 256.08 342.001 256.08C341.521 256.08 341.132 256.037 340.833 255.952C340.545 255.856 340.316 255.723 340.145 255.552C339.985 255.371 339.873 255.147 339.809 254.88C339.756 254.613 339.724 254.309 339.713 253.968V249.088H338.337V247.728Z" fill="black"/>
<g clip-path="url(#clip2_68467_26166)">
<path d="M478.874 247.977L485.999 255.25L493.124 247.977L491.09 245.898L485.999 251.095L480.911 245.898L478.874 247.977Z" fill="black"/>
</g>
<defs>
<clipPath id="clip0_68467_26166">
<rect width="24" height="24" fill="white" transform="translate(474 128)"/>
</clipPath>
<clipPath id="clip1_68467_26166">
<rect width="26.8" height="20" fill="white" transform="translate(266 240)"/>
</clipPath>
<clipPath id="clip2_68467_26166">
<rect width="24" height="24" fill="white" transform="translate(474 238)"/>
</clipPath>
</defs>
</svg>
