<svg width="600" height="688" viewBox="0 0 600 688" fill="none" xmlns="http://www.w3.org/2000/svg">
<rect width="600" height="688" fill="black" fill-opacity="0.04"/>
<path d="M123.216 197.28H127.088L125.184 191.952H125.152L123.216 197.28ZM124.352 190.576H126.032L130.496 202H128.816L127.568 198.56H122.736L121.456 202H119.904L124.352 190.576ZM131.679 190.576H133.039V202H131.679V190.576ZM135.426 190.576H136.786V202H135.426V190.576ZM148.562 202V193.728H149.922V202H148.562ZM148.562 192.24V190.576H149.922V192.24H148.562ZM144.306 194.928H142.914V193.728H144.306V192.496C144.306 191.824 144.498 191.317 144.882 190.976C145.277 190.624 145.847 190.448 146.594 190.448C146.722 190.448 146.866 190.459 147.026 190.48C147.197 190.501 147.346 190.533 147.474 190.576V191.76C147.357 191.717 147.229 191.691 147.09 191.68C146.951 191.659 146.823 191.648 146.706 191.648C146.375 191.648 146.119 191.712 145.938 191.84C145.757 191.968 145.666 192.213 145.666 192.576V193.728H147.266V194.928H145.666V202H144.306V194.928ZM157.971 197.072C157.95 196.752 157.875 196.448 157.747 196.16C157.63 195.872 157.464 195.627 157.251 195.424C157.048 195.211 156.803 195.045 156.515 194.928C156.238 194.8 155.928 194.736 155.587 194.736C155.235 194.736 154.915 194.8 154.627 194.928C154.35 195.045 154.11 195.211 153.907 195.424C153.704 195.637 153.544 195.888 153.427 196.176C153.31 196.453 153.24 196.752 153.219 197.072H157.971ZM159.283 199.376C159.102 200.304 158.702 201.003 158.083 201.472C157.464 201.941 156.686 202.176 155.747 202.176C155.086 202.176 154.51 202.069 154.019 201.856C153.539 201.643 153.134 201.344 152.803 200.96C152.472 200.576 152.222 200.117 152.051 199.584C151.891 199.051 151.8 198.469 151.779 197.84C151.779 197.211 151.875 196.635 152.067 196.112C152.259 195.589 152.526 195.136 152.867 194.752C153.219 194.368 153.63 194.069 154.099 193.856C154.579 193.643 155.102 193.536 155.667 193.536C156.403 193.536 157.011 193.691 157.491 194C157.982 194.299 158.371 194.683 158.659 195.152C158.958 195.621 159.16 196.133 159.267 196.688C159.384 197.243 159.432 197.771 159.411 198.272H153.219C153.208 198.635 153.251 198.981 153.347 199.312C153.443 199.632 153.598 199.92 153.811 200.176C154.024 200.421 154.296 200.619 154.627 200.768C154.958 200.917 155.347 200.992 155.795 200.992C156.371 200.992 156.84 200.859 157.203 200.592C157.576 200.325 157.822 199.92 157.939 199.376H159.283ZM161.101 190.576H162.461V202H161.101V190.576ZM165.76 197.936C165.76 198.32 165.808 198.699 165.904 199.072C166.01 199.435 166.165 199.76 166.368 200.048C166.581 200.336 166.848 200.565 167.168 200.736C167.498 200.907 167.882 200.992 168.32 200.992C168.778 200.992 169.168 200.901 169.488 200.72C169.808 200.539 170.069 200.304 170.272 200.016C170.474 199.717 170.618 199.381 170.704 199.008C170.8 198.635 170.848 198.256 170.848 197.872C170.848 197.467 170.8 197.077 170.704 196.704C170.608 196.32 170.453 195.984 170.24 195.696C170.037 195.408 169.77 195.179 169.44 195.008C169.109 194.827 168.709 194.736 168.24 194.736C167.781 194.736 167.392 194.827 167.072 195.008C166.752 195.189 166.496 195.429 166.304 195.728C166.112 196.027 165.973 196.368 165.888 196.752C165.802 197.136 165.76 197.531 165.76 197.936ZM172.16 202H170.8V200.88H170.768C170.544 201.339 170.192 201.669 169.712 201.872C169.232 202.075 168.704 202.176 168.128 202.176C167.488 202.176 166.928 202.059 166.448 201.824C165.978 201.589 165.584 201.275 165.264 200.88C164.954 200.485 164.72 200.027 164.56 199.504C164.4 198.981 164.32 198.427 164.32 197.84C164.32 197.253 164.394 196.699 164.544 196.176C164.704 195.653 164.938 195.2 165.248 194.816C165.568 194.421 165.962 194.112 166.432 193.888C166.912 193.653 167.466 193.536 168.096 193.536C168.309 193.536 168.538 193.557 168.784 193.6C169.029 193.643 169.274 193.717 169.52 193.824C169.765 193.92 169.994 194.053 170.208 194.224C170.432 194.384 170.618 194.587 170.768 194.832H170.8V190.576H172.16V202ZM175.284 199.392C175.295 199.691 175.364 199.947 175.492 200.16C175.62 200.363 175.785 200.528 175.988 200.656C176.201 200.773 176.436 200.859 176.692 200.912C176.959 200.965 177.231 200.992 177.508 200.992C177.721 200.992 177.945 200.976 178.18 200.944C178.415 200.912 178.628 200.853 178.82 200.768C179.023 200.683 179.188 200.56 179.316 200.4C179.444 200.229 179.508 200.016 179.508 199.76C179.508 199.408 179.375 199.141 179.108 198.96C178.841 198.779 178.505 198.635 178.1 198.528C177.705 198.411 177.273 198.309 176.804 198.224C176.335 198.128 175.897 198 175.492 197.84C175.097 197.669 174.767 197.435 174.5 197.136C174.233 196.837 174.1 196.421 174.1 195.888C174.1 195.472 174.191 195.115 174.372 194.816C174.564 194.517 174.804 194.277 175.092 194.096C175.391 193.904 175.721 193.765 176.084 193.68C176.457 193.584 176.825 193.536 177.188 193.536C177.657 193.536 178.089 193.579 178.484 193.664C178.879 193.739 179.225 193.877 179.524 194.08C179.833 194.272 180.079 194.539 180.26 194.88C180.441 195.211 180.548 195.627 180.58 196.128H179.22C179.199 195.861 179.129 195.643 179.012 195.472C178.895 195.291 178.745 195.147 178.564 195.04C178.383 194.933 178.18 194.859 177.956 194.816C177.743 194.763 177.524 194.736 177.3 194.736C177.097 194.736 176.889 194.752 176.676 194.784C176.473 194.816 176.287 194.875 176.116 194.96C175.945 195.035 175.807 195.141 175.7 195.28C175.593 195.408 175.54 195.579 175.54 195.792C175.54 196.027 175.62 196.224 175.78 196.384C175.951 196.533 176.164 196.661 176.42 196.768C176.676 196.864 176.964 196.949 177.284 197.024C177.604 197.088 177.924 197.157 178.244 197.232C178.585 197.307 178.916 197.397 179.236 197.504C179.567 197.611 179.855 197.755 180.1 197.936C180.356 198.107 180.559 198.325 180.708 198.592C180.868 198.859 180.948 199.189 180.948 199.584C180.948 200.085 180.841 200.501 180.628 200.832C180.425 201.163 180.153 201.429 179.812 201.632C179.481 201.835 179.103 201.973 178.676 202.048C178.26 202.133 177.844 202.176 177.428 202.176C176.969 202.176 176.532 202.128 176.116 202.032C175.7 201.936 175.332 201.781 175.012 201.568C174.692 201.344 174.436 201.056 174.244 200.704C174.052 200.341 173.945 199.904 173.924 199.392H175.284ZM187.305 193.728H188.585V194.944H188.617C189.236 194.005 190.127 193.536 191.289 193.536C191.801 193.536 192.265 193.643 192.681 193.856C193.097 194.069 193.391 194.432 193.561 194.944C193.839 194.496 194.201 194.149 194.649 193.904C195.108 193.659 195.609 193.536 196.153 193.536C196.569 193.536 196.943 193.584 197.273 193.68C197.615 193.765 197.903 193.904 198.137 194.096C198.383 194.288 198.569 194.539 198.697 194.848C198.836 195.147 198.905 195.509 198.905 195.936V202H197.545V196.576C197.545 196.32 197.524 196.08 197.481 195.856C197.439 195.632 197.359 195.44 197.241 195.28C197.124 195.109 196.959 194.976 196.745 194.88C196.543 194.784 196.276 194.736 195.945 194.736C195.273 194.736 194.745 194.928 194.361 195.312C193.977 195.696 193.785 196.208 193.785 196.848V202H192.425V196.576C192.425 196.309 192.399 196.064 192.345 195.84C192.303 195.616 192.223 195.424 192.105 195.264C191.988 195.093 191.828 194.965 191.625 194.88C191.433 194.784 191.183 194.736 190.873 194.736C190.479 194.736 190.137 194.816 189.849 194.976C189.572 195.136 189.343 195.328 189.161 195.552C188.991 195.776 188.863 196.011 188.777 196.256C188.703 196.491 188.665 196.688 188.665 196.848V202H187.305V193.728ZM208.474 201.968C208.239 202.107 207.914 202.176 207.498 202.176C207.146 202.176 206.863 202.08 206.65 201.888C206.447 201.685 206.346 201.36 206.346 200.912C205.973 201.36 205.535 201.685 205.034 201.888C204.543 202.08 204.01 202.176 203.434 202.176C203.061 202.176 202.703 202.133 202.362 202.048C202.031 201.963 201.743 201.829 201.498 201.648C201.253 201.467 201.055 201.232 200.906 200.944C200.767 200.645 200.698 200.288 200.698 199.872C200.698 199.403 200.778 199.019 200.938 198.72C201.098 198.421 201.306 198.181 201.562 198C201.829 197.808 202.127 197.664 202.458 197.568C202.799 197.472 203.146 197.392 203.498 197.328C203.871 197.253 204.223 197.2 204.554 197.168C204.895 197.125 205.194 197.072 205.45 197.008C205.706 196.933 205.909 196.832 206.058 196.704C206.207 196.565 206.282 196.368 206.282 196.112C206.282 195.813 206.223 195.573 206.106 195.392C205.999 195.211 205.855 195.072 205.674 194.976C205.503 194.88 205.306 194.816 205.082 194.784C204.869 194.752 204.655 194.736 204.442 194.736C203.866 194.736 203.386 194.848 203.002 195.072C202.618 195.285 202.41 195.696 202.378 196.304H201.018C201.039 195.792 201.146 195.36 201.338 195.008C201.53 194.656 201.786 194.373 202.106 194.16C202.426 193.936 202.789 193.776 203.194 193.68C203.61 193.584 204.053 193.536 204.522 193.536C204.895 193.536 205.263 193.563 205.626 193.616C205.999 193.669 206.335 193.781 206.634 193.952C206.933 194.112 207.173 194.341 207.354 194.64C207.535 194.939 207.626 195.328 207.626 195.808V200.064C207.626 200.384 207.642 200.619 207.674 200.768C207.717 200.917 207.845 200.992 208.058 200.992C208.175 200.992 208.314 200.965 208.474 200.912V201.968ZM206.266 197.728C206.095 197.856 205.871 197.952 205.594 198.016C205.317 198.069 205.023 198.117 204.714 198.16C204.415 198.192 204.111 198.235 203.802 198.288C203.493 198.331 203.215 198.405 202.97 198.512C202.725 198.619 202.522 198.773 202.362 198.976C202.213 199.168 202.138 199.435 202.138 199.776C202.138 200 202.181 200.192 202.266 200.352C202.362 200.501 202.479 200.624 202.618 200.72C202.767 200.816 202.938 200.885 203.13 200.928C203.322 200.971 203.525 200.992 203.738 200.992C204.186 200.992 204.57 200.933 204.89 200.816C205.21 200.688 205.471 200.533 205.674 200.352C205.877 200.16 206.026 199.957 206.122 199.744C206.218 199.52 206.266 199.312 206.266 199.12V197.728ZM209.892 193.728H211.172V195.472H211.204C211.534 194.8 211.94 194.304 212.42 193.984C212.9 193.664 213.508 193.515 214.244 193.536V194.976C213.7 194.976 213.236 195.051 212.852 195.2C212.468 195.349 212.158 195.568 211.924 195.856C211.689 196.144 211.518 196.496 211.412 196.912C211.305 197.317 211.252 197.787 211.252 198.32V202H209.892V193.728ZM215.548 190.576H216.908V197.344L220.684 193.728H222.508L219.228 196.736L222.748 202H221.02L218.188 197.68L216.908 198.864V202H215.548V190.576ZM229.709 197.072C229.687 196.752 229.613 196.448 229.485 196.16C229.367 195.872 229.202 195.627 228.989 195.424C228.786 195.211 228.541 195.045 228.253 194.928C227.975 194.8 227.666 194.736 227.325 194.736C226.973 194.736 226.653 194.8 226.365 194.928C226.087 195.045 225.847 195.211 225.645 195.424C225.442 195.637 225.282 195.888 225.165 196.176C225.047 196.453 224.978 196.752 224.957 197.072H229.709ZM231.021 199.376C230.839 200.304 230.439 201.003 229.821 201.472C229.202 201.941 228.423 202.176 227.485 202.176C226.823 202.176 226.247 202.069 225.757 201.856C225.277 201.643 224.871 201.344 224.541 200.96C224.21 200.576 223.959 200.117 223.789 199.584C223.629 199.051 223.538 198.469 223.517 197.84C223.517 197.211 223.613 196.635 223.805 196.112C223.997 195.589 224.263 195.136 224.605 194.752C224.957 194.368 225.367 194.069 225.837 193.856C226.317 193.643 226.839 193.536 227.405 193.536C228.141 193.536 228.749 193.691 229.229 194C229.719 194.299 230.109 194.683 230.397 195.152C230.695 195.621 230.898 196.133 231.005 196.688C231.122 197.243 231.17 197.771 231.149 198.272H224.957C224.946 198.635 224.989 198.981 225.085 199.312C225.181 199.632 225.335 199.92 225.549 200.176C225.762 200.421 226.034 200.619 226.365 200.768C226.695 200.917 227.085 200.992 227.533 200.992C228.109 200.992 228.578 200.859 228.941 200.592C229.314 200.325 229.559 199.92 229.677 199.376H231.021ZM233.75 197.936C233.75 198.32 233.798 198.699 233.894 199.072C234.001 199.435 234.156 199.76 234.358 200.048C234.572 200.336 234.838 200.565 235.158 200.736C235.489 200.907 235.873 200.992 236.31 200.992C236.769 200.992 237.158 200.901 237.478 200.72C237.798 200.539 238.06 200.304 238.262 200.016C238.465 199.717 238.609 199.381 238.694 199.008C238.79 198.635 238.838 198.256 238.838 197.872C238.838 197.467 238.79 197.077 238.694 196.704C238.598 196.32 238.444 195.984 238.23 195.696C238.028 195.408 237.761 195.179 237.43 195.008C237.1 194.827 236.7 194.736 236.23 194.736C235.772 194.736 235.382 194.827 235.062 195.008C234.742 195.189 234.486 195.429 234.294 195.728C234.102 196.027 233.964 196.368 233.878 196.752C233.793 197.136 233.75 197.531 233.75 197.936ZM240.15 202H238.79V200.88H238.758C238.534 201.339 238.182 201.669 237.702 201.872C237.222 202.075 236.694 202.176 236.118 202.176C235.478 202.176 234.918 202.059 234.438 201.824C233.969 201.589 233.574 201.275 233.254 200.88C232.945 200.485 232.71 200.027 232.55 199.504C232.39 198.981 232.31 198.427 232.31 197.84C232.31 197.253 232.385 196.699 232.534 196.176C232.694 195.653 232.929 195.2 233.238 194.816C233.558 194.421 233.953 194.112 234.422 193.888C234.902 193.653 235.457 193.536 236.086 193.536C236.3 193.536 236.529 193.557 236.774 193.6C237.02 193.643 237.265 193.717 237.51 193.824C237.756 193.92 237.985 194.053 238.198 194.224C238.422 194.384 238.609 194.587 238.758 194.832H238.79V190.576H240.15V202ZM255.288 202H253.848L252.168 195.424H252.136L250.472 202H249L246.344 193.728H247.848L249.72 200.496H249.752L251.416 193.728H252.904L254.632 200.496H254.664L256.52 193.728H257.928L255.288 202ZM260.861 192.24H259.501V190.576H260.861V192.24ZM259.501 193.728H260.861V202H259.501V193.728ZM265.056 193.728H266.704V194.928H265.056V200.064C265.056 200.224 265.066 200.352 265.088 200.448C265.12 200.544 265.173 200.619 265.248 200.672C265.322 200.725 265.424 200.763 265.552 200.784C265.69 200.795 265.866 200.8 266.08 200.8H266.704V202H265.664C265.312 202 265.008 201.979 264.752 201.936C264.506 201.883 264.304 201.792 264.144 201.664C263.994 201.536 263.882 201.355 263.808 201.12C263.733 200.885 263.696 200.576 263.696 200.192V194.928H262.288V193.728H263.696V191.248H265.056V193.728ZM268.415 190.576H269.775V194.944H269.807C269.913 194.688 270.063 194.475 270.255 194.304C270.447 194.123 270.66 193.979 270.895 193.872C271.14 193.755 271.391 193.669 271.647 193.616C271.913 193.563 272.169 193.536 272.415 193.536C272.959 193.536 273.412 193.611 273.775 193.76C274.137 193.909 274.431 194.117 274.655 194.384C274.879 194.651 275.033 194.971 275.119 195.344C275.215 195.707 275.263 196.112 275.263 196.56V202H273.903V196.4C273.903 195.888 273.753 195.483 273.455 195.184C273.156 194.885 272.745 194.736 272.223 194.736C271.807 194.736 271.444 194.8 271.135 194.928C270.836 195.056 270.585 195.237 270.383 195.472C270.18 195.707 270.025 195.984 269.919 196.304C269.823 196.613 269.775 196.955 269.775 197.328V202H268.415V190.576ZM289.486 201.968C289.252 202.107 288.926 202.176 288.51 202.176C288.158 202.176 287.876 202.08 287.662 201.888C287.46 201.685 287.358 201.36 287.358 200.912C286.985 201.36 286.548 201.685 286.046 201.888C285.556 202.08 285.022 202.176 284.446 202.176C284.073 202.176 283.716 202.133 283.374 202.048C283.044 201.963 282.756 201.829 282.51 201.648C282.265 201.467 282.068 201.232 281.918 200.944C281.78 200.645 281.71 200.288 281.71 199.872C281.71 199.403 281.79 199.019 281.95 198.72C282.11 198.421 282.318 198.181 282.574 198C282.841 197.808 283.14 197.664 283.47 197.568C283.812 197.472 284.158 197.392 284.51 197.328C284.884 197.253 285.236 197.2 285.566 197.168C285.908 197.125 286.206 197.072 286.462 197.008C286.718 196.933 286.921 196.832 287.07 196.704C287.22 196.565 287.294 196.368 287.294 196.112C287.294 195.813 287.236 195.573 287.118 195.392C287.012 195.211 286.868 195.072 286.686 194.976C286.516 194.88 286.318 194.816 286.094 194.784C285.881 194.752 285.668 194.736 285.454 194.736C284.878 194.736 284.398 194.848 284.014 195.072C283.63 195.285 283.422 195.696 283.39 196.304H282.03C282.052 195.792 282.158 195.36 282.35 195.008C282.542 194.656 282.798 194.373 283.118 194.16C283.438 193.936 283.801 193.776 284.206 193.68C284.622 193.584 285.065 193.536 285.534 193.536C285.908 193.536 286.276 193.563 286.638 193.616C287.012 193.669 287.348 193.781 287.646 193.952C287.945 194.112 288.185 194.341 288.366 194.64C288.548 194.939 288.638 195.328 288.638 195.808V200.064C288.638 200.384 288.654 200.619 288.686 200.768C288.729 200.917 288.857 200.992 289.07 200.992C289.188 200.992 289.326 200.965 289.486 200.912V201.968ZM287.278 197.728C287.108 197.856 286.884 197.952 286.606 198.016C286.329 198.069 286.036 198.117 285.726 198.16C285.428 198.192 285.124 198.235 284.814 198.288C284.505 198.331 284.228 198.405 283.982 198.512C283.737 198.619 283.534 198.773 283.374 198.976C283.225 199.168 283.15 199.435 283.15 199.776C283.15 200 283.193 200.192 283.278 200.352C283.374 200.501 283.492 200.624 283.63 200.72C283.78 200.816 283.95 200.885 284.142 200.928C284.334 200.971 284.537 200.992 284.75 200.992C285.198 200.992 285.582 200.933 285.902 200.816C286.222 200.688 286.484 200.533 286.686 200.352C286.889 200.16 287.038 199.957 287.134 199.744C287.23 199.52 287.278 199.312 287.278 199.12V197.728ZM290.952 193.728H292.232V195.04H292.264C292.829 194.037 293.725 193.536 294.952 193.536C295.496 193.536 295.949 193.611 296.312 193.76C296.675 193.909 296.968 194.117 297.192 194.384C297.416 194.651 297.571 194.971 297.656 195.344C297.752 195.707 297.8 196.112 297.8 196.56V202H296.44V196.4C296.44 195.888 296.291 195.483 295.992 195.184C295.693 194.885 295.283 194.736 294.76 194.736C294.344 194.736 293.981 194.8 293.672 194.928C293.373 195.056 293.123 195.237 292.92 195.472C292.717 195.707 292.563 195.984 292.456 196.304C292.36 196.613 292.312 196.955 292.312 197.328V202H290.952V193.728ZM323.393 201.968C323.158 202.107 322.833 202.176 322.417 202.176C322.065 202.176 321.782 202.08 321.569 201.888C321.366 201.685 321.265 201.36 321.265 200.912C320.891 201.36 320.454 201.685 319.953 201.888C319.462 202.08 318.929 202.176 318.353 202.176C317.979 202.176 317.622 202.133 317.281 202.048C316.95 201.963 316.662 201.829 316.417 201.648C316.171 201.467 315.974 201.232 315.825 200.944C315.686 200.645 315.617 200.288 315.617 199.872C315.617 199.403 315.697 199.019 315.857 198.72C316.017 198.421 316.225 198.181 316.481 198C316.747 197.808 317.046 197.664 317.377 197.568C317.718 197.472 318.065 197.392 318.417 197.328C318.79 197.253 319.142 197.2 319.473 197.168C319.814 197.125 320.113 197.072 320.369 197.008C320.625 196.933 320.827 196.832 320.977 196.704C321.126 196.565 321.201 196.368 321.201 196.112C321.201 195.813 321.142 195.573 321.025 195.392C320.918 195.211 320.774 195.072 320.593 194.976C320.422 194.88 320.225 194.816 320.001 194.784C319.787 194.752 319.574 194.736 319.361 194.736C318.785 194.736 318.305 194.848 317.921 195.072C317.537 195.285 317.329 195.696 317.297 196.304H315.937C315.958 195.792 316.065 195.36 316.257 195.008C316.449 194.656 316.705 194.373 317.025 194.16C317.345 193.936 317.707 193.776 318.113 193.68C318.529 193.584 318.971 193.536 319.441 193.536C319.814 193.536 320.182 193.563 320.545 193.616C320.918 193.669 321.254 193.781 321.553 193.952C321.851 194.112 322.091 194.341 322.273 194.64C322.454 194.939 322.545 195.328 322.545 195.808V200.064C322.545 200.384 322.561 200.619 322.593 200.768C322.635 200.917 322.763 200.992 322.977 200.992C323.094 200.992 323.233 200.965 323.393 200.912V201.968ZM321.185 197.728C321.014 197.856 320.79 197.952 320.513 198.016C320.235 198.069 319.942 198.117 319.633 198.16C319.334 198.192 319.03 198.235 318.721 198.288C318.411 198.331 318.134 198.405 317.889 198.512C317.643 198.619 317.441 198.773 317.281 198.976C317.131 199.168 317.057 199.435 317.057 199.776C317.057 200 317.099 200.192 317.185 200.352C317.281 200.501 317.398 200.624 317.537 200.72C317.686 200.816 317.857 200.885 318.049 200.928C318.241 200.971 318.443 200.992 318.657 200.992C319.105 200.992 319.489 200.933 319.809 200.816C320.129 200.688 320.39 200.533 320.593 200.352C320.795 200.16 320.945 199.957 321.041 199.744C321.137 199.52 321.185 199.312 321.185 199.12V197.728ZM324.81 193.728H326.09V195.472H326.122C326.453 194.8 326.858 194.304 327.338 193.984C327.818 193.664 328.426 193.515 329.162 193.536V194.976C328.618 194.976 328.154 195.051 327.77 195.2C327.386 195.349 327.077 195.568 326.842 195.856C326.608 196.144 326.437 196.496 326.33 196.912C326.224 197.317 326.17 197.787 326.17 198.32V202H324.81V193.728ZM335.849 197.072C335.828 196.752 335.753 196.448 335.625 196.16C335.508 195.872 335.343 195.627 335.129 195.424C334.927 195.211 334.681 195.045 334.393 194.928C334.116 194.8 333.807 194.736 333.465 194.736C333.113 194.736 332.793 194.8 332.505 194.928C332.228 195.045 331.988 195.211 331.785 195.424C331.583 195.637 331.423 195.888 331.305 196.176C331.188 196.453 331.119 196.752 331.097 197.072H335.849ZM337.161 199.376C336.98 200.304 336.58 201.003 335.961 201.472C335.343 201.941 334.564 202.176 333.625 202.176C332.964 202.176 332.388 202.069 331.897 201.856C331.417 201.643 331.012 201.344 330.681 200.96C330.351 200.576 330.1 200.117 329.929 199.584C329.769 199.051 329.679 198.469 329.657 197.84C329.657 197.211 329.753 196.635 329.945 196.112C330.137 195.589 330.404 195.136 330.745 194.752C331.097 194.368 331.508 194.069 331.977 193.856C332.457 193.643 332.98 193.536 333.545 193.536C334.281 193.536 334.889 193.691 335.369 194C335.86 194.299 336.249 194.683 336.537 195.152C336.836 195.621 337.039 196.133 337.145 196.688C337.263 197.243 337.311 197.771 337.289 198.272H331.097C331.087 198.635 331.129 198.981 331.225 199.312C331.321 199.632 331.476 199.92 331.689 200.176C331.903 200.421 332.175 200.619 332.505 200.768C332.836 200.917 333.225 200.992 333.673 200.992C334.249 200.992 334.719 200.859 335.081 200.592C335.455 200.325 335.7 199.92 335.817 199.376H337.161ZM343.552 193.728H344.832V194.944H344.864C345.483 194.005 346.373 193.536 347.536 193.536C348.048 193.536 348.512 193.643 348.928 193.856C349.344 194.069 349.637 194.432 349.808 194.944C350.085 194.496 350.448 194.149 350.896 193.904C351.355 193.659 351.856 193.536 352.4 193.536C352.816 193.536 353.189 193.584 353.52 193.68C353.861 193.765 354.149 193.904 354.384 194.096C354.629 194.288 354.816 194.539 354.944 194.848C355.083 195.147 355.152 195.509 355.152 195.936V202H353.792V196.576C353.792 196.32 353.771 196.08 353.728 195.856C353.685 195.632 353.605 195.44 353.488 195.28C353.371 195.109 353.205 194.976 352.992 194.88C352.789 194.784 352.523 194.736 352.192 194.736C351.52 194.736 350.992 194.928 350.608 195.312C350.224 195.696 350.032 196.208 350.032 196.848V202H348.672V196.576C348.672 196.309 348.645 196.064 348.592 195.84C348.549 195.616 348.469 195.424 348.352 195.264C348.235 195.093 348.075 194.965 347.872 194.88C347.68 194.784 347.429 194.736 347.12 194.736C346.725 194.736 346.384 194.816 346.096 194.976C345.819 195.136 345.589 195.328 345.408 195.552C345.237 195.776 345.109 196.011 345.024 196.256C344.949 196.491 344.912 196.688 344.912 196.848V202H343.552V193.728ZM364.721 201.968C364.486 202.107 364.161 202.176 363.745 202.176C363.393 202.176 363.11 202.08 362.897 201.888C362.694 201.685 362.593 201.36 362.593 200.912C362.219 201.36 361.782 201.685 361.281 201.888C360.79 202.08 360.257 202.176 359.681 202.176C359.307 202.176 358.95 202.133 358.609 202.048C358.278 201.963 357.99 201.829 357.745 201.648C357.499 201.467 357.302 201.232 357.153 200.944C357.014 200.645 356.945 200.288 356.945 199.872C356.945 199.403 357.025 199.019 357.185 198.72C357.345 198.421 357.553 198.181 357.809 198C358.075 197.808 358.374 197.664 358.705 197.568C359.046 197.472 359.393 197.392 359.745 197.328C360.118 197.253 360.47 197.2 360.801 197.168C361.142 197.125 361.441 197.072 361.697 197.008C361.953 196.933 362.155 196.832 362.305 196.704C362.454 196.565 362.529 196.368 362.529 196.112C362.529 195.813 362.47 195.573 362.353 195.392C362.246 195.211 362.102 195.072 361.921 194.976C361.75 194.88 361.553 194.816 361.329 194.784C361.115 194.752 360.902 194.736 360.689 194.736C360.113 194.736 359.633 194.848 359.249 195.072C358.865 195.285 358.657 195.696 358.625 196.304H357.265C357.286 195.792 357.393 195.36 357.585 195.008C357.777 194.656 358.033 194.373 358.353 194.16C358.673 193.936 359.035 193.776 359.441 193.68C359.857 193.584 360.299 193.536 360.769 193.536C361.142 193.536 361.51 193.563 361.873 193.616C362.246 193.669 362.582 193.781 362.881 193.952C363.179 194.112 363.419 194.341 363.601 194.64C363.782 194.939 363.873 195.328 363.873 195.808V200.064C363.873 200.384 363.889 200.619 363.921 200.768C363.963 200.917 364.091 200.992 364.305 200.992C364.422 200.992 364.561 200.965 364.721 200.912V201.968ZM362.513 197.728C362.342 197.856 362.118 197.952 361.841 198.016C361.563 198.069 361.27 198.117 360.961 198.16C360.662 198.192 360.358 198.235 360.049 198.288C359.739 198.331 359.462 198.405 359.217 198.512C358.971 198.619 358.769 198.773 358.609 198.976C358.459 199.168 358.385 199.435 358.385 199.776C358.385 200 358.427 200.192 358.513 200.352C358.609 200.501 358.726 200.624 358.865 200.72C359.014 200.816 359.185 200.885 359.377 200.928C359.569 200.971 359.771 200.992 359.985 200.992C360.433 200.992 360.817 200.933 361.137 200.816C361.457 200.688 361.718 200.533 361.921 200.352C362.123 200.16 362.273 199.957 362.369 199.744C362.465 199.52 362.513 199.312 362.513 199.12V197.728ZM366.187 193.728H367.467V195.04H367.499C368.064 194.037 368.96 193.536 370.187 193.536C370.731 193.536 371.184 193.611 371.547 193.76C371.909 193.909 372.203 194.117 372.427 194.384C372.651 194.651 372.805 194.971 372.891 195.344C372.987 195.707 373.035 196.112 373.035 196.56V202H371.675V196.4C371.675 195.888 371.525 195.483 371.227 195.184C370.928 194.885 370.517 194.736 369.995 194.736C369.579 194.736 369.216 194.8 368.907 194.928C368.608 195.056 368.357 195.237 368.155 195.472C367.952 195.707 367.797 195.984 367.691 196.304C367.595 196.613 367.547 196.955 367.547 197.328V202H366.187V193.728ZM376.269 197.936C376.269 198.32 376.317 198.699 376.413 199.072C376.52 199.435 376.674 199.76 376.877 200.048C377.09 200.336 377.357 200.565 377.677 200.736C378.008 200.907 378.392 200.992 378.829 200.992C379.288 200.992 379.677 200.901 379.997 200.72C380.317 200.539 380.578 200.304 380.781 200.016C380.984 199.717 381.128 199.381 381.213 199.008C381.309 198.635 381.357 198.256 381.357 197.872C381.357 197.467 381.309 197.077 381.213 196.704C381.117 196.32 380.962 195.984 380.749 195.696C380.546 195.408 380.28 195.179 379.949 195.008C379.618 194.827 379.218 194.736 378.749 194.736C378.29 194.736 377.901 194.827 377.581 195.008C377.261 195.189 377.005 195.429 376.813 195.728C376.621 196.027 376.482 196.368 376.397 196.752C376.312 197.136 376.269 197.531 376.269 197.936ZM382.669 202H381.309V200.88H381.277C381.053 201.339 380.701 201.669 380.221 201.872C379.741 202.075 379.213 202.176 378.637 202.176C377.997 202.176 377.437 202.059 376.957 201.824C376.488 201.589 376.093 201.275 375.773 200.88C375.464 200.485 375.229 200.027 375.069 199.504C374.909 198.981 374.829 198.427 374.829 197.84C374.829 197.253 374.904 196.699 375.053 196.176C375.213 195.653 375.448 195.2 375.757 194.816C376.077 194.421 376.472 194.112 376.941 193.888C377.421 193.653 377.976 193.536 378.605 193.536C378.818 193.536 379.048 193.557 379.293 193.6C379.538 193.643 379.784 193.717 380.029 193.824C380.274 193.92 380.504 194.053 380.717 194.224C380.941 194.384 381.128 194.587 381.277 194.832H381.309V190.576H382.669V202ZM392.29 201.968C392.055 202.107 391.73 202.176 391.314 202.176C390.962 202.176 390.679 202.08 390.466 201.888C390.263 201.685 390.162 201.36 390.162 200.912C389.788 201.36 389.351 201.685 388.85 201.888C388.359 202.08 387.826 202.176 387.25 202.176C386.876 202.176 386.519 202.133 386.178 202.048C385.847 201.963 385.559 201.829 385.314 201.648C385.068 201.467 384.871 201.232 384.722 200.944C384.583 200.645 384.514 200.288 384.514 199.872C384.514 199.403 384.594 199.019 384.754 198.72C384.914 198.421 385.122 198.181 385.378 198C385.644 197.808 385.943 197.664 386.274 197.568C386.615 197.472 386.962 197.392 387.314 197.328C387.687 197.253 388.039 197.2 388.37 197.168C388.711 197.125 389.01 197.072 389.266 197.008C389.522 196.933 389.724 196.832 389.874 196.704C390.023 196.565 390.098 196.368 390.098 196.112C390.098 195.813 390.039 195.573 389.922 195.392C389.815 195.211 389.671 195.072 389.49 194.976C389.319 194.88 389.122 194.816 388.898 194.784C388.684 194.752 388.471 194.736 388.258 194.736C387.682 194.736 387.202 194.848 386.818 195.072C386.434 195.285 386.226 195.696 386.194 196.304H384.834C384.855 195.792 384.962 195.36 385.154 195.008C385.346 194.656 385.602 194.373 385.922 194.16C386.242 193.936 386.604 193.776 387.01 193.68C387.426 193.584 387.868 193.536 388.338 193.536C388.711 193.536 389.079 193.563 389.442 193.616C389.815 193.669 390.151 193.781 390.45 193.952C390.748 194.112 390.988 194.341 391.17 194.64C391.351 194.939 391.442 195.328 391.442 195.808V200.064C391.442 200.384 391.458 200.619 391.49 200.768C391.532 200.917 391.66 200.992 391.874 200.992C391.991 200.992 392.13 200.965 392.29 200.912V201.968ZM390.082 197.728C389.911 197.856 389.687 197.952 389.41 198.016C389.132 198.069 388.839 198.117 388.53 198.16C388.231 198.192 387.927 198.235 387.618 198.288C387.308 198.331 387.031 198.405 386.786 198.512C386.54 198.619 386.338 198.773 386.178 198.976C386.028 199.168 385.954 199.435 385.954 199.776C385.954 200 385.996 200.192 386.082 200.352C386.178 200.501 386.295 200.624 386.434 200.72C386.583 200.816 386.754 200.885 386.946 200.928C387.138 200.971 387.34 200.992 387.554 200.992C388.002 200.992 388.386 200.933 388.706 200.816C389.026 200.688 389.287 200.533 389.49 200.352C389.692 200.16 389.842 199.957 389.938 199.744C390.034 199.52 390.082 199.312 390.082 199.12V197.728ZM395.643 193.728H397.291V194.928H395.643V200.064C395.643 200.224 395.654 200.352 395.675 200.448C395.707 200.544 395.761 200.619 395.835 200.672C395.91 200.725 396.011 200.763 396.139 200.784C396.278 200.795 396.454 200.8 396.667 200.8H397.291V202H396.251C395.899 202 395.595 201.979 395.339 201.936C395.094 201.883 394.891 201.792 394.731 201.664C394.582 201.536 394.47 201.355 394.395 201.12C394.321 200.885 394.283 200.576 394.283 200.192V194.928H392.875V193.728H394.283V191.248H395.643V193.728ZM399.994 197.872C399.994 198.373 400.058 198.821 400.186 199.216C400.325 199.6 400.511 199.925 400.746 200.192C400.981 200.448 401.253 200.645 401.562 200.784C401.882 200.923 402.218 200.992 402.57 200.992C402.922 200.992 403.253 200.923 403.562 200.784C403.882 200.645 404.159 200.448 404.394 200.192C404.629 199.925 404.81 199.6 404.938 199.216C405.077 198.821 405.146 198.373 405.146 197.872C405.146 197.371 405.077 196.928 404.938 196.544C404.81 196.149 404.629 195.819 404.394 195.552C404.159 195.285 403.882 195.083 403.562 194.944C403.253 194.805 402.922 194.736 402.57 194.736C402.218 194.736 401.882 194.805 401.562 194.944C401.253 195.083 400.981 195.285 400.746 195.552C400.511 195.819 400.325 196.149 400.186 196.544C400.058 196.928 399.994 197.371 399.994 197.872ZM398.554 197.872C398.554 197.264 398.639 196.699 398.81 196.176C398.981 195.643 399.237 195.184 399.578 194.8C399.919 194.405 400.341 194.096 400.842 193.872C401.343 193.648 401.919 193.536 402.57 193.536C403.231 193.536 403.807 193.648 404.298 193.872C404.799 194.096 405.221 194.405 405.562 194.8C405.903 195.184 406.159 195.643 406.33 196.176C406.501 196.699 406.586 197.264 406.586 197.872C406.586 198.48 406.501 199.045 406.33 199.568C406.159 200.091 405.903 200.549 405.562 200.944C405.221 201.328 404.799 201.632 404.298 201.856C403.807 202.069 403.231 202.176 402.57 202.176C401.919 202.176 401.343 202.069 400.842 201.856C400.341 201.632 399.919 201.328 399.578 200.944C399.237 200.549 398.981 200.091 398.81 199.568C398.639 199.045 398.554 198.48 398.554 197.872ZM408.342 193.728H409.622V195.472H409.654C409.984 194.8 410.39 194.304 410.87 193.984C411.35 193.664 411.958 193.515 412.694 193.536V194.976C412.15 194.976 411.686 195.051 411.302 195.2C410.918 195.349 410.608 195.568 410.374 195.856C410.139 196.144 409.968 196.496 409.862 196.912C409.755 197.317 409.702 197.787 409.702 198.32V202H408.342V193.728ZM417.166 203.104C417.006 203.509 416.846 203.851 416.686 204.128C416.536 204.405 416.366 204.629 416.174 204.8C415.992 204.981 415.784 205.109 415.55 205.184C415.326 205.269 415.064 205.312 414.766 205.312C414.606 205.312 414.446 205.301 414.286 205.28C414.126 205.259 413.971 205.221 413.822 205.168V203.92C413.939 203.973 414.072 204.016 414.222 204.048C414.382 204.091 414.515 204.112 414.622 204.112C414.899 204.112 415.128 204.043 415.31 203.904C415.502 203.776 415.646 203.589 415.742 203.344L416.302 201.952L413.022 193.728H414.558L416.974 200.496H417.006L419.326 193.728H420.766L417.166 203.104ZM421.234 200.224H423.01V202H421.234V200.224Z" fill="black"/>
<path d="M307.544 192.576L309.4 191.872L309.832 193.104L307.944 193.728L309.128 195.296L308.072 196.08L306.888 194.432L305.768 196.08L304.696 195.296L305.88 193.728L304.024 193.104L304.456 191.872L306.264 192.576V190.576H307.544V192.576Z" fill="#DB0002"/>
<mask id="path-2-inside-1_81743_12414" fill="white">
<path d="M120 236H480V296H120V236Z"/>
</mask>
<path d="M120 236H480V296H120V236Z" fill="black" fill-opacity="0.04"/>
<path d="M480 296V295H120V296V297H480V296Z" fill="black" fill-opacity="0.2" mask="url(#path-2-inside-1_81743_12414)"/>
<path d="M143.856 263.92C143.771 263.099 143.472 262.507 142.96 262.144C142.459 261.771 141.813 261.584 141.024 261.584C140.704 261.584 140.389 261.616 140.08 261.68C139.771 261.744 139.493 261.851 139.248 262C139.013 262.149 138.821 262.352 138.672 262.608C138.533 262.853 138.464 263.163 138.464 263.536C138.464 263.888 138.565 264.176 138.768 264.4C138.981 264.613 139.259 264.789 139.6 264.928C139.952 265.067 140.347 265.184 140.784 265.28C141.221 265.365 141.664 265.461 142.112 265.568C142.571 265.675 143.019 265.803 143.456 265.952C143.893 266.091 144.283 266.283 144.624 266.528C144.976 266.773 145.253 267.083 145.456 267.456C145.669 267.829 145.776 268.299 145.776 268.864C145.776 269.472 145.637 269.995 145.36 270.432C145.093 270.859 144.747 271.211 144.32 271.488C143.893 271.755 143.413 271.947 142.88 272.064C142.357 272.192 141.835 272.256 141.312 272.256C140.672 272.256 140.064 272.176 139.488 272.016C138.923 271.856 138.421 271.616 137.984 271.296C137.557 270.965 137.216 270.549 136.96 270.048C136.715 269.536 136.592 268.933 136.592 268.24H138.032C138.032 268.72 138.123 269.136 138.304 269.488C138.496 269.829 138.741 270.112 139.04 270.336C139.349 270.56 139.707 270.725 140.112 270.832C140.517 270.939 140.933 270.992 141.36 270.992C141.701 270.992 142.043 270.96 142.384 270.896C142.736 270.832 143.051 270.725 143.328 270.576C143.605 270.416 143.829 270.203 144 269.936C144.171 269.669 144.256 269.328 144.256 268.912C144.256 268.517 144.149 268.197 143.936 267.952C143.733 267.707 143.456 267.509 143.104 267.36C142.763 267.2 142.373 267.072 141.936 266.976C141.499 266.88 141.051 266.784 140.592 266.688C140.144 266.581 139.701 266.464 139.264 266.336C138.827 266.197 138.432 266.021 138.08 265.808C137.739 265.584 137.461 265.301 137.248 264.96C137.045 264.608 136.944 264.171 136.944 263.648C136.944 263.072 137.061 262.576 137.296 262.16C137.531 261.733 137.84 261.387 138.224 261.12C138.619 260.843 139.061 260.64 139.552 260.512C140.053 260.373 140.565 260.304 141.088 260.304C141.675 260.304 142.219 260.373 142.72 260.512C143.221 260.651 143.659 260.869 144.032 261.168C144.416 261.467 144.715 261.845 144.928 262.304C145.152 262.752 145.275 263.291 145.296 263.92H143.856ZM153.343 267.072C153.322 266.752 153.247 266.448 153.119 266.16C153.002 265.872 152.836 265.627 152.623 265.424C152.42 265.211 152.175 265.045 151.887 264.928C151.61 264.8 151.3 264.736 150.959 264.736C150.607 264.736 150.287 264.8 149.999 264.928C149.722 265.045 149.482 265.211 149.279 265.424C149.076 265.637 148.916 265.888 148.799 266.176C148.682 266.453 148.612 266.752 148.591 267.072H153.343ZM154.655 269.376C154.474 270.304 154.074 271.003 153.455 271.472C152.836 271.941 152.058 272.176 151.119 272.176C150.458 272.176 149.882 272.069 149.391 271.856C148.911 271.643 148.506 271.344 148.175 270.96C147.844 270.576 147.594 270.117 147.423 269.584C147.263 269.051 147.172 268.469 147.151 267.84C147.151 267.211 147.247 266.635 147.439 266.112C147.631 265.589 147.898 265.136 148.239 264.752C148.591 264.368 149.002 264.069 149.471 263.856C149.951 263.643 150.474 263.536 151.039 263.536C151.775 263.536 152.383 263.691 152.863 264C153.354 264.299 153.743 264.683 154.031 265.152C154.33 265.621 154.532 266.133 154.639 266.688C154.756 267.243 154.804 267.771 154.783 268.272H148.591C148.58 268.635 148.623 268.981 148.719 269.312C148.815 269.632 148.97 269.92 149.183 270.176C149.396 270.421 149.668 270.619 149.999 270.768C150.33 270.917 150.719 270.992 151.167 270.992C151.743 270.992 152.212 270.859 152.575 270.592C152.948 270.325 153.194 269.92 153.311 269.376H154.655ZM156.473 260.576H157.833V272H156.473V260.576ZM165.884 267.072C165.862 266.752 165.788 266.448 165.66 266.16C165.542 265.872 165.377 265.627 165.164 265.424C164.961 265.211 164.716 265.045 164.428 264.928C164.15 264.8 163.841 264.736 163.5 264.736C163.148 264.736 162.828 264.8 162.54 264.928C162.262 265.045 162.022 265.211 161.82 265.424C161.617 265.637 161.457 265.888 161.34 266.176C161.222 266.453 161.153 266.752 161.132 267.072H165.884ZM167.196 269.376C167.014 270.304 166.614 271.003 165.996 271.472C165.377 271.941 164.598 272.176 163.66 272.176C162.998 272.176 162.422 272.069 161.932 271.856C161.452 271.643 161.046 271.344 160.716 270.96C160.385 270.576 160.134 270.117 159.964 269.584C159.804 269.051 159.713 268.469 159.692 267.84C159.692 267.211 159.788 266.635 159.98 266.112C160.172 265.589 160.438 265.136 160.78 264.752C161.132 264.368 161.542 264.069 162.012 263.856C162.492 263.643 163.014 263.536 163.58 263.536C164.316 263.536 164.924 263.691 165.404 264C165.894 264.299 166.284 264.683 166.572 265.152C166.87 265.621 167.073 266.133 167.18 266.688C167.297 267.243 167.345 267.771 167.324 268.272H161.132C161.121 268.635 161.164 268.981 161.26 269.312C161.356 269.632 161.51 269.92 161.724 270.176C161.937 270.421 162.209 270.619 162.54 270.768C162.87 270.917 163.26 270.992 163.708 270.992C164.284 270.992 164.753 270.859 165.116 270.592C165.489 270.325 165.734 269.92 165.852 269.376H167.196ZM174.549 266.384C174.443 265.861 174.219 265.456 173.877 265.168C173.536 264.88 173.077 264.736 172.501 264.736C172.011 264.736 171.6 264.827 171.269 265.008C170.939 265.189 170.672 265.429 170.469 265.728C170.277 266.027 170.139 266.373 170.053 266.768C169.968 267.152 169.925 267.552 169.925 267.968C169.925 268.352 169.968 268.725 170.053 269.088C170.149 269.451 170.293 269.776 170.485 270.064C170.677 270.341 170.928 270.565 171.237 270.736C171.547 270.907 171.915 270.992 172.341 270.992C173.013 270.992 173.536 270.816 173.909 270.464C174.293 270.112 174.528 269.616 174.613 268.976H176.005C175.856 270 175.472 270.789 174.853 271.344C174.245 271.899 173.413 272.176 172.357 272.176C171.728 272.176 171.168 272.075 170.677 271.872C170.197 271.669 169.792 271.381 169.461 271.008C169.141 270.635 168.896 270.192 168.725 269.68C168.565 269.157 168.485 268.587 168.485 267.968C168.485 267.349 168.565 266.773 168.725 266.24C168.885 265.696 169.125 265.227 169.445 264.832C169.776 264.427 170.187 264.112 170.677 263.888C171.168 263.653 171.739 263.536 172.389 263.536C172.859 263.536 173.296 263.595 173.701 263.712C174.117 263.819 174.48 263.989 174.789 264.224C175.109 264.459 175.371 264.757 175.573 265.12C175.776 265.472 175.904 265.893 175.957 266.384H174.549ZM179.615 263.728H181.263V264.928H179.615V270.064C179.615 270.224 179.626 270.352 179.647 270.448C179.679 270.544 179.732 270.619 179.807 270.672C179.882 270.725 179.983 270.763 180.111 270.784C180.25 270.795 180.426 270.8 180.639 270.8H181.263V272H180.223C179.871 272 179.567 271.979 179.311 271.936C179.066 271.883 178.863 271.792 178.703 271.664C178.554 271.536 178.442 271.355 178.367 271.12C178.292 270.885 178.255 270.576 178.255 270.192V264.928H176.847V263.728H178.255V261.248H179.615V263.728ZM190.875 273.104C190.715 273.509 190.555 273.851 190.395 274.128C190.246 274.405 190.075 274.629 189.883 274.8C189.702 274.981 189.494 275.109 189.259 275.184C189.035 275.269 188.774 275.312 188.475 275.312C188.315 275.312 188.155 275.301 187.995 275.28C187.835 275.259 187.68 275.221 187.531 275.168V273.92C187.648 273.973 187.782 274.016 187.931 274.048C188.091 274.091 188.224 274.112 188.331 274.112C188.608 274.112 188.838 274.043 189.019 273.904C189.211 273.776 189.355 273.589 189.451 273.344L190.011 271.952L186.731 263.728H188.267L190.683 270.496H190.715L193.035 263.728H194.475L190.875 273.104ZM196.819 267.872C196.819 268.373 196.883 268.821 197.011 269.216C197.15 269.6 197.336 269.925 197.571 270.192C197.806 270.448 198.078 270.645 198.387 270.784C198.707 270.923 199.043 270.992 199.395 270.992C199.747 270.992 200.078 270.923 200.387 270.784C200.707 270.645 200.984 270.448 201.219 270.192C201.454 269.925 201.635 269.6 201.763 269.216C201.902 268.821 201.971 268.373 201.971 267.872C201.971 267.371 201.902 266.928 201.763 266.544C201.635 266.149 201.454 265.819 201.219 265.552C200.984 265.285 200.707 265.083 200.387 264.944C200.078 264.805 199.747 264.736 199.395 264.736C199.043 264.736 198.707 264.805 198.387 264.944C198.078 265.083 197.806 265.285 197.571 265.552C197.336 265.819 197.15 266.149 197.011 266.544C196.883 266.928 196.819 267.371 196.819 267.872ZM195.379 267.872C195.379 267.264 195.464 266.699 195.635 266.176C195.806 265.643 196.062 265.184 196.403 264.8C196.744 264.405 197.166 264.096 197.667 263.872C198.168 263.648 198.744 263.536 199.395 263.536C200.056 263.536 200.632 263.648 201.123 263.872C201.624 264.096 202.046 264.405 202.387 264.8C202.728 265.184 202.984 265.643 203.155 266.176C203.326 266.699 203.411 267.264 203.411 267.872C203.411 268.48 203.326 269.045 203.155 269.568C202.984 270.091 202.728 270.549 202.387 270.944C202.046 271.328 201.624 271.632 201.123 271.856C200.632 272.069 200.056 272.176 199.395 272.176C198.744 272.176 198.168 272.069 197.667 271.856C197.166 271.632 196.744 271.328 196.403 270.944C196.062 270.549 195.806 270.091 195.635 269.568C195.464 269.045 195.379 268.48 195.379 267.872ZM212.063 272H210.783V270.688H210.751C210.463 271.2 210.095 271.579 209.647 271.824C209.199 272.059 208.671 272.176 208.063 272.176C207.519 272.176 207.065 272.107 206.703 271.968C206.34 271.819 206.047 271.611 205.823 271.344C205.599 271.077 205.439 270.763 205.343 270.4C205.257 270.027 205.215 269.616 205.215 269.168V263.728H206.575V269.328C206.575 269.84 206.724 270.245 207.023 270.544C207.321 270.843 207.732 270.992 208.255 270.992C208.671 270.992 209.028 270.928 209.327 270.8C209.636 270.672 209.892 270.491 210.095 270.256C210.297 270.021 210.447 269.749 210.543 269.44C210.649 269.12 210.703 268.773 210.703 268.4V263.728H212.063V272ZM214.257 263.728H215.537V265.472H215.569C215.9 264.8 216.305 264.304 216.785 263.984C217.265 263.664 217.873 263.515 218.609 263.536V264.976C218.065 264.976 217.601 265.051 217.217 265.2C216.833 265.349 216.524 265.568 216.289 265.856C216.055 266.144 215.884 266.496 215.777 266.912C215.671 267.317 215.617 267.787 215.617 268.32V272H214.257V263.728ZM225.319 269.392C225.329 269.691 225.399 269.947 225.527 270.16C225.655 270.363 225.82 270.528 226.023 270.656C226.236 270.773 226.471 270.859 226.727 270.912C226.993 270.965 227.265 270.992 227.543 270.992C227.756 270.992 227.98 270.976 228.215 270.944C228.449 270.912 228.663 270.853 228.855 270.768C229.057 270.683 229.223 270.56 229.351 270.4C229.479 270.229 229.543 270.016 229.543 269.76C229.543 269.408 229.409 269.141 229.143 268.96C228.876 268.779 228.54 268.635 228.135 268.528C227.74 268.411 227.308 268.309 226.839 268.224C226.369 268.128 225.932 268 225.527 267.84C225.132 267.669 224.801 267.435 224.535 267.136C224.268 266.837 224.135 266.421 224.135 265.888C224.135 265.472 224.225 265.115 224.407 264.816C224.599 264.517 224.839 264.277 225.127 264.096C225.425 263.904 225.756 263.765 226.119 263.68C226.492 263.584 226.86 263.536 227.223 263.536C227.692 263.536 228.124 263.579 228.519 263.664C228.913 263.739 229.26 263.877 229.559 264.08C229.868 264.272 230.113 264.539 230.295 264.88C230.476 265.211 230.583 265.627 230.615 266.128H229.255C229.233 265.861 229.164 265.643 229.047 265.472C228.929 265.291 228.78 265.147 228.599 265.04C228.417 264.933 228.215 264.859 227.991 264.816C227.777 264.763 227.559 264.736 227.335 264.736C227.132 264.736 226.924 264.752 226.711 264.784C226.508 264.816 226.321 264.875 226.151 264.96C225.98 265.035 225.841 265.141 225.735 265.28C225.628 265.408 225.575 265.579 225.575 265.792C225.575 266.027 225.655 266.224 225.815 266.384C225.985 266.533 226.199 266.661 226.455 266.768C226.711 266.864 226.999 266.949 227.319 267.024C227.639 267.088 227.959 267.157 228.279 267.232C228.62 267.307 228.951 267.397 229.271 267.504C229.601 267.611 229.889 267.755 230.135 267.936C230.391 268.107 230.593 268.325 230.743 268.592C230.903 268.859 230.983 269.189 230.983 269.584C230.983 270.085 230.876 270.501 230.663 270.832C230.46 271.163 230.188 271.429 229.847 271.632C229.516 271.835 229.137 271.973 228.711 272.048C228.295 272.133 227.879 272.176 227.463 272.176C227.004 272.176 226.567 272.128 226.151 272.032C225.735 271.936 225.367 271.781 225.047 271.568C224.727 271.344 224.471 271.056 224.279 270.704C224.087 270.341 223.98 269.904 223.959 269.392H225.319ZM239.534 272H238.254V270.688H238.222C237.934 271.2 237.566 271.579 237.118 271.824C236.67 272.059 236.142 272.176 235.534 272.176C234.99 272.176 234.537 272.107 234.174 271.968C233.812 271.819 233.518 271.611 233.294 271.344C233.07 271.077 232.91 270.763 232.814 270.4C232.729 270.027 232.686 269.616 232.686 269.168V263.728H234.046V269.328C234.046 269.84 234.196 270.245 234.494 270.544C234.793 270.843 235.204 270.992 235.726 270.992C236.142 270.992 236.5 270.928 236.798 270.8C237.108 270.672 237.364 270.491 237.566 270.256C237.769 270.021 237.918 269.749 238.014 269.44C238.121 269.12 238.174 268.773 238.174 268.4V263.728H239.534V272ZM241.825 260.576H243.185V264.848H243.217C243.441 264.389 243.793 264.059 244.273 263.856C244.753 263.643 245.281 263.536 245.857 263.536C246.497 263.536 247.052 263.653 247.521 263.888C248.001 264.123 248.396 264.443 248.705 264.848C249.025 265.243 249.265 265.701 249.425 266.224C249.585 266.747 249.665 267.301 249.665 267.888C249.665 268.475 249.585 269.029 249.425 269.552C249.276 270.075 249.041 270.533 248.721 270.928C248.412 271.312 248.017 271.616 247.537 271.84C247.068 272.064 246.518 272.176 245.889 272.176C245.686 272.176 245.457 272.155 245.201 272.112C244.956 272.069 244.71 272 244.465 271.904C244.22 271.808 243.985 271.68 243.761 271.52C243.548 271.349 243.366 271.141 243.217 270.896H243.185V272H241.825V260.576ZM248.225 267.792C248.225 267.408 248.172 267.035 248.065 266.672C247.969 266.299 247.814 265.968 247.601 265.68C247.398 265.392 247.132 265.163 246.801 264.992C246.481 264.821 246.102 264.736 245.665 264.736C245.206 264.736 244.817 264.827 244.497 265.008C244.177 265.189 243.916 265.429 243.713 265.728C243.51 266.016 243.361 266.347 243.265 266.72C243.18 267.093 243.137 267.472 243.137 267.856C243.137 268.261 243.185 268.656 243.281 269.04C243.377 269.413 243.526 269.744 243.729 270.032C243.942 270.32 244.214 270.555 244.545 270.736C244.876 270.907 245.276 270.992 245.745 270.992C246.214 270.992 246.604 270.901 246.913 270.72C247.233 270.539 247.489 270.299 247.681 270C247.873 269.701 248.012 269.36 248.097 268.976C248.182 268.592 248.225 268.197 248.225 267.792ZM252.902 262.24H251.542V260.576H252.902V262.24ZM252.902 273.04C252.902 273.776 252.72 274.309 252.358 274.64C252.006 274.981 251.526 275.152 250.918 275.152C250.672 275.152 250.443 275.131 250.229 275.088V273.92C250.283 273.931 250.331 273.936 250.373 273.936C250.405 273.947 250.443 273.952 250.486 273.952H250.774C251.072 273.952 251.275 273.867 251.382 273.696C251.488 273.536 251.542 273.243 251.542 272.816V263.728H252.902V273.04ZM260.952 267.072C260.931 266.752 260.856 266.448 260.728 266.16C260.611 265.872 260.446 265.627 260.232 265.424C260.03 265.211 259.784 265.045 259.496 264.928C259.219 264.8 258.91 264.736 258.568 264.736C258.216 264.736 257.896 264.8 257.608 264.928C257.331 265.045 257.091 265.211 256.888 265.424C256.686 265.637 256.526 265.888 256.408 266.176C256.291 266.453 256.222 266.752 256.2 267.072H260.952ZM262.264 269.376C262.083 270.304 261.683 271.003 261.064 271.472C260.446 271.941 259.667 272.176 258.728 272.176C258.067 272.176 257.491 272.069 257 271.856C256.52 271.643 256.115 271.344 255.784 270.96C255.454 270.576 255.203 270.117 255.032 269.584C254.872 269.051 254.782 268.469 254.76 267.84C254.76 267.211 254.856 266.635 255.048 266.112C255.24 265.589 255.507 265.136 255.848 264.752C256.2 264.368 256.611 264.069 257.08 263.856C257.56 263.643 258.083 263.536 258.648 263.536C259.384 263.536 259.992 263.691 260.472 264C260.963 264.299 261.352 264.683 261.64 265.152C261.939 265.621 262.142 266.133 262.248 266.688C262.366 267.243 262.414 267.771 262.392 268.272H256.2C256.19 268.635 256.232 268.981 256.328 269.312C256.424 269.632 256.579 269.92 256.792 270.176C257.006 270.421 257.278 270.619 257.608 270.768C257.939 270.917 258.328 270.992 258.776 270.992C259.352 270.992 259.822 270.859 260.184 270.592C260.558 270.325 260.803 269.92 260.92 269.376H262.264ZM269.618 266.384C269.511 265.861 269.287 265.456 268.946 265.168C268.605 264.88 268.146 264.736 267.57 264.736C267.079 264.736 266.669 264.827 266.338 265.008C266.007 265.189 265.741 265.429 265.538 265.728C265.346 266.027 265.207 266.373 265.122 266.768C265.037 267.152 264.994 267.552 264.994 267.968C264.994 268.352 265.037 268.725 265.122 269.088C265.218 269.451 265.362 269.776 265.554 270.064C265.746 270.341 265.997 270.565 266.306 270.736C266.615 270.907 266.983 270.992 267.41 270.992C268.082 270.992 268.605 270.816 268.978 270.464C269.362 270.112 269.597 269.616 269.682 268.976H271.074C270.925 270 270.541 270.789 269.922 271.344C269.314 271.899 268.482 272.176 267.426 272.176C266.797 272.176 266.237 272.075 265.746 271.872C265.266 271.669 264.861 271.381 264.53 271.008C264.21 270.635 263.965 270.192 263.794 269.68C263.634 269.157 263.554 268.587 263.554 267.968C263.554 267.349 263.634 266.773 263.794 266.24C263.954 265.696 264.194 265.227 264.514 264.832C264.845 264.427 265.255 264.112 265.746 263.888C266.237 263.653 266.807 263.536 267.458 263.536C267.927 263.536 268.365 263.595 268.77 263.712C269.186 263.819 269.549 263.989 269.858 264.224C270.178 264.459 270.439 264.757 270.642 265.12C270.845 265.472 270.973 265.893 271.026 266.384H269.618ZM274.684 263.728H276.332V264.928H274.684V270.064C274.684 270.224 274.695 270.352 274.716 270.448C274.748 270.544 274.801 270.619 274.876 270.672C274.951 270.725 275.052 270.763 275.18 270.784C275.319 270.795 275.495 270.8 275.708 270.8H276.332V272H275.292C274.94 272 274.636 271.979 274.38 271.936C274.135 271.883 273.932 271.792 273.772 271.664C273.623 271.536 273.511 271.355 273.436 271.12C273.361 270.885 273.324 270.576 273.324 270.192V264.928H271.916V263.728H273.324V261.248H274.684V263.728Z" fill="black" fill-opacity="0.68"/>
<path d="M285.544 262.576L287.4 261.872L287.832 263.104L285.944 263.728L287.128 265.296L286.072 266.08L284.888 264.432L283.768 266.08L282.696 265.296L283.88 263.728L282.024 263.104L282.456 261.872L284.264 262.576V260.576H285.544V262.576Z" fill="#DB0002"/>
<g clip-path="url(#clip0_81743_12414)">
<path d="M442.874 263.977L449.999 271.25L457.124 263.977L455.09 261.898L449.999 267.095L444.911 261.898L442.874 263.977Z" fill="black"/>
</g>
<mask id="path-7-inside-2_81743_12414" fill="white">
<path d="M120 312H480V420H120V312Z"/>
</mask>
<path d="M120 312H480V420H120V312Z" fill="black" fill-opacity="0.04"/>
<path d="M480 420V419H120V420V421H480V420Z" fill="black" fill-opacity="0.2" mask="url(#path-7-inside-2_81743_12414)"/>
<path d="M138.412 330.46H141.316L139.888 326.464H139.864L138.412 330.46ZM139.264 325.432H140.524L143.872 334H142.612L141.676 331.42H138.052L137.092 334H135.928L139.264 325.432ZM145.473 330.952C145.473 331.24 145.509 331.524 145.581 331.804C145.661 332.076 145.777 332.32 145.929 332.536C146.089 332.752 146.289 332.924 146.529 333.052C146.777 333.18 147.065 333.244 147.393 333.244C147.737 333.244 148.029 333.176 148.269 333.04C148.509 332.904 148.705 332.728 148.857 332.512C149.009 332.288 149.117 332.036 149.181 331.756C149.253 331.476 149.289 331.192 149.289 330.904C149.289 330.6 149.253 330.308 149.181 330.028C149.109 329.74 148.993 329.488 148.833 329.272C148.681 329.056 148.481 328.884 148.233 328.756C147.985 328.62 147.685 328.552 147.333 328.552C146.989 328.552 146.697 328.62 146.457 328.756C146.217 328.892 146.025 329.072 145.881 329.296C145.737 329.52 145.633 329.776 145.569 330.064C145.505 330.352 145.473 330.648 145.473 330.952ZM150.273 334H149.253V333.16H149.229C149.061 333.504 148.797 333.752 148.437 333.904C148.077 334.056 147.681 334.132 147.249 334.132C146.769 334.132 146.349 334.044 145.989 333.868C145.637 333.692 145.341 333.456 145.101 333.16C144.869 332.864 144.693 332.52 144.573 332.128C144.453 331.736 144.393 331.32 144.393 330.88C144.393 330.44 144.449 330.024 144.561 329.632C144.681 329.24 144.857 328.9 145.089 328.612C145.329 328.316 145.625 328.084 145.977 327.916C146.337 327.74 146.753 327.652 147.225 327.652C147.385 327.652 147.557 327.668 147.741 327.7C147.925 327.732 148.109 327.788 148.293 327.868C148.477 327.94 148.649 328.04 148.809 328.168C148.977 328.288 149.117 328.44 149.229 328.624H149.253V325.432H150.273V334ZM152.767 330.952C152.767 331.24 152.803 331.524 152.875 331.804C152.955 332.076 153.071 332.32 153.223 332.536C153.383 332.752 153.583 332.924 153.823 333.052C154.071 333.18 154.359 333.244 154.687 333.244C155.031 333.244 155.323 333.176 155.563 333.04C155.803 332.904 155.999 332.728 156.151 332.512C156.303 332.288 156.411 332.036 156.475 331.756C156.547 331.476 156.583 331.192 156.583 330.904C156.583 330.6 156.547 330.308 156.475 330.028C156.403 329.74 156.287 329.488 156.127 329.272C155.975 329.056 155.775 328.884 155.527 328.756C155.279 328.62 154.979 328.552 154.627 328.552C154.283 328.552 153.991 328.62 153.751 328.756C153.511 328.892 153.319 329.072 153.175 329.296C153.031 329.52 152.927 329.776 152.863 330.064C152.799 330.352 152.767 330.648 152.767 330.952ZM157.567 334H156.547V333.16H156.523C156.355 333.504 156.091 333.752 155.731 333.904C155.371 334.056 154.975 334.132 154.543 334.132C154.063 334.132 153.643 334.044 153.283 333.868C152.931 333.692 152.635 333.456 152.395 333.16C152.163 332.864 151.987 332.52 151.867 332.128C151.747 331.736 151.687 331.32 151.687 330.88C151.687 330.44 151.743 330.024 151.855 329.632C151.975 329.24 152.151 328.9 152.383 328.612C152.623 328.316 152.919 328.084 153.271 327.916C153.631 327.74 154.047 327.652 154.519 327.652C154.679 327.652 154.851 327.668 155.035 327.7C155.219 327.732 155.403 327.788 155.587 327.868C155.771 327.94 155.943 328.04 156.103 328.168C156.271 328.288 156.411 328.44 156.523 328.624H156.547V325.432H157.567V334ZM160.396 326.68H159.376V325.432H160.396V326.68ZM159.376 327.796H160.396V334H159.376V327.796ZM163.572 327.796H164.808V328.696H163.572V332.548C163.572 332.668 163.58 332.764 163.596 332.836C163.62 332.908 163.66 332.964 163.716 333.004C163.772 333.044 163.848 333.072 163.944 333.088C164.048 333.096 164.18 333.1 164.34 333.1H164.808V334H164.028C163.764 334 163.536 333.984 163.344 333.952C163.16 333.912 163.008 333.844 162.888 333.748C162.776 333.652 162.692 333.516 162.636 333.34C162.58 333.164 162.552 332.932 162.552 332.644V328.696H161.496V327.796H162.552V325.936H163.572V327.796ZM167.201 326.68H166.181V325.432H167.201V326.68ZM166.181 327.796H167.201V334H166.181V327.796ZM169.705 330.904C169.705 331.28 169.753 331.616 169.849 331.912C169.953 332.2 170.093 332.444 170.269 332.644C170.445 332.836 170.649 332.984 170.881 333.088C171.121 333.192 171.373 333.244 171.637 333.244C171.901 333.244 172.149 333.192 172.381 333.088C172.621 332.984 172.829 332.836 173.005 332.644C173.181 332.444 173.317 332.2 173.413 331.912C173.517 331.616 173.569 331.28 173.569 330.904C173.569 330.528 173.517 330.196 173.413 329.908C173.317 329.612 173.181 329.364 173.005 329.164C172.829 328.964 172.621 328.812 172.381 328.708C172.149 328.604 171.901 328.552 171.637 328.552C171.373 328.552 171.121 328.604 170.881 328.708C170.649 328.812 170.445 328.964 170.269 329.164C170.093 329.364 169.953 329.612 169.849 329.908C169.753 330.196 169.705 330.528 169.705 330.904ZM168.625 330.904C168.625 330.448 168.689 330.024 168.817 329.632C168.945 329.232 169.137 328.888 169.393 328.6C169.649 328.304 169.965 328.072 170.341 327.904C170.717 327.736 171.149 327.652 171.637 327.652C172.133 327.652 172.565 327.736 172.933 327.904C173.309 328.072 173.625 328.304 173.881 328.6C174.137 328.888 174.329 329.232 174.457 329.632C174.585 330.024 174.649 330.448 174.649 330.904C174.649 331.36 174.585 331.784 174.457 332.176C174.329 332.568 174.137 332.912 173.881 333.208C173.625 333.496 173.309 333.724 172.933 333.892C172.565 334.052 172.133 334.132 171.637 334.132C171.149 334.132 170.717 334.052 170.341 333.892C169.965 333.724 169.649 333.496 169.393 333.208C169.137 332.912 168.945 332.568 168.817 332.176C168.689 331.784 168.625 331.36 168.625 330.904ZM176.032 327.796H176.992V328.78H177.016C177.44 328.028 178.112 327.652 179.032 327.652C179.44 327.652 179.78 327.708 180.052 327.82C180.324 327.932 180.544 328.088 180.712 328.288C180.88 328.488 180.996 328.728 181.06 329.008C181.132 329.28 181.168 329.584 181.168 329.92V334H180.148V329.8C180.148 329.416 180.036 329.112 179.812 328.888C179.588 328.664 179.28 328.552 178.888 328.552C178.576 328.552 178.304 328.6 178.072 328.696C177.848 328.792 177.66 328.928 177.508 329.104C177.356 329.28 177.24 329.488 177.16 329.728C177.088 329.96 177.052 330.216 177.052 330.496V334H176.032V327.796ZM188.376 333.976C188.2 334.08 187.956 334.132 187.644 334.132C187.38 334.132 187.168 334.06 187.008 333.916C186.856 333.764 186.78 333.52 186.78 333.184C186.5 333.52 186.172 333.764 185.796 333.916C185.428 334.06 185.028 334.132 184.596 334.132C184.316 334.132 184.048 334.1 183.792 334.036C183.544 333.972 183.328 333.872 183.144 333.736C182.96 333.6 182.812 333.424 182.7 333.208C182.596 332.984 182.544 332.716 182.544 332.404C182.544 332.052 182.604 331.764 182.724 331.54C182.844 331.316 183 331.136 183.192 331C183.392 330.856 183.616 330.748 183.864 330.676C184.12 330.604 184.38 330.544 184.644 330.496C184.924 330.44 185.188 330.4 185.436 330.376C185.692 330.344 185.916 330.304 186.108 330.256C186.3 330.2 186.452 330.124 186.564 330.028C186.676 329.924 186.732 329.776 186.732 329.584C186.732 329.36 186.688 329.18 186.6 329.044C186.52 328.908 186.412 328.804 186.276 328.732C186.148 328.66 186 328.612 185.832 328.588C185.672 328.564 185.512 328.552 185.352 328.552C184.92 328.552 184.56 328.636 184.272 328.804C183.984 328.964 183.828 329.272 183.804 329.728H182.784C182.8 329.344 182.88 329.02 183.024 328.756C183.168 328.492 183.36 328.28 183.6 328.12C183.84 327.952 184.112 327.832 184.416 327.76C184.728 327.688 185.06 327.652 185.412 327.652C185.692 327.652 185.968 327.672 186.24 327.712C186.52 327.752 186.772 327.836 186.996 327.964C187.22 328.084 187.4 328.256 187.536 328.48C187.672 328.704 187.74 328.996 187.74 329.356V332.548C187.74 332.788 187.752 332.964 187.776 333.076C187.808 333.188 187.904 333.244 188.064 333.244C188.152 333.244 188.256 333.224 188.376 333.184V333.976ZM186.72 330.796C186.592 330.892 186.424 330.964 186.216 331.012C186.008 331.052 185.788 331.088 185.556 331.12C185.332 331.144 185.104 331.176 184.872 331.216C184.64 331.248 184.432 331.304 184.248 331.384C184.064 331.464 183.912 331.58 183.792 331.732C183.68 331.876 183.624 332.076 183.624 332.332C183.624 332.5 183.656 332.644 183.72 332.764C183.792 332.876 183.88 332.968 183.984 333.04C184.096 333.112 184.224 333.164 184.368 333.196C184.512 333.228 184.664 333.244 184.824 333.244C185.16 333.244 185.448 333.2 185.688 333.112C185.928 333.016 186.124 332.9 186.276 332.764C186.428 332.62 186.54 332.468 186.612 332.308C186.684 332.14 186.72 331.984 186.72 331.84V330.796ZM189.565 325.432H190.585V334H189.565V325.432ZM200.077 329.788C199.997 329.396 199.829 329.092 199.573 328.876C199.317 328.66 198.973 328.552 198.541 328.552C198.173 328.552 197.865 328.62 197.617 328.756C197.369 328.892 197.169 329.072 197.017 329.296C196.873 329.52 196.769 329.78 196.705 330.076C196.641 330.364 196.609 330.664 196.609 330.976C196.609 331.264 196.641 331.544 196.705 331.816C196.777 332.088 196.885 332.332 197.029 332.548C197.173 332.756 197.361 332.924 197.593 333.052C197.825 333.18 198.101 333.244 198.421 333.244C198.925 333.244 199.317 333.112 199.597 332.848C199.885 332.584 200.061 332.212 200.125 331.732H201.169C201.057 332.5 200.769 333.092 200.305 333.508C199.849 333.924 199.225 334.132 198.433 334.132C197.961 334.132 197.541 334.056 197.173 333.904C196.813 333.752 196.509 333.536 196.261 333.256C196.021 332.976 195.837 332.644 195.709 332.26C195.589 331.868 195.529 331.44 195.529 330.976C195.529 330.512 195.589 330.08 195.709 329.68C195.829 329.272 196.009 328.92 196.249 328.624C196.497 328.32 196.805 328.084 197.173 327.916C197.541 327.74 197.969 327.652 198.457 327.652C198.809 327.652 199.137 327.696 199.441 327.784C199.753 327.864 200.025 327.992 200.257 328.168C200.497 328.344 200.693 328.568 200.845 328.84C200.997 329.104 201.093 329.42 201.133 329.788H200.077ZM203.235 330.904C203.235 331.28 203.283 331.616 203.379 331.912C203.483 332.2 203.623 332.444 203.799 332.644C203.975 332.836 204.179 332.984 204.411 333.088C204.651 333.192 204.903 333.244 205.167 333.244C205.431 333.244 205.679 333.192 205.911 333.088C206.151 332.984 206.359 332.836 206.535 332.644C206.711 332.444 206.847 332.2 206.943 331.912C207.047 331.616 207.099 331.28 207.099 330.904C207.099 330.528 207.047 330.196 206.943 329.908C206.847 329.612 206.711 329.364 206.535 329.164C206.359 328.964 206.151 328.812 205.911 328.708C205.679 328.604 205.431 328.552 205.167 328.552C204.903 328.552 204.651 328.604 204.411 328.708C204.179 328.812 203.975 328.964 203.799 329.164C203.623 329.364 203.483 329.612 203.379 329.908C203.283 330.196 203.235 330.528 203.235 330.904ZM202.155 330.904C202.155 330.448 202.219 330.024 202.347 329.632C202.475 329.232 202.667 328.888 202.923 328.6C203.179 328.304 203.495 328.072 203.871 327.904C204.247 327.736 204.679 327.652 205.167 327.652C205.663 327.652 206.095 327.736 206.463 327.904C206.839 328.072 207.155 328.304 207.411 328.6C207.667 328.888 207.859 329.232 207.987 329.632C208.115 330.024 208.179 330.448 208.179 330.904C208.179 331.36 208.115 331.784 207.987 332.176C207.859 332.568 207.667 332.912 207.411 333.208C207.155 333.496 206.839 333.724 206.463 333.892C206.095 334.052 205.663 334.132 205.167 334.132C204.679 334.132 204.247 334.052 203.871 333.892C203.495 333.724 203.179 333.496 202.923 333.208C202.667 332.912 202.475 332.568 202.347 332.176C202.219 331.784 202.155 331.36 202.155 330.904ZM209.561 327.796H210.521V328.708H210.545C211.009 328.004 211.677 327.652 212.549 327.652C212.933 327.652 213.281 327.732 213.593 327.892C213.905 328.052 214.125 328.324 214.253 328.708C214.461 328.372 214.733 328.112 215.069 327.928C215.413 327.744 215.789 327.652 216.197 327.652C216.509 327.652 216.789 327.688 217.037 327.76C217.293 327.824 217.509 327.928 217.685 328.072C217.869 328.216 218.009 328.404 218.105 328.636C218.209 328.86 218.261 329.132 218.261 329.452V334H217.241V329.932C217.241 329.74 217.225 329.56 217.193 329.392C217.161 329.224 217.101 329.08 217.013 328.96C216.925 328.832 216.801 328.732 216.641 328.66C216.489 328.588 216.289 328.552 216.041 328.552C215.537 328.552 215.141 328.696 214.853 328.984C214.565 329.272 214.421 329.656 214.421 330.136V334H213.401V329.932C213.401 329.732 213.381 329.548 213.341 329.38C213.309 329.212 213.249 329.068 213.161 328.948C213.073 328.82 212.953 328.724 212.801 328.66C212.657 328.588 212.469 328.552 212.237 328.552C211.941 328.552 211.685 328.612 211.469 328.732C211.261 328.852 211.089 328.996 210.953 329.164C210.825 329.332 210.729 329.508 210.665 329.692C210.609 329.868 210.581 330.016 210.581 330.136V334H209.561V327.796ZM219.972 327.796H220.932V328.708H220.956C221.42 328.004 222.088 327.652 222.96 327.652C223.344 327.652 223.692 327.732 224.004 327.892C224.316 328.052 224.536 328.324 224.664 328.708C224.872 328.372 225.144 328.112 225.48 327.928C225.824 327.744 226.2 327.652 226.608 327.652C226.92 327.652 227.2 327.688 227.448 327.76C227.704 327.824 227.92 327.928 228.096 328.072C228.28 328.216 228.42 328.404 228.516 328.636C228.62 328.86 228.672 329.132 228.672 329.452V334H227.652V329.932C227.652 329.74 227.636 329.56 227.604 329.392C227.572 329.224 227.512 329.08 227.424 328.96C227.336 328.832 227.212 328.732 227.052 328.66C226.9 328.588 226.7 328.552 226.452 328.552C225.948 328.552 225.552 328.696 225.264 328.984C224.976 329.272 224.832 329.656 224.832 330.136V334H223.812V329.932C223.812 329.732 223.792 329.548 223.752 329.38C223.72 329.212 223.66 329.068 223.572 328.948C223.484 328.82 223.364 328.724 223.212 328.66C223.068 328.588 222.88 328.552 222.648 328.552C222.352 328.552 222.096 328.612 221.88 328.732C221.672 328.852 221.5 328.996 221.364 329.164C221.236 329.332 221.14 329.508 221.076 329.692C221.02 329.868 220.992 330.016 220.992 330.136V334H219.972V327.796ZM234.69 330.304C234.674 330.064 234.618 329.836 234.522 329.62C234.434 329.404 234.31 329.22 234.15 329.068C233.998 328.908 233.814 328.784 233.598 328.696C233.39 328.6 233.158 328.552 232.902 328.552C232.638 328.552 232.398 328.6 232.182 328.696C231.974 328.784 231.794 328.908 231.642 329.068C231.49 329.228 231.37 329.416 231.282 329.632C231.194 329.84 231.142 330.064 231.126 330.304H234.69ZM235.674 332.032C235.538 332.728 235.238 333.252 234.774 333.604C234.31 333.956 233.726 334.132 233.022 334.132C232.526 334.132 232.094 334.052 231.726 333.892C231.366 333.732 231.062 333.508 230.814 333.22C230.566 332.932 230.378 332.588 230.25 332.188C230.13 331.788 230.062 331.352 230.046 330.88C230.046 330.408 230.118 329.976 230.262 329.584C230.406 329.192 230.606 328.852 230.862 328.564C231.126 328.276 231.434 328.052 231.786 327.892C232.146 327.732 232.538 327.652 232.962 327.652C233.514 327.652 233.97 327.768 234.33 328C234.698 328.224 234.99 328.512 235.206 328.864C235.43 329.216 235.582 329.6 235.662 330.016C235.75 330.432 235.786 330.828 235.77 331.204H231.126C231.118 331.476 231.15 331.736 231.222 331.984C231.294 332.224 231.41 332.44 231.57 332.632C231.73 332.816 231.934 332.964 232.182 333.076C232.43 333.188 232.722 333.244 233.058 333.244C233.49 333.244 233.842 333.144 234.114 332.944C234.394 332.744 234.578 332.44 234.666 332.032H235.674ZM237.007 327.796H237.967V328.78H237.991C238.415 328.028 239.087 327.652 240.007 327.652C240.415 327.652 240.755 327.708 241.027 327.82C241.299 327.932 241.519 328.088 241.687 328.288C241.855 328.488 241.971 328.728 242.035 329.008C242.107 329.28 242.143 329.584 242.143 329.92V334H241.123V329.8C241.123 329.416 241.011 329.112 240.787 328.888C240.563 328.664 240.255 328.552 239.863 328.552C239.551 328.552 239.279 328.6 239.047 328.696C238.823 328.792 238.635 328.928 238.483 329.104C238.331 329.28 238.215 329.488 238.135 329.728C238.063 329.96 238.027 330.216 238.027 330.496V334H237.007V327.796ZM245.271 327.796H246.507V328.696H245.271V332.548C245.271 332.668 245.279 332.764 245.295 332.836C245.319 332.908 245.359 332.964 245.415 333.004C245.471 333.044 245.547 333.072 245.643 333.088C245.747 333.096 245.879 333.1 246.039 333.1H246.507V334H245.727C245.463 334 245.235 333.984 245.043 333.952C244.859 333.912 244.707 333.844 244.587 333.748C244.475 333.652 244.391 333.516 244.335 333.34C244.279 333.164 244.251 332.932 244.251 332.644V328.696H243.195V327.796H244.251V325.936H245.271V327.796ZM248.444 332.044C248.452 332.268 248.504 332.46 248.6 332.62C248.696 332.772 248.82 332.896 248.972 332.992C249.132 333.08 249.308 333.144 249.5 333.184C249.7 333.224 249.904 333.244 250.112 333.244C250.272 333.244 250.44 333.232 250.616 333.208C250.792 333.184 250.952 333.14 251.096 333.076C251.248 333.012 251.372 332.92 251.468 332.8C251.564 332.672 251.612 332.512 251.612 332.32C251.612 332.056 251.512 331.856 251.312 331.72C251.112 331.584 250.86 331.476 250.556 331.396C250.26 331.308 249.936 331.232 249.584 331.168C249.232 331.096 248.904 331 248.6 330.88C248.304 330.752 248.056 330.576 247.856 330.352C247.656 330.128 247.556 329.816 247.556 329.416C247.556 329.104 247.624 328.836 247.76 328.612C247.904 328.388 248.084 328.208 248.3 328.072C248.524 327.928 248.772 327.824 249.044 327.76C249.324 327.688 249.6 327.652 249.872 327.652C250.224 327.652 250.548 327.684 250.844 327.748C251.14 327.804 251.4 327.908 251.624 328.06C251.856 328.204 252.04 328.404 252.176 328.66C252.312 328.908 252.392 329.22 252.416 329.596H251.396C251.38 329.396 251.328 329.232 251.24 329.104C251.152 328.968 251.04 328.86 250.904 328.78C250.768 328.7 250.616 328.644 250.448 328.612C250.288 328.572 250.124 328.552 249.956 328.552C249.804 328.552 249.648 328.564 249.488 328.588C249.336 328.612 249.196 328.656 249.068 328.72C248.94 328.776 248.836 328.856 248.756 328.96C248.676 329.056 248.636 329.184 248.636 329.344C248.636 329.52 248.696 329.668 248.816 329.788C248.944 329.9 249.104 329.996 249.296 330.076C249.488 330.148 249.704 330.212 249.944 330.268C250.184 330.316 250.424 330.368 250.664 330.424C250.92 330.48 251.168 330.548 251.408 330.628C251.656 330.708 251.872 330.816 252.056 330.952C252.248 331.08 252.4 331.244 252.512 331.444C252.632 331.644 252.692 331.892 252.692 332.188C252.692 332.564 252.612 332.876 252.452 333.124C252.3 333.372 252.096 333.572 251.84 333.724C251.592 333.876 251.308 333.98 250.988 334.036C250.676 334.1 250.364 334.132 250.052 334.132C249.708 334.132 249.38 334.096 249.068 334.024C248.756 333.952 248.48 333.836 248.24 333.676C248 333.508 247.808 333.292 247.664 333.028C247.52 332.756 247.44 332.428 247.424 332.044H248.444Z" fill="black" fill-opacity="0.68"/>
<rect width="100" height="48" transform="translate(120 456)" fill="black"/>
<path d="M153.171 474.576H155.667L160.435 482.24H160.467V474.576H162.819V486H160.307L155.555 478.352H155.523V486H153.171V474.576ZM170.559 480.976C170.452 480.4 170.26 479.963 169.983 479.664C169.716 479.365 169.305 479.216 168.751 479.216C168.388 479.216 168.084 479.28 167.839 479.408C167.604 479.525 167.412 479.675 167.263 479.856C167.124 480.037 167.023 480.229 166.959 480.432C166.905 480.635 166.873 480.816 166.863 480.976H170.559ZM166.863 482.416C166.895 483.152 167.081 483.685 167.423 484.016C167.764 484.347 168.255 484.512 168.895 484.512C169.353 484.512 169.748 484.4 170.079 484.176C170.409 483.941 170.612 483.696 170.687 483.44H172.687C172.367 484.432 171.876 485.141 171.215 485.568C170.553 485.995 169.753 486.208 168.815 486.208C168.164 486.208 167.577 486.107 167.055 485.904C166.532 485.691 166.089 485.392 165.727 485.008C165.364 484.624 165.081 484.165 164.879 483.632C164.687 483.099 164.591 482.512 164.591 481.872C164.591 481.253 164.692 480.677 164.895 480.144C165.097 479.611 165.385 479.152 165.759 478.768C166.132 478.373 166.575 478.064 167.087 477.84C167.609 477.616 168.185 477.504 168.815 477.504C169.519 477.504 170.132 477.643 170.655 477.92C171.177 478.187 171.604 478.549 171.935 479.008C172.276 479.467 172.521 479.989 172.671 480.576C172.82 481.163 172.873 481.776 172.831 482.416H166.863ZM176.49 481.648L173.77 477.728H176.362L177.818 479.888L179.258 477.728H181.77L179.05 481.6L182.106 486H179.514L177.786 483.392L176.058 486H173.514L176.49 481.648ZM186.052 477.728H187.716V479.248H186.052V483.344C186.052 483.728 186.116 483.984 186.244 484.112C186.372 484.24 186.628 484.304 187.012 484.304C187.14 484.304 187.262 484.299 187.38 484.288C187.497 484.277 187.609 484.261 187.716 484.24V486C187.524 486.032 187.31 486.053 187.076 486.064C186.841 486.075 186.612 486.08 186.388 486.08C186.036 486.08 185.7 486.053 185.38 486C185.07 485.957 184.793 485.867 184.548 485.728C184.313 485.589 184.126 485.392 183.988 485.136C183.849 484.88 183.78 484.544 183.78 484.128V479.248H182.404V477.728H183.78V475.248H186.052V477.728Z" fill="white"/>
<defs>
<clipPath id="clip0_81743_12414">
<rect width="24" height="24" fill="white" transform="translate(438 254)"/>
</clipPath>
</defs>
</svg>
