<svg width="600" height="120" viewBox="0 0 600 120" fill="none" xmlns="http://www.w3.org/2000/svg">
<rect width="600" height="120" fill="black" fill-opacity="0.04"/>
<path d="M91.248 54.076H92.768V64.22H98.816V65.5H91.248V54.076ZM105.659 60.572C105.637 60.252 105.563 59.948 105.435 59.66C105.317 59.372 105.152 59.1267 104.939 58.924C104.736 58.7107 104.491 58.5453 104.203 58.428C103.925 58.3 103.616 58.236 103.275 58.236C102.923 58.236 102.603 58.3 102.315 58.428C102.037 58.5453 101.797 58.7107 101.595 58.924C101.392 59.1373 101.232 59.388 101.115 59.676C100.997 59.9533 100.928 60.252 100.907 60.572H105.659ZM106.971 62.876C106.789 63.804 106.389 64.5027 105.771 64.972C105.152 65.4413 104.373 65.676 103.435 65.676C102.773 65.676 102.197 65.5693 101.707 65.356C101.227 65.1427 100.821 64.844 100.491 64.46C100.16 64.076 99.9093 63.6173 99.7386 63.084C99.5786 62.5507 99.488 61.9693 99.4666 61.34C99.4666 60.7107 99.5626 60.1347 99.7546 59.612C99.9466 59.0893 100.213 58.636 100.555 58.252C100.907 57.868 101.317 57.5693 101.787 57.356C102.267 57.1427 102.789 57.036 103.355 57.036C104.091 57.036 104.699 57.1907 105.179 57.5C105.669 57.7987 106.059 58.1827 106.347 58.652C106.645 59.1213 106.848 59.6333 106.955 60.188C107.072 60.7427 107.12 61.2707 107.099 61.772H100.907C100.896 62.1347 100.939 62.4813 101.035 62.812C101.131 63.132 101.285 63.42 101.499 63.676C101.712 63.9213 101.984 64.1187 102.315 64.268C102.645 64.4173 103.035 64.492 103.483 64.492C104.059 64.492 104.528 64.3587 104.891 64.092C105.264 63.8253 105.509 63.42 105.627 62.876H106.971ZM115.836 65.468C115.602 65.6067 115.276 65.676 114.86 65.676C114.508 65.676 114.226 65.58 114.012 65.388C113.81 65.1853 113.708 64.86 113.708 64.412C113.335 64.86 112.898 65.1853 112.396 65.388C111.906 65.58 111.372 65.676 110.796 65.676C110.423 65.676 110.066 65.6333 109.724 65.548C109.394 65.4627 109.106 65.3293 108.86 65.148C108.615 64.9667 108.418 64.732 108.268 64.444C108.13 64.1453 108.06 63.788 108.06 63.372C108.06 62.9027 108.14 62.5187 108.3 62.22C108.46 61.9213 108.668 61.6813 108.924 61.5C109.191 61.308 109.49 61.164 109.82 61.068C110.162 60.972 110.508 60.892 110.86 60.828C111.234 60.7533 111.586 60.7 111.916 60.668C112.258 60.6253 112.556 60.572 112.812 60.508C113.068 60.4333 113.271 60.332 113.42 60.204C113.57 60.0653 113.644 59.868 113.644 59.612C113.644 59.3133 113.586 59.0733 113.468 58.892C113.362 58.7107 113.218 58.572 113.036 58.476C112.866 58.38 112.668 58.316 112.444 58.284C112.231 58.252 112.018 58.236 111.804 58.236C111.228 58.236 110.748 58.348 110.364 58.572C109.98 58.7853 109.772 59.196 109.74 59.804H108.38C108.402 59.292 108.508 58.86 108.7 58.508C108.892 58.156 109.148 57.8733 109.468 57.66C109.788 57.436 110.151 57.276 110.556 57.18C110.972 57.084 111.415 57.036 111.884 57.036C112.258 57.036 112.626 57.0627 112.988 57.116C113.362 57.1693 113.698 57.2813 113.996 57.452C114.295 57.612 114.535 57.8413 114.716 58.14C114.898 58.4387 114.988 58.828 114.988 59.308V63.564C114.988 63.884 115.004 64.1187 115.036 64.268C115.079 64.4173 115.207 64.492 115.42 64.492C115.538 64.492 115.676 64.4653 115.836 64.412V65.468ZM113.628 61.228C113.458 61.356 113.234 61.452 112.956 61.516C112.679 61.5693 112.386 61.6173 112.076 61.66C111.778 61.692 111.474 61.7347 111.164 61.788C110.855 61.8307 110.578 61.9053 110.332 62.012C110.087 62.1187 109.884 62.2733 109.724 62.476C109.575 62.668 109.5 62.9347 109.5 63.276C109.5 63.5 109.543 63.692 109.628 63.852C109.724 64.0013 109.842 64.124 109.98 64.22C110.13 64.316 110.3 64.3853 110.492 64.428C110.684 64.4707 110.887 64.492 111.1 64.492C111.548 64.492 111.932 64.4333 112.252 64.316C112.572 64.188 112.834 64.0333 113.036 63.852C113.239 63.66 113.388 63.4573 113.484 63.244C113.58 63.02 113.628 62.812 113.628 62.62V61.228ZM118.094 61.436C118.094 61.82 118.142 62.1987 118.238 62.572C118.345 62.9347 118.499 63.26 118.702 63.548C118.915 63.836 119.182 64.0653 119.502 64.236C119.833 64.4067 120.217 64.492 120.654 64.492C121.113 64.492 121.502 64.4013 121.822 64.22C122.142 64.0387 122.403 63.804 122.606 63.516C122.809 63.2173 122.953 62.8813 123.038 62.508C123.134 62.1347 123.182 61.756 123.182 61.372C123.182 60.9667 123.134 60.5773 123.038 60.204C122.942 59.82 122.787 59.484 122.574 59.196C122.371 58.908 122.105 58.6787 121.774 58.508C121.443 58.3267 121.043 58.236 120.574 58.236C120.115 58.236 119.726 58.3267 119.406 58.508C119.086 58.6893 118.83 58.9293 118.638 59.228C118.446 59.5267 118.307 59.868 118.222 60.252C118.137 60.636 118.094 61.0307 118.094 61.436ZM124.494 65.5H123.134V64.38H123.102C122.878 64.8387 122.526 65.1693 122.046 65.372C121.566 65.5747 121.038 65.676 120.462 65.676C119.822 65.676 119.262 65.5587 118.782 65.324C118.313 65.0893 117.918 64.7747 117.598 64.38C117.289 63.9853 117.054 63.5267 116.894 63.004C116.734 62.4813 116.654 61.9267 116.654 61.34C116.654 60.7533 116.729 60.1987 116.878 59.676C117.038 59.1533 117.273 58.7 117.582 58.316C117.902 57.9213 118.297 57.612 118.766 57.388C119.246 57.1533 119.801 57.036 120.43 57.036C120.643 57.036 120.873 57.0573 121.118 57.1C121.363 57.1427 121.609 57.2173 121.854 57.324C122.099 57.42 122.329 57.5533 122.542 57.724C122.766 57.884 122.953 58.0867 123.102 58.332H123.134V54.076H124.494V65.5ZM128.027 55.74H126.667V54.076H128.027V55.74ZM126.667 57.228H128.027V65.5H126.667V57.228ZM130.133 57.228H131.413V58.54H131.445C132.011 57.5373 132.907 57.036 134.133 57.036C134.677 57.036 135.131 57.1107 135.493 57.26C135.856 57.4093 136.149 57.6173 136.373 57.884C136.597 58.1507 136.752 58.4707 136.837 58.844C136.933 59.2067 136.981 59.612 136.981 60.06V65.5H135.621V59.9C135.621 59.388 135.472 58.9827 135.173 58.684C134.875 58.3853 134.464 58.236 133.941 58.236C133.525 58.236 133.163 58.3 132.853 58.428C132.555 58.556 132.304 58.7373 132.101 58.972C131.899 59.2067 131.744 59.484 131.637 59.804C131.541 60.1133 131.493 60.4547 131.493 60.828V65.5H130.133V57.228ZM146.16 64.796C146.16 66.1507 145.851 67.164 145.232 67.836C144.613 68.508 143.643 68.844 142.32 68.844C141.936 68.844 141.541 68.8013 141.136 68.716C140.741 68.6307 140.379 68.492 140.048 68.3C139.728 68.108 139.461 67.8573 139.248 67.548C139.035 67.2387 138.917 66.86 138.896 66.412H140.256C140.267 66.6573 140.341 66.8653 140.48 67.036C140.629 67.2067 140.805 67.3453 141.008 67.452C141.221 67.5587 141.451 67.6333 141.696 67.676C141.941 67.7293 142.176 67.756 142.4 67.756C142.848 67.756 143.227 67.676 143.536 67.516C143.845 67.3667 144.101 67.1533 144.304 66.876C144.507 66.6093 144.651 66.284 144.736 65.9C144.832 65.516 144.88 65.0947 144.88 64.636V64.092H144.848C144.613 64.604 144.256 64.9827 143.776 65.228C143.307 65.4627 142.805 65.58 142.272 65.58C141.653 65.58 141.115 65.468 140.656 65.244C140.197 65.02 139.813 64.7213 139.504 64.348C139.195 63.964 138.96 63.5213 138.8 63.02C138.651 62.508 138.576 61.9693 138.576 61.404C138.576 60.9133 138.64 60.412 138.768 59.9C138.896 59.3773 139.109 58.908 139.408 58.492C139.707 58.0653 140.101 57.7187 140.592 57.452C141.083 57.1747 141.685 57.036 142.4 57.036C142.923 57.036 143.403 57.1533 143.84 57.388C144.277 57.612 144.619 57.9533 144.864 58.412H144.88V57.228H146.16V64.796ZM142.352 64.396C142.8 64.396 143.179 64.3053 143.488 64.124C143.808 63.932 144.064 63.6867 144.256 63.388C144.448 63.0787 144.587 62.732 144.672 62.348C144.768 61.964 144.816 61.58 144.816 61.196C144.816 60.8333 144.773 60.476 144.688 60.124C144.603 59.772 144.464 59.4573 144.272 59.18C144.091 58.892 143.851 58.6627 143.552 58.492C143.253 58.3213 142.891 58.236 142.464 58.236C142.027 58.236 141.653 58.3213 141.344 58.492C141.035 58.652 140.779 58.8707 140.576 59.148C140.384 59.4253 140.24 59.7453 140.144 60.108C140.059 60.4707 140.016 60.8493 140.016 61.244C140.016 61.6173 140.053 61.9907 140.128 62.364C140.203 62.7373 140.331 63.0787 140.512 63.388C140.693 63.6867 140.933 63.932 141.232 64.124C141.531 64.3053 141.904 64.396 142.352 64.396ZM154.105 55.74H152.745V54.076H154.105V55.74ZM152.745 57.228H154.105V65.5H152.745V57.228ZM161.828 59.884C161.721 59.3613 161.497 58.956 161.156 58.668C160.814 58.38 160.356 58.236 159.78 58.236C159.289 58.236 158.878 58.3267 158.548 58.508C158.217 58.6893 157.95 58.9293 157.748 59.228C157.556 59.5267 157.417 59.8733 157.332 60.268C157.246 60.652 157.204 61.052 157.204 61.468C157.204 61.852 157.246 62.2253 157.332 62.588C157.428 62.9507 157.572 63.276 157.764 63.564C157.956 63.8413 158.206 64.0653 158.516 64.236C158.825 64.4067 159.193 64.492 159.62 64.492C160.292 64.492 160.814 64.316 161.188 63.964C161.572 63.612 161.806 63.116 161.892 62.476H163.284C163.134 63.5 162.75 64.2893 162.132 64.844C161.524 65.3987 160.692 65.676 159.636 65.676C159.006 65.676 158.446 65.5747 157.956 65.372C157.476 65.1693 157.07 64.8813 156.74 64.508C156.42 64.1347 156.174 63.692 156.004 63.18C155.844 62.6573 155.764 62.0867 155.764 61.468C155.764 60.8493 155.844 60.2733 156.004 59.74C156.164 59.196 156.404 58.7267 156.724 58.332C157.054 57.9267 157.465 57.612 157.956 57.388C158.446 57.1533 159.017 57.036 159.668 57.036C160.137 57.036 160.574 57.0947 160.98 57.212C161.396 57.3187 161.758 57.4893 162.068 57.724C162.388 57.9587 162.649 58.2573 162.852 58.62C163.054 58.972 163.182 59.3933 163.236 59.884H161.828ZM165.797 61.372C165.797 61.8733 165.861 62.3213 165.989 62.716C166.128 63.1 166.315 63.4253 166.549 63.692C166.784 63.948 167.056 64.1453 167.365 64.284C167.685 64.4227 168.021 64.492 168.373 64.492C168.725 64.492 169.056 64.4227 169.365 64.284C169.685 64.1453 169.963 63.948 170.197 63.692C170.432 63.4253 170.613 63.1 170.741 62.716C170.88 62.3213 170.949 61.8733 170.949 61.372C170.949 60.8707 170.88 60.428 170.741 60.044C170.613 59.6493 170.432 59.3187 170.197 59.052C169.963 58.7853 169.685 58.5827 169.365 58.444C169.056 58.3053 168.725 58.236 168.373 58.236C168.021 58.236 167.685 58.3053 167.365 58.444C167.056 58.5827 166.784 58.7853 166.549 59.052C166.315 59.3187 166.128 59.6493 165.989 60.044C165.861 60.428 165.797 60.8707 165.797 61.372ZM164.357 61.372C164.357 60.764 164.443 60.1987 164.613 59.676C164.784 59.1427 165.04 58.684 165.381 58.3C165.723 57.9053 166.144 57.596 166.645 57.372C167.147 57.148 167.723 57.036 168.373 57.036C169.035 57.036 169.611 57.148 170.101 57.372C170.603 57.596 171.024 57.9053 171.365 58.3C171.707 58.684 171.963 59.1427 172.133 59.676C172.304 60.1987 172.389 60.764 172.389 61.372C172.389 61.98 172.304 62.5453 172.133 63.068C171.963 63.5907 171.707 64.0493 171.365 64.444C171.024 64.828 170.603 65.132 170.101 65.356C169.611 65.5693 169.035 65.676 168.373 65.676C167.723 65.676 167.147 65.5693 166.645 65.356C166.144 65.132 165.723 64.828 165.381 64.444C165.04 64.0493 164.784 63.5907 164.613 63.068C164.443 62.5453 164.357 61.98 164.357 61.372ZM173.993 57.228H175.273V58.54H175.305C175.87 57.5373 176.766 57.036 177.993 57.036C178.537 57.036 178.99 57.1107 179.353 57.26C179.715 57.4093 180.009 57.6173 180.233 57.884C180.457 58.1507 180.611 58.4707 180.697 58.844C180.793 59.2067 180.841 59.612 180.841 60.06V65.5H179.481V59.9C179.481 59.388 179.331 58.9827 179.033 58.684C178.734 58.3853 178.323 58.236 177.801 58.236C177.385 58.236 177.022 58.3 176.713 58.428C176.414 58.556 176.163 58.7373 175.961 58.972C175.758 59.2067 175.603 59.484 175.497 59.804C175.401 60.1133 175.353 60.4547 175.353 60.828V65.5H173.993V57.228Z" fill="black" fill-opacity="0.68"/>
<mask id="path-2-inside-1_68467_26143" fill="white">
<path d="M250 30H516V90H250V30Z"/>
</mask>
<path d="M250 30H516V90H250V30Z" fill="black" fill-opacity="0.04"/>
<path d="M516 90V89H250V90V91H516V90Z" fill="black" fill-opacity="0.2" mask="url(#path-2-inside-1_68467_26143)"/>
<path fill-rule="evenodd" clip-rule="evenodd" d="M284.4 59.2421L278 66.2465L271.6 59.2421L271.597 59.2385C270.357 57.8792 270.468 55.7844 271.844 54.5597C273.169 53.3802 275.198 53.4321 276.459 54.6785C276.462 54.682 276.466 54.6853 276.469 54.6885L277.448 55.6078L278 56.1329L278.552 55.6081L279.531 54.6885C279.534 54.6853 279.538 54.682 279.541 54.6785C280.169 54.0552 281.022 53.7061 281.912 53.7084C283.763 53.7084 285.265 55.1913 285.265 57.0211C285.265 57.8402 284.958 58.6301 284.403 59.2385L284.4 59.2421ZM285.864 53.1171C283.694 50.9736 280.186 50.9613 278 53.0786C275.815 50.9613 272.306 50.9736 270.137 53.1171C267.99 55.2382 267.955 58.6557 270.032 60.8191L278 69.5L285.968 60.8191C288.045 58.6557 288.01 55.2382 285.864 53.1171Z" fill="black" fill-opacity="0.68"/>
<path d="M303.248 54.576H304.768V64.72H310.816V66H303.248V54.576ZM319.443 65.968C319.208 66.1067 318.883 66.176 318.467 66.176C318.115 66.176 317.832 66.08 317.619 65.888C317.416 65.6853 317.315 65.36 317.315 64.912C316.941 65.36 316.504 65.6853 316.003 65.888C315.512 66.08 314.979 66.176 314.403 66.176C314.029 66.176 313.672 66.1333 313.331 66.048C313 65.9627 312.712 65.8293 312.467 65.648C312.221 65.4667 312.024 65.232 311.875 64.944C311.736 64.6453 311.667 64.288 311.667 63.872C311.667 63.4027 311.747 63.0187 311.907 62.72C312.067 62.4213 312.275 62.1813 312.531 62C312.797 61.808 313.096 61.664 313.427 61.568C313.768 61.472 314.115 61.392 314.467 61.328C314.84 61.2533 315.192 61.2 315.523 61.168C315.864 61.1253 316.163 61.072 316.419 61.008C316.675 60.9333 316.877 60.832 317.027 60.704C317.176 60.5653 317.251 60.368 317.251 60.112C317.251 59.8133 317.192 59.5733 317.075 59.392C316.968 59.2107 316.824 59.072 316.643 58.976C316.472 58.88 316.275 58.816 316.051 58.784C315.837 58.752 315.624 58.736 315.411 58.736C314.835 58.736 314.355 58.848 313.971 59.072C313.587 59.2853 313.379 59.696 313.347 60.304H311.987C312.008 59.792 312.115 59.36 312.307 59.008C312.499 58.656 312.755 58.3733 313.075 58.16C313.395 57.936 313.757 57.776 314.163 57.68C314.579 57.584 315.021 57.536 315.491 57.536C315.864 57.536 316.232 57.5627 316.595 57.616C316.968 57.6693 317.304 57.7813 317.603 57.952C317.901 58.112 318.141 58.3413 318.323 58.64C318.504 58.9387 318.595 59.328 318.595 59.808V64.064C318.595 64.384 318.611 64.6187 318.643 64.768C318.685 64.9173 318.813 64.992 319.027 64.992C319.144 64.992 319.283 64.9653 319.443 64.912V65.968ZM317.235 61.728C317.064 61.856 316.84 61.952 316.563 62.016C316.285 62.0693 315.992 62.1173 315.683 62.16C315.384 62.192 315.08 62.2347 314.771 62.288C314.461 62.3307 314.184 62.4053 313.939 62.512C313.693 62.6187 313.491 62.7733 313.331 62.976C313.181 63.168 313.107 63.4347 313.107 63.776C313.107 64 313.149 64.192 313.235 64.352C313.331 64.5013 313.448 64.624 313.587 64.72C313.736 64.816 313.907 64.8853 314.099 64.928C314.291 64.9707 314.493 64.992 314.707 64.992C315.155 64.992 315.539 64.9333 315.859 64.816C316.179 64.688 316.44 64.5333 316.643 64.352C316.845 64.16 316.995 63.9573 317.091 63.744C317.187 63.52 317.235 63.312 317.235 63.12V61.728ZM320.956 54.576H322.316V58.848H322.348C322.572 58.3893 322.924 58.0587 323.404 57.856C323.884 57.6427 324.412 57.536 324.988 57.536C325.628 57.536 326.183 57.6533 326.652 57.888C327.132 58.1227 327.527 58.4427 327.836 58.848C328.156 59.2427 328.396 59.7013 328.556 60.224C328.716 60.7467 328.796 61.3013 328.796 61.888C328.796 62.4747 328.716 63.0293 328.556 63.552C328.407 64.0747 328.172 64.5333 327.852 64.928C327.543 65.312 327.148 65.616 326.668 65.84C326.199 66.064 325.65 66.176 325.02 66.176C324.818 66.176 324.588 66.1547 324.332 66.112C324.087 66.0693 323.842 66 323.596 65.904C323.351 65.808 323.116 65.68 322.892 65.52C322.679 65.3493 322.498 65.1413 322.348 64.896H322.316V66H320.956V54.576ZM327.356 61.792C327.356 61.408 327.303 61.0347 327.196 60.672C327.1 60.2987 326.946 59.968 326.732 59.68C326.53 59.392 326.263 59.1627 325.932 58.992C325.612 58.8213 325.234 58.736 324.796 58.736C324.338 58.736 323.948 58.8267 323.628 59.008C323.308 59.1893 323.047 59.4293 322.844 59.728C322.642 60.016 322.492 60.3467 322.396 60.72C322.311 61.0933 322.268 61.472 322.268 61.856C322.268 62.2613 322.316 62.656 322.412 63.04C322.508 63.4133 322.658 63.744 322.86 64.032C323.074 64.32 323.346 64.5547 323.676 64.736C324.007 64.9067 324.407 64.992 324.876 64.992C325.346 64.992 325.735 64.9013 326.044 64.72C326.364 64.5387 326.62 64.2987 326.812 64C327.004 63.7013 327.143 63.36 327.228 62.976C327.314 62.592 327.356 62.1973 327.356 61.792ZM336.337 61.072C336.315 60.752 336.241 60.448 336.113 60.16C335.995 59.872 335.83 59.6267 335.617 59.424C335.414 59.2107 335.169 59.0453 334.881 58.928C334.603 58.8 334.294 58.736 333.953 58.736C333.601 58.736 333.281 58.8 332.993 58.928C332.715 59.0453 332.475 59.2107 332.273 59.424C332.07 59.6373 331.91 59.888 331.793 60.176C331.675 60.4533 331.606 60.752 331.585 61.072H336.337ZM337.649 63.376C337.467 64.304 337.067 65.0027 336.449 65.472C335.83 65.9413 335.051 66.176 334.113 66.176C333.451 66.176 332.875 66.0693 332.385 65.856C331.905 65.6427 331.499 65.344 331.169 64.96C330.838 64.576 330.587 64.1173 330.417 63.584C330.257 63.0507 330.166 62.4693 330.145 61.84C330.145 61.2107 330.241 60.6347 330.433 60.112C330.625 59.5893 330.891 59.136 331.233 58.752C331.585 58.368 331.995 58.0693 332.465 57.856C332.945 57.6427 333.467 57.536 334.033 57.536C334.769 57.536 335.377 57.6907 335.857 58C336.347 58.2987 336.737 58.6827 337.025 59.152C337.323 59.6213 337.526 60.1333 337.633 60.688C337.75 61.2427 337.798 61.7707 337.777 62.272H331.585C331.574 62.6347 331.617 62.9813 331.713 63.312C331.809 63.632 331.963 63.92 332.177 64.176C332.39 64.4213 332.662 64.6187 332.993 64.768C333.323 64.9173 333.713 64.992 334.161 64.992C334.737 64.992 335.206 64.8587 335.569 64.592C335.942 64.3253 336.187 63.92 336.305 63.376H337.649ZM339.466 54.576H340.826V66H339.466V54.576Z" fill="black" fill-opacity="0.68"/>
<g clip-path="url(#clip0_68467_26143)">
<path d="M478.874 57.9766L485.999 65.25L493.124 57.9766L491.09 55.8984L485.999 61.0948L480.911 55.8984L478.874 57.9766Z" fill="black"/>
</g>
<defs>
<clipPath id="clip0_68467_26143">
<rect width="24" height="24" fill="white" transform="translate(474 48)"/>
</clipPath>
</defs>
</svg>
